g ChosenSaint_TopTeeth
v 0.00575697329 1.55827415 0.108160324
v -0.000486097211 1.55061114 0.108575515
v -0.000486097182 1.55698097 0.108674236
v 0.00950583816 1.55015743 0.107248917
v 0.0155657362 1.55992234 0.105914228
v 0.0177138764 1.55039537 0.102088317
v 0.0256997347 1.55992579 0.0970144644
v 0.0248183683 1.55133379 0.0958520472
v 0.0314245149 1.5625844 0.0890195444
v 0.0309594832 1.5529846 0.0873399302
v 0.0359701999 1.562886 0.0796328709
v 0.00277933222 1.54141557 0.106731109
v -0.000486097211 1.54226172 0.107162394
v 0.00836597662 1.54098856 0.105643459
v 0.00978192315 1.54371071 0.104372248
v 0.0101074632 1.54128373 0.103262633
v 0.0150361229 1.5421927 0.099723734
v 0.0195938386 1.5451982 0.0967525467
v 0.0200189184 1.54709363 0.0966844931
v 0.0209136251 1.54465389 0.0951754004
v 0.024182111 1.54561126 0.0933058113
v 0.0271377601 1.54737723 0.0922317505
v 0.0280967373 1.54929364 0.0914549977
v 0.0289535485 1.54680371 0.0890320539
v 0.0302887075 1.54682612 0.0862924159
v 0.0356905274 1.5558784 0.0798914284
v 0.039824333 1.56290567 0.0687553361
v 0.0338879712 1.55044496 0.0803771168
v 0.0378852785 1.55502594 0.0720436871
v 0.0355202444 1.54794049 0.0746739954
v 0.00509549351 1.55856335 0.105133437
v -0.000486097211 1.55725205 0.105540842
v -0.000486096164 1.55099082 0.10544464
v 0.00850757118 1.55099082 0.104153208
v 0.0141533706 1.56040549 0.103218608
v 0.0159589648 1.5513624 0.09971077
v 0.0236495249 1.56043899 0.0948931128
v 0.0229611769 1.55222452 0.093554534
v 0.0290593244 1.56295943 0.087330699
v 0.028557891 1.55340278 0.0857060254
v 0.0333892405 1.56313384 0.0783259571
v 0.0024549237 1.54190087 0.103688657
v -0.000486097211 1.54269314 0.104053952
v 0.00665365206 1.54175794 0.102865443
v 0.00840502884 1.54521632 0.101340786
v 0.00956040062 1.54263961 0.100322187
v 0.0134008294 1.54337204 0.0974567384
v 0.0174137391 1.54615307 0.0949247703
v 0.0179427695 1.54825079 0.0947384611
v 0.0194486659 1.54606259 0.0929129794
v 0.0227909274 1.54684997 0.090902023
v 0.0252075288 1.54804409 0.0898868516
v 0.0257391296 1.54954255 0.0897084773
v 0.0265061706 1.54733777 0.0875475258
v 0.0278396048 1.54744935 0.0848463401
v 0.0331264287 1.55636871 0.0785974115
v 0.0371534377 1.56313169 0.0677195713
v 0.031371817 1.55117095 0.0791114792
v 0.035239365 1.55552244 0.0709902197
v 0.0329399072 1.54869998 0.0736190751
v 0.00509549351 1.55856335 0.105133437
v -0.000486097182 1.55698097 0.108674236
v -0.000486097211 1.55725205 0.105540842
v 0.00575697329 1.55827415 0.108160324
v 0.0141533706 1.56040549 0.103218608
v 0.0155657362 1.55992234 0.105914228
v 0.0236495249 1.56043899 0.0948931128
v 0.0256997347 1.55992579 0.0970144644
v 0.0290593244 1.56295943 0.087330699
v 0.0314245149 1.5625844 0.0890195444
v 0.0333892405 1.56313384 0.0783259571
v 0.0359701999 1.562886 0.0796328709
v 0.0371534377 1.56313169 0.0677195713
v 0.039824333 1.56290567 0.0687553361
v 0.035239365 1.55552244 0.0709902197
v 0.039824333 1.56290567 0.0687553361
v 0.0371534377 1.56313169 0.0677195713
v 0.0378852785 1.55502594 0.0720436871
v 0.0329399072 1.54869998 0.0736190751
v 0.0355202444 1.54794049 0.0746739954
v 0.0024549237 1.54190087 0.103688657
v 0.00836597662 1.54098856 0.105643459
v 0.00665365206 1.54175794 0.102865443
v 0.00277933222 1.54141557 0.106731109
v -0.000486097211 1.54269314 0.104053952
v -0.000486097211 1.54226172 0.107162394
v 0.0134008294 1.54337204 0.0974567384
v 0.0195938386 1.5451982 0.0967525467
v 0.0174137391 1.54615307 0.0949247703
v 0.0150361229 1.5421927 0.099723734
v 0.00956040062 1.54263961 0.100322187
v 0.0101074632 1.54128373 0.103262633
v 0.0179427695 1.54825079 0.0947384611
v 0.0200189184 1.54709363 0.0966844931
v 0.0209136251 1.54465389 0.0951754004
v 0.0194486659 1.54606259 0.0929129794
v 0.0257391296 1.54954255 0.0897084773
v 0.0280967373 1.54929364 0.0914549977
v 0.0289535485 1.54680371 0.0890320539
v 0.0265061706 1.54733777 0.0875475258
v 0.0278396048 1.54744935 0.0848463401
v 0.0338879712 1.55044496 0.0803771168
v 0.031371817 1.55117095 0.0791114792
v 0.0302887075 1.54682612 0.0862924159
v 0.0265061706 1.54733777 0.0875475258
v 0.0289535485 1.54680371 0.0890320539
v 0.031371817 1.55117095 0.0791114792
v 0.0338879712 1.55044496 0.0803771168
v 0.0355202444 1.54794049 0.0746739954
v 0.0329399072 1.54869998 0.0736190751
v 0.00665365206 1.54175794 0.102865443
v 0.00836597662 1.54098856 0.105643459
v 0.00978192315 1.54371071 0.104372248
v 0.00840502884 1.54521632 0.101340786
v 0.00840502884 1.54521632 0.101340786
v 0.00978192315 1.54371071 0.104372248
v 0.0101074632 1.54128373 0.103262633
v 0.00956040062 1.54263961 0.100322187
v 0.0194486659 1.54606259 0.0929129794
v 0.0209136251 1.54465389 0.0951754004
v 0.024182111 1.54561126 0.0933058113
v 0.0227909274 1.54684997 0.090902023
v 0.0227909274 1.54684997 0.090902023
v 0.024182111 1.54561126 0.0933058113
v 0.0271377601 1.54737723 0.0922317505
v 0.0252075288 1.54804409 0.0898868516
v 0.0252075288 1.54804409 0.0898868516
v 0.0271377601 1.54737723 0.0922317505
v 0.0280967373 1.54929364 0.0914549977
v 0.0257391296 1.54954255 0.0897084773
v 0.0174137391 1.54615307 0.0949247703
v 0.0195938386 1.5451982 0.0967525467
v 0.0200189184 1.54709363 0.0966844931
v 0.0179427695 1.54825079 0.0947384611
v -0.00672916835 1.55827415 0.108160324
v -0.000486097182 1.55698097 0.108674236
v -0.000486097211 1.55061114 0.108575515
v -0.0104780328 1.55015743 0.107248917
v -0.0165379308 1.55992234 0.105914228
v -0.018686071 1.55039537 0.102088317
v -0.0266719293 1.55992579 0.0970144644
v -0.0257905629 1.55133379 0.0958520472
v -0.0323967077 1.5625844 0.0890195444
v -0.0319316797 1.5529846 0.0873399302
v -0.0369424 1.562886 0.0796328709
v -0.00375152659 1.54141557 0.106731109
v -0.000486097211 1.54226172 0.107162394
v -0.00933817215 1.54098856 0.105643459
v -0.0107541177 1.54371071 0.104372248
v -0.0110796578 1.54128373 0.103262633
v -0.0160083175 1.5421927 0.099723734
v -0.0205660332 1.5451982 0.0967525467
v -0.020991113 1.54709363 0.0966844931
v -0.0218858197 1.54465389 0.0951754004
v -0.0251543056 1.54561126 0.0933058113
v -0.0285442267 1.5467962 0.0930921882
v -0.0290689319 1.54929364 0.0914549977
v -0.0299257431 1.54680371 0.0890320539
v -0.0312609039 1.54682612 0.0862924159
v -0.0366627201 1.5558784 0.0798914284
v -0.0407965332 1.56290567 0.0687553361
v -0.0348601677 1.55044496 0.0803771168
v -0.0388574712 1.55502594 0.0720436871
v -0.0364924408 1.54794049 0.0746739954
v -0.00606768811 1.55856335 0.105133437
v -0.000486096164 1.55099082 0.10544464
v -0.000486097211 1.55725205 0.105540842
v -0.00947976764 1.55099082 0.104153208
v -0.0151255652 1.56040549 0.103218608
v -0.0169311594 1.5513624 0.09971077
v -0.0246217195 1.56043899 0.0948931128
v -0.0239333753 1.55222452 0.093554534
v -0.030031519 1.56295943 0.087330699
v -0.0295300856 1.55340278 0.0857060254
v -0.034361437 1.56313384 0.0783259571
v -0.00342711806 1.54190087 0.103688657
v -0.000486097211 1.54269314 0.104053952
v -0.00762584666 1.54175794 0.102865443
v -0.00937722251 1.54521632 0.101340786
v -0.0105325961 1.54263961 0.100322187
v -0.014373024 1.54337204 0.0974567384
v -0.0183859337 1.54615307 0.0949247703
v -0.0189149622 1.54825079 0.0947384611
v -0.0204208605 1.54606259 0.0929129794
v -0.023763122 1.54684997 0.090902023
v -0.0266139936 1.54746306 0.0907472968
v -0.0267113242 1.54954255 0.0897084773
v -0.0274783652 1.54733777 0.0875475258
v -0.0288117994 1.54744935 0.0848463401
v -0.0340986215 1.55636871 0.0785974115
v -0.0381256305 1.56313169 0.0677195713
v -0.0323440135 1.55117095 0.0791114792
v -0.0362115614 1.55552244 0.0709902197
v -0.0339121036 1.54869998 0.0736190751
v -0.00606768811 1.55856335 0.105133437
v -0.000486097211 1.55725205 0.105540842
v -0.000486097182 1.55698097 0.108674236
v -0.00672916835 1.55827415 0.108160324
v -0.0151255652 1.56040549 0.103218608
v -0.0165379308 1.55992234 0.105914228
v -0.0246217195 1.56043899 0.0948931128
v -0.0266719293 1.55992579 0.0970144644
v -0.030031519 1.56295943 0.087330699
v -0.0323967077 1.5625844 0.0890195444
v -0.034361437 1.56313384 0.0783259571
v -0.0369424 1.562886 0.0796328709
v -0.0381256305 1.56313169 0.0677195713
v -0.0407965332 1.56290567 0.0687553361
v -0.0362115614 1.55552244 0.0709902197
v -0.0381256305 1.56313169 0.0677195713
v -0.0407965332 1.56290567 0.0687553361
v -0.0388574712 1.55502594 0.0720436871
v -0.0339121036 1.54869998 0.0736190751
v -0.0364924408 1.54794049 0.0746739954
v -0.00342711806 1.54190087 0.103688657
v -0.00762584666 1.54175794 0.102865443
v -0.00933817215 1.54098856 0.105643459
v -0.00375152659 1.54141557 0.106731109
v -0.000486097211 1.54269314 0.104053952
v -0.000486097211 1.54226172 0.107162394
v -0.014373024 1.54337204 0.0974567384
v -0.0183859337 1.54615307 0.0949247703
v -0.0205660332 1.5451982 0.0967525467
v -0.0160083175 1.5421927 0.099723734
v -0.0105325961 1.54263961 0.100322187
v -0.0110796578 1.54128373 0.103262633
v -0.0189149622 1.54825079 0.0947384611
v -0.0204208605 1.54606259 0.0929129794
v -0.0218858197 1.54465389 0.0951754004
v -0.020991113 1.54709363 0.0966844931
v -0.0267113242 1.54954255 0.0897084773
v -0.0274783652 1.54733777 0.0875475258
v -0.0299257431 1.54680371 0.0890320539
v -0.0290689319 1.54929364 0.0914549977
v -0.0288117994 1.54744935 0.0848463401
v -0.0323440135 1.55117095 0.0791114792
v -0.0348601677 1.55044496 0.0803771168
v -0.0312609039 1.54682612 0.0862924159
v -0.0274783652 1.54733777 0.0875475258
v -0.0299257431 1.54680371 0.0890320539
v -0.0323440135 1.55117095 0.0791114792
v -0.0339121036 1.54869998 0.0736190751
v -0.0364924408 1.54794049 0.0746739954
v -0.0348601677 1.55044496 0.0803771168
v -0.00762584666 1.54175794 0.102865443
v -0.00937722251 1.54521632 0.101340786
v -0.0107541177 1.54371071 0.104372248
v -0.00933817215 1.54098856 0.105643459
v -0.00937722251 1.54521632 0.101340786
v -0.0105325961 1.54263961 0.100322187
v -0.0110796578 1.54128373 0.103262633
v -0.0107541177 1.54371071 0.104372248
v -0.0204208605 1.54606259 0.0929129794
v -0.023763122 1.54684997 0.090902023
v -0.0251543056 1.54561126 0.0933058113
v -0.0218858197 1.54465389 0.0951754004
v -0.023763122 1.54684997 0.090902023
v -0.0266139936 1.54746306 0.0907472968
v -0.0285442267 1.5467962 0.0930921882
v -0.0251543056 1.54561126 0.0933058113
v -0.0266139936 1.54746306 0.0907472968
v -0.0267113242 1.54954255 0.0897084773
v -0.0290689319 1.54929364 0.0914549977
v -0.0285442267 1.5467962 0.0930921882
v -0.0183859337 1.54615307 0.0949247703
v -0.0189149622 1.54825079 0.0947384611
v -0.020991113 1.54709363 0.0966844931
v -0.0205660332 1.5451982 0.0967525467
vt 0.344970703 0.974609375
vt 0.340087891 0.969726562
vt 0.340087891 0.974609375
vt 0.347412109 0.968261719
vt 0.352050781 0.975097656
vt 0.354980469 0.968261719
vt 0.361328125 0.975585938
vt 0.361816406 0.96875
vt 0.368164062 0.978027344
vt 0.369628906 0.971191406
vt 0.375488281 0.979492188
vt 0.342529297 0.962890625
vt 0.340087891 0.962890625
vt 0.346679688 0.962890625
vt 0.348632812 0.964355469
vt 0.349121094 0.962890625
vt 0.353271484 0.962890625
vt 0.357666016 0.963867188
vt 0.358642578 0.96484375
vt 0.360595703 0.963867188
vt 0.363037109 0.96484375
vt 0.364746094 0.966796875
vt 0.366455078 0.967285156
vt 0.368896484 0.966796875
vt 0.37109375 0.966796875
vt 0.375488281 0.974121094
vt 0.383300781 0.979492188
vt 0.375732422 0.969726562
vt 0.381347656 0.974121094
vt 0.379882812 0.969726562
vt 0.407226562 0.94140625
vt 0.40234375 0.942871094
vt 0.402587891 0.948242188
vt 0.410644531 0.948242188
vt 0.415527344 0.939453125
vt 0.418701172 0.947753906
vt 0.427001953 0.939941406
vt 0.427246094 0.947265625
vt 0.435546875 0.937988281
vt 0.436035156 0.946777344
vt 0.444580078 0.938476562
vt 0.405517578 0.956542969
vt 0.402832031 0.956054688
vt 0.409423828 0.956542969
vt 0.411865234 0.954101562
vt 0.413574219 0.956054688
vt 0.417724609 0.955566406
vt 0.422119141 0.953125
vt 0.422851562 0.951660156
vt 0.425048828 0.953613281
vt 0.428466797 0.952636719
vt 0.430175781 0.950195312
vt 0.431396484 0.950195312
vt 0.433349609 0.952148438
vt 0.436035156 0.952148438
vt 0.443847656 0.944335938
vt 0.454833984 0.939453125
vt 0.442382812 0.94921875
vt 0.450683594 0.945800781
vt 0.447265625 0.952148438
vt 0.344726562 0.977050781
vt 0.340087891 0.974609375
vt 0.340332031 0.977050781
vt 0.344970703 0.974609375
vt 0.352050781 0.977539062
vt 0.352050781 0.975097656
vt 0.361328125 0.978027344
vt 0.361328125 0.975585938
vt 0.368164062 0.98046875
vt 0.368164062 0.978027344
vt 0.375976562 0.981445312
vt 0.375488281 0.979492188
vt 0.384765625 0.98046875
vt 0.383300781 0.979492188
vt 0.383544922 0.973632812
vt 0.383300781 0.979492188
vt 0.384765625 0.98046875
vt 0.381347656 0.974121094
vt 0.381591797 0.96875
vt 0.379882812 0.969726562
vt 0.343017578 0.9609375
vt 0.346679688 0.962890625
vt 0.346191406 0.961425781
vt 0.342529297 0.962890625
vt 0.340820312 0.960449219
vt 0.340087891 0.962890625
vt 0.353759766 0.960449219
vt 0.357666016 0.963867188
vt 0.357910156 0.961914062
vt 0.353271484 0.962890625
vt 0.350097656 0.9609375
vt 0.349121094 0.962890625
vt 0.359130859 0.961914062
vt 0.358642578 0.96484375
vt 0.360595703 0.963867188
vt 0.361083984 0.961914062
vt 0.366943359 0.96484375
vt 0.366455078 0.967285156
vt 0.368896484 0.966796875
vt 0.369628906 0.96484375
vt 0.372314453 0.965332031
vt 0.375732422 0.969726562
vt 0.376953125 0.967773438
vt 0.37109375 0.966796875
vt 0.369628906 0.96484375
vt 0.368896484 0.966796875
vt 0.376953125 0.967773438
vt 0.375732422 0.969726562
vt 0.379882812 0.969726562
vt 0.381591797 0.96875
vt 0.346191406 0.961425781
vt 0.346679688 0.962890625
vt 0.348632812 0.964355469
vt 0.348388672 0.9609375
vt 0.348388672 0.9609375
vt 0.348632812 0.964355469
vt 0.349121094 0.962890625
vt 0.350097656 0.9609375
vt 0.361083984 0.961914062
vt 0.360595703 0.963867188
vt 0.363037109 0.96484375
vt 0.364257812 0.962890625
vt 0.364257812 0.962890625
vt 0.363037109 0.96484375
vt 0.364746094 0.966796875
vt 0.366210938 0.96484375
vt 0.366210938 0.96484375
vt 0.364746094 0.966796875
vt 0.366455078 0.967285156
vt 0.366943359 0.96484375
vt 0.357910156 0.961914062
vt 0.357666016 0.963867188
vt 0.358642578 0.96484375
vt 0.359130859 0.961914062
vt 0.335205078 0.974609375
vt 0.340087891 0.974609375
vt 0.340087891 0.969726562
vt 0.332763672 0.968261719
vt 0.328125 0.975097656
vt 0.325195312 0.968261719
vt 0.318603516 0.975097656
vt 0.318359375 0.968261719
vt 0.311767578 0.977539062
vt 0.310546875 0.970214844
vt 0.304443359 0.978515625
vt 0.337890625 0.962890625
vt 0.340087891 0.962890625
vt 0.333740234 0.962890625
vt 0.331787109 0.963867188
vt 0.331298828 0.962890625
vt 0.326904297 0.962402344
vt 0.322509766 0.963378906
vt 0.321533203 0.964355469
vt 0.319824219 0.963867188
vt 0.317138672 0.964355469
vt 0.315429688 0.966308594
vt 0.313964844 0.966796875
vt 0.311279297 0.965820312
vt 0.309326172 0.966308594
vt 0.3046875 0.973632812
vt 0.296630859 0.978515625
vt 0.304443359 0.969238281
vt 0.298583984 0.973632812
vt 0.300292969 0.96875
vt 0.397216797 0.941894531
vt 0.402587891 0.948242188
vt 0.40234375 0.942871094
vt 0.394287109 0.948730469
vt 0.388671875 0.940429688
vt 0.386230469 0.94921875
vt 0.377441406 0.941894531
vt 0.377929688 0.94921875
vt 0.368652344 0.940429688
vt 0.368896484 0.94921875
vt 0.359863281 0.941894531
vt 0.400146484 0.95703125
vt 0.402832031 0.956054688
vt 0.396240234 0.95703125
vt 0.393554688 0.954589844
vt 0.392089844 0.95703125
vt 0.387695312 0.95703125
vt 0.383300781 0.954589844
vt 0.382324219 0.953125
vt 0.380371094 0.955078125
vt 0.376953125 0.954589844
vt 0.375 0.952148438
vt 0.373779297 0.952148438
vt 0.372070312 0.954589844
vt 0.369384766 0.954589844
vt 0.361083984 0.947753906
vt 0.349609375 0.943359375
vt 0.362792969 0.952148438
vt 0.354248047 0.949707031
vt 0.358154297 0.955566406
vt 0.335205078 0.977050781
vt 0.339599609 0.977050781
vt 0.340087891 0.974609375
vt 0.335205078 0.974609375
vt 0.328125 0.977050781
vt 0.328125 0.975097656
vt 0.318847656 0.977539062
vt 0.318603516 0.975097656
vt 0.311767578 0.979980469
vt 0.311767578 0.977539062
vt 0.303955078 0.980957031
vt 0.304443359 0.978515625
vt 0.295166016 0.979492188
vt 0.296630859 0.978515625
vt 0.296630859 0.973144531
vt 0.295166016 0.979492188
vt 0.296630859 0.978515625
vt 0.298583984 0.973632812
vt 0.298583984 0.968261719
vt 0.300292969 0.96875
vt 0.337402344 0.9609375
vt 0.333984375 0.9609375
vt 0.333740234 0.962890625
vt 0.337890625 0.962890625
vt 0.339599609 0.960449219
vt 0.340087891 0.962890625
vt 0.326416016 0.960449219
vt 0.322509766 0.961425781
vt 0.322509766 0.963378906
vt 0.326904297 0.962402344
vt 0.330322266 0.9609375
vt 0.331298828 0.962890625
vt 0.321289062 0.961914062
vt 0.319335938 0.961914062
vt 0.319824219 0.963867188
vt 0.321533203 0.964355469
vt 0.313232422 0.964355469
vt 0.310546875 0.963867188
vt 0.311279297 0.965820312
vt 0.313964844 0.966796875
vt 0.308105469 0.96484375
vt 0.303222656 0.967285156
vt 0.304443359 0.969238281
vt 0.309326172 0.966308594
vt 0.310546875 0.963867188
vt 0.311279297 0.965820312
vt 0.303222656 0.967285156
vt 0.298583984 0.968261719
vt 0.300292969 0.96875
vt 0.304443359 0.969238281
vt 0.333984375 0.9609375
vt 0.331787109 0.9609375
vt 0.331787109 0.963867188
vt 0.333740234 0.962890625
vt 0.331787109 0.9609375
vt 0.330322266 0.9609375
vt 0.331298828 0.962890625
vt 0.331787109 0.963867188
vt 0.319335938 0.961914062
vt 0.316162109 0.962402344
vt 0.317138672 0.964355469
vt 0.319824219 0.963867188
vt 0.316162109 0.962402344
vt 0.314208984 0.964355469
vt 0.315429688 0.966308594
vt 0.317138672 0.964355469
vt 0.314208984 0.964355469
vt 0.313232422 0.964355469
vt 0.313964844 0.966796875
vt 0.315429688 0.966308594
vt 0.322509766 0.961425781
vt 0.321289062 0.961914062
vt 0.321533203 0.964355469
vt 0.322509766 0.963378906
vn 0.258746654 -0.0798527524 0.962638915
vn 0.126539066 -0.100919567 0.986814618
vn 0.114576928 -0.0395635441 0.99262625
vn 0.330397308 -0.171512365 0.928127766
vn 0.514758945 -0.136115879 0.84646076
vn 0.570151806 -0.221536934 0.791105807
vn 0.744818449 -0.153263167 0.649427295
vn 0.720637918 -0.188340083 0.667239785
vn 0.849755943 -0.115747571 0.514312446
vn 0.853546083 -0.137215167 0.502624214
vn 0.917429984 -0.0739089549 0.390972793
vn 0.137178272 -0.166853949 0.976392269
vn 0.0866528675 -0.166251183 0.982268691
vn 0.181204125 -0.171276718 0.968415856
vn 0.787232578 -0.22285752 0.574977696
vn 0.538038433 -0.350523412 0.766582072
vn 0.559973478 -0.35889098 0.746744215
vn 0.704464495 -0.368147165 0.606792748
vn 0.600465298 -0.461947799 0.652721703
vn 0.55127418 -0.467235625 0.691221833
vn 0.530602932 -0.393130094 0.750938833
vn 0.725242794 -0.144703493 0.673115015
vn 0.81580919 -0.0465269461 0.576446414
vn 0.87828517 -0.161873519 0.449902356
vn 0.875393867 -0.199787319 0.440193683
vn 0.912687719 -0.120765492 0.390405983
vn 0.948519945 -0.06764476 0.30940932
vn 0.896641076 -0.217336327 0.385745585
vn 0.942751527 -0.11662671 0.31243813
vn 0.920840979 -0.22777614 0.316496164
vn -0.255493492 0.0929243118 -0.962334692
vn -0.119861208 0.0475964397 -0.991649032
vn -0.135598198 0.100321382 -0.985671639
vn -0.327029496 0.170219317 -0.929557562
vn -0.514084935 0.149377286 -0.84463203
vn -0.565469503 0.222997218 -0.794050753
vn -0.743062317 0.157050386 -0.650533319
vn -0.721784055 0.194379807 -0.664262176
vn -0.850260913 0.115406409 -0.513554096
vn -0.853940964 0.137439594 -0.501891673
vn -0.917247474 0.0740972608 -0.391365111
vn -0.147723064 0.154085904 -0.976952076
vn -0.0777422115 0.164795473 -0.983259201
vn -0.198047251 0.160873383 -0.966900826
vn -0.634563982 0.347498417 -0.690342963
vn -0.528390169 0.339622706 -0.778113246
vn -0.556865633 0.347108543 -0.75459677
vn -0.709204614 0.359250814 -0.606603444
vn -0.599445283 0.463228911 -0.652751386
vn -0.549621284 0.469193041 -0.691212177
vn -0.530799687 0.388534129 -0.75318855
vn -0.72248292 0.15833129 -0.673015475
vn -0.818318546 0.0592812374 -0.571699679
vn -0.878732681 0.160813481 -0.449408382
vn -0.87586832 0.19854413 -0.439812422
vn -0.912693083 0.12005119 -0.390613616
vn -0.948589981 0.0674557313 -0.309235781
vn -0.896739483 0.217155471 -0.385618508
vn -0.942904115 0.115842357 -0.312269479
vn -0.920842767 0.227830112 -0.316452265
vn -0.166492477 0.974020004 0.153510362
vn -0.205569685 0.972383678 0.110503823
vn -0.205569685 0.972383678 0.110503823
vn -0.164591968 0.974015713 0.155573219
vn 0.000849768636 0.988451004 0.151538298
vn 0.000351828552 0.988433897 0.151652187
vn 0.0369355269 0.979571223 0.197676688
vn 0.0455138534 0.980879068 0.189221427
vn 0.0219936594 0.985520184 0.168125629
vn 0.0130683109 0.983155131 0.182304978
vn 0.0807153806 0.995693922 0.0455920435
vn 0.0810699984 0.995580375 0.0474076197
vn 0.0773142576 0.996606708 0.0282430612
vn 0.0773142576 0.996606708 0.0282430612
vn 0.266544402 -0.42455399 -0.865279138
vn 0.278258562 -0.432408392 -0.857668459
vn 0.278258562 -0.432408452 -0.857668459
vn 0.265809238 -0.424059004 -0.865747929
vn 0.252766639 -0.415235847 -0.873892546
vn 0.252766579 -0.415235817 -0.873892546
vn -0.160578623 -0.973954856 -0.160082385
vn -0.0919981152 -0.979534268 -0.179022059
vn -0.0919981301 -0.979534268 -0.179022059
vn -0.163683519 -0.973582625 -0.159200102
vn -0.268490732 -0.95472455 -0.128115997
vn -0.268490732 -0.95472455 -0.128115997
vn 0.0419652276 -0.863614202 -0.502403677
vn 0.170382544 -0.79977411 -0.575613737
vn 0.170382529 -0.79977417 -0.575613737
vn 0.0220321789 -0.871480584 -0.489934802
vn -0.117497846 -0.911375701 -0.394447297
vn -0.117497846 -0.911375701 -0.394447327
vn -0.757219732 -0.591853023 0.276275784
vn -0.757219732 -0.591853023 0.276275784
vn -0.757219732 -0.591853023 0.276275784
vn -0.757219732 -0.591853023 0.276275814
vn -0.476640195 -0.693002939 0.540889084
vn -0.476640135 -0.693002939 0.540889025
vn -0.476640195 -0.693002939 0.540889084
vn -0.476640195 -0.693002939 0.540889025
vn -0.00938938279 -0.909449518 -0.415708154
vn 0.046528995 -0.8577528 -0.511952221
vn 0.0465290025 -0.857752919 -0.511952281
vn -0.018912537 -0.916900098 -0.398668379
vn -0.167891636 -0.980036974 -0.106488593
vn -0.167891622 -0.980036974 -0.106488585
vn -0.384260684 -0.879430532 0.28097266
vn -0.384260714 -0.879430532 0.280972689
vn -0.384260714 -0.879430532 0.280972689
vn -0.384260684 -0.879430532 0.28097266
vn 0.61666441 -0.56431967 -0.548879087
vn 0.616664469 -0.56431967 -0.548879087
vn 0.616664469 -0.56431973 -0.548879087
vn 0.616664469 -0.56431967 -0.548879087
vn -0.93176949 -0.335138559 0.139598936
vn -0.93176949 -0.335138619 0.139598936
vn -0.93176949 -0.33513853 0.139598936
vn -0.93176949 -0.335138559 0.139598936
vn -0.0447704904 -0.880418837 -0.472078562
vn -0.0447705016 -0.880418837 -0.472078621
vn -0.0447704978 -0.880418837 -0.472078532
vn -0.0447704904 -0.880418837 -0.472078532
vn 0.255326897 -0.82229197 -0.508570671
vn 0.255326927 -0.82229197 -0.50857079
vn 0.255326927 -0.82229197 -0.508570671
vn 0.255326897 -0.82229197 -0.508570731
vn 0.568025529 -0.442133009 -0.69416517
vn 0.568025529 -0.442133039 -0.69416523
vn 0.568025529 -0.442133009 -0.69416517
vn 0.568025529 -0.442133009 -0.69416517
vn 0.595943809 -0.192049906 -0.779722869
vn 0.595943809 -0.192049906 -0.779722869
vn 0.595943868 -0.192049935 -0.779722869
vn 0.595943868 -0.192049935 -0.779722869
vn -0.258747697 -0.0798530802 0.962638617
vn -0.114577472 -0.0395638049 0.992626131
vn -0.126540884 -0.100920878 0.98681426
vn -0.330400169 -0.171513587 0.928126514
vn -0.514759064 -0.136115909 0.84646064
vn -0.570152462 -0.221537381 0.791105211
vn -0.744818628 -0.153262928 0.649427235
vn -0.720772147 -0.180808336 0.669175446
vn -0.849755347 -0.11574769 0.5143134
vn -0.854379296 -0.1338128 0.502125621
vn -0.917428732 -0.0739098936 0.390975565
vn -0.137181506 -0.166857541 0.976391137
vn -0.0866522342 -0.166246668 0.982269585
vn -0.181208447 -0.171280727 0.968414426
vn -0.787222445 -0.222851887 0.57499367
vn -0.538040876 -0.350524694 0.766579688
vn -0.559976459 -0.358892411 0.746741295
vn -0.704468071 -0.368148625 0.606787682
vn -0.600469053 -0.461952001 0.652715266
vn -0.551276922 -0.467239261 0.691217244
vn -0.418656617 -0.40763697 0.811516345
vn -0.675673068 -0.0840553865 0.732393801
vn -0.83195889 0.0373882018 0.553576171
vn -0.878290534 -0.161874413 0.449891567
vn -0.875393808 -0.199786022 0.440194488
vn -0.912687123 -0.12076588 0.390407205
vn -0.948519945 -0.0676458552 0.309409201
vn -0.89664185 -0.217335477 0.385744274
vn -0.942752302 -0.116627522 0.312436014
vn -0.920843303 -0.227776304 0.316489279
vn 0.255494893 0.09292496 -0.962334275
vn 0.135599971 0.10032253 -0.985671341
vn 0.119866699 0.0475985482 -0.991648316
vn 0.327028066 0.170219079 -0.929557979
vn 0.514084816 0.149377137 -0.844632089
vn 0.56547147 0.222997651 -0.794049144
vn 0.743066669 0.157051355 -0.650528133
vn 0.723104775 0.187690988 -0.664749384
vn 0.850263596 0.115406528 -0.513549507
vn 0.855161369 0.133753464 -0.500808537
vn 0.917247891 0.0740974694 -0.391364187
vn 0.147720233 0.154082984 -0.97695303
vn 0.0777379572 0.164790466 -0.983260334
vn 0.198043525 0.160870805 -0.966901898
vn 0.634564996 0.347493589 -0.690344572
vn 0.528395295 0.339625716 -0.778108478
vn 0.556869686 0.347111017 -0.754592717
vn 0.709202111 0.359249473 -0.60660702
vn 0.599442542 0.463225812 -0.652756095
vn 0.549616814 0.469188333 -0.691218972
vn 0.393946826 0.416776687 -0.81920886
vn 0.676266372 0.106604882 -0.728902817
vn 0.841788709 -0.0201773439 -0.539429903
vn 0.878728747 0.160812482 -0.449416488
vn 0.87586689 0.19854416 -0.439815313
vn 0.912693322 0.120051153 -0.390613258
vn 0.948589981 0.0674560443 -0.309235632
vn 0.896738768 0.217155308 -0.385620594
vn 0.942904234 0.115842469 -0.312269449
vn 0.920842886 0.227829516 -0.316452324
vn 0.166492835 0.974020004 0.153510019
vn 0.205570623 0.972384572 0.110493824
vn 0.205570623 0.972384572 0.110493802
vn 0.164592281 0.974015594 0.155573353
vn -0.000849985867 0.988451481 0.151535511
vn -0.000352043717 0.988434255 0.151649401
vn -0.0369357541 0.979571104 0.19767724
vn -0.0455140658 0.980879128 0.189220726
vn -0.0219938867 0.985519171 0.16813156
vn -0.0130685335 0.98315388 0.182311818
vn -0.0807152539 0.995693564 0.0455983393
vn -0.0810698941 0.995580018 0.0474133417
vn -0.077314049 0.99660635 0.0282546487
vn -0.0773140639 0.99660635 0.0282546524
vn -0.266542733 -0.424551219 -0.865281045
vn -0.278258026 -0.432408601 -0.857668459
vn -0.278258026 -0.432408631 -0.857668519
vn -0.26580745 -0.424055964 -0.865749955
vn -0.252763629 -0.41522944 -0.87389642
vn -0.252763629 -0.41522944 -0.873896539
vn 0.160578549 -0.97395736 -0.160067156
vn 0.0919988528 -0.979542971 -0.178974509
vn 0.0919988528 -0.979542971 -0.178974524
vn 0.163683474 -0.97358489 -0.159186378
vn 0.268489182 -0.95472008 -0.128153294
vn 0.268489152 -0.95472008 -0.128153309
vn -0.0419660769 -0.863612831 -0.50240612
vn -0.170382485 -0.79977423 -0.575613558
vn -0.170382485 -0.79977423 -0.575613558
vn -0.0220331177 -0.871479034 -0.489937633
vn 0.117497504 -0.911373675 -0.394452035
vn 0.117497519 -0.911373675 -0.394451976
vn 0.757218719 -0.591854274 0.276275903
vn 0.757218778 -0.591854274 0.276275933
vn 0.757218778 -0.591854274 0.276275933
vn 0.757218719 -0.591854274 0.276275903
vn 0.476641774 -0.693007052 0.540882349
vn 0.476641744 -0.693007052 0.540882349
vn 0.476641774 -0.693007052 0.540882468
vn 0.476641685 -0.693007052 0.540882349
vn 0.00938908476 -0.90944469 -0.415718943
vn -0.0465288572 -0.857745349 -0.511964679
vn -0.0465288572 -0.857745349 -0.511964738
vn 0.0189121906 -0.916895688 -0.39867872
vn 0.167891666 -0.980036974 -0.106488638
vn 0.167891666 -0.980036974 -0.106488638
vn 0.384260446 -0.879430711 0.280972719
vn 0.384260416 -0.879430711 0.28097266
vn 0.384260386 -0.879430711 0.280972689
vn 0.384260386 -0.879430711 0.280972689
vn -0.616659403 -0.564314485 -0.548890054
vn -0.616659403 -0.564314544 -0.548890173
vn -0.616659403 -0.564314544 -0.548890173
vn -0.616659403 -0.564314544 -0.548890114
vn 0.931766808 -0.335137755 0.139618278
vn 0.931766808 -0.335137725 0.139618278
vn 0.931766808 -0.335137755 0.139618292
vn 0.931766808 -0.335137695 0.139618278
vn 0.0447701439 -0.880412281 -0.47209096
vn 0.0447701439 -0.880412281 -0.47209096
vn 0.0447701439 -0.880412281 -0.47209096
vn 0.0447701439 -0.880412281 -0.47209096
vn -0.214664489 -0.845296621 -0.48927781
vn -0.214664444 -0.845296621 -0.489277869
vn -0.214664489 -0.845296621 -0.48927781
vn -0.214664459 -0.845296621 -0.489277869
vn -0.552052915 -0.475523174 -0.684919953
vn -0.552052855 -0.475523174 -0.684919953
vn -0.552052796 -0.475523144 -0.684919953
vn -0.552052796 -0.475523144 -0.684919953
vn -0.595980167 -0.192061841 -0.779692173
vn -0.595980167 -0.192061856 -0.779692233
vn -0.595980167 -0.192061856 -0.779692233
vn -0.595980167 -0.192061841 -0.779692173
g ChosenSaint_TopTeeth_0
f 3/3/3 2/2/2 1/1/1
f 2/2/2 4/4/4 1/1/1
f 1/1/1 4/4/4 5/5/5
f 4/4/4 6/6/6 5/5/5
f 5/5/5 6/6/6 7/7/7
f 6/6/6 8/8/8 7/7/7
f 7/7/7 8/8/8 9/9/9
f 8/8/8 10/10/10 9/9/9
f 9/9/9 10/10/10 11/11/11
f 2/2/2 12/12/12 4/4/4
f 2/2/2 13/13/13 12/12/12
f 12/12/12 14/14/14 4/4/4
f 4/4/4 14/14/14 15/15/15
f 4/4/4 15/15/15 16/16/16
f 4/4/4 16/16/16 6/6/6
f 16/16/16 17/17/17 6/6/6
f 17/17/17 18/18/18 6/6/6
f 6/6/6 18/18/18 19/19/19
f 6/6/6 19/19/19 8/8/8
f 19/19/19 20/20/20 8/8/8
f 8/8/8 20/20/20 21/21/21
f 8/8/8 21/21/21 22/22/22
f 8/8/8 22/22/22 10/10/10
f 22/22/22 23/23/23 10/10/10
f 23/23/23 24/24/24 10/10/10
f 10/10/10 24/24/24 25/25/25
f 10/10/10 25/25/25 26/26/26
f 10/10/10 26/26/26 11/11/11
f 11/11/11 26/26/26 27/27/27
f 25/25/25 28/28/28 26/26/26
f 26/26/26 29/29/29 27/27/27
f 26/26/26 28/28/28 29/29/29
f 28/28/28 30/30/30 29/29/29
f 33/33/33 32/32/32 31/31/31
f 34/34/34 33/33/33 31/31/31
f 34/34/34 31/31/31 35/35/35
f 36/36/36 34/34/34 35/35/35
f 36/36/36 35/35/35 37/37/37
f 38/38/38 36/36/36 37/37/37
f 38/38/38 37/37/37 39/39/39
f 40/40/40 38/38/38 39/39/39
f 40/40/40 39/39/39 41/41/41
f 42/42/42 33/33/33 34/34/34
f 43/43/43 33/33/33 42/42/42
f 44/44/44 42/42/42 34/34/34
f 44/44/44 34/34/34 45/45/45
f 45/45/45 34/34/34 46/46/46
f 46/46/46 34/34/34 36/36/36
f 47/47/47 46/46/46 36/36/36
f 48/48/48 47/47/47 36/36/36
f 48/48/48 36/36/36 49/49/49
f 49/49/49 36/36/36 38/38/38
f 50/50/50 49/49/49 38/38/38
f 50/50/50 38/38/38 51/51/51
f 51/51/51 38/38/38 52/52/52
f 52/52/52 38/38/38 40/40/40
f 53/53/53 52/52/52 40/40/40
f 54/54/54 53/53/53 40/40/40
f 54/54/54 40/40/40 55/55/55
f 55/55/55 40/40/40 56/56/56
f 56/56/56 40/40/40 41/41/41
f 56/56/56 41/41/41 57/57/57
f 58/58/58 55/55/55 56/56/56
f 59/59/59 56/56/56 57/57/57
f 58/58/58 56/56/56 59/59/59
f 60/60/60 58/58/58 59/59/59
f 63/63/63 62/62/62 61/61/61
f 62/62/62 64/64/64 61/61/61
f 61/61/61 64/64/64 65/65/65
f 64/64/64 66/66/66 65/65/65
f 65/65/65 66/66/66 67/67/67
f 66/66/66 68/68/68 67/67/67
f 67/67/67 68/68/68 69/69/69
f 68/68/68 70/70/70 69/69/69
f 69/69/69 70/70/70 71/71/71
f 70/70/70 72/72/72 71/71/71
f 71/71/71 72/72/72 73/73/73
f 72/72/72 74/74/74 73/73/73
f 77/77/77 76/76/76 75/75/75
f 76/76/76 78/78/78 75/75/75
f 75/75/75 78/78/78 79/79/79
f 78/78/78 80/80/80 79/79/79
f 83/83/83 82/82/82 81/81/81
f 82/82/82 84/84/84 81/81/81
f 81/81/81 84/84/84 85/85/85
f 84/84/84 86/86/86 85/85/85
f 89/89/89 88/88/88 87/87/87
f 88/88/88 90/90/90 87/87/87
f 87/87/87 90/90/90 91/91/91
f 90/90/90 92/92/92 91/91/91
f 95/95/95 94/94/94 93/93/93
f 96/96/96 95/95/95 93/93/93
f 99/99/99 98/98/98 97/97/97
f 100/100/100 99/99/99 97/97/97
f 103/103/103 102/102/102 101/101/101
f 102/102/102 104/104/104 101/101/101
f 101/101/101 104/104/104 105/105/105
f 104/104/104 106/106/106 105/105/105
f 109/109/109 108/108/108 107/107/107
f 110/110/110 109/109/109 107/107/107
f 113/113/113 112/112/112 111/111/111
f 114/114/114 113/113/113 111/111/111
f 117/117/117 116/116/116 115/115/115
f 118/118/118 117/117/117 115/115/115
f 121/121/121 120/120/120 119/119/119
f 122/122/122 121/121/121 119/119/119
f 125/125/125 124/124/124 123/123/123
f 126/126/126 125/125/125 123/123/123
f 129/129/129 128/128/128 127/127/127
f 130/130/130 129/129/129 127/127/127
f 133/133/133 132/132/132 131/131/131
f 134/134/134 133/133/133 131/131/131
f 137/137/137 136/136/136 135/135/135
f 138/138/138 137/137/137 135/135/135
f 138/138/138 135/135/135 139/139/139
f 140/140/140 138/138/138 139/139/139
f 140/140/140 139/139/139 141/141/141
f 142/142/142 140/140/140 141/141/141
f 142/142/142 141/141/141 143/143/143
f 144/144/144 142/142/142 143/143/143
f 144/144/144 143/143/143 145/145/145
f 146/146/146 137/137/137 138/138/138
f 147/147/147 137/137/137 146/146/146
f 148/148/148 146/146/146 138/138/138
f 148/148/148 138/138/138 149/149/149
f 149/149/149 138/138/138 150/150/150
f 150/150/150 138/138/138 140/140/140
f 151/151/151 150/150/150 140/140/140
f 152/152/152 151/151/151 140/140/140
f 152/152/152 140/140/140 153/153/153
f 153/153/153 140/140/140 142/142/142
f 154/154/154 153/153/153 142/142/142
f 154/154/154 142/142/142 155/155/155
f 155/155/155 142/142/142 156/156/156
f 156/156/156 142/142/142 144/144/144
f 157/157/157 156/156/156 144/144/144
f 158/158/158 157/157/157 144/144/144
f 158/158/158 144/144/144 159/159/159
f 159/159/159 144/144/144 160/160/160
f 160/160/160 144/144/144 145/145/145
f 160/160/160 145/145/145 161/161/161
f 162/162/162 159/159/159 160/160/160
f 163/163/163 160/160/160 161/161/161
f 162/162/162 160/160/160 163/163/163
f 164/164/164 162/162/162 163/163/163
f 167/167/167 166/166/166 165/165/165
f 166/166/166 168/168/168 165/165/165
f 165/165/165 168/168/168 169/169/169
f 168/168/168 170/170/170 169/169/169
f 169/169/169 170/170/170 171/171/171
f 170/170/170 172/172/172 171/171/171
f 171/171/171 172/172/172 173/173/173
f 172/172/172 174/174/174 173/173/173
f 173/173/173 174/174/174 175/175/175
f 166/166/166 176/176/176 168/168/168
f 166/166/166 177/177/177 176/176/176
f 176/176/176 178/178/178 168/168/168
f 168/168/168 178/178/178 179/179/179
f 168/168/168 179/179/179 180/180/180
f 168/168/168 180/180/180 170/170/170
f 180/180/180 181/181/181 170/170/170
f 181/181/181 182/182/182 170/170/170
f 170/170/170 182/182/182 183/183/183
f 170/170/170 183/183/183 172/172/172
f 183/183/183 184/184/184 172/172/172
f 172/172/172 184/184/184 185/185/185
f 172/172/172 185/185/185 186/186/186
f 172/172/172 186/186/186 174/174/174
f 186/186/186 187/187/187 174/174/174
f 187/187/187 188/188/188 174/174/174
f 174/174/174 188/188/188 189/189/189
f 174/174/174 189/189/189 190/190/190
f 174/174/174 190/190/190 175/175/175
f 175/175/175 190/190/190 191/191/191
f 189/189/189 192/192/192 190/190/190
f 190/190/190 193/193/193 191/191/191
f 190/190/190 192/192/192 193/193/193
f 192/192/192 194/194/194 193/193/193
f 197/197/197 196/196/196 195/195/195
f 198/198/198 197/197/197 195/195/195
f 198/198/198 195/195/195 199/199/199
f 200/200/200 198/198/198 199/199/199
f 200/200/200 199/199/199 201/201/201
f 202/202/202 200/200/200 201/201/201
f 202/202/202 201/201/201 203/203/203
f 204/204/204 202/202/202 203/203/203
f 204/204/204 203/203/203 205/205/205
f 206/206/206 204/204/204 205/205/205
f 206/206/206 205/205/205 207/207/207
f 208/208/208 206/206/206 207/207/207
f 211/211/211 210/210/210 209/209/209
f 212/212/212 211/211/211 209/209/209
f 212/212/212 209/209/209 213/213/213
f 214/214/214 212/212/212 213/213/213
f 217/217/217 216/216/216 215/215/215
f 218/218/218 217/217/217 215/215/215
f 218/218/218 215/215/215 219/219/219
f 220/220/220 218/218/218 219/219/219
f 223/223/223 222/222/222 221/221/221
f 224/224/224 223/223/223 221/221/221
f 224/224/224 221/221/221 225/225/225
f 226/226/226 224/224/224 225/225/225
f 229/229/229 228/228/228 227/227/227
f 230/230/230 229/229/229 227/227/227
f 233/233/233 232/232/232 231/231/231
f 234/234/234 233/233/233 231/231/231
f 237/237/237 236/236/236 235/235/235
f 238/238/238 237/237/237 235/235/235
f 238/238/238 235/235/235 239/239/239
f 240/240/240 238/238/238 239/239/239
f 243/243/243 242/242/242 241/241/241
f 244/244/244 243/243/243 241/241/241
f 247/247/247 246/246/246 245/245/245
f 248/248/248 247/247/247 245/245/245
f 251/251/251 250/250/250 249/249/249
f 252/252/252 251/251/251 249/249/249
f 255/255/255 254/254/254 253/253/253
f 256/256/256 255/255/255 253/253/253
f 259/259/259 258/258/258 257/257/257
f 260/260/260 259/259/259 257/257/257
f 263/263/263 262/262/262 261/261/261
f 264/264/264 263/263/263 261/261/261
f 267/267/267 266/266/266 265/265/265
f 268/268/268 267/267/267 265/265/265
