g EngineRoom_Door_Hitch
v 0.0138008492 0.0422851965 0.0707196444
v 0.0138008492 -0.0316697285 0.0707196444
v -0.0138008492 -0.0316697285 0.0707196444
v -0.0138008492 0.0422851965 0.0707196444
v -0.0138008492 -0.0316697285 0.01086576
v -0.0138008492 -0.0316697285 0.0707196444
v 0.0138008492 -0.0316697285 0.0707196444
v 0.0138008492 -0.0316697285 0.01086576
v 0.0138008492 0.0422851965 0.062719658
v -0.0138008492 0.0422851965 0.062719658
v -0.0138008492 -0.0236696973 0.062719658
v 0.0138008492 -0.0236696973 0.062719658
v -0.0138008492 -0.0236696973 0.01086576
v 0.0138008492 -0.0236696973 0.01086576
v 0.0138008492 -0.0236696973 0.062719658
v -0.0138008492 -0.0236696973 0.062719658
v 0.0138008492 0.0422851965 0.062719658
v 0.0138008492 0.0422851965 0.0707196444
v -0.0138008492 0.0422851965 0.0707196444
v -0.0138008492 0.0422851965 0.062719658
v -0.0138008492 0.0422851965 0.062719658
v -0.0138008492 0.0422851965 0.0707196444
v -0.0138008492 -0.0316697285 0.0707196444
v -0.0138008492 -0.0236696973 0.062719658
v 0.0138008492 -0.0236696973 0.062719658
v 0.0138008492 -0.0316697285 0.0707196444
v 0.0138008492 0.0422851965 0.0707196444
v 0.0138008492 0.0422851965 0.062719658
v 0.0138008492 -0.0236696973 0.01086576
v 0.0138008492 -0.0316697285 0.01086576
v 0.0138008492 -0.0316697285 0.0707196444
v 0.0138008492 -0.0236696973 0.062719658
v -0.0138008492 -0.0236696973 0.062719658
v -0.0138008492 -0.0316697285 0.0707196444
v -0.0138008492 -0.0316697285 0.01086576
v -0.0138008492 -0.0236696973 0.01086576
v 0.0185634606 0.0276698694 0.0161591675
v 0.0185634606 -0.0422849581 0.0161591675
v -0.0185634997 -0.0422849581 0.0161591675
v -0.0185634997 0.0276698694 0.0161591675
v 0.0185634606 0.0276698694 0
v 0.0185634606 0.0276698694 0.0161591675
v -0.0185634997 0.0276698694 0.0161591675
v -0.0185634997 0.0276698694 0
v -0.0185634997 0.0276698694 0
v -0.0185634997 0.0276698694 0.0161591675
v -0.0185634997 -0.0422849581 0.0161591675
v -0.0185634997 -0.0422851108 0
v 0.0185634606 -0.0422851108 0
v 0.0185634606 -0.0422849581 0.0161591675
v 0.0185634606 0.0276698694 0.0161591675
v 0.0185634606 0.0276698694 0
v 0.0185634606 -0.0422849581 0.0161591675
v 0.0185634606 -0.0422851108 0
v -0.0185634997 -0.0422851108 0
v -0.0185634997 -0.0422849581 0.0161591675
vt 0.241333008 0.81640625
vt 0.290283203 0.81640625
vt 0.290283203 0.797851562
vt 0.241333008 0.797851562
vt 0.318603516 0.797851562
vt 0.290283203 0.797851562
vt 0.290283203 0.81640625
vt 0.318603516 0.81640625
vt 0.241333008 0.797851562
vt 0.241333008 0.815917969
vt 0.28515625 0.815917969
vt 0.28515625 0.797851562
vt 0.318603516 0.815917969
vt 0.318603516 0.797851562
vt 0.295654297 0.797851562
vt 0.295654297 0.815917969
vt 0.250488281 0.790527344
vt 0.250488281 0.797851562
vt 0.268798828 0.797851562
vt 0.268798828 0.790527344
vt 0.241333008 0.790527344
vt 0.241333008 0.797851562
vt 0.290283203 0.797851562
vt 0.28515625 0.790527344
vt 0.28515625 0.819824219
vt 0.290283203 0.81640625
vt 0.241333008 0.81640625
vt 0.241333008 0.819824219
vt 0.318603516 0.819824219
vt 0.318603516 0.81640625
vt 0.290283203 0.81640625
vt 0.295654297 0.819824219
vt 0.295654297 0.790527344
vt 0.290283203 0.797851562
vt 0.318603516 0.797851562
vt 0.318603516 0.790527344
vt 0.239746094 0.815917969
vt 0.286376953 0.815917969
vt 0.286376953 0.797851562
vt 0.239746094 0.797851562
vt 0.250488281 0.790527344
vt 0.250488281 0.797851562
vt 0.268798828 0.797851562
vt 0.268798828 0.790527344
vt 0.239746094 0.791015625
vt 0.239746094 0.797851562
vt 0.286376953 0.797851562
vt 0.286376953 0.791015625
vt 0.286376953 0.820800781
vt 0.286376953 0.815917969
vt 0.239746094 0.815917969
vt 0.239746094 0.820800781
vt 0.284179688 0.797851562
vt 0.284179688 0.791015625
vt 0.26171875 0.791015625
vt 0.26171875 0.797851562
vn -0 0 1
vn -0 0 1
vn -0 0 1
vn -0 0 1
vn -0 -1 0
vn -0 -1 0
vn -0 -1 0
vn -0 -1 0
vn -0 0 -1
vn -0 0 -1
vn -0 0 -1
vn -0 0 -1
vn -0 1 0
vn -0 1 0
vn -0 1 0
vn -0 1 0
vn -0 1 0
vn -0 1 0
vn -0 1 0
vn -0 1 0
vn -1 0 0
vn -1 0 0
vn -1 -8.94069672E-07 0
vn -1 -8.94069672E-07 0
vn 1 0 0
vn 1 0 0
vn 1 0 0
vn 1 0 0
vn 1 0 0
vn 1 0 0
vn 1 0 0
vn 1 0 0
vn -1 -8.94069672E-07 0
vn -1 -8.94069672E-07 0
vn -1 -2.44379044E-06 0
vn -1 -2.44379044E-06 0
vn -0 0 1
vn -0 0 1
vn -0 0 1
vn -0 0 1
vn -0 1 0
vn -0 1 0
vn -0 1 0
vn -0 1 0
vn -1 0 0
vn -1 0 0
vn -1 -1.1920929E-06 0
vn -1 -1.1920929E-06 0
vn 1 0 0
vn 1 0 0
vn 1 0 0
vn 1 0 0
vn -0 -1 9.47713852E-06
vn -0 -1 9.47713852E-06
vn -0 -1 9.47713852E-06
vn -0 -1 9.47713852E-06
g EngineRoom_Door_Hitch_0
f 3/3/3 2/2/2 1/1/1
f 4/4/4 3/3/3 1/1/1
f 7/7/7 6/6/6 5/5/5
f 8/8/8 7/7/7 5/5/5
f 11/11/11 10/10/10 9/9/9
f 12/12/12 11/11/11 9/9/9
f 15/15/15 14/14/14 13/13/13
f 16/16/16 15/15/15 13/13/13
f 19/19/19 18/18/18 17/17/17
f 20/20/20 19/19/19 17/17/17
f 23/23/23 22/22/22 21/21/21
f 24/24/24 23/23/23 21/21/21
f 27/27/27 26/26/26 25/25/25
f 28/28/28 27/27/27 25/25/25
f 31/31/31 30/30/30 29/29/29
f 32/32/32 31/31/31 29/29/29
f 35/35/35 34/34/34 33/33/33
f 36/36/36 35/35/35 33/33/33
f 39/39/39 38/38/38 37/37/37
f 40/40/40 39/39/39 37/37/37
f 43/43/43 42/42/42 41/41/41
f 44/44/44 43/43/43 41/41/41
f 47/47/47 46/46/46 45/45/45
f 48/48/48 47/47/47 45/45/45
f 51/51/51 50/50/50 49/49/49
f 52/52/52 51/51/51 49/49/49
f 55/55/55 54/54/54 53/53/53
f 56/56/56 55/55/55 53/53/53
