g RobotArea_Door
v -0.00499999989 1.672948 -0.0929772928
v -0.00499999989 1.96021485 -0.0929772928
v -0.00852905214 1.95668578 -0.0965063423
v -0.00499999989 1.672948 -0.0929772928
v -0.00852905214 1.95668578 -0.0965063423
v -0.00852905214 1.67647696 -0.0965063423
v -0.00852905214 1.67647696 -0.771774888
v -0.00852905214 1.95668578 -0.771774888
v -0.00499999989 1.96021485 -0.77530396
v -0.00852905214 1.67647696 -0.771774888
v -0.00499999989 1.96021485 -0.77530396
v -0.00499999989 1.672948 -0.77530396
v -0.0350000001 0.826074183 -0.0914282203
v -0.0350000001 0.826074183 -0.776853025
v -0.0299218744 0.83115232 -0.771774888
v -0.0350000001 0.826074183 -0.0914282203
v -0.0299218744 0.83115232 -0.771774888
v -0.0299218744 0.83115232 -0.0965063423
v -0.0245599356 1.04862666 -0.283573002
v -0.0245599356 1.04862666 -0.0922998041
v -0.0279663075 1.04522097 -0.0922998041
v -0.0245599356 1.04862666 -0.283573002
v -0.0279663075 1.04522097 -0.0922998041
v -0.0279663075 1.04522097 -0.286978751
v -0.0104400637 1.25431514 -0.283573002
v -0.0104400637 1.25431514 -0.0922998041
v -0.00703369128 1.25772095 -0.0922998041
v -0.0104400637 1.25431514 -0.283573002
v -0.00703369128 1.25772095 -0.0922998041
v -0.00703369128 1.25772095 -0.286978751
v -0.0245599356 1.00455689 -0.325572491
v -0.0245599356 1.00455689 -0.559448242
v -0.0279663075 1.00796258 -0.562853992
v -0.0245599356 1.00455689 -0.325572491
v -0.0279663075 1.00796258 -0.562853992
v -0.0279663075 1.00796258 -0.322166741
v -0.0245599356 0.816235304 -0.601447761
v -0.0245599356 1.00455689 -0.601447761
v -0.0279663075 1.00796258 -0.598041952
v -0.0245599356 0.816235304 -0.601447761
v -0.0279663075 1.00796258 -0.598041952
v -0.0279663075 0.816235304 -0.598041952
v -0.0104400637 1.48670769 -0.325572491
v -0.0104400637 1.29838502 -0.325572491
v -0.00703369128 1.29497921 -0.322166741
v -0.0104400637 1.48670769 -0.325572491
v -0.00703369128 1.29497921 -0.322166741
v -0.00703369128 1.48670769 -0.322166741
v -0.0299999993 1.6451782 0
v -0.0299999993 1.98798454 0
v -0.00499999989 1.98798454 0
v -0.00499999989 1.6451782 0
v -0.0350000001 1.64258301 0
v -0 1.64258301 0
v -0.0350000001 0 0
v -0 0 0
v -0.0299999993 1.98798454 0
v -0.0299999993 1.98798454 -0.899999976
v -0.00499999989 1.98798454 -0.899999976
v -0.00499999989 1.98798454 0
v -0.0299999993 1.98798454 -0.899999976
v -0.00499999989 1.6451782 -0.899999976
v -0.00499999989 1.98798454 -0.899999976
v -0.0299999993 1.6451782 -0.899999976
v -0 1.64258301 -0.899999976
v -0.0350000001 1.64258301 -0.899999976
v -0 0 -0.899999976
v -0.0350000001 0 -0.899999976
v -0.00852905214 1.95668578 -0.771774888
v -0.00852905214 1.95668578 -0.0965063423
v -0.00499999989 1.96021485 -0.0929772928
v -0.00499999989 1.96021485 -0.77530396
v -0.0299999993 1.672948 -0.77530396
v -0.0299999993 1.96021485 -0.77530396
v -0.0264709461 1.95668578 -0.771774888
v -0.0264709461 1.67647696 -0.771774888
v -0.0264709461 1.67647696 -0.0965063423
v -0.0264709461 1.95668578 -0.0965063423
v -0.0299999993 1.96021485 -0.0929772928
v -0.0299999993 1.672948 -0.0929772928
v -0.0264709461 1.95668578 -0.0965063423
v -0.0264709461 1.95668578 -0.771774888
v -0.0299999993 1.96021485 -0.77530396
v -0.0299999993 1.96021485 -0.0929772928
v -0.00852905214 1.67647696 -0.771774888
v -0.0264709461 1.67647696 -0.771774888
v -0.0264709461 1.95668578 -0.771774888
v -0.00852905214 1.95668578 -0.771774888
v -0.00852905214 1.95668578 -0.771774888
v -0.0264709461 1.95668578 -0.771774888
v -0.0264709461 1.95668578 -0.0965063423
v -0.00852905214 1.95668578 -0.0965063423
v -0.00852905214 1.95668578 -0.0965063423
v -0.0264709461 1.95668578 -0.0965063423
v -0.0264709461 1.67647696 -0.0965063423
v -0.00852905214 1.67647696 -0.0965063423
v -0.0350000001 0 -0.899999976
v -0.0350000001 0 0
v -0 0 0
v -0 0 -0.899999976
v -0 1.64258301 -0.899999976
v -0 1.64258301 0
v -0.00499999989 1.6451782 0
v -0.00499999989 1.6451782 -0.899999976
v -0.00499999989 1.672948 -0.77530396
v -0.00499999989 1.672948 -0.0929772928
v -0.00852905214 1.67647696 -0.0965063423
v -0.00852905214 1.67647696 -0.771774888
v -0.00852905214 1.67647696 -0.771774888
v -0.00852905214 1.67647696 -0.0965063423
v -0.0264709461 1.67647696 -0.0965063423
v -0.0264709461 1.67647696 -0.771774888
v -0.0264709461 1.67647696 -0.771774888
v -0.0264709461 1.67647696 -0.0965063423
v -0.0299999993 1.672948 -0.0929772928
v -0.0299999993 1.672948 -0.77530396
v -0.0299999993 1.6451782 -0.899999976
v -0.0299999993 1.6451782 0
v -0.0350000001 1.64258301 0
v -0.0350000001 1.64258301 -0.899999976
v -0.0299218744 0.83115232 -0.0965063423
v -0.0299218744 1.47179079 -0.0965063423
v -0.0350000001 1.47686887 -0.0914282203
v -0.0350000001 0.826074183 -0.0914282203
v -0.0350000001 0.826074183 -0.776853025
v -0.0350000001 1.47686887 -0.776853025
v -0.0299218744 1.47179079 -0.771774888
v -0.0299218744 0.83115232 -0.771774888
v -0 0.826074183 -0.0914282203
v -0 1.47686887 -0.0914282203
v -0.00507812481 1.47179079 -0.0965063423
v -0.00507812481 0.83115232 -0.0965063423
v -0.00507812481 0.83115232 -0.0965063423
v -0.00507812481 0.83115232 -0.771774888
v -0 0.826074183 -0.776853025
v -0 0.826074183 -0.0914282203
v -0.00507812481 0.83115232 -0.771774888
v -0.00507812481 1.47179079 -0.771774888
v -0 1.47686887 -0.776853025
v -0 0.826074183 -0.776853025
v -0.00507812481 1.47179079 -0.771774888
v -0.00507812481 1.47179079 -0.0965063423
v -0 1.47686887 -0.0914282203
v -0 1.47686887 -0.776853025
v -0.0299218744 1.47179079 -0.0965063423
v -0.0299218744 1.47179079 -0.771774888
v -0.0350000001 1.47686887 -0.776853025
v -0.0350000001 1.47686887 -0.0914282203
v -0.0299218744 0.83115232 -0.771774888
v -0.00507812481 0.83115232 -0.771774888
v -0.00507812481 0.83115232 -0.0965063423
v -0.0299218744 0.83115232 -0.0965063423
v -0.0299218744 0.83115232 -0.0965063423
v -0.00507812481 0.83115232 -0.0965063423
v -0.00507812481 1.47179079 -0.0965063423
v -0.0299218744 1.47179079 -0.0965063423
v -0.0299218744 1.47179079 -0.0965063423
v -0.00507812481 1.47179079 -0.0965063423
v -0.00507812481 1.47179079 -0.771774888
v -0.0299218744 1.47179079 -0.771774888
v -0.0299218744 1.47179079 -0.771774888
v -0.00507812481 1.47179079 -0.771774888
v -0.00507812481 0.83115232 -0.771774888
v -0.0299218744 0.83115232 -0.771774888
v -0.0279663075 1.04522097 -0.322166741
v -0.0279663075 1.04522097 -0.562853992
v -0.0245599356 1.04862666 -0.559448242
v -0.0245599356 1.04862666 -0.325572491
v -0.0245599356 1.04862666 -0.325572491
v -0.0245599356 1.25431514 -0.325572491
v -0.0279663075 1.25772095 -0.322166741
v -0.0279663075 1.04522097 -0.322166741
v -0.0245599356 1.25431514 -0.325572491
v -0.0245599356 1.25431514 -0.559448242
v -0.0279663075 1.25772095 -0.562853992
v -0.0279663075 1.25772095 -0.322166741
v -0.0279663075 1.04522097 -0.286978751
v -0.0279663075 1.25772095 -0.286978751
v -0.0245599356 1.25431514 -0.283573002
v -0.0245599356 1.04862666 -0.283573002
v -0.0279663075 1.25772095 -0.286978751
v -0.0279663075 1.25772095 -0.0922998041
v -0.0245599356 1.25431514 -0.0922998041
v -0.0245599356 1.25431514 -0.283573002
v -0.00703369128 1.25772095 -0.322166741
v -0.00703369128 1.25772095 -0.562853992
v -0.0104400637 1.25431514 -0.559448242
v -0.0104400637 1.25431514 -0.325572491
v -0.0104400637 1.25431514 -0.325572491
v -0.0104400637 1.04862666 -0.325572491
v -0.00703369128 1.04522097 -0.322166741
v -0.00703369128 1.25772095 -0.322166741
v -0.0104400637 1.04862666 -0.325572491
v -0.0104400637 1.04862666 -0.559448242
v -0.00703369128 1.04522097 -0.562853992
v -0.00703369128 1.04522097 -0.322166741
v -0.00703369128 1.25772095 -0.286978751
v -0.00703369128 1.04522097 -0.286978751
v -0.0104400637 1.04862666 -0.283573002
v -0.0104400637 1.25431514 -0.283573002
v -0.00703369128 1.04522097 -0.286978751
v -0.00703369128 1.04522097 -0.0922998041
v -0.0104400637 1.04862666 -0.0922998041
v -0.0104400637 1.04862666 -0.283573002
v -0.0279663075 1.04522097 -0.598041952
v -0.0279663075 1.04522097 -0.776175499
v -0.0245599356 1.04862666 -0.776175499
v -0.0245599356 1.04862666 -0.601447761
v -0.0245599356 1.04862666 -0.601447761
v -0.0245599356 1.25431514 -0.601447761
v -0.0279663075 1.25772095 -0.598041952
v -0.0279663075 1.04522097 -0.598041952
v -0.0245599356 1.25431514 -0.601447761
v -0.0245599356 1.25431514 -0.776175499
v -0.0279663075 1.25772095 -0.776175499
v -0.0279663075 1.25772095 -0.598041952
v -0.0279663075 1.04522097 -0.562853992
v -0.0279663075 1.25772095 -0.562853992
v -0.0245599356 1.25431514 -0.559448242
v -0.0245599356 1.04862666 -0.559448242
v -0.00703369128 1.25772095 -0.598041952
v -0.00703369128 1.25772095 -0.776175499
v -0.0104400637 1.25431514 -0.776175499
v -0.0104400637 1.25431514 -0.601447761
v -0.0104400637 1.25431514 -0.601447761
v -0.0104400637 1.04862666 -0.601447761
v -0.00703369128 1.04522097 -0.598041952
v -0.00703369128 1.25772095 -0.598041952
v -0.0104400637 1.04862666 -0.601447761
v -0.0104400637 1.04862666 -0.776175499
v -0.00703369128 1.04522097 -0.776175499
v -0.00703369128 1.04522097 -0.598041952
v -0.00703369128 1.25772095 -0.562853992
v -0.00703369128 1.04522097 -0.562853992
v -0.0104400637 1.04862666 -0.559448242
v -0.0104400637 1.25431514 -0.559448242
v -0.0279663075 0.816235304 -0.286978751
v -0.0279663075 1.00796258 -0.286978751
v -0.0245599356 1.00455689 -0.283573002
v -0.0245599356 0.816235304 -0.283573002
v -0.0279663075 1.00796258 -0.286978751
v -0.0279663075 1.00796258 -0.0922998041
v -0.0245599356 1.00455689 -0.0922998041
v -0.0245599356 1.00455689 -0.283573002
v -0.0104400637 0.816235304 -0.283573002
v -0.0104400637 1.00455689 -0.283573002
v -0.00703369128 1.00796258 -0.286978751
v -0.00703369128 0.816235304 -0.286978751
v -0.0104400637 1.00455689 -0.283573002
v -0.0104400637 1.00455689 -0.0922998041
v -0.00703369128 1.00796258 -0.0922998041
v -0.00703369128 1.00796258 -0.286978751
v -0.00703369128 0.816235304 -0.322166741
v -0.00703369128 1.00796258 -0.322166741
v -0.0104400637 1.00455689 -0.325572491
v -0.0104400637 0.816235304 -0.325572491
v -0.00703369128 1.00796258 -0.322166741
v -0.00703369128 1.00796258 -0.562853992
v -0.0104400637 1.00455689 -0.559448242
v -0.0104400637 1.00455689 -0.325572491
v -0.0245599356 0.816235304 -0.325572491
v -0.0245599356 1.00455689 -0.325572491
v -0.0279663075 1.00796258 -0.322166741
v -0.0279663075 0.816235304 -0.322166741
v -0.0279663075 0.816235304 -0.562853992
v -0.0279663075 1.00796258 -0.562853992
v -0.0245599356 1.00455689 -0.559448242
v -0.0245599356 0.816235304 -0.559448242
v -0.0104400637 0.816235304 -0.559448242
v -0.0104400637 1.00455689 -0.559448242
v -0.00703369128 1.00796258 -0.562853992
v -0.00703369128 0.816235304 -0.562853992
v -0.00703369128 0.816235304 -0.598041952
v -0.00703369128 1.00796258 -0.598041952
v -0.0104400637 1.00455689 -0.601447761
v -0.0104400637 0.816235304 -0.601447761
v -0.00703369128 1.00796258 -0.598041952
v -0.00703369128 1.00796258 -0.776175499
v -0.0104400637 1.00455689 -0.776175499
v -0.0104400637 1.00455689 -0.601447761
v -0.0245599356 1.00455689 -0.601447761
v -0.0245599356 1.00455689 -0.776175499
v -0.0279663075 1.00796258 -0.776175499
v -0.0279663075 1.00796258 -0.598041952
v -0.0104400637 1.29838502 -0.325572491
v -0.0104400637 1.29838502 -0.559448242
v -0.00703369128 1.29497921 -0.562853992
v -0.00703369128 1.29497921 -0.322166741
v -0.0279663075 1.48670769 -0.322166741
v -0.0279663075 1.29497921 -0.322166741
v -0.0245599356 1.29838502 -0.325572491
v -0.0245599356 1.48670769 -0.325572491
v -0.0279663075 1.29497921 -0.322166741
v -0.0279663075 1.29497921 -0.562853992
v -0.0245599356 1.29838502 -0.559448242
v -0.0245599356 1.29838502 -0.325572491
v -0.00703369128 1.48670769 -0.286978751
v -0.00703369128 1.29497921 -0.286978751
v -0.0104400637 1.29838502 -0.283573002
v -0.0104400637 1.48670769 -0.283573002
v -0.00703369128 1.29497921 -0.286978751
v -0.00703369128 1.29497921 -0.0922998041
v -0.0104400637 1.29838502 -0.0922998041
v -0.0104400637 1.29838502 -0.283573002
v -0.0245599356 1.48670769 -0.283573002
v -0.0245599356 1.29838502 -0.283573002
v -0.0279663075 1.29497921 -0.286978751
v -0.0279663075 1.48670769 -0.286978751
v -0.0245599356 1.29838502 -0.283573002
v -0.0245599356 1.29838502 -0.0922998041
v -0.0279663075 1.29497921 -0.0922998041
v -0.0279663075 1.29497921 -0.286978751
v -0.0104400637 1.48670769 -0.601447761
v -0.0104400637 1.29838502 -0.601447761
v -0.00703369128 1.29497921 -0.598041952
v -0.00703369128 1.48670769 -0.598041952
v -0.0104400637 1.29838502 -0.601447761
v -0.0104400637 1.29838502 -0.776175499
v -0.00703369128 1.29497921 -0.776175499
v -0.00703369128 1.29497921 -0.598041952
v -0.0279663075 1.48670769 -0.598041952
v -0.0279663075 1.29497921 -0.598041952
v -0.0245599356 1.29838502 -0.601447761
v -0.0245599356 1.48670769 -0.601447761
v -0.0279663075 1.29497921 -0.598041952
v -0.0279663075 1.29497921 -0.776175499
v -0.0245599356 1.29838502 -0.776175499
v -0.0245599356 1.29838502 -0.601447761
v -0.00703369128 1.48670769 -0.562853992
v -0.00703369128 1.29497921 -0.562853992
v -0.0104400637 1.29838502 -0.559448242
v -0.0104400637 1.48670769 -0.559448242
v -0.0245599356 1.48670769 -0.559448242
v -0.0245599356 1.29838502 -0.559448242
v -0.0279663075 1.29497921 -0.562853992
v -0.0279663075 1.48670769 -0.562853992
v -0.0245599356 1.04862666 -0.325572491
v -0.0104400637 1.04862666 -0.325572491
v -0.0104400637 1.25431514 -0.325572491
v -0.0245599356 1.25431514 -0.325572491
v -0.0104400637 1.04862666 -0.283573002
v -0.0245599356 1.04862666 -0.283573002
v -0.0245599356 1.25431514 -0.283573002
v -0.0104400637 1.25431514 -0.283573002
v -0.0245599356 1.04862666 -0.601447761
v -0.0104400637 1.04862666 -0.601447761
v -0.0104400637 1.25431514 -0.601447761
v -0.0245599356 1.25431514 -0.601447761
v -0.0104400637 1.04862666 -0.559448242
v -0.0245599356 1.04862666 -0.559448242
v -0.0245599356 1.25431514 -0.559448242
v -0.0104400637 1.25431514 -0.559448242
v -0.0104400637 1.00455689 -0.283573002
v -0.0104400637 0.816235304 -0.283573002
v -0.0245599356 0.816235304 -0.283573002
v -0.0245599356 1.00455689 -0.283573002
v -0.0245599356 1.00455689 -0.325572491
v -0.0245599356 0.816235304 -0.325572491
v -0.0104400637 0.816235304 -0.325572491
v -0.0104400637 1.00455689 -0.325572491
v -0.0279663075 1.00796258 -0.286978751
v -0.0279663075 0.816235304 -0.286978751
v -0.0279663075 0.816235304 -0.322166741
v -0.0279663075 1.00796258 -0.322166741
v -0.0279663075 1.04522097 -0.322166741
v -0.0279663075 1.04522097 -0.286978751
v -0.0279663075 1.25772095 -0.322166741
v -0.0279663075 1.25772095 -0.286978751
v -0.0279663075 1.29497921 -0.322166741
v -0.0279663075 1.29497921 -0.286978751
v -0.0279663075 1.48670769 -0.322166741
v -0.0279663075 1.48670769 -0.286978751
v -0.00703369128 0.816235304 -0.322166741
v -0.00703369128 0.816235304 -0.286978751
v -0.00703369128 1.00796258 -0.286978751
v -0.00703369128 1.00796258 -0.322166741
v -0.00703369128 1.04522097 -0.286978751
v -0.00703369128 1.04522097 -0.322166741
v -0.00703369128 1.25772095 -0.286978751
v -0.00703369128 1.25772095 -0.322166741
v -0.00703369128 1.29497921 -0.286978751
v -0.00703369128 1.29497921 -0.322166741
v -0.00703369128 1.48670769 -0.322166741
v -0.00703369128 1.48670769 -0.286978751
v -0.0104400637 1.00455689 -0.559448242
v -0.0104400637 0.816235304 -0.559448242
v -0.0245599356 0.816235304 -0.559448242
v -0.0245599356 1.00455689 -0.559448242
v -0.0245599356 1.00455689 -0.601447761
v -0.0245599356 0.816235304 -0.601447761
v -0.0104400637 0.816235304 -0.601447761
v -0.0104400637 1.00455689 -0.601447761
v -0.0279663075 1.00796258 -0.562853992
v -0.0279663075 0.816235304 -0.562853992
v -0.0279663075 0.816235304 -0.598041952
v -0.0279663075 1.00796258 -0.598041952
v -0.0279663075 1.04522097 -0.598041952
v -0.0279663075 1.04522097 -0.562853992
v -0.0279663075 1.25772095 -0.598041952
v -0.0279663075 1.25772095 -0.562853992
v -0.0279663075 1.29497921 -0.598041952
v -0.0279663075 1.29497921 -0.562853992
v -0.0279663075 1.48670769 -0.598041952
v -0.0279663075 1.48670769 -0.562853992
v -0.00703369128 0.816235304 -0.598041952
v -0.00703369128 0.816235304 -0.562853992
v -0.00703369128 1.00796258 -0.562853992
v -0.00703369128 1.00796258 -0.598041952
v -0.00703369128 1.04522097 -0.562853992
v -0.00703369128 1.04522097 -0.598041952
v -0.00703369128 1.25772095 -0.562853992
v -0.00703369128 1.25772095 -0.598041952
v -0.00703369128 1.29497921 -0.562853992
v -0.00703369128 1.29497921 -0.598041952
v -0.00703369128 1.48670769 -0.598041952
v -0.00703369128 1.48670769 -0.562853992
v -0.0245599356 1.29838502 -0.325572491
v -0.0104400637 1.29838502 -0.325572491
v -0.0104400637 1.48670769 -0.325572491
v -0.0245599356 1.48670769 -0.325572491
v -0.0245599356 1.48670769 -0.283573002
v -0.0104400637 1.48670769 -0.283573002
v -0.0104400637 1.29838502 -0.283573002
v -0.0245599356 1.29838502 -0.283573002
v -0.0245599356 1.29838502 -0.601447761
v -0.0104400637 1.29838502 -0.601447761
v -0.0104400637 1.48670769 -0.601447761
v -0.0245599356 1.48670769 -0.601447761
v -0.0245599356 1.48670769 -0.559448242
v -0.0104400637 1.48670769 -0.559448242
v -0.0104400637 1.29838502 -0.559448242
v -0.0245599356 1.29838502 -0.559448242
v -0.0279663075 1.04522097 -0.286978751
v -0.0279663075 1.04522097 -0.0922998041
v -0.0279663075 1.00796258 -0.0922998041
v -0.0279663075 1.00796258 -0.286978751
v -0.0245599356 1.00455689 -0.283573002
v -0.0245599356 1.00455689 -0.0922998041
v -0.0104400637 1.00455689 -0.0922998041
v -0.0104400637 1.00455689 -0.283573002
v -0.00703369128 1.00796258 -0.286978751
v -0.00703369128 1.00796258 -0.0922998041
v -0.00703369128 1.04522097 -0.0922998041
v -0.00703369128 1.04522097 -0.286978751
v -0.0104400637 1.04862666 -0.283573002
v -0.0104400637 1.04862666 -0.0922998041
v -0.0245599356 1.04862666 -0.0922998041
v -0.0245599356 1.04862666 -0.283573002
v -0.0279663075 1.29497921 -0.286978751
v -0.0279663075 1.29497921 -0.0922998041
v -0.0279663075 1.25772095 -0.0922998041
v -0.0279663075 1.25772095 -0.286978751
v -0.0245599356 1.25431514 -0.283573002
v -0.0245599356 1.25431514 -0.0922998041
v -0.0104400637 1.25431514 -0.0922998041
v -0.0104400637 1.25431514 -0.283573002
v -0.00703369128 1.25772095 -0.286978751
v -0.00703369128 1.25772095 -0.0922998041
v -0.00703369128 1.29497921 -0.0922998041
v -0.00703369128 1.29497921 -0.286978751
v -0.0104400637 1.29838502 -0.283573002
v -0.0104400637 1.29838502 -0.0922998041
v -0.0245599356 1.29838502 -0.0922998041
v -0.0245599356 1.29838502 -0.283573002
v -0.0279663075 1.00796258 -0.598041952
v -0.0279663075 1.00796258 -0.776175499
v -0.0279663075 1.04522097 -0.776175499
v -0.0279663075 1.04522097 -0.598041952
v -0.0245599356 1.04862666 -0.601447761
v -0.0245599356 1.04862666 -0.776175499
v -0.0104400637 1.04862666 -0.776175499
v -0.0104400637 1.04862666 -0.601447761
v -0.00703369128 1.04522097 -0.598041952
v -0.00703369128 1.04522097 -0.776175499
v -0.00703369128 1.00796258 -0.776175499
v -0.00703369128 1.00796258 -0.598041952
v -0.0104400637 1.00455689 -0.601447761
v -0.0104400637 1.00455689 -0.776175499
v -0.0245599356 1.00455689 -0.776175499
v -0.0245599356 1.00455689 -0.601447761
v -0.0279663075 1.25772095 -0.598041952
v -0.0279663075 1.25772095 -0.776175499
v -0.0279663075 1.29497921 -0.776175499
v -0.0279663075 1.29497921 -0.598041952
v -0.0245599356 1.29838502 -0.601447761
v -0.0245599356 1.29838502 -0.776175499
v -0.0104400637 1.29838502 -0.776175499
v -0.0104400637 1.29838502 -0.601447761
v -0.00703369128 1.29497921 -0.598041952
v -0.00703369128 1.29497921 -0.776175499
v -0.00703369128 1.25772095 -0.776175499
v -0.00703369128 1.25772095 -0.598041952
v -0.0104400637 1.25431514 -0.601447761
v -0.0104400637 1.25431514 -0.776175499
v -0.0245599356 1.25431514 -0.776175499
v -0.0245599356 1.25431514 -0.601447761
v -0.0279663075 1.04522097 -0.562853992
v -0.0279663075 1.04522097 -0.322166741
v -0.0279663075 1.00796258 -0.322166741
v -0.0279663075 1.00796258 -0.562853992
v -0.0279663075 1.29497921 -0.562853992
v -0.0279663075 1.29497921 -0.322166741
v -0.0279663075 1.25772095 -0.322166741
v -0.0279663075 1.25772095 -0.562853992
v -0.0245599356 1.29838502 -0.559448242
v -0.0104400637 1.29838502 -0.559448242
v -0.0104400637 1.29838502 -0.325572491
v -0.0245599356 1.29838502 -0.325572491
v -0.00703369128 1.29497921 -0.562853992
v -0.00703369128 1.25772095 -0.562853992
v -0.00703369128 1.25772095 -0.322166741
v -0.00703369128 1.29497921 -0.322166741
v -0.0104400637 1.25431514 -0.559448242
v -0.0245599356 1.25431514 -0.559448242
v -0.0245599356 1.25431514 -0.325572491
v -0.0104400637 1.25431514 -0.325572491
v -0.0245599356 1.04862666 -0.559448242
v -0.0104400637 1.04862666 -0.559448242
v -0.0104400637 1.04862666 -0.325572491
v -0.0245599356 1.04862666 -0.325572491
v -0.00703369128 1.04522097 -0.562853992
v -0.00703369128 1.00796258 -0.562853992
v -0.00703369128 1.00796258 -0.322166741
v -0.00703369128 1.04522097 -0.322166741
v -0.0104400637 1.00455689 -0.559448242
v -0.0245599356 1.00455689 -0.559448242
v -0.0245599356 1.00455689 -0.325572491
v -0.0104400637 1.00455689 -0.325572491
v 0.00114746089 0.723115206 -0.831374466
v 0.00114746089 0.733115196 -0.831374466
v 0.0251062009 0.733115196 -0.831374466
v 0.0251062009 0.723115206 -0.831374466
v 0.00114746089 0.733115196 -0.831374466
v 0.00114746089 0.733115196 -0.841374516
v 0.0251062009 0.733115196 -0.841374516
v 0.0251062009 0.733115196 -0.831374466
v 0.00114746089 0.733115196 -0.841374516
v 0.00114746089 0.723115206 -0.841374516
v 0.0251062009 0.723115206 -0.841374516
v 0.0251062009 0.733115196 -0.841374516
v 0.00114746089 0.723115206 -0.841374516
v 0.00114746089 0.723115206 -0.831374466
v 0.0251062009 0.723115206 -0.831374466
v 0.0251062009 0.723115206 -0.841374516
v 0.00114746089 1.01884758 -0.831374466
v 0.00114746089 1.02884758 -0.831374466
v 0.0251062009 1.02884758 -0.831374466
v 0.0251062009 1.01884758 -0.831374466
v 0.00114746089 1.02884758 -0.831374466
v 0.00114746089 1.02884758 -0.841374516
v 0.0251062009 1.02884758 -0.841374516
v 0.0251062009 1.02884758 -0.831374466
v 0.00114746089 1.02884758 -0.841374516
v 0.00114746089 1.01884758 -0.841374516
v 0.0251062009 1.01884758 -0.841374516
v 0.0251062009 1.02884758 -0.841374516
v 0.00114746089 1.01884758 -0.841374516
v 0.00114746089 1.01884758 -0.831374466
v 0.0251062009 1.01884758 -0.831374466
v 0.0251062009 1.01884758 -0.841374516
v 0.0297253411 1.08520019 -0.821657717
v 0.044708252 0.667753875 -0.821657717
v 0.0297253411 0.667753875 -0.821657717
v 0.044708252 1.08520019 -0.821657717
v 0.0520678684 1.08520019 -0.82901001
v 0.0520678684 0.667753875 -0.82901001
v 0.0297253411 0.667753875 -0.851091266
v 0.044708252 0.667753875 -0.851091266
v 0.044708252 1.08520019 -0.851091266
v 0.0297253411 1.08520019 -0.851091266
v 0.0520678684 1.08520019 -0.82901001
v 0.0520678684 1.08520019 -0.843735337
v 0.0520678684 0.667753875 -0.843735337
v 0.0520678684 0.667753875 -0.82901001
v 0.0223687738 1.08520019 -0.843735337
v 0.0223687738 1.08520019 -0.82901001
v 0.0223687738 0.667753875 -0.82901001
v 0.0223687738 0.667753875 -0.843735337
v 0.0297253411 0.667753875 -0.851091266
v 0.0297253411 1.08520019 -0.851091266
v 0.0223687738 0.667753875 -0.82901001
v 0.0223687738 1.08520019 -0.82901001
v 0.0297253411 1.08520019 -0.821657717
v 0.0297253411 0.667753875 -0.821657717
v 0.044708252 1.08520019 -0.851091266
v 0.044708252 0.667753875 -0.851091266
v 0.0520678684 0.667753875 -0.843735337
v 0.0520678684 1.08520019 -0.843735337
v -0.0374114998 0.723115206 -0.841374516
v -0.0374114998 0.733115196 -0.841374516
v -0.0613702387 0.733115196 -0.841374516
v -0.0613702387 0.723115206 -0.841374516
v -0.0374114998 0.733115196 -0.841374516
v -0.0374114998 0.733115196 -0.831374466
v -0.0613702387 0.733115196 -0.831374466
v -0.0613702387 0.733115196 -0.841374516
v -0.0374114998 0.733115196 -0.831374466
v -0.0374114998 0.723115206 -0.831374466
v -0.0613702387 0.723115206 -0.831374466
v -0.0613702387 0.733115196 -0.831374466
v -0.0374114998 0.723115206 -0.831374466
v -0.0374114998 0.723115206 -0.841374516
v -0.0613702387 0.723115206 -0.841374516
v -0.0613702387 0.723115206 -0.831374466
v -0.0374114998 1.01884758 -0.841374516
v -0.0374114998 1.02884758 -0.841374516
v -0.0613702387 1.02884758 -0.841374516
v -0.0613702387 1.01884758 -0.841374516
v -0.0374114998 1.02884758 -0.841374516
v -0.0374114998 1.02884758 -0.831374466
v -0.0613702387 1.02884758 -0.831374466
v -0.0613702387 1.02884758 -0.841374516
v -0.0374114998 1.02884758 -0.831374466
v -0.0374114998 1.01884758 -0.831374466
v -0.0613702387 1.01884758 -0.831374466
v -0.0613702387 1.02884758 -0.831374466
v -0.0374114998 1.01884758 -0.831374466
v -0.0374114998 1.01884758 -0.841374516
v -0.0613702387 1.01884758 -0.841374516
v -0.0613702387 1.01884758 -0.831374466
v -0.0659893751 1.08520019 -0.851091266
v -0.0809722915 0.667753875 -0.851091266
v -0.0659893751 0.667753875 -0.851091266
v -0.0809722915 1.08520019 -0.851091266
v -0.088331908 1.08520019 -0.843738973
v -0.088331908 0.667753875 -0.843738973
v -0.0659893751 0.667753875 -0.821657717
v -0.0809722915 0.667753875 -0.821657717
v -0.0809722915 1.08520019 -0.821657717
v -0.0659893751 1.08520019 -0.821657717
v -0.088331908 1.08520019 -0.843738973
v -0.088331908 0.667753875 -0.829013646
v -0.088331908 0.667753875 -0.843738973
v -0.088331908 1.08520019 -0.829013646
v -0.0809722915 1.08520019 -0.821657717
v -0.0809722915 0.667753875 -0.821657717
v -0.0586328097 1.08520019 -0.829013646
v -0.0586328097 1.08520019 -0.843738973
v -0.0586328097 0.667753875 -0.843738973
v -0.0586328097 0.667753875 -0.829013646
v -0.0586328097 0.667753875 -0.843738973
v -0.0586328097 1.08520019 -0.843738973
v -0.0659893751 1.08520019 -0.851091266
v -0.0659893751 0.667753875 -0.851091266
v -0.0586328097 1.08520019 -0.829013646
v -0.0586328097 0.667753875 -0.829013646
v -0.0659893751 0.667753875 -0.821657717
v -0.0659893751 1.08520019 -0.821657717
v 0.00114746089 0.723115206 -0.831374466
v 0.00114746089 0.720286846 -0.828546107
v 0.00114746089 0.735943615 -0.828546107
v 0.00114746089 0.733115196 -0.831374466
v 0.00114746089 0.733115196 -0.831374466
v 0.00114746089 0.735943615 -0.828546107
v 0.00114746089 0.735943615 -0.844202876
v 0.00114746089 0.733115196 -0.841374516
v 0.00114746089 0.733115196 -0.841374516
v 0.00114746089 0.735943615 -0.844202876
v 0.00114746089 0.720286846 -0.844202876
v 0.00114746089 0.723115206 -0.841374516
v 0.00114746089 0.723115206 -0.841374516
v 0.00114746089 0.720286846 -0.844202876
v 0.00114746089 0.720286846 -0.828546107
v 0.00114746089 0.723115206 -0.831374466
v 0.00114746089 1.01884758 -0.831374466
v 0.00114746089 1.01601923 -0.828546107
v 0.00114746089 1.03167605 -0.828546107
v 0.00114746089 1.02884758 -0.831374466
v 0.00114746089 1.02884758 -0.831374466
v 0.00114746089 1.03167605 -0.828546107
v 0.00114746089 1.03167605 -0.844202876
v 0.00114746089 1.02884758 -0.841374516
v 0.00114746089 1.02884758 -0.841374516
v 0.00114746089 1.03167605 -0.844202876
v 0.00114746089 1.01601923 -0.844202876
v 0.00114746089 1.01884758 -0.841374516
v 0.00114746089 1.01884758 -0.841374516
v 0.00114746089 1.01601923 -0.844202876
v 0.00114746089 1.01601923 -0.828546107
v 0.00114746089 1.01884758 -0.831374466
v -0.0374114998 0.723115206 -0.841374516
v -0.0374114998 0.720286846 -0.844202876
v -0.0374114998 0.735943615 -0.844202876
v -0.0374114998 0.733115196 -0.841374516
v -0.0374114998 0.733115196 -0.841374516
v -0.0374114998 0.735943615 -0.844202876
v -0.0374114998 0.735943615 -0.828546107
v -0.0374114998 0.733115196 -0.831374466
v -0.0374114998 0.733115196 -0.831374466
v -0.0374114998 0.735943615 -0.828546107
v -0.0374114998 0.720286846 -0.828546107
v -0.0374114998 0.723115206 -0.831374466
v -0.0374114998 0.723115206 -0.831374466
v -0.0374114998 0.720286846 -0.828546107
v -0.0374114998 0.720286846 -0.844202876
v -0.0374114998 0.723115206 -0.841374516
v -0.0374114998 1.01884758 -0.841374516
v -0.0374114998 1.01601923 -0.844202876
v -0.0374114998 1.03167605 -0.844202876
v -0.0374114998 1.02884758 -0.841374516
v -0.0374114998 1.02884758 -0.841374516
v -0.0374114998 1.03167605 -0.844202876
v -0.0374114998 1.03167605 -0.828546107
v -0.0374114998 1.02884758 -0.831374466
v -0.0374114998 1.02884758 -0.831374466
v -0.0374114998 1.03167605 -0.828546107
v -0.0374114998 1.01601923 -0.828546107
v -0.0374114998 1.01884758 -0.831374466
v -0.0374114998 1.01884758 -0.831374466
v -0.0374114998 1.01601923 -0.828546107
v -0.0374114998 1.01601923 -0.844202876
v -0.0374114998 1.01884758 -0.841374516
v 0.00114746089 0.720286846 -0.828546107
v -0.00985229481 0.720286846 -0.828546107
v -0.00985229481 0.735943615 -0.828546107
v 0.00114746089 0.735943615 -0.828546107
v 0.00114746089 0.735943615 -0.828546107
v -0.00985229481 0.735943615 -0.828546107
v -0.00985229481 0.735943615 -0.844202876
v 0.00114746089 0.735943615 -0.844202876
v 0.00114746089 0.735943615 -0.844202876
v -0.00985229481 0.735943615 -0.844202876
v -0.00985229481 0.720286846 -0.844202876
v 0.00114746089 0.720286846 -0.844202876
v 0.00114746089 0.720286846 -0.844202876
v -0.00985229481 0.720286846 -0.844202876
v -0.00985229481 0.720286846 -0.828546107
v 0.00114746089 0.720286846 -0.828546107
v 0.00114746089 1.01601923 -0.828546107
v -0.00985229481 1.01601923 -0.828546107
v -0.00985229481 1.03167605 -0.828546107
v 0.00114746089 1.03167605 -0.828546107
v 0.00114746089 1.03167605 -0.828546107
v -0.00985229481 1.03167605 -0.828546107
v -0.00985229481 1.03167605 -0.844202876
v 0.00114746089 1.03167605 -0.844202876
v 0.00114746089 1.03167605 -0.844202876
v -0.00985229481 1.03167605 -0.844202876
v -0.00985229481 1.01601923 -0.844202876
v 0.00114746089 1.01601923 -0.844202876
v 0.00114746089 1.01601923 -0.844202876
v -0.00985229481 1.01601923 -0.844202876
v -0.00985229481 1.01601923 -0.828546107
v 0.00114746089 1.01601923 -0.828546107
v -0.0374114998 0.720286846 -0.844202876
v -0.026411742 0.720286846 -0.844202876
v -0.026411742 0.735943615 -0.844202876
v -0.0374114998 0.735943615 -0.844202876
v -0.0374114998 0.735943615 -0.844202876
v -0.026411742 0.735943615 -0.844202876
v -0.026411742 0.735943615 -0.828546107
v -0.0374114998 0.735943615 -0.828546107
v -0.0374114998 0.735943615 -0.828546107
v -0.026411742 0.735943615 -0.828546107
v -0.026411742 0.720286846 -0.828546107
v -0.0374114998 0.720286846 -0.828546107
v -0.0374114998 0.720286846 -0.828546107
v -0.026411742 0.720286846 -0.828546107
v -0.026411742 0.720286846 -0.844202876
v -0.0374114998 0.720286846 -0.844202876
v -0.0374114998 1.01601923 -0.844202876
v -0.026411742 1.01601923 -0.844202876
v -0.026411742 1.03167605 -0.844202876
v -0.0374114998 1.03167605 -0.844202876
v -0.0374114998 1.03167605 -0.844202876
v -0.026411742 1.03167605 -0.844202876
v -0.026411742 1.03167605 -0.828546107
v -0.0374114998 1.03167605 -0.828546107
v -0.0374114998 1.03167605 -0.828546107
v -0.026411742 1.03167605 -0.828546107
v -0.026411742 1.01601923 -0.828546107
v -0.0374114998 1.01601923 -0.828546107
v -0.0374114998 1.01601923 -0.828546107
v -0.026411742 1.01601923 -0.828546107
v -0.026411742 1.01601923 -0.844202876
v -0.0374114998 1.01601923 -0.844202876
v -0.0688897669 0.66375488 -0.844095469
v -0.0734826624 0.66375488 -0.836375713
v -0.0656335428 0.66375488 -0.840838611
v -0.0780755579 0.66375488 -0.844095469
v -0.0656335428 0.66375488 -0.831912816
v -0.081331782 0.66375488 -0.840838611
v -0.0688897669 0.66375488 -0.828654766
v -0.081331782 0.66375488 -0.831914067
v -0.078074947 0.66375488 -0.828654766
v -0.0688897669 1.08920038 -0.828654766
v -0.0734826624 1.08920038 -0.836374521
v -0.0656335428 1.08920038 -0.831912816
v -0.078074947 1.08920038 -0.828654766
v -0.0656335428 1.08920038 -0.840838611
v -0.081331782 1.08920038 -0.831914067
v -0.0688897669 1.08920038 -0.844095469
v -0.081331782 1.08920038 -0.840838611
v -0.0780755579 1.08920038 -0.844095469
v 0.0326257311 0.66375488 -0.828653574
v 0.0372186266 0.66375488 -0.83637327
v 0.029369507 0.66375488 -0.831910372
v 0.0418115221 0.66375488 -0.828653574
v 0.029369507 0.66375488 -0.840836167
v 0.0450677462 0.66375488 -0.831910372
v 0.0326257311 0.66375488 -0.844094217
v 0.0450677462 0.66375488 -0.840834916
v 0.0418109111 0.66375488 -0.844094217
v 0.0326257311 1.08920038 -0.844094217
v 0.0372186266 1.08920038 -0.836374521
v 0.029369507 1.08920038 -0.840836167
v 0.0418109111 1.08920038 -0.844094217
v 0.029369507 1.08920038 -0.831910372
v 0.0450677462 1.08920038 -0.840834916
v 0.0326257311 1.08920038 -0.828653574
v 0.0450677462 1.08920038 -0.831910372
v 0.0418115221 1.08920038 -0.828653574
v -0.0350000001 1.64258301 -0.899999976
v -0.0350000001 1.47686887 -0.0914282203
v -0.0350000001 1.47686887 -0.776853025
v -0.0350000001 0.826074183 -0.776853025
v -0.0350000001 1.64258301 0
v -0.0350000001 0 -0.899999976
v -0.0350000001 0.826074183 -0.0914282203
v -0.0350000001 0 0
v -0 0 -0.899999976
v -0 0.826074183 -0.0914282203
v -0 0.826074183 -0.776853025
v -0 1.47686887 -0.776853025
v -0 0 0
v -0 1.64258301 -0.899999976
v -0 1.64258301 0
v -0 1.47686887 -0.0914282203
v -0.0299999993 1.98798454 -0.899999976
v -0.0299999993 1.672948 -0.77530396
v -0.0299999993 1.6451782 -0.899999976
v -0.0299999993 1.6451782 0
v -0.0299999993 1.96021485 -0.77530396
v -0.0299999993 1.672948 -0.0929772928
v -0.0299999993 1.98798454 0
v -0.0299999993 1.96021485 -0.0929772928
v -0.00499999989 1.98798454 0
v -0.00499999989 1.672948 -0.0929772928
v -0.00499999989 1.6451782 0
v -0.00499999989 1.6451782 -0.899999976
v -0.00499999989 1.96021485 -0.0929772928
v -0.00499999989 1.672948 -0.77530396
v -0.00499999989 1.98798454 -0.899999976
v -0.00499999989 1.96021485 -0.77530396
v -0.0659893751 0.667753875 -0.851091266
v -0.0656335428 0.66375488 -0.840838611
v -0.0586328097 0.667753875 -0.843738973
v -0.0688897669 0.66375488 -0.844095469
v -0.0656335428 0.66375488 -0.831912816
v -0.0809722915 0.667753875 -0.851091266
v -0.0586328097 0.667753875 -0.829013646
v -0.0780755579 0.66375488 -0.844095469
v -0.0688897669 0.66375488 -0.828654766
v -0.088331908 0.667753875 -0.843738973
v -0.0659893751 0.667753875 -0.821657717
v -0.081331782 0.66375488 -0.840838611
v -0.078074947 0.66375488 -0.828654766
v -0.088331908 0.667753875 -0.829013646
v -0.0809722915 0.667753875 -0.821657717
v -0.081331782 0.66375488 -0.831914067
v -0.0659893751 1.08520019 -0.821657717
v -0.0656335428 1.08920038 -0.831912816
v -0.0586328097 1.08520019 -0.829013646
v -0.0688897669 1.08920038 -0.828654766
v -0.0656335428 1.08920038 -0.840838611
v -0.0809722915 1.08520019 -0.821657717
v -0.0586328097 1.08520019 -0.843738973
v -0.078074947 1.08920038 -0.828654766
v -0.0688897669 1.08920038 -0.844095469
v -0.088331908 1.08520019 -0.829013646
v -0.0659893751 1.08520019 -0.851091266
v -0.081331782 1.08920038 -0.831914067
v -0.0780755579 1.08920038 -0.844095469
v -0.088331908 1.08520019 -0.843738973
v -0.0809722915 1.08520019 -0.851091266
v -0.081331782 1.08920038 -0.840838611
v 0.0297253411 0.667753875 -0.821657717
v 0.029369507 0.66375488 -0.831910372
v 0.0223687738 0.667753875 -0.82901001
v 0.0326257311 0.66375488 -0.828653574
v 0.029369507 0.66375488 -0.840836167
v 0.044708252 0.667753875 -0.821657717
v 0.0223687738 0.667753875 -0.843735337
v 0.0418115221 0.66375488 -0.828653574
v 0.0326257311 0.66375488 -0.844094217
v 0.0520678684 0.667753875 -0.82901001
v 0.0297253411 0.667753875 -0.851091266
v 0.0450677462 0.66375488 -0.831910372
v 0.0418109111 0.66375488 -0.844094217
v 0.0520678684 0.667753875 -0.843735337
v 0.044708252 0.667753875 -0.851091266
v 0.0450677462 0.66375488 -0.840834916
v 0.0297253411 1.08520019 -0.851091266
v 0.029369507 1.08920038 -0.840836167
v 0.0223687738 1.08520019 -0.843735337
v 0.0326257311 1.08920038 -0.844094217
v 0.029369507 1.08920038 -0.831910372
v 0.044708252 1.08520019 -0.851091266
v 0.0223687738 1.08520019 -0.82901001
v 0.0418109111 1.08920038 -0.844094217
v 0.0326257311 1.08920038 -0.828653574
v 0.0520678684 1.08520019 -0.843735337
v 0.0297253411 1.08520019 -0.821657717
v 0.0450677462 1.08920038 -0.840834916
v 0.0418115221 1.08920038 -0.828653574
v 0.0520678684 1.08520019 -0.82901001
v 0.044708252 1.08520019 -0.821657717
v 0.0450677462 1.08920038 -0.831910372
vt 0.837402344 0.91796875
vt 0.837402344 0.983398438
vt 0.836425781 0.982421875
vt 0.837402344 0.91796875
vt 0.836425781 0.982421875
vt 0.836425781 0.919433594
vt 0.684570312 0.919433594
vt 0.684570312 0.982421875
vt 0.68359375 0.983398438
vt 0.684570312 0.919433594
vt 0.68359375 0.983398438
vt 0.68359375 0.918457031
vt 0.837890625 0.7265625
vt 0.683105469 0.7265625
vt 0.684570312 0.728027344
vt 0.837890625 0.7265625
vt 0.684570312 0.728027344
vt 0.836425781 0.728027344
vt 0.787597656 0.772949219
vt 0.829589844 0.772949219
vt 0.829589844 0.771972656
vt 0.787597656 0.772949219
vt 0.829589844 0.771972656
vt 0.787109375 0.771972656
vt 0.787597656 0.786621094
vt 0.829589844 0.786621094
vt 0.829589844 0.785644531
vt 0.787597656 0.786621094
vt 0.829589844 0.785644531
vt 0.787109375 0.785644531
vt 0.783691406 0.762695312
vt 0.731933594 0.762695312
vt 0.731445312 0.763671875
vt 0.783691406 0.762695312
vt 0.731445312 0.763671875
vt 0.784179688 0.763671875
vt 0.833984375 0.73046875
vt 0.79296875 0.73046875
vt 0.791992188 0.731445312
vt 0.833984375 0.73046875
vt 0.791992188 0.731445312
vt 0.833984375 0.731445312
vt 0.687011719 0.753417969
vt 0.728515625 0.753417969
vt 0.729003906 0.752441406
vt 0.687011719 0.753417969
vt 0.729003906 0.752441406
vt 0.687011719 0.752441406
vt 0.6484375 0.611328125
vt 0.6484375 0.532714844
vt 0.63671875 0.532714844
vt 0.63671875 0.611328125
vt 0.6484375 0.611816406
vt 0.63671875 0.611816406
vt 0.6484375 0.987304688
vt 0.63671875 0.987304688
vt 0.6484375 0.862792969
vt 0.6484375 0.657226562
vt 0.63671875 0.657226562
vt 0.63671875 0.862792969
vt 0.6484375 0.987304688
vt 0.63671875 0.908691406
vt 0.63671875 0.987304688
vt 0.6484375 0.908691406
vt 0.63671875 0.908203125
vt 0.6484375 0.908203125
vt 0.63671875 0.532714844
vt 0.6484375 0.532714844
vt 0.684570312 0.982421875
vt 0.836425781 0.982421875
vt 0.837402344 0.983398438
vt 0.68359375 0.983398438
vt 0.68359375 0.918457031
vt 0.68359375 0.983398438
vt 0.684570312 0.982421875
vt 0.684570312 0.919433594
vt 0.836425781 0.919433594
vt 0.836425781 0.982421875
vt 0.837402344 0.983398438
vt 0.837402344 0.91796875
vt 0.836425781 0.982421875
vt 0.684570312 0.982421875
vt 0.68359375 0.983398438
vt 0.837402344 0.983398438
vt 0.63671875 0.795410156
vt 0.6484375 0.795410156
vt 0.6484375 0.724609375
vt 0.63671875 0.724609375
vt 0.63671875 0.845703125
vt 0.6484375 0.845703125
vt 0.6484375 0.674316406
vt 0.63671875 0.674316406
vt 0.63671875 0.795410156
vt 0.6484375 0.795410156
vt 0.6484375 0.724609375
vt 0.63671875 0.724609375
vt 0.6484375 0.862792969
vt 0.6484375 0.657226562
vt 0.63671875 0.657226562
vt 0.63671875 0.862792969
vt 0.655273438 0.910644531
vt 0.858398438 0.910644531
vt 0.858398438 0.912109375
vt 0.655273438 0.912109375
vt 0.68359375 0.918457031
vt 0.837402344 0.91796875
vt 0.836425781 0.919433594
vt 0.684570312 0.919433594
vt 0.63671875 0.674316406
vt 0.63671875 0.845703125
vt 0.6484375 0.845703125
vt 0.6484375 0.674316406
vt 0.684570312 0.919433594
vt 0.836425781 0.919433594
vt 0.837402344 0.91796875
vt 0.68359375 0.918457031
vt 0.655273438 0.912109375
vt 0.858398438 0.912109375
vt 0.858398438 0.910644531
vt 0.655273438 0.910644531
vt 0.836425781 0.728027344
vt 0.836425781 0.872070312
vt 0.837890625 0.873535156
vt 0.837890625 0.7265625
vt 0.683105469 0.7265625
vt 0.683105469 0.873535156
vt 0.684570312 0.872070312
vt 0.684570312 0.728027344
vt 0.837890625 0.7265625
vt 0.837890625 0.873535156
vt 0.836425781 0.872070312
vt 0.836425781 0.728027344
vt 0.836425781 0.728027344
vt 0.684570312 0.728027344
vt 0.683105469 0.7265625
vt 0.837890625 0.7265625
vt 0.684570312 0.728027344
vt 0.684570312 0.872070312
vt 0.683105469 0.873535156
vt 0.683105469 0.7265625
vt 0.684570312 0.872070312
vt 0.836425781 0.872070312
vt 0.837890625 0.873535156
vt 0.683105469 0.873535156
vt 0.836425781 0.872070312
vt 0.684570312 0.872070312
vt 0.683105469 0.873535156
vt 0.837890625 0.873535156
vt 0.6484375 0.700195312
vt 0.63671875 0.700195312
vt 0.63671875 0.819824219
vt 0.6484375 0.819824219
vt 0.6484375 0.703125
vt 0.63671875 0.703125
vt 0.63671875 0.816894531
vt 0.6484375 0.816894531
vt 0.63671875 0.819824219
vt 0.6484375 0.819824219
vt 0.6484375 0.700195312
vt 0.63671875 0.700195312
vt 0.6484375 0.703125
vt 0.63671875 0.703125
vt 0.63671875 0.816894531
vt 0.6484375 0.816894531
vt 0.784179688 0.771972656
vt 0.731445312 0.771972656
vt 0.731933594 0.772949219
vt 0.783691406 0.772949219
vt 0.783203125 0.73046875
vt 0.737792969 0.73046875
vt 0.736816406 0.731445312
vt 0.784179688 0.731445312
vt 0.783691406 0.762695312
vt 0.731933594 0.762695312
vt 0.731445312 0.763671875
vt 0.784179688 0.763671875
vt 0.783691406 0.739257812
vt 0.737304688 0.739257812
vt 0.737792969 0.740234375
vt 0.783203125 0.740234375
vt 0.787109375 0.763671875
vt 0.829589844 0.763671875
vt 0.829589844 0.762695312
vt 0.787597656 0.762695312
vt 0.784179688 0.78515625
vt 0.731445312 0.78515625
vt 0.731933594 0.786621094
vt 0.783691406 0.786621094
vt 0.737792969 0.753417969
vt 0.783203125 0.753417969
vt 0.783691406 0.752441406
vt 0.737304688 0.752441406
vt 0.783691406 0.776367188
vt 0.731933594 0.776367188
vt 0.731445312 0.77734375
vt 0.784179688 0.77734375
vt 0.737304688 0.744628906
vt 0.783691406 0.744628906
vt 0.782714844 0.743652344
vt 0.73828125 0.743652344
vt 0.787109375 0.77734375
vt 0.829589844 0.77734375
vt 0.829589844 0.776367188
vt 0.787597656 0.776367188
vt 0.729003906 0.771972656
vt 0.689941406 0.771972656
vt 0.689941406 0.772949219
vt 0.728515625 0.772949219
vt 0.783203125 0.73046875
vt 0.737792969 0.73046875
vt 0.736816406 0.731445312
vt 0.784179688 0.731445312
vt 0.728515625 0.762695312
vt 0.689941406 0.762695312
vt 0.689941406 0.763671875
vt 0.729003906 0.763671875
vt 0.783691406 0.739257812
vt 0.737304688 0.739257812
vt 0.737792969 0.740234375
vt 0.783203125 0.740234375
vt 0.729003906 0.78515625
vt 0.689941406 0.78515625
vt 0.689941406 0.786621094
vt 0.728515625 0.786621094
vt 0.737792969 0.753417969
vt 0.783203125 0.753417969
vt 0.783691406 0.752441406
vt 0.737304688 0.752441406
vt 0.728515625 0.776367188
vt 0.689941406 0.776367188
vt 0.689941406 0.77734375
vt 0.729003906 0.77734375
vt 0.737304688 0.744628906
vt 0.783691406 0.744628906
vt 0.782714844 0.743652344
vt 0.73828125 0.743652344
vt 0.833984375 0.739257812
vt 0.791992188 0.739257812
vt 0.79296875 0.740234375
vt 0.833984375 0.740234375
vt 0.787109375 0.763671875
vt 0.829589844 0.763671875
vt 0.829589844 0.762695312
vt 0.787597656 0.762695312
vt 0.833984375 0.743652344
vt 0.79296875 0.743652344
vt 0.791992188 0.744628906
vt 0.833984375 0.744628906
vt 0.787597656 0.786621094
vt 0.829589844 0.786621094
vt 0.829589844 0.785644531
vt 0.787109375 0.785644531
vt 0.833984375 0.752441406
vt 0.791992188 0.752441406
vt 0.792480469 0.753417969
vt 0.833984375 0.753417969
vt 0.784179688 0.78515625
vt 0.731445312 0.78515625
vt 0.731933594 0.786621094
vt 0.783691406 0.786621094
vt 0.833984375 0.73046875
vt 0.79296875 0.73046875
vt 0.791992188 0.731445312
vt 0.833984375 0.731445312
vt 0.833984375 0.739257812
vt 0.791992188 0.739257812
vt 0.79296875 0.740234375
vt 0.833984375 0.740234375
vt 0.833984375 0.743652344
vt 0.79296875 0.743652344
vt 0.791992188 0.744628906
vt 0.833984375 0.744628906
vt 0.833984375 0.752441406
vt 0.791992188 0.752441406
vt 0.792480469 0.753417969
vt 0.833984375 0.753417969
vt 0.729003906 0.78515625
vt 0.689941406 0.78515625
vt 0.689941406 0.786621094
vt 0.728515625 0.786621094
vt 0.728515625 0.762695312
vt 0.689941406 0.762695312
vt 0.689941406 0.763671875
vt 0.729003906 0.763671875
vt 0.783691406 0.776367188
vt 0.731933594 0.776367188
vt 0.731445312 0.77734375
vt 0.784179688 0.77734375
vt 0.687011719 0.731445312
vt 0.729003906 0.731445312
vt 0.728027344 0.73046875
vt 0.687011719 0.73046875
vt 0.784179688 0.771972656
vt 0.731445312 0.771972656
vt 0.731933594 0.772949219
vt 0.783691406 0.772949219
vt 0.687011719 0.744628906
vt 0.729003906 0.744628906
vt 0.728027344 0.743652344
vt 0.687011719 0.743652344
vt 0.787109375 0.77734375
vt 0.829589844 0.77734375
vt 0.829589844 0.776367188
vt 0.787597656 0.776367188
vt 0.687011719 0.740234375
vt 0.728027344 0.740234375
vt 0.729003906 0.739257812
vt 0.687011719 0.739257812
vt 0.787597656 0.772949219
vt 0.829589844 0.772949219
vt 0.829589844 0.771972656
vt 0.787109375 0.771972656
vt 0.687011719 0.753417969
vt 0.728515625 0.753417969
vt 0.729003906 0.752441406
vt 0.687011719 0.752441406
vt 0.728515625 0.776367188
vt 0.689941406 0.776367188
vt 0.689941406 0.77734375
vt 0.729003906 0.77734375
vt 0.687011719 0.731445312
vt 0.729003906 0.731445312
vt 0.728027344 0.73046875
vt 0.687011719 0.73046875
vt 0.729003906 0.771972656
vt 0.689941406 0.771972656
vt 0.689941406 0.772949219
vt 0.728515625 0.772949219
vt 0.687011719 0.744628906
vt 0.729003906 0.744628906
vt 0.728027344 0.743652344
vt 0.687011719 0.743652344
vt 0.687011719 0.740234375
vt 0.728027344 0.740234375
vt 0.729003906 0.739257812
vt 0.687011719 0.739257812
vt 0.783203125 0.756347656
vt 0.783203125 0.753417969
vt 0.737792969 0.753417969
vt 0.737792969 0.756347656
vt 0.782714844 0.743652344
vt 0.783203125 0.740234375
vt 0.737792969 0.740234375
vt 0.73828125 0.743652344
vt 0.783203125 0.756347656
vt 0.783203125 0.753417969
vt 0.737792969 0.753417969
vt 0.737792969 0.756347656
vt 0.782714844 0.743652344
vt 0.783203125 0.740234375
vt 0.737792969 0.740234375
vt 0.73828125 0.743652344
vt 0.79296875 0.743652344
vt 0.833984375 0.743652344
vt 0.833984375 0.740234375
vt 0.79296875 0.740234375
vt 0.792480469 0.756347656
vt 0.833984375 0.756347656
vt 0.833984375 0.753417969
vt 0.792480469 0.753417969
vt 0.791992188 0.739257812
vt 0.833984375 0.739257812
vt 0.833984375 0.731445312
vt 0.791992188 0.731445312
vt 0.784179688 0.731445312
vt 0.783691406 0.739257812
vt 0.736816406 0.731445312
vt 0.737304688 0.739257812
vt 0.729003906 0.731445312
vt 0.729003906 0.739257812
vt 0.687011719 0.731445312
vt 0.687011719 0.739257812
vt 0.833984375 0.752441406
vt 0.833984375 0.744628906
vt 0.791992188 0.744628906
vt 0.791992188 0.752441406
vt 0.783691406 0.744628906
vt 0.783691406 0.752441406
vt 0.737304688 0.744628906
vt 0.737304688 0.752441406
vt 0.729003906 0.744628906
vt 0.729003906 0.752441406
vt 0.687011719 0.752441406
vt 0.687011719 0.744628906
vt 0.79296875 0.743652344
vt 0.833984375 0.743652344
vt 0.833984375 0.740234375
vt 0.79296875 0.740234375
vt 0.792480469 0.756347656
vt 0.833984375 0.756347656
vt 0.833984375 0.753417969
vt 0.792480469 0.753417969
vt 0.791992188 0.739257812
vt 0.833984375 0.739257812
vt 0.833984375 0.731445312
vt 0.791992188 0.731445312
vt 0.784179688 0.731445312
vt 0.783691406 0.739257812
vt 0.736816406 0.731445312
vt 0.737304688 0.739257812
vt 0.729003906 0.731445312
vt 0.729003906 0.739257812
vt 0.687011719 0.731445312
vt 0.687011719 0.739257812
vt 0.833984375 0.752441406
vt 0.833984375 0.744628906
vt 0.791992188 0.744628906
vt 0.791992188 0.752441406
vt 0.783691406 0.744628906
vt 0.783691406 0.752441406
vt 0.737304688 0.744628906
vt 0.737304688 0.752441406
vt 0.729003906 0.744628906
vt 0.729003906 0.752441406
vt 0.687011719 0.752441406
vt 0.687011719 0.744628906
vt 0.728515625 0.756347656
vt 0.728515625 0.753417969
vt 0.687011719 0.753417969
vt 0.687011719 0.756347656
vt 0.687011719 0.740234375
vt 0.687011719 0.743652344
vt 0.728027344 0.743652344
vt 0.728027344 0.740234375
vt 0.728515625 0.756347656
vt 0.728515625 0.753417969
vt 0.687011719 0.753417969
vt 0.687011719 0.756347656
vt 0.687011719 0.740234375
vt 0.687011719 0.743652344
vt 0.728027344 0.743652344
vt 0.728027344 0.740234375
vt 0.787109375 0.771972656
vt 0.829589844 0.771972656
vt 0.829589844 0.763671875
vt 0.787109375 0.763671875
vt 0.787597656 0.789550781
vt 0.829589844 0.789550781
vt 0.829589844 0.786621094
vt 0.787597656 0.786621094
vt 0.787109375 0.785644531
vt 0.829589844 0.785644531
vt 0.829589844 0.77734375
vt 0.787109375 0.77734375
vt 0.787597656 0.776367188
vt 0.829589844 0.776367188
vt 0.829589844 0.772949219
vt 0.787597656 0.772949219
vt 0.787109375 0.771972656
vt 0.829589844 0.771972656
vt 0.829589844 0.763671875
vt 0.787109375 0.763671875
vt 0.787597656 0.789550781
vt 0.829589844 0.789550781
vt 0.829589844 0.786621094
vt 0.787597656 0.786621094
vt 0.787109375 0.785644531
vt 0.829589844 0.785644531
vt 0.829589844 0.77734375
vt 0.787109375 0.77734375
vt 0.787597656 0.776367188
vt 0.829589844 0.776367188
vt 0.829589844 0.772949219
vt 0.787597656 0.772949219
vt 0.729003906 0.763671875
vt 0.689941406 0.763671875
vt 0.689941406 0.771972656
vt 0.729003906 0.771972656
vt 0.728515625 0.772949219
vt 0.689941406 0.772949219
vt 0.689941406 0.776367188
vt 0.728515625 0.776367188
vt 0.729003906 0.77734375
vt 0.689941406 0.77734375
vt 0.689941406 0.78515625
vt 0.729003906 0.78515625
vt 0.728515625 0.786621094
vt 0.689941406 0.786621094
vt 0.689941406 0.789550781
vt 0.728515625 0.789550781
vt 0.729003906 0.763671875
vt 0.689941406 0.763671875
vt 0.689941406 0.771972656
vt 0.729003906 0.771972656
vt 0.728515625 0.772949219
vt 0.689941406 0.772949219
vt 0.689941406 0.776367188
vt 0.728515625 0.776367188
vt 0.729003906 0.77734375
vt 0.689941406 0.77734375
vt 0.689941406 0.78515625
vt 0.729003906 0.78515625
vt 0.728515625 0.786621094
vt 0.689941406 0.786621094
vt 0.689941406 0.789550781
vt 0.728515625 0.789550781
vt 0.731445312 0.771972656
vt 0.784179688 0.771972656
vt 0.784179688 0.763671875
vt 0.731445312 0.763671875
vt 0.731445312 0.771972656
vt 0.784179688 0.771972656
vt 0.784179688 0.763671875
vt 0.731445312 0.763671875
vt 0.731933594 0.772949219
vt 0.731933594 0.776367188
vt 0.783691406 0.776367188
vt 0.783691406 0.772949219
vt 0.731445312 0.77734375
vt 0.731445312 0.78515625
vt 0.784179688 0.78515625
vt 0.784179688 0.77734375
vt 0.731933594 0.786621094
vt 0.731933594 0.789550781
vt 0.783691406 0.789550781
vt 0.783691406 0.786621094
vt 0.731933594 0.772949219
vt 0.731933594 0.776367188
vt 0.783691406 0.776367188
vt 0.783691406 0.772949219
vt 0.731445312 0.77734375
vt 0.731445312 0.78515625
vt 0.784179688 0.78515625
vt 0.784179688 0.77734375
vt 0.731933594 0.786621094
vt 0.731933594 0.789550781
vt 0.783691406 0.789550781
vt 0.783691406 0.786621094
vt 0.716308594 0.811035156
vt 0.708007812 0.811035156
vt 0.708007812 0.831542969
vt 0.716308594 0.831542969
vt 0.708007812 0.811035156
vt 0.69921875 0.811035156
vt 0.69921875 0.831542969
vt 0.708007812 0.831542969
vt 0.733886719 0.811035156
vt 0.725097656 0.811035156
vt 0.725097656 0.831542969
vt 0.733886719 0.831542969
vt 0.725097656 0.811035156
vt 0.716308594 0.811035156
vt 0.716308594 0.831542969
vt 0.725097656 0.831542969
vt 0.708007812 0.811035156
vt 0.69921875 0.811035156
vt 0.69921875 0.831542969
vt 0.708007812 0.831542969
vt 0.733886719 0.811035156
vt 0.725097656 0.811035156
vt 0.725097656 0.831542969
vt 0.733886719 0.831542969
vt 0.725097656 0.811035156
vt 0.716308594 0.811035156
vt 0.716308594 0.831542969
vt 0.725097656 0.831542969
vt 0.716308594 0.811035156
vt 0.708007812 0.811035156
vt 0.708007812 0.831542969
vt 0.716308594 0.831542969
vt 0.825195312 0.860839844
vt 0.695800781 0.850585938
vt 0.695800781 0.860839844
vt 0.825195312 0.850585938
vt 0.825195312 0.843261719
vt 0.695800781 0.843261719
vt 0.695800781 0.850585938
vt 0.695800781 0.840332031
vt 0.825195312 0.840332031
vt 0.825195312 0.850585938
vt 0.825195312 0.843261719
vt 0.825195312 0.833007812
vt 0.695800781 0.833007812
vt 0.695800781 0.843261719
vt 0.825195312 0.857910156
vt 0.825195312 0.868164062
vt 0.695800781 0.868164062
vt 0.695800781 0.857910156
vt 0.695800781 0.850585938
vt 0.825195312 0.850585938
vt 0.695800781 0.868164062
vt 0.825195312 0.868164062
vt 0.825195312 0.860839844
vt 0.695800781 0.860839844
vt 0.825195312 0.840332031
vt 0.695800781 0.840332031
vt 0.695800781 0.833007812
vt 0.825195312 0.833007812
vt 0.708007812 0.811035156
vt 0.69921875 0.811035156
vt 0.69921875 0.831542969
vt 0.708007812 0.831542969
vt 0.733886719 0.811035156
vt 0.725097656 0.811035156
vt 0.725097656 0.831542969
vt 0.733886719 0.831542969
vt 0.725097656 0.811035156
vt 0.716308594 0.811035156
vt 0.716308594 0.831542969
vt 0.725097656 0.831542969
vt 0.716308594 0.811035156
vt 0.708007812 0.811035156
vt 0.708007812 0.831542969
vt 0.716308594 0.831542969
vt 0.708007812 0.811035156
vt 0.69921875 0.811035156
vt 0.69921875 0.831542969
vt 0.708007812 0.831542969
vt 0.733886719 0.811035156
vt 0.725097656 0.811035156
vt 0.725097656 0.831542969
vt 0.733886719 0.831542969
vt 0.725097656 0.811035156
vt 0.716308594 0.811035156
vt 0.716308594 0.831542969
vt 0.725097656 0.831542969
vt 0.716308594 0.811035156
vt 0.708007812 0.811035156
vt 0.708007812 0.831542969
vt 0.716308594 0.831542969
vt 0.695800781 0.850585938
vt 0.825195312 0.840332031
vt 0.825195312 0.850585938
vt 0.695800781 0.840332031
vt 0.695800781 0.833007812
vt 0.825195312 0.833007812
vt 0.825195312 0.860839844
vt 0.825195312 0.850585938
vt 0.695800781 0.850585938
vt 0.695800781 0.860839844
vt 0.695800781 0.833007812
vt 0.825195312 0.843261719
vt 0.825195312 0.833007812
vt 0.695800781 0.843261719
vt 0.695800781 0.850585938
vt 0.825195312 0.850585938
vt 0.695800781 0.868164062
vt 0.695800781 0.857910156
vt 0.825195312 0.857910156
vt 0.825195312 0.868164062
vt 0.825195312 0.857910156
vt 0.695800781 0.857910156
vt 0.695800781 0.850585938
vt 0.825195312 0.850585938
vt 0.695800781 0.868164062
vt 0.825195312 0.868164062
vt 0.825195312 0.860839844
vt 0.695800781 0.860839844
vt 0.715332031 0.809082031
vt 0.717773438 0.806640625
vt 0.704589844 0.806640625
vt 0.70703125 0.809082031
vt 0.701660156 0.809082031
vt 0.704589844 0.806640625
vt 0.690917969 0.806640625
vt 0.693359375 0.809082031
vt 0.742675781 0.809082031
vt 0.745117188 0.806640625
vt 0.731445312 0.806640625
vt 0.733886719 0.809082031
vt 0.729003906 0.809082031
vt 0.731445312 0.806640625
vt 0.717773438 0.806640625
vt 0.720214844 0.809082031
vt 0.701660156 0.809082031
vt 0.704589844 0.806640625
vt 0.690917969 0.806640625
vt 0.693359375 0.809082031
vt 0.742675781 0.809082031
vt 0.745117188 0.806152344
vt 0.731445312 0.806152344
vt 0.733886719 0.809082031
vt 0.729003906 0.809082031
vt 0.731445312 0.806152344
vt 0.717773438 0.806152344
vt 0.720214844 0.809082031
vt 0.715332031 0.809082031
vt 0.717773438 0.806152344
vt 0.704589844 0.806640625
vt 0.70703125 0.809082031
vt 0.701660156 0.809082031
vt 0.704589844 0.806640625
vt 0.690917969 0.806640625
vt 0.693359375 0.809082031
vt 0.742675781 0.809082031
vt 0.745117188 0.806152344
vt 0.731445312 0.806152344
vt 0.733886719 0.809082031
vt 0.729003906 0.809082031
vt 0.731445312 0.806152344
vt 0.717773438 0.806152344
vt 0.720214844 0.809082031
vt 0.715332031 0.809082031
vt 0.717773438 0.806152344
vt 0.704589844 0.806640625
vt 0.70703125 0.809082031
vt 0.701660156 0.809082031
vt 0.704589844 0.806640625
vt 0.690917969 0.806640625
vt 0.693359375 0.809082031
vt 0.742675781 0.809082031
vt 0.745117188 0.806152344
vt 0.731445312 0.806152344
vt 0.733886719 0.809082031
vt 0.729003906 0.809082031
vt 0.731445312 0.806152344
vt 0.717773438 0.806152344
vt 0.720214844 0.809082031
vt 0.715332031 0.809082031
vt 0.717773438 0.806152344
vt 0.704589844 0.806640625
vt 0.70703125 0.809082031
vt 0.717773438 0.806640625
vt 0.717773438 0.796875
vt 0.704589844 0.796875
vt 0.704589844 0.806640625
vt 0.704589844 0.806640625
vt 0.704589844 0.796875
vt 0.690917969 0.796875
vt 0.690917969 0.806640625
vt 0.745117188 0.806640625
vt 0.745117188 0.796875
vt 0.731445312 0.796875
vt 0.731445312 0.806640625
vt 0.731445312 0.806640625
vt 0.731445312 0.796875
vt 0.717773438 0.796875
vt 0.717773438 0.806640625
vt 0.704589844 0.806640625
vt 0.704589844 0.796875
vt 0.690917969 0.796875
vt 0.690917969 0.806640625
vt 0.745117188 0.806152344
vt 0.745117188 0.796875
vt 0.731445312 0.796875
vt 0.731445312 0.806152344
vt 0.731445312 0.806152344
vt 0.731445312 0.796875
vt 0.717773438 0.796875
vt 0.717773438 0.806152344
vt 0.717773438 0.806152344
vt 0.717773438 0.796875
vt 0.704589844 0.796875
vt 0.704589844 0.806640625
vt 0.704589844 0.806640625
vt 0.704589844 0.796875
vt 0.690917969 0.796875
vt 0.690917969 0.806640625
vt 0.745117188 0.806152344
vt 0.745117188 0.796875
vt 0.731445312 0.796875
vt 0.731445312 0.806152344
vt 0.731445312 0.806152344
vt 0.731445312 0.796875
vt 0.717773438 0.796875
vt 0.717773438 0.806152344
vt 0.717773438 0.806152344
vt 0.717773438 0.796875
vt 0.704589844 0.796875
vt 0.704589844 0.806640625
vt 0.704589844 0.806640625
vt 0.704589844 0.796875
vt 0.690917969 0.796875
vt 0.690917969 0.806640625
vt 0.745117188 0.806152344
vt 0.745117188 0.796875
vt 0.731445312 0.796875
vt 0.731445312 0.806152344
vt 0.731445312 0.806152344
vt 0.731445312 0.796875
vt 0.717773438 0.796875
vt 0.717773438 0.806152344
vt 0.717773438 0.806152344
vt 0.717773438 0.796875
vt 0.704589844 0.796875
vt 0.704589844 0.806640625
vt 0.831054688 0.850585938
vt 0.829589844 0.853027344
vt 0.83203125 0.8515625
vt 0.828125 0.850585938
vt 0.83203125 0.854492188
vt 0.827148438 0.8515625
vt 0.831054688 0.85546875
vt 0.827148438 0.854492188
vt 0.828125 0.85546875
vt 0.689941406 0.85546875
vt 0.69140625 0.853027344
vt 0.688964844 0.854492188
vt 0.692871094 0.85546875
vt 0.688964844 0.8515625
vt 0.693847656 0.854492188
vt 0.689941406 0.850585938
vt 0.693847656 0.8515625
vt 0.692871094 0.850585938
vt 0.689941406 0.85546875
vt 0.69140625 0.853027344
vt 0.688964844 0.854492188
vt 0.692871094 0.85546875
vt 0.688964844 0.8515625
vt 0.693847656 0.854492188
vt 0.689941406 0.850585938
vt 0.693847656 0.8515625
vt 0.692871094 0.850585938
vt 0.831054688 0.850585938
vt 0.829589844 0.853027344
vt 0.83203125 0.8515625
vt 0.828125 0.850585938
vt 0.83203125 0.854492188
vt 0.827148438 0.8515625
vt 0.831054688 0.85546875
vt 0.827148438 0.854492188
vt 0.828125 0.85546875
vt 0.655273438 0.910644531
vt 0.837890625 0.873535156
vt 0.683105469 0.873535156
vt 0.683105469 0.7265625
vt 0.858398438 0.910644531
vt 0.655761719 0.540527344
vt 0.837890625 0.7265625
vt 0.858398438 0.540527344
vt 0.655761719 0.540527344
vt 0.837890625 0.7265625
vt 0.683105469 0.7265625
vt 0.683105469 0.873535156
vt 0.858398438 0.540527344
vt 0.655273438 0.910644531
vt 0.858398438 0.910644531
vt 0.837890625 0.873535156
vt 0.655761719 0.989746094
vt 0.68359375 0.918457031
vt 0.655273438 0.912109375
vt 0.858398438 0.912109375
vt 0.68359375 0.983398438
vt 0.837402344 0.91796875
vt 0.858398438 0.989257812
vt 0.837402344 0.983398438
vt 0.858398438 0.989257812
vt 0.837402344 0.91796875
vt 0.858398438 0.912109375
vt 0.655273438 0.912109375
vt 0.837402344 0.983398438
vt 0.68359375 0.918457031
vt 0.655761719 0.989746094
vt 0.68359375 0.983398438
vt 0.83203125 0.848144531
vt 0.83203125 0.8515625
vt 0.834472656 0.850585938
vt 0.831054688 0.850585938
vt 0.83203125 0.854492188
vt 0.827148438 0.848144531
vt 0.834472656 0.85546875
vt 0.828125 0.850585938
vt 0.831054688 0.85546875
vt 0.824707031 0.850585938
vt 0.83203125 0.857910156
vt 0.827148438 0.8515625
vt 0.828125 0.85546875
vt 0.824707031 0.85546875
vt 0.827148438 0.857910156
vt 0.827148438 0.854492188
vt 0.688964844 0.857910156
vt 0.688964844 0.854492188
vt 0.686523438 0.85546875
vt 0.689941406 0.85546875
vt 0.688964844 0.8515625
vt 0.693847656 0.857910156
vt 0.686523438 0.850585938
vt 0.692871094 0.85546875
vt 0.689941406 0.850585938
vt 0.696289062 0.854980469
vt 0.688964844 0.848144531
vt 0.693847656 0.854492188
vt 0.692871094 0.850585938
vt 0.696289062 0.850585938
vt 0.693847656 0.848144531
vt 0.693847656 0.8515625
vt 0.688964844 0.857910156
vt 0.688964844 0.854492188
vt 0.686523438 0.85546875
vt 0.689941406 0.85546875
vt 0.688964844 0.8515625
vt 0.693847656 0.857910156
vt 0.686523438 0.850585938
vt 0.692871094 0.85546875
vt 0.689941406 0.850585938
vt 0.696289062 0.85546875
vt 0.688964844 0.848144531
vt 0.693847656 0.854492188
vt 0.692871094 0.850585938
vt 0.696289062 0.850585938
vt 0.693847656 0.848144531
vt 0.693847656 0.8515625
vt 0.83203125 0.848144531
vt 0.83203125 0.8515625
vt 0.834472656 0.850585938
vt 0.831054688 0.850585938
vt 0.83203125 0.854492188
vt 0.827148438 0.848144531
vt 0.834472656 0.85546875
vt 0.828125 0.850585938
vt 0.831054688 0.85546875
vt 0.824707031 0.850585938
vt 0.83203125 0.857910156
vt 0.827148438 0.8515625
vt 0.828125 0.85546875
vt 0.824707031 0.854980469
vt 0.827148438 0.857910156
vt 0.827148438 0.854492188
vn 0.70703125 0 -0.70703125
vn 0.70703125 0 -0.70703125
vn 0.70703125 0 -0.70703125
vn 0.70703125 0 -0.70703125
vn 0.70703125 0 -0.70703125
vn 0.70703125 0 -0.70703125
vn 0.70703125 0 0.70703125
vn 0.70703125 0 0.70703125
vn 0.70703125 0 0.70703125
vn 0.70703125 0 0.70703125
vn 0.70703125 0 0.70703125
vn 0.70703125 0 0.70703125
vn -0.70703125 0.70703125 0
vn -0.70703125 0.70703125 0
vn -0.70703125 0.70703125 0
vn -0.70703125 0.70703125 0
vn -0.70703125 0.70703125 0
vn -0.70703125 0.70703125 0
vn -0.70703125 0.70703125 0
vn -0.70703125 0.70703125 0
vn -0.70703125 0.70703125 0
vn -0.70703125 0.70703125 0
vn -0.70703125 0.70703125 0
vn -0.70703125 0.70703125 0
vn 0.70703125 -0.70703125 0
vn 0.70703125 -0.70703125 0
vn 0.70703125 -0.70703125 0
vn 0.70703125 -0.70703125 0
vn 0.70703125 -0.70703125 0
vn 0.70703125 -0.70703125 0
vn -0.70703125 -0.70703125 0
vn -0.70703125 -0.70703125 0
vn -0.70703125 -0.70703125 0
vn -0.70703125 -0.70703125 0
vn -0.70703125 -0.70703125 0
vn -0.70703125 -0.70703125 0
vn -0.70703125 0 -0.70703125
vn -0.70703125 0 -0.70703125
vn -0.70703125 0 -0.70703125
vn -0.70703125 0 -0.70703125
vn -0.70703125 0 -0.70703125
vn -0.70703125 0 -0.70703125
vn 0.70703125 0 -0.70703125
vn 0.70703125 0 -0.70703125
vn 0.70703125 0 -0.70703125
vn 0.70703125 0 -0.70703125
vn 0.70703125 0 -0.70703125
vn 0.70703125 0 -0.70703125
vn -0 0 1
vn -0 0 1
vn -0 0 1
vn -0 0 1
vn -0 0 1
vn -0 0 1
vn -0 0 1
vn -0 0 1
vn -0 1 0
vn -0 1 0
vn -0 1 0
vn -0 1 0
vn -0 0 -1
vn -0 0 -1
vn -0 0 -1
vn -0 0 -1
vn -0 0 -1
vn -0 0 -1
vn -0 0 -1
vn -0 0 -1
vn 0.70703125 -0.70703125 0
vn 0.70703125 -0.70703125 0
vn 0.70703125 -0.70703125 0
vn 0.70703125 -0.70703125 0
vn -0.70703125 0 0.70703125
vn -0.70703125 0 0.70703125
vn -0.70703125 0 0.70703125
vn -0.70703125 0 0.70703125
vn -0.70703125 0 -0.70703125
vn -0.70703125 0 -0.70703125
vn -0.70703125 0 -0.70703125
vn -0.70703125 0 -0.70703125
vn -0.70703125 -0.70703125 0
vn -0.70703125 -0.70703125 0
vn -0.70703125 -0.70703125 0
vn -0.70703125 -0.70703125 0
vn -0 0 1
vn -0 0 1
vn -0 0 1
vn -0 0 1
vn -0 -1 0
vn -0 -1 0
vn -0 -1 0
vn -0 -1 0
vn -0 0 -1
vn -0 0 -1
vn -0 0 -1
vn -0 0 -1
vn -0 -1 0
vn -0 -1 0
vn -0 -1 0
vn -0 -1 0
vn 0.460693359 0.887695312 0
vn 0.460693359 0.887695312 0
vn 0.460693359 0.887695312 0
vn 0.460693359 0.887695312 0
vn 0.70703125 0.70703125 0
vn 0.70703125 0.70703125 0
vn 0.70703125 0.70703125 0
vn 0.70703125 0.70703125 0
vn -0 1 0
vn -0 1 0
vn -0 1 0
vn -0 1 0
vn -0.70703125 0.70703125 0
vn -0.70703125 0.70703125 0
vn -0.70703125 0.70703125 0
vn -0.70703125 0.70703125 0
vn -0.460693359 0.887695312 0
vn -0.460693359 0.887695312 0
vn -0.460693359 0.887695312 0
vn -0.460693359 0.887695312 0
vn -0.70703125 0 -0.70703125
vn -0.70703125 0 -0.70703125
vn -0.70703125 0 -0.70703125
vn -0.70703125 0 -0.70703125
vn -0.70703125 0 0.70703125
vn -0.70703125 0 0.70703125
vn -0.70703125 0 0.70703125
vn -0.70703125 0 0.70703125
vn 0.70703125 0 -0.70703125
vn 0.70703125 0 -0.70703125
vn 0.70703125 0 -0.70703125
vn 0.70703125 0 -0.70703125
vn 0.70703125 0.70703125 0
vn 0.70703125 0.70703125 0
vn 0.70703125 0.70703125 0
vn 0.70703125 0.70703125 0
vn 0.70703125 0 0.70703125
vn 0.70703125 0 0.70703125
vn 0.70703125 0 0.70703125
vn 0.70703125 0 0.70703125
vn 0.70703125 -0.70703125 0
vn 0.70703125 -0.70703125 0
vn 0.70703125 -0.70703125 0
vn 0.70703125 -0.70703125 0
vn -0.70703125 -0.70703125 0
vn -0.70703125 -0.70703125 0
vn -0.70703125 -0.70703125 0
vn -0.70703125 -0.70703125 0
vn -0 1 0
vn -0 1 0
vn -0 1 0
vn -0 1 0
vn -0 0 -1
vn -0 0 -1
vn -0 0 -1
vn -0 0 -1
vn -0 -1 0
vn -0 -1 0
vn -0 -1 0
vn -0 -1 0
vn -0 0 1
vn -0 0 1
vn -0 0 1
vn -0 0 1
vn -0.70703125 0.70703125 0
vn -0.70703125 0.70703125 0
vn -0.70703125 0.70703125 0
vn -0.70703125 0.70703125 0
vn -0.70703125 0 -0.70703125
vn -0.70703125 0 -0.70703125
vn -0.70703125 0 -0.70703125
vn -0.70703125 0 -0.70703125
vn -0.70703125 -0.70703125 0
vn -0.70703125 -0.70703125 0
vn -0.70703125 -0.70703125 0
vn -0.70703125 -0.70703125 0
vn -0.70703125 0 0.70703125
vn -0.70703125 0 0.70703125
vn -0.70703125 0 0.70703125
vn -0.70703125 0 0.70703125
vn -0.70703125 -0.70703125 0
vn -0.70703125 -0.70703125 0
vn -0.70703125 -0.70703125 0
vn -0.70703125 -0.70703125 0
vn 0.70703125 -0.70703125 0
vn 0.70703125 -0.70703125 0
vn 0.70703125 -0.70703125 0
vn 0.70703125 -0.70703125 0
vn 0.70703125 0 -0.70703125
vn 0.70703125 0 -0.70703125
vn 0.70703125 0 -0.70703125
vn 0.70703125 0 -0.70703125
vn 0.70703125 0.70703125 0
vn 0.70703125 0.70703125 0
vn 0.70703125 0.70703125 0
vn 0.70703125 0.70703125 0
vn 0.70703125 0 0.70703125
vn 0.70703125 0 0.70703125
vn 0.70703125 0 0.70703125
vn 0.70703125 0 0.70703125
vn 0.70703125 0.70703125 0
vn 0.70703125 0.70703125 0
vn 0.70703125 0.70703125 0
vn 0.70703125 0.70703125 0
vn -0.70703125 0.70703125 0
vn -0.70703125 0.70703125 0
vn -0.70703125 0.70703125 0
vn -0.70703125 0.70703125 0
vn -0.70703125 0 -0.70703125
vn -0.70703125 0 -0.70703125
vn -0.70703125 0 -0.70703125
vn -0.70703125 0 -0.70703125
vn -0.70703125 -0.70703125 0
vn -0.70703125 -0.70703125 0
vn -0.70703125 -0.70703125 0
vn -0.70703125 -0.70703125 0
vn -0.70703125 0 0.70703125
vn -0.70703125 0 0.70703125
vn -0.70703125 0 0.70703125
vn -0.70703125 0 0.70703125
vn 0.70703125 -0.70703125 0
vn 0.70703125 -0.70703125 0
vn 0.70703125 -0.70703125 0
vn 0.70703125 -0.70703125 0
vn 0.70703125 0 -0.70703125
vn 0.70703125 0 -0.70703125
vn 0.70703125 0 -0.70703125
vn 0.70703125 0 -0.70703125
vn 0.70703125 0.70703125 0
vn 0.70703125 0.70703125 0
vn 0.70703125 0.70703125 0
vn 0.70703125 0.70703125 0
vn 0.70703125 0 0.70703125
vn 0.70703125 0 0.70703125
vn 0.70703125 0 0.70703125
vn 0.70703125 0 0.70703125
vn -0.70703125 0 0.70703125
vn -0.70703125 0 0.70703125
vn -0.70703125 0 0.70703125
vn -0.70703125 0 0.70703125
vn -0.70703125 -0.70703125 0
vn -0.70703125 -0.70703125 0
vn -0.70703125 -0.70703125 0
vn -0.70703125 -0.70703125 0
vn 0.70703125 0 0.70703125
vn 0.70703125 0 0.70703125
vn 0.70703125 0 0.70703125
vn 0.70703125 0 0.70703125
vn 0.70703125 -0.70703125 0
vn 0.70703125 -0.70703125 0
vn 0.70703125 -0.70703125 0
vn 0.70703125 -0.70703125 0
vn 0.70703125 0 -0.70703125
vn 0.70703125 0 -0.70703125
vn 0.70703125 0 -0.70703125
vn 0.70703125 0 -0.70703125
vn 0.70703125 -0.70703125 0
vn 0.70703125 -0.70703125 0
vn 0.70703125 -0.70703125 0
vn 0.70703125 -0.70703125 0
vn -0.70703125 0 -0.70703125
vn -0.70703125 0 -0.70703125
vn -0.70703125 0 -0.70703125
vn -0.70703125 0 -0.70703125
vn -0.70703125 0 0.70703125
vn -0.70703125 0 0.70703125
vn -0.70703125 0 0.70703125
vn -0.70703125 0 0.70703125
vn 0.70703125 0 0.70703125
vn 0.70703125 0 0.70703125
vn 0.70703125 0 0.70703125
vn 0.70703125 0 0.70703125
vn 0.70703125 0 -0.70703125
vn 0.70703125 0 -0.70703125
vn 0.70703125 0 -0.70703125
vn 0.70703125 0 -0.70703125
vn 0.70703125 -0.70703125 0
vn 0.70703125 -0.70703125 0
vn 0.70703125 -0.70703125 0
vn 0.70703125 -0.70703125 0
vn -0.70703125 -0.70703125 0
vn -0.70703125 -0.70703125 0
vn -0.70703125 -0.70703125 0
vn -0.70703125 -0.70703125 0
vn 0.70703125 0.70703125 0
vn 0.70703125 0.70703125 0
vn 0.70703125 0.70703125 0
vn 0.70703125 0.70703125 0
vn -0.70703125 0 -0.70703125
vn -0.70703125 0 -0.70703125
vn -0.70703125 0 -0.70703125
vn -0.70703125 0 -0.70703125
vn -0.70703125 0.70703125 0
vn -0.70703125 0.70703125 0
vn -0.70703125 0.70703125 0
vn -0.70703125 0.70703125 0
vn 0.70703125 0 0.70703125
vn 0.70703125 0 0.70703125
vn 0.70703125 0 0.70703125
vn 0.70703125 0 0.70703125
vn 0.70703125 0.70703125 0
vn 0.70703125 0.70703125 0
vn 0.70703125 0.70703125 0
vn 0.70703125 0.70703125 0
vn -0.70703125 0 0.70703125
vn -0.70703125 0 0.70703125
vn -0.70703125 0 0.70703125
vn -0.70703125 0 0.70703125
vn -0.70703125 0.70703125 0
vn -0.70703125 0.70703125 0
vn -0.70703125 0.70703125 0
vn -0.70703125 0.70703125 0
vn 0.70703125 0 -0.70703125
vn 0.70703125 0 -0.70703125
vn 0.70703125 0 -0.70703125
vn 0.70703125 0 -0.70703125
vn 0.70703125 0.70703125 0
vn 0.70703125 0.70703125 0
vn 0.70703125 0.70703125 0
vn 0.70703125 0.70703125 0
vn -0.70703125 0 -0.70703125
vn -0.70703125 0 -0.70703125
vn -0.70703125 0 -0.70703125
vn -0.70703125 0 -0.70703125
vn -0.70703125 0.70703125 0
vn -0.70703125 0.70703125 0
vn -0.70703125 0.70703125 0
vn -0.70703125 0.70703125 0
vn 0.70703125 0 0.70703125
vn 0.70703125 0 0.70703125
vn 0.70703125 0 0.70703125
vn 0.70703125 0 0.70703125
vn -0.70703125 0 0.70703125
vn -0.70703125 0 0.70703125
vn -0.70703125 0 0.70703125
vn -0.70703125 0 0.70703125
vn -0 0 -1
vn -0 0 -1
vn -0 0 -1
vn -0 0 -1
vn -0 0 1
vn -0 0 1
vn -0 0 1
vn -0 0 1
vn -0 0 -1
vn -0 0 -1
vn -0 0 -1
vn -0 0 -1
vn -0 0 1
vn -0 0 1
vn -0 0 1
vn -0 0 1
vn -0 0 1
vn -0 0 1
vn -0 0 1
vn -0 0 1
vn -0 0 -1
vn -0 0 -1
vn -0 0 -1
vn -0 0 -1
vn -1 0 0
vn -1 0 0
vn -1 0 0
vn -1 0 0
vn -1 0 0
vn -1 0 0
vn -1 0 0
vn -1 0 0
vn -1 0 0
vn -1 0 0
vn -1 0 0
vn -1 0 0
vn 1 0 0
vn 1 0 0
vn 1 0 0
vn 1 0 0
vn 1 0 0
vn 1 0 0
vn 1 0 0
vn 1 0 0
vn 1 0 0
vn 1 0 0
vn 1 0 0
vn 1 0 0
vn -0 0 1
vn -0 0 1
vn -0 0 1
vn -0 0 1
vn -0 0 -1
vn -0 0 -1
vn -0 0 -1
vn -0 0 -1
vn -1 0 0
vn -1 0 0
vn -1 0 0
vn -1 0 0
vn -1 0 0
vn -1 0 0
vn -1 0 0
vn -1 0 0
vn -1 0 0
vn -1 0 0
vn -1 0 0
vn -1 0 0
vn 1 0 0
vn 1 0 0
vn 1 0 0
vn 1 0 0
vn 1 0 0
vn 1 0 0
vn 1 0 0
vn 1 0 0
vn 1 0 0
vn 1 0 0
vn 1 0 0
vn 1 0 0
vn -0 0 -1
vn -0 0 -1
vn -0 0 -1
vn -0 0 -1
vn -0 0 1
vn -0 0 1
vn -0 0 1
vn -0 0 1
vn -0 0 -1
vn -0 0 -1
vn -0 0 -1
vn -0 0 -1
vn -0 0 1
vn -0 0 1
vn -0 0 1
vn -0 0 1
vn -1 0 0
vn -1 0 0
vn -1 0 0
vn -1 0 0
vn -0 -1 0
vn -0 -1 0
vn -0 -1 0
vn -0 -1 0
vn 1 0 0
vn 1 0 0
vn 1 0 0
vn 1 0 0
vn -0 1 0
vn -0 1 0
vn -0 1 0
vn -0 1 0
vn -1 0 0
vn -1 0 0
vn -1 0 0
vn -1 0 0
vn -0 -1 0
vn -0 -1 0
vn -0 -1 0
vn -0 -1 0
vn 1 0 0
vn 1 0 0
vn 1 0 0
vn 1 0 0
vn -0 1 0
vn -0 1 0
vn -0 1 0
vn -0 1 0
vn -1 0 0
vn -1 0 0
vn -1 0 0
vn -1 0 0
vn -0 1 0
vn -0 1 0
vn -0 1 0
vn -0 1 0
vn 1 0 0
vn 1 0 0
vn 1 0 0
vn 1 0 0
vn -0 -1 0
vn -0 -1 0
vn -0 -1 0
vn -0 -1 0
vn -1 0 0
vn -1 0 0
vn -1 0 0
vn -1 0 0
vn -0 1 0
vn -0 1 0
vn -0 1 0
vn -0 1 0
vn 1 0 0
vn 1 0 0
vn 1 0 0
vn 1 0 0
vn -0 -1 0
vn -0 -1 0
vn -0 -1 0
vn -0 -1 0
vn -1 0 0
vn -1 0 0
vn -1 0 0
vn -1 0 0
vn -1 0 0
vn -1 0 0
vn -1 0 0
vn -1 0 0
vn -0 1 0
vn -0 1 0
vn -0 1 0
vn -0 1 0
vn 1 0 0
vn 1 0 0
vn 1 0 0
vn 1 0 0
vn -0 -1 0
vn -0 -1 0
vn -0 -1 0
vn -0 -1 0
vn -0 1 0
vn -0 1 0
vn -0 1 0
vn -0 1 0
vn 1 0 0
vn 1 0 0
vn 1 0 0
vn 1 0 0
vn -0 -1 0
vn -0 -1 0
vn -0 -1 0
vn -0 -1 0
vn -0 0 1
vn -0 0 1
vn -0 0 1
vn -0 0 1
vn -0 1 0
vn -0 1 0
vn -0 1 0
vn -0 1 0
vn -0 0 -1
vn -0 0 -1
vn -0 0 -1
vn -0 0 -1
vn -0 -1 0
vn -0 -1 0
vn -0 -1 0
vn -0 -1 0
vn -0 0 1
vn -0 0 1
vn -0 0 1
vn -0 0 1
vn -0 1 0
vn -0 1 0
vn -0 1 0
vn -0 1 0
vn -0 0 -1
vn -0 0 -1
vn -0 0 -1
vn -0 0 -1
vn -0 -1 0
vn -0 -1 0
vn -0 -1 0
vn -0 -1 0
vn -0.3125 0 0.949707031
vn 0.3125 0 0.949707031
vn -0.3125 0 0.949707031
vn 0.3125 0 0.949707031
vn 0.948730469 0 0.316162109
vn 0.948730469 0 0.316162109
vn -0.312744141 0 -0.949707031
vn 0.312744141 0 -0.949707031
vn 0.312744141 0 -0.949707031
vn -0.312744141 0 -0.949707031
vn 0.948730469 0 0.316162109
vn 0.948730469 0 -0.316162109
vn 0.948730469 0 -0.316162109
vn 0.948730469 0 0.316162109
vn -0.948730469 0 -0.316162109
vn -0.948730469 0 0.316162109
vn -0.948730469 0 0.316162109
vn -0.948730469 0 -0.316162109
vn -0.312744141 0 -0.949707031
vn -0.312744141 0 -0.949707031
vn -0.948730469 0 0.316162109
vn -0.948730469 0 0.316162109
vn -0.3125 0 0.949707031
vn -0.3125 0 0.949707031
vn 0.312744141 0 -0.949707031
vn 0.312744141 0 -0.949707031
vn 0.948730469 0 -0.316162109
vn 0.948730469 0 -0.316162109
vn -0 0 -1
vn -0 0 -1
vn -0 0 -1
vn -0 0 -1
vn -0 1 0
vn -0 1 0
vn -0 1 0
vn -0 1 0
vn -0 0 1
vn -0 0 1
vn -0 0 1
vn -0 0 1
vn -0 -1 0
vn -0 -1 0
vn -0 -1 0
vn -0 -1 0
vn -0 0 -1
vn -0 0 -1
vn -0 0 -1
vn -0 0 -1
vn -0 1 0
vn -0 1 0
vn -0 1 0
vn -0 1 0
vn -0 0 1
vn -0 0 1
vn -0 0 1
vn -0 0 1
vn -0 -1 0
vn -0 -1 0
vn -0 -1 0
vn -0 -1 0
vn 0.3125 0 -0.949707031
vn -0.3125 0 -0.949707031
vn 0.3125 0 -0.949707031
vn -0.3125 0 -0.949707031
vn -0.948730469 0 -0.316162109
vn -0.948730469 0 -0.316162109
vn 0.312744141 0 0.949707031
vn -0.312744141 0 0.949707031
vn -0.312744141 0 0.949707031
vn 0.312744141 0 0.949707031
vn -0.948730469 0 -0.316162109
vn -0.948730469 0 0.316162109
vn -0.948730469 0 -0.316162109
vn -0.948730469 0 0.316162109
vn -0.312744141 0 0.949707031
vn -0.312744141 0 0.949707031
vn 0.948730469 0 0.316162109
vn 0.948730469 0 -0.316162109
vn 0.948730469 0 -0.316162109
vn 0.948730469 0 0.316162109
vn 0.948730469 0 -0.316162109
vn 0.948730469 0 -0.316162109
vn 0.3125 0 -0.949707031
vn 0.3125 0 -0.949707031
vn 0.948730469 0 0.316162109
vn 0.948730469 0 0.316162109
vn 0.312744141 0 0.949707031
vn 0.312744141 0 0.949707031
vn 1 0 0
vn 1 0 0
vn 1 0 0
vn 1 0 0
vn 1 0 0
vn 1 0 0
vn 1 0 0
vn 1 0 0
vn 1 0 0
vn 1 0 0
vn 1 0 0
vn 1 0 0
vn 1 0 0
vn 1 0 0
vn 1 0 0
vn 1 0 0
vn 1 0 0
vn 1 0 0
vn 1 0 0
vn 1 0 0
vn 1 0 0
vn 1 0 0
vn 1 0 0
vn 1 0 0
vn 1 0 0
vn 1 0 0
vn 1 0 0
vn 1 0 0
vn 1 0 0
vn 1 0 0
vn 1 0 0
vn 1 0 0
vn -1 3.57627869E-07 0
vn -1 3.57627869E-07 0
vn -1 -3.57627869E-07 0
vn -1 -3.57627869E-07 0
vn -1 -3.57627869E-07 0
vn -1 -3.57627869E-07 0
vn -1 -3.57627869E-07 0
vn -1 -3.57627869E-07 0
vn -1 -3.57627869E-07 0
vn -1 -3.57627869E-07 0
vn -1 3.57627869E-07 0
vn -1 3.57627869E-07 0
vn -1 3.57627869E-07 0
vn -1 3.57627869E-07 0
vn -1 3.57627869E-07 0
vn -1 3.57627869E-07 0
vn -1 3.57627869E-07 0
vn -1 3.57627869E-07 0
vn -1 -3.57627869E-07 0
vn -1 -3.57627869E-07 0
vn -1 -3.57627869E-07 0
vn -1 -3.57627869E-07 0
vn -1 -3.57627869E-07 0
vn -1 -3.57627869E-07 0
vn -1 -3.57627869E-07 0
vn -1 -3.57627869E-07 0
vn -1 3.57627869E-07 0
vn -1 3.57627869E-07 0
vn -1 3.57627869E-07 0
vn -1 3.57627869E-07 0
vn -1 3.57627869E-07 0
vn -1 3.57627869E-07 0
vn -0 0 1
vn -0 0 1
vn -0 0 1
vn -0 0 1
vn -0 1 0
vn -0 1 0
vn -0 1 0
vn -0 1 0
vn -0 0 -1
vn -0 0 -1
vn -0 0 -1
vn -0 0 -1
vn -0 -1 0
vn -0 -1 0
vn -0 -1 0
vn -0 -1 0
vn -0 0 1
vn -0 0 1
vn -0 0 1
vn -0 0 1
vn -0 1 0
vn -0 1 0
vn -0 1 0
vn -0 1 0
vn -0 0 -1
vn -0 0 -1
vn -0 0 -1
vn -0 0 -1
vn -0 -1 0
vn -0 -1 0
vn -0 -1 0
vn -0 -1 0
vn -0 0 -1
vn -0 0 -1
vn -0 0 -1
vn -0 0 -1
vn -0 1 0
vn -0 1 0
vn -0 1 0
vn -0 1 0
vn -0 0 1
vn -0 0 1
vn -0 0 1
vn -0 0 1
vn -0 -1 0
vn -0 -1 0
vn -0 -1 0
vn -0 -1 0
vn -0 0 -1
vn -0 0 -1
vn -0 0 -1
vn -0 0 -1
vn -0 1 0
vn -0 1 0
vn -0 1 0
vn -0 1 0
vn -0 0 1
vn -0 0 1
vn -0 0 1
vn -0 0 1
vn -0 -1 0
vn -0 -1 0
vn -0 -1 0
vn -0 -1 0
vn -0 -1 -3.9935112E-06
vn -0 -1 0
vn -0 -1 -3.93390656E-06
vn -0 -1 0
vn -0 -1 0
vn -0 -1 0
vn -0 -1 0
vn -0 -1 3.93390656E-06
vn -0 -1 3.9935112E-06
vn -0 1 0
vn -0 1 0
vn -0 1 0
vn -0 1 0
vn -0 1 0
vn -0 1 0
vn -0 1 0
vn -0 1 0
vn -0 1 0
vn -0 -1 3.9935112E-06
vn -0 -1 0
vn -0 -1 3.93390656E-06
vn -0 -1 0
vn -0 -1 0
vn -0 -1 0
vn -0 -1 0
vn -0 -1 -3.93390656E-06
vn -0 -1 -3.9935112E-06
vn -0 1 0
vn -0 1 0
vn -0 1 0
vn -0 1 0
vn -0 1 0
vn -0 1 0
vn -0 1 0
vn -0 1 0
vn -0 1 0
vn -1 0 0
vn -1 0 0
vn -1 0 0
vn -1 0 0
vn -1 0 0
vn -1 0 0
vn -1 0 0
vn -1 0 0
vn 1 0 0
vn 1 0 0
vn 1 0 0
vn 1 0 0
vn 1 0 0
vn 1 0 0
vn 1 0 0
vn 1 0 0
vn -1 0 0
vn -1 0 0
vn -1 0 0
vn -1 0 0
vn -1 0 0
vn -1 0 0
vn -1 0 0
vn -1 0 0
vn 1 0 0
vn 1 0 0
vn 1 0 0
vn 1 0 0
vn 1 0 0
vn 1 0 0
vn 1 0 0
vn 1 0 0
vn 0.13684082 -0.883300781 -0.448242188
vn 0.447265625 -0.883789062 -0.138549805
vn 0.447265625 -0.883789062 -0.138549805
vn 0.13671875 -0.883300781 -0.448242188
vn 0.447265625 -0.883789062 0.138549805
vn -0.13671875 -0.883300781 -0.448242188
vn 0.447265625 -0.883789062 0.138549805
vn -0.13671875 -0.883300781 -0.448242188
vn 0.13671875 -0.883300781 0.448242188
vn -0.447265625 -0.883300781 -0.138549805
vn 0.13684082 -0.883300781 0.448242188
vn -0.447265625 -0.883300781 -0.138671875
vn -0.13684082 -0.883300781 0.448242188
vn -0.447265625 -0.883300781 0.138671875
vn -0.13671875 -0.883300781 0.448242188
vn -0.447265625 -0.883300781 0.138549805
vn 0.13684082 0.883300781 0.448242188
vn 0.447509766 0.883300781 0.138549805
vn 0.447509766 0.883300781 0.138549805
vn 0.13684082 0.883300781 0.448242188
vn 0.447509766 0.883300781 -0.138549805
vn -0.13684082 0.883300781 0.448242188
vn 0.447509766 0.883300781 -0.138549805
vn -0.13684082 0.883300781 0.448242188
vn 0.13671875 0.883300781 -0.448242188
vn -0.447509766 0.883300781 0.138671875
vn 0.13684082 0.883300781 -0.448242188
vn -0.447509766 0.883300781 0.138671875
vn -0.13671875 0.883300781 -0.448486328
vn -0.447509766 0.883300781 -0.138671875
vn -0.13671875 0.883300781 -0.448486328
vn -0.447509766 0.883300781 -0.138671875
vn -0.13684082 -0.883300781 0.448242188
vn -0.447265625 -0.883789062 0.138549805
vn -0.447265625 -0.883789062 0.138549805
vn -0.13671875 -0.883300781 0.448242188
vn -0.447265625 -0.883789062 -0.138549805
vn 0.13671875 -0.883300781 0.448242188
vn -0.447265625 -0.883789062 -0.138549805
vn 0.13671875 -0.883300781 0.448242188
vn -0.13671875 -0.883300781 -0.448242188
vn 0.447265625 -0.883300781 0.138549805
vn -0.13684082 -0.883300781 -0.448242188
vn 0.447265625 -0.883300781 0.138671875
vn 0.13684082 -0.883300781 -0.448242188
vn 0.447265625 -0.883300781 -0.138671875
vn 0.13671875 -0.883300781 -0.448242188
vn 0.447265625 -0.883300781 -0.138549805
vn -0.13684082 0.883300781 -0.448242188
vn -0.447509766 0.883300781 -0.138549805
vn -0.447509766 0.883300781 -0.138549805
vn -0.13684082 0.883300781 -0.448242188
vn -0.447509766 0.883300781 0.138549805
vn 0.13684082 0.883300781 -0.448242188
vn -0.447509766 0.883300781 0.138549805
vn 0.13684082 0.883300781 -0.448242188
vn -0.13671875 0.883300781 0.448242188
vn 0.447509766 0.883300781 -0.138671875
vn -0.13684082 0.883300781 0.448242188
vn 0.447509766 0.883300781 -0.138671875
vn 0.13671875 0.883300781 0.448486328
vn 0.447509766 0.883300781 0.138671875
vn 0.13671875 0.883300781 0.448486328
vn 0.447509766 0.883300781 0.138671875
g RobotArea_Door_0
f 3/3/3 2/2/2 1/1/1
f 6/6/6 5/5/5 4/4/4
f 9/9/9 8/8/8 7/7/7
f 12/12/12 11/11/11 10/10/10
f 15/15/15 14/14/14 13/13/13
f 18/18/18 17/17/17 16/16/16
f 21/21/21 20/20/20 19/19/19
f 24/24/24 23/23/23 22/22/22
f 27/27/27 26/26/26 25/25/25
f 30/30/30 29/29/29 28/28/28
f 33/33/33 32/32/32 31/31/31
f 36/36/36 35/35/35 34/34/34
f 39/39/39 38/38/38 37/37/37
f 42/42/42 41/41/41 40/40/40
f 45/45/45 44/44/44 43/43/43
f 48/48/48 47/47/47 46/46/46
f 51/51/51 50/50/50 49/49/49
f 52/52/52 51/51/51 49/49/49
f 52/52/52 49/49/49 53/53/53
f 54/54/54 52/52/52 53/53/53
f 53/53/53 55/55/55 54/54/54
f 55/55/55 56/56/56 54/54/54
f 59/59/59 58/58/58 57/57/57
f 60/60/60 59/59/59 57/57/57
f 63/63/63 62/62/62 61/61/61
f 62/62/62 64/64/64 61/61/61
f 64/64/64 62/62/62 65/65/65
f 66/66/66 64/64/64 65/65/65
f 65/65/65 67/67/67 66/66/66
f 67/67/67 68/68/68 66/66/66
f 71/71/71 70/70/70 69/69/69
f 72/72/72 71/71/71 69/69/69
f 75/75/75 74/74/74 73/73/73
f 76/76/76 75/75/75 73/73/73
f 79/79/79 78/78/78 77/77/77
f 80/80/80 79/79/79 77/77/77
f 83/83/83 82/82/82 81/81/81
f 84/84/84 83/83/83 81/81/81
f 87/87/87 86/86/86 85/85/85
f 88/88/88 87/87/87 85/85/85
f 91/91/91 90/90/90 89/89/89
f 92/92/92 91/91/91 89/89/89
f 95/95/95 94/94/94 93/93/93
f 96/96/96 95/95/95 93/93/93
f 99/99/99 98/98/98 97/97/97
f 100/100/100 99/99/99 97/97/97
f 103/103/103 102/102/102 101/101/101
f 104/104/104 103/103/103 101/101/101
f 107/107/107 106/106/106 105/105/105
f 108/108/108 107/107/107 105/105/105
f 111/111/111 110/110/110 109/109/109
f 112/112/112 111/111/111 109/109/109
f 115/115/115 114/114/114 113/113/113
f 116/116/116 115/115/115 113/113/113
f 119/119/119 118/118/118 117/117/117
f 120/120/120 119/119/119 117/117/117
f 123/123/123 122/122/122 121/121/121
f 124/124/124 123/123/123 121/121/121
f 127/127/127 126/126/126 125/125/125
f 128/128/128 127/127/127 125/125/125
f 131/131/131 130/130/130 129/129/129
f 132/132/132 131/131/131 129/129/129
f 135/135/135 134/134/134 133/133/133
f 136/136/136 135/135/135 133/133/133
f 139/139/139 138/138/138 137/137/137
f 140/140/140 139/139/139 137/137/137
f 143/143/143 142/142/142 141/141/141
f 144/144/144 143/143/143 141/141/141
f 147/147/147 146/146/146 145/145/145
f 148/148/148 147/147/147 145/145/145
f 151/151/151 150/150/150 149/149/149
f 152/152/152 151/151/151 149/149/149
f 155/155/155 154/154/154 153/153/153
f 156/156/156 155/155/155 153/153/153
f 159/159/159 158/158/158 157/157/157
f 160/160/160 159/159/159 157/157/157
f 163/163/163 162/162/162 161/161/161
f 164/164/164 163/163/163 161/161/161
f 167/167/167 166/166/166 165/165/165
f 168/168/168 167/167/167 165/165/165
f 171/171/171 170/170/170 169/169/169
f 172/172/172 171/171/171 169/169/169
f 175/175/175 174/174/174 173/173/173
f 176/176/176 175/175/175 173/173/173
f 179/179/179 178/178/178 177/177/177
f 180/180/180 179/179/179 177/177/177
f 183/183/183 182/182/182 181/181/181
f 184/184/184 183/183/183 181/181/181
f 187/187/187 186/186/186 185/185/185
f 188/188/188 187/187/187 185/185/185
f 191/191/191 190/190/190 189/189/189
f 192/192/192 191/191/191 189/189/189
f 195/195/195 194/194/194 193/193/193
f 196/196/196 195/195/195 193/193/193
f 199/199/199 198/198/198 197/197/197
f 200/200/200 199/199/199 197/197/197
f 203/203/203 202/202/202 201/201/201
f 204/204/204 203/203/203 201/201/201
f 207/207/207 206/206/206 205/205/205
f 208/208/208 207/207/207 205/205/205
f 211/211/211 210/210/210 209/209/209
f 212/212/212 211/211/211 209/209/209
f 215/215/215 214/214/214 213/213/213
f 216/216/216 215/215/215 213/213/213
f 219/219/219 218/218/218 217/217/217
f 220/220/220 219/219/219 217/217/217
f 223/223/223 222/222/222 221/221/221
f 224/224/224 223/223/223 221/221/221
f 227/227/227 226/226/226 225/225/225
f 228/228/228 227/227/227 225/225/225
f 231/231/231 230/230/230 229/229/229
f 232/232/232 231/231/231 229/229/229
f 235/235/235 234/234/234 233/233/233
f 236/236/236 235/235/235 233/233/233
f 239/239/239 238/238/238 237/237/237
f 240/240/240 239/239/239 237/237/237
f 243/243/243 242/242/242 241/241/241
f 244/244/244 243/243/243 241/241/241
f 247/247/247 246/246/246 245/245/245
f 248/248/248 247/247/247 245/245/245
f 251/251/251 250/250/250 249/249/249
f 252/252/252 251/251/251 249/249/249
f 255/255/255 254/254/254 253/253/253
f 256/256/256 255/255/255 253/253/253
f 259/259/259 258/258/258 257/257/257
f 260/260/260 259/259/259 257/257/257
f 263/263/263 262/262/262 261/261/261
f 264/264/264 263/263/263 261/261/261
f 267/267/267 266/266/266 265/265/265
f 268/268/268 267/267/267 265/265/265
f 271/271/271 270/270/270 269/269/269
f 272/272/272 271/271/271 269/269/269
f 275/275/275 274/274/274 273/273/273
f 276/276/276 275/275/275 273/273/273
f 279/279/279 278/278/278 277/277/277
f 280/280/280 279/279/279 277/277/277
f 283/283/283 282/282/282 281/281/281
f 284/284/284 283/283/283 281/281/281
f 287/287/287 286/286/286 285/285/285
f 288/288/288 287/287/287 285/285/285
f 291/291/291 290/290/290 289/289/289
f 292/292/292 291/291/291 289/289/289
f 295/295/295 294/294/294 293/293/293
f 296/296/296 295/295/295 293/293/293
f 299/299/299 298/298/298 297/297/297
f 300/300/300 299/299/299 297/297/297
f 303/303/303 302/302/302 301/301/301
f 304/304/304 303/303/303 301/301/301
f 307/307/307 306/306/306 305/305/305
f 308/308/308 307/307/307 305/305/305
f 311/311/311 310/310/310 309/309/309
f 312/312/312 311/311/311 309/309/309
f 315/315/315 314/314/314 313/313/313
f 316/316/316 315/315/315 313/313/313
f 319/319/319 318/318/318 317/317/317
f 320/320/320 319/319/319 317/317/317
f 323/323/323 322/322/322 321/321/321
f 324/324/324 323/323/323 321/321/321
f 327/327/327 326/326/326 325/325/325
f 328/328/328 327/327/327 325/325/325
f 331/331/331 330/330/330 329/329/329
f 332/332/332 331/331/331 329/329/329
f 335/335/335 334/334/334 333/333/333
f 336/336/336 335/335/335 333/333/333
f 339/339/339 338/338/338 337/337/337
f 340/340/340 339/339/339 337/337/337
f 343/343/343 342/342/342 341/341/341
f 344/344/344 343/343/343 341/341/341
f 347/347/347 346/346/346 345/345/345
f 348/348/348 347/347/347 345/345/345
f 351/351/351 350/350/350 349/349/349
f 352/352/352 351/351/351 349/349/349
f 355/355/355 354/354/354 353/353/353
f 356/356/356 355/355/355 353/353/353
f 359/359/359 358/358/358 357/357/357
f 360/360/360 359/359/359 357/357/357
f 363/363/363 362/362/362 361/361/361
f 364/364/364 363/363/363 361/361/361
f 364/364/364 361/361/361 365/365/365
f 361/361/361 366/366/366 365/365/365
f 365/365/365 366/366/366 367/367/367
f 366/366/366 368/368/368 367/367/367
f 367/367/367 368/368/368 369/369/369
f 368/368/368 370/370/370 369/369/369
f 369/369/369 370/370/370 371/371/371
f 370/370/370 372/372/372 371/371/371
f 375/375/375 374/374/374 373/373/373
f 376/376/376 375/375/375 373/373/373
f 377/377/377 375/375/375 376/376/376
f 378/378/378 377/377/377 376/376/376
f 379/379/379 377/377/377 378/378/378
f 380/380/380 379/379/379 378/378/378
f 381/381/381 379/379/379 380/380/380
f 382/382/382 381/381/381 380/380/380
f 382/382/382 383/383/383 381/381/381
f 383/383/383 384/384/384 381/381/381
f 387/387/387 386/386/386 385/385/385
f 388/388/388 387/387/387 385/385/385
f 391/391/391 390/390/390 389/389/389
f 392/392/392 391/391/391 389/389/389
f 395/395/395 394/394/394 393/393/393
f 396/396/396 395/395/395 393/393/393
f 396/396/396 393/393/393 397/397/397
f 393/393/393 398/398/398 397/397/397
f 397/397/397 398/398/398 399/399/399
f 398/398/398 400/400/400 399/399/399
f 399/399/399 400/400/400 401/401/401
f 400/400/400 402/402/402 401/401/401
f 401/401/401 402/402/402 403/403/403
f 402/402/402 404/404/404 403/403/403
f 407/407/407 406/406/406 405/405/405
f 408/408/408 407/407/407 405/405/405
f 409/409/409 407/407/407 408/408/408
f 410/410/410 409/409/409 408/408/408
f 411/411/411 409/409/409 410/410/410
f 412/412/412 411/411/411 410/410/410
f 413/413/413 411/411/411 412/412/412
f 414/414/414 413/413/413 412/412/412
f 414/414/414 415/415/415 413/413/413
f 415/415/415 416/416/416 413/413/413
f 419/419/419 418/418/418 417/417/417
f 420/420/420 419/419/419 417/417/417
f 423/423/423 422/422/422 421/421/421
f 424/424/424 423/423/423 421/421/421
f 427/427/427 426/426/426 425/425/425
f 428/428/428 427/427/427 425/425/425
f 431/431/431 430/430/430 429/429/429
f 432/432/432 431/431/431 429/429/429
f 435/435/435 434/434/434 433/433/433
f 436/436/436 435/435/435 433/433/433
f 439/439/439 438/438/438 437/437/437
f 440/440/440 439/439/439 437/437/437
f 443/443/443 442/442/442 441/441/441
f 444/444/444 443/443/443 441/441/441
f 447/447/447 446/446/446 445/445/445
f 448/448/448 447/447/447 445/445/445
f 451/451/451 450/450/450 449/449/449
f 452/452/452 451/451/451 449/449/449
f 455/455/455 454/454/454 453/453/453
f 456/456/456 455/455/455 453/453/453
f 459/459/459 458/458/458 457/457/457
f 460/460/460 459/459/459 457/457/457
f 463/463/463 462/462/462 461/461/461
f 464/464/464 463/463/463 461/461/461
f 467/467/467 466/466/466 465/465/465
f 468/468/468 467/467/467 465/465/465
f 471/471/471 470/470/470 469/469/469
f 472/472/472 471/471/471 469/469/469
f 475/475/475 474/474/474 473/473/473
f 476/476/476 475/475/475 473/473/473
f 479/479/479 478/478/478 477/477/477
f 480/480/480 479/479/479 477/477/477
f 483/483/483 482/482/482 481/481/481
f 484/484/484 483/483/483 481/481/481
f 487/487/487 486/486/486 485/485/485
f 488/488/488 487/487/487 485/485/485
f 491/491/491 490/490/490 489/489/489
f 492/492/492 491/491/491 489/489/489
f 495/495/495 494/494/494 493/493/493
f 496/496/496 495/495/495 493/493/493
f 499/499/499 498/498/498 497/497/497
f 500/500/500 499/499/499 497/497/497
f 503/503/503 502/502/502 501/501/501
f 504/504/504 503/503/503 501/501/501
f 507/507/507 506/506/506 505/505/505
f 508/508/508 507/507/507 505/505/505
f 511/511/511 510/510/510 509/509/509
f 512/512/512 511/511/511 509/509/509
f 515/515/515 514/514/514 513/513/513
f 516/516/516 515/515/515 513/513/513
f 519/519/519 518/518/518 517/517/517
f 520/520/520 519/519/519 517/517/517
f 523/523/523 522/522/522 521/521/521
f 524/524/524 523/523/523 521/521/521
f 527/527/527 526/526/526 525/525/525
f 528/528/528 527/527/527 525/525/525
f 531/531/531 530/530/530 529/529/529
f 532/532/532 531/531/531 529/529/529
f 535/535/535 534/534/534 533/533/533
f 536/536/536 535/535/535 533/533/533
f 539/539/539 538/538/538 537/537/537
f 540/540/540 539/539/539 537/537/537
f 543/543/543 542/542/542 541/541/541
f 544/544/544 543/543/543 541/541/541
f 547/547/547 546/546/546 545/545/545
f 548/548/548 547/547/547 545/545/545
f 551/551/551 550/550/550 549/549/549
f 552/552/552 551/551/551 549/549/549
f 555/555/555 554/554/554 553/553/553
f 556/556/556 555/555/555 553/553/553
f 559/559/559 558/558/558 557/557/557
f 560/560/560 559/559/559 557/557/557
f 563/563/563 562/562/562 561/561/561
f 562/562/562 564/564/564 561/561/561
f 565/565/565 564/564/564 562/562/562
f 566/566/566 565/565/565 562/562/562
f 569/569/569 568/568/568 567/567/567
f 570/570/570 569/569/569 567/567/567
f 573/573/573 572/572/572 571/571/571
f 574/574/574 573/573/573 571/571/571
f 577/577/577 576/576/576 575/575/575
f 578/578/578 577/577/577 575/575/575
f 579/579/579 578/578/578 575/575/575
f 580/580/580 579/579/579 575/575/575
f 583/583/583 582/582/582 581/581/581
f 584/584/584 583/583/583 581/581/581
f 587/587/587 586/586/586 585/585/585
f 588/588/588 587/587/587 585/585/585
f 591/591/591 590/590/590 589/589/589
f 592/592/592 591/591/591 589/589/589
f 595/595/595 594/594/594 593/593/593
f 596/596/596 595/595/595 593/593/593
f 599/599/599 598/598/598 597/597/597
f 600/600/600 599/599/599 597/597/597
f 603/603/603 602/602/602 601/601/601
f 604/604/604 603/603/603 601/601/601
f 607/607/607 606/606/606 605/605/605
f 608/608/608 607/607/607 605/605/605
f 611/611/611 610/610/610 609/609/609
f 612/612/612 611/611/611 609/609/609
f 615/615/615 614/614/614 613/613/613
f 616/616/616 615/615/615 613/613/613
f 619/619/619 618/618/618 617/617/617
f 620/620/620 619/619/619 617/617/617
f 623/623/623 622/622/622 621/621/621
f 622/622/622 624/624/624 621/621/621
f 625/625/625 624/624/624 622/622/622
f 626/626/626 625/625/625 622/622/622
f 629/629/629 628/628/628 627/627/627
f 630/630/630 629/629/629 627/627/627
f 633/633/633 632/632/632 631/631/631
f 632/632/632 634/634/634 631/631/631
f 634/634/634 632/632/632 635/635/635
f 632/632/632 636/636/636 635/635/635
f 639/639/639 638/638/638 637/637/637
f 640/640/640 639/639/639 637/637/637
f 643/643/643 642/642/642 641/641/641
f 644/644/644 643/643/643 641/641/641
f 647/647/647 646/646/646 645/645/645
f 648/648/648 647/647/647 645/645/645
f 651/651/651 650/650/650 649/649/649
f 652/652/652 651/651/651 649/649/649
f 655/655/655 654/654/654 653/653/653
f 656/656/656 655/655/655 653/653/653
f 659/659/659 658/658/658 657/657/657
f 660/660/660 659/659/659 657/657/657
f 663/663/663 662/662/662 661/661/661
f 664/664/664 663/663/663 661/661/661
f 667/667/667 666/666/666 665/665/665
f 668/668/668 667/667/667 665/665/665
f 671/671/671 670/670/670 669/669/669
f 672/672/672 671/671/671 669/669/669
f 675/675/675 674/674/674 673/673/673
f 676/676/676 675/675/675 673/673/673
f 679/679/679 678/678/678 677/677/677
f 680/680/680 679/679/679 677/677/677
f 683/683/683 682/682/682 681/681/681
f 684/684/684 683/683/683 681/681/681
f 687/687/687 686/686/686 685/685/685
f 688/688/688 687/687/687 685/685/685
f 691/691/691 690/690/690 689/689/689
f 692/692/692 691/691/691 689/689/689
f 695/695/695 694/694/694 693/693/693
f 696/696/696 695/695/695 693/693/693
f 699/699/699 698/698/698 697/697/697
f 700/700/700 699/699/699 697/697/697
f 703/703/703 702/702/702 701/701/701
f 704/704/704 703/703/703 701/701/701
f 707/707/707 706/706/706 705/705/705
f 708/708/708 707/707/707 705/705/705
f 711/711/711 710/710/710 709/709/709
f 712/712/712 711/711/711 709/709/709
f 715/715/715 714/714/714 713/713/713
f 716/716/716 715/715/715 713/713/713
f 719/719/719 718/718/718 717/717/717
f 720/720/720 719/719/719 717/717/717
f 723/723/723 722/722/722 721/721/721
f 724/724/724 723/723/723 721/721/721
f 727/727/727 726/726/726 725/725/725
f 728/728/728 727/727/727 725/725/725
f 731/731/731 730/730/730 729/729/729
f 732/732/732 731/731/731 729/729/729
f 735/735/735 734/734/734 733/733/733
f 736/736/736 735/735/735 733/733/733
f 739/739/739 738/738/738 737/737/737
f 740/740/740 739/739/739 737/737/737
f 743/743/743 742/742/742 741/741/741
f 744/744/744 743/743/743 741/741/741
f 747/747/747 746/746/746 745/745/745
f 748/748/748 747/747/747 745/745/745
f 751/751/751 750/750/750 749/749/749
f 752/752/752 751/751/751 749/749/749
f 755/755/755 754/754/754 753/753/753
f 756/756/756 755/755/755 753/753/753
f 759/759/759 758/758/758 757/757/757
f 760/760/760 759/759/759 757/757/757
f 763/763/763 762/762/762 761/761/761
f 764/764/764 763/763/763 761/761/761
f 767/767/767 766/766/766 765/765/765
f 768/768/768 767/767/767 765/765/765
f 771/771/771 770/770/770 769/769/769
f 772/772/772 771/771/771 769/769/769
f 775/775/775 774/774/774 773/773/773
f 776/776/776 775/775/775 773/773/773
f 779/779/779 778/778/778 777/777/777
f 777/777/777 778/778/778 780/780/780
f 781/781/781 778/778/778 779/779/779
f 780/780/780 778/778/778 782/782/782
f 783/783/783 778/778/778 781/781/781
f 782/782/782 778/778/778 784/784/784
f 785/785/785 778/778/778 783/783/783
f 784/784/784 778/778/778 785/785/785
f 788/788/788 787/787/787 786/786/786
f 786/786/786 787/787/787 789/789/789
f 790/790/790 787/787/787 788/788/788
f 789/789/789 787/787/787 791/791/791
f 792/792/792 787/787/787 790/790/790
f 791/791/791 787/787/787 793/793/793
f 794/794/794 787/787/787 792/792/792
f 793/793/793 787/787/787 794/794/794
f 797/797/797 796/796/796 795/795/795
f 795/795/795 796/796/796 798/798/798
f 799/799/799 796/796/796 797/797/797
f 798/798/798 796/796/796 800/800/800
f 801/801/801 796/796/796 799/799/799
f 800/800/800 796/796/796 802/802/802
f 803/803/803 796/796/796 801/801/801
f 802/802/802 796/796/796 803/803/803
f 806/806/806 805/805/805 804/804/804
f 804/804/804 805/805/805 807/807/807
f 808/808/808 805/805/805 806/806/806
f 807/807/807 805/805/805 809/809/809
f 810/810/810 805/805/805 808/808/808
f 809/809/809 805/805/805 811/811/811
f 812/812/812 805/805/805 810/810/810
f 811/811/811 805/805/805 812/812/812
f 815/815/815 814/814/814 813/813/813
f 815/815/815 813/813/813 816/816/816
f 814/814/814 817/817/817 813/813/813
f 813/813/813 818/818/818 816/816/816
f 817/817/817 814/814/814 819/819/819
f 819/819/819 816/816/816 818/818/818
f 820/820/820 817/817/817 819/819/819
f 820/820/820 819/819/819 818/818/818
f 823/823/823 822/822/822 821/821/821
f 823/823/823 821/821/821 824/824/824
f 822/822/822 825/825/825 821/821/821
f 821/821/821 826/826/826 824/824/824
f 825/825/825 822/822/822 827/827/827
f 824/824/824 826/826/826 828/828/828
f 826/826/826 827/827/827 828/828/828
f 822/822/822 828/828/828 827/827/827
f 831/831/831 830/830/830 829/829/829
f 831/831/831 832/832/832 830/830/830
f 830/830/830 833/833/833 829/829/829
f 832/832/832 834/834/834 830/830/830
f 829/829/829 833/833/833 835/835/835
f 836/836/836 834/834/834 832/832/832
f 835/835/835 836/836/836 832/832/832
f 833/833/833 836/836/836 835/835/835
f 839/839/839 838/838/838 837/837/837
f 838/838/838 839/839/839 840/840/840
f 838/838/838 841/841/841 837/837/837
f 842/842/842 838/838/838 840/840/840
f 837/837/837 841/841/841 843/843/843
f 844/844/844 842/842/842 840/840/840
f 843/843/843 844/844/844 840/840/840
f 841/841/841 844/844/844 843/843/843
f 847/847/847 846/846/846 845/845/845
f 846/846/846 848/848/848 845/845/845
f 849/849/849 846/846/846 847/847/847
f 845/845/845 848/848/848 850/850/850
f 851/851/851 849/849/849 847/847/847
f 848/848/848 852/852/852 850/850/850
f 853/853/853 849/849/849 851/851/851
f 850/850/850 852/852/852 854/854/854
f 855/855/855 853/853/853 851/851/851
f 852/852/852 856/856/856 854/854/854
f 857/857/857 853/853/853 855/855/855
f 854/854/854 856/856/856 858/858/858
f 859/859/859 857/857/857 855/855/855
f 856/856/856 860/860/860 858/858/858
f 860/860/860 857/857/857 859/859/859
f 858/858/858 860/860/860 859/859/859
f 863/863/863 862/862/862 861/861/861
f 862/862/862 864/864/864 861/861/861
f 865/865/865 862/862/862 863/863/863
f 861/861/861 864/864/864 866/866/866
f 867/867/867 865/865/865 863/863/863
f 864/864/864 868/868/868 866/866/866
f 869/869/869 865/865/865 867/867/867
f 866/866/866 868/868/868 870/870/870
f 871/871/871 869/869/869 867/867/867
f 868/868/868 872/872/872 870/870/870
f 873/873/873 869/869/869 871/871/871
f 870/870/870 872/872/872 874/874/874
f 875/875/875 873/873/873 871/871/871
f 872/872/872 876/876/876 874/874/874
f 876/876/876 873/873/873 875/875/875
f 874/874/874 876/876/876 875/875/875
f 879/879/879 878/878/878 877/877/877
f 878/878/878 880/880/880 877/877/877
f 881/881/881 878/878/878 879/879/879
f 877/877/877 880/880/880 882/882/882
f 883/883/883 881/881/881 879/879/879
f 880/880/880 884/884/884 882/882/882
f 885/885/885 881/881/881 883/883/883
f 882/882/882 884/884/884 886/886/886
f 887/887/887 885/885/885 883/883/883
f 884/884/884 888/888/888 886/886/886
f 889/889/889 885/885/885 887/887/887
f 886/886/886 888/888/888 890/890/890
f 891/891/891 889/889/889 887/887/887
f 888/888/888 892/892/892 890/890/890
f 892/892/892 889/889/889 891/891/891
f 890/890/890 892/892/892 891/891/891
f 895/895/895 894/894/894 893/893/893
f 894/894/894 896/896/896 893/893/893
f 897/897/897 894/894/894 895/895/895
f 893/893/893 896/896/896 898/898/898
f 899/899/899 897/897/897 895/895/895
f 896/896/896 900/900/900 898/898/898
f 901/901/901 897/897/897 899/899/899
f 898/898/898 900/900/900 902/902/902
f 903/903/903 901/901/901 899/899/899
f 900/900/900 904/904/904 902/902/902
f 905/905/905 901/901/901 903/903/903
f 902/902/902 904/904/904 906/906/906
f 907/907/907 905/905/905 903/903/903
f 904/904/904 908/908/908 906/906/906
f 908/908/908 905/905/905 907/907/907
f 906/906/906 908/908/908 907/907/907
