g IS4_MDL_EscenarioGaraje_Furgoneta_Rueda_4
v 5.49316383E-07 -0.359999985 0.0100605236
v 0.179903865 -0.311769187 0.112230487
v 0.179999441 -0.311769187 0.0102298502
v -9.61303667E-05 -0.359999985 0.112061158
v -0.179999441 -0.311769038 0.00989105925
v -0.184265435 -0.311769038 0.111887299
v 0.179999441 -0.311769187 0.0102298502
v 0.179903865 -0.311769187 0.112230487
v 0.311672777 -0.180000126 0.11235477
v 0.311769456 -0.180000126 0.0103539955
v 0.359904945 -1.37329096E-07 0.112400085
v 0.360000521 -1.37329096E-07 0.0103995893
v 0.360000521 -1.37329096E-07 0.0103995893
v 0.359904945 -1.37329096E-07 0.112400085
v 0.31167388 0.179999858 0.112354495
v 0.311770558 0.179999858 0.0103541333
v 0.179904968 0.311769038 0.112230487
v 0.180000544 0.311769038 0.0102301249
v 0.180000544 0.311769038 0.0102301249
v 0.179904968 0.311769038 0.112230487
v -9.50317335E-05 0.359999985 0.112060882
v 5.49316383E-07 0.359999985 0.0100602489
v -0.184264332 0.311769247 0.111887299
v -0.179999441 0.311769187 0.00989092235
v -0.179999441 0.311769187 0.00989092235
v -0.184264332 0.311769247 0.111887299
v -0.311863929 0.180000201 0.111767411
v -0.311768353 0.180000201 0.00976677705
v -0.360096127 2.74658191E-07 0.111721955
v -0.359999448 1.37329096E-07 0.00972118322
v -0.359999448 1.37329096E-07 0.00972118322
v -0.360096127 2.74658191E-07 0.111721955
v -0.311865032 -0.179999724 0.111767001
v -0.311768353 -0.179999724 0.00976677705
v -0.184265435 -0.311769038 0.111887299
v -0.179999441 -0.311769038 0.00989105925
v 0.18009612 -0.311769307 -0.0917710587
v 5.49316383E-07 -0.359999985 0.0100605236
v 0.179999441 -0.311769187 0.0102298502
v 9.61303667E-05 -0.359999985 -0.091940254
v -0.179999441 -0.311769038 0.00989105925
v -0.179903865 -0.311769187 -0.0921097174
v 0.311865032 -0.180000126 -0.0916469172
v 0.18009612 -0.311769307 -0.0917710587
v 0.179999441 -0.311769187 0.0102298502
v 0.311769456 -0.180000126 0.0103539955
v 0.360096127 -1.37329096E-07 -0.0916011855
v 0.360000521 -1.37329096E-07 0.0103995893
v 0.311866134 0.179999858 -0.0916463658
v 0.360096127 -1.37329096E-07 -0.0916011855
v 0.360000521 -1.37329096E-07 0.0103995893
v 0.311770558 0.179999858 0.0103541333
v 0.180097222 0.311768979 -0.091770649
v 0.180000544 0.311769038 0.0102301249
v 9.72289999E-05 0.359999985 -0.0919399783
v 0.180097222 0.311768979 -0.091770649
v 0.180000544 0.311769038 0.0102301249
v 5.49316383E-07 0.359999985 0.0100602489
v -0.179903865 0.311769187 -0.0921098515
v -0.179999441 0.311769187 0.00989092235
v -0.311672777 0.180000126 -0.0922341347
v -0.179903865 0.311769187 -0.0921098515
v -0.179999441 0.311769187 0.00989092235
v -0.311768353 0.180000201 0.00976677705
v -0.359903842 1.37329096E-07 -0.0922795907
v -0.359999448 1.37329096E-07 0.00972118322
v -0.311672777 -0.179999858 -0.0922340006
v -0.359903842 1.37329096E-07 -0.0922795907
v -0.359999448 1.37329096E-07 0.00972118322
v -0.311768353 -0.179999724 0.00976677705
v -0.179903865 -0.311769187 -0.0921097174
v -0.179999441 -0.311769038 0.00989105925
v -0.000114807124 -0.215069994 0.132460982
v 0.103788383 -0.179931059 0.111188158
v 0.107419372 -0.186256155 0.132562056
v -9.50317335E-05 -0.207766294 0.111089967
v -0.107650079 -0.186256021 0.132359505
v -0.103977352 -0.179931328 0.110992461
v -0.186370417 -0.107534863 0.13228561
v -0.180025816 -0.10388232 0.110920914
v 0.107419372 -0.186256155 0.132562056
v 0.103788383 -0.179931059 0.111188158
v 0.179835752 -0.103883281 0.111259572
v 0.186139703 -0.107534997 0.132635936
v 0.207671806 -1.37329096E-07 0.111285798
v 0.214954644 0 0.132663131
v 0.214954644 0 0.132663131
v 0.207671806 -1.37329096E-07 0.111285798
v 0.179836839 0.103883073 0.111259706
v 0.186139703 0.107534997 0.132635802
v 0.103788383 0.179930985 0.111187883
v 0.107419372 0.186256155 0.132561922
v -9.39331003E-05 0.207766354 0.111090243
v 0.107419372 0.186256155 0.132561922
v -9.39331003E-05 0.207766354 0.111090243
v -0.000114807124 0.215070069 0.132460713
v -0.103977352 0.179931119 0.110992461
v -0.107650079 0.186256155 0.132359356
v -0.180024713 0.103883348 0.110920914
v -0.107650079 0.186256155 0.132359356
v -0.180024713 0.103883348 0.110920914
v -0.18637152 0.107535064 0.132285073
v -0.207859665 1.37329096E-07 0.110894822
v -0.215184256 1.37329096E-07 0.132258698
v -0.180025816 -0.10388232 0.110920914
v -0.186370417 -0.107534863 0.13228561
v -0.311672777 -0.179999858 -0.0922340006
v -0.179903865 -0.311769187 -0.0921097174
v 0.000146667473 0 -0.144677371
v -0.359903842 1.37329096E-07 -0.0922795907
v 9.61303667E-05 -0.359999985 -0.091940254
v -0.311672777 0.180000126 -0.0922341347
v 0.18009612 -0.311769307 -0.0917710587
v -0.179903865 0.311769187 -0.0921098515
v 0.311865032 -0.180000126 -0.0916469172
v 9.72289999E-05 0.359999985 -0.0919399783
v 0.360096127 -1.37329096E-07 -0.0916011855
v 0.180097222 0.311768979 -0.091770649
v 0.311866134 0.179999858 -0.0916463658
v -0.000129089356 -1.23596192E-06 0.144677371
v -0.103977352 -0.179931328 0.110992461
v -0.180025816 -0.10388232 0.110920914
v -0.207859665 1.37329096E-07 0.110894822
v -9.50317335E-05 -0.207766294 0.111089967
v -0.180024713 0.103883348 0.110920914
v 0.103788383 -0.179931059 0.111188158
v -0.103977352 0.179931119 0.110992461
v 0.179835752 -0.103883281 0.111259572
v -9.39331003E-05 0.207766354 0.111090243
v 0.207671806 -1.37329096E-07 0.111285798
v 0.103788383 0.179930985 0.111187883
v 0.179836839 0.103883073 0.111259706
v -0.184265435 -0.311769038 0.111887299
v -0.311865032 -0.179999724 0.111767001
v -0.186370417 -0.107534863 0.13228561
v -0.107650079 -0.186256021 0.132359505
v -0.215184256 1.37329096E-07 0.132258698
v -9.61303667E-05 -0.359999985 0.112061158
v -0.360096127 2.74658191E-07 0.111721955
v -0.000114807124 -0.215069994 0.132460982
v -0.18637152 0.107535064 0.132285073
v 0.179903865 -0.311769187 0.112230487
v -0.311863929 0.180000201 0.111767411
v 0.107419372 -0.186256155 0.132562056
v -0.107650079 0.186256155 0.132359356
v 0.311672777 -0.180000126 0.11235477
v -0.184264332 0.311769247 0.111887299
v 0.186139703 -0.107534997 0.132635936
v -0.000114807124 0.215070069 0.132460713
v 0.359904945 -1.37329096E-07 0.112400085
v -9.50317335E-05 0.359999985 0.112060882
v 0.214954644 0 0.132663131
v 0.107419372 0.186256155 0.132561922
v 0.31167388 0.179999858 0.112354495
v 0.179904968 0.311769038 0.112230487
v 0.186139703 0.107534997 0.132635802
vt 0.362304688 0.0677490234
vt 0.355224609 0.0834350586
vt 0.362304688 0.0853881836
vt 0.35546875 0.0693359375
vt 0.354248047 0.0520019531
vt 0.348388672 0.0567932129
vt 0.362304688 0.0853881836
vt 0.355224609 0.0834350586
vt 0.347900391 0.0954589844
vt 0.353271484 0.100708008
vt 0.3359375 0.102294922
vt 0.337890625 0.10949707
vt 0.337890625 0.10949707
vt 0.3359375 0.102294922
vt 0.321777344 0.102172852
vt 0.320068359 0.109375
vt 0.309814453 0.0950317383
vt 0.304443359 0.100402832
vt 0.304443359 0.100402832
vt 0.309814453 0.0950317383
vt 0.302734375 0.082824707
vt 0.295654297 0.0848388672
vt 0.302978516 0.0684204102
vt 0.295654297 0.0668945312
vt 0.295654297 0.0668945312
vt 0.302978516 0.0684204102
vt 0.310058594 0.0565490723
vt 0.3046875 0.0513305664
vt 0.322509766 0.0495910645
vt 0.320556641 0.0424194336
vt 0.320556641 0.0424194336
vt 0.322509766 0.0495910645
vt 0.336425781 0.0499572754
vt 0.338623047 0.0423583984
vt 0.348388672 0.0567932129
vt 0.354248047 0.0520019531
vt 0.348144531 0.0566101074
vt 0.362548828 0.0669555664
vt 0.353515625 0.0514221191
vt 0.355224609 0.0687866211
vt 0.362548828 0.0848999023
vt 0.355224609 0.082824707
vt 0.3359375 0.049621582
vt 0.348144531 0.0566101074
vt 0.353515625 0.0514221191
vt 0.337890625 0.0424804688
vt 0.321777344 0.0496826172
vt 0.320068359 0.0424804688
vt 0.309814453 0.0567626953
vt 0.321777344 0.0496826172
vt 0.320068359 0.0424804688
vt 0.304443359 0.0514221191
vt 0.302734375 0.0689697266
vt 0.295654297 0.0669555664
vt 0.302734375 0.0830688477
vt 0.302734375 0.0689697266
vt 0.295654297 0.0669555664
vt 0.295654297 0.0848999023
vt 0.309814453 0.0952148438
vt 0.304443359 0.100402832
vt 0.322021484 0.102172852
vt 0.309814453 0.0952148438
vt 0.304443359 0.100402832
vt 0.320068359 0.109375
vt 0.336181641 0.102172852
vt 0.337890625 0.109375
vt 0.348388672 0.0950927734
vt 0.336181641 0.102172852
vt 0.337890625 0.109375
vt 0.353515625 0.100402832
vt 0.355224609 0.082824707
vt 0.362548828 0.0848999023
vt 0.344726562 0.0720825195
vt 0.344482422 0.0803222656
vt 0.344482422 0.0803222656
vt 0.344726562 0.0720825195
vt 0.340576172 0.0648193359
vt 0.340576172 0.0648193359
vt 0.333496094 0.0606079102
vt 0.333496094 0.0606079102
vt 0.344482422 0.0803222656
vt 0.344482422 0.0803222656
vt 0.340332031 0.0874633789
vt 0.340332031 0.0874633789
vt 0.333007812 0.0914916992
vt 0.333007812 0.0914916992
vt 0.333007812 0.0914916992
vt 0.333007812 0.0914916992
vt 0.324707031 0.0914306641
vt 0.324707031 0.0914306641
vt 0.317626953 0.0871582031
vt 0.317626953 0.0871582031
vt 0.313476562 0.0799560547
vt 0.317626953 0.0871582031
vt 0.313476562 0.0799560547
vt 0.313476562 0.0799560547
vt 0.313720703 0.0716552734
vt 0.313720703 0.0716552734
vt 0.317871094 0.0645141602
vt 0.313720703 0.0716552734
vt 0.317871094 0.0645141602
vt 0.317871094 0.0645141602
vt 0.325195312 0.0604553223
vt 0.325195312 0.0604553223
vt 0.333496094 0.0606079102
vt 0.333496094 0.0606079102
vt 0.348388672 0.0950927734
vt 0.355224609 0.082824707
vt 0.329101562 0.0759277344
vt 0.336181641 0.102172852
vt 0.355224609 0.0687866211
vt 0.322021484 0.102172852
vt 0.348144531 0.0566101074
vt 0.309814453 0.0952148438
vt 0.3359375 0.049621582
vt 0.302734375 0.0830688477
vt 0.321777344 0.0496826172
vt 0.302734375 0.0689697266
vt 0.309814453 0.0567626953
vt 0.965332031 0.0341186523
vt 0.987792969 0.0113143921
vt 0.973632812 0.00306129456
vt 0.95703125 0.00305747986
vt 0.996582031 0.0256958008
vt 0.942382812 0.0114974976
vt 0.996582031 0.0423278809
vt 0.934082031 0.0260467529
vt 0.98828125 0.0567932129
vt 0.934082031 0.0427246094
vt 0.973632812 0.0651855469
vt 0.942871094 0.0570983887
vt 0.95703125 0.0653076172
vt 0.348388672 0.0567932129
vt 0.336425781 0.0499572754
vt 0.333496094 0.0606079102
vt 0.340576172 0.0648193359
vt 0.325195312 0.0604553223
vt 0.35546875 0.0693359375
vt 0.322509766 0.0495910645
vt 0.344726562 0.0720825195
vt 0.317871094 0.0645141602
vt 0.355224609 0.0834350586
vt 0.310058594 0.0565490723
vt 0.344482422 0.0803222656
vt 0.313720703 0.0716552734
vt 0.347900391 0.0954589844
vt 0.302978516 0.0684204102
vt 0.340332031 0.0874633789
vt 0.313476562 0.0799560547
vt 0.3359375 0.102294922
vt 0.302734375 0.082824707
vt 0.333007812 0.0914916992
vt 0.317626953 0.0871582031
vt 0.321777344 0.102172852
vt 0.309814453 0.0950317383
vt 0.324707031 0.0914306641
vn -4.76837158E-07 -1 1.78813934E-07
vn 0.352783203 -0.612304688 0.707519531
vn 0.5 -0.866210938 0.000471115112
vn -0.00066614151 -0.70703125 0.70703125
vn -0.5 -0.866210938 -0.000470638275
vn -0.354248047 -0.612304688 0.706542969
vn 0.5 -0.866210938 0.000471115112
vn 0.352783203 -0.612304688 0.707519531
vn 0.611816406 -0.353515625 0.707519531
vn 0.866210938 -0.5 0.000815868378
vn 0.706542969 -3.57627869E-07 0.708007812
vn 1 -5.96046448E-07 0.000941753387
vn 1 -5.96046448E-07 0.000941753387
vn 0.706542969 -3.57627869E-07 0.708007812
vn 0.611816406 0.353515625 0.707519531
vn 0.866210938 0.5 0.000815391541
vn 0.352783203 0.612304688 0.707519531
vn 0.5 0.866210938 0.000470876694
vn 0.5 0.866210938 0.000470876694
vn 0.352783203 0.612304688 0.707519531
vn -0.000665664673 0.70703125 0.70703125
vn 3.57627869E-07 1 -1.78813934E-07
vn -0.354248047 0.612304688 0.706542969
vn -0.5 0.866210938 -0.000471115112
vn -0.5 0.866210938 -0.000471115112
vn -0.354248047 0.612304688 0.706542969
vn -0.61328125 0.353515625 0.706542969
vn -0.866210938 0.5 -0.000815868378
vn -0.708007812 4.76837158E-07 0.706542969
vn -1 4.17232513E-07 -0.000941753387
vn -1 4.17232513E-07 -0.000941753387
vn -0.708007812 4.76837158E-07 0.706542969
vn -0.61328125 -0.353515625 0.706542969
vn -0.866210938 -0.5 -0.000815391541
vn -0.354248047 -0.612304688 0.706542969
vn -0.5 -0.866210938 -0.000470638275
vn 0.354248047 -0.612304688 -0.706542969
vn -4.76837158E-07 -1 1.78813934E-07
vn 0.5 -0.866210938 0.000471115112
vn 0.000665664673 -0.70703125 -0.70703125
vn -0.5 -0.866210938 -0.000470638275
vn -0.352783203 -0.612304688 -0.707519531
vn 0.61328125 -0.353515625 -0.706542969
vn 0.354248047 -0.612304688 -0.706542969
vn 0.5 -0.866210938 0.000471115112
vn 0.866210938 -0.5 0.000815868378
vn 0.708007812 -6.55651093E-07 -0.706542969
vn 1 -5.96046448E-07 0.000941753387
vn 0.61328125 0.353515625 -0.706542969
vn 0.708007812 -6.55651093E-07 -0.706542969
vn 1 -5.96046448E-07 0.000941753387
vn 0.866210938 0.5 0.000815391541
vn 0.354248047 0.612304688 -0.706542969
vn 0.5 0.866210938 0.000470876694
vn 0.00066614151 0.70703125 -0.70703125
vn 0.354248047 0.612304688 -0.706542969
vn 0.5 0.866210938 0.000470876694
vn 3.57627869E-07 1 -1.78813934E-07
vn -0.352783203 0.612304688 -0.707519531
vn -0.5 0.866210938 -0.000471115112
vn -0.611816406 0.353515625 -0.707519531
vn -0.352783203 0.612304688 -0.707519531
vn -0.5 0.866210938 -0.000471115112
vn -0.866210938 0.5 -0.000815868378
vn -0.706542969 2.98023224E-07 -0.708007812
vn -1 4.17232513E-07 -0.000941753387
vn -0.611816406 -0.353515625 -0.707519531
vn -0.706542969 2.98023224E-07 -0.708007812
vn -1 4.17232513E-07 -0.000941753387
vn -0.866210938 -0.5 -0.000815391541
vn -0.352783203 -0.612304688 -0.707519531
vn -0.5 -0.866210938 -0.000470638275
vn -0.000923633575 -0.195068359 0.980957031
vn 0.0966186523 -0.168945312 0.980957031
vn 0.0966186523 -0.168945312 0.980957031
vn -0.000923633575 -0.195068359 0.980957031
vn -0.098449707 -0.168945312 0.98046875
vn -0.098449707 -0.168945312 0.98046875
vn -0.169799805 -0.0975341797 0.98046875
vn -0.169799805 -0.0975341797 0.98046875
vn 0.0966186523 -0.168945312 0.980957031
vn 0.0966186523 -0.168945312 0.980957031
vn 0.16796875 -0.0975341797 0.980957031
vn 0.16796875 -0.0975341797 0.980957031
vn 0.194091797 0 0.980957031
vn 0.194091797 0 0.980957031
vn 0.194091797 0 0.980957031
vn 0.194091797 0 0.980957031
vn 0.16796875 0.0975341797 0.980957031
vn 0.16796875 0.0975341797 0.980957031
vn 0.0966186523 0.168945312 0.980957031
vn 0.0966186523 0.168945312 0.980957031
vn -0.000923633575 0.195068359 0.980957031
vn 0.0966186523 0.168945312 0.980957031
vn -0.000923633575 0.195068359 0.980957031
vn -0.000923633575 0.195068359 0.980957031
vn -0.098449707 0.168945312 0.98046875
vn -0.098449707 0.168945312 0.98046875
vn -0.169799805 0.0975341797 0.98046875
vn -0.098449707 0.168945312 0.98046875
vn -0.169799805 0.0975341797 0.98046875
vn -0.169799805 0.0975341797 0.98046875
vn -0.195922852 2.38418579E-07 0.98046875
vn -0.195922852 2.38418579E-07 0.98046875
vn -0.169799805 -0.0975341797 0.98046875
vn -0.169799805 -0.0975341797 0.98046875
vn -0.611816406 -0.353515625 -0.707519531
vn -0.352783203 -0.612304688 -0.707519531
vn 0.000941753387 -1.78813934E-07 -1
vn -0.706542969 2.98023224E-07 -0.708007812
vn 0.000665664673 -0.70703125 -0.70703125
vn -0.611816406 0.353515625 -0.707519531
vn 0.354248047 -0.612304688 -0.706542969
vn -0.352783203 0.612304688 -0.707519531
vn 0.61328125 -0.353515625 -0.706542969
vn 0.00066614151 0.70703125 -0.70703125
vn 0.708007812 -6.55651093E-07 -0.706542969
vn 0.354248047 0.612304688 -0.706542969
vn 0.61328125 0.353515625 -0.706542969
vn -0.000941753387 1.78813934E-07 1
vn -0.098449707 -0.168945312 0.98046875
vn -0.169799805 -0.0975341797 0.98046875
vn -0.195922852 2.38418579E-07 0.98046875
vn -0.000923633575 -0.195068359 0.980957031
vn -0.169799805 0.0975341797 0.98046875
vn 0.0966186523 -0.168945312 0.980957031
vn -0.098449707 0.168945312 0.98046875
vn 0.16796875 -0.0975341797 0.980957031
vn -0.000923633575 0.195068359 0.980957031
vn 0.194091797 0 0.980957031
vn 0.0966186523 0.168945312 0.980957031
vn 0.16796875 0.0975341797 0.980957031
vn -0.354248047 -0.612304688 0.706542969
vn -0.61328125 -0.353515625 0.706542969
vn -0.169799805 -0.0975341797 0.98046875
vn -0.098449707 -0.168945312 0.98046875
vn -0.195922852 2.38418579E-07 0.98046875
vn -0.00066614151 -0.70703125 0.70703125
vn -0.708007812 4.76837158E-07 0.706542969
vn -0.000923633575 -0.195068359 0.980957031
vn -0.169799805 0.0975341797 0.98046875
vn 0.352783203 -0.612304688 0.707519531
vn -0.61328125 0.353515625 0.706542969
vn 0.0966186523 -0.168945312 0.980957031
vn -0.098449707 0.168945312 0.98046875
vn 0.611816406 -0.353515625 0.707519531
vn -0.354248047 0.612304688 0.706542969
vn 0.16796875 -0.0975341797 0.980957031
vn -0.000923633575 0.195068359 0.980957031
vn 0.706542969 -3.57627869E-07 0.708007812
vn -0.000665664673 0.70703125 0.70703125
vn 0.194091797 0 0.980957031
vn 0.0966186523 0.168945312 0.980957031
vn 0.611816406 0.353515625 0.707519531
vn 0.352783203 0.612304688 0.707519531
vn 0.16796875 0.0975341797 0.980957031
g IS4_MDL_EscenarioGaraje_Furgoneta_Rueda_4_0
f 3/3/3 2/2/2 1/1/1
f 2/2/2 4/4/4 1/1/1
f 1/1/1 4/4/4 5/5/5
f 4/4/4 6/6/6 5/5/5
f 9/9/9 8/8/8 7/7/7
f 10/10/10 9/9/9 7/7/7
f 11/11/11 9/9/9 10/10/10
f 12/12/12 11/11/11 10/10/10
f 15/15/15 14/14/14 13/13/13
f 16/16/16 15/15/15 13/13/13
f 17/17/17 15/15/15 16/16/16
f 18/18/18 17/17/17 16/16/16
f 21/21/21 20/20/20 19/19/19
f 22/22/22 21/21/21 19/19/19
f 23/23/23 21/21/21 22/22/22
f 24/24/24 23/23/23 22/22/22
f 27/27/27 26/26/26 25/25/25
f 28/28/28 27/27/27 25/25/25
f 29/29/29 27/27/27 28/28/28
f 30/30/30 29/29/29 28/28/28
f 33/33/33 32/32/32 31/31/31
f 34/34/34 33/33/33 31/31/31
f 35/35/35 33/33/33 34/34/34
f 36/36/36 35/35/35 34/34/34
f 39/39/39 38/38/38 37/37/37
f 38/38/38 40/40/40 37/37/37
f 38/38/38 41/41/41 40/40/40
f 41/41/41 42/42/42 40/40/40
f 45/45/45 44/44/44 43/43/43
f 46/46/46 45/45/45 43/43/43
f 46/46/46 43/43/43 47/47/47
f 48/48/48 46/46/46 47/47/47
f 51/51/51 50/50/50 49/49/49
f 52/52/52 51/51/51 49/49/49
f 52/52/52 49/49/49 53/53/53
f 54/54/54 52/52/52 53/53/53
f 57/57/57 56/56/56 55/55/55
f 58/58/58 57/57/57 55/55/55
f 58/58/58 55/55/55 59/59/59
f 60/60/60 58/58/58 59/59/59
f 63/63/63 62/62/62 61/61/61
f 64/64/64 63/63/63 61/61/61
f 64/64/64 61/61/61 65/65/65
f 66/66/66 64/64/64 65/65/65
f 69/69/69 68/68/68 67/67/67
f 70/70/70 69/69/69 67/67/67
f 70/70/70 67/67/67 71/71/71
f 72/72/72 70/70/70 71/71/71
f 75/75/75 74/74/74 73/73/73
f 74/74/74 76/76/76 73/73/73
f 73/73/73 76/76/76 77/77/77
f 76/76/76 78/78/78 77/77/77
f 77/77/77 78/78/78 79/79/79
f 78/78/78 80/80/80 79/79/79
f 83/83/83 82/82/82 81/81/81
f 84/84/84 83/83/83 81/81/81
f 85/85/85 83/83/83 84/84/84
f 86/86/86 85/85/85 84/84/84
f 89/89/89 88/88/88 87/87/87
f 90/90/90 89/89/89 87/87/87
f 91/91/91 89/89/89 90/90/90
f 92/92/92 91/91/91 90/90/90
f 93/93/93 91/91/91 92/92/92
f 96/96/96 95/95/95 94/94/94
f 97/97/97 95/95/95 96/96/96
f 98/98/98 97/97/97 96/96/96
f 99/99/99 97/97/97 98/98/98
f 102/102/102 101/101/101 100/100/100
f 103/103/103 101/101/101 102/102/102
f 104/104/104 103/103/103 102/102/102
f 105/105/105 103/103/103 104/104/104
f 106/106/106 105/105/105 104/104/104
f 109/109/109 108/108/108 107/107/107
f 109/109/109 107/107/107 110/110/110
f 109/109/109 111/111/111 108/108/108
f 109/109/109 110/110/110 112/112/112
f 109/109/109 113/113/113 111/111/111
f 109/109/109 112/112/112 114/114/114
f 109/109/109 115/115/115 113/113/113
f 109/109/109 114/114/114 116/116/116
f 109/109/109 117/117/117 115/115/115
f 109/109/109 116/116/116 118/118/118
f 109/109/109 119/119/119 117/117/117
f 109/109/109 118/118/118 119/119/119
f 122/122/122 121/121/121 120/120/120
f 123/123/123 122/122/122 120/120/120
f 121/121/121 124/124/124 120/120/120
f 125/125/125 123/123/123 120/120/120
f 126/126/126 120/120/120 124/124/124
f 127/127/127 125/125/125 120/120/120
f 128/128/128 120/120/120 126/126/126
f 129/129/129 127/127/127 120/120/120
f 128/128/128 130/130/130 120/120/120
f 131/131/131 129/129/129 120/120/120
f 130/130/130 132/132/132 120/120/120
f 132/132/132 131/131/131 120/120/120
f 135/135/135 134/134/134 133/133/133
f 136/136/136 135/135/135 133/133/133
f 135/135/135 137/137/137 134/134/134
f 136/136/136 133/133/133 138/138/138
f 137/137/137 139/139/139 134/134/134
f 140/140/140 136/136/136 138/138/138
f 137/137/137 141/141/141 139/139/139
f 140/140/140 138/138/138 142/142/142
f 141/141/141 143/143/143 139/139/139
f 144/144/144 140/140/140 142/142/142
f 141/141/141 145/145/145 143/143/143
f 144/144/144 142/142/142 146/146/146
f 145/145/145 147/147/147 143/143/143
f 148/148/148 144/144/144 146/146/146
f 145/145/145 149/149/149 147/147/147
f 148/148/148 146/146/146 150/150/150
f 149/149/149 151/151/151 147/147/147
f 152/152/152 148/148/148 150/150/150
f 149/149/149 153/153/153 151/151/151
f 152/152/152 150/150/150 154/154/154
f 153/153/153 155/155/155 151/151/151
f 156/156/156 152/152/152 154/154/154
f 156/156/156 154/154/154 155/155/155
f 153/153/153 156/156/156 155/155/155
