g IS4_Jaula_Candado_Asa
v 0.0544966273 -1.36032776E-08 -0.00565016503
v 0.0430687852 -1.36032776E-08 -0.00565016503
v 0.0487827435 -0.00495622074 1.20820571E-08
v 0.0430687852 0.0547337197 -0.00565016503
v 0.0430687852 -1.36032776E-08 -0.00565016503
v 0.0544966273 0.0633412749 -0.00565016503
v 0.0239026807 0.0639018118 -0.00565016503
v 0.0430687852 0.0547337197 -0.00565016503
v 0.0239026807 0.0761701018 -0.00565016503
v 0.00473653525 0.0547337197 -0.00565016503
v -0.00669130543 0.0633412749 -0.00565016503
v -0.00669130543 -0.00250955042 -0.00565016503
v 0.00473653525 -0.00250955042 -0.00565016503
v 0.00473653525 0.0547337197 -0.00565016503
v 0.0487827435 -0.00495622074 1.20820571E-08
v 0.0430687852 -1.36032776E-08 0.00565018877
v 0.0544966273 -1.36032776E-08 0.00565018877
v 0.0544966273 0.0633412749 0.00565018877
v 0.0430687852 -1.36032776E-08 0.00565018877
v 0.0430687852 0.0547337197 0.00565018877
v 0.0239026807 0.0761701018 0.00565018877
v 0.0430687852 0.0547337197 0.00565018877
v 0.0239026807 0.0639018118 0.00565018877
v -0.00669130543 0.0633412749 0.00565018877
v 0.00473653525 0.0547337197 0.00565018877
v -0.00669130543 -0.00250955042 0.00565018877
v 0.00473653525 0.0547337197 0.00565018877
v 0.00473653525 -0.00250955042 0.00565018877
v 0.0430687852 -1.36032776E-08 -0.00565016503
v 0.0430687852 -1.36032776E-08 0.00565018877
v 0.0487827435 -0.00495622074 1.20820571E-08
v 0.0239026807 0.0639018118 -0.00565016503
v 0.00473653525 0.0547337197 -0.00565016503
v 0.00473653525 0.0547337197 0.00565018877
v 0.0239026807 0.0639018118 0.00565018877
v 0.0430687852 0.0547337197 0.00565018877
v 0.0430687852 0.0547337197 -0.00565016503
v 0.0430687852 0.0547337197 -0.00565016503
v 0.0430687852 0.0547337197 0.00565018877
v 0.0430687852 -1.36032776E-08 0.00565018877
v 0.0430687852 -1.36032776E-08 -0.00565016503
v 0.00473653525 0.0547337197 0.00565018877
v 0.00473653525 0.0547337197 -0.00565016503
v 0.00473653525 -0.00250955042 -0.00565016503
v 0.00473653525 -0.00250955042 0.00565018877
v 0.0239026807 0.0761701018 0.00565018877
v -0.00669130543 0.0633412749 0.00565018877
v -0.00669130543 0.0633412749 -0.00565016503
v 0.0239026807 0.0761701018 -0.00565016503
v 0.0544966273 0.0633412749 0.00565018877
v 0.0544966273 0.0633412749 -0.00565016503
v 0.0544966273 0.0633412749 -0.00565016503
v 0.0544966273 -1.36032776E-08 0.00565018877
v 0.0544966273 0.0633412749 0.00565018877
v 0.0544966273 -1.36032776E-08 -0.00565016503
v 0.0487827435 -0.00495622074 1.20820571E-08
v -0.00669130543 0.0633412749 0.00565018877
v -0.00669130543 -0.00250955042 0.00565018877
v -0.00669130543 -0.00250955042 -0.00565016503
v -0.00669130543 0.0633412749 -0.00565016503
vt 0.512695312 0.821289062
vt 0.512695312 0.810058594
vt 0.508300781 0.815917969
vt 0.522460938 0.869628906
vt 0.522460938 0.821289062
vt 0.512695312 0.877441406
vt 0.522460938 0.904296875
vt 0.522460938 0.885742188
vt 0.512695312 0.904296875
vt 0.522460938 0.923339844
vt 0.512695312 0.931640625
vt 0.512695312 0.989746094
vt 0.522460938 0.989746094
vt 0.522460938 0.939453125
vt 0.508300781 0.815917969
vt 0.502929688 0.810058594
vt 0.502929688 0.821289062
vt 0.502929688 0.877441406
vt 0.492431641 0.821289062
vt 0.492431641 0.869628906
vt 0.502929688 0.904296875
vt 0.492431641 0.885742188
vt 0.492431641 0.904296875
vt 0.502929688 0.931640625
vt 0.492431641 0.923339844
vt 0.502929688 0.989746094
vt 0.492431641 0.939453125
vt 0.492431641 0.989746094
vt 0.512695312 0.810058594
vt 0.502929688 0.810058594
vt 0.508300781 0.815917969
vt 0.482666016 0.904296875
vt 0.482666016 0.923339844
vt 0.492431641 0.923339844
vt 0.492431641 0.904296875
vt 0.492431641 0.885742188
vt 0.482666016 0.885742188
vt 0.482666016 0.869628906
vt 0.492431641 0.869628906
vt 0.492431641 0.821289062
vt 0.482666016 0.821289062
vt 0.492431641 0.939453125
vt 0.482666016 0.939453125
vt 0.482666016 0.989746094
vt 0.492431641 0.989746094
vt 0.502929688 0.904296875
vt 0.502929688 0.931640625
vt 0.512695312 0.931640625
vt 0.512695312 0.904296875
vt 0.502929688 0.877441406
vt 0.512695312 0.877441406
vt 0.512695312 0.877441406
vt 0.502929688 0.821289062
vt 0.502929688 0.877441406
vt 0.512695312 0.821289062
vt 0.508300781 0.815917969
vt 0.502929688 0.931640625
vt 0.502929688 0.989746094
vt 0.512695312 0.989746094
vt 0.512695312 0.931640625
vn 0.7265625 -0.0377197266 -0.686035156
vn -0.67578125 -0.0404663086 -0.735839844
vn 1.1920929E-06 -1 0
vn -0.4609375 -0.138305664 -0.876464844
vn -0.67578125 -0.0404663086 -0.735839844
vn 0.774902344 0.311279297 -0.550292969
vn -0 -0.463378906 -0.886230469
vn -0.4609375 -0.138305664 -0.876464844
vn -0 0.8203125 -0.571777344
vn 0.46484375 -0.134155273 -0.875
vn -0.778320312 0.302734375 -0.550292969
vn -0.7265625 0 -0.687011719
vn 0.676757812 0 -0.735839844
vn 0.46484375 -0.134155273 -0.875
vn 1.1920929E-06 -1 0
vn -0.67578125 -0.0404663086 0.735839844
vn 0.7265625 -0.0377197266 0.686035156
vn 0.774902344 0.311279297 0.550292969
vn -0.67578125 -0.0404663086 0.735839844
vn -0.4609375 -0.138305664 0.876464844
vn -0 0.8203125 0.571777344
vn -0.4609375 -0.138305664 0.876464844
vn -0 -0.463378906 0.886230469
vn -0.778320312 0.302734375 0.550292969
vn 0.46484375 -0.134155273 0.875
vn -0.7265625 0 0.687011719
vn 0.46484375 -0.134155273 0.875
vn 0.676757812 0 0.735839844
vn -0.67578125 -0.0404663086 -0.735839844
vn -0.67578125 -0.0404663086 0.735839844
vn 1.1920929E-06 -1 0
vn -0 -0.463378906 -0.886230469
vn 0.46484375 -0.134155273 -0.875
vn 0.46484375 -0.134155273 0.875
vn -0 -0.463378906 0.886230469
vn -0.4609375 -0.138305664 0.876464844
vn -0.4609375 -0.138305664 -0.876464844
vn -0.4609375 -0.138305664 -0.876464844
vn -0.4609375 -0.138305664 0.876464844
vn -0.67578125 -0.0404663086 0.735839844
vn -0.67578125 -0.0404663086 -0.735839844
vn 0.46484375 -0.134155273 0.875
vn 0.46484375 -0.134155273 -0.875
vn 0.676757812 0 -0.735839844
vn 0.676757812 0 0.735839844
vn -0 0.8203125 0.571777344
vn -0.778320312 0.302734375 0.550292969
vn -0.778320312 0.302734375 -0.550292969
vn -0 0.8203125 -0.571777344
vn 0.774902344 0.311279297 0.550292969
vn 0.774902344 0.311279297 -0.550292969
vn 0.774902344 0.311279297 -0.550292969
vn 0.7265625 -0.0377197266 0.686035156
vn 0.774902344 0.311279297 0.550292969
vn 0.7265625 -0.0377197266 -0.686035156
vn 1.1920929E-06 -1 0
vn -0.778320312 0.302734375 0.550292969
vn -0.7265625 0 0.687011719
vn -0.7265625 0 -0.687011719
vn -0.778320312 0.302734375 -0.550292969
g IS4_Jaula_Candado_Asa_0
f 3/3/3 2/2/2 1/1/1
f 5/5/5 4/4/4 1/1/1
f 4/4/4 6/6/6 1/1/1
f 8/8/8 7/7/7 6/6/6
f 7/7/7 9/9/9 6/6/6
f 7/7/7 10/10/10 9/9/9
f 10/10/10 11/11/11 9/9/9
f 13/13/13 12/12/12 11/11/11
f 14/14/14 13/13/13 11/11/11
f 17/17/17 16/16/16 15/15/15
f 19/19/19 17/17/17 18/18/18
f 20/20/20 19/19/19 18/18/18
f 22/22/22 18/18/18 21/21/21
f 23/23/23 22/22/22 21/21/21
f 23/23/23 21/21/21 24/24/24
f 25/25/25 23/23/23 24/24/24
f 27/27/27 24/24/24 26/26/26
f 28/28/28 27/27/27 26/26/26
f 31/31/31 30/30/30 29/29/29
f 34/34/34 33/33/33 32/32/32
f 35/35/35 34/34/34 32/32/32
f 35/35/35 32/32/32 36/36/36
f 32/32/32 37/37/37 36/36/36
f 40/40/40 39/39/39 38/38/38
f 41/41/41 40/40/40 38/38/38
f 44/44/44 43/43/43 42/42/42
f 45/45/45 44/44/44 42/42/42
f 48/48/48 47/47/47 46/46/46
f 49/49/49 48/48/48 46/46/46
f 49/49/49 46/46/46 50/50/50
f 51/51/51 49/49/49 50/50/50
f 54/54/54 53/53/53 52/52/52
f 53/53/53 55/55/55 52/52/52
f 53/53/53 56/56/56 55/55/55
f 59/59/59 58/58/58 57/57/57
f 60/60/60 59/59/59 57/57/57
