g Rod_Preregister_Wristband_L
v 0.562951803 1.08386469 0.0802132562
v 0.544739425 1.05122566 0.0714128986
v 0.536862254 1.05747175 0.0664393306
v 0.555451334 1.09166074 0.0741918609
v 0.523564637 1.12305188 0.0451830998
v 0.502124012 1.07804775 0.0412540622
v 0.519644141 1.12340677 0.0331325978
v 0.497292727 1.0902977 0.0342637636
v 0.574069202 1.01432264 0.00735793216
v 0.548001587 1.02557158 0.0330915526
v 0.553964198 1.01671684 0.0406780429
v 0.581093907 1.00769198 0.0143293338
v 0.604676187 1.02966595 -0.0120495101
v 0.613063872 1.02356601 -0.00530774612
v 0.535697103 1.0326215 -0.0266219657
v 0.634742439 1.06325364 3.484833E-05
v 0.631507993 1.0547179 0.010201145
v 0.625404477 1.06774259 -0.00706572505
v 0.567119241 1.04677713 -0.048983749
v 0.530973196 1.04375613 -0.0311331805
v 0.59515363 1.08693516 -0.0467078313
v 0.593715012 1.08862495 0.0655788332
v 0.594020545 1.09981871 0.0653604716
v 0.622640073 1.09000015 0.0295915883
v 0.569476247 1.07628381 0.0791436955
v 0.562951803 1.08386469 0.0802132562
v 0.552703142 1.04770768 0.0715452656
v 0.544739425 1.05122566 0.0714128986
v 0.580353022 1.06048942 0.0304972213
v 0.569476247 1.07628381 0.0791436955
v 0.552703142 1.04770768 0.0715452656
v 0.560051203 1.02140999 0.0506937541
v 0.585634887 1.01319957 0.0189461187
v 0.612009168 1.02345574 0.00448265485
v 0.631507993 1.0547179 0.010201145
v 0.62527436 1.08511627 0.0350876227
v 0.634742439 1.06325364 3.484833E-05
v 0.631507993 1.0547179 0.010201145
v 0.613063872 1.02356601 -0.00530774612
v 0.612009168 1.02345574 0.00448265485
v 0.581093907 1.00769198 0.0143293338
v 0.585634887 1.01319957 0.0189461187
v 0.553964198 1.01671684 0.0406780429
v 0.560051203 1.02140999 0.0506937541
v 0.593715012 1.08862495 0.0655788332
v 0.622640073 1.09000015 0.0295915883
v 0.62527436 1.08511627 0.0350876227
v 0.634742439 1.06325364 3.484833E-05
v 0.616106868 1.09734726 0.0217780191
v 0.625404477 1.06774259 -0.00706572505
v 0.59515363 1.08693516 -0.0467078313
v 0.58466357 1.12858117 -0.0159365386
v 0.555697083 1.13686049 0.0188885257
v 0.587009847 1.10811293 0.0586418845
v 0.594020545 1.09981871 0.0653604716
v 0.562951803 1.08386469 0.0802132562
v 0.555451334 1.09166074 0.0741918609
v 0.523564637 1.12305188 0.0451830998
v 0.560051203 1.02140999 0.0506937541
v 0.544739425 1.05122566 0.0714128986
v 0.552703142 1.04770768 0.0715452656
v 0.553964198 1.01671684 0.0406780429
v 0.548001587 1.02557158 0.0330915526
v 0.536862254 1.05747175 0.0664393306
v 0.502124012 1.07804775 0.0412540622
v 0.510391712 1.04757953 0.0023711992
v 0.497292727 1.0902977 0.0342637636
v 0.49956733 1.06007493 0.00656210259
v 0.548946798 1.1346705 0.00852000155
v 0.523564637 1.12305188 0.0451830998
v 0.519644141 1.12340677 0.0331325978
v 0.555697083 1.13686049 0.0188885257
v 0.572279632 1.12449539 -0.0199491326
v 0.540373266 1.08879292 -0.00607904419
v 0.519644141 1.12340677 0.0331325978
v 0.497292727 1.0902977 0.0342637636
v 0.49956733 1.06007493 0.00656210259
v 0.530973196 1.04375613 -0.0311331805
v 0.556875885 1.05713511 -0.0467612445
v 0.579261184 1.08918965 -0.0466219746
v 0.58466357 1.12858117 -0.0159365386
v 0.579261184 1.08918965 -0.0466219746
v 0.59515363 1.08693516 -0.0467078313
v 0.556875885 1.05713511 -0.0467612445
v 0.567119241 1.04677713 -0.048983749
v 0.530973196 1.04375613 -0.0311331805
v 0.49956733 1.06007493 0.00656210259
v 0.535697103 1.0326215 -0.0266219657
v 0.530973196 1.04375613 -0.0311331805
v 0.510391712 1.04757953 0.0023711992
v 0.548001587 1.02557158 0.0330915526
v 0.574069202 1.01432264 0.00735793216
vt 0.716796875 0.493164062
vt 0.679199219 0.486083984
vt 0.676269531 0.499023438
vt 0.71484375 0.5078125
vt 0.712890625 0.56640625
vt 0.663574219 0.55078125
vt 0.711914062 0.579589844
vt 0.66796875 0.56640625
vt 0.92578125 0.503417969
vt 0.967285156 0.500488281
vt 0.963378906 0.484619141
vt 0.923339844 0.489746094
vt 0.884765625 0.507324219
vt 0.8828125 0.493408203
vt 0.934082031 0.564453125
vt 0.841308594 0.495361328
vt 0.84375 0.477050781
vt 0.842773438 0.509277344
vt 0.895019531 0.567871094
vt 0.933105469 0.578125
vt 0.848144531 0.569335938
vt 0.75390625 0.477783203
vt 0.754394531 0.494628906
vt 0.797851562 0.493164062
vt 0.718261719 0.478027344
vt 0.716796875 0.493164062
vt 0.680664062 0.473144531
vt 0.679199219 0.486083984
vt 0.778320312 0.434082031
vt 0.731445312 0.455078125
vt 0.732421875 0.416503906
vt 0.757324219 0.389160156
vt 0.799804688 0.389404297
vt 0.825195312 0.410888672
vt 0.825683594 0.450439453
vt 0.797363281 0.481933594
vt 0.841308594 0.495361328
vt 0.84375 0.477050781
vt 0.8828125 0.493408203
vt 0.885253906 0.479736328
vt 0.923339844 0.489746094
vt 0.920410156 0.477294922
vt 0.963378906 0.484619141
vt 0.961914062 0.467285156
vt 0.75390625 0.477783203
vt 0.797851562 0.493164062
vt 0.797363281 0.481933594
vt 0.841308594 0.495361328
vt 0.798339844 0.508789062
vt 0.842773438 0.509277344
vt 0.848144531 0.569335938
vt 0.798828125 0.575683594
vt 0.755859375 0.575683594
vt 0.753417969 0.509277344
vt 0.754394531 0.494628906
vt 0.716796875 0.493164062
vt 0.71484375 0.5078125
vt 0.712890625 0.56640625
vt 0.650390625 0.455322266
vt 0.679199219 0.486083984
vt 0.680664062 0.473144531
vt 0.634765625 0.462158203
vt 0.62890625 0.4765625
vt 0.676269531 0.499023438
vt 0.663574219 0.55078125
vt 0.614746094 0.541503906
vt 0.66796875 0.56640625
vt 0.626464844 0.555664062
vt 0.758300781 0.589355469
vt 0.712890625 0.56640625
vt 0.711914062 0.579589844
vt 0.755859375 0.575683594
vt 0.799316406 0.589355469
vt 0.777832031 0.639648438
vt 0.727050781 0.614746094
vt 0.72265625 0.659179688
vt 0.753417969 0.688964844
vt 0.8046875 0.689453125
vt 0.827636719 0.663574219
vt 0.83203125 0.620605469
vt 0.798828125 0.575683594
vt 0.850585938 0.586425781
vt 0.848144531 0.569335938
vt 0.895996094 0.583496094
vt 0.895019531 0.567871094
vt 0.933105469 0.578125
vt 0.985351562 0.580566406
vt 0.934082031 0.564453125
vt 0.933105469 0.578125
vt 0.973632812 0.568359375
vt 0.967285156 0.500488281
vt 0.92578125 0.503417969
vn -0.111816406 0.247680664 0.962402344
vn -0.6171875 -0.358154297 0.700683594
vn -0.697753906 -0.288330078 0.655761719
vn -0.279541016 0.494628906 0.822753906
vn -0.307373047 0.592285156 0.744628906
vn -0.72265625 -0.281005859 0.631347656
vn -0.724609375 0.627929688 -0.283935547
vn -0.902832031 0.375976562 -0.209350586
vn -0.211303711 -0.914550781 -0.344482422
vn -0.6171875 -0.770019531 0.163208008
vn -0.477783203 -0.848144531 0.227905273
vn -0.0725708008 -0.978027344 -0.1953125
vn 0.396484375 -0.58984375 -0.703613281
vn 0.555175781 -0.616699219 -0.558105469
vn -0.296875 -0.891601562 -0.342529297
vn 0.915527344 0.0970458984 -0.390869141
vn 0.651855469 -0.442382812 0.615722656
vn 0.800292969 0.146362305 -0.581542969
vn 0.291748047 -0.583984375 -0.757324219
vn -0.673828125 0.0887451172 -0.733886719
vn 0.71484375 0.153198242 -0.682617188
vn 0.598144531 -0.467285156 0.650878906
vn 0.487792969 0.60546875 0.62890625
vn 0.818359375 0.5546875 0.151855469
vn 0.547851562 -0.458007812 0.700195312
vn -0.111816406 0.247680664 0.962402344
vn 0.480957031 -0.509765625 0.713378906
vn -0.6171875 -0.358154297 0.700683594
vn 0.580078125 -0.468261719 0.666503906
vn 0.547851562 -0.458007812 0.700195312
vn 0.480957031 -0.509765625 0.713378906
vn 0.543945312 -0.438964844 0.715332031
vn 0.595214844 -0.441162109 0.671875
vn 0.595214844 -0.489257812 0.637207031
vn 0.651855469 -0.442382812 0.615722656
vn 0.627441406 -0.3984375 0.668945312
vn 0.915527344 0.0970458984 -0.390869141
vn 0.651855469 -0.442382812 0.615722656
vn 0.555175781 -0.616699219 -0.558105469
vn 0.595214844 -0.489257812 0.637207031
vn -0.0725708008 -0.978027344 -0.1953125
vn 0.595214844 -0.441162109 0.671875
vn -0.477783203 -0.848144531 0.227905273
vn 0.543945312 -0.438964844 0.715332031
vn 0.598144531 -0.467285156 0.650878906
vn 0.818359375 0.5546875 0.151855469
vn 0.627441406 -0.3984375 0.668945312
vn 0.915527344 0.0970458984 -0.390869141
vn 0.706054688 0.706542969 -0.0457458496
vn 0.800292969 0.146362305 -0.581542969
vn 0.71484375 0.153198242 -0.682617188
vn 0.622558594 0.767089844 -0.153930664
vn 0.267333984 0.903808594 0.334716797
vn 0.326904297 0.831054688 0.449951172
vn 0.487792969 0.60546875 0.62890625
vn -0.111816406 0.247680664 0.962402344
vn -0.279541016 0.494628906 0.822753906
vn -0.307373047 0.592285156 0.744628906
vn 0.543945312 -0.438964844 0.715332031
vn -0.6171875 -0.358154297 0.700683594
vn 0.480957031 -0.509765625 0.713378906
vn -0.477783203 -0.848144531 0.227905273
vn -0.6171875 -0.770019531 0.163208008
vn -0.697753906 -0.288330078 0.655761719
vn -0.72265625 -0.281005859 0.631347656
vn -0.657714844 -0.744140625 0.118774414
vn -0.902832031 0.375976562 -0.209350586
vn -0.878417969 0.168579102 -0.447509766
vn -0.526367188 0.68359375 -0.505859375
vn -0.307373047 0.592285156 0.744628906
vn -0.724609375 0.627929688 -0.283935547
vn 0.267333984 0.903808594 0.334716797
vn -0.377685547 0.607421875 -0.698730469
vn -0.626464844 0.42578125 -0.652832031
vn -0.724609375 0.627929688 -0.283935547
vn -0.902832031 0.375976562 -0.209350586
vn -0.878417969 0.168579102 -0.447509766
vn -0.673828125 0.0887451172 -0.733886719
vn -0.481689453 0.206420898 -0.8515625
vn -0.333984375 0.407470703 -0.850097656
vn 0.622558594 0.767089844 -0.153930664
vn -0.333984375 0.407470703 -0.850097656
vn 0.71484375 0.153198242 -0.682617188
vn -0.481689453 0.206420898 -0.8515625
vn 0.291748047 -0.583984375 -0.757324219
vn -0.673828125 0.0887451172 -0.733886719
vn -0.878417969 0.168579102 -0.447509766
vn -0.296875 -0.891601562 -0.342529297
vn -0.673828125 0.0887451172 -0.733886719
vn -0.657714844 -0.744140625 0.118774414
vn -0.6171875 -0.770019531 0.163208008
vn -0.211303711 -0.914550781 -0.344482422
g Rod_Preregister_Wristband_L_0
f 3/3/3 2/2/2 1/1/1
f 4/4/4 3/3/3 1/1/1
f 4/4/4 5/5/5 3/3/3
f 5/5/5 6/6/6 3/3/3
f 6/6/6 5/5/5 7/7/7
f 8/8/8 6/6/6 7/7/7
f 11/11/11 10/10/10 9/9/9
f 12/12/12 11/11/11 9/9/9
f 9/9/9 13/13/13 12/12/12
f 13/13/13 14/14/14 12/12/12
f 9/9/9 15/15/15 13/13/13
f 16/16/16 14/14/14 13/13/13
f 14/14/14 16/16/16 17/17/17
f 18/18/18 16/16/16 13/13/13
f 15/15/15 19/19/19 13/13/13
f 18/18/18 13/13/13 19/19/19
f 19/19/19 15/15/15 20/20/20
f 21/21/21 18/18/18 19/19/19
f 24/24/24 23/23/23 22/22/22
f 22/22/22 23/23/23 25/25/25
f 23/23/23 26/26/26 25/25/25
f 25/25/25 26/26/26 27/27/27
f 26/26/26 28/28/28 27/27/27
f 30/30/30 29/29/29 22/22/22
f 31/31/31 29/29/29 30/30/30
f 32/32/32 29/29/29 31/31/31
f 33/33/33 29/29/29 32/32/32
f 34/34/34 29/29/29 33/33/33
f 35/35/35 29/29/29 34/34/34
f 22/22/22 29/29/29 36/36/36
f 36/36/36 29/29/29 35/35/35
f 38/38/38 37/37/37 36/36/36
f 40/40/40 39/39/39 38/38/38
f 41/41/41 39/39/39 40/40/40
f 42/42/42 41/41/41 40/40/40
f 43/43/43 41/41/41 42/42/42
f 44/44/44 43/43/43 42/42/42
f 47/47/47 46/46/46 45/45/45
f 48/48/48 46/46/46 47/47/47
f 49/49/49 46/46/46 48/48/48
f 50/50/50 49/49/49 48/48/48
f 50/50/50 51/51/51 49/49/49
f 51/51/51 52/52/52 49/49/49
f 52/52/52 53/53/53 49/49/49
f 49/49/49 54/54/54 46/46/46
f 53/53/53 54/54/54 49/49/49
f 54/54/54 55/55/55 46/46/46
f 56/56/56 55/55/55 54/54/54
f 57/57/57 56/56/56 54/54/54
f 57/57/57 54/54/54 53/53/53
f 58/58/58 57/57/57 53/53/53
f 61/61/61 60/60/60 59/59/59
f 60/60/60 62/62/62 59/59/59
f 63/63/63 62/62/62 60/60/60
f 64/64/64 63/63/63 60/60/60
f 64/64/64 65/65/65 63/63/63
f 65/65/65 66/66/66 63/63/63
f 66/66/66 65/65/65 67/67/67
f 68/68/68 66/66/66 67/67/67
f 71/71/71 70/70/70 69/69/69
f 70/70/70 72/72/72 69/69/69
f 69/69/69 72/72/72 73/73/73
f 73/73/73 74/74/74 69/69/69
f 69/69/69 74/74/74 75/75/75
f 75/75/75 74/74/74 76/76/76
f 76/76/76 74/74/74 77/77/77
f 77/77/77 74/74/74 78/78/78
f 78/78/78 74/74/74 79/79/79
f 79/79/79 74/74/74 80/80/80
f 80/80/80 74/74/74 73/73/73
f 72/72/72 81/81/81 73/73/73
f 73/73/73 81/81/81 82/82/82
f 81/81/81 83/83/83 82/82/82
f 82/82/82 83/83/83 84/84/84
f 83/83/83 85/85/85 84/84/84
f 84/84/84 85/85/85 86/86/86
f 89/89/89 88/88/88 87/87/87
f 88/88/88 90/90/90 87/87/87
f 91/91/91 90/90/90 88/88/88
f 92/92/92 91/91/91 88/88/88
