g HydraulicJack_Button
v 0.0141259301 -0.000169062609 -0.00499339076
v 0.0117173297 -0.000202841751 -0.00704895938
v 0.0101518929 -0.0060630939 -0.00698842015
v 0.012238685 -0.00723395823 -0.00492043467
v 0.0122281183 0.00689338194 -0.00500687584
v 0.00586627098 -0.0103551336 -0.00689476961
v 0.00707213487 -0.0124082901 -0.00480751973
v 0.0101431189 0.00565536972 -0.00706013665
v 0.00705386279 0.012060971 -0.00495724659
v 6.77189078E-08 -0.000210471146 -0.00686478615
v 8.84152269E-06 -0.0119289346 -0.00679306965
v 0.00585112674 0.0099418303 -0.00701895682
v 1.06344296E-05 -0.0143055962 -0.0046849153
v -1.04989922E-05 0.0139490841 -0.00485779764
v -0.00585095258 -0.010362763 -0.00671059592
v -0.00705372682 -0.0124174831 -0.00458546635
v -8.66793744E-06 0.0115079926 -0.00693646399
v -0.00707199937 0.0120517779 -0.00473519322
v -0.0101429448 -0.00607631216 -0.00666941609
v -0.0122279823 -0.00724989409 -0.0045358371
v -0.005866135 0.00993420091 -0.0068347645
v -0.0122385491 0.00687744608 -0.00462227827
v -0.0117171556 -0.00021810054 -0.00668059336
v -0.0141257942 -0.000187449448 -0.00454932218
v -0.0101516806 0.00564215193 -0.0067411135
v 1.09777529E-05 -0.014776988 0.0069042109
v 1.06344296E-05 -0.0143055962 -0.0046849153
v -0.00705372682 -0.0124174831 -0.00458546635
v -0.00737820473 -0.0128020523 0.00700821867
v 0.00739722373 -0.0127924299 0.00677597988
v -0.0122279823 -0.00724989409 -0.0045358371
v 0.00707213487 -0.0124082901 -0.00480751973
v -0.0127904592 -0.00739682652 0.00706013665
v 0.0128013529 -0.00738015631 0.00665787701
v -0.0141257942 -0.000187449448 -0.00454932218
v 0.012238685 -0.00723395823 -0.00492043467
v -0.0147755127 -9.62734157E-06 0.00704606064
v 0.0147753442 9.61780552E-06 0.00658154488
v -0.0122385491 0.00687744608 -0.00462227827
v 0.0141259301 -0.000169062609 -0.00499339076
v -0.0128015215 0.00738016609 0.00696972851
v 0.0127902897 0.00739682652 0.0065674684
v -0.00707199937 0.0120517779 -0.00473519322
v 0.0122281183 0.00689338194 -0.00500687584
v -0.00739735458 0.0127924392 0.00685162516
v 0.00737807387 0.0128020523 0.00661938637
v -1.04989922E-05 0.0139490841 -0.00485779764
v 0.00705386279 0.012060971 -0.00495724659
v -1.1147491E-05 0.014776988 0.00672339415
vt 0.218994141 0.885253906
vt 0.215454102 0.885253906
vt 0.213745117 0.891601562
vt 0.216552734 0.893066406
vt 0.216552734 0.876953125
vt 0.209472656 0.896484375
vt 0.211425781 0.899414062
vt 0.213623047 0.87890625
vt 0.210327148 0.87109375
vt 0.202636719 0.885742188
vt 0.20324707 0.8984375
vt 0.208740234 0.874023438
vt 0.203369141 0.90234375
vt 0.202026367 0.869140625
vt 0.196655273 0.896972656
vt 0.194946289 0.900390625
vt 0.202148438 0.872558594
vt 0.193847656 0.871582031
vt 0.191772461 0.892578125
vt 0.188720703 0.89453125
vt 0.195678711 0.874511719
vt 0.18762207 0.877929688
vt 0.189697266 0.886230469
vt 0.186157227 0.886230469
vt 0.190917969 0.879394531
vt 0.202636719 0.9140625
vt 0.203369141 0.90234375
vt 0.194946289 0.900390625
vt 0.188232422 0.910644531
vt 0.217407227 0.91015625
vt 0.188720703 0.89453125
vt 0.211425781 0.899414062
vt 0.177734375 0.899902344
vt 0.228637695 0.899414062
vt 0.186157227 0.886230469
vt 0.216552734 0.893066406
vt 0.173950195 0.886230469
vt 0.231201172 0.883789062
vt 0.18762207 0.877929688
vt 0.218994141 0.885253906
vt 0.177734375 0.872558594
vt 0.226074219 0.869628906
vt 0.193847656 0.871582031
vt 0.216552734 0.876953125
vt 0.186767578 0.861816406
vt 0.21472168 0.859863281
vt 0.202026367 0.869140625
vt 0.210327148 0.87109375
vt 0.200317383 0.856933594
vn 0.649414062 -0.00339126587 -0.760742188
vn 0.299804688 -0.00590133667 -0.954101562
vn 0.2578125 -0.163085938 -0.952148438
vn 0.561523438 -0.335205078 -0.756347656
vn 0.557617188 0.326416016 -0.763183594
vn 0.142822266 -0.278076172 -0.949707031
vn 0.318603516 -0.577148438 -0.751953125
vn 0.257324219 0.151000977 -0.954589844
vn 0.314208984 0.564453125 -0.763183594
vn -0.0157165527 -0.00613021851 -1
vn -0.0141983032 -0.320068359 -0.947265625
vn 0.141967773 0.265380859 -0.953613281
vn -0.0126342773 -0.663574219 -0.748046875
vn -0.0136795044 0.6484375 -0.761230469
vn -0.170898438 -0.277587891 -0.9453125
vn -0.340576172 -0.572265625 -0.74609375
vn -0.0146789551 0.306640625 -0.951660156
vn -0.338378906 0.55859375 -0.757324219
vn -0.28515625 -0.162719727 -0.944335938
vn -0.577636719 -0.330322266 -0.746582031
vn -0.170898438 0.264404297 -0.94921875
vn -0.575195312 0.320068359 -0.752929688
vn -0.326904297 -0.00630569458 -0.944824219
vn -0.662597656 -0.004322052 -0.749023438
vn -0.284912109 0.149902344 -0.946777344
vn -0.00259208679 -0.999023438 -0.0406494141
vn 0.002576828 -0.999023438 -0.0406494141
vn -0.496826172 -0.866699219 -0.0426635742
vn -0.501953125 -0.863769531 -0.0426940918
vn 0.498291016 -0.866210938 -0.0426940918
vn -0.86328125 -0.501953125 -0.048248291
vn 0.500976562 -0.864257812 -0.0427246094
vn -0.866210938 -0.497558594 -0.0483093262
vn 0.865234375 -0.499267578 -0.0483398438
vn -0.998535156 -0.00259017944 -0.0559082031
vn 0.865234375 -0.499267578 -0.0483398438
vn -0.998535156 0.000448226929 -0.0559387207
vn 0.998535156 0.00193881989 -0.056060791
vn -0.865234375 0.497558594 -0.0635986328
vn 0.998535156 -0.0011100769 -0.0559997559
vn -0.865234375 0.497558594 -0.0635986328
vn 0.862304688 0.501953125 -0.0637207031
vn -0.499267578 0.863769531 -0.0692138672
vn 0.865234375 0.497558594 -0.063659668
vn -0.501953125 0.862304688 -0.0692138672
vn 0.494873047 0.866210938 -0.0693359375
vn 0.000782489777 0.997558594 -0.0712890625
vn 0.5 0.86328125 -0.0692749023
vn -0.00437927246 0.997558594 -0.0712890625
g HydraulicJack_Button_0
f 3/3/3 2/2/2 1/1/1
f 4/4/4 3/3/3 1/1/1
f 1/1/1 2/2/2 5/5/5
f 6/6/6 3/3/3 4/4/4
f 7/7/7 6/6/6 4/4/4
f 2/2/2 8/8/8 5/5/5
f 5/5/5 8/8/8 9/9/9
f 3/3/3 10/10/10 2/2/2
f 6/6/6 10/10/10 3/3/3
f 2/2/2 10/10/10 8/8/8
f 11/11/11 10/10/10 6/6/6
f 11/11/11 6/6/6 7/7/7
f 8/8/8 10/10/10 12/12/12
f 8/8/8 12/12/12 9/9/9
f 13/13/13 11/11/11 7/7/7
f 9/9/9 12/12/12 14/14/14
f 15/15/15 11/11/11 13/13/13
f 15/15/15 10/10/10 11/11/11
f 16/16/16 15/15/15 13/13/13
f 12/12/12 17/17/17 14/14/14
f 12/12/12 10/10/10 17/17/17
f 14/14/14 17/17/17 18/18/18
f 19/19/19 15/15/15 16/16/16
f 19/19/19 10/10/10 15/15/15
f 20/20/20 19/19/19 16/16/16
f 17/17/17 21/21/21 18/18/18
f 17/17/17 10/10/10 21/21/21
f 18/18/18 21/21/21 22/22/22
f 23/23/23 19/19/19 20/20/20
f 23/23/23 10/10/10 19/19/19
f 24/24/24 23/23/23 20/20/20
f 21/21/21 25/25/25 22/22/22
f 21/21/21 10/10/10 25/25/25
f 25/25/25 10/10/10 23/23/23
f 25/25/25 23/23/23 24/24/24
f 22/22/22 25/25/25 24/24/24
f 28/28/28 27/27/27 26/26/26
f 29/29/29 28/28/28 26/26/26
f 26/26/26 27/27/27 30/30/30
f 31/31/31 28/28/28 29/29/29
f 27/27/27 32/32/32 30/30/30
f 33/33/33 31/31/31 29/29/29
f 30/30/30 32/32/32 34/34/34
f 35/35/35 31/31/31 33/33/33
f 32/32/32 36/36/36 34/34/34
f 37/37/37 35/35/35 33/33/33
f 34/34/34 36/36/36 38/38/38
f 39/39/39 35/35/35 37/37/37
f 36/36/36 40/40/40 38/38/38
f 41/41/41 39/39/39 37/37/37
f 38/38/38 40/40/40 42/42/42
f 43/43/43 39/39/39 41/41/41
f 40/40/40 44/44/44 42/42/42
f 45/45/45 43/43/43 41/41/41
f 42/42/42 44/44/44 46/46/46
f 47/47/47 43/43/43 45/45/45
f 44/44/44 48/48/48 46/46/46
f 49/49/49 47/47/47 45/45/45
f 46/46/46 48/48/48 49/49/49
f 48/48/48 47/47/47 49/49/49
