g IS4_MDL_EscenarioGaraje_Furgoneta_Rueda_2
v 5.49316383E-07 -0.359999985 0.00861561578
v 0.179999441 -0.311769187 0.00878507923
v 0.180126891 -0.311769187 -0.126214921
v 0.000125793449 -0.359999985 -0.126385748
v -0.179999441 -0.311769038 0.00844670087
v -0.184041306 -0.311769038 -0.126557961
v 0.179999441 -0.311769187 0.00878507923
v 0.311895788 -0.180000126 -0.126091316
v 0.180126891 -0.311769187 -0.126214921
v 0.311770558 -0.180000126 0.00891004875
v 0.360126883 -1.37329096E-07 -0.126046002
v 0.359999448 -1.37329096E-07 0.00895481836
v 0.359999448 -1.37329096E-07 0.00895481836
v 0.311895788 0.179999858 -0.126091316
v 0.360126883 -1.37329096E-07 -0.126046002
v 0.311770558 0.179999858 0.00891004875
v 0.180127978 0.311769038 -0.126215458
v 0.179999441 0.311769038 0.00878507923
v 0.179999441 0.311769038 0.00878507923
v 0.000127990716 0.359999985 -0.126384929
v 0.180127978 0.311769038 -0.126215458
v 5.49316383E-07 0.359999985 0.00861616433
v -0.184041306 0.311769247 -0.126558244
v -0.179999441 0.311769187 0.00844670087
v -0.179999441 0.311769187 0.00844670087
v -0.311640918 0.180000201 -0.126678258
v -0.184041306 0.311769247 -0.126558244
v -0.311768353 0.180000201 0.00832228083
v -0.359873086 2.74658191E-07 -0.126724675
v -0.359998345 1.37329096E-07 0.00827723648
v -0.359998345 1.37329096E-07 0.00827723648
v -0.311640918 -0.179999724 -0.12667881
v -0.359873086 2.74658191E-07 -0.126724675
v -0.311768353 -0.179999724 0.00832228083
v -0.184041306 -0.311769038 -0.126557961
v -0.179999441 -0.311769038 0.00844670087
v 0.179872006 -0.311769307 0.143785894
v 0.179999441 -0.311769187 0.00878507923
v 5.49316383E-07 -0.359999985 0.00861561578
v -0.00012689209 -0.359999985 0.143616438
v -0.179999441 -0.311769038 0.00844670087
v -0.180126891 -0.311769187 0.143446699
v 0.311643124 -0.180000126 0.143910587
v 0.179999441 -0.311769187 0.00878507923
v 0.179872006 -0.311769307 0.143785894
v 0.311770558 -0.180000126 0.00891004875
v 0.359874189 -1.37329096E-07 0.143956184
v 0.359999448 -1.37329096E-07 0.00895481836
v 0.311643124 0.179999858 0.143910587
v 0.359999448 -1.37329096E-07 0.00895481836
v 0.359874189 -1.37329096E-07 0.143956184
v 0.311770558 0.179999858 0.00891004875
v 0.179874197 0.311768979 0.143786728
v 0.179999441 0.311769038 0.00878507923
v -0.00012689209 0.359999985 0.143616438
v 0.179999441 0.311769038 0.00878507923
v 0.179874197 0.311768979 0.143786728
v 5.49316383E-07 0.359999985 0.00861616433
v -0.180126891 0.311769187 0.14344725
v -0.179999441 0.311769187 0.00844670087
v -0.311893612 0.180000126 0.143323645
v -0.179999441 0.311769187 0.00844670087
v -0.180126891 0.311769187 0.14344725
v -0.311768353 0.180000201 0.00832228083
v -0.360126883 1.37329096E-07 0.143277779
v -0.359998345 1.37329096E-07 0.00827723648
v -0.311893612 -0.179999858 0.143323645
v -0.359998345 1.37329096E-07 0.00827723648
v -0.360126883 1.37329096E-07 0.143277779
v -0.311768353 -0.179999724 0.00832228083
v -0.180126891 -0.311769187 0.143446699
v -0.179999441 -0.311769038 0.00844670087
v 0.107688531 -0.186256155 -0.153283298
v 0.103003964 -0.178176537 -0.132663339
v 0.000133483874 -0.20574069 -0.132759199
v 0.000153259272 -0.215069994 -0.153385207
v -0.102735899 -0.178176671 -0.132856429
v -0.107382014 -0.186256021 -0.15348655
v -0.178043872 -0.102870479 -0.132928103
v 0.186408862 -0.107534997 -0.15320915
v 0.103003964 -0.178176537 -0.132663339
v 0.107688531 -0.186256155 -0.153283298
v 0.178311944 -0.102869794 -0.13259165
v 0.215223804 0 -0.153182507
v 0.20587334 -4.11987287E-07 -0.132566661
v 0.186408862 0.107534997 -0.153209701
v 0.178309739 0.102870613 -0.132591933
v 0.107688531 0.186256155 -0.153283298
v 0.103003964 0.178176537 -0.132663339
v 0.000153259272 0.215070069 -0.153385207
v 0.103003964 0.178176537 -0.132663339
v 0.107688531 0.186256155 -0.153283298
v 0.000133483874 0.205740824 -0.132759199
v -0.107382014 0.186256155 -0.15348655
v -0.102735899 0.178176612 -0.132856146
v -0.186102346 0.107535064 -0.153560162
v -0.178042784 0.102870479 -0.132927835
v -0.214917287 1.37329096E-07 -0.153587356
v -0.178042784 0.102870479 -0.132927835
v -0.186102346 0.107535064 -0.153560162
v -0.205606371 2.74658191E-07 -0.132952824
v -0.186102346 -0.107534863 -0.153560713
v -0.178043872 -0.102870479 -0.132928103
v -0.107382014 -0.186256021 -0.15348655
v 0.000173034656 -2.60925276E-06 -0.175996989
v -0.178043872 -0.102870479 -0.132928103
v -0.102735899 -0.178176671 -0.132856429
v -0.205606371 2.74658191E-07 -0.132952824
v 0.000133483874 -0.20574069 -0.132759199
v -0.178042784 0.102870479 -0.132927835
v 0.103003964 -0.178176537 -0.132663339
v -0.102735899 0.178176612 -0.132856146
v 0.178311944 -0.102869794 -0.13259165
v 0.000133483874 0.205740824 -0.132759199
v 0.20587334 -4.11987287E-07 -0.132566661
v 0.103003964 0.178176537 -0.132663339
v 0.178309739 0.102870613 -0.132591933
v -0.311893612 -0.179999858 0.143323645
v -0.000157653805 0 0.175996989
v -0.180126891 -0.311769187 0.143446699
v -0.360126883 1.37329096E-07 0.143277779
v -0.00012689209 -0.359999985 0.143616438
v -0.311893612 0.180000126 0.143323645
v 0.179872006 -0.311769307 0.143785894
v -0.180126891 0.311769187 0.14344725
v 0.311643124 -0.180000126 0.143910587
v -0.00012689209 0.359999985 0.143616438
v 0.359874189 -1.37329096E-07 0.143956184
v 0.179874197 0.311768979 0.143786728
v 0.311643124 0.179999858 0.143910587
v -0.184041306 -0.311769038 -0.126557961
v -0.107382014 -0.186256021 -0.15348655
v -0.186102346 -0.107534863 -0.153560713
v -0.311640918 -0.179999724 -0.12667881
v 0.000125793449 -0.359999985 -0.126385748
v -0.214917287 1.37329096E-07 -0.153587356
v 0.000153259272 -0.215069994 -0.153385207
v -0.359873086 2.74658191E-07 -0.126724675
v 0.180126891 -0.311769187 -0.126214921
v -0.186102346 0.107535064 -0.153560162
v 0.107688531 -0.186256155 -0.153283298
v -0.311640918 0.180000201 -0.126678258
v 0.311895788 -0.180000126 -0.126091316
v -0.107382014 0.186256155 -0.15348655
v 0.186408862 -0.107534997 -0.15320915
v -0.184041306 0.311769247 -0.126558244
v 0.360126883 -1.37329096E-07 -0.126046002
v 0.000153259272 0.215070069 -0.153385207
v 0.215223804 0 -0.153182507
v 0.000127990716 0.359999985 -0.126384929
v 0.311895788 0.179999858 -0.126091316
v 0.107688531 0.186256155 -0.153283298
v 0.186408862 0.107534997 -0.153209701
v 0.180127978 0.311769038 -0.126215458
vt 0.353515625 0.0994873047
vt 0.362304688 0.0842895508
vt 0.353759766 0.0819702148
vt 0.347412109 0.0936279297
vt 0.338623047 0.108947754
vt 0.335693359 0.100402832
vt 0.362304688 0.0842895508
vt 0.353515625 0.0687866211
vt 0.353759766 0.0819702148
vt 0.362304688 0.0665893555
vt 0.346923828 0.0574645996
vt 0.353515625 0.0511779785
vt 0.353515625 0.0511779785
vt 0.335449219 0.0509338379
vt 0.346923828 0.0574645996
vt 0.338134766 0.0422363281
vt 0.322265625 0.050994873
vt 0.3203125 0.042175293
vt 0.3203125 0.042175293
vt 0.310791016 0.0576477051
vt 0.322265625 0.050994873
vt 0.3046875 0.0510559082
vt 0.304199219 0.0693969727
vt 0.295654297 0.0665283203
vt 0.295654297 0.0665283203
vt 0.304443359 0.0824584961
vt 0.304199219 0.0693969727
vt 0.295654297 0.0845947266
vt 0.311035156 0.0939331055
vt 0.3046875 0.100280762
vt 0.3046875 0.100280762
vt 0.322753906 0.100158691
vt 0.311035156 0.0939331055
vt 0.3203125 0.109680176
vt 0.335693359 0.100402832
vt 0.338623047 0.108947754
vt 0.335693359 0.0513000488
vt 0.337890625 0.0424804688
vt 0.320068359 0.0424804688
vt 0.322509766 0.0512084961
vt 0.304443359 0.0514526367
vt 0.311035156 0.0577392578
vt 0.347167969 0.0579528809
vt 0.337890625 0.0424804688
vt 0.335693359 0.0513000488
vt 0.353515625 0.0514221191
vt 0.353759766 0.0694580078
vt 0.362548828 0.0669555664
vt 0.353515625 0.0827026367
vt 0.362548828 0.0669555664
vt 0.353759766 0.0694580078
vt 0.362548828 0.0848999023
vt 0.346923828 0.0940551758
vt 0.353515625 0.100402832
vt 0.335449219 0.100646973
vt 0.353515625 0.100402832
vt 0.346923828 0.0940551758
vt 0.337890625 0.109375
vt 0.322265625 0.100524902
vt 0.320068359 0.109375
vt 0.310791016 0.0938720703
vt 0.320068359 0.109375
vt 0.322265625 0.100524902
vt 0.304443359 0.100402832
vt 0.304199219 0.0823974609
vt 0.295654297 0.0848999023
vt 0.304443359 0.069152832
vt 0.295654297 0.0848999023
vt 0.304199219 0.0823974609
vt 0.295654297 0.0669555664
vt 0.311035156 0.0577392578
vt 0.304443359 0.0514526367
vt 0.343505859 0.0794067383
vt 0.343505859 0.0794067383
vt 0.339599609 0.0861206055
vt 0.339599609 0.0861206055
vt 0.333007812 0.0900268555
vt 0.333007812 0.0900268555
vt 0.325195312 0.0900268555
vt 0.343261719 0.0716552734
vt 0.343505859 0.0794067383
vt 0.343505859 0.0794067383
vt 0.343261719 0.0716552734
vt 0.339355469 0.0650024414
vt 0.339355469 0.0650024414
vt 0.332763672 0.0612182617
vt 0.332763672 0.0612182617
vt 0.325195312 0.0612487793
vt 0.325195312 0.0612487793
vt 0.318359375 0.0651855469
vt 0.325195312 0.0612487793
vt 0.325195312 0.0612487793
vt 0.318359375 0.0651855469
vt 0.314697266 0.0718994141
vt 0.314697266 0.0718994141
vt 0.314697266 0.0796508789
vt 0.314697266 0.0796508789
vt 0.318603516 0.0863037109
vt 0.314697266 0.0796508789
vt 0.314697266 0.0796508789
vt 0.318603516 0.0863037109
vt 0.325195312 0.0900268555
vt 0.325195312 0.0900268555
vt 0.333007812 0.0900268555
vt 0.965332031 0.0342407227
vt 0.957519531 0.0631103516
vt 0.973144531 0.0631713867
vt 0.944335938 0.0555725098
vt 0.986816406 0.0553894043
vt 0.936523438 0.0421447754
vt 0.994140625 0.0418395996
vt 0.936523438 0.0265655518
vt 0.994140625 0.0263214111
vt 0.943847656 0.0130691528
vt 0.986328125 0.0129318237
vt 0.957519531 0.00526428223
vt 0.973144531 0.00522613525
vt 0.304443359 0.069152832
vt 0.329101562 0.0759277344
vt 0.311035156 0.0577392578
vt 0.304199219 0.0823974609
vt 0.322509766 0.0512084961
vt 0.310791016 0.0938720703
vt 0.335693359 0.0513000488
vt 0.322265625 0.100524902
vt 0.347167969 0.0579528809
vt 0.335449219 0.100646973
vt 0.353759766 0.0694580078
vt 0.346923828 0.0940551758
vt 0.353515625 0.0827026367
vt 0.335693359 0.100402832
vt 0.333007812 0.0900268555
vt 0.325195312 0.0900268555
vt 0.322753906 0.100158691
vt 0.347412109 0.0936279297
vt 0.318603516 0.0863037109
vt 0.339599609 0.0861206055
vt 0.311035156 0.0939331055
vt 0.353759766 0.0819702148
vt 0.314697266 0.0796508789
vt 0.343505859 0.0794067383
vt 0.304443359 0.0824584961
vt 0.353515625 0.0687866211
vt 0.314697266 0.0718994141
vt 0.343261719 0.0716552734
vt 0.304199219 0.0693969727
vt 0.346923828 0.0574645996
vt 0.318359375 0.0651855469
vt 0.339355469 0.0650024414
vt 0.310791016 0.0576477051
vt 0.335449219 0.0509338379
vt 0.325195312 0.0612487793
vt 0.332763672 0.0612182617
vt 0.322265625 0.050994873
vn -4.76837158E-07 -1 -1.78813934E-07
vn 0.5 -0.866210938 0.000470638275
vn 0.354248047 -0.612304688 -0.706542969
vn 0.000665664673 -0.70703125 -0.70703125
vn -0.5 -0.866210938 -0.000471115112
vn -0.352783203 -0.612304688 -0.707519531
vn 0.5 -0.866210938 0.000470638275
vn 0.61328125 -0.353515625 -0.706542969
vn 0.354248047 -0.612304688 -0.706542969
vn 0.866210938 -0.5 0.000815391541
vn 0.708007812 -3.57627869E-07 -0.706542969
vn 1 -5.96046448E-07 0.000941753387
vn 1 -5.96046448E-07 0.000941753387
vn 0.61328125 0.353515625 -0.706542969
vn 0.708007812 -3.57627869E-07 -0.706542969
vn 0.866210938 0.5 0.000815868378
vn 0.354248047 0.612304688 -0.706542969
vn 0.5 0.866210938 0.000471115112
vn 0.5 0.866210938 0.000471115112
vn 0.00066614151 0.70703125 -0.70703125
vn 0.354248047 0.612304688 -0.706542969
vn 3.57627869E-07 1 1.78813934E-07
vn -0.352783203 0.612304688 -0.707519531
vn -0.5 0.866210938 -0.000470638275
vn -0.5 0.866210938 -0.000470638275
vn -0.611816406 0.353515625 -0.707519531
vn -0.352783203 0.612304688 -0.707519531
vn -0.866210938 0.5 -0.000815391541
vn -0.706542969 4.76837158E-07 -0.708007812
vn -1 4.17232513E-07 -0.000941753387
vn -1 4.17232513E-07 -0.000941753387
vn -0.611816406 -0.353515625 -0.707519531
vn -0.706542969 4.76837158E-07 -0.708007812
vn -0.866210938 -0.5 -0.000815868378
vn -0.352783203 -0.612304688 -0.707519531
vn -0.5 -0.866210938 -0.000471115112
vn 0.352783203 -0.612304688 0.707519531
vn 0.5 -0.866210938 0.000470638275
vn -4.76837158E-07 -1 -1.78813934E-07
vn -0.00066614151 -0.70703125 0.70703125
vn -0.5 -0.866210938 -0.000471115112
vn -0.354248047 -0.612304688 0.706542969
vn 0.611816406 -0.353515625 0.707519531
vn 0.5 -0.866210938 0.000470638275
vn 0.352783203 -0.612304688 0.707519531
vn 0.866210938 -0.5 0.000815391541
vn 0.706542969 -6.55651093E-07 0.708007812
vn 1 -5.96046448E-07 0.000941753387
vn 0.611816406 0.353515625 0.707519531
vn 1 -5.96046448E-07 0.000941753387
vn 0.706542969 -6.55651093E-07 0.708007812
vn 0.866210938 0.5 0.000815868378
vn 0.352783203 0.612304688 0.707519531
vn 0.5 0.866210938 0.000471115112
vn -0.000665664673 0.70703125 0.70703125
vn 0.5 0.866210938 0.000471115112
vn 0.352783203 0.612304688 0.707519531
vn 3.57627869E-07 1 1.78813934E-07
vn -0.354248047 0.612304688 0.706542969
vn -0.5 0.866210938 -0.000470638275
vn -0.61328125 0.353515625 0.706542969
vn -0.5 0.866210938 -0.000470638275
vn -0.354248047 0.612304688 0.706542969
vn -0.866210938 0.5 -0.000815391541
vn -0.708007812 2.98023224E-07 0.706542969
vn -1 4.17232513E-07 -0.000941753387
vn -0.61328125 -0.353515625 0.706542969
vn -1 4.17232513E-07 -0.000941753387
vn -0.708007812 2.98023224E-07 0.706542969
vn -0.866210938 -0.5 -0.000815868378
vn -0.354248047 -0.612304688 0.706542969
vn -0.5 -0.866210938 -0.000471115112
vn 0.098449707 -0.168945312 -0.98046875
vn 0.098449707 -0.168945312 -0.98046875
vn 0.000923633575 -0.195068359 -0.980957031
vn 0.000923633575 -0.195068359 -0.980957031
vn -0.0966186523 -0.168945312 -0.980957031
vn -0.0966186523 -0.168945312 -0.980957031
vn -0.16796875 -0.0975341797 -0.980957031
vn 0.169799805 -0.0975341797 -0.98046875
vn 0.098449707 -0.168945312 -0.98046875
vn 0.098449707 -0.168945312 -0.98046875
vn 0.169799805 -0.0975341797 -0.98046875
vn 0.195922852 0 -0.98046875
vn 0.195922852 0 -0.98046875
vn 0.169799805 0.0975341797 -0.98046875
vn 0.169799805 0.0975341797 -0.98046875
vn 0.098449707 0.168945312 -0.98046875
vn 0.098449707 0.168945312 -0.98046875
vn 0.000923633575 0.195068359 -0.980957031
vn 0.098449707 0.168945312 -0.98046875
vn 0.098449707 0.168945312 -0.98046875
vn 0.000923633575 0.195068359 -0.980957031
vn -0.0966186523 0.168945312 -0.980957031
vn -0.0966186523 0.168945312 -0.980957031
vn -0.16796875 0.0975341797 -0.980957031
vn -0.16796875 0.0975341797 -0.980957031
vn -0.194091797 2.38418579E-07 -0.980957031
vn -0.16796875 0.0975341797 -0.980957031
vn -0.16796875 0.0975341797 -0.980957031
vn -0.194091797 2.38418579E-07 -0.980957031
vn -0.16796875 -0.0975341797 -0.980957031
vn -0.16796875 -0.0975341797 -0.980957031
vn -0.0966186523 -0.168945312 -0.980957031
vn 0.000941753387 1.78813934E-07 -1
vn -0.16796875 -0.0975341797 -0.980957031
vn -0.0966186523 -0.168945312 -0.980957031
vn -0.194091797 2.38418579E-07 -0.980957031
vn 0.000923633575 -0.195068359 -0.980957031
vn -0.16796875 0.0975341797 -0.980957031
vn 0.098449707 -0.168945312 -0.98046875
vn -0.0966186523 0.168945312 -0.980957031
vn 0.169799805 -0.0975341797 -0.98046875
vn 0.000923633575 0.195068359 -0.980957031
vn 0.195922852 0 -0.98046875
vn 0.098449707 0.168945312 -0.98046875
vn 0.169799805 0.0975341797 -0.98046875
vn -0.61328125 -0.353515625 0.706542969
vn -0.000941753387 -1.78813934E-07 1
vn -0.354248047 -0.612304688 0.706542969
vn -0.708007812 2.98023224E-07 0.706542969
vn -0.00066614151 -0.70703125 0.70703125
vn -0.61328125 0.353515625 0.706542969
vn 0.352783203 -0.612304688 0.707519531
vn -0.354248047 0.612304688 0.706542969
vn 0.611816406 -0.353515625 0.707519531
vn -0.000665664673 0.70703125 0.70703125
vn 0.706542969 -6.55651093E-07 0.708007812
vn 0.352783203 0.612304688 0.707519531
vn 0.611816406 0.353515625 0.707519531
vn -0.352783203 -0.612304688 -0.707519531
vn -0.0966186523 -0.168945312 -0.980957031
vn -0.16796875 -0.0975341797 -0.980957031
vn -0.611816406 -0.353515625 -0.707519531
vn 0.000665664673 -0.70703125 -0.70703125
vn -0.194091797 2.38418579E-07 -0.980957031
vn 0.000923633575 -0.195068359 -0.980957031
vn -0.706542969 4.76837158E-07 -0.708007812
vn 0.354248047 -0.612304688 -0.706542969
vn -0.16796875 0.0975341797 -0.980957031
vn 0.098449707 -0.168945312 -0.98046875
vn -0.611816406 0.353515625 -0.707519531
vn 0.61328125 -0.353515625 -0.706542969
vn -0.0966186523 0.168945312 -0.980957031
vn 0.169799805 -0.0975341797 -0.98046875
vn -0.352783203 0.612304688 -0.707519531
vn 0.708007812 -3.57627869E-07 -0.706542969
vn 0.000923633575 0.195068359 -0.980957031
vn 0.195922852 0 -0.98046875
vn 0.00066614151 0.70703125 -0.70703125
vn 0.61328125 0.353515625 -0.706542969
vn 0.098449707 0.168945312 -0.98046875
vn 0.169799805 0.0975341797 -0.98046875
vn 0.354248047 0.612304688 -0.706542969
g IS4_MDL_EscenarioGaraje_Furgoneta_Rueda_2_0
f 3/3/3 2/2/2 1/1/1
f 4/4/4 3/3/3 1/1/1
f 4/4/4 1/1/1 5/5/5
f 6/6/6 4/4/4 5/5/5
f 9/9/9 8/8/8 7/7/7
f 8/8/8 10/10/10 7/7/7
f 8/8/8 11/11/11 10/10/10
f 11/11/11 12/12/12 10/10/10
f 15/15/15 14/14/14 13/13/13
f 14/14/14 16/16/16 13/13/13
f 14/14/14 17/17/17 16/16/16
f 17/17/17 18/18/18 16/16/16
f 21/21/21 20/20/20 19/19/19
f 20/20/20 22/22/22 19/19/19
f 20/20/20 23/23/23 22/22/22
f 23/23/23 24/24/24 22/22/22
f 27/27/27 26/26/26 25/25/25
f 26/26/26 28/28/28 25/25/25
f 26/26/26 29/29/29 28/28/28
f 29/29/29 30/30/30 28/28/28
f 33/33/33 32/32/32 31/31/31
f 32/32/32 34/34/34 31/31/31
f 32/32/32 35/35/35 34/34/34
f 35/35/35 36/36/36 34/34/34
f 39/39/39 38/38/38 37/37/37
f 40/40/40 39/39/39 37/37/37
f 41/41/41 39/39/39 40/40/40
f 42/42/42 41/41/41 40/40/40
f 45/45/45 44/44/44 43/43/43
f 44/44/44 46/46/46 43/43/43
f 43/43/43 46/46/46 47/47/47
f 46/46/46 48/48/48 47/47/47
f 51/51/51 50/50/50 49/49/49
f 50/50/50 52/52/52 49/49/49
f 49/49/49 52/52/52 53/53/53
f 52/52/52 54/54/54 53/53/53
f 57/57/57 56/56/56 55/55/55
f 56/56/56 58/58/58 55/55/55
f 55/55/55 58/58/58 59/59/59
f 58/58/58 60/60/60 59/59/59
f 63/63/63 62/62/62 61/61/61
f 62/62/62 64/64/64 61/61/61
f 61/61/61 64/64/64 65/65/65
f 64/64/64 66/66/66 65/65/65
f 69/69/69 68/68/68 67/67/67
f 68/68/68 70/70/70 67/67/67
f 67/67/67 70/70/70 71/71/71
f 70/70/70 72/72/72 71/71/71
f 75/75/75 74/74/74 73/73/73
f 76/76/76 75/75/75 73/73/73
f 77/77/77 75/75/75 76/76/76
f 78/78/78 77/77/77 76/76/76
f 79/79/79 77/77/77 78/78/78
f 82/82/82 81/81/81 80/80/80
f 81/81/81 83/83/83 80/80/80
f 80/80/80 83/83/83 84/84/84
f 83/83/83 85/85/85 84/84/84
f 84/84/84 85/85/85 86/86/86
f 85/85/85 87/87/87 86/86/86
f 86/86/86 87/87/87 88/88/88
f 87/87/87 89/89/89 88/88/88
f 92/92/92 91/91/91 90/90/90
f 91/91/91 93/93/93 90/90/90
f 90/90/90 93/93/93 94/94/94
f 93/93/93 95/95/95 94/94/94
f 94/94/94 95/95/95 96/96/96
f 95/95/95 97/97/97 96/96/96
f 100/100/100 99/99/99 98/98/98
f 99/99/99 101/101/101 98/98/98
f 98/98/98 101/101/101 102/102/102
f 101/101/101 103/103/103 102/102/102
f 102/102/102 103/103/103 104/104/104
f 107/107/107 106/106/106 105/105/105
f 106/106/106 108/108/108 105/105/105
f 109/109/109 107/107/107 105/105/105
f 108/108/108 110/110/110 105/105/105
f 105/105/105 111/111/111 109/109/109
f 110/110/110 112/112/112 105/105/105
f 113/113/113 111/111/111 105/105/105
f 112/112/112 114/114/114 105/105/105
f 115/115/115 113/113/113 105/105/105
f 114/114/114 116/116/116 105/105/105
f 117/117/117 115/115/115 105/105/105
f 116/116/116 117/117/117 105/105/105
f 120/120/120 119/119/119 118/118/118
f 118/118/118 119/119/119 121/121/121
f 122/122/122 119/119/119 120/120/120
f 121/121/121 119/119/119 123/123/123
f 124/124/124 119/119/119 122/122/122
f 123/123/123 119/119/119 125/125/125
f 126/126/126 119/119/119 124/124/124
f 125/125/125 119/119/119 127/127/127
f 128/128/128 119/119/119 126/126/126
f 127/127/127 119/119/119 129/129/129
f 130/130/130 119/119/119 128/128/128
f 129/129/129 119/119/119 130/130/130
f 133/133/133 132/132/132 131/131/131
f 134/134/134 133/133/133 131/131/131
f 131/131/131 132/132/132 135/135/135
f 136/136/136 133/133/133 134/134/134
f 132/132/132 137/137/137 135/135/135
f 138/138/138 136/136/136 134/134/134
f 135/135/135 137/137/137 139/139/139
f 140/140/140 136/136/136 138/138/138
f 137/137/137 141/141/141 139/139/139
f 142/142/142 140/140/140 138/138/138
f 139/139/139 141/141/141 143/143/143
f 144/144/144 140/140/140 142/142/142
f 141/141/141 145/145/145 143/143/143
f 146/146/146 144/144/144 142/142/142
f 143/143/143 145/145/145 147/147/147
f 148/148/148 144/144/144 146/146/146
f 145/145/145 149/149/149 147/147/147
f 150/150/150 148/148/148 146/146/146
f 147/147/147 149/149/149 151/151/151
f 152/152/152 148/148/148 150/150/150
f 149/149/149 153/153/153 151/151/151
f 154/154/154 152/152/152 150/150/150
f 151/151/151 153/153/153 154/154/154
f 153/153/153 152/152/152 154/154/154
