g Generator_Decal_6
v -0.223416507 0.0164237581 0.0671307445
v -0.222454026 0.0157974232 -0.0703979731
v 0.223416507 -0.01642376 -0.0671307296
v 0.222454011 -0.0157974251 0.0703979582
vt 0.0124969482 0.794433594
vt 0.0124969482 0.987304688
vt 0.977050781 0.987304688
vt 0.977050781 0.794433594
vn 0.0720825195 0.997558594 -0.00403594971
vn 0.0720825195 0.997558594 -0.00403594971
vn 0.0720825195 0.997558594 -0.00403594971
vn 0.0720825195 0.997558594 -0.00403594971
g Generator_Decal_6_0
f 3/3/3 2/2/2 1/1/1
f 4/4/4 3/3/3 1/1/1
