g Saucepan_SugarSpoiled
v 0.0540360436 0.0602581687 -0.000167172562
v -9.55774127E-09 0.0696541667 -0.000356791832
v 0.0412194207 0.0603861883 -0.0411254391
v 3.41981625E-08 0.0602676272 -0.0539326333
v -0.0412191711 0.0603861883 -0.0411257297
v -0.0540360436 0.0602581687 -0.000167101854
v 0.0416286662 0.0603567399 0.0411417969
v -9.55774127E-09 0.0696541667 -0.000356791832
v 0.0540360436 0.0602581687 -0.000167172562
v -3.53157503E-08 0.0602732748 0.0527157262
v -0.0416290388 0.0603567399 0.0411414839
v -0.0540360436 0.0602581687 -0.000167101854
vt 0.925292969 0.988769531
vt 0.818847656 0.98828125
vt 0.900390625 0.908203125
vt 0.818847656 0.8828125
vt 0.737792969 0.908203125
vt 0.712890625 0.988769531
vt 0.900878906 0.907714844
vt 0.818847656 0.989257812
vt 0.925292969 0.989257812
vt 0.818847656 0.885253906
vt 0.737304688 0.907714844
vt 0.712890625 0.989257812
vn 0.171264648 0.985351562 -0.000142097473
vn -0 1 -0.000106692314
vn 0.111755371 0.987304688 -0.111450195
vn 5.36441803E-07 0.984863281 -0.172607422
vn -0.111755371 0.987304688 -0.111450195
vn -0.171264648 0.985351562 -0.000143170357
vn 0.110107422 0.987792969 0.110839844
vn -0 1 -0.000106692314
vn 0.171264648 0.985351562 -0.000142097473
vn -5.96046448E-07 0.984863281 0.174072266
vn -0.110107422 0.987792969 0.110839844
vn -0.171264648 0.985351562 -0.000143170357
g Saucepan_SugarSpoiled_0
f 3/3/3 2/2/2 1/1/1
f 4/4/4 2/2/2 3/3/3
f 5/5/5 2/2/2 4/4/4
f 6/6/6 2/2/2 5/5/5
f 9/9/9 8/8/8 7/7/7
f 7/7/7 8/8/8 10/10/10
f 10/10/10 8/8/8 11/11/11
f 11/11/11 8/8/8 12/12/12
