g FrankenBoris_TVScreen_3_Off
v 0.827454984 1.92296195 0.0416117758
v 0.851288915 1.73625863 0.0543464459
v 0.737907171 1.95344567 0.0503986999
v 0.918024659 1.88671255 0.0327604562
v 0.594867647 1.63687468 0.0711570531
v 1.00436044 1.84112406 0.0243952833
v 0.942669451 1.47597778 0.0373094082
v 1.0857085 1.79254973 0.0165507402
vt 0.776498735 0.543680668
vt 0.796129882 0.512675047
vt 0.757594705 0.541706562
vt 0.796078563 0.544714868
vt 0.757699728 0.474490523
vt 0.815661669 0.543743491
vt 0.834682465 0.474613965
vt 0.834571838 0.541829884
vn 0.122583255 -0.522998393 0.8434726
vn 0.0513143651 -0.574352503 0.816998243
vn 0.0510639325 -0.498140484 0.865591466
vn 0.128173232 -0.526951432 0.840174913
vn -0.00785664842 -0.558480501 0.829480469
vn 0.130839899 -0.532773018 0.836082399
vn 0.0478069521 -0.624376655 0.779659092
vn 0.134725571 -0.597181559 0.790710568
g FrankenBoris_TVScreen_3_Off_0
f 3/3/3 2/2/2 1/1/1
f 1/1/1 2/2/2 4/4/4
f 5/5/5 2/2/2 3/3/3
f 4/4/4 2/2/2 6/6/6
f 7/7/7 2/2/2 5/5/5
f 6/6/6 2/2/2 8/8/8
f 8/8/8 2/2/2 7/7/7
