g Rod_Preregister_Wristband_R
v -0.55450964 1.06383312 0.0833029822
v -0.557299197 1.02948678 0.0464321636
v -0.565434575 1.03598583 0.049402263
v -0.503798425 1.06187677 0.00873329118
v -0.49568522 1.08589697 0.0449904092
v -0.495364785 1.09376836 0.0373061746
v -0.617227018 1.08324647 -0.00509692216
v -0.586031914 1.10978174 -0.039138563
v -0.574767351 1.14865017 -0.00531151704
v -0.606026292 1.11374211 0.0232624412
v -0.540683389 1.15014482 0.0354513228
v -0.53358835 1.1495744 0.0297266375
v -0.578609526 1.12076843 0.0664171427
v -0.588284075 1.11124671 0.0752884746
v -0.616165102 1.10542977 0.031048296
v -0.626845658 1.07539201 0.00402382948
v -0.619564474 1.10078788 0.0366464108
v -0.625184178 1.07228148 0.00868935231
v -0.566443801 1.07262397 -0.0464917347
v -0.586031914 1.10978174 -0.039138563
v -0.617227018 1.08324647 -0.00509692216
v -0.600158095 1.05068016 -0.0128360037
v -0.610700428 1.04323184 -0.00502006616
v -0.626845658 1.07539201 0.00402382948
v -0.613516688 1.04710591 0.0035604611
v -0.49568522 1.08589697 0.0449904092
v -0.510961235 1.05550551 0.0129445419
v -0.548921585 1.0378226 0.0384718105
v -0.503798425 1.06187677 0.00873329118
v -0.588244498 1.10369408 0.0776755065
v -0.558154225 1.09483147 0.0875362232
v -0.567923129 1.08873439 0.0879902095
v -0.588284075 1.11124671 0.0752884746
v -0.578609526 1.12076843 0.0664171427
v -0.549930215 1.1010468 0.0793077946
v -0.515136063 1.12769651 0.0617493652
v -0.540683389 1.15014482 0.0354513228
v -0.513377964 1.13165843 0.0461963788
v -0.53358835 1.1495744 0.0297266375
v -0.495364785 1.09376836 0.0373061746
v -0.619564474 1.10078788 0.0366464108
v -0.588284075 1.11124671 0.0752884746
v -0.588244498 1.10369408 0.0776755065
v -0.586534202 1.06951702 0.0421427712
v -0.567923129 1.08873439 0.0879902095
v -0.55450964 1.06383312 0.0833029822
v -0.565434575 1.03598583 0.049402263
v -0.58645612 1.02884769 0.018712759
v -0.625184178 1.07228148 0.00868935231
v -0.613516688 1.04710591 0.0035604611
v -0.586534142 1.0695169 0.0421427675
v -0.625184178 1.07228148 0.00868935231
v -0.626845658 1.07539201 0.00402382948
v -0.616165102 1.10542977 0.031048296
v -0.613516688 1.04710591 0.0035604611
v -0.58645612 1.02884769 0.018712759
v -0.610700428 1.04323184 -0.00502006616
v -0.581660807 1.02396846 0.0135611538
v -0.565434575 1.03598583 0.049402263
v -0.557299197 1.02948678 0.0464321636
v -0.569285691 1.11560512 -0.0365058966
v -0.566443801 1.07262397 -0.0464917347
v -0.55719173 1.07976115 -0.0457210019
v -0.586031914 1.10978174 -0.039138563
v -0.563282669 1.14488149 -0.00818684325
v -0.574767351 1.14865017 -0.00531151704
v -0.53358835 1.1495744 0.0297266375
v -0.535548091 1.10120296 0.00100208423
v -0.569285691 1.11560512 -0.0365058966
v -0.513377964 1.13165843 0.0461963788
v -0.55719173 1.07976115 -0.0457210019
v -0.495364785 1.09376836 0.0373061746
v -0.529920399 1.05638123 -0.0289360471
v -0.503798425 1.06187677 0.00873329118
v -0.495364785 1.09376836 0.0373061746
v -0.49568522 1.08589697 0.0449904092
v -0.515136063 1.12769651 0.0617493652
v -0.536476672 1.06617928 0.0708518028
v -0.549930215 1.1010468 0.0793077946
v -0.548921585 1.0378226 0.0384718105
v -0.558154225 1.09483147 0.0875362232
v -0.54801774 1.06138444 0.0783045441
v -0.557299197 1.02948678 0.0464321636
v -0.567923129 1.08873439 0.0879902095
v -0.55450964 1.06383312 0.0833029822
v -0.529920399 1.05638123 -0.0289360471
v -0.510961235 1.05550551 0.0129445419
v -0.503798425 1.06187677 0.00873329118
v -0.534991264 1.05008936 -0.0259461962
v -0.55719173 1.07976115 -0.0457210019
v -0.566443801 1.07262397 -0.0464917347
v -0.548921585 1.0378226 0.0384718105
v -0.600158095 1.05068016 -0.0128360037
v -0.571661115 1.03182197 0.00594318332
v -0.581660807 1.02396846 0.0135611538
v -0.557299197 1.02948678 0.0464321636
v -0.610700428 1.04323184 -0.00502006616
vt 0.76953125 0.719726562
vt 0.823242188 0.717285156
vt 0.81640625 0.704101562
vt 0.835449219 0.801269531
vt 0.790527344 0.805664062
vt 0.790527344 0.817871094
vt 0.59765625 0.754882812
vt 0.598144531 0.816894531
vt 0.647949219 0.825683594
vt 0.645019531 0.761230469
vt 0.701660156 0.82421875
vt 0.705078125 0.833496094
vt 0.698242188 0.755859375
vt 0.698242188 0.735839844
vt 0.643066406 0.740722656
vt 0.595703125 0.736328125
vt 0.642578125 0.726074219
vt 0.592773438 0.726074219
vt 0.556152344 0.820800781
vt 0.598144531 0.816894531
vt 0.59765625 0.754882812
vt 0.557128906 0.759277344
vt 0.556640625 0.740722656
vt 0.595703125 0.736328125
vt 0.557617188 0.727050781
vt 0.790527344 0.805664062
vt 0.836425781 0.7890625
vt 0.825195312 0.733886719
vt 0.835449219 0.801269531
vt 0.701660156 0.723144531
vt 0.735351562 0.739257812
vt 0.735351562 0.720703125
vt 0.698242188 0.735839844
vt 0.698242188 0.755859375
vt 0.737304688 0.755371094
vt 0.741699219 0.80859375
vt 0.701660156 0.82421875
vt 0.740722656 0.825683594
vt 0.705078125 0.833496094
vt 0.790527344 0.817871094
vt 0.642578125 0.726074219
vt 0.698242188 0.735839844
vt 0.701660156 0.723144531
vt 0.666015625 0.684570312
vt 0.717773438 0.69921875
vt 0.717285156 0.669433594
vt 0.686523438 0.643066406
vt 0.655273438 0.631835938
vt 0.626464844 0.682617188
vt 0.627929688 0.650878906
vt 0.666015625 0.684570312
vt 0.592773438 0.726074219
vt 0.595703125 0.736328125
vt 0.643066406 0.740722656
vt 0.557617188 0.727050781
vt 0.515136719 0.729492188
vt 0.556640625 0.740722656
vt 0.516113281 0.742675781
vt 0.474121094 0.725585938
vt 0.472167969 0.739746094
vt 0.600585938 0.8359375
vt 0.556152344 0.820800781
vt 0.555664062 0.833984375
vt 0.598144531 0.816894531
vt 0.647460938 0.839355469
vt 0.647949219 0.825683594
vt 0.705078125 0.833496094
vt 0.677734375 0.885253906
vt 0.625 0.885253906
vt 0.729492188 0.860839844
vt 0.6328125 0.927246094
vt 0.729003906 0.908203125
vt 0.663085938 0.948730469
vt 0.702148438 0.939941406
vt 0.790527344 0.817871094
vt 0.790527344 0.805664062
vt 0.741699219 0.80859375
vt 0.77734375 0.748535156
vt 0.737304688 0.755371094
vt 0.825195312 0.733886719
vt 0.735351562 0.739257812
vt 0.7734375 0.729980469
vt 0.823242188 0.717285156
vt 0.735351562 0.720703125
vt 0.76953125 0.719726562
vt 0.509765625 0.829589844
vt 0.465087891 0.809570312
vt 0.461181641 0.8203125
vt 0.511230469 0.820800781
vt 0.555664062 0.833984375
vt 0.556152344 0.820800781
vt 0.471435547 0.755859375
vt 0.557128906 0.759277344
vt 0.515625 0.760742188
vt 0.516113281 0.742675781
vt 0.472167969 0.739746094
vt 0.556640625 0.740722656
vn -0.454833984 -0.469238281 0.756835938
vn 0.370849609 -0.886230469 0.277832031
vn -0.578125 -0.545898438 0.606445312
vn 0.863769531 0.0857543945 -0.496337891
vn 0.706542969 -0.369628906 0.603515625
vn 0.88671875 0.326904297 -0.327392578
vn -0.791992188 0.229736328 -0.565429688
vn -0.710449219 0.293212891 -0.639648438
vn -0.59765625 0.799804688 -0.0522766113
vn -0.691894531 0.721679688 0.00131225586
vn -0.248657227 0.866210938 0.43359375
vn 0.65234375 0.642578125 -0.402099609
vn -0.324951172 0.806640625 0.494140625
vn -0.416259766 0.736328125 0.533203125
vn -0.74609375 0.6640625 0.0450744629
vn -0.850097656 0.198852539 -0.487792969
vn -0.786621094 -0.258300781 0.561035156
vn -0.791992188 -0.371826172 0.484375
vn -0.343017578 -0.453369141 -0.822753906
vn -0.710449219 0.293212891 -0.639648438
vn -0.791992188 0.229736328 -0.565429688
vn -0.402587891 -0.507324219 -0.76171875
vn -0.498291016 -0.592285156 -0.633300781
vn -0.850097656 0.198852539 -0.487792969
vn -0.713867188 -0.5078125 0.481933594
vn 0.706542969 -0.369628906 0.603515625
vn 0.5546875 -0.822265625 0.127563477
vn 0.534667969 -0.833984375 0.136474609
vn 0.863769531 0.0857543945 -0.496337891
vn -0.6796875 -0.240234375 0.693359375
vn 0.314941406 0.313964844 0.895507812
vn -0.515136719 -0.337402344 0.787597656
vn -0.416259766 0.736328125 0.533203125
vn -0.324951172 0.806640625 0.494140625
vn 0.310546875 0.342529297 0.88671875
vn 0.379150391 0.396972656 0.8359375
vn -0.248657227 0.866210938 0.43359375
vn 0.799804688 0.549804688 -0.240600586
vn 0.65234375 0.642578125 -0.402099609
vn 0.88671875 0.326904297 -0.327392578
vn -0.786621094 -0.258300781 0.561035156
vn -0.416259766 0.736328125 0.533203125
vn -0.6796875 -0.240234375 0.693359375
vn -0.663574219 -0.455810547 0.593261719
vn -0.515136719 -0.337402344 0.787597656
vn -0.454833984 -0.469238281 0.756835938
vn -0.578125 -0.545898438 0.606445312
vn -0.634277344 -0.57421875 0.517578125
vn -0.791992188 -0.371826172 0.484375
vn -0.713867188 -0.5078125 0.481933594
vn -0.624023438 -0.401855469 0.669921875
vn -0.791992188 -0.371826172 0.484375
vn -0.850097656 0.198852539 -0.487792969
vn -0.74609375 0.6640625 0.0450744629
vn -0.713867188 -0.5078125 0.481933594
vn -0.634277344 -0.57421875 0.517578125
vn -0.498291016 -0.592285156 -0.633300781
vn 0.00895690918 -0.963867188 -0.265625
vn -0.578125 -0.545898438 0.606445312
vn 0.370849609 -0.886230469 0.277832031
vn 0.427001953 0.489990234 -0.759765625
vn -0.343017578 -0.453369141 -0.822753906
vn 0.516113281 0.254150391 -0.817871094
vn -0.710449219 0.293212891 -0.639648438
vn 0.471435547 0.640136719 -0.606445312
vn -0.59765625 0.799804688 -0.0522766113
vn 0.65234375 0.642578125 -0.402099609
vn 0.709960938 0.399169922 -0.580078125
vn 0.427001953 0.489990234 -0.759765625
vn 0.799804688 0.549804688 -0.240600586
vn 0.516113281 0.254150391 -0.817871094
vn 0.88671875 0.326904297 -0.327392578
vn 0.731445312 0.0773925781 -0.677734375
vn 0.863769531 0.0857543945 -0.496337891
vn 0.88671875 0.326904297 -0.327392578
vn 0.706542969 -0.369628906 0.603515625
vn 0.379150391 0.396972656 0.8359375
vn 0.629882812 -0.423583984 0.650878906
vn 0.310546875 0.342529297 0.88671875
vn 0.534667969 -0.833984375 0.136474609
vn 0.314941406 0.313964844 0.895507812
vn 0.498535156 -0.492431641 0.713378906
vn 0.370849609 -0.886230469 0.277832031
vn -0.515136719 -0.337402344 0.787597656
vn -0.454833984 -0.469238281 0.756835938
vn 0.731445312 0.0773925781 -0.677734375
vn 0.5546875 -0.822265625 0.127563477
vn 0.863769531 0.0857543945 -0.496337891
vn 0.181030273 -0.8828125 -0.43359375
vn 0.516113281 0.254150391 -0.817871094
vn -0.343017578 -0.453369141 -0.822753906
vn 0.534667969 -0.833984375 0.136474609
vn -0.402587891 -0.507324219 -0.76171875
vn 0.162475586 -0.897460938 -0.409667969
vn 0.00895690918 -0.963867188 -0.265625
vn 0.370849609 -0.886230469 0.277832031
vn -0.498291016 -0.592285156 -0.633300781
g Rod_Preregister_Wristband_R_0
f 3/3/3 2/2/2 1/1/1
f 6/6/6 5/5/5 4/4/4
f 9/9/9 8/8/8 7/7/7
f 10/10/10 9/9/9 7/7/7
f 11/11/11 9/9/9 10/10/10
f 9/9/9 11/11/11 12/12/12
f 13/13/13 11/11/11 10/10/10
f 13/13/13 10/10/10 14/14/14
f 10/10/10 7/7/7 15/15/15
f 10/10/10 15/15/15 14/14/14
f 7/7/7 16/16/16 15/15/15
f 14/14/14 15/15/15 17/17/17
f 17/17/17 15/15/15 18/18/18
f 21/21/21 20/20/20 19/19/19
f 22/22/22 21/21/21 19/19/19
f 22/22/22 23/23/23 21/21/21
f 23/23/23 24/24/24 21/21/21
f 24/24/24 23/23/23 25/25/25
f 28/28/28 27/27/27 26/26/26
f 26/26/26 27/27/27 29/29/29
f 32/32/32 31/31/31 30/30/30
f 31/31/31 33/33/33 30/30/30
f 34/34/34 33/33/33 31/31/31
f 35/35/35 34/34/34 31/31/31
f 35/35/35 36/36/36 34/34/34
f 36/36/36 37/37/37 34/34/34
f 37/37/37 36/36/36 38/38/38
f 39/39/39 37/37/37 38/38/38
f 38/38/38 36/36/36 40/40/40
f 43/43/43 42/42/42 41/41/41
f 41/41/41 44/44/44 43/43/43
f 43/43/43 44/44/44 45/45/45
f 45/45/45 44/44/44 46/46/46
f 46/46/46 44/44/44 47/47/47
f 47/47/47 44/44/44 48/48/48
f 49/49/49 44/44/44 41/41/41
f 48/48/48 44/44/44 50/50/50
f 51/51/51 44/44/44 49/49/49
f 50/50/50 51/51/51 49/49/49
f 44/44/44 51/51/51 50/50/50
f 54/54/54 53/53/53 52/52/52
f 52/52/52 53/53/53 55/55/55
f 55/55/55 57/57/57 56/56/56
f 57/57/57 58/58/58 56/56/56
f 56/56/56 58/58/58 59/59/59
f 58/58/58 60/60/60 59/59/59
f 63/63/63 62/62/62 61/61/61
f 62/62/62 64/64/64 61/61/61
f 61/61/61 64/64/64 65/65/65
f 64/64/64 66/66/66 65/65/65
f 65/65/65 66/66/66 67/67/67
f 67/67/67 68/68/68 65/65/65
f 65/65/65 68/68/68 69/69/69
f 70/70/70 68/68/68 67/67/67
f 69/69/69 68/68/68 71/71/71
f 72/72/72 68/68/68 70/70/70
f 71/71/71 68/68/68 73/73/73
f 74/74/74 68/68/68 72/72/72
f 73/73/73 68/68/68 74/74/74
f 77/77/77 76/76/76 75/75/75
f 78/78/78 76/76/76 77/77/77
f 79/79/79 78/78/78 77/77/77
f 78/78/78 80/80/80 76/76/76
f 79/79/79 81/81/81 78/78/78
f 78/78/78 82/82/82 80/80/80
f 81/81/81 82/82/82 78/78/78
f 82/82/82 83/83/83 80/80/80
f 82/82/82 81/81/81 84/84/84
f 83/83/83 82/82/82 85/85/85
f 85/85/85 82/82/82 84/84/84
f 88/88/88 87/87/87 86/86/86
f 87/87/87 89/89/89 86/86/86
f 86/86/86 89/89/89 90/90/90
f 89/89/89 91/91/91 90/90/90
f 89/89/89 87/87/87 92/92/92
f 93/93/93 91/91/91 89/89/89
f 94/94/94 89/89/89 92/92/92
f 94/94/94 93/93/93 89/89/89
f 94/94/94 92/92/92 95/95/95
f 94/94/94 95/95/95 93/93/93
f 92/92/92 96/96/96 95/95/95
f 95/95/95 97/97/97 93/93/93
