g RodVan_InteriorDoor
v 0.112093806 0.761216938 -0.150976941
v 0.17024368 0.771889389 -0.181069866
v 0.115276486 0.772183001 -0.148269728
v 0.252777249 0.772003233 -0.207648084
v 0.258427113 0.79595083 -0.228432834
v 0.226329342 0.778656244 -0.196284786
v 0.503335893 1.25064063 0.037459638
v 0.485836029 1.23317862 0.0363140106
v 0.485266566 1.22052872 0.0427602381
v 0.503335893 1.25064063 0.037459638
v 0.485266566 1.22052872 0.0427602381
v 0.502026498 1.23725235 0.0438574217
v 0.858714104 1.25052786 0.037453156
v 0.502026498 1.23725235 0.0438574217
v 0.842379153 1.23714435 0.0438512415
v 0.335904688 1.31051302 0.040076904
v 0.95121336 1.31055474 0.0400791913
v 0.876213968 1.23306513 0.0363073722
v 0.842379153 1.23714435 0.0438512415
v 0.859139085 1.22042 0.0427538306
v 0.876292527 0.635055125 -0.00432876591
v 0.859139085 1.22042 0.0427538306
v 0.859214306 0.64769429 0.0038358306
v 0.951262772 0.474259704 -0.00412200904
v 0.858813286 0.617618442 -0.00547279324
v 0.859214306 0.64769429 0.0038358306
v 0.842474222 0.630994797 0.00274017337
v 0.00736663816 -0.362035275 -0.0483232886
v 0.951312304 -0.362035275 -0.0483232886
v 0.503336191 0.617616951 -0.00547279324
v 0.842474222 0.630994797 0.00274017337
v 0.502026796 0.630993426 0.00274017337
v 0.438345939 0.617497146 -0.00548034674
v 0.485836178 0.634883344 -0.00433853129
v 0.502026796 0.630993426 0.00274017337
v 0.485266715 0.64752984 0.00382652273
v 0.455835879 0.635028422 -0.00433059689
v 0.456534863 0.64766866 0.00383407576
v 0.439784378 0.630878687 0.00273300172
v 0.0810325593 0.617883086 -0.00544075016
v 0.439784378 0.630878687 0.00273300172
v 0.0975784287 0.631248236 0.00277091982
v -0.00736663816 0.362693697 -0.0219530482
v -0.0831906125 0.501388013 -0.0127576441
v 0.0684315488 0.635743141 -0.00438644411
v 0.0975784287 0.631248236 0.00277091982
v 0.0855102539 0.648353159 0.00378059386
v 0.379074842 1.23560095 0.036473237
v 0.0855102539 0.648353159 0.00378059386
v 0.383019239 1.22284865 0.0429127477
v 0.422311693 1.25104249 0.0374875627
v 0.383019239 1.22284865 0.0429127477
v 0.425177902 1.2376374 0.0438841246
v 0.455838144 1.23317814 0.0363139324
v 0.485836029 1.23317862 0.0363140106
v 0.425177902 1.2376374 0.0438841246
v 0.456537008 1.22052836 0.0427601598
v 0.485836029 1.23250186 0.071440354
v 0.502026498 1.23660433 0.066992566
v 0.485266566 1.21988058 0.0658954605
v 0.455835879 0.635028422 -0.00433059689
v 0.485836178 0.634883344 -0.00433853129
v 0.485836029 1.23317862 0.0363140106
v 0.485836178 0.634402394 0.0307990257
v 0.455835879 1.2325027 0.071440354
v 0.485836029 1.23250186 0.071440354
v 0.12665832 0.797027588 -0.022325363
v 0.12110626 0.794799805 -0.0326310731
v 0.0891670212 0.729417861 -0.0370630622
v 0.0902874768 0.722575009 -0.0273722839
v 0.0902874768 0.722575009 -0.0273722839
v 0.0891670212 0.729417861 -0.0370630622
v 0.0627372712 0.742337048 -0.0371855162
v 0.0565768406 0.739053309 -0.027528381
v 0.0565768406 0.739053309 -0.027528381
v 0.0627372712 0.742337048 -0.0371855162
v 0.094676666 0.807719171 -0.0327535234
v 0.0929473862 0.813506126 -0.0224816129
v 0.0929473862 0.813506126 -0.0224816129
v 0.094676666 0.807719171 -0.0327535234
v 0.12110626 0.794799805 -0.0326310731
v 0.12665832 0.797027588 -0.022325363
v 0.0627372712 0.742337048 -0.0371855162
v 0.0891670212 0.729417861 -0.0370630622
v 0.12110626 0.794799805 -0.0326310731
v 0.094676666 0.807719171 -0.0327535234
v 0.129155576 0.759491503 -0.138611063
v 0.124604642 0.774054348 -0.141410515
v 0.173678279 0.773870289 -0.169693217
v 0.174677581 0.758877337 -0.164230421
v 0.218981624 0.753123999 -0.159052193
v 0.220809326 0.778017044 -0.166888505
v 0.112093806 0.761216938 -0.150976941
v 0.11824356 0.752130806 -0.146821216
v 0.170431361 0.751238644 -0.177578345
v 0.168620303 0.760573506 -0.185012355
v 0.224615932 0.755295038 -0.203441009
v 0.221261904 0.732189715 -0.185383901
v 0.0960389674 0.773120761 -0.0919316858
v 0.103490904 0.752203405 -0.028410567
v 0.0974804685 0.767209828 -0.0265770722
v 0.101950988 0.757835925 -0.0920791626
v 0.129155576 0.759491503 -0.138611063
v 0.124604642 0.774054348 -0.141410515
v 0.101950988 0.757835925 -0.0920791626
v 0.0898915082 0.743742108 -0.0266682431
v 0.103490904 0.752203405 -0.028410567
v 0.0877899155 0.749883652 -0.094343029
v 0.11824356 0.752130806 -0.146821216
v 0.129155576 0.759491503 -0.138611063
v 0.174677581 0.758877337 -0.164230421
v 0.170431361 0.751238644 -0.177578345
v 0.218981624 0.753123999 -0.159052193
v 0.221261904 0.732189715 -0.185383901
v 0.220809326 0.778017044 -0.166888505
v 0.17024368 0.771889389 -0.181069866
v 0.226329342 0.778656244 -0.196284786
v 0.173678279 0.773870289 -0.169693217
v 0.124604642 0.774054348 -0.141410515
v 0.115276486 0.772183001 -0.148269728
v 0.0960389674 0.773120761 -0.0919316858
v 0.0839390531 0.770978749 -0.0935900882
v 0.0859968513 0.764479101 -0.0233428944
v 0.0974804685 0.767209828 -0.0265770722
v 0.112093806 0.761216938 -0.150976941
v 0.168620303 0.760573506 -0.185012355
v 0.17024368 0.771889389 -0.181069866
v 0.226329342 0.778656244 -0.196284786
v 0.224615932 0.755295038 -0.203441009
v 0.252777249 0.772003233 -0.207648084
v 0.252878577 0.75190419 -0.2163755
v 0.236931294 0.804434896 -0.176725388
v 0.220809326 0.778017044 -0.166888505
v 0.226329342 0.778656244 -0.196284786
v 0.258427113 0.79595083 -0.228432834
v 0.261914968 0.82739383 -0.234482571
v 0.262305915 0.857906997 -0.224176243
v 0.259495527 0.879314303 -0.200275347
v 0.25423643 0.885879755 -0.169184268
v 0.252878577 0.75190419 -0.2163755
v 0.224615932 0.755295038 -0.203441009
v 0.221261904 0.732189715 -0.185383901
v 0.237197876 0.730059743 -0.209098577
v 0.255943149 0.725719333 -0.24359405
v 0.232245937 0.683553994 -0.182904124
v 0.25521636 0.68941915 -0.254440457
v 0.25089249 0.652729988 -0.246008605
v 0.244130552 0.625482857 -0.220557705
v 0.236742094 0.614978552 -0.184907153
v 0.221261904 0.732189715 -0.185383901
v 0.218981624 0.753123999 -0.159052193
v 0.225150287 0.726662636 -0.154922634
v 0.239455104 0.750452936 -0.144427568
v 0.241219938 0.76853323 -0.146606296
v 0.220809326 0.778017044 -0.166888505
v 0.236931294 0.804434896 -0.176725388
v 0.242288202 0.851896286 -0.118448786
v 0.238800347 0.820453405 -0.112398982
v 0.236931294 0.804434896 -0.176725388
v 0.238409415 0.789940238 -0.122705303
v 0.241219938 0.76853323 -0.146606296
v 0.267118841 0.883773565 -0.166864619
v 0.25423643 0.885879755 -0.169184268
v 0.259495527 0.879314303 -0.200275347
v 0.272281945 0.877328098 -0.19738853
v 0.262305915 0.857906997 -0.224176243
v 0.275041342 0.856311381 -0.220853344
v 0.261914968 0.82739383 -0.234482571
v 0.274657428 0.82635504 -0.230971679
v 0.258427113 0.79595083 -0.228432834
v 0.252777249 0.772003233 -0.207648084
v 0.259231716 0.771989167 -0.206137463
v 0.271233201 0.795485914 -0.225032493
v 0.274657428 0.82635504 -0.230971679
v 0.261914968 0.82739383 -0.234482571
v 0.265686482 0.771974981 -0.204626918
v 0.252991021 0.762045026 -0.176460192
v 0.259502858 0.762122393 -0.175222933
v 0.247779846 0.768550456 -0.145652533
v 0.239455104 0.750452936 -0.144427568
v 0.241219938 0.76853323 -0.146606296
v 0.245952904 0.749394894 -0.143576354
v 0.232693017 0.723205626 -0.118976668
v 0.245812222 0.721587002 -0.117738642
v 0.252450854 0.74833703 -0.14272514
v 0.228369281 0.686516643 -0.110544734
v 0.241567373 0.68556726 -0.109460749
v 0.240853727 0.649929404 -0.120109253
v 0.252991021 0.762045026 -0.176460192
v 0.245952904 0.749394894 -0.143576354
v 0.247779846 0.768550456 -0.145652533
v 0.253274083 0.759803355 -0.178901508
v 0.259231716 0.771989167 -0.206137463
v 0.259253979 0.750832856 -0.214867771
v 0.247779846 0.768550456 -0.145652533
v 0.241219938 0.76853323 -0.146606296
v 0.238409415 0.789940238 -0.122705303
v 0.251580507 0.789584577 -0.121234126
v 0.238800347 0.820453405 -0.112398982
v 0.25196442 0.819540918 -0.111115798
v 0.254339904 0.768568039 -0.144698948
v 0.259502858 0.762122393 -0.175222933
v 0.252991021 0.762045026 -0.176460192
v 0.25196442 0.819540918 -0.111115798
v 0.238800347 0.820453405 -0.112398982
v 0.242288202 0.851896286 -0.118448786
v 0.255388647 0.850410223 -0.117055051
v 0.247938231 0.875844002 -0.139233544
v 0.260935515 0.873920977 -0.137460634
v 0.25423643 0.885879755 -0.169184268
v 0.267118841 0.883773565 -0.166864619
v 0.240853727 0.649929404 -0.120109253
v 0.227642357 0.650216281 -0.121391296
v 0.228369281 0.686516643 -0.110544734
v 0.24386245 0.624222636 -0.1468312
v 0.230707094 0.624031603 -0.148609772
v 0.249787286 0.615334868 -0.182466343
v 0.236742094 0.614978552 -0.184907153
v 0.268638134 0.724054933 -0.240081936
v 0.255943149 0.725719333 -0.24359405
v 0.25521636 0.68941915 -0.254440457
v 0.259253979 0.750832856 -0.214867771
v 0.265629411 0.749761879 -0.213359982
v 0.252878577 0.75190419 -0.2163755
v 0.252777249 0.772003233 -0.207648084
v 0.259231716 0.771989167 -0.206137463
v 0.268638134 0.724054933 -0.240081936
v 0.25521636 0.68941915 -0.254440457
v 0.267924339 0.688417137 -0.250730574
v 0.25089249 0.652729988 -0.246008605
v 0.263679653 0.652397513 -0.242452547
v 0.244130552 0.625482857 -0.220557705
v 0.257040858 0.625647485 -0.217466116
v 0.236742094 0.614978552 -0.184907153
v 0.249787286 0.615334868 -0.182466343
v 0.252450854 0.74833703 -0.14272514
v 0.245952904 0.749394894 -0.143576354
v 0.253274083 0.759803355 -0.178901508
v 0.259704441 0.758649647 -0.177724987
v 0.259253979 0.750832856 -0.214867771
v 0.265629411 0.749761879 -0.213359982
v 0.230707094 0.624031603 -0.148609772
v 0.236742094 0.614978552 -0.184907153
v 0.232245937 0.683553994 -0.182904124
v 0.227642357 0.650216281 -0.121391296
v 0.228369281 0.686516643 -0.110544734
v 0.225150287 0.726662636 -0.154922634
v 0.221261904 0.732189715 -0.185383901
v 0.232693017 0.723205626 -0.118976668
v 0.239455104 0.750452936 -0.144427568
v 0.247938231 0.875844002 -0.139233544
v 0.242288202 0.851896286 -0.118448786
v 0.236931294 0.804434896 -0.176725388
v 0.25423643 0.885879755 -0.169184268
v 0.257040858 0.625647485 -0.217466116
v 0.249787286 0.615334868 -0.182466343
v 0.24386245 0.624222636 -0.1468312
v 0.240853727 0.649929404 -0.120109253
v 0.263679653 0.652397513 -0.242452547
v 0.241567373 0.68556726 -0.109460749
v 0.267924339 0.688417137 -0.250730574
v 0.245812222 0.721587002 -0.117738642
v 0.268638134 0.724054933 -0.240081936
v 0.252450854 0.74833703 -0.14272514
v 0.265629411 0.749761879 -0.213359982
v 0.259704441 0.758649647 -0.177724987
v 0.265686482 0.771974981 -0.204626918
v 0.259502858 0.762122393 -0.175222933
v 0.254339904 0.768568039 -0.144698948
v 0.251580507 0.789584577 -0.121234126
v 0.271233201 0.795485914 -0.225032493
v 0.25196442 0.819540918 -0.111115798
v 0.274657428 0.82635504 -0.230971679
v 0.255388647 0.850410223 -0.117055051
v 0.275041342 0.856311381 -0.220853344
v 0.260935515 0.873920977 -0.137460634
v 0.272281945 0.877328098 -0.19738853
v 0.267118841 0.883773565 -0.166864619
v 0.921312749 -0.362035394 -0.0696078464
v 0.921312988 -0.2620354 -0.0696079209
v 0.101880342 -0.2620354 -0.0696079209
v 0.101880036 -0.362035394 -0.0696078464
v 0.921312988 -0.2620354 -0.0696079209
v 0.921312749 -0.362035394 -0.0696078464
v 0.921312749 -0.362035394 -0.0483634956
v 0.921312988 -0.2620354 -0.0483634956
v 0.101880036 -0.362035394 -0.0696078464
v 0.101880342 -0.2620354 -0.0696079209
v 0.101880342 -0.2620354 -0.0483634956
v 0.101880036 -0.362035394 -0.0483634956
v 0.101880342 -0.2620354 -0.0696079209
v 0.921312988 -0.2620354 -0.0696079209
v 0.921312988 -0.2620354 -0.0483634956
v 0.101880342 -0.2620354 -0.0483634956
v 0.921312749 -0.362035394 -0.0696078464
v 0.101880036 -0.362035394 -0.0696078464
v 0.101880036 -0.362035394 -0.0483634956
v 0.921312749 -0.362035394 -0.0483634956
v -0.0459342934 0.568227291 0.00056808471
v -0.0459350571 0.568227291 -0.0164005272
v 0.458008111 0.568227291 -0.0164005272
v 0.458007038 0.568227291 0.00056808471
v 0.950611115 0.567778409 -0.0164005272
v 0.950610578 0.567778528 0.00056808471
v -0.0459350571 0.53816551 -0.0164005272
v -0.0459342934 0.53816551 0.00056808471
v 0.458007038 0.53816551 0.00056808471
v 0.458008111 0.53816551 -0.0164005272
v 0.950610638 0.538614273 0.00056808471
v 0.950611174 0.538614273 -0.0164005272
v -0.0459350571 0.53816551 -0.0164005272
v -0.0459350571 0.568227291 -0.0164005272
v -0.0459342934 0.568227291 0.00056808471
v -0.0459342934 0.53816551 0.00056808471
v 0.458008111 0.53816551 -0.0164005272
v 0.950611174 0.538614273 -0.0164005272
v 0.950611115 0.567778409 -0.0164005272
v 0.458008111 0.568227291 -0.0164005272
v -0.0459350571 0.53816551 -0.0164005272
v -0.0459350571 0.568227291 -0.0164005272
v 0.0645231605 0.629725397 0.00180847163
v 0.459744245 0.628996193 0.00186553947
v 0.459746689 1.23921502 0.0433300771
v 0.38143447 1.24168658 0.0434925817
v 0.481515795 0.628268957 0.00179557793
v 0.880612493 0.628444433 0.00180557242
v 0.880532205 1.23968768 0.0433409102
v 0.481515646 1.23980367 0.0433477014
v 0.459744394 0.628355145 0.025373688
v 0.0645132437 0.629154563 0.0253207386
v 0.381361544 1.24104393 0.0670003518
v 0.459744245 1.23852587 0.0668351725
v 0.481515795 0.627777338 0.0253569018
v 0.481515646 1.23911202 0.0668975785
v 0.880633533 1.23910296 0.0668969676
v 0.880633533 0.627778828 0.0253570545
v 0.951312542 1.30998254 0.0752115622
v 0.335809022 1.30998254 0.0752116367
v 0.335856915 1.31024778 0.0576442704
v 0.951262951 1.31026888 0.057645414
v 0.951312304 -0.362035275 -0.0307487473
v 0.00736663816 -0.362035275 -0.0307487473
v 0.00736663816 -0.362035275 -0.0131742097
v 0.951312304 -0.362035275 -0.0131742097
v 0.335856915 1.31024778 0.0576442704
v 0.335809022 1.30998254 0.0752116367
v -0.0831780955 0.500740707 0.0223705284
v -0.083184354 0.50106436 0.00480644219
v 0.951312542 1.30998254 0.0752115622
v 0.951262951 1.31026888 0.057645414
v 0.951287687 0.474116743 0.0134483334
v 0.951312363 0.473973751 0.0310186762
v 0.951312304 -0.362035275 -0.0307487473
v 0.951312304 -0.362035275 -0.0131742097
v -0.00736663816 0.362364411 -0.00438934332
v 0.00736663816 -0.362035275 -0.0131742097
v 0.00736663816 -0.362035275 -0.0307487473
v -0.00736663816 0.362035275 0.0131742852
v -0.0831780955 0.500740707 0.0223705284
v -0.083184354 0.50106436 0.00480644219
v 0.951262951 1.31026888 0.057645414
v 0.95121336 1.31055474 0.0400791913
v 0.951262772 0.474259704 -0.00412200904
v 0.951287687 0.474116743 0.0134483334
v 0.951312304 -0.362035275 -0.0483232886
v 0.951312304 -0.362035275 -0.0307487473
v 0.951262951 1.31026888 0.057645414
v 0.335856915 1.31024778 0.0576442704
v 0.335904688 1.31051302 0.040076904
v 0.95121336 1.31055474 0.0400791913
v -0.0831906125 0.501388013 -0.0127576441
v 0.335904688 1.31051302 0.040076904
v 0.335856915 1.31024778 0.0576442704
v -0.083184354 0.50106436 0.00480644219
v -0.00736663816 0.362364411 -0.00438934332
v -0.0831906125 0.501388013 -0.0127576441
v -0.083184354 0.50106436 0.00480644219
v -0.00736663816 0.362693697 -0.0219530482
v 0.00736663816 -0.362035275 -0.0483232886
v 0.00736663816 -0.362035275 -0.0307487473
v 0.951312304 -0.362035275 -0.0483232886
v 0.00736663816 -0.362035275 -0.0483232886
v 0.00736663816 -0.362035275 -0.0307487473
v 0.951312304 -0.362035275 -0.0307487473
v 0.67646867 0.0927176997 0.0441025533
v 0.67646867 0.0927176997 -0.00415161112
v 0.74186492 0.196097523 -0.00415161112
v 0.74186492 0.196097523 0.0557046495
v 0.276609808 0.0927176997 0.0441025533
v 0.67646867 0.0927176997 0.0441025533
v 0.74186492 0.196097523 0.0557046495
v 0.211213529 0.196097523 0.0557046495
v 0.74186492 0.196097523 0.0557046495
v 0.74186492 0.196097523 -0.00415161112
v 0.80106914 0.156609908 -0.00415161112
v 0.80106914 0.156609908 0.074477233
v 0.211213529 0.196097523 0.0557046495
v 0.74186492 0.196097523 0.0557046495
v 0.80106914 0.156609908 0.074477233
v 0.152009279 0.156609908 0.074477233
v 0.80106914 0.156609908 0.074477233
v 0.80106914 0.156609908 -0.00415161112
v 0.80106914 0.0227673724 -0.00415161112
v 0.80106914 0.0227673724 0.074477233
v 0.152009279 0.156609908 0.074477233
v 0.80106914 0.156609908 0.074477233
v 0.80106914 0.0227673724 0.074477233
v 0.152009279 0.0227673724 0.074477233
v 0.80106914 0.0227673724 0.074477233
v 0.80106914 0.0227673724 -0.00415161112
v 0.741864741 0.0227672197 -0.00415161112
v 0.741864741 0.0227672197 0.0557046495
v 0.152009279 0.0227673724 0.074477233
v 0.80106914 0.0227673724 0.074477233
v 0.741864741 0.0227672197 0.0557046495
v 0.211213529 0.0227672197 0.0557046495
v 0.211213529 0.196097523 -0.00415161112
v 0.276609808 0.0927176997 -0.00415161112
v 0.276609808 0.0927176997 0.0441025533
v 0.211213529 0.196097523 0.0557046495
v 0.152009279 0.156609908 -0.00415161112
v 0.211213529 0.196097523 -0.00415161112
v 0.211213529 0.196097523 0.0557046495
v 0.152009279 0.156609908 0.074477233
v 0.152009279 0.0227673724 -0.00415161112
v 0.152009279 0.156609908 -0.00415161112
v 0.152009279 0.156609908 0.074477233
v 0.152009279 0.0227673724 0.074477233
v 0.211213529 0.0227672197 -0.00415161112
v 0.152009279 0.0227673724 -0.00415161112
v 0.152009279 0.0227673724 0.074477233
v 0.211213529 0.0227672197 0.0557046495
v 0.804541588 0.476977766 -0.0133779906
v 0.843223393 0.491013706 -0.0198483281
v 0.843223393 0.492959052 -0.0122294612
v 0.806299865 0.475758731 -0.020944519
v 0.788519144 0.438395619 -0.0161508173
v 0.791005671 0.438930273 -0.0235913079
v 0.804541469 0.399813294 -0.0189234912
v 0.791005671 0.438930273 -0.0235913079
v 0.788519144 0.438395619 -0.0161508173
v 0.806299865 0.402101815 -0.0262380969
v 0.843223393 0.383832008 -0.0200721733
v 0.843223393 0.38684684 -0.0273341369
v 0.881905019 0.399813294 -0.0189234912
v 0.843223393 0.38684684 -0.0273341369
v 0.843223393 0.383832008 -0.0200721733
v 0.880146921 0.402101815 -0.0262379441
v 0.897927582 0.438395441 -0.0161508173
v 0.895440936 0.438930124 -0.0235913079
v 0.881905019 0.476977766 -0.0133779906
v 0.895440936 0.438930124 -0.0235913079
v 0.897927582 0.438395441 -0.0161508173
v 0.880146921 0.475758731 -0.020944519
v 0.843223393 0.492959052 -0.0122294612
v 0.843223393 0.491013706 -0.0198483281
v 0.880146921 0.402101815 -0.0262379441
v 0.895440936 0.438930124 -0.0235913079
v 0.880146921 0.475758731 -0.020944519
v 0.843223393 0.38684684 -0.0273341369
v 0.843223393 0.491013706 -0.0198483281
v 0.806299865 0.402101815 -0.0262380969
v 0.806299865 0.475758731 -0.020944519
v 0.791005671 0.438930273 -0.0235913079
v 0.143213496 0.475316077 -0.0215580743
v 0.139297947 0.486911535 -0.00793395936
v 0.139297947 0.389781713 -0.0142201232
v 0.143213496 0.403036565 -0.0262359604
v 0.139297947 0.486911535 -0.00793395936
v 0.143213496 0.475316077 -0.0215580743
v 0.173338011 0.476336569 -0.0316944867
v 0.173338011 0.492041528 -0.00760192843
v 0.648921192 0.493451595 -0.00751083344
v 0.619808018 0.48273322 -0.0321682729
v 0.173338011 0.476336569 -0.0316944867
v 0.143213496 0.475316077 -0.0215580743
v 0.143213496 0.403036565 -0.0262359604
v 0.173338011 0.40333122 -0.0364195257
v 0.619808018 0.48273322 -0.0321682729
v 0.619807899 0.397048414 -0.0377137735
v 0.625075996 0.474304259 -0.0279495232
v 0.648921013 0.482959509 -0.00818984956
v 0.648921192 0.493451595 -0.00751083344
v 0.625075996 0.404863209 -0.0324436948
v 0.648921013 0.393733144 -0.0139645385
v 0.648921013 0.383241028 -0.0146437073
v 0.648921013 0.482959509 -0.00818984956
v 0.625075996 0.474304259 -0.0279495232
v 0.56163162 0.45946753 -0.0307499692
v 0.558803976 0.461901456 -0.00955276471
v 0.56163162 0.45946753 -0.0307499692
v 0.625075996 0.474304259 -0.0279495232
v 0.625075996 0.404863209 -0.0324436948
v 0.56163162 0.419937193 -0.0333082564
v 0.558803976 0.414791316 -0.0126016233
v 0.558803976 0.461901456 -0.00955276471
v 0.56163162 0.45946753 -0.0307499692
v 0.56163162 0.419937193 -0.0333082564
v 0.139297947 0.389781713 -0.0142201232
v 0.173338011 0.40333122 -0.0364195257
v 0.143213496 0.403036565 -0.0262359604
v 0.173338011 0.384651572 -0.0145521546
v 0.648921013 0.383241028 -0.0146437073
v 0.619807899 0.397048414 -0.0377137735
v 0.648921013 0.393733144 -0.0139645385
v 0.558803976 0.414791316 -0.0126016233
v 0.56163162 0.419937193 -0.0333082564
v 0.625075996 0.404863209 -0.0324436948
v 0.455835879 0.635028422 -0.00433059689
v 0.455838144 1.23317814 0.0363139324
v 0.456537008 1.22052836 0.0427601598
v 0.456534863 0.64766866 0.00383407576
v 0.438336164 0.616937757 0.0296531674
v 0.0975761414 0.630601287 0.0259060655
v 0.439775079 0.630342901 0.0258750916
v 0.0810301155 0.617207527 0.0296855159
v -0.0831780955 0.500740707 0.0223705284
v -0.00736663816 0.362035275 0.0131742852
v 0.00736663816 -0.362035275 -0.0131742097
v 0.503336191 0.6169402 0.0296533965
v 0.951312304 -0.362035275 -0.0131742097
v 0.0684217811 0.635183632 0.030747069
v 0.335809022 1.30998254 0.0752116367
v 0.0855007917 0.647817314 0.0269227587
v 0.0975761414 0.630601287 0.0259060655
v 0.455836028 0.63440007 0.0307989493
v 0.439775079 0.630342901 0.0258750916
v 0.456535012 0.64706701 0.0269724261
v 0.485836178 0.634402394 0.0307990257
v 0.455835879 1.2325027 0.071440354
v 0.485266715 0.647069156 0.0269725025
v 0.502026796 0.630345225 0.0258753207
v 0.379003435 1.23497093 0.0716023222
v 0.382950902 1.22224522 0.0660506412
v 0.0855007917 0.647817314 0.0269227587
v 0.422216028 1.25051212 0.0726220682
v 0.456534863 1.2198813 0.0658954605
v 0.4250862 1.23712945 0.0670272037
v 0.485836029 1.23250186 0.071440354
v 0.4250862 1.23712945 0.0670272037
v 0.382950902 1.22224522 0.0660506412
v 0.503335893 1.24996388 0.0725858286
v 0.502026498 1.23660433 0.066992566
v 0.858813286 1.24995577 0.0725854486
v 0.951312542 1.30998254 0.0752115622
v 0.842474222 1.23659658 0.066992186
v 0.502026498 1.23660433 0.066992566
v 0.87631315 1.23249304 0.071439743
v 0.951312363 0.473973751 0.0310186762
v 0.859234154 1.21987224 0.0658949241
v 0.842474222 1.23659658 0.066992186
v 0.87631315 0.634403884 0.0307991784
v 0.859234154 0.647070527 0.0269726552
v 0.859234154 1.21987224 0.0658949241
v 0.858813286 0.61694175 0.0296533965
v 0.502026796 0.630345225 0.0258753207
v 0.842474222 0.630346715 0.0258753207
v 0.842474222 0.630346715 0.0258753207
v 0.859234154 0.647070527 0.0269726552
v 0.455835879 1.2325027 0.071440354
v 0.455836028 0.63440007 0.0307989493
v 0.456535012 0.64706701 0.0269724261
v 0.456534863 1.2198813 0.0658954605
v 0.485836029 1.23317862 0.0363140106
v 0.485836178 0.634883344 -0.00433853129
v 0.485266715 0.64752984 0.00382652273
v 0.485266566 1.22052872 0.0427602381
v 0.485836178 0.634402394 0.0307990257
v 0.485836029 1.23250186 0.071440354
v 0.485266566 1.21988058 0.0658954605
v 0.485266715 0.647069156 0.0269725025
v 0.821041703 0.479394436 0.0189147945
v 0.818680108 0.459815115 0.0521982573
v 0.812214971 0.451742917 0.0476992801
v 0.810675621 0.464175165 0.0180010218
v 0.810675502 0.423057318 0.0154414363
v 0.812214971 0.431710273 0.0464521796
v 0.821041703 0.407842159 0.0144605255
v 0.818680108 0.423142314 0.0499152355
v 0.844941378 0.484760821 0.019248886
v 0.818680108 0.459815115 0.0521982573
v 0.821041703 0.479394436 0.0189147945
v 0.832829416 0.46397987 0.0616187267
v 0.868718565 0.479394436 0.0189147945
v 0.847007871 0.46214667 0.0703392029
v 0.818352818 0.458296716 0.0830924213
v 0.80141598 0.455805421 0.0667598695
v 0.663711667 0.450695246 0.0734448209
v 0.664237499 0.45282799 0.0863619223
v 0.659894705 0.449842125 0.0747752339
v 0.660107076 0.451296151 0.0848828852
v 0.879012883 0.464189529 0.0179682914
v 0.847007871 0.46214667 0.0703392029
v 0.868718565 0.479394436 0.0189147945
v 0.853164792 0.453171909 0.0735487342
v 0.879012883 0.423046947 0.015407104
v 0.822058856 0.450622022 0.0862758607
v 0.818352818 0.458296716 0.0830924213
v 0.664237499 0.45282799 0.0863619223
v 0.853164792 0.427086413 0.0719247386
v 0.868718565 0.407842159 0.0144605255
v 0.847007871 0.418578863 0.0676270276
v 0.822058856 0.42803809 0.0848700702
v 0.818352818 0.420817494 0.080759123
v 0.664258838 0.430867225 0.0878005177
v 0.664237499 0.42583853 0.0846816972
v 0.660107076 0.42754218 0.0834042355
v 0.659361422 0.431709051 0.0850470737
v 0.664258838 0.447451383 0.0888329297
v 0.660107076 0.451296151 0.0848828852
v 0.659361422 0.446957618 0.0859964713
v 0.663711667 0.450695246 0.0734448209
v 0.659894705 0.449842125 0.0747752339
v 0.65914762 0.44598946 0.0731518567
v 0.663515329 0.445997685 0.0703465268
v 0.80141598 0.455805421 0.0667598695
v 0.663515329 0.434602588 0.0696372241
v 0.65914762 0.434262902 0.0724217221
v 0.663711548 0.429556966 0.0721287504
v 0.659894705 0.430238575 0.0735548362
v 0.797353983 0.432572395 0.0615937039
v 0.80141598 0.425315171 0.0648616776
v 0.797353983 0.449009478 0.0626168028
v 0.812214971 0.431710273 0.0464521796
v 0.812214971 0.451742917 0.0476992801
v 0.818680108 0.459815115 0.0521982573
v 0.659894705 0.449842125 0.0747752339
v 0.660107076 0.451296151 0.0848828852
v 0.659361422 0.446957618 0.0859964713
v 0.65914762 0.44598946 0.0731518567
v 0.65914762 0.434262902 0.0724217221
v 0.659361422 0.431709051 0.0850470737
v 0.659894705 0.430238575 0.0735548362
v 0.660107076 0.42754218 0.0834042355
v 0.821041703 0.407842159 0.0144605255
v 0.834752619 0.415058047 0.058672484
v 0.844941378 0.402475655 0.0141265104
v 0.818680108 0.423142314 0.0499152355
v 0.80141598 0.425315171 0.0648616776
v 0.818352818 0.420817494 0.080759123
v 0.664237499 0.42583853 0.0846816972
v 0.797353983 0.432572395 0.0615937039
v 0.812214971 0.431710273 0.0464521796
v 0.663711548 0.429556966 0.0721287504
v 0.659894705 0.430238575 0.0735548362
v 0.660107076 0.42754218 0.0834042355
v 0.844941378 0.402475655 0.0141265104
v 0.847007871 0.418578863 0.0676270276
v 0.868718565 0.407842159 0.0144605255
v 0.834752619 0.415058047 0.058672484
v 0.818352818 0.420817494 0.080759123
v 0.821041703 0.47475028 -0.0114883417
v 0.812214971 0.451189488 -0.0437069684
v 0.818680108 0.459790111 -0.0470879339
v 0.810675621 0.459545195 -0.012614822
v 0.810675502 0.418453753 -0.0155679313
v 0.812214971 0.431169659 -0.0451457202
v 0.821041703 0.403243929 -0.0166272726
v 0.818680108 0.423140794 -0.0497217551
v 0.844941378 0.480113298 -0.0111029809
v 0.821041703 0.47475028 -0.0114883417
v 0.818680108 0.459790111 -0.0470879339
v 0.832829416 0.465175241 -0.0558679961
v 0.868718565 0.47475028 -0.0114883417
v 0.847007871 0.464522779 -0.064755246
v 0.818352818 0.462410182 -0.0779082477
v 0.80141598 0.457760394 -0.0620545186
v 0.663711667 0.453588635 -0.069361873
v 0.664237499 0.457426965 -0.0818785876
v 0.659894705 0.452920765 -0.0707943738
v 0.660107076 0.455711275 -0.0806174427
v 0.879012883 0.459555119 -0.0125804134
v 0.868718565 0.47475028 -0.0114883417
v 0.847007871 0.464522779 -0.064755246
v 0.853164792 0.456056893 -0.069134213
v 0.879012883 0.418438941 -0.0155352782
v 0.822058856 0.455229104 -0.082087934
v 0.818352818 0.462410182 -0.0779082477
v 0.664237499 0.457426965 -0.0818785876
v 0.853164792 0.429988176 -0.0710076913
v 0.868718565 0.403243929 -0.0166272726
v 0.847007871 0.420983046 -0.0678842887
v 0.822058856 0.432659686 -0.0837099403
v 0.818352818 0.424954891 -0.0805999711
v 0.664258838 0.435854852 -0.0862364918
v 0.664237499 0.430454791 -0.0838169828
v 0.660107076 0.431972563 -0.0823234543
v 0.659361422 0.436321467 -0.0833953097
v 0.664258838 0.452428341 -0.0850453898
v 0.660107076 0.455711275 -0.0806174427
v 0.659361422 0.451560289 -0.0823001862
v 0.663711667 0.453588635 -0.069361873
v 0.65914762 0.448885709 -0.0696998611
v 0.659894705 0.452920765 -0.0707943738
v 0.663515329 0.448519349 -0.0669186413
v 0.80141598 0.457760394 -0.0620545186
v 0.663515329 0.437131554 -0.0677370429
v 0.65914762 0.43716681 -0.0705419928
v 0.663711548 0.432463914 -0.0708799735
v 0.659894705 0.43332985 -0.0722023025
v 0.797353983 0.434045792 -0.0600365438
v 0.80141598 0.427289814 -0.0642443076
v 0.818680108 0.423140794 -0.0497217551
v 0.812214971 0.431169659 -0.0451457202
v 0.797353983 0.450472325 -0.0588559695
v 0.812214971 0.451189488 -0.0437069684
v 0.818680108 0.459790111 -0.0470879339
v 0.659894705 0.452920765 -0.0707943738
v 0.659361422 0.451560289 -0.0823001862
v 0.660107076 0.455711275 -0.0806174427
v 0.65914762 0.448885709 -0.0696998611
v 0.65914762 0.43716681 -0.0705419928
v 0.659361422 0.436321467 -0.0833953097
v 0.659894705 0.43332985 -0.0722023025
v 0.660107076 0.431972563 -0.0823234543
v 0.821041703 0.403243929 -0.0166272726
v 0.844941378 0.397880942 -0.0170127098
v 0.834752619 0.416298121 -0.0594799779
v 0.818680108 0.423140794 -0.0497217551
v 0.80141598 0.427289814 -0.0642443076
v 0.818352818 0.424954891 -0.0805999711
v 0.664237499 0.430454791 -0.0838169828
v 0.663711548 0.432463914 -0.0708799735
v 0.659894705 0.43332985 -0.0722023025
v 0.660107076 0.431972563 -0.0823234543
v 0.844941378 0.397880942 -0.0170127098
v 0.868718565 0.403243929 -0.0166272726
v 0.847007871 0.420983046 -0.0678842887
v 0.834752619 0.416298121 -0.0594799779
v 0.818352818 0.424954891 -0.0805999711
v 0.11824356 0.752130806 -0.146821216
v 0.112093806 0.761216938 -0.150976941
v 0.0798141435 0.759359479 -0.094795756
v 0.0877899155 0.749883652 -0.094343029
v 0.115276486 0.772183001 -0.148269728
v 0.0898915082 0.743742108 -0.0266682431
v 0.0839390531 0.770978749 -0.0935900882
v 0.0822023004 0.752745271 -0.0233885944
v 0.0859968513 0.764479101 -0.0233428944
vt 0.286621094 0.181152344
vt 0.293701172 0.185546875
vt 0.286132812 0.182617188
vt 0.305175781 0.190429688
vt 0.3046875 0.194580078
vt 0.300537109 0.189575195
vt 0.482421875 0.629882812
vt 0.480224609 0.627441406
vt 0.48046875 0.625976562
vt 0.482421875 0.629882812
vt 0.48046875 0.625976562
vt 0.482421875 0.627929688
vt 0.526855469 0.629882812
vt 0.482421875 0.627929688
vt 0.524414062 0.628417969
vt 0.462158203 0.637207031
vt 0.537597656 0.63671875
vt 0.528808594 0.627929688
vt 0.524414062 0.628417969
vt 0.526855469 0.625976562
vt 0.528320312 0.552246094
vt 0.526855469 0.625976562
vt 0.526367188 0.553710938
vt 0.536621094 0.533203125
vt 0.525878906 0.549804688
vt 0.526367188 0.553710938
vt 0.523925781 0.551757812
vt 0.418945312 0.4296875
vt 0.535644531 0.429199219
vt 0.481201172 0.55078125
vt 0.523925781 0.551757812
vt 0.481201172 0.552246094
vt 0.472900391 0.55078125
vt 0.479003906 0.552734375
vt 0.481201172 0.552246094
vt 0.479248047 0.5546875
vt 0.475341797 0.553222656
vt 0.475097656 0.5546875
vt 0.473144531 0.552246094
vt 0.428222656 0.551757812
vt 0.473144531 0.552246094
vt 0.430175781 0.553710938
vt 0.415039062 0.520019531
vt 0.407958984 0.538574219
vt 0.426513672 0.554199219
vt 0.430175781 0.553710938
vt 0.428710938 0.555664062
vt 0.466796875 0.628417969
vt 0.428710938 0.555664062
vt 0.467285156 0.626464844
vt 0.470214844 0.629882812
vt 0.467285156 0.626464844
vt 0.470458984 0.628417969
vt 0.4765625 0.627441406
vt 0.480224609 0.627441406
vt 0.470458984 0.628417969
vt 0.476318359 0.625976562
vt 0.585449219 0.961425781
vt 0.583496094 0.961914062
vt 0.585449219 0.959472656
vt 0.475341797 0.553222656
vt 0.479003906 0.552734375
vt 0.480224609 0.627441406
vt 0.586914062 0.884765625
vt 0.589355469 0.961425781
vt 0.585449219 0.961425781
vt 0.292236328 0.282714844
vt 0.296142578 0.278808594
vt 0.326416016 0.278564453
vt 0.330078125 0.282714844
vt 0.330078125 0.282714844
vt 0.326416016 0.278564453
vt 0.326171875 0.266357422
vt 0.330078125 0.262451172
vt 0.330078125 0.262451172
vt 0.326171875 0.266357422
vt 0.295898438 0.266601562
vt 0.292236328 0.262451172
vt 0.292236328 0.262451172
vt 0.295898438 0.266601562
vt 0.296142578 0.278808594
vt 0.292236328 0.282714844
vt 0.326171875 0.266357422
vt 0.326416016 0.278564453
vt 0.296142578 0.278808594
vt 0.295898438 0.266601562
vt 0.326660156 0.206298828
vt 0.324707031 0.207275391
vt 0.321289062 0.201416016
vt 0.322998047 0.200195312
vt 0.319091797 0.195068359
vt 0.317626953 0.197509766
vt 0.286621094 0.181152344
vt 0.287109375 0.17980957
vt 0.294677734 0.182739258
vt 0.294433594 0.184204102
vt 0.301757812 0.186767578
vt 0.30078125 0.183105469
vt 0.327392578 0.213745117
vt 0.331787109 0.221069336
vt 0.329833984 0.221679688
vt 0.329345703 0.212890625
vt 0.326660156 0.206298828
vt 0.324707031 0.207275391
vt 0.329345703 0.212890625
vt 0.333984375 0.220703125
vt 0.331787109 0.221069336
vt 0.331542969 0.212402344
vt 0.328369141 0.205566406
vt 0.326660156 0.206298828
vt 0.322998047 0.200195312
vt 0.324707031 0.19921875
vt 0.319091797 0.195068359
vt 0.323242188 0.193725586
vt 0.296386719 0.190795898
vt 0.293701172 0.185546875
vt 0.300537109 0.189575195
vt 0.29296875 0.186767578
vt 0.285888672 0.183959961
vt 0.286132812 0.182617188
vt 0.278320312 0.182128906
vt 0.278564453 0.180541992
vt 0.269775391 0.178955078
vt 0.269775391 0.180541992
vt 0.286621094 0.181152344
vt 0.294433594 0.184204102
vt 0.293701172 0.185546875
vt 0.300537109 0.189575195
vt 0.301757812 0.186767578
vt 0.305175781 0.190429688
vt 0.306152344 0.187255859
vt 0.297607422 0.193115234
vt 0.296386719 0.190795898
vt 0.300537109 0.189575195
vt 0.3046875 0.194580078
vt 0.303710938 0.198608398
vt 0.301513672 0.201782227
vt 0.297851562 0.203613281
vt 0.293701172 0.203857422
vt 0.306152344 0.187255859
vt 0.301757812 0.186767578
vt 0.30078125 0.183105469
vt 0.304199219 0.18371582
vt 0.308837891 0.182861328
vt 0.30078125 0.177124023
vt 0.310058594 0.178344727
vt 0.309326172 0.173828125
vt 0.306884766 0.170166016
vt 0.302734375 0.167602539
vt 0.323242188 0.193725586
vt 0.319091797 0.195068359
vt 0.3203125 0.19152832
vt 0.315917969 0.192626953
vt 0.314208984 0.194946289
vt 0.317626953 0.197509766
vt 0.317626953 0.200805664
vt 0.309082031 0.205322266
vt 0.309326172 0.201416016
vt 0.317626953 0.200805664
vt 0.311279297 0.197875977
vt 0.314208984 0.194946289
vt 0.294189453 0.205566406
vt 0.293701172 0.203857422
vt 0.297851562 0.203613281
vt 0.298339844 0.205200195
vt 0.301513672 0.201782227
vt 0.302490234 0.203125
vt 0.303710938 0.198608398
vt 0.305175781 0.199584961
vt 0.3046875 0.194580078
vt 0.305175781 0.190429688
vt 0.306152344 0.190673828
vt 0.306152344 0.19519043
vt 0.305175781 0.199584961
vt 0.303710938 0.198608398
vt 0.306640625 0.19140625
vt 0.310302734 0.19152832
vt 0.310058594 0.192260742
vt 0.313476562 0.194335938
vt 0.315917969 0.192626953
vt 0.314208984 0.194946289
vt 0.315185547 0.192016602
vt 0.317626953 0.18762207
vt 0.31640625 0.186645508
vt 0.314697266 0.191162109
vt 0.320068359 0.183959961
vt 0.319091797 0.182617188
vt 0.323242188 0.1796875
vt 0.310302734 0.19152832
vt 0.315185547 0.192016602
vt 0.313476562 0.194335938
vt 0.310058594 0.191040039
vt 0.306152344 0.190673828
vt 0.307128906 0.1875
vt 0.313476562 0.194335938
vt 0.314208984 0.194946289
vt 0.311279297 0.197875977
vt 0.309814453 0.197265625
vt 0.309326172 0.201416016
vt 0.307617188 0.201171875
vt 0.3125 0.194458008
vt 0.310058594 0.192260742
vt 0.310302734 0.19152832
vt 0.307617188 0.201171875
vt 0.309326172 0.201416016
vt 0.309082031 0.205322266
vt 0.307373047 0.205688477
vt 0.310791016 0.208984375
vt 0.309326172 0.209838867
vt 0.313720703 0.211669922
vt 0.312255859 0.212890625
vt 0.323242188 0.1796875
vt 0.323730469 0.181274414
vt 0.320068359 0.183959961
vt 0.328369141 0.178955078
vt 0.328369141 0.180541992
vt 0.333251953 0.179931641
vt 0.333007812 0.181762695
vt 0.310546875 0.183227539
vt 0.308837891 0.182861328
vt 0.310058594 0.178344727
vt 0.307128906 0.1875
vt 0.307861328 0.187255859
vt 0.306152344 0.187255859
vt 0.305175781 0.190429688
vt 0.306152344 0.190673828
vt 0.310546875 0.183227539
vt 0.310058594 0.178344727
vt 0.311767578 0.178344727
vt 0.309326172 0.173828125
vt 0.311035156 0.173217773
vt 0.306884766 0.170166016
vt 0.308105469 0.168945312
vt 0.302734375 0.167602539
vt 0.303955078 0.166137695
vt 0.314697266 0.191162109
vt 0.315185547 0.192016602
vt 0.310058594 0.191040039
vt 0.310546875 0.190307617
vt 0.307128906 0.1875
vt 0.307861328 0.187255859
vt 0.328369141 0.180541992
vt 0.333007812 0.181762695
vt 0.327148438 0.189453125
vt 0.323730469 0.181274414
vt 0.320068359 0.183959961
vt 0.3203125 0.19152832
vt 0.323242188 0.193725586
vt 0.317626953 0.18762207
vt 0.315917969 0.192626953
vt 0.310791016 0.208984375
vt 0.309082031 0.205322266
vt 0.317626953 0.200805664
vt 0.313720703 0.211669922
vt 0.0859985352 0.353271484
vt 0.0936279297 0.347412109
vt 0.103271484 0.345947266
vt 0.112243652 0.349609375
vt 0.0823364258 0.362304688
vt 0.118225098 0.357421875
vt 0.0836791992 0.371826172
vt 0.119567871 0.366943359
vt 0.0896606445 0.379638672
vt 0.115905762 0.375976562
vt 0.0986328125 0.383300781
vt 0.108276367 0.381835938
vt 0.0918579102 0.348388672
vt 0.101196289 0.345947266
vt 0.110473633 0.348632812
vt 0.1171875 0.35546875
vt 0.0849609375 0.354980469
vt 0.119567871 0.364746094
vt 0.0823364258 0.364257812
vt 0.116943359 0.374023438
vt 0.0847167969 0.373779297
vt 0.110046387 0.380859375
vt 0.0914306641 0.380615234
vt 0.100708008 0.383300781
vt 0.124816895 0.791992188
vt 0.125244141 0.775878906
vt 0.250488281 0.775878906
vt 0.25 0.791992188
vt 0.125244141 0.775878906
vt 0.124816895 0.791992188
vt 0.122253418 0.795898438
vt 0.122253418 0.771972656
vt 0.25 0.791992188
vt 0.250488281 0.775878906
vt 0.252929688 0.771972656
vt 0.252929688 0.795898438
vt 0.250488281 0.775878906
vt 0.125244141 0.775878906
vt 0.122253418 0.771972656
vt 0.252929688 0.771972656
vt 0.124816895 0.791992188
vt 0.25 0.791992188
vt 0.252929688 0.795898438
vt 0.122253418 0.795898438
vt 0.115234375 0.742675781
vt 0.116516113 0.740722656
vt 0.197021484 0.741210938
vt 0.197021484 0.743652344
vt 0.263183594 0.740722656
vt 0.263183594 0.743164062
vt 0.116760254 0.737304688
vt 0.115356445 0.735351562
vt 0.197021484 0.734863281
vt 0.197021484 0.737304688
vt 0.262939453 0.734375
vt 0.263183594 0.736816406
vt 0.116760254 0.737304688
vt 0.116516113 0.740722656
vt 0.115234375 0.742675781
vt 0.115356445 0.735351562
vt 0.197021484 0.737304688
vt 0.263183594 0.736816406
vt 0.263183594 0.740722656
vt 0.197021484 0.741210938
vt 0.116760254 0.737304688
vt 0.116516113 0.740722656
vt 0.922851562 0.354003906
vt 0.986328125 0.354003906
vt 0.985351562 0.451904297
vt 0.97265625 0.451904297
vt 0.921875 0.354003906
vt 0.986328125 0.353515625
vt 0.986328125 0.452148438
vt 0.922851562 0.451904297
vt 0.984863281 0.354248047
vt 0.922851562 0.354492188
vt 0.97265625 0.451660156
vt 0.984863281 0.451416016
vt 0.922363281 0.354003906
vt 0.922363281 0.451416016
vt 0.985839844 0.450439453
vt 0.985351562 0.354248047
vt 0.526855469 0.96875
vt 0.604492188 0.970703125
vt 0.60546875 0.97265625
vt 0.525390625 0.970214844
vt 0.526367188 0.757324219
vt 0.649902344 0.757324219
vt 0.647949219 0.758300781
vt 0.528320312 0.758300781
vt 0.60546875 0.97265625
vt 0.604492188 0.970703125
vt 0.659179688 0.869140625
vt 0.661132812 0.869140625
vt 0.526855469 0.96875
vt 0.525390625 0.970214844
vt 0.525878906 0.863769531
vt 0.52734375 0.863769531
vt 0.526367188 0.757324219
vt 0.528320312 0.758300781
vt 0.653808594 0.850097656
vt 0.647949219 0.758300781
vt 0.649902344 0.757324219
vt 0.651855469 0.850585938
vt 0.659179688 0.869140625
vt 0.661132812 0.869140625
vt 0.538574219 0.638671875
vt 0.537597656 0.63671875
vt 0.536621094 0.533203125
vt 0.538085938 0.533203125
vt 0.535644531 0.429199219
vt 0.537597656 0.428222656
vt 0.538574219 0.638671875
vt 0.461425781 0.639160156
vt 0.462158203 0.637207031
vt 0.537597656 0.63671875
vt 0.407958984 0.538574219
vt 0.462158203 0.637207031
vt 0.461425781 0.639160156
vt 0.405761719 0.538574219
vt 0.412841797 0.51953125
vt 0.407958984 0.538574219
vt 0.405761719 0.538574219
vt 0.415039062 0.520019531
vt 0.418945312 0.4296875
vt 0.417236328 0.428466797
vt 0.535644531 0.429199219
vt 0.418945312 0.4296875
vt 0.417236328 0.428466797
vt 0.537597656 0.428222656
vt 0.424072266 0.708984375
vt 0.425292969 0.7109375
vt 0.421142578 0.715820312
vt 0.419433594 0.712890625
vt 0.424072266 0.6875
vt 0.424072266 0.708984375
vt 0.419433594 0.712890625
vt 0.419433594 0.68359375
vt 0.419433594 0.712890625
vt 0.421142578 0.715820312
vt 0.418212891 0.719238281
vt 0.417480469 0.715332031
vt 0.419433594 0.68359375
vt 0.419433594 0.712890625
vt 0.417480469 0.715332031
vt 0.417480469 0.681152344
vt 0.417480469 0.715332031
vt 0.418212891 0.719238281
vt 0.410644531 0.718261719
vt 0.411865234 0.715332031
vt 0.417480469 0.681152344
vt 0.417480469 0.715332031
vt 0.411865234 0.715332031
vt 0.411865234 0.681152344
vt 0.411865234 0.715332031
vt 0.410644531 0.718261719
vt 0.408935547 0.71484375
vt 0.411132812 0.712402344
vt 0.411865234 0.681152344
vt 0.411865234 0.715332031
vt 0.411132812 0.712402344
vt 0.411132812 0.684082031
vt 0.421142578 0.681152344
vt 0.425292969 0.685546875
vt 0.424072266 0.6875
vt 0.419433594 0.68359375
vt 0.418212891 0.677246094
vt 0.421142578 0.681152344
vt 0.419433594 0.68359375
vt 0.417480469 0.681152344
vt 0.410644531 0.678710938
vt 0.418212891 0.677246094
vt 0.417480469 0.681152344
vt 0.411865234 0.681152344
vt 0.408935547 0.682128906
vt 0.410644531 0.678710938
vt 0.411865234 0.681152344
vt 0.411132812 0.684082031
vt 0.358642578 0.908691406
vt 0.362304688 0.911621094
vt 0.362060547 0.912109375
vt 0.359375 0.908691406
vt 0.358642578 0.904296875
vt 0.359375 0.904785156
vt 0.362060547 0.900878906
vt 0.359375 0.904785156
vt 0.358642578 0.904296875
vt 0.362304688 0.901855469
vt 0.366699219 0.900878906
vt 0.366210938 0.901855469
vt 0.369873047 0.904296875
vt 0.366210938 0.901855469
vt 0.366699219 0.900878906
vt 0.369140625 0.904785156
vt 0.369873047 0.908691406
vt 0.369140625 0.908691406
vt 0.366699219 0.912109375
vt 0.369140625 0.908691406
vt 0.369873047 0.908691406
vt 0.366455078 0.911621094
vt 0.362060547 0.912109375
vt 0.362304688 0.911621094
vt 0.369140625 0.904785156
vt 0.369140625 0.908691406
vt 0.366455078 0.911621094
vt 0.366210938 0.901855469
vt 0.362304688 0.911621094
vt 0.362304688 0.901855469
vt 0.359375 0.908691406
vt 0.359375 0.904785156
vt 0.734863281 0.970703125
vt 0.736816406 0.967773438
vt 0.737304688 0.987792969
vt 0.735351562 0.984863281
vt 0.736816406 0.967773438
vt 0.734863281 0.970703125
vt 0.729003906 0.971191406
vt 0.729492188 0.965820312
vt 0.641113281 0.965820312
vt 0.645019531 0.970703125
vt 0.729003906 0.971191406
vt 0.734863281 0.970703125
vt 0.735351562 0.984863281
vt 0.729492188 0.984863281
vt 0.645019531 0.970703125
vt 0.645507812 0.987792969
vt 0.643066406 0.971191406
vt 0.640625 0.966796875
vt 0.641113281 0.965820312
vt 0.643554688 0.987304688
vt 0.641113281 0.991699219
vt 0.641601562 0.992675781
vt 0.640625 0.966796875
vt 0.643066406 0.971191406
vt 0.636230469 0.977050781
vt 0.633300781 0.975585938
vt 0.636230469 0.977050781
vt 0.643066406 0.971191406
vt 0.643554688 0.987304688
vt 0.63671875 0.981933594
vt 0.633300781 0.983398438
vt 0.633300781 0.975585938
vt 0.636230469 0.977050781
vt 0.63671875 0.981933594
vt 0.737304688 0.987792969
vt 0.729492188 0.984863281
vt 0.735351562 0.984863281
vt 0.729980469 0.989746094
vt 0.641601562 0.992675781
vt 0.645507812 0.987792969
vt 0.641113281 0.991699219
vt 0.633300781 0.983398438
vt 0.63671875 0.981933594
vt 0.643554688 0.987304688
vt 0.475341797 0.553222656
vt 0.4765625 0.627441406
vt 0.476318359 0.625976562
vt 0.475097656 0.5546875
vt 0.593261719 0.882324219
vt 0.63671875 0.884765625
vt 0.593261719 0.884277344
vt 0.638671875 0.883300781
vt 0.659179688 0.869140625
vt 0.651855469 0.850585938
vt 0.647949219 0.758300781
vt 0.584960938 0.882324219
vt 0.528320312 0.758300781
vt 0.640625 0.885253906
vt 0.604492188 0.970703125
vt 0.638183594 0.887207031
vt 0.63671875 0.884765625
vt 0.590820312 0.884765625
vt 0.593261719 0.884277344
vt 0.590820312 0.886230469
vt 0.586914062 0.884765625
vt 0.589355469 0.961425781
vt 0.586914062 0.886230469
vt 0.584960938 0.883789062
vt 0.599609375 0.961914062
vt 0.599121094 0.959960938
vt 0.638183594 0.887207031
vt 0.596191406 0.963867188
vt 0.589355469 0.959472656
vt 0.595703125 0.961914062
vt 0.585449219 0.961425781
vt 0.595703125 0.961914062
vt 0.599121094 0.959960938
vt 0.583496094 0.963378906
vt 0.583496094 0.961914062
vt 0.537597656 0.962402344
vt 0.526855469 0.96875
vt 0.540039062 0.9609375
vt 0.583496094 0.961914062
vt 0.535644531 0.960449219
vt 0.52734375 0.863769531
vt 0.537597656 0.958496094
vt 0.540039062 0.9609375
vt 0.537109375 0.883789062
vt 0.5390625 0.885253906
vt 0.537597656 0.958496094
vt 0.5390625 0.881347656
vt 0.584960938 0.883789062
vt 0.541503906 0.883300781
vt 0.541503906 0.883300781
vt 0.5390625 0.885253906
vt 0.589355469 0.961425781
vt 0.590820312 0.884765625
vt 0.590820312 0.886230469
vt 0.589355469 0.959472656
vt 0.480224609 0.627441406
vt 0.479003906 0.552734375
vt 0.479248047 0.5546875
vt 0.48046875 0.625976562
vt 0.586914062 0.884765625
vt 0.585449219 0.961425781
vt 0.585449219 0.959472656
vt 0.586914062 0.886230469
vt 0.281738281 0.828125
vt 0.275634766 0.833496094
vt 0.273681641 0.831542969
vt 0.278320312 0.827148438
vt 0.273193359 0.822265625
vt 0.270507812 0.828613281
vt 0.270751953 0.819824219
vt 0.268798828 0.827148438
vt 0.286132812 0.830566406
vt 0.275634766 0.833496094
vt 0.281738281 0.828125
vt 0.278076172 0.836425781
vt 0.290283203 0.834472656
vt 0.280029297 0.839355469
vt 0.274169922 0.83984375
vt 0.270751953 0.836425781
vt 0.247680664 0.84375
vt 0.247802734 0.845214844
vt 0.247192383 0.84375
vt 0.247314453 0.845214844
vt 0.292236328 0.837890625
vt 0.280029297 0.839355469
vt 0.290283203 0.834472656
vt 0.280517578 0.841308594
vt 0.292724609 0.847167969
vt 0.274902344 0.841308594
vt 0.274169922 0.83984375
vt 0.247802734 0.845214844
vt 0.281005859 0.846191406
vt 0.291748047 0.851074219
vt 0.280761719 0.848144531
vt 0.274902344 0.846191406
vt 0.274169922 0.848144531
vt 0.245117188 0.847167969
vt 0.244506836 0.848144531
vt 0.244140625 0.84375
vt 0.244750977 0.845214844
vt 0.247680664 0.845703125
vt 0.247314453 0.845214844
vt 0.246826172 0.845214844
vt 0.247680664 0.84375
vt 0.247192383 0.84375
vt 0.246826172 0.843261719
vt 0.247436523 0.842773438
vt 0.270751953 0.836425781
vt 0.246459961 0.841796875
vt 0.24597168 0.842285156
vt 0.24621582 0.840820312
vt 0.245727539 0.841796875
vt 0.267089844 0.832519531
vt 0.266357422 0.831054688
vt 0.269287109 0.835449219
vt 0.270507812 0.828613281
vt 0.273681641 0.831542969
vt 0.275634766 0.833496094
vt 0.247192383 0.84375
vt 0.247314453 0.845214844
vt 0.246826172 0.845214844
vt 0.246826172 0.843261719
vt 0.24597168 0.842285156
vt 0.244750977 0.845214844
vt 0.245727539 0.841796875
vt 0.244140625 0.84375
vt 0.270751953 0.819824219
vt 0.265136719 0.825683594
vt 0.266601562 0.817382812
vt 0.268798828 0.827148438
vt 0.266357422 0.831054688
vt 0.265869141 0.827636719
vt 0.243774414 0.840820312
vt 0.267089844 0.832519531
vt 0.270507812 0.828613281
vt 0.24621582 0.840820312
vt 0.245727539 0.841796875
vt 0.244140625 0.84375
vt 0.288574219 0.854980469
vt 0.280761719 0.848144531
vt 0.291748047 0.851074219
vt 0.280029297 0.851074219
vt 0.274169922 0.848144531
vt 0.278076172 0.774414062
vt 0.275634766 0.782226562
vt 0.277832031 0.782226562
vt 0.275634766 0.775878906
vt 0.270263672 0.775878906
vt 0.271484375 0.782226562
vt 0.267333984 0.774902344
vt 0.26953125 0.781738281
vt 0.282226562 0.772949219
vt 0.278076172 0.774414062
vt 0.277832031 0.782226562
vt 0.28125 0.782226562
vt 0.287109375 0.771972656
vt 0.284179688 0.782226562
vt 0.281005859 0.786621094
vt 0.276855469 0.787109375
vt 0.267089844 0.809570312
vt 0.268310547 0.810058594
vt 0.267089844 0.809570312
vt 0.268066406 0.810546875
vt 0.290527344 0.772949219
vt 0.287109375 0.771972656
vt 0.284179688 0.782226562
vt 0.285888672 0.783203125
vt 0.297363281 0.77734375
vt 0.282714844 0.787597656
vt 0.281005859 0.786621094
vt 0.268310547 0.810058594
vt 0.289794922 0.785644531
vt 0.299560547 0.780273438
vt 0.291259766 0.786621094
vt 0.286376953 0.790039062
vt 0.287353516 0.791503906
vt 0.269287109 0.812988281
vt 0.269775391 0.813964844
vt 0.265625 0.811523438
vt 0.267089844 0.812011719
vt 0.268798828 0.810546875
vt 0.268066406 0.810546875
vt 0.268066406 0.811035156
vt 0.267089844 0.809570312
vt 0.266357422 0.809570312
vt 0.267089844 0.809570312
vt 0.266601562 0.809082031
vt 0.276855469 0.787109375
vt 0.265136719 0.809082031
vt 0.265380859 0.810058594
vt 0.264648438 0.809082031
vt 0.265136719 0.810058594
vt 0.271484375 0.787109375
vt 0.270019531 0.786621094
vt 0.26953125 0.781738281
vt 0.271484375 0.782226562
vt 0.274902344 0.787597656
vt 0.275634766 0.782226562
vt 0.277832031 0.782226562
vt 0.267089844 0.809570312
vt 0.268066406 0.811035156
vt 0.268066406 0.810546875
vt 0.266357422 0.809570312
vt 0.265380859 0.810058594
vt 0.267089844 0.812011719
vt 0.265136719 0.810058594
vt 0.265625 0.811523438
vt 0.267333984 0.774902344
vt 0.262695312 0.774902344
vt 0.265869141 0.782226562
vt 0.26953125 0.781738281
vt 0.270019531 0.786621094
vt 0.267089844 0.784179688
vt 0.262695312 0.810058594
vt 0.264648438 0.809082031
vt 0.265136719 0.810058594
vt 0.265625 0.811523438
vt 0.301025391 0.784667969
vt 0.299560547 0.780273438
vt 0.291259766 0.786621094
vt 0.293212891 0.788574219
vt 0.287353516 0.791503906
vt 0.287109375 0.17980957
vt 0.286621094 0.181152344
vt 0.278808594 0.178955078
vt 0.279296875 0.177490234
vt 0.286132812 0.182617188
vt 0.270507812 0.17578125
vt 0.278564453 0.180541992
vt 0.269775391 0.177246094
vt 0.269775391 0.178955078
vn -0.622558594 -0.152832031 -0.767578125
vn -0.0999755859 0.785644531 -0.610839844
vn -0.420410156 0.764160156 -0.489257812
vn -0.205200195 -0.0152664185 -0.978515625
vn -0.590332031 0.229003906 -0.773925781
vn -0.36328125 0.589355469 -0.721679688
vn -0 0.0509643555 -0.998535156
vn -0 0.0676879883 -0.997558594
vn 0.468017578 -0.41796875 -0.778808594
vn -0 0.0509643555 -0.998535156
vn 0.468017578 -0.41796875 -0.778808594
vn 0.468017578 -0.41796875 -0.778808594
vn -0 0.0509643555 -0.998535156
vn -0.000153303146 -0.431152344 -0.90234375
vn -0.000153303146 -0.431152344 -0.90234375
vn 0.00955963135 0.0530395508 -0.998535156
vn -0.00991821289 0.057220459 -0.998535156
vn -0 0.0676879883 -0.997558594
vn -0.234008789 -0.17175293 -0.95703125
vn -0.234008789 -0.17175293 -0.95703125
vn -0 0.0676879883 -0.997558594
vn -0.392578125 0.0623168945 -0.917480469
vn -0.392578125 0.0623168945 -0.917480469
vn 0.00746154785 0.0444030762 -0.999023438
vn -0 0.0676879883 -0.997558594
vn -0.229125977 0.290527344 -0.929199219
vn -0.229125977 0.290527344 -0.929199219
vn -0 1.78813934E-07 -1
vn -0 1.78813934E-07 -1
vn -0 0.0676879883 -0.997558594
vn -2.02655792E-06 0.5234375 -0.852050781
vn -2.02655792E-06 0.5234375 -0.852050781
vn 0.000231027603 0.067565918 -0.997558594
vn -0 0.0676879883 -0.997558594
vn 0.445068359 0.499755859 -0.743164062
vn 0.445068359 0.499755859 -0.743164062
vn 0.000231027603 0.067565918 -0.997558594
vn -0.453857422 0.500976562 -0.736816406
vn -0.453857422 0.500976562 -0.736816406
vn 0.000231027603 0.067565918 -0.997558594
vn 0.000470399857 0.522949219 -0.852050781
vn 0.000470399857 0.522949219 -0.852050781
vn -0 0.0658569336 -0.998046875
vn -0.00128173828 0.0647583008 -0.998046875
vn 0.000231027603 0.067565918 -0.997558594
vn 0.266601562 0.243041992 -0.932617188
vn 0.266601562 0.243041992 -0.932617188
vn 0.000231027603 0.067565918 -0.997558594
vn 0.553710938 -0.232421875 -0.799316406
vn 0.553710938 -0.232421875 -0.799316406
vn 0.000231027603 0.067565918 -0.997558594
vn 0.162597656 -0.400146484 -0.901855469
vn 0.162597656 -0.400146484 -0.901855469
vn 0.000231027603 0.067565918 -0.997558594
vn -0 0.0676879883 -0.997558594
vn -0.275390625 -0.455078125 -0.846679688
vn -0.275390625 -0.455078125 -0.846679688
vn -0 -0.0676879883 0.997558594
vn 0.334716797 -0.391601562 0.856933594
vn 0.334716797 -0.391601562 0.856933594
vn 0.000231027603 0.067565918 -0.997558594
vn -0 0.0676879883 -0.997558594
vn -0 0.0676879883 -0.997558594
vn -0 -0.0676879883 0.997558594
vn -0.000231027603 -0.067565918 0.997558594
vn -0 -0.0676879883 0.997558594
vn -0.813476562 0.442626953 -0.377685547
vn -0.813476562 0.442626953 -0.377685547
vn -0.813476562 0.442626953 -0.377685547
vn -0.813476562 0.442626953 -0.377685547
vn 0.419921875 0.81640625 -0.396240234
vn 0.286621094 0.553710938 -0.781738281
vn 0.286621094 0.553710938 -0.781738281
vn 0.419921875 0.81640625 -0.396240234
vn 0.8359375 -0.403076172 -0.372070312
vn 0.8359375 -0.403076172 -0.372070312
vn 0.8359375 -0.403076172 -0.372070312
vn 0.8359375 -0.403076172 -0.372070312
vn -0.392578125 -0.769042969 -0.504882812
vn -0.236816406 -0.467285156 -0.8515625
vn -0.236816406 -0.467285156 -0.8515625
vn -0.392578125 -0.769042969 -0.504882812
vn 0.286621094 0.553710938 -0.781738281
vn 0.286621094 0.553710938 -0.781738281
vn -0.236816406 -0.467285156 -0.8515625
vn -0.236816406 -0.467285156 -0.8515625
vn 0.606933594 0.343017578 0.716796875
vn 0.365722656 0.818359375 0.443359375
vn -0.0983886719 0.993164062 -0.061706543
vn -0.118713379 0.332519531 0.935546875
vn -0.748535156 0.229614258 0.622070312
vn -0.529296875 0.8359375 0.14465332
vn -0.622558594 -0.152832031 -0.767578125
vn -0.0433959961 -0.9921875 -0.118591309
vn -0.311523438 -0.933105469 -0.179931641
vn -0.11895752 -0.166625977 -0.979003906
vn -0.196777344 -0.0643920898 -0.978515625
vn -0.51953125 -0.751953125 -0.405517578
vn 0.460693359 0.824707031 0.328369141
vn 0.918457031 0.380859375 0.105407715
vn 0.540527344 0.833007812 0.117614746
vn 0.788085938 0.35546875 0.502441406
vn 0.606933594 0.343017578 0.716796875
vn 0.365722656 0.818359375 0.443359375
vn 0.443603516 -0.872070312 0.20703125
vn -0.0536804199 -0.994140625 -0.0960083008
vn 0.528808594 -0.84765625 -0.0375976562
vn -0.0544128418 -0.992675781 -0.108825684
vn -0.0433959961 -0.9921875 -0.118591309
vn 0.333007812 -0.879882812 0.339355469
vn -0.314697266 -0.791992188 0.522949219
vn -0.311523438 -0.933105469 -0.179931641
vn -0.612792969 -0.629394531 0.477783203
vn -0.51953125 -0.751953125 -0.405517578
vn -0.529296875 0.8359375 0.14465332
vn -0.0999755859 0.785644531 -0.610839844
vn -0.36328125 0.589355469 -0.721679688
vn -0.0983886719 0.993164062 -0.061706543
vn 0.365722656 0.818359375 0.443359375
vn -0.420410156 0.764160156 -0.489257812
vn 0.460693359 0.824707031 0.328369141
vn -0.577148438 0.755371094 -0.310302734
vn -0.691894531 0.721679688 0.0125579834
vn 0.540527344 0.833007812 0.117614746
vn -0.622558594 -0.152832031 -0.767578125
vn -0.11895752 -0.166625977 -0.979003906
vn -0.0999755859 0.785644531 -0.610839844
vn -0.36328125 0.589355469 -0.721679688
vn -0.196777344 -0.0643920898 -0.978515625
vn -0.205200195 -0.0152664185 -0.978515625
vn -0.487304688 0.153198242 -0.859863281
vn -0.885253906 0.406738281 -0.225097656
vn -0.529296875 0.8359375 0.14465332
vn -0.36328125 0.589355469 -0.721679688
vn -0.590332031 0.229003906 -0.773925781
vn -0.821289062 0.0832519531 -0.564453125
vn -0.841308594 0.1640625 -0.515136719
vn -0.868652344 0.208251953 -0.44921875
vn -0.898925781 0.219848633 -0.378662109
vn -0.487304688 0.153198242 -0.859863281
vn -0.196777344 -0.0643920898 -0.978515625
vn -0.51953125 -0.751953125 -0.405517578
vn -0.570800781 0.0850219727 -0.816894531
vn -0.656738281 0.402832031 -0.637695312
vn -0.906738281 -0.0483703613 -0.418457031
vn -0.860839844 0.0756225586 -0.502929688
vn -0.869140625 0.0127410889 -0.494628906
vn -0.888671875 -0.0375976562 -0.456542969
vn -0.915527344 -0.0589599609 -0.397705078
vn -0.51953125 -0.751953125 -0.405517578
vn -0.612792969 -0.629394531 0.477783203
vn -0.980957031 0.115783691 0.155761719
vn -0.257568359 0.425292969 0.867675781
vn -0.331542969 -0.313720703 0.889648438
vn -0.529296875 0.8359375 0.14465332
vn -0.885253906 0.406738281 -0.225097656
vn -0.95703125 0.1484375 -0.249023438
vn -0.976074219 0.0615234375 -0.208496094
vn -0.885253906 0.406738281 -0.225097656
vn -0.966308594 -0.123535156 -0.22644043
vn -0.932128906 0.194091797 0.305908203
vn 0.123840332 0.985839844 0.114074707
vn 0.123840332 0.985839844 0.114074707
vn 0.316650391 0.880371094 -0.352539062
vn 0.316650391 0.880371094 -0.352539062
vn 0.445556641 0.537597656 -0.715820312
vn 0.445556641 0.537597656 -0.715820312
vn 0.476074219 0.0492248535 -0.877929688
vn 0.476074219 0.0492553711 -0.877929688
vn 0.408935547 -0.420410156 -0.810058594
vn 0.456542969 -0.0703125 -0.88671875
vn 0.343261719 -0.636230469 -0.690917969
vn 0.408935547 -0.419677734 -0.810546875
vn 0.476074219 0.0492553711 -0.877929688
vn 0.476074219 0.0492248535 -0.877929688
vn 0.204101562 -0.8828125 -0.422607422
vn 0.0330200195 -0.998535156 -0.0464477539
vn 0.0330200195 -0.998535156 -0.0464477539
vn -0.233764648 -0.749511719 0.619628906
vn -0.257568359 0.425292969 0.867675781
vn -0.331542969 -0.313720703 0.889648438
vn -0.12902832 0.723144531 0.678710938
vn -0.229614258 0.438232422 0.869140625
vn -0.229736328 0.4375 0.869140625
vn -0.0203094482 0.884277344 0.466308594
vn -0.302978516 -0.0271606445 0.952636719
vn -0.302978516 -0.0271606445 0.952636719
vn -0.280029297 -0.520507812 0.806640625
vn 0.915527344 -0.0738525391 0.394775391
vn 0.915527344 -0.0738525391 0.394775391
vn 0.915527344 -0.0738525391 0.394775391
vn 0.915527344 -0.0738525391 0.394775391
vn 0.915527344 -0.0738525391 0.394775391
vn 0.915527344 -0.0738525391 0.394775391
vn -0.233764648 -0.749511719 0.619628906
vn -0.331542969 -0.313720703 0.889648438
vn -0.294433594 -0.518554688 0.802734375
vn -0.294677734 -0.518066406 0.803222656
vn -0.319335938 -0.0618896484 0.945800781
vn -0.319335938 -0.0618896484 0.945800781
vn -0.130249023 -0.9296875 0.344238281
vn 0.0330200195 -0.998535156 -0.0464477539
vn 0.0330200195 -0.998535156 -0.0464477539
vn -0.319335938 -0.0618896484 0.945800781
vn -0.319335938 -0.0618896484 0.945800781
vn -0.243286133 0.441650391 0.863769531
vn -0.243286133 0.441650391 0.863769531
vn -0.0811157227 0.825195312 0.559082031
vn -0.0811157227 0.825195312 0.559082031
vn 0.123840332 0.985839844 0.114074707
vn 0.123840332 0.985839844 0.114074707
vn -0.280029297 -0.520507812 0.806640625
vn -0.280029297 -0.520507812 0.806640625
vn -0.302978516 -0.0271606445 0.952636719
vn -0.157104492 -0.876464844 0.455322266
vn -0.157104492 -0.876464844 0.455322266
vn 0.0325012207 -0.999511719 -0.00752258301
vn 0.0325012207 -0.999511719 -0.00752258301
vn 0.469482422 0.472412109 -0.74609375
vn 0.469482422 0.473144531 -0.745605469
vn 0.487304688 0.0122909546 -0.873046875
vn 0.388427734 0.759277344 -0.522460938
vn 0.312011719 0.900878906 -0.301513672
vn 0.432861328 0.541503906 -0.720703125
vn 0.456542969 -0.0703125 -0.88671875
vn 0.343261719 -0.636230469 -0.690917969
vn 0.469482422 0.472412109 -0.74609375
vn 0.487304688 0.0122909546 -0.873046875
vn 0.487304688 0.012298584 -0.873046875
vn 0.404541016 -0.486328125 -0.774414062
vn 0.404541016 -0.486328125 -0.774414062
vn 0.23815918 -0.856445312 -0.457519531
vn 0.23815918 -0.856445312 -0.457519531
vn 0.0325012207 -0.999511719 -0.00752258301
vn 0.0325012207 -0.999511719 -0.00752258301
vn -0.0203094482 0.884277344 0.466308594
vn -0.12902832 0.723144531 0.678710938
vn 0.151733398 0.984375 0.0869750977
vn 0.151733398 0.984375 0.0869750977
vn 0.388427734 0.759277344 -0.522460938
vn 0.312011719 0.900878906 -0.301513672
vn -0.940917969 -0.042755127 -0.336181641
vn -0.915527344 -0.0589599609 -0.397705078
vn -0.906738281 -0.0483703613 -0.418457031
vn -0.956542969 0.00607681274 -0.291259766
vn -0.975097656 -0.0132064819 -0.221923828
vn -0.980957031 0.115783691 0.155761719
vn -0.51953125 -0.751953125 -0.405517578
vn -0.903808594 0.427246094 0.0245819092
vn -0.913574219 0.279541016 0.295410156
vn -0.9296875 0.200317383 -0.309814453
vn -0.95703125 0.1484375 -0.249023438
vn -0.885253906 0.406738281 -0.225097656
vn -0.898925781 0.219848633 -0.378662109
vn 0.98046875 -0.0738525391 0.181518555
vn 0.98046875 -0.0738525391 0.181518555
vn 0.98046875 -0.0738525391 0.181518555
vn 0.98046875 -0.0738525391 0.181518555
vn 0.98046875 -0.0738525391 0.181518555
vn 0.98046875 -0.0738525391 0.181518555
vn 0.98046875 -0.0738525391 0.181518555
vn 0.98046875 -0.0738525391 0.181518555
vn 0.98046875 -0.0738525391 0.181518555
vn 0.98046875 -0.0738525391 0.181518555
vn 0.98046875 -0.0738525391 0.181518555
vn 0.98046875 -0.0738525391 0.181518555
vn 0.98046875 -0.0738525391 0.181518555
vn 0.98046875 -0.0738525391 0.181518555
vn 0.98046875 -0.0738525391 0.181518555
vn 0.98046875 -0.0738525391 0.181518555
vn 0.98046875 -0.0738525391 0.181518555
vn 0.98046875 -0.0738525391 0.181518555
vn 0.98046875 -0.0738525391 0.181518555
vn 0.98046875 -0.0738525391 0.181518555
vn 0.98046875 -0.0738525391 0.181518555
vn 0.98046875 -0.0738525391 0.181518555
vn 0.98046875 -0.0738525391 0.181518555
vn 0.98046875 -0.0738525391 0.181518555
vn -0 -1.78813934E-07 -1
vn -0 -1.78813934E-07 -1
vn -0 -1.78813934E-07 -1
vn -0 -1.78813934E-07 -1
vn 1 -2.38418579E-06 0
vn 1 -2.38418579E-06 0
vn 1 -2.38418579E-06 0
vn 1 -2.38418579E-06 0
vn -1 2.38418579E-06 0
vn -1 2.38418579E-06 0
vn -1 2.38418579E-06 0
vn -1 2.38418579E-06 0
vn -0 1 -1.78813934E-07
vn -0 1 -1.78813934E-07
vn -0 1 -1.78813934E-07
vn -0 1 -1.78813934E-07
vn -0 -1 1.78813934E-07
vn -0 -1 1.78813934E-07
vn -0 -1 1.78813934E-07
vn -0 -1 1.78813934E-07
vn -0 1 -1.25169754E-06
vn -0 1 -1.25169754E-06
vn 0.000450372696 1 -8.94069672E-07
vn 0.000450372696 1 -8.94069672E-07
vn 0.000911235809 1 -5.36441803E-07
vn 0.000911235809 1 -5.36441803E-07
vn -0 -1 -1.43051147E-06
vn -0 -1 -1.43051147E-06
vn 0.000450372696 -1 -1.43051147E-06
vn 0.000450372696 -1 -1.43051147E-06
vn 0.000911235809 -1 -1.49011612E-06
vn 0.000911235809 -1 -1.49011612E-06
vn -1 0 4.49419022E-05
vn -1 0 4.49419022E-05
vn -1 0 4.49419022E-05
vn -1 0 4.49419022E-05
vn -0 0 -1
vn -0 0 -1
vn -0 0 -1
vn -0 0 -1
vn -0 0 -1
vn -0 0 -1
vn 0.000231027603 0.067565918 -0.997558594
vn 0.000231027603 0.067565918 -0.997558594
vn 0.000231027603 0.067565918 -0.997558594
vn 0.000231027603 0.067565918 -0.997558594
vn -0 0.0676879883 -0.997558594
vn -0 0.0676879883 -0.997558594
vn -0 0.0676879883 -0.997558594
vn -0 0.0676879883 -0.997558594
vn -0.000231027603 -0.067565918 0.997558594
vn -0.000231027603 -0.067565918 0.997558594
vn -0.000231027603 -0.067565918 0.997558594
vn -0.000231027603 -0.067565918 0.997558594
vn -0 -0.0676879883 0.997558594
vn -0 -0.0676879883 0.997558594
vn -0 -0.0676879883 0.997558594
vn -0 -0.0676879883 0.997558594
vn -8.26120377E-05 0.998535156 0.054107666
vn -0.000309467316 0.998535156 0.0530395508
vn -3.39150429E-05 1 0.0156860352
vn -3.39150429E-05 1 0.0156860352
vn -0 -1 0
vn -0 -1 0
vn -0 -1 0
vn -0 -1 0
vn -0.888183594 0.459472656 0.00665283203
vn -0.888183594 0.459472656 0.0192718506
vn -0.888183594 0.458007812 0.0312194824
vn -0.888183594 0.459472656 0.00665283203
vn 1 0.000649929047 -0.00989532471
vn 1 0.00014090538 -0.00211524963
vn 1 0.000104308128 -0.00141048431
vn 1 9.04202461E-05 -0.00142860413
vn 1 6.78300858E-05 -0.000705242157
vn 1 -4.70876694E-06 0
vn -0.994628906 -0.104248047 -0.00175285339
vn -1 0 0
vn -1 -0.020324707 -0.000190496445
vn -0.986328125 -0.165283203 -0.0102233887
vn -0.877929688 -0.477783203 -0.0307159424
vn -0.877441406 -0.479248047 -0.00875091553
vn 1 0.00014090538 -0.00211524963
vn -0.00991821289 0.057220459 -0.998535156
vn 1 0.000118196011 -0.0013923645
vn 1 0.000104308128 -0.00141048431
vn -0 1.78813934E-07 -1
vn 1 6.78300858E-05 -0.000705242157
vn -3.39150429E-05 1 0.0156860352
vn -3.39150429E-05 1 0.0156860352
vn 0.00955963135 0.0530395508 -0.998535156
vn -0.00991821289 0.057220459 -0.998535156
vn -0.002161026 0.0646362305 -0.998046875
vn 0.00955963135 0.0530395508 -0.998535156
vn -0.888183594 0.459472656 0.00665283203
vn -0.888183594 0.459472656 0.00665283203
vn -0.994628906 -0.104248047 -0.00175285339
vn -0.00128173828 0.0647583008 -0.998046875
vn -0.877441406 -0.479248047 -0.00875091553
vn -0 0.0658569336 -0.998046875
vn -0 1.78813934E-07 -1
vn -1 -0.020324707 -0.000190496445
vn -0 1.78813934E-07 -1
vn -0 1.78813934E-07 -1
vn -0 -1 0
vn -0 -1 0
vn -0.845214844 0.534667969 0
vn -0.845214844 0.534667969 0
vn -0.845214844 0.534667969 0
vn -0.845214844 0.534667969 0
vn -0 0.11151123 -0.993652344
vn -0 0.11151123 -0.993652344
vn -0 0.11151123 -0.993652344
vn -0 0.11151123 -0.993652344
vn 0.5546875 0.83203125 0
vn 0.5546875 0.83203125 0
vn 0.5546875 0.83203125 0
vn 0.5546875 0.83203125 0
vn -0 0.429443359 0.903320312
vn -0 0.429443359 0.903320312
vn -0 0.429443359 0.903320312
vn -0 0.429443359 0.903320312
vn 1 0 0
vn 1 0 0
vn 1 0 0
vn 1 0 0
vn -0 0 1
vn -0 0 1
vn -0 0 1
vn -0 0 1
vn 2.56299973E-06 -1 0
vn 2.56299973E-06 -1 0
vn 2.56299973E-06 -1 0
vn 2.56299973E-06 -1 0
vn -0 -1 8.82148743E-06
vn -0 -1 8.82148743E-06
vn -0 -1 8.82148743E-06
vn -0 -1 8.82148743E-06
vn 0.845214844 0.534667969 0
vn 0.845214844 0.534667969 0
vn 0.845214844 0.534667969 0
vn 0.845214844 0.534667969 0
vn -0.5546875 0.83203125 0
vn -0.5546875 0.83203125 0
vn -0.5546875 0.83203125 0
vn -0.5546875 0.83203125 0
vn -1 0 0
vn -1 0 0
vn -1 0 0
vn -1 0 0
vn -2.56299973E-06 -1 0
vn -2.56299973E-06 -1 0
vn -2.56299973E-06 -1 0
vn -2.56299973E-06 -1 0
vn -0.670898438 0.691894531 -0.267333984
vn 7.74860382E-07 0.96875 -0.247436523
vn 7.15255737E-07 0.96875 -0.247436523
vn -0.670898438 0.691894531 -0.267333984
vn -0.948730469 0.0226593018 -0.315429688
vn -0.948730469 0.0226593018 -0.315429688
vn -0.670898438 -0.646484375 -0.363525391
vn -0.948730469 0.0226593018 -0.315429688
vn -0.948730469 0.0226593018 -0.315429688
vn -0.670898438 -0.646484375 -0.363525391
vn -1.78813934E-07 -0.923339844 -0.383300781
vn -5.96046448E-07 -0.923339844 -0.383300781
vn 0.670898438 -0.646484375 -0.363525391
vn -5.96046448E-07 -0.923339844 -0.383300781
vn -1.78813934E-07 -0.923339844 -0.383300781
vn 0.670898438 -0.646484375 -0.363525391
vn 0.948730469 0.0226745605 -0.315429688
vn 0.948730469 0.0226745605 -0.315429688
vn 0.670898438 0.691894531 -0.267333984
vn 0.948730469 0.0226745605 -0.315429688
vn 0.948730469 0.0226745605 -0.315429688
vn 0.670898438 0.691894531 -0.267333984
vn 7.15255737E-07 0.96875 -0.247436523
vn 7.74860382E-07 0.96875 -0.247436523
vn 4.17232513E-07 0.0716552734 -0.997558594
vn 4.17232513E-07 0.0716552734 -0.997558594
vn 4.17232513E-07 0.0716552734 -0.997558594
vn 4.17232513E-07 0.0716552734 -0.997558594
vn 4.17232513E-07 0.0716552734 -0.997558594
vn 4.17232513E-07 0.0716552734 -0.997558594
vn 4.17232513E-07 0.0716552734 -0.997558594
vn 4.17232513E-07 0.0716552734 -0.997558594
vn -0.297607422 0.699707031 -0.649414062
vn -0.307128906 0.74609375 -0.590820312
vn -0.307128906 -0.663574219 -0.682128906
vn -0.297607422 -0.610351562 -0.733886719
vn -0.307128906 0.74609375 -0.590820312
vn -0.297607422 0.699707031 -0.649414062
vn -0.113342285 0.721679688 -0.683105469
vn -0.0848999023 0.842285156 -0.532714844
vn 0.468505859 0.412109375 -0.78125
vn 0.27734375 0.557128906 -0.782714844
vn -0.113342285 0.721679688 -0.683105469
vn -0.297607422 0.699707031 -0.649414062
vn -0.297607422 -0.610351562 -0.733886719
vn -0.113342285 -0.627441406 -0.770507812
vn 0.27734375 0.557128906 -0.782714844
vn 0.27734375 -0.451904297 -0.84765625
vn 0.629882812 -0.623046875 -0.463623047
vn 0.673828125 -0.286621094 -0.681152344
vn 0.468505859 0.412109375 -0.78125
vn 0.629882812 0.677734375 -0.379394531
vn 0.673828125 0.372070312 -0.638671875
vn 0.468505859 -0.307861328 -0.828125
vn 0.673828125 -0.286621094 -0.681152344
vn 0.629882812 -0.623046875 -0.463623047
vn 0.683105469 -0.620605469 0.385253906
vn 0.751953125 -0.634765625 0.178100586
vn 0.683105469 -0.620605469 0.385253906
vn 0.629882812 -0.623046875 -0.463623047
vn 0.629882812 0.677734375 -0.379394531
vn 0.683105469 0.565429688 0.462158203
vn 0.751953125 0.606445312 0.258544922
vn 0.751953125 -0.634765625 0.178100586
vn 0.683105469 -0.620605469 0.385253906
vn 0.683105469 0.565429688 0.462158203
vn -0.307128906 -0.663574219 -0.682128906
vn -0.113342285 -0.627441406 -0.770507812
vn -0.297607422 -0.610351562 -0.733886719
vn -0.0848999023 -0.766601562 -0.63671875
vn 0.468505859 -0.307861328 -0.828125
vn 0.27734375 -0.451904297 -0.84765625
vn 0.673828125 0.372070312 -0.638671875
vn 0.751953125 0.606445312 0.258544922
vn 0.683105469 0.565429688 0.462158203
vn 0.629882812 0.677734375 -0.379394531
vn 0.000231027603 0.067565918 -0.997558594
vn 0.000231027603 0.067565918 -0.997558594
vn -0.995605469 -0.00646591187 0.0952148438
vn -0.995605469 -0.00646591187 0.0952148438
vn -0.000231027603 -0.067565918 0.997558594
vn 0.000292062759 0.271240234 0.962402344
vn 0.000292062759 0.271240234 0.962402344
vn -0.000231027603 -0.067565918 0.997558594
vn 0.00128173828 -0.0647583008 0.998046875
vn -0 -0.0658569336 0.998046875
vn -0 -1.78813934E-07 1
vn -0 -0.0676879883 0.997558594
vn -0 -1.78813934E-07 1
vn -0.000231027603 -0.067565918 0.997558594
vn -0.00955963135 -0.0530395508 0.998535156
vn 0.173217773 0.0634155273 0.982910156
vn 0.173217773 0.0634155273 0.982910156
vn -0.000231027603 -0.067565918 0.997558594
vn -0.346435547 0.288818359 0.892578125
vn -0.346435547 0.288818359 0.892578125
vn -0 -0.0676879883 0.997558594
vn -0.000231027603 -0.067565918 0.997558594
vn 0.34375 0.285644531 0.89453125
vn 0.34375 0.285644531 0.89453125
vn -0.000231027603 -0.067565918 0.997558594
vn 0.391845703 -0.262939453 0.881347656
vn 0.391845703 -0.262939453 0.881347656
vn -0.000231027603 -0.067565918 0.997558594
vn -0.189575195 -0.408447266 0.893066406
vn -0.189575195 -0.408447266 0.893066406
vn -0 -0.0676879883 0.997558594
vn 0.108886719 -0.366210938 0.924316406
vn 0.108886719 -0.366210938 0.924316406
vn -0 -0.0509643555 0.998535156
vn 0.334716797 -0.391601562 0.856933594
vn -0 -0.0509643555 0.998535156
vn 0.00991821289 -0.057220459 0.998535156
vn -7.80820847E-06 -0.386230469 0.922363281
vn -7.80820847E-06 -0.386230469 0.922363281
vn -0 -0.0676879883 0.997558594
vn -0.0197753906 -0.0460510254 0.998535156
vn -0.152954102 -0.216552734 0.964355469
vn -0.152954102 -0.216552734 0.964355469
vn -0 -0.0676879883 0.997558594
vn -0.264160156 -0.0653686523 0.962402344
vn -0.264160156 -0.0653686523 0.962402344
vn -0 -0.0676879883 0.997558594
vn -9.53674316E-07 0.271240234 0.962402344
vn -9.53674316E-07 0.271240234 0.962402344
vn -0.153930664 0.0897216797 0.983886719
vn -0.153930664 0.0897216797 0.983886719
vn -0.000231027603 -0.067565918 0.997558594
vn -0.000231027603 -0.067565918 0.997558594
vn -0.988769531 0.0100250244 -0.147460938
vn -0.988769531 0.0100250244 -0.147460938
vn -0 0.0676879883 -0.997558594
vn -0 0.0676879883 -0.997558594
vn 0.997070312 -0.00527954102 0.0776977539
vn 0.997070312 -0.00527954102 0.0776977539
vn -0 -0.0676879883 0.997558594
vn -0 -0.0676879883 0.997558594
vn 0.992675781 0.00819396973 -0.120605469
vn 0.992675781 0.00819396973 -0.120605469
vn -0.516113281 0.762695312 0.389648438
vn -0.586425781 0.80078125 0.123535156
vn -0.890136719 0.407958984 -0.20324707
vn -0.911132812 0.333007812 0.243774414
vn -0.911132812 -0.360595703 0.200683594
vn -0.890136719 -0.379638672 -0.252197266
vn -0.516113281 -0.805175781 0.292236328
vn -0.586425781 -0.809570312 0.0232849121
vn -0.031036377 0.905273438 0.423095703
vn -0.586425781 0.80078125 0.123535156
vn -0.516113281 0.762695312 0.389648438
vn -0.208007812 0.9296875 0.3046875
vn 0.493896484 0.752441406 0.435791016
vn 0.3203125 0.788574219 0.524902344
vn 0.0319519043 0.850585938 0.524414062
vn -0.227294922 0.887207031 -0.401855469
vn -0.206298828 0.803222656 -0.55859375
vn -0.237304688 0.839355469 0.488525391
vn -0.705078125 0.62109375 -0.341552734
vn -0.706542969 0.639648438 0.302246094
vn 0.880859375 0.272949219 0.386230469
vn 0.3203125 0.788574219 0.524902344
vn 0.493896484 0.752441406 0.435791016
vn 0.639160156 0.224487305 0.735351562
vn 0.880859375 -0.318847656 0.349365234
vn 0.234008789 0.16027832 0.958984375
vn 0.0319519043 0.850585938 0.524414062
vn -0.237304688 0.839355469 0.488525391
vn 0.639160156 -0.313964844 0.702148438
vn 0.493896484 -0.80078125 0.339111328
vn 0.3203125 -0.84765625 0.423339844
vn 0.234008789 -0.277832031 0.931640625
vn 0.0319519043 -0.909179688 0.415039062
vn -0.25390625 -0.2734375 0.927734375
vn -0.237304688 -0.893554688 0.380859375
vn -0.706542969 -0.672363281 0.220458984
vn -0.842773438 -0.190795898 0.502929688
vn -0.25390625 0.15625 0.954589844
vn -0.706542969 0.639648438 0.302246094
vn -0.842773438 0.126953125 0.522949219
vn -0.206298828 0.803222656 -0.55859375
vn -0.705078125 0.62109375 -0.341552734
vn -0.847167969 0.203979492 -0.490966797
vn -0.256591797 0.278808594 -0.925292969
vn -0.227294922 0.887207031 -0.401855469
vn -0.256591797 -0.161987305 -0.952636719
vn -0.847167969 -0.141479492 -0.512695312
vn -0.206298828 -0.728027344 -0.653808594
vn -0.705566406 -0.57421875 -0.415771484
vn -0.452392578 -0.311523438 -0.835449219
vn -0.227294922 -0.830566406 -0.508789062
vn -0.452392578 0.412841797 -0.790527344
vn -0.890136719 -0.379638672 -0.252197266
vn -0.890136719 0.407958984 -0.20324707
vn -0.586425781 0.80078125 0.123535156
vn -0.705078125 0.62109375 -0.341552734
vn -0.706542969 0.639648438 0.302246094
vn -0.842773438 0.126953125 0.522949219
vn -0.847167969 0.203979492 -0.490966797
vn -0.847167969 -0.141479492 -0.512695312
vn -0.842773438 -0.190795898 0.502929688
vn -0.705566406 -0.57421875 -0.415771484
vn -0.706542969 -0.672363281 0.220458984
vn -0.516113281 -0.805175781 0.292236328
vn -0.208007812 -0.959960938 0.187011719
vn -0.031036377 -0.951171875 0.307617188
vn -0.586425781 -0.809570312 0.0232849121
vn -0.227294922 -0.830566406 -0.508789062
vn 0.0319519043 -0.909179688 0.415039062
vn -0.237304688 -0.893554688 0.380859375
vn -0.452392578 -0.311523438 -0.835449219
vn -0.890136719 -0.379638672 -0.252197266
vn -0.206298828 -0.728027344 -0.653808594
vn -0.705566406 -0.57421875 -0.415771484
vn -0.706542969 -0.672363281 0.220458984
vn -0.031036377 -0.951171875 0.307617188
vn 0.3203125 -0.84765625 0.423339844
vn 0.493896484 -0.80078125 0.339111328
vn -0.208007812 -0.959960938 0.187011719
vn 0.0319519043 -0.909179688 0.415039062
vn -0.516113281 0.807617188 -0.284423828
vn -0.890136719 0.377197266 0.255859375
vn -0.586425781 0.810058594 -0.0155334473
vn -0.911132812 0.362548828 -0.197143555
vn -0.911132812 -0.330566406 -0.246948242
vn -0.890136719 -0.409912109 0.19934082
vn -0.516113281 -0.758789062 -0.396972656
vn -0.586425781 -0.799316406 -0.131225586
vn -0.031036377 0.954101562 -0.298583984
vn -0.516113281 0.807617188 -0.284423828
vn -0.586425781 0.810058594 -0.0155334473
vn -0.208007812 0.961914062 -0.177734375
vn 0.493896484 0.803710938 -0.331542969
vn 0.3203125 0.8515625 -0.415039062
vn 0.0319519043 0.913085938 -0.40625
vn -0.227294922 0.825683594 0.516601562
vn -0.206298828 0.721679688 0.661132812
vn -0.237304688 0.897460938 -0.372070312
vn -0.705078125 0.5703125 0.421386719
vn -0.706542969 0.674316406 -0.213989258
vn 0.880859375 0.322021484 -0.346191406
vn 0.493896484 0.803710938 -0.331542969
vn 0.3203125 0.8515625 -0.415039062
vn 0.639160156 0.320556641 -0.69921875
vn 0.880859375 -0.269287109 -0.388671875
vn 0.234008789 0.286865234 -0.929199219
vn 0.0319519043 0.913085938 -0.40625
vn -0.237304688 0.897460938 -0.372070312
vn 0.639160156 -0.217407227 -0.737792969
vn 0.493896484 -0.748046875 -0.443115234
vn 0.3203125 -0.783203125 -0.532714844
vn 0.234008789 -0.151000977 -0.960449219
vn 0.0319519043 -0.845703125 -0.532714844
vn -0.25390625 -0.147094727 -0.956054688
vn -0.237304688 -0.834960938 -0.496582031
vn -0.706542969 -0.63671875 -0.308349609
vn -0.842773438 -0.121948242 -0.523925781
vn -0.25390625 0.282226562 -0.925292969
vn -0.706542969 0.674316406 -0.213989258
vn -0.842773438 0.195556641 -0.500976562
vn -0.206298828 0.721679688 0.661132812
vn -0.847167969 0.13659668 0.513671875
vn -0.705078125 0.5703125 0.421386719
vn -0.256591797 0.152832031 0.954101562
vn -0.227294922 0.825683594 0.516601562
vn -0.256591797 -0.287597656 0.922851562
vn -0.847167969 -0.208618164 0.489013672
vn -0.206298828 -0.80859375 0.55078125
vn -0.705566406 -0.624511719 0.335449219
vn -0.452392578 -0.420410156 0.786621094
vn -0.227294922 -0.890625 0.393310547
vn -0.586425781 -0.799316406 -0.131225586
vn -0.890136719 -0.409912109 0.19934082
vn -0.452392578 0.303466797 0.838378906
vn -0.890136719 0.377197266 0.255859375
vn -0.586425781 0.810058594 -0.0155334473
vn -0.705078125 0.5703125 0.421386719
vn -0.842773438 0.195556641 -0.500976562
vn -0.706542969 0.674316406 -0.213989258
vn -0.847167969 0.13659668 0.513671875
vn -0.847167969 -0.208618164 0.489013672
vn -0.842773438 -0.121948242 -0.523925781
vn -0.705566406 -0.624511719 0.335449219
vn -0.706542969 -0.63671875 -0.308349609
vn -0.516113281 -0.758789062 -0.396972656
vn -0.031036377 -0.901367188 -0.431884766
vn -0.208007812 -0.926757812 -0.313476562
vn -0.586425781 -0.799316406 -0.131225586
vn -0.227294922 -0.890625 0.393310547
vn 0.0319519043 -0.845703125 -0.532714844
vn -0.237304688 -0.834960938 -0.496582031
vn -0.206298828 -0.80859375 0.55078125
vn -0.705566406 -0.624511719 0.335449219
vn -0.706542969 -0.63671875 -0.308349609
vn -0.031036377 -0.901367188 -0.431884766
vn 0.493896484 -0.748046875 -0.443115234
vn 0.3203125 -0.783203125 -0.532714844
vn -0.208007812 -0.926757812 -0.313476562
vn 0.0319519043 -0.845703125 -0.532714844
vn -0.0433959961 -0.9921875 -0.118591309
vn -0.622558594 -0.152832031 -0.767578125
vn -0.83203125 -0.166870117 -0.528808594
vn -0.0544128418 -0.992675781 -0.108825684
vn -0.420410156 0.764160156 -0.489257812
vn -0.0536804199 -0.994140625 -0.0960083008
vn -0.577148438 0.755371094 -0.310302734
vn -0.976074219 -0.196777344 -0.0936279297
vn -0.691894531 0.721679688 0.0125579834
g RodVan_InteriorDoor_0
f 3/3/3 2/2/2 1/1/1
f 6/6/6 5/5/5 4/4/4
f 9/9/9 8/8/8 7/7/7
f 12/12/12 11/11/11 10/10/10
f 14/14/14 10/10/10 13/13/13
f 15/15/15 14/14/14 13/13/13
f 13/13/13 10/10/10 16/16/16
f 13/13/13 16/16/16 17/17/17
f 17/17/17 18/18/18 13/13/13
f 19/19/19 13/13/13 18/18/18
f 20/20/20 19/19/19 18/18/18
f 17/17/17 21/21/21 18/18/18
f 22/22/22 18/18/18 21/21/21
f 23/23/23 22/22/22 21/21/21
f 21/21/21 17/17/17 24/24/24
f 24/24/24 25/25/25 21/21/21
f 26/26/26 21/21/21 25/25/25
f 27/27/27 26/26/26 25/25/25
f 28/28/28 25/25/25 24/24/24
f 24/24/24 29/29/29 28/28/28
f 28/28/28 30/30/30 25/25/25
f 31/31/31 25/25/25 30/30/30
f 32/32/32 31/31/31 30/30/30
f 28/28/28 33/33/33 30/30/30
f 34/34/34 30/30/30 33/33/33
f 35/35/35 30/30/30 34/34/34
f 36/36/36 35/35/35 34/34/34
f 37/37/37 34/34/34 33/33/33
f 38/38/38 37/37/37 33/33/33
f 39/39/39 38/38/38 33/33/33
f 28/28/28 40/40/40 33/33/33
f 41/41/41 33/33/33 40/40/40
f 42/42/42 41/41/41 40/40/40
f 28/28/28 43/43/43 40/40/40
f 43/43/43 44/44/44 40/40/40
f 45/45/45 40/40/40 44/44/44
f 46/46/46 40/40/40 45/45/45
f 47/47/47 46/46/46 45/45/45
f 45/45/45 44/44/44 16/16/16
f 16/16/16 48/48/48 45/45/45
f 49/49/49 45/45/45 48/48/48
f 50/50/50 49/49/49 48/48/48
f 51/51/51 48/48/48 16/16/16
f 52/52/52 48/48/48 51/51/51
f 53/53/53 52/52/52 51/51/51
f 10/10/10 51/51/51 16/16/16
f 54/54/54 51/51/51 10/10/10
f 55/55/55 54/54/54 10/10/10
f 54/54/54 55/55/55 37/37/37
f 51/51/51 54/54/54 56/56/56
f 54/54/54 57/57/57 56/56/56
f 60/60/60 59/59/59 58/58/58
f 63/63/63 62/62/62 61/61/61
f 66/66/66 65/65/65 64/64/64
f 69/69/69 68/68/68 67/67/67
f 70/70/70 69/69/69 67/67/67
f 73/73/73 72/72/72 71/71/71
f 74/74/74 73/73/73 71/71/71
f 77/77/77 76/76/76 75/75/75
f 78/78/78 77/77/77 75/75/75
f 81/81/81 80/80/80 79/79/79
f 82/82/82 81/81/81 79/79/79
f 85/85/85 84/84/84 83/83/83
f 86/86/86 85/85/85 83/83/83
f 89/89/89 88/88/88 87/87/87
f 90/90/90 89/89/89 87/87/87
f 89/89/89 90/90/90 91/91/91
f 92/92/92 89/89/89 91/91/91
f 95/95/95 94/94/94 93/93/93
f 96/96/96 95/95/95 93/93/93
f 95/95/95 96/96/96 97/97/97
f 98/98/98 95/95/95 97/97/97
f 101/101/101 100/100/100 99/99/99
f 100/100/100 102/102/102 99/99/99
f 99/99/99 102/102/102 103/103/103
f 104/104/104 99/99/99 103/103/103
f 107/107/107 106/106/106 105/105/105
f 106/106/106 108/108/108 105/105/105
f 105/105/105 108/108/108 109/109/109
f 110/110/110 105/105/105 109/109/109
f 111/111/111 110/110/110 109/109/109
f 112/112/112 111/111/111 109/109/109
f 113/113/113 111/111/111 112/112/112
f 114/114/114 113/113/113 112/112/112
f 117/117/117 116/116/116 115/115/115
f 116/116/116 118/118/118 115/115/115
f 119/119/119 118/118/118 116/116/116
f 120/120/120 119/119/119 116/116/116
f 121/121/121 119/119/119 120/120/120
f 122/122/122 121/121/121 120/120/120
f 122/122/122 123/123/123 121/121/121
f 123/123/123 124/124/124 121/121/121
f 127/127/127 126/126/126 125/125/125
f 126/126/126 127/127/127 128/128/128
f 129/129/129 126/126/126 128/128/128
f 128/128/128 130/130/130 129/129/129
f 129/129/129 130/130/130 131/131/131
f 134/134/134 133/133/133 132/132/132
f 134/134/134 132/132/132 135/135/135
f 132/132/132 136/136/136 135/135/135
f 132/132/132 137/137/137 136/136/136
f 132/132/132 138/138/138 137/137/137
f 139/139/139 138/138/138 132/132/132
f 142/142/142 141/141/141 140/140/140
f 143/143/143 142/142/142 140/140/140
f 144/144/144 143/143/143 140/140/140
f 145/145/145 142/142/142 143/143/143
f 144/144/144 145/145/145 143/143/143
f 145/145/145 144/144/144 146/146/146
f 145/145/145 146/146/146 147/147/147
f 145/145/145 147/147/147 148/148/148
f 145/145/145 148/148/148 149/149/149
f 152/152/152 151/151/151 150/150/150
f 151/151/151 152/152/152 153/153/153
f 154/154/154 151/151/151 153/153/153
f 154/154/154 155/155/155 151/151/151
f 154/154/154 156/156/156 155/155/155
f 159/159/159 158/158/158 157/157/157
f 159/159/159 160/160/160 158/158/158
f 161/161/161 160/160/160 159/159/159
f 164/164/164 163/163/163 162/162/162
f 165/165/165 164/164/164 162/162/162
f 166/166/166 164/164/164 165/165/165
f 167/167/167 166/166/166 165/165/165
f 168/168/168 166/166/166 167/167/167
f 169/169/169 168/168/168 167/167/167
f 172/172/172 171/171/171 170/170/170
f 172/172/172 170/170/170 173/173/173
f 173/173/173 170/170/170 174/174/174
f 170/170/170 175/175/175 174/174/174
f 172/172/172 173/173/173 176/176/176
f 177/177/177 172/172/172 176/176/176
f 178/178/178 177/177/177 176/176/176
f 181/181/181 180/180/180 179/179/179
f 180/180/180 182/182/182 179/179/179
f 182/182/182 180/180/180 183/183/183
f 182/182/182 183/183/183 184/184/184
f 182/182/182 184/184/184 185/185/185
f 184/184/184 183/183/183 186/186/186
f 187/187/187 184/184/184 186/186/186
f 187/187/187 186/186/186 188/188/188
f 191/191/191 190/190/190 189/189/189
f 190/190/190 192/192/192 189/189/189
f 189/189/189 192/192/192 193/193/193
f 192/192/192 194/194/194 193/193/193
f 197/197/197 196/196/196 195/195/195
f 195/195/195 198/198/198 197/197/197
f 199/199/199 197/197/197 198/198/198
f 200/200/200 199/199/199 198/198/198
f 198/198/198 195/195/195 201/201/201
f 201/201/201 195/195/195 202/202/202
f 195/195/195 203/203/203 202/202/202
f 206/206/206 205/205/205 204/204/204
f 207/207/207 206/206/206 204/204/204
f 208/208/208 206/206/206 207/207/207
f 209/209/209 208/208/208 207/207/207
f 210/210/210 208/208/208 209/209/209
f 211/211/211 210/210/210 209/209/209
f 214/214/214 213/213/213 212/212/212
f 212/212/212 213/213/213 215/215/215
f 213/213/213 216/216/216 215/215/215
f 215/215/215 216/216/216 217/217/217
f 216/216/216 218/218/218 217/217/217
f 221/221/221 220/220/220 219/219/219
f 220/220/220 222/222/222 219/219/219
f 219/219/219 222/222/222 223/223/223
f 220/220/220 224/224/224 222/222/222
f 222/222/222 224/224/224 225/225/225
f 226/226/226 222/222/222 225/225/225
f 229/229/229 228/228/228 227/227/227
f 230/230/230 228/228/228 229/229/229
f 231/231/231 230/230/230 229/229/229
f 232/232/232 230/230/230 231/231/231
f 233/233/233 232/232/232 231/231/231
f 234/234/234 232/232/232 233/233/233
f 235/235/235 234/234/234 233/233/233
f 238/238/238 237/237/237 236/236/236
f 239/239/239 238/238/238 236/236/236
f 240/240/240 238/238/238 239/239/239
f 241/241/241 240/240/240 239/239/239
f 244/244/244 243/243/243 242/242/242
f 244/244/244 242/242/242 245/245/245
f 244/244/244 245/245/245 246/246/246
f 246/246/246 247/247/247 244/244/244
f 247/247/247 248/248/248 244/244/244
f 246/246/246 249/249/249 247/247/247
f 250/250/250 247/247/247 249/249/249
f 253/253/253 252/252/252 251/251/251
f 251/251/251 254/254/254 253/253/253
f 257/257/257 256/256/256 255/255/255
f 255/255/255 258/258/258 257/257/257
f 255/255/255 259/259/259 258/258/258
f 259/259/259 260/260/260 258/258/258
f 259/259/259 261/261/261 260/260/260
f 261/261/261 262/262/262 260/260/260
f 261/261/261 263/263/263 262/262/262
f 263/263/263 264/264/264 262/262/262
f 263/263/263 265/265/265 264/264/264
f 265/265/265 266/266/266 264/264/264
f 269/269/269 268/268/268 267/267/267
f 267/267/267 270/270/270 269/269/269
f 267/267/267 271/271/271 270/270/270
f 271/271/271 272/272/272 270/270/270
f 271/271/271 273/273/273 272/272/272
f 273/273/273 274/274/274 272/272/272
f 273/273/273 275/275/275 274/274/274
f 275/275/275 276/276/276 274/274/274
f 275/275/275 277/277/277 276/276/276
f 277/277/277 278/278/278 276/276/276
f 281/281/281 280/280/280 279/279/279
f 282/282/282 281/281/281 279/279/279
f 285/285/285 284/284/284 283/283/283
f 286/286/286 285/285/285 283/283/283
f 289/289/289 288/288/288 287/287/287
f 290/290/290 289/289/289 287/287/287
f 293/293/293 292/292/292 291/291/291
f 294/294/294 293/293/293 291/291/291
f 297/297/297 296/296/296 295/295/295
f 298/298/298 297/297/297 295/295/295
f 301/301/301 300/300/300 299/299/299
f 302/302/302 301/301/301 299/299/299
f 303/303/303 301/301/301 302/302/302
f 304/304/304 303/303/303 302/302/302
f 307/307/307 306/306/306 305/305/305
f 308/308/308 307/307/307 305/305/305
f 309/309/309 307/307/307 308/308/308
f 310/310/310 309/309/309 308/308/308
f 313/313/313 312/312/312 311/311/311
f 314/314/314 313/313/313 311/311/311
f 317/317/317 316/316/316 315/315/315
f 315/315/315 318/318/318 317/317/317
f 315/315/315 319/319/319 318/318/318
f 319/319/319 320/320/320 318/318/318
f 323/323/323 322/322/322 321/321/321
f 324/324/324 323/323/323 321/321/321
f 327/327/327 326/326/326 325/325/325
f 328/328/328 327/327/327 325/325/325
f 331/331/331 330/330/330 329/329/329
f 332/332/332 331/331/331 329/329/329
f 335/335/335 334/334/334 333/333/333
f 336/336/336 335/335/335 333/333/333
f 339/339/339 338/338/338 337/337/337
f 340/340/340 339/339/339 337/337/337
f 343/343/343 342/342/342 341/341/341
f 344/344/344 343/343/343 341/341/341
f 347/347/347 346/346/346 345/345/345
f 348/348/348 347/347/347 345/345/345
f 351/351/351 350/350/350 349/349/349
f 352/352/352 351/351/351 349/349/349
f 353/353/353 351/351/351 352/352/352
f 354/354/354 353/353/353 352/352/352
f 357/357/357 356/356/356 355/355/355
f 356/356/356 358/358/358 355/355/355
f 355/355/355 358/358/358 359/359/359
f 360/360/360 355/355/355 359/359/359
f 363/363/363 362/362/362 361/361/361
f 364/364/364 363/363/363 361/361/361
f 365/365/365 363/363/363 364/364/364
f 366/366/366 365/365/365 364/364/364
f 369/369/369 368/368/368 367/367/367
f 370/370/370 369/369/369 367/367/367
f 373/373/373 372/372/372 371/371/371
f 374/374/374 373/373/373 371/371/371
f 377/377/377 376/376/376 375/375/375
f 376/376/376 378/378/378 375/375/375
f 375/375/375 378/378/378 379/379/379
f 380/380/380 375/375/375 379/379/379
f 383/383/383 382/382/382 381/381/381
f 384/384/384 383/383/383 381/381/381
f 387/387/387 386/386/386 385/385/385
f 388/388/388 387/387/387 385/385/385
f 391/391/391 390/390/390 389/389/389
f 392/392/392 391/391/391 389/389/389
f 395/395/395 394/394/394 393/393/393
f 396/396/396 395/395/395 393/393/393
f 399/399/399 398/398/398 397/397/397
f 400/400/400 399/399/399 397/397/397
f 403/403/403 402/402/402 401/401/401
f 404/404/404 403/403/403 401/401/401
f 407/407/407 406/406/406 405/405/405
f 408/408/408 407/407/407 405/405/405
f 411/411/411 410/410/410 409/409/409
f 412/412/412 411/411/411 409/409/409
f 415/415/415 414/414/414 413/413/413
f 416/416/416 415/415/415 413/413/413
f 419/419/419 418/418/418 417/417/417
f 420/420/420 419/419/419 417/417/417
f 423/423/423 422/422/422 421/421/421
f 424/424/424 423/423/423 421/421/421
f 427/427/427 426/426/426 425/425/425
f 428/428/428 427/427/427 425/425/425
f 431/431/431 430/430/430 429/429/429
f 432/432/432 431/431/431 429/429/429
f 435/435/435 434/434/434 433/433/433
f 434/434/434 436/436/436 433/433/433
f 433/433/433 436/436/436 437/437/437
f 436/436/436 438/438/438 437/437/437
f 441/441/441 440/440/440 439/439/439
f 440/440/440 442/442/442 439/439/439
f 439/439/439 442/442/442 443/443/443
f 442/442/442 444/444/444 443/443/443
f 447/447/447 446/446/446 445/445/445
f 446/446/446 448/448/448 445/445/445
f 445/445/445 448/448/448 449/449/449
f 448/448/448 450/450/450 449/449/449
f 453/453/453 452/452/452 451/451/451
f 452/452/452 454/454/454 451/451/451
f 451/451/451 454/454/454 455/455/455
f 454/454/454 456/456/456 455/455/455
f 459/459/459 458/458/458 457/457/457
f 457/457/457 460/460/460 459/459/459
f 460/460/460 461/461/461 459/459/459
f 460/460/460 462/462/462 461/461/461
f 462/462/462 463/463/463 461/461/461
f 462/462/462 464/464/464 463/463/463
f 467/467/467 466/466/466 465/465/465
f 468/468/468 467/467/467 465/465/465
f 471/471/471 470/470/470 469/469/469
f 472/472/472 471/471/471 469/469/469
f 472/472/472 473/473/473 471/471/471
f 473/473/473 474/474/474 471/471/471
f 477/477/477 476/476/476 475/475/475
f 478/478/478 477/477/477 475/475/475
f 478/478/478 475/475/475 479/479/479
f 480/480/480 478/478/478 479/479/479
f 480/480/480 479/479/479 481/481/481
f 481/481/481 479/479/479 482/482/482
f 479/479/479 483/483/483 482/482/482
f 484/484/484 480/480/480 481/481/481
f 480/480/480 484/484/484 485/485/485
f 486/486/486 480/480/480 485/485/485
f 489/489/489 488/488/488 487/487/487
f 490/490/490 489/489/489 487/487/487
f 493/493/493 492/492/492 491/491/491
f 494/494/494 493/493/493 491/491/491
f 497/497/497 496/496/496 495/495/495
f 498/498/498 497/497/497 495/495/495
f 501/501/501 500/500/500 499/499/499
f 500/500/500 502/502/502 499/499/499
f 503/503/503 502/502/502 500/500/500
f 504/504/504 503/503/503 500/500/500
f 507/507/507 506/506/506 505/505/505
f 508/508/508 507/507/507 505/505/505
f 511/511/511 510/510/510 509/509/509
f 512/512/512 511/511/511 509/509/509
f 515/515/515 514/514/514 513/513/513
f 514/514/514 516/516/516 513/513/513
f 516/516/516 517/517/517 513/513/513
f 517/517/517 518/518/518 513/513/513
f 513/513/513 518/518/518 519/519/519
f 520/520/520 513/513/513 519/519/519
f 519/519/519 521/521/521 520/520/520
f 516/516/516 522/522/522 517/517/517
f 523/523/523 517/517/517 522/522/522
f 524/524/524 522/522/522 516/516/516
f 525/525/525 524/524/524 516/516/516
f 526/526/526 513/513/513 520/520/520
f 527/527/527 513/513/513 526/526/526
f 528/528/528 527/527/527 526/526/526
f 529/529/529 526/526/526 520/520/520
f 530/530/530 526/526/526 529/529/529
f 531/531/531 529/529/529 520/520/520
f 532/532/532 531/531/531 520/520/520
f 522/522/522 533/533/533 523/523/523
f 534/534/534 533/533/533 522/522/522
f 535/535/535 534/534/534 522/522/522
f 523/523/523 533/533/533 536/536/536
f 530/530/530 536/536/536 537/537/537
f 536/536/536 538/538/538 537/537/537
f 530/530/530 539/539/539 536/536/536
f 540/540/540 536/536/536 533/533/533
f 541/541/541 540/540/540 533/533/533
f 539/539/539 542/542/542 536/536/536
f 523/523/523 536/536/536 542/542/542
f 543/543/543 542/542/542 539/539/539
f 523/523/523 542/542/542 544/544/544
f 544/544/544 545/545/545 523/523/523
f 546/546/546 544/544/544 542/542/542
f 547/547/547 546/546/546 542/542/542
f 545/545/545 544/544/544 548/548/548
f 548/548/548 549/549/549 545/545/545
f 550/550/550 548/548/548 544/544/544
f 551/551/551 550/550/550 544/544/544
f 549/549/549 548/548/548 552/552/552
f 553/553/553 552/552/552 548/548/548
f 554/554/554 553/553/553 548/548/548
f 552/552/552 555/555/555 549/549/549
f 521/521/521 549/549/549 555/555/555
f 520/520/520 521/521/521 555/555/555
f 556/556/556 520/520/520 555/555/555
f 557/557/557 556/556/556 555/555/555
f 558/558/558 555/555/555 552/552/552
f 559/559/559 558/558/558 552/552/552
f 562/562/562 561/561/561 560/560/560
f 563/563/563 562/562/562 560/560/560
f 566/566/566 565/565/565 564/564/564
f 567/567/567 566/566/566 564/564/564
f 570/570/570 569/569/569 568/568/568
f 571/571/571 570/570/570 568/568/568
f 574/574/574 573/573/573 572/572/572
f 575/575/575 574/574/574 572/572/572
f 575/575/575 576/576/576 574/574/574
f 576/576/576 577/577/577 574/574/574
f 576/576/576 578/578/578 577/577/577
f 578/578/578 579/579/579 577/577/577
f 582/582/582 581/581/581 580/580/580
f 581/581/581 583/583/583 580/580/580
f 580/580/580 583/583/583 584/584/584
f 583/583/583 585/585/585 584/584/584
f 586/586/586 585/585/585 583/583/583
f 586/586/586 583/583/583 581/581/581
f 587/587/587 586/586/586 581/581/581
f 587/587/587 588/588/588 586/586/586
f 588/588/588 589/589/589 586/586/586
f 588/588/588 590/590/590 589/589/589
f 590/590/590 591/591/591 589/589/589
f 594/594/594 593/593/593 592/592/592
f 593/593/593 595/595/595 592/592/592
f 592/592/592 595/595/595 596/596/596
f 595/595/595 593/593/593 597/597/597
f 593/593/593 598/598/598 597/597/597
f 598/598/598 599/599/599 597/597/597
f 595/595/595 600/600/600 596/596/596
f 596/596/596 600/600/600 601/601/601
f 600/600/600 602/602/602 601/601/601
f 603/603/603 600/600/600 595/595/595
f 602/602/602 600/600/600 603/603/603
f 597/597/597 603/603/603 595/595/595
f 602/602/602 603/603/603 604/604/604
f 603/603/603 605/605/605 604/604/604
f 605/605/605 603/603/603 597/597/597
f 605/605/605 606/606/606 604/604/604
f 607/607/607 606/606/606 605/605/605
f 608/608/608 607/607/607 605/605/605
f 599/599/599 609/609/609 597/597/597
f 609/609/609 605/605/605 597/597/597
f 608/608/608 605/605/605 609/609/609
f 599/599/599 610/610/610 609/609/609
f 611/611/611 608/608/608 609/609/609
f 610/610/610 611/611/611 609/609/609
f 614/614/614 613/613/613 612/612/612
f 615/615/615 614/614/614 612/612/612
f 615/615/615 612/612/612 616/616/616
f 615/615/615 617/617/617 614/614/614
f 617/617/617 618/618/618 614/614/614
f 618/618/618 617/617/617 619/619/619
f 620/620/620 618/618/618 619/619/619
f 619/619/619 617/617/617 621/621/621
f 621/621/621 617/617/617 615/615/615
f 622/622/622 619/619/619 621/621/621
f 623/623/623 621/621/621 615/615/615
f 623/623/623 615/615/615 616/616/616
f 624/624/624 621/621/621 623/623/623
f 625/625/625 624/624/624 623/623/623
f 623/623/623 616/616/616 625/625/625
f 616/616/616 626/626/626 625/625/625
f 629/629/629 628/628/628 627/627/627
f 630/630/630 629/629/629 627/627/627
f 630/630/630 631/631/631 629/629/629
f 631/631/631 632/632/632 629/629/629
f 632/632/632 631/631/631 633/633/633
f 634/634/634 632/632/632 633/633/633
f 637/637/637 636/636/636 635/635/635
f 636/636/636 638/638/638 635/635/635
f 639/639/639 638/638/638 636/636/636
f 640/640/640 639/639/639 636/636/636
f 640/640/640 641/641/641 639/639/639
f 638/638/638 639/639/639 642/642/642
f 643/643/643 638/638/638 642/642/642
f 641/641/641 644/644/644 639/639/639
f 645/645/645 644/644/644 641/641/641
f 646/646/646 645/645/645 641/641/641
f 649/649/649 648/648/648 647/647/647
f 648/648/648 650/650/650 647/647/647
f 650/650/650 648/648/648 651/651/651
f 654/654/654 653/653/653 652/652/652
f 653/653/653 655/655/655 652/652/652
f 656/656/656 655/655/655 653/653/653
f 657/657/657 656/656/656 653/653/653
f 658/658/658 656/656/656 657/657/657
f 659/659/659 658/658/658 657/657/657
f 662/662/662 661/661/661 660/660/660
f 663/663/663 662/662/662 660/660/660
f 663/663/663 660/660/660 664/664/664
f 665/665/665 663/663/663 664/664/664
f 665/665/665 666/666/666 663/663/663
f 663/663/663 666/666/666 662/662/662
f 666/666/666 667/667/667 662/662/662
f 668/668/668 667/667/667 666/666/666
f 669/669/669 668/668/668 666/666/666
f 670/670/670 668/668/668 669/669/669
f 671/671/671 670/670/670 669/669/669
f 674/674/674 673/673/673 672/672/672
f 675/675/675 674/674/674 672/672/672
f 675/675/675 672/672/672 676/676/676
f 674/674/674 675/675/675 677/677/677
f 678/678/678 674/674/674 677/677/677
f 679/679/679 678/678/678 677/677/677
f 680/680/680 675/675/675 676/676/676
f 680/680/680 676/676/676 681/681/681
f 682/682/682 680/680/680 681/681/681
f 680/680/680 683/683/683 675/675/675
f 680/680/680 682/682/682 683/683/683
f 683/683/683 677/677/677 675/675/675
f 683/683/683 682/682/682 684/684/684
f 685/685/685 683/683/683 684/684/684
f 683/683/683 685/685/685 677/677/677
f 686/686/686 685/685/685 684/684/684
f 686/686/686 687/687/687 685/685/685
f 687/687/687 688/688/688 685/685/685
f 689/689/689 679/679/679 677/677/677
f 685/685/685 689/689/689 677/677/677
f 685/685/685 688/688/688 689/689/689
f 690/690/690 679/679/679 689/689/689
f 688/688/688 691/691/691 689/689/689
f 691/691/691 690/690/690 689/689/689
f 694/694/694 693/693/693 692/692/692
f 693/693/693 695/695/695 692/692/692
f 692/692/692 695/695/695 696/696/696
f 697/697/697 695/695/695 693/693/693
f 698/698/698 697/697/697 693/693/693
f 697/697/697 698/698/698 699/699/699
f 698/698/698 700/700/700 699/699/699
f 697/697/697 699/699/699 701/701/701
f 697/697/697 701/701/701 695/695/695
f 699/699/699 702/702/702 701/701/701
f 702/702/702 703/703/703 701/701/701
f 703/703/703 704/704/704 701/701/701
f 701/701/701 705/705/705 695/695/695
f 701/701/701 704/704/704 705/705/705
f 695/695/695 705/705/705 696/696/696
f 704/704/704 706/706/706 705/705/705
f 696/696/696 705/705/705 706/706/706
f 707/707/707 696/696/696 706/706/706
f 710/710/710 709/709/709 708/708/708
f 709/709/709 711/711/711 708/708/708
f 712/712/712 711/711/711 709/709/709
f 713/713/713 712/712/712 709/709/709
f 712/712/712 713/713/713 714/714/714
f 713/713/713 715/715/715 714/714/714
f 718/718/718 717/717/717 716/716/716
f 719/719/719 718/718/718 716/716/716
f 719/719/719 720/720/720 718/718/718
f 720/720/720 721/721/721 718/718/718
f 722/722/722 721/721/721 720/720/720
f 723/723/723 722/722/722 720/720/720
f 723/723/723 724/724/724 722/722/722
f 724/724/724 725/725/725 722/722/722
f 728/728/728 727/727/727 726/726/726
f 729/729/729 728/728/728 726/726/726
f 728/728/728 729/729/729 730/730/730
f 733/733/733 732/732/732 731/731/731
f 734/734/734 733/733/733 731/731/731
f 732/732/732 733/733/733 735/735/735
f 733/733/733 734/734/734 736/736/736
f 733/733/733 737/737/737 735/735/735
f 738/738/738 733/733/733 736/736/736
f 739/739/739 737/737/737 733/733/733
f 738/738/738 739/739/739 733/733/733
