g Cannon_Handle
v 0.0698431209 0.173532307 -0.0192404445
v 0.0526730157 0.177376464 -0.0295787677
v 0.0706771612 0.162321061 -0.0222626943
v 0.0149548166 -0.0327838399 0.000725947903
v -0.0343527384 -0.0213198364 0.000620013743
v 0.00867826585 -0.0285759252 0.0263977163
v 0.00867826585 -0.0285759252 0.0263977163
v -0.0343527384 -0.0213198364 0.000620013743
v -0.00775544904 -0.0175584685 0.0425077155
v -0.00775544904 -0.0175584685 0.0425077155
v -0.0343527384 -0.0213198364 0.000620013743
v -0.0240912028 -0.00660861004 0.0425077155
v -0.0240912028 -0.00660861004 0.0425077155
v -0.0343527384 -0.0213198364 0.000620013743
v -0.0405212566 0.00440770155 0.0248835105
v -0.0405212566 0.00440770155 0.0248835105
v -0.0343527384 -0.0213198364 0.000620013743
v -0.0467990302 0.00861592311 0.000725947903
v -0.00775544904 -0.0175584685 -0.041225031
v -0.0343527384 -0.0213198364 0.000620013743
v 0.00867826585 -0.0285759252 -0.0250294376
v 0.00867826585 -0.0285759252 -0.0250294376
v -0.0343527384 -0.0213198364 0.000620013743
v 0.0149548166 -0.0327838399 0.000725947903
v -0.0467990302 0.00861592311 0.000725947903
v -0.0343527384 -0.0213198364 0.000620013743
v -0.0405212566 0.00440770155 -0.0235113408
v -0.0405212566 0.00440770155 -0.0235113408
v -0.0343527384 -0.0213198364 0.000620013743
v -0.0240912028 -0.00660861004 -0.041225031
v -0.0240912028 -0.00660861004 -0.041225031
v -0.0343527384 -0.0213198364 0.000620013743
v -0.00775544904 -0.0175584685 -0.041225031
v 0.0698431209 0.173532307 0.0215550158
v 0.0706771612 0.162321061 0.0245772675
v 0.0526730157 0.177376464 0.0318933204
v 0.0552926436 0.185565233 0.0275710411
v 0.0346356034 0.197202504 0.0300303753
v 0.0406161286 0.201963097 0.0260688327
v 0.011011336 0.220936179 0.0301745143
v 0.011011336 0.220936179 0.0301745143
v 0.00882413983 0.172143906 0.00115731382
v 0.00731535116 0.227617696 0.00115731382
v 0.0121624591 0.168483183 0.0094909966
v 0.000444318866 0.120660141 0.00115731382
v 0.0346356034 0.197202504 0.0300303753
v 0.0121624591 0.168483183 0.0094909966
v 0.011011336 0.220936179 0.0301745143
v 0.0251235794 0.16025655 0.0185251348
v 0.0526730157 0.177376464 0.0318933204
v 0.0061401194 0.119654894 0.0121939955
v 0.000444318866 0.120660141 0.00115731382
v -0.0136834877 0.0804036409 0.00115731382
v 0.042570781 0.150542185 0.0208128095
v 0.0706771612 0.162321061 0.0245772675
v 0.0210482609 0.117027022 0.0189763941
v -0.00675477786 0.0791818723 0.0148183731
v -0.0255636759 0.0651915446 0.00115731382
v -0.0167437904 0.0636359081 0.0189569201
v 0.0113824289 0.0759839341 0.023069622
v 0.00635435246 0.059563797 0.0305839274
v 0.0577142127 0.14301534 0.0162012577
v 0.0800692514 0.157376751 0.00115727575
v 0.0652703643 0.140710339 0.00115731382
v 0.0344265588 0.11483983 0.0189763941
v 0.0294085518 0.0728052184 0.023069622
v 0.0293096751 0.055515945 0.0300158039
v 0.0493319519 0.112211198 0.0128748231
v 0.0550283603 0.111206561 0.00115731382
v 0.0475445352 0.0696075931 0.0156466588
v 0.0524050705 0.0514441393 0.0199173652
v 0.0544735529 0.0683861226 0.00115731382
v 0.061225567 0.0498886593 0.00115731382
v 0.00635435246 0.059563797 0.0305839274
v -0.00779878441 0.0529419407 0.0135417469
v -0.0167437904 0.0636359081 0.0189569201
v 0.00809751637 0.0501391292 0.0218175426
v 0.0293096751 0.055515945 0.0300158039
v 0.0239001289 0.0473532565 0.0213726163
v 0.0524050705 0.0514441393 0.0199173652
v 0.0397961251 0.0445506759 0.0141149815
v 0.061225567 0.0498886593 0.00115731382
v 0.045868814 0.0434792042 0.00115731382
v 0.0397961251 0.0445506759 -0.0118004875
v 0.0524050705 0.0514441393 -0.0176028721
v -0.0167437904 0.0636359081 0.0189569201
v -0.00779878441 0.0529419407 0.0135417469
v -0.0138687296 0.0540128015 0.00115731382
v -0.0255636759 0.0651915446 0.00115731382
v -0.00779878441 0.0529419407 0.0135417469
v -0.0404174998 0.0488441922 0.00115731382
v -0.0138687296 0.0540128015 0.00115731382
v -0.0293206945 0.0468877107 0.0242270008
v 0.00809751637 0.0501391292 0.0218175426
v -0.000271928671 0.0417654887 0.0423563085
v 0.0239001289 0.0473532565 0.0213726163
v 0.0286034979 0.0366736315 0.0415668376
v 0.0397961251 0.0445506759 0.0141149815
v 0.057653483 0.0315523222 0.0254421737
v 0.045868814 0.0434792042 0.00115731382
v 0.0687527284 0.0295949262 0.00115731382
v 0.057653483 0.0315523222 -0.0231276769
v 0.0397961251 0.0445506759 -0.0118004875
v 0.0286034979 0.0366736315 -0.0392523259
v 0.0239001289 0.0473532565 -0.0190580636
v -0.000271928671 0.0417654887 -0.0400418192
v 0.00809751637 0.0501391292 -0.0195029918
v -0.0293206945 0.0468877107 -0.0219125059
v -0.00779878441 0.0529419407 -0.0112271579
v -0.0404174998 0.0488441922 0.00115731382
v -0.0138687296 0.0540128015 0.00115731382
v 0.0687527284 0.0295949262 0.00115731382
v 0.054931622 0.00949337892 0.00115731382
v 0.046121195 0.012611513 0.0223032497
v 0.057653483 0.0315523222 0.0254421737
v 0.0230627265 0.0207736678 0.036510136
v 0.0286034979 0.0366736315 0.0415668376
v 0.000142500037 0.0288865361 0.036510136
v 0.0286034979 0.0366736315 0.0415668376
v 0.000142500037 0.0288865361 0.036510136
v -0.000271928671 0.0417654887 0.0423563085
v -0.022917496 0.0370490737 0.0210689474
v -0.0293206945 0.0468877107 0.0242270008
v -0.0317257866 0.0401665978 0.00115731382
v -0.0404174998 0.0488441922 0.00115731382
v -0.022917496 0.0370490737 0.0210689474
v -0.0494589396 0.0402316004 0.00115731382
v -0.0317257866 0.0401665978 0.00115731382
v -0.0372680835 0.0350024104 0.028701812
v 0.000142500037 0.0288865361 0.036510136
v -0.00535157975 0.0213142876 0.0527115129
v 0.0230627265 0.0207736678 0.036510136
v 0.0263705272 0.0077080247 0.0527115129
v 0.046121195 0.012611513 0.0223032497
v 0.0582867227 -0.0059809396 0.030360844
v 0.054931622 0.00949337892 0.00115731382
v 0.070478797 -0.0112103559 0.00115731382
v 0.0582867227 -0.0059809396 -0.0280462895
v 0.046121195 0.012611513 -0.0199887156
v 0.0263705272 0.0077080247 -0.0503970236
v 0.0230627265 0.0207736678 -0.0341956392
v -0.00535157975 0.0213142876 -0.0503970236
v 0.000142500037 0.0288865361 -0.0341956392
v -0.0372680835 0.0350024104 -0.0263872966
v -0.022917496 0.0370490737 -0.0187543947
v -0.0494589396 0.0402316004 0.00115731382
v -0.0317257866 0.0401665978 0.00115731382
v 0.070478797 -0.0112103559 0.00115731382
v 0.0149548166 -0.0327838399 0.000725947903
v 0.00867826585 -0.0285759252 0.0263977163
v 0.0582867227 -0.0059809396 0.030360844
v -0.00775544904 -0.0175584685 0.0425077155
v 0.0263705272 0.0077080247 0.0527115129
v -0.0240912028 -0.00660861004 0.0425077155
v -0.00535157975 0.0213142876 0.0527115129
v -0.0372680835 0.0350024104 0.028701812
v -0.0467990302 0.00861592311 0.000725947903
v -0.0494589396 0.0402316004 0.00115731382
v -0.0405212566 0.00440770155 0.0248835105
v -0.00535157975 0.0213142876 0.0527115129
v -0.0240912028 -0.00660861004 0.0425077155
v 0.0706771612 0.162321061 -0.0222626943
v 0.0526730157 0.177376464 -0.0295787677
v 0.042570781 0.150542185 -0.0184982195
v 0.0577142127 0.14301534 -0.0138867265
v 0.0800692514 0.157376751 0.00115727575
v 0.0652703643 0.140710339 0.00115731382
v 0.0344265588 0.11483983 -0.0166618619
v 0.0210482609 0.117027022 -0.0166618619
v 0.0113824289 0.0759839341 -0.0207550488
v 0.0294085518 0.0728052184 -0.0207550488
v 0.0493319519 0.112211198 -0.0105602536
v 0.0550283603 0.111206561 0.00115731382
v 0.0475445352 0.0696075931 -0.0133321267
v 0.0293096751 0.055515945 -0.0277011935
v 0.0544735529 0.0683861226 0.00115731382
v 0.0524050705 0.0514441393 -0.0176028721
v 0.061225567 0.0498886593 0.00115731382
v 0.011011336 0.220936179 -0.0278599616
v 0.00731535116 0.227617696 0.00115731382
v 0.00882413983 0.172143906 0.00115731382
v 0.0121624591 0.168483183 -0.00717638852
v 0.000444318866 0.120660141 0.00115731382
v 0.0346356034 0.197202504 -0.0277157463
v 0.011011336 0.220936179 -0.0278599616
v 0.0121624591 0.168483183 -0.00717638852
v 0.0251235794 0.16025655 -0.0162105449
v 0.0526730157 0.177376464 -0.0295787677
v 0.042570781 0.150542185 -0.0184982195
v 0.0210482609 0.117027022 -0.0166618619
v 0.0061401194 0.119654894 -0.00987936836
v 0.000444318866 0.120660141 0.00115731382
v -0.0136834877 0.0804036409 0.00115731382
v -0.00675477786 0.0791818723 -0.0125037655
v -0.0255636759 0.0651915446 0.00115731382
v -0.0167437904 0.0636359081 -0.0166423116
v 0.0113824289 0.0759839341 -0.0207550488
v 0.00635435246 0.059563797 -0.0282693356
v 0.0294085518 0.0728052184 -0.0207550488
v 0.0293096751 0.055515945 -0.0277011935
v 0.0524050705 0.0514441393 -0.0176028721
v 0.0239001289 0.0473532565 -0.0190580636
v 0.0397961251 0.0445506759 -0.0118004875
v 0.0293096751 0.055515945 -0.0277011935
v 0.00809751637 0.0501391292 -0.0195029918
v 0.00635435246 0.059563797 -0.0282693356
v 0.00635435246 0.059563797 -0.0282693356
v -0.00779878441 0.0529419407 -0.0112271579
v 0.00809751637 0.0501391292 -0.0195029918
v -0.0167437904 0.0636359081 -0.0166423116
v -0.0138687296 0.0540128015 0.00115731382
v -0.0255636759 0.0651915446 0.00115731382
v 0.0687527284 0.0295949262 0.00115731382
v 0.046121195 0.012611513 -0.0199887156
v 0.054931622 0.00949337892 0.00115731382
v 0.057653483 0.0315523222 -0.0231276769
v 0.0230627265 0.0207736678 -0.0341956392
v 0.0286034979 0.0366736315 -0.0392523259
v 0.000142500037 0.0288865361 -0.0341956392
v -0.000271928671 0.0417654887 -0.0400418192
v -0.000271928671 0.0417654887 -0.0400418192
v -0.022917496 0.0370490737 -0.0187543947
v 0.000142500037 0.0288865361 -0.0341956392
v -0.0293206945 0.0468877107 -0.0219125059
v -0.0317257866 0.0401665978 0.00115731382
v -0.0404174998 0.0488441922 0.00115731382
v 0.0582867227 -0.0059809396 -0.0280462895
v 0.0263705272 0.0077080247 -0.0503970236
v -0.00775544904 -0.0175584685 -0.041225031
v 0.00867826585 -0.0285759252 -0.0250294376
v 0.070478797 -0.0112103559 0.00115731382
v 0.0149548166 -0.0327838399 0.000725947903
v -0.0372680835 0.0350024104 -0.0263872966
v -0.0494589396 0.0402316004 0.00115731382
v -0.0467990302 0.00861592311 0.000725947903
v -0.0405212566 0.00440770155 -0.0235113408
v -0.00535157975 0.0213142876 -0.0503970236
v -0.0240912028 -0.00660861004 -0.041225031
v 0.0263705272 0.0077080247 -0.0503970236
v -0.00775544904 -0.0175584685 -0.041225031
v 0.0552926436 0.185565233 0.0275710411
v 0.0527493097 0.195625052 0.00115731382
v 0.0698431209 0.173532307 0.0215550158
v 0.0406161286 0.201963097 0.0260688327
v 0.0774636641 0.169597983 0.00115727575
v 0.0706771612 0.162321061 0.0245772675
v 0.0800692514 0.157376751 0.00115727575
v 0.0706771612 0.162321061 -0.0222626943
v 0.0698431209 0.173532307 -0.0192404445
v 0.0219412055 0.220261738 0.0241734236
v 0.011011336 0.220936179 0.0301745143
v 0.00731535116 0.227617696 0.00115731382
v 0.0185839664 0.226228997 0.00115731382
v 0.0219412055 0.220261738 -0.0218588505
v 0.011011336 0.220936179 -0.0278599616
v 0.0406161286 0.201963097 -0.0237542987
v 0.0346356034 0.197202504 -0.0277157463
v 0.0552926436 0.185565233 -0.025256468
v 0.0526730157 0.177376464 -0.0295787677
vt 0.887695312 0.90234375
vt 0.894042969 0.89453125
vt 0.8828125 0.899902344
vt 0.894042969 0.87109375
vt 0.894042969 0.888183594
vt 0.900390625 0.87109375
vt 0.900390625 0.87109375
vt 0.894042969 0.888183594
vt 0.905761719 0.872558594
vt 0.905761719 0.872558594
vt 0.894042969 0.888183594
vt 0.909179688 0.875
vt 0.909179688 0.875
vt 0.894042969 0.888183594
vt 0.912109375 0.880371094
vt 0.912109375 0.880371094
vt 0.894042969 0.888183594
vt 0.9140625 0.888671875
vt 0.882324219 0.872070312
vt 0.894042969 0.888183594
vt 0.887695312 0.87109375
vt 0.887695312 0.87109375
vt 0.894042969 0.888183594
vt 0.894042969 0.87109375
vt 0.874023438 0.888183594
vt 0.894042969 0.888183594
vt 0.876464844 0.879882812
vt 0.876464844 0.879882812
vt 0.894042969 0.888183594
vt 0.87890625 0.874511719
vt 0.87890625 0.874511719
vt 0.894042969 0.888183594
vt 0.882324219 0.872070312
vt 0.888671875 0.921386719
vt 0.884277344 0.924316406
vt 0.895507812 0.928222656
vt 0.897949219 0.923828125
vt 0.909179688 0.926757812
vt 0.908203125 0.922851562
vt 0.925292969 0.924316406
vt 0.932128906 0.776855469
vt 0.930664062 0.798339844
vt 0.942871094 0.780761719
vt 0.926757812 0.798339844
vt 0.927246094 0.81640625
vt 0.920898438 0.783203125
vt 0.926757812 0.798339844
vt 0.932128906 0.776855469
vt 0.919433594 0.798828125
vt 0.912109375 0.787109375
vt 0.922363281 0.815917969
vt 0.927246094 0.81640625
vt 0.932128906 0.833984375
vt 0.911132812 0.799316406
vt 0.903808594 0.790039062
vt 0.915527344 0.814453125
vt 0.926269531 0.833496094
vt 0.934570312 0.843261719
vt 0.927734375 0.841796875
vt 0.91796875 0.831054688
vt 0.918945312 0.838867188
vt 0.902832031 0.799316406
vt 0.895019531 0.790527344
vt 0.895019531 0.798828125
vt 0.909179688 0.813476562
vt 0.91015625 0.829101562
vt 0.91015625 0.8359375
vt 0.901367188 0.812011719
vt 0.895019531 0.811523438
vt 0.901855469 0.827636719
vt 0.901367188 0.833007812
vt 0.89453125 0.826660156
vt 0.89453125 0.832519531
vt 0.918945312 0.838867188
vt 0.926269531 0.84765625
vt 0.927734375 0.841796875
vt 0.918457031 0.843261719
vt 0.91015625 0.8359375
vt 0.911132812 0.840820312
vt 0.901367188 0.833007812
vt 0.902832031 0.837890625
vt 0.89453125 0.832519531
vt 0.89453125 0.836914062
vt 0.88671875 0.837402344
vt 0.887695312 0.833007812
vt 0.927734375 0.841796875
vt 0.926269531 0.84765625
vt 0.932128906 0.850097656
vt 0.934570312 0.843261719
vt 0.926269531 0.84765625
vt 0.934570312 0.864746094
vt 0.932128906 0.850097656
vt 0.926757812 0.860351562
vt 0.918457031 0.843261719
vt 0.918945312 0.852539062
vt 0.911132812 0.840820312
vt 0.911132812 0.846679688
vt 0.902832031 0.837890625
vt 0.901855469 0.843261719
vt 0.89453125 0.836914062
vt 0.89453125 0.842773438
vt 0.887207031 0.843261719
vt 0.88671875 0.837402344
vt 0.877441406 0.846679688
vt 0.877929688 0.840332031
vt 0.870117188 0.852050781
vt 0.870117188 0.842773438
vt 0.861816406 0.859375
vt 0.862792969 0.847167969
vt 0.853515625 0.864257812
vt 0.856933594 0.849121094
vt 0.89453125 0.842773438
vt 0.89453125 0.848632812
vt 0.90234375 0.849609375
vt 0.901855469 0.843261719
vt 0.910644531 0.852539062
vt 0.911132812 0.846679688
vt 0.917480469 0.857421875
vt 0.911132812 0.846679688
vt 0.917480469 0.857421875
vt 0.918945312 0.852539062
vt 0.924316406 0.864746094
vt 0.926757812 0.860351562
vt 0.931152344 0.869628906
vt 0.934570312 0.864746094
vt 0.924316406 0.864746094
vt 0.928710938 0.879394531
vt 0.931152344 0.869628906
vt 0.922363281 0.871582031
vt 0.917480469 0.857421875
vt 0.915039062 0.86328125
vt 0.910644531 0.852539062
vt 0.908691406 0.858398438
vt 0.90234375 0.849609375
vt 0.900878906 0.85546875
vt 0.89453125 0.848632812
vt 0.89453125 0.854980469
vt 0.887695312 0.85546875
vt 0.88671875 0.849609375
vt 0.879882812 0.858398438
vt 0.878417969 0.852539062
vt 0.873535156 0.862792969
vt 0.871582031 0.856933594
vt 0.865722656 0.87109375
vt 0.864257812 0.863769531
vt 0.859375 0.878417969
vt 0.856933594 0.869140625
vt 0.89453125 0.854980469
vt 0.894042969 0.87109375
vt 0.900390625 0.87109375
vt 0.900878906 0.85546875
vt 0.905761719 0.872558594
vt 0.908691406 0.858398438
vt 0.909179688 0.875
vt 0.915039062 0.86328125
vt 0.922363281 0.871582031
vt 0.9140625 0.888671875
vt 0.928710938 0.879394531
vt 0.912109375 0.880371094
vt 0.915039062 0.86328125
vt 0.909179688 0.875
vt 0.886230469 0.789550781
vt 0.877929688 0.787109375
vt 0.87890625 0.798828125
vt 0.887207031 0.799316406
vt 0.895019531 0.790527344
vt 0.895019531 0.798828125
vt 0.880371094 0.812988281
vt 0.874023438 0.813964844
vt 0.87109375 0.830566406
vt 0.87890625 0.828613281
vt 0.888183594 0.812011719
vt 0.895019531 0.811523438
vt 0.887695312 0.827148438
vt 0.87890625 0.835449219
vt 0.89453125 0.826660156
vt 0.887695312 0.833007812
vt 0.89453125 0.832519531
vt 0.858398438 0.775878906
vt 0.84765625 0.779785156
vt 0.859375 0.797363281
vt 0.86328125 0.797363281
vt 0.862304688 0.815917969
vt 0.869628906 0.782714844
vt 0.858398438 0.775878906
vt 0.86328125 0.797363281
vt 0.870605469 0.797851562
vt 0.877929688 0.787109375
vt 0.87890625 0.798828125
vt 0.874023438 0.813964844
vt 0.8671875 0.814941406
vt 0.862304688 0.815917969
vt 0.856933594 0.833496094
vt 0.86328125 0.832519531
vt 0.854492188 0.842773438
vt 0.861328125 0.840820312
vt 0.87109375 0.830566406
vt 0.870117188 0.838378906
vt 0.87890625 0.828613281
vt 0.87890625 0.835449219
vt 0.887695312 0.833007812
vt 0.877929688 0.840332031
vt 0.88671875 0.837402344
vt 0.87890625 0.835449219
vt 0.870117188 0.842773438
vt 0.870117188 0.838378906
vt 0.870117188 0.838378906
vt 0.862792969 0.847167969
vt 0.870117188 0.842773438
vt 0.861328125 0.840820312
vt 0.856933594 0.849121094
vt 0.854492188 0.842773438
vt 0.89453125 0.842773438
vt 0.88671875 0.849609375
vt 0.89453125 0.848632812
vt 0.887207031 0.843261719
vt 0.878417969 0.852539062
vt 0.877441406 0.846679688
vt 0.871582031 0.856933594
vt 0.870117188 0.852050781
vt 0.870117188 0.852050781
vt 0.864257812 0.863769531
vt 0.871582031 0.856933594
vt 0.861816406 0.859375
vt 0.856933594 0.869140625
vt 0.853515625 0.864257812
vt 0.887695312 0.85546875
vt 0.879882812 0.858398438
vt 0.882324219 0.872070312
vt 0.887695312 0.87109375
vt 0.89453125 0.854980469
vt 0.894042969 0.87109375
vt 0.865722656 0.87109375
vt 0.859375 0.878417969
vt 0.874023438 0.888183594
vt 0.876464844 0.879882812
vt 0.873535156 0.862792969
vt 0.87890625 0.874511719
vt 0.879882812 0.858398438
vt 0.882324219 0.872070312
vt 0.897949219 0.923828125
vt 0.901367188 0.911132812
vt 0.888671875 0.921386719
vt 0.908203125 0.922851562
vt 0.884765625 0.912109375
vt 0.884277344 0.924316406
vt 0.87890625 0.912109375
vt 0.8828125 0.899902344
vt 0.887695312 0.90234375
vt 0.920410156 0.920898438
vt 0.925292969 0.924316406
vt 0.928222656 0.909667969
vt 0.922851562 0.91015625
vt 0.919433594 0.899414062
vt 0.923828125 0.895019531
vt 0.906738281 0.898925781
vt 0.907226562 0.89453125
vt 0.896484375 0.8984375
vt 0.894042969 0.89453125
vn 0.780761719 0.467773438 -0.414550781
vn 0.456542969 0.296142578 -0.838867188
vn 0.840820312 0.211425781 -0.498535156
vn -0.225463867 -0.96875 0.103637695
vn -0.225463867 -0.96875 0.103637695
vn -0.225463867 -0.96875 0.103637695
vn -0.323730469 -0.901855469 0.286621094
vn -0.323730469 -0.901855469 0.286621094
vn -0.323730469 -0.901855469 0.286621094
vn -0.51171875 -0.763671875 0.393554688
vn -0.51171875 -0.763671875 0.393554688
vn -0.51171875 -0.763671875 0.393554688
vn -0.758789062 -0.534179688 0.373291016
vn -0.758789062 -0.534179688 0.373291016
vn -0.758789062 -0.534179688 0.373291016
vn -0.909667969 -0.37890625 0.170410156
vn -0.909667969 -0.37890625 0.170410156
vn -0.909667969 -0.37890625 0.170410156
vn -0.322753906 -0.90234375 -0.286132812
vn -0.322753906 -0.90234375 -0.286132812
vn -0.322753906 -0.90234375 -0.286132812
vn -0.224975586 -0.96875 -0.10345459
vn -0.224975586 -0.96875 -0.10345459
vn -0.224975586 -0.96875 -0.10345459
vn -0.91015625 -0.377685547 -0.170166016
vn -0.91015625 -0.377685547 -0.170166016
vn -0.91015625 -0.377685547 -0.170166016
vn -0.759765625 -0.532226562 -0.373535156
vn -0.759765625 -0.532226562 -0.373535156
vn -0.759765625 -0.532226562 -0.373535156
vn -0.51171875 -0.763671875 -0.393798828
vn -0.51171875 -0.763671875 -0.393798828
vn -0.51171875 -0.763671875 -0.393798828
vn 0.780761719 0.467773438 0.414550781
vn 0.840820312 0.211425781 0.498535156
vn 0.456542969 0.296142578 0.838867188
vn 0.608398438 0.561035156 0.561523438
vn 0.352050781 0.395263672 0.848632812
vn 0.604492188 0.625 0.494140625
vn 0.259765625 0.833496094 0.487304688
vn -0.875488281 -0.146362305 0.460449219
vn -1 -0.00959014893 0
vn -0.998535156 -0.0575866699 0
vn -0.768554688 -0.076171875 0.635253906
vn -0.968261719 0.25 1.78813934E-07
vn -0.404785156 -0.258789062 0.876953125
vn -0.768554688 -0.076171875 0.635253906
vn -0.875488281 -0.146362305 0.460449219
vn -0.366943359 -0.120666504 0.922363281
vn -0.200683594 -0.291259766 0.935546875
vn -0.633789062 0.177734375 0.752929688
vn -0.968261719 0.25 1.78813934E-07
vn -0.890625 0.455078125 4.17232513E-07
vn -0.0422363281 -0.199584961 0.979003906
vn 0.3203125 -0.534667969 0.781738281
vn -0.239624023 0.0931396484 0.966308594
vn -0.580566406 0.356689453 0.731933594
vn -0.785644531 0.618652344 1.78813934E-07
vn -0.532714844 0.529785156 0.66015625
vn -0.179321289 0.25390625 0.950683594
vn -0.137084961 0.429931641 0.892578125
vn 0.479248047 -0.396240234 0.783203125
vn 0.737792969 -0.674804688 -7.15255737E-07
vn 0.851074219 -0.525390625 1.78813934E-07
vn 0.158081055 0.00531387329 0.987304688
vn 0.234985352 0.178466797 0.955566406
vn 0.268554688 0.356445312 0.895019531
vn 0.626953125 -0.0843505859 0.774414062
vn 0.989257812 -0.146240234 0
vn 0.664550781 0.147827148 0.732421875
vn 0.681640625 0.340087891 0.647949219
vn 0.990722656 0.137329102 1.1920929E-07
vn 0.938476562 0.345703125 1.1920929E-07
vn -0.296142578 -0.683105469 0.667480469
vn -0.536621094 -0.689941406 0.486083984
vn -0.575683594 -0.695800781 0.4296875
vn -0.274169922 -0.685058594 0.674804688
vn 0.0416870117 -0.742675781 0.668457031
vn 0.0185699463 -0.735351562 0.677734375
vn 0.285888672 -0.864257812 0.413574219
vn 0.245727539 -0.842773438 0.478515625
vn 0.385498047 -0.922851562 4.76837158E-07
vn 0.385498047 -0.922851562 9.53674316E-07
vn 0.245727539 -0.842773438 -0.478515625
vn 0.285888672 -0.864257812 -0.413574219
vn -0.575683594 -0.695800781 0.4296875
vn -0.536621094 -0.689941406 0.486083984
vn -0.691894531 -0.722167969 0
vn -0.691894531 -0.722167969 0
vn -0.107116699 0.948242188 0.299316406
vn -0.190063477 0.981933594 -5.96046448E-07
vn -0.190063477 0.981933594 -4.17232513E-07
vn -0.127929688 0.955078125 0.267578125
vn 0.0535888672 0.913085938 0.404052734
vn 0.0436706543 0.915039062 0.401611328
vn 0.262207031 0.873046875 0.410644531
vn 0.269287109 0.872070312 0.408935547
vn 0.419921875 0.855957031 0.301025391
vn 0.443847656 0.854980469 0.267822266
vn 0.517578125 0.85546875 -4.17232513E-07
vn 0.517578125 0.85546875 -6.55651093E-07
vn 0.443847656 0.854980469 -0.267822266
vn 0.419921875 0.855957031 -0.301025391
vn 0.269287109 0.872070312 -0.408935547
vn 0.262207031 0.873046875 -0.410644531
vn 0.0436706543 0.915039062 -0.401611328
vn 0.0535888672 0.913085938 -0.404052734
vn -0.127929688 0.955078125 -0.267578125
vn -0.107116699 0.948242188 -0.299316406
vn -0.190063477 0.981933594 -5.96046448E-07
vn -0.190063477 0.981933594 -4.17232513E-07
vn 0.822753906 -0.568359375 1.78813934E-07
vn 0.822753906 -0.568359375 3.57627869E-07
vn 0.591308594 -0.473632812 0.65234375
vn 0.61328125 -0.481445312 0.625976562
vn 0.217529297 -0.379882812 0.898925781
vn 0.217773438 -0.379882812 0.898925781
vn -0.293457031 -0.401367188 0.867675781
vn 0.217773438 -0.379882812 0.898925781
vn -0.293457031 -0.401367188 0.867675781
vn -0.335693359 -0.410644531 0.84765625
vn -0.635253906 -0.523925781 0.567382812
vn -0.666503906 -0.560058594 0.4921875
vn -0.751953125 -0.659179688 -2.38418579E-07
vn -0.751953125 -0.659179688 -5.36441803E-07
vn 0.0314025879 0.943359375 0.329589844
vn -0.0180206299 1 -1.43051147E-06
vn -0.0180206299 1 -1.1920929E-06
vn 0.0238342285 0.951171875 0.307128906
vn 0.180664062 0.862792969 0.472412109
vn 0.202758789 0.852539062 0.481689453
vn 0.459960938 0.727539062 0.508789062
vn 0.485595703 0.713867188 0.504394531
vn 0.669433594 0.637207031 0.382080078
vn 0.701171875 0.626953125 0.339599609
vn 0.794433594 0.607421875 0
vn 0.794433594 0.607421875 0
vn 0.701171875 0.626953125 -0.339599609
vn 0.669433594 0.637207031 -0.382080078
vn 0.485595703 0.713867188 -0.504394531
vn 0.459960938 0.727539062 -0.508789062
vn 0.202758789 0.852539062 -0.481689453
vn 0.180664062 0.862792969 -0.472412109
vn 0.0238342285 0.951171875 -0.307128906
vn 0.0313720703 0.943359375 -0.329589844
vn -0.0180206299 1 -1.43051147E-06
vn -0.0180206299 1 -1.1920929E-06
vn 0.379150391 -0.925292969 0.00155544281
vn 0.379150391 -0.925292969 -0.00112342834
vn 0.309814453 -0.783691406 0.538085938
vn 0.333007812 -0.83203125 0.443847656
vn 0.0780029297 -0.481445312 0.873046875
vn 0.150024414 -0.555175781 0.817871094
vn -0.427246094 -0.083984375 0.900390625
vn -0.3671875 -0.11907959 0.922363281
vn -0.810058594 0.0229644775 0.5859375
vn -1 -0.00953674316 -0.00261116028
vn -1 -0.0096206665 0.00325393677
vn -0.786132812 0.0280456543 0.617675781
vn -0.3671875 -0.11907959 0.922363281
vn -0.427246094 -0.083984375 0.900390625
vn 0.3203125 -0.534667969 -0.781738281
vn -0.200683594 -0.291259766 -0.935546875
vn -0.0422363281 -0.199584961 -0.979003906
vn 0.479248047 -0.396240234 -0.783203125
vn 0.737792969 -0.674804688 -7.15255737E-07
vn 0.851074219 -0.525390625 1.78813934E-07
vn 0.158081055 0.00531387329 -0.987304688
vn -0.239624023 0.0931396484 -0.966308594
vn -0.179321289 0.25390625 -0.950683594
vn 0.234985352 0.178466797 -0.955566406
vn 0.626953125 -0.0843505859 -0.774414062
vn 0.989257812 -0.146240234 0
vn 0.664550781 0.147827148 -0.732421875
vn 0.268554688 0.356445312 -0.895019531
vn 0.990722656 0.137329102 1.1920929E-07
vn 0.681640625 0.340087891 -0.647949219
vn 0.938476562 0.345703125 1.1920929E-07
vn -0.875488281 -0.146362305 -0.460449219
vn -0.998535156 -0.0575866699 0
vn -1 -0.00959014893 0
vn -0.768554688 -0.076171875 -0.635253906
vn -0.968261719 0.25 1.78813934E-07
vn -0.404785156 -0.258789062 -0.876953125
vn -0.875488281 -0.146362305 -0.460449219
vn -0.768554688 -0.076171875 -0.635253906
vn -0.366943359 -0.120666504 -0.922363281
vn -0.200683594 -0.291259766 -0.935546875
vn -0.0422363281 -0.199584961 -0.979003906
vn -0.239624023 0.0931396484 -0.966308594
vn -0.633789062 0.177734375 -0.752929688
vn -0.968261719 0.25 1.78813934E-07
vn -0.890625 0.455078125 4.17232513E-07
vn -0.580566406 0.356689453 -0.731933594
vn -0.785644531 0.618652344 1.78813934E-07
vn -0.532714844 0.529785156 -0.66015625
vn -0.179321289 0.25390625 -0.950683594
vn -0.137084961 0.429931641 -0.892578125
vn 0.234985352 0.178466797 -0.955566406
vn 0.268554688 0.356445312 -0.895019531
vn 0.285888672 -0.864257812 -0.413574219
vn 0.0185699463 -0.735351562 -0.677734375
vn 0.245727539 -0.842773438 -0.478515625
vn 0.0416870117 -0.742675781 -0.668457031
vn -0.274169922 -0.685058594 -0.674804688
vn -0.296142578 -0.683105469 -0.667480469
vn -0.296142578 -0.683105469 -0.667480469
vn -0.536621094 -0.689941406 -0.486083984
vn -0.274169922 -0.685058594 -0.674804688
vn -0.575683594 -0.695800781 -0.4296875
vn -0.691894531 -0.722167969 0
vn -0.691894531 -0.722167969 0
vn 0.822753906 -0.568359375 1.78813934E-07
vn 0.591308594 -0.473632812 -0.65234375
vn 0.822753906 -0.568359375 3.57627869E-07
vn 0.61328125 -0.481445312 -0.625976562
vn 0.217529297 -0.379882812 -0.898925781
vn 0.217773438 -0.379882812 -0.898925781
vn -0.293457031 -0.401367188 -0.867675781
vn -0.335693359 -0.410644531 -0.84765625
vn -0.335693359 -0.410644531 -0.84765625
vn -0.635253906 -0.523925781 -0.567382812
vn -0.293457031 -0.401367188 -0.867675781
vn -0.666503906 -0.560058594 -0.4921875
vn -0.751953125 -0.659179688 -2.38418579E-07
vn -0.751953125 -0.659179688 -5.36441803E-07
vn 0.340332031 -0.829101562 -0.443603516
vn 0.162353516 -0.542480469 -0.82421875
vn 0.0887451172 -0.464111328 -0.881347656
vn 0.317626953 -0.77734375 -0.543457031
vn 0.379150391 -0.925292969 0.00155544281
vn 0.379150391 -0.925292969 -0.00112342834
vn -0.809570312 0.0394592285 -0.585449219
vn -1 -0.0096206665 0.00325393677
vn -1 -0.00953674316 -0.00261116028
vn -0.779785156 0.0467224121 -0.624023438
vn -0.359130859 -0.0940551758 -0.928710938
vn -0.416992188 -0.0606384277 -0.906738281
vn 0.162353516 -0.542480469 -0.82421875
vn 0.0887451172 -0.464111328 -0.881347656
vn 0.608398438 0.561035156 0.561523438
vn 0.701660156 0.712402344 1.78813934E-07
vn 0.780761719 0.467773438 0.414550781
vn 0.604492188 0.625 0.494140625
vn 0.896484375 0.442871094 -1.78813934E-07
vn 0.840820312 0.211425781 0.498535156
vn 0.981933594 0.188476562 -1.78813934E-07
vn 0.840820312 0.211425781 -0.498535156
vn 0.780761719 0.467773438 -0.414550781
vn 0.487548828 0.785644531 0.380859375
vn 0.259765625 0.833496094 0.487304688
vn 0.151245117 0.98828125 -4.17232513E-07
vn 0.461669922 0.887207031 0
vn 0.487548828 0.785644531 -0.380859375
vn 0.259765625 0.833496094 -0.487304688
vn 0.604492188 0.625 -0.494140625
vn 0.352050781 0.395263672 -0.848632812
vn 0.608398438 0.561035156 -0.561523438
vn 0.456542969 0.296142578 -0.838867188
g Cannon_Handle_0
f 3/3/3 2/2/2 1/1/1
f 6/6/6 5/5/5 4/4/4
f 9/9/9 8/8/8 7/7/7
f 12/12/12 11/11/11 10/10/10
f 15/15/15 14/14/14 13/13/13
f 18/18/18 17/17/17 16/16/16
f 21/21/21 20/20/20 19/19/19
f 24/24/24 23/23/23 22/22/22
f 27/27/27 26/26/26 25/25/25
f 30/30/30 29/29/29 28/28/28
f 33/33/33 32/32/32 31/31/31
f 36/36/36 35/35/35 34/34/34
f 37/37/37 36/36/36 34/34/34
f 38/38/38 36/36/36 37/37/37
f 39/39/39 38/38/38 37/37/37
f 40/40/40 38/38/38 39/39/39
f 43/43/43 42/42/42 41/41/41
f 42/42/42 44/44/44 41/41/41
f 42/42/42 45/45/45 44/44/44
f 48/48/48 47/47/47 46/46/46
f 47/47/47 49/49/49 46/46/46
f 46/46/46 49/49/49 50/50/50
f 47/47/47 51/51/51 49/49/49
f 52/52/52 51/51/51 47/47/47
f 52/52/52 53/53/53 51/51/51
f 49/49/49 54/54/54 50/50/50
f 50/50/50 54/54/54 55/55/55
f 51/51/51 56/56/56 49/49/49
f 49/49/49 56/56/56 54/54/54
f 53/53/53 57/57/57 51/51/51
f 51/51/51 57/57/57 56/56/56
f 53/53/53 58/58/58 57/57/57
f 58/58/58 59/59/59 57/57/57
f 57/57/57 59/59/59 60/60/60
f 57/57/57 60/60/60 56/56/56
f 59/59/59 61/61/61 60/60/60
f 54/54/54 62/62/62 55/55/55
f 55/55/55 62/62/62 63/63/63
f 62/62/62 64/64/64 63/63/63
f 56/56/56 65/65/65 54/54/54
f 56/56/56 60/60/60 65/65/65
f 54/54/54 65/65/65 62/62/62
f 60/60/60 61/61/61 66/66/66
f 60/60/60 66/66/66 65/65/65
f 61/61/61 67/67/67 66/66/66
f 62/62/62 68/68/68 64/64/64
f 65/65/65 68/68/68 62/62/62
f 65/65/65 66/66/66 68/68/68
f 68/68/68 69/69/69 64/64/64
f 66/66/66 67/67/67 70/70/70
f 66/66/66 70/70/70 68/68/68
f 68/68/68 70/70/70 69/69/69
f 67/67/67 71/71/71 70/70/70
f 70/70/70 72/72/72 69/69/69
f 70/70/70 71/71/71 72/72/72
f 71/71/71 73/73/73 72/72/72
f 76/76/76 75/75/75 74/74/74
f 75/75/75 77/77/77 74/74/74
f 74/74/74 77/77/77 78/78/78
f 77/77/77 79/79/79 78/78/78
f 78/78/78 79/79/79 80/80/80
f 79/79/79 81/81/81 80/80/80
f 80/80/80 81/81/81 82/82/82
f 81/81/81 83/83/83 82/82/82
f 83/83/83 84/84/84 82/82/82
f 84/84/84 85/85/85 82/82/82
f 88/88/88 87/87/87 86/86/86
f 89/89/89 88/88/88 86/86/86
f 92/92/92 91/91/91 90/90/90
f 91/91/91 93/93/93 90/90/90
f 90/90/90 93/93/93 94/94/94
f 93/93/93 95/95/95 94/94/94
f 94/94/94 95/95/95 96/96/96
f 95/95/95 97/97/97 96/96/96
f 96/96/96 97/97/97 98/98/98
f 97/97/97 99/99/99 98/98/98
f 98/98/98 99/99/99 100/100/100
f 99/99/99 101/101/101 100/100/100
f 101/101/101 102/102/102 100/100/100
f 102/102/102 103/103/103 100/100/100
f 102/102/102 104/104/104 103/103/103
f 104/104/104 105/105/105 103/103/103
f 104/104/104 106/106/106 105/105/105
f 106/106/106 107/107/107 105/105/105
f 106/106/106 108/108/108 107/107/107
f 108/108/108 109/109/109 107/107/107
f 108/108/108 110/110/110 109/109/109
f 110/110/110 111/111/111 109/109/109
f 114/114/114 113/113/113 112/112/112
f 115/115/115 114/114/114 112/112/112
f 116/116/116 114/114/114 115/115/115
f 117/117/117 116/116/116 115/115/115
f 118/118/118 116/116/116 117/117/117
f 121/121/121 120/120/120 119/119/119
f 122/122/122 120/120/120 121/121/121
f 123/123/123 122/122/122 121/121/121
f 124/124/124 122/122/122 123/123/123
f 125/125/125 124/124/124 123/123/123
f 128/128/128 127/127/127 126/126/126
f 127/127/127 129/129/129 126/126/126
f 126/126/126 129/129/129 130/130/130
f 129/129/129 131/131/131 130/130/130
f 130/130/130 131/131/131 132/132/132
f 131/131/131 133/133/133 132/132/132
f 132/132/132 133/133/133 134/134/134
f 133/133/133 135/135/135 134/134/134
f 134/134/134 135/135/135 136/136/136
f 135/135/135 137/137/137 136/136/136
f 137/137/137 138/138/138 136/136/136
f 138/138/138 139/139/139 136/136/136
f 138/138/138 140/140/140 139/139/139
f 140/140/140 141/141/141 139/139/139
f 140/140/140 142/142/142 141/141/141
f 142/142/142 143/143/143 141/141/141
f 142/142/142 144/144/144 143/143/143
f 144/144/144 145/145/145 143/143/143
f 144/144/144 146/146/146 145/145/145
f 146/146/146 147/147/147 145/145/145
f 150/150/150 149/149/149 148/148/148
f 151/151/151 150/150/150 148/148/148
f 152/152/152 150/150/150 151/151/151
f 153/153/153 152/152/152 151/151/151
f 154/154/154 152/152/152 153/153/153
f 155/155/155 154/154/154 153/153/153
f 158/158/158 157/157/157 156/156/156
f 157/157/157 159/159/159 156/156/156
f 156/156/156 159/159/159 160/160/160
f 159/159/159 161/161/161 160/160/160
f 164/164/164 163/163/163 162/162/162
f 165/165/165 164/164/164 162/162/162
f 165/165/165 162/162/162 166/166/166
f 167/167/167 165/165/165 166/166/166
f 168/168/168 164/164/164 165/165/165
f 168/168/168 169/169/169 164/164/164
f 170/170/170 169/169/169 168/168/168
f 171/171/171 170/170/170 168/168/168
f 172/172/172 165/165/165 167/167/167
f 172/172/172 168/168/168 165/165/165
f 171/171/171 168/168/168 172/172/172
f 173/173/173 172/172/172 167/167/167
f 174/174/174 171/171/171 172/172/172
f 174/174/174 172/172/172 173/173/173
f 175/175/175 171/171/171 174/174/174
f 176/176/176 174/174/174 173/173/173
f 177/177/177 175/175/175 174/174/174
f 177/177/177 174/174/174 176/176/176
f 178/178/178 177/177/177 176/176/176
f 181/181/181 180/180/180 179/179/179
f 182/182/182 181/181/181 179/179/179
f 183/183/183 181/181/181 182/182/182
f 186/186/186 185/185/185 184/184/184
f 187/187/187 186/186/186 184/184/184
f 187/187/187 184/184/184 188/188/188
f 189/189/189 187/187/187 188/188/188
f 190/190/190 187/187/187 189/189/189
f 191/191/191 186/186/186 187/187/187
f 190/190/190 191/191/191 187/187/187
f 191/191/191 192/192/192 186/186/186
f 193/193/193 192/192/192 191/191/191
f 194/194/194 191/191/191 190/190/190
f 194/194/194 193/193/193 191/191/191
f 195/195/195 193/193/193 194/194/194
f 196/196/196 195/195/195 194/194/194
f 197/197/197 194/194/194 190/190/190
f 196/196/196 194/194/194 197/197/197
f 198/198/198 196/196/196 197/197/197
f 198/198/198 197/197/197 199/199/199
f 200/200/200 198/198/198 199/199/199
f 203/203/203 202/202/202 201/201/201
f 202/202/202 204/204/204 201/201/201
f 202/202/202 205/205/205 204/204/204
f 205/205/205 206/206/206 204/204/204
f 209/209/209 208/208/208 207/207/207
f 208/208/208 210/210/210 207/207/207
f 208/208/208 211/211/211 210/210/210
f 211/211/211 212/212/212 210/210/210
f 215/215/215 214/214/214 213/213/213
f 214/214/214 216/216/216 213/213/213
f 214/214/214 217/217/217 216/216/216
f 217/217/217 218/218/218 216/216/216
f 217/217/217 219/219/219 218/218/218
f 219/219/219 220/220/220 218/218/218
f 223/223/223 222/222/222 221/221/221
f 222/222/222 224/224/224 221/221/221
f 222/222/222 225/225/225 224/224/224
f 225/225/225 226/226/226 224/224/224
f 229/229/229 228/228/228 227/227/227
f 230/230/230 229/229/229 227/227/227
f 230/230/230 227/227/227 231/231/231
f 232/232/232 230/230/230 231/231/231
f 235/235/235 234/234/234 233/233/233
f 236/236/236 235/235/235 233/233/233
f 236/236/236 233/233/233 237/237/237
f 238/238/238 236/236/236 237/237/237
f 238/238/238 237/237/237 239/239/239
f 240/240/240 238/238/238 239/239/239
f 243/243/243 242/242/242 241/241/241
f 241/241/241 242/242/242 244/244/244
f 245/245/245 242/242/242 243/243/243
f 243/243/243 246/246/246 245/245/245
f 246/246/246 247/247/247 245/245/245
f 247/247/247 248/248/248 245/245/245
f 248/248/248 249/249/249 245/245/245
f 242/242/242 245/245/245 249/249/249
f 244/244/244 242/242/242 250/250/250
f 250/250/250 251/251/251 244/244/244
f 252/252/252 251/251/251 250/250/250
f 253/253/253 252/252/252 250/250/250
f 250/250/250 242/242/242 253/253/253
f 252/252/252 253/253/253 254/254/254
f 242/242/242 254/254/254 253/253/253
f 255/255/255 252/252/252 254/254/254
f 255/255/255 254/254/254 256/256/256
f 242/242/242 256/256/256 254/254/254
f 257/257/257 255/255/255 256/256/256
f 242/242/242 249/249/249 258/258/258
f 242/242/242 258/258/258 256/256/256
f 257/257/257 256/256/256 258/258/258
f 259/259/259 258/258/258 249/249/249
f 259/259/259 257/257/257 258/258/258
