g IS4_P1_PuertaExtraccion_Cristal
v 0.0409822948 0.227567136 0.226567641
v 0.0409829021 0.227567136 -0.226567641
v 0.0409829021 -0.227567136 -0.226567641
v 0.0409822948 -0.227567136 0.226567626
v -0.0409822948 0.227567136 0.226567641
v -0.0409822948 -0.227567136 0.226567626
v -0.0409829021 -0.227567136 -0.226567641
v -0.0409829021 0.227567136 -0.226567641
vt 0.667480469 0.94140625
vt 0.560546875 0.94140625
vt 0.560546875 0.833984375
vt 0.667480469 0.833984375
vt 0.667480469 0.94140625
vt 0.667480469 0.833984375
vt 0.560546875 0.833984375
vt 0.560546875 0.94140625
vn 1 0 0
vn 1 0 0
vn 1 0 0
vn 1 0 0
vn -1 0 0
vn -1 0 0
vn -1 0 0
vn -1 0 0
g IS4_P1_PuertaExtraccion_Cristal_0
f 3/3/3 2/2/2 1/1/1
f 4/4/4 3/3/3 1/1/1
f 7/7/7 6/6/6 5/5/5
f 8/8/8 7/7/7 5/5/5
