g DoorLatch
v -0.0542098023 0.0368315391 0.0515045859
v -0.0377176479 -0.0539907552 0.0510918088
v -0.0385428406 -0.0537778921 -0.0286992565
v -0.0550351515 0.0370442457 -0.0282864776
v -0.00772039499 0.0452754498 0.0510463268
v -0.0542098023 0.0368315391 0.0515045859
v -0.0550351515 0.0370442457 -0.0282864776
v -0.00854559056 0.0454883091 -0.0287447367
v -0.00854559056 0.0454883091 -0.0287447367
v -0.0550351515 0.0370442457 -0.0282864776
v -0.0385428406 -0.0537778921 -0.0286992565
v 0.00794671848 -0.0453338325 -0.0291575063
v 0.00794671848 -0.0453338325 -0.0291575063
v -0.0385428406 -0.0537778921 -0.0286992565
v -0.0377176479 -0.0539907552 0.0510918088
v 0.00877191406 -0.0455466919 0.0506335497
v 0.00877191406 -0.0455466919 0.0506335497
v -0.0377176479 -0.0539907552 0.0510918088
v -0.0542098023 0.0368315391 0.0515045859
v -0.00772039499 0.0452754498 0.0510463268
vt 0.232299805 0.168457031
vt 0.172973633 0.168457031
vt 0.172973633 0.203735352
vt 0.232299805 0.203735352
vt 0.213745117 0.168457031
vt 0.231811523 0.168457031
vt 0.231811523 0.203735352
vt 0.213745117 0.203735352
vt 0.213745117 0.168457031
vt 0.231811523 0.168457031
vt 0.231811523 0.203735352
vt 0.213745117 0.203735352
vt 0.213745117 0.168457031
vt 0.231811523 0.168457031
vt 0.231811523 0.203735352
vt 0.213745117 0.203735352
vt 0.213745117 0.168457031
vt 0.231811523 0.168457031
vt 0.231811523 0.203735352
vt 0.213745117 0.203735352
vn -0.983886719 -0.178710938 0.00969696045
vn -0.983886719 -0.178710938 0.00969696045
vn -0.983886719 -0.178710938 0.00969696045
vn -0.983886719 -0.178710938 0.00969696045
vn -0.178710938 0.983886719 0.0044708252
vn -0.178710938 0.983886719 0.0044708252
vn -0.178710938 0.983886719 0.0044708252
vn -0.178710938 0.983886719 0.0044708252
vn -0.0103378296 0.00266647339 -1
vn -0.0103378296 0.00266647339 -1
vn -0.0103378296 0.00266647339 -1
vn -0.0103378296 0.00266647339 -1
vn 0.178710938 -0.983886719 -0.0044708252
vn 0.178710938 -0.983886719 -0.0044708252
vn 0.178710938 -0.983886719 -0.0044708252
vn 0.178710938 -0.983886719 -0.0044708252
vn 0.0103378296 -0.00266647339 1
vn 0.0103378296 -0.00266647339 1
vn 0.0103378296 -0.00266647339 1
vn 0.0103378296 -0.00266647339 1
g DoorLatch_0
f 3/3/3 2/2/2 1/1/1
f 4/4/4 3/3/3 1/1/1
f 7/7/7 6/6/6 5/5/5
f 8/8/8 7/7/7 5/5/5
f 11/11/11 10/10/10 9/9/9
f 12/12/12 11/11/11 9/9/9
f 15/15/15 14/14/14 13/13/13
f 16/16/16 15/15/15 13/13/13
f 19/19/19 18/18/18 17/17/17
f 20/20/20 19/19/19 17/17/17
