g IS4_SalaControl_Boton_Azul
v 0.0270579383 0.00279895961 -0.0270579401
v -1.98344385E-09 0.0127140256 -0.0382657051
v -1.98344385E-09 0.00279895961 -0.0382657051
v 0.0270579383 0.0127140256 -0.0270579401
v 0.0382657088 0.00279895961 0
v 0.0382657088 0.0127140256 0
v 0.0270579401 0.00279895961 0.027057942
v 0.0270579401 0.0127140256 0.027057942
v -1.98344385E-09 0.00279895961 0.0382657051
v -1.98344385E-09 0.0127140256 0.0382657051
v -1.98344385E-09 0.00279895961 -0.0382657051
v -1.98344385E-09 0.0127140256 -0.0382657051
v -0.027057942 0.0127140256 -0.0270579401
v -0.027057942 0.00279895961 -0.0270579401
v -0.0382657088 0.0127140256 0
v -0.0382657088 0.00279895961 0
v -0.027057942 0.0127140256 0.0270579401
v -0.027057942 0.00279895961 0.0270579401
v -1.98344385E-09 0.0127140256 0.0382657051
v -1.98344385E-09 0.00279895961 0.0382657051
v -0.0106979692 0.0039068046 -0.0106979664
v 0.0106979664 -0.0156219285 -0.0106979664
v 0.0106979664 0.0039068046 -0.0106979664
v -0.0106979692 -0.0156219285 -0.0106979664
v -0.0106979692 0.0039068046 0.0106979692
v -0.0106979692 -0.0156219285 0.0106979692
v 0.0106979664 0.0039068046 0.0106979692
v 0.0106979664 -0.0156219285 0.0106979692
v 0.0106979664 0.0039068046 -0.0106979664
v 0.0106979664 -0.0156219285 -0.0106979664
v 0.0382657088 0.00279895961 0
v -6.97039579E-11 0.00279895961 0
v 0.0270579401 0.00279895961 0.027057942
v 0.0270579383 0.00279895961 -0.0270579401
v -1.98344385E-09 0.00279895961 0.0382657051
v -1.98344385E-09 0.00279895961 -0.0382657051
v -0.027057942 0.00279895961 0.0270579401
v -0.027057942 0.00279895961 -0.0270579401
v -0.0382657088 0.00279895961 0
v -1.98344385E-09 0.0156219266 0
v 0.0382657088 0.0127140256 0
v 0.0270579401 0.0127140256 0.027057942
v -1.98344385E-09 0.0127140256 0.0382657051
v 0.0270579383 0.0127140256 -0.0270579401
v -0.027057942 0.0127140256 0.0270579401
v -1.98344385E-09 0.0127140256 -0.0382657051
v -0.0382657088 0.0127140256 0
v -0.027057942 0.0127140256 -0.0270579401
vt 0.818359375 0.703613281
vt 0.811035156 0.726074219
vt 0.818359375 0.726074219
vt 0.811035156 0.703613281
vt 0.818359375 0.681152344
vt 0.811035156 0.681152344
vt 0.818359375 0.658691406
vt 0.811035156 0.658691406
vt 0.818359375 0.635742188
vt 0.811035156 0.635742188
vt 0.818359375 0.635742188
vt 0.811035156 0.635742188
vt 0.811035156 0.658691406
vt 0.818359375 0.658691406
vt 0.811035156 0.681152344
vt 0.818359375 0.681152344
vt 0.811035156 0.703613281
vt 0.818359375 0.703613281
vt 0.811035156 0.726074219
vt 0.818359375 0.726074219
vt 0.558105469 0.178588867
vt 0.541992188 0.196166992
vt 0.558105469 0.196166992
vt 0.541992188 0.178588867
vt 0.558105469 0.161010742
vt 0.541992188 0.161010742
vt 0.558105469 0.143432617
vt 0.541992188 0.143432617
vt 0.558105469 0.125854492
vt 0.541992188 0.125854492
vt 0.782226562 0.740722656
vt 0.801269531 0.748535156
vt 0.793457031 0.729492188
vt 0.782226562 0.756347656
vt 0.809570312 0.729492188
vt 0.793457031 0.767578125
vt 0.820800781 0.740722656
vt 0.809570312 0.767578125
vt 0.820800781 0.756347656
vt 0.801269531 0.748535156
vt 0.820800781 0.756347656
vt 0.820800781 0.740722656
vt 0.809570312 0.729492188
vt 0.809570312 0.767578125
vt 0.793457031 0.729492188
vt 0.793457031 0.767578125
vt 0.782226562 0.740722656
vt 0.782226562 0.756347656
vn 0.70703125 0 -0.70703125
vn -0 0 -1
vn -0 0 -1
vn 0.70703125 0 -0.70703125
vn 1 0 0
vn 1 0 0
vn 0.70703125 0 0.70703125
vn 0.70703125 0 0.70703125
vn -0 0 1
vn -0 0 1
vn -0 0 -1
vn -0 0 -1
vn -0.70703125 0 -0.70703125
vn -0.70703125 0 -0.70703125
vn -1 0 0
vn -1 0 0
vn -0.70703125 0 0.70703125
vn -0.70703125 0 0.70703125
vn -0 0 1
vn -0 0 1
vn -0.70703125 0 -0.70703125
vn 0.70703125 0 -0.70703125
vn 0.70703125 0 -0.70703125
vn -0.70703125 0 -0.70703125
vn -0.70703125 0 0.70703125
vn -0.70703125 0 0.70703125
vn 0.70703125 0 0.70703125
vn 0.70703125 0 0.70703125
vn 0.70703125 0 -0.70703125
vn 0.70703125 0 -0.70703125
vn -0 -1 0
vn -0 -1 0
vn -0 -1 0
vn -0 -1 0
vn -0 -1 0
vn -0 -1 1.1920929E-07
vn -0 -1 0
vn -0 -1 0
vn -0 -1 0
vn -0 1 0
vn 0.0757446289 0.997070312 0
vn 0.0535888672 0.997070312 0.0535888672
vn -0 0.997070312 0.0757446289
vn 0.0535888672 0.997070312 -0.0535888672
vn -0.0535888672 0.997070312 0.0535888672
vn -0 0.997070312 -0.0757446289
vn -0.0757446289 0.997070312 0
vn -0.0535888672 0.997070312 -0.0535888672
g IS4_SalaControl_Boton_Azul_0
f 3/3/3 2/2/2 1/1/1
f 2/2/2 4/4/4 1/1/1
f 1/1/1 4/4/4 5/5/5
f 4/4/4 6/6/6 5/5/5
f 5/5/5 6/6/6 7/7/7
f 6/6/6 8/8/8 7/7/7
f 7/7/7 8/8/8 9/9/9
f 8/8/8 10/10/10 9/9/9
f 13/13/13 12/12/12 11/11/11
f 14/14/14 13/13/13 11/11/11
f 15/15/15 13/13/13 14/14/14
f 16/16/16 15/15/15 14/14/14
f 17/17/17 15/15/15 16/16/16
f 18/18/18 17/17/17 16/16/16
f 19/19/19 17/17/17 18/18/18
f 20/20/20 19/19/19 18/18/18
f 23/23/23 22/22/22 21/21/21
f 22/22/22 24/24/24 21/21/21
f 21/21/21 24/24/24 25/25/25
f 24/24/24 26/26/26 25/25/25
f 25/25/25 26/26/26 27/27/27
f 26/26/26 28/28/28 27/27/27
f 27/27/27 28/28/28 29/29/29
f 28/28/28 30/30/30 29/29/29
f 33/33/33 32/32/32 31/31/31
f 31/31/31 32/32/32 34/34/34
f 35/35/35 32/32/32 33/33/33
f 34/34/34 32/32/32 36/36/36
f 37/37/37 32/32/32 35/35/35
f 36/36/36 32/32/32 38/38/38
f 39/39/39 32/32/32 37/37/37
f 38/38/38 32/32/32 39/39/39
f 42/42/42 41/41/41 40/40/40
f 43/43/43 42/42/42 40/40/40
f 40/40/40 41/41/41 44/44/44
f 45/45/45 43/43/43 40/40/40
f 44/44/44 46/46/46 40/40/40
f 47/47/47 45/45/45 40/40/40
f 46/46/46 48/48/48 40/40/40
f 48/48/48 47/47/47 40/40/40
