g Lis_PinkHat
v -0.00430417759 0.627531648 -0.0417514406
v -0.0054796366 0.63367033 -0.0446320623
v -0.0365813263 0.630364358 -0.0365509428
v -0.0352328531 0.623098195 -0.0330519192
v -0.00424583908 0.628221691 -0.0391401052
v -0.0508330762 0.621748328 -0.0171627756
v -0.0487644002 0.629760683 -0.0204487573
v -0.0557920262 0.629920483 0.0116321454
v -0.0336938947 0.624149561 -0.0308597069
v -0.00466745952 0.637230992 -0.036081098
v -0.0555223897 0.621597588 0.014847558
v -0.0551815182 0.632684767 0.0433861278
v -0.0486743636 0.622640014 -0.0155439004
v -0.0303624235 0.633157015 -0.0288968328
v -0.00508908089 0.646240234 -0.0330220871
v -0.027030956 0.642132759 -0.0269339532
v -0.00509261526 0.646315694 -0.0329964459
v -0.0270030312 0.64220804 -0.0269175116
v -0.0453819782 0.631206512 -0.0126606496
v -0.0420896001 0.639772952 -0.00977739133
v -0.0420620069 0.639844775 -0.00975323096
v -0.053164009 0.622485042 0.0150555894
v -0.0538387261 0.625266731 0.0465280749
v -0.0461958684 0.639307559 0.0167504698
v -0.0461666659 0.639378071 0.0167575721
v -0.049679935 0.63089633 0.0159030333
v -0.0406774506 0.629463553 0.0678909719
v -0.0427376702 0.636568248 0.0673212633
v -0.0237898733 0.64237088 0.076280497
v -0.0513877682 0.625994146 0.045309335
v -0.0436148569 0.642402887 0.0441722609
v -0.0435847193 0.642471611 0.0441687778
v -0.047261361 0.634198487 0.0446150452
v -0.0389402881 0.63000679 0.0655695051
v -0.0216323975 0.634527326 0.0769646987
v -0.0324388146 0.645905852 0.0603187792
v -0.0324113034 0.645972431 0.0603004098
v -0.0357139818 0.637956381 0.0626138449
v -0.000530115794 0.637339234 0.0804657638
v -0.00155412708 0.646521986 0.0804105401
v 0.0229477193 0.645960271 0.0782795921
v -0.0207764916 0.634855688 0.0744055733
v -0.0183865596 0.650361478 0.0673061013
v -0.0183765441 0.650426447 0.0672763437
v -0.0195815265 0.642608583 0.0708558485
v -0.000596894533 0.637520134 0.0777178183
v 0.0229296051 0.63757813 0.0768805593
v -0.000666253443 0.651953876 0.0691234097
v -0.000666547567 0.652014315 0.0690873936
v -0.000631574541 0.644737065 0.0734206215
v 0.040202301 0.6365273 0.0672500432
v 0.0412043594 0.642323434 0.0685028434
v 0.0505023822 0.638752043 0.0427121408
v 0.0218229368 0.637733459 0.0742549449
v 0.0188747998 0.651678503 0.0654084831
v 0.0188625269 0.651736915 0.0653715283
v 0.0203389749 0.644705951 0.0698186159
v 0.0382075943 0.636765361 0.0649219528
v 0.0502974428 0.63506031 0.0437939577
v 0.0319289081 0.651921451 0.0570873655
v 0.0319054686 0.65198499 0.0570582114
v 0.0348840766 0.64435941 0.0607376695
v 0.0510483459 0.634093642 0.00990738906
v 0.0511458553 0.636753082 0.00849026069
v 0.0417275764 0.637478113 -0.0156209255
v 0.0479529649 0.635417104 0.0427105948
v 0.0402783193 0.652436078 0.0402491093
v 0.0402461477 0.652507365 0.0402388014
v 0.0441156439 0.643926561 0.0414798521
v 0.0424086675 0.63378346 -0.013070886
v 0.0232793596 0.63795501 -0.0334206037
v 0.0486702248 0.634484649 0.0103149144
v 0.0408835933 0.651696861 0.0120834801
v 0.0408509672 0.651773572 0.0120908935
v 0.0447769128 0.64256078 0.0111991977
v 0.0404313207 0.634218931 -0.0117030907
v 0.0226950422 0.631865561 -0.0304987766
v 0.0340120606 0.652443528 -0.00900881458
v 0.0339851715 0.652524531 -0.00899752695
v 0.0372217 0.642792583 -0.0103559522
v -0.00430417759 0.627531648 -0.0417514406
v -0.0054796366 0.63367033 -0.0446320623
v 0.0215728451 0.632388115 -0.0283648726
v -0.00424583908 0.628221691 -0.0391401052
v 0.019577777 0.641478598 -0.0257398132
v -0.00466745952 0.637230992 -0.036081098
v 0.0175827071 0.650569081 -0.0231147464
v 0.017565988 0.650645256 -0.0230927449
v -0.00508908089 0.646240234 -0.0330220871
v -0.00509261526 0.646315694 -0.0329964459
v -0.00306584919 0.704975009 -0.00940195378
v 0.000178864255 0.705123067 -0.0118021378
v -0.00153829867 0.70516789 -0.00858804956
v -0.00136602495 0.704934299 -0.0125966743
v -0.00481350953 0.694936693 -0.0160080921
v -0.0020725897 0.695099354 -0.0145700667
v 0.000178864255 0.705123067 -0.0118021378
v -0.00215149531 0.688625276 -0.0150904227
v -0.00771438563 0.695130944 -0.0102868695
v -0.00153829867 0.70516789 -0.00858804956
v -0.00525763212 0.688470542 -0.0166910924
v -0.00221208134 0.688088298 -0.0150418738
v -0.00525904819 0.687933922 -0.0166333653
v -0.00851742364 0.688763797 -0.0103145121
v -0.00863558706 0.688085377 -0.0102229221
v -0.00507198879 0.695292354 -0.00892707799
v 0.000178864255 0.705123067 -0.0118021378
v -0.0020725897 0.695099354 -0.0145700667
v -0.00560099119 0.688910007 -0.00876875408
v -0.00560416142 0.688234627 -0.00863356143
v -0.00215149531 0.688625276 -0.0150904227
v -0.00221208134 0.688088298 -0.0150418738
v 0.0511458553 0.636753082 0.00849026069
v 0.0603440739 0.632811844 0.00433076266
v 0.0516537018 0.627435684 -0.0187742468
v 0.0417275764 0.637478113 -0.0156209255
v 0.0505023822 0.638752043 0.0427121408
v 0.0299017914 0.62482512 -0.0361854546
v 0.0232793596 0.63795501 -0.0334206037
v 0.0586718321 0.640135467 0.0416379273
v 0.0412043594 0.642323434 0.0685028434
v -0.00862424541 0.624072254 -0.0430909395
v -0.0054796366 0.63367033 -0.0446320623
v 0.0463899001 0.649154067 0.0695361197
v 0.0229477193 0.645960271 0.0782795921
v -0.0352092236 0.618237376 -0.0371150151
v -0.0365813263 0.630364358 -0.0365509428
v 0.02533485 0.653503716 0.0852481574
v -0.00155412708 0.646521986 0.0804105401
v -0.0604744367 0.614506602 -0.0202274546
v -0.0487644002 0.629760683 -0.0204487573
v -0.00186935847 0.654012501 0.090904817
v -0.0237898733 0.64237088 0.076280497
v -0.0783044249 0.621711552 0.00776376668
v -0.0557920262 0.629920483 0.0116321454
v -0.0297571104 0.647696972 0.0882992744
v -0.0427376702 0.636568248 0.0673212633
v -0.0758198574 0.628023028 0.036229156
v -0.0551815182 0.632684767 0.0433861278
v -0.0513286516 0.63885951 0.0764070898
v -0.0468911007 0.617907107 -0.0484686457
v -0.0778382942 0.623711288 -0.027452508
v -0.0904091895 0.628643513 0.00446997304
v -0.0864945725 0.635533094 0.035013184
v -0.0588232502 0.645272613 0.0771159083
v -0.0343758166 0.659193397 0.0895074904
v -0.00781500433 0.619636893 -0.0524050072
v -0.0017570178 0.664323211 0.0929561928
v 0.0364029258 0.623238742 -0.0412938371
v 0.0263489671 0.663762629 0.0858389661
v 0.0584908053 0.634007692 -0.0221033711
v 0.0477776751 0.655592442 0.0690006912
v 0.0654317513 0.640824735 0.0028395222
v 0.062962912 0.647001863 0.0394195095
v -0.00723206764 0.628965616 -0.0625976771
v 0.0385052115 0.639182687 -0.0472123772
v 0.0615798458 0.645441234 -0.0253131501
v 0.0677612722 0.6515733 0.000603610883
v 0.0651447922 0.659088731 0.0337208509
v 0.0477423556 0.664224267 0.0639517307
v -0.0477030985 0.628492892 -0.0578419156
v 0.0263808575 0.676611125 0.0762017369
v -0.0789778084 0.633320808 -0.0309708547
v -0.00103348226 0.679424942 0.0848209783
v -0.092676945 0.635844827 0.00155815715
v -0.037694782 0.672193706 0.083591789
v -0.0871553123 0.641693532 0.0330618136
v -0.0617252588 0.654749274 0.0730682835
v -0.0664672554 0.643237591 -0.0294839926
v -0.0784405544 0.648610115 -0.00371565972
v -0.0706617832 0.65399152 0.0254826788
v -0.0491952151 0.662100196 0.0540867522
v -0.0310195517 0.677297533 0.0629373714
v -0.00292655546 0.68568337 0.0625648573
v -0.0403400585 0.639353395 -0.0536314808
v 0.0201394763 0.682361007 0.0558524467
v -0.00943328161 0.643843353 -0.059263058
v 0.0387695581 0.674493551 0.0452213921
v 0.0281843133 0.653959274 -0.0481093377
v 0.0518685319 0.671055675 0.0201264191
v 0.0485326946 0.659151673 -0.0267462824
v 0.0542971604 0.663816333 -0.0052017998
v -0.032697808 0.650682926 -0.0474841967
v -0.0108716162 0.658873677 -0.0523022898
v 0.0163062122 0.666423738 -0.0448811837
v 0.0326474346 0.671843529 -0.0284554083
v 0.0383491106 0.676324964 -0.011188576
v 0.0353429914 0.680923581 0.00795139465
v -0.053368248 0.654701054 -0.0294043738
v -0.0317096077 0.668790698 -0.0334807411
v -0.00726217357 0.678602338 -0.0364853553
v 0.0127850389 0.678500473 -0.0342393667
v 0.0151460208 0.688274443 -0.0148790246
v -0.0604546666 0.660611928 -0.00800912548
v -0.03499569 0.677279413 -0.0106695965
v -0.00827062689 0.68958205 -0.0143369883
v -0.0508512296 0.664337218 0.0174881741
v 0.0136002367 0.691087902 0.00729969935
v -0.0289415661 0.679591119 0.0135510759
v -0.00820341054 0.695042491 0.00923907384
v -0.038323991 0.668929577 0.0364901945
v -0.025382841 0.681511939 0.0394894183
v -0.00524678174 0.690719128 0.0384909175
v 0.0143595822 0.688707113 0.0342917144
v 0.0279843938 0.68187809 0.0273358338
vt 0.127075195 0.876953125
vt 0.12902832 0.889648438
vt 0.190185547 0.880859375
vt 0.187133789 0.863769531
vt 0.127075195 0.871582031
vt 0.222290039 0.844238281
vt 0.225585938 0.861328125
vt 0.273193359 0.816894531
vt 0.184692383 0.858886719
vt 0.123291016 0.854003906
vt 0.264404297 0.802246094
vt 0.309570312 0.766601562
vt 0.219970703 0.839355469
vt 0.173583984 0.84375
vt 0.119506836 0.836425781
vt 0.162597656 0.829101562
vt 0.119445801 0.8359375
vt 0.162597656 0.828613281
vt 0.210327148 0.82421875
vt 0.200805664 0.80859375
vt 0.200805664 0.80859375
vt 0.260986328 0.798828125
vt 0.299316406 0.755371094
vt 0.238037109 0.772949219
vt 0.237915039 0.772949219
vt 0.249511719 0.785644531
vt 0.317626953 0.714355469
vt 0.330810547 0.719726562
vt 0.339355469 0.676757812
vt 0.294921875 0.753417969
vt 0.26953125 0.73046875
vt 0.26953125 0.73046875
vt 0.282226562 0.741699219
vt 0.312744141 0.712890625
vt 0.32421875 0.673339844
vt 0.284423828 0.6953125
vt 0.284179688 0.6953125
vt 0.298583984 0.704101562
vt 0.325927734 0.6328125
vt 0.343505859 0.633300781
vt 0.338134766 0.586425781
vt 0.319091797 0.672851562
vt 0.287109375 0.665039062
vt 0.286865234 0.665039062
vt 0.302978516 0.668945312
vt 0.320556641 0.6328125
vt 0.322021484 0.587890625
vt 0.288330078 0.631835938
vt 0.288330078 0.631835938
vt 0.304443359 0.632324219
vt 0.311523438 0.553222656
vt 0.322265625 0.549316406
vt 0.290527344 0.508300781
vt 0.316894531 0.589355469
vt 0.285644531 0.594726562
vt 0.285400391 0.594726562
vt 0.301269531 0.592285156
vt 0.306396484 0.5546875
vt 0.285888672 0.514160156
vt 0.275634766 0.567871094
vt 0.275634766 0.567871094
vt 0.291015625 0.561035156
vt 0.241577148 0.468505859
vt 0.244384766 0.461914062
vt 0.204223633 0.432861328
vt 0.281738281 0.516601562
vt 0.254150391 0.539550781
vt 0.25390625 0.539550781
vt 0.267822266 0.527832031
vt 0.203857422 0.442138672
vt 0.162841797 0.407470703
vt 0.238647461 0.471923828
vt 0.215942383 0.501953125
vt 0.215820312 0.502441406
vt 0.227294922 0.487060547
vt 0.201660156 0.446044922
vt 0.158203125 0.421630859
vt 0.181152344 0.479248047
vt 0.181030273 0.479492188
vt 0.19128418 0.462646484
vt 0.104125977 0.404785156
vt 0.105529785 0.391601562
vt 0.156982422 0.426269531
vt 0.104919434 0.409667969
vt 0.151123047 0.443847656
vt 0.10345459 0.427490234
vt 0.145263672 0.461669922
vt 0.145263672 0.461669922
vt 0.101501465 0.4453125
vt 0.101501465 0.4453125
vt 0.0367431641 0.0577087402
vt 0.0274810791 0.0639038086
vt 0.0373840332 0.0623779297
vt 0.0268249512 0.0592041016
vt 0.0194854736 0.0305328369
vt 0.012878418 0.0350646973
vt 0.0234527588 0.0625
vt 0.00659942627 0.0177459717
vt 0.0360412598 0.0289154053
vt 0.0408935547 0.0599060059
vt 0.0155944824 0.0141830444
vt 0.00626754761 0.0162963867
vt 0.0153121948 0.0127716064
vt 0.0355224609 0.0118560791
vt 0.0355529785 0.00998687744
vt 0.043182373 0.0314025879
vt 0.0505981445 0.0616760254
vt 0.0599975586 0.0341491699
vt 0.0448913574 0.0135421753
vt 0.0450744629 0.0116958618
vt 0.064453125 0.0171813965
vt 0.0645751953 0.0157165527
vt 0.098815918 0.385986328
vt 0.101196289 0.369873047
vt 0.0545349121 0.326660156
vt 0.0355529785 0.331054688
vt 0.195678711 0.411376953
vt 0.0218353271 0.262695312
vt 0.00498199463 0.255859375
vt 0.189331055 0.398925781
vt 0.274169922 0.388427734
vt 0.0210113525 0.158447266
vt 0.00323867798 0.167724609
vt 0.265380859 0.377685547
vt 0.329345703 0.348632812
vt 0.0600585938 0.0921630859
vt 0.0467834473 0.078918457
vt 0.319580078 0.336425781
vt 0.371337891 0.278076172
vt 0.12902832 0.0518188477
vt 0.102966309 0.0383300781
vt 0.351806641 0.273681641
vt 0.383056641 0.201538086
vt 0.204589844 0.0507202148
vt 0.212768555 0.0136184692
vt 0.359375 0.204589844
vt 0.354492188 0.12878418
vt 0.264404297 0.0692138672
vt 0.305664062 0.0686645508
vt 0.343261719 0.142578125
vt 0.0836791992 0.0977783203
vt 0.145996094 0.0748291016
vt 0.203491211 0.071472168
vt 0.254150391 0.0842895508
vt 0.328369141 0.146728516
vt 0.341064453 0.206176758
vt 0.0336914062 0.162475586
vt 0.336425781 0.272705078
vt 0.0346984863 0.267822266
vt 0.306884766 0.325927734
vt 0.06640625 0.322998047
vt 0.261474609 0.367919922
vt 0.10925293 0.360107422
vt 0.186523438 0.385498047
vt 0.0518188477 0.172485352
vt 0.051574707 0.264892578
vt 0.0809936523 0.315429688
vt 0.118591309 0.346923828
vt 0.182006836 0.364990234
vt 0.250976562 0.355712891
vt 0.0914916992 0.116699219
vt 0.283203125 0.314941406
vt 0.148193359 0.0894165039
vt 0.308837891 0.270263672
vt 0.201293945 0.0825805664
vt 0.319580078 0.20715332
vt 0.24987793 0.0934448242
vt 0.313476562 0.153686523
vt 0.14855957 0.11328125
vt 0.192993164 0.10949707
vt 0.23828125 0.126586914
vt 0.280761719 0.170654297
vt 0.286132812 0.213134766
vt 0.273925781 0.260986328
vt 0.0989379883 0.13684082
vt 0.253417969 0.297607422
vt 0.0746459961 0.181152344
vt 0.225708008 0.326904297
vt 0.0746459961 0.249267578
vt 0.174194336 0.331054688
vt 0.0975341797 0.293457031
vt 0.128662109 0.318847656
vt 0.109863281 0.156982422
vt 0.098449707 0.190917969
vt 0.0978393555 0.236206055
vt 0.114379883 0.26953125
vt 0.138061523 0.288818359
vt 0.170043945 0.297363281
vt 0.14831543 0.138671875
vt 0.140136719 0.174926758
vt 0.130249023 0.211547852
vt 0.122741699 0.239379883
vt 0.15222168 0.254150391
vt 0.185058594 0.139770508
vt 0.177368164 0.182373047
vt 0.165039062 0.222900391
vt 0.224121094 0.159790039
vt 0.184448242 0.264648438
vt 0.212768555 0.198608398
vt 0.197998047 0.234741211
vt 0.250488281 0.185668945
vt 0.249145508 0.215332031
vt 0.238647461 0.249389648
vt 0.223266602 0.278320312
vt 0.204711914 0.298828125
vn 0.124938965 -0.637207031 -0.760742188
vn -0.10760498 -0.532226562 0.83984375
vn 0.434814453 -0.602539062 0.669433594
vn -0.352050781 -0.625 -0.696777344
vn 0.0545654297 -0.557617188 0.828613281
vn -0.911621094 -0.293212891 -0.288085938
vn 0.329833984 -0.842773438 0.425048828
vn 0.00981903076 -0.979492188 0.202270508
vn 0.472412109 -0.583007812 0.660644531
vn -0.0145874023 -0.328369141 0.944335938
vn -0.944335938 -0.328613281 -0.0275726318
vn -0.190673828 -0.956542969 0.220825195
vn 0.731445312 -0.609375 0.305175781
vn 0.495605469 -0.369140625 0.786132812
vn -0.0495300293 -0.329833984 0.942871094
vn 0.477050781 -0.362060547 0.80078125
vn -0.0579223633 -0.330322266 0.941894531
vn 0.493408203 -0.365966797 0.7890625
vn 0.839355469 -0.419189453 0.345458984
vn 0.843261719 -0.418457031 0.336914062
vn 0.843261719 -0.418212891 0.337158203
vn 0.816894531 -0.572265625 0.0704345703
vn -0.878417969 -0.362792969 0.310791016
vn 0.91796875 -0.394287109 0.0428161621
vn 0.918457031 -0.393066406 0.0395507812
vn 0.914550781 -0.400878906 0.0547180176
vn -0.596679688 -0.348388672 0.72265625
vn -0.136962891 -0.873046875 0.468261719
vn -0.0234680176 -0.690429688 0.723144531
vn 0.772949219 -0.625488281 -0.107910156
vn 0.879394531 -0.413330078 -0.235961914
vn 0.878417969 -0.409667969 -0.245361328
vn 0.881835938 -0.428466797 -0.197387695
vn 0.6171875 -0.672851562 -0.408447266
vn -0.221069336 -0.287597656 0.932128906
vn 0.655761719 -0.4296875 -0.620605469
vn 0.652832031 -0.424316406 -0.627441406
vn 0.6796875 -0.447509766 -0.581054688
vn -0.000967979431 -0.285644531 0.958496094
vn 0.0605773926 -0.601074219 0.796875
vn 0.226318359 -0.507324219 0.831542969
vn 0.351074219 -0.666015625 -0.658203125
vn 0.306884766 -0.457275391 -0.834472656
vn 0.291748047 -0.457275391 -0.840332031
vn 0.337402344 -0.459228516 -0.821777344
vn 0.041015625 -0.708007812 -0.705078125
vn 0.238769531 -0.394287109 0.887695312
vn -0.0138931274 -0.506835938 -0.861816406
vn -0.0294036865 -0.506835938 -0.861816406
vn 0.00565719604 -0.506347656 -0.862304688
vn 0.630371094 -0.484863281 0.606445312
vn 0.531738281 -0.542480469 0.650390625
vn 0.519042969 -0.803710938 0.291259766
vn -0.228515625 -0.749023438 -0.622070312
vn -0.294921875 -0.537597656 -0.789550781
vn -0.298339844 -0.532714844 -0.791992188
vn -0.285644531 -0.545410156 -0.788085938
vn -0.53515625 -0.747558594 -0.394042969
vn 0.793945312 -0.565429688 0.22277832
vn -0.676757812 -0.502441406 -0.538085938
vn -0.672363281 -0.492431641 -0.552734375
vn -0.671875 -0.519042969 -0.528320312
vn 0.800292969 -0.597167969 -0.0554199219
vn -0.0287017822 -0.988769531 0.146118164
vn -0.353027344 -0.865234375 0.356445312
vn -0.749511719 -0.651367188 -0.117980957
vn -0.888671875 -0.430908203 -0.156005859
vn -0.889160156 -0.427490234 -0.162231445
vn -0.8828125 -0.442871094 -0.155517578
vn 0.65625 -0.643066406 -0.394775391
vn -0.251953125 -0.618164062 0.744628906
vn -0.778808594 -0.614746094 0.123413086
vn -0.911621094 -0.391113281 0.125732422
vn -0.913085938 -0.390380859 0.118835449
vn -0.904296875 -0.406982422 0.129516602
vn -0.65234375 -0.586914062 0.479492188
vn 0.449707031 -0.633300781 -0.629882812
vn -0.767578125 -0.357421875 0.532226562
vn -0.770507812 -0.358154297 0.52734375
vn -0.759277344 -0.371337891 0.534667969
vn 0.124938965 -0.637207031 -0.760742188
vn -0.10760498 -0.532226562 0.83984375
vn -0.385742188 -0.530273438 0.754882812
vn 0.0545654297 -0.557617188 0.828613281
vn -0.461669922 -0.331298828 0.822753906
vn -0.0145874023 -0.328369141 0.944335938
vn -0.471435547 -0.326416016 0.819335938
vn -0.468261719 -0.325683594 0.821289062
vn -0.0495300293 -0.329833984 0.942871094
vn -0.0579223633 -0.330322266 0.941894531
vn -0.869140625 0.493896484 0.016204834
vn 0.970214844 -0.162109375 0.179931641
vn 0.690917969 -0.161987305 0.704589844
vn -0.466064453 0.491455078 -0.735839844
vn -0.6015625 0.286132812 -0.745605469
vn 0.993164062 -0.114807129 -0.00038433075
vn 0.970214844 -0.162109375 0.179931641
vn 1 -0.0177001953 -0.00266838074
vn -0.952636719 0.291259766 -0.0861206055
vn 0.690917969 -0.161987305 0.704589844
vn -0.606933594 0.114074707 -0.786621094
vn 0.995605469 -0.0210876465 0.0931396484
vn -0.648925781 -0.0145721436 -0.760742188
vn -0.989746094 0.122802734 -0.0750732422
vn -0.993164062 0.11505127 0.00761032104
vn 0.565429688 -0.124450684 0.815429688
vn 0.970214844 -0.162109375 0.179931641
vn 0.993164062 -0.114807129 -0.00038433075
vn 0.580078125 -0.0107650757 0.814453125
vn 0.53515625 0.113952637 0.836914062
vn 1 -0.0177001953 -0.00266838074
vn 0.995605469 -0.0210876465 0.0931396484
vn -0.0287017822 -0.988769531 0.146118164
vn 0.343261719 -0.92578125 0.156982422
vn -0.0339660645 -0.960449219 0.275878906
vn -0.353027344 -0.865234375 0.356445312
vn 0.519042969 -0.803710938 0.291259766
vn -0.206054688 -0.763183594 0.612304688
vn -0.251953125 -0.618164062 0.744628906
vn 0.584960938 -0.751953125 0.303710938
vn 0.531738281 -0.542480469 0.650390625
vn 0.0513916016 -0.638183594 0.768066406
vn -0.10760498 -0.532226562 0.83984375
vn 0.635742188 -0.436279297 0.63671875
vn 0.226318359 -0.507324219 0.831542969
vn 0.236938477 -0.869628906 0.433349609
vn 0.434814453 -0.602539062 0.669433594
vn 0.315917969 -0.407226562 0.856933594
vn 0.0605773926 -0.601074219 0.796875
vn 0.0903930664 -0.989257812 0.113952637
vn 0.329833984 -0.842773438 0.425048828
vn 0.0805664062 -0.484863281 0.87109375
vn -0.0234680176 -0.690429688 0.723144531
vn -0.087890625 -0.983886719 0.155517578
vn 0.00981903076 -0.979492188 0.202270508
vn -0.054107666 -0.583496094 0.810058594
vn -0.136962891 -0.873046875 0.468261719
vn -0.177856445 -0.936035156 0.303222656
vn -0.190673828 -0.956542969 0.220825195
vn -0.223632812 -0.797363281 0.560546875
vn -0.24609375 -0.840332031 -0.482666016
vn -0.576660156 -0.747070312 -0.330078125
vn -0.736328125 -0.676757812 0.00240898132
vn -0.768554688 -0.469970703 0.434082031
vn -0.628417969 -0.285400391 0.723632812
vn -0.273193359 0.144287109 0.951171875
vn 0.138549805 -0.854003906 -0.501464844
vn 0.0480041504 0.259033203 0.96484375
vn 0.428222656 -0.705078125 -0.565429688
vn 0.424804688 0.285888672 0.858886719
vn 0.786132812 -0.496582031 -0.367675781
vn 0.777832031 0.115234375 0.617675781
vn 0.931640625 -0.362792969 0.011138916
vn 0.938964844 -0.177490234 0.294677734
vn 0.142333984 -0.232910156 -0.961914062
vn 0.509765625 -0.0599365234 -0.858398438
vn 0.829101562 0.176635742 -0.530761719
vn 0.930175781 0.342773438 -0.130615234
vn 0.851074219 0.500488281 0.158569336
vn 0.696289062 0.619140625 0.36328125
vn -0.399414062 -0.0829467773 -0.913085938
vn 0.409912109 0.791992188 0.452636719
vn -0.759277344 0.230712891 -0.608398438
vn 0.000347852707 0.82421875 0.56640625
vn -0.865722656 0.47265625 -0.1640625
vn -0.433349609 0.765136719 0.476074219
vn -0.762207031 0.62109375 0.181518555
vn -0.704101562 0.619628906 0.347167969
vn -0.544433594 0.661621094 -0.515625
vn -0.60546875 0.77734375 -0.171875
vn -0.525390625 0.849609375 0.0466918945
vn -0.54296875 0.839355469 0.0271148682
vn -0.434814453 0.895507812 0.094909668
vn -0.0695800781 0.974609375 0.213378906
vn -0.346435547 0.503417969 -0.791503906
vn 0.332275391 0.925292969 0.182983398
vn 0.0416870117 0.324951172 -0.944824219
vn 0.508789062 0.848144531 0.1484375
vn 0.369384766 0.379150391 -0.848632812
vn 0.598144531 0.801269531 0.0139465332
vn 0.622558594 0.575683594 -0.530273438
vn 0.676269531 0.703125 -0.218505859
vn -0.380859375 0.562988281 -0.733398438
vn -0.117126465 0.542480469 -0.831542969
vn 0.225219727 0.55078125 -0.803710938
vn 0.507324219 0.702148438 -0.499755859
vn 0.546386719 0.80078125 -0.245483398
vn 0.499023438 0.866210938 -0.0316162109
vn -0.534179688 0.687988281 -0.491210938
vn -0.446777344 0.7265625 -0.521484375
vn -0.187744141 0.782714844 -0.59375
vn 0.18359375 0.796386719 -0.576171875
vn 0.268554688 0.918945312 -0.2890625
vn -0.558105469 0.813476562 -0.163208008
vn -0.518554688 0.834960938 -0.183105469
vn -0.240722656 0.9296875 -0.278564453
vn -0.518066406 0.853027344 0.0645141602
vn 0.275634766 0.9609375 -0.0275421143
vn -0.543945312 0.837890625 0.0458068848
vn -0.231079102 0.97265625 -0.00675964355
vn -0.567382812 0.821777344 0.0477905273
vn -0.505371094 0.858398438 0.0894775391
vn -0.155639648 0.9765625 0.147827148
vn 0.283935547 0.94921875 0.134887695
vn 0.446777344 0.888671875 0.105041504
g Lis_PinkHat_0
f 3/3/3 2/2/2 1/1/1
f 4/4/4 3/3/3 1/1/1
f 1/1/1 5/5/5 4/4/4
f 4/4/4 6/6/6 3/3/3
f 6/6/6 7/7/7 3/3/3
f 8/8/8 7/7/7 6/6/6
f 5/5/5 9/9/9 4/4/4
f 4/4/4 9/9/9 6/6/6
f 5/5/5 10/10/10 9/9/9
f 11/11/11 8/8/8 6/6/6
f 12/12/12 8/8/8 11/11/11
f 9/9/9 13/13/13 6/6/6
f 6/6/6 13/13/13 11/11/11
f 10/10/10 14/14/14 9/9/9
f 9/9/9 14/14/14 13/13/13
f 10/10/10 15/15/15 14/14/14
f 15/15/15 16/16/16 14/14/14
f 15/15/15 17/17/17 16/16/16
f 17/17/17 18/18/18 16/16/16
f 14/14/14 19/19/19 13/13/13
f 14/14/14 16/16/16 19/19/19
f 16/16/16 18/18/18 20/20/20
f 16/16/16 20/20/20 19/19/19
f 18/18/18 21/21/21 20/20/20
f 13/13/13 22/22/22 11/11/11
f 13/13/13 19/19/19 22/22/22
f 23/23/23 12/12/12 11/11/11
f 11/11/11 22/22/22 23/23/23
f 20/20/20 21/21/21 24/24/24
f 21/21/21 25/25/25 24/24/24
f 19/19/19 20/20/20 26/26/26
f 19/19/19 26/26/26 22/22/22
f 20/20/20 24/24/24 26/26/26
f 23/23/23 27/27/27 12/12/12
f 27/27/27 28/28/28 12/12/12
f 29/29/29 28/28/28 27/27/27
f 22/22/22 30/30/30 23/23/23
f 22/22/22 26/26/26 30/30/30
f 23/23/23 30/30/30 27/27/27
f 24/24/24 25/25/25 31/31/31
f 25/25/25 32/32/32 31/31/31
f 26/26/26 24/24/24 33/33/33
f 26/26/26 33/33/33 30/30/30
f 24/24/24 31/31/31 33/33/33
f 30/30/30 34/34/34 27/27/27
f 30/30/30 33/33/33 34/34/34
f 35/35/35 29/29/29 27/27/27
f 27/27/27 34/34/34 35/35/35
f 31/31/31 32/32/32 36/36/36
f 32/32/32 37/37/37 36/36/36
f 33/33/33 31/31/31 38/38/38
f 33/33/33 38/38/38 34/34/34
f 31/31/31 36/36/36 38/38/38
f 35/35/35 39/39/39 29/29/29
f 39/39/39 40/40/40 29/29/29
f 41/41/41 40/40/40 39/39/39
f 34/34/34 42/42/42 35/35/35
f 34/34/34 38/38/38 42/42/42
f 35/35/35 42/42/42 39/39/39
f 36/36/36 37/37/37 43/43/43
f 37/37/37 44/44/44 43/43/43
f 38/38/38 36/36/36 45/45/45
f 38/38/38 45/45/45 42/42/42
f 36/36/36 43/43/43 45/45/45
f 42/42/42 46/46/46 39/39/39
f 42/42/42 45/45/45 46/46/46
f 47/47/47 41/41/41 39/39/39
f 39/39/39 46/46/46 47/47/47
f 43/43/43 44/44/44 48/48/48
f 44/44/44 49/49/49 48/48/48
f 45/45/45 43/43/43 50/50/50
f 45/45/45 50/50/50 46/46/46
f 43/43/43 48/48/48 50/50/50
f 47/47/47 51/51/51 41/41/41
f 51/51/51 52/52/52 41/41/41
f 53/53/53 52/52/52 51/51/51
f 46/46/46 54/54/54 47/47/47
f 46/46/46 50/50/50 54/54/54
f 47/47/47 54/54/54 51/51/51
f 48/48/48 49/49/49 55/55/55
f 49/49/49 56/56/56 55/55/55
f 50/50/50 48/48/48 57/57/57
f 50/50/50 57/57/57 54/54/54
f 48/48/48 55/55/55 57/57/57
f 54/54/54 58/58/58 51/51/51
f 54/54/54 57/57/57 58/58/58
f 59/59/59 53/53/53 51/51/51
f 51/51/51 58/58/58 59/59/59
f 55/55/55 56/56/56 60/60/60
f 56/56/56 61/61/61 60/60/60
f 57/57/57 55/55/55 62/62/62
f 57/57/57 62/62/62 58/58/58
f 55/55/55 60/60/60 62/62/62
f 59/59/59 63/63/63 53/53/53
f 63/63/63 64/64/64 53/53/53
f 65/65/65 64/64/64 63/63/63
f 58/58/58 66/66/66 59/59/59
f 58/58/58 62/62/62 66/66/66
f 59/59/59 66/66/66 63/63/63
f 60/60/60 61/61/61 67/67/67
f 61/61/61 68/68/68 67/67/67
f 62/62/62 60/60/60 69/69/69
f 62/62/62 69/69/69 66/66/66
f 60/60/60 67/67/67 69/69/69
f 70/70/70 65/65/65 63/63/63
f 71/71/71 65/65/65 70/70/70
f 66/66/66 72/72/72 63/63/63
f 66/66/66 69/69/69 72/72/72
f 63/63/63 72/72/72 70/70/70
f 67/67/67 68/68/68 73/73/73
f 68/68/68 74/74/74 73/73/73
f 69/69/69 67/67/67 75/75/75
f 69/69/69 75/75/75 72/72/72
f 67/67/67 73/73/73 75/75/75
f 72/72/72 76/76/76 70/70/70
f 72/72/72 75/75/75 76/76/76
f 77/77/77 71/71/71 70/70/70
f 70/70/70 76/76/76 77/77/77
f 73/73/73 74/74/74 78/78/78
f 74/74/74 79/79/79 78/78/78
f 75/75/75 73/73/73 80/80/80
f 75/75/75 80/80/80 76/76/76
f 73/73/73 78/78/78 80/80/80
f 77/77/77 81/81/81 71/71/71
f 81/81/81 82/82/82 71/71/71
f 76/76/76 83/83/83 77/77/77
f 77/77/77 83/83/83 81/81/81
f 76/76/76 80/80/80 83/83/83
f 83/83/83 84/84/84 81/81/81
f 80/80/80 85/85/85 83/83/83
f 83/83/83 85/85/85 84/84/84
f 80/80/80 78/78/78 85/85/85
f 85/85/85 86/86/86 84/84/84
f 78/78/78 79/79/79 87/87/87
f 78/78/78 87/87/87 85/85/85
f 85/85/85 87/87/87 86/86/86
f 79/79/79 88/88/88 87/87/87
f 87/87/87 89/89/89 86/86/86
f 87/87/87 88/88/88 89/89/89
f 88/88/88 90/90/90 89/89/89
f 93/93/93 92/92/92 91/91/91
f 92/92/92 94/94/94 91/91/91
f 91/91/91 94/94/94 95/95/95
f 95/95/95 94/94/94 96/96/96
f 94/94/94 97/97/97 96/96/96
f 96/96/96 98/98/98 95/95/95
f 99/99/99 91/91/91 95/95/95
f 100/100/100 91/91/91 99/99/99
f 98/98/98 101/101/101 95/95/95
f 99/99/99 95/95/95 101/101/101
f 98/98/98 102/102/102 101/101/101
f 102/102/102 103/103/103 101/101/101
f 104/104/104 101/101/101 103/103/103
f 104/104/104 99/99/99 101/101/101
f 105/105/105 104/104/104 103/103/103
f 106/106/106 100/100/100 99/99/99
f 106/106/106 99/99/99 104/104/104
f 107/107/107 100/100/100 106/106/106
f 108/108/108 107/107/107 106/106/106
f 109/109/109 104/104/104 105/105/105
f 109/109/109 106/106/106 104/104/104
f 108/108/108 106/106/106 109/109/109
f 110/110/110 109/109/109 105/105/105
f 111/111/111 108/108/108 109/109/109
f 111/111/111 109/109/109 110/110/110
f 112/112/112 111/111/111 110/110/110
f 115/115/115 114/114/114 113/113/113
f 116/116/116 115/115/115 113/113/113
f 113/113/113 114/114/114 117/117/117
f 118/118/118 115/115/115 116/116/116
f 119/119/119 118/118/118 116/116/116
f 114/114/114 120/120/120 117/117/117
f 117/117/117 120/120/120 121/121/121
f 122/122/122 118/118/118 119/119/119
f 123/123/123 122/122/122 119/119/119
f 120/120/120 124/124/124 121/121/121
f 121/121/121 124/124/124 125/125/125
f 126/126/126 122/122/122 123/123/123
f 127/127/127 126/126/126 123/123/123
f 124/124/124 128/128/128 125/125/125
f 125/125/125 128/128/128 129/129/129
f 130/130/130 126/126/126 127/127/127
f 131/131/131 130/130/130 127/127/127
f 128/128/128 132/132/132 129/129/129
f 129/129/129 132/132/132 133/133/133
f 134/134/134 130/130/130 131/131/131
f 135/135/135 134/134/134 131/131/131
f 132/132/132 136/136/136 133/133/133
f 133/133/133 136/136/136 137/137/137
f 138/138/138 134/134/134 135/135/135
f 139/139/139 138/138/138 135/135/135
f 137/137/137 140/140/140 139/139/139
f 136/136/136 140/140/140 137/137/137
f 140/140/140 138/138/138 139/139/139
f 126/126/126 130/130/130 141/141/141
f 130/130/130 134/134/134 142/142/142
f 130/130/130 142/142/142 141/141/141
f 134/134/134 138/138/138 143/143/143
f 134/134/134 143/143/143 142/142/142
f 138/138/138 140/140/140 144/144/144
f 138/138/138 144/144/144 143/143/143
f 140/140/140 136/136/136 145/145/145
f 140/140/140 145/145/145 144/144/144
f 136/136/136 132/132/132 146/146/146
f 136/136/136 146/146/146 145/145/145
f 126/126/126 141/141/141 147/147/147
f 122/122/122 126/126/126 147/147/147
f 132/132/132 148/148/148 146/146/146
f 132/132/132 128/128/128 148/148/148
f 122/122/122 147/147/147 149/149/149
f 118/118/118 122/122/122 149/149/149
f 128/128/128 150/150/150 148/148/148
f 128/128/128 124/124/124 150/150/150
f 118/118/118 149/149/149 151/151/151
f 115/115/115 118/118/118 151/151/151
f 124/124/124 152/152/152 150/150/150
f 124/124/124 120/120/120 152/152/152
f 151/151/151 153/153/153 115/115/115
f 153/153/153 114/114/114 115/115/115
f 120/120/120 114/114/114 154/154/154
f 120/120/120 154/154/154 152/152/152
f 114/114/114 153/153/153 154/154/154
f 147/147/147 155/155/155 149/149/149
f 149/149/149 156/156/156 151/151/151
f 155/155/155 156/156/156 149/149/149
f 151/151/151 157/157/157 153/153/153
f 156/156/156 157/157/157 151/151/151
f 153/153/153 158/158/158 154/154/154
f 157/157/157 158/158/158 153/153/153
f 154/154/154 159/159/159 152/152/152
f 158/158/158 159/159/159 154/154/154
f 152/152/152 160/160/160 150/150/150
f 159/159/159 160/160/160 152/152/152
f 161/161/161 155/155/155 147/147/147
f 141/141/141 161/161/161 147/147/147
f 160/160/160 162/162/162 150/150/150
f 150/150/150 162/162/162 148/148/148
f 163/163/163 161/161/161 141/141/141
f 142/142/142 163/163/163 141/141/141
f 162/162/162 164/164/164 148/148/148
f 148/148/148 164/164/164 146/146/146
f 165/165/165 163/163/163 142/142/142
f 143/143/143 165/165/165 142/142/142
f 164/164/164 166/166/166 146/146/146
f 146/146/146 166/166/166 145/145/145
f 167/167/167 165/165/165 143/143/143
f 144/144/144 167/167/167 143/143/143
f 145/145/145 168/168/168 144/144/144
f 166/166/166 168/168/168 145/145/145
f 168/168/168 167/167/167 144/144/144
f 163/163/163 169/169/169 161/161/161
f 165/165/165 170/170/170 163/163/163
f 170/170/170 169/169/169 163/163/163
f 167/167/167 171/171/171 165/165/165
f 171/171/171 170/170/170 165/165/165
f 168/168/168 172/172/172 167/167/167
f 172/172/172 171/171/171 167/167/167
f 166/166/166 173/173/173 168/168/168
f 173/173/173 172/172/172 168/168/168
f 164/164/164 174/174/174 166/166/166
f 174/174/174 173/173/173 166/166/166
f 169/169/169 175/175/175 161/161/161
f 161/161/161 175/175/175 155/155/155
f 176/176/176 174/174/174 164/164/164
f 162/162/162 176/176/176 164/164/164
f 175/175/175 177/177/177 155/155/155
f 155/155/155 177/177/177 156/156/156
f 178/178/178 176/176/176 162/162/162
f 160/160/160 178/178/178 162/162/162
f 177/177/177 179/179/179 156/156/156
f 156/156/156 179/179/179 157/157/157
f 180/180/180 178/178/178 160/160/160
f 159/159/159 180/180/180 160/160/160
f 179/179/179 181/181/181 157/157/157
f 157/157/157 181/181/181 158/158/158
f 158/158/158 182/182/182 159/159/159
f 182/182/182 180/180/180 159/159/159
f 181/181/181 182/182/182 158/158/158
f 175/175/175 183/183/183 177/177/177
f 177/177/177 184/184/184 179/179/179
f 183/183/183 184/184/184 177/177/177
f 179/179/179 185/185/185 181/181/181
f 184/184/184 185/185/185 179/179/179
f 181/181/181 186/186/186 182/182/182
f 185/185/185 186/186/186 181/181/181
f 182/182/182 187/187/187 180/180/180
f 186/186/186 187/187/187 182/182/182
f 180/180/180 188/188/188 178/178/178
f 187/187/187 188/188/188 180/180/180
f 189/189/189 183/183/183 175/175/175
f 169/169/169 189/189/189 175/175/175
f 183/183/183 190/190/190 184/184/184
f 190/190/190 183/183/183 189/189/189
f 184/184/184 191/191/191 185/185/185
f 190/190/190 191/191/191 184/184/184
f 192/192/192 186/186/186 185/185/185
f 187/187/187 186/186/186 192/192/192
f 191/191/191 192/192/192 185/185/185
f 193/193/193 187/187/187 192/192/192
f 193/193/193 192/192/192 191/191/191
f 188/188/188 187/187/187 193/193/193
f 194/194/194 189/189/189 169/169/169
f 170/170/170 194/194/194 169/169/169
f 195/195/195 190/190/190 189/189/189
f 194/194/194 195/195/195 189/189/189
f 196/196/196 191/191/191 190/190/190
f 196/196/196 193/193/193 191/191/191
f 195/195/195 196/196/196 190/190/190
f 197/197/197 194/194/194 170/170/170
f 171/171/171 197/197/197 170/170/170
f 198/198/198 193/193/193 196/196/196
f 198/198/198 188/188/188 193/193/193
f 199/199/199 195/195/195 194/194/194
f 197/197/197 199/199/199 194/194/194
f 200/200/200 196/196/196 195/195/195
f 199/199/199 200/200/200 195/195/195
f 200/200/200 198/198/198 196/196/196
f 201/201/201 197/197/197 171/171/171
f 172/172/172 201/201/201 171/171/171
f 199/199/199 197/197/197 202/202/202
f 197/197/197 201/201/201 202/202/202
f 202/202/202 201/201/201 172/172/172
f 200/200/200 199/199/199 202/202/202
f 173/173/173 202/202/202 172/172/172
f 203/203/203 200/200/200 202/202/202
f 203/203/203 202/202/202 173/173/173
f 198/198/198 200/200/200 203/203/203
f 174/174/174 203/203/203 173/173/173
f 204/204/204 198/198/198 203/203/203
f 204/204/204 203/203/203 174/174/174
f 198/198/198 204/204/204 188/188/188
f 176/176/176 204/204/204 174/174/174
f 204/204/204 205/205/205 188/188/188
f 205/205/205 204/204/204 176/176/176
f 188/188/188 205/205/205 178/178/178
f 178/178/178 205/205/205 176/176/176
