g DoorLatch_Bar
v -0.0132286446 0.0201076269 0.0596177801
v -0.0052196118 -0.023998512 0.0594173186
v -0.00630893698 -0.023717599 -0.0459218696
v -0.0143179698 0.0203885399 -0.0457214117
v 0.00644847844 0.0236816928 0.0594238117
v 0.00535900099 0.0239626076 -0.0459153727
v 0.0133681865 -0.0201435331 -0.0461158305
v 0.0144575117 -0.0204244461 0.0592233613
v 0.00644847844 0.0236816928 0.0594238117
v -0.0132286446 0.0201076269 0.0596177801
v -0.0143179698 0.0203885399 -0.0457214117
v 0.00535900099 0.0239626076 -0.0459153727
v 0.00535900099 0.0239626076 -0.0459153727
v -0.0143179698 0.0203885399 -0.0457214117
v -0.00630893698 -0.023717599 -0.0459218696
v 0.0133681865 -0.0201435331 -0.0461158305
v 0.0133681865 -0.0201435331 -0.0461158305
v -0.00630893698 -0.023717599 -0.0459218696
v -0.0052196118 -0.023998512 0.0594173186
v 0.0144575117 -0.0204244461 0.0592233613
v 0.0144575117 -0.0204244461 0.0592233613
v -0.0052196118 -0.023998512 0.0594173186
v -0.0132286446 0.0201076269 0.0596177801
v 0.00644847844 0.0236816928 0.0594238117
vt 0.426757812 0.313720703
vt 0.406982422 0.313720703
vt 0.406982422 0.249389648
vt 0.426757812 0.249389648
vt 0.406982422 0.313720703
vt 0.406982422 0.249389648
vt 0.426757812 0.249389648
vt 0.426757812 0.313720703
vt 0.416992188 0.313720703
vt 0.406982422 0.313720703
vt 0.406982422 0.249389648
vt 0.416992188 0.249389648
vt 0.416992188 0.2734375
vt 0.406738281 0.2734375
vt 0.406738281 0.2578125
vt 0.416992188 0.2578125
vt 0.416992188 0.313720703
vt 0.406738281 0.313720703
vt 0.406738281 0.249389648
vt 0.416992188 0.249389648
vt 0.416992188 0.303955078
vt 0.406738281 0.303955078
vt 0.406738281 0.288330078
vt 0.416992188 0.288330078
vn -0.983886719 -0.178710938 0.00969696045
vn -0.983886719 -0.178710938 0.00969696045
vn -0.983886719 -0.178710938 0.00969696045
vn -0.983886719 -0.178710938 0.00969696045
vn 0.983886719 0.178710938 -0.00969696045
vn 0.983886719 0.178710938 -0.00969696045
vn 0.983886719 0.178710938 -0.00969696045
vn 0.983886719 0.178710938 -0.00969696045
vn -0.178710938 0.983886719 0.0044708252
vn -0.178710938 0.983886719 0.0044708252
vn -0.178710938 0.983886719 0.0044708252
vn -0.178710938 0.983886719 0.0044708252
vn -0.0103378296 0.00266647339 -1
vn -0.0103378296 0.00266647339 -1
vn -0.0103378296 0.00266647339 -1
vn -0.0103378296 0.00266647339 -1
vn 0.178710938 -0.983886719 -0.0044708252
vn 0.178710938 -0.983886719 -0.0044708252
vn 0.178710938 -0.983886719 -0.0044708252
vn 0.178710938 -0.983886719 -0.0044708252
vn 0.0103378296 -0.00266647339 1
vn 0.0103378296 -0.00266647339 1
vn 0.0103378296 -0.00266647339 1
vn 0.0103378296 -0.00266647339 1
g DoorLatch_Bar_0
f 3/3/3 2/2/2 1/1/1
f 4/4/4 3/3/3 1/1/1
f 7/7/7 6/6/6 5/5/5
f 8/8/8 7/7/7 5/5/5
f 11/11/11 10/10/10 9/9/9
f 12/12/12 11/11/11 9/9/9
f 15/15/15 14/14/14 13/13/13
f 16/16/16 15/15/15 13/13/13
f 19/19/19 18/18/18 17/17/17
f 20/20/20 19/19/19 17/17/17
f 23/23/23 22/22/22 21/21/21
f 24/24/24 23/23/23 21/21/21
