g pCone7
v -0.496807128 1.04421043 -0.0528365187
v -0.50626266 1.03679824 -0.115127824
v -0.512350261 1.03376126 -0.054735627
v -0.512350261 1.03376126 -0.054735627
v -0.50626266 1.03679824 -0.115127824
v -0.5382303 1.04005373 -0.0343619213
v -0.5382303 1.04005373 -0.0343619213
v -0.50626266 1.03679824 -0.115127824
v -0.517275155 1.06439638 -0.0567233376
v -0.517275155 1.06439638 -0.0567233376
v -0.50626266 1.03679824 -0.115127824
v -0.499909669 1.06346762 -0.0537563339
v -0.499909669 1.06346762 -0.0537563339
v -0.50626266 1.03679824 -0.115127824
v -0.496807128 1.04421043 -0.0528365187
vt 0.313476562 0.172973633
vt 0.243408203 0.080078125
vt 0.271240234 0.18359375
vt 0.271240234 0.18359375
vt 0.243408203 0.080078125
vt 0.243164062 0.183959961
vt 0.243164062 0.183959961
vt 0.243408203 0.080078125
vt 0.213134766 0.178100586
vt 0.213134766 0.178100586
vt 0.243408203 0.080078125
vt 0.186035156 0.169555664
vt 0.186035156 0.169555664
vt 0.243408203 0.080078125
vt 0.162109375 0.155517578
g pCone7_0
f 3/3/3 2/2/2 1/1/1
f 6/6/6 5/5/5 4/4/4
f 9/9/9 8/8/8 7/7/7
f 12/12/12 11/11/11 10/10/10
f 15/15/15 14/14/14 13/13/13
