g Beam_Wall_14
v -0.0248161722 0.154965818 1.26469791
v -0.0574138239 0.00875732396 1.26469791
v -0.0250944924 -0.143837884 0.645337582
v 0.00750316447 0.00237060548 0.645337582
v -0.0574138239 0.00875732396 1.26469791
v 0.0987043381 -0.0260522459 1.26469791
v 0.131023675 -0.178647459 0.645337582
v -0.0250944924 -0.143837884 0.645337582
v 0.0987043381 -0.0260522459 1.26469791
v 0.131306872 0.120156251 1.26469791
v 0.163621321 -0.0324365236 0.645337582
v 0.131023675 -0.178647459 0.645337582
v 0.131306872 0.120156251 1.26469791
v -0.0248161722 0.154965818 1.26469791
v 0.00750316447 0.00237060548 0.645337582
v 0.163621321 -0.0324365236 0.645337582
v 0.00750316447 0.00237060548 0.645337582
v -0.0250944924 -0.143837884 0.645337582
v -0.0250944924 0.00155029295 -0.572469711
v 0.00750316447 0.147761226 -0.572469711
v -0.0250944924 -0.143837884 0.645337582
v 0.131023675 -0.178647459 0.645337582
v 0.131023675 -0.0332592763 -0.572469711
v -0.0250944924 0.00155029295 -0.572469711
v 0.131023675 -0.178647459 0.645337582
v 0.163621321 -0.0324365236 0.645337582
v 0.163621321 0.112951659 -0.572469711
v 0.131023675 -0.0332592763 -0.572469711
v 0.163621321 -0.0324365236 0.645337582
v 0.00750316447 0.00237060548 0.645337582
v 0.00750316447 0.147761226 -0.572469711
v 0.163621321 0.112951659 -0.572469711
v 0.00750316447 0.147761226 -0.572469711
v -0.0250944924 0.00155029295 -0.572469711
v -0.16362232 0.0324365236 -1.26469743
v -0.131022215 0.178647459 -1.26469743
v -0.0250944924 0.00155029295 -0.572469711
v 0.131023675 -0.0332592763 -0.572469711
v -0.00750660105 -0.00237060548 -1.26469743
v -0.16362232 0.0324365236 -1.26469743
v 0.131023675 -0.0332592763 -0.572469711
v 0.163621321 0.112951659 -0.572469711
v 0.0250959359 0.143837884 -1.26469743
v -0.00750660105 -0.00237060548 -1.26469743
v 0.163621321 0.112951659 -0.572469711
v 0.00750316447 0.147761226 -0.572469711
v -0.131022215 0.178647459 -1.26469743
v 0.0250959359 0.143837884 -1.26469743
vt 0.0155563354 0.58984375
vt 0.061706543 0.58984375
vt 0.061706543 0.739257812
vt 0.0155563354 0.739257812
vt 0.0155563354 0.58984375
vt 0.061706543 0.58984375
vt 0.061706543 0.739257812
vt 0.0155563354 0.739257812
vt 0.0155563354 0.58984375
vt 0.061706543 0.58984375
vt 0.061706543 0.739257812
vt 0.0155563354 0.739257812
vt 0.0155563354 0.58984375
vt 0.061706543 0.58984375
vt 0.061706543 0.739257812
vt 0.0155563354 0.739257812
vt 0.0155563354 0.468994141
vt 0.061706543 0.468994141
vt 0.061706543 0.932128906
vt 0.0155563354 0.932128906
vt 0.0155563354 0.468994141
vt 0.061706543 0.468994141
vt 0.061706543 0.932128906
vt 0.0155563354 0.932128906
vt 0.0155563354 0.468994141
vt 0.061706543 0.468994141
vt 0.061706543 0.932128906
vt 0.0155563354 0.932128906
vt 0.0155563354 0.468994141
vt 0.061706543 0.468994141
vt 0.061706543 0.932128906
vt 0.0155563354 0.932128906
vt 0.0155563354 0.468994141
vt 0.061706543 0.468994141
vt 0.061706543 0.706542969
vt 0.0155563354 0.706542969
vt 0.0155563354 0.468994141
vt 0.061706543 0.468994141
vt 0.061706543 0.706542969
vt 0.0155563354 0.706542969
vt 0.0155563354 0.468994141
vt 0.061706543 0.468994141
vt 0.061706543 0.706542969
vt 0.0155563354 0.706542969
vt 0.0155563354 0.468994141
vt 0.061706543 0.468994141
vt 0.061706543 0.706542969
vt 0.0155563354 0.706542969
vn -0.970703125 0.216430664 -0.104003906
vn -0.970703125 0.216430664 -0.104003906
vn -0.970703125 0.216430664 -0.104003906
vn -0.970703125 0.216430664 -0.104003906
vn -0.212158203 -0.951171875 0.223266602
vn -0.212158203 -0.951171875 0.223266602
vn -0.212158203 -0.951171875 0.223266602
vn -0.212158203 -0.951171875 0.223266602
vn 0.970703125 -0.216430664 0.104003906
vn 0.970703125 -0.216430664 0.104003906
vn 0.970703125 -0.216430664 0.104003906
vn 0.970703125 -0.216430664 0.104003906
vn 0.212158203 0.951171875 -0.223266602
vn 0.212158203 0.951171875 -0.223266602
vn 0.212158203 0.951171875 -0.223266602
vn 0.212158203 0.951171875 -0.223266602
vn -0.975585938 0.217529297 0.025970459
vn -0.975585938 0.217529297 0.025970459
vn -0.975585938 0.217529297 0.025970459
vn -0.975585938 0.217529297 0.025970459
vn -0.216186523 -0.969238281 -0.115722656
vn -0.216186523 -0.969238281 -0.115722656
vn -0.216186523 -0.969238281 -0.115722656
vn -0.216186523 -0.969238281 -0.115722656
vn 0.975585938 -0.217529297 -0.025970459
vn 0.975585938 -0.217529297 -0.025970459
vn 0.975585938 -0.217529297 -0.025970459
vn 0.975585938 -0.217529297 -0.025970459
vn 0.216186523 0.969238281 0.115722656
vn 0.216186523 0.969238281 0.115722656
vn 0.216186523 0.969238281 0.115722656
vn 0.216186523 0.969238281 0.115722656
vn -0.956054688 0.213134766 0.200805664
vn -0.956054688 0.213134766 0.200805664
vn -0.956054688 0.213134766 0.200805664
vn -0.956054688 0.213134766 0.200805664
vn -0.217651367 -0.976074219 -1.78813934E-06
vn -0.217651367 -0.976074219 -1.78813934E-06
vn -0.217651367 -0.976074219 -1.78813934E-06
vn -0.217651367 -0.976074219 -1.78813934E-06
vn 0.956054688 -0.213134766 -0.200805664
vn 0.956054688 -0.213134766 -0.200805664
vn 0.956054688 -0.213134766 -0.200805664
vn 0.956054688 -0.213134766 -0.200805664
vn 0.217651367 0.976074219 -1.78813934E-06
vn 0.217651367 0.976074219 -1.78813934E-06
vn 0.217651367 0.976074219 -1.78813934E-06
vn 0.217651367 0.976074219 -1.78813934E-06
g Beam_Wall_14_0
f 3/3/3 2/2/2 1/1/1
f 4/4/4 3/3/3 1/1/1
f 7/7/7 6/6/6 5/5/5
f 8/8/8 7/7/7 5/5/5
f 11/11/11 10/10/10 9/9/9
f 12/12/12 11/11/11 9/9/9
f 15/15/15 14/14/14 13/13/13
f 16/16/16 15/15/15 13/13/13
f 19/19/19 18/18/18 17/17/17
f 20/20/20 19/19/19 17/17/17
f 23/23/23 22/22/22 21/21/21
f 24/24/24 23/23/23 21/21/21
f 27/27/27 26/26/26 25/25/25
f 28/28/28 27/27/27 25/25/25
f 31/31/31 30/30/30 29/29/29
f 32/32/32 31/31/31 29/29/29
f 35/35/35 34/34/34 33/33/33
f 36/36/36 35/35/35 33/33/33
f 39/39/39 38/38/38 37/37/37
f 40/40/40 39/39/39 37/37/37
f 43/43/43 42/42/42 41/41/41
f 44/44/44 43/43/43 41/41/41
f 47/47/47 46/46/46 45/45/45
f 48/48/48 47/47/47 45/45/45
