g Office_Caution
v -0.15557313 0.44092536 -0.00996475201
v -0.15557313 0 -0.0844841003
v -0.15557313 0.0022119903 -0.0975721702
v -0.15557313 0.443137348 -0.0230531301
v 0.061258059 0.0492952541 -0.0896150172
v -0.061258059 0.0492952541 -0.0896150172
v -0.061258059 0.0470832624 -0.0765266418
v 0.061258059 0.0470832624 -0.0765266418
v -0.0632920042 0.44092536 -0.00996475201
v -0.0632920042 0.443137348 -0.0230531301
v 0.0632920042 0.443137348 -0.0230531301
v 0.0632920042 0.44092536 -0.00996475201
v -0.15557313 0.44092536 -0.00996475201
v -0.15557313 0.443137348 -0.0230531301
v -0.0922655016 0.443137348 -0.0230531301
v -0.0922655016 0.44092536 -0.00996475201
v -0.15557313 0.0022119903 -0.0975721702
v -0.15557313 0 -0.0844841003
v -0.061258059 0 -0.0844841003
v -0.061258059 0.0022119903 -0.0975721702
v 0.0922655016 0.443137348 -0.0230531301
v 0.15557313 0.443137348 -0.0230531301
v 0.15557313 0.44092536 -0.00996475201
v 0.0922655016 0.44092536 -0.00996475201
v 0.061258059 0 -0.0844841003
v 0.15557313 0 -0.0844841003
v 0.15557313 0.0022119903 -0.0975721702
v 0.061258059 0.0022119903 -0.0975721702
v 0.0922655016 0.44092536 -0.00996475201
v 0.0922655016 0.503158927 0.000552825921
v 0.0922655016 0.505370915 -0.012535248
v 0.0922655016 0.443137348 -0.0230531301
v 0.0632920042 0.443137348 -0.0230531301
v 0.0632920042 0.485748023 -0.0158515926
v 0.0632920042 0.483536035 -0.00276321406
v 0.0632920042 0.44092536 -0.00996475201
v -0.0632920042 0.44092536 -0.00996475201
v -0.0632920042 0.483536035 -0.00276321406
v -0.0632920042 0.485748023 -0.0158515926
v -0.0632920042 0.443137348 -0.0230531301
v -0.0922655016 0.443137348 -0.0230531301
v -0.0922655016 0.505370915 -0.012535248
v -0.0922655016 0.503158927 0.000552825921
v -0.0922655016 0.44092536 -0.00996475201
v 0.0632920042 0.483536035 -0.00276321406
v 0.0632920042 0.485748023 -0.0158515926
v -0.0632920042 0.485748023 -0.0158515926
v -0.0632920042 0.483536035 -0.00276321406
v 0.0922655016 0.505370915 -0.012535248
v 0.0922655016 0.503158927 0.000552825921
v -0.0922655016 0.503158927 0.000552825921
v -0.0922655016 0.505370915 -0.012535248
v -0.061258059 0.0492952541 -0.0896150172
v -0.061258059 0.0022119903 -0.0975721702
v -0.061258059 0 -0.0844841003
v -0.061258059 0.0470832624 -0.0765266418
v -0.061258059 0.0470832624 -0.0765266418
v -0.061258059 0 -0.0844841003
v -0.15557313 0 -0.0844841003
v -0.15557313 0.44092536 -0.00996475201
v -0.0922655016 0.44092536 -0.00996475201
v -0.0632920042 0.44092536 -0.00996475201
v 0.061258059 0.0470832624 -0.0765266418
v -0.0632920042 0.483536035 -0.00276321406
v -0.0922655016 0.503158927 0.000552825921
v 0.0632920042 0.483536035 -0.00276321406
v 0.0922655016 0.503158927 0.000552825921
v 0.0632920042 0.44092536 -0.00996475201
v 0.0922655016 0.44092536 -0.00996475201
v 0.15557313 0.44092536 -0.00996475201
v 0.15557313 0 -0.0844841003
v 0.061258059 0 -0.0844841003
v 0.061258059 0.0470832624 -0.0765266418
v 0.061258059 0 -0.0844841003
v 0.061258059 0.0022119903 -0.0975721702
v 0.061258059 0.0492952541 -0.0896150172
v 0.061258059 0.0492952541 -0.0896150172
v 0.061258059 0.0022119903 -0.0975721702
v 0.15557313 0.0022119903 -0.0975721702
v 0.15557313 0.443137348 -0.0230531301
v 0.0922655016 0.443137348 -0.0230531301
v 0.0632920042 0.443137348 -0.0230531301
v -0.061258059 0.0492952541 -0.0896150172
v 0.0632920042 0.485748023 -0.0158515926
v 0.0922655016 0.505370915 -0.012535248
v -0.0632920042 0.485748023 -0.0158515926
v -0.0922655016 0.505370915 -0.012535248
v -0.0632920042 0.443137348 -0.0230531301
v -0.0922655016 0.443137348 -0.0230531301
v -0.15557313 0.443137348 -0.0230531301
v -0.15557313 0.0022119903 -0.0975721702
v -0.061258059 0.0022119903 -0.0975721702
v 0.15557313 0.44092536 -0.00996475201
v 0.15557313 0.443137348 -0.0230531301
v 0.15557313 0.0022119903 -0.0975721702
v 0.15557313 0 -0.0844841003
v -0.15557313 0.44092536 0.00996475201
v -0.15557313 0.443137348 0.0230531301
v -0.15557313 0.0022119903 0.0975724757
v -0.15557313 0 0.0844841003
v 0.061258059 0.0492952541 0.0896147117
v 0.061258059 0.0470832624 0.0765266418
v -0.061258059 0.0470832624 0.0765266418
v -0.061258059 0.0492952541 0.0896147117
v -0.0632920042 0.44092536 0.00996475201
v 0.0632920042 0.44092536 0.00996475201
v 0.0632920042 0.443137348 0.0230531301
v -0.0632920042 0.443137348 0.0230531301
v -0.15557313 0.44092536 0.00996475201
v -0.0922655016 0.44092536 0.00996475201
v -0.0922655016 0.443137348 0.0230531301
v -0.15557313 0.443137348 0.0230531301
v -0.15557313 0.0022119903 0.0975724757
v -0.061258059 0.0022119903 0.0975724757
v -0.061258059 0 0.0844841003
v -0.15557313 0 0.0844841003
v 0.0922655016 0.443137348 0.0230531301
v 0.0922655016 0.44092536 0.00996475201
v 0.15557313 0.44092536 0.00996475201
v 0.15557313 0.443137348 0.0230531301
v 0.061258059 0 0.0844841003
v 0.061258059 0.0022119903 0.0975724757
v 0.15557313 0.0022119903 0.0975724757
v 0.15557313 0 0.0844841003
v 0.0922655016 0.44092536 0.00996475201
v 0.0922655016 0.443137348 0.0230531301
v 0.0922655016 0.505370915 0.012535248
v 0.0922655016 0.503158927 -0.000553131104
v 0.0632920042 0.443137348 0.0230531301
v 0.0632920042 0.44092536 0.00996475201
v 0.0632920042 0.483536035 0.0027635193
v 0.0632920042 0.485748023 0.0158515926
v -0.0632920042 0.44092536 0.00996475201
v -0.0632920042 0.443137348 0.0230531301
v -0.0632920042 0.485748023 0.0158515926
v -0.0632920042 0.483536035 0.0027635193
v -0.0922655016 0.443137348 0.0230531301
v -0.0922655016 0.44092536 0.00996475201
v -0.0922655016 0.503158927 -0.000553131104
v -0.0922655016 0.505370915 0.012535248
v 0.0632920042 0.483536035 0.0027635193
v -0.0632920042 0.483536035 0.0027635193
v -0.0632920042 0.485748023 0.0158515926
v 0.0632920042 0.485748023 0.0158515926
v 0.0922655016 0.505370915 0.012535248
v -0.0922655016 0.505370915 0.012535248
v -0.0922655016 0.503158927 -0.000553131104
v 0.0922655016 0.503158927 -0.000553131104
v -0.061258059 0.0492952541 0.0896147117
v -0.061258059 0.0470832624 0.0765266418
v -0.061258059 0 0.0844841003
v -0.061258059 0.0022119903 0.0975724757
v -0.061258059 0.0470832624 0.0765266418
v -0.15557313 0 0.0844841003
v -0.061258059 0 0.0844841003
v -0.15557313 0.44092536 0.00996475201
v -0.0922655016 0.44092536 0.00996475201
v -0.0632920042 0.44092536 0.00996475201
v 0.061258059 0.0470832624 0.0765266418
v -0.0632920042 0.483536035 0.0027635193
v -0.0922655016 0.503158927 -0.000553131104
v 0.0632920042 0.483536035 0.0027635193
v 0.0922655016 0.503158927 -0.000553131104
v 0.0632920042 0.44092536 0.00996475201
v 0.0922655016 0.44092536 0.00996475201
v 0.15557313 0.44092536 0.00996475201
v 0.15557313 0 0.0844841003
v 0.061258059 0 0.0844841003
v 0.061258059 0.0470832624 0.0765266418
v 0.061258059 0.0492952541 0.0896147117
v 0.061258059 0.0022119903 0.0975724757
v 0.061258059 0 0.0844841003
v 0.061258059 0.0492952541 0.0896147117
v 0.15557313 0.0022119903 0.0975724757
v 0.061258059 0.0022119903 0.0975724757
v 0.15557313 0.443137348 0.0230531301
v 0.0922655016 0.443137348 0.0230531301
v 0.0632920042 0.443137348 0.0230531301
v -0.061258059 0.0492952541 0.0896147117
v 0.0632920042 0.485748023 0.0158515926
v 0.0922655016 0.505370915 0.012535248
v -0.0632920042 0.485748023 0.0158515926
v -0.0922655016 0.505370915 0.012535248
v -0.0632920042 0.443137348 0.0230531301
v -0.0922655016 0.443137348 0.0230531301
v -0.15557313 0.443137348 0.0230531301
v -0.15557313 0.0022119903 0.0975724757
v -0.061258059 0.0022119903 0.0975724757
v 0.15557313 0.44092536 0.00996475201
v 0.15557313 0 0.0844841003
v 0.15557313 0.0022119903 0.0975724757
v 0.15557313 0.443137348 0.0230531301
vt 0.768554688 0.673339844
vt 0.768554688 0.528320312
vt 0.761230469 0.528320312
vt 0.761230469 0.673339844
vt 0.761230469 0.587402344
vt 0.761230469 0.626953125
vt 0.768554688 0.626953125
vt 0.768554688 0.587402344
vt 0.761230469 0.687011719
vt 0.768554688 0.687011719
vt 0.768554688 0.643066406
vt 0.761230469 0.643066406
vt 0.768554688 0.673339844
vt 0.761230469 0.673339844
vt 0.761230469 0.693847656
vt 0.768554688 0.693847656
vt 0.761230469 0.673339844
vt 0.768554688 0.673339844
vt 0.768554688 0.642578125
vt 0.761230469 0.642578125
vt 0.761230469 0.639160156
vt 0.761230469 0.659667969
vt 0.768554688 0.659667969
vt 0.768554688 0.639160156
vt 0.768554688 0.571777344
vt 0.768554688 0.541015625
vt 0.761230469 0.541015625
vt 0.761230469 0.571777344
vt 0.768554688 0.639160156
vt 0.768554688 0.618652344
vt 0.761230469 0.618652344
vt 0.761230469 0.639160156
vt 0.768554688 0.643066406
vt 0.768554688 0.627929688
vt 0.761230469 0.627929688
vt 0.761230469 0.643066406
vt 0.761230469 0.569335938
vt 0.761230469 0.583984375
vt 0.768554688 0.583984375
vt 0.768554688 0.569335938
vt 0.761230469 0.693847656
vt 0.761230469 0.714355469
vt 0.768554688 0.714355469
vt 0.768554688 0.693847656
vt 0.761230469 0.627929688
vt 0.768554688 0.627929688
vt 0.768554688 0.583984375
vt 0.761230469 0.583984375
vt 0.761230469 0.618652344
vt 0.768554688 0.618652344
vt 0.768554688 0.55859375
vt 0.761230469 0.55859375
vt 0.761230469 0.626953125
vt 0.761230469 0.642578125
vt 0.768554688 0.642578125
vt 0.768554688 0.626953125
vt 0.806640625 0.544921875
vt 0.806640625 0.527832031
vt 0.772460938 0.527832031
vt 0.772949219 0.6875
vt 0.795410156 0.6875
vt 0.805664062 0.6875
vt 0.850097656 0.544921875
vt 0.805664062 0.703125
vt 0.795410156 0.710449219
vt 0.851074219 0.703125
vt 0.861328125 0.710449219
vt 0.851074219 0.6875
vt 0.861328125 0.6875
vt 0.884277344 0.6875
vt 0.883789062 0.527832031
vt 0.850097656 0.527832031
vt 0.768554688 0.587402344
vt 0.768554688 0.571777344
vt 0.761230469 0.571777344
vt 0.761230469 0.587402344
vt 0.920410156 0.544433594
vt 0.920410156 0.52734375
vt 0.88671875 0.52734375
vt 0.88671875 0.6875
vt 0.909179688 0.6875
vt 0.919433594 0.6875
vt 0.964355469 0.544433594
vt 0.919433594 0.703125
vt 0.909179688 0.709960938
vt 0.96484375 0.703125
vt 0.975097656 0.709960938
vt 0.96484375 0.6875
vt 0.975097656 0.6875
vt 0.998046875 0.6875
vt 0.998046875 0.52734375
vt 0.964355469 0.52734375
vt 0.768554688 0.538574219
vt 0.761230469 0.538574219
vt 0.761230469 0.68359375
vt 0.768554688 0.68359375
vt 0.768554688 0.538574219
vt 0.761230469 0.538574219
vt 0.761230469 0.68359375
vt 0.768554688 0.68359375
vt 0.761230469 0.626953125
vt 0.768554688 0.626953125
vt 0.768554688 0.587402344
vt 0.761230469 0.587402344
vt 0.761230469 0.643066406
vt 0.761230469 0.687011719
vt 0.768554688 0.687011719
vt 0.768554688 0.643066406
vt 0.768554688 0.659667969
vt 0.768554688 0.639160156
vt 0.761230469 0.639160156
vt 0.761230469 0.659667969
vt 0.761230469 0.541015625
vt 0.761230469 0.571777344
vt 0.768554688 0.571777344
vt 0.768554688 0.541015625
vt 0.761230469 0.693847656
vt 0.768554688 0.693847656
vt 0.768554688 0.673339844
vt 0.761230469 0.673339844
vt 0.768554688 0.642578125
vt 0.761230469 0.642578125
vt 0.761230469 0.673339844
vt 0.768554688 0.673339844
vt 0.768554688 0.693847656
vt 0.761230469 0.693847656
vt 0.761230469 0.714355469
vt 0.768554688 0.714355469
vt 0.768554688 0.569335938
vt 0.761230469 0.569335938
vt 0.761230469 0.583984375
vt 0.768554688 0.583984375
vt 0.761230469 0.643066406
vt 0.768554688 0.643066406
vt 0.768554688 0.627929688
vt 0.761230469 0.627929688
vt 0.761230469 0.639160156
vt 0.768554688 0.639160156
vt 0.768554688 0.618652344
vt 0.761230469 0.618652344
vt 0.761230469 0.583984375
vt 0.761230469 0.627929688
vt 0.768554688 0.627929688
vt 0.768554688 0.583984375
vt 0.761230469 0.55859375
vt 0.761230469 0.618652344
vt 0.768554688 0.618652344
vt 0.768554688 0.55859375
vt 0.761230469 0.587402344
vt 0.768554688 0.587402344
vt 0.768554688 0.571777344
vt 0.761230469 0.571777344
vt 0.850097656 0.544921875
vt 0.884277344 0.527832031
vt 0.850097656 0.527832031
vt 0.883789062 0.6875
vt 0.861328125 0.6875
vt 0.851074219 0.6875
vt 0.806640625 0.544921875
vt 0.851074219 0.703125
vt 0.861328125 0.710449219
vt 0.805664062 0.703125
vt 0.795410156 0.710449219
vt 0.805664062 0.6875
vt 0.795410156 0.6875
vt 0.772949219 0.6875
vt 0.772949219 0.527832031
vt 0.806640625 0.527832031
vt 0.768554688 0.626953125
vt 0.761230469 0.626953125
vt 0.761230469 0.642578125
vt 0.768554688 0.642578125
vt 0.964355469 0.544433594
vt 0.998046875 0.52734375
vt 0.964355469 0.52734375
vt 0.998046875 0.6875
vt 0.975097656 0.6875
vt 0.96484375 0.6875
vt 0.920410156 0.544433594
vt 0.96484375 0.703125
vt 0.975097656 0.709960938
vt 0.919433594 0.703125
vt 0.909179688 0.709960938
vt 0.919433594 0.6875
vt 0.909179688 0.6875
vt 0.88671875 0.6875
vt 0.88671875 0.52734375
vt 0.920410156 0.52734375
vt 0.768554688 0.673339844
vt 0.768554688 0.528320312
vt 0.761230469 0.528320312
vt 0.761230469 0.673339844
vn -1 0 0
vn -1 0 0
vn -1 0 0
vn -1 0 0
vn -0 -0.985839844 -0.166625977
vn -0 -0.985839844 -0.166625977
vn -0 -0.985839844 -0.166625977
vn -0 -0.985839844 -0.166625977
vn -0 0.985839844 0.166625977
vn -0 0.985839844 0.166625977
vn -0 0.985839844 0.166625977
vn -0 0.985839844 0.166625977
vn -0 0.985839844 0.166625977
vn -0 0.985839844 0.166625977
vn -0 0.985839844 0.166625977
vn -0 0.985839844 0.166625977
vn -0 -0.985839844 -0.166625977
vn -0 -0.985839844 -0.166625977
vn -0 -0.985839844 -0.166625977
vn -0 -0.985839844 -0.166625977
vn -0 0.985839844 0.166625977
vn -0 0.985839844 0.166625977
vn -0 0.985839844 0.166625977
vn -0 0.985839844 0.166625977
vn -0 -0.985839844 -0.166625977
vn -0 -0.985839844 -0.166625977
vn -0 -0.985839844 -0.166625977
vn -0 -0.985839844 -0.166625977
vn 1 -1.1920929E-07 0
vn 1 -1.1920929E-07 0
vn 1 -1.1920929E-07 0
vn 1 -1.1920929E-07 0
vn -1 0 0
vn -1 0 0
vn -1 0 0
vn -1 0 0
vn 1 0 0
vn 1 0 0
vn 1 0 0
vn 1 0 0
vn -1 0 0
vn -1 0 0
vn -1 0 0
vn -1 0 0
vn -0 -0.985839844 -0.166625977
vn -0 -0.985839844 -0.166625977
vn -0 -0.985839844 -0.166625977
vn -0 -0.985839844 -0.166625977
vn -0 0.985839844 0.166625977
vn -0 0.985839844 0.166625977
vn -0 0.985839844 0.166625977
vn -0 0.985839844 0.166625977
vn 1 0 0
vn 1 0 0
vn 1 0 0
vn 1 0 0
vn -1.78813934E-07 -0.166625977 0.985839844
vn -0 -0.166625977 0.985839844
vn -4.17232513E-07 -0.166625977 0.985839844
vn -4.76837158E-07 -0.166625977 0.985839844
vn -4.17232513E-07 -0.166625977 0.985839844
vn -5.36441803E-06 -0.166625977 0.985839844
vn 1.78813934E-07 -0.166625977 0.985839844
vn -5.36441803E-06 -0.166625977 0.985839844
vn -5.36441803E-06 -0.166625977 0.985839844
vn 5.36441803E-06 -0.166625977 0.985839844
vn 5.36441803E-06 -0.166625977 0.985839844
vn -0 -0.166625977 0.985839844
vn 4.17232513E-07 -0.166625977 0.985839844
vn 4.76837158E-07 -0.166625977 0.985839844
vn 4.17232513E-07 -0.166625977 0.985839844
vn -0 -0.166625977 0.985839844
vn -1 0 0
vn -1 0 0
vn -1 0 0
vn -1 0 0
vn 5.96046448E-07 0.166625977 -0.985839844
vn -0 0.166625977 -0.985839844
vn 1.25169754E-06 0.166625977 -0.985839844
vn 1.31130219E-06 0.166625977 -0.985839844
vn 1.13248825E-06 0.166625977 -0.985839844
vn -0 0.166625977 -0.985839844
vn -5.96046448E-07 0.166625977 -0.985839844
vn -1.13248825E-06 0.166625977 -0.985839844
vn -1.13248825E-06 0.166625977 -0.985839844
vn 1.13248825E-06 0.166625977 -0.985839844
vn 1.13248825E-06 0.166625977 -0.985839844
vn -0 0.166625977 -0.985839844
vn -1.07288361E-06 0.166625977 -0.985839844
vn -1.25169754E-06 0.166625977 -0.985839844
vn -1.25169754E-06 0.166625977 -0.985839844
vn -0 0.166625977 -0.985839844
vn 1 0 0
vn 1 0 0
vn 1 0 0
vn 1 0 0
vn -1 0 0
vn -1 0 0
vn -1 0 0
vn -1 0 0
vn -0 -0.985839844 0.166625977
vn -0 -0.985839844 0.166625977
vn -0 -0.985839844 0.166625977
vn -0 -0.985839844 0.166625977
vn -0 0.985839844 -0.166625977
vn -0 0.985839844 -0.166625977
vn -0 0.985839844 -0.166625977
vn -0 0.985839844 -0.166625977
vn -0 0.985839844 -0.166625977
vn -0 0.985839844 -0.166625977
vn -0 0.985839844 -0.166625977
vn -0 0.985839844 -0.166625977
vn -0 -0.985839844 0.166625977
vn -0 -0.985839844 0.166625977
vn -0 -0.985839844 0.166625977
vn -0 -0.985839844 0.166625977
vn -0 0.985839844 -0.166625977
vn -0 0.985839844 -0.166625977
vn -0 0.985839844 -0.166625977
vn -0 0.985839844 -0.166625977
vn -0 -0.985839844 0.166625977
vn -0 -0.985839844 0.166625977
vn -0 -0.985839844 0.166625977
vn -0 -0.985839844 0.166625977
vn 1 0 0
vn 1 0 0
vn 1 0 0
vn 1 0 0
vn -1 0 0
vn -1 0 0
vn -1 0 0
vn -1 0 0
vn 1 0 0
vn 1 0 0
vn 1 0 0
vn 1 0 0
vn -1 -1.1920929E-07 0
vn -1 -1.1920929E-07 0
vn -1 -1.1920929E-07 0
vn -1 -1.1920929E-07 0
vn -0 -0.985839844 0.166625977
vn -0 -0.985839844 0.166625977
vn -0 -0.985839844 0.166625977
vn -0 -0.985839844 0.166625977
vn -0 0.985839844 -0.166625977
vn -0 0.985839844 -0.166625977
vn -0 0.985839844 -0.166625977
vn -0 0.985839844 -0.166625977
vn 1 0 0
vn 1 0 0
vn 1 0 0
vn 1 0 0
vn -1.78813934E-07 -0.166625977 -0.985839844
vn -4.17232513E-07 -0.166625977 -0.985839844
vn -0 -0.166625977 -0.985839844
vn -4.76837158E-07 -0.166625977 -0.985839844
vn -4.17232513E-07 -0.166625977 -0.985839844
vn 5.00679016E-06 -0.166625977 -0.985839844
vn 1.78813934E-07 -0.166625977 -0.985839844
vn 5.00679016E-06 -0.166625977 -0.985839844
vn 5.00679016E-06 -0.166625977 -0.985839844
vn -5.00679016E-06 -0.166625977 -0.985839844
vn -5.00679016E-06 -0.166625977 -0.985839844
vn -0 -0.166625977 -0.985839844
vn 4.17232513E-07 -0.166625977 -0.985839844
vn 4.76837158E-07 -0.166625977 -0.985839844
vn 4.17232513E-07 -0.166625977 -0.985839844
vn -0 -0.166625977 -0.985839844
vn -1 0 0
vn -1 0 0
vn -1 0 0
vn -1 0 0
vn -1.07288361E-06 0.166625977 0.985839844
vn -2.38418579E-06 0.166625977 0.985839844
vn -0 0.166625977 0.985839844
vn -2.44379044E-06 0.166625977 0.985839844
vn -2.08616257E-06 0.166625977 0.985839844
vn -0 0.166625977 0.985839844
vn 1.07288361E-06 0.166625977 0.985839844
vn -1.13248825E-06 0.166625977 0.985839844
vn -1.13248825E-06 0.166625977 0.985839844
vn 1.13248825E-06 0.166625977 0.985839844
vn 1.13248825E-06 0.166625977 0.985839844
vn -0 0.166625977 0.985839844
vn 2.08616257E-06 0.166625977 0.985839844
vn 2.44379044E-06 0.166625977 0.985839844
vn 2.38418579E-06 0.166625977 0.985839844
vn -0 0.166625977 0.985839844
vn 1 0 0
vn 1 0 0
vn 1 0 0
vn 1 0 0
g Office_Caution_0
f 3/3/3 2/2/2 1/1/1
f 4/4/4 3/3/3 1/1/1
f 7/7/7 6/6/6 5/5/5
f 8/8/8 7/7/7 5/5/5
f 11/11/11 10/10/10 9/9/9
f 12/12/12 11/11/11 9/9/9
f 15/15/15 14/14/14 13/13/13
f 16/16/16 15/15/15 13/13/13
f 19/19/19 18/18/18 17/17/17
f 20/20/20 19/19/19 17/17/17
f 23/23/23 22/22/22 21/21/21
f 24/24/24 23/23/23 21/21/21
f 27/27/27 26/26/26 25/25/25
f 28/28/28 27/27/27 25/25/25
f 31/31/31 30/30/30 29/29/29
f 32/32/32 31/31/31 29/29/29
f 35/35/35 34/34/34 33/33/33
f 36/36/36 35/35/35 33/33/33
f 39/39/39 38/38/38 37/37/37
f 40/40/40 39/39/39 37/37/37
f 43/43/43 42/42/42 41/41/41
f 44/44/44 43/43/43 41/41/41
f 47/47/47 46/46/46 45/45/45
f 48/48/48 47/47/47 45/45/45
f 51/51/51 50/50/50 49/49/49
f 52/52/52 51/51/51 49/49/49
f 55/55/55 54/54/54 53/53/53
f 56/56/56 55/55/55 53/53/53
f 59/59/59 58/58/58 57/57/57
f 60/60/60 59/59/59 57/57/57
f 61/61/61 60/60/60 57/57/57
f 62/62/62 61/61/61 57/57/57
f 62/62/62 57/57/57 63/63/63
f 62/62/62 64/64/64 61/61/61
f 64/64/64 65/65/65 61/61/61
f 65/65/65 64/64/64 66/66/66
f 67/67/67 65/65/65 66/66/66
f 67/67/67 66/66/66 68/68/68
f 68/68/68 62/62/62 63/63/63
f 69/69/69 67/67/67 68/68/68
f 63/63/63 69/69/69 68/68/68
f 69/69/69 63/63/63 70/70/70
f 63/63/63 71/71/71 70/70/70
f 63/63/63 72/72/72 71/71/71
f 75/75/75 74/74/74 73/73/73
f 76/76/76 75/75/75 73/73/73
f 79/79/79 78/78/78 77/77/77
f 80/80/80 79/79/79 77/77/77
f 81/81/81 80/80/80 77/77/77
f 82/82/82 81/81/81 77/77/77
f 77/77/77 83/83/83 82/82/82
f 82/82/82 84/84/84 81/81/81
f 84/84/84 85/85/85 81/81/81
f 84/84/84 86/86/86 85/85/85
f 86/86/86 87/87/87 85/85/85
f 87/87/87 86/86/86 88/88/88
f 83/83/83 88/88/88 82/82/82
f 89/89/89 87/87/87 88/88/88
f 83/83/83 89/89/89 88/88/88
f 89/89/89 83/83/83 90/90/90
f 83/83/83 91/91/91 90/90/90
f 83/83/83 92/92/92 91/91/91
f 95/95/95 94/94/94 93/93/93
f 96/96/96 95/95/95 93/93/93
f 99/99/99 98/98/98 97/97/97
f 100/100/100 99/99/99 97/97/97
f 103/103/103 102/102/102 101/101/101
f 104/104/104 103/103/103 101/101/101
f 107/107/107 106/106/106 105/105/105
f 108/108/108 107/107/107 105/105/105
f 111/111/111 110/110/110 109/109/109
f 112/112/112 111/111/111 109/109/109
f 115/115/115 114/114/114 113/113/113
f 116/116/116 115/115/115 113/113/113
f 119/119/119 118/118/118 117/117/117
f 120/120/120 119/119/119 117/117/117
f 123/123/123 122/122/122 121/121/121
f 124/124/124 123/123/123 121/121/121
f 127/127/127 126/126/126 125/125/125
f 128/128/128 127/127/127 125/125/125
f 131/131/131 130/130/130 129/129/129
f 132/132/132 131/131/131 129/129/129
f 135/135/135 134/134/134 133/133/133
f 136/136/136 135/135/135 133/133/133
f 139/139/139 138/138/138 137/137/137
f 140/140/140 139/139/139 137/137/137
f 143/143/143 142/142/142 141/141/141
f 144/144/144 143/143/143 141/141/141
f 147/147/147 146/146/146 145/145/145
f 148/148/148 147/147/147 145/145/145
f 151/151/151 150/150/150 149/149/149
f 152/152/152 151/151/151 149/149/149
f 155/155/155 154/154/154 153/153/153
f 154/154/154 156/156/156 153/153/153
f 156/156/156 157/157/157 153/153/153
f 157/157/157 158/158/158 153/153/153
f 153/153/153 158/158/158 159/159/159
f 160/160/160 158/158/158 157/157/157
f 161/161/161 160/160/160 157/157/157
f 160/160/160 161/161/161 162/162/162
f 161/161/161 163/163/163 162/162/162
f 162/162/162 163/163/163 164/164/164
f 158/158/158 164/164/164 159/159/159
f 163/163/163 165/165/165 164/164/164
f 165/165/165 159/159/159 164/164/164
f 159/159/159 165/165/165 166/166/166
f 167/167/167 159/159/159 166/166/166
f 168/168/168 159/159/159 167/167/167
f 171/171/171 170/170/170 169/169/169
f 172/172/172 171/171/171 169/169/169
f 175/175/175 174/174/174 173/173/173
f 174/174/174 176/176/176 173/173/173
f 176/176/176 177/177/177 173/173/173
f 177/177/177 178/178/178 173/173/173
f 179/179/179 173/173/173 178/178/178
f 180/180/180 178/178/178 177/177/177
f 181/181/181 180/180/180 177/177/177
f 182/182/182 180/180/180 181/181/181
f 183/183/183 182/182/182 181/181/181
f 182/182/182 183/183/183 184/184/184
f 184/184/184 179/179/179 178/178/178
f 183/183/183 185/185/185 184/184/184
f 185/185/185 179/179/179 184/184/184
f 179/179/179 185/185/185 186/186/186
f 187/187/187 179/179/179 186/186/186
f 188/188/188 179/179/179 187/187/187
f 191/191/191 190/190/190 189/189/189
f 192/192/192 191/191/191 189/189/189
