g Garage_Arm_Ball
v 0.107092328 -0.301143378 -1.09086728
v -0.531657636 -0.606261194 -0.801204801
v -0.0575561076 -0.781316102 -0.823637664
v -0.367018998 -0.126086637 -1.06843138
v 0.306569844 0.236265659 -1.06880426
v -0.900471091 -0.311126292 -0.620081782
v -0.167541459 0.411321163 -1.04637027
v 0.487414569 0.686916232 -0.763362408
v 0.0133081488 0.861970603 -0.740928352
v -0.768430054 0.073940821 -0.834382296
v -1.09092033 0.0456272215 -0.316144139
v -1.01764882 0.259324133 -0.435072958
v -0.608464301 0.5049088 -0.816690326
v -0.463435024 0.866303444 -0.571744382
v -0.928869545 0.498492181 -0.425254852
v -0.848386109 0.699052513 -0.289320111
v -0.127067819 -1.10511005 0.233949542
v -0.487409621 -0.686915517 0.763362408
v -0.0133031784 -0.861971617 0.74092865
v -0.601174235 -0.930054545 0.256383628
v -0.864973068 -0.375808924 0.634602606
v -0.143264115 -1.0755868 -0.338721037
v -0.956208408 -0.570789397 0.228038281
v -0.617370546 -0.900531828 -0.316287249
v -0.0575561076 -0.781316102 -0.823637664
v -0.531657636 -0.606261194 -0.801204801
v -0.969201565 -0.54711628 -0.231209144
v -0.900471091 -0.311126292 -0.620081782
v -1.12185287 -0.0984749496 0.154526338
v -1.07122791 0.00973305758 0.380153149
v -1.1290648 -0.0853359103 -0.100335717
v -1.09092033 0.0456272215 -0.316144139
v 0.367019087 0.126088649 1.06843197
v 0.0575610772 0.781315088 0.823637664
v 0.531667531 0.606260717 0.801203609
v -0.107092232 0.301145405 1.09086633
v -0.427946717 0.801622689 0.682940662
v 0.167546421 -0.411321014 1.04637027
v -0.559987724 0.416554332 0.897241175
v -0.30656001 -0.236266077 1.06880307
v -0.0133031784 -0.861971617 0.74092865
v -0.487409621 -0.686915517 0.763362408
v -0.719943762 -0.0144155007 0.879549265
v -0.864973068 -0.375808924 0.634602606
v -0.901965261 0.449460208 0.525906324
v -0.82868886 0.663155913 0.406978399
v 0.601179242 0.930054069 -0.256383091
v 0.0133081488 0.861970603 -0.740928352
v 0.487414569 0.686916232 -0.763362408
v 0.127072796 1.10510957 -0.233949617
v 0.617375493 0.900532007 0.316286892
v -0.463435024 0.866303444 -0.571744382
v 0.143269092 1.07558811 0.338720649
v 0.531667531 0.606260717 0.801203609
v 0.0575610772 0.781315088 0.823637664
v -0.372204542 1.06128514 -0.165178865
v -0.848386109 0.699052513 -0.289320111
v -0.797756255 0.807259262 -0.0636923462
v -0.359211385 1.03760839 0.294067323
v -0.427946717 0.801622689 0.682940662
v -0.969201565 -0.54711628 -0.231209144
v -1.1290648 -0.0853359103 -0.100335717
v -1.12185287 -0.0984749496 0.154526338
v -1.06531 0.393346936 0.0504089072
v -1.09092033 0.0456272215 -0.316144139
v -1.01764882 0.259324133 -0.435072958
v -0.928869545 0.498492181 -0.425254852
v -0.848386109 0.699052513 -0.289320111
v -0.797756255 0.807259262 -0.0636923462
v -1.07122791 0.00973305758 0.380153149
v -0.790549219 0.794120848 0.191169396
v -0.359211385 1.03760839 0.294067323
v -0.427946717 0.801622689 0.682940662
v -0.82868886 0.663155913 0.406978399
v -0.559987724 0.416554332 0.897241175
v -0.901965261 0.449460208 0.525906324
v -0.990744531 0.210290313 0.516086996
v -0.719943762 -0.0144155007 0.879549265
v -0.864973068 -0.375808924 0.634602606
v -0.956208408 -0.570789397 0.228038281
vt 0.392822266 0.615722656
vt 0.408203125 0.641113281
vt 0.418457031 0.629882812
vt 0.389404297 0.630371094
vt 0.363525391 0.616210938
vt 0.3984375 0.651367188
vt 0.367675781 0.630371094
vt 0.338134766 0.630859375
vt 0.349121094 0.641601562
vt 0.386230469 0.644042969
vt 0.388671875 0.661132812
vt 0.382568359 0.657714844
vt 0.371826172 0.644042969
vt 0.359375 0.650878906
vt 0.375488281 0.657226562
vt 0.369384766 0.660644531
vt 0.433837891 0.685058594
vt 0.408447266 0.700195312
vt 0.419433594 0.710449219
vt 0.419189453 0.681640625
vt 0.398193359 0.690429688
vt 0.43359375 0.655273438
vt 0.405273438 0.678222656
vt 0.419189453 0.659667969
vt 0.418457031 0.629882812
vt 0.408203125 0.641113281
vt 0.405517578 0.6640625
vt 0.3984375 0.651367188
vt 0.391845703 0.674804688
vt 0.388183594 0.680664062
vt 0.392089844 0.667480469
vt 0.388671875 0.661132812
vt 0.364746094 0.726074219
vt 0.349365234 0.700683594
vt 0.339111328 0.711425781
vt 0.368164062 0.711425781
vt 0.359130859 0.689941406
vt 0.394042969 0.725585938
vt 0.371337891 0.697265625
vt 0.389892578 0.7109375
vt 0.419433594 0.710449219
vt 0.408447266 0.700195312
vt 0.385742188 0.697265625
vt 0.398193359 0.690429688
vt 0.375 0.684082031
vt 0.368896484 0.680175781
vt 0.323730469 0.656738281
vt 0.349121094 0.641601562
vt 0.338134766 0.630859375
vt 0.338378906 0.66015625
vt 0.323974609 0.686035156
vt 0.359375 0.650878906
vt 0.338378906 0.681640625
vt 0.339111328 0.711425781
vt 0.349365234 0.700683594
vt 0.352294922 0.663574219
vt 0.369384766 0.660644531
vt 0.365722656 0.666992188
vt 0.352050781 0.677734375
vt 0.359130859 0.689941406
vt 0.405517578 0.6640625
vt 0.392089844 0.667480469
vt 0.391845703 0.674804688
vt 0.378662109 0.670898438
vt 0.388671875 0.661132812
vt 0.382568359 0.657714844
vt 0.375488281 0.657226562
vt 0.369384766 0.660644531
vt 0.365722656 0.666992188
vt 0.388183594 0.680664062
vt 0.365478516 0.673828125
vt 0.352050781 0.677734375
vt 0.359130859 0.689941406
vt 0.368896484 0.680175781
vt 0.371337891 0.697265625
vt 0.375 0.684082031
vt 0.382080078 0.684082031
vt 0.385742188 0.697265625
vt 0.398193359 0.690429688
vt 0.405273438 0.678222656
vn -0.117248535 -0.192749023 -0.974121094
vn -0.450195312 -0.54296875 -0.708984375
vn -0.265869141 -0.625976562 -0.732910156
vn -0.3046875 -0.118652344 -0.944824219
vn 0.0627441406 0.292236328 -0.954101562
vn -0.754394531 -0.315429688 -0.575683594
vn -0.128540039 0.356201172 -0.925292969
vn 0.225952148 0.698730469 -0.678710938
vn 0.0313110352 0.754394531 -0.655761719
vn -0.632324219 0.0399475098 -0.7734375
vn -0.929199219 -0.0541687012 -0.365234375
vn -0.84765625 0.18359375 -0.497314453
vn -0.484863281 0.437744141 -0.757324219
vn -0.351074219 0.770996094 -0.53125
vn -0.749023438 0.449707031 -0.486572266
vn -0.659667969 0.672851562 -0.335205078
vn -0.328613281 -0.91796875 0.221191406
vn -0.411132812 -0.614257812 0.673828125
vn -0.225952148 -0.698730469 0.678710938
vn -0.51171875 -0.829101562 0.225585938
vn -0.721679688 -0.375 0.58203125
vn -0.343261719 -0.891601562 -0.295410156
vn -0.805664062 -0.555175781 0.206787109
vn -0.525878906 -0.802734375 -0.280517578
vn -0.265869141 -0.625976562 -0.732910156
vn -0.450195312 -0.54296875 -0.708984375
vn -0.817871094 -0.533203125 -0.216918945
vn -0.754394531 -0.315429688 -0.575683594
vn -0.963867188 -0.214477539 0.158447266
vn -0.907226562 -0.0941162109 0.409423828
vn -0.971679688 -0.199829102 -0.125
vn -0.929199219 -0.0541687012 -0.365234375
vn 0.117248535 0.192749023 0.974121094
vn 0.0703735352 0.683105469 0.727050781
vn 0.265869141 0.625976562 0.732910156
vn -0.0750732422 0.258789062 0.962890625
vn -0.318359375 0.711425781 0.626464844
vn -0.0627441406 -0.292236328 0.954101562
vn -0.440185547 0.356201172 0.82421875
vn -0.251464844 -0.215942383 0.943359375
vn -0.225952148 -0.698730469 0.678710938
vn -0.411132812 -0.614257812 0.673828125
vn -0.587890625 -0.0415649414 0.808105469
vn -0.721679688 -0.375 0.58203125
vn -0.719238281 0.395019531 0.571777344
vn -0.637695312 0.6328125 0.439208984
vn 0.328613281 0.91796875 -0.221191406
vn 0.0313110352 0.754394531 -0.655761719
vn 0.225952148 0.698730469 -0.678710938
vn 0.131835938 0.969238281 -0.207641602
vn 0.343261719 0.891601562 0.295410156
vn -0.351074219 0.770996094 -0.53125
vn 0.146118164 0.943359375 0.298339844
vn 0.265869141 0.625976562 0.732910156
vn 0.0703735352 0.683105469 0.727050781
vn -0.266845703 0.951171875 -0.156005859
vn -0.659667969 0.672851562 -0.335205078
vn -0.603027344 0.79296875 -0.0842895508
vn -0.254882812 0.929199219 0.267822266
vn -0.318359375 0.711425781 0.626464844
vn -0.817871094 -0.533203125 -0.216918945
vn -0.971679688 -0.199829102 -0.125
vn -0.963867188 -0.214477539 0.158447266
vn -0.937011719 0.345947266 0.044342041
vn -0.929199219 -0.0541687012 -0.365234375
vn -0.84765625 0.18359375 -0.497314453
vn -0.749023438 0.449707031 -0.486572266
vn -0.659667969 0.672851562 -0.335205078
vn -0.603027344 0.79296875 -0.0842895508
vn -0.907226562 -0.0941162109 0.409423828
vn -0.595214844 0.778320312 0.19921875
vn -0.254882812 0.929199219 0.267822266
vn -0.318359375 0.711425781 0.626464844
vn -0.637695312 0.6328125 0.439208984
vn -0.440185547 0.356201172 0.82421875
vn -0.719238281 0.395019531 0.571777344
vn -0.817871094 0.12902832 0.560546875
vn -0.587890625 -0.0415649414 0.808105469
vn -0.721679688 -0.375 0.58203125
vn -0.805664062 -0.555175781 0.206787109
g Garage_Arm_Ball_0
f 3/3/3 2/2/2 1/1/1
f 2/2/2 4/4/4 1/1/1
f 1/1/1 4/4/4 5/5/5
f 2/2/2 6/6/6 4/4/4
f 4/4/4 7/7/7 5/5/5
f 5/5/5 7/7/7 8/8/8
f 7/7/7 9/9/9 8/8/8
f 6/6/6 10/10/10 4/4/4
f 4/4/4 10/10/10 7/7/7
f 6/6/6 11/11/11 10/10/10
f 11/11/11 12/12/12 10/10/10
f 7/7/7 13/13/13 9/9/9
f 10/10/10 13/13/13 7/7/7
f 10/10/10 12/12/12 13/13/13
f 13/13/13 14/14/14 9/9/9
f 12/12/12 15/15/15 13/13/13
f 13/13/13 15/15/15 14/14/14
f 15/15/15 16/16/16 14/14/14
f 19/19/19 18/18/18 17/17/17
f 18/18/18 20/20/20 17/17/17
f 18/18/18 21/21/21 20/20/20
f 17/17/17 20/20/20 22/22/22
f 21/21/21 23/23/23 20/20/20
f 20/20/20 24/24/24 22/22/22
f 20/20/20 23/23/23 24/24/24
f 22/22/22 24/24/24 25/25/25
f 24/24/24 26/26/26 25/25/25
f 24/24/24 27/27/27 26/26/26
f 23/23/23 27/27/27 24/24/24
f 27/27/27 28/28/28 26/26/26
f 23/23/23 29/29/29 27/27/27
f 30/30/30 29/29/29 23/23/23
f 27/27/27 31/31/31 28/28/28
f 31/31/31 32/32/32 28/28/28
f 35/35/35 34/34/34 33/33/33
f 34/34/34 36/36/36 33/33/33
f 34/34/34 37/37/37 36/36/36
f 33/33/33 36/36/36 38/38/38
f 37/37/37 39/39/39 36/36/36
f 36/36/36 40/40/40 38/38/38
f 36/36/36 39/39/39 40/40/40
f 38/38/38 40/40/40 41/41/41
f 40/40/40 42/42/42 41/41/41
f 40/40/40 43/43/43 42/42/42
f 39/39/39 43/43/43 40/40/40
f 43/43/43 44/44/44 42/42/42
f 39/39/39 45/45/45 43/43/43
f 46/46/46 45/45/45 39/39/39
f 49/49/49 48/48/48 47/47/47
f 48/48/48 50/50/50 47/47/47
f 47/47/47 50/50/50 51/51/51
f 48/48/48 52/52/52 50/50/50
f 50/50/50 53/53/53 51/51/51
f 51/51/51 53/53/53 54/54/54
f 53/53/53 55/55/55 54/54/54
f 52/52/52 56/56/56 50/50/50
f 50/50/50 56/56/56 53/53/53
f 52/52/52 57/57/57 56/56/56
f 57/57/57 58/58/58 56/56/56
f 56/56/56 58/58/58 59/59/59
f 56/56/56 59/59/59 53/53/53
f 53/53/53 59/59/59 55/55/55
f 59/59/59 60/60/60 55/55/55
f 63/63/63 62/62/62 61/61/61
f 63/63/63 64/64/64 62/62/62
f 62/62/62 64/64/64 65/65/65
f 65/65/65 64/64/64 66/66/66
f 66/66/66 64/64/64 67/67/67
f 67/67/67 64/64/64 68/68/68
f 68/68/68 64/64/64 69/69/69
f 70/70/70 64/64/64 63/63/63
f 69/69/69 64/64/64 71/71/71
f 69/69/69 71/71/71 72/72/72
f 72/72/72 71/71/71 73/73/73
f 71/71/71 74/74/74 73/73/73
f 71/71/71 64/64/64 74/74/74
f 73/73/73 74/74/74 75/75/75
f 74/74/74 64/64/64 76/76/76
f 76/76/76 64/64/64 77/77/77
f 77/77/77 64/64/64 70/70/70
f 76/76/76 77/77/77 78/78/78
f 78/78/78 77/77/77 79/79/79
f 77/77/77 70/70/70 79/79/79
f 79/79/79 70/70/70 80/80/80
