g CE_BordeHierba01
v -3.40852095 -0.00402422781 0.0442665059
v -3.85923447 -0.00402422781 -0.0120726834
v -3.94776748 0.00402422781 -0.020121139
v 3.94776748 0.00402422781 -0.020121139
v 3.85923447 -0.00402422781 -0.0120726834
v 3.40852095 -0.00402422781 0.0442665059
v 0.639852222 -0.0281695947 0.0442665059
v 1.08251728 -0.0281695947 0.084508784
v 0.639852222 -0.0281695947 0.124751062
v 0.00402422781 -0.0281695947 0.0362180503
v 0.00402422781 -0.00402422781 -0.0684118728
v 0.00402422781 0.0120726834 -0.124751062
v 0.543270754 -0.00402422781 -0.124751062
v 1.06642037 -0.020121139 -0.0603634171
v 1.51713388 -0.0281695947 0.124751062
v 1.01008118 0.00402422781 -0.124751062
v 1.50103697 -0.020121139 0.0442665059
v 1.97589585 -0.0281695947 0.084508784
v 1.48494006 0.00402422781 -0.124751062
v 1.95175049 -0.020121139 -0.0603634171
v 2.45880319 -0.0281695947 0.124751062
v 1.9678474 0.0120726834 -0.124751062
v 2.43465782 -0.0120726834 0.0442665059
v 2.95780744 -0.0281695947 0.084508784
v 2.49099701 0.0120726834 -0.124751062
v 2.92561362 -0.0120726834 -0.0603634171
v 3.44071478 -0.0281695947 0.124751062
v 3.03024354 0.020121139 -0.124751062
v 3.40852095 -0.00402422781 0.0442665059
v 3.5453447 0.020121139 -0.124751062
v 4.02020358 0.0281695947 -0.124751062
v 3.89947675 -0.0281695947 0.084508784
v 3.85923447 -0.00402422781 -0.0120726834
v 3.94776748 0.00402422781 -0.020121139
v 4.11678505 -0.0281695947 -0.124751062
v 4.02020358 -0.0281695947 0.0362180503
v -0.639852222 -0.0281695947 0.0442665059
v -0.639852222 -0.0281695947 0.124751062
v -1.08251728 -0.0281695947 0.084508784
v 0.00402422781 -0.0281695947 0.0362180503
v 0.00402422781 -0.00402422781 -0.0684118728
v -0.00402422781 0.0120726834 -0.124751062
v -0.543270754 -0.00402422781 -0.124751062
v -1.06642037 -0.020121139 -0.0603634171
v -1.51713388 -0.0281695947 0.124751062
v -1.01008118 0.00402422781 -0.124751062
v -1.50103697 -0.020121139 0.0442665059
v -1.97589585 -0.0281695947 0.084508784
v -1.48494006 0.00402422781 -0.124751062
v -1.95175049 -0.020121139 -0.0603634171
v -2.45880319 -0.0281695947 0.124751062
v -1.9678474 0.0120726834 -0.124751062
v -2.43465782 -0.0120726834 0.0442665059
v -2.95780744 -0.0281695947 0.084508784
v -2.49099701 0.0120726834 -0.124751062
v -2.92561362 -0.0120726834 -0.0603634171
v -3.44071478 -0.0281695947 0.124751062
v -3.03024354 0.020121139 -0.124751062
v -3.40852095 -0.00402422781 0.0442665059
v -3.5453447 0.020121139 -0.124751062
v -3.89947675 -0.0281695947 0.084508784
v -3.85923447 -0.00402422781 -0.0120726834
v -3.94776748 0.00402422781 -0.020121139
v -4.02020358 0.0281695947 -0.124751062
v -4.02020358 -0.0281695947 0.0362180503
v -4.11678505 -0.0281695947 -0.124751062
vt 0.988982322 0.221474058
vt 0.985292379 0.195644453
vt 0.985292379 0.19195451
vt 0.985292379 0.39859135
vt 0.985292379 0.394901407
vt 0.988982322 0.369071802
vt 0.992672266 0.217784115
vt 0.992672266 0.239923776
vt 0.996362209 0.217784115
vt 0.988982322 0.180884679
vt 0.981602435 0.180884679
vt 0.977912491 0.180884679
vt 0.977912491 0.210404228
vt 0.985292379 0.239923776
vt 0.996362209 0.265753381
vt 0.977912491 0.236233833
vt 0.992672266 0.265753381
vt 0.992672266 0.291582986
vt 0.977912491 0.262063438
vt 0.985292379 0.287893043
vt 0.996362209 0.317412591
vt 0.977912491 0.291582986
vt 0.992672266 0.313722648
vt 0.992672266 0.343242196
vt 0.977912491 0.317412591
vt 0.985292379 0.343242196
vt 0.996362209 0.369071802
vt 0.977912491 0.34693214
vt 0.988982322 0.369071802
vt 0.977912491 0.376451689
vt 0.977912491 0.402281294
vt 0.992672266 0.394901407
vt 0.985292379 0.394901407
vt 0.985292379 0.39859135
vt 0.977912491 0.409661181
vt 0.988982322 0.402281294
vt 0.988982322 0.372761745
vt 0.996362209 0.372761745
vt 0.992672266 0.350622084
vt 0.988982322 0.409661181
vt 0.981602435 0.409661181
vt 0.977912491 0.409661181
vt 0.977912491 0.376451689
vt 0.981602435 0.350622084
vt 0.996362209 0.324792479
vt 0.977912491 0.350622084
vt 0.988982322 0.324792479
vt 0.992672266 0.298962874
vt 0.977912491 0.328482422
vt 0.981602435 0.302652817
vt 0.996362209 0.273133269
vt 0.977912491 0.298962874
vt 0.988982322 0.273133269
vt 0.992672266 0.247303664
vt 0.977912491 0.273133269
vt 0.981602435 0.247303664
vt 0.996362209 0.217784115
vt 0.977912491 0.24361372
vt 0.988982322 0.221474058
vt 0.977912491 0.214094171
vt 0.992672266 0.195644453
vt 0.985292379 0.195644453
vt 0.985292379 0.19195451
vt 0.977912491 0.188264566
vt 0.988982322 0.188264566
vt 0.977912491 0.180884679
vn 0.0211839189 0.976340725 0.215197655
vn -0.000501399475 0.976340725 0.216237225
vn -0.0438720362 0.976340725 0.211740486
vn 0.0428692372 0.976340725 0.211945789
vn -0.000501399475 0.976340725 0.216237225
vn -0.0221867178 0.976340725 0.21509658
vn -0.000501399475 0.998026043 0.0627994088
vn -0.000501399475 0.998026043 0.0627994088
vn -0.000501399475 0.998026043 0.0627994088
vn -0.000501399475 0.998026043 0.0627994088
vn -0.000501399475 0.998026043 0.0627994088
vn 0.0211839189 0.976340725 0.215197655
vn 0.0211839189 0.976340725 0.215197655
vn -0.0221867178 0.998026043 0.0587517378
vn -0.000501399475 0.998026043 0.0627994088
vn -0.000501399475 0.976340725 0.216237225
vn -0.000501399475 0.998026043 0.0627994088
vn -0.000501399475 0.998026043 0.0627994088
vn -0.000501399475 0.976340725 0.216237225
vn -0.000501399475 0.976340725 0.216237225
vn -0.000501399475 0.998026043 0.0627994088
vn -0.0221867178 0.976340725 0.21509658
vn -0.000501399475 0.976340725 0.216237225
vn -0.000501399475 0.976340725 0.216237225
vn -0.000501399475 0.976340725 0.216237225
vn -0.000501399475 0.976340725 0.216237225
vn -0.000501399475 0.976340725 0.216237225
vn -0.0221867178 0.976340725 0.21509658
vn -0.0221867178 0.976340725 0.21509658
vn -0.000501399475 0.976340725 0.216237225
vn 0.129610511 0.954655406 0.268018974
vn 0.0211839189 0.954655406 0.296958409
vn -0.000501399475 0.976340725 0.216237225
vn 0.0428692372 0.976340725 0.211945789
vn 0.368149012 0.867914133 0.333453688
vn 0.259722421 0.91128477 0.319537686
vn -0.000501399475 0.998026043 0.0627994088
vn -0.000501399475 0.998026043 0.0627994088
vn -0.000501399475 0.998026043 0.0627994088
vn -0.000501399475 0.998026043 0.0627994088
vn -0.000501399475 0.998026043 0.0627994088
vn -0.0221867178 0.976340725 0.21509658
vn -0.0221867178 0.976340725 0.21509658
vn 0.0211839189 0.998026043 0.0591207131
vn -0.000501399475 0.998026043 0.0627994088
vn -0.000501399475 0.976340725 0.216237225
vn -0.000501399475 0.998026043 0.0627994088
vn -0.000501399475 0.998026043 0.0627994088
vn -0.000501399475 0.976340725 0.216237225
vn -0.000501399475 0.976340725 0.216237225
vn -0.000501399475 0.998026043 0.0627994088
vn 0.0211839189 0.976340725 0.215197655
vn -0.000501399475 0.976340725 0.216237225
vn -0.000501399475 0.976340725 0.216237225
vn -0.000501399475 0.976340725 0.216237225
vn -0.000501399475 0.976340725 0.216237225
vn -0.000501399475 0.976340725 0.216237225
vn 0.0211839189 0.976340725 0.215197655
vn 0.0211839189 0.976340725 0.215197655
vn -0.000501399475 0.976340725 0.216237225
vn -0.0221867178 0.954655406 0.29688517
vn -0.000501399475 0.976340725 0.216237225
vn -0.0438720362 0.976340725 0.211740486
vn -0.13061331 0.954655406 0.267531714
vn -0.26072522 0.91128477 0.318719984
vn -0.369151811 0.867914133 0.332343193
g CE_BordeHierba01_0
f 3/3/3 2/2/2 1/1/1
f 6/6/6 5/5/5 4/4/4
f 9/9/9 8/8/8 7/7/7
f 9/9/9 7/7/7 10/10/10
f 7/7/7 11/11/11 10/10/10
f 12/12/12 11/11/11 7/7/7
f 13/13/13 12/12/12 7/7/7
f 8/8/8 14/14/14 7/7/7
f 13/13/13 7/7/7 14/14/14
f 8/8/8 15/15/15 14/14/14
f 16/16/16 13/13/13 14/14/14
f 15/15/15 17/17/17 14/14/14
f 16/16/16 14/14/14 17/17/17
f 15/15/15 18/18/18 17/17/17
f 19/19/19 16/16/16 17/17/17
f 18/18/18 20/20/20 17/17/17
f 19/19/19 17/17/17 20/20/20
f 18/18/18 21/21/21 20/20/20
f 22/22/22 19/19/19 20/20/20
f 21/21/21 23/23/23 20/20/20
f 22/22/22 20/20/20 23/23/23
f 21/21/21 24/24/24 23/23/23
f 25/25/25 22/22/22 23/23/23
f 24/24/24 26/26/26 23/23/23
f 25/25/25 23/23/23 26/26/26
f 24/24/24 27/27/27 26/26/26
f 28/28/28 25/25/25 26/26/26
f 27/27/27 29/29/29 26/26/26
f 28/28/28 26/26/26 29/29/29
f 30/30/30 28/28/28 29/29/29
f 31/31/31 30/30/30 29/29/29
f 27/27/27 32/32/32 29/29/29
f 32/32/32 33/33/33 29/29/29
f 29/29/29 34/34/34 31/31/31
f 33/33/33 32/32/32 34/34/34
f 35/35/35 31/31/31 34/34/34
f 32/32/32 36/36/36 34/34/34
f 36/36/36 35/35/35 34/34/34
f 39/39/39 38/38/38 37/37/37
f 37/37/37 38/38/38 40/40/40
f 41/41/41 37/37/37 40/40/40
f 41/41/41 42/42/42 37/37/37
f 42/42/42 43/43/43 37/37/37
f 44/44/44 39/39/39 37/37/37
f 37/37/37 43/43/43 44/44/44
f 45/45/45 39/39/39 44/44/44
f 43/43/43 46/46/46 44/44/44
f 47/47/47 45/45/45 44/44/44
f 44/44/44 46/46/46 47/47/47
f 48/48/48 45/45/45 47/47/47
f 46/46/46 49/49/49 47/47/47
f 50/50/50 48/48/48 47/47/47
f 47/47/47 49/49/49 50/50/50
f 51/51/51 48/48/48 50/50/50
f 49/49/49 52/52/52 50/50/50
f 53/53/53 51/51/51 50/50/50
f 50/50/50 52/52/52 53/53/53
f 54/54/54 51/51/51 53/53/53
f 52/52/52 55/55/55 53/53/53
f 56/56/56 54/54/54 53/53/53
f 53/53/53 55/55/55 56/56/56
f 57/57/57 54/54/54 56/56/56
f 55/55/55 58/58/58 56/56/56
f 59/59/59 57/57/57 56/56/56
f 56/56/56 58/58/58 59/59/59
f 58/58/58 60/60/60 59/59/59
f 61/61/61 57/57/57 59/59/59
f 62/62/62 61/61/61 59/59/59
f 63/63/63 59/59/59 60/60/60
f 61/61/61 62/62/62 63/63/63
f 60/60/60 64/64/64 63/63/63
f 65/65/65 61/61/61 63/63/63
f 64/64/64 66/66/66 63/63/63
f 66/66/66 65/65/65 63/63/63
