g Wall_Hidroelectric_Plant_Exterior_4
v -12.5582819 8.27996349 8.19061565
v -12.5582819 7.33835125 11.9009161
v -12.5582819 7.33835125 8.19061565
v -12.5582819 7.33835125 -13.7503948
v -12.5582819 8.42293262 -9.47674656
v -12.5582819 7.33835125 -9.47674656
v -12.5582819 4.12934303 10.1191893
v -12.5582819 5.00835085 8.19061565
v -12.5582819 6.96315956 8.1906147
v -12.5582819 6.96315956 11.9009161
v -12.5582819 4.12934303 11.9009161
v -12.5582819 4.12934303 10.1191893
v -12.5582819 4.12934303 11.9009161
v -12.5582819 3.72538447 11.9009161
v -12.5582819 3.72538447 10.780592
v -12.5582819 0.0900776014 11.9009161
v -12.5582819 0.0900776014 10.7727222
v -12.5582819 3.72538447 10.780592
v -12.5582819 3.72538447 11.9009161
v -12.5582819 -4.08982897 11.9009161
v -12.5582819 -4.08982897 10.7636766
v -12.5582819 -0.244495153 10.7719984
v -12.5582819 -0.244495466 11.9009161
v -12.5582819 0.0900776014 10.7727222
v -12.5582819 0.0900776014 11.9009161
v -12.5582819 -0.244495466 11.9009161
v -12.5582819 -0.244495153 10.7719984
v -12.5582819 7.33835125 8.19061565
v -12.5582819 7.33835125 11.9009161
v -12.5582819 6.96315956 11.9009161
v -12.5582819 6.96315956 8.1906147
v -12.5582819 6.96315956 -13.7503948
v -12.5582819 7.33835125 -13.7503948
v -12.5582819 7.33835125 -9.47674656
v -12.5582819 6.96315956 -9.47674656
v -12.5582819 6.96315956 -9.47674656
v -12.5582819 4.12934303 -9.47674656
v -12.5582819 4.12934303 -13.7503948
v -12.5582819 6.96315956 -13.7503948
v -12.5582819 3.72538447 -13.7503948
v -12.5582819 4.12934303 -13.7503948
v -12.5582819 4.12934303 -9.47674656
v -12.5582819 3.72538447 -9.47674656
v -12.5582819 3.72538447 -9.47674656
v -12.5582819 0.0900776014 -9.4767437
v -12.5582819 0.0900776014 -13.7503948
v -12.5582819 3.72538447 -13.7503948
v -12.5582819 -0.244495153 -13.7503948
v -12.5582819 0.0900776014 -13.7503948
v -12.5582819 0.0900776014 -9.4767437
v -12.5582819 -0.244495153 -9.4767437
v -12.5582819 -0.244495153 -9.4767437
v -12.5582819 -4.08982897 -9.4767437
v -12.5582819 -4.08982897 -13.7503948
v -12.5582819 -0.244495153 -13.7503948
v -12.5582819 8.42293262 -9.47674656
v -12.5582819 9.59357452 -4.86398411
v -12.5582819 7.33835125 -4.86398411
v -12.5582819 7.33835125 -9.47674656
v -12.5582819 7.33835125 -9.47674656
v -12.5582819 7.33835125 -4.86398411
v -12.5582819 6.96315956 -4.86398411
v -12.5582819 6.96315956 -9.47674656
v -12.5582819 6.96315956 -4.86398411
v -12.5582819 4.12934303 -4.86398411
v -12.5582819 4.12934303 -9.47674656
v -12.5582819 6.96315956 -9.47674656
v -12.5582819 4.12934303 -9.47674656
v -12.5582819 4.12934303 -4.86398411
v -12.5582819 3.72538447 -4.86398411
v -12.5582819 3.72538447 -9.47674656
v -12.5582819 3.72538447 -4.86398411
v -12.5582819 0.0900776014 -4.86398268
v -12.5582819 0.0900776014 -9.4767437
v -12.5582819 3.72538447 -9.47674656
v -12.5582819 0.0900776014 -9.4767437
v -12.5582819 0.0900776014 -4.86398268
v -12.5582819 -0.244495153 -4.86398268
v -12.5582819 -0.244495153 -9.4767437
v -12.5582819 -0.244495153 -4.86398268
v -12.5582819 -4.08982897 -4.86398268
v -12.5582819 -4.08982897 -9.4767437
v -12.5582819 -0.244495153 -9.4767437
v -12.5582819 10.4761066 -1.38648057
v -12.5582819 10.4761066 -0.462999076
v -12.5582819 7.33835125 -0.463000298
v -12.5582819 9.59357452 -4.86398411
v -12.5582819 7.33835125 -4.86398411
v -12.5582819 7.33835125 -4.86398411
v -12.5582819 7.33835125 -0.463000298
v -12.5582819 6.96315956 -0.463000298
v -12.5582819 6.96315956 -4.86398411
v -12.5582819 4.12934303 -1.23292947
v -12.5582819 4.12934303 -4.86398411
v -12.5582819 6.96315956 -4.86398411
v -12.5582819 6.96315956 -0.463000298
v -12.5582819 4.52263165 -0.462999076
v -12.5582819 4.12934303 -4.86398411
v -12.5582819 4.12934303 -1.23292947
v -12.5582819 3.72538447 -2.02374244
v -12.5582819 3.72538447 -4.86398411
v -12.5582819 10.4761066 -0.462999076
v -12.5582819 9.33999825 4.01369047
v -12.5582819 7.33835125 4.01368809
v -12.5582819 7.33835125 -0.463000298
v -12.5582819 7.33835125 -0.463000298
v -12.5582819 7.33835125 4.01368809
v -12.5582819 6.96315956 4.01368809
v -12.5582819 6.96315956 -0.463000298
v -12.5582819 6.96315956 4.01368809
v -12.5582819 6.71352577 4.01368809
v -12.5582819 4.52263165 -0.462999076
v -12.5582819 6.96315956 -0.463000298
v -12.5582819 9.33999825 4.01369047
v -12.5582819 7.33835125 4.74899435
v -12.5582819 7.33835125 4.01368809
v -12.5582819 9.15047646 4.76047421
v -12.5582819 7.33835125 8.19061565
v -12.5582819 8.27996349 8.19061565
v -12.5582819 7.33835125 4.01368809
v -12.5582819 6.96315956 4.74661779
v -12.5582819 6.96315956 4.01368809
v -12.5582819 7.33835125 4.74899435
v -12.5582819 6.96315956 8.1906147
v -12.5582819 7.33835125 8.19061565
v -12.5582819 6.75486517 4.74529696
v -12.5582819 6.71352577 4.01368809
v -12.5582819 6.96315956 4.01368809
v -12.5582819 6.96315956 4.74661779
v -12.5582819 6.96315956 8.1906147
v -12.5582819 5.00835085 8.19061565
v -12.5582819 -4.08982897 -9.4767437
v -12.5582819 -4.67558432 -9.4767437
v -12.5582819 -4.67558432 -13.7503948
v -12.5582819 -4.08982897 -13.7503948
v -12.5582819 -4.08982897 -4.86398268
v -12.5582819 -4.67558432 -4.86398268
v -12.5582819 -4.67558432 -9.4767437
v -12.5582819 -4.08982897 -9.4767437
v -12.5582819 -4.08982897 11.9009161
v -12.5582819 -4.67558432 11.9009161
v -12.5582819 -4.67558432 10.7624083
v -12.5582819 -4.08982897 10.7636766
v -12.5582819 0.0900776014 -1.96560407
v -12.5582819 0.0900776014 -4.86398268
v -12.5582819 3.72538447 -4.86398411
v -12.5582819 3.72538447 -2.02374244
v -12.5582819 -0.244495153 -3.41437221
v -12.5582819 0.0900776014 -1.96560407
v -12.5582819 -0.244495466 -1.9602561
v -12.5582819 0.0900776014 -4.86398268
v -12.5582819 -0.244495153 -4.86398268
v -12.5582819 -4.08982897 -3.40102863
v -12.5582819 -4.08982897 -4.86398268
v -12.5582819 -0.244495153 -4.86398268
v -12.5582819 -0.244495153 -3.41437221
v -12.5582819 -4.67558432 -3.39899611
v -12.5582819 -4.67558432 -4.86398268
v -12.5582819 -4.08982897 -4.86398268
v -12.5582819 -4.08982897 -3.40102863
vt 0.0142822266 0.414550781
vt 0.411865234 0.296630859
vt 0.0142822266 0.296630859
vt 0.0142822266 0.296630859
vt 0.411865234 0.429443359
vt 0.411865234 0.296630859
vt 0.220947266 0.296630859
vt 0.0142822266 0.406494141
vt 0.0142822266 0.651367188
vt 0.411865234 0.651367188
vt 0.411865234 0.296630859
vt 0.530273438 0.957519531
vt 0.624511719 0.957519531
vt 0.624511719 0.938964844
vt 0.565429688 0.938964844
vt 0.411865234 0.296630859
vt 0.291015625 0.296630859
vt 0.291748047 0.651367188
vt 0.411865234 0.651367188
vt 0.411865234 0.296630859
vt 0.290039062 0.296630859
vt 0.290771484 0.651367188
vt 0.411865234 0.651367188
vt 0.564941406 0.957519531
vt 0.624511719 0.957519531
vt 0.624511719 0.938964844
vt 0.564941406 0.938964844
vt 0.428222656 0.957519531
vt 0.624511719 0.957519531
vt 0.624511719 0.938964844
vt 0.428222656 0.938964844
vt 0.428222656 0.938964844
vt 0.428222656 0.957519531
vt 0.624511719 0.957519531
vt 0.624511719 0.938964844
vt 0.411865234 0.651367188
vt 0.411865234 0.296630859
vt 0.0142822266 0.296630859
vt 0.0142822266 0.651367188
vt 0.428222656 0.938964844
vt 0.428222656 0.957519531
vt 0.624511719 0.957519531
vt 0.624511719 0.938964844
vt 0.411865234 0.651367188
vt 0.411865234 0.296630859
vt 0.0142822266 0.296630859
vt 0.0142822266 0.651367188
vt 0.428222656 0.938964844
vt 0.428222656 0.957519531
vt 0.624511719 0.957519531
vt 0.624511719 0.938964844
vt 0.411865234 0.651367188
vt 0.411865234 0.296630859
vt 0.0142822266 0.296630859
vt 0.0142822266 0.651367188
vt 0.0142822266 0.429443359
vt 0.411865234 0.551269531
vt 0.411865234 0.296630859
vt 0.0142822266 0.296630859
vt 0.428222656 0.957519531
vt 0.624511719 0.957519531
vt 0.624511719 0.938964844
vt 0.428222656 0.938964844
vt 0.411865234 0.651367188
vt 0.411865234 0.296630859
vt 0.0142822266 0.296630859
vt 0.0142822266 0.651367188
vt 0.428222656 0.957519531
vt 0.624511719 0.957519531
vt 0.624511719 0.938964844
vt 0.428222656 0.938964844
vt 0.411865234 0.651367188
vt 0.411865234 0.296630859
vt 0.0142822266 0.296630859
vt 0.0142822266 0.651367188
vt 0.428222656 0.957519531
vt 0.624511719 0.957519531
vt 0.624511719 0.938964844
vt 0.428222656 0.938964844
vt 0.411865234 0.651367188
vt 0.411865234 0.296630859
vt 0.0142822266 0.296630859
vt 0.0142822266 0.651367188
vt 0.320068359 0.651367188
vt 0.411865234 0.651367188
vt 0.411865234 0.296630859
vt 0.0142822266 0.551269531
vt 0.0142822266 0.296630859
vt 0.428222656 0.957519531
vt 0.624511719 0.957519531
vt 0.624511719 0.938964844
vt 0.428222656 0.938964844
vt 0.342285156 0.296630859
vt 0.0142822266 0.296630859
vt 0.0142822266 0.651367188
vt 0.411865234 0.651367188
vt 0.411865234 0.345703125
vt 0.428222656 0.957519531
vt 0.590332031 0.957519531
vt 0.5546875 0.938964844
vt 0.428222656 0.938964844
vt 0.0142822266 0.651367188
vt 0.411865234 0.524902344
vt 0.411865234 0.296630859
vt 0.0142822266 0.296630859
vt 0.428222656 0.957519531
vt 0.624511719 0.957519531
vt 0.624511719 0.938964844
vt 0.428222656 0.938964844
vt 0.411865234 0.651367188
vt 0.411865234 0.620117188
vt 0.0142822266 0.345703125
vt 0.0142822266 0.651367188
vt 0.0142822266 0.524902344
vt 0.0842285156 0.296630859
vt 0.0142822266 0.296630859
vt 0.0853271484 0.505371094
vt 0.411865234 0.296630859
vt 0.411865234 0.414550781
vt 0.428222656 0.957519531
vt 0.462646484 0.938964844
vt 0.428222656 0.938964844
vt 0.462646484 0.957519531
vt 0.624511719 0.938964844
vt 0.624511719 0.957519531
vt 0.0839233398 0.625
vt 0.0142822266 0.620117188
vt 0.0142822266 0.651367188
vt 0.0840454102 0.651367188
vt 0.411865234 0.651367188
vt 0.411865234 0.406494141
vt 0.947265625 0.771484375
vt 0.982421875 0.771484375
vt 0.982421875 0.685058594
vt 0.947265625 0.685058594
vt 0.947265625 0.778808594
vt 0.982421875 0.778808594
vt 0.982421875 0.685058594
vt 0.947265625 0.685058594
vt 0.947265625 0.846191406
vt 0.982421875 0.846191406
vt 0.982421875 0.822265625
vt 0.947265625 0.822265625
vt 0.276123047 0.296630859
vt 0.0142822266 0.296630859
vt 0.0142822266 0.651367188
vt 0.270751953 0.651367188
vt 0.492919922 0.938964844
vt 0.557617188 0.957519531
vt 0.557617188 0.938964844
vt 0.428222656 0.957519531
vt 0.428222656 0.938964844
vt 0.146362305 0.296630859
vt 0.0142822266 0.296630859
vt 0.0142822266 0.651367188
vt 0.145263672 0.651367188
vt 0.982421875 0.715820312
vt 0.982421875 0.685058594
vt 0.947265625 0.685058594
vt 0.947265625 0.715820312
vn -1 0 0
vn -1 0 0
vn -1 0 0
vn -1 0 0
vn -1 0 0
vn -1 0 0
vn -1 3.57627869E-07 0
vn -1 4.17232513E-07 0
vn -1 -3.57627869E-07 0
vn -1 0 0
vn -1 -5.36441803E-07 0
vn -1 -5.30481339E-06 0
vn -1 -5.36441803E-07 0
vn -1 0 0
vn -1 -5.30481339E-06 0
vn -1 0 0
vn -1 0 0
vn -1 0 0
vn -1 0 0
vn -1 0 0
vn -1 0 0
vn -1 0 0
vn -1 0 0
vn -1 0 0
vn -1 0 0
vn -1 0 0
vn -1 0 0
vn -1 2.08616257E-06 0
vn -1 4.47034836E-06 0
vn -1 0 0
vn -1 -3.57627869E-07 0
vn -1 0 0
vn -1 0 0
vn -1 0 0
vn -1 0 0
vn -1 0 0
vn -1 0 0
vn -1 0 0
vn -1 0 0
vn -1 0 0
vn -1 0 0
vn -1 0 0
vn -1 1.78813934E-07 0
vn -1 1.78813934E-07 0
vn -1 2.38418579E-07 0
vn -1 0 0
vn -1 0 0
vn -1 0 0
vn -1 0 0
vn -1 2.38418579E-07 0
vn -1 0 0
vn -1 0 0
vn -1 0 0
vn -1 0 0
vn -1 0 0
vn -1 0 0
vn -1 0 0
vn -1 0 0
vn -1 0 0
vn -1 0 0
vn -1 0 0
vn -1 -1.78813934E-07 0
vn -1 0 0
vn -1 -1.78813934E-07 0
vn -1 -1.78813934E-07 0
vn -1 0 0
vn -1 0 0
vn -1 0 0
vn -1 -1.78813934E-07 0
vn -1 0 0
vn -1 1.78813934E-07 0
vn -1 0 0
vn -1 3.57627869E-07 0
vn -1 2.38418579E-07 0
vn -1 1.78813934E-07 0
vn -1 2.38418579E-07 0
vn -1 3.57627869E-07 0
vn -1 1.78813934E-07 0
vn -1 0 0
vn -1 1.78813934E-07 0
vn -1 -1.78813934E-07 0
vn -1 0 0
vn -1 0 0
vn -1 1.1920929E-07 0
vn -1 1.1920929E-07 0
vn -1 0 0
vn -1 0 0
vn -1 0 0
vn -1 0 0
vn -1 0 0
vn -1 -4.17232513E-07 0
vn -1 -1.78813934E-07 0
vn -1 2.38418579E-07 0
vn -1 -1.78813934E-07 0
vn -1 -1.78813934E-07 0
vn -1 -4.17232513E-07 0
vn -1 2.98023224E-07 0
vn -1 -1.78813934E-07 0
vn -1 -4.76837158E-06 0
vn -1 -4.76837158E-06 0
vn -1 0 0
vn -1 1.1920929E-07 0
vn -1 0 0
vn -1 0 0
vn -1 0 0
vn -1 0 0
vn -1 0 0
vn -1 -5.36441803E-07 0
vn -1 -4.17232513E-07 0
vn -1 -5.36441803E-07 0
vn -1 0 0
vn -1 0 0
vn -1 -4.17232513E-07 0
vn -1 0 0
vn -1 0 0
vn -1 0 0
vn -1 0 0
vn -1 0 0
vn -1 0 0
vn -1 0 0
vn -1 0 0
vn -1 -5.36441803E-07 0
vn -1 0 0
vn -1 -3.57627869E-07 0
vn -1 2.08616257E-06 0
vn -1 1.43051147E-06 0
vn -1 0 0
vn -1 -5.36441803E-07 0
vn -1 1.43051147E-06 0
vn -1 -3.57627869E-07 0
vn -1 1.49011612E-06 0
vn -1 0 0
vn -1 0 0
vn -1 0 0
vn -1 0 0
vn -1 0 0
vn -1 0 0
vn -1 0 0
vn -1 0 0
vn -1 0 0
vn -1 0 0
vn -1 0 0
vn -1 0 0
vn -1 5.96046448E-07 0
vn -1 3.57627869E-07 0
vn -1 0 0
vn -1 5.96046448E-07 0
vn -1 -4.17232513E-06 0
vn -1 0 0
vn -1 0 0
vn -1 3.57627869E-07 0
vn -1 1.78813934E-07 0
vn -1 0 0
vn -1 -1.78813934E-07 0
vn -1 1.78813934E-07 0
vn -1 0 0
vn -1 0 0
vn -1 0 0
vn -1 0 0
vn -1 0 0
g Wall_Hidroelectric_Plant_Exterior_4_0
f 3/3/3 2/2/2 1/1/1
f 6/6/6 5/5/5 4/4/4
f 9/9/9 8/8/8 7/7/7
f 10/10/10 9/9/9 7/7/7
f 10/10/10 7/7/7 11/11/11
f 14/14/14 13/13/13 12/12/12
f 15/15/15 14/14/14 12/12/12
f 18/18/18 17/17/17 16/16/16
f 19/19/19 18/18/18 16/16/16
f 22/22/22 21/21/21 20/20/20
f 23/23/23 22/22/22 20/20/20
f 26/26/26 25/25/25 24/24/24
f 27/27/27 26/26/26 24/24/24
f 30/30/30 29/29/29 28/28/28
f 31/31/31 30/30/30 28/28/28
f 34/34/34 33/33/33 32/32/32
f 35/35/35 34/34/34 32/32/32
f 38/38/38 37/37/37 36/36/36
f 39/39/39 38/38/38 36/36/36
f 42/42/42 41/41/41 40/40/40
f 43/43/43 42/42/42 40/40/40
f 46/46/46 45/45/45 44/44/44
f 47/47/47 46/46/46 44/44/44
f 50/50/50 49/49/49 48/48/48
f 51/51/51 50/50/50 48/48/48
f 54/54/54 53/53/53 52/52/52
f 55/55/55 54/54/54 52/52/52
f 58/58/58 57/57/57 56/56/56
f 59/59/59 58/58/58 56/56/56
f 62/62/62 61/61/61 60/60/60
f 63/63/63 62/62/62 60/60/60
f 66/66/66 65/65/65 64/64/64
f 67/67/67 66/66/66 64/64/64
f 70/70/70 69/69/69 68/68/68
f 71/71/71 70/70/70 68/68/68
f 74/74/74 73/73/73 72/72/72
f 75/75/75 74/74/74 72/72/72
f 78/78/78 77/77/77 76/76/76
f 79/79/79 78/78/78 76/76/76
f 82/82/82 81/81/81 80/80/80
f 83/83/83 82/82/82 80/80/80
f 86/86/86 85/85/85 84/84/84
f 86/86/86 84/84/84 87/87/87
f 88/88/88 86/86/86 87/87/87
f 91/91/91 90/90/90 89/89/89
f 92/92/92 91/91/91 89/89/89
f 95/95/95 94/94/94 93/93/93
f 95/95/95 93/93/93 96/96/96
f 93/93/93 97/97/97 96/96/96
f 100/100/100 99/99/99 98/98/98
f 101/101/101 100/100/100 98/98/98
f 104/104/104 103/103/103 102/102/102
f 105/105/105 104/104/104 102/102/102
f 108/108/108 107/107/107 106/106/106
f 109/109/109 108/108/108 106/106/106
f 112/112/112 111/111/111 110/110/110
f 113/113/113 112/112/112 110/110/110
f 116/116/116 115/115/115 114/114/114
f 115/115/115 117/117/117 114/114/114
f 115/115/115 118/118/118 117/117/117
f 118/118/118 119/119/119 117/117/117
f 122/122/122 121/121/121 120/120/120
f 121/121/121 123/123/123 120/120/120
f 121/121/121 124/124/124 123/123/123
f 124/124/124 125/125/125 123/123/123
f 128/128/128 127/127/127 126/126/126
f 129/129/129 128/128/128 126/126/126
f 129/129/129 126/126/126 130/130/130
f 126/126/126 131/131/131 130/130/130
f 134/134/134 133/133/133 132/132/132
f 135/135/135 134/134/134 132/132/132
f 138/138/138 137/137/137 136/136/136
f 139/139/139 138/138/138 136/136/136
f 142/142/142 141/141/141 140/140/140
f 143/143/143 142/142/142 140/140/140
f 146/146/146 145/145/145 144/144/144
f 147/147/147 146/146/146 144/144/144
f 150/150/150 149/149/149 148/148/148
f 149/149/149 151/151/151 148/148/148
f 152/152/152 148/148/148 151/151/151
f 155/155/155 154/154/154 153/153/153
f 156/156/156 155/155/155 153/153/153
f 159/159/159 158/158/158 157/157/157
f 160/160/160 159/159/159 157/157/157
