g AdvertisingBillboard
v 0.934506834 1.4729538 0.220371082
v 0.934506834 0.881501138 -0.132412106
v 0.934506834 0.932731628 -0.218305662
v 0.934506834 1.52417696 0.134492189
v 0.934506834 0.881501138 -0.132412106
v 0.934506834 1.4729538 0.220371082
v 1.07784665 1.4729538 0.220371082
v 1.07784665 0.881501138 -0.132407218
v 1.07784665 1.52417696 0.134487301
v 1.07784665 0.932731628 -0.218300775
v 1.07784665 0.881501138 -0.132407218
v 1.07784665 1.4729538 0.220371082
v 0.934506834 1.52417696 0.134492189
v 0.934506834 0.932731628 -0.218305662
v 1.07784665 0.932731628 -0.218300775
v 1.07784665 1.52417696 0.134487301
v 0.930122077 0 -0.124340817
v 0.930122077 2.79999995 -0.124340817
v 1.0822314 2.79999995 -0.124340817
v 1.0822314 0 -0.124340817
v 0.930122077 2.79999995 -0.124340817
v 0.930122077 2.79999995 -0.224340811
v 1.0822314 2.79999995 -0.224340811
v 1.0822314 2.79999995 -0.124340817
v 0.930122077 2.79999995 -0.224340811
v 0.930122077 0 -0.224340811
v 1.0822314 0 -0.224340811
v 1.0822314 2.79999995 -0.224340811
v 1.0822314 0 -0.124340817
v 1.0822314 2.79999995 -0.124340817
v 1.0822314 2.79999995 -0.224340811
v 1.0822314 0 -0.224340811
v 0.930122077 0 -0.224340811
v 0.930122077 2.79999995 -0.224340811
v 0.930122077 2.79999995 -0.124340817
v 0.930122077 0 -0.124340817
v 0.938295901 2.62992215 -0.141640618
v 0.938305616 2.62992215 0.136962891
v 1.0740478 2.62992215 0.136958003
v 1.0740478 2.62992215 -0.141645506
v 0.938305616 2.72992206 0.136962891
v 0.938295901 2.72992206 -0.141640618
v 1.0740478 2.72992206 -0.141645506
v 1.0740478 2.72992206 0.136958003
v 1.0740478 2.62992215 -0.141645506
v 1.0740478 2.62992215 0.136958003
v 1.0740478 2.72992206 0.136958003
v 1.0740478 2.72992206 -0.141645506
v 0.938295901 2.72992206 -0.141640618
v 0.938305616 2.72992206 0.136962891
v 0.938305616 2.62992215 0.136962891
v 0.938295901 2.62992215 -0.141640618
v -2.49999499 3.73347855 0.224340811
v -2.49999499 3.73347855 0.124340817
v 4.88281239E-06 3.73347855 0.124340817
v 4.88281239E-06 3.73347855 0.224340811
v 2.50000477 3.73347855 0.224335939
v 2.50000477 3.73347855 0.124340817
v -2.49999499 2.33347869 0.124340817
v -2.49999499 0.933478653 0.124340817
v 4.88281239E-06 0.933478653 0.124340817
v 4.88281239E-06 2.33347869 0.124340817
v -2.49999499 0.933478653 0.124340817
v -2.49999499 0.933478653 0.224340811
v 4.88281239E-06 0.933478653 0.224340811
v 4.88281239E-06 0.933478653 0.124340817
v 2.50000477 0.933478653 0.124340817
v 2.50000477 0.933478653 0.224335939
v 2.50000477 0.933478653 0.224335939
v 2.50000477 2.33347869 0.124340817
v 2.50000477 0.933478653 0.124340817
v 2.50000477 2.33347869 0.224335939
v 2.50000477 3.73347855 0.124340817
v 2.50000477 3.73347855 0.224335939
v -2.49999499 0.933478653 0.124340817
v -2.49999499 2.33347869 0.224340811
v -2.49999499 0.933478653 0.224340811
v -2.49999499 2.33347869 0.124340817
v -2.49999499 3.73347855 0.224340811
v -2.49999499 3.73347855 0.124340817
v -1.23890138 1.4729538 0.22037597
v -1.23890138 0.881501138 -0.132412106
v -1.23890138 0.932731628 -0.218300775
v -1.23890138 1.52417696 0.134492189
v -1.23890138 0.881501138 -0.132412106
v -1.23890138 1.4729538 0.22037597
v -1.0955615 1.4729538 0.22036621
v -1.0955615 0.881501138 -0.132412106
v -1.0955615 1.52417696 0.134487301
v -1.0955615 0.932731628 -0.218295887
v -1.0955615 0.881501138 -0.132412106
v -1.0955615 1.4729538 0.22036621
v -1.23890138 1.52417696 0.134492189
v -1.23890138 0.932731628 -0.218300775
v -1.0955615 0.932731628 -0.218295887
v -1.0955615 1.52417696 0.134487301
v -1.24328613 0 -0.124340817
v -1.24328613 2.79999995 -0.124340817
v -1.09117675 2.79999995 -0.124340817
v -1.09117675 0 -0.124340817
v -1.24328613 2.79999995 -0.124340817
v -1.24328613 2.79999995 -0.224340811
v -1.09117675 2.79999995 -0.224340811
v -1.09117675 2.79999995 -0.124340817
v -1.24328613 2.79999995 -0.224340811
v -1.24328613 0 -0.224340811
v -1.09117675 0 -0.224340811
v -1.09117675 2.79999995 -0.224340811
v -1.09117675 0 -0.124340817
v -1.09117675 2.79999995 -0.124340817
v -1.09117675 2.79999995 -0.224340811
v -1.09117675 0 -0.224340811
v -1.24328613 0 -0.224340811
v -1.24328613 2.79999995 -0.224340811
v -1.24328613 2.79999995 -0.124340817
v -1.24328613 0 -0.124340817
v -1.23511231 2.62992215 -0.141640618
v -1.23510742 2.62992215 0.136962891
v -1.09935057 2.62992215 0.136962891
v -1.09935057 2.62992215 -0.141640618
v -1.23510742 2.72992206 0.136962891
v -1.23511231 2.72992206 -0.141640618
v -1.09935057 2.72992206 -0.141640618
v -1.09935057 2.72992206 0.136962891
v -1.09935057 2.62992215 -0.141640618
v -1.09935057 2.62992215 0.136962891
v -1.09935057 2.72992206 0.136962891
v -1.09935057 2.72992206 -0.141640618
v -1.23511231 2.72992206 -0.141640618
v -1.23510742 2.72992206 0.136962891
v -1.23510742 2.62992215 0.136962891
v -1.23511231 2.62992215 -0.141640618
v 2.50000477 2.33347869 0.224335939
v 2.50000477 0.933478653 0.224335939
v 4.88281239E-06 0.933478653 0.224340811
v 4.88281239E-06 2.33347869 0.224340811
v -2.49999499 0.933478653 0.224340811
v -2.49999499 2.33347869 0.224340811
v 4.88281239E-06 3.73347855 0.224340811
v 2.50000477 3.73347855 0.224335939
v -2.49999499 3.73347855 0.224340811
v 4.88281239E-06 0.933478653 0.124340817
v 2.50000477 0.933478653 0.124340817
v 2.50000477 2.33347869 0.124340817
v 4.88281239E-06 2.33347869 0.124340817
v -2.49999499 3.73347855 0.124340817
v -2.49999499 2.33347869 0.124340817
v 4.88281239E-06 2.33347869 0.124340817
v 4.88281239E-06 3.73347855 0.124340817
v 2.50000477 2.33347869 0.124340817
v 2.50000477 3.73347855 0.124340817
v 4.88281239E-06 3.73347855 0.124340817
v 4.88281239E-06 2.33347869 0.124340817
vt 0.231567383 0.712402344
vt 0.147949219 0.712402344
vt 0.147949219 0.724609375
vt 0.231567383 0.724609375
vt 0.147949219 0.712402344
vt 0.231567383 0.712402344
vt 0.231567383 0.6953125
vt 0.147949219 0.6953125
vt 0.231567383 0.7421875
vt 0.147949219 0.7421875
vt 0.147949219 0.75390625
vt 0.231567383 0.75390625
vt 0.231567383 0.724609375
vt 0.147949219 0.724609375
vt 0.147949219 0.7421875
vt 0.231567383 0.7421875
vt 0.00375556946 0.712402344
vt 0.32421875 0.712402344
vt 0.32421875 0.6953125
vt 0.00375175476 0.6953125
vt 0.304931641 0.753417969
vt 0.304931641 0.7421875
vt 0.287841797 0.7421875
vt 0.287841797 0.753417969
vt 0.32421875 0.724609375
vt 0.00375556946 0.724609375
vt 0.00375938416 0.7421875
vt 0.32421875 0.7421875
vt 0.0037612915 0.75390625
vt 0.32421875 0.75390625
vt 0.32421875 0.7421875
vt 0.00375938416 0.7421875
vt 0.00375556946 0.724609375
vt 0.32421875 0.724609375
vt 0.32421875 0.712402344
vt 0.00375556946 0.712402344
vt 0.177856445 0.712402344
vt 0.213012695 0.712402344
vt 0.213012695 0.6953125
vt 0.177856445 0.6953125
vt 0.213012695 0.724609375
vt 0.177856445 0.724609375
vt 0.177856445 0.7421875
vt 0.213012695 0.7421875
vt 0.177856445 0.75390625
vt 0.213012695 0.75390625
vt 0.213012695 0.7421875
vt 0.177856445 0.7421875
vt 0.177856445 0.724609375
vt 0.213012695 0.724609375
vt 0.213012695 0.712402344
vt 0.177856445 0.712402344
vt 0.408447266 0.767578125
vt 0.408447266 0.759277344
vt 0.206176758 0.759277344
vt 0.206176758 0.767578125
vt 0.00387763977 0.767578125
vt 0.00387763977 0.759277344
vt 0.494628906 0.405029297
vt 0.494628906 0.51171875
vt 0.685058594 0.51171875
vt 0.685058594 0.405029297
vt 0.00387763977 0.759277344
vt 0.00387763977 0.767578125
vt 0.206176758 0.767578125
vt 0.206176758 0.759277344
vt 0.408447266 0.759277344
vt 0.408447266 0.767578125
vt 0.160644531 0.767578125
vt 0.273925781 0.759277344
vt 0.160644531 0.759277344
vt 0.273925781 0.767578125
vt 0.387207031 0.759277344
vt 0.387207031 0.767578125
vt 0.257324219 0.759277344
vt 0.144042969 0.767578125
vt 0.257324219 0.767578125
vt 0.144042969 0.759277344
vt 0.0307159424 0.767578125
vt 0.0307159424 0.759277344
vt 0.231567383 0.712402344
vt 0.147949219 0.712402344
vt 0.147949219 0.724609375
vt 0.231567383 0.724609375
vt 0.147949219 0.712402344
vt 0.231567383 0.712402344
vt 0.231567383 0.6953125
vt 0.147949219 0.6953125
vt 0.231567383 0.7421875
vt 0.147949219 0.7421875
vt 0.147949219 0.75390625
vt 0.231567383 0.75390625
vt 0.231567383 0.724609375
vt 0.147949219 0.724609375
vt 0.147949219 0.7421875
vt 0.231567383 0.7421875
vt 0.00375175476 0.712402344
vt 0.32421875 0.712402344
vt 0.32421875 0.6953125
vt 0.00374984741 0.6953125
vt 0.304931641 0.753417969
vt 0.304931641 0.7421875
vt 0.287841797 0.7421875
vt 0.287841797 0.753417969
vt 0.32421875 0.724609375
vt 0.00375366211 0.724609375
vt 0.00375747681 0.7421875
vt 0.32421875 0.7421875
vt 0.00375938416 0.75390625
vt 0.32421875 0.75390625
vt 0.32421875 0.7421875
vt 0.00375747681 0.7421875
vt 0.00375366211 0.724609375
vt 0.32421875 0.724609375
vt 0.32421875 0.712402344
vt 0.00375175476 0.712402344
vt 0.177856445 0.712402344
vt 0.213012695 0.712402344
vt 0.213012695 0.6953125
vt 0.177856445 0.6953125
vt 0.213012695 0.724609375
vt 0.177856445 0.724609375
vt 0.177856445 0.7421875
vt 0.213012695 0.7421875
vt 0.177856445 0.75390625
vt 0.213012695 0.75390625
vt 0.213012695 0.7421875
vt 0.177856445 0.7421875
vt 0.177856445 0.724609375
vt 0.213012695 0.724609375
vt 0.213012695 0.712402344
vt 0.177856445 0.712402344
vt 0.408447266 0.880859375
vt 0.408447266 0.767578125
vt 0.206176758 0.767578125
vt 0.206176758 0.880859375
vt 0.00387763977 0.767578125
vt 0.00387763977 0.880859375
vt 0.206176758 0.994140625
vt 0.408447266 0.994140625
vt 0.00387763977 0.994140625
vt 0.494628906 0.51171875
vt 0.685058594 0.51171875
vt 0.685058594 0.405029297
vt 0.494628906 0.405029297
vt 0.494628906 0.405029297
vt 0.494628906 0.51171875
vt 0.685058594 0.51171875
vt 0.685058594 0.405029297
vt 0.685058594 0.51171875
vt 0.685058594 0.405029297
vt 0.494628906 0.405029297
vt 0.494628906 0.51171875
vn -1 0 0
vn -1 0 0
vn -1 0 0
vn -1 0 0
vn -1.4603138E-05 -0.512207031 0.858886719
vn -1.4603138E-05 -0.512207031 0.858886719
vn -1.4603138E-05 -0.512207031 0.858886719
vn -1.4603138E-05 -0.512207031 0.858886719
vn 1 0 0
vn 1 0 0
vn 1 0 0
vn 1 0 0
vn -0 0.512207031 -0.858886719
vn -0 0.512207031 -0.858886719
vn -0 0.512207031 -0.858886719
vn -0 0.512207031 -0.858886719
vn -0 0 1
vn -0 0 1
vn -0 0 1
vn -0 0 1
vn -0 1 0
vn -0 1 0
vn -0 1 0
vn -0 1 0
vn -0 0 -1
vn -0 0 -1
vn -0 0 -1
vn -0 0 -1
vn 1 0 0
vn 1 0 0
vn 1 0 0
vn 1 0 0
vn -1 0 0
vn -1 0 0
vn -1 0 0
vn -1 0 0
vn -0 -1 0
vn -0 -1 0
vn -0 -1 0
vn -0 -1 0
vn -0 1 0
vn -0 1 0
vn -0 1 0
vn -0 1 0
vn 1 0 0
vn 1 0 0
vn 1 0 0
vn 1 0 0
vn -1 0 3.50475311E-05
vn -1 0 3.50475311E-05
vn -1 0 3.50475311E-05
vn -1 0 3.50475311E-05
vn -0 1 0
vn -0 1 0
vn -0 1 0
vn -0 1 0
vn -0 1 0
vn -0 1 0
vn -0 0 -1
vn -0 0 -1
vn -0 0 -1
vn -0 0 -1
vn -0 -1 0
vn -0 -1 0
vn -0 -1 0
vn -0 -1 0
vn -0 -1 0
vn -0 -1 0
vn 1 0 0
vn 1 0 0
vn 1 0 0
vn 1 0 0
vn 1 0 0
vn 1 0 0
vn -1 0 0
vn -1 0 0
vn -1 0 0
vn -1 0 0
vn -1 0 0
vn -1 0 0
vn -1 0 0
vn -1 0 0
vn -1 0 0
vn -1 0 0
vn 2.92658806E-05 -0.512207031 0.858886719
vn 2.92658806E-05 -0.512207031 0.858886719
vn 2.92658806E-05 -0.512207031 0.858886719
vn 2.92658806E-05 -0.512207031 0.858886719
vn 1 0 0
vn 1 0 0
vn 1 0 0
vn 1 0 0
vn -0 0.512207031 -0.858886719
vn -0 0.512207031 -0.858886719
vn -0 0.512207031 -0.858886719
vn -0 0.512207031 -0.858886719
vn -0 0 1
vn -0 0 1
vn -0 0 1
vn -0 0 1
vn -0 1 0
vn -0 1 0
vn -0 1 0
vn -0 1 0
vn -0 0 -1
vn -0 0 -1
vn -0 0 -1
vn -0 0 -1
vn 1 0 0
vn 1 0 0
vn 1 0 0
vn 1 0 0
vn -1 0 0
vn -1 0 0
vn -1 0 0
vn -1 0 0
vn -0 -1 0
vn -0 -1 0
vn -0 -1 0
vn -0 -1 0
vn -0 1 0
vn -0 1 0
vn -0 1 0
vn -0 1 0
vn 1 0 0
vn 1 0 0
vn 1 0 0
vn 1 0 0
vn -1 0 1.75237656E-05
vn -1 0 1.75237656E-05
vn -1 0 1.75237656E-05
vn -1 0 1.75237656E-05
vn 1.96695328E-06 0 1
vn 1.96695328E-06 0 1
vn -0 0 1
vn -0 0 1
vn -0 0 1
vn -0 0 1
vn 1.96695328E-06 0 1
vn 1.96695328E-06 0 1
vn -0 0 1
vn -0 0 -1
vn -0 0 -1
vn -0 0 -1
vn -0 0 -1
vn -0 0 -1
vn -0 0 -1
vn -0 0 -1
vn -0 0 -1
vn -0 0 -1
vn -0 0 -1
vn -0 0 -1
vn -0 0 -1
g AdvertisingBillboard_0
f 3/3/3 2/2/2 1/1/1
f 4/4/4 3/3/3 1/1/1
f 7/7/7 6/6/6 5/5/5
f 8/8/8 7/7/7 5/5/5
f 11/11/11 10/10/10 9/9/9
f 12/12/12 11/11/11 9/9/9
f 15/15/15 14/14/14 13/13/13
f 16/16/16 15/15/15 13/13/13
f 19/19/19 18/18/18 17/17/17
f 20/20/20 19/19/19 17/17/17
f 23/23/23 22/22/22 21/21/21
f 24/24/24 23/23/23 21/21/21
f 27/27/27 26/26/26 25/25/25
f 28/28/28 27/27/27 25/25/25
f 31/31/31 30/30/30 29/29/29
f 32/32/32 31/31/31 29/29/29
f 35/35/35 34/34/34 33/33/33
f 36/36/36 35/35/35 33/33/33
f 39/39/39 38/38/38 37/37/37
f 40/40/40 39/39/39 37/37/37
f 43/43/43 42/42/42 41/41/41
f 44/44/44 43/43/43 41/41/41
f 47/47/47 46/46/46 45/45/45
f 48/48/48 47/47/47 45/45/45
f 51/51/51 50/50/50 49/49/49
f 52/52/52 51/51/51 49/49/49
f 55/55/55 54/54/54 53/53/53
f 56/56/56 55/55/55 53/53/53
f 56/56/56 57/57/57 55/55/55
f 57/57/57 58/58/58 55/55/55
f 61/61/61 60/60/60 59/59/59
f 62/62/62 61/61/61 59/59/59
f 65/65/65 64/64/64 63/63/63
f 66/66/66 65/65/65 63/63/63
f 66/66/66 67/67/67 65/65/65
f 67/67/67 68/68/68 65/65/65
f 71/71/71 70/70/70 69/69/69
f 70/70/70 72/72/72 69/69/69
f 70/70/70 73/73/73 72/72/72
f 73/73/73 74/74/74 72/72/72
f 77/77/77 76/76/76 75/75/75
f 76/76/76 78/78/78 75/75/75
f 76/76/76 79/79/79 78/78/78
f 79/79/79 80/80/80 78/78/78
f 83/83/83 82/82/82 81/81/81
f 84/84/84 83/83/83 81/81/81
f 87/87/87 86/86/86 85/85/85
f 88/88/88 87/87/87 85/85/85
f 91/91/91 90/90/90 89/89/89
f 92/92/92 91/91/91 89/89/89
f 95/95/95 94/94/94 93/93/93
f 96/96/96 95/95/95 93/93/93
f 99/99/99 98/98/98 97/97/97
f 100/100/100 99/99/99 97/97/97
f 103/103/103 102/102/102 101/101/101
f 104/104/104 103/103/103 101/101/101
f 107/107/107 106/106/106 105/105/105
f 108/108/108 107/107/107 105/105/105
f 111/111/111 110/110/110 109/109/109
f 112/112/112 111/111/111 109/109/109
f 115/115/115 114/114/114 113/113/113
f 116/116/116 115/115/115 113/113/113
f 119/119/119 118/118/118 117/117/117
f 120/120/120 119/119/119 117/117/117
f 123/123/123 122/122/122 121/121/121
f 124/124/124 123/123/123 121/121/121
f 127/127/127 126/126/126 125/125/125
f 128/128/128 127/127/127 125/125/125
f 131/131/131 130/130/130 129/129/129
f 132/132/132 131/131/131 129/129/129
f 135/135/135 134/134/134 133/133/133
f 136/136/136 135/135/135 133/133/133
f 135/135/135 136/136/136 137/137/137
f 136/136/136 138/138/138 137/137/137
f 136/136/136 133/133/133 139/139/139
f 136/136/136 139/139/139 138/138/138
f 133/133/133 140/140/140 139/139/139
f 139/139/139 141/141/141 138/138/138
f 144/144/144 143/143/143 142/142/142
f 145/145/145 144/144/144 142/142/142
f 148/148/148 147/147/147 146/146/146
f 149/149/149 148/148/148 146/146/146
f 152/152/152 151/151/151 150/150/150
f 153/153/153 152/152/152 150/150/150
