g Railing_Post_P1_22
v 0.0351288952 -0.59720093 0.0293912496
v 0.0351288952 0.59720093 0.0293912496
v 0.0351288952 0.59720093 -0.0293904878
v 0.0351288952 -0.59720093 -0.0293904878
v 0.0351288952 -0.59720093 -0.0293904878
v 0.0351288952 0.59720093 -0.0293904878
v -0.0351347737 0.553452134 -0.0293904878
v -0.0351347737 -0.59720093 -0.0293904878
v -0.0351347737 -0.59720093 -0.0293904878
v -0.0351347737 0.553452134 -0.0293904878
v -0.0351347737 0.553450942 0.0293912496
v -0.0351347737 -0.59720093 0.0293912496
v -0.0351347737 -0.59720093 0.0293912496
v -0.0351347737 0.553450942 0.0293912496
v 0.0351288952 0.59720093 0.0293912496
v 0.0351288952 -0.59720093 0.0293912496
vt 0.0808105469 0.862792969
vt 0.303955078 0.862792969
vt 0.303955078 0.844238281
vt 0.0808105469 0.844238281
vt 0.0808105469 0.862792969
vt 0.303955078 0.862792969
vt 0.303955078 0.844238281
vt 0.0808105469 0.844238281
vt 0.303955078 0.844238281
vt 0.0808105469 0.844238281
vt 0.0808105469 0.862792969
vt 0.303955078 0.862792969
vt 0.0808105469 0.862792969
vt 0.303955078 0.862792969
vt 0.303955078 0.844238281
vt 0.0808105469 0.844238281
vn 1 0 0
vn 1 0 0
vn 1 0 0
vn 1 0 0
vn -0 0 -1
vn -0 0 -1
vn -0 0 -1
vn -0 0 -1
vn -1 0 0
vn -1 0 0
vn -1 0 0
vn -1 0 0
vn 9.47713852E-06 0 1
vn 9.47713852E-06 0 1
vn 9.47713852E-06 0 1
vn 9.47713852E-06 0 1
g Railing_Post_P1_22_0
f 3/3/3 2/2/2 1/1/1
f 4/4/4 3/3/3 1/1/1
f 7/7/7 6/6/6 5/5/5
f 8/8/8 7/7/7 5/5/5
f 11/11/11 10/10/10 9/9/9
f 12/12/12 11/11/11 9/9/9
f 15/15/15 14/14/14 13/13/13
f 16/16/16 15/15/15 13/13/13
