g RodRoom_Rail_B
v 0.0213769525 0.0312426742 -0.00606445316
v 0.0213769525 0.0312426742 0
v -0.0246240236 0.0312426742 0
v -0.0246240236 0.0312426742 -0.00606445316
v -0.0246240236 0.0312426742 -0.00606445316
v -0.0246240236 0.0312426742 0
v -0.0246240236 -1.2207031E-06 0
v -0.0246240236 -1.2207031E-06 -0.00606445316
v -0.0246240236 -1.2207031E-06 -0.00606445316
v -0.0246240236 -1.2207031E-06 0
v 0.0213769525 0 0
v 0.0213769525 0 -0.00606445316
v 0.0213769525 0 -0.00606445316
v 0.0213769525 0 0
v 0.0213769525 0.0312426742 0
v 0.0213769525 0.0312426742 -0.00606445316
v -0.0166235343 0.0398156717 -0.0792797804
v 0.0133764641 0.0294555649 -0.0728857443
v -0.0166235343 0.0294555649 -0.0728857443
v 0.0133764641 0.0398156717 -0.0792797804
v -0.0166235343 0.0933056623 -0.0792797804
v 0.0133764641 0.0933056623 -0.0792797804
v -0.0166235343 0.0294555649 -0.0728857443
v 0.0133764641 0.0294555649 -0.0728857443
v 0.0133764641 0.0232421868 -0.0623461902
v -0.0166235343 0.0232421868 -0.0623461902
v -0.0166235343 0.0232421868 -0.00606445316
v 0.0133764641 0.0232421868 -0.00606445316
v -0.0166235343 0.00799926743 -0.0623461902
v 0.0133764641 0.0199926756 -0.0819897428
v -0.0166235343 0.0199926756 -0.0819897428
v 0.0133764641 0.00799926743 -0.0623461902
v -0.0166235343 0.00799926743 -0.00606445316
v 0.0133764641 0.00799926743 -0.00606445316
v -0.0166235343 0.0199926756 -0.0819897428
v 0.0133764641 0.0199926756 -0.0819897428
v 0.0133764641 0.0398156717 -0.0938012674
v -0.0166235343 0.0398156717 -0.0938012674
v -0.0166235343 0.0933056623 -0.0938012674
v 0.0133764641 0.0933056623 -0.0938012674
v 0.0133764641 0.0933056623 -0.0938012674
v 0.0133764641 0.0398156717 -0.0792797804
v 0.0133764641 0.0933056623 -0.0792797804
v 0.0133764641 0.0398156717 -0.0938012674
v 0.0133764641 0.0199926756 -0.0819897428
v 0.0133764641 0.0294555649 -0.0728857443
v 0.0133764641 0.00799926743 -0.0623461902
v 0.0133764641 0.0232421868 -0.0623461902
v 0.0133764641 0.0232421868 -0.00606445316
v 0.0133764641 0.00799926743 -0.00606445316
v -0.0166235343 0.0398156717 -0.0792797804
v -0.0166235343 0.0933056623 -0.0938012674
v -0.0166235343 0.0933056623 -0.0792797804
v -0.0166235343 0.0398156717 -0.0938012674
v -0.0166235343 0.0294555649 -0.0728857443
v -0.0166235343 0.0199926756 -0.0819897428
v -0.0166235343 0.0232421868 -0.0623461902
v -0.0166235343 0.00799926743 -0.0623461902
v -0.0166235343 0.0232421868 -0.00606445316
v -0.0166235343 0.00799926743 -0.00606445316
v 0.748376429 0.123719476 -0.122617185
v -0.751623511 0.0982080027 -0.112050779
v 0.748376429 0.0982080027 -0.112050779
v -0.751623511 0.123719476 -0.122617185
v 0.748376429 0.149229735 -0.112050779
v -0.751623511 0.149230957 -0.112050779
v 0.748376429 0.159796134 -0.0865405276
v -0.751623511 0.149230957 -0.112050779
v 0.748376429 0.149229735 -0.112050779
v -0.751623511 0.159797356 -0.0865405276
v 0.748376429 0.149229735 -0.0610302724
v -0.751623511 0.149230957 -0.0610302724
v 0.748376429 0.123719476 -0.0504638664
v -0.751623511 0.149230957 -0.0610302724
v 0.748376429 0.149229735 -0.0610302724
v -0.751623511 0.123719476 -0.0504638664
v 0.748376429 0.0982080027 -0.0610302724
v -0.751623511 0.0982080027 -0.0610302724
v 0.748376429 0.0876415968 -0.0865405276
v -0.751623511 0.0982080027 -0.0610302724
v 0.748376429 0.0982080027 -0.0610302724
v -0.751623511 0.0876415968 -0.0865405276
v -0.751623511 0.0982080027 -0.112050779
v 0.748376429 0.0982080027 -0.112050779
v 0.636627197 0.0312426742 -0.00606445316
v 0.636627197 0.0312426742 0
v 0.59062618 0.0312426742 0
v 0.59062618 0.0312426742 -0.00606445316
v 0.59062618 0.0312426742 -0.00606445316
v 0.59062618 0.0312426742 0
v 0.59062618 -1.2207031E-06 0
v 0.59062618 -1.2207031E-06 -0.00606445316
v 0.59062618 -1.2207031E-06 -0.00606445316
v 0.59062618 -1.2207031E-06 0
v 0.636627197 0 0
v 0.636627197 0 -0.00606445316
v 0.636627197 0 -0.00606445316
v 0.636627197 0 0
v 0.636627197 0.0312426742 0
v 0.636627197 0.0312426742 -0.00606445316
v 0.598626673 0.0398156717 -0.0792797804
v 0.628626704 0.0294555649 -0.0728857443
v 0.598626673 0.0294555649 -0.0728857443
v 0.628626704 0.0398156717 -0.0792797804
v 0.598626673 0.0933056623 -0.0792797804
v 0.628626704 0.0933056623 -0.0792797804
v 0.598626673 0.0294555649 -0.0728857443
v 0.628626704 0.0294555649 -0.0728857443
v 0.628626704 0.0232421868 -0.0623461902
v 0.598626673 0.0232421868 -0.0623461902
v 0.598626673 0.0232421868 -0.00606445316
v 0.628626704 0.0232421868 -0.00606445316
v 0.598626673 0.00799926743 -0.0623461902
v 0.628626704 0.0199926756 -0.0819897428
v 0.598626673 0.0199926756 -0.0819897428
v 0.628626704 0.00799926743 -0.0623461902
v 0.598626673 0.00799926743 -0.00606445316
v 0.628626704 0.00799926743 -0.00606445316
v 0.598626673 0.0199926756 -0.0819897428
v 0.628626704 0.0199926756 -0.0819897428
v 0.628626704 0.0398156717 -0.0938012674
v 0.598626673 0.0398156717 -0.0938012674
v 0.598626673 0.0933056623 -0.0938012674
v 0.628626704 0.0933056623 -0.0938012674
v 0.628626704 0.0933056623 -0.0938012674
v 0.628626704 0.0398156717 -0.0792797804
v 0.628626704 0.0933056623 -0.0792797804
v 0.628626704 0.0398156717 -0.0938012674
v 0.628626704 0.0199926756 -0.0819897428
v 0.628626704 0.0294555649 -0.0728857443
v 0.628626704 0.00799926743 -0.0623461902
v 0.628626704 0.0232421868 -0.0623461902
v 0.628626704 0.0232421868 -0.00606445316
v 0.628626704 0.00799926743 -0.00606445316
v 0.598626673 0.0398156717 -0.0792797804
v 0.598626673 0.0933056623 -0.0938012674
v 0.598626673 0.0933056623 -0.0792797804
v 0.598626673 0.0398156717 -0.0938012674
v 0.598626673 0.0294555649 -0.0728857443
v 0.598626673 0.0199926756 -0.0819897428
v 0.598626673 0.0232421868 -0.0623461902
v 0.598626673 0.00799926743 -0.0623461902
v 0.598626673 0.0232421868 -0.00606445316
v 0.598626673 0.00799926743 -0.00606445316
v -0.593873262 0.0312426742 -0.00606445316
v -0.593873262 0.0312426742 0
v -0.639873922 0.0312414542 0
v -0.639873922 0.0312414542 -0.00606445316
v -0.639873922 0.0312414542 -0.00606445316
v -0.639873922 0.0312414542 0
v -0.639874578 -1.2207031E-06 0
v -0.639874578 -1.2207031E-06 -0.00606445316
v -0.639874578 -1.2207031E-06 -0.00606445316
v -0.639874578 -1.2207031E-06 0
v -0.593873262 0 0
v -0.593873262 0 -0.00606445316
v -0.593873262 0 -0.00606445316
v -0.593873262 0 0
v -0.593873262 0.0312426742 0
v -0.593873262 0.0312426742 -0.00606445316
v -0.631873786 0.0398156717 -0.0792797804
v -0.601873755 0.0294555649 -0.0728857443
v -0.631873488 0.0294555649 -0.0728857443
v -0.601873755 0.0398156717 -0.0792797804
v -0.631873786 0.0933056623 -0.0792797804
v -0.601873755 0.0933056623 -0.0792797804
v -0.631873488 0.0294555649 -0.0728857443
v -0.601873755 0.0294555649 -0.0728857443
v -0.601874053 0.0232421868 -0.0623461902
v -0.631873786 0.0232421868 -0.0623461902
v -0.631873786 0.0232421868 -0.00606445316
v -0.601874053 0.0232421868 -0.00606445316
v -0.631873786 0.00799926743 -0.0623461902
v -0.601873755 0.0199926756 -0.0819897428
v -0.631873786 0.0199926756 -0.0819897428
v -0.601873457 0.00799926743 -0.0623461902
v -0.631873786 0.00799926743 -0.00606445316
v -0.601873457 0.00799926743 -0.00606445316
v -0.631873786 0.0199926756 -0.0819897428
v -0.601873755 0.0199926756 -0.0819897428
v -0.601873755 0.0398156717 -0.0938012674
v -0.631873786 0.0398156717 -0.0938012674
v -0.631873786 0.0933056623 -0.0938012674
v -0.601873755 0.0933056623 -0.0938012674
v -0.601873755 0.0933056623 -0.0938012674
v -0.601873755 0.0398156717 -0.0792797804
v -0.601873755 0.0933056623 -0.0792797804
v -0.601873755 0.0398156717 -0.0938012674
v -0.601873755 0.0199926756 -0.0819897428
v -0.601873755 0.0294555649 -0.0728857443
v -0.601873457 0.00799926743 -0.0623461902
v -0.601874053 0.0232421868 -0.0623461902
v -0.601874053 0.0232421868 -0.00606445316
v -0.601873457 0.00799926743 -0.00606445316
v -0.631873786 0.0398156717 -0.0792797804
v -0.631873786 0.0933056623 -0.0938012674
v -0.631873786 0.0933056623 -0.0792797804
v -0.631873786 0.0398156717 -0.0938012674
v -0.631873488 0.0294555649 -0.0728857443
v -0.631873786 0.0199926756 -0.0819897428
v -0.631873786 0.0232421868 -0.0623461902
v -0.631873786 0.00799926743 -0.0623461902
v -0.631873786 0.0232421868 -0.00606445316
v -0.631873786 0.00799926743 -0.00606445316
v 0.748376429 0.0982080027 -0.0610302724
v 0.758906245 0.123719476 -0.0865405276
v 0.748376429 0.0876415968 -0.0865405276
v 0.748376429 0.123719476 -0.0504638664
v 0.748376429 0.0982080027 -0.112050779
v 0.748376429 0.149229735 -0.0610302724
v 0.748376429 0.123719476 -0.122617185
v 0.748376429 0.159796134 -0.0865405276
v 0.748376429 0.149229735 -0.112050779
v -0.751623511 0.0876415968 -0.0865405276
v -0.758906245 0.123719476 -0.0865405276
v -0.751623511 0.0982080027 -0.0610302724
v -0.751623511 0.0982080027 -0.112050779
v -0.751623511 0.123719476 -0.0504638664
v -0.751623511 0.123719476 -0.122617185
v -0.751623511 0.149230957 -0.0610302724
v -0.751623511 0.149230957 -0.112050779
v -0.751623511 0.159797356 -0.0865405276
v -0.631873786 0.00799926743 -0.00606445316
v -0.639874578 -1.2207031E-06 -0.00606445316
v -0.593873262 0 -0.00606445316
v -0.631873786 0.0232421868 -0.00606445316
v -0.601873457 0.00799926743 -0.00606445316
v -0.639873922 0.0312414542 -0.00606445316
v -0.593873262 0.0312426742 -0.00606445316
v -0.601874053 0.0232421868 -0.00606445316
v 0.598626673 0.00799926743 -0.00606445316
v 0.59062618 -1.2207031E-06 -0.00606445316
v 0.636627197 0 -0.00606445316
v 0.598626673 0.0232421868 -0.00606445316
v 0.628626704 0.00799926743 -0.00606445316
v 0.59062618 0.0312426742 -0.00606445316
v 0.636627197 0.0312426742 -0.00606445316
v 0.628626704 0.0232421868 -0.00606445316
v -0.0166235343 0.00799926743 -0.00606445316
v -0.0246240236 -1.2207031E-06 -0.00606445316
v 0.0213769525 0 -0.00606445316
v -0.0166235343 0.0232421868 -0.00606445316
v 0.0133764641 0.00799926743 -0.00606445316
v -0.0246240236 0.0312426742 -0.00606445316
v 0.0213769525 0.0312426742 -0.00606445316
v 0.0133764641 0.0232421868 -0.00606445316
vt 0.0452575684 0.939941406
vt 0.0452575684 0.942871094
vt 0.0662841797 0.942871094
vt 0.0662841797 0.939941406
vt 0.0662841797 0.939941406
vt 0.0690307617 0.939941406
vt 0.0690307617 0.92578125
vt 0.0662841797 0.92578125
vt 0.0662841797 0.92578125
vt 0.0662841797 0.922851562
vt 0.0452575684 0.922851562
vt 0.0452575684 0.92578125
vt 0.0452575684 0.92578125
vt 0.0424804688 0.92578125
vt 0.0424804688 0.939941406
vt 0.0452575684 0.939941406
vt 0.0412597656 0.974609375
vt 0.0513916016 0.970214844
vt 0.0412597656 0.970214844
vt 0.0513916016 0.975097656
vt 0.0412597656 0.992675781
vt 0.0513916016 0.993652344
vt 0.0412597656 0.970214844
vt 0.0513916016 0.970214844
vt 0.0513916016 0.965332031
vt 0.0412597656 0.965820312
vt 0.0412597656 0.946289062
vt 0.0513916016 0.945800781
vt 0.0662841797 0.963378906
vt 0.056060791 0.970214844
vt 0.0662841797 0.970214844
vt 0.056060791 0.963867188
vt 0.0662841797 0.945800781
vt 0.056060791 0.9453125
vt 0.0662841797 0.970214844
vt 0.056060791 0.970214844
vt 0.056060791 0.9765625
vt 0.0662841797 0.9765625
vt 0.0662841797 0.993652344
vt 0.056060791 0.994140625
vt 0.056060791 0.994140625
vt 0.0513916016 0.975097656
vt 0.0513916016 0.993652344
vt 0.056060791 0.9765625
vt 0.056060791 0.970214844
vt 0.0513916016 0.970214844
vt 0.056060791 0.963867188
vt 0.0513916016 0.965332031
vt 0.0513916016 0.945800781
vt 0.056060791 0.9453125
vt 0.0708618164 0.975097656
vt 0.0662841797 0.993652344
vt 0.0708618164 0.993164062
vt 0.0662841797 0.9765625
vt 0.0708618164 0.970214844
vt 0.0662841797 0.970214844
vt 0.0708618164 0.965332031
vt 0.0662841797 0.963378906
vt 0.0708618164 0.946289062
vt 0.0662841797 0.945800781
vt 0.102600098 0.982910156
vt 0.0977172852 0.717773438
vt 0.0977172852 0.982910156
vt 0.102600098 0.717773438
vt 0.10748291 0.982910156
vt 0.10748291 0.717773438
vt 0.112365723 0.982910156
vt 0.10748291 0.717773438
vt 0.10748291 0.982910156
vt 0.112365723 0.717773438
vt 0.117248535 0.982910156
vt 0.117248535 0.717773438
vt 0.122070312 0.982910156
vt 0.117248535 0.717773438
vt 0.117248535 0.982910156
vt 0.122070312 0.717773438
vt 0.126953125 0.982910156
vt 0.126953125 0.717773438
vt 0.0928344727 0.982910156
vt 0.0880126953 0.717773438
vt 0.0880126953 0.982910156
vt 0.0928344727 0.717773438
vt 0.0977172852 0.717773438
vt 0.0977172852 0.982910156
vt 0.0452575684 0.939941406
vt 0.0452575684 0.942871094
vt 0.0662841797 0.942871094
vt 0.0662841797 0.939941406
vt 0.0662841797 0.939941406
vt 0.0690307617 0.939941406
vt 0.0690307617 0.92578125
vt 0.0662841797 0.92578125
vt 0.0662841797 0.92578125
vt 0.0662841797 0.922851562
vt 0.0452575684 0.922851562
vt 0.0452575684 0.92578125
vt 0.0452575684 0.92578125
vt 0.0424804688 0.92578125
vt 0.0424804688 0.939941406
vt 0.0452575684 0.939941406
vt 0.0412597656 0.974609375
vt 0.0513916016 0.970214844
vt 0.0412597656 0.970214844
vt 0.0513916016 0.975097656
vt 0.0412597656 0.992675781
vt 0.0513916016 0.993652344
vt 0.0412597656 0.970214844
vt 0.0513916016 0.970214844
vt 0.0513916016 0.965332031
vt 0.0412597656 0.965820312
vt 0.0412597656 0.946289062
vt 0.0513916016 0.945800781
vt 0.0662841797 0.963378906
vt 0.056060791 0.970214844
vt 0.0662841797 0.970214844
vt 0.056060791 0.963867188
vt 0.0662841797 0.945800781
vt 0.056060791 0.9453125
vt 0.0662841797 0.970214844
vt 0.056060791 0.970214844
vt 0.056060791 0.9765625
vt 0.0662841797 0.9765625
vt 0.0662841797 0.993652344
vt 0.056060791 0.994140625
vt 0.056060791 0.994140625
vt 0.0513916016 0.975097656
vt 0.0513916016 0.993652344
vt 0.056060791 0.9765625
vt 0.056060791 0.970214844
vt 0.0513916016 0.970214844
vt 0.056060791 0.963867188
vt 0.0513916016 0.965332031
vt 0.0513916016 0.945800781
vt 0.056060791 0.9453125
vt 0.0708618164 0.975097656
vt 0.0662841797 0.993652344
vt 0.0708618164 0.992675781
vt 0.0662841797 0.9765625
vt 0.0708618164 0.970214844
vt 0.0662841797 0.970214844
vt 0.0708618164 0.965332031
vt 0.0662841797 0.963378906
vt 0.0708618164 0.946289062
vt 0.0662841797 0.945800781
vt 0.0452575684 0.939941406
vt 0.0452575684 0.942871094
vt 0.0662841797 0.942871094
vt 0.0662841797 0.939941406
vt 0.0662841797 0.939941406
vt 0.0690307617 0.939941406
vt 0.0690307617 0.92578125
vt 0.0662841797 0.92578125
vt 0.0662841797 0.92578125
vt 0.0662841797 0.922851562
vt 0.0452575684 0.922851562
vt 0.0452575684 0.92578125
vt 0.0452575684 0.92578125
vt 0.0424804688 0.92578125
vt 0.0424804688 0.939941406
vt 0.0452575684 0.939941406
vt 0.0412597656 0.974609375
vt 0.0513916016 0.970214844
vt 0.0412597656 0.970214844
vt 0.0513916016 0.975097656
vt 0.0412597656 0.992675781
vt 0.0513916016 0.993652344
vt 0.0412597656 0.970214844
vt 0.0513916016 0.970214844
vt 0.0513916016 0.965332031
vt 0.0412597656 0.965820312
vt 0.0412597656 0.946289062
vt 0.0513916016 0.945800781
vt 0.0662841797 0.963378906
vt 0.056060791 0.970214844
vt 0.0662841797 0.970214844
vt 0.056060791 0.963867188
vt 0.0662841797 0.945800781
vt 0.056060791 0.9453125
vt 0.0662841797 0.970214844
vt 0.056060791 0.970214844
vt 0.056060791 0.9765625
vt 0.0662841797 0.9765625
vt 0.0662841797 0.993652344
vt 0.056060791 0.994140625
vt 0.056060791 0.994140625
vt 0.0513916016 0.975097656
vt 0.0513916016 0.993652344
vt 0.056060791 0.9765625
vt 0.056060791 0.970214844
vt 0.0513916016 0.970214844
vt 0.056060791 0.963867188
vt 0.0513916016 0.965332031
vt 0.0513916016 0.945800781
vt 0.056060791 0.9453125
vt 0.0708618164 0.975097656
vt 0.0662841797 0.993652344
vt 0.0708618164 0.992675781
vt 0.0662841797 0.9765625
vt 0.0708618164 0.970214844
vt 0.0662841797 0.970214844
vt 0.0708618164 0.965332031
vt 0.0662841797 0.963378906
vt 0.0708618164 0.946289062
vt 0.0662841797 0.945800781
vt 0.102539062 0.994628906
vt 0.105041504 0.988769531
vt 0.0990600586 0.991210938
vt 0.107543945 0.994628906
vt 0.0990600586 0.986328125
vt 0.111022949 0.991210938
vt 0.102600098 0.982910156
vt 0.111022949 0.986328125
vt 0.10748291 0.982910156
vt 0.0991210938 0.709472656
vt 0.105041504 0.711914062
vt 0.102600098 0.706054688
vt 0.0991210938 0.714355469
vt 0.10748291 0.706054688
vt 0.102600098 0.717773438
vt 0.110961914 0.709472656
vt 0.10748291 0.717773438
vt 0.110961914 0.714355469
vt 0.0626220703 0.9296875
vt 0.0662841797 0.92578125
vt 0.0452575684 0.92578125
vt 0.0626220703 0.936523438
vt 0.0489196777 0.9296875
vt 0.0662841797 0.939941406
vt 0.0452575684 0.939941406
vt 0.0489196777 0.936523438
vt 0.0626220703 0.9296875
vt 0.0662841797 0.92578125
vt 0.0452575684 0.92578125
vt 0.0626220703 0.936523438
vt 0.0489196777 0.9296875
vt 0.0662841797 0.939941406
vt 0.0452575684 0.939941406
vt 0.0489196777 0.936523438
vt 0.0626220703 0.9296875
vt 0.0662841797 0.92578125
vt 0.0452575684 0.92578125
vt 0.0626220703 0.936523438
vt 0.0489196777 0.9296875
vt 0.0662841797 0.939941406
vt 0.0452575684 0.939941406
vt 0.0489196777 0.936523438
vn -0 1 0
vn -0 1 0
vn -0 1 0
vn -0 1 0
vn -1 0 0
vn -1 0 0
vn -1 0 0
vn -1 0 0
vn 2.65240669E-05 -1 0
vn 2.65240669E-05 -1 0
vn 2.65240669E-05 -1 0
vn 2.65240669E-05 -1 0
vn 1 0 0
vn 1 0 0
vn 1 0 0
vn 1 0 0
vn -0 0.0996704102 0.995117188
vn -0 0.71484375 0.699707031
vn -0 0.71484375 0.699707031
vn -0 0.0996704102 0.995117188
vn -0 0 1
vn -0 0 1
vn -0 0.71484375 0.699707031
vn -0 0.71484375 0.699707031
vn -0 0.995605469 0.092590332
vn -0 0.995605469 0.092590332
vn -0 1 0
vn -0 1 0
vn -0 -0.987792969 -0.156005859
vn -0 -0.703125 -0.7109375
vn -0 -0.703125 -0.7109375
vn -0 -0.987792969 -0.156005859
vn -0 -1 0
vn -0 -1 0
vn -0 -0.703125 -0.7109375
vn -0 -0.703125 -0.7109375
vn -0 -0.159057617 -0.987304688
vn -0 -0.159057617 -0.987304688
vn -0 0 -1
vn -0 0 -1
vn 1 0 0
vn 1 0 0
vn 1 0 0
vn 1 0 0
vn 1 0 0
vn 1 0 0
vn 1 0 0
vn 1 0 0
vn 1 0 0
vn 1 0 0
vn -1 0 0
vn -1 0 0
vn -1 0 0
vn -1 0 0
vn -1 0 0
vn -1 0 0
vn -1 0 0
vn -1 0 0
vn -1 0 0
vn -1 0 0
vn -0 0 -1
vn -0 -0.70703125 -0.70703125
vn -0 -0.70703125 -0.70703125
vn -0 0 -1
vn 4.76837158E-07 0.70703125 -0.70703125
vn 4.76837158E-07 0.70703125 -0.70703125
vn 8.34465027E-07 1 0
vn 4.76837158E-07 0.70703125 -0.70703125
vn 4.76837158E-07 0.70703125 -0.70703125
vn 8.34465027E-07 1 0
vn 4.76837158E-07 0.70703125 0.70703125
vn 4.76837158E-07 0.70703125 0.70703125
vn -0 0 1
vn 4.76837158E-07 0.70703125 0.70703125
vn 4.76837158E-07 0.70703125 0.70703125
vn -0 0 1
vn -0 -0.70703125 0.70703125
vn -0 -0.70703125 0.70703125
vn -0 -1 0
vn -0 -0.70703125 0.70703125
vn -0 -0.70703125 0.70703125
vn -0 -1 0
vn -0 -0.70703125 -0.70703125
vn -0 -0.70703125 -0.70703125
vn -0 1 0
vn -0 1 0
vn -0 1 0
vn -0 1 0
vn -1 0 0
vn -1 0 0
vn -1 0 0
vn -1 0 0
vn 2.65240669E-05 -1 0
vn 2.65240669E-05 -1 0
vn 2.65240669E-05 -1 0
vn 2.65240669E-05 -1 0
vn 1 0 0
vn 1 0 0
vn 1 0 0
vn 1 0 0
vn -0 0.0996704102 0.995117188
vn -0 0.71484375 0.699707031
vn -0 0.71484375 0.699707031
vn -0 0.0996704102 0.995117188
vn -0 0 1
vn -0 0 1
vn -0 0.71484375 0.699707031
vn -0 0.71484375 0.699707031
vn -0 0.995605469 0.092590332
vn -0 0.995605469 0.092590332
vn -0 1 0
vn -0 1 0
vn -0 -0.987792969 -0.156005859
vn -0 -0.703125 -0.7109375
vn -0 -0.703125 -0.7109375
vn -0 -0.987792969 -0.156005859
vn -0 -1 0
vn -0 -1 0
vn -0 -0.703125 -0.7109375
vn -0 -0.703125 -0.7109375
vn -0 -0.159057617 -0.987304688
vn -0 -0.159057617 -0.987304688
vn -0 0 -1
vn -0 0 -1
vn 1 0 0
vn 1 9.53674316E-07 0
vn 1 0 0
vn 1 5.36441803E-07 0
vn 1 1.66893005E-06 0
vn 1 1.7285347E-06 0
vn 1 0 0
vn 1 0 0
vn 1 0 0
vn 1 0 0
vn -1 0 0
vn -1 0 0
vn -1 0 0
vn -1 0 0
vn -1 0 0
vn -1 0 0
vn -1 0 0
vn -1 0 0
vn -1 0 0
vn -1 0 0
vn -2.65240669E-05 1 0
vn -2.65240669E-05 1 0
vn -2.65240669E-05 1 0
vn -2.65240669E-05 1 0
vn -1 2.01463699E-05 0
vn -1 2.01463699E-05 0
vn -1 2.01463699E-05 0
vn -1 2.01463699E-05 0
vn 2.65240669E-05 -1 0
vn 2.65240669E-05 -1 0
vn 2.65240669E-05 -1 0
vn 2.65240669E-05 -1 0
vn 1 0 0
vn 1 0 0
vn 1 0 0
vn 1 0 0
vn -0 0.0996704102 0.995117188
vn -0 0.71484375 0.699707031
vn -0 0.71484375 0.699707031
vn -0 0.0996704102 0.995117188
vn -0 0 1
vn -0 0 1
vn -0 0.71484375 0.699707031
vn -0 0.71484375 0.699707031
vn -0 0.995605469 0.092590332
vn -0 0.995605469 0.092590332
vn -0 1 0
vn -0 1 0
vn -0 -0.987792969 -0.156005859
vn -0 -0.703125 -0.7109375
vn -0 -0.703125 -0.7109375
vn -0 -0.987792969 -0.156005859
vn -0 -1 0
vn -0 -1 0
vn -0 -0.703125 -0.7109375
vn -0 -0.703125 -0.7109375
vn -0 -0.159057617 -0.987304688
vn -0 -0.159057617 -0.987304688
vn -0 0 -1
vn -0 0 -1
vn 1 0 0
vn 1 9.53674316E-07 0
vn 1 0 0
vn 1 5.36441803E-07 0
vn 1 1.12056732E-05 6.31809235E-06
vn 1 1.10268593E-05 6.13927841E-06
vn 1 3.9100647E-05 1.78813934E-06
vn 1 3.62992287E-05 3.21865082E-06
vn 1 4.26769257E-05 0
vn 1 4.26769257E-05 0
vn -1 -1.43051147E-06 3.81469727E-06
vn -1 0 0
vn -1 0 0
vn -1 -8.34465027E-07 2.14576721E-06
vn -1 5.90085983E-06 5.66244125E-06
vn -1 6.13927841E-06 5.48362732E-06
vn -1 4.41074371E-06 -5.96046448E-07
vn -1 2.44379044E-06 -2.98023224E-07
vn -1 0 0
vn -1 0 0
vn 0.959960938 -0.198120117 0.198120117
vn 1 1.07288361E-06 0
vn 0.959960938 -0.280273438 0
vn 0.959960938 -7.74860382E-07 0.280273438
vn 0.959960938 -0.198120117 -0.198120117
vn 0.959960938 0.198120117 0.198120117
vn 0.959960938 -7.74860382E-07 -0.280273438
vn 0.959960938 0.280273438 0
vn 0.959960938 0.198120117 -0.198120117
vn -0.98046875 -0.197875977 0
vn -1 0 0
vn -0.98046875 -0.139892578 0.139892578
vn -0.98046875 -0.139892578 -0.139892578
vn -0.98046875 -1.60932541E-06 0.197875977
vn -0.98046875 1.60932541E-06 -0.197875977
vn -0.98046875 0.139892578 0.139892578
vn -0.98046875 0.139892578 -0.139892578
vn -0.98046875 0.197875977 0
vn -0 0 -1
vn -0 0 -1
vn -0 0 -1
vn -0 0 -1
vn -0 0 -1
vn -0 0 -1
vn -0 0 -1
vn -0 0 -1
vn -0 0 -1
vn -0 0 -1
vn -0 0 -1
vn -0 0 -1
vn -0 0 -1
vn -0 0 -1
vn -0 0 -1
vn -0 0 -1
vn -0 0 -1
vn -0 0 -1
vn -0 0 -1
vn -0 0 -1
vn -0 0 -1
vn -0 0 -1
vn -0 0 -1
vn -0 0 -1
g RodRoom_Rail_B_0
f 3/3/3 2/2/2 1/1/1
f 4/4/4 3/3/3 1/1/1
f 7/7/7 6/6/6 5/5/5
f 8/8/8 7/7/7 5/5/5
f 11/11/11 10/10/10 9/9/9
f 12/12/12 11/11/11 9/9/9
f 15/15/15 14/14/14 13/13/13
f 16/16/16 15/15/15 13/13/13
f 19/19/19 18/18/18 17/17/17
f 18/18/18 20/20/20 17/17/17
f 17/17/17 20/20/20 21/21/21
f 20/20/20 22/22/22 21/21/21
f 25/25/25 24/24/24 23/23/23
f 26/26/26 25/25/25 23/23/23
f 26/26/26 27/27/27 25/25/25
f 27/27/27 28/28/28 25/25/25
f 31/31/31 30/30/30 29/29/29
f 30/30/30 32/32/32 29/29/29
f 33/33/33 29/29/29 32/32/32
f 34/34/34 33/33/33 32/32/32
f 37/37/37 36/36/36 35/35/35
f 38/38/38 37/37/37 35/35/35
f 37/37/37 38/38/38 39/39/39
f 40/40/40 37/37/37 39/39/39
f 43/43/43 42/42/42 41/41/41
f 42/42/42 44/44/44 41/41/41
f 45/45/45 44/44/44 42/42/42
f 46/46/46 45/45/45 42/42/42
f 47/47/47 45/45/45 46/46/46
f 48/48/48 47/47/47 46/46/46
f 48/48/48 49/49/49 47/47/47
f 49/49/49 50/50/50 47/47/47
f 53/53/53 52/52/52 51/51/51
f 52/52/52 54/54/54 51/51/51
f 51/51/51 54/54/54 55/55/55
f 54/54/54 56/56/56 55/55/55
f 55/55/55 56/56/56 57/57/57
f 56/56/56 58/58/58 57/57/57
f 59/59/59 57/57/57 58/58/58
f 60/60/60 59/59/59 58/58/58
f 63/63/63 62/62/62 61/61/61
f 62/62/62 64/64/64 61/61/61
f 61/61/61 64/64/64 65/65/65
f 64/64/64 66/66/66 65/65/65
f 69/69/69 68/68/68 67/67/67
f 68/68/68 70/70/70 67/67/67
f 67/67/67 70/70/70 71/71/71
f 70/70/70 72/72/72 71/71/71
f 75/75/75 74/74/74 73/73/73
f 74/74/74 76/76/76 73/73/73
f 73/73/73 76/76/76 77/77/77
f 76/76/76 78/78/78 77/77/77
f 81/81/81 80/80/80 79/79/79
f 80/80/80 82/82/82 79/79/79
f 79/79/79 82/82/82 83/83/83
f 84/84/84 79/79/79 83/83/83
f 87/87/87 86/86/86 85/85/85
f 88/88/88 87/87/87 85/85/85
f 91/91/91 90/90/90 89/89/89
f 92/92/92 91/91/91 89/89/89
f 95/95/95 94/94/94 93/93/93
f 96/96/96 95/95/95 93/93/93
f 99/99/99 98/98/98 97/97/97
f 100/100/100 99/99/99 97/97/97
f 103/103/103 102/102/102 101/101/101
f 102/102/102 104/104/104 101/101/101
f 101/101/101 104/104/104 105/105/105
f 104/104/104 106/106/106 105/105/105
f 109/109/109 108/108/108 107/107/107
f 110/110/110 109/109/109 107/107/107
f 110/110/110 111/111/111 109/109/109
f 111/111/111 112/112/112 109/109/109
f 115/115/115 114/114/114 113/113/113
f 114/114/114 116/116/116 113/113/113
f 117/117/117 113/113/113 116/116/116
f 118/118/118 117/117/117 116/116/116
f 121/121/121 120/120/120 119/119/119
f 122/122/122 121/121/121 119/119/119
f 121/121/121 122/122/122 123/123/123
f 124/124/124 121/121/121 123/123/123
f 127/127/127 126/126/126 125/125/125
f 126/126/126 128/128/128 125/125/125
f 129/129/129 128/128/128 126/126/126
f 130/130/130 129/129/129 126/126/126
f 131/131/131 129/129/129 130/130/130
f 132/132/132 131/131/131 130/130/130
f 132/132/132 133/133/133 131/131/131
f 133/133/133 134/134/134 131/131/131
f 137/137/137 136/136/136 135/135/135
f 136/136/136 138/138/138 135/135/135
f 135/135/135 138/138/138 139/139/139
f 138/138/138 140/140/140 139/139/139
f 139/139/139 140/140/140 141/141/141
f 140/140/140 142/142/142 141/141/141
f 143/143/143 141/141/141 142/142/142
f 144/144/144 143/143/143 142/142/142
f 147/147/147 146/146/146 145/145/145
f 148/148/148 147/147/147 145/145/145
f 151/151/151 150/150/150 149/149/149
f 152/152/152 151/151/151 149/149/149
f 155/155/155 154/154/154 153/153/153
f 156/156/156 155/155/155 153/153/153
f 159/159/159 158/158/158 157/157/157
f 160/160/160 159/159/159 157/157/157
f 163/163/163 162/162/162 161/161/161
f 162/162/162 164/164/164 161/161/161
f 161/161/161 164/164/164 165/165/165
f 164/164/164 166/166/166 165/165/165
f 169/169/169 168/168/168 167/167/167
f 170/170/170 169/169/169 167/167/167
f 170/170/170 171/171/171 169/169/169
f 171/171/171 172/172/172 169/169/169
f 175/175/175 174/174/174 173/173/173
f 174/174/174 176/176/176 173/173/173
f 177/177/177 173/173/173 176/176/176
f 178/178/178 177/177/177 176/176/176
f 181/181/181 180/180/180 179/179/179
f 182/182/182 181/181/181 179/179/179
f 181/181/181 182/182/182 183/183/183
f 184/184/184 181/181/181 183/183/183
f 187/187/187 186/186/186 185/185/185
f 186/186/186 188/188/188 185/185/185
f 189/189/189 188/188/188 186/186/186
f 190/190/190 189/189/189 186/186/186
f 191/191/191 189/189/189 190/190/190
f 192/192/192 191/191/191 190/190/190
f 192/192/192 193/193/193 191/191/191
f 193/193/193 194/194/194 191/191/191
f 197/197/197 196/196/196 195/195/195
f 196/196/196 198/198/198 195/195/195
f 195/195/195 198/198/198 199/199/199
f 198/198/198 200/200/200 199/199/199
f 199/199/199 200/200/200 201/201/201
f 200/200/200 202/202/202 201/201/201
f 203/203/203 201/201/201 202/202/202
f 204/204/204 203/203/203 202/202/202
f 207/207/207 206/206/206 205/205/205
f 205/205/205 206/206/206 208/208/208
f 209/209/209 206/206/206 207/207/207
f 208/208/208 206/206/206 210/210/210
f 211/211/211 206/206/206 209/209/209
f 210/210/210 206/206/206 212/212/212
f 213/213/213 206/206/206 211/211/211
f 212/212/212 206/206/206 213/213/213
f 216/216/216 215/215/215 214/214/214
f 214/214/214 215/215/215 217/217/217
f 218/218/218 215/215/215 216/216/216
f 217/217/217 215/215/215 219/219/219
f 220/220/220 215/215/215 218/218/218
f 219/219/219 215/215/215 221/221/221
f 222/222/222 215/215/215 220/220/220
f 221/221/221 215/215/215 222/222/222
f 225/225/225 224/224/224 223/223/223
f 223/223/223 224/224/224 226/226/226
f 227/227/227 225/225/225 223/223/223
f 224/224/224 228/228/228 226/226/226
f 229/229/229 225/225/225 227/227/227
f 226/226/226 228/228/228 230/230/230
f 230/230/230 229/229/229 227/227/227
f 228/228/228 229/229/229 230/230/230
f 233/233/233 232/232/232 231/231/231
f 231/231/231 232/232/232 234/234/234
f 235/235/235 233/233/233 231/231/231
f 232/232/232 236/236/236 234/234/234
f 237/237/237 233/233/233 235/235/235
f 234/234/234 236/236/236 238/238/238
f 238/238/238 237/237/237 235/235/235
f 236/236/236 237/237/237 238/238/238
f 241/241/241 240/240/240 239/239/239
f 239/239/239 240/240/240 242/242/242
f 243/243/243 241/241/241 239/239/239
f 240/240/240 244/244/244 242/242/242
f 245/245/245 241/241/241 243/243/243
f 242/242/242 244/244/244 246/246/246
f 246/246/246 245/245/245 243/243/243
f 244/244/244 245/245/245 246/246/246
