g RodRoom_Shelf
v 0.361049503 0 -0.599749029
v 0.361049503 0.0399999991 -0.599749029
v -0.00937423669 0.0399999991 -0.59390229
v -0.00937423669 0 -0.59390229
v 0.361049503 0.0399999991 -0.599749029
v 0.379797816 0.0399999991 0.588055432
v 0.00937408395 0.0399999991 0.593902171
v -0.00937423669 0.0399999991 -0.59390229
v 0.379797816 0.0399999991 0.588055432
v 0.379797816 0 0.588055432
v 0.00937408395 0 0.593902171
v 0.00937408395 0.0399999991 0.593902171
v 0.379797816 0 0.588055432
v 0.361049503 0 -0.599749029
v -0.00937423669 0 -0.59390229
v 0.00937408395 0 0.593902171
v 0.379797816 0 0.588055432
v 0.379797816 0.0399999991 0.588055432
v 0.361049503 0.0399999991 -0.599749029
v 0.361049503 0 -0.599749029
v 0.0145182414 -0.231692806 -0.396246791
v 0.276766807 0.00525833108 -0.400386125
v 0.246440202 0.010778198 -0.39990744
v 0.00908496883 -0.203836128 -0.39616102
v 0.27745533 0.00525833108 -0.356762409
v 0.0152068324 -0.231692806 -0.352623105
v 0.00977352075 -0.203836128 -0.352537304
v 0.247128755 0.010778198 -0.356283724
v 0.00908496883 -0.203836128 -0.39616102
v 0.246440202 0.010778198 -0.39990744
v 0.247128755 0.010778198 -0.356283724
v 0.00977352075 -0.203836128 -0.352537304
v 0.0152068324 -0.231692806 -0.352623105
v 0.27745533 0.00525833108 -0.356762409
v 0.276766807 0.00525833108 -0.400386125
v 0.0145182414 -0.231692806 -0.396246791
v 0.0159680545 -0.236752078 -0.401300788
v 0.0159680545 0.00712478627 -0.401300788
v -0.00241695391 0.00712478627 -0.401010633
v -0.00241695391 -0.236752078 -0.401010633
v 0.0168154147 0.00712478627 -0.347617328
v 0.0168154147 -0.236752078 -0.347617328
v -0.0015695953 -0.236752078 -0.347327143
v -0.0015695953 0.00712478627 -0.347327143
v 0.0168154147 -0.236752078 -0.347617328
v 0.0159680545 -0.236752078 -0.401300788
v -0.00241695391 -0.236752078 -0.401010633
v -0.0015695953 -0.236752078 -0.347327143
v 0.0168154147 -0.236752078 -0.347617328
v 0.0168154147 0.00712478627 -0.347617328
v 0.0159680545 0.00712478627 -0.401300788
v 0.0159680545 -0.236752078 -0.401300788
v 0.0263388436 -0.231692806 0.35264948
v 0.288587362 0.00525833108 0.348510116
v 0.258260787 0.010778198 0.348988831
v 0.0209055711 -0.203836128 0.352735251
v 0.289275914 0.00525833108 0.392133862
v 0.0270273965 -0.231692806 0.396273196
v 0.0215941239 -0.203836128 0.396358937
v 0.258949339 0.010778198 0.392612517
v 0.0209055711 -0.203836128 0.352735251
v 0.258260787 0.010778198 0.348988831
v 0.258949339 0.010778198 0.392612517
v 0.0215941239 -0.203836128 0.396358937
v 0.0270273965 -0.231692806 0.396273196
v 0.289275914 0.00525833108 0.392133862
v 0.288587362 0.00525833108 0.348510116
v 0.0263388436 -0.231692806 0.35264948
v 0.0277886577 -0.236752078 0.347595423
v 0.0277886577 0.00712478627 0.347595423
v 0.00940364785 0.00712478627 0.347885609
v 0.00940364785 -0.236752078 0.347885609
v 0.0286359787 0.00712478627 0.401278943
v 0.0286359787 -0.236752078 0.401278943
v 0.0102509689 -0.236752078 0.401569128
v 0.0102509689 0.00712478627 0.401569128
v 0.0286359787 -0.236752078 0.401278943
v 0.0277886577 -0.236752078 0.347595423
v 0.00940364785 -0.236752078 0.347885609
v 0.0102509689 -0.236752078 0.401569128
v 0.0286359787 -0.236752078 0.401278943
v 0.0286359787 0.00712478627 0.401278943
v 0.0277886577 0.00712478627 0.347595423
v 0.0277886577 -0.236752078 0.347595423
vt 0.184448242 0.215820312
vt 0.173706055 0.215820312
vt 0.173706055 0.275146484
vt 0.184448242 0.275146484
vt 0.0823974609 0.405761719
vt 0.0823974609 0.215454102
vt 0.0230865479 0.215454102
vt 0.0230865479 0.405761719
vt 0.173706055 0.405273438
vt 0.184448242 0.405273438
vt 0.184448242 0.345947266
vt 0.173706055 0.345947266
vt 0.0888061523 0.215454102
vt 0.0888061523 0.405761719
vt 0.148193359 0.405761719
vt 0.148193359 0.215454102
vt 0.184448242 0.215454102
vt 0.173706055 0.215454102
vt 0.173706055 0.405761719
vt 0.184448242 0.405761719
vt 0.174072266 0.34765625
vt 0.174072266 0.28515625
vt 0.169799805 0.288574219
vt 0.169799805 0.345214844
vt 0.181762695 0.28515625
vt 0.181762695 0.34765625
vt 0.186157227 0.345214844
vt 0.186157227 0.288574219
vt 0.169799805 0.345214844
vt 0.169799805 0.288574219
vt 0.161987305 0.288574219
vt 0.162109375 0.345214844
vt 0.181762695 0.34765625
vt 0.181762695 0.28515625
vt 0.174072266 0.28515625
vt 0.174072266 0.34765625
vt 0.172241211 0.346679688
vt 0.172241211 0.296386719
vt 0.168457031 0.296386719
vt 0.168457031 0.346679688
vt 0.183349609 0.296386719
vt 0.183349609 0.346679688
vt 0.187133789 0.346679688
vt 0.187133789 0.296386719
vt 0.172241211 0.341308594
vt 0.172241211 0.330078125
vt 0.168457031 0.330078125
vt 0.168457031 0.341308594
vt 0.183349609 0.346679688
vt 0.183349609 0.296386719
vt 0.172241211 0.296386719
vt 0.172241211 0.346679688
vt 0.174072266 0.288330078
vt 0.174072266 0.225830078
vt 0.169677734 0.229125977
vt 0.169677734 0.285644531
vt 0.181762695 0.225830078
vt 0.181762695 0.288330078
vt 0.186035156 0.285644531
vt 0.186035156 0.229125977
vt 0.169677734 0.285644531
vt 0.169677734 0.229125977
vt 0.161987305 0.229125977
vt 0.161987305 0.285644531
vt 0.181762695 0.288330078
vt 0.181762695 0.225830078
vt 0.174072266 0.225830078
vt 0.174072266 0.288330078
vt 0.172241211 0.3984375
vt 0.172241211 0.348144531
vt 0.168457031 0.348144531
vt 0.168457031 0.3984375
vt 0.183349609 0.348144531
vt 0.183349609 0.3984375
vt 0.187133789 0.3984375
vt 0.187133789 0.348144531
vt 0.172241211 0.393066406
vt 0.172241211 0.381835938
vt 0.168457031 0.381835938
vt 0.168457031 0.393066406
vt 0.183349609 0.3984375
vt 0.183349609 0.348144531
vt 0.172241211 0.348144531
vt 0.172241211 0.3984375
vn -0.0157775879 0 -1
vn -0.0157775879 0 -1
vn -0.0157775879 0 -1
vn -0.0157775879 0 -1
vn -0 1 0
vn -0 1 0
vn -0 1 0
vn -0 1 0
vn 0.0157775879 0 1
vn 0.0157775879 0 1
vn 0.0157775879 0 1
vn 0.0157775879 0 1
vn -0 -1 0
vn -0 -1 0
vn -0 -1 0
vn -0 -1 0
vn 1 0 -0.0157775879
vn 1 0 -0.0157775879
vn 1 0 -0.0157775879
vn 1 0 -0.0157775879
vn -0.0157775879 0 -1
vn -0.0157775879 0 -1
vn -0.0157775879 0 -1
vn -0.0157775879 0 -1
vn 0.0157775879 -7.15255737E-07 1
vn 0.0157775879 -7.15255737E-07 1
vn 0.0157775879 -7.15255737E-07 1
vn 0.0157775879 -7.15255737E-07 1
vn -0.670410156 0.741699219 0.0105819702
vn -0.670410156 0.741699219 0.0105819702
vn -0.670410156 0.741699219 0.0105819702
vn -0.670410156 0.741699219 0.0105819702
vn 0.670410156 -0.7421875 -0.0105819702
vn 0.670410156 -0.7421875 -0.0105819702
vn 0.670410156 -0.7421875 -0.0105819702
vn 0.670410156 -0.7421875 -0.0105819702
vn -0.0157775879 0 -1
vn -0.0157775879 0 -1
vn -0.0157775879 0 -1
vn -0.0157775879 0 -1
vn 0.0157775879 0 1
vn 0.0157775879 0 1
vn 0.0157775879 0 1
vn 0.0157775879 0 1
vn -0 -1 0
vn -0 -1 0
vn -0 -1 0
vn -0 -1 0
vn 1 0 -0.0157775879
vn 1 0 -0.0157775879
vn 1 0 -0.0157775879
vn 1 0 -0.0157775879
vn -0.0157775879 -7.15255737E-07 -1
vn -0.0157775879 -7.15255737E-07 -1
vn -0.0157775879 -7.15255737E-07 -1
vn -0.0157775879 -7.15255737E-07 -1
vn 0.0157775879 0 1
vn 0.0157775879 0 1
vn 0.0157775879 0 1
vn 0.0157775879 0 1
vn -0.670410156 0.741699219 0.0105819702
vn -0.670410156 0.741699219 0.0105819702
vn -0.670410156 0.741699219 0.0105819702
vn -0.670410156 0.741699219 0.0105819702
vn 0.670410156 -0.7421875 -0.0105819702
vn 0.670410156 -0.7421875 -0.0105819702
vn 0.670410156 -0.7421875 -0.0105819702
vn 0.670410156 -0.7421875 -0.0105819702
vn -0.0157775879 0 -1
vn -0.0157775879 0 -1
vn -0.0157775879 0 -1
vn -0.0157775879 0 -1
vn 0.0157775879 0 1
vn 0.0157775879 0 1
vn 0.0157775879 0 1
vn 0.0157775879 0 1
vn -0 -1 0
vn -0 -1 0
vn -0 -1 0
vn -0 -1 0
vn 1 0 -0.0157775879
vn 1 0 -0.0157775879
vn 1 0 -0.0157775879
vn 1 0 -0.0157775879
g RodRoom_Shelf_0
f 3/3/3 2/2/2 1/1/1
f 4/4/4 3/3/3 1/1/1
f 7/7/7 6/6/6 5/5/5
f 8/8/8 7/7/7 5/5/5
f 11/11/11 10/10/10 9/9/9
f 12/12/12 11/11/11 9/9/9
f 15/15/15 14/14/14 13/13/13
f 16/16/16 15/15/15 13/13/13
f 19/19/19 18/18/18 17/17/17
f 20/20/20 19/19/19 17/17/17
f 23/23/23 22/22/22 21/21/21
f 24/24/24 23/23/23 21/21/21
f 27/27/27 26/26/26 25/25/25
f 28/28/28 27/27/27 25/25/25
f 31/31/31 30/30/30 29/29/29
f 32/32/32 31/31/31 29/29/29
f 35/35/35 34/34/34 33/33/33
f 36/36/36 35/35/35 33/33/33
f 39/39/39 38/38/38 37/37/37
f 40/40/40 39/39/39 37/37/37
f 43/43/43 42/42/42 41/41/41
f 44/44/44 43/43/43 41/41/41
f 47/47/47 46/46/46 45/45/45
f 48/48/48 47/47/47 45/45/45
f 51/51/51 50/50/50 49/49/49
f 52/52/52 51/51/51 49/49/49
f 55/55/55 54/54/54 53/53/53
f 56/56/56 55/55/55 53/53/53
f 59/59/59 58/58/58 57/57/57
f 60/60/60 59/59/59 57/57/57
f 63/63/63 62/62/62 61/61/61
f 64/64/64 63/63/63 61/61/61
f 67/67/67 66/66/66 65/65/65
f 68/68/68 67/67/67 65/65/65
f 71/71/71 70/70/70 69/69/69
f 72/72/72 71/71/71 69/69/69
f 75/75/75 74/74/74 73/73/73
f 76/76/76 75/75/75 73/73/73
f 79/79/79 78/78/78 77/77/77
f 80/80/80 79/79/79 77/77/77
f 83/83/83 82/82/82 81/81/81
f 84/84/84 83/83/83 81/81/81
