g FridgeLetters_B
v -0.0308692213 0.0534229279 -0.00426025363
v -0.00958992448 -0.0256665796 -0.00426025363
v -0.00958992448 0.0256667323 -0.00426025363
v -0.0308692213 0.0534229279 -0.00426025363
v -0.00958992448 0.0256667323 -0.00426025363
v 0.00113255077 0.0264387839 -0.00426025363
v 0.000976482581 0.0528874435 -0.00426025363
v 0.00474555604 0.0252569094 -0.00426025363
v 0.0180370286 0.0456255265 -0.00426025363
v 0.00657714764 0.0182715375 -0.00426025363
v 0.0291075222 0.0319181122 -0.00426025363
v 0.00389328646 0.0105399666 -0.00426025363
v 0.0308604669 0.0168531705 -0.00426025363
v 0.0105147082 7.62939436E-08 -0.00426025363
v 0.0105147082 7.62939436E-08 -0.00426025363
v 0.00389328646 0.0105399666 -0.00426025363
v -0.010154238 7.62939436E-08 -0.00426025363
v 0.00392545154 -0.0105448849 -0.00426025363
v 0.0278490726 0.0308490694 0.00426025363
v 0.0291075222 0.0319181122 -0.00426025363
v 0.0308604669 0.0168531705 -0.00426025363
v 0.0293873716 0.0164532475 0.00426025363
v 0.0173632 0.0440141857 0.00426025363
v 0.0291075222 0.0319181122 -0.00426025363
v 0.0278490726 0.0308490694 0.00426025363
v 0.0180370286 0.0456255265 -0.00426025363
v 0.000905681809 0.0510188192 0.00426025363
v 0.000976482581 0.0528874435 -0.00426025363
v -0.0290015452 0.0517981723 0.00426025363
v -0.0308692213 0.0534229279 -0.00426025363
v 0.0293985214 -0.016471006 0.00426025363
v 0.0308692195 -0.0168714728 -0.00426025363
v 0.0291080866 -0.03192297 -0.00426025363
v 0.0278514959 -0.0308547467 0.00426025363
v 0.0180370286 -0.045617301 -0.00426025363
v 0.0173632 -0.0440078527 0.00426025363
v 0.000976482581 -0.0528826118 -0.00426025363
v 0.000905681809 -0.051014252 0.00426025363
v -0.0308692213 -0.0534229279 -0.00426025363
v -0.0290015452 -0.0517981723 0.00426025363
v 0.0293873716 0.0164532475 0.00426025363
v 0.0308604669 0.0168531705 -0.00426025363
v 0.0105147082 7.62939436E-08 -0.00426025363
v 0.00886431802 7.62939436E-08 0.00426025363
v 0.00833445322 0.0186730921 0.00426025363
v 0.00474555604 0.0252569094 -0.00426025363
v 0.00626343582 0.0258965064 0.00426025363
v 0.00657714764 0.0182715375 -0.00426025363
v 0.00571594993 0.0106791481 0.00426025363
v 0.00389328646 0.0105399666 -0.00426025363
v -0.010154238 7.62939436E-08 -0.00426025363
v -0.00885296799 7.62939436E-08 0.00426025363
v 0.00626343582 0.0258965064 0.00426025363
v 0.00474555604 0.0252569094 -0.00426025363
v 0.00113255077 0.0264387839 -0.00426025363
v 0.0013523188 0.0274525061 0.00426025363
v -0.00958992448 0.0256667323 -0.00426025363
v -0.0114722485 0.0269307699 0.00426025363
v -0.0114722485 -0.0269307699 0.00426025363
v -0.00958992448 -0.0256665796 -0.00426025363
v 0.00113255077 -0.026438633 -0.00426025363
v 0.0013523188 -0.0274495352 0.00426025363
v 0.00476767775 -0.0252512284 -0.00426025363
v 0.006285863 -0.0258898158 0.00426025363
v 0.006285863 -0.0258898158 0.00426025363
v 0.00476767775 -0.0252512284 -0.00426025363
v 0.00660342164 -0.0182705 -0.00426025363
v 0.00837136712 -0.0186694358 0.00426025363
v 0.00392545154 -0.0105448849 -0.00426025363
v 0.00576723367 -0.0106808376 0.00426025363
v -0.010154238 7.62939436E-08 -0.00426025363
v -0.00885296799 7.62939436E-08 0.00426025363
v 0.00392545154 -0.0105448849 -0.00426025363
v 0.0308692195 -0.0168714728 -0.00426025363
v 0.0105147082 7.62939436E-08 -0.00426025363
v 0.00660342164 -0.0182705 -0.00426025363
v 0.0291080866 -0.03192297 -0.00426025363
v 0.00476767775 -0.0252512284 -0.00426025363
v 0.0180370286 -0.045617301 -0.00426025363
v 0.00113255077 -0.026438633 -0.00426025363
v 0.000976482581 -0.0528826118 -0.00426025363
v -0.00958992448 -0.0256665796 -0.00426025363
v -0.0308692213 -0.0534229279 -0.00426025363
v -0.0308692213 0.0534229279 -0.00426025363
v 0.0105147082 7.62939436E-08 -0.00426025363
v 0.0308692195 -0.0168714728 -0.00426025363
v 0.0293985214 -0.016471006 0.00426025363
v 0.00886431802 7.62939436E-08 0.00426025363
v -0.0308692213 0.0534229279 -0.00426025363
v -0.0290015452 0.0517981723 0.00426025363
v -0.0290015452 -0.0517981723 0.00426025363
v -0.0308692213 -0.0534229279 -0.00426025363
v -0.0114722485 0.0269307699 0.00426025363
v -0.00958992448 0.0256667323 -0.00426025363
v -0.00958992448 -0.0256665796 -0.00426025363
v -0.0114722485 -0.0269307699 0.00426025363
v 0.00571594993 0.0106791481 0.00426025363
v 0.00886431802 7.62939436E-08 0.00426025363
v -0.00885296799 7.62939436E-08 0.00426025363
v 0.00576723367 -0.0106808376 0.00426025363
v 0.0293873716 0.0164532475 0.00426025363
v 0.0293985214 -0.016471006 0.00426025363
v 0.00833445322 0.0186730921 0.00426025363
v 0.0278514959 -0.0308547467 0.00426025363
v 0.0278490726 0.0308490694 0.00426025363
v 0.00837136712 -0.0186694358 0.00426025363
v 0.00626343582 0.0258965064 0.00426025363
v 0.0173632 -0.0440078527 0.00426025363
v 0.0173632 0.0440141857 0.00426025363
v 0.006285863 -0.0258898158 0.00426025363
v 0.0013523188 0.0274525061 0.00426025363
v 0.000905681809 -0.051014252 0.00426025363
v 0.000905681809 0.0510188192 0.00426025363
v 0.0013523188 -0.0274495352 0.00426025363
v -0.0114722485 0.0269307699 0.00426025363
v -0.0290015452 0.0517981723 0.00426025363
v -0.0290015452 -0.0517981723 0.00426025363
v -0.0114722485 -0.0269307699 0.00426025363
vt 0.505859375 0.858398438
vt 0.514160156 0.829101562
vt 0.50390625 0.849121094
vt 0.505859375 0.858398438
vt 0.50390625 0.849121094
vt 0.499511719 0.847167969
vt 0.496337891 0.853027344
vt 0.496337891 0.845214844
vt 0.491455078 0.849609375
vt 0.494873047 0.842285156
vt 0.489013672 0.844238281
vt 0.495605469 0.837890625
vt 0.489746094 0.837890625
vt 0.492675781 0.830566406
vt 0.492675781 0.830566406
vt 0.495605469 0.837890625
vt 0.497802734 0.833496094
vt 0.500488281 0.829101562
vt 0.502929688 0.821777344
vt 0.501953125 0.819335938
vt 0.496337891 0.823242188
vt 0.497802734 0.825195312
vt 0.5078125 0.821289062
vt 0.501953125 0.819335938
vt 0.502929688 0.821777344
vt 0.508300781 0.819335938
vt 0.512207031 0.823242188
vt 0.513671875 0.821289062
vt 0.519042969 0.828613281
vt 0.521484375 0.828125
vt 0.490966797 0.837402344
vt 0.488525391 0.836914062
vt 0.488769531 0.84375
vt 0.490966797 0.843261719
vt 0.491699219 0.849121094
vt 0.493408203 0.84765625
vt 0.496826172 0.853027344
vt 0.497802734 0.850585938
vt 0.507324219 0.85546875
vt 0.505859375 0.853515625
vt 0.497802734 0.825195312
vt 0.496337891 0.823242188
vt 0.491210938 0.829589844
vt 0.493408203 0.830566406
vt 0.502929688 0.826171875
vt 0.506347656 0.827636719
vt 0.506347656 0.825683594
vt 0.503417969 0.828125
vt 0.499511719 0.828613281
vt 0.500976562 0.830078125
vt 0.498779297 0.833496094
vt 0.496826172 0.832519531
vt 0.506347656 0.825683594
vt 0.506347656 0.827636719
vt 0.508789062 0.829101562
vt 0.509765625 0.827148438
vt 0.511230469 0.831054688
vt 0.513671875 0.831054688
vt 0.504882812 0.84765625
vt 0.503417969 0.845703125
vt 0.5 0.844238281
vt 0.499511719 0.846679688
vt 0.497802734 0.842773438
vt 0.496337891 0.844238281
vt 0.496337891 0.844238281
vt 0.497802734 0.842773438
vt 0.496826172 0.840820312
vt 0.494628906 0.841308594
vt 0.497070312 0.837402344
vt 0.494873047 0.836914062
vt 0.498779297 0.833496094
vt 0.496826172 0.832519531
vt 0.500488281 0.829101562
vt 0.496582031 0.82421875
vt 0.492675781 0.830566406
vt 0.503417969 0.825683594
vt 0.501464844 0.819824219
vt 0.506835938 0.825195312
vt 0.507324219 0.818847656
vt 0.510253906 0.826660156
vt 0.513183594 0.820800781
vt 0.514160156 0.829101562
vt 0.521972656 0.826660156
vt 0.505859375 0.858398438
vt 0.491210938 0.829589844
vt 0.488525391 0.836914062
vt 0.490966797 0.837402344
vt 0.493408203 0.830566406
vt 0.521484375 0.828125
vt 0.519042969 0.828613281
vt 0.505859375 0.853515625
vt 0.507324219 0.85546875
vt 0.513671875 0.831054688
vt 0.511230469 0.831054688
vt 0.503417969 0.845703125
vt 0.504882812 0.84765625
vt 0.499511719 0.828613281
vt 0.493408203 0.830566406
vt 0.496826172 0.832519531
vt 0.494873047 0.836914062
vt 0.497802734 0.825195312
vt 0.490966797 0.837402344
vt 0.502929688 0.826171875
vt 0.490966797 0.843261719
vt 0.502929688 0.821777344
vt 0.494628906 0.841308594
vt 0.506347656 0.825683594
vt 0.493408203 0.84765625
vt 0.5078125 0.821289062
vt 0.496337891 0.844238281
vt 0.509765625 0.827148438
vt 0.497802734 0.850585938
vt 0.512207031 0.823242188
vt 0.499511719 0.846679688
vt 0.513671875 0.831054688
vt 0.519042969 0.828613281
vt 0.505859375 0.853515625
vt 0.504882812 0.84765625
vn -0 0 -1
vn -0 0 -1
vn -0 0 -1
vn -0 0 -1
vn -0 0 -1
vn -0 0 -1
vn -0 0 -1
vn -0 0 -1
vn -0 0 -1
vn -0 0 -1
vn -0 0 -1
vn -0 0 -1
vn -0 0 -1
vn -0 0 -1
vn -0 0 -1
vn -0 0 -1
vn -0 0 -1
vn -0 0 -1
vn 0.425537109 0.292724609 0.856445312
vn 0.807128906 0.559082031 0.189575195
vn 0.9609375 0.206665039 0.184814453
vn 0.504882812 0.106506348 0.856445312
vn 0.189941406 0.437011719 0.879394531
vn 0.807128906 0.559082031 0.189575195
vn 0.425537109 0.292724609 0.856445312
vn 0.392089844 0.899902344 0.190063477
vn 0.0217590332 0.422363281 0.90625
vn 0.0500793457 0.980957031 0.186645508
vn -0.648925781 0.193481445 0.735839844
vn -0.929199219 0.267333984 0.254638672
vn 0.505371094 -0.106506348 0.856445312
vn 0.960449219 -0.206665039 0.186523438
vn 0.802734375 -0.564941406 0.190063477
vn 0.421142578 -0.294433594 0.857910156
vn 0.392089844 -0.899902344 0.190063477
vn 0.189941406 -0.437011719 0.879394531
vn 0.0500793457 -0.980957031 0.186645508
vn 0.0217590332 -0.422363281 0.90625
vn -0.929199219 -0.267333984 0.254638672
vn -0.648925781 -0.193481445 0.735839844
vn 0.504882812 0.106506348 0.856445312
vn 0.9609375 0.206665039 0.184814453
vn 0.982421875 0.00794219971 0.186157227
vn 0.512695312 0.00423431396 0.858398438
vn -0.176757812 -0.114196777 0.977539062
vn -0.356689453 -0.921875 0.150512695
vn -0.0686645508 -0.176513672 0.981933594
vn -0.83203125 -0.533691406 0.150512695
vn -0.273193359 -0.0506591797 0.960449219
vn -0.973144531 -0.176879883 0.145996094
vn -0.989257812 -0.00593566895 0.147094727
vn -0.297363281 -0.00176143646 0.954589844
vn -0.0686645508 -0.176513672 0.981933594
vn -0.356689453 -0.921875 0.150512695
vn 0.00584411621 -0.98828125 0.15222168
vn 0.00101184845 -0.190063477 0.981933594
vn 0.946289062 -0.216430664 0.239257812
vn 0.135742188 -0.0288696289 0.990234375
vn 0.135742188 0.0288696289 0.990234375
vn 0.946289062 0.216430664 0.239257812
vn 0.00584411621 0.98828125 0.15222168
vn 0.00101184845 0.190063477 0.981933594
vn -0.356689453 0.921875 0.150512695
vn -0.0686645508 0.176513672 0.981933594
vn -0.0686645508 0.176513672 0.981933594
vn -0.356689453 0.921875 0.150512695
vn -0.828613281 0.5390625 0.151123047
vn -0.17578125 0.11517334 0.977539062
vn -0.973144531 0.176757812 0.147338867
vn -0.269287109 0.0499572754 0.961914062
vn -0.989257812 -0.00593566895 0.147094727
vn -0.297363281 -0.00176143646 0.954589844
vn -0 0 -1
vn -0 0 -1
vn -0 0 -1
vn -0 0 -1
vn -0 0 -1
vn -0 0 -1
vn -0 0 -1
vn -0 0 -1
vn -0 0 -1
vn -0 0 -1
vn -0 0 -1
vn -0 0 -1
vn 0.982421875 0.00794219971 0.186157227
vn 0.960449219 -0.206665039 0.186523438
vn 0.505371094 -0.106506348 0.856445312
vn 0.512695312 0.00423431396 0.858398438
vn -0.929199219 0.267333984 0.254638672
vn -0.648925781 0.193481445 0.735839844
vn -0.648925781 -0.193481445 0.735839844
vn -0.929199219 -0.267333984 0.254638672
vn 0.135742188 -0.0288696289 0.990234375
vn 0.946289062 -0.216430664 0.239257812
vn 0.946289062 0.216430664 0.239257812
vn 0.135742188 0.0288696289 0.990234375
vn -0.273193359 -0.0506591797 0.960449219
vn 0.512695312 0.00423431396 0.858398438
vn -0.297363281 -0.00176143646 0.954589844
vn -0.269287109 0.0499572754 0.961914062
vn 0.504882812 0.106506348 0.856445312
vn 0.505371094 -0.106506348 0.856445312
vn -0.176757812 -0.114196777 0.977539062
vn 0.421142578 -0.294433594 0.857910156
vn 0.425537109 0.292724609 0.856445312
vn -0.17578125 0.11517334 0.977539062
vn -0.0686645508 -0.176513672 0.981933594
vn 0.189941406 -0.437011719 0.879394531
vn 0.189941406 0.437011719 0.879394531
vn -0.0686645508 0.176513672 0.981933594
vn 0.00101184845 -0.190063477 0.981933594
vn 0.0217590332 -0.422363281 0.90625
vn 0.0217590332 0.422363281 0.90625
vn 0.00101184845 0.190063477 0.981933594
vn 0.135742188 -0.0288696289 0.990234375
vn -0.648925781 0.193481445 0.735839844
vn -0.648925781 -0.193481445 0.735839844
vn 0.135742188 0.0288696289 0.990234375
g FridgeLetters_B_0
f 3/3/3 2/2/2 1/1/1
f 6/6/6 5/5/5 4/4/4
f 7/7/7 6/6/6 4/4/4
f 8/8/8 6/6/6 7/7/7
f 9/9/9 8/8/8 7/7/7
f 10/10/10 8/8/8 9/9/9
f 11/11/11 10/10/10 9/9/9
f 12/12/12 10/10/10 11/11/11
f 13/13/13 12/12/12 11/11/11
f 12/12/12 13/13/13 14/14/14
f 17/17/17 16/16/16 15/15/15
f 17/17/17 15/15/15 18/18/18
f 21/21/21 20/20/20 19/19/19
f 22/22/22 21/21/21 19/19/19
f 25/25/25 24/24/24 23/23/23
f 24/24/24 26/26/26 23/23/23
f 23/23/23 26/26/26 27/27/27
f 26/26/26 28/28/28 27/27/27
f 27/27/27 28/28/28 29/29/29
f 28/28/28 30/30/30 29/29/29
f 33/33/33 32/32/32 31/31/31
f 34/34/34 33/33/33 31/31/31
f 35/35/35 33/33/33 34/34/34
f 36/36/36 35/35/35 34/34/34
f 37/37/37 35/35/35 36/36/36
f 38/38/38 37/37/37 36/36/36
f 39/39/39 37/37/37 38/38/38
f 40/40/40 39/39/39 38/38/38
f 43/43/43 42/42/42 41/41/41
f 44/44/44 43/43/43 41/41/41
f 47/47/47 46/46/46 45/45/45
f 46/46/46 48/48/48 45/45/45
f 45/45/45 48/48/48 49/49/49
f 48/48/48 50/50/50 49/49/49
f 49/49/49 50/50/50 51/51/51
f 52/52/52 49/49/49 51/51/51
f 55/55/55 54/54/54 53/53/53
f 56/56/56 55/55/55 53/53/53
f 57/57/57 55/55/55 56/56/56
f 58/58/58 57/57/57 56/56/56
f 61/61/61 60/60/60 59/59/59
f 62/62/62 61/61/61 59/59/59
f 63/63/63 61/61/61 62/62/62
f 64/64/64 63/63/63 62/62/62
f 67/67/67 66/66/66 65/65/65
f 68/68/68 67/67/67 65/65/65
f 69/69/69 67/67/67 68/68/68
f 70/70/70 69/69/69 68/68/68
f 71/71/71 69/69/69 70/70/70
f 72/72/72 71/71/71 70/70/70
f 75/75/75 74/74/74 73/73/73
f 76/76/76 73/73/73 74/74/74
f 77/77/77 76/76/76 74/74/74
f 78/78/78 76/76/76 77/77/77
f 79/79/79 78/78/78 77/77/77
f 80/80/80 78/78/78 79/79/79
f 81/81/81 80/80/80 79/79/79
f 82/82/82 80/80/80 81/81/81
f 83/83/83 82/82/82 81/81/81
f 82/82/82 83/83/83 84/84/84
f 87/87/87 86/86/86 85/85/85
f 88/88/88 87/87/87 85/85/85
f 91/91/91 90/90/90 89/89/89
f 92/92/92 91/91/91 89/89/89
f 95/95/95 94/94/94 93/93/93
f 96/96/96 95/95/95 93/93/93
f 99/99/99 98/98/98 97/97/97
f 99/99/99 100/100/100 98/98/98
f 98/98/98 101/101/101 97/97/97
f 100/100/100 102/102/102 98/98/98
f 103/103/103 97/97/97 101/101/101
f 102/102/102 100/100/100 104/104/104
f 105/105/105 103/103/103 101/101/101
f 100/100/100 106/106/106 104/104/104
f 107/107/107 103/103/103 105/105/105
f 104/104/104 106/106/106 108/108/108
f 109/109/109 107/107/107 105/105/105
f 106/106/106 110/110/110 108/108/108
f 111/111/111 107/107/107 109/109/109
f 108/108/108 110/110/110 112/112/112
f 113/113/113 111/111/111 109/109/109
f 110/110/110 114/114/114 112/112/112
f 115/115/115 111/111/111 113/113/113
f 116/116/116 115/115/115 113/113/113
f 112/112/112 114/114/114 117/117/117
f 116/116/116 117/117/117 115/115/115
f 114/114/114 118/118/118 117/117/117
f 117/117/117 118/118/118 115/115/115
