g Enclosure_Cloth_12
v -0.0117333978 -0.993847787 -0.535020113
v 0.0117333978 -0.993847787 0.0180352777
v 0.0117333978 -0.993847787 -0.535020113
v -0.0117333978 -0.993847787 0.0180352777
v 0.0117333978 -0.993847787 0.535020113
v -0.0117333978 -0.993847787 0.535020113
v 0.0117333978 0.993847787 -0.535020113
v -0.0117333978 0.923992753 0.0180352777
v -0.0117333978 0.993847787 -0.535020113
v 0.0117333978 0.923992753 0.0180352777
v -0.0117333978 0.993847787 0.535020113
v 0.0117333978 0.993847787 0.535020113
v 0.0117333978 0.0445163324 -0.535020113
v 0.0117333978 -0.993847787 -0.535020113
v 0.0117333978 -0.993847787 0.0180352777
v 0.0117333978 0.0445166379 0.0180352777
v 0.0117333978 0.993847787 -0.535020113
v 0.0117333978 0.923992753 0.0180352777
v 0.0117333978 0.0445169434 0.535020113
v 0.0117333978 -0.993847787 0.535020113
v 0.0117333978 0.993847787 0.535020113
v -0.0117333978 0.0445170961 0.535020113
v -0.0117333978 -0.993847787 0.535020113
v -0.0117333978 -0.993847787 0.0180352777
v -0.0117333978 0.0445170961 0.0180377197
v -0.0117333978 -0.993847787 -0.535020113
v -0.0117333978 0.0445170961 -0.535014033
v -0.0117333978 0.993847787 -0.535020113
v -0.0117333978 0.923992753 0.0180352777
v -0.0117333978 0.993847787 0.535020113
vt 0.714355469 0.51953125
vt 0.560546875 0.512207031
vt 0.714355469 0.512207031
vt 0.560546875 0.51953125
vt 0.416992188 0.512207031
vt 0.416992188 0.51953125
vt 0.714355469 0.505859375
vt 0.560546875 0.498535156
vt 0.714355469 0.498535156
vt 0.560546875 0.505859375
vt 0.416992188 0.498535156
vt 0.416992188 0.505859375
vt 0.714355469 0.749023438
vt 0.714355469 0.488525391
vt 0.560058594 0.488525391
vt 0.560058594 0.749023438
vt 0.714355469 0.987304688
vt 0.560058594 0.987304688
vt 0.415771484 0.749023438
vt 0.415771484 0.488525391
vt 0.415771484 0.987304688
vt 0.415771484 0.749023438
vt 0.415771484 0.488525391
vt 0.560058594 0.488525391
vt 0.560058594 0.749023438
vt 0.714355469 0.488525391
vt 0.714355469 0.749023438
vt 0.714355469 0.987304688
vt 0.560058594 0.987304688
vt 0.415771484 0.987304688
vn -0 -1 0
vn -0 -1 0
vn -0 -1 0
vn -0 -1 0
vn -0 -1 0
vn -0 -1 0
vn -0 0.9921875 0.125366211
vn -0 1 0
vn -0 0.9921875 0.125366211
vn -0 1 0
vn -0 0.991210938 -0.133911133
vn -0 0.991210938 -0.133911133
vn 1 0 0
vn 1 0 0
vn 1 0 0
vn 1 0 0
vn 1 0 0
vn 1 0 0
vn 1 0 0
vn 1 0 0
vn 1 0 0
vn -1 0 0
vn -1 0 0
vn -1 -5.36441803E-07 0
vn -1 7.74860382E-07 0
vn -1 -1.01327896E-06 0
vn -1 1.54972076E-06 0
vn -1 1.54972076E-06 0
vn -1 7.74860382E-07 0
vn -1 0 0
g Enclosure_Cloth_12_0
f 3/3/3 2/2/2 1/1/1
f 2/2/2 4/4/4 1/1/1
f 2/2/2 5/5/5 4/4/4
f 5/5/5 6/6/6 4/4/4
f 9/9/9 8/8/8 7/7/7
f 8/8/8 10/10/10 7/7/7
f 8/8/8 11/11/11 10/10/10
f 11/11/11 12/12/12 10/10/10
f 15/15/15 14/14/14 13/13/13
f 16/16/16 15/15/15 13/13/13
f 16/16/16 13/13/13 17/17/17
f 18/18/18 16/16/16 17/17/17
f 16/16/16 19/19/19 15/15/15
f 19/19/19 16/16/16 18/18/18
f 19/19/19 20/20/20 15/15/15
f 21/21/21 19/19/19 18/18/18
f 24/24/24 23/23/23 22/22/22
f 25/25/25 24/24/24 22/22/22
f 26/26/26 24/24/24 25/25/25
f 27/27/27 26/26/26 25/25/25
f 27/27/27 25/25/25 28/28/28
f 25/25/25 29/29/29 28/28/28
f 25/25/25 22/22/22 29/29/29
f 22/22/22 30/30/30 29/29/29
