g IS4_MDL_EscenarioGaraje_Estatua_Paredes_16
v -1.06234181 -1.33947277 -0.016749572
v 1.04630077 -1.33947289 0.32883805
v 1.06234074 0.474219799 0.148526832
v -0.913401365 0.473956913 -0.169149086
v -0.913401365 0.473956913 -0.169149086
v 1.06234074 0.474219799 0.148526832
v 1.05945015 1.33886874 -0.0196543112
v -0.756428719 1.33947289 -0.328837961
vt 0.98828125 0.0161132812
vt 0.691894531 0.0161132812
vt 0.691894531 0.463623047
vt 0.98828125 0.463623047
vt 0.98828125 0.524902344
vt 0.691894531 0.524902344
vt 0.691894531 0.307617188
vt 0.98828125 0.307373047
vn 0.159423828 -0.0947265625 -0.982421875
vn 0.159423828 -0.0947265625 -0.982421875
vn 0.159667969 -0.125610352 -0.979003906
vn 0.159667969 -0.12322998 -0.979492188
vn 0.159667969 -0.12322998 -0.979492188
vn 0.159667969 -0.125610352 -0.979003906
vn 0.164428711 -0.198120117 -0.966308594
vn 0.1640625 -0.198120117 -0.966308594
g IS4_MDL_EscenarioGaraje_Estatua_Paredes_16_0
f 3/3/3 2/2/2 1/1/1
f 4/4/4 3/3/3 1/1/1
f 7/7/7 6/6/6 5/5/5
f 8/8/8 7/7/7 5/5/5
