g IS5_MDL_Tank_Pipe_2
v 0.828746915 0.799789131 -1.45995283
v 0.828751802 0.7981143 -1.17764008
v 0.029176645 1.12847435 -1.17764211
v 0.029181527 1.13083529 -1.45995486
v -0.77039367 0.798116148 -1.17764008
v -0.770383894 0.799790919 -1.45995283
v -0.770383894 0.799790919 -1.45995283
v -0.77039367 0.798116148 -1.17764008
v -1.1017853 1.27850853E-05 -1.17763567
v -1.1017853 1.1259207E-05 -1.45994997
v -1.1017853 1.1259207E-05 -1.45994997
v -1.1017853 1.27850853E-05 -1.17763567
v -0.770418048 -0.798081636 -1.17763174
v -0.770403445 -0.79975003 -1.45994675
v -0.770403445 -0.79975003 -1.45994675
v -0.770418048 -0.798081636 -1.17763174
v 0.029176645 -1.12849605 -1.17763102
v 0.029181527 -1.13086021 -1.4599452
v 0.828771353 -0.798080444 -1.17763174
v 0.82877624 -0.79974699 -1.45994675
v 0.82877624 -0.79974699 -1.45994675
v 0.828771353 -0.798080444 -1.17763174
v 1.16013849 7.90227205E-06 -1.17763567
v 1.16013849 1.37006127E-05 -1.45994997
v 1.16013849 1.37006127E-05 -1.45994997
v 1.16013849 7.90227205E-06 -1.17763567
v 0.828751802 0.7981143 -1.17764008
v 0.828746915 0.799789131 -1.45995283
v 0.160636619 0.608330965 3.44945884
v 0.83384949 8.83229802E-07 3.9164772
v 0.0229168795 8.83229802E-07 3.6604774
v 0.868546724 0.608330965 3.67235684
v 2.07453299 8.83229802E-07 3.94304585
v 2.07453299 0.608330965 3.69114351
v 0.0229168795 8.83229802E-07 3.6604774
v 0.83384949 8.83229802E-07 3.9164772
v 0.868546724 -0.608328581 3.67235732
v 0.160636619 -0.608328581 3.44945955
v -0.541013777 1.18840558E-06 2.89961457
v -0.332058698 -0.608328283 2.78953147
v 0.493092626 -0.860306382 2.94002223
v -0.831130981 8.83229802E-07 2.09012437
v 0.172384664 -0.860306382 2.52377582
v -0.579158306 -0.608328283 2.09012437
v -0.831130981 8.83229802E-07 -1.15802276
v 0.029181527 -0.860306084 2.09012437
v -0.572966933 -0.611528933 -1.15801978
v 0.0353680514 -0.862814903 -1.15801871
v 0.825568199 -0.608328283 2.43057728
v 1.07074404 8.83229802E-07 2.24953675
v 0.96328795 8.83229802E-07 2.21956396
v 1.03605652 -0.608328283 2.49365091
v 2.07453299 8.83229802E-07 2.22296739
v 2.07453299 -0.608328283 2.47486305
v 0.96328795 8.83229802E-07 2.21956396
v 1.03605652 0.608330965 2.49365067
v 0.825568199 0.608330965 2.4305768
v 1.07074404 8.83229802E-07 2.24953675
v 2.07453299 0.608330965 2.47486281
v 2.07453299 8.83229802E-07 2.22296739
v 1.03605652 0.608330965 2.49365067
v 2.07453299 0.608330965 2.47486281
v 2.07453299 0.860310316 3.08300376
v 0.952291846 0.860310316 3.08300376
v 0.825568199 0.608330965 2.4305768
v 0.493092626 0.860310316 2.94002223
v 0.676832855 0.608330965 2.25801349
v 0.172384664 0.860310316 2.52377582
v 0.637516439 0.608330965 2.09012437
v 0.029181527 0.860310316 2.09012461
v 0.637516439 0.60665977 -1.15802574
v 0.029181527 0.857947648 -1.15802693
v 0.952291846 0.860310316 3.08300376
v 2.07453299 0.860310316 3.08300376
v 2.07453299 0.608330965 3.69114351
v 0.868546724 0.608330965 3.67235684
v 0.493092626 0.860310316 2.94002223
v 0.160636619 0.608330965 3.44945884
v 0.172384664 0.860310316 2.52377582
v -0.332058698 0.608330965 2.78953218
v 0.0229168795 8.83229802E-07 3.6604774
v 0.029181527 0.860310316 2.09012461
v -0.541013777 1.18840558E-06 2.89961457
v -0.579158306 0.608330965 2.09012437
v 0.029181527 0.857947648 -1.15802693
v -0.831130981 8.83229802E-07 2.09012437
v -0.579158306 0.60665977 -1.15802574
v -0.831130981 8.83229802E-07 -1.15802276
v 0.83384949 8.83229802E-07 3.9164772
v 2.07453299 8.83229802E-07 3.94304585
v 2.07453299 -0.608328581 3.69114399
v 0.868546724 -0.608328581 3.67235732
v 0.868546724 -0.608328581 3.67235732
v 2.07453299 -0.608328581 3.69114399
v 2.07453299 -0.860306382 3.08300376
v 0.952291846 -0.860306382 3.08300376
v 0.160636619 -0.608328581 3.44945955
v 2.07453299 -0.608328283 2.47486305
v 1.03605652 -0.608328283 2.49365091
v 0.493092626 -0.860306382 2.94002223
v 0.825568199 -0.608328283 2.43057728
v 0.172384664 -0.860306382 2.52377582
v 0.676832855 -0.608328283 2.25801373
v 0.029181527 -0.860306084 2.09012437
v 0.637516439 -0.608328283 2.09012437
v 0.0353680514 -0.862814903 -1.15801871
v 0.637516439 -0.606657743 -1.15801978
v 2.07453299 0.608330965 3.69114351
v 2.07453299 8.83229802E-07 4.23224258
v 2.07453299 8.83229802E-07 3.94304585
v 2.07453299 0.812887847 3.8956368
v 2.07453299 0.860310316 3.08300376
v 2.07453299 1.14959681 3.08300376
v 2.07453299 0.608330965 2.47486281
v 2.07453299 0.812887847 2.27037001
v 2.07453299 8.83229802E-07 2.22296739
v 2.07453299 1.18840558E-06 1.93377054
v 2.07453299 8.83229802E-07 3.94304585
v 2.07453299 8.83229802E-07 4.23224258
v 2.07453299 -0.812884808 3.8956368
v 2.07453299 -0.608328581 3.69114399
v 2.07453299 -1.14959252 3.08300376
v 2.07453299 -0.860306382 3.08300376
v 2.07453299 -0.81288451 2.27037001
v 2.07453299 -0.608328283 2.47486305
v 2.07453299 1.18840558E-06 1.93377054
v 2.07453299 8.83229802E-07 2.22296739
v 2.07453299 0.812887847 2.27037001
v 2.5291326 0.812887847 2.27037001
v 2.5291326 1.14959681 3.08300376
v 2.07453299 1.14959681 3.08300376
v 2.5291326 0.812887847 3.8956368
v 2.07453299 0.812887847 3.8956368
v 2.07453299 0.812887847 3.8956368
v 2.5291326 0.812887847 3.8956368
v 2.5291326 8.83229802E-07 4.23224258
v 2.07453299 8.83229802E-07 4.23224258
v 2.07453299 8.83229802E-07 4.23224258
v 2.5291326 8.83229802E-07 4.23224258
v 2.5291326 -0.812884808 3.8956368
v 2.07453299 -0.812884808 3.8956368
v 2.07453299 -0.812884808 3.8956368
v 2.5291326 -0.812884808 3.8956368
v 2.5291326 -1.14959252 3.08300376
v 2.07453299 -1.14959252 3.08300376
v 2.5291326 -0.81288451 2.27037001
v 2.07453299 -0.81288451 2.27037001
v 2.07453299 -0.81288451 2.27037001
v 2.5291326 -0.81288451 2.27037001
v 2.5291326 1.18840558E-06 1.93377054
v 2.07453299 1.18840558E-06 1.93377054
v 2.07453299 1.18840558E-06 1.93377054
v 2.5291326 1.18840558E-06 1.93377054
v 2.5291326 0.812887847 2.27037001
v 2.07453299 0.812887847 2.27037001
v 0.885778189 8.83229802E-07 2.14793539
v 0.96328795 8.83229802E-07 2.21956396
v 0.825568199 0.608330965 2.4305768
v 0.676832855 0.608330965 2.25801349
v 0.889489114 8.83229802E-07 2.09012437
v 0.637516439 0.608330965 2.09012437
v 0.889489114 8.83229802E-07 -1.15802276
v 0.637516439 0.60665977 -1.15802574
v 0.676832855 -0.608328283 2.25801373
v 0.825568199 -0.608328283 2.43057728
v 0.96328795 8.83229802E-07 2.21956396
v 0.885778189 8.83229802E-07 2.14793539
v 0.637516439 -0.608328283 2.09012437
v 0.889489114 8.83229802E-07 2.09012437
v 0.637516439 -0.606657743 -1.15801978
v 0.889489114 8.83229802E-07 -1.15802276
v -0.831130981 8.83229802E-07 -1.15802276
v -1.1017853 1.27850853E-05 -1.17763567
v -0.77039367 0.798116148 -1.17764008
v -0.579158306 0.60665977 -1.15802574
v 0.029176645 1.12847435 -1.17764211
v 0.029181527 0.857947648 -1.15802693
v 0.828751802 0.7981143 -1.17764008
v 0.637516439 0.60665977 -1.15802574
v 1.16013849 7.90227205E-06 -1.17763567
v 0.889489114 8.83229802E-07 -1.15802276
v -0.572966933 -0.611528933 -1.15801978
v -1.1017853 1.27850853E-05 -1.17763567
v -0.831130981 8.83229802E-07 -1.15802276
v -0.770418048 -0.798081636 -1.17763174
v 0.0353680514 -0.862814903 -1.15801871
v 0.029176645 -1.12849605 -1.17763102
v 0.637516439 -0.606657743 -1.15801978
v 0.828771353 -0.798080444 -1.17763174
v 0.889489114 8.83229802E-07 -1.15802276
v 1.16013849 7.90227205E-06 -1.17763567
vt 0.898925781 0.0210723877
vt 0.898925781 0.00793457031
vt 0.872070312 0.00793457031
vt 0.872070312 0.0210723877
vt 0.841308594 0.00793457031
vt 0.841308594 0.0210723877
vt 0.841308594 0.0210723877
vt 0.841308594 0.00793457031
vt 0.812988281 0.00793457031
vt 0.812988281 0.0210723877
vt 0.812988281 0.00793457031
vt 0.812988281 0.0210723877
vt 0.841308594 0.0210723877
vt 0.841308594 0.00793457031
vt 0.841308594 0.00793457031
vt 0.841308594 0.0210723877
vt 0.872070312 0.0210723877
vt 0.872070312 0.00793457031
vt 0.898925781 0.0210723877
vt 0.898925781 0.00793457031
vt 0.898925781 0.00793457031
vt 0.898925781 0.0210723877
vt 0.930664062 0.0210723877
vt 0.930664062 0.00793457031
vt 0.930664062 0.0210723877
vt 0.930664062 0.00793457031
vt 0.898925781 0.00793457031
vt 0.898925781 0.0210723877
vt 0.819824219 0.151855469
vt 0.777832031 0.171142578
vt 0.777832031 0.151855469
vt 0.819824219 0.171142578
vt 0.777832031 0.249145508
vt 0.819824219 0.249145508
vt 0.777832031 0.154907227
vt 0.777832031 0.173828125
vt 0.823242188 0.173828125
vt 0.823242188 0.154907227
vt 0.777832031 0.1328125
vt 0.823242188 0.1328125
vt 0.866210938 0.154907227
vt 0.777832031 0.108337402
vt 0.866210938 0.1328125
vt 0.823242188 0.108337402
vt 0.777832031 0.01612854
vt 0.866210938 0.108337402
vt 0.823242188 0.01612854
vt 0.866210938 0.01612854
vt 0.911132812 0.154907227
vt 0.961914062 0.173828125
vt 0.961914062 0.154907227
vt 0.911132812 0.173828125
vt 0.961914062 0.249755859
vt 0.911132812 0.249755859
vt 0.961914062 0.151855469
vt 0.907226562 0.171142578
vt 0.907226562 0.151855469
vt 0.961914062 0.171142578
vt 0.907226562 0.249145508
vt 0.961914062 0.249145508
vt 0.907226562 0.171142578
vt 0.907226562 0.249145508
vt 0.861816406 0.249145508
vt 0.861816406 0.171142578
vt 0.907226562 0.151855469
vt 0.861816406 0.151855469
vt 0.907226562 0.129760742
vt 0.861816406 0.129760742
vt 0.907226562 0.106018066
vt 0.861816406 0.106018066
vt 0.907226562 0.01612854
vt 0.861816406 0.01612854
vt 0.861816406 0.171142578
vt 0.861816406 0.249145508
vt 0.819824219 0.249145508
vt 0.819824219 0.171142578
vt 0.861816406 0.151855469
vt 0.819824219 0.151855469
vt 0.861816406 0.129760742
vt 0.819824219 0.129760742
vt 0.777832031 0.151855469
vt 0.861816406 0.106018066
vt 0.777832031 0.129760742
vt 0.819824219 0.106018066
vt 0.861816406 0.01612854
vt 0.777832031 0.106018066
vt 0.819824219 0.01612854
vt 0.777832031 0.01612854
vt 0.777832031 0.173828125
vt 0.777832031 0.249755859
vt 0.823242188 0.249755859
vt 0.823242188 0.173828125
vt 0.823242188 0.173828125
vt 0.823242188 0.249755859
vt 0.866210938 0.249755859
vt 0.866210938 0.173828125
vt 0.823242188 0.154907227
vt 0.911132812 0.249755859
vt 0.911132812 0.173828125
vt 0.866210938 0.154907227
vt 0.911132812 0.154907227
vt 0.866210938 0.1328125
vt 0.911132812 0.1328125
vt 0.866210938 0.108337402
vt 0.911132812 0.108337402
vt 0.866210938 0.01612854
vt 0.911132812 0.01612854
vt 0.898925781 0.00793457031
vt 0.930664062 0.0210723877
vt 0.930664062 0.00793457031
vt 0.898925781 0.0210723877
vt 0.872070312 0.00793457031
vt 0.872070312 0.0210723877
vt 0.841308594 0.00793457031
vt 0.841308594 0.0210723877
vt 0.814453125 0.00793457031
vt 0.813476562 0.0210723877
vt 0.814453125 0.00793457031
vt 0.813476562 0.0210723877
vt 0.841308594 0.0210723877
vt 0.841308594 0.00793457031
vt 0.872070312 0.0210723877
vt 0.872070312 0.00793457031
vt 0.898925781 0.0210723877
vt 0.898925781 0.00793457031
vt 0.930664062 0.0210723877
vt 0.930664062 0.00793457031
vt 0.92578125 0.252685547
vt 0.92578125 0.241455078
vt 0.873046875 0.241455078
vt 0.873046875 0.252685547
vt 0.8203125 0.241455078
vt 0.8203125 0.252685547
vt 0.8203125 0.252685547
vt 0.8203125 0.241455078
vt 0.793457031 0.241455078
vt 0.793457031 0.252685547
vt 0.951660156 0.252685547
vt 0.951660156 0.241455078
vt 0.924804688 0.241455078
vt 0.925292969 0.252685547
vt 0.925292969 0.252685547
vt 0.924804688 0.241455078
vt 0.872558594 0.241455078
vt 0.872558594 0.252685547
vt 0.819824219 0.241455078
vt 0.819824219 0.252685547
vt 0.819824219 0.252685547
vt 0.819824219 0.241455078
vt 0.793457031 0.241455078
vt 0.793457031 0.252685547
vt 0.951660156 0.252685547
vt 0.951660156 0.241455078
vt 0.92578125 0.241455078
vt 0.92578125 0.252685547
vt 0.961914062 0.129760742
vt 0.961914062 0.151855469
vt 0.907226562 0.151855469
vt 0.907226562 0.129760742
vt 0.961914062 0.106018066
vt 0.907226562 0.106018066
vt 0.961914062 0.01612854
vt 0.907226562 0.01612854
vt 0.911132812 0.1328125
vt 0.911132812 0.154907227
vt 0.961914062 0.154907227
vt 0.961914062 0.1328125
vt 0.911132812 0.108337402
vt 0.961914062 0.108337402
vt 0.911132812 0.01612854
vt 0.961914062 0.01612854
vt 0.812988281 0.00793457031
vt 0.812988281 0.0210723877
vt 0.841308594 0.0210723877
vt 0.841308594 0.00793457031
vt 0.872070312 0.0210723877
vt 0.872070312 0.00793457031
vt 0.898925781 0.0210723877
vt 0.898925781 0.00793457031
vt 0.930664062 0.0210723877
vt 0.930664062 0.00793457031
vt 0.898925781 0.00793457031
vt 0.930664062 0.0210723877
vt 0.930664062 0.00793457031
vt 0.898925781 0.0210723877
vt 0.872070312 0.00793457031
vt 0.872070312 0.0210723877
vt 0.841308594 0.00793457031
vt 0.841308594 0.0210723877
vt 0.812988281 0.00793457031
vt 0.812988281 0.0210723877
vn 0.706054688 0.708007812 0.00419616699
vn 0.707519531 0.70703125 0.0041809082
vn -2.8014183E-06 1 0.00714111328
vn 5.60283661E-06 1 0.00714111328
vn -0.707519531 0.70703125 0.00416946411
vn -0.706054688 0.708007812 0.0041847229
vn -0.706054688 0.708007812 0.0041847229
vn -0.707519531 0.70703125 0.00416946411
vn -1 1.38282776E-05 0.00120639801
vn -1 1.34110451E-05 0.00120639801
vn -1 1.34110451E-05 0.00120639801
vn -1 1.38282776E-05 0.00120639801
vn -0.707519531 -0.706542969 0.00415802002
vn -0.706054688 -0.708007812 0.00417327881
vn -0.706054688 -0.708007812 0.00417327881
vn -0.707519531 -0.706542969 0.00415802002
vn -2.86102295E-06 -1 0.00713729858
vn 5.48362732E-06 -1 0.00713729858
vn 0.707519531 -0.706542969 0.0041809082
vn 0.706054688 -0.708007812 0.00419616699
vn 0.706054688 -0.708007812 0.00419616699
vn 0.707519531 -0.706542969 0.0041809082
vn 1 7.62939453E-06 0.00122737885
vn 1 1.98483467E-05 0.00122737885
vn 1 1.98483467E-05 0.00122737885
vn 1 7.62939453E-06 0.00122737885
vn 0.707519531 0.70703125 0.0041809082
vn 0.706054688 0.708007812 0.00419616699
vn -0.463378906 0.624023438 0.629394531
vn -0.130371094 6.55651093E-07 0.991699219
vn -0.590820312 -2.38418579E-07 0.806640625
vn -0.0939331055 0.665527344 0.740234375
vn -0.0185394287 7.74860382E-07 1
vn -0.0112609863 0.692382812 0.721191406
vn -0.590820312 -2.38418579E-07 0.806640625
vn -0.130371094 6.55651093E-07 0.991699219
vn -0.0939331055 -0.665527344 0.740234375
vn -0.463378906 -0.624023438 0.629394531
vn -0.878417969 1.1920929E-07 0.477783203
vn -0.686035156 -0.624511719 0.373291016
vn -0.108642578 -0.983886719 0.141601562
vn -0.998046875 -0.00209236145 0.0620422363
vn -0.146118164 -0.985839844 0.0794067383
vn -0.720214844 -0.692382812 0.0453491211
vn -1 -0.00254249573 -0.000427484512
vn -0.022644043 -0.999511719 0.00910186768
vn -0.706054688 -0.708007812 -0.000327825546
vn 0.00247192383 -1 0.000309467316
vn 0.311035156 -0.825195312 -0.471191406
vn 0.0198974609 -2.98023224E-07 -1
vn 0.522949219 1.78813934E-07 -0.852050781
vn 0.0244293213 -0.746582031 -0.665039062
vn -0.0222015381 -2.98023224E-07 -0.999511719
vn -0.0128173828 -0.70703125 -0.70703125
vn 0.522949219 1.78813934E-07 -0.852050781
vn 0.0244293213 0.746582031 -0.665039062
vn 0.311035156 0.825195312 -0.471191406
vn 0.0198974609 -2.98023224E-07 -1
vn -0.0128173828 0.70703125 -0.70703125
vn -0.0222015381 -2.98023224E-07 -0.999511719
vn 0.0244293213 0.746582031 -0.665039062
vn -0.0128173828 0.70703125 -0.70703125
vn -0.00352287292 1 0.0157012939
vn -0.0163726807 0.996582031 0.0787963867
vn 0.311035156 0.825195312 -0.471191406
vn -0.108642578 0.983886719 0.141601562
vn 0.494140625 0.825683594 -0.272705078
vn -0.146118164 0.985839844 0.0794067383
vn 0.697265625 0.716796875 -0.00895690918
vn -0.0239562988 0.999511719 0.00827026367
vn 0.706542969 0.707519531 -0.000363826752
vn -0 1 -0.00062084198
vn -0.0163726807 0.996582031 0.0787963867
vn -0.00352287292 1 0.0157012939
vn -0.0112609863 0.692382812 0.721191406
vn -0.0939331055 0.665527344 0.740234375
vn -0.108642578 0.983886719 0.141601562
vn -0.463378906 0.624023438 0.629394531
vn -0.146118164 0.985839844 0.0794067383
vn -0.686035156 0.624511719 0.373291016
vn -0.590820312 -2.38418579E-07 0.806640625
vn -0.0239562988 0.999511719 0.00827026367
vn -0.878417969 1.1920929E-07 0.477783203
vn -0.719726562 0.692382812 0.0454406738
vn -0 1 -0.00062084198
vn -0.998046875 -0.00209236145 0.0620422363
vn -0.706542969 0.707519531 -0.000363826752
vn -1 -0.00254249573 -0.000427484512
vn -0.130371094 6.55651093E-07 0.991699219
vn -0.0185394287 7.74860382E-07 1
vn -0.0112609863 -0.692382812 0.721191406
vn -0.0939331055 -0.665527344 0.740234375
vn -0.0939331055 -0.665527344 0.740234375
vn -0.0112609863 -0.692382812 0.721191406
vn -0.00352287292 -1 0.0157012939
vn -0.0163726807 -0.996582031 0.0787963867
vn -0.463378906 -0.624023438 0.629394531
vn -0.0128173828 -0.70703125 -0.70703125
vn 0.0244293213 -0.746582031 -0.665039062
vn -0.108642578 -0.983886719 0.141601562
vn 0.311035156 -0.825195312 -0.471191406
vn -0.146118164 -0.985839844 0.0794067383
vn 0.494140625 -0.825683594 -0.272460938
vn -0.022644043 -0.999511719 0.00910186768
vn 0.69921875 -0.71484375 -0.00842285156
vn 0.00247192383 -1 0.000309467316
vn 0.708984375 -0.705078125 0.000209927559
vn -1 -3.81469727E-06 0
vn -1 0 0
vn -1 0 0
vn -1 -3.81469727E-06 0
vn -1 -2.86102295E-06 0
vn -1 -2.86102295E-06 0
vn -1 9.53674316E-07 0
vn -1 9.53674316E-07 0
vn -1 9.53674316E-07 0
vn -1 9.53674316E-07 0
vn -1 0 0
vn -1 0 0
vn -1 2.86102295E-06 0
vn -1 2.86102295E-06 0
vn -1 2.86102295E-06 0
vn -1 2.86102295E-06 0
vn -1 9.53674316E-07 0
vn -1 9.53674316E-07 0
vn -1 9.53674316E-07 0
vn -1 9.53674316E-07 0
vn -0 0.70703125 -0.70703125
vn -0 0.70703125 -0.70703125
vn -0 1 0
vn -0 1 0
vn -0 0.70703125 0.70703125
vn -0 0.70703125 0.70703125
vn -0 0.70703125 0.70703125
vn -0 0.70703125 0.70703125
vn -0 0 1
vn -0 0 1
vn -0 0 1
vn -0 0 1
vn -0 -0.70703125 0.70703125
vn -0 -0.70703125 0.70703125
vn -0 -0.70703125 0.70703125
vn -0 -0.70703125 0.70703125
vn -0 -1 -2.98023224E-07
vn -0 -1 -2.98023224E-07
vn -0 -0.70703125 -0.70703125
vn -0 -0.70703125 -0.70703125
vn -0 -0.70703125 -0.70703125
vn -0 -0.70703125 -0.70703125
vn -0 0 -1
vn -0 0 -1
vn -0 0 -1
vn -0 0 -1
vn -0 0.70703125 -0.70703125
vn -0 0.70703125 -0.70703125
vn 0.876464844 -1.25169754E-06 -0.481689453
vn 0.522949219 1.78813934E-07 -0.852050781
vn 0.311035156 0.825195312 -0.471191406
vn 0.494140625 0.825683594 -0.272705078
vn 1 1.43051147E-06 -0.00532531738
vn 0.697265625 0.716796875 -0.00895690918
vn 1 2.74181366E-06 -0.000106692314
vn 0.706542969 0.707519531 -0.000363826752
vn 0.494140625 -0.825683594 -0.272460938
vn 0.311035156 -0.825195312 -0.471191406
vn 0.522949219 1.78813934E-07 -0.852050781
vn 0.876464844 -1.25169754E-06 -0.481689453
vn 0.69921875 -0.71484375 -0.00842285156
vn 1 1.43051147E-06 -0.00532531738
vn 0.708984375 -0.705078125 0.000209927559
vn 1 2.74181366E-06 -0.000106692314
vn -0.0719604492 -0.000197172165 0.997558594
vn -0.0719604492 -0.000151634216 0.997558594
vn -0.0510559082 0.0511779785 0.997558594
vn -0.0510559082 0.0511779785 0.997558594
vn -4.76837158E-07 0.0723266602 0.997558594
vn 2.98023224E-07 0.0723266602 0.997558594
vn 0.0510559082 0.0511779785 0.997558594
vn 0.0510559082 0.0511779785 0.997558594
vn 0.072265625 6.31809235E-06 0.997558594
vn 0.072265625 5.42402267E-06 0.997558594
vn -0.0507507324 -0.0516052246 0.997558594
vn -0.0719604492 -0.000151634216 0.997558594
vn -0.0719604492 -0.000197172165 0.997558594
vn -0.0516052246 -0.0507202148 0.997558594
vn 0.000566482544 -0.073059082 0.997558594
vn -0.000471115112 -0.073059082 0.997558594
vn 0.0516357422 -0.0513916016 0.997558594
vn 0.0516052246 -0.0514221191 0.997558594
vn 0.072265625 5.42402267E-06 0.997558594
vn 0.072265625 6.31809235E-06 0.997558594
g IS5_MDL_Tank_Pipe_2_0
f 3/3/3 2/2/2 1/1/1
f 4/4/4 3/3/3 1/1/1
f 5/5/5 3/3/3 4/4/4
f 6/6/6 5/5/5 4/4/4
f 9/9/9 8/8/8 7/7/7
f 10/10/10 9/9/9 7/7/7
f 13/13/13 12/12/12 11/11/11
f 14/14/14 13/13/13 11/11/11
f 17/17/17 16/16/16 15/15/15
f 18/18/18 17/17/17 15/15/15
f 19/19/19 17/17/17 18/18/18
f 20/20/20 19/19/19 18/18/18
f 23/23/23 22/22/22 21/21/21
f 24/24/24 23/23/23 21/21/21
f 27/27/27 26/26/26 25/25/25
f 28/28/28 27/27/27 25/25/25
f 31/31/31 30/30/30 29/29/29
f 30/30/30 32/32/32 29/29/29
f 30/30/30 33/33/33 32/32/32
f 33/33/33 34/34/34 32/32/32
f 37/37/37 36/36/36 35/35/35
f 38/38/38 37/37/37 35/35/35
f 38/38/38 35/35/35 39/39/39
f 40/40/40 38/38/38 39/39/39
f 41/41/41 38/38/38 40/40/40
f 40/40/40 39/39/39 42/42/42
f 43/43/43 41/41/41 40/40/40
f 44/44/44 40/40/40 42/42/42
f 43/43/43 40/40/40 44/44/44
f 44/44/44 42/42/42 45/45/45
f 46/46/46 43/43/43 44/44/44
f 47/47/47 44/44/44 45/45/45
f 46/46/46 44/44/44 47/47/47
f 48/48/48 46/46/46 47/47/47
f 51/51/51 50/50/50 49/49/49
f 50/50/50 52/52/52 49/49/49
f 50/50/50 53/53/53 52/52/52
f 53/53/53 54/54/54 52/52/52
f 57/57/57 56/56/56 55/55/55
f 56/56/56 58/58/58 55/55/55
f 56/56/56 59/59/59 58/58/58
f 59/59/59 60/60/60 58/58/58
f 63/63/63 62/62/62 61/61/61
f 64/64/64 63/63/63 61/61/61
f 64/64/64 61/61/61 65/65/65
f 66/66/66 64/64/64 65/65/65
f 66/66/66 65/65/65 67/67/67
f 68/68/68 66/66/66 67/67/67
f 68/68/68 67/67/67 69/69/69
f 70/70/70 68/68/68 69/69/69
f 70/70/70 69/69/69 71/71/71
f 72/72/72 70/70/70 71/71/71
f 75/75/75 74/74/74 73/73/73
f 76/76/76 75/75/75 73/73/73
f 76/76/76 73/73/73 77/77/77
f 78/78/78 76/76/76 77/77/77
f 78/78/78 77/77/77 79/79/79
f 80/80/80 78/78/78 79/79/79
f 81/81/81 78/78/78 80/80/80
f 80/80/80 79/79/79 82/82/82
f 83/83/83 81/81/81 80/80/80
f 84/84/84 80/80/80 82/82/82
f 83/83/83 80/80/80 84/84/84
f 84/84/84 82/82/82 85/85/85
f 86/86/86 83/83/83 84/84/84
f 87/87/87 84/84/84 85/85/85
f 86/86/86 84/84/84 87/87/87
f 88/88/88 86/86/86 87/87/87
f 91/91/91 90/90/90 89/89/89
f 92/92/92 91/91/91 89/89/89
f 95/95/95 94/94/94 93/93/93
f 96/96/96 95/95/95 93/93/93
f 96/96/96 93/93/93 97/97/97
f 98/98/98 95/95/95 96/96/96
f 99/99/99 98/98/98 96/96/96
f 100/100/100 96/96/96 97/97/97
f 99/99/99 96/96/96 100/100/100
f 101/101/101 99/99/99 100/100/100
f 101/101/101 100/100/100 102/102/102
f 103/103/103 101/101/101 102/102/102
f 103/103/103 102/102/102 104/104/104
f 105/105/105 103/103/103 104/104/104
f 105/105/105 104/104/104 106/106/106
f 107/107/107 105/105/105 106/106/106
f 110/110/110 109/109/109 108/108/108
f 109/109/109 111/111/111 108/108/108
f 108/108/108 111/111/111 112/112/112
f 111/111/111 113/113/113 112/112/112
f 112/112/112 113/113/113 114/114/114
f 113/113/113 115/115/115 114/114/114
f 114/114/114 115/115/115 116/116/116
f 115/115/115 117/117/117 116/116/116
f 120/120/120 119/119/119 118/118/118
f 121/121/121 120/120/120 118/118/118
f 122/122/122 120/120/120 121/121/121
f 123/123/123 122/122/122 121/121/121
f 124/124/124 122/122/122 123/123/123
f 125/125/125 124/124/124 123/123/123
f 126/126/126 124/124/124 125/125/125
f 127/127/127 126/126/126 125/125/125
f 130/130/130 129/129/129 128/128/128
f 131/131/131 130/130/130 128/128/128
f 132/132/132 130/130/130 131/131/131
f 133/133/133 132/132/132 131/131/131
f 136/136/136 135/135/135 134/134/134
f 137/137/137 136/136/136 134/134/134
f 140/140/140 139/139/139 138/138/138
f 141/141/141 140/140/140 138/138/138
f 144/144/144 143/143/143 142/142/142
f 145/145/145 144/144/144 142/142/142
f 146/146/146 144/144/144 145/145/145
f 147/147/147 146/146/146 145/145/145
f 150/150/150 149/149/149 148/148/148
f 151/151/151 150/150/150 148/148/148
f 154/154/154 153/153/153 152/152/152
f 155/155/155 154/154/154 152/152/152
f 158/158/158 157/157/157 156/156/156
f 159/159/159 158/158/158 156/156/156
f 159/159/159 156/156/156 160/160/160
f 161/161/161 159/159/159 160/160/160
f 161/161/161 160/160/160 162/162/162
f 163/163/163 161/161/161 162/162/162
f 166/166/166 165/165/165 164/164/164
f 167/167/167 166/166/166 164/164/164
f 167/167/167 164/164/164 168/168/168
f 169/169/169 167/167/167 168/168/168
f 169/169/169 168/168/168 170/170/170
f 171/171/171 169/169/169 170/170/170
f 174/174/174 173/173/173 172/172/172
f 175/175/175 174/174/174 172/172/172
f 176/176/176 174/174/174 175/175/175
f 177/177/177 176/176/176 175/175/175
f 178/178/178 176/176/176 177/177/177
f 179/179/179 178/178/178 177/177/177
f 180/180/180 178/178/178 179/179/179
f 181/181/181 180/180/180 179/179/179
f 184/184/184 183/183/183 182/182/182
f 183/183/183 185/185/185 182/182/182
f 182/182/182 185/185/185 186/186/186
f 185/185/185 187/187/187 186/186/186
f 186/186/186 187/187/187 188/188/188
f 187/187/187 189/189/189 188/188/188
f 188/188/188 189/189/189 190/190/190
f 189/189/189 191/191/191 190/190/190
