g Arbusto39
v -0.0609845615 0.882009325 -1.90233552
v -0.483395853 1.09916443 -1.43530332
v -0.483395853 1.14081061 -1.90233552
v -0.0550351067 0.837388414 -1.42042969
v 0.00148471395 -0.00148471395 -1.90233552
v 0.00743416875 0.00446474086 -1.42042969
v -0.483395853 1.1289117 -0.950422756
v 0.0133836236 0.00743946826 -0.950422756
v -0.0490856519 0.861186233 -0.950422756
v -0.0550351067 0.837388414 -0.480415826
v -0.483395853 1.08131606 -0.468516916
v 0.00743416875 0.00446474086 -0.483390553
v -0.483395853 1.14081061 -0.00148471395
v 0.00148471395 -0.00148471395 -0.00148471395
v -0.0609845615 0.882009325 -0.00148471395
vt 0.996259496 0.586654511
vt 0.973917406 0.623891328
vt 0.996259496 0.623891328
vt 0.970193724 0.586654511
vt 0.996259496 0.527075605
vt 0.970193724 0.527075605
vt 0.947851634 0.623891328
vt 0.947851634 0.527075605
vt 0.947851634 0.586654511
vt 0.925509544 0.586654511
vt 0.925509544 0.623891328
vt 0.925509544 0.527075605
vt 0.899443772 0.623891328
vt 0.899443772 0.527075605
vt 0.899443772 0.586654511
vn 0.967753917 0.23821355 0.0818941978
vn 0.0156743365 0.99987715 -0
vn 0.0156743365 0.99987715 -0
vn 0.967753917 0.206477564 -0.144289191
vn 0.999489903 0.0160616485 -0.0276035568
vn 0.999489903 0.0160616485 -0.0276035568
vn 0.0156743365 0.99987715 -0
vn 0.998858484 0.0477674387 -0
vn 0.967753917 0.23821355 0.0818941978
vn 0.967753917 0.206477564 0.144289191
vn 0.0156743365 0.99987715 -0
vn 0.999489903 0.0160616485 0.0276035568
vn 0.0156743365 0.99987715 -0
vn 0.999489903 0.0160616485 0.0276035568
vn 0.967753917 0.23821355 -0.0818941978
g Arbusto39_0
f 3/3/3 2/2/2 1/1/1
f 2/2/2 4/4/4 1/1/1
f 5/5/5 1/1/1 4/4/4
f 6/6/6 5/5/5 4/4/4
f 2/2/2 7/7/7 4/4/4
f 6/6/6 4/4/4 8/8/8
f 7/7/7 9/9/9 4/4/4
f 4/4/4 9/9/9 8/8/8
f 10/10/10 9/9/9 7/7/7
f 8/8/8 9/9/9 10/10/10
f 11/11/11 10/10/10 7/7/7
f 12/12/12 8/8/8 10/10/10
f 11/11/11 13/13/13 10/10/10
f 12/12/12 10/10/10 14/14/14
f 13/13/13 15/15/15 10/10/10
f 10/10/10 15/15/15 14/14/14
