g CabinInterior_Wall_1
v -48.2249832 3.66692162 -60.4317513
v -48.2249832 0.636646569 -60.4317513
v -48.7442703 0.636646569 -62.3697433
v -48.7442703 3.66692162 -62.3697433
v -46.6671371 0.636646569 -54.6177826
v -47.1864204 0.636646569 -56.5557747
v -47.1864204 3.66692162 -56.5557747
v -46.6671371 3.66692162 -54.6177826
v -47.1864204 3.66692162 -56.5557747
v -47.1864204 0.636646569 -56.5557747
v -47.4887428 0.636646569 -57.684063
v -47.4887428 2.68945241 -57.684063
v -47.7057037 3.66692162 -58.493763
v -47.7057037 2.68945265 -58.493763
v -47.7057037 3.66692162 -58.493763
v -47.7057037 2.68945265 -58.493763
v -47.7155113 2.68945265 -58.5303688
v -48.2249832 3.66692162 -60.4317513
v -47.7155113 0.636646569 -58.5303688
v -48.2249832 0.636646569 -60.4317513
vt 0.315917969 0.992675781
vt 0.315917969 0.520507812
vt 0.00463485718 0.520507812
vt 0.00463485718 0.992675781
vt 0.315917969 0.520507812
vt 0.00463485718 0.520507812
vt 0.00463485718 0.992675781
vt 0.315917969 0.992675781
vt 0.315917969 0.992675781
vt 0.315917969 0.520507812
vt 0.128051758 0.520507812
vt 0.128051758 0.836425781
vt 0.00463485718 0.992675781
vt 0.00463485718 0.834472656
vt 0.315917969 0.992675781
vt 0.315917969 0.834472656
vt 0.310058594 0.834472656
vt 0.00463485718 0.992675781
vt 0.310058594 0.520507812
vt 0.00463485718 0.520507812
vn -0.965820312 0 0.258789062
vn -0.965820312 0 0.258789062
vn -0.965820312 0 0.258789062
vn -0.965820312 0 0.258789062
vn -0.965820312 0 0.258789062
vn -0.965820312 0 0.258789062
vn -0.965820312 0 0.258789062
vn -0.965820312 0 0.258789062
vn -0.965820312 -1.25169754E-06 0.258789062
vn -0.965820312 0 0.258789062
vn -0.965820312 0 0.258789062
vn -0.965820312 -1.49011612E-06 0.258789062
vn -0.965820312 -4.47034836E-06 0.258789062
vn -0.965820312 -4.47034836E-06 0.258789062
vn -0.965820312 9.35792923E-06 0.258789062
vn -0.965820312 9.35792923E-06 0.258789062
vn -0.965820312 1.96695328E-06 0.258789062
vn -0.965820312 7.15255737E-07 0.258789062
vn -0.965820312 0 0.258789062
vn -0.965820312 0 0.258789062
g CabinInterior_Wall_1_0
f 3/3/3 2/2/2 1/1/1
f 4/4/4 3/3/3 1/1/1
f 7/7/7 6/6/6 5/5/5
f 8/8/8 7/7/7 5/5/5
f 11/11/11 10/10/10 9/9/9
f 12/12/12 11/11/11 9/9/9
f 12/12/12 9/9/9 13/13/13
f 14/14/14 12/12/12 13/13/13
f 17/17/17 16/16/16 15/15/15
f 18/18/18 17/17/17 15/15/15
f 17/17/17 18/18/18 19/19/19
f 18/18/18 20/20/20 19/19/19
