g Beam_Corner_1
v 1.33935678 -7.99614286 2.33789611
v 1.33935678 -7.94194317 2.33789611
v 1.99694467 -7.94194317 2.33789611
v 1.99694467 -7.99614286 2.33789611
v 1.33935678 -7.94194317 1.81126463
v 1.33935678 -7.99614286 1.81126463
v 1.99694467 -7.99614286 1.81126463
v 1.99694467 -7.94194317 1.81126463
v 1.33935678 -7.99614286 1.81126463
v 1.33935678 -7.99614286 2.33789611
v 1.99694467 -7.99614286 2.33789611
v 1.99694467 -7.99614286 1.81126463
v 1.99694467 -7.99614286 2.33789611
v 1.99694467 -7.94194317 2.33789611
v 1.99694467 -7.94194317 1.81126463
v 1.99694467 -7.99614286 1.81126463
v 1.33935678 -7.99614286 1.81126463
v 1.33935678 -7.94194317 1.81126463
v 1.33935678 -7.94194317 2.33789611
v 1.33935678 -7.99614286 2.33789611
v 1.51997697 -7.94194317 2.19443274
v 1.26865852 -5.4765625 1.88406992
v 1.56206191 -5.4765625 1.88406992
v 1.81632459 -7.94194317 2.19443274
v 1.81632459 -7.94194317 2.19443274
v 1.56206191 -5.4765625 1.88406992
v 1.56206191 -5.4765625 1.6510253
v 1.81632459 -7.94194317 1.95472932
v 1.81632459 -7.94194317 1.95472932
v 1.56206191 -5.4765625 1.6510253
v 1.26865852 -5.4765625 1.6510253
v 1.51997697 -7.94194317 1.95472932
v 1.51997697 -7.94194317 1.95472932
v 1.26865852 -5.4765625 1.6510253
v 1.26865852 -5.4765625 1.88406992
v 1.51997697 -7.94194317 2.19443274
v 1.26865852 -5.4765625 1.88406992
v 0.507843137 -2.44812012 1.04499137
v 0.796480775 -2.44812012 1.04499137
v 1.56206191 -5.4765625 1.88406992
v 1.26865852 -5.4765625 1.6510253
v 0.507843137 -2.44812012 0.815731764
v 0.507843137 -2.44812012 1.04499137
v 1.26865852 -5.4765625 1.88406992
v 1.56206191 -5.4765625 1.6510253
v 0.796480775 -2.44812012 0.815731764
v 0.507843137 -2.44812012 0.815731764
v 1.26865852 -5.4765625 1.6510253
v 1.56206191 -5.4765625 1.88406992
v 0.796480775 -2.44812012 1.04499137
v 0.796480775 -2.44812012 0.815731764
v 1.56206191 -5.4765625 1.6510253
v 0.507843137 -2.44812012 1.04499137
v -0.190096319 -0.755996048 0.205009118
v 0.000225942524 -0.669638634 0.166903943
v 0.796480775 -2.44812012 1.04499137
v 0.507843137 -2.44812012 0.815731764
v -0.188392222 -0.758365452 -0.0187890995
v -0.190096319 -0.755996048 0.205009118
v 0.507843137 -2.44812012 1.04499137
v 0.796480775 -2.44812012 0.815731764
v 0.101178087 -0.755996048 -0.0177081674
v -0.188392222 -0.758365452 -0.0187890995
v 0.507843137 -2.44812012 0.815731764
v 0.796480775 -2.44812012 1.04499137
v 0.000225942524 -0.669638634 0.166903943
v 0.101178087 -0.755996048 -0.0177081674
v 0.796480775 -2.44812012 0.815731764
v -0.190096319 -0.755996048 0.205009118
v -1.23057485 0.268792689 -0.862404168
v -0.949984014 0.352650136 -0.844536126
v 0.000225942524 -0.669638634 0.166903943
v 0.000225942524 -0.669638634 0.166903943
v -0.949984014 0.352650136 -0.844536126
v -0.91749382 0.291340321 -1.06701171
v 0.101178087 -0.755996048 -0.0177081674
v 0.101178087 -0.755996048 -0.0177081674
v -0.91749382 0.291340321 -1.06701171
v -1.1980871 0.207482889 -1.08487976
v -0.188392222 -0.758365452 -0.0187890995
v -0.188392222 -0.758365452 -0.0187890995
v -1.1980871 0.207482889 -1.08487976
v -1.23057485 0.268792689 -0.862404168
v -0.190096319 -0.755996048 0.205009118
v -1.23057485 0.268792689 -0.862404168
v -1.70718122 1.12597835 -1.7312423
v -0.949984014 0.352650136 -0.844536126
v -1.99500346 1.09414124 -1.77405083
v -1.02138293 2.73617911 -2.12029481
v -1.29599714 2.80145001 -2.10572433
v -0.0158287454 4.51922607 -2.12371397
v -0.285482049 4.51922607 -2.02076602
v -1.1980871 0.207482889 -1.08487976
v -1.99500346 1.09414124 -1.77405083
v -1.23057485 0.268792689 -0.862404168
v -1.99694681 1.05370665 -1.99268067
v -1.29599714 2.80145001 -2.10572433
v -1.31822121 2.74140859 -2.31949759
v -0.285482049 4.51922607 -2.02076602
v -0.367249638 4.51922607 -2.23494935
v -0.91749382 0.291340321 -1.06701171
v -1.99694681 1.05370665 -1.99268067
v -1.1980871 0.207482889 -1.08487976
v -1.72769392 1.13475156 -2.01553512
v -1.31822121 2.74140859 -2.31949759
v -1.0436095 2.67613769 -2.33406806
v -0.367249638 4.51922607 -2.23494935
v -0.0975963175 4.51922607 -2.33789611
v -0.949984014 0.352650136 -0.844536126
v -1.72769392 1.13475156 -2.01553512
v -0.91749382 0.291340321 -1.06701171
v -1.70718122 1.12597835 -1.7312423
v -1.0436095 2.67613769 -2.33406806
v -1.02138293 2.73617911 -2.12029481
v -0.0975963175 4.51922607 -2.33789611
v -0.0158287454 4.51922607 -2.12371397
v -0.285482049 4.51922607 -2.02076602
v 0.342755228 7.00422335 -1.62566805
v 0.621060908 6.990376 -1.67497277
v -0.0158287454 4.51922607 -2.12371397
v -0.367249638 4.51922607 -2.23494935
v 0.303360701 7.00024891 -1.84692109
v 0.342755228 7.00422335 -1.62566805
v -0.285482049 4.51922607 -2.02076602
v -0.0975963175 4.51922607 -2.33789611
v 0.58166635 6.98640108 -1.89622581
v 0.303360701 7.00024891 -1.84692109
v -0.367249638 4.51922607 -2.23494935
v -0.0158287454 4.51922607 -2.12371397
v 0.621060908 6.990376 -1.67497277
v 0.58166635 6.98640108 -1.89622581
v -0.0975963175 4.51922607 -2.33789611
v 0.303360701 7.00024891 -1.84692109
v 0.368292332 7.57303429 -1.6295886
v 0.342755228 7.00422335 -1.62566805
v 0.321285516 7.54773188 -1.85070491
v 0.232545272 7.93502903 -1.74663484
v 0.180377305 7.89525604 -1.96765864
v 0.58166635 6.98640108 -1.89622581
v 0.321285516 7.54773188 -1.85070491
v 0.303360701 7.00024891 -1.84692109
v 0.596827507 7.57854462 -1.91563046
v 0.180377305 7.89525604 -1.96765864
v 0.454044282 7.9563694 -2.04318285
v 0.621060908 6.990376 -1.67497277
v 0.596827507 7.57854462 -1.91563046
v 0.58166635 6.98640108 -1.89622581
v 0.64383918 7.60384512 -1.69451165
v 0.454044282 7.9563694 -2.04318285
v 0.506219566 7.99614239 -1.82215536
v 0.342755228 7.00422335 -1.62566805
v 0.64383918 7.60384512 -1.69451165
v 0.621060908 6.990376 -1.67497277
v 0.368292332 7.57303429 -1.6295886
v 0.506219566 7.99614239 -1.82215536
v 0.232545272 7.93502903 -1.74663484
v 0.180377305 7.89525604 -1.96765864
v 0.454044282 7.9563694 -2.04318285
v 0.506219566 7.99614239 -1.82215536
v 0.232545272 7.93502903 -1.74663484
v 1.99694467 -7.94194317 1.81126463
v 1.51997697 -7.94194317 1.95472932
v 1.33935678 -7.94194317 1.81126463
v 1.81632459 -7.94194317 1.95472932
v 1.51997697 -7.94194317 2.19443274
v 1.99694467 -7.94194317 2.33789611
v 1.33935678 -7.94194317 2.33789611
v 1.81632459 -7.94194317 2.19443274
vt 0.0593566895 0.608398438
vt 0.0531311035 0.608398438
vt 0.0531311035 0.537597656
vt 0.0593566895 0.537597656
vt 0.0593566895 0.608398438
vt 0.0531311035 0.608398438
vt 0.0531311035 0.537597656
vt 0.0593566895 0.537597656
vt 0.341064453 0.848632812
vt 0.390380859 0.848632812
vt 0.390380859 0.786621094
vt 0.341064453 0.786621094
vt 0.0593566895 0.608398438
vt 0.0531311035 0.608398438
vt 0.0531311035 0.537597656
vt 0.0593566895 0.537597656
vt 0.0593566895 0.608398438
vt 0.0531311035 0.608398438
vt 0.0531311035 0.537597656
vt 0.0593566895 0.537597656
vt 0.0129318237 0.470214844
vt 0.0129318237 0.935546875
vt 0.0629882812 0.935546875
vt 0.0629882812 0.470214844
vt 0.0129318237 0.470214844
vt 0.0129318237 0.935546875
vt 0.0629882812 0.935546875
vt 0.0629882812 0.470214844
vt 0.0629882812 0.935546875
vt 0.0629882812 0.470214844
vt 0.0129318237 0.470214844
vt 0.0129318237 0.935546875
vt 0.0129318237 0.470214844
vt 0.0129318237 0.935546875
vt 0.0629882812 0.935546875
vt 0.0629882812 0.470214844
vt 0.0129318237 0.470214844
vt 0.0129318237 0.935546875
vt 0.0629882812 0.935546875
vt 0.0629882812 0.470214844
vt 0.0129318237 0.470214844
vt 0.0129318237 0.935546875
vt 0.0629882812 0.935546875
vt 0.0629882812 0.470214844
vt 0.0629882812 0.935546875
vt 0.0629882812 0.470214844
vt 0.0129318237 0.470214844
vt 0.0129318237 0.935546875
vt 0.0129318237 0.470214844
vt 0.0129318237 0.935546875
vt 0.0629882812 0.935546875
vt 0.0629882812 0.470214844
vt 0.0129318237 0.470214844
vt 0.0129318237 0.935546875
vt 0.0629882812 0.935546875
vt 0.0629882812 0.470214844
vt 0.0129318237 0.470214844
vt 0.0129318237 0.935546875
vt 0.0629882812 0.935546875
vt 0.0629882812 0.470214844
vt 0.0629882812 0.935546875
vt 0.0629882812 0.470214844
vt 0.0129318237 0.470214844
vt 0.0129318237 0.935546875
vt 0.0129318237 0.470214844
vt 0.0129318237 0.935546875
vt 0.0629882812 0.935546875
vt 0.0629882812 0.470214844
vt 0.0129318237 0.470214844
vt 0.0129318237 0.935546875
vt 0.0629882812 0.935546875
vt 0.0629882812 0.470214844
vt 0.0129318237 0.470214844
vt 0.0129318237 0.935546875
vt 0.0629882812 0.935546875
vt 0.0629882812 0.470214844
vt 0.0629882812 0.935546875
vt 0.0629882812 0.470214844
vt 0.0129318237 0.470214844
vt 0.0129318237 0.935546875
vt 0.0129318237 0.470214844
vt 0.0129318237 0.935546875
vt 0.0629882812 0.935546875
vt 0.0629882812 0.470214844
vt 0.0129318237 0.470214844
vt 0.0629882812 0.668457031
vt 0.0629882812 0.470214844
vt 0.0129318237 0.668457031
vt 0.0629882812 0.816894531
vt 0.0129318237 0.816894531
vt 0.0629882812 0.935546875
vt 0.0129318237 0.935546875
vt 0.0129318237 0.470214844
vt 0.0629882812 0.668457031
vt 0.0629882812 0.470214844
vt 0.0129318237 0.668457031
vt 0.0629882812 0.816894531
vt 0.0129318237 0.816894531
vt 0.0629882812 0.935546875
vt 0.0129318237 0.935546875
vt 0.0629882812 0.935546875
vt 0.0129318237 0.737304688
vt 0.0129318237 0.935546875
vt 0.0629882812 0.737304688
vt 0.0129318237 0.588867188
vt 0.0629882812 0.588867188
vt 0.0129318237 0.470214844
vt 0.0629882812 0.470214844
vt 0.0129318237 0.470214844
vt 0.0629882812 0.668457031
vt 0.0629882812 0.470214844
vt 0.0129318237 0.668457031
vt 0.0629882812 0.816894531
vt 0.0129318237 0.816894531
vt 0.0629882812 0.935546875
vt 0.0129318237 0.935546875
vt 0.0129318237 0.470214844
vt 0.0129318237 0.935546875
vt 0.0629882812 0.935546875
vt 0.0629882812 0.470214844
vt 0.0129318237 0.470214844
vt 0.0129318237 0.935546875
vt 0.0629882812 0.935546875
vt 0.0629882812 0.470214844
vt 0.0629882812 0.935546875
vt 0.0629882812 0.470214844
vt 0.0129318237 0.470214844
vt 0.0129318237 0.935546875
vt 0.0129318237 0.470214844
vt 0.0129318237 0.935546875
vt 0.0629882812 0.935546875
vt 0.0629882812 0.470214844
vt 0.0129318237 0.470214844
vt 0.0629882812 0.747558594
vt 0.0629882812 0.470214844
vt 0.0129318237 0.747558594
vt 0.0629882812 0.935546875
vt 0.0129318237 0.935546875
vt 0.0129318237 0.470214844
vt 0.0629882812 0.747558594
vt 0.0629882812 0.470214844
vt 0.0129318237 0.747558594
vt 0.0629882812 0.935546875
vt 0.0129318237 0.935546875
vt 0.0629882812 0.935546875
vt 0.0129318237 0.658203125
vt 0.0129318237 0.935546875
vt 0.0629882812 0.658203125
vt 0.0129318237 0.470214844
vt 0.0629882812 0.470214844
vt 0.0129318237 0.470214844
vt 0.0629882812 0.747558594
vt 0.0629882812 0.470214844
vt 0.0129318237 0.747558594
vt 0.0629882812 0.935546875
vt 0.0129318237 0.935546875
vt 0.390625 0.848144531
vt 0.391357422 0.785644531
vt 0.341308594 0.78515625
vt 0.340332031 0.848144531
vt 0.390136719 0.786621094
vt 0.376708984 0.83203125
vt 0.390136719 0.848632812
vt 0.376708984 0.803710938
vt 0.354248047 0.83203125
vt 0.340820312 0.786621094
vt 0.340820312 0.848632812
vt 0.354248047 0.803710938
vn -0 0 1
vn -0 0 1
vn -0 0 1
vn -0 0 1
vn -0 0 -1
vn -0 0 -1
vn -0 0 -1
vn -0 0 -1
vn -0 -1 0
vn -0 -1 0
vn -0 -1 0
vn -0 -1 0
vn 1 0 0
vn 1 0 0
vn 1 0 0
vn 1 0 0
vn -1 0 0
vn -1 0 0
vn -1 0 0
vn -1 0 0
vn -0 0.12487793 0.9921875
vn -0 0.211547852 0.977539062
vn -0 0.196289062 0.98046875
vn -0 0.12487793 0.9921875
vn 0.994628906 0.102600098 0
vn 0.984863281 0.172485352 0
vn 0.981933594 0.189819336 0
vn 0.994628906 0.102600098 0
vn -0 -0.122253418 -0.992675781
vn -0 -0.194335938 -0.980957031
vn -0 -0.209838867 -0.977539062
vn -0 -0.122253418 -0.992675781
vn -0.994628906 -0.10144043 0
vn -0.981933594 -0.188476562 0
vn -0.985351562 -0.171142578 0
vn -0.994628906 -0.10144043 0
vn -0 0.211547852 0.977539062
vn -0.00357437134 0.344970703 0.938476562
vn -0.00213813782 0.313964844 0.94921875
vn -0 0.196289062 0.98046875
vn -0.981933594 -0.188476562 0
vn -0.951171875 -0.309082031 -0.000691890717
vn -0.959960938 -0.280761719 -0.000389814377
vn -0.985351562 -0.171142578 0
vn -0 -0.194335938 -0.980957031
vn 0.00100231171 -0.317138672 -0.948242188
vn 0.00162029266 -0.348632812 -0.9375
vn -0 -0.209838867 -0.977539062
vn 0.984863281 0.172485352 0
vn 0.952636719 0.302001953 0.0348510742
vn 0.937011719 0.34375 0.0607299805
vn 0.981933594 0.189819336 0
vn -0.00357437134 0.344970703 0.938476562
vn -0.00807952881 0.440917969 0.897460938
vn -0.00807952881 0.440917969 0.897460938
vn -0.00213813782 0.313964844 0.94921875
vn -0.951171875 -0.309082031 -0.000691890717
vn -0.924316406 -0.381835938 -0.00147533417
vn -0.924316406 -0.381835938 -0.00147533417
vn -0.959960938 -0.280761719 -0.000389814377
vn 0.00100231171 -0.317138672 -0.948242188
vn 0.00348472595 -0.441162109 -0.897460938
vn 0.00348472595 -0.441162109 -0.897460938
vn 0.00162029266 -0.348632812 -0.9375
vn 0.952636719 0.302001953 0.0348510742
vn 0.888183594 0.442871094 0.124206543
vn 0.888183594 0.442871094 0.124206543
vn 0.937011719 0.34375 0.0607299805
vn -0.185546875 0.60546875 0.773925781
vn -0.199584961 0.624511719 0.755371094
vn -0.193481445 0.616210938 0.763671875
vn -0.185546875 0.60546875 0.773925781
vn 0.729003906 0.684570312 -0.00925445557
vn 0.734375 0.678222656 -0.02293396
vn 0.73828125 0.673828125 -0.0324707031
vn 0.729003906 0.684570312 -0.00925445557
vn 0.124023438 -0.656738281 -0.743652344
vn 0.145385742 -0.651855469 -0.744628906
vn 0.161743164 -0.647460938 -0.744628906
vn 0.124023438 -0.656738281 -0.743652344
vn -0.719238281 -0.693359375 0.0438842773
vn -0.751953125 -0.655761719 0.0708007812
vn -0.738769531 -0.671386719 0.0599060059
vn -0.719238281 -0.693359375 0.0438842773
vn -0.199584961 0.624511719 0.755371094
vn -0.115905762 0.421386719 0.899414062
vn -0.193481445 0.616210938 0.763671875
vn -0.107666016 0.401611328 0.909667969
vn 0.101135254 0.015335083 0.994628906
vn 0.0668945312 0.0692749023 0.995117188
vn 0.236572266 -0.197143555 0.951171875
vn 0.224121094 -0.178833008 0.958007812
vn -0.751953125 -0.655761719 0.0708007812
vn -0.989746094 -0.140869141 0.0318908691
vn -0.738769531 -0.671386719 0.0599060059
vn -0.998535156 0.0555114746 0.00698471069
vn -0.897949219 0.435302734 0.0682373047
vn -0.906738281 0.419677734 0.0429992676
vn -0.92578125 0.307128906 0.220825195
vn -0.915527344 0.346191406 0.204467773
vn 0.145385742 -0.651855469 -0.744628906
vn 0.0804443359 -0.454833984 -0.887207031
vn 0.161743164 -0.647460938 -0.744628906
vn 0.0454406738 -0.388183594 -0.920410156
vn -0.128295898 -0.0287475586 -0.991210938
vn -0.146118164 0.0110855103 -0.989257812
vn -0.224609375 0.173950195 -0.958984375
vn -0.236328125 0.194213867 -0.952148438
vn 0.734375 0.678222656 -0.02293396
vn 0.985839844 -0.161254883 -0.045501709
vn 0.73828125 0.673828125 -0.0324707031
vn 0.975585938 0.212524414 -0.0530090332
vn 0.896972656 -0.434082031 -0.0845947266
vn 0.891601562 -0.441650391 -0.09765625
vn 0.916992188 -0.342529297 -0.204711914
vn 0.92578125 -0.306884766 -0.219970703
vn 0.224121094 -0.178833008 0.958007812
vn 0.255615234 -0.225341797 0.939941406
vn 0.255615234 -0.225341797 0.939941406
vn 0.236572266 -0.197143555 0.951171875
vn -0.915527344 0.346191406 0.204467773
vn -0.943359375 0.205566406 0.260498047
vn -0.943359375 0.205566406 0.260498047
vn -0.92578125 0.307128906 0.220825195
vn -0.236328125 0.194213867 -0.952148438
vn -0.255371094 0.227294922 -0.939941406
vn -0.255371094 0.227294922 -0.939941406
vn -0.224609375 0.173950195 -0.958984375
vn 0.92578125 -0.306884766 -0.219970703
vn 0.943359375 -0.204467773 -0.260742188
vn 0.943359375 -0.204467773 -0.260742188
vn 0.916992188 -0.342529297 -0.204711914
vn -0.980957031 0.0395202637 0.188964844
vn -0.97265625 -0.0856933594 0.215209961
vn -0.980957031 0.0395202637 0.188964844
vn -0.970703125 -0.100585938 0.218139648
vn -0.927246094 -0.279296875 0.249145508
vn -0.927246094 -0.279296875 0.249145508
vn -0.201538086 -0.0140762329 -0.979492188
vn -0.19152832 -0.170166016 -0.966796875
vn -0.201538086 -0.0140762329 -0.979492188
vn -0.191772461 -0.166625977 -0.967285156
vn -0.170532227 -0.374023438 -0.911621094
vn -0.170532227 -0.374023438 -0.911621094
vn 0.981445312 -0.0369873047 -0.189208984
vn 0.971679688 0.0932617188 -0.217163086
vn 0.981445312 -0.0369873047 -0.189208984
vn 0.973632812 0.0772094727 -0.213989258
vn 0.934082031 0.258056641 -0.247436523
vn 0.934082031 0.258056641 -0.247436523
vn 0.201660156 0.0111923218 0.979492188
vn 0.193115234 0.16015625 0.968261719
vn 0.201660156 0.0111923218 0.979492188
vn 0.193115234 0.16003418 0.968261719
vn 0.174072266 0.360351562 0.916503906
vn 0.174072266 0.360351562 0.916503906
vn -0.246582031 0.962402344 -0.114929199
vn -0.246582031 0.962402344 -0.114929199
vn -0.246582031 0.962402344 -0.114929199
vn -0.246582031 0.962402344 -0.114929199
vn -0 1 0
vn -0 1 0
vn -0 1 0
vn -0 1 0
vn -0 1 0
vn -0 1 0
vn -0 1 0
vn -0 1 0
g Beam_Corner_1_0
f 3/3/3 2/2/2 1/1/1
f 4/4/4 3/3/3 1/1/1
f 7/7/7 6/6/6 5/5/5
f 8/8/8 7/7/7 5/5/5
f 11/11/11 10/10/10 9/9/9
f 12/12/12 11/11/11 9/9/9
f 15/15/15 14/14/14 13/13/13
f 16/16/16 15/15/15 13/13/13
f 19/19/19 18/18/18 17/17/17
f 20/20/20 19/19/19 17/17/17
f 23/23/23 22/22/22 21/21/21
f 24/24/24 23/23/23 21/21/21
f 27/27/27 26/26/26 25/25/25
f 28/28/28 27/27/27 25/25/25
f 31/31/31 30/30/30 29/29/29
f 32/32/32 31/31/31 29/29/29
f 35/35/35 34/34/34 33/33/33
f 36/36/36 35/35/35 33/33/33
f 39/39/39 38/38/38 37/37/37
f 40/40/40 39/39/39 37/37/37
f 43/43/43 42/42/42 41/41/41
f 44/44/44 43/43/43 41/41/41
f 47/47/47 46/46/46 45/45/45
f 48/48/48 47/47/47 45/45/45
f 51/51/51 50/50/50 49/49/49
f 52/52/52 51/51/51 49/49/49
f 55/55/55 54/54/54 53/53/53
f 56/56/56 55/55/55 53/53/53
f 59/59/59 58/58/58 57/57/57
f 60/60/60 59/59/59 57/57/57
f 63/63/63 62/62/62 61/61/61
f 64/64/64 63/63/63 61/61/61
f 67/67/67 66/66/66 65/65/65
f 68/68/68 67/67/67 65/65/65
f 71/71/71 70/70/70 69/69/69
f 72/72/72 71/71/71 69/69/69
f 75/75/75 74/74/74 73/73/73
f 76/76/76 75/75/75 73/73/73
f 79/79/79 78/78/78 77/77/77
f 80/80/80 79/79/79 77/77/77
f 83/83/83 82/82/82 81/81/81
f 84/84/84 83/83/83 81/81/81
f 87/87/87 86/86/86 85/85/85
f 86/86/86 88/88/88 85/85/85
f 86/86/86 89/89/89 88/88/88
f 89/89/89 90/90/90 88/88/88
f 89/89/89 91/91/91 90/90/90
f 91/91/91 92/92/92 90/90/90
f 95/95/95 94/94/94 93/93/93
f 94/94/94 96/96/96 93/93/93
f 94/94/94 97/97/97 96/96/96
f 97/97/97 98/98/98 96/96/96
f 97/97/97 99/99/99 98/98/98
f 99/99/99 100/100/100 98/98/98
f 103/103/103 102/102/102 101/101/101
f 102/102/102 104/104/104 101/101/101
f 102/102/102 105/105/105 104/104/104
f 105/105/105 106/106/106 104/104/104
f 105/105/105 107/107/107 106/106/106
f 107/107/107 108/108/108 106/106/106
f 111/111/111 110/110/110 109/109/109
f 110/110/110 112/112/112 109/109/109
f 110/110/110 113/113/113 112/112/112
f 113/113/113 114/114/114 112/112/112
f 113/113/113 115/115/115 114/114/114
f 115/115/115 116/116/116 114/114/114
f 119/119/119 118/118/118 117/117/117
f 120/120/120 119/119/119 117/117/117
f 123/123/123 122/122/122 121/121/121
f 124/124/124 123/123/123 121/121/121
f 127/127/127 126/126/126 125/125/125
f 128/128/128 127/127/127 125/125/125
f 131/131/131 130/130/130 129/129/129
f 132/132/132 131/131/131 129/129/129
f 135/135/135 134/134/134 133/133/133
f 134/134/134 136/136/136 133/133/133
f 134/134/134 137/137/137 136/136/136
f 137/137/137 138/138/138 136/136/136
f 141/141/141 140/140/140 139/139/139
f 140/140/140 142/142/142 139/139/139
f 140/140/140 143/143/143 142/142/142
f 143/143/143 144/144/144 142/142/142
f 147/147/147 146/146/146 145/145/145
f 146/146/146 148/148/148 145/145/145
f 146/146/146 149/149/149 148/148/148
f 149/149/149 150/150/150 148/148/148
f 153/153/153 152/152/152 151/151/151
f 152/152/152 154/154/154 151/151/151
f 152/152/152 155/155/155 154/154/154
f 155/155/155 156/156/156 154/154/154
f 159/159/159 158/158/158 157/157/157
f 160/160/160 159/159/159 157/157/157
f 163/163/163 162/162/162 161/161/161
f 162/162/162 164/164/164 161/161/161
f 165/165/165 162/162/162 163/163/163
f 161/161/161 164/164/164 166/166/166
f 167/167/167 165/165/165 163/163/163
f 164/164/164 168/168/168 166/166/166
f 168/168/168 165/165/165 167/167/167
f 166/166/166 168/168/168 167/167/167
