g Garage_FluorescentLamp_GlassOn
v 0.0335027389 0.0243661255 0.464268029
v 0.0335027389 0.0243661255 -0.464268029
v 0.0341985412 -0.0200796742 -0.464268029
v 0.0341985412 -0.0200796742 0.464268029
v 0.00350762298 -0.041178003 -0.464268029
v 0.00350762298 -0.041178003 0.464268029
v 0.00350762298 -0.041178003 0.464268029
v 0.00350762298 -0.041178003 -0.464268029
v -0.0346088298 -0.0196432732 -0.464268029
v -0.0346088298 -0.0196432732 0.464268029
v -0.0361688882 0.017593665 0.464268029
v -0.0346088298 -0.0196432732 0.464268029
v -0.0346088298 -0.0196432732 -0.464268029
v -0.0361688882 0.0175933596 -0.464268029
v -0.00323554082 0.0412417352 -0.464268029
v -0.00323554082 0.0412417352 0.464268029
v -0.0361688882 0.017593665 0.464268029
v -0.0361688882 0.0175933596 -0.464268029
v 0.0335027389 0.0243661255 -0.464268029
v 0.0335027389 0.0243661255 0.464268029
v -0.00323554082 0.0412417352 0.464268029
v -0.00323554082 0.0412417352 -0.464268029
vt 0.634765625 0.865722656
vt 0.366699219 0.865722656
vt 0.366699219 0.873046875
vt 0.634765625 0.873046875
vt 0.366699219 0.880859375
vt 0.634765625 0.880859375
vt 0.634765625 0.880859375
vt 0.366699219 0.880859375
vt 0.365966797 0.880859375
vt 0.634277344 0.880859375
vt 0.634277344 0.873046875
vt 0.634277344 0.880859375
vt 0.365966797 0.880859375
vt 0.365966797 0.873046875
vt 0.365966797 0.859863281
vt 0.634277344 0.859863281
vt 0.634277344 0.873046875
vt 0.365966797 0.873046875
vt 0.366699219 0.865722656
vt 0.634765625 0.865722656
vt 0.634765625 0.859375
vt 0.366699219 0.859375
vn 0.853515625 0.520996094 0
vn 0.853515625 0.520996094 0
vn 0.909179688 -0.416015625 0
vn 0.909179688 -0.416015625 0
vn -0.00634384155 -1 0
vn -0.00634384155 -1 0
vn -0.00634384155 -1 0
vn -0.00634384155 -1 0
vn -0.828613281 -0.559570312 0
vn -0.828613281 -0.559570312 0
vn -0.889160156 0.458007812 0
vn -0.828613281 -0.559570312 0
vn -0.828613281 -0.559570312 0
vn -0.889160156 0.458007812 0
vn -0.0967407227 0.995117188 0
vn -0.0967407227 0.995117188 0
vn -0.889160156 0.458007812 0
vn -0.889160156 0.458007812 0
vn 0.853515625 0.520996094 0
vn 0.853515625 0.520996094 0
vn -0.0967407227 0.995117188 0
vn -0.0967407227 0.995117188 0
g Garage_FluorescentLamp_GlassOn_0
f 3/3/3 2/2/2 1/1/1
f 4/4/4 3/3/3 1/1/1
f 5/5/5 3/3/3 4/4/4
f 6/6/6 5/5/5 4/4/4
f 9/9/9 8/8/8 7/7/7
f 10/10/10 9/9/9 7/7/7
f 13/13/13 12/12/12 11/11/11
f 14/14/14 13/13/13 11/11/11
f 17/17/17 16/16/16 15/15/15
f 18/18/18 17/17/17 15/15/15
f 21/21/21 20/20/20 19/19/19
f 22/22/22 21/21/21 19/19/19
