g Charlie_King_Crown
v 0.119423568 1.38893294 -0.106255934
v 0.125223994 1.40545738 -0.133290604
v 0.127808794 1.40703297 -0.12333817
v 0.116388455 1.38479543 -0.125652343
v 0.119689889 1.40501797 -0.140136212
v 0.114811435 1.37022543 -0.1090464
v 0.102084585 1.38415766 -0.145669565
v 0.111250944 1.36837566 -0.121084891
v 0.108102813 1.31570888 -0.0888014883
v 0.107079402 1.36783898 -0.13058652
v 0.104115747 1.31329656 -0.106549188
v 0.0937749818 1.31129432 -0.122753665
v 0.113660268 1.29611003 -0.0639664829
v 0.104709946 1.29191244 -0.106027469
v 0.0790310428 1.28844345 -0.140204236
v 0.108471103 1.19945586 -0.101398304
v 0.0850252882 1.1958009 -0.137176514
v 0.121523559 1.20393479 -0.0568965115
v 0.119367175 1.20872569 -0.00947261881
v 0.111789837 1.30038154 -0.0209220629
v 0.0317338146 1.37930512 -0.188996285
v 0.00748076197 1.39902067 -0.207146659
v 0.0170581974 1.39893472 -0.205651864
v 0.0068914541 1.37811506 -0.196540102
v -0.000889913295 1.39961994 -0.206119239
v 0.0173590947 1.36197293 -0.187403217
v -0.0185825936 1.38121295 -0.190260693
v 0.00599053921 1.36176097 -0.189723983
v 0.024432417 1.3059845 -0.172388554
v -0.0055782916 1.36284125 -0.187971562
v 0.00630152132 1.30573642 -0.174822628
v -0.0120397424 1.30591786 -0.172982499
v 0.0462374128 1.28629768 -0.161712736
v 0.00622485997 1.28541827 -0.17078799
v -0.03462689 1.28616798 -0.163028538
v 0.00648344913 1.1925391 -0.169735238
v -0.0364409909 1.19325638 -0.162452877
v 0.0485537313 1.19337928 -0.161095306
v 0.0850252882 1.1958009 -0.137176514
v 0.0790310428 1.28844345 -0.140204236
v -0.0945059434 1.38483155 -0.138978854
v -0.113777012 1.40632772 -0.13113457
v -0.109281138 1.40621316 -0.135234922
v -0.10647238 1.38487566 -0.124010816
v -0.116677143 1.40696323 -0.124499373
v -0.0991192535 1.3670435 -0.132246509
v -0.11239548 1.38786888 -0.104974397
v -0.101672806 1.36804402 -0.121165909
v -0.0883853212 1.31033349 -0.128100708
v -0.106176026 1.36994457 -0.10917294
v -0.094946593 1.31209624 -0.110929683
v -0.103380747 1.31390226 -0.0926210284
v -0.0697236583 1.28815031 -0.142475039
v -0.0934285372 1.2916894 -0.107862368
v -0.109098479 1.29592764 -0.0654795468
v -0.0998019055 1.19933534 -0.102826364
v -0.116939574 1.20377815 -0.0586302616
v -0.0752836615 1.1955806 -0.139600933
v -0.0364409909 1.19325638 -0.162452877
v -0.03462689 1.28616798 -0.163028538
v -0.117620803 1.39577627 -0.00892896391
v -0.121055752 1.42376971 0.0210787784
v -0.122751698 1.42332923 0.0112979719
v -0.11196699 1.39685571 0.0185860265
v -0.114682458 1.42477882 0.0281841625
v -0.111899354 1.38154507 0.00569245359
v -0.0946296453 1.39976084 0.0389357172
v -0.108328216 1.38217127 0.0179374982
v -0.107763387 1.32321 0.000733583583
v -0.101198629 1.38338912 0.0279620755
v -0.10109394 1.32507515 0.019208204
v -0.090823628 1.32673979 0.0355171375
v -0.11119356 1.30016637 -0.022368988
v -0.0995213315 1.30443966 0.0203738548
v -0.0789354965 1.30783045 0.0534940399
v -0.106011026 1.21310043 0.0332617052
v -0.0849717781 1.21661544 0.0685288534
v -0.119072609 1.20858133 -0.0111950142
v -0.116939574 1.20377815 -0.0586302616
v -0.109098479 1.29592764 -0.0654795468
v -0.0302344821 1.41134167 0.0824811086
v -0.0070574237 1.43265665 0.0933947563
v -0.0146180112 1.43239629 0.0911541432
v -0.00572463218 1.41197681 0.0901410431
v -0.00289817643 1.43248558 0.0925912634
v -0.0172965992 1.388726 0.0855622292
v 0.0188392792 1.40682328 0.0821533427
v -0.00598546723 1.38899112 0.0878409669
v -0.023345096 1.33097959 0.0771895051
v 0.00554541219 1.38910723 0.0859746188
v -0.00514221611 1.33123815 0.0796158984
v 0.0132869277 1.33096051 0.0779444352
v -0.0460682921 1.31001949 0.0750605464
v -0.00597798964 1.31093836 0.084195964
v 0.0349919833 1.31007087 0.0765016302
v -0.0064550736 1.21993089 0.101071037
v 0.0364135727 1.21916485 0.0938186347
v -0.0485082082 1.21902084 0.0924423411
v -0.0849717781 1.21661544 0.0685288534
v -0.0789354965 1.30783045 0.0534940399
v 0.0856666192 1.40268779 0.0365846343
v 0.10908892 1.42079818 0.0204718523
v 0.103679717 1.42232907 0.0278402232
v 0.104010813 1.39893043 0.0177705679
v 0.111790329 1.42158508 0.0164002459
v 0.0938268304 1.38357115 0.0263116844
v 0.114720821 1.39714396 -0.00907012355
v 0.0999821052 1.38202214 0.016557036
v 0.0823495239 1.32694602 0.0356451683
v 0.105830029 1.3810997 0.00479668472
v 0.094152458 1.32532859 0.0195802916
v 0.0998803228 1.32331026 0.000743681972
v 0.0699010417 1.30822051 0.055490341
v 0.0987994298 1.30486548 0.0219561812
v 0.111789837 1.30038154 -0.0209220629
v 0.102230027 1.21320021 0.0347115584
v 0.119367175 1.20872569 -0.00947261881
v 0.0752726346 1.21683896 0.0710211992
v 0.0364135727 1.21916485 0.0938186347
v 0.0349919833 1.31007087 0.0765016302
v 0.0066541722 1.21972704 -0.183522776
v -0.0379848592 1.28476274 -0.174200371
v -0.0403133854 1.22053456 -0.175521523
v 0.00642985106 1.28363919 -0.182433158
v 0.052826155 1.2206887 -0.173995495
v -0.0137070753 1.30392027 -0.184241652
v 0.050045941 1.28490818 -0.172758088
v 0.0926248655 1.22332299 -0.147897437
v 0.0065023466 1.30368531 -0.18634899
v -0.00789954327 1.35890079 -0.199693695
v 0.0876687393 1.2873888 -0.14809899
v 0.0264910795 1.30398679 -0.183583036
v 0.118382871 1.22724986 -0.10899543
v 0.00614002859 1.35756576 -0.201847315
v -0.0215491056 1.37655354 -0.201565072
v 0.0199681241 1.35784543 -0.198996469
v 0.112434633 1.29076922 -0.111674488
v 0.132442489 1.23209715 -0.0609755144
v 0.103193335 1.30906141 -0.129052371
v 0.00698166527 1.37304509 -0.208467722
v -0.00386482244 1.39420772 -0.217011005
v 0.034869954 1.37441826 -0.200150833
v 0.00750145921 1.39316607 -0.218622878
v 0.0200721677 1.39330113 -0.216412157
v 0.125191912 1.29564416 -0.0659739375
v 0.130134374 1.2372303 -0.0101213725
v 0.111689091 1.31116557 -0.112039186
v 0.114044085 1.3635869 -0.137900472
v 0.123096935 1.30042565 -0.0178650133
v 0.119018421 1.31388652 -0.0921039432
v 0.111739933 1.24202383 0.0373668373
v 0.122420527 1.36435437 -0.125910968
v 0.108363613 1.37903965 -0.153350428
v 0.126612127 1.36664951 -0.111638695
v 0.106075667 1.30484903 0.0273370426
v 0.0824426785 1.24596834 0.0764444694
v 0.110517144 1.32295656 0.00524302991
v 0.127477691 1.37981045 -0.130253658
v 0.128351927 1.39916384 -0.147041738
v 0.131176978 1.38462245 -0.107802406
v 0.13590315 1.39953494 -0.137591004
v 0.139135048 1.40180182 -0.124481745
v 0.0780238509 1.30881858 0.0639241338
v 0.0403358452 1.24846745 0.10120064
v 0.0383502506 1.31090021 0.0877376199
v 0.10135939 1.32504928 0.0249573812
v 0.116892904 1.37873268 0.0103404718
v 0.0913835019 1.32686675 0.0428476408
v 0.110110618 1.37978315 0.0240182877
v 0.125936747 1.39431858 -0.00409824355
v 0.099638693 1.38152683 0.0346875712
v 0.1141368 1.39605892 0.0251850542
v 0.122904398 1.4183383 0.0213014353
v 0.0938230753 1.4000181 0.045806963
v 0.11907988 1.41732645 0.0277433638
v 0.11170654 1.41892445 0.0368699543
v -0.0403133854 1.22053456 -0.175521523
v -0.0379848592 1.28476274 -0.174200371
v -0.0778382048 1.28703797 -0.150872961
v -0.082420215 1.22303367 -0.150765374
v -0.103531346 1.29052711 -0.113698311
v -0.109327078 1.22702813 -0.111191027
v -0.104987815 1.31068695 -0.116699755
v -0.0974273458 1.30880642 -0.135130942
v -0.120404027 1.29535627 -0.0684671551
v -0.127721533 1.23182166 -0.0637028143
v -0.11403767 1.31266439 -0.0969107747
v -0.122727402 1.3000952 -0.0203314722
v -0.117697932 1.36663008 -0.112952776
v -0.130029634 1.23695517 -0.0128486231
v -0.112487547 1.36473358 -0.127229705
v -0.103254393 1.36407912 -0.139107257
v -0.123842902 1.38383806 -0.108244412
v -0.116963692 1.38063252 -0.130532056
v -0.12784332 1.40225112 -0.127638116
v -0.097398676 1.38105953 -0.146820232
v -0.123755865 1.40101516 -0.137557864
v -0.116607264 1.40108001 -0.143999502
v -0.110062838 1.30437446 0.0255470052
v -0.115970045 1.24180222 0.0351713113
v -0.111573122 1.32478261 0.0243666042
v -0.118761592 1.32277858 0.00425174925
v -0.0875645727 1.30834985 0.0614458397
v -0.0873969048 1.2457881 0.0746582523
v -0.100326546 1.32659829 0.0420910344
v -0.0498797484 1.31084442 0.0861577392
v -0.111127958 1.38144696 0.0354421549
v -0.0528037101 1.24831331 0.0996746421
v -0.119598567 1.37999475 0.0235752519
v -0.123788618 1.37927341 0.00912725274
v -0.103909887 1.39717281 0.0470209792
v -0.12320628 1.39389122 0.024295792
v -0.123610817 1.42152286 0.0363496952
v -0.12953721 1.39277351 -0.00624490529
v -0.132091403 1.42006826 0.0267533828
v -0.134481579 1.41965675 0.0137550393
v -0.00620200206 1.31150222 0.09595716
v -0.00663171662 1.24927509 0.109201893
v 0.0383502506 1.31090021 0.0877376199
v 0.0403358452 1.24846745 0.10120064
v 0.0148874214 1.33127689 0.0893868655
v -0.00537635805 1.33156204 0.0913140774
v -0.0254018456 1.33129478 0.0885578841
v 0.00792219397 1.38890123 0.0983626097
v -0.00614750106 1.38873351 0.100710876
v -0.0199804697 1.38843763 0.0978749469
v 0.0220971368 1.40581012 0.0942674577
v -0.00583751965 1.4107914 0.103145257
v 0.000424974132 1.43093407 0.104602166
v -0.0337047949 1.41015315 0.0945222974
v -0.00720753474 1.43084002 0.106323197
v -0.01821867 1.43058968 0.103042521
v 0.0066541722 1.21972704 -0.183522776
v -0.0403133854 1.22053456 -0.175521523
v -0.0382258706 1.21679592 -0.1690761
v 0.00648706965 1.21603465 -0.176681235
v 0.052826155 1.2206887 -0.173995495
v 0.0503933653 1.21693611 -0.167633653
v 0.0926248655 1.22332299 -0.147897437
v 0.088312529 1.2194488 -0.142768085
v 0.118382871 1.22724986 -0.10899543
v 0.11275854 1.22321022 -0.105661042
v 0.132442489 1.23209715 -0.0609755144
v 0.126221105 1.2278434 -0.0597134866
v 0.130134374 1.2372303 -0.0101213725
v 0.12400648 1.23276734 -0.010947546
v 0.111739933 1.24202383 0.0373668373
v 0.106372759 1.2373662 0.0345574692
v 0.0824426785 1.24596834 0.0764444694
v 0.0784591287 1.24113524 0.0719927922
v 0.0403358452 1.24846745 0.10120064
v 0.0382384621 1.24353433 0.0970177501
v -0.0403133854 1.22053456 -0.175521523
v -0.0784441903 1.21918941 -0.145428866
v -0.0382258706 1.21679592 -0.1690761
v -0.082420215 1.22303367 -0.150765374
v -0.103957511 1.22303224 -0.10751088
v -0.109327078 1.22702813 -0.111191027
v -0.121595226 1.22761941 -0.0620009005
v -0.127721533 1.23182166 -0.0637028143
v -0.123806745 1.232548 -0.0132287843
v -0.130029634 1.23695517 -0.0128486231
v -0.110344194 1.23719656 0.0327097848
v -0.115970045 1.24180222 0.0351713113
v -0.0830857009 1.24098516 0.0704034865
v -0.0873969048 1.2457881 0.0746582523
v -0.0503695235 1.24338698 0.095575735
v -0.0528037101 1.24831331 0.0996746421
v -0.00646143453 1.24431419 0.104620151
v -0.00663171662 1.24927509 0.109201893
v 0.0382384621 1.24353433 0.0970177501
v 0.0403358452 1.24846745 0.10120064
v -0.0778382048 1.28703797 -0.150872961
v -0.0379848592 1.28476274 -0.174200371
v -0.03462689 1.28616798 -0.163028538
v -0.0697236583 1.28815031 -0.142475039
v -0.0974273458 1.30880642 -0.135130942
v -0.0883853212 1.31033349 -0.128100708
v -0.103254393 1.36407912 -0.139107257
v -0.0991192535 1.3670435 -0.132246509
v -0.097398676 1.38105953 -0.146820232
v -0.0945059434 1.38483155 -0.138978854
v -0.116607264 1.40108001 -0.143999502
v -0.109281138 1.40621316 -0.135234922
v 0.0780238509 1.30881858 0.0639241338
v 0.0383502506 1.31090021 0.0877376199
v 0.0349919833 1.31007087 0.0765016302
v 0.0699010417 1.30822051 0.055490341
v 0.0913835019 1.32686675 0.0428476408
v 0.0823495239 1.32694602 0.0356451683
v 0.099638693 1.38152683 0.0346875712
v 0.0938268304 1.38357115 0.0263116844
v 0.0938230753 1.4000181 0.045806963
v 0.0856666192 1.40268779 0.0365846343
v 0.11170654 1.41892445 0.0368699543
v 0.103679717 1.42232907 0.0278402232
v -0.0379848592 1.28476274 -0.174200371
v -0.0120397424 1.30591786 -0.172982499
v -0.03462689 1.28616798 -0.163028538
v -0.0137070753 1.30392027 -0.184241652
v -0.0055782916 1.36284125 -0.187971562
v -0.00789954327 1.35890079 -0.199693695
v -0.0185825936 1.38121295 -0.190260693
v -0.0215491056 1.37655354 -0.201565072
v -0.000889913295 1.39961994 -0.206119239
v -0.00386482244 1.39420772 -0.217011005
v 0.0383502506 1.31090021 0.0877376199
v 0.0132869277 1.33096051 0.0779444352
v 0.0349919833 1.31007087 0.0765016302
v 0.0148874214 1.33127689 0.0893868655
v 0.00554541219 1.38910723 0.0859746188
v 0.00792219397 1.38890123 0.0983626097
v 0.0188392792 1.40682328 0.0821533427
v 0.0220971368 1.40581012 0.0942674577
v -0.00289817643 1.43248558 0.0925912634
v 0.000424974132 1.43093407 0.104602166
v 0.13590315 1.39953494 -0.137591004
v 0.139135048 1.40180182 -0.124481745
v 0.127808794 1.40703297 -0.12333817
v 0.125223994 1.40545738 -0.133290604
v 0.128351927 1.39916384 -0.147041738
v 0.119689889 1.40501797 -0.140136212
v 0.139135048 1.40180182 -0.124481745
v 0.119423568 1.38893294 -0.106255934
v 0.127808794 1.40703297 -0.12333817
v 0.131176978 1.38462245 -0.107802406
v 0.114811435 1.37022543 -0.1090464
v 0.126612127 1.36664951 -0.111638695
v 0.108102813 1.31570888 -0.0888014883
v 0.119018421 1.31388652 -0.0921039432
v 0.113660268 1.29611003 -0.0639664829
v 0.125191912 1.29564416 -0.0659739375
v 0.111789837 1.30038154 -0.0209220629
v 0.123096935 1.30042565 -0.0178650133
v 0.0998803228 1.32331026 0.000743681972
v 0.110517144 1.32295656 0.00524302991
v 0.105830029 1.3810997 0.00479668472
v 0.116892904 1.37873268 0.0103404718
v 0.114720821 1.39714396 -0.00907012355
v 0.125936747 1.39431858 -0.00409824355
v 0.111790329 1.42158508 0.0164002459
v 0.122904398 1.4183383 0.0213014353
v 0.108363613 1.37903965 -0.153350428
v 0.128351927 1.39916384 -0.147041738
v 0.119689889 1.40501797 -0.140136212
v 0.102084585 1.38415766 -0.145669565
v 0.114044085 1.3635869 -0.137900472
v 0.107079402 1.36783898 -0.13058652
v 0.103193335 1.30906141 -0.129052371
v 0.0937749818 1.31129432 -0.122753665
v 0.0876687393 1.2873888 -0.14809899
v 0.0790310428 1.28844345 -0.140204236
v 0.050045941 1.28490818 -0.172758088
v 0.0462374128 1.28629768 -0.161712736
v 0.0264910795 1.30398679 -0.183583036
v 0.024432417 1.3059845 -0.172388554
v 0.0199681241 1.35784543 -0.198996469
v 0.0173590947 1.36197293 -0.187403217
v 0.034869954 1.37441826 -0.200150833
v 0.0317338146 1.37930512 -0.188996285
v 0.0200721677 1.39330113 -0.216412157
v 0.0170581974 1.39893472 -0.205651864
v 0.00750145921 1.39316607 -0.218622878
v 0.0200721677 1.39330113 -0.216412157
v 0.0170581974 1.39893472 -0.205651864
v 0.00748076197 1.39902067 -0.207146659
v -0.00386482244 1.39420772 -0.217011005
v -0.000889913295 1.39961994 -0.206119239
v -0.123755865 1.40101516 -0.137557864
v -0.116607264 1.40108001 -0.143999502
v -0.109281138 1.40621316 -0.135234922
v -0.113777012 1.40632772 -0.13113457
v -0.12784332 1.40225112 -0.127638116
v -0.116677143 1.40696323 -0.124499373
v -0.123842902 1.38383806 -0.108244412
v -0.12784332 1.40225112 -0.127638116
v -0.116677143 1.40696323 -0.124499373
v -0.11239548 1.38786888 -0.104974397
v -0.117697932 1.36663008 -0.112952776
v -0.106176026 1.36994457 -0.10917294
v -0.11403767 1.31266439 -0.0969107747
v -0.103380747 1.31390226 -0.0926210284
v -0.120404027 1.29535627 -0.0684671551
v -0.109098479 1.29592764 -0.0654795468
v -0.122727402 1.3000952 -0.0203314722
v -0.11119356 1.30016637 -0.022368988
v -0.118761592 1.32277858 0.00425174925
v -0.107763387 1.32321 0.000733583583
v -0.123788618 1.37927341 0.00912725274
v -0.111899354 1.38154507 0.00569245359
v -0.12953721 1.39277351 -0.00624490529
v -0.117620803 1.39577627 -0.00892896391
v -0.134481579 1.41965675 0.0137550393
v -0.122751698 1.42332923 0.0112979719
v -0.132091403 1.42006826 0.0267533828
v -0.134481579 1.41965675 0.0137550393
v -0.122751698 1.42332923 0.0112979719
v -0.121055752 1.42376971 0.0210787784
v -0.123610817 1.42152286 0.0363496952
v -0.114682458 1.42477882 0.0281841625
v -0.103909887 1.39717281 0.0470209792
v -0.123610817 1.42152286 0.0363496952
v -0.114682458 1.42477882 0.0281841625
v -0.0946296453 1.39976084 0.0389357172
v -0.111127958 1.38144696 0.0354421549
v -0.101198629 1.38338912 0.0279620755
v -0.100326546 1.32659829 0.0420910344
v -0.090823628 1.32673979 0.0355171375
v -0.0875645727 1.30834985 0.0614458397
v -0.0789354965 1.30783045 0.0534940399
v -0.0498797484 1.31084442 0.0861577392
v -0.0460682921 1.31001949 0.0750605464
v -0.0254018456 1.33129478 0.0885578841
v -0.023345096 1.33097959 0.0771895051
v -0.0199804697 1.38843763 0.0978749469
v -0.0172965992 1.388726 0.0855622292
v -0.0337047949 1.41015315 0.0945222974
v -0.0302344821 1.41134167 0.0824811086
v -0.01821867 1.43058968 0.103042521
v -0.0146180112 1.43239629 0.0911541432
v -0.00720753474 1.43084002 0.106323197
v -0.01821867 1.43058968 0.103042521
v -0.0146180112 1.43239629 0.0911541432
v -0.0070574237 1.43265665 0.0933947563
v 0.000424974132 1.43093407 0.104602166
v -0.00289817643 1.43248558 0.0925912634
v 0.11907988 1.41732645 0.0277433638
v 0.11170654 1.41892445 0.0368699543
v 0.103679717 1.42232907 0.0278402232
v 0.10908892 1.42079818 0.0204718523
v 0.122904398 1.4183383 0.0213014353
v 0.111790329 1.42158508 0.0164002459
v 0.0414145626 1.22091508 0.108962521
v 0.0364135727 1.21916485 0.0938186347
v -0.0064550736 1.21993089 0.101071037
v -0.00698544318 1.22175777 0.117178239
v -0.0485082082 1.21902084 0.0924423411
v -0.0545342714 1.22075415 0.107389241
v -0.0904048607 1.21814752 0.0815334544
v -0.0849717781 1.21661544 0.0685288534
v -0.106011026 1.21310043 0.0332617052
v -0.119905919 1.21404564 0.0407239199
v -0.119072609 1.20858133 -0.0111950142
v -0.134486362 1.20901525 -0.00899098441
v -0.116939574 1.20377815 -0.0586302616
v -0.132106334 1.2036798 -0.0617902018
v -0.0998019055 1.19933534 -0.102826364
v -0.113022454 1.19871449 -0.111052088
v -0.0752836615 1.1955806 -0.139600933
v -0.0849850774 1.19456255 -0.152021438
v -0.0364409909 1.19325638 -0.162452877
v -0.041425474 1.19196904 -0.177644268
v 0.0849866644 1.21832311 0.0833797529
v 0.0364135727 1.21916485 0.0938186347
v 0.0414145626 1.22091508 0.108962521
v 0.0752726346 1.21683896 0.0710211992
v 0.115446538 1.21424735 0.0428988822
v 0.102230027 1.21320021 0.0347115584
v 0.134536639 1.20926952 -0.00635938765
v 0.119367175 1.20872569 -0.00947261881
v 0.136934787 1.20393848 -0.0591575466
v 0.121523559 1.20393479 -0.0568965115
v 0.12236347 1.1989224 -0.108902447
v 0.108471103 1.19945586 -0.101398304
v 0.0956657454 1.19484365 -0.149144262
v 0.0850252882 1.1958009 -0.137176514
v 0.05457744 1.19212067 -0.176090375
v 0.0485537313 1.19337928 -0.161095306
v 0.00700848224 1.19114423 -0.185885385
v 0.00648344913 1.1925391 -0.169735238
v -0.041425474 1.19196904 -0.177644268
v -0.0364409909 1.19325638 -0.162452877
v 0.0382384621 1.24353433 0.0970177501
v 0.0414145626 1.22091508 0.108962521
v -0.00698544318 1.22175777 0.117178239
v -0.00646143453 1.24431419 0.104620151
v -0.0545342714 1.22075415 0.107389241
v -0.0503695235 1.24338698 0.095575735
v -0.0904048607 1.21814752 0.0815334544
v -0.0830857009 1.24098516 0.0704034865
v -0.119905919 1.21404564 0.0407239199
v -0.110344194 1.23719656 0.0327097848
v -0.134486362 1.20901525 -0.00899098441
v -0.123806745 1.232548 -0.0132287843
v -0.132106334 1.2036798 -0.0617902018
v -0.121595226 1.22761941 -0.0620009005
v -0.113022454 1.19871449 -0.111052088
v -0.103957511 1.22303224 -0.10751088
v -0.0849850774 1.19456255 -0.152021438
v -0.0784441903 1.21918941 -0.145428866
v -0.041425474 1.19196904 -0.177644268
v -0.0382258706 1.21679592 -0.1690761
v 0.0784591287 1.24113524 0.0719927922
v 0.0414145626 1.22091508 0.108962521
v 0.0382384621 1.24353433 0.0970177501
v 0.0849866644 1.21832311 0.0833797529
v 0.106372759 1.2373662 0.0345574692
v 0.115446538 1.21424735 0.0428988822
v 0.12400648 1.23276734 -0.010947546
v 0.134536639 1.20926952 -0.00635938765
v 0.126221105 1.2278434 -0.0597134866
v 0.136934787 1.20393848 -0.0591575466
v 0.11275854 1.22321022 -0.105661042
v 0.12236347 1.1989224 -0.108902447
v 0.088312529 1.2194488 -0.142768085
v 0.0956657454 1.19484365 -0.149144262
v 0.0503933653 1.21693611 -0.167633653
v 0.05457744 1.19212067 -0.176090375
v 0.00648706965 1.21603465 -0.176681235
v 0.00700848224 1.19114423 -0.185885385
v -0.0382258706 1.21679592 -0.1690761
v -0.041425474 1.19196904 -0.177644268
vt 0.969238281 0.709472656
vt 0.9609375 0.720703125
vt 0.965332031 0.720214844
vt 0.960449219 0.710449219
vt 0.95703125 0.721191406
vt 0.965332031 0.701660156
vt 0.949707031 0.7109375
vt 0.959960938 0.702148438
vt 0.967773438 0.67578125
vt 0.955566406 0.703125
vt 0.959472656 0.676757812
vt 0.950683594 0.677246094
vt 0.977050781 0.665039062
vt 0.958007812 0.666992188
vt 0.938964844 0.669433594
vt 0.952148438 0.626464844
vt 0.933105469 0.628417969
vt 0.97265625 0.624023438
vt 0.993652344 0.622558594
vt 0.99609375 0.663574219
vt 0.94921875 0.612792969
vt 0.937988281 0.624023438
vt 0.941894531 0.624023438
vt 0.9375 0.613769531
vt 0.934082031 0.624023438
vt 0.942382812 0.60546875
vt 0.92578125 0.613769531
vt 0.937011719 0.60546875
vt 0.9453125 0.579589844
vt 0.932128906 0.605957031
vt 0.9375 0.579589844
vt 0.929199219 0.579589844
vt 0.955566406 0.5703125
vt 0.9375 0.5703125
vt 0.918945312 0.5703125
vt 0.9375 0.528808594
vt 0.91796875 0.529296875
vt 0.956542969 0.528808594
vt 0.976074219 0.529785156
vt 0.973144531 0.571289062
vt 0.0409851074 0.985839844
vt 0.0327758789 0.99609375
vt 0.0354614258 0.995605469
vt 0.0323791504 0.985351562
vt 0.0295562744 0.99609375
vt 0.0377502441 0.977539062
vt 0.0233612061 0.985351562
vt 0.0327148438 0.977539062
vt 0.040435791 0.952148438
vt 0.0269622803 0.977539062
vt 0.0322265625 0.951660156
vt 0.023223877 0.951660156
vt 0.0509643555 0.942382812
vt 0.0321655273 0.942382812
vt 0.0118408203 0.942871094
vt 0.0321655273 0.900878906
vt 0.0110092163 0.901367188
vt 0.0519104004 0.900878906
vt 0.0720214844 0.901855469
vt 0.0690917969 0.942871094
vt 0.0362854004 0.158813477
vt 0.0232391357 0.171630859
vt 0.027633667 0.171508789
vt 0.023727417 0.158935547
vt 0.0189971924 0.171264648
vt 0.0296478271 0.15222168
vt 0.0117416382 0.158203125
vt 0.0239715576 0.152099609
vt 0.0334472656 0.126342773
vt 0.0184631348 0.151855469
vt 0.0246734619 0.126342773
vt 0.0160675049 0.126220703
vt 0.0447387695 0.117248535
vt 0.0248565674 0.11706543
vt 0.00738525391 0.116943359
vt 0.0248565674 0.0757446289
vt 0.00649261475 0.0756835938
vt 0.0455322266 0.0760498047
vt 0.0667724609 0.076965332
vt 0.0640869141 0.118164062
vt 0.625488281 0.133789062
vt 0.614746094 0.143920898
vt 0.618164062 0.143676758
vt 0.614257812 0.134521484
vt 0.612792969 0.143798828
vt 0.619628906 0.123962402
vt 0.603027344 0.131835938
vt 0.614257812 0.124206543
vt 0.622070312 0.0980834961
vt 0.609375 0.124145508
vt 0.614257812 0.0981445312
vt 0.605957031 0.0980834961
vt 0.6328125 0.089050293
vt 0.614257812 0.0888061523
vt 0.595703125 0.0891113281
vt 0.614257812 0.0475463867
vt 0.594726562 0.0478820801
vt 0.633300781 0.0477294922
vt 0.652832031 0.048614502
vt 0.650390625 0.08984375
vt 0.577636719 0.0866699219
vt 0.566894531 0.0970458984
vt 0.570800781 0.0971679688
vt 0.565917969 0.0869750977
vt 0.564453125 0.09765625
vt 0.5703125 0.0792236328
vt 0.552734375 0.0872192383
vt 0.565429688 0.0791625977
vt 0.573730469 0.0534973145
vt 0.559570312 0.0794067383
vt 0.564941406 0.0536804199
vt 0.556152344 0.0538635254
vt 0.583496094 0.0442504883
vt 0.563964844 0.0442810059
vt 0.543945312 0.0448608398
vt 0.563964844 0.00304222107
vt 0.542480469 0.00352668762
vt 0.583984375 0.00287055969
vt 0.604003906 0.00342750549
vt 0.6015625 0.0446166992
vt 0.811035156 0.218261719
vt 0.796875 0.258544922
vt 0.827636719 0.239624023
vt 0.778320312 0.23840332
vt 0.797363281 0.196411133
vt 0.776855469 0.255859375
vt 0.763671875 0.213378906
vt 0.786132812 0.172485352
vt 0.768554688 0.245605469
vt 0.748046875 0.273925781
vt 0.750976562 0.184936523
vt 0.761230469 0.234985352
vt 0.777832031 0.14831543
vt 0.742675781 0.266601562
vt 0.742675781 0.285400391
vt 0.737304688 0.259521484
vt 0.741210938 0.157470703
vt 0.772460938 0.121582031
vt 0.732421875 0.171508789
vt 0.734863281 0.272949219
vt 0.727539062 0.287109375
vt 0.725097656 0.261962891
vt 0.724121094 0.281738281
vt 0.719238281 0.276367188
vt 0.736328125 0.126220703
vt 0.770507812 0.0930175781
vt 0.729492188 0.159179688
vt 0.698730469 0.176269531
vt 0.734863281 0.092956543
vt 0.726074219 0.145263672
vt 0.772460938 0.0649414062
vt 0.697265625 0.167114258
vt 0.688964844 0.183227539
vt 0.6953125 0.157836914
vt 0.734863281 0.0613708496
vt 0.777832031 0.0382385254
vt 0.722167969 0.0733642578
vt 0.687011719 0.168701172
vt 0.674804688 0.178955078
vt 0.68359375 0.156738281
vt 0.673828125 0.172119141
vt 0.671875 0.164672852
vt 0.740234375 0.0325012207
vt 0.786132812 0.0110473633
vt 0.749023438 0.00501251221
vt 0.723144531 0.0588684082
vt 0.689453125 0.0640869141
vt 0.725097656 0.0454711914
vt 0.690917969 0.0543823242
vt 0.677734375 0.0682373047
vt 0.691894531 0.0447387695
vt 0.680664062 0.0531921387
vt 0.665527344 0.0553588867
vt 0.680664062 0.0389099121
vt 0.666992188 0.0512390137
vt 0.666992188 0.0444641113
vt 0.96875 0.0218353271
vt 0.933105469 0.00888061523
vt 0.919433594 0.0343322754
vt 0.955566406 0.0470275879
vt 0.909179688 0.0617370605
vt 0.9453125 0.0719604492
vt 0.897949219 0.0584106445
vt 0.901367188 0.0459899902
vt 0.902832031 0.0932006836
vt 0.938476562 0.0994262695
vt 0.894042969 0.0720825195
vt 0.898925781 0.126464844
vt 0.86328125 0.0573730469
vt 0.935058594 0.127929688
vt 0.866210938 0.048248291
vt 0.869140625 0.0392150879
vt 0.852050781 0.056854248
vt 0.856933594 0.0455627441
vt 0.841308594 0.0462036133
vt 0.859863281 0.0329589844
vt 0.844238281 0.0405883789
vt 0.845214844 0.0352783203
vt 0.8984375 0.158203125
vt 0.935546875 0.155395508
vt 0.886230469 0.159057617
vt 0.885742188 0.145019531
vt 0.902832031 0.186035156
vt 0.939941406 0.181762695
vt 0.887695312 0.172851562
vt 0.911132812 0.216064453
vt 0.853515625 0.170654297
vt 0.946777344 0.204711914
vt 0.853027344 0.161132812
vt 0.852050781 0.151489258
vt 0.84375 0.177001953
vt 0.844726562 0.161743164
vt 0.827148438 0.170043945
vt 0.841796875 0.146118164
vt 0.827636719 0.162841797
vt 0.826660156 0.155517578
vt 0.920898438 0.243041992
vt 0.956542969 0.228759766
vt 0.935546875 0.266113281
vt 0.969238281 0.252685547
vt 0.916992188 0.260742188
vt 0.910644531 0.248901367
vt 0.904785156 0.236816406
vt 0.884765625 0.273193359
vt 0.880371094 0.265380859
vt 0.876464844 0.257568359
vt 0.877929688 0.283447266
vt 0.868652344 0.271972656
vt 0.859375 0.281738281
vt 0.861816406 0.259277344
vt 0.857910156 0.27734375
vt 0.854003906 0.271728516
vt 0.811035156 0.218261719
vt 0.827636719 0.239624023
vt 0.831054688 0.236694336
vt 0.814941406 0.215820312
vt 0.797363281 0.196411133
vt 0.801269531 0.194213867
vt 0.786132812 0.172485352
vt 0.790039062 0.170776367
vt 0.777832031 0.14831543
vt 0.782226562 0.147094727
vt 0.772460938 0.121582031
vt 0.776855469 0.120910645
vt 0.770507812 0.0930175781
vt 0.774902344 0.0930175781
vt 0.772460938 0.0649414062
vt 0.776855469 0.0654907227
vt 0.777832031 0.0382385254
vt 0.782226562 0.0392150879
vt 0.786132812 0.0110473633
vt 0.790039062 0.0123062134
vt 0.96875 0.0218353271
vt 0.959472656 0.0488586426
vt 0.97265625 0.0243682861
vt 0.955566406 0.0470275879
vt 0.949707031 0.073425293
vt 0.9453125 0.0719604492
vt 0.942871094 0.100219727
vt 0.938476562 0.0994262695
vt 0.939453125 0.128051758
vt 0.935058594 0.127929688
vt 0.939941406 0.155029297
vt 0.935546875 0.155395508
vt 0.944335938 0.180664062
vt 0.939941406 0.181762695
vt 0.950683594 0.203735352
vt 0.946777344 0.204711914
vt 0.960449219 0.227294922
vt 0.956542969 0.228759766
vt 0.97265625 0.250488281
vt 0.969238281 0.252685547
vt 0.919433594 0.0343322754
vt 0.933105469 0.00888061523
vt 0.926757812 0.00700378418
vt 0.915527344 0.0285491943
vt 0.901367188 0.0459899902
vt 0.900878906 0.0392150879
vt 0.869140625 0.0392150879
vt 0.869628906 0.0340270996
vt 0.859863281 0.0329589844
vt 0.859863281 0.02784729
vt 0.845214844 0.0352783203
vt 0.844238281 0.0279083252
vt 0.740234375 0.0325012207
vt 0.749023438 0.00501251221
vt 0.742675781 0.00449752808
vt 0.735351562 0.0281677246
vt 0.725097656 0.0454711914
vt 0.723632812 0.0388793945
vt 0.691894531 0.0447387695
vt 0.691894531 0.0384216309
vt 0.680664062 0.0389099121
vt 0.680175781 0.0322265625
vt 0.666992188 0.0444641113
vt 0.6640625 0.0371398926
vt 0.796875 0.258544922
vt 0.779785156 0.261962891
vt 0.796875 0.265136719
vt 0.776855469 0.255859375
vt 0.752929688 0.280029297
vt 0.748046875 0.273925781
vt 0.74609375 0.291259766
vt 0.742675781 0.285400391
vt 0.729003906 0.294677734
vt 0.727539062 0.287109375
vt 0.935546875 0.266113281
vt 0.918945312 0.267578125
vt 0.934082031 0.271972656
vt 0.916992188 0.260742188
vt 0.888671875 0.279541016
vt 0.884765625 0.273193359
vt 0.879882812 0.290039062
vt 0.877929688 0.283447266
vt 0.858886719 0.289550781
vt 0.859375 0.281738281
vt 0.673828125 0.172119141
vt 0.671875 0.164672852
vt 0.664550781 0.16784668
vt 0.666503906 0.173828125
vt 0.674804688 0.178955078
vt 0.666992188 0.179077148
vt 0.671875 0.164672852
vt 0.681640625 0.150146484
vt 0.66796875 0.158203125
vt 0.68359375 0.156738281
vt 0.692871094 0.150512695
vt 0.6953125 0.157836914
vt 0.72265625 0.139526367
vt 0.726074219 0.145263672
vt 0.73046875 0.123596191
vt 0.736328125 0.126220703
vt 0.729003906 0.0953979492
vt 0.734863281 0.092956543
vt 0.71875 0.0794677734
vt 0.722167969 0.0733642578
vt 0.688476562 0.0715332031
vt 0.689453125 0.0640869141
vt 0.675292969 0.0744628906
vt 0.677734375 0.0682373047
vt 0.66015625 0.0610351562
vt 0.665527344 0.0553588867
vt 0.688964844 0.183227539
vt 0.674804688 0.178955078
vt 0.672851562 0.186157227
vt 0.688964844 0.189331055
vt 0.698730469 0.176269531
vt 0.699707031 0.182861328
vt 0.732421875 0.171508789
vt 0.731445312 0.178344727
vt 0.750976562 0.184936523
vt 0.74609375 0.189819336
vt 0.763671875 0.213378906
vt 0.756347656 0.213134766
vt 0.761230469 0.234985352
vt 0.755859375 0.231201172
vt 0.737304688 0.259521484
vt 0.732421875 0.253417969
vt 0.725097656 0.261962891
vt 0.719726562 0.257324219
vt 0.719238281 0.276367188
vt 0.711914062 0.272949219
vt 0.724121094 0.281738281
vt 0.719238281 0.276367188
vt 0.714355469 0.281982422
vt 0.718261719 0.286376953
vt 0.727539062 0.287109375
vt 0.720703125 0.290527344
vt 0.844238281 0.0405883789
vt 0.845214844 0.0352783203
vt 0.837890625 0.0344238281
vt 0.836914062 0.0379943848
vt 0.841308594 0.0462036133
vt 0.834960938 0.0418701172
vt 0.852050781 0.056854248
vt 0.841308594 0.0462036133
vt 0.836425781 0.0518493652
vt 0.848632812 0.0628662109
vt 0.86328125 0.0573730469
vt 0.860351562 0.0645141602
vt 0.894042969 0.0720825195
vt 0.890136719 0.077331543
vt 0.902832031 0.0932006836
vt 0.895996094 0.0952148438
vt 0.898925781 0.126464844
vt 0.893066406 0.122741699
vt 0.885742188 0.145019531
vt 0.883300781 0.138793945
vt 0.852050781 0.151489258
vt 0.852050781 0.143676758
vt 0.841796875 0.146118164
vt 0.840820312 0.139404297
vt 0.826660156 0.155517578
vt 0.822753906 0.148803711
vt 0.827636719 0.162841797
vt 0.826660156 0.155517578
vt 0.818847656 0.157470703
vt 0.8203125 0.163208008
vt 0.827148438 0.170043945
vt 0.819824219 0.168945312
vt 0.84375 0.177001953
vt 0.827148438 0.170043945
vt 0.82421875 0.177246094
vt 0.843261719 0.18371582
vt 0.853515625 0.170654297
vt 0.854003906 0.178466797
vt 0.887695312 0.172851562
vt 0.885742188 0.179443359
vt 0.902832031 0.186035156
vt 0.897460938 0.190429688
vt 0.911132812 0.216064453
vt 0.904296875 0.215209961
vt 0.904785156 0.236816406
vt 0.899414062 0.231933594
vt 0.876464844 0.257568359
vt 0.873046875 0.250732422
vt 0.861816406 0.259277344
vt 0.857421875 0.253662109
vt 0.854003906 0.271728516
vt 0.84765625 0.267333984
vt 0.857910156 0.27734375
vt 0.854003906 0.271728516
vt 0.848144531 0.276855469
vt 0.851074219 0.280761719
vt 0.859375 0.281738281
vt 0.852050781 0.282958984
vt 0.666992188 0.0512390137
vt 0.666992188 0.0444641113
vt 0.659667969 0.0447998047
vt 0.659179688 0.0501708984
vt 0.665527344 0.0553588867
vt 0.658691406 0.0529785156
vt 0.986816406 0.245117188
vt 0.994628906 0.239379883
vt 0.982421875 0.217773438
vt 0.974121094 0.221435547
vt 0.974121094 0.195800781
vt 0.965332031 0.198974609
vt 0.959472656 0.178222656
vt 0.966308594 0.173828125
vt 0.96484375 0.152587891
vt 0.955566406 0.153930664
vt 0.963867188 0.12878418
vt 0.954589844 0.12878418
vt 0.965820312 0.104431152
vt 0.95703125 0.102783203
vt 0.973144531 0.0808105469
vt 0.964355469 0.0773925781
vt 0.981445312 0.0586242676
vt 0.973632812 0.0540466309
vt 0.995117188 0.0364685059
vt 0.987792969 0.0299530029
vt 0.797363281 0.0414733887
vt 0.813964844 0.01953125
vt 0.805664062 0.0147857666
vt 0.806152344 0.0441894531
vt 0.792480469 0.0667114258
vt 0.801269531 0.0682373047
vt 0.790039062 0.0928344727
vt 0.798828125 0.0927734375
vt 0.791992188 0.118896484
vt 0.80078125 0.117248535
vt 0.796875 0.143554688
vt 0.805664062 0.14050293
vt 0.8046875 0.165527344
vt 0.812988281 0.161499023
vt 0.815429688 0.186889648
vt 0.823730469 0.182250977
vt 0.828125 0.207519531
vt 0.8359375 0.202392578
vt 0.844238281 0.228759766
vt 0.851074219 0.221923828
vt 0.97265625 0.250488281
vt 0.986816406 0.245117188
vt 0.974121094 0.221435547
vt 0.960449219 0.227294922
vt 0.965332031 0.198974609
vt 0.950683594 0.203735352
vt 0.959472656 0.178222656
vt 0.944335938 0.180664062
vt 0.955566406 0.153930664
vt 0.939941406 0.155029297
vt 0.954589844 0.12878418
vt 0.939453125 0.128051758
vt 0.95703125 0.102783203
vt 0.942871094 0.100219727
vt 0.964355469 0.0773925781
vt 0.949707031 0.073425293
vt 0.973632812 0.0540466309
vt 0.959472656 0.0488586426
vt 0.987792969 0.0299530029
vt 0.97265625 0.0243682861
vt 0.782226562 0.0392150879
vt 0.805664062 0.0147857666
vt 0.790039062 0.0123062134
vt 0.797363281 0.0414733887
vt 0.776855469 0.0654907227
vt 0.792480469 0.0667114258
vt 0.774902344 0.0930175781
vt 0.790039062 0.0928344727
vt 0.776855469 0.120910645
vt 0.791992188 0.118896484
vt 0.782226562 0.147094727
vt 0.796875 0.143554688
vt 0.790039062 0.170776367
vt 0.8046875 0.165527344
vt 0.801269531 0.194213867
vt 0.815429688 0.186889648
vt 0.814941406 0.215820312
vt 0.828125 0.207519531
vt 0.831054688 0.236694336
vt 0.844238281 0.228759766
vn -0.922859371 0.367951661 0.113763809
vn -0.818842947 0.478395611 0.317228436
vn -0.88996011 0.448397636 0.083130464
vn -0.859901011 0.397724211 0.319977522
vn -0.7144714 0.480737209 0.508352637
vn -0.957149208 0.211592272 0.197722554
vn -0.758385956 0.410421997 0.506364107
vn -0.909330547 0.239310414 0.34036532
vn -0.973667145 0.0750905275 0.215252578
vn -0.840791285 0.266444594 0.471250713
vn -0.923892438 0.130629197 0.359664708
vn -0.838139236 0.131747633 0.529306293
vn -0.991778672 -0.0652610138 0.110073358
vn -0.910463393 -0.0268110987 0.412719756
vn -0.701847315 -0.0120764216 0.712225139
vn -0.907233834 -0.0327180661 0.419352114
vn -0.696886182 -0.0140084866 0.71704489
vn -0.991824985 -0.0667947307 0.108727217
vn -0.979274809 -0.0938457549 -0.179481953
vn -0.97852546 -0.0987842306 -0.180913448
vn -0.247278199 0.423858911 0.871319175
vn -0.000674797455 0.488528103 0.872547984
vn -0.236721128 0.48423031 0.842308819
vn -0.00865238905 0.42690286 0.904256046
vn 0.235069275 0.465204567 0.853420854
vn -0.192218795 0.278375298 0.941041529
vn 0.235831767 0.402175218 0.884668469
vn -0.0102895703 0.274897635 0.961418509
vn -0.176993772 0.244888335 0.953259051
vn 0.163966238 0.273904562 0.947676837
vn -0.0159467217 0.248538733 0.96849066
vn 0.143773437 0.245623693 0.958643913
vn -0.380026579 0.00774385082 0.924943149
vn -0.0160373785 0.0399486348 0.999073029
vn 0.342741698 0.0100477748 0.939375877
vn -0.016307801 0.00663319742 0.999845028
vn 0.345988572 0.00158700603 0.938237429
vn -0.383607268 -0.00104392122 0.92349577
vn -0.696886182 -0.0140084866 0.71704489
vn -0.701847315 -0.0120764216 0.712225139
vn 0.78944695 0.27909705 0.546697676
vn 0.805599928 0.416346997 0.421502054
vn 0.693856716 0.404669791 0.595655382
vn 0.860323966 0.323949635 0.393572479
vn 0.878347039 0.411201209 0.243762031
vn 0.925621748 0.171146661 0.33754003
vn 0.902120173 0.34803313 0.255053192
vn 0.922692299 0.182860732 0.33941251
vn 0.893089771 0.23414661 0.384143442
vn 0.918419719 0.197900414 0.342550129
vn 0.910975158 0.19531253 0.363286823
vn 0.918004513 0.170258075 0.358161598
vn 0.6919204 -0.00668756757 0.721942723
vn 0.891375005 -0.00358456071 0.453252494
vn 0.97499609 -0.0570159443 0.214782938
vn 0.887107491 -0.0396043099 0.459860623
vn 0.975260794 -0.0648311302 0.21133709
vn 0.683249831 -0.0171280932 0.729983807
vn 0.345988572 0.00158700603 0.938237429
vn 0.342741698 0.0100477748 0.939375877
vn 0.936340809 0.283662617 -0.206884965
vn 0.843095005 0.317845166 -0.433780134
vn 0.925849557 0.323313594 -0.195629522
vn 0.85874337 0.271975785 -0.434268415
vn 0.703055978 0.291353643 -0.648710489
vn 0.94664675 0.132968158 -0.293563455
vn 0.721649528 0.251878351 -0.644809425
vn 0.89010483 0.117282949 -0.440406561
vn 0.945703208 0.105704978 -0.307362705
vn 0.806826413 0.109949701 -0.580467343
vn 0.899413943 0.085615173 -0.428631246
vn 0.837462962 0.0569956712 -0.543513775
vn 0.989954591 -0.0890632346 -0.109807566
vn 0.918494344 -0.0961571187 -0.3835648
vn 0.721298695 -0.150253922 -0.676130176
vn 0.916980863 -0.123062789 -0.379475445
vn 0.715023756 -0.157572508 -0.681110799
vn 0.989771008 -0.0960534811 -0.105484828
vn 0.975260794 -0.0648311302 0.21133709
vn 0.97499609 -0.0570159443 0.214782938
vn 0.274278462 0.103061914 -0.956111729
vn 0.0374918543 0.168217659 -0.985036612
vn 0.286238134 0.17143926 -0.942696273
vn 0.0154783633 0.110544801 -0.993750513
vn -0.263782948 0.150188819 -0.952817917
vn 0.195762262 0.105554685 -0.974954069
vn -0.259147257 0.0809347406 -0.962440789
vn 0.0183345024 0.107966244 -0.993985474
vn 0.17822656 -0.0308799334 -0.983504832
vn -0.16849035 0.100100964 -0.980607271
vn 0.0164240617 0.0116516966 -0.999797285
vn -0.139425635 -0.0247759316 -0.989922583
vn 0.379962593 -0.180331916 -0.907253444
vn 0.0174675789 -0.183864459 -0.982796431
vn -0.34474045 -0.178786173 -0.92151475
vn 0.0174170658 -0.186932519 -0.982218325
vn -0.347935945 -0.179721981 -0.92013073
vn 0.384494215 -0.180709809 -0.905266821
vn 0.715023756 -0.157572508 -0.681110799
vn 0.721298695 -0.150253922 -0.676130176
vn -0.708467662 0.218521491 -0.671060205
vn -0.792153358 0.28372696 -0.540362775
vn -0.68186599 0.280994982 -0.675352216
vn -0.813450336 0.229697093 -0.534357429
vn -0.877932131 0.27789557 -0.389883637
vn -0.792757988 0.0829054415 -0.60387212
vn -0.887764275 0.237274632 -0.394430429
vn -0.868545711 0.104027741 -0.484568536
vn -0.795963764 -0.0805954188 -0.599955022
vn -0.917728484 0.133583069 -0.374072254
vn -0.883121967 -0.0462735593 -0.466855735
vn -0.946766019 -0.0919138119 -0.308522373
vn -0.663843036 -0.155074909 -0.73161751
vn -0.876961231 -0.13092868 -0.462381452
vn -0.97852546 -0.0987842306 -0.180913448
vn -0.875095248 -0.116781995 -0.469648957
vn -0.979274809 -0.0938457549 -0.179481953
vn -0.658806801 -0.153511003 -0.736483455
vn -0.347935945 -0.179721981 -0.92013073
vn -0.34474045 -0.178786173 -0.92151475
vn 0.0165214036 0.0224286579 -0.999611914
vn -0.340046585 0.01641725 -0.940265298
vn -0.346079409 0.0288692322 -0.93776089
vn 0.0162423812 -0.0268802028 -0.999506712
vn 0.38414973 0.0317212269 -0.922725797
vn -0.145618916 -0.252995312 -0.956445754
vn 0.377663165 0.0188678 -0.925750732
vn 0.697126567 0.0496306084 -0.71522826
vn 0.0157988053 -0.258596897 -0.965856075
vn -0.166344747 -0.286245972 -0.943606198
vn 0.706775308 0.0448571332 -0.706014514
vn 0.178470582 -0.252004743 -0.951126635
vn 0.903711319 0.0713053048 -0.422162712
vn 0.0097972611 -0.288145691 -0.957536399
vn -0.234495744 -0.405890375 -0.883325934
vn 0.194011226 -0.290574133 -0.936977208
vn 0.907113791 0.0504419021 -0.417851806
vn 0.987002492 0.10006085 -0.125753149
vn 0.851958752 -0.163090229 -0.497561991
vn 0.0086160684 -0.428679556 -0.903415561
vn -0.235177189 -0.465074658 -0.853461921
vn 0.24556978 -0.426745027 -0.870393157
vn 0.000165532678 -0.488210261 -0.872726083
vn 0.237240344 -0.483725607 -0.842452765
vn 0.986770391 0.0942174718 -0.131936818
vn 0.973338962 0.130090594 0.188911676
vn 0.908540785 -0.172460958 -0.380540222
vn 0.810815215 -0.297776133 -0.503893018
vn 0.971491337 0.133277923 0.196065024
vn 0.949754834 -0.128578469 -0.285365343
vn 0.871348619 0.156443939 0.465055794
vn 0.88512522 -0.27573204 -0.374866694
vn 0.709357381 -0.436708719 -0.553260803
vn 0.935720503 -0.255644292 -0.243049696
vn 0.872869909 0.160849527 0.460679382
vn 0.662397861 0.187702745 0.725256264
vn 0.917466462 0.0492351986 0.394754499
vn 0.834059298 -0.420584232 -0.357007086
vn 0.679193377 -0.498205483 -0.538969159
vn 0.920243859 -0.374396294 -0.113924071
vn 0.800192595 -0.491769046 -0.343300194
vn 0.889369905 -0.449427128 -0.0838828534
vn 0.673032761 0.186100408 0.715816617
vn 0.348238677 0.207339317 0.914188266
vn 0.341954827 0.205165327 0.917046428
vn 0.868969977 0.00883232988 0.494785964
vn 0.891202569 -0.159737006 0.424549252
vn 0.81794709 0.0478570871 0.573299348
vn 0.839986622 -0.137068197 0.525009215
vn 0.886753201 -0.240130648 0.39497593
vn 0.766096056 -0.124313213 0.630589485
vn 0.79782027 -0.249585971 0.548807383
vn 0.878098369 -0.277626276 0.389701039
vn 0.67724818 -0.249617174 0.692117035
vn 0.792158008 -0.281530887 0.541503489
vn 0.677172959 -0.276495248 0.681899726
vn -0.346079409 0.0288692322 -0.93776089
vn -0.340046585 0.01641725 -0.940265298
vn -0.688505173 0.0312618315 -0.72455734
vn -0.675296605 0.0461424477 -0.736101568
vn -0.889363468 0.0130857714 -0.457013607
vn -0.882681131 0.0659233779 -0.465325803
vn -0.889787138 -0.195962891 -0.412161976
vn -0.852849603 -0.22498709 -0.471198916
vn -0.972512603 0.081606321 -0.218081623
vn -0.972806334 0.0932569876 -0.212016955
vn -0.917930782 -0.177370161 -0.354884267
vn -0.987567306 0.113602124 0.108652554
vn -0.917864799 -0.211666122 -0.335740298
vn -0.987155676 0.123847738 0.100922555
vn -0.877897084 -0.194826931 -0.43742311
vn -0.81975472 -0.181060717 -0.543340921
vn -0.901499629 -0.350371748 -0.254043519
vn -0.794226408 -0.359404683 -0.489931315
vn -0.879189312 -0.409949094 -0.242833287
vn -0.634607613 -0.330211729 -0.698736966
vn -0.750885546 -0.443042517 -0.48977983
vn -0.576413989 -0.442446679 -0.687013626
vn -0.908930898 0.100615643 0.404624611
vn -0.904870689 0.138294891 0.402596146
vn -0.897636235 -0.0959547386 0.430164963
vn -0.945156395 -0.11332123 0.30632928
vn -0.724880993 0.152439162 0.671795964
vn -0.704214513 0.164425999 0.690685272
vn -0.834654033 -0.0641804561 0.547022462
vn -0.382417172 0.200282574 0.902022183
vn -0.80326885 -0.123911612 0.582584858
vn -0.390628099 0.201480687 0.898229003
vn -0.887855589 -0.132139996 0.440739602
vn -0.945175886 -0.147076622 0.2915667
vn -0.720465004 -0.257488519 0.643917561
vn -0.857347012 -0.275935203 0.434529424
vn -0.703553081 -0.292776436 0.647530079
vn -0.93468976 -0.288905025 0.207096189
vn -0.842684209 -0.319030076 0.433708668
vn -0.925232649 -0.324413687 0.196723729
vn -0.0177384056 0.205488518 0.978498757
vn -0.0176545866 0.213371277 0.976811707
vn 0.341954827 0.205165327 0.917046428
vn 0.348238677 0.207339317 0.914188266
vn 0.141025931 0.0151737547 0.989889622
vn -0.0162262376 -0.0257445276 0.999536872
vn -0.179246098 0.0212217513 0.983575344
vn 0.170809537 -0.113369063 0.978760183
vn -0.0185333453 -0.122787841 0.99225992
vn -0.198123455 -0.118838258 0.972946346
vn 0.256486833 -0.0881218091 0.962522209
vn -0.0113284923 -0.114324883 0.993378758
vn 0.26323387 -0.150761127 0.95287931
vn -0.272733957 -0.108135521 0.955993176
vn -0.027046252 -0.169046253 0.985236943
vn -0.284718543 -0.173160866 0.942841828
vn 0.00974923931 -0.879610419 -0.475594819
vn -0.194506034 -0.874815464 -0.443695188
vn -0.196440026 -0.874724865 -0.443021148
vn 0.00879626814 -0.879609227 -0.475615621
vn 0.21567966 -0.875215292 -0.432990193
vn 0.21627146 -0.875187576 -0.43275103
vn 0.395423889 -0.862549663 -0.315670639
vn 0.399381399 -0.862119734 -0.311839908
vn 0.517175317 -0.841929913 -0.153895378
vn 0.518904269 -0.841523468 -0.150255218
vn 0.566122115 -0.824180841 0.0152235879
vn 0.566291511 -0.824039638 0.0165131632
vn 0.559126675 -0.804885209 0.198839426
vn 0.559084117 -0.804865241 0.199039862
vn 0.501096189 -0.788187087 0.357300758
vn 0.502784312 -0.78847754 0.354275495
vn 0.393288553 -0.760375619 0.516868591
vn 0.397514671 -0.761787534 0.51152885
vn 0.228035465 -0.709720433 0.666555941
vn 0.221459955 -0.707841396 0.670757771
vn -0.194506034 -0.874815464 -0.443695188
vn -0.390025258 -0.862024188 -0.323720098
vn -0.196440026 -0.874724865 -0.443021148
vn -0.382386863 -0.862844408 -0.33057493
vn -0.51089114 -0.841066182 -0.177758127
vn -0.508894742 -0.841435254 -0.181694284
vn -0.558418512 -0.828863025 -0.0339807682
vn -0.558456719 -0.828844786 -0.0337998383
vn -0.565196991 -0.811480224 0.148499385
vn -0.565039575 -0.811374664 0.14967081
vn -0.509759665 -0.795602262 0.327356398
vn -0.508658528 -0.795410872 0.32952705
vn -0.422260374 -0.767512083 0.482308358
vn -0.41958645 -0.766286016 0.486572653
vn -0.250326723 -0.712916136 0.655047476
vn -0.25780645 -0.715038061 0.64981252
vn -0.0100137396 -0.677597225 0.735365033
vn -0.0119520146 -0.677617431 0.735317528
vn 0.221459955 -0.707841396 0.670757771
vn 0.228035465 -0.709720433 0.666555941
vn 0.190095291 0.917656064 -0.34895739
vn -0.324036181 0.944441319 -0.0550561622
vn -0.270329475 0.960421085 -0.0671810955
vn 0.156674773 0.936969876 -0.312314689
vn 0.633749664 0.344130814 -0.692773759
vn 0.62269789 0.370732516 -0.689060807
vn 0.775545716 -0.0300222393 -0.630577147
vn 0.797882915 -0.0667500943 -0.599105477
vn 0.808471501 0.193444848 -0.555835366
vn 0.750574708 0.299386144 -0.58907181
vn 0.369497925 0.706152141 -0.604003608
vn 0.354546756 0.71683234 -0.600373268
vn -0.188549906 0.970124125 0.152670011
vn 0.312973231 0.940743506 -0.130572885
vn 0.282343626 0.951069295 -0.125495821
vn -0.179338038 0.973525822 0.141722873
vn -0.623880446 0.463546067 0.629204452
vn -0.627988398 0.452693969 0.633007586
vn -0.749717653 0.0198802277 0.661459208
vn -0.756910205 -0.0184323452 0.65325892
vn -0.702058673 0.219444886 0.677464068
vn -0.70343411 0.215584964 0.677276611
vn -0.259552091 0.821154177 0.508270085
vn -0.232652664 0.839396 0.491209835
vn -0.324036181 0.944441319 -0.0550561622
vn -0.910030365 0.4025065 0.0991627425
vn -0.270329475 0.960421085 -0.0671810955
vn -0.923739135 0.368555725 0.104272127
vn -0.973577201 -0.0642075017 0.219145507
vn -0.977031887 -0.0394471213 0.209410086
vn -0.97404182 0.177933112 0.139936611
vn -0.971926391 0.193978742 0.133158848
vn -0.599182367 0.774457872 -0.202966496
vn -0.604416251 0.771225333 -0.199731141
vn 0.312973231 0.940743506 -0.130572885
vn 0.910698414 0.372395426 -0.178745955
vn 0.282343626 0.951069295 -0.125495821
vn 0.919487119 0.350690156 -0.177651063
vn 0.979029417 -0.0789853409 -0.18778342
vn 0.97829926 -0.086223565 -0.188403666
vn 0.955708921 0.212431997 -0.203698605
vn 0.95637238 0.209100202 -0.204031736
vn 0.650039613 0.754331946 -0.0918249041
vn 0.653136313 0.751486599 -0.0931713805
vn 0.370857537 0.884971619 -0.28158468
vn 0.395928085 0.772415698 0.4966034
vn 0.396144599 0.773103714 0.495358586
vn 0.37021336 0.884850085 -0.282811671
vn -0.165075615 0.696266532 -0.698543549
vn -0.163132057 0.697632253 -0.697636783
vn 0.395928085 0.772415698 0.4966034
vn 0.25158903 0.261866063 0.931734383
vn 0.396144599 0.773103714 0.495358586
vn 0.252814859 0.266366333 0.930125535
vn 0.256700426 0.16174598 0.952860475
vn 0.264048427 0.181239203 0.94732815
vn 0.285661191 0.499105781 0.818102121
vn 0.286348224 0.494096816 0.820897758
vn 0.103896417 0.980325043 0.167834118
vn 0.1136932 0.972988307 0.200916737
vn 0.114682823 0.933901429 -0.338638395
vn 0.117898941 0.930416286 -0.347023606
vn 0.380512357 0.309688061 -0.87138027
vn 0.380727053 0.308686733 -0.871641755
vn 0.367507637 -0.218269691 -0.904044509
vn 0.374361545 -0.19327274 -0.906917453
vn 0.459158152 0.175817803 -0.870782375
vn 0.459504813 0.178871959 -0.869977117
vn 0.423984915 0.764924288 -0.48489967
vn 0.425859481 0.758401394 -0.493427813
vn -0.678922534 0.0733003318 -0.730541766
vn -0.165075615 0.696266532 -0.698543549
vn -0.163132057 0.697632253 -0.697636783
vn -0.660189748 0.112922087 -0.742561817
vn -0.708207309 -0.142913058 -0.691388667
vn -0.715292633 -0.162375152 -0.679698944
vn -0.566735327 0.304507166 -0.765562832
vn -0.566336453 0.305688471 -0.765387297
vn -0.159683987 0.918147922 -0.362636685
vn -0.142070681 0.930189312 -0.338472724
vn 0.330521137 0.942918539 -0.0407482758
vn 0.274021417 0.960103989 -0.0557900779
vn 0.915519655 0.381152809 0.12863268
vn 0.902043223 0.413508892 0.123808056
vn 0.969731808 -0.0403464437 0.240815848
vn 0.964687705 -0.0724574551 0.253234029
vn 0.976807833 0.106286466 0.185875237
vn 0.977134168 0.0874943659 0.193787351
vn 0.664441884 0.726487994 -0.175306246
vn 0.659314871 0.730263293 -0.178939953
vn 0.0454218835 0.891511142 -0.45071587
vn 0.664441884 0.726487994 -0.175306246
vn 0.659314871 0.730263293 -0.178939953
vn 0.0452281497 0.891518533 -0.450720668
vn -0.604416251 0.771225333 -0.199731141
vn -0.599182367 0.774457872 -0.202966496
vn -0.3031331 0.913110077 -0.272654325
vn 0.369497925 0.706152141 -0.604003608
vn 0.354546756 0.71683234 -0.600373268
vn -0.302524149 0.913047433 -0.273538679
vn -0.440537006 0.751415431 0.491224974
vn -0.440620244 0.754497409 0.486402631
vn -0.374768078 0.268188894 0.887481689
vn -0.440537006 0.751415431 0.491224974
vn -0.440620244 0.754497409 0.486402631
vn -0.371755987 0.254892111 0.892651916
vn -0.340709001 0.113307633 0.933315933
vn -0.335422158 0.0952780768 0.937237442
vn -0.348350614 0.476471037 0.807234347
vn -0.343252629 0.504554451 0.792213619
vn -0.125837609 0.975491464 0.180502996
vn -0.110220969 0.98446089 0.136704609
vn -0.101601303 0.918814182 -0.381389081
vn -0.0893477425 0.937270045 -0.336959928
vn -0.274717182 0.298532426 -0.914007068
vn -0.270324945 0.331068546 -0.904056489
vn -0.241050869 -0.161919191 -0.956909895
vn -0.231855482 -0.193573639 -0.953295529
vn -0.261245072 0.0593672432 -0.963445127
vn -0.258956075 0.0475798063 -0.964716554
vn -0.343724847 0.691757083 -0.635079145
vn -0.343137711 0.686052799 -0.641551256
vn -0.285225719 0.956768095 0.0569299236
vn -0.343724847 0.691757083 -0.635079145
vn -0.343137711 0.686052799 -0.641551256
vn -0.285241634 0.956765473 0.0568942241
vn 0.255268306 0.774440229 0.578861356
vn 0.261409461 0.769072235 0.583260536
vn 0.593007386 0.186371922 0.783331156
vn 0.255268306 0.774440229 0.578861356
vn 0.261409461 0.769072235 0.583260536
vn 0.596093059 0.174521744 0.783718824
vn 0.609428585 -0.00679007266 0.79281193
vn 0.614410281 -0.0383448638 0.788054407
vn 0.536708534 0.407706857 0.738727927
vn 0.535298467 0.415566206 0.73536396
vn 0.184723526 0.96549046 0.183590263
vn 0.163254261 0.974358737 0.154832229
vn -0.313221335 0.938675225 -0.144157574
vn -0.287051171 0.947804034 -0.138813019
vn -0.913628817 0.348438144 -0.209459707
vn -0.904537559 0.370888114 -0.210365802
vn -0.970855474 -0.0938145593 -0.220541239
vn -0.972440839 -0.0794655234 -0.219189852
vn -0.968453407 0.0843823627 -0.23447299
vn -0.96888566 0.0775576383 -0.235043541
vn -0.621074259 0.779929698 -0.0773080513
vn -0.623602629 0.777794242 -0.0784598365
vn -0.027420979 0.990801036 0.132519901
vn -0.621074259 0.779929698 -0.0773080513
vn -0.623602629 0.777794242 -0.0784598365
vn -0.0291210432 0.990742147 0.13259691
vn 0.653136313 0.751486599 -0.0931713805
vn 0.650039613 0.754331946 -0.0918249041
vn 0.254093945 0.957957983 0.133240104
vn -0.259552091 0.821154177 0.508270085
vn -0.232652664 0.839396 0.491209835
vn 0.252312422 0.958099544 0.135586768
vn 0.425859481 0.758401394 -0.493427813
vn 0.423984915 0.764924288 -0.48489967
vn 0.0043603587 -0.993554473 0.11327254
vn 0.00447754469 -0.99355489 0.113263324
vn -0.000170140265 -0.99354136 0.113470122
vn -0.00020767661 -0.99354136 0.113469921
vn -0.00518782903 -0.993578076 0.113029167
vn -0.00508339982 -0.993577063 0.113043778
vn -0.0101187928 -0.99377054 0.110985577
vn -0.0112216137 -0.993884504 0.109852374
vn -0.0125855524 -0.994284332 0.106020682
vn -0.012608964 -0.994268417 0.106166497
vn -0.0132054444 -0.994677782 0.10218513
vn -0.0131786428 -0.994670928 0.10225521
vn -0.0134985475 -0.99513489 0.0975927711
vn -0.0134995105 -0.995134413 0.0975970551
vn -0.0127183245 -0.995480537 0.0941092819
vn -0.0126925521 -0.995491982 0.0939930752
vn -0.010302105 -0.99586761 0.0902310088
vn -0.0100311488 -0.995900333 0.0898993462
vn -0.00522951316 -0.996234953 0.0865362883
vn -0.00509793451 -0.996239305 0.0864940286
vn 0.00946258288 -0.993763626 0.111105651
vn 0.00447754469 -0.99355489 0.113263324
vn 0.0043603587 -0.993554473 0.11327254
vn 0.00968829263 -0.993782103 0.110920601
vn 0.0128452349 -0.994132102 0.107407331
vn 0.0128959604 -0.994143069 0.107300378
vn 0.0142916311 -0.994527757 0.103489831
vn 0.0142900217 -0.99452728 0.103495233
vn 0.0145189743 -0.995019197 0.0986198857
vn 0.0145344427 -0.995010853 0.0987022966
vn 0.013553448 -0.995442986 0.094389759
vn 0.0135941831 -0.99542892 0.0945327207
vn 0.0108114621 -0.995898545 0.0898291916
vn 0.0109790377 -0.995877504 0.0900404602
vn 0.00570528954 -0.996246874 0.0863686725
vn 0.00575520797 -0.996245325 0.0863838345
vn 0.000191715793 -0.996337414 0.0855092406
vn 0.000144120713 -0.996337295 0.0855107605
vn -0.00509793451 -0.996239305 0.0864940286
vn -0.00522951316 -0.996234953 0.0865362883
vn 0.325080276 0.486377925 0.811023653
vn 0.321962327 0.486363322 0.812275171
vn -0.0166076012 0.486822933 0.873342812
vn -0.0136889564 0.486794025 0.873409569
vn -0.366306484 0.492063075 0.789742589
vn -0.367265314 0.492072284 0.789291501
vn -0.650769353 0.48212409 0.586562634
vn -0.656065226 0.481774032 0.580923498
vn -0.814629316 0.459257007 0.354206204
vn -0.817605257 0.458455831 0.348338634
vn -0.903970063 0.422322869 0.0669445544
vn -0.904486537 0.421837032 0.0629096702
vn -0.892461896 0.389789343 -0.227103367
vn -0.892451704 0.389784545 -0.227151781
vn -0.809051871 0.365075618 -0.460602671
vn -0.811604857 0.365504384 -0.455745757
vn -0.614127696 0.355236381 -0.704737008
vn -0.624433339 0.355705678 -0.695382237
vn -0.309680492 0.345565796 -0.885822952
vn -0.31557256 0.345597982 -0.883728385
vn 0.616258144 0.478939354 0.625174403
vn 0.321962327 0.486363322 0.812275171
vn 0.325080276 0.486377925 0.811023653
vn 0.608364403 0.479458064 0.632465601
vn 0.800317645 0.453586876 0.392110348
vn 0.797816336 0.454123735 0.396561086
vn 0.892127216 0.428013653 0.144614235
vn 0.892132163 0.428011358 0.14459087
vn 0.904026568 0.401801467 -0.145916015
vn 0.903512239 0.401478529 -0.149935335
vn 0.827204525 0.380902439 -0.413093299
vn 0.824075639 0.380471945 -0.419690967
vn 0.639431655 0.367529362 -0.675314248
vn 0.632836759 0.367145985 -0.681704879
vn 0.346492022 0.35433057 -0.868558109
vn 0.344121069 0.354260832 -0.869528651
vn 0.0134503124 0.347082257 -0.93773824
vn 0.0160258859 0.347117722 -0.937684596
vn -0.31557256 0.345597982 -0.883728385
vn -0.309680492 0.345565796 -0.885822952
g Charlie_King_Crown_0
f 3/3/3 2/2/2 1/1/1
f 2/2/2 4/4/4 1/1/1
f 2/2/2 5/5/5 4/4/4
f 1/1/1 4/4/4 6/6/6
f 5/5/5 7/7/7 4/4/4
f 4/4/4 8/8/8 6/6/6
f 4/4/4 7/7/7 8/8/8
f 6/6/6 8/8/8 9/9/9
f 7/7/7 10/10/10 8/8/8
f 8/8/8 11/11/11 9/9/9
f 8/8/8 10/10/10 11/11/11
f 10/10/10 12/12/12 11/11/11
f 9/9/9 11/11/11 13/13/13
f 11/11/11 12/12/12 14/14/14
f 11/11/11 14/14/14 13/13/13
f 12/12/12 15/15/15 14/14/14
f 16/16/16 14/14/14 15/15/15
f 17/17/17 16/16/16 15/15/15
f 16/16/16 18/18/18 14/14/14
f 18/18/18 13/13/13 14/14/14
f 18/18/18 19/19/19 13/13/13
f 19/19/19 20/20/20 13/13/13
f 23/23/23 22/22/22 21/21/21
f 22/22/22 24/24/24 21/21/21
f 22/22/22 25/25/25 24/24/24
f 21/21/21 24/24/24 26/26/26
f 25/25/25 27/27/27 24/24/24
f 24/24/24 28/28/28 26/26/26
f 24/24/24 27/27/27 28/28/28
f 26/26/26 28/28/28 29/29/29
f 27/27/27 30/30/30 28/28/28
f 28/28/28 31/31/31 29/29/29
f 28/28/28 30/30/30 31/31/31
f 30/30/30 32/32/32 31/31/31
f 29/29/29 31/31/31 33/33/33
f 31/31/31 32/32/32 34/34/34
f 31/31/31 34/34/34 33/33/33
f 32/32/32 35/35/35 34/34/34
f 36/36/36 34/34/34 35/35/35
f 37/37/37 36/36/36 35/35/35
f 36/36/36 38/38/38 34/34/34
f 38/38/38 33/33/33 34/34/34
f 38/38/38 39/39/39 33/33/33
f 39/39/39 40/40/40 33/33/33
f 43/43/43 42/42/42 41/41/41
f 42/42/42 44/44/44 41/41/41
f 42/42/42 45/45/45 44/44/44
f 41/41/41 44/44/44 46/46/46
f 45/45/45 47/47/47 44/44/44
f 44/44/44 48/48/48 46/46/46
f 44/44/44 47/47/47 48/48/48
f 46/46/46 48/48/48 49/49/49
f 47/47/47 50/50/50 48/48/48
f 48/48/48 51/51/51 49/49/49
f 48/48/48 50/50/50 51/51/51
f 50/50/50 52/52/52 51/51/51
f 49/49/49 51/51/51 53/53/53
f 51/51/51 52/52/52 54/54/54
f 51/51/51 54/54/54 53/53/53
f 52/52/52 55/55/55 54/54/54
f 56/56/56 54/54/54 55/55/55
f 57/57/57 56/56/56 55/55/55
f 56/56/56 58/58/58 54/54/54
f 58/58/58 53/53/53 54/54/54
f 58/58/58 59/59/59 53/53/53
f 59/59/59 60/60/60 53/53/53
f 63/63/63 62/62/62 61/61/61
f 62/62/62 64/64/64 61/61/61
f 62/62/62 65/65/65 64/64/64
f 61/61/61 64/64/64 66/66/66
f 65/65/65 67/67/67 64/64/64
f 64/64/64 68/68/68 66/66/66
f 64/64/64 67/67/67 68/68/68
f 66/66/66 68/68/68 69/69/69
f 67/67/67 70/70/70 68/68/68
f 68/68/68 71/71/71 69/69/69
f 68/68/68 70/70/70 71/71/71
f 70/70/70 72/72/72 71/71/71
f 69/69/69 71/71/71 73/73/73
f 71/71/71 72/72/72 74/74/74
f 71/71/71 74/74/74 73/73/73
f 72/72/72 75/75/75 74/74/74
f 76/76/76 74/74/74 75/75/75
f 77/77/77 76/76/76 75/75/75
f 76/76/76 78/78/78 74/74/74
f 78/78/78 73/73/73 74/74/74
f 78/78/78 79/79/79 73/73/73
f 79/79/79 80/80/80 73/73/73
f 83/83/83 82/82/82 81/81/81
f 82/82/82 84/84/84 81/81/81
f 82/82/82 85/85/85 84/84/84
f 81/81/81 84/84/84 86/86/86
f 85/85/85 87/87/87 84/84/84
f 84/84/84 88/88/88 86/86/86
f 84/84/84 87/87/87 88/88/88
f 86/86/86 88/88/88 89/89/89
f 87/87/87 90/90/90 88/88/88
f 88/88/88 91/91/91 89/89/89
f 88/88/88 90/90/90 91/91/91
f 90/90/90 92/92/92 91/91/91
f 89/89/89 91/91/91 93/93/93
f 91/91/91 92/92/92 94/94/94
f 91/91/91 94/94/94 93/93/93
f 92/92/92 95/95/95 94/94/94
f 96/96/96 94/94/94 95/95/95
f 97/97/97 96/96/96 95/95/95
f 96/96/96 98/98/98 94/94/94
f 98/98/98 93/93/93 94/94/94
f 98/98/98 99/99/99 93/93/93
f 99/99/99 100/100/100 93/93/93
f 103/103/103 102/102/102 101/101/101
f 102/102/102 104/104/104 101/101/101
f 102/102/102 105/105/105 104/104/104
f 101/101/101 104/104/104 106/106/106
f 105/105/105 107/107/107 104/104/104
f 104/104/104 108/108/108 106/106/106
f 104/104/104 107/107/107 108/108/108
f 106/106/106 108/108/108 109/109/109
f 107/107/107 110/110/110 108/108/108
f 108/108/108 111/111/111 109/109/109
f 108/108/108 110/110/110 111/111/111
f 110/110/110 112/112/112 111/111/111
f 109/109/109 111/111/111 113/113/113
f 111/111/111 112/112/112 114/114/114
f 111/111/111 114/114/114 113/113/113
f 112/112/112 115/115/115 114/114/114
f 116/116/116 114/114/114 115/115/115
f 117/117/117 116/116/116 115/115/115
f 116/116/116 118/118/118 114/114/114
f 118/118/118 113/113/113 114/114/114
f 118/118/118 119/119/119 113/113/113
f 119/119/119 120/120/120 113/113/113
f 123/123/123 122/122/122 121/121/121
f 122/122/122 124/124/124 121/121/121
f 121/121/121 124/124/124 125/125/125
f 122/122/122 126/126/126 124/124/124
f 124/124/124 127/127/127 125/125/125
f 125/125/125 127/127/127 128/128/128
f 126/126/126 129/129/129 124/124/124
f 124/124/124 129/129/129 127/127/127
f 126/126/126 130/130/130 129/129/129
f 127/127/127 131/131/131 128/128/128
f 129/129/129 132/132/132 127/127/127
f 128/128/128 131/131/131 133/133/133
f 130/130/130 134/134/134 129/129/129
f 129/129/129 134/134/134 132/132/132
f 130/130/130 135/135/135 134/134/134
f 134/134/134 136/136/136 132/132/132
f 131/131/131 137/137/137 133/133/133
f 133/133/133 137/137/137 138/138/138
f 131/131/131 139/139/139 137/137/137
f 135/135/135 140/140/140 134/134/134
f 134/134/134 140/140/140 136/136/136
f 135/135/135 141/141/141 140/140/140
f 140/140/140 142/142/142 136/136/136
f 141/141/141 143/143/143 140/140/140
f 140/140/140 143/143/143 142/142/142
f 143/143/143 144/144/144 142/142/142
f 137/137/137 145/145/145 138/138/138
f 138/138/138 145/145/145 146/146/146
f 139/139/139 147/147/147 137/137/137
f 137/137/137 147/147/147 145/145/145
f 139/139/139 148/148/148 147/147/147
f 145/145/145 149/149/149 146/146/146
f 147/147/147 150/150/150 145/145/145
f 146/146/146 149/149/149 151/151/151
f 148/148/148 152/152/152 147/147/147
f 147/147/147 152/152/152 150/150/150
f 148/148/148 153/153/153 152/152/152
f 152/152/152 154/154/154 150/150/150
f 149/149/149 155/155/155 151/151/151
f 151/151/151 155/155/155 156/156/156
f 149/149/149 157/157/157 155/155/155
f 153/153/153 158/158/158 152/152/152
f 152/152/152 158/158/158 154/154/154
f 153/153/153 159/159/159 158/158/158
f 158/158/158 160/160/160 154/154/154
f 159/159/159 161/161/161 158/158/158
f 158/158/158 161/161/161 160/160/160
f 161/161/161 162/162/162 160/160/160
f 155/155/155 163/163/163 156/156/156
f 156/156/156 163/163/163 164/164/164
f 163/163/163 165/165/165 164/164/164
f 157/157/157 166/166/166 155/155/155
f 155/155/155 166/166/166 163/163/163
f 157/157/157 167/167/167 166/166/166
f 166/166/166 168/168/168 163/163/163
f 167/167/167 169/169/169 166/166/166
f 166/166/166 169/169/169 168/168/168
f 167/167/167 170/170/170 169/169/169
f 169/169/169 171/171/171 168/168/168
f 170/170/170 172/172/172 169/169/169
f 169/169/169 172/172/172 171/171/171
f 170/170/170 173/173/173 172/172/172
f 172/172/172 174/174/174 171/171/171
f 173/173/173 175/175/175 172/172/172
f 172/172/172 175/175/175 174/174/174
f 175/175/175 176/176/176 174/174/174
f 179/179/179 178/178/178 177/177/177
f 180/180/180 179/179/179 177/177/177
f 181/181/181 179/179/179 180/180/180
f 182/182/182 181/181/181 180/180/180
f 181/181/181 183/183/183 179/179/179
f 183/183/183 184/184/184 179/179/179
f 185/185/185 181/181/181 182/182/182
f 186/186/186 185/185/185 182/182/182
f 185/185/185 187/187/187 181/181/181
f 187/187/187 183/183/183 181/181/181
f 188/188/188 185/185/185 186/186/186
f 187/187/187 189/189/189 183/183/183
f 190/190/190 188/188/188 186/186/186
f 183/183/183 191/191/191 184/184/184
f 189/189/189 191/191/191 183/183/183
f 191/191/191 192/192/192 184/184/184
f 189/189/189 193/193/193 191/191/191
f 191/191/191 194/194/194 192/192/192
f 193/193/193 194/194/194 191/191/191
f 193/193/193 195/195/195 194/194/194
f 194/194/194 196/196/196 192/192/192
f 195/195/195 197/197/197 194/194/194
f 194/194/194 197/197/197 196/196/196
f 197/197/197 198/198/198 196/196/196
f 199/199/199 188/188/188 190/190/190
f 200/200/200 199/199/199 190/190/190
f 199/199/199 201/201/201 188/188/188
f 201/201/201 202/202/202 188/188/188
f 203/203/203 199/199/199 200/200/200
f 204/204/204 203/203/203 200/200/200
f 203/203/203 205/205/205 199/199/199
f 205/205/205 201/201/201 199/199/199
f 206/206/206 203/203/203 204/204/204
f 205/205/205 207/207/207 201/201/201
f 208/208/208 206/206/206 204/204/204
f 201/201/201 209/209/209 202/202/202
f 207/207/207 209/209/209 201/201/201
f 209/209/209 210/210/210 202/202/202
f 207/207/207 211/211/211 209/209/209
f 209/209/209 212/212/212 210/210/210
f 211/211/211 212/212/212 209/209/209
f 211/211/211 213/213/213 212/212/212
f 212/212/212 214/214/214 210/210/210
f 213/213/213 215/215/215 212/212/212
f 212/212/212 215/215/215 214/214/214
f 215/215/215 216/216/216 214/214/214
f 217/217/217 206/206/206 208/208/208
f 218/218/218 217/217/217 208/208/208
f 219/219/219 217/217/217 218/218/218
f 220/220/220 219/219/219 218/218/218
f 219/219/219 221/221/221 217/217/217
f 217/217/217 222/222/222 206/206/206
f 221/221/221 222/222/222 217/217/217
f 222/222/222 223/223/223 206/206/206
f 221/221/221 224/224/224 222/222/222
f 222/222/222 225/225/225 223/223/223
f 224/224/224 225/225/225 222/222/222
f 225/225/225 226/226/226 223/223/223
f 224/224/224 227/227/227 225/225/225
f 225/225/225 228/228/228 226/226/226
f 227/227/227 228/228/228 225/225/225
f 227/227/227 229/229/229 228/228/228
f 228/228/228 230/230/230 226/226/226
f 229/229/229 231/231/231 228/228/228
f 228/228/228 231/231/231 230/230/230
f 231/231/231 232/232/232 230/230/230
f 235/235/235 234/234/234 233/233/233
f 236/236/236 235/235/235 233/233/233
f 236/236/236 233/233/233 237/237/237
f 238/238/238 236/236/236 237/237/237
f 238/238/238 237/237/237 239/239/239
f 240/240/240 238/238/238 239/239/239
f 240/240/240 239/239/239 241/241/241
f 242/242/242 240/240/240 241/241/241
f 242/242/242 241/241/241 243/243/243
f 244/244/244 242/242/242 243/243/243
f 244/244/244 243/243/243 245/245/245
f 246/246/246 244/244/244 245/245/245
f 246/246/246 245/245/245 247/247/247
f 248/248/248 246/246/246 247/247/247
f 248/248/248 247/247/247 249/249/249
f 250/250/250 248/248/248 249/249/249
f 250/250/250 249/249/249 251/251/251
f 252/252/252 250/250/250 251/251/251
f 255/255/255 254/254/254 253/253/253
f 254/254/254 256/256/256 253/253/253
f 254/254/254 257/257/257 256/256/256
f 257/257/257 258/258/258 256/256/256
f 257/257/257 259/259/259 258/258/258
f 259/259/259 260/260/260 258/258/258
f 259/259/259 261/261/261 260/260/260
f 261/261/261 262/262/262 260/260/260
f 261/261/261 263/263/263 262/262/262
f 263/263/263 264/264/264 262/262/262
f 263/263/263 265/265/265 264/264/264
f 265/265/265 266/266/266 264/264/264
f 265/265/265 267/267/267 266/266/266
f 267/267/267 268/268/268 266/266/266
f 267/267/267 269/269/269 268/268/268
f 269/269/269 270/270/270 268/268/268
f 269/269/269 271/271/271 270/270/270
f 271/271/271 272/272/272 270/270/270
f 275/275/275 274/274/274 273/273/273
f 276/276/276 275/275/275 273/273/273
f 276/276/276 273/273/273 277/277/277
f 278/278/278 276/276/276 277/277/277
f 278/278/278 277/277/277 279/279/279
f 280/280/280 278/278/278 279/279/279
f 280/280/280 279/279/279 281/281/281
f 282/282/282 280/280/280 281/281/281
f 282/282/282 281/281/281 283/283/283
f 284/284/284 282/282/282 283/283/283
f 287/287/287 286/286/286 285/285/285
f 288/288/288 287/287/287 285/285/285
f 288/288/288 285/285/285 289/289/289
f 290/290/290 288/288/288 289/289/289
f 290/290/290 289/289/289 291/291/291
f 292/292/292 290/290/290 291/291/291
f 292/292/292 291/291/291 293/293/293
f 294/294/294 292/292/292 293/293/293
f 294/294/294 293/293/293 295/295/295
f 296/296/296 294/294/294 295/295/295
f 299/299/299 298/298/298 297/297/297
f 298/298/298 300/300/300 297/297/297
f 298/298/298 301/301/301 300/300/300
f 301/301/301 302/302/302 300/300/300
f 301/301/301 303/303/303 302/302/302
f 303/303/303 304/304/304 302/302/302
f 303/303/303 305/305/305 304/304/304
f 305/305/305 306/306/306 304/304/304
f 309/309/309 308/308/308 307/307/307
f 308/308/308 310/310/310 307/307/307
f 308/308/308 311/311/311 310/310/310
f 311/311/311 312/312/312 310/310/310
f 311/311/311 313/313/313 312/312/312
f 313/313/313 314/314/314 312/312/312
f 313/313/313 315/315/315 314/314/314
f 315/315/315 316/316/316 314/314/314
f 319/319/319 318/318/318 317/317/317
f 320/320/320 319/319/319 317/317/317
f 320/320/320 317/317/317 321/321/321
f 322/322/322 320/320/320 321/321/321
f 325/325/325 324/324/324 323/323/323
f 324/324/324 326/326/326 323/323/323
f 324/324/324 327/327/327 326/326/326
f 327/327/327 328/328/328 326/326/326
f 327/327/327 329/329/329 328/328/328
f 329/329/329 330/330/330 328/328/328
f 329/329/329 331/331/331 330/330/330
f 331/331/331 332/332/332 330/330/330
f 331/331/331 333/333/333 332/332/332
f 333/333/333 334/334/334 332/332/332
f 333/333/333 335/335/335 334/334/334
f 335/335/335 336/336/336 334/334/334
f 335/335/335 337/337/337 336/336/336
f 337/337/337 338/338/338 336/336/336
f 337/337/337 339/339/339 338/338/338
f 339/339/339 340/340/340 338/338/338
f 339/339/339 341/341/341 340/340/340
f 341/341/341 342/342/342 340/340/340
f 345/345/345 344/344/344 343/343/343
f 346/346/346 345/345/345 343/343/343
f 346/346/346 343/343/343 347/347/347
f 348/348/348 346/346/346 347/347/347
f 348/348/348 347/347/347 349/349/349
f 350/350/350 348/348/348 349/349/349
f 350/350/350 349/349/349 351/351/351
f 352/352/352 350/350/350 351/351/351
f 352/352/352 351/351/351 353/353/353
f 354/354/354 352/352/352 353/353/353
f 354/354/354 353/353/353 355/355/355
f 356/356/356 354/354/354 355/355/355
f 356/356/356 355/355/355 357/357/357
f 358/358/358 356/356/356 357/357/357
f 358/358/358 357/357/357 359/359/359
f 360/360/360 358/358/358 359/359/359
f 360/360/360 359/359/359 361/361/361
f 362/362/362 360/360/360 361/361/361
f 365/365/365 364/364/364 363/363/363
f 366/366/366 365/365/365 363/363/363
f 366/366/366 363/363/363 367/367/367
f 368/368/368 366/366/366 367/367/367
f 371/371/371 370/370/370 369/369/369
f 372/372/372 371/371/371 369/369/369
f 372/372/372 369/369/369 373/373/373
f 374/374/374 372/372/372 373/373/373
f 377/377/377 376/376/376 375/375/375
f 378/378/378 377/377/377 375/375/375
f 378/378/378 375/375/375 379/379/379
f 380/380/380 378/378/378 379/379/379
f 380/380/380 379/379/379 381/381/381
f 382/382/382 380/380/380 381/381/381
f 382/382/382 381/381/381 383/383/383
f 384/384/384 382/382/382 383/383/383
f 384/384/384 383/383/383 385/385/385
f 386/386/386 384/384/384 385/385/385
f 386/386/386 385/385/385 387/387/387
f 388/388/388 386/386/386 387/387/387
f 388/388/388 387/387/387 389/389/389
f 390/390/390 388/388/388 389/389/389
f 390/390/390 389/389/389 391/391/391
f 392/392/392 390/390/390 391/391/391
f 392/392/392 391/391/391 393/393/393
f 394/394/394 392/392/392 393/393/393
f 397/397/397 396/396/396 395/395/395
f 398/398/398 397/397/397 395/395/395
f 398/398/398 395/395/395 399/399/399
f 400/400/400 398/398/398 399/399/399
f 403/403/403 402/402/402 401/401/401
f 404/404/404 403/403/403 401/401/401
f 404/404/404 401/401/401 405/405/405
f 406/406/406 404/404/404 405/405/405
f 406/406/406 405/405/405 407/407/407
f 408/408/408 406/406/406 407/407/407
f 408/408/408 407/407/407 409/409/409
f 410/410/410 408/408/408 409/409/409
f 410/410/410 409/409/409 411/411/411
f 412/412/412 410/410/410 411/411/411
f 412/412/412 411/411/411 413/413/413
f 414/414/414 412/412/412 413/413/413
f 414/414/414 413/413/413 415/415/415
f 416/416/416 414/414/414 415/415/415
f 416/416/416 415/415/415 417/417/417
f 418/418/418 416/416/416 417/417/417
f 418/418/418 417/417/417 419/419/419
f 420/420/420 418/418/418 419/419/419
f 423/423/423 422/422/422 421/421/421
f 424/424/424 423/423/423 421/421/421
f 424/424/424 421/421/421 425/425/425
f 426/426/426 424/424/424 425/425/425
f 429/429/429 428/428/428 427/427/427
f 430/430/430 429/429/429 427/427/427
f 430/430/430 427/427/427 431/431/431
f 432/432/432 430/430/430 431/431/431
f 435/435/435 434/434/434 433/433/433
f 436/436/436 435/435/435 433/433/433
f 437/437/437 435/435/435 436/436/436
f 438/438/438 437/437/437 436/436/436
f 437/437/437 438/438/438 439/439/439
f 440/440/440 437/437/437 439/439/439
f 441/441/441 440/440/440 439/439/439
f 442/442/442 441/441/441 439/439/439
f 443/443/443 441/441/441 442/442/442
f 444/444/444 443/443/443 442/442/442
f 445/445/445 443/443/443 444/444/444
f 446/446/446 445/445/445 444/444/444
f 447/447/447 445/445/445 446/446/446
f 448/448/448 447/447/447 446/446/446
f 449/449/449 447/447/447 448/448/448
f 450/450/450 449/449/449 448/448/448
f 451/451/451 449/449/449 450/450/450
f 452/452/452 451/451/451 450/450/450
f 455/455/455 454/454/454 453/453/453
f 454/454/454 456/456/456 453/453/453
f 453/453/453 456/456/456 457/457/457
f 456/456/456 458/458/458 457/457/457
f 457/457/457 458/458/458 459/459/459
f 458/458/458 460/460/460 459/459/459
f 459/459/459 460/460/460 461/461/461
f 460/460/460 462/462/462 461/461/461
f 461/461/461 462/462/462 463/463/463
f 462/462/462 464/464/464 463/463/463
f 463/463/463 464/464/464 465/465/465
f 464/464/464 466/466/466 465/465/465
f 465/465/465 466/466/466 467/467/467
f 466/466/466 468/468/468 467/467/467
f 467/467/467 468/468/468 469/469/469
f 468/468/468 470/470/470 469/469/469
f 469/469/469 470/470/470 471/471/471
f 470/470/470 472/472/472 471/471/471
f 475/475/475 474/474/474 473/473/473
f 476/476/476 475/475/475 473/473/473
f 477/477/477 475/475/475 476/476/476
f 478/478/478 477/477/477 476/476/476
f 479/479/479 477/477/477 478/478/478
f 480/480/480 479/479/479 478/478/478
f 481/481/481 479/479/479 480/480/480
f 482/482/482 481/481/481 480/480/480
f 483/483/483 481/481/481 482/482/482
f 484/484/484 483/483/483 482/482/482
f 485/485/485 483/483/483 484/484/484
f 486/486/486 485/485/485 484/484/484
f 487/487/487 485/485/485 486/486/486
f 488/488/488 487/487/487 486/486/486
f 489/489/489 487/487/487 488/488/488
f 490/490/490 489/489/489 488/488/488
f 491/491/491 489/489/489 490/490/490
f 492/492/492 491/491/491 490/490/490
f 495/495/495 494/494/494 493/493/493
f 494/494/494 496/496/496 493/493/493
f 493/493/493 496/496/496 497/497/497
f 496/496/496 498/498/498 497/497/497
f 497/497/497 498/498/498 499/499/499
f 498/498/498 500/500/500 499/499/499
f 499/499/499 500/500/500 501/501/501
f 500/500/500 502/502/502 501/501/501
f 501/501/501 502/502/502 503/503/503
f 502/502/502 504/504/504 503/503/503
f 503/503/503 504/504/504 505/505/505
f 504/504/504 506/506/506 505/505/505
f 505/505/505 506/506/506 507/507/507
f 506/506/506 508/508/508 507/507/507
f 507/507/507 508/508/508 509/509/509
f 508/508/508 510/510/510 509/509/509
f 509/509/509 510/510/510 511/511/511
f 510/510/510 512/512/512 511/511/511
