g Exterior_Grass_4
v -6.58065033 -0.0613697693 9.65310478
v -6.58065033 -0.0301503837 7.45310545
v -4.38064861 0.0255671591 7.45310545
v -4.38064861 -0.0370754153 9.65310478
v -6.58065033 -0.0301503837 7.45310545
v -6.58065033 0.0620408505 5.25310516
v -4.38064861 0.087374717 5.25310516
v -4.38064861 0.0255671591 7.45310545
v -4.38064861 -0.0370754153 9.65310478
v -4.38064861 0.0255671591 7.45310545
v -2.1806488 0.0177119356 7.45310545
v -2.1806488 -0.0429700948 9.65310478
v -4.38064861 0.0255671591 7.45310545
v -4.38064861 0.087374717 5.25310516
v -2.1806488 0.0777872354 5.25310516
v -2.1806488 0.0177119356 7.45310545
v -2.1806488 -0.0429700948 9.65310478
v -2.1806488 0.0177119356 7.45310545
v 0.0193511955 -0.0044755456 7.45310545
v 0.0193511955 -0.0594641753 9.65310478
v -2.1806488 0.0177119356 7.45310545
v -2.1806488 0.0777872354 5.25310516
v 0.0193511955 0.0505640693 5.25310516
v 0.0193511955 -0.0044755456 7.45310545
v 0.0193511955 -0.0594641753 9.65310478
v 0.0193511955 -0.0044755456 7.45310545
v 2.21935105 -0.0370754153 7.45310545
v 2.21935105 -0.0831838697 9.65310478
v 0.0193511955 -0.0044755456 7.45310545
v 0.0193511955 0.0505640693 5.25310516
v 2.21935105 0.0100887585 5.25310516
v 2.21935105 -0.0370754153 7.45310545
v 2.21935105 -0.0831838697 9.65310478
v 2.21935105 -0.0370754153 7.45310545
v 4.41935253 -0.0742423907 7.45310545
v 4.41935253 -0.109127358 9.65310478
v 2.21935105 0.0100887585 5.25310516
v 2.21935105 0.0505640693 3.05310535
v 4.41935253 -0.0044755456 3.05310535
v 4.41935253 -0.0370753929 5.25310516
v 2.21935105 0.0505640693 3.05310535
v 2.21935105 0.0777872354 0.853105426
v 4.41935253 0.0177119356 0.853105426
v 4.41935253 -0.0044755456 3.05310535
v 2.21935105 -0.0370754153 7.45310545
v 2.21935105 0.0100887585 5.25310516
v 4.41935253 -0.0370753929 5.25310516
v 4.41935253 -0.0742423907 7.45310545
v 4.41935253 -0.109127358 9.65310478
v 4.41935253 -0.0742423907 7.45310545
v 6.61935234 -0.109127358 7.45310545
v 6.61935234 -0.131478474 9.65310478
v 4.41935253 -0.0370753929 5.25310516
v 4.41935253 -0.0044755456 3.05310535
v 6.61935234 -0.0594641753 3.05310535
v 6.61935234 -0.0831838697 5.25310516
v 4.41935253 -0.0044755456 3.05310535
v 4.41935253 0.0177119356 0.853105426
v 6.61935234 -0.0418436341 0.853105426
v 6.61935234 -0.0594641753 3.05310535
v 4.41935253 -0.0742423907 7.45310545
v 4.41935253 -0.0370753929 5.25310516
v 6.61935234 -0.0831838697 5.25310516
v 6.61935234 -0.109127358 7.45310545
v 6.61935234 -0.131478474 9.65310478
v 6.61935234 -0.109127358 7.45310545
v 8.81935215 -0.134964943 7.45310545
v 8.81935215 -0.144660711 9.65310478
v 6.61935234 -0.0831838697 5.25310516
v 6.61935234 -0.0594641753 3.05310535
v 7.93689108 -0.0866033658 3.05310535
v 7.95677757 -0.0903164744 3.88101077
v 8.10402107 -0.0964682475 4.31769514
v 8.44976521 -0.105257444 4.55116701
v 8.81935215 -0.113436818 4.6304884
v 8.81935215 -0.120492846 5.25310516
v 6.61935234 -0.0594641753 3.05310535
v 7.9375577 -0.0832714364 2.45280266
v 7.93689108 -0.0866033658 3.05310535
v 6.61935234 -0.0418436341 0.853105426
v 8.14078522 -0.0836827382 2.0023241
v 8.49465847 -0.0883031934 1.73709953
v 8.81935215 -0.0938024223 1.63546872
v 8.81935215 -0.0852251723 0.853105426
v 6.61935234 -0.109127358 7.45310545
v 6.61935234 -0.0831838697 5.25310516
v 8.81935215 -0.120492846 5.25310516
v 8.81935215 -0.134964943 7.45310545
v 8.81935215 -0.144660711 9.65310478
v 8.81935215 -0.134964943 7.45310545
v 11.0193529 -0.14633058 7.45310545
v 11.0193529 -0.14633058 9.65310478
v 9.73604202 -0.114789687 3.05310535
v 11.0193529 -0.128801689 3.05310535
v 11.0193529 -0.142448589 5.25310516
v 9.70752621 -0.117411084 3.8912499
v 9.60159492 -0.118975744 4.31295395
v 9.24211788 -0.117034614 4.54348135
v 8.81935215 -0.120492846 5.25310516
v 8.81935215 -0.113436818 4.6304884
v 8.81935215 -0.0938024223 1.63546872
v 8.81935215 -0.0852251723 0.853105426
v 11.0193529 -0.106204458 0.853105426
v 9.23513222 -0.0994553864 1.76070797
v 9.53665161 -0.104819842 1.99383783
v 9.70465755 -0.110311456 2.40527821
v 9.73604202 -0.114789687 3.05310535
v 11.0193529 -0.128801689 3.05310535
v 8.81935215 -0.134964943 7.45310545
v 8.81935215 -0.120492846 5.25310516
v 11.0193529 -0.142448589 5.25310516
v 11.0193529 -0.14633058 7.45310545
v 2.21935105 0.0777872354 0.853105426
v 2.21935105 0.087374717 -1.3468945
v 4.41935253 0.0255671591 -1.3468945
v 4.41935253 0.0177119356 0.853105426
v 4.41935253 0.0177119356 0.853105426
v 4.41935253 0.0255671591 -1.3468945
v 6.61935234 -0.0293659307 -1.3468945
v 6.61935234 -0.0418436341 0.853105426
v 6.61935234 -0.0418436341 0.853105426
v 6.61935234 -0.0293659307 -1.3468945
v 8.81935215 -0.0661518201 -1.3468945
v 8.81935215 -0.0852251723 0.853105426
v 8.81935215 -0.0852251723 0.853105426
v 8.81935215 -0.0661518201 -1.3468945
v 11.0193529 -0.0805638209 -1.3468945
v 11.0193529 -0.106204458 0.853105426
v -10.9806528 -0.131046206 9.65310478
v -10.9806528 -0.13410145 7.45310545
v -8.780653 -0.101501584 7.45310545
v -8.780653 -0.107326515 9.65310478
v -10.9806528 -0.13410145 7.45310545
v -10.9806528 -0.027706651 5.25310516
v -8.780653 0.00936700776 5.25310516
v -8.780653 -0.101501584 7.45310545
v -8.780653 -0.107326515 9.65310478
v -8.780653 -0.101501584 7.45310545
v -6.58065033 -0.0301503837 7.45310545
v -6.58065033 -0.0613697693 9.65310478
v -8.780653 -0.101501584 7.45310545
v -8.780653 0.00936700776 5.25310516
v -6.58065033 0.0620408505 5.25310516
v -6.58065033 -0.0301503837 7.45310545
v -6.58065033 -0.0952920616 11.8531008
v -6.58065033 -0.0613697693 9.65310478
v -4.38064861 -0.0370754153 9.65310478
v -4.38064861 -0.0914258659 11.8531008
v -4.38064861 -0.129564762 14.0531006
v -4.38064861 -0.0914258659 11.8531008
v -2.1806488 -0.0952920616 11.8531008
v -2.69273376 -0.122341312 13.4361134
v -2.1806488 -0.120723881 13.2716303
v -2.59589481 -0.246679336 13.5510006
v -2.14667606 -0.245732993 13.4067135
v -2.64403248 -0.2478313 13.643261
v -2.77855039 -0.124602571 13.6005955
v -2.83929992 -0.130528226 14.0531006
v -2.70614195 -0.253555268 14.1059074
v -4.38064861 -0.0914258659 11.8531008
v -4.38064861 -0.0370754153 9.65310478
v -2.1806488 -0.0429700948 9.65310478
v -2.1806488 -0.0952920616 11.8531008
v -2.1806488 -0.120723881 13.2716303
v -2.1806488 -0.0952920616 11.8531008
v 0.0193511955 -0.105907165 11.8531008
v -1.97138727 -0.120723881 13.2331438
v -2.14667606 -0.245732993 13.4067135
v -2.00996447 -0.245732993 13.3815718
v 0.0193511955 -0.130528226 13.4654636
v -1.46729672 -0.12796627 13.6495705
v -1.51959407 -0.252033889 13.7866602
v -0.774719834 -0.12796627 13.5136814
v -1.35332823 -0.12831521 13.6539497
v -1.33934629 -0.252853513 13.7935934
v -0.753964245 -0.252605021 13.651679
v 0.0243609622 -0.254459023 13.604414
v -2.1806488 -0.0952920616 11.8531008
v -2.1806488 -0.0429700948 9.65310478
v 0.0193511955 -0.0594641753 9.65310478
v 0.0193511955 -0.105907165 11.8531008
v 0.0193511955 -0.130528226 13.4654636
v 0.0193511955 -0.105907165 11.8531008
v 2.21935105 -0.120492846 11.8531008
v 1.10285461 -0.134093001 13.4531298
v 0.0243609622 -0.254459023 13.604414
v 2.21935058 -0.139547646 13.615078
v 1.09361935 -0.258255273 13.5922461
v 2.19059014 -0.262764186 13.7513666
v 0.0193511955 -0.105907165 11.8531008
v 0.0193511955 -0.0594641753 9.65310478
v 2.21935105 -0.0831838697 9.65310478
v 2.21935105 -0.120492846 11.8531008
v 2.21935058 -0.139547646 13.615078
v 2.21935105 -0.120492846 11.8531008
v 4.41935253 -0.134964943 11.8531008
v 4.41935253 -0.14633058 14.0531006
v 3.10025191 -0.143681839 13.8610058
v 2.19059014 -0.262764186 13.7513666
v 3.48413634 -0.145079806 14.0531006
v 3.04999208 -0.266340286 13.9912891
v 3.40112591 -0.267484158 14.1669922
v 2.21935105 -0.120492846 11.8531008
v 2.21935105 -0.0831838697 9.65310478
v 4.41935253 -0.109127358 9.65310478
v 4.41935253 -0.134964943 11.8531008
v 4.41935253 -0.14633058 14.0531006
v 4.41935253 -0.134964943 11.8531008
v 6.61935234 -0.144660726 11.8531008
v 5.35109901 -0.14633058 13.5093012
v 6.61935234 -0.14633058 12.9568796
v 5.21280813 -0.14633058 13.7640429
v 5.08543491 -0.14633058 13.9532862
v 4.79429865 -0.14633058 14.0531006
v 5.17468071 -0.268407315 14.0696287
v 5.33180571 -0.268407315 13.8361816
v 5.44650173 -0.268407315 13.6249018
v 5.63859797 -0.14633058 13.4183197
v 5.68053627 -0.268407315 13.5508394
v 6.21359539 -0.14633058 13.2181635
v 6.27492857 -0.268407315 13.3439941
v 6.726717 -0.268407315 13.0530663
v 4.41935253 -0.134964943 11.8531008
v 4.41935253 -0.109127358 9.65310478
v 6.61935234 -0.131478474 9.65310478
v 6.61935234 -0.144660726 11.8531008
v 4.41935253 -0.14633058 14.16436
v 4.41935253 -0.14633058 14.0531006
v 4.79429865 -0.14633058 14.0531006
v 4.45539713 -0.268407315 14.2986031
v 4.83384085 -0.268407315 14.1863575
v 5.08543491 -0.14633058 13.9532862
v 5.17468071 -0.268407315 14.0696287
v 6.61935234 -0.144660726 11.8531008
v 6.61935234 -0.131478474 9.65310478
v 8.81935215 -0.144660711 9.65310478
v 8.8193512 -0.14633058 11.6965084
v 8.46080685 -0.14633058 11.8531008
v 8.8193512 -0.14633058 11.6965084
v 8.81935215 -0.144660711 9.65310478
v 11.0193529 -0.14633058 9.65310478
v 9.35778522 -0.14633058 11.5861082
v 8.86158371 -0.268407315 11.8297405
v 9.36669731 -0.268407345 11.7261715
v 11.0193529 -0.14633058 11.61831
v 10.2133646 -0.14633058 11.6505079
v 10.2109051 -0.268407345 11.7897167
v 11.012661 -0.268407315 11.7576857
v -10.9806528 -0.118025593 10.9402733
v -10.9806528 -0.131046206 9.65310478
v -8.780653 -0.107326515 9.65310478
v -8.780653 -0.100753009 11.3336029
v -9.42934227 -0.107596248 11.2692385
v -11.0193529 -0.240420222 11.0741596
v -9.45069695 -0.230256423 11.406806
v -8.78915405 -0.224186584 11.4724407
v -8.780653 -0.100753009 11.3336029
v -8.780653 -0.107326515 9.65310478
v -6.58065033 -0.0613697693 9.65310478
v -7.88464212 -0.0925241336 11.3550587
v -8.78915405 -0.224186584 11.4724407
v -7.90162563 -0.217451811 11.4936914
v -7.2124114 -0.09057004 11.5052338
v -6.58065033 -0.0952920616 11.8531008
v -7.26208735 -0.216710657 11.6365671
v -6.67179537 -0.220793113 11.9615917
v -4.38064861 -0.129564762 14.0531006
v -4.49073458 -0.252990097 14.1443548
v -5.02863646 -0.248005629 13.7423439
v -4.93827009 -0.124032907 13.6363478
v -5.99238157 -0.235388368 12.8075829
v -5.88940477 -0.110119559 12.7138186
v -4.38064861 -0.0914258659 11.8531008
v -6.67179537 -0.220793113 11.9615917
v -6.58065033 -0.0952920616 11.8531008
v -2.83929992 -0.130528226 14.0531006
v -2.70614195 -0.253555268 14.1059074
v -2.82258964 -0.255385995 14.2684669
v -2.90505052 -0.131739512 14.1448927
v -4.02444792 -0.257853717 14.5468941
v -4.20691919 -0.133855373 14.4078951
v -4.38064861 -0.129564762 14.0531006
v -4.49073458 -0.252990097 14.1443548
v -4.29362583 -0.257329196 14.5468941
v -4.04035044 -0.133855373 14.4078951
v 4.41935253 -0.14633058 14.16436
v 4.45539713 -0.268407315 14.2986031
v 3.90545106 -0.268407315 14.446269
v 3.87721372 -0.14633058 14.3099318
v 3.70368838 -0.268407315 14.4759369
v 3.75347948 -0.14633058 14.328125
v 4.41935253 -0.14633058 14.0531006
v 3.40112591 -0.267484158 14.1669922
v 3.48413634 -0.145079806 14.0531006
v 8.46080685 -0.14633058 11.8531008
v 8.52440453 -0.268407315 11.9770021
v 8.10582352 -0.268407315 12.2259474
v 8.07441616 -0.14633058 12.0829
v 7.66772032 -0.268407315 12.1800976
v 7.6788249 -0.14633058 12.0414991
v 7.2095499 -0.268407315 12.1548729
v 7.17743683 -0.14633058 12.013896
v 6.61935234 -0.144660726 11.8531008
v 7.10636997 -0.268407315 12.2116213
v 6.99344158 -0.14633058 12.115097
v 6.61935234 -0.14633058 12.9568796
v 7.00184631 -0.268407315 12.5010738
v 6.87384462 -0.14633058 12.4462891
v 6.726717 -0.268407315 13.0530663
v 8.8193512 -0.14633058 11.6965084
v 8.86158371 -0.268407315 11.8297405
v 8.52440453 -0.268407315 11.9770021
v 8.46080685 -0.14633058 11.8531008
vt 2.98023224E-07 5.96046448E-08
vt 2.98023224E-07 1
vt 1 1
vt 1 5.96046448E-08
vt 2.98023224E-07 5.96046448E-08
vt 2.98023224E-07 1
vt 1 1
vt 1 5.96046448E-08
vt 2.98023224E-07 5.96046448E-08
vt 2.98023224E-07 1
vt 1 1
vt 1 5.96046448E-08
vt 2.98023224E-07 5.96046448E-08
vt 2.98023224E-07 1
vt 1 1
vt 1 5.96046448E-08
vt 2.98023224E-07 5.96046448E-08
vt 2.98023224E-07 1
vt 1 1
vt 1 5.96046448E-08
vt 2.98023224E-07 5.96046448E-08
vt 2.98023224E-07 1
vt 1 1
vt 1 5.96046448E-08
vt 2.98023224E-07 5.96046448E-08
vt 2.98023224E-07 1
vt 1 1
vt 1 5.96046448E-08
vt 2.98023224E-07 5.96046448E-08
vt 2.98023224E-07 1
vt 1 1
vt 1 5.96046448E-08
vt 2.98023224E-07 5.96046448E-08
vt 2.98023224E-07 1
vt 1 1
vt 1 5.96046448E-08
vt 2.98023224E-07 5.96046448E-08
vt 2.98023224E-07 1
vt 1 1
vt 1 5.96046448E-08
vt 2.98023224E-07 5.96046448E-08
vt 2.98023224E-07 1
vt 1 1
vt 1 5.96046448E-08
vt 2.98023224E-07 5.96046448E-08
vt 2.98023224E-07 1
vt 1 1
vt 1 5.96046448E-08
vt 2.98023224E-07 5.96046448E-08
vt 2.98023224E-07 1
vt 1 1
vt 1 5.96046448E-08
vt 2.98023224E-07 5.96046448E-08
vt 2.98023224E-07 1
vt 1 1
vt 1 5.96046448E-08
vt 2.98023224E-07 5.96046448E-08
vt 2.98023224E-07 1
vt 1 1
vt 1 5.96046448E-08
vt 2.98023224E-07 5.96046448E-08
vt 2.98023224E-07 1
vt 1 1
vt 1 5.96046448E-08
vt 2.98023224E-07 5.96046448E-08
vt 2.98023224E-07 1
vt 1 1
vt 1 5.96046448E-08
vt 2.98023224E-07 5.96046448E-08
vt 2.98023224E-07 1
vt 0.599121094 1
vt 0.607910156 0.789550781
vt 0.674804688 0.591308594
vt 0.83203125 0.485107422
vt 1 0.448974609
vt 1 5.96046448E-08
vt 2.98023224E-07 5.96046448E-08
vt 0.599121094 0.189819336
vt 0.599121094 5.96046448E-08
vt 2.98023224E-07 1
vt 0.69140625 0.39453125
vt 0.852539062 0.515136719
vt 1 0.561523438
vt 1 1
vt 2.98023224E-07 5.96046448E-08
vt 2.98023224E-07 1
vt 1 1
vt 1 5.96046448E-08
vt 2.98023224E-07 5.96046448E-08
vt 2.98023224E-07 1
vt 1 1
vt 1 5.96046448E-08
vt 0.416748047 1
vt 1 1
vt 1 5.96046448E-08
vt 0.403808594 0.78515625
vt 0.35546875 0.593261719
vt 0.192138672 0.488525391
vt 2.98023224E-07 5.96046448E-08
vt 2.98023224E-07 0.448974609
vt 2.98023224E-07 0.561523438
vt 2.98023224E-07 1
vt 1 1
vt 0.188964844 0.504394531
vt 0.325927734 0.3984375
vt 0.40234375 0.211425781
vt 0.416748047 5.96046448E-08
vt 1 5.96046448E-08
vt 2.98023224E-07 5.96046448E-08
vt 2.98023224E-07 1
vt 1 1
vt 1 5.96046448E-08
vt 2.98023224E-07 5.96046448E-08
vt 2.98023224E-07 1
vt 1 1
vt 1 5.96046448E-08
vt 2.98023224E-07 5.96046448E-08
vt 2.98023224E-07 1
vt 1 1
vt 1 5.96046448E-08
vt 2.98023224E-07 5.96046448E-08
vt 2.98023224E-07 1
vt 1 1
vt 1 5.96046448E-08
vt 2.98023224E-07 5.96046448E-08
vt 2.98023224E-07 1
vt 1 1
vt 1 5.96046448E-08
vt 2.98023224E-07 5.96046448E-08
vt 2.98023224E-07 1
vt 1 1
vt 1 5.96046448E-08
vt 2.98023224E-07 5.96046448E-08
vt 2.98023224E-07 1
vt 1 1
vt 1 5.96046448E-08
vt 2.98023224E-07 5.96046448E-08
vt 2.98023224E-07 1
vt 1 1
vt 1 5.96046448E-08
vt 2.98023224E-07 5.96046448E-08
vt 2.98023224E-07 1
vt 1 1
vt 1 5.96046448E-08
vt 2.98023224E-07 5.96046448E-08
vt 2.98023224E-07 1
vt 1 1
vt 1 5.96046448E-08
vt 2.98023224E-07 5.96046448E-08
vt 2.98023224E-07 1
vt 1 1
vt 0.773925781 0.287841797
vt 1 0.362548828
vt 0.817871094 0.235595703
vt 1 0.301269531
vt 0.795898438 0.193603516
vt 0.734863281 0.213012695
vt 0.70703125 5.96046448E-08
vt 0.768066406 5.96046448E-08
vt 2.98023224E-07 5.96046448E-08
vt 2.98023224E-07 1
vt 1 1
vt 1 5.96046448E-08
vt 2.98023224E-07 0.362548828
vt 2.98023224E-07 1
vt 1 1
vt 0.100646973 0.380126953
vt 0.0208587646 0.301269531
vt 0.0831298828 0.312744141
vt 1 0.274414062
vt 0.330078125 0.190673828
vt 0.306396484 0.128295898
vt 0.645507812 0.252441406
vt 0.382080078 0.188720703
vt 0.388427734 0.12512207
vt 0.654785156 0.189697266
vt 1 0.20324707
vt 2.98023224E-07 5.96046448E-08
vt 2.98023224E-07 1
vt 1 1
vt 1 5.96046448E-08
vt 2.98023224E-07 0.274414062
vt 2.98023224E-07 1
vt 1 1
vt 0.498535156 0.280029297
vt 2.98023224E-07 0.211181641
vt 1 0.198486328
vt 0.494384766 0.216796875
vt 1 0.14440918
vt 2.98023224E-07 5.96046448E-08
vt 2.98023224E-07 1
vt 1 1
vt 1 5.96046448E-08
vt 2.98023224E-07 0.206420898
vt 2.98023224E-07 1
vt 1 1
vt 1 5.96046448E-08
vt 0.404296875 0.0944824219
vt 2.98023224E-07 0.14440918
vt 0.579101562 5.96046448E-08
vt 0.381347656 0.0352478027
vt 0.489990234 5.96046448E-08
vt 2.98023224E-07 5.96046448E-08
vt 2.98023224E-07 1
vt 1 1
vt 1 5.96046448E-08
vt 2.98023224E-07 5.96046448E-08
vt 2.98023224E-07 1
vt 1 1
vt 0.426757812 0.254394531
vt 1 0.505859375
vt 0.363769531 0.138671875
vt 0.305664062 0.052520752
vt 0.173217773 5.96046448E-08
vt 0.346435547 5.96046448E-08
vt 0.41796875 0.105834961
vt 0.470214844 0.201904297
vt 0.557617188 0.295898438
vt 0.576660156 0.235595703
vt 0.819335938 0.386962891
vt 0.847167969 0.329833984
vt 1 0.430664062
vt 2.98023224E-07 5.96046448E-08
vt 2.98023224E-07 1
vt 1 1
vt 1 5.96046448E-08
vt 2.98023224E-07 0.958984375
vt 2.98023224E-07 1
vt 0.173217773 1
vt 2.98023224E-07 0.889648438
vt 0.19128418 0.948730469
vt 0.322753906 1
vt 0.360595703 0.95703125
vt 2.98023224E-07 5.96046448E-08
vt 2.98023224E-07 1
vt 1 1
vt 1 0.0781860352
vt 0.842285156 5.96046448E-08
vt 2.98023224E-07 0.0781860352
vt 2.98023224E-07 1
vt 1 1
vt 0.249267578 0.128417969
vt 0.0233459473 5.96046448E-08
vt 0.253173828 0.0646972656
vt 1 0.113769531
vt 0.638671875 0.0991210938
vt 0.637695312 0.0357971191
vt 1 0.0503540039
vt 2.98023224E-07 0.421142578
vt 2.98023224E-07 1
vt 1 1
vt 1 0.24230957
vt 0.70703125 0.271484375
vt 2.98023224E-07 0.360351562
vt 0.697265625 0.208984375
vt 1 0.179077148
vt 2.98023224E-07 0.24230957
vt 2.98023224E-07 1
vt 1 1
vt 0.409667969 0.232543945
vt 2.98023224E-07 0.179077148
vt 0.401855469 0.169433594
vt 0.715820312 0.16418457
vt 1 5.96046448E-08
vt 0.692871094 0.104431152
vt 0.875488281 5.96046448E-08
vt 1 5.96046448E-08
vt 0.928222656 5.96046448E-08
vt 0.711425781 0.1484375
vt 0.752441406 0.196655273
vt 0.272705078 0.573730469
vt 0.319580078 0.616210938
vt 1 1
vt 2.98023224E-07 0.930664062
vt 2.98023224E-07 1
vt 0.70703125 1
vt 0.775878906 1
vt 0.71484375 0.912109375
vt 0.677246094 0.968261719
vt 0.167724609 0.785644531
vt 0.0846557617 0.848632812
vt 2.98023224E-07 1
vt 2.98023224E-07 0.940917969
vt 0.0451660156 0.785644531
vt 0.160522461 0.848632812
vt 1 0.958984375
vt 1 0.889648438
vt 0.770507812 0.830566406
vt 0.7578125 0.892578125
vt 0.678710938 0.817382812
vt 0.701660156 0.884277344
vt 1 1
vt 0.541015625 0.957519531
vt 0.579101562 1
vt 0.842285156 1
vt 0.87109375 0.951660156
vt 0.680664062 0.838378906
vt 0.666503906 0.903320312
vt 0.481201172 0.859375
vt 0.486328125 0.922363281
vt 0.272705078 0.870605469
vt 0.258056641 0.935058594
vt 2.98023224E-07 1
vt 0.225708008 0.844726562
vt 0.174316406 0.888671875
vt 2.98023224E-07 0.505859375
vt 0.178222656 0.713378906
vt 0.119873047 0.73828125
vt 2.98023224E-07 0.430664062
vt 1 0.0781860352
vt 1 0.138671875
vt 0.833007812 0.0717163086
vt 0.842285156 5.96046448E-08
vn -0.00513076782 0.999511719 0.0254364014
vn -0.00639724731 0.999511719 0.0277099609
vn 0.000149250031 0.999511719 0.0279998779
vn -0 0.999511719 0.0261230469
vn -0.00639724731 0.999511719 0.0277099609
vn -0.00640106201 0.999511719 0.028793335
vn 0.00123119354 0.999511719 0.0274353027
vn 0.000149250031 0.999511719 0.0279998779
vn -0 0.999511719 0.0261230469
vn 0.000149250031 0.999511719 0.0279998779
vn 0.00677490234 0.999511719 0.0270385742
vn 0.00507354736 0.999511719 0.0252380371
vn 0.000149250031 0.999511719 0.0279998779
vn 0.00123119354 0.999511719 0.0274353027
vn 0.00872039795 0.999511719 0.0253753662
vn 0.00677490234 0.999511719 0.0270385742
vn 0.00507354736 0.999511719 0.0252380371
vn 0.00677490234 0.999511719 0.0270385742
vn 0.0123519897 0.999511719 0.0246582031
vn 0.00910949707 0.999511719 0.0226745605
vn 0.00677490234 0.999511719 0.0270385742
vn 0.00872039795 0.999511719 0.0253753662
vn 0.0152893066 0.999511719 0.0228881836
vn 0.0123519897 0.999511719 0.0246582031
vn 0.00910949707 0.999511719 0.0226745605
vn 0.0123519897 0.999511719 0.0246582031
vn 0.0157165527 0.999511719 0.0209350586
vn 0.0112533569 1 0.0186920166
vn 0.0123519897 0.999511719 0.0246582031
vn 0.0152893066 0.999511719 0.0228881836
vn 0.0196990967 0.999511719 0.0196990967
vn 0.0157165527 0.999511719 0.0209350586
vn 0.0112533569 1 0.0186920166
vn 0.0157165527 0.999511719 0.0209350586
vn 0.0162200928 0.999511719 0.0162200928
vn 0.0109558105 1 0.0136566162
vn 0.0196990967 0.999511719 0.0196990967
vn 0.0228881836 0.999511719 0.0152893066
vn 0.024597168 0.999511719 0.0124130249
vn 0.0209350586 0.999511719 0.0157165527
vn 0.0228881836 0.999511719 0.0152893066
vn 0.0253753662 0.999511719 0.00872039795
vn 0.026473999 0.999511719 0.00721359253
vn 0.024597168 0.999511719 0.0124130249
vn 0.0157165527 0.999511719 0.0209350586
vn 0.0196990967 0.999511719 0.0196990967
vn 0.0209350586 0.999511719 0.0157165527
vn 0.0162200928 0.999511719 0.0162200928
vn 0.0109558105 1 0.0136566162
vn 0.0162200928 0.999511719 0.0162200928
vn 0.0136566162 1 0.0109558105
vn 0.00814819336 1 0.00816345215
vn 0.0209350586 0.999511719 0.0157165527
vn 0.024597168 0.999511719 0.0124130249
vn 0.0219726562 0.999511719 0.00981140137
vn 0.0186309814 1 0.0113220215
vn 0.024597168 0.999511719 0.0124130249
vn 0.026473999 0.999511719 0.00721359253
vn 0.0225982666 0.999511719 0.00732040405
vn 0.0219726562 0.999511719 0.00981140137
vn 0.0162200928 0.999511719 0.0162200928
vn 0.0209350586 0.999511719 0.0157165527
vn 0.0186309814 1 0.0113220215
vn 0.0136566162 1 0.0109558105
vn 0.00814819336 1 0.00816345215
vn 0.0136566162 1 0.0109558105
vn 0.00843811035 1 0.00571060181
vn 0.00400543213 1 0.00341796875
vn 0.0186309814 1 0.0113220215
vn 0.0219726562 0.999511719 0.00981140137
vn 0.0193939209 1 0.00825500488
vn 0.017288208 1 0.00895690918
vn 0.0157623291 1 0.0108184814
vn 0.0172576904 1 0.012588501
vn 0.0136642456 1 0.0117263794
vn 0.0127868652 1 0.0072479248
vn 0.0219726562 0.999511719 0.00981140137
vn 0.0214233398 0.999511719 0.00759506226
vn 0.0193939209 1 0.00825500488
vn 0.0225982666 0.999511719 0.00732040405
vn 0.0206451416 0.999511719 0.00905609131
vn 0.0198516846 0.999511719 0.0105819702
vn 0.0145950317 1 0.0110092163
vn 0.0141601562 1 0.00884246826
vn 0.0136566162 1 0.0109558105
vn 0.0186309814 1 0.0113220215
vn 0.0127868652 1 0.0072479248
vn 0.00843811035 1 0.00571060181
vn 0.00400543213 1 0.00341796875
vn 0.00843811035 1 0.00571060181
vn 0.00270462036 1 0.00196456909
vn 0.000854492188 1 0.000665664673
vn 0.0108413696 1 0.00738525391
vn 0.00508117676 1 0.00840759277
vn 0.00464630127 1 0.00470352173
vn 0.0121688843 1 0.00555801392
vn 0.0114822388 1 0.00764465332
vn 0.0101928711 1 0.0106124878
vn 0.0127868652 1 0.0072479248
vn 0.0136642456 1 0.0117263794
vn 0.0145950317 1 0.0110092163
vn 0.0141601562 1 0.00884246826
vn 0.00374221802 1 0.010925293
vn 0.00960540771 1 0.0112228394
vn 0.00890350342 1 0.0103530884
vn 0.0093460083 1 0.00944519043
vn 0.0108413696 1 0.00738525391
vn 0.00508117676 1 0.00840759277
vn 0.00843811035 1 0.00571060181
vn 0.0127868652 1 0.0072479248
vn 0.00464630127 1 0.00470352173
vn 0.00270462036 1 0.00196456909
vn 0.0253753662 0.999511719 0.00872039795
vn 0.0272827148 0.999511719 0.00138092041
vn 0.0260620117 0.999511719 0.00137996674
vn 0.026473999 0.999511719 0.00721359253
vn 0.026473999 0.999511719 0.00721359253
vn 0.0260620117 0.999511719 0.00137996674
vn 0.020401001 1 0.00388145447
vn 0.0225982666 0.999511719 0.00732040405
vn 0.0225982666 0.999511719 0.00732040405
vn 0.020401001 1 0.00388145447
vn 0.0112762451 1 0.00745010376
vn 0.0141601562 1 0.00884246826
vn 0.0141601562 1 0.00884246826
vn 0.0112762451 1 0.00745010376
vn 0.000952720642 1 0.0110397339
vn 0.00374221802 1 0.010925293
vn -0.0120315552 0.999511719 0.0194854736
vn -0.0154266357 0.999511719 0.0231018066
vn -0.011932373 0.999511719 0.0261383057
vn -0.00955963135 0.999511719 0.0232696533
vn -0.0154266357 0.999511719 0.0231018066
vn -0.0185852051 0.999511719 0.0272979736
vn -0.0134048462 0.999511719 0.0289001465
vn -0.011932373 0.999511719 0.0261383057
vn -0.00955963135 0.999511719 0.0232696533
vn -0.011932373 0.999511719 0.0261383057
vn -0.00639724731 0.999511719 0.0277099609
vn -0.00513076782 0.999511719 0.0254364014
vn -0.011932373 0.999511719 0.0261383057
vn -0.0134048462 0.999511719 0.0289001465
vn -0.00640106201 0.999511719 0.028793335
vn -0.00639724731 0.999511719 0.0277099609
vn -0.017791748 0.999023438 0.0381774902
vn -0.00513076782 0.999511719 0.0254364014
vn -0 0.999511719 0.0261230469
vn 0.000118374825 1 0.0213470459
vn -0.0126419067 0.999511719 0.0294647217
vn 0.000118374825 1 0.0213470459
vn 0.00353622437 1 0.0203094482
vn 0.00601196289 0.999511719 0.025177002
vn 0.00517654419 0.999511719 0.0257720947
vn 0.294189453 0.76171875 0.577636719
vn 0.181518555 0.744628906 0.642578125
vn 0.641113281 0.752441406 0.149902344
vn 0.0100860596 1 0.0188751221
vn 0.0174713135 0.999511719 0.0208740234
vn 0.630371094 0.756347656 0.174438477
vn 0.000118374825 1 0.0213470459
vn -0 0.999511719 0.0261230469
vn 0.00507354736 0.999511719 0.0252380371
vn 0.00353622437 1 0.0203094482
vn 0.00517654419 0.999511719 0.0257720947
vn 0.00353622437 1 0.0203094482
vn 0.0061416626 1 0.0180969238
vn -0.00303649902 0.999511719 0.0282592773
vn 0.181518555 0.744628906 0.642578125
vn -0.310546875 0.766113281 0.562988281
vn 0.00532913208 0.999023438 0.0441894531
vn -0.00634002686 0.999511719 0.0317687988
vn -0.348632812 0.756347656 0.553222656
vn 0.00701904297 0.999023438 0.0390014648
vn 0.00649642944 0.999511719 0.0303344727
vn 0.121826172 0.746582031 0.653808594
vn 0.0920410156 0.746582031 0.659179688
vn 0.0237884521 0.74609375 0.665527344
vn 0.00353622437 1 0.0203094482
vn 0.00507354736 0.999511719 0.0252380371
vn 0.00910949707 0.999511719 0.0226745605
vn 0.0061416626 1 0.0180969238
vn 0.00532913208 0.999023438 0.0441894531
vn 0.0061416626 1 0.0180969238
vn 0.00686264038 1 0.0136947632
vn 0.00246238708 0.999023438 0.0487365723
vn 0.0237884521 0.74609375 0.665527344
vn -0.00111103058 0.999511719 0.0361938477
vn -0.0420837402 0.747558594 0.663085938
vn -0.129272461 0.748535156 0.650390625
vn 0.0061416626 1 0.0180969238
vn 0.00910949707 0.999511719 0.0226745605
vn 0.0112533569 1 0.0186920166
vn 0.00686264038 1 0.0136947632
vn -0.00111103058 0.999511719 0.0361938477
vn 0.00686264038 1 0.0136947632
vn 0.00606918335 1 0.00902557373
vn 0.0034828186 1 0.00592041016
vn -0.0018453598 0.999511719 0.0244293213
vn -0.129272461 0.748535156 0.650390625
vn -0.00289916992 1 0.016998291
vn -0.212646484 0.750488281 0.625488281
vn -0.384033203 0.755371094 0.53125
vn 0.00686264038 1 0.0136947632
vn 0.0112533569 1 0.0186920166
vn 0.0109558105 1 0.0136566162
vn 0.00606918335 1 0.00902557373
vn 0.0034828186 1 0.00592041016
vn 0.00606918335 1 0.00902557373
vn 0.0046081543 1 0.00541305542
vn 0.00849914551 1 0.0104598999
vn 0.0233459473 0.999511719 0.021194458
vn 0.0105819702 1 0.00833129883
vn 0.0104827881 1 0.0144348145
vn 0.00699996948 1 0.0162353516
vn 0.366210938 0.768066406 0.525390625
vn 0.564453125 0.751953125 0.341308594
vn 0.398925781 0.775390625 0.489501953
vn 0.00768280029 1 0.0175018311
vn 0.211425781 0.751464844 0.625
vn 0.0116958618 0.999511719 0.0220947266
vn 0.28125 0.753417969 0.594238281
vn 0.490234375 0.763183594 0.421142578
vn 0.00606918335 1 0.00902557373
vn 0.0109558105 1 0.0136566162
vn 0.00814819336 1 0.00816345215
vn 0.0046081543 1 0.00541305542
vn 0.0866088867 0.947265625 0.30859375
vn 0.0034828186 1 0.00592041016
vn 0.00699996948 1 0.0162353516
vn 0.177856445 0.751464844 0.635253906
vn 0.199707031 0.751464844 0.62890625
vn 0.0104827881 1 0.0144348145
vn 0.366210938 0.768066406 0.525390625
vn 0.0046081543 1 0.00541305542
vn 0.00814819336 1 0.00816345215
vn 0.00400543213 1 0.00341796875
vn 0.00523757935 1 0.0123672485
vn 0.00869750977 1 0.0136642456
vn 0.00523757935 1 0.0123672485
vn 0.00400543213 1 0.00341796875
vn 0.000854492188 1 0.000665664673
vn 0.000988006592 1 0.0196838379
vn 0.187744141 0.752929688 0.630371094
vn 0.0205688477 0.754394531 0.65625
vn 0.000107824802 1 0.0131530762
vn -8.21948051E-05 0.999511719 0.0244750977
vn -0.0126953125 0.751953125 0.659179688
vn -0.0036277771 0.752441406 0.658691406
vn -0.0175933838 0.998535156 0.0529174805
vn -0.0120315552 0.999511719 0.0194854736
vn -0.00955963135 0.999511719 0.0232696533
vn -0.00928497314 0.999023438 0.047668457
vn -0.0167541504 0.998046875 0.0612487793
vn -0.152587891 0.7421875 0.652832031
vn -0.121276855 0.7421875 0.659179688
vn -0.0414733887 0.741699219 0.669433594
vn -0.00928497314 0.999023438 0.047668457
vn -0.00955963135 0.999511719 0.0232696533
vn -0.00513076782 0.999511719 0.0254364014
vn -0.00919342041 0.999023438 0.0462341309
vn -0.0414733887 0.741699219 0.669433594
vn -0.0747070312 0.742675781 0.665527344
vn -0.0140457153 0.999023438 0.0422058105
vn -0.017791748 0.999023438 0.0381774902
vn -0.235961914 0.744140625 0.625
vn -0.442871094 0.748046875 0.493896484
vn -0.0126419067 0.999511719 0.0294647217
vn -0.474609375 0.756347656 0.450439453
vn -0.4375 0.745605469 0.502441406
vn -0.0335693359 0.998046875 0.0529174805
vn -0.484863281 0.744628906 0.458740234
vn -0.0434570312 0.997558594 0.0557556152
vn 0.000118374825 1 0.0213470459
vn -0.442871094 0.748046875 0.493896484
vn -0.017791748 0.999023438 0.0381774902
vn 0.0174713135 0.999511719 0.0208740234
vn 0.630371094 0.756347656 0.174438477
vn 0.19519043 0.754882812 0.625976562
vn 0.0739135742 0.967285156 0.243164062
vn 0.126220703 0.747558594 0.651855469
vn -0.103759766 0.986816406 0.122619629
vn -0.0126419067 0.999511719 0.0294647217
vn -0.474609375 0.756347656 0.450439453
vn -0.411376953 0.79296875 0.44921875
vn 0.0407409668 0.975585938 0.216552734
vn 0.0866088867 0.947265625 0.30859375
vn 0.177856445 0.751464844 0.635253906
vn 0.154296875 0.751953125 0.641113281
vn 0.0492858887 0.978027344 0.203491211
vn -0.319335938 0.780273438 0.537597656
vn -0.115966797 0.973144531 0.197875977
vn 0.0034828186 1 0.00592041016
vn -0.384033203 0.755371094 0.53125
vn -0.00289916992 1 0.016998291
vn 0.00869750977 1 0.0136642456
vn 0.3046875 0.751953125 0.584472656
vn 0.148803711 0.768066406 0.623046875
vn 0.0297088623 0.9921875 0.120544434
vn -0.051361084 0.751464844 0.657714844
vn -0.00574874878 0.995117188 0.0963745117
vn 0.0545043945 0.760742188 0.646484375
vn 0.00754547119 0.997070312 0.0729980469
vn 0.0046081543 1 0.00541305542
vn 0.533203125 0.770019531 0.350097656
vn 0.0471801758 0.998535156 0.0326538086
vn 0.0233459473 0.999511719 0.021194458
vn 0.6015625 0.751953125 0.26953125
vn 0.0941162109 0.994628906 0.0440368652
vn 0.490234375 0.763183594 0.421142578
vn 0.00523757935 1 0.0123672485
vn 0.187744141 0.752929688 0.630371094
vn 0.3046875 0.751953125 0.584472656
vn 0.00869750977 1 0.0136642456
g Exterior_Grass_4_0
f 3/3/3 2/2/2 1/1/1
f 4/4/4 3/3/3 1/1/1
f 7/7/7 6/6/6 5/5/5
f 8/8/8 7/7/7 5/5/5
f 11/11/11 10/10/10 9/9/9
f 12/12/12 11/11/11 9/9/9
f 15/15/15 14/14/14 13/13/13
f 16/16/16 15/15/15 13/13/13
f 19/19/19 18/18/18 17/17/17
f 20/20/20 19/19/19 17/17/17
f 23/23/23 22/22/22 21/21/21
f 24/24/24 23/23/23 21/21/21
f 27/27/27 26/26/26 25/25/25
f 28/28/28 27/27/27 25/25/25
f 31/31/31 30/30/30 29/29/29
f 32/32/32 31/31/31 29/29/29
f 35/35/35 34/34/34 33/33/33
f 36/36/36 35/35/35 33/33/33
f 39/39/39 38/38/38 37/37/37
f 40/40/40 39/39/39 37/37/37
f 43/43/43 42/42/42 41/41/41
f 44/44/44 43/43/43 41/41/41
f 47/47/47 46/46/46 45/45/45
f 48/48/48 47/47/47 45/45/45
f 51/51/51 50/50/50 49/49/49
f 52/52/52 51/51/51 49/49/49
f 55/55/55 54/54/54 53/53/53
f 56/56/56 55/55/55 53/53/53
f 59/59/59 58/58/58 57/57/57
f 60/60/60 59/59/59 57/57/57
f 63/63/63 62/62/62 61/61/61
f 64/64/64 63/63/63 61/61/61
f 67/67/67 66/66/66 65/65/65
f 68/68/68 67/67/67 65/65/65
f 71/71/71 70/70/70 69/69/69
f 72/72/72 71/71/71 69/69/69
f 73/73/73 72/72/72 69/69/69
f 74/74/74 73/73/73 69/69/69
f 75/75/75 74/74/74 69/69/69
f 76/76/76 75/75/75 69/69/69
f 79/79/79 78/78/78 77/77/77
f 78/78/78 80/80/80 77/77/77
f 78/78/78 81/81/81 80/80/80
f 81/81/81 82/82/82 80/80/80
f 82/82/82 83/83/83 80/80/80
f 83/83/83 84/84/84 80/80/80
f 87/87/87 86/86/86 85/85/85
f 88/88/88 87/87/87 85/85/85
f 91/91/91 90/90/90 89/89/89
f 92/92/92 91/91/91 89/89/89
f 95/95/95 94/94/94 93/93/93
f 96/96/96 95/95/95 93/93/93
f 96/96/96 97/97/97 95/95/95
f 97/97/97 98/98/98 95/95/95
f 95/95/95 98/98/98 99/99/99
f 98/98/98 100/100/100 99/99/99
f 103/103/103 102/102/102 101/101/101
f 104/104/104 103/103/103 101/101/101
f 104/104/104 105/105/105 103/103/103
f 105/105/105 106/106/106 103/103/103
f 106/106/106 107/107/107 103/103/103
f 107/107/107 108/108/108 103/103/103
f 111/111/111 110/110/110 109/109/109
f 112/112/112 111/111/111 109/109/109
f 115/115/115 114/114/114 113/113/113
f 116/116/116 115/115/115 113/113/113
f 119/119/119 118/118/118 117/117/117
f 120/120/120 119/119/119 117/117/117
f 123/123/123 122/122/122 121/121/121
f 124/124/124 123/123/123 121/121/121
f 127/127/127 126/126/126 125/125/125
f 128/128/128 127/127/127 125/125/125
f 131/131/131 130/130/130 129/129/129
f 132/132/132 131/131/131 129/129/129
f 135/135/135 134/134/134 133/133/133
f 136/136/136 135/135/135 133/133/133
f 139/139/139 138/138/138 137/137/137
f 140/140/140 139/139/139 137/137/137
f 143/143/143 142/142/142 141/141/141
f 144/144/144 143/143/143 141/141/141
f 147/147/147 146/146/146 145/145/145
f 148/148/148 147/147/147 145/145/145
f 151/151/151 150/150/150 149/149/149
f 149/149/149 152/152/152 151/151/151
f 152/152/152 153/153/153 151/151/151
f 152/152/152 154/154/154 153/153/153
f 154/154/154 155/155/155 153/153/153
f 156/156/156 154/154/154 152/152/152
f 149/149/149 157/157/157 152/152/152
f 157/157/157 156/156/156 152/152/152
f 149/149/149 158/158/158 157/157/157
f 159/159/159 156/156/156 157/157/157
f 158/158/158 159/159/159 157/157/157
f 162/162/162 161/161/161 160/160/160
f 163/163/163 162/162/162 160/160/160
f 166/166/166 165/165/165 164/164/164
f 164/164/164 167/167/167 166/166/166
f 164/164/164 168/168/168 167/167/167
f 168/168/168 169/169/169 167/167/167
f 170/170/170 166/166/166 167/167/167
f 167/167/167 169/169/169 171/171/171
f 169/169/169 172/172/172 171/171/171
f 167/167/167 173/173/173 170/170/170
f 167/167/167 171/171/171 173/173/173
f 171/171/171 172/172/172 174/174/174
f 171/171/171 174/174/174 173/173/173
f 172/172/172 175/175/175 174/174/174
f 174/174/174 175/175/175 173/173/173
f 175/175/175 176/176/176 173/173/173
f 173/173/173 176/176/176 170/170/170
f 176/176/176 177/177/177 170/170/170
f 180/180/180 179/179/179 178/178/178
f 181/181/181 180/180/180 178/178/178
f 184/184/184 183/183/183 182/182/182
f 182/182/182 185/185/185 184/184/184
f 182/182/182 186/186/186 185/185/185
f 184/184/184 185/185/185 187/187/187
f 186/186/186 188/188/188 185/185/185
f 185/185/185 188/188/188 187/187/187
f 188/188/188 189/189/189 187/187/187
f 192/192/192 191/191/191 190/190/190
f 193/193/193 192/192/192 190/190/190
f 196/196/196 195/195/195 194/194/194
f 194/194/194 197/197/197 196/196/196
f 194/194/194 198/198/198 197/197/197
f 194/194/194 199/199/199 198/198/198
f 198/198/198 200/200/200 197/197/197
f 199/199/199 201/201/201 198/198/198
f 198/198/198 201/201/201 200/200/200
f 201/201/201 202/202/202 200/200/200
f 205/205/205 204/204/204 203/203/203
f 206/206/206 205/205/205 203/203/203
f 209/209/209 208/208/208 207/207/207
f 207/207/207 210/210/210 209/209/209
f 210/210/210 211/211/211 209/209/209
f 207/207/207 212/212/212 210/210/210
f 207/207/207 213/213/213 212/212/212
f 207/207/207 214/214/214 213/213/213
f 213/213/213 215/215/215 212/212/212
f 215/215/215 216/216/216 212/212/212
f 212/212/212 216/216/216 210/210/210
f 216/216/216 217/217/217 210/210/210
f 210/210/210 217/217/217 218/218/218
f 217/217/217 219/219/219 218/218/218
f 210/210/210 218/218/218 220/220/220
f 218/218/218 219/219/219 220/220/220
f 210/210/210 220/220/220 211/211/211
f 219/219/219 221/221/221 220/220/220
f 220/220/220 221/221/221 211/211/211
f 221/221/221 222/222/222 211/211/211
f 225/225/225 224/224/224 223/223/223
f 226/226/226 225/225/225 223/223/223
f 229/229/229 228/228/228 227/227/227
f 227/227/227 230/230/230 229/229/229
f 230/230/230 231/231/231 229/229/229
f 229/229/229 231/231/231 232/232/232
f 231/231/231 233/233/233 232/232/232
f 236/236/236 235/235/235 234/234/234
f 234/234/234 237/237/237 236/236/236
f 234/234/234 238/238/238 237/237/237
f 241/241/241 240/240/240 239/239/239
f 239/239/239 242/242/242 241/241/241
f 239/239/239 243/243/243 242/242/242
f 243/243/243 244/244/244 242/242/242
f 245/245/245 241/241/241 242/242/242
f 242/242/242 244/244/244 246/246/246
f 242/242/242 246/246/246 245/245/245
f 244/244/244 247/247/247 246/246/246
f 246/246/246 247/247/247 245/245/245
f 247/247/247 248/248/248 245/245/245
f 251/251/251 250/250/250 249/249/249
f 249/249/249 252/252/252 251/251/251
f 249/249/249 253/253/253 252/252/252
f 249/249/249 254/254/254 253/253/253
f 254/254/254 255/255/255 253/253/253
f 253/253/253 255/255/255 252/252/252
f 255/255/255 256/256/256 252/252/252
f 259/259/259 258/258/258 257/257/257
f 257/257/257 260/260/260 259/259/259
f 257/257/257 261/261/261 260/260/260
f 261/261/261 262/262/262 260/260/260
f 260/260/260 263/263/263 259/259/259
f 260/260/260 262/262/262 263/263/263
f 263/263/263 264/264/264 259/259/259
f 262/262/262 265/265/265 263/263/263
f 263/263/263 265/265/265 264/264/264
f 265/265/265 266/266/266 264/264/264
f 269/269/269 268/268/268 267/267/267
f 270/270/270 269/269/269 267/267/267
f 271/271/271 269/269/269 270/270/270
f 272/272/272 270/270/270 267/267/267
f 272/272/272 271/271/271 270/270/270
f 272/272/272 267/267/267 273/273/273
f 274/274/274 271/271/271 272/272/272
f 273/273/273 275/275/275 272/272/272
f 275/275/275 274/274/274 272/272/272
f 278/278/278 277/277/277 276/276/276
f 279/279/279 278/278/278 276/276/276
f 280/280/280 278/278/278 279/279/279
f 281/281/281 279/279/279 276/276/276
f 276/276/276 282/282/282 281/281/281
f 282/282/282 283/283/283 281/281/281
f 283/283/283 284/284/284 281/281/281
f 285/285/285 280/280/280 279/279/279
f 281/281/281 285/285/285 279/279/279
f 284/284/284 280/280/280 285/285/285
f 281/281/281 284/284/284 285/285/285
f 288/288/288 287/287/287 286/286/286
f 289/289/289 288/288/288 286/286/286
f 290/290/290 288/288/288 289/289/289
f 291/291/291 289/289/289 286/286/286
f 291/291/291 290/290/290 289/289/289
f 291/291/291 286/286/286 292/292/292
f 293/293/293 290/290/290 291/291/291
f 292/292/292 294/294/294 291/291/291
f 294/294/294 293/293/293 291/291/291
f 297/297/297 296/296/296 295/295/295
f 298/298/298 297/297/297 295/295/295
f 299/299/299 297/297/297 298/298/298
f 300/300/300 299/299/299 298/298/298
f 300/300/300 298/298/298 295/295/295
f 301/301/301 299/299/299 300/300/300
f 295/295/295 302/302/302 300/300/300
f 302/302/302 301/301/301 300/300/300
f 302/302/302 295/295/295 303/303/303
f 304/304/304 301/301/301 302/302/302
f 303/303/303 305/305/305 302/302/302
f 305/305/305 304/304/304 302/302/302
f 303/303/303 306/306/306 305/305/305
f 307/307/307 304/304/304 305/305/305
f 306/306/306 308/308/308 305/305/305
f 308/308/308 307/307/307 305/305/305
f 306/306/306 309/309/309 308/308/308
f 309/309/309 307/307/307 308/308/308
f 312/312/312 311/311/311 310/310/310
f 313/313/313 312/312/312 310/310/310
