g MainDoor_Frame
v -0.720986307 1.12479353 0.125361323
v -0.720986307 1.12479353 -0.171943352
v 0.720986307 1.12479353 -0.171953127
v 0.720986307 1.12479353 0.125361323
v 0.720986307 -0.148877293 0.125361323
v 0.720986307 1.12479353 0.125361323
v 0.720986307 1.12479353 -0.171953127
v 0.720986307 -0.148877293 -0.171953127
v 0.720986307 -1.0155946 0.125361323
v 0.720986307 -1.0155946 -0.171953127
v -0.720986307 -1.0155946 -0.171943352
v -0.720986307 -0.148877785 0.125361323
v -0.720986307 -1.0155946 0.125361323
v -0.720986307 -0.148877785 -0.171943352
v -0.720986307 1.12479353 0.125361323
v -0.720986307 1.12479353 -0.171943352
v 0.573046863 -0.14887771 0.0980615243
v 0.573046863 0.988105476 0.0980615243
v 0.601162076 1.01407361 0.125361323
v 0.601162076 -0.148877591 0.125361323
v 0.573046863 0.988105476 0.0980615243
v -0.546230435 0.988105476 0.0980615243
v -0.579423845 1.01407361 0.125361323
v 0.601162076 1.01407361 0.125361323
v -0.546230435 -0.148878172 0.0980615243
v -0.546230435 -1.0155946 0.0980615243
v -0.579423845 -1.0155946 0.125361323
v -0.579423845 -0.148878127 0.125361323
v -0.579423845 -0.148878098 -0.171933591
v -0.579423845 -1.0155946 -0.171933591
v -0.546230435 -1.0155946 -0.144643545
v -0.546230435 -0.148878172 -0.144643545
v -0.546230435 0.988105476 -0.144643545
v 0.573046863 0.988105476 -0.144643545
v 0.601162076 1.01407361 -0.171933591
v -0.579423845 1.01407361 -0.171933591
v 0.573046863 0.988105476 -0.144643545
v 0.573046863 -0.14887771 -0.144643545
v 0.601162076 -0.148877591 -0.171933591
v 0.601162076 1.01407361 -0.171933591
v 0.720986307 -0.148877293 0.125361323
v 0.601162076 1.01407361 0.125361323
v 0.720986307 1.12479353 0.125361323
v 0.601162076 -0.148877591 0.125361323
v 0.720986307 -1.0155946 0.125361323
v 0.601162076 -1.0155946 0.125361323
v 0.720986307 1.12479353 0.125361323
v 0.601162076 1.01407361 0.125361323
v -0.579423845 1.01407361 0.125361323
v -0.720986307 1.12479353 0.125361323
v -0.579423845 -0.148878127 0.125361323
v -0.579423845 -1.0155946 0.125361323
v -0.720986307 -1.0155946 0.125361323
v -0.720986307 -0.148877785 0.125361323
v -0.720986307 1.12479353 0.125361323
v -0.579423845 1.01407361 0.125361323
v -0.720986307 1.12479353 -0.171943352
v -0.579423845 1.01407361 -0.171933591
v 0.601162076 1.01407361 -0.171933591
v 0.720986307 1.12479353 -0.171953127
v 0.720986307 1.12479353 -0.171953127
v 0.601162076 1.01407361 -0.171933591
v 0.601162076 -0.148877591 -0.171933591
v 0.720986307 -0.148877293 -0.171953127
v 0.720986307 -1.0155946 -0.171953127
v 0.601162076 -1.0155946 -0.171933591
v -0.720986307 -1.0155946 -0.171943352
v -0.579423845 -1.0155946 -0.171933591
v -0.579423845 -0.148878098 -0.171933591
v -0.720986307 -0.148877785 -0.171943352
v -0.720986307 1.12479353 -0.171943352
v -0.579423845 1.01407361 -0.171933591
v 0.573046863 -0.14887771 0.0980615243
v 0.573046863 0.988105476 -0.144643545
v 0.573046863 0.988105476 0.0980615243
v 0.573046863 -0.14887771 -0.144643545
v 0.573046863 -1.0155946 0.0980615243
v 0.573046863 -1.0155946 -0.144643545
v 0.573046863 0.988105476 0.0980615243
v 0.573046863 0.988105476 -0.144643545
v -0.546230435 0.988105476 -0.144643545
v -0.546230435 0.988105476 0.0980615243
v -0.546230435 -0.148878172 0.0980615243
v -0.546230435 -1.0155946 -0.144643545
v -0.546230435 -1.0155946 0.0980615243
v -0.546230435 -0.148878172 -0.144643545
v -0.546230435 0.988105476 0.0980615243
v -0.546230435 0.988105476 -0.144643545
v -0.579423845 1.01407361 -0.171933591
v -0.579423845 -0.148878098 -0.171933591
v -0.546230435 -0.148878172 -0.144643545
v -0.546230435 0.988105476 -0.144643545
v -0.546230435 0.988105476 0.0980615243
v -0.546230435 -0.148878172 0.0980615243
v -0.579423845 -0.148878127 0.125361323
v -0.579423845 1.01407361 0.125361323
v 0.573046863 -0.14887771 -0.144643545
v 0.573046863 -1.0155946 -0.144643545
v 0.601162076 -1.0155946 -0.171933591
v 0.601162076 -0.148877591 -0.171933591
v 0.573046863 -1.0155946 0.0980615243
v 0.573046863 -0.14887771 0.0980615243
v 0.601162076 -0.148877591 0.125361323
v 0.601162076 -1.0155946 0.125361323
vt 0.7265625 0.835449219
vt 0.757324219 0.835449219
vt 0.757324219 0.613769531
vt 0.7265625 0.613769531
vt 0.7265625 0.708007812
vt 0.7265625 0.966796875
vt 0.757324219 0.966796875
vt 0.757324219 0.708007812
vt 0.7265625 0.489257812
vt 0.757324219 0.489257812
vt 0.7265625 0.489257812
vt 0.757324219 0.708007812
vt 0.757324219 0.489257812
vt 0.7265625 0.708007812
vt 0.757324219 0.966796875
vt 0.7265625 0.966796875
vt 0.9921875 0.716308594
vt 0.9921875 0.938964844
vt 0.979980469 0.948730469
vt 0.979980469 0.716308594
vt 0.9921875 0.689453125
vt 0.9921875 0.939453125
vt 0.98046875 0.947265625
vt 0.98046875 0.683105469
vt 0.9921875 0.71484375
vt 0.9921875 0.499267578
vt 0.98046875 0.499267578
vt 0.98046875 0.71484375
vt 0.98046875 0.71484375
vt 0.98046875 0.499267578
vt 0.9921875 0.499267578
vt 0.9921875 0.71484375
vt 0.9921875 0.939453125
vt 0.9921875 0.689453125
vt 0.98046875 0.683105469
vt 0.98046875 0.947265625
vt 0.9921875 0.938964844
vt 0.9921875 0.716308594
vt 0.979980469 0.716308594
vt 0.979980469 0.948730469
vt 0.756835938 0.708007812
vt 0.737304688 0.935546875
vt 0.756835938 0.954589844
vt 0.737304688 0.708007812
vt 0.756835938 0.484863281
vt 0.737304688 0.484863281
vt 0.95703125 0.983886719
vt 0.940429688 0.963378906
vt 0.782714844 0.963378906
vt 0.763671875 0.983886719
vt 0.756347656 0.708007812
vt 0.756347656 0.484863281
vt 0.737304688 0.484863281
vt 0.737304688 0.708007812
vt 0.737304688 0.954589844
vt 0.756347656 0.935546875
vt 0.763671875 0.984863281
vt 0.782714844 0.964355469
vt 0.940429688 0.964355469
vt 0.95703125 0.984863281
vt 0.757324219 0.954589844
vt 0.737792969 0.935546875
vt 0.737792969 0.708007812
vt 0.757324219 0.708007812
vt 0.757324219 0.484863281
vt 0.737792969 0.484863281
vt 0.737792969 0.484863281
vt 0.756835938 0.484863281
vt 0.756835938 0.708007812
vt 0.737792969 0.708007812
vt 0.737792969 0.954589844
vt 0.756835938 0.935546875
vt 0.751464844 0.708007812
vt 0.732910156 0.939941406
vt 0.751464844 0.939941406
vt 0.732910156 0.708007812
vt 0.751464844 0.484619141
vt 0.732910156 0.484619141
vt 0.953613281 0.986328125
vt 0.953613281 0.965820312
vt 0.758300781 0.965820312
vt 0.758300781 0.986328125
vt 0.751464844 0.708007812
vt 0.732910156 0.485107422
vt 0.751464844 0.485107422
vt 0.732910156 0.708007812
vt 0.751464844 0.940429688
vt 0.732910156 0.940429688
vt 0.979980469 0.948730469
vt 0.979980469 0.716308594
vt 0.9921875 0.716308594
vt 0.9921875 0.938964844
vt 0.9921875 0.938964844
vt 0.9921875 0.716308594
vt 0.979980469 0.716308594
vt 0.979980469 0.948730469
vt 0.9921875 0.71484375
vt 0.9921875 0.499267578
vt 0.98046875 0.499267578
vt 0.98046875 0.71484375
vt 0.9921875 0.499267578
vt 0.9921875 0.71484375
vt 0.98046875 0.71484375
vt 0.98046875 0.499267578
vn -0 1 0
vn -0 1 0
vn -0 1 0
vn -0 1 0
vn 1 0 0
vn 1 0 0
vn 1 0 0
vn 1 0 0
vn 1 0 0
vn 1 0 0
vn -1 0 0
vn -1 0 0
vn -1 0 0
vn -1 0 0
vn -1 0 0
vn -1 0 0
vn -0.836914062 0 0.547363281
vn -0.711425781 0 0.702636719
vn -0.711425781 0 0.702636719
vn -0.836914062 0 0.547363281
vn -0 -0.701171875 0.712890625
vn -0 -0.701171875 0.712890625
vn -0 -0.701171875 0.712890625
vn -0 -0.701171875 0.712890625
vn 0.836914062 0 0.547363281
vn 0.711425781 0 0.702636719
vn 0.711425781 0 0.702636719
vn 0.836914062 0 0.547363281
vn 0.836914062 0 -0.547363281
vn 0.711425781 0 -0.702636719
vn 0.711425781 0 -0.702636719
vn 0.836914062 0 -0.547363281
vn -0 -0.701171875 -0.712890625
vn -0 -0.701171875 -0.712890625
vn -0 -0.701171875 -0.712890625
vn -0 -0.701171875 -0.712890625
vn -0.711425781 0 -0.702636719
vn -0.836914062 0 -0.547363281
vn -0.836914062 0 -0.547363281
vn -0.711425781 0 -0.702636719
vn -0 0 1
vn -0 -2.86102295E-06 1
vn -0 -2.92062759E-06 1
vn -0 0 1
vn -0 0 1
vn -0 0 1
vn -0 -2.92062759E-06 1
vn -0 -2.86102295E-06 1
vn -0 -2.86102295E-06 1
vn -0 -2.92062759E-06 1
vn -0 0 1
vn -0 0 1
vn -0 0 1
vn -0 0 1
vn -0 -2.92062759E-06 1
vn -0 -2.86102295E-06 1
vn -0 1.49011612E-06 -1
vn -0 1.43051147E-06 -1
vn -0 1.43051147E-06 -1
vn -0 1.49011612E-06 -1
vn -0 1.49011612E-06 -1
vn -0 1.43051147E-06 -1
vn -0 0 -1
vn -0 0 -1
vn -0 0 -1
vn -0 0 -1
vn -0 0 -1
vn -0 0 -1
vn -0 0 -1
vn -0 0 -1
vn -0 1.49011612E-06 -1
vn -0 1.43051147E-06 -1
vn -1 0 0
vn -1 0 0
vn -1 0 0
vn -1 0 0
vn -1 0 0
vn -1 0 0
vn -0 -1 0
vn -0 -1 0
vn -0 -1 0
vn -0 -1 0
vn 1 0 0
vn 1 0 0
vn 1 0 0
vn 1 0 0
vn 1 0 0
vn 1 0 0
vn 0.711425781 0 -0.702636719
vn 0.836914062 0 -0.547363281
vn 0.836914062 0 -0.547363281
vn 0.711425781 0 -0.702636719
vn 0.711425781 0 0.702636719
vn 0.836914062 0 0.547363281
vn 0.836914062 0 0.547363281
vn 0.711425781 0 0.702636719
vn -0.836914062 0 -0.547363281
vn -0.711425781 0 -0.702636719
vn -0.711425781 0 -0.702636719
vn -0.836914062 0 -0.547363281
vn -0.711425781 0 0.702636719
vn -0.836914062 0 0.547363281
vn -0.836914062 0 0.547363281
vn -0.711425781 0 0.702636719
g MainDoor_Frame_0
f 3/3/3 2/2/2 1/1/1
f 4/4/4 3/3/3 1/1/1
f 7/7/7 6/6/6 5/5/5
f 8/8/8 7/7/7 5/5/5
f 8/8/8 5/5/5 9/9/9
f 10/10/10 8/8/8 9/9/9
f 13/13/13 12/12/12 11/11/11
f 12/12/12 14/14/14 11/11/11
f 12/12/12 15/15/15 14/14/14
f 15/15/15 16/16/16 14/14/14
f 19/19/19 18/18/18 17/17/17
f 20/20/20 19/19/19 17/17/17
f 23/23/23 22/22/22 21/21/21
f 24/24/24 23/23/23 21/21/21
f 27/27/27 26/26/26 25/25/25
f 28/28/28 27/27/27 25/25/25
f 31/31/31 30/30/30 29/29/29
f 32/32/32 31/31/31 29/29/29
f 35/35/35 34/34/34 33/33/33
f 36/36/36 35/35/35 33/33/33
f 39/39/39 38/38/38 37/37/37
f 40/40/40 39/39/39 37/37/37
f 43/43/43 42/42/42 41/41/41
f 42/42/42 44/44/44 41/41/41
f 41/41/41 44/44/44 45/45/45
f 44/44/44 46/46/46 45/45/45
f 49/49/49 48/48/48 47/47/47
f 50/50/50 49/49/49 47/47/47
f 53/53/53 52/52/52 51/51/51
f 54/54/54 53/53/53 51/51/51
f 54/54/54 51/51/51 55/55/55
f 51/51/51 56/56/56 55/55/55
f 59/59/59 58/58/58 57/57/57
f 60/60/60 59/59/59 57/57/57
f 63/63/63 62/62/62 61/61/61
f 64/64/64 63/63/63 61/61/61
f 64/64/64 65/65/65 63/63/63
f 65/65/65 66/66/66 63/63/63
f 69/69/69 68/68/68 67/67/67
f 70/70/70 69/69/69 67/67/67
f 70/70/70 71/71/71 69/69/69
f 71/71/71 72/72/72 69/69/69
f 75/75/75 74/74/74 73/73/73
f 74/74/74 76/76/76 73/73/73
f 73/73/73 76/76/76 77/77/77
f 76/76/76 78/78/78 77/77/77
f 81/81/81 80/80/80 79/79/79
f 82/82/82 81/81/81 79/79/79
f 85/85/85 84/84/84 83/83/83
f 84/84/84 86/86/86 83/83/83
f 83/83/83 86/86/86 87/87/87
f 86/86/86 88/88/88 87/87/87
f 91/91/91 90/90/90 89/89/89
f 92/92/92 91/91/91 89/89/89
f 95/95/95 94/94/94 93/93/93
f 96/96/96 95/95/95 93/93/93
f 99/99/99 98/98/98 97/97/97
f 100/100/100 99/99/99 97/97/97
f 103/103/103 102/102/102 101/101/101
f 104/104/104 103/103/103 101/101/101
