g Beam_Sturcture_7
v -1.44474411 -1.65399683 -0.200335607
v -0.511179686 -0.215000302 -0.0846227258
v -1.26453912 -1.73899925 -0.200335607
v -0.691384792 -0.129997864 -0.0846227258
v 0.575290024 0.88596344 0.111580886
v 0.395084947 0.970965266 0.111580886
v -1.26453912 -1.73899925 -0.200335607
v -0.511179686 -0.215000302 -0.242880777
v -1.26453912 -1.73899925 -0.358593673
v -0.511179686 -0.215000302 -0.0846227258
v 0.575290024 0.88596344 -0.0466771685
v 0.575290024 0.88596344 0.111580886
v -1.26453912 -1.73899925 -0.358593673
v -0.691384792 -0.129997864 -0.242880777
v -1.44474411 -1.65399683 -0.358593673
v -0.511179686 -0.215000302 -0.242880777
v 0.395084947 0.970965266 -0.0466771685
v 0.575290024 0.88596344 -0.0466771685
v -1.44474411 -1.65399683 -0.358593673
v -0.691384792 -0.129997864 -0.0846227258
v -1.44474411 -1.65399683 -0.200335607
v -0.691384792 -0.129997864 -0.242880777
v 0.395084947 0.970965266 0.111580886
v 0.395084947 0.970965266 -0.0466771685
v 0.395084947 0.970965266 0.111580886
v 1.26453805 1.73899925 0.358593822
v 1.44474316 1.65399742 0.358593822
v 0.575290024 0.88596344 0.111580886
v 0.395084947 0.970965266 -0.0466771685
v 1.26453805 1.73899925 0.200335771
v 1.26453805 1.73899925 0.358593822
v 0.395084947 0.970965266 0.111580886
v 0.575290024 0.88596344 -0.0466771685
v 1.44474316 1.65399742 0.200335771
v 1.26453805 1.73899925 0.200335771
v 0.395084947 0.970965266 -0.0466771685
v 0.575290024 0.88596344 0.111580886
v 1.44474316 1.65399742 0.358593822
v 1.44474316 1.65399742 0.200335771
v 0.575290024 0.88596344 -0.0466771685
vt 0.0129318237 0.470214844
vt 0.0629882812 0.707519531
vt 0.0629882812 0.470214844
vt 0.0129318237 0.707519531
vt 0.0629882812 0.935546875
vt 0.0129318237 0.935546875
vt 0.0129318237 0.470214844
vt 0.0629882812 0.707519531
vt 0.0629882812 0.470214844
vt 0.0129318237 0.707519531
vt 0.0629882812 0.935546875
vt 0.0129318237 0.935546875
vt 0.0629882812 0.935546875
vt 0.0129318237 0.698242188
vt 0.0129318237 0.935546875
vt 0.0629882812 0.698242188
vt 0.0129318237 0.470214844
vt 0.0629882812 0.470214844
vt 0.0129318237 0.470214844
vt 0.0629882812 0.707519531
vt 0.0629882812 0.470214844
vt 0.0129318237 0.707519531
vt 0.0629882812 0.935546875
vt 0.0129318237 0.935546875
vt 0.0132598877 0.731445312
vt 0.0132598877 0.470458984
vt 0.0621643066 0.470458984
vt 0.0621643066 0.731445312
vt 0.0132598877 0.470458984
vt 0.0132598877 0.731445312
vt 0.0621643066 0.731445312
vt 0.0621643066 0.470458984
vt 0.0621643066 0.731445312
vt 0.0621643066 0.470458984
vt 0.0132598877 0.470458984
vt 0.0132598877 0.731445312
vt 0.0132598877 0.470458984
vt 0.0132598877 0.731445312
vt 0.0621643066 0.731445312
vt 0.0621643066 0.470458984
vn -0.0289764404 -0.0614318848 0.997558594
vn -0.0433349609 -0.0919189453 0.994628906
vn -0.0289764404 -0.0614318848 0.997558594
vn -0.0401916504 -0.0852050781 0.995605469
vn -0.056854248 -0.120544434 0.991210938
vn -0.056854248 -0.120544434 0.991210938
vn 0.896484375 -0.443115234 0
vn 0.824707031 -0.565429688 0
vn 0.896484375 -0.443115234 0
vn 0.812988281 -0.58203125 0
vn 0.711914062 -0.702636719 0
vn 0.711914062 -0.702636719 0
vn 0.0289764404 0.0614318848 -0.997558594
vn 0.0401916504 0.0852050781 -0.995605469
vn 0.0289764404 0.0614318848 -0.997558594
vn 0.0433349609 0.0919189453 -0.994628906
vn 0.056854248 0.120544434 -0.991210938
vn 0.056854248 0.120544434 -0.991210938
vn -0.896484375 0.443115234 0
vn -0.812988281 0.58203125 0
vn -0.896484375 0.443115234 0
vn -0.824707031 0.565429688 0
vn -0.711914062 0.702636719 0
vn -0.711914062 0.702636719 0
vn -0.0963134766 -0.204223633 0.974121094
vn -0.0963134766 -0.204223633 0.974121094
vn -0.0963134766 -0.204223633 0.974121094
vn -0.0963134766 -0.204223633 0.974121094
vn -0.662109375 0.749511719 0
vn -0.662109375 0.749511719 0
vn -0.662109375 0.749511719 0
vn -0.662109375 0.749511719 0
vn 0.0963134766 0.204223633 -0.974121094
vn 0.0963134766 0.204223633 -0.974121094
vn 0.0963134766 0.204223633 -0.974121094
vn 0.0963134766 0.204223633 -0.974121094
vn 0.662109375 -0.749511719 0
vn 0.662109375 -0.749511719 0
vn 0.662109375 -0.749511719 0
vn 0.662109375 -0.749511719 0
g Beam_Sturcture_7_0
f 3/3/3 2/2/2 1/1/1
f 2/2/2 4/4/4 1/1/1
f 2/2/2 5/5/5 4/4/4
f 5/5/5 6/6/6 4/4/4
f 9/9/9 8/8/8 7/7/7
f 8/8/8 10/10/10 7/7/7
f 8/8/8 11/11/11 10/10/10
f 11/11/11 12/12/12 10/10/10
f 15/15/15 14/14/14 13/13/13
f 14/14/14 16/16/16 13/13/13
f 14/14/14 17/17/17 16/16/16
f 17/17/17 18/18/18 16/16/16
f 21/21/21 20/20/20 19/19/19
f 20/20/20 22/22/22 19/19/19
f 20/20/20 23/23/23 22/22/22
f 23/23/23 24/24/24 22/22/22
f 27/27/27 26/26/26 25/25/25
f 28/28/28 27/27/27 25/25/25
f 31/31/31 30/30/30 29/29/29
f 32/32/32 31/31/31 29/29/29
f 35/35/35 34/34/34 33/33/33
f 36/36/36 35/35/35 33/33/33
f 39/39/39 38/38/38 37/37/37
f 40/40/40 39/39/39 37/37/37
