g ControlPanel_1_Red_On
v -0.0297021475 -0.0179634094 0.0323150642
v -0.0266845692 -0.00806678738 0.0325475112
v -0 -0.00828620885 0.0387646481
v -0 -0.0204487611 0.0383046344
v 0.0297021475 -0.0179634094 0.0323150642
v 0.0266845692 -0.00806678738 0.0325475112
v 0.0331005864 0.00608131383 0.00414247485
v 0.0266845692 0.0162026975 -0.0259331129
v 0.0297021475 0.00904884282 -0.0327762961
v 0.0368408188 -0.00445739739 -0.000230636593
v 0.0297021475 -0.0179634094 0.0323150642
v 0.0266845692 -0.00806678738 0.0325475112
v -0 0.0204487611 -0.0304796975
v -0.0266845692 0.0162026975 -0.0259331129
v -0.0297021475 0.00904884282 -0.0327762961
v -0 0.0115341945 -0.0387646481
v 0.0297021475 0.00904884282 -0.0327762961
v 0.0266845692 0.0162026975 -0.0259331129
v -0.0297021475 0.00904884282 -0.0327762961
v -0.0266845692 0.0162026975 -0.0259331129
v -0.0331005864 0.00608131383 0.00414247485
v -0.0368408188 -0.00445739739 -0.000230636593
v -0.0297021475 -0.0179634094 0.0323150642
v -0.0266845692 -0.00806678738 0.0325475112
v -0 0.0204487611 -0.0304796975
v 0.0266845692 0.0162026975 -0.0259331129
v -0 0.0117301177 0.00648738863
v -0.0266845692 0.0162026975 -0.0259331129
v 0.0331005864 0.00608131383 0.00414247485
v -0.0331005864 0.00608131383 0.00414247485
v 0.0266845692 -0.00806678738 0.0325475112
v -0.0266845692 -0.00806678738 0.0325475112
v -0 -0.00828620885 0.0387646481
vt 0.358642578 0.841796875
vt 0.357421875 0.842773438
vt 0.358398438 0.846191406
vt 0.360107422 0.846191406
vt 0.358642578 0.851074219
vt 0.357421875 0.850097656
vt 0.353027344 0.851074219
vt 0.348632812 0.850097656
vt 0.347412109 0.851074219
vt 0.353027344 0.853027344
vt 0.358642578 0.851074219
vt 0.357421875 0.850097656
vt 0.347900391 0.846191406
vt 0.348632812 0.842773438
vt 0.347412109 0.841796875
vt 0.345947266 0.846191406
vt 0.347412109 0.851074219
vt 0.348632812 0.850097656
vt 0.347412109 0.841796875
vt 0.348632812 0.842773438
vt 0.353027344 0.841796875
vt 0.353027344 0.83984375
vt 0.358642578 0.841796875
vt 0.357421875 0.842773438
vt 0.347900391 0.846191406
vt 0.348632812 0.850097656
vt 0.353027344 0.846191406
vt 0.348632812 0.842773438
vt 0.353027344 0.851074219
vt 0.353027344 0.841796875
vt 0.357421875 0.850097656
vt 0.357421875 0.842773438
vt 0.358398438 0.846191406
vn -0.673828125 0.140991211 0.725097656
vn -0.485107422 0.543945312 0.684570312
vn 1.1920929E-07 0.566894531 0.823730469
vn 3.57627869E-07 -0.00176620483 1
vn 0.673828125 0.140991211 0.725097656
vn 0.485107422 0.543945312 0.684570312
vn 0.588867188 0.746582031 0.309814453
vn 0.485107422 0.868652344 -0.0982666016
vn 0.673828125 0.61328125 -0.412353516
vn 0.939453125 0.31640625 0.131347656
vn 0.673828125 0.140991211 0.725097656
vn 0.485107422 0.543945312 0.684570312
vn -0 0.983398438 -0.180541992
vn -0.485107422 0.868652344 -0.0982666016
vn -0.673828125 0.61328125 -0.412353516
vn -0 0.706542969 -0.707519531
vn 0.673828125 0.61328125 -0.412353516
vn 0.485107422 0.868652344 -0.0982666016
vn -0.673828125 0.61328125 -0.412353516
vn -0.485107422 0.868652344 -0.0982666016
vn -0.588867188 0.746582031 0.309814453
vn -0.939453125 0.31640625 0.131347656
vn -0.673828125 0.140991211 0.725097656
vn -0.485107422 0.543945312 0.684570312
vn -0 0.983398438 -0.180541992
vn 0.485107422 0.868652344 -0.0982666016
vn -1.1920929E-07 0.923828125 0.383300781
vn -0.485107422 0.868652344 -0.0982666016
vn 0.588867188 0.746582031 0.309814453
vn -0.588867188 0.746582031 0.309814453
vn 0.485107422 0.543945312 0.684570312
vn -0.485107422 0.543945312 0.684570312
vn 1.1920929E-07 0.566894531 0.823730469
g ControlPanel_1_Red_On_0
f 3/3/3 2/2/2 1/1/1
f 4/4/4 3/3/3 1/1/1
f 4/4/4 5/5/5 3/3/3
f 5/5/5 6/6/6 3/3/3
f 9/9/9 8/8/8 7/7/7
f 10/10/10 9/9/9 7/7/7
f 10/10/10 7/7/7 11/11/11
f 7/7/7 12/12/12 11/11/11
f 15/15/15 14/14/14 13/13/13
f 16/16/16 15/15/15 13/13/13
f 16/16/16 13/13/13 17/17/17
f 13/13/13 18/18/18 17/17/17
f 21/21/21 20/20/20 19/19/19
f 22/22/22 21/21/21 19/19/19
f 22/22/22 23/23/23 21/21/21
f 23/23/23 24/24/24 21/21/21
f 27/27/27 26/26/26 25/25/25
f 27/27/27 25/25/25 28/28/28
f 27/27/27 29/29/29 26/26/26
f 27/27/27 28/28/28 30/30/30
f 27/27/27 31/31/31 29/29/29
f 27/27/27 30/30/30 32/32/32
f 27/27/27 33/33/33 31/31/31
f 33/33/33 27/27/27 32/32/32
