g Wall_Annex_Building_Exterior_1
v 0.191237792 -1.13716173 0.0176751353
v 0.191237792 -1.94326484 0.0351214223
v 2.72281981 -1.94326484 0.0351214223
v 2.72281981 -1.13716173 0.0176751353
v 4.84297609 -1.94326484 0.0351214223
v 4.84297609 -0.138198704 0.000553553633
v 2.72281981 -0.138198704 0.000553553633
v 4.84297609 1.94326544 -0.0351202749
v 2.72281981 0.903488278 -0.0173028912
v 2.72281981 1.94326544 -0.0351202749
v -0.485622555 1.94326544 -0.0351202749
v -0.485622555 0.903488278 -0.0173028912
v -3.64691162 1.94326544 -0.0351202749
v -0.485622555 0.903488278 -0.0173028912
v -0.485622555 1.94326544 -0.0351202749
v -3.64691162 0.903488278 -0.0173028912
v -4.84297609 1.94326544 -0.0351202749
v -4.84297609 -0.138198704 0.000553553633
v -3.64691162 -0.138198704 0.000553553633
v -4.84297609 -1.94326484 0.0351214223
v -3.64691162 -1.10920823 0.0171990599
v -3.64691162 -1.94326544 0.0351214223
v -1.13641477 -1.10920823 0.0171990599
v -1.13641477 -1.94326544 0.0351214223
vt 0.406005859 0.361083984
vt 0.406005859 0.296875
vt 0.194091797 0.296875
vt 0.194091797 0.361083984
vt 0.0171203613 0.296875
vt 0.0171203613 0.444580078
vt 0.194091797 0.444580078
vt 0.0171203613 0.620605469
vt 0.194091797 0.53125
vt 0.194091797 0.620605469
vt 0.406005859 0.620605469
vt 0.406005859 0.53125
vt 0.114746094 0.620605469
vt 0.378173828 0.53125
vt 0.378173828 0.620605469
vt 0.114746094 0.53125
vt 0.0171203613 0.620605469
vt 0.0171203613 0.444580078
vt 0.114746094 0.444580078
vt 0.0171203613 0.296875
vt 0.114746094 0.363525391
vt 0.114746094 0.296875
vt 0.340332031 0.363525391
vt 0.340332031 0.296875
vn -0 -0.0216369629 -1
vn -0 -0.0216369629 -1
vn -0 -0.0216369629 -1
vn 0.000342845917 -0.0198364258 -1
vn 0.000561714172 -0.0186920166 -1
vn 0.000288963318 -0.0177459717 -1
vn 0.000288963318 -0.0177459717 -1
vn 4.17232513E-07 -0.0171356201 -1
vn 2.38418579E-07 -0.0171356201 -1
vn -0 -0.0171356201 -1
vn -0 -0.0171356201 -1
vn -0 -0.0171356201 -1
vn -0 -0.0171356201 -1
vn -0 -0.0171356201 -1
vn -0 -0.0171356201 -1
vn -3.57627869E-07 -0.0171356201 -1
vn -6.55651093E-07 -0.0171356201 -1
vn -0.000499248505 -0.0177459717 -1
vn -0.000499248505 -0.0177459717 -1
vn -0.000890254974 -0.0189361572 -1
vn -0.00050163269 -0.0200500488 -1
vn -0 -0.021484375 -1
vn -0 -0.021484375 -1
vn -0 -0.021484375 -1
g Wall_Annex_Building_Exterior_1_0
f 3/3/3 2/2/2 1/1/1
f 4/4/4 3/3/3 1/1/1
f 3/3/3 4/4/4 5/5/5
f 5/5/5 4/4/4 6/6/6
f 4/4/4 7/7/7 6/6/6
f 6/6/6 7/7/7 8/8/8
f 7/7/7 9/9/9 8/8/8
f 9/9/9 10/10/10 8/8/8
f 10/10/10 9/9/9 11/11/11
f 9/9/9 12/12/12 11/11/11
f 15/15/15 14/14/14 13/13/13
f 14/14/14 16/16/16 13/13/13
f 13/13/13 16/16/16 17/17/17
f 18/18/18 17/17/17 16/16/16
f 19/19/19 18/18/18 16/16/16
f 18/18/18 19/19/19 20/20/20
f 19/19/19 21/21/21 20/20/20
f 21/21/21 22/22/22 20/20/20
f 21/21/21 23/23/23 22/22/22
f 23/23/23 24/24/24 22/22/22
