g Gatehouse_Self
v 0.349533677 0.0484231561 1.26211905
v -0.349531233 0.0484231561 1.2621094
v -0.349533677 0.0484231561 -1.26211905
v 0.349533677 0.0484231561 -1.26211429
v 0.349533677 -0.0484231561 -1.26211429
v 0.349533677 0.0484231561 -1.26211429
v -0.349533677 0.0484231561 -1.26211905
v -0.349533677 -0.0484231561 -1.26211905
v -0.349533677 -0.0484231561 -1.26211905
v -0.349533677 0.0484231561 -1.26211905
v -0.349531233 0.0484231561 1.2621094
v -0.349531233 -0.0484231561 1.2621094
v -0.349531233 -0.0484231561 1.2621094
v -0.349531233 0.0484231561 1.2621094
v 0.349533677 0.0484231561 1.26211905
v 0.349533677 -0.0484231561 1.26211905
v 0.349533677 -0.0484231561 -1.26211429
v -0.349533677 -0.0484231561 -1.26211905
v -0.349531233 -0.0484231561 1.2621094
v 0.349533677 -0.0484231561 1.26211905
vt 0.152099609 0.0913085938
vt 0.223876953 0.0913085938
vt 0.223876953 0.350341797
vt 0.152099609 0.350341797
vt 0.327392578 0.184692383
vt 0.342773438 0.184692383
vt 0.342773438 0.0908813477
vt 0.327392578 0.0908813477
vt 0.327392578 0.428466797
vt 0.342773438 0.428466797
vt 0.342773438 0.0908813477
vt 0.327392578 0.0908813477
vt 0.327392578 0.428466797
vt 0.342773438 0.428466797
vt 0.342773438 0.334716797
vt 0.327392578 0.334716797
vt 0.152099609 0.350341797
vt 0.223876953 0.350341797
vt 0.223876953 0.0913085938
vt 0.152099609 0.0913085938
vn -0 1 0
vn -0 1 0
vn -0 1 0
vn -0 1 0
vn 5.78165054E-06 0 -1
vn 5.78165054E-06 0 -1
vn 5.78165054E-06 0 -1
vn 5.78165054E-06 0 -1
vn -1 0 9.53674316E-07
vn -1 0 9.53674316E-07
vn -1 0 9.53674316E-07
vn -1 0 9.53674316E-07
vn -5.78165054E-06 0 1
vn -5.78165054E-06 0 1
vn -5.78165054E-06 0 1
vn -5.78165054E-06 0 1
vn -0 -1 0
vn -0 -1 0
vn -0 -1 0
vn -0 -1 0
g Gatehouse_Self_0
f 3/3/3 2/2/2 1/1/1
f 4/4/4 3/3/3 1/1/1
f 7/7/7 6/6/6 5/5/5
f 8/8/8 7/7/7 5/5/5
f 11/11/11 10/10/10 9/9/9
f 12/12/12 11/11/11 9/9/9
f 15/15/15 14/14/14 13/13/13
f 16/16/16 15/15/15 13/13/13
f 19/19/19 18/18/18 17/17/17
f 20/20/20 19/19/19 17/17/17
