g Exterior_WoodFence_4
v -15.7013206 -0.0737755746 30.599596
v -15.6413221 -0.102096952 30.6435394
v -15.74436 -0.102096193 30.6602459
v -15.6582823 -0.102096349 30.5389404
v -15.6413221 -0.102096952 30.6435394
v -15.7013206 -0.0737755746 30.599596
v -15.7613201 -0.102096952 30.5556488
v -15.6582823 -0.102096349 30.5389404
v -15.7013206 -0.0737755746 30.599596
v -15.7613201 -0.102096952 30.5556488
v -15.7013206 -0.0737755746 30.599596
v -15.74436 -0.102096193 30.6602459
v -17.1865177 -0.112096578 30.8677368
v -17.1304455 -0.112096801 30.8586445
v -17.096735 -0.157298833 30.853178
v -17.2202263 -0.157298058 30.8732033
v -17.2202263 -1.2489711 30.8732033
v -17.096735 -1.24897182 30.853178
v -17.191 -0.112096578 30.8400917
v -17.1012173 -0.157298833 30.8255348
v -17.1349297 -0.112096801 30.8309994
v -17.2247086 -0.157298058 30.8455582
v -17.2247086 -1.2489711 30.8455582
v -17.1012173 -1.24897182 30.8255348
v -17.191 -0.112096578 30.8400917
v -17.1865177 -0.112096578 30.8677368
v -17.2202263 -0.157298058 30.8732033
v -17.2247086 -0.157298058 30.8455582
v -17.1012173 -0.157298833 30.8255348
v -17.096735 -0.157298833 30.853178
v -17.1304455 -0.112096801 30.8586445
v -17.1349297 -0.112096801 30.8309994
v -17.1349297 -0.112096801 30.8309994
v -17.1304455 -0.112096801 30.8586445
v -17.1865177 -0.112096578 30.8677368
v -17.191 -0.112096578 30.8400917
v -17.2247086 -1.2489711 30.8455582
v -17.2202263 -1.2489711 30.8732033
v -17.096735 -1.24897182 30.853178
v -17.1012173 -1.24897182 30.8255348
v -17.1012173 -1.24897182 30.8255348
v -17.096735 -1.24897182 30.853178
v -17.096735 -0.157298833 30.853178
v -17.1012173 -0.157298833 30.8255348
v -17.2247086 -0.157298058 30.8455582
v -17.2202263 -0.157298058 30.8732033
v -17.2202263 -1.2489711 30.8732033
v -17.2247086 -1.2489711 30.8455582
v -15.7613201 -1.27453172 30.5556488
v -15.7613201 -0.102096952 30.5556488
v -15.74436 -0.102096193 30.6602459
v -15.74436 -1.27453113 30.6602459
v -15.74436 -1.27453113 30.6602459
v -15.74436 -0.102096193 30.6602459
v -15.6413221 -0.102096952 30.6435394
v -15.6413221 -1.27453172 30.6435394
v -15.6413221 -1.27453172 30.6435394
v -15.6413221 -0.102096952 30.6435394
v -15.6582823 -0.102096349 30.5389404
v -15.6582823 -1.27453113 30.5389404
v -15.6582823 -1.27453113 30.5389404
v -15.6582823 -0.102096349 30.5389404
v -15.7613201 -0.102096952 30.5556488
v -15.7613201 -1.27453172 30.5556488
v -15.74436 -1.27453113 30.6602459
v -15.7674122 -1.27453113 30.6922131
v -15.7932892 -1.27453172 30.5325947
v -15.7613201 -1.27453172 30.5556488
v -15.7613201 -1.27453172 30.5556488
v -15.7932892 -1.27453172 30.5325947
v -15.6352367 -1.27453113 30.5069637
v -15.6582823 -1.27453113 30.5389404
v -15.6413221 -1.27453172 30.6435394
v -15.609354 -1.27453172 30.666584
v -15.7674122 -1.27453113 30.6922131
v -15.74436 -1.27453113 30.6602459
v -15.6582823 -1.27453113 30.5389404
v -15.6352367 -1.27453113 30.5069637
v -15.609354 -1.27453172 30.666584
v -15.6413221 -1.27453172 30.6435394
v -15.7674122 -1.27453113 30.6922131
v -15.7674122 -1.37392819 30.6922131
v -15.7932892 -1.3739289 30.5325947
v -15.7932892 -1.27453172 30.5325947
v -15.7932892 -1.27453172 30.5325947
v -15.7932892 -1.3739289 30.5325947
v -15.6352367 -1.37392831 30.5069637
v -15.6352367 -1.27453113 30.5069637
v -15.609354 -1.27453172 30.666584
v -15.609354 -1.3739289 30.666584
v -15.7674122 -1.37392819 30.6922131
v -15.7674122 -1.27453113 30.6922131
v -15.6352367 -1.27453113 30.5069637
v -15.6352367 -1.37392831 30.5069637
v -15.609354 -1.3739289 30.666584
v -15.609354 -1.27453172 30.666584
v -16.6319485 -0.112096578 30.7778111
v -16.5758781 -0.112096801 30.7687206
v -16.5421677 -0.157298833 30.7632542
v -16.665657 -0.157298058 30.7832775
v -16.665657 -1.2489711 30.7832775
v -16.5421677 -1.24897182 30.7632542
v -16.6364307 -0.112096578 30.7501678
v -16.5466499 -0.157298833 30.7356091
v -16.5803604 -0.112096801 30.7410755
v -16.6701393 -0.157298058 30.7556343
v -16.6701393 -1.2489711 30.7556343
v -16.5466499 -1.24897182 30.7356091
v -16.6364307 -0.112096578 30.7501678
v -16.6319485 -0.112096578 30.7778111
v -16.665657 -0.157298058 30.7832775
v -16.6701393 -0.157298058 30.7556343
v -16.5466499 -0.157298833 30.7356091
v -16.5421677 -0.157298833 30.7632542
v -16.5758781 -0.112096801 30.7687206
v -16.5803604 -0.112096801 30.7410755
v -16.5803604 -0.112096801 30.7410755
v -16.5758781 -0.112096801 30.7687206
v -16.6319485 -0.112096578 30.7778111
v -16.6364307 -0.112096578 30.7501678
v -16.6701393 -1.2489711 30.7556343
v -16.665657 -1.2489711 30.7832775
v -16.5421677 -1.24897182 30.7632542
v -16.5466499 -1.24897182 30.7356091
v -16.5466499 -1.24897182 30.7356091
v -16.5421677 -1.24897182 30.7632542
v -16.5421677 -0.157298833 30.7632542
v -16.5466499 -0.157298833 30.7356091
v -16.6701393 -0.157298058 30.7556343
v -16.665657 -0.157298058 30.7832775
v -16.665657 -1.2489711 30.7832775
v -16.6701393 -1.2489711 30.7556343
v -16.8168049 -0.112096578 30.8077869
v -16.7607327 -0.112096801 30.7986965
v -16.7270241 -0.157298833 30.7932301
v -16.8505135 -0.157298058 30.8132534
v -16.8505135 -1.2489711 30.8132534
v -16.7270241 -1.24897182 30.7932301
v -16.8212891 -0.112096578 30.7801437
v -16.7315063 -0.157298833 30.7655849
v -16.7652168 -0.112096801 30.7710514
v -16.8549957 -0.157298058 30.7856064
v -16.8549957 -1.2489711 30.7856064
v -16.7315063 -1.24897182 30.7655849
v -16.8212891 -0.112096578 30.7801437
v -16.8168049 -0.112096578 30.8077869
v -16.8505135 -0.157298058 30.8132534
v -16.8549957 -0.157298058 30.7856064
v -16.7315063 -0.157298833 30.7655849
v -16.7270241 -0.157298833 30.7932301
v -16.7607327 -0.112096801 30.7986965
v -16.7652168 -0.112096801 30.7710514
v -16.7652168 -0.112096801 30.7710514
v -16.7607327 -0.112096801 30.7986965
v -16.8168049 -0.112096578 30.8077869
v -16.8212891 -0.112096578 30.7801437
v -16.8549957 -1.2489711 30.7856064
v -16.8505135 -1.2489711 30.8132534
v -16.7270241 -1.24897182 30.7932301
v -16.7315063 -1.24897182 30.7655849
v -16.7315063 -1.24897182 30.7655849
v -16.7270241 -1.24897182 30.7932301
v -16.7270241 -0.157298833 30.7932301
v -16.7315063 -0.157298833 30.7655849
v -16.8549957 -0.157298058 30.7856064
v -16.8505135 -0.157298058 30.8132534
v -16.8505135 -1.2489711 30.8132534
v -16.8549957 -1.2489711 30.7856064
v -17.0016613 -0.112096578 30.8377609
v -16.9455891 -0.112096801 30.8286686
v -16.9118786 -0.157298833 30.8232021
v -17.0353699 -0.157298058 30.8432274
v -17.0353699 -1.2489711 30.8432274
v -16.9118786 -1.24897182 30.8232021
v -17.0061455 -0.112096578 30.8101158
v -16.9163628 -0.157298833 30.7955589
v -16.9500732 -0.112096801 30.8010254
v -17.0398521 -0.157298058 30.8155823
v -17.0398521 -1.2489711 30.8155823
v -16.9163628 -1.24897182 30.7955589
v -17.0061455 -0.112096578 30.8101158
v -17.0016613 -0.112096578 30.8377609
v -17.0353699 -0.157298058 30.8432274
v -17.0398521 -0.157298058 30.8155823
v -16.9163628 -0.157298833 30.7955589
v -16.9118786 -0.157298833 30.8232021
v -16.9455891 -0.112096801 30.8286686
v -16.9500732 -0.112096801 30.8010254
v -16.9500732 -0.112096801 30.8010254
v -16.9455891 -0.112096801 30.8286686
v -17.0016613 -0.112096578 30.8377609
v -17.0061455 -0.112096578 30.8101158
v -17.0398521 -1.2489711 30.8155823
v -17.0353699 -1.2489711 30.8432274
v -16.9118786 -1.24897182 30.8232021
v -16.9163628 -1.24897182 30.7955589
v -16.9163628 -1.24897182 30.7955589
v -16.9118786 -1.24897182 30.8232021
v -16.9118786 -0.157298833 30.8232021
v -16.9163628 -0.157298833 30.7955589
v -17.0398521 -0.157298058 30.8155823
v -17.0353699 -0.157298058 30.8432274
v -17.0353699 -1.2489711 30.8432274
v -17.0398521 -1.2489711 30.8155823
v -16.4470978 -0.112096578 30.747839
v -16.3910255 -0.112096801 30.7387466
v -16.357317 -0.157298833 30.7332802
v -16.4808044 -0.157298058 30.7533054
v -16.4808044 -1.2489711 30.7533054
v -16.357317 -1.24897182 30.7332802
v -16.45158 -0.112096578 30.7201939
v -16.3617992 -0.157298833 30.705637
v -16.3955078 -0.112096801 30.7111034
v -16.4852886 -0.157298058 30.7256603
v -16.4852886 -1.2489711 30.7256603
v -16.3617992 -1.24897182 30.705637
v -16.45158 -0.112096578 30.7201939
v -16.4470978 -0.112096578 30.747839
v -16.4808044 -0.157298058 30.7533054
v -16.4852886 -0.157298058 30.7256603
v -16.3617992 -0.157298833 30.705637
v -16.357317 -0.157298833 30.7332802
v -16.3910255 -0.112096801 30.7387466
v -16.3955078 -0.112096801 30.7111034
v -16.3955078 -0.112096801 30.7111034
v -16.3910255 -0.112096801 30.7387466
v -16.4470978 -0.112096578 30.747839
v -16.45158 -0.112096578 30.7201939
v -16.4852886 -1.2489711 30.7256603
v -16.4808044 -1.2489711 30.7533054
v -16.357317 -1.24897182 30.7332802
v -16.3617992 -1.24897182 30.705637
v -16.3617992 -1.24897182 30.705637
v -16.357317 -1.24897182 30.7332802
v -16.357317 -0.157298833 30.7332802
v -16.3617992 -0.157298833 30.705637
v -16.4852886 -0.157298058 30.7256603
v -16.4808044 -0.157298058 30.7533054
v -16.4808044 -1.2489711 30.7533054
v -16.4852886 -1.2489711 30.7256603
v -16.2622414 -0.112096578 30.7178631
v -16.206171 -0.112096801 30.7087708
v -16.1724606 -0.157298833 30.7033043
v -16.2959499 -0.157298058 30.7233295
v -16.2959499 -1.2489711 30.7233295
v -16.1724606 -1.24897182 30.7033043
v -16.2667236 -0.112096578 30.6902199
v -16.1769428 -0.157298833 30.6756611
v -16.2106533 -0.112096801 30.6811275
v -16.3004322 -0.157298058 30.6956844
v -16.3004322 -1.2489711 30.6956844
v -16.1769428 -1.24897182 30.6756611
v -16.2667236 -0.112096578 30.6902199
v -16.2622414 -0.112096578 30.7178631
v -16.2959499 -0.157298058 30.7233295
v -16.3004322 -0.157298058 30.6956844
v -16.1769428 -0.157298833 30.6756611
v -16.1724606 -0.157298833 30.7033043
v -16.206171 -0.112096801 30.7087708
v -16.2106533 -0.112096801 30.6811275
v -16.2106533 -0.112096801 30.6811275
v -16.206171 -0.112096801 30.7087708
v -16.2622414 -0.112096578 30.7178631
v -16.2667236 -0.112096578 30.6902199
v -16.3004322 -1.2489711 30.6956844
v -16.2959499 -1.2489711 30.7233295
v -16.1724606 -1.24897182 30.7033043
v -16.1769428 -1.24897182 30.6756611
v -16.1769428 -1.24897182 30.6756611
v -16.1724606 -1.24897182 30.7033043
v -16.1724606 -0.157298833 30.7033043
v -16.1769428 -0.157298833 30.6756611
v -16.3004322 -0.157298058 30.6956844
v -16.2959499 -0.157298058 30.7233295
v -16.2959499 -1.2489711 30.7233295
v -16.3004322 -1.2489711 30.6956844
v -16.0773869 -0.112096578 30.6878891
v -16.0213146 -0.112096801 30.6787949
v -15.9876051 -0.157298833 30.6733303
v -16.1110935 -0.157298058 30.6933537
v -16.1110935 -1.2489711 30.6933537
v -15.9876051 -1.24897182 30.6733303
v -16.0818691 -0.112096578 30.660244
v -15.9920874 -0.157298833 30.6456852
v -16.0257969 -0.112096801 30.6511517
v -16.1155758 -0.157298058 30.6657104
v -16.1155758 -1.2489711 30.6657104
v -15.9920874 -1.24897182 30.6456852
v -16.0818691 -0.112096578 30.660244
v -16.0773869 -0.112096578 30.6878891
v -16.1110935 -0.157298058 30.6933537
v -16.1155758 -0.157298058 30.6657104
v -15.9920874 -0.157298833 30.6456852
v -15.9876051 -0.157298833 30.6733303
v -16.0213146 -0.112096801 30.6787949
v -16.0257969 -0.112096801 30.6511517
v -16.0257969 -0.112096801 30.6511517
v -16.0213146 -0.112096801 30.6787949
v -16.0773869 -0.112096578 30.6878891
v -16.0818691 -0.112096578 30.660244
v -16.1155758 -1.2489711 30.6657104
v -16.1110935 -1.2489711 30.6933537
v -15.9876051 -1.24897182 30.6733303
v -15.9920874 -1.24897182 30.6456852
v -15.9920874 -1.24897182 30.6456852
v -15.9876051 -1.24897182 30.6733303
v -15.9876051 -0.157298833 30.6733303
v -15.9920874 -0.157298833 30.6456852
v -16.1155758 -0.157298058 30.6657104
v -16.1110935 -0.157298058 30.6933537
v -16.1110935 -1.2489711 30.6933537
v -16.1155758 -1.2489711 30.6657104
v -15.8925304 -0.112096578 30.6579151
v -15.8364582 -0.112096801 30.6488228
v -15.8027487 -0.157298833 30.6433563
v -15.9262371 -0.157298058 30.6633816
v -15.9262371 -1.2489711 30.6633816
v -15.8027487 -1.24897182 30.6433563
v -15.8970127 -0.112096578 30.63027
v -15.8072309 -0.157298833 30.6157131
v -15.8409405 -0.112096801 30.6211777
v -15.9307203 -0.157298058 30.6357365
v -15.9307203 -1.2489711 30.6357365
v -15.8072309 -1.24897182 30.6157131
v -15.8970127 -0.112096578 30.63027
v -15.8925304 -0.112096578 30.6579151
v -15.9262371 -0.157298058 30.6633816
v -15.9307203 -0.157298058 30.6357365
v -15.8072309 -0.157298833 30.6157131
v -15.8027487 -0.157298833 30.6433563
v -15.8364582 -0.112096801 30.6488228
v -15.8409405 -0.112096801 30.6211777
v -15.8409405 -0.112096801 30.6211777
v -15.8364582 -0.112096801 30.6488228
v -15.8925304 -0.112096578 30.6579151
v -15.8970127 -0.112096578 30.63027
v -15.9307203 -1.2489711 30.6357365
v -15.9262371 -1.2489711 30.6633816
v -15.8027487 -1.24897182 30.6433563
v -15.8072309 -1.24897182 30.6157131
v -15.8072309 -1.24897182 30.6157131
v -15.8027487 -1.24897182 30.6433563
v -15.8027487 -0.157298833 30.6433563
v -15.8072309 -0.157298833 30.6157131
v -15.9307203 -0.157298058 30.6357365
v -15.9262371 -0.157298058 30.6633816
v -15.9262371 -1.2489711 30.6633816
v -15.9307203 -1.2489711 30.6357365
v -15.7377338 -0.890472174 30.5930271
v -17.660059 -0.890472114 30.9047356
v -17.6568813 -0.890472114 30.9243603
v -15.7345533 -0.890472174 30.6126499
v -15.7345533 -0.890472174 30.6126499
v -17.6568813 -0.890472114 30.9243603
v -17.6568756 -0.813322902 30.9243565
v -15.7345533 -0.813322902 30.6126499
v -15.7345533 -0.813322902 30.6126499
v -17.6568756 -0.813322902 30.9243565
v -17.6600628 -0.813322902 30.9047356
v -15.7377338 -0.813322902 30.5930271
v -15.7377338 -0.813322902 30.5930271
v -17.6600628 -0.813322902 30.9047356
v -17.660059 -0.890472114 30.9047356
v -15.7377338 -0.890472174 30.5930271
v -15.7377338 -0.467650056 30.5930271
v -17.660059 -0.467650056 30.9047356
v -17.6568813 -0.467650056 30.9243603
v -15.7345533 -0.467650056 30.6126499
v -15.7345533 -0.467650056 30.6126499
v -17.6568813 -0.467650056 30.9243603
v -17.6568756 -0.390500873 30.9243565
v -15.7345533 -0.390500873 30.6126499
v -15.7345533 -0.390500873 30.6126499
v -17.6568756 -0.390500873 30.9243565
v -17.6600628 -0.390500873 30.9047356
v -15.7377338 -0.390500873 30.5930271
v -15.7377338 -0.390500873 30.5930271
v -17.6600628 -0.390500873 30.9047356
v -17.660059 -0.467650056 30.9047356
v -15.7377338 -0.467650056 30.5930271
v -17.5540218 -0.112096578 30.9273281
v -17.4979496 -0.112096801 30.9182358
v -17.464241 -0.157298833 30.9127712
v -17.5877304 -0.157298058 30.9327927
v -17.5877304 -1.2489711 30.9327927
v -17.464241 -1.24897182 30.9127712
v -17.5585041 -0.112096578 30.8996849
v -17.4687233 -0.157298833 30.8851261
v -17.5024319 -0.112096801 30.8905907
v -17.5922127 -0.157298058 30.9051476
v -17.5922127 -1.2489711 30.9051476
v -17.4687233 -1.24897182 30.8851261
v -17.5585041 -0.112096578 30.8996849
v -17.5540218 -0.112096578 30.9273281
v -17.5877304 -0.157298058 30.9327927
v -17.5922127 -0.157298058 30.9051476
v -17.4687233 -0.157298833 30.8851261
v -17.464241 -0.157298833 30.9127712
v -17.4979496 -0.112096801 30.9182358
v -17.5024319 -0.112096801 30.8905907
v -17.5024319 -0.112096801 30.8905907
v -17.4979496 -0.112096801 30.9182358
v -17.5540218 -0.112096578 30.9273281
v -17.5585041 -0.112096578 30.8996849
v -17.5922127 -1.2489711 30.9051476
v -17.5877304 -1.2489711 30.9327927
v -17.464241 -1.24897182 30.9127712
v -17.4687233 -1.24897182 30.8851261
v -17.4687233 -1.24897182 30.8851261
v -17.464241 -1.24897182 30.9127712
v -17.464241 -0.157298833 30.9127712
v -17.4687233 -0.157298833 30.8851261
v -17.5922127 -0.157298058 30.9051476
v -17.5877304 -0.157298058 30.9327927
v -17.5877304 -1.2489711 30.9327927
v -17.5922127 -1.2489711 30.9051476
v -17.3713741 -0.112096578 30.8977108
v -17.3153019 -0.112096801 30.8886204
v -17.2815914 -0.157298833 30.8831539
v -17.4050808 -0.157298058 30.9031773
v -17.4050808 -1.2489711 30.9031773
v -17.2815914 -1.24897182 30.8831539
v -17.3758564 -0.112096578 30.8700676
v -17.2860737 -0.157298833 30.8555088
v -17.3197842 -0.112096801 30.8609734
v -17.4095631 -0.157298058 30.8755322
v -17.4095631 -1.2489711 30.8755322
v -17.2860737 -1.24897182 30.8555088
v -17.3758564 -0.112096578 30.8700676
v -17.3713741 -0.112096578 30.8977108
v -17.4050808 -0.157298058 30.9031773
v -17.4095631 -0.157298058 30.8755322
v -17.2860737 -0.157298833 30.8555088
v -17.2815914 -0.157298833 30.8831539
v -17.3153019 -0.112096801 30.8886204
v -17.3197842 -0.112096801 30.8609734
v -17.3197842 -0.112096801 30.8609734
v -17.3153019 -0.112096801 30.8886204
v -17.3713741 -0.112096578 30.8977108
v -17.3758564 -0.112096578 30.8700676
v -17.4095631 -1.2489711 30.8755322
v -17.4050808 -1.2489711 30.9031773
v -17.2815914 -1.24897182 30.8831539
v -17.2860737 -1.24897182 30.8555088
v -17.2860737 -1.24897182 30.8555088
v -17.2815914 -1.24897182 30.8831539
v -17.2815914 -0.157298833 30.8831539
v -17.2860737 -0.157298833 30.8555088
v -17.4095631 -0.157298058 30.8755322
v -17.4050808 -0.157298058 30.9031773
v -17.4050808 -1.2489711 30.9031773
v -17.4095631 -1.2489711 30.8755322
vt 0.6875 0.522949219
vt 0.678222656 0.515625
vt 0.678222656 0.530273438
vt 0.678222656 0.559570312
vt 0.678222656 0.574707031
vt 0.6875 0.567382812
vt 0.678222656 0.544921875
vt 0.678222656 0.559570312
vt 0.6875 0.552246094
vt 0.678222656 0.544921875
vt 0.6875 0.537597656
vt 0.678222656 0.530273438
vt 0.432128906 0.549316406
vt 0.440185547 0.549316406
vt 0.445068359 0.54296875
vt 0.427490234 0.54296875
vt 0.427490234 0.389404297
vt 0.445068359 0.389404297
vt 0.460205078 0.549316406
vt 0.447265625 0.54296875
vt 0.452148438 0.549316406
vt 0.465087891 0.54296875
vt 0.465087891 0.389404297
vt 0.447265625 0.389404297
vt 0.465087891 0.551269531
vt 0.468994141 0.551269531
vt 0.468994141 0.54296875
vt 0.465087891 0.54296875
vt 0.468994141 0.54296875
vt 0.465087891 0.54296875
vt 0.465087891 0.551269531
vt 0.468994141 0.551269531
vt 0.465087891 0.559082031
vt 0.468994141 0.559082031
vt 0.468994141 0.551269531
vt 0.465087891 0.551269531
vt 0.465087891 0.389404297
vt 0.468994141 0.389404297
vt 0.468994141 0.407470703
vt 0.465087891 0.407470703
vt 0.468994141 0.389404297
vt 0.465087891 0.389404297
vt 0.465087891 0.54296875
vt 0.468994141 0.54296875
vt 0.465087891 0.54296875
vt 0.468994141 0.54296875
vt 0.468994141 0.389404297
vt 0.465087891 0.389404297
vt 0.515625 0.544921875
vt 0.678222656 0.544921875
vt 0.678222656 0.530273438
vt 0.515625 0.530273438
vt 0.515625 0.530273438
vt 0.678222656 0.530273438
vt 0.678222656 0.515625
vt 0.515625 0.515625
vt 0.515625 0.574707031
vt 0.678222656 0.574707031
vt 0.678222656 0.559570312
vt 0.515625 0.559570312
vt 0.515625 0.559570312
vt 0.678222656 0.559570312
vt 0.678222656 0.544921875
vt 0.515625 0.544921875
vt 0.496582031 0.367431641
vt 0.500488281 0.371337891
vt 0.500488281 0.347412109
vt 0.496582031 0.351806641
vt 0.496582031 0.343505859
vt 0.500488281 0.347412109
vt 0.500488281 0.323730469
vt 0.496582031 0.328125
vt 0.496582031 0.391113281
vt 0.500488281 0.395019531
vt 0.500488281 0.371337891
vt 0.496582031 0.375488281
vt 0.496582031 0.319824219
vt 0.500488281 0.323730469
vt 0.500488281 0.299804688
vt 0.496582031 0.303955078
vt 0.500488281 0.371337891
vt 0.515136719 0.371337891
vt 0.515136719 0.347412109
vt 0.500488281 0.347412109
vt 0.500488281 0.347412109
vt 0.515136719 0.347412109
vt 0.515136719 0.323730469
vt 0.500488281 0.323730469
vt 0.500488281 0.395019531
vt 0.515136719 0.395019531
vt 0.515136719 0.371337891
vt 0.500488281 0.371337891
vt 0.500488281 0.323730469
vt 0.515136719 0.323730469
vt 0.515136719 0.299804688
vt 0.500488281 0.299804688
vt 0.432128906 0.549316406
vt 0.440185547 0.549316406
vt 0.445068359 0.54296875
vt 0.427490234 0.54296875
vt 0.427490234 0.389404297
vt 0.445068359 0.389404297
vt 0.418701172 0.549316406
vt 0.405761719 0.54296875
vt 0.410644531 0.549316406
vt 0.423339844 0.54296875
vt 0.423339844 0.389404297
vt 0.405761719 0.389404297
vt 0.423339844 0.551269531
vt 0.427490234 0.551269531
vt 0.427490234 0.54296875
vt 0.423339844 0.54296875
vt 0.427490234 0.54296875
vt 0.423339844 0.54296875
vt 0.423339844 0.551269531
vt 0.427490234 0.551269531
vt 0.423339844 0.559082031
vt 0.427490234 0.559082031
vt 0.427490234 0.551269531
vt 0.423339844 0.551269531
vt 0.423339844 0.389404297
vt 0.427490234 0.389404297
vt 0.427490234 0.407470703
vt 0.423339844 0.407470703
vt 0.427490234 0.389404297
vt 0.423339844 0.389404297
vt 0.423339844 0.54296875
vt 0.427490234 0.54296875
vt 0.423339844 0.54296875
vt 0.427490234 0.54296875
vt 0.427490234 0.389404297
vt 0.423339844 0.389404297
vt 0.473632812 0.549316406
vt 0.481689453 0.549316406
vt 0.486572266 0.54296875
vt 0.468994141 0.54296875
vt 0.468994141 0.389404297
vt 0.486572266 0.389404297
vt 0.460205078 0.549316406
vt 0.447265625 0.54296875
vt 0.452148438 0.549316406
vt 0.465087891 0.54296875
vt 0.465087891 0.389404297
vt 0.447265625 0.389404297
vt 0.465087891 0.551269531
vt 0.468994141 0.551269531
vt 0.468994141 0.54296875
vt 0.465087891 0.54296875
vt 0.468994141 0.54296875
vt 0.465087891 0.54296875
vt 0.465087891 0.551269531
vt 0.468994141 0.551269531
vt 0.465087891 0.559082031
vt 0.468994141 0.559082031
vt 0.468994141 0.551269531
vt 0.465087891 0.551269531
vt 0.465087891 0.389404297
vt 0.468994141 0.389404297
vt 0.468994141 0.407470703
vt 0.465087891 0.407470703
vt 0.468994141 0.389404297
vt 0.465087891 0.389404297
vt 0.465087891 0.54296875
vt 0.468994141 0.54296875
vt 0.465087891 0.54296875
vt 0.468994141 0.54296875
vt 0.468994141 0.389404297
vt 0.465087891 0.389404297
vt 0.432128906 0.549316406
vt 0.440185547 0.549316406
vt 0.445068359 0.54296875
vt 0.427490234 0.54296875
vt 0.427490234 0.389404297
vt 0.445068359 0.389404297
vt 0.460205078 0.549316406
vt 0.447265625 0.54296875
vt 0.452148438 0.549316406
vt 0.465087891 0.54296875
vt 0.465087891 0.389404297
vt 0.447265625 0.389404297
vt 0.465087891 0.551269531
vt 0.468994141 0.551269531
vt 0.468994141 0.54296875
vt 0.465087891 0.54296875
vt 0.468994141 0.54296875
vt 0.465087891 0.54296875
vt 0.465087891 0.551269531
vt 0.468994141 0.551269531
vt 0.465087891 0.559082031
vt 0.468994141 0.559082031
vt 0.468994141 0.551269531
vt 0.465087891 0.551269531
vt 0.465087891 0.389404297
vt 0.468994141 0.389404297
vt 0.468994141 0.407470703
vt 0.465087891 0.407470703
vt 0.468994141 0.389404297
vt 0.465087891 0.389404297
vt 0.465087891 0.54296875
vt 0.468994141 0.54296875
vt 0.465087891 0.54296875
vt 0.468994141 0.54296875
vt 0.468994141 0.389404297
vt 0.465087891 0.389404297
vt 0.473632812 0.549316406
vt 0.481689453 0.549316406
vt 0.486572266 0.54296875
vt 0.468994141 0.54296875
vt 0.468994141 0.389404297
vt 0.486572266 0.389404297
vt 0.460205078 0.549316406
vt 0.447265625 0.54296875
vt 0.452148438 0.549316406
vt 0.465087891 0.54296875
vt 0.465087891 0.389404297
vt 0.447265625 0.389404297
vt 0.465087891 0.551269531
vt 0.468994141 0.551269531
vt 0.468994141 0.54296875
vt 0.465087891 0.54296875
vt 0.468994141 0.54296875
vt 0.465087891 0.54296875
vt 0.465087891 0.551269531
vt 0.468994141 0.551269531
vt 0.465087891 0.559082031
vt 0.468994141 0.559082031
vt 0.468994141 0.551269531
vt 0.465087891 0.551269531
vt 0.465087891 0.389404297
vt 0.468994141 0.389404297
vt 0.468994141 0.407470703
vt 0.465087891 0.407470703
vt 0.468994141 0.389404297
vt 0.465087891 0.389404297
vt 0.465087891 0.54296875
vt 0.468994141 0.54296875
vt 0.465087891 0.54296875
vt 0.468994141 0.54296875
vt 0.468994141 0.389404297
vt 0.465087891 0.389404297
vt 0.432128906 0.549316406
vt 0.440185547 0.549316406
vt 0.445068359 0.54296875
vt 0.427490234 0.54296875
vt 0.427490234 0.389404297
vt 0.445068359 0.389404297
vt 0.460205078 0.549316406
vt 0.447265625 0.54296875
vt 0.452148438 0.549316406
vt 0.465087891 0.54296875
vt 0.465087891 0.389404297
vt 0.447265625 0.389404297
vt 0.465087891 0.551269531
vt 0.468994141 0.551269531
vt 0.468994141 0.54296875
vt 0.465087891 0.54296875
vt 0.468994141 0.54296875
vt 0.465087891 0.54296875
vt 0.465087891 0.551269531
vt 0.468994141 0.551269531
vt 0.465087891 0.559082031
vt 0.468994141 0.559082031
vt 0.468994141 0.551269531
vt 0.465087891 0.551269531
vt 0.465087891 0.389404297
vt 0.468994141 0.389404297
vt 0.468994141 0.407470703
vt 0.465087891 0.407470703
vt 0.468994141 0.389404297
vt 0.465087891 0.389404297
vt 0.465087891 0.54296875
vt 0.468994141 0.54296875
vt 0.465087891 0.54296875
vt 0.468994141 0.54296875
vt 0.468994141 0.389404297
vt 0.465087891 0.389404297
vt 0.473632812 0.549316406
vt 0.481689453 0.549316406
vt 0.486572266 0.54296875
vt 0.468994141 0.54296875
vt 0.468994141 0.389404297
vt 0.486572266 0.389404297
vt 0.460205078 0.549316406
vt 0.447265625 0.54296875
vt 0.452148438 0.549316406
vt 0.465087891 0.54296875
vt 0.465087891 0.389404297
vt 0.447265625 0.389404297
vt 0.465087891 0.551269531
vt 0.468994141 0.551269531
vt 0.468994141 0.54296875
vt 0.465087891 0.54296875
vt 0.468994141 0.54296875
vt 0.465087891 0.54296875
vt 0.465087891 0.551269531
vt 0.468994141 0.551269531
vt 0.465087891 0.559082031
vt 0.468994141 0.559082031
vt 0.468994141 0.551269531
vt 0.465087891 0.551269531
vt 0.465087891 0.389404297
vt 0.468994141 0.389404297
vt 0.468994141 0.407470703
vt 0.465087891 0.407470703
vt 0.468994141 0.389404297
vt 0.465087891 0.389404297
vt 0.465087891 0.54296875
vt 0.468994141 0.54296875
vt 0.465087891 0.54296875
vt 0.468994141 0.54296875
vt 0.468994141 0.389404297
vt 0.465087891 0.389404297
vt 0.432128906 0.549316406
vt 0.440185547 0.549316406
vt 0.445068359 0.54296875
vt 0.427490234 0.54296875
vt 0.427490234 0.389404297
vt 0.445068359 0.389404297
vt 0.418701172 0.549316406
vt 0.405761719 0.54296875
vt 0.410644531 0.549316406
vt 0.423339844 0.54296875
vt 0.423339844 0.389404297
vt 0.405761719 0.389404297
vt 0.423339844 0.551269531
vt 0.427490234 0.551269531
vt 0.427490234 0.54296875
vt 0.423339844 0.54296875
vt 0.427490234 0.54296875
vt 0.423339844 0.54296875
vt 0.423339844 0.551269531
vt 0.427490234 0.551269531
vt 0.423339844 0.559082031
vt 0.427490234 0.559082031
vt 0.427490234 0.551269531
vt 0.423339844 0.551269531
vt 0.423339844 0.389404297
vt 0.427490234 0.389404297
vt 0.427490234 0.407470703
vt 0.423339844 0.407470703
vt 0.427490234 0.389404297
vt 0.423339844 0.389404297
vt 0.423339844 0.54296875
vt 0.427490234 0.54296875
vt 0.423339844 0.54296875
vt 0.427490234 0.54296875
vt 0.427490234 0.389404297
vt 0.423339844 0.389404297
vt 0.00385665894 0.665039062
vt 0.291503906 0.665039062
vt 0.291503906 0.662109375
vt 0.00385665894 0.662109375
vt 0.00385856628 0.690917969
vt 0.291503906 0.690917969
vt 0.291503906 0.679199219
vt 0.00385856628 0.679199219
vt 0.00385856628 0.679199219
vt 0.291503906 0.679199219
vt 0.291503906 0.676269531
vt 0.00385856628 0.676269531
vt 0.00385856628 0.676269531
vt 0.291503906 0.676269531
vt 0.291503906 0.665039062
vt 0.00385665894 0.665039062
vt 0.00385665894 0.665039062
vt 0.291503906 0.665039062
vt 0.291503906 0.662109375
vt 0.00385665894 0.662109375
vt 0.00385856628 0.690917969
vt 0.291503906 0.690917969
vt 0.291503906 0.679199219
vt 0.00385856628 0.679199219
vt 0.00385856628 0.679199219
vt 0.291503906 0.679199219
vt 0.291503906 0.676269531
vt 0.00385856628 0.676269531
vt 0.00385856628 0.676269531
vt 0.291503906 0.676269531
vt 0.291503906 0.665039062
vt 0.00385665894 0.665039062
vt 0.473632812 0.549316406
vt 0.481689453 0.549316406
vt 0.486572266 0.54296875
vt 0.468994141 0.54296875
vt 0.468994141 0.389404297
vt 0.486572266 0.389404297
vt 0.460205078 0.549316406
vt 0.447265625 0.54296875
vt 0.452148438 0.549316406
vt 0.465087891 0.54296875
vt 0.465087891 0.389404297
vt 0.447265625 0.389404297
vt 0.465087891 0.551269531
vt 0.468994141 0.551269531
vt 0.468994141 0.54296875
vt 0.465087891 0.54296875
vt 0.468994141 0.54296875
vt 0.465087891 0.54296875
vt 0.465087891 0.551269531
vt 0.468994141 0.551269531
vt 0.465087891 0.559082031
vt 0.468994141 0.559082031
vt 0.468994141 0.551269531
vt 0.465087891 0.551269531
vt 0.465087891 0.389404297
vt 0.468994141 0.389404297
vt 0.468994141 0.407470703
vt 0.465087891 0.407470703
vt 0.468994141 0.389404297
vt 0.465087891 0.389404297
vt 0.465087891 0.54296875
vt 0.468994141 0.54296875
vt 0.465087891 0.54296875
vt 0.468994141 0.54296875
vt 0.468994141 0.389404297
vt 0.465087891 0.389404297
vt 0.432128906 0.549316406
vt 0.440185547 0.549316406
vt 0.445068359 0.54296875
vt 0.427490234 0.54296875
vt 0.427490234 0.389404297
vt 0.445068359 0.389404297
vt 0.418701172 0.549316406
vt 0.405761719 0.54296875
vt 0.410644531 0.549316406
vt 0.423339844 0.54296875
vt 0.423339844 0.389404297
vt 0.405761719 0.389404297
vt 0.423339844 0.551269531
vt 0.427490234 0.551269531
vt 0.427490234 0.54296875
vt 0.423339844 0.54296875
vt 0.427490234 0.54296875
vt 0.423339844 0.54296875
vt 0.423339844 0.551269531
vt 0.427490234 0.551269531
vt 0.423339844 0.559082031
vt 0.427490234 0.559082031
vt 0.427490234 0.551269531
vt 0.423339844 0.551269531
vt 0.423339844 0.389404297
vt 0.427490234 0.389404297
vt 0.427490234 0.407470703
vt 0.423339844 0.407470703
vt 0.427490234 0.389404297
vt 0.423339844 0.389404297
vt 0.423339844 0.54296875
vt 0.427490234 0.54296875
vt 0.423339844 0.54296875
vt 0.427490234 0.54296875
vt 0.427490234 0.389404297
vt 0.423339844 0.389404297
vn 0.0754394531 0.881835938 0.465332031
vn 0.0754394531 0.881835938 0.465332031
vn 0.0754394531 0.881835938 0.465332031
vn 0.470703125 0.87890625 -0.0763549805
vn 0.470703125 0.87890625 -0.0763549805
vn 0.470703125 0.87890625 -0.0763549805
vn -0.0755004883 0.881835938 -0.465332031
vn -0.0755004883 0.881835938 -0.465332031
vn -0.0755004883 0.881835938 -0.465332031
vn -0.470703125 0.87890625 0.0763549805
vn -0.470703125 0.87890625 0.0763549805
vn -0.470703125 0.87890625 0.0763549805
vn 0.16003418 2.98023224E-06 0.987304688
vn 0.16003418 2.98023224E-06 0.987304688
vn 0.16003418 0 0.987304688
vn 0.16003418 0 0.987304688
vn 0.16003418 0 0.987304688
vn 0.16003418 0 0.987304688
vn -0.16015625 -2.98023224E-06 -0.987304688
vn -0.16003418 0 -0.987304688
vn -0.16015625 -2.98023224E-06 -0.987304688
vn -0.16003418 0 -0.987304688
vn -0.16003418 0 -0.987304688
vn -0.16003418 0 -0.987304688
vn -0.787597656 0.603027344 0.127685547
vn -0.787597656 0.603027344 0.127685547
vn -0.787597656 0.603027344 0.127685547
vn -0.787597656 0.603027344 0.127685547
vn 0.787597656 0.603027344 -0.127685547
vn 0.787597656 0.603027344 -0.127685547
vn 0.787597656 0.603027344 -0.127685547
vn 0.787597656 0.603027344 -0.127685547
vn 3.9935112E-06 1 -7.15255737E-07
vn 3.9935112E-06 1 -7.15255737E-07
vn 3.9935112E-06 1 -7.15255737E-07
vn 3.9935112E-06 1 -7.15255737E-07
vn -6.02006912E-06 -1 7.74860382E-07
vn -6.02006912E-06 -1 7.74860382E-07
vn -6.02006912E-06 -1 7.74860382E-07
vn -6.02006912E-06 -1 7.74860382E-07
vn 0.987304688 0 -0.16003418
vn 0.987304688 0 -0.16003418
vn 0.987304688 0 -0.16003418
vn 0.987304688 0 -0.16003418
vn -0.987304688 0 0.16003418
vn -0.987304688 0 0.16003418
vn -0.987304688 0 0.16003418
vn -0.987304688 0 0.16003418
vn -0.987304688 0 0.16003418
vn -0.987304688 0 0.16003418
vn -0.987304688 0 0.16003418
vn -0.987304688 0 0.16003418
vn 0.16003418 0 0.987304688
vn 0.16003418 0 0.987304688
vn 0.16003418 0 0.987304688
vn 0.16003418 0 0.987304688
vn 0.987304688 0 -0.16003418
vn 0.987304688 0 -0.16003418
vn 0.987304688 0 -0.16003418
vn 0.987304688 0 -0.16003418
vn -0.16003418 0 -0.987304688
vn -0.16003418 0 -0.987304688
vn -0.16003418 0 -0.987304688
vn -0.16003418 0 -0.987304688
vn 2.14576721E-06 1 -3.09944153E-06
vn 2.14576721E-06 1 -3.09944153E-06
vn -2.68220901E-06 1 -3.93390656E-06
vn -2.68220901E-06 1 -3.93390656E-06
vn -2.68220901E-06 1 -3.93390656E-06
vn -2.68220901E-06 1 -3.93390656E-06
vn -1.90734863E-06 1 1.78813934E-07
vn -1.90734863E-06 1 1.78813934E-07
vn 2.92062759E-06 1 1.01327896E-06
vn 2.92062759E-06 1 1.01327896E-06
vn 2.14576721E-06 1 -3.09944153E-06
vn 2.14576721E-06 1 -3.09944153E-06
vn -1.90734863E-06 1 1.78813934E-07
vn -1.90734863E-06 1 1.78813934E-07
vn 2.92062759E-06 1 1.01327896E-06
vn 2.92062759E-06 1 1.01327896E-06
vn -0.987304688 0 0.16003418
vn -0.987304688 0 0.16003418
vn -0.987304688 0 0.16003418
vn -0.987304688 0 0.16003418
vn -0.16003418 0 -0.987304688
vn -0.16003418 0 -0.987304688
vn -0.16003418 0 -0.987304688
vn -0.16003418 0 -0.987304688
vn 0.16003418 0 0.987304688
vn 0.16003418 0 0.987304688
vn 0.16003418 0 0.987304688
vn 0.16003418 0 0.987304688
vn 0.987304688 0 -0.16003418
vn 0.987304688 0 -0.16003418
vn 0.987304688 0 -0.16003418
vn 0.987304688 0 -0.16003418
vn 0.16015625 0 0.987304688
vn 0.16015625 0 0.987304688
vn 0.16003418 0 0.987304688
vn 0.16003418 0 0.987304688
vn 0.16003418 0 0.987304688
vn 0.16003418 0 0.987304688
vn -0.16015625 1.49011612E-06 -0.987304688
vn -0.16003418 0 -0.987304688
vn -0.16015625 1.49011612E-06 -0.987304688
vn -0.16003418 0 -0.987304688
vn -0.16003418 0 -0.987304688
vn -0.16003418 0 -0.987304688
vn -0.787597656 0.602539062 0.127685547
vn -0.787597656 0.602539062 0.127685547
vn -0.787597656 0.602539062 0.127685547
vn -0.787597656 0.602539062 0.127685547
vn 0.787597656 0.603027344 -0.127685547
vn 0.787597656 0.603027344 -0.127685547
vn 0.787597656 0.603027344 -0.127685547
vn 0.787597656 0.603027344 -0.127685547
vn 3.9935112E-06 1 -7.15255737E-07
vn 3.9935112E-06 1 -7.15255737E-07
vn 3.9935112E-06 1 -7.15255737E-07
vn 3.9935112E-06 1 -7.15255737E-07
vn -6.02006912E-06 -1 7.74860382E-07
vn -6.02006912E-06 -1 7.74860382E-07
vn -6.02006912E-06 -1 7.74860382E-07
vn -6.02006912E-06 -1 7.74860382E-07
vn 0.987304688 0 -0.16003418
vn 0.987304688 0 -0.16003418
vn 0.987304688 0 -0.16003418
vn 0.987304688 0 -0.16003418
vn -0.987304688 0 0.16003418
vn -0.987304688 0 0.16003418
vn -0.987304688 0 0.16003418
vn -0.987304688 0 0.16003418
vn 0.16003418 0 0.987304688
vn 0.16003418 0 0.987304688
vn 0.16003418 0 0.987304688
vn 0.16003418 0 0.987304688
vn 0.16003418 0 0.987304688
vn 0.16003418 0 0.987304688
vn -0.16003418 2.22921371E-05 -0.987304688
vn -0.16003418 3.57627869E-07 -0.987304688
vn -0.16003418 2.22921371E-05 -0.987304688
vn -0.16003418 3.57627869E-07 -0.987304688
vn -0.16003418 0 -0.987304688
vn -0.16003418 0 -0.987304688
vn -0.787597656 0.602539062 0.127685547
vn -0.787597656 0.602539062 0.127685547
vn -0.787597656 0.602539062 0.127685547
vn -0.787597656 0.602539062 0.127685547
vn 0.787597656 0.603027344 -0.127685547
vn 0.787597656 0.603027344 -0.127685547
vn 0.787597656 0.603027344 -0.127685547
vn 0.787597656 0.603027344 -0.127685547
vn 3.9935112E-06 1 -7.15255737E-07
vn 3.9935112E-06 1 -7.15255737E-07
vn 3.9935112E-06 1 -7.15255737E-07
vn 3.9935112E-06 1 -7.15255737E-07
vn -6.02006912E-06 -1 7.74860382E-07
vn -6.02006912E-06 -1 7.74860382E-07
vn -6.02006912E-06 -1 7.74860382E-07
vn -6.02006912E-06 -1 7.74860382E-07
vn 0.987304688 0 -0.16003418
vn 0.987304688 0 -0.16003418
vn 0.987304688 0 -0.16003418
vn 0.987304688 0 -0.16003418
vn -0.987304688 0 0.16003418
vn -0.987304688 0 0.16003418
vn -0.987304688 0 0.16003418
vn -0.987304688 0 0.16003418
vn 0.16003418 -2.98023224E-06 0.987304688
vn 0.16003418 -2.98023224E-06 0.987304688
vn 0.16003418 0 0.987304688
vn 0.16003418 0 0.987304688
vn 0.16003418 0 0.987304688
vn 0.16003418 0 0.987304688
vn -0.16003418 -1.49011612E-06 -0.987304688
vn -0.16003418 0 -0.987304688
vn -0.16003418 -1.49011612E-06 -0.987304688
vn -0.16003418 0 -0.987304688
vn -0.16003418 0 -0.987304688
vn -0.16003418 0 -0.987304688
vn -0.787597656 0.603027344 0.127685547
vn -0.787597656 0.603027344 0.127685547
vn -0.787597656 0.603027344 0.127685547
vn -0.787597656 0.603027344 0.127685547
vn 0.787597656 0.603027344 -0.127685547
vn 0.787597656 0.603027344 -0.127685547
vn 0.787597656 0.603027344 -0.127685547
vn 0.787597656 0.603027344 -0.127685547
vn 3.9935112E-06 1 -7.15255737E-07
vn 3.9935112E-06 1 -7.15255737E-07
vn 3.9935112E-06 1 -7.15255737E-07
vn 3.9935112E-06 1 -7.15255737E-07
vn -6.02006912E-06 -1 7.74860382E-07
vn -6.02006912E-06 -1 7.74860382E-07
vn -6.02006912E-06 -1 7.74860382E-07
vn -6.02006912E-06 -1 7.74860382E-07
vn 0.987304688 0 -0.16003418
vn 0.987304688 0 -0.16003418
vn 0.987304688 0 -0.16003418
vn 0.987304688 0 -0.16003418
vn -0.987304688 0 0.16003418
vn -0.987304688 0 0.16003418
vn -0.987304688 0 0.16003418
vn -0.987304688 0 0.16003418
vn 0.16003418 8.88109207E-06 0.987304688
vn 0.16003418 8.88109207E-06 0.987304688
vn 0.16003418 1.78813934E-07 0.987304688
vn 0.16003418 1.78813934E-07 0.987304688
vn 0.16003418 0 0.987304688
vn 0.16003418 0 0.987304688
vn -0.16003418 2.98023224E-06 -0.987304688
vn -0.16003418 0 -0.987304688
vn -0.16003418 2.98023224E-06 -0.987304688
vn -0.16003418 0 -0.987304688
vn -0.16003418 0 -0.987304688
vn -0.16003418 0 -0.987304688
vn -0.787597656 0.602539062 0.127685547
vn -0.787597656 0.602539062 0.127685547
vn -0.787597656 0.602539062 0.127685547
vn -0.787597656 0.602539062 0.127685547
vn 0.787597656 0.602539062 -0.127685547
vn 0.787597656 0.602539062 -0.127685547
vn 0.787597656 0.602539062 -0.127685547
vn 0.787597656 0.602539062 -0.127685547
vn 3.9935112E-06 1 -7.15255737E-07
vn 3.9935112E-06 1 -7.15255737E-07
vn 3.9935112E-06 1 -7.15255737E-07
vn 3.9935112E-06 1 -7.15255737E-07
vn -6.02006912E-06 -1 9.53674316E-07
vn -6.02006912E-06 -1 9.53674316E-07
vn -6.02006912E-06 -1 9.53674316E-07
vn -6.02006912E-06 -1 9.53674316E-07
vn 0.987304688 0 -0.16003418
vn 0.987304688 0 -0.16003418
vn 0.987304688 0 -0.16003418
vn 0.987304688 0 -0.16003418
vn -0.987304688 0 0.16015625
vn -0.987304688 0 0.16015625
vn -0.987304688 0 0.16015625
vn -0.987304688 0 0.16015625
vn 0.16003418 5.96046448E-06 0.987304688
vn 0.16003418 5.96046448E-06 0.987304688
vn 0.16003418 1.1920929E-07 0.987304688
vn 0.16003418 1.1920929E-07 0.987304688
vn 0.16003418 0 0.987304688
vn 0.16003418 0 0.987304688
vn -0.16015625 -1.49011612E-06 -0.987304688
vn -0.16003418 0 -0.987304688
vn -0.16015625 -1.49011612E-06 -0.987304688
vn -0.16003418 0 -0.987304688
vn -0.16003418 0 -0.987304688
vn -0.16003418 0 -0.987304688
vn -0.787597656 0.603027344 0.127685547
vn -0.787597656 0.603027344 0.127685547
vn -0.787597656 0.603027344 0.127685547
vn -0.787597656 0.603027344 0.127685547
vn 0.787597656 0.602539062 -0.127685547
vn 0.787597656 0.602539062 -0.127685547
vn 0.787597656 0.602539062 -0.127685547
vn 0.787597656 0.602539062 -0.127685547
vn 3.9935112E-06 1 -7.15255737E-07
vn 3.9935112E-06 1 -7.15255737E-07
vn 3.9935112E-06 1 -7.15255737E-07
vn 3.9935112E-06 1 -7.15255737E-07
vn -6.02006912E-06 -1 9.53674316E-07
vn -6.02006912E-06 -1 9.53674316E-07
vn -6.02006912E-06 -1 9.53674316E-07
vn -6.02006912E-06 -1 9.53674316E-07
vn 0.987304688 0 -0.16003418
vn 0.987304688 0 -0.16003418
vn 0.987304688 0 -0.16003418
vn 0.987304688 0 -0.16003418
vn -0.987304688 0 0.16015625
vn -0.987304688 0 0.16015625
vn -0.987304688 0 0.16015625
vn -0.987304688 0 0.16015625
vn 0.16003418 -2.37822533E-05 0.987304688
vn 0.16003418 -2.37822533E-05 0.987304688
vn 0.16003418 -4.17232513E-07 0.987304688
vn 0.16003418 -4.17232513E-07 0.987304688
vn 0.16003418 0 0.987304688
vn 0.16003418 0 0.987304688
vn -0.16015625 -5.96046448E-06 -0.987304688
vn -0.16003418 -1.1920929E-07 -0.987304688
vn -0.16015625 -5.96046448E-06 -0.987304688
vn -0.16003418 -1.1920929E-07 -0.987304688
vn -0.16003418 0 -0.987304688
vn -0.16003418 0 -0.987304688
vn -0.787597656 0.602539062 0.127685547
vn -0.787597656 0.602539062 0.127685547
vn -0.787597656 0.602539062 0.127685547
vn -0.787597656 0.602539062 0.127685547
vn 0.787597656 0.603027344 -0.127685547
vn 0.787597656 0.603027344 -0.127685547
vn 0.787597656 0.603027344 -0.127685547
vn 0.787597656 0.603027344 -0.127685547
vn 3.9935112E-06 1 -7.15255737E-07
vn 3.9935112E-06 1 -7.15255737E-07
vn 3.9935112E-06 1 -7.15255737E-07
vn 3.9935112E-06 1 -7.15255737E-07
vn -6.02006912E-06 -1 7.74860382E-07
vn -6.02006912E-06 -1 7.74860382E-07
vn -6.02006912E-06 -1 7.74860382E-07
vn -6.02006912E-06 -1 7.74860382E-07
vn 0.987304688 0 -0.16003418
vn 0.987304688 0 -0.16003418
vn 0.987304688 0 -0.16003418
vn 0.987304688 0 -0.16003418
vn -0.987304688 0 0.16003418
vn -0.987304688 0 0.16003418
vn -0.987304688 0 0.16003418
vn -0.987304688 0 0.16003418
vn 0.16003418 2.98023224E-06 0.987304688
vn 0.16003418 2.98023224E-06 0.987304688
vn 0.16003418 0 0.987304688
vn 0.16003418 0 0.987304688
vn 0.16003418 0 0.987304688
vn 0.16003418 0 0.987304688
vn -0.16003418 -1.03712082E-05 -0.987304688
vn -0.16003418 -1.78813934E-07 -0.987304688
vn -0.16003418 -1.03712082E-05 -0.987304688
vn -0.16003418 -1.78813934E-07 -0.987304688
vn -0.16003418 0 -0.987304688
vn -0.16003418 0 -0.987304688
vn -0.787597656 0.602539062 0.127685547
vn -0.787597656 0.602539062 0.127685547
vn -0.787597656 0.602539062 0.127685547
vn -0.787597656 0.602539062 0.127685547
vn 0.787597656 0.603027344 -0.127685547
vn 0.787597656 0.603027344 -0.127685547
vn 0.787597656 0.603027344 -0.127685547
vn 0.787597656 0.603027344 -0.127685547
vn 3.9935112E-06 1 -7.15255737E-07
vn 3.9935112E-06 1 -7.15255737E-07
vn 3.9935112E-06 1 -7.15255737E-07
vn 3.9935112E-06 1 -7.15255737E-07
vn -6.02006912E-06 -1 7.74860382E-07
vn -6.02006912E-06 -1 7.74860382E-07
vn -6.02006912E-06 -1 7.74860382E-07
vn -6.02006912E-06 -1 7.74860382E-07
vn 0.987304688 0 -0.16003418
vn 0.987304688 0 -0.16003418
vn 0.987304688 0 -0.16003418
vn 0.987304688 0 -0.16003418
vn -0.987304688 0 0.16003418
vn -0.987304688 0 0.16003418
vn -0.987304688 0 0.16003418
vn -0.987304688 0 0.16003418
vn -0 -1 -2.50339508E-06
vn -0 -1 -2.50339508E-06
vn -0 -1 -2.50339508E-06
vn -0 -1 -2.50339508E-06
vn 0.16003418 1.03712082E-05 0.987304688
vn 0.16003418 1.03712082E-05 0.987304688
vn 0.16003418 1.03712082E-05 0.987304688
vn 0.16003418 1.03712082E-05 0.987304688
vn -0 1 0
vn -0 1 0
vn -0 1 0
vn -0 1 0
vn -0.16003418 -5.1856041E-06 -0.987304688
vn -0.16003418 -5.1856041E-06 -0.987304688
vn -0.16003418 -5.1856041E-06 -0.987304688
vn -0.16003418 -5.1856041E-06 -0.987304688
vn -0 -1 0
vn -0 -1 0
vn -0 -1 0
vn -0 -1 0
vn 0.16003418 1.03712082E-05 0.987304688
vn 0.16003418 1.03712082E-05 0.987304688
vn 0.16003418 1.03712082E-05 0.987304688
vn 0.16003418 1.03712082E-05 0.987304688
vn -0 1 -6.55651093E-07
vn -0 1 -6.55651093E-07
vn -0 1 -6.55651093E-07
vn -0 1 -6.55651093E-07
vn -0.16003418 -5.1856041E-06 -0.987304688
vn -0.16003418 -5.1856041E-06 -0.987304688
vn -0.16003418 -5.1856041E-06 -0.987304688
vn -0.16003418 -5.1856041E-06 -0.987304688
vn 0.16003418 -2.96831131E-05 0.987304688
vn 0.16003418 -2.96831131E-05 0.987304688
vn 0.16003418 -5.36441803E-07 0.987304688
vn 0.16003418 -5.36441803E-07 0.987304688
vn 0.16003418 0 0.987304688
vn 0.16003418 0 0.987304688
vn -0.16003418 -1.49011612E-06 -0.987304688
vn -0.16003418 0 -0.987304688
vn -0.16003418 -1.49011612E-06 -0.987304688
vn -0.16003418 0 -0.987304688
vn -0.16003418 0 -0.987304688
vn -0.16003418 0 -0.987304688
vn -0.787597656 0.603027344 0.127685547
vn -0.787597656 0.603027344 0.127685547
vn -0.787597656 0.603027344 0.127685547
vn -0.787597656 0.603027344 0.127685547
vn 0.787597656 0.602539062 -0.127685547
vn 0.787597656 0.602539062 -0.127685547
vn 0.787597656 0.602539062 -0.127685547
vn 0.787597656 0.602539062 -0.127685547
vn 3.9935112E-06 1 -7.15255737E-07
vn 3.9935112E-06 1 -7.15255737E-07
vn 3.9935112E-06 1 -7.15255737E-07
vn 3.9935112E-06 1 -7.15255737E-07
vn -6.02006912E-06 -1 7.74860382E-07
vn -6.02006912E-06 -1 7.74860382E-07
vn -6.02006912E-06 -1 7.74860382E-07
vn -6.02006912E-06 -1 7.74860382E-07
vn 0.987304688 0 -0.16003418
vn 0.987304688 0 -0.16003418
vn 0.987304688 0 -0.16003418
vn 0.987304688 0 -0.16003418
vn -0.987304688 0 0.16003418
vn -0.987304688 0 0.16003418
vn -0.987304688 0 0.16003418
vn -0.987304688 0 0.16003418
vn 0.16003418 0 0.987304688
vn 0.16003418 0 0.987304688
vn 0.16003418 0 0.987304688
vn 0.16003418 0 0.987304688
vn 0.16003418 0 0.987304688
vn 0.16003418 0 0.987304688
vn -0.16003418 -2.98023224E-06 -0.987304688
vn -0.16003418 0 -0.987304688
vn -0.16003418 -2.98023224E-06 -0.987304688
vn -0.16003418 0 -0.987304688
vn -0.16003418 0 -0.987304688
vn -0.16003418 0 -0.987304688
vn -0.787597656 0.602539062 0.127685547
vn -0.787597656 0.602539062 0.127685547
vn -0.787597656 0.602539062 0.127685547
vn -0.787597656 0.602539062 0.127685547
vn 0.787597656 0.603027344 -0.127685547
vn 0.787597656 0.603027344 -0.127685547
vn 0.787597656 0.603027344 -0.127685547
vn 0.787597656 0.603027344 -0.127685547
vn 3.9935112E-06 1 -7.15255737E-07
vn 3.9935112E-06 1 -7.15255737E-07
vn 3.9935112E-06 1 -7.15255737E-07
vn 3.9935112E-06 1 -7.15255737E-07
vn -6.02006912E-06 -1 7.74860382E-07
vn -6.02006912E-06 -1 7.74860382E-07
vn -6.02006912E-06 -1 7.74860382E-07
vn -6.02006912E-06 -1 7.74860382E-07
vn 0.987304688 0 -0.16003418
vn 0.987304688 0 -0.16003418
vn 0.987304688 0 -0.16003418
vn 0.987304688 0 -0.16003418
vn -0.987304688 0 0.16003418
vn -0.987304688 0 0.16003418
vn -0.987304688 0 0.16003418
vn -0.987304688 0 0.16003418
g Exterior_WoodFence_4_0
f 3/3/3 2/2/2 1/1/1
f 6/6/6 5/5/5 4/4/4
f 9/9/9 8/8/8 7/7/7
f 12/12/12 11/11/11 10/10/10
f 15/15/15 14/14/14 13/13/13
f 16/16/16 15/15/15 13/13/13
f 15/15/15 16/16/16 17/17/17
f 18/18/18 15/15/15 17/17/17
f 21/21/21 20/20/20 19/19/19
f 20/20/20 22/22/22 19/19/19
f 22/22/22 20/20/20 23/23/23
f 20/20/20 24/24/24 23/23/23
f 27/27/27 26/26/26 25/25/25
f 28/28/28 27/27/27 25/25/25
f 31/31/31 30/30/30 29/29/29
f 32/32/32 31/31/31 29/29/29
f 35/35/35 34/34/34 33/33/33
f 36/36/36 35/35/35 33/33/33
f 39/39/39 38/38/38 37/37/37
f 40/40/40 39/39/39 37/37/37
f 43/43/43 42/42/42 41/41/41
f 44/44/44 43/43/43 41/41/41
f 47/47/47 46/46/46 45/45/45
f 48/48/48 47/47/47 45/45/45
f 51/51/51 50/50/50 49/49/49
f 52/52/52 51/51/51 49/49/49
f 55/55/55 54/54/54 53/53/53
f 56/56/56 55/55/55 53/53/53
f 59/59/59 58/58/58 57/57/57
f 60/60/60 59/59/59 57/57/57
f 63/63/63 62/62/62 61/61/61
f 64/64/64 63/63/63 61/61/61
f 67/67/67 66/66/66 65/65/65
f 68/68/68 67/67/67 65/65/65
f 71/71/71 70/70/70 69/69/69
f 72/72/72 71/71/71 69/69/69
f 75/75/75 74/74/74 73/73/73
f 76/76/76 75/75/75 73/73/73
f 79/79/79 78/78/78 77/77/77
f 80/80/80 79/79/79 77/77/77
f 83/83/83 82/82/82 81/81/81
f 84/84/84 83/83/83 81/81/81
f 87/87/87 86/86/86 85/85/85
f 88/88/88 87/87/87 85/85/85
f 91/91/91 90/90/90 89/89/89
f 92/92/92 91/91/91 89/89/89
f 95/95/95 94/94/94 93/93/93
f 96/96/96 95/95/95 93/93/93
f 99/99/99 98/98/98 97/97/97
f 100/100/100 99/99/99 97/97/97
f 99/99/99 100/100/100 101/101/101
f 102/102/102 99/99/99 101/101/101
f 105/105/105 104/104/104 103/103/103
f 104/104/104 106/106/106 103/103/103
f 106/106/106 104/104/104 107/107/107
f 104/104/104 108/108/108 107/107/107
f 111/111/111 110/110/110 109/109/109
f 112/112/112 111/111/111 109/109/109
f 115/115/115 114/114/114 113/113/113
f 116/116/116 115/115/115 113/113/113
f 119/119/119 118/118/118 117/117/117
f 120/120/120 119/119/119 117/117/117
f 123/123/123 122/122/122 121/121/121
f 124/124/124 123/123/123 121/121/121
f 127/127/127 126/126/126 125/125/125
f 128/128/128 127/127/127 125/125/125
f 131/131/131 130/130/130 129/129/129
f 132/132/132 131/131/131 129/129/129
f 135/135/135 134/134/134 133/133/133
f 136/136/136 135/135/135 133/133/133
f 135/135/135 136/136/136 137/137/137
f 138/138/138 135/135/135 137/137/137
f 141/141/141 140/140/140 139/139/139
f 140/140/140 142/142/142 139/139/139
f 142/142/142 140/140/140 143/143/143
f 140/140/140 144/144/144 143/143/143
f 147/147/147 146/146/146 145/145/145
f 148/148/148 147/147/147 145/145/145
f 151/151/151 150/150/150 149/149/149
f 152/152/152 151/151/151 149/149/149
f 155/155/155 154/154/154 153/153/153
f 156/156/156 155/155/155 153/153/153
f 159/159/159 158/158/158 157/157/157
f 160/160/160 159/159/159 157/157/157
f 163/163/163 162/162/162 161/161/161
f 164/164/164 163/163/163 161/161/161
f 167/167/167 166/166/166 165/165/165
f 168/168/168 167/167/167 165/165/165
f 171/171/171 170/170/170 169/169/169
f 172/172/172 171/171/171 169/169/169
f 171/171/171 172/172/172 173/173/173
f 174/174/174 171/171/171 173/173/173
f 177/177/177 176/176/176 175/175/175
f 176/176/176 178/178/178 175/175/175
f 178/178/178 176/176/176 179/179/179
f 176/176/176 180/180/180 179/179/179
f 183/183/183 182/182/182 181/181/181
f 184/184/184 183/183/183 181/181/181
f 187/187/187 186/186/186 185/185/185
f 188/188/188 187/187/187 185/185/185
f 191/191/191 190/190/190 189/189/189
f 192/192/192 191/191/191 189/189/189
f 195/195/195 194/194/194 193/193/193
f 196/196/196 195/195/195 193/193/193
f 199/199/199 198/198/198 197/197/197
f 200/200/200 199/199/199 197/197/197
f 203/203/203 202/202/202 201/201/201
f 204/204/204 203/203/203 201/201/201
f 207/207/207 206/206/206 205/205/205
f 208/208/208 207/207/207 205/205/205
f 207/207/207 208/208/208 209/209/209
f 210/210/210 207/207/207 209/209/209
f 213/213/213 212/212/212 211/211/211
f 212/212/212 214/214/214 211/211/211
f 214/214/214 212/212/212 215/215/215
f 212/212/212 216/216/216 215/215/215
f 219/219/219 218/218/218 217/217/217
f 220/220/220 219/219/219 217/217/217
f 223/223/223 222/222/222 221/221/221
f 224/224/224 223/223/223 221/221/221
f 227/227/227 226/226/226 225/225/225
f 228/228/228 227/227/227 225/225/225
f 231/231/231 230/230/230 229/229/229
f 232/232/232 231/231/231 229/229/229
f 235/235/235 234/234/234 233/233/233
f 236/236/236 235/235/235 233/233/233
f 239/239/239 238/238/238 237/237/237
f 240/240/240 239/239/239 237/237/237
f 243/243/243 242/242/242 241/241/241
f 244/244/244 243/243/243 241/241/241
f 243/243/243 244/244/244 245/245/245
f 246/246/246 243/243/243 245/245/245
f 249/249/249 248/248/248 247/247/247
f 248/248/248 250/250/250 247/247/247
f 250/250/250 248/248/248 251/251/251
f 248/248/248 252/252/252 251/251/251
f 255/255/255 254/254/254 253/253/253
f 256/256/256 255/255/255 253/253/253
f 259/259/259 258/258/258 257/257/257
f 260/260/260 259/259/259 257/257/257
f 263/263/263 262/262/262 261/261/261
f 264/264/264 263/263/263 261/261/261
f 267/267/267 266/266/266 265/265/265
f 268/268/268 267/267/267 265/265/265
f 271/271/271 270/270/270 269/269/269
f 272/272/272 271/271/271 269/269/269
f 275/275/275 274/274/274 273/273/273
f 276/276/276 275/275/275 273/273/273
f 279/279/279 278/278/278 277/277/277
f 280/280/280 279/279/279 277/277/277
f 279/279/279 280/280/280 281/281/281
f 282/282/282 279/279/279 281/281/281
f 285/285/285 284/284/284 283/283/283
f 284/284/284 286/286/286 283/283/283
f 286/286/286 284/284/284 287/287/287
f 284/284/284 288/288/288 287/287/287
f 291/291/291 290/290/290 289/289/289
f 292/292/292 291/291/291 289/289/289
f 295/295/295 294/294/294 293/293/293
f 296/296/296 295/295/295 293/293/293
f 299/299/299 298/298/298 297/297/297
f 300/300/300 299/299/299 297/297/297
f 303/303/303 302/302/302 301/301/301
f 304/304/304 303/303/303 301/301/301
f 307/307/307 306/306/306 305/305/305
f 308/308/308 307/307/307 305/305/305
f 311/311/311 310/310/310 309/309/309
f 312/312/312 311/311/311 309/309/309
f 315/315/315 314/314/314 313/313/313
f 316/316/316 315/315/315 313/313/313
f 315/315/315 316/316/316 317/317/317
f 318/318/318 315/315/315 317/317/317
f 321/321/321 320/320/320 319/319/319
f 320/320/320 322/322/322 319/319/319
f 322/322/322 320/320/320 323/323/323
f 320/320/320 324/324/324 323/323/323
f 327/327/327 326/326/326 325/325/325
f 328/328/328 327/327/327 325/325/325
f 331/331/331 330/330/330 329/329/329
f 332/332/332 331/331/331 329/329/329
f 335/335/335 334/334/334 333/333/333
f 336/336/336 335/335/335 333/333/333
f 339/339/339 338/338/338 337/337/337
f 340/340/340 339/339/339 337/337/337
f 343/343/343 342/342/342 341/341/341
f 344/344/344 343/343/343 341/341/341
f 347/347/347 346/346/346 345/345/345
f 348/348/348 347/347/347 345/345/345
f 351/351/351 350/350/350 349/349/349
f 352/352/352 351/351/351 349/349/349
f 355/355/355 354/354/354 353/353/353
f 356/356/356 355/355/355 353/353/353
f 359/359/359 358/358/358 357/357/357
f 360/360/360 359/359/359 357/357/357
f 363/363/363 362/362/362 361/361/361
f 364/364/364 363/363/363 361/361/361
f 367/367/367 366/366/366 365/365/365
f 368/368/368 367/367/367 365/365/365
f 371/371/371 370/370/370 369/369/369
f 372/372/372 371/371/371 369/369/369
f 375/375/375 374/374/374 373/373/373
f 376/376/376 375/375/375 373/373/373
f 379/379/379 378/378/378 377/377/377
f 380/380/380 379/379/379 377/377/377
f 383/383/383 382/382/382 381/381/381
f 384/384/384 383/383/383 381/381/381
f 383/383/383 384/384/384 385/385/385
f 386/386/386 383/383/383 385/385/385
f 389/389/389 388/388/388 387/387/387
f 388/388/388 390/390/390 387/387/387
f 390/390/390 388/388/388 391/391/391
f 388/388/388 392/392/392 391/391/391
f 395/395/395 394/394/394 393/393/393
f 396/396/396 395/395/395 393/393/393
f 399/399/399 398/398/398 397/397/397
f 400/400/400 399/399/399 397/397/397
f 403/403/403 402/402/402 401/401/401
f 404/404/404 403/403/403 401/401/401
f 407/407/407 406/406/406 405/405/405
f 408/408/408 407/407/407 405/405/405
f 411/411/411 410/410/410 409/409/409
f 412/412/412 411/411/411 409/409/409
f 415/415/415 414/414/414 413/413/413
f 416/416/416 415/415/415 413/413/413
f 419/419/419 418/418/418 417/417/417
f 420/420/420 419/419/419 417/417/417
f 419/419/419 420/420/420 421/421/421
f 422/422/422 419/419/419 421/421/421
f 425/425/425 424/424/424 423/423/423
f 424/424/424 426/426/426 423/423/423
f 426/426/426 424/424/424 427/427/427
f 424/424/424 428/428/428 427/427/427
f 431/431/431 430/430/430 429/429/429
f 432/432/432 431/431/431 429/429/429
f 435/435/435 434/434/434 433/433/433
f 436/436/436 435/435/435 433/433/433
f 439/439/439 438/438/438 437/437/437
f 440/440/440 439/439/439 437/437/437
f 443/443/443 442/442/442 441/441/441
f 444/444/444 443/443/443 441/441/441
f 447/447/447 446/446/446 445/445/445
f 448/448/448 447/447/447 445/445/445
f 451/451/451 450/450/450 449/449/449
f 452/452/452 451/451/451 449/449/449
