g Rock_C_5
v -0.412168915 0.112976765 0.696976828
v -0.47833641 -0.220737557 0.883971922
v -1.335637 -0.01360453 0.377646744
v -0.47833641 -0.220737557 0.883971922
v 0.635003612 0.173390564 0.527242819
v 0.727062736 -0.281151357 0.791912799
v -1.04507539 0.443814239 0.337370878
v 0.937072611 0.219420126 0.363262506
v 1.07228445 -0.197722777 0.616425095
v 0.404855804 0.458198477 0.0784545933
v 0.249506034 0.625055638 -0.42211689
v -1.18604092 0.469705867 -0.0912794153
v 0.353072547 0.648070419 -0.850767183
v 1.16722042 0.438060544 0.0209176412
v 1.07228445 -0.197722777 0.616425095
v 0.922688373 0.688346285 -0.787476535
v 0.732816431 0.725745304 -1.0089938
v -0.47833641 -0.220737557 0.883971922
v -0.501351191 -0.534313946 0.88684877
v -1.29823798 -0.537190794 0.39490783
v -1.335637 -0.01360453 0.377646744
v -1.50824785 0.0065334032 -0.131555282
v -1.47084883 -0.525683403 -0.125801587
v -1.04507539 0.443814239 0.337370878
v -1.18604092 0.469705867 -0.0912794153
v -0.412168915 0.112976765 0.696976828
v 1.0694076 -0.646511003 0.602040857
v 1.43476725 -0.0653877869 0.199282193
v 1.32257019 -0.945703154 0.233804364
v 1.07228445 -0.197722777 0.616425095
v 1.16722042 0.438060544 0.0209176412
v 1.0694076 -0.646511003 0.602040857
v 0.727062736 -0.281151357 0.791912799
v 1.07228445 -0.197722777 0.616425095
v 0.658018393 -0.718432193 0.774651713
v -0.47833641 -0.220737557 0.883971922
v -0.501351191 -0.534313946 0.88684877
v 0.819121859 0.222296973 -1.19886574
v 0.741446974 -0.735693279 -1.1298214
v 1.00611695 -0.937072611 -0.712678498
v 1.1844815 0.184897955 -0.893919897
v 1.32257019 -0.945703154 0.233804364
v 1.43476725 -0.0653877869 0.199282193
v 1.16722042 0.438060544 0.0209176412
v 0.922688373 0.688346285 -0.787476535
v 0.732816431 0.725745304 -1.0089938
v -1.47084883 -0.525683403 -0.125801587
v -0.860957141 -0.617742527 -0.591850898
v -0.87534138 -0.0653877869 -0.640757308
v -1.50824785 0.0065334032 -0.131555282
v -1.18604092 0.469705867 -0.0912794153
v -0.69409998 0.432306849 -0.465269604
v 0.353072547 0.648070419 -0.850767183
v -0.87534138 -0.0653877869 -0.640757308
v 0.355949395 0.110099917 -1.14708249
v 0.732816431 0.725745304 -1.0089938
v 0.819121859 0.222296973 -1.19886574
v 0.741446974 -0.735693279 -1.1298214
v 0.275397662 -0.732816431 -0.945703154
v -0.860957141 -0.617742527 -0.591850898
vt 0.118153781 0.822744474
vt 0.0831188843 0.869457669
vt 0.199901872 0.927849163
vt 0.0675478192 0.834422773
vt 0.118153781 0.67092659
vt 0.0480839879 0.67092659
vt 0.207687405 0.861672136
vt 0.129832079 0.624213394
vt 0.0597622867 0.616427862
vt 0.19211634 0.690390421
vt 0.269971665 0.694283187
vt 0.258293366 0.869457669
vt 0.324470392 0.667033823
vt 0.184330807 0.596964031
vt 0.0753333517 0.565821901
vt 0.297221029 0.600856797
vt 0.332255925 0.608642329
vt 0.0831188843 0.869457669
vt 0.063655053 0.908385332
vt 0.176545275 0.986240657
vt 0.199901872 0.927849163
vt 0.266078899 0.931741929
vt 0.273864431 0.997918956
vt 0.207687405 0.861672136
vt 0.258293366 0.869457669
vt 0.118153781 0.822744474
vt 0.0480839879 0.507430407
vt 0.141510378 0.538572537
vt 0.0909044168 0.44125338
vt 0.0753333517 0.565821901
vt 0.184330807 0.596964031
vt 0.00526355905 0.620320628
vt 0.0480839879 0.67092659
vt 0.0597622867 0.616427862
vt 0.00526355905 0.682604888
vt 0.0675478192 0.834422773
vt 0.0286201566 0.842208305
vt 0.343934224 0.526894238
vt 0.305006561 0.394540185
vt 0.227151236 0.386754653
vt 0.28554273 0.526894238
vt 0.0909044168 0.44125338
vt 0.141510378 0.538572537
vt 0.184330807 0.596964031
vt 0.297221029 0.600856797
vt 0.332255925 0.608642329
vt 0.273864431 0.997918956
vt 0.37896912 0.958991293
vt 0.359505289 0.8889215
vt 0.266078899 0.931741929
vt 0.258293366 0.869457669
vt 0.301113795 0.814958941
vt 0.324470392 0.667033823
vt 0.367290821 0.853886604
vt 0.406218484 0.678712122
vt 0.332255925 0.608642329
vt 0.406218484 0.616427862
vt 0.526894238 0.67092659
vt 0.507430407 0.73321085
vt 0.437360614 0.881135968
vn -0.011445334 0.67443658 0.738244068
vn -0.169300393 0.232442416 0.957761923
vn -0.706007591 0.232442416 0.6689722
vn -0.169300393 0.232442416 0.957761923
vn 0.114838713 0.706007591 0.698831418
vn 0.177980736 0.232442416 0.956186896
vn -0.200871404 0.832291638 0.516663632
vn 0.304264783 0.706007591 0.639512488
vn 0.6199749 0.200871404 0.758473337
vn 0.0516966894 0.927004673 0.371469768
vn -0.0430163457 0.990146697 0.133263323
vn -0.421868486 0.895433661 -0.142216519
vn -0.327155451 0.706007591 -0.628110334
vn 0.6199749 0.769149615 0.155048359
vn 0.6199749 0.200871404 0.758473337
vn 0.525261865 0.832291638 -0.177173933
vn 0.0832677011 0.769149615 -0.633620833
vn -0.169300393 0.232442416 0.957761923
vn -0.200871404 -0.0201256777 0.979410862
vn -0.737578603 -0.0201256777 0.674961304
vn -0.706007591 0.232442416 0.6689722
vn -0.895433661 0.232442416 -0.379696038
vn -0.895433661 -0.0832677011 -0.437338596
vn -0.200871404 0.832291638 0.516663632
vn -0.421868486 0.895433661 -0.142216519
vn -0.011445334 0.67443658 0.738244068
vn 0.683116923 -0.0516966894 0.728476988
vn 0.99882704 0.0430163457 -0.0222292099
vn 0.967256029 -0.146409724 -0.207316106
vn 0.6199749 0.200871404 0.758473337
vn 0.6199749 0.769149615 0.155048359
vn 0.683116923 -0.0516966894 0.728476988
vn 0.177980736 0.232442416 0.956186896
vn 0.6199749 0.200871404 0.758473337
vn 0.177980736 -0.0516966894 0.982675078
vn -0.169300393 0.232442416 0.957761923
vn -0.200871404 -0.0201256777 0.979410862
vn 0.304264783 0.0430163457 -0.95161575
vn 0.367406806 -0.177980736 -0.912871895
vn 0.904114005 -0.177980736 -0.388459423
vn 0.904114005 0.0430163457 -0.425120524
vn 0.967256029 -0.146409724 -0.207316106
vn 0.99882704 0.0430163457 -0.0222292099
vn 0.6199749 0.769149615 0.155048359
vn 0.525261865 0.832291638 -0.177173933
vn 0.0832677011 0.769149615 -0.633620833
vn -0.895433661 -0.0832677011 -0.437338596
vn -0.421868486 -0.114838713 -0.899354797
vn -0.453439498 0.106158369 -0.884942384
vn -0.895433661 0.232442416 -0.379696038
vn -0.421868486 0.895433661 -0.142216519
vn -0.390297474 0.706007591 -0.590949374
vn -0.327155451 0.706007591 -0.628110334
vn -0.453439498 0.106158369 -0.884942384
vn -0.327155451 0.106158369 -0.938988664
vn 0.0832677011 0.769149615 -0.633620833
vn 0.304264783 0.0430163457 -0.95161575
vn 0.367406806 -0.177980736 -0.912871895
vn -0.295584439 -0.146409724 -0.944030737
vn -0.421868486 -0.114838713 -0.899354797
g Rock_C_5_0
f 3/3/3 2/2/2 1/1/1
f 5/5/5 1/1/1 4/4/4
f 6/6/6 5/5/5 4/4/4
f 7/7/7 1/1/1 5/5/5
f 8/8/8 5/5/5 6/6/6
f 9/9/9 8/8/8 6/6/6
f 10/10/10 7/7/7 5/5/5
f 10/10/10 5/5/5 8/8/8
f 10/10/10 11/11/11 7/7/7
f 11/11/11 12/12/12 7/7/7
f 11/11/11 13/13/13 12/12/12
f 14/14/14 10/10/10 8/8/8
f 10/10/10 14/14/14 11/11/11
f 14/14/14 8/8/8 15/15/15
f 14/14/14 16/16/16 11/11/11
f 11/11/11 16/16/16 13/13/13
f 16/16/16 17/17/17 13/13/13
f 20/20/20 19/19/19 18/18/18
f 21/21/21 20/20/20 18/18/18
f 21/21/21 22/22/22 20/20/20
f 22/22/22 23/23/23 20/20/20
f 21/21/21 24/24/24 22/22/22
f 24/24/24 25/25/25 22/22/22
f 24/24/24 21/21/21 26/26/26
f 29/29/29 28/28/28 27/27/27
f 28/28/28 30/30/30 27/27/27
f 28/28/28 31/31/31 30/30/30
f 34/34/34 33/33/33 32/32/32
f 33/33/33 35/35/35 32/32/32
f 33/33/33 36/36/36 35/35/35
f 36/36/36 37/37/37 35/35/35
f 40/40/40 39/39/39 38/38/38
f 41/41/41 40/40/40 38/38/38
f 42/42/42 40/40/40 41/41/41
f 43/43/43 42/42/42 41/41/41
f 43/43/43 41/41/41 44/44/44
f 41/41/41 45/45/45 44/44/44
f 41/41/41 38/38/38 45/45/45
f 38/38/38 46/46/46 45/45/45
f 49/49/49 48/48/48 47/47/47
f 50/50/50 49/49/49 47/47/47
f 50/50/50 51/51/51 49/49/49
f 51/51/51 52/52/52 49/49/49
f 53/53/53 52/52/52 51/51/51
f 54/54/54 52/52/52 53/53/53
f 55/55/55 54/54/54 53/53/53
f 55/55/55 53/53/53 56/56/56
f 57/57/57 55/55/55 56/56/56
f 57/57/57 58/58/58 55/55/55
f 58/58/58 59/59/59 55/55/55
f 55/55/55 59/59/59 54/54/54
f 59/59/59 60/60/60 54/54/54
