g Exterior_Hole
v 0.986931741 0.367130846 0.931450546
v 0.928737342 0.430394977 0.00915832818
v 1.01112342 0.369902939 0.00939042866
v 0.906552255 0.42785266 0.886341095
v 0.793082654 0.367730856 1.3653872
v 0.728784978 0.428402901 1.28429043
v 0.48850584 0.37139076 1.58268785
v 0.449468523 0.431759238 1.48357141
v -0.0101983231 0.378618628 1.72732234
v 0.449468523 0.431759238 1.48357141
v 0.48850584 0.37139076 1.58268785
v -0.00787142664 0.438387543 1.61621499
v -0.410368085 0.385724545 1.62008679
v -0.374854624 0.444904238 1.51785779
v -0.780387938 0.393204033 1.36553621
v -0.714185059 0.451763362 1.28442717
v -0.972935915 0.398846388 0.933872402
v -0.890763521 0.456937701 0.888566852
v -0.998618066 0.402438968 0.00958074816
v -0.914319456 0.460232496 0.00933286455
v -0.799295247 0.424586862 0.836692154
v -0.820441782 0.427544266 0.00847758073
v -0.640805244 0.419942617 1.19199336
v -0.336226076 0.413785994 1.40151656
v -0.00682587689 0.407936573 1.48981392
v 0.403674543 0.401987106 1.37075865
v 0.654381454 0.398974627 1.19187069
v 0.728784978 0.428402901 1.28429043
v 0.813943088 0.398480713 0.834683955
v 0.906552255 0.42785266 0.886341095
v 0.833853066 0.400762588 0.0083209211
v 0.928737342 0.430394977 0.00915832818
v 0.452345878 0.386100769 -1.4528445
v -0.00792776328 0.452806681 -1.46949077
v -0.0102546616 0.394341499 -1.58128965
v 0.41630134 0.445249438 -1.35169113
v 0.792936027 0.37922141 -1.2194432
v -0.00688221259 0.420879126 -1.34345949
v -0.331322134 0.425627589 -1.25727308
v 0.373900414 0.414095879 -1.23772585
v 0.728645623 0.438940734 -1.13766181
v 0.992175043 0.373307377 -0.759845972
v 0.911356032 0.433517128 -0.716167808
v 1.01112342 0.369902939 0.00939042866
v 0.928737342 0.430394977 0.00915832818
v -0.990961075 0.405174464 -0.718931317
v -0.914319456 0.460232496 0.00933286455
v -0.998618066 0.402438968 0.00958074816
v -0.907297194 0.462741226 -0.678652465
v -0.820441782 0.427544266 0.00847758073
v -0.780444264 0.404693127 -1.21929431
v -0.814142108 0.429796129 -0.633605182
v -0.714241445 0.462299883 -1.1375252
v -0.404399782 0.400110126 -1.47658122
v -0.64086163 0.429400176 -1.04549932
v -0.369386733 0.458096921 -1.37346697
v -0.0102546616 0.394341499 -1.58128965
v -0.331322134 0.425627589 -1.25727308
v -0.00792776328 0.452806681 -1.46949077
v -0.592211187 0.321903706 1.12878692
v -0.55607456 0.0224666391 1.07586277
v -0.294370621 0.0171764661 1.25592268
v -0.311232388 0.316224158 1.32206774
v -0.0113413008 0.012150554 1.33178329
v -0.00735133141 0.310827881 1.40353644
v -0.0146261835 -0.341002673 1.1299094
v -0.238154024 -0.337033272 1.06997561
v 0.341376185 0.00703834509 1.2295202
v 0.263938397 -0.345039845 1.04909337
v 0.193502769 -0.451522321 0.877671719
v -0.0140359541 -0.448514462 0.937866092
v 0.320256144 -0.453045338 0.787216961
v 0.434074759 -0.347084314 0.927712202
v 0.371339262 0.305339456 1.29370272
v -0.00682587689 0.407936573 1.48981392
v 0.403674543 0.401987106 1.37075865
v 0.556797147 0.00445017451 1.07575738
v 0.542349219 -0.347419471 0.685333014
v 0.602620006 0.302560419 1.12867379
v 0.654381454 0.398974627 1.19187069
v 0.69389832 0.00402551098 0.768898964
v 0.749819934 0.302104801 0.799158692
v -0.738420069 0.326188087 0.801018357
v -0.55607456 0.0224666391 1.07586277
v -0.592211187 0.321903706 1.12878692
v -0.692255557 0.0264568776 0.770622015
v -0.444833487 -0.332855523 0.92779547
v -0.552380383 -0.329704076 0.686701357
v -0.757933617 0.328916162 0.00745142763
v -0.820441782 0.427544266 0.00847758073
v -0.799295247 0.424586862 0.836692154
v -0.710428834 0.0289979875 0.00531131076
v -0.566745698 -0.327696055 0.00214571296
v -0.414674371 -0.440096736 0.607665539
v -0.334545732 -0.442444652 0.78727895
v -0.55607456 0.0224666391 1.07586277
v -0.444833487 -0.332855523 0.92779547
v -0.238154024 -0.337033272 1.06997561
v -0.294370621 0.0171764661 1.25592268
v -0.556130946 0.0305927899 -0.934050858
v -0.444889814 -0.326436639 -0.790106595
v -0.562479377 -0.326168001 -0.510578692
v -0.70502013 0.0309328977 -0.580112159
v -0.592267573 0.330628455 -0.983458757
v -0.566745698 -0.327696055 0.00214571296
v -0.710428834 0.0289979875 0.00531131076
v -0.752124548 0.330993712 -0.603464782
v -0.757933617 0.328916162 0.00745142763
v -0.814142108 0.429796129 -0.633605182
v -0.820441782 0.427544266 0.00847758073
v 0.315793365 0.0174426641 -1.09920883
v 0.243723556 -0.336822212 -0.920530856
v -0.0146825071 -0.332218856 -0.992297173
v -0.0113976402 0.0232711732 -1.19005024
v -0.234841645 -0.328996688 -0.933810472
v -0.178113744 -0.439569324 -0.757950425
v -0.334602058 -0.437662154 -0.65087688
v -0.290164828 0.0273511317 -1.11599195
v -0.444889814 -0.326436639 -0.790106595
v -0.00740766944 0.322767586 -1.25832868
v -0.556130946 0.0305927899 -0.934050858
v -0.306711704 0.327148169 -1.17882431
v -0.00688221259 0.420879126 -1.34345949
v -0.331322134 0.425627589 -1.25727308
v -0.592267573 0.330628455 -0.983458757
v -0.64086163 0.429400176 -1.04549932
v -0.752124548 0.330993712 -0.603464782
v -0.814142108 0.429796129 -0.633605182
v 0.556797147 0.00445017451 1.07575738
v 0.542349219 -0.347419471 0.685333014
v 0.69389832 0.00402551098 0.768898964
v 0.555848897 -0.345869929 0.00203940202
v 0.710996151 0.00598629937 0.00517670438
v 0.410969943 -0.452140212 0.000377719989
v 0.400921851 -0.453295082 0.606650889
v 0.434074759 -0.347084314 0.927712202
v 0.320256144 -0.453045338 0.787216961
v 0.749819934 0.302104801 0.799158692
v 0.768184781 0.30420962 0.00730690779
v 0.813943088 0.398480713 0.834683955
v 0.833853066 0.400762588 0.0083209211
v 0.654381454 0.398974627 1.19187069
v 0.602620006 0.302560419 1.12867379
v -0.566745698 -0.327696055 0.00214571296
v -0.425385326 -0.438600332 0.000456917885
v -0.414674371 -0.440096736 0.607665539
v -0.00578941731 -0.445389092 -0.000241982358
v -0.234841645 -0.328996688 -0.933810472
v -0.334602058 -0.437662154 -0.65087688
v -0.444889814 -0.326436639 -0.790106595
v -0.422215074 -0.437461883 -0.442625076
v -0.562479377 -0.326168001 -0.510578692
v -0.425385326 -0.438600332 0.000456917885
v -0.566745698 -0.327696055 0.00214571296
v 0.545253873 -0.343968183 -0.533432245
v 0.403074741 -0.450723499 -0.45965603
v 0.320158333 -0.448262155 -0.650938869
v 0.433964759 -0.340664566 -0.790189743
v 0.243723556 -0.336822212 -0.920530856
v -0.0140922796 -0.441969931 -0.801514924
v -0.0146825071 -0.332218856 -0.992297173
v 0.178428888 -0.445399463 -0.748067319
v 0.433964759 -0.340664566 -0.790189743
v 0.556677341 0.0125773465 -0.934156299
v 0.315793365 0.0174426641 -1.09920883
v 0.697591484 0.00839438196 -0.609067738
v 0.545253873 -0.343968183 -0.533432245
v 0.602495313 0.311286241 -0.983571887
v 0.753788948 0.306795031 -0.634510159
v 0.343869507 0.316509902 -1.16078067
v -0.0113976402 0.0232711732 -1.19005024
v -0.00740766944 0.322767586 -1.25832868
v 0.373900414 0.414095879 -1.23772585
v -0.00688221259 0.420879126 -1.34345949
v 0.654251873 0.408433378 -1.04562187
v 0.818251312 0.403565049 -0.667269945
v 0.833853066 0.400762588 0.0083209211
v 0.768184781 0.30420962 0.00730690779
v 0.710996151 0.00598629937 0.00517670438
v 0.555848897 -0.345869929 0.00203940202
v 0.403074741 -0.450723499 -0.45965603
v 0.410969943 -0.452140212 0.000377719989
v -0.552380383 -0.329704076 0.686701357
v -0.334545732 -0.442444652 0.78727895
v -0.444833487 -0.332855523 0.92779547
v -0.180569306 -0.445557088 0.893204927
v -0.238154024 -0.337033272 1.06997561
v -0.00578941731 -0.445389092 -0.000241982358
v -0.414674371 -0.440096736 0.607665539
v -0.0140359541 -0.448514462 0.937866092
v -0.0146261835 -0.341002673 1.1299094
v 0.193502769 -0.451522321 0.877671719
v 0.320256144 -0.453045338 0.787216961
v 0.400921851 -0.453295082 0.606650889
v 0.410969943 -0.452140212 0.000377719989
v 0.433964759 -0.340664566 -0.790189743
v 0.320158333 -0.448262155 -0.650938869
v 0.178428888 -0.445399463 -0.748067319
v -0.00578941731 -0.445389092 -0.000241982358
v 0.403074741 -0.450723499 -0.45965603
v 0.410969943 -0.452140212 0.000377719989
v -0.0140922796 -0.441969931 -0.801514924
v -0.178113744 -0.439569324 -0.757950425
v -0.0146825071 -0.332218856 -0.992297173
v -0.334602058 -0.437662154 -0.65087688
v -0.422215074 -0.437461883 -0.442625076
v -0.425385326 -0.438600332 0.000456917885
v -0.890763521 0.456937701 0.888566852
v -0.799295247 0.424586862 0.836692154
v -0.640805244 0.419942617 1.19199336
v -0.592211187 0.321903706 1.12878692
v -0.738420069 0.326188087 0.801018357
v -0.311232388 0.316224158 1.32206774
v -0.336226076 0.413785994 1.40151656
v -0.00735133141 0.310827881 1.40353644
v -0.00682587689 0.407936573 1.48981392
v 0.728645623 0.438940734 -1.13766181
v 0.373900414 0.414095879 -1.23772585
v 0.41630134 0.445249438 -1.35169113
v 0.654251873 0.408433378 -1.04562187
v 0.911356032 0.433517128 -0.716167808
v 0.818251312 0.403565049 -0.667269945
v 0.928737342 0.430394977 0.00915832818
v 0.833853066 0.400762588 0.0083209211
v 0.818251312 0.403565049 -0.667269945
v 0.911356032 0.433517128 -0.716167808
vt 0.924316406 0.352050781
vt 0.934082031 0.875488281
vt 0.972167969 0.874023438
vt 0.890625 0.373535156
vt 0.829589844 0.171386719
vt 0.803222656 0.206542969
vt 0.701660156 0.0729980469
vt 0.684570312 0.115112305
vt 0.482666016 0.0144882202
vt 0.684570312 0.115112305
vt 0.701660156 0.0729980469
vt 0.483642578 0.0614624023
vt 0.308105469 0.059753418
vt 0.322998047 0.102966309
vt 0.151855469 0.176635742
vt 0.178833008 0.211303711
vt 0.0596008301 0.356689453
vt 0.0934448242 0.377685547
vt 0.0130767822 0.879882812
vt 0.0511169434 0.880859375
vt 0.12512207 0.397949219
vt 0.0870361328 0.881835938
vt 0.204833984 0.244873047
vt 0.336914062 0.143432617
vt 0.484863281 0.106384277
vt 0.668457031 0.154296875
vt 0.777832031 0.240722656
vt 0.803222656 0.206542969
vt 0.858886719 0.394042969
vt 0.890625 0.373535156
vt 0.8984375 0.876953125
vt 0.934082031 0.875488281
vt 0.291503906 0.0630493164
vt 0.497802734 0.0552368164
vt 0.498291016 0.00832366943
vt 0.307861328 0.10534668
vt 0.146240234 0.174804688
vt 0.496826172 0.100097656
vt 0.645019531 0.135620117
vt 0.323486328 0.14465332
vt 0.173828125 0.208740234
vt 0.0501403809 0.371582031
vt 0.0850830078 0.389648438
vt 0.0130767822 0.892089844
vt 0.0511169434 0.890625
vt 0.938964844 0.385009766
vt 0.934082031 0.885253906
vt 0.972167969 0.88671875
vt 0.903808594 0.401855469
vt 0.8984375 0.884277344
vt 0.8359375 0.171875
vt 0.87109375 0.418212891
vt 0.80859375 0.206054688
vt 0.673828125 0.0518188477
vt 0.782226562 0.239379883
vt 0.659179688 0.0950927734
vt 0.498291016 0.00832366943
vt 0.645019531 0.135620117
vt 0.497802734 0.0552368164
vt 0.234985352 0.283203125
vt 0.301757812 0.3671875
vt 0.389892578 0.300048828
vt 0.353027344 0.190307617
vt 0.487548828 0.273925781
vt 0.485595703 0.158203125
vt 0.489746094 0.394775391
vt 0.428710938 0.415283203
vt 0.609375 0.307861328
vt 0.565429688 0.420898438
vt 0.546386719 0.469482422
vt 0.490478516 0.451660156
vt 0.581054688 0.492919922
vt 0.61328125 0.452636719
vt 0.650390625 0.200195312
vt 0.484863281 0.106384277
vt 0.668457031 0.154296875
vt 0.681640625 0.364990234
vt 0.64453125 0.518066406
vt 0.748046875 0.279541016
vt 0.777832031 0.240722656
vt 0.735839844 0.466552734
vt 0.821777344 0.416503906
vt 0.162475586 0.419921875
vt 0.301757812 0.3671875
vt 0.234985352 0.283203125
vt 0.248779297 0.46875
vt 0.370849609 0.452880859
vt 0.340576172 0.518554688
vt 0.12902832 0.8828125
vt 0.0870361328 0.881835938
vt 0.12512207 0.397949219
vt 0.225952148 0.884765625
vt 0.328125 0.886230469
vt 0.382324219 0.541015625
vt 0.403808594 0.493164062
vt 0.301757812 0.3671875
vt 0.370849609 0.452880859
vt 0.428710938 0.415283203
vt 0.389892578 0.300048828
vt 0.683105469 0.359863281
vt 0.612304688 0.445556641
vt 0.643554688 0.522460938
vt 0.740722656 0.478271484
vt 0.751464844 0.277099609
vt 0.657226562 0.879882812
vt 0.759277344 0.881347656
vt 0.832519531 0.436523438
vt 0.856445312 0.883300781
vt 0.87109375 0.418212891
vt 0.8984375 0.884277344
vt 0.381591797 0.298583984
vt 0.424316406 0.412597656
vt 0.494384766 0.388427734
vt 0.495361328 0.267333984
vt 0.554199219 0.407958984
vt 0.537597656 0.458251953
vt 0.579589844 0.486083984
vt 0.592773438 0.292236328
vt 0.612304688 0.445556641
vt 0.496337891 0.151855469
vt 0.683105469 0.359863281
vt 0.629394531 0.182495117
vt 0.496826172 0.100097656
vt 0.645019531 0.135620117
vt 0.751464844 0.277099609
vt 0.782226562 0.239379883
vt 0.832519531 0.436523438
vt 0.87109375 0.418212891
vt 0.681640625 0.364990234
vt 0.64453125 0.518066406
vt 0.735839844 0.466552734
vt 0.657714844 0.884765625
vt 0.759765625 0.882324219
vt 0.612792969 0.884765625
vt 0.603027344 0.540527344
vt 0.61328125 0.452636719
vt 0.581054688 0.492919922
vt 0.821777344 0.416503906
vt 0.856445312 0.87890625
vt 0.858886719 0.394042969
vt 0.8984375 0.876953125
vt 0.777832031 0.240722656
vt 0.748046875 0.279541016
vt 0.328125 0.886230469
vt 0.372802734 0.885742188
vt 0.382324219 0.541015625
vt 0.492919922 0.885253906
vt 0.554199219 0.407958984
vt 0.579589844 0.486083984
vt 0.612304688 0.445556641
vt 0.602539062 0.541992188
vt 0.643554688 0.522460938
vt 0.612304688 0.880371094
vt 0.657226562 0.879882812
vt 0.343017578 0.518066406
vt 0.383544922 0.5390625
vt 0.405029297 0.487548828
vt 0.372070312 0.447509766
vt 0.424316406 0.412597656
vt 0.493896484 0.4453125
vt 0.494384766 0.388427734
vt 0.442871094 0.461669922
vt 0.372070312 0.447509766
vt 0.300537109 0.361816406
vt 0.381591797 0.298583984
vt 0.246582031 0.470947266
vt 0.343017578 0.518066406
vt 0.231445312 0.279296875
vt 0.155639648 0.426757812
vt 0.341064453 0.190673828
vt 0.495361328 0.267333984
vt 0.496337891 0.151855469
vt 0.323486328 0.14465332
vt 0.496826172 0.100097656
vt 0.200439453 0.241699219
vt 0.117431641 0.407226562
vt 0.087097168 0.889160156
vt 0.12902832 0.887207031
vt 0.225708008 0.884277344
vt 0.327880859 0.881835938
vt 0.383544922 0.5390625
vt 0.372802734 0.881347656
vt 0.340576172 0.518554688
vt 0.403808594 0.493164062
vt 0.370849609 0.452880859
vt 0.445556641 0.465087891
vt 0.428710938 0.415283203
vt 0.492919922 0.885253906
vt 0.382324219 0.541015625
vt 0.490478516 0.451660156
vt 0.489746094 0.394775391
vt 0.546386719 0.469482422
vt 0.581054688 0.492919922
vt 0.603027344 0.540527344
vt 0.612792969 0.884765625
vt 0.372070312 0.447509766
vt 0.405029297 0.487548828
vt 0.442871094 0.461669922
vt 0.4921875 0.880859375
vt 0.383544922 0.5390625
vt 0.372802734 0.881347656
vt 0.493896484 0.4453125
vt 0.537597656 0.458251953
vt 0.494384766 0.388427734
vt 0.579589844 0.486083984
vt 0.602539062 0.541992188
vt 0.612304688 0.880371094
vt 0.0934448242 0.377685547
vt 0.12512207 0.397949219
vt 0.204833984 0.244873047
vt 0.234985352 0.283203125
vt 0.162475586 0.419921875
vt 0.353027344 0.190307617
vt 0.336914062 0.143432617
vt 0.485595703 0.158203125
vt 0.484863281 0.106384277
vt 0.173828125 0.208740234
vt 0.323486328 0.14465332
vt 0.307861328 0.10534668
vt 0.200439453 0.241699219
vt 0.0850830078 0.389648438
vt 0.117431641 0.407226562
vt 0.0511169434 0.890625
vt 0.087097168 0.889160156
vt 0.117431641 0.407226562
vt 0.0850830078 0.389648438
vn 0.55859375 0.822265625 0.108154297
vn 0.193725586 0.980957031 0.0040473938
vn 0.593261719 0.8046875 0.0047492981
vn 0.258789062 0.965332031 0.0294799805
vn 0.400390625 0.857421875 0.323974609
vn 0.197143555 0.972167969 0.127685547
vn 0.209594727 0.869628906 0.447021484
vn 0.0908813477 0.981933594 0.165771484
vn 0.031829834 0.879882812 0.474121094
vn 0.0908813477 0.981933594 0.165771484
vn 0.209594727 0.869628906 0.447021484
vn 0.0253753662 0.979003906 0.201904297
vn -0.185546875 0.876953125 0.443359375
vn -0.064453125 0.983886719 0.166992188
vn -0.359619141 0.870605469 0.335205078
vn -0.157958984 0.978515625 0.130859375
vn -0.531738281 0.83984375 0.108398438
vn -0.227905273 0.973144531 0.0296020508
vn -0.566894531 0.823730469 0.00917816162
vn -0.16003418 0.987304688 0.00545883179
vn 0.5703125 0.816894531 -0.0845336914
vn 0.634765625 0.772460938 -0.00361061096
vn 0.400390625 0.859863281 -0.316650391
vn 0.223754883 0.8671875 -0.444580078
vn -0.00472640991 0.885742188 -0.463867188
vn -0.190551758 0.872070312 -0.450927734
vn -0.384033203 0.871582031 -0.304443359
vn 0.197143555 0.972167969 0.127685547
vn -0.543457031 0.834960938 -0.0844116211
vn 0.258789062 0.965332031 0.0294799805
vn -0.608886719 0.79296875 0.000961303711
vn 0.193725586 0.980957031 0.0040473938
vn 0.208862305 0.875 -0.437011719
vn 0.022354126 0.981933594 -0.188720703
vn 0.0258331299 0.885742188 -0.463623047
vn 0.0915527344 0.983886719 -0.154296875
vn 0.396484375 0.861328125 -0.317382812
vn 0.00155162811 0.879882812 0.475341797
vn 0.223754883 0.862304688 0.454589844
vn -0.190307617 0.866699219 0.461181641
vn 0.197875977 0.973144531 -0.118469238
vn 0.555175781 0.824707031 -0.108642578
vn 0.247558594 0.96875 -0.023147583
vn 0.593261719 0.8046875 0.0047492981
vn 0.193725586 0.980957031 0.0040473938
vn -0.527832031 0.842285156 -0.10723877
vn -0.16003418 0.987304688 0.00545883179
vn -0.566894531 0.823730469 0.00917816162
vn -0.209960938 0.977539062 -0.0229187012
vn 0.634765625 0.772460938 -0.00361061096
vn -0.368896484 0.874023438 -0.316894531
vn 0.572753906 0.813476562 0.101989746
vn -0.16809082 0.978515625 -0.118103027
vn -0.185546875 0.881835938 -0.433105469
vn 0.408203125 0.856445312 0.315673828
vn -0.0646972656 0.985839844 -0.155761719
vn 0.0258331299 0.885742188 -0.463623047
vn 0.223754883 0.862304688 0.454589844
vn 0.022354126 0.981933594 -0.188720703
vn 0.728027344 0.350341797 -0.58984375
vn 0.73046875 0.329345703 -0.598144531
vn 0.401855469 0.354248047 -0.844238281
vn 0.400878906 0.368896484 -0.838378906
vn -0.0321960449 0.369140625 -0.928710938
vn -0.0319213867 0.393310547 -0.918945312
vn -0.0240936279 0.604980469 -0.795898438
vn 0.353515625 0.592773438 -0.723632812
vn -0.377441406 0.365966797 -0.850585938
vn -0.321777344 0.603515625 -0.729492188
vn -0.0724487305 0.979492188 -0.18737793
vn 0.00590133667 0.976074219 -0.217041016
vn -0.197021484 0.969238281 -0.148681641
vn -0.650390625 0.577148438 -0.494140625
vn -0.375976562 0.379638672 -0.845214844
vn -0.00472640991 0.885742188 -0.463867188
vn -0.190551758 0.872070312 -0.450927734
vn -0.739746094 0.350585938 -0.57421875
vn -0.843261719 0.526367188 -0.109436035
vn -0.736328125 0.371826172 -0.565429688
vn -0.384033203 0.871582031 -0.304443359
vn -0.939941406 0.312011719 -0.136962891
vn -0.935546875 0.326416016 -0.13671875
vn 0.9453125 0.295654297 -0.136962891
vn 0.73046875 0.329345703 -0.598144531
vn 0.728027344 0.350341797 -0.58984375
vn 0.949707031 0.28125 -0.137207031
vn 0.649414062 0.560058594 -0.514160156
vn 0.859863281 0.498535156 -0.109680176
vn 0.962890625 0.269042969 -0.00841522217
vn 0.634765625 0.772460938 -0.00361061096
vn 0.5703125 0.816894531 -0.0845336914
vn 0.961914062 0.273925781 -0.00804138184
vn 0.862792969 0.505859375 -0.00601577759
vn 0.377929688 0.925292969 -0.0344543457
vn 0.216430664 0.96484375 -0.150634766
vn 0.73046875 0.329345703 -0.598144531
vn 0.649414062 0.560058594 -0.514160156
vn 0.353515625 0.592773438 -0.723632812
vn 0.401855469 0.354248047 -0.844238281
vn 0.747558594 0.319824219 0.582519531
vn 0.666503906 0.549316406 0.504394531
vn 0.853515625 0.504394531 0.131103516
vn 0.945800781 0.283203125 0.157836914
vn 0.744140625 0.342285156 0.573242188
vn 0.862792969 0.505859375 -0.00601577759
vn 0.961914062 0.273925781 -0.00804138184
vn 0.942382812 0.294677734 0.157226562
vn 0.962890625 0.269042969 -0.00841522217
vn 0.572753906 0.813476562 0.101989746
vn 0.634765625 0.772460938 -0.00361061096
vn -0.377197266 0.356201172 0.854980469
vn -0.322265625 0.595214844 0.736328125
vn -0.0130310059 0.596191406 0.802734375
vn -0.0196075439 0.358642578 0.933105469
vn 0.353515625 0.583984375 0.73046875
vn 0.117675781 0.96875 0.217407227
vn 0.240600586 0.955566406 0.169677734
vn 0.401855469 0.344238281 0.848632812
vn 0.666503906 0.549316406 0.504394531
vn -0.0193786621 0.382324219 0.923828125
vn 0.747558594 0.319824219 0.582519531
vn 0.400878906 0.359130859 0.842773438
vn 0.00155162811 0.879882812 0.475341797
vn 0.223754883 0.862304688 0.454589844
vn 0.744140625 0.342285156 0.573242188
vn 0.408203125 0.856445312 0.315673828
vn 0.942382812 0.294677734 0.157226562
vn 0.572753906 0.813476562 0.101989746
vn -0.739746094 0.350585938 -0.57421875
vn -0.843261719 0.526367188 -0.109436035
vn -0.939941406 0.312011719 -0.136962891
vn -0.846191406 0.532714844 -0.000537872314
vn -0.952636719 0.304443359 -0.00157356262
vn -0.294433594 0.955566406 0.0017786026
vn -0.347900391 0.937011719 -0.0343933105
vn -0.650390625 0.577148438 -0.494140625
vn -0.197021484 0.969238281 -0.148681641
vn -0.935546875 0.326416016 -0.13671875
vn -0.954101562 0.300048828 -0.00164985657
vn -0.543457031 0.834960938 -0.0844116211
vn -0.608886719 0.79296875 0.000961303711
vn -0.384033203 0.871582031 -0.304443359
vn -0.736328125 0.371826172 -0.565429688
vn 0.862792969 0.505859375 -0.00601577759
vn 0.322998047 0.946289062 -4.57763672E-05
vn 0.377929688 0.925292969 -0.0344543457
vn 0.0161743164 1 0.0029335022
vn 0.353515625 0.583984375 0.73046875
vn 0.240600586 0.955566406 0.169677734
vn 0.666503906 0.549316406 0.504394531
vn 0.352783203 0.934570312 0.0465393066
vn 0.853515625 0.504394531 0.131103516
vn 0.322998047 0.946289062 -4.57763672E-05
vn 0.862792969 0.505859375 -0.00601577759
vn -0.838378906 0.529296875 0.131225586
vn -0.330810547 0.942382812 0.0472412109
vn -0.208740234 0.962890625 0.170654297
vn -0.645996094 0.571289062 0.506347656
vn -0.322265625 0.595214844 0.736328125
vn 0.00849914551 0.969726562 0.244995117
vn -0.0130310059 0.596191406 0.802734375
vn -0.080871582 0.973144531 0.216186523
vn -0.645996094 0.571289062 0.506347656
vn -0.734863281 0.343994141 0.584472656
vn -0.377197266 0.356201172 0.854980469
vn -0.936523438 0.3125 0.158325195
vn -0.838378906 0.529296875 0.131225586
vn -0.730957031 0.366210938 0.575683594
vn -0.932617188 0.324951172 0.157348633
vn -0.375976562 0.369628906 0.849609375
vn -0.0196075439 0.358642578 0.933105469
vn -0.0193786621 0.382324219 0.923828125
vn -0.190307617 0.866699219 0.461181641
vn 0.00155162811 0.879882812 0.475341797
vn -0.379638672 0.869140625 0.316894531
vn -0.544921875 0.832519531 0.102050781
vn -0.608886719 0.79296875 0.000961303711
vn -0.954101562 0.300048828 -0.00164985657
vn -0.952636719 0.304443359 -0.00157356262
vn -0.846191406 0.532714844 -0.000537872314
vn -0.330810547 0.942382812 0.0472412109
vn -0.294433594 0.955566406 0.0017786026
vn 0.859863281 0.498535156 -0.109680176
vn 0.216430664 0.96484375 -0.150634766
vn 0.649414062 0.560058594 -0.514160156
vn 0.109985352 0.975585938 -0.190185547
vn 0.353515625 0.592773438 -0.723632812
vn 0.0161743164 1 0.0029335022
vn 0.377929688 0.925292969 -0.0344543457
vn 0.00590133667 0.976074219 -0.217041016
vn -0.0240936279 0.604980469 -0.795898438
vn -0.0724487305 0.979492188 -0.18737793
vn -0.197021484 0.969238281 -0.148681641
vn -0.347900391 0.937011719 -0.0343933105
vn -0.294433594 0.955566406 0.0017786026
vn -0.645996094 0.571289062 0.506347656
vn -0.208740234 0.962890625 0.170654297
vn -0.080871582 0.973144531 0.216186523
vn 0.0161743164 1 0.0029335022
vn -0.330810547 0.942382812 0.0472412109
vn -0.294433594 0.955566406 0.0017786026
vn 0.00849914551 0.969726562 0.244995117
vn 0.117675781 0.96875 0.217407227
vn -0.0130310059 0.596191406 0.802734375
vn 0.240600586 0.955566406 0.169677734
vn 0.352783203 0.934570312 0.0465393066
vn 0.322998047 0.946289062 -4.57763672E-05
vn -0.227905273 0.973144531 0.0296020508
vn 0.5703125 0.816894531 -0.0845336914
vn 0.400390625 0.859863281 -0.316650391
vn 0.728027344 0.350341797 -0.58984375
vn 0.9453125 0.295654297 -0.136962891
vn 0.400878906 0.368896484 -0.838378906
vn 0.223754883 0.8671875 -0.444580078
vn -0.0319213867 0.393310547 -0.918945312
vn -0.00472640991 0.885742188 -0.463867188
vn 0.197875977 0.973144531 -0.118469238
vn -0.190307617 0.866699219 0.461181641
vn 0.0915527344 0.983886719 -0.154296875
vn -0.379638672 0.869140625 0.316894531
vn 0.247558594 0.96875 -0.023147583
vn -0.544921875 0.832519531 0.102050781
vn 0.193725586 0.980957031 0.0040473938
vn -0.608886719 0.79296875 0.000961303711
vn -0.544921875 0.832519531 0.102050781
vn 0.247558594 0.96875 -0.023147583
g Exterior_Hole_0
f 3/3/3 2/2/2 1/1/1
f 2/2/2 4/4/4 1/1/1
f 1/1/1 4/4/4 5/5/5
f 4/4/4 6/6/6 5/5/5
f 5/5/5 6/6/6 7/7/7
f 6/6/6 8/8/8 7/7/7
f 11/11/11 10/10/10 9/9/9
f 10/10/10 12/12/12 9/9/9
f 9/9/9 12/12/12 13/13/13
f 12/12/12 14/14/14 13/13/13
f 13/13/13 14/14/14 15/15/15
f 14/14/14 16/16/16 15/15/15
f 15/15/15 16/16/16 17/17/17
f 16/16/16 18/18/18 17/17/17
f 17/17/17 18/18/18 19/19/19
f 18/18/18 20/20/20 19/19/19
f 18/18/18 21/21/21 20/20/20
f 21/21/21 22/22/22 20/20/20
f 16/16/16 23/23/23 18/18/18
f 24/24/24 23/23/23 16/16/16
f 14/14/14 24/24/24 16/16/16
f 25/25/25 24/24/24 14/14/14
f 12/12/12 25/25/25 14/14/14
f 26/26/26 25/25/25 12/12/12
f 10/10/10 26/26/26 12/12/12
f 27/27/27 26/26/26 10/10/10
f 28/28/28 27/27/27 10/10/10
f 29/29/29 27/27/27 28/28/28
f 30/30/30 29/29/29 28/28/28
f 31/31/31 29/29/29 30/30/30
f 32/32/32 31/31/31 30/30/30
f 35/35/35 34/34/34 33/33/33
f 34/34/34 36/36/36 33/33/33
f 33/33/33 36/36/36 37/37/37
f 34/34/34 38/38/38 36/36/36
f 39/39/39 38/38/38 34/34/34
f 38/38/38 40/40/40 36/36/36
f 36/36/36 41/41/41 37/37/37
f 37/37/37 41/41/41 42/42/42
f 41/41/41 43/43/43 42/42/42
f 42/42/42 43/43/43 44/44/44
f 43/43/43 45/45/45 44/44/44
f 48/48/48 47/47/47 46/46/46
f 47/47/47 49/49/49 46/46/46
f 47/47/47 50/50/50 49/49/49
f 46/46/46 49/49/49 51/51/51
f 50/50/50 52/52/52 49/49/49
f 49/49/49 53/53/53 51/51/51
f 49/49/49 52/52/52 53/53/53
f 51/51/51 53/53/53 54/54/54
f 52/52/52 55/55/55 53/53/53
f 53/53/53 56/56/56 54/54/54
f 53/53/53 55/55/55 56/56/56
f 54/54/54 56/56/56 57/57/57
f 55/55/55 58/58/58 56/56/56
f 56/56/56 59/59/59 57/57/57
f 56/56/56 58/58/58 59/59/59
f 62/62/62 61/61/61 60/60/60
f 63/63/63 62/62/62 60/60/60
f 64/64/64 62/62/62 63/63/63
f 65/65/65 64/64/64 63/63/63
f 64/64/64 66/66/66 62/62/62
f 66/66/66 67/67/67 62/62/62
f 68/68/68 64/64/64 65/65/65
f 69/69/69 66/66/66 64/64/64
f 68/68/68 69/69/69 64/64/64
f 69/69/69 70/70/70 66/66/66
f 70/70/70 71/71/71 66/66/66
f 72/72/72 70/70/70 69/69/69
f 73/73/73 72/72/72 69/69/69
f 73/73/73 69/69/69 68/68/68
f 74/74/74 68/68/68 65/65/65
f 74/74/74 65/65/65 75/75/75
f 76/76/76 74/74/74 75/75/75
f 77/77/77 73/73/73 68/68/68
f 77/77/77 68/68/68 74/74/74
f 78/78/78 73/73/73 77/77/77
f 79/79/79 74/74/74 76/76/76
f 79/79/79 77/77/77 74/74/74
f 80/80/80 79/79/79 76/76/76
f 81/81/81 77/77/77 79/79/79
f 82/82/82 81/81/81 79/79/79
f 85/85/85 84/84/84 83/83/83
f 84/84/84 86/86/86 83/83/83
f 84/84/84 87/87/87 86/86/86
f 87/87/87 88/88/88 86/86/86
f 83/83/83 86/86/86 89/89/89
f 83/83/83 89/89/89 90/90/90
f 91/91/91 83/83/83 90/90/90
f 86/86/86 92/92/92 89/89/89
f 86/86/86 88/88/88 92/92/92
f 88/88/88 93/93/93 92/92/92
f 88/88/88 94/94/94 93/93/93
f 95/95/95 94/94/94 88/88/88
f 98/98/98 97/97/97 96/96/96
f 99/99/99 98/98/98 96/96/96
f 102/102/102 101/101/101 100/100/100
f 103/103/103 102/102/102 100/100/100
f 103/103/103 100/100/100 104/104/104
f 105/105/105 102/102/102 103/103/103
f 106/106/106 105/105/105 103/103/103
f 107/107/107 103/103/103 104/104/104
f 106/106/106 103/103/103 107/107/107
f 108/108/108 106/106/106 107/107/107
f 108/108/108 107/107/107 109/109/109
f 110/110/110 108/108/108 109/109/109
f 113/113/113 112/112/112 111/111/111
f 114/114/114 113/113/113 111/111/111
f 115/115/115 113/113/113 114/114/114
f 115/115/115 116/116/116 113/113/113
f 117/117/117 116/116/116 115/115/115
f 118/118/118 115/115/115 114/114/114
f 119/119/119 115/115/115 118/118/118
f 118/118/118 114/114/114 120/120/120
f 121/121/121 119/119/119 118/118/118
f 122/122/122 118/118/118 120/120/120
f 121/121/121 118/118/118 122/122/122
f 122/122/122 120/120/120 123/123/123
f 124/124/124 122/122/122 123/123/123
f 125/125/125 121/121/121 122/122/122
f 125/125/125 122/122/122 124/124/124
f 126/126/126 125/125/125 124/124/124
f 127/127/127 125/125/125 126/126/126
f 128/128/128 127/127/127 126/126/126
f 131/131/131 130/130/130 129/129/129
f 132/132/132 130/130/130 131/131/131
f 133/133/133 132/132/132 131/131/131
f 132/132/132 134/134/134 130/130/130
f 134/134/134 135/135/135 130/130/130
f 130/130/130 135/135/135 136/136/136
f 135/135/135 137/137/137 136/136/136
f 133/133/133 131/131/131 138/138/138
f 139/139/139 133/133/133 138/138/138
f 139/139/139 138/138/138 140/140/140
f 141/141/141 139/139/139 140/140/140
f 140/140/140 138/138/138 142/142/142
f 138/138/138 143/143/143 142/142/142
f 146/146/146 145/145/145 144/144/144
f 146/146/146 147/147/147 145/145/145
f 150/150/150 149/149/149 148/148/148
f 151/151/151 149/149/149 150/150/150
f 152/152/152 151/151/151 150/150/150
f 153/153/153 151/151/151 152/152/152
f 154/154/154 153/153/153 152/152/152
f 157/157/157 156/156/156 155/155/155
f 158/158/158 157/157/157 155/155/155
f 161/161/161 160/160/160 159/159/159
f 160/160/160 162/162/162 159/159/159
f 159/159/159 162/162/162 163/163/163
f 159/159/159 163/163/163 164/164/164
f 165/165/165 159/159/159 164/164/164
f 164/164/164 163/163/163 166/166/166
f 163/163/163 167/167/167 166/166/166
f 165/165/165 164/164/164 168/168/168
f 164/164/164 166/166/166 169/169/169
f 168/168/168 164/164/164 169/169/169
f 170/170/170 165/165/165 168/168/168
f 171/171/171 165/165/165 170/170/170
f 172/172/172 171/171/171 170/170/170
f 172/172/172 170/170/170 173/173/173
f 174/174/174 172/172/172 173/173/173
f 173/173/173 170/170/170 175/175/175
f 170/170/170 168/168/168 175/175/175
f 175/175/175 168/168/168 176/176/176
f 168/168/168 169/169/169 176/176/176
f 176/176/176 169/169/169 177/177/177
f 169/169/169 178/178/178 177/177/177
f 169/169/169 166/166/166 178/178/178
f 166/166/166 179/179/179 178/178/178
f 166/166/166 167/167/167 179/179/179
f 167/167/167 180/180/180 179/179/179
f 167/167/167 181/181/181 180/180/180
f 181/181/181 182/182/182 180/180/180
f 185/185/185 184/184/184 183/183/183
f 186/186/186 184/184/184 185/185/185
f 187/187/187 186/186/186 185/185/185
f 186/186/186 188/188/188 184/184/184
f 184/184/184 188/188/188 189/189/189
f 190/190/190 186/186/186 187/187/187
f 190/190/190 188/188/188 186/186/186
f 191/191/191 190/190/190 187/187/187
f 192/192/192 188/188/188 190/190/190
f 193/193/193 188/188/188 192/192/192
f 194/194/194 188/188/188 193/193/193
f 195/195/195 188/188/188 194/194/194
f 198/198/198 197/197/197 196/196/196
f 198/198/198 199/199/199 197/197/197
f 197/197/197 199/199/199 200/200/200
f 200/200/200 199/199/199 201/201/201
f 202/202/202 199/199/199 198/198/198
f 203/203/203 199/199/199 202/202/202
f 203/203/203 202/202/202 204/204/204
f 205/205/205 199/199/199 203/203/203
f 206/206/206 199/199/199 205/205/205
f 207/207/207 199/199/199 206/206/206
f 210/210/210 209/209/209 208/208/208
f 210/210/210 211/211/211 209/209/209
f 211/211/211 212/212/212 209/209/209
f 213/213/213 211/211/211 210/210/210
f 214/214/214 213/213/213 210/210/210
f 215/215/215 213/213/213 214/214/214
f 216/216/216 215/215/215 214/214/214
f 219/219/219 218/218/218 217/217/217
f 218/218/218 220/220/220 217/217/217
f 217/217/217 220/220/220 221/221/221
f 220/220/220 222/222/222 221/221/221
f 225/225/225 224/224/224 223/223/223
f 226/226/226 225/225/225 223/223/223
