g IS4_P1_Antesala_Pared_4
v -26.8735523 4.99999952 -7.36504602
v -24.8343639 4.99999952 -7.36504602
v -24.8343639 8.0047617 -7.36504602
v -26.8735523 8.0047617 -7.36504602
v -28.8424015 4.99999952 -7.36504602
v -26.8735523 4.99999952 -7.36504602
v -26.8735523 8.0047617 -7.36504602
v -28.8424015 8.0047617 -7.36504602
vt 0.556152344 0.00419235229
vt 0.241333008 0.00419235229
vt 0.241333008 0.496826172
vt 0.556152344 0.496826172
vt 0.556152344 0.0041885376
vt 0.241333008 0.00419235229
vt 0.241333008 0.496826172
vt 0.556152344 0.496826172
vn -0 0 -1
vn -0 0 -1
vn -0 0 -1
vn -0 0 -1
vn -0 0 -1
vn -0 0 -1
vn -0 0 -1
vn -0 0 -1
g IS4_P1_Antesala_Pared_4_0
f 3/3/3 2/2/2 1/1/1
f 4/4/4 3/3/3 1/1/1
f 7/7/7 6/6/6 5/5/5
f 8/8/8 7/7/7 5/5/5
