g Gatehouse_Ceiling
v 1.94784057 0 1.92820549
v 1.94784057 0 0.0508764647
v 0.0573254377 0 0.0508715808
v 0.0573229976 0 1.92820549
v 1.94784057 0 0.0508764647
v 1.94784057 0 -1.92820549
v 0.0573254377 0 -1.92820549
v 0.0573254377 0 0.0508715808
v 0.0573254377 0 0.0508715808
v -1.94784057 0 0.0508715808
v -1.94783807 0 1.92820549
v 0.0573229976 0 1.92820549
v 0.0573254377 0 -1.92820549
v -1.94784057 0 -1.92820549
v -1.94784057 0 0.0508715808
v 0.0573254377 0 0.0508715808
vt 0.144897461 0.392578125
vt 0.00643920898 0.392578125
vt 0.00643920898 0.533203125
vt 0.144897461 0.533203125
vt 0.144897461 0.392578125
vt 0.00643920898 0.392578125
vt 0.00643920898 0.533203125
vt 0.144897461 0.533203125
vt 0.00643920898 0.392578125
vt 0.00643920898 0.533203125
vt 0.144897461 0.533203125
vt 0.144897461 0.392578125
vt 0.00643920898 0.392578125
vt 0.00643920898 0.533203125
vt 0.144897461 0.533203125
vt 0.144897461 0.392578125
vn -0 -1 0
vn -0 -1 0
vn -0 -1 0
vn -0 -1 0
vn -0 -1 0
vn -0 -1 0
vn -0 -1 0
vn -0 -1 0
vn -0 -1 0
vn -0 -1 0
vn -0 -1 0
vn -0 -1 0
vn -0 -1 0
vn -0 -1 0
vn -0 -1 0
vn -0 -1 0
g Gatehouse_Ceiling_0
f 3/3/3 2/2/2 1/1/1
f 4/4/4 3/3/3 1/1/1
f 7/7/7 6/6/6 5/5/5
f 8/8/8 7/7/7 5/5/5
f 11/11/11 10/10/10 9/9/9
f 12/12/12 11/11/11 9/9/9
f 15/15/15 14/14/14 13/13/13
f 16/16/16 15/15/15 13/13/13
