g IS4_MDL_EscenarioPB_Tapete_SoporteMetalico_1
v -0.0613296255 0.114782304 -0.0106884111
v -0.0180142 0.113535129 -0.0645165369
v -0.0177993551 0.129567847 -0.0647203922
v -0.0611147806 0.130815089 -0.0108861644
v 0.0284555256 0.130519986 0.0611914732
v 0.0717709586 0.12926884 0.00736212591
v 0.0715561137 0.113232084 0.00756110065
v 0.0282406826 0.11448323 0.0613892265
v 0.0515512303 0.128699303 -0.0602990054
v 0.0717709586 0.12926884 0.00736212591
v 0.0284555256 0.130519986 0.0611914732
v -0.0419595093 0.131388143 0.0559180342
v -0.0177993551 0.129567847 -0.0647203922
v -0.0611147806 0.130815089 -0.0108861644
v 0.0715561137 0.113232084 0.00756110065
v 0.0717709586 0.12926884 0.00736212591
v 0.0515512303 0.128699303 -0.0602990054
v 0.0513315052 0.112662554 -0.0601024702
v -0.0421792343 0.115359388 0.0561206713
v -0.0419595093 0.131388143 0.0559180342
v 0.0284555256 0.130519986 0.0611914732
v 0.0282406826 0.11448323 0.0613892265
v -0.0421792343 0.115359388 0.0561206713
v 0.0282406826 0.11448323 0.0613892265
v 0.0715561137 0.113232084 0.00756110065
v 0.0513315052 0.112662554 -0.0601024702
v -0.0180142 0.113535129 -0.0645165369
v -0.0613296255 0.114782304 -0.0106884111
v 0.0513315052 0.112662554 -0.0601024702
v 0.0515512303 0.128699303 -0.0602990054
v -0.0177993551 0.129567847 -0.0647203922
v -0.0180142 0.113535129 -0.0645165369
v -0.0613296255 0.114782304 -0.0106884111
v -0.0611147806 0.130815089 -0.0108861644
v -0.0419595093 0.131388143 0.0559180342
v -0.0421792343 0.115359388 0.0561206713
v 0.00755220652 0.125972643 0.0116150556
v -0.0119497459 0.126059383 -0.0024010574
v -0.0114663476 0.235243589 -0.00285393838
v 0.00805025361 0.235156611 0.0111646159
v 0.0179818943 0.234848231 -0.00266594999
v -0.00152982457 0.234939098 -0.0166845042
v -0.0020181057 0.125758871 -0.0162352864
v 0.0174887292 0.125672042 -0.00221917266
v -0.0299917385 0.244973123 -0.00821770728
v -0.0126382224 0.244453713 -0.0316906087
v 0.0367660746 0.244209036 0.00245856168
v 0.0194076747 0.244744316 0.0259290189
v -0.0020181057 0.125758871 -0.0162352864
v -0.00152982457 0.234939098 -0.0166845042
v -0.0114663476 0.235243589 -0.00285393838
v -0.0119497459 0.126059383 -0.0024010574
v 0.00755220652 0.125972643 0.0116150556
v 0.00805025361 0.235156611 0.0111646159
v 0.0179818943 0.234848231 -0.00266594999
v 0.0174887292 0.125672042 -0.00221917266
v -0.0119497459 0.126059383 -0.0024010574
v 0.00755220652 0.125972643 0.0116150556
v 0.0174887292 0.125672042 -0.00221917266
v -0.0020181057 0.125758871 -0.0162352864
v -0.0301186908 0.235427901 -0.00809807889
v -0.0299917385 0.244973123 -0.00821770728
v 0.0194076747 0.244744316 0.0259290189
v 0.0192807224 0.235195205 0.0260535311
v 0.0430307239 0.267482877 0.0447388366
v 0.0357455648 0.269682378 0.0394934714
v 0.0526303314 0.268027544 0.0156482588
v 0.0599106066 0.265816242 0.0208936185
v 0.0366342366 0.234663829 0.00257452833
v 0.0367660746 0.244209036 0.00245856168
v -0.0126382224 0.244453713 -0.0316906087
v -0.0127700586 0.234908506 -0.0315722004
v -0.0356362686 0.266111195 -0.0499730781
v -0.0284341201 0.26736027 -0.0443651676
v -0.0467593148 0.270136774 -0.0217223465
v -0.0539663434 0.268887699 -0.0273278151
v 0.0192807224 0.235195205 0.0260535311
v 0.0430307239 0.267482877 0.0447388366
v 0.0599106066 0.265816242 0.0208936185
v 0.0366342366 0.234663829 0.00257452833
v 0.0366342366 0.234663829 0.00257452833
v 0.0599106066 0.265816242 0.0208936185
v 0.0526303314 0.268027544 0.0156482588
v 0.0367660746 0.244209036 0.00245856168
v 0.0367660746 0.244209036 0.00245856168
v 0.0526303314 0.268027544 0.0156482588
v 0.0357455648 0.269682378 0.0394934714
v 0.0194076747 0.244744316 0.0259290189
v 0.0194076747 0.244744316 0.0259290189
v 0.0357455648 0.269682378 0.0394934714
v 0.0430307239 0.267482877 0.0447388366
v 0.0192807224 0.235195205 0.0260535311
v -0.0127700586 0.234908506 -0.0315722004
v -0.0356362686 0.266111195 -0.0499730781
v -0.0539663434 0.268887699 -0.0273278151
v -0.0301186908 0.235427901 -0.00809807889
v -0.0301186908 0.235427901 -0.00809807889
v -0.0539663434 0.268887699 -0.0273278151
v -0.0467593148 0.270136774 -0.0217223465
v -0.0299917385 0.244973123 -0.00821770728
v -0.0299917385 0.244973123 -0.00821770728
v -0.0467593148 0.270136774 -0.0217223465
v -0.0284341201 0.26736027 -0.0443651676
v -0.0126382224 0.244453713 -0.0316906087
v -0.0126382224 0.244453713 -0.0316906087
v -0.0284341201 0.26736027 -0.0443651676
v -0.0356362686 0.266111195 -0.0499730781
v -0.0127700586 0.234908506 -0.0315722004
v 0.0192807224 0.235195205 0.0260535311
v 0.0366342366 0.234663829 0.00257452833
v -0.0127700586 0.234908506 -0.0315722004
v -0.0301186908 0.235427901 -0.00809807889
vt 0.77734375 0.283203125
vt 0.70703125 0.283447266
vt 0.70703125 0.299804688
vt 0.77734375 0.299560547
vt 0.70703125 0.299560547
vt 0.77734375 0.299316406
vt 0.77734375 0.282958984
vt 0.70703125 0.283203125
vt 0.427490234 0.514160156
vt 0.478027344 0.484375
vt 0.478027344 0.43359375
vt 0.427490234 0.404052734
vt 0.377929688 0.484375
vt 0.377929688 0.43359375
vt 0.77734375 0.282958984
vt 0.77734375 0.299316406
vt 0.817871094 0.299072266
vt 0.817871094 0.282714844
vt 0.666015625 0.283447266
vt 0.666503906 0.299804688
vt 0.70703125 0.299560547
vt 0.70703125 0.283203125
vt 0 0
vt 0 0
vt 0 0
vt 0 0
vt 0 0
vt 0 0
vt 0.666015625 0.283691406
vt 0.666503906 0.300048828
vt 0.70703125 0.299804688
vt 0.70703125 0.283447266
vt 0.77734375 0.283203125
vt 0.77734375 0.299560547
vt 0.817871094 0.299316406
vt 0.817871094 0.282958984
vt 0.656738281 0.282226562
vt 0.656738281 0.308105469
vt 0.774414062 0.308105469
vt 0.774414062 0.282226562
vt 0.774414062 0.308349609
vt 0.774414062 0.282714844
vt 0.657226562 0.282714844
vt 0.657226562 0.308349609
vt 0.687011719 0.28125
vt 0.687011719 0.310058594
vt 0.74609375 0.310058594
vt 0.74609375 0.28125
vt 0.657226562 0.307861328
vt 0.774414062 0.307861328
vt 0.774414062 0.289550781
vt 0.657226562 0.289550781
vt 0.657226562 0.308349609
vt 0.774414062 0.308349609
vt 0.774414062 0.290039062
vt 0.657226562 0.290039062
vt 0.68359375 0.290283203
vt 0.657714844 0.290283203
vt 0.657714844 0.30859375
vt 0.68359375 0.30859375
vt 0.688964844 0.290527344
vt 0.688964844 0.299560547
vt 0.747558594 0.299560547
vt 0.747558594 0.290527344
vt 0.775878906 0.28125
vt 0.767089844 0.28125
vt 0.767089844 0.310058594
vt 0.775878906 0.310058594
vt 0.689453125 0.291259766
vt 0.689453125 0.300292969
vt 0.748046875 0.300292969
vt 0.748046875 0.291259766
vt 0.656738281 0.310058594
vt 0.666015625 0.310058594
vt 0.666015625 0.28125
vt 0.656738281 0.28125
vt 0.6875 0.28125
vt 0.657714844 0.28125
vt 0.657714844 0.310302734
vt 0.6875 0.310302734
vt 0.689453125 0.291259766
vt 0.658691406 0.291259766
vt 0.658691406 0.300292969
vt 0.689453125 0.300292969
vt 0.74609375 0.310058594
vt 0.767089844 0.310058594
vt 0.767089844 0.28125
vt 0.74609375 0.28125
vt 0.747558594 0.299560547
vt 0.775390625 0.299560547
vt 0.775390625 0.290527344
vt 0.747558594 0.290527344
vt 0.747070312 0.310302734
vt 0.776855469 0.310302734
vt 0.776855469 0.28125
vt 0.747070312 0.28125
vt 0.688964844 0.290527344
vt 0.657226562 0.290527344
vt 0.657226562 0.299560547
vt 0.688964844 0.299560547
vt 0.687011719 0.28125
vt 0.666015625 0.28125
vt 0.666015625 0.310058594
vt 0.687011719 0.310058594
vt 0.748046875 0.300292969
vt 0.774414062 0.300292969
vt 0.774414062 0.291259766
vt 0.748046875 0.291259766
vt 0.6875 0.28125
vt 0.6875 0.310302734
vt 0.747070312 0.310302734
vt 0.747070312 0.28125
vn -0.779296875 0.00282096863 -0.626953125
vn -0.779296875 0.00282096863 -0.626953125
vn -0.779296875 0.00282096863 -0.626953125
vn -0.779296875 0.00282096863 -0.626953125
vn 0.778808594 -0.00264358521 0.626953125
vn 0.778808594 -0.00264358521 0.626953125
vn 0.778808594 -0.00264358521 0.626953125
vn 0.778808594 -0.00264358521 0.626953125
vn 0.0133209229 1 -0.0124359131
vn 0.0133132935 1 -0.0124511719
vn 0.0133132935 1 -0.0124511719
vn 0.0133209229 1 -0.0124359131
vn 0.0133285522 1 -0.0124130249
vn 0.0133285522 1 -0.0124130249
vn 0.958007812 -0.0164794922 -0.286132812
vn 0.958007812 -0.0164794922 -0.286132812
vn 0.626953125 -0.0181732178 -0.778808594
vn 0.626953125 -0.0181732178 -0.778808594
vn -0.626953125 0.0183105469 0.778808594
vn -0.626464844 0.0183105469 0.778808594
vn -0.0744628906 0.0134506226 0.997070312
vn -0.0744628906 0.0134506226 0.997070312
vn -0.0133743286 -1 0.0124435425
vn -0.0133895874 -1 0.0124359131
vn -0.0133895874 -1 0.0124359131
vn -0.0133743286 -1 0.0124435425
vn -0.0133514404 -1 0.0124435425
vn -0.0133514404 -1 0.0124435425
vn 0.626953125 -0.0181732178 -0.778808594
vn 0.626953125 -0.0181732178 -0.778808594
vn 0.0634155273 -0.0133209229 -0.998046875
vn 0.0634155273 -0.0133209229 -0.998046875
vn -0.9609375 0.0166168213 0.275390625
vn -0.9609375 0.0166168213 0.275390625
vn -0.626464844 0.0183105469 0.778808594
vn -0.626953125 0.0183105469 0.778808594
vn -0.583496094 0.00603103638 0.812011719
vn -0.583496094 0.00603103638 0.812011719
vn -0.583496094 0.00603103638 0.812011719
vn -0.583496094 0.00603103638 0.812011719
vn 0.583496094 -0.00595855713 -0.812011719
vn 0.583496094 -0.00595855713 -0.812011719
vn 0.583496094 -0.00595855713 -0.812011719
vn 0.583496094 -0.00595855713 -0.812011719
vn 0.0134429932 1 -0.0125198364
vn 0.0134429932 1 -0.0125198364
vn 0.0134429932 1 -0.0125198364
vn 0.0134429932 1 -0.0125198364
vn -0.812011719 0.00115871429 -0.583496094
vn -0.812011719 0.00115871429 -0.583496094
vn -0.812011719 0.00115871429 -0.583496094
vn -0.812011719 0.00115871429 -0.583496094
vn 0.812011719 -0.00125598907 0.583496094
vn 0.812011719 -0.00125598907 0.583496094
vn 0.812011719 -0.00125598907 0.583496094
vn 0.812011719 -0.00125598907 0.583496094
vn -0.0132293701 -1 0.0122146606
vn -0.0132293701 -1 0.0122146606
vn -0.0132293701 -1 0.0122146606
vn -0.0132293701 -1 0.0122146606
vn -0.568359375 0.0177001953 0.822265625
vn -0.568359375 0.0177001953 0.822265625
vn -0.568359375 0.0177001953 0.822265625
vn -0.568359375 0.0177001953 0.822265625
vn 0.22668457 0.969726562 0.092956543
vn 0.22668457 0.969726562 0.092956543
vn 0.22668457 0.969726562 0.092956543
vn 0.22668457 0.969726562 0.092956543
vn 0.568359375 -0.0180511475 -0.822753906
vn 0.568359375 -0.0180511475 -0.822753906
vn 0.568359375 -0.0180511475 -0.822753906
vn 0.568359375 -0.0180511475 -0.822753906
vn -0.0471496582 0.986328125 -0.159057617
vn -0.0471496582 0.986328125 -0.159057617
vn -0.0471496582 0.986328125 -0.159057617
vn -0.0471496582 0.986328125 -0.159057617
vn 0.573730469 -0.686035156 0.447021484
vn 0.573730469 -0.686035156 0.447021484
vn 0.573730469 -0.686035156 0.447021484
vn 0.573730469 -0.686035156 0.447021484
vn 0.614746094 0.0140838623 -0.788574219
vn 0.614746094 0.0140838623 -0.788574219
vn 0.614746094 0.0140838623 -0.788574219
vn 0.614746094 0.0140838623 -0.788574219
vn -0.600097656 0.651367188 -0.464599609
vn -0.600097656 0.651367188 -0.464599609
vn -0.600097656 0.651367188 -0.464599609
vn -0.600097656 0.651367188 -0.464599609
vn -0.614746094 -0.0139923096 0.788574219
vn -0.614746094 -0.0139923096 0.788574219
vn -0.614746094 -0.0139923096 0.788574219
vn -0.614746094 -0.0139923096 0.788574219
vn -0.603027344 -0.679199219 -0.418212891
vn -0.603027344 -0.679199219 -0.418212891
vn -0.603027344 -0.679199219 -0.418212891
vn -0.603027344 -0.679199219 -0.418212891
vn -0.613769531 0.015625 0.789550781
vn -0.613769531 0.015625 0.789550781
vn -0.613769531 0.015625 0.789550781
vn -0.613769531 0.015625 0.789550781
vn 0.619628906 0.655273438 0.432617188
vn 0.619628906 0.655273438 0.432617188
vn 0.619628906 0.655273438 0.432617188
vn 0.619628906 0.655273438 0.432617188
vn 0.61328125 -0.0157165527 -0.789550781
vn 0.61328125 -0.0157165527 -0.789550781
vn 0.61328125 -0.0157165527 -0.789550781
vn 0.61328125 -0.0157165527 -0.789550781
vn -0.0134353638 -1 0.0124511719
vn -0.0134353638 -1 0.0124511719
vn -0.0134353638 -1 0.0124511719
vn -0.0134353638 -1 0.0124511719
g IS4_MDL_EscenarioPB_Tapete_SoporteMetalico_1_0
f 3/3/3 2/2/2 1/1/1
f 4/4/4 3/3/3 1/1/1
f 7/7/7 6/6/6 5/5/5
f 8/8/8 7/7/7 5/5/5
f 11/11/11 10/10/10 9/9/9
f 12/12/12 11/11/11 9/9/9
f 12/12/12 9/9/9 13/13/13
f 14/14/14 12/12/12 13/13/13
f 17/17/17 16/16/16 15/15/15
f 18/18/18 17/17/17 15/15/15
f 21/21/21 20/20/20 19/19/19
f 22/22/22 21/21/21 19/19/19
f 25/25/25 24/24/24 23/23/23
f 26/26/26 25/25/25 23/23/23
f 26/26/26 23/23/23 27/27/27
f 23/23/23 28/28/28 27/27/27
f 31/31/31 30/30/30 29/29/29
f 32/32/32 31/31/31 29/29/29
f 35/35/35 34/34/34 33/33/33
f 36/36/36 35/35/35 33/33/33
f 39/39/39 38/38/38 37/37/37
f 40/40/40 39/39/39 37/37/37
f 43/43/43 42/42/42 41/41/41
f 44/44/44 43/43/43 41/41/41
f 47/47/47 46/46/46 45/45/45
f 48/48/48 47/47/47 45/45/45
f 51/51/51 50/50/50 49/49/49
f 52/52/52 51/51/51 49/49/49
f 55/55/55 54/54/54 53/53/53
f 56/56/56 55/55/55 53/53/53
f 59/59/59 58/58/58 57/57/57
f 60/60/60 59/59/59 57/57/57
f 63/63/63 62/62/62 61/61/61
f 64/64/64 63/63/63 61/61/61
f 67/67/67 66/66/66 65/65/65
f 68/68/68 67/67/67 65/65/65
f 71/71/71 70/70/70 69/69/69
f 72/72/72 71/71/71 69/69/69
f 75/75/75 74/74/74 73/73/73
f 76/76/76 75/75/75 73/73/73
f 79/79/79 78/78/78 77/77/77
f 80/80/80 79/79/79 77/77/77
f 83/83/83 82/82/82 81/81/81
f 84/84/84 83/83/83 81/81/81
f 87/87/87 86/86/86 85/85/85
f 88/88/88 87/87/87 85/85/85
f 91/91/91 90/90/90 89/89/89
f 92/92/92 91/91/91 89/89/89
f 95/95/95 94/94/94 93/93/93
f 96/96/96 95/95/95 93/93/93
f 99/99/99 98/98/98 97/97/97
f 100/100/100 99/99/99 97/97/97
f 103/103/103 102/102/102 101/101/101
f 104/104/104 103/103/103 101/101/101
f 107/107/107 106/106/106 105/105/105
f 108/108/108 107/107/107 105/105/105
f 111/111/111 110/110/110 109/109/109
f 112/112/112 111/111/111 109/109/109
