g IS4_MDL_EscenarioPB_Pared_Staff_3
v 2.4414062E-06 -2.35238123 0.0972764567
v -2.4414062E-06 -1.35238385 -1.87217116
v 2.4414062E-06 -2.35238099 -1.87217116
v -2.4414062E-06 -1.35238385 0.0972764567
v 2.4414062E-06 -2.35238099 1.87217021
v -2.4414062E-06 -1.35238385 1.87217081
v 2.4414062E-06 2.35238099 1.87217021
v 2.4414062E-06 2.35238099 0.0972764567
v 2.4414062E-06 2.35238099 -1.87217116
vt 0.240966797 0.0181121826
vt 0.382324219 0.134033203
vt 0.382324219 0.0181121826
vt 0.240966797 0.134033203
vt 0.0335083008 0.0181121826
vt 0.0335083008 0.134033203
vt 0.0335083008 0.501464844
vt 0.240966797 0.501464844
vt 0.382324219 0.501464844
vn 1 6.31809235E-06 0
vn 1 0 0
vn 1 6.31809235E-06 0
vn 1 0 0
vn 1 3.4570694E-06 0
vn 1 0 0
vn 1 -9.53674316E-07 0
vn 1 -1.7285347E-06 0
vn 1 -1.7285347E-06 0
g IS4_MDL_EscenarioPB_Pared_Staff_3_0
f 3/3/3 2/2/2 1/1/1
f 2/2/2 4/4/4 1/1/1
f 1/1/1 4/4/4 5/5/5
f 4/4/4 6/6/6 5/5/5
f 6/6/6 4/4/4 7/7/7
f 4/4/4 8/8/8 7/7/7
f 4/4/4 2/2/2 8/8/8
f 2/2/2 9/9/9 8/8/8
