g Beam_Wall_11
v 0.013800161 0.0848162845 1.26469767
v -0.0172935892 0.0734320059 0.645337284
v 0.0342152007 -0.0672344938 0.645337284
v 0.0653040707 -0.055850219 1.26469767
v 0.0653040707 -0.055850219 1.26469767
v 0.0342152007 -0.0672344938 0.645337284
v -0.115984991 -0.122229613 0.645337284
v -0.0848961249 -0.110845335 1.26469767
v -0.0848961249 -0.110845335 1.26469767
v -0.115984991 -0.122229613 0.645337284
v -0.167488903 0.0184368901 0.645337284
v -0.136400029 0.0298211668 1.26469767
v -0.136400029 0.0298211668 1.26469767
v -0.167488903 0.0184368901 0.645337284
v -0.0172935892 0.0734320059 0.645337284
v 0.013800161 0.0848162845 1.26469767
v -0.0172935892 0.0734320059 0.645337284
v -0.0172935892 0.0734320059 -0.572469413
v 0.0342152007 -0.0672344938 -0.572469413
v 0.0342152007 -0.0672344938 0.645337284
v 0.0342152007 -0.0672344938 0.645337284
v 0.0342152007 -0.0672344938 -0.572469413
v -0.115984991 -0.122229613 -0.572469413
v -0.115984991 -0.122229613 0.645337284
v -0.115984991 -0.122229613 0.645337284
v -0.115984991 -0.122229613 -0.572469413
v -0.167488903 0.0184368901 -0.572469413
v -0.167488903 0.0184368901 0.645337284
v -0.167488903 0.0184368901 0.645337284
v -0.167488903 0.0184368901 -0.572469413
v -0.0172935892 0.0734320059 -0.572469413
v -0.0172935892 0.0734320059 0.645337284
v -0.0172935892 0.0734320059 -0.572469413
v 0.115987659 0.122230835 -1.26469719
v 0.16749157 -0.0184381101 -1.26469719
v 0.0342152007 -0.0672344938 -0.572469413
v 0.0342152007 -0.0672344938 -0.572469413
v 0.16749157 -0.0184381101 -1.26469719
v 0.0172913708 -0.0734332278 -1.26469719
v -0.115984991 -0.122229613 -0.572469413
v -0.115984991 -0.122229613 -0.572469413
v 0.0172913708 -0.0734332278 -1.26469719
v -0.0342174172 0.0672357157 -1.26469719
v -0.167488903 0.0184368901 -0.572469413
v -0.167488903 0.0184368901 -0.572469413
v -0.0342174172 0.0672357157 -1.26469719
v 0.115987659 0.122230835 -1.26469719
v -0.0172935892 0.0734320059 -0.572469413
vt 0.0155563354 0.58984375
vt 0.0155563354 0.739257812
vt 0.061706543 0.739257812
vt 0.061706543 0.58984375
vt 0.0155563354 0.58984375
vt 0.0155563354 0.739257812
vt 0.061706543 0.739257812
vt 0.061706543 0.58984375
vt 0.0155563354 0.58984375
vt 0.0155563354 0.739257812
vt 0.061706543 0.739257812
vt 0.061706543 0.58984375
vt 0.0155563354 0.58984375
vt 0.0155563354 0.739257812
vt 0.061706543 0.739257812
vt 0.061706543 0.58984375
vt 0.0155563354 0.468994141
vt 0.0155563354 0.932128906
vt 0.061706543 0.932128906
vt 0.061706543 0.468994141
vt 0.0155563354 0.468994141
vt 0.0155563354 0.932128906
vt 0.061706543 0.932128906
vt 0.061706543 0.468994141
vt 0.0155563354 0.468994141
vt 0.0155563354 0.932128906
vt 0.061706543 0.932128906
vt 0.061706543 0.468994141
vt 0.0155563354 0.468994141
vt 0.0155563354 0.932128906
vt 0.061706543 0.932128906
vt 0.061706543 0.468994141
vt 0.0155563354 0.468994141
vt 0.0155563354 0.706542969
vt 0.061706543 0.706542969
vt 0.061706543 0.468994141
vt 0.0155563354 0.468994141
vt 0.0155563354 0.706542969
vt 0.061706543 0.706542969
vt 0.061706543 0.468994141
vt 0.0155563354 0.468994141
vt 0.0155563354 0.706542969
vt 0.061706543 0.706542969
vt 0.061706543 0.468994141
vt 0.0155563354 0.468994141
vt 0.0155563354 0.706542969
vt 0.061706543 0.706542969
vt 0.061706543 0.468994141
vn 0.9375 0.343261719 -0.0533752441
vn 0.9375 0.343261719 -0.0533752441
vn 0.9375 0.343261719 -0.0533752441
vn 0.9375 0.343261719 -0.0533752441
vn 0.34375 -0.938964844 1.7285347E-06
vn 0.34375 -0.938964844 1.7285347E-06
vn 0.34375 -0.938964844 1.7285347E-06
vn 0.34375 -0.938964844 1.7285347E-06
vn -0.9375 -0.343261719 0.0533752441
vn -0.9375 -0.343261719 0.0533752441
vn -0.9375 -0.343261719 0.0533752441
vn -0.9375 -0.343261719 0.0533752441
vn -0.34375 0.938964844 -2.38418579E-07
vn -0.34375 0.938964844 -2.38418579E-07
vn -0.34375 0.938964844 -2.38418579E-07
vn -0.34375 0.938964844 -2.38418579E-07
vn 0.938964844 0.34375 0
vn 0.938964844 0.34375 0
vn 0.938964844 0.34375 0
vn 0.938964844 0.34375 0
vn 0.34375 -0.938964844 0
vn 0.34375 -0.938964844 0
vn 0.34375 -0.938964844 0
vn 0.34375 -0.938964844 0
vn -0.938964844 -0.34375 0
vn -0.938964844 -0.34375 0
vn -0.938964844 -0.34375 0
vn -0.938964844 -0.34375 0
vn -0.34375 0.938964844 0
vn -0.34375 0.938964844 0
vn -0.34375 0.938964844 0
vn -0.34375 0.938964844 0
vn 0.919921875 0.336914062 0.200805664
vn 0.919921875 0.336914062 0.200805664
vn 0.919921875 0.336914062 0.200805664
vn 0.919921875 0.336914062 0.200805664
vn 0.34375 -0.938964844 1.78813934E-06
vn 0.34375 -0.938964844 1.78813934E-06
vn 0.34375 -0.938964844 1.78813934E-06
vn 0.34375 -0.938964844 1.78813934E-06
vn -0.919921875 -0.336914062 -0.200805664
vn -0.919921875 -0.336914062 -0.200805664
vn -0.919921875 -0.336914062 -0.200805664
vn -0.919921875 -0.336914062 -0.200805664
vn -0.34375 0.938964844 0
vn -0.34375 0.938964844 0
vn -0.34375 0.938964844 0
vn -0.34375 0.938964844 0
g Beam_Wall_11_0
f 3/3/3 2/2/2 1/1/1
f 4/4/4 3/3/3 1/1/1
f 7/7/7 6/6/6 5/5/5
f 8/8/8 7/7/7 5/5/5
f 11/11/11 10/10/10 9/9/9
f 12/12/12 11/11/11 9/9/9
f 15/15/15 14/14/14 13/13/13
f 16/16/16 15/15/15 13/13/13
f 19/19/19 18/18/18 17/17/17
f 20/20/20 19/19/19 17/17/17
f 23/23/23 22/22/22 21/21/21
f 24/24/24 23/23/23 21/21/21
f 27/27/27 26/26/26 25/25/25
f 28/28/28 27/27/27 25/25/25
f 31/31/31 30/30/30 29/29/29
f 32/32/32 31/31/31 29/29/29
f 35/35/35 34/34/34 33/33/33
f 36/36/36 35/35/35 33/33/33
f 39/39/39 38/38/38 37/37/37
f 40/40/40 39/39/39 37/37/37
f 43/43/43 42/42/42 41/41/41
f 44/44/44 43/43/43 41/41/41
f 47/47/47 46/46/46 45/45/45
f 48/48/48 47/47/47 45/45/45
