g Exterior_FrontGateHouse_Window_1_Glass
v -30.2266636 -4.57411385 47.8408699
v -30.2266636 -3.09119916 47.8408699
v -30.9854946 -3.09119916 47.4870262
v -30.9854946 -4.57411385 47.4870262
v -30.9940643 -4.57411385 47.5054092
v -30.9940643 -3.09119916 47.5054092
v -30.2352333 -3.09119916 47.8592567
v -30.2352333 -4.57411385 47.8592567
vt 0.838378906 0.402832031
vt 0.838378906 0.256835938
vt 0.752441406 0.256835938
vt 0.752441406 0.403076172
vt 0.752441406 0.256835938
vt 0.752441406 0.403076172
vt 0.838378906 0.402832031
vt 0.838378906 0.256835938
vn 0.422607422 0 -0.90625
vn 0.422607422 0 -0.90625
vn 0.422607422 0 -0.90625
vn 0.422607422 0 -0.90625
vn -0.422607422 0 0.90625
vn -0.422607422 0 0.90625
vn -0.422607422 0 0.90625
vn -0.422607422 0 0.90625
g Exterior_FrontGateHouse_Window_1_Glass_0
f 3/3/3 2/2/2 1/1/1
f 4/4/4 3/3/3 1/1/1
f 7/7/7 6/6/6 5/5/5
f 8/8/8 7/7/7 5/5/5
