g Corner_Column_Museum_5
v -0.0571578071 -0.37911883 0.0691425577
v -0.0571578071 0.0902464762 0.0691425577
v 0.435886592 0.0902464762 0.0691425577
v 0.435886592 -0.37911883 0.0691425577
v -0.0571578071 -0.37911883 -0.535450637
v -0.0571578071 0.0902464762 -0.535450637
v -0.0571578071 0.0902464762 0.0691425577
v -0.0571578071 -0.37911883 0.0691425577
v -0.0571578071 4.59887981 -0.535450637
v -0.0571578071 4.99244499 -0.535450637
v -0.0571578071 4.99244499 0.0691425577
v -0.0571578071 4.59887981 0.0691425577
v -0.0571578071 4.59887981 0.0691425577
v -0.0571578071 4.99244499 0.0691425577
v 0.435886592 4.99244499 0.0691425577
v 0.435886592 4.59887981 0.0691425577
v 3.95311531E-07 0.0902464762 -0.535450637
v 3.95311531E-07 4.59887981 -0.535450637
v 3.95311531E-07 4.59887981 9.88882292E-08
v 3.95311531E-07 0.0902464762 9.88882292E-08
v 3.95311531E-07 0.0902464762 9.88882292E-08
v 3.95311531E-07 4.59887981 9.88882292E-08
v 0.435886592 4.59887981 9.88882292E-08
v 0.435886592 0.0902464762 9.88882292E-08
v 0.435886592 -0.37911883 0.0691425577
v 0.435886592 -0.37911883 -0.168156952
v 0.153098539 -0.37911883 -0.168156952
v -0.0571578071 -0.37911883 0.0691425577
v 0.435886592 0.0902464762 9.88882292E-08
v 0.435886592 -0.37911883 0.0691425577
v 0.435886592 0.0902464762 0.0691425577
v 0.435886592 -0.37911883 -0.168156952
v 0.435886592 0.0902464762 -0.168156952
v 0.435886592 4.59887981 9.88882292E-08
v 0.435886592 4.59887981 -0.168156952
v 0.435886592 4.99244499 -0.168156952
v 0.435886592 4.99244499 0.0691425577
v 0.435886592 4.59887981 0.0691425577
v 0.435886592 0.0902464762 9.88882292E-08
v 0.435886592 0.0902464762 0.0691425577
v -0.0571578071 0.0902464762 0.0691425577
v 3.95311531E-07 0.0902464762 9.88882292E-08
v -0.0571578071 -0.37911883 0.0691425577
v 0.153098539 -0.37911883 -0.168156952
v 0.153098539 -0.37911883 -0.535450637
v -0.0571578071 -0.37911883 -0.535450637
v 3.95311531E-07 0.0902464762 9.88882292E-08
v -0.0571578071 0.0902464762 0.0691425577
v -0.0571578071 0.0902464762 -0.535450637
v 3.95311531E-07 0.0902464762 -0.535450637
v -0.0571578071 -0.37911883 -0.535450637
v 3.95311531E-07 0.0902464762 -0.535450637
v -0.0571578071 0.0902464762 -0.535450637
v 0.153098539 -0.37911883 -0.535450637
v 0.153098539 0.0902464762 -0.535450637
v 0.153098539 4.59887981 -0.535450637
v 3.95311531E-07 4.59887981 -0.535450637
v 0.153098539 4.99244499 -0.535450637
v -0.0571578071 4.99244499 -0.535450637
v -0.0571578071 4.59887981 -0.535450637
v 3.95311531E-07 4.59887981 -0.535450637
v -0.0571578071 4.59887981 -0.535450637
v -0.0571578071 4.59887981 0.0691425577
v 3.95311531E-07 4.59887981 9.88882292E-08
v -0.0571578071 4.99244499 -0.535450637
v 0.153098539 4.99244499 -0.535450637
v 0.153098539 4.99244499 -0.168156952
v -0.0571578071 4.99244499 0.0691425577
v 3.95311531E-07 4.59887981 9.88882292E-08
v -0.0571578071 4.59887981 0.0691425577
v 0.435886592 4.59887981 0.0691425577
v 0.435886592 4.59887981 9.88882292E-08
v 0.435886592 4.99244499 0.0691425577
v -0.0571578071 4.99244499 0.0691425577
v 0.153098539 4.99244499 -0.168156952
v 0.435886592 4.99244499 -0.168156952
vt 0.453857422 0.292724609
vt 0.453857422 0.334228516
vt 0.491210938 0.334228516
vt 0.491210938 0.292480469
vt 0.453857422 0.29296875
vt 0.453857422 0.334228516
vt 0.416503906 0.334228516
vt 0.416503906 0.29296875
vt 0.453857422 0.627441406
vt 0.453857422 0.655761719
vt 0.416503906 0.655761719
vt 0.416503906 0.627441406
vt 0.453857422 0.627441406
vt 0.453857422 0.655761719
vt 0.491210938 0.655761719
vt 0.491210938 0.627441406
vt 0.416503906 0.624023438
vt 0.416503906 0.339599609
vt 0.453857422 0.339599609
vt 0.453857422 0.624023438
vt 0.453857422 0.338134766
vt 0.453857422 0.623046875
vt 0.491210938 0.623046875
vt 0.491210938 0.338134766
vt 0.478515625 0.434326172
vt 0.491210938 0.422607422
vt 0.473388672 0.413330078
vt 0.453857422 0.418212891
vt 0.437744141 0.334228516
vt 0.433349609 0.29296875
vt 0.43359375 0.334228516
vt 0.453857422 0.29296875
vt 0.453857422 0.334228516
vt 0.438720703 0.627441406
vt 0.453857422 0.627441406
vt 0.453857422 0.655761719
vt 0.434570312 0.655761719
vt 0.434326172 0.627441406
vt 0.491210938 0.338134766
vt 0.491210938 0.334228516
vt 0.453857422 0.334228516
vt 0.453857422 0.338134766
vt 0.453857422 0.423339844
vt 0.438720703 0.416259766
vt 0.416503906 0.422851562
vt 0.425292969 0.434082031
vt 0.416503906 0.338134766
vt 0.416503906 0.334228516
vt 0.453857422 0.334228516
vt 0.453857422 0.338134766
vt 0.438232422 0.293701172
vt 0.434814453 0.334228516
vt 0.438476562 0.334228516
vt 0.425537109 0.293701172
vt 0.425537109 0.334228516
vt 0.426025391 0.625488281
vt 0.435546875 0.625488281
vt 0.426269531 0.655761719
vt 0.438964844 0.655761719
vt 0.438964844 0.625488281
vt 0.453857422 0.623046875
vt 0.453857422 0.627441406
vt 0.416503906 0.627441406
vt 0.416503906 0.623046875
vt 0.440185547 0.489746094
vt 0.453857422 0.478759766
vt 0.433349609 0.466308594
vt 0.416503906 0.467041016
vt 0.453857422 0.623046875
vt 0.453857422 0.627441406
vt 0.491210938 0.627441406
vt 0.491210938 0.623046875
vt 0.478759766 0.465820312
vt 0.453857422 0.478759766
vt 0.471679688 0.485595703
vt 0.491210938 0.478027344
vn -0 0 1
vn -0 0 1
vn -0 0 1
vn -0 0 1
vn -1 0 0
vn -1 0 0
vn -1 0 0
vn -1 0 0
vn -1 0 0
vn -1 0 0
vn -1 0 0
vn -1 0 0
vn -0 0 1
vn -0 0 1
vn -0 0 1
vn -0 0 1
vn -1 0 0
vn -1 0 0
vn -1 0 0
vn -1 0 0
vn -0 0 1
vn -0 0 1
vn -0 0 1
vn -0 0 1
vn -0 -1 0
vn -0 -1 0
vn -0 -1 0
vn -0 -1 0
vn 1 0 0
vn 1 0 0
vn 1 0 0
vn 1 0 0
vn 1 0 0
vn 1 0 0
vn 1 0 0
vn 1 0 0
vn 1 0 0
vn 1 0 0
vn -0 1 0
vn -0 1 0
vn -0 1 0
vn -0 1 0
vn -0 -1 0
vn -0 -1 0
vn -0 -1 0
vn -0 -1 0
vn -0 1 0
vn -0 1 0
vn -0 1 0
vn -0 1 0
vn -0 0 -1
vn -0 0 -1
vn -0 0 -1
vn -0 0 -1
vn -0 0 -1
vn -0 0 -1
vn -0 0 -1
vn -0 0 -1
vn -0 0 -1
vn -0 0 -1
vn -0 -1 0
vn -0 -1 0
vn -0 -1 1.66893005E-06
vn -0 -1 1.43051147E-06
vn -0 1 0
vn -0 1 0
vn -0 1 0
vn -0 1 0
vn -0 -1 1.43051147E-06
vn -0 -1 1.66893005E-06
vn -0 -1 3.03983688E-06
vn -0 -1 3.03983688E-06
vn -0 1 0
vn -0 1 0
vn -0 1 0
vn -0 1 0
g Corner_Column_Museum_5_0
f 3/3/3 2/2/2 1/1/1
f 4/4/4 3/3/3 1/1/1
f 7/7/7 6/6/6 5/5/5
f 8/8/8 7/7/7 5/5/5
f 11/11/11 10/10/10 9/9/9
f 12/12/12 11/11/11 9/9/9
f 15/15/15 14/14/14 13/13/13
f 16/16/16 15/15/15 13/13/13
f 19/19/19 18/18/18 17/17/17
f 20/20/20 19/19/19 17/17/17
f 23/23/23 22/22/22 21/21/21
f 24/24/24 23/23/23 21/21/21
f 27/27/27 26/26/26 25/25/25
f 28/28/28 27/27/27 25/25/25
f 31/31/31 30/30/30 29/29/29
f 30/30/30 32/32/32 29/29/29
f 32/32/32 33/33/33 29/29/29
f 29/29/29 33/33/33 34/34/34
f 33/33/33 35/35/35 34/34/34
f 34/34/34 35/35/35 36/36/36
f 34/34/34 36/36/36 37/37/37
f 38/38/38 34/34/34 37/37/37
f 41/41/41 40/40/40 39/39/39
f 42/42/42 41/41/41 39/39/39
f 45/45/45 44/44/44 43/43/43
f 46/46/46 45/45/45 43/43/43
f 49/49/49 48/48/48 47/47/47
f 50/50/50 49/49/49 47/47/47
f 53/53/53 52/52/52 51/51/51
f 52/52/52 54/54/54 51/51/51
f 52/52/52 55/55/55 54/54/54
f 56/56/56 55/55/55 52/52/52
f 57/57/57 56/56/56 52/52/52
f 58/58/58 56/56/56 57/57/57
f 59/59/59 58/58/58 57/57/57
f 60/60/60 59/59/59 57/57/57
f 63/63/63 62/62/62 61/61/61
f 64/64/64 63/63/63 61/61/61
f 67/67/67 66/66/66 65/65/65
f 68/68/68 67/67/67 65/65/65
f 71/71/71 70/70/70 69/69/69
f 72/72/72 71/71/71 69/69/69
f 75/75/75 74/74/74 73/73/73
f 76/76/76 75/75/75 73/73/73
