g Beam_Sturcture_31
v -0.103507571 0.823838174 -0.414567798
v 0.0957404673 0.82436794 -0.414863199
v 0.0957404673 1.62590909 -1.52672172
v -0.103507571 1.62537932 -1.52642608
v 0.0957404673 0.82436794 -0.414863199
v 0.0955939814 0.901771545 -0.27533257
v 0.0957404673 1.70313382 -1.38858366
v 0.0957404673 1.62590909 -1.52672172
v 0.0955939814 0.901771545 -0.27533257
v -0.103507571 0.901062906 -0.276429981
v -0.103507571 1.70260406 -1.38828826
v 0.0957404673 1.70313382 -1.38858366
v -0.103507571 0.901062906 -0.276429981
v -0.103507571 0.823838174 -0.414567798
v -0.103507571 1.62537932 -1.52642608
v -0.103507571 1.70260406 -1.38828826
v -0.0957390219 -1.70313382 1.3885839
v 0.103509024 -1.70260346 1.3882879
v 0.0957404673 -0.103870541 0.4491584
v -0.103507571 -0.10440094 0.449454427
v 0.103509024 -1.70260346 1.3882879
v 0.103509024 -1.62537873 1.52642453
v 0.0957404673 -0.0266458131 0.587296188
v 0.0957404673 -0.103870541 0.4491584
v 0.103509024 -1.62537873 1.52642453
v -0.0957390219 -1.62590849 1.52672172
v -0.103507571 -0.0271762088 0.587591588
v 0.0957404673 -0.0266458131 0.587296188
v -0.0957390219 -1.62590849 1.52672172
v -0.0957390219 -1.70313382 1.3885839
v -0.103507571 -0.10440094 0.449454427
v -0.103507571 -0.0271762088 0.587591588
v -0.103507571 -0.10440094 0.449454427
v 0.0957404673 -0.103870541 0.4491584
v 0.0957404673 0.82436794 -0.414863199
v -0.103507571 0.823838174 -0.414567798
v 0.0957404673 -0.103870541 0.4491584
v 0.0957404673 -0.0266458131 0.587296188
v 0.0955939814 0.901771545 -0.27533257
v 0.0957404673 0.82436794 -0.414863199
v 0.0957404673 -0.0266458131 0.587296188
v -0.103507571 -0.0271762088 0.587591588
v -0.103507571 0.901062906 -0.276429981
v 0.0955939814 0.901771545 -0.27533257
v -0.103507571 -0.0271762088 0.587591588
v -0.103507571 -0.10440094 0.449454427
v -0.103507571 0.823838174 -0.414567798
v -0.103507571 0.901062906 -0.276429981
vt 0.0129318237 0.470214844
vt 0.0629882812 0.470214844
vt 0.0629882812 0.935546875
vt 0.0129318237 0.935546875
vt 0.0129318237 0.470214844
vt 0.0629882812 0.470214844
vt 0.0629882812 0.935546875
vt 0.0129318237 0.935546875
vt 0.0629882812 0.935546875
vt 0.0129318237 0.935546875
vt 0.0129318237 0.470214844
vt 0.0629882812 0.470214844
vt 0.0129318237 0.470214844
vt 0.0629882812 0.470214844
vt 0.0629882812 0.935546875
vt 0.0129318237 0.935546875
vt 0.0129318237 0.470214844
vt 0.0629882812 0.470214844
vt 0.0629882812 0.935546875
vt 0.0129318237 0.935546875
vt 0.0129318237 0.470214844
vt 0.0629882812 0.470214844
vt 0.0629882812 0.935546875
vt 0.0129318237 0.935546875
vt 0.0629882812 0.935546875
vt 0.0129318237 0.935546875
vt 0.0129318237 0.470214844
vt 0.0629882812 0.470214844
vt 0.0129318237 0.470214844
vt 0.0629882812 0.470214844
vt 0.0629882812 0.935546875
vt 0.0129318237 0.935546875
vt 0.0129318237 0.470214844
vt 0.0629882812 0.470214844
vt 0.0629882812 0.935546875
vt 0.0129318237 0.935546875
vt 0.0129318237 0.470214844
vt 0.0629882812 0.470214844
vt 0.0629882812 0.935546875
vt 0.0129318237 0.935546875
vt 0.0629882812 0.935546875
vt 0.0129318237 0.935546875
vt 0.0129318237 0.470214844
vt 0.0629882812 0.470214844
vt 0.0129318237 0.470214844
vt 0.0629882812 0.470214844
vt 0.0629882812 0.935546875
vt 0.0129318237 0.935546875
vn 0.00129032135 -0.811035156 -0.584960938
vn 0.00129032135 -0.811035156 -0.584960938
vn 0.00129032135 -0.811035156 -0.584960938
vn 0.00129032135 -0.811035156 -0.584960938
vn 1 0.000363349915 0.000326156616
vn 1 0.000363349915 0.000326156616
vn 1 0.000363349915 0.000326156616
vn 1 0.000363349915 0.000326156616
vn -0.003698349 0.811523438 0.584472656
vn -0.003698349 0.811523438 0.584472656
vn -0.003698349 0.811523438 0.584472656
vn -0.003698349 0.811523438 0.584472656
vn -1 1.01327896E-06 9.53674316E-07
vn -1 1.01327896E-06 9.53674316E-07
vn -1 1.01327896E-06 9.53674316E-07
vn -1 1.01327896E-06 9.53674316E-07
vn 6.78300858E-05 -0.506347656 -0.862304688
vn 6.78300858E-05 -0.506347656 -0.862304688
vn 6.78300858E-05 -0.506347656 -0.862304688
vn 6.78300858E-05 -0.506347656 -0.862304688
vn 1 0.00365829468 -0.00204467773
vn 1 0.00365829468 -0.00204467773
vn 1 0.00365829468 -0.00204467773
vn 1 0.00365829468 -0.00204467773
vn -6.47902489E-05 0.506347656 0.862304688
vn -6.47902489E-05 0.506347656 0.862304688
vn -6.47902489E-05 0.506347656 0.862304688
vn -6.47902489E-05 0.506347656 0.862304688
vn -1 -0.00366210938 0.00204467773
vn -1 -0.00366210938 0.00204467773
vn -1 -0.00366210938 0.00204467773
vn -1 -0.00366210938 0.00204467773
vn 0.000725746155 -0.681152344 -0.731933594
vn 0.000725746155 -0.681152344 -0.731933594
vn 0.000725746155 -0.681152344 -0.731933594
vn 0.000725746155 -0.681152344 -0.731933594
vn 1 0.000374317169 0.000318527222
vn 1 0.000374317169 0.000318527222
vn 1 0.000374317169 0.000318527222
vn 1 0.000374317169 0.000318527222
vn -0.00359153748 0.681152344 0.732421875
vn -0.00359153748 0.681152344 0.732421875
vn -0.00359153748 0.681152344 0.732421875
vn -0.00359153748 0.681152344 0.732421875
vn -1 5.00679016E-06 -9.53674316E-07
vn -1 5.00679016E-06 -9.53674316E-07
vn -1 5.00679016E-06 -9.53674316E-07
vn -1 5.00679016E-06 -9.53674316E-07
g Beam_Sturcture_31_0
f 3/3/3 2/2/2 1/1/1
f 4/4/4 3/3/3 1/1/1
f 7/7/7 6/6/6 5/5/5
f 8/8/8 7/7/7 5/5/5
f 11/11/11 10/10/10 9/9/9
f 12/12/12 11/11/11 9/9/9
f 15/15/15 14/14/14 13/13/13
f 16/16/16 15/15/15 13/13/13
f 19/19/19 18/18/18 17/17/17
f 20/20/20 19/19/19 17/17/17
f 23/23/23 22/22/22 21/21/21
f 24/24/24 23/23/23 21/21/21
f 27/27/27 26/26/26 25/25/25
f 28/28/28 27/27/27 25/25/25
f 31/31/31 30/30/30 29/29/29
f 32/32/32 31/31/31 29/29/29
f 35/35/35 34/34/34 33/33/33
f 36/36/36 35/35/35 33/33/33
f 39/39/39 38/38/38 37/37/37
f 40/40/40 39/39/39 37/37/37
f 43/43/43 42/42/42 41/41/41
f 44/44/44 43/43/43 41/41/41
f 47/47/47 46/46/46 45/45/45
f 48/48/48 47/47/47 45/45/45
