g RodRoom_Frame_A
v 0.385121763 -0.294507593 -0.00308959954
v -0.385121763 -0.294507593 -0.00308959954
v -0.385121763 0.294507593 -0.00308959954
v 0.385121763 0.294507593 -0.00308959954
v -0.529589832 -0.411011815 0.0191534422
v -0.529589832 -0.411011815 -0.0191534422
v -0.529589832 0.411011815 -0.0191534422
v -0.529589832 0.411011815 0.0191534422
v 0.529589832 -0.411011815 -0.0191534422
v 0.529589832 -0.411011815 0.0191534422
v 0.529589832 0.411011815 0.0191534422
v 0.529589832 0.411011815 -0.0191534422
v 0.529589832 0.411011815 0.0191534422
v -0.529589832 0.411011815 0.0191534422
v -0.529589832 0.411011815 -0.0191534422
v 0.529589832 0.411011815 -0.0191534422
v 0.529589832 -0.411011815 -0.0191534422
v -0.529589832 -0.411011815 -0.0191534422
v -0.529589832 -0.411011815 0.0191534422
v 0.529589832 -0.411011815 0.0191534422
v 0.529589832 -0.411011815 0.0191534422
v 0.481706232 -0.363128185 0.0191534422
v 0.481706232 0.363128185 0.0191534422
v 0.529589832 0.411011815 0.0191534422
v 0.529589832 0.411011815 0.0191534422
v 0.481706232 0.363128185 0.0191534422
v -0.481705934 0.363128185 0.0191534422
v -0.529589832 0.411011815 0.0191534422
v -0.529589832 0.411011815 0.0191534422
v -0.481705934 0.363128185 0.0191534422
v -0.481705934 -0.363128185 0.0191534422
v -0.529589832 -0.411011815 0.0191534422
v -0.529589832 -0.411011815 0.0191534422
v -0.481705934 -0.363128185 0.0191534422
v 0.481706232 -0.363128185 0.0191534422
v 0.529589832 -0.411011815 0.0191534422
v 0.481706232 -0.363128185 0.0191534422
v 0.475960076 -0.357382029 -0.00308959954
v 0.475960076 0.357382029 -0.00308959954
v 0.481706232 0.363128185 0.0191534422
v 0.481706232 0.363128185 0.0191534422
v 0.475960076 0.357382029 -0.00308959954
v -0.475960076 0.357382029 -0.00308959954
v -0.481705934 0.363128185 0.0191534422
v -0.481705934 0.363128185 0.0191534422
v -0.475960076 0.357382029 -0.00308959954
v -0.475960076 -0.357382029 -0.00308959954
v -0.481705934 -0.363128185 0.0191534422
v -0.481705934 -0.363128185 0.0191534422
v -0.475960076 -0.357382029 -0.00308959954
v 0.475960076 -0.357382029 -0.00308959954
v 0.481706232 -0.363128185 0.0191534422
v -0.475960076 0.357382029 -0.00308959954
v -0.385121763 -0.294507593 -0.00308959954
v -0.475960076 -0.357382029 -0.00308959954
v -0.385121763 0.294507593 -0.00308959954
v 0.385121763 -0.294507593 -0.00308959954
v 0.475960076 0.357382029 -0.00308959954
v 0.475960076 -0.357382029 -0.00308959954
v 0.385121763 0.294507593 -0.00308959954
vt 0.8359375 0.698730469
vt 0.8359375 0.896972656
vt 0.9921875 0.896972656
vt 0.9921875 0.698730469
vt 0.741699219 0.124023438
vt 0.734375 0.124023438
vt 0.734375 0.266601562
vt 0.741699219 0.266601562
vt 0.734375 0.266601562
vt 0.741699219 0.266601562
vt 0.741699219 0.124023438
vt 0.734375 0.124023438
vt 0.741699219 0.293945312
vt 0.741699219 0.0966796875
vt 0.734375 0.0966796875
vt 0.734375 0.293945312
vt 0.734375 0.0966796875
vt 0.734375 0.293945312
vt 0.741699219 0.293945312
vt 0.741699219 0.0966796875
vt 0.741699219 0.266601562
vt 0.750488281 0.2578125
vt 0.750488281 0.13293457
vt 0.741699219 0.124023438
vt 0.741699219 0.293945312
vt 0.750488281 0.28515625
vt 0.750488281 0.10559082
vt 0.741699219 0.0966796875
vt 0.741699219 0.266601562
vt 0.750488281 0.2578125
vt 0.750488281 0.13293457
vt 0.741699219 0.124023438
vt 0.741699219 0.293945312
vt 0.750488281 0.28515625
vt 0.750488281 0.10559082
vt 0.741699219 0.0966796875
vt 0.750488281 0.2578125
vt 0.754882812 0.256835938
vt 0.754882812 0.134033203
vt 0.750488281 0.13293457
vt 0.750488281 0.28515625
vt 0.754882812 0.283935547
vt 0.754882812 0.106689453
vt 0.750488281 0.10559082
vt 0.750488281 0.2578125
vt 0.754882812 0.256835938
vt 0.754882812 0.134033203
vt 0.750488281 0.13293457
vt 0.750488281 0.28515625
vt 0.754882812 0.283935547
vt 0.754882812 0.106689453
vt 0.750488281 0.10559082
vt 0.862304688 0.520996094
vt 0.978515625 0.537597656
vt 0.989746094 0.520996094
vt 0.874023438 0.537597656
vt 0.978515625 0.679199219
vt 0.862304688 0.695800781
vt 0.989746094 0.695800781
vt 0.874023438 0.679199219
vn -0 0 1
vn -0 0 1
vn -0 0 1
vn -0 0 1
vn -1 0 0
vn -1 0 0
vn -1 0 0
vn -1 0 0
vn 1 0 0
vn 1 0 0
vn 1 0 0
vn 1 0 0
vn -0 1 0
vn -0 1 0
vn -0 1 0
vn -0 1 0
vn -0 -1 0
vn -0 -1 0
vn -0 -1 0
vn -0 -1 0
vn -0 0 1
vn -0 0 1
vn -0 0 1
vn -0 0 1
vn -0 0 1
vn -0 0 1
vn -0 0 1
vn -0 0 1
vn -0 0 1
vn -0 0 1
vn -0 0 1
vn -0 0 1
vn -0 0 1
vn -0 0 1
vn -0 0 1
vn -0 0 1
vn -0.968261719 0 0.250244141
vn -0.968261719 0 0.250244141
vn -0.968261719 0 0.250244141
vn -0.968261719 0 0.250244141
vn -0 -0.968261719 0.250244141
vn -0 -0.968261719 0.250244141
vn -0 -0.968261719 0.250244141
vn -0 -0.968261719 0.250244141
vn 0.968261719 0 0.25
vn 0.968261719 0 0.25
vn 0.968261719 0 0.25
vn 0.968261719 0 0.25
vn -0 0.968261719 0.250244141
vn -0 0.968261719 0.250244141
vn -0 0.968261719 0.250244141
vn -0 0.968261719 0.250244141
vn -0 0 1
vn -0 0 1
vn -0 0 1
vn -0 0 1
vn -0 0 1
vn -0 0 1
vn -0 0 1
vn -0 0 1
g RodRoom_Frame_A_0
f 3/3/3 2/2/2 1/1/1
f 4/4/4 3/3/3 1/1/1
f 7/7/7 6/6/6 5/5/5
f 8/8/8 7/7/7 5/5/5
f 11/11/11 10/10/10 9/9/9
f 12/12/12 11/11/11 9/9/9
f 15/15/15 14/14/14 13/13/13
f 16/16/16 15/15/15 13/13/13
f 19/19/19 18/18/18 17/17/17
f 20/20/20 19/19/19 17/17/17
f 23/23/23 22/22/22 21/21/21
f 24/24/24 23/23/23 21/21/21
f 27/27/27 26/26/26 25/25/25
f 28/28/28 27/27/27 25/25/25
f 31/31/31 30/30/30 29/29/29
f 32/32/32 31/31/31 29/29/29
f 35/35/35 34/34/34 33/33/33
f 36/36/36 35/35/35 33/33/33
f 39/39/39 38/38/38 37/37/37
f 40/40/40 39/39/39 37/37/37
f 43/43/43 42/42/42 41/41/41
f 44/44/44 43/43/43 41/41/41
f 47/47/47 46/46/46 45/45/45
f 48/48/48 47/47/47 45/45/45
f 51/51/51 50/50/50 49/49/49
f 52/52/52 51/51/51 49/49/49
f 55/55/55 54/54/54 53/53/53
f 54/54/54 56/56/56 53/53/53
f 57/57/57 54/54/54 55/55/55
f 53/53/53 56/56/56 58/58/58
f 59/59/59 57/57/57 55/55/55
f 56/56/56 60/60/60 58/58/58
f 60/60/60 57/57/57 59/59/59
f 58/58/58 60/60/60 59/59/59
