g IS4_MDL_EscenarioPB_Separador_Heladeria_5
v 0.979465306 -0.526804626 0.0324580371
v -0.979460418 -0.526804626 0.0324580371
v -0.979460418 1.53838325 0.0324586481
v 0.979465306 1.53838325 0.0324580371
v -1.08037353 -1.53838348 0.0837373361
v -1.08037353 -0.526804626 0.083737947
v 1.08037353 -0.526804626 0.0837373361
v 1.08037353 -1.53838348 0.0837373361
v 1.08037353 -0.526804626 -0.0984989926
v -1.08037353 -0.526804626 -0.0984983817
v -1.08037353 -1.53838348 -0.0984989926
v 1.08037353 -1.53838348 -0.0984989926
v 0.979465306 1.53838325 -0.0472196937
v -0.979460418 1.53838325 -0.0472190864
v -0.979460418 -0.526804626 -0.0472196937
v 0.979465306 -0.526804626 -0.0472196937
v 0.979465306 1.53838325 0.0324580371
v -0.979460418 1.53838325 0.0324586481
v -0.979460418 1.53838325 -0.0472190864
v 0.979465306 1.53838325 -0.0472196937
v -0.979460418 -0.526804626 -0.0472196937
v -0.979460418 1.53838325 -0.0472190864
v -0.979460418 1.53838325 0.0324586481
v -0.979460418 -0.526804626 0.0324580371
v -1.08037353 -1.53838348 -0.0984989926
v -1.08037353 -0.526804626 -0.0984983817
v -1.08037353 -0.526804626 0.083737947
v -1.08037353 -1.53838348 0.0837373361
v 1.08037353 -0.526804626 0.0837373361
v -1.08037353 -0.526804626 0.083737947
v -0.979460418 -0.526804626 0.0324580371
v 0.979465306 -0.526804626 0.0324580371
v 1.08037353 -0.526804626 -0.0984989926
v 0.979465306 -0.526804626 -0.0472196937
v -0.979460418 -0.526804626 -0.0472196937
v -1.08037353 -0.526804626 -0.0984983817
v -0.979460418 -0.526804626 0.0324580371
v -1.08037353 -0.526804626 0.083737947
v -1.08037353 -0.526804626 -0.0984983817
v -0.979460418 -0.526804626 -0.0472196937
v 0.979465306 -0.526804626 0.0324580371
v 0.979465306 -0.526804626 -0.0472196937
v 1.08037353 -0.526804626 -0.0984989926
v 1.08037353 -0.526804626 0.0837373361
v 1.08037353 -0.526804626 0.0837373361
v 1.08037353 -0.526804626 -0.0984989926
v 1.08037353 -1.53838348 -0.0984989926
v 1.08037353 -1.53838348 0.0837373361
v 0.979465306 -0.526804626 0.0324580371
v 0.979465306 1.53838325 0.0324580371
v 0.979465306 1.53838325 -0.0472196937
v 0.979465306 -0.526804626 -0.0472196937
v 0.623034656 -1.53548372 -0.438039988
v 0.623034656 -0.536964953 -0.175276339
v 0.623034656 -0.536964953 -0.0665019229
v 0.623034656 -1.53548372 -0.0665019229
v 0.623034656 -0.536964953 -0.175276339
v 0.732658684 -0.536964953 -0.175275728
v 0.732658684 -0.536964953 -0.066501312
v 0.623034656 -0.536964953 -0.0665019229
v 0.732658684 -0.536964953 -0.175275728
v 0.732658684 -1.53548372 -0.438039392
v 0.732658684 -1.53548372 -0.066501312
v 0.732658684 -0.536964953 -0.066501312
v 0.732658684 -1.53548372 -0.438039392
v 0.732658684 -0.536964953 -0.175275728
v 0.623034656 -0.536964953 -0.175276339
v 0.623034656 -1.53548372 -0.438039988
v -0.591574669 -1.53548372 -0.438039392
v -0.591574669 -0.536964953 -0.175275728
v -0.591574669 -0.536964953 -0.066501312
v -0.591574669 -1.53548372 -0.066501312
v -0.591574669 -0.536964953 -0.175275728
v -0.48195067 -0.536964953 -0.175276339
v -0.48195067 -0.536964953 -0.0665019229
v -0.591574669 -0.536964953 -0.066501312
v -0.48195067 -0.536964953 -0.175276339
v -0.48195067 -1.53548372 -0.438039988
v -0.48195067 -1.53548372 -0.0665019229
v -0.48195067 -0.536964953 -0.0665019229
v -0.48195067 -1.53548372 -0.438039988
v -0.48195067 -0.536964953 -0.175276339
v -0.591574669 -0.536964953 -0.175275728
v -0.591574669 -1.53548372 -0.438039392
v 0.732658684 -1.53548372 0.43803969
v 0.732658684 -0.536964953 0.175276026
v 0.732658684 -0.536964953 0.0665016174
v 0.732658684 -1.53548372 0.0665016174
v 0.732658684 -0.536964953 0.175276026
v 0.623034656 -0.536964953 0.175275415
v 0.623034656 -0.536964953 0.0665010065
v 0.732658684 -0.536964953 0.0665016174
v 0.623034656 -0.536964953 0.175275415
v 0.623034656 -1.53548372 0.438039094
v 0.623034656 -1.53548372 0.0665010065
v 0.623034656 -0.536964953 0.0665010065
v 0.623034656 -1.53548372 0.438039094
v 0.623034656 -0.536964953 0.175275415
v 0.732658684 -0.536964953 0.175276026
v 0.732658684 -1.53548372 0.43803969
v -0.48195067 -1.53548372 0.438039094
v -0.48195067 -0.536964953 0.175275415
v -0.48195067 -0.536964953 0.0665010065
v -0.48195067 -1.53548372 0.0665010065
v -0.48195067 -0.536964953 0.175275415
v -0.591574669 -0.536964953 0.175276026
v -0.591574669 -0.536964953 0.0665016174
v -0.48195067 -0.536964953 0.0665010065
v -0.591574669 -0.536964953 0.175276026
v -0.591574669 -1.53548372 0.43803969
v -0.591574669 -1.53548372 0.0665016174
v -0.591574669 -0.536964953 0.0665016174
v -0.591574669 -1.53548372 0.43803969
v -0.591574669 -0.536964953 0.175276026
v -0.48195067 -0.536964953 0.175275415
v -0.48195067 -1.53548372 0.438039094
vt 0.506347656 0.142089844
vt 0.743652344 0.142089844
vt 0.743652344 0.409423828
vt 0.506347656 0.409423828
vt 0.743652344 0.0107116699
vt 0.743652344 0.142089844
vt 0.506347656 0.142089844
vt 0.506347656 0.0107116699
vt 0.506347656 0.142089844
vt 0.743652344 0.142089844
vt 0.743652344 0.0109481812
vt 0.506347656 0.0109481812
vt 0.506347656 0.409423828
vt 0.743652344 0.409423828
vt 0.743652344 0.142089844
vt 0.506347656 0.142089844
vt 0.743652344 0.399658203
vt 0.506835938 0.399658203
vt 0.506835938 0.409423828
vt 0.743652344 0.409423828
vt 0.506835938 0.409423828
vt 0.743652344 0.409423828
vt 0.743652344 0.399658203
vt 0.506835938 0.399658203
vt 0.555664062 0.141357422
vt 0.555664062 0.0107803345
vt 0.53515625 0.0107803345
vt 0.53515625 0.141357422
vt 0.739257812 0.148925781
vt 0.508789062 0.148925781
vt 0.508789062 0.154418945
vt 0.739257812 0.154418945
vt 0.739257812 0.154418945
vt 0.739257812 0.148925781
vt 0.508789062 0.148925781
vt 0.508789062 0.154418945
vt 0.616699219 0.154418945
vt 0.620605469 0.148925781
vt 0.605957031 0.148925781
vt 0.610351562 0.154418945
vt 0.616699219 0.154418945
vt 0.610351562 0.154418945
vt 0.605957031 0.148925781
vt 0.620605469 0.148925781
vt 0.53515625 0.141357422
vt 0.555664062 0.141357422
vt 0.555664062 0.0107803345
vt 0.53515625 0.0107803345
vt 0.744628906 0.399902344
vt 0.506835938 0.399902344
vt 0.506835938 0.408935547
vt 0.744628906 0.408935547
vt 0.611816406 0.0128936768
vt 0.611816406 0.139770508
vt 0.6328125 0.139770508
vt 0.6328125 0.0128936768
vt 0.729003906 0.139404297
vt 0.743652344 0.139404297
vt 0.743652344 0.122741699
vt 0.729003906 0.122741699
vt 0.611816406 0.139770508
vt 0.611816406 0.0128936768
vt 0.6328125 0.0128936768
vt 0.6328125 0.139770508
vt 0.729492188 0.0128936768
vt 0.729492188 0.139770508
vt 0.744140625 0.139770508
vt 0.744140625 0.0128936768
vt 0.611816406 0.0128936768
vt 0.611816406 0.139770508
vt 0.6328125 0.139770508
vt 0.6328125 0.0128936768
vt 0.729003906 0.139404297
vt 0.743652344 0.139404297
vt 0.743652344 0.122741699
vt 0.729003906 0.122741699
vt 0.611816406 0.139770508
vt 0.611816406 0.0128936768
vt 0.6328125 0.0128936768
vt 0.6328125 0.139770508
vt 0.729492188 0.0128936768
vt 0.729492188 0.139770508
vt 0.744140625 0.139770508
vt 0.744140625 0.0128936768
vt 0.611816406 0.0128936768
vt 0.611816406 0.139770508
vt 0.6328125 0.139770508
vt 0.6328125 0.0128936768
vt 0.729003906 0.139404297
vt 0.743652344 0.139404297
vt 0.743652344 0.122741699
vt 0.729003906 0.122741699
vt 0.611816406 0.139770508
vt 0.611816406 0.0128936768
vt 0.6328125 0.0128936768
vt 0.6328125 0.139770508
vt 0.729492188 0.0128936768
vt 0.729492188 0.139770508
vt 0.744140625 0.139770508
vt 0.744140625 0.0128936768
vt 0.611816406 0.0128936768
vt 0.611816406 0.139770508
vt 0.6328125 0.139770508
vt 0.6328125 0.0128936768
vt 0.729003906 0.139404297
vt 0.743652344 0.139404297
vt 0.743652344 0.122741699
vt 0.729003906 0.122741699
vt 0.611816406 0.139770508
vt 0.611816406 0.0128936768
vt 0.6328125 0.0128936768
vt 0.6328125 0.139770508
vt 0.729492188 0.0128936768
vt 0.729492188 0.139770508
vt 0.744140625 0.139770508
vt 0.744140625 0.0128936768
vn -0 -1.1920929E-07 1
vn -0 -1.1920929E-07 1
vn -0 -1.1920929E-07 1
vn -0 -1.1920929E-07 1
vn 1.78813934E-07 -2.98023224E-07 1
vn 1.78813934E-07 -2.98023224E-07 1
vn 1.78813934E-07 -2.98023224E-07 1
vn 1.78813934E-07 -2.98023224E-07 1
vn -0 2.98023224E-07 -1
vn -0 2.98023224E-07 -1
vn -0 2.98023224E-07 -1
vn -0 2.98023224E-07 -1
vn -0 1.1920929E-07 -1
vn -0 1.1920929E-07 -1
vn -0 1.1920929E-07 -1
vn -0 1.1920929E-07 -1
vn -0 1 0
vn -0 1 0
vn -0 1 0
vn -0 1 0
vn -1 4.76837158E-07 0
vn -1 4.76837158E-07 0
vn -1 4.76837158E-07 0
vn -1 4.76837158E-07 0
vn -1 -2.02655792E-06 0
vn -1 -2.02655792E-06 0
vn -1 -2.02655792E-06 0
vn -1 -2.02655792E-06 0
vn -0 1 0
vn -0 1 0
vn -0 1 0
vn -0 1 0
vn -0 1 7.74860382E-07
vn -0 1 7.74860382E-07
vn -0 1 7.74860382E-07
vn -0 1 7.74860382E-07
vn -0 1 0
vn -0 1 0
vn -0 1 0
vn -0 1 0
vn -0 1 0
vn -0 1 0
vn -0 1 0
vn -0 1 0
vn 1 0 0
vn 1 0 0
vn 1 0 0
vn 1 0 0
vn 1 0 0
vn 1 0 0
vn 1 0 0
vn 1 0 0
vn -1 0 0
vn -1 0 0
vn -1 0 0
vn -1 0 0
vn -0 1 0
vn -0 1 0
vn -0 1 0
vn -0 1 0
vn 1 -6.49690628E-06 0
vn 1 -6.49690628E-06 0
vn 1 -6.49690628E-06 0
vn 1 -6.49690628E-06 0
vn 3.4570694E-06 0.254394531 -0.967285156
vn 3.4570694E-06 0.254394531 -0.967285156
vn 3.4570694E-06 0.254394531 -0.967285156
vn 3.4570694E-06 0.254394531 -0.967285156
vn -1 0 0
vn -1 0 0
vn -1 0 0
vn -1 0 0
vn -0 1 0
vn -0 1 0
vn -0 1 0
vn -0 1 0
vn 1 0 0
vn 1 0 0
vn 1 0 0
vn 1 0 0
vn -3.4570694E-06 0.254394531 -0.967285156
vn -3.4570694E-06 0.254394531 -0.967285156
vn -3.4570694E-06 0.254394531 -0.967285156
vn -3.4570694E-06 0.254394531 -0.967285156
vn 1 -6.49690628E-06 0
vn 1 -6.49690628E-06 0
vn 1 -6.49690628E-06 0
vn 1 -6.49690628E-06 0
vn -0 1 0
vn -0 1 0
vn -0 1 0
vn -0 1 0
vn -1 0 0
vn -1 0 0
vn -1 0 0
vn -1 0 0
vn -3.4570694E-06 0.254394531 0.967285156
vn -3.4570694E-06 0.254394531 0.967285156
vn -3.4570694E-06 0.254394531 0.967285156
vn -3.4570694E-06 0.254394531 0.967285156
vn 1 0 0
vn 1 0 0
vn 1 0 0
vn 1 0 0
vn -0 1 0
vn -0 1 0
vn -0 1 0
vn -0 1 0
vn -1 0 0
vn -1 0 0
vn -1 0 0
vn -1 0 0
vn -0 0.254394531 0.967285156
vn -0 0.254394531 0.967285156
vn -0 0.254394531 0.967285156
vn -0 0.254394531 0.967285156
g IS4_MDL_EscenarioPB_Separador_Heladeria_5_0
f 3/3/3 2/2/2 1/1/1
f 4/4/4 3/3/3 1/1/1
f 7/7/7 6/6/6 5/5/5
f 8/8/8 7/7/7 5/5/5
f 11/11/11 10/10/10 9/9/9
f 12/12/12 11/11/11 9/9/9
f 15/15/15 14/14/14 13/13/13
f 16/16/16 15/15/15 13/13/13
f 19/19/19 18/18/18 17/17/17
f 20/20/20 19/19/19 17/17/17
f 23/23/23 22/22/22 21/21/21
f 24/24/24 23/23/23 21/21/21
f 27/27/27 26/26/26 25/25/25
f 28/28/28 27/27/27 25/25/25
f 31/31/31 30/30/30 29/29/29
f 32/32/32 31/31/31 29/29/29
f 35/35/35 34/34/34 33/33/33
f 36/36/36 35/35/35 33/33/33
f 39/39/39 38/38/38 37/37/37
f 40/40/40 39/39/39 37/37/37
f 43/43/43 42/42/42 41/41/41
f 44/44/44 43/43/43 41/41/41
f 47/47/47 46/46/46 45/45/45
f 48/48/48 47/47/47 45/45/45
f 51/51/51 50/50/50 49/49/49
f 52/52/52 51/51/51 49/49/49
f 55/55/55 54/54/54 53/53/53
f 56/56/56 55/55/55 53/53/53
f 59/59/59 58/58/58 57/57/57
f 60/60/60 59/59/59 57/57/57
f 63/63/63 62/62/62 61/61/61
f 64/64/64 63/63/63 61/61/61
f 67/67/67 66/66/66 65/65/65
f 68/68/68 67/67/67 65/65/65
f 71/71/71 70/70/70 69/69/69
f 72/72/72 71/71/71 69/69/69
f 75/75/75 74/74/74 73/73/73
f 76/76/76 75/75/75 73/73/73
f 79/79/79 78/78/78 77/77/77
f 80/80/80 79/79/79 77/77/77
f 83/83/83 82/82/82 81/81/81
f 84/84/84 83/83/83 81/81/81
f 87/87/87 86/86/86 85/85/85
f 88/88/88 87/87/87 85/85/85
f 91/91/91 90/90/90 89/89/89
f 92/92/92 91/91/91 89/89/89
f 95/95/95 94/94/94 93/93/93
f 96/96/96 95/95/95 93/93/93
f 99/99/99 98/98/98 97/97/97
f 100/100/100 99/99/99 97/97/97
f 103/103/103 102/102/102 101/101/101
f 104/104/104 103/103/103 101/101/101
f 107/107/107 106/106/106 105/105/105
f 108/108/108 107/107/107 105/105/105
f 111/111/111 110/110/110 109/109/109
f 112/112/112 111/111/111 109/109/109
f 115/115/115 114/114/114 113/113/113
f 116/116/116 115/115/115 113/113/113
