g Pepper
v -0.0315692835 4.95843437E-08 6.22984089E-07
v -0.023639597 4.95843437E-08 0.0236334335
v -1.90331787E-06 4.95843437E-08 0.0315680057
v -1.90331787E-06 4.95843437E-08 6.22984089E-07
v -0.023639597 4.95843437E-08 -0.0236321893
v -1.90331787E-06 4.95843437E-08 -0.0315667614
v 0.0236309096 4.95843437E-08 -0.0236321893
v 0.0315654799 4.95843437E-08 6.22984089E-07
v 0.0236309096 4.95843437E-08 0.0236334335
v -0.023639597 0.110933423 0.0236334335
v -0.0240351055 0.120000042 6.22984089E-07
v -0.0179950669 0.120000042 0.0179937873
v -0.0315692835 0.110933423 6.22984089E-07
v -0.0179950669 0.120000042 -0.0179925393
v -0.023639597 0.110933423 -0.0236321893
v -0.0179950669 0.120000042 0.0179937873
v -1.90331787E-06 0.110933423 0.0315680057
v -0.023639597 0.110933423 0.0236334335
v -1.90331787E-06 0.120000042 0.024028942
v 0.0236309096 0.110933423 0.0236334335
v 0.0179912597 0.120000042 0.0179937873
v -0.023639597 0.110933423 -0.0236321893
v -1.90331787E-06 0.120000042 -0.0240276977
v -0.0179950669 0.120000042 -0.0179925393
v -1.90331787E-06 0.110933423 -0.0315667614
v 0.0179912597 0.120000042 -0.0179925393
v 0.0236309096 0.110933423 -0.0236321893
v 0.0179912597 0.120000042 0.0179937873
v 0.0315654799 0.110933423 6.22984089E-07
v 0.0236309096 0.110933423 0.0236334335
v 0.0240313001 0.120000042 6.22984089E-07
v 0.0236309096 0.110933423 -0.0236321893
v 0.0179912597 0.120000042 -0.0179925393
v -0.023639597 4.95843437E-08 0.0236334335
v -0.023639597 0.110933423 0.0236334335
v -1.90331787E-06 0.110933423 0.0315680057
v -1.90331787E-06 4.95843437E-08 0.0315680057
v 0.0236309096 4.95843437E-08 0.0236334335
v 0.0236309096 0.110933423 0.0236334335
v -0.0240351055 0.120000042 6.22984089E-07
v -0.0179950669 0.120000042 -0.0179925393
v -1.90331787E-06 0.120000042 -0.0240276977
v -1.90331787E-06 0.120000042 6.22984089E-07
v -0.0179950669 0.120000042 0.0179937873
v -1.90331787E-06 0.120000042 0.024028942
v 0.0179912597 0.120000042 0.0179937873
v 0.0240313001 0.120000042 6.22984089E-07
v 0.0179912597 0.120000042 -0.0179925393
v -0.023639597 0.110933423 -0.0236321893
v -0.023639597 4.95843437E-08 -0.0236321893
v -1.90331787E-06 4.95843437E-08 -0.0315667614
v -1.90331787E-06 0.110933423 -0.0315667614
v 0.0236309096 0.110933423 -0.0236321893
v 0.0236309096 4.95843437E-08 -0.0236321893
v 0.0315654799 0.110933423 6.22984089E-07
v 0.0236309096 0.110933423 -0.0236321893
v 0.0236309096 4.95843437E-08 -0.0236321893
v 0.0315654799 4.95843437E-08 6.22984089E-07
v -0.023639597 4.95843437E-08 -0.0236321893
v -0.023639597 0.110933423 -0.0236321893
v -0.0315692835 0.110933423 6.22984089E-07
v -0.0315692835 4.95843437E-08 6.22984089E-07
v 0.0236309096 4.95843437E-08 0.0236334335
v 0.0236309096 0.110933423 0.0236334335
v 0.0315654799 0.110933423 6.22984089E-07
v 0.0315654799 4.95843437E-08 6.22984089E-07
v -0.0315692835 0.110933423 6.22984089E-07
v -0.023639597 0.110933423 0.0236334335
v -0.023639597 4.95843437E-08 0.0236334335
v -0.0315692835 4.95843437E-08 6.22984089E-07
vt 0.7578125 0.0311584473
vt 0.762695312 0.0271759033
vt 0.762695312 0.0205383301
vt 0.754882812 0.0231933594
vt 0.750976562 0.0311431885
vt 0.747070312 0.0258483887
vt 0.747070312 0.0192108154
vt 0.752441406 0.0152359009
vt 0.758789062 0.0152511597
vt 0.763671875 0.0183868408
vt 0.756835938 0.0166625977
vt 0.760742188 0.0197143555
vt 0.7578125 0.0136489868
vt 0.751953125 0.0165100098
vt 0.750976562 0.0136489868
vt 0.760742188 0.0197143555
vt 0.763671875 0.0257568359
vt 0.763671875 0.0183868408
vt 0.760742188 0.0246582031
vt 0.758789062 0.0313720703
vt 0.757324219 0.0285491943
vt 0.750976562 0.0136489868
vt 0.749023438 0.020401001
vt 0.751953125 0.0165100098
vt 0.745605469 0.0193023682
vt 0.748535156 0.0253448486
vt 0.74609375 0.0266876221
vt 0.757324219 0.0285491943
vt 0.751464844 0.0314331055
vt 0.758789062 0.0313720703
vt 0.752441406 0.0284118652
vt 0.74609375 0.0266876221
vt 0.748535156 0.0253448486
vt 0.723632812 0.0154190063
vt 0.723632812 0.0448913574
vt 0.729980469 0.044921875
vt 0.729980469 0.0154418945
vt 0.736816406 0.0154571533
vt 0.736816406 0.044921875
vt 0.756835938 0.0166625977
vt 0.751953125 0.0165100098
vt 0.749023438 0.020401001
vt 0.754882812 0.0225372314
vt 0.760742188 0.0197143555
vt 0.760742188 0.0246582031
vt 0.757324219 0.0285491943
vt 0.752441406 0.0284118652
vt 0.748535156 0.0253448486
vt 0.736816406 0.0448913574
vt 0.736816406 0.0153961182
vt 0.729980469 0.0153808594
vt 0.729980469 0.0448608398
vt 0.723632812 0.0448608398
vt 0.723632812 0.0153579712
vt 0.716796875 0.0448303223
vt 0.723632812 0.0448608398
vt 0.723632812 0.0153579712
vt 0.716796875 0.0153427124
vt 0.736816406 0.0153961182
vt 0.736816406 0.0448913574
vt 0.743652344 0.0448913574
vt 0.743652344 0.015411377
vt 0.736816406 0.0154571533
vt 0.736816406 0.044921875
vt 0.743164062 0.0449523926
vt 0.743652344 0.0154724121
vt 0.716796875 0.0448913574
vt 0.723632812 0.0448913574
vt 0.723632812 0.0154190063
vt 0.716796875 0.015411377
vn -0.975585938 -0.220336914 0
vn -0.69140625 -0.208129883 0.69140625
vn -0 -0.220336914 0.975585938
vn -0 -1 0
vn -0.69140625 -0.208129883 -0.69140625
vn -0 -0.220336914 -0.975585938
vn 0.69140625 -0.208129883 -0.69140625
vn 0.975585938 -0.220336914 0
vn 0.69140625 -0.208129883 0.69140625
vn -0.706054688 0.0484313965 0.706054688
vn -0.379150391 0.925292969 0
vn -0.280029297 0.918457031 0.280029297
vn -0.999023438 0.0488891602 0
vn -0.279785156 0.918457031 -0.280029297
vn -0.706054688 0.0484313965 -0.706054688
vn -0.280029297 0.918457031 0.280029297
vn -2.98023224E-07 0.0488891602 0.999023438
vn -0.706054688 0.0484313965 0.706054688
vn 1.1920929E-07 0.925292969 0.379150391
vn 0.706054688 0.0484008789 0.706054688
vn 0.280029297 0.918457031 0.280029297
vn -0.706054688 0.0484313965 -0.706054688
vn 1.1920929E-07 0.925292969 -0.379150391
vn -0.279785156 0.918457031 -0.280029297
vn -2.38418579E-07 0.0488891602 -0.999023438
vn 0.280029297 0.918457031 -0.280029297
vn 0.706054688 0.0484008789 -0.706054688
vn 0.280029297 0.918457031 0.280029297
vn 0.999023438 0.0488586426 1.1920929E-07
vn 0.706054688 0.0484008789 0.706054688
vn 0.379150391 0.925292969 7.15255737E-07
vn 0.706054688 0.0484008789 -0.706054688
vn 0.280029297 0.918457031 -0.280029297
vn -0.69140625 -0.208129883 0.69140625
vn -0.706054688 0.0484313965 0.706054688
vn -2.98023224E-07 0.0488891602 0.999023438
vn -0 -0.220336914 0.975585938
vn 0.69140625 -0.208129883 0.69140625
vn 0.706054688 0.0484008789 0.706054688
vn -0.379150391 0.925292969 0
vn -0.279785156 0.918457031 -0.280029297
vn 1.1920929E-07 0.925292969 -0.379150391
vn -0 1 0
vn -0.280029297 0.918457031 0.280029297
vn 1.1920929E-07 0.925292969 0.379150391
vn 0.280029297 0.918457031 0.280029297
vn 0.379150391 0.925292969 7.15255737E-07
vn 0.280029297 0.918457031 -0.280029297
vn -0.706054688 0.0484313965 -0.706054688
vn -0.69140625 -0.208129883 -0.69140625
vn -0 -0.220336914 -0.975585938
vn -2.38418579E-07 0.0488891602 -0.999023438
vn 0.706054688 0.0484008789 -0.706054688
vn 0.69140625 -0.208129883 -0.69140625
vn 0.999023438 0.0488586426 1.1920929E-07
vn 0.706054688 0.0484008789 -0.706054688
vn 0.69140625 -0.208129883 -0.69140625
vn 0.975585938 -0.220336914 0
vn -0.69140625 -0.208129883 -0.69140625
vn -0.706054688 0.0484313965 -0.706054688
vn -0.999023438 0.0488891602 0
vn -0.975585938 -0.220336914 0
vn 0.69140625 -0.208129883 0.69140625
vn 0.706054688 0.0484008789 0.706054688
vn 0.999023438 0.0488586426 1.1920929E-07
vn 0.975585938 -0.220336914 0
vn -0.999023438 0.0488891602 0
vn -0.706054688 0.0484313965 0.706054688
vn -0.69140625 -0.208129883 0.69140625
vn -0.975585938 -0.220336914 0
g Pepper_0
f 3/3/3 2/2/2 1/1/1
f 4/4/4 3/3/3 1/1/1
f 4/4/4 1/1/1 5/5/5
f 6/6/6 4/4/4 5/5/5
f 6/6/6 7/7/7 4/4/4
f 7/7/7 8/8/8 4/4/4
f 4/4/4 8/8/8 3/3/3
f 8/8/8 9/9/9 3/3/3
f 12/12/12 11/11/11 10/10/10
f 11/11/11 13/13/13 10/10/10
f 13/13/13 11/11/11 14/14/14
f 15/15/15 13/13/13 14/14/14
f 18/18/18 17/17/17 16/16/16
f 17/17/17 19/19/19 16/16/16
f 17/17/17 20/20/20 19/19/19
f 20/20/20 21/21/21 19/19/19
f 24/24/24 23/23/23 22/22/22
f 23/23/23 25/25/25 22/22/22
f 23/23/23 26/26/26 25/25/25
f 26/26/26 27/27/27 25/25/25
f 30/30/30 29/29/29 28/28/28
f 29/29/29 31/31/31 28/28/28
f 29/29/29 32/32/32 31/31/31
f 32/32/32 33/33/33 31/31/31
f 36/36/36 35/35/35 34/34/34
f 37/37/37 36/36/36 34/34/34
f 37/37/37 38/38/38 36/36/36
f 38/38/38 39/39/39 36/36/36
f 42/42/42 41/41/41 40/40/40
f 43/43/43 42/42/42 40/40/40
f 43/43/43 40/40/40 44/44/44
f 45/45/45 43/43/43 44/44/44
f 45/45/45 46/46/46 43/43/43
f 46/46/46 47/47/47 43/43/43
f 43/43/43 47/47/47 42/42/42
f 47/47/47 48/48/48 42/42/42
f 51/51/51 50/50/50 49/49/49
f 52/52/52 51/51/51 49/49/49
f 52/52/52 53/53/53 51/51/51
f 53/53/53 54/54/54 51/51/51
f 57/57/57 56/56/56 55/55/55
f 58/58/58 57/57/57 55/55/55
f 61/61/61 60/60/60 59/59/59
f 62/62/62 61/61/61 59/59/59
f 65/65/65 64/64/64 63/63/63
f 66/66/66 65/65/65 63/63/63
f 69/69/69 68/68/68 67/67/67
f 70/70/70 69/69/69 67/67/67
