g Exterior_Tree_B_LOD3
v -1.97625195E-06 -3.84854841 2.72150629E-07
v 3.93088865 -3.20822573 -1.27722299
v -1.98364251E-06 -3.20822573 -4.1331811
v -1.97625195E-06 -3.84854841 2.72150629E-07
v -1.98364251E-06 -3.20822573 -4.1331811
v -3.93089104 -3.20822573 -1.27722239
v -1.97625195E-06 -3.84854841 2.72150629E-07
v -3.93089104 -3.20822573 -1.27722239
v -2.10682083E-06 -3.20822573 4.13318157
v -1.97625195E-06 -3.84854841 2.72150629E-07
v -2.10682083E-06 -3.20822573 4.13318157
v 3.93088865 -3.20822573 -1.27722299
v 0.0242386293 -7.42883825 -0.440044254
v 0.0160537772 -2.85880494 -0.307577252
v -0.310528666 -2.85880494 -0.0653669834
v -0.442995816 -7.42883825 -0.0419236906
v 0.437093884 -7.42883825 -0.0419236906
v 0.304627031 -2.85880494 -0.0653669834
v 0.0160537772 -2.85880494 -0.307577252
v 0.0242386293 -7.42883825 -0.440044254
v 0.0242386293 -7.42883825 0.440045476
v -0.442995816 -7.42883825 -0.0419236906
v -0.310528666 -2.85880494 -0.0653669834
v 0.0160537772 -2.85880494 0.307578474
v 0.437093884 -7.42883825 -0.0419236906
v 0.0242386293 -7.42883825 0.440045476
v 0.0160537772 -2.85880494 0.307578474
v 0.304627031 -2.85880494 -0.0653669834
v 2.37798858 -1.18770456 -0.772655308
v -8.53036966E-07 -1.18770576 -2.50036502
v -1.98364251E-06 -3.20822573 -4.1331811
v 3.93088865 -3.20822573 -1.27722299
v -8.53036966E-07 -1.18770576 -2.50036502
v -2.37798905 -1.18770576 -0.77265501
v -3.93089104 -3.20822573 -1.27722239
v -1.98364251E-06 -3.20822573 -4.1331811
v -2.37798905 -1.18770576 -0.77265501
v -9.27553629E-07 -1.18770576 2.50036526
v -2.10682083E-06 -3.20822573 4.13318157
v -3.93089104 -3.20822573 -1.27722239
v -9.27553629E-07 -1.18770576 2.50036526
v 2.37798858 -1.18770456 -0.772655308
v 3.93088865 -3.20822573 -1.27722299
v -2.10682083E-06 -3.20822573 4.13318157
v 3.2104485 -0.462688118 -1.04313707
v -6.73954275E-07 -0.462688118 -3.375664
v -8.53036966E-07 -1.18770576 -2.50036502
v 2.37798858 -1.18770456 -0.772655308
v -6.73954275E-07 -0.462688118 -3.375664
v -3.21044803 -0.462688118 -1.0431366
v -2.37798905 -1.18770576 -0.77265501
v -8.53036966E-07 -1.18770576 -2.50036502
v -3.21044803 -0.462688118 -1.0431366
v -7.74556838E-07 -0.462688118 3.37566423
v -9.27553629E-07 -1.18770576 2.50036526
v -2.37798905 -1.18770576 -0.77265501
v -7.74556838E-07 -0.462688118 3.37566423
v 3.2104485 -0.462688118 -1.04313707
v 2.37798858 -1.18770456 -0.772655308
v -9.27553629E-07 -1.18770576 2.50036526
v -7.46305886E-07 2.02076221 -1.66063547
v -6.73954275E-07 -0.462688118 -3.375664
v 3.2104485 -0.462688118 -1.04313707
v 1.57935834 2.02076221 -0.513164222
v -1.57935929 2.02076221 -0.513164103
v -3.21044803 -0.462688118 -1.0431366
v -6.73954275E-07 -0.462688118 -3.375664
v -7.46305886E-07 2.02076221 -1.66063547
v -7.95796666E-07 2.02076221 1.66063607
v -7.74556838E-07 -0.462688118 3.37566423
v -3.21044803 -0.462688118 -1.0431366
v -1.57935929 2.02076221 -0.513164103
v 1.57935834 2.02076221 -0.513164222
v 3.2104485 -0.462688118 -1.04313707
v -7.74556838E-07 -0.462688118 3.37566423
v -7.95796666E-07 2.02076221 1.66063607
v 0.920049727 4.41829538 -0.298941821
v -6.84282838E-07 2.51166415 -2.35707998
v 2.24171686 2.51166415 -0.728377283
v -7.47208105E-07 4.41829538 -0.967397451
v -7.62939408E-07 7.42883825 6.10351549E-07
v -7.47208105E-07 4.41829538 -0.967397451
v -2.24171758 2.51166415 -0.728377044
v -6.84282838E-07 2.51166415 -2.35707998
v -0.9200508 4.41829538 -0.298941731
v -7.62939408E-07 7.42883825 6.10351549E-07
v -0.9200508 4.41829538 -0.298941731
v -7.5452931E-07 2.51166415 2.3570807
v -2.24171758 2.51166415 -0.728377044
v -7.76038803E-07 4.41829538 0.967398405
v -7.62939408E-07 7.42883825 6.10351549E-07
v -7.76038803E-07 4.41829538 0.967398405
v 2.24171686 2.51166415 -0.728377283
v -7.5452931E-07 2.51166415 2.3570807
v 0.920049727 4.41829538 -0.298941821
v -7.62939408E-07 7.42883825 6.10351549E-07
v -7.5452931E-07 2.51166415 2.3570807
v -7.95796666E-07 2.02076221 1.66063607
v -1.57935929 2.02076221 -0.513164103
v -2.24171758 2.51166415 -0.728377044
v -2.24171758 2.51166415 -0.728377044
v -1.57935929 2.02076221 -0.513164103
v -7.46305886E-07 2.02076221 -1.66063547
v -6.84282838E-07 2.51166415 -2.35707998
v -6.84282838E-07 2.51166415 -2.35707998
v -7.46305886E-07 2.02076221 -1.66063547
v 1.57935834 2.02076221 -0.513164222
v 2.24171686 2.51166415 -0.728377283
v 2.24171686 2.51166415 -0.728377283
v 1.57935834 2.02076221 -0.513164222
v -7.95796666E-07 2.02076221 1.66063607
v -7.5452931E-07 2.51166415 2.3570807
vt 0.467285156 0.128540039
vt 0.579589844 0.0921630859
vt 0.467285156 0.0107116699
vt 0.467285156 0.128540039
vt 0.467285156 0.0107116699
vt 0.355224609 0.0921630859
vt 0.467285156 0.128540039
vt 0.355224609 0.0921630859
vt 0.467285156 0.246459961
vt 0.467285156 0.128540039
vt 0.467285156 0.246459961
vt 0.579589844 0.0921630859
vt 0.136352539 0.270263672
vt 0.135986328 0.483886719
vt 0.15625 0.483886719
vt 0.170410156 0.270751953
vt 0.200195312 0.270751953
vt 0.212402344 0.484130859
vt 0.230712891 0.483886719
vt 0.230957031 0.270263672
vt 0.233886719 0.284667969
vt 0.170410156 0.270751953
vt 0.15625 0.483886719
vt 0.195678711 0.485351562
vt 0.200195312 0.270751953
vt 0.138793945 0.283203125
vt 0.175048828 0.485351562
vt 0.212402344 0.484130859
vt 0.415039062 0.189575195
vt 0.541015625 0.157592773
vt 0.526855469 0.0618591309
vt 0.361572266 0.116699219
vt 0.338134766 0.158813477
vt 0.476318359 0.16809082
vt 0.496337891 0.0734863281
vt 0.323730469 0.0631103516
vt 0.351806641 0.170654297
vt 0.5 0.170654297
vt 0.57421875 0.0791015625
vt 0.329101562 0.0791015625
vt 0.330810547 0.156860352
vt 0.522460938 0.19128418
vt 0.581542969 0.116027832
vt 0.321289062 0.0601806641
vt 0.381347656 0.112365723
vt 0.515136719 0.0784912109
vt 0.512207031 0.0391845703
vt 0.385498047 0.0678100586
vt 0.352539062 0.0785522461
vt 0.478515625 0.0900268555
vt 0.487548828 0.052154541
vt 0.349609375 0.0392456055
vt 0.3515625 0.0850219727
vt 0.551757812 0.0850219727
vt 0.512207031 0.0521850586
vt 0.363769531 0.0521850586
vt 0.358398438 0.0789794922
vt 0.549316406 0.116455078
vt 0.545410156 0.0756225586
vt 0.353759766 0.0399780273
vt 0.521484375 0.190307617
vt 0.515136719 0.0784912109
vt 0.381347656 0.112365723
vt 0.439941406 0.212280273
vt 0.446044922 0.196899414
vt 0.478515625 0.0900268555
vt 0.352539062 0.0785522461
vt 0.358642578 0.190429688
vt 0.473876953 0.197509766
vt 0.551757812 0.0850219727
vt 0.3515625 0.0850219727
vt 0.375488281 0.197509766
vt 0.491943359 0.211547852
vt 0.549316406 0.116455078
vt 0.358398438 0.0789794922
vt 0.365234375 0.19128418
vt 0.452148438 0.135009766
vt 0.488525391 0.0378112793
vt 0.400634766 0.0595397949
vt 0.495849609 0.124145508
vt 0.501953125 0.24206543
vt 0.394775391 0.124145508
vt 0.465087891 0.0469665527
vt 0.387207031 0.0378112793
vt 0.439941406 0.130981445
vt 0.400878906 0.24206543
vt 0.401123047 0.110961914
vt 0.521484375 0.0246124268
vt 0.381591797 0.0246124268
vt 0.458496094 0.110961914
vt 0.414794922 0.247314453
vt 0.402832031 0.125854492
vt 0.519042969 0.0538635254
vt 0.387939453 0.0389404297
vt 0.469726562 0.137695312
vt 0.414550781 0.244018555
vt 0.521484375 0.0246124268
vt 0.489990234 0.0023765564
vt 0.391357422 0.0023765564
vt 0.381591797 0.0246124268
vt 0.465087891 0.0469665527
vt 0.475341797 0.0205230713
vt 0.388183594 0.00937652588
vt 0.387207031 0.0378112793
vt 0.488525391 0.0378112793
vt 0.489501953 0.00937652588
vt 0.406982422 0.0269927979
vt 0.400634766 0.0595397949
vt 0.519042969 0.0538635254
vt 0.512207031 0.0179748535
vt 0.383789062 0.010635376
vt 0.387939453 0.0389404297
vn 0.110534668 -0.981933594 -0.152099609
vn 0.110534668 -0.981933594 -0.152099609
vn 0.110534668 -0.981933594 -0.152099609
vn -0.110534668 -0.981933594 -0.152099609
vn -0.110534668 -0.981933594 -0.152099609
vn -0.110534668 -0.981933594 -0.152099609
vn -0.206176758 -0.966796875 0.149780273
vn -0.206176758 -0.966796875 0.149780273
vn -0.206176758 -0.966796875 0.149780273
vn 0.206176758 -0.966796875 0.149780273
vn 0.206176758 -0.966796875 0.149780273
vn 0.206176758 -0.966796875 0.149780273
vn 0.00036740303 0.0243377686 -0.999511719
vn -0.000388622284 0.0243377686 -0.999511719
vn -0.999511719 0.0289764404 -0.0037021637
vn -0.999511719 0.0289764404 0.00304412842
vn 0.999511719 0.0289764404 0.0028591156
vn 0.999511719 0.0289764404 -0.00348472595
vn -0.000388622284 0.0243377686 -0.999511719
vn 0.00036740303 0.0243377686 -0.999511719
vn 0.000446081161 0.0335998535 0.999511719
vn -0.999511719 0.0289764404 0.00304412842
vn -0.999511719 0.0289764404 -0.0037021637
vn -0.000415086746 0.0335998535 0.999511719
vn 0.999511719 0.0289764404 0.0028591156
vn 0.000446081161 0.0335998535 0.999511719
vn -0.000415086746 0.0335998535 0.999511719
vn 0.999511719 0.0289764404 -0.00348472595
vn 0.961425781 0.272216797 0.0366210938
vn -0 0.291748047 -0.956542969
vn -1.78813934E-07 0.628417969 -0.777832031
vn 0.78515625 0.616699219 -0.0530700684
vn -0 0.291748047 -0.956542969
vn -0.961425781 0.272216797 0.0366210938
vn -0.78515625 0.616699219 -0.0530700684
vn -1.78813934E-07 0.628417969 -0.777832031
vn -0.961425781 0.272216797 0.0366210938
vn 2.38418579E-07 0.285644531 0.958496094
vn -0 0.628417969 0.777832031
vn -0.78515625 0.616699219 -0.0530700684
vn 2.38418579E-07 0.285644531 0.958496094
vn 0.961425781 0.272216797 0.0366210938
vn 0.78515625 0.616699219 -0.0530700684
vn -0 0.628417969 0.777832031
vn 0.967285156 0.244750977 -0.0645141602
vn -0 0.239990234 -0.970703125
vn -0 0.291748047 -0.956542969
vn 0.961425781 0.272216797 0.0366210938
vn -0 0.239990234 -0.970703125
vn -0.967285156 0.244750977 -0.0645141602
vn -0.961425781 0.272216797 0.0366210938
vn -0 0.291748047 -0.956542969
vn -0.967285156 0.244750977 -0.0645141602
vn -0 0.265625 0.963867188
vn 2.38418579E-07 0.285644531 0.958496094
vn -0.961425781 0.272216797 0.0366210938
vn -0 0.265625 0.963867188
vn 0.967285156 0.244750977 -0.0645141602
vn 0.961425781 0.272216797 0.0366210938
vn 2.38418579E-07 0.285644531 0.958496094
vn -0 0.357421875 -0.934082031
vn -0 0.239990234 -0.970703125
vn 0.967285156 0.244750977 -0.0645141602
vn 0.941894531 0.334960938 0.0327758789
vn -0.941894531 0.334960938 0.0327758789
vn -0.967285156 0.244750977 -0.0645141602
vn -0 0.239990234 -0.970703125
vn -0 0.357421875 -0.934082031
vn -0 0.350341797 0.936523438
vn -0 0.265625 0.963867188
vn -0.967285156 0.244750977 -0.0645141602
vn -0.941894531 0.334960938 0.0327758789
vn 0.941894531 0.334960938 0.0327758789
vn 0.967285156 0.244750977 -0.0645141602
vn -0 0.265625 0.963867188
vn -0 0.350341797 0.936523438
vn 0.858398438 0.512695312 0.0172424316
vn -0 0.258544922 -0.965820312
vn 0.961425781 0.266601562 -0.0686645508
vn -0 0.53125 -0.847167969
vn 3.57627869E-07 0.894042969 0.447509766
vn -0 0.53125 -0.847167969
vn -0.961425781 0.266601562 -0.0686645508
vn -0 0.258544922 -0.965820312
vn -0.858398438 0.512695312 0.0172424316
vn 3.57627869E-07 0.894042969 0.447509766
vn -0.858398438 0.512695312 0.0172424316
vn -0 0.291992188 0.956542969
vn -0.961425781 0.266601562 -0.0686645508
vn -0 0.537109375 0.84375
vn 3.57627869E-07 0.894042969 0.447509766
vn -0 0.537109375 0.84375
vn 0.961425781 0.266601562 -0.0686645508
vn -0 0.291992188 0.956542969
vn 0.858398438 0.512695312 0.0172424316
vn 3.57627869E-07 0.894042969 0.447509766
vn -0 0.291992188 0.956542969
vn -0 0.350341797 0.936523438
vn -0.941894531 0.334960938 0.0327758789
vn -0.961425781 0.266601562 -0.0686645508
vn -0.961425781 0.266601562 -0.0686645508
vn -0.941894531 0.334960938 0.0327758789
vn -0 0.357421875 -0.934082031
vn -0 0.258544922 -0.965820312
vn -0 0.258544922 -0.965820312
vn -0 0.357421875 -0.934082031
vn 0.941894531 0.334960938 0.0327758789
vn 0.961425781 0.266601562 -0.0686645508
vn 0.961425781 0.266601562 -0.0686645508
vn 0.941894531 0.334960938 0.0327758789
vn -0 0.350341797 0.936523438
vn -0 0.291992188 0.956542969
g Exterior_Tree_B_LOD3_0
f 3/3/3 2/2/2 1/1/1
f 6/6/6 5/5/5 4/4/4
f 9/9/9 8/8/8 7/7/7
f 12/12/12 11/11/11 10/10/10
f 15/15/15 14/14/14 13/13/13
f 16/16/16 15/15/15 13/13/13
f 19/19/19 18/18/18 17/17/17
f 20/20/20 19/19/19 17/17/17
f 23/23/23 22/22/22 21/21/21
f 24/24/24 23/23/23 21/21/21
f 27/27/27 26/26/26 25/25/25
f 28/28/28 27/27/27 25/25/25
f 31/31/31 30/30/30 29/29/29
f 32/32/32 31/31/31 29/29/29
f 35/35/35 34/34/34 33/33/33
f 36/36/36 35/35/35 33/33/33
f 39/39/39 38/38/38 37/37/37
f 40/40/40 39/39/39 37/37/37
f 43/43/43 42/42/42 41/41/41
f 44/44/44 43/43/43 41/41/41
f 47/47/47 46/46/46 45/45/45
f 48/48/48 47/47/47 45/45/45
f 51/51/51 50/50/50 49/49/49
f 52/52/52 51/51/51 49/49/49
f 55/55/55 54/54/54 53/53/53
f 56/56/56 55/55/55 53/53/53
f 59/59/59 58/58/58 57/57/57
f 60/60/60 59/59/59 57/57/57
f 63/63/63 62/62/62 61/61/61
f 64/64/64 63/63/63 61/61/61
f 67/67/67 66/66/66 65/65/65
f 68/68/68 67/67/67 65/65/65
f 71/71/71 70/70/70 69/69/69
f 72/72/72 71/71/71 69/69/69
f 75/75/75 74/74/74 73/73/73
f 76/76/76 75/75/75 73/73/73
f 79/79/79 78/78/78 77/77/77
f 78/78/78 80/80/80 77/77/77
f 77/77/77 80/80/80 81/81/81
f 84/84/84 83/83/83 82/82/82
f 83/83/83 85/85/85 82/82/82
f 82/82/82 85/85/85 86/86/86
f 89/89/89 88/88/88 87/87/87
f 88/88/88 90/90/90 87/87/87
f 87/87/87 90/90/90 91/91/91
f 94/94/94 93/93/93 92/92/92
f 93/93/93 95/95/95 92/92/92
f 92/92/92 95/95/95 96/96/96
f 99/99/99 98/98/98 97/97/97
f 100/100/100 99/99/99 97/97/97
f 103/103/103 102/102/102 101/101/101
f 104/104/104 103/103/103 101/101/101
f 107/107/107 106/106/106 105/105/105
f 108/108/108 107/107/107 105/105/105
f 111/111/111 110/110/110 109/109/109
f 112/112/112 111/111/111 109/109/109
