g Beam_Sturcture_5
v -0.0996233001 1.08127952 0.109998584
v -0.0996233001 2.82380152 -0.440156519
v 0.0996223018 2.82380152 -0.440156519
v 0.0996223018 1.08127952 0.109998584
v 0.0996223018 1.08127952 0.109998584
v 0.0996223018 2.82380152 -0.440156519
v 0.0996223018 2.80694056 -0.686819732
v 0.0996223018 1.06441915 -0.136664078
v 0.0996223018 1.06441915 -0.136664078
v 0.0996223018 2.80694056 -0.686819732
v -0.0996233001 2.80694056 -0.686819732
v -0.0996233001 1.06441915 -0.136664078
v -0.0996233001 1.06441915 -0.136664078
v -0.0996233001 2.80694056 -0.686819732
v -0.0996233001 2.82380152 -0.440156519
v -0.0996233001 1.08127952 0.109998584
v -0.21887134 -2.82380128 0.686819911
v -0.21887134 -2.74571395 0.684297919
v 0.218870342 -2.74571395 0.684297919
v 0.218870342 -2.82380128 0.686819911
v -0.21887134 -2.78275728 0.142375901
v -0.21887134 -2.82380152 0.144897878
v 0.218870342 -2.82380152 0.144897878
v 0.218870342 -2.78275728 0.142375901
v -0.21887134 -2.82380152 0.144897878
v -0.21887134 -2.82380128 0.686819911
v 0.218870342 -2.82380128 0.686819911
v 0.218870342 -2.82380152 0.144897878
v 0.218870342 -2.82380128 0.686819911
v 0.218870342 -2.74571395 0.684297919
v 0.218870342 -2.78275728 0.142375901
v 0.218870342 -2.82380152 0.144897878
v -0.21887134 -2.82380152 0.144897878
v -0.21887134 -2.78275728 0.142375901
v -0.21887134 -2.74571395 0.684297919
v -0.21887134 -2.82380128 0.686819911
v -0.0996233001 -2.75580502 0.536669135
v -0.0996233001 -0.748483479 0.399458408
v 0.0996223018 -0.748483479 0.399458408
v 0.0996223018 -2.75580502 0.536669135
v 0.0996223018 -2.75580502 0.536669135
v 0.0996223018 -0.748483479 0.399458408
v 0.0996223018 -0.765344322 0.15279521
v 0.0996223018 -2.77266598 0.290005893
v 0.0996223018 -2.77266598 0.290005893
v 0.0996223018 -0.765344322 0.15279521
v -0.0996233001 -0.765344322 0.15279521
v -0.0996233001 -2.77266598 0.290005893
v -0.0996233001 -2.77266598 0.290005893
v -0.0996233001 -0.765344322 0.15279521
v -0.0996233001 -0.748483479 0.399458408
v -0.0996233001 -2.75580502 0.536669135
v -0.0996233001 -0.748483479 0.399458408
v -0.0996233001 1.08127952 0.109998584
v 0.0996223018 1.08127952 0.109998584
v 0.0996223018 -0.748483479 0.399458408
v -0.0996233001 -0.765344322 0.15279521
v -0.0996233001 1.06441915 -0.136664078
v -0.0996233001 1.08127952 0.109998584
v -0.0996233001 -0.748483479 0.399458408
v 0.0996223018 -0.765344322 0.15279521
v 0.0996223018 1.06441915 -0.136664078
v -0.0996233001 1.06441915 -0.136664078
v -0.0996233001 -0.765344322 0.15279521
v 0.0996223018 -0.748483479 0.399458408
v 0.0996223018 1.08127952 0.109998584
v 0.0996223018 1.06441915 -0.136664078
v 0.0996223018 -0.765344322 0.15279521
v -0.0996233001 2.82380152 -0.440156519
v -0.0996233001 2.80694056 -0.686819732
v 0.0996223018 2.80694056 -0.686819732
v 0.0996223018 2.82380152 -0.440156519
v 0.218870342 -2.78275728 0.142375901
v -0.0996233001 -2.77266598 0.290005893
v -0.21887134 -2.78275728 0.142375901
v 0.0996223018 -2.77266598 0.290005893
v -0.0996233001 -2.75580502 0.536669135
v 0.218870342 -2.74571395 0.684297919
v -0.21887134 -2.74571395 0.684297919
v 0.0996223018 -2.75580502 0.536669135
vt 0.0129318237 0.470214844
vt 0.0129318237 0.935546875
vt 0.0629882812 0.935546875
vt 0.0629882812 0.470214844
vt 0.0129318237 0.470214844
vt 0.0129318237 0.935546875
vt 0.0629882812 0.935546875
vt 0.0629882812 0.470214844
vt 0.0629882812 0.935546875
vt 0.0629882812 0.470214844
vt 0.0129318237 0.470214844
vt 0.0129318237 0.935546875
vt 0.0129318237 0.470214844
vt 0.0129318237 0.935546875
vt 0.0629882812 0.935546875
vt 0.0629882812 0.470214844
vt 0.0593566895 0.608398438
vt 0.0531311035 0.608398438
vt 0.0531311035 0.537597656
vt 0.0593566895 0.537597656
vt 0.0593566895 0.608398438
vt 0.0531311035 0.608398438
vt 0.0531311035 0.537597656
vt 0.0593566895 0.537597656
vt 0.341064453 0.848632812
vt 0.390380859 0.848632812
vt 0.390380859 0.786621094
vt 0.341064453 0.786621094
vt 0.0593566895 0.608398438
vt 0.0531311035 0.608398438
vt 0.0531311035 0.537597656
vt 0.0593566895 0.537597656
vt 0.0593566895 0.608398438
vt 0.0531311035 0.608398438
vt 0.0531311035 0.537597656
vt 0.0593566895 0.537597656
vt 0.0129318237 0.470214844
vt 0.0129318237 0.935546875
vt 0.0629882812 0.935546875
vt 0.0629882812 0.470214844
vt 0.0129318237 0.470214844
vt 0.0129318237 0.935546875
vt 0.0629882812 0.935546875
vt 0.0629882812 0.470214844
vt 0.0629882812 0.935546875
vt 0.0629882812 0.470214844
vt 0.0129318237 0.470214844
vt 0.0129318237 0.935546875
vt 0.0129318237 0.470214844
vt 0.0129318237 0.935546875
vt 0.0629882812 0.935546875
vt 0.0629882812 0.470214844
vt 0.0129318237 0.470214844
vt 0.0129318237 0.935546875
vt 0.0629882812 0.935546875
vt 0.0629882812 0.470214844
vt 0.0129318237 0.470214844
vt 0.0129318237 0.935546875
vt 0.0629882812 0.935546875
vt 0.0629882812 0.470214844
vt 0.0629882812 0.935546875
vt 0.0629882812 0.470214844
vt 0.0129318237 0.470214844
vt 0.0129318237 0.935546875
vt 0.0129318237 0.470214844
vt 0.0129318237 0.935546875
vt 0.0629882812 0.935546875
vt 0.0629882812 0.470214844
vt 0.0629272461 0.751464844
vt 0.0629272461 0.711914062
vt 0.0130767822 0.711914062
vt 0.0130767822 0.751464844
vt 0.390136719 0.786621094
vt 0.376708984 0.83203125
vt 0.390136719 0.848632812
vt 0.376708984 0.803710938
vt 0.354248047 0.83203125
vt 0.340820312 0.786621094
vt 0.340820312 0.848632812
vt 0.354248047 0.803710938
vn -0 0.301025391 0.953613281
vn -0 0.301025391 0.953613281
vn -0 0.301025391 0.953613281
vn -0 0.301025391 0.953613281
vn 1 0 0
vn 1 0 0
vn 1 0 0
vn 1 0 0
vn -0 -0.301025391 -0.953613281
vn -0 -0.301025391 -0.953613281
vn -0 -0.301025391 -0.953613281
vn -0 -0.301025391 -0.953613281
vn -1 0 0
vn -1 0 0
vn -1 0 0
vn -1 0 0
vn -0 0.0681762695 0.997558594
vn -0 0.0681762695 0.997558594
vn -0 0.0681762695 0.997558594
vn -0 0.0681762695 0.997558594
vn -0 -0.0681762695 -0.997558594
vn -0 -0.0681762695 -0.997558594
vn -0 -0.0681762695 -0.997558594
vn -0 -0.0681762695 -0.997558594
vn -0 -0.997558594 0.0681762695
vn -0 -0.997558594 0.0681762695
vn -0 -0.997558594 0.0681762695
vn -0 -0.997558594 0.0681762695
vn 1 8.94069672E-06 0
vn 1 8.94069672E-06 0
vn 1 8.94069672E-06 0
vn 1 8.94069672E-06 0
vn -1 1.22785568E-05 0
vn -1 1.22785568E-05 0
vn -1 1.22785568E-05 0
vn -1 1.22785568E-05 0
vn -0 0.0681762695 0.997558594
vn -0 0.110534668 0.993652344
vn -0 0.110534668 0.993652344
vn -0 0.0681762695 0.997558594
vn 1 0 0
vn 1 4.17232513E-07 0
vn 1 4.17232513E-07 0
vn 1 0 0
vn -0 -0.0681762695 -0.997558594
vn -0 -0.110534668 -0.993652344
vn -0 -0.110534668 -0.993652344
vn -0 -0.0681762695 -0.997558594
vn -1 0 0
vn -1 0 0
vn -1 0 0
vn -1 0 0
vn -0 0.110534668 0.993652344
vn -0 0.15625 0.987792969
vn -0 0.15625 0.987792969
vn -0 0.110534668 0.993652344
vn -1 0 0
vn -1 0 0
vn -1 0 0
vn -1 0 0
vn -0 -0.110534668 -0.993652344
vn -0 -0.15625 -0.987792969
vn -0 -0.15625 -0.987792969
vn -0 -0.110534668 -0.993652344
vn 1 4.17232513E-07 0
vn 1 8.34465027E-07 0
vn 1 8.34465027E-07 0
vn 1 4.17232513E-07 0
vn -0 0.997558594 -0.0681762695
vn -0 0.997558594 -0.0681762695
vn -0 0.997558594 -0.0681762695
vn -0 0.997558594 -0.0681762695
vn 1.78813934E-07 0.997558594 -0.0681762695
vn -0 0.997558594 -0.0681762695
vn -0 0.997558594 -0.0681762695
vn 1.78813934E-07 0.997558594 -0.0681762695
vn -0 0.997558594 -0.0681762695
vn -0 0.997558594 -0.0681762695
vn -0 0.997558594 -0.0681762695
vn -0 0.997558594 -0.0681762695
g Beam_Sturcture_5_0
f 3/3/3 2/2/2 1/1/1
f 4/4/4 3/3/3 1/1/1
f 7/7/7 6/6/6 5/5/5
f 8/8/8 7/7/7 5/5/5
f 11/11/11 10/10/10 9/9/9
f 12/12/12 11/11/11 9/9/9
f 15/15/15 14/14/14 13/13/13
f 16/16/16 15/15/15 13/13/13
f 19/19/19 18/18/18 17/17/17
f 20/20/20 19/19/19 17/17/17
f 23/23/23 22/22/22 21/21/21
f 24/24/24 23/23/23 21/21/21
f 27/27/27 26/26/26 25/25/25
f 28/28/28 27/27/27 25/25/25
f 31/31/31 30/30/30 29/29/29
f 32/32/32 31/31/31 29/29/29
f 35/35/35 34/34/34 33/33/33
f 36/36/36 35/35/35 33/33/33
f 39/39/39 38/38/38 37/37/37
f 40/40/40 39/39/39 37/37/37
f 43/43/43 42/42/42 41/41/41
f 44/44/44 43/43/43 41/41/41
f 47/47/47 46/46/46 45/45/45
f 48/48/48 47/47/47 45/45/45
f 51/51/51 50/50/50 49/49/49
f 52/52/52 51/51/51 49/49/49
f 55/55/55 54/54/54 53/53/53
f 56/56/56 55/55/55 53/53/53
f 59/59/59 58/58/58 57/57/57
f 60/60/60 59/59/59 57/57/57
f 63/63/63 62/62/62 61/61/61
f 64/64/64 63/63/63 61/61/61
f 67/67/67 66/66/66 65/65/65
f 68/68/68 67/67/67 65/65/65
f 71/71/71 70/70/70 69/69/69
f 72/72/72 71/71/71 69/69/69
f 75/75/75 74/74/74 73/73/73
f 74/74/74 76/76/76 73/73/73
f 77/77/77 74/74/74 75/75/75
f 73/73/73 76/76/76 78/78/78
f 79/79/79 77/77/77 75/75/75
f 76/76/76 80/80/80 78/78/78
f 80/80/80 77/77/77 79/79/79
f 78/78/78 80/80/80 79/79/79
