g IS4_MDL_EscenarioPB_PosterVertical_8
v -0.488393426 0.00709510129 -0.0453532599
v -0.489848495 0.00709510129 -0.0272514522
v -0.489853382 -0.725034714 -0.0272526741
v -0.488398314 -0.725034714 -0.0453544781
v 0.00100599288 -0.725034714 -0.00601610029
v -0.00044908523 -0.725034714 0.012085706
v -0.00044908523 0.00709502492 0.012085706
v 0.00100599288 0.00709502492 -0.00601610029
v -0.489853382 -0.725034714 -0.0272526741
v -0.00044908523 -0.725034714 0.012085706
v 0.00100599288 -0.725034714 -0.00601610029
v -0.488398314 -0.725034714 -0.0453544781
v -0.0151170539 -0.0033747931 0.0109065063
v -0.0151170539 -0.71456486 0.0109065063
v -0.475185424 -0.71456486 -0.0260734744
v -0.475180537 -0.00337471697 -0.0260722544
v -0.473725468 -0.00337471697 -0.0441752821
v -0.473730356 -0.71456486 -0.0441752821
v -0.013661976 -0.71456486 -0.00719529949
v -0.013661976 -0.0033747931 -0.00719529949
v -0.489848495 0.00709510129 -0.0272514522
v -0.488393426 0.00709510129 -0.0453532599
v 0.00100599288 0.00709502492 -0.00601610029
v -0.00044908523 0.00709502492 0.012085706
v -0.00044908523 0.00709502492 0.012085706
v -0.0151170539 -0.0033747931 0.0109065063
v -0.475180537 -0.00337471697 -0.0260722544
v -0.489848495 0.00709510129 -0.0272514522
v -0.489848495 0.00709510129 -0.0272514522
v -0.475180537 -0.00337471697 -0.0260722544
v -0.475185424 -0.71456486 -0.0260734744
v -0.489853382 -0.725034714 -0.0272526741
v -0.489853382 -0.725034714 -0.0272526741
v -0.475185424 -0.71456486 -0.0260734744
v -0.0151170539 -0.71456486 0.0109065063
v -0.00044908523 -0.725034714 0.012085706
v -0.00044908523 -0.725034714 0.012085706
v -0.0151170539 -0.71456486 0.0109065063
v -0.0151170539 -0.0033747931 0.0109065063
v -0.00044908523 0.00709502492 0.012085706
v -0.488393426 0.00709510129 -0.0453532599
v -0.473725468 -0.00337471697 -0.0441752821
v -0.013661976 -0.0033747931 -0.00719529949
v 0.00100599288 0.00709502492 -0.00601610029
v 0.00100599288 0.00709502492 -0.00601610029
v -0.013661976 -0.0033747931 -0.00719529949
v -0.013661976 -0.71456486 -0.00719529949
v 0.00100599288 -0.725034714 -0.00601610029
v 0.00100599288 -0.725034714 -0.00601610029
v -0.013661976 -0.71456486 -0.00719529949
v -0.473730356 -0.71456486 -0.0441752821
v -0.488398314 -0.725034714 -0.0453544781
v -0.488398314 -0.725034714 -0.0453544781
v -0.473730356 -0.71456486 -0.0441752821
v -0.473725468 -0.00337471697 -0.0441752821
v -0.488393426 0.00709510129 -0.0453532599
vt 0.768554688 0.348632812
vt 0.775390625 0.348632812
vt 0.775390625 0.231689453
vt 0.768554688 0.231689453
vt 0.775390625 0.231689453
vt 0.768554688 0.231689453
vt 0.768554688 0.348632812
vt 0.775390625 0.348632812
vt 0.775390625 0.310058594
vt 0.775390625 0.231689453
vt 0.768554688 0.231689453
vt 0.768554688 0.310058594
vt 0.488525391 0.995117188
vt 0.488525391 0.78515625
vt 0.347900391 0.78515625
vt 0.347900391 0.995117188
vt 0.489013672 0.995117188
vt 0.489013672 0.78515625
vt 0.348388672 0.78515625
vt 0.348388672 0.995117188
vt 0.768554688 0.310058594
vt 0.775390625 0.310058594
vt 0.775390625 0.231689453
vt 0.768554688 0.231689453
vt 0.775390625 0.233398438
vt 0.768554688 0.235839844
vt 0.768554688 0.309570312
vt 0.775390625 0.311767578
vt 0.768554688 0.348632812
vt 0.775390625 0.346923828
vt 0.775390625 0.233276367
vt 0.768554688 0.231689453
vt 0.768554688 0.311767578
vt 0.775390625 0.309570312
vt 0.775390625 0.235839844
vt 0.768554688 0.233398438
vt 0.775390625 0.231689453
vt 0.768554688 0.233276367
vt 0.768554688 0.346923828
vt 0.775390625 0.348632812
vt 0.768554688 0.311767578
vt 0.775390625 0.309326172
vt 0.775390625 0.235717773
vt 0.768554688 0.233276367
vt 0.775390625 0.231689453
vt 0.768554688 0.233276367
vt 0.768554688 0.346923828
vt 0.775390625 0.348632812
vt 0.775390625 0.233276367
vt 0.768554688 0.235717773
vt 0.768554688 0.309326172
vt 0.775390625 0.311767578
vt 0.768554688 0.348632812
vt 0.775390625 0.346923828
vt 0.775390625 0.233276367
vt 0.768554688 0.231689453
vn -0.996582031 0 -0.0801391602
vn -0.996582031 0 -0.0801391602
vn -0.996582031 0 -0.0801391602
vn -0.996582031 0 -0.0801391602
vn 0.996582031 0 0.0801391602
vn 0.996582031 0 0.0801391602
vn 0.996582031 0 0.0801391602
vn 0.996582031 0 0.0801391602
vn -0 -1 0
vn -0 -1 0
vn -0 -1 0
vn -0 -1 0
vn -0.0801391602 -5.96046448E-07 0.996582031
vn -0.0801391602 -5.96046448E-07 0.996582031
vn -0.0801391602 -5.96046448E-07 0.996582031
vn -0.0801391602 -5.96046448E-07 0.996582031
vn 0.0801391602 0 -0.996582031
vn 0.0801391602 0 -0.996582031
vn 0.0801391602 0 -0.996582031
vn 0.0801391602 0 -0.996582031
vn 1.78813934E-07 1 1.96695328E-06
vn 1.78813934E-07 1 1.96695328E-06
vn 1.78813934E-07 1 1.96695328E-06
vn 1.78813934E-07 1 1.96695328E-06
vn -0.0801391602 -3.30209732E-05 0.996582031
vn -0.0801391602 -3.30209732E-05 0.996582031
vn -0.0801391602 -3.30209732E-05 0.996582031
vn -0.0801391602 -3.30209732E-05 0.996582031
vn -0.080078125 -1.13248825E-06 0.996582031
vn -0.080078125 -1.13248825E-06 0.996582031
vn -0.080078125 -1.13248825E-06 0.996582031
vn -0.080078125 -1.13248825E-06 0.996582031
vn -0.0801391602 2.4497509E-05 0.996582031
vn -0.0801391602 2.4497509E-05 0.996582031
vn -0.0801391602 2.4497509E-05 0.996582031
vn -0.0801391602 2.4497509E-05 0.996582031
vn -0.0802001953 0 0.996582031
vn -0.0802001953 0 0.996582031
vn -0.0802001953 0 0.996582031
vn -0.0802001953 0 0.996582031
vn 0.0801391602 6.85453415E-05 -0.996582031
vn 0.0801391602 6.85453415E-05 -0.996582031
vn 0.0801391602 6.85453415E-05 -0.996582031
vn 0.0801391602 6.85453415E-05 -0.996582031
vn 0.080078125 0 -0.996582031
vn 0.080078125 0 -0.996582031
vn 0.080078125 0 -0.996582031
vn 0.080078125 0 -0.996582031
vn 0.0801391602 1.46627426E-05 -0.996582031
vn 0.0801391602 1.46627426E-05 -0.996582031
vn 0.0801391602 1.46627426E-05 -0.996582031
vn 0.0801391602 1.46627426E-05 -0.996582031
vn 0.0801391602 0 -0.996582031
vn 0.0801391602 0 -0.996582031
vn 0.0801391602 0 -0.996582031
vn 0.0801391602 0 -0.996582031
g IS4_MDL_EscenarioPB_PosterVertical_8_0
f 3/3/3 2/2/2 1/1/1
f 4/4/4 3/3/3 1/1/1
f 7/7/7 6/6/6 5/5/5
f 8/8/8 7/7/7 5/5/5
f 11/11/11 10/10/10 9/9/9
f 12/12/12 11/11/11 9/9/9
f 15/15/15 14/14/14 13/13/13
f 16/16/16 15/15/15 13/13/13
f 19/19/19 18/18/18 17/17/17
f 20/20/20 19/19/19 17/17/17
f 23/23/23 22/22/22 21/21/21
f 24/24/24 23/23/23 21/21/21
f 27/27/27 26/26/26 25/25/25
f 28/28/28 27/27/27 25/25/25
f 31/31/31 30/30/30 29/29/29
f 32/32/32 31/31/31 29/29/29
f 35/35/35 34/34/34 33/33/33
f 36/36/36 35/35/35 33/33/33
f 39/39/39 38/38/38 37/37/37
f 40/40/40 39/39/39 37/37/37
f 43/43/43 42/42/42 41/41/41
f 44/44/44 43/43/43 41/41/41
f 47/47/47 46/46/46 45/45/45
f 48/48/48 47/47/47 45/45/45
f 51/51/51 50/50/50 49/49/49
f 52/52/52 51/51/51 49/49/49
f 55/55/55 54/54/54 53/53/53
f 56/56/56 55/55/55 53/53/53
