g Exterior_FrontGateHouse_WallExterior
v -27.9311295 -3.66980886 46.7663651
v -28.1205196 -3.66980886 47.1725121
v -28.1205196 -2.55117106 47.1725121
v -27.4663086 -2.55117106 45.7695503
v -27.4663086 -5.67193222 45.7695503
v -27.9311295 -5.67193222 46.7663651
v -28.7747307 -5.67193222 48.5754776
v -28.3099117 -3.66980886 47.5786629
v -28.3099117 -5.67193222 47.5786629
v -28.7747307 -2.55117106 48.5754776
v -28.1205196 -3.66980886 47.1725121
v -28.1205196 -2.55117106 47.1725121
v -31.580658 -2.55117106 47.2670479
v -30.926445 -3.02942204 45.8640823
v -30.926445 -2.55117106 45.8640823
v -31.4010239 -3.02942204 46.8818169
v -31.580658 -5.67193222 47.2670479
v -31.4010239 -4.61087084 46.8818169
v -30.926445 -5.67193222 45.8640823
v -30.926445 -4.61087084 45.8640823
v -30.926445 -5.67193222 45.8640823
v -30.45187 -4.61087084 44.8463516
v -30.926445 -4.61087084 45.8640823
v -30.2722359 -5.67193222 44.4611206
v -30.45187 -3.02942204 44.8463516
v -30.2722359 -2.55117106 44.4611206
v -30.926445 -3.02942204 45.8640823
v -30.926445 -2.55117106 45.8640823
v -31.580658 -5.67193222 47.2670479
v -30.1988621 -4.61111689 47.911396
v -30.1988621 -5.67193222 47.9113922
v -31.0528831 -4.61111689 47.5131531
v -31.580658 -2.55117106 47.2670479
v -31.0528831 -3.02942204 47.5131531
v -30.1988621 -3.02942204 47.911396
v -30.1988621 -2.55117106 47.9113922
v -28.7747307 -2.55117106 48.5754776
v -30.1988621 -3.02942204 47.911396
v -30.1988621 -2.55117106 47.9113922
v -28.7747307 -5.67193222 48.5754776
v -30.1988621 -4.61111689 47.911396
v -30.1988621 -5.67193222 47.9113922
v -27.4663086 -5.67193222 45.7695503
v -28.8904381 -4.61111689 45.1054688
v -28.8904381 -5.67193222 45.1054611
v -27.4663086 -2.55117106 45.7695503
v -28.8904381 -3.02942204 45.1054688
v -28.8904381 -2.55117106 45.1054611
v -30.2722359 -2.55117106 44.4611206
v -28.8904381 -3.02942204 45.1054688
v -28.8904381 -2.55117106 45.1054611
v -29.7444592 -3.02942204 44.7072258
v -30.2722359 -5.67193222 44.4611206
v -29.7444592 -4.61111689 44.7072258
v -28.8904381 -4.61111689 45.1054688
v -28.8904381 -5.67193222 45.1054611
v -31.5385933 -2.54276538 47.302002
v -31.5385933 -5.67085028 47.302002
v -31.5991344 -5.67085028 47.2737732
v -31.5991344 -2.54276538 47.2737732
v -31.5709076 -5.67085028 47.2132416
v -31.5709076 -2.54276538 47.2132416
v -31.5991344 -2.54276538 47.2737732
v -31.5991344 -5.67085028 47.2737732
v -31.5385933 -5.67085028 47.302002
v -31.5385933 -2.54276538 47.302002
v -31.5319347 -2.54276538 47.2877197
v -31.5319347 -5.67085028 47.2877197
v -31.5709076 -2.54276538 47.2132416
v -31.5709076 -5.67085028 47.2132416
v -31.5566196 -5.67085028 47.219902
v -31.5566196 -2.54276538 47.219902
v -30.2184181 -2.54276538 44.4708786
v -30.2789612 -2.54276538 44.442646
v -30.2789612 -5.67085028 44.442646
v -30.2184181 -5.67085028 44.4708786
v -30.3071861 -5.67085028 44.5031815
v -30.2789612 -5.67085028 44.442646
v -30.2789612 -2.54276538 44.442646
v -30.3071861 -2.54276538 44.5031815
v -30.2184181 -5.67085028 44.4708786
v -30.2250805 -5.67085028 44.4851608
v -30.2250805 -2.54276538 44.4851608
v -30.2184181 -2.54276538 44.4708786
v -30.3071861 -2.54276538 44.5031815
v -30.2929001 -2.54276538 44.5098419
v -30.2929001 -5.67085028 44.5098419
v -30.3071861 -5.67085028 44.5031815
v -28.8285446 -2.54276538 48.5657272
v -28.7680016 -2.54276538 48.5939598
v -28.7680016 -5.67085028 48.5939598
v -28.8285446 -5.67085028 48.5657272
v -28.7397766 -5.67085028 48.5334206
v -28.7680016 -5.67085028 48.5939598
v -28.7680016 -2.54276538 48.5939598
v -28.7397766 -2.54276538 48.5334206
v -28.8285446 -5.67085028 48.5657272
v -28.8218822 -5.67085028 48.551445
v -28.8218822 -2.54276538 48.551445
v -28.8285446 -2.54276538 48.5657272
v -28.7397766 -2.54276538 48.5334206
v -28.7540646 -2.54276538 48.5267601
v -28.7540646 -5.67085028 48.5267601
v -28.7397766 -5.67085028 48.5334206
v -27.5083694 -2.54276538 45.7345924
v -27.5083694 -5.67085028 45.7345924
v -27.4478264 -5.67085028 45.762825
v -27.4478264 -2.54276538 45.762825
v -27.4760532 -5.67085028 45.8233643
v -27.4760532 -2.54276538 45.8233643
v -27.4478264 -2.54276538 45.762825
v -27.4478264 -5.67085028 45.762825
v -27.5083694 -5.67085028 45.7345924
v -27.5083694 -2.54276538 45.7345924
v -27.515028 -2.54276538 45.7488823
v -27.515028 -5.67085028 45.7488823
v -27.4760532 -2.54276538 45.8233643
v -27.4760532 -5.67085028 45.8233643
v -27.4903412 -5.67085028 45.8167
v -27.4903412 -2.54276538 45.8167
vt 0.0481872559 0.276855469
vt 0.00801086426 0.276855469
vt 0.00801086426 0.383544922
vt 0.146118164 0.383544922
vt 0.146118164 0.086730957
vt 0.0481872559 0.086730957
vt 0.00801086426 0.086730957
vt 0.106689453 0.276855469
vt 0.106689453 0.086730957
vt 0.00801086426 0.383544922
vt 0.146118164 0.276855469
vt 0.146118164 0.383544922
vt 0.146118164 0.383544922
vt 0.00801086426 0.338134766
vt 0.00801086426 0.383544922
vt 0.109130859 0.338134766
vt 0.146118164 0.086730957
vt 0.109130859 0.18762207
vt 0.00801086426 0.086730957
vt 0.00801086426 0.18762207
vt 0.146118164 0.086730957
vt 0.0457458496 0.18762207
vt 0.146118164 0.18762207
vt 0.00801086426 0.086730957
vt 0.0457458496 0.338134766
vt 0.00801086426 0.383544922
vt 0.146118164 0.338134766
vt 0.146118164 0.383544922
vt 0.00801086426 0.086730957
vt 0.146118164 0.18762207
vt 0.146118164 0.086730957
vt 0.0587158203 0.18762207
vt 0.00801086426 0.383544922
vt 0.0587158203 0.338134766
vt 0.146118164 0.338134766
vt 0.146118164 0.383544922
vt 0.146118164 0.383544922
vt 0.00801086426 0.338134766
vt 0.00801086426 0.383544922
vt 0.146118164 0.086730957
vt 0.00801086426 0.18762207
vt 0.00801086426 0.086730957
vt 0.00801086426 0.086730957
vt 0.146118164 0.18762207
vt 0.146118164 0.086730957
vt 0.00801086426 0.383544922
vt 0.146118164 0.338134766
vt 0.146118164 0.383544922
vt 0.146118164 0.383544922
vt 0.00801086426 0.338134766
vt 0.00801086426 0.383544922
vt 0.0958251953 0.338134766
vt 0.146118164 0.086730957
vt 0.0958251953 0.18762207
vt 0.00801086426 0.18762207
vt 0.00801086426 0.086730957
vt 0.377197266 0.427490234
vt 0.376953125 0.0908203125
vt 0.369873047 0.0908203125
vt 0.369873047 0.427490234
vt 0.362792969 0.0908203125
vt 0.362792969 0.427490234
vt 0.369873047 0.427490234
vt 0.369873047 0.0908203125
vt 0.376953125 0.0908203125
vt 0.377197266 0.427490234
vt 0.380371094 0.427490234
vt 0.380126953 0.0908203125
vt 0.362792969 0.427490234
vt 0.362792969 0.0908203125
vt 0.359619141 0.0908203125
vt 0.359619141 0.427490234
vt 0.362792969 0.427490234
vt 0.369873047 0.427490234
vt 0.369873047 0.0908203125
vt 0.362792969 0.0908203125
vt 0.377197266 0.0908203125
vt 0.369873047 0.0908203125
vt 0.369873047 0.427490234
vt 0.376953125 0.427490234
vt 0.362792969 0.0908203125
vt 0.359619141 0.0908203125
vt 0.359619141 0.427490234
vt 0.362792969 0.427490234
vt 0.376953125 0.427490234
vt 0.380126953 0.427490234
vt 0.380371094 0.0908203125
vt 0.377197266 0.0908203125
vt 0.362792969 0.427490234
vt 0.369873047 0.427490234
vt 0.369873047 0.0908203125
vt 0.362792969 0.0908203125
vt 0.377197266 0.0908203125
vt 0.369873047 0.0908203125
vt 0.369873047 0.427490234
vt 0.376953125 0.427490234
vt 0.362792969 0.0908203125
vt 0.359619141 0.0908203125
vt 0.359619141 0.427490234
vt 0.362792969 0.427490234
vt 0.376953125 0.427490234
vt 0.380126953 0.427490234
vt 0.380371094 0.0908203125
vt 0.377197266 0.0908203125
vt 0.377197266 0.427490234
vt 0.376953125 0.0908203125
vt 0.369873047 0.0908203125
vt 0.369873047 0.427490234
vt 0.362792969 0.0908203125
vt 0.362792969 0.427490234
vt 0.369873047 0.427490234
vt 0.369873047 0.0908203125
vt 0.376953125 0.0908203125
vt 0.377197266 0.427490234
vt 0.380371094 0.427490234
vt 0.380126953 0.0908203125
vt 0.362792969 0.427490234
vt 0.362792969 0.0908203125
vt 0.359619141 0.0908203125
vt 0.359619141 0.427490234
vn 0.90625 1.78813934E-07 0.422607422
vn 0.90625 7.15255737E-07 0.422607422
vn 0.90625 7.15255737E-07 0.422607422
vn 0.90625 1.78813934E-07 0.422607422
vn 0.90625 0 0.422607422
vn 0.90625 0 0.422607422
vn 0.90625 0 0.422607422
vn 0.90625 1.78813934E-07 0.422607422
vn 0.90625 0 0.422607422
vn 0.90625 1.78813934E-07 0.422607422
vn 0.90625 7.15255737E-07 0.422607422
vn 0.90625 7.15255737E-07 0.422607422
vn -0.90625 -1.01327896E-06 -0.422607422
vn -0.90625 -2.44379044E-06 -0.422607422
vn -0.90625 -2.44379044E-06 -0.422607422
vn -0.90625 -9.53674316E-07 -0.422607422
vn -0.90625 8.94069672E-07 -0.422607422
vn -0.90625 5.36441803E-07 -0.422607422
vn -0.90625 1.07288361E-06 -0.422607422
vn -0.90625 1.07288361E-06 -0.422607422
vn -0.90625 0 -0.422607422
vn -0.90625 0 -0.422607422
vn -0.90625 0 -0.422607422
vn -0.90625 0 -0.422607422
vn -0.90625 0 -0.422607422
vn -0.90625 0 -0.422607422
vn -0.90625 0 -0.422607422
vn -0.90625 0 -0.422607422
vn -0.422607422 -1.1920929E-06 0.90625
vn -0.422607422 -1.7285347E-06 0.90625
vn -0.422607422 -1.7285347E-06 0.90625
vn -0.422607422 -7.74860382E-07 0.90625
vn -0.422607422 9.53674316E-07 0.90625
vn -0.422607422 1.25169754E-06 0.90625
vn -0.422607422 3.87430191E-06 0.90625
vn -0.422607422 3.87430191E-06 0.90625
vn -0.422607422 2.38418579E-07 0.90625
vn -0.422607422 6.55651093E-07 0.90625
vn -0.422607422 1.01923943E-05 0.90625
vn -0.422607422 -5.36441803E-07 0.90625
vn -0.422607422 -4.17232513E-07 0.90625
vn -0.422607422 -4.58955765E-06 0.90625
vn 0.422607422 5.36441803E-07 -0.90625
vn 0.422607422 4.17232513E-07 -0.90625
vn 0.422607422 4.58955765E-06 -0.90625
vn 0.422607422 -2.38418579E-07 -0.90625
vn 0.422607422 -6.55651093E-07 -0.90625
vn 0.422607422 -1.01923943E-05 -0.90625
vn 0.422607422 -9.53674316E-07 -0.90625
vn 0.422607422 -3.87430191E-06 -0.90625
vn 0.422607422 -3.87430191E-06 -0.90625
vn 0.422607422 -1.25169754E-06 -0.90625
vn 0.422607422 1.1920929E-06 -0.90625
vn 0.422607422 7.74860382E-07 -0.90625
vn 0.422607422 1.7285347E-06 -0.90625
vn 0.422607422 1.7285347E-06 -0.90625
vn -0.422607422 0 0.90625
vn -0.422607422 0 0.90625
vn -0.422607422 0 0.90625
vn -0.422607422 0 0.90625
vn -0.90625 0 -0.422607422
vn -0.90625 0 -0.422607422
vn -0.90625 0 -0.422607422
vn -0.90625 0 -0.422607422
vn 0.90625 0 0.422607422
vn 0.90625 0 0.422607422
vn 0.90625 0 0.422607422
vn 0.90625 0 0.422607422
vn 0.422607422 0 -0.90625
vn 0.422607422 0 -0.90625
vn 0.422607422 0 -0.90625
vn 0.422607422 0 -0.90625
vn 0.422607422 0 -0.90625
vn 0.422607422 0 -0.90625
vn 0.422607422 0 -0.90625
vn 0.422607422 0 -0.90625
vn -0.90625 0 -0.422607422
vn -0.90625 0 -0.422607422
vn -0.90625 0 -0.422607422
vn -0.90625 0 -0.422607422
vn 0.90625 0 0.422607422
vn 0.90625 0 0.422607422
vn 0.90625 0 0.422607422
vn 0.90625 0 0.422607422
vn -0.422607422 0 0.90625
vn -0.422607422 0 0.90625
vn -0.422607422 0 0.90625
vn -0.422607422 0 0.90625
vn -0.422607422 0 0.90625
vn -0.422607422 0 0.90625
vn -0.422607422 0 0.90625
vn -0.422607422 0 0.90625
vn 0.90625 0 0.422607422
vn 0.90625 0 0.422607422
vn 0.90625 0 0.422607422
vn 0.90625 0 0.422607422
vn -0.90625 0 -0.422607422
vn -0.90625 0 -0.422607422
vn -0.90625 0 -0.422607422
vn -0.90625 0 -0.422607422
vn 0.422607422 0 -0.90625
vn 0.422607422 0 -0.90625
vn 0.422607422 0 -0.90625
vn 0.422607422 0 -0.90625
vn 0.422607422 0 -0.90625
vn 0.422607422 0 -0.90625
vn 0.422607422 0 -0.90625
vn 0.422607422 0 -0.90625
vn 0.90625 0 0.422607422
vn 0.90625 0 0.422607422
vn 0.90625 0 0.422607422
vn 0.90625 0 0.422607422
vn -0.90625 0 -0.422607422
vn -0.90625 0 -0.422607422
vn -0.90625 0 -0.422607422
vn -0.90625 0 -0.422607422
vn -0.422607422 0 0.90625
vn -0.422607422 0 0.90625
vn -0.422607422 0 0.90625
vn -0.422607422 0 0.90625
g Exterior_FrontGateHouse_WallExterior_0
f 3/3/3 2/2/2 1/1/1
f 4/4/4 3/3/3 1/1/1
f 5/5/5 4/4/4 1/1/1
f 6/6/6 5/5/5 1/1/1
f 9/9/9 8/8/8 7/7/7
f 8/8/8 10/10/10 7/7/7
f 10/10/10 8/8/8 11/11/11
f 12/12/12 10/10/10 11/11/11
f 15/15/15 14/14/14 13/13/13
f 14/14/14 16/16/16 13/13/13
f 17/17/17 13/13/13 16/16/16
f 18/18/18 17/17/17 16/16/16
f 19/19/19 17/17/17 18/18/18
f 20/20/20 19/19/19 18/18/18
f 23/23/23 22/22/22 21/21/21
f 22/22/22 24/24/24 21/21/21
f 22/22/22 25/25/25 24/24/24
f 25/25/25 26/26/26 24/24/24
f 26/26/26 25/25/25 27/27/27
f 28/28/28 26/26/26 27/27/27
f 31/31/31 30/30/30 29/29/29
f 30/30/30 32/32/32 29/29/29
f 29/29/29 32/32/32 33/33/33
f 32/32/32 34/34/34 33/33/33
f 33/33/33 34/34/34 35/35/35
f 36/36/36 33/33/33 35/35/35
f 39/39/39 38/38/38 37/37/37
f 37/37/37 38/38/38 40/40/40
f 38/38/38 41/41/41 40/40/40
f 42/42/42 40/40/40 41/41/41
f 45/45/45 44/44/44 43/43/43
f 43/43/43 44/44/44 46/46/46
f 44/44/44 47/47/47 46/46/46
f 48/48/48 46/46/46 47/47/47
f 51/51/51 50/50/50 49/49/49
f 50/50/50 52/52/52 49/49/49
f 49/49/49 52/52/52 53/53/53
f 52/52/52 54/54/54 53/53/53
f 53/53/53 54/54/54 55/55/55
f 56/56/56 53/53/53 55/55/55
f 59/59/59 58/58/58 57/57/57
f 60/60/60 59/59/59 57/57/57
f 63/63/63 62/62/62 61/61/61
f 64/64/64 63/63/63 61/61/61
f 67/67/67 66/66/66 65/65/65
f 68/68/68 67/67/67 65/65/65
f 71/71/71 70/70/70 69/69/69
f 72/72/72 71/71/71 69/69/69
f 75/75/75 74/74/74 73/73/73
f 76/76/76 75/75/75 73/73/73
f 79/79/79 78/78/78 77/77/77
f 80/80/80 79/79/79 77/77/77
f 83/83/83 82/82/82 81/81/81
f 84/84/84 83/83/83 81/81/81
f 87/87/87 86/86/86 85/85/85
f 88/88/88 87/87/87 85/85/85
f 91/91/91 90/90/90 89/89/89
f 92/92/92 91/91/91 89/89/89
f 95/95/95 94/94/94 93/93/93
f 96/96/96 95/95/95 93/93/93
f 99/99/99 98/98/98 97/97/97
f 100/100/100 99/99/99 97/97/97
f 103/103/103 102/102/102 101/101/101
f 104/104/104 103/103/103 101/101/101
f 107/107/107 106/106/106 105/105/105
f 108/108/108 107/107/107 105/105/105
f 111/111/111 110/110/110 109/109/109
f 112/112/112 111/111/111 109/109/109
f 115/115/115 114/114/114 113/113/113
f 116/116/116 115/115/115 113/113/113
f 119/119/119 118/118/118 117/117/117
f 120/120/120 119/119/119 117/117/117
