g Exterior_FrontGateHouse_Window_2
v -28.9323425 -4.63870239 45.2501411
v -28.996439 -4.63870239 45.220253
v -28.996439 -3.01478028 45.220253
v -28.9323425 -3.01478028 45.2501411
v -29.8276463 -3.01477718 44.8326569
v -29.7635536 -3.01478028 44.8625412
v -29.7635536 -4.63870239 44.8625412
v -29.8276463 -4.63869905 44.8326569
v -28.982914 -4.63870239 45.1912498
v -28.9949455 -4.63281012 45.1856384
v -28.9949455 -3.02067256 45.1856384
v -28.982914 -3.01478028 45.1912498
v -29.7500286 -3.01478028 44.8335457
v -29.7379971 -3.02067256 44.8391533
v -29.7379971 -4.63281012 44.8391533
v -29.7500286 -4.63870239 44.8335457
v -28.8643055 -4.63870382 45.104229
v -28.8643055 -3.01477718 45.104229
v -28.9284 -3.01478028 45.0743408
v -28.9284 -4.63870239 45.0743408
v -29.7596092 -3.01477528 44.6867409
v -29.7596092 -4.63870239 44.6867409
v -29.6955128 -4.63870239 44.716629
v -29.6955128 -3.01478028 44.716629
v -28.9419231 -4.63870239 45.103344
v -28.9419231 -3.01478028 45.103344
v -28.9539547 -3.02067256 45.0977287
v -28.9539547 -4.63281012 45.0977287
v -29.7090378 -3.01478028 44.7456322
v -29.7090378 -4.63870239 44.7456322
v -29.6970062 -4.63281012 44.7512436
v -29.6970062 -3.02067256 44.7512436
v -28.9539547 -3.02067256 45.0977287
v -28.9949455 -3.02067256 45.1856384
v -28.9949455 -4.63281012 45.1856384
v -28.9539547 -4.63281012 45.0977287
v -29.6970062 -4.63281012 44.7512436
v -29.7379971 -4.63281012 44.8391533
v -29.7379971 -3.02067256 44.8391533
v -29.6970062 -3.02067256 44.7512436
v -28.8643055 -3.01477718 45.104229
v -28.8643055 -4.63870382 45.104229
v -28.9323425 -4.63870239 45.2501411
v -28.9323425 -3.01478028 45.2501411
v -28.982914 -3.01478028 45.1912498
v -28.996439 -3.01478028 45.220253
v -28.996439 -4.63870239 45.220253
v -28.982914 -4.63870239 45.1912498
v -29.7596092 -4.63870239 44.6867409
v -29.7596092 -3.01477528 44.6867409
v -29.8276463 -3.01477718 44.8326569
v -29.8276463 -4.63869905 44.8326569
v -29.7500286 -4.63870239 44.8335457
v -29.7635536 -4.63870239 44.8625412
v -29.7635536 -3.01478028 44.8625412
v -29.7500286 -3.01478028 44.8335457
v -28.9419231 -4.63870239 45.103344
v -28.9284 -4.63870239 45.0743408
v -28.9284 -3.01478028 45.0743408
v -28.9419231 -3.01478028 45.103344
v -29.7090378 -3.01478028 44.7456322
v -29.6955128 -3.01478028 44.716629
v -29.6955128 -4.63870239 44.716629
v -29.7090378 -4.63870239 44.7456322
v -29.8276463 -4.63869905 44.8326569
v -29.7635536 -4.63870239 44.8625412
v -29.7500286 -4.63870239 44.8335457
v -29.7090378 -4.63870239 44.7456322
v -29.7596092 -4.63870239 44.6867409
v -29.6955128 -4.63870239 44.716629
v -29.7596092 -3.01477528 44.6867409
v -29.6955128 -3.01478028 44.716629
v -29.7090378 -3.01478028 44.7456322
v -29.7500286 -3.01478028 44.8335457
v -29.8276463 -3.01477718 44.8326569
v -29.7635536 -3.01478028 44.8625412
v -28.9419231 -3.01478028 45.103344
v -28.9284 -3.01478028 45.0743408
v -28.8643055 -3.01477718 45.104229
v -28.9323425 -3.01478028 45.2501411
v -28.982914 -3.01478028 45.1912498
v -28.996439 -3.01478028 45.220253
v -28.982914 -4.63870239 45.1912498
v -28.996439 -4.63870239 45.220253
v -28.9323425 -4.63870239 45.2501411
v -28.8643055 -4.63870382 45.104229
v -28.9419231 -4.63870239 45.103344
v -28.9284 -4.63870239 45.0743408
v -28.9872303 -3.01264644 45.2207031
v -28.9872303 -3.08525395 45.2207031
v -29.7698154 -3.08525395 44.8557816
v -29.7698135 -3.01264644 44.8557816
v -29.7698193 -4.64186525 44.8557854
v -29.7698154 -4.57114267 44.8557854
v -28.9872303 -4.57114267 45.2207108
v -28.9872303 -4.64186525 45.2207108
v -28.9780121 -3.08525395 45.2009277
v -28.9780121 -3.09853029 45.2009277
v -29.7605934 -3.09853029 44.8360062
v -29.7605953 -3.08525395 44.8360062
v -29.7605972 -4.57114267 44.8360138
v -29.7605972 -4.5578661 44.8360138
v -28.978014 -4.5578661 45.2009354
v -28.978014 -4.57114267 45.2009354
v -28.9221325 -3.01264644 45.0810966
v -29.7047176 -3.01264644 44.7161713
v -29.7047157 -3.08525395 44.7161751
v -28.9221325 -3.08525395 45.0810966
v -29.7047176 -4.64186525 44.7161713
v -28.9221325 -4.64186525 45.0810966
v -28.9221325 -4.57114267 45.0810966
v -29.7047176 -4.57114267 44.7161713
v -28.9313526 -3.08525395 45.1008682
v -29.7139378 -3.08525395 44.7359467
v -29.7139339 -3.09853029 44.7359467
v -28.9313526 -3.09853029 45.1008682
v -29.7139397 -4.57114267 44.7359505
v -28.9313545 -4.57114267 45.100872
v -28.9313545 -4.5578661 45.100872
v -29.7139378 -4.5578661 44.7359505
v -29.7139339 -3.09853029 44.7359467
v -29.7605934 -3.09853029 44.8360062
v -28.9780121 -3.09853029 45.2009277
v -28.9313526 -3.09853029 45.1008682
v -28.9313545 -4.5578661 45.100872
v -28.978014 -4.5578661 45.2009354
v -29.7605972 -4.5578661 44.8360138
v -29.7139378 -4.5578661 44.7359505
v -29.7047176 -3.01264644 44.7161713
v -28.9221325 -3.01264644 45.0810966
v -28.9872303 -3.01264644 45.2207031
v -29.7698135 -3.01264644 44.8557816
v -29.7605953 -3.08525395 44.8360062
v -29.7698154 -3.08525395 44.8557816
v -28.9872303 -3.08525395 45.2207031
v -28.9780121 -3.08525395 45.2009277
v -28.9221325 -4.64186525 45.0810966
v -29.7047176 -4.64186525 44.7161713
v -29.7698193 -4.64186525 44.8557854
v -28.9872303 -4.64186525 45.2207108
v -28.978014 -4.57114267 45.2009354
v -28.9872303 -4.57114267 45.2207108
v -29.7698154 -4.57114267 44.8557854
v -29.7605972 -4.57114267 44.8360138
v -28.9313526 -3.08525395 45.1008682
v -28.9221325 -3.08525395 45.0810966
v -29.7047157 -3.08525395 44.7161751
v -29.7139378 -3.08525395 44.7359467
v -29.7139397 -4.57114267 44.7359505
v -29.7047176 -4.57114267 44.7161713
v -28.9221325 -4.57114267 45.0810966
v -28.9313545 -4.57114267 45.100872
v -29.7139378 -3.08525395 44.7359467
v -29.7047157 -3.08525395 44.7161751
v -29.7047176 -3.01264644 44.7161713
v -29.7698135 -3.01264644 44.8557816
v -29.7605953 -3.08525395 44.8360062
v -29.7698154 -3.08525395 44.8557816
v -29.7139339 -3.09853029 44.7359467
v -29.7605934 -3.09853029 44.8360062
v -28.9780121 -3.08525395 45.2009277
v -28.9872303 -3.08525395 45.2207031
v -28.9872303 -3.01264644 45.2207031
v -28.9221325 -3.01264644 45.0810966
v -28.9313526 -3.08525395 45.1008682
v -28.9221325 -3.08525395 45.0810966
v -28.9313526 -3.09853029 45.1008682
v -28.9780121 -3.09853029 45.2009277
v -29.7047176 -4.64186525 44.7161713
v -29.7047176 -4.57114267 44.7161713
v -29.7139397 -4.57114267 44.7359505
v -29.7605972 -4.57114267 44.8360138
v -29.7139378 -4.5578661 44.7359505
v -29.7605972 -4.5578661 44.8360138
v -29.7698193 -4.64186525 44.8557854
v -29.7698154 -4.57114267 44.8557854
v -28.9872303 -4.64186525 45.2207108
v -28.9872303 -4.57114267 45.2207108
v -28.978014 -4.57114267 45.2009354
v -28.9313545 -4.57114267 45.100872
v -28.9221325 -4.64186525 45.0810966
v -28.9221325 -4.57114267 45.0810966
v -28.9313545 -4.5578661 45.100872
v -28.978014 -4.5578661 45.2009354
vt 0.427001953 0.0981445312
vt 0.41796875 0.0981445312
vt 0.41796875 0.305419922
vt 0.427001953 0.305419922
vt 0.427001953 0.0981445312
vt 0.41796875 0.0981445312
vt 0.41796875 0.305419922
vt 0.427001953 0.305419922
vt 0.4140625 0.0981445312
vt 0.412109375 0.0988769531
vt 0.412109375 0.3046875
vt 0.4140625 0.305419922
vt 0.4140625 0.0981445312
vt 0.412109375 0.0988769531
vt 0.412109375 0.3046875
vt 0.4140625 0.305419922
vt 0.3828125 0.0981445312
vt 0.3828125 0.305419922
vt 0.392089844 0.305419922
vt 0.392089844 0.0981445312
vt 0.3828125 0.0981445312
vt 0.3828125 0.305419922
vt 0.392089844 0.305419922
vt 0.392089844 0.0981445312
vt 0.395996094 0.0981445312
vt 0.395996094 0.305419922
vt 0.397705078 0.3046875
vt 0.397705078 0.0988769531
vt 0.395996094 0.0981445312
vt 0.395996094 0.305419922
vt 0.397705078 0.3046875
vt 0.397705078 0.0988769531
vt 0.397705078 0.3046875
vt 0.412109375 0.3046875
vt 0.412109375 0.0988769531
vt 0.397705078 0.0988769531
vt 0.397705078 0.3046875
vt 0.412109375 0.3046875
vt 0.412109375 0.0988769531
vt 0.397705078 0.0988769531
vt 0.412109375 0.305419922
vt 0.412109375 0.0981445312
vt 0.397705078 0.0981445312
vt 0.397705078 0.305419922
vt 0.4140625 0.305419922
vt 0.41796875 0.305419922
vt 0.41796875 0.0981445312
vt 0.4140625 0.0981445312
vt 0.412109375 0.305419922
vt 0.412109375 0.0981445312
vt 0.397705078 0.0981445312
vt 0.397705078 0.305419922
vt 0.4140625 0.305419922
vt 0.41796875 0.305419922
vt 0.41796875 0.0981445312
vt 0.4140625 0.0981445312
vt 0.395996094 0.0981445312
vt 0.392089844 0.0981445312
vt 0.392089844 0.305419922
vt 0.395996094 0.305419922
vt 0.395996094 0.0981445312
vt 0.392089844 0.0981445312
vt 0.392089844 0.305419922
vt 0.395996094 0.305419922
vt 0.397705078 0.305419922
vt 0.397705078 0.314453125
vt 0.400146484 0.314453125
vt 0.409667969 0.314453125
vt 0.412109375 0.305419922
vt 0.412109375 0.314453125
vt 0.412109375 0.0981445312
vt 0.412109375 0.0891113281
vt 0.409667969 0.0891113281
vt 0.400146484 0.0891113281
vt 0.397705078 0.0981445312
vt 0.397705078 0.0891113281
vt 0.409667969 0.314453125
vt 0.412109375 0.314453125
vt 0.412109375 0.305419922
vt 0.397705078 0.305419922
vt 0.400146484 0.314453125
vt 0.397705078 0.314453125
vt 0.400146484 0.0891113281
vt 0.397705078 0.0891113281
vt 0.397705078 0.0981445312
vt 0.412109375 0.0981445312
vt 0.409667969 0.0891113281
vt 0.412109375 0.0891113281
vt 0.3828125 0.260498047
vt 0.392089844 0.260498047
vt 0.392089844 0.146728516
vt 0.3828125 0.146728516
vt 0.427001953 0.146728516
vt 0.41796875 0.146728516
vt 0.41796875 0.260498047
vt 0.427001953 0.260498047
vt 0.395996094 0.260498047
vt 0.397705078 0.260498047
vt 0.397705078 0.146728516
vt 0.395996094 0.146728516
vt 0.4140625 0.146728516
vt 0.412109375 0.146728516
vt 0.412109375 0.260498047
vt 0.4140625 0.260498047
vt 0.427001953 0.260498047
vt 0.427001953 0.146728516
vt 0.41796875 0.146728516
vt 0.41796875 0.260498047
vt 0.3828125 0.146728516
vt 0.3828125 0.260498047
vt 0.392089844 0.260498047
vt 0.392089844 0.146728516
vt 0.4140625 0.260498047
vt 0.4140625 0.146728516
vt 0.412109375 0.146728516
vt 0.412109375 0.260498047
vt 0.395996094 0.146728516
vt 0.395996094 0.260498047
vt 0.397705078 0.260498047
vt 0.397705078 0.146728516
vt 0.412109375 0.146728516
vt 0.397705078 0.146728516
vt 0.397705078 0.260498047
vt 0.412109375 0.260498047
vt 0.397705078 0.260498047
vt 0.412109375 0.260498047
vt 0.412109375 0.146728516
vt 0.397705078 0.146728516
vt 0.397705078 0.146728516
vt 0.397705078 0.260498047
vt 0.412109375 0.260498047
vt 0.412109375 0.146728516
vt 0.395996094 0.146728516
vt 0.392089844 0.146728516
vt 0.392089844 0.260498047
vt 0.395996094 0.260498047
vt 0.412109375 0.260498047
vt 0.412109375 0.146728516
vt 0.397705078 0.146728516
vt 0.397705078 0.260498047
vt 0.4140625 0.260498047
vt 0.41796875 0.260498047
vt 0.41796875 0.146728516
vt 0.4140625 0.146728516
vt 0.4140625 0.260498047
vt 0.41796875 0.260498047
vt 0.41796875 0.146728516
vt 0.4140625 0.146728516
vt 0.395996094 0.146728516
vt 0.392089844 0.146728516
vt 0.392089844 0.260498047
vt 0.395996094 0.260498047
vt 0.400146484 0.137329102
vt 0.397705078 0.137329102
vt 0.397705078 0.146728516
vt 0.412109375 0.146728516
vt 0.409667969 0.137329102
vt 0.412109375 0.137329102
vt 0.400146484 0.135498047
vt 0.409667969 0.135498047
vt 0.409667969 0.270019531
vt 0.412109375 0.270019531
vt 0.412109375 0.260498047
vt 0.397705078 0.260498047
vt 0.400146484 0.270019531
vt 0.397705078 0.270019531
vt 0.400146484 0.271728516
vt 0.409667969 0.271728516
vt 0.412109375 0.146728516
vt 0.412109375 0.137329102
vt 0.409667969 0.137329102
vt 0.400146484 0.137329102
vt 0.409667969 0.135498047
vt 0.400146484 0.135498047
vt 0.397705078 0.146728516
vt 0.397705078 0.137329102
vt 0.397705078 0.260498047
vt 0.397705078 0.270019531
vt 0.400146484 0.270019531
vt 0.409667969 0.270019531
vt 0.412109375 0.260498047
vt 0.412109375 0.270019531
vt 0.409667969 0.271728516
vt 0.400146484 0.271728516
vn -0.422607422 0 0.90625
vn -0.422607422 0 0.90625
vn -0.422607422 0 0.90625
vn -0.422607422 0 0.90625
vn -0.422607422 0 0.90625
vn -0.422607422 0 0.90625
vn -0.422607422 0 0.90625
vn -0.422607422 0 0.90625
vn -0.422363281 0 0.90625
vn -0.422363281 0 0.90625
vn -0.422363281 0 0.90625
vn -0.422363281 0 0.90625
vn -0.422851562 0 0.90625
vn -0.422851562 0 0.90625
vn -0.422851562 0 0.90625
vn -0.422851562 0 0.90625
vn 0.422607422 0 -0.90625
vn 0.422607422 0 -0.90625
vn 0.422607422 0 -0.90625
vn 0.422607422 0 -0.90625
vn 0.422607422 0 -0.90625
vn 0.422607422 0 -0.90625
vn 0.422607422 0 -0.90625
vn 0.422607422 0 -0.90625
vn 0.422607422 0 -0.90625
vn 0.422607422 0 -0.90625
vn 0.422607422 0 -0.90625
vn 0.422607422 0 -0.90625
vn 0.422363281 0 -0.90625
vn 0.422363281 0 -0.90625
vn 0.422363281 0 -0.90625
vn 0.422363281 0 -0.90625
vn -0.90625 0 -0.422607422
vn -0.90625 0 -0.422607422
vn -0.90625 0 -0.422607422
vn -0.90625 0 -0.422607422
vn 0.90625 0 0.422607422
vn 0.90625 0 0.422607422
vn 0.90625 0 0.422607422
vn 0.90625 0 0.422607422
vn 0.90625 0 0.422607422
vn 0.90625 0 0.422607422
vn 0.90625 0 0.422607422
vn 0.90625 0 0.422607422
vn -0.90625 0 -0.422607422
vn -0.90625 0 -0.422607422
vn -0.90625 0 -0.422607422
vn -0.90625 0 -0.422607422
vn -0.90625 0 -0.422607422
vn -0.90625 0 -0.422607422
vn -0.90625 0 -0.422607422
vn -0.90625 0 -0.422607422
vn 0.90625 0 0.422607422
vn 0.90625 0 0.422607422
vn 0.90625 0 0.422607422
vn 0.90625 0 0.422607422
vn -0.90625 0 -0.422607422
vn -0.90625 0 -0.422607422
vn -0.90625 0 -0.422607422
vn -0.90625 0 -0.422607422
vn 0.90625 0 0.422607422
vn 0.90625 0 0.422607422
vn 0.90625 0 0.422607422
vn 0.90625 0 0.422607422
vn -2.47359276E-05 -1 -2.38418579E-07
vn -3.9100647E-05 -1 -1.82390213E-05
vn -2.50935555E-05 -1 -6.55651093E-07
vn -2.24709511E-05 -1 5.36441803E-07
vn -2.30073929E-05 -1 5.36441803E-07
vn -0 -1 0
vn 4.81009483E-05 1 3.0875206E-05
vn 6.2584877E-05 1 2.92062759E-05
vn 4.84585762E-05 1 3.0875206E-05
vn 4.69088554E-05 1 3.01599503E-05
vn 4.70876694E-05 1 3.03983688E-05
vn 3.9100647E-05 1 1.82390213E-05
vn -2.56299973E-05 1 4.76837158E-07
vn -3.9100647E-05 1 -1.82390213E-05
vn -2.52723694E-05 1 8.94069672E-07
vn -2.35438347E-05 1 1.7285347E-06
vn -2.30073929E-05 1 1.66893005E-06
vn -0 1 0
vn -1.12652779E-05 -1 2.98023224E-07
vn -0 -1 0
vn -1.15036964E-05 -1 2.98023224E-07
vn -1.23977661E-05 -1 -1.1920929E-07
vn -1.25169754E-05 -1 -3.57627869E-07
vn -1.95503235E-05 -1 -9.11951065E-06
vn -0.422607422 0 0.90625
vn -0.422607422 0 0.90625
vn -0.422607422 0 0.90625
vn -0.422607422 0 0.90625
vn -0.422607422 0 0.90625
vn -0.422607422 0 0.90625
vn -0.422607422 0 0.90625
vn -0.422607422 0 0.90625
vn -0.422607422 0 0.90625
vn -0.422607422 0 0.90625
vn -0.422607422 0 0.90625
vn -0.422607422 0 0.90625
vn -0.422607422 0 0.90625
vn -0.422607422 0 0.90625
vn -0.422607422 0 0.90625
vn -0.422607422 0 0.90625
vn 0.422607422 0 -0.90625
vn 0.422607422 0 -0.90625
vn 0.422607422 0 -0.90625
vn 0.422607422 0 -0.90625
vn 0.422607422 0 -0.90625
vn 0.422607422 0 -0.90625
vn 0.422607422 0 -0.90625
vn 0.422607422 0 -0.90625
vn 0.422607422 0 -0.90625
vn 0.422607422 0 -0.90625
vn 0.422607422 0 -0.90625
vn 0.422607422 0 -0.90625
vn 0.422607422 0 -0.90625
vn 0.422607422 0 -0.90625
vn 0.422607422 0 -0.90625
vn 0.422607422 0 -0.90625
vn -0 -1 0
vn -0 -1 0
vn -0 -1 0
vn -0 -1 0
vn -0 1 0
vn -0 1 0
vn -0 1 0
vn -0 1 0
vn -0 1 0
vn -0 1 0
vn -0 1 0
vn -0 1 0
vn -0 -1 0
vn -0 -1 0
vn -0 -1 0
vn -0 -1 0
vn -0 -1 0
vn -0 -1 0
vn -0 -1 0
vn -0 -1 0
vn -0 1 0
vn -0 1 0
vn -0 1 0
vn -0 1 0
vn -0 -1 0
vn -0 -1 0
vn -0 -1 0
vn -0 -1 0
vn -0 1 0
vn -0 1 0
vn -0 1 0
vn -0 1 0
vn -0.90625 -3.21865082E-06 -0.422607422
vn -0.90625 0 -0.422607422
vn -0.90625 2.99811363E-05 -0.422607422
vn -0.90625 2.99811363E-05 -0.422607422
vn -0.90625 -3.21865082E-06 -0.422607422
vn -0.90625 0 -0.422607422
vn -0.90625 -0.000266551971 -0.422607422
vn -0.90625 -0.000266551971 -0.422607422
vn 0.90625 0 0.422607422
vn 0.90625 0 0.422607422
vn 0.90625 0 0.422607422
vn 0.90625 0 0.422607422
vn 0.90625 0 0.422607422
vn 0.90625 0 0.422607422
vn 0.90625 0 0.422607422
vn 0.90625 0 0.422607422
vn -0.90625 1.02519989E-05 -0.422607422
vn -0.90625 0 -0.422607422
vn -0.90625 8.82148743E-06 -0.422607422
vn -0.90625 1.18017197E-05 -0.422607422
vn -0.90625 0 -0.422607422
vn -0.90625 0 -0.422607422
vn -0.90625 1.14440918E-05 -0.422607422
vn -0.90625 6.33001328E-05 -0.422607422
vn 0.90625 0 0.422607422
vn 0.90625 0 0.422607422
vn 0.90625 0 0.422607422
vn 0.90625 0 0.422607422
vn 0.90625 0 0.422607422
vn 0.90625 0 0.422607422
vn 0.90625 0 0.422607422
vn 0.90625 0 0.422607422
g Exterior_FrontGateHouse_Window_2_0
f 3/3/3 2/2/2 1/1/1
f 4/4/4 3/3/3 1/1/1
f 7/7/7 6/6/6 5/5/5
f 8/8/8 7/7/7 5/5/5
f 11/11/11 10/10/10 9/9/9
f 12/12/12 11/11/11 9/9/9
f 15/15/15 14/14/14 13/13/13
f 16/16/16 15/15/15 13/13/13
f 19/19/19 18/18/18 17/17/17
f 20/20/20 19/19/19 17/17/17
f 23/23/23 22/22/22 21/21/21
f 24/24/24 23/23/23 21/21/21
f 27/27/27 26/26/26 25/25/25
f 28/28/28 27/27/27 25/25/25
f 31/31/31 30/30/30 29/29/29
f 32/32/32 31/31/31 29/29/29
f 35/35/35 34/34/34 33/33/33
f 36/36/36 35/35/35 33/33/33
f 39/39/39 38/38/38 37/37/37
f 40/40/40 39/39/39 37/37/37
f 43/43/43 42/42/42 41/41/41
f 44/44/44 43/43/43 41/41/41
f 47/47/47 46/46/46 45/45/45
f 48/48/48 47/47/47 45/45/45
f 51/51/51 50/50/50 49/49/49
f 52/52/52 51/51/51 49/49/49
f 55/55/55 54/54/54 53/53/53
f 56/56/56 55/55/55 53/53/53
f 59/59/59 58/58/58 57/57/57
f 60/60/60 59/59/59 57/57/57
f 63/63/63 62/62/62 61/61/61
f 64/64/64 63/63/63 61/61/61
f 67/67/67 66/66/66 65/65/65
f 67/67/67 65/65/65 68/68/68
f 65/65/65 69/69/69 68/68/68
f 69/69/69 70/70/70 68/68/68
f 73/73/73 72/72/72 71/71/71
f 73/73/73 71/71/71 74/74/74
f 71/71/71 75/75/75 74/74/74
f 75/75/75 76/76/76 74/74/74
f 79/79/79 78/78/78 77/77/77
f 80/80/80 79/79/79 77/77/77
f 81/81/81 80/80/80 77/77/77
f 81/81/81 82/82/82 80/80/80
f 85/85/85 84/84/84 83/83/83
f 86/86/86 85/85/85 83/83/83
f 87/87/87 86/86/86 83/83/83
f 87/87/87 88/88/88 86/86/86
f 91/91/91 90/90/90 89/89/89
f 92/92/92 91/91/91 89/89/89
f 95/95/95 94/94/94 93/93/93
f 96/96/96 95/95/95 93/93/93
f 99/99/99 98/98/98 97/97/97
f 100/100/100 99/99/99 97/97/97
f 103/103/103 102/102/102 101/101/101
f 104/104/104 103/103/103 101/101/101
f 107/107/107 106/106/106 105/105/105
f 108/108/108 107/107/107 105/105/105
f 111/111/111 110/110/110 109/109/109
f 112/112/112 111/111/111 109/109/109
f 115/115/115 114/114/114 113/113/113
f 116/116/116 115/115/115 113/113/113
f 119/119/119 118/118/118 117/117/117
f 120/120/120 119/119/119 117/117/117
f 123/123/123 122/122/122 121/121/121
f 124/124/124 123/123/123 121/121/121
f 127/127/127 126/126/126 125/125/125
f 128/128/128 127/127/127 125/125/125
f 131/131/131 130/130/130 129/129/129
f 132/132/132 131/131/131 129/129/129
f 135/135/135 134/134/134 133/133/133
f 136/136/136 135/135/135 133/133/133
f 139/139/139 138/138/138 137/137/137
f 140/140/140 139/139/139 137/137/137
f 143/143/143 142/142/142 141/141/141
f 144/144/144 143/143/143 141/141/141
f 147/147/147 146/146/146 145/145/145
f 148/148/148 147/147/147 145/145/145
f 151/151/151 150/150/150 149/149/149
f 152/152/152 151/151/151 149/149/149
f 155/155/155 154/154/154 153/153/153
f 156/156/156 155/155/155 153/153/153
f 157/157/157 156/156/156 153/153/153
f 157/157/157 158/158/158 156/156/156
f 157/157/157 153/153/153 159/159/159
f 160/160/160 157/157/157 159/159/159
f 163/163/163 162/162/162 161/161/161
f 164/164/164 163/163/163 161/161/161
f 165/165/165 164/164/164 161/161/161
f 165/165/165 166/166/166 164/164/164
f 165/165/165 161/161/161 167/167/167
f 161/161/161 168/168/168 167/167/167
f 171/171/171 170/170/170 169/169/169
f 171/171/171 169/169/169 172/172/172
f 171/171/171 172/172/172 173/173/173
f 172/172/172 174/174/174 173/173/173
f 169/169/169 175/175/175 172/172/172
f 175/175/175 176/176/176 172/172/172
f 179/179/179 178/178/178 177/177/177
f 179/179/179 177/177/177 180/180/180
f 177/177/177 181/181/181 180/180/180
f 181/181/181 182/182/182 180/180/180
f 179/179/179 180/180/180 183/183/183
f 184/184/184 179/179/179 183/183/183
