g Enclosure_Cloth_13
v 0.806494117 -0.2061214 -0.0132824704
v 0.91583252 -0.300437182 -0.00531372055
v 1.07611811 0.0182209387 -0.0132824704
v 1.12599611 0.171631426 -0.0132824704
v 1.17221439 -0.204797402 0.0322229005
v 0.806494117 -0.2061214 -0.0132824704
v 1.70991695 0.0775539726 -0.0132824704
v 1.35718012 -0.138246804 -0.0132824704
v 1.32392335 -0.349419892 -0.0132824704
v 1.44222891 -0.400023371 -0.0132824704
v 1.70991695 -0.960810959 -0.0132824704
v 1.42514157 -0.864222527 -0.0132824704
v 1.36734366 -1.02688479 -0.0132824704
v 0.047895506 0.0775539726 -0.0132824704
v 0.739731431 -0.379226118 0.0115515133
v 0.618076146 -0.58184731 -0.0132824704
v 0.634592295 -0.857421219 -0.0132824704
v 0.0479003899 -0.960810959 -0.0132824704
v 0.610385716 -0.997687042 -0.0702355951
v 1.1277343 0.856450498 -0.0132824704
v 1.70991695 1.02688479 -0.0132824704
v 0.0479003899 0.938819885 -0.0132824704
v 1.07542968 0.0238038246 0.0247302242
v 0.915336907 -0.295403928 0.032698974
v 0.804973125 -0.201637611 0.0247302242
v 0.804973125 -0.201637611 0.0247302242
v 0.0479003899 0.0775532126 0.0247302242
v 0.734606922 -0.384010792 0.0495642088
v 0.618071258 -0.578315616 0.0247302242
v 0.0479003899 -0.960810959 0.0247302242
v 0.635505378 -0.859321594 0.0247302242
v 0.61126709 -0.997687042 -0.0322229005
v 1.13613284 0.171631128 0.0247302242
v 0.0479003899 0.938819885 0.0247302242
v 1.18166995 -0.20287098 0.0702355951
v 1.70991695 0.0775539726 0.0247302242
v 1.1507324 0.857669353 0.0247326661
v 1.70991695 1.02688479 0.0247302242
v 1.35812736 -0.13547276 0.0247302242
v 1.3264966 -0.342108339 0.0247302242
v 1.44715571 -0.394270509 0.0247302242
v 1.42577875 -0.866842031 0.0247302242
v 1.70991695 -0.960810959 0.0247302242
v 1.36686766 -1.02688479 0.0247302242
v 1.17221439 -0.204797402 0.0322229005
v 1.24020016 -0.441821784 0.0322229005
v 1.35718012 -0.138246804 -0.0132824704
v 1.35812736 -0.13547276 0.0247302242
v 1.24540031 -0.439471453 0.0702355951
v 1.18166995 -0.20287098 0.0702355951
v 1.32392335 -0.349419892 -0.0132824704
v 1.36626947 -0.655128479 0.0281188954
v 1.44222891 -0.400023371 -0.0132824704
v 1.44715571 -0.394270509 0.0247302242
v 1.36627197 -0.648596346 0.0661315918
v 1.3264966 -0.342108339 0.0247302242
v 0.618076146 -0.58184731 -0.0132824704
v 0.678903818 -0.699905992 -0.0132824704
v 0.739731431 -0.379226118 0.0115515133
v 0.734606922 -0.384010792 0.0495642088
v 0.678901374 -0.699905992 0.0247302242
v 0.618071258 -0.578315616 0.0247302242
v 1.07611811 0.0182209387 -0.0132824704
v 1.11649168 -0.303207129 0.0322229005
v 1.17221439 -0.204797402 0.0322229005
v 1.18166995 -0.20287098 0.0702355951
v 1.11649168 -0.303207129 0.0702355951
v 1.07542968 0.0238038246 0.0247302242
v 1.70991695 1.02688479 -0.0132824704
v 1.70991695 1.02688479 0.0247302242
v 1.1507324 0.857669353 0.0247326661
v 1.1277343 0.856450498 -0.0132824704
v 0.0479003899 0.938819885 -0.0132824704
v 0.0479003899 0.938819885 0.0247302242
v -0.515996099 0.84950161 -0.0132824704
v -0.515996099 0.84950161 0.0247302242
v -0.966677248 0.989649355 -0.0132824704
v -0.966677248 0.989649355 0.0247302242
v -1.70991695 1.02688479 -0.0132824704
v -1.70991695 1.02688479 0.0247302242
v 1.70991695 -0.960810959 0.0247302242
v 1.70991695 -0.960810959 -0.0132824704
v 1.36734366 -1.02688479 -0.0132824704
v 1.36686766 -1.02688479 0.0247302242
v -1.70991695 0.0775539726 -0.0132824704
v -1.70991695 1.02688479 -0.0132824704
v -1.70991695 1.02688479 0.0247302242
v -1.70991695 0.0775539726 0.0247302242
v -1.70991695 -0.960810959 -0.0132824704
v -1.70991695 -0.960810959 0.0247302242
v 1.70991695 0.0775539726 0.0247302242
v 1.70991695 1.02688479 0.0247302242
v 1.70991695 1.02688479 -0.0132824704
v 1.70991695 0.0775539726 -0.0132824704
v 1.70991695 -0.960810959 0.0247302242
v 1.70991695 -0.960810959 -0.0132824704
v 0.0479003899 0.938819885 -0.0132824704
v -0.521298826 0.0775539726 -0.0132824704
v 0.047895506 0.0775539726 -0.0132824704
v -0.515996099 0.84950161 -0.0132824704
v -0.966679692 0.0775539726 -0.0132824704
v -0.966677248 0.989649355 -0.0132824704
v -1.70991695 0.0775539726 -0.0132824704
v -1.70991695 1.02688479 -0.0132824704
v -0.966677248 -0.960810959 -0.0132824704
v -1.70991695 -0.960810959 -0.0132824704
v -0.521296382 -0.960810959 -0.0132824704
v 0.0479003899 -0.960810959 -0.0132824704
v 0.047895506 0.0775539726 -0.0132824704
v 0.0479003899 0.0775532126 0.0247302242
v 0.0479003899 -0.960810959 0.0247302242
v -0.521296382 -0.960810959 0.0247302242
v -0.521296382 0.0775533691 0.0247302242
v 0.0479003899 0.938819885 0.0247302242
v -0.515996099 0.84950161 0.0247302242
v -0.966677248 0.989649355 0.0247302242
v -0.966677248 0.0775536746 0.0247302242
v -1.70991695 1.02688479 0.0247302242
v -0.966677248 -0.960810959 0.0247302242
v -1.70991695 0.0775539726 0.0247302242
v -1.70991695 -0.960810959 0.0247302242
v 0.610385716 -0.997687042 -0.0702355951
v 0.0479003899 -0.960810959 0.0247302242
v 0.61126709 -0.997687042 -0.0322229005
v 0.0479003899 -0.960810959 -0.0132824704
v -0.521296382 -0.960810959 0.0247302242
v -0.521296382 -0.960810959 -0.0132824704
v -0.966677248 -0.960810959 0.0247302242
v -0.966677248 -0.960810959 -0.0132824704
v -1.70991695 -0.960810959 0.0247302242
v -1.70991695 -0.960810959 -0.0132824704
v 1.42577875 -0.866842031 0.0247302242
v 1.36686766 -1.02688479 0.0247302242
v 1.36734366 -1.02688479 -0.0132824704
v 1.42514157 -0.864222527 -0.0132824704
v 1.44222891 -0.400023371 -0.0132824704
v 1.44715571 -0.394270509 0.0247302242
v 1.35718012 -0.138246804 -0.0132824704
v 1.35812736 -0.13547276 0.0247302242
v 1.3264966 -0.342108339 0.0247302242
v 1.32392335 -0.349419892 -0.0132824704
v 0.635505378 -0.859321594 0.0247302242
v 0.618071258 -0.578315616 0.0247302242
v 0.618076146 -0.58184731 -0.0132824704
v 0.634592295 -0.857421219 -0.0132824704
v 0.610385716 -0.997687042 -0.0702355951
v 0.61126709 -0.997687042 -0.0322229005
v 1.07611811 0.0182209387 -0.0132824704
v 0.91583252 -0.300437182 -0.00531372055
v 0.915336907 -0.295403928 0.032698974
v 1.07542968 0.0238038246 0.0247302242
v 0.804973125 -0.201637611 0.0247302242
v 0.915336907 -0.295403928 0.032698974
v 0.91583252 -0.300437182 -0.00531372055
v 0.806494117 -0.2061214 -0.0132824704
v 1.18166995 -0.20287098 0.0702355951
v 1.24540031 -0.439471453 0.0702355951
v 1.24020016 -0.441821784 0.0322229005
v 1.17221439 -0.204797402 0.0322229005
v 1.35718012 -0.138246804 -0.0132824704
v 1.24020016 -0.441821784 0.0322229005
v 1.24540031 -0.439471453 0.0702355951
v 1.35812736 -0.13547276 0.0247302242
v 1.3264966 -0.342108339 0.0247302242
v 1.36627197 -0.648596346 0.0661315918
v 1.36626947 -0.655128479 0.0281188954
v 1.32392335 -0.349419892 -0.0132824704
v 1.44222891 -0.400023371 -0.0132824704
v 1.36626947 -0.655128479 0.0281188954
v 1.36627197 -0.648596346 0.0661315918
v 1.44715571 -0.394270509 0.0247302242
v 0.734606922 -0.384010792 0.0495642088
v 0.804973125 -0.201637611 0.0247302242
v 0.806494117 -0.2061214 -0.0132824704
v 0.739731431 -0.379226118 0.0115515133
v 0.739731431 -0.379226118 0.0115515133
v 0.678903818 -0.699905992 -0.0132824704
v 0.678901374 -0.699905992 0.0247302242
v 0.734606922 -0.384010792 0.0495642088
v 0.618071258 -0.578315616 0.0247302242
v 0.678901374 -0.699905992 0.0247302242
v 0.678903818 -0.699905992 -0.0132824704
v 0.618076146 -0.58184731 -0.0132824704
v 1.17221439 -0.204797402 0.0322229005
v 1.11649168 -0.303207129 0.0322229005
v 1.11649168 -0.303207129 0.0702355951
v 1.18166995 -0.20287098 0.0702355951
v 1.07542968 0.0238038246 0.0247302242
v 1.11649168 -0.303207129 0.0702355951
v 1.11649168 -0.303207129 0.0322229005
v 1.07611811 0.0182209387 -0.0132824704
vt 0.530761719 0.715332031
vt 0.553222656 0.69140625
vt 0.581054688 0.768066406
vt 0.590820312 0.804199219
vt 0.605957031 0.71484375
vt 0.530761719 0.715332031
vt 0.712402344 0.781738281
vt 0.643066406 0.730957031
vt 0.650878906 0.678222656
vt 0.661621094 0.665527344
vt 0.712402344 0.487548828
vt 0.661132812 0.543945312
vt 0.649414062 0.487548828
vt 0.375976562 0.787109375
vt 0.516601562 0.671875
vt 0.489990234 0.619628906
vt 0.491943359 0.546386719
vt 0.375976562 0.487548828
vt 0.486083984 0.487548828
vt 0.570800781 0.986816406
vt 0.712402344 0.986816406
vt 0.375976562 0.986816406
vt 0.580566406 0.766113281
vt 0.553222656 0.690429688
vt 0.530761719 0.713867188
vt 0.530761719 0.713867188
vt 0.375976562 0.784179688
vt 0.515625 0.668945312
vt 0.490722656 0.619140625
vt 0.375976562 0.487548828
vt 0.492919922 0.545410156
vt 0.487060547 0.487548828
vt 0.592285156 0.80078125
vt 0.375976562 0.986816406
vt 0.606933594 0.712890625
vt 0.712402344 0.778808594
vt 0.574707031 0.986816406
vt 0.712402344 0.986816406
vt 0.642089844 0.729003906
vt 0.649902344 0.678222656
vt 0.661621094 0.665039062
vt 0.659667969 0.54296875
vt 0.712402344 0.487548828
vt 0.6484375 0.487548828
vt 0.605957031 0.71484375
vt 0.620605469 0.655273438
vt 0.643066406 0.730957031
vt 0.642089844 0.729003906
vt 0.620605469 0.653808594
vt 0.606933594 0.712890625
vt 0.650878906 0.678222656
vt 0.647460938 0.599609375
vt 0.661621094 0.665527344
vt 0.661621094 0.665039062
vt 0.645996094 0.600097656
vt 0.649902344 0.678222656
vt 0.489990234 0.619628906
vt 0.502441406 0.588378906
vt 0.516601562 0.671875
vt 0.515625 0.668945312
vt 0.502929688 0.587402344
vt 0.490722656 0.619140625
vt 0.581054688 0.768066406
vt 0.594726562 0.690429688
vt 0.605957031 0.71484375
vt 0.606933594 0.712890625
vt 0.594238281 0.688476562
vt 0.580566406 0.766113281
vt 0.718261719 0.977539062
vt 0.718261719 0.969726562
vt 0.576171875 0.969726562
vt 0.571289062 0.977539062
vt 0.374023438 0.977539062
vt 0.374023438 0.969726562
vt 0.256103516 0.977539062
vt 0.256103516 0.969726562
vt 0.16394043 0.977539062
vt 0.16394043 0.969726562
vt 0.0100479126 0.977539062
vt 0.0100479126 0.969726562
vt 0.718261719 0.963867188
vt 0.718261719 0.956542969
vt 0.658691406 0.956542969
vt 0.658203125 0.963867188
vt 0.714355469 0.709472656
vt 0.714355469 0.519042969
vt 0.706542969 0.519042969
vt 0.706542969 0.709472656
vt 0.714355469 0.91796875
vt 0.706542969 0.91796875
vt 0.699707031 0.709472656
vt 0.699707031 0.519042969
vt 0.692382812 0.519042969
vt 0.692382812 0.709472656
vt 0.699707031 0.91796875
vt 0.692382812 0.91796875
vt 0.374267578 0.987304688
vt 0.255859375 0.749023438
vt 0.374267578 0.749023438
vt 0.255859375 0.987304688
vt 0.163208008 0.749023438
vt 0.163208008 0.987304688
vt 0.00856781006 0.749023438
vt 0.00856781006 0.987304688
vt 0.163208008 0.488525391
vt 0.00856781006 0.488525391
vt 0.255859375 0.488525391
vt 0.374267578 0.488525391
vt 0.374267578 0.749023438
vt 0.374267578 0.749023438
vt 0.374267578 0.488525391
vt 0.255859375 0.488525391
vt 0.255859375 0.749023438
vt 0.374267578 0.987304688
vt 0.255859375 0.987304688
vt 0.163208008 0.987304688
vt 0.163208008 0.749023438
vt 0.00856781006 0.987304688
vt 0.163208008 0.488525391
vt 0.00856781006 0.749023438
vt 0.00856781006 0.488525391
vt 0.496826172 0.956542969
vt 0.374023438 0.963867188
vt 0.497314453 0.963867188
vt 0.374023438 0.956542969
vt 0.256103516 0.963867188
vt 0.256103516 0.956542969
vt 0.16394043 0.963867188
vt 0.16394043 0.956542969
vt 0.0100479126 0.963867188
vt 0.0100479126 0.956542969
vt -0.450683594 0.64453125
vt -0.450683594 0.500976562
vt -0.484619141 0.500976562
vt -0.484619141 0.646972656
vt -0.484619141 1.06347656
vt -0.450683594 1.06835938
vt -0.447021484 0.964355469
vt -0.413085938 0.967285156
vt -0.413085938 0.781738281
vt -0.447021484 0.775390625
vt -0.372070312 0.625
vt -0.372070312 0.876953125
vt -0.337890625 0.874023438
vt -0.337890625 0.626953125
vt -0.337890625 0.500976562
vt -0.372070312 0.500976562
vt -0.262695312 0.780273438
vt -0.262695312 0.500976562
vt -0.296875 0.505859375
vt -0.296875 0.78515625
vt -0.109069824 0.500976562
vt -0.109069824 0.600097656
vt -0.075012207 0.600585938
vt -0.075012207 0.502441406
vt -0.150146484 0.715332031
vt -0.150146484 0.503417969
vt -0.184204102 0.500976562
vt -0.184204102 0.713867188
vt -0.225219727 0.7734375
vt -0.225219727 0.500976562
vt -0.259277344 0.503417969
vt -0.259277344 0.775878906
vt -0.413085938 0.781738281
vt -0.413085938 0.506835938
vt -0.447021484 0.500976562
vt -0.447021484 0.775390625
vt -0.18762207 0.729980469
vt -0.18762207 0.500976562
vt -0.221801758 0.506835938
vt -0.221801758 0.734863281
vt -0.409423828 0.784179688
vt -0.409423828 0.947753906
vt -0.375488281 0.943847656
vt -0.375488281 0.788574219
vt -0.375488281 0.788574219
vt -0.375488281 0.500976562
vt -0.409423828 0.500976562
vt -0.409423828 0.784179688
vt -0.112548828 0.610351562
vt -0.112548828 0.500976562
vt -0.146606445 0.500976562
vt -0.146606445 0.606933594
vt -0.0374450684 0.589355469
vt -0.0374450684 0.500976562
vt -0.0715332031 0.500976562
vt -0.0715332031 0.591308594
vt -0.300292969 0.787597656
vt -0.300292969 0.500976562
vt -0.334472656 0.500976562
vt -0.334472656 0.782714844
vn 0.035736084 -0.0429382324 -0.998535156
vn 0.035736084 -0.0429382324 -0.998535156
vn 0.0150604248 -0.00489807129 -1
vn -0.00289344788 -0.00280761719 -1
vn -0.0528259277 -0.0462646484 -0.997558594
vn -0.0101242065 -0.0270690918 -0.999511719
vn -0.00569915771 -0.00424957275 -1
vn -0.0492248535 -0.0367126465 -0.998046875
vn -5.90085983E-06 0 -1
vn -1.07288361E-06 0 -1
vn -0 0 -1
vn -0 0 -1
vn -0 0 -1
vn 0.000614643097 -8.0704689E-05 -1
vn 0.0324401855 -0.00519180298 -0.999511719
vn 0.00966644287 0.00836181641 -1
vn -0.00536727905 0.0304260254 -0.999511719
vn -0.00142669678 0.00807189941 -1
vn -0.0679321289 0.385498047 -0.920410156
vn -0 0 -1
vn -0 0 -1
vn -0 0 -1
vn -0.0136413574 0.00560379028 1
vn -0.0357055664 0.0428161621 0.998535156
vn -0.0357055664 0.0428161621 0.998535156
vn 0.00993347168 0.0269317627 0.999511719
vn -0.000399827957 0.000114738941 1
vn -0.0330505371 0.0046005249 0.999511719
vn -0.00964355469 -0.00838470459 1
vn 0.000504493713 -0.00292015076 1
vn 0.00526809692 -0.0305023193 0.999511719
vn 0.0673217773 -0.389892578 0.918457031
vn 0.00280189514 0.0027961731 1
vn -3.57627869E-07 -1.01327896E-06 1
vn 0.0531005859 0.0463867188 0.997558594
vn 0.00579452515 0.0041847229 1
vn 1.13248825E-06 -1.54972076E-06 1
vn 3.81469727E-06 -1.49011612E-06 1
vn 0.0503540039 0.0364074707 0.998046875
vn -0 0 1
vn -0 0 1
vn -3.57627869E-07 0 1
vn -1.78813934E-07 0 1
vn -3.81469727E-06 0 1
vn -0.217285156 -0.0623168945 -0.974121094
vn -0.217285156 -0.0623168945 -0.974121094
vn -0.217285156 -0.0623168945 -0.974121094
vn 0.227294922 0.0612182617 0.971679688
vn 0.227294922 0.0612182617 0.971679688
vn 0.227294922 0.0612182617 0.971679688
vn -0.0608520508 -0.142211914 -0.987792969
vn -0.0608520508 -0.142211914 -0.987792969
vn -0.0608520508 -0.142211914 -0.987792969
vn 0.061126709 0.141357422 0.98828125
vn 0.061126709 0.141357422 0.98828125
vn 0.061126709 0.141357422 0.98828125
vn 0.109069824 0.0561828613 -0.992675781
vn 0.109069824 0.0561828613 -0.992675781
vn 0.109069824 0.0561828613 -0.992675781
vn -0.115234375 -0.0576477051 0.991699219
vn -0.115234375 -0.0576477051 0.991699219
vn -0.115234375 -0.0576477051 0.991699219
vn 0.19921875 -0.112792969 -0.973632812
vn 0.19921875 -0.112792969 -0.973632812
vn 0.19921875 -0.112792969 -0.973632812
vn -0.175537109 0.114013672 0.978027344
vn -0.175537109 0.114013672 0.978027344
vn -0.175537109 0.114013672 0.978027344
vn -0.284423828 0.956054688 0.0707397461
vn -0.284423828 0.956054688 0.0707397461
vn -0.116333008 0.993164062 0.0192718506
vn -0.00153255463 1 -0.0155639648
vn -0.00456237793 0.999511719 -0.0254974365
vn -0.00456237793 0.999511719 -0.0254974365
vn 0.0500488281 0.998535156 0
vn 0.0500488281 0.998535156 0
vn 0.146972656 0.989257812 0
vn 0.146972656 0.989257812 0
vn 0.0500488281 0.998535156 0
vn 0.0500488281 0.998535156 0
vn 0.189208984 -0.981933594 0.0011844635
vn 0.189208984 -0.981933594 0.0011844635
vn 0.189208984 -0.981933594 0.0011844635
vn 0.189208984 -0.981933594 0.0011844635
vn -1 0 0
vn -1 0 0
vn -1 0 0
vn -1 0 0
vn -1 0 0
vn -1 0 0
vn 1 0 0
vn 1 0 0
vn 1 0 0
vn 1 0 0
vn 1 0 0
vn 1 0 0
vn -0 0 -1
vn -2.38418579E-07 0 -1
vn 0.000614643097 -8.0704689E-05 -1
vn -2.38418579E-07 0 -1
vn -0 0 -1
vn -2.38418579E-07 0 -1
vn -0 0 -1
vn -1.1920929E-07 0 -1
vn -0 0 -1
vn -0 0 -1
vn -0 0 -1
vn -0 0 -1
vn -0 0 -1
vn -0.000399827957 0.000114738941 1
vn 0.000504493713 -0.00292015076 1
vn -0 0 1
vn -1.78813934E-07 0 1
vn -3.57627869E-07 -1.01327896E-06 1
vn -4.17232513E-07 0 1
vn -1.37090683E-06 0 1
vn -6.55651093E-07 0 1
vn -1.60932541E-06 0 1
vn -0 0 1
vn -7.74860382E-07 0 1
vn -0 0 1
vn -0.0653076172 -0.998046875 0.000757217407
vn -0.031463623 -0.999511719 0.000364780426
vn -0.0653076172 -0.998046875 0.000757217407
vn -0.0335388184 -0.999511719 0.000389099121
vn -0 -1 0
vn -0 -1 0
vn -0 -1 0
vn -0 -1 0
vn -0 -1 0
vn -0 -1 0
vn -0.990234375 0.126953125 0.055480957
vn -0.940429688 0.340087891 0.013710022
vn -0.940429688 0.340087891 0.013710022
vn -0.991210938 0.117370605 0.0572814941
vn -0.996582031 0.0409240723 0.0712280273
vn -0.996582031 0.0409240723 0.0712280273
vn -0.987792969 0.153442383 0.025390625
vn -0.987792969 0.153442383 0.025390625
vn -0.987792969 0.153442383 0.025390625
vn -0.987792969 0.153442383 0.025390625
vn 1 -0.00398254395 -0.0174407959
vn 0.998046875 0.0608825684 -0.0132293701
vn 0.998046875 0.0608825684 -0.0132293701
vn 0.999511719 -0.0223388672 -0.0186157227
vn 0.986816406 -0.160400391 -0.0272979736
vn 0.986816406 -0.160400391 -0.0272979736
vn 0.891601562 -0.446044922 0.076171875
vn 0.891601562 -0.446044922 0.076171875
vn 0.891601562 -0.446044922 0.076171875
vn 0.891601562 -0.446044922 0.076171875
vn -0.651367188 -0.754394531 0.0771484375
vn -0.651367188 -0.754394531 0.0771484375
vn -0.651367188 -0.754394531 0.0771484375
vn -0.651367188 -0.754394531 0.0771484375
vn -0.944824219 -0.262695312 0.196899414
vn -0.944824219 -0.262695312 0.196899414
vn -0.944824219 -0.262695312 0.196899414
vn -0.944824219 -0.262695312 0.196899414
vn 0.931640625 -0.359863281 -0.0510864258
vn 0.931640625 -0.359863281 -0.0510864258
vn 0.931640625 -0.359863281 -0.0510864258
vn 0.931640625 -0.359863281 -0.0510864258
vn -0.990722656 -0.125244141 0.0563659668
vn -0.990722656 -0.125244141 0.0563659668
vn -0.990722656 -0.125244141 0.0563659668
vn -0.990722656 -0.125244141 0.0563659668
vn 0.955078125 -0.296386719 -0.0140380859
vn 0.955078125 -0.296386719 -0.0140380859
vn 0.955078125 -0.296386719 -0.0140380859
vn 0.955078125 -0.296386719 -0.0140380859
vn 0.93359375 -0.348876953 0.0802612305
vn 0.93359375 -0.348876953 0.0802612305
vn 0.93359375 -0.348876953 0.0802612305
vn 0.93359375 -0.348876953 0.0802612305
vn 0.981445312 -0.183959961 0.0545959473
vn 0.981445312 -0.183959961 0.0545959473
vn 0.981445312 -0.183959961 0.0545959473
vn 0.981445312 -0.183959961 0.0545959473
vn -0.891601562 -0.452636719 0.0209350586
vn -0.891601562 -0.452636719 0.0209350586
vn -0.891601562 -0.452636719 0.0209350586
vn -0.891601562 -0.452636719 0.0209350586
vn 0.850585938 -0.517578125 -0.0927124023
vn 0.850585938 -0.517578125 -0.0927124023
vn 0.850585938 -0.517578125 -0.0927124023
vn 0.850585938 -0.517578125 -0.0927124023
vn -0.9921875 -0.124572754 0.000163435936
vn -0.9921875 -0.124572754 0.000163435936
vn -0.9921875 -0.124572754 0.000163435936
vn -0.9921875 -0.124572754 0.000163435936
g Enclosure_Cloth_13_0
f 3/3/3 2/2/2 1/1/1
f 5/5/5 3/3/3 4/4/4
f 3/3/3 6/6/6 4/4/4
f 5/5/5 4/4/4 7/7/7
f 8/8/8 5/5/5 7/7/7
f 9/9/9 8/8/8 7/7/7
f 10/10/10 9/9/9 7/7/7
f 10/10/10 7/7/7 11/11/11
f 12/12/12 10/10/10 11/11/11
f 13/13/13 12/12/12 11/11/11
f 6/6/6 14/14/14 4/4/4
f 6/6/6 15/15/15 14/14/14
f 15/15/15 16/16/16 14/14/14
f 16/16/16 17/17/17 14/14/14
f 17/17/17 18/18/18 14/14/14
f 17/17/17 19/19/19 18/18/18
f 4/4/4 20/20/20 7/7/7
f 4/4/4 14/14/14 20/20/20
f 20/20/20 21/21/21 7/7/7
f 14/14/14 22/22/22 20/20/20
f 25/25/25 24/24/24 23/23/23
f 27/27/27 26/26/26 23/23/23
f 28/28/28 26/26/26 27/27/27
f 29/29/29 28/28/28 27/27/27
f 29/29/29 27/27/27 30/30/30
f 31/31/31 29/29/29 30/30/30
f 31/31/31 30/30/30 32/32/32
f 33/33/33 27/27/27 23/23/23
f 27/27/27 33/33/33 34/34/34
f 33/33/33 23/23/23 35/35/35
f 33/33/33 35/35/35 36/36/36
f 33/33/33 37/37/37 34/34/34
f 33/33/33 36/36/36 37/37/37
f 36/36/36 38/38/38 37/37/37
f 35/35/35 39/39/39 36/36/36
f 39/39/39 40/40/40 36/36/36
f 40/40/40 41/41/41 36/36/36
f 41/41/41 42/42/42 36/36/36
f 42/42/42 43/43/43 36/36/36
f 42/42/42 44/44/44 43/43/43
f 47/47/47 46/46/46 45/45/45
f 50/50/50 49/49/49 48/48/48
f 53/53/53 52/52/52 51/51/51
f 56/56/56 55/55/55 54/54/54
f 59/59/59 58/58/58 57/57/57
f 62/62/62 61/61/61 60/60/60
f 65/65/65 64/64/64 63/63/63
f 68/68/68 67/67/67 66/66/66
f 71/71/71 70/70/70 69/69/69
f 72/72/72 71/71/71 69/69/69
f 72/72/72 73/73/73 71/71/71
f 73/73/73 74/74/74 71/71/71
f 73/73/73 75/75/75 74/74/74
f 75/75/75 76/76/76 74/74/74
f 75/75/75 77/77/77 76/76/76
f 77/77/77 78/78/78 76/76/76
f 77/77/77 79/79/79 78/78/78
f 79/79/79 80/80/80 78/78/78
f 83/83/83 82/82/82 81/81/81
f 84/84/84 83/83/83 81/81/81
f 87/87/87 86/86/86 85/85/85
f 88/88/88 87/87/87 85/85/85
f 88/88/88 85/85/85 89/89/89
f 90/90/90 88/88/88 89/89/89
f 93/93/93 92/92/92 91/91/91
f 94/94/94 93/93/93 91/91/91
f 94/94/94 91/91/91 95/95/95
f 96/96/96 94/94/94 95/95/95
f 99/99/99 98/98/98 97/97/97
f 98/98/98 100/100/100 97/97/97
f 98/98/98 101/101/101 100/100/100
f 101/101/101 102/102/102 100/100/100
f 101/101/101 103/103/103 102/102/102
f 103/103/103 104/104/104 102/102/102
f 101/101/101 105/105/105 103/103/103
f 105/105/105 106/106/106 103/103/103
f 107/107/107 105/105/105 101/101/101
f 98/98/98 107/107/107 101/101/101
f 108/108/108 107/107/107 98/98/98
f 109/109/109 108/108/108 98/98/98
f 112/112/112 111/111/111 110/110/110
f 113/113/113 112/112/112 110/110/110
f 113/113/113 110/110/110 114/114/114
f 115/115/115 113/113/113 114/114/114
f 115/115/115 116/116/116 113/113/113
f 113/113/113 117/117/117 112/112/112
f 116/116/116 117/117/117 113/113/113
f 116/116/116 118/118/118 117/117/117
f 117/117/117 119/119/119 112/112/112
f 118/118/118 120/120/120 117/117/117
f 117/117/117 120/120/120 119/119/119
f 120/120/120 121/121/121 119/119/119
f 124/124/124 123/123/123 122/122/122
f 123/123/123 125/125/125 122/122/122
f 123/123/123 126/126/126 125/125/125
f 126/126/126 127/127/127 125/125/125
f 126/126/126 128/128/128 127/127/127
f 128/128/128 129/129/129 127/127/127
f 128/128/128 130/130/130 129/129/129
f 130/130/130 131/131/131 129/129/129
f 134/134/134 133/133/133 132/132/132
f 135/135/135 134/134/134 132/132/132
f 135/135/135 132/132/132 136/136/136
f 132/132/132 137/137/137 136/136/136
f 140/140/140 139/139/139 138/138/138
f 141/141/141 140/140/140 138/138/138
f 144/144/144 143/143/143 142/142/142
f 145/145/145 144/144/144 142/142/142
f 145/145/145 142/142/142 146/146/146
f 142/142/142 147/147/147 146/146/146
f 150/150/150 149/149/149 148/148/148
f 151/151/151 150/150/150 148/148/148
f 154/154/154 153/153/153 152/152/152
f 155/155/155 154/154/154 152/152/152
f 158/158/158 157/157/157 156/156/156
f 159/159/159 158/158/158 156/156/156
f 162/162/162 161/161/161 160/160/160
f 163/163/163 162/162/162 160/160/160
f 166/166/166 165/165/165 164/164/164
f 167/167/167 166/166/166 164/164/164
f 170/170/170 169/169/169 168/168/168
f 171/171/171 170/170/170 168/168/168
f 174/174/174 173/173/173 172/172/172
f 175/175/175 174/174/174 172/172/172
f 178/178/178 177/177/177 176/176/176
f 179/179/179 178/178/178 176/176/176
f 182/182/182 181/181/181 180/180/180
f 183/183/183 182/182/182 180/180/180
f 186/186/186 185/185/185 184/184/184
f 187/187/187 186/186/186 184/184/184
f 190/190/190 189/189/189 188/188/188
f 191/191/191 190/190/190 188/188/188
