g OutsideArea_Wall_1
v -1.71944571 1.57978559 0
v -1.71944571 -1.57978559 0
v 2.89331293 -1.57978559 0
v 2.89331293 1.57978559 0
v -2.89331293 1.57978523 0
v -2.89331293 -1.57978559 0
v -1.71944571 -1.57978559 0
v -1.71944571 1.57978559 0
vt 0.411865234 0.583984375
vt 0.411865234 0.296630859
vt 0.0142822266 0.296630859
vt 0.0142822266 0.583984375
vt 0.120300293 0.583984375
vt 0.120300293 0.296630859
vt 0.0142822266 0.296630859
vt 0.0142822266 0.583984375
vn -0 0 -1
vn -0 0 -1
vn -0 0 -1
vn -0 0 -1
vn -0 0 -1
vn -0 0 -1
vn -0 0 -1
vn -0 0 -1
g OutsideArea_Wall_1_0
f 3/3/3 2/2/2 1/1/1
f 4/4/4 3/3/3 1/1/1
f 7/7/7 6/6/6 5/5/5
f 8/8/8 7/7/7 5/5/5
