g CE_BordeHierba06
v -0.658010753 -0.020692162 -0.0455227565
v -1.11323832 -0.0289690268 -0.0869070805
v -0.658010753 -0.0289690268 -0.12001454
v -0.00413843241 -0.0289690268 -0.0372458917
v -0.00413843241 -0.00413843241 0.0703533509
v -0.00413843241 0.0124152972 0.12001454
v -0.558688375 -0.00413843241 0.12001454
v -1.09668459 -0.020692162 0.0620764861
v -1.56018902 -0.0289690268 -0.12001454
v -1.03874653 0.00413843241 0.12001454
v -1.54363529 -0.020692162 -0.0455227565
v -2.03197031 -0.0289690268 -0.0869070805
v -1.52708156 0.00413843241 0.12001454
v -2.00713972 -0.0124152972 0.0620764861
v -2.5285822 -0.0289690268 -0.12001454
v -2.02369345 0.0124152972 0.12001454
v -2.50375161 -0.0124152972 -0.0455227565
v -3.04174782 -0.0289690268 -0.0869070805
v -2.56168966 0.0124152972 0.12001454
v -3.00864036 -0.0124152972 0.0620764861
v -3.53835971 -0.0289690268 -0.12001454
v -3.1162396 0.020692162 0.12001454
v -3.50525225 -0.00413843241 -0.0455227565
v -4.010141 -0.0289690268 -0.0869070805
v -3.64595895 0.020692162 0.12001454
v -3.96875668 -0.00413843241 0.00413843241
v -4.05980219 0.00413843241 0.020692162
v -4.13429397 -0.0289690268 -0.0372458917
v -4.13429397 0.0289690268 0.12001454
v -4.23361635 -0.0289690268 0.12001454
v 0.658010753 -0.020692162 -0.0455227565
v 0.658010753 -0.0289690268 -0.12001454
v 1.11323832 -0.0289690268 -0.0869070805
v -0.00413843241 -0.0289690268 -0.0372458917
v -0.00413843241 -0.00413843241 0.0703533509
v 0.00413843241 0.0124152972 0.12001454
v 0.558688375 -0.00413843241 0.12001454
v 1.09668459 -0.020692162 0.0620764861
v 1.56018902 -0.0289690268 -0.12001454
v 1.03874653 0.00413843241 0.12001454
v 1.54363529 -0.020692162 -0.0455227565
v 2.03197031 -0.0289690268 -0.0869070805
v 1.52708156 0.00413843241 0.12001454
v 2.00713972 -0.0124152972 0.0620764861
v 2.5285822 -0.0289690268 -0.12001454
v 2.02369345 0.0124152972 0.12001454
v 2.50375161 -0.0124152972 -0.0455227565
v 3.04174782 -0.0289690268 -0.0869070805
v 2.56168966 0.0124152972 0.12001454
v 3.00864036 -0.0124152972 0.0620764861
v 3.53835971 -0.0289690268 -0.12001454
v 3.1162396 0.020692162 0.12001454
v 3.50525225 -0.00413843241 -0.0455227565
v 4.010141 -0.0289690268 -0.0869070805
v 3.64595895 0.020692162 0.12001454
v 3.96875668 -0.00413843241 0.00413843241
v 4.05980219 0.00413843241 0.020692162
v 4.13429397 -0.0289690268 -0.0372458917
v 4.13429397 0.0289690268 0.12001454
v 4.23361635 -0.0289690268 0.12001454
vt 0.992669449 0.217191381
vt 0.992669449 0.239347897
vt 0.996362202 0.217191381
vt 0.988976696 0.180263854
vt 0.981591191 0.180263854
vt 0.977898438 0.180263854
vt 0.977898438 0.213498628
vt 0.985283944 0.239347897
vt 0.996362202 0.265197166
vt 0.977898438 0.235655144
vt 0.992669449 0.265197166
vt 0.992669449 0.291046435
vt 0.977898438 0.261504413
vt 0.985283944 0.287353682
vt 0.996362202 0.316895704
vt 0.977898438 0.291046435
vt 0.992669449 0.316895704
vt 0.992669449 0.342744973
vt 0.977898438 0.316895704
vt 0.985283944 0.342744973
vt 0.996362202 0.372286994
vt 0.977898438 0.346437725
vt 0.988976696 0.368594242
vt 0.992669449 0.394443511
vt 0.977898438 0.375979747
vt 0.985283944 0.394443511
vt 0.985283944 0.398136263
vt 0.988976696 0.401829016
vt 0.977898438 0.401829016
vt 0.977898438 0.409214521
vt 0.988976696 0.372286994
vt 0.996362202 0.372286994
vt 0.992669449 0.350130478
vt 0.988976696 0.409214521
vt 0.981591191 0.409214521
vt 0.977898438 0.409214521
vt 0.977898438 0.3796725
vt 0.981591191 0.350130478
vt 0.996362202 0.324281209
vt 0.977898438 0.353823231
vt 0.988976696 0.324281209
vt 0.992669449 0.29843194
vt 0.977898438 0.327973962
vt 0.981591191 0.302124693
vt 0.996362202 0.272582671
vt 0.977898438 0.29843194
vt 0.988976696 0.276275424
vt 0.992669449 0.246733402
vt 0.977898438 0.272582671
vt 0.981591191 0.246733402
vt 0.996362202 0.220884133
vt 0.977898438 0.24304065
vt 0.988976696 0.220884133
vt 0.992669449 0.195034864
vt 0.977898438 0.213498628
vt 0.985283944 0.195034864
vt 0.985283944 0.191342112
vt 0.988976696 0.187649359
vt 0.977898438 0.187649359
vt 0.977898438 0.180263854
vn -0.00695289222 0.998026788 -0.0624034234
vn 0.0145921925 0.998026788 -0.0610704338
vn -0.00695289222 0.998026788 -0.0624034234
vn 0.0145921925 0.998026788 -0.0610704338
vn -0.00695289222 0.998026788 -0.0624034234
vn -0.00695289222 0.976481704 -0.215488143
vn -0.00695289222 0.976481704 -0.215488143
vn 0.0145921925 0.998026788 -0.0610704338
vn -0.00695289222 0.998026788 -0.0624034234
vn -0.00695289222 0.976481704 -0.215488143
vn -0.00695289222 0.998026788 -0.0624034234
vn 0.0145921925 0.998026788 -0.0610704338
vn 0.0145921925 0.976481704 -0.215105905
vn 0.0145921925 0.976481704 -0.215105905
vn -0.00695289222 0.998026788 -0.0624034234
vn 0.0145921925 0.976481704 -0.215105905
vn 0.0145921925 0.976481704 -0.215105905
vn 0.0145921925 0.976481704 -0.215105905
vn -0.00695289222 0.976481704 -0.215488143
vn -0.00695289222 0.976481704 -0.215488143
vn -0.00695289222 0.976481704 -0.215488143
vn 0.0145921925 0.976481704 -0.215105905
vn 0.0145921925 0.976481704 -0.215105905
vn -0.0284979769 0.954936619 -0.29543852
vn 0.0145921925 0.976481704 -0.215105905
vn -0.00695289222 0.976481704 -0.215488143
vn -0.0500430616 0.976481704 -0.209712123
vn -0.265493909 0.911846449 -0.313127829
vn -0.114678316 0.954936619 -0.273760731
vn -0.351674247 0.86875628 -0.34869435
vn 0.0145921925 0.998026788 -0.0610704338
vn -0.00695289222 0.998026788 -0.0624034234
vn -0.00695289222 0.998026788 -0.0624034234
vn -0.00695289222 0.998026788 -0.0624034234
vn -0.00695289222 0.998026788 -0.0624034234
vn 0.0145921925 0.976481704 -0.215105905
vn 0.0145921925 0.976481704 -0.215105905
vn -0.00695289222 0.998026788 -0.0624034234
vn -0.00695289222 0.998026788 -0.0624034234
vn -0.00695289222 0.976481704 -0.215488143
vn -0.00695289222 0.998026788 -0.0624034234
vn -0.00695289222 0.998026788 -0.0624034234
vn -0.00695289222 0.976481704 -0.215488143
vn -0.00695289222 0.976481704 -0.215488143
vn -0.00695289222 0.998026788 -0.0624034234
vn -0.00695289222 0.976481704 -0.215488143
vn -0.00695289222 0.976481704 -0.215488143
vn -0.00695289222 0.976481704 -0.215488143
vn -0.00695289222 0.976481704 -0.215488143
vn -0.00695289222 0.976481704 -0.215488143
vn -0.00695289222 0.976481704 -0.215488143
vn -0.0284979769 0.976481704 -0.213708558
vn -0.0284979769 0.976481704 -0.213708558
vn 0.0361372772 0.954936619 -0.294601682
vn -0.00695289222 0.976481704 -0.215488143
vn 0.0145921925 0.976481704 -0.215105905
vn 0.0576823619 0.976481704 -0.207740771
vn 0.251588124 0.911846449 -0.324406332
vn 0.122317616 0.954936619 -0.270433827
vn 0.359313548 0.86875628 -0.340817107
g CE_BordeHierba06_0
f 3/3/3 2/2/2 1/1/1
f 3/3/3 1/1/1 4/4/4
f 1/1/1 5/5/5 4/4/4
f 6/6/6 5/5/5 1/1/1
f 7/7/7 6/6/6 1/1/1
f 2/2/2 8/8/8 1/1/1
f 7/7/7 1/1/1 8/8/8
f 2/2/2 9/9/9 8/8/8
f 10/10/10 7/7/7 8/8/8
f 9/9/9 11/11/11 8/8/8
f 10/10/10 8/8/8 11/11/11
f 9/9/9 12/12/12 11/11/11
f 13/13/13 10/10/10 11/11/11
f 12/12/12 14/14/14 11/11/11
f 13/13/13 11/11/11 14/14/14
f 12/12/12 15/15/15 14/14/14
f 16/16/16 13/13/13 14/14/14
f 15/15/15 17/17/17 14/14/14
f 16/16/16 14/14/14 17/17/17
f 15/15/15 18/18/18 17/17/17
f 19/19/19 16/16/16 17/17/17
f 18/18/18 20/20/20 17/17/17
f 19/19/19 17/17/17 20/20/20
f 18/18/18 21/21/21 20/20/20
f 22/22/22 19/19/19 20/20/20
f 21/21/21 23/23/23 20/20/20
f 22/22/22 20/20/20 23/23/23
f 21/21/21 24/24/24 23/23/23
f 25/25/25 22/22/22 23/23/23
f 24/24/24 26/26/26 23/23/23
f 25/25/25 23/23/23 26/26/26
f 26/26/26 24/24/24 27/27/27
f 26/26/26 27/27/27 25/25/25
f 24/24/24 28/28/28 27/27/27
f 27/27/27 29/29/29 25/25/25
f 28/28/28 30/30/30 27/27/27
f 30/30/30 29/29/29 27/27/27
f 33/33/33 32/32/32 31/31/31
f 31/31/31 32/32/32 34/34/34
f 35/35/35 31/31/31 34/34/34
f 35/35/35 36/36/36 31/31/31
f 36/36/36 37/37/37 31/31/31
f 38/38/38 33/33/33 31/31/31
f 31/31/31 37/37/37 38/38/38
f 39/39/39 33/33/33 38/38/38
f 37/37/37 40/40/40 38/38/38
f 41/41/41 39/39/39 38/38/38
f 38/38/38 40/40/40 41/41/41
f 42/42/42 39/39/39 41/41/41
f 40/40/40 43/43/43 41/41/41
f 44/44/44 42/42/42 41/41/41
f 41/41/41 43/43/43 44/44/44
f 45/45/45 42/42/42 44/44/44
f 43/43/43 46/46/46 44/44/44
f 47/47/47 45/45/45 44/44/44
f 44/44/44 46/46/46 47/47/47
f 48/48/48 45/45/45 47/47/47
f 46/46/46 49/49/49 47/47/47
f 50/50/50 48/48/48 47/47/47
f 47/47/47 49/49/49 50/50/50
f 51/51/51 48/48/48 50/50/50
f 49/49/49 52/52/52 50/50/50
f 53/53/53 51/51/51 50/50/50
f 50/50/50 52/52/52 53/53/53
f 54/54/54 51/51/51 53/53/53
f 52/52/52 55/55/55 53/53/53
f 56/56/56 54/54/54 53/53/53
f 56/56/56 53/53/53 55/55/55
f 54/54/54 56/56/56 57/57/57
f 55/55/55 57/57/57 56/56/56
f 58/58/58 54/54/54 57/57/57
f 55/55/55 59/59/59 57/57/57
f 60/60/60 58/58/58 57/57/57
f 59/59/59 60/60/60 57/57/57
