g P1_Hole
v -22.0871716 4.98526669 -7.02188349
v -20.9376087 4.98526669 -6.68994141
v -20.9376087 4.98526669 -5.9493084
v -22.0871716 4.98526669 -5.08243704
v -22.7704582 4.98526669 -5.3079505
v -22.7704582 4.98526669 -6.78789902
v -23.8636227 4.98526669 -6.45665646
v -23.8636227 4.98526669 -6.24118519
vt 0.149902344 0.394042969
vt 0.167358398 0.390136719
vt 0.16809082 0.379150391
vt 0.151733398 0.364990234
vt 0.141357422 0.367675781
vt 0.139892578 0.389892578
vt 0.123901367 0.383789062
vt 0.124084473 0.380615234
vn -0 1 0
vn -0 1 0
vn -0 1 0
vn -0 1 0
vn -0 1 0
vn -0 1 0
vn -0 1 0
vn -0 1 0
g P1_Hole_0
f 3/3/3 2/2/2 1/1/1
f 4/4/4 3/3/3 1/1/1
f 4/4/4 1/1/1 5/5/5
f 1/1/1 6/6/6 5/5/5
f 6/6/6 7/7/7 5/5/5
f 7/7/7 8/8/8 5/5/5
