g RodRoom_PinkDoor
v 0.0611444078 0.935192823 -0.297727048
v 0.0611444078 0.951650381 -0.297727048
v 0.107789308 0.951650381 -0.297727048
v 0.107789308 0.935192823 -0.297727048
v 0.0611444078 0.957419395 -0.310393065
v 0.0611444078 0.951650381 -0.323059082
v 0.107789308 0.951650381 -0.323059082
v 0.107789308 0.957419395 -0.310393065
v 0.0611444078 0.951650381 -0.297727048
v 0.107789308 0.951650381 -0.297727048
v 0.0611444078 0.951650381 -0.323059082
v 0.0611444078 0.935192823 -0.323059082
v 0.107789308 0.935192823 -0.323059082
v 0.107789308 0.951650381 -0.323059082
v 0.0611444078 0.929418921 -0.310393065
v 0.0611444078 0.935192823 -0.297727048
v 0.107789308 0.935192823 -0.297727048
v 0.107789308 0.929418921 -0.310393065
v 0.0611444078 0.935192823 -0.323059082
v 0.0611444078 0.929418921 -0.310393065
v 0.107789308 0.929418921 -0.310393065
v 0.107789308 0.935192823 -0.323059082
v 0.0597259514 0.930922806 -0.291152328
v 0.0521557592 0.930922806 -0.291152328
v 0.0521557592 0.955920398 -0.291152328
v 0.0597259514 0.955920398 -0.291152328
v 0.0597259514 0.955920398 -0.291152328
v 0.0521557592 0.955920398 -0.291152328
v 0.0521557592 0.964685023 -0.310393065
v 0.0597259514 0.964685023 -0.310393065
v 0.0521557592 0.955920398 -0.329631329
v 0.0597259514 0.955920398 -0.329631329
v 0.0597259514 0.955920398 -0.329631329
v 0.0521557592 0.955920398 -0.329631329
v 0.0521557592 0.930922806 -0.329631329
v 0.0597259514 0.930922806 -0.329631329
v 0.0597259514 0.930922806 -0.329631329
v 0.0521557592 0.930922806 -0.329631329
v 0.0521557592 0.922155738 -0.310393065
v 0.0597259514 0.922155738 -0.310393065
v 0.0521557592 0.930922806 -0.291152328
v 0.0597259514 0.930922806 -0.291152328
v 0.112687379 0.930513918 -0.152990714
v 0.112687379 0.952491462 -0.152990714
v 0.125758052 0.958352029 -0.265981436
v 0.125758052 0.924650848 -0.265981436
v 0.125769034 0.922604978 -0.333598614
v 0.125769034 0.960396707 -0.333598614
v 0.121845089 0.92823118 -0.371630847
v 0.121845089 0.954772949 -0.371630847
v 0.093535766 0.928195775 -0.151694328
v 0.106813349 0.960786104 -0.266437978
v 0.093535766 0.954804659 -0.151694328
v 0.106813349 0.922214329 -0.266437978
v 0.106813349 0.92016232 -0.333239734
v 0.106813349 0.962839305 -0.333239734
v 0.102709346 0.926130354 -0.373054177
v 0.102709346 0.956872523 -0.373054177
v 0.102722168 0.928195775 -0.151694328
v 0.112687379 0.930513918 -0.152990714
v 0.125758052 0.924650848 -0.265981436
v 0.115999751 0.922214329 -0.266437978
v 0.093535766 0.928195775 -0.151694328
v 0.125769034 0.922604978 -0.333598614
v 0.106813349 0.922214329 -0.266437978
v 0.115999751 0.92016232 -0.333239734
v 0.121845089 0.92823118 -0.371630847
v 0.106813349 0.92016232 -0.333239734
v 0.111896358 0.926130354 -0.373054177
v 0.102709346 0.926130354 -0.373054177
v 0.102722168 0.954804659 -0.151694328
v 0.112687379 0.952491462 -0.152990714
v 0.112687379 0.930513918 -0.152990714
v 0.102722168 0.928195775 -0.151694328
v 0.093535766 0.954804659 -0.151694328
v 0.093535766 0.928195775 -0.151694328
v 0.111896358 0.926130354 -0.373054177
v 0.121845089 0.92823118 -0.371630847
v 0.121845089 0.954772949 -0.371630847
v 0.111896358 0.956872523 -0.373054177
v 0.102709346 0.926130354 -0.373054177
v 0.102709346 0.956872523 -0.373054177
v 0.111896358 0.956872523 -0.373054177
v 0.121845089 0.954772949 -0.371630847
v 0.125769034 0.960396707 -0.333598614
v 0.115999751 0.962839305 -0.333239734
v 0.102709346 0.956872523 -0.373054177
v 0.125758052 0.958352029 -0.265981436
v 0.106813349 0.962839305 -0.333239734
v 0.115999751 0.960786104 -0.266437978
v 0.112687379 0.952491462 -0.152990714
v 0.106813349 0.960786104 -0.266437978
v 0.102722168 0.954804659 -0.151694328
v 0.093535766 0.954804659 -0.151694328
v -0 2.10500002 0.555002451
v 0.0883789062 2.10500002 0.555002451
v 0.0883789062 0 0.555000007
v -0 0 0.555000007
v -0 2.10500002 -0.555002451
v 0.0883789062 2.10500002 -0.555002451
v 0.0883789062 2.10500002 0.555002451
v -0 2.10500002 0.555002451
v 0.0883789062 0 -0.555000007
v 0.0883789062 2.10500002 -0.555002451
v -0 2.10500002 -0.555002451
v -0 0 -0.555000007
v 0.056360472 0 0.449999988
v 0.056360472 2 0.449999988
v 0.056360472 2 -0.449999988
v 0.056360472 0 -0.449999988
v 0.072554931 0 0.449999988
v 0.072554931 0 0.526000977
v 0.072554931 2.07600093 0.526000977
v 0.072554931 2 0.449999988
v 0.072554931 2 0.449999988
v 0.072554931 2.07600093 0.526000977
v 0.072554931 2.07600093 -0.526000977
v 0.072554931 2 -0.449999988
v 0.072554931 2 -0.449999988
v 0.072554931 2.07600093 -0.526000977
v 0.072554931 0 -0.526000977
v 0.072554931 0 -0.449999988
v 0.0883789062 0 0.526000977
v 0.0883789062 0 0.555000007
v 0.0883789062 2.10500002 0.555002451
v 0.0883789062 2.07600093 0.526000977
v 0.0883789062 2.07600093 0.526000977
v 0.0883789062 2.10500002 0.555002451
v 0.0883789062 2.10500002 -0.555002451
v 0.0883789062 2.07600093 -0.526000977
v 0.0883789062 2.07600093 -0.526000977
v 0.0883789062 2.10500002 -0.555002451
v 0.0883789062 0 -0.555000007
v 0.0883789062 0 -0.526000977
v 0.072554931 0 -0.449999988
v 0.056360472 0 -0.449999988
v 0.056360472 2 -0.449999988
v 0.072554931 2 -0.449999988
v 0.072554931 2 -0.449999988
v 0.056360472 2 -0.449999988
v 0.056360472 2 0.449999988
v 0.072554931 2 0.449999988
v 0.072554931 2 0.449999988
v 0.056360472 2 0.449999988
v 0.056360472 0 0.449999988
v 0.072554931 0 0.449999988
v 0.072554931 0 0.526000977
v 0.0883789062 0 0.526000977
v 0.0883789062 2.07600093 0.526000977
v 0.072554931 2.07600093 0.526000977
v 0.072554931 2.07600093 0.526000977
v 0.0883789062 2.07600093 0.526000977
v 0.0883789062 2.07600093 -0.526000977
v 0.072554931 2.07600093 -0.526000977
v 0.072554931 2.07600093 -0.526000977
v 0.0883789062 2.07600093 -0.526000977
v 0.0883789062 0 -0.526000977
v 0.072554931 0 -0.526000977
v 0.0611444078 0.935192823 -0.323059082
v 0.0597259514 0.922155738 -0.310393065
v 0.0611444078 0.929418921 -0.310393065
v 0.0597259514 0.930922806 -0.329631329
v 0.0597259514 0.930922806 -0.291152328
v 0.0611444078 0.951650381 -0.323059082
v 0.0611444078 0.935192823 -0.297727048
v 0.0597259514 0.955920398 -0.329631329
v 0.0597259514 0.955920398 -0.291152328
v 0.0611444078 0.957419395 -0.310393065
v 0.0611444078 0.951650381 -0.297727048
v 0.0597259514 0.964685023 -0.310393065
vt 0.726074219 0.317138672
vt 0.726074219 0.323974609
vt 0.745117188 0.323974609
vt 0.745117188 0.317138672
vt 0.726074219 0.329833984
vt 0.726074219 0.335449219
vt 0.745117188 0.335449219
vt 0.745117188 0.329833984
vt 0.726074219 0.323974609
vt 0.745117188 0.323974609
vt 0.726074219 0.335449219
vt 0.726074219 0.342285156
vt 0.745117188 0.342285156
vt 0.745117188 0.335449219
vt 0.726074219 0.311523438
vt 0.726074219 0.317138672
vt 0.745117188 0.317138672
vt 0.745117188 0.311523438
vt 0.726074219 0.342285156
vt 0.726074219 0.347900391
vt 0.745117188 0.347900391
vt 0.745117188 0.342285156
vt 0.739746094 0.290771484
vt 0.741210938 0.288085938
vt 0.728027344 0.288330078
vt 0.729980469 0.290771484
vt 0.729980469 0.290771484
vt 0.728027344 0.288330078
vt 0.723144531 0.298583984
vt 0.726074219 0.298583984
vt 0.728515625 0.308837891
vt 0.729980469 0.306396484
vt 0.729980469 0.306396484
vt 0.728515625 0.308837891
vt 0.741699219 0.308837891
vt 0.739746094 0.306396484
vt 0.739746094 0.306396484
vt 0.741699219 0.308837891
vt 0.746582031 0.298339844
vt 0.743652344 0.298583984
vt 0.741210938 0.288085938
vt 0.739746094 0.290771484
vt 0.739257812 0.356689453
vt 0.734375 0.356689453
vt 0.732910156 0.385253906
vt 0.741699219 0.385253906
vt 0.7421875 0.402587891
vt 0.732421875 0.402587891
vt 0.740234375 0.411865234
vt 0.734375 0.411621094
vt 0.740722656 0.473876953
vt 0.732421875 0.443847656
vt 0.733886719 0.473876953
vt 0.7421875 0.443847656
vt 0.743164062 0.426513672
vt 0.731933594 0.426513672
vt 0.741699219 0.416015625
vt 0.733398438 0.416015625
vt 0.741210938 0.354736328
vt 0.739257812 0.356689453
vt 0.741699219 0.385253906
vt 0.744628906 0.385009766
vt 0.743652344 0.354248047
vt 0.7421875 0.402587891
vt 0.747070312 0.384765625
vt 0.744628906 0.402832031
vt 0.740234375 0.411865234
vt 0.747070312 0.403076172
vt 0.741699219 0.413818359
vt 0.744140625 0.414550781
vt 0.732421875 0.354980469
vt 0.734375 0.356689453
vt 0.739257812 0.356689453
vt 0.741210938 0.354736328
vt 0.732421875 0.352539062
vt 0.741210938 0.352294922
vt 0.741699219 0.413818359
vt 0.740234375 0.411865234
vt 0.734375 0.411621094
vt 0.732910156 0.413574219
vt 0.741699219 0.416015625
vt 0.733398438 0.416015625
vt 0.732910156 0.413574219
vt 0.734375 0.411621094
vt 0.732421875 0.402587891
vt 0.729980469 0.402832031
vt 0.730957031 0.414550781
vt 0.732910156 0.385253906
vt 0.727539062 0.403320312
vt 0.729980469 0.385253906
vt 0.734375 0.356689453
vt 0.727539062 0.385009766
vt 0.732421875 0.354980469
vt 0.729980469 0.354492188
vt 0.364990234 0.0444030762
vt 0.364990234 0.0589599609
vt 0.711425781 0.0589599609
vt 0.711425781 0.0444030762
vt 0.391601562 0.0444030762
vt 0.391601562 0.0589599609
vt 0.57421875 0.0589599609
vt 0.57421875 0.0444030762
vt 0.711425781 0.0589599609
vt 0.364990234 0.0589599609
vt 0.364990234 0.0444030762
vt 0.711425781 0.0444030762
vt 0.407470703 0.0895385742
vt 0.407470703 0.424804688
vt 0.55859375 0.424804688
vt 0.55859375 0.0895385742
vt 0.711425781 0.0626220703
vt 0.711425781 0.0449523926
vt 0.369628906 0.0449523926
vt 0.382324219 0.0626220703
vt 0.557128906 0.0626220703
vt 0.569335938 0.0449523926
vt 0.396240234 0.0449523926
vt 0.408935547 0.0626220703
vt 0.382324219 0.0626220703
vt 0.369628906 0.0449523926
vt 0.711425781 0.0449523926
vt 0.711425781 0.0626220703
vt 0.711425781 0.0637207031
vt 0.711425781 0.0589599609
vt 0.364990234 0.0589599609
vt 0.369628906 0.0637207031
vt 0.569335938 0.0637207031
vt 0.57421875 0.0589599609
vt 0.391601562 0.0589599609
vt 0.396240234 0.0637207031
vt 0.369628906 0.0637207031
vt 0.364990234 0.0589599609
vt 0.711425781 0.0589599609
vt 0.711425781 0.0637207031
vt 0.711425781 0.0788574219
vt 0.711425781 0.0814819336
vt 0.382324219 0.0814819336
vt 0.382324219 0.0788574219
vt 0.408935547 0.0788574219
vt 0.408935547 0.0814819336
vt 0.557128906 0.0814819336
vt 0.557128906 0.0788574219
vt 0.382324219 0.0788574219
vt 0.382324219 0.0814819336
vt 0.711425781 0.0814819336
vt 0.711425781 0.0788574219
vt 0.711425781 0.0663452148
vt 0.711425781 0.0637207031
vt 0.369628906 0.0637207031
vt 0.369628906 0.0663452148
vt 0.569335938 0.0663452148
vt 0.569335938 0.0637207031
vt 0.396240234 0.0637207031
vt 0.396240234 0.0663452148
vt 0.369628906 0.0663452148
vt 0.369628906 0.0637207031
vt 0.711425781 0.0637207031
vt 0.711425781 0.0663452148
vt 0.73828125 0.303710938
vt 0.743652344 0.298583984
vt 0.740722656 0.298583984
vt 0.739746094 0.306396484
vt 0.739746094 0.290771484
vt 0.731445312 0.303710938
vt 0.73828125 0.293457031
vt 0.729980469 0.306396484
vt 0.729980469 0.290771484
vt 0.729003906 0.298583984
vt 0.731445312 0.293457031
vt 0.726074219 0.298583984
vn 0.263183594 -0.477539062 0.838378906
vn 0.263183594 0.477539062 0.838378906
vn -0 0.495117188 0.868652344
vn -0 -0.495117188 0.868652344
vn 0.23059082 0.973144531 0
vn 0.263183594 0.477539062 -0.838378906
vn -0 0.495117188 -0.868652344
vn -0 1 0
vn 0.263183594 0.477539062 0.838378906
vn -0 0.495117188 0.868652344
vn 0.263183594 0.477539062 -0.838378906
vn 0.262939453 -0.477539062 -0.838378906
vn -0 -0.495117188 -0.868652344
vn -0 0.495117188 -0.868652344
vn 0.23059082 -0.973144531 0
vn 0.263183594 -0.477539062 0.838378906
vn -0 -0.495117188 0.868652344
vn -0 -1 0
vn 0.262939453 -0.477539062 -0.838378906
vn 0.23059082 -0.973144531 0
vn -0 -1 0
vn -0 -0.495117188 -0.868652344
vn 0.447753906 -0.442871094 0.776855469
vn -0 -0.495117188 0.868652344
vn -0 0.495117188 0.868652344
vn 0.447753906 0.442871094 0.776855469
vn 0.447753906 0.442871094 0.776855469
vn -0 0.495117188 0.868652344
vn -0 1 0
vn 0.464111328 0.885742188 7.15255737E-07
vn -0 0.495117188 -0.868652344
vn 0.447753906 0.442871094 -0.776855469
vn 0.447753906 0.442871094 -0.776855469
vn -0 0.495117188 -0.868652344
vn -0 -0.495117188 -0.868652344
vn 0.447509766 -0.442871094 -0.776855469
vn 0.447509766 -0.442871094 -0.776855469
vn -0 -0.495117188 -0.868652344
vn -0 -1 0
vn 0.463867188 -0.885742188 8.34465027E-07
vn -0 -0.495117188 0.868652344
vn 0.447753906 -0.442871094 0.776855469
vn 0.924316406 -0.328369141 0.194091797
vn 0.924316406 0.328369141 0.194091797
vn 0.958007812 0.276855469 0.0740966797
vn 0.958007812 -0.276855469 0.0740966797
vn 0.963867188 -0.263183594 -0.0411987305
vn 0.963867188 0.263183594 -0.0411987305
vn 0.907714844 -0.263671875 -0.326660156
vn 0.907714844 0.263671875 -0.326660156
vn -0.96875 -0.244995117 -0.0380249023
vn -0.963378906 0.263427734 -0.0514221191
vn -0.96875 0.244995117 -0.0380249023
vn -0.963378906 -0.263427734 -0.0514221191
vn -0.969238281 -0.244018555 0.0235900879
vn -0.969238281 0.244018555 0.0235900879
vn -0.97265625 -0.208129883 -0.102722168
vn -0.97265625 0.208129883 -0.102722168
vn 0.119384766 -0.955566406 0.268798828
vn 0.924316406 -0.328369141 0.194091797
vn 0.958007812 -0.276855469 0.0740966797
vn 0.130615234 -0.990234375 0.0529785156
vn -0.96875 -0.244995117 -0.0380249023
vn 0.963867188 -0.263183594 -0.0411987305
vn -0.963378906 -0.263427734 -0.0514221191
vn 0.128051758 -0.991210938 -0.0391540527
vn 0.907714844 -0.263671875 -0.326660156
vn -0.969238281 -0.244018555 0.0235900879
vn 0.117919922 -0.739746094 -0.662597656
vn -0.97265625 -0.208129883 -0.102722168
vn 0.119262695 0.955566406 0.268798828
vn 0.924316406 0.328369141 0.194091797
vn 0.924316406 -0.328369141 0.194091797
vn 0.119384766 -0.955566406 0.268798828
vn -0.96875 0.244995117 -0.0380249023
vn -0.96875 -0.244995117 -0.0380249023
vn 0.117919922 -0.739746094 -0.662597656
vn 0.907714844 -0.263671875 -0.326660156
vn 0.907714844 0.263671875 -0.326660156
vn 0.117858887 0.739746094 -0.662597656
vn -0.97265625 -0.208129883 -0.102722168
vn -0.97265625 0.208129883 -0.102722168
vn 0.117858887 0.739746094 -0.662597656
vn 0.907714844 0.263671875 -0.326660156
vn 0.963867188 0.263183594 -0.0411987305
vn 0.127929688 0.991210938 -0.0391235352
vn -0.97265625 0.208129883 -0.102722168
vn 0.958007812 0.276855469 0.0740966797
vn -0.969238281 0.244018555 0.0235900879
vn 0.130493164 0.990234375 0.0529785156
vn 0.924316406 0.328369141 0.194091797
vn -0.963378906 0.263427734 -0.0514221191
vn 0.119262695 0.955566406 0.268798828
vn -0.96875 0.244995117 -0.0380249023
vn -0 -1.13248825E-06 1
vn -0 -1.13248825E-06 1
vn -0 -1.13248825E-06 1
vn -0 -1.13248825E-06 1
vn -0 1 0
vn -0 1 0
vn -0 1 0
vn -0 1 0
vn -0 -1.13248825E-06 -1
vn -0 -1.13248825E-06 -1
vn -0 -1.13248825E-06 -1
vn -0 -1.13248825E-06 -1
vn 1 0 0
vn 1 0 0
vn 1 0 0
vn 1 0 0
vn 1 0 0
vn 1 0 0
vn 1 0 0
vn 1 0 0
vn 1 0 0
vn 1 0 0
vn 1 0 0
vn 1 0 0
vn 1 0 0
vn 1 0 0
vn 1 0 0
vn 1 0 0
vn 1 0 0
vn 1 0 0
vn 1 0 0
vn 1 0 0
vn 1 0 0
vn 1 0 0
vn 1 0 0
vn 1 0 0
vn 1 0 0
vn 1 0 0
vn 1 0 0
vn 1 0 0
vn -0 0 1
vn -0 0 1
vn -0 0 1
vn -0 0 1
vn -0 -1 0
vn -0 -1 0
vn -0 -1 0
vn -0 -1 0
vn -0 0 -1
vn -0 0 -1
vn -0 0 -1
vn -0 0 -1
vn -0 0 -1
vn -0 0 -1
vn -0 0 -1
vn -0 0 -1
vn -0 -1 0
vn -0 -1 0
vn -0 -1 0
vn -0 -1 0
vn -0 0 1
vn -0 0 1
vn -0 0 1
vn -0 0 1
vn 0.262939453 -0.477539062 -0.838378906
vn 0.463867188 -0.885742188 8.34465027E-07
vn 0.23059082 -0.973144531 0
vn 0.447509766 -0.442871094 -0.776855469
vn 0.447753906 -0.442871094 0.776855469
vn 0.263183594 0.477539062 -0.838378906
vn 0.263183594 -0.477539062 0.838378906
vn 0.447753906 0.442871094 -0.776855469
vn 0.447753906 0.442871094 0.776855469
vn 0.23059082 0.973144531 0
vn 0.263183594 0.477539062 0.838378906
vn 0.464111328 0.885742188 7.15255737E-07
g RodRoom_PinkDoor_0
f 3/3/3 2/2/2 1/1/1
f 4/4/4 3/3/3 1/1/1
f 7/7/7 6/6/6 5/5/5
f 8/8/8 7/7/7 5/5/5
f 8/8/8 5/5/5 9/9/9
f 10/10/10 8/8/8 9/9/9
f 13/13/13 12/12/12 11/11/11
f 14/14/14 13/13/13 11/11/11
f 17/17/17 16/16/16 15/15/15
f 18/18/18 17/17/17 15/15/15
f 21/21/21 20/20/20 19/19/19
f 22/22/22 21/21/21 19/19/19
f 25/25/25 24/24/24 23/23/23
f 26/26/26 25/25/25 23/23/23
f 29/29/29 28/28/28 27/27/27
f 30/30/30 29/29/29 27/27/27
f 31/31/31 29/29/29 30/30/30
f 32/32/32 31/31/31 30/30/30
f 35/35/35 34/34/34 33/33/33
f 36/36/36 35/35/35 33/33/33
f 39/39/39 38/38/38 37/37/37
f 40/40/40 39/39/39 37/37/37
f 41/41/41 39/39/39 40/40/40
f 42/42/42 41/41/41 40/40/40
f 45/45/45 44/44/44 43/43/43
f 46/46/46 45/45/45 43/43/43
f 46/46/46 47/47/47 45/45/45
f 47/47/47 48/48/48 45/45/45
f 47/47/47 49/49/49 48/48/48
f 49/49/49 50/50/50 48/48/48
f 53/53/53 52/52/52 51/51/51
f 52/52/52 54/54/54 51/51/51
f 55/55/55 54/54/54 52/52/52
f 56/56/56 55/55/55 52/52/52
f 57/57/57 55/55/55 56/56/56
f 58/58/58 57/57/57 56/56/56
f 61/61/61 60/60/60 59/59/59
f 62/62/62 61/61/61 59/59/59
f 59/59/59 63/63/63 62/62/62
f 64/64/64 61/61/61 62/62/62
f 63/63/63 65/65/65 62/62/62
f 66/66/66 64/64/64 62/62/62
f 62/62/62 65/65/65 66/66/66
f 67/67/67 64/64/64 66/66/66
f 65/65/65 68/68/68 66/66/66
f 69/69/69 67/67/67 66/66/66
f 66/66/66 68/68/68 69/69/69
f 68/68/68 70/70/70 69/69/69
f 73/73/73 72/72/72 71/71/71
f 74/74/74 73/73/73 71/71/71
f 71/71/71 75/75/75 74/74/74
f 75/75/75 76/76/76 74/74/74
f 79/79/79 78/78/78 77/77/77
f 80/80/80 79/79/79 77/77/77
f 77/77/77 81/81/81 80/80/80
f 81/81/81 82/82/82 80/80/80
f 85/85/85 84/84/84 83/83/83
f 86/86/86 85/85/85 83/83/83
f 83/83/83 87/87/87 86/86/86
f 88/88/88 85/85/85 86/86/86
f 87/87/87 89/89/89 86/86/86
f 90/90/90 88/88/88 86/86/86
f 86/86/86 89/89/89 90/90/90
f 91/91/91 88/88/88 90/90/90
f 89/89/89 92/92/92 90/90/90
f 93/93/93 91/91/91 90/90/90
f 90/90/90 92/92/92 93/93/93
f 92/92/92 94/94/94 93/93/93
f 97/97/97 96/96/96 95/95/95
f 98/98/98 97/97/97 95/95/95
f 101/101/101 100/100/100 99/99/99
f 102/102/102 101/101/101 99/99/99
f 105/105/105 104/104/104 103/103/103
f 106/106/106 105/105/105 103/103/103
f 109/109/109 108/108/108 107/107/107
f 110/110/110 109/109/109 107/107/107
f 113/113/113 112/112/112 111/111/111
f 114/114/114 113/113/113 111/111/111
f 117/117/117 116/116/116 115/115/115
f 118/118/118 117/117/117 115/115/115
f 121/121/121 120/120/120 119/119/119
f 122/122/122 121/121/121 119/119/119
f 125/125/125 124/124/124 123/123/123
f 126/126/126 125/125/125 123/123/123
f 129/129/129 128/128/128 127/127/127
f 130/130/130 129/129/129 127/127/127
f 133/133/133 132/132/132 131/131/131
f 134/134/134 133/133/133 131/131/131
f 137/137/137 136/136/136 135/135/135
f 138/138/138 137/137/137 135/135/135
f 141/141/141 140/140/140 139/139/139
f 142/142/142 141/141/141 139/139/139
f 145/145/145 144/144/144 143/143/143
f 146/146/146 145/145/145 143/143/143
f 149/149/149 148/148/148 147/147/147
f 150/150/150 149/149/149 147/147/147
f 153/153/153 152/152/152 151/151/151
f 154/154/154 153/153/153 151/151/151
f 157/157/157 156/156/156 155/155/155
f 158/158/158 157/157/157 155/155/155
f 161/161/161 160/160/160 159/159/159
f 160/160/160 162/162/162 159/159/159
f 163/163/163 160/160/160 161/161/161
f 159/159/159 162/162/162 164/164/164
f 165/165/165 163/163/163 161/161/161
f 162/162/162 166/166/166 164/164/164
f 167/167/167 163/163/163 165/165/165
f 164/164/164 166/166/166 168/168/168
f 169/169/169 167/167/167 165/165/165
f 166/166/166 170/170/170 168/168/168
f 170/170/170 167/167/167 169/169/169
f 168/168/168 170/170/170 169/169/169
