g CanMetal_Big
v -0.118447267 -0.14810279 0.0734777823
v -0.118447267 0.148102835 0.0734777823
v -0.0317980945 0.148102835 0.13571091
v -0.0317980945 -0.14810279 0.13571091
v 0.0734777823 0.148102835 0.118447565
v 0.0734777823 -0.14810279 0.118447565
v 0.0734777823 -0.14810279 0.118447565
v 0.0734777823 0.148102835 0.118447565
v 0.13571167 0.148102835 0.0317987055
v 0.13571167 -0.14810279 0.0317987055
v 0.118447267 0.148102835 -0.0734779313
v 0.118447267 -0.14810279 -0.0734779313
v 0.118447267 -0.14810279 -0.0734779313
v 0.118447267 0.148102835 -0.0734779313
v 0.0317980945 0.148102835 -0.135711059
v 0.0317980945 -0.14810279 -0.135711059
v -0.0734777823 0.148102835 -0.118447721
v -0.0734777823 -0.14810279 -0.118447721
v -0.0734777823 -0.14810279 -0.118447721
v -0.0734777823 0.148102835 -0.118447721
v -0.13571167 0.148102835 -0.0317987055
v -0.13571167 -0.14810279 -0.0317987055
v -0.118447267 0.148102835 0.0734777823
v -0.118447267 -0.14810279 0.0734777823
v -0.0734777823 0.148102835 -0.118447721
v -0 0.148102835 -1.52587887E-07
v -0.13571167 0.148102835 -0.0317987055
v 0.0317980945 0.148102835 -0.135711059
v -0.118447267 0.148102835 0.0734777823
v 0.118447267 0.148102835 -0.0734779313
v -0.0317980945 0.148102835 0.13571091
v 0.13571167 0.148102835 0.0317987055
v 0.0734777823 0.148102835 0.118447565
v -0.13571167 -0.14810279 -0.0317987055
v -0 -0.14810279 -1.52587887E-07
v -0.0734777823 -0.14810279 -0.118447721
v -0.118447267 -0.14810279 0.0734777823
v 0.0317980945 -0.14810279 -0.135711059
v -0.0317980945 -0.14810279 0.13571091
v 0.118447267 -0.14810279 -0.0734779313
v 0.0734777823 -0.14810279 0.118447565
v 0.13571167 -0.14810279 0.0317987055
vt 0.292724609 0.502929688
vt 0.292724609 0.584960938
vt 0.313964844 0.584960938
vt 0.313964844 0.502929688
vt 0.335449219 0.584960938
vt 0.335449219 0.502929688
vt 0.335449219 0.502929688
vt 0.335449219 0.584960938
vt 0.356689453 0.584960938
vt 0.356689453 0.502929688
vt 0.377929688 0.584960938
vt 0.377929688 0.502929688
vt 0.377929688 0.502929688
vt 0.377929688 0.584960938
vt 0.399169922 0.584960938
vt 0.399169922 0.502929688
vt 0.420410156 0.584960938
vt 0.420410156 0.502929688
vt 0.420410156 0.502929688
vt 0.420410156 0.584960938
vt 0.441894531 0.584960938
vt 0.441894531 0.502929688
vt 0.463134766 0.584960938
vt 0.463134766 0.502929688
vt 0.466064453 0.6484375
vt 0.435546875 0.66015625
vt 0.466308594 0.674316406
vt 0.447509766 0.630371094
vt 0.448242188 0.692382812
vt 0.421875 0.630371094
vt 0.422363281 0.692871094
vt 0.403808594 0.648925781
vt 0.404052734 0.674804688
vt 0.466308594 0.673828125
vt 0.435546875 0.66015625
vt 0.448486328 0.692382812
vt 0.466064453 0.647949219
vt 0.422607422 0.692871094
vt 0.447753906 0.629882812
vt 0.404052734 0.674804688
vt 0.421875 0.630371094
vt 0.403808594 0.648925781
vn -0.836914062 -0.173828125 0.519042969
vn -0.836914062 0.173828125 0.519042969
vn -0.224609375 0.173828125 0.958984375
vn -0.224609375 -0.173828125 0.958984375
vn 0.519042969 0.173828125 0.836914062
vn 0.519042969 -0.173828125 0.836914062
vn 0.519042969 -0.173828125 0.836914062
vn 0.519042969 0.173828125 0.836914062
vn 0.958984375 0.173828125 0.224609375
vn 0.958984375 -0.173828125 0.224609375
vn 0.836914062 0.173828125 -0.519042969
vn 0.836914062 -0.173828125 -0.519042969
vn 0.836914062 -0.173828125 -0.519042969
vn 0.836914062 0.173828125 -0.519042969
vn 0.224609375 0.173828125 -0.958984375
vn 0.224609375 -0.173828125 -0.958984375
vn -0.519042969 0.173828125 -0.836914062
vn -0.519042969 -0.173828125 -0.836914062
vn -0.519042969 -0.173828125 -0.836914062
vn -0.519042969 0.173828125 -0.836914062
vn -0.958984375 0.173828125 -0.224609375
vn -0.958984375 -0.173828125 -0.224609375
vn -0.836914062 0.173828125 0.519042969
vn -0.836914062 -0.173828125 0.519042969
vn -0.519042969 0.173828125 -0.836914062
vn -0 1 0
vn -0.958984375 0.173828125 -0.224609375
vn 0.224609375 0.173828125 -0.958984375
vn -0.836914062 0.173828125 0.519042969
vn 0.836914062 0.173828125 -0.519042969
vn -0.224609375 0.173828125 0.958984375
vn 0.958984375 0.173828125 0.224609375
vn 0.519042969 0.173828125 0.836914062
vn -0.958984375 -0.173828125 -0.224609375
vn -0 -1 0
vn -0.519042969 -0.173828125 -0.836914062
vn -0.836914062 -0.173828125 0.519042969
vn 0.224609375 -0.173828125 -0.958984375
vn -0.224609375 -0.173828125 0.958984375
vn 0.836914062 -0.173828125 -0.519042969
vn 0.519042969 -0.173828125 0.836914062
vn 0.958984375 -0.173828125 0.224609375
g CanMetal_Big_0
f 3/3/3 2/2/2 1/1/1
f 4/4/4 3/3/3 1/1/1
f 5/5/5 3/3/3 4/4/4
f 6/6/6 5/5/5 4/4/4
f 9/9/9 8/8/8 7/7/7
f 10/10/10 9/9/9 7/7/7
f 11/11/11 9/9/9 10/10/10
f 12/12/12 11/11/11 10/10/10
f 15/15/15 14/14/14 13/13/13
f 16/16/16 15/15/15 13/13/13
f 17/17/17 15/15/15 16/16/16
f 18/18/18 17/17/17 16/16/16
f 21/21/21 20/20/20 19/19/19
f 22/22/22 21/21/21 19/19/19
f 23/23/23 21/21/21 22/22/22
f 24/24/24 23/23/23 22/22/22
f 27/27/27 26/26/26 25/25/25
f 25/25/25 26/26/26 28/28/28
f 29/29/29 26/26/26 27/27/27
f 28/28/28 26/26/26 30/30/30
f 31/31/31 26/26/26 29/29/29
f 30/30/30 26/26/26 32/32/32
f 33/33/33 26/26/26 31/31/31
f 32/32/32 26/26/26 33/33/33
f 36/36/36 35/35/35 34/34/34
f 34/34/34 35/35/35 37/37/37
f 38/38/38 35/35/35 36/36/36
f 37/37/37 35/35/35 39/39/39
f 40/40/40 35/35/35 38/38/38
f 39/39/39 35/35/35 41/41/41
f 42/42/42 35/35/35 40/40/40
f 41/41/41 35/35/35 42/42/42
