g Exterior_ColorFence_8
v 20.8480568 0.674639642 21.7738247
v 20.8910732 0.638041735 21.7314472
v 20.8910732 0.63804096 21.8162041
v 20.8050346 0.638041615 21.8162041
v 20.8480568 0.674639642 21.7738247
v 20.8910732 0.63804096 21.8162041
v 20.8050346 0.63804096 21.7314472
v 20.8480568 0.674639642 21.7738247
v 20.8050346 0.638041615 21.8162041
v 20.8050346 0.63804096 21.7314472
v 20.8910732 0.638041735 21.7314472
v 20.8480568 0.674639642 21.7738247
v 20.8050346 -0.534393787 21.7314472
v 20.8910732 -0.534393132 21.7314472
v 20.8910732 0.638041735 21.7314472
v 20.8050346 0.63804096 21.7314472
v 20.8910732 -0.534393132 21.7314472
v 20.8910732 -0.534393787 21.8162041
v 20.8910732 0.63804096 21.8162041
v 20.8910732 0.638041735 21.7314472
v 20.8910732 -0.534393787 21.8162041
v 20.8050346 -0.534393191 21.8162041
v 20.8050346 0.638041615 21.8162041
v 20.8910732 0.63804096 21.8162041
v 20.8050346 -0.534393191 21.8162041
v 20.8050346 -0.534393787 21.7314472
v 20.8050346 0.63804096 21.7314472
v 20.8050346 0.638041615 21.8162041
v 20.8910732 -0.534393132 21.7314472
v 20.8050346 -0.534393787 21.7314472
v 20.782402 -0.534393787 21.7088203
v 20.9137001 -0.534393132 21.7088184
v 20.8050346 -0.534393787 21.7314472
v 20.8050346 -0.534393191 21.8162041
v 20.782402 -0.534393191 21.8388309
v 20.782402 -0.534393787 21.7088203
v 20.8910732 -0.534393787 21.8162041
v 20.8910732 -0.534393132 21.7314472
v 20.9137001 -0.534393132 21.7088184
v 20.9137001 -0.534393787 21.8388309
v 20.8050346 -0.534393191 21.8162041
v 20.8910732 -0.534393787 21.8162041
v 20.9137001 -0.534393787 21.8388309
v 20.782402 -0.534393191 21.8388309
v 20.9137001 -0.534393132 21.7088184
v 20.782402 -0.534393787 21.7088203
v 20.782402 -0.633790851 21.7088203
v 20.9137001 -0.633790195 21.7088184
v 20.782402 -0.534393787 21.7088203
v 20.782402 -0.534393191 21.8388309
v 20.782402 -0.633790255 21.8388309
v 20.782402 -0.633790851 21.7088203
v 20.9137001 -0.534393787 21.8388309
v 20.9137001 -0.534393132 21.7088184
v 20.9137001 -0.633790195 21.7088184
v 20.9137001 -0.633790851 21.8388309
v 20.782402 -0.534393191 21.8388309
v 20.9137001 -0.534393787 21.8388309
v 20.9137001 -0.633790851 21.8388309
v 20.782402 -0.633790255 21.8388309
v 18.4789219 0.720588803 21.8274441
v 18.4789219 0.736067355 21.7906837
v 20.813303 0.489065319 21.7738247
v 20.813303 0.473586798 21.810585
v 18.4811707 0.698588848 21.8274441
v 20.813303 0.451586843 21.810585
v 20.813303 0.451586217 21.7370625
v 18.4811707 0.698588252 21.7539196
v 18.4811707 0.698588252 21.7539196
v 20.813303 0.451586217 21.7370625
v 20.813303 0.473586172 21.7370625
v 18.4789219 0.720588207 21.7539234
v 20.813303 0.451586843 21.810585
v 18.4811707 0.698588848 21.8274441
v 18.4789219 0.720588803 21.8274441
v 20.813303 0.473586798 21.810585
v 20.813303 0.489065319 21.7738247
v 18.4789219 0.736067355 21.7906837
v 18.4789219 0.720588207 21.7539234
v 20.813303 0.473586172 21.7370625
v 20.813303 0.175324753 21.7463512
v 20.813303 0.175325364 21.8012981
v 18.4789219 0.422327399 21.8181572
v 18.4789219 0.422326803 21.7632122
v 18.4811707 0.400327444 21.8181572
v 20.813303 0.153325409 21.8012981
v 20.813303 0.153324798 21.7463512
v 18.4811707 0.400326848 21.7632103
v 18.4811707 0.400326848 21.7632103
v 20.813303 0.153324798 21.7463512
v 20.813303 0.175324753 21.7463512
v 18.4789219 0.422326803 21.7632122
v 20.813303 0.153325409 21.8012981
v 18.4811707 0.400327444 21.8181572
v 18.4789219 0.422327399 21.8181572
v 20.813303 0.175325364 21.8012981
v 20.813303 -0.172520936 21.7463493
v 20.813303 -0.172520325 21.8012962
v 18.4789219 0.0744817108 21.8181572
v 18.4789219 0.0744811073 21.7632122
v 18.4811707 0.0524817444 21.8181572
v 20.813303 -0.194520295 21.8012962
v 20.813303 -0.194520906 21.7463493
v 18.4811707 0.0524811335 21.7632103
v 18.4811707 0.0524811335 21.7632103
v 20.813303 -0.194520906 21.7463493
v 20.813303 -0.172520936 21.7463493
v 18.4789219 0.0744811073 21.7632122
v 20.813303 -0.194520295 21.8012962
v 18.4811707 0.0524817444 21.8181572
v 18.4789219 0.0744817108 21.8181572
v 20.813303 -0.172520325 21.8012962
vt 0.6875 0.522949219
vt 0.678222656 0.530273438
vt 0.678222656 0.515625
vt 0.678222656 0.559570312
vt 0.6875 0.567382812
vt 0.678222656 0.574707031
vt 0.678222656 0.544921875
vt 0.6875 0.552246094
vt 0.678222656 0.559570312
vt 0.678222656 0.544921875
vt 0.678222656 0.530273438
vt 0.6875 0.537597656
vt 0.489990234 0.544921875
vt 0.489990234 0.530273438
vt 0.678222656 0.530273438
vt 0.678222656 0.544921875
vt 0.489990234 0.530273438
vt 0.489990234 0.515625
vt 0.678222656 0.515625
vt 0.678222656 0.530273438
vt 0.489990234 0.574707031
vt 0.489990234 0.559570312
vt 0.678222656 0.559570312
vt 0.678222656 0.574707031
vt 0.489990234 0.559570312
vt 0.489990234 0.544921875
vt 0.678222656 0.544921875
vt 0.678222656 0.559570312
vt 0.496582031 0.367431641
vt 0.496582031 0.3515625
vt 0.500488281 0.347412109
vt 0.500488281 0.371337891
vt 0.496582031 0.343261719
vt 0.496582031 0.327880859
vt 0.500488281 0.323730469
vt 0.500488281 0.347412109
vt 0.496582031 0.391113281
vt 0.496582031 0.375488281
vt 0.500488281 0.371337891
vt 0.500488281 0.395019531
vt 0.496582031 0.319580078
vt 0.496582031 0.303955078
vt 0.500488281 0.299804688
vt 0.500488281 0.323730469
vt 0.500488281 0.371337891
vt 0.500488281 0.347412109
vt 0.515136719 0.347412109
vt 0.515136719 0.371337891
vt 0.500488281 0.347412109
vt 0.500488281 0.323730469
vt 0.515136719 0.323730469
vt 0.515136719 0.347412109
vt 0.500488281 0.395019531
vt 0.500488281 0.371337891
vt 0.515136719 0.371337891
vt 0.515136719 0.395019531
vt 0.500488281 0.323730469
vt 0.500488281 0.299804688
vt 0.515136719 0.299804688
vt 0.515136719 0.323730469
vt 0.412353516 0.770996094
vt 0.412353516 0.764160156
vt 0.770996094 0.764160156
vt 0.770996094 0.770996094
vt 0.412353516 0.740722656
vt 0.770996094 0.740722656
vt 0.770996094 0.753417969
vt 0.412353516 0.753417969
vt 0.412353516 0.753417969
vt 0.770996094 0.753417969
vt 0.770996094 0.757324219
vt 0.412353516 0.757324219
vt 0.770996094 0.774902344
vt 0.412353516 0.774902344
vt 0.412353516 0.770996094
vt 0.770996094 0.770996094
vt 0.770996094 0.764160156
vt 0.412353516 0.764160156
vt 0.412353516 0.757324219
vt 0.770996094 0.757324219
vt 0.689941406 0.723632812
vt 0.689941406 0.733398438
vt 0.329833984 0.733398438
vt 0.329833984 0.723632812
vt 0.330078125 0.710449219
vt 0.689941406 0.710449219
vt 0.689941406 0.719726562
vt 0.330078125 0.719726562
vt 0.330078125 0.719726562
vt 0.689941406 0.719726562
vt 0.689941406 0.723632812
vt 0.329833984 0.723632812
vt 0.689941406 0.736816406
vt 0.330078125 0.736816406
vt 0.329833984 0.733398438
vt 0.689941406 0.733398438
vt 0.689941406 0.692382812
vt 0.689941406 0.701660156
vt 0.329833984 0.701660156
vt 0.329833984 0.692382812
vt 0.330078125 0.679199219
vt 0.689941406 0.679199219
vt 0.689941406 0.688476562
vt 0.330078125 0.688476562
vt 0.330078125 0.688476562
vt 0.689941406 0.688476562
vt 0.689941406 0.692382812
vt 0.329833984 0.692382812
vt 0.689941406 0.705566406
vt 0.330078125 0.705566406
vt 0.329833984 0.701660156
vt 0.689941406 0.701660156
vn 0.647949219 0.76171875 6.37769699E-06
vn 0.647949219 0.76171875 6.37769699E-06
vn 0.647949219 0.76171875 6.37769699E-06
vn 4.05311584E-05 0.756835938 0.653808594
vn 4.05311584E-05 0.756835938 0.653808594
vn 4.05311584E-05 0.756835938 0.653808594
vn -0.647949219 0.76171875 -5.12599945E-06
vn -0.647949219 0.76171875 -5.12599945E-06
vn -0.647949219 0.76171875 -5.12599945E-06
vn -9.53674316E-06 0.756835938 -0.653808594
vn -9.53674316E-06 0.756835938 -0.653808594
vn -9.53674316E-06 0.756835938 -0.653808594
vn 1.69277191E-05 0 -1
vn 1.69277191E-05 0 -1
vn 1.69277191E-05 0 -1
vn 1.69277191E-05 0 -1
vn 1 0 0
vn 1 0 0
vn 1 0 0
vn 1 0 0
vn -5.06639481E-06 0 1
vn -5.06639481E-06 0 1
vn -5.06639481E-06 0 1
vn -5.06639481E-06 0 1
vn -1 0 0
vn -1 0 0
vn -1 0 0
vn -1 0 0
vn -3.15904617E-06 1 3.21865082E-06
vn -3.15904617E-06 1 -2.8014183E-06
vn -3.15904617E-06 1 -2.8014183E-06
vn -3.15904617E-06 1 3.21865082E-06
vn -3.15904617E-06 1 -2.8014183E-06
vn 2.8014183E-06 1 -2.20537186E-06
vn 2.8014183E-06 1 -2.20537186E-06
vn -3.15904617E-06 1 -2.8014183E-06
vn 2.8014183E-06 1 3.81469727E-06
vn -3.15904617E-06 1 3.21865082E-06
vn -3.15904617E-06 1 3.21865082E-06
vn 2.8014183E-06 1 3.81469727E-06
vn 2.8014183E-06 1 -2.20537186E-06
vn 2.8014183E-06 1 3.81469727E-06
vn 2.8014183E-06 1 3.81469727E-06
vn 2.8014183E-06 1 -2.20537186E-06
vn -9.95397568E-06 0 -1
vn -9.95397568E-06 0 -1
vn -9.95397568E-06 0 -1
vn -9.95397568E-06 0 -1
vn -1 0 0
vn -1 0 0
vn -1 0 0
vn -1 0 0
vn 1 0 0
vn 1 0 0
vn 1 0 0
vn 1 0 0
vn -6.61611557E-06 0 1
vn -6.61611557E-06 0 1
vn -6.61611557E-06 0 1
vn -6.61611557E-06 0 1
vn 0.0997924805 0.916992188 0.386230469
vn 0.0997924805 0.916992188 0.386230469
vn 0.0997924805 0.916992188 0.386230469
vn 0.0997924805 0.916992188 0.386230469
vn -0.10534668 -0.994628906 7.92741776E-06
vn -0.10534668 -0.994628906 7.92741776E-06
vn -0.10534668 -0.994628906 7.92741776E-06
vn -0.10534668 -0.994628906 7.92741776E-06
vn -0.00726699829 -0.000314712524 -1
vn -0.00726699829 -0.000314712524 -1
vn -0.00726699829 -0.000314712524 -1
vn -0.00726699829 -0.000314712524 -1
vn 0.00726699829 0.000370502472 1
vn 0.00726699829 0.000370502472 1
vn 0.00726699829 0.000370502472 1
vn 0.00726699829 0.000370502472 1
vn 0.0942993164 0.917480469 -0.386230469
vn 0.0942993164 0.917480469 -0.386230469
vn 0.0942993164 0.917480469 -0.386230469
vn 0.0942993164 0.917480469 -0.386230469
vn 0.105224609 0.994628906 -1.06096268E-05
vn 0.105224609 0.994628906 -1.06096268E-05
vn 0.105224609 0.994628906 -1.06096268E-05
vn 0.105224609 0.994628906 -1.06096268E-05
vn -0.10534668 -0.994628906 1.13844872E-05
vn -0.10534668 -0.994628906 1.13844872E-05
vn -0.10534668 -0.994628906 1.13844872E-05
vn -0.10534668 -0.994628906 1.13844872E-05
vn -0.0072517395 -0.000314712524 -1
vn -0.0072517395 -0.000314712524 -1
vn -0.0072517395 -0.000314712524 -1
vn -0.0072517395 -0.000314712524 -1
vn 0.00726699829 0.000370502472 1
vn 0.00726699829 0.000370502472 1
vn 0.00726699829 0.000370502472 1
vn 0.00726699829 0.000370502472 1
vn 0.105224609 0.994628906 -1.09672546E-05
vn 0.105224609 0.994628906 -1.09672546E-05
vn 0.105224609 0.994628906 -1.09672546E-05
vn 0.105224609 0.994628906 -1.09672546E-05
vn -0.10534668 -0.994628906 1.09672546E-05
vn -0.10534668 -0.994628906 1.09672546E-05
vn -0.10534668 -0.994628906 1.09672546E-05
vn -0.10534668 -0.994628906 1.09672546E-05
vn -0.00726699829 -0.000315189362 -1
vn -0.00726699829 -0.000315189362 -1
vn -0.00726699829 -0.000315189362 -1
vn -0.00726699829 -0.000315189362 -1
vn 0.00726699829 0.000370502472 1
vn 0.00726699829 0.000370502472 1
vn 0.00726699829 0.000370502472 1
vn 0.00726699829 0.000370502472 1
g Exterior_ColorFence_8_0
f 3/3/3 2/2/2 1/1/1
f 6/6/6 5/5/5 4/4/4
f 9/9/9 8/8/8 7/7/7
f 12/12/12 11/11/11 10/10/10
f 15/15/15 14/14/14 13/13/13
f 16/16/16 15/15/15 13/13/13
f 19/19/19 18/18/18 17/17/17
f 20/20/20 19/19/19 17/17/17
f 23/23/23 22/22/22 21/21/21
f 24/24/24 23/23/23 21/21/21
f 27/27/27 26/26/26 25/25/25
f 28/28/28 27/27/27 25/25/25
f 31/31/31 30/30/30 29/29/29
f 32/32/32 31/31/31 29/29/29
f 35/35/35 34/34/34 33/33/33
f 36/36/36 35/35/35 33/33/33
f 39/39/39 38/38/38 37/37/37
f 40/40/40 39/39/39 37/37/37
f 43/43/43 42/42/42 41/41/41
f 44/44/44 43/43/43 41/41/41
f 47/47/47 46/46/46 45/45/45
f 48/48/48 47/47/47 45/45/45
f 51/51/51 50/50/50 49/49/49
f 52/52/52 51/51/51 49/49/49
f 55/55/55 54/54/54 53/53/53
f 56/56/56 55/55/55 53/53/53
f 59/59/59 58/58/58 57/57/57
f 60/60/60 59/59/59 57/57/57
f 63/63/63 62/62/62 61/61/61
f 64/64/64 63/63/63 61/61/61
f 67/67/67 66/66/66 65/65/65
f 68/68/68 67/67/67 65/65/65
f 71/71/71 70/70/70 69/69/69
f 72/72/72 71/71/71 69/69/69
f 75/75/75 74/74/74 73/73/73
f 76/76/76 75/75/75 73/73/73
f 79/79/79 78/78/78 77/77/77
f 80/80/80 79/79/79 77/77/77
f 83/83/83 82/82/82 81/81/81
f 84/84/84 83/83/83 81/81/81
f 87/87/87 86/86/86 85/85/85
f 88/88/88 87/87/87 85/85/85
f 91/91/91 90/90/90 89/89/89
f 92/92/92 91/91/91 89/89/89
f 95/95/95 94/94/94 93/93/93
f 96/96/96 95/95/95 93/93/93
f 99/99/99 98/98/98 97/97/97
f 100/100/100 99/99/99 97/97/97
f 103/103/103 102/102/102 101/101/101
f 104/104/104 103/103/103 101/101/101
f 107/107/107 106/106/106 105/105/105
f 108/108/108 107/107/107 105/105/105
f 111/111/111 110/110/110 109/109/109
f 112/112/112 111/111/111 109/109/109
