g IS4_MDL_EscenarioGaraje_Estatua_Paredes_2
v 0.797254682 0.336855471 0.561593413
v 1.19502079 1.99398923 0.628979862
v 1.14549446 1.99398434 1.75601137
v 0.752825975 0.336855471 1.37476707
v 1.19502079 1.99398923 0.628979862
v 0.797254682 0.336855471 0.561593413
v 0.779649734 0.336855471 -0.616803527
v 1.17540658 1.99398923 -0.978422165
v 0.7281214 0.336857915 -1.47634459
v 1.11797976 1.99398434 -1.78621757
v 1.17540658 1.99398923 -0.978422165
v 0.779649734 0.336855471 -0.616803527
v 1.19502079 1.99398923 0.628979862
v 1.28540659 3.09248042 1.82444668
v 1.14549446 1.99398434 1.75601137
v 1.33673477 3.09248042 0.628980458
v 1.22764778 3.80586171 1.8185513
v 1.33673477 3.80586171 0.628980458
v 1.11797976 1.99398434 -1.78621757
v 1.31639779 3.09248281 -1.0240227
v 1.17540658 1.99398923 -0.978422165
v 1.25686646 3.09248281 -1.82444632
v 1.30692518 3.63752437 -1.0484246
v 1.1016444 3.61442375 -1.78093445
v -0.245316043 -1.87039793 0.552822053
v 0.797254682 0.336855471 0.561593413
v 0.752825975 0.336855471 1.37476707
v -0.275906861 -1.87039793 1.25052035
v 0.797254682 0.336855471 0.561593413
v -0.245316043 -1.87039793 0.552822053
v -0.257430285 -1.884956 -0.414212853
v 0.779649734 0.336855471 -0.616803527
v -0.292913705 -1.87039793 -1.18451345
v 0.7281214 0.336857915 -1.47634459
v 0.779649734 0.336855471 -0.616803527
v -0.257430285 -1.884956 -0.414212853
v -1.26437855 -3.80586123 0.697876334
v -0.245316043 -1.87039793 0.552822053
v -0.275906861 -1.87039793 1.25052035
v -1.32885599 -3.80586052 1.71760893
v -0.245316043 -1.87039793 0.552822053
v -1.26437855 -3.80586123 0.697876334
v -1.26584339 -3.80586123 -0.43987754
v -0.257430285 -1.884956 -0.414212853
v -1.33673692 -3.80586123 -1.44548762
v -0.292913705 -1.87039793 -1.18451345
v -0.257430285 -1.884956 -0.414212853
v -1.26584339 -3.80586123 -0.43987754
vt 0.826660156 0.077331543
vt 0.826660156 0.524902344
vt 0.98828125 0.524902344
vt 0.98828125 0.077331543
vt 0.673339844 0.525390625
vt 0.673339844 0.0820922852
vt 0.374267578 0.0820922852
vt 0.374267578 0.525390625
vt 0.98828125 0.077331543
vt 0.98828125 0.524902344
vt 0.826660156 0.524902344
vt 0.826660156 0.077331543
vt 0.826660156 0.077331543
vt 0.98828125 0.337890625
vt 0.98828125 0.077331543
vt 0.826660156 0.337890625
vt 0.98828125 0.524902344
vt 0.826660156 0.524902344
vt 0.98828125 0.077331543
vt 0.826660156 0.337890625
vt 0.826660156 0.077331543
vt 0.98828125 0.337890625
vt 0.826660156 0.524902344
vt 0.98828125 0.524902344
vt 0.826660156 0.077331543
vt 0.826660156 0.524902344
vt 0.98828125 0.524902344
vt 0.98828125 0.077331543
vt 0.673339844 0.525390625
vt 0.673339844 0.0820922852
vt 0.374267578 0.0820922852
vt 0.374267578 0.525390625
vt 0.98828125 0.077331543
vt 0.98828125 0.524902344
vt 0.826660156 0.524902344
vt 0.826660156 0.077331543
vt 0.826660156 0.077331543
vt 0.826660156 0.524902344
vt 0.98828125 0.524902344
vt 0.98828125 0.077331543
vt 0.673339844 0.525390625
vt 0.673339844 0.0820922852
vt 0.374267578 0.0820922852
vt 0.374267578 0.525390625
vt 0.98828125 0.077331543
vt 0.98828125 0.524902344
vt 0.826660156 0.524902344
vt 0.826660156 0.077331543
vn -0.941894531 0.336425781 -0.0120010376
vn -0.977539062 0.209716797 -0.0198516846
vn -0.981445312 0.185302734 -0.045135498
vn -0.942382812 0.331542969 -0.0461730957
vn -0.977539062 0.209716797 -0.0198516846
vn -0.941894531 0.336425781 -0.0120010376
vn -0.939941406 0.33984375 0.0290527344
vn -0.975097656 0.216918945 0.0421447754
vn -0.9375 0.343505859 0.057434082
vn -0.978515625 0.19543457 0.0669555664
vn -0.975097656 0.216918945 0.0421447754
vn -0.939941406 0.33984375 0.0290527344
vn -0.977539062 0.209716797 -0.0198516846
vn -0.996582031 0.0598449707 -0.0529785156
vn -0.981445312 0.185302734 -0.045135498
vn -0.996582031 0.0610656738 -0.0527954102
vn -0.997070312 -0.0406188965 -0.0670776367
vn -0.997070312 -0.0406188965 -0.0670776367
vn -0.978515625 0.19543457 0.0669555664
vn -0.993652344 0.0419616699 0.103393555
vn -0.975097656 0.216918945 0.0421447754
vn -0.993652344 0.0402526855 0.104003906
vn -0.973144531 -0.153320312 0.170410156
vn -0.973144531 -0.153320312 0.170410156
vn -0.895507812 0.444824219 -0.0160369873
vn -0.941894531 0.336425781 -0.0120010376
vn -0.942382812 0.331542969 -0.0461730957
vn -0.893554688 0.446777344 -0.0470581055
vn -0.941894531 0.336425781 -0.0120010376
vn -0.895507812 0.444824219 -0.0160369873
vn -0.895019531 0.444824219 0.0269927979
vn -0.939941406 0.33984375 0.0290527344
vn -0.893554688 0.445556641 0.0543518066
vn -0.9375 0.343505859 0.057434082
vn -0.939941406 0.33984375 0.0290527344
vn -0.895019531 0.444824219 0.0269927979
vn -0.884765625 0.465576172 -0.021987915
vn -0.895507812 0.444824219 -0.0160369873
vn -0.893554688 0.446777344 -0.0470581055
vn -0.883789062 0.465332031 -0.0489196777
vn -0.895507812 0.444824219 -0.0160369873
vn -0.884765625 0.465576172 -0.021987915
vn -0.884277344 0.465820312 0.0278320312
vn -0.895019531 0.444824219 0.0269927979
vn -0.883300781 0.465820312 0.0567016602
vn -0.893554688 0.445556641 0.0543518066
vn -0.895019531 0.444824219 0.0269927979
vn -0.884277344 0.465820312 0.0278320312
g IS4_MDL_EscenarioGaraje_Estatua_Paredes_2_0
f 3/3/3 2/2/2 1/1/1
f 4/4/4 3/3/3 1/1/1
f 7/7/7 6/6/6 5/5/5
f 8/8/8 7/7/7 5/5/5
f 11/11/11 10/10/10 9/9/9
f 12/12/12 11/11/11 9/9/9
f 15/15/15 14/14/14 13/13/13
f 14/14/14 16/16/16 13/13/13
f 14/14/14 17/17/17 16/16/16
f 17/17/17 18/18/18 16/16/16
f 21/21/21 20/20/20 19/19/19
f 20/20/20 22/22/22 19/19/19
f 20/20/20 23/23/23 22/22/22
f 23/23/23 24/24/24 22/22/22
f 27/27/27 26/26/26 25/25/25
f 28/28/28 27/27/27 25/25/25
f 31/31/31 30/30/30 29/29/29
f 32/32/32 31/31/31 29/29/29
f 35/35/35 34/34/34 33/33/33
f 36/36/36 35/35/35 33/33/33
f 39/39/39 38/38/38 37/37/37
f 40/40/40 39/39/39 37/37/37
f 43/43/43 42/42/42 41/41/41
f 44/44/44 43/43/43 41/41/41
f 47/47/47 46/46/46 45/45/45
f 48/48/48 47/47/47 45/45/45
