g polySurface38
v 7.19734019 -1.94015257 11.6784668
v 7.72305895 -1.66477608 9.825934
v 12.5796989 -1.01388618 8.59925689
v 12.254254 -1.06395464 10.2014474
v 7.87326431 -1.21416 6.54645029
v 7.42264823 -0.988851956 5.34480741
v 11.3279876 -0.738509689 3.11676123
v 12.3794251 -0.863680823 4.91922556
v 6.6465872 -0.763543916 4.16819875
v 5.49501277 -0.488167422 3.06669278
v 8.52415421 -0.388030515 0.0125171134
v 10.0011736 -0.588304329 1.48953649
v 4.06806185 -0.162722474 1.9651868
v 2.54097401 0.137688247 1.18912577
v 5.11949937 0.0876197936 -2.24056329
v 6.82182679 -0.162722474 -1.26422845
v 2.54097401 0.137688247 1.18912577
v 1.01388618 0.413064741 0.563270102
v 3.49227463 0.362996288 -2.9915901
v 5.11949937 0.0876197936 -2.24056329
v -2.09035793 0.913749276 -0.913749276
v -3.51730886 1.11402309 -1.5896734
v -0.96381773 1.11402309 -4.89419133
v 0.463133195 0.88871505 -4.24330143
v -3.51730886 1.11402309 -1.5896734
v -4.96929401 1.3142969 -2.3407002
v -2.41580288 1.36436536 -5.59514968
v -0.96381773 1.11402309 -4.89419133
v -6.49638184 1.51457072 -3.21689814
v -8.02346967 1.68981031 -4.21826721
v -5.04439669 1.73987876 -7.12223751
v -3.76765113 1.56463917 -6.34617648
v -8.02346967 1.68981031 -4.21826721
v -9.50048905 1.81498144 -5.41991009
v -6.2710738 1.86504989 -8.02346967
v -5.04439669 1.73987876 -7.12223751
v -10.8523373 1.91511835 -6.82182679
v -12.0790144 1.99022103 -8.29884617
v -8.39898307 2.01525525 -10.5519266
v -7.44768246 1.94015257 -9.22511256
v -12.0790144 1.99022103 -8.29884617
v -12.805007 2.01525525 -10.0762763
v -8.92470184 2.01525525 -11.7786037
v -8.39898307 2.01525525 -10.5519266
v -9.50048905 1.81498144 -5.41991009
v -10.8523373 1.91511835 -6.82182679
v -7.44768246 1.94015257 -9.22511256
v -6.2710738 1.86504989 -8.02346967
v 7.42264823 -0.988851956 5.34480741
v 6.6465872 -0.763543916 4.16819875
v 10.0011736 -0.588304329 1.48953649
v 11.3279876 -0.738509689 3.11676123
v 5.49501277 -0.488167422 3.06669278
v 4.06806185 -0.162722474 1.9651868
v 6.82182679 -0.162722474 -1.26422845
v 8.52415421 -0.388030515 0.0125171134
v 7.97340122 -1.43946804 8.07353813
v 7.87326431 -1.21416 6.54645029
v 12.3794251 -0.863680823 4.91922556
v 12.805007 -0.96381773 6.82182679
v 7.97340122 -1.43946804 8.07353813
v 12.805007 -0.96381773 6.82182679
v 12.5796989 -1.01388618 8.59925689
v 7.72305895 -1.66477608 9.825934
v 12.254254 -1.06395464 10.2014474
v 12.2292198 -1.16409154 10.2765501
v 7.19734019 -2.01525525 11.7786037
v 7.19734019 -1.94015257 11.6784668
v 1.01388618 0.413064741 0.563270102
v -0.538235875 0.663407009 -0.187756701
v 1.94015257 0.613338555 -3.61744576
v 3.49227463 0.362996288 -2.9915901
v -0.538235875 0.663407009 -0.187756701
v -2.09035793 0.913749276 -0.913749276
v 0.463133195 0.88871505 -4.24330143
v 1.94015257 0.613338555 -3.61744576
v -4.96929401 1.3142969 -2.3407002
v -6.49638184 1.51457072 -3.21689814
v -3.76765113 1.56463917 -6.34617648
v -2.41580288 1.36436536 -5.59514968
vt 0.631429883 0.115005497
vt 0.52270896 0.115005497
vt 0.52270896 0.402339366
vt 0.631429883 0.402339366
vt 0.639195663 0.115005497
vt 0.52270896 0.115005497
vt 0.52270896 0.402339366
vt 0.639195663 0.402339366
vt 0.639195663 0.115005497
vt 0.52270896 0.115005497
vt 0.52270896 0.402339366
vt 0.639195663 0.402339366
vt 0.639195663 0.115005497
vt 0.52270896 0.115005497
vt 0.52270896 0.402339366
vt 0.639195663 0.402339366
vt 0.639195663 0.115005497
vt 0.52270896 0.115005497
vt 0.52270896 0.402339366
vt 0.639195663 0.402339366
vt 0.639195663 0.115005497
vt 0.52270896 0.115005497
vt 0.52270896 0.402339366
vt 0.639195663 0.402339366
vt 0.639195663 0.115005497
vt 0.52270896 0.115005497
vt 0.52270896 0.402339366
vt 0.639195663 0.402339366
vt 0.639195663 0.115005497
vt 0.52270896 0.115005497
vt 0.52270896 0.402339366
vt 0.639195663 0.402339366
vt 0.639195663 0.115005497
vt 0.52270896 0.115005497
vt 0.52270896 0.402339366
vt 0.639195663 0.402339366
vt 0.639195663 0.115005497
vt 0.52270896 0.115005497
vt 0.52270896 0.402339366
vt 0.639195663 0.402339366
vt 0.639195663 0.115005497
vt 0.52270896 0.115005497
vt 0.52270896 0.402339366
vt 0.639195663 0.402339366
vt 0.639195663 0.115005497
vt 0.52270896 0.115005497
vt 0.52270896 0.402339366
vt 0.639195663 0.402339366
vt 0.639195663 0.115005497
vt 0.52270896 0.115005497
vt 0.52270896 0.402339366
vt 0.639195663 0.402339366
vt 0.639195663 0.115005497
vt 0.52270896 0.115005497
vt 0.52270896 0.402339366
vt 0.639195663 0.402339366
vt 0.639195663 0.115005497
vt 0.52270896 0.115005497
vt 0.52270896 0.402339366
vt 0.639195663 0.402339366
vt 0.52270896 0.115005497
vt 0.52270896 0.402339366
vt 0.639195663 0.402339366
vt 0.639195663 0.115005497
vt 0.631429883 0.402339366
vt 0.639195663 0.402339366
vt 0.639195663 0.115005497
vt 0.631429883 0.115005497
vt 0.639195663 0.115005497
vt 0.52270896 0.115005497
vt 0.52270896 0.402339366
vt 0.639195663 0.402339366
vt 0.639195663 0.115005497
vt 0.52270896 0.115005497
vt 0.52270896 0.402339366
vt 0.639195663 0.402339366
vt 0.639195663 0.115005497
vt 0.52270896 0.115005497
vt 0.52270896 0.402339366
vt 0.639195663 0.402339366
vn -0.140914874 0.982048991 0.125390498
vn -0.123018404 0.982048991 0.142990389
vn -0.104551512 0.994519473 -0
vn -0.140914874 0.982048991 0.125390498
vn -0.0156385208 0.999877711 -0
vn 0.00225689014 0.999945462 0.010197057
vn 0.00225689014 0.999945462 0.010197057
vn -0.0156385208 0.999877711 -0
vn 0.0558619883 0.9984385 -0
vn 0.0738427724 0.982048991 0.17357138
vn 0.0738427724 0.982048991 0.17357138
vn 0.0558619883 0.9984385 -0
vn 0.109635714 0.982048991 0.153491984
vn 0.127532184 0.982048991 0.13897957
vn 0.127532184 0.982048991 0.13897957
vn 0.109635714 0.982048991 0.153491984
vn 0.127532184 0.982048991 0.13897957
vn 0.127532184 0.982048991 0.13897957
vn 0.127532184 0.982048991 0.13897957
vn 0.127532184 0.982048991 0.13897957
vn 0.109635714 0.982048991 0.153491984
vn 0.109635714 0.982048991 0.153491984
vn 0.109635714 0.982048991 0.153491984
vn 0.109635714 0.982048991 0.153491984
vn 0.109635714 0.982048991 0.153491984
vn 0.091360561 0.995817879 -0
vn 0.091360561 0.995817879 -0
vn 0.109635714 0.982048991 0.153491984
vn 0.0736462635 0.997284427 -0
vn 0.0558619883 0.9984385 -0
vn 0.0558619883 0.9984385 -0
vn 0.0736462635 0.997284427 -0
vn 0.0558619883 0.9984385 -0
vn 0.0380243879 0.999276811 -0
vn 0.0380243879 0.999276811 -0
vn 0.0558619883 0.9984385 -0
vn 0.0201503677 0.999796961 -0
vn 0.00225689014 0.999945462 0.010197057
vn 0.00225689014 0.999945462 0.010197057
vn 0.0201503677 0.999796961 -0
vn 0.00225689014 0.999945462 0.010197057
vn 0.00225689014 0.999945462 0.010197057
vn 0.00225689014 0.999945462 0.010197057
vn 0.00225689014 0.999945462 0.010197057
vn 0.0380243879 0.999276811 -0
vn 0.0201503677 0.999796961 -0
vn 0.0201503677 0.999796961 -0
vn 0.0380243879 0.999276811 -0
vn 0.00225689014 0.999945462 0.010197057
vn 0.0201503677 0.999796961 -0
vn 0.0201503677 0.999796961 -0
vn 0.00225689014 0.999945462 0.010197057
vn 0.0738427724 0.982048991 0.17357138
vn 0.091739243 0.982048991 0.164814108
vn 0.091739243 0.982048991 0.164814108
vn 0.0738427724 0.982048991 0.17357138
vn -0.0869002299 0.99621702 -0
vn -0.051367423 0.998679822 -0
vn -0.051367423 0.998679822 -0
vn -0.0691667293 0.997605114 -0
vn -0.0869002299 0.99621702 -0
vn -0.0691667293 0.997605114 -0
vn -0.104551512 0.994519473 -0
vn -0.123018404 0.982048991 0.142990389
vn 0.109635714 0.677808992 0.727017869
vn 0.109635714 0.677808992 0.727017869
vn 0.109635714 0.677808992 0.727017869
vn 0.109635714 0.677808992 0.727017869
vn 0.127532184 0.982048991 0.13897957
vn 0.127532184 0.982048991 0.13897957
vn 0.127532184 0.982048991 0.13897957
vn 0.127532184 0.982048991 0.13897957
vn 0.127532184 0.982048991 0.13897957
vn 0.127532184 0.982048991 0.13897957
vn 0.127532184 0.982048991 0.13897957
vn 0.127532184 0.982048991 0.13897957
vn 0.091360561 0.995817879 -0
vn 0.091360561 0.995817879 -0
vn 0.091360561 0.995817879 -0
vn 0.091360561 0.995817879 -0
g polySurface38_0
f 3/3/3 2/2/2 1/1/1
f 4/4/4 3/3/3 1/1/1
f 7/7/7 6/6/6 5/5/5
f 8/8/8 7/7/7 5/5/5
f 11/11/11 10/10/10 9/9/9
f 12/12/12 11/11/11 9/9/9
f 15/15/15 14/14/14 13/13/13
f 16/16/16 15/15/15 13/13/13
f 19/19/19 18/18/18 17/17/17
f 20/20/20 19/19/19 17/17/17
f 23/23/23 22/22/22 21/21/21
f 24/24/24 23/23/23 21/21/21
f 27/27/27 26/26/26 25/25/25
f 28/28/28 27/27/27 25/25/25
f 31/31/31 30/30/30 29/29/29
f 32/32/32 31/31/31 29/29/29
f 35/35/35 34/34/34 33/33/33
f 36/36/36 35/35/35 33/33/33
f 39/39/39 38/38/38 37/37/37
f 40/40/40 39/39/39 37/37/37
f 43/43/43 42/42/42 41/41/41
f 44/44/44 43/43/43 41/41/41
f 47/47/47 46/46/46 45/45/45
f 48/48/48 47/47/47 45/45/45
f 51/51/51 50/50/50 49/49/49
f 52/52/52 51/51/51 49/49/49
f 55/55/55 54/54/54 53/53/53
f 56/56/56 55/55/55 53/53/53
f 59/59/59 58/58/58 57/57/57
f 60/60/60 59/59/59 57/57/57
f 63/63/63 62/62/62 61/61/61
f 64/64/64 63/63/63 61/61/61
f 67/67/67 66/66/66 65/65/65
f 68/68/68 67/67/67 65/65/65
f 71/71/71 70/70/70 69/69/69
f 72/72/72 71/71/71 69/69/69
f 75/75/75 74/74/74 73/73/73
f 76/76/76 75/75/75 73/73/73
f 79/79/79 78/78/78 77/77/77
f 80/80/80 79/79/79 77/77/77
