g ControlRoom_Pipe_1
v -20.4685669 8.09810448 -11.0900965
v -20.4707851 8.10774803 -11.070013
v -20.5602875 8.04401779 -11.070013
v -20.5519009 8.03876781 -11.0900965
v -20.5519009 8.03876781 -11.0900965
v -20.5602875 8.04401779 -11.070013
v -20.5785122 7.93566656 -11.070013
v -20.5688686 7.93788433 -11.0900965
v -20.514782 7.84616327 -11.070013
v -20.5095329 7.85455084 -11.0900965
v -20.5095329 7.85455084 -11.0900965
v -20.514782 7.84616327 -11.070013
v -20.4064312 7.82793951 -11.070013
v -20.4086494 7.83758307 -11.0900965
v -20.3169289 7.89166927 -11.070013
v -20.3253155 7.89691925 -11.0900965
v -20.3253155 7.89691925 -11.0900965
v -20.3169289 7.89166927 -11.070013
v -20.2987041 8.00002098 -11.070013
v -20.3083477 7.99780321 -11.0900965
v -20.3083477 7.99780321 -11.0900965
v -20.2987041 8.00002098 -11.070013
v -20.3624344 8.08952236 -11.070013
v -20.3676853 8.08113575 -11.0900965
v -20.4707851 8.10774803 -11.070013
v -20.4685669 8.09810448 -11.0900965
v -20.4707851 8.10774803 -14.3947868
v -20.4685669 8.09810448 -14.3788977
v -20.5519009 8.03876781 -14.3788977
v -20.5602875 8.04401779 -14.3947868
v -20.5602875 8.04401779 -14.3947868
v -20.5519009 8.03876781 -14.3788977
v -20.5688686 7.93788433 -14.3788977
v -20.5785122 7.93566656 -14.3947868
v -20.5095329 7.85455084 -14.3788977
v -20.514782 7.84616327 -14.3947868
v -20.514782 7.84616327 -14.3947868
v -20.5095329 7.85455084 -14.3788977
v -20.4086494 7.83758307 -14.3788977
v -20.4064312 7.82793951 -14.3947868
v -20.3253155 7.89691925 -14.3788977
v -20.3169289 7.89166927 -14.3947868
v -20.3169289 7.89166927 -14.3947868
v -20.3253155 7.89691925 -14.3788977
v -20.3083477 7.99780321 -14.3788977
v -20.2987041 8.00002098 -14.3947868
v -20.2987041 8.00002098 -14.3947868
v -20.3083477 7.99780321 -14.3788977
v -20.3676853 8.08113575 -14.3788977
v -20.3624344 8.08952236 -14.3947868
v -20.4685669 8.09810448 -14.3788977
v -20.4707851 8.10774803 -14.3947868
v -20.4685669 8.09810448 -11.9122972
v -20.4685669 8.09810448 -11.0900965
v -20.5519009 8.03876781 -11.0900965
v -20.5519009 8.03876781 -11.9122972
v -20.5519009 8.03876781 -11.9122972
v -20.5519009 8.03876781 -11.0900965
v -20.5688686 7.93788433 -11.0900965
v -20.5688686 7.93788433 -11.9122972
v -20.5095329 7.85455084 -11.0900965
v -20.5095329 7.85455084 -11.9122972
v -20.5095329 7.85455084 -11.9122972
v -20.5095329 7.85455084 -11.0900965
v -20.4086494 7.83758307 -11.0900965
v -20.4086494 7.83758307 -11.9122972
v -20.3253155 7.89691925 -11.0900965
v -20.3253155 7.89691925 -11.9122972
v -20.3253155 7.89691925 -11.9122972
v -20.3253155 7.89691925 -11.0900965
v -20.3083477 7.99780321 -11.0900965
v -20.3083477 7.99780321 -11.9122972
v -20.3083477 7.99780321 -11.9122972
v -20.3083477 7.99780321 -11.0900965
v -20.3676853 8.08113575 -11.0900965
v -20.3676853 8.08113575 -11.9122972
v -20.4685669 8.09810448 -11.0900965
v -20.4685669 8.09810448 -11.9122972
v -20.4685669 8.09810448 -13.5566969
v -20.4685669 8.09810448 -12.7344971
v -20.5519009 8.03876781 -12.7344971
v -20.5519009 8.03876781 -13.5566969
v -20.5519009 8.03876781 -13.5566969
v -20.5519009 8.03876781 -12.7344971
v -20.5688686 7.93788433 -12.7344971
v -20.5688686 7.93788433 -13.5566969
v -20.5095329 7.85455084 -12.7344971
v -20.5095329 7.85455084 -13.5566969
v -20.5095329 7.85455084 -13.5566969
v -20.5095329 7.85455084 -12.7344971
v -20.4086494 7.83758307 -12.7344971
v -20.4086494 7.83758307 -13.5566969
v -20.3253155 7.89691925 -12.7344971
v -20.3253155 7.89691925 -13.5566969
v -20.3253155 7.89691925 -13.5566969
v -20.3253155 7.89691925 -12.7344971
v -20.3083477 7.99780321 -12.7344971
v -20.3083477 7.99780321 -13.5566969
v -20.3083477 7.99780321 -13.5566969
v -20.3083477 7.99780321 -12.7344971
v -20.3676853 8.08113575 -12.7344971
v -20.3676853 8.08113575 -13.5566969
v -20.4685669 8.09810448 -12.7344971
v -20.4685669 8.09810448 -13.5566969
v -20.4685669 8.09810448 -12.7344971
v -20.4685669 8.09810448 -11.9122972
v -20.5519009 8.03876781 -11.9122972
v -20.5519009 8.03876781 -12.7344971
v -20.5519009 8.03876781 -12.7344971
v -20.5519009 8.03876781 -11.9122972
v -20.5688686 7.93788433 -11.9122972
v -20.5688686 7.93788433 -12.7344971
v -20.5095329 7.85455084 -11.9122972
v -20.5095329 7.85455084 -12.7344971
v -20.5095329 7.85455084 -12.7344971
v -20.5095329 7.85455084 -11.9122972
v -20.4086494 7.83758307 -11.9122972
v -20.4086494 7.83758307 -12.7344971
v -20.3253155 7.89691925 -11.9122972
v -20.3253155 7.89691925 -12.7344971
v -20.3253155 7.89691925 -12.7344971
v -20.3253155 7.89691925 -11.9122972
v -20.3083477 7.99780321 -11.9122972
v -20.3083477 7.99780321 -12.7344971
v -20.3083477 7.99780321 -12.7344971
v -20.3083477 7.99780321 -11.9122972
v -20.3676853 8.08113575 -11.9122972
v -20.3676853 8.08113575 -12.7344971
v -20.4685669 8.09810448 -11.9122972
v -20.4685669 8.09810448 -12.7344971
v -20.4685669 8.09810448 -14.3788977
v -20.4685669 8.09810448 -13.5566969
v -20.5519009 8.03876781 -13.5566969
v -20.5519009 8.03876781 -14.3788977
v -20.5519009 8.03876781 -14.3788977
v -20.5519009 8.03876781 -13.5566969
v -20.5688686 7.93788433 -13.5566969
v -20.5688686 7.93788433 -14.3788977
v -20.5095329 7.85455084 -13.5566969
v -20.5095329 7.85455084 -14.3788977
v -20.5095329 7.85455084 -14.3788977
v -20.5095329 7.85455084 -13.5566969
v -20.4086494 7.83758307 -13.5566969
v -20.4086494 7.83758307 -14.3788977
v -20.3253155 7.89691925 -13.5566969
v -20.3253155 7.89691925 -14.3788977
v -20.3253155 7.89691925 -14.3788977
v -20.3253155 7.89691925 -13.5566969
v -20.3083477 7.99780321 -13.5566969
v -20.3083477 7.99780321 -14.3788977
v -20.3083477 7.99780321 -14.3788977
v -20.3083477 7.99780321 -13.5566969
v -20.3676853 8.08113575 -13.5566969
v -20.3676853 8.08113575 -14.3788977
v -20.4685669 8.09810448 -13.5566969
v -20.4685669 8.09810448 -14.3788977
vt 0.139526367 0.308837891
vt 0.139526367 0.30078125
vt 0.166992188 0.30078125
vt 0.166992188 0.308837891
vt 0.166625977 0.308837891
vt 0.166625977 0.30078125
vt 0.139404297 0.30078125
vt 0.139404297 0.308837891
vt 0.112121582 0.30078125
vt 0.112121582 0.308837891
vt 0.112121582 0.308837891
vt 0.112121582 0.30078125
vt 0.085144043 0.30078125
vt 0.0850219727 0.308837891
vt 0.0577392578 0.30078125
vt 0.0577392578 0.308837891
vt 0.0577392578 0.308837891
vt 0.0577392578 0.30078125
vt 0.0850219727 0.30078125
vt 0.0850219727 0.308837891
vt 0.0850219727 0.308837891
vt 0.0850219727 0.30078125
vt 0.112243652 0.30078125
vt 0.112243652 0.308837891
vt 0.139526367 0.30078125
vt 0.139526367 0.308837891
vt 0.139526367 0.30078125
vt 0.139526367 0.308837891
vt 0.166992188 0.308837891
vt 0.166992188 0.30078125
vt 0.166625977 0.30078125
vt 0.166625977 0.308837891
vt 0.139404297 0.308837891
vt 0.139404297 0.30078125
vt 0.112121582 0.308837891
vt 0.112121582 0.30078125
vt 0.112121582 0.30078125
vt 0.112121582 0.308837891
vt 0.0847167969 0.308837891
vt 0.0847167969 0.30078125
vt 0.0577392578 0.308837891
vt 0.0577392578 0.30078125
vt 0.0577392578 0.30078125
vt 0.0577392578 0.308837891
vt 0.0850219727 0.308837891
vt 0.0850219727 0.30078125
vt 0.0850219727 0.30078125
vt 0.0850219727 0.308837891
vt 0.112243652 0.308837891
vt 0.112243652 0.30078125
vt 0.139526367 0.308837891
vt 0.139526367 0.30078125
vt 0.137329102 0.105651855
vt 0.137329102 0.291992188
vt 0.114624023 0.291992188
vt 0.114624023 0.105651855
vt 0.114624023 0.105651855
vt 0.114624023 0.291992188
vt 0.137329102 0.291992188
vt 0.137329102 0.105651855
vt 0.160400391 0.291992188
vt 0.160400391 0.105651855
vt 0.160400391 0.105651855
vt 0.160400391 0.291992188
vt 0.18347168 0.291992188
vt 0.18347168 0.105651855
vt 0.206542969 0.291992188
vt 0.206542969 0.105651855
vt 0.206542969 0.105651855
vt 0.206542969 0.291992188
vt 0.18347168 0.291992188
vt 0.18347168 0.105651855
vt 0.18347168 0.105651855
vt 0.18347168 0.291992188
vt 0.160400391 0.291992188
vt 0.160400391 0.105651855
vt 0.137329102 0.291992188
vt 0.137329102 0.105651855
vt 0.137329102 0.105651855
vt 0.137329102 0.291992188
vt 0.114624023 0.291992188
vt 0.114624023 0.105651855
vt 0.114624023 0.105651855
vt 0.114624023 0.291992188
vt 0.137329102 0.291992188
vt 0.137329102 0.105651855
vt 0.160400391 0.291992188
vt 0.160400391 0.105651855
vt 0.160400391 0.105651855
vt 0.160400391 0.291992188
vt 0.18347168 0.291992188
vt 0.18347168 0.105651855
vt 0.206542969 0.291992188
vt 0.206542969 0.105651855
vt 0.206542969 0.105651855
vt 0.206542969 0.291992188
vt 0.18347168 0.291992188
vt 0.18347168 0.105651855
vt 0.18347168 0.105651855
vt 0.18347168 0.291992188
vt 0.160400391 0.291992188
vt 0.160400391 0.105651855
vt 0.137329102 0.291992188
vt 0.137329102 0.105651855
vt 0.137329102 0.291992188
vt 0.137329102 0.105651855
vt 0.114624023 0.105651855
vt 0.114624023 0.291992188
vt 0.114624023 0.291992188
vt 0.114624023 0.105651855
vt 0.137329102 0.105651855
vt 0.137329102 0.291992188
vt 0.160400391 0.105651855
vt 0.160400391 0.291992188
vt 0.160400391 0.291992188
vt 0.160400391 0.105651855
vt 0.18347168 0.105651855
vt 0.18347168 0.291992188
vt 0.206542969 0.105651855
vt 0.206542969 0.291992188
vt 0.206542969 0.291992188
vt 0.206542969 0.105651855
vt 0.18347168 0.105651855
vt 0.18347168 0.291992188
vt 0.18347168 0.291992188
vt 0.18347168 0.105651855
vt 0.160400391 0.105651855
vt 0.160400391 0.291992188
vt 0.137329102 0.105651855
vt 0.137329102 0.291992188
vt 0.137329102 0.291992188
vt 0.137329102 0.105651855
vt 0.114624023 0.105651855
vt 0.114624023 0.291992188
vt 0.114624023 0.291992188
vt 0.114624023 0.105651855
vt 0.137329102 0.105651855
vt 0.137329102 0.291992188
vt 0.160400391 0.105651855
vt 0.160400391 0.291992188
vt 0.160400391 0.291992188
vt 0.160400391 0.105651855
vt 0.18347168 0.105651855
vt 0.18347168 0.291992188
vt 0.206542969 0.105651855
vt 0.206542969 0.291992188
vt 0.206542969 0.291992188
vt 0.206542969 0.105651855
vt 0.18347168 0.105651855
vt 0.18347168 0.291992188
vt 0.18347168 0.291992188
vt 0.18347168 0.105651855
vt 0.160400391 0.105651855
vt 0.160400391 0.291992188
vt 0.137329102 0.105651855
vt 0.137329102 0.291992188
vn -0.224121094 0.974609375 -0.0134506226
vn -0.201049805 0.874023438 -0.441894531
vn -0.760253906 0.476074219 -0.441894531
vn -0.84765625 0.530761719 -0.0134506226
vn -0.84765625 0.530761719 -0.0134506226
vn -0.760253906 0.476074219 -0.441894531
vn -0.874023438 -0.201049805 -0.441894531
vn -0.974609375 -0.224121094 -0.0134506226
vn -0.476074219 -0.760253906 -0.441894531
vn -0.530761719 -0.84765625 -0.0134506226
vn -0.530761719 -0.84765625 -0.0134506226
vn -0.476074219 -0.760253906 -0.441894531
vn 0.201049805 -0.874023438 -0.441894531
vn 0.224121094 -0.974609375 -0.0134506226
vn 0.760253906 -0.476074219 -0.441894531
vn 0.84765625 -0.530761719 -0.0134506226
vn 0.84765625 -0.530761719 -0.0134506226
vn 0.760253906 -0.476074219 -0.441894531
vn 0.874023438 0.201049805 -0.441894531
vn 0.974609375 0.224121094 -0.0134506226
vn 0.974609375 0.224121094 -0.0134506226
vn 0.874023438 0.201049805 -0.441894531
vn 0.476074219 0.760253906 -0.441894531
vn 0.530761719 0.84765625 -0.0134506226
vn -0.201049805 0.874023438 -0.441894531
vn -0.224121094 0.974609375 -0.0134506226
vn -0.190307617 0.827148438 0.528808594
vn -0.224121094 0.974609375 0.0137863159
vn -0.84765625 0.530761719 0.0137863159
vn -0.719726562 0.450439453 0.528808594
vn -0.719726562 0.450439453 0.528808594
vn -0.84765625 0.530761719 0.0137863159
vn -0.974609375 -0.224121094 0.0137863159
vn -0.827148438 -0.190307617 0.528808594
vn -0.530761719 -0.84765625 0.0137863159
vn -0.450439453 -0.719726562 0.528808594
vn -0.450439453 -0.719726562 0.528808594
vn -0.530761719 -0.84765625 0.0137863159
vn 0.224121094 -0.974609375 0.0137863159
vn 0.190307617 -0.827148438 0.528808594
vn 0.84765625 -0.530761719 0.0137863159
vn 0.719726562 -0.450439453 0.528808594
vn 0.719726562 -0.450439453 0.528808594
vn 0.84765625 -0.530761719 0.0137863159
vn 0.974609375 0.224121094 0.0137863159
vn 0.827148438 0.190307617 0.528808594
vn 0.827148438 0.190307617 0.528808594
vn 0.974609375 0.224121094 0.0137863159
vn 0.530761719 0.84765625 0.0137863159
vn 0.450439453 0.719726562 0.528808594
vn -0.224121094 0.974609375 0.0137863159
vn -0.190307617 0.827148438 0.528808594
vn -0.224121094 0.974609375 0
vn -0.224121094 0.974609375 -0.0134506226
vn -0.84765625 0.530761719 -0.0134506226
vn -0.84765625 0.530761719 0
vn -0.84765625 0.530761719 0
vn -0.84765625 0.530761719 -0.0134506226
vn -0.974609375 -0.224121094 -0.0134506226
vn -0.974609375 -0.224121094 0
vn -0.530761719 -0.84765625 -0.0134506226
vn -0.530761719 -0.84765625 0
vn -0.530761719 -0.84765625 0
vn -0.530761719 -0.84765625 -0.0134506226
vn 0.224121094 -0.974609375 -0.0134506226
vn 0.224121094 -0.974609375 0
vn 0.84765625 -0.530761719 -0.0134506226
vn 0.84765625 -0.530761719 0
vn 0.84765625 -0.530761719 0
vn 0.84765625 -0.530761719 -0.0134506226
vn 0.974609375 0.224121094 -0.0134506226
vn 0.974609375 0.224121094 0
vn 0.974609375 0.224121094 0
vn 0.974609375 0.224121094 -0.0134506226
vn 0.530761719 0.84765625 -0.0134506226
vn 0.530761719 0.84765625 0
vn -0.224121094 0.974609375 -0.0134506226
vn -0.224121094 0.974609375 0
vn -0.224121094 0.974609375 0
vn -0.224121094 0.974609375 0
vn -0.84765625 0.530761719 0
vn -0.84765625 0.530761719 0
vn -0.84765625 0.530761719 0
vn -0.84765625 0.530761719 0
vn -0.974609375 -0.224121094 0
vn -0.974609375 -0.224121094 0
vn -0.530761719 -0.84765625 0
vn -0.530761719 -0.84765625 0
vn -0.530761719 -0.84765625 0
vn -0.530761719 -0.84765625 0
vn 0.224121094 -0.974609375 0
vn 0.224121094 -0.974609375 0
vn 0.84765625 -0.530761719 0
vn 0.84765625 -0.530761719 0
vn 0.84765625 -0.530761719 0
vn 0.84765625 -0.530761719 0
vn 0.974609375 0.224121094 0
vn 0.974609375 0.224121094 0
vn 0.974609375 0.224121094 0
vn 0.974609375 0.224121094 0
vn 0.530761719 0.84765625 0
vn 0.530761719 0.84765625 0
vn -0.224121094 0.974609375 0
vn -0.224121094 0.974609375 0
vn -0.224121094 0.974609375 0
vn -0.224121094 0.974609375 0
vn -0.84765625 0.530761719 0
vn -0.84765625 0.530761719 0
vn -0.84765625 0.530761719 0
vn -0.84765625 0.530761719 0
vn -0.974609375 -0.224121094 0
vn -0.974609375 -0.224121094 0
vn -0.530761719 -0.84765625 0
vn -0.530761719 -0.84765625 0
vn -0.530761719 -0.84765625 0
vn -0.530761719 -0.84765625 0
vn 0.224121094 -0.974609375 0
vn 0.224121094 -0.974609375 0
vn 0.84765625 -0.530761719 0
vn 0.84765625 -0.530761719 0
vn 0.84765625 -0.530761719 0
vn 0.84765625 -0.530761719 0
vn 0.974609375 0.224121094 0
vn 0.974609375 0.224121094 0
vn 0.974609375 0.224121094 0
vn 0.974609375 0.224121094 0
vn 0.530761719 0.84765625 0
vn 0.530761719 0.84765625 0
vn -0.224121094 0.974609375 0
vn -0.224121094 0.974609375 0
vn -0.224121094 0.974609375 0.0137863159
vn -0.224121094 0.974609375 0
vn -0.84765625 0.530761719 0
vn -0.84765625 0.530761719 0.0137863159
vn -0.84765625 0.530761719 0.0137863159
vn -0.84765625 0.530761719 0
vn -0.974609375 -0.224121094 0
vn -0.974609375 -0.224121094 0.0137863159
vn -0.530761719 -0.84765625 0
vn -0.530761719 -0.84765625 0.0137863159
vn -0.530761719 -0.84765625 0.0137863159
vn -0.530761719 -0.84765625 0
vn 0.224121094 -0.974609375 0
vn 0.224121094 -0.974609375 0.0137863159
vn 0.84765625 -0.530761719 0
vn 0.84765625 -0.530761719 0.0137863159
vn 0.84765625 -0.530761719 0.0137863159
vn 0.84765625 -0.530761719 0
vn 0.974609375 0.224121094 0
vn 0.974609375 0.224121094 0.0137863159
vn 0.974609375 0.224121094 0.0137863159
vn 0.974609375 0.224121094 0
vn 0.530761719 0.84765625 0
vn 0.530761719 0.84765625 0.0137863159
vn -0.224121094 0.974609375 0
vn -0.224121094 0.974609375 0.0137863159
g ControlRoom_Pipe_1_0
f 3/3/3 2/2/2 1/1/1
f 4/4/4 3/3/3 1/1/1
f 7/7/7 6/6/6 5/5/5
f 8/8/8 7/7/7 5/5/5
f 9/9/9 7/7/7 8/8/8
f 10/10/10 9/9/9 8/8/8
f 13/13/13 12/12/12 11/11/11
f 14/14/14 13/13/13 11/11/11
f 15/15/15 13/13/13 14/14/14
f 16/16/16 15/15/15 14/14/14
f 19/19/19 18/18/18 17/17/17
f 20/20/20 19/19/19 17/17/17
f 23/23/23 22/22/22 21/21/21
f 24/24/24 23/23/23 21/21/21
f 25/25/25 23/23/23 24/24/24
f 26/26/26 25/25/25 24/24/24
f 29/29/29 28/28/28 27/27/27
f 30/30/30 29/29/29 27/27/27
f 33/33/33 32/32/32 31/31/31
f 34/34/34 33/33/33 31/31/31
f 35/35/35 33/33/33 34/34/34
f 36/36/36 35/35/35 34/34/34
f 39/39/39 38/38/38 37/37/37
f 40/40/40 39/39/39 37/37/37
f 41/41/41 39/39/39 40/40/40
f 42/42/42 41/41/41 40/40/40
f 45/45/45 44/44/44 43/43/43
f 46/46/46 45/45/45 43/43/43
f 49/49/49 48/48/48 47/47/47
f 50/50/50 49/49/49 47/47/47
f 51/51/51 49/49/49 50/50/50
f 52/52/52 51/51/51 50/50/50
f 55/55/55 54/54/54 53/53/53
f 56/56/56 55/55/55 53/53/53
f 59/59/59 58/58/58 57/57/57
f 60/60/60 59/59/59 57/57/57
f 61/61/61 59/59/59 60/60/60
f 62/62/62 61/61/61 60/60/60
f 65/65/65 64/64/64 63/63/63
f 66/66/66 65/65/65 63/63/63
f 67/67/67 65/65/65 66/66/66
f 68/68/68 67/67/67 66/66/66
f 71/71/71 70/70/70 69/69/69
f 72/72/72 71/71/71 69/69/69
f 75/75/75 74/74/74 73/73/73
f 76/76/76 75/75/75 73/73/73
f 77/77/77 75/75/75 76/76/76
f 78/78/78 77/77/77 76/76/76
f 81/81/81 80/80/80 79/79/79
f 82/82/82 81/81/81 79/79/79
f 85/85/85 84/84/84 83/83/83
f 86/86/86 85/85/85 83/83/83
f 87/87/87 85/85/85 86/86/86
f 88/88/88 87/87/87 86/86/86
f 91/91/91 90/90/90 89/89/89
f 92/92/92 91/91/91 89/89/89
f 93/93/93 91/91/91 92/92/92
f 94/94/94 93/93/93 92/92/92
f 97/97/97 96/96/96 95/95/95
f 98/98/98 97/97/97 95/95/95
f 101/101/101 100/100/100 99/99/99
f 102/102/102 101/101/101 99/99/99
f 103/103/103 101/101/101 102/102/102
f 104/104/104 103/103/103 102/102/102
f 107/107/107 106/106/106 105/105/105
f 108/108/108 107/107/107 105/105/105
f 111/111/111 110/110/110 109/109/109
f 112/112/112 111/111/111 109/109/109
f 113/113/113 111/111/111 112/112/112
f 114/114/114 113/113/113 112/112/112
f 117/117/117 116/116/116 115/115/115
f 118/118/118 117/117/117 115/115/115
f 119/119/119 117/117/117 118/118/118
f 120/120/120 119/119/119 118/118/118
f 123/123/123 122/122/122 121/121/121
f 124/124/124 123/123/123 121/121/121
f 127/127/127 126/126/126 125/125/125
f 128/128/128 127/127/127 125/125/125
f 129/129/129 127/127/127 128/128/128
f 130/130/130 129/129/129 128/128/128
f 133/133/133 132/132/132 131/131/131
f 134/134/134 133/133/133 131/131/131
f 137/137/137 136/136/136 135/135/135
f 138/138/138 137/137/137 135/135/135
f 139/139/139 137/137/137 138/138/138
f 140/140/140 139/139/139 138/138/138
f 143/143/143 142/142/142 141/141/141
f 144/144/144 143/143/143 141/141/141
f 145/145/145 143/143/143 144/144/144
f 146/146/146 145/145/145 144/144/144
f 149/149/149 148/148/148 147/147/147
f 150/150/150 149/149/149 147/147/147
f 153/153/153 152/152/152 151/151/151
f 154/154/154 153/153/153 151/151/151
f 155/155/155 153/153/153 154/154/154
f 156/156/156 155/155/155 154/154/154
