g IS4_MDL_EscenarioGaraje_Estatua_Paredes_9
v -3.87857342 -1.69534051 -1.06360984
v -3.23961854 -0.109036863 -0.54152
v -2.22767496 -0.109036863 -0.731108606
v -2.67623949 -1.69534051 -1.26069474
v 0.896402061 -1.69534051 -1.41330588
v 0.74805975 -0.109037474 -0.803448677
v 2.00647044 -0.109036863 -0.735865712
v 2.44820619 -1.69534051 -1.42480254
v -0.964193642 -1.69534051 -1.3241055
v -0.801180959 -0.109037474 -0.803448677
v 0.74805975 -0.109037474 -0.803448677
v 0.896402061 -1.69534051 -1.41330588
v -2.67623949 -1.69534051 -1.26069474
v -2.22767496 -0.109036863 -0.731108606
v -0.801180959 -0.109037474 -0.803448677
v -0.964193642 -1.69534051 -1.3241055
v 2.44820619 -1.69534051 -1.42480254
v 2.00647044 -0.109036863 -0.735865712
v 3.22044969 -0.109036252 -0.540708244
v 3.87856984 -1.69534051 -1.28950953
v -3.23961854 -0.109036863 -0.54152
v -2.17635179 0.976831615 0.413802266
v -1.49525797 0.942483485 0.275256127
v -2.22767496 -0.109036863 -0.731108606
v 0.74805975 -0.109037474 -0.803448677
v 0.507598341 0.922336996 0.224939957
v 1.32063556 0.936570406 0.271573246
v 2.00647044 -0.109036863 -0.735865712
v -0.801180959 -0.109037474 -0.803448677
v -0.5373137 0.922336996 0.224939957
v 0.507598341 0.922336996 0.224939957
v 0.74805975 -0.109037474 -0.803448677
v -2.22767496 -0.109036863 -0.731108606
v -1.49525797 0.942483485 0.275256127
v -0.5373137 0.922336996 0.224939957
v -0.801180959 -0.109037474 -0.803448677
v 2.00647044 -0.109036863 -0.735865712
v 1.32063556 0.936570406 0.271573246
v 2.17734933 0.97812742 0.414545655
v 3.22044969 -0.109036252 -0.540708244
v -2.17635179 0.976831615 0.413802266
v -1.31200111 1.69534051 1.42446005
v -0.903099895 1.69534051 1.23310637
v -1.49525797 0.942483485 0.275256127
v 0.507598341 0.922336996 0.224939957
v 0.355386466 1.69534051 1.11624849
v 0.832151532 1.69534051 1.23157442
v 1.32063556 0.936570406 0.271573246
v -0.5373137 0.922336996 0.224939957
v -0.356136948 1.69534051 1.11624849
v 0.355386466 1.69534051 1.11624849
v 0.507598341 0.922336996 0.224939957
v -1.49525797 0.942483485 0.275256127
v -0.903099895 1.69534051 1.23310637
v -0.356136948 1.69534051 1.11624849
v -0.5373137 0.922336996 0.224939957
v 1.32063556 0.936570406 0.271573246
v 0.832151532 1.69534051 1.23157442
v 1.31154859 1.69534051 1.42480195
v 2.17734933 0.97812742 0.414545655
vt 0.98828125 0.0161132812
vt 0.98828125 0.463623047
vt 0.691894531 0.463623047
vt 0.691894531 0.0161132812
vt 0.374267578 0.0136566162
vt 0.374267578 0.456787109
vt 0.673339844 0.456787109
vt 0.673339844 0.0136566162
vt 0.673339844 0.0136566162
vt 0.673339844 0.456787109
vt 0.374267578 0.456787109
vt 0.374267578 0.0136566162
vt 0.673339844 0.0136566162
vt 0.673339844 0.456787109
vt 0.374267578 0.456787109
vt 0.374267578 0.0136566162
vt 0.691894531 0.0161132812
vt 0.691894531 0.463623047
vt 0.98828125 0.463623047
vt 0.98828125 0.0161132812
vt 0.98828125 0.077331543
vt 0.98828125 0.524902344
vt 0.691894531 0.524902344
vt 0.691894531 0.077331543
vt 0.374267578 0.0820922852
vt 0.374267578 0.525390625
vt 0.673339844 0.525390625
vt 0.673339844 0.0820922852
vt 0.374267578 0.0820922852
vt 0.374267578 0.525390625
vt 0.673339844 0.525390625
vt 0.673339844 0.0820922852
vt 0.374267578 0.0820922852
vt 0.374267578 0.525390625
vt 0.673339844 0.525390625
vt 0.673339844 0.0820922852
vt 0.691894531 0.077331543
vt 0.691894531 0.524902344
vt 0.98828125 0.524902344
vt 0.98828125 0.077331543
vt 0.98828125 0.077331543
vt 0.98828125 0.524902344
vt 0.691894531 0.524902344
vt 0.691894531 0.077331543
vt 0.374267578 0.0820922852
vt 0.374267578 0.525390625
vt 0.673339844 0.525390625
vt 0.673339844 0.0820922852
vt 0.374267578 0.0820922852
vt 0.374267578 0.525390625
vt 0.673339844 0.525390625
vt 0.673339844 0.0820922852
vt 0.374267578 0.0820922852
vt 0.374267578 0.525390625
vt 0.673339844 0.525390625
vt 0.673339844 0.0820922852
vt 0.691894531 0.077331543
vt 0.691894531 0.524902344
vt 0.98828125 0.524902344
vt 0.98828125 0.077331543
vn 0.160888672 -0.274658203 0.948242188
vn 0.151123047 -0.473388672 0.867675781
vn 0.0839233398 -0.493408203 0.865722656
vn 0.0914306641 -0.270263672 0.958496094
vn 0.0133972168 -0.264160156 0.964355469
vn -0.00284004211 -0.501464844 0.865234375
vn -0.0659179688 -0.536132812 0.841308594
vn -0.0562133789 -0.296386719 0.953613281
vn 0.0330200195 -0.256103516 0.965820312
vn 0.0264282227 -0.489013672 0.872070312
vn -0.00284004211 -0.501464844 0.865234375
vn 0.0133972168 -0.264160156 0.964355469
vn 0.0914306641 -0.270263672 0.958496094
vn 0.0839233398 -0.493408203 0.865722656
vn 0.0264282227 -0.489013672 0.872070312
vn 0.0330200195 -0.256103516 0.965820312
vn -0.0562133789 -0.296386719 0.953613281
vn -0.0659179688 -0.536132812 0.841308594
vn -0.108947754 -0.525390625 0.844238281
vn -0.111999512 -0.290771484 0.950195312
vn 0.151123047 -0.473388672 0.867675781
vn 0.121643066 -0.754394531 0.645019531
vn 0.0731811523 -0.748535156 0.659179688
vn 0.0839233398 -0.493408203 0.865722656
vn -0.00284004211 -0.501464844 0.865234375
vn -0.0201263428 -0.728027344 0.685546875
vn -0.0728759766 -0.748535156 0.659179688
vn -0.0659179688 -0.536132812 0.841308594
vn 0.0264282227 -0.489013672 0.872070312
vn 0.0189971924 -0.728515625 0.685058594
vn -0.0201263428 -0.728027344 0.685546875
vn -0.00284004211 -0.501464844 0.865234375
vn 0.0839233398 -0.493408203 0.865722656
vn 0.0731811523 -0.748535156 0.659179688
vn 0.0189971924 -0.728515625 0.685058594
vn 0.0264282227 -0.489013672 0.872070312
vn -0.0659179688 -0.536132812 0.841308594
vn -0.0728759766 -0.748535156 0.659179688
vn -0.101928711 -0.745605469 0.658203125
vn -0.108947754 -0.525390625 0.844238281
vn 0.121643066 -0.754394531 0.645019531
vn 0.133422852 -0.838867188 0.528320312
vn 0.088684082 -0.806152344 0.584960938
vn 0.0731811523 -0.748535156 0.659179688
vn -0.0201263428 -0.728027344 0.685546875
vn -0.0294647217 -0.766601562 0.641601562
vn -0.0904541016 -0.806152344 0.584472656
vn -0.0728759766 -0.748535156 0.659179688
vn 0.0189971924 -0.728515625 0.685058594
vn 0.0264282227 -0.768066406 0.640136719
vn -0.0294647217 -0.766601562 0.641601562
vn -0.0201263428 -0.728027344 0.685546875
vn 0.0731811523 -0.748535156 0.659179688
vn 0.088684082 -0.806152344 0.584960938
vn 0.0264282227 -0.768066406 0.640136719
vn 0.0189971924 -0.728515625 0.685058594
vn -0.0728759766 -0.748535156 0.659179688
vn -0.0904541016 -0.806152344 0.584472656
vn -0.111450195 -0.830566406 0.545410156
vn -0.101928711 -0.745605469 0.658203125
g IS4_MDL_EscenarioGaraje_Estatua_Paredes_9_0
f 3/3/3 2/2/2 1/1/1
f 4/4/4 3/3/3 1/1/1
f 7/7/7 6/6/6 5/5/5
f 8/8/8 7/7/7 5/5/5
f 11/11/11 10/10/10 9/9/9
f 12/12/12 11/11/11 9/9/9
f 15/15/15 14/14/14 13/13/13
f 16/16/16 15/15/15 13/13/13
f 19/19/19 18/18/18 17/17/17
f 20/20/20 19/19/19 17/17/17
f 23/23/23 22/22/22 21/21/21
f 24/24/24 23/23/23 21/21/21
f 27/27/27 26/26/26 25/25/25
f 28/28/28 27/27/27 25/25/25
f 31/31/31 30/30/30 29/29/29
f 32/32/32 31/31/31 29/29/29
f 35/35/35 34/34/34 33/33/33
f 36/36/36 35/35/35 33/33/33
f 39/39/39 38/38/38 37/37/37
f 40/40/40 39/39/39 37/37/37
f 43/43/43 42/42/42 41/41/41
f 44/44/44 43/43/43 41/41/41
f 47/47/47 46/46/46 45/45/45
f 48/48/48 47/47/47 45/45/45
f 51/51/51 50/50/50 49/49/49
f 52/52/52 51/51/51 49/49/49
f 55/55/55 54/54/54 53/53/53
f 56/56/56 55/55/55 53/53/53
f 59/59/59 58/58/58 57/57/57
f 60/60/60 59/59/59 57/57/57
