g Cabin_Balcony_Leg_6
v -51.3942451 0.59463805 -63.0950623
v -51.3942451 -0.0773946345 -63.0950623
v -51.35849 -0.0773946345 -63.1271095
v -51.35849 0.594637752 -63.1271095
v -51.3325119 0.594637752 -63.0301247
v -51.2967606 0.594637513 -63.0621719
v -51.2967606 -0.0773946345 -63.0621719
v -51.3325119 -0.0773946345 -63.0301247
v -51.2967606 0.594637513 -63.0621719
v -51.3115082 0.594637513 -63.1172256
v -51.3115082 -0.0773946345 -63.1172256
v -51.2967606 -0.0773946345 -63.0621719
v -51.379509 -0.0773946345 -63.0399971
v -51.3942451 -0.0773946345 -63.0950623
v -51.3942451 0.59463805 -63.0950623
v -51.379509 0.59463805 -63.0399971
v -51.2967606 -0.0773946345 -63.0621719
v -51.267231 -0.0773946345 -63.0522156
v -51.324646 -0.0773946345 -63.0007553
v -51.3325119 -0.0773946345 -63.0301247
v -51.3115082 -0.0773946345 -63.1172256
v -51.2909088 -0.0773946345 -63.1406174
v -51.267231 -0.0773946345 -63.0522156
v -51.2967606 -0.0773946345 -63.0621719
v -51.379509 -0.0773946345 -63.0399971
v -51.4001045 -0.0773946345 -63.0166092
v -51.4237862 -0.0773946345 -63.1050072
v -51.3942451 -0.0773946345 -63.0950623
v -51.3942451 -0.0773946345 -63.0950623
v -51.4237862 -0.0773946345 -63.1050072
v -51.3663712 -0.0773946345 -63.1564827
v -51.35849 -0.0773946345 -63.1271095
v -51.267231 -0.0773946345 -63.0522156
v -51.267231 -0.114959791 -63.0522156
v -51.324646 -0.114959791 -63.0007553
v -51.324646 -0.0773946345 -63.0007553
v -51.2909088 -0.0773946345 -63.1406174
v -51.2909088 -0.114959791 -63.1406174
v -51.267231 -0.114959791 -63.0522156
v -51.267231 -0.0773946345 -63.0522156
v -51.4001045 -0.0773946345 -63.0166092
v -51.4001045 -0.114959791 -63.0166092
v -51.4237862 -0.114959791 -63.1050072
v -51.4237862 -0.0773946345 -63.1050072
v -51.4237862 -0.0773946345 -63.1050072
v -51.4237862 -0.114959791 -63.1050072
v -51.3663712 -0.114959791 -63.1564827
v -51.3663712 -0.0773946345 -63.1564827
v -51.2909088 -0.0773946345 -63.1406174
v -51.2909088 -0.114959791 -63.1406174
v -51.35849 -0.0773946345 -63.1271095
v -51.3115082 -0.0773946345 -63.1172256
v -51.3115082 0.594637513 -63.1172256
v -51.35849 0.594637752 -63.1271095
v -51.3663712 -0.0773946345 -63.1564827
v -51.2909088 -0.0773946345 -63.1406174
v -51.3115082 -0.0773946345 -63.1172256
v -51.35849 -0.0773946345 -63.1271095
v -51.379509 0.59463805 -63.0399971
v -51.3325119 0.594637752 -63.0301247
v -51.3325119 -0.0773946345 -63.0301247
v -51.379509 -0.0773946345 -63.0399971
v -51.324646 -0.0773946345 -63.0007553
v -51.4001045 -0.0773946345 -63.0166092
v -51.379509 -0.0773946345 -63.0399971
v -51.3325119 -0.0773946345 -63.0301247
v -51.324646 -0.114959791 -63.0007553
v -51.4001045 -0.114959791 -63.0166092
v -51.4001045 -0.0773946345 -63.0166092
v -51.324646 -0.0773946345 -63.0007553
vt 0.645507812 0.286376953
vt 0.514648438 0.286376953
vt 0.514648438 0.299560547
vt 0.645507812 0.299560547
vt 0.645507812 0.299560547
vt 0.645507812 0.286376953
vt 0.514648438 0.286376953
vt 0.514648438 0.299560547
vt 0.645507812 0.286376953
vt 0.645507812 0.270751953
vt 0.514648438 0.270751953
vt 0.514648438 0.286376953
vt 0.514648438 0.270751953
vt 0.514648438 0.286376953
vt 0.645507812 0.286376953
vt 0.645507812 0.270751953
vt 0.344482422 0.44921875
vt 0.348632812 0.451660156
vt 0.348632812 0.439941406
vt 0.344482422 0.442138672
vt 0.344726562 0.462890625
vt 0.348632812 0.465576172
vt 0.348632812 0.451660156
vt 0.344726562 0.454345703
vt 0.344726562 0.500488281
vt 0.348632812 0.502929688
vt 0.348632812 0.489013672
vt 0.344726562 0.491699219
vt 0.344482422 0.486572266
vt 0.348632812 0.489013672
vt 0.348632812 0.477294922
vt 0.344482422 0.479248047
vt 0.348632812 0.451660156
vt 0.353271484 0.451660156
vt 0.353271484 0.439941406
vt 0.348632812 0.439941406
vt 0.348632812 0.465576172
vt 0.353271484 0.465576172
vt 0.353271484 0.451660156
vt 0.348632812 0.451660156
vt 0.348632812 0.502929688
vt 0.353271484 0.502929688
vt 0.353271484 0.489013672
vt 0.348632812 0.489013672
vt 0.348632812 0.489013672
vt 0.353271484 0.489013672
vt 0.353271484 0.477294922
vt 0.348632812 0.477294922
vt 0.348632812 0.465576172
vt 0.353271484 0.465576172
vt 0.514648438 0.257568359
vt 0.514648438 0.270751953
vt 0.645507812 0.270751953
vt 0.645507812 0.257568359
vt 0.348632812 0.477294922
vt 0.348632812 0.465576172
vt 0.344482422 0.467773438
vt 0.344482422 0.475097656
vt 0.645507812 0.270751953
vt 0.645507812 0.257568359
vt 0.514648438 0.257568359
vt 0.514648438 0.270751953
vt 0.348632812 0.514648438
vt 0.348632812 0.502929688
vt 0.344482422 0.505371094
vt 0.344482422 0.512695312
vt 0.353271484 0.514648438
vt 0.353271484 0.502929688
vt 0.348632812 0.502929688
vt 0.348632812 0.514648438
vn -0.972167969 0 -0.23449707
vn -0.972167969 0 -0.23449707
vn -0.258789062 0 -0.965820312
vn -0.258789062 0 -0.965820312
vn 0.258789062 0 0.965820312
vn 0.972167969 0 0.23449707
vn 0.972167969 0 0.23449707
vn 0.258789062 0 0.965820312
vn 0.972167969 0 0.23449707
vn 0.724609375 0 -0.688964844
vn 0.724609375 0 -0.688964844
vn 0.972167969 0 0.23449707
vn -0.724609375 0 0.688964844
vn -0.972167969 0 -0.23449707
vn -0.972167969 0 -0.23449707
vn -0.724609375 0 0.688964844
vn -0 1 1.78813934E-07
vn -0 1 1.78813934E-07
vn -0 1 1.1920929E-07
vn -0 1 1.1920929E-07
vn -0 1 0
vn -0 1 -1.1920929E-07
vn -0 1 1.78813934E-07
vn -0 1 1.78813934E-07
vn -0 1 1.1920929E-07
vn -0 1 0
vn -0 1 0
vn -0 1 0
vn -0 1 0
vn -0 1 0
vn -0 1 -2.98023224E-07
vn -0 1 -2.98023224E-07
vn 0.972167969 0 0.23449707
vn 0.972167969 0 0.23449707
vn 0.258789062 0 0.965820312
vn 0.258789062 0 0.965820312
vn 0.724609375 0 -0.688964844
vn 0.724609375 0 -0.688964844
vn 0.972167969 0 0.23449707
vn 0.972167969 0 0.23449707
vn -0.724609375 0 0.688964844
vn -0.724609375 0 0.688964844
vn -0.972167969 0 -0.23449707
vn -0.972167969 0 -0.23449707
vn -0.972167969 0 -0.23449707
vn -0.972167969 0 -0.23449707
vn -0.258789062 0 -0.965820312
vn -0.258789062 0 -0.965820312
vn 0.724609375 0 -0.688964844
vn 0.724609375 0 -0.688964844
vn -0.258789062 0 -0.965820312
vn 0.724609375 0 -0.688964844
vn 0.724609375 0 -0.688964844
vn -0.258789062 0 -0.965820312
vn -0 1 -2.98023224E-07
vn -0 1 -1.1920929E-07
vn -0 1 0
vn -0 1 -2.98023224E-07
vn -0.724609375 0 0.688964844
vn 0.258789062 0 0.965820312
vn 0.258789062 0 0.965820312
vn -0.724609375 0 0.688964844
vn -0 1 1.1920929E-07
vn -0 1 0
vn -0 1 1.1920929E-07
vn -0 1 1.1920929E-07
vn 0.258789062 0 0.965820312
vn -0.724609375 0 0.688964844
vn -0.724609375 0 0.688964844
vn 0.258789062 0 0.965820312
g Cabin_Balcony_Leg_6_0
f 3/3/3 2/2/2 1/1/1
f 4/4/4 3/3/3 1/1/1
f 7/7/7 6/6/6 5/5/5
f 8/8/8 7/7/7 5/5/5
f 11/11/11 10/10/10 9/9/9
f 12/12/12 11/11/11 9/9/9
f 15/15/15 14/14/14 13/13/13
f 16/16/16 15/15/15 13/13/13
f 19/19/19 18/18/18 17/17/17
f 20/20/20 19/19/19 17/17/17
f 23/23/23 22/22/22 21/21/21
f 24/24/24 23/23/23 21/21/21
f 27/27/27 26/26/26 25/25/25
f 28/28/28 27/27/27 25/25/25
f 31/31/31 30/30/30 29/29/29
f 32/32/32 31/31/31 29/29/29
f 35/35/35 34/34/34 33/33/33
f 36/36/36 35/35/35 33/33/33
f 39/39/39 38/38/38 37/37/37
f 40/40/40 39/39/39 37/37/37
f 43/43/43 42/42/42 41/41/41
f 44/44/44 43/43/43 41/41/41
f 47/47/47 46/46/46 45/45/45
f 48/48/48 47/47/47 45/45/45
f 48/48/48 49/49/49 47/47/47
f 49/49/49 50/50/50 47/47/47
f 53/53/53 52/52/52 51/51/51
f 54/54/54 53/53/53 51/51/51
f 57/57/57 56/56/56 55/55/55
f 58/58/58 57/57/57 55/55/55
f 61/61/61 60/60/60 59/59/59
f 62/62/62 61/61/61 59/59/59
f 65/65/65 64/64/64 63/63/63
f 66/66/66 65/65/65 63/63/63
f 69/69/69 68/68/68 67/67/67
f 70/70/70 69/69/69 67/67/67
