g MaskRepairMachine_Gauge
v 0.0402359143 0.0297484491 0.0765250176
v 0.0370001383 0.0162940696 0.0775303096
v 0.0831862465 0.0133933397 0.0347865857
v 0.0869196877 0.0267094467 0.033765927
v 0.118688181 0.0111074969 -0.0305137821
v 0.121328868 0.0259248149 -0.0315973833
v 0.124428533 0.0178248212 -0.0946338624
v 0.125691816 0.0317218304 -0.0955966339
v 0.110291116 0.0183625035 -0.142443314
v 0.111340314 0.0299394131 -0.143242866
v 0.0810545906 0.0198645014 -0.1749724
v 0.0820350423 0.0307133757 -0.175719574
v 0.0820350423 0.0307133757 -0.175719574
v 0.0810545906 0.0198645014 -0.1749724
v 0.0370593816 0.0188905336 -0.201149121
v 0.0380363986 0.029692525 -0.201893702
v 0.00862371083 0.0223443508 -0.207700625
v 0.00966573413 0.0338653289 -0.208494738
v -0.0160903372 0.0226636305 -0.199590921
v -0.0149981901 0.0347384177 -0.200423211
v -0.0149981901 0.0347384177 -0.200423211
v -0.0160903372 0.0226636305 -0.199590921
v -0.0295458436 0.0226081852 -0.183238655
v -0.0284036454 0.0352363847 -0.184109092
v 0.0457824059 0.0287370197 0.0822006762
v 0.0896021053 0.0122530311 0.0395823866
v 0.0425467044 0.0152826207 0.0832060054
v 0.0933356285 0.0255781021 0.0385617614
v 0.126490459 0.010044164 -0.0283552539
v 0.129131138 0.0249460451 -0.029438857
v 0.132435426 0.0170360841 -0.0956145301
v 0.133698866 0.0309539884 -0.0965773016
v 0.133698866 0.0309539884 -0.0965773016
v 0.117358834 0.0176477525 -0.146499872
v 0.132435426 0.0170360841 -0.0956145301
v 0.118408032 0.029254999 -0.147299439
v 0.08611013 0.019110335 -0.181219459
v 0.0870905891 0.0299500264 -0.181966603
v 0.0400098935 0.0181646254 -0.208654299
v 0.0409869142 0.0289666168 -0.209398851
v 0.00819654111 0.0218132399 -0.215966284
v 0.00923856441 0.033334218 -0.216760382
v 0.00923856441 0.033334218 -0.216760382
v -0.0207958426 0.022615118 -0.206469327
v 0.00819654111 0.0218132399 -0.215966284
v -0.0197036956 0.0346899107 -0.207301646
v -0.0357216075 0.0228165518 -0.188319638
v -0.0345794111 0.0354447439 -0.18919012
v 0.0425467044 0.0152826207 0.0832060054
v 0.0831862465 0.0133933397 0.0347865857
v 0.0370001383 0.0162940696 0.0775303096
v 0.0896021053 0.0122530311 0.0395823866
v 0.118688181 0.0111074969 -0.0305137821
v 0.126490459 0.010044164 -0.0283552539
v 0.124428533 0.0178248212 -0.0946338624
v 0.132435426 0.0170360841 -0.0956145301
v 0.110291116 0.0183625035 -0.142443314
v 0.117358834 0.0176477525 -0.146499872
v 0.0810545906 0.0198645014 -0.1749724
v 0.08611013 0.019110335 -0.181219459
v 0.0370593816 0.0188905336 -0.201149121
v 0.0400098935 0.0181646254 -0.208654299
v 0.00862371083 0.0223443508 -0.207700625
v 0.00819654111 0.0218132399 -0.215966284
v -0.0160903372 0.0226636305 -0.199590921
v -0.0207958426 0.022615118 -0.206469327
v -0.0295458436 0.0226081852 -0.183238655
v -0.0357216075 0.0228165518 -0.188319638
v 0.0933356285 0.0255781021 0.0385617614
v 0.0457824059 0.0287370197 0.0822006762
v 0.0402359143 0.0297484491 0.0765250176
v 0.0869196877 0.0267094467 0.033765927
v 0.129131138 0.0249460451 -0.029438857
v 0.121328868 0.0259248149 -0.0315973833
v 0.133698866 0.0309539884 -0.0965773016
v 0.125691816 0.0317218304 -0.0955966339
v 0.118408032 0.029254999 -0.147299439
v 0.111340314 0.0299394131 -0.143242866
v 0.0870905891 0.0299500264 -0.181966603
v 0.0820350423 0.0307133757 -0.175719574
v 0.0409869142 0.0289666168 -0.209398851
v 0.0380363986 0.029692525 -0.201893702
v 0.00923856441 0.033334218 -0.216760382
v 0.00966573413 0.0338653289 -0.208494738
v -0.0197036956 0.0346899107 -0.207301646
v -0.0149981901 0.0347384177 -0.200423211
v -0.0345794111 0.0354447439 -0.18919012
v -0.0284036454 0.0352363847 -0.184109092
v 0.0167619865 0.0293794442 0.076450631
v 0.0135262078 0.0159858931 0.077455923
v 0.0502014682 0.0113334181 0.0409301557
v 0.0539349131 0.0245453026 0.0399094969
v 0.0857034102 0.00716471672 -0.0243701935
v 0.0883440971 0.0219362732 -0.0254537966
v 0.0914265215 0.0137669938 -0.0869950429
v 0.0926882699 0.0276632588 -0.0878523216
v 0.0770901218 0.0155995553 -0.125650972
v 0.0781384036 0.0271763988 -0.126341701
v 0.0781384036 0.0271763988 -0.126341701
v 0.0770901218 0.0155995553 -0.125650972
v 0.0475652069 0.0183081906 -0.148464158
v 0.0485472605 0.0291479006 -0.149211347
v 0.00325864507 0.0185376164 -0.169450343
v 0.00423589442 0.0293396078 -0.170194894
v -0.025238974 0.0223443508 -0.176001817
v -0.0241968744 0.0338653177 -0.176795959
v 0.02230848 0.0283711758 0.0821262896
v 0.0566173308 0.0102499342 0.0457259938
v 0.0190727785 0.0149896424 0.0831316188
v 0.0603508502 0.023474846 0.0447053313
v 0.093505688 0.00613377569 -0.0222116653
v 0.0961463749 0.0210000705 -0.0232952684
v 0.0994383022 0.0130023099 -0.0881909132
v 0.100700818 0.0269137472 -0.0890771076
v 0.100700818 0.0269137472 -0.0890771076
v 0.0841822624 0.0149154663 -0.130278096
v 0.0994383022 0.0130023099 -0.0881909132
v 0.0852325261 0.0265153497 -0.131062925
v 0.0526430272 0.0175121594 -0.15504913
v 0.0536237843 0.0283518787 -0.155796319
v 0.00621915516 0.0177534204 -0.176955521
v 0.0071961754 0.0285554212 -0.177700073
v -0.025665991 0.0218132306 -0.184267461
v -0.0246238913 0.0333341882 -0.185061604
v 0.0190727785 0.0149896424 0.0831316188
v 0.0502014682 0.0113334181 0.0409301557
v 0.0135262078 0.0159858931 0.077455923
v 0.0566173308 0.0102499342 0.0457259938
v 0.0857034102 0.00716471672 -0.0243701935
v 0.093505688 0.00613377569 -0.0222116653
v 0.0914265215 0.0137669938 -0.0869950429
v 0.0994383022 0.0130023099 -0.0881909132
v 0.0770901218 0.0155995553 -0.125650972
v 0.0841822624 0.0149154663 -0.130278096
v 0.0475652069 0.0183081906 -0.148464158
v 0.0526430272 0.0175121594 -0.15504913
v 0.00325864507 0.0185376164 -0.169450343
v 0.00621915516 0.0177534204 -0.176955521
v -0.025238974 0.0223443508 -0.176001817
v -0.025665991 0.0218132306 -0.184267461
v 0.0603508502 0.023474846 0.0447053313
v 0.02230848 0.0283711758 0.0821262896
v 0.0167619865 0.0293794442 0.076450631
v 0.0539349131 0.0245453026 0.0399094969
v 0.0961463749 0.0210000705 -0.0232952684
v 0.0883440971 0.0219362732 -0.0254537966
v 0.100700818 0.0269137472 -0.0890771076
v 0.0926882699 0.0276632588 -0.0878523216
v 0.0852325261 0.0265153497 -0.131062925
v 0.0781384036 0.0271763988 -0.126341701
v 0.0536237843 0.0283518787 -0.155796319
v 0.0485472605 0.0291479006 -0.149211347
v 0.0071961754 0.0285554212 -0.177700073
v 0.00423589442 0.0293396078 -0.170194894
v -0.0246238913 0.0333341882 -0.185061604
v -0.0241968744 0.0338653177 -0.176795959
v -0.110034078 0.0286706816 0.207877323
v -0.110034078 0.260798573 0.146087244
v 0.0616191998 0.260798573 0.146087244
v 0.0616191998 0.0286706816 0.207877323
v -0.113034077 0.0270577893 0.213480741
v -0.110034078 0.0286706816 0.207877323
v 0.0616191998 0.0286706816 0.207877323
v 0.064619191 0.0270577893 0.213480741
v 0.064619191 0.0270577893 0.213480741
v 0.0616191998 0.0286706816 0.207877323
v 0.0616191998 0.260798573 0.146087244
v 0.064619191 0.264983803 0.150147229
v 0.064619191 0.264983803 0.150147229
v 0.0616191998 0.260798573 0.146087244
v -0.110034078 0.260798573 0.146087244
v -0.113034077 0.264983803 0.150147229
v -0.113034077 0.264983803 0.150147229
v -0.110034078 0.260798573 0.146087244
v -0.110034078 0.0286706816 0.207877323
v -0.113034077 0.0270577893 0.213480741
v -0.141034067 0.2920416 0.142944694
v -0.141034067 0.2920416 0.117046259
v 0.0926191881 0.2920416 0.117046259
v 0.0926191881 0.2920416 0.142944694
v -0.141034067 0 0.0980093181
v -0.141034067 0 0.220683262
v 0.0926191881 0 0.220683262
v 0.0926191881 0 0.0980093181
v -0.0617032833 0 0.0622458048
v 0.0132884001 0 0.0622458048
v 0.0926191881 0 0.220683262
v 0.0926191881 0.2920416 0.142944694
v 0.0926191881 0.2920416 0.117046259
v 0.0926191881 0 0.0980093181
v -0.141034067 0 0.0980093181
v -0.141034067 0.2920416 0.117046259
v -0.141034067 0.2920416 0.142944694
v -0.141034067 0 0.220683262
v -0.0617032833 0.112243086 0.0622458048
v -0.0617032833 0 0.0622458048
v 0.0132884001 0 0.0622458048
v 0.0132884001 0.112243086 0.0622458048
v -0.141034067 0.2920416 0.117046259
v -0.0617032833 0.112243086 0.0622458048
v 0.0132884001 0.112243086 0.0622458048
v 0.0926191881 0.2920416 0.117046259
v 0.0926191881 0.2920416 0.117046259
v 0.0132884001 0.112243086 0.0622458048
v 0.0132884001 0 0.0622458048
v 0.0926191881 0 0.0980093181
v -0.141034067 0 0.0980093181
v -0.0617032833 0 0.0622458048
v -0.0617032833 0.112243086 0.0622458048
v -0.141034067 0.2920416 0.117046259
v 0.0926191881 0.2920416 0.142944694
v 0.064619191 0.264983803 0.150147229
v -0.113034077 0.264983803 0.150147229
v 0.0926191881 0 0.220683262
v -0.141034067 0.2920416 0.142944694
v 0.064619191 0.0270577893 0.213480741
v -0.113034077 0.0270577893 0.213480741
v -0.141034067 0 0.220683262
vt 0.584472656 0.986328125
vt 0.584960938 0.982421875
vt 0.56640625 0.982421875
vt 0.565429688 0.986328125
vt 0.544433594 0.981933594
vt 0.543457031 0.986328125
vt 0.524902344 0.982421875
vt 0.523925781 0.986328125
vt 0.509277344 0.982910156
vt 0.509277344 0.986328125
vt 0.49609375 0.983398438
vt 0.49609375 0.986328125
vt 0.49609375 0.986328125
vt 0.49609375 0.983398438
vt 0.480712891 0.983398438
vt 0.480712891 0.986328125
vt 0.471679688 0.983398438
vt 0.471679688 0.986328125
vt 0.463623047 0.982910156
vt 0.463867188 0.986328125
vt 0.463867188 0.986328125
vt 0.463623047 0.982910156
vt 0.457275391 0.982421875
vt 0.457275391 0.986328125
vt 0.584472656 0.98828125
vt 0.56640625 0.9921875
vt 0.584960938 0.9921875
vt 0.565429688 0.98828125
vt 0.544433594 0.992675781
vt 0.543457031 0.98828125
vt 0.524902344 0.9921875
vt 0.523925781 0.98828125
vt 0.523925781 0.98828125
vt 0.509277344 0.991699219
vt 0.524902344 0.9921875
vt 0.509277344 0.988769531
vt 0.49609375 0.991699219
vt 0.49609375 0.988769531
vt 0.480712891 0.991699219
vt 0.480712891 0.988769531
vt 0.471679688 0.991699219
vt 0.471679688 0.988769531
vt 0.471679688 0.988769531
vt 0.463378906 0.991699219
vt 0.471679688 0.991699219
vt 0.463623047 0.988769531
vt 0.45703125 0.9921875
vt 0.45703125 0.98828125
vt 0.584960938 0.9921875
vt 0.56640625 0.994628906
vt 0.584960938 0.994628906
vt 0.56640625 0.9921875
vt 0.544433594 0.994628906
vt 0.544433594 0.992675781
vt 0.524902344 0.994628906
vt 0.524902344 0.9921875
vt 0.509277344 0.994140625
vt 0.509277344 0.991699219
vt 0.49609375 0.993652344
vt 0.49609375 0.991699219
vt 0.480712891 0.994140625
vt 0.480712891 0.991699219
vt 0.471679688 0.994140625
vt 0.471679688 0.991699219
vt 0.463623047 0.994140625
vt 0.463378906 0.991699219
vt 0.457275391 0.994628906
vt 0.45703125 0.9921875
vt 0.565429688 0.98828125
vt 0.584472656 0.98828125
vt 0.584472656 0.986328125
vt 0.565429688 0.986328125
vt 0.543457031 0.98828125
vt 0.543457031 0.986328125
vt 0.523925781 0.98828125
vt 0.523925781 0.986328125
vt 0.509277344 0.988769531
vt 0.509277344 0.986328125
vt 0.49609375 0.988769531
vt 0.49609375 0.986328125
vt 0.480712891 0.988769531
vt 0.480712891 0.986328125
vt 0.471679688 0.988769531
vt 0.471679688 0.986328125
vt 0.463623047 0.988769531
vt 0.463867188 0.986328125
vt 0.45703125 0.98828125
vt 0.457275391 0.986328125
vt 0.573730469 0.986328125
vt 0.574707031 0.982421875
vt 0.559082031 0.982421875
vt 0.558105469 0.986328125
vt 0.536621094 0.981933594
vt 0.535644531 0.986328125
vt 0.517089844 0.982421875
vt 0.516113281 0.986328125
vt 0.50390625 0.982910156
vt 0.503417969 0.986328125
vt 0.503417969 0.986328125
vt 0.50390625 0.982910156
vt 0.4921875 0.983398438
vt 0.4921875 0.986328125
vt 0.477294922 0.983398438
vt 0.477294922 0.986328125
vt 0.468505859 0.982910156
vt 0.468261719 0.986328125
vt 0.573730469 0.988769531
vt 0.559082031 0.9921875
vt 0.574707031 0.992675781
vt 0.558105469 0.988769531
vt 0.536132812 0.992675781
vt 0.535644531 0.98828125
vt 0.517089844 0.9921875
vt 0.516113281 0.98828125
vt 0.516113281 0.98828125
vt 0.50390625 0.991699219
vt 0.517089844 0.9921875
vt 0.50390625 0.988769531
vt 0.492431641 0.991699219
vt 0.492431641 0.988769531
vt 0.477294922 0.991699219
vt 0.477294922 0.988769531
vt 0.467529297 0.991699219
vt 0.467529297 0.98828125
vt 0.574707031 0.992675781
vt 0.55859375 0.994628906
vt 0.57421875 0.994628906
vt 0.559082031 0.9921875
vt 0.536132812 0.994628906
vt 0.536132812 0.992675781
vt 0.517089844 0.994628906
vt 0.517089844 0.9921875
vt 0.50390625 0.994140625
vt 0.50390625 0.991699219
vt 0.4921875 0.994140625
vt 0.492431641 0.991699219
vt 0.477294922 0.994140625
vt 0.477294922 0.991699219
vt 0.468261719 0.994140625
vt 0.467529297 0.991699219
vt 0.558105469 0.988769531
vt 0.573730469 0.988769531
vt 0.573730469 0.986328125
vt 0.558105469 0.986328125
vt 0.535644531 0.98828125
vt 0.535644531 0.986328125
vt 0.516113281 0.98828125
vt 0.516113281 0.986328125
vt 0.50390625 0.988769531
vt 0.503417969 0.986328125
vt 0.492431641 0.988769531
vt 0.4921875 0.986328125
vt 0.477294922 0.988769531
vt 0.477294922 0.986328125
vt 0.467529297 0.98828125
vt 0.468261719 0.986328125
vt 0.0141677856 0.908203125
vt 0.0141677856 0.985351562
vt 0.0694580078 0.985351562
vt 0.0694580078 0.908203125
vt 0.0127410889 0.906738281
vt 0.0141677856 0.908203125
vt 0.0694580078 0.908203125
vt 0.0708618164 0.906738281
vt 0.0708618164 0.906738281
vt 0.0694580078 0.908203125
vt 0.0694580078 0.985351562
vt 0.0708618164 0.986816406
vt 0.0708618164 0.986816406
vt 0.0694580078 0.985351562
vt 0.0141677856 0.985351562
vt 0.0127410889 0.986816406
vt 0.0127410889 0.986816406
vt 0.0141677856 0.985351562
vt 0.0141677856 0.908203125
vt 0.0127410889 0.906738281
vt 0.0887451172 0.894042969
vt 0.0887451172 0.901855469
vt 0.159301758 0.901855469
vt 0.159301758 0.894042969
vt 0.0887451172 0.955078125
vt 0.0887451172 0.9921875
vt 0.159301758 0.9921875
vt 0.159301758 0.955078125
vt 0.112670898 0.944335938
vt 0.135375977 0.944335938
vt 0.0887451172 0.901855469
vt 0.105041504 0.991699219
vt 0.112792969 0.992675781
vt 0.125610352 0.905273438
vt 0.118103027 0.903320312
vt 0.12121582 0.991699219
vt 0.12902832 0.9921875
vt 0.155151367 0.904785156
vt 0.112670898 0.958496094
vt 0.112670898 0.9921875
vt 0.135375977 0.9921875
vt 0.135375977 0.958496094
vt 0.0887451172 0.901855469
vt 0.112670898 0.958496094
vt 0.135375977 0.958496094
vt 0.159301758 0.901855469
vt 0.16418457 0.903808594
vt 0.135375977 0.958496094
vt 0.135375977 0.9921875
vt 0.161621094 0.9921875
vt 0.0864257812 0.9921875
vt 0.112670898 0.9921875
vt 0.112670898 0.958496094
vt 0.0838623047 0.903808594
vt 0.0798950195 0.995605469
vt 0.0708618164 0.986816406
vt 0.0127410889 0.986816406
vt 0.0798950195 0.897460938
vt 0.00372695923 0.995605469
vt 0.0708618164 0.906738281
vt 0.0127410889 0.906738281
vt 0.00372695923 0.897460938
vn -0.538574219 0.564453125 -0.625
vn -0.624023438 -0.438232422 -0.646972656
vn -0.7265625 -0.420898438 -0.543457031
vn -0.603027344 0.657226562 -0.452148438
vn -0.852050781 -0.430419922 -0.297607422
vn -0.727050781 0.662109375 -0.181518555
vn -0.897460938 -0.440673828 0.0250396729
vn -0.73828125 0.668457031 0.0870361328
vn -0.756347656 -0.533691406 0.378173828
vn -0.634277344 0.701171875 0.325439453
vn -0.528320312 -0.541503906 0.653808594
vn -0.439941406 0.717285156 0.540527344
vn -0.439941406 0.717285156 0.540527344
vn -0.528320312 -0.541503906 0.653808594
vn -0.349853516 -0.578125 0.737304688
vn -0.267089844 0.701660156 0.660644531
vn -0.0126419067 -0.607910156 0.793945312
vn 0.0927734375 0.724121094 0.68359375
vn 0.415527344 -0.650878906 0.635253906
vn 0.419921875 0.665039062 0.6171875
vn 0.419921875 0.665039062 0.6171875
vn 0.415527344 -0.650878906 0.635253906
vn 0.611328125 -0.609375 0.505371094
vn 0.667480469 0.5234375 0.529296875
vn 0.645019531 0.361328125 0.673339844
vn 0.633300781 -0.575195312 0.517578125
vn 0.492431641 -0.649902344 0.579101562
vn 0.776855469 0.314941406 0.544921875
vn 0.786621094 -0.568847656 0.240844727
vn 0.915039062 0.295898438 0.273681641
vn 0.839355469 -0.536621094 -0.0845947266
vn 0.925292969 0.373046875 -0.0664672852
vn 0.925292969 0.373046875 -0.0664672852
vn 0.721191406 -0.575683594 -0.385009766
vn 0.839355469 -0.536621094 -0.0845947266
vn 0.810546875 0.393554688 -0.43359375
vn 0.491943359 -0.615234375 -0.615722656
vn 0.558105469 0.460205078 -0.690917969
vn 0.295898438 -0.629394531 -0.71875
vn 0.381103516 0.434814453 -0.815917969
vn -0.078918457 -0.524902344 -0.84765625
vn 0.00518417358 0.447753906 -0.894042969
vn 0.00518417358 0.447753906 -0.894042969
vn -0.493164062 -0.475830078 -0.728027344
vn -0.078918457 -0.524902344 -0.84765625
vn -0.453369141 0.45703125 -0.765136719
vn -0.655273438 -0.53125 -0.536621094
vn -0.6484375 0.523925781 -0.551757812
vn 0.492431641 -0.649902344 0.579101562
vn -0.7265625 -0.420898438 -0.543457031
vn -0.624023438 -0.438232422 -0.646972656
vn 0.633300781 -0.575195312 0.517578125
vn -0.852050781 -0.430419922 -0.297607422
vn 0.786621094 -0.568847656 0.240844727
vn -0.897460938 -0.440673828 0.0250396729
vn 0.839355469 -0.536621094 -0.0845947266
vn -0.756347656 -0.533691406 0.378173828
vn 0.721191406 -0.575683594 -0.385009766
vn -0.528320312 -0.541503906 0.653808594
vn 0.491943359 -0.615234375 -0.615722656
vn -0.349853516 -0.578125 0.737304688
vn 0.295898438 -0.629394531 -0.71875
vn -0.0126419067 -0.607910156 0.793945312
vn -0.078918457 -0.524902344 -0.84765625
vn 0.415527344 -0.650878906 0.635253906
vn -0.493164062 -0.475830078 -0.728027344
vn 0.611328125 -0.609375 0.505371094
vn -0.655273438 -0.53125 -0.536621094
vn 0.776855469 0.314941406 0.544921875
vn 0.645019531 0.361328125 0.673339844
vn -0.538574219 0.564453125 -0.625
vn -0.603027344 0.657226562 -0.452148438
vn 0.915039062 0.295898438 0.273681641
vn -0.727050781 0.662109375 -0.181518555
vn 0.925292969 0.373046875 -0.0664672852
vn -0.73828125 0.668457031 0.0870361328
vn 0.810546875 0.393554688 -0.43359375
vn -0.634277344 0.701171875 0.325439453
vn 0.558105469 0.460205078 -0.690917969
vn -0.439941406 0.717285156 0.540527344
vn 0.381103516 0.434814453 -0.815917969
vn -0.267089844 0.701660156 0.660644531
vn 0.00518417358 0.447753906 -0.894042969
vn 0.0927734375 0.724121094 0.68359375
vn -0.453369141 0.45703125 -0.765136719
vn 0.419921875 0.665039062 0.6171875
vn -0.6484375 0.523925781 -0.551757812
vn 0.667480469 0.5234375 0.529296875
vn -0.531738281 0.583984375 -0.613769531
vn -0.662109375 -0.428955078 -0.614257812
vn -0.753417969 -0.41796875 -0.507324219
vn -0.608398438 0.6484375 -0.458007812
vn -0.8515625 -0.435058594 -0.29296875
vn -0.725585938 0.66015625 -0.194702148
vn -0.890136719 -0.454833984 0.0222015381
vn -0.725097656 0.681152344 0.103942871
vn -0.699707031 -0.565917969 0.435546875
vn -0.557617188 0.725097656 0.403808594
vn -0.557617188 0.725097656 0.403808594
vn -0.699707031 -0.565917969 0.435546875
vn -0.442626953 -0.544433594 0.712402344
vn -0.344970703 0.71484375 0.607910156
vn -0.318115234 -0.565429688 0.761230469
vn -0.215087891 0.689941406 0.69140625
vn -0.253417969 -0.574707031 0.778320312
vn -0.0427856445 0.736328125 0.675292969
vn 0.6796875 0.358398438 0.639648438
vn 0.634765625 -0.583496094 0.505859375
vn 0.502929688 -0.632324219 0.588867188
vn 0.796386719 0.308837891 0.51953125
vn 0.782226562 -0.570800781 0.249023438
vn 0.916015625 0.292480469 0.273925781
vn 0.840820312 -0.532226562 -0.0971679688
vn 0.928710938 0.364501953 -0.0711669922
vn 0.928710938 0.364501953 -0.0711669922
vn 0.669433594 -0.569824219 -0.476806641
vn 0.840820312 -0.532226562 -0.0971679688
vn 0.762695312 0.392822266 -0.514160156
vn 0.384765625 -0.623046875 -0.681152344
vn 0.463134766 0.478027344 -0.74609375
vn 0.236328125 -0.643066406 -0.728515625
vn 0.334228516 0.455566406 -0.825195312
vn 0.118591309 -0.548339844 -0.827636719
vn 0.266113281 0.424804688 -0.865234375
vn 0.502929688 -0.632324219 0.588867188
vn -0.753417969 -0.41796875 -0.507324219
vn -0.662109375 -0.428955078 -0.614257812
vn 0.634765625 -0.583496094 0.505859375
vn -0.8515625 -0.435058594 -0.29296875
vn 0.782226562 -0.570800781 0.249023438
vn -0.890136719 -0.454833984 0.0222015381
vn 0.840820312 -0.532226562 -0.0971679688
vn -0.699707031 -0.565917969 0.435546875
vn 0.669433594 -0.569824219 -0.476806641
vn -0.442626953 -0.544433594 0.712402344
vn 0.384765625 -0.623046875 -0.681152344
vn -0.318115234 -0.565429688 0.761230469
vn 0.236328125 -0.643066406 -0.728515625
vn -0.253417969 -0.574707031 0.778320312
vn 0.118591309 -0.548339844 -0.827636719
vn 0.796386719 0.308837891 0.51953125
vn 0.6796875 0.358398438 0.639648438
vn -0.531738281 0.583984375 -0.613769531
vn -0.608398438 0.6484375 -0.458007812
vn 0.916015625 0.292480469 0.273925781
vn -0.725585938 0.66015625 -0.194702148
vn 0.928710938 0.364501953 -0.0711669922
vn -0.725097656 0.681152344 0.103942871
vn 0.762695312 0.392822266 -0.514160156
vn -0.557617188 0.725097656 0.403808594
vn 0.463134766 0.478027344 -0.74609375
vn -0.344970703 0.71484375 0.607910156
vn 0.334228516 0.455566406 -0.825195312
vn -0.215087891 0.689941406 0.69140625
vn 0.266113281 0.424804688 -0.865234375
vn -0.0427856445 0.736328125 0.675292969
vn -0 0.257324219 0.966308594
vn -0 0.257324219 0.966308594
vn -0 0.257324219 0.966308594
vn -0 0.257324219 0.966308594
vn -0 0.9609375 0.276611328
vn -0 0.9609375 0.276611328
vn -0 0.9609375 0.276611328
vn -0 0.9609375 0.276611328
vn -0.857421875 0.132324219 0.497070312
vn -0.857421875 0.132324219 0.497070312
vn -0.857421875 0.132324219 0.497070312
vn -0.857421875 0.132324219 0.497070312
vn -0 -0.696289062 0.717773438
vn -0 -0.696289062 0.717773438
vn -0 -0.696289062 0.717773438
vn -0 -0.696289062 0.717773438
vn 0.857421875 0.132324219 0.497070312
vn 0.857421875 0.132324219 0.497070312
vn 0.857421875 0.132324219 0.497070312
vn 0.857421875 0.132324219 0.497070312
vn -0 1 0
vn -0 1 0
vn -0 1 0
vn -0 1 0
vn -0 -1 0
vn -0 -1 0
vn -0 -1 0
vn -0 -1 0
vn -0 -1 0
vn -0 -1 0
vn 1 0 0
vn 1 0 0
vn 1 0 0
vn 1 0 0
vn -1 0 0
vn -1 0 0
vn -1 0 0
vn -1 0 0
vn -0 0 -1
vn -0 0 -1
vn -0 0 -1
vn -0 0 -1
vn -0 0.291503906 -0.956542969
vn -0 0.291503906 -0.956542969
vn -0 0.291503906 -0.956542969
vn -0 0.291503906 -0.956542969
vn 0.459228516 0.0417785645 -0.887207031
vn 0.459228516 0.0417785645 -0.887207031
vn 0.459228516 0.0417785645 -0.887207031
vn 0.459228516 0.0417785645 -0.887207031
vn -0.459228516 0.0417785645 -0.887207031
vn -0.459228516 0.0417785645 -0.887207031
vn -0.459228516 0.0417785645 -0.887207031
vn -0.459228516 0.0417785645 -0.887207031
vn 2.38418579E-07 0.257324219 0.966308594
vn 2.38418579E-07 0.257324219 0.966308594
vn -2.38418579E-07 0.257324219 0.966308594
vn 2.38418579E-07 0.257324219 0.966308594
vn -2.38418579E-07 0.257324219 0.966308594
vn 2.38418579E-07 0.257324219 0.966308594
vn -2.38418579E-07 0.257324219 0.966308594
vn -2.38418579E-07 0.257324219 0.966308594
g MaskRepairMachine_Gauge_0
f 3/3/3 2/2/2 1/1/1
f 4/4/4 3/3/3 1/1/1
f 5/5/5 3/3/3 4/4/4
f 6/6/6 5/5/5 4/4/4
f 7/7/7 5/5/5 6/6/6
f 8/8/8 7/7/7 6/6/6
f 9/9/9 7/7/7 8/8/8
f 10/10/10 9/9/9 8/8/8
f 11/11/11 9/9/9 10/10/10
f 12/12/12 11/11/11 10/10/10
f 15/15/15 14/14/14 13/13/13
f 16/16/16 15/15/15 13/13/13
f 17/17/17 15/15/15 16/16/16
f 18/18/18 17/17/17 16/16/16
f 19/19/19 17/17/17 18/18/18
f 20/20/20 19/19/19 18/18/18
f 23/23/23 22/22/22 21/21/21
f 24/24/24 23/23/23 21/21/21
f 27/27/27 26/26/26 25/25/25
f 26/26/26 28/28/28 25/25/25
f 26/26/26 29/29/29 28/28/28
f 29/29/29 30/30/30 28/28/28
f 29/29/29 31/31/31 30/30/30
f 31/31/31 32/32/32 30/30/30
f 35/35/35 34/34/34 33/33/33
f 34/34/34 36/36/36 33/33/33
f 34/34/34 37/37/37 36/36/36
f 37/37/37 38/38/38 36/36/36
f 37/37/37 39/39/39 38/38/38
f 39/39/39 40/40/40 38/38/38
f 39/39/39 41/41/41 40/40/40
f 41/41/41 42/42/42 40/40/40
f 45/45/45 44/44/44 43/43/43
f 44/44/44 46/46/46 43/43/43
f 44/44/44 47/47/47 46/46/46
f 47/47/47 48/48/48 46/46/46
f 51/51/51 50/50/50 49/49/49
f 50/50/50 52/52/52 49/49/49
f 50/50/50 53/53/53 52/52/52
f 53/53/53 54/54/54 52/52/52
f 53/53/53 55/55/55 54/54/54
f 55/55/55 56/56/56 54/54/54
f 55/55/55 57/57/57 56/56/56
f 57/57/57 58/58/58 56/56/56
f 57/57/57 59/59/59 58/58/58
f 59/59/59 60/60/60 58/58/58
f 59/59/59 61/61/61 60/60/60
f 61/61/61 62/62/62 60/60/60
f 61/61/61 63/63/63 62/62/62
f 63/63/63 64/64/64 62/62/62
f 63/63/63 65/65/65 64/64/64
f 65/65/65 66/66/66 64/64/64
f 65/65/65 67/67/67 66/66/66
f 67/67/67 68/68/68 66/66/66
f 71/71/71 70/70/70 69/69/69
f 72/72/72 71/71/71 69/69/69
f 72/72/72 69/69/69 73/73/73
f 74/74/74 72/72/72 73/73/73
f 74/74/74 73/73/73 75/75/75
f 76/76/76 74/74/74 75/75/75
f 76/76/76 75/75/75 77/77/77
f 78/78/78 76/76/76 77/77/77
f 78/78/78 77/77/77 79/79/79
f 80/80/80 78/78/78 79/79/79
f 80/80/80 79/79/79 81/81/81
f 82/82/82 80/80/80 81/81/81
f 82/82/82 81/81/81 83/83/83
f 84/84/84 82/82/82 83/83/83
f 84/84/84 83/83/83 85/85/85
f 86/86/86 84/84/84 85/85/85
f 86/86/86 85/85/85 87/87/87
f 88/88/88 86/86/86 87/87/87
f 91/91/91 90/90/90 89/89/89
f 92/92/92 91/91/91 89/89/89
f 93/93/93 91/91/91 92/92/92
f 94/94/94 93/93/93 92/92/92
f 95/95/95 93/93/93 94/94/94
f 96/96/96 95/95/95 94/94/94
f 97/97/97 95/95/95 96/96/96
f 98/98/98 97/97/97 96/96/96
f 101/101/101 100/100/100 99/99/99
f 102/102/102 101/101/101 99/99/99
f 103/103/103 101/101/101 102/102/102
f 104/104/104 103/103/103 102/102/102
f 105/105/105 103/103/103 104/104/104
f 106/106/106 105/105/105 104/104/104
f 109/109/109 108/108/108 107/107/107
f 108/108/108 110/110/110 107/107/107
f 108/108/108 111/111/111 110/110/110
f 111/111/111 112/112/112 110/110/110
f 111/111/111 113/113/113 112/112/112
f 113/113/113 114/114/114 112/112/112
f 117/117/117 116/116/116 115/115/115
f 116/116/116 118/118/118 115/115/115
f 116/116/116 119/119/119 118/118/118
f 119/119/119 120/120/120 118/118/118
f 119/119/119 121/121/121 120/120/120
f 121/121/121 122/122/122 120/120/120
f 121/121/121 123/123/123 122/122/122
f 123/123/123 124/124/124 122/122/122
f 127/127/127 126/126/126 125/125/125
f 126/126/126 128/128/128 125/125/125
f 126/126/126 129/129/129 128/128/128
f 129/129/129 130/130/130 128/128/128
f 129/129/129 131/131/131 130/130/130
f 131/131/131 132/132/132 130/130/130
f 131/131/131 133/133/133 132/132/132
f 133/133/133 134/134/134 132/132/132
f 133/133/133 135/135/135 134/134/134
f 135/135/135 136/136/136 134/134/134
f 135/135/135 137/137/137 136/136/136
f 137/137/137 138/138/138 136/136/136
f 137/137/137 139/139/139 138/138/138
f 139/139/139 140/140/140 138/138/138
f 143/143/143 142/142/142 141/141/141
f 144/144/144 143/143/143 141/141/141
f 144/144/144 141/141/141 145/145/145
f 146/146/146 144/144/144 145/145/145
f 146/146/146 145/145/145 147/147/147
f 148/148/148 146/146/146 147/147/147
f 148/148/148 147/147/147 149/149/149
f 150/150/150 148/148/148 149/149/149
f 150/150/150 149/149/149 151/151/151
f 152/152/152 150/150/150 151/151/151
f 152/152/152 151/151/151 153/153/153
f 154/154/154 152/152/152 153/153/153
f 154/154/154 153/153/153 155/155/155
f 156/156/156 154/154/154 155/155/155
f 159/159/159 158/158/158 157/157/157
f 160/160/160 159/159/159 157/157/157
f 163/163/163 162/162/162 161/161/161
f 164/164/164 163/163/163 161/161/161
f 167/167/167 166/166/166 165/165/165
f 168/168/168 167/167/167 165/165/165
f 171/171/171 170/170/170 169/169/169
f 172/172/172 171/171/171 169/169/169
f 175/175/175 174/174/174 173/173/173
f 176/176/176 175/175/175 173/173/173
f 179/179/179 178/178/178 177/177/177
f 180/180/180 179/179/179 177/177/177
f 183/183/183 182/182/182 181/181/181
f 184/184/184 183/183/183 181/181/181
f 181/181/181 185/185/185 184/184/184
f 185/185/185 186/186/186 184/184/184
f 189/189/189 188/188/188 187/187/187
f 190/190/190 189/189/189 187/187/187
f 193/193/193 192/192/192 191/191/191
f 194/194/194 193/193/193 191/191/191
f 197/197/197 196/196/196 195/195/195
f 198/198/198 197/197/197 195/195/195
f 201/201/201 200/200/200 199/199/199
f 202/202/202 201/201/201 199/199/199
f 205/205/205 204/204/204 203/203/203
f 206/206/206 205/205/205 203/203/203
f 209/209/209 208/208/208 207/207/207
f 210/210/210 209/209/209 207/207/207
f 213/213/213 212/212/212 211/211/211
f 211/211/211 212/212/212 214/214/214
f 215/215/215 213/213/213 211/211/211
f 212/212/212 216/216/216 214/214/214
f 217/217/217 213/213/213 215/215/215
f 214/214/214 216/216/216 218/218/218
f 218/218/218 217/217/217 215/215/215
f 216/216/216 217/217/217 218/218/218
