g Cabin_Pole_2
v -50.2237434 2.21700311 -52.4539795
v -50.1615715 0.698118508 -52.4409256
v -50.2237434 0.698118508 -52.4539795
v -50.1615715 2.21700287 -52.4409256
v -50.1142502 2.21700287 -52.4833221
v -50.1142502 0.698118508 -52.4833221
v -50.1337738 2.21700287 -52.5561714
v -50.1959572 2.21700287 -52.5692291
v -50.1959572 0.698118508 -52.5692291
v -50.1337738 0.698118508 -52.5561714
v -50.1142502 2.21700287 -52.4833221
v -50.1337738 2.21700287 -52.5561714
v -50.1337738 0.698118508 -52.5561714
v -50.1142502 0.698118508 -52.4833221
v -50.2432747 0.698118508 -52.526825
v -50.2432747 2.21700311 -52.526825
v -50.2237434 2.21700311 -52.4539795
v -50.2237434 0.698118508 -52.4539795
v -50.1337738 0.698118508 -52.5561714
v -50.1959572 0.698118508 -52.5692291
v -50.2063751 0.698118508 -52.6081047
v -50.1065216 0.698118508 -52.5871277
v -50.1142502 0.698118508 -52.4833221
v -50.1337738 0.698118508 -52.5561714
v -50.1065216 0.698118508 -52.5871277
v -50.0751648 0.698118508 -52.4701462
v -50.2432747 0.698118508 -52.526825
v -50.2237434 0.698118508 -52.4539795
v -50.2510033 0.698118508 -52.423027
v -50.2823563 0.698118508 -52.5400085
v -50.2237434 0.698118508 -52.4539795
v -50.1615715 0.698118508 -52.4409256
v -50.1511497 0.698118508 -52.4020538
v -50.2510033 0.698118508 -52.423027
v -50.1065216 0.698118508 -52.5871277
v -50.2063751 0.698118508 -52.6081047
v -50.2063751 0.656218231 -52.6081047
v -50.1065216 0.656218231 -52.5871277
v -50.0751648 0.698118508 -52.4701462
v -50.1065216 0.698118508 -52.5871277
v -50.1065216 0.656218231 -52.5871277
v -50.0751648 0.656218231 -52.4701462
v -50.2823563 0.698118508 -52.5400085
v -50.2510033 0.698118508 -52.423027
v -50.2510033 0.656218231 -52.423027
v -50.2823563 0.656218231 -52.5400085
v -50.2510033 0.698118508 -52.423027
v -50.1511497 0.656218231 -52.4020538
v -50.2510033 0.656218231 -52.423027
v -50.1511497 0.698118508 -52.4020538
v -50.0751648 0.698118508 -52.4701462
v -50.0751648 0.656218231 -52.4701462
v -50.1511497 0.698118508 -52.4020538
v -50.1615715 0.698118508 -52.4409256
v -50.1142502 0.698118508 -52.4833221
v -50.0751648 0.698118508 -52.4701462
v -50.1959572 2.21700287 -52.5692291
v -50.2432747 2.21700311 -52.526825
v -50.2432747 0.698118508 -52.526825
v -50.1959572 0.698118508 -52.5692291
v -50.2063751 0.698118508 -52.6081047
v -50.1959572 0.698118508 -52.5692291
v -50.2432747 0.698118508 -52.526825
v -50.2823563 0.698118508 -52.5400085
v -50.2063751 0.656218231 -52.6081047
v -50.2063751 0.698118508 -52.6081047
v -50.2823563 0.698118508 -52.5400085
v -50.2823563 0.656218231 -52.5400085
v -50.2237434 2.21700311 -52.4539795
v -50.2432747 2.21700311 -52.526825
v -50.2432747 3.4708364 -52.526825
v -50.2237434 3.4708364 -52.4539795
v -50.2237434 3.4708364 -52.4539795
v -50.1615715 2.21700287 -52.4409256
v -50.2237434 2.21700311 -52.4539795
v -50.1615715 3.42918205 -52.4409256
v -50.1142502 2.21700287 -52.4833221
v -50.1142502 3.3875277 -52.4833221
v -50.1337738 3.3875277 -52.5561714
v -50.1337738 2.21700287 -52.5561714
v -50.1142502 2.21700287 -52.4833221
v -50.1142502 3.3875277 -52.4833221
v -50.1959572 3.42918205 -52.5692291
v -50.1959572 2.21700287 -52.5692291
v -50.1337738 2.21700287 -52.5561714
v -50.1337738 3.3875277 -52.5561714
v -50.2432747 3.4708364 -52.526825
v -50.2432747 2.21700311 -52.526825
v -50.1959572 2.21700287 -52.5692291
v -50.1959572 3.42918205 -52.5692291
vt 0.336425781 0.341064453
vt 0.494628906 0.333740234
vt 0.494628906 0.341064453
vt 0.336425781 0.333740234
vt 0.336425781 0.326416016
vt 0.494628906 0.326416016
vt 0.336425781 0.317871094
vt 0.336425781 0.310546875
vt 0.494628906 0.310546875
vt 0.494628906 0.317871094
vt 0.336425781 0.326416016
vt 0.336425781 0.317871094
vt 0.494628906 0.317871094
vt 0.494628906 0.326416016
vt 0.494628906 0.349853516
vt 0.336425781 0.349853516
vt 0.336425781 0.341064453
vt 0.494628906 0.341064453
vt 0.34375 0.370361328
vt 0.34375 0.363037109
vt 0.347900391 0.360839844
vt 0.347900391 0.372558594
vt 0.34375 0.383789062
vt 0.34375 0.375244141
vt 0.347900391 0.372558594
vt 0.347900391 0.386474609
vt 0.34375 0.421386719
vt 0.34375 0.412597656
vt 0.347900391 0.41015625
vt 0.347900391 0.424072266
vt 0.34375 0.407714844
vt 0.34375 0.400390625
vt 0.347900391 0.398193359
vt 0.347900391 0.41015625
vt 0.347900391 0.372558594
vt 0.347900391 0.360839844
vt 0.352539062 0.360839844
vt 0.352539062 0.372558594
vt 0.347900391 0.386474609
vt 0.347900391 0.372558594
vt 0.352539062 0.372558594
vt 0.352539062 0.386474609
vt 0.347900391 0.424072266
vt 0.347900391 0.41015625
vt 0.352539062 0.41015625
vt 0.352539062 0.424072266
vt 0.347900391 0.41015625
vt 0.352539062 0.398193359
vt 0.352539062 0.41015625
vt 0.347900391 0.398193359
vt 0.347900391 0.386474609
vt 0.352539062 0.386474609
vt 0.347900391 0.398193359
vt 0.34375 0.396240234
vt 0.34375 0.388916016
vt 0.347900391 0.386474609
vt 0.336425781 0.356933594
vt 0.336425781 0.349853516
vt 0.494628906 0.349853516
vt 0.494628906 0.356933594
vt 0.347900391 0.435791016
vt 0.34375 0.43359375
vt 0.34375 0.426269531
vt 0.347900391 0.424072266
vt 0.352539062 0.435791016
vt 0.347900391 0.435791016
vt 0.347900391 0.424072266
vt 0.352539062 0.424072266
vt 0.336669922 0.341064453
vt 0.336669922 0.349853516
vt 0.496337891 0.349853516
vt 0.496337891 0.341064453
vt 0.496337891 0.341064453
vt 0.336669922 0.333740234
vt 0.336669922 0.341064453
vt 0.491455078 0.333740234
vt 0.336669922 0.326416016
vt 0.486816406 0.326416016
vt 0.486816406 0.317871094
vt 0.336669922 0.317871094
vt 0.336669922 0.326416016
vt 0.486816406 0.326416016
vt 0.491455078 0.310546875
vt 0.336669922 0.310546875
vt 0.336669922 0.317871094
vt 0.486816406 0.317871094
vt 0.496337891 0.349853516
vt 0.336669922 0.349853516
vt 0.336669922 0.356933594
vt 0.491455078 0.356933594
vn -0.724609375 0 0.688964844
vn 0.258789062 0 0.965820312
vn -0.724609375 0 0.688964844
vn 0.258789062 0 0.965820312
vn 0.972167969 0 0.23449707
vn 0.972167969 0 0.23449707
vn 0.724609375 0 -0.688964844
vn -0.258789062 0 -0.965820312
vn -0.258789062 0 -0.965820312
vn 0.724609375 0 -0.688964844
vn 0.972167969 0 0.23449707
vn 0.724609375 0 -0.688964844
vn 0.724609375 0 -0.688964844
vn 0.972167969 0 0.23449707
vn -0.972167969 0 -0.234375
vn -0.972167969 0 -0.234375
vn -0.724609375 0 0.688964844
vn -0.724609375 0 0.688964844
vn -0 1 -2.38418579E-07
vn -0 1 0
vn -0 1 0
vn -0 1 -2.38418579E-07
vn -0 1 -2.38418579E-07
vn -0 1 -2.38418579E-07
vn -0 1 -2.38418579E-07
vn -0 1 -2.38418579E-07
vn -0 1 0
vn -0 1 0
vn -0 1 0
vn -0 1 0
vn -0 1 0
vn -0 1 0
vn -0 1 0
vn -0 1 0
vn 0.724609375 0 -0.688964844
vn -0.258789062 0 -0.965820312
vn -0.258789062 0 -0.965820312
vn 0.724609375 0 -0.688964844
vn 0.972167969 0 0.234375
vn 0.724609375 0 -0.688964844
vn 0.724609375 0 -0.688964844
vn 0.972167969 0 0.234375
vn -0.972167969 0 -0.234375
vn -0.724609375 0 0.688964844
vn -0.724609375 0 0.688964844
vn -0.972167969 0 -0.234375
vn -0.724609375 0 0.688964844
vn 0.258789062 0 0.965820312
vn -0.724609375 0 0.688964844
vn 0.258789062 0 0.965820312
vn 0.972167969 0 0.234375
vn 0.972167969 0 0.234375
vn -0 1 0
vn -0 1 0
vn -0 1 -2.38418579E-07
vn -0 1 -2.38418579E-07
vn -0.258789062 0 -0.965820312
vn -0.972167969 0 -0.234375
vn -0.972167969 0 -0.234375
vn -0.258789062 0 -0.965820312
vn -0 1 0
vn -0 1 0
vn -0 1 0
vn -0 1 0
vn -0.258789062 0 -0.965820312
vn -0.258789062 0 -0.965820312
vn -0.972167969 0 -0.234375
vn -0.972167969 0 -0.234375
vn -0.728027344 0 0.685546875
vn -0.973144531 0 -0.229370117
vn -0.995117188 0 -0.098449707
vn -0.8125 0 0.583007812
vn -0.8125 0 0.583007812
vn 0.250488281 0 0.968261719
vn -0.728027344 0 0.685546875
vn 0.0696411133 0 0.997558594
vn 0.970703125 0 0.239624023
vn 0.943359375 0 0.33203125
vn 0.650878906 0 -0.759277344
vn 0.720703125 0 -0.692871094
vn 0.970703125 0 0.239624023
vn 0.943359375 0 0.33203125
vn -0.438720703 0 -0.8984375
vn -0.267333984 0 -0.963378906
vn 0.720703125 0 -0.692871094
vn 0.650878906 0 -0.759277344
vn -0.995117188 0 -0.098449707
vn -0.973144531 0 -0.229370117
vn -0.267333984 0 -0.963378906
vn -0.438720703 0 -0.8984375
g Cabin_Pole_2_0
f 3/3/3 2/2/2 1/1/1
f 2/2/2 4/4/4 1/1/1
f 5/5/5 4/4/4 2/2/2
f 6/6/6 5/5/5 2/2/2
f 9/9/9 8/8/8 7/7/7
f 10/10/10 9/9/9 7/7/7
f 13/13/13 12/12/12 11/11/11
f 14/14/14 13/13/13 11/11/11
f 17/17/17 16/16/16 15/15/15
f 18/18/18 17/17/17 15/15/15
f 21/21/21 20/20/20 19/19/19
f 22/22/22 21/21/21 19/19/19
f 25/25/25 24/24/24 23/23/23
f 26/26/26 25/25/25 23/23/23
f 29/29/29 28/28/28 27/27/27
f 30/30/30 29/29/29 27/27/27
f 33/33/33 32/32/32 31/31/31
f 34/34/34 33/33/33 31/31/31
f 37/37/37 36/36/36 35/35/35
f 38/38/38 37/37/37 35/35/35
f 41/41/41 40/40/40 39/39/39
f 42/42/42 41/41/41 39/39/39
f 45/45/45 44/44/44 43/43/43
f 46/46/46 45/45/45 43/43/43
f 49/49/49 48/48/48 47/47/47
f 48/48/48 50/50/50 47/47/47
f 51/51/51 50/50/50 48/48/48
f 52/52/52 51/51/51 48/48/48
f 55/55/55 54/54/54 53/53/53
f 56/56/56 55/55/55 53/53/53
f 59/59/59 58/58/58 57/57/57
f 60/60/60 59/59/59 57/57/57
f 63/63/63 62/62/62 61/61/61
f 64/64/64 63/63/63 61/61/61
f 67/67/67 66/66/66 65/65/65
f 68/68/68 67/67/67 65/65/65
f 71/71/71 70/70/70 69/69/69
f 72/72/72 71/71/71 69/69/69
f 75/75/75 74/74/74 73/73/73
f 74/74/74 76/76/76 73/73/73
f 76/76/76 74/74/74 77/77/77
f 78/78/78 76/76/76 77/77/77
f 81/81/81 80/80/80 79/79/79
f 82/82/82 81/81/81 79/79/79
f 85/85/85 84/84/84 83/83/83
f 86/86/86 85/85/85 83/83/83
f 89/89/89 88/88/88 87/87/87
f 90/90/90 89/89/89 87/87/87
