g Trolley_Cages
v 0.601597905 -0.0670478418 0.0700207502
v 0.601597905 0.000813693972 0.0700207502
v 0.820743382 0.000813693972 0.0700207502
v 0.820743382 -0.0670478418 0.0700207502
v 0.601597905 0.000813693972 0.0700207502
v 0.601597905 0.000813693972 -0.0769287124
v 0.820743382 0.000813693972 -0.0769287124
v 0.820743382 0.000813693972 0.0700207502
v 0.601597905 0.000813693972 -0.0769287124
v 0.601597905 -0.0670478418 -0.0769287124
v 0.820743382 -0.0670478418 -0.0769287124
v 0.820743382 0.000813693972 -0.0769287124
v 0.601597905 -0.0670478418 -0.0769287124
v 0.601597905 -0.0670478418 0.0700207502
v 0.820743382 -0.0670478418 0.0700207502
v 0.820743382 -0.0670478418 -0.0769287124
v 0.820743382 -0.0670478418 0.0700207502
v 0.820743382 0.000813693972 0.0700207502
v 0.820743382 0.000813693972 -0.0769287124
v 0.820743382 -0.0670478418 -0.0769287124
v 0.601597905 -0.0670478418 -0.0769287124
v 0.601597905 0.000813693972 -0.0769287124
v 0.601597905 0.000813693972 0.0700207502
v 0.601597905 -0.0670478418 0.0700207502
v -0.470645756 -0.125853121 -0.332699269
v -0.526756585 -0.125853121 -0.332699269
v -0.5909729 -0.000507030461 -0.332699269
v -0.470645756 -0.000507030461 -0.332699269
v -0.470645756 -0.000507030461 -0.332699269
v -0.5909729 -0.000507030461 -0.332699269
v -0.5909729 -0.000507030461 -0.409416199
v -0.470645756 -0.000507030461 -0.409416199
v -0.470645756 -0.000507030461 -0.409416199
v -0.5909729 -0.000507030461 -0.409416199
v -0.526756585 -0.125853121 -0.409416199
v -0.470645756 -0.125853121 -0.409416199
v -0.470645756 -0.125853121 -0.409416199
v -0.526756585 -0.125853121 -0.409416199
v -0.526756585 -0.125853121 -0.332699269
v -0.470645756 -0.125853121 -0.332699269
v -0.526756585 -0.125853121 -0.332699269
v -0.526756585 -0.125853121 -0.409416199
v -0.5909729 -0.000507030461 -0.409416199
v -0.5909729 -0.000507030461 -0.332699269
v -0.470645756 -0.125853121 -0.409416199
v -0.470645756 -0.125853121 -0.332699269
v -0.470645756 -0.000507030461 -0.332699269
v -0.470645756 -0.000507030461 -0.409416199
v 0.460989982 -0.125853121 -0.332699269
v 0.460989982 -0.000507030461 -0.332699269
v 0.581317127 -0.000507030461 -0.332699269
v 0.517100811 -0.125853121 -0.332699269
v 0.460989982 -0.000507030461 -0.332699269
v 0.460989982 -0.000507030461 -0.409416199
v 0.581317127 -0.000507030461 -0.409416199
v 0.581317127 -0.000507030461 -0.332699269
v 0.460989982 -0.000507030461 -0.409416199
v 0.460989982 -0.125853121 -0.409416199
v 0.517100811 -0.125853121 -0.409416199
v 0.581317127 -0.000507030461 -0.409416199
v 0.460989982 -0.125853121 -0.409416199
v 0.460989982 -0.125853121 -0.332699269
v 0.517100811 -0.125853121 -0.332699269
v 0.517100811 -0.125853121 -0.409416199
v 0.517100811 -0.125853121 -0.332699269
v 0.581317127 -0.000507030461 -0.332699269
v 0.581317127 -0.000507030461 -0.409416199
v 0.517100811 -0.125853121 -0.409416199
v 0.460989982 -0.125853121 -0.409416199
v 0.460989982 -0.000507030461 -0.409416199
v 0.460989982 -0.000507030461 -0.332699269
v 0.460989982 -0.125853121 -0.332699269
v 0.460989982 -0.125853121 0.403471053
v 0.460989982 -0.000507030461 0.403471053
v 0.581317127 -0.000507030461 0.403471053
v 0.517100811 -0.125853121 0.403471053
v 0.460989982 -0.000507030461 0.403471053
v 0.460989982 -0.000507030461 0.326754153
v 0.581317127 -0.000507030461 0.326754153
v 0.581317127 -0.000507030461 0.403471053
v 0.460989982 -0.000507030461 0.326754153
v 0.460989982 -0.125853121 0.326754153
v 0.517100811 -0.125853121 0.326754153
v 0.581317127 -0.000507030461 0.326754153
v 0.460989982 -0.125853121 0.326754153
v 0.460989982 -0.125853121 0.403471053
v 0.517100811 -0.125853121 0.403471053
v 0.517100811 -0.125853121 0.326754153
v 0.517100811 -0.125853121 0.403471053
v 0.581317127 -0.000507030461 0.403471053
v 0.581317127 -0.000507030461 0.326754153
v 0.517100811 -0.125853121 0.326754153
v 0.460989982 -0.125853121 0.326754153
v 0.460989982 -0.000507030461 0.326754153
v 0.460989982 -0.000507030461 0.403471053
v 0.460989982 -0.125853121 0.403471053
v -0.469354242 -0.125853121 0.403471053
v -0.525465071 -0.125853121 0.403471053
v -0.589681387 -0.000507030461 0.403471053
v -0.469354242 -0.000507030461 0.403471053
v -0.469354242 -0.000507030461 0.403471053
v -0.589681387 -0.000507030461 0.403471053
v -0.589681387 -0.000507030461 0.326754153
v -0.469354242 -0.000507030461 0.326754153
v -0.469354242 -0.000507030461 0.326754153
v -0.589681387 -0.000507030461 0.326754153
v -0.525465071 -0.125853121 0.326754153
v -0.469354242 -0.125853121 0.326754153
v -0.469354242 -0.125853121 0.326754153
v -0.525465071 -0.125853121 0.326754153
v -0.525465071 -0.125853121 0.403471053
v -0.469354242 -0.125853121 0.403471053
v -0.525465071 -0.125853121 0.403471053
v -0.525465071 -0.125853121 0.326754153
v -0.589681387 -0.000507030461 0.326754153
v -0.589681387 -0.000507030461 0.403471053
v -0.469354242 -0.125853121 0.326754153
v -0.469354242 -0.125853121 0.403471053
v -0.469354242 -0.000507030461 0.403471053
v -0.469354242 -0.000507030461 0.326754153
v 0.641335428 -0.0219568815 0.434982896
v 0.692260742 0.0257711206 0.419916987
v 0.692260742 -0.0219568815 0.419916987
v 0.641335428 0.0257711206 0.434982896
v -0 -0.0219568815 0.434982896
v -0 0.0257711206 0.434982896
v -0.626618624 -0.0219568815 0.434982896
v -0.626618624 0.0257711206 0.434982896
v -0.685002446 -0.0219568815 0.419916987
v -0.685002446 0.0257711206 0.419916987
v 0.641335428 0.0257711206 0.434982896
v 0.711859107 0.0257711206 0.374233991
v 0.692260742 0.0257711206 0.419916987
v 0.641335428 0.0257711206 0.374233991
v -0 0.0257711206 0.434982896
v 0.641335428 0.0257711206 0
v -0 0.0257711206 0.374233991
v 0.711859107 0.0257711206 0
v -0.626618624 0.0257711206 0.434982896
v 0.641335428 0.0257711206 -0.388240337
v -0.626618624 0.0257711206 0.374233991
v -0.685002446 0.0257711206 0.419916987
v -0.704600811 0.0257711206 0.374233991
v -0.626618624 0.0257711206 0
v -0.704600811 0.0257711206 0
v 0.711859107 0.0257711206 -0.388240337
v 0.692260742 0.0257711206 -0.448856205
v 0.641335428 0.0257711206 -0.463922113
v -0 0.0257711206 -0.388240337
v -0 0.0257711206 -0.463922113
v -0.626618624 0.0257711206 -0.388240337
v -0.704600811 0.0257711206 -0.388240337
v -0.626618624 0.0257711206 -0.463922113
v -0.685002446 0.0257711206 -0.448856205
v 0.641335428 0.0257711206 -0.463922113
v 0.692260742 -0.0219568815 -0.448856205
v 0.692260742 0.0257711206 -0.448856205
v 0.641335428 -0.0219568815 -0.463922113
v -0 0.0257711206 -0.463922113
v -0 -0.0219568815 -0.463922113
v -0.626618624 0.0257711206 -0.463922113
v -0.626618624 -0.0219568815 -0.463922113
v -0.685002446 0.0257711206 -0.448856205
v -0.685002446 -0.0219568815 -0.448856205
v 0.692260742 -0.0219568815 0.419916987
v 0.692260742 0.0257711206 0.419916987
v 0.711859107 0.0257711206 0.374233991
v 0.711859107 -0.0219568815 0.374233991
v 0.711859107 -0.0219568815 0
v 0.711859107 0.0257711206 0
v 0.711859107 -0.0219568815 -0.388240337
v 0.711859107 0.0257711206 -0.388240337
v 0.692260742 -0.0219568815 -0.448856205
v 0.692260742 0.0257711206 -0.448856205
v -0.704600811 -0.0219568815 0.374233991
v -0.685002446 0.0257711206 0.419916987
v -0.685002446 -0.0219568815 0.419916987
v -0.704600811 0.0257711206 0.374233991
v -0.704600811 0.0257711206 0
v -0.704600811 -0.0219568815 0
v -0.704600811 -0.0219568815 -0.388240337
v -0.704600811 0.0257711206 -0.388240337
v -0.685002446 -0.0219568815 -0.448856205
v -0.685002446 0.0257711206 -0.448856205
v 0.641335428 -0.0219568815 -0.463922113
v 0.711859107 -0.0219568815 -0.388240337
v 0.692260742 -0.0219568815 -0.448856205
v 0.641335428 -0.0219568815 -0.388240337
v -0 -0.0219568815 -0.463922113
v 0.711859107 -0.0219568815 0
v -0 -0.0219568815 -0.388240337
v 0.641335428 -0.0219568815 0
v -0.626618624 -0.0219568815 -0.463922113
v 0.711859107 -0.0219568815 0.374233991
v -0.626618624 -0.0219568815 -0.388240337
v -0.685002446 -0.0219568815 -0.448856205
v -0.704600811 -0.0219568815 -0.388240337
v -0.626618624 -0.0219568815 0
v -0.704600811 -0.0219568815 0
v 0.641335428 -0.0219568815 0.374233991
v 0.692260742 -0.0219568815 0.419916987
v 0.641335428 -0.0219568815 0.434982896
v -0 -0.0219568815 0.374233991
v -0 -0.0219568815 0.434982896
v -0.626618624 -0.0219568815 0.374233991
v -0.704600811 -0.0219568815 0.374233991
v -0.626618624 -0.0219568815 0.434982896
v -0.685002446 -0.0219568815 0.419916987
v -0 -0.0219568815 -0.388240337
v 0.641335428 -0.0219568815 0
v 0.641335428 -0.0219568815 -0.388240337
v -0 -0.0219568815 0
v -0.626618624 -0.0219568815 -0.388240337
v -0.626618624 -0.0219568815 0
v -0 -0.0219568815 0.374233991
v 0.641335428 -0.0219568815 0.374233991
v -0.626618624 -0.0219568815 0.374233991
v -0 0.0257711206 -0.388240337
v 0.641335428 0.0257711206 -0.388240337
v 0.641335428 0.0257711206 0
v -0 0.0257711206 0
v -0.626618624 0.0257711206 -0.388240337
v -0.626618624 0.0257711206 0
v -0 0.0257711206 0.374233991
v 0.641335428 0.0257711206 0.374233991
v -0.626618624 0.0257711206 0.374233991
vt 0.760742188 0.744628906
vt 0.733886719 0.744628906
vt 0.733886719 0.850585938
vt 0.760742188 0.850585938
vt 0.760742188 0.744628906
vt 0.733886719 0.744628906
vt 0.733886719 0.850585938
vt 0.760742188 0.850585938
vt 0.760742188 0.744628906
vt 0.733886719 0.744628906
vt 0.733886719 0.850585938
vt 0.760742188 0.850585938
vt 0.760742188 0.744628906
vt 0.733886719 0.744628906
vt 0.733886719 0.850585938
vt 0.760742188 0.850585938
vt 0.760742188 0.745605469
vt 0.733886719 0.745605469
vt 0.733886719 0.8515625
vt 0.760742188 0.8515625
vt 0.760742188 0.745117188
vt 0.733886719 0.745117188
vt 0.733886719 0.851074219
vt 0.760742188 0.851074219
vt 0.713867188 0.760253906
vt 0.688964844 0.760253906
vt 0.661132812 0.705566406
vt 0.713867188 0.705566406
vt 0.677246094 0.738769531
vt 0.677246094 0.793945312
vt 0.712402344 0.793945312
vt 0.712402344 0.738769531
vt 0.713867188 0.705566406
vt 0.661132812 0.705566406
vt 0.688964844 0.760253906
vt 0.713867188 0.760253906
vt 0.711914062 0.73828125
vt 0.686035156 0.73828125
vt 0.686035156 0.7734375
vt 0.711914062 0.7734375
vt 0.712402344 0.738769531
vt 0.677246094 0.738769531
vt 0.677246094 0.796386719
vt 0.712402344 0.796386719
vt 0.712890625 0.738769531
vt 0.677734375 0.738769531
vt 0.677734375 0.796386719
vt 0.712890625 0.796386719
vt 0.713867188 0.760253906
vt 0.713867188 0.705566406
vt 0.661132812 0.705566406
vt 0.688964844 0.760253906
vt 0.677246094 0.738769531
vt 0.712402344 0.738769531
vt 0.712402344 0.793945312
vt 0.677246094 0.793945312
vt 0.713867188 0.705566406
vt 0.713867188 0.760253906
vt 0.688964844 0.760253906
vt 0.661132812 0.705566406
vt 0.711914062 0.73828125
vt 0.711914062 0.7734375
vt 0.686035156 0.7734375
vt 0.686035156 0.73828125
vt 0.712402344 0.738769531
vt 0.712402344 0.796386719
vt 0.677246094 0.796386719
vt 0.677246094 0.738769531
vt 0.712890625 0.738769531
vt 0.712890625 0.796386719
vt 0.677734375 0.796386719
vt 0.677734375 0.738769531
vt 0.713867188 0.760253906
vt 0.713867188 0.705566406
vt 0.661132812 0.705566406
vt 0.688964844 0.760253906
vt 0.677246094 0.738769531
vt 0.712402344 0.738769531
vt 0.712402344 0.793945312
vt 0.677246094 0.793945312
vt 0.713867188 0.705566406
vt 0.713867188 0.760253906
vt 0.688964844 0.760253906
vt 0.661132812 0.705566406
vt 0.711914062 0.73828125
vt 0.711914062 0.7734375
vt 0.686035156 0.7734375
vt 0.686035156 0.73828125
vt 0.712402344 0.738769531
vt 0.712402344 0.796386719
vt 0.677246094 0.796386719
vt 0.677246094 0.738769531
vt 0.712890625 0.738769531
vt 0.712890625 0.796386719
vt 0.677734375 0.796386719
vt 0.677734375 0.738769531
vt 0.713867188 0.760253906
vt 0.688964844 0.760253906
vt 0.661132812 0.705566406
vt 0.713867188 0.705566406
vt 0.677246094 0.738769531
vt 0.677246094 0.793945312
vt 0.712402344 0.793945312
vt 0.712402344 0.738769531
vt 0.713867188 0.705566406
vt 0.661132812 0.705566406
vt 0.688964844 0.760253906
vt 0.713867188 0.760253906
vt 0.711914062 0.73828125
vt 0.686035156 0.73828125
vt 0.686035156 0.7734375
vt 0.711914062 0.7734375
vt 0.712402344 0.738769531
vt 0.677246094 0.738769531
vt 0.677246094 0.796386719
vt 0.712402344 0.796386719
vt 0.712890625 0.738769531
vt 0.677734375 0.738769531
vt 0.677734375 0.796386719
vt 0.712890625 0.796386719
vt 0.706054688 0.939941406
vt 0.719726562 0.927734375
vt 0.719726562 0.939941406
vt 0.706054688 0.927734375
vt 0.542480469 0.939941406
vt 0.542480469 0.927734375
vt 0.3828125 0.939941406
vt 0.3828125 0.927734375
vt 0.367431641 0.939941406
vt 0.367431641 0.927734375
vt 0.483398438 0.379150391
vt 0.468994141 0.398193359
vt 0.479736328 0.392822266
vt 0.468994141 0.379150391
vt 0.483154297 0.207763672
vt 0.388427734 0.379394531
vt 0.46875 0.207763672
vt 0.388427734 0.3984375
vt 0.482910156 0.0401611328
vt 0.287597656 0.379638672
vt 0.468261719 0.040222168
vt 0.479248047 0.0245666504
vt 0.468261719 0.0193634033
vt 0.387939453 0.0404052734
vt 0.387695312 0.0195617676
vt 0.287841797 0.398681641
vt 0.2734375 0.393310547
vt 0.269775391 0.379638672
vt 0.287353516 0.208251953
vt 0.26953125 0.208251953
vt 0.287109375 0.0406799316
vt 0.287109375 0.019821167
vt 0.269042969 0.0407104492
vt 0.272705078 0.0250854492
vt 0.666992188 0.927734375
vt 0.676269531 0.940917969
vt 0.676269531 0.927734375
vt 0.666992188 0.940917969
vt 0.552734375 0.927734375
vt 0.552734375 0.940917969
vt 0.441650391 0.927734375
vt 0.441650391 0.940917969
vt 0.430908203 0.927734375
vt 0.430908203 0.940917969
vt 0.629394531 0.94140625
vt 0.629394531 0.927734375
vt 0.62109375 0.927734375
vt 0.62109375 0.94140625
vt 0.56640625 0.94140625
vt 0.56640625 0.927734375
vt 0.497802734 0.94140625
vt 0.497802734 0.927734375
vt 0.487548828 0.94140625
vt 0.487548828 0.927734375
vt 0.622070312 0.938964844
vt 0.629882812 0.927246094
vt 0.629882812 0.938964844
vt 0.622070312 0.927246094
vt 0.570800781 0.927246094
vt 0.570800781 0.938964844
vt 0.506347656 0.938964844
vt 0.506347656 0.927246094
vt 0.496826172 0.938964844
vt 0.496826172 0.927246094
vt 0.487060547 0.376953125
vt 0.469482422 0.395996094
vt 0.483642578 0.390625
vt 0.469238281 0.377197266
vt 0.485107422 0.205078125
vt 0.368408203 0.397460938
vt 0.467285156 0.205322266
vt 0.368164062 0.378662109
vt 0.483398438 0.0371398926
vt 0.287841797 0.398681641
vt 0.465332031 0.0374145508
vt 0.479492188 0.0215606689
vt 0.465087891 0.0165252686
vt 0.364501953 0.0389099121
vt 0.364257812 0.0180206299
vt 0.287597656 0.379882812
vt 0.276855469 0.393554688
vt 0.273193359 0.380126953
vt 0.285644531 0.208007812
vt 0.271240234 0.208251953
vt 0.283691406 0.0401306152
vt 0.283447266 0.0192260742
vt 0.269287109 0.0403442383
vt 0.272705078 0.0246429443
vt 0.874023438 0.858398438
vt 0.773925781 0.794921875
vt 0.773925781 0.858398438
vt 0.874023438 0.794921875
vt 0.974609375 0.858398438
vt 0.974609375 0.794921875
vt 0.874023438 0.732421875
vt 0.773925781 0.732421875
vt 0.974609375 0.732421875
vt 0.874023438 0.858398438
vt 0.974121094 0.858398438
vt 0.974121094 0.794921875
vt 0.874023438 0.794921875
vt 0.773925781 0.858398438
vt 0.773925781 0.794921875
vt 0.874023438 0.732910156
vt 0.974121094 0.732910156
vt 0.773925781 0.732910156
vn -0 0 1
vn -0 0 1
vn -0 0 1
vn -0 0 1
vn -0 1 0
vn -0 1 0
vn -0 1 0
vn -0 1 0
vn -0 0 -1
vn -0 0 -1
vn -0 0 -1
vn -0 0 -1
vn -0 -1 0
vn -0 -1 0
vn -0 -1 0
vn -0 -1 0
vn 1 0 0
vn 1 0 0
vn 1 0 0
vn 1 0 0
vn -1 0 0
vn -1 0 0
vn -1 0 0
vn -1 0 0
vn -0 0 1
vn -0 0 1
vn -0 0 1
vn -0 0 1
vn -0 1 0
vn -0 1 0
vn -0 1 0
vn -0 1 0
vn -0 0 -1
vn -0 0 -1
vn -0 0 -1
vn -0 0 -1
vn -0 -1 0
vn -0 -1 0
vn -0 -1 0
vn -0 -1 0
vn -0.890136719 -0.456054688 0
vn -0.890136719 -0.456054688 0
vn -0.890136719 -0.456054688 0
vn -0.890136719 -0.456054688 0
vn 1 0 0
vn 1 0 0
vn 1 0 0
vn 1 0 0
vn -0 0 1
vn -0 0 1
vn -0 0 1
vn -0 0 1
vn -0 1 0
vn -0 1 0
vn -0 1 0
vn -0 1 0
vn -0 0 -1
vn -0 0 -1
vn -0 0 -1
vn -0 0 -1
vn -0 -1 0
vn -0 -1 0
vn -0 -1 0
vn -0 -1 0
vn 0.890136719 -0.456054688 0
vn 0.890136719 -0.456054688 0
vn 0.890136719 -0.456054688 0
vn 0.890136719 -0.456054688 0
vn -1 0 0
vn -1 0 0
vn -1 0 0
vn -1 0 0
vn -0 0 1
vn -0 0 1
vn -0 0 1
vn -0 0 1
vn -0 1 0
vn -0 1 0
vn -0 1 0
vn -0 1 0
vn -0 0 -1
vn -0 0 -1
vn -0 0 -1
vn -0 0 -1
vn -0 -1 0
vn -0 -1 0
vn -0 -1 0
vn -0 -1 0
vn 0.890136719 -0.456054688 0
vn 0.890136719 -0.456054688 0
vn 0.890136719 -0.456054688 0
vn 0.890136719 -0.456054688 0
vn -1 0 0
vn -1 0 0
vn -1 0 0
vn -1 0 0
vn -0 0 1
vn -0 0 1
vn -0 0 1
vn -0 0 1
vn -0 1 0
vn -0 1 0
vn -0 1 0
vn -0 1 0
vn -0 0 -1
vn -0 0 -1
vn -0 0 -1
vn -0 0 -1
vn -0 -1 0
vn -0 -1 0
vn -0 -1 0
vn -0 -1 0
vn -0.890136719 -0.456054688 0
vn -0.890136719 -0.456054688 0
vn -0.890136719 -0.456054688 0
vn -0.890136719 -0.456054688 0
vn 1 0 0
vn 1 0 0
vn 1 0 0
vn 1 0 0
vn 0.0217590332 0 1
vn 0.283691406 0 0.958984375
vn 0.283691406 0 0.958984375
vn 0.0217590332 0 1
vn -0 0 1
vn -0 0 1
vn -0.021987915 0 1
vn -0.021987915 0 1
vn -0.24987793 0 0.968261719
vn -0.24987793 0 0.968261719
vn -0 1 0
vn -0 1 0
vn -0 1 4.76837158E-07
vn -0 1 0
vn -0 1 0
vn -0 1 0
vn -0 1 0
vn -0 1 0
vn -0 1 0
vn -0 1 0
vn -0 1 0
vn -0 1 -1.1920929E-07
vn -0 1 0
vn -0 1 0
vn -0 1 0
vn -0 1 0
vn -0 1 -3.57627869E-07
vn -0 1 0
vn -0 1 0
vn -0 1 0
vn -0 1 0
vn -0 1 0
vn -0 1 0
vn -0 1 0
vn 0.0217590332 0 -1
vn 0.283691406 0 -0.958984375
vn 0.283691406 0 -0.958984375
vn 0.0217590332 0 -1
vn -0 0 -1
vn -0 0 -1
vn -0.021987915 0 -1
vn -0.021987915 0 -1
vn -0.24987793 0 -0.968261719
vn -0.24987793 0 -0.968261719
vn 0.918945312 0 0.394287109
vn 0.918945312 0 0.394287109
vn 0.999023438 0 0.0466308594
vn 0.999023438 0 0.0466308594
vn 1 0 0
vn 1 0 0
vn 0.999023438 0 -0.0436096191
vn 0.999023438 0 -0.0436096191
vn 0.951660156 0 -0.307617188
vn 0.951660156 0 -0.307617188
vn -0.999023438 0 0.0466308594
vn -0.918945312 0 0.394287109
vn -0.918945312 0 0.394287109
vn -0.999023438 0 0.0466308594
vn -1 0 0
vn -1 0 0
vn -0.999023438 0 -0.0436096191
vn -0.999023438 0 -0.0436096191
vn -0.951660156 0 -0.307617188
vn -0.951660156 0 -0.307617188
vn -0 -1 0
vn -0 -1 0
vn -0 -1 1.78813934E-07
vn -0 -1 0
vn -0 -1 0
vn -0 -1 0
vn -0 -1 0
vn -0 -1 0
vn -0 -1 0
vn -0 -1 0
vn -0 -1 0
vn -0 -1 0
vn -0 -1 0
vn -0 -1 0
vn -0 -1 0
vn -0 -1 0
vn -0 -1 -2.38418579E-07
vn -0 -1 0
vn -0 -1 0
vn -0 -1 0
vn -0 -1 0
vn -0 -1 0
vn -0 -1 0
vn -0 -1 -1.1920929E-07
vn -0 -1 0
vn -0 -1 0
vn -0 -1 0
vn -0 -1 0
vn -0 -1 0
vn -0 -1 0
vn -0 -1 0
vn -0 -1 0
vn -0 -1 0
vn -0 1 0
vn -0 1 0
vn -0 1 0
vn -0 1 0
vn -0 1 0
vn -0 1 0
vn -0 1 0
vn -0 1 0
vn -0 1 0
g Trolley_Cages_0
f 3/3/3 2/2/2 1/1/1
f 4/4/4 3/3/3 1/1/1
f 7/7/7 6/6/6 5/5/5
f 8/8/8 7/7/7 5/5/5
f 11/11/11 10/10/10 9/9/9
f 12/12/12 11/11/11 9/9/9
f 15/15/15 14/14/14 13/13/13
f 16/16/16 15/15/15 13/13/13
f 19/19/19 18/18/18 17/17/17
f 20/20/20 19/19/19 17/17/17
f 23/23/23 22/22/22 21/21/21
f 24/24/24 23/23/23 21/21/21
f 27/27/27 26/26/26 25/25/25
f 28/28/28 27/27/27 25/25/25
f 31/31/31 30/30/30 29/29/29
f 32/32/32 31/31/31 29/29/29
f 35/35/35 34/34/34 33/33/33
f 36/36/36 35/35/35 33/33/33
f 39/39/39 38/38/38 37/37/37
f 40/40/40 39/39/39 37/37/37
f 43/43/43 42/42/42 41/41/41
f 44/44/44 43/43/43 41/41/41
f 47/47/47 46/46/46 45/45/45
f 48/48/48 47/47/47 45/45/45
f 51/51/51 50/50/50 49/49/49
f 52/52/52 51/51/51 49/49/49
f 55/55/55 54/54/54 53/53/53
f 56/56/56 55/55/55 53/53/53
f 59/59/59 58/58/58 57/57/57
f 60/60/60 59/59/59 57/57/57
f 63/63/63 62/62/62 61/61/61
f 64/64/64 63/63/63 61/61/61
f 67/67/67 66/66/66 65/65/65
f 68/68/68 67/67/67 65/65/65
f 71/71/71 70/70/70 69/69/69
f 72/72/72 71/71/71 69/69/69
f 75/75/75 74/74/74 73/73/73
f 76/76/76 75/75/75 73/73/73
f 79/79/79 78/78/78 77/77/77
f 80/80/80 79/79/79 77/77/77
f 83/83/83 82/82/82 81/81/81
f 84/84/84 83/83/83 81/81/81
f 87/87/87 86/86/86 85/85/85
f 88/88/88 87/87/87 85/85/85
f 91/91/91 90/90/90 89/89/89
f 92/92/92 91/91/91 89/89/89
f 95/95/95 94/94/94 93/93/93
f 96/96/96 95/95/95 93/93/93
f 99/99/99 98/98/98 97/97/97
f 100/100/100 99/99/99 97/97/97
f 103/103/103 102/102/102 101/101/101
f 104/104/104 103/103/103 101/101/101
f 107/107/107 106/106/106 105/105/105
f 108/108/108 107/107/107 105/105/105
f 111/111/111 110/110/110 109/109/109
f 112/112/112 111/111/111 109/109/109
f 115/115/115 114/114/114 113/113/113
f 116/116/116 115/115/115 113/113/113
f 119/119/119 118/118/118 117/117/117
f 120/120/120 119/119/119 117/117/117
f 123/123/123 122/122/122 121/121/121
f 122/122/122 124/124/124 121/121/121
f 121/121/121 124/124/124 125/125/125
f 124/124/124 126/126/126 125/125/125
f 125/125/125 126/126/126 127/127/127
f 126/126/126 128/128/128 127/127/127
f 127/127/127 128/128/128 129/129/129
f 128/128/128 130/130/130 129/129/129
f 133/133/133 132/132/132 131/131/131
f 132/132/132 134/134/134 131/131/131
f 131/131/131 134/134/134 135/135/135
f 134/134/134 132/132/132 136/136/136
f 134/134/134 137/137/137 135/135/135
f 132/132/132 138/138/138 136/136/136
f 135/135/135 137/137/137 139/139/139
f 136/136/136 138/138/138 140/140/140
f 137/137/137 141/141/141 139/139/139
f 139/139/139 141/141/141 142/142/142
f 141/141/141 143/143/143 142/142/142
f 141/141/141 144/144/144 143/143/143
f 144/144/144 145/145/145 143/143/143
f 138/138/138 146/146/146 140/140/140
f 146/146/146 147/147/147 140/140/140
f 147/147/147 148/148/148 140/140/140
f 140/140/140 148/148/148 149/149/149
f 148/148/148 150/150/150 149/149/149
f 144/144/144 151/151/151 145/145/145
f 149/149/149 150/150/150 151/151/151
f 151/151/151 152/152/152 145/145/145
f 150/150/150 153/153/153 151/151/151
f 151/151/151 153/153/153 152/152/152
f 153/153/153 154/154/154 152/152/152
f 157/157/157 156/156/156 155/155/155
f 156/156/156 158/158/158 155/155/155
f 155/155/155 158/158/158 159/159/159
f 158/158/158 160/160/160 159/159/159
f 159/159/159 160/160/160 161/161/161
f 160/160/160 162/162/162 161/161/161
f 161/161/161 162/162/162 163/163/163
f 162/162/162 164/164/164 163/163/163
f 167/167/167 166/166/166 165/165/165
f 168/168/168 167/167/167 165/165/165
f 168/168/168 169/169/169 167/167/167
f 169/169/169 170/170/170 167/167/167
f 169/169/169 171/171/171 170/170/170
f 171/171/171 172/172/172 170/170/170
f 171/171/171 173/173/173 172/172/172
f 173/173/173 174/174/174 172/172/172
f 177/177/177 176/176/176 175/175/175
f 176/176/176 178/178/178 175/175/175
f 175/175/175 178/178/178 179/179/179
f 180/180/180 175/175/175 179/179/179
f 180/180/180 179/179/179 181/181/181
f 179/179/179 182/182/182 181/181/181
f 181/181/181 182/182/182 183/183/183
f 182/182/182 184/184/184 183/183/183
f 187/187/187 186/186/186 185/185/185
f 186/186/186 188/188/188 185/185/185
f 185/185/185 188/188/188 189/189/189
f 186/186/186 190/190/190 188/188/188
f 188/188/188 191/191/191 189/189/189
f 190/190/190 192/192/192 188/188/188
f 189/189/189 191/191/191 193/193/193
f 190/190/190 194/194/194 192/192/192
f 191/191/191 195/195/195 193/193/193
f 193/193/193 195/195/195 196/196/196
f 195/195/195 197/197/197 196/196/196
f 195/195/195 198/198/198 197/197/197
f 198/198/198 199/199/199 197/197/197
f 194/194/194 200/200/200 192/192/192
f 194/194/194 201/201/201 200/200/200
f 201/201/201 202/202/202 200/200/200
f 200/200/200 202/202/202 203/203/203
f 202/202/202 204/204/204 203/203/203
f 198/198/198 205/205/205 199/199/199
f 203/203/203 204/204/204 205/205/205
f 205/205/205 206/206/206 199/199/199
f 204/204/204 207/207/207 205/205/205
f 205/205/205 207/207/207 206/206/206
f 207/207/207 208/208/208 206/206/206
f 211/211/211 210/210/210 209/209/209
f 210/210/210 212/212/212 209/209/209
f 209/209/209 212/212/212 213/213/213
f 212/212/212 214/214/214 213/213/213
f 212/212/212 210/210/210 215/215/215
f 212/212/212 215/215/215 214/214/214
f 210/210/210 216/216/216 215/215/215
f 215/215/215 217/217/217 214/214/214
f 220/220/220 219/219/219 218/218/218
f 221/221/221 220/220/220 218/218/218
f 221/221/221 218/218/218 222/222/222
f 223/223/223 221/221/221 222/222/222
f 221/221/221 224/224/224 220/220/220
f 221/221/221 223/223/223 224/224/224
f 224/224/224 225/225/225 220/220/220
f 223/223/223 226/226/226 224/224/224
