g TableSwitch_Light_01
v 0.00562956277 0.00113974861 -0.000894773519
v 0.00424894737 -0.00161568355 -0.00435722154
v 0.00760832243 -0.00185341551 0.00147819705
v 0.00574064674 -0.00553688686 -0.00315070921
v 9.00638213E-07 -0.0067343968 -0.00465232646
v 9.00638213E-07 -0.00250893296 -0.00547714019
v -0.00424714619 -0.00161568355 -0.00435722154
v -0.00574250752 -0.00553688686 -0.00315070921
v -0.00574250752 -0.00553688686 -0.00315070921
v -0.00424714619 -0.00161568355 -0.00435722154
v -0.00760774175 -0.00185341551 0.00147819705
v -0.00562898209 0.00113974861 -0.000894773519
v -0.00562898209 0.00113974861 -0.000894773519
v -0.00424714619 0.00388968759 0.00256057922
v -0.00760774175 -0.00185341551 0.00147819705
v -0.00574250752 0.00182807248 0.00610420387
v 9.00638213E-07 0.00302802376 0.00760841509
v 9.00638213E-07 0.00478843041 0.00368751702
v 0.00424894737 0.00388968759 0.00256057922
v 0.00574064674 0.00182807248 0.00610420387
v 0.00574064674 0.00182807248 0.00610420387
v 0.00424894737 0.00388968759 0.00256057922
v 0.00760832243 -0.00185341551 0.00147819705
v 0.00562956277 0.00113974861 -0.000894773519
v 9.00638213E-07 -0.00250893296 -0.00547714019
v 0.00424894737 -0.00161568355 -0.00435722154
v 9.00638213E-07 0.00186484621 -0.0014733104
v -0.00424714619 -0.00161568355 -0.00435722154
v 0.00562956277 0.00113974861 -0.000894773519
v -0.00562898209 0.00113974861 -0.000894773519
v 0.00424894737 0.00388968759 0.00256057922
v -0.00424714619 0.00388968759 0.00256057922
v 9.00638213E-07 0.00478843041 0.00368751702
vt 0.610839844 0.954589844
vt 0.608886719 0.952636719
vt 0.609863281 0.95703125
vt 0.606445312 0.953613281
vt 0.606445312 0.948730469
vt 0.608886719 0.950195312
vt 0.610839844 0.948242188
vt 0.609863281 0.945800781
vt 0.609863281 0.945800781
vt 0.610839844 0.948242188
vt 0.614746094 0.945800781
vt 0.61328125 0.948242188
vt 0.61328125 0.948242188
vt 0.615722656 0.950195312
vt 0.614746094 0.945800781
vt 0.617675781 0.94921875
vt 0.617675781 0.954101562
vt 0.615234375 0.952636719
vt 0.61328125 0.954589844
vt 0.614257812 0.95703125
vt 0.614257812 0.95703125
vt 0.61328125 0.954589844
vt 0.609863281 0.95703125
vt 0.610839844 0.954589844
vt 0.608886719 0.950195312
vt 0.608886719 0.952636719
vt 0.612304688 0.951171875
vt 0.610839844 0.948242188
vt 0.610839844 0.954589844
vt 0.61328125 0.948242188
vt 0.61328125 0.954589844
vt 0.615722656 0.950195312
vt 0.615234375 0.952636719
vn 0.590332031 0.631835938 -0.502441406
vn 0.456054688 0.330566406 -0.826171875
vn 0.888671875 0.358642578 -0.285644531
vn 0.626464844 -0.0013999939 -0.779296875
vn -1.03712082E-05 -0.190307617 -0.981933594
vn -0 0.271240234 -0.962402344
vn -0.455810547 0.330566406 -0.826171875
vn -0.626464844 -0.000888824463 -0.779296875
vn -0.626464844 -0.000888824463 -0.779296875
vn -0.455810547 0.330566406 -0.826171875
vn -0.888671875 0.358886719 -0.285888672
vn -0.590332031 0.631835938 -0.502441406
vn -0.590332031 0.631835938 -0.502441406
vn -0.456298828 0.879394531 -0.136230469
vn -0.888671875 0.358886719 -0.285888672
vn -0.627441406 0.758300781 0.176513672
vn -1.02519989E-05 0.913085938 0.407714844
vn -0 0.999023438 -0.0472412109
vn 0.456298828 0.879394531 -0.136108398
vn 0.627441406 0.758300781 0.177001953
vn 0.627441406 0.758300781 0.177001953
vn 0.456298828 0.879394531 -0.136108398
vn 0.888671875 0.358642578 -0.285644531
vn 0.590332031 0.631835938 -0.502441406
vn -0 0.271240234 -0.962402344
vn 0.456054688 0.330566406 -0.826171875
vn -1.1920929E-07 0.782226562 -0.622558594
vn -0.455810547 0.330566406 -0.826171875
vn 0.590332031 0.631835938 -0.502441406
vn -0.590332031 0.631835938 -0.502441406
vn 0.456298828 0.879394531 -0.136108398
vn -0.456298828 0.879394531 -0.136230469
vn -0 0.999023438 -0.0472412109
g TableSwitch_Light_01_0
f 3/3/3 2/2/2 1/1/1
f 3/3/3 4/4/4 2/2/2
f 5/5/5 2/2/2 4/4/4
f 5/5/5 6/6/6 2/2/2
f 5/5/5 7/7/7 6/6/6
f 5/5/5 8/8/8 7/7/7
f 11/11/11 10/10/10 9/9/9
f 11/11/11 12/12/12 10/10/10
f 15/15/15 14/14/14 13/13/13
f 15/15/15 16/16/16 14/14/14
f 17/17/17 14/14/14 16/16/16
f 17/17/17 18/18/18 14/14/14
f 17/17/17 19/19/19 18/18/18
f 17/17/17 20/20/20 19/19/19
f 23/23/23 22/22/22 21/21/21
f 23/23/23 24/24/24 22/22/22
f 27/27/27 26/26/26 25/25/25
f 27/27/27 25/25/25 28/28/28
f 27/27/27 29/29/29 26/26/26
f 27/27/27 28/28/28 30/30/30
f 31/31/31 29/29/29 27/27/27
f 27/27/27 30/30/30 32/32/32
f 31/31/31 27/27/27 33/33/33
f 27/27/27 32/32/32 33/33/33
