g Casa01_04
v 0.0234399876 4.03907687 3.5204577
v 0.0234399876 4.03907687 3.95264034
v 0.0234399876 5.52770598 3.95264034
v 0.0234399876 5.52770598 3.5204577
v 0.0234399876 4.03907687 3.95264034
v 0.0234399876 4.03907687 4.38482299
v 0.0234399876 5.52770598 4.38482299
v 0.0234399876 5.52770598 3.95264034
v 0.00423187006 5.62374657 5.45087351
v 0.0138359288 5.61414251 5.46047757
v 0.0138359288 5.63335063 -0.00423187006
v 0.00423187006 5.62374657 5.45087351
v 0.0138359288 5.63335063 -0.00423187006
v 0.00423187006 5.62374657 -0.00423187006
v -0.00537218872 -0.00423187006 0.840925302
v 0.0618562227 -0.00423187006 0.840925302
v 0.0618562227 1.90697583 0.840925302
v -0.00537218872 1.90697583 0.840925302
v 0.0618562227 2.18549353 0.917757772
v -0.00537218872 2.18549353 0.917757772
v 0.0618562227 2.38717876 1.11944301
v -0.00537218872 2.38717876 1.11944301
v 0.0618562227 1.90697583 1.95499612
v 0.0618562227 -0.00423187006 1.95499612
v -0.00537218872 -0.00423187006 1.95499612
v -0.00537218872 1.90697583 1.95499612
v -0.00537218872 2.18549353 1.87816365
v 0.0618562227 2.18549353 1.87816365
v -0.00537218872 2.38717876 1.67647842
v 0.0618562227 2.38717876 1.67647842
v -0.00537218872 2.38717876 1.11944301
v 0.0618562227 2.38717876 1.11944301
v 0.0618562227 2.45440718 1.39796071
v -0.00537218872 2.45440718 1.39796071
v 0.0618562227 2.38717876 1.67647842
v -0.00537218872 2.38717876 1.67647842
v 0.0618562227 1.90697583 0.840925302
v 0.0618562227 -0.00423187006 0.840925302
v 0.0618562227 -0.00423187006 1.95499612
v 0.0618562227 1.90697583 1.95499612
v 0.0618562227 2.18549353 0.917757772
v 0.0618562227 2.18549353 1.87816365
v 0.0618562227 2.38717876 1.11944301
v 0.0618562227 2.38717876 1.67647842
v 0.0618562227 2.45440718 1.39796071
v 0.0234399876 3.9622444 3.43402117
v 0.0234399876 5.61414251 3.43402117
v -0.0149762475 5.61414251 3.43402117
v -0.0149762475 3.9622444 3.43402117
v -0.0149762475 3.86620382 4.50967575
v -0.0149762475 3.9622444 4.50967575
v 0.0522521639 3.9622444 4.50967575
v 0.0522521639 3.86620382 4.50967575
v -0.0149762475 3.9622444 4.50967575
v -0.0149762475 3.9622444 4.46165546
v 0.0234399876 3.9622444 4.46165546
v 0.0522521639 3.9622444 4.50967575
v 0.0522521639 3.86620382 3.39560494
v 0.0522521639 3.86620382 4.50967575
v 0.0522521639 3.9622444 4.50967575
v 0.0522521639 3.9622444 3.39560494
v -0.0149762475 3.86620382 3.39560494
v 0.0522521639 3.86620382 3.39560494
v 0.0522521639 3.9622444 3.39560494
v -0.0149762475 3.9622444 3.39560494
v 0.0522521639 3.86620382 3.39560494
v -0.0149762475 3.86620382 3.39560494
v -0.0149762475 3.86620382 4.50967575
v 0.0522521639 3.86620382 4.50967575
v -0.0149762475 3.9622444 3.39560494
v 0.0522521639 3.9622444 3.39560494
v 0.0234399876 3.9622444 3.43402117
v -0.0149762475 3.9622444 3.43402117
v 0.0522521639 3.9622444 3.39560494
v 0.0522521639 3.9622444 4.50967575
v 0.0234399876 3.9622444 4.46165546
v 0.0234399876 3.9622444 3.43402117
v 0.0234399876 3.9622444 4.46165546
v -0.0149762475 3.9622444 4.46165546
v -0.0149762475 5.61414251 4.46165546
v 0.0234399876 5.61414251 4.46165546
v 0.0234399876 5.61414251 3.43402117
v 0.0234399876 5.61414251 4.46165546
v -0.0149762475 5.61414251 4.46165546
v -0.0149762475 5.61414251 3.43402117
v 0.0234399876 3.9622444 3.43402117
v 0.0234399876 4.03907687 3.5204577
v 0.0234399876 5.52770598 3.5204577
v 0.0234399876 5.61414251 3.43402117
v 0.0234399876 5.61414251 3.43402117
v 0.0234399876 5.52770598 3.5204577
v 0.0234399876 5.52770598 4.38482299
v 0.0234399876 5.61414251 4.46165546
v 0.0234399876 5.61414251 4.46165546
v 0.0234399876 5.52770598 4.38482299
v 0.0234399876 4.03907687 4.38482299
v 0.0234399876 3.9622444 4.46165546
v 0.0234399876 3.9622444 4.46165546
v 0.0234399876 4.03907687 4.38482299
v 0.0234399876 4.03907687 3.5204577
v 0.0234399876 3.9622444 3.43402117
v 0.00423187006 5.78701557 5.18195987
v 0.00423187006 5.78701557 5.78701557
v 0.186708987 6.02711704 5.78701557
v 0.00423187006 5.78701557 -0.00423187006
v 0.186708987 6.02711704 -0.0138359288
v -4.3368027 9.63824314 5.78701557
v -4.3368027 9.63824314 -0.0138359288
v -1.57083377 7.0835635 -0.0138359288
v -1.57083377 7.0835635 5.78701557
v 0.186708987 6.02711704 -0.0138359288
v 0.186708987 6.02711704 5.78701557
v 0.00423187006 3.01144258 5.45087351
v 0.00423187006 5.78701557 5.45087351
v 0.00423187006 5.78701557 -0.00423187006
v 0.00423187006 3.01144258 -0.00423187006
v 0.00423187006 1.13865112 5.45087351
v 0.00423187006 3.01144258 5.45087351
v 0.00423187006 3.01144258 -0.00423187006
v 0.00423187006 1.13865112 -0.00423187006
v 0.0138359288 0.965778066 5.46047757
v 0.0138359288 1.12904707 5.46047757
v 0.0138359288 1.12904707 -0.00423187006
v 0.0138359288 0.965778066 -0.00423187006
v 0.00423187006 -0.00423187006 5.45087351
v 0.00423187006 0.956174007 5.45087351
v 0.00423187006 0.956174007 -0.00423187006
v 0.00423187006 -0.00423187006 -0.00423187006
v 0.00423187006 0.956174007 5.45087351
v 0.0138359288 0.965778066 5.46047757
v 0.0138359288 0.965778066 -0.00423187006
v 0.00423187006 0.956174007 -0.00423187006
v 0.00423187006 1.13865112 -0.00423187006
v 0.0138359288 1.12904707 -0.00423187006
v 0.0138359288 1.12904707 5.46047757
v 0.00423187006 1.13865112 5.45087351
v 0.0138359288 5.61414251 5.46047757
v 0.0138359288 5.77741151 5.46047757
v 0.0138359288 5.78701557 -0.00423187006
v 0.0138359288 5.63335063 -0.00423187006
v 0.00423187006 5.79661963 -0.00423187006
v 0.0138359288 5.78701557 -0.00423187006
v 0.0138359288 5.77741151 5.46047757
v 0.00423187006 5.79661963 5.45087351
vt 0.804106252 0.338738458
vt 0.858399161 0.338738458
vt 0.858399161 0.493861056
vt 0.804106252 0.493861056
vt 0.858399161 0.338738458
vt 0.804106252 0.338738458
vt 0.804106252 0.493861056
vt 0.858399161 0.493861056
vt 0.800228187 0.637349459
vt 0.800228187 0.637349459
vt 0.625715264 0.637349459
vt 0.800228187 0.637349459
vt 0.625715264 0.637349459
vt 0.625715264 0.637349459
vt 0.819618512 0.815740447
vt 0.823496577 0.815740447
vt 0.823496577 0.95147272
vt 0.819618512 0.95147272
vt 0.815740447 0.970863045
vt 0.815740447 0.970863045
vt 0.804106252 0.98249724
vt 0.800228187 0.98249724
vt 0.742057213 0.95147272
vt 0.742057213 0.815740447
vt 0.745935278 0.815740447
vt 0.745935278 0.95147272
vt 0.749813343 0.970863045
vt 0.749813343 0.970863045
vt 0.765325602 0.98249724
vt 0.761447537 0.98249724
vt 0.800228187 0.98249724
vt 0.804106252 0.98249724
vt 0.780837862 0.986375305
vt 0.780837862 0.986375305
vt 0.761447537 0.98249724
vt 0.765325602 0.98249724
vt 0.823496577 0.95147272
vt 0.823496577 0.815740447
vt 0.742057213 0.815740447
vt 0.742057213 0.95147272
vt 0.815740447 0.970863045
vt 0.749813343 0.970863045
vt 0.804106252 0.98249724
vt 0.761447537 0.98249724
vt 0.780837862 0.986375305
vt 0.57530042 0.617959134
vt 0.831252707 0.617959134
vt 0.831252707 0.625715264
vt 0.57530042 0.625715264
vt 0.668373979 0.621837199
vt 0.680008174 0.621837199
vt 0.680008174 0.614081069
vt 0.668373979 0.614081069
vt 0.680008174 0.621837199
vt 0.683886238 0.621837199
vt 0.683886238 0.617959134
vt 0.680008174 0.614081069
vt 0.761447537 0.614081069
vt 0.668373979 0.614081069
vt 0.668373979 0.625715264
vt 0.761447537 0.625715264
vt 0.761447537 0.621837199
vt 0.761447537 0.614081069
vt 0.753691408 0.614081069
vt 0.753691408 0.621837199
vt 0.761447537 0.614081069
vt 0.761447537 0.621837199
vt 0.668373979 0.621837199
vt 0.668373979 0.614081069
vt 0.753691408 0.621837199
vt 0.753691408 0.614081069
vt 0.749813343 0.617959134
vt 0.749813343 0.621837199
vt 0.761447537 0.625715264
vt 0.668373979 0.625715264
vt 0.672252044 0.629593329
vt 0.757569473 0.629593329
vt 0.57530042 0.633471394
vt 0.57530042 0.625715264
vt 0.831252707 0.625715264
vt 0.831252707 0.633471394
vt 0.800228187 0.633471394
vt 0.641227524 0.633471394
vt 0.641227524 0.625715264
vt 0.800228187 0.625715264
vt 0.57530042 0.617959134
vt 0.59081268 0.633471394
vt 0.819618512 0.633471394
vt 0.831252707 0.617959134
vt 0.800228187 0.629593329
vt 0.784715927 0.614081069
vt 0.652861719 0.614081069
vt 0.641227524 0.629593329
vt 0.831252707 0.629593329
vt 0.819618512 0.614081069
vt 0.59081268 0.614081069
vt 0.57530042 0.629593329
vt 0.672252044 0.629593329
vt 0.680008174 0.637349459
vt 0.753691408 0.637349459
vt 0.757569473 0.629593329
vt 0.5442759 0.0129810021
vt 0.56754429 0.0129810021
vt 0.56754429 0.020737132
vt 0.350372653 0.0129810021
vt 0.350372653 0.020737132
vt 0.56754429 0.241786834
vt 0.350372653 0.241786834
vt 0.350372653 0.098298431
vt 0.56754429 0.098298431
vt 0.350372653 0.020737132
vt 0.56754429 0.020737132
vt 0.00134680723 0.129322951
vt 0.00134680723 0.241786834
vt 0.222396509 0.241786834
vt 0.222396509 0.129322951
vt 0.00134680723 0.102176496
vt 0.00134680723 0.156469405
vt 0.222396509 0.156469405
vt 0.222396509 0.102176496
vt 0.800228187 0.637349459
vt 0.800228187 0.617959134
vt 0.625715264 0.617959134
vt 0.625715264 0.637349459
vt 0.00910293713 0.00134680723
vt 0.00910293713 0.0711519763
vt 0.230152639 0.0711519763
vt 0.230152639 0.00134680723
vt 0.800228187 0.637349459
vt 0.800228187 0.637349459
vt 0.625715264 0.637349459
vt 0.625715264 0.637349459
vt 0.625715264 0.617959134
vt 0.625715264 0.617959134
vt 0.800228187 0.617959134
vt 0.800228187 0.617959134
vt 0.800228187 0.637349459
vt 0.800228187 0.617959134
vt 0.625715264 0.617959134
vt 0.625715264 0.637349459
vt 0.625715264 0.617959134
vt 0.625715264 0.617959134
vt 0.800228187 0.617959134
vt 0.800228187 0.617959134
vn 0.999873996 0.0158710158 -0.000321587206
vn 0.999873996 0.0158710158 -0.000321587206
vn 0.999873996 0.0158710158 -0.000321587206
vn 0.999873996 0.0158710158 -0.000321587206
vn 0.999873996 0.0158710158 -0.000321587206
vn 0.999873996 0.0158710158 -0.000321587206
vn 0.999873996 0.0158710158 -0.000321587206
vn 0.999873996 0.0158710158 -0.000321587206
vn 0.0158710158 -0.999873996 -0.000321587206
vn 0.0158710158 -0.999873996 -0.000321587206
vn 0.0158710158 -0.999873996 -0.000321587206
vn 0.0158710158 -0.999873996 -0.000321587206
vn 0.0158710158 -0.999873996 -0.000321587206
vn 0.0158710158 -0.999873996 -0.000321587206
vn -0.0158710158 0.0158710158 -0.999748079
vn -0.0158710158 0.0158710158 -0.999748079
vn -0.0158710158 0.0476130474 -0.99873976
vn -0.0158710158 0.0476130474 -0.99873976
vn -0.0158710158 0.49200149 -0.87044968
vn -0.0158710158 0.49200149 -0.87044968
vn -0.0158710158 0.872905869 -0.487630448
vn -0.0158710158 0.872905869 -0.487630448
vn -0.0158710158 0.0476130474 0.99873976
vn -0.0158710158 0.0158710158 0.999748079
vn -0.0158710158 0.0158710158 0.999748079
vn -0.0158710158 0.0476130474 0.99873976
vn -0.0158710158 0.49200149 0.87044968
vn -0.0158710158 0.49200149 0.87044968
vn -0.0158710158 0.872905869 0.487630448
vn -0.0158710158 0.872905869 0.487630448
vn -0.0158710158 0.872905869 -0.487630448
vn -0.0158710158 0.872905869 -0.487630448
vn -0.0158710158 0.999873996 -0.000321587207
vn -0.0158710158 0.999873996 -0.000321587207
vn -0.0158710158 0.872905869 0.487630448
vn -0.0158710158 0.872905869 0.487630448
vn 0.999873996 0.0158710158 -0.000321587206
vn 0.999873996 0.0158710158 -0.000321587206
vn 0.999873996 0.0158710158 -0.000321587206
vn 0.999873996 0.0158710158 -0.000321587206
vn 0.999873996 0.0158710158 -0.000321587206
vn 0.999873996 0.0158710158 -0.000321587206
vn 0.999873996 0.0158710158 -0.000321587206
vn 0.999873996 0.0158710158 -0.000321587206
vn 0.999873996 0.0158710158 -0.000321587206
vn -0.0158710158 0.0158710158 -0.999748079
vn -0.0158710158 0.0158710158 -0.999748079
vn -0.0158710158 0.0158710158 -0.999748079
vn -0.0158710158 0.0158710158 -0.999748079
vn -0.0158710158 0.0158710158 0.999748079
vn -0.0158710158 0.0158710158 0.999748079
vn -0.0158710158 0.0158710158 0.999748079
vn -0.0158710158 0.0158710158 0.999748079
vn -0.0158710158 0.999873996 -0.000321587207
vn -0.0158710158 0.999873996 -0.000321587207
vn -0.0158710158 0.999873996 -0.000321587207
vn -0.0158710158 0.999873996 -0.000321587207
vn 0.999873996 0.0158710158 -0.000321587206
vn 0.999873996 0.0158710158 -0.000321587206
vn 0.999873996 0.0158710158 -0.000321587206
vn 0.999873996 0.0158710158 -0.000321587206
vn -0.0158710158 0.0158710158 -0.999748079
vn -0.0158710158 0.0158710158 -0.999748079
vn -0.0158710158 0.0158710158 -0.999748079
vn -0.0158710158 0.0158710158 -0.999748079
vn -0.0158710158 -0.999873996 -0.000321587206
vn -0.0158710158 -0.999873996 -0.000321587206
vn -0.0158710158 -0.999873996 -0.000321587206
vn -0.0158710158 -0.999873996 -0.000321587206
vn -0.0158710158 0.999873996 -0.000321587207
vn -0.0158710158 0.999873996 -0.000321587207
vn -0.0158710158 0.999873996 -0.000321587207
vn -0.0158710158 0.999873996 -0.000321587207
vn -0.0158710158 0.999873996 -0.000321587207
vn -0.0158710158 0.999873996 -0.000321587207
vn -0.0158710158 0.999873996 -0.000321587207
vn -0.0158710158 0.999873996 -0.000321587207
vn -0.0158710158 0.0158710158 0.999748079
vn -0.0158710158 0.0158710158 0.999748079
vn -0.0158710158 0.0158710158 0.999748079
vn -0.0158710158 0.0158710158 0.999748079
vn -0.0158710158 0.999873996 -0.000321587207
vn -0.0158710158 0.999873996 -0.000321587207
vn -0.0158710158 0.999873996 -0.000321587207
vn -0.0158710158 0.999873996 -0.000321587207
vn 0.999873996 0.0158710158 -0.000321587206
vn 0.999873996 0.0158710158 -0.000321587206
vn 0.999873996 0.0158710158 -0.000321587206
vn 0.999873996 0.0158710158 -0.000321587206
vn 0.999873996 0.0158710158 -0.000321587206
vn 0.999873996 0.0158710158 -0.000321587206
vn 0.999873996 0.0158710158 -0.000321587206
vn 0.999873996 0.0158710158 -0.000321587206
vn 0.999873996 0.0158710158 -0.000321587206
vn 0.999873996 0.0158710158 -0.000321587206
vn 0.999873996 0.0158710158 -0.000321587206
vn 0.999873996 0.0158710158 -0.000321587206
vn 0.999873996 0.0158710158 -0.000321587206
vn 0.999873996 0.0158710158 -0.000321587206
vn 0.999873996 0.0158710158 -0.000321587206
vn 0.999873996 0.0158710158 -0.000321587206
vn 0.777679774 -0.618969616 -0.109958093
vn 0.777679774 -0.618969616 -0.109958093
vn 0.777679774 -0.618969616 -0.109958093
vn 0.777679774 -0.618969616 -0.109958093
vn 0.777679774 -0.618969616 -0.109958093
vn 0.675013462 0.737805412 -0
vn 0.675013462 0.737805412 -0
vn 0.618969616 0.777679774 -0.109958093
vn 0.618969616 0.777679774 -0.109958093
vn 0.514495755 0.857492926 -0
vn 0.514495755 0.857492926 -0
vn 0.999873996 0.0158710158 -0.000321587206
vn 0.999873996 0.0158710158 -0.000321587206
vn 0.999873996 0.0158710158 -0.000321587206
vn 0.999873996 0.0158710158 -0.000321587206
vn 0.999873996 0.0158710158 -0.000321587206
vn 0.999873996 0.0158710158 -0.000321587206
vn 0.999873996 0.0158710158 -0.000321587206
vn 0.999873996 0.0158710158 -0.000321587206
vn 0.999873996 0.0158710158 -0.000321587206
vn 0.999873996 0.0158710158 -0.000321587206
vn 0.999873996 0.0158710158 -0.000321587206
vn 0.999873996 0.0158710158 -0.000321587206
vn 0.999873996 0.0158710158 -0.000321587206
vn 0.999873996 0.0158710158 -0.000321587206
vn 0.999873996 0.0158710158 -0.000321587206
vn 0.999873996 0.0158710158 -0.000321587206
vn 0.587227585 -0.809421806 -0.000321587206
vn 0.587227585 -0.809421806 -0.000321587206
vn 0.587227585 -0.809421806 -0.000321587206
vn 0.587227585 -0.809421806 -0.000321587206
vn 0.587227585 0.809421806 -0.000321587207
vn 0.587227585 0.809421806 -0.000321587207
vn 0.587227585 0.809421806 -0.000321587207
vn 0.587227585 0.809421806 -0.000321587207
vn 0.999873996 0.0158710158 -0.000321587206
vn 0.999873996 0.0158710158 -0.000321587206
vn 0.999873996 0.0158710158 -0.000321587206
vn 0.999873996 0.0158710158 -0.000321587206
vn 0.83446461 0.551061535 -0
vn 0.83446461 0.551061535 -0
vn 0.83446461 0.551061535 -0
vn 0.83446461 0.551061535 -0
g Casa01_04_0
f 3/3/3 2/2/2 1/1/1
f 4/4/4 3/3/3 1/1/1
f 7/7/7 6/6/6 5/5/5
f 8/8/8 7/7/7 5/5/5
g Casa01_04_1
f 11/11/11 10/10/10 9/9/9
f 14/14/14 13/13/13 12/12/12
f 17/17/17 16/16/16 15/15/15
f 18/18/18 17/17/17 15/15/15
f 19/19/19 17/17/17 18/18/18
f 20/20/20 19/19/19 18/18/18
f 21/21/21 19/19/19 20/20/20
f 22/22/22 21/21/21 20/20/20
f 25/25/25 24/24/24 23/23/23
f 26/26/26 25/25/25 23/23/23
f 26/26/26 23/23/23 27/27/27
f 23/23/23 28/28/28 27/27/27
f 27/27/27 28/28/28 29/29/29
f 28/28/28 30/30/30 29/29/29
f 33/33/33 32/32/32 31/31/31
f 34/34/34 33/33/33 31/31/31
f 35/35/35 33/33/33 34/34/34
f 36/36/36 35/35/35 34/34/34
f 39/39/39 38/38/38 37/37/37
f 37/37/37 40/40/40 39/39/39
f 37/37/37 41/41/41 40/40/40
f 41/41/41 42/42/42 40/40/40
f 41/41/41 43/43/43 42/42/42
f 43/43/43 44/44/44 42/42/42
f 43/43/43 45/45/45 44/44/44
f 48/48/48 47/47/47 46/46/46
f 49/49/49 48/48/48 46/46/46
f 52/52/52 51/51/51 50/50/50
f 53/53/53 52/52/52 50/50/50
f 56/56/56 55/55/55 54/54/54
f 57/57/57 56/56/56 54/54/54
f 60/60/60 59/59/59 58/58/58
f 61/61/61 60/60/60 58/58/58
f 64/64/64 63/63/63 62/62/62
f 65/65/65 64/64/64 62/62/62
f 68/68/68 67/67/67 66/66/66
f 69/69/69 68/68/68 66/66/66
f 72/72/72 71/71/71 70/70/70
f 73/73/73 72/72/72 70/70/70
f 76/76/76 75/75/75 74/74/74
f 77/77/77 76/76/76 74/74/74
f 80/80/80 79/79/79 78/78/78
f 81/81/81 80/80/80 78/78/78
f 84/84/84 83/83/83 82/82/82
f 85/85/85 84/84/84 82/82/82
f 88/88/88 87/87/87 86/86/86
f 89/89/89 88/88/88 86/86/86
f 92/92/92 91/91/91 90/90/90
f 93/93/93 92/92/92 90/90/90
f 96/96/96 95/95/95 94/94/94
f 97/97/97 96/96/96 94/94/94
f 100/100/100 99/99/99 98/98/98
f 101/101/101 100/100/100 98/98/98
f 104/104/104 103/103/103 102/102/102
f 104/104/104 102/102/102 105/105/105
f 106/106/106 104/104/104 105/105/105
f 109/109/109 108/108/108 107/107/107
f 110/110/110 109/109/109 107/107/107
f 111/111/111 109/109/109 110/110/110
f 112/112/112 111/111/111 110/110/110
f 115/115/115 114/114/114 113/113/113
f 116/116/116 115/115/115 113/113/113
f 119/119/119 118/118/118 117/117/117
f 120/120/120 119/119/119 117/117/117
f 123/123/123 122/122/122 121/121/121
f 124/124/124 123/123/123 121/121/121
f 127/127/127 126/126/126 125/125/125
f 128/128/128 127/127/127 125/125/125
f 131/131/131 130/130/130 129/129/129
f 132/132/132 131/131/131 129/129/129
f 135/135/135 134/134/134 133/133/133
f 136/136/136 135/135/135 133/133/133
f 139/139/139 138/138/138 137/137/137
f 140/140/140 139/139/139 137/137/137
f 143/143/143 142/142/142 141/141/141
f 144/144/144 143/143/143 141/141/141
