g IS4_MDL_EscenarioPB_Escombro_14
v 0.0818948448 -0.0406707376 0.0899376273
v -0.0732418001 -0.0276169963 -0.0871527493
v -0.142502502 -0.0323939137 -0.0336270519
v 0.0818447173 0.0274424348 0.0901050195
v -0.142547742 0.0357191823 -0.0334597379
v -0.07328704 0.0404960997 -0.0869853571
v 0.0818447173 0.0274424348 0.0901050195
v 0.0818948448 -0.0406707376 0.0899376273
v -0.142502502 -0.0323939137 -0.0336270519
v -0.142547742 0.0357191823 -0.0334597379
v -0.142547742 0.0357191823 -0.0334597379
v -0.142502502 -0.0323939137 -0.0336270519
v -0.0732418001 -0.0276169963 -0.0871527493
v -0.07328704 0.0404960997 -0.0869853571
v -0.07328704 0.0404960997 -0.0869853571
v -0.0732418001 -0.0276169963 -0.0871527493
v 0.0818948448 -0.0406707376 0.0899376273
v 0.0818447173 0.0274424348 0.0901050195
vt 0.865722656 0.207397461
vt 0.898925781 0.125366211
vt 0.879882812 0.125366211
vt 0.865722656 0.207397461
vt 0.879882812 0.125366211
vt 0.898925781 0.125366211
vt 0.990234375 0.3984375
vt 0.971191406 0.3984375
vt 0.973144531 0.470214844
vt 0.9921875 0.470458984
vt 0.946777344 0.447509766
vt 0.927734375 0.447265625
vt 0.928710938 0.470214844
vt 0.947753906 0.470458984
vt 0.970703125 0.407226562
vt 0.951171875 0.407470703
vt 0.948242188 0.470458984
vt 0.967285156 0.470214844
vn 0.00713348389 -0.996582031 -0.0797119141
vn 0.00713348389 -0.996582031 -0.0797119141
vn 0.00713348389 -0.996582031 -0.0797119141
vn -0.00713348389 0.996582031 0.0797119141
vn -0.00713348389 0.996582031 0.0797119141
vn -0.00713348389 0.996582031 0.0797119141
vn -0.482421875 -0.00249099731 0.875976562
vn -0.482421875 -0.00249099731 0.875976562
vn -0.482421875 -0.00249099731 0.875976562
vn -0.482421875 -0.00249099731 0.875976562
vn -0.611328125 0.00153827667 -0.791015625
vn -0.611328125 0.00153827667 -0.791015625
vn -0.611328125 0.00153827667 -0.791015625
vn -0.611328125 0.00153827667 -0.791015625
vn 0.752441406 0.00214576721 -0.658691406
vn 0.752441406 0.00214576721 -0.658691406
vn 0.752441406 0.00214576721 -0.658691406
vn 0.752441406 0.00214576721 -0.658691406
g IS4_MDL_EscenarioPB_Escombro_14_0
f 3/3/3 2/2/2 1/1/1
f 6/6/6 5/5/5 4/4/4
f 9/9/9 8/8/8 7/7/7
f 10/10/10 9/9/9 7/7/7
f 13/13/13 12/12/12 11/11/11
f 14/14/14 13/13/13 11/11/11
f 17/17/17 16/16/16 15/15/15
f 18/18/18 17/17/17 15/15/15
