g GroundLantern
v -0.00450294465 0.434146881 0.00450294465
v -0.0140347667 0.438872278 0.0140347537
v 0.0140347667 0.438872278 0.0140347537
v -0.00450294465 0.434146881 0.00450294465
v 0.0140347667 0.438872278 0.0140347537
v 0.00450294465 0.434146881 0.00450294465
v 0.0536515415 0.343672931 -0.0536515266
v 0.0536515415 0.1906735 -0.0536515266
v 0.052735135 0.19067362 -0.0430203937
v 0.052735135 0.343672931 -0.0430203937
v 0.0536515415 0.1906735 -0.0536515266
v 0.0536515415 0.343672931 -0.0536515266
v 0.0430204011 0.343672931 -0.0527351685
v 0.0430204011 0.19067362 -0.0527351685
v -0.0536515415 0.343672931 -0.0536515303
v -0.0536515415 0.19067362 -0.0536515303
v -0.0430204384 0.19067362 -0.0527351759
v -0.0430204384 0.343672931 -0.0527351759
v -0.0536515415 0.19067362 -0.0536515303
v -0.0536515415 0.343672931 -0.0536515303
v -0.0527351759 0.343672931 -0.0430204086
v -0.0527351759 0.19067362 -0.0430204086
v -0.0536515415 0.343672931 0.0536515415
v -0.0536515415 0.1906735 0.0536515415
v -0.0527351759 0.19067362 0.0430204049
v -0.0527351759 0.343672931 0.0430204049
v -0.0536515415 0.1906735 0.0536515415
v -0.0536515415 0.343672931 0.0536515415
v -0.0430204384 0.343672931 0.0527351685
v -0.0430204384 0.19067362 0.0527351685
v 0.0536515415 0.343672931 0.0536515415
v 0.0536515415 0.19067362 0.0536515415
v 0.0430204011 0.19067362 0.0527351685
v 0.0430204011 0.343672931 0.0527351685
v 0.0536515415 0.19067362 0.0536515415
v 0.0536515415 0.343672931 0.0536515415
v 0.052735135 0.343672931 0.0430204049
v 0.052735135 0.19067362 0.0430204049
v 0.00958663877 0.429053247 -0.00958667602
v 0.0121409986 0.420480877 -0.0121410014
v 0.0121409986 0.420480877 0.0121409977
v 0.00958663877 0.429053247 0.00958668068
v -0.00958667696 0.429053247 -0.00958667882
v -0.0121410368 0.420480877 -0.0121410014
v 0.0121409986 0.420480877 -0.0121410014
v 0.00958663877 0.429053247 -0.00958667602
v -0.00958667696 0.429053247 0.00958668068
v -0.0121410368 0.420480877 0.0121409977
v -0.0121410368 0.420480877 -0.0121410014
v -0.00958667696 0.429053247 -0.00958667882
v 0.00958663877 0.429053247 0.00958668068
v 0.0121409986 0.420480877 0.0121409977
v -0.0121410368 0.420480877 0.0121409977
v -0.00958667696 0.429053247 0.00958668068
v 0.00958663877 0.429053247 -0.00958667602
v 0.00450294465 0.429053247 -0.00450294837
v -0.00450294465 0.429053247 -0.00450294837
v -0.00958667696 0.429053247 -0.00958667882
v -0.00958667696 0.429053247 -0.00958667882
v -0.00450294465 0.429053247 -0.00450294837
v -0.00450294465 0.429053247 0.00450294465
v -0.00958667696 0.429053247 0.00958668068
v -0.00958667696 0.429053247 0.00958668068
v -0.00450294465 0.429053247 0.00450294465
v 0.00450294465 0.429053247 0.00450294465
v 0.00958663877 0.429053247 0.00958668068
v 0.00958663877 0.429053247 0.00958668068
v 0.00450294465 0.429053247 0.00450294465
v 0.00450294465 0.429053247 -0.00450294837
v 0.00958663877 0.429053247 -0.00958667602
v 0.00450294465 0.429053247 -0.00450294837
v 0.00450294465 0.434146881 -0.00450294837
v -0.00450294465 0.434146881 -0.00450294837
v -0.00450294465 0.429053247 -0.00450294837
v -0.00450294465 0.429053247 -0.00450294837
v -0.00450294465 0.434146881 -0.00450294837
v -0.00450294465 0.434146881 0.00450294465
v -0.00450294465 0.429053247 0.00450294465
v -0.00450294465 0.429053247 0.00450294465
v -0.00450294465 0.434146881 0.00450294465
v 0.00450294465 0.434146881 0.00450294465
v 0.00450294465 0.429053247 0.00450294465
v 0.00450294465 0.429053247 0.00450294465
v 0.00450294465 0.434146881 0.00450294465
v 0.00450294465 0.434146881 -0.00450294837
v 0.00450294465 0.429053247 -0.00450294837
v 0.00450294465 0.434146881 -0.00450294837
v 0.0140347667 0.438872278 -0.0140347648
v -0.0140347667 0.438872278 -0.0140347648
v -0.00450294465 0.434146881 -0.00450294837
v -0.00450294465 0.434146881 -0.00450294837
v -0.0140347667 0.438872278 -0.0140347648
v -0.0140347667 0.438872278 0.0140347537
v -0.00450294465 0.434146881 0.00450294465
v 0.00450294465 0.434146881 0.00450294465
v 0.0140347667 0.438872278 0.0140347537
v 0.0140347667 0.438872278 -0.0140347648
v 0.00450294465 0.434146881 -0.00450294837
v 0.0140347667 0.438872278 -0.0140347648
v -0.00893066358 0.465104312 -0.00893065799
v -0.0140347667 0.438872278 -0.0140347648
v 0.00893066358 0.465104312 -0.00893065799
v -0 0.472622901 -2.71195288E-09
v -0.0140347667 0.438872278 -0.0140347648
v -0.00893066358 0.465104312 0.00893065426
v -0.0140347667 0.438872278 0.0140347537
v -0.00893066358 0.465104312 -0.00893065799
v -0 0.472622901 -2.71195288E-09
v -0.0140347667 0.438872278 0.0140347537
v 0.00893066358 0.465104312 0.00893065426
v 0.0140347667 0.438872278 0.0140347537
v -0.00893066358 0.465104312 0.00893065426
v -0 0.472622901 -2.71195288E-09
v 0.0140347667 0.438872278 0.0140347537
v 0.00893066358 0.465104312 -0.00893065799
v 0.0140347667 0.438872278 -0.0140347648
v 0.00893066358 0.465104312 0.00893065426
v -0 0.472622901 -2.71195288E-09
v 0.019239692 0.12226519 -0.0192397051
v -0 0.12226519 -0.0272090472
v -0 0.112690561 -3.45793461E-09
v 0.0272090528 0.12226519 -3.25520833E-09
v 0.0909912884 0.182475328 -3.99484712E-09
v 0.0643405914 0.182475328 -0.064340584
v 0.0643405914 0.182475328 0.0643405989
v 0.019239692 0.12226519 0.0192396976
v -0 0.182475328 0.0909913033
v -0 0.12226519 0.0272090398
v -0.0643405914 0.182475328 0.0643405989
v -0.0192397311 0.12226519 0.0192396976
v -0.0272091292 0.12226519 -3.25520833E-09
v -0 0.201997787 -0.0820694715
v -0.0580319203 0.201997787 -0.058031898
v -0.0635455698 0.193855479 -0.0635454878
v -0 0.193855479 -0.0898668617
v 0.0580318831 0.201997787 -0.058031898
v 0.0635454133 0.193855479 -0.0635454878
v 0.0643405914 0.182475328 -0.064340584
v -0 0.182475328 -0.0909913033
v -0.0643405914 0.182475328 -0.0643405989
v -0.0580319203 0.201997787 -0.058031898
v -0.0820694715 0.201997787 -3.96816091E-09
v -0.0898668617 0.193855479 -4.15264489E-09
v -0.0635455698 0.193855479 -0.0635454878
v -0.0643405914 0.182475328 -0.0643405989
v -0.0909912884 0.182475328 -3.99484712E-09
v -0.0820694715 0.201997787 -3.96816091E-09
v -0.0580319203 0.201997787 0.058031898
v -0.0635455698 0.193855479 0.0635454804
v -0.0898668617 0.193855479 -4.15264489E-09
v -0.0909912884 0.182475328 -3.99484712E-09
v -0.0643405914 0.182475328 0.0643405989
v -0 0.201997787 0.0820694715
v 0.0580318831 0.201997787 0.058031898
v 0.0635454133 0.193855479 0.0635454804
v -0 0.193855479 0.0898668543
v -0.0580319203 0.201997787 0.058031898
v 0.0643405914 0.182475328 0.0643405989
v -0.0635455698 0.193855479 0.0635454804
v -0 0.182475328 0.0909913033
v -0.0643405914 0.182475328 0.0643405989
v 0.0580318831 0.201997787 0.058031898
v 0.0820694715 0.201997787 -3.96816091E-09
v 0.0898668244 0.193855479 -4.15264489E-09
v 0.0635454133 0.193855479 0.0635454804
v 0.0643405914 0.182475328 0.0643405989
v 0.0909912884 0.182475328 -3.99484712E-09
v 0.0820694715 0.201997787 -3.96816091E-09
v 0.0580318831 0.201997787 -0.058031898
v 0.0635454133 0.193855479 -0.0635454878
v 0.0898668244 0.193855479 -4.15264489E-09
v 0.0909912884 0.182475328 -3.99484712E-09
v 0.0643405914 0.182475328 -0.064340584
v 0.0643405914 0.182475328 -0.064340584
v -0 0.12226519 -0.0272090472
v 0.019239692 0.12226519 -0.0192397051
v -0 0.182475328 -0.0909913033
v -0.0192397311 0.12226519 -0.0192397069
v -0 0.112690561 -3.45793461E-09
v -0.0643405914 0.182475328 -0.0643405989
v -0.0272091292 0.12226519 -3.25520833E-09
v -0.0909912884 0.182475328 -3.99484712E-09
v -0.0192397311 0.12226519 0.0192396976
v -0.0643405914 0.182475328 0.0643405989
v 0.0642639548 0.341971576 -0.0642639324
v -0 0.350113869 -0.0954429209
v -0 0.341971576 -0.0908829123
v 0.0674882904 0.350113869 -0.0674883574
v 0.0908829123 0.341971576 -4.23082192E-09
v 0.0954429209 0.350113869 -4.31585256E-09
v -0 0.341971576 -0.0908829123
v -0 0.350113869 -0.0954429209
v -0.0674883649 0.350113869 -0.0674883574
v -0.0642639175 0.341971576 -0.0642639324
v -0.0954429209 0.350113869 -4.31585256E-09
v -0.090882875 0.341971576 -4.23082192E-09
v -0.090882875 0.341971576 -4.23082192E-09
v -0.0954429209 0.350113869 -4.31585256E-09
v -0.0674883649 0.350113869 0.0674883574
v -0.0642639175 0.341971576 0.0642639324
v -0 0.350113869 0.0954429209
v -0 0.341971576 0.0908828974
v -0 0.341971576 0.0908828974
v -0 0.350113869 0.0954429209
v 0.0674882904 0.350113869 0.0674883574
v 0.0642639548 0.341971576 0.0642639324
v 0.0954429209 0.350113869 -4.31585256E-09
v 0.0908829123 0.341971576 -4.23082192E-09
v 0.019239692 0.421704084 0.0192396976
v 0.0674882904 0.350113869 0.0674883574
v -0 0.350113869 0.0954429209
v -0 0.421704084 0.0272090398
v -0 0.421704203 -3.45793461E-09
v -0.0674883649 0.350113869 0.0674883574
v -0.0192397311 0.421704084 0.0192396976
v 0.0272090528 0.421704084 -3.25520833E-09
v -0.0272091292 0.421704084 -3.25520833E-09
v 0.019239692 0.421704084 -0.0192397051
v -0.0192397311 0.421704084 -0.0192397069
v -0 0.421704084 -0.0272090472
v 0.0272090528 0.421704084 -3.25520833E-09
v 0.0674882904 0.350113869 0.0674883574
v 0.019239692 0.421704084 0.0192396976
v 0.0954429209 0.350113869 -4.31585256E-09
v 0.019239692 0.421704084 -0.0192397051
v 0.0674882904 0.350113869 -0.0674883574
v -0 0.421704084 -0.0272090472
v 0.0674882904 0.350113869 -0.0674883574
v 0.019239692 0.421704084 -0.0192397051
v -0 0.350113869 -0.0954429209
v -0.0192397311 0.421704084 -0.0192397069
v -0.0674883649 0.350113869 -0.0674883574
v -0.0272091292 0.421704084 -3.25520833E-09
v -0.0674883649 0.350113869 -0.0674883574
v -0.0192397311 0.421704084 -0.0192397069
v -0.0954429209 0.350113869 -4.31585256E-09
v -0.0192397311 0.421704084 0.0192396976
v -0.0674883649 0.350113869 0.0674883574
v 0.0480581671 0.0112519963 -0.0755429119
v -0.0480582044 0.0112519963 -0.0755429119
v -0.0480582044 0 -0.0755429119
v 0.0480581671 0 -0.0755429119
v -0.0480582044 0 -0.0755429119
v -0.0480582044 0.0112519963 -0.0755429119
v -0.087222971 0.0112519963 -4.12174694E-09
v -0.087222971 0 -4.12174694E-09
v -0.087222971 0 -4.12174694E-09
v -0.087222971 0.0112519963 -4.12174694E-09
v -0.0480582044 0.0112519963 0.0755429044
v -0.0480582044 0 0.0755429044
v -0.0480582044 0.0112519963 0.0755429044
v 0.0480581671 0.0112519963 0.0755429044
v 0.0480581671 0 0.0755429044
v -0.0480582044 0 0.0755429044
v 0.0480581671 0 0.0755429044
v 0.0480581671 0.0112519963 0.0755429044
v 0.0872228965 0.0112519963 -4.12174694E-09
v 0.0872228965 0 -4.12174694E-09
v 0.0872228965 0 -4.12174694E-09
v 0.0872228965 0.0112519963 -4.12174694E-09
v 0.0480581671 0.0112519963 -0.0755429119
v 0.0480581671 0 -0.0755429119
v 0.0189594273 0.0397639126 -0.0298025664
v -0.0189595781 0.0397639126 -0.0298025701
v -0.0357486717 0.0170967635 -0.0561934635
v 0.0357485972 0.0170967635 -0.0561934635
v -0.0357486717 0.0170967635 -0.0561934635
v -0.0189595781 0.0397639126 -0.0298025701
v -0.0344105512 0.0397639126 -3.28448269E-09
v -0.0648818165 0.0170967635 -3.45592821E-09
v -0.0648818165 0.0170967635 -3.45592821E-09
v -0.0344105512 0.0397639126 -3.28448269E-09
v -0.0189595781 0.0397639126 0.0298025645
v -0.0357486717 0.0170967635 0.0561934635
v -0.0189595781 0.0397639126 0.0298025645
v 0.0189594273 0.0397639126 0.0298025645
v 0.0357485972 0.0170967635 0.0561934635
v -0.0357486717 0.0170967635 0.0561934635
v 0.0357485972 0.0170967635 0.0561934635
v 0.0189594273 0.0397639126 0.0298025645
v 0.0344103985 0.0397639126 -3.28448269E-09
v 0.0648818165 0.0170967635 -3.45592821E-09
v 0.0648818165 0.0170967635 -3.45592821E-09
v 0.0344103985 0.0397639126 -3.28448269E-09
v 0.0189594273 0.0397639126 -0.0298025664
v 0.0357485972 0.0170967635 -0.0561934635
v -0.00931384973 0.122349113 -0.0146405073
v -0.0189595781 0.0397639126 -0.0298025701
v 0.0189594273 0.0397639126 -0.0298025664
v 0.00931384973 0.122349113 -0.0146405017
v -0.0189595781 0.0397639126 -0.0298025701
v -0.00931384973 0.122349113 -0.0146405073
v -0.0169041436 0.122349113 -3.21331739E-09
v -0.0344105512 0.0397639126 -3.28448269E-09
v -0.00931384973 0.122349113 0.0146404952
v -0.0189595781 0.0397639126 0.0298025645
v 0.00931384973 0.122349113 0.0146404952
v 0.0189594273 0.0397639126 0.0298025645
v -0.0189595781 0.0397639126 0.0298025645
v -0.00931384973 0.122349113 0.0146404952
v 0.0189594273 0.0397639126 0.0298025645
v 0.00931384973 0.122349113 0.0146404952
v 0.0169041436 0.122349113 -3.21331739E-09
v 0.0344103985 0.0397639126 -3.28448269E-09
v 0.00931384973 0.122349113 -0.0146405017
v 0.0189594273 0.0397639126 -0.0298025664
v -0.087222971 0.0112519963 -4.12174694E-09
v -0.0357486717 0.0170967635 0.0561934635
v -0.0480582044 0.0112519963 0.0755429044
v 0.0480581671 0.0112519963 0.0755429044
v -0.0648818165 0.0170967635 -3.45592821E-09
v 0.0357485972 0.0170967635 0.0561934635
v 0.0648818165 0.0170967635 -3.45592821E-09
v 0.0872228965 0.0112519963 -4.12174694E-09
v -0.0480582044 0.0112519963 -0.0755429119
v -0.0357486717 0.0170967635 -0.0561934635
v 0.0357485972 0.0170967635 -0.0561934635
v 0.0480581671 0.0112519963 -0.0755429119
v -0 0.339347541 -4.77078066E-09
v 0.0642639548 0.341971576 0.0642639324
v 0.0908829123 0.341971576 -4.23082192E-09
v -0 0.341971576 0.0908828974
v 0.0642639548 0.341971576 -0.0642639324
v -0.0642639175 0.341971576 0.0642639324
v -0 0.341971576 -0.0908829123
v -0.090882875 0.341971576 -4.23082192E-09
v -0.0642639175 0.341971576 -0.0642639324
v -0 0.204621807 -4.77078066E-09
v 0.0820694715 0.201997787 -3.96816091E-09
v 0.0580318831 0.201997787 0.058031898
v -0 0.201997787 0.0820694715
v 0.0580318831 0.201997787 -0.058031898
v -0.0580319203 0.201997787 0.058031898
v -0 0.201997787 -0.0820694715
v -0.0820694715 0.201997787 -3.96816091E-09
v -0.0580319203 0.201997787 -0.058031898
vt 0.811523438 0.0775146484
vt 0.807617188 0.0815429688
vt 0.818359375 0.0815429688
vt 0.811523438 0.0775146484
vt 0.818359375 0.0815429688
vt 0.814453125 0.0775146484
vt 0.796875 0.141967773
vt 0.736816406 0.141967773
vt 0.736816406 0.146118164
vt 0.796875 0.146118164
vt 0.736816406 0.141967773
vt 0.796875 0.141967773
vt 0.796875 0.137695312
vt 0.736816406 0.137695312
vt 0.796875 0.141967773
vt 0.736816406 0.141967773
vt 0.736816406 0.146118164
vt 0.796875 0.146118164
vt 0.736816406 0.141967773
vt 0.796875 0.141967773
vt 0.796875 0.137695312
vt 0.736816406 0.137695312
vt 0.736816406 0.141967773
vt 0.796875 0.141967773
vt 0.796875 0.137695312
vt 0.736816406 0.137695312
vt 0.796875 0.141967773
vt 0.736816406 0.141967773
vt 0.736816406 0.146118164
vt 0.796875 0.146118164
vt 0.736816406 0.141967773
vt 0.796875 0.141967773
vt 0.796875 0.137695312
vt 0.736816406 0.137695312
vt 0.796875 0.141967773
vt 0.736816406 0.141967773
vt 0.736816406 0.146118164
vt 0.796875 0.146118164
vt 0.81640625 0.0736083984
vt 0.817382812 0.0702514648
vt 0.80859375 0.0702514648
vt 0.809570312 0.0736083984
vt 0.81640625 0.0736694336
vt 0.817382812 0.0703125
vt 0.80859375 0.0703125
vt 0.809570312 0.0736694336
vt 0.81640625 0.0736083984
vt 0.817382812 0.0702514648
vt 0.80859375 0.0702514648
vt 0.809570312 0.0736083984
vt 0.81640625 0.0737304688
vt 0.817382812 0.0703125
vt 0.80859375 0.0703125
vt 0.809570312 0.0737304688
vt 0.809570312 0.0736694336
vt 0.811035156 0.0756225586
vt 0.814453125 0.0756225586
vt 0.81640625 0.0736694336
vt 0.809570312 0.0736083984
vt 0.811035156 0.0755615234
vt 0.814453125 0.0755615234
vt 0.81640625 0.0736083984
vt 0.809570312 0.0737304688
vt 0.811523438 0.0756225586
vt 0.814453125 0.0756225586
vt 0.81640625 0.0737304688
vt 0.809570312 0.0736083984
vt 0.811035156 0.0755615234
vt 0.814453125 0.0755615234
vt 0.81640625 0.0736083984
vt 0.811035156 0.0756225586
vt 0.811035156 0.0775146484
vt 0.814453125 0.0775146484
vt 0.814453125 0.0756225586
vt 0.811035156 0.0755615234
vt 0.811035156 0.0775146484
vt 0.814453125 0.0775146484
vt 0.814453125 0.0755615234
vt 0.811523438 0.0756225586
vt 0.811523438 0.0775146484
vt 0.814453125 0.0775146484
vt 0.814453125 0.0756225586
vt 0.811035156 0.0755615234
vt 0.811035156 0.0775146484
vt 0.814453125 0.0775146484
vt 0.814453125 0.0755615234
vt 0.811035156 0.0775146484
vt 0.807617188 0.0815429688
vt 0.818359375 0.0815429688
vt 0.814453125 0.0775146484
vt 0.811035156 0.0775146484
vt 0.807617188 0.0815429688
vt 0.818359375 0.0815429688
vt 0.814453125 0.0775146484
vt 0.811035156 0.0775146484
vt 0.807617188 0.0815429688
vt 0.818359375 0.0815429688
vt 0.814453125 0.0775146484
vt 0.807617188 0.0815429688
vt 0.81640625 0.0916137695
vt 0.818359375 0.0815429688
vt 0.809570312 0.0916137695
vt 0.812988281 0.0960083008
vt 0.807617188 0.0815429688
vt 0.81640625 0.0916748047
vt 0.818359375 0.0815429688
vt 0.809570312 0.0916748047
vt 0.812988281 0.0961303711
vt 0.807617188 0.0815429688
vt 0.81640625 0.0916137695
vt 0.818359375 0.0815429688
vt 0.809570312 0.0916137695
vt 0.812988281 0.0960083008
vt 0.807617188 0.0815429688
vt 0.81640625 0.0916748047
vt 0.818359375 0.0815429688
vt 0.809570312 0.0916748047
vt 0.812988281 0.0961303711
vt 0.9609375 0.18347168
vt 0.959472656 0.187866211
vt 0.965820312 0.187133789
vt 0.96484375 0.181152344
vt 0.96484375 0.161987305
vt 0.947265625 0.169921875
vt 0.982910156 0.168945312
vt 0.969238281 0.182373047
vt 0.990722656 0.186523438
vt 0.971679688 0.186523438
vt 0.983886719 0.204467773
vt 0.970214844 0.190917969
vt 0.966308594 0.193115234
vt 0.768554688 0.00269508362
vt 0.749023438 0.00269508362
vt 0.749023438 0.00562286377
vt 0.768554688 0.00562286377
vt 0.788574219 0.00269508362
vt 0.788574219 0.00562286377
vt 0.788574219 0.00885772705
vt 0.768554688 0.00885772705
vt 0.749023438 0.00885772705
vt 0.749023438 0.00269508362
vt 0.730957031 0.00269508362
vt 0.730957031 0.00562286377
vt 0.749023438 0.00562286377
vt 0.749023438 0.00885772705
vt 0.730957031 0.00885772705
vt 0.806640625 0.00269508362
vt 0.788574219 0.00269508362
vt 0.788574219 0.00562286377
vt 0.806640625 0.00562286377
vt 0.806640625 0.00885772705
vt 0.788574219 0.00885772705
vt 0.768554688 0.00269508362
vt 0.749023438 0.00269508362
vt 0.749023438 0.00562286377
vt 0.768554688 0.00562286377
vt 0.788574219 0.00269508362
vt 0.749023438 0.00885772705
vt 0.788574219 0.00562286377
vt 0.768554688 0.00885772705
vt 0.788574219 0.00885772705
vt 0.749023438 0.00269508362
vt 0.730957031 0.00269508362
vt 0.730957031 0.00562286377
vt 0.749023438 0.00562286377
vt 0.749023438 0.00885772705
vt 0.730957031 0.00885772705
vt 0.806640625 0.00269508362
vt 0.788574219 0.00269508362
vt 0.788574219 0.00562286377
vt 0.806640625 0.00562286377
vt 0.806640625 0.00885772705
vt 0.788574219 0.00885772705
vt 0.947265625 0.169921875
vt 0.959472656 0.187866211
vt 0.9609375 0.18347168
vt 0.940429688 0.187988281
vt 0.961914062 0.191894531
vt 0.965820312 0.187133789
vt 0.948242188 0.205566406
vt 0.966308594 0.193115234
vt 0.966308594 0.212402344
vt 0.970214844 0.190917969
vt 0.983886719 0.204467773
vt 0.836425781 0.0520324707
vt 0.840332031 0.0344848633
vt 0.836425781 0.0344848633
vt 0.840332031 0.0520324707
vt 0.836425781 0.0670776367
vt 0.840332031 0.0670776367
vt 0.836425781 0.0344848633
vt 0.840332031 0.0344848633
vt 0.840332031 0.0169677734
vt 0.836425781 0.0169677734
vt 0.840332031 0.00189876556
vt 0.836425781 0.00189876556
vt 0.836425781 0.0670776367
vt 0.840332031 0.0670776367
vt 0.840332031 0.0520324707
vt 0.836425781 0.0520324707
vt 0.840332031 0.0344848633
vt 0.836425781 0.0344848633
vt 0.836425781 0.0344848633
vt 0.840332031 0.0344848633
vt 0.840332031 0.0169677734
vt 0.836425781 0.0169677734
vt 0.840332031 0.00189876556
vt 0.836425781 0.00189876556
vt 0.961914062 0.182739258
vt 0.9453125 0.168579102
vt 0.938476562 0.188232422
vt 0.959472656 0.186767578
vt 0.965332031 0.187255859
vt 0.946777344 0.20715332
vt 0.9609375 0.191040039
vt 0.965820312 0.181274414
vt 0.965332031 0.193115234
vt 0.970214844 0.183349609
vt 0.969238281 0.191650391
vt 0.971191406 0.18762207
vt 0.965820312 0.181274414
vt 0.9453125 0.168579102
vt 0.961914062 0.182739258
vt 0.964355469 0.159912109
vt 0.970214844 0.183349609
vt 0.984375 0.167236328
vt 0.971191406 0.18762207
vt 0.984375 0.167236328
vt 0.970214844 0.183349609
vt 0.992675781 0.186279297
vt 0.969238281 0.191650391
vt 0.985351562 0.205810547
vt 0.965332031 0.193115234
vt 0.985351562 0.205810547
vt 0.969238281 0.191650391
vt 0.966308594 0.214477539
vt 0.9609375 0.191040039
vt 0.946777344 0.20715332
vt 0.741699219 0.00157356262
vt 0.798339844 0.00157356262
vt 0.798339844 0.00815582275
vt 0.741699219 0.00815582275
vt 0.744628906 0.0080947876
vt 0.744628906 0.00151252747
vt 0.794921875 0.00164604187
vt 0.794921875 0.0082244873
vt 0.794921875 0.00815582275
vt 0.794921875 0.00157546997
vt 0.744628906 0.0016002655
vt 0.744628906 0.00817871094
vt 0.798339844 0.00158691406
vt 0.741699219 0.00158214569
vt 0.741699219 0.00816345215
vt 0.798339844 0.00816345215
vt 0.794921875 0.0080947876
vt 0.794921875 0.00151443481
vt 0.744628906 0.00165176392
vt 0.744628906 0.0082321167
vt 0.744628906 0.00812530518
vt 0.744628906 0.00154495239
vt 0.794921875 0.00160884857
vt 0.794921875 0.00818634033
vt 0.737792969 0.0152893066
vt 0.756347656 0.0152893066
vt 0.754882812 0.0032787323
vt 0.734863281 0.0032787323
vt 0.754882812 0.0032787323
vt 0.756347656 0.0152893066
vt 0.774414062 0.0152893066
vt 0.775390625 0.0032787323
vt 0.775390625 0.0032787323
vt 0.774414062 0.0152893066
vt 0.790039062 0.0152893066
vt 0.793945312 0.0032787323
vt 0.737304688 0.0152893066
vt 0.755859375 0.0152893066
vt 0.754394531 0.0032787323
vt 0.733886719 0.0032787323
vt 0.754394531 0.0032787323
vt 0.755859375 0.0152893066
vt 0.774414062 0.0152893066
vt 0.774902344 0.0032787323
vt 0.774902344 0.0032787323
vt 0.774414062 0.0152893066
vt 0.790039062 0.0152893066
vt 0.793945312 0.0032787323
vt 0.691894531 0.0361022949
vt 0.688476562 0.00455093384
vt 0.668457031 0.00455093384
vt 0.678222656 0.0361022949
vt 0.688476562 0.00455093384
vt 0.691894531 0.0361022949
vt 0.704589844 0.0361022949
vt 0.708496094 0.00455093384
vt 0.716796875 0.0361022949
vt 0.726074219 0.00455093384
vt 0.69140625 0.0361022949
vt 0.687988281 0.00455093384
vt 0.667480469 0.00455093384
vt 0.677246094 0.0361022949
vt 0.687988281 0.00455093384
vt 0.69140625 0.0361022949
vt 0.704101562 0.0361022949
vt 0.708496094 0.00455093384
vt 0.716308594 0.0361022949
vt 0.725585938 0.00455093384
vt 0.884277344 0.134399414
vt 0.897949219 0.119689941
vt 0.89453125 0.114440918
vt 0.919921875 0.114440918
vt 0.890136719 0.134399414
vt 0.916503906 0.119689941
vt 0.924316406 0.134399414
vt 0.930175781 0.134399414
vt 0.89453125 0.154296875
vt 0.897949219 0.149047852
vt 0.916503906 0.149047852
vt 0.919921875 0.154296875
vt 0.965820312 0.187133789
vt 0.947753906 0.206665039
vt 0.966796875 0.213867188
vt 0.939453125 0.188110352
vt 0.985351562 0.205322266
vt 0.946777344 0.168945312
vt 0.992675781 0.186279297
vt 0.965332031 0.160522461
vt 0.984375 0.167602539
vt 0.965820312 0.187133789
vt 0.983398438 0.168579102
vt 0.965332031 0.161865234
vt 0.947265625 0.169921875
vt 0.991210938 0.186279297
vt 0.940917969 0.187988281
vt 0.984375 0.204467773
vt 0.948730469 0.205688477
vt 0.966796875 0.212524414
vn -0.303710938 -0.902832031 0.303710938
vn -0.70703125 0.0211181641 0.70703125
vn 0.70703125 0.0211181641 0.70703125
vn -0.303710938 -0.902832031 0.303710938
vn 0.70703125 0.0211181641 0.70703125
vn 0.303710938 -0.902832031 0.303710938
vn 0.70703125 0 -0.70703125
vn 0.70703125 0 -0.70703125
vn 0.99609375 0 0.0858764648
vn 0.99609375 0 0.0858764648
vn 0.70703125 0 -0.70703125
vn 0.70703125 0 -0.70703125
vn -0.0858764648 0 -0.99609375
vn -0.0858764648 0 -0.99609375
vn -0.70703125 0 -0.70703125
vn -0.70703125 0 -0.70703125
vn 0.0858764648 0 -0.99609375
vn 0.0858764648 0 -0.99609375
vn -0.70703125 0 -0.70703125
vn -0.70703125 0 -0.70703125
vn -0.99609375 0 0.0858764648
vn -0.99609375 0 0.0858764648
vn -0.70703125 0 0.70703125
vn -0.70703125 0 0.70703125
vn -0.99609375 0 -0.0858764648
vn -0.99609375 0 -0.0858764648
vn -0.70703125 0 0.70703125
vn -0.70703125 0 0.70703125
vn 0.0858764648 0 0.99609375
vn 0.0858764648 0 0.99609375
vn 0.70703125 0 0.70703125
vn 0.70703125 0 0.70703125
vn -0.0858764648 0 0.99609375
vn -0.0858764648 0 0.99609375
vn 0.70703125 0 0.70703125
vn 0.70703125 0 0.70703125
vn 0.99609375 0 -0.0858764648
vn 0.99609375 0 -0.0858764648
vn 0.592285156 0.546386719 -0.592285156
vn 0.651855469 0.388427734 -0.651855469
vn 0.651855469 0.388427734 0.651855469
vn 0.592285156 0.546386719 0.592285156
vn -0.592285156 0.546386719 -0.592285156
vn -0.651855469 0.388427734 -0.651855469
vn 0.651855469 0.388427734 -0.651855469
vn 0.592285156 0.546386719 -0.592285156
vn -0.592285156 0.546386719 0.592285156
vn -0.651855469 0.388427734 0.651855469
vn -0.651855469 0.388427734 -0.651855469
vn -0.592285156 0.546386719 -0.592285156
vn 0.592285156 0.546386719 0.592285156
vn 0.651855469 0.388427734 0.651855469
vn -0.651855469 0.388427734 0.651855469
vn -0.592285156 0.546386719 0.592285156
vn 0.592285156 0.546386719 -0.592285156
vn 0.204345703 0.957519531 -0.204345703
vn -0.204345703 0.957519531 -0.204345703
vn -0.592285156 0.546386719 -0.592285156
vn -0.592285156 0.546386719 -0.592285156
vn -0.204345703 0.957519531 -0.204345703
vn -0.204345703 0.957519531 0.204345703
vn -0.592285156 0.546386719 0.592285156
vn -0.592285156 0.546386719 0.592285156
vn -0.204345703 0.957519531 0.204345703
vn 0.204345703 0.957519531 0.204345703
vn 0.592285156 0.546386719 0.592285156
vn 0.592285156 0.546386719 0.592285156
vn 0.204345703 0.957519531 0.204345703
vn 0.204345703 0.957519531 -0.204345703
vn 0.592285156 0.546386719 -0.592285156
vn 0.204345703 0.957519531 -0.204345703
vn 0.303710938 -0.902832031 -0.303710938
vn -0.303710938 -0.902832031 -0.303710938
vn -0.204345703 0.957519531 -0.204345703
vn -0.204345703 0.957519531 -0.204345703
vn -0.303710938 -0.902832031 -0.303710938
vn -0.303710938 -0.902832031 0.303710938
vn -0.204345703 0.957519531 0.204345703
vn -0.204345703 0.957519531 0.204345703
vn -0.303710938 -0.902832031 0.303710938
vn 0.303710938 -0.902832031 0.303710938
vn 0.204345703 0.957519531 0.204345703
vn 0.204345703 0.957519531 0.204345703
vn 0.303710938 -0.902832031 0.303710938
vn 0.303710938 -0.902832031 -0.303710938
vn 0.204345703 0.957519531 -0.204345703
vn 0.303710938 -0.902832031 -0.303710938
vn 0.70703125 0.0211181641 -0.70703125
vn -0.70703125 0.0211181641 -0.70703125
vn -0.303710938 -0.902832031 -0.303710938
vn -0.303710938 -0.902832031 -0.303710938
vn -0.70703125 0.0211181641 -0.70703125
vn -0.70703125 0.0211181641 0.70703125
vn -0.303710938 -0.902832031 0.303710938
vn 0.303710938 -0.902832031 0.303710938
vn 0.70703125 0.0211181641 0.70703125
vn 0.70703125 0.0211181641 -0.70703125
vn 0.303710938 -0.902832031 -0.303710938
vn 0.70703125 0.0211181641 -0.70703125
vn -0.666992188 0.332275391 -0.666992188
vn -0.70703125 0.0211181641 -0.70703125
vn 0.666992188 0.332275391 -0.666992188
vn -0 1 0
vn -0.70703125 0.0211181641 -0.70703125
vn -0.666992188 0.332275391 0.666992188
vn -0.70703125 0.0211181641 0.70703125
vn -0.666992188 0.332275391 -0.666992188
vn -0 1 0
vn -0.70703125 0.0211181641 0.70703125
vn 0.666992188 0.332275391 0.666992188
vn 0.70703125 0.0211181641 0.70703125
vn -0.666992188 0.332275391 0.666992188
vn -0 1 0
vn 0.70703125 0.0211181641 0.70703125
vn 0.666992188 0.332275391 -0.666992188
vn 0.70703125 0.0211181641 -0.70703125
vn 0.666992188 0.332275391 0.666992188
vn -0 1 0
vn 0.475585938 -0.740234375 -0.475585938
vn 1.1920929E-07 -0.740234375 -0.672363281
vn -0 -1 0
vn 0.672363281 -0.740234375 0
vn 0.794921875 -0.606445312 0
vn 0.562011719 -0.606445312 -0.562011719
vn 0.562011719 -0.606445312 0.562011719
vn 0.475585938 -0.740234375 0.475585938
vn -0 -0.606445312 0.794921875
vn -0 -0.740234375 0.672363281
vn -0.562011719 -0.606445312 0.562011719
vn -0.475585938 -0.740234375 0.475585938
vn -0.672363281 -0.740234375 0
vn -0 0.69140625 -0.722167969
vn -0.510742188 0.69140625 -0.510742188
vn -0.655761719 0.374511719 -0.655761719
vn -0 0.374511719 -0.927246094
vn 0.510742188 0.69140625 -0.510742188
vn 0.655761719 0.374511719 -0.655761719
vn 0.562011719 -0.606445312 -0.562011719
vn -0 -0.606445312 -0.794921875
vn -0.562011719 -0.606445312 -0.562011719
vn -0.510742188 0.69140625 -0.510742188
vn -0.722167969 0.69140625 0
vn -0.927246094 0.374511719 0
vn -0.655761719 0.374511719 -0.655761719
vn -0.562011719 -0.606445312 -0.562011719
vn -0.794921875 -0.606445312 0
vn -0.722167969 0.69140625 0
vn -0.510742188 0.69140625 0.510742188
vn -0.655761719 0.374511719 0.655761719
vn -0.927246094 0.374511719 0
vn -0.794921875 -0.606445312 0
vn -0.562011719 -0.606445312 0.562011719
vn -0 0.69140625 0.722167969
vn 0.510742188 0.69140625 0.510742188
vn 0.655761719 0.374511719 0.655761719
vn -0 0.374511719 0.927246094
vn -0.510742188 0.69140625 0.510742188
vn 0.562011719 -0.606445312 0.562011719
vn -0.655761719 0.374511719 0.655761719
vn -0 -0.606445312 0.794921875
vn -0.562011719 -0.606445312 0.562011719
vn 0.510742188 0.69140625 0.510742188
vn 0.722167969 0.69140625 0
vn 0.927246094 0.374511719 0
vn 0.655761719 0.374511719 0.655761719
vn 0.562011719 -0.606445312 0.562011719
vn 0.794921875 -0.606445312 0
vn 0.722167969 0.69140625 0
vn 0.510742188 0.69140625 -0.510742188
vn 0.655761719 0.374511719 -0.655761719
vn 0.927246094 0.374511719 0
vn 0.794921875 -0.606445312 0
vn 0.562011719 -0.606445312 -0.562011719
vn 0.562011719 -0.606445312 -0.562011719
vn 1.1920929E-07 -0.740234375 -0.672363281
vn 0.475585938 -0.740234375 -0.475585938
vn -0 -0.606445312 -0.794921875
vn -0.475585938 -0.740234375 -0.475585938
vn -0 -1 0
vn -0.562011719 -0.606445312 -0.562011719
vn -0.672363281 -0.740234375 0
vn -0.794921875 -0.606445312 0
vn -0.475585938 -0.740234375 0.475585938
vn -0.562011719 -0.606445312 0.562011719
vn 0.6171875 -0.488525391 -0.6171875
vn -0 0.583496094 -0.812011719
vn -0 -0.488525391 -0.872558594
vn 0.57421875 0.583496094 -0.57421875
vn 0.872558594 -0.488525391 -3.57627869E-07
vn 0.812011719 0.583496094 -1.78813934E-07
vn -0 -0.488525391 -0.872558594
vn -0 0.583496094 -0.812011719
vn -0.57421875 0.583496094 -0.57421875
vn -0.616699219 -0.488525391 -0.6171875
vn -0.812011719 0.583496094 0
vn -0.872558594 -0.488525391 2.38418579E-07
vn -0.872558594 -0.488525391 2.38418579E-07
vn -0.812011719 0.583496094 0
vn -0.57421875 0.583496094 0.57421875
vn -0.616699219 -0.488525391 0.6171875
vn -0 0.583496094 0.812011719
vn -0 -0.488525391 0.872558594
vn -0 -0.488525391 0.872558594
vn -0 0.583496094 0.812011719
vn 0.57421875 0.583496094 0.57421875
vn 0.6171875 -0.488525391 0.6171875
vn 0.812011719 0.583496094 -1.78813934E-07
vn 0.872558594 -0.488525391 -3.57627869E-07
vn 0.498291016 0.709472656 0.498291016
vn 0.57421875 0.583496094 0.57421875
vn -0 0.583496094 0.812011719
vn -0 0.709472656 0.704589844
vn -0 1 3.57627869E-07
vn -0.57421875 0.583496094 0.57421875
vn -0.498291016 0.709472656 0.498291016
vn 0.704589844 0.709472656 0
vn -0.704589844 0.709472656 -1.78813934E-07
vn 0.498291016 0.709472656 -0.498291016
vn -0.498291016 0.709472656 -0.498291016
vn -0 0.709472656 -0.704589844
vn 0.704589844 0.709472656 0
vn 0.57421875 0.583496094 0.57421875
vn 0.498291016 0.709472656 0.498291016
vn 0.812011719 0.583496094 -1.78813934E-07
vn 0.498291016 0.709472656 -0.498291016
vn 0.57421875 0.583496094 -0.57421875
vn -0 0.709472656 -0.704589844
vn 0.57421875 0.583496094 -0.57421875
vn 0.498291016 0.709472656 -0.498291016
vn -0 0.583496094 -0.812011719
vn -0.498291016 0.709472656 -0.498291016
vn -0.57421875 0.583496094 -0.57421875
vn -0.704589844 0.709472656 -1.78813934E-07
vn -0.57421875 0.583496094 -0.57421875
vn -0.498291016 0.709472656 -0.498291016
vn -0.812011719 0.583496094 0
vn -0.498291016 0.709472656 0.498291016
vn -0.57421875 0.583496094 0.57421875
vn 0.363037109 0.671386719 -0.646484375
vn -0.363037109 0.671386719 -0.646484375
vn -0.487548828 0 -0.873046875
vn 0.487548828 0 -0.873046875
vn -0.487548828 0 -0.873046875
vn -0.363037109 0.671386719 -0.646484375
vn -0.733398438 0.6796875 0
vn -1 0 0
vn -1 0 0
vn -0.733398438 0.6796875 0
vn -0.363037109 0.671386719 0.646484375
vn -0.487548828 0 0.873046875
vn -0.363037109 0.671386719 0.646484375
vn 0.363037109 0.671386719 0.646484375
vn 0.487548828 0 0.873046875
vn -0.487548828 0 0.873046875
vn 0.487548828 0 0.873046875
vn 0.363037109 0.671386719 0.646484375
vn 0.733398438 0.6796875 0
vn 1 0 0
vn 1 0 0
vn 0.733398438 0.6796875 0
vn 0.363037109 0.671386719 -0.646484375
vn 0.487548828 0 -0.873046875
vn 0.397460938 0.577148438 -0.713378906
vn -0.397460938 0.577148438 -0.713378906
vn -0.185058594 0.92578125 -0.329589844
vn 0.185058594 0.92578125 -0.329589844
vn -0.185058594 0.92578125 -0.329589844
vn -0.397460938 0.577148438 -0.713378906
vn -0.827148438 0.561523438 0
vn -0.392822266 0.919433594 0
vn -0.392822266 0.919433594 0
vn -0.827148438 0.561523438 0
vn -0.397460938 0.577148438 0.713378906
vn -0.185058594 0.92578125 0.329589844
vn -0.397460938 0.577148438 0.713378906
vn 0.397460938 0.577148438 0.713378906
vn 0.185058594 0.92578125 0.329589844
vn -0.185058594 0.92578125 0.329589844
vn 0.185058594 0.92578125 0.329589844
vn 0.397460938 0.577148438 0.713378906
vn 0.827148438 0.561523438 0
vn 0.392822266 0.919433594 0
vn 0.392822266 0.919433594 0
vn 0.827148438 0.561523438 0
vn 0.397460938 0.577148438 -0.713378906
vn 0.185058594 0.92578125 -0.329589844
vn -0.475341797 0.212280273 -0.854003906
vn -0.397460938 0.577148438 -0.713378906
vn 0.397460938 0.577148438 -0.713378906
vn 0.475341797 0.212280273 -0.854003906
vn -0.397460938 0.577148438 -0.713378906
vn -0.475341797 0.212280273 -0.854003906
vn -0.978027344 0.207397461 0
vn -0.827148438 0.561523438 0
vn -0.475341797 0.212280273 0.854003906
vn -0.397460938 0.577148438 0.713378906
vn 0.475341797 0.212280273 0.854003906
vn 0.397460938 0.577148438 0.713378906
vn -0.397460938 0.577148438 0.713378906
vn -0.475341797 0.212280273 0.854003906
vn 0.397460938 0.577148438 0.713378906
vn 0.475341797 0.212280273 0.854003906
vn 0.978027344 0.207397461 0
vn 0.827148438 0.561523438 0
vn 0.475341797 0.212280273 -0.854003906
vn 0.397460938 0.577148438 -0.713378906
vn -0.733398438 0.6796875 0
vn -0.185058594 0.92578125 0.329589844
vn -0.363037109 0.671386719 0.646484375
vn 0.363037109 0.671386719 0.646484375
vn -0.392822266 0.919433594 0
vn 0.185058594 0.92578125 0.329589844
vn 0.392822266 0.919433594 0
vn 0.733398438 0.6796875 0
vn -0.363037109 0.671386719 -0.646484375
vn -0.185058594 0.92578125 -0.329589844
vn 0.185058594 0.92578125 -0.329589844
vn 0.363037109 0.671386719 -0.646484375
vn -0 -1 0
vn 0.020401001 -0.999511719 0.020401001
vn 0.0288543701 -0.999511719 -2.38418579E-07
vn -0 -0.999511719 0.0288543701
vn 0.020401001 -0.999511719 -0.020401001
vn -0.020401001 -0.999511719 0.020401001
vn -0 -0.999511719 -0.0288543701
vn -0.0288543701 -0.999511719 0
vn -0.020401001 -0.999511719 -0.020401001
vn -0 1 0
vn 0.0319519043 0.999511719 1.78813934E-07
vn 0.0225982666 0.999511719 0.0225982666
vn -0 0.999511719 0.0319519043
vn 0.0225982666 0.999511719 -0.0225982666
vn -0.0225982666 0.999511719 0.0225982666
vn -0 0.999511719 -0.0319519043
vn -0.0319519043 0.999511719 0
vn -0.0225982666 0.999511719 -0.0225982666
g GroundLantern_0
f 3/3/3 2/2/2 1/1/1
f 6/6/6 5/5/5 4/4/4
f 9/9/9 8/8/8 7/7/7
f 10/10/10 9/9/9 7/7/7
f 13/13/13 12/12/12 11/11/11
f 14/14/14 13/13/13 11/11/11
f 17/17/17 16/16/16 15/15/15
f 18/18/18 17/17/17 15/15/15
f 21/21/21 20/20/20 19/19/19
f 22/22/22 21/21/21 19/19/19
f 25/25/25 24/24/24 23/23/23
f 26/26/26 25/25/25 23/23/23
f 29/29/29 28/28/28 27/27/27
f 30/30/30 29/29/29 27/27/27
f 33/33/33 32/32/32 31/31/31
f 34/34/34 33/33/33 31/31/31
f 37/37/37 36/36/36 35/35/35
f 38/38/38 37/37/37 35/35/35
f 41/41/41 40/40/40 39/39/39
f 42/42/42 41/41/41 39/39/39
f 45/45/45 44/44/44 43/43/43
f 46/46/46 45/45/45 43/43/43
f 49/49/49 48/48/48 47/47/47
f 50/50/50 49/49/49 47/47/47
f 53/53/53 52/52/52 51/51/51
f 54/54/54 53/53/53 51/51/51
f 57/57/57 56/56/56 55/55/55
f 58/58/58 57/57/57 55/55/55
f 61/61/61 60/60/60 59/59/59
f 62/62/62 61/61/61 59/59/59
f 65/65/65 64/64/64 63/63/63
f 66/66/66 65/65/65 63/63/63
f 69/69/69 68/68/68 67/67/67
f 70/70/70 69/69/69 67/67/67
f 73/73/73 72/72/72 71/71/71
f 74/74/74 73/73/73 71/71/71
f 77/77/77 76/76/76 75/75/75
f 78/78/78 77/77/77 75/75/75
f 81/81/81 80/80/80 79/79/79
f 82/82/82 81/81/81 79/79/79
f 85/85/85 84/84/84 83/83/83
f 86/86/86 85/85/85 83/83/83
f 89/89/89 88/88/88 87/87/87
f 90/90/90 89/89/89 87/87/87
f 93/93/93 92/92/92 91/91/91
f 94/94/94 93/93/93 91/91/91
f 97/97/97 96/96/96 95/95/95
f 98/98/98 97/97/97 95/95/95
f 101/101/101 100/100/100 99/99/99
f 100/100/100 102/102/102 99/99/99
f 103/103/103 102/102/102 100/100/100
f 106/106/106 105/105/105 104/104/104
f 105/105/105 107/107/107 104/104/104
f 105/105/105 108/108/108 107/107/107
f 111/111/111 110/110/110 109/109/109
f 110/110/110 112/112/112 109/109/109
f 113/113/113 112/112/112 110/110/110
f 116/116/116 115/115/115 114/114/114
f 115/115/115 117/117/117 114/114/114
f 118/118/118 117/117/117 115/115/115
f 121/121/121 120/120/120 119/119/119
f 121/121/121 119/119/119 122/122/122
f 122/122/122 119/119/119 123/123/123
f 119/119/119 124/124/124 123/123/123
f 122/122/122 123/123/123 125/125/125
f 126/126/126 122/122/122 125/125/125
f 121/121/121 122/122/122 126/126/126
f 126/126/126 125/125/125 127/127/127
f 128/128/128 126/126/126 127/127/127
f 121/121/121 126/126/126 128/128/128
f 128/128/128 127/127/127 129/129/129
f 130/130/130 128/128/128 129/129/129
f 121/121/121 128/128/128 130/130/130
f 121/121/121 130/130/130 131/131/131
f 134/134/134 133/133/133 132/132/132
f 135/135/135 134/134/134 132/132/132
f 135/135/135 132/132/132 136/136/136
f 137/137/137 135/135/135 136/136/136
f 137/137/137 138/138/138 135/135/135
f 138/138/138 139/139/139 135/135/135
f 135/135/135 139/139/139 134/134/134
f 139/139/139 140/140/140 134/134/134
f 143/143/143 142/142/142 141/141/141
f 144/144/144 143/143/143 141/141/141
f 144/144/144 145/145/145 143/143/143
f 145/145/145 146/146/146 143/143/143
f 149/149/149 148/148/148 147/147/147
f 150/150/150 149/149/149 147/147/147
f 150/150/150 151/151/151 149/149/149
f 151/151/151 152/152/152 149/149/149
f 155/155/155 154/154/154 153/153/153
f 156/156/156 155/155/155 153/153/153
f 156/156/156 153/153/153 157/157/157
f 158/158/158 155/155/155 156/156/156
f 159/159/159 156/156/156 157/157/157
f 160/160/160 158/158/158 156/156/156
f 159/159/159 161/161/161 156/156/156
f 161/161/161 160/160/160 156/156/156
f 164/164/164 163/163/163 162/162/162
f 165/165/165 164/164/164 162/162/162
f 165/165/165 166/166/166 164/164/164
f 166/166/166 167/167/167 164/164/164
f 170/170/170 169/169/169 168/168/168
f 171/171/171 170/170/170 168/168/168
f 171/171/171 172/172/172 170/170/170
f 172/172/172 173/173/173 170/170/170
f 176/176/176 175/175/175 174/174/174
f 175/175/175 177/177/177 174/174/174
f 175/175/175 178/178/178 177/177/177
f 179/179/179 178/178/178 175/175/175
f 178/178/178 180/180/180 177/177/177
f 179/179/179 181/181/181 178/178/178
f 178/178/178 181/181/181 180/180/180
f 181/181/181 182/182/182 180/180/180
f 181/181/181 183/183/183 182/182/182
f 183/183/183 184/184/184 182/182/182
f 187/187/187 186/186/186 185/185/185
f 186/186/186 188/188/188 185/185/185
f 185/185/185 188/188/188 189/189/189
f 188/188/188 190/190/190 189/189/189
f 193/193/193 192/192/192 191/191/191
f 194/194/194 193/193/193 191/191/191
f 195/195/195 193/193/193 194/194/194
f 196/196/196 195/195/195 194/194/194
f 199/199/199 198/198/198 197/197/197
f 200/200/200 199/199/199 197/197/197
f 201/201/201 199/199/199 200/200/200
f 202/202/202 201/201/201 200/200/200
f 205/205/205 204/204/204 203/203/203
f 206/206/206 205/205/205 203/203/203
f 207/207/207 205/205/205 206/206/206
f 208/208/208 207/207/207 206/206/206
f 211/211/211 210/210/210 209/209/209
f 212/212/212 211/211/211 209/209/209
f 209/209/209 213/213/213 212/212/212
f 214/214/214 211/211/211 212/212/212
f 215/215/215 214/214/214 212/212/212
f 212/212/212 213/213/213 215/215/215
f 216/216/216 213/213/213 209/209/209
f 215/215/215 213/213/213 217/217/217
f 218/218/218 213/213/213 216/216/216
f 217/217/217 213/213/213 219/219/219
f 220/220/220 213/213/213 218/218/218
f 219/219/219 213/213/213 220/220/220
f 223/223/223 222/222/222 221/221/221
f 222/222/222 224/224/224 221/221/221
f 221/221/221 224/224/224 225/225/225
f 224/224/224 226/226/226 225/225/225
f 229/229/229 228/228/228 227/227/227
f 228/228/228 230/230/230 227/227/227
f 227/227/227 230/230/230 231/231/231
f 230/230/230 232/232/232 231/231/231
f 235/235/235 234/234/234 233/233/233
f 234/234/234 236/236/236 233/233/233
f 233/233/233 236/236/236 237/237/237
f 236/236/236 238/238/238 237/237/237
f 241/241/241 240/240/240 239/239/239
f 242/242/242 241/241/241 239/239/239
f 245/245/245 244/244/244 243/243/243
f 246/246/246 245/245/245 243/243/243
f 249/249/249 248/248/248 247/247/247
f 250/250/250 249/249/249 247/247/247
f 253/253/253 252/252/252 251/251/251
f 254/254/254 253/253/253 251/251/251
f 257/257/257 256/256/256 255/255/255
f 258/258/258 257/257/257 255/255/255
f 261/261/261 260/260/260 259/259/259
f 262/262/262 261/261/261 259/259/259
f 265/265/265 264/264/264 263/263/263
f 266/266/266 265/265/265 263/263/263
f 269/269/269 268/268/268 267/267/267
f 270/270/270 269/269/269 267/267/267
f 273/273/273 272/272/272 271/271/271
f 274/274/274 273/273/273 271/271/271
f 277/277/277 276/276/276 275/275/275
f 278/278/278 277/277/277 275/275/275
f 281/281/281 280/280/280 279/279/279
f 282/282/282 281/281/281 279/279/279
f 285/285/285 284/284/284 283/283/283
f 286/286/286 285/285/285 283/283/283
f 289/289/289 288/288/288 287/287/287
f 290/290/290 289/289/289 287/287/287
f 293/293/293 292/292/292 291/291/291
f 294/294/294 293/293/293 291/291/291
f 295/295/295 293/293/293 294/294/294
f 296/296/296 295/295/295 294/294/294
f 299/299/299 298/298/298 297/297/297
f 300/300/300 299/299/299 297/297/297
f 303/303/303 302/302/302 301/301/301
f 304/304/304 303/303/303 301/301/301
f 305/305/305 303/303/303 304/304/304
f 306/306/306 305/305/305 304/304/304
f 309/309/309 308/308/308 307/307/307
f 309/309/309 310/310/310 308/308/308
f 308/308/308 311/311/311 307/307/307
f 310/310/310 312/312/312 308/308/308
f 313/313/313 312/312/312 310/310/310
f 314/314/314 313/313/313 310/310/310
f 307/307/307 311/311/311 315/315/315
f 311/311/311 316/316/316 315/315/315
f 317/317/317 313/313/313 314/314/314
f 315/315/315 316/316/316 317/317/317
f 318/318/318 317/317/317 314/314/314
f 318/318/318 315/315/315 317/317/317
f 321/321/321 320/320/320 319/319/319
f 320/320/320 322/322/322 319/319/319
f 323/323/323 321/321/321 319/319/319
f 322/322/322 324/324/324 319/319/319
f 325/325/325 323/323/323 319/319/319
f 324/324/324 326/326/326 319/319/319
f 327/327/327 325/325/325 319/319/319
f 326/326/326 327/327/327 319/319/319
f 330/330/330 329/329/329 328/328/328
f 331/331/331 330/330/330 328/328/328
f 329/329/329 332/332/332 328/328/328
f 333/333/333 331/331/331 328/328/328
f 332/332/332 334/334/334 328/328/328
f 335/335/335 333/333/333 328/328/328
f 334/334/334 336/336/336 328/328/328
f 336/336/336 335/335/335 328/328/328
