g Telephone_Cable
v 0.0422541499 -0.0371237099 -0.0447062142
v 0.0371474139 0.00575910276 -0.0247519538
v 0.0382356718 -0.0369390473 -0.0374587476
v 0.0325650088 0.0513206236 -0.0086016329
v 0.0396630168 0.0310447048 -0.0124631561
v 0.036170166 0.0306774676 -0.0118639814
v 0.029072158 0.0509533882 -0.00800247677
v 0.028564116 0.0598010048 -0.00362486439
v 0.0249657501 0.0596173853 -0.00328348717
v 0.0245631859 0.0626955479 0.00135194219
v 0.0208593439 0.0626955479 0.00143548416
v 0.029072158 0.0509533882 -0.00800247677
v 0.036170166 0.0306774676 -0.0118639814
v 0.0358297043 0.0324430019 -0.0127665382
v 0.0287316963 0.0527189188 -0.00890501495
v 0.0249657501 0.0596173853 -0.00328348717
v 0.0247955397 0.0615060776 -0.00373476581
v 0.0208593439 0.0626955479 0.00143548416
v 0.0208593439 0.0647074133 0.00143548416
v 0.0287316963 0.0527189188 -0.00890501495
v 0.0358297043 0.0324430019 -0.0127665382
v 0.0393225551 0.032810241 -0.0133656943
v 0.0322245471 0.0530861542 -0.00950417109
v 0.0247955397 0.0615060776 -0.00373476581
v 0.0283938665 0.0616897009 -0.00407612417
v 0.0208593439 0.0647074133 0.00143548416
v 0.0245631859 0.0647074133 0.00135194219
v 0.0322245471 0.0530861542 -0.00950417109
v 0.0393225551 0.032810241 -0.0133656943
v 0.0396630168 0.0310447048 -0.0124631561
v 0.0325650088 0.0513206236 -0.0086016329
v 0.0283938665 0.0616897009 -0.00407612417
v 0.028564116 0.0598010048 -0.00362486439
v 0.0245631859 0.0647074133 0.00135194219
v 0.0245631859 0.0626955479 0.00135194219
v -0.0113872821 -0.0610584803 0.0283008516
v -0.0113872821 -0.0590466186 0.0283008516
v 0.00363018829 -0.0590466186 0.0280546229
v 0.00363018829 -0.0610584803 0.0280546229
v 0.00690716552 -0.0610584803 0.0303866435
v 0.00690716552 -0.0590466186 0.0303866435
v -0.0113872821 -0.0590466186 0.0283008516
v -0.0113872821 -0.0590466186 0.0246200133
v 0.00351292454 -0.0590466186 0.0246200133
v 0.00363018829 -0.0590466186 0.0280546229
v 0.00690716552 -0.0590466186 0.0303866435
v 0.0095441509 -0.0590466186 0.0278335996
v 0.00911595114 -0.0580275841 0.035390716
v 0.0124628525 -0.0580275841 0.034443412
v 0.00992630795 -0.0570085458 0.0533880927
v 0.0136301499 -0.0570085458 0.053304553
v -0.0113872821 -0.0590466186 0.0246200133
v -0.0113872821 -0.0610584803 0.0246200133
v 0.00351292454 -0.0610584803 0.0246200133
v 0.00351292454 -0.0590466186 0.0246200133
v 0.0095441509 -0.0590466186 0.0278335996
v 0.0095441509 -0.0610584803 0.0278335996
v -0.0113872821 -0.0610584803 0.0246200133
v -0.0113872821 -0.0610584803 0.0283008516
v 0.00363018829 -0.0610584803 0.0280546229
v 0.00351292454 -0.0610584803 0.0246200133
v 0.0095441509 -0.0610584803 0.0278335996
v 0.00690716552 -0.0610584803 0.0303866435
v 0.0124628525 -0.0600394458 0.034443412
v 0.00911595114 -0.0600394458 0.035390716
v 0.0136301499 -0.0590204075 0.053304553
v 0.00992630795 -0.0590204075 0.0533880927
v 0.0095441509 -0.0610584803 0.0278335996
v 0.0124628525 -0.0580275841 0.034443412
v 0.0095441509 -0.0590466186 0.0278335996
v 0.0124628525 -0.0600394458 0.034443412
v 0.0136301499 -0.0570085458 0.053304553
v 0.0136301499 -0.0590204075 0.053304553
v 0.00690716552 -0.0590466186 0.0303866435
v 0.00911595114 -0.0600394458 0.035390716
v 0.00690716552 -0.0610584803 0.0303866435
v 0.00911595114 -0.0580275841 0.035390716
v 0.00992630795 -0.0590204075 0.0533880927
v 0.00992630795 -0.0570085458 0.0533880927
v -0.00967303477 -0.0614123382 0.0221749637
v -0.00715434225 -0.0556710362 0.0262026731
v -0.00599593343 -0.056002181 0.0186800137
v -0.0113872821 -0.06090229 0.0293633975
v -0.00906283502 -0.0550098158 0.0334204137
v -0.00521411095 -0.0497369356 0.0298934318
v -0.00399035588 -0.0500505231 0.0224737301
v -0.00599593343 -0.056002181 0.0186800137
v -0.0241386723 -0.0601114146 -0.0405469947
v -0.031644661 -0.0605846904 -0.0372391939
v -0.0312529691 -0.0533818007 -0.0372391939
v -0.0416744128 -0.0554657206 -0.0162884202
v -0.0418770127 -0.0623346046 -0.0162884202
v -0.0421687961 -0.0535032749 -0.00927303825
v -0.0418586247 -0.0600772761 -0.00581209688
v -0.0241386723 -0.0601114146 -0.0405469947
v -0.0312529691 -0.0533818007 -0.0372391939
v -0.0237372518 -0.0527963825 -0.0405469947
v 0.0211604368 -0.0607374758 -0.0413831733
v 0.0219327603 -0.0533236675 -0.0402610451
v 0.0413480848 -0.0530811548 -0.035626702
v 0.0366059542 -0.0472902991 -0.0348081253
v 0.0504965298 -0.03593117 -0.0290773809
v 0.0425051972 -0.036308229 -0.0299031679
v 0.0480896458 0.00675603561 -0.0172858667
v 0.0405343324 0.006608631 -0.0173965897
v 0.0463980958 0.0149438875 -0.0133953532
v 0.0388930961 0.014801194 -0.0133341467
v 0.0428919308 0.0268343855 -0.00422976119
v 0.0354077592 0.0269938298 -0.0040883692
v -0.0237372518 -0.0527963825 -0.0405469947
v -0.0312529691 -0.0533818007 -0.0372391939
v -0.0381088555 -0.0489356704 -0.0398551412
v -0.0238482971 -0.0484096855 -0.0469675474
v 0.0219327603 -0.0533236675 -0.0402610451
v 0.0220438074 -0.0496167652 -0.0459099822
v 0.0366059542 -0.0472902991 -0.0348081253
v 0.0341525711 -0.0444270857 -0.0409960598
v 0.021787269 -0.0533236638 -0.0531439446
v 0.0364748053 -0.0473766923 -0.0484116599
v -0.0242047813 -0.051350601 -0.0533881038
v -0.0449191928 -0.0513697565 -0.0422777794
v -0.0536179617 -0.0525085069 -0.0210797731
v -0.0474343002 -0.0507981367 -0.0189189576
v -0.0547180064 -0.0512179136 -0.0064702658
v -0.0486385226 -0.0489335321 -0.00982954539
v -0.0463556573 -0.0427296832 0.00851788931
v -0.0405846313 -0.042375531 0.00370927225
v -0.0478413291 -0.0491727293 0.0122006731
v -0.0545336045 -0.0583775155 -0.00316866487
v -0.022102043 -0.0501598977 0.0306673478
v -0.0198842157 -0.0445220731 0.0261627808
v -0.00906283502 -0.0550098158 0.0334204137
v -0.0175231472 -0.0454269797 0.0191525202
v -0.00521411095 -0.0497369356 0.0298934318
v -0.00399035588 -0.0500505231 0.0224737301
v -0.0312529691 -0.0533818007 -0.0372391939
v -0.0474343002 -0.0507981367 -0.0189189576
v -0.0381088555 -0.0489356704 -0.0398551412
v -0.0416744128 -0.0554657206 -0.0162884202
v -0.0486385226 -0.0489335321 -0.00982954539
v -0.0421687961 -0.0535032749 -0.00927303825
v -0.0405846313 -0.042375531 0.00370927225
v -0.035853453 -0.0480107144 0.00311147119
v -0.0175231472 -0.0454269797 0.0191525202
v -0.0166939069 -0.0526106246 0.0168725532
v -0.00399035588 -0.0500505231 0.0224737301
v -0.00599593343 -0.056002181 0.0186800137
v 0.0209471192 -0.0644443706 -0.0487447567
v 0.0438702106 -0.0558712631 -0.0427030995
v 0.0413365625 -0.053086523 -0.0496013314
v 0.0211604368 -0.0607374758 -0.0413831733
v 0.0413480848 -0.0530811548 -0.035626702
v -0.0241386723 -0.0601114146 -0.0405469947
v -0.0250409245 -0.0630989298 -0.0469675474
v -0.031644661 -0.0605846904 -0.0372391939
v -0.0384984501 -0.0633357093 -0.0398551412
v -0.0246137921 -0.0586231314 -0.0533881038
v -0.0418770127 -0.0623346046 -0.0162884202
v -0.0454565324 -0.0581322499 -0.0422777794
v -0.04772605 -0.0647074133 -0.0189189576
v -0.0418586247 -0.0600772761 -0.00581209688
v -0.0538223162 -0.0596178994 -0.021301847
v -0.047924567 -0.0625481606 -0.00296711526
v -0.0371562503 -0.0547184013 0.00691518234
v -0.0545336045 -0.0583775155 -0.00316866487
v -0.0431277379 -0.0554126836 0.0112403231
v -0.0186998658 -0.0582528375 0.0213913862
v -0.0478413291 -0.0491727293 0.0122006731
v -0.0215482246 -0.0570287183 0.028098749
v -0.00967303477 -0.0614123382 0.0221749637
v -0.022102043 -0.0501598977 0.0306673478
v -0.0113872821 -0.06090229 0.0293633975
v -0.00906283502 -0.0550098158 0.0334204137
v 0.0413365625 -0.053086523 -0.0496013314
v 0.0503535531 -0.0366687477 -0.0431750156
v 0.0422541499 -0.0371237099 -0.0447062142
v 0.0364748053 -0.0473766923 -0.0484116599
v 0.0382356718 -0.0369390473 -0.0374587476
v 0.0341525711 -0.0444270857 -0.0409960598
v 0.0211929772 -0.060737472 -0.0485783033
v 0.0209471192 -0.0644443706 -0.0487447567
v -0.0250409245 -0.0630989298 -0.0469675474
v 0.021787269 -0.0533236638 -0.0531439446
v -0.0246137921 -0.0586231314 -0.0533881038
v -0.0242047813 -0.051350601 -0.0533881038
v -0.0454565324 -0.0581322499 -0.0422777794
v -0.0449191928 -0.0513697565 -0.0422777794
v -0.0538223162 -0.0596178994 -0.021301847
v -0.0536179617 -0.0525085069 -0.0210797731
v -0.0545336045 -0.0583775155 -0.00316866487
v -0.0547180064 -0.0512179136 -0.0064702658
v 0.0438702106 -0.0558712631 -0.0427030995
v 0.0503535531 -0.0366687477 -0.0431750156
v 0.0413365625 -0.053086523 -0.0496013314
v 0.054718025 -0.0356697924 -0.0350478031
v 0.0483953543 0.00479444675 -0.0321240276
v 0.0521558858 0.00616434263 -0.0243923236
v 0.0454167649 0.0210333988 -0.0251812786
v 0.0497492291 0.0182277318 -0.0193156116
v 0.0413770005 0.0369945653 -0.0127660045
v 0.0460166261 0.0319425128 -0.00856861658
v 0.0413480848 -0.0530811548 -0.035626702
v 0.054718025 -0.0356697924 -0.0350478031
v 0.0438702106 -0.0558712631 -0.0427030995
v 0.0504965298 -0.03593117 -0.0290773809
v 0.0521558858 0.00616434263 -0.0243923236
v 0.0480896458 0.00675603561 -0.0172858667
v 0.0497492291 0.0182277318 -0.0193156116
v 0.0463980958 0.0149438875 -0.0133953532
v 0.0460166261 0.0319425128 -0.00856861658
v 0.0428919308 0.0268343855 -0.00422976119
v 0.0341525711 -0.0444270857 -0.0409960598
v 0.0425051972 -0.036308229 -0.0299031679
v 0.0366059542 -0.0472902991 -0.0348081253
v 0.0382356718 -0.0369390473 -0.0374587476
v 0.0405343324 0.006608631 -0.0173965897
v 0.0371474139 0.00575910276 -0.0247519538
v 0.0388930961 0.014801194 -0.0133341467
v 0.0349145196 0.0182054639 -0.0191491749
v 0.0354077592 0.0269938298 -0.0040883692
v 0.0311088618 0.0322058015 -0.00828577578
v 0.0407082438 0.00453081774 -0.0323446319
v 0.0422541499 -0.0371237099 -0.0447062142
v 0.0379874855 0.0210558474 -0.0250891354
v 0.0339944921 0.0370357819 -0.0126245935
v 0.0503535531 -0.0366687477 -0.0431750156
v 0.0407082438 0.00453081774 -0.0323446319
v 0.0422541499 -0.0371237099 -0.0447062142
v 0.0483953543 0.00479444675 -0.0321240276
v 0.0379874855 0.0210558474 -0.0250891354
v 0.0483953543 0.00479444675 -0.0321240276
v 0.0454167649 0.0210333988 -0.0251812786
v 0.0379874855 0.0210558474 -0.0250891354
v 0.0339944921 0.0370357819 -0.0126245935
v 0.0413770005 0.0369945653 -0.0127660045
v -0.0418586247 -0.0600772761 -0.00581209688
v -0.035853453 -0.0480107144 0.00311147119
v -0.0421687961 -0.0535032749 -0.00927303825
v -0.0371562503 -0.0547184013 0.00691518234
v -0.0166939069 -0.0526106246 0.0168725532
v -0.0186998658 -0.0582528375 0.0213913862
v -0.00599593343 -0.056002181 0.0186800137
v -0.00967303477 -0.0614123382 0.0221749637
v 0.0311088618 0.0322058015 -0.00828577578
v 0.0375603922 0.0323149599 -0.0084272055
v 0.0354077592 0.0269938298 -0.0040883692
v 0.0339944921 0.0370357819 -0.0126245935
v 0.0428919308 0.0268343855 -0.00422976119
v 0.0413770005 0.0369945653 -0.0127660045
v 0.0460166261 0.0319425128 -0.00856861658
vt 0.412841797 0.780761719
vt 0.43359375 0.879882812
vt 0.429931641 0.782226562
vt 0.266113281 0.423828125
vt 0.329833984 0.426025391
vt 0.327636719 0.415771484
vt 0.263427734 0.413574219
vt 0.235351562 0.422119141
vt 0.23046875 0.412597656
vt 0.215698242 0.420654297
vt 0.209106445 0.412353516
vt 0.263427734 0.413574219
vt 0.327636719 0.415771484
vt 0.323242188 0.411865234
vt 0.259277344 0.409667969
vt 0.23046875 0.412597656
vt 0.227294922 0.407714844
vt 0.209106445 0.412353516
vt 0.206298828 0.406982422
vt 0.259277344 0.409667969
vt 0.323242188 0.411865234
vt 0.326171875 0.401855469
vt 0.262695312 0.399902344
vt 0.227294922 0.407714844
vt 0.232666016 0.398681641
vt 0.206298828 0.406982422
vt 0.212280273 0.397949219
vt 0.262695312 0.399902344
vt 0.326171875 0.401855469
vt 0.330810547 0.398193359
vt 0.267089844 0.395996094
vt 0.232666016 0.398681641
vt 0.235839844 0.394287109
vt 0.212280273 0.397949219
vt 0.215087891 0.392578125
vt 0.130371094 0.420166016
vt 0.130371094 0.415283203
vt 0.0936889648 0.415527344
vt 0.09375 0.420410156
vt 0.0834350586 0.421142578
vt 0.082824707 0.416503906
vt 0.130371094 0.415283203
vt 0.130126953 0.40625
vt 0.0958251953 0.407958984
vt 0.0936889648 0.415527344
vt 0.082824707 0.416503906
vt 0.0826416016 0.408203125
vt 0.0681152344 0.416992188
vt 0.0679931641 0.408935547
vt 0.0248565674 0.419677734
vt 0.0240325928 0.410888672
vt 0.130126953 0.40625
vt 0.129882812 0.401367188
vt 0.0956420898 0.403076172
vt 0.0958251953 0.407958984
vt 0.0826416016 0.408203125
vt 0.0827636719 0.403564453
vt 0.129882812 0.401367188
vt 0.129272461 0.392333984
vt 0.092956543 0.395507812
vt 0.0956420898 0.403076172
vt 0.0827636719 0.403564453
vt 0.0820922852 0.395507812
vt 0.0681152344 0.404296875
vt 0.0673828125 0.396240234
vt 0.0240783691 0.406005859
vt 0.0241088867 0.397216797
vt 0.0827636719 0.403564453
vt 0.0679931641 0.408935547
vt 0.0826416016 0.408203125
vt 0.0681152344 0.404296875
vt 0.0240325928 0.410888672
vt 0.0240783691 0.406005859
vt 0.082824707 0.416503906
vt 0.0689086914 0.421630859
vt 0.0834350586 0.421142578
vt 0.0681152344 0.416992188
vt 0.0254516602 0.424560547
vt 0.0248565674 0.419677734
vt 0.398193359 0.379150391
vt 0.406494141 0.392333984
vt 0.413330078 0.378173828
vt 0.390869141 0.392822266
vt 0.398681641 0.40625
vt 0.415283203 0.404785156
vt 0.422119141 0.391113281
vt 0.413818359 0.378173828
vt 0.364013672 0.622070312
vt 0.364990234 0.602050781
vt 0.349853516 0.603515625
vt 0.350830078 0.546875
vt 0.364501953 0.547851562
vt 0.349365234 0.527832031
vt 0.364013672 0.5234375
vt 0.364013672 0.622070312
vt 0.349853516 0.603515625
vt 0.348632812 0.623046875
vt 0.364990234 0.718261719
vt 0.350341797 0.723144531
vt 0.365478516 0.761230469
vt 0.351806641 0.762207031
vt 0.365478516 0.798339844
vt 0.350097656 0.793945312
vt 0.370605469 0.888183594
vt 0.354980469 0.890136719
vt 0.371826172 0.908203125
vt 0.356445312 0.910644531
vt 0.371337891 0.940429688
vt 0.356201172 0.943847656
vt 0.439208984 0.624511719
vt 0.439453125 0.603027344
vt 0.422851562 0.597167969
vt 0.423583984 0.627441406
vt 0.437744141 0.724609375
vt 0.423828125 0.725097656
vt 0.441894531 0.76171875
vt 0.427246094 0.758789062
vt 0.407470703 0.720703125
vt 0.409912109 0.754882812
vt 0.409423828 0.629882812
vt 0.409912109 0.591796875
vt 0.41015625 0.550292969
vt 0.424316406 0.548339844
vt 0.407470703 0.524902344
vt 0.422607422 0.528320312
vt 0.411132812 0.493408203
vt 0.425537109 0.493652344
vt 0.395996094 0.491210938
vt 0.391601562 0.521972656
vt 0.398193359 0.433837891
vt 0.413574219 0.435546875
vt 0.398681641 0.40625
vt 0.428222656 0.438476562
vt 0.415283203 0.404785156
vt 0.431884766 0.408691406
vt 0.439453125 0.603027344
vt 0.424316406 0.548339844
vt 0.422851562 0.597167969
vt 0.440429688 0.546386719
vt 0.422607422 0.528320312
vt 0.439453125 0.527832031
vt 0.425537109 0.493652344
vt 0.438476562 0.490234375
vt 0.428222656 0.438476562
vt 0.443603516 0.437744141
vt 0.431884766 0.408691406
vt 0.447021484 0.413574219
vt 0.381591797 0.715820312
vt 0.380859375 0.757324219
vt 0.395996094 0.754394531
vt 0.364990234 0.718261719
vt 0.365478516 0.761230469
vt 0.364013672 0.622070312
vt 0.37890625 0.624023438
vt 0.364990234 0.602050781
vt 0.379394531 0.595703125
vt 0.39453125 0.62890625
vt 0.364501953 0.547851562
vt 0.396728516 0.590820312
vt 0.378417969 0.55078125
vt 0.364013672 0.5234375
vt 0.395263672 0.551757812
vt 0.376953125 0.520996094
vt 0.364746094 0.487792969
vt 0.391601562 0.521972656
vt 0.380615234 0.488525391
vt 0.369140625 0.433837891
vt 0.395996094 0.491210938
vt 0.383789062 0.432617188
vt 0.365234375 0.413574219
vt 0.398193359 0.433837891
vt 0.381103516 0.411132812
vt 0.398681641 0.40625
vt 0.395996094 0.754394531
vt 0.397216797 0.788085938
vt 0.412841797 0.780761719
vt 0.409912109 0.754882812
vt 0.429931641 0.782226562
vt 0.427246094 0.758789062
vt 0.389160156 0.717285156
vt 0.381591797 0.715820312
vt 0.37890625 0.624023438
vt 0.407470703 0.720703125
vt 0.39453125 0.62890625
vt 0.409423828 0.629882812
vt 0.396728516 0.590820312
vt 0.409912109 0.591796875
vt 0.395263672 0.551757812
vt 0.41015625 0.550292969
vt 0.391601562 0.521972656
vt 0.407470703 0.524902344
vt 0.380859375 0.757324219
vt 0.397216797 0.788085938
vt 0.395996094 0.754394531
vt 0.380126953 0.796386719
vt 0.40234375 0.872558594
vt 0.385986328 0.880371094
vt 0.403564453 0.906738281
vt 0.387451172 0.90625
vt 0.404541016 0.947753906
vt 0.387207031 0.942871094
vt 0.365478516 0.761230469
vt 0.380126953 0.796386719
vt 0.380859375 0.757324219
vt 0.365478516 0.798339844
vt 0.385986328 0.880371094
vt 0.370605469 0.888183594
vt 0.387451172 0.90625
vt 0.371826172 0.908203125
vt 0.387207031 0.942871094
vt 0.371337891 0.940429688
vt 0.427246094 0.758789062
vt 0.447021484 0.789550781
vt 0.441894531 0.76171875
vt 0.429931641 0.782226562
vt 0.44921875 0.886230469
vt 0.43359375 0.879882812
vt 0.448974609 0.907226562
vt 0.433105469 0.909667969
vt 0.451171875 0.940917969
vt 0.435546875 0.947265625
vt 0.418212891 0.872070312
vt 0.412841797 0.780761719
vt 0.418457031 0.908203125
vt 0.420410156 0.950195312
vt 0.397216797 0.788085938
vt 0.418212891 0.872070312
vt 0.412841797 0.780761719
vt 0.40234375 0.872558594
vt 0.418457031 0.908203125
vt 0.40234375 0.872558594
vt 0.403564453 0.906738281
vt 0.418457031 0.908203125
vt 0.420410156 0.950195312
vt 0.404541016 0.947753906
vt 0.364013672 0.5234375
vt 0.348388672 0.491210938
vt 0.349365234 0.527832031
vt 0.364746094 0.487792969
vt 0.354003906 0.437988281
vt 0.369140625 0.433837891
vt 0.349609375 0.414306641
vt 0.365234375 0.413574219
vt 0.424072266 0.964355469
vt 0.410644531 0.961914062
vt 0.412841797 0.9765625
vt 0.420410156 0.950195312
vt 0.397705078 0.974609375
vt 0.404541016 0.947753906
vt 0.393310547 0.959960938
vn -0.361816406 0.300537109 -0.882324219
vn -0.995605469 -0.0768432617 0.053314209
vn -0.994628906 0.0899658203 -0.0475158691
vn 0.494140625 -0.054901123 0.867675781
vn 0.323730469 -0.0664672852 0.943847656
vn 0.0621643066 -0.165649414 0.984375
vn -0.300292969 -0.403320312 0.864257812
vn 0.524902344 -0.293701172 0.798828125
vn -0.449707031 -0.762207031 0.465820312
vn 0.416015625 -0.596679688 0.686523438
vn -0.727050781 -0.662597656 -0.180541992
vn -0.300292969 -0.403320312 0.864257812
vn 0.0621643066 -0.165649414 0.984375
vn -0.507324219 -0.0134124756 -0.861816406
vn -0.403076172 0.162475586 -0.900878906
vn -0.449707031 -0.762207031 0.465820312
vn -0.378417969 0.516601562 -0.768066406
vn -0.727050781 -0.662597656 -0.180541992
vn -0.438476562 0.576660156 -0.689453125
vn -0.403076172 0.162475586 -0.900878906
vn -0.507324219 -0.0134124756 -0.861816406
vn 0.450195312 0.316650391 -0.834960938
vn 0.104919434 0.3046875 -0.946777344
vn -0.378417969 0.516601562 -0.768066406
vn 0.253173828 0.690429688 -0.677246094
vn -0.438476562 0.576660156 -0.689453125
vn 0.217773438 0.904785156 -0.365478516
vn 0.104919434 0.3046875 -0.946777344
vn 0.450195312 0.316650391 -0.834960938
vn 0.323730469 -0.0664672852 0.943847656
vn 0.494140625 -0.054901123 0.867675781
vn 0.253173828 0.690429688 -0.677246094
vn 0.524902344 -0.293701172 0.798828125
vn 0.217773438 0.904785156 -0.365478516
vn 0.416015625 -0.596679688 0.686523438
vn 0.00815582275 -0.8671875 0.497558594
vn 0.00815582275 0.8671875 0.497558594
vn -0.0489501953 0.901855469 0.429443359
vn -0.0489501953 -0.901855469 0.429443359
vn -0.229736328 -0.930175781 0.286865234
vn -0.360839844 0.919433594 0.15612793
vn 0.00815582275 0.8671875 0.497558594
vn -0 0.87109375 -0.490722656
vn 0.0822753906 0.840332031 -0.536132812
vn -0.0489501953 0.901855469 0.429443359
vn -0.360839844 0.919433594 0.15612793
vn 0.463867188 0.734375 -0.495605469
vn -0.443603516 0.895996094 -0.0165252686
vn 0.535644531 0.831542969 -0.1484375
vn -0.470703125 0.881835938 -0.0275115967
vn 0.490966797 0.867675781 -0.0784301758
vn -0 0.87109375 -0.490722656
vn -0 -0.87109375 -0.490722656
vn 0.0822753906 -0.840332031 -0.536132812
vn 0.0822753906 0.840332031 -0.536132812
vn 0.463867188 0.734375 -0.495605469
vn 0.501464844 -0.77734375 -0.379638672
vn -0 -0.87109375 -0.490722656
vn 0.00815582275 -0.8671875 0.497558594
vn -0.0489501953 -0.901855469 0.429443359
vn 0.0822753906 -0.840332031 -0.536132812
vn 0.501464844 -0.77734375 -0.379638672
vn -0.229736328 -0.930175781 0.286865234
vn 0.570800781 -0.820800781 -0.0298156738
vn -0.400390625 -0.907226562 0.128295898
vn 0.528808594 -0.848632812 0.0142745972
vn -0.485351562 -0.871582031 0.0700073242
vn 0.501464844 -0.77734375 -0.379638672
vn 0.535644531 0.831542969 -0.1484375
vn 0.463867188 0.734375 -0.495605469
vn 0.570800781 -0.820800781 -0.0298156738
vn 0.490966797 0.867675781 -0.0784301758
vn 0.528808594 -0.848632812 0.0142745972
vn -0.360839844 0.919433594 0.15612793
vn -0.400390625 -0.907226562 0.128295898
vn -0.229736328 -0.930175781 0.286865234
vn -0.443603516 0.895996094 -0.0165252686
vn -0.485351562 -0.871582031 0.0700073242
vn -0.470703125 0.881835938 -0.0275115967
vn -0.0138931274 -0.889648438 -0.456054688
vn 0.862304688 -0.461669922 0.207275391
vn 0.359375 -0.10144043 -0.927734375
vn -0.18371582 -0.807617188 0.560058594
vn 0.0209350586 0.125488281 0.991699219
vn 0.35546875 0.800292969 0.482421875
vn 0.534667969 0.745117188 -0.3984375
vn 0.359375 -0.10144043 -0.927734375
vn 0.0598144531 -0.602539062 0.795898438
vn 0.633300781 -0.628417969 0.452148438
vn 0.626464844 0.539550781 0.5625
vn 0.833496094 0.469726562 0.291503906
vn 0.712890625 -0.65625 0.247192383
vn 0.868652344 0.342285156 -0.357666016
vn 0.73828125 -0.673339844 0.037689209
vn 0.0598144531 -0.602539062 0.795898438
vn 0.626464844 0.539550781 0.5625
vn 0.0709838867 0.461425781 0.884277344
vn 0.0315856934 -0.631347656 0.774902344
vn -0.112365723 0.37109375 0.921875
vn 0.290527344 -0.635742188 0.71484375
vn -0.413574219 -0.00973510742 0.910644531
vn 0.481445312 -0.295898438 0.825195312
vn -0.525878906 -0.237670898 0.81640625
vn 0.438964844 -0.225830078 0.869628906
vn -0.501464844 -0.302001953 0.811035156
vn 0.580566406 -0.330078125 0.744628906
vn -0.520996094 -0.549316406 0.653320312
vn 0.492431641 -0.307373047 0.814453125
vn -0.576660156 -0.484863281 0.657714844
vn 0.0709838867 0.461425781 0.884277344
vn 0.626464844 0.539550781 0.5625
vn 0.0421142578 0.999023438 0.0252075195
vn -2.8014183E-05 1 0.00248718262
vn -0.112365723 0.37109375 0.921875
vn -0.0825805664 0.99609375 0.0236206055
vn -0.413574219 -0.00973510742 0.910644531
vn -0.648925781 0.760253906 0.0187072754
vn 0.050567627 0.357666016 -0.932617188
vn -0.0569763184 0.394775391 -0.916992188
vn -0.0933227539 0.393310547 -0.914550781
vn -0.639648438 0.5390625 -0.548339844
vn -0.825195312 0.525878906 -0.205566406
vn 0.112304688 0.991699219 0.0621337891
vn -0.874511719 0.485351562 0.00172233582
vn 0.0175018311 0.940429688 -0.33984375
vn -0.46875 0.831054688 0.299072266
vn 0.175415039 0.926269531 -0.333740234
vn -0.708007812 0.10333252 0.698242188
vn -0.882324219 -0.373046875 0.286865234
vn -0.440917969 0.172363281 0.880859375
vn -0.104858398 0.87890625 0.465087891
vn 0.0209350586 0.125488281 0.991699219
vn 0.348632812 0.868652344 -0.351318359
vn 0.35546875 0.800292969 0.482421875
vn 0.534667969 0.745117188 -0.3984375
vn 0.626464844 0.539550781 0.5625
vn 0.112304688 0.991699219 0.0621337891
vn 0.0421142578 0.999023438 0.0252075195
vn 0.833496094 0.469726562 0.291503906
vn 0.0175018311 0.940429688 -0.33984375
vn 0.868652344 0.342285156 -0.357666016
vn 0.175415039 0.926269531 -0.333740234
vn 0.688964844 0.12878418 -0.713378906
vn 0.348632812 0.868652344 -0.351318359
vn 0.434570312 -0.108642578 -0.894042969
vn 0.534667969 0.745117188 -0.3984375
vn 0.359375 -0.10144043 -0.927734375
vn 0.084777832 -0.994140625 -0.0633544922
vn 0.668457031 -0.743652344 -0.00294876099
vn 0.493896484 -0.290771484 -0.819335938
vn 0.0315856934 -0.631347656 0.774902344
vn 0.290527344 -0.635742188 0.71484375
vn 0.0598144531 -0.602539062 0.795898438
vn -0.0715942383 -0.98046875 -0.184204102
vn 0.633300781 -0.628417969 0.452148438
vn -0.177124023 -0.950683594 -0.25390625
vn -0.121826172 -0.395263672 -0.910644531
vn 0.712890625 -0.65625 0.247192383
vn -0.697265625 -0.400878906 -0.594238281
vn -0.225952148 -0.973144531 -0.039642334
vn 0.73828125 -0.673339844 0.037689209
vn -0.845214844 -0.487304688 -0.21887207
vn -0.238525391 -0.915039062 0.324707031
vn 0.395507812 -0.873535156 -0.283935547
vn -0.882324219 -0.373046875 0.286865234
vn -0.372070312 -0.766113281 0.524414062
vn -0.000460386276 -0.923828125 -0.383056641
vn -0.708007812 0.10333252 0.698242188
vn -0.414550781 -0.734375 0.537109375
vn -0.0138931274 -0.889648438 -0.456054688
vn -0.440917969 0.172363281 0.880859375
vn -0.18371582 -0.807617188 0.560058594
vn 0.0209350586 0.125488281 0.991699219
vn 0.493896484 -0.290771484 -0.819335938
vn 0.607421875 0.117248535 -0.785644531
vn -0.361816406 0.300537109 -0.882324219
vn -0.0569763184 0.394775391 -0.916992188
vn -0.994628906 0.0899658203 -0.0475158691
vn -0.648925781 0.760253906 0.0187072754
vn 0.0963134766 -0.44140625 -0.892089844
vn 0.084777832 -0.994140625 -0.0633544922
vn -0.0715942383 -0.98046875 -0.184204102
vn 0.050567627 0.357666016 -0.932617188
vn -0.121826172 -0.395263672 -0.910644531
vn -0.0933227539 0.393310547 -0.914550781
vn -0.697265625 -0.400878906 -0.594238281
vn -0.639648438 0.5390625 -0.548339844
vn -0.845214844 -0.487304688 -0.21887207
vn -0.825195312 0.525878906 -0.205566406
vn -0.882324219 -0.373046875 0.286865234
vn -0.874511719 0.485351562 0.00172233582
vn 0.668457031 -0.743652344 -0.00294876099
vn 0.607421875 0.117248535 -0.785644531
vn 0.493896484 -0.290771484 -0.819335938
vn 0.99609375 -0.0864257812 -0.0264892578
vn 0.557617188 0.281738281 -0.780761719
vn 0.995605469 0.0838623047 0.0451660156
vn 0.440673828 0.52734375 -0.7265625
vn 0.964355469 0.256835938 -0.0615844727
vn 0.377929688 0.721191406 -0.580566406
vn 0.928222656 0.36328125 0.0795898438
vn 0.290527344 -0.635742188 0.71484375
vn 0.99609375 -0.0864257812 -0.0264892578
vn 0.668457031 -0.743652344 -0.00294876099
vn 0.481445312 -0.295898438 0.825195312
vn 0.995605469 0.0838623047 0.0451660156
vn 0.438964844 -0.225830078 0.869628906
vn 0.964355469 0.256835938 -0.0615844727
vn 0.580566406 -0.330078125 0.744628906
vn 0.928222656 0.36328125 0.0795898438
vn 0.492431641 -0.307373047 0.814453125
vn -0.648925781 0.760253906 0.0187072754
vn -0.525878906 -0.237670898 0.81640625
vn -0.413574219 -0.00973510742 0.910644531
vn -0.994628906 0.0899658203 -0.0475158691
vn -0.501464844 -0.302001953 0.811035156
vn -0.995605469 -0.0768432617 0.053314209
vn -0.520996094 -0.549316406 0.653320312
vn -0.981445312 -0.152954102 -0.114440918
vn -0.576660156 -0.484863281 0.657714844
vn -0.997070312 -0.0639648438 -0.0431518555
vn -0.499755859 0.24206543 -0.831542969
vn -0.361816406 0.300537109 -0.882324219
vn -0.474609375 0.386474609 -0.791015625
vn -0.548339844 0.52734375 -0.648925781
vn 0.607421875 0.117248535 -0.785644531
vn -0.499755859 0.24206543 -0.831542969
vn -0.361816406 0.300537109 -0.882324219
vn 0.557617188 0.281738281 -0.780761719
vn -0.474609375 0.386474609 -0.791015625
vn 0.557617188 0.281738281 -0.780761719
vn 0.440673828 0.52734375 -0.7265625
vn -0.474609375 0.386474609 -0.791015625
vn -0.548339844 0.52734375 -0.648925781
vn 0.377929688 0.721191406 -0.580566406
vn 0.73828125 -0.673339844 0.037689209
vn 0.688964844 0.12878418 -0.713378906
vn 0.868652344 0.342285156 -0.357666016
vn 0.395507812 -0.873535156 -0.283935547
vn 0.434570312 -0.108642578 -0.894042969
vn -0.000460386276 -0.923828125 -0.383056641
vn 0.359375 -0.10144043 -0.927734375
vn -0.0138931274 -0.889648438 -0.456054688
vn -0.997070312 -0.0639648438 -0.0431518555
vn 0.0238800049 0.647949219 0.761230469
vn -0.576660156 -0.484863281 0.657714844
vn -0.548339844 0.52734375 -0.648925781
vn 0.492431641 -0.307373047 0.814453125
vn 0.377929688 0.721191406 -0.580566406
vn 0.928222656 0.36328125 0.0795898438
g Telephone_Cable_0
f 3/3/3 2/2/2 1/1/1
f 6/6/6 5/5/5 4/4/4
f 7/7/7 6/6/6 4/4/4
f 4/4/4 8/8/8 7/7/7
f 8/8/8 9/9/9 7/7/7
f 8/8/8 10/10/10 9/9/9
f 10/10/10 11/11/11 9/9/9
f 14/14/14 13/13/13 12/12/12
f 15/15/15 14/14/14 12/12/12
f 12/12/12 16/16/16 15/15/15
f 16/16/16 17/17/17 15/15/15
f 16/16/16 18/18/18 17/17/17
f 18/18/18 19/19/19 17/17/17
f 22/22/22 21/21/21 20/20/20
f 23/23/23 22/22/22 20/20/20
f 20/20/20 24/24/24 23/23/23
f 24/24/24 25/25/25 23/23/23
f 24/24/24 26/26/26 25/25/25
f 26/26/26 27/27/27 25/25/25
f 30/30/30 29/29/29 28/28/28
f 31/31/31 30/30/30 28/28/28
f 28/28/28 32/32/32 31/31/31
f 32/32/32 33/33/33 31/31/31
f 32/32/32 34/34/34 33/33/33
f 34/34/34 35/35/35 33/33/33
f 38/38/38 37/37/37 36/36/36
f 39/39/39 38/38/38 36/36/36
f 39/39/39 40/40/40 38/38/38
f 40/40/40 41/41/41 38/38/38
f 44/44/44 43/43/43 42/42/42
f 45/45/45 44/44/44 42/42/42
f 45/45/45 46/46/46 44/44/44
f 46/46/46 47/47/47 44/44/44
f 46/46/46 48/48/48 47/47/47
f 48/48/48 49/49/49 47/47/47
f 48/48/48 50/50/50 49/49/49
f 50/50/50 51/51/51 49/49/49
f 54/54/54 53/53/53 52/52/52
f 55/55/55 54/54/54 52/52/52
f 55/55/55 56/56/56 54/54/54
f 56/56/56 57/57/57 54/54/54
f 60/60/60 59/59/59 58/58/58
f 61/61/61 60/60/60 58/58/58
f 61/61/61 62/62/62 60/60/60
f 62/62/62 63/63/63 60/60/60
f 62/62/62 64/64/64 63/63/63
f 64/64/64 65/65/65 63/63/63
f 64/64/64 66/66/66 65/65/65
f 66/66/66 67/67/67 65/65/65
f 70/70/70 69/69/69 68/68/68
f 69/69/69 71/71/71 68/68/68
f 69/69/69 72/72/72 71/71/71
f 72/72/72 73/73/73 71/71/71
f 76/76/76 75/75/75 74/74/74
f 75/75/75 77/77/77 74/74/74
f 75/75/75 78/78/78 77/77/77
f 78/78/78 79/79/79 77/77/77
f 82/82/82 81/81/81 80/80/80
f 80/80/80 81/81/81 83/83/83
f 83/83/83 81/81/81 84/84/84
f 84/84/84 81/81/81 85/85/85
f 85/85/85 81/81/81 86/86/86
f 86/86/86 81/81/81 87/87/87
f 90/90/90 89/89/89 88/88/88
f 90/90/90 91/91/91 89/89/89
f 91/91/91 92/92/92 89/89/89
f 91/91/91 93/93/93 92/92/92
f 93/93/93 94/94/94 92/92/92
f 97/97/97 96/96/96 95/95/95
f 97/97/97 95/95/95 98/98/98
f 99/99/99 97/97/97 98/98/98
f 98/98/98 100/100/100 99/99/99
f 100/100/100 101/101/101 99/99/99
f 100/100/100 102/102/102 101/101/101
f 102/102/102 103/103/103 101/101/101
f 102/102/102 104/104/104 103/103/103
f 104/104/104 105/105/105 103/103/103
f 104/104/104 106/106/106 105/105/105
f 106/106/106 107/107/107 105/105/105
f 106/106/106 108/108/108 107/107/107
f 108/108/108 109/109/109 107/107/107
f 112/112/112 111/111/111 110/110/110
f 113/113/113 112/112/112 110/110/110
f 113/113/113 110/110/110 114/114/114
f 115/115/115 113/113/113 114/114/114
f 114/114/114 116/116/116 115/115/115
f 116/116/116 117/117/117 115/115/115
f 115/115/115 117/117/117 118/118/118
f 117/117/117 119/119/119 118/118/118
f 118/118/118 120/120/120 115/115/115
f 120/120/120 113/113/113 115/115/115
f 120/120/120 121/121/121 113/113/113
f 121/121/121 112/112/112 113/113/113
f 121/121/121 122/122/122 112/112/112
f 122/122/122 123/123/123 112/112/112
f 122/122/122 124/124/124 123/123/123
f 124/124/124 125/125/125 123/123/123
f 124/124/124 126/126/126 125/125/125
f 126/126/126 127/127/127 125/125/125
f 128/128/128 126/126/126 124/124/124
f 129/129/129 128/128/128 124/124/124
f 128/128/128 130/130/130 126/126/126
f 126/126/126 131/131/131 127/127/127
f 130/130/130 131/131/131 126/126/126
f 130/130/130 132/132/132 131/131/131
f 131/131/131 133/133/133 127/127/127
f 132/132/132 134/134/134 131/131/131
f 131/131/131 134/134/134 133/133/133
f 134/134/134 135/135/135 133/133/133
f 138/138/138 137/137/137 136/136/136
f 137/137/137 139/139/139 136/136/136
f 137/137/137 140/140/140 139/139/139
f 140/140/140 141/141/141 139/139/139
f 140/140/140 142/142/142 141/141/141
f 142/142/142 143/143/143 141/141/141
f 142/142/142 144/144/144 143/143/143
f 144/144/144 145/145/145 143/143/143
f 144/144/144 146/146/146 145/145/145
f 146/146/146 147/147/147 145/145/145
f 150/150/150 149/149/149 148/148/148
f 148/148/148 149/149/149 151/151/151
f 149/149/149 152/152/152 151/151/151
f 151/151/151 153/153/153 148/148/148
f 153/153/153 154/154/154 148/148/148
f 153/153/153 155/155/155 154/154/154
f 155/155/155 156/156/156 154/154/154
f 154/154/154 156/156/156 157/157/157
f 155/155/155 158/158/158 156/156/156
f 156/156/156 159/159/159 157/157/157
f 158/158/158 160/160/160 156/156/156
f 156/156/156 160/160/160 159/159/159
f 158/158/158 161/161/161 160/160/160
f 160/160/160 162/162/162 159/159/159
f 161/161/161 163/163/163 160/160/160
f 160/160/160 163/163/163 162/162/162
f 161/161/161 164/164/164 163/163/163
f 163/163/163 165/165/165 162/162/162
f 164/164/164 166/166/166 163/163/163
f 163/163/163 166/166/166 165/165/165
f 164/164/164 167/167/167 166/166/166
f 166/166/166 168/168/168 165/165/165
f 167/167/167 169/169/169 166/166/166
f 166/166/166 169/169/169 168/168/168
f 167/167/167 170/170/170 169/169/169
f 169/169/169 171/171/171 168/168/168
f 170/170/170 172/172/172 169/169/169
f 169/169/169 172/172/172 171/171/171
f 172/172/172 173/173/173 171/171/171
f 176/176/176 175/175/175 174/174/174
f 177/177/177 176/176/176 174/174/174
f 178/178/178 176/176/176 177/177/177
f 179/179/179 178/178/178 177/177/177
f 177/177/177 174/174/174 180/180/180
f 180/180/180 174/174/174 181/181/181
f 181/181/181 182/182/182 180/180/180
f 183/183/183 177/177/177 180/180/180
f 182/182/182 184/184/184 180/180/180
f 180/180/180 184/184/184 183/183/183
f 184/184/184 185/185/185 183/183/183
f 184/184/184 186/186/186 185/185/185
f 186/186/186 187/187/187 185/185/185
f 186/186/186 188/188/188 187/187/187
f 188/188/188 189/189/189 187/187/187
f 188/188/188 190/190/190 189/189/189
f 190/190/190 191/191/191 189/189/189
f 194/194/194 193/193/193 192/192/192
f 193/193/193 195/195/195 192/192/192
f 193/193/193 196/196/196 195/195/195
f 196/196/196 197/197/197 195/195/195
f 196/196/196 198/198/198 197/197/197
f 198/198/198 199/199/199 197/197/197
f 198/198/198 200/200/200 199/199/199
f 200/200/200 201/201/201 199/199/199
f 204/204/204 203/203/203 202/202/202
f 203/203/203 205/205/205 202/202/202
f 203/203/203 206/206/206 205/205/205
f 206/206/206 207/207/207 205/205/205
f 206/206/206 208/208/208 207/207/207
f 208/208/208 209/209/209 207/207/207
f 208/208/208 210/210/210 209/209/209
f 210/210/210 211/211/211 209/209/209
f 214/214/214 213/213/213 212/212/212
f 213/213/213 215/215/215 212/212/212
f 213/213/213 216/216/216 215/215/215
f 216/216/216 217/217/217 215/215/215
f 216/216/216 218/218/218 217/217/217
f 218/218/218 219/219/219 217/217/217
f 218/218/218 220/220/220 219/219/219
f 220/220/220 221/221/221 219/219/219
f 217/217/217 219/219/219 222/222/222
f 217/217/217 222/222/222 223/223/223
f 219/219/219 224/224/224 222/222/222
f 219/219/219 221/221/221 224/224/224
f 221/221/221 225/225/225 224/224/224
f 228/228/228 227/227/227 226/226/226
f 227/227/227 229/229/229 226/226/226
f 227/227/227 230/230/230 229/229/229
f 233/233/233 232/232/232 231/231/231
f 233/233/233 234/234/234 232/232/232
f 234/234/234 235/235/235 232/232/232
f 238/238/238 237/237/237 236/236/236
f 237/237/237 239/239/239 236/236/236
f 237/237/237 240/240/240 239/239/239
f 240/240/240 241/241/241 239/239/239
f 240/240/240 242/242/242 241/241/241
f 242/242/242 243/243/243 241/241/241
f 246/246/246 245/245/245 244/244/244
f 244/244/244 245/245/245 247/247/247
f 248/248/248 245/245/245 246/246/246
f 247/247/247 245/245/245 249/249/249
f 250/250/250 245/245/245 248/248/248
f 249/249/249 245/245/245 250/250/250
