g BlueBook
v -0.0292861927 0 0.0955930725
v -0.0292861927 0.266195685 0.0955930278
v -0 0.266195685 0.100665398
v 7.62939436E-08 0 0.100665361
v 0.02928604 0 0.0955930278
v 0.02928604 0.266195685 0.0955930725
v -0.0267685689 0.26429984 0.0939820856
v -0.0267685689 0.26429984 -0.0939821601
v -0 0.26429984 -0.0939821601
v -0 0.26429984 0.0986183882
v 0.0267685689 0.26429984 0.0939820856
v 0.0267685689 0.26429984 -0.0939821601
v -0.0267685689 0.26429984 -0.0939821601
v -0.0267685689 0.00189582817 -0.0939821601
v -0 0.00189582817 -0.0939821601
v -0 0.26429984 -0.0939821601
v 0.0267685689 0.26429984 -0.0939821601
v 0.0267685689 0.00189582817 -0.0939821601
v -0.0267685689 0.00189582817 -0.0939821601
v -0.0267685689 0.00189582817 0.0939820856
v -0 0.00189582817 0.0986183882
v -0 0.00189582817 -0.0939821601
v 0.0267685689 0.00189582817 -0.0939821601
v 0.0267685689 0.00189582817 0.0939820856
v 0.02928604 0 0.0955930278
v 0.02928604 0.266195685 0.0955930725
v 0.02928604 0.266195685 -0.0939821601
v 0.02928604 0 -0.0939821601
v -0.0292861927 0 -0.0939821601
v -0.0292861927 0.266195685 -0.0939821601
v -0.0292861927 0.266195685 0.0955930278
v -0.0292861927 0 0.0955930725
v -0.0267685689 0.00189582817 0.0939820856
v -0.0292861927 0 0.0955930725
v 7.62939436E-08 0 0.100665361
v -0 0.00189582817 0.0986183882
v 0.02928604 0 0.0955930278
v 0.0267685689 0.00189582817 0.0939820856
v -0 0.26429984 0.0986183882
v -0.0292861927 0.266195685 0.0955930278
v -0.0267685689 0.26429984 0.0939820856
v -0 0.266195685 0.100665398
v 0.0267685689 0.26429984 0.0939820856
v 0.02928604 0.266195685 0.0955930725
v 0.0267685689 0.00189582817 0.0939820856
v 0.02928604 0 0.0955930278
v 0.02928604 0 -0.0939821601
v 0.0267685689 0.00189582817 -0.0939821601
v 0.0267685689 0.00189582817 -0.0939821601
v 0.02928604 0 -0.0939821601
v 0.02928604 0.266195685 -0.0939821601
v 0.0267685689 0.26429984 -0.0939821601
v 0.0267685689 0.26429984 -0.0939821601
v 0.02928604 0.266195685 -0.0939821601
v 0.02928604 0.266195685 0.0955930725
v 0.0267685689 0.26429984 0.0939820856
v -0.0267685689 0.00189582817 -0.0939821601
v -0.0292861927 0 -0.0939821601
v -0.0292861927 0 0.0955930725
v -0.0267685689 0.00189582817 0.0939820856
v -0.0267685689 0.26429984 0.0939820856
v -0.0292861927 0.266195685 0.0955930278
v -0.0292861927 0.266195685 -0.0939821601
v -0.0267685689 0.26429984 -0.0939821601
v -0.0267685689 0.26429984 -0.0939821601
v -0.0292861927 0.266195685 -0.0939821601
v -0.0292861927 0 -0.0939821601
v -0.0267685689 0.00189582817 -0.0939821601
vt 0.709472656 0.491699219
vt 0.6328125 0.491455078
vt 0.6328125 0.498779297
vt 0.709472656 0.498779297
vt 0.709472656 0.505859375
vt 0.6328125 0.505859375
vt 0.608398438 0.492431641
vt 0.608398438 0.595214844
vt 0.618164062 0.595214844
vt 0.618164062 0.489990234
vt 0.628417969 0.492431641
vt 0.628417969 0.595214844
vt 0.608398438 0.494873047
vt 0.608398438 0.595214844
vt 0.618164062 0.595214844
vt 0.618164062 0.494873047
vt 0.628417969 0.494873047
vt 0.628417969 0.595214844
vt 0.608398438 0.595214844
vt 0.608398438 0.492431641
vt 0.618164062 0.489990234
vt 0.618164062 0.595214844
vt 0.628417969 0.595214844
vt 0.628417969 0.492431641
vt 0.709472656 0.505859375
vt 0.6328125 0.505859375
vt 0.6328125 0.562988281
vt 0.709472656 0.562988281
vt 0.6328125 0.562988281
vt 0.709960938 0.562988281
vt 0.709960938 0.505859375
vt 0.6328125 0.505859375
vt 0.710449219 0.4921875
vt 0.709472656 0.491699219
vt 0.709472656 0.498779297
vt 0.709960938 0.498779297
vt 0.709472656 0.505859375
vt 0.710449219 0.505371094
vt 0.632324219 0.498779297
vt 0.6328125 0.491455078
vt 0.631835938 0.4921875
vt 0.6328125 0.498779297
vt 0.631835938 0.505371094
vt 0.6328125 0.505859375
vt 0.710449219 0.506347656
vt 0.709472656 0.505859375
vt 0.709472656 0.562988281
vt 0.710449219 0.562988281
vt 0.708984375 0.563964844
vt 0.709472656 0.562988281
vt 0.6328125 0.562988281
vt 0.633300781 0.563964844
vt 0.631835938 0.562988281
vt 0.6328125 0.562988281
vt 0.6328125 0.505859375
vt 0.631835938 0.506347656
vt 0.631835938 0.562988281
vt 0.6328125 0.562988281
vt 0.6328125 0.505859375
vt 0.631835938 0.506347656
vt 0.710449219 0.506347656
vt 0.709960938 0.505859375
vt 0.709960938 0.562988281
vt 0.710449219 0.562988281
vt 0.709472656 0.563964844
vt 0.709960938 0.562988281
vt 0.6328125 0.562988281
vt 0.633300781 0.563964844
vn -0.170654297 0 0.985351562
vn -0.170654297 0 0.985351562
vn -0 0 1
vn -0 0 1
vn 0.170654297 -1.1920929E-07 0.985351562
vn 0.170654297 -1.1920929E-07 0.985351562
vn 0.0751953125 0.997070312 -0.0119171143
vn 0.0641479492 0.998046875 0
vn -0 1 0
vn -0 1 -0.0124740601
vn -0.0751953125 0.997070312 -0.0119171143
vn -0.0641479492 0.998046875 0
vn -0 0 -1
vn -0 0 -1
vn -0 0 -1
vn -0 0 -1
vn -0 0 -1
vn -0 0 -1
vn 0.0641479492 -0.998046875 0
vn 0.0751953125 -0.997070312 -0.0119171143
vn -0 -1 -0.0124740601
vn -0 -1 0
vn -0.0641479492 -0.998046875 0
vn -0.0751953125 -0.997070312 -0.0119171143
vn 1 0 0
vn 1 0 0
vn 1 0 0
vn 1 0 0
vn -1 0 0
vn -1 0 0
vn -1 0 0
vn -1 0 0
vn 0.0751953125 -0.997070312 -0.0119171143
vn 0.116882324 -0.728515625 -0.674804688
vn -2.38418579E-06 -0.733886719 -0.6796875
vn -0 -1 -0.0124740601
vn -0.116882324 -0.728515625 -0.674804688
vn -0.0751953125 -0.997070312 -0.0119171143
vn -0 1 -0.0124740601
vn 0.116882324 0.728515625 -0.674804688
vn 0.0751953125 0.997070312 -0.0119171143
vn 1.78813934E-07 0.733886719 -0.6796875
vn -0.0751953125 0.997070312 -0.0119171143
vn -0.116882324 0.728515625 -0.674804688
vn -0.0751953125 -0.997070312 -0.0119171143
vn -0.6015625 -0.798828125 0
vn -0.6015625 -0.798828125 0
vn -0.0641479492 -0.998046875 0
vn -0 0 -1
vn 2.98023224E-07 0 -1
vn 2.98023224E-07 0 -1
vn -0 0 -1
vn -0.0641479492 0.998046875 0
vn -0.6015625 0.798828125 0
vn -0.6015625 0.798828125 0
vn -0.0751953125 0.997070312 -0.0119171143
vn 0.0641479492 -0.998046875 0
vn 0.6015625 -0.798828125 0
vn 0.6015625 -0.798828125 0
vn 0.0751953125 -0.997070312 -0.0119171143
vn 0.0751953125 0.997070312 -0.0119171143
vn 0.6015625 0.798828125 0
vn 0.6015625 0.798828125 0
vn 0.0641479492 0.998046875 0
vn -0 0 -1
vn -2.98023224E-07 0 -1
vn -2.98023224E-07 0 -1
vn -0 0 -1
g BlueBook_0
f 3/3/3 2/2/2 1/1/1
f 4/4/4 3/3/3 1/1/1
f 4/4/4 5/5/5 3/3/3
f 5/5/5 6/6/6 3/3/3
f 9/9/9 8/8/8 7/7/7
f 10/10/10 9/9/9 7/7/7
f 10/10/10 11/11/11 9/9/9
f 11/11/11 12/12/12 9/9/9
f 15/15/15 14/14/14 13/13/13
f 16/16/16 15/15/15 13/13/13
f 16/16/16 17/17/17 15/15/15
f 17/17/17 18/18/18 15/15/15
f 21/21/21 20/20/20 19/19/19
f 22/22/22 21/21/21 19/19/19
f 22/22/22 23/23/23 21/21/21
f 23/23/23 24/24/24 21/21/21
f 27/27/27 26/26/26 25/25/25
f 28/28/28 27/27/27 25/25/25
f 31/31/31 30/30/30 29/29/29
f 32/32/32 31/31/31 29/29/29
f 35/35/35 34/34/34 33/33/33
f 36/36/36 35/35/35 33/33/33
f 37/37/37 35/35/35 36/36/36
f 38/38/38 37/37/37 36/36/36
f 41/41/41 40/40/40 39/39/39
f 40/40/40 42/42/42 39/39/39
f 39/39/39 42/42/42 43/43/43
f 42/42/42 44/44/44 43/43/43
f 47/47/47 46/46/46 45/45/45
f 48/48/48 47/47/47 45/45/45
f 51/51/51 50/50/50 49/49/49
f 52/52/52 51/51/51 49/49/49
f 55/55/55 54/54/54 53/53/53
f 56/56/56 55/55/55 53/53/53
f 59/59/59 58/58/58 57/57/57
f 60/60/60 59/59/59 57/57/57
f 63/63/63 62/62/62 61/61/61
f 64/64/64 63/63/63 61/61/61
f 67/67/67 66/66/66 65/65/65
f 68/68/68 67/67/67 65/65/65
