g IS4_SalaControl_CajaPapeles
v -0.142446443 0.247646287 0.161690667
v -0.142446443 0.249646291 0.161690667
v -0.0126531981 0.247218743 0.169019923
v -0.0126531981 0.245218724 0.169019923
v 0.11714004 0.247646287 0.176349029
v 0.11714004 0.249646291 0.176349029
v 0.11714004 0.247646287 0.176349029
v 0.11714004 0.249646291 0.176349029
v 0.127288058 0.247218743 -0.00336471549
v 0.127288058 0.245218724 -0.00336471549
v 0.137436062 0.247646287 -0.183078304
v 0.137436062 0.249646291 -0.183078304
v 0.00764282187 0.247218743 -0.190407559
v -0.122150421 0.249646291 -0.197736666
v -0.122150421 0.247646287 -0.197736666
v 0.00764282187 0.245218724 -0.190407559
v 0.137436062 0.247646287 -0.183078304
v 0.137436062 0.249646291 -0.183078304
v -0.132298425 0.247218743 -0.0180229191
v -0.142446443 0.249646291 0.161690667
v -0.142446443 0.247646287 0.161690667
v -0.132298425 0.245218724 -0.0180229191
v -0.122150421 0.247646287 -0.197736666
v -0.122150421 0.249646291 -0.197736666
v 0.00764282187 0.245218724 -0.190407559
v -0.122150421 0.247646287 -0.197736666
v -0.132298425 0.245218724 -0.0180229191
v -0.00250518788 0.245218724 -0.0106938165
v -0.142446443 0.247646287 0.161690667
v -0.0126531981 0.245218724 0.169019923
v 0.127288058 0.245218724 -0.00336471549
v 0.137436062 0.247646287 -0.183078304
v 0.11714004 0.247646287 0.176349029
v -0.132298425 0.247218743 -0.0180229191
v -0.122150421 0.249646291 -0.197736666
v 0.00764282187 0.247218743 -0.190407559
v -0.00250518788 0.247218743 -0.0106938165
v -0.142446443 0.249646291 0.161690667
v -0.0126531981 0.247218743 0.169019923
v 0.11714004 0.249646291 0.176349029
v 0.127288058 0.247218743 -0.00336471549
v 0.137436062 0.249646291 -0.183078304
v -0.132505178 0.132854313 0.169306174
v -0.132505178 0.245903298 0.169306174
v 0.127494812 0.245903298 0.169306174
v 0.127494812 0.132854313 0.169306174
v -0.132505178 0.0198053364 0.169306174
v 0.127494812 0.0198053364 0.169306174
v -0.132505178 0.245903298 0.169306174
v -0.132505178 0.245903298 -0.190693811
v 0.127494812 0.245903298 -0.190693811
v 0.127494812 0.245903298 0.169306174
v -0.132505178 0.245903298 -0.190693811
v 0.127494812 0.132854313 -0.190693811
v 0.127494812 0.245903298 -0.190693811
v -0.132505178 0.132854313 -0.190693811
v 0.127494812 0.0198053364 -0.190693811
v -0.132505178 0.0198053364 -0.190693811
v -0.132505178 0.0198053364 -0.190693811
v -0.132505178 0.0198053364 0.169306174
v 0.127494812 0.0198053364 0.169306174
v 0.127494812 0.0198053364 -0.190693811
v 0.127494812 0.132854313 0.169306174
v 0.127494812 0.245903298 0.169306174
v 0.127494812 0.245903298 -0.190693811
v 0.127494812 0.132854313 -0.190693811
v 0.127494812 0.0198053364 0.169306174
v 0.127494812 0.0198053364 -0.190693811
v -0.132505178 0.132854313 -0.190693811
v -0.132505178 0.245903298 -0.190693811
v -0.132505178 0.245903298 0.169306174
v -0.132505178 0.132854313 0.169306174
v -0.132505178 0.0198053364 -0.190693811
v -0.132505178 0.0198053364 0.169306174
v -0.144593343 0.266635418 0.216266021
v -0.144593343 0.266635418 -0.216265857
v -0.144593343 0.0125733409 -0.216265857
v -0.144593343 0.0125733409 0.216266021
v 0.144593343 0.0125733409 0.216266021
v 0.144593343 0.0125733409 -0.216265857
v 0.144593343 0.266635418 -0.216265857
v 0.144593343 0.266635418 0.216266021
v -0.144593343 0.0125733409 0.216266021
v -0.144593343 0.0125733409 -0.216265857
v 0.144593343 0.0125733409 -0.216265857
v 0.144593343 0.0125733409 0.216266021
v -0.157166749 0.266635418 0.228839338
v -0.157166749 0 0.228839338
v -0.157166749 0 -0.228839412
v -0.157166749 0.266635418 -0.228839412
v 0.157166675 0 0.228839338
v 0.157166675 0.266635418 0.228839338
v 0.157166675 0.266635418 -0.228839412
v 0.157166675 0 -0.228839412
v -0.157166749 0 0.228839338
v 0.157166675 0 0.228839338
v 0.157166675 0 -0.228839412
v -0.157166749 0 -0.228839412
v -0.157166749 0.266635418 0.228839338
v -0.157166749 0.266635418 -0.228839412
v -0.144593343 0.266635418 -0.216265857
v -0.144593343 0.266635418 0.216266021
v 0.157166675 0.266635418 -0.228839412
v 0.157166675 0.266635418 0.228839338
v 0.144593343 0.266635418 0.216266021
v 0.144593343 0.266635418 -0.216265857
v 0.157166675 0.266635418 0.228839338
v -0.157166749 0.266635418 0.228839338
v -0.144593343 0.266635418 0.216266021
v 0.144593343 0.266635418 0.216266021
v -0.0523837283 0.232328847 0.228839338
v 0.0523835756 0.232328847 0.228839338
v 0.0523835756 0.232328847 0.216266021
v -0.0523837283 0.232328847 0.216266021
v 0.0523835756 0.195469275 0.228839338
v -0.0523837283 0.195469275 0.228839338
v -0.0523837283 0.195469275 0.216266021
v 0.0523835756 0.195469275 0.216266021
v -0.0523837283 0.195469275 -0.228839412
v 0.0523835756 0.195469275 -0.228839412
v 0.0523835756 0.195469275 -0.216265857
v -0.0523837283 0.195469275 -0.216265857
v 0.0523835756 0.232328847 -0.228839412
v -0.0523837283 0.232328847 -0.228839412
v -0.0523837283 0.232328847 -0.216265857
v 0.0523835756 0.232328847 -0.216265857
v -0.157166749 0.266635418 -0.228839412
v 0.157166675 0.266635418 -0.228839412
v 0.144593343 0.266635418 -0.216265857
v -0.144593343 0.266635418 -0.216265857
v 0.0523835756 0.232328847 0.228839338
v 0.0523835756 0.195469275 0.228839338
v 0.0523835756 0.195469275 0.216266021
v 0.0523835756 0.232328847 0.216266021
v 0.0523835756 0.195469275 -0.228839412
v 0.0523835756 0.232328847 -0.228839412
v 0.0523835756 0.232328847 -0.216265857
v 0.0523835756 0.195469275 -0.216265857
v -0.0523837283 0.232328847 -0.228839412
v -0.0523837283 0.195469275 -0.228839412
v -0.0523837283 0.195469275 -0.216265857
v -0.0523837283 0.232328847 -0.216265857
v -0.0523837283 0.195469275 0.228839338
v -0.0523837283 0.232328847 0.228839338
v -0.0523837283 0.232328847 0.216266021
v -0.0523837283 0.195469275 0.216266021
v -0.157166749 0 -0.228839412
v 0.157166675 0 -0.228839412
v 0.0523835756 0.195469275 -0.228839412
v 0.157166675 0.266635418 -0.228839412
v -0.0523837283 0.195469275 -0.228839412
v 0.0523835756 0.232328847 -0.228839412
v -0.0523837283 0.232328847 -0.228839412
v -0.157166749 0.266635418 -0.228839412
v -0.144593343 0.0125733409 -0.216265857
v 0.0523835756 0.195469275 -0.216265857
v 0.144593343 0.0125733409 -0.216265857
v 0.144593343 0.266635418 -0.216265857
v -0.0523837283 0.195469275 -0.216265857
v 0.0523835756 0.232328847 -0.216265857
v -0.0523837283 0.232328847 -0.216265857
v -0.144593343 0.266635418 -0.216265857
v 0.0523835756 0.195469275 0.228839338
v 0.157166675 0 0.228839338
v -0.157166749 0 0.228839338
v -0.0523837283 0.195469275 0.228839338
v 0.0523835756 0.232328847 0.228839338
v -0.157166749 0.266635418 0.228839338
v 0.157166675 0.266635418 0.228839338
v -0.0523837283 0.232328847 0.228839338
v 0.0523835756 0.195469275 0.216266021
v -0.144593343 0.0125733409 0.216266021
v 0.144593343 0.0125733409 0.216266021
v -0.0523837283 0.195469275 0.216266021
v 0.0523835756 0.232328847 0.216266021
v -0.144593343 0.266635418 0.216266021
v 0.144593343 0.266635418 0.216266021
v -0.0523837283 0.232328847 0.216266021
vt 0.93359375 0.0763549805
vt 0.93359375 0.0759887695
vt 0.908203125 0.0760498047
vt 0.908203125 0.0764160156
vt 0.8828125 0.0763549805
vt 0.8828125 0.0759887695
vt 0.882324219 0.0759887695
vt 0.8828125 0.0759887695
vt 0.8828125 0.0410461426
vt 0.882324219 0.0410461426
vt 0.882324219 0.00610351562
vt 0.8828125 0.00609970093
vt 0.908203125 0.00603866577
vt 0.933105469 0.00609970093
vt 0.933105469 0.00571060181
vt 0.908203125 0.00564956665
vt 0.8828125 0.00571060181
vt 0.8828125 0.00609970093
vt 0.93359375 0.0410461426
vt 0.93359375 0.0759887695
vt 0.93359375 0.0759887695
vt 0.93359375 0.0410461426
vt 0.93359375 0.00610351562
vt 0.933105469 0.00609970093
vt 0.908203125 0.0759277344
vt 0.933105469 0.0759277344
vt 0.933105469 0.0410461426
vt 0.908203125 0.0410461426
vt 0.933105469 0.00617980957
vt 0.908203125 0.00618362427
vt 0.8828125 0.0410461426
vt 0.8828125 0.0759277344
vt 0.8828125 0.00618362427
vt 0.93359375 0.0410461426
vt 0.933105469 0.00609970093
vt 0.908203125 0.00603866577
vt 0.908203125 0.0410461426
vt 0.93359375 0.0759887695
vt 0.908203125 0.0760498047
vt 0.8828125 0.0759887695
vt 0.8828125 0.0410461426
vt 0.8828125 0.00609970093
vt 0.956542969 0.0164031982
vt 0.934082031 0.0164031982
vt 0.934082031 0.0676879883
vt 0.956542969 0.0676879883
vt 0.979003906 0.0164031982
vt 0.979003906 0.0676879883
vt 0.8828125 0.00578689575
vt 0.8828125 0.076171875
vt 0.93359375 0.076171875
vt 0.93359375 0.00577545166
vt 0.934082031 0.0164031982
vt 0.956542969 0.0676879883
vt 0.934082031 0.0676879883
vt 0.956542969 0.0164031982
vt 0.979003906 0.0676879883
vt 0.979003906 0.0164031982
vt 0.93359375 0.076171875
vt 0.93359375 0.00577545166
vt 0.8828125 0.00578689575
vt 0.8828125 0.076171875
vt 0.956542969 0.00553512573
vt 0.934082031 0.00553512573
vt 0.934082031 0.0764770508
vt 0.956542969 0.0764770508
vt 0.979003906 0.00553512573
vt 0.979003906 0.0764770508
vt 0.956542969 0.00553512573
vt 0.934082031 0.00553512573
vt 0.934082031 0.0764770508
vt 0.956542969 0.0764770508
vt 0.979003906 0.00553512573
vt 0.979003906 0.0764770508
vt 0.876953125 0.147949219
vt 0.772949219 0.147949219
vt 0.772949219 0.209106445
vt 0.876953125 0.209106445
vt 0.772949219 0.209106445
vt 0.876953125 0.209106445
vt 0.876953125 0.147949219
vt 0.772949219 0.147949219
vt 0.771972656 0.0756835938
vt 0.87890625 0.0756835938
vt 0.87890625 0.00406265259
vt 0.771972656 0.00406265259
vt 0.879882812 0.144897461
vt 0.879882812 0.080871582
vt 0.770019531 0.080871582
vt 0.770019531 0.144897461
vt 0.770019531 0.080871582
vt 0.770019531 0.144897461
vt 0.879882812 0.144897461
vt 0.879882812 0.080871582
vt 0.770019531 0.00203132629
vt 0.770019531 0.0777587891
vt 0.880371094 0.0777587891
vt 0.880371094 0.00203132629
vt 0.879882812 0.144897461
vt 0.770019531 0.144897461
vt 0.772949219 0.147949219
vt 0.876953125 0.147949219
vt 0.879882812 0.144897461
vt 0.770019531 0.144897461
vt 0.772949219 0.147949219
vt 0.876953125 0.147949219
vt 0.956542969 0.144897461
vt 0.881347656 0.144897461
vt 0.884277344 0.147949219
vt 0.953613281 0.147949219
vt 0.881835938 0.178588867
vt 0.881835938 0.156005859
vt 0.879394531 0.156005859
vt 0.879394531 0.178588867
vt 0.881835938 0.208984375
vt 0.881835938 0.186523438
vt 0.879394531 0.186523438
vt 0.879394531 0.208984375
vt 0.879394531 0.186401367
vt 0.879394531 0.208984375
vt 0.881835938 0.208984375
vt 0.881835938 0.186401367
vt 0.879394531 0.156005859
vt 0.879394531 0.178466797
vt 0.881835938 0.178466797
vt 0.881835938 0.155883789
vt 0.956542969 0.144897461
vt 0.881347656 0.144897461
vt 0.884277344 0.147949219
vt 0.953613281 0.147949219
vt 0.881835938 0.156005859
vt 0.881835938 0.148071289
vt 0.879394531 0.148071289
vt 0.879394531 0.156005859
vt 0.879394531 0.147949219
vt 0.879394531 0.156005859
vt 0.881835938 0.155883789
vt 0.881835938 0.147949219
vt 0.879394531 0.178466797
vt 0.879394531 0.186401367
vt 0.881835938 0.186401367
vt 0.881835938 0.178466797
vt 0.881835938 0.186523438
vt 0.881835938 0.178588867
vt 0.879394531 0.178588867
vt 0.879394531 0.186523438
vt 0.956542969 0.0809936523
vt 0.881347656 0.0809936523
vt 0.90625 0.127807617
vt 0.881347656 0.144897461
vt 0.931640625 0.127807617
vt 0.90625 0.13671875
vt 0.931640625 0.13671875
vt 0.956542969 0.144897461
vt 0.953613281 0.208862305
vt 0.90625 0.165039062
vt 0.884277344 0.208862305
vt 0.884277344 0.147949219
vt 0.931640625 0.165039062
vt 0.90625 0.15612793
vt 0.931640625 0.15612793
vt 0.953613281 0.147949219
vt 0.931640625 0.127807617
vt 0.956542969 0.0809936523
vt 0.881347656 0.0809936523
vt 0.90625 0.127807617
vt 0.931640625 0.13671875
vt 0.881347656 0.144897461
vt 0.956542969 0.144897461
vt 0.90625 0.13671875
vt 0.931640625 0.165039062
vt 0.884277344 0.208862305
vt 0.953613281 0.208862305
vt 0.90625 0.165039062
vt 0.931640625 0.15612793
vt 0.884277344 0.147949219
vt 0.953613281 0.147949219
vt 0.90625 0.15612793
vn -0.0563659668 0 0.998535156
vn -0.0563659668 0 0.998535156
vn -0.0563659668 0 0.998535156
vn -0.0563659668 0 0.998535156
vn -0.0563659668 0 0.998535156
vn -0.0563659668 0 0.998535156
vn 0.998535156 0 0.0563659668
vn 0.998535156 0 0.0563659668
vn 0.998535156 0 0.0563659668
vn 0.998535156 0 0.0563659668
vn 0.998535156 0 0.0563659668
vn 0.998535156 0 0.0563659668
vn 0.0563659668 0 -0.998535156
vn 0.0563659668 0 -0.998535156
vn 0.0563659668 0 -0.998535156
vn 0.0563659668 0 -0.998535156
vn 0.0563659668 0 -0.998535156
vn 0.0563659668 0 -0.998535156
vn -0.998535156 0 -0.0563659668
vn -0.998535156 0 -0.0563659668
vn -0.998535156 0 -0.0563659668
vn -0.998535156 0 -0.0563659668
vn -0.998535156 0 -0.0563659668
vn -0.998535156 0 -0.0563659668
vn -0.00894165039 -1 -0.0072593689
vn -0.00894165039 -1 -0.0072593689
vn -0.00970458984 -1 0.00620651245
vn -0.00970458984 -1 0.00620651245
vn -0.00970458984 -1 0.00620651245
vn -0.00970458984 -1 0.00620651245
vn 0.00970458984 -1 -0.00620651245
vn 0.00970458984 -1 -0.00620651245
vn 0.00894165039 -1 0.0072593689
vn 0.00970458984 1 -0.00620651245
vn 0.00894165039 1 0.0072593689
vn 0.00894165039 1 0.0072593689
vn 0.00970458984 1 -0.00620651245
vn 0.00970458984 1 -0.00620651245
vn 0.00970458984 1 -0.00620651245
vn -0.00894165039 1 -0.0072593689
vn -0.00894165039 1 -0.0072593689
vn -0.00970458984 1 0.00620651245
vn -0 0 1
vn -0 0 1
vn -0 0 1
vn -0 0 1
vn -0 0 1
vn -0 0 1
vn -0 1 0
vn -0 1 0
vn -0 1 0
vn -0 1 0
vn -0 0 -1
vn -0 0 -1
vn -0 0 -1
vn -0 0 -1
vn -0 0 -1
vn -0 0 -1
vn -0 -1 0
vn -0 -1 0
vn -0 -1 0
vn -0 -1 0
vn 1 0 0
vn 1 0 0
vn 1 0 0
vn 1 0 0
vn 1 0 0
vn 1 0 0
vn -1 0 0
vn -1 0 0
vn -1 0 0
vn -1 0 0
vn -1 0 0
vn -1 0 0
vn 1 0 0
vn 1 0 0
vn 1 0 0
vn 1 0 0
vn -1 0 0
vn -1 0 0
vn -1 0 0
vn -1 0 0
vn -0 1 0
vn -0 1 0
vn -0 1 0
vn -0 1 0
vn -1 0 0
vn -1 0 0
vn -1 0 0
vn -1 0 0
vn 1 0 0
vn 1 0 0
vn 1 0 0
vn 1 0 0
vn -0 -1 0
vn -0 -1 0
vn -0 -1 0
vn -0 -1 0
vn -0 1 0
vn -0 1 0
vn -0 1 0
vn -0 1 0
vn -0 1 0
vn -0 1 0
vn -0 1 0
vn -0 1 0
vn -0 1 0
vn -0 1 0
vn -0 1 0
vn -0 1 0
vn -0 -1 0
vn -0 -1 0
vn -0 -1 0
vn -0 -1 0
vn -0 1 0
vn -0 1 0
vn -0 1 0
vn -0 1 0
vn -0 1 0
vn -0 1 0
vn -0 1 0
vn -0 1 0
vn -0 -1 0
vn -0 -1 0
vn -0 -1 0
vn -0 -1 0
vn -0 1 0
vn -0 1 0
vn -0 1 0
vn -0 1 0
vn -1 0 0
vn -1 0 0
vn -1 0 0
vn -1 0 0
vn -1 0 0
vn -1 0 0
vn -1 0 0
vn -1 0 0
vn 1 0 0
vn 1 0 0
vn 1 0 0
vn 1 0 0
vn 1 0 0
vn 1 0 0
vn 1 0 0
vn 1 0 0
vn -0 0 -1
vn -0 0 -1
vn -0 0 -1
vn -1.1920929E-07 0 -1
vn -0 0 -1
vn -0 0 -1
vn 1.1920929E-07 0 -1
vn 1.78813934E-07 0 -1
vn -0 0 1
vn -0 0 1
vn -0 0 1
vn -0 0 1
vn -0 0 1
vn -0 0 1
vn -0 0 1
vn -0 0 1
vn -0 0 1
vn -0 0 1
vn -0 0 1
vn -0 0 1
vn -0 0 1
vn -0 0 1
vn -0 0 1
vn -0 0 1
vn -0 0 -1
vn -0 0 -1
vn -0 0 -1
vn -0 0 -1
vn 1.1920929E-07 0 -1
vn -1.78813934E-07 0 -1
vn 1.78813934E-07 0 -1
vn -1.1920929E-07 0 -1
g IS4_SalaControl_CajaPapeles_0
f 3/3/3 2/2/2 1/1/1
f 4/4/4 3/3/3 1/1/1
f 4/4/4 5/5/5 3/3/3
f 5/5/5 6/6/6 3/3/3
f 9/9/9 8/8/8 7/7/7
f 10/10/10 9/9/9 7/7/7
f 10/10/10 11/11/11 9/9/9
f 11/11/11 12/12/12 9/9/9
f 15/15/15 14/14/14 13/13/13
f 16/16/16 15/15/15 13/13/13
f 16/16/16 13/13/13 17/17/17
f 13/13/13 18/18/18 17/17/17
f 21/21/21 20/20/20 19/19/19
f 22/22/22 21/21/21 19/19/19
f 22/22/22 19/19/19 23/23/23
f 19/19/19 24/24/24 23/23/23
f 27/27/27 26/26/26 25/25/25
f 28/28/28 27/27/27 25/25/25
f 27/27/27 28/28/28 29/29/29
f 28/28/28 30/30/30 29/29/29
f 28/28/28 25/25/25 31/31/31
f 28/28/28 31/31/31 30/30/30
f 25/25/25 32/32/32 31/31/31
f 31/31/31 33/33/33 30/30/30
f 36/36/36 35/35/35 34/34/34
f 37/37/37 36/36/36 34/34/34
f 37/37/37 34/34/34 38/38/38
f 39/39/39 37/37/37 38/38/38
f 39/39/39 40/40/40 37/37/37
f 40/40/40 41/41/41 37/37/37
f 37/37/37 41/41/41 36/36/36
f 41/41/41 42/42/42 36/36/36
f 45/45/45 44/44/44 43/43/43
f 46/46/46 45/45/45 43/43/43
f 46/46/46 43/43/43 47/47/47
f 48/48/48 46/46/46 47/47/47
f 51/51/51 50/50/50 49/49/49
f 52/52/52 51/51/51 49/49/49
f 55/55/55 54/54/54 53/53/53
f 54/54/54 56/56/56 53/53/53
f 54/54/54 57/57/57 56/56/56
f 57/57/57 58/58/58 56/56/56
f 61/61/61 60/60/60 59/59/59
f 62/62/62 61/61/61 59/59/59
f 65/65/65 64/64/64 63/63/63
f 66/66/66 65/65/65 63/63/63
f 66/66/66 63/63/63 67/67/67
f 68/68/68 66/66/66 67/67/67
f 71/71/71 70/70/70 69/69/69
f 72/72/72 71/71/71 69/69/69
f 72/72/72 69/69/69 73/73/73
f 74/74/74 72/72/72 73/73/73
f 77/77/77 76/76/76 75/75/75
f 78/78/78 77/77/77 75/75/75
f 81/81/81 80/80/80 79/79/79
f 82/82/82 81/81/81 79/79/79
f 85/85/85 84/84/84 83/83/83
f 86/86/86 85/85/85 83/83/83
f 89/89/89 88/88/88 87/87/87
f 90/90/90 89/89/89 87/87/87
f 93/93/93 92/92/92 91/91/91
f 94/94/94 93/93/93 91/91/91
f 97/97/97 96/96/96 95/95/95
f 98/98/98 97/97/97 95/95/95
f 101/101/101 100/100/100 99/99/99
f 102/102/102 101/101/101 99/99/99
f 105/105/105 104/104/104 103/103/103
f 106/106/106 105/105/105 103/103/103
f 109/109/109 108/108/108 107/107/107
f 110/110/110 109/109/109 107/107/107
f 113/113/113 112/112/112 111/111/111
f 114/114/114 113/113/113 111/111/111
f 117/117/117 116/116/116 115/115/115
f 118/118/118 117/117/117 115/115/115
f 121/121/121 120/120/120 119/119/119
f 122/122/122 121/121/121 119/119/119
f 125/125/125 124/124/124 123/123/123
f 126/126/126 125/125/125 123/123/123
f 129/129/129 128/128/128 127/127/127
f 130/130/130 129/129/129 127/127/127
f 133/133/133 132/132/132 131/131/131
f 134/134/134 133/133/133 131/131/131
f 137/137/137 136/136/136 135/135/135
f 138/138/138 137/137/137 135/135/135
f 141/141/141 140/140/140 139/139/139
f 142/142/142 141/141/141 139/139/139
f 145/145/145 144/144/144 143/143/143
f 146/146/146 145/145/145 143/143/143
f 149/149/149 148/148/148 147/147/147
f 148/148/148 149/149/149 150/150/150
f 151/151/151 149/149/149 147/147/147
f 149/149/149 152/152/152 150/150/150
f 151/151/151 147/147/147 153/153/153
f 154/154/154 150/150/150 152/152/152
f 153/153/153 154/154/154 152/152/152
f 147/147/147 154/154/154 153/153/153
f 157/157/157 156/156/156 155/155/155
f 156/156/156 157/157/157 158/158/158
f 156/156/156 159/159/159 155/155/155
f 160/160/160 156/156/156 158/158/158
f 155/155/155 159/159/159 161/161/161
f 158/158/158 162/162/162 160/160/160
f 162/162/162 161/161/161 160/160/160
f 162/162/162 155/155/155 161/161/161
f 165/165/165 164/164/164 163/163/163
f 166/166/166 165/165/165 163/163/163
f 163/163/163 164/164/164 167/167/167
f 168/168/168 165/165/165 166/166/166
f 164/164/164 169/169/169 167/167/167
f 170/170/170 168/168/168 166/166/166
f 170/170/170 167/167/167 169/169/169
f 168/168/168 170/170/170 169/169/169
f 173/173/173 172/172/172 171/171/171
f 172/172/172 174/174/174 171/171/171
f 173/173/173 171/171/171 175/175/175
f 172/172/172 176/176/176 174/174/174
f 177/177/177 173/173/173 175/175/175
f 176/176/176 178/178/178 174/174/174
f 175/175/175 178/178/178 177/177/177
f 178/178/178 176/176/176 177/177/177
