g Cabin_Window_Door
v -0.477163076 -0.40347904 0.275867492
v -0.495776355 -0.40347904 0.240833312
v -0.495776355 0.460038722 0.240833312
v -0.477163076 0.460038722 0.275867492
v 0.00931152329 -0.403478116 0.0175178852
v 0.00931152329 0.460039616 0.0175178852
v -0.00930175744 0.460039616 -0.0175211765
v -0.00928955059 -0.403478116 -0.0175162945
v 0.00931152329 -0.403478116 0.0175178852
v -0.477163076 -0.40347904 0.275867492
v -0.477163076 0.460038722 0.275867492
v 0.00931152329 0.460039616 0.0175178852
v 0.00931152329 0.460039616 0.0175178852
v -0.477163076 0.460038722 0.275867492
v -0.495776355 0.460038722 0.240833312
v -0.00930175744 0.460039616 -0.0175211765
v -0.00930175744 0.460039616 -0.0175211765
v -0.495776355 0.460038722 0.240833312
v -0.495776355 -0.40347904 0.240833312
v -0.00928955059 -0.403478116 -0.0175162945
v -0.00928955059 -0.403478116 -0.0175162945
v -0.495776355 -0.40347904 0.240833312
v -0.477163076 -0.40347904 0.275867492
v 0.00931152329 -0.403478116 0.0175178852
vt 0.494628906 0.830078125
vt 0.487792969 0.830078125
vt 0.487792969 0.978515625
vt 0.494628906 0.978515625
vt 0.494628906 0.978515625
vt 0.494628906 0.830078125
vt 0.487792969 0.830078125
vt 0.487792969 0.978515625
vt 0.494628906 0.51953125
vt 0.4140625 0.51953125
vt 0.4140625 0.645507812
vt 0.494628906 0.645507812
vt 0.494628906 0.951660156
vt 0.494628906 0.856933594
vt 0.487792969 0.856933594
vt 0.487792969 0.951660156
vt 0.4140625 0.645507812
vt 0.494628906 0.645507812
vt 0.494628906 0.51953125
vt 0.4140625 0.51953125
vt 0.487792969 0.856933594
vt 0.487792969 0.951660156
vt 0.494628906 0.951660156
vt 0.494628906 0.856933594
vn -0.883300781 0 0.469238281
vn -0.883300781 0 0.469238281
vn -0.883300781 0 0.469238281
vn -0.883300781 0 0.469238281
vn 0.883300781 4.94718552E-06 -0.468994141
vn 0.883300781 4.94718552E-06 -0.468994141
vn 0.883300781 4.94718552E-06 -0.468994141
vn 0.883300781 4.94718552E-06 -0.468994141
vn 0.468994141 0 0.883300781
vn 0.468994141 0 0.883300781
vn 0.468994141 0 0.883300781
vn 0.468994141 0 0.883300781
vn -1.49011612E-06 1 0
vn -1.49011612E-06 1 0
vn -1.49011612E-06 1 0
vn -1.49011612E-06 1 0
vn -0.468994141 -5.78165054E-06 -0.883300781
vn -0.468994141 -5.78165054E-06 -0.883300781
vn -0.468994141 -5.78165054E-06 -0.883300781
vn -0.468994141 -5.78165054E-06 -0.883300781
vn 1.49011612E-06 -1 -5.36441803E-07
vn 1.49011612E-06 -1 -5.36441803E-07
vn 1.49011612E-06 -1 -5.36441803E-07
vn 1.49011612E-06 -1 -5.36441803E-07
g Cabin_Window_Door_0
f 3/3/3 2/2/2 1/1/1
f 4/4/4 3/3/3 1/1/1
f 7/7/7 6/6/6 5/5/5
f 8/8/8 7/7/7 5/5/5
f 11/11/11 10/10/10 9/9/9
f 12/12/12 11/11/11 9/9/9
f 15/15/15 14/14/14 13/13/13
f 16/16/16 15/15/15 13/13/13
f 19/19/19 18/18/18 17/17/17
f 20/20/20 19/19/19 17/17/17
f 23/23/23 22/22/22 21/21/21
f 24/24/24 23/23/23 21/21/21
