g Telephone_Numbers
v 0.00294969068 -0.00314211193 0.0487777889
v 0.000237822504 0.00484966906 0.0487777889
v 0.0162214041 0.010273397 0.0487777889
v 0.018933272 0.00228161504 0.0487777889
v 0.000237822504 0.00484966906 0.0487777889
v 0.000237822504 0.00484966906 0.0234597102
v 0.0162214041 0.010273397 0.0234597102
v 0.0162214041 0.010273397 0.0487777889
v 0.000237822504 0.00484966906 0.0234597102
v 0.00294969068 -0.00314211193 0.0234597102
v 0.018933272 0.00228161504 0.0234597102
v 0.0162214041 0.010273397 0.0234597102
v 0.018933272 0.00228161504 0.0487777889
v 0.0162214041 0.010273397 0.0487777889
v 0.0162214041 0.010273397 0.0234597102
v 0.018933272 0.00228161504 0.0234597102
v 0.00294969068 -0.00314211193 0.0234597102
v 0.000237822504 0.00484966906 0.0234597102
v 0.000237822504 0.00484966906 0.0487777889
v 0.00294969068 -0.00314211193 0.0487777889
v 0.0256639626 0.00576025154 0.0487777889
v 0.0229520928 0.013752033 0.0487777889
v 0.0389356762 0.0191757604 0.0487777889
v 0.0416475423 0.011183979 0.0487777889
v 0.0229520928 0.013752033 0.0487777889
v 0.0229520928 0.013752033 0.0234597102
v 0.0389356762 0.0191757604 0.0234597102
v 0.0389356762 0.0191757604 0.0487777889
v 0.0229520928 0.013752033 0.0234597102
v 0.0256639626 0.00576025154 0.0234597102
v 0.0416475423 0.011183979 0.0234597102
v 0.0389356762 0.0191757604 0.0234597102
v 0.0416475423 0.011183979 0.0487777889
v 0.0389356762 0.0191757604 0.0487777889
v 0.0389356762 0.0191757604 0.0234597102
v 0.0416475423 0.011183979 0.0234597102
v 0.0256639626 0.00576025154 0.0234597102
v 0.0229520928 0.013752033 0.0234597102
v 0.0229520928 0.013752033 0.0487777889
v 0.0256639626 0.00576025154 0.0487777889
v 0.00294969068 -0.00314211193 0.0122959288
v 0.000237822504 0.00484966906 0.0122959288
v 0.0162214041 0.010273397 0.0122959288
v 0.018933272 0.00228161504 0.0122959288
v 0.000237822504 0.00484966906 0.0122959288
v 0.000237822504 0.00484966906 -0.0130221462
v 0.0162214041 0.010273397 -0.0130221462
v 0.0162214041 0.010273397 0.0122959288
v 0.000237822504 0.00484966906 -0.0130221462
v 0.00294969068 -0.00314211193 -0.0130221462
v 0.018933272 0.00228161504 -0.0130221462
v 0.0162214041 0.010273397 -0.0130221462
v 0.018933272 0.00228161504 0.0122959288
v 0.0162214041 0.010273397 0.0122959288
v 0.0162214041 0.010273397 -0.0130221462
v 0.018933272 0.00228161504 -0.0130221462
v 0.00294969068 -0.00314211193 -0.0130221462
v 0.000237822504 0.00484966906 -0.0130221462
v 0.000237822504 0.00484966906 0.0122959288
v 0.00294969068 -0.00314211193 0.0122959288
v -0.0181429517 -0.0111837313 0.0122959288
v -0.0208548214 -0.00319195073 0.0122959288
v -0.00487123942 0.00223177602 0.0122959288
v -0.00215937127 -0.00576000521 0.0122959288
v -0.0208548214 -0.00319195073 0.0122959288
v -0.0208548214 -0.00319195073 -0.0130221462
v -0.00487123942 0.00223177602 -0.0130221462
v -0.00487123942 0.00223177602 0.0122959288
v -0.0208548214 -0.00319195073 -0.0130221462
v -0.0181429517 -0.0111837313 -0.0130221462
v -0.00215937127 -0.00576000521 -0.0130221462
v -0.00487123942 0.00223177602 -0.0130221462
v -0.00215937127 -0.00576000521 0.0122959288
v -0.00487123942 0.00223177602 0.0122959288
v -0.00487123942 0.00223177602 -0.0130221462
v -0.00215937127 -0.00576000521 -0.0130221462
v -0.0181429517 -0.0111837313 -0.0130221462
v -0.0208548214 -0.00319195073 -0.0130221462
v -0.0208548214 -0.00319195073 0.0122959288
v -0.0181429517 -0.0111837313 0.0122959288
v -0.0389356837 -0.0191757604 0.0487777889
v -0.0416475348 -0.011183979 0.0487777889
v -0.0256639719 -0.00576025294 0.0487777889
v -0.022952104 -0.013752033 0.0487777889
v -0.0416475348 -0.011183979 0.0487777889
v -0.0416475348 -0.011183979 0.0234597102
v -0.0256639719 -0.00576025294 0.0234597102
v -0.0256639719 -0.00576025294 0.0487777889
v -0.0416475348 -0.011183979 0.0234597102
v -0.0389356837 -0.0191757604 0.0234597102
v -0.022952104 -0.013752033 0.0234597102
v -0.0256639719 -0.00576025294 0.0234597102
v -0.022952104 -0.013752033 0.0487777889
v -0.0256639719 -0.00576025294 0.0487777889
v -0.0256639719 -0.00576025294 0.0234597102
v -0.022952104 -0.013752033 0.0234597102
v -0.0389356837 -0.0191757604 0.0234597102
v -0.0416475348 -0.011183979 0.0234597102
v -0.0416475348 -0.011183979 0.0487777889
v -0.0389356837 -0.0191757604 0.0487777889
v -0.0181429517 -0.0111837313 -0.0234597102
v -0.0208548214 -0.00319195073 -0.0234597102
v -0.00487123942 0.00223177602 -0.0234597102
v -0.00215937127 -0.00576000521 -0.0234597102
v -0.0208548214 -0.00319195073 -0.0234597102
v -0.0208548214 -0.00319195073 -0.0487777926
v -0.00487123942 0.00223177602 -0.0487777926
v -0.00487123942 0.00223177602 -0.0234597102
v -0.0208548214 -0.00319195073 -0.0487777926
v -0.0181429517 -0.0111837313 -0.0487777926
v -0.00215937127 -0.00576000521 -0.0487777926
v -0.00487123942 0.00223177602 -0.0487777926
v -0.00215937127 -0.00576000521 -0.0234597102
v -0.00487123942 0.00223177602 -0.0234597102
v -0.00487123942 0.00223177602 -0.0487777926
v -0.00215937127 -0.00576000521 -0.0487777926
v -0.0181429517 -0.0111837313 -0.0487777926
v -0.0208548214 -0.00319195073 -0.0487777926
v -0.0208548214 -0.00319195073 -0.0234597102
v -0.0181429517 -0.0111837313 -0.0234597102
v 0.0256639626 0.00576025154 -0.0234597102
v 0.0229520928 0.013752033 -0.0234597102
v 0.0389356762 0.0191757604 -0.0234597102
v 0.0416475423 0.011183979 -0.0234597102
v 0.0229520928 0.013752033 -0.0234597102
v 0.0229520928 0.013752033 -0.0487777926
v 0.0389356762 0.0191757604 -0.0487777926
v 0.0389356762 0.0191757604 -0.0234597102
v 0.0229520928 0.013752033 -0.0487777926
v 0.0256639626 0.00576025154 -0.0487777926
v 0.0416475423 0.011183979 -0.0487777926
v 0.0389356762 0.0191757604 -0.0487777926
v 0.0416475423 0.011183979 -0.0234597102
v 0.0389356762 0.0191757604 -0.0234597102
v 0.0389356762 0.0191757604 -0.0487777926
v 0.0416475423 0.011183979 -0.0487777926
v 0.0256639626 0.00576025154 -0.0487777926
v 0.0229520928 0.013752033 -0.0487777926
v 0.0229520928 0.013752033 -0.0234597102
v 0.0256639626 0.00576025154 -0.0234597102
v 0.0256639626 0.00576025154 0.0122959288
v 0.0229520928 0.013752033 0.0122959288
v 0.0389356762 0.0191757604 0.0122959288
v 0.0416475423 0.011183979 0.0122959288
v 0.0229520928 0.013752033 0.0122959288
v 0.0229520928 0.013752033 -0.0130221462
v 0.0389356762 0.0191757604 -0.0130221462
v 0.0389356762 0.0191757604 0.0122959288
v 0.0229520928 0.013752033 -0.0130221462
v 0.0256639626 0.00576025154 -0.0130221462
v 0.0416475423 0.011183979 -0.0130221462
v 0.0389356762 0.0191757604 -0.0130221462
v 0.0416475423 0.011183979 0.0122959288
v 0.0389356762 0.0191757604 0.0122959288
v 0.0389356762 0.0191757604 -0.0130221462
v 0.0416475423 0.011183979 -0.0130221462
v 0.0256639626 0.00576025154 -0.0130221462
v 0.0229520928 0.013752033 -0.0130221462
v 0.0229520928 0.013752033 0.0122959288
v 0.0256639626 0.00576025154 0.0122959288
v -0.0389356837 -0.0191757604 -0.0234597102
v -0.0416475348 -0.011183979 -0.0234597102
v -0.0256639719 -0.00576025294 -0.0234597102
v -0.022952104 -0.013752033 -0.0234597102
v -0.0416475348 -0.011183979 -0.0234597102
v -0.0416475348 -0.011183979 -0.0487777926
v -0.0256639719 -0.00576025294 -0.0487777926
v -0.0256639719 -0.00576025294 -0.0234597102
v -0.0416475348 -0.011183979 -0.0487777926
v -0.0389356837 -0.0191757604 -0.0487777926
v -0.022952104 -0.013752033 -0.0487777926
v -0.0256639719 -0.00576025294 -0.0487777926
v -0.022952104 -0.013752033 -0.0234597102
v -0.0256639719 -0.00576025294 -0.0234597102
v -0.0256639719 -0.00576025294 -0.0487777926
v -0.022952104 -0.013752033 -0.0487777926
v -0.0389356837 -0.0191757604 -0.0487777926
v -0.0416475348 -0.011183979 -0.0487777926
v -0.0416475348 -0.011183979 -0.0234597102
v -0.0389356837 -0.0191757604 -0.0234597102
v -0.0181429517 -0.0111837313 0.0487777889
v -0.0208548214 -0.00319195073 0.0487777889
v -0.00487123942 0.00223177602 0.0487777889
v -0.00215937127 -0.00576000521 0.0487777889
v -0.0208548214 -0.00319195073 0.0487777889
v -0.0208548214 -0.00319195073 0.0234597102
v -0.00487123942 0.00223177602 0.0234597102
v -0.00487123942 0.00223177602 0.0487777889
v -0.0208548214 -0.00319195073 0.0234597102
v -0.0181429517 -0.0111837313 0.0234597102
v -0.00215937127 -0.00576000521 0.0234597102
v -0.00487123942 0.00223177602 0.0234597102
v -0.00215937127 -0.00576000521 0.0487777889
v -0.00487123942 0.00223177602 0.0487777889
v -0.00487123942 0.00223177602 0.0234597102
v -0.00215937127 -0.00576000521 0.0234597102
v -0.0181429517 -0.0111837313 0.0234597102
v -0.0208548214 -0.00319195073 0.0234597102
v -0.0208548214 -0.00319195073 0.0487777889
v -0.0181429517 -0.0111837313 0.0487777889
v 0.00294969068 -0.00314211193 -0.0234597102
v 0.000237822504 0.00484966906 -0.0234597102
v 0.0162214041 0.010273397 -0.0234597102
v 0.018933272 0.00228161504 -0.0234597102
v 0.000237822504 0.00484966906 -0.0234597102
v 0.000237822504 0.00484966906 -0.0487777926
v 0.0162214041 0.010273397 -0.0487777926
v 0.0162214041 0.010273397 -0.0234597102
v 0.000237822504 0.00484966906 -0.0487777926
v 0.00294969068 -0.00314211193 -0.0487777926
v 0.018933272 0.00228161504 -0.0487777926
v 0.0162214041 0.010273397 -0.0487777926
v 0.018933272 0.00228161504 -0.0234597102
v 0.0162214041 0.010273397 -0.0234597102
v 0.0162214041 0.010273397 -0.0487777926
v 0.018933272 0.00228161504 -0.0487777926
v 0.00294969068 -0.00314211193 -0.0487777926
v 0.000237822504 0.00484966906 -0.0487777926
v 0.000237822504 0.00484966906 -0.0234597102
v 0.00294969068 -0.00314211193 -0.0234597102
v -0.0389356837 -0.0191757604 0.0122959288
v -0.0416475348 -0.011183979 0.0122959288
v -0.0256639719 -0.00576025294 0.0122959288
v -0.022952104 -0.013752033 0.0122959288
v -0.0416475348 -0.011183979 0.0122959288
v -0.0416475348 -0.011183979 -0.0130221462
v -0.0256639719 -0.00576025294 -0.0130221462
v -0.0256639719 -0.00576025294 0.0122959288
v -0.0416475348 -0.011183979 -0.0130221462
v -0.0389356837 -0.0191757604 -0.0130221462
v -0.022952104 -0.013752033 -0.0130221462
v -0.0256639719 -0.00576025294 -0.0130221462
v -0.022952104 -0.013752033 0.0122959288
v -0.0256639719 -0.00576025294 0.0122959288
v -0.0256639719 -0.00576025294 -0.0130221462
v -0.022952104 -0.013752033 -0.0130221462
v -0.0389356837 -0.0191757604 -0.0130221462
v -0.0416475348 -0.011183979 -0.0130221462
v -0.0416475348 -0.011183979 0.0122959288
v -0.0389356837 -0.0191757604 0.0122959288
vt 0.277099609 0.33203125
vt 0.260742188 0.33203125
vt 0.260742188 0.364990234
vt 0.277099609 0.364990234
vt 0.260742188 0.33203125
vt 0.211425781 0.33203125
vt 0.211425781 0.364990234
vt 0.260742188 0.364990234
vt 0.211425781 0.33203125
vt 0.194946289 0.33203125
vt 0.194946289 0.364990234
vt 0.211425781 0.364990234
vt 0.260742188 0.381347656
vt 0.260742188 0.364990234
vt 0.211425781 0.364990234
vt 0.211425781 0.381347656
vt 0.211425781 0.315673828
vt 0.211425781 0.33203125
vt 0.260742188 0.33203125
vt 0.260742188 0.315673828
vt 0.829101562 0.461181641
vt 0.8125 0.461181641
vt 0.8125 0.494140625
vt 0.829101562 0.494140625
vt 0.8125 0.461181641
vt 0.763183594 0.461181641
vt 0.763183594 0.494140625
vt 0.8125 0.494140625
vt 0.763183594 0.461181641
vt 0.746582031 0.461181641
vt 0.746582031 0.494140625
vt 0.763183594 0.494140625
vt 0.8125 0.510742188
vt 0.8125 0.494140625
vt 0.763183594 0.494140625
vt 0.763183594 0.510742188
vt 0.763183594 0.444824219
vt 0.763183594 0.461181641
vt 0.8125 0.461181641
vt 0.8125 0.444824219
vt 0.190307617 0.33203125
vt 0.173828125 0.33203125
vt 0.173828125 0.364990234
vt 0.190307617 0.364990234
vt 0.173828125 0.33203125
vt 0.124511719 0.33203125
vt 0.124511719 0.364990234
vt 0.173828125 0.364990234
vt 0.124511719 0.33203125
vt 0.108032227 0.33203125
vt 0.108032227 0.364990234
vt 0.124511719 0.364990234
vt 0.173828125 0.381347656
vt 0.173828125 0.364990234
vt 0.124511719 0.364990234
vt 0.124511719 0.381347656
vt 0.124511719 0.315673828
vt 0.124511719 0.33203125
vt 0.173828125 0.33203125
vt 0.173828125 0.315673828
vt 0.456054688 0.294921875
vt 0.439453125 0.294921875
vt 0.439453125 0.327880859
vt 0.456054688 0.327880859
vt 0.439453125 0.294921875
vt 0.390136719 0.294921875
vt 0.390136719 0.327880859
vt 0.439453125 0.327880859
vt 0.390136719 0.294921875
vt 0.373779297 0.294921875
vt 0.373779297 0.327880859
vt 0.390136719 0.327880859
vt 0.439453125 0.344238281
vt 0.439453125 0.327880859
vt 0.390136719 0.327880859
vt 0.390136719 0.344238281
vt 0.390136719 0.278564453
vt 0.390136719 0.294921875
vt 0.439453125 0.294921875
vt 0.439453125 0.278564453
vt 0.987792969 0.0242767334
vt 0.971191406 0.0242767334
vt 0.971191406 0.0571594238
vt 0.987792969 0.0571594238
vt 0.971191406 0.0242767334
vt 0.921875 0.0242767334
vt 0.921875 0.0571594238
vt 0.971191406 0.0571594238
vt 0.921875 0.0242767334
vt 0.905273438 0.0242767334
vt 0.905273438 0.0571594238
vt 0.921875 0.0571594238
vt 0.971191406 0.0736083984
vt 0.971191406 0.0571594238
vt 0.921875 0.0571594238
vt 0.921875 0.0736083984
vt 0.921875 0.00782775879
vt 0.921875 0.0242767334
vt 0.971191406 0.0242767334
vt 0.971191406 0.00782775879
vt 0.367675781 0.294921875
vt 0.351318359 0.294921875
vt 0.351318359 0.327880859
vt 0.367675781 0.327880859
vt 0.351318359 0.294921875
vt 0.302001953 0.294921875
vt 0.302001953 0.327880859
vt 0.351318359 0.327880859
vt 0.302001953 0.294921875
vt 0.285644531 0.294921875
vt 0.285644531 0.327880859
vt 0.302001953 0.327880859
vt 0.351318359 0.344238281
vt 0.351318359 0.327880859
vt 0.302001953 0.327880859
vt 0.302001953 0.344238281
vt 0.302001953 0.278564453
vt 0.302001953 0.294921875
vt 0.351318359 0.294921875
vt 0.351318359 0.278564453
vt 0.827636719 0.534179688
vt 0.811035156 0.534179688
vt 0.811035156 0.567382812
vt 0.827636719 0.567382812
vt 0.811035156 0.534179688
vt 0.76171875 0.534179688
vt 0.76171875 0.567382812
vt 0.811035156 0.567382812
vt 0.76171875 0.534179688
vt 0.745117188 0.534179688
vt 0.745117188 0.567382812
vt 0.76171875 0.567382812
vt 0.811035156 0.583496094
vt 0.811035156 0.567382812
vt 0.76171875 0.567382812
vt 0.76171875 0.583496094
vt 0.76171875 0.518066406
vt 0.76171875 0.534179688
vt 0.811035156 0.534179688
vt 0.811035156 0.518066406
vt 0.915527344 0.534179688
vt 0.899414062 0.534179688
vt 0.899414062 0.566894531
vt 0.915527344 0.566894531
vt 0.899414062 0.534179688
vt 0.850097656 0.534179688
vt 0.850097656 0.566894531
vt 0.899414062 0.566894531
vt 0.850097656 0.534179688
vt 0.833496094 0.534179688
vt 0.833496094 0.566894531
vt 0.850097656 0.566894531
vt 0.899414062 0.583496094
vt 0.899414062 0.566894531
vt 0.850097656 0.566894531
vt 0.850097656 0.583496094
vt 0.850097656 0.517578125
vt 0.850097656 0.534179688
vt 0.899414062 0.534179688
vt 0.899414062 0.517578125
vt 0.456298828 0.215820312
vt 0.439941406 0.215820312
vt 0.439941406 0.248779297
vt 0.456298828 0.248779297
vt 0.439941406 0.215820312
vt 0.390625 0.215820312
vt 0.390625 0.248779297
vt 0.439941406 0.248779297
vt 0.390625 0.215820312
vt 0.374023438 0.215820312
vt 0.374023438 0.248779297
vt 0.390625 0.248779297
vt 0.439941406 0.265136719
vt 0.439941406 0.248779297
vt 0.390625 0.248779297
vt 0.390625 0.265136719
vt 0.390625 0.199462891
vt 0.390625 0.215820312
vt 0.439941406 0.215820312
vt 0.439941406 0.199462891
vt 0.363769531 0.215087891
vt 0.347412109 0.215087891
vt 0.347412109 0.247924805
vt 0.363769531 0.247924805
vt 0.347412109 0.215087891
vt 0.298095703 0.215087891
vt 0.298095703 0.247924805
vt 0.347412109 0.247924805
vt 0.298095703 0.215087891
vt 0.281494141 0.215087891
vt 0.281494141 0.247924805
vt 0.298095703 0.247924805
vt 0.347412109 0.264404297
vt 0.347412109 0.247924805
vt 0.298095703 0.247924805
vt 0.298095703 0.264404297
vt 0.298095703 0.198608398
vt 0.298095703 0.215087891
vt 0.347412109 0.215087891
vt 0.347412109 0.198608398
vt 0.102111816 0.33203125
vt 0.0856933594 0.33203125
vt 0.0856933594 0.364990234
vt 0.102111816 0.364990234
vt 0.0856933594 0.33203125
vt 0.036315918 0.33203125
vt 0.036315918 0.364990234
vt 0.0856933594 0.364990234
vt 0.036315918 0.33203125
vt 0.0198822021 0.33203125
vt 0.0198822021 0.364990234
vt 0.036315918 0.364990234
vt 0.0856933594 0.381347656
vt 0.0856933594 0.364990234
vt 0.036315918 0.364990234
vt 0.036315918 0.381347656
vt 0.036315918 0.315673828
vt 0.036315918 0.33203125
vt 0.0856933594 0.33203125
vt 0.0856933594 0.315673828
vt 0.581542969 0.0482177734
vt 0.564941406 0.0482177734
vt 0.564941406 0.0811157227
vt 0.581542969 0.0811157227
vt 0.564941406 0.0482177734
vt 0.515625 0.0482177734
vt 0.515625 0.0811157227
vt 0.564941406 0.0811157227
vt 0.515625 0.0482177734
vt 0.499267578 0.0482177734
vt 0.499267578 0.0811157227
vt 0.515625 0.0811157227
vt 0.564941406 0.0975341797
vt 0.564941406 0.0811157227
vt 0.515625 0.0811157227
vt 0.515625 0.0975341797
vt 0.515625 0.0317687988
vt 0.515625 0.0482177734
vt 0.564941406 0.0482177734
vt 0.564941406 0.0317687988
vn -0 0 1
vn -0 0 1
vn -0 0 1
vn -0 0 1
vn -0.321289062 0.946777344 0
vn -0.321289062 0.946777344 0
vn -0.321289062 0.946777344 0
vn -0.321289062 0.946777344 0
vn -0 0 -1
vn -0 0 -1
vn -0 0 -1
vn -0 0 -1
vn 0.946777344 0.321289062 0
vn 0.946777344 0.321289062 0
vn 0.946777344 0.321289062 0
vn 0.946777344 0.321289062 0
vn -0.946777344 -0.321289062 0
vn -0.946777344 -0.321289062 0
vn -0.946777344 -0.321289062 0
vn -0.946777344 -0.321289062 0
vn -0 0 1
vn -0 0 1
vn -0 0 1
vn -0 0 1
vn -0.321289062 0.946777344 0
vn -0.321289062 0.946777344 0
vn -0.321289062 0.946777344 0
vn -0.321289062 0.946777344 0
vn -0 0 -1
vn -0 0 -1
vn -0 0 -1
vn -0 0 -1
vn 0.946777344 0.321289062 0
vn 0.946777344 0.321289062 0
vn 0.946777344 0.321289062 0
vn 0.946777344 0.321289062 0
vn -0.946777344 -0.321289062 0
vn -0.946777344 -0.321289062 0
vn -0.946777344 -0.321289062 0
vn -0.946777344 -0.321289062 0
vn -0 0 1
vn -0 0 1
vn -0 0 1
vn -0 0 1
vn -0.321289062 0.946777344 0
vn -0.321289062 0.946777344 0
vn -0.321289062 0.946777344 0
vn -0.321289062 0.946777344 0
vn -0 0 -1
vn -0 0 -1
vn -0 0 -1
vn -0 0 -1
vn 0.946777344 0.321289062 0
vn 0.946777344 0.321289062 0
vn 0.946777344 0.321289062 0
vn 0.946777344 0.321289062 0
vn -0.946777344 -0.321289062 0
vn -0.946777344 -0.321289062 0
vn -0.946777344 -0.321289062 0
vn -0.946777344 -0.321289062 0
vn -0 0 1
vn -0 0 1
vn -0 0 1
vn -0 0 1
vn -0.321289062 0.946777344 0
vn -0.321289062 0.946777344 0
vn -0.321289062 0.946777344 0
vn -0.321289062 0.946777344 0
vn -0 0 -1
vn -0 0 -1
vn -0 0 -1
vn -0 0 -1
vn 0.946777344 0.321289062 0
vn 0.946777344 0.321289062 0
vn 0.946777344 0.321289062 0
vn 0.946777344 0.321289062 0
vn -0.946777344 -0.321289062 0
vn -0.946777344 -0.321289062 0
vn -0.946777344 -0.321289062 0
vn -0.946777344 -0.321289062 0
vn -0 0 1
vn -0 0 1
vn -0 0 1
vn -0 0 1
vn -0.321289062 0.946777344 0
vn -0.321289062 0.946777344 0
vn -0.321289062 0.946777344 0
vn -0.321289062 0.946777344 0
vn -0 0 -1
vn -0 0 -1
vn -0 0 -1
vn -0 0 -1
vn 0.946777344 0.321289062 0
vn 0.946777344 0.321289062 0
vn 0.946777344 0.321289062 0
vn 0.946777344 0.321289062 0
vn -0.946777344 -0.321289062 0
vn -0.946777344 -0.321289062 0
vn -0.946777344 -0.321289062 0
vn -0.946777344 -0.321289062 0
vn 3.57627869E-07 0 1
vn 3.57627869E-07 0 1
vn 3.57627869E-07 0 1
vn 3.57627869E-07 0 1
vn -0.321289062 0.946777344 0
vn -0.321289062 0.946777344 0
vn -0.321289062 0.946777344 0
vn -0.321289062 0.946777344 0
vn -0 0 -1
vn -0 0 -1
vn -0 0 -1
vn -0 0 -1
vn 0.946777344 0.321289062 0
vn 0.946777344 0.321289062 0
vn 0.946777344 0.321289062 0
vn 0.946777344 0.321289062 0
vn -0.946777344 -0.321289062 0
vn -0.946777344 -0.321289062 0
vn -0.946777344 -0.321289062 0
vn -0.946777344 -0.321289062 0
vn 3.57627869E-07 0 1
vn 3.57627869E-07 0 1
vn 3.57627869E-07 0 1
vn 3.57627869E-07 0 1
vn -0.321289062 0.946777344 0
vn -0.321289062 0.946777344 0
vn -0.321289062 0.946777344 0
vn -0.321289062 0.946777344 0
vn -0 0 -1
vn -0 0 -1
vn -0 0 -1
vn -0 0 -1
vn 0.946777344 0.321289062 0
vn 0.946777344 0.321289062 0
vn 0.946777344 0.321289062 0
vn 0.946777344 0.321289062 0
vn -0.946777344 -0.321289062 0
vn -0.946777344 -0.321289062 0
vn -0.946777344 -0.321289062 0
vn -0.946777344 -0.321289062 0
vn -0 0 1
vn -0 0 1
vn -0 0 1
vn -0 0 1
vn -0.321289062 0.946777344 0
vn -0.321289062 0.946777344 0
vn -0.321289062 0.946777344 0
vn -0.321289062 0.946777344 0
vn -0 0 -1
vn -0 0 -1
vn -0 0 -1
vn -0 0 -1
vn 0.946777344 0.321289062 0
vn 0.946777344 0.321289062 0
vn 0.946777344 0.321289062 0
vn 0.946777344 0.321289062 0
vn -0.946777344 -0.321289062 0
vn -0.946777344 -0.321289062 0
vn -0.946777344 -0.321289062 0
vn -0.946777344 -0.321289062 0
vn 3.57627869E-07 0 1
vn 3.57627869E-07 0 1
vn 3.57627869E-07 0 1
vn 3.57627869E-07 0 1
vn -0.321289062 0.946777344 0
vn -0.321289062 0.946777344 0
vn -0.321289062 0.946777344 0
vn -0.321289062 0.946777344 0
vn -0 0 -1
vn -0 0 -1
vn -0 0 -1
vn -0 0 -1
vn 0.946777344 0.321289062 0
vn 0.946777344 0.321289062 0
vn 0.946777344 0.321289062 0
vn 0.946777344 0.321289062 0
vn -0.946777344 -0.321289062 0
vn -0.946777344 -0.321289062 0
vn -0.946777344 -0.321289062 0
vn -0.946777344 -0.321289062 0
vn -0 0 1
vn -0 0 1
vn -0 0 1
vn -0 0 1
vn -0.321289062 0.946777344 0
vn -0.321289062 0.946777344 0
vn -0.321289062 0.946777344 0
vn -0.321289062 0.946777344 0
vn -0 0 -1
vn -0 0 -1
vn -0 0 -1
vn -0 0 -1
vn 0.946777344 0.321289062 0
vn 0.946777344 0.321289062 0
vn 0.946777344 0.321289062 0
vn 0.946777344 0.321289062 0
vn -0.946777344 -0.321289062 0
vn -0.946777344 -0.321289062 0
vn -0.946777344 -0.321289062 0
vn -0.946777344 -0.321289062 0
vn 3.57627869E-07 0 1
vn 3.57627869E-07 0 1
vn 3.57627869E-07 0 1
vn 3.57627869E-07 0 1
vn -0.321289062 0.946777344 0
vn -0.321289062 0.946777344 0
vn -0.321289062 0.946777344 0
vn -0.321289062 0.946777344 0
vn -0 0 -1
vn -0 0 -1
vn -0 0 -1
vn -0 0 -1
vn 0.946777344 0.321289062 0
vn 0.946777344 0.321289062 0
vn 0.946777344 0.321289062 0
vn 0.946777344 0.321289062 0
vn -0.946777344 -0.321289062 0
vn -0.946777344 -0.321289062 0
vn -0.946777344 -0.321289062 0
vn -0.946777344 -0.321289062 0
vn -0 0 1
vn -0 0 1
vn -0 0 1
vn -0 0 1
vn -0.321289062 0.946777344 0
vn -0.321289062 0.946777344 0
vn -0.321289062 0.946777344 0
vn -0.321289062 0.946777344 0
vn -0 0 -1
vn -0 0 -1
vn -0 0 -1
vn -0 0 -1
vn 0.946777344 0.321289062 0
vn 0.946777344 0.321289062 0
vn 0.946777344 0.321289062 0
vn 0.946777344 0.321289062 0
vn -0.946777344 -0.321289062 0
vn -0.946777344 -0.321289062 0
vn -0.946777344 -0.321289062 0
vn -0.946777344 -0.321289062 0
g Telephone_Numbers_0
f 3/3/3 2/2/2 1/1/1
f 4/4/4 3/3/3 1/1/1
f 7/7/7 6/6/6 5/5/5
f 8/8/8 7/7/7 5/5/5
f 11/11/11 10/10/10 9/9/9
f 12/12/12 11/11/11 9/9/9
f 15/15/15 14/14/14 13/13/13
f 16/16/16 15/15/15 13/13/13
f 19/19/19 18/18/18 17/17/17
f 20/20/20 19/19/19 17/17/17
f 23/23/23 22/22/22 21/21/21
f 24/24/24 23/23/23 21/21/21
f 27/27/27 26/26/26 25/25/25
f 28/28/28 27/27/27 25/25/25
f 31/31/31 30/30/30 29/29/29
f 32/32/32 31/31/31 29/29/29
f 35/35/35 34/34/34 33/33/33
f 36/36/36 35/35/35 33/33/33
f 39/39/39 38/38/38 37/37/37
f 40/40/40 39/39/39 37/37/37
f 43/43/43 42/42/42 41/41/41
f 44/44/44 43/43/43 41/41/41
f 47/47/47 46/46/46 45/45/45
f 48/48/48 47/47/47 45/45/45
f 51/51/51 50/50/50 49/49/49
f 52/52/52 51/51/51 49/49/49
f 55/55/55 54/54/54 53/53/53
f 56/56/56 55/55/55 53/53/53
f 59/59/59 58/58/58 57/57/57
f 60/60/60 59/59/59 57/57/57
f 63/63/63 62/62/62 61/61/61
f 64/64/64 63/63/63 61/61/61
f 67/67/67 66/66/66 65/65/65
f 68/68/68 67/67/67 65/65/65
f 71/71/71 70/70/70 69/69/69
f 72/72/72 71/71/71 69/69/69
f 75/75/75 74/74/74 73/73/73
f 76/76/76 75/75/75 73/73/73
f 79/79/79 78/78/78 77/77/77
f 80/80/80 79/79/79 77/77/77
f 83/83/83 82/82/82 81/81/81
f 84/84/84 83/83/83 81/81/81
f 87/87/87 86/86/86 85/85/85
f 88/88/88 87/87/87 85/85/85
f 91/91/91 90/90/90 89/89/89
f 92/92/92 91/91/91 89/89/89
f 95/95/95 94/94/94 93/93/93
f 96/96/96 95/95/95 93/93/93
f 99/99/99 98/98/98 97/97/97
f 100/100/100 99/99/99 97/97/97
f 103/103/103 102/102/102 101/101/101
f 104/104/104 103/103/103 101/101/101
f 107/107/107 106/106/106 105/105/105
f 108/108/108 107/107/107 105/105/105
f 111/111/111 110/110/110 109/109/109
f 112/112/112 111/111/111 109/109/109
f 115/115/115 114/114/114 113/113/113
f 116/116/116 115/115/115 113/113/113
f 119/119/119 118/118/118 117/117/117
f 120/120/120 119/119/119 117/117/117
f 123/123/123 122/122/122 121/121/121
f 124/124/124 123/123/123 121/121/121
f 127/127/127 126/126/126 125/125/125
f 128/128/128 127/127/127 125/125/125
f 131/131/131 130/130/130 129/129/129
f 132/132/132 131/131/131 129/129/129
f 135/135/135 134/134/134 133/133/133
f 136/136/136 135/135/135 133/133/133
f 139/139/139 138/138/138 137/137/137
f 140/140/140 139/139/139 137/137/137
f 143/143/143 142/142/142 141/141/141
f 144/144/144 143/143/143 141/141/141
f 147/147/147 146/146/146 145/145/145
f 148/148/148 147/147/147 145/145/145
f 151/151/151 150/150/150 149/149/149
f 152/152/152 151/151/151 149/149/149
f 155/155/155 154/154/154 153/153/153
f 156/156/156 155/155/155 153/153/153
f 159/159/159 158/158/158 157/157/157
f 160/160/160 159/159/159 157/157/157
f 163/163/163 162/162/162 161/161/161
f 164/164/164 163/163/163 161/161/161
f 167/167/167 166/166/166 165/165/165
f 168/168/168 167/167/167 165/165/165
f 171/171/171 170/170/170 169/169/169
f 172/172/172 171/171/171 169/169/169
f 175/175/175 174/174/174 173/173/173
f 176/176/176 175/175/175 173/173/173
f 179/179/179 178/178/178 177/177/177
f 180/180/180 179/179/179 177/177/177
f 183/183/183 182/182/182 181/181/181
f 184/184/184 183/183/183 181/181/181
f 187/187/187 186/186/186 185/185/185
f 188/188/188 187/187/187 185/185/185
f 191/191/191 190/190/190 189/189/189
f 192/192/192 191/191/191 189/189/189
f 195/195/195 194/194/194 193/193/193
f 196/196/196 195/195/195 193/193/193
f 199/199/199 198/198/198 197/197/197
f 200/200/200 199/199/199 197/197/197
f 203/203/203 202/202/202 201/201/201
f 204/204/204 203/203/203 201/201/201
f 207/207/207 206/206/206 205/205/205
f 208/208/208 207/207/207 205/205/205
f 211/211/211 210/210/210 209/209/209
f 212/212/212 211/211/211 209/209/209
f 215/215/215 214/214/214 213/213/213
f 216/216/216 215/215/215 213/213/213
f 219/219/219 218/218/218 217/217/217
f 220/220/220 219/219/219 217/217/217
f 223/223/223 222/222/222 221/221/221
f 224/224/224 223/223/223 221/221/221
f 227/227/227 226/226/226 225/225/225
f 228/228/228 227/227/227 225/225/225
f 231/231/231 230/230/230 229/229/229
f 232/232/232 231/231/231 229/229/229
f 235/235/235 234/234/234 233/233/233
f 236/236/236 235/235/235 233/233/233
f 239/239/239 238/238/238 237/237/237
f 240/240/240 239/239/239 237/237/237
