g Enclosure_Fence_3
v -0 0.542894065 1.75650144
v -0 0.0455485135 1.75649893
v -0 0.0729220212 2.28171372
v -0 0.578157425 2.28171372
v -0 -0.435887009 1.75650144
v -0 -0.97958827 1.75650382
v -0 -0.932874858 2.28171372
v -0 -0.421982616 2.28171372
v -0 -0.481585264 1.13812006
v -0 -0.992477536 1.13812006
v -0 -0.97958827 1.75650382
v -0 -0.435887009 1.75650144
v -0 0.518554807 1.13812006
v -0 0.0133193582 1.13812006
v -0 0.0455485135 1.75649893
v -0 0.542894065 1.75650144
v -0 0.0133193582 1.13812006
v -0 -0.481585264 1.13812006
v -0 -0.435887009 1.75650144
v -0 0.0455485135 1.75649893
v -0 0.0455485135 1.75649893
v -0 -0.435887009 1.75650144
v -0 -0.421982616 2.28171372
v -0 0.0729220212 2.28171372
v -0 0.932874858 1.13812006
v -0 0.518554807 1.13812006
v -0 0.542894065 1.75650144
v -0 0.950743854 1.75650382
v -0 0.950743854 1.75650382
v -0 0.542894065 1.75650144
v -0 0.578157425 2.28171372
v -0 0.992477536 2.28171372
v -0 0.482726842 -1.74847651
v -0 -0.0144923776 -1.74847901
v -0 -0.046283301 -1.13894534
v -0 0.441772252 -1.13894284
v -0 0.483291417 0.612907708
v -0 -0.0140541457 0.612905264
v -0 0.0133193582 1.13812006
v -0 0.518554807 1.13812006
v -0 -0.495712161 -1.74847651
v -0 -0.992477536 -1.74847651
v -0 -0.992477536 -1.13894045
v -0 -0.511860371 -1.13894284
v -0 -0.495489687 0.612907708
v -0 -0.992477536 0.612910151
v -0 -0.992477536 1.13812006
v -0 -0.481585264 1.13812006
v -0 -0.511860371 -0.609267592
v -0 -0.992477536 -0.609262705
v -0 -0.992477536 -0.00546874991
v -0 -0.511860371 -0.00547119137
v -0 0.441772252 -0.609267592
v -0 -0.046283301 -0.609269977
v -0 -0.046283301 -0.00547363283
v -0 0.441772252 -0.00547119137
v -0 -0.511860371 -0.00547119137
v -0 -0.992477536 -0.00546874991
v -0 -0.992477536 0.612910151
v -0 -0.495489687 0.612907708
v -0 0.441772252 -0.00547119137
v -0 -0.046283301 -0.00547363283
v -0 -0.0140541457 0.612905264
v -0 0.483291417 0.612907708
v -0 -0.511860371 -1.13894284
v -0 -0.992477536 -1.13894045
v -0 -0.992477536 -0.609262705
v -0 -0.511860371 -0.609267592
v -0 0.441772252 -1.13894284
v -0 -0.046283301 -1.13894534
v -0 -0.046283301 -0.609269977
v -0 0.441772252 -0.609267592
v -0 -0.481585264 -2.28171372
v -0 -0.992477536 -2.28171372
v -0 -0.992477536 -1.74847651
v -0 -0.495712161 -1.74847651
v -0 0.518554807 -2.28171372
v -0 0.0133193582 -2.28171372
v -0 -0.0144923776 -1.74847901
v -0 0.482726842 -1.74847651
v -0 0.0133193582 -2.28171372
v -0 -0.481585264 -2.28171372
v -0 -0.495712161 -1.74847651
v -0 -0.0144923776 -1.74847901
v -0 -0.0144923776 -1.74847901
v -0 -0.495712161 -1.74847651
v -0 -0.511860371 -1.13894284
v -0 -0.046283301 -1.13894534
v -0 -0.046283301 -1.13894534
v -0 -0.511860371 -1.13894284
v -0 -0.511860371 -0.609267592
v -0 -0.046283301 -0.609269977
v -0 -0.046283301 -0.609269977
v -0 -0.511860371 -0.609267592
v -0 -0.511860371 -0.00547119137
v -0 -0.046283301 -0.00547363283
v -0 -0.046283301 -0.00547363283
v -0 -0.511860371 -0.00547119137
v -0 -0.495489687 0.612907708
v -0 -0.0140541457 0.612905264
v -0 -0.0140541457 0.612905264
v -0 -0.495489687 0.612907708
v -0 -0.481585264 1.13812006
v -0 0.0133193582 1.13812006
v -0 0.932874858 -2.28171372
v -0 0.518554807 -2.28171372
v -0 0.482726842 -1.74847651
v -0 0.890473127 -1.74847651
v -0 0.890473127 -1.74847651
v -0 0.482726842 -1.74847651
v -0 0.441772252 -1.13894284
v -0 0.842003942 -1.13894045
v -0 0.842003942 -1.13894045
v -0 0.441772252 -1.13894284
v -0 0.441772252 -0.609267592
v -0 0.842003942 -0.609262705
v -0 0.842003942 -0.609262705
v -0 0.441772252 -0.609267592
v -0 0.441772252 -0.00547119137
v -0 0.842003942 -0.00546874991
v -0 0.842003942 -0.00546874991
v -0 0.441772252 -0.00547119137
v -0 0.483291417 0.612907708
v -0 0.891141176 0.612910151
v -0 0.891141176 0.612910151
v -0 0.483291417 0.612907708
v -0 0.518554807 1.13812006
v -0 0.932874858 1.13812006
vt 0.756835938 0.501464844
vt 0.756835938 0.0168762207
vt 0.0196228027 0.0168762207
vt 0.0196228027 0.501464844
vt 0.756835938 0.501464844
vt 0.756835938 0.0168762207
vt 0.0196228027 0.0168762207
vt 0.0196228027 0.501464844
vt 0.0196228027 0.501464844
vt 0.0196228027 0.0168762207
vt 0.756835938 0.0168762207
vt 0.756835938 0.501464844
vt 0.0196228027 0.501464844
vt 0.0196228027 0.0168762207
vt 0.756835938 0.0168762207
vt 0.756835938 0.501464844
vt 0.0196228027 0.501464844
vt 0.0196228027 0.0168762207
vt 0.756835938 0.0168762207
vt 0.756835938 0.501464844
vt 0.756835938 0.501464844
vt 0.756835938 0.0168762207
vt 0.0196228027 0.0168762207
vt 0.0196228027 0.501464844
vt 0.0196228027 0.501464844
vt 0.0196228027 0.0168762207
vt 0.756835938 0.0168762207
vt 0.756835938 0.501464844
vt 0.756835938 0.501464844
vt 0.756835938 0.0168762207
vt 0.0196228027 0.0168762207
vt 0.0196228027 0.501464844
vt 0.756835938 0.501464844
vt 0.756835938 0.0168762207
vt 0.0196228027 0.0168762207
vt 0.0196228027 0.501464844
vt 0.756835938 0.501464844
vt 0.756835938 0.0168762207
vt 0.0196228027 0.0168762207
vt 0.0196228027 0.501464844
vt 0.756835938 0.501464844
vt 0.756835938 0.0168762207
vt 0.0196228027 0.0168762207
vt 0.0196228027 0.501464844
vt 0.756835938 0.501464844
vt 0.756835938 0.0168762207
vt 0.0196228027 0.0168762207
vt 0.0196228027 0.501464844
vt 0.756835938 0.501464844
vt 0.756835938 0.0168762207
vt 0.0196228027 0.0168762207
vt 0.0196228027 0.501464844
vt 0.756835938 0.501464844
vt 0.756835938 0.0168762207
vt 0.0196228027 0.0168762207
vt 0.0196228027 0.501464844
vt 0.0196228027 0.501464844
vt 0.0196228027 0.0168762207
vt 0.756835938 0.0168762207
vt 0.756835938 0.501464844
vt 0.0196228027 0.501464844
vt 0.0196228027 0.0168762207
vt 0.756835938 0.0168762207
vt 0.756835938 0.501464844
vt 0.0196228027 0.501464844
vt 0.0196228027 0.0168762207
vt 0.756835938 0.0168762207
vt 0.756835938 0.501464844
vt 0.0196228027 0.501464844
vt 0.0196228027 0.0168762207
vt 0.756835938 0.0168762207
vt 0.756835938 0.501464844
vt 0.0196228027 0.501464844
vt 0.0196228027 0.0168762207
vt 0.756835938 0.0168762207
vt 0.756835938 0.501464844
vt 0.0196228027 0.501464844
vt 0.0196228027 0.0168762207
vt 0.756835938 0.0168762207
vt 0.756835938 0.501464844
vt 0.0196228027 0.501464844
vt 0.0196228027 0.0168762207
vt 0.756835938 0.0168762207
vt 0.756835938 0.501464844
vt 0.756835938 0.501464844
vt 0.756835938 0.0168762207
vt 0.0196228027 0.0168762207
vt 0.0196228027 0.501464844
vt 0.0196228027 0.501464844
vt 0.0196228027 0.0168762207
vt 0.756835938 0.0168762207
vt 0.756835938 0.501464844
vt 0.756835938 0.501464844
vt 0.756835938 0.0168762207
vt 0.0196228027 0.0168762207
vt 0.0196228027 0.501464844
vt 0.0196228027 0.501464844
vt 0.0196228027 0.0168762207
vt 0.756835938 0.0168762207
vt 0.756835938 0.501464844
vt 0.756835938 0.501464844
vt 0.756835938 0.0168762207
vt 0.0196228027 0.0168762207
vt 0.0196228027 0.501464844
vt 0.0196228027 0.501464844
vt 0.0196228027 0.0168762207
vt 0.756835938 0.0168762207
vt 0.756835938 0.501464844
vt 0.756835938 0.501464844
vt 0.756835938 0.0168762207
vt 0.0196228027 0.0168762207
vt 0.0196228027 0.501464844
vt 0.0196228027 0.501464844
vt 0.0196228027 0.0168762207
vt 0.756835938 0.0168762207
vt 0.756835938 0.501464844
vt 0.756835938 0.501464844
vt 0.756835938 0.0168762207
vt 0.0196228027 0.0168762207
vt 0.0196228027 0.501464844
vt 0.0196228027 0.501464844
vt 0.0196228027 0.0168762207
vt 0.756835938 0.0168762207
vt 0.756835938 0.501464844
vt 0.756835938 0.501464844
vt 0.756835938 0.0168762207
vt 0.0196228027 0.0168762207
vt 0.0196228027 0.501464844
vn 1 1.84774399E-06 0
vn 1 0 0
vn 1 0 0
vn 1 8.94069672E-07 0
vn 1 -1.60932541E-06 0
vn 1 -3.57627869E-06 0
vn 1 -2.08616257E-06 0
vn 1 -7.15255737E-07 0
vn 1 -2.62260437E-06 0
vn 1 -4.76837158E-06 0
vn 1 -3.57627869E-06 0
vn 1 -1.60932541E-06 0
vn 1 2.68220901E-06 0
vn 1 0 0
vn 1 0 0
vn 1 1.84774399E-06 0
vn 1 0 0
vn 1 -2.62260437E-06 0
vn 1 -1.60932541E-06 0
vn 1 0 0
vn 1 0 0
vn 1 -1.60932541E-06 0
vn 1 -7.15255737E-07 0
vn 1 0 0
vn 1 6.13927841E-06 0
vn 1 2.68220901E-06 0
vn 1 1.84774399E-06 0
vn 1 4.529953E-06 0
vn 1 4.529953E-06 0
vn 1 1.84774399E-06 0
vn 1 8.94069672E-07 0
vn 1 2.68220901E-06 0
vn 1 2.14576721E-06 0
vn 1 0 0
vn 1 0 0
vn 1 2.44379044E-06 0
vn 1 1.49011612E-06 0
vn 1 0 0
vn 1 0 0
vn 1 8.94069672E-07 0
vn 1 -1.90734863E-06 0
vn 1 -2.74181366E-06 0
vn 1 -3.87430191E-06 0
vn 1 -2.32458115E-06 0
vn 1 -1.43051147E-06 0
vn 1 -2.08616257E-06 0
vn 1 -2.20537186E-06 0
vn 1 -7.15255737E-07 0
vn 1 -1.96695328E-06 0
vn 1 -3.21865082E-06 0
vn 1 -2.98023224E-06 0
vn 1 -2.50339508E-06 0
vn 1 2.14576721E-06 0
vn 1 0 0
vn 1 0 0
vn 1 2.68220901E-06 0
vn 1 -2.50339508E-06 0
vn 1 -2.98023224E-06 0
vn 1 -2.08616257E-06 0
vn 1 -1.43051147E-06 0
vn 1 2.68220901E-06 0
vn 1 0 0
vn 1 0 0
vn 1 1.49011612E-06 0
vn 1 -2.32458115E-06 0
vn 1 -3.87430191E-06 0
vn 1 -3.21865082E-06 0
vn 1 -1.96695328E-06 0
vn 1 2.44379044E-06 0
vn 1 0 0
vn 1 0 0
vn 1 2.14576721E-06 0
vn 1 0 0
vn 1 0 0
vn 1 -2.74181366E-06 0
vn 1 -1.90734863E-06 0
vn 1 0 0
vn 1 0 0
vn 1 0 0
vn 1 2.14576721E-06 0
vn 1 0 0
vn 1 0 0
vn 1 -1.90734863E-06 0
vn 1 0 0
vn 1 0 0
vn 1 -1.90734863E-06 0
vn 1 -2.32458115E-06 0
vn 1 0 0
vn 1 0 0
vn 1 -2.32458115E-06 0
vn 1 -1.96695328E-06 0
vn 1 0 0
vn 1 0 0
vn 1 -1.96695328E-06 0
vn 1 -2.50339508E-06 0
vn 1 0 0
vn 1 0 0
vn 1 -2.50339508E-06 0
vn 1 -1.43051147E-06 0
vn 1 0 0
vn 1 0 0
vn 1 -1.43051147E-06 0
vn 1 -7.15255737E-07 0
vn 1 0 0
vn 1 0 0
vn 1 0 0
vn 1 2.14576721E-06 0
vn 1 3.21865082E-06 0
vn 1 3.21865082E-06 0
vn 1 2.14576721E-06 0
vn 1 2.44379044E-06 0
vn 1 4.70876694E-06 0
vn 1 4.70876694E-06 0
vn 1 2.44379044E-06 0
vn 1 2.14576721E-06 0
vn 1 3.87430191E-06 0
vn 1 3.87430191E-06 0
vn 1 2.14576721E-06 0
vn 1 2.68220901E-06 0
vn 1 3.51667404E-06 0
vn 1 3.51667404E-06 0
vn 1 2.68220901E-06 0
vn 1 1.49011612E-06 0
vn 1 2.50339508E-06 0
vn 1 2.50339508E-06 0
vn 1 1.49011612E-06 0
vn 1 8.94069672E-07 0
vn 1 2.68220901E-06 0
g Enclosure_Fence_3_0
f 3/3/3 2/2/2 1/1/1
f 4/4/4 3/3/3 1/1/1
f 7/7/7 6/6/6 5/5/5
f 8/8/8 7/7/7 5/5/5
f 11/11/11 10/10/10 9/9/9
f 12/12/12 11/11/11 9/9/9
f 15/15/15 14/14/14 13/13/13
f 16/16/16 15/15/15 13/13/13
f 19/19/19 18/18/18 17/17/17
f 20/20/20 19/19/19 17/17/17
f 23/23/23 22/22/22 21/21/21
f 24/24/24 23/23/23 21/21/21
f 27/27/27 26/26/26 25/25/25
f 28/28/28 27/27/27 25/25/25
f 31/31/31 30/30/30 29/29/29
f 32/32/32 31/31/31 29/29/29
f 35/35/35 34/34/34 33/33/33
f 36/36/36 35/35/35 33/33/33
f 39/39/39 38/38/38 37/37/37
f 40/40/40 39/39/39 37/37/37
f 43/43/43 42/42/42 41/41/41
f 44/44/44 43/43/43 41/41/41
f 47/47/47 46/46/46 45/45/45
f 48/48/48 47/47/47 45/45/45
f 51/51/51 50/50/50 49/49/49
f 52/52/52 51/51/51 49/49/49
f 55/55/55 54/54/54 53/53/53
f 56/56/56 55/55/55 53/53/53
f 59/59/59 58/58/58 57/57/57
f 60/60/60 59/59/59 57/57/57
f 63/63/63 62/62/62 61/61/61
f 64/64/64 63/63/63 61/61/61
f 67/67/67 66/66/66 65/65/65
f 68/68/68 67/67/67 65/65/65
f 71/71/71 70/70/70 69/69/69
f 72/72/72 71/71/71 69/69/69
f 75/75/75 74/74/74 73/73/73
f 76/76/76 75/75/75 73/73/73
f 79/79/79 78/78/78 77/77/77
f 80/80/80 79/79/79 77/77/77
f 83/83/83 82/82/82 81/81/81
f 84/84/84 83/83/83 81/81/81
f 87/87/87 86/86/86 85/85/85
f 88/88/88 87/87/87 85/85/85
f 91/91/91 90/90/90 89/89/89
f 92/92/92 91/91/91 89/89/89
f 95/95/95 94/94/94 93/93/93
f 96/96/96 95/95/95 93/93/93
f 99/99/99 98/98/98 97/97/97
f 100/100/100 99/99/99 97/97/97
f 103/103/103 102/102/102 101/101/101
f 104/104/104 103/103/103 101/101/101
f 107/107/107 106/106/106 105/105/105
f 108/108/108 107/107/107 105/105/105
f 111/111/111 110/110/110 109/109/109
f 112/112/112 111/111/111 109/109/109
f 115/115/115 114/114/114 113/113/113
f 116/116/116 115/115/115 113/113/113
f 119/119/119 118/118/118 117/117/117
f 120/120/120 119/119/119 117/117/117
f 123/123/123 122/122/122 121/121/121
f 124/124/124 123/123/123 121/121/121
f 127/127/127 126/126/126 125/125/125
f 128/128/128 127/127/127 125/125/125
