g Streetlight
v -0.10714256 3.52260971 -0.107142486
v 1.90734859E-08 3.48097563 9.5367426E-08
v 0.107142597 3.52260971 -0.107142486
v 0.107142597 3.52260971 -0.107142486
v 1.90734859E-08 3.48097563 9.5367426E-08
v 0.107142597 3.52260971 0.107142672
v 0.107142597 3.52260971 0.107142672
v 1.90734859E-08 3.48097563 9.5367426E-08
v -0.10714256 3.52260971 0.107142672
v -0.10714256 3.52260971 0.107142672
v 1.90734859E-08 3.48097563 9.5367426E-08
v -0.10714256 3.52260971 -0.107142486
v 0.0836624727 0.14337638 -0.140587017
v -0.0836624131 0.14337638 -0.140587017
v -0.0973400697 0.0643757358 -0.163571075
v 0.0973401144 0.0643757358 -0.163571075
v -0.202761456 0.0643757358 9.05167568E-08
v -0.0973400697 0.0643757358 -0.163571075
v -0.0836624131 0.14337638 -0.140587017
v -0.1742706 0.14337638 9.13658553E-08
v -0.0973400697 0.0643757358 0.163571149
v -0.202761456 0.0643757358 9.05167568E-08
v -0.1742706 0.14337638 9.13658553E-08
v -0.0836624131 0.143376216 0.140587196
v -0.0836624131 0.143376216 0.140587196
v 0.0836624727 0.14337638 0.140587196
v 0.0973401144 0.0643757358 0.163571149
v -0.0973400697 0.0643757358 0.163571149
v 0.202761456 0.0643757358 9.05167568E-08
v 0.0973401144 0.0643757358 0.163571149
v 0.0836624727 0.14337638 0.140587196
v 0.17427063 0.14337638 9.13658553E-08
v 0.0973401144 0.0643757358 -0.163571075
v 0.202761456 0.0643757358 9.05167568E-08
v 0.17427063 0.14337638 9.13658553E-08
v 0.0836624727 0.14337638 -0.140587017
v 0.0433637761 0.995281518 -0.0728687048
v -0.0433637276 0.995281518 -0.0728687048
v -0.0483086295 0.899224997 -0.0811781362
v 0.0483086705 0.899224997 -0.0811781362
v -0.10062781 0.899224997 8.98194088E-08
v -0.0483086295 0.899224997 -0.0811781362
v -0.0433637276 0.995281518 -0.0728687048
v -0.0903275385 0.995281518 9.26856387E-08
v -0.0483086295 0.899224997 0.0811783671
v -0.10062781 0.899224997 8.98194088E-08
v -0.0903275385 0.995281518 9.26856387E-08
v -0.0433637276 0.995281518 0.0728689358
v -0.0433637276 0.995281518 0.0728689358
v 0.0433637761 0.995281518 0.0728689358
v 0.0483086705 0.899224997 0.0811783671
v -0.0483086295 0.899224997 0.0811783671
v 0.100627914 0.899224997 8.98194088E-08
v 0.0483086705 0.899224997 0.0811783671
v 0.0433637761 0.995281518 0.0728689358
v 0.0903276205 0.995281518 9.26856387E-08
v 0.0483086705 0.899224997 -0.0811781362
v 0.100627914 0.899224997 8.98194088E-08
v 0.0903276205 0.995281518 9.26856387E-08
v 0.0433637761 0.995281518 -0.0728687048
v 0.0540649965 1.00027871 -0.0908511132
v -0.0540649593 1.00027871 -0.0908511132
v -0.0433637276 0.995281518 -0.0728687048
v 0.0433637761 0.995281518 -0.0728687048
v -0.0433637276 0.995281518 -0.0728687048
v -0.0540649593 1.00027871 -0.0908511132
v -0.112618387 1.00027871 9.35909767E-08
v -0.0903275385 0.995281518 9.26856387E-08
v -0.0903275385 0.995281518 9.26856387E-08
v -0.112618387 1.00027871 9.35909767E-08
v -0.0540649593 1.00027871 0.090851374
v -0.0433637276 0.995281518 0.0728689358
v -0.0540649593 1.00027871 0.090851374
v 0.0540649965 1.00027871 0.090851374
v 0.0433637761 0.995281518 0.0728689358
v -0.0433637276 0.995281518 0.0728689358
v 0.0433637761 0.995281518 0.0728689358
v 0.0540649965 1.00027871 0.090851374
v 0.112618499 1.00027871 9.35909767E-08
v 0.0903276205 0.995281518 9.26856387E-08
v 0.0903276205 0.995281518 9.26856387E-08
v 0.112618499 1.00027871 9.35909767E-08
v 0.0540649965 1.00027871 -0.0908511132
v 0.0433637761 0.995281518 -0.0728687048
v -0.0540649593 1.0278517 -0.0908511132
v -0.0540649593 1.00027871 -0.0908511132
v 0.0540649965 1.00027871 -0.0908511132
v 0.0540649965 1.0278517 -0.0908511132
v -0.0540649593 1.00027871 -0.0908511132
v -0.0540649593 1.0278517 -0.0908511132
v -0.112618387 1.0278517 9.35909767E-08
v -0.112618387 1.00027871 9.35909767E-08
v -0.112618387 1.00027871 9.35909767E-08
v -0.112618387 1.0278517 9.35909767E-08
v -0.0540649593 1.0278517 0.090851374
v -0.0540649593 1.00027871 0.090851374
v 0.0540649965 1.0278517 0.090851374
v 0.0540649965 1.00027871 0.090851374
v -0.0540649593 1.00027871 0.090851374
v -0.0540649593 1.0278517 0.090851374
v 0.0540649965 1.00027871 0.090851374
v 0.0540649965 1.0278517 0.090851374
v 0.112618499 1.0278517 9.35909767E-08
v 0.112618499 1.00027871 9.35909767E-08
v 0.112618499 1.00027871 9.35909767E-08
v 0.112618499 1.0278517 9.35909767E-08
v 0.0540649965 1.0278517 -0.0908511132
v 0.0540649965 1.00027871 -0.0908511132
v -0.0414356403 1.02278876 -0.0639963299
v 0.0414356403 1.02278876 -0.0639963299
v 0.0324561633 1.06435752 -0.0501277
v -0.0324561149 1.06435752 -0.0501276962
v -0.0772261471 1.02278876 9.13044431E-08
v -0.0414356403 1.02278876 -0.0639963299
v -0.0324561149 1.06435752 -0.0501276962
v -0.0604905151 1.06435752 6.54043646E-08
v -0.0414356403 1.02278876 0.0639965534
v -0.0772261471 1.02278876 9.13044431E-08
v -0.0604905151 1.06435752 6.54043646E-08
v -0.0324561149 1.06435752 0.0501279384
v 0.0414356403 1.02278876 0.0639965534
v -0.0414356403 1.02278876 0.0639965534
v -0.0324561149 1.06435752 0.0501279384
v 0.0324561633 1.06435752 0.0501279384
v 0.0772262141 1.02278876 9.13044431E-08
v 0.0414356403 1.02278876 0.0639965534
v 0.0324561633 1.06435752 0.0501279384
v 0.0604905672 1.06435752 9.29240116E-08
v 0.0414356403 1.02278876 -0.0639963299
v 0.0772262141 1.02278876 9.13044431E-08
v 0.0604905672 1.06435752 9.29240116E-08
v 0.0324561633 1.06435752 -0.0501277
v 0.025979396 2.14547062 -0.0401245169
v -0.0259794611 2.14547062 -0.0401245169
v -0.0324561149 1.06435752 -0.0501276962
v 0.0324561633 1.06435752 -0.0501277
v -0.0324561149 1.06435752 -0.0501276962
v -0.0259794611 2.14547062 -0.0401245169
v -0.048419375 2.14547062 6.89147726E-08
v -0.0604905151 1.06435752 6.54043646E-08
v -0.0604905151 1.06435752 6.54043646E-08
v -0.048419375 2.14547062 6.89147726E-08
v -0.0259794611 2.14547062 0.0401248634
v -0.0324561149 1.06435752 0.0501279384
v -0.0259794611 2.14547062 0.0401248634
v 0.025979396 2.14547062 0.0401248634
v 0.0324561633 1.06435752 0.0501279384
v -0.0324561149 1.06435752 0.0501279384
v 0.0324561633 1.06435752 0.0501279384
v 0.025979396 2.14547062 0.0401248634
v 0.0484194309 2.14547062 9.09427769E-08
v 0.0604905672 1.06435752 9.29240116E-08
v 0.0604905672 1.06435752 9.29240116E-08
v 0.0484194309 2.14547062 9.09427769E-08
v 0.025979396 2.14547062 -0.0401245169
v 0.0324561633 1.06435752 -0.0501277
v 0.0343919285 2.15080643 -0.0531174727
v -0.0343920402 2.15080643 -0.0531174727
v -0.0259794611 2.14547062 -0.0401245169
v 0.025979396 2.14547062 -0.0401245169
v -0.0259794611 2.14547062 -0.0401245169
v -0.0343920402 2.15080643 -0.0531174727
v -0.0640983507 2.15080643 6.43551274E-08
v -0.048419375 2.14547062 6.89147726E-08
v -0.048419375 2.14547062 6.89147726E-08
v -0.0640983507 2.15080643 6.43551274E-08
v -0.0343920402 2.15080643 0.0531179309
v -0.0259794611 2.14547062 0.0401248634
v -0.0343920402 2.15080643 0.0531179309
v 0.0343919285 2.15080643 0.0531179309
v 0.025979396 2.14547062 0.0401248634
v -0.0259794611 2.14547062 0.0401248634
v 0.025979396 2.14547062 0.0401248634
v 0.0343919285 2.15080643 0.0531179309
v 0.064098388 2.15080643 9.35161353E-08
v 0.0484194309 2.14547062 9.09427769E-08
v 0.0484194309 2.14547062 9.09427769E-08
v 0.064098388 2.15080643 9.35161353E-08
v 0.0343919285 2.15080643 -0.0531174727
v 0.025979396 2.14547062 -0.0401245169
v 0.0292262305 2.22812748 -0.0451391749
v -0.0292263161 2.22812748 -0.0451391749
v -0.0343920402 2.15080643 -0.0531174727
v 0.0343919285 2.15080643 -0.0531174727
v -0.0343920402 2.15080643 -0.0531174727
v -0.0292263161 2.22812748 -0.0451391749
v -0.0544707142 2.22812748 6.71549714E-08
v -0.0640983507 2.15080643 6.43551274E-08
v -0.0640983507 2.15080643 6.43551274E-08
v -0.0544707142 2.22812748 6.71549714E-08
v -0.0292263161 2.22812748 0.0451395698
v -0.0343920402 2.15080643 0.0531179309
v -0.0292263161 2.22812748 0.0451395698
v 0.0292262305 2.22812748 0.0451395698
v 0.0343919285 2.15080643 0.0531179309
v -0.0343920402 2.15080643 0.0531179309
v 0.0343919285 2.15080643 0.0531179309
v 0.0292262305 2.22812748 0.0451395698
v 0.0544707663 2.22812748 9.19359664E-08
v 0.064098388 2.15080643 9.35161353E-08
v 0.064098388 2.15080643 9.35161353E-08
v 0.0544707663 2.22812748 9.19359664E-08
v 0.0292262305 2.22812748 -0.0451391749
v 0.0343919285 2.15080643 -0.0531174727
v 0.0226676762 3.36335921 -0.0350096188
v -0.0226677265 3.36335921 -0.0350096188
v -0.0292263161 2.22812748 -0.0451391749
v 0.0292262305 2.22812748 -0.0451391749
v -0.0292263161 2.22812748 -0.0451391749
v -0.0226677265 3.36335921 -0.0350096188
v -0.0422471128 3.36335921 7.13853581E-08
v -0.0544707142 2.22812748 6.71549714E-08
v -0.0544707142 2.22812748 6.71549714E-08
v -0.0422471128 3.36335921 7.13853581E-08
v -0.0226677265 3.36335921 0.0350099653
v -0.0292263161 2.22812748 0.0451395698
v -0.0226677265 3.36335921 0.0350099653
v 0.0226676762 3.36335921 0.0350099653
v 0.0292262305 2.22812748 0.0451395698
v -0.0292263161 2.22812748 0.0451395698
v 0.0292262305 2.22812748 0.0451395698
v 0.0226676762 3.36335921 0.0350099653
v 0.0422471613 3.36335921 9.0605333E-08
v 0.0544707663 2.22812748 9.19359664E-08
v 0.0544707663 2.22812748 9.19359664E-08
v 0.0422471613 3.36335921 9.0605333E-08
v 0.0226676762 3.36335921 -0.0350096188
v 0.0292262305 2.22812748 -0.0451391749
v 0.0302333869 3.37444115 -0.0466946922
v -0.0302334856 3.37444115 -0.0466946922
v -0.0226677265 3.36335921 -0.0350096188
v 0.0226676762 3.36335921 -0.0350096188
v -0.0226677265 3.36335921 -0.0350096188
v -0.0302334856 3.37444115 -0.0466946922
v -0.0563478135 3.37444115 6.7284688E-08
v -0.0422471128 3.36335921 7.13853581E-08
v -0.0422471128 3.36335921 7.13853581E-08
v -0.0563478135 3.37444115 6.7284688E-08
v -0.0302334856 3.37444115 0.0466951057
v -0.0226677265 3.36335921 0.0350099653
v -0.0302334856 3.37444115 0.0466951057
v 0.0302333869 3.37444115 0.0466951057
v 0.0226676762 3.36335921 0.0350099653
v -0.0226677265 3.36335921 0.0350099653
v 0.0226676762 3.36335921 0.0350099653
v 0.0302333869 3.37444115 0.0466951057
v 0.0563478544 3.37444115 9.29196489E-08
v 0.0422471613 3.36335921 9.0605333E-08
v 0.0422471613 3.36335921 9.0605333E-08
v 0.0563478544 3.37444115 9.29196489E-08
v 0.0302333869 3.37444115 -0.0466946922
v 0.0226676762 3.36335921 -0.0350096188
v 0.0241540074 3.47879076 -0.0373052396
v -0.0241540745 3.47879076 -0.0373052396
v -0.0302334856 3.37444115 -0.0466946922
v 0.0302333869 3.37444115 -0.0466946922
v -0.0302334856 3.37444115 -0.0466946922
v -0.0241540745 3.47879076 -0.0373052396
v -0.0450172983 3.47879076 7.10492785E-08
v -0.0563478135 3.37444115 6.7284688E-08
v -0.0563478135 3.37444115 6.7284688E-08
v -0.0450172983 3.47879076 7.10492785E-08
v -0.0241540745 3.47879076 0.0373055935
v -0.0302334856 3.37444115 0.0466951057
v -0.0241540745 3.47879076 0.0373055935
v 0.0241540074 3.47879076 0.0373055935
v 0.0302333869 3.37444115 0.0466951057
v -0.0302334856 3.37444115 0.0466951057
v 0.0302333869 3.37444115 0.0466951057
v 0.0241540074 3.47879076 0.0373055935
v 0.0450173356 3.47879076 9.15295288E-08
v 0.0563478544 3.37444115 9.29196489E-08
v 0.0563478544 3.37444115 9.29196489E-08
v 0.0450173356 3.47879076 9.15295288E-08
v 0.0241540074 3.47879076 -0.0373052396
v 0.0302333869 3.37444115 -0.0466946922
v -0.17183426 0.0680478811 -0.268285573
v -0.17183426 -2.84217088E-16 -0.268285573
v 0.17183429 -2.84217088E-16 -0.268285573
v 0.17183429 0.0680478811 -0.268285573
v -0.17183426 -2.84217088E-16 -0.268285573
v -0.17183426 0.0680478811 -0.268285573
v -0.311235815 0.0680478811 8.71183659E-08
v -0.311235815 -2.84217088E-16 8.71183659E-08
v -0.311235815 -2.84217088E-16 8.71183659E-08
v -0.311235815 0.0680478811 8.71183659E-08
v -0.17183426 0.0680478811 0.268285573
v -0.17183426 -2.84217088E-16 0.268285573
v 0.17183429 0.0680478811 0.268285573
v 0.17183429 -2.84217088E-16 0.268285573
v -0.17183426 -2.84217088E-16 0.268285573
v -0.17183426 0.0680478811 0.268285573
v 0.17183429 -2.84217088E-16 0.268285573
v 0.17183429 0.0680478811 0.268285573
v 0.311235815 0.0680478811 8.71183659E-08
v 0.311235815 -2.84217088E-16 8.71183659E-08
v 0.311235815 -2.84217088E-16 8.71183659E-08
v 0.311235815 0.0680478811 8.71183659E-08
v 0.17183429 0.0680478811 -0.268285573
v 0.17183429 -2.84217088E-16 -0.268285573
v -0.114408307 3.5413878 0.114408426
v -0.0894005448 3.56920767 0.117579669
v 0.0894005746 3.56920767 0.117579669
v 0.114408344 3.5413878 0.114408426
v 0.114408344 3.5413878 0.114408426
v 0.0894005746 3.56920767 0.117579669
v 0.12564975 3.88720417 0.153828844
v 0.15700002 3.91502404 0.157000095
v 0.15700002 3.91502404 0.157000095
v 0.12564975 3.88720417 0.153828844
v -0.125649706 3.88720417 0.153828844
v -0.156999975 3.91502404 0.157000095
v -0.156999975 3.91502404 0.157000095
v -0.125649706 3.88720417 0.153828844
v -0.0894005448 3.56920767 0.117579669
v -0.114408307 3.5413878 0.114408426
v 0.114408344 3.5413878 0.114408426
v 0.117579594 3.56920767 0.0894006714
v 0.117579594 3.56920767 -0.0894004703
v 0.114408344 3.5413878 -0.114408232
v 0.114408344 3.5413878 -0.114408232
v 0.117579594 3.56920767 -0.0894004703
v 0.15382877 3.88720417 -0.125649646
v 0.15700002 3.91502404 -0.156999901
v 0.15700002 3.91502404 -0.156999901
v 0.15382877 3.88720417 -0.125649646
v 0.15382877 3.88720417 0.125649825
v 0.15700002 3.91502404 0.157000095
v 0.15700002 3.91502404 0.157000095
v 0.15382877 3.88720417 0.125649825
v 0.117579594 3.56920767 0.0894006714
v 0.114408344 3.5413878 0.114408426
v -0.156999975 3.91502404 -0.156999901
v -0.12564972 3.88720417 -0.153828651
v 0.12564975 3.88720417 -0.153828651
v 0.15700002 3.91502404 -0.156999901
v 0.15700002 3.91502404 -0.156999901
v 0.12564975 3.88720417 -0.153828651
v 0.089400582 3.56920767 -0.117579475
v 0.114408344 3.5413878 -0.114408232
v 0.114408344 3.5413878 -0.114408232
v 0.089400582 3.56920767 -0.117579475
v -0.0894005373 3.56920767 -0.117579475
v -0.114408307 3.5413878 -0.114408232
v -0.114408307 3.5413878 -0.114408232
v -0.0894005373 3.56920767 -0.117579475
v -0.12564972 3.88720417 -0.153828651
v -0.156999975 3.91502404 -0.156999901
v -0.114408307 3.5413878 -0.114408232
v -0.11757955 3.56920767 -0.0894004703
v -0.11757955 3.56920767 0.089400664
v -0.114408307 3.5413878 0.114408426
v -0.114408307 3.5413878 0.114408426
v -0.11757955 3.56920767 0.089400664
v -0.153828725 3.88720417 0.125649825
v -0.156999975 3.91502404 0.157000095
v -0.156999975 3.91502404 0.157000095
v -0.153828725 3.88720417 0.125649825
v -0.153828725 3.88720417 -0.125649646
v -0.156999975 3.91502404 -0.156999901
v -0.156999975 3.91502404 -0.156999901
v -0.153828725 3.88720417 -0.125649646
v -0.11757955 3.56920767 -0.0894004703
v -0.114408307 3.5413878 -0.114408232
v -0.0894005448 3.56920767 0.117579669
v -0.0910704806 3.57203913 0.0910705924
v 0.0910705179 3.57203913 0.0910705999
v 0.0894005746 3.56920767 0.117579669
v 0.0894005746 3.56920767 0.117579669
v 0.0910705179 3.57203913 0.0910705999
v 0.127319694 3.89003563 0.127319768
v 0.12564975 3.88720417 0.153828844
v 0.12564975 3.88720417 0.153828844
v 0.127319694 3.89003563 0.127319768
v -0.127319634 3.89003563 0.127319768
v -0.125649706 3.88720417 0.153828844
v -0.125649706 3.88720417 0.153828844
v -0.127319634 3.89003563 0.127319768
v -0.0910704806 3.57203913 0.0910705924
v -0.0894005448 3.56920767 0.117579669
v 0.117579594 3.56920767 0.0894006714
v 0.0910705179 3.57203913 0.0910705999
v 0.0910705179 3.57203913 -0.0910703987
v 0.117579594 3.56920767 -0.0894004703
v 0.117579594 3.56920767 -0.0894004703
v 0.0910705179 3.57203913 -0.0910703987
v 0.127319694 3.89003563 -0.127319574
v 0.15382877 3.88720417 -0.125649646
v 0.15382877 3.88720417 -0.125649646
v 0.127319694 3.89003563 -0.127319574
v 0.127319694 3.89003563 0.127319768
v 0.15382877 3.88720417 0.125649825
v 0.15382877 3.88720417 0.125649825
v 0.127319694 3.89003563 0.127319768
v 0.0910705179 3.57203913 0.0910705999
v 0.117579594 3.56920767 0.0894006714
v -0.12564972 3.88720417 -0.153828651
v -0.127319664 3.89003563 -0.127319574
v 0.127319694 3.89003563 -0.127319574
v 0.12564975 3.88720417 -0.153828651
v 0.12564975 3.88720417 -0.153828651
v 0.127319694 3.89003563 -0.127319574
v 0.0910705179 3.57203913 -0.0910703987
v 0.089400582 3.56920767 -0.117579475
v 0.089400582 3.56920767 -0.117579475
v 0.0910705179 3.57203913 -0.0910703987
v -0.0910704806 3.57203913 -0.0910703987
v -0.0894005373 3.56920767 -0.117579475
v -0.0894005373 3.56920767 -0.117579475
v -0.0910704806 3.57203913 -0.0910703987
v -0.127319664 3.89003563 -0.127319574
v -0.12564972 3.88720417 -0.153828651
v -0.11757955 3.56920767 -0.0894004703
v -0.0910704806 3.57203913 -0.0910703987
v -0.0910704806 3.57203913 0.0910705924
v -0.11757955 3.56920767 0.089400664
v -0.11757955 3.56920767 0.089400664
v -0.0910704806 3.57203913 0.0910705924
v -0.127319634 3.89003563 0.127319768
v -0.153828725 3.88720417 0.125649825
v -0.153828725 3.88720417 0.125649825
v -0.127319634 3.89003563 0.127319768
v -0.127319664 3.89003563 -0.127319574
v -0.153828725 3.88720417 -0.125649646
v -0.153828725 3.88720417 -0.125649646
v -0.127319664 3.89003563 -0.127319574
v -0.0910704806 3.57203913 -0.0910703987
v -0.11757955 3.56920767 -0.0894004703
v -0.0239341874 4.10185003 0.023934301
v -0.0239341874 4.10185003 -0.023934111
v 0.0239342246 4.10185003 -0.023934111
v 0.0239342246 4.10185003 0.023934301
v 0.0501637124 4.07465219 0.0501637869
v 0.0501637124 4.07465219 -0.0501635969
v -0.0508171991 4.0235672 0.0508173108
v -0.0508171991 4.06337452 0.0508173108
v 0.0508172363 4.06337452 0.0508173108
v 0.0508172363 4.0235672 0.0508173108
v 0.0508172363 4.0235672 0.0508173108
v 0.0508172363 4.06337452 0.0508173108
v 0.0508172363 4.06337452 -0.0508171208
v 0.0508172363 4.0235672 -0.0508171208
v 0.0508172363 4.0235672 -0.0508171208
v 0.0508172363 4.06337452 -0.0508171208
v -0.0508171991 4.06337452 -0.0508171208
v -0.0508171991 4.0235672 -0.0508171208
v -0.0508171991 4.0235672 -0.0508171208
v -0.0508171991 4.06337452 -0.0508171208
v -0.0508171991 4.06337452 0.0508173108
v -0.0508171991 4.0235672 0.0508173108
v -0.0508171991 4.06337452 0.0508173108
v -0.0667987391 4.06337452 0.0667988583
v 0.0667987838 4.06337452 0.0667988583
v 0.0508172363 4.06337452 0.0508173108
v 0.0508172363 4.06337452 0.0508173108
v 0.0667987838 4.06337452 0.0667988583
v 0.0667987838 4.06337452 -0.0667986646
v 0.0508172363 4.06337452 -0.0508171208
v 0.0508172363 4.06337452 -0.0508171208
v 0.0667987838 4.06337452 -0.0667986646
v -0.0667987391 4.06337452 -0.0667986646
v -0.0508171991 4.06337452 -0.0508171208
v -0.0508171991 4.06337452 -0.0508171208
v -0.0667987391 4.06337452 -0.0667986646
v -0.0667987391 4.06337452 0.0667988583
v -0.0508171991 4.06337452 0.0508173108
v -0.0667987391 4.06337452 0.0667988583
v -0.0667987391 4.07465219 0.0667988583
v 0.0667987838 4.07465219 0.0667988583
v 0.0667987838 4.06337452 0.0667988583
v 0.0667987838 4.06337452 0.0667988583
v 0.0667987838 4.07465219 0.0667988583
v 0.0667987838 4.07465219 -0.0667986646
v 0.0667987838 4.06337452 -0.0667986646
v 0.0667987838 4.06337452 -0.0667986646
v 0.0667987838 4.07465219 -0.0667986646
v -0.0667987391 4.07465219 -0.0667986646
v -0.0667987391 4.06337452 -0.0667986646
v -0.0667987391 4.06337452 -0.0667986646
v -0.0667987391 4.07465219 -0.0667986646
v -0.0667987391 4.07465219 0.0667988583
v -0.0667987391 4.06337452 0.0667988583
v -0.0667987391 4.07465219 0.0667988583
v -0.0501636714 4.07465219 0.0501637869
v 0.0501637124 4.07465219 0.0501637869
v 0.0667987838 4.07465219 0.0667988583
v 0.0667987838 4.07465219 0.0667988583
v 0.0501637124 4.07465219 0.0501637869
v 0.0501637124 4.07465219 -0.0501635969
v 0.0667987838 4.07465219 -0.0667986646
v 0.0667987838 4.07465219 -0.0667986646
v 0.0501637124 4.07465219 -0.0501635969
v -0.0501636714 4.07465219 -0.0501635969
v -0.0667987391 4.07465219 -0.0667986646
v -0.0667987391 4.07465219 -0.0667986646
v -0.0501636714 4.07465219 -0.0501635969
v -0.0501636714 4.07465219 0.0501637869
v -0.0667987391 4.07465219 0.0667988583
v -0.0501636714 4.07465219 0.0501637869
v -0.0239341874 4.10185003 0.023934301
v 0.0239342246 4.10185003 0.023934301
v 0.0501637124 4.07465219 0.0501637869
v 0.0501637124 4.07465219 -0.0501635969
v 0.0239342246 4.10185003 -0.023934111
v -0.0239341874 4.10185003 -0.023934111
v -0.0501636714 4.07465219 -0.0501635969
v -0.0501636714 4.07465219 -0.0501635969
v -0.0239341874 4.10185003 -0.023934111
v -0.0239341874 4.10185003 0.023934301
v -0.0501636714 4.07465219 0.0501637869
v -0.199999973 3.90682054 0.200000092
v -0.199999973 3.92202163 0.200000092
v 0.200000018 3.92202163 0.200000092
v 0.200000018 3.90682054 0.200000092
v 0.200000018 3.90682054 0.200000092
v 0.200000018 3.92202163 0.200000092
v 0.200000018 3.92202163 -0.199999899
v 0.200000018 3.90682054 -0.199999899
v -0.199999973 3.92202163 -0.199999899
v -0.199999973 3.90682054 -0.199999899
v 0.200000018 3.90682054 -0.199999899
v 0.200000018 3.92202163 -0.199999899
v -0.199999973 3.90682054 -0.199999899
v -0.199999973 3.92202163 -0.199999899
v -0.199999973 3.92202163 0.200000092
v -0.199999973 3.90682054 0.200000092
v -0.199999973 3.92202163 0.200000092
v -0.165999979 3.93500137 0.166000098
v 0.166000023 3.93500137 0.166000098
v 0.200000018 3.92202163 0.200000092
v 0.200000018 3.92202163 -0.199999899
v 0.166000023 3.93500137 -0.165999904
v -0.165999979 3.93500137 -0.165999904
v -0.199999973 3.92202163 -0.199999899
v 0.200000018 3.92202163 0.200000092
v 0.166000023 3.93500137 0.166000098
v 0.166000023 3.93500137 -0.165999904
v 0.200000018 3.92202163 -0.199999899
v -0.199999973 3.92202163 -0.199999899
v -0.165999979 3.93500137 -0.165999904
v -0.165999979 3.93500137 0.166000098
v -0.199999973 3.92202163 0.200000092
v 0.0735951811 4.02687407 0.0735952556
v 0.0735951811 4.02687407 -0.0735950619
v 0.145038888 3.98094225 -0.145038769
v 0.145038888 3.98094225 0.145038962
v 0.166000023 3.93500137 0.166000098
v 0.166000023 3.93500137 -0.165999904
v 0.145038888 3.98094225 0.145038962
v -0.0735951439 4.02687407 0.0735952556
v 0.0735951811 4.02687407 0.0735952556
v -0.145038843 3.98094225 0.145038962
v -0.165999979 3.93500137 0.166000098
v 0.166000023 3.93500137 0.166000098
v -0.145038843 3.98094225 0.145038962
v -0.145038843 3.98094225 -0.145038769
v -0.0735951439 4.02687407 -0.0735950619
v -0.0735951439 4.02687407 0.0735952556
v 0.0735951811 4.02687407 -0.0735950619
v 0.0735951811 4.02687407 0.0735952556
v -0.145038843 3.98094225 -0.145038769
v 0.145038888 3.98094225 -0.145038769
v 0.166000023 3.93500137 -0.165999904
v -0.165999979 3.93500137 -0.165999904
v -0.165999979 3.93500137 -0.165999904
v -0.145038843 3.98094225 -0.145038769
v -0.145038843 3.98094225 0.145038962
v -0.165999979 3.93500137 0.166000098
v -0.0124489544 4.0987668 0.0124490689
v 0.0124489926 4.12566233 0.0124490689
v 0.0124489926 4.0987668 0.0124490689
v -0.0124489544 4.12566233 0.0124490689
v 0.0237895586 4.13516998 0.0237896349
v -0.0237895194 4.13516998 0.0237896349
v 1.90734859E-08 4.18905926 9.5367426E-08
v 0.0124489926 4.0987668 0.0124490689
v 0.0124489926 4.12566233 -0.012448878
v 0.0124489926 4.0987668 -0.012448878
v 0.0124489926 4.12566233 0.0124490689
v 0.0237895586 4.13516998 -0.0237894431
v 0.0237895586 4.13516998 0.0237896349
v 1.90734859E-08 4.18905926 9.5367426E-08
v 0.0124489926 4.0987668 -0.012448878
v -0.0124489544 4.12566233 -0.012448878
v -0.0124489544 4.0987668 -0.012448878
v 0.0124489926 4.12566233 -0.012448878
v -0.0237895194 4.13516998 -0.0237894431
v 0.0237895586 4.13516998 -0.0237894431
v 1.90734859E-08 4.18905926 9.5367426E-08
v -0.0124489544 4.0987668 -0.012448878
v -0.0124489544 4.12566233 0.0124490689
v -0.0124489544 4.0987668 0.0124490689
v -0.0124489544 4.12566233 -0.012448878
v -0.0237895194 4.13516998 0.0237896349
v -0.0237895194 4.13516998 -0.0237894431
v 1.90734859E-08 4.18905926 9.5367426E-08
v 0.200000018 3.90682054 0.200000092
v 0.200000018 3.90682054 -0.199999899
v -0.199999973 3.90682054 -0.199999899
v -0.199999973 3.90682054 0.200000092
v -0.140844539 3.5413878 -0.140844449
v -0.140844539 3.52260971 -0.140844449
v 0.140844569 3.52260971 -0.140844449
v 0.140844569 3.5413878 -0.140844449
v 0.140844569 3.5413878 -0.140844449
v 0.140844569 3.52260971 -0.140844449
v 0.140844569 3.52260971 0.140844643
v 0.140844569 3.5413878 0.140844643
v 0.140844569 3.5413878 0.140844643
v 0.140844569 3.52260971 0.140844643
v -0.140844539 3.52260971 0.140844643
v -0.140844539 3.5413878 0.140844643
v -0.140844539 3.5413878 0.140844643
v -0.140844539 3.52260971 0.140844643
v -0.140844539 3.52260971 -0.140844449
v -0.140844539 3.5413878 -0.140844449
v 0.140844569 3.5413878 -0.140844449
v 0.140844569 3.5413878 0.140844643
v -0.140844539 3.5413878 0.140844643
v -0.140844539 3.5413878 -0.140844449
v 0.105230585 0.851984441 8.99160639E-08
v 0.100627914 0.899224997 8.98194088E-08
v 0.0483086705 0.899224997 -0.0811781362
v 0.0505182818 0.851984441 -0.0848911926
v 0.0836624727 0.14337638 -0.140587017
v 0.17427063 0.14337638 9.13658553E-08
v -0.0483086295 0.899224997 -0.0811781362
v 0.0505182818 0.851984441 -0.0848911926
v 0.0483086705 0.899224997 -0.0811781362
v -0.0505182408 0.851984441 -0.0848911926
v 0.0836624727 0.14337638 -0.140587017
v -0.0836624131 0.14337638 -0.140587017
v -0.10062781 0.899224997 8.98194088E-08
v -0.0505182408 0.851984441 -0.0848911926
v -0.0483086295 0.899224997 -0.0811781362
v -0.10523048 0.851984441 8.99160639E-08
v -0.0836624131 0.14337638 -0.140587017
v -0.1742706 0.14337638 9.13658553E-08
v -0.0483086295 0.899224997 0.0811783671
v -0.10523048 0.851984441 8.99160639E-08
v -0.10062781 0.899224997 8.98194088E-08
v -0.0505182408 0.851984441 0.0848914161
v -0.1742706 0.14337638 9.13658553E-08
v -0.0836624131 0.143376216 0.140587196
v 0.0483086705 0.899224997 0.0811783671
v -0.0505182408 0.851984441 0.0848914161
v -0.0483086295 0.899224997 0.0811783671
v 0.0505182818 0.851984441 0.0848914161
v -0.0836624131 0.143376216 0.140587196
v 0.0836624727 0.14337638 0.140587196
v 0.100627914 0.899224997 8.98194088E-08
v 0.0505182818 0.851984441 0.0848914161
v 0.0483086705 0.899224997 0.0811783671
v 0.105230585 0.851984441 8.99160639E-08
v 0.0836624727 0.14337638 0.140587196
v 0.17427063 0.14337638 9.13658553E-08
v 0.17183429 0.0680478811 0.268285573
v -1.69761505E-09 0.0680478811 2.42195934E-08
v 0.311235815 0.0680478811 8.71183659E-08
v -0.17183426 0.0680478811 0.268285573
v 0.17183429 0.0680478811 -0.268285573
v -0.311235815 0.0680478811 8.71183659E-08
v -0.17183426 0.0680478811 -0.268285573
v 0.0540649965 1.0278517 0.090851374
v 3.72361271E-08 1.0278517 9.59690496E-08
v 0.112618499 1.0278517 9.35909767E-08
v -0.0540649593 1.0278517 0.090851374
v 0.0540649965 1.0278517 -0.0908511132
v -0.112618387 1.0278517 9.35909767E-08
v -0.0540649593 1.0278517 -0.0908511132
v 0.0241540074 3.47879076 0.0373055935
v 3.03238252E-08 3.49818325 8.44374597E-08
v 0.0450173356 3.47879076 9.15295288E-08
v -0.0241540745 3.47879076 0.0373055935
v 0.0241540074 3.47879076 -0.0373052396
v -0.0450172983 3.47879076 7.10492785E-08
v -0.0241540745 3.47879076 -0.0373052396
v 0.140844569 3.52260971 0.140844643
v -0.10714256 3.52260971 0.107142672
v -0.140844539 3.52260971 0.140844643
v 0.107142597 3.52260971 0.107142672
v -0.10714256 3.52260971 -0.107142486
v 0.140844569 3.52260971 -0.140844449
v -0.140844539 3.52260971 -0.140844449
v 0.107142597 3.52260971 -0.107142486
vt 0.861816406 0.159790039
vt 0.83984375 0.138061523
vt 0.817871094 0.159790039
vt 0.817871094 0.159790039
vt 0.83984375 0.138061523
vt 0.817871094 0.116149902
vt 0.817871094 0.116149902
vt 0.83984375 0.138061523
vt 0.861816406 0.116149902
vt 0.861816406 0.116149902
vt 0.83984375 0.138061523
vt 0.861816406 0.159790039
vt 0.764160156 0.0165710449
vt 0.79296875 0.0165710449
vt 0.79296875 0.0020866394
vt 0.764160156 0.0020866394
vt 0.815917969 0.0020866394
vt 0.79296875 0.0020866394
vt 0.79296875 0.0165710449
vt 0.815917969 0.0165710449
vt 0.754882812 0.0020866394
vt 0.731445312 0.0020866394
vt 0.731445312 0.0165710449
vt 0.754394531 0.0165710449
vt 0.754394531 0.0165710449
vt 0.783691406 0.0165710449
vt 0.783691406 0.0020866394
vt 0.754882812 0.0020866394
vt 0.815917969 0.0020866394
vt 0.783691406 0.0020866394
vt 0.783691406 0.0165710449
vt 0.815917969 0.0165710449
vt 0.764160156 0.0020866394
vt 0.731445312 0.0020866394
vt 0.731445312 0.0165710449
vt 0.764160156 0.0165710449
vt 0.764160156 0.0165710449
vt 0.777832031 0.0165710449
vt 0.777832031 0.0020866394
vt 0.764160156 0.0020866394
vt 0.791015625 0.0020866394
vt 0.777832031 0.0020866394
vt 0.777832031 0.0165710449
vt 0.791015625 0.0165710449
vt 0.764160156 0.0020866394
vt 0.750488281 0.0020866394
vt 0.750976562 0.0165710449
vt 0.764160156 0.0165710449
vt 0.764160156 0.0165710449
vt 0.777832031 0.0165710449
vt 0.77734375 0.0020866394
vt 0.764160156 0.0020866394
vt 0.791015625 0.0020866394
vt 0.77734375 0.0020866394
vt 0.777832031 0.0165710449
vt 0.791015625 0.0165710449
vt 0.764160156 0.0020866394
vt 0.750976562 0.0020866394
vt 0.750976562 0.0165710449
vt 0.764160156 0.0165710449
vt 0.8828125 0.00387763977
vt 0.899414062 0.00387763977
vt 0.897460938 0.00111579895
vt 0.884277344 0.00111579895
vt 0.900878906 0.00111579895
vt 0.899414062 0.00387763977
vt 0.916015625 0.00387763977
vt 0.9140625 0.00111579895
vt 0.868164062 0.00111579895
vt 0.866210938 0.00387763977
vt 0.8828125 0.00387763977
vt 0.881347656 0.00111579895
vt 0.8828125 0.00387763977
vt 0.899414062 0.00387763977
vt 0.897949219 0.00111579895
vt 0.884277344 0.00111579895
vt 0.900878906 0.00111579895
vt 0.899414062 0.00387763977
vt 0.916015625 0.00387763977
vt 0.9140625 0.00111579895
vt 0.868164062 0.00111579895
vt 0.866210938 0.00387763977
vt 0.8828125 0.00387763977
vt 0.881347656 0.00111579895
vt 0.899414062 0.00803375244
vt 0.899414062 0.00387763977
vt 0.8828125 0.00387763977
vt 0.8828125 0.00803375244
vt 0.899414062 0.00387763977
vt 0.899414062 0.00803375244
vt 0.916015625 0.00803375244
vt 0.916015625 0.00387763977
vt 0.866210938 0.00387763977
vt 0.866210938 0.00803375244
vt 0.8828125 0.00803375244
vt 0.8828125 0.00387763977
vt 0.899414062 0.00803375244
vt 0.899414062 0.00387763977
vt 0.8828125 0.00387763977
vt 0.8828125 0.00803375244
vt 0.899414062 0.00387763977
vt 0.899414062 0.00803375244
vt 0.916015625 0.00803375244
vt 0.916015625 0.00387763977
vt 0.866210938 0.00387763977
vt 0.866210938 0.00802612305
vt 0.8828125 0.00803375244
vt 0.8828125 0.00387763977
vt 0.768066406 0.00817108154
vt 0.784179688 0.00817108154
vt 0.783691406 0.00219917297
vt 0.768066406 0.00219917297
vt 0.754394531 0.00817108154
vt 0.768066406 0.00817108154
vt 0.768066406 0.00219917297
vt 0.754882812 0.00219917297
vt 0.784179688 0.00817108154
vt 0.797363281 0.00817108154
vt 0.796875 0.00219917297
vt 0.783691406 0.00219917297
vt 0.768066406 0.00817108154
vt 0.784179688 0.00817108154
vt 0.783691406 0.00219917297
vt 0.768066406 0.00219917297
vt 0.754394531 0.00817108154
vt 0.768066406 0.00817108154
vt 0.768066406 0.00219917297
vt 0.754882812 0.00219917297
vt 0.784179688 0.00817108154
vt 0.797363281 0.00817108154
vt 0.796875 0.00219917297
vt 0.783691406 0.00219917297
vt 0.706054688 0.163574219
vt 0.716796875 0.163574219
vt 0.716796875 0.00229263306
vt 0.706054688 0.00229263306
vt 0.716796875 0.00229263306
vt 0.716796875 0.163574219
vt 0.726074219 0.163574219
vt 0.726074219 0.00229263306
vt 0.66796875 0.00229263306
vt 0.66796875 0.163574219
vt 0.677246094 0.163574219
vt 0.677246094 0.00229263306
vt 0.677246094 0.163574219
vt 0.6875 0.163574219
vt 0.6875 0.00229263306
vt 0.677246094 0.00229263306
vt 0.6875 0.00229263306
vt 0.6875 0.163574219
vt 0.696777344 0.163574219
vt 0.696777344 0.00229263306
vt 0.696777344 0.00229263306
vt 0.696777344 0.163574219
vt 0.706054688 0.163574219
vt 0.706054688 0.00229263306
vt 0.900878906 0.00387763977
vt 0.911132812 0.00387763977
vt 0.91015625 0.00111579895
vt 0.90234375 0.00111579895
vt 0.913085938 0.00111579895
vt 0.911132812 0.00387763977
vt 0.919921875 0.00387763977
vt 0.919433594 0.00111579895
vt 0.862792969 0.00111579895
vt 0.862304688 0.00387763977
vt 0.871582031 0.00387763977
vt 0.869628906 0.00111579895
vt 0.871582031 0.00387763977
vt 0.881835938 0.00387763977
vt 0.880371094 0.00111579895
vt 0.872558594 0.00111579895
vt 0.8828125 0.00111579895
vt 0.881835938 0.00387763977
vt 0.891113281 0.00387763977
vt 0.890136719 0.00111579895
vt 0.892578125 0.00111579895
vt 0.891113281 0.00387763977
vt 0.900878906 0.00387763977
vt 0.899902344 0.00111579895
vt 0.900390625 0.0211334229
vt 0.910644531 0.0211334229
vt 0.911132812 0.00387763977
vt 0.900878906 0.00387763977
vt 0.911132812 0.00387763977
vt 0.910644531 0.0211334229
vt 0.919433594 0.0211334229
vt 0.919921875 0.00387763977
vt 0.862304688 0.00387763977
vt 0.862792969 0.0211334229
vt 0.871582031 0.0211334229
vt 0.871582031 0.00387763977
vt 0.871582031 0.0211334229
vt 0.881835938 0.0211334229
vt 0.881835938 0.00387763977
vt 0.871582031 0.00387763977
vt 0.881835938 0.00387763977
vt 0.881835938 0.0211334229
vt 0.891113281 0.0211334229
vt 0.891113281 0.00387763977
vt 0.891113281 0.00387763977
vt 0.891113281 0.0211334229
vt 0.900390625 0.0211334229
vt 0.900878906 0.00387763977
vt 0.706054688 0.163574219
vt 0.716796875 0.163574219
vt 0.716796875 0.00229263306
vt 0.706054688 0.00229263306
vt 0.716796875 0.00229263306
vt 0.716796875 0.163574219
vt 0.726074219 0.163574219
vt 0.726074219 0.00229263306
vt 0.66796875 0.00229263306
vt 0.66796875 0.163574219
vt 0.677246094 0.163574219
vt 0.677246094 0.00229263306
vt 0.677246094 0.163574219
vt 0.6875 0.163574219
vt 0.6875 0.00229263306
vt 0.677246094 0.00229263306
vt 0.6875 0.00229263306
vt 0.6875 0.163574219
vt 0.696777344 0.163574219
vt 0.696777344 0.00229263306
vt 0.696777344 0.00229263306
vt 0.696777344 0.163574219
vt 0.706054688 0.163574219
vt 0.706054688 0.00229263306
vt 0.900390625 0.00387763977
vt 0.910644531 0.00387763977
vt 0.909667969 0.00111579895
vt 0.901855469 0.00111579895
vt 0.912109375 0.00111579895
vt 0.910644531 0.00387763977
vt 0.919433594 0.00387763977
vt 0.918945312 0.00111579895
vt 0.864257812 0.00111579895
vt 0.863769531 0.00387763977
vt 0.872558594 0.00387763977
vt 0.870605469 0.00111579895
vt 0.872558594 0.00387763977
vt 0.882324219 0.00387763977
vt 0.880859375 0.00111579895
vt 0.873046875 0.00111579895
vt 0.883300781 0.00111579895
vt 0.882324219 0.00387763977
vt 0.891601562 0.00387763977
vt 0.890136719 0.00111579895
vt 0.892578125 0.00111579895
vt 0.891601562 0.00387763977
vt 0.900390625 0.00387763977
vt 0.899414062 0.00111579895
vt 0.900390625 0.0210266113
vt 0.91015625 0.0210266113
vt 0.910644531 0.00387763977
vt 0.900390625 0.00387763977
vt 0.910644531 0.00387763977
vt 0.91015625 0.0210266113
vt 0.918945312 0.0210266113
vt 0.919433594 0.00387763977
vt 0.863769531 0.00387763977
vt 0.863769531 0.0210266113
vt 0.872070312 0.0210266113
vt 0.872558594 0.00387763977
vt 0.872070312 0.0210266113
vt 0.882324219 0.0210266113
vt 0.882324219 0.00387763977
vt 0.872558594 0.00387763977
vt 0.882324219 0.00387763977
vt 0.882324219 0.0210266113
vt 0.891113281 0.0210266113
vt 0.891601562 0.00387763977
vt 0.891601562 0.00387763977
vt 0.891113281 0.0210266113
vt 0.900390625 0.0210266113
vt 0.900390625 0.00387763977
vt 0.758789062 0.00205230713
vt 0.758789062 0.00817108154
vt 0.789550781 0.00817108154
vt 0.789550781 0.00205230713
vt 0.758789062 0.00817108154
vt 0.758789062 0.00205230713
vt 0.731445312 0.00205230713
vt 0.731445312 0.00817108154
vt 0.816894531 0.00817108154
vt 0.816894531 0.00205230713
vt 0.789550781 0.00205230713
vt 0.789550781 0.00817108154
vt 0.758789062 0.00205230713
vt 0.758789062 0.00817108154
vt 0.789550781 0.00817108154
vt 0.789550781 0.00205230713
vt 0.758789062 0.00817108154
vt 0.758789062 0.00205230713
vt 0.731445312 0.00205230713
vt 0.731445312 0.00817108154
vt 0.816894531 0.00817108154
vt 0.816894531 0.00205230713
vt 0.789550781 0.00205230713
vt 0.789550781 0.00817108154
vt 0.916015625 0.0871582031
vt 0.921875 0.0816650391
vt 0.921875 0.0427246094
vt 0.916015625 0.0372924805
vt 0.916015625 0.0204315186
vt 0.910644531 0.0255126953
vt 0.910644531 0.091003418
vt 0.916015625 0.0973510742
vt 0.916015625 0.0926513672
vt 0.921875 0.0858154297
vt 0.921875 0.0309448242
vt 0.916015625 0.0240936279
vt 0.916015625 0.0204315186
vt 0.910644531 0.0267944336
vt 0.910644531 0.0922851562
vt 0.916015625 0.0973510742
vt 0.916015625 0.0306854248
vt 0.91015625 0.0367126465
vt 0.91015625 0.0799560547
vt 0.916015625 0.0859985352
vt 0.916015625 0.0973510742
vt 0.921875 0.0922851562
vt 0.921875 0.0267944336
vt 0.916015625 0.0204315186
vt 0.916015625 0.0204620361
vt 0.91015625 0.0280303955
vt 0.91015625 0.0886230469
vt 0.916015625 0.0961914062
vt 0.916015625 0.0973510742
vt 0.921875 0.091003418
vt 0.921875 0.0255126953
vt 0.916015625 0.0204315186
vt 0.916015625 0.0926513672
vt 0.921875 0.0858154297
vt 0.921875 0.0309448242
vt 0.916015625 0.0240936279
vt 0.916015625 0.0204315186
vt 0.910644531 0.0267944336
vt 0.910644531 0.0922851562
vt 0.916015625 0.0973510742
vt 0.916015625 0.0871582031
vt 0.921875 0.0816650391
vt 0.921875 0.0427246094
vt 0.916015625 0.0372924805
vt 0.916015625 0.0973510742
vt 0.921875 0.0922851562
vt 0.921875 0.0267944336
vt 0.916015625 0.0204315186
vt 0.916015625 0.0306854248
vt 0.91015625 0.0367126465
vt 0.91015625 0.0799560547
vt 0.916015625 0.0859985352
vt 0.916015625 0.0973510742
vt 0.921875 0.0922851562
vt 0.921875 0.0267944336
vt 0.916015625 0.0204315186
vt 0.916015625 0.0204620361
vt 0.91015625 0.0280303955
vt 0.91015625 0.0886230469
vt 0.916015625 0.0961914062
vt 0.916015625 0.0204315186
vt 0.910644531 0.0267944336
vt 0.910644531 0.0922851562
vt 0.916015625 0.0973510742
vt 0.921875 0.0816650391
vt 0.927734375 0.08203125
vt 0.927734375 0.0423583984
vt 0.921875 0.0427246094
vt 0.910644531 0.0255126953
vt 0.905273438 0.0255126953
vt 0.905273438 0.091003418
vt 0.910644531 0.091003418
vt 0.921875 0.0858154297
vt 0.927734375 0.0861816406
vt 0.927734375 0.0305786133
vt 0.921875 0.0309448242
vt 0.910644531 0.0267944336
vt 0.905273438 0.0267944336
vt 0.905273438 0.0922851562
vt 0.910644531 0.0922851562
vt 0.91015625 0.0367126465
vt 0.904785156 0.036315918
vt 0.904785156 0.0803222656
vt 0.91015625 0.0799560547
vt 0.921875 0.0922851562
vt 0.927246094 0.0922851562
vt 0.927246094 0.0267944336
vt 0.921875 0.0267944336
vt 0.91015625 0.0280303955
vt 0.904785156 0.0276184082
vt 0.904785156 0.089050293
vt 0.91015625 0.0886230469
vt 0.921875 0.091003418
vt 0.927246094 0.091003418
vt 0.927246094 0.0255126953
vt 0.921875 0.0255126953
vt 0.921875 0.0858154297
vt 0.927734375 0.0861816406
vt 0.927734375 0.0305786133
vt 0.921875 0.0309448242
vt 0.910644531 0.0267944336
vt 0.905273438 0.0267944336
vt 0.905273438 0.0922851562
vt 0.910644531 0.0922851562
vt 0.921875 0.0816650391
vt 0.927734375 0.08203125
vt 0.927734375 0.0423583984
vt 0.921875 0.0427246094
vt 0.921875 0.0922851562
vt 0.927246094 0.0922851562
vt 0.927246094 0.0268096924
vt 0.921875 0.0267944336
vt 0.91015625 0.0367126465
vt 0.904785156 0.036315918
vt 0.904785156 0.0803222656
vt 0.91015625 0.0799560547
vt 0.921875 0.0922851562
vt 0.927246094 0.0922851562
vt 0.927246094 0.0268096924
vt 0.921875 0.0267944336
vt 0.91015625 0.0280303955
vt 0.904785156 0.0276184082
vt 0.904785156 0.089050293
vt 0.91015625 0.0886230469
vt 0.910644531 0.0267944336
vt 0.905273438 0.0267944336
vt 0.905273438 0.0922851562
vt 0.910644531 0.0922851562
vt 0.872558594 0.0326538086
vt 0.872558594 0.0241241455
vt 0.864257812 0.0241241455
vt 0.864257812 0.032623291
vt 0.857421875 0.0372924805
vt 0.857421875 0.0194549561
vt 0.842285156 0.0378112793
vt 0.849609375 0.0378112793
vt 0.849609375 0.0197143555
vt 0.842285156 0.0197143555
vt 0.842285156 0.0374145508
vt 0.849609375 0.0374145508
vt 0.849609375 0.0193328857
vt 0.842285156 0.0193328857
vt 0.842285156 0.0375671387
vt 0.849609375 0.0375671387
vt 0.849609375 0.0194854736
vt 0.842285156 0.0194854736
vt 0.842285156 0.0193328857
vt 0.849609375 0.0193328857
vt 0.849609375 0.0374145508
vt 0.842285156 0.0374145508
vt 0.849609375 0.0378112793
vt 0.852539062 0.0406494141
vt 0.852539062 0.0168762207
vt 0.849609375 0.0197143555
vt 0.849609375 0.0374145508
vt 0.852539062 0.0402526855
vt 0.852539062 0.016494751
vt 0.849609375 0.0193328857
vt 0.849609375 0.0375671387
vt 0.852539062 0.0404052734
vt 0.852539062 0.0166473389
vt 0.849609375 0.0194854736
vt 0.849609375 0.0193328857
vt 0.852539062 0.016494751
vt 0.852539062 0.0402526855
vt 0.849609375 0.0374145508
vt 0.852539062 0.0406494141
vt 0.854492188 0.0406494141
vt 0.854492188 0.0168762207
vt 0.852539062 0.0168762207
vt 0.852539062 0.0402526855
vt 0.854492188 0.0402526855
vt 0.854492188 0.016494751
vt 0.852539062 0.016494751
vt 0.852539062 0.0404052734
vt 0.854492188 0.0404052734
vt 0.854492188 0.0166473389
vt 0.852539062 0.0166473389
vt 0.852539062 0.016494751
vt 0.854492188 0.016494751
vt 0.854492188 0.0402526855
vt 0.852539062 0.0402526855
vt 0.854492188 0.0406494141
vt 0.857421875 0.037689209
vt 0.857421875 0.0198364258
vt 0.854492188 0.0168762207
vt 0.854492188 0.0402526855
vt 0.857421875 0.0372924805
vt 0.857421875 0.0194549561
vt 0.854492188 0.016494751
vt 0.854492188 0.0404052734
vt 0.857421875 0.0374450684
vt 0.857421875 0.0196075439
vt 0.854492188 0.0166473389
vt 0.854492188 0.016494751
vt 0.857421875 0.0194549561
vt 0.857421875 0.0372924805
vt 0.854492188 0.0402526855
vt 0.857421875 0.037689209
vt 0.864257812 0.0330200195
vt 0.864257812 0.0245056152
vt 0.857421875 0.0198364258
vt 0.857421875 0.0374450684
vt 0.864257812 0.0327758789
vt 0.864257812 0.0242767334
vt 0.857421875 0.0196075439
vt 0.857421875 0.0194549561
vt 0.864257812 0.0241241455
vt 0.864257812 0.0326538086
vt 0.857421875 0.0372924805
vt 0.899414062 0.0914306641
vt 0.896972656 0.0914306641
vt 0.896972656 0.0213928223
vt 0.899414062 0.0213928223
vt 0.818847656 0.102111816
vt 0.818847656 0.0994262695
vt 0.889160156 0.0994262695
vt 0.889160156 0.102111816
vt 0.896972656 0.0914306641
vt 0.899414062 0.0914306641
vt 0.899414062 0.0213928223
vt 0.896972656 0.0213928223
vt 0.889160156 0.102050781
vt 0.889160156 0.0994262695
vt 0.818847656 0.0994262695
vt 0.818847656 0.102050781
vt 0.896972656 0.0914306641
vt 0.890625 0.0855102539
vt 0.890625 0.02734375
vt 0.896972656 0.0213928223
vt 0.896972656 0.0213928223
vt 0.890625 0.02734375
vt 0.890625 0.0855102539
vt 0.896972656 0.0914306641
vt 0.818847656 0.0994262695
vt 0.824707031 0.0930786133
vt 0.8828125 0.0930786133
vt 0.889160156 0.0994262695
vt 0.889160156 0.0994262695
vt 0.8828125 0.0930175781
vt 0.824707031 0.0930175781
vt 0.818847656 0.0994262695
vt 0.840820312 0.0693359375
vt 0.866699219 0.0693359375
vt 0.879394531 0.0842285156
vt 0.828613281 0.0842285156
vt 0.824707031 0.0930786133
vt 0.8828125 0.0930786133
vt 0.881835938 0.0310211182
vt 0.866699219 0.0693359375
vt 0.866699219 0.0435180664
vt 0.881835938 0.0818481445
vt 0.890625 0.0855102539
vt 0.890625 0.02734375
vt 0.828613281 0.0841674805
vt 0.879394531 0.0841674805
vt 0.866699219 0.0693359375
vt 0.840820312 0.0693359375
vt 0.866699219 0.0435180664
vt 0.840820312 0.0435180664
vt 0.881835938 0.0818481445
vt 0.881835938 0.0310211182
vt 0.890625 0.02734375
vt 0.890625 0.0855102539
vt 0.8828125 0.0930175781
vt 0.879394531 0.0841674805
vt 0.828613281 0.0841674805
vt 0.824707031 0.0930175781
vt 0.931640625 0.0981445312
vt 0.9375 0.0927124023
vt 0.931640625 0.0927124023
vt 0.9375 0.0981445312
vt 0.940917969 0.0902709961
vt 0.940917969 0.100585938
vt 0.948730469 0.0953979492
vt 0.931640625 0.0982666016
vt 0.9375 0.0928344727
vt 0.931640625 0.0928344727
vt 0.9375 0.0982666016
vt 0.940917969 0.0903930664
vt 0.940917969 0.100708008
vt 0.948730469 0.0955810547
vt 0.931640625 0.0980834961
vt 0.9375 0.0927124023
vt 0.931640625 0.0927124023
vt 0.9375 0.0980834961
vt 0.940917969 0.0902709961
vt 0.940917969 0.100585938
vt 0.948730469 0.0953979492
vt 0.931640625 0.0980834961
vt 0.9375 0.0927124023
vt 0.931640625 0.0927124023
vt 0.9375 0.0980834961
vt 0.940917969 0.0902709961
vt 0.940917969 0.100585938
vt 0.948730469 0.0953979492
vt 0.811523438 0.109436035
vt 0.811523438 0.166381836
vt 0.868164062 0.166381836
vt 0.868164062 0.109436035
vt 0.868652344 0.170410156
vt 0.868652344 0.166625977
vt 0.811035156 0.166625977
vt 0.811035156 0.170410156
vt 0.807617188 0.166625977
vt 0.811035156 0.166625977
vt 0.811035156 0.109375
vt 0.807617188 0.109375
vt 0.811035156 0.105651855
vt 0.811035156 0.109375
vt 0.868652344 0.109375
vt 0.868652344 0.105651855
vt 0.872070312 0.109375
vt 0.868652344 0.109375
vt 0.868652344 0.166625977
vt 0.872070312 0.166625977
vt 0.868164062 0.109375
vt 0.811523438 0.109375
vt 0.811523438 0.166381836
vt 0.868164062 0.166381836
vt 0.738769531 0.126220703
vt 0.739746094 0.133422852
vt 0.757324219 0.133422852
vt 0.756835938 0.126220703
vt 0.753417969 0.0186157227
vt 0.728027344 0.0186157227
vt 0.774902344 0.133422852
vt 0.756835938 0.126220703
vt 0.757324219 0.133422852
vt 0.775390625 0.126220703
vt 0.753417969 0.0186157227
vt 0.778808594 0.0186157227
vt 0.79296875 0.133422852
vt 0.775390625 0.126220703
vt 0.774902344 0.133422852
vt 0.793457031 0.126220703
vt 0.778808594 0.0186157227
vt 0.804199219 0.0186157227
vt 0.757324219 0.133422852
vt 0.738769531 0.126220703
vt 0.739746094 0.133422852
vt 0.756835938 0.126220703
vt 0.728027344 0.0186157227
vt 0.753417969 0.0186157227
vt 0.774902344 0.133422852
vt 0.756835938 0.126220703
vt 0.757324219 0.133422852
vt 0.775390625 0.126220703
vt 0.753417969 0.0186157227
vt 0.778808594 0.0186157227
vt 0.79296875 0.133422852
vt 0.775390625 0.126220703
vt 0.774902344 0.133422852
vt 0.793457031 0.126220703
vt 0.778808594 0.0186157227
vt 0.804199219 0.0186157227
vt 0.943359375 0.156982422
vt 0.908691406 0.135009766
vt 0.908691406 0.174682617
vt 0.943359375 0.113037109
vt 0.874511719 0.156982422
vt 0.908691406 0.0952148438
vt 0.874511719 0.113037109
vt 0.927246094 0.12512207
vt 0.908691406 0.135375977
vt 0.928222656 0.147094727
vt 0.908691406 0.113830566
vt 0.908691406 0.156860352
vt 0.888671875 0.123657227
vt 0.889648438 0.145629883
vt 0.908203125 0.144165039
vt 0.908691406 0.136352539
vt 0.901855469 0.140136719
vt 0.915527344 0.140014648
vt 0.901855469 0.1328125
vt 0.915527344 0.132446289
vt 0.909179688 0.128540039
vt 0.811035156 0.109375
vt 0.861816406 0.116149902
vt 0.868652344 0.109375
vt 0.817871094 0.116149902
vt 0.861816406 0.159790039
vt 0.811035156 0.166625977
vt 0.868652344 0.166625977
vt 0.817871094 0.159790039
vn -0 -0.932128906 -0.362304688
vn -0 -0.932128906 -0.362304688
vn -0 -0.932128906 -0.362304688
vn 0.362304688 -0.932128906 0
vn 0.362304688 -0.932128906 0
vn 0.362304688 -0.932128906 0
vn -0 -0.932128906 0.362304688
vn -0 -0.932128906 0.362304688
vn -0 -0.932128906 0.362304688
vn -0.362304688 -0.932128906 0
vn -0.362304688 -0.932128906 0
vn -0.362304688 -0.932128906 0
vn 0.475097656 0.126220703 -0.870605469
vn -0.475097656 0.126220703 -0.870605469
vn -0.456787109 0.320556641 -0.830078125
vn 0.456787109 0.320556641 -0.830078125
vn -0.940917969 0.339355469 -2.38418579E-07
vn -0.456787109 0.320556641 -0.830078125
vn -0.475097656 0.126220703 -0.870605469
vn -0.990722656 0.135131836 1.78813934E-07
vn -0.456787109 0.320556641 0.830078125
vn -0.940917969 0.339355469 -2.38418579E-07
vn -0.990722656 0.135131836 1.78813934E-07
vn -0.475097656 0.126220703 0.870605469
vn -0.475097656 0.126220703 0.870605469
vn 0.475097656 0.126220703 0.870605469
vn 0.456787109 0.320556641 0.830078125
vn -0.456787109 0.320556641 0.830078125
vn 0.940917969 0.339355469 0
vn 0.456787109 0.320556641 0.830078125
vn 0.475097656 0.126220703 0.870605469
vn 0.990722656 0.135131836 0
vn 0.456787109 0.320556641 -0.830078125
vn 0.940917969 0.339355469 0
vn 0.990722656 0.135131836 0
vn 0.475097656 0.126220703 -0.870605469
vn 0.475097656 0.100097656 -0.874023438
vn -0.475097656 0.100097656 -0.874023438
vn -0.4765625 0.0968017578 -0.873535156
vn 0.4765625 0.0968017578 -0.873535156
vn -0.994628906 0.103149414 -1.78813934E-07
vn -0.4765625 0.0968017578 -0.873535156
vn -0.475097656 0.100097656 -0.874023438
vn -0.994140625 0.106628418 -2.38418579E-07
vn -0.4765625 0.0968017578 0.873535156
vn -0.994628906 0.103149414 -1.78813934E-07
vn -0.994140625 0.106628418 -2.38418579E-07
vn -0.475097656 0.100097656 0.874023438
vn -0.475097656 0.100097656 0.874023438
vn 0.475097656 0.100097656 0.874023438
vn 0.4765625 0.0968017578 0.873535156
vn -0.4765625 0.0968017578 0.873535156
vn 0.994628906 0.103149414 -1.78813934E-07
vn 0.4765625 0.0968017578 0.873535156
vn 0.475097656 0.100097656 0.874023438
vn 0.994140625 0.106628418 -1.78813934E-07
vn 0.4765625 0.0968017578 -0.873535156
vn 0.994628906 0.103149414 -1.78813934E-07
vn 0.994140625 0.106628418 -1.78813934E-07
vn 0.475097656 0.100097656 -0.874023438
vn 0.114868164 -0.97265625 -0.201904297
vn -0.114868164 -0.97265625 -0.201904297
vn -0.109313965 -0.97265625 -0.205200195
vn 0.109313965 -0.97265625 -0.205200195
vn -0.109313965 -0.97265625 -0.205200195
vn -0.114868164 -0.97265625 -0.201904297
vn -0.21875 -0.975585938 0
vn -0.21875 -0.975585938 0
vn -0.21875 -0.975585938 0
vn -0.21875 -0.975585938 0
vn -0.114868164 -0.97265625 0.201904297
vn -0.109313965 -0.97265625 0.205200195
vn -0.114868164 -0.97265625 0.201904297
vn 0.114868164 -0.97265625 0.201904297
vn 0.109313965 -0.97265625 0.205200195
vn -0.109313965 -0.97265625 0.205200195
vn 0.109313965 -0.97265625 0.205200195
vn 0.114868164 -0.97265625 0.201904297
vn 0.21875 -0.975585938 0
vn 0.21875 -0.975585938 0
vn 0.21875 -0.975585938 0
vn 0.21875 -0.975585938 0
vn 0.114868164 -0.97265625 -0.201904297
vn 0.109313965 -0.97265625 -0.205200195
vn -0.478515625 0 -0.877929688
vn -0.478515625 0 -0.877929688
vn 0.478515625 0 -0.877929688
vn 0.478515625 0 -0.877929688
vn -0.478515625 0 -0.877929688
vn -0.478515625 0 -0.877929688
vn -1 0 0
vn -1 0 0
vn -1 0 0
vn -1 0 0
vn -0.478515625 0 0.877929688
vn -0.478515625 0 0.877929688
vn 0.478515625 0 0.877929688
vn 0.478515625 0 0.877929688
vn -0.478515625 0 0.877929688
vn -0.478515625 0 0.877929688
vn 0.478515625 0 0.877929688
vn 0.478515625 0 0.877929688
vn 1 0 0
vn 1 0 0
vn 1 0 0
vn 1 0 0
vn 0.478515625 0 -0.877929688
vn 0.478515625 0 -0.877929688
vn -0.446289062 0.368408203 -0.815429688
vn 0.446289062 0.368408203 -0.815429688
vn 0.4375 0.368164062 -0.8203125
vn -0.4375 0.368164062 -0.8203125
vn -0.927734375 0.373535156 2.38418579E-07
vn -0.446289062 0.368408203 -0.815429688
vn -0.4375 0.368164062 -0.8203125
vn -0.927734375 0.373535156 -1.78813934E-07
vn -0.446289062 0.368408203 0.815429688
vn -0.927734375 0.373535156 2.38418579E-07
vn -0.927734375 0.373535156 -1.78813934E-07
vn -0.4375 0.368164062 0.8203125
vn 0.446289062 0.368408203 0.815429688
vn -0.446289062 0.368408203 0.815429688
vn -0.4375 0.368164062 0.8203125
vn 0.4375 0.368164062 0.8203125
vn 0.927734375 0.373535156 -4.76837158E-07
vn 0.446289062 0.368408203 0.815429688
vn 0.4375 0.368164062 0.8203125
vn 0.927734375 0.373535156 -5.36441803E-07
vn 0.446289062 0.368408203 -0.815429688
vn 0.927734375 0.373535156 -4.76837158E-07
vn 0.927734375 0.373535156 -5.36441803E-07
vn 0.4375 0.368164062 -0.8203125
vn 0.474609375 0.0109863281 -0.880371094
vn -0.474609375 0.0109863281 -0.880371094
vn -0.474853516 0.0109863281 -0.879882812
vn 0.474853516 0.0109863281 -0.879882812
vn -0.474853516 0.0109863281 -0.879882812
vn -0.474609375 0.0109863281 -0.880371094
vn -1 0.0111618042 0
vn -1 0.0111618042 0
vn -1 0.0111618042 0
vn -1 0.0111618042 0
vn -0.474609375 0.0109863281 0.880371094
vn -0.474853516 0.0109863281 0.879882812
vn -0.474609375 0.0109863281 0.880371094
vn 0.474609375 0.0109863281 0.880371094
vn 0.474853516 0.0109863281 0.879882812
vn -0.474853516 0.0109863281 0.879882812
vn 0.474853516 0.0109863281 0.879882812
vn 0.474609375 0.0109863281 0.880371094
vn 1 0.0111618042 0
vn 1 0.0111618042 0
vn 1 0.0111618042 0
vn 1 0.0111618042 0
vn 0.474609375 0.0109863281 -0.880371094
vn 0.474853516 0.0109863281 -0.879882812
vn 0.161376953 -0.9453125 -0.283691406
vn -0.161376953 -0.9453125 -0.283691406
vn -0.151977539 -0.944824219 -0.289794922
vn 0.151977539 -0.944824219 -0.289794922
vn -0.151977539 -0.944824219 -0.289794922
vn -0.161376953 -0.9453125 -0.283691406
vn -0.322265625 -0.946777344 1.78813934E-07
vn -0.322265625 -0.946777344 0
vn -0.322265625 -0.946777344 0
vn -0.322265625 -0.946777344 1.78813934E-07
vn -0.161376953 -0.9453125 0.283691406
vn -0.151977539 -0.944824219 0.289794922
vn -0.161376953 -0.9453125 0.283691406
vn 0.161376953 -0.9453125 0.283691406
vn 0.151977539 -0.944824219 0.289794922
vn -0.151977539 -0.944824219 0.289794922
vn 0.151977539 -0.944824219 0.289794922
vn 0.161376953 -0.9453125 0.283691406
vn 0.322265625 -0.946777344 1.78813934E-07
vn 0.322265625 -0.946777344 0
vn 0.322265625 -0.946777344 0
vn 0.322265625 -0.946777344 1.78813934E-07
vn 0.161376953 -0.9453125 -0.283691406
vn 0.151977539 -0.944824219 -0.289794922
vn 0.469726562 0.121582031 -0.874511719
vn -0.469726562 0.121582031 -0.874511719
vn -0.47265625 0.121643066 -0.872558594
vn 0.47265625 0.121643066 -0.872558594
vn -0.47265625 0.121643066 -0.872558594
vn -0.469726562 0.121582031 -0.874511719
vn -0.9921875 0.123535156 2.38418579E-07
vn -0.9921875 0.123535156 3.57627869E-07
vn -0.9921875 0.123535156 3.57627869E-07
vn -0.9921875 0.123535156 2.38418579E-07
vn -0.469726562 0.121582031 0.874511719
vn -0.47265625 0.121643066 0.872558594
vn -0.469726562 0.121582031 0.874511719
vn 0.469726562 0.121582031 0.874511719
vn 0.47265625 0.121643066 0.872558594
vn -0.47265625 0.121643066 0.872558594
vn 0.47265625 0.121643066 0.872558594
vn 0.469726562 0.121582031 0.874511719
vn 0.9921875 0.123535156 -2.98023224E-07
vn 0.9921875 0.123535156 -1.78813934E-07
vn 0.9921875 0.123535156 -1.78813934E-07
vn 0.9921875 0.123535156 -2.98023224E-07
vn 0.469726562 0.121582031 -0.874511719
vn 0.47265625 0.121643066 -0.872558594
vn 0.474609375 0.010597229 -0.880371094
vn -0.474609375 0.010597229 -0.880371094
vn -0.474853516 0.010597229 -0.879882812
vn 0.474853516 0.010597229 -0.879882812
vn -0.474853516 0.010597229 -0.879882812
vn -0.474609375 0.010597229 -0.880371094
vn -1 0.0107650757 0
vn -1 0.0107650757 0
vn -1 0.0107650757 0
vn -1 0.0107650757 0
vn -0.474609375 0.010597229 0.880371094
vn -0.474853516 0.010597229 0.879882812
vn -0.474609375 0.010597229 0.880371094
vn 0.474609375 0.010597229 0.880371094
vn 0.474853516 0.010597229 0.879882812
vn -0.474853516 0.010597229 0.879882812
vn 0.474853516 0.010597229 0.879882812
vn 0.474609375 0.010597229 0.880371094
vn 1 0.0107650757 0
vn 1 0.0107650757 0
vn 1 0.0107650757 0
vn 1 0.0107650757 0
vn 0.474609375 0.010597229 -0.880371094
vn 0.474853516 0.010597229 -0.879882812
vn 0.304931641 -0.781738281 -0.543945312
vn -0.304931641 -0.781738281 -0.543945312
vn -0.291015625 -0.78125 -0.552246094
vn 0.291015625 -0.78125 -0.552246094
vn -0.291015625 -0.78125 -0.552246094
vn -0.304931641 -0.781738281 -0.543945312
vn -0.617675781 -0.786132812 2.98023224E-06
vn -0.617675781 -0.786132812 2.62260437E-06
vn -0.617675781 -0.786132812 2.62260437E-06
vn -0.617675781 -0.786132812 2.98023224E-06
vn -0.304931641 -0.781738281 0.543945312
vn -0.291015625 -0.78125 0.552246094
vn -0.304931641 -0.781738281 0.543945312
vn 0.304931641 -0.781738281 0.543945312
vn 0.291015625 -0.78125 0.552246094
vn -0.291015625 -0.78125 0.552246094
vn 0.291015625 -0.78125 0.552246094
vn 0.304931641 -0.781738281 0.543945312
vn 0.617675781 -0.786132812 -6.55651093E-07
vn 0.617675781 -0.786132812 -1.13248825E-06
vn 0.617675781 -0.786132812 -1.13248825E-06
vn 0.617675781 -0.786132812 -6.55651093E-07
vn 0.304931641 -0.781738281 -0.543945312
vn 0.291015625 -0.78125 -0.552246094
vn 0.470703125 0.106262207 -0.875976562
vn -0.470703125 0.106262207 -0.875976562
vn -0.473388672 0.106262207 -0.874511719
vn 0.473388672 0.106262207 -0.874511719
vn -0.473388672 0.106262207 -0.874511719
vn -0.470703125 0.106262207 -0.875976562
vn -0.994140625 0.107971191 0
vn -0.994140625 0.107971191 0
vn -0.994140625 0.107971191 0
vn -0.994140625 0.107971191 0
vn -0.470703125 0.106262207 0.875976562
vn -0.473388672 0.106262207 0.874511719
vn -0.470703125 0.106262207 0.875976562
vn 0.470703125 0.106262207 0.875976562
vn 0.473388672 0.106262207 0.874511719
vn -0.473388672 0.106262207 0.874511719
vn 0.473388672 0.106262207 0.874511719
vn 0.470703125 0.106262207 0.875976562
vn 0.994140625 0.107971191 -1.78813934E-07
vn 0.994140625 0.107971191 -1.1920929E-07
vn 0.994140625 0.107971191 -1.1920929E-07
vn 0.994140625 0.107971191 -1.78813934E-07
vn 0.470703125 0.106262207 -0.875976562
vn 0.473388672 0.106262207 -0.874511719
vn -0.485595703 0 -0.874023438
vn -0.485595703 0 -0.874023438
vn 0.485595703 0 -0.874023438
vn 0.485595703 0 -0.874023438
vn -0.485595703 0 -0.874023438
vn -0.485595703 0 -0.874023438
vn -1 0 0
vn -1 0 0
vn -1 0 0
vn -1 0 0
vn -0.485595703 0 0.874023438
vn -0.485595703 0 0.874023438
vn 0.485595703 0 0.874023438
vn 0.485595703 0 0.874023438
vn -0.485595703 0 0.874023438
vn -0.485595703 0 0.874023438
vn 0.485595703 0 0.874023438
vn 0.485595703 0 0.874023438
vn 1 0 0
vn 1 0 0
vn 1 0 0
vn 1 0 0
vn 0.485595703 0 -0.874023438
vn 0.485595703 0 -0.874023438
vn 1.1920929E-07 -0.11328125 0.993652344
vn 1.1920929E-07 -0.11328125 0.993652344
vn -2.38418579E-07 -0.11328125 0.993652344
vn -2.38418579E-07 -0.11328125 0.993652344
vn -2.38418579E-07 -0.11328125 0.993652344
vn -2.38418579E-07 -0.11328125 0.993652344
vn -1.78813934E-07 -0.11328125 0.993652344
vn -1.78813934E-07 -0.11328125 0.993652344
vn -1.78813934E-07 -0.11328125 0.993652344
vn -1.78813934E-07 -0.11328125 0.993652344
vn 1.1920929E-07 -0.11328125 0.993652344
vn 1.1920929E-07 -0.11328125 0.993652344
vn 1.1920929E-07 -0.11328125 0.993652344
vn 1.1920929E-07 -0.11328125 0.993652344
vn 1.1920929E-07 -0.11328125 0.993652344
vn 1.1920929E-07 -0.11328125 0.993652344
vn 0.993652344 -0.11328125 4.17232513E-07
vn 0.993652344 -0.11328125 4.17232513E-07
vn 0.993652344 -0.11328125 -4.17232513E-07
vn 0.993652344 -0.11328125 -4.17232513E-07
vn 0.993652344 -0.11328125 -4.17232513E-07
vn 0.993652344 -0.11328125 -4.17232513E-07
vn 0.993652344 -0.11328125 -4.17232513E-07
vn 0.993652344 -0.11328125 -4.17232513E-07
vn 0.993652344 -0.11328125 -4.17232513E-07
vn 0.993652344 -0.11328125 -4.17232513E-07
vn 0.993652344 -0.11328125 3.57627869E-07
vn 0.993652344 -0.11328125 3.57627869E-07
vn 0.993652344 -0.11328125 3.57627869E-07
vn 0.993652344 -0.11328125 3.57627869E-07
vn 0.993652344 -0.11328125 4.17232513E-07
vn 0.993652344 -0.11328125 4.17232513E-07
vn 1.78813934E-07 -0.11328125 -0.993652344
vn 1.78813934E-07 -0.11328125 -0.993652344
vn -1.1920929E-07 -0.11328125 -0.993652344
vn -1.1920929E-07 -0.11328125 -0.993652344
vn -1.1920929E-07 -0.11328125 -0.993652344
vn -1.1920929E-07 -0.11328125 -0.993652344
vn -1.1920929E-07 -0.11328125 -0.993652344
vn -1.1920929E-07 -0.11328125 -0.993652344
vn -1.1920929E-07 -0.11328125 -0.993652344
vn -1.1920929E-07 -0.11328125 -0.993652344
vn 2.38418579E-07 -0.11328125 -0.993652344
vn 2.38418579E-07 -0.11328125 -0.993652344
vn 2.38418579E-07 -0.11328125 -0.993652344
vn 2.38418579E-07 -0.11328125 -0.993652344
vn 1.78813934E-07 -0.11328125 -0.993652344
vn 1.78813934E-07 -0.11328125 -0.993652344
vn -0.993652344 -0.11328125 -4.17232513E-07
vn -0.993652344 -0.11328125 -4.17232513E-07
vn -0.993652344 -0.11328125 -1.13248825E-06
vn -0.993652344 -0.11328125 -1.13248825E-06
vn -0.993652344 -0.11328125 -1.13248825E-06
vn -0.993652344 -0.11328125 -1.13248825E-06
vn -0.993652344 -0.11328125 -1.01327896E-06
vn -0.993652344 -0.11328125 -1.01327896E-06
vn -0.993652344 -0.11328125 -1.01327896E-06
vn -0.993652344 -0.11328125 -1.01327896E-06
vn -0.993652344 -0.11328125 -3.57627869E-07
vn -0.993652344 -0.11328125 -3.57627869E-07
vn -0.993652344 -0.11328125 -3.57627869E-07
vn -0.993652344 -0.11328125 -3.57627869E-07
vn -0.993652344 -0.11328125 -4.17232513E-07
vn -0.993652344 -0.11328125 -4.17232513E-07
vn -0 0.994140625 0.106201172
vn -0 0.994140625 0.106201172
vn -0 0.994140625 0.106201172
vn -0 0.994140625 0.106201172
vn -0.991699219 0.118713379 -0.0498046875
vn -0.991699219 0.118713379 -0.0498046875
vn -0.991699219 0.118713379 -0.0498046875
vn -0.991699219 0.118713379 -0.0498046875
vn -0 -0.994140625 -0.106201172
vn -0 -0.994140625 -0.106201172
vn -0 -0.994140625 -0.106201172
vn -0 -0.994140625 -0.106201172
vn 0.991699219 0.118713379 -0.0498046875
vn 0.991699219 0.118713379 -0.0498046875
vn 0.991699219 0.118713379 -0.0498046875
vn 0.991699219 0.118713379 -0.0498046875
vn 0.106201172 0.994140625 0
vn 0.106201172 0.994140625 0
vn 0.106201172 0.994140625 0
vn 0.106201172 0.994140625 0
vn -0.0498046875 0.118713379 0.991699219
vn -0.0498046875 0.118713379 0.991699219
vn -0.0498046875 0.118713379 0.991699219
vn -0.0498046875 0.118713379 0.991699219
vn -0.106201172 -0.994140625 0
vn -0.106201172 -0.994140625 0
vn -0.106201172 -0.994140625 0
vn -0.106201172 -0.994140625 0
vn -0.0498046875 0.118713379 -0.991699219
vn -0.0498046875 0.118713379 -0.991699219
vn -0.0498046875 0.118713379 -0.991699219
vn -0.0498046875 0.118713379 -0.991699219
vn -0 -0.994140625 0.106201172
vn -0 -0.994140625 0.106201172
vn -0 -0.994140625 0.106201172
vn -0 -0.994140625 0.106201172
vn -0.991699219 0.118713379 0.0498046875
vn -0.991699219 0.118713379 0.0498046875
vn -0.991699219 0.118713379 0.0498046875
vn -0.991699219 0.118713379 0.0498046875
vn -0 0.994140625 -0.106201172
vn -0 0.994140625 -0.106201172
vn -0 0.994140625 -0.106201172
vn -0 0.994140625 -0.106201172
vn 0.991699219 0.118713379 0.0498046875
vn 0.991699219 0.118713379 0.0498046875
vn 0.991699219 0.118713379 0.0498046875
vn 0.991699219 0.118713379 0.0498046875
vn -0.106201172 0.994140625 0
vn -0.106201172 0.994140625 0
vn -0.106201172 0.994140625 0
vn -0.106201172 0.994140625 0
vn 0.0498046875 0.118713379 -0.991699219
vn 0.0498046875 0.118713379 -0.991699219
vn 0.0498046875 0.118713379 -0.991699219
vn 0.0498046875 0.118713379 -0.991699219
vn 0.106201172 -0.994140625 0
vn 0.106201172 -0.994140625 0
vn 0.106201172 -0.994140625 0
vn 0.106201172 -0.994140625 0
vn 0.0498046875 0.118713379 0.991699219
vn 0.0498046875 0.118713379 0.991699219
vn 0.0498046875 0.118713379 0.991699219
vn 0.0498046875 0.118713379 0.991699219
vn -0.323486328 0.889160156 0.323486328
vn -0.323486328 0.889160156 -0.323486328
vn 0.323486328 0.889160156 -0.323486328
vn 0.323486328 0.889160156 0.323486328
vn 0.719726562 0.694335938 0
vn 0.719726562 0.694335938 0
vn -0 0 1
vn -0 0 1
vn -0 0 1
vn -0 0 1
vn 1 0 0
vn 1 0 0
vn 1 0 0
vn 1 0 0
vn -0 0 -1
vn -0 0 -1
vn -0 0 -1
vn -0 0 -1
vn -1 0 0
vn -1 0 0
vn -1 0 0
vn -1 0 0
vn -0 -1 -3.21865082E-06
vn -0 -1 -3.21865082E-06
vn -0 -1 -3.21865082E-06
vn -0 -1 -3.21865082E-06
vn -0 -1 0
vn -0 -1 0
vn -0 -1 0
vn -0 -1 0
vn -0 -1 3.21865082E-06
vn -0 -1 3.21865082E-06
vn -0 -1 3.21865082E-06
vn -0 -1 3.21865082E-06
vn -0 -1 0
vn -0 -1 0
vn -0 -1 0
vn -0 -1 0
vn -0 0 1
vn -0 0 1
vn -0 0 1
vn -0 0 1
vn 1 0 0
vn 1 0 0
vn 1 0 0
vn 1 0 0
vn -0 0 -1
vn -0 0 -1
vn -0 0 -1
vn -0 0 -1
vn -1 0 0
vn -1 0 0
vn -1 0 0
vn -1 0 0
vn -0 1 3.15904617E-06
vn -0 1 3.15904617E-06
vn -0 1 3.15904617E-06
vn -0 1 3.15904617E-06
vn -0 1 0
vn -0 1 0
vn -0 1 0
vn -0 1 0
vn -0 1 -3.15904617E-06
vn -0 1 -3.15904617E-06
vn -0 1 -3.15904617E-06
vn -0 1 -3.15904617E-06
vn -0 1 0
vn -0 1 0
vn -0 1 0
vn -0 1 0
vn -0 0.694335938 0.719726562
vn -0.323486328 0.889160156 0.323486328
vn 0.323486328 0.889160156 0.323486328
vn -0 0.694335938 0.719726562
vn -0 0.694335938 -0.719726562
vn 0.323486328 0.889160156 -0.323486328
vn -0.323486328 0.889160156 -0.323486328
vn -0 0.694335938 -0.719726562
vn -0.719726562 0.694335938 0
vn -0.323486328 0.889160156 -0.323486328
vn -0.323486328 0.889160156 0.323486328
vn -0.719726562 0.694335938 0
vn -0 0 1
vn -0 0 1
vn -0 0 1
vn -0 0 1
vn 1 0 0
vn 1 0 0
vn 1 0 0
vn 1 0 0
vn -0 0 -1
vn -0 0 -1
vn -0 0 -1
vn -0 0 -1
vn -1 0 0
vn -1 0 0
vn -1 0 0
vn -1 0 0
vn -0 0.934082031 0.356689453
vn -0 0.934082031 0.356689453
vn -0 0.934082031 0.356689453
vn -0 0.934082031 0.356689453
vn -0 0.934082031 -0.356689453
vn -0 0.934082031 -0.356689453
vn -0 0.934082031 -0.356689453
vn -0 0.934082031 -0.356689453
vn 0.356689453 0.934082031 0
vn 0.356689453 0.934082031 0
vn 0.356689453 0.934082031 0
vn 0.356689453 0.934082031 0
vn -0.356689453 0.934082031 0
vn -0.356689453 0.934082031 0
vn -0.356689453 0.934082031 0
vn -0.356689453 0.934082031 0
vn 0.207641602 0.956054688 0.207641602
vn 0.207641602 0.956054688 -0.207641602
vn 0.8125 0.583007812 0
vn 0.8125 0.583007812 0
vn 0.909667969 0.415039062 0
vn 0.909667969 0.415039062 0
vn -0 0.583007812 0.8125
vn -0.207641602 0.956054688 0.207641602
vn 0.207641602 0.956054688 0.207641602
vn -0 0.583007812 0.8125
vn -0 0.415039062 0.909667969
vn -0 0.415039062 0.909667969
vn -0.8125 0.583007812 0
vn -0.8125 0.583007812 0
vn -0.207641602 0.956054688 -0.207641602
vn -0.207641602 0.956054688 0.207641602
vn 0.207641602 0.956054688 -0.207641602
vn 0.207641602 0.956054688 0.207641602
vn -0 0.583007812 -0.8125
vn -0 0.583007812 -0.8125
vn -0 0.415039062 -0.909667969
vn -0 0.415039062 -0.909667969
vn -0.909667969 0.415039062 0
vn -0.8125 0.583007812 0
vn -0.8125 0.583007812 0
vn -0.909667969 0.415039062 0
vn -0.70703125 0 0.70703125
vn 0.576171875 -0.579589844 0.576171875
vn 0.70703125 0 0.70703125
vn -0.576171875 -0.579589844 0.576171875
vn 0.689453125 0.221313477 0.689453125
vn -0.689453125 0.221313477 0.689453125
vn -0 1 0
vn 0.70703125 0 0.70703125
vn 0.576171875 -0.579589844 -0.576171875
vn 0.70703125 0 -0.70703125
vn 0.576171875 -0.579589844 0.576171875
vn 0.689453125 0.221313477 -0.689453125
vn 0.689453125 0.221313477 0.689453125
vn -0 1 0
vn 0.70703125 0 -0.70703125
vn -0.576171875 -0.579589844 -0.576171875
vn -0.70703125 0 -0.70703125
vn 0.576171875 -0.579589844 -0.576171875
vn -0.689453125 0.221313477 -0.689453125
vn 0.689453125 0.221313477 -0.689453125
vn -0 1 0
vn -0.70703125 0 -0.70703125
vn -0.576171875 -0.579589844 0.576171875
vn -0.70703125 0 0.70703125
vn -0.576171875 -0.579589844 -0.576171875
vn -0.689453125 0.221313477 0.689453125
vn -0.689453125 0.221313477 -0.689453125
vn -0 1 0
vn -0 -1 0
vn -0 -1 0
vn -0 -1 0
vn -0 -1 0
vn -0 0 -1
vn -0 0 -1
vn -0 0 -1
vn -0 0 -1
vn 1 0 0
vn 1 0 0
vn 1 0 0
vn 1 0 0
vn -0 0 1
vn -0 0 1
vn -0 0 1
vn -0 0 1
vn -1 0 0
vn -1 0 0
vn -1 0 0
vn -1 0 0
vn -0 1 0
vn -0 1 0
vn -0 1 0
vn -0 1 0
vn 0.995117188 0.0969848633 -1.78813934E-07
vn 0.994628906 0.103149414 -1.78813934E-07
vn 0.4765625 0.0968017578 -0.873535156
vn 0.477539062 0.091003418 -0.874023438
vn 0.475097656 0.126220703 -0.870605469
vn 0.990722656 0.135131836 0
vn -0.4765625 0.0968017578 -0.873535156
vn 0.477539062 0.091003418 -0.874023438
vn 0.4765625 0.0968017578 -0.873535156
vn -0.477539062 0.091003418 -0.874023438
vn 0.475097656 0.126220703 -0.870605469
vn -0.475097656 0.126220703 -0.870605469
vn -0.994628906 0.103149414 -1.78813934E-07
vn -0.477539062 0.091003418 -0.874023438
vn -0.4765625 0.0968017578 -0.873535156
vn -0.995117188 0.0969848633 -1.78813934E-07
vn -0.475097656 0.126220703 -0.870605469
vn -0.990722656 0.135131836 1.78813934E-07
vn -0.4765625 0.0968017578 0.873535156
vn -0.995117188 0.0969848633 -1.78813934E-07
vn -0.994628906 0.103149414 -1.78813934E-07
vn -0.477539062 0.091003418 0.874023438
vn -0.990722656 0.135131836 1.78813934E-07
vn -0.475097656 0.126220703 0.870605469
vn 0.4765625 0.0968017578 0.873535156
vn -0.477539062 0.091003418 0.874023438
vn -0.4765625 0.0968017578 0.873535156
vn 0.477539062 0.091003418 0.874023438
vn -0.475097656 0.126220703 0.870605469
vn 0.475097656 0.126220703 0.870605469
vn 0.994628906 0.103149414 -1.78813934E-07
vn 0.477539062 0.091003418 0.874023438
vn 0.4765625 0.0968017578 0.873535156
vn 0.995117188 0.0969848633 -1.78813934E-07
vn 0.475097656 0.126220703 0.870605469
vn 0.990722656 0.135131836 0
vn -0 1 0
vn -0 1 0
vn -0 1 0
vn -0 1 0
vn -0 1 0
vn -0 1 0
vn -0 1 0
vn -0 1 6.55651093E-07
vn -0 1 1.78813934E-07
vn -0 1 5.96046448E-07
vn -0 1 0
vn -0 1 0
vn -0 1 0
vn -0 1 0
vn 0.197509766 0.916503906 0.348388672
vn 2.98023224E-07 1 1.90734863E-06
vn 0.395507812 0.918457031 3.21865082E-06
vn -0.197509766 0.916503906 0.348388672
vn 0.197509766 0.916503906 -0.348388672
vn -0.395507812 0.918457031 3.21865082E-06
vn -0.197509766 0.916503906 -0.348388672
vn -0 -1 0
vn -0 -1 -7.33137131E-06
vn -0 -1 -7.33137131E-06
vn -0 -1 0
vn -0 -1 7.33137131E-06
vn -0 -1 7.33137131E-06
vn -0 -1 7.33137131E-06
vn -0 -1 7.33137131E-06
g Streetlight_0
f 3/3/3 2/2/2 1/1/1
f 6/6/6 5/5/5 4/4/4
f 9/9/9 8/8/8 7/7/7
f 12/12/12 11/11/11 10/10/10
f 15/15/15 14/14/14 13/13/13
f 16/16/16 15/15/15 13/13/13
f 19/19/19 18/18/18 17/17/17
f 20/20/20 19/19/19 17/17/17
f 23/23/23 22/22/22 21/21/21
f 24/24/24 23/23/23 21/21/21
f 27/27/27 26/26/26 25/25/25
f 28/28/28 27/27/27 25/25/25
f 31/31/31 30/30/30 29/29/29
f 32/32/32 31/31/31 29/29/29
f 35/35/35 34/34/34 33/33/33
f 36/36/36 35/35/35 33/33/33
f 39/39/39 38/38/38 37/37/37
f 40/40/40 39/39/39 37/37/37
f 43/43/43 42/42/42 41/41/41
f 44/44/44 43/43/43 41/41/41
f 47/47/47 46/46/46 45/45/45
f 48/48/48 47/47/47 45/45/45
f 51/51/51 50/50/50 49/49/49
f 52/52/52 51/51/51 49/49/49
f 55/55/55 54/54/54 53/53/53
f 56/56/56 55/55/55 53/53/53
f 59/59/59 58/58/58 57/57/57
f 60/60/60 59/59/59 57/57/57
f 63/63/63 62/62/62 61/61/61
f 64/64/64 63/63/63 61/61/61
f 67/67/67 66/66/66 65/65/65
f 68/68/68 67/67/67 65/65/65
f 71/71/71 70/70/70 69/69/69
f 72/72/72 71/71/71 69/69/69
f 75/75/75 74/74/74 73/73/73
f 76/76/76 75/75/75 73/73/73
f 79/79/79 78/78/78 77/77/77
f 80/80/80 79/79/79 77/77/77
f 83/83/83 82/82/82 81/81/81
f 84/84/84 83/83/83 81/81/81
f 87/87/87 86/86/86 85/85/85
f 88/88/88 87/87/87 85/85/85
f 91/91/91 90/90/90 89/89/89
f 92/92/92 91/91/91 89/89/89
f 95/95/95 94/94/94 93/93/93
f 96/96/96 95/95/95 93/93/93
f 99/99/99 98/98/98 97/97/97
f 100/100/100 99/99/99 97/97/97
f 103/103/103 102/102/102 101/101/101
f 104/104/104 103/103/103 101/101/101
f 107/107/107 106/106/106 105/105/105
f 108/108/108 107/107/107 105/105/105
f 111/111/111 110/110/110 109/109/109
f 112/112/112 111/111/111 109/109/109
f 115/115/115 114/114/114 113/113/113
f 116/116/116 115/115/115 113/113/113
f 119/119/119 118/118/118 117/117/117
f 120/120/120 119/119/119 117/117/117
f 123/123/123 122/122/122 121/121/121
f 124/124/124 123/123/123 121/121/121
f 127/127/127 126/126/126 125/125/125
f 128/128/128 127/127/127 125/125/125
f 131/131/131 130/130/130 129/129/129
f 132/132/132 131/131/131 129/129/129
f 135/135/135 134/134/134 133/133/133
f 136/136/136 135/135/135 133/133/133
f 139/139/139 138/138/138 137/137/137
f 140/140/140 139/139/139 137/137/137
f 143/143/143 142/142/142 141/141/141
f 144/144/144 143/143/143 141/141/141
f 147/147/147 146/146/146 145/145/145
f 148/148/148 147/147/147 145/145/145
f 151/151/151 150/150/150 149/149/149
f 152/152/152 151/151/151 149/149/149
f 155/155/155 154/154/154 153/153/153
f 156/156/156 155/155/155 153/153/153
f 159/159/159 158/158/158 157/157/157
f 160/160/160 159/159/159 157/157/157
f 163/163/163 162/162/162 161/161/161
f 164/164/164 163/163/163 161/161/161
f 167/167/167 166/166/166 165/165/165
f 168/168/168 167/167/167 165/165/165
f 171/171/171 170/170/170 169/169/169
f 172/172/172 171/171/171 169/169/169
f 175/175/175 174/174/174 173/173/173
f 176/176/176 175/175/175 173/173/173
f 179/179/179 178/178/178 177/177/177
f 180/180/180 179/179/179 177/177/177
f 183/183/183 182/182/182 181/181/181
f 184/184/184 183/183/183 181/181/181
f 187/187/187 186/186/186 185/185/185
f 188/188/188 187/187/187 185/185/185
f 191/191/191 190/190/190 189/189/189
f 192/192/192 191/191/191 189/189/189
f 195/195/195 194/194/194 193/193/193
f 196/196/196 195/195/195 193/193/193
f 199/199/199 198/198/198 197/197/197
f 200/200/200 199/199/199 197/197/197
f 203/203/203 202/202/202 201/201/201
f 204/204/204 203/203/203 201/201/201
f 207/207/207 206/206/206 205/205/205
f 208/208/208 207/207/207 205/205/205
f 211/211/211 210/210/210 209/209/209
f 212/212/212 211/211/211 209/209/209
f 215/215/215 214/214/214 213/213/213
f 216/216/216 215/215/215 213/213/213
f 219/219/219 218/218/218 217/217/217
f 220/220/220 219/219/219 217/217/217
f 223/223/223 222/222/222 221/221/221
f 224/224/224 223/223/223 221/221/221
f 227/227/227 226/226/226 225/225/225
f 228/228/228 227/227/227 225/225/225
f 231/231/231 230/230/230 229/229/229
f 232/232/232 231/231/231 229/229/229
f 235/235/235 234/234/234 233/233/233
f 236/236/236 235/235/235 233/233/233
f 239/239/239 238/238/238 237/237/237
f 240/240/240 239/239/239 237/237/237
f 243/243/243 242/242/242 241/241/241
f 244/244/244 243/243/243 241/241/241
f 247/247/247 246/246/246 245/245/245
f 248/248/248 247/247/247 245/245/245
f 251/251/251 250/250/250 249/249/249
f 252/252/252 251/251/251 249/249/249
f 255/255/255 254/254/254 253/253/253
f 256/256/256 255/255/255 253/253/253
f 259/259/259 258/258/258 257/257/257
f 260/260/260 259/259/259 257/257/257
f 263/263/263 262/262/262 261/261/261
f 264/264/264 263/263/263 261/261/261
f 267/267/267 266/266/266 265/265/265
f 268/268/268 267/267/267 265/265/265
f 271/271/271 270/270/270 269/269/269
f 272/272/272 271/271/271 269/269/269
f 275/275/275 274/274/274 273/273/273
f 276/276/276 275/275/275 273/273/273
f 279/279/279 278/278/278 277/277/277
f 280/280/280 279/279/279 277/277/277
f 283/283/283 282/282/282 281/281/281
f 284/284/284 283/283/283 281/281/281
f 287/287/287 286/286/286 285/285/285
f 288/288/288 287/287/287 285/285/285
f 291/291/291 290/290/290 289/289/289
f 292/292/292 291/291/291 289/289/289
f 295/295/295 294/294/294 293/293/293
f 296/296/296 295/295/295 293/293/293
f 299/299/299 298/298/298 297/297/297
f 300/300/300 299/299/299 297/297/297
f 303/303/303 302/302/302 301/301/301
f 304/304/304 303/303/303 301/301/301
f 307/307/307 306/306/306 305/305/305
f 308/308/308 307/307/307 305/305/305
f 311/311/311 310/310/310 309/309/309
f 312/312/312 311/311/311 309/309/309
f 315/315/315 314/314/314 313/313/313
f 316/316/316 315/315/315 313/313/313
f 319/319/319 318/318/318 317/317/317
f 320/320/320 319/319/319 317/317/317
f 323/323/323 322/322/322 321/321/321
f 324/324/324 323/323/323 321/321/321
f 327/327/327 326/326/326 325/325/325
f 328/328/328 327/327/327 325/325/325
f 331/331/331 330/330/330 329/329/329
f 332/332/332 331/331/331 329/329/329
f 335/335/335 334/334/334 333/333/333
f 336/336/336 335/335/335 333/333/333
f 339/339/339 338/338/338 337/337/337
f 340/340/340 339/339/339 337/337/337
f 343/343/343 342/342/342 341/341/341
f 344/344/344 343/343/343 341/341/341
f 347/347/347 346/346/346 345/345/345
f 348/348/348 347/347/347 345/345/345
f 351/351/351 350/350/350 349/349/349
f 352/352/352 351/351/351 349/349/349
f 355/355/355 354/354/354 353/353/353
f 356/356/356 355/355/355 353/353/353
f 359/359/359 358/358/358 357/357/357
f 360/360/360 359/359/359 357/357/357
f 363/363/363 362/362/362 361/361/361
f 364/364/364 363/363/363 361/361/361
f 367/367/367 366/366/366 365/365/365
f 368/368/368 367/367/367 365/365/365
f 371/371/371 370/370/370 369/369/369
f 372/372/372 371/371/371 369/369/369
f 375/375/375 374/374/374 373/373/373
f 376/376/376 375/375/375 373/373/373
f 379/379/379 378/378/378 377/377/377
f 380/380/380 379/379/379 377/377/377
f 383/383/383 382/382/382 381/381/381
f 384/384/384 383/383/383 381/381/381
f 387/387/387 386/386/386 385/385/385
f 388/388/388 387/387/387 385/385/385
f 391/391/391 390/390/390 389/389/389
f 392/392/392 391/391/391 389/389/389
f 395/395/395 394/394/394 393/393/393
f 396/396/396 395/395/395 393/393/393
f 399/399/399 398/398/398 397/397/397
f 400/400/400 399/399/399 397/397/397
f 403/403/403 402/402/402 401/401/401
f 404/404/404 403/403/403 401/401/401
f 407/407/407 406/406/406 405/405/405
f 408/408/408 407/407/407 405/405/405
f 411/411/411 410/410/410 409/409/409
f 412/412/412 411/411/411 409/409/409
f 415/415/415 414/414/414 413/413/413
f 416/416/416 415/415/415 413/413/413
f 419/419/419 418/418/418 417/417/417
f 420/420/420 419/419/419 417/417/417
f 423/423/423 422/422/422 421/421/421
f 424/424/424 423/423/423 421/421/421
f 427/427/427 426/426/426 425/425/425
f 428/428/428 427/427/427 425/425/425
f 431/431/431 430/430/430 429/429/429
f 432/432/432 431/431/431 429/429/429
f 431/431/431 432/432/432 433/433/433
f 434/434/434 431/431/431 433/433/433
f 437/437/437 436/436/436 435/435/435
f 438/438/438 437/437/437 435/435/435
f 441/441/441 440/440/440 439/439/439
f 442/442/442 441/441/441 439/439/439
f 445/445/445 444/444/444 443/443/443
f 446/446/446 445/445/445 443/443/443
f 449/449/449 448/448/448 447/447/447
f 450/450/450 449/449/449 447/447/447
f 453/453/453 452/452/452 451/451/451
f 454/454/454 453/453/453 451/451/451
f 457/457/457 456/456/456 455/455/455
f 458/458/458 457/457/457 455/455/455
f 461/461/461 460/460/460 459/459/459
f 462/462/462 461/461/461 459/459/459
f 465/465/465 464/464/464 463/463/463
f 466/466/466 465/465/465 463/463/463
f 469/469/469 468/468/468 467/467/467
f 470/470/470 469/469/469 467/467/467
f 473/473/473 472/472/472 471/471/471
f 474/474/474 473/473/473 471/471/471
f 477/477/477 476/476/476 475/475/475
f 478/478/478 477/477/477 475/475/475
f 481/481/481 480/480/480 479/479/479
f 482/482/482 481/481/481 479/479/479
f 485/485/485 484/484/484 483/483/483
f 486/486/486 485/485/485 483/483/483
f 489/489/489 488/488/488 487/487/487
f 490/490/490 489/489/489 487/487/487
f 493/493/493 492/492/492 491/491/491
f 494/494/494 493/493/493 491/491/491
f 497/497/497 496/496/496 495/495/495
f 498/498/498 497/497/497 495/495/495
f 501/501/501 500/500/500 499/499/499
f 502/502/502 501/501/501 499/499/499
f 505/505/505 504/504/504 503/503/503
f 506/506/506 505/505/505 503/503/503
f 509/509/509 508/508/508 507/507/507
f 510/510/510 509/509/509 507/507/507
f 513/513/513 512/512/512 511/511/511
f 514/514/514 513/513/513 511/511/511
f 517/517/517 516/516/516 515/515/515
f 518/518/518 517/517/517 515/515/515
f 521/521/521 520/520/520 519/519/519
f 522/522/522 521/521/521 519/519/519
f 525/525/525 524/524/524 523/523/523
f 526/526/526 525/525/525 523/523/523
f 529/529/529 528/528/528 527/527/527
f 530/530/530 529/529/529 527/527/527
f 533/533/533 532/532/532 531/531/531
f 534/534/534 533/533/533 531/531/531
f 537/537/537 536/536/536 535/535/535
f 538/538/538 537/537/537 535/535/535
f 541/541/541 540/540/540 539/539/539
f 542/542/542 541/541/541 539/539/539
f 545/545/545 544/544/544 543/543/543
f 546/546/546 545/545/545 543/543/543
f 545/545/545 546/546/546 547/547/547
f 548/548/548 545/545/545 547/547/547
f 551/551/551 550/550/550 549/549/549
f 550/550/550 552/552/552 549/549/549
f 549/549/549 552/552/552 553/553/553
f 554/554/554 549/549/549 553/553/553
f 557/557/557 556/556/556 555/555/555
f 558/558/558 557/557/557 555/555/555
f 559/559/559 557/557/557 558/558/558
f 560/560/560 559/559/559 558/558/558
f 561/561/561 557/557/557 559/559/559
f 562/562/562 561/561/561 559/559/559
f 562/562/562 563/563/563 561/561/561
f 563/563/563 564/564/564 561/561/561
f 567/567/567 566/566/566 565/565/565
f 568/568/568 567/567/567 565/565/565
f 571/571/571 570/570/570 569/569/569
f 570/570/570 572/572/572 569/569/569
f 570/570/570 573/573/573 572/572/572
f 573/573/573 574/574/574 572/572/572
f 573/573/573 575/575/575 574/574/574
f 578/578/578 577/577/577 576/576/576
f 577/577/577 579/579/579 576/576/576
f 577/577/577 580/580/580 579/579/579
f 580/580/580 581/581/581 579/579/579
f 580/580/580 582/582/582 581/581/581
f 585/585/585 584/584/584 583/583/583
f 584/584/584 586/586/586 583/583/583
f 584/584/584 587/587/587 586/586/586
f 587/587/587 588/588/588 586/586/586
f 587/587/587 589/589/589 588/588/588
f 592/592/592 591/591/591 590/590/590
f 591/591/591 593/593/593 590/590/590
f 591/591/591 594/594/594 593/593/593
f 594/594/594 595/595/595 593/593/593
f 594/594/594 596/596/596 595/595/595
f 599/599/599 598/598/598 597/597/597
f 600/600/600 599/599/599 597/597/597
f 603/603/603 602/602/602 601/601/601
f 604/604/604 603/603/603 601/601/601
f 607/607/607 606/606/606 605/605/605
f 608/608/608 607/607/607 605/605/605
f 611/611/611 610/610/610 609/609/609
f 612/612/612 611/611/611 609/609/609
f 615/615/615 614/614/614 613/613/613
f 616/616/616 615/615/615 613/613/613
f 619/619/619 618/618/618 617/617/617
f 620/620/620 619/619/619 617/617/617
f 623/623/623 622/622/622 621/621/621
f 624/624/624 623/623/623 621/621/621
f 624/624/624 621/621/621 625/625/625
f 621/621/621 626/626/626 625/625/625
f 629/629/629 628/628/628 627/627/627
f 628/628/628 630/630/630 627/627/627
f 628/628/628 631/631/631 630/630/630
f 631/631/631 632/632/632 630/630/630
f 635/635/635 634/634/634 633/633/633
f 634/634/634 636/636/636 633/633/633
f 634/634/634 637/637/637 636/636/636
f 637/637/637 638/638/638 636/636/636
f 641/641/641 640/640/640 639/639/639
f 640/640/640 642/642/642 639/639/639
f 640/640/640 643/643/643 642/642/642
f 643/643/643 644/644/644 642/642/642
f 647/647/647 646/646/646 645/645/645
f 646/646/646 648/648/648 645/645/645
f 646/646/646 649/649/649 648/648/648
f 649/649/649 650/650/650 648/648/648
f 653/653/653 652/652/652 651/651/651
f 652/652/652 654/654/654 651/651/651
f 652/652/652 655/655/655 654/654/654
f 655/655/655 656/656/656 654/654/654
f 659/659/659 658/658/658 657/657/657
f 657/657/657 658/658/658 660/660/660
f 661/661/661 658/658/658 659/659/659
f 660/660/660 658/658/658 662/662/662
f 663/663/663 658/658/658 661/661/661
f 662/662/662 658/658/658 663/663/663
f 666/666/666 665/665/665 664/664/664
f 667/667/667 664/664/664 665/665/665
f 668/668/668 665/665/665 666/666/666
f 667/667/667 665/665/665 669/669/669
f 668/668/668 670/670/670 665/665/665
f 669/669/669 665/665/665 670/670/670
f 673/673/673 672/672/672 671/671/671
f 674/674/674 671/671/671 672/672/672
f 675/675/675 672/672/672 673/673/673
f 674/674/674 672/672/672 676/676/676
f 675/675/675 677/677/677 672/672/672
f 676/676/676 672/672/672 677/677/677
f 680/680/680 679/679/679 678/678/678
f 679/679/679 681/681/681 678/678/678
f 682/682/682 679/679/679 680/680/680
f 678/678/678 681/681/681 683/683/683
f 684/684/684 682/682/682 680/680/680
f 681/681/681 685/685/685 683/683/683
f 685/685/685 682/682/682 684/684/684
f 683/683/683 685/685/685 684/684/684
