g BroomBig
v -0.0238110349 -1.03055561 -0.421310097
v -0.0671874955 -0.897112548 -0.39410612
v -0.0660546869 -0.883741736 0.423417956
v -0.0225976557 -1.0162257 0.454851061
v 0.0589379855 -0.851080239 -0.395033568
v 0.111361079 -0.981221318 -0.422304362
v 0.112574458 -0.966891468 0.453857094
v 0.0600707978 -0.837709427 0.422490537
v 0.111361079 -0.981221318 -0.422304362
v -0.0238110349 -1.03055561 -0.421310097
v -0.0225976557 -1.0162257 0.454851061
v 0.112574458 -0.966891468 0.453857094
v -0.0225976557 -1.0162257 0.454851061
v -0.0660546869 -0.883741736 0.423417956
v 0.0600707978 -0.837709427 0.422490537
v 0.112574458 -0.966891468 0.453857094
v 0.111361079 -0.981221318 -0.422304362
v 0.0589379855 -0.851080239 -0.395033568
v -0.0671874955 -0.897112548 -0.39410612
v -0.0238110349 -1.03055561 -0.421310097
v -0.0783789009 -0.903928816 -0.404191881
v -0.0957995579 -0.856212914 -0.404948115
v -0.094638668 -0.842508137 0.432995915
v -0.0772180185 -0.89022398 0.43375212
v -0.0957995579 -0.856212914 -0.404948115
v 0.0543359369 -0.801417828 -0.406051934
v 0.0554968268 -0.787713051 0.431891471
v -0.094638668 -0.842508137 0.432995915
v 0.0543359369 -0.801417828 -0.406051934
v 0.0717565939 -0.84913367 -0.4052957
v 0.0729174763 -0.835428894 0.432647705
v 0.0554968268 -0.787713051 0.431891471
v 0.0717565939 -0.84913367 -0.4052957
v -0.0783789009 -0.903928816 -0.404191881
v -0.0772180185 -0.89022398 0.43375212
v 0.0729174763 -0.835428894 0.432647705
v -0.0772180185 -0.89022398 0.43375212
v -0.094638668 -0.842508137 0.432995915
v 0.0554968268 -0.787713051 0.431891471
v 0.0729174763 -0.835428894 0.432647705
v 0.0717565939 -0.84913367 -0.4052957
v 0.0543359369 -0.801417828 -0.406051934
v -0.0957995579 -0.856212914 -0.404948115
v -0.0783789009 -0.903928816 -0.404191881
v -0.0062658689 -0.857242346 -0.0259951781
v -0.00769287115 1.00898015 -0.0255245958
v -0.0204821769 1.0089643 -0.00150176999
v -0.0190563966 -0.857258141 -0.00197082525
v -0.00598388677 -0.857254565 0.023228148
v -0.0074084471 1.008968 0.023697814
v -0.00769287115 1.00898015 -0.0255245958
v 0.0218688957 1.00900292 -0.0256948844
v 0.0349365212 1.00900698 -0.00182189932
v -0.0204821769 1.0089643 -0.00150176999
v 0.0221520998 1.00899076 0.0235278308
v -0.0074084471 1.008968 0.023697814
v 0.0218688957 1.00900292 -0.0256948844
v 0.023294678 -0.857219815 -0.0261654649
v 0.0363586433 -0.857215762 -0.00229248032
v 0.0349365212 1.00900698 -0.00182189932
v -0.00598388677 -0.857254565 0.023228148
v -0.0074084471 1.008968 0.023697814
v 0.0221520998 1.00899076 0.0235278308
v 0.0235815421 -0.857231796 0.0230578613
v 0.023294678 -0.857219815 -0.0261654649
v 0.0218688957 1.00900292 -0.0256948844
v -0.00769287115 1.00898015 -0.0255245958
v -0.0062658689 -0.857242346 -0.0259951781
v 0.0363586433 -0.857215762 -0.00229248032
v 0.0235815421 -0.857231796 0.0230578613
v 0.0221520998 1.00899076 0.0235278308
v 0.0349365212 1.00900698 -0.00182189932
vt 0.900390625 0.476318359
vt 0.892089844 0.51171875
vt 0.666503906 0.51171875
vt 0.658691406 0.476318359
vt 0.892089844 0.512695312
vt 0.900390625 0.476318359
vt 0.658691406 0.476318359
vt 0.666503906 0.512695312
vt 0.887207031 0.512695312
vt 0.887207031 0.502929688
vt 0.671386719 0.502929688
vt 0.671386719 0.512695312
vt 0.748046875 0.476318359
vt 0.748046875 0.512695312
vt 0.783203125 0.512695312
vt 0.783203125 0.476318359
vt 0.748046875 0.476318359
vt 0.748046875 0.512207031
vt 0.783203125 0.512207031
vt 0.783203125 0.476318359
vt 0.586914062 0.447021484
vt 0.586914062 0.462158203
vt 0.835449219 0.462158203
vt 0.835449219 0.447021484
vt 0.586914062 0.414794922
vt 0.586914062 0.462158203
vt 0.835449219 0.462158203
vt 0.835449219 0.414794922
vt 0.586914062 0.447265625
vt 0.586914062 0.462158203
vt 0.835449219 0.462158203
vt 0.835449219 0.447265625
vt 0.586914062 0.415039062
vt 0.586914062 0.462402344
vt 0.835449219 0.462402344
vt 0.835449219 0.415039062
vt 0.788574219 0.416992188
vt 0.788574219 0.432128906
vt 0.8359375 0.432128906
vt 0.8359375 0.416992188
vt 0.788574219 0.416503906
vt 0.788574219 0.431640625
vt 0.8359375 0.431640625
vt 0.8359375 0.416503906
vt 0.900390625 0.427734375
vt 0.506347656 0.427734375
vt 0.506347656 0.436767578
vt 0.900390625 0.436767578
vt 0.900390625 0.446044922
vt 0.506347656 0.446044922
vt 0.968261719 0.443359375
vt 0.968261719 0.427246094
vt 0.954589844 0.419433594
vt 0.955078125 0.449707031
vt 0.940429688 0.42578125
vt 0.940917969 0.442138672
vt 0.506347656 0.417724609
vt 0.900390625 0.417724609
vt 0.900390625 0.408691406
vt 0.506347656 0.408691406
vt 0.900390625 0.446044922
vt 0.506347656 0.446044922
vt 0.506347656 0.455810547
vt 0.900390625 0.455810547
vt 0.900390625 0.417724609
vt 0.506347656 0.417724609
vt 0.506347656 0.427734375
vt 0.900390625 0.427734375
vt 0.900390625 0.465332031
vt 0.900390625 0.455810547
vt 0.506347656 0.455810547
vt 0.506347656 0.465332031
vn -0.950683594 -0.310302734 0.00639343262
vn -0.950683594 -0.310302734 0.00639343262
vn -0.950683594 -0.310302734 0.00639343262
vn -0.950683594 -0.310302734 0.00639343262
vn 0.927246094 0.375 -0.00741577148
vn 0.927246094 0.375 -0.00741577148
vn 0.927246094 0.375 -0.00741577148
vn 0.927246094 0.375 -0.00741577148
vn 0.343017578 -0.939453125 0.0148849487
vn 0.343017578 -0.939453125 0.0148849487
vn 0.343017578 -0.939453125 0.0148849487
vn 0.343017578 -0.939453125 0.0148849487
vn -0.0690307617 0.208740234 0.975585938
vn -0.0690307617 0.208740234 0.975585938
vn -0.0690307617 0.208740234 0.975585938
vn -0.0690307617 0.208740234 0.975585938
vn -0.0717163086 0.176757812 -0.981445312
vn -0.0717163086 0.176757812 -0.981445312
vn -0.0717163086 0.176757812 -0.981445312
vn -0.0717163086 0.176757812 -0.981445312
vn -0.939453125 -0.342773438 0.00690841675
vn -0.939453125 -0.342773438 0.00690841675
vn -0.939453125 -0.342773438 0.00690841675
vn -0.939453125 -0.342773438 0.00690841675
vn -0.343017578 0.939453125 -0.0148849487
vn -0.343017578 0.939453125 -0.0148849487
vn -0.343017578 0.939453125 -0.0148849487
vn -0.343017578 0.939453125 -0.0148849487
vn 0.939453125 0.342773438 -0.00690841675
vn 0.939453125 0.342773438 -0.00690841675
vn 0.939453125 0.342773438 -0.00690841675
vn 0.939453125 0.342773438 -0.00690841675
vn 0.343017578 -0.939453125 0.0148849487
vn 0.343017578 -0.939453125 0.0148849487
vn 0.343017578 -0.939453125 0.0148849487
vn 0.343017578 -0.939453125 0.0148849487
vn 0.00138473511 0.0163574219 1
vn 0.00138473511 0.0163574219 1
vn 0.00138473511 0.0163574219 1
vn 0.00138473511 0.0163574219 1
vn -0.00138473511 -0.0163574219 -1
vn -0.00138473511 -0.0163574219 -1
vn -0.00138473511 -0.0163574219 -1
vn -0.00138473511 -0.0163574219 -1
vn -0.793457031 -0.000319242477 -0.608886719
vn -0.793457031 -0.000319242477 -0.608886719
vn -0.987304688 -0.000490665436 -0.158935547
vn -0.987304688 -0.000490665436 -0.158935547
vn -0.951171875 -0.000545024872 0.308105469
vn -0.951171875 -0.000545024872 0.308105469
vn -0.000501155853 1 0.000149250031
vn -0.000501155853 1 0.000149250031
vn -0.000506877899 1 0.000148057938
vn -0.000506401062 1 0.000148057938
vn -0.000511646271 1 0.000146985054
vn -0.000511646271 1 0.000146985054
vn 0.944335938 0.000544548035 -0.329101562
vn 0.944335938 0.000544548035 -0.329101562
vn 0.987304688 0.000481128693 0.158813477
vn 0.987304688 0.000481128693 0.158813477
vn -0.158935547 -0.000198841095 0.987304688
vn -0.158935547 -0.000198841095 0.987304688
vn -0.158935547 -0.000198841095 0.987304688
vn -0.158935547 -0.000198841095 0.987304688
vn 0.158935547 0.000226020813 -0.987304688
vn 0.158935547 0.000226020813 -0.987304688
vn 0.158935547 0.000226020813 -0.987304688
vn 0.158935547 0.000226020813 -0.987304688
vn 0.987304688 0.000481128693 0.158813477
vn 0.806640625 0.000311851501 0.590820312
vn 0.806640625 0.000311851501 0.590820312
vn 0.987304688 0.000481128693 0.158813477
g BroomBig_0
f 3/3/3 2/2/2 1/1/1
f 4/4/4 3/3/3 1/1/1
f 7/7/7 6/6/6 5/5/5
f 8/8/8 7/7/7 5/5/5
f 11/11/11 10/10/10 9/9/9
f 12/12/12 11/11/11 9/9/9
f 15/15/15 14/14/14 13/13/13
f 16/16/16 15/15/15 13/13/13
f 19/19/19 18/18/18 17/17/17
f 20/20/20 19/19/19 17/17/17
f 23/23/23 22/22/22 21/21/21
f 24/24/24 23/23/23 21/21/21
f 27/27/27 26/26/26 25/25/25
f 28/28/28 27/27/27 25/25/25
f 31/31/31 30/30/30 29/29/29
f 32/32/32 31/31/31 29/29/29
f 35/35/35 34/34/34 33/33/33
f 36/36/36 35/35/35 33/33/33
f 39/39/39 38/38/38 37/37/37
f 40/40/40 39/39/39 37/37/37
f 43/43/43 42/42/42 41/41/41
f 44/44/44 43/43/43 41/41/41
f 47/47/47 46/46/46 45/45/45
f 48/48/48 47/47/47 45/45/45
f 48/48/48 49/49/49 47/47/47
f 49/49/49 50/50/50 47/47/47
f 53/53/53 52/52/52 51/51/51
f 54/54/54 53/53/53 51/51/51
f 55/55/55 53/53/53 54/54/54
f 56/56/56 55/55/55 54/54/54
f 59/59/59 58/58/58 57/57/57
f 60/60/60 59/59/59 57/57/57
f 63/63/63 62/62/62 61/61/61
f 64/64/64 63/63/63 61/61/61
f 67/67/67 66/66/66 65/65/65
f 68/68/68 67/67/67 65/65/65
f 71/71/71 70/70/70 69/69/69
f 72/72/72 71/71/71 69/69/69
