g RodRoom_Hallway_Floor
v 5.7108531 7.8317275 18.5730896
v 5.7108531 7.8317275 19.4478645
v 4.83607817 7.8317275 18.5730896
v -7.4107585 7.8317275 22.0721874
v -8.28553486 7.83172846 22.9469624
v -9.16030884 7.83172846 22.0721874
v 5.7108531 7.8317275 21.1974125
v 5.7108531 7.8317275 22.9469604
v 4.83607817 7.8317275 22.0721874
v 5.7108531 7.8317275 22.9469604
v 5.71085548 7.83172846 24.6965084
v 4.83608007 7.8317275 23.8217354
v 5.7108531 7.8317275 19.4478645
v 5.7108531 7.8317275 21.1974125
v 4.83607817 7.8317275 20.3226395
v -3.91166306 7.83172894 20.3226395
v -4.78643703 7.83172894 21.1974125
v -5.66121149 7.83172894 20.3226395
v -1.28734088 7.83172894 19.4478626
v -2.16211486 7.83172894 18.5730896
v -0.412566662 7.83172894 18.5730896
v 1.33698165 7.83172894 18.5730896
v 0.462207466 7.83172894 19.4478626
v -0.412566662 7.83172894 18.5730896
v 3.96130419 7.83172894 19.4478626
v 3.08652997 7.83172894 18.5730896
v 4.83607817 7.8317275 18.5730896
v 3.08652997 7.83172894 18.5730896
v 2.21175528 7.83172894 19.4478626
v 1.33698165 7.83172894 18.5730896
v -12.6594067 7.8317275 22.0721874
v -13.5341816 7.83172846 22.9469624
v -14.4089556 7.83172846 22.0721874
v -9.16030884 7.83172846 22.0721874
v -10.0350838 7.83172894 22.9469604
v -10.9098577 7.83172894 22.0721874
v -10.9098577 7.83172894 22.0721874
v -11.7846308 7.8317275 22.9469604
v -12.6594067 7.8317275 22.0721874
v -17.9080505 7.8317275 22.0721874
v -18.7828274 7.83172846 22.9469624
v -19.6576023 7.83172846 22.0721874
v -14.4089556 7.83172846 22.0721874
v -15.2837305 7.83172894 22.9469604
v -16.1585026 7.83172894 22.0721874
v -16.1585026 7.83172894 22.0721874
v -17.0332775 7.8317275 22.9469604
v -17.9080505 7.8317275 22.0721874
v 5.71085548 7.83172846 24.6965084
v 5.71085548 7.83172846 25.0391884
v 5.36791372 7.83172846 25.0394497
v 3.96130633 7.8317275 24.6965084
v 4.30505419 7.8317275 25.0402565
v 3.61703539 7.8317275 25.0407791
v 2.21175766 7.8317275 24.6965103
v 2.5568347 7.8317275 25.0415859
v 1.86615813 7.8317275 25.0421104
v 0.462208629 7.8317275 24.6965103
v 0.808612823 7.8317275 25.0429153
v 0.115275227 7.8317275 25.0434437
v -1.28733993 7.8317275 24.6965084
v -0.939602733 7.8317275 25.0442467
v -1.63560486 7.8317275 25.044775
v -3.03688836 7.8317275 24.6965084
v -2.68782282 7.83172703 25.0455723
v -3.38648605 7.8317275 25.0461082
v -4.78643656 7.8317275 24.6965084
v -4.43604279 7.83172703 25.0469017
v -5.13736296 7.8317275 25.0474358
v -6.53598452 7.8317275 24.6965084
v -6.18425989 7.83172846 25.0482311
v -6.88824463 7.83172846 25.048769
v -8.28553391 7.83172846 24.6965084
v -7.93248129 7.83172846 25.0495605
v -8.63912487 7.83172846 25.0501003
v -10.0350838 7.83172894 24.6965084
v -9.6807003 7.83172894 25.0508938
v -10.3900061 7.83172846 25.0514297
v -13.5341806 7.83172846 24.6965084
v -13.1771412 7.83172846 25.0535488
v -13.8917627 7.8317275 25.0540905
v -15.2837305 7.83172894 24.6965084
v -14.9253588 7.83172846 25.0548801
v -15.6426449 7.83172846 25.0554237
v -18.7828274 7.83172846 24.6965084
v -18.4217968 7.83172846 25.057539
v -19.1444035 7.83172846 25.0580845
v -20.5323753 7.83172894 22.9469604
v -20.9142475 7.83172941 23.3288326
v -20.9281311 7.83172894 22.5512047
v -5.66121149 7.83172894 20.3226395
v -6.53598499 7.8317275 21.1974125
v -6.53598499 7.83172703 20.386528
v -2.16211486 7.83172894 18.5730896
v -3.03688955 7.83172894 19.4478626
v -3.02619767 7.83172846 18.5730896
v -12.1408815 7.83172703 25.0527611
v -11.7846308 7.8317275 24.6965103
v -11.4289207 7.8317275 25.0522213
v -17.3935204 7.8317275 25.0567551
v -17.0332756 7.8317275 24.6965103
v -16.6735783 7.8317275 25.0562077
v -20.8963203 7.83172894 24.3325634
v -20.5323753 7.83172894 24.6965084
v -20.8835526 7.83172894 25.0476856
v -19.6576023 7.83172846 23.8217373
v -20.5323753 7.83172894 22.9469604
v -19.6576023 7.83172846 22.0721874
v -18.7828274 7.83172846 22.9469624
v -20.9142475 7.83172941 23.3288326
v -20.5323753 7.83172894 22.9469604
v -19.6576023 7.83172846 23.8217373
v -20.8963203 7.83172894 24.3325634
v -20.5323753 7.83172894 24.6965084
v -19.6576023 7.83172846 22.0721874
v -20.5323753 7.83172894 22.9469604
v -20.9281311 7.83172894 22.5512047
v -20.9366894 7.83172894 22.0721874
v -20.5323753 7.83172894 24.6965084
v -19.6576023 7.83172846 23.8217373
v -18.7828274 7.83172846 24.6965084
v -20.1700172 7.83172846 25.0588665
v -19.1444035 7.83172846 25.0580845
v 3.96130633 7.8317275 24.6965084
v 4.83608007 7.8317275 23.8217354
v 5.71085548 7.83172846 24.6965084
v 4.30505419 7.8317275 25.0402565
v 5.36791372 7.83172846 25.0394497
v -4.78643703 7.83172894 22.9469604
v -3.91166282 7.8317275 23.8217335
v -4.78643656 7.8317275 24.6965084
v -5.66121101 7.8317275 23.8217335
v -3.03688908 7.83172894 21.1974125
v -3.91166306 7.83172894 20.3226395
v -3.03688955 7.83172894 19.4478626
v -2.16211534 7.83172894 20.3226395
v -3.91166306 7.83172894 22.0721874
v -4.78643703 7.83172894 21.1974125
v -3.91166306 7.83172894 20.3226395
v -3.03688908 7.83172894 21.1974125
v -4.78643703 7.83172894 21.1974125
v -3.91166306 7.83172894 22.0721874
v -4.78643703 7.83172894 22.9469604
v -5.66121149 7.83172894 22.0721874
v -4.78643703 7.83172894 21.1974125
v -5.66121149 7.83172894 22.0721874
v -6.53598499 7.8317275 21.1974125
v -5.66121149 7.83172894 20.3226395
v 4.83608007 7.8317275 23.8217354
v 3.9613061 7.8317275 22.9469604
v 4.83607817 7.8317275 22.0721874
v 5.7108531 7.8317275 22.9469604
v 4.83607817 7.8317275 22.0721874
v 3.9613061 7.8317275 22.9469604
v 3.08653164 7.8317275 22.0721874
v 3.9613049 7.83172894 21.1974125
v 2.21175742 7.8317275 22.9469624
v 1.33698273 7.8317275 22.0721874
v 2.21175647 7.83172894 21.1974125
v 3.08653164 7.8317275 22.0721874
v 3.08652997 7.83172894 20.3226395
v 3.9613049 7.83172894 21.1974125
v 3.08653164 7.8317275 22.0721874
v 2.21175647 7.83172894 21.1974125
v -2.16211486 7.83172894 18.5730896
v -1.28734088 7.83172894 19.4478626
v -2.16211534 7.83172894 20.3226395
v -3.03688955 7.83172894 19.4478626
v 5.7108531 7.8317275 21.1974125
v 4.83607817 7.8317275 22.0721874
v 3.9613049 7.83172894 21.1974125
v 4.83607817 7.8317275 20.3226395
v 3.96130419 7.83172894 19.4478626
v 4.83607817 7.8317275 20.3226395
v 3.9613049 7.83172894 21.1974125
v 3.08652997 7.83172894 20.3226395
v 4.83607817 7.8317275 20.3226395
v 3.96130419 7.83172894 19.4478626
v 4.83607817 7.8317275 18.5730896
v 5.7108531 7.8317275 19.4478645
v -2.16211462 7.8317275 23.8217335
v -3.03688836 7.8317275 24.6965084
v -3.91166282 7.8317275 23.8217335
v -3.03688908 7.83172894 22.9469604
v -1.28734064 7.8317275 22.9469604
v -2.16211462 7.8317275 23.8217335
v -3.03688908 7.83172894 22.9469604
v -2.16211486 7.83172894 22.0721874
v -0.4125669 7.8317275 22.0721874
v -1.28734064 7.8317275 22.9469604
v -2.16211486 7.83172894 22.0721874
v -1.28734088 7.83172894 21.1974125
v -3.91166306 7.83172894 22.0721874
v -3.03688908 7.83172894 22.9469604
v -3.91166282 7.8317275 23.8217335
v -4.78643703 7.83172894 22.9469604
v -3.03688908 7.83172894 22.9469604
v -3.91166306 7.83172894 22.0721874
v -3.03688908 7.83172894 21.1974125
v -2.16211486 7.83172894 22.0721874
v -2.16211534 7.83172894 20.3226395
v -1.28734088 7.83172894 21.1974125
v -2.16211486 7.83172894 22.0721874
v -3.03688908 7.83172894 21.1974125
v 2.21175647 7.83172894 21.1974125
v 1.33698165 7.83172894 20.3226395
v 2.21175528 7.83172894 19.4478626
v 3.08652997 7.83172894 20.3226395
v 1.33698273 7.8317275 22.0721874
v 0.462207466 7.83172894 21.1974125
v 1.33698165 7.83172894 20.3226395
v 2.21175647 7.83172894 21.1974125
v 0.462207466 7.83172894 21.1974125
v 1.33698273 7.8317275 22.0721874
v 0.462208211 7.8317275 22.9469624
v -0.4125669 7.8317275 22.0721874
v 0.462207466 7.83172894 21.1974125
v -0.4125669 7.8317275 22.0721874
v -1.28734088 7.83172894 21.1974125
v -0.412566662 7.83172894 20.3226395
v 1.33698165 7.83172894 20.3226395
v 0.462207466 7.83172894 21.1974125
v -0.412566662 7.83172894 20.3226395
v 0.462207466 7.83172894 19.4478626
v 2.21175528 7.83172894 19.4478626
v 1.33698165 7.83172894 20.3226395
v 0.462207466 7.83172894 19.4478626
v 1.33698165 7.83172894 18.5730896
v -1.28734088 7.83172894 19.4478626
v -0.412566662 7.83172894 20.3226395
v -1.28734088 7.83172894 21.1974125
v -2.16211534 7.83172894 20.3226395
v -0.412566662 7.83172894 20.3226395
v -1.28734088 7.83172894 19.4478626
v -0.412566662 7.83172894 18.5730896
v 0.462207466 7.83172894 19.4478626
v -5.66121101 7.8317275 23.8217335
v -6.53598356 7.8317275 22.9469624
v -5.66121149 7.83172894 22.0721874
v -4.78643703 7.83172894 22.9469604
v -6.53598452 7.8317275 24.6965084
v -7.41075802 7.8317275 23.8217354
v -6.53598356 7.8317275 22.9469624
v -5.66121101 7.8317275 23.8217335
v -5.66121149 7.83172894 22.0721874
v -6.53598356 7.8317275 22.9469624
v -7.4107585 7.8317275 22.0721874
v -6.53598499 7.8317275 21.1974125
v 3.08652997 7.83172894 18.5730896
v 3.96130419 7.83172894 19.4478626
v 3.08652997 7.83172894 20.3226395
v 2.21175528 7.83172894 19.4478626
v 2.21175742 7.8317275 22.9469624
v 3.08653188 7.8317275 23.8217354
v 2.21175766 7.8317275 24.6965103
v 1.33698332 7.8317275 23.8217354
v -1.28733993 7.8317275 24.6965084
v -0.412565976 7.8317275 23.8217354
v 0.462208629 7.8317275 24.6965103
v -0.939602733 7.8317275 25.0442467
v 0.115275227 7.8317275 25.0434437
v 2.21175766 7.8317275 24.6965103
v 3.08653188 7.8317275 23.8217354
v 3.96130633 7.8317275 24.6965084
v 3.61703539 7.8317275 25.0407791
v 2.5568347 7.8317275 25.0415859
v 3.9613061 7.8317275 22.9469604
v 4.83608007 7.8317275 23.8217354
v 3.96130633 7.8317275 24.6965084
v 3.08653188 7.8317275 23.8217354
v 0.462208211 7.8317275 22.9469624
v 1.33698332 7.8317275 23.8217354
v 0.462208629 7.8317275 24.6965103
v -0.412565976 7.8317275 23.8217354
v -1.28734064 7.8317275 22.9469604
v -0.412565976 7.8317275 23.8217354
v -1.28733993 7.8317275 24.6965084
v -2.16211462 7.8317275 23.8217335
v 1.33698273 7.8317275 22.0721874
v 2.21175742 7.8317275 22.9469624
v 1.33698332 7.8317275 23.8217354
v 0.462208211 7.8317275 22.9469624
v 0.462208629 7.8317275 24.6965103
v 1.33698332 7.8317275 23.8217354
v 2.21175766 7.8317275 24.6965103
v 0.808612823 7.8317275 25.0429153
v 1.86615813 7.8317275 25.0421104
v 3.08653164 7.8317275 22.0721874
v 3.9613061 7.8317275 22.9469604
v 3.08653188 7.8317275 23.8217354
v 2.21175742 7.8317275 22.9469624
v -0.4125669 7.8317275 22.0721874
v 0.462208211 7.8317275 22.9469624
v -0.412565976 7.8317275 23.8217354
v -1.28734064 7.8317275 22.9469604
v -3.03688836 7.8317275 24.6965084
v -2.16211462 7.8317275 23.8217335
v -1.28733993 7.8317275 24.6965084
v -2.68782282 7.83172703 25.0455723
v -1.63560486 7.8317275 25.044775
v -4.78643656 7.8317275 24.6965084
v -3.91166282 7.8317275 23.8217335
v -3.03688836 7.8317275 24.6965084
v -4.43604279 7.83172703 25.0469017
v -3.38648605 7.8317275 25.0461082
v -8.28553391 7.83172846 24.6965084
v -7.41075802 7.8317275 23.8217354
v -6.53598452 7.8317275 24.6965084
v -7.93248129 7.83172846 25.0495605
v -6.88824463 7.83172846 25.048769
v -7.4107585 7.8317275 22.0721874
v -6.53598356 7.8317275 22.9469624
v -7.41075802 7.8317275 23.8217354
v -8.28553486 7.83172846 22.9469624
v -6.53598452 7.8317275 24.6965084
v -5.66121101 7.8317275 23.8217335
v -4.78643656 7.8317275 24.6965084
v -6.18425989 7.83172846 25.0482311
v -5.13736296 7.8317275 25.0474358
v -8.28553486 7.83172846 22.9469624
v -7.41075802 7.8317275 23.8217354
v -8.28553391 7.83172846 24.6965084
v -9.16030884 7.83172846 23.8217373
v -13.5341816 7.83172846 22.9469624
v -12.6594057 7.8317275 23.8217354
v -13.5341806 7.83172846 24.6965084
v -14.4089546 7.83172846 23.8217373
v -9.16030884 7.83172846 23.8217373
v -10.0350838 7.83172894 22.9469604
v -9.16030884 7.83172846 22.0721874
v -8.28553486 7.83172846 22.9469624
v -10.0350838 7.83172894 22.9469604
v -9.16030884 7.83172846 23.8217373
v -10.0350838 7.83172894 24.6965084
v -10.9098577 7.83172894 23.8217354
v -10.0350838 7.83172894 22.9469604
v -10.9098577 7.83172894 23.8217354
v -11.7846308 7.8317275 22.9469604
v -10.9098577 7.83172894 22.0721874
v -10.0350838 7.83172894 24.6965084
v -9.16030884 7.83172846 23.8217373
v -8.28553391 7.83172846 24.6965084
v -9.6807003 7.83172894 25.0508938
v -8.63912487 7.83172846 25.0501003
v -10.9098577 7.83172894 23.8217354
v -11.7846308 7.8317275 24.6965103
v -12.6594057 7.8317275 23.8217354
v -11.7846308 7.8317275 22.9469604
v -13.5341806 7.83172846 24.6965084
v -12.6594057 7.8317275 23.8217354
v -11.7846308 7.8317275 24.6965103
v -13.1771412 7.83172846 25.0535488
v -12.1408815 7.83172703 25.0527611
v -12.6594067 7.8317275 22.0721874
v -11.7846308 7.8317275 22.9469604
v -12.6594057 7.8317275 23.8217354
v -13.5341816 7.83172846 22.9469624
v -18.7828274 7.83172846 22.9469624
v -17.9080505 7.8317275 23.8217354
v -18.7828274 7.83172846 24.6965084
v -19.6576023 7.83172846 23.8217373
v -14.4089546 7.83172846 23.8217373
v -15.2837305 7.83172894 22.9469604
v -14.4089556 7.83172846 22.0721874
v -13.5341816 7.83172846 22.9469624
v -15.2837305 7.83172894 22.9469604
v -14.4089546 7.83172846 23.8217373
v -15.2837305 7.83172894 24.6965084
v -16.1585026 7.83172894 23.8217354
v -15.2837305 7.83172894 22.9469604
v -16.1585026 7.83172894 23.8217354
v -17.0332775 7.8317275 22.9469604
v -16.1585026 7.83172894 22.0721874
v -15.2837305 7.83172894 24.6965084
v -14.4089546 7.83172846 23.8217373
v -13.5341806 7.83172846 24.6965084
v -14.9253588 7.83172846 25.0548801
v -13.8917627 7.8317275 25.0540905
v -16.1585026 7.83172894 23.8217354
v -17.0332756 7.8317275 24.6965103
v -17.9080505 7.8317275 23.8217354
v -17.0332775 7.8317275 22.9469604
v -18.7828274 7.83172846 24.6965084
v -17.9080505 7.8317275 23.8217354
v -17.0332756 7.8317275 24.6965103
v -18.4217968 7.83172846 25.057539
v -17.3935204 7.8317275 25.0567551
v -17.9080505 7.8317275 22.0721874
v -17.0332775 7.8317275 22.9469604
v -17.9080505 7.8317275 23.8217354
v -18.7828274 7.83172846 22.9469624
v -20.5323753 7.83172894 24.6965084
v -20.1700172 7.83172846 25.0588665
v -20.8833427 7.83172846 25.0594082
v -20.8835526 7.83172894 25.0476856
v -20.8952847 7.83172846 25.0594177
v -11.7846308 7.8317275 24.6965103
v -10.9098577 7.83172894 23.8217354
v -10.0350838 7.83172894 24.6965084
v -10.3900061 7.83172846 25.0514297
v -11.4289207 7.8317275 25.0522213
v -17.0332756 7.8317275 24.6965103
v -16.1585026 7.83172894 23.8217354
v -15.2837305 7.83172894 24.6965084
v -15.6426449 7.83172846 25.0554237
v -16.6735783 7.8317275 25.0562077
vt 0.859863281 0.142089844
vt 0.720703125 0.00280952454
vt 0.720703125 0.281494141
vt 0.998535156 0.00280952454
vt 0.720703125 0.00280952454
vt 0.720703125 0.281494141
vt 0.998535156 0.281494141
vt 0.720703125 0.00280952454
vt 0.720703125 0.281494141
vt 0.998535156 0.281494141
vt 0.720703125 0.00280952454
vt 0.720703125 0.281494141
vt 0.998535156 0.281494141
vt 0.720703125 0.00280952454
vt 0.720703125 0.281494141
vt 0.998535156 0.00280952454
vt 0.720703125 0.00280952454
vt 0.720703125 0.281494141
vt 0.720703125 0.00280952454
vt 0.720703125 0.281494141
vt 0.998535156 0.00280952454
vt 0.998535156 0.00280952454
vt 0.720703125 0.00280952454
vt 0.720703125 0.281494141
vt 0.720703125 0.00280952454
vt 0.720703125 0.281494141
vt 0.998535156 0.00280952454
vt 0.998535156 0.00280952454
vt 0.720703125 0.00280952454
vt 0.720703125 0.281494141
vt 0.998535156 0.00280952454
vt 0.720703125 0.00280952454
vt 0.720703125 0.281494141
vt 0.998535156 0.00280952454
vt 0.720703125 0.00280952454
vt 0.720703125 0.281494141
vt 0.998535156 0.00280952454
vt 0.720703125 0.00280952454
vt 0.720703125 0.281494141
vt 0.998535156 0.00280952454
vt 0.720703125 0.00280952454
vt 0.720703125 0.281494141
vt 0.998535156 0.00280952454
vt 0.720703125 0.00280952454
vt 0.720703125 0.281494141
vt 0.998535156 0.00280952454
vt 0.720703125 0.00280952454
vt 0.720703125 0.281494141
vt 0.998535156 0.281494141
vt 0.944335938 0.226806641
vt 0.889648438 0.281494141
vt 0.998535156 0.281494141
vt 0.998535156 0.171875
vt 0.889160156 0.281494141
vt 0.998535156 0.281494141
vt 0.998535156 0.171508789
vt 0.888671875 0.281494141
vt 0.998535156 0.281494141
vt 0.998535156 0.171020508
vt 0.888671875 0.281494141
vt 0.998535156 0.281494141
vt 0.998535156 0.170654297
vt 0.888183594 0.281494141
vt 0.998535156 0.281494141
vt 0.998535156 0.170288086
vt 0.887695312 0.281494141
vt 0.998535156 0.281494141
vt 0.998535156 0.169799805
vt 0.887207031 0.281494141
vt 0.998535156 0.281494141
vt 0.998535156 0.169433594
vt 0.88671875 0.281494141
vt 0.998535156 0.281494141
vt 0.998535156 0.168945312
vt 0.886230469 0.281494141
vt 0.998535156 0.281494141
vt 0.998535156 0.168579102
vt 0.885742188 0.281494141
vt 0.998535156 0.281494141
vt 0.998535156 0.167724609
vt 0.885253906 0.281494141
vt 0.998535156 0.281494141
vt 0.998535156 0.167236328
vt 0.884765625 0.281494141
vt 0.998535156 0.281494141
vt 0.998535156 0.166381836
vt 0.883789062 0.281494141
vt 0.998535156 0.00280952454
vt 0.877441406 0.00280952454
vt 0.998535156 0.12890625
vt 0.998535156 0.00280952454
vt 0.720703125 0.00280952454
vt 0.849609375 0.131958008
vt 0.998535156 0.00280952454
vt 0.720703125 0.00280952454
vt 0.861328125 0.140380859
vt 0.885742188 0.281494141
vt 0.998535156 0.281494141
vt 0.998535156 0.16809082
vt 0.884277344 0.281494141
vt 0.998535156 0.281494141
vt 0.998535156 0.166870117
vt 0.998535156 0.118713379
vt 0.998535156 0.00280952454
vt 0.887207031 0.00280952454
vt 0.720703125 0.00280952454
vt 0.720703125 0.281494141
vt 0.998535156 0.281494141
vt 0.998535156 0.00280952454
vt 0.877441406 0.281494141
vt 0.998535156 0.281494141
vt 0.998535156 0.00280952454
vt 0.720703125 0.118713379
vt 0.720703125 0.00280952454
vt 0.998535156 0.00280952454
vt 0.720703125 0.00280952454
vt 0.720703125 0.12890625
vt 0.795410156 0.206542969
vt 0.720703125 0.281494141
vt 0.998535156 0.281494141
vt 0.998535156 0.00280952454
vt 0.720703125 0.166015625
vt 0.883789062 0.00280952454
vt 0.720703125 0.281494141
vt 0.998535156 0.281494141
vt 0.998535156 0.00280952454
vt 0.720703125 0.171875
vt 0.889648438 0.00280952454
vt 0.998535156 0.281494141
vt 0.998535156 0.00280952454
vt 0.720703125 0.00280952454
vt 0.720703125 0.281494141
vt 0.720703125 0.00280952454
vt 0.720703125 0.281494141
vt 0.998535156 0.281494141
vt 0.998535156 0.00280952454
vt 0.720703125 0.00280952454
vt 0.720703125 0.281494141
vt 0.998535156 0.281494141
vt 0.998535156 0.00280952454
vt 0.998535156 0.281494141
vt 0.998535156 0.00280952454
vt 0.720703125 0.00280952454
vt 0.720703125 0.281494141
vt 0.998535156 0.00280952454
vt 0.720703125 0.00280952454
vt 0.720703125 0.281494141
vt 0.998535156 0.281494141
vt 0.720703125 0.00280952454
vt 0.720703125 0.281494141
vt 0.998535156 0.281494141
vt 0.998535156 0.00280952454
vt 0.998535156 0.00280952454
vt 0.720703125 0.00280952454
vt 0.720703125 0.281494141
vt 0.998535156 0.281494141
vt 0.720703125 0.00280952454
vt 0.720703125 0.281494141
vt 0.998535156 0.281494141
vt 0.998535156 0.00280952454
vt 0.998535156 0.281494141
vt 0.998535156 0.00280952454
vt 0.720703125 0.00280952454
vt 0.720703125 0.281494141
vt 0.998535156 0.281494141
vt 0.998535156 0.00280952454
vt 0.720703125 0.00280952454
vt 0.720703125 0.281494141
vt 0.998535156 0.00280952454
vt 0.720703125 0.00280952454
vt 0.720703125 0.281494141
vt 0.998535156 0.281494141
vt 0.998535156 0.281494141
vt 0.998535156 0.00280952454
vt 0.720703125 0.00280952454
vt 0.720703125 0.281494141
vt 0.720703125 0.00280952454
vt 0.720703125 0.281494141
vt 0.998535156 0.281494141
vt 0.998535156 0.00280952454
vt 0.998535156 0.00280952454
vt 0.720703125 0.00280952454
vt 0.720703125 0.281494141
vt 0.998535156 0.281494141
vt 0.998535156 0.00280952454
vt 0.720703125 0.00280952454
vt 0.720703125 0.281494141
vt 0.998535156 0.281494141
vt 0.998535156 0.00280952454
vt 0.720703125 0.00280952454
vt 0.720703125 0.281494141
vt 0.998535156 0.281494141
vt 0.998535156 0.281494141
vt 0.998535156 0.00280952454
vt 0.720703125 0.00280952454
vt 0.720703125 0.281494141
vt 0.720703125 0.00280952454
vt 0.720703125 0.281494141
vt 0.998535156 0.281494141
vt 0.998535156 0.00280952454
vt 0.998535156 0.281494141
vt 0.998535156 0.00280952454
vt 0.720703125 0.00280952454
vt 0.720703125 0.281494141
vt 0.720703125 0.00280952454
vt 0.720703125 0.281494141
vt 0.998535156 0.281494141
vt 0.998535156 0.00280952454
vt 0.720703125 0.00280952454
vt 0.720703125 0.281494141
vt 0.998535156 0.281494141
vt 0.998535156 0.00280952454
vt 0.998535156 0.281494141
vt 0.998535156 0.00280952454
vt 0.720703125 0.00280952454
vt 0.720703125 0.281494141
vt 0.998535156 0.00280952454
vt 0.720703125 0.00280952454
vt 0.720703125 0.281494141
vt 0.998535156 0.281494141
vt 0.998535156 0.00280952454
vt 0.720703125 0.00280952454
vt 0.720703125 0.281494141
vt 0.998535156 0.281494141
vt 0.998535156 0.00280952454
vt 0.720703125 0.00280952454
vt 0.720703125 0.281494141
vt 0.998535156 0.281494141
vt 0.998535156 0.281494141
vt 0.998535156 0.00280952454
vt 0.720703125 0.00280952454
vt 0.720703125 0.281494141
vt 0.720703125 0.00280952454
vt 0.720703125 0.281494141
vt 0.998535156 0.281494141
vt 0.998535156 0.00280952454
vt 0.720703125 0.00280952454
vt 0.720703125 0.281494141
vt 0.998535156 0.281494141
vt 0.998535156 0.00280952454
vt 0.720703125 0.00280952454
vt 0.720703125 0.281494141
vt 0.998535156 0.281494141
vt 0.998535156 0.00280952454
vt 0.998535156 0.00280952454
vt 0.720703125 0.00280952454
vt 0.720703125 0.281494141
vt 0.998535156 0.281494141
vt 0.998535156 0.281494141
vt 0.998535156 0.00280952454
vt 0.720703125 0.00280952454
vt 0.720703125 0.281494141
vt 0.998535156 0.281494141
vt 0.998535156 0.00280952454
vt 0.720703125 0.00280952454
vt 0.720703125 0.281494141
vt 0.720703125 0.281494141
vt 0.998535156 0.281494141
vt 0.998535156 0.00280952454
vt 0.720703125 0.170654297
vt 0.888671875 0.00280952454
vt 0.720703125 0.281494141
vt 0.998535156 0.281494141
vt 0.998535156 0.00280952454
vt 0.889160156 0.00280952454
vt 0.720703125 0.171508789
vt 0.998535156 0.281494141
vt 0.998535156 0.00280952454
vt 0.720703125 0.00280952454
vt 0.720703125 0.281494141
vt 0.998535156 0.281494141
vt 0.998535156 0.00280952454
vt 0.720703125 0.00280952454
vt 0.720703125 0.281494141
vt 0.998535156 0.281494141
vt 0.998535156 0.00280952454
vt 0.720703125 0.00280952454
vt 0.720703125 0.281494141
vt 0.998535156 0.281494141
vt 0.998535156 0.00280952454
vt 0.720703125 0.00280952454
vt 0.720703125 0.281494141
vt 0.720703125 0.281494141
vt 0.998535156 0.281494141
vt 0.998535156 0.00280952454
vt 0.720703125 0.171020508
vt 0.888671875 0.00280952454
vt 0.998535156 0.281494141
vt 0.998535156 0.00280952454
vt 0.720703125 0.00280952454
vt 0.720703125 0.281494141
vt 0.998535156 0.281494141
vt 0.998535156 0.00280952454
vt 0.720703125 0.00280952454
vt 0.720703125 0.281494141
vt 0.720703125 0.281494141
vt 0.998535156 0.281494141
vt 0.998535156 0.00280952454
vt 0.720703125 0.170288086
vt 0.888183594 0.00280952454
vt 0.720703125 0.281494141
vt 0.998535156 0.281494141
vt 0.998535156 0.00280952454
vt 0.720703125 0.169799805
vt 0.887695312 0.00280952454
vt 0.720703125 0.281494141
vt 0.998535156 0.281494141
vt 0.998535156 0.00280952454
vt 0.720703125 0.168945312
vt 0.88671875 0.00280952454
vt 0.998535156 0.281494141
vt 0.998535156 0.00280952454
vt 0.720703125 0.00280952454
vt 0.720703125 0.281494141
vt 0.720703125 0.281494141
vt 0.998535156 0.281494141
vt 0.998535156 0.00280952454
vt 0.720703125 0.169433594
vt 0.887207031 0.00280952454
vt 0.998535156 0.281494141
vt 0.998535156 0.00280952454
vt 0.720703125 0.00280952454
vt 0.720703125 0.281494141
vt 0.998535156 0.281494141
vt 0.998535156 0.00280952454
vt 0.720703125 0.00280952454
vt 0.720703125 0.281494141
vt 0.720703125 0.00280952454
vt 0.720703125 0.281494141
vt 0.998535156 0.281494141
vt 0.998535156 0.00280952454
vt 0.998535156 0.281494141
vt 0.998535156 0.00280952454
vt 0.720703125 0.00280952454
vt 0.720703125 0.281494141
vt 0.998535156 0.00280952454
vt 0.720703125 0.00280952454
vt 0.720703125 0.281494141
vt 0.998535156 0.281494141
vt 0.720703125 0.281494141
vt 0.998535156 0.281494141
vt 0.998535156 0.00280952454
vt 0.720703125 0.168579102
vt 0.886230469 0.00280952454
vt 0.998535156 0.00280952454
vt 0.720703125 0.00280952454
vt 0.720703125 0.281494141
vt 0.998535156 0.281494141
vt 0.720703125 0.281494141
vt 0.998535156 0.281494141
vt 0.998535156 0.00280952454
vt 0.720703125 0.167724609
vt 0.885742188 0.00280952454
vt 0.998535156 0.281494141
vt 0.998535156 0.00280952454
vt 0.720703125 0.00280952454
vt 0.720703125 0.281494141
vt 0.998535156 0.281494141
vt 0.998535156 0.00280952454
vt 0.720703125 0.00280952454
vt 0.720703125 0.281494141
vt 0.720703125 0.00280952454
vt 0.720703125 0.281494141
vt 0.998535156 0.281494141
vt 0.998535156 0.00280952454
vt 0.998535156 0.281494141
vt 0.998535156 0.00280952454
vt 0.720703125 0.00280952454
vt 0.720703125 0.281494141
vt 0.998535156 0.00280952454
vt 0.720703125 0.00280952454
vt 0.720703125 0.281494141
vt 0.998535156 0.281494141
vt 0.720703125 0.281494141
vt 0.998535156 0.281494141
vt 0.998535156 0.00280952454
vt 0.720703125 0.167236328
vt 0.885253906 0.00280952454
vt 0.998535156 0.00280952454
vt 0.720703125 0.00280952454
vt 0.720703125 0.281494141
vt 0.998535156 0.281494141
vt 0.720703125 0.281494141
vt 0.998535156 0.281494141
vt 0.998535156 0.00280952454
vt 0.720703125 0.166381836
vt 0.884277344 0.00280952454
vt 0.998535156 0.281494141
vt 0.998535156 0.00280952454
vt 0.720703125 0.00280952454
vt 0.720703125 0.281494141
vt 0.998535156 0.281494141
vt 0.998535156 0.166015625
vt 0.885253906 0.279541016
vt 0.887207031 0.281494141
vt 0.883300781 0.281494141
vt 0.720703125 0.281494141
vt 0.998535156 0.281494141
vt 0.998535156 0.00280952454
vt 0.885742188 0.00280952454
vt 0.720703125 0.16809082
vt 0.720703125 0.281494141
vt 0.998535156 0.281494141
vt 0.998535156 0.00280952454
vt 0.884765625 0.00280952454
vt 0.720703125 0.166870117
vn -0 1 0
vn -0 1 0
vn -0 1 0
vn 3.57627869E-07 1 0
vn 3.57627869E-07 1 0
vn 3.57627869E-07 1 0
vn -0 1 0
vn -0 1 0
vn -0 1 0
vn -3.57627869E-07 1 -5.36441803E-07
vn -3.57627869E-07 1 -5.36441803E-07
vn -3.57627869E-07 1 -5.36441803E-07
vn -0 1 0
vn -0 1 0
vn -0 1 0
vn -0 1 0
vn -0 1 0
vn -0 1 0
vn -0 1 0
vn -0 1 0
vn -0 1 0
vn -0 1 0
vn -0 1 0
vn -0 1 0
vn 7.15255737E-07 1 0
vn 7.15255737E-07 1 0
vn 7.15255737E-07 1 0
vn -0 1 1.01327896E-06
vn -0 1 1.01327896E-06
vn -0 1 1.01327896E-06
vn 3.57627869E-07 1 0
vn 3.57627869E-07 1 0
vn 3.57627869E-07 1 0
vn 3.57627869E-07 1 -1.01327896E-06
vn 3.57627869E-07 1 -1.01327896E-06
vn 3.57627869E-07 1 -1.01327896E-06
vn -7.15255737E-07 1 0
vn -7.15255737E-07 1 0
vn -7.15255737E-07 1 0
vn 3.57627869E-07 1 0
vn 3.57627869E-07 1 0
vn 3.57627869E-07 1 0
vn 3.57627869E-07 1 -1.01327896E-06
vn 3.57627869E-07 1 -1.01327896E-06
vn 3.57627869E-07 1 -1.01327896E-06
vn -7.15255737E-07 1 1.01327896E-06
vn -7.15255737E-07 1 1.01327896E-06
vn -7.15255737E-07 1 1.01327896E-06
vn -0 1 0
vn -0 1 0
vn -0 1 0
vn -0 1 -1.66893005E-06
vn -0 1 -1.66893005E-06
vn -0 1 -1.66893005E-06
vn -0 1 0
vn -0 1 0
vn -0 1 0
vn -0 1 1.60932541E-06
vn -0 1 1.60932541E-06
vn -0 1 1.60932541E-06
vn -0 1 1.60932541E-06
vn -0 1 1.60932541E-06
vn -0 1 1.60932541E-06
vn 8.94069672E-07 1 1.60932541E-06
vn 8.94069672E-07 1 1.60932541E-06
vn 8.94069672E-07 1 1.60932541E-06
vn 8.94069672E-07 1 1.60932541E-06
vn 8.94069672E-07 1 1.60932541E-06
vn 8.94069672E-07 1 1.60932541E-06
vn -0 1 0
vn -0 1 0
vn -0 1 0
vn -0 1 0
vn -0 1 0
vn -0 1 0
vn -8.34465027E-07 1 1.54972076E-06
vn -8.34465027E-07 1 1.54972076E-06
vn -8.34465027E-07 1 1.54972076E-06
vn -8.34465027E-07 1 -1.54972076E-06
vn -8.34465027E-07 1 -1.54972076E-06
vn -8.34465027E-07 1 -1.54972076E-06
vn -0 1 0
vn -0 1 0
vn -0 1 0
vn -0 1 -1.49011612E-06
vn -0 1 -1.49011612E-06
vn -0 1 -1.49011612E-06
vn 7.74860382E-07 1 -1.31130219E-06
vn 7.74860382E-07 1 -1.31130219E-06
vn 7.74860382E-07 1 -1.31130219E-06
vn -2.14576721E-06 1 0
vn -2.14576721E-06 1 0
vn -2.14576721E-06 1 0
vn -7.15255737E-07 1 -2.08616257E-06
vn -7.15255737E-07 1 -2.08616257E-06
vn -7.15255737E-07 1 -2.08616257E-06
vn -8.34465027E-07 1 3.09944153E-06
vn -8.34465027E-07 1 3.09944153E-06
vn -8.34465027E-07 1 3.09944153E-06
vn -0 1 1.49011612E-06
vn -0 1 1.49011612E-06
vn -0 1 1.49011612E-06
vn -0 1 0
vn -0 1 0
vn -0 1 0
vn 3.57627869E-07 1 0
vn 3.57627869E-07 1 0
vn 3.57627869E-07 1 0
vn 3.57627869E-07 1 0
vn 7.74860382E-07 1 0
vn 7.74860382E-07 1 0
vn 7.74860382E-07 1 0
vn 7.74860382E-07 1 0
vn 7.74860382E-07 1 0
vn 4.17232513E-07 1 0
vn 4.17232513E-07 1 0
vn 4.17232513E-07 1 0
vn 4.17232513E-07 1 0
vn 2.98023224E-07 1 0
vn 2.98023224E-07 1 0
vn 2.98023224E-07 1 0
vn 2.98023224E-07 1 0
vn 2.98023224E-07 1 0
vn -3.57627869E-07 1 -1.25169754E-06
vn -3.57627869E-07 1 -1.25169754E-06
vn -3.57627869E-07 1 -1.25169754E-06
vn -3.57627869E-07 1 -1.25169754E-06
vn -3.57627869E-07 1 -1.25169754E-06
vn -0 1 1.01327896E-06
vn -0 1 1.01327896E-06
vn -0 1 1.01327896E-06
vn -0 1 1.01327896E-06
vn -0 1 0
vn -0 1 0
vn -0 1 0
vn -0 1 0
vn -0 1 0
vn -0 1 0
vn -0 1 0
vn -0 1 0
vn -0 1 0
vn -0 1 0
vn -0 1 0
vn -0 1 0
vn -7.15255737E-07 1 5.36441803E-07
vn -7.15255737E-07 1 5.36441803E-07
vn -7.15255737E-07 1 5.36441803E-07
vn -7.15255737E-07 1 5.36441803E-07
vn -0 1 5.36441803E-07
vn -0 1 5.36441803E-07
vn -0 1 5.36441803E-07
vn -0 1 5.36441803E-07
vn -0 1 5.36441803E-07
vn -0 1 5.36441803E-07
vn -0 1 5.36441803E-07
vn -0 1 5.36441803E-07
vn -0 1 5.36441803E-07
vn -0 1 5.36441803E-07
vn -0 1 5.36441803E-07
vn -0 1 5.36441803E-07
vn -0 1 5.36441803E-07
vn -0 1 5.36441803E-07
vn -0 1 5.36441803E-07
vn -0 1 5.36441803E-07
vn -0 1 0
vn -0 1 0
vn -0 1 0
vn -0 1 0
vn 7.15255737E-07 1 0
vn 7.15255737E-07 1 0
vn 7.15255737E-07 1 0
vn 7.15255737E-07 1 0
vn 7.15255737E-07 1 0
vn 7.15255737E-07 1 0
vn 7.15255737E-07 1 0
vn 7.15255737E-07 1 0
vn 7.15255737E-07 1 0
vn 7.15255737E-07 1 0
vn 7.15255737E-07 1 0
vn 7.15255737E-07 1 0
vn -0 1 1.54972076E-06
vn -0 1 1.54972076E-06
vn -0 1 1.54972076E-06
vn -0 1 1.54972076E-06
vn 7.15255737E-07 1 0
vn 7.15255737E-07 1 0
vn 7.15255737E-07 1 0
vn 7.15255737E-07 1 0
vn 7.15255737E-07 1 1.01327896E-06
vn 7.15255737E-07 1 1.01327896E-06
vn 7.15255737E-07 1 1.01327896E-06
vn 7.15255737E-07 1 1.01327896E-06
vn -0 1 1.01327896E-06
vn -0 1 1.01327896E-06
vn -0 1 1.01327896E-06
vn -0 1 1.01327896E-06
vn -0 1 0
vn -0 1 0
vn -0 1 0
vn -0 1 0
vn -0 1 0
vn -0 1 0
vn -0 1 0
vn -0 1 0
vn -0 1 0
vn -0 1 0
vn -0 1 0
vn -0 1 0
vn -0 1 1.01327896E-06
vn -0 1 1.01327896E-06
vn -0 1 1.01327896E-06
vn -0 1 1.01327896E-06
vn -0 1 1.01327896E-06
vn -0 1 1.01327896E-06
vn -0 1 1.01327896E-06
vn -0 1 1.01327896E-06
vn -0 1 1.01327896E-06
vn -0 1 1.01327896E-06
vn -0 1 1.01327896E-06
vn -0 1 1.01327896E-06
vn -0 1 0
vn -0 1 0
vn -0 1 0
vn -0 1 0
vn -0 1 0
vn -0 1 0
vn -0 1 0
vn -0 1 0
vn -0 1 0
vn -0 1 0
vn -0 1 0
vn -0 1 0
vn -0 1 0
vn -0 1 0
vn -0 1 0
vn -0 1 0
vn -7.15255737E-07 1 1.01327896E-06
vn -7.15255737E-07 1 1.01327896E-06
vn -7.15255737E-07 1 1.01327896E-06
vn -7.15255737E-07 1 1.01327896E-06
vn -0 1 0
vn -0 1 0
vn -0 1 0
vn -0 1 0
vn -7.15255737E-07 1 0
vn -7.15255737E-07 1 0
vn -7.15255737E-07 1 0
vn -7.15255737E-07 1 0
vn -0 1 0
vn -0 1 0
vn -0 1 0
vn -0 1 0
vn -0 1 0
vn -0 1 0
vn -0 1 0
vn -0 1 0
vn -0 1 0
vn -0 1 0
vn -0 1 0
vn -0 1 0
vn -0 1 0
vn -0 1 0
vn -0 1 0
vn -0 1 0
vn -0 1 0
vn -0 1 0
vn -0 1 0
vn -0 1 0
vn -0 1 0
vn -0 1 0
vn -0 1 -5.36441803E-07
vn -0 1 -5.36441803E-07
vn -0 1 -5.36441803E-07
vn -0 1 -5.36441803E-07
vn -0 1 0
vn -0 1 0
vn -0 1 0
vn -0 1 0
vn -0 1 0
vn -0 1 0
vn -0 1 0
vn -0 1 0
vn -0 1 0
vn -0 1 0
vn -0 1 0
vn -0 1 0
vn -0 1 0
vn -0 1 0
vn -0 1 0
vn -0 1 0
vn -0 1 0
vn -0 1 5.36441803E-07
vn -0 1 5.36441803E-07
vn -0 1 5.36441803E-07
vn -0 1 5.36441803E-07
vn -0 1 1.25169754E-06
vn -0 1 1.25169754E-06
vn -0 1 1.25169754E-06
vn -0 1 1.25169754E-06
vn -0 1 1.25169754E-06
vn -0 1 5.96046448E-07
vn -0 1 5.96046448E-07
vn -0 1 5.96046448E-07
vn -0 1 5.96046448E-07
vn -0 1 5.96046448E-07
vn 2.98023224E-07 1 -5.96046448E-07
vn 2.98023224E-07 1 -5.96046448E-07
vn 2.98023224E-07 1 -5.96046448E-07
vn 2.98023224E-07 1 -5.96046448E-07
vn 2.98023224E-07 1 -5.96046448E-07
vn 3.57627869E-07 1 0
vn 3.57627869E-07 1 0
vn 3.57627869E-07 1 0
vn 3.57627869E-07 1 0
vn -0 1 -5.96046448E-07
vn -0 1 -5.96046448E-07
vn -0 1 -5.96046448E-07
vn -0 1 -5.96046448E-07
vn -0 1 -5.96046448E-07
vn 3.57627869E-07 1 5.36441803E-07
vn 3.57627869E-07 1 5.36441803E-07
vn 3.57627869E-07 1 5.36441803E-07
vn 3.57627869E-07 1 5.36441803E-07
vn 3.57627869E-07 1 5.36441803E-07
vn 3.57627869E-07 1 5.36441803E-07
vn 3.57627869E-07 1 5.36441803E-07
vn 3.57627869E-07 1 5.36441803E-07
vn 3.57627869E-07 1 0
vn 3.57627869E-07 1 0
vn 3.57627869E-07 1 0
vn 3.57627869E-07 1 0
vn 3.57627869E-07 1 0
vn 3.57627869E-07 1 0
vn 3.57627869E-07 1 0
vn 3.57627869E-07 1 0
vn -7.15255737E-07 1 -5.36441803E-07
vn -7.15255737E-07 1 -5.36441803E-07
vn -7.15255737E-07 1 -5.36441803E-07
vn -7.15255737E-07 1 -5.36441803E-07
vn 3.57627869E-07 1 -5.96046448E-07
vn 3.57627869E-07 1 -5.96046448E-07
vn 3.57627869E-07 1 -5.96046448E-07
vn 3.57627869E-07 1 -5.96046448E-07
vn 3.57627869E-07 1 -5.96046448E-07
vn -7.15255737E-07 1 5.36441803E-07
vn -7.15255737E-07 1 5.36441803E-07
vn -7.15255737E-07 1 5.36441803E-07
vn -7.15255737E-07 1 5.36441803E-07
vn 4.76837158E-07 1 0
vn 4.76837158E-07 1 0
vn 4.76837158E-07 1 0
vn 4.76837158E-07 1 0
vn 4.76837158E-07 1 0
vn 3.57627869E-07 1 0
vn 3.57627869E-07 1 0
vn 3.57627869E-07 1 0
vn 3.57627869E-07 1 0
vn 3.57627869E-07 1 0
vn 3.57627869E-07 1 0
vn 3.57627869E-07 1 0
vn 3.57627869E-07 1 0
vn 3.57627869E-07 1 0
vn 3.57627869E-07 1 0
vn 3.57627869E-07 1 0
vn 3.57627869E-07 1 0
vn 3.57627869E-07 1 0
vn 3.57627869E-07 1 0
vn 3.57627869E-07 1 0
vn 3.57627869E-07 1 0
vn -7.15255737E-07 1 -5.36441803E-07
vn -7.15255737E-07 1 -5.36441803E-07
vn -7.15255737E-07 1 -5.36441803E-07
vn -7.15255737E-07 1 -5.36441803E-07
vn 3.57627869E-07 1 0
vn 3.57627869E-07 1 0
vn 3.57627869E-07 1 0
vn 3.57627869E-07 1 0
vn 3.57627869E-07 1 0
vn -7.15255737E-07 1 0
vn -7.15255737E-07 1 0
vn -7.15255737E-07 1 0
vn -7.15255737E-07 1 0
vn 3.57627869E-07 1 0
vn 3.57627869E-07 1 0
vn 3.57627869E-07 1 0
vn 3.57627869E-07 1 0
vn 3.57627869E-07 1 0
vn 3.57627869E-07 1 0
vn 3.57627869E-07 1 0
vn 3.57627869E-07 1 0
vn 3.57627869E-07 1 0
vn 8.34465027E-07 1 2.98023224E-06
vn 8.34465027E-07 1 2.98023224E-06
vn 8.34465027E-07 1 2.98023224E-06
vn 8.34465027E-07 1 2.98023224E-06
vn -0 1 0
vn -6.55651093E-07 1 1.07288361E-06
vn -6.55651093E-07 1 1.07288361E-06
vn -6.55651093E-07 1 1.07288361E-06
vn -6.55651093E-07 1 1.07288361E-06
vn -6.55651093E-07 1 1.07288361E-06
vn -6.55651093E-07 1 9.53674316E-07
vn -6.55651093E-07 1 9.53674316E-07
vn -6.55651093E-07 1 9.53674316E-07
vn -6.55651093E-07 1 9.53674316E-07
vn -6.55651093E-07 1 9.53674316E-07
g RodRoom_Hallway_Floor_0
f 3/3/3 2/2/2 1/1/1
f 6/6/6 5/5/5 4/4/4
f 9/9/9 8/8/8 7/7/7
f 12/12/12 11/11/11 10/10/10
f 15/15/15 14/14/14 13/13/13
f 18/18/18 17/17/17 16/16/16
f 21/21/21 20/20/20 19/19/19
f 24/24/24 23/23/23 22/22/22
f 27/27/27 26/26/26 25/25/25
f 30/30/30 29/29/29 28/28/28
f 33/33/33 32/32/32 31/31/31
f 36/36/36 35/35/35 34/34/34
f 39/39/39 38/38/38 37/37/37
f 42/42/42 41/41/41 40/40/40
f 45/45/45 44/44/44 43/43/43
f 48/48/48 47/47/47 46/46/46
f 51/51/51 50/50/50 49/49/49
f 54/54/54 53/53/53 52/52/52
f 57/57/57 56/56/56 55/55/55
f 60/60/60 59/59/59 58/58/58
f 63/63/63 62/62/62 61/61/61
f 66/66/66 65/65/65 64/64/64
f 69/69/69 68/68/68 67/67/67
f 72/72/72 71/71/71 70/70/70
f 75/75/75 74/74/74 73/73/73
f 78/78/78 77/77/77 76/76/76
f 81/81/81 80/80/80 79/79/79
f 84/84/84 83/83/83 82/82/82
f 87/87/87 86/86/86 85/85/85
f 90/90/90 89/89/89 88/88/88
f 93/93/93 92/92/92 91/91/91
f 96/96/96 95/95/95 94/94/94
f 99/99/99 98/98/98 97/97/97
f 102/102/102 101/101/101 100/100/100
f 105/105/105 104/104/104 103/103/103
f 108/108/108 107/107/107 106/106/106
f 109/109/109 108/108/108 106/106/106
f 112/112/112 111/111/111 110/110/110
f 110/110/110 113/113/113 112/112/112
f 113/113/113 114/114/114 112/112/112
f 117/117/117 116/116/116 115/115/115
f 118/118/118 117/117/117 115/115/115
f 121/121/121 120/120/120 119/119/119
f 119/119/119 122/122/122 121/121/121
f 122/122/122 123/123/123 121/121/121
f 126/126/126 125/125/125 124/124/124
f 124/124/124 127/127/127 126/126/126
f 127/127/127 128/128/128 126/126/126
f 131/131/131 130/130/130 129/129/129
f 132/132/132 131/131/131 129/129/129
f 135/135/135 134/134/134 133/133/133
f 136/136/136 135/135/135 133/133/133
f 139/139/139 138/138/138 137/137/137
f 140/140/140 139/139/139 137/137/137
f 143/143/143 142/142/142 141/141/141
f 144/144/144 143/143/143 141/141/141
f 147/147/147 146/146/146 145/145/145
f 148/148/148 147/147/147 145/145/145
f 151/151/151 150/150/150 149/149/149
f 152/152/152 151/151/151 149/149/149
f 155/155/155 154/154/154 153/153/153
f 156/156/156 155/155/155 153/153/153
f 159/159/159 158/158/158 157/157/157
f 160/160/160 159/159/159 157/157/157
f 163/163/163 162/162/162 161/161/161
f 164/164/164 163/163/163 161/161/161
f 167/167/167 166/166/166 165/165/165
f 168/168/168 167/167/167 165/165/165
f 171/171/171 170/170/170 169/169/169
f 172/172/172 171/171/171 169/169/169
f 175/175/175 174/174/174 173/173/173
f 176/176/176 175/175/175 173/173/173
f 179/179/179 178/178/178 177/177/177
f 180/180/180 179/179/179 177/177/177
f 183/183/183 182/182/182 181/181/181
f 184/184/184 183/183/183 181/181/181
f 187/187/187 186/186/186 185/185/185
f 188/188/188 187/187/187 185/185/185
f 191/191/191 190/190/190 189/189/189
f 192/192/192 191/191/191 189/189/189
f 195/195/195 194/194/194 193/193/193
f 196/196/196 195/195/195 193/193/193
f 199/199/199 198/198/198 197/197/197
f 200/200/200 199/199/199 197/197/197
f 203/203/203 202/202/202 201/201/201
f 204/204/204 203/203/203 201/201/201
f 207/207/207 206/206/206 205/205/205
f 208/208/208 207/207/207 205/205/205
f 211/211/211 210/210/210 209/209/209
f 212/212/212 211/211/211 209/209/209
f 215/215/215 214/214/214 213/213/213
f 216/216/216 215/215/215 213/213/213
f 219/219/219 218/218/218 217/217/217
f 220/220/220 219/219/219 217/217/217
f 223/223/223 222/222/222 221/221/221
f 224/224/224 223/223/223 221/221/221
f 227/227/227 226/226/226 225/225/225
f 228/228/228 227/227/227 225/225/225
f 231/231/231 230/230/230 229/229/229
f 232/232/232 231/231/231 229/229/229
f 235/235/235 234/234/234 233/233/233
f 236/236/236 235/235/235 233/233/233
f 239/239/239 238/238/238 237/237/237
f 240/240/240 239/239/239 237/237/237
f 243/243/243 242/242/242 241/241/241
f 244/244/244 243/243/243 241/241/241
f 247/247/247 246/246/246 245/245/245
f 248/248/248 247/247/247 245/245/245
f 251/251/251 250/250/250 249/249/249
f 252/252/252 251/251/251 249/249/249
f 255/255/255 254/254/254 253/253/253
f 256/256/256 255/255/255 253/253/253
f 259/259/259 258/258/258 257/257/257
f 257/257/257 260/260/260 259/259/259
f 260/260/260 261/261/261 259/259/259
f 264/264/264 263/263/263 262/262/262
f 262/262/262 265/265/265 264/264/264
f 262/262/262 266/266/266 265/265/265
f 269/269/269 268/268/268 267/267/267
f 270/270/270 269/269/269 267/267/267
f 273/273/273 272/272/272 271/271/271
f 274/274/274 273/273/273 271/271/271
f 277/277/277 276/276/276 275/275/275
f 278/278/278 277/277/277 275/275/275
f 281/281/281 280/280/280 279/279/279
f 282/282/282 281/281/281 279/279/279
f 285/285/285 284/284/284 283/283/283
f 283/283/283 286/286/286 285/285/285
f 286/286/286 287/287/287 285/285/285
f 290/290/290 289/289/289 288/288/288
f 291/291/291 290/290/290 288/288/288
f 294/294/294 293/293/293 292/292/292
f 295/295/295 294/294/294 292/292/292
f 298/298/298 297/297/297 296/296/296
f 296/296/296 299/299/299 298/298/298
f 299/299/299 300/300/300 298/298/298
f 303/303/303 302/302/302 301/301/301
f 301/301/301 304/304/304 303/303/303
f 304/304/304 305/305/305 303/303/303
f 308/308/308 307/307/307 306/306/306
f 306/306/306 309/309/309 308/308/308
f 309/309/309 310/310/310 308/308/308
f 313/313/313 312/312/312 311/311/311
f 314/314/314 313/313/313 311/311/311
f 317/317/317 316/316/316 315/315/315
f 315/315/315 318/318/318 317/317/317
f 318/318/318 319/319/319 317/317/317
f 322/322/322 321/321/321 320/320/320
f 323/323/323 322/322/322 320/320/320
f 326/326/326 325/325/325 324/324/324
f 327/327/327 326/326/326 324/324/324
f 330/330/330 329/329/329 328/328/328
f 331/331/331 330/330/330 328/328/328
f 334/334/334 333/333/333 332/332/332
f 335/335/335 334/334/334 332/332/332
f 338/338/338 337/337/337 336/336/336
f 339/339/339 338/338/338 336/336/336
f 342/342/342 341/341/341 340/340/340
f 340/340/340 343/343/343 342/342/342
f 343/343/343 344/344/344 342/342/342
f 347/347/347 346/346/346 345/345/345
f 348/348/348 347/347/347 345/345/345
f 351/351/351 350/350/350 349/349/349
f 349/349/349 352/352/352 351/351/351
f 352/352/352 353/353/353 351/351/351
f 356/356/356 355/355/355 354/354/354
f 357/357/357 356/356/356 354/354/354
f 360/360/360 359/359/359 358/358/358
f 361/361/361 360/360/360 358/358/358
f 364/364/364 363/363/363 362/362/362
f 365/365/365 364/364/364 362/362/362
f 368/368/368 367/367/367 366/366/366
f 369/369/369 368/368/368 366/366/366
f 372/372/372 371/371/371 370/370/370
f 373/373/373 372/372/372 370/370/370
f 376/376/376 375/375/375 374/374/374
f 374/374/374 377/377/377 376/376/376
f 377/377/377 378/378/378 376/376/376
f 381/381/381 380/380/380 379/379/379
f 382/382/382 381/381/381 379/379/379
f 385/385/385 384/384/384 383/383/383
f 383/383/383 386/386/386 385/385/385
f 386/386/386 387/387/387 385/385/385
f 390/390/390 389/389/389 388/388/388
f 391/391/391 390/390/390 388/388/388
f 394/394/394 393/393/393 392/392/392
f 395/395/395 394/394/394 392/392/392
f 395/395/395 396/396/396 394/394/394
f 399/399/399 398/398/398 397/397/397
f 397/397/397 400/400/400 399/399/399
f 397/397/397 401/401/401 400/400/400
f 404/404/404 403/403/403 402/402/402
f 402/402/402 405/405/405 404/404/404
f 402/402/402 406/406/406 405/405/405
