g IS4_SalaControl_MonitorT1_1
v -0.148160696 0.0283164978 0.16076602
v -0.148160696 0.0283164978 0.126283094
v -0.148160696 0.0486880466 0.126283094
v -0.148160696 0.0486880466 0.16076602
v -0.143960267 0.0283164978 0.126283094
v -0.148160696 0.0283164978 0.126283094
v -0.148160696 0.0283164978 0.16076602
v -0.143960267 0.0283164978 0.16076602
v -0.143960267 0.0283164978 0.16076602
v -0.148160696 0.0283164978 0.16076602
v -0.148160696 0.0486880466 0.16076602
v -0.143960267 0.0486880466 0.16076602
v -0.148160696 0.0486880466 0.16076602
v -0.148160696 0.0486880466 0.126283094
v -0.143960267 0.0486880466 0.126283094
v -0.143960267 0.0486880466 0.16076602
v -0.143960267 0.0486880466 0.126283094
v -0.148160696 0.0486880466 0.126283094
v -0.148160696 0.0283164978 0.126283094
v -0.143960267 0.0283164978 0.126283094
v -0.150154114 0.0503382869 -0.0274377335
v -0.150154114 0.0467173755 -0.0177010968
v -0.150154114 0.0324555971 -0.0177010968
v -0.150154114 0.0288346857 -0.0274377335
v -0.150154114 0.0324555971 -0.0371743701
v -0.150154114 0.0467173755 -0.0371743701
v -0.150154114 0.0288346857 -0.0274377335
v -0.150154114 0.0324555971 -0.0177010968
v -0.143393546 0.0324555971 -0.0177010968
v -0.143393546 0.0288346857 -0.0274377335
v -0.143393546 0.0324555971 -0.0177010968
v -0.150154114 0.0324555971 -0.0177010968
v -0.150154114 0.0467173755 -0.0177010968
v -0.143393546 0.0467173755 -0.0177010968
v -0.143393546 0.0467173755 -0.0177010968
v -0.150154114 0.0467173755 -0.0177010968
v -0.150154114 0.0503382869 -0.0274377335
v -0.143393546 0.0503382869 -0.0274377335
v -0.143393546 0.0467173755 -0.0371743701
v -0.150154114 0.0467173755 -0.0371743701
v -0.143393546 0.0467173755 -0.0371743701
v -0.150154114 0.0467173755 -0.0371743701
v -0.150154114 0.0324555971 -0.0371743701
v -0.143393546 0.0324555971 -0.0371743701
v -0.143393546 0.0324555971 -0.0371743701
v -0.150154114 0.0324555971 -0.0371743701
v -0.150154114 0.0288346857 -0.0274377335
v -0.143393546 0.0288346857 -0.0274377335
v -0.150154114 0.0503382869 -0.0757699981
v -0.150154114 0.0467173755 -0.0660333633
v -0.150154114 0.0324555971 -0.0660333633
v -0.150154114 0.0288346857 -0.0757699981
v -0.150154114 0.0324555971 -0.0855066255
v -0.150154114 0.0467173755 -0.0855066255
v -0.150154114 0.0288346857 -0.0757699981
v -0.150154114 0.0324555971 -0.0660333633
v -0.143393546 0.0324555971 -0.0660333633
v -0.143393546 0.0288346857 -0.0757699981
v -0.143393546 0.0324555971 -0.0660333633
v -0.150154114 0.0324555971 -0.0660333633
v -0.150154114 0.0467173755 -0.0660333633
v -0.143393546 0.0467173755 -0.0660333633
v -0.143393546 0.0467173755 -0.0660333633
v -0.150154114 0.0467173755 -0.0660333633
v -0.150154114 0.0503382869 -0.0757699981
v -0.143393546 0.0503382869 -0.0757699981
v -0.143393546 0.0467173755 -0.0855066255
v -0.150154114 0.0467173755 -0.0855066255
v -0.143393546 0.0467173755 -0.0855066255
v -0.150154114 0.0467173755 -0.0855066255
v -0.150154114 0.0324555971 -0.0855066255
v -0.143393546 0.0324555971 -0.0855066255
v -0.143393546 0.0324555971 -0.0855066255
v -0.150154114 0.0324555971 -0.0855066255
v -0.150154114 0.0288346857 -0.0757699981
v -0.143393546 0.0288346857 -0.0757699981
v -0.150154114 0.0503382869 -0.124102257
v -0.150154114 0.0467173755 -0.114365615
v -0.150154114 0.0324555971 -0.114365615
v -0.150154114 0.0288346857 -0.124102257
v -0.150154114 0.0324555971 -0.133838892
v -0.150154114 0.0467173755 -0.133838892
v -0.150154114 0.0288346857 -0.124102257
v -0.150154114 0.0324555971 -0.114365615
v -0.143393546 0.0324555971 -0.114365615
v -0.143393546 0.0288346857 -0.124102257
v -0.143393546 0.0324555971 -0.114365615
v -0.150154114 0.0324555971 -0.114365615
v -0.150154114 0.0467173755 -0.114365615
v -0.143393546 0.0467173755 -0.114365615
v -0.143393546 0.0467173755 -0.114365615
v -0.150154114 0.0467173755 -0.114365615
v -0.150154114 0.0503382869 -0.124102257
v -0.143393546 0.0503382869 -0.124102257
v -0.143393546 0.0467173755 -0.133838892
v -0.150154114 0.0467173755 -0.133838892
v -0.143393546 0.0467173755 -0.133838892
v -0.150154114 0.0467173755 -0.133838892
v -0.150154114 0.0324555971 -0.133838892
v -0.143393546 0.0324555971 -0.133838892
v -0.143393546 0.0324555971 -0.133838892
v -0.150154114 0.0324555971 -0.133838892
v -0.150154114 0.0288346857 -0.124102257
v -0.143393546 0.0288346857 -0.124102257
v 0.133500367 0 0.149955586
v 0.133500367 0.0544755533 0.149955586
v 0.133500367 0.0544755533 -0.149955586
v 0.133500367 0 -0.149955586
v 0.133500367 0.0544755533 0.149955586
v 0.133500367 0 0.149955586
v -0.137112424 0 0.175326794
v -0.137112424 0.0544755533 0.175326794
v -0.137112424 0 -0.175326541
v 0.133500367 0 -0.149955586
v 0.133500367 0.0544755533 -0.149955586
v -0.137112424 0.0544755533 -0.175326541
v -0.137112424 0 0.175326794
v 0.133500367 0 0.149955586
v 0.133500367 0 -0.149955586
v -0.137112424 0 -0.175326541
v -0.137112424 0 0.175326794
v -0.137112424 0 -0.175326541
v -0.137112424 0.0544755533 -0.175326541
v -0.137112424 0.0544755533 0.175326794
v -0.144388735 0.0389672853 0.211658746
v -0.144388735 0.376369089 0.211658746
v -0.0555654913 0.376369089 0.211658746
v -0.0555654913 0.0389672853 0.211658746
v -0.144388735 0.401757121 0.186271012
v -0.144388735 0.401757121 -0.186271012
v -0.0555654913 0.401757121 -0.186271012
v -0.0555654913 0.401757121 0.186271012
v -0.144388735 0.376369089 -0.211658746
v -0.144388735 0.0389672853 -0.211658746
v -0.0555654913 0.0389672853 -0.211658746
v -0.0555654913 0.376369089 -0.211658746
v -0.0555654913 0.401757121 -0.186271012
v -0.144388735 0.401757121 -0.186271012
v -0.144388735 0.0135794068 -0.186271012
v -0.0555654913 0.0135794068 0.186271012
v -0.0555654913 0.0135794068 -0.186271012
v -0.144388735 0.0135794068 0.186271012
v -0.144388735 0.0389672853 0.211658746
v -0.0555654913 0.0389672853 0.211658746
v 0.150153801 0.0509353615 0.156696767
v 0.150153801 0.318512708 0.156696767
v 0.150153801 0.318512708 -0.156696722
v 0.150153801 0.0509353615 -0.156696722
v -0.0555654913 0.38275978 -0.192174524
v 0.0984246805 0.325787812 -0.16401279
v 0.0984246805 0.325787812 0.16401279
v -0.0555654913 0.38275978 0.192174569
v -0.0555654913 0.0325765237 -0.192174524
v 0.0984246805 0.325787812 -0.16401279
v -0.0555654913 0.38275978 -0.192174524
v 0.0984246805 0.0436602756 -0.16401279
v 0.150153801 0.318512708 -0.156696722
v 0.150153801 0.0509353615 -0.156696722
v -0.0555654913 0.0325765237 0.192174569
v 0.0984246805 0.0436602756 0.16401279
v 0.0984246805 0.0436602756 -0.16401279
v -0.0555654913 0.0325765237 -0.192174524
v -0.0555654913 0.0325765237 0.192174569
v -0.0555654913 0.376369089 0.211658746
v -0.0555654913 0.38275978 0.192174569
v -0.0555654913 0.0389672853 0.211658746
v -0.0555654913 0.0135794068 0.186271012
v -0.0555654913 0.0325765237 0.192174569
v -0.0555654913 0.0325765237 -0.192174524
v -0.0555654913 0.0135794068 -0.186271012
v -0.0555654913 0.0389672853 -0.211658746
v -0.0555654913 0.38275978 -0.192174524
v -0.0555654913 0.376369089 -0.211658746
v -0.0555654913 0.401757121 -0.186271012
v -0.0555654913 0.38275978 0.192174569
v -0.0555654913 0.401757121 0.186271012
v -0.0555654913 0.376369089 0.211658746
v -0.144388735 0.376369089 0.211658746
v -0.144388735 0.401757121 0.186271012
v -0.0555654913 0.401757121 0.186271012
v -0.0555654913 0.0389672853 -0.211658746
v -0.144388735 0.0389672853 -0.211658746
v -0.144388735 0.0135794068 -0.186271012
v -0.0555654913 0.0135794068 -0.186271012
v 0.0984246805 0.0436602756 0.16401279
v 0.150153801 0.0509353615 0.156696767
v 0.150153801 0.0509353615 -0.156696722
v 0.0984246805 0.0436602756 -0.16401279
v 0.0984246805 0.325787812 -0.16401279
v 0.150153801 0.318512708 -0.156696722
v 0.150153801 0.318512708 0.156696767
v 0.0984246805 0.325787812 0.16401279
v 0.0984246805 0.325787812 0.16401279
v 0.150153801 0.318512708 0.156696767
v 0.150153801 0.0509353615 0.156696767
v 0.0984246805 0.0436602756 0.16401279
v -0.0555654913 0.0325765237 0.192174569
v -0.0555654913 0.38275978 0.192174569
v -0.144388735 0.0640918687 -0.157880396
v -0.13438873 0.0640918687 -0.157880396
v -0.13438873 0.0640918687 0.15788044
v -0.144388735 0.0640918687 0.15788044
v -0.144388735 0.0640918687 0.15788044
v -0.13438873 0.0640918687 0.15788044
v -0.13438873 0.351244569 0.15788044
v -0.144388735 0.351244569 0.15788044
v -0.144388735 0.351244569 0.15788044
v -0.13438873 0.351244569 0.15788044
v -0.13438873 0.351244569 -0.157880396
v -0.144388735 0.351244569 -0.157880396
v -0.144388735 0.351244569 -0.157880396
v -0.13438873 0.351244569 -0.157880396
v -0.13438873 0.0640918687 -0.157880396
v -0.144388735 0.0640918687 -0.157880396
v -0.144388735 0.0640918687 0.15788044
v -0.144388735 0.0135794068 0.186271012
v -0.144388735 0.0135794068 -0.186271012
v -0.144388735 0.0389672853 0.211658746
v -0.144388735 0.0640918687 -0.157880396
v -0.144388735 0.0389672853 -0.211658746
v -0.144388735 0.376369089 -0.211658746
v -0.144388735 0.351244569 0.15788044
v -0.144388735 0.376369089 0.211658746
v -0.144388735 0.401757121 0.186271012
v -0.144388735 0.351244569 -0.157880396
v -0.144388735 0.401757121 -0.186271012
vt 0.897460938 0.513183594
vt 0.897460938 0.521972656
vt 0.904296875 0.521972656
vt 0.904296875 0.513183594
vt 0.897460938 0.526855469
vt 0.897460938 0.521972656
vt 0.920898438 0.521972656
vt 0.920898438 0.526855469
vt 0.920898438 0.526855469
vt 0.920898438 0.521972656
vt 0.9140625 0.521972656
vt 0.9140625 0.526855469
vt 0.9140625 0.521972656
vt 0.904296875 0.521972656
vt 0.904296875 0.526855469
vt 0.9140625 0.526855469
vt 0.904296875 0.526855469
vt 0.904296875 0.521972656
vt 0.897460938 0.521972656
vt 0.897460938 0.526855469
vt 0.905761719 0.533203125
vt 0.903808594 0.528320312
vt 0.896972656 0.528320312
vt 0.895507812 0.533203125
vt 0.896972656 0.537597656
vt 0.903808594 0.537597656
vt 0.92578125 0.537597656
vt 0.920898438 0.537597656
vt 0.920898438 0.542480469
vt 0.92578125 0.542480469
vt 0.920898438 0.542480469
vt 0.920898438 0.537597656
vt 0.9140625 0.537597656
vt 0.9140625 0.542480469
vt 0.9140625 0.542480469
vt 0.9140625 0.537597656
vt 0.909179688 0.537597656
vt 0.909179688 0.542480469
vt 0.903808594 0.542480469
vt 0.903808594 0.537597656
vt 0.903808594 0.542480469
vt 0.903808594 0.537597656
vt 0.896972656 0.537597656
vt 0.896972656 0.542480469
vt 0.896972656 0.542480469
vt 0.896972656 0.537597656
vt 0.892089844 0.537597656
vt 0.892089844 0.542480469
vt 0.905761719 0.502929688
vt 0.904296875 0.498291016
vt 0.897460938 0.498291016
vt 0.895996094 0.502929688
vt 0.897460938 0.507324219
vt 0.904296875 0.507324219
vt 0.92578125 0.507324219
vt 0.920898438 0.507324219
vt 0.920898438 0.512207031
vt 0.92578125 0.512207031
vt 0.920898438 0.512207031
vt 0.920898438 0.507324219
vt 0.9140625 0.507324219
vt 0.9140625 0.512207031
vt 0.9140625 0.512207031
vt 0.9140625 0.507324219
vt 0.909179688 0.507324219
vt 0.909179688 0.512207031
vt 0.904296875 0.512207031
vt 0.904296875 0.507324219
vt 0.904296875 0.512207031
vt 0.904296875 0.507324219
vt 0.897460938 0.507324219
vt 0.897460938 0.512207031
vt 0.897460938 0.512207031
vt 0.897460938 0.507324219
vt 0.892578125 0.507324219
vt 0.892578125 0.512207031
vt 0.905761719 0.517578125
vt 0.904296875 0.513183594
vt 0.897460938 0.513183594
vt 0.895996094 0.517578125
vt 0.897460938 0.521972656
vt 0.904296875 0.521972656
vt 0.92578125 0.521972656
vt 0.920898438 0.521972656
vt 0.920898438 0.526855469
vt 0.92578125 0.526855469
vt 0.920898438 0.526855469
vt 0.920898438 0.521972656
vt 0.9140625 0.521972656
vt 0.9140625 0.526855469
vt 0.9140625 0.526855469
vt 0.9140625 0.521972656
vt 0.909179688 0.521972656
vt 0.909179688 0.526855469
vt 0.904296875 0.526855469
vt 0.904296875 0.521972656
vt 0.904296875 0.526855469
vt 0.904296875 0.521972656
vt 0.897460938 0.521972656
vt 0.897460938 0.526855469
vt 0.897460938 0.526855469
vt 0.897460938 0.521972656
vt 0.892578125 0.521972656
vt 0.892578125 0.526855469
vt 0.847167969 0.423339844
vt 0.847167969 0.414550781
vt 0.803710938 0.414550781
vt 0.803710938 0.423339844
vt 0.805664062 0.414550781
vt 0.805664062 0.423339844
vt 0.845214844 0.423339844
vt 0.845214844 0.414550781
vt 0.80859375 0.423339844
vt 0.848144531 0.423339844
vt 0.848144531 0.414550781
vt 0.80859375 0.414550781
vt 0.800292969 0.423339844
vt 0.803710938 0.467529297
vt 0.847167969 0.467529297
vt 0.851074219 0.423339844
vt 0.800292969 0.423339844
vt 0.851074219 0.423339844
vt 0.851074219 0.414550781
vt 0.800292969 0.414550781
vt 0.995117188 0.50390625
vt 0.995117188 0.584472656
vt 0.974609375 0.584472656
vt 0.974609375 0.50390625
vt 0.995117188 0.593261719
vt 0.995117188 0.50390625
vt 0.974609375 0.50390625
vt 0.974609375 0.593261719
vt 0.995117188 0.495605469
vt 0.995117188 0.415283203
vt 0.974609375 0.415283203
vt 0.974609375 0.495605469
vt 0.974609375 0.50390625
vt 0.995117188 0.50390625
vt 0.995117188 0.406494141
vt 0.974609375 0.495361328
vt 0.974609375 0.406494141
vt 0.995117188 0.495361328
vt 0.995117188 0.50390625
vt 0.974609375 0.50390625
vt 0.91015625 0.563964844
vt 0.91015625 0.618164062
vt 0.958496094 0.618164062
vt 0.958496094 0.563964844
vt 0.870117188 0.628417969
vt 0.900390625 0.623046875
vt 0.900390625 0.562988281
vt 0.870117188 0.557617188
vt 0.828125 0.557617188
vt 0.856933594 0.611328125
vt 0.828125 0.622070312
vt 0.856933594 0.559570312
vt 0.866699219 0.610351562
vt 0.866699219 0.561035156
vt 0.870117188 0.557617188
vt 0.900390625 0.562988281
vt 0.900390625 0.623046875
vt 0.870117188 0.628417969
vt 0.8671875 0.407226562
vt 0.86328125 0.479736328
vt 0.8671875 0.481201172
vt 0.86328125 0.408447266
vt 0.868652344 0.403320312
vt 0.8671875 0.407226562
vt 0.948730469 0.407226562
vt 0.947265625 0.403320312
vt 0.952636719 0.408447266
vt 0.948730469 0.481201172
vt 0.952636719 0.479736328
vt 0.947265625 0.485107422
vt 0.8671875 0.481201172
vt 0.868652344 0.485107422
vt 0.974609375 0.584472656
vt 0.995117188 0.584472656
vt 0.995117188 0.593261719
vt 0.974609375 0.593261719
vt 0.974609375 0.415283203
vt 0.995117188 0.415283203
vt 0.995117188 0.406738281
vt 0.974609375 0.406738281
vt 0.900390625 0.562988281
vt 0.91015625 0.563964844
vt 0.91015625 0.622070312
vt 0.900390625 0.623046875
vt 0.900390625 0.623046875
vt 0.91015625 0.622070312
vt 0.91015625 0.563964844
vt 0.900390625 0.562988281
vt 0.856933594 0.611328125
vt 0.866699219 0.610351562
vt 0.866699219 0.561035156
vt 0.856933594 0.559570312
vt 0.828125 0.557617188
vt 0.828125 0.622070312
vt 0.796386719 0.481689453
vt 0.792480469 0.481689453
vt 0.792480469 0.596679688
vt 0.796386719 0.596679688
vt 0.796386719 0.487548828
vt 0.792480469 0.487548828
vt 0.792480469 0.592285156
vt 0.796386719 0.592285156
vt 0.796386719 0.481933594
vt 0.792480469 0.481933594
vt 0.792480469 0.597167969
vt 0.796386719 0.597167969
vt 0.796386719 0.487792969
vt 0.792480469 0.487792969
vt 0.792480469 0.592285156
vt 0.796386719 0.592285156
vt 0.94140625 0.413818359
vt 0.947265625 0.403320312
vt 0.868652344 0.403320312
vt 0.952636719 0.408447266
vt 0.874511719 0.413818359
vt 0.86328125 0.408447266
vt 0.86328125 0.479736328
vt 0.94140625 0.474365234
vt 0.952636719 0.479736328
vt 0.947265625 0.485107422
vt 0.874511719 0.474365234
vt 0.868652344 0.485107422
vn -1 0 0
vn -1 0 0
vn -1 0 0
vn -1 0 0
vn -0 -1 0
vn -0 -1 0
vn -0 -1 0
vn -0 -1 0
vn -0 0 1
vn -0 0 1
vn -0 0 1
vn -0 0 1
vn -0 1 0
vn -0 1 0
vn -0 1 0
vn -0 1 0
vn -0 0 -1
vn -0 0 -1
vn -0 0 -1
vn -0 0 -1
vn -1 0 0
vn -1 0 0
vn -1 0 0
vn -1 0 0
vn -1 0 0
vn -1 0 0
vn -0 -1 0
vn -0 -0.478271484 0.878417969
vn -0 -0.478271484 0.878417969
vn -0 -1 0
vn -0 -0.478271484 0.878417969
vn -0 -0.478271484 0.878417969
vn -0 0.478271484 0.878417969
vn -0 0.478271484 0.878417969
vn -0 0.478271484 0.878417969
vn -0 0.478271484 0.878417969
vn -0 1 0
vn -0 1 0
vn -0 0.478271484 -0.878417969
vn -0 0.478271484 -0.878417969
vn -0 0.478271484 -0.878417969
vn -0 0.478271484 -0.878417969
vn -0 -0.478271484 -0.878417969
vn -0 -0.478271484 -0.878417969
vn -0 -0.478271484 -0.878417969
vn -0 -0.478271484 -0.878417969
vn -0 -1 0
vn -0 -1 0
vn -1 0 0
vn -1 0 0
vn -1 0 0
vn -1 0 0
vn -1 0 0
vn -1 0 0
vn -0 -1 0
vn -0 -0.478271484 0.878417969
vn -0 -0.478271484 0.878417969
vn -0 -1 0
vn -0 -0.478271484 0.878417969
vn -0 -0.478271484 0.878417969
vn -0 0.478271484 0.878417969
vn -0 0.478271484 0.878417969
vn -0 0.478271484 0.878417969
vn -0 0.478271484 0.878417969
vn -0 1 0
vn -0 1 0
vn -0 0.478271484 -0.878417969
vn -0 0.478271484 -0.878417969
vn -0 0.478271484 -0.878417969
vn -0 0.478271484 -0.878417969
vn -0 -0.478271484 -0.878417969
vn -0 -0.478271484 -0.878417969
vn -0 -0.478271484 -0.878417969
vn -0 -0.478271484 -0.878417969
vn -0 -1 0
vn -0 -1 0
vn -1 0 0
vn -1 0 0
vn -1 0 0
vn -1 0 0
vn -1 0 0
vn -1 0 0
vn -0 -1 0
vn -0 -0.478271484 0.878417969
vn -0 -0.478271484 0.878417969
vn -0 -1 0
vn -0 -0.478271484 0.878417969
vn -0 -0.478271484 0.878417969
vn -0 0.478271484 0.878417969
vn -0 0.478271484 0.878417969
vn -0 0.478271484 0.878417969
vn -0 0.478271484 0.878417969
vn -0 1 0
vn -0 1 0
vn -0 0.478271484 -0.878417969
vn -0 0.478271484 -0.878417969
vn -0 0.478271484 -0.878417969
vn -0 0.478271484 -0.878417969
vn -0 -0.478271484 -0.878417969
vn -0 -0.478271484 -0.878417969
vn -0 -0.478271484 -0.878417969
vn -0 -0.478271484 -0.878417969
vn -0 -1 0
vn -0 -1 0
vn 1 0 0
vn 1 0 0
vn 1 0 0
vn 1 0 0
vn 0.0933227539 0 0.995605469
vn 0.0933227539 0 0.995605469
vn 0.0933227539 0 0.995605469
vn 0.0933227539 0 0.995605469
vn 0.0933227539 0 -0.995605469
vn 0.0933227539 0 -0.995605469
vn 0.0933227539 0 -0.995605469
vn 0.0933227539 0 -0.995605469
vn -0 -1 0
vn -0 -1 0
vn -0 -1 0
vn -0 -1 0
vn -1 0 0
vn -1 0 0
vn -1 0 0
vn -1 0 0
vn -0 -0.0698242188 0.997558594
vn -0 0.0698242188 0.997558594
vn -0 0.0698242188 0.997558594
vn -0 -0.0698242188 0.997558594
vn -0 0.998046875 0.063659668
vn -0 0.998046875 -0.063659668
vn -0 0.998046875 -0.063659668
vn -0 0.998046875 0.063659668
vn -0 0.0698242188 -0.997558594
vn -0 -0.0698242188 -0.997558594
vn -0 -0.0698242188 -0.997558594
vn -0 0.0698242188 -0.997558594
vn -0 0.998046875 -0.063659668
vn -0 0.998046875 -0.063659668
vn -0 -0.998046875 -0.063659668
vn -0 -0.998046875 0.063659668
vn -0 -0.998046875 -0.063659668
vn -0 -0.998046875 0.063659668
vn -0 -0.0698242188 0.997558594
vn -0 -0.0698242188 0.997558594
vn 1 0 0
vn 1 0 0
vn 1 0 0
vn 1 0 0
vn 0.346923828 0.937988281 0
vn 0.346923828 0.937988281 0
vn 0.346923828 0.937988281 0
vn 0.346923828 0.937988281 0
vn 0.179931641 0 -0.983886719
vn 0.179931641 0 -0.983886719
vn 0.179931641 0 -0.983886719
vn 0.179931641 0 -0.983886719
vn 0.140014648 0 -0.990234375
vn 0.140014648 0 -0.990234375
vn 0.0717773438 -0.997558594 0
vn 0.0717773438 -0.997558594 0
vn 0.0717773438 -0.997558594 0
vn 0.0717773438 -0.997558594 0
vn 0.285400391 0 0.958496094
vn 1 0 0
vn 0.308349609 0 0.951171875
vn 1 0 0
vn 1 0 0
vn 1 0 0
vn 1 0 0
vn 1 0 0
vn 1 0 0
vn 1 0 0
vn 1 0 0
vn 1 0 0
vn 1 0 0
vn 1 0 0
vn -0 0.0698242188 0.997558594
vn -0 0.0698242188 0.997558594
vn -0 0.998046875 0.063659668
vn -0 0.998046875 0.063659668
vn -0 -0.0698242188 -0.997558594
vn -0 -0.0698242188 -0.997558594
vn -0 -0.998046875 -0.063659668
vn -0 -0.998046875 -0.063659668
vn 0.139282227 -0.990234375 0
vn 0.139282227 -0.990234375 0
vn 0.139282227 -0.990234375 0
vn 0.139282227 -0.990234375 0
vn 0.139282227 0.990234375 0
vn 0.139282227 0.990234375 0
vn 0.139282227 0.990234375 0
vn 0.139282227 0.990234375 0
vn 0.140014648 0 0.990234375
vn 0.140014648 0 0.990234375
vn 0.140014648 0 0.990234375
vn 0.140014648 0 0.990234375
vn 0.285400391 0 0.958496094
vn 0.308349609 0 0.951171875
vn -0 1 0
vn -0 1 0
vn -0 1 0
vn -0 1 0
vn -0 0 -1
vn -0 0 -1
vn -0 0 -1
vn -0 0 -1
vn -0 -1 0
vn -0 -1 0
vn -0 -1 0
vn -0 -1 0
vn -0 0 1
vn -0 0 1
vn -0 0 1
vn -0 0 1
vn -1 0 0
vn -1 2.38418579E-07 0
vn -1 2.38418579E-07 0
vn -1 0 0
vn -1 0 0
vn -1 0 0
vn -1 0 0
vn -1 0 0
vn -1 0 0
vn -1 -4.17232513E-07 0
vn -1 -4.17232513E-07 0
vn -1 -4.17232513E-07 0
g IS4_SalaControl_MonitorT1_1_0
f 3/3/3 2/2/2 1/1/1
f 4/4/4 3/3/3 1/1/1
f 7/7/7 6/6/6 5/5/5
f 8/8/8 7/7/7 5/5/5
f 11/11/11 10/10/10 9/9/9
f 12/12/12 11/11/11 9/9/9
f 15/15/15 14/14/14 13/13/13
f 16/16/16 15/15/15 13/13/13
f 19/19/19 18/18/18 17/17/17
f 20/20/20 19/19/19 17/17/17
f 23/23/23 22/22/22 21/21/21
f 24/24/24 23/23/23 21/21/21
f 24/24/24 21/21/21 25/25/25
f 21/21/21 26/26/26 25/25/25
f 29/29/29 28/28/28 27/27/27
f 30/30/30 29/29/29 27/27/27
f 33/33/33 32/32/32 31/31/31
f 34/34/34 33/33/33 31/31/31
f 37/37/37 36/36/36 35/35/35
f 38/38/38 37/37/37 35/35/35
f 38/38/38 39/39/39 37/37/37
f 39/39/39 40/40/40 37/37/37
f 43/43/43 42/42/42 41/41/41
f 44/44/44 43/43/43 41/41/41
f 47/47/47 46/46/46 45/45/45
f 48/48/48 47/47/47 45/45/45
f 51/51/51 50/50/50 49/49/49
f 52/52/52 51/51/51 49/49/49
f 52/52/52 49/49/49 53/53/53
f 49/49/49 54/54/54 53/53/53
f 57/57/57 56/56/56 55/55/55
f 58/58/58 57/57/57 55/55/55
f 61/61/61 60/60/60 59/59/59
f 62/62/62 61/61/61 59/59/59
f 65/65/65 64/64/64 63/63/63
f 66/66/66 65/65/65 63/63/63
f 66/66/66 67/67/67 65/65/65
f 67/67/67 68/68/68 65/65/65
f 71/71/71 70/70/70 69/69/69
f 72/72/72 71/71/71 69/69/69
f 75/75/75 74/74/74 73/73/73
f 76/76/76 75/75/75 73/73/73
f 79/79/79 78/78/78 77/77/77
f 80/80/80 79/79/79 77/77/77
f 80/80/80 77/77/77 81/81/81
f 77/77/77 82/82/82 81/81/81
f 85/85/85 84/84/84 83/83/83
f 86/86/86 85/85/85 83/83/83
f 89/89/89 88/88/88 87/87/87
f 90/90/90 89/89/89 87/87/87
f 93/93/93 92/92/92 91/91/91
f 94/94/94 93/93/93 91/91/91
f 94/94/94 95/95/95 93/93/93
f 95/95/95 96/96/96 93/93/93
f 99/99/99 98/98/98 97/97/97
f 100/100/100 99/99/99 97/97/97
f 103/103/103 102/102/102 101/101/101
f 104/104/104 103/103/103 101/101/101
f 107/107/107 106/106/106 105/105/105
f 108/108/108 107/107/107 105/105/105
f 111/111/111 110/110/110 109/109/109
f 112/112/112 111/111/111 109/109/109
f 115/115/115 114/114/114 113/113/113
f 116/116/116 115/115/115 113/113/113
f 119/119/119 118/118/118 117/117/117
f 120/120/120 119/119/119 117/117/117
f 123/123/123 122/122/122 121/121/121
f 124/124/124 123/123/123 121/121/121
f 127/127/127 126/126/126 125/125/125
f 128/128/128 127/127/127 125/125/125
f 131/131/131 130/130/130 129/129/129
f 132/132/132 131/131/131 129/129/129
f 135/135/135 134/134/134 133/133/133
f 136/136/136 135/135/135 133/133/133
f 136/136/136 133/133/133 137/137/137
f 133/133/133 138/138/138 137/137/137
f 141/141/141 140/140/140 139/139/139
f 140/140/140 142/142/142 139/139/139
f 142/142/142 140/140/140 143/143/143
f 140/140/140 144/144/144 143/143/143
f 147/147/147 146/146/146 145/145/145
f 148/148/148 147/147/147 145/145/145
f 151/151/151 150/150/150 149/149/149
f 152/152/152 151/151/151 149/149/149
f 155/155/155 154/154/154 153/153/153
f 154/154/154 156/156/156 153/153/153
f 154/154/154 157/157/157 156/156/156
f 157/157/157 158/158/158 156/156/156
f 161/161/161 160/160/160 159/159/159
f 162/162/162 161/161/161 159/159/159
f 165/165/165 164/164/164 163/163/163
f 164/164/164 166/166/166 163/163/163
f 168/168/168 166/166/166 167/167/167
f 168/168/168 167/167/167 169/169/169
f 167/167/167 170/170/170 169/169/169
f 171/171/171 169/169/169 170/170/170
f 169/169/169 171/171/171 172/172/172
f 171/171/171 173/173/173 172/172/172
f 174/174/174 172/172/172 173/173/173
f 172/172/172 174/174/174 175/175/175
f 164/164/164 175/175/175 176/176/176
f 174/174/174 176/176/176 175/175/175
f 179/179/179 178/178/178 177/177/177
f 180/180/180 179/179/179 177/177/177
f 183/183/183 182/182/182 181/181/181
f 184/184/184 183/183/183 181/181/181
f 187/187/187 186/186/186 185/185/185
f 188/188/188 187/187/187 185/185/185
f 191/191/191 190/190/190 189/189/189
f 192/192/192 191/191/191 189/189/189
f 195/195/195 194/194/194 193/193/193
f 196/196/196 195/195/195 193/193/193
f 197/197/197 196/196/196 193/193/193
f 198/198/198 197/197/197 193/193/193
f 201/201/201 200/200/200 199/199/199
f 202/202/202 201/201/201 199/199/199
f 205/205/205 204/204/204 203/203/203
f 206/206/206 205/205/205 203/203/203
f 209/209/209 208/208/208 207/207/207
f 210/210/210 209/209/209 207/207/207
f 213/213/213 212/212/212 211/211/211
f 214/214/214 213/213/213 211/211/211
f 217/217/217 216/216/216 215/215/215
f 218/218/218 215/215/215 216/216/216
f 219/219/219 217/217/217 215/215/215
f 219/219/219 220/220/220 217/217/217
f 221/221/221 220/220/220 219/219/219
f 215/215/215 218/218/218 222/222/222
f 218/218/218 223/223/223 222/222/222
f 222/222/222 223/223/223 224/224/224
f 225/225/225 221/221/221 219/219/219
f 222/222/222 224/224/224 225/225/225
f 225/225/225 226/226/226 221/221/221
f 224/224/224 226/226/226 225/225/225
