g ChargeBase_Braker_1_Base
v -0.0464703888 0.00229824637 0.0671394318
v -0.046508003 -0.0056908736 0.0637305975
v -0.0385238416 -0.0056908736 0.0636423826
v -0.0384862311 0.00229824637 0.067051217
v -0.0384862311 0.00229824637 0.067051217
v -0.0382832885 -0.00553790433 0.085413985
v -0.0462674461 -0.00553790433 0.0855021998
v -0.0464703888 0.00229824637 0.0671394318
v -0.0383209772 -0.0135269482 0.0820051581
v -0.0463051349 -0.0135269482 0.0820933729
v -0.0462674461 -0.00553790433 0.0855021998
v -0.0382832885 -0.00553790433 0.085413985
v 0.0397929586 0.00229824637 0.0661863089
v 0.0397552699 -0.0056908736 0.062777482
v 0.0477395095 -0.0056908736 0.0626892671
v 0.0477771237 0.00229824637 0.066098094
v 0.0477771237 0.00229824637 0.066098094
v 0.0479800627 -0.00553790433 0.0844608694
v 0.0399958231 -0.00553790433 0.0845490843
v 0.0397929586 0.00229824637 0.0661863089
v 0.0479423739 -0.0135269482 0.0810520351
v 0.0399581343 -0.0135269482 0.08114025
v 0.0399958231 -0.00553790433 0.0845490843
v 0.0479800627 -0.00553790433 0.0844608694
v 0.0759708658 0.013784986 0.0177843869
v 0.0759843662 0.0166490618 0.0190064255
v 0.0757461786 0.0258472096 -0.00254806294
v 0.0757326707 0.0229831357 -0.00377010135
v 0.046740897 0.0399344303 0.0224032234
v 0.0466310345 0.0441778973 0.012459185
v 0.0488380678 0.0441778973 0.0124348085
v 0.0489478521 0.0399344303 0.022378847
v 0.0467776731 0.0316515006 0.0257312786
v 0.0466934443 0.013784986 0.0181078743
v 0.0464553311 0.0229831357 -0.00344661507
v 0.04653956 0.0408496521 0.00417679036
v 0.046740897 0.0399344303 0.0224032234
v 0.0466310345 0.0441778973 0.012459185
v 0.0489139035 0.0166490618 0.0193054974
v 0.0759843662 0.0166490618 0.0190064255
v 0.0759708658 0.013784986 0.0177843869
v 0.0466934443 0.013784986 0.0181078743
v 0.0759843662 0.0166490618 0.0190064255
v 0.0489139035 0.0166490618 0.0193054974
v 0.0486757904 0.0258472096 -0.00224899058
v 0.0757461786 0.0258472096 -0.00254806294
v 0.0489846282 0.0316515006 0.025706904
v 0.0489478521 0.0399344303 0.022378847
v 0.0488380678 0.0441778973 0.0124348085
v 0.0487465151 0.0408496521 0.00415241439
v 0.0489139035 0.0166490618 0.0193054974
v 0.0486757904 0.0258472096 -0.00224899058
v 0.04653956 0.0408496521 0.00417679036
v 0.0464553311 0.0229831357 -0.00344661507
v 0.0486757904 0.0258472096 -0.00224899058
v 0.0487465151 0.0408496521 0.00415241439
v 0.0488380678 0.0441778973 0.0124348085
v 0.0466310345 0.0441778973 0.012459185
v 0.04653956 0.0408496521 0.00417679036
v 0.0487465151 0.0408496521 0.00415241439
v 0.0489846282 0.0316515006 0.025706904
v 0.0467776731 0.0316515006 0.0257312786
v 0.046740897 0.0399344303 0.0224032234
v 0.0489478521 0.0399344303 0.022378847
v 0.0489139035 0.0166490618 0.0193054974
v 0.0466934443 0.013784986 0.0181078743
v 0.0467776731 0.0316515006 0.0257312786
v 0.0489846282 0.0316515006 0.025706904
v 0.0757326707 0.0229831357 -0.00377010135
v 0.0757461786 0.0258472096 -0.00254806294
v 0.0486757904 0.0258472096 -0.00224899058
v 0.0464553311 0.0229831357 -0.00344661507
v -0.0476973467 0.0496890694 -0.0439139158
v -0.039713189 0.0496890694 -0.044002112
v -0.0397508778 0.0417000242 -0.047410965
v -0.0477350354 0.0417000242 -0.0473227315
v -0.039713189 0.0496890694 -0.044002112
v -0.0476973467 0.0496890694 -0.0439139158
v -0.0479002148 0.0575252175 -0.0622766875
v -0.0399160534 0.0575252175 -0.062364921
v -0.0399537422 0.049536176 -0.065773733
v -0.0399160534 0.0575252175 -0.062364921
v -0.0479002148 0.0575252175 -0.0622766875
v -0.0479379036 0.049536176 -0.0656855404
v 0.0385660008 0.0496890694 -0.0448670201
v 0.0465501621 0.0496890694 -0.0449552536
v 0.0465125516 0.0417000242 -0.0483640656
v 0.038528312 0.0417000242 -0.0482758693
v 0.0465501621 0.0496890694 -0.0449552536
v 0.0385660008 0.0496890694 -0.0448670201
v 0.0383630581 0.0575252175 -0.0632297918
v 0.0463472977 0.0575252175 -0.0633180216
v 0.046309609 0.049536176 -0.0667268336
v 0.0463472977 0.0575252175 -0.0633180216
v 0.0383630581 0.0575252175 -0.0632297918
v 0.0383254439 0.049536176 -0.0666386411
v 0.100312673 -0.0619398803 0.144056201
v 0.0815044567 -0.0365513191 0.135724068
v 0.080139406 0.01617047 0.0121785756
v 0.0987738967 -0.00250789034 0.0047863028
v 0.078659229 0.0733417943 -0.121793747
v 0.0971052721 0.0619398914 -0.146237448
v -0.0798507407 0.01617047 0.0139462687
v 0.00121980952 0.01617047 0.0130505394
v 0.00258486089 -0.0365513191 0.136596024
v -0.0784856901 -0.0365513191 0.137491778
v -0.0784856901 -0.0365513191 0.137491778
v -0.0971053839 -0.0619398803 0.146237448
v -0.0986439288 -0.00250789034 0.00696754688
v -0.0798507407 0.01617047 0.0139462687
v -0.0813309997 0.0733417943 -0.120026015
v -0.100312784 0.0619398914 -0.144056201
v -0.00027661986 0.0619398914 -0.14516151
v -0.0813309997 0.0733417943 -0.120026015
v -0.100312784 0.0619398914 -0.144056201
v -0.000260445551 0.0733417943 -0.120921746
v 0.0971052721 0.0619398914 -0.146237448
v 0.078659229 0.0733417943 -0.121793747
v -0.0784856901 -0.0365513191 0.137491778
v 0.00293077761 -0.0619398803 0.145132154
v -0.0971053839 -0.0619398803 0.146237448
v 0.00258486089 -0.0365513191 0.136596024
v 0.100312673 -0.0619398803 0.144056201
v 0.0815044567 -0.0365513191 0.135724068
v -0.00954465568 -0.0135093248 0.0826972723
v -0.0095311515 -0.0106453262 0.0839193165
v -0.00976926461 -0.00144717586 0.0623648241
v -0.00978276879 -0.00431117415 0.0611427873
v -0.0387745425 0.0126400432 0.0873161331
v -0.0388844088 0.016883513 0.077372089
v -0.0366774537 0.016883513 0.0773476958
v -0.0365675129 0.0126400432 0.0872917324
v -0.0387377702 0.0043571149 0.0906441882
v -0.038821999 -0.0135093248 0.0830207616
v -0.0390601903 -0.00431117415 0.0614662729
v -0.0389759615 0.013555265 0.0690896958
v -0.0387745425 0.0126400432 0.0873161331
v -0.0388844088 0.016883513 0.077372089
v -0.0366015397 -0.0106453262 0.0842184052
v -0.0095311515 -0.0106453262 0.0839193165
v -0.00954465568 -0.0135093248 0.0826972723
v -0.038821999 -0.0135093248 0.0830207616
v -0.0095311515 -0.0106453262 0.0839193165
v -0.0366015397 -0.0106453262 0.0842184052
v -0.036839731 -0.00144717586 0.0626639351
v -0.00976926461 -0.00144717586 0.0623648241
v -0.0365308151 0.0043571149 0.0906197876
v -0.0365675129 0.0126400432 0.0872917324
v -0.0366774537 0.016883513 0.0773476958
v -0.0367690064 0.013555265 0.0690653026
v -0.0366015397 -0.0106453262 0.0842184052
v -0.036839731 -0.00144717586 0.0626639351
v -0.0389759615 0.013555265 0.0690896958
v -0.0390601903 -0.00431117415 0.0614662729
v -0.036839731 -0.00144717586 0.0626639351
v -0.0367690064 0.013555265 0.0690653026
v -0.0366774537 0.016883513 0.0773476958
v -0.0388844088 0.016883513 0.077372089
v -0.0389759615 0.013555265 0.0690896958
v -0.0367690064 0.013555265 0.0690653026
v -0.0365308151 0.0043571149 0.0906197876
v -0.0387377702 0.0043571149 0.0906441882
v -0.0387745425 0.0126400432 0.0873161331
v -0.0365675129 0.0126400432 0.0872917324
v -0.0366015397 -0.0106453262 0.0842184052
v -0.038821999 -0.0135093248 0.0830207616
v -0.0387377702 0.0043571149 0.0906441882
v -0.0365308151 0.0043571149 0.0906197876
v -0.00978276879 -0.00431117415 0.0611427873
v -0.00976926461 -0.00144717586 0.0623648241
v -0.036839731 -0.00144717586 0.0626639351
v -0.0390601903 -0.00431117415 0.0614662729
v -0.075090766 -0.00431117415 0.0618643761
v -0.07507734 -0.00144717586 0.0630864128
v -0.0748391449 -0.0106453262 0.0846409053
v -0.0748525709 -0.0135093248 0.0834188834
v -0.0456377156 0.016883513 0.0774467066
v -0.0455278531 0.0126400432 0.0873907432
v -0.0477348082 0.0126400432 0.0874151364
v -0.0478446707 0.016883513 0.0774710998
v -0.0457291938 0.013555265 0.0691643134
v -0.0458134227 -0.00431117415 0.0615409091
v -0.0455753095 -0.0135093248 0.0830953941
v -0.0454910807 0.0043571149 0.0907187983
v -0.0456377156 0.016883513 0.0774467066
v -0.0455278531 0.0126400432 0.0873907432
v -0.0480069481 -0.00144717586 0.0627873242
v -0.07507734 -0.00144717586 0.0630864128
v -0.075090766 -0.00431117415 0.0618643761
v -0.0458134227 -0.00431117415 0.0615409091
v -0.07507734 -0.00144717586 0.0630864128
v -0.0480069481 -0.00144717586 0.0627873242
v -0.0477687605 -0.0106453262 0.0843418092
v -0.0748391449 -0.0106453262 0.0846409053
v -0.0479361489 0.013555265 0.0691887066
v -0.0478446707 0.016883513 0.0774710998
v -0.0477348082 0.0126400432 0.0874151364
v -0.0476980358 0.0043571149 0.0907431766
v -0.0480069481 -0.00144717586 0.0627873242
v -0.0477687605 -0.0106453262 0.0843418092
v -0.0454910807 0.0043571149 0.0907187983
v -0.0455753095 -0.0135093248 0.0830953941
v -0.0477687605 -0.0106453262 0.0843418092
v -0.0476980358 0.0043571149 0.0907431766
v -0.0477348082 0.0126400432 0.0874151364
v -0.0455278531 0.0126400432 0.0873907432
v -0.0454910807 0.0043571149 0.0907187983
v -0.0476980358 0.0043571149 0.0907431766
v -0.0479361489 0.013555265 0.0691887066
v -0.0457291938 0.013555265 0.0691643134
v -0.0456377156 0.016883513 0.0774467066
v -0.0478446707 0.016883513 0.0774710998
v -0.0480069481 -0.00144717586 0.0627873242
v -0.0458134227 -0.00431117415 0.0615409091
v -0.0457291938 0.013555265 0.0691643134
v -0.0479361489 0.013555265 0.0691887066
v -0.0748525709 -0.0135093248 0.0834188834
v -0.0748391449 -0.0106453262 0.0846409053
v -0.0477687605 -0.0106453262 0.0843418092
v -0.0455753095 -0.0135093248 0.0830953941
v -0.0757975504 0.0229831357 -0.00209586858
v -0.075783968 0.0258472096 -0.00087383046
v -0.0755457804 0.0166490618 0.0206806585
v -0.0755593628 0.013784986 0.0194586199
v -0.046344351 0.0441778973 0.0134864636
v -0.046234563 0.0399344303 0.023430502
v -0.0484415181 0.0399344303 0.0234548785
v -0.0485513061 0.0441778973 0.01351084
v -0.0464359038 0.0408496521 0.00520406943
v -0.0465201326 0.0229831357 -0.00241935509
v -0.0462819412 0.013784986 0.0191351343
v -0.0461977124 0.0316515006 0.026758559
v -0.046344351 0.0441778973 0.0134864636
v -0.046234563 0.0399344303 0.023430502
v -0.0487135835 0.0258472096 -0.00117292174
v -0.075783968 0.0258472096 -0.00087383046
v -0.0757975504 0.0229831357 -0.00209586858
v -0.0465201326 0.0229831357 -0.00241935509
v -0.075783968 0.0258472096 -0.00087383046
v -0.0487135835 0.0258472096 -0.00117292174
v -0.0484754704 0.0166490618 0.0203815661
v -0.0755457804 0.0166490618 0.0206806585
v -0.0486428589 0.0408496521 0.0052284454
v -0.0485513061 0.0441778973 0.01351084
v -0.0484415181 0.0399344303 0.0234548785
v -0.0484047458 0.0316515006 0.0267829336
v -0.0487135835 0.0258472096 -0.00117292174
v -0.0484754704 0.0166490618 0.0203815661
v -0.0461977124 0.0316515006 0.026758559
v -0.0462819412 0.013784986 0.0191351343
v -0.0484754704 0.0166490618 0.0203815661
v -0.0484047458 0.0316515006 0.0267829336
v -0.0484415181 0.0399344303 0.0234548785
v -0.046234563 0.0399344303 0.023430502
v -0.0461977124 0.0316515006 0.026758559
v -0.0484047458 0.0316515006 0.0267829336
v -0.0486428589 0.0408496521 0.0052284454
v -0.0464359038 0.0408496521 0.00520406943
v -0.046344351 0.0441778973 0.0134864636
v -0.0485513061 0.0441778973 0.01351084
v -0.0487135835 0.0258472096 -0.00117292174
v -0.0465201326 0.0229831357 -0.00241935509
v -0.0464359038 0.0408496521 0.00520406943
v -0.0486428589 0.0408496521 0.0052284454
v -0.0755593628 0.013784986 0.0194586199
v -0.0755457804 0.0166490618 0.0206806585
v -0.0484754704 0.0166490618 0.0203815661
v -0.0462819412 0.013784986 0.0191351343
v -0.0765041858 0.0502775237 -0.0660560951
v -0.0764906034 0.0531415977 -0.0648340955
v -0.0762525648 0.0439433716 -0.0432796106
v -0.0762659982 0.0410793722 -0.0445016101
v -0.0470510609 0.0714722872 -0.0504737832
v -0.0469411202 0.0672288164 -0.0405297466
v -0.0491481535 0.0672288164 -0.040505372
v -0.0492580943 0.0714722872 -0.0504494086
v -0.0471426137 0.0681440383 -0.0587561801
v -0.0472268425 0.0502775237 -0.0663795844
v -0.0469886549 0.0410793722 -0.0448250957
v -0.0469044261 0.0589458868 -0.0372016877
v -0.0470510609 0.0714722872 -0.0504737832
v -0.0469411202 0.0672288164 -0.0405297466
v -0.0494202934 0.0531415977 -0.0651331693
v -0.0764906034 0.0531415977 -0.0648340955
v -0.0765041858 0.0502775237 -0.0660560951
v -0.0472268425 0.0502775237 -0.0663795844
v -0.0764906034 0.0531415977 -0.0648340955
v -0.0494202934 0.0531415977 -0.0651331693
v -0.0491821058 0.0439433716 -0.0435786806
v -0.0762525648 0.0439433716 -0.0432796106
v -0.0493494943 0.0681440383 -0.0587318018
v -0.0492580943 0.0714722872 -0.0504494086
v -0.0491481535 0.0672288164 -0.040505372
v -0.0491114557 0.0589458868 -0.0371773131
v -0.0494202934 0.0531415977 -0.0651331693
v -0.0491821058 0.0439433716 -0.0435786806
v -0.0469044261 0.0589458868 -0.0372016877
v -0.0469886549 0.0410793722 -0.0448250957
v -0.0491821058 0.0439433716 -0.0435786806
v -0.0491114557 0.0589458868 -0.0371773131
v -0.0491481535 0.0672288164 -0.040505372
v -0.0469411202 0.0672288164 -0.0405297466
v -0.0469044261 0.0589458868 -0.0372016877
v -0.0491114557 0.0589458868 -0.0371773131
v -0.0493494943 0.0681440383 -0.0587318018
v -0.0471426137 0.0681440383 -0.0587561801
v -0.0470510609 0.0714722872 -0.0504737832
v -0.0492580943 0.0714722872 -0.0504494086
v -0.0494202934 0.0531415977 -0.0651331693
v -0.0472268425 0.0502775237 -0.0663795844
v -0.0471426137 0.0681440383 -0.0587561801
v -0.0493494943 0.0681440383 -0.0587318018
v -0.0762659982 0.0410793722 -0.0445016101
v -0.0762525648 0.0439433716 -0.0432796106
v -0.0491821058 0.0439433716 -0.0435786806
v -0.0469886549 0.0410793722 -0.0448250957
v 0.0111056734 -0.00431117415 0.0609120168
v 0.0111191766 -0.00144717586 0.0621340349
v 0.011357367 -0.0106453262 0.0836885273
v 0.0113438629 -0.0135093248 0.0824665055
v 0.0405588001 0.016883513 0.0764943287
v 0.0406686626 0.0126400432 0.0864383653
v 0.0384617075 0.0126400432 0.0864627659
v 0.0383518413 0.016883513 0.0765187219
v 0.0404673219 0.013555265 0.0682119355
v 0.0403830931 -0.00431117415 0.0605885312
v 0.0406212099 -0.0135093248 0.0821430162
v 0.040705435 0.0043571149 0.0897664204
v 0.0405588001 0.016883513 0.0764943287
v 0.0406686626 0.0126400432 0.0864383653
v 0.0381896421 -0.00144717586 0.0618349425
v 0.0111191766 -0.00144717586 0.0621340349
v 0.0111056734 -0.00431117415 0.0609120168
v 0.0403830931 -0.00431117415 0.0605885312
v 0.0111191766 -0.00144717586 0.0621340349
v 0.0381896421 -0.00144717586 0.0618349425
v 0.0384277552 -0.0106453262 0.0833894312
v 0.011357367 -0.0106453262 0.0836885273
v 0.0382603668 0.013555265 0.0682363287
v 0.0383518413 0.016883513 0.0765187219
v 0.0384617075 0.0126400432 0.0864627659
v 0.0384984799 0.0043571149 0.0897908211
v 0.0381896421 -0.00144717586 0.0618349425
v 0.0384277552 -0.0106453262 0.0833894312
v 0.040705435 0.0043571149 0.0897664204
v 0.0406212099 -0.0135093248 0.0821430162
v 0.0384277552 -0.0106453262 0.0833894312
v 0.0384984799 0.0043571149 0.0897908211
v 0.0384617075 0.0126400432 0.0864627659
v 0.0406686626 0.0126400432 0.0864383653
v 0.040705435 0.0043571149 0.0897664204
v 0.0384984799 0.0043571149 0.0897908211
v 0.0382603668 0.013555265 0.0682363287
v 0.0404673219 0.013555265 0.0682119355
v 0.0405588001 0.016883513 0.0764943287
v 0.0383518413 0.016883513 0.0765187219
v 0.0381896421 -0.00144717586 0.0618349425
v 0.0403830931 -0.00431117415 0.0605885312
v 0.0404673219 0.013555265 0.0682119355
v 0.0382603668 0.013555265 0.0682363287
v 0.0113438629 -0.0135093248 0.0824665055
v 0.011357367 -0.0106453262 0.0836885273
v 0.0384277552 -0.0106453262 0.0833894312
v 0.0406212099 -0.0135093248 0.0821430162
v 0.0766774938 -0.0135093248 0.0817446336
v 0.0766910017 -0.0106453262 0.082966648
v 0.0764528885 -0.00144717586 0.0614121631
v 0.0764393806 -0.00431117415 0.0601901412
v 0.0474476106 0.0126400432 0.0863634646
v 0.0473377444 0.016883513 0.076419428
v 0.0495446995 0.016883513 0.0763950348
v 0.0496546403 0.0126400432 0.0863390714
v 0.047484383 0.0043571149 0.0896915197
v 0.0474001542 -0.0135093248 0.0820681006
v 0.0471619628 -0.00431117415 0.0605136082
v 0.0472461917 0.013555265 0.0681370348
v 0.0474476106 0.0126400432 0.0863634646
v 0.0473377444 0.016883513 0.076419428
v 0.0496206135 -0.0106453262 0.0832657591
v 0.0766910017 -0.0106453262 0.082966648
v 0.0766774938 -0.0135093248 0.0817446336
v 0.0474001542 -0.0135093248 0.0820681006
v 0.0766910017 -0.0106453262 0.082966648
v 0.0496206135 -0.0106453262 0.0832657591
v 0.0493824221 -0.00144717586 0.0617112704
v 0.0764528885 -0.00144717586 0.0614121631
v 0.0496913381 0.0043571149 0.0896671265
v 0.0496546403 0.0126400432 0.0863390714
v 0.0495446995 0.016883513 0.0763950348
v 0.0494531468 0.013555265 0.0681126416
v 0.0496206135 -0.0106453262 0.0832657591
v 0.0493824221 -0.00144717586 0.0617112704
v 0.0472461917 0.013555265 0.0681370348
v 0.0471619628 -0.00431117415 0.0605136082
v 0.0493824221 -0.00144717586 0.0617112704
v 0.0494531468 0.013555265 0.0681126416
v 0.0495446995 0.016883513 0.0763950348
v 0.0473377444 0.016883513 0.076419428
v 0.0472461917 0.013555265 0.0681370348
v 0.0494531468 0.013555265 0.0681126416
v 0.0496913381 0.0043571149 0.0896671265
v 0.047484383 0.0043571149 0.0896915197
v 0.0474476106 0.0126400432 0.0863634646
v 0.0496546403 0.0126400432 0.0863390714
v 0.0496206135 -0.0106453262 0.0832657591
v 0.0474001542 -0.0135093248 0.0820681006
v 0.047484383 0.0043571149 0.0896915197
v 0.0496913381 0.0043571149 0.0896671265
v 0.0764393806 -0.00431117415 0.0601901412
v 0.0764528885 -0.00144717586 0.0614121631
v 0.0493824221 -0.00144717586 0.0617112704
v 0.0471619628 -0.00431117415 0.0605136082
v 0.00969240442 0.0502775237 -0.067008473
v 0.00970583223 0.0531415977 -0.0657864362
v 0.0099440217 0.0439433716 -0.0442319475
v 0.00993051846 0.0410793722 -0.0454539843
v 0.039145451 0.0714722872 -0.0514261611
v 0.0392553136 0.0672288164 -0.0414821245
v 0.0370483622 0.0672288164 -0.0414577462
v 0.0369384214 0.0714722872 -0.0514017865
v 0.0390539765 0.0681440383 -0.0597085543
v 0.0389697477 0.0502775237 -0.0673319623
v 0.0392078608 0.0410793722 -0.0457774736
v 0.0392920896 0.0589458868 -0.0381540656
v 0.039145451 0.0714722872 -0.0514261611
v 0.0392553136 0.0672288164 -0.0414821245
v 0.0367762968 0.0531415977 -0.0660855472
v 0.00970583223 0.0531415977 -0.0657864362
v 0.00969240442 0.0502775237 -0.067008473
v 0.0389697477 0.0502775237 -0.0673319623
v 0.00970583223 0.0531415977 -0.0657864362
v 0.0367762968 0.0531415977 -0.0660855472
v 0.0370144099 0.0439433716 -0.0445310585
v 0.0099440217 0.0439433716 -0.0442319475
v 0.0368470214 0.0681440383 -0.0596841797
v 0.0369384214 0.0714722872 -0.0514017865
v 0.0370483622 0.0672288164 -0.0414577462
v 0.0370851345 0.0589458868 -0.0381296873
v 0.0367762968 0.0531415977 -0.0660855472
v 0.0370144099 0.0439433716 -0.0445310585
v 0.0392920896 0.0589458868 -0.0381540656
v 0.0392078608 0.0410793722 -0.0457774736
v 0.0370144099 0.0439433716 -0.0445310585
v 0.0370851345 0.0589458868 -0.0381296873
v 0.0370483622 0.0672288164 -0.0414577462
v 0.0392553136 0.0672288164 -0.0414821245
v 0.0392920896 0.0589458868 -0.0381540656
v 0.0370851345 0.0589458868 -0.0381296873
v 0.0368470214 0.0681440383 -0.0596841797
v 0.0390539765 0.0681440383 -0.0597085543
v 0.039145451 0.0714722872 -0.0514261611
v 0.0369384214 0.0714722872 -0.0514017865
v 0.0367762968 0.0531415977 -0.0660855472
v 0.0389697477 0.0502775237 -0.0673319623
v 0.0390539765 0.0681440383 -0.0597085543
v 0.0368470214 0.0681440383 -0.0596841797
v 0.00993051846 0.0410793722 -0.0454539843
v 0.0099440217 0.0439433716 -0.0442319475
v 0.0370144099 0.0439433716 -0.0445310585
v 0.0392078608 0.0410793722 -0.0457774736
v 0.0752640739 0.0410793722 -0.0461758785
v 0.0752775818 0.0439433716 -0.0449538417
v 0.0750394687 0.0531415977 -0.0665083304
v 0.0750259608 0.0502775237 -0.0677303299
v 0.0460341871 0.0672288164 -0.0415570065
v 0.0459242463 0.0714722872 -0.0515010431
v 0.0481312014 0.0714722872 -0.0515254587
v 0.0482411422 0.0672288164 -0.0415814184
v 0.0460709594 0.0589458868 -0.0382289477
v 0.0459867306 0.0410793722 -0.0458523929
v 0.045748543 0.0502775237 -0.0674068853
v 0.0458327718 0.0681440383 -0.0597834401
v 0.0460341871 0.0672288164 -0.0415570065
v 0.0459242463 0.0714722872 -0.0515010431
v 0.0482071899 0.0439433716 -0.0446547307
v 0.0752775818 0.0439433716 -0.0449538417
v 0.0752640739 0.0410793722 -0.0461758785
v 0.0459867306 0.0410793722 -0.0458523929
v 0.0752775818 0.0439433716 -0.0449538417
v 0.0482071899 0.0439433716 -0.0446547307
v 0.0479690768 0.0531415977 -0.0662092194
v 0.0750394687 0.0531415977 -0.0665083304
v 0.0482779145 0.0589458868 -0.0382533595
v 0.0482411422 0.0672288164 -0.0415814184
v 0.0481312014 0.0714722872 -0.0515254587
v 0.0480398014 0.0681440383 -0.0598078519
v 0.0482071899 0.0439433716 -0.0446547307
v 0.0479690768 0.0531415977 -0.0662092194
v 0.0458327718 0.0681440383 -0.0597834401
v 0.045748543 0.0502775237 -0.0674068853
v 0.0479690768 0.0531415977 -0.0662092194
v 0.0480398014 0.0681440383 -0.0598078519
v 0.0481312014 0.0714722872 -0.0515254587
v 0.0459242463 0.0714722872 -0.0515010431
v 0.0458327718 0.0681440383 -0.0597834401
v 0.0480398014 0.0681440383 -0.0598078519
v 0.0482779145 0.0589458868 -0.0382533595
v 0.0460709594 0.0589458868 -0.0382289477
v 0.0460341871 0.0672288164 -0.0415570065
v 0.0482411422 0.0672288164 -0.0415814184
v 0.0482071899 0.0439433716 -0.0446547307
v 0.0459867306 0.0410793722 -0.0458523929
v 0.0460709594 0.0589458868 -0.0382289477
v 0.0482779145 0.0589458868 -0.0382533595
v 0.0750259608 0.0502775237 -0.0677303299
v 0.0750394687 0.0531415977 -0.0665083304
v 0.0479690768 0.0531415977 -0.0662092194
v 0.045748543 0.0502775237 -0.0674068853
v -0.0109579246 0.0410793722 -0.0452231951
v -0.0109444978 0.0439433716 -0.0440011583
v -0.0111826872 0.0531415977 -0.065555647
v -0.0111961151 0.0502775237 -0.0667776838
v -0.0401878878 0.0672288164 -0.0406043604
v -0.0402978286 0.0714722872 -0.0505484007
v -0.038090799 0.0714722872 -0.0505727753
v -0.037981011 0.0672288164 -0.040628776
v -0.04015119 0.0589458868 -0.0372763015
v -0.0402354188 0.0410793722 -0.0448997095
v -0.0404734537 0.0502775237 -0.0664542019
v -0.0403892286 0.0681440383 -0.0588307939
v -0.0401878878 0.0672288164 -0.0406043604
v -0.0402978286 0.0714722872 -0.0505484007
v -0.0380148105 0.0439433716 -0.0437020473
v -0.0109444978 0.0439433716 -0.0440011583
v -0.0109579246 0.0410793722 -0.0452231951
v -0.0402354188 0.0410793722 -0.0448997095
v -0.0109444978 0.0439433716 -0.0440011583
v -0.0380148105 0.0439433716 -0.0437020473
v -0.0382529981 0.0531415977 -0.0652565733
v -0.0111826872 0.0531415977 -0.065555647
v -0.0379441604 0.0589458868 -0.0373006798
v -0.037981011 0.0672288164 -0.040628776
v -0.038090799 0.0714722872 -0.0505727753
v -0.0381823517 0.0681440383 -0.0588551685
v -0.0380148105 0.0439433716 -0.0437020473
v -0.0382529981 0.0531415977 -0.0652565733
v -0.0403892286 0.0681440383 -0.0588307939
v -0.0404734537 0.0502775237 -0.0664542019
v -0.0382529981 0.0531415977 -0.0652565733
v -0.0381823517 0.0681440383 -0.0588551685
v -0.038090799 0.0714722872 -0.0505727753
v -0.0402978286 0.0714722872 -0.0505484007
v -0.0403892286 0.0681440383 -0.0588307939
v -0.0381823517 0.0681440383 -0.0588551685
v -0.0379441604 0.0589458868 -0.0373006798
v -0.04015119 0.0589458868 -0.0372763015
v -0.0401878878 0.0672288164 -0.0406043604
v -0.037981011 0.0672288164 -0.040628776
v -0.0380148105 0.0439433716 -0.0437020473
v -0.0402354188 0.0410793722 -0.0448997095
v -0.04015119 0.0589458868 -0.0372763015
v -0.0379441604 0.0589458868 -0.0373006798
v -0.0111961151 0.0502775237 -0.0667776838
v -0.0111826872 0.0531415977 -0.065555647
v -0.0382529981 0.0531415977 -0.0652565733
v -0.0404734537 0.0502775237 -0.0664542019
v 0.00121980952 0.01617047 0.0130505394
v 0.080139406 0.01617047 0.0121785756
v 0.0815044567 -0.0365513191 0.135724068
v 0.00258486089 -0.0365513191 0.136596024
v -0.000260445551 0.0733417943 -0.120921746
v 0.078659229 0.0733417943 -0.121793747
v 0.080139406 0.01617047 0.0121785756
v 0.00121980952 0.01617047 0.0130505394
v -0.0813309997 0.0733417943 -0.120026015
v -0.000260445551 0.0733417943 -0.120921746
v 0.00121980952 0.01617047 0.0130505394
v -0.0798507407 0.01617047 0.0139462687
vt 0.6796875 0.049041748
vt 0.6796875 0.061126709
vt 0.690429688 0.061126709
vt 0.690429688 0.049041748
vt 0.690429688 0.049041748
vt 0.690429688 0.0212402344
vt 0.6796875 0.0212402344
vt 0.6796875 0.049041748
vt 0.690429688 0.00915527344
vt 0.6796875 0.00915527344
vt 0.6796875 0.0212402344
vt 0.690429688 0.0212402344
vt 0.690429688 0.0212402344
vt 0.690429688 0.00915527344
vt 0.6796875 0.00915527344
vt 0.6796875 0.0212402344
vt 0.6796875 0.0212402344
vt 0.6796875 0.049041748
vt 0.690429688 0.049041748
vt 0.690429688 0.0212402344
vt 0.6796875 0.061126709
vt 0.690429688 0.061126709
vt 0.690429688 0.049041748
vt 0.6796875 0.049041748
vt 0.728027344 0.465087891
vt 0.728027344 0.461914062
vt 0.705566406 0.461914062
vt 0.705566406 0.465087891
vt 0.722167969 0.405517578
vt 0.711425781 0.405517578
vt 0.711425781 0.407470703
vt 0.722167969 0.407470703
vt 0.705566406 0.475341797
vt 0.705566406 0.494384766
vt 0.729003906 0.494384766
vt 0.729003906 0.475341797
vt 0.711914062 0.468994141
vt 0.72265625 0.468994141
vt 0.728027344 0.436279297
vt 0.728027344 0.461914062
vt 0.730957031 0.461914062
vt 0.730957031 0.434082031
vt 0.728027344 0.461914062
vt 0.728027344 0.436279297
vt 0.705566406 0.436279297
vt 0.705566406 0.461914062
vt 0.728515625 0.413818359
vt 0.722167969 0.407470703
vt 0.711425781 0.407470703
vt 0.705566406 0.413818359
vt 0.728515625 0.429931641
vt 0.705566406 0.429931641
vt 0.703125 0.413818359
vt 0.703125 0.432861328
vt 0.705566406 0.429931641
vt 0.705566406 0.413818359
vt 0.711425781 0.407470703
vt 0.709960938 0.406005859
vt 0.703613281 0.412353516
vt 0.705566406 0.413818359
vt 0.728515625 0.413818359
vt 0.729980469 0.412353516
vt 0.723632812 0.406005859
vt 0.722167969 0.407470703
vt 0.728515625 0.429931641
vt 0.73046875 0.432861328
vt 0.73046875 0.413818359
vt 0.728515625 0.413818359
vt 0.702636719 0.461914062
vt 0.705566406 0.461914062
vt 0.705566406 0.436279297
vt 0.702636719 0.434082031
vt 0.6796875 0.0212402344
vt 0.690429688 0.0212402344
vt 0.690429688 0.00915527344
vt 0.6796875 0.00915527344
vt 0.690429688 0.0212402344
vt 0.6796875 0.0212402344
vt 0.6796875 0.049041748
vt 0.690429688 0.049041748
vt 0.690429688 0.061126709
vt 0.690429688 0.049041748
vt 0.6796875 0.049041748
vt 0.6796875 0.061126709
vt 0.6796875 0.0212402344
vt 0.690429688 0.0212402344
vt 0.690429688 0.00915527344
vt 0.6796875 0.00915527344
vt 0.690429688 0.0212402344
vt 0.6796875 0.0212402344
vt 0.6796875 0.049041748
vt 0.690429688 0.049041748
vt 0.690429688 0.061126709
vt 0.690429688 0.049041748
vt 0.6796875 0.049041748
vt 0.6796875 0.061126709
vt 0.6328125 0.810058594
vt 0.6328125 0.817382812
vt 0.5859375 0.817382812
vt 0.5859375 0.810058594
vt 0.535644531 0.817382812
vt 0.535644531 0.810058594
vt 0.579589844 0.815917969
vt 0.579589844 0.790039062
vt 0.529296875 0.790039062
vt 0.529296875 0.815917969
vt 0.535644531 0.816894531
vt 0.535644531 0.810058594
vt 0.58203125 0.810058594
vt 0.58203125 0.816894531
vt 0.6328125 0.816894531
vt 0.6328125 0.810058594
vt 0.563964844 0.810058594
vt 0.536132812 0.817382812
vt 0.536132812 0.810058594
vt 0.563964844 0.817382812
vt 0.591796875 0.810058594
vt 0.591796875 0.817382812
vt 0.6328125 0.817382812
vt 0.604492188 0.810058594
vt 0.6328125 0.810058594
vt 0.604492188 0.817382812
vt 0.577148438 0.810058594
vt 0.577148438 0.817382812
vt 0.728027344 0.465087891
vt 0.728027344 0.461914062
vt 0.705566406 0.461914062
vt 0.705566406 0.465087891
vt 0.722167969 0.405517578
vt 0.711425781 0.405517578
vt 0.711425781 0.407470703
vt 0.722167969 0.407470703
vt 0.705566406 0.475341797
vt 0.705566406 0.494384766
vt 0.729003906 0.494384766
vt 0.729003906 0.475341797
vt 0.711914062 0.468994141
vt 0.72265625 0.468994141
vt 0.728027344 0.436279297
vt 0.728027344 0.461914062
vt 0.730957031 0.461914062
vt 0.730957031 0.434082031
vt 0.728027344 0.461914062
vt 0.728027344 0.436279297
vt 0.705566406 0.436279297
vt 0.705566406 0.461914062
vt 0.728515625 0.413818359
vt 0.722167969 0.407470703
vt 0.711425781 0.407470703
vt 0.705566406 0.413818359
vt 0.728515625 0.429931641
vt 0.705566406 0.429931641
vt 0.703125 0.413818359
vt 0.703125 0.432861328
vt 0.705566406 0.429931641
vt 0.705566406 0.413818359
vt 0.711425781 0.407470703
vt 0.709960938 0.406005859
vt 0.703613281 0.412353516
vt 0.705566406 0.413818359
vt 0.728515625 0.413818359
vt 0.729980469 0.412353516
vt 0.723632812 0.406005859
vt 0.722167969 0.407470703
vt 0.728515625 0.429931641
vt 0.73046875 0.432861328
vt 0.73046875 0.413818359
vt 0.728515625 0.413818359
vt 0.702636719 0.461914062
vt 0.705566406 0.461914062
vt 0.705566406 0.436279297
vt 0.702636719 0.434082031
vt 0.728027344 0.465087891
vt 0.728027344 0.461914062
vt 0.705566406 0.461914062
vt 0.705566406 0.465087891
vt 0.722167969 0.405517578
vt 0.711425781 0.405517578
vt 0.711425781 0.407470703
vt 0.722167969 0.407470703
vt 0.705566406 0.475341797
vt 0.705566406 0.494384766
vt 0.729003906 0.494384766
vt 0.729003906 0.475341797
vt 0.711914062 0.468994141
vt 0.72265625 0.468994141
vt 0.728027344 0.436279297
vt 0.728027344 0.461914062
vt 0.730957031 0.461914062
vt 0.730957031 0.434082031
vt 0.728027344 0.461914062
vt 0.728027344 0.436279297
vt 0.705566406 0.436279297
vt 0.705566406 0.461914062
vt 0.728515625 0.413818359
vt 0.722167969 0.407470703
vt 0.711425781 0.407470703
vt 0.705566406 0.413818359
vt 0.728515625 0.429931641
vt 0.705566406 0.429931641
vt 0.703125 0.413818359
vt 0.703125 0.432861328
vt 0.705566406 0.429931641
vt 0.705566406 0.413818359
vt 0.711425781 0.407470703
vt 0.709960938 0.406005859
vt 0.703613281 0.412353516
vt 0.705566406 0.413818359
vt 0.728515625 0.413818359
vt 0.729980469 0.412353516
vt 0.723632812 0.406005859
vt 0.722167969 0.407470703
vt 0.728515625 0.429931641
vt 0.73046875 0.432861328
vt 0.73046875 0.413818359
vt 0.728515625 0.413818359
vt 0.702636719 0.461914062
vt 0.705566406 0.461914062
vt 0.705566406 0.436279297
vt 0.702636719 0.434082031
vt 0.728027344 0.465087891
vt 0.728027344 0.461914062
vt 0.705566406 0.461914062
vt 0.705566406 0.465087891
vt 0.722167969 0.405517578
vt 0.711425781 0.405517578
vt 0.711425781 0.407470703
vt 0.722167969 0.407470703
vt 0.705566406 0.475341797
vt 0.705566406 0.494384766
vt 0.729003906 0.494384766
vt 0.729003906 0.475341797
vt 0.711914062 0.468994141
vt 0.72265625 0.468994141
vt 0.728027344 0.436279297
vt 0.728027344 0.461914062
vt 0.730957031 0.461914062
vt 0.730957031 0.434082031
vt 0.728027344 0.461914062
vt 0.728027344 0.436279297
vt 0.705566406 0.436279297
vt 0.705566406 0.461914062
vt 0.728515625 0.413818359
vt 0.722167969 0.407470703
vt 0.711425781 0.407470703
vt 0.705566406 0.413818359
vt 0.728515625 0.429931641
vt 0.705566406 0.429931641
vt 0.703125 0.413818359
vt 0.703125 0.432861328
vt 0.705566406 0.429931641
vt 0.705566406 0.413818359
vt 0.711425781 0.407470703
vt 0.709960938 0.406005859
vt 0.703613281 0.412353516
vt 0.705566406 0.413818359
vt 0.728515625 0.413818359
vt 0.729980469 0.412353516
vt 0.723632812 0.406005859
vt 0.722167969 0.407470703
vt 0.728515625 0.429931641
vt 0.73046875 0.432861328
vt 0.73046875 0.413818359
vt 0.728515625 0.413818359
vt 0.702636719 0.461914062
vt 0.705566406 0.461914062
vt 0.705566406 0.436279297
vt 0.702636719 0.434082031
vt 0.728027344 0.465087891
vt 0.728027344 0.461914062
vt 0.705566406 0.461914062
vt 0.705566406 0.465087891
vt 0.722167969 0.405517578
vt 0.711425781 0.405517578
vt 0.711425781 0.407470703
vt 0.722167969 0.407470703
vt 0.705566406 0.475341797
vt 0.705566406 0.494384766
vt 0.729003906 0.494384766
vt 0.729003906 0.475341797
vt 0.711914062 0.468994141
vt 0.72265625 0.468994141
vt 0.728027344 0.436279297
vt 0.728027344 0.461914062
vt 0.730957031 0.461914062
vt 0.730957031 0.434082031
vt 0.728027344 0.461914062
vt 0.728027344 0.436279297
vt 0.705566406 0.436279297
vt 0.705566406 0.461914062
vt 0.728515625 0.413818359
vt 0.722167969 0.407470703
vt 0.711425781 0.407470703
vt 0.705566406 0.413818359
vt 0.728515625 0.429931641
vt 0.705566406 0.429931641
vt 0.703125 0.413818359
vt 0.703125 0.432861328
vt 0.705566406 0.429931641
vt 0.705566406 0.413818359
vt 0.711425781 0.407470703
vt 0.709960938 0.406005859
vt 0.703613281 0.412353516
vt 0.705566406 0.413818359
vt 0.728515625 0.413818359
vt 0.729980469 0.412353516
vt 0.723632812 0.406005859
vt 0.722167969 0.407470703
vt 0.728515625 0.429931641
vt 0.73046875 0.432861328
vt 0.73046875 0.413818359
vt 0.728515625 0.413818359
vt 0.702636719 0.461914062
vt 0.705566406 0.461914062
vt 0.705566406 0.436279297
vt 0.702636719 0.434082031
vt 0.728027344 0.465087891
vt 0.728027344 0.461914062
vt 0.705566406 0.461914062
vt 0.705566406 0.465087891
vt 0.722167969 0.405517578
vt 0.711425781 0.405517578
vt 0.711425781 0.407470703
vt 0.722167969 0.407470703
vt 0.705566406 0.475341797
vt 0.705566406 0.494384766
vt 0.729003906 0.494384766
vt 0.729003906 0.475341797
vt 0.711914062 0.468994141
vt 0.72265625 0.468994141
vt 0.728027344 0.436279297
vt 0.728027344 0.461914062
vt 0.730957031 0.461914062
vt 0.730957031 0.434082031
vt 0.728027344 0.461914062
vt 0.728027344 0.436279297
vt 0.705566406 0.436279297
vt 0.705566406 0.461914062
vt 0.728515625 0.413818359
vt 0.722167969 0.407470703
vt 0.711425781 0.407470703
vt 0.705566406 0.413818359
vt 0.728515625 0.429931641
vt 0.705566406 0.429931641
vt 0.703125 0.413818359
vt 0.703125 0.432861328
vt 0.705566406 0.429931641
vt 0.705566406 0.413818359
vt 0.711425781 0.407470703
vt 0.709960938 0.406005859
vt 0.703613281 0.412353516
vt 0.705566406 0.413818359
vt 0.728515625 0.413818359
vt 0.729980469 0.412353516
vt 0.723632812 0.406005859
vt 0.722167969 0.407470703
vt 0.728515625 0.429931641
vt 0.73046875 0.432861328
vt 0.73046875 0.413818359
vt 0.728515625 0.413818359
vt 0.702636719 0.461914062
vt 0.705566406 0.461914062
vt 0.705566406 0.436279297
vt 0.702636719 0.434082031
vt 0.728027344 0.465087891
vt 0.728027344 0.461914062
vt 0.705566406 0.461914062
vt 0.705566406 0.465087891
vt 0.722167969 0.405517578
vt 0.711425781 0.405517578
vt 0.711425781 0.407470703
vt 0.722167969 0.407470703
vt 0.705566406 0.475341797
vt 0.705566406 0.494384766
vt 0.729003906 0.494384766
vt 0.729003906 0.475341797
vt 0.711914062 0.468994141
vt 0.72265625 0.468994141
vt 0.728027344 0.436279297
vt 0.728027344 0.461914062
vt 0.730957031 0.461914062
vt 0.730957031 0.434082031
vt 0.728027344 0.461914062
vt 0.728027344 0.436279297
vt 0.705566406 0.436279297
vt 0.705566406 0.461914062
vt 0.728515625 0.413818359
vt 0.722167969 0.407470703
vt 0.711425781 0.407470703
vt 0.705566406 0.413818359
vt 0.728515625 0.429931641
vt 0.705566406 0.429931641
vt 0.703125 0.413818359
vt 0.703125 0.432861328
vt 0.705566406 0.429931641
vt 0.705566406 0.413818359
vt 0.711425781 0.407470703
vt 0.709960938 0.406005859
vt 0.703613281 0.412353516
vt 0.705566406 0.413818359
vt 0.728515625 0.413818359
vt 0.729980469 0.412353516
vt 0.723632812 0.406005859
vt 0.722167969 0.407470703
vt 0.728515625 0.429931641
vt 0.73046875 0.432861328
vt 0.73046875 0.413818359
vt 0.728515625 0.413818359
vt 0.702636719 0.461914062
vt 0.705566406 0.461914062
vt 0.705566406 0.436279297
vt 0.702636719 0.434082031
vt 0.728027344 0.465087891
vt 0.728027344 0.461914062
vt 0.705566406 0.461914062
vt 0.705566406 0.465087891
vt 0.722167969 0.405517578
vt 0.711425781 0.405517578
vt 0.711425781 0.407470703
vt 0.722167969 0.407470703
vt 0.705566406 0.475341797
vt 0.705566406 0.494384766
vt 0.729003906 0.494384766
vt 0.729003906 0.475341797
vt 0.711914062 0.468994141
vt 0.72265625 0.468994141
vt 0.728027344 0.436279297
vt 0.728027344 0.461914062
vt 0.730957031 0.461914062
vt 0.730957031 0.434082031
vt 0.728027344 0.461914062
vt 0.728027344 0.436279297
vt 0.705566406 0.436279297
vt 0.705566406 0.461914062
vt 0.728515625 0.413818359
vt 0.722167969 0.407470703
vt 0.711425781 0.407470703
vt 0.705566406 0.413818359
vt 0.728515625 0.429931641
vt 0.705566406 0.429931641
vt 0.703125 0.413818359
vt 0.703125 0.432861328
vt 0.705566406 0.429931641
vt 0.705566406 0.413818359
vt 0.711425781 0.407470703
vt 0.709960938 0.406005859
vt 0.703613281 0.412353516
vt 0.705566406 0.413818359
vt 0.728515625 0.413818359
vt 0.729980469 0.412353516
vt 0.723632812 0.406005859
vt 0.722167969 0.407470703
vt 0.728515625 0.429931641
vt 0.73046875 0.432861328
vt 0.73046875 0.413818359
vt 0.728515625 0.413818359
vt 0.702636719 0.461914062
vt 0.705566406 0.461914062
vt 0.705566406 0.436279297
vt 0.702636719 0.434082031
vt 0.728027344 0.465087891
vt 0.728027344 0.461914062
vt 0.705566406 0.461914062
vt 0.705566406 0.465087891
vt 0.722167969 0.405517578
vt 0.711425781 0.405517578
vt 0.711425781 0.407470703
vt 0.722167969 0.407470703
vt 0.705566406 0.475341797
vt 0.705566406 0.494384766
vt 0.729003906 0.494384766
vt 0.729003906 0.475341797
vt 0.711914062 0.468994141
vt 0.72265625 0.468994141
vt 0.728027344 0.436279297
vt 0.728027344 0.461914062
vt 0.730957031 0.461914062
vt 0.730957031 0.434082031
vt 0.728027344 0.461914062
vt 0.728027344 0.436279297
vt 0.705566406 0.436279297
vt 0.705566406 0.461914062
vt 0.728515625 0.413818359
vt 0.722167969 0.407470703
vt 0.711425781 0.407470703
vt 0.705566406 0.413818359
vt 0.728515625 0.429931641
vt 0.705566406 0.429931641
vt 0.703125 0.413818359
vt 0.703125 0.432861328
vt 0.705566406 0.429931641
vt 0.705566406 0.413818359
vt 0.711425781 0.407470703
vt 0.709960938 0.406005859
vt 0.703613281 0.412353516
vt 0.705566406 0.413818359
vt 0.728515625 0.413818359
vt 0.729980469 0.412353516
vt 0.723632812 0.406005859
vt 0.722167969 0.407470703
vt 0.728515625 0.429931641
vt 0.73046875 0.432861328
vt 0.73046875 0.413818359
vt 0.728515625 0.413818359
vt 0.702636719 0.461914062
vt 0.705566406 0.461914062
vt 0.705566406 0.436279297
vt 0.702636719 0.434082031
vt 0.728027344 0.465087891
vt 0.728027344 0.461914062
vt 0.705566406 0.461914062
vt 0.705566406 0.465087891
vt 0.722167969 0.405517578
vt 0.711425781 0.405517578
vt 0.711425781 0.407470703
vt 0.722167969 0.407470703
vt 0.705566406 0.475341797
vt 0.705566406 0.494384766
vt 0.729003906 0.494384766
vt 0.729003906 0.475341797
vt 0.711914062 0.468994141
vt 0.72265625 0.468994141
vt 0.728027344 0.436279297
vt 0.728027344 0.461914062
vt 0.730957031 0.461914062
vt 0.730957031 0.434082031
vt 0.728027344 0.461914062
vt 0.728027344 0.436279297
vt 0.705566406 0.436279297
vt 0.705566406 0.461914062
vt 0.728515625 0.413818359
vt 0.722167969 0.407470703
vt 0.711425781 0.407470703
vt 0.705566406 0.413818359
vt 0.728515625 0.429931641
vt 0.705566406 0.429931641
vt 0.703125 0.413818359
vt 0.703125 0.432861328
vt 0.705566406 0.429931641
vt 0.705566406 0.413818359
vt 0.711425781 0.407470703
vt 0.709960938 0.406005859
vt 0.703613281 0.412353516
vt 0.705566406 0.413818359
vt 0.728515625 0.413818359
vt 0.729980469 0.412353516
vt 0.723632812 0.406005859
vt 0.722167969 0.407470703
vt 0.728515625 0.429931641
vt 0.73046875 0.432861328
vt 0.73046875 0.413818359
vt 0.728515625 0.413818359
vt 0.702636719 0.461914062
vt 0.705566406 0.461914062
vt 0.705566406 0.436279297
vt 0.702636719 0.434082031
vt 0.579589844 0.790527344
vt 0.579589844 0.815917969
vt 0.529296875 0.815917969
vt 0.529296875 0.790527344
vt 0.528808594 0.790527344
vt 0.528808594 0.815917969
vt 0.579589844 0.815917969
vt 0.579589844 0.790527344
vt 0.528808594 0.815917969
vt 0.528808594 0.790039062
vt 0.579589844 0.790039062
vt 0.579589844 0.815917969
vn -0.0101623535 0.392578125 -0.919921875
vn -0.0101623535 0.392578125 -0.919921875
vn -0.0101623535 0.392578125 -0.919921875
vn -0.0101623535 0.392578125 -0.919921875
vn 0.00433731079 0.919921875 0.392333984
vn 0.00433731079 0.919921875 0.392333984
vn 0.00433731079 0.919921875 0.392333984
vn 0.00433731079 0.919921875 0.392333984
vn 0.0101623535 -0.392578125 0.919921875
vn 0.0101623535 -0.392578125 0.919921875
vn 0.0101623535 -0.392578125 0.919921875
vn 0.0101623535 -0.392578125 0.919921875
vn -0.0101623535 0.392578125 -0.919921875
vn -0.0101623535 0.392578125 -0.919921875
vn -0.0101623535 0.392578125 -0.919921875
vn -0.0101623535 0.392578125 -0.919921875
vn 0.00433731079 0.919921875 0.392333984
vn 0.00433731079 0.919921875 0.392333984
vn 0.00433731079 0.919921875 0.392333984
vn 0.00433731079 0.919921875 0.392333984
vn 0.0101623535 -0.392578125 0.919921875
vn 0.0101623535 -0.392578125 0.919921875
vn 0.0101623535 -0.392578125 0.919921875
vn 0.0101623535 -0.392578125 0.919921875
vn 1 0 -0.0110473633
vn 1 0 -0.0110473633
vn 1 0 -0.0110473633
vn 1 0 -0.0110473633
vn 0.00433731079 0.919921875 0.392333984
vn 0.00433731079 0.919921875 0.392333984
vn 0.00433731079 0.919921875 0.392333984
vn 0.00433731079 0.919921875 0.392333984
vn -1 0 0.0110473633
vn -1 0 0.0110473633
vn -1 0 0.0110473633
vn -1 0 0.0110473633
vn -1 0 0.0110473633
vn -1 0 0.0110473633
vn 0.0101623535 -0.392578125 0.919921875
vn 0.0101623535 -0.392578125 0.919921875
vn 0.0101623535 -0.392578125 0.919921875
vn 0.0101623535 -0.392578125 0.919921875
vn 0.00433731079 0.919921875 0.392333984
vn 0.00433731079 0.919921875 0.392333984
vn 0.00433731079 0.919921875 0.392333984
vn 0.00433731079 0.919921875 0.392333984
vn 1 0 -0.0110473633
vn 1 0 -0.0110473633
vn 1 0 -0.0110473633
vn 1 0 -0.0110473633
vn 1 0 -0.0110473633
vn 1 0 -0.0110473633
vn -0.0101623535 0.392578125 -0.919921875
vn -0.0101623535 0.392578125 -0.919921875
vn -0.0101623535 0.392578125 -0.919921875
vn -0.0101623535 0.392578125 -0.919921875
vn -0.00411987305 0.927734375 -0.372802734
vn -0.00411987305 0.927734375 -0.372802734
vn -0.00411987305 0.927734375 -0.372802734
vn -0.00411987305 0.927734375 -0.372802734
vn 0.0102539062 0.372802734 0.927734375
vn 0.0102539062 0.372802734 0.927734375
vn 0.0102539062 0.372802734 0.927734375
vn 0.0102539062 0.372802734 0.927734375
vn 0.0101623535 -0.392578125 0.919921875
vn 0.0101623535 -0.392578125 0.919921875
vn 0.0101623535 -0.392578125 0.919921875
vn 0.0101623535 -0.392578125 0.919921875
vn -0.0101623535 0.392578125 -0.919921875
vn -0.0101623535 0.392578125 -0.919921875
vn -0.0101623535 0.392578125 -0.919921875
vn -0.0101623535 0.392578125 -0.919921875
vn 0.0101623535 -0.392578125 0.919921875
vn 0.0101623535 -0.392578125 0.919921875
vn 0.0101623535 -0.392578125 0.919921875
vn 0.0101623535 -0.392578125 0.919921875
vn 0.00433731079 0.919921875 0.392333984
vn 0.00433731079 0.919921875 0.392333984
vn 0.00433731079 0.919921875 0.392333984
vn 0.00433731079 0.919921875 0.392333984
vn -0.0101623535 0.392578125 -0.919921875
vn -0.0101623535 0.392578125 -0.919921875
vn -0.0101623535 0.392578125 -0.919921875
vn -0.0101623535 0.392578125 -0.919921875
vn 0.0101623535 -0.392578125 0.919921875
vn 0.0101623535 -0.392578125 0.919921875
vn 0.0101623535 -0.392578125 0.919921875
vn 0.0101623535 -0.392578125 0.919921875
vn 0.00433731079 0.919921875 0.392333984
vn 0.00433731079 0.919921875 0.392333984
vn 0.00433731079 0.919921875 0.392333984
vn 0.00433731079 0.919921875 0.392333984
vn -0.0101623535 0.392578125 -0.919921875
vn -0.0101623535 0.392578125 -0.919921875
vn -0.0101623535 0.392578125 -0.919921875
vn -0.0101623535 0.392578125 -0.919921875
vn 1 0 -0.0110473633
vn 1 0 -0.0110473633
vn 0.732910156 0.628417969 0.260009766
vn 0.732910156 0.628417969 0.260009766
vn 1 0 -0.0110473633
vn 1 0 -0.0110473633
vn 0.00433731079 0.919921875 0.392333984
vn 0.00433731079 0.919921875 0.392333984
vn 0.00433731079 0.919921875 0.392333984
vn 0.00433731079 0.919921875 0.392333984
vn -1 0 0.0110473633
vn -1 0 0.0110473633
vn -0.727050781 0.628417969 0.276123047
vn -0.727050781 0.628417969 0.276123047
vn -1 0 0.0110473633
vn -1 0 0.0110473633
vn -0.00470352173 0.904785156 -0.425537109
vn -0.0101623535 0.392578125 -0.919921875
vn -0.0101623535 0.392578125 -0.919921875
vn -0.00470352173 0.904785156 -0.425537109
vn -0.0101623535 0.392578125 -0.919921875
vn -0.0101623535 0.392578125 -0.919921875
vn 0.0101623535 -0.392578125 0.919921875
vn 0.0104751587 0.318847656 0.947753906
vn 0.0101623535 -0.392578125 0.919921875
vn 0.0104751587 0.318847656 0.947753906
vn 0.0101623535 -0.392578125 0.919921875
vn 0.0101623535 -0.392578125 0.919921875
vn 1 0 -0.0110473633
vn 1 0 -0.0110473633
vn 1 0 -0.0110473633
vn 1 0 -0.0110473633
vn 0.00433731079 0.919921875 0.392333984
vn 0.00433731079 0.919921875 0.392333984
vn 0.00433731079 0.919921875 0.392333984
vn 0.00433731079 0.919921875 0.392333984
vn -1 0 0.0110473633
vn -1 0 0.0110473633
vn -1 0 0.0110473633
vn -1 0 0.0110473633
vn -1 0 0.0110473633
vn -1 0 0.0110473633
vn 0.0101623535 -0.392578125 0.919921875
vn 0.0101623535 -0.392578125 0.919921875
vn 0.0101623535 -0.392578125 0.919921875
vn 0.0101623535 -0.392578125 0.919921875
vn 0.00433731079 0.919921875 0.392333984
vn 0.00433731079 0.919921875 0.392333984
vn 0.00433731079 0.919921875 0.392333984
vn 0.00433731079 0.919921875 0.392333984
vn 1 0 -0.0110473633
vn 1 0 -0.0110473633
vn 1 0 -0.0110473633
vn 1 0 -0.0110473633
vn 1 0 -0.0110473633
vn 1 0 -0.0110473633
vn -0.0101623535 0.392578125 -0.919921875
vn -0.0101623535 0.392578125 -0.919921875
vn -0.0101623535 0.392578125 -0.919921875
vn -0.0101623535 0.392578125 -0.919921875
vn -0.00411987305 0.927734375 -0.372802734
vn -0.00411987305 0.927734375 -0.372802734
vn -0.00411987305 0.927734375 -0.372802734
vn -0.00411987305 0.927734375 -0.372802734
vn 0.0102539062 0.372802734 0.927734375
vn 0.0102539062 0.372802734 0.927734375
vn 0.0102539062 0.372802734 0.927734375
vn 0.0102539062 0.372802734 0.927734375
vn 0.0101623535 -0.392578125 0.919921875
vn 0.0101623535 -0.392578125 0.919921875
vn 0.0101623535 -0.392578125 0.919921875
vn 0.0101623535 -0.392578125 0.919921875
vn -0.0101623535 0.392578125 -0.919921875
vn -0.0101623535 0.392578125 -0.919921875
vn -0.0101623535 0.392578125 -0.919921875
vn -0.0101623535 0.392578125 -0.919921875
vn -1 0 0.0110473633
vn -1 0 0.0110473633
vn -1 0 0.0110473633
vn -1 0 0.0110473633
vn 0.00433731079 0.919921875 0.392333984
vn 0.00433731079 0.919921875 0.392333984
vn 0.00433731079 0.919921875 0.392333984
vn 0.00433731079 0.919921875 0.392333984
vn 1 0 -0.0110473633
vn 1 0 -0.0110473633
vn 1 0 -0.0110473633
vn 1 0 -0.0110473633
vn 1 0 -0.0110473633
vn 1 0 -0.0110473633
vn -0.0101623535 0.392578125 -0.919921875
vn -0.0101623535 0.392578125 -0.919921875
vn -0.0101623535 0.392578125 -0.919921875
vn -0.0101623535 0.392578125 -0.919921875
vn 0.00433731079 0.919921875 0.392333984
vn 0.00433731079 0.919921875 0.392333984
vn 0.00433731079 0.919921875 0.392333984
vn 0.00433731079 0.919921875 0.392333984
vn -1 0 0.0110473633
vn -1 0 0.0110473633
vn -1 0 0.0110473633
vn -1 0 0.0110473633
vn -1 0 0.0110473633
vn -1 0 0.0110473633
vn 0.0101623535 -0.392578125 0.919921875
vn 0.0101623535 -0.392578125 0.919921875
vn 0.0101623535 -0.392578125 0.919921875
vn 0.0101623535 -0.392578125 0.919921875
vn 0.0102539062 0.372802734 0.927734375
vn 0.0102539062 0.372802734 0.927734375
vn 0.0102539062 0.372802734 0.927734375
vn 0.0102539062 0.372802734 0.927734375
vn -0.00411987305 0.927734375 -0.372802734
vn -0.00411987305 0.927734375 -0.372802734
vn -0.00411987305 0.927734375 -0.372802734
vn -0.00411987305 0.927734375 -0.372802734
vn -0.0101623535 0.392578125 -0.919921875
vn -0.0101623535 0.392578125 -0.919921875
vn -0.0101623535 0.392578125 -0.919921875
vn -0.0101623535 0.392578125 -0.919921875
vn 0.0101623535 -0.392578125 0.919921875
vn 0.0101623535 -0.392578125 0.919921875
vn 0.0101623535 -0.392578125 0.919921875
vn 0.0101623535 -0.392578125 0.919921875
vn -1 0 0.0110473633
vn -1 0 0.0110473633
vn -1 0 0.0110473633
vn -1 0 0.0110473633
vn 0.00433731079 0.919921875 0.392333984
vn 0.00433731079 0.919921875 0.392333984
vn 0.00433731079 0.919921875 0.392333984
vn 0.00433731079 0.919921875 0.392333984
vn 1 0 -0.0110473633
vn 1 0 -0.0110473633
vn 1 0 -0.0110473633
vn 1 0 -0.0110473633
vn 1 0 -0.0110473633
vn 1 0 -0.0110473633
vn -0.0101623535 0.392578125 -0.919921875
vn -0.0101623535 0.392578125 -0.919921875
vn -0.0101623535 0.392578125 -0.919921875
vn -0.0101623535 0.392578125 -0.919921875
vn 0.00433731079 0.919921875 0.392333984
vn 0.00433731079 0.919921875 0.392333984
vn 0.00433731079 0.919921875 0.392333984
vn 0.00433731079 0.919921875 0.392333984
vn -1 0 0.0110473633
vn -1 0 0.0110473633
vn -1 0 0.0110473633
vn -1 0 0.0110473633
vn -1 0 0.0110473633
vn -1 0 0.0110473633
vn 0.0101623535 -0.392578125 0.919921875
vn 0.0101623535 -0.392578125 0.919921875
vn 0.0101623535 -0.392578125 0.919921875
vn 0.0101623535 -0.392578125 0.919921875
vn 0.0102539062 0.372802734 0.927734375
vn 0.0102539062 0.372802734 0.927734375
vn 0.0102539062 0.372802734 0.927734375
vn 0.0102539062 0.372802734 0.927734375
vn -0.00411987305 0.927734375 -0.372802734
vn -0.00411987305 0.927734375 -0.372802734
vn -0.00411987305 0.927734375 -0.372802734
vn -0.00411987305 0.927734375 -0.372802734
vn -0.0101623535 0.392578125 -0.919921875
vn -0.0101623535 0.392578125 -0.919921875
vn -0.0101623535 0.392578125 -0.919921875
vn -0.0101623535 0.392578125 -0.919921875
vn 0.0101623535 -0.392578125 0.919921875
vn 0.0101623535 -0.392578125 0.919921875
vn 0.0101623535 -0.392578125 0.919921875
vn 0.0101623535 -0.392578125 0.919921875
vn -1 0 0.0110473633
vn -1 0 0.0110473633
vn -1 0 0.0110473633
vn -1 0 0.0110473633
vn 0.00433731079 0.919921875 0.392333984
vn 0.00433731079 0.919921875 0.392333984
vn 0.00433731079 0.919921875 0.392333984
vn 0.00433731079 0.919921875 0.392333984
vn 1 0 -0.0110473633
vn 1 0 -0.0110473633
vn 1 0 -0.0110473633
vn 1 0 -0.0110473633
vn 1 0 -0.0110473633
vn 1 0 -0.0110473633
vn -0.0101623535 0.392578125 -0.919921875
vn -0.0101623535 0.392578125 -0.919921875
vn -0.0101623535 0.392578125 -0.919921875
vn -0.0101623535 0.392578125 -0.919921875
vn 0.00433731079 0.919921875 0.392333984
vn 0.00433731079 0.919921875 0.392333984
vn 0.00433731079 0.919921875 0.392333984
vn 0.00433731079 0.919921875 0.392333984
vn -1 0 0.0110473633
vn -1 0 0.0110473633
vn -1 0 0.0110473633
vn -1 0 0.0110473633
vn -1 0 0.0110473633
vn -1 0 0.0110473633
vn 0.0101623535 -0.392578125 0.919921875
vn 0.0101623535 -0.392578125 0.919921875
vn 0.0101623535 -0.392578125 0.919921875
vn 0.0101623535 -0.392578125 0.919921875
vn 0.0102539062 0.372802734 0.927734375
vn 0.0102539062 0.372802734 0.927734375
vn 0.0102539062 0.372802734 0.927734375
vn 0.0102539062 0.372802734 0.927734375
vn -0.00411987305 0.927734375 -0.372802734
vn -0.00411987305 0.927734375 -0.372802734
vn -0.00411987305 0.927734375 -0.372802734
vn -0.00411987305 0.927734375 -0.372802734
vn -0.0101623535 0.392578125 -0.919921875
vn -0.0101623535 0.392578125 -0.919921875
vn -0.0101623535 0.392578125 -0.919921875
vn -0.0101623535 0.392578125 -0.919921875
vn 0.0101623535 -0.392578125 0.919921875
vn 0.0101623535 -0.392578125 0.919921875
vn 0.0101623535 -0.392578125 0.919921875
vn 0.0101623535 -0.392578125 0.919921875
vn -1 0 0.0110473633
vn -1 0 0.0110473633
vn -1 0 0.0110473633
vn -1 0 0.0110473633
vn 0.00433731079 0.919921875 0.392333984
vn 0.00433731079 0.919921875 0.392333984
vn 0.00433731079 0.919921875 0.392333984
vn 0.00433731079 0.919921875 0.392333984
vn 1 0 -0.0110473633
vn 1 0 -0.0110473633
vn 1 0 -0.0110473633
vn 1 0 -0.0110473633
vn 1 0 -0.0110473633
vn 1 0 -0.0110473633
vn -0.0101623535 0.392578125 -0.919921875
vn -0.0101623535 0.392578125 -0.919921875
vn -0.0101623535 0.392578125 -0.919921875
vn -0.0101623535 0.392578125 -0.919921875
vn 0.00433731079 0.919921875 0.392333984
vn 0.00433731079 0.919921875 0.392333984
vn 0.00433731079 0.919921875 0.392333984
vn 0.00433731079 0.919921875 0.392333984
vn -1 0 0.0110473633
vn -1 0 0.0110473633
vn -1 0 0.0110473633
vn -1 0 0.0110473633
vn -1 0 0.0110473633
vn -1 0 0.0110473633
vn 0.0101623535 -0.392578125 0.919921875
vn 0.0101623535 -0.392578125 0.919921875
vn 0.0101623535 -0.392578125 0.919921875
vn 0.0101623535 -0.392578125 0.919921875
vn 0.0102539062 0.372802734 0.927734375
vn 0.0102539062 0.372802734 0.927734375
vn 0.0102539062 0.372802734 0.927734375
vn 0.0102539062 0.372802734 0.927734375
vn -0.00411987305 0.927734375 -0.372802734
vn -0.00411987305 0.927734375 -0.372802734
vn -0.00411987305 0.927734375 -0.372802734
vn -0.00411987305 0.927734375 -0.372802734
vn -0.0101623535 0.392578125 -0.919921875
vn -0.0101623535 0.392578125 -0.919921875
vn -0.0101623535 0.392578125 -0.919921875
vn -0.0101623535 0.392578125 -0.919921875
vn 0.0101623535 -0.392578125 0.919921875
vn 0.0101623535 -0.392578125 0.919921875
vn 0.0101623535 -0.392578125 0.919921875
vn 0.0101623535 -0.392578125 0.919921875
vn 1 0 -0.0110473633
vn 1 0 -0.0110473633
vn 1 0 -0.0110473633
vn 1 0 -0.0110473633
vn 0.00433731079 0.919921875 0.392333984
vn 0.00433731079 0.919921875 0.392333984
vn 0.00433731079 0.919921875 0.392333984
vn 0.00433731079 0.919921875 0.392333984
vn -1 0 0.0110473633
vn -1 0 0.0110473633
vn -1 0 0.0110473633
vn -1 0 0.0110473633
vn -1 0 0.0110473633
vn -1 0 0.0110473633
vn 0.0101623535 -0.392578125 0.919921875
vn 0.0101623535 -0.392578125 0.919921875
vn 0.0101623535 -0.392578125 0.919921875
vn 0.0101623535 -0.392578125 0.919921875
vn 0.00433731079 0.919921875 0.392333984
vn 0.00433731079 0.919921875 0.392333984
vn 0.00433731079 0.919921875 0.392333984
vn 0.00433731079 0.919921875 0.392333984
vn 1 0 -0.0110473633
vn 1 0 -0.0110473633
vn 1 0 -0.0110473633
vn 1 0 -0.0110473633
vn 1 0 -0.0110473633
vn 1 0 -0.0110473633
vn -0.0101623535 0.392578125 -0.919921875
vn -0.0101623535 0.392578125 -0.919921875
vn -0.0101623535 0.392578125 -0.919921875
vn -0.0101623535 0.392578125 -0.919921875
vn -0.00411987305 0.927734375 -0.372802734
vn -0.00411987305 0.927734375 -0.372802734
vn -0.00411987305 0.927734375 -0.372802734
vn -0.00411987305 0.927734375 -0.372802734
vn 0.0102539062 0.372802734 0.927734375
vn 0.0102539062 0.372802734 0.927734375
vn 0.0102539062 0.372802734 0.927734375
vn 0.0102539062 0.372802734 0.927734375
vn 0.0101623535 -0.392578125 0.919921875
vn 0.0101623535 -0.392578125 0.919921875
vn 0.0101623535 -0.392578125 0.919921875
vn 0.0101623535 -0.392578125 0.919921875
vn -0.0101623535 0.392578125 -0.919921875
vn -0.0101623535 0.392578125 -0.919921875
vn -0.0101623535 0.392578125 -0.919921875
vn -0.0101623535 0.392578125 -0.919921875
vn -1 0 0.0110473633
vn -1 0 0.0110473633
vn -1 0 0.0110473633
vn -1 0 0.0110473633
vn 0.00433731079 0.919921875 0.392333984
vn 0.00433731079 0.919921875 0.392333984
vn 0.00433731079 0.919921875 0.392333984
vn 0.00433731079 0.919921875 0.392333984
vn 1 0 -0.0110473633
vn 1 0 -0.0110473633
vn 1 0 -0.0110473633
vn 1 0 -0.0110473633
vn 1 0 -0.0110473633
vn 1 0 -0.0110473633
vn -0.0101623535 0.392578125 -0.919921875
vn -0.0101623535 0.392578125 -0.919921875
vn -0.0101623535 0.392578125 -0.919921875
vn -0.0101623535 0.392578125 -0.919921875
vn 0.00433731079 0.919921875 0.392333984
vn 0.00433731079 0.919921875 0.392333984
vn 0.00433731079 0.919921875 0.392333984
vn 0.00433731079 0.919921875 0.392333984
vn -1 0 0.0110473633
vn -1 0 0.0110473633
vn -1 0 0.0110473633
vn -1 0 0.0110473633
vn -1 0 0.0110473633
vn -1 0 0.0110473633
vn 0.0101623535 -0.392578125 0.919921875
vn 0.0101623535 -0.392578125 0.919921875
vn 0.0101623535 -0.392578125 0.919921875
vn 0.0101623535 -0.392578125 0.919921875
vn 0.0102539062 0.372802734 0.927734375
vn 0.0102539062 0.372802734 0.927734375
vn 0.0102539062 0.372802734 0.927734375
vn 0.0102539062 0.372802734 0.927734375
vn -0.00411987305 0.927734375 -0.372802734
vn -0.00411987305 0.927734375 -0.372802734
vn -0.00411987305 0.927734375 -0.372802734
vn -0.00411987305 0.927734375 -0.372802734
vn -0.0101623535 0.392578125 -0.919921875
vn -0.0101623535 0.392578125 -0.919921875
vn -0.0101623535 0.392578125 -0.919921875
vn -0.0101623535 0.392578125 -0.919921875
vn 0.0101623535 -0.392578125 0.919921875
vn 0.0101623535 -0.392578125 0.919921875
vn 0.0101623535 -0.392578125 0.919921875
vn 0.0101623535 -0.392578125 0.919921875
vn 1 0 -0.0110473633
vn 1 0 -0.0110473633
vn 1 0 -0.0110473633
vn 1 0 -0.0110473633
vn 0.00433731079 0.919921875 0.392333984
vn 0.00433731079 0.919921875 0.392333984
vn 0.00433731079 0.919921875 0.392333984
vn 0.00433731079 0.919921875 0.392333984
vn -1 0 0.0110473633
vn -1 0 0.0110473633
vn -1 0 0.0110473633
vn -1 0 0.0110473633
vn -1 0 0.0110473633
vn -1 0 0.0110473633
vn 0.0101623535 -0.392578125 0.919921875
vn 0.0101623535 -0.392578125 0.919921875
vn 0.0101623535 -0.392578125 0.919921875
vn 0.0101623535 -0.392578125 0.919921875
vn 0.00433731079 0.919921875 0.392333984
vn 0.00433731079 0.919921875 0.392333984
vn 0.00433731079 0.919921875 0.392333984
vn 0.00433731079 0.919921875 0.392333984
vn 1 0 -0.0110473633
vn 1 0 -0.0110473633
vn 1 0 -0.0110473633
vn 1 0 -0.0110473633
vn 1 0 -0.0110473633
vn 1 0 -0.0110473633
vn -0.0101623535 0.392578125 -0.919921875
vn -0.0101623535 0.392578125 -0.919921875
vn -0.0101623535 0.392578125 -0.919921875
vn -0.0101623535 0.392578125 -0.919921875
vn -0.00411987305 0.927734375 -0.372802734
vn -0.00411987305 0.927734375 -0.372802734
vn -0.00411987305 0.927734375 -0.372802734
vn -0.00411987305 0.927734375 -0.372802734
vn 0.0102539062 0.372802734 0.927734375
vn 0.0102539062 0.372802734 0.927734375
vn 0.0102539062 0.372802734 0.927734375
vn 0.0102539062 0.372802734 0.927734375
vn 0.0101623535 -0.392578125 0.919921875
vn 0.0101623535 -0.392578125 0.919921875
vn 0.0101623535 -0.392578125 0.919921875
vn 0.0101623535 -0.392578125 0.919921875
vn -0.0101623535 0.392578125 -0.919921875
vn -0.0101623535 0.392578125 -0.919921875
vn -0.0101623535 0.392578125 -0.919921875
vn -0.0101623535 0.392578125 -0.919921875
vn 1 0 -0.0110473633
vn 1 0 -0.0110473633
vn 1 0 -0.0110473633
vn 1 0 -0.0110473633
vn 0.00433731079 0.919921875 0.392333984
vn 0.00433731079 0.919921875 0.392333984
vn 0.00433731079 0.919921875 0.392333984
vn 0.00433731079 0.919921875 0.392333984
vn -1 0 0.0110473633
vn -1 0 0.0110473633
vn -1 0 0.0110473633
vn -1 0 0.0110473633
vn -1 0 0.0110473633
vn -1 0 0.0110473633
vn 0.0101623535 -0.392578125 0.919921875
vn 0.0101623535 -0.392578125 0.919921875
vn 0.0101623535 -0.392578125 0.919921875
vn 0.0101623535 -0.392578125 0.919921875
vn 0.00433731079 0.919921875 0.392333984
vn 0.00433731079 0.919921875 0.392333984
vn 0.00433731079 0.919921875 0.392333984
vn 0.00433731079 0.919921875 0.392333984
vn 1 0 -0.0110473633
vn 1 0 -0.0110473633
vn 1 0 -0.0110473633
vn 1 0 -0.0110473633
vn 1 0 -0.0110473633
vn 1 0 -0.0110473633
vn -0.0101623535 0.392578125 -0.919921875
vn -0.0101623535 0.392578125 -0.919921875
vn -0.0101623535 0.392578125 -0.919921875
vn -0.0101623535 0.392578125 -0.919921875
vn -0.00411987305 0.927734375 -0.372802734
vn -0.00411987305 0.927734375 -0.372802734
vn -0.00411987305 0.927734375 -0.372802734
vn -0.00411987305 0.927734375 -0.372802734
vn 0.0102539062 0.372802734 0.927734375
vn 0.0102539062 0.372802734 0.927734375
vn 0.0102539062 0.372802734 0.927734375
vn 0.0102539062 0.372802734 0.927734375
vn 0.0101623535 -0.392578125 0.919921875
vn 0.0101623535 -0.392578125 0.919921875
vn 0.0101623535 -0.392578125 0.919921875
vn 0.0101623535 -0.392578125 0.919921875
vn -0.0101623535 0.392578125 -0.919921875
vn -0.0101623535 0.392578125 -0.919921875
vn -0.0101623535 0.392578125 -0.919921875
vn -0.0101623535 0.392578125 -0.919921875
vn 0.00433731079 0.919921875 0.392333984
vn 0.00433731079 0.919921875 0.392333984
vn 0.00433731079 0.919921875 0.392333984
vn 0.00433731079 0.919921875 0.392333984
vn 0.00433731079 0.919921875 0.392333984
vn 0.00433731079 0.919921875 0.392333984
vn 0.00433731079 0.919921875 0.392333984
vn 0.00433731079 0.919921875 0.392333984
vn 0.00433731079 0.919921875 0.392333984
vn 0.00433731079 0.919921875 0.392333984
vn 0.00433731079 0.919921875 0.392333984
vn 0.00433731079 0.919921875 0.392333984
g ChargeBase_Braker_1_Base_0
f 3/3/3 2/2/2 1/1/1
f 4/4/4 3/3/3 1/1/1
f 7/7/7 6/6/6 5/5/5
f 8/8/8 7/7/7 5/5/5
f 11/11/11 10/10/10 9/9/9
f 12/12/12 11/11/11 9/9/9
f 15/15/15 14/14/14 13/13/13
f 16/16/16 15/15/15 13/13/13
f 19/19/19 18/18/18 17/17/17
f 20/20/20 19/19/19 17/17/17
f 23/23/23 22/22/22 21/21/21
f 24/24/24 23/23/23 21/21/21
f 27/27/27 26/26/26 25/25/25
f 28/28/28 27/27/27 25/25/25
f 31/31/31 30/30/30 29/29/29
f 32/32/32 31/31/31 29/29/29
f 35/35/35 34/34/34 33/33/33
f 36/36/36 35/35/35 33/33/33
f 33/33/33 37/37/37 36/36/36
f 37/37/37 38/38/38 36/36/36
f 41/41/41 40/40/40 39/39/39
f 42/42/42 41/41/41 39/39/39
f 45/45/45 44/44/44 43/43/43
f 46/46/46 45/45/45 43/43/43
f 49/49/49 48/48/48 47/47/47
f 50/50/50 49/49/49 47/47/47
f 47/47/47 51/51/51 50/50/50
f 51/51/51 52/52/52 50/50/50
f 55/55/55 54/54/54 53/53/53
f 56/56/56 55/55/55 53/53/53
f 59/59/59 58/58/58 57/57/57
f 60/60/60 59/59/59 57/57/57
f 63/63/63 62/62/62 61/61/61
f 64/64/64 63/63/63 61/61/61
f 67/67/67 66/66/66 65/65/65
f 68/68/68 67/67/67 65/65/65
f 71/71/71 70/70/70 69/69/69
f 72/72/72 71/71/71 69/69/69
f 75/75/75 74/74/74 73/73/73
f 76/76/76 75/75/75 73/73/73
f 79/79/79 78/78/78 77/77/77
f 80/80/80 79/79/79 77/77/77
f 83/83/83 82/82/82 81/81/81
f 84/84/84 83/83/83 81/81/81
f 87/87/87 86/86/86 85/85/85
f 88/88/88 87/87/87 85/85/85
f 91/91/91 90/90/90 89/89/89
f 92/92/92 91/91/91 89/89/89
f 95/95/95 94/94/94 93/93/93
f 96/96/96 95/95/95 93/93/93
f 99/99/99 98/98/98 97/97/97
f 100/100/100 99/99/99 97/97/97
f 101/101/101 99/99/99 100/100/100
f 102/102/102 101/101/101 100/100/100
f 105/105/105 104/104/104 103/103/103
f 106/106/106 105/105/105 103/103/103
f 109/109/109 108/108/108 107/107/107
f 110/110/110 109/109/109 107/107/107
f 110/110/110 111/111/111 109/109/109
f 111/111/111 112/112/112 109/109/109
f 115/115/115 114/114/114 113/113/113
f 114/114/114 116/116/116 113/113/113
f 113/113/113 116/116/116 117/117/117
f 116/116/116 118/118/118 117/117/117
f 121/121/121 120/120/120 119/119/119
f 120/120/120 122/122/122 119/119/119
f 120/120/120 123/123/123 122/122/122
f 123/123/123 124/124/124 122/122/122
f 127/127/127 126/126/126 125/125/125
f 128/128/128 127/127/127 125/125/125
f 131/131/131 130/130/130 129/129/129
f 132/132/132 131/131/131 129/129/129
f 135/135/135 134/134/134 133/133/133
f 136/136/136 135/135/135 133/133/133
f 133/133/133 137/137/137 136/136/136
f 137/137/137 138/138/138 136/136/136
f 141/141/141 140/140/140 139/139/139
f 142/142/142 141/141/141 139/139/139
f 145/145/145 144/144/144 143/143/143
f 146/146/146 145/145/145 143/143/143
f 149/149/149 148/148/148 147/147/147
f 150/150/150 149/149/149 147/147/147
f 147/147/147 151/151/151 150/150/150
f 151/151/151 152/152/152 150/150/150
f 155/155/155 154/154/154 153/153/153
f 156/156/156 155/155/155 153/153/153
f 159/159/159 158/158/158 157/157/157
f 160/160/160 159/159/159 157/157/157
f 163/163/163 162/162/162 161/161/161
f 164/164/164 163/163/163 161/161/161
f 167/167/167 166/166/166 165/165/165
f 168/168/168 167/167/167 165/165/165
f 171/171/171 170/170/170 169/169/169
f 172/172/172 171/171/171 169/169/169
f 175/175/175 174/174/174 173/173/173
f 176/176/176 175/175/175 173/173/173
f 179/179/179 178/178/178 177/177/177
f 180/180/180 179/179/179 177/177/177
f 183/183/183 182/182/182 181/181/181
f 184/184/184 183/183/183 181/181/181
f 181/181/181 185/185/185 184/184/184
f 185/185/185 186/186/186 184/184/184
f 189/189/189 188/188/188 187/187/187
f 190/190/190 189/189/189 187/187/187
f 193/193/193 192/192/192 191/191/191
f 194/194/194 193/193/193 191/191/191
f 197/197/197 196/196/196 195/195/195
f 198/198/198 197/197/197 195/195/195
f 195/195/195 199/199/199 198/198/198
f 199/199/199 200/200/200 198/198/198
f 203/203/203 202/202/202 201/201/201
f 204/204/204 203/203/203 201/201/201
f 207/207/207 206/206/206 205/205/205
f 208/208/208 207/207/207 205/205/205
f 211/211/211 210/210/210 209/209/209
f 212/212/212 211/211/211 209/209/209
f 215/215/215 214/214/214 213/213/213
f 216/216/216 215/215/215 213/213/213
f 219/219/219 218/218/218 217/217/217
f 220/220/220 219/219/219 217/217/217
f 223/223/223 222/222/222 221/221/221
f 224/224/224 223/223/223 221/221/221
f 227/227/227 226/226/226 225/225/225
f 228/228/228 227/227/227 225/225/225
f 231/231/231 230/230/230 229/229/229
f 232/232/232 231/231/231 229/229/229
f 229/229/229 233/233/233 232/232/232
f 233/233/233 234/234/234 232/232/232
f 237/237/237 236/236/236 235/235/235
f 238/238/238 237/237/237 235/235/235
f 241/241/241 240/240/240 239/239/239
f 242/242/242 241/241/241 239/239/239
f 245/245/245 244/244/244 243/243/243
f 246/246/246 245/245/245 243/243/243
f 243/243/243 247/247/247 246/246/246
f 247/247/247 248/248/248 246/246/246
f 251/251/251 250/250/250 249/249/249
f 252/252/252 251/251/251 249/249/249
f 255/255/255 254/254/254 253/253/253
f 256/256/256 255/255/255 253/253/253
f 259/259/259 258/258/258 257/257/257
f 260/260/260 259/259/259 257/257/257
f 263/263/263 262/262/262 261/261/261
f 264/264/264 263/263/263 261/261/261
f 267/267/267 266/266/266 265/265/265
f 268/268/268 267/267/267 265/265/265
f 271/271/271 270/270/270 269/269/269
f 272/272/272 271/271/271 269/269/269
f 275/275/275 274/274/274 273/273/273
f 276/276/276 275/275/275 273/273/273
f 279/279/279 278/278/278 277/277/277
f 280/280/280 279/279/279 277/277/277
f 277/277/277 281/281/281 280/280/280
f 281/281/281 282/282/282 280/280/280
f 285/285/285 284/284/284 283/283/283
f 286/286/286 285/285/285 283/283/283
f 289/289/289 288/288/288 287/287/287
f 290/290/290 289/289/289 287/287/287
f 293/293/293 292/292/292 291/291/291
f 294/294/294 293/293/293 291/291/291
f 291/291/291 295/295/295 294/294/294
f 295/295/295 296/296/296 294/294/294
f 299/299/299 298/298/298 297/297/297
f 300/300/300 299/299/299 297/297/297
f 303/303/303 302/302/302 301/301/301
f 304/304/304 303/303/303 301/301/301
f 307/307/307 306/306/306 305/305/305
f 308/308/308 307/307/307 305/305/305
f 311/311/311 310/310/310 309/309/309
f 312/312/312 311/311/311 309/309/309
f 315/315/315 314/314/314 313/313/313
f 316/316/316 315/315/315 313/313/313
f 319/319/319 318/318/318 317/317/317
f 320/320/320 319/319/319 317/317/317
f 323/323/323 322/322/322 321/321/321
f 324/324/324 323/323/323 321/321/321
f 327/327/327 326/326/326 325/325/325
f 328/328/328 327/327/327 325/325/325
f 325/325/325 329/329/329 328/328/328
f 329/329/329 330/330/330 328/328/328
f 333/333/333 332/332/332 331/331/331
f 334/334/334 333/333/333 331/331/331
f 337/337/337 336/336/336 335/335/335
f 338/338/338 337/337/337 335/335/335
f 341/341/341 340/340/340 339/339/339
f 342/342/342 341/341/341 339/339/339
f 339/339/339 343/343/343 342/342/342
f 343/343/343 344/344/344 342/342/342
f 347/347/347 346/346/346 345/345/345
f 348/348/348 347/347/347 345/345/345
f 351/351/351 350/350/350 349/349/349
f 352/352/352 351/351/351 349/349/349
f 355/355/355 354/354/354 353/353/353
f 356/356/356 355/355/355 353/353/353
f 359/359/359 358/358/358 357/357/357
f 360/360/360 359/359/359 357/357/357
f 363/363/363 362/362/362 361/361/361
f 364/364/364 363/363/363 361/361/361
f 367/367/367 366/366/366 365/365/365
f 368/368/368 367/367/367 365/365/365
f 371/371/371 370/370/370 369/369/369
f 372/372/372 371/371/371 369/369/369
f 375/375/375 374/374/374 373/373/373
f 376/376/376 375/375/375 373/373/373
f 373/373/373 377/377/377 376/376/376
f 377/377/377 378/378/378 376/376/376
f 381/381/381 380/380/380 379/379/379
f 382/382/382 381/381/381 379/379/379
f 385/385/385 384/384/384 383/383/383
f 386/386/386 385/385/385 383/383/383
f 389/389/389 388/388/388 387/387/387
f 390/390/390 389/389/389 387/387/387
f 387/387/387 391/391/391 390/390/390
f 391/391/391 392/392/392 390/390/390
f 395/395/395 394/394/394 393/393/393
f 396/396/396 395/395/395 393/393/393
f 399/399/399 398/398/398 397/397/397
f 400/400/400 399/399/399 397/397/397
f 403/403/403 402/402/402 401/401/401
f 404/404/404 403/403/403 401/401/401
f 407/407/407 406/406/406 405/405/405
f 408/408/408 407/407/407 405/405/405
f 411/411/411 410/410/410 409/409/409
f 412/412/412 411/411/411 409/409/409
f 415/415/415 414/414/414 413/413/413
f 416/416/416 415/415/415 413/413/413
f 419/419/419 418/418/418 417/417/417
f 420/420/420 419/419/419 417/417/417
f 423/423/423 422/422/422 421/421/421
f 424/424/424 423/423/423 421/421/421
f 421/421/421 425/425/425 424/424/424
f 425/425/425 426/426/426 424/424/424
f 429/429/429 428/428/428 427/427/427
f 430/430/430 429/429/429 427/427/427
f 433/433/433 432/432/432 431/431/431
f 434/434/434 433/433/433 431/431/431
f 437/437/437 436/436/436 435/435/435
f 438/438/438 437/437/437 435/435/435
f 435/435/435 439/439/439 438/438/438
f 439/439/439 440/440/440 438/438/438
f 443/443/443 442/442/442 441/441/441
f 444/444/444 443/443/443 441/441/441
f 447/447/447 446/446/446 445/445/445
f 448/448/448 447/447/447 445/445/445
f 451/451/451 450/450/450 449/449/449
f 452/452/452 451/451/451 449/449/449
f 455/455/455 454/454/454 453/453/453
f 456/456/456 455/455/455 453/453/453
f 459/459/459 458/458/458 457/457/457
f 460/460/460 459/459/459 457/457/457
f 463/463/463 462/462/462 461/461/461
f 464/464/464 463/463/463 461/461/461
f 467/467/467 466/466/466 465/465/465
f 468/468/468 467/467/467 465/465/465
f 471/471/471 470/470/470 469/469/469
f 472/472/472 471/471/471 469/469/469
f 469/469/469 473/473/473 472/472/472
f 473/473/473 474/474/474 472/472/472
f 477/477/477 476/476/476 475/475/475
f 478/478/478 477/477/477 475/475/475
f 481/481/481 480/480/480 479/479/479
f 482/482/482 481/481/481 479/479/479
f 485/485/485 484/484/484 483/483/483
f 486/486/486 485/485/485 483/483/483
f 483/483/483 487/487/487 486/486/486
f 487/487/487 488/488/488 486/486/486
f 491/491/491 490/490/490 489/489/489
f 492/492/492 491/491/491 489/489/489
f 495/495/495 494/494/494 493/493/493
f 496/496/496 495/495/495 493/493/493
f 499/499/499 498/498/498 497/497/497
f 500/500/500 499/499/499 497/497/497
f 503/503/503 502/502/502 501/501/501
f 504/504/504 503/503/503 501/501/501
f 507/507/507 506/506/506 505/505/505
f 508/508/508 507/507/507 505/505/505
f 511/511/511 510/510/510 509/509/509
f 512/512/512 511/511/511 509/509/509
f 515/515/515 514/514/514 513/513/513
f 516/516/516 515/515/515 513/513/513
f 519/519/519 518/518/518 517/517/517
f 520/520/520 519/519/519 517/517/517
f 517/517/517 521/521/521 520/520/520
f 521/521/521 522/522/522 520/520/520
f 525/525/525 524/524/524 523/523/523
f 526/526/526 525/525/525 523/523/523
f 529/529/529 528/528/528 527/527/527
f 530/530/530 529/529/529 527/527/527
f 533/533/533 532/532/532 531/531/531
f 534/534/534 533/533/533 531/531/531
f 531/531/531 535/535/535 534/534/534
f 535/535/535 536/536/536 534/534/534
f 539/539/539 538/538/538 537/537/537
f 540/540/540 539/539/539 537/537/537
f 543/543/543 542/542/542 541/541/541
f 544/544/544 543/543/543 541/541/541
f 547/547/547 546/546/546 545/545/545
f 548/548/548 547/547/547 545/545/545
f 551/551/551 550/550/550 549/549/549
f 552/552/552 551/551/551 549/549/549
f 555/555/555 554/554/554 553/553/553
f 556/556/556 555/555/555 553/553/553
f 559/559/559 558/558/558 557/557/557
f 560/560/560 559/559/559 557/557/557
f 563/563/563 562/562/562 561/561/561
f 564/564/564 563/563/563 561/561/561
f 567/567/567 566/566/566 565/565/565
f 568/568/568 567/567/567 565/565/565
