g IS4_MDL_EscenarioPB_Pared_Staff_19
v -0 -1.01932895 0.0750270039
v -0 -0.0193318054 -0.0750266984
v -0 -1.01932895 -0.0750273094
v -0 -0.0193318054 0.0750270039
v -0 1.01932883 -0.0750266984
v -0 1.01932883 0.0750270039
vt 0.0966186523 0.0181121826
vt 0.128540039 0.134033203
vt 0.128540039 0.0181121826
vt 0.0966186523 0.134033203
vt 0.128540039 0.234863281
vt 0.0966186523 0.237670898
vn 1 -5.1856041E-06 0
vn 1 0 0
vn 1 -5.1856041E-06 0
vn 1 0 0
vn 1 0 0
vn 1 0 0
g IS4_MDL_EscenarioPB_Pared_Staff_19_0
f 3/3/3 2/2/2 1/1/1
f 2/2/2 4/4/4 1/1/1
f 4/4/4 2/2/2 5/5/5
f 6/6/6 4/4/4 5/5/5
