g Pantry_Fridge_Door_Up
v 0.116632737 -0.249395519 0.88535583
v 0.106947675 -0.249395519 0.876101077
v 0.106978498 -0.249395519 0.895010352
v 0.116632737 -0.220993727 0.88535583
v 0.106978498 -0.220993727 0.895010352
v 0.106947675 -0.220993727 0.876101077
v 0.103086285 0.195753098 0.732447207
v 0.0959686711 0.212924719 0.566772461
v 0.103086285 0.195492774 0.268230587
v 0.0959686711 0.214233935 0.433905333
v 0.103086285 0.195492774 0.268230587
v 0.103086285 0.186509326 0.268230587
v 0.103086285 0.195753098 0.732447207
v 0.103086285 0.186769634 0.732447207
v 0.0830081627 0.195492774 0.268230587
v 0.103086285 0.195492774 0.268230587
v 0.0959686711 0.214233935 0.433905333
v 0.0830081627 0.214233935 0.433905333
v 0.0830081627 0.212924719 0.566772461
v 0.0959686711 0.212924719 0.566772461
v 0.0830081627 0.195753098 0.732447207
v 0.103086285 0.195753098 0.732447207
v 0.0830081627 0.195753098 0.732447207
v 0.103086285 0.195753098 0.732447207
v 0.0830081627 0.186769634 0.732447207
v 0.103086285 0.186769634 0.732447207
v 0.0830081627 0.186769634 0.732447207
v 0.103086285 0.186769634 0.732447207
v 0.0830081627 0.186509326 0.268230587
v 0.103086285 0.186509326 0.268230587
v 0.0830081627 0.186509326 0.268230587
v 0.103086285 0.186509326 0.268230587
v 0.0830081627 0.195492774 0.268230587
v 0.103086285 0.195492774 0.268230587
v 0.0925973952 0.22890006 0.508346856
v 0.0841248035 0.22890006 0.508346856
v 0.0841248035 0.229691386 0.492773116
v 0.0925973952 0.229691386 0.492773116
v 0.0925973952 0.221209332 0.48385039
v 0.0841248035 0.221209332 0.48385039
v 0.0925973952 0.212583542 0.516828001
v 0.0841248035 0.212583542 0.516828001
v 0.0841248035 0.219976425 0.516828001
v 0.0925973952 0.219976425 0.516828001
v 0.0925973952 0.22890006 0.508346856
v 0.0841248035 0.22890006 0.508346856
v 0.0841248035 0.221209332 0.48385039
v 0.0841248035 0.212583542 0.48385039
v 0.0925973952 0.221209332 0.48385039
v 0.0925973952 0.212583542 0.48385039
v 0.0925973952 0.219976425 0.516828001
v 0.0961691737 0.212583542 0.50035888
v 0.0925973952 0.212583542 0.516828001
v 0.0925973952 0.22890006 0.508346856
v 0.0925973952 0.229691386 0.492773116
v 0.0925973952 0.221209332 0.48385039
v 0.0925973952 0.212583542 0.48385039
v 4.40923777E-08 0.237391576 1
v 4.40923777E-08 0.285586774 0.980036914
v 0.0302133597 0.285586774 0.980036974
v 0.0302133597 0.237391576 1
v 0.0718790069 0.204059064 0.966667473
v 0.0302133597 -0.299549311 1
v 4.40923777E-08 0.237391576 1
v 4.40923777E-08 -0.299549311 1
v 0.0302133597 0.285586774 0.980036974
v 4.40923777E-08 0.285586774 0.980036914
v 0.0302133597 0.30554983 0.931841791
v 4.40923777E-08 0.30554983 0.931841731
v 4.40923777E-08 0.30554983 0.931841731
v 4.40923777E-08 0.30554983 0.0681582615
v 0.0302133597 0.30554983 0.0681582615
v 4.40923777E-08 0.30554983 0.0681582615
v 0.0302133597 0.285586774 0.0199630726
v 4.40923777E-08 0.285586774 0.0199630726
v 0.0302133597 0.237391576 -2.2737367E-15
v 4.40923777E-08 0.237391576 -2.2737367E-15
v 4.40923777E-08 -0.299549311 -2.2737367E-15
v 0.0302133597 -0.299549311 -2.2737367E-15
v 0.0718790069 0.204059064 0.0333325192
v 0.0711322427 -0.299549639 0.0327352881
v 0.0724646375 0.251785487 0.0537640378
v 0.0852133632 0.227472141 0.0780776963
v 0.0302133597 0.285586774 0.0199630726
v 4.40923777E-08 0.285586774 0.0199630726
v 4.40923777E-08 0.237391576 -2.2737367E-15
v -0.0149999559 -0.256549448 0.043000184
v -0.0149999559 0.228838414 0.043000184
v -0.0149999559 -0.256549448 0.956999779
v -0.0149999559 0.25267601 0.0528738387
v -0.0149999559 0.262549669 0.0767114237
v -0.0149999559 0.262549669 0.923288524
v -0.0149999559 0.25267601 0.94712615
v -0.0149999559 0.228838414 0.956999779
v 0.0302133597 0.285586774 0.0199630726
v 0.0724646375 0.251785487 0.0537640378
v 0.0302133597 0.30554983 0.0681582615
v 0.0718790069 0.272217005 0.101490781
v 0.0852133632 0.227472141 0.0780776963
v 0.0302133597 0.30554983 0.931841791
v 0.0852133632 0.243108138 0.115826413
v 0.0852133632 0.189386517 0.0641357377
v 0.0718790069 0.204059064 0.0333325192
v 0.0711322427 -0.299549639 0.0327352881
v 0.0852133632 -0.299549639 0.0635623187
v 0.0852133632 -0.299549639 0.937284827
v 0.0852133632 0.2414141 0.883836627
v 0.0852133632 0.189723432 0.937558293
v 0.0711322427 -0.299549639 0.967264712
v 0.0718790069 0.272217005 0.898509204
v 0.0718790069 0.204059064 0.966667473
v 0.0302133597 -0.299549311 1
v 0.0852133632 0.227472141 0.921922266
v 0.0724646375 0.251785487 0.946235955
v 0.0302133597 0.285586774 0.980036974
v 0.0302133597 0.237391576 1
v 0.0792132989 -0.305549681 0.935946047
v 0.0792132989 -0.305549681 0.0648678541
v 0.0662945956 -0.305549681 0.963451207
v 0.0662680492 -0.305549681 0.0365280136
v 0.0281085633 -0.305549383 0.993999898
v 0.0281085633 -0.305549383 0.00600006105
v 0.0711322427 -0.299549639 0.0327352881
v 0.0302133597 -0.299549311 -2.2737367E-15
v 0.00600010483 -0.305549383 0.994000018
v 0.00600010483 -0.305549383 0.00600006105
v 4.40923777E-08 -0.299549311 -2.2737367E-15
v 4.40923777E-08 -0.299549311 1
v 4.40923777E-08 -0.299549311 1
v 0.0302133597 -0.299549311 1
v 0.00600010483 -0.305549383 0.994000018
v 0.0281085633 -0.305549383 0.993999898
v 0.0711322427 -0.299549639 0.967264712
v 0.0662945956 -0.305549681 0.963451207
v 0.0852133632 -0.299549639 0.937284827
v 0.0792132989 -0.305549681 0.935946047
v 0.0792132989 -0.305549681 0.0648678541
v 0.0852133632 -0.299549639 0.0635623187
v 0.0662680492 -0.305549681 0.0365280136
v 0.0711322427 -0.299549639 0.0327352881
v 0.0927844718 -0.215727612 0.910168767
v 0.0927844718 -0.215756297 0.807540596
v 0.0927844718 -0.25465095 0.910134256
v 0.0927844718 -0.25465095 0.807468534
v 0.0830994099 -0.211913213 0.913985908
v 0.0927844718 -0.215727612 0.910168767
v 0.0830994099 -0.258464724 0.913943768
v 0.0927844718 -0.25465095 0.910134256
v 0.0830994099 -0.258464724 0.913943768
v 0.0927844718 -0.25465095 0.910134256
v 0.0830994099 -0.258464724 0.803647161
v 0.0927844718 -0.25465095 0.807468534
v 0.0830994099 -0.258464724 0.803647161
v 0.0927844718 -0.25465095 0.807468534
v 0.0830994099 -0.211943433 0.803734422
v 0.0927844718 -0.215756297 0.807540596
v 0.0830994099 -0.211943433 0.803734422
v 0.0927844718 -0.215756297 0.807540596
v 0.0830994099 -0.211913213 0.913985908
v 0.0927844718 -0.215727612 0.910168767
v 0.106947675 -0.220993727 0.876101077
v 0.0924951658 -0.220993727 0.876101077
v 0.106947675 -0.249395519 0.876101077
v 0.0924951658 -0.249395519 0.876101077
v 0.106978498 -0.249395519 0.895010352
v 0.106947675 -0.249395519 0.876101077
v 0.0924951658 -0.249395519 0.895010352
v 0.0924951658 -0.249395519 0.876101077
v 0.106978498 -0.249395519 0.895010352
v 0.0924951658 -0.249395519 0.895010352
v 0.106978498 -0.220993727 0.895010352
v 0.0924951658 -0.220993727 0.895010352
v 0.106947675 -0.249395519 0.876101077
v 0.106947675 -0.249395519 0.728151858
v 0.106947675 -0.220993727 0.876101077
v 0.106947675 -0.220993727 0.728151858
v 0.106947675 -0.244553298 0.723309636
v 0.106947675 -0.225835949 0.723309636
v 0.106947675 -0.244553298 0.723309636
v 0.106947675 -0.249395519 0.728151858
v 0.111790508 -0.244553298 0.723309636
v 0.116632737 -0.249395519 0.728151858
v 0.116632737 -0.249395519 0.728151858
v 0.116632737 -0.220993727 0.728151858
v 0.111790508 -0.244553298 0.723309636
v 0.111790508 -0.225835949 0.723309636
v 0.106947675 -0.225835949 0.723309636
v 0.111790508 -0.225835949 0.723309636
v 0.106947675 -0.220993727 0.728151858
v 0.116632737 -0.220993727 0.728151858
v 0.116632737 -0.220993727 0.88535583
v 0.116632737 -0.220993727 0.728151858
v 0.116632737 -0.249395519 0.88535583
v 0.116632737 -0.249395519 0.728151858
v 0.106947675 -0.249395519 0.728151858
v 0.106947675 -0.249395519 0.876101077
v 0.116632737 -0.249395519 0.728151858
v 0.116632737 -0.249395519 0.88535583
v 0.111790508 -0.244553298 0.723309636
v 0.111790508 -0.225835949 0.723309636
v 0.106947675 -0.244553298 0.723309636
v 0.106947675 -0.225835949 0.723309636
v 0.106947675 -0.220993727 0.728151858
v 0.116632737 -0.220993727 0.728151858
v 0.106947675 -0.220993727 0.876101077
v 0.116632737 -0.220993727 0.88535583
v 0.106978498 -0.220993727 0.895010352
v 0.0924951658 -0.220993727 0.895010352
v 0.106947675 -0.220993727 0.876101077
v 0.0924951658 -0.220993727 0.876101077
v 0.106978498 -0.249395519 0.895010352
v 0.106978498 -0.220993727 0.895010352
v 0.116632737 -0.249395519 0.88535583
v 0.116632737 -0.220993727 0.88535583
v 4.40923777E-08 0.264921784 0.0406280495
v 4.40923777E-08 0.278549731 0.0735287443
v -0.0149999559 0.25267601 0.0528738387
v -0.0149999559 0.262549669 0.0767114237
v -0.0149999559 0.262549669 0.923288524
v 4.40923777E-08 0.278549731 0.926471233
v -0.0149999559 0.25267601 0.94712615
v 4.40923777E-08 0.264921784 0.959371924
v 4.40923777E-08 0.264921784 0.0406280495
v -0.0149999559 0.25267601 0.0528738387
v 4.40923777E-08 0.232021093 0.0270001218
v -0.0149999559 0.228838414 0.043000184
v -0.0149999559 -0.256549448 0.043000184
v 4.40923777E-08 -0.27254951 0.0270001218
v 4.40923777E-08 -0.27254951 0.0270001218
v -0.0149999559 -0.256549448 0.043000184
v 4.40923777E-08 -0.27254951 0.972999871
v -0.0149999559 -0.256549448 0.956999779
v 4.40923777E-08 -0.27254951 0.972999871
v -0.0149999559 -0.256549448 0.956999779
v 4.40923777E-08 0.232021093 0.972999871
v -0.0149999559 0.228838414 0.956999779
v -0.0149999559 0.25267601 0.94712615
v 4.40923777E-08 0.264921784 0.959371924
v 4.40923777E-08 0.285586774 0.980036914
v 4.40923777E-08 0.237391576 1
v 4.40923777E-08 0.264921784 0.959371924
v 4.40923777E-08 0.30554983 0.931841731
v 4.40923777E-08 0.232021093 0.972999871
v 4.40923777E-08 0.278549731 0.926471233
v 4.40923777E-08 -0.27254951 0.972999871
v 4.40923777E-08 -0.299549311 1
v 4.40923777E-08 0.30554983 0.0681582615
v 4.40923777E-08 0.278549731 0.0735287443
v 4.40923777E-08 -0.27254951 0.0270001218
v 4.40923777E-08 -0.299549311 -2.2737367E-15
v 4.40923777E-08 0.264921784 0.0406280495
v 4.40923777E-08 0.285586774 0.0199630726
v 4.40923777E-08 0.237391576 -2.2737367E-15
v 4.40923777E-08 0.232021093 0.0270001218
vt 0.0354003906 0.952636719
vt 0.0266723633 0.944335938
vt 0.0354003906 0.967773438
vt 0.0702514648 0.952148438
vt 0.0702514648 0.967773438
vt 0.0803222656 0.943359375
vt 0.928222656 0.971191406
vt 0.670898438 0.94140625
vt 0.207763672 0.971191406
vt 0.46484375 0.94140625
vt 0.207763672 0.971191406
vt 0.207763672 0.985351562
vt 0.928222656 0.971191406
vt 0.928222656 0.985351562
vt 0.207763672 0.940429688
vt 0.207763672 0.971191406
vt 0.46484375 0.94140625
vt 0.46484375 0.921386719
vt 0.670898438 0.921386719
vt 0.670898438 0.94140625
vt 0.928222656 0.940429688
vt 0.928222656 0.971191406
vt 0.958007812 0.971191406
vt 0.928222656 0.971191406
vt 0.958007812 0.985351562
vt 0.928222656 0.985351562
vt 0.928222656 0.951171875
vt 0.928222656 0.985351562
vt 0.207763672 0.951171875
vt 0.207763672 0.985351562
vt 0.177978516 0.985351562
vt 0.207763672 0.985351562
vt 0.177978516 0.971191406
vt 0.207763672 0.971191406
vt 0.776855469 0.737792969
vt 0.776855469 0.759277344
vt 0.81640625 0.759277344
vt 0.81640625 0.737792969
vt 0.84765625 0.737792969
vt 0.84765625 0.759277344
vt 0.727050781 0.737792969
vt 0.727050781 0.759277344
vt 0.745605469 0.759277344
vt 0.745605469 0.737792969
vt 0.776855469 0.737792969
vt 0.776855469 0.759277344
vt 0.84765625 0.759277344
vt 0.869628906 0.759277344
vt 0.84765625 0.737792969
vt 0.869628906 0.737792969
vt 0.753417969 0.715820312
vt 0.795410156 0.6953125
vt 0.753417969 0.6953125
vt 0.776855469 0.737792969
vt 0.81640625 0.737792969
vt 0.837890625 0.715820312
vt 0.837890625 0.6953125
vt 0.0243835449 0.643066406
vt 0.0356750488 0.659179688
vt 0.042175293 0.651855469
vt 0.0317687988 0.63671875
vt 0.0492248535 0.622070312
vt 0.0317687988 0.448974609
vt 0.0216064453 0.63671875
vt 0.0216064453 0.448974609
vt 0.042175293 0.651855469
vt 0.0356750488 0.659179688
vt 0.0590515137 0.662109375
vt 0.0527038574 0.669921875
vt 0.0589294434 0.672363281
vt 0.348876953 0.672363281
vt 0.349121094 0.662109375
vt 0.35546875 0.671386719
vt 0.365966797 0.653320312
vt 0.372802734 0.66015625
vt 0.377197266 0.63671875
vt 0.387451172 0.63671875
vt 0.387451172 0.448974609
vt 0.377197266 0.448974609
vt 0.360107422 0.622070312
vt 0.360107422 0.448974609
vt 0.351806641 0.637207031
vt 0.343994141 0.62890625
vt 0.365966797 0.653320312
vt 0.372802734 0.66015625
vt 0.383789062 0.644042969
vt 0.411132812 0.364013672
vt 0.411132812 0.504882812
vt 0.657714844 0.364013672
vt 0.413574219 0.511230469
vt 0.419921875 0.514160156
vt 0.649414062 0.514160156
vt 0.655761719 0.511230469
vt 0.657714844 0.504882812
vt 0.365966797 0.653320312
vt 0.351806641 0.637207031
vt 0.349121094 0.662109375
vt 0.336425781 0.64453125
vt 0.343994141 0.62890625
vt 0.0590515137 0.662109375
vt 0.331542969 0.633789062
vt 0.348876953 0.616210938
vt 0.360107422 0.622070312
vt 0.360107422 0.448974609
vt 0.348876953 0.448974609
vt 0.0604553223 0.448974609
vt 0.077331543 0.633789062
vt 0.0597839355 0.616210938
vt 0.0492248535 0.448974609
vt 0.0720825195 0.64453125
vt 0.0492248535 0.622070312
vt 0.0317687988 0.448974609
vt 0.0650024414 0.62890625
vt 0.0568237305 0.637207031
vt 0.042175293 0.651855469
vt 0.0317687988 0.63671875
vt 0.830566406 0.0667724609
vt 0.830566406 0.325683594
vt 0.840820312 0.05859375
vt 0.840820312 0.334228516
vt 0.873046875 0.0498046875
vt 0.873046875 0.342773438
vt 0.834472656 0.335693359
vt 0.870605469 0.345214844
vt 0.891113281 0.0498046875
vt 0.891113281 0.342773438
vt 0.8984375 0.345214844
vt 0.8984375 0.0474853516
vt 0.8984375 0.0474853516
vt 0.870605469 0.0474853516
vt 0.891113281 0.0498046875
vt 0.873046875 0.0498046875
vt 0.834472656 0.0569458008
vt 0.840820312 0.05859375
vt 0.820800781 0.0662231445
vt 0.830566406 0.0667724609
vt 0.830566406 0.325683594
vt 0.820800781 0.326171875
vt 0.840820312 0.334228516
vt 0.834472656 0.335693359
vt 0.866699219 0.6796875
vt 0.733886719 0.6796875
vt 0.866699219 0.749511719
vt 0.733886719 0.749511719
vt 0.878417969 0.667480469
vt 0.866699219 0.6796875
vt 0.878417969 0.762207031
vt 0.866699219 0.749511719
vt 0.878417969 0.762207031
vt 0.866699219 0.749511719
vt 0.72265625 0.762207031
vt 0.733886719 0.749511719
vt 0.72265625 0.762207031
vt 0.733886719 0.749511719
vt 0.72265625 0.667480469
vt 0.733886719 0.6796875
vt 0.72265625 0.667480469
vt 0.733886719 0.6796875
vt 0.878417969 0.667480469
vt 0.866699219 0.6796875
vt 0.0354003906 0.96484375
vt 0.0354003906 0.983398438
vt 0.0702514648 0.96484375
vt 0.0702514648 0.983398438
vt 0.0354003906 0.967773438
vt 0.0168151855 0.967773438
vt 0.0354003906 0.983398438
vt 0.0168151855 0.983398438
vt 0.0354003906 0.967773438
vt 0.0354003906 0.983398438
vt 0.0702514648 0.967773438
vt 0.0702514648 0.983398438
vt 0.0702514648 0.96484375
vt 0.0702514648 0.776367188
vt 0.0354003906 0.96484375
vt 0.0354003906 0.776367188
vt 0.0629882812 0.76953125
vt 0.0413208008 0.76953125
vt 0.0413208008 0.764160156
vt 0.0354003906 0.766113281
vt 0.0413208008 0.76953125
vt 0.0354003906 0.776367188
vt 0.0354003906 0.776367188
vt 0.0702514648 0.776367188
vt 0.0413208008 0.76953125
vt 0.0629882812 0.76953125
vt 0.0629882812 0.764160156
vt 0.0629882812 0.76953125
vt 0.0702514648 0.766113281
vt 0.0702514648 0.776367188
vt 0.0702514648 0.952148438
vt 0.0702514648 0.776367188
vt 0.0354003906 0.952636719
vt 0.0354003906 0.776367188
vt 0.0266723633 0.776367188
vt 0.0266723633 0.944335938
vt 0.0354003906 0.776367188
vt 0.0354003906 0.952636719
vt 0.0413208008 0.76953125
vt 0.0629882812 0.76953125
vt 0.0413208008 0.764160156
vt 0.0629882812 0.764160156
vt 0.0803222656 0.776367188
vt 0.0702514648 0.776367188
vt 0.0803222656 0.943359375
vt 0.0702514648 0.952148438
vt 0.0702514648 0.967773438
vt 0.0702514648 0.983398438
vt 0.0939941406 0.967773438
vt 0.0939941406 0.983398438
vt 0.0354003906 0.967773438
vt 0.0702514648 0.967773438
vt 0.0354003906 0.952636719
vt 0.0702514648 0.952148438
vt 0.409423828 0.515625
vt 0.418701172 0.520019531
vt 0.413574219 0.511230469
vt 0.419921875 0.514160156
vt 0.649414062 0.514160156
vt 0.650390625 0.520019531
vt 0.655761719 0.511230469
vt 0.659667969 0.515625
vt 0.409423828 0.515625
vt 0.413574219 0.511230469
vt 0.405517578 0.506347656
vt 0.411132812 0.504882812
vt 0.411132812 0.364013672
vt 0.405517578 0.359130859
vt 0.405517578 0.359130859
vt 0.411132812 0.364013672
vt 0.663085938 0.359130859
vt 0.657714844 0.364013672
vt 0.663085938 0.359130859
vt 0.657714844 0.364013672
vt 0.663085938 0.506347656
vt 0.657714844 0.504882812
vt 0.655761719 0.511230469
vt 0.659667969 0.515625
vt 0.381103516 0.6640625
vt 0.388427734 0.646484375
vt 0.373535156 0.656738281
vt 0.36328125 0.671386719
vt 0.378417969 0.64453125
vt 0.361328125 0.661621094
vt 0.378417969 0.459228516
vt 0.388427734 0.449462891
vt 0.0462036133 0.671386719
vt 0.0481872559 0.661621094
vt 0.0310974121 0.459228516
vt 0.0211791992 0.449462891
vt 0.0361022949 0.656738281
vt 0.028503418 0.6640625
vt 0.0211791992 0.646484375
vt 0.0310974121 0.64453125
vn 1.66893005E-05 -1 0
vn 1.66893005E-05 -1 0
vn 1.66893005E-05 -1 0
vn 1.66893005E-05 1 0
vn 1.66893005E-05 1 0
vn 1.66893005E-05 1 0
vn 0.924316406 0.381103516 -0.000213742256
vn 0.924804688 0.380859375 -0.000186085701
vn 0.929199219 0.369384766 0.000594615936
vn 0.943847656 0.329833984 0.00325012207
vn 1 0 -3.57627869E-07
vn 1 0 -3.57627869E-07
vn 1 0 2.38418579E-07
vn 1 0 2.38418579E-07
vn -0 0.993652344 -0.112426758
vn -0 0.993652344 -0.112426758
vn -0 0.998046875 -0.0603027344
vn -0 0.998535156 -0.0582885742
vn -0 0.998046875 0.0617980957
vn -0 0.998046875 0.063293457
vn -0 0.994628906 0.103088379
vn -0 0.994628906 0.103088379
vn -0 0 1
vn -0 0 1
vn -0 0 1
vn -0 0 1
vn -0 -1 0.000560760498
vn -0 -1 0.000560760498
vn -0 -1 0.000560760498
vn -0 -1 0.000560760498
vn -0 0 -1
vn -0 0 -1
vn -0 0 -1
vn -0 0 -1
vn 0.776367188 0.583496094 0.237060547
vn -0 0.927246094 0.374511719
vn -0 0.954101562 -0.299560547
vn 0.779296875 0.597167969 -0.190917969
vn 0.783691406 0.290771484 -0.548828125
vn -0 0.462402344 -0.88671875
vn 0.807128906 0 0.590332031
vn -0 0 1
vn -0 0.461181641 0.887207031
vn 0.77734375 0.291748047 0.557128906
vn 0.776367188 0.583496094 0.237060547
vn -0 0.927246094 0.374511719
vn -0 0.462402344 -0.88671875
vn -0 0 -1
vn 0.783691406 0.290771484 -0.548828125
vn 0.807617188 0 -0.589355469
vn 0.77734375 0.291748047 0.557128906
vn 0.990234375 0.141113281 0.000759124756
vn 0.807128906 0 0.590332031
vn 0.776367188 0.583496094 0.237060547
vn 0.779296875 0.597167969 -0.190917969
vn 0.783691406 0.290771484 -0.548828125
vn 0.807617188 0 -0.589355469
vn -0 0.0340881348 0.999511719
vn -0 0.70703125 0.70703125
vn 0.516113281 0.60546875 0.60546875
vn 0.381347656 0.042755127 0.923339844
vn 0.715820312 0.0169830322 0.698242188
vn 0.409667969 -0.00949859619 0.912109375
vn -0 0.0340881348 0.999511719
vn -0.212768555 -0.219116211 0.952148438
vn 0.516113281 0.60546875 0.60546875
vn -0 0.70703125 0.70703125
vn 0.360839844 0.932128906 0.0289154053
vn -0 1 0.0218811035
vn -0 1 0.0218811035
vn -0 1 -0.0218811035
vn 0.371337891 0.928222656 -0.0278930664
vn -0 1 -0.0218811035
vn 0.516113281 0.60546875 -0.60546875
vn -0 0.70703125 -0.70703125
vn 0.381347656 0.042755127 -0.923339844
vn -0 0.0340881348 -0.999511719
vn -0.210449219 -0.216918945 -0.953125
vn 0.409667969 -0.00949859619 -0.912109375
vn 0.722167969 0.0165252686 -0.691894531
vn 0.754394531 -0.0103759766 -0.656738281
vn 0.8125 0.412353516 -0.412353516
vn 0.969726562 0.170898438 -0.174438477
vn 0.516113281 0.60546875 -0.60546875
vn -0 0.70703125 -0.70703125
vn -0 0.0340881348 -0.999511719
vn -1 0 0
vn -1 0 0
vn -1 0 0
vn -1 0 1.78813934E-07
vn -1 0 0
vn -1 0 0
vn -1 0 3.57627869E-07
vn -1 0 0
vn 0.516113281 0.60546875 -0.60546875
vn 0.8125 0.412353516 -0.412353516
vn 0.371337891 0.928222656 -0.0278930664
vn 0.708984375 0.705078125 -0.0108947754
vn 0.969726562 0.170898438 -0.174438477
vn 0.360839844 0.932128906 0.0289154053
vn 0.989257812 0.145996094 -0.00186061859
vn 1 0.000335216522 -0.0190734863
vn 0.722167969 0.0165252686 -0.691894531
vn 0.754394531 -0.0103759766 -0.656738281
vn 1 -0.0109558105 -0.0155715942
vn 1 -0.0109100342 0.0155639648
vn 0.990722656 0.136474609 0.00173282623
vn 1 0.000390768051 0.0192260742
vn 0.749511719 -0.0106582642 0.661621094
vn 0.722167969 0.69140625 0.0113449097
vn 0.715820312 0.0169830322 0.698242188
vn 0.409667969 -0.00949859619 0.912109375
vn 0.969726562 0.174438477 0.170898438
vn 0.8125 0.412353516 0.412353516
vn 0.516113281 0.60546875 0.60546875
vn 0.381347656 0.042755127 0.923339844
vn 0.228027344 -0.973632812 0.0032787323
vn 0.217285156 -0.976074219 -0.00311851501
vn 0.00733184814 -1 0.00635528564
vn 0.00701141357 -1 -0.0059928894
vn 0.00528717041 -1 0.0102081299
vn 0.00513458252 -1 -0.00991821289
vn 0.754394531 -0.0103759766 -0.656738281
vn 0.409667969 -0.00949859619 -0.912109375
vn -0.264648438 -0.964355469 0.00766372681
vn -0.262451172 -0.96484375 -0.00769424438
vn -0.210449219 -0.216918945 -0.953125
vn -0.212768555 -0.219116211 0.952148438
vn -0.212768555 -0.219116211 0.952148438
vn 0.409667969 -0.00949859619 0.912109375
vn -0.264648438 -0.964355469 0.00766372681
vn 0.00528717041 -1 0.0102081299
vn 0.749511719 -0.0106582642 0.661621094
vn 0.00733184814 -1 0.00635528564
vn 1 -0.0109100342 0.0155639648
vn 0.228027344 -0.973632812 0.0032787323
vn 0.217285156 -0.976074219 -0.00311851501
vn 1 -0.0109558105 -0.0155715942
vn 0.00701141357 -1 -0.0059928894
vn 0.754394531 -0.0103759766 -0.656738281
vn 1 0 1.1920929E-07
vn 1 0 0
vn 1 0 1.1920929E-07
vn 1 0 0
vn 0.366455078 -0.00084400177 0.930664062
vn 0.366455078 -0.00084066391 0.930664062
vn 0.366210938 -0.000820159912 0.930664062
vn 0.366210938 -0.000813484192 0.930664062
vn 0.366455078 -0.930664062 0
vn 0.366455078 -0.930664062 0
vn 0.366455078 -0.930664062 0
vn 0.366455078 -0.930664062 0
vn 0.366455078 0.00175189972 -0.930664062
vn 0.366455078 0.00174808502 -0.930664062
vn 0.366455078 0.00172615051 -0.930664062
vn 0.366455078 0.00171852112 -0.930664062
vn 0.366455078 0.930664062 -0.000255346298
vn 0.366455078 0.930664062 -0.000255346298
vn 0.366455078 0.930664062 -0.00025844574
vn 0.366455078 0.930664062 -0.000258684158
vn -0 0 -1
vn -0 0 -1
vn -0 0 -1
vn -0 0 -1
vn -0 -1 0
vn -0 -1 0
vn -0 -1 0
vn -0 -1 0
vn -0 0 1
vn -0 0 1
vn -0 0 1
vn -0 0 1
vn -1 0 0
vn -1 0 0
vn -1 0 0
vn -1 0 0
vn -1 0 5.24520874E-06
vn -1 0 0
vn -0 -0.70703125 -0.70703125
vn -0 -0.70703125 -0.70703125
vn -0 -0.70703125 -0.70703125
vn -0 -0.70703125 -0.70703125
vn 0.70703125 0 -0.70703125
vn 0.70703125 0 -0.70703125
vn 0.70703125 0 -0.70703125
vn 0.70703125 0 -0.70703125
vn -0 0.70703125 -0.70703125
vn -0 0.70703125 -0.70703125
vn -0 0.70703125 -0.70703125
vn -0 0.70703125 -0.70703125
vn 1 0 0
vn 1 0 0
vn 1 0 0
vn 1 0 0
vn -0 -1 0
vn 9.77516174E-06 -1 0
vn 4.17232513E-07 -1 0
vn 1.00135803E-05 -1 0
vn -0 0 -1
vn -0 0 -1
vn -0 0 -1
vn -0 0 -1
vn -0 1 0
vn -0 1 0
vn -0 1 0
vn -0 1 0
vn -0 1 0
vn -0 1 0
vn -0 1 0
vn -0 1 0
vn 0.70703125 0 0.70703125
vn 0.70703125 0 0.70703125
vn 0.70703125 0 0.70703125
vn 0.70703125 0 0.70703125
vn -0.729492188 0.631835938 -0.26171875
vn -0.73046875 0.683105469 -0.00904083252
vn -0.729492188 0.631835938 -0.26171875
vn -0.73046875 0.683105469 -0.00774765015
vn -0.73046875 0.683105469 0.00769424438
vn -0.73046875 0.683105469 0.00897979736
vn -0.729492188 0.631835938 0.26171875
vn -0.729492188 0.631835938 0.26171875
vn -0.729492188 0.26171875 -0.631835938
vn -0.729492188 0.26171875 -0.631835938
vn -0.730957031 0.01537323 -0.682128906
vn -0.730957031 0.0132369995 -0.682617188
vn -0.729492188 0 -0.684082031
vn -0.729492188 0 -0.684082031
vn -0.729492188 -0.684082031 0
vn -0.729492188 -0.684082031 0
vn -0.729492188 -0.684082031 0
vn -0.729492188 -0.684082031 0
vn -0.729492188 0 0.684082031
vn -0.729492188 0 0.684082031
vn -0.730957031 0.01537323 0.682128906
vn -0.730957031 0.0132369995 0.682617188
vn -0.729492188 0.26171875 0.631835938
vn -0.729492188 0.26171875 0.631835938
vn -1 0 1.07288361E-06
vn -1 0 0
vn -1 0 6.55651093E-07
vn -1 0 0
vn -1 0 1.1920929E-07
vn -1 0 -1.1920929E-07
vn -1 0 -1.07288361E-06
vn -1 0 -1.07288361E-06
vn -1 0 0
vn -1 0 1.1920929E-07
vn -1 0 0
vn -1 0 0
vn -1 0 3.57627869E-07
vn -1 0 0
vn -1 0 -2.56299973E-06
vn -1 0 -2.8014183E-06
g Pantry_Fridge_Door_Up_0
f 3/3/3 2/2/2 1/1/1
f 6/6/6 5/5/5 4/4/4
f 9/9/9 8/8/8 7/7/7
f 9/9/9 10/10/10 8/8/8
f 13/13/13 12/12/12 11/11/11
f 13/13/13 14/14/14 12/12/12
f 17/17/17 16/16/16 15/15/15
f 17/17/17 15/15/15 18/18/18
f 19/19/19 17/17/17 18/18/18
f 19/19/19 20/20/20 17/17/17
f 21/21/21 20/20/20 19/19/19
f 21/21/21 22/22/22 20/20/20
f 25/25/25 24/24/24 23/23/23
f 25/25/25 26/26/26 24/24/24
f 29/29/29 28/28/28 27/27/27
f 29/29/29 30/30/30 28/28/28
f 33/33/33 32/32/32 31/31/31
f 33/33/33 34/34/34 32/32/32
f 37/37/37 36/36/36 35/35/35
f 37/37/37 35/35/35 38/38/38
f 37/37/37 38/38/38 39/39/39
f 37/37/37 39/39/39 40/40/40
f 43/43/43 42/42/42 41/41/41
f 43/43/43 41/41/41 44/44/44
f 43/43/43 44/44/44 45/45/45
f 43/43/43 45/45/45 46/46/46
f 49/49/49 48/48/48 47/47/47
f 49/49/49 50/50/50 48/48/48
f 53/53/53 52/52/52 51/51/51
f 51/51/51 52/52/52 54/54/54
f 54/54/54 52/52/52 55/55/55
f 55/55/55 52/52/52 56/56/56
f 56/56/56 52/52/52 57/57/57
f 60/60/60 59/59/59 58/58/58
f 60/60/60 58/58/58 61/61/61
f 63/63/63 62/62/62 61/61/61
f 64/64/64 63/63/63 61/61/61
f 64/64/64 65/65/65 63/63/63
f 68/68/68 67/67/67 66/66/66
f 68/68/68 69/69/69 67/67/67
f 71/71/71 70/70/70 68/68/68
f 71/71/71 68/68/68 72/72/72
f 74/74/74 73/73/73 72/72/72
f 74/74/74 75/75/75 73/73/73
f 78/78/78 77/77/77 76/76/76
f 78/78/78 76/76/76 79/79/79
f 79/79/79 76/76/76 80/80/80
f 79/79/79 80/80/80 81/81/81
f 82/82/82 80/80/80 76/76/76
f 80/80/80 82/82/82 83/83/83
f 82/82/82 76/76/76 84/84/84
f 76/76/76 85/85/85 84/84/84
f 76/76/76 86/86/86 85/85/85
f 89/89/89 88/88/88 87/87/87
f 89/89/89 90/90/90 88/88/88
f 89/89/89 91/91/91 90/90/90
f 89/89/89 92/92/92 91/91/91
f 89/89/89 93/93/93 92/92/92
f 94/94/94 93/93/93 89/89/89
f 97/97/97 96/96/96 95/95/95
f 97/97/97 98/98/98 96/96/96
f 99/99/99 96/96/96 98/98/98
f 100/100/100 98/98/98 97/97/97
f 99/99/99 98/98/98 101/101/101
f 102/102/102 99/99/99 101/101/101
f 103/103/103 99/99/99 102/102/102
f 104/104/104 103/103/103 102/102/102
f 104/104/104 102/102/102 105/105/105
f 106/106/106 105/105/105 102/102/102
f 98/98/98 107/107/107 101/101/101
f 102/102/102 101/101/101 107/107/107
f 106/106/106 102/102/102 108/108/108
f 102/102/102 107/107/107 108/108/108
f 108/108/108 109/109/109 106/106/106
f 100/100/100 110/110/110 98/98/98
f 98/98/98 110/110/110 107/107/107
f 108/108/108 111/111/111 109/109/109
f 112/112/112 109/109/109 111/111/111
f 107/107/107 113/113/113 108/108/108
f 110/110/110 113/113/113 107/107/107
f 113/113/113 111/111/111 108/108/108
f 114/114/114 110/110/110 100/100/100
f 110/110/110 114/114/114 113/113/113
f 113/113/113 114/114/114 111/111/111
f 114/114/114 100/100/100 115/115/115
f 116/116/116 111/111/111 114/114/114
f 116/116/116 114/114/114 115/115/115
f 119/119/119 118/118/118 117/117/117
f 119/119/119 120/120/120 118/118/118
f 121/121/121 120/120/120 119/119/119
f 121/121/121 122/122/122 120/120/120
f 123/123/123 120/120/120 122/122/122
f 123/123/123 122/122/122 124/124/124
f 125/125/125 122/122/122 121/121/121
f 124/124/124 122/122/122 126/126/126
f 125/125/125 126/126/126 122/122/122
f 124/124/124 126/126/126 127/127/127
f 127/127/127 126/126/126 125/125/125
f 127/127/127 125/125/125 128/128/128
f 131/131/131 130/130/130 129/129/129
f 131/131/131 132/132/132 130/130/130
f 132/132/132 133/133/133 130/130/130
f 132/132/132 134/134/134 133/133/133
f 134/134/134 135/135/135 133/133/133
f 134/134/134 136/136/136 135/135/135
f 135/135/135 136/136/136 137/137/137
f 135/135/135 137/137/137 138/138/138
f 138/138/138 137/137/137 139/139/139
f 138/138/138 139/139/139 140/140/140
f 143/143/143 142/142/142 141/141/141
f 143/143/143 144/144/144 142/142/142
f 147/147/147 146/146/146 145/145/145
f 147/147/147 148/148/148 146/146/146
f 151/151/151 150/150/150 149/149/149
f 151/151/151 152/152/152 150/150/150
f 155/155/155 154/154/154 153/153/153
f 155/155/155 156/156/156 154/154/154
f 159/159/159 158/158/158 157/157/157
f 159/159/159 160/160/160 158/158/158
f 163/163/163 162/162/162 161/161/161
f 163/163/163 164/164/164 162/162/162
f 167/167/167 166/166/166 165/165/165
f 167/167/167 168/168/168 166/166/166
f 171/171/171 170/170/170 169/169/169
f 171/171/171 172/172/172 170/170/170
f 175/175/175 174/174/174 173/173/173
f 176/176/176 174/174/174 175/175/175
f 176/176/176 177/177/177 174/174/174
f 176/176/176 178/178/178 177/177/177
f 181/181/181 180/180/180 179/179/179
f 181/181/181 182/182/182 180/180/180
f 185/185/185 184/184/184 183/183/183
f 185/185/185 186/186/186 184/184/184
f 189/189/189 188/188/188 187/187/187
f 189/189/189 190/190/190 188/188/188
f 193/193/193 192/192/192 191/191/191
f 193/193/193 194/194/194 192/192/192
f 197/197/197 196/196/196 195/195/195
f 197/197/197 198/198/198 196/196/196
f 201/201/201 200/200/200 199/199/199
f 201/201/201 202/202/202 200/200/200
f 205/205/205 204/204/204 203/203/203
f 205/205/205 206/206/206 204/204/204
f 209/209/209 208/208/208 207/207/207
f 209/209/209 210/210/210 208/208/208
f 213/213/213 212/212/212 211/211/211
f 213/213/213 214/214/214 212/212/212
f 217/217/217 216/216/216 215/215/215
f 217/217/217 218/218/218 216/216/216
f 216/216/216 218/218/218 219/219/219
f 216/216/216 219/219/219 220/220/220
f 220/220/220 219/219/219 221/221/221
f 220/220/220 221/221/221 222/222/222
f 225/225/225 224/224/224 223/223/223
f 225/225/225 226/226/226 224/224/224
f 227/227/227 226/226/226 225/225/225
f 227/227/227 225/225/225 228/228/228
f 231/231/231 230/230/230 229/229/229
f 231/231/231 232/232/232 230/230/230
f 235/235/235 234/234/234 233/233/233
f 235/235/235 236/236/236 234/234/234
f 237/237/237 236/236/236 235/235/235
f 237/237/237 235/235/235 238/238/238
f 241/241/241 240/240/240 239/239/239
f 242/242/242 241/241/241 239/239/239
f 241/241/241 243/243/243 240/240/240
f 242/242/242 244/244/244 241/241/241
f 240/240/240 243/243/243 245/245/245
f 240/240/240 245/245/245 246/246/246
f 247/247/247 244/244/244 242/242/242
f 247/247/247 248/248/248 244/244/244
f 246/246/246 245/245/245 249/249/249
f 246/246/246 249/249/249 250/250/250
f 251/251/251 248/248/248 247/247/247
f 251/251/251 247/247/247 252/252/252
f 249/249/249 253/253/253 250/250/250
f 253/253/253 251/251/251 252/252/252
f 249/249/249 254/254/254 253/253/253
f 253/253/253 254/254/254 251/251/251
