g BlueCeilingLampBroken_Light
v 0.0206039567 -2.10846963E-07 -0.0356893018
v 0.0249903966 0.0249912441 -0.0432862602
v -0.0249910057 0.0249912441 -0.0432862602
v -0.0206046198 -2.10846963E-07 -0.0356893018
v -0.0206046198 -2.10846963E-07 -0.0356893018
v -0.0249910057 0.0249912441 -0.0432862602
v -0.0499842018 0.0249912441 -5.14492768E-08
v -0.0412113369 -2.10846963E-07 -1.35440335E-08
v -0.0412113369 -2.10846963E-07 -1.35440335E-08
v -0.0499842018 0.0249912441 -5.14492768E-08
v -0.0249910057 0.0249912441 0.0432863235
v -0.0206046198 -2.10846963E-07 0.0356895737
v -0.0206046198 -2.10846963E-07 0.0356895737
v -0.0249910057 0.0249912441 0.0432863235
v 0.0249903966 0.0249912441 0.0432863235
v 0.0206039567 -2.10846963E-07 0.0356895737
v 0.0206039567 -2.10846963E-07 0.0356895737
v 0.0249903966 0.0249912441 0.0432863235
v 0.0499835797 0.0249912441 -5.14492768E-08
v 0.0412106737 -2.10846963E-07 -1.35440335E-08
v 0.0412106737 -2.10846963E-07 -1.35440335E-08
v 0.0499835797 0.0249912441 -5.14492768E-08
v 0.0249903966 0.0249912441 -0.0432862602
v 0.0206039567 -2.10846963E-07 -0.0356893018
v 0.0154519249 -2.10846963E-07 -0.0267660208
v -9.71181294E-07 -1.34553034E-07 -1.35440335E-08
v 0.0309064854 -2.10846963E-07 -1.35440335E-08
v -0.0154533554 -2.10846963E-07 -0.0267660208
v 0.0154520106 -2.10846963E-07 0.0267660357
v -0.0309077874 -2.10846963E-07 -1.35440335E-08
v -0.0154533554 -2.10846963E-07 0.0267660357
v 0.0412106737 -2.10846963E-07 -1.35440335E-08
v 0.0309064854 -2.10846963E-07 -1.35440335E-08
v 0.0154520106 -2.10846963E-07 0.0267660357
v 0.0206039567 -2.10846963E-07 0.0356895737
v 0.0206039567 -2.10846963E-07 -0.0356893018
v -0.0154533554 -2.10846963E-07 0.0267660357
v 0.0154519249 -2.10846963E-07 -0.0267660208
v -0.0206046198 -2.10846963E-07 0.0356895737
v -0.0206046198 -2.10846963E-07 -0.0356893018
v -0.0309077874 -2.10846963E-07 -1.35440335E-08
v -0.0154533554 -2.10846963E-07 -0.0267660208
v -0.0412113369 -2.10846963E-07 -1.35440335E-08
vt 0.752441406 0.724609375
vt 0.752929688 0.731933594
vt 0.768554688 0.731933594
vt 0.768554688 0.724609375
vt 0.768554688 0.724609375
vt 0.768554688 0.731933594
vt 0.783691406 0.731933594
vt 0.784179688 0.724609375
vt 0.784179688 0.724609375
vt 0.783691406 0.731933594
vt 0.798828125 0.731933594
vt 0.799804688 0.724609375
vt 0.799804688 0.724609375
vt 0.798828125 0.731933594
vt 0.813964844 0.731933594
vt 0.815429688 0.724609375
vt 0.815429688 0.724609375
vt 0.813964844 0.731933594
vt 0.828613281 0.731933594
vt 0.831054688 0.724609375
vt 0.736816406 0.724609375
vt 0.737792969 0.731933594
vt 0.752929688 0.731933594
vt 0.752441406 0.724609375
vt 0.397705078 0.724609375
vt 0.386962891 0.724609375
vt 0.392089844 0.733886719
vt 0.392578125 0.715332031
vt 0.381347656 0.733398438
vt 0.382080078 0.71484375
vt 0.376464844 0.724121094
vt 0.951660156 0.732910156
vt 0.949707031 0.729492188
vt 0.939453125 0.729492188
vt 0.9375 0.732421875
vt 0.958984375 0.720703125
vt 0.934082031 0.719726562
vt 0.955566406 0.720703125
vt 0.930664062 0.719726562
vt 0.952148438 0.708496094
vt 0.939941406 0.7109375
vt 0.950683594 0.711425781
vt 0.938476562 0.708007812
vn 0.471679688 -0.331298828 -0.817382812
vn 0.471679688 -0.331298828 -0.817382812
vn -0.471679688 -0.331298828 -0.817382812
vn -0.471679688 -0.331298828 -0.817382812
vn -0.471679688 -0.331298828 -0.817382812
vn -0.471679688 -0.331298828 -0.817382812
vn -0.943359375 -0.331298828 -5.36441803E-07
vn -0.943359375 -0.331298828 1.1920929E-07
vn -0.943359375 -0.331298828 1.1920929E-07
vn -0.943359375 -0.331298828 -5.36441803E-07
vn -0.471679688 -0.331298828 0.817382812
vn -0.471679688 -0.331298828 0.817382812
vn -0.471679688 -0.331298828 0.817382812
vn -0.471679688 -0.331298828 0.817382812
vn 0.471679688 -0.331298828 0.817382812
vn 0.471679688 -0.331298828 0.817382812
vn 0.471679688 -0.331298828 0.817382812
vn 0.471679688 -0.331298828 0.817382812
vn 0.943359375 -0.331298828 0
vn 0.943359375 -0.331298828 6.55651093E-07
vn 0.943359375 -0.331298828 6.55651093E-07
vn 0.943359375 -0.331298828 0
vn 0.471679688 -0.331298828 -0.817382812
vn 0.471679688 -0.331298828 -0.817382812
vn -4.76837158E-07 -1 3.57627869E-07
vn -0 -1 -1.25169754E-06
vn -9.53674316E-07 -1 1.43051147E-06
vn 4.76837158E-07 -1 -2.50339508E-06
vn -4.76837158E-07 -1 -1.43051147E-06
vn 9.53674316E-07 -1 -3.57627869E-07
vn 4.76837158E-07 -1 -3.57627869E-07
vn -0 -1 2.38418579E-06
vn -9.53674316E-07 -1 1.43051147E-06
vn -4.76837158E-07 -1 -1.43051147E-06
vn -0 -1 1.1920929E-06
vn -0 -1 -1.78813934E-06
vn 4.76837158E-07 -1 -3.57627869E-07
vn -4.76837158E-07 -1 3.57627869E-07
vn -0 -1 -5.96046448E-07
vn -0 -1 -1.78813934E-06
vn 9.53674316E-07 -1 -3.57627869E-07
vn 4.76837158E-07 -1 -2.50339508E-06
vn -0 -1 5.96046448E-07
g BlueCeilingLampBroken_Light_0
f 3/3/3 2/2/2 1/1/1
f 4/4/4 3/3/3 1/1/1
f 7/7/7 6/6/6 5/5/5
f 8/8/8 7/7/7 5/5/5
f 11/11/11 10/10/10 9/9/9
f 12/12/12 11/11/11 9/9/9
f 15/15/15 14/14/14 13/13/13
f 16/16/16 15/15/15 13/13/13
f 19/19/19 18/18/18 17/17/17
f 20/20/20 19/19/19 17/17/17
f 23/23/23 22/22/22 21/21/21
f 24/24/24 23/23/23 21/21/21
f 27/27/27 26/26/26 25/25/25
f 25/25/25 26/26/26 28/28/28
f 29/29/29 26/26/26 27/27/27
f 28/28/28 26/26/26 30/30/30
f 31/31/31 26/26/26 29/29/29
f 30/30/30 26/26/26 31/31/31
f 34/34/34 33/33/33 32/32/32
f 35/35/35 34/34/34 32/32/32
f 32/32/32 33/33/33 36/36/36
f 37/37/37 34/34/34 35/35/35
f 33/33/33 38/38/38 36/36/36
f 39/39/39 37/37/37 35/35/35
f 36/36/36 38/38/38 40/40/40
f 41/41/41 37/37/37 39/39/39
f 38/38/38 42/42/42 40/40/40
f 43/43/43 41/41/41 39/39/39
f 40/40/40 42/42/42 43/43/43
f 42/42/42 41/41/41 43/43/43
