g BallsBazooka_Ball_2
v 5.89172888E-09 -0.0337500051 -0.0584567115
v 5.89172888E-09 -4.76837148E-09 -0.0674999878
v -0.0477297157 -4.76837148E-09 -0.0477297008
v -0.0413351394 -0.0337500051 -0.041335132
v -0.0674999952 -4.76837148E-09 0
v 5.89172888E-09 -0.0584567152 -0.0337499939
v -0.0584567189 -0.0337500051 0
v -0.0238648169 -0.0584567152 -0.0238648504
v 5.89172888E-09 -0.0675000027 0
v -0.0337499939 -0.0584567152 0
v -0.0584567189 -0.0337500051 0
v -0.0674999952 -4.76837148E-09 0
v -0.0477297157 -4.76837148E-09 0.0477297008
v -0.0413351394 -0.0337500051 0.041335132
v 5.89172888E-09 -4.76837148E-09 0.0674999952
v -0.0337499939 -0.0584567152 0
v 5.89172888E-09 -0.0337500051 0.0584567115
v -0.0238648169 -0.0584567152 0.0238648504
v 5.89172888E-09 -0.0675000027 0
v 5.89172888E-09 -0.0584567152 0.0337499976
v 5.89172888E-09 -0.0337500051 0.0584567115
v 5.89172888E-09 -4.76837148E-09 0.0674999952
v 0.0477297232 -4.76837148E-09 0.0477297045
v 0.0413351469 -0.0337500051 0.0413351394
v 0.0675000027 -4.76837148E-09 0
v 5.89172888E-09 -0.0584567152 0.0337499976
v 0.0584567301 -0.0337500051 0
v 0.0238648262 -0.0584567152 0.0238648523
v 5.89172888E-09 -0.0675000027 0
v 0.0337500051 -0.0584567152 0
v 0.0584567301 -0.0337500051 0
v 0.0675000027 -4.76837148E-09 0
v 0.0477297232 -4.76837148E-09 -0.0477297008
v 0.0413351469 -0.0337500051 -0.041335132
v 5.89172888E-09 -4.76837148E-09 -0.0674999878
v 0.0337500051 -0.0584567152 0
v 5.89172888E-09 -0.0337500051 -0.0584567115
v 0.0238648262 -0.0584567152 -0.0238648504
v 5.89172888E-09 -0.0675000027 0
v 5.89172888E-09 -0.0584567152 -0.0337499939
v 0.0477297232 -4.76837148E-09 -0.0477297008
v 5.89172888E-09 0.0337499939 -0.0584567115
v 5.89172888E-09 -4.76837148E-09 -0.0674999878
v 0.0413351469 0.0337499939 -0.041335132
v 0.0675000027 -4.76837148E-09 0
v 5.89172888E-09 0.0584567003 -0.0337499939
v 0.0584567301 0.0337499939 0
v 0.0238648262 0.0584567003 -0.0238648504
v 5.89172888E-09 0.0674999952 0
v 0.0337500051 0.0584567003 0
v -0.0477297157 -4.76837148E-09 -0.0477297008
v -0.0584567189 0.0337499939 0
v -0.0674999952 -4.76837148E-09 0
v -0.0413351394 0.0337499939 -0.041335132
v 5.89172888E-09 -4.76837148E-09 -0.0674999878
v -0.0337499939 0.0584567003 0
v 5.89172888E-09 0.0337499939 -0.0584567115
v -0.0238648169 0.0584567003 -0.0238648504
v 5.89172888E-09 0.0674999952 0
v 5.89172888E-09 0.0584567003 -0.0337499939
v -0.0477297157 -4.76837148E-09 0.0477297008
v 5.89172888E-09 0.0337499939 0.0584567115
v 5.89172888E-09 -4.76837148E-09 0.0674999952
v -0.0413351394 0.0337499939 0.041335132
v -0.0674999952 -4.76837148E-09 0
v 5.89172888E-09 0.0584567003 0.0337499976
v -0.0584567189 0.0337499939 0
v -0.0238648169 0.0584567003 0.0238648504
v 5.89172888E-09 0.0674999952 0
v -0.0337499939 0.0584567003 0
v 0.0477297232 -4.76837148E-09 0.0477297045
v 0.0584567301 0.0337499939 0
v 0.0675000027 -4.76837148E-09 0
v 0.0413351469 0.0337499939 0.0413351394
v 5.89172888E-09 -4.76837148E-09 0.0674999952
v 0.0337500051 0.0584567003 0
v 5.89172888E-09 0.0337499939 0.0584567115
v 0.0238648262 0.0584567003 0.0238648523
v 5.89172888E-09 0.0674999952 0
v 5.89172888E-09 0.0584567003 0.0337499976
vt 0.192749023 0.461914062
vt 0.205810547 0.413574219
vt 0.154907227 0.413574219
vt 0.149902344 0.448974609
vt 0.106384277 0.413574219
vt 0.157226562 0.498046875
vt 0.106384277 0.445800781
vt 0.134643555 0.482421875
vt 0.106384277 0.514648438
vt 0.106384277 0.478027344
vt 0.106384277 0.445800781
vt 0.106384277 0.413574219
vt 0.0576171875 0.413574219
vt 0.0626831055 0.448974609
vt 0.00688934326 0.413574219
vt 0.106384277 0.478027344
vt 0.0198974609 0.461914062
vt 0.0780639648 0.482421875
vt 0.106384277 0.514648438
vt 0.0556030273 0.498046875
vt 0.0198974609 0.461914062
vt 0.00688934326 0.413574219
vt 0.0576171875 0.413574219
vt 0.0626831055 0.448974609
vt 0.106384277 0.413574219
vt 0.0556030273 0.498046875
vt 0.106384277 0.445800781
vt 0.0780639648 0.482421875
vt 0.106384277 0.514648438
vt 0.106384277 0.478027344
vt 0.106384277 0.445800781
vt 0.106384277 0.413574219
vt 0.154907227 0.413574219
vt 0.149902344 0.448974609
vt 0.205444336 0.413574219
vt 0.106384277 0.478027344
vt 0.192749023 0.461914062
vt 0.134643555 0.482421875
vt 0.106384277 0.514648438
vt 0.157226562 0.498046875
vt 0.154907227 0.413574219
vt 0.192749023 0.365234375
vt 0.205444336 0.413574219
vt 0.149902344 0.378173828
vt 0.106384277 0.413574219
vt 0.157226562 0.328857422
vt 0.106384277 0.381347656
vt 0.134643555 0.344482422
vt 0.106384277 0.3125
vt 0.106384277 0.348876953
vt 0.154907227 0.413574219
vt 0.106384277 0.381347656
vt 0.106384277 0.413574219
vt 0.149902344 0.378173828
vt 0.205810547 0.413574219
vt 0.106384277 0.348876953
vt 0.192749023 0.365234375
vt 0.134643555 0.344482422
vt 0.106384277 0.3125
vt 0.157226562 0.328857422
vt 0.0576171875 0.413574219
vt 0.0198974609 0.365234375
vt 0.00688934326 0.413574219
vt 0.0626831055 0.378173828
vt 0.106384277 0.413574219
vt 0.0556030273 0.328857422
vt 0.106384277 0.381347656
vt 0.0780639648 0.344482422
vt 0.106384277 0.3125
vt 0.106384277 0.348876953
vt 0.0576171875 0.413574219
vt 0.106384277 0.381347656
vt 0.106384277 0.413574219
vt 0.0626831055 0.378173828
vt 0.00688934326 0.413574219
vt 0.106384277 0.348876953
vt 0.0198974609 0.365234375
vt 0.0780639648 0.344482422
vt 0.106384277 0.3125
vt 0.0556030273 0.328857422
vn -0 -0.435058594 -0.900390625
vn -0 0 -1
vn -0.70703125 0 -0.70703125
vn -0.63671875 -0.435058594 -0.63671875
vn -1 0 0
vn -0 -0.772949219 -0.634765625
vn -0.900390625 -0.435058594 0
vn -0.448730469 -0.772949219 -0.448730469
vn -0 -1 0
vn -0.634765625 -0.772949219 0
vn -0.900390625 -0.435058594 0
vn -1 0 0
vn -0.70703125 0 0.70703125
vn -0.63671875 -0.435058594 0.63671875
vn -0 0 1
vn -0.634765625 -0.772949219 0
vn -0 -0.435058594 0.900390625
vn -0.448730469 -0.772949219 0.448730469
vn -0 -1 0
vn -0 -0.772949219 0.634765625
vn -0 -0.435058594 0.900390625
vn -0 0 1
vn 0.70703125 0 0.70703125
vn 0.63671875 -0.435058594 0.63671875
vn 1 0 0
vn -0 -0.772949219 0.634765625
vn 0.900390625 -0.435058594 0
vn 0.448730469 -0.772949219 0.448730469
vn -0 -1 0
vn 0.634765625 -0.772949219 0
vn 0.900390625 -0.435058594 0
vn 1 0 0
vn 0.70703125 0 -0.70703125
vn 0.63671875 -0.435058594 -0.63671875
vn -0 0 -1
vn 0.634765625 -0.772949219 0
vn -0 -0.435058594 -0.900390625
vn 0.448730469 -0.772949219 -0.448730469
vn -0 -1 0
vn -0 -0.772949219 -0.634765625
vn 0.70703125 0 -0.70703125
vn -0 0.435058594 -0.900390625
vn -0 0 -1
vn 0.63671875 0.435058594 -0.63671875
vn 1 0 0
vn -0 0.772949219 -0.634765625
vn 0.900390625 0.435058594 0
vn 0.448730469 0.772949219 -0.448730469
vn -0 1 0
vn 0.634765625 0.772949219 0
vn -0.70703125 0 -0.70703125
vn -0.900390625 0.435058594 0
vn -1 0 0
vn -0.63671875 0.435058594 -0.63671875
vn -0 0 -1
vn -0.634765625 0.772949219 0
vn -0 0.435058594 -0.900390625
vn -0.448730469 0.772949219 -0.448730469
vn -0 1 0
vn -0 0.772949219 -0.634765625
vn -0.70703125 0 0.70703125
vn -0 0.435058594 0.900390625
vn -0 0 1
vn -0.63671875 0.435058594 0.63671875
vn -1 0 0
vn -0 0.772949219 0.634765625
vn -0.900390625 0.435058594 0
vn -0.448730469 0.772949219 0.448730469
vn -0 1 0
vn -0.634765625 0.772949219 0
vn 0.70703125 0 0.70703125
vn 0.900390625 0.435058594 0
vn 1 0 0
vn 0.63671875 0.435058594 0.63671875
vn -0 0 1
vn 0.634765625 0.772949219 0
vn -0 0.435058594 0.900390625
vn 0.448730469 0.772949219 0.448730469
vn -0 1 0
vn -0 0.772949219 0.634765625
g BallsBazooka_Ball_2_0
f 3/3/3 2/2/2 1/1/1
f 4/4/4 3/3/3 1/1/1
f 5/5/5 3/3/3 4/4/4
f 4/4/4 1/1/1 6/6/6
f 7/7/7 5/5/5 4/4/4
f 8/8/8 4/4/4 6/6/6
f 7/7/7 4/4/4 8/8/8
f 6/6/6 9/9/9 8/8/8
f 10/10/10 7/7/7 8/8/8
f 8/8/8 9/9/9 10/10/10
f 13/13/13 12/12/12 11/11/11
f 14/14/14 13/13/13 11/11/11
f 15/15/15 13/13/13 14/14/14
f 14/14/14 11/11/11 16/16/16
f 17/17/17 15/15/15 14/14/14
f 18/18/18 14/14/14 16/16/16
f 17/17/17 14/14/14 18/18/18
f 16/16/16 19/19/19 18/18/18
f 20/20/20 17/17/17 18/18/18
f 18/18/18 19/19/19 20/20/20
f 23/23/23 22/22/22 21/21/21
f 24/24/24 23/23/23 21/21/21
f 25/25/25 23/23/23 24/24/24
f 24/24/24 21/21/21 26/26/26
f 27/27/27 25/25/25 24/24/24
f 28/28/28 24/24/24 26/26/26
f 27/27/27 24/24/24 28/28/28
f 26/26/26 29/29/29 28/28/28
f 30/30/30 27/27/27 28/28/28
f 28/28/28 29/29/29 30/30/30
f 33/33/33 32/32/32 31/31/31
f 34/34/34 33/33/33 31/31/31
f 35/35/35 33/33/33 34/34/34
f 34/34/34 31/31/31 36/36/36
f 37/37/37 35/35/35 34/34/34
f 38/38/38 34/34/34 36/36/36
f 37/37/37 34/34/34 38/38/38
f 36/36/36 39/39/39 38/38/38
f 40/40/40 37/37/37 38/38/38
f 38/38/38 39/39/39 40/40/40
f 43/43/43 42/42/42 41/41/41
f 42/42/42 44/44/44 41/41/41
f 41/41/41 44/44/44 45/45/45
f 42/42/42 46/46/46 44/44/44
f 44/44/44 47/47/47 45/45/45
f 46/46/46 48/48/48 44/44/44
f 44/44/44 48/48/48 47/47/47
f 46/46/46 49/49/49 48/48/48
f 48/48/48 50/50/50 47/47/47
f 48/48/48 49/49/49 50/50/50
f 53/53/53 52/52/52 51/51/51
f 52/52/52 54/54/54 51/51/51
f 51/51/51 54/54/54 55/55/55
f 52/52/52 56/56/56 54/54/54
f 54/54/54 57/57/57 55/55/55
f 56/56/56 58/58/58 54/54/54
f 54/54/54 58/58/58 57/57/57
f 56/56/56 59/59/59 58/58/58
f 58/58/58 60/60/60 57/57/57
f 58/58/58 59/59/59 60/60/60
f 63/63/63 62/62/62 61/61/61
f 62/62/62 64/64/64 61/61/61
f 61/61/61 64/64/64 65/65/65
f 62/62/62 66/66/66 64/64/64
f 64/64/64 67/67/67 65/65/65
f 66/66/66 68/68/68 64/64/64
f 64/64/64 68/68/68 67/67/67
f 66/66/66 69/69/69 68/68/68
f 68/68/68 70/70/70 67/67/67
f 68/68/68 69/69/69 70/70/70
f 73/73/73 72/72/72 71/71/71
f 72/72/72 74/74/74 71/71/71
f 71/71/71 74/74/74 75/75/75
f 72/72/72 76/76/76 74/74/74
f 74/74/74 77/77/77 75/75/75
f 76/76/76 78/78/78 74/74/74
f 74/74/74 78/78/78 77/77/77
f 76/76/76 79/79/79 78/78/78
f 78/78/78 80/80/80 77/77/77
f 78/78/78 79/79/79 80/80/80
