g IS4_MDL_EscenarioPB_Pared_Heladeria_Toldo_1
v -0.736137688 0.276221544 1.1219368
v -0.534765601 0.124295279 0.488105923
v -0.953388631 0.124295279 0.90242368
v -0.317514628 0.276221544 0.707619011
v 0.0217968747 0.124295279 -0.062721245
v 0.23904784 0.276221544 0.156791851
v 0.487622052 0.124295279 -0.523749828
v 0.704873025 0.276221544 -0.30423674
v 0.912241161 0.124295279 -0.944001436
v 1.12949216 0.276221544 -0.724488199
v -1.08032715 -0.068196781 0.775518298
v -0.691708982 -0.310386091 0.329527885
v -1.1103369 -0.310386091 0.743845642
v -0.660937488 -0.068196781 0.361967921
v -0.953388631 0.124295279 0.90242368
v -0.135151371 -0.310386091 -0.22129944
v -0.534765601 0.124295279 0.488105923
v -0.103374019 -0.0681964755 -0.187839344
v 0.330673814 -0.310386091 -0.682327867
v 0.0217968747 0.124295279 -0.062721245
v 0.363295883 -0.068196781 -0.648014188
v 0.755292952 -0.310386091 -1.10257936
v 0.487622052 0.124295279 -0.523749828
v 0.788686514 -0.068196781 -1.06748748
v 0.912241161 0.124295279 -0.944001436
v 1.12949216 -0.310386091 -0.724488378
v 0.755292952 -0.310386091 -1.10257936
v 0.788686514 -0.068196781 -1.06748748
v 0.912241161 0.124295279 -0.944001436
v 1.12949216 0.276221544 -0.724488199
v -1.1103369 -0.310386091 0.743845642
v -0.736137688 -0.310386091 1.12193668
v -1.08032715 -0.068196781 0.775518298
v -0.953388631 0.124295279 0.90242368
v -0.736137688 0.276221544 1.1219368
v -0.756469727 0.311309457 1.14390445
v -0.97697264 0.15005669 0.921108246
v -0.548808575 0.15005669 0.497350007
v -0.328305662 0.311309457 0.720146179
v 0.240937501 0.311309457 0.15676789
v 0.0204345696 0.15005669 -0.0660282001
v 0.717373013 0.311309457 -0.314765453
v 0.4968701 0.15005669 -0.537561655
v 1.15166986 0.311309457 -0.744592905
v 0.931166947 0.15005669 -0.967388868
v -1.11999023 -0.0681964755 0.777953625
v -1.15166986 -0.311309546 0.744592905
v -0.723505855 -0.311309546 0.320834637
v -0.69097656 -0.068196781 0.355049282
v -0.97697264 0.15005669 0.921108246
v -0.548808575 0.15005669 0.497350007
v -0.154262692 -0.311309546 -0.242543638
v 0.0204345696 0.15005669 -0.0660282001
v -0.120615229 -0.068196781 -0.207193449
v 0.32217285 -0.311309546 -0.714077115
v 0.4968701 0.15005669 -0.537561655
v 0.356762677 -0.0681964755 -0.677776635
v 0.756469727 -0.311309546 -1.14390445
v 0.931166947 0.15005669 -0.967388868
v 0.791918933 -0.0681964755 -1.10673761
v 1.15166986 -0.311309546 -0.744592726
v 0.791918933 -0.0681964755 -1.10673761
v 0.756469727 -0.311309546 -1.14390445
v 0.931166947 0.15005669 -0.967388868
v 1.15166986 0.311309457 -0.744592905
v -1.15166986 -0.311309546 0.744592905
v -1.11999023 -0.0681964755 0.777953625
v -0.756469727 -0.311309546 1.14390445
v -0.97697264 0.15005669 0.921108246
v -0.756469727 0.311309457 1.14390445
v -0.756469727 0.311309457 1.14390445
v -0.317514628 0.276221544 0.707619011
v -0.736137688 0.276221544 1.1219368
v -0.328305662 0.311309457 0.720146179
v 0.23904784 0.276221544 0.156791851
v 0.240937501 0.311309457 0.15676789
v 0.704873025 0.276221544 -0.30423674
v 0.717373013 0.311309457 -0.314765453
v 1.15166986 0.311309457 -0.744592905
v 1.12949216 0.276221544 -0.724488199
v 0.704873025 0.276221544 -0.30423674
v -0.723505855 -0.311309546 0.320834637
v -1.15166986 -0.311309546 0.744592905
v -1.1103369 -0.310386091 0.743845642
v -0.691708982 -0.310386091 0.329527885
v -0.154262692 -0.311309546 -0.242543638
v -0.135151371 -0.310386091 -0.22129944
v 0.32217285 -0.311309546 -0.714077115
v 0.330673814 -0.310386091 -0.682327867
v 0.756469727 -0.311309546 -1.14390445
v 0.330673814 -0.310386091 -0.682327867
v 0.755292952 -0.310386091 -1.10257936
v 1.15166986 -0.311309546 -0.744592726
v 0.756469727 -0.311309546 -1.14390445
v 0.755292952 -0.310386091 -1.10257936
v 1.12949216 -0.310386091 -0.724488378
v -1.15166986 -0.311309546 0.744592905
v -0.756469727 -0.311309546 1.14390445
v -0.736137688 -0.310386091 1.12193668
v -1.1103369 -0.310386091 0.743845642
v -0.756469727 -0.311309546 1.14390445
v -0.756469727 0.311309457 1.14390445
v -0.736137688 0.276221544 1.1219368
v -0.736137688 -0.310386091 1.12193668
v 1.15166986 0.311309457 -0.744592905
v 1.15166986 -0.311309546 -0.744592726
v 1.12949216 -0.310386091 -0.724488378
v 1.12949216 0.276221544 -0.724488199
vt 0.0165405273 0.477294922
vt 0.109924316 0.441894531
vt 0.0165405273 0.441894531
vt 0.109924316 0.477294922
vt 0.203613281 0.441894531
vt 0.203613281 0.477294922
vt 0.299560547 0.441894531
vt 0.299560547 0.477294922
vt 0.394042969 0.441894531
vt 0.394042969 0.477294922
vt 0.016418457 0.396972656
vt 0.109924316 0.340332031
vt 0.0165405273 0.340332031
vt 0.109924316 0.396972656
vt 0.0165405273 0.441894531
vt 0.203613281 0.340332031
vt 0.109924316 0.441894531
vt 0.203491211 0.396972656
vt 0.299560547 0.340332031
vt 0.203613281 0.441894531
vt 0.299316406 0.396972656
vt 0.394042969 0.340332031
vt 0.299560547 0.441894531
vt 0.394042969 0.396972656
vt 0.394042969 0.441894531
vt 0.385253906 0.341308594
vt 0.298828125 0.341308594
vt 0.306640625 0.3984375
vt 0.335205078 0.443603516
vt 0.385253906 0.479492188
vt 0.110656738 0.341552734
vt 0.024230957 0.341552734
vt 0.10357666 0.3984375
vt 0.0744018555 0.443847656
vt 0.024230957 0.479736328
vt 0.0163726807 0.479736328
vt 0.0163726807 0.443847656
vt 0.109924316 0.443847656
vt 0.109924316 0.479736328
vt 0.203613281 0.479736328
vt 0.203613281 0.443847656
vt 0.299560547 0.479736328
vt 0.299560547 0.443847656
vt 0.394287109 0.479736328
vt 0.394287109 0.443847656
vt 0.0162658691 0.395019531
vt 0.0163726807 0.340820312
vt 0.109924316 0.340820312
vt 0.109924316 0.395019531
vt 0.0163726807 0.443847656
vt 0.109924316 0.443847656
vt 0.203613281 0.340820312
vt 0.203613281 0.443847656
vt 0.203491211 0.395019531
vt 0.299560547 0.340820312
vt 0.299560547 0.443847656
vt 0.299560547 0.395019531
vt 0.394287109 0.340820312
vt 0.394287109 0.443847656
vt 0.394042969 0.395019531
vt 0.385498047 0.341308594
vt 0.305664062 0.398681641
vt 0.297607422 0.341308594
vt 0.334960938 0.443359375
vt 0.385498047 0.480224609
vt 0.110717773 0.341308594
vt 0.103637695 0.398681641
vt 0.0241851807 0.341308594
vt 0.0745239258 0.444091797
vt 0.0241851807 0.48046875
vt 0.0163726807 0.340576172
vt 0.109924316 0.348388672
vt 0.0201416016 0.348388672
vt 0.109924316 0.340576172
vt 0.203491211 0.348388672
vt 0.203613281 0.340576172
vt 0.297607422 0.348388672
vt 0.299560547 0.340576172
vt 0.394287109 0.340576172
vt 0.390380859 0.348388672
vt 0.300048828 0.348388672
vt 0.109924316 0.341064453
vt 0.0163726807 0.341064453
vt 0.0201416016 0.347167969
vt 0.109924316 0.347167969
vt 0.203613281 0.341064453
vt 0.203491211 0.347167969
vt 0.299560547 0.341064453
vt 0.297607422 0.347167969
vt 0.394287109 0.341064453
vt 0.300048828 0.347167969
vt 0.390380859 0.347167969
vt 0.394287109 0.357177734
vt 0.394287109 0.479736328
vt 0.390380859 0.473388672
vt 0.390380859 0.357421875
vt 0.0163726807 0.479736328
vt 0.0163726807 0.357177734
vt 0.0201416016 0.357421875
vt 0.0201416016 0.473388672
vt 0.0163726807 0.341064453
vt 0.0163726807 0.480224609
vt 0.0201416016 0.472167969
vt 0.0201416016 0.341308594
vt 0.394287109 0.480224609
vt 0.394287109 0.341064453
vt 0.390380859 0.341308594
vt 0.390380859 0.472167969
vn 0.310546875 -0.897460938 0.313720703
vn 0.310546875 -0.897460938 0.313720703
vn 0.310546875 -0.897460938 0.313720703
vn 0.310546875 -0.897460938 0.313720703
vn 0.310546875 -0.897460938 0.313720703
vn 0.310546875 -0.897460938 0.313720703
vn 0.310546875 -0.897460938 0.313720703
vn 0.310546875 -0.897460938 0.313720703
vn 0.310546875 -0.897460938 0.313720703
vn 0.310546875 -0.897460938 0.313720703
vn 0.625488281 -0.456542969 0.6328125
vn 0.690917969 -0.182250977 0.699707031
vn 0.69140625 -0.179443359 0.699707031
vn 0.625 -0.456542969 0.6328125
vn 0.514648438 -0.680664062 0.520996094
vn 0.690429688 -0.186645508 0.698730469
vn 0.515625 -0.679199219 0.521972656
vn 0.625 -0.456542969 0.6328125
vn 0.689941406 -0.191650391 0.698242188
vn 0.517089844 -0.677246094 0.5234375
vn 0.625 -0.456542969 0.6328125
vn 0.689453125 -0.193969727 0.697753906
vn 0.519042969 -0.674316406 0.525390625
vn 0.625 -0.456787109 0.6328125
vn 0.51953125 -0.673339844 0.525878906
vn -0.709960938 -0.000384807587 0.704101562
vn -0.7109375 -0.00392913818 0.703613281
vn -0.709472656 -0.000810623169 0.704589844
vn -0.709960938 0.000906467438 0.704101562
vn -0.7109375 0 0.703613281
vn 0.7109375 0.00392913818 -0.703613281
vn 0.709960938 0.000376224518 -0.704101562
vn 0.709472656 0.000818729401 -0.704589844
vn 0.709960938 -0.000896453857 -0.704101562
vn 0.7109375 0 -0.703613281
vn -0.321777344 0.889160156 -0.325195312
vn -0.321777344 0.889160156 -0.325195312
vn -0.321777344 0.889160156 -0.325195312
vn -0.321777344 0.889160156 -0.325195312
vn -0.321777344 0.889160156 -0.325195312
vn -0.321777344 0.889160156 -0.325195312
vn -0.321777344 0.889160156 -0.325195312
vn -0.321777344 0.889160156 -0.325195312
vn -0.321777344 0.889160156 -0.325195312
vn -0.321777344 0.889160156 -0.325195312
vn -0.618652344 0.473876953 -0.626464844
vn -0.689941406 0.188232422 -0.698730469
vn -0.689941406 0.19140625 -0.698242188
vn -0.618652344 0.473876953 -0.626464844
vn -0.516113281 0.678710938 -0.522460938
vn -0.517089844 0.677246094 -0.5234375
vn -0.688964844 0.196289062 -0.697753906
vn -0.518554688 0.674804688 -0.524902344
vn -0.618652344 0.473876953 -0.626464844
vn -0.688476562 0.201782227 -0.696777344
vn -0.520019531 0.672363281 -0.526367188
vn -0.618652344 0.473876953 -0.626464844
vn -0.687988281 0.204345703 -0.696289062
vn -0.520996094 0.671386719 -0.52734375
vn -0.618652344 0.474121094 -0.626464844
vn 0.709960938 0.000301122665 -0.704101562
vn 0.709960938 0.000851154327 -0.704589844
vn 0.7109375 0.00391387939 -0.703613281
vn 0.709960938 -0.000806331635 -0.704101562
vn 0.7109375 5.96046448E-07 -0.703613281
vn -0.7109375 -0.00388336182 0.703613281
vn -0.709960938 -0.00085735321 0.704589844
vn -0.709960938 -0.000295639038 0.704101562
vn -0.709960938 0.0007853508 0.704101562
vn -0.7109375 0 0.703613281
vn 0.703125 -0.0373535156 0.710449219
vn 0.703125 -0.0374145508 0.710449219
vn 0.703125 -0.0373535156 0.710449219
vn 0.703125 -0.0373840332 0.710449219
vn 0.703125 -0.0373840332 0.710449219
vn 0.703125 -0.0373840332 0.710449219
vn 0.703125 -0.0373535156 0.710449219
vn 0.703125 -0.0373840332 0.710449219
vn 0.703125 -0.0374145508 0.710449219
vn 0.703125 -0.0374145508 0.710449219
vn 0.703125 -0.0373535156 0.710449219
vn 0.0227508545 -0.999511719 0.0229797363
vn 0.0227355957 -0.999511719 0.0229797363
vn 0.0227355957 -0.999511719 0.0229797363
vn 0.0227508545 -0.999511719 0.0229797363
vn 0.0227508545 -0.999511719 0.0229797363
vn 0.0227508545 -0.999511719 0.0229797363
vn 0.0227508545 -0.999511719 0.0229797363
vn 0.0227508545 -0.999511719 0.0229797363
vn 0.0227508545 -0.999511719 0.0229797363
vn 0.0227508545 -0.999511719 0.0229797363
vn 0.0227508545 -0.999511719 0.0229797363
vn -0.0219421387 -0.999511719 0.0217132568
vn -0.0219421387 -0.999511719 0.0217132568
vn -0.0219421387 -0.999511719 0.0217132568
vn -0.0219421387 -0.999511719 0.0217132568
vn 0.0219421387 -0.999511719 -0.0217132568
vn 0.0219421387 -0.999511719 -0.0217132568
vn 0.0219421387 -0.999511719 -0.0217132568
vn 0.0219421387 -0.999511719 -0.0217132568
vn 0.733886719 0 0.679199219
vn 0.733886719 0 0.679199219
vn 0.733886719 0 0.679199219
vn 0.733886719 0 0.679199219
vn 0.671875 2.02655792E-06 0.740722656
vn 0.671875 2.02655792E-06 0.740722656
vn 0.671875 2.02655792E-06 0.740722656
vn 0.671875 2.02655792E-06 0.740722656
g IS4_MDL_EscenarioPB_Pared_Heladeria_Toldo_1_0
f 3/3/3 2/2/2 1/1/1
f 2/2/2 4/4/4 1/1/1
f 2/2/2 5/5/5 4/4/4
f 5/5/5 6/6/6 4/4/4
f 5/5/5 7/7/7 6/6/6
f 7/7/7 8/8/8 6/6/6
f 7/7/7 9/9/9 8/8/8
f 9/9/9 10/10/10 8/8/8
f 13/13/13 12/12/12 11/11/11
f 12/12/12 14/14/14 11/11/11
f 11/11/11 14/14/14 15/15/15
f 12/12/12 16/16/16 14/14/14
f 14/14/14 17/17/17 15/15/15
f 16/16/16 18/18/18 14/14/14
f 14/14/14 18/18/18 17/17/17
f 16/16/16 19/19/19 18/18/18
f 18/18/18 20/20/20 17/17/17
f 19/19/19 21/21/21 18/18/18
f 18/18/18 21/21/21 20/20/20
f 19/19/19 22/22/22 21/21/21
f 21/21/21 23/23/23 20/20/20
f 22/22/22 24/24/24 21/21/21
f 21/21/21 24/24/24 23/23/23
f 24/24/24 25/25/25 23/23/23
f 28/28/28 27/27/27 26/26/26
f 29/29/29 28/28/28 26/26/26
f 30/30/30 29/29/29 26/26/26
f 33/33/33 32/32/32 31/31/31
f 34/34/34 32/32/32 33/33/33
f 35/35/35 32/32/32 34/34/34
f 38/38/38 37/37/37 36/36/36
f 39/39/39 38/38/38 36/36/36
f 39/39/39 40/40/40 38/38/38
f 40/40/40 41/41/41 38/38/38
f 40/40/40 42/42/42 41/41/41
f 42/42/42 43/43/43 41/41/41
f 42/42/42 44/44/44 43/43/43
f 44/44/44 45/45/45 43/43/43
f 48/48/48 47/47/47 46/46/46
f 49/49/49 48/48/48 46/46/46
f 49/49/49 46/46/46 50/50/50
f 51/51/51 49/49/49 50/50/50
f 52/52/52 48/48/48 49/49/49
f 51/51/51 53/53/53 49/49/49
f 54/54/54 52/52/52 49/49/49
f 53/53/53 54/54/54 49/49/49
f 55/55/55 52/52/52 54/54/54
f 53/53/53 56/56/56 54/54/54
f 57/57/57 55/55/55 54/54/54
f 56/56/56 57/57/57 54/54/54
f 58/58/58 55/55/55 57/57/57
f 56/56/56 59/59/59 57/57/57
f 60/60/60 58/58/58 57/57/57
f 59/59/59 60/60/60 57/57/57
f 63/63/63 62/62/62 61/61/61
f 62/62/62 64/64/64 61/61/61
f 64/64/64 65/65/65 61/61/61
f 68/68/68 67/67/67 66/66/66
f 68/68/68 69/69/69 67/67/67
f 68/68/68 70/70/70 69/69/69
f 73/73/73 72/72/72 71/71/71
f 72/72/72 74/74/74 71/71/71
f 72/72/72 75/75/75 74/74/74
f 75/75/75 76/76/76 74/74/74
f 75/75/75 77/77/77 76/76/76
f 77/77/77 78/78/78 76/76/76
f 80/80/80 79/79/79 78/78/78
f 81/81/81 80/80/80 78/78/78
f 84/84/84 83/83/83 82/82/82
f 85/85/85 84/84/84 82/82/82
f 85/85/85 82/82/82 86/86/86
f 87/87/87 85/85/85 86/86/86
f 87/87/87 86/86/86 88/88/88
f 89/89/89 87/87/87 88/88/88
f 91/91/91 88/88/88 90/90/90
f 92/92/92 91/91/91 90/90/90
f 95/95/95 94/94/94 93/93/93
f 96/96/96 95/95/95 93/93/93
f 99/99/99 98/98/98 97/97/97
f 100/100/100 99/99/99 97/97/97
f 103/103/103 102/102/102 101/101/101
f 104/104/104 103/103/103 101/101/101
f 107/107/107 106/106/106 105/105/105
f 108/108/108 107/107/107 105/105/105
