g ModularPipesA_LongCurve
v -0.0199975576 0.96928221 0.0346411131
v -0.0199975576 0.96928221 0.275425255
v -0.0599975586 0.96928221 0.275425255
v -0.0599975586 0.96928221 0.0346411131
v -0.0599975586 0.96928221 0.0346411131
v -0.0599975586 0.96928221 0.275425255
v -0.0799975544 0.934641063 0.275425404
v -0.0799975544 0.934641063 0.0346411131
v -0.0599975586 0.899999976 0.275425404
v -0.0599975586 0.899999976 0.0346409604
v -0.0599975586 0.899999976 0.0346409604
v -0.0599975586 0.899999976 0.275425404
v -0.0199975576 0.899999976 0.275425404
v -0.0199975576 0.899999976 0.0346409604
v -0.0199975576 0.899999976 0.0346409604
v -0.0199975576 0.899999976 0.275425404
v 2.4414062E-06 0.934641063 0.275425404
v 2.4414062E-06 0.934641063 0.0346411131
v -0.0199975576 0.96928221 0.275425255
v -0.0199975576 0.96928221 0.0346411131
v -0.0199975576 0 -0.0346409604
v -0.0199975576 0.899999976 -0.0346409604
v -0.0599975586 0.899999976 -0.0346409604
v -0.0599975586 0 -0.0346409604
v -0.0599975586 0 -0.0346409604
v -0.0599975586 0.899999976 -0.0346409604
v -0.0799975544 0.899999976 0
v -0.0799975544 0 0
v -0.0599975586 0.899999976 0.0346409604
v -0.0599975586 0 0.0346409604
v -0.0599975586 0 0.0346409604
v -0.0599975586 0.899999976 0.0346409604
v -0.0199975576 0.899999976 0.0346409604
v -0.0199975576 0 0.0346409604
v -0.0199975576 0 0.0346409604
v -0.0199975576 0.899999976 0.0346409604
v 2.4414062E-06 0.899999976 0
v 2.4414062E-06 0 0
v -0.0199975576 0.899999976 -0.0346409604
v -0.0199975576 0 -0.0346409604
v -0.0599975586 0.96928221 0.0346411131
v -0.0599975586 0.951428831 -0.0173326116
v -0.0199975576 0.951428831 -0.0173326116
v -0.0199975576 0.96928221 0.0346411131
v -0.0799975544 0.934641063 0.0346411131
v -0.0599975586 0.951428831 -0.0173326116
v -0.0599975586 0.96928221 0.0346411131
v -0.0799975544 0.92982173 0.00427444465
v -0.0599975586 0.899999976 0.0346409604
v -0.0599975586 0.899999976 -0.0346409604
v -0.0799975544 0.899999976 0
v 2.4414062E-06 0.934641063 0.0346411131
v 2.4414062E-06 0.899999976 0
v -0.0199975576 0.899999976 0.0346409604
v 2.4414062E-06 0.92982173 0.00427444465
v -0.0199975576 0.96928221 0.0346411131
v -0.0199975576 0.951428831 -0.0173326116
v -0.0199975576 0.899999976 -0.0346409604
v -0.0599975586 0.951428831 -0.0173326116
v -0.0599975586 0.899999976 -0.0346409604
v -0.0199975576 0.899999976 -0.0346409604
v -0.0199975576 0.951428831 -0.0173326116
vt 0.76953125 0.0454101562
vt 0.8125 0.0448303223
vt 0.8125 0.0306396484
vt 0.76953125 0.0312194824
vt 0.76953125 0.0312194824
vt 0.8125 0.0306396484
vt 0.8125 0.0164489746
vt 0.76953125 0.0170135498
vt 0.8125 0.00224494934
vt 0.76953125 0.00224494934
vt 0.76953125 0.0883178711
vt 0.8125 0.0883178711
vt 0.8125 0.0732421875
vt 0.76953125 0.0737915039
vt 0.76953125 0.0737915039
vt 0.8125 0.0732421875
vt 0.8125 0.0590209961
vt 0.76953125 0.0596008301
vt 0.8125 0.0448303223
vt 0.76953125 0.0454101562
vt 0.948730469 0.0430603027
vt 0.76953125 0.0457458496
vt 0.76953125 0.0599365234
vt 0.948730469 0.0572509766
vt 0.948730469 0.0572509766
vt 0.76953125 0.0599365234
vt 0.76953125 0.0741577148
vt 0.948730469 0.071472168
vt 0.76953125 0.0883178711
vt 0.948730469 0.0883178711
vt 0.948730469 0.00224494934
vt 0.76953125 0.00224494934
vt 0.76953125 0.0173492432
vt 0.948730469 0.0146636963
vt 0.948730469 0.0146636963
vt 0.76953125 0.0173492432
vt 0.76953125 0.0315551758
vt 0.948730469 0.0288696289
vt 0.76953125 0.0457458496
vt 0.948730469 0.0430603027
vt 0.78515625 0.0448303223
vt 0.793945312 0.0419006348
vt 0.793945312 0.0297546387
vt 0.784667969 0.0287780762
vt 0.789550781 0.058013916
vt 0.793945312 0.0419006348
vt 0.78515625 0.0448303223
vt 0.794433594 0.0531616211
vt 0.794921875 0.0690307617
vt 0.803222656 0.0429077148
vt 0.799316406 0.0570678711
vt 0.788574219 0.0146560669
vt 0.797851562 0.0136413574
vt 0.79296875 0.00224494934
vt 0.793457031 0.0185089111
vt 0.784667969 0.0287780762
vt 0.793945312 0.0297546387
vt 0.802246094 0.02684021
vt 0.793945312 0.0419006348
vt 0.803222656 0.0429077148
vt 0.802246094 0.02684021
vt 0.793945312 0.0297546387
vn 0.478515625 0.876953125 -0.0458679199
vn 0.5 0.866210938 0
vn -0.5 0.866210938 0
vn -0.478515625 0.876953125 -0.0458679199
vn -0.478515625 0.876953125 -0.0458679199
vn -0.5 0.866210938 0
vn -1 -8.94069672E-07 0
vn -0.999511719 0.030380249 0.00367736816
vn -0.5 -0.866210938 0
vn -0.583007812 -0.212768555 0.783691406
vn -0.583007812 -0.212768555 0.783691406
vn -0.5 -0.866210938 0
vn 0.5 -0.866210938 0
vn 0.583007812 -0.212768555 0.783691406
vn 0.583007812 -0.212768555 0.783691406
vn 0.5 -0.866210938 0
vn 1 -8.94069672E-07 0
vn 0.999511719 0.030380249 0.00367736816
vn 0.5 0.866210938 0
vn 0.478515625 0.876953125 -0.0458679199
vn 0.5 0 -0.866210938
vn 0.493652344 0.0133285522 -0.869628906
vn -0.493652344 0.0133285522 -0.869628906
vn -0.5 0 -0.866210938
vn -0.5 0 -0.866210938
vn -0.493652344 0.0133285522 -0.869628906
vn -1 -0.00133705139 -0.00861358643
vn -1 0 0
vn -0.583007812 -0.212768555 0.783691406
vn -0.5 0 0.866210938
vn -0.5 0 0.866210938
vn -0.583007812 -0.212768555 0.783691406
vn 0.583007812 -0.212768555 0.783691406
vn 0.5 0 0.866210938
vn 0.5 0 0.866210938
vn 0.583007812 -0.212768555 0.783691406
vn 1 -0.00133705139 -0.00861358643
vn 1 0 0
vn 0.493652344 0.0133285522 -0.869628906
vn 0.5 0 -0.866210938
vn -0.478515625 0.876953125 -0.0458679199
vn -0.357421875 0.660644531 -0.66015625
vn 0.357421875 0.660644531 -0.66015625
vn 0.478515625 0.876953125 -0.0458679199
vn -0.999511719 0.030380249 0.00367736816
vn -0.357421875 0.660644531 -0.66015625
vn -0.478515625 0.876953125 -0.0458679199
vn -0.958496094 0.200927734 -0.201782227
vn -0.583007812 -0.212768555 0.783691406
vn -0.493652344 0.0133285522 -0.869628906
vn -1 -0.00133705139 -0.00861358643
vn 0.999511719 0.030380249 0.00367736816
vn 1 -0.00133705139 -0.00861358643
vn 0.583007812 -0.212768555 0.783691406
vn 0.958496094 0.200927734 -0.201782227
vn 0.478515625 0.876953125 -0.0458679199
vn 0.357421875 0.660644531 -0.66015625
vn 0.493652344 0.0133285522 -0.869628906
vn -0.357421875 0.660644531 -0.66015625
vn -0.493652344 0.0133285522 -0.869628906
vn 0.493652344 0.0133285522 -0.869628906
vn 0.357421875 0.660644531 -0.66015625
g ModularPipesA_LongCurve_0
f 3/3/3 2/2/2 1/1/1
f 4/4/4 3/3/3 1/1/1
f 7/7/7 6/6/6 5/5/5
f 8/8/8 7/7/7 5/5/5
f 9/9/9 7/7/7 8/8/8
f 10/10/10 9/9/9 8/8/8
f 13/13/13 12/12/12 11/11/11
f 14/14/14 13/13/13 11/11/11
f 17/17/17 16/16/16 15/15/15
f 18/18/18 17/17/17 15/15/15
f 19/19/19 17/17/17 18/18/18
f 20/20/20 19/19/19 18/18/18
f 23/23/23 22/22/22 21/21/21
f 24/24/24 23/23/23 21/21/21
f 27/27/27 26/26/26 25/25/25
f 28/28/28 27/27/27 25/25/25
f 29/29/29 27/27/27 28/28/28
f 30/30/30 29/29/29 28/28/28
f 33/33/33 32/32/32 31/31/31
f 34/34/34 33/33/33 31/31/31
f 37/37/37 36/36/36 35/35/35
f 38/38/38 37/37/37 35/35/35
f 39/39/39 37/37/37 38/38/38
f 40/40/40 39/39/39 38/38/38
f 43/43/43 42/42/42 41/41/41
f 44/44/44 43/43/43 41/41/41
f 47/47/47 46/46/46 45/45/45
f 46/46/46 48/48/48 45/45/45
f 45/45/45 48/48/48 49/49/49
f 46/46/46 50/50/50 48/48/48
f 48/48/48 51/51/51 49/49/49
f 50/50/50 51/51/51 48/48/48
f 54/54/54 53/53/53 52/52/52
f 53/53/53 55/55/55 52/52/52
f 52/52/52 55/55/55 56/56/56
f 55/55/55 57/57/57 56/56/56
f 55/55/55 53/53/53 57/57/57
f 53/53/53 58/58/58 57/57/57
f 61/61/61 60/60/60 59/59/59
f 62/62/62 61/61/61 59/59/59
