g HydroelectricPlant_BarsDoor
v -0.062746577 1.14528024 0.707316875
v -0.062746577 0.913580835 0.707316875
v -0.0149414055 0.913580835 0.707316875
v -0.0149414055 1.14528024 0.707316875
v -0.0149414055 1.14528024 0.819885254
v -0.0149414055 1.14528024 0.707316875
v -0.0149414055 0.913580835 0.707316875
v -0.0149414055 0.913580835 0.819885254
v -0.062746577 0.913580835 0.819885254
v -0.062746577 0.913580835 0.707316875
v -0.062746577 1.14528024 0.707316875
v -0.062746577 1.14528024 0.819885254
v -0.0149414055 1.14528024 0.819885254
v -0.062746577 1.14528024 0.819885254
v -0.062746577 1.14528024 0.707316875
v -0.0149414055 1.14528024 0.707316875
v -0.0149414055 0.913580835 0.819885254
v -0.0149414055 0.913580835 0.707316875
v -0.062746577 0.913580835 0.707316875
v -0.062746577 0.913580835 0.819885254
v -0.062746577 1.9702841 0.2380725
v -0.062746577 0.52302587 0.2380725
v -0.0149414055 0.52302587 0.2380725
v -0.0149414055 1.9702841 0.2380725
v -0.062746577 1.97028375 0.278072506
v -0.0149414055 1.97028375 0.278072506
v -0.0149414055 0.52302587 0.278072506
v -0.062746577 0.52302587 0.278072506
v -0.0149414055 1.97028375 0.278072506
v -0.0149414055 1.9702841 0.2380725
v -0.0149414055 0.52302587 0.2380725
v -0.0149414055 0.52302587 0.278072506
v -0.062746577 0.52302587 0.278072506
v -0.062746577 0.52302587 0.2380725
v -0.062746577 1.9702841 0.2380725
v -0.062746577 1.97028375 0.278072506
v -0.062746577 1.9702841 0.553215325
v -0.062746577 0.52302587 0.553215325
v -0.0149414055 0.52302587 0.553215325
v -0.0149414055 1.9702841 0.553215325
v -0.062746577 1.97028375 0.593215346
v -0.0149414055 1.97028375 0.593215346
v -0.0149414055 0.52302587 0.593215346
v -0.062746577 0.52302587 0.593215346
v -0.0149414055 1.97028375 0.593215346
v -0.0149414055 1.9702841 0.553215325
v -0.0149414055 0.52302587 0.553215325
v -0.0149414055 0.52302587 0.593215346
v -0.062746577 0.52302587 0.593215346
v -0.062746577 0.52302587 0.553215325
v -0.062746577 1.9702841 0.553215325
v -0.062746577 1.97028375 0.593215346
v -0.0729248002 0.483366698 0.859999955
v -0.0729248002 2 0.859999955
v -0 2 0.859999955
v -0 0.483366698 0.859999955
v -0.0729248002 2 0.859999955
v -0.0729248002 2 0
v -0 2 0
v -0 2 0.859999955
v -0.0729248002 2 0
v -0.0729248002 0.483366698 0
v -0 0.483366698 0
v -0 2 0
v -0.0729248002 0 0
v -0.0729248002 0 0.859999955
v -0 0 0.859999955
v -0 0 0
v -0.0729248002 0 0.859999955
v -0.0729248002 0.483366698 0.859999955
v -0 0.483366698 0.859999955
v -0 0 0.859999955
v -0.0180029292 0.0730000287 0.786999524
v -0.0180029292 0.410366654 0.786999524
v -0.0180029292 0.410366654 0.0730004832
v -0.0180029292 0.0730000287 0.0730004832
v -0.0729248002 0.483366698 0
v -0.0729248002 0 0
v -0 0 0
v -0 0.483366698 0
v -0.0549243167 0.0730000287 0.0730004832
v -0.0549243167 0.410366654 0.0730004832
v -0.0549243167 0.410366654 0.786999524
v -0.0549243167 0.0730000287 0.786999524
v -0 0 0.859999955
v -0 0.0490000136 0.810999751
v -0 0.0490000136 0.0490002446
v -0 0 0
v -0 0 0
v -0 0.0490000136 0.0490002446
v -0 0.434366673 0.0490002446
v -0 0.483366698 0
v -0 0.483366698 0
v -0 0.434366673 0.0490002446
v -0 0.434366673 0.810999751
v -0 0.483366698 0.859999955
v -0 0.483366698 0.859999955
v -0 0.434366673 0.810999751
v -0 0.0490000136 0.810999751
v -0 0 0.859999955
v -0.0729248002 0 0
v -0.0729248002 0.0490000136 0.0490002446
v -0.0729248002 0.0490000136 0.810999751
v -0.0729248002 0 0.859999955
v -0.0729248002 0 0.859999955
v -0.0729248002 0.0490000136 0.810999751
v -0.0729248002 0.434366673 0.810999751
v -0.0729248002 0.483366698 0.859999955
v -0.0729248002 0.483366698 0.859999955
v -0.0729248002 0.434366673 0.810999751
v -0.0729248002 0.434366673 0.0490002446
v -0.0729248002 0.483366698 0
v -0.0729248002 0.483366698 0
v -0.0729248002 0.434366673 0.0490002446
v -0.0729248002 0.0490000136 0.0490002446
v -0.0729248002 0 0
v -0 0.0490000136 0.810999751
v -0.0180029292 0.0730000287 0.786999524
v -0.0180029292 0.0730000287 0.0730004832
v -0 0.0490000136 0.0490002446
v -0 0.0490000136 0.0490002446
v -0.0180029292 0.0730000287 0.0730004832
v -0.0180029292 0.410366654 0.0730004832
v -0 0.434366673 0.0490002446
v -0 0.434366673 0.0490002446
v -0.0180029292 0.410366654 0.0730004832
v -0.0180029292 0.410366654 0.786999524
v -0 0.434366673 0.810999751
v -0 0.434366673 0.810999751
v -0.0180029292 0.410366654 0.786999524
v -0.0180029292 0.0730000287 0.786999524
v -0 0.0490000136 0.810999751
v -0.0729248002 0.0490000136 0.0490002446
v -0.0549243167 0.0730000287 0.0730004832
v -0.0549243167 0.0730000287 0.786999524
v -0.0729248002 0.0490000136 0.810999751
v -0.0729248002 0.0490000136 0.810999751
v -0.0549243167 0.0730000287 0.786999524
v -0.0549243167 0.410366654 0.786999524
v -0.0729248002 0.434366673 0.810999751
v -0.0729248002 0.434366673 0.810999751
v -0.0549243167 0.410366654 0.786999524
v -0.0549243167 0.410366654 0.0730004832
v -0.0729248002 0.434366673 0.0490002446
v -0.0729248002 0.434366673 0.0490002446
v -0.0549243167 0.410366654 0.0730004832
v -0.0549243167 0.0730000287 0.0730004832
v -0.0729248002 0.0490000136 0.0490002446
v -0 0.483366698 0.859999955
v -0 0.532366693 0.810999751
v -0 0.532366693 0.0490002446
v -0 0.483366698 0
v -0 0.483366698 0
v -0 0.532366693 0.0490002446
v -0 1.95099998 0.0490002446
v -0 2 0
v -0 2 0
v -0 1.95099998 0.0490002446
v -0 1.95099998 0.810999751
v -0 2 0.859999955
v -0 2 0.859999955
v -0 1.95099998 0.810999751
v -0 0.532366693 0.810999751
v -0 0.483366698 0.859999955
v -0.0729248002 0.483366698 0
v -0.0729248002 0.532366693 0.0490002446
v -0.0729248002 0.532366693 0.810999751
v -0.0729248002 0.483366698 0.859999955
v -0.0729248002 0.483366698 0.859999955
v -0.0729248002 0.532366693 0.810999751
v -0.0729248002 1.95099998 0.810999751
v -0.0729248002 2 0.859999955
v -0.0729248002 2 0.859999955
v -0.0729248002 1.95099998 0.810999751
v -0.0729248002 1.95099998 0.0490002446
v -0.0729248002 2 0
v -0.0729248002 2 0
v -0.0729248002 1.95099998 0.0490002446
v -0.0729248002 0.532366693 0.0490002446
v -0.0729248002 0.483366698 0
v -0 0.532366693 0.0490002446
v -0.0729248002 0.532366693 0.0490002446
v -0.0729248002 1.95099998 0.0490002446
v -0 1.95099998 0.0490002446
v -0 1.95099998 0.0490002446
v -0.0729248002 1.95099998 0.0490002446
v -0.0729248002 1.95099998 0.810999751
v -0 1.95099998 0.810999751
v -0 1.95099998 0.810999751
v -0.0729248002 1.95099998 0.810999751
v -0.0729248002 0.532366693 0.810999751
v -0 0.532366693 0.810999751
v -0 0.532366693 0.810999751
v -0.0729248002 0.532366693 0.810999751
v -0.0729248002 0.532366693 0.0490002446
v -0 0.532366693 0.0490002446
v -0.0839208961 1.03703892 0.76620847
v -0.0839208961 1.03703892 0.750034153
v -0.0602612309 1.03832304 0.750578582
v -0.0602612309 1.03832304 0.765664041
v -0.0839208961 1.02182221 0.76620847
v -0.0602612309 1.02053809 0.765664041
v -0.0602612309 1.02053809 0.750578582
v -0.0839208961 1.02182221 0.750034153
v -0.0602612309 1.03832304 0.750578582
v -0.0839208961 1.03703892 0.750034153
v -0.0839208961 1.02182221 0.750034153
v -0.0602612309 1.02053809 0.750578582
v -0.0839208961 1.03703892 0.76620847
v -0.0602612309 1.03832304 0.765664041
v -0.0602612309 1.02053809 0.765664041
v -0.0839208961 1.02182221 0.76620847
v -0.0764306635 1.03767502 0.636967778
v -0.0852001905 1.03600943 0.636967778
v -0.0852001905 1.02285171 0.636967778
v -0.0764306635 1.02118611 0.636967778
v -0.100209959 1.03832138 0.786262214
v -0.100209959 1.02053976 0.786262214
v -0.100209959 1.02053976 0.729978025
v -0.100209959 1.03832138 0.729978025
v -0.0831982419 1.01828873 0.786262214
v -0.0831982419 1.04057229 0.786262214
v -0.0831982419 1.04057229 0.729978025
v -0.0831982419 1.01828873 0.729978025
v -0.100209959 1.03832138 0.786262214
v -0.100209959 1.03832138 0.729978025
v -0.0831982419 1.04057229 0.729978025
v -0.0831982419 1.04057229 0.786262214
v -0.100209959 1.02053976 0.786262214
v -0.0831982419 1.01828873 0.786262214
v -0.0831982419 1.01828873 0.729978025
v -0.100209959 1.02053976 0.729978025
v -0.100209959 1.03832138 0.786262214
v -0.0831982419 1.04057229 0.786262214
v -0.0831982419 1.01828873 0.786262214
v -0.100209959 1.02053976 0.786262214
v -0.0831982419 1.04057229 0.729978025
v -0.100209959 1.03832138 0.729978025
v -0.0852001905 1.03600943 0.636967778
v -0.0764306635 1.03767502 0.636967778
v -0.0831982419 1.01828873 0.729978025
v -0.0831982419 1.04057229 0.729978025
v -0.0764306635 1.03767502 0.636967778
v -0.0764306635 1.02118611 0.636967778
v -0.100209959 1.02053976 0.729978025
v -0.0831982419 1.01828873 0.729978025
v -0.0764306635 1.02118611 0.636967778
v -0.0852001905 1.02285171 0.636967778
v -0.100209959 1.03832138 0.729978025
v -0.100209959 1.02053976 0.729978025
v -0.0852001905 1.02285171 0.636967778
v -0.0852001905 1.03600943 0.636967778
v 0.00802734401 1.03703892 0.76620847
v -0.0156323239 1.03832304 0.765664041
v -0.0156323239 1.03832304 0.750578582
v 0.00802734401 1.03703892 0.750034153
v 0.00802734401 1.02182221 0.76620847
v 0.00802734401 1.02182221 0.750034153
v -0.0156323239 1.02053809 0.750578582
v -0.0156323239 1.02053809 0.765664041
v -0.0156323239 1.03832304 0.750578582
v -0.0156323239 1.02053809 0.750578582
v 0.00802734401 1.02182221 0.750034153
v 0.00802734401 1.03703892 0.750034153
v 0.00802734401 1.03703892 0.76620847
v 0.00802734401 1.02182221 0.76620847
v -0.0156323239 1.02053809 0.765664041
v -0.0156323239 1.03832304 0.765664041
v 0.000537109387 1.03767502 0.636967778
v 0.000537109387 1.02118611 0.636967778
v 0.00930664036 1.02285171 0.636967778
v 0.00930664036 1.03600943 0.636967778
v 0.0243164059 1.03832138 0.786262214
v 0.0243164059 1.03832138 0.729978025
v 0.0243164059 1.02053976 0.729978025
v 0.0243164059 1.02053976 0.786262214
v 0.00730468752 1.01828873 0.786262214
v 0.00730468752 1.01828873 0.729978025
v 0.00730468752 1.04057229 0.729978025
v 0.00730468752 1.04057229 0.786262214
v 0.0243164059 1.03832138 0.786262214
v 0.00730468752 1.04057229 0.786262214
v 0.00730468752 1.04057229 0.729978025
v 0.0243164059 1.03832138 0.729978025
v 0.0243164059 1.02053976 0.786262214
v 0.0243164059 1.02053976 0.729978025
v 0.00730468752 1.01828873 0.729978025
v 0.00730468752 1.01828873 0.786262214
v 0.0243164059 1.03832138 0.786262214
v 0.0243164059 1.02053976 0.786262214
v 0.00730468752 1.01828873 0.786262214
v 0.00730468752 1.04057229 0.786262214
v 0.00730468752 1.04057229 0.729978025
v 0.000537109387 1.03767502 0.636967778
v 0.00930664036 1.03600943 0.636967778
v 0.0243164059 1.03832138 0.729978025
v 0.00730468752 1.01828873 0.729978025
v 0.000537109387 1.02118611 0.636967778
v 0.000537109387 1.03767502 0.636967778
v 0.00730468752 1.04057229 0.729978025
v 0.0243164059 1.02053976 0.729978025
v 0.00930664036 1.02285171 0.636967778
v 0.000537109387 1.02118611 0.636967778
v 0.00730468752 1.01828873 0.729978025
v 0.0243164059 1.03832138 0.729978025
v 0.00930664036 1.03600943 0.636967778
v 0.00930664036 1.02285171 0.636967778
v 0.0243164059 1.02053976 0.729978025
vt 0.689941406 0.340820312
vt 0.731933594 0.340820312
vt 0.731933594 0.332275391
vt 0.689941406 0.332275391
vt 0.689941406 0.361083984
vt 0.689941406 0.340820312
vt 0.731933594 0.340820312
vt 0.731933594 0.361083984
vt 0.731933594 0.361328125
vt 0.731933594 0.340820312
vt 0.689941406 0.340820312
vt 0.689941406 0.361328125
vt 0.708496094 0.332275391
vt 0.708496094 0.340820312
vt 0.689941406 0.340820312
vt 0.689941406 0.332275391
vt 0.713867188 0.332275391
vt 0.731933594 0.332275391
vt 0.731933594 0.340820312
vt 0.713867188 0.340820312
vt 0.51171875 0.511230469
vt 0.685058594 0.511230469
vt 0.685058594 0.505859375
vt 0.51171875 0.505859375
vt 0.51171875 0.516113281
vt 0.51171875 0.521972656
vt 0.685058594 0.521972656
vt 0.685058594 0.516113281
vt 0.51171875 0.521972656
vt 0.51171875 0.526855469
vt 0.685058594 0.526855469
vt 0.685058594 0.521972656
vt 0.685058594 0.516113281
vt 0.685058594 0.511230469
vt 0.51171875 0.511230469
vt 0.51171875 0.516113281
vt 0.51171875 0.511230469
vt 0.685058594 0.511230469
vt 0.685058594 0.505859375
vt 0.51171875 0.505859375
vt 0.51171875 0.516113281
vt 0.51171875 0.521972656
vt 0.685058594 0.521972656
vt 0.685058594 0.516113281
vt 0.51171875 0.521972656
vt 0.51171875 0.526855469
vt 0.685058594 0.526855469
vt 0.685058594 0.521972656
vt 0.685058594 0.516113281
vt 0.685058594 0.511230469
vt 0.51171875 0.511230469
vt 0.51171875 0.516113281
vt 0.669921875 0.484863281
vt 0.499511719 0.484863281
vt 0.499511719 0.496826172
vt 0.669921875 0.496826172
vt 0.6328125 0.484863281
vt 0.536621094 0.484863281
vt 0.536621094 0.496826172
vt 0.6328125 0.496826172
vt 0.669921875 0.484863281
vt 0.499511719 0.484863281
vt 0.499511719 0.496826172
vt 0.669921875 0.496826172
vt 0.417480469 0.300292969
vt 0.294433594 0.300292969
vt 0.294433594 0.3203125
vt 0.417480469 0.3203125
vt 0.419189453 0.300292969
vt 0.350585938 0.300292969
vt 0.350585938 0.3203125
vt 0.419189453 0.3203125
vt 0.876953125 0.430664062
vt 0.876953125 0.373046875
vt 0.978027344 0.373046875
vt 0.978027344 0.430664062
vt 0.372802734 0.300292969
vt 0.304199219 0.300292969
vt 0.304199219 0.3203125
vt 0.372802734 0.3203125
vt 0.978027344 0.430664062
vt 0.978027344 0.373046875
vt 0.876953125 0.373046875
vt 0.876953125 0.430664062
vt 0.865722656 0.44140625
vt 0.873046875 0.434570312
vt 0.981933594 0.434570312
vt 0.988769531 0.44140625
vt 0.909179688 0.44140625
vt 0.916015625 0.434570312
vt 0.972167969 0.434570312
vt 0.979003906 0.44140625
vt 0.988769531 0.362304688
vt 0.981933594 0.368896484
vt 0.872558594 0.368896484
vt 0.865722656 0.362304688
vt 0.944335938 0.362304688
vt 0.9375 0.368896484
vt 0.881347656 0.368896484
vt 0.874511719 0.362304688
vt 0.988769531 0.44140625
vt 0.981933594 0.434570312
vt 0.873046875 0.434570312
vt 0.865722656 0.44140625
vt 0.874023438 0.362304688
vt 0.880859375 0.368896484
vt 0.937011719 0.368896484
vt 0.943847656 0.362304688
vt 0.865722656 0.362304688
vt 0.872558594 0.368896484
vt 0.981933594 0.368896484
vt 0.988769531 0.362304688
vt 0.979003906 0.44140625
vt 0.971679688 0.434570312
vt 0.916015625 0.434570312
vt 0.908691406 0.44140625
vt 0.873046875 0.434570312
vt 0.876953125 0.430664062
vt 0.978027344 0.430664062
vt 0.981933594 0.434570312
vt 0.916015625 0.434570312
vt 0.919921875 0.430664062
vt 0.967773438 0.430664062
vt 0.972167969 0.434570312
vt 0.981933594 0.368896484
vt 0.978027344 0.373046875
vt 0.876953125 0.373046875
vt 0.872558594 0.368896484
vt 0.9375 0.368896484
vt 0.933105469 0.373046875
vt 0.885253906 0.373046875
vt 0.881347656 0.368896484
vt 0.981933594 0.434570312
vt 0.978027344 0.430664062
vt 0.876953125 0.430664062
vt 0.873046875 0.434570312
vt 0.880859375 0.368896484
vt 0.885253906 0.373046875
vt 0.933105469 0.373046875
vt 0.937011719 0.368896484
vt 0.872558594 0.368896484
vt 0.876953125 0.373046875
vt 0.978027344 0.373046875
vt 0.981933594 0.368896484
vt 0.971679688 0.434570312
vt 0.967773438 0.430664062
vt 0.919921875 0.430664062
vt 0.916015625 0.434570312
vt 0.642578125 0.484863281
vt 0.637207031 0.479492188
vt 0.548339844 0.479492188
vt 0.542480469 0.484863281
vt 0.499511719 0.496826172
vt 0.504882812 0.501953125
vt 0.664550781 0.501953125
vt 0.669921875 0.496826172
vt 0.536621094 0.496826172
vt 0.541992188 0.501953125
vt 0.627441406 0.501953125
vt 0.6328125 0.496826172
vt 0.499511719 0.496826172
vt 0.504882812 0.501953125
vt 0.664550781 0.501953125
vt 0.669921875 0.496826172
vt 0.604980469 0.484863281
vt 0.599609375 0.479492188
vt 0.512207031 0.479492188
vt 0.506835938 0.484863281
vt 0.669921875 0.484863281
vt 0.664550781 0.479492188
vt 0.504882812 0.479492188
vt 0.499511719 0.484863281
vt 0.6328125 0.484863281
vt 0.627441406 0.479492188
vt 0.541992188 0.479492188
vt 0.536621094 0.484863281
vt 0.669921875 0.484863281
vt 0.664550781 0.479492188
vt 0.504882812 0.479492188
vt 0.499511719 0.484863281
vt 0.504882812 0.484863281
vt 0.504882812 0.496826172
vt 0.664550781 0.496826172
vt 0.664550781 0.484863281
vt 0.541992188 0.484863281
vt 0.541992188 0.496826172
vt 0.627441406 0.496826172
vt 0.627441406 0.484863281
vt 0.504882812 0.484863281
vt 0.504882812 0.496826172
vt 0.664550781 0.496826172
vt 0.664550781 0.484863281
vt 0.512207031 0.484863281
vt 0.512207031 0.496826172
vt 0.599609375 0.496826172
vt 0.599609375 0.484863281
vt 0.706054688 0.354003906
vt 0.710449219 0.354003906
vt 0.710449219 0.347167969
vt 0.706054688 0.347167969
vt 0.719726562 0.354248047
vt 0.719726562 0.347412109
vt 0.715332031 0.347167969
vt 0.71484375 0.354003906
vt 0.710449219 0.347167969
vt 0.710449219 0.354003906
vt 0.71484375 0.354003906
vt 0.715332031 0.347167969
vt 0.706054688 0.354003906
vt 0.706054688 0.347167969
vt 0.700683594 0.347412109
vt 0.701171875 0.354248047
vt 0.739746094 0.323974609
vt 0.740234375 0.325927734
vt 0.743164062 0.325927734
vt 0.743652344 0.323974609
vt 0.739257812 0.358886719
vt 0.743164062 0.358886719
vt 0.743164062 0.346679688
vt 0.739257812 0.346679688
vt 0.747070312 0.358886719
vt 0.751953125 0.358642578
vt 0.751953125 0.345947266
vt 0.747070312 0.346191406
vt 0.739257812 0.358886719
vt 0.739257812 0.346679688
vt 0.735351562 0.346191406
vt 0.735351562 0.358886719
vt 0.743164062 0.358886719
vt 0.747070312 0.358886719
vt 0.747070312 0.346191406
vt 0.743164062 0.346679688
vt 0.739257812 0.358886719
vt 0.738769531 0.362548828
vt 0.743652344 0.362548828
vt 0.743164062 0.358886719
vt 0.735351562 0.346191406
vt 0.739257812 0.346679688
vt 0.740234375 0.325927734
vt 0.73828125 0.325439453
vt 0.747070312 0.346191406
vt 0.751953125 0.345947266
vt 0.749023438 0.325195312
vt 0.745117188 0.325683594
vt 0.743164062 0.346679688
vt 0.747070312 0.346191406
vt 0.745117188 0.325683594
vt 0.743164062 0.325927734
vt 0.739257812 0.346679688
vt 0.743164062 0.346679688
vt 0.743164062 0.325927734
vt 0.740234375 0.325927734
vt 0.706054688 0.354003906
vt 0.706054688 0.347167969
vt 0.710449219 0.347167969
vt 0.710449219 0.354003906
vt 0.719726562 0.354248047
vt 0.71484375 0.354003906
vt 0.715332031 0.347167969
vt 0.719726562 0.347412109
vt 0.710449219 0.347167969
vt 0.715332031 0.347167969
vt 0.71484375 0.354003906
vt 0.710449219 0.354003906
vt 0.706054688 0.354003906
vt 0.701171875 0.354248047
vt 0.700683594 0.347412109
vt 0.706054688 0.347167969
vt 0.739746094 0.323974609
vt 0.743652344 0.323974609
vt 0.743164062 0.325927734
vt 0.740234375 0.325927734
vt 0.739257812 0.358886719
vt 0.739257812 0.346679688
vt 0.743164062 0.346679688
vt 0.743164062 0.358886719
vt 0.747070312 0.358886719
vt 0.747070312 0.346191406
vt 0.751953125 0.345947266
vt 0.751953125 0.358642578
vt 0.739257812 0.358886719
vt 0.735351562 0.358886719
vt 0.735351562 0.346191406
vt 0.739257812 0.346679688
vt 0.743164062 0.358886719
vt 0.743164062 0.346679688
vt 0.747070312 0.346191406
vt 0.747070312 0.358886719
vt 0.739257812 0.358886719
vt 0.743164062 0.358886719
vt 0.743652344 0.362548828
vt 0.738769531 0.362548828
vt 0.735351562 0.346191406
vt 0.73828125 0.325439453
vt 0.740234375 0.325927734
vt 0.739257812 0.346679688
vt 0.747070312 0.346191406
vt 0.745117188 0.325683594
vt 0.749023438 0.325195312
vt 0.751953125 0.345947266
vt 0.743164062 0.346679688
vt 0.743164062 0.325927734
vt 0.745117188 0.325683594
vt 0.747070312 0.346191406
vt 0.739257812 0.346679688
vt 0.740234375 0.325927734
vt 0.743164062 0.325927734
vt 0.743164062 0.346679688
vn -0 0 -1
vn -0 0 -1
vn -0 0 -1
vn -0 0 -1
vn 1 0 0
vn 1 0 0
vn 1 0 0
vn 1 0 0
vn -1 0 0
vn -1 0 0
vn -1 0 0
vn -1 0 0
vn -0 1 0
vn -0 1 0
vn -0 1 0
vn -0 1 0
vn -0 -1 0
vn -0 -1 0
vn -0 -1 0
vn -0 -1 0
vn -0 0 -1
vn -0 0 -1
vn -0 0 -1
vn -0 0 -1
vn -0 0 1
vn -0 0 1
vn -0 0 1
vn -0 0 1
vn 1 0 0
vn 1 0 0
vn 1 0 0
vn 1 0 0
vn -1 0 0
vn -1 0 0
vn -1 0 0
vn -1 0 0
vn -0 0 -1
vn -0 0 -1
vn -0 0 -1
vn -0 0 -1
vn -0 0 1
vn -0 0 1
vn -0 0 1
vn -0 0 1
vn 1 0 0
vn 1 0 0
vn 1 0 0
vn 1 0 0
vn -1 0 0
vn -1 0 0
vn -1 0 0
vn -1 0 0
vn -0 0 1
vn -0 0 1
vn -0 0 1
vn -0 0 1
vn -0 1 0
vn -0 1 0
vn -0 1 0
vn -0 1 0
vn -0 0 -1
vn -0 0 -1
vn -0 0 -1
vn -0 0 -1
vn -0 -1 0
vn -0 -1 0
vn -0 -1 0
vn -0 -1 0
vn -0 0 1
vn -0 0 1
vn -0 0 1
vn -0 0 1
vn 1 0 0
vn 1 0 0
vn 1 0 0
vn 1 0 0
vn -0 0 -1
vn -0 0 -1
vn -0 0 -1
vn -0 0 -1
vn -1 0 0
vn -1 0 0
vn -1 0 0
vn -1 0 0
vn 1 0 0
vn 1 0 0
vn 1 0 0
vn 1 0 0
vn 1 0 0
vn 1 0 0
vn 1 0 0
vn 1 0 0
vn 1 0 0
vn 1 0 0
vn 1 0 0
vn 1 0 0
vn 1 0 0
vn 1 0 0
vn 1 0 0
vn 1 0 0
vn -1 0 0
vn -1 0 0
vn -1 0 0
vn -1 0 0
vn -1 0 0
vn -1 0 0
vn -1 0 0
vn -1 0 0
vn -1 0 0
vn -1 0 0
vn -1 0 0
vn -1 0 0
vn -1 0 0
vn -1 0 0
vn -1 0 0
vn -1 0 0
vn 0.799804688 0.600097656 0
vn 0.799804688 0.600097656 0
vn 0.799804688 0.600097656 0
vn 0.799804688 0.600097656 0
vn 0.799804688 0 0.600097656
vn 0.799804688 0 0.600097656
vn 0.799804688 0 0.600097656
vn 0.799804688 0 0.600097656
vn 0.799804688 -0.600097656 0
vn 0.799804688 -0.600097656 0
vn 0.799804688 -0.600097656 0
vn 0.799804688 -0.600097656 0
vn 0.799804688 0 -0.600097656
vn 0.799804688 0 -0.600097656
vn 0.799804688 0 -0.600097656
vn 0.799804688 0 -0.600097656
vn -0.799804688 0.600097656 0
vn -0.799804688 0.600097656 0
vn -0.799804688 0.600097656 0
vn -0.799804688 0.600097656 0
vn -0.799804688 0 -0.600097656
vn -0.799804688 0 -0.600097656
vn -0.799804688 0 -0.600097656
vn -0.799804688 0 -0.600097656
vn -0.799804688 -0.600097656 0
vn -0.799804688 -0.600097656 0
vn -0.799804688 -0.600097656 0
vn -0.799804688 -0.600097656 0
vn -0.799804688 0 0.600097656
vn -0.799804688 0 0.600097656
vn -0.799804688 0 0.600097656
vn -0.799804688 0 0.600097656
vn 1 0 0
vn 1 0 0
vn 1 0 0
vn 1 0 0
vn 1 0 0
vn 1 0 0
vn 1 0 0
vn 1 0 0
vn 1 0 0
vn 1 0 0
vn 1 0 0
vn 1 0 0
vn 1 0 0
vn 1 0 0
vn 1 0 0
vn 1 0 0
vn -1 0 0
vn -1 0 0
vn -1 0 0
vn -1 0 0
vn -1 0 0
vn -1 0 0
vn -1 0 0
vn -1 0 0
vn -1 0 0
vn -1 0 0
vn -1 0 0
vn -1 0 0
vn -1 0 0
vn -1 0 0
vn -1 0 0
vn -1 0 0
vn -0 0 1
vn -0 0 1
vn -0 0 1
vn -0 0 1
vn -0 -1 0
vn -0 -1 0
vn -0 -1 0
vn -0 -1 0
vn -0 0 -1
vn -0 0 -1
vn -0 0 -1
vn -0 0 -1
vn -0 1 0
vn -0 1 0
vn -0 1 0
vn -0 1 0
vn -0.0541992188 0.998535156 0
vn -0.0541992188 0.998535156 0
vn -0.0541992188 0.998535156 0
vn -0.0541992188 0.998535156 0
vn -0.0541992188 -0.998535156 0
vn -0.0541992188 -0.998535156 0
vn -0.0541992188 -0.998535156 0
vn -0.0541992188 -0.998535156 0
vn 0.0230102539 0 -0.999511719
vn 0.0230102539 0 -0.999511719
vn 0.0230102539 0 -0.999511719
vn 0.0230102539 0 -0.999511719
vn 0.0230102539 0 0.999511719
vn 0.0230102539 0 0.999511719
vn 0.0230102539 0 0.999511719
vn 0.0230102539 0 0.999511719
vn 3.69548798E-06 0 -1
vn 3.69548798E-06 0 -1
vn 3.69548798E-06 0 -1
vn 3.69548798E-06 0 -1
vn -1 0 0
vn -1 0 0
vn -1 0 0
vn -1 0 0
vn 1 0 0
vn 1 0 0
vn 1 0 0
vn 1 0 0
vn -0.131225586 0.991210938 0
vn -0.131225586 0.991210938 0
vn -0.131225586 0.991210938 0
vn -0.131225586 0.991210938 0
vn -0.131225586 -0.991210938 0
vn -0.131225586 -0.991210938 0
vn -0.131225586 -0.991210938 0
vn -0.131225586 -0.991210938 0
vn -0 0 1
vn -0 0 1
vn -0 0 1
vn -0 0 1
vn -0.150024414 0.987792969 -0.0452270508
vn -0.150024414 0.987792969 -0.0452270508
vn -0.150024414 0.987792969 -0.0452270508
vn -0.150024414 0.987792969 -0.0452270508
vn 0.997558594 0 0.0725708008
vn 0.997558594 0 0.0725708008
vn 0.997558594 0 0.0725708008
vn 0.997558594 0 0.0725708008
vn -0.150024414 -0.987792969 -0.0452270508
vn -0.150024414 -0.987792969 -0.0452270508
vn -0.150024414 -0.987792969 -0.0452270508
vn -0.150024414 -0.987792969 -0.0452270508
vn -0.987304688 0 -0.159301758
vn -0.987304688 0 -0.159301758
vn -0.987304688 0 -0.159301758
vn -0.987304688 0 -0.159301758
vn 0.0541992188 0.998535156 0
vn 0.0541992188 0.998535156 0
vn 0.0541992188 0.998535156 0
vn 0.0541992188 0.998535156 0
vn 0.0541992188 -0.998535156 0
vn 0.0541992188 -0.998535156 0
vn 0.0541992188 -0.998535156 0
vn 0.0541992188 -0.998535156 0
vn -0.0230102539 0 -0.999511719
vn -0.0230102539 0 -0.999511719
vn -0.0230102539 0 -0.999511719
vn -0.0230102539 0 -0.999511719
vn -0.0230102539 0 0.999511719
vn -0.0230102539 0 0.999511719
vn -0.0230102539 0 0.999511719
vn -0.0230102539 0 0.999511719
vn -5.84125519E-06 0 -1
vn -5.84125519E-06 0 -1
vn -5.84125519E-06 0 -1
vn -5.84125519E-06 0 -1
vn 1 0 0
vn 1 0 0
vn 1 0 0
vn 1 0 0
vn -1 0 0
vn -1 0 0
vn -1 0 0
vn -1 0 0
vn 0.131225586 0.991210938 0
vn 0.131225586 0.991210938 0
vn 0.131225586 0.991210938 0
vn 0.131225586 0.991210938 0
vn 0.131225586 -0.991210938 0
vn 0.131225586 -0.991210938 0
vn 0.131225586 -0.991210938 0
vn 0.131225586 -0.991210938 0
vn -0 0 1
vn -0 0 1
vn -0 0 1
vn -0 0 1
vn 0.150024414 0.987792969 -0.0452270508
vn 0.150024414 0.987792969 -0.0452270508
vn 0.150024414 0.987792969 -0.0452270508
vn 0.150024414 0.987792969 -0.0452270508
vn -0.997558594 0 0.0725708008
vn -0.997558594 0 0.0725708008
vn -0.997558594 0 0.0725708008
vn -0.997558594 0 0.0725708008
vn 0.150024414 -0.987792969 -0.0452270508
vn 0.150024414 -0.987792969 -0.0452270508
vn 0.150024414 -0.987792969 -0.0452270508
vn 0.150024414 -0.987792969 -0.0452270508
vn 0.987304688 0 -0.159301758
vn 0.987304688 0 -0.159301758
vn 0.987304688 0 -0.159301758
vn 0.987304688 0 -0.159301758
g HydroelectricPlant_BarsDoor_0
f 3/3/3 2/2/2 1/1/1
f 4/4/4 3/3/3 1/1/1
f 7/7/7 6/6/6 5/5/5
f 8/8/8 7/7/7 5/5/5
f 11/11/11 10/10/10 9/9/9
f 12/12/12 11/11/11 9/9/9
f 15/15/15 14/14/14 13/13/13
f 16/16/16 15/15/15 13/13/13
f 19/19/19 18/18/18 17/17/17
f 20/20/20 19/19/19 17/17/17
f 23/23/23 22/22/22 21/21/21
f 24/24/24 23/23/23 21/21/21
f 27/27/27 26/26/26 25/25/25
f 28/28/28 27/27/27 25/25/25
f 31/31/31 30/30/30 29/29/29
f 32/32/32 31/31/31 29/29/29
f 35/35/35 34/34/34 33/33/33
f 36/36/36 35/35/35 33/33/33
f 39/39/39 38/38/38 37/37/37
f 40/40/40 39/39/39 37/37/37
f 43/43/43 42/42/42 41/41/41
f 44/44/44 43/43/43 41/41/41
f 47/47/47 46/46/46 45/45/45
f 48/48/48 47/47/47 45/45/45
f 51/51/51 50/50/50 49/49/49
f 52/52/52 51/51/51 49/49/49
f 55/55/55 54/54/54 53/53/53
f 56/56/56 55/55/55 53/53/53
f 59/59/59 58/58/58 57/57/57
f 60/60/60 59/59/59 57/57/57
f 63/63/63 62/62/62 61/61/61
f 64/64/64 63/63/63 61/61/61
f 67/67/67 66/66/66 65/65/65
f 68/68/68 67/67/67 65/65/65
f 71/71/71 70/70/70 69/69/69
f 72/72/72 71/71/71 69/69/69
f 75/75/75 74/74/74 73/73/73
f 76/76/76 75/75/75 73/73/73
f 79/79/79 78/78/78 77/77/77
f 80/80/80 79/79/79 77/77/77
f 83/83/83 82/82/82 81/81/81
f 84/84/84 83/83/83 81/81/81
f 87/87/87 86/86/86 85/85/85
f 88/88/88 87/87/87 85/85/85
f 91/91/91 90/90/90 89/89/89
f 92/92/92 91/91/91 89/89/89
f 95/95/95 94/94/94 93/93/93
f 96/96/96 95/95/95 93/93/93
f 99/99/99 98/98/98 97/97/97
f 100/100/100 99/99/99 97/97/97
f 103/103/103 102/102/102 101/101/101
f 104/104/104 103/103/103 101/101/101
f 107/107/107 106/106/106 105/105/105
f 108/108/108 107/107/107 105/105/105
f 111/111/111 110/110/110 109/109/109
f 112/112/112 111/111/111 109/109/109
f 115/115/115 114/114/114 113/113/113
f 116/116/116 115/115/115 113/113/113
f 119/119/119 118/118/118 117/117/117
f 120/120/120 119/119/119 117/117/117
f 123/123/123 122/122/122 121/121/121
f 124/124/124 123/123/123 121/121/121
f 127/127/127 126/126/126 125/125/125
f 128/128/128 127/127/127 125/125/125
f 131/131/131 130/130/130 129/129/129
f 132/132/132 131/131/131 129/129/129
f 135/135/135 134/134/134 133/133/133
f 136/136/136 135/135/135 133/133/133
f 139/139/139 138/138/138 137/137/137
f 140/140/140 139/139/139 137/137/137
f 143/143/143 142/142/142 141/141/141
f 144/144/144 143/143/143 141/141/141
f 147/147/147 146/146/146 145/145/145
f 148/148/148 147/147/147 145/145/145
f 151/151/151 150/150/150 149/149/149
f 152/152/152 151/151/151 149/149/149
f 155/155/155 154/154/154 153/153/153
f 156/156/156 155/155/155 153/153/153
f 159/159/159 158/158/158 157/157/157
f 160/160/160 159/159/159 157/157/157
f 163/163/163 162/162/162 161/161/161
f 164/164/164 163/163/163 161/161/161
f 167/167/167 166/166/166 165/165/165
f 168/168/168 167/167/167 165/165/165
f 171/171/171 170/170/170 169/169/169
f 172/172/172 171/171/171 169/169/169
f 175/175/175 174/174/174 173/173/173
f 176/176/176 175/175/175 173/173/173
f 179/179/179 178/178/178 177/177/177
f 180/180/180 179/179/179 177/177/177
f 183/183/183 182/182/182 181/181/181
f 184/184/184 183/183/183 181/181/181
f 187/187/187 186/186/186 185/185/185
f 188/188/188 187/187/187 185/185/185
f 191/191/191 190/190/190 189/189/189
f 192/192/192 191/191/191 189/189/189
f 195/195/195 194/194/194 193/193/193
f 196/196/196 195/195/195 193/193/193
f 199/199/199 198/198/198 197/197/197
f 200/200/200 199/199/199 197/197/197
f 203/203/203 202/202/202 201/201/201
f 204/204/204 203/203/203 201/201/201
f 207/207/207 206/206/206 205/205/205
f 208/208/208 207/207/207 205/205/205
f 211/211/211 210/210/210 209/209/209
f 212/212/212 211/211/211 209/209/209
f 215/215/215 214/214/214 213/213/213
f 216/216/216 215/215/215 213/213/213
f 219/219/219 218/218/218 217/217/217
f 220/220/220 219/219/219 217/217/217
f 223/223/223 222/222/222 221/221/221
f 224/224/224 223/223/223 221/221/221
f 227/227/227 226/226/226 225/225/225
f 228/228/228 227/227/227 225/225/225
f 231/231/231 230/230/230 229/229/229
f 232/232/232 231/231/231 229/229/229
f 235/235/235 234/234/234 233/233/233
f 236/236/236 235/235/235 233/233/233
f 239/239/239 238/238/238 237/237/237
f 240/240/240 239/239/239 237/237/237
f 243/243/243 242/242/242 241/241/241
f 244/244/244 243/243/243 241/241/241
f 247/247/247 246/246/246 245/245/245
f 248/248/248 247/247/247 245/245/245
f 251/251/251 250/250/250 249/249/249
f 252/252/252 251/251/251 249/249/249
f 255/255/255 254/254/254 253/253/253
f 256/256/256 255/255/255 253/253/253
f 259/259/259 258/258/258 257/257/257
f 260/260/260 259/259/259 257/257/257
f 263/263/263 262/262/262 261/261/261
f 264/264/264 263/263/263 261/261/261
f 267/267/267 266/266/266 265/265/265
f 268/268/268 267/267/267 265/265/265
f 271/271/271 270/270/270 269/269/269
f 272/272/272 271/271/271 269/269/269
f 275/275/275 274/274/274 273/273/273
f 276/276/276 275/275/275 273/273/273
f 279/279/279 278/278/278 277/277/277
f 280/280/280 279/279/279 277/277/277
f 283/283/283 282/282/282 281/281/281
f 284/284/284 283/283/283 281/281/281
f 287/287/287 286/286/286 285/285/285
f 288/288/288 287/287/287 285/285/285
f 291/291/291 290/290/290 289/289/289
f 292/292/292 291/291/291 289/289/289
f 295/295/295 294/294/294 293/293/293
f 296/296/296 295/295/295 293/293/293
f 299/299/299 298/298/298 297/297/297
f 300/300/300 299/299/299 297/297/297
f 303/303/303 302/302/302 301/301/301
f 304/304/304 303/303/303 301/301/301
f 307/307/307 306/306/306 305/305/305
f 308/308/308 307/307/307 305/305/305
