g Generator_Decal_5
v -0.229043365 0.0307253376 0.069756344
v -0.230187818 0.0264629293 -0.0677063093
v 0.229043379 -0.0307253338 -0.0697563663
v 0.230187833 -0.0264629237 0.0677062869
vt 0.0124969482 0.794433594
vt 0.0124969482 0.987304688
vt 0.977050781 0.987304688
vt 0.977050781 0.794433594
vn 0.123352051 0.991699219 -0.0317687988
vn 0.123352051 0.991699219 -0.0317687988
vn 0.123352051 0.991699219 -0.0317687988
vn 0.123352051 0.991699219 -0.0317687988
g Generator_Decal_5_0
f 3/3/3 2/2/2 1/1/1
f 4/4/4 3/3/3 1/1/1
