g IS4_MDL_EscenarioPB_Ventanal_1
v -0.650966763 -1.49037111 0.152211457
v -0.750283182 -1.49037111 0.152211457
v -0.750283182 0.670069695 0.152211457
v -0.650966763 0.670069695 0.152211457
v -0.650966763 0.670069695 -0.152211457
v -0.750283182 0.670069695 -0.152211457
v -0.750283182 -1.49037111 -0.152211457
v -0.650966763 -1.49037111 -0.152211457
v -0.650966763 -1.49037111 -0.152211457
v -0.750283182 -1.49037111 -0.152211457
v -0.750283182 -1.49037111 0.152211457
v -0.650966763 -1.49037111 0.152211457
v -0.750283182 -1.49037111 0.152211457
v -0.750283182 -1.49037111 -0.152211457
v -0.750283182 0.670069695 -0.152211457
v -0.750283182 0.670069695 0.152211457
v -0.617812514 1.10292768 -0.152211457
v -0.617812514 1.10292768 0.152211457
v -0.368686527 1.40091348 -0.152211457
v -0.368686527 1.40091348 0.152211457
v -0.650966763 -1.49037111 -0.152211457
v -0.650966763 -1.49037111 0.152211457
v -0.650966763 0.670069695 0.152211457
v -0.650966763 0.670069695 -0.152211457
v -0.526723623 1.0635252 0.152211457
v -0.526723623 1.0635252 -0.152211457
v -0.306728512 1.32364547 0.152211457
v -0.306728512 1.32364547 -0.152211457
v -0.00118164055 1.48400092 0.152211457
v -0.00118164055 1.48400092 -0.152211457
v -0.650966763 0.670069695 0.152211457
v -0.750283182 0.670069695 0.152211457
v -0.617812514 1.10292768 0.152211457
v -0.526723623 1.0635252 0.152211457
v -0.750283182 0.670069695 -0.152211457
v -0.650966763 0.670069695 -0.152211457
v -0.526723623 1.0635252 -0.152211457
v -0.617812514 1.10292768 -0.152211457
v -0.526723623 1.0635252 -0.152211457
v -0.306728512 1.32364547 -0.152211457
v -0.368686527 1.40091348 -0.152211457
v -0.368686527 1.40091348 -0.152211457
v -0.00118164055 1.48400092 -0.152211457
v -0.00118164055 1.58133471 -0.152211457
v -0.526723623 1.0635252 0.152211457
v -0.617812514 1.10292768 0.152211457
v -0.368686527 1.40091348 0.152211457
v -0.306728512 1.32364547 0.152211457
v -0.306728512 1.32364547 0.152211457
v -0.368686527 1.40091348 0.152211457
v -0.00118164055 1.58133471 0.152211457
v -0.00118164055 1.48400092 0.152211457
v -0.368686527 1.40091348 0.152211457
v -0.368686527 1.40091348 -0.152211457
v -0.00118164055 1.58133471 -0.152211457
v -0.00118164055 1.58133471 0.152211457
v 0.645639658 -1.49037111 0.152211457
v 0.645639658 0.670069695 0.152211457
v 0.744501948 0.670069695 0.152211457
v 0.744501948 -1.49037111 0.152211457
v 0.645639658 0.670069695 -0.152211457
v 0.645639658 -1.49037111 -0.152211457
v 0.744501948 -1.49037111 -0.152211457
v 0.744501948 0.670069695 -0.152211457
v 0.645639658 -1.49037111 -0.152211457
v 0.645639658 -1.49037111 0.152211457
v 0.744501948 -1.49037111 0.152211457
v 0.744501948 -1.49037111 -0.152211457
v 0.744501948 -1.49037111 0.152211457
v 0.744501948 0.670069695 -0.152211457
v 0.744501948 -1.49037111 -0.152211457
v 0.744501948 0.670069695 0.152211457
v 0.612636685 1.10292768 -0.152211457
v 0.612636685 1.10292768 0.152211457
v 0.364648432 1.40091348 -0.152211457
v 0.364648432 1.40091348 0.152211457
v 0.645639658 -1.49037111 -0.152211457
v 0.645639658 0.670069695 0.152211457
v 0.645639658 -1.49037111 0.152211457
v 0.645639658 0.670069695 -0.152211457
v 0.521962881 1.0635252 0.152211457
v 0.521962881 1.0635252 -0.152211457
v 0.302973628 1.32364547 0.152211457
v 0.302973628 1.32364547 -0.152211457
v -0.00118164055 1.48400092 0.152211457
v -0.00118164055 1.48400092 -0.152211457
v 0.645639658 0.670069695 0.152211457
v 0.521962881 1.0635252 0.152211457
v 0.612636685 1.10292768 0.152211457
v 0.744501948 0.670069695 0.152211457
v 0.744501948 0.670069695 -0.152211457
v 0.612636685 1.10292768 -0.152211457
v 0.521962881 1.0635252 -0.152211457
v 0.645639658 0.670069695 -0.152211457
v 0.521962881 1.0635252 0.152211457
v 0.364648432 1.40091348 0.152211457
v 0.612636685 1.10292768 0.152211457
v 0.302973628 1.32364547 0.152211457
v -0.00118164055 1.48400092 0.152211457
v -0.00118164055 1.58133471 0.152211457
v 0.364648432 1.40091348 0.152211457
v 0.612636685 1.10292768 -0.152211457
v 0.302973628 1.32364547 -0.152211457
v 0.521962881 1.0635252 -0.152211457
v 0.364648432 1.40091348 -0.152211457
v -0.00118164055 1.48400092 -0.152211457
v -0.00118164055 1.58133471 -0.152211457
v 0.364648432 1.40091348 0.152211457
v -0.00118164055 1.58133471 0.152211457
v -0.00118164055 1.58133471 -0.152211457
v 0.364648432 1.40091348 -0.152211457
v -0.816967726 -1.58133483 0.152211457
v -0.816967726 -1.49037111 0.152211457
v 0.816967726 -1.49037111 0.152211457
v 0.816967726 -1.58133483 0.152211457
v -0.816967726 -1.49037111 0.152211457
v -0.816967726 -1.49037111 -0.152211457
v 0.816967726 -1.49037111 -0.152211457
v 0.816967726 -1.49037111 0.152211457
v -0.816967726 -1.49037111 -0.152211457
v -0.816967726 -1.58133483 -0.152211457
v 0.816967726 -1.58133483 -0.152211457
v 0.816967726 -1.49037111 -0.152211457
v -0.816967726 -1.58133483 -0.152211457
v -0.816967726 -1.58133483 0.152211457
v 0.816967726 -1.58133483 0.152211457
v 0.816967726 -1.58133483 -0.152211457
v 0.816967726 -1.58133483 0.152211457
v 0.816967726 -1.49037111 0.152211457
v 0.816967726 -1.49037111 -0.152211457
v 0.816967726 -1.58133483 -0.152211457
v -0.816967726 -1.58133483 -0.152211457
v -0.816967726 -1.49037111 -0.152211457
v -0.816967726 -1.49037111 0.152211457
v -0.816967726 -1.58133483 0.152211457
vt 0.209960938 0.587402344
vt 0.225830078 0.587402344
vt 0.225830078 0.304931641
vt 0.209960938 0.304931641
vt 0.210449219 0.304931641
vt 0.226318359 0.304931641
vt 0.226318359 0.587402344
vt 0.210449219 0.587402344
vt 0.0321044922 0.293945312
vt 0.0442199707 0.293945312
vt 0.0442199707 0.358642578
vt 0.0321044922 0.358642578
vt 0.0210876465 0.291015625
vt 0.0442199707 0.291015625
vt 0.0442199707 0.518554688
vt 0.0210876465 0.518554688
vt 0.0442199707 0.563964844
vt 0.0210876465 0.563964844
vt 0.0442199707 0.601074219
vt 0.0210876465 0.601074219
vt 0.0210876465 0.291015625
vt 0.0442199707 0.291015625
vt 0.0442199707 0.518554688
vt 0.0210876465 0.518554688
vt 0.0442199707 0.563964844
vt 0.0210876465 0.563964844
vt 0.0442199707 0.601074219
vt 0.0210876465 0.601074219
vt 0.0442199707 0.638671875
vt 0.0210876465 0.638671875
vt 0.209716797 0.306640625
vt 0.2265625 0.306640625
vt 0.2265625 0.361083984
vt 0.209716797 0.361083984
vt 0.2265625 0.306640625
vt 0.209716797 0.306640625
vt 0.209716797 0.361083984
vt 0.2265625 0.361083984
vt 0.209716797 0.361083984
vt 0.209716797 0.409667969
vt 0.2265625 0.409667969
vt 0.2265625 0.409667969
vt 0.209716797 0.446044922
vt 0.2265625 0.446044922
vt 0.209716797 0.361083984
vt 0.2265625 0.361083984
vt 0.2265625 0.409179688
vt 0.209716797 0.409179688
vt 0.209716797 0.409179688
vt 0.2265625 0.409179688
vt 0.2265625 0.445800781
vt 0.209716797 0.445800781
vt 0.0210876465 0.601074219
vt 0.0442199707 0.601074219
vt 0.0442199707 0.638671875
vt 0.0210876465 0.638671875
vt 0.210449219 0.587402344
vt 0.210449219 0.304931641
vt 0.226196289 0.304931641
vt 0.226196289 0.587402344
vt 0.2109375 0.304931641
vt 0.2109375 0.587402344
vt 0.22668457 0.587402344
vt 0.22668457 0.304931641
vt 0.0442199707 0.360107422
vt 0.0442199707 0.424560547
vt 0.0321044922 0.424560547
vt 0.0321044922 0.360107422
vt 0.0442199707 0.291015625
vt 0.0210876465 0.518554688
vt 0.0210876465 0.291015625
vt 0.0442199707 0.518554688
vt 0.0210876465 0.563964844
vt 0.0442199707 0.563964844
vt 0.0210876465 0.601074219
vt 0.0442199707 0.601074219
vt 0.0442199707 0.291015625
vt 0.0210876465 0.518554688
vt 0.0210876465 0.291015625
vt 0.0442199707 0.518554688
vt 0.0210876465 0.563964844
vt 0.0442199707 0.563964844
vt 0.0210876465 0.601074219
vt 0.0442199707 0.601074219
vt 0.0210876465 0.638671875
vt 0.0442199707 0.638671875
vt 0.209716797 0.306640625
vt 0.209716797 0.361083984
vt 0.2265625 0.361083984
vt 0.2265625 0.306640625
vt 0.2265625 0.306640625
vt 0.2265625 0.360839844
vt 0.209716797 0.360839844
vt 0.209716797 0.306640625
vt 0.209716797 0.361083984
vt 0.2265625 0.409423828
vt 0.2265625 0.361083984
vt 0.209716797 0.409423828
vt 0.209716797 0.445556641
vt 0.2265625 0.445556641
vt 0.2265625 0.409423828
vt 0.2265625 0.360839844
vt 0.209716797 0.408935547
vt 0.209716797 0.360839844
vt 0.2265625 0.408935547
vt 0.209716797 0.4453125
vt 0.2265625 0.4453125
vt 0.0442199707 0.601074219
vt 0.0442199707 0.638671875
vt 0.0210876465 0.638671875
vt 0.0210876465 0.601074219
vt 0.193725586 0.443359375
vt 0.193725586 0.456787109
vt 0.0506286621 0.456787109
vt 0.0506286621 0.443359375
vt 0.0484924316 0.295166016
vt 0.025177002 0.295166016
vt 0.025177002 0.438476562
vt 0.0484924316 0.438476562
vt 0.193603516 0.456787109
vt 0.193603516 0.443359375
vt 0.0505065918 0.443359375
vt 0.0505065918 0.456787109
vt 0.193725586 0.443359375
vt 0.193725586 0.456787109
vt 0.0503845215 0.456787109
vt 0.0503845215 0.443359375
vt 0.157714844 0.443359375
vt 0.157714844 0.456787109
vt 0.0867919922 0.456787109
vt 0.0867919922 0.443359375
vt 0.157714844 0.443359375
vt 0.157714844 0.456787109
vt 0.0867919922 0.456787109
vt 0.0867919922 0.443359375
vn -0 0 1
vn -0 0 1
vn -0 0 1
vn -0 0 1
vn -0 0 -1
vn -0 0 -1
vn -0 0 -1
vn -0 0 -1
vn 0.999023438 -0.0454101562 0
vn -0.999023438 -0.0454101562 0
vn -0.999023438 -0.0454101562 0
vn 0.999023438 -0.0454101562 0
vn -0.999023438 -0.0454101562 0
vn -0.999023438 -0.0454101562 0
vn -0.998535156 0.0505371094 0
vn -0.998535156 0.0505371094 0
vn -0.886230469 0.462890625 0
vn -0.886230469 0.462890625 0
vn -0.612792969 0.790039062 0
vn -0.612792969 0.790039062 0
vn 0.999023438 -0.0454101562 0
vn 0.999023438 -0.0454101562 0
vn 0.999023438 -0.0481262207 0
vn 0.999023438 -0.0481262207 0
vn 0.884765625 -0.466064453 0
vn 0.884765625 -0.466064453 0
vn 0.624511719 -0.780761719 0
vn 0.624511719 -0.780761719 0
vn -0 -1 0
vn -0 -1 0
vn 1.1920929E-07 0 1
vn 1.1920929E-07 0 1
vn 1.1920929E-07 0 1
vn 1.1920929E-07 0 1
vn 1.1920929E-07 0 -1
vn 1.1920929E-07 0 -1
vn 1.1920929E-07 0 -1
vn 1.1920929E-07 0 -1
vn -0 0 -1
vn -0 0 -1
vn -0 0 -1
vn -0 0 -1
vn -0 0 -1
vn -0 0 -1
vn -0 0 1
vn -0 0 1
vn -0 0 1
vn -0 0 1
vn -0 0 1
vn -0 0 1
vn -0 0 1
vn -0 0 1
vn -0.612792969 0.790039062 0
vn -0.612792969 0.790039062 0
vn -0 1 0
vn -0 1 0
vn -0 0 1
vn -0 0 1
vn -0 0 1
vn -0 0 1
vn -0 0 -1
vn -0 0 -1
vn -0 0 -1
vn -0 0 -1
vn -0.999023438 -0.0451965332 0
vn -0.999023438 -0.0451965332 0
vn 0.999023438 -0.0451965332 0
vn 0.999023438 -0.0451965332 0
vn 0.999023438 -0.0451965332 0
vn 0.998535156 0.0502929688 0
vn 0.999023438 -0.0451965332 0
vn 0.998535156 0.0502929688 0
vn 0.887207031 0.461181641 0
vn 0.887207031 0.461181641 0
vn 0.614746094 0.788574219 0
vn 0.614746094 0.788574219 0
vn -0.999023438 -0.0451965332 0
vn -0.999023438 -0.0479125977 0
vn -0.999023438 -0.0451965332 0
vn -0.999023438 -0.0479125977 0
vn -0.885742188 -0.464355469 0
vn -0.885742188 -0.464355469 0
vn -0.626464844 -0.779296875 0
vn -0.626464844 -0.779296875 0
vn -0 -1 0
vn -0 -1 0
vn -1.1920929E-07 0 1
vn -1.1920929E-07 0 1
vn -1.1920929E-07 0 1
vn -1.1920929E-07 0 1
vn -1.1920929E-07 0 -1
vn -1.1920929E-07 0 -1
vn -1.1920929E-07 0 -1
vn -1.1920929E-07 0 -1
vn -0 0 1
vn -0 0 1
vn -0 0 1
vn -0 0 1
vn -0 0 1
vn -0 0 1
vn -0 0 1
vn -0 0 -1
vn -0 0 -1
vn -0 0 -1
vn -0 0 -1
vn -0 0 -1
vn -0 0 -1
vn 0.614746094 0.788574219 0
vn -0 1 0
vn -0 1 0
vn 0.614746094 0.788574219 0
vn -0 0 1
vn -0 0 1
vn -0 0 1
vn -0 0 1
vn -0 1 0
vn -0 1 0
vn -0 1 0
vn -0 1 0
vn -0 0 -1
vn -0 0 -1
vn -0 0 -1
vn -0 0 -1
vn -0 -1 0
vn -0 -1 0
vn -0 -1 0
vn -0 -1 0
vn 1 0 0
vn 1 0 0
vn 1 0 0
vn 1 0 0
vn -1 0 0
vn -1 0 0
vn -1 0 0
vn -1 0 0
g IS4_MDL_EscenarioPB_Ventanal_1_0
f 3/3/3 2/2/2 1/1/1
f 4/4/4 3/3/3 1/1/1
f 7/7/7 6/6/6 5/5/5
f 8/8/8 7/7/7 5/5/5
f 11/11/11 10/10/10 9/9/9
f 12/12/12 11/11/11 9/9/9
f 15/15/15 14/14/14 13/13/13
f 16/16/16 15/15/15 13/13/13
f 17/17/17 15/15/15 16/16/16
f 18/18/18 17/17/17 16/16/16
f 19/19/19 17/17/17 18/18/18
f 20/20/20 19/19/19 18/18/18
f 23/23/23 22/22/22 21/21/21
f 24/24/24 23/23/23 21/21/21
f 25/25/25 23/23/23 24/24/24
f 26/26/26 25/25/25 24/24/24
f 27/27/27 25/25/25 26/26/26
f 28/28/28 27/27/27 26/26/26
f 29/29/29 27/27/27 28/28/28
f 30/30/30 29/29/29 28/28/28
f 33/33/33 32/32/32 31/31/31
f 34/34/34 33/33/33 31/31/31
f 37/37/37 36/36/36 35/35/35
f 38/38/38 37/37/37 35/35/35
f 40/40/40 39/39/39 38/38/38
f 41/41/41 40/40/40 38/38/38
f 43/43/43 40/40/40 42/42/42
f 44/44/44 43/43/43 42/42/42
f 47/47/47 46/46/46 45/45/45
f 48/48/48 47/47/47 45/45/45
f 51/51/51 50/50/50 49/49/49
f 52/52/52 51/51/51 49/49/49
f 55/55/55 54/54/54 53/53/53
f 56/56/56 55/55/55 53/53/53
f 59/59/59 58/58/58 57/57/57
f 60/60/60 59/59/59 57/57/57
f 63/63/63 62/62/62 61/61/61
f 64/64/64 63/63/63 61/61/61
f 67/67/67 66/66/66 65/65/65
f 68/68/68 67/67/67 65/65/65
f 71/71/71 70/70/70 69/69/69
f 70/70/70 72/72/72 69/69/69
f 70/70/70 73/73/73 72/72/72
f 73/73/73 74/74/74 72/72/72
f 73/73/73 75/75/75 74/74/74
f 75/75/75 76/76/76 74/74/74
f 79/79/79 78/78/78 77/77/77
f 78/78/78 80/80/80 77/77/77
f 78/78/78 81/81/81 80/80/80
f 81/81/81 82/82/82 80/80/80
f 81/81/81 83/83/83 82/82/82
f 83/83/83 84/84/84 82/82/82
f 83/83/83 85/85/85 84/84/84
f 85/85/85 86/86/86 84/84/84
f 89/89/89 88/88/88 87/87/87
f 90/90/90 89/89/89 87/87/87
f 93/93/93 92/92/92 91/91/91
f 94/94/94 93/93/93 91/91/91
f 97/97/97 96/96/96 95/95/95
f 96/96/96 98/98/98 95/95/95
f 100/100/100 99/99/99 98/98/98
f 101/101/101 100/100/100 98/98/98
f 104/104/104 103/103/103 102/102/102
f 103/103/103 105/105/105 102/102/102
f 103/103/103 106/106/106 105/105/105
f 106/106/106 107/107/107 105/105/105
f 110/110/110 109/109/109 108/108/108
f 111/111/111 110/110/110 108/108/108
f 114/114/114 113/113/113 112/112/112
f 115/115/115 114/114/114 112/112/112
f 118/118/118 117/117/117 116/116/116
f 119/119/119 118/118/118 116/116/116
f 122/122/122 121/121/121 120/120/120
f 123/123/123 122/122/122 120/120/120
f 126/126/126 125/125/125 124/124/124
f 127/127/127 126/126/126 124/124/124
f 130/130/130 129/129/129 128/128/128
f 131/131/131 130/130/130 128/128/128
f 134/134/134 133/133/133 132/132/132
f 135/135/135 134/134/134 132/132/132
