g IS4_MDL_EscenarioPB_Pared_Staff_18
v -0.997348607 -2.35238099 -1.52587887E-07
v 0.997348607 -1.35238397 -1.52587887E-07
v 0.997348607 -2.35238099 -1.52587887E-07
v -0.997348607 -1.35238397 -1.52587887E-07
v -0.997348607 2.35238099 -1.52587887E-07
v 0.997348607 -0.340108722 -1.52587887E-07
v 0.997348607 2.35238099 -1.52587887E-07
vt 0.0296325684 0.0181121826
vt 0.193969727 0.134033203
vt 0.193969727 0.0181121826
vt 0.0296325684 0.134033203
vt 0.0296325684 0.501464844
vt 0.193969727 0.239135742
vt 0.193969727 0.501464844
vn -0 0 1
vn -0 0 1
vn -0 0 1
vn -0 0 1
vn -0 0 1
vn -0 0 1
vn -0 0 1
g IS4_MDL_EscenarioPB_Pared_Staff_18_0
f 3/3/3 2/2/2 1/1/1
f 2/2/2 4/4/4 1/1/1
f 4/4/4 2/2/2 5/5/5
f 2/2/2 6/6/6 5/5/5
f 6/6/6 7/7/7 5/5/5
