g FloorLevel_YellowWall_1
v 27.6788425 0.0123162838 -0.438334912
v 27.6788425 0.0123162838 1.59931147
v 27.6788425 3.71231627 1.59931147
v 27.6788425 3.71231627 -0.438334912
v 27.6788425 2.06455612 -1.07355893
v 27.6788425 0.0123162838 -1.07355893
v 27.6788425 0.0123162838 -0.438334912
v 27.6788425 3.71231627 -0.438334912
v 27.6788425 3.71231627 -0.438334942
v 27.6788425 3.71231627 -0.438334942
v 27.6788425 3.71231627 -2.47598147
v 27.6788425 2.06455612 -2.47598147
v 27.6788425 3.71231627 -2.47598147
v 27.6788425 2.06455612 -3.28327203
v 27.6788425 2.06455612 -2.47598147
v 27.6788425 3.71231627 -4.51362467
v 27.6788425 0.0123162838 -3.28327203
v 27.6788425 0.0123162838 -4.51363087
v 27.6788425 0.0123162838 -3.28327203
v 27.5264378 0.0123162838 -3.28327203
v 27.5264378 2.06455612 -3.28327203
v 27.6788425 2.06455612 -3.28327203
v 27.6788425 2.06455612 -1.07355893
v 27.5264378 2.06455612 -1.07355893
v 27.5264378 0.0123162838 -1.07355893
v 27.6788425 0.0123162838 -1.07355893
v 27.6788425 2.06455612 -3.28327203
v 27.5264378 2.06455612 -3.28327203
v 27.5264378 2.06455612 -2.47598147
v 27.6788425 2.06455612 -2.47598147
v 27.6788425 2.06455612 -2.47598147
v 27.5264378 2.06455612 -2.47598147
v 27.5264378 2.06455612 -1.07355893
v 27.6788425 2.06455612 -1.07355893
vt 0.257080078 0.534667969
vt 0.00498962402 0.534667969
vt 0.00498962402 0.993652344
vt 0.257080078 0.993652344
vt 0.0871582031 0.7890625
vt 0.087097168 0.534667969
vt 0.00498962402 0.534667969
vt 0.00498962402 0.993652344
vt 0.00498962402 0.993652344
vt 0.00498962402 0.993652344
vt 0.257080078 0.993652344
vt 0.257080078 0.7890625
vt 0.00498962402 0.993652344
vt 0.100402832 0.7890625
vt 0.00498962402 0.7890625
vt 0.257080078 0.993652344
vt 0.100402832 0.534667969
vt 0.257080078 0.534667969
vt 0.189086914 0.537597656
vt 0.120300293 0.537597656
vt 0.120788574 0.996582031
vt 0.189575195 0.996582031
vt 0.154907227 0.537597656
vt 0.120300293 0.537597656
vt 0.120788574 0.996582031
vt 0.155395508 0.996582031
vt 0.189331055 0.70703125
vt 0.120605469 0.70703125
vt 0.120605469 0.826660156
vt 0.155151367 0.826660156
vt 0.155273438 0.632324219
vt 0.120483398 0.632324219
vt 0.120483398 0.901855469
vt 0.155273438 0.901855469
vn 1 0 0
vn 1 0 0
vn 1 0 0
vn 1 0 0
vn 1 -6.55651093E-07 0
vn 1 -6.55651093E-07 0
vn 1 -6.55651093E-07 0
vn 1 -6.55651093E-07 0
vn 1 -6.55651093E-07 0
vn 1 1.78813934E-06 0
vn 1 1.78813934E-06 0
vn 1 1.78813934E-06 0
vn 1 0 0
vn 1 0 0
vn 1 0 0
vn 1 0 0
vn 1 0 0
vn 1 0 0
vn -0 0 1
vn -0 0 1
vn -0 0 1
vn -0 0 1
vn -0 0 -1
vn -0 0 -1
vn -0 0 -1
vn -0 0 -1
vn -0 -1 0
vn -0 -1 0
vn -0 -1 0
vn -0 -1 0
vn -0 -1 0
vn -0 -1 0
vn -0 -1 0
vn -0 -1 0
g FloorLevel_YellowWall_1_0
f 3/3/3 2/2/2 1/1/1
f 4/4/4 3/3/3 1/1/1
f 7/7/7 6/6/6 5/5/5
f 5/5/5 8/8/8 7/7/7
f 5/5/5 9/9/9 8/8/8
f 11/11/11 10/10/10 5/5/5
f 12/12/12 11/11/11 5/5/5
f 15/15/15 14/14/14 13/13/13
f 14/14/14 16/16/16 13/13/13
f 16/16/16 14/14/14 17/17/17
f 18/18/18 16/16/16 17/17/17
f 21/21/21 20/20/20 19/19/19
f 22/22/22 21/21/21 19/19/19
f 25/25/25 24/24/24 23/23/23
f 26/26/26 25/25/25 23/23/23
f 29/29/29 28/28/28 27/27/27
f 30/30/30 29/29/29 27/27/27
f 33/33/33 32/32/32 31/31/31
f 34/34/34 33/33/33 31/31/31
