g IS4_MDL_EscenarioPB_PuertaDoble_Principal_1
v 0.125356436 1.08632016 0.888286114
v -0.171948239 1.08632016 0.888286114
v -0.171948239 1.08632016 -0.888286114
v 0.125356436 1.08632016 -0.888286114
v 0.125356436 -0.147921562 -0.888286114
v 0.125356436 1.08632016 -0.888286114
v -0.171948239 1.08632016 -0.888286114
v -0.171948239 -0.147921562 -0.888286114
v 0.125356436 -1.0146389 -0.888286114
v -0.171948239 -1.0146389 -0.888286114
v -0.171948239 -1.0146389 0.888286114
v 0.125356436 -0.147922054 0.888286114
v 0.125356436 -1.0146389 0.888286114
v -0.171948239 -0.147922054 0.888286114
v 0.125356436 1.08632016 0.888286114
v -0.171948239 1.08632016 0.888286114
v 0.0980566368 -0.147921979 -0.79427731
v 0.0980566368 0.989550591 -0.79427731
v 0.125356436 1.00793505 -0.812138677
v 0.125356436 -0.14792186 -0.812138677
v 0.0980566368 -1.0146389 -0.79427731
v 0.125356436 -1.0146389 -0.812138677
v 0.0980566368 0.989550591 -0.79427731
v 0.0980566368 0.989550591 0.79427731
v 0.125356436 1.00793505 0.812133789
v 0.125356436 1.00793505 -0.812138677
v 0.0980566368 -0.147922441 0.79427731
v 0.0980566368 -1.0146389 0.79427731
v 0.125356436 -1.0146389 0.812133789
v 0.125356436 -0.147922397 0.812133789
v 0.0980566368 0.989550591 0.79427731
v 0.125356436 1.00793505 0.812133789
v -0.171948239 -0.147922367 0.812133789
v -0.171948239 -1.0146389 0.812133789
v -0.144648433 -1.0146389 0.79427731
v -0.144648433 -0.147922441 0.79427731
v -0.171948239 1.00793505 0.812133789
v -0.144648433 0.989550591 0.79427731
v -0.144648433 0.989550591 0.79427731
v -0.144648433 0.989550591 -0.79427731
v -0.171948239 1.00793505 -0.812138677
v -0.171948239 1.00793505 0.812133789
v -0.144648433 0.989550591 -0.79427731
v -0.171948239 -0.14792186 -0.812138677
v -0.171948239 1.00793505 -0.812138677
v -0.144648433 -0.147921979 -0.79427731
v -0.171948239 -1.0146389 -0.812138677
v -0.144648433 -1.0146389 -0.79427731
v 0.125356436 -0.147921562 -0.888286114
v 0.125356436 1.00793505 -0.812138677
v 0.125356436 1.08632016 -0.888286114
v 0.125356436 -0.14792186 -0.812138677
v 0.125356436 -1.0146389 -0.888286114
v 0.125356436 -1.0146389 -0.812138677
v 0.125356436 1.08632016 -0.888286114
v 0.125356436 1.00793505 -0.812138677
v 0.125356436 1.00793505 0.812133789
v 0.125356436 1.08632016 0.888286114
v 0.125356436 -0.147922397 0.812133789
v 0.125356436 -1.0146389 0.812133789
v 0.125356436 -1.0146389 0.888286114
v 0.125356436 -0.147922054 0.888286114
v 0.125356436 1.08632016 0.888286114
v 0.125356436 1.00793505 0.812133789
v -0.171948239 1.08632016 0.888286114
v -0.171948239 1.00793505 0.812133789
v -0.171948239 1.00793505 -0.812138677
v -0.171948239 1.08632016 -0.888286114
v -0.171948239 1.08632016 -0.888286114
v -0.171948239 1.00793505 -0.812138677
v -0.171948239 -0.14792186 -0.812138677
v -0.171948239 -0.147921562 -0.888286114
v -0.171948239 -1.0146389 -0.888286114
v -0.171948239 -1.0146389 -0.812138677
v -0.171948239 -1.0146389 0.888286114
v -0.171948239 -1.0146389 0.812133789
v -0.171948239 -0.147922367 0.812133789
v -0.171948239 -0.147922054 0.888286114
v -0.171948239 1.08632016 0.888286114
v -0.171948239 1.00793505 0.812133789
v 0.0980566368 -0.147921979 -0.79427731
v -0.144648433 0.989550591 -0.79427731
v 0.0980566368 0.989550591 -0.79427731
v -0.144648433 -0.147921979 -0.79427731
v 0.0980566368 -1.0146389 -0.79427731
v -0.144648433 -1.0146389 -0.79427731
v 0.0980566368 0.989550591 -0.79427731
v -0.144648433 0.989550591 -0.79427731
v -0.144648433 0.989550591 0.79427731
v 0.0980566368 0.989550591 0.79427731
v 0.0980566368 -0.147922441 0.79427731
v -0.144648433 -1.0146389 0.79427731
v 0.0980566368 -1.0146389 0.79427731
v -0.144648433 -0.147922441 0.79427731
v 0.0980566368 0.989550591 0.79427731
v -0.144648433 0.989550591 0.79427731
v 0.125356436 1.68242669 0.888286114
v -0.171948239 1.68242669 0.888286114
v -0.171948239 1.68242669 -0.888286114
v 0.125356436 1.68242669 -0.888286114
v -0.171948239 1.68242669 -0.888286114
v -0.171948239 1.07982361 -0.888286114
v 0.125356436 1.07982361 -0.888286114
v 0.125356436 1.68242669 -0.888286114
v -0.171948239 1.07982361 0.888286114
v -0.171948239 1.68242669 0.888286114
v 0.125356436 1.68242669 0.888286114
v 0.125356436 1.07982361 0.888286114
v 0.125356436 1.60404146 -0.812138677
v 0.125356436 1.07982361 -0.812138677
v 0.0980566368 1.07982361 -0.79427731
v 0.0980566368 1.585657 -0.79427731
v 0.0980566368 1.585657 -0.79427731
v 0.0980566368 1.585657 0.79427731
v 0.125356436 1.60404146 0.812133789
v 0.125356436 1.60404146 -0.812138677
v 0.125356436 1.07982361 0.812133789
v 0.125356436 1.60404146 0.812133789
v 0.0980566368 1.585657 0.79427731
v 0.0980566368 1.07982361 0.79427731
v -0.144648433 1.07982361 0.79427731
v -0.144648433 1.585657 0.79427731
v -0.171948239 1.60404146 0.812133789
v -0.171948239 1.07982361 0.812133789
v -0.144648433 1.585657 0.79427731
v -0.144648433 1.585657 -0.79427731
v -0.171948239 1.60404146 -0.812138677
v -0.171948239 1.60404146 0.812133789
v -0.144648433 1.585657 -0.79427731
v -0.144648433 1.07982361 -0.79427731
v -0.171948239 1.07982361 -0.812138677
v -0.171948239 1.60404146 -0.812138677
v 0.125356436 1.68242669 -0.888286114
v 0.125356436 1.07982361 -0.888286114
v 0.125356436 1.07982361 -0.812138677
v 0.125356436 1.60404146 -0.812138677
v 0.125356436 1.68242669 -0.888286114
v 0.125356436 1.60404146 -0.812138677
v 0.125356436 1.60404146 0.812133789
v 0.125356436 1.68242669 0.888286114
v 0.125356436 1.68242669 0.888286114
v 0.125356436 1.60404146 0.812133789
v 0.125356436 1.07982361 0.812133789
v 0.125356436 1.07982361 0.888286114
v -0.171948239 1.68242669 0.888286114
v -0.171948239 1.60404146 0.812133789
v -0.171948239 1.60404146 -0.812138677
v -0.171948239 1.68242669 -0.888286114
v -0.171948239 1.07982361 -0.812138677
v -0.171948239 1.07982361 -0.888286114
v -0.171948239 1.68242669 -0.888286114
v -0.171948239 1.60404146 -0.812138677
v -0.171948239 1.07982361 0.812133789
v -0.171948239 1.60404146 0.812133789
v -0.171948239 1.68242669 0.888286114
v -0.171948239 1.07982361 0.888286114
v 0.0980566368 1.585657 -0.79427731
v 0.0980566368 1.07982361 -0.79427731
v -0.144648433 1.07982361 -0.79427731
v -0.144648433 1.585657 -0.79427731
v 0.0980566368 1.585657 -0.79427731
v -0.144648433 1.585657 -0.79427731
v -0.144648433 1.585657 0.79427731
v 0.0980566368 1.585657 0.79427731
v 0.0980566368 1.07982361 0.79427731
v 0.0980566368 1.585657 0.79427731
v -0.144648433 1.585657 0.79427731
v -0.144648433 1.07982361 0.79427731
vt 0.0215759277 0.437988281
vt 0.0494384766 0.437988281
vt 0.0494384766 0.270996094
vt 0.0215759277 0.270996094
vt 0.0236358643 0.435546875
vt 0.0236358643 0.634765625
vt 0.0475769043 0.634765625
vt 0.0475769043 0.435546875
vt 0.0236358643 0.263671875
vt 0.0475769043 0.263671875
vt 0.0236358643 0.263671875
vt 0.0475769043 0.435546875
vt 0.0475769043 0.263671875
vt 0.0236358643 0.435546875
vt 0.0475769043 0.634765625
vt 0.0236358643 0.634765625
vt 0.0399169922 0.435546875
vt 0.0399169922 0.614257812
vt 0.0399169922 0.615722656
vt 0.0399169922 0.435546875
vt 0.0399169922 0.263671875
vt 0.0399169922 0.263671875
vt 0.19543457 0.649902344
vt 0.0451660156 0.649902344
vt 0.0414733887 0.649902344
vt 0.19921875 0.649902344
vt 0.0399169922 0.435546875
vt 0.0399169922 0.264160156
vt 0.0399169922 0.264160156
vt 0.0399169922 0.435546875
vt 0.0399169922 0.614746094
vt 0.0399169922 0.616210938
vt 0.0254516602 0.435546875
vt 0.0254516602 0.264160156
vt 0.0254516602 0.264160156
vt 0.0254516602 0.435546875
vt 0.0254516602 0.616210938
vt 0.0254516602 0.614746094
vt 0.0451660156 0.633789062
vt 0.19543457 0.633789062
vt 0.19921875 0.633789062
vt 0.0414733887 0.633789062
vt 0.0254516602 0.614257812
vt 0.0254516602 0.435546875
vt 0.0254516602 0.615722656
vt 0.0254516602 0.435546875
vt 0.0254516602 0.263671875
vt 0.0254516602 0.263671875
vt 0.043762207 0.435546875
vt 0.0289916992 0.610839844
vt 0.043762207 0.619140625
vt 0.0289916992 0.435546875
vt 0.043762207 0.263916016
vt 0.0289916992 0.263916016
vt 0.225830078 0.645996094
vt 0.216796875 0.635742188
vt 0.0366821289 0.635742188
vt 0.027633667 0.645996094
vt 0.0435791016 0.435546875
vt 0.0435791016 0.263916016
vt 0.0288085938 0.263916016
vt 0.0288085938 0.435546875
vt 0.0288085938 0.619140625
vt 0.0435791016 0.610839844
vt 0.0489501953 0.648925781
vt 0.0611877441 0.6328125
vt 0.183349609 0.6328125
vt 0.195678711 0.648925781
vt 0.0441589355 0.619140625
vt 0.0293884277 0.610839844
vt 0.0293884277 0.435546875
vt 0.0441589355 0.435546875
vt 0.0441589355 0.263916016
vt 0.0293884277 0.263916016
vt 0.0292053223 0.263916016
vt 0.0439758301 0.263916016
vt 0.0439758301 0.435546875
vt 0.0292053223 0.435546875
vt 0.0292053223 0.619140625
vt 0.0439758301 0.610839844
vt 0.0399169922 0.435546875
vt 0.0254516602 0.614257812
vt 0.0399169922 0.614257812
vt 0.0254516602 0.435546875
vt 0.0399169922 0.263671875
vt 0.0254516602 0.263671875
vt 0.19543457 0.649902344
vt 0.19543457 0.633789062
vt 0.0451660156 0.633789062
vt 0.0451660156 0.649902344
vt 0.0399169922 0.435546875
vt 0.0254516602 0.264160156
vt 0.0399169922 0.264160156
vt 0.0254516602 0.435546875
vt 0.0399169922 0.614746094
vt 0.0254516602 0.614746094
vt 0.0215759277 0.437988281
vt 0.0494384766 0.437988281
vt 0.0494384766 0.270996094
vt 0.0215759277 0.270996094
vt 0.0475769043 0.634765625
vt 0.0475769043 0.460205078
vt 0.0236358643 0.460205078
vt 0.0236358643 0.634765625
vt 0.0236358643 0.460205078
vt 0.0236358643 0.634765625
vt 0.0475769043 0.634765625
vt 0.0475769043 0.460205078
vt 0.0399169922 0.615722656
vt 0.0399169922 0.460449219
vt 0.0399169922 0.460449219
vt 0.0399169922 0.614257812
vt 0.19543457 0.649902344
vt 0.0451660156 0.649902344
vt 0.0414733887 0.649902344
vt 0.19921875 0.649902344
vt 0.0399169922 0.4609375
vt 0.0399169922 0.616210938
vt 0.0399169922 0.614746094
vt 0.0399169922 0.4609375
vt 0.0254516602 0.4609375
vt 0.0254516602 0.614746094
vt 0.0254516602 0.616210938
vt 0.0254516602 0.4609375
vt 0.0451660156 0.633789062
vt 0.19543457 0.633789062
vt 0.19921875 0.633789062
vt 0.0414733887 0.633789062
vt 0.0254516602 0.614257812
vt 0.0254516602 0.460449219
vt 0.0254516602 0.460449219
vt 0.0254516602 0.615722656
vt 0.043762207 0.619140625
vt 0.043762207 0.460693359
vt 0.0289916992 0.460693359
vt 0.0289916992 0.610839844
vt 0.221923828 0.64453125
vt 0.213134766 0.634277344
vt 0.0369873047 0.634277344
vt 0.028137207 0.64453125
vt 0.0288085938 0.619140625
vt 0.0435791016 0.610839844
vt 0.0435791016 0.460693359
vt 0.0288085938 0.460693359
vt 0.0489501953 0.648925781
vt 0.0611877441 0.6328125
vt 0.183349609 0.6328125
vt 0.195678711 0.648925781
vt 0.0293884277 0.460693359
vt 0.0441589355 0.460693359
vt 0.0441589355 0.619140625
vt 0.0293884277 0.610839844
vt 0.0439758301 0.460693359
vt 0.0439758301 0.610839844
vt 0.0292053223 0.619140625
vt 0.0292053223 0.460693359
vt 0.0399169922 0.614257812
vt 0.0399169922 0.460449219
vt 0.0254516602 0.460449219
vt 0.0254516602 0.614257812
vt 0.19543457 0.649902344
vt 0.19543457 0.633789062
vt 0.0451660156 0.633789062
vt 0.0451660156 0.649902344
vt 0.0399169922 0.4609375
vt 0.0399169922 0.614746094
vt 0.0254516602 0.614746094
vt 0.0254516602 0.4609375
vn -0 1 0
vn -0 1 0
vn -0 1 0
vn -0 1 0
vn -0 0 -1
vn -0 0 -1
vn -0 0 -1
vn -0 0 -1
vn -0 0 -1
vn -0 0 -1
vn -0 0 1
vn -0 0 1
vn -0 0 1
vn -0 0 1
vn -0 0 1
vn -0 0 1
vn 0.547363281 0 0.836914062
vn 0.702636719 0 0.711425781
vn 0.702636719 0 0.711425781
vn 0.547363281 0 0.836914062
vn 0.702636719 0 0.711425781
vn 0.702636719 0 0.711425781
vn 0.712890625 -0.701171875 0
vn 0.712890625 -0.701171875 0
vn 0.712890625 -0.701171875 0
vn 0.712890625 -0.701171875 0
vn 0.547363281 0 -0.836914062
vn 0.702636719 0 -0.711425781
vn 0.702636719 0 -0.711425781
vn 0.547363281 0 -0.836914062
vn 0.702636719 0 -0.711425781
vn 0.702636719 0 -0.711425781
vn -0.547363281 0 -0.836914062
vn -0.702636719 0 -0.711425781
vn -0.702636719 0 -0.711425781
vn -0.547363281 0 -0.836914062
vn -0.702636719 0 -0.711425781
vn -0.702636719 0 -0.711425781
vn -0.712890625 -0.701171875 0
vn -0.712890625 -0.701171875 0
vn -0.712890625 -0.701171875 0
vn -0.712890625 -0.701171875 0
vn -0.702636719 0 0.711425781
vn -0.547363281 0 0.836914062
vn -0.702636719 0 0.711425781
vn -0.547363281 0 0.836914062
vn -0.702636719 0 0.711425781
vn -0.702636719 0 0.711425781
vn 1 0 0
vn 1 -2.86102295E-06 0
vn 1 -2.92062759E-06 0
vn 1 0 0
vn 1 0 0
vn 1 0 0
vn 1 -2.92062759E-06 0
vn 1 -2.86102295E-06 0
vn 1 -2.86102295E-06 0
vn 1 -2.92062759E-06 0
vn 1 0 0
vn 1 0 0
vn 1 0 0
vn 1 0 0
vn 1 -2.92062759E-06 0
vn 1 -2.86102295E-06 0
vn -1 1.49011612E-06 0
vn -1 1.43051147E-06 0
vn -1 1.43051147E-06 0
vn -1 1.49011612E-06 0
vn -1 1.49011612E-06 0
vn -1 1.43051147E-06 0
vn -1 0 0
vn -1 0 0
vn -1 0 0
vn -1 0 0
vn -1 0 0
vn -1 0 0
vn -1 0 0
vn -1 0 0
vn -1 1.49011612E-06 0
vn -1 1.43051147E-06 0
vn -0 0 1
vn -0 0 1
vn -0 0 1
vn -0 0 1
vn -0 0 1
vn -0 0 1
vn -0 -1 0
vn -0 -1 0
vn -0 -1 0
vn -0 -1 0
vn -0 0 -1
vn -0 0 -1
vn -0 0 -1
vn -0 0 -1
vn -0 0 -1
vn -0 0 -1
vn -0 1 0
vn -0 1 0
vn -0 1 0
vn -0 1 0
vn -0 0 -1
vn -0 0 -1
vn -0 0 -1
vn -0 0 -1
vn -0 0 1
vn -0 0 1
vn -0 0 1
vn -0 0 1
vn 0.702636719 0 0.711425781
vn 0.702636719 0 0.711425781
vn 0.702636719 0 0.711425781
vn 0.702636719 0 0.711425781
vn 0.712890625 -0.701171875 0
vn 0.712890625 -0.701171875 0
vn 0.712890625 -0.701171875 0
vn 0.712890625 -0.701171875 0
vn 0.702636719 0 -0.711425781
vn 0.702636719 0 -0.711425781
vn 0.702636719 0 -0.711425781
vn 0.702636719 0 -0.711425781
vn -0.702636719 0 -0.711425781
vn -0.702636719 0 -0.711425781
vn -0.702636719 0 -0.711425781
vn -0.702636719 0 -0.711425781
vn -0.712890625 -0.701171875 0
vn -0.712890625 -0.701171875 0
vn -0.712890625 -0.701171875 0
vn -0.712890625 -0.701171875 0
vn -0.702636719 0 0.711425781
vn -0.702636719 0 0.711425781
vn -0.702636719 0 0.711425781
vn -0.702636719 0 0.711425781
vn 1 -2.92062759E-06 0
vn 1 0 0
vn 1 0 0
vn 1 -2.86102295E-06 0
vn 1 -2.92062759E-06 0
vn 1 -2.86102295E-06 0
vn 1 -2.86102295E-06 0
vn 1 -2.92062759E-06 0
vn 1 -2.92062759E-06 0
vn 1 -2.86102295E-06 0
vn 1 0 0
vn 1 0 0
vn -1 1.49011612E-06 0
vn -1 1.43051147E-06 0
vn -1 1.43051147E-06 0
vn -1 1.49011612E-06 0
vn -1 0 0
vn -1 0 0
vn -1 1.49011612E-06 0
vn -1 1.43051147E-06 0
vn -1 0 0
vn -1 1.43051147E-06 0
vn -1 1.49011612E-06 0
vn -1 0 0
vn -0 0 1
vn -0 0 1
vn -0 0 1
vn -0 0 1
vn -0 -1 0
vn -0 -1 0
vn -0 -1 0
vn -0 -1 0
vn -0 0 -1
vn -0 0 -1
vn -0 0 -1
vn -0 0 -1
g IS4_MDL_EscenarioPB_PuertaDoble_Principal_1_0
f 3/3/3 2/2/2 1/1/1
f 4/4/4 3/3/3 1/1/1
f 7/7/7 6/6/6 5/5/5
f 8/8/8 7/7/7 5/5/5
f 8/8/8 5/5/5 9/9/9
f 10/10/10 8/8/8 9/9/9
f 13/13/13 12/12/12 11/11/11
f 12/12/12 14/14/14 11/11/11
f 12/12/12 15/15/15 14/14/14
f 15/15/15 16/16/16 14/14/14
f 19/19/19 18/18/18 17/17/17
f 20/20/20 19/19/19 17/17/17
f 20/20/20 17/17/17 21/21/21
f 22/22/22 20/20/20 21/21/21
f 25/25/25 24/24/24 23/23/23
f 26/26/26 25/25/25 23/23/23
f 29/29/29 28/28/28 27/27/27
f 30/30/30 29/29/29 27/27/27
f 30/30/30 27/27/27 31/31/31
f 32/32/32 30/30/30 31/31/31
f 35/35/35 34/34/34 33/33/33
f 36/36/36 35/35/35 33/33/33
f 36/36/36 33/33/33 37/37/37
f 38/38/38 36/36/36 37/37/37
f 41/41/41 40/40/40 39/39/39
f 42/42/42 41/41/41 39/39/39
f 45/45/45 44/44/44 43/43/43
f 44/44/44 46/46/46 43/43/43
f 44/44/44 47/47/47 46/46/46
f 47/47/47 48/48/48 46/46/46
f 51/51/51 50/50/50 49/49/49
f 50/50/50 52/52/52 49/49/49
f 49/49/49 52/52/52 53/53/53
f 52/52/52 54/54/54 53/53/53
f 57/57/57 56/56/56 55/55/55
f 58/58/58 57/57/57 55/55/55
f 61/61/61 60/60/60 59/59/59
f 62/62/62 61/61/61 59/59/59
f 62/62/62 59/59/59 63/63/63
f 59/59/59 64/64/64 63/63/63
f 67/67/67 66/66/66 65/65/65
f 68/68/68 67/67/67 65/65/65
f 71/71/71 70/70/70 69/69/69
f 72/72/72 71/71/71 69/69/69
f 72/72/72 73/73/73 71/71/71
f 73/73/73 74/74/74 71/71/71
f 77/77/77 76/76/76 75/75/75
f 78/78/78 77/77/77 75/75/75
f 78/78/78 79/79/79 77/77/77
f 79/79/79 80/80/80 77/77/77
f 83/83/83 82/82/82 81/81/81
f 82/82/82 84/84/84 81/81/81
f 81/81/81 84/84/84 85/85/85
f 84/84/84 86/86/86 85/85/85
f 89/89/89 88/88/88 87/87/87
f 90/90/90 89/89/89 87/87/87
f 93/93/93 92/92/92 91/91/91
f 92/92/92 94/94/94 91/91/91
f 91/91/91 94/94/94 95/95/95
f 94/94/94 96/96/96 95/95/95
f 99/99/99 98/98/98 97/97/97
f 100/100/100 99/99/99 97/97/97
f 103/103/103 102/102/102 101/101/101
f 104/104/104 103/103/103 101/101/101
f 107/107/107 106/106/106 105/105/105
f 108/108/108 107/107/107 105/105/105
f 111/111/111 110/110/110 109/109/109
f 112/112/112 111/111/111 109/109/109
f 115/115/115 114/114/114 113/113/113
f 116/116/116 115/115/115 113/113/113
f 119/119/119 118/118/118 117/117/117
f 120/120/120 119/119/119 117/117/117
f 123/123/123 122/122/122 121/121/121
f 124/124/124 123/123/123 121/121/121
f 127/127/127 126/126/126 125/125/125
f 128/128/128 127/127/127 125/125/125
f 131/131/131 130/130/130 129/129/129
f 132/132/132 131/131/131 129/129/129
f 135/135/135 134/134/134 133/133/133
f 136/136/136 135/135/135 133/133/133
f 139/139/139 138/138/138 137/137/137
f 140/140/140 139/139/139 137/137/137
f 143/143/143 142/142/142 141/141/141
f 144/144/144 143/143/143 141/141/141
f 147/147/147 146/146/146 145/145/145
f 148/148/148 147/147/147 145/145/145
f 151/151/151 150/150/150 149/149/149
f 152/152/152 151/151/151 149/149/149
f 155/155/155 154/154/154 153/153/153
f 156/156/156 155/155/155 153/153/153
f 159/159/159 158/158/158 157/157/157
f 160/160/160 159/159/159 157/157/157
f 163/163/163 162/162/162 161/161/161
f 164/164/164 163/163/163 161/161/161
f 167/167/167 166/166/166 165/165/165
f 168/168/168 167/167/167 165/165/165
