g IS4_MDL_EscenarioPB_Panel_Codigo_1
v 0.0130848289 0.0237936992 0.122904301
v 0.0200976152 0.146534398 0.122904301
v 0.0742762387 0.145476505 0.122904301
v 0.0742762387 0.0240202155 0.122904301
v 0.0200976152 0.146534398 0.122904301
v 0.0200976152 0.146534398 -0.0222263113
v 0.0742762387 0.145476505 -0.0222263113
v 0.0742762387 0.145476505 0.122904301
v 0.0200976152 0.146534398 -0.0222263113
v 0.0138491411 0.0238693822 -0.0222263113
v 0.0742762387 0.0240201391 -0.0222263113
v 0.0742762387 0.145476505 -0.0222263113
v 0.00210132427 -0.138539299 -0.0222263113
v 0.00210132427 -0.138539299 0.122904301
v 0.0742762387 -0.13640222 0.122904301
v 0.0742762387 -0.13640222 -0.0222263113
v 0.0138491411 0.0238693822 -0.0222263113
v 0.0184144937 0.116920449 0.000931035727
v 0.0129708452 0.0237824842 0.000931035727
v 0.0200976152 0.146534398 -0.0222263113
v 0.0181569271 0.116895042 0.0999422595
v 0.0200976152 0.146534398 0.122904301
v 0.0123923086 0.0237252638 0.0999428704
v 0.0130848289 0.0237936992 0.122904301
v 0.0373492762 0.115721487 0.100003906
v 0.0315256082 0.0231508464 0.100004517
v 0.0321040712 0.0232079905 0.000992681249
v 0.037606921 0.115746975 0.000992681249
v 0.0181569271 0.116895042 0.0999422595
v 0.0373492762 0.115721487 0.100003906
v 0.037606921 0.115746975 0.000992681249
v 0.0184144937 0.116920449 0.000931035727
v 0.0184144937 0.116920449 0.000931035727
v 0.037606921 0.115746975 0.000992681249
v 0.0321040712 0.0232079905 0.000992681249
v 0.0129708452 0.0237824842 0.000931035727
v 0.0129708452 0.0237824842 0.000931035727
v 0.0321040712 0.0232079905 0.000992681249
v 0.0315256082 0.0231508464 0.100004517
v 0.0123923086 0.0237252638 0.0999428704
v 0.0123923086 0.0237252638 0.0999428704
v 0.0315256082 0.0231508464 0.100004517
v 0.0373492762 0.115721487 0.100003906
v 0.0181569271 0.116895042 0.0999422595
v 0.0138491411 0.0238693822 -0.0222263113
v 0.00210132427 -0.138539299 -0.0222263113
v 0.0742762387 -0.13640222 -0.0222263113
v 0.0742762387 0.0240201391 -0.0222263113
v 0.00210132427 -0.138539299 -0.0222263113
v 0.0138491411 0.0238693822 -0.0222263113
v 0.0129708452 0.0237824842 0.000931035727
v 0.0123923086 0.0237252638 0.0999428704
v 0.00210132427 -0.138539299 0.122904301
v 0.0130848289 0.0237936992 0.122904301
v 0.00210132427 -0.138539299 0.122904301
v 0.0130848289 0.0237936992 0.122904301
v 0.0742762387 0.0240202155 0.122904301
v 0.0742762387 -0.13640222 0.122904301
vt 0.360595703 0.0607299805
vt 0.427246094 0.0523376465
vt 0.427246094 0.00750732422
vt 0.360595703 0.00750732422
vt 0.420166016 0.0562438965
vt 0.360595703 0.0562438965
vt 0.360595703 0.0176086426
vt 0.420166016 0.0176086426
vt 0.427246094 0.052520752
vt 0.360595703 0.060546875
vt 0.360595703 0.00768280029
vt 0.427246094 0.00768280029
vt 0.420166016 0.0739135742
vt 0.360595703 0.0739135742
vt 0.360595703 0.0174865723
vt 0.420166016 0.0174865723
vt 0.373291016 0.0847167969
vt 0.4140625 0.0745239258
vt 0.373291016 0.0745239258
vt 0.427246094 0.0847167969
vt 0.4140625 0.017578125
vt 0.427246094 0.00746536255
vt 0.360595703 0.017578125
vt 0.360595703 0.00746536255
vt 0.676757812 0.443847656
vt 0.676757812 0.403808594
vt 0.626464844 0.403808594
vt 0.626464844 0.443847656
vt 0.406005859 0.0848999023
vt 0.406005859 0.0742797852
vt 0.333251953 0.0742797852
vt 0.333251953 0.0848999023
vt 0.385986328 0.084777832
vt 0.385986328 0.0739746094
vt 0.333984375 0.0739746094
vt 0.333984375 0.084777832
vt 0.406005859 0.0850219727
vt 0.406005859 0.0743408203
vt 0.333251953 0.0743408203
vt 0.333251953 0.0850219727
vt 0.405273438 0.0846557617
vt 0.405273438 0.0737915039
vt 0.360595703 0.0737915039
vt 0.360595703 0.0846557617
vt 0.360595703 0.060546875
vt 0.427246094 0.0731201172
vt 0.427246094 0.00768280029
vt 0.360595703 0.00768280029
vt 0.427246094 0.0847167969
vt 0.360595703 0.0847167969
vt 0.360595703 0.0745239258
vt 0.360595703 0.017578125
vt 0.427246094 0.00746536255
vt 0.360595703 0.00746536255
vt 0.427246094 0.0729980469
vt 0.360595703 0.0607299805
vt 0.360595703 0.00750732422
vt 0.427246094 0.00750732422
vn -0 0 1
vn -0 0 1
vn -0 0 1
vn -0 0 1
vn -0 1 0
vn -0 1 0
vn -0 1 0
vn -0 1 0
vn -0 0 -1
vn -0 0 -1
vn -0 0 -1
vn -0 0 -1
vn -0 -1 0
vn -0 -1 0
vn -0 -1 0
vn -0 -1 0
vn -0.986816406 0.158203125 -0.0280456543
vn -0.987792969 0.15625 -0.00833129883
vn -0.987304688 0.159301758 -0.0053024292
vn -0.987792969 0.156860352 -0.00650787354
vn -0.987304688 0.158203125 0.0067024231
vn -0.987304688 0.158325195 0.00479507446
vn -0.987304688 0.159423828 0.00146389008
vn -0.986816406 0.159057617 0.0238189697
vn -0.987304688 0.158935547 -0.0032081604
vn -0.987304688 0.158935547 -0.0032081604
vn -0.987304688 0.158935547 -0.0032081604
vn -0.987304688 0.158935547 -0.0032081604
vn -0.158935547 -0.987304688 -0.000318288803
vn -0.158935547 -0.987304688 -0.000318288803
vn -0.158935547 -0.987304688 -0.000318288803
vn -0.158935547 -0.987304688 -0.000318288803
vn -0.00316810608 0.000502586365 1
vn -0.00316810608 0.000502586365 1
vn -0.00316810608 0.000502586365 1
vn -0.00316810608 0.000502586365 1
vn 0.128173828 0.991699219 0.000576496124
vn 0.128173828 0.991699219 0.000576496124
vn 0.128173828 0.991699219 0.000576496124
vn 0.128173828 0.991699219 0.000576496124
vn 0.00316619873 -0.000519275665 -1
vn 0.00316619873 -0.000519275665 -1
vn 0.00316619873 -0.000519275665 -1
vn 0.00316619873 -0.000519275665 -1
vn -0 0 -1
vn -0 0 -1
vn -0 0 -1
vn -0 0 -1
vn -0.987304688 0.159545898 -0.00213623047
vn -0.986816406 0.158203125 -0.0280456543
vn -0.987304688 0.159301758 -0.0053024292
vn -0.987304688 0.159423828 0.00146389008
vn -0.987304688 0.159423828 -0.00166416168
vn -0.986816406 0.159057617 0.0238189697
vn -0 0 1
vn -0 0 1
vn -0 0 1
vn -0 0 1
g IS4_MDL_EscenarioPB_Panel_Codigo_1_0
f 3/3/3 2/2/2 1/1/1
f 4/4/4 3/3/3 1/1/1
f 7/7/7 6/6/6 5/5/5
f 8/8/8 7/7/7 5/5/5
f 11/11/11 10/10/10 9/9/9
f 12/12/12 11/11/11 9/9/9
f 15/15/15 14/14/14 13/13/13
f 16/16/16 15/15/15 13/13/13
f 19/19/19 18/18/18 17/17/17
f 18/18/18 20/20/20 17/17/17
f 18/18/18 21/21/21 20/20/20
f 21/21/21 22/22/22 20/20/20
f 21/21/21 23/23/23 22/22/22
f 23/23/23 24/24/24 22/22/22
f 27/27/27 26/26/26 25/25/25
f 28/28/28 27/27/27 25/25/25
f 31/31/31 30/30/30 29/29/29
f 32/32/32 31/31/31 29/29/29
f 35/35/35 34/34/34 33/33/33
f 36/36/36 35/35/35 33/33/33
f 39/39/39 38/38/38 37/37/37
f 40/40/40 39/39/39 37/37/37
f 43/43/43 42/42/42 41/41/41
f 44/44/44 43/43/43 41/41/41
f 47/47/47 46/46/46 45/45/45
f 48/48/48 47/47/47 45/45/45
f 51/51/51 50/50/50 49/49/49
f 52/52/52 51/51/51 49/49/49
f 53/53/53 52/52/52 49/49/49
f 52/52/52 53/53/53 54/54/54
f 57/57/57 56/56/56 55/55/55
f 58/58/58 57/57/57 55/55/55
