g IS4_MDL_EscenarioPB_Postal_2
v 0.0613119975 -0.0810350105 0.0793051645
v -0.045193214 0.0591426454 0.0571786277
v -0.0476145633 0.0754124597 -0.0745215788
v 0.0609434694 -0.0928907394 -0.065363206
v -0.045193214 0.0591426454 0.0571786277
v -0.0514316075 0.0551036261 0.0575255193
v -0.0538529567 0.0713734403 -0.0741746798
v -0.0476145633 0.0754124597 -0.0745215788
v -0.0514316075 0.0551036261 0.0575255193
v 0.055073604 -0.0850740299 0.0796520561
v 0.0547050759 -0.0969297588 -0.0650163069
v -0.0538529567 0.0713734403 -0.0741746798
v 0.055073604 -0.0850740299 0.0796520561
v 0.0613119975 -0.0810350105 0.0793051645
v 0.0609434694 -0.0928907394 -0.065363206
v 0.0547050759 -0.0969297588 -0.0650163069
v 0.0609434694 -0.0928907394 -0.065363206
v -0.0476145633 0.0754124597 -0.0745215788
v -0.0538529567 0.0713734403 -0.0741746798
v 0.0547050759 -0.0969297588 -0.0650163069
v 0.055073604 -0.0850740299 0.0796520561
v -0.0514316075 0.0551036261 0.0575255193
v -0.045193214 0.0591426454 0.0571786277
v 0.0613119975 -0.0810350105 0.0793051645
vt 0.138793945 0.032409668
vt 0.138793945 0.18359375
vt 0.244506836 0.18359375
vt 0.244506836 0.032409668
vt 0.367431641 0.132080078
vt 0.371337891 0.132080078
vt 0.371337891 0.060546875
vt 0.367431641 0.060546875
vt 0.138671875 0.032409668
vt 0.138671875 0.18359375
vt 0.244506836 0.18359375
vt 0.244506836 0.032409668
vt 0.367431641 0.131469727
vt 0.371337891 0.131469727
vt 0.371337891 0.0599060059
vt 0.367431641 0.0599060059
vt 0.367675781 0.059753418
vt 0.367675781 0.146606445
vt 0.371582031 0.146606445
vt 0.371582031 0.059753418
vt 0.3671875 0.0437316895
vt 0.3671875 0.129638672
vt 0.372802734 0.129638672
vt 0.372802734 0.0437316895
vn 0.8203125 0.571777344 0.000854492188
vn 0.8203125 0.571777344 0.000854492188
vn 0.8203125 0.571777344 0.000854492188
vn 0.8203125 0.571777344 0.000854492188
vn -0.535644531 0.836914062 0.113220215
vn -0.535644531 0.836914062 0.113220215
vn -0.535644531 0.836914062 0.113220215
vn -0.535644531 0.836914062 0.113220215
vn -0.8203125 -0.571777344 -0.000854492188
vn -0.8203125 -0.571777344 -0.000854492188
vn -0.8203125 -0.571777344 -0.000854492188
vn -0.8203125 -0.571777344 -0.000854492188
vn 0.544921875 -0.8359375 0.0671386719
vn 0.544921875 -0.8359375 0.0671386719
vn 0.544921875 -0.8359375 0.0671386719
vn 0.544921875 -0.8359375 0.0671386719
vn -0.0143432617 -0.0635375977 -0.998046875
vn -0.0143432617 -0.0635375977 -0.998046875
vn -0.0143432617 -0.0635375977 -0.998046875
vn -0.0143432617 -0.0635375977 -0.998046875
vn -0.0309295654 0.1328125 0.990722656
vn -0.0309295654 0.1328125 0.990722656
vn -0.0309295654 0.1328125 0.990722656
vn -0.0309295654 0.1328125 0.990722656
g IS4_MDL_EscenarioPB_Postal_2_0
f 3/3/3 2/2/2 1/1/1
f 4/4/4 3/3/3 1/1/1
f 7/7/7 6/6/6 5/5/5
f 8/8/8 7/7/7 5/5/5
f 11/11/11 10/10/10 9/9/9
f 12/12/12 11/11/11 9/9/9
f 15/15/15 14/14/14 13/13/13
f 16/16/16 15/15/15 13/13/13
f 19/19/19 18/18/18 17/17/17
f 20/20/20 19/19/19 17/17/17
f 23/23/23 22/22/22 21/21/21
f 24/24/24 23/23/23 21/21/21
