g Turbine_A_RedButton
v -0.0271251891 -0.00723137101 0.00937314518
v -0.0243622027 -0.0146624018 0.00937314518
v -0.0288468376 -0.0205593128 -0.00937319268
v -0.0339612775 -0.00670288317 -0.00937319268
v -0.0339612775 0.00670272578 -0.00937319268
v -0.0271251891 0.00723128999 0.00937314518
v -0.0243622791 0.0146623962 0.00937314518
v -0.0288468376 0.0205591563 -0.00937319268
v 0.00717412634 -0.0279840864 0.00937314518
v 0.0145806652 -0.0248803739 0.00937314518
v 0.0205077901 -0.0294599924 -0.00937319268
v 0.00688291248 -0.0350927748 -0.00937319268
v -0.00688959425 -0.0350927003 -0.00937319268
v -0.00718080811 -0.0279836282 0.00937314518
v -0.0145858228 -0.0248802975 0.00937314518
v -0.0205139369 -0.0294592306 -0.00937319268
v -0.0288468376 -0.0205593128 -0.00937319268
v -0.0243622027 -0.0146624018 0.00937314518
v -3.45556487E-06 -0.0200942252 -0.00937319268
v -3.45556487E-06 -0.0200942252 -0.021394372
v -0.0179720521 -0.0124705527 -0.021394372
v -0.0179720521 -0.0124705527 -0.00937319268
v 0.0191265643 -7.86267407E-08 -0.021394372
v 0.0179683454 -0.0124705527 -0.021394372
v 0.0179683454 -0.0124705527 -0.00937319268
v 0.0191265643 -7.86267407E-08 -0.00937319268
v 0.0179683454 0.0124703953 -0.00937319268
v 0.0179683454 0.0124703953 -0.021394372
v -3.45556487E-06 0.0200941432 -0.00937319268
v 0.0179683454 0.0124703953 -0.021394372
v 0.0179683454 0.0124703953 -0.00937319268
v -3.45556487E-06 0.0200941432 -0.021394372
v -0.0179720521 0.0124703953 -0.00937319268
v -0.0179720521 0.0124703953 -0.021394372
v -0.0179720521 -0.0124705527 -0.00937319268
v -0.0179720521 -0.0124705527 -0.021394372
v -0.0191302709 -7.86267407E-08 -0.021394372
v -0.0191302709 -7.86267407E-08 -0.00937319268
v -0.0179720521 0.0124703953 -0.00937319268
v -0.0179720521 0.0124703953 -0.021394372
v 0.0179683454 -0.0124705527 -0.00937319268
v 0.0179683454 -0.0124705527 -0.021394372
v -3.45556487E-06 -0.0200942252 -0.021394372
v -3.45556487E-06 -0.0200942252 -0.00937319268
v 0.0271217134 0.00723136635 0.00937314518
v 0.0243574306 0.0146629307 0.00937314518
v 0.02884298 0.0205590799 -0.00937319268
v 0.033957649 0.00670264941 -0.00937319268
v 0.033957649 -0.00670288317 -0.00937319268
v 0.027121637 -0.00723152375 0.00937314518
v 0.024357507 -0.0146630118 0.00937314518
v 0.02884298 -0.0205592364 -0.00937319268
v 0.0205077901 -0.0294599924 -0.00937319268
v 0.0145806652 -0.0248803739 0.00937314518
v -0.0205139369 0.0294590723 -0.00937319268
v -0.0243622791 0.0146623962 0.00937314518
v -0.0288468376 0.0205591563 -0.00937319268
v -0.0145858228 0.0248801392 0.00937314518
v -0.00718080811 0.0279837009 0.00937314518
v -0.00688959425 0.0350925401 -0.00937319268
v 0.00688291248 0.0350926183 -0.00937319268
v 0.00717412634 0.02798393 0.00937314518
v 0.0145806652 0.0248804446 0.00937314518
v 0.0205077901 0.0294597596 -0.00937319268
v 0.02884298 0.0205590799 -0.00937319268
v 0.0243574306 0.0146629307 0.00937314518
v -0.0271251891 0.00723128999 0.00937314518
v -0.0243622791 0.0146623962 0.00937314518
v -2.99780118E-06 -2.33280106E-09 0.0108773559
v -0.0271251891 -0.00723137101 0.00937314518
v -0.0145858228 0.0248801392 0.00937314518
v -0.0243622027 -0.0146624018 0.00937314518
v -0.00718080811 0.0279837009 0.00937314518
v -0.0145858228 -0.0248802975 0.00937314518
v 0.00717412634 0.02798393 0.00937314518
v -0.00718080811 -0.0279836282 0.00937314518
v 0.0145806652 0.0248804446 0.00937314518
v 0.00717412634 -0.0279840864 0.00937314518
v 0.0243574306 0.0146629307 0.00937314518
v 0.0145806652 -0.0248803739 0.00937314518
v 0.0271217134 0.00723136635 0.00937314518
v 0.024357507 -0.0146630118 0.00937314518
v 0.027121637 -0.00723152375 0.00937314518
v 0.0179683454 0.0124703953 -0.00937319268
v 0.033957649 0.00670264941 -0.00937319268
v 0.02884298 0.0205590799 -0.00937319268
v 0.0205077901 0.0294597596 -0.00937319268
v 0.0191265643 -7.86267407E-08 -0.00937319268
v 0.033957649 -0.00670288317 -0.00937319268
v 0.02884298 -0.0205592364 -0.00937319268
v -3.45556487E-06 0.0200941432 -0.00937319268
v 0.00688291248 0.0350926183 -0.00937319268
v -0.00688959425 0.0350925401 -0.00937319268
v 0.0179683454 -0.0124705527 -0.00937319268
v 0.0205077901 -0.0294599924 -0.00937319268
v 0.00688291248 -0.0350927748 -0.00937319268
v -3.45556487E-06 -0.0200942252 -0.00937319268
v -0.00688959425 -0.0350927003 -0.00937319268
v -0.0179720521 0.0124703953 -0.00937319268
v -0.0205139369 0.0294590723 -0.00937319268
v -0.0288468376 0.0205591563 -0.00937319268
v -0.0179720521 -0.0124705527 -0.00937319268
v -0.0191302709 -7.86267407E-08 -0.00937319268
v -0.0339612775 0.00670272578 -0.00937319268
v -0.0205139369 -0.0294592306 -0.00937319268
v -0.0339612775 -0.00670288317 -0.00937319268
v -0.0235991124 -0.0211832449 -0.00937319268
v -0.0288468376 -0.0205593128 -0.00937319268
vt 0.69921875 0.290527344
vt 0.701660156 0.291259766
vt 0.705078125 0.287841797
vt 0.699707031 0.285400391
vt 0.694335938 0.285644531
vt 0.694335938 0.290283203
vt 0.691894531 0.291015625
vt 0.688476562 0.287597656
vt 0.706054688 0.302001953
vt 0.705078125 0.304443359
vt 0.708007812 0.307861328
vt 0.7109375 0.302490234
vt 0.710449219 0.296875
vt 0.706054688 0.297119141
vt 0.705078125 0.294677734
vt 0.708496094 0.291503906
vt 0.705078125 0.287841797
vt 0.701660156 0.291259766
vt 0.297851562 0.768066406
vt 0.296142578 0.768066406
vt 0.296142578 0.770996094
vt 0.297851562 0.770996094
vt 0.296142578 0.782714844
vt 0.296142578 0.784667969
vt 0.297851562 0.784667969
vt 0.297851562 0.782714844
vt 0.297851562 0.780761719
vt 0.296142578 0.780761719
vt 0.297851562 0.777832031
vt 0.296142578 0.780761719
vt 0.297851562 0.780761719
vt 0.296142578 0.777832031
vt 0.297851562 0.774902344
vt 0.296142578 0.774902344
vt 0.297851562 0.770996094
vt 0.296142578 0.770996094
vt 0.296142578 0.772949219
vt 0.297851562 0.772949219
vt 0.297851562 0.774902344
vt 0.296142578 0.774902344
vt 0.297851562 0.784667969
vt 0.296142578 0.784667969
vt 0.296142578 0.787109375
vt 0.297851562 0.787109375
vt 0.694335938 0.30859375
vt 0.69140625 0.307617188
vt 0.687988281 0.311035156
vt 0.693847656 0.313476562
vt 0.69921875 0.313476562
vt 0.698730469 0.30859375
vt 0.701660156 0.307861328
vt 0.704589844 0.311279297
vt 0.708007812 0.307861328
vt 0.705078125 0.304443359
vt 0.685058594 0.291259766
vt 0.691894531 0.291015625
vt 0.688476562 0.287597656
vt 0.688476562 0.294433594
vt 0.6875 0.296875
vt 0.682617188 0.296386719
vt 0.682617188 0.302001953
vt 0.687011719 0.301757812
vt 0.687988281 0.304199219
vt 0.685058594 0.307373047
vt 0.687988281 0.311035156
vt 0.69140625 0.307617188
vt 0.694335938 0.290283203
vt 0.691894531 0.291015625
vt 0.696777344 0.299560547
vt 0.69921875 0.290527344
vt 0.688476562 0.294433594
vt 0.701660156 0.291259766
vt 0.6875 0.296875
vt 0.705078125 0.294677734
vt 0.687011719 0.301757812
vt 0.706054688 0.297119141
vt 0.687988281 0.304199219
vt 0.706054688 0.302001953
vt 0.69140625 0.307617188
vt 0.705078125 0.304443359
vt 0.694335938 0.30859375
vt 0.701660156 0.307861328
vt 0.698730469 0.30859375
vt 0.318115234 0.727050781
vt 0.318359375 0.724121094
vt 0.31640625 0.726074219
vt 0.315185547 0.727539062
vt 0.320068359 0.7265625
vt 0.3203125 0.723632812
vt 0.322998047 0.723632812
vt 0.317871094 0.73046875
vt 0.314941406 0.729980469
vt 0.315673828 0.732421875
vt 0.322021484 0.726074219
vt 0.324707031 0.724609375
vt 0.326416016 0.7265625
vt 0.32421875 0.728515625
vt 0.326904297 0.729003906
vt 0.319824219 0.732910156
vt 0.317382812 0.734375
vt 0.319091797 0.734863281
vt 0.323974609 0.731933594
vt 0.322021484 0.732421875
vt 0.321533203 0.735351562
vt 0.326660156 0.731445312
vt 0.323730469 0.734375
vt 0.325683594 0.732421875
vt 0.325683594 0.732910156
vn -0.738769531 -0.124755859 0.662597656
vn -0.626953125 -0.390625 0.673828125
vn -0.797363281 -0.532714844 -0.284423828
vn -0.945800781 -0.141967773 -0.292480469
vn -0.959472656 0.144042969 -0.241455078
vn -0.738769531 0.124755859 0.662597656
vn -0.626953125 0.390625 0.673828125
vn -0.820800781 0.548339844 -0.160888672
vn 0.136230469 -0.728515625 0.671386719
vn 0.418945312 -0.60546875 0.676757812
vn 0.532226562 -0.724121094 -0.438964844
vn 0.150512695 -0.902832031 -0.402587891
vn -0.145751953 -0.874023438 -0.463623047
vn -0.136230469 -0.728515625 0.671386719
vn -0.418945312 -0.60546875 0.676757812
vn -0.478759766 -0.650878906 -0.588867188
vn -0.797363281 -0.532714844 -0.284423828
vn -0.626953125 -0.390625 0.673828125
vn -8.34465027E-07 -0.553710938 -0.833007812
vn -0 -1 0
vn -0.724121094 -0.689453125 0
vn -0.312255859 -0.297363281 -0.90234375
vn 1 0 0
vn 0.724121094 -0.689453125 0
vn 0.381347656 -0.363037109 -0.850097656
vn 0.643066406 0 -0.766113281
vn 0.381347656 0.363037109 -0.850097656
vn 0.724121094 0.689453125 0
vn -1.96695328E-06 0.575683594 -0.817871094
vn 0.724121094 0.689453125 0
vn 0.381347656 0.363037109 -0.850097656
vn -0 1 0
vn -0.381347656 0.363037109 -0.850097656
vn -0.724121094 0.689453125 0
vn -0.312255859 -0.297363281 -0.90234375
vn -0.724121094 -0.689453125 0
vn -1 0 0
vn -0.623046875 0 -0.782226562
vn -0.381347656 0.363037109 -0.850097656
vn -0.724121094 0.689453125 0
vn 0.381347656 -0.363037109 -0.850097656
vn 0.724121094 -0.689453125 0
vn -0 -1 0
vn -8.34465027E-07 -0.553710938 -0.833007812
vn 0.738769531 0.124755859 0.662597656
vn 0.626953125 0.390869141 0.673828125
vn 0.820800781 0.548339844 -0.160888672
vn 0.959472656 0.144042969 -0.241455078
vn 0.959472656 -0.144042969 -0.241455078
vn 0.738769531 -0.124755859 0.662597656
vn 0.626953125 -0.390869141 0.673828125
vn 0.820800781 -0.548339844 -0.160888672
vn 0.532226562 -0.724121094 -0.438964844
vn 0.418945312 -0.60546875 0.676757812
vn -0.532226562 0.724121094 -0.438964844
vn -0.626953125 0.390625 0.673828125
vn -0.820800781 0.548339844 -0.160888672
vn -0.418945312 0.60546875 0.676757812
vn -0.136230469 0.728515625 0.671386719
vn -0.150512695 0.902832031 -0.402587891
vn 0.150512695 0.902832031 -0.402587891
vn 0.136230469 0.728515625 0.671386719
vn 0.418945312 0.60546875 0.676757812
vn 0.532226562 0.724121094 -0.438964844
vn 0.820800781 0.548339844 -0.160888672
vn 0.626953125 0.390869141 0.673828125
vn -0.738769531 0.124755859 0.662597656
vn -0.626953125 0.390625 0.673828125
vn -4.05311584E-06 0 1
vn -0.738769531 -0.124755859 0.662597656
vn -0.418945312 0.60546875 0.676757812
vn -0.626953125 -0.390625 0.673828125
vn -0.136230469 0.728515625 0.671386719
vn -0.418945312 -0.60546875 0.676757812
vn 0.136230469 0.728515625 0.671386719
vn -0.136230469 -0.728515625 0.671386719
vn 0.418945312 0.60546875 0.676757812
vn 0.136230469 -0.728515625 0.671386719
vn 0.626953125 0.390869141 0.673828125
vn 0.418945312 -0.60546875 0.676757812
vn 0.738769531 0.124755859 0.662597656
vn 0.626953125 -0.390869141 0.673828125
vn 0.738769531 -0.124755859 0.662597656
vn 0.381347656 0.363037109 -0.850097656
vn 0.959472656 0.144042969 -0.241455078
vn 0.820800781 0.548339844 -0.160888672
vn 0.532226562 0.724121094 -0.438964844
vn 0.643066406 0 -0.766113281
vn 0.959472656 -0.144042969 -0.241455078
vn 0.820800781 -0.548339844 -0.160888672
vn -1.96695328E-06 0.575683594 -0.817871094
vn 0.150512695 0.902832031 -0.402587891
vn -0.150512695 0.902832031 -0.402587891
vn 0.381347656 -0.363037109 -0.850097656
vn 0.532226562 -0.724121094 -0.438964844
vn 0.150512695 -0.902832031 -0.402587891
vn -8.34465027E-07 -0.553710938 -0.833007812
vn -0.145751953 -0.874023438 -0.463623047
vn -0.381347656 0.363037109 -0.850097656
vn -0.532226562 0.724121094 -0.438964844
vn -0.820800781 0.548339844 -0.160888672
vn -0.312255859 -0.297363281 -0.90234375
vn -0.623046875 0 -0.782226562
vn -0.959472656 0.144042969 -0.241455078
vn -0.478759766 -0.650878906 -0.588867188
vn -0.945800781 -0.141967773 -0.292480469
vn 1.1920929E-06 0 -1
vn -0.797363281 -0.532714844 -0.284423828
g Turbine_A_RedButton_0
f 3/3/3 2/2/2 1/1/1
f 4/4/4 3/3/3 1/1/1
f 5/5/5 4/4/4 1/1/1
f 6/6/6 5/5/5 1/1/1
f 5/5/5 6/6/6 7/7/7
f 8/8/8 5/5/5 7/7/7
f 11/11/11 10/10/10 9/9/9
f 12/12/12 11/11/11 9/9/9
f 12/12/12 9/9/9 13/13/13
f 9/9/9 14/14/14 13/13/13
f 13/13/13 14/14/14 15/15/15
f 16/16/16 13/13/13 15/15/15
f 16/16/16 15/15/15 17/17/17
f 15/15/15 18/18/18 17/17/17
f 21/21/21 20/20/20 19/19/19
f 22/22/22 21/21/21 19/19/19
f 25/25/25 24/24/24 23/23/23
f 26/26/26 25/25/25 23/23/23
f 26/26/26 23/23/23 27/27/27
f 23/23/23 28/28/28 27/27/27
f 31/31/31 30/30/30 29/29/29
f 30/30/30 32/32/32 29/29/29
f 29/29/29 32/32/32 33/33/33
f 32/32/32 34/34/34 33/33/33
f 37/37/37 36/36/36 35/35/35
f 38/38/38 37/37/37 35/35/35
f 38/38/38 39/39/39 37/37/37
f 39/39/39 40/40/40 37/37/37
f 43/43/43 42/42/42 41/41/41
f 44/44/44 43/43/43 41/41/41
f 47/47/47 46/46/46 45/45/45
f 48/48/48 47/47/47 45/45/45
f 48/48/48 45/45/45 49/49/49
f 45/45/45 50/50/50 49/49/49
f 49/49/49 50/50/50 51/51/51
f 52/52/52 49/49/49 51/51/51
f 52/52/52 51/51/51 53/53/53
f 51/51/51 54/54/54 53/53/53
f 57/57/57 56/56/56 55/55/55
f 56/56/56 58/58/58 55/55/55
f 55/55/55 58/58/58 59/59/59
f 60/60/60 55/55/55 59/59/59
f 60/60/60 59/59/59 61/61/61
f 59/59/59 62/62/62 61/61/61
f 61/61/61 62/62/62 63/63/63
f 64/64/64 61/61/61 63/63/63
f 64/64/64 63/63/63 65/65/65
f 63/63/63 66/66/66 65/65/65
f 69/69/69 68/68/68 67/67/67
f 69/69/69 67/67/67 70/70/70
f 71/71/71 68/68/68 69/69/69
f 69/69/69 70/70/70 72/72/72
f 69/69/69 73/73/73 71/71/71
f 72/72/72 74/74/74 69/69/69
f 75/75/75 73/73/73 69/69/69
f 74/74/74 76/76/76 69/69/69
f 69/69/69 77/77/77 75/75/75
f 69/69/69 76/76/76 78/78/78
f 79/79/79 77/77/77 69/69/69
f 69/69/69 78/78/78 80/80/80
f 69/69/69 81/81/81 79/79/79
f 80/80/80 82/82/82 69/69/69
f 83/83/83 81/81/81 69/69/69
f 69/69/69 82/82/82 83/83/83
f 86/86/86 85/85/85 84/84/84
f 84/84/84 87/87/87 86/86/86
f 85/85/85 88/88/88 84/84/84
f 88/88/88 85/85/85 89/89/89
f 89/89/89 90/90/90 88/88/88
f 87/87/87 84/84/84 91/91/91
f 92/92/92 87/87/87 91/91/91
f 93/93/93 92/92/92 91/91/91
f 90/90/90 94/94/94 88/88/88
f 90/90/90 95/95/95 94/94/94
f 95/95/95 96/96/96 94/94/94
f 96/96/96 97/97/97 94/94/94
f 96/96/96 98/98/98 97/97/97
f 93/93/93 91/91/91 99/99/99
f 100/100/100 93/93/93 99/99/99
f 101/101/101 100/100/100 99/99/99
f 102/102/102 97/97/97 98/98/98
f 101/101/101 99/99/99 103/103/103
f 104/104/104 101/101/101 103/103/103
f 98/98/98 105/105/105 102/102/102
f 106/106/106 104/104/104 103/103/103
f 103/103/103 102/102/102 107/107/107
f 105/105/105 107/107/107 102/102/102
f 107/107/107 106/106/106 103/103/103
f 107/107/107 105/105/105 108/108/108
f 107/107/107 108/108/108 106/106/106
