g IS4_MDL_EscenarioPB_Pared_Heladeria_8
v 0.0398392379 -1.36370492 1.71660471
v 0.0911185369 -1.36370492 1.71660471
v -0.0911177918 -1.36370492 1.71660471
v 0.0398392379 -1.36370492 1.71660471
v -0.0911177918 -1.36370492 1.71660471
v -0.0398384929 -1.36370492 1.71660471
v 0.0398392379 0.701483011 -1.71660531
v 0.0398392379 0.701483011 1.71660471
v 0.0398392379 1.70661938 1.71660483
v 0.0398392379 1.70661938 -1.71660531
v 0.0398392379 1.70661938 -1.71660531
v 0.0398392379 1.70661938 1.71660483
v 0.0398392379 2.36854625 1.71660483
v 0.0398392379 2.36854625 -1.71660507
v 0.0398392379 0.701483011 1.71660471
v 0.0398392379 0.701483011 -1.71660531
v 0.0398392379 -1.36370492 -1.71660566
v 0.0398392379 -1.36370492 1.71660471
v -0.0911177918 -2.36854625 1.71660471
v -0.0911177918 -1.36370492 1.71660471
v 0.0911185369 -1.36370492 1.71660471
v 0.0911185369 -2.36854625 1.71660471
v 0.0911185369 -1.36370492 -1.66532636
v 0.0911185369 -2.36854625 -1.66532636
v 0.0911185369 -2.36854625 1.71660471
v 0.0911185369 -1.36370492 1.71660471
v 0.0398392379 -1.36370492 1.71660471
v 0.0398392379 -1.36370492 -1.71660566
v 0.0911185369 -1.36370492 -1.66532636
v 0.0911185369 -1.36370492 1.71660471
vt 0.616699219 0.154418945
vt 0.620605469 0.148925781
vt 0.605957031 0.148925781
vt 0.616699219 0.154418945
vt 0.605957031 0.148925781
vt 0.610351562 0.154418945
vt 0.0651245117 0.161376953
vt 0.461914062 0.161376953
vt 0.461914062 0.319091797
vt 0.0651245117 0.319091797
vt 0.0618591309 0.325439453
vt 0.454101562 0.325439453
vt 0.454101562 0.485351562
vt 0.0618591309 0.485351562
vt 0.4921875 0.406005859
vt 0.254394531 0.406005859
vt 0.254394531 0.138427734
vt 0.4921875 0.138427734
vt 0.555664062 0.141357422
vt 0.555664062 0.0107803345
vt 0.53515625 0.0107803345
vt 0.53515625 0.141357422
vt 0.506347656 0.142089844
vt 0.506347656 0.0107116699
vt 0.743652344 0.0107116699
vt 0.743652344 0.142089844
vt 0.508789062 0.154418945
vt 0.739257812 0.154418945
vt 0.739257812 0.148925781
vt 0.508789062 0.148925781
vn -0 1 0
vn -0 1 0
vn -0 1 0
vn -0 1 0
vn -0 1 0
vn -0 1 0
vn 1 -8.94069672E-07 0
vn 1 -8.94069672E-07 0
vn 1 -8.94069672E-07 0
vn 1 -8.94069672E-07 0
vn 1 2.74181366E-06 0
vn 1 2.74181366E-06 0
vn 1 2.74181366E-06 0
vn 1 2.74181366E-06 0
vn 1 0 0
vn 1 0 0
vn 1 0 0
vn 1 0 0
vn -0 0 1
vn -0 0 1
vn -0 0 1
vn -0 0 1
vn 1 0 0
vn 1 0 0
vn 1 0 0
vn 1 0 0
vn -0 1 0
vn -0 1 0
vn -0 1 0
vn -0 1 0
g IS4_MDL_EscenarioPB_Pared_Heladeria_8_0
f 3/3/3 2/2/2 1/1/1
f 6/6/6 5/5/5 4/4/4
f 9/9/9 8/8/8 7/7/7
f 10/10/10 9/9/9 7/7/7
f 13/13/13 12/12/12 11/11/11
f 14/14/14 13/13/13 11/11/11
f 17/17/17 16/16/16 15/15/15
f 18/18/18 17/17/17 15/15/15
f 21/21/21 20/20/20 19/19/19
f 22/22/22 21/21/21 19/19/19
f 25/25/25 24/24/24 23/23/23
f 26/26/26 25/25/25 23/23/23
f 29/29/29 28/28/28 27/27/27
f 30/30/30 29/29/29 27/27/27
