g Worktop
v -0.0207397453 0.0776328444 0.324179977
v -0.0207397453 0.849598527 0.324179977
v 0.0207299795 0.849598527 0.324179977
v 0.0207299795 0.0776328444 0.324179977
v 0.0207299795 0.849598527 0.324179977
v 0.0207299795 0.849598527 -0.216772765
v 0.0207299795 0.0776328444 -0.216772765
v 0.0207299795 0.0776328444 0.324179977
v -0.0207397453 0.0776328444 0.324179977
v -0.0207397453 0.0776328444 -0.216772765
v -0.0207397453 0.849598527 -0.216772765
v -0.0207397453 0.849598527 0.324179977
v -0 0.917337179 0.356046736
v 0.923220217 0.917337179 0.356046736
v 0.923220217 0.873871505 0.356046736
v -0 0.873871505 0.356046736
v 0.923220217 0.873871505 0.356046736
v 0.923220217 0.917337179 0.356046736
v 0.923220217 0.917337179 -0.265305489
v 0.923220217 0.873871505 -0.265305489
v -0.923220217 0.873871505 -0.265305489
v -0.923220217 0.917337179 -0.265305489
v -0.923220217 0.917337179 0.356046736
v -0.923220217 0.873871505 0.356046736
v -0.900219679 0.0533598326 -0.265305489
v -0.900219679 0.873871505 -0.265305489
v -0.900219679 0.873871505 0.333046854
v -0.900219679 0.0533598326 0.333046854
v -4.88281239E-06 0.839871526 -0.202679127
v 0.866213381 0.839871526 -0.202679127
v 0.866213381 0.0873598233 -0.202679127
v -4.88281239E-06 0.0873598233 -0.202679127
v 0.900212407 0.0533598326 0.333046854
v 0.900212407 0.873871505 0.333046854
v 0.900212407 0.873871505 -0.265305489
v 0.900212407 0.0533598326 -0.265305489
v -0 0.873871505 0.356046736
v 0.923220217 0.873871505 0.356046736
v 0.900212407 0.873871505 0.333046854
v -4.88281239E-06 0.873871505 0.333046854
v 0.900212407 0.873871505 0.333046854
v 0.923220217 0.873871505 0.356046736
v 0.923220217 0.873871505 -0.265305489
v 0.900212407 0.873871505 -0.265305489
v -0.900219679 0.873871505 -0.265305489
v -0.923220217 0.873871505 -0.265305489
v -0.923220217 0.873871505 0.356046736
v -0.900219679 0.873871505 0.333046854
v 0.923220217 0.917337179 0.356046736
v -0 0.917337179 0.356046736
v -0 0.917337179 -0.265305489
v 0.923220217 0.917337179 -0.265305489
v -0.882221639 0 -0.265305489
v -0.882221639 0.0533598326 -0.265305489
v -0.882221639 0.0533598326 0.315046996
v -0.882221639 0 0.315046996
v -4.88281239E-06 0.0533598326 0.315046996
v 0.882214308 0.0533598326 0.315046996
v 0.882214308 0 0.315046996
v -4.88281239E-06 0 0.315046996
v 0.882214308 0 0.315046996
v 0.882214308 0.0533598326 0.315046996
v 0.882214308 0.0533598326 -0.265305489
v 0.882214308 0 -0.265305489
v -0.900219679 0.0533598326 0.333046854
v -0.882221639 0.0533598326 0.315046996
v -0.882221639 0.0533598326 -0.265305489
v -0.900219679 0.0533598326 -0.265305489
v 0.900212407 0.0533598326 0.333046854
v 0.882214308 0.0533598326 0.315046996
v -4.88281239E-06 0.0533598326 0.315046996
v -4.88281239E-06 0.0533598326 0.333046854
v 0.900212407 0.0533598326 -0.265305489
v 0.882214308 0.0533598326 -0.265305489
v 0.882214308 0.0533598326 0.315046996
v 0.900212407 0.0533598326 0.333046854
v -4.88281239E-06 0.0873598233 0.333046854
v 0.866213381 0.0873598233 0.333046854
v 0.900212407 0.0533598326 0.333046854
v -4.88281239E-06 0.0533598326 0.333046854
v 0.900212407 0.0533598326 0.333046854
v 0.866213381 0.0873598233 0.333046854
v 0.866213381 0.839871526 0.333046854
v 0.900212407 0.873871505 0.333046854
v 0.900212407 0.873871505 0.333046854
v 0.866213381 0.839871526 0.333046854
v -4.88281239E-06 0.839871526 0.333046854
v -4.88281239E-06 0.873871505 0.333046854
v -0.900219679 0.873871505 0.333046854
v -0.866220713 0.839871526 0.333046854
v -0.866220713 0.0873598233 0.333046854
v -0.900219679 0.0533598326 0.333046854
v -4.88281239E-06 0.0873598233 -0.202679127
v 0.866213381 0.0873598233 -0.202679127
v 0.866213381 0.0873598233 0.333046854
v -4.88281239E-06 0.0873598233 0.333046854
v 0.866213381 0.0873598233 0.333046854
v 0.866213381 0.0873598233 -0.202679127
v 0.866213381 0.839871526 -0.202679127
v 0.866213381 0.839871526 0.333046854
v 0.866213381 0.839871526 0.333046854
v 0.866213381 0.839871526 -0.202679127
v -4.88281239E-06 0.839871526 -0.202679127
v -4.88281239E-06 0.839871526 0.333046854
v -0.866220713 0.839871526 0.333046854
v -0.866220713 0.839871526 -0.202679127
v -0.866220713 0.0873598233 -0.202679127
v -0.866220713 0.0873598233 0.333046854
v 0.868618131 0.524432719 0.293070972
v -4.88281239E-06 0.524432719 0.293070972
v -4.88281239E-06 0.54789108 0.293070972
v 0.868618131 0.54789108 0.293070972
v -4.88281239E-06 0.54789108 -0.216772765
v 0.868618131 0.54789108 -0.216772765
v 0.868618131 0.54789108 0.293070972
v -4.88281239E-06 0.54789108 0.293070972
v 0.868618131 0.524432719 0.293070972
v 0.868618131 0.524432719 -0.216772765
v -4.88281239E-06 0.524432719 -0.216772765
v -4.88281239E-06 0.524432719 0.293070972
v -0 0.917337179 0.356046736
v -0.923220217 0.917337179 0.356046736
v -0.923220217 0.917337179 -0.265305489
v -0 0.917337179 -0.265305489
v -0.923220217 0.873871505 0.356046736
v -0.923220217 0.917337179 0.356046736
v -0 0.917337179 0.356046736
v -0 0.873871505 0.356046736
v -0.900219679 0.873871505 0.333046854
v -0.923220217 0.873871505 0.356046736
v -0 0.873871505 0.356046736
v -4.88281239E-06 0.873871505 0.333046854
v -4.88281239E-06 0.839871526 0.333046854
v -0.866220713 0.839871526 0.333046854
v -0.900219679 0.873871505 0.333046854
v -4.88281239E-06 0.873871505 0.333046854
v -4.88281239E-06 0.839871526 -0.202679127
v -0.866220713 0.839871526 -0.202679127
v -0.866220713 0.839871526 0.333046854
v -4.88281239E-06 0.839871526 0.333046854
v -0.866220713 0.0873598233 -0.202679127
v -0.866220713 0.839871526 -0.202679127
v -4.88281239E-06 0.839871526 -0.202679127
v -4.88281239E-06 0.0873598233 -0.202679127
v -0.866220713 0.0873598233 0.333046854
v -0.866220713 0.0873598233 -0.202679127
v -4.88281239E-06 0.0873598233 -0.202679127
v -4.88281239E-06 0.0873598233 0.333046854
v -0.900219679 0.0533598326 0.333046854
v -0.866220713 0.0873598233 0.333046854
v -4.88281239E-06 0.0873598233 0.333046854
v -4.88281239E-06 0.0533598326 0.333046854
v -4.88281239E-06 0.0533598326 0.315046996
v -0.882221639 0.0533598326 0.315046996
v -0.900219679 0.0533598326 0.333046854
v -4.88281239E-06 0.0533598326 0.333046854
v -0.882221639 0 0.315046996
v -0.882221639 0.0533598326 0.315046996
v -4.88281239E-06 0.0533598326 0.315046996
v -4.88281239E-06 0 0.315046996
v -0.868627906 0.54789108 0.293070972
v -0.868627906 0.54789108 -0.216772765
v -4.88281239E-06 0.54789108 -0.216772765
v -4.88281239E-06 0.54789108 0.293070972
v -4.88281239E-06 0.524432719 0.293070972
v -0.868627906 0.524432719 0.293070972
v -0.868627906 0.54789108 0.293070972
v -4.88281239E-06 0.54789108 0.293070972
v -4.88281239E-06 0.524432719 -0.216772765
v -0.868627906 0.524432719 -0.216772765
v -0.868627906 0.524432719 0.293070972
v -4.88281239E-06 0.524432719 0.293070972
vt 0.948730469 0.446533203
vt 0.948730469 0.6171875
vt 0.958496094 0.6171875
vt 0.958496094 0.446533203
vt 0.944335938 0.355712891
vt 0.833496094 0.355712891
vt 0.833496094 0.19921875
vt 0.944335938 0.19921875
vt 0.944335938 0.19921875
vt 0.833984375 0.19921875
vt 0.833984375 0.355712891
vt 0.944335938 0.355712891
vt 0.571289062 0.0180969238
vt 0.751953125 0.0180969238
vt 0.751953125 0.00958251953
vt 0.571289062 0.00958251953
vt 0.609863281 0.00958251953
vt 0.609863281 0.0180969238
vt 0.731445312 0.0180969238
vt 0.731445312 0.00958251953
vt 0.576171875 0.00958251953
vt 0.576171875 0.0180969238
vt 0.697753906 0.0180969238
vt 0.697753906 0.00958251953
vt 0.830078125 0.198974609
vt 0.830078125 0.356201172
vt 0.944335938 0.356201172
vt 0.944335938 0.198974609
vt 0.829589844 0.215087891
vt 0.829589844 0.338378906
vt 0.936523438 0.338378906
vt 0.936523438 0.215087891
vt 0.944335938 0.198974609
vt 0.944335938 0.356201172
vt 0.830078125 0.356201172
vt 0.830078125 0.198974609
vt 0.571289062 0.00958251953
vt 0.751953125 0.00958251953
vt 0.748046875 0.00508499146
vt 0.571289062 0.00508499146
vt 0.614257812 0.00508499146
vt 0.609863281 0.00958251953
vt 0.731445312 0.00958251953
vt 0.731445312 0.00508499146
vt 0.576171875 0.00508499146
vt 0.576171875 0.00958251953
vt 0.697753906 0.00958251953
vt 0.692871094 0.00508499146
vt 0.751953125 0.0180969238
vt 0.571289062 0.0180969238
vt 0.571289062 0.13684082
vt 0.751953125 0.13684082
vt 0.958496094 0.502929688
vt 0.948730469 0.502929688
vt 0.948730469 0.615234375
vt 0.958496094 0.615234375
vt 0.948730469 0.4453125
vt 0.948730469 0.616210938
vt 0.958496094 0.616210938
vt 0.958496094 0.4453125
vt 0.958496094 0.445068359
vt 0.948730469 0.445068359
vt 0.948730469 0.557617188
vt 0.958496094 0.557617188
vt 0.947265625 0.306640625
vt 0.950683594 0.303222656
vt 0.950683594 0.192260742
vt 0.947265625 0.192260742
vt 0.947265625 0.367431641
vt 0.950683594 0.364013672
vt 0.950683594 0.19519043
vt 0.947265625 0.19519043
vt 0.947265625 0.192138672
vt 0.950683594 0.192138672
vt 0.950683594 0.303222656
vt 0.947265625 0.306640625
vt 0.950683594 0.194824219
vt 0.950683594 0.360595703
vt 0.944335938 0.3671875
vt 0.944335938 0.194824219
vt 0.944335938 0.198974609
vt 0.950683594 0.205566406
vt 0.950683594 0.349609375
vt 0.944335938 0.356201172
vt 0.944335938 0.200683594
vt 0.950683594 0.20715332
vt 0.950683594 0.373046875
vt 0.944335938 0.373046875
vt 0.944335938 0.356201172
vt 0.950683594 0.349609375
vt 0.950683594 0.205566406
vt 0.944335938 0.198974609
vt 0.936035156 0.354736328
vt 0.936035156 0.198730469
vt 0.839355469 0.198730469
vt 0.839355469 0.354736328
vt 0.839355469 0.354736328
vt 0.936035156 0.354736328
vt 0.936035156 0.217651367
vt 0.839355469 0.217651367
vt 0.839355469 0.354736328
vt 0.936035156 0.354736328
vt 0.936035156 0.198730469
vt 0.839355469 0.198730469
vt 0.839355469 0.347412109
vt 0.936035156 0.347412109
vt 0.936035156 0.211181641
vt 0.839355469 0.211181641
vt 0.958496094 0.616699219
vt 0.958496094 0.444335938
vt 0.948730469 0.444335938
vt 0.948730469 0.616699219
vt 0.846679688 0.200439453
vt 0.846679688 0.35546875
vt 0.937988281 0.35546875
vt 0.937988281 0.200439453
vt 0.847167969 0.35546875
vt 0.937988281 0.35546875
vt 0.937988281 0.200439453
vt 0.847167969 0.200439453
vt 0.751953125 0.0180969238
vt 0.571289062 0.0180969238
vt 0.571289062 0.13684082
vt 0.751953125 0.13684082
vt 0.571289062 0.00958251953
vt 0.571289062 0.0180969238
vt 0.751953125 0.0180969238
vt 0.751953125 0.00958251953
vt 0.575195312 0.00508499146
vt 0.571289062 0.00958251953
vt 0.751953125 0.00958251953
vt 0.751953125 0.00508499146
vt 0.950683594 0.372558594
vt 0.950683594 0.206665039
vt 0.944335938 0.200195312
vt 0.944335938 0.372558594
vt 0.936035156 0.354736328
vt 0.936035156 0.198730469
vt 0.839355469 0.198730469
vt 0.839355469 0.354736328
vt 0.936523438 0.215087891
vt 0.829589844 0.215087891
vt 0.829589844 0.338378906
vt 0.936523438 0.338378906
vt 0.839355469 0.354736328
vt 0.936035156 0.354736328
vt 0.936035156 0.198730469
vt 0.839355469 0.198730469
vt 0.944335938 0.367675781
vt 0.950683594 0.361083984
vt 0.950683594 0.1953125
vt 0.944335938 0.1953125
vt 0.950683594 0.367919922
vt 0.950683594 0.198852539
vt 0.947265625 0.19543457
vt 0.947265625 0.367919922
vt 0.958496094 0.445556641
vt 0.948730469 0.445556641
vt 0.948730469 0.616210938
vt 0.958496094 0.616210938
vt 0.937988281 0.200683594
vt 0.846679688 0.200683594
vt 0.846679688 0.355957031
vt 0.937988281 0.355957031
vt 0.958496094 0.6171875
vt 0.958496094 0.444824219
vt 0.948730469 0.444824219
vt 0.948730469 0.6171875
vt 0.937988281 0.355957031
vt 0.937988281 0.200683594
vt 0.847167969 0.200683594
vt 0.847167969 0.355957031
vn -0 0 1
vn -0 0 1
vn -0 0 1
vn -0 0 1
vn 1 0 0
vn 1 0 0
vn 1 0 0
vn 1 0 0
vn -1 0 0
vn -1 0 0
vn -1 0 0
vn -1 0 0
vn -0 0 1
vn -0 0 1
vn -0 0 1
vn -0 0 1
vn 1 0 0
vn 1 0 0
vn 1 0 0
vn 1 0 0
vn -1 0 0
vn -1 0 0
vn -1 0 0
vn -1 0 0
vn -1 0 0
vn -1 0 0
vn -1 0 0
vn -1 0 0
vn -0 0 1
vn -0 0 1
vn -0 0 1
vn -0 0 1
vn 1 0 0
vn 1 0 0
vn 1 0 0
vn 1 0 0
vn -0 -1 0
vn -0 -1 0
vn -0 -1 0
vn -0 -1 0
vn -0 -1 0
vn -0 -1 0
vn -0 -1 0
vn -0 -1 0
vn -0 -1 0
vn -0 -1 0
vn -0 -1 1.13248825E-06
vn -0 -1 1.13248825E-06
vn -0 1 0
vn -0 1 0
vn -0 1 0
vn -0 1 0
vn -1 0 0
vn -1 0 0
vn -1 0 0
vn -1 0 0
vn -0 0 1
vn -0 0 1
vn -0 0 1
vn -0 0 1
vn 1 0 0
vn 1 0 0
vn 1 0 0
vn 1 0 0
vn -0 -1 0
vn -0 -1 0
vn -0 -1 0
vn -0 -1 0
vn -0 -1 0
vn -0 -1 0
vn -0 -1 0
vn -0 -1 0
vn -0 -1 0
vn -0 -1 0
vn -0 -1 0
vn -0 -1 0
vn -0 0 1
vn 1.1920929E-07 0 1
vn 1.1920929E-07 0 1
vn -0 0 1
vn 1.1920929E-07 0 1
vn 1.1920929E-07 0 1
vn 1.1920929E-07 0 1
vn 1.1920929E-07 0 1
vn 1.1920929E-07 0 1
vn 1.1920929E-07 0 1
vn -0 0 1
vn -0 0 1
vn 1.78813934E-07 0 1
vn 1.78813934E-07 0 1
vn 1.78813934E-07 0 1
vn 1.78813934E-07 0 1
vn -0 1 0
vn -0 1 0
vn -0 1 0
vn -0 1 0
vn -1 0 0
vn -1 0 0
vn -1 0 0
vn -1 0 0
vn -0 -1 0
vn -0 -1 0
vn -0 -1 0
vn -0 -1 0
vn 1 0 0
vn 1 0 0
vn 1 0 0
vn 1 0 0
vn -0 0 1
vn -0 0 1
vn -0 0 1
vn -0 0 1
vn -0 1 0
vn -0 1 0
vn -0 1 0
vn -0 1 0
vn -0 -1 0
vn -0 -1 0
vn -0 -1 0
vn -0 -1 0
vn -0 1 0
vn -0 1 0
vn -0 1 0
vn -0 1 0
vn -0 0 1
vn -0 0 1
vn -0 0 1
vn -0 0 1
vn -0 -1 1.13248825E-06
vn -0 -1 1.13248825E-06
vn -0 -1 1.90734863E-06
vn -0 -1 1.90734863E-06
vn -0 0 1
vn 1.78813934E-07 0 1
vn 1.78813934E-07 0 1
vn -0 0 1
vn -0 -1 0
vn -0 -1 0
vn -0 -1 0
vn -0 -1 0
vn -0 0 1
vn -0 0 1
vn -0 0 1
vn -0 0 1
vn -0 1 0
vn -0 1 0
vn -0 1 0
vn -0 1 0
vn 1.78813934E-07 0 1
vn 1.78813934E-07 0 1
vn -0 0 1
vn -0 0 1
vn -0 -1 0
vn -0 -1 0
vn -0 -1 0
vn -0 -1 0
vn -0 0 1
vn -0 0 1
vn -0 0 1
vn -0 0 1
vn -0 1 0
vn -0 1 0
vn -0 1 0
vn -0 1 0
vn -0 0 1
vn -0 0 1
vn -0 0 1
vn -0 0 1
vn -0 -1 0
vn -0 -1 0
vn -0 -1 0
vn -0 -1 0
g Worktop_0
f 3/3/3 2/2/2 1/1/1
f 4/4/4 3/3/3 1/1/1
f 7/7/7 6/6/6 5/5/5
f 8/8/8 7/7/7 5/5/5
f 11/11/11 10/10/10 9/9/9
f 12/12/12 11/11/11 9/9/9
f 15/15/15 14/14/14 13/13/13
f 16/16/16 15/15/15 13/13/13
f 19/19/19 18/18/18 17/17/17
f 20/20/20 19/19/19 17/17/17
f 23/23/23 22/22/22 21/21/21
f 24/24/24 23/23/23 21/21/21
f 27/27/27 26/26/26 25/25/25
f 28/28/28 27/27/27 25/25/25
f 31/31/31 30/30/30 29/29/29
f 32/32/32 31/31/31 29/29/29
f 35/35/35 34/34/34 33/33/33
f 36/36/36 35/35/35 33/33/33
f 39/39/39 38/38/38 37/37/37
f 40/40/40 39/39/39 37/37/37
f 43/43/43 42/42/42 41/41/41
f 44/44/44 43/43/43 41/41/41
f 47/47/47 46/46/46 45/45/45
f 48/48/48 47/47/47 45/45/45
f 51/51/51 50/50/50 49/49/49
f 52/52/52 51/51/51 49/49/49
f 55/55/55 54/54/54 53/53/53
f 56/56/56 55/55/55 53/53/53
f 59/59/59 58/58/58 57/57/57
f 60/60/60 59/59/59 57/57/57
f 63/63/63 62/62/62 61/61/61
f 64/64/64 63/63/63 61/61/61
f 67/67/67 66/66/66 65/65/65
f 68/68/68 67/67/67 65/65/65
f 71/71/71 70/70/70 69/69/69
f 72/72/72 71/71/71 69/69/69
f 75/75/75 74/74/74 73/73/73
f 76/76/76 75/75/75 73/73/73
f 79/79/79 78/78/78 77/77/77
f 80/80/80 79/79/79 77/77/77
f 83/83/83 82/82/82 81/81/81
f 84/84/84 83/83/83 81/81/81
f 87/87/87 86/86/86 85/85/85
f 88/88/88 87/87/87 85/85/85
f 91/91/91 90/90/90 89/89/89
f 92/92/92 91/91/91 89/89/89
f 95/95/95 94/94/94 93/93/93
f 96/96/96 95/95/95 93/93/93
f 99/99/99 98/98/98 97/97/97
f 100/100/100 99/99/99 97/97/97
f 103/103/103 102/102/102 101/101/101
f 104/104/104 103/103/103 101/101/101
f 107/107/107 106/106/106 105/105/105
f 108/108/108 107/107/107 105/105/105
f 111/111/111 110/110/110 109/109/109
f 112/112/112 111/111/111 109/109/109
f 115/115/115 114/114/114 113/113/113
f 116/116/116 115/115/115 113/113/113
f 119/119/119 118/118/118 117/117/117
f 120/120/120 119/119/119 117/117/117
f 123/123/123 122/122/122 121/121/121
f 124/124/124 123/123/123 121/121/121
f 127/127/127 126/126/126 125/125/125
f 128/128/128 127/127/127 125/125/125
f 131/131/131 130/130/130 129/129/129
f 132/132/132 131/131/131 129/129/129
f 135/135/135 134/134/134 133/133/133
f 136/136/136 135/135/135 133/133/133
f 139/139/139 138/138/138 137/137/137
f 140/140/140 139/139/139 137/137/137
f 143/143/143 142/142/142 141/141/141
f 144/144/144 143/143/143 141/141/141
f 147/147/147 146/146/146 145/145/145
f 148/148/148 147/147/147 145/145/145
f 151/151/151 150/150/150 149/149/149
f 152/152/152 151/151/151 149/149/149
f 155/155/155 154/154/154 153/153/153
f 156/156/156 155/155/155 153/153/153
f 159/159/159 158/158/158 157/157/157
f 160/160/160 159/159/159 157/157/157
f 163/163/163 162/162/162 161/161/161
f 164/164/164 163/163/163 161/161/161
f 167/167/167 166/166/166 165/165/165
f 168/168/168 167/167/167 165/165/165
f 171/171/171 170/170/170 169/169/169
f 172/172/172 171/171/171 169/169/169
