g Combined Mesh (root: scene) 2
v -12.9073191 11.7249079 -23.3583755
v -12.910984 11.9242134 -23.4190083
v -12.4838676 11.7249079 -23.1255035
v -12.910984 11.9242134 -23.4190083
v -12.7359476 11.7249079 -23.4267349
v -12.4838676 11.7249079 -23.1255035
v -12.5021229 11.7249079 -25.9988022
v -12.8246355 12.0358982 -25.8736572
v -12.6163282 11.7249079 -26.102911
v -12.6163282 11.7249079 -26.102911
v -12.8246355 12.0358982 -25.8736572
v -12.8034945 11.7249079 -25.9933949
v -12.7025251 11.7249079 -25.7228317
v -12.8246355 12.0358982 -25.8736572
v -12.5240173 11.7249079 -25.7715034
v -12.5240173 11.7249079 -25.7715034
v -12.8246355 12.0358982 -25.8736572
v -12.5021229 11.7249079 -25.9988022
v -13.2132988 13.8580046 -24.3216553
v -13.4638615 14.1514788 -24.5274143
v -13.2362823 13.968359 -24.5315533
v -12.9897747 12.5558271 -26.3206081
v -13.0071096 12.843564 -26.2403564
v -13.4638615 12.843564 -26.4621487
v -13.2851515 14.2257366 -25.2929649
v -13.1449585 14.0823698 -25.2933712
v -13.1867046 14.0653677 -25.1154041
v -13.0521469 12.8663139 -24.1669769
v -13.0236864 12.8988829 -24.5883121
v -12.8582792 12.5526533 -24.3776684
v -13.3218479 14.0188723 -24.7379436
v -13.2664928 14.1478071 -24.9618893
v -13.2425299 13.8635807 -24.7559814
v -13.1524744 13.3281298 -24.7975197
v -13.1093855 13.577508 -24.7131691
v -13.2425299 13.8635807 -24.7559814
v -12.9893017 12.9162903 -24.8135014
v -13.0236864 12.8988829 -24.5883121
v -13.1524744 13.3281298 -24.7975197
v -13.0332823 13.3490467 -25.1438065
v -13.0858555 12.9418221 -25.1438065
v -12.9893017 12.9162903 -24.8135014
v -13.0332823 13.3490467 -25.1438065
v -13.0679741 13.7393541 -25.1438065
v -13.1127682 13.6002321 -25.2185707
v -13.0858555 12.9418221 -25.1438065
v -13.0332823 13.3490467 -25.1438065
v -13.1107712 13.2393227 -25.256958
v -13.4638615 14.2092247 -25.6467648
v -13.3440094 14.136054 -25.7176895
v -13.2382193 14.0974436 -25.6373825
v -13.2412586 14.1755552 -25.423851
v -13.2851515 14.2257366 -25.2929649
v -13.4638615 14.2756977 -25.3326263
v -13.2851515 14.2257366 -25.2929649
v -13.2412586 14.1755552 -25.423851
v -13.1376438 13.7861023 -25.4191589
v -13.2851515 14.2257366 -25.2929649
v -13.1376438 13.7861023 -25.4191589
v -13.1449585 14.0823698 -25.2933712
v -12.9978142 12.881525 -25.9314613
v -13.0003405 12.8712082 -26.066227
v -12.984149 12.7230968 -26.0346451
v -12.9786491 12.5232573 -25.1438065
v -13.0858555 12.9418221 -25.1438065
v -12.9161777 12.5968924 -25.4848137
v -12.8686724 12.3368845 -24.8351383
v -12.7780418 12.0791082 -24.7809696
v -12.8270416 12.3702965 -24.439949
v -12.8270416 12.3702965 -24.439949
v -12.7780418 12.0791082 -24.7809696
v -12.7579803 12.0141573 -24.5339241
v -12.9682236 12.0835047 -23.7182674
v -12.9528646 12.3521938 -24.0657349
v -12.890605 11.9642525 -24.0559254
v -12.9838457 12.4574089 -23.7649593
v -13.0071087 12.843564 -23.9245911
v -12.9841576 12.5430279 -23.8814926
v -12.9838457 12.4574089 -23.7649593
v -12.9528646 12.3521938 -24.0657349
v -12.9682236 12.0835047 -23.7182674
v -13.0071087 12.843564 -23.9245911
v -12.9838457 12.4574089 -23.7649593
v -13.1860542 12.3555012 -23.6351299
v -12.9893017 12.9162903 -24.8135014
v -13.0858555 12.9418221 -25.1438065
v -12.9786491 12.5232573 -25.1438065
v -13.0236864 12.8988829 -24.5883121
v -12.9893017 12.9162903 -24.8135014
v -12.8686724 12.3368845 -24.8351383
v -13.1525679 13.4591875 -25.3256016
v -13.1376438 13.7861023 -25.4191589
v -13.0613976 13.2993746 -25.4604588
v -13.1127682 13.6002321 -25.2185707
v -13.1376438 13.7861023 -25.4191589
v -13.1525679 13.4591875 -25.3256016
v -13.2382193 14.0974436 -25.6373825
v -13.079608 13.6416283 -25.5164814
v -13.1376438 13.7861023 -25.4191589
v -12.9978142 12.881525 -25.9314613
v -12.8246355 12.0358982 -25.8736572
v -12.8864326 12.406229 -25.7563229
v -12.9649811 12.1442633 -26.6223755
v -12.7863226 11.7249079 -26.835741
v -12.7814236 11.7249079 -26.7413445
v -12.9649811 12.1442633 -26.6223755
v -12.7814236 11.7249079 -26.7413445
v -12.9349356 11.9585705 -26.364296
v -13.4638615 12.843564 -26.4621487
v -13.4638615 12.5730152 -26.6348114
v -13.2623262 12.5686646 -26.7128849
v -13.2446251 13.8768978 -26.0276051
v -13.1263742 13.5215721 -26.1352634
v -13.1332388 13.6014433 -25.8851376
v -13.2664928 14.1478071 -24.9618893
v -13.1951742 14.0091076 -24.9728165
v -13.2425299 13.8635807 -24.7559814
v -13.1449585 14.0823698 -25.2933712
v -13.0679741 13.7393541 -25.1438065
v -13.1867046 14.0653677 -25.1154041
v -12.7780418 12.0791082 -24.7809696
v -12.5512247 11.7249079 -25.1438084
v -12.7085962 11.7249079 -24.7192554
v -13.4638615 12.4834642 -23.5713348
v -13.1860542 12.3555012 -23.6351299
v -13.3257637 12.245904 -23.5030117
v -12.8824568 12.0901098 -24.1760979
v -12.890605 11.9642525 -24.0559254
v -12.9528646 12.3521938 -24.0657349
v -12.8582792 12.5526533 -24.3776684
v -12.8270416 12.3702965 -24.439949
v -12.8824568 12.0901098 -24.1760979
v -12.7991362 12.0083904 -24.3284473
v -12.8824568 12.0901098 -24.1760979
v -12.8270416 12.3702965 -24.439949
v -13.1433973 11.7249079 -23.1861935
v -13.2369251 11.9214087 -23.3477669
v -13.0311089 11.7249079 -23.2028618
v -13.0311089 11.7249079 -23.2028618
v -13.2369251 11.9214087 -23.3477669
v -12.9952641 11.7249079 -23.3138027
v -12.9952641 11.7249079 -23.3138027
v -13.2369251 11.9214087 -23.3477669
v -13.1237583 11.7249079 -23.4537868
v -13.1950636 11.7249079 -22.9891071
v -13.2384892 11.9594402 -23.0789356
v -13.0634594 11.7249079 -22.8883362
v -13.2384892 11.9594402 -23.0789356
v -13.1435318 11.7249079 -23.0863037
v -13.0634594 11.7249079 -22.8883362
v -12.5588808 11.7249079 -24.2047577
v -12.567317 11.9059296 -24.2853565
v -12.2378798 11.7249079 -24.155798
v -12.567317 11.9059296 -24.2853565
v -12.4684772 11.7249079 -24.370554
v -12.2378798 11.7249079 -24.155798
v -12.7672853 11.7249079 -23.9906082
v -12.8304605 11.8985109 -24.1258888
v -12.2462616 11.7249079 -23.8054619
v -12.8304605 11.8985109 -24.1258888
v -12.6815128 11.7249079 -24.17523
v -12.2462616 11.7249079 -23.8054619
v -13.4638615 14.3167629 -24.6793995
v -13.4638615 14.5561714 -24.8193951
v -13.3657312 14.3074293 -24.7196789
v -13.3657312 14.3074293 -24.7196789
v -13.4638615 14.5561714 -24.8193951
v -13.3650808 14.2957153 -24.7984943
v -13.3650808 14.2957153 -24.7984943
v -13.4638615 14.5561714 -24.8193951
v -13.4638615 14.2919827 -24.8388596
v -13.0965252 11.7249079 -26.8842697
v -13.1787939 11.9791479 -26.9095955
v -12.992259 11.7249079 -27.296875
v -13.1787939 11.9791479 -26.9095955
v -13.2109785 11.7249079 -27.140852
v -12.992259 11.7249079 -27.296875
v -13.4638615 14.5426407 -25.0769939
v -13.4638615 14.9243507 -25.2520943
v -13.3501396 14.4717102 -25.1256886
v -13.3501396 14.4717102 -25.1256886
v -13.4638615 14.9243507 -25.2520943
v -13.3649197 14.522151 -25.2600136
v -13.3649197 14.522151 -25.2600136
v -13.4638615 14.9243507 -25.2520943
v -13.4638615 14.5152121 -25.3279457
v -13.2664928 14.1478071 -24.9618893
v -13.3501396 14.4717102 -25.1256886
v -13.1867046 14.0653677 -25.1154041
v -13.1168652 12.0909023 -23.5863533
v -12.9838457 12.4574089 -23.7649593
v -13.0135422 12.1148233 -23.521904
v -13.0135422 12.1148233 -23.521904
v -12.9838457 12.4574089 -23.7649593
v -12.9161625 12.1237221 -23.5399704
v -12.9161625 12.1237221 -23.5399704
v -12.9838457 12.4574089 -23.7649593
v -12.9161873 12.1237984 -23.6388626
v -12.9161873 12.1237984 -23.6388626
v -12.9838457 12.4574089 -23.7649593
v -12.9682236 12.0835047 -23.7182674
v -12.5749874 11.7249079 -26.4189053
v -12.7361774 11.9712009 -26.4145393
v -12.2319937 11.7249079 -26.7718906
v -12.7361774 11.9712009 -26.4145393
v -12.6385202 11.7249079 -26.6373634
v -12.2319937 11.7249079 -26.7718906
v -12.7076845 11.7249079 -23.8102551
v -12.6647425 11.824791 -23.7739887
v -12.7076845 11.7249079 -23.6906071
v -12.7076845 11.7249079 -23.6906071
v -12.6647425 11.824791 -23.7739887
v -12.6247902 11.7249079 -23.6307831
v -12.6247902 11.7249079 -23.6307831
v -12.6647425 11.824791 -23.7739887
v -12.5418949 11.7249079 -23.6906071
v -12.5418949 11.7249079 -23.6906071
v -12.6647425 11.824791 -23.7739887
v -12.5418949 11.7249079 -23.8102551
v -12.5418949 11.7249079 -23.8102551
v -12.6647425 11.824791 -23.7739887
v -12.6247902 11.7249079 -23.870079
v -12.6247902 11.7249079 -23.870079
v -12.6647425 11.824791 -23.7739887
v -12.7076845 11.7249079 -23.8102551
v -12.6867752 11.7249079 -26.6721897
v -12.9349356 11.9585705 -26.364296
v -12.600071 11.7249079 -26.8674068
v -12.9349356 11.9585705 -26.364296
v -12.7863226 11.7249079 -26.7339802
v -12.600071 11.7249079 -26.8674068
v -12.6269922 11.7249079 -25.3119583
v -12.7175264 11.895237 -25.4014053
v -12.3614588 11.7249079 -25.5745621
v -12.7175264 11.895237 -25.4014053
v -12.7224865 11.7249079 -25.5238876
v -12.3614588 11.7249079 -25.5745621
v -12.7991362 12.0083904 -24.3284473
v -12.8270416 12.3702965 -24.439949
v -12.6664419 12.0831547 -24.3443565
v -12.6719065 12.092927 -24.4482098
v -12.8270416 12.3702965 -24.439949
v -12.7579803 12.0141573 -24.5339241
v -13.3440094 14.136054 -25.7176895
v -13.3837614 14.3203259 -25.6867218
v -13.383769 14.3277588 -25.7455235
v -13.3440094 14.136054 -25.7176895
v -13.383769 14.3277588 -25.7455235
v -13.3592348 14.0097723 -25.9480724
v -13.4638615 14.3179655 -25.6574421
v -13.4638615 14.5345697 -25.6896877
v -13.3837614 14.3203259 -25.6867218
v -13.3837614 14.3203259 -25.6867218
v -13.4638615 14.5345697 -25.6896877
v -13.383769 14.3277588 -25.7455235
v -13.383769 14.3277588 -25.7455235
v -13.4638615 14.5345697 -25.6896877
v -13.4638615 14.332757 -25.774456
v -13.4638615 14.4729404 -25.3667812
v -13.4638615 14.7519159 -25.4258461
v -13.3774633 14.4760237 -25.4015808
v -13.3774633 14.4760237 -25.4015808
v -13.4638615 14.7519159 -25.4258461
v -13.3774719 14.4852943 -25.4717312
v -13.3774719 14.4852943 -25.4717312
v -13.4638615 14.7519159 -25.4258461
v -13.4638615 14.4858112 -25.5063763
v -13.4638615 12.3546581 -23.2989407
v -13.4638615 12.8814554 -23.5722599
v -13.3308353 12.3508081 -23.3599186
v -13.3308353 12.3508081 -23.3599186
v -13.4638615 12.8814554 -23.5722599
v -13.3257637 12.245904 -23.5030117
v -13.3257637 12.245904 -23.5030117
v -13.4638615 12.8814554 -23.5722599
v -13.4638615 12.4834642 -23.5713348
v -13.4638615 12.5730152 -26.6348114
v -13.4638615 12.947751 -26.6840019
v -13.2623262 12.5686646 -26.7128849
v -13.2623262 12.5686646 -26.7128849
v -13.4638615 12.947751 -26.6840019
v -13.2581215 12.4664421 -26.8531399
v -13.2581215 12.4664421 -26.8531399
v -13.4638615 12.947751 -26.6840019
v -13.346488 12.4711266 -26.9154701
v -13.346488 12.4711266 -26.9154701
v -13.4638615 12.947751 -26.6840019
v -13.4638615 12.4753695 -26.9030132
v -12.6269922 11.7249079 -25.3119583
v -12.5512247 11.7249079 -25.1438084
v -12.7175264 11.895237 -25.4014053
v -12.7361774 11.9712009 -26.4145393
v -12.9464703 12.2129593 -26.273283
v -12.9349356 11.9585705 -26.364296
v -12.8692627 11.9046755 -26.2197342
v -12.9464703 12.2129593 -26.273283
v -12.7594595 11.9348793 -26.2832508
v -13.1237583 11.7249079 -23.4537868
v -13.2369251 11.9214087 -23.3477669
v -13.3458872 11.923152 -23.4999104
v -12.7991362 12.0083904 -24.3284473
v -12.6664419 12.0831547 -24.3443565
v -12.567317 11.9059296 -24.2853565
v -13.2369251 11.9214087 -23.3477669
v -13.3257637 12.245904 -23.5030117
v -13.3458872 11.923152 -23.4999104
v -12.9649811 12.1442633 -26.6223755
v -12.9897747 12.5558271 -26.3206081
v -13.1802273 12.0140028 -26.6632175
v -12.9897747 12.5558271 -26.3206081
v -13.4638615 12.843564 -26.4621487
v -13.2623262 12.5686646 -26.7128849
v -12.9897747 12.5558271 -26.3206081
v -13.2623262 12.5686646 -26.7128849
v -13.1802273 12.0140028 -26.6632175
v -13.4638615 14.1531744 -24.3050499
v -13.4638615 14.3711739 -24.4198074
v -13.3978062 14.1336975 -24.324152
v -13.3978062 14.1336975 -24.324152
v -13.4638615 14.3711739 -24.4198074
v -13.3921661 14.1455059 -24.3844852
v -13.3921661 14.1455059 -24.3844852
v -13.4638615 14.3711739 -24.4198074
v -13.4638615 14.1741171 -24.4719028
v -13.2664928 14.1478071 -24.9618893
v -13.1867046 14.0653677 -25.1154041
v -13.1951742 14.0091076 -24.9728165
v -13.2412586 14.1755552 -25.423851
v -13.2382193 14.0974436 -25.6373825
v -13.1376438 13.7861023 -25.4191589
v -13.2664928 14.1478071 -24.9618893
v -13.3218479 14.0188723 -24.7379436
v -13.4638615 14.1869879 -24.8671169
v -13.4638615 14.0323219 -26.0464268
v -13.2446251 13.8768978 -26.0276051
v -13.3592348 14.0097723 -25.9480724
v -13.2382193 14.0974436 -25.6373825
v -13.3440094 14.136054 -25.7176895
v -13.3592348 14.0097723 -25.9480724
v -12.910984 11.9242134 -23.4190083
v -13.0135422 12.1148233 -23.521904
v -12.9161625 12.1237221 -23.5399704
v -12.910984 11.9242134 -23.4190083
v -12.9161625 12.1237221 -23.5399704
v -12.7359476 11.7249079 -23.4267349
v -13.1093855 13.577508 -24.7131691
v -13.057147 13.2172127 -24.5082779
v -13.1231308 13.5273466 -24.4596519
v -13.0508156 13.1970797 -25.720274
v -13.0130806 13.0172434 -25.6145973
v -13.0421944 13.38445 -25.5687695
v -13.0679741 13.7393541 -25.1438065
v -13.0332823 13.3490467 -25.1438065
v -13.124506 13.6927767 -24.9646339
v -13.1231308 13.5273466 -24.4596519
v -13.057147 13.2172127 -24.5082779
v -13.0736904 13.2522898 -24.2477856
v -13.0521469 12.8663139 -24.1669769
v -12.8582792 12.5526533 -24.3776684
v -12.9528646 12.3521938 -24.0657349
v -12.8582792 12.5526533 -24.3776684
v -12.8824568 12.0901098 -24.1760979
v -12.9528646 12.3521938 -24.0657349
v -12.9893017 12.9162903 -24.8135014
v -12.9786491 12.5232573 -25.1438065
v -12.8686724 12.3368845 -24.8351383
v -12.9915314 12.9071827 -25.5963039
v -12.8864326 12.406229 -25.7563229
v -12.975668 12.8171444 -25.5347443
v -12.9897747 12.5558271 -26.3206081
v -12.9464703 12.2129593 -26.273283
v -12.984149 12.7230968 -26.0346451
v -13.0071096 12.843564 -26.2403564
v -12.984149 12.7230968 -26.0346451
v -13.0003405 12.8712082 -26.066227
v -12.7780418 12.0791082 -24.7809696
v -12.8686724 12.3368845 -24.8351383
v -12.9786491 12.5232573 -25.1438065
v -12.5512247 11.7249079 -25.1438084
v -13.2132988 13.8580046 -24.3216553
v -13.2362823 13.968359 -24.5315533
v -13.1093855 13.577508 -24.7131691
v -13.1231308 13.5273466 -24.4596519
v -13.4638615 12.843564 -23.7681141
v -13.4638615 13.0719719 -23.8778305
v -13.1928921 13.0955706 -24.0148277
v -13.0071087 12.843564 -23.9245911
v -13.1263742 13.5215721 -26.1352634
v -13.2446251 13.8768978 -26.0276051
v -13.4638615 14.0323219 -26.0464268
v -13.4638615 13.4718046 -26.356699
v -13.0071087 12.843564 -23.9245911
v -13.1059618 13.4055309 -24.2010975
v -13.0736904 13.2522898 -24.2477856
v -13.0521469 12.8663139 -24.1669769
v -13.1059618 13.4055309 -24.2010975
v -13.2132988 13.8580046 -24.3216553
v -13.1231308 13.5273466 -24.4596519
v -13.0736904 13.2522898 -24.2477856
v -13.057147 13.2172127 -24.5082779
v -13.0236864 12.8988829 -24.5883121
v -13.0521469 12.8663139 -24.1669769
v -13.0736904 13.2522898 -24.2477856
v -13.2362823 13.968359 -24.5315533
v -13.3218479 14.0188723 -24.7379436
v -13.2425299 13.8635807 -24.7559814
v -13.1093855 13.577508 -24.7131691
v -13.0332823 13.3490467 -25.1438065
v -12.9893017 12.9162903 -24.8135014
v -13.1524744 13.3281298 -24.7975197
v -13.124506 13.6927767 -24.9646339
v -13.1127682 13.6002321 -25.2185707
v -13.0679741 13.7393541 -25.1438065
v -13.1449585 14.0823698 -25.2933712
v -13.1376438 13.7861023 -25.4191589
v -13.0130806 13.0172434 -25.6145973
v -13.0162077 13.0587997 -25.4711266
v -13.0613976 13.2993746 -25.4604588
v -13.0421944 13.38445 -25.5687695
v -13.0071096 12.843564 -26.2403564
v -13.0003405 12.8712082 -26.066227
v -13.0446424 13.0998268 -26.090435
v -13.1263742 13.5215721 -26.1352634
v -13.0867577 13.3315048 -26.0315151
v -13.0508156 13.1970797 -25.720274
v -13.1332388 13.6014433 -25.8851376
v -12.9978142 12.881525 -25.9314613
v -13.0446424 13.0998268 -26.090435
v -13.0003405 12.8712082 -26.066227
v -13.0130806 13.0172434 -25.6145973
v -12.9915314 12.9071827 -25.5963039
v -12.8864326 12.406229 -25.7563229
v -13.0162077 13.0587997 -25.4711266
v -12.9899292 12.9137287 -25.5107841
v -12.975668 12.8171444 -25.5347443
v -13.1332388 13.6014433 -25.8851376
v -13.0508156 13.1970797 -25.720274
v -13.0421944 13.38445 -25.5687695
v -13.079608 13.6416283 -25.5164814
v -12.9978142 12.881525 -25.9314613
v -12.984149 12.7230968 -26.0346451
v -12.9464703 12.2129593 -26.273283
v -12.8246355 12.0358982 -25.8736572
v -12.8692627 11.9046755 -26.2197342
v -12.9899292 12.9137287 -25.5107841
v -13.0858555 12.9418221 -25.1438065
v -13.1107712 13.2393227 -25.256958
v -13.0162077 13.0587997 -25.4711266
v -12.9897747 12.5558271 -26.3206081
v -12.9649811 12.1442633 -26.6223755
v -12.9349356 11.9585705 -26.364296
v -12.9464703 12.2129593 -26.273283
v -12.7780418 12.0791082 -24.7809696
v -12.7085962 11.7249079 -24.7192554
v -12.6295691 11.7249079 -24.5753002
v -12.7579803 12.0141573 -24.5339241
v -13.0071087 12.843564 -23.9245911
v -13.0521469 12.8663139 -24.1669769
v -12.9528646 12.3521938 -24.0657349
v -12.9841576 12.5430279 -23.8814926
v -13.1059618 13.4055309 -24.2010975
v -13.0071087 12.843564 -23.9245911
v -13.1928921 13.0955706 -24.0148277
v -13.1958494 13.3290586 -24.0495281
v -13.4638615 13.5415325 -24.0257702
v -13.4638615 13.9558792 -24.1687489
v -13.3739023 13.929635 -24.2327061
v -13.1958494 13.3290586 -24.0495281
v -13.4638615 13.0719719 -23.8778305
v -13.4638615 13.5415325 -24.0257702
v -13.1958494 13.3290586 -24.0495281
v -13.1928921 13.0955706 -24.0148277
v -12.5512247 11.7249079 -25.1438084
v -12.9786491 12.5232573 -25.1438065
v -12.7765694 12.1687326 -25.4632664
v -12.7175264 11.895237 -25.4014053
v -12.7025251 11.7249079 -25.7228317
v -12.8299332 12.3102617 -25.5744114
v -12.8246355 12.0358982 -25.8736572
v -12.7224865 11.7249079 -25.5238876
v -12.7765694 12.1687326 -25.4632664
v -12.7175264 11.895237 -25.4014053
v -12.8864326 12.406229 -25.7563229
v -12.8246355 12.0358982 -25.8736572
v -12.8299332 12.3102617 -25.5744114
v -12.975668 12.8171444 -25.5347443
v -12.9161777 12.5968924 -25.4848137
v -12.9786491 12.5232573 -25.1438065
v -12.9161777 12.5968924 -25.4848137
v -12.8299332 12.3102617 -25.5744114
v -12.7765694 12.1687326 -25.4632664
v -13.0858555 12.9418221 -25.1438065
v -12.9899292 12.9137287 -25.5107841
v -12.975668 12.8171444 -25.5347443
v -12.9161777 12.5968924 -25.4848137
v -13.1107712 13.2393227 -25.256958
v -13.1525679 13.4591875 -25.3256016
v -13.0613976 13.2993746 -25.4604588
v -13.0162077 13.0587997 -25.4711266
v -13.0332823 13.3490467 -25.1438065
v -13.1127682 13.6002321 -25.2185707
v -13.1525679 13.4591875 -25.3256016
v -13.1107712 13.2393227 -25.256958
v -13.1376438 13.7861023 -25.4191589
v -13.079608 13.6416283 -25.5164814
v -13.0421944 13.38445 -25.5687695
v -13.0613976 13.2993746 -25.4604588
v -12.7863226 11.7249079 -26.835741
v -12.9649811 12.1442633 -26.6223755
v -13.1802273 12.0140028 -26.6632175
v -13.028388 11.7249079 -26.8178787
v -13.0071096 12.843564 -26.2403564
v -13.1263742 13.5215721 -26.1352634
v -13.4638615 13.4718046 -26.356699
v -13.4638615 12.843564 -26.4621487
v -13.2382193 14.0974436 -25.6373825
v -13.2446251 13.8768978 -26.0276051
v -13.1332388 13.6014433 -25.8851376
v -13.079608 13.6416283 -25.5164814
v -13.1951742 14.0091076 -24.9728165
v -13.124506 13.6927767 -24.9646339
v -13.1524744 13.3281298 -24.7975197
v -13.2425299 13.8635807 -24.7559814
v -13.1867046 14.0653677 -25.1154041
v -13.0679741 13.7393541 -25.1438065
v -13.124506 13.6927767 -24.9646339
v -13.1951742 14.0091076 -24.9728165
v -13.3257637 12.245904 -23.5030117
v -13.1168652 12.0909023 -23.5863533
v -13.1237583 11.7249079 -23.4537868
v -13.3458872 11.923152 -23.4999104
v -13.3257637 12.245904 -23.5030117
v -13.1860542 12.3555012 -23.6351299
v -12.9838457 12.4574089 -23.7649593
v -13.1168652 12.0909023 -23.5863533
v -13.4638615 12.4834642 -23.5713348
v -13.4638615 12.843564 -23.7681141
v -13.0071087 12.843564 -23.9245911
v -13.1860542 12.3555012 -23.6351299
v -12.8824568 12.0901098 -24.1760979
v -12.8304605 11.8985109 -24.1258888
v -12.7672853 11.7249079 -23.9906082
v -12.890605 11.9642525 -24.0559254
v -12.8824568 12.0901098 -24.1760979
v -12.7991362 12.0083904 -24.3284473
v -12.6815128 11.7249079 -24.17523
v -12.8304605 11.8985109 -24.1258888
v -13.4638615 14.1514788 -24.5274143
v -13.4638615 14.3167629 -24.6793995
v -13.3657312 14.3074293 -24.7196789
v -13.2362823 13.968359 -24.5315533
v -13.2362823 13.968359 -24.5315533
v -13.3657312 14.3074293 -24.7196789
v -13.3650808 14.2957153 -24.7984943
v -13.3218479 14.0188723 -24.7379436
v -13.3218479 14.0188723 -24.7379436
v -13.3650808 14.2957153 -24.7984943
v -13.4638615 14.2919827 -24.8388596
v -13.4638615 14.1869879 -24.8671169
v -13.4638615 14.1869879 -24.8671169
v -13.4638615 14.5426407 -25.0769939
v -13.3501396 14.4717102 -25.1256886
v -13.2664928 14.1478071 -24.9618893
v -13.3501396 14.4717102 -25.1256886
v -13.3649197 14.522151 -25.2600136
v -13.2851515 14.2257366 -25.2929649
v -13.1867046 14.0653677 -25.1154041
v -13.2851515 14.2257366 -25.2929649
v -13.3649197 14.522151 -25.2600136
v -13.4638615 14.5152121 -25.3279457
v -13.4638615 14.2756977 -25.3326263
v -12.7359476 11.7249079 -23.4267349
v -12.9161625 12.1237221 -23.5399704
v -12.9161873 12.1237984 -23.6388626
v -12.7110271 11.7249079 -23.5194988
v -12.7110271 11.7249079 -23.5194988
v -12.9161873 12.1237984 -23.6388626
v -12.9682236 12.0835047 -23.7182674
v -12.7947302 11.7249079 -23.6800518
v -12.6664419 12.0831547 -24.3443565
v -12.8270416 12.3702965 -24.439949
v -12.6719065 12.092927 -24.4482098
v -12.4684772 11.7249079 -24.370554
v -12.4684772 11.7249079 -24.4590416
v -12.567317 11.9059296 -24.2853565
v -13.4638615 14.2092247 -25.6467648
v -13.4638615 14.3179655 -25.6574421
v -13.3837614 14.3203259 -25.6867218
v -13.3440094 14.136054 -25.7176895
v -13.3592348 14.0097723 -25.9480724
v -13.383769 14.3277588 -25.7455235
v -13.4638615 14.332757 -25.774456
v -13.4638615 14.0323219 -26.0464268
v -13.4638615 14.2756977 -25.3326263
v -13.4638615 14.4729404 -25.3667812
v -13.3774633 14.4760237 -25.4015808
v -13.2412586 14.1755552 -25.423851
v -13.2412586 14.1755552 -25.423851
v -13.3774633 14.4760237 -25.4015808
v -13.3774719 14.4852943 -25.4717312
v -13.2382193 14.0974436 -25.6373825
v -13.2382193 14.0974436 -25.6373825
v -13.3774719 14.4852943 -25.4717312
v -13.4638615 14.4858112 -25.5063763
v -13.4638615 14.2092247 -25.6467648
v -13.2384892 11.9594402 -23.0789356
v -13.3308353 12.3508081 -23.3599186
v -13.3257637 12.245904 -23.5030117
v -13.2369251 11.9214087 -23.3477669
v -13.4638615 11.9610596 -22.947361
v -13.4638615 12.3546581 -23.2989407
v -13.3308353 12.3508081 -23.3599186
v -13.2384892 11.9594402 -23.0789356
v -12.7927446 11.7249079 -26.2256718
v -12.8692627 11.9046755 -26.2197342
v -12.7594595 11.9348793 -26.2832508
v -12.6211452 11.7249079 -26.2906208
v -12.7361774 11.9712009 -26.4145393
v -12.9349356 11.9585705 -26.364296
v -12.6867752 11.7249079 -26.6721897
v -12.6385202 11.7249079 -26.6373634
v -13.028388 11.7249079 -26.8178787
v -13.1802273 12.0140028 -26.6632175
v -13.1787939 11.9791479 -26.9095955
v -13.0965252 11.7249079 -26.8842697
v -13.1787939 11.9791479 -26.9095955
v -13.346488 11.9807453 -27.0301285
v -13.346489 11.7249079 -27.2386475
v -13.2109785 11.7249079 -27.140852
v -13.346489 11.7249079 -27.2386475
v -13.346488 11.9807453 -27.0301285
v -13.4638615 11.982192 -26.9794121
v -13.4638615 11.7249079 -27.1780319
v -13.1802273 12.0140028 -26.6632175
v -13.2623262 12.5686646 -26.7128849
v -13.2581215 12.4664421 -26.8531399
v -13.1787939 11.9791479 -26.9095955
v -13.346488 11.9807453 -27.0301285
v -13.346488 12.4711266 -26.9154701
v -13.4638615 12.4753695 -26.9030132
v -13.4638615 11.982192 -26.9794121
v -13.1787939 11.9791479 -26.9095955
v -13.2581215 12.4664421 -26.8531399
v -13.346488 12.4711266 -26.9154701
v -13.346488 11.9807453 -27.0301285
v -13.4638615 13.9558792 -24.1687489
v -13.4638615 14.1531744 -24.3050499
v -13.3978062 14.1336975 -24.324152
v -13.3739023 13.929635 -24.2327061
v -13.3739023 13.929635 -24.2327061
v -13.3978062 14.1336975 -24.324152
v -13.3921661 14.1455059 -24.3844852
v -13.2132988 13.8580046 -24.3216553
v -13.2132988 13.8580046 -24.3216553
v -13.3921661 14.1455059 -24.3844852
v -13.4638615 14.1741171 -24.4719028
v -13.4638615 14.1514788 -24.5274143
v -12.7594595 11.9348793 -26.2832508
v -12.9464703 12.2129593 -26.273283
v -12.7361774 11.9712009 -26.4145393
v -12.6211452 11.7249079 -26.2906208
v -12.5749874 11.7249079 -26.4189053
v -12.7927446 11.7249079 -26.2256718
v -12.8034945 11.7249079 -25.9933949
v -12.8246355 12.0358982 -25.8736572
v -12.8692627 11.9046755 -26.2197342
v -12.567317 11.9059296 -24.2853565
v -12.5588808 11.7249079 -24.2047577
v -12.6815128 11.7249079 -24.17523
v -12.7991362 12.0083904 -24.3284473
v -12.4684772 11.7249079 -24.4590416
v -12.6719065 12.092927 -24.4482098
v -12.7579803 12.0141573 -24.5339241
v -12.6295691 11.7249079 -24.5753002
v -13.3739023 13.929635 -24.2327061
v -13.2132988 13.8580046 -24.3216553
v -13.1059618 13.4055309 -24.2010975
v -13.1958494 13.3290586 -24.0495281
v -13.2384892 11.9594402 -23.0789356
v -13.2369251 11.9214087 -23.3477669
v -13.1433973 11.7249079 -23.1861935
v -13.1435318 11.7249079 -23.0863037
v -13.4638615 11.7249079 -22.8220444
v -13.4638615 11.9610596 -22.947361
v -13.2384892 11.9594402 -23.0789356
v -13.1950636 11.7249079 -22.9891071
v -12.910984 11.9242134 -23.4190083
v -12.9073191 11.7249079 -23.3583755
v -13.1237583 11.7249079 -23.4537868
v -13.1168652 12.0909023 -23.5863533
v -13.0135422 12.1148233 -23.521904
v -13.0236864 12.8988829 -24.5883121
v -13.057147 13.2172127 -24.5082779
v -13.1093855 13.577508 -24.7131691
v -13.1524744 13.3281298 -24.7975197
v -12.8582792 12.5526533 -24.3776684
v -13.0236864 12.8988829 -24.5883121
v -12.8686724 12.3368845 -24.8351383
v -12.8270416 12.3702965 -24.439949
v -12.9682236 12.0835047 -23.7182674
v -12.890605 11.9642525 -24.0559254
v -12.7672853 11.7249079 -23.9906082
v -12.7947302 11.7249079 -23.6800518
v -43.4379158 -0.227671787 11.5816021
v -43.8179092 -0.219100565 9.83477402
v -39.8579178 -0.220526934 8.66452503
v -39.5690231 -0.22482644 9.87638855
v -43.8179092 -0.219100565 9.83477402
v -44.0020905 -0.221783787 8.08449841
v -39.989975 -0.224859476 7.28008032
v -39.8579178 -0.220526934 8.66452503
v -44.0020905 -0.221783787 8.08449841
v -44.1237946 -0.229858741 6.31827116
v -40.0881348 -0.23107633 5.82024384
v -39.989975 -0.224859476 7.28008032
v -44.1237946 -0.229858741 6.31827116
v -44.198307 -0.198919237 4.63397455
v -40.0621948 -0.202901095 4.36313486
v -40.0881348 -0.23107633 5.82024384
v -40.0621948 -0.202901095 4.36313486
v -44.198307 -0.198919237 4.63397455
v -44.3352509 -0.111240022 3.08114386
v -40.0373993 -0.131486177 2.98984861
v -40.0373993 -0.131486177 2.98984861
v -44.3352509 -0.111240022 3.08114386
v -44.3796387 0.0407597274 1.66607952
v -40.0373993 0.0359832793 1.67845106
v -40.0373993 0.0303597152 1.07407427
v -44.3796387 0.0323763788 1.08617544
v -40.0373993 -0.131486177 2.98984861
v -40.0373993 0.0359832793 1.67845106
v -38.295578 0.0251124129 1.69226742
v -40.0373993 0.0303597152 1.07407427
v -38.278862 0.00358973444 1.07149553
v -37.9741249 -0.0314215124 1.07104874
v -44.3796387 0.0323763788 1.08617544
v -44.3796387 -0.045294676 1.04278708
v -40.0373993 -0.0462488681 1.03068542
v -40.0373993 0.0303597152 1.07407427
v -40.0373993 0.0303597152 1.07407427
v -40.0373993 -0.0462488681 1.03068542
v -38.2895851 -0.0736389756 1.02812243
v -38.278862 0.00358973444 1.07149553
v -37.9741249 -0.0314215124 1.07104874
v -37.9741249 -0.109092563 1.02765989
v -44.6257248 0.017348446 1.35866642
v -45.6502113 0.033250913 1.64775991
v -45.8915825 0.0537257195 1.36999321
v -44.3796387 0.0407597274 1.66607952
v -44.3352509 -0.111240022 3.08114386
v -44.3796387 0.0323763788 1.08617544
v -44.7663689 0.0323763788 1.08751059
v -44.7876167 -0.045294676 1.04419518
v -44.3796387 -0.045294676 1.04278708
v -44.3796387 0.0323763788 1.08617544
v -44.7663689 0.0323763788 1.08751059
vt 0.0359802246 0.927734375
vt 0.204223633 0.833007812
vt 0.0252532959 0.858398438
vt 0.204223633 0.833007812
vt 0.034362793 0.778808594
vt 0.0252532959 0.858398438
vt 0.166015625 0.270507812
vt 0.076965332 0.471435547
vt 0.220825195 0.316162109
vt 0.220825195 0.316162109
vt 0.076965332 0.471435547
vt 0.251464844 0.363769531
vt 0.254638672 0.518066406
vt 0.076965332 0.471435547
vt 0.202880859 0.593261719
vt 0.202880859 0.593261719
vt 0.076965332 0.471435547
vt 0.180175781 0.658691406
vt 0.476806641 0.647460938
vt 0.5078125 0.745117188
vt 0.521972656 0.659179688
vt 0.866699219 0.289794922
vt 0.862304688 0.369384766
vt 0.955078125 0.411865234
vt 0.677246094 0.684570312
vt 0.677246094 0.643554688
vt 0.646972656 0.639648438
vt 0.487304688 0.366210938
vt 0.557128906 0.369384766
vt 0.522949219 0.282714844
vt 0.563964844 0.669921875
vt 0.602050781 0.6796875
vt 0.568359375 0.631835938
vt 0.581054688 0.485107422
vt 0.561523438 0.543945312
vt 0.568359375 0.631835938
vt 0.594238281 0.37109375
vt 0.557128906 0.369384766
vt 0.581054688 0.485107422
vt 0.6484375 0.483886719
vt 0.649414062 0.373535156
vt 0.594238281 0.37109375
vt 0.6484375 0.483886719
vt 0.647460938 0.564941406
vt 0.663085938 0.535644531
vt 0.649414062 0.373535156
vt 0.6484375 0.483886719
vt 0.671386719 0.459716797
vt 0.736328125 0.760253906
vt 0.78515625 0.697753906
vt 0.748046875 0.668457031
vt 0.703613281 0.678222656
vt 0.677246094 0.684570312
vt 0.688476562 0.736816406
vt 0.677246094 0.684570312
vt 0.703613281 0.678222656
vt 0.703613281 0.583007812
vt 0.677246094 0.684570312
vt 0.703613281 0.583007812
vt 0.677246094 0.643554688
vt 0.779785156 0.370849609
vt 0.802246094 0.370605469
vt 0.797363281 0.331787109
vt 0.649902344 0.277099609
vt 0.649414062 0.373535156
vt 0.704589844 0.2890625
vt 0.599121094 0.221557617
vt 0.590820312 0.155883789
vt 0.533691406 0.212646484
vt 0.533691406 0.212646484
vt 0.590820312 0.155883789
vt 0.549804688 0.138793945
vt 0.442626953 0.150024414
vt 0.480712891 0.229980469
vt 0.489013672 0.125244141
vt 0.43359375 0.259033203
vt 0.438476562 0.364013672
vt 0.449707031 0.28125
vt 0.43359375 0.259033203
vt 0.480712891 0.229980469
vt 0.442626953 0.150024414
vt 0.438476562 0.364013672
vt 0.43359375 0.259033203
vt 0.393554688 0.239990234
vt 0.594238281 0.37109375
vt 0.649414062 0.373535156
vt 0.649902344 0.277099609
vt 0.557128906 0.369384766
vt 0.594238281 0.37109375
vt 0.599121094 0.221557617
vt 0.685058594 0.51171875
vt 0.703613281 0.583007812
vt 0.710449219 0.481689453
vt 0.663085938 0.535644531
vt 0.703613281 0.583007812
vt 0.685058594 0.51171875
vt 0.748046875 0.668457031
vt 0.723632812 0.561523438
vt 0.703613281 0.583007812
vt 0.779785156 0.370849609
vt 0.763183594 0.146118164
vt 0.747070312 0.24206543
vt 0.873046875 0.176025391
vt 0.879882812 0.0599060059
vt 0.866210938 0.0599060059
vt 0.873046875 0.176025391
vt 0.866210938 0.0599060059
vt 0.831542969 0.124755859
vt 0.955078125 0.411865234
vt 0.957519531 0.366699219
vt 0.931640625 0.302246094
vt 0.819824219 0.65234375
vt 0.833984375 0.55859375
vt 0.794433594 0.576660156
vt 0.602050781 0.6796875
vt 0.612304688 0.622558594
vt 0.568359375 0.631835938
vt 0.677246094 0.643554688
vt 0.647460938 0.564941406
vt 0.646972656 0.639648438
vt 0.590820312 0.155883789
vt 0.651367188 0.0599060059
vt 0.590332031 0.0599060059
vt 0.33984375 0.293457031
vt 0.393554688 0.239990234
vt 0.362060547 0.220214844
vt 0.502441406 0.159301758
vt 0.489013672 0.125244141
vt 0.480712891 0.229980469
vt 0.522949219 0.282714844
vt 0.533691406 0.212646484
vt 0.502441406 0.159301758
vt 0.528808594 0.147949219
vt 0.502441406 0.159301758
vt 0.533691406 0.212646484
vt 0.251464844 0.363769531
vt 0.076965332 0.471435547
vt 0.2578125 0.462646484
vt 0.2578125 0.462646484
vt 0.076965332 0.471435547
vt 0.254638672 0.518066406
vt 0.254638672 0.518066406
vt 0.076965332 0.471435547
vt 0.202880859 0.593261719
vt 0.0359802246 0.927734375
vt 0.204223633 0.833007812
vt 0.0252532959 0.858398438
vt 0.204223633 0.833007812
vt 0.034362793 0.778808594
vt 0.0252532959 0.858398438
vt 0.0359802246 0.927734375
vt 0.204223633 0.833007812
vt 0.0252532959 0.858398438
vt 0.204223633 0.833007812
vt 0.034362793 0.778808594
vt 0.0252532959 0.858398438
vt 0.0359802246 0.927734375
vt 0.204223633 0.833007812
vt 0.0252532959 0.858398438
vt 0.204223633 0.833007812
vt 0.034362793 0.778808594
vt 0.0252532959 0.858398438
vt 0.571289062 0.700195312
vt 0.645507812 0.793457031
vt 0.627441406 0.688964844
vt 0.627441406 0.688964844
vt 0.645507812 0.793457031
vt 0.66015625 0.687011719
vt 0.66015625 0.687011719
vt 0.645507812 0.793457031
vt 0.70703125 0.712402344
vt 0.0359802246 0.927734375
vt 0.204223633 0.833007812
vt 0.0252532959 0.858398438
vt 0.204223633 0.833007812
vt 0.034362793 0.778808594
vt 0.0252532959 0.858398438
vt 0.631347656 0.698242188
vt 0.715332031 0.788574219
vt 0.688476562 0.682617188
vt 0.688476562 0.682617188
vt 0.715332031 0.788574219
vt 0.722167969 0.678222656
vt 0.722167969 0.678222656
vt 0.715332031 0.788574219
vt 0.771972656 0.700195312
vt 0.669921875 0.606933594
vt 0.688476562 0.682617188
vt 0.700195312 0.603027344
vt 0.16015625 0.381591797
vt 0.076965332 0.471435547
vt 0.178466797 0.408935547
vt 0.178466797 0.408935547
vt 0.076965332 0.471435547
vt 0.182617188 0.466308594
vt 0.182617188 0.466308594
vt 0.076965332 0.471435547
vt 0.180664062 0.498779297
vt 0.180664062 0.498779297
vt 0.076965332 0.471435547
vt 0.150146484 0.541992188
vt 0.0359802246 0.927734375
vt 0.204223633 0.833007812
vt 0.0252532959 0.858398438
vt 0.204223633 0.833007812
vt 0.034362793 0.778808594
vt 0.0252532959 0.858398438
vt 0.166015625 0.270507812
vt 0.076965332 0.471435547
vt 0.220825195 0.316162109
vt 0.220825195 0.316162109
vt 0.076965332 0.471435547
vt 0.251464844 0.363769531
vt 0.251464844 0.363769531
vt 0.076965332 0.471435547
vt 0.2578125 0.462646484
vt 0.2578125 0.462646484
vt 0.076965332 0.471435547
vt 0.254638672 0.518066406
vt 0.254638672 0.518066406
vt 0.076965332 0.471435547
vt 0.202880859 0.593261719
vt 0.202880859 0.593261719
vt 0.076965332 0.471435547
vt 0.180175781 0.658691406
vt 0.0359802246 0.927734375
vt 0.204223633 0.833007812
vt 0.0252532959 0.858398438
vt 0.204223633 0.833007812
vt 0.034362793 0.778808594
vt 0.0252532959 0.858398438
vt 0.0359802246 0.927734375
vt 0.204223633 0.833007812
vt 0.0252532959 0.858398438
vt 0.204223633 0.833007812
vt 0.034362793 0.778808594
vt 0.0252532959 0.858398438
vt 0.159179688 0.420654297
vt 0.076965332 0.471435547
vt 0.157958984 0.467529297
vt 0.153808594 0.491699219
vt 0.076965332 0.471435547
vt 0.137329102 0.529785156
vt 0.693359375 0.610839844
vt 0.702636719 0.685546875
vt 0.735351562 0.685058594
vt 0.693359375 0.610839844
vt 0.735351562 0.685058594
vt 0.749023438 0.609863281
vt 0.645507812 0.694335938
vt 0.715820312 0.790527344
vt 0.702636719 0.685546875
vt 0.702636719 0.685546875
vt 0.715820312 0.790527344
vt 0.735351562 0.685058594
vt 0.735351562 0.685058594
vt 0.715820312 0.790527344
vt 0.780761719 0.711914062
vt 0.427978516 0.661621094
vt 0.482177734 0.767578125
vt 0.485351562 0.662109375
vt 0.485351562 0.662109375
vt 0.482177734 0.767578125
vt 0.517578125 0.666503906
vt 0.517578125 0.666503906
vt 0.482177734 0.767578125
vt 0.55859375 0.700195312
vt 0.147705078 0.428222656
vt 0.076965332 0.471435547
vt 0.154052734 0.469238281
vt 0.154052734 0.469238281
vt 0.076965332 0.471435547
vt 0.154541016 0.498779297
vt 0.154541016 0.498779297
vt 0.076965332 0.471435547
vt 0.110778809 0.506835938
vt 0.147705078 0.428222656
vt 0.076965332 0.471435547
vt 0.154052734 0.469238281
vt 0.154052734 0.469238281
vt 0.076965332 0.471435547
vt 0.154541016 0.498779297
vt 0.154541016 0.498779297
vt 0.076965332 0.471435547
vt 0.139526367 0.537109375
vt 0.139526367 0.537109375
vt 0.076965332 0.471435547
vt 0.118652344 0.545410156
vt 0.675292969 0.0599060059
vt 0.651367188 0.0599060059
vt 0.687988281 0.104064941
vt 0.165771484 0.494873047
vt 0.076965332 0.471435547
vt 0.138549805 0.530761719
vt 0.190795898 0.401367188
vt 0.076965332 0.471435547
vt 0.180908203 0.466308594
vt 0.280273438 0.525878906
vt 0.252685547 0.515625
vt 0.206176758 0.598632812
vt 0.159179688 0.420654297
vt 0.157958984 0.467529297
vt 0.208007812 0.465087891
vt 0.252685547 0.515625
vt 0.154541016 0.498779297
vt 0.206176758 0.598632812
vt 0.873046875 0.176025391
vt 0.866699219 0.289794922
vt 0.912109375 0.171386719
vt 0.866699219 0.289794922
vt 0.955078125 0.411865234
vt 0.931640625 0.302246094
vt 0.866699219 0.289794922
vt 0.931640625 0.302246094
vt 0.912109375 0.171386719
vt 0.45703125 0.696289062
vt 0.515136719 0.783203125
vt 0.507324219 0.690917969
vt 0.507324219 0.690917969
vt 0.515136719 0.783203125
vt 0.534667969 0.695800781
vt 0.534667969 0.695800781
vt 0.515136719 0.783203125
vt 0.569824219 0.722167969
vt 0.602050781 0.6796875
vt 0.646972656 0.639648438
vt 0.612304688 0.622558594
vt 0.703613281 0.678222656
vt 0.748046875 0.668457031
vt 0.703613281 0.583007812
vt 0.602050781 0.6796875
vt 0.563964844 0.669921875
vt 0.5703125 0.729980469
vt 0.859375 0.731933594
vt 0.819824219 0.65234375
vt 0.82421875 0.698242188
vt 0.748046875 0.668457031
vt 0.78515625 0.697753906
vt 0.82421875 0.698242188
vt 0.214599609 0.38671875
vt 0.178466797 0.408935547
vt 0.182617188 0.466308594
vt 0.214599609 0.38671875
vt 0.182617188 0.466308594
vt 0.2578125 0.462646484
vt 0.561523438 0.543945312
vt 0.53125 0.461669922
vt 0.493652344 0.552246094
vt 0.75390625 0.457519531
vt 0.730957031 0.404052734
vt 0.730957031 0.507324219
vt 0.647460938 0.564941406
vt 0.6484375 0.483886719
vt 0.611328125 0.552734375
vt 0.493652344 0.552246094
vt 0.53125 0.461669922
vt 0.48046875 0.475830078
vt 0.487304688 0.366210938
vt 0.522949219 0.282714844
vt 0.480712891 0.229980469
vt 0.522949219 0.282714844
vt 0.502441406 0.159301758
vt 0.480712891 0.229980469
vt 0.594238281 0.37109375
vt 0.649902344 0.277099609
vt 0.599121094 0.221557617
vt 0.724121094 0.372070312
vt 0.747070312 0.24206543
vt 0.714355469 0.347900391
vt 0.866699219 0.289794922
vt 0.824707031 0.195068359
vt 0.797363281 0.331787109
vt 0.862304688 0.369384766
vt 0.797363281 0.331787109
vt 0.802246094 0.370605469
vt 0.590820312 0.155883789
vt 0.599121094 0.221557617
vt 0.649902344 0.277099609
vt 0.651367188 0.0599060059
vt 0.476806641 0.647460938
vt 0.521972656 0.659179688
vt 0.561523438 0.543945312
vt 0.493652344 0.552246094
vt 0.344482422 0.404052734
vt 0.361816406 0.465820312
vt 0.418945312 0.446777344
vt 0.438476562 0.364013672
vt 0.833984375 0.55859375
vt 0.819824219 0.65234375
vt 0.859375 0.731933594
vt 0.904296875 0.581054688
vt 0.438476562 0.364013672
vt 0.459716797 0.520996094
vt 0.48046875 0.475830078
vt 0.487304688 0.366210938
vt 0.459716797 0.520996094
vt 0.476806641 0.647460938
vt 0.493652344 0.552246094
vt 0.48046875 0.475830078
vt 0.53125 0.461669922
vt 0.557128906 0.369384766
vt 0.487304688 0.366210938
vt 0.48046875 0.475830078
vt 0.521972656 0.659179688
vt 0.563964844 0.669921875
vt 0.568359375 0.631835938
vt 0.561523438 0.543945312
vt 0.6484375 0.483886719
vt 0.594238281 0.37109375
vt 0.581054688 0.485107422
vt 0.611328125 0.552734375
vt 0.663085938 0.535644531
vt 0.647460938 0.564941406
vt 0.677246094 0.643554688
vt 0.703613281 0.583007812
vt 0.730957031 0.404052734
vt 0.708007812 0.413330078
vt 0.710449219 0.481689453
vt 0.730957031 0.507324219
vt 0.862304688 0.369384766
vt 0.802246094 0.370605469
vt 0.813476562 0.436523438
vt 0.833984375 0.55859375
vt 0.810546875 0.501953125
vt 0.75390625 0.457519531
vt 0.794433594 0.576660156
vt 0.779785156 0.370849609
vt 0.813476562 0.436523438
vt 0.802246094 0.370605469
vt 0.730957031 0.404052734
vt 0.724121094 0.372070312
vt 0.747070312 0.24206543
vt 0.708007812 0.413330078
vt 0.709960938 0.372314453
vt 0.714355469 0.347900391
vt 0.794433594 0.576660156
vt 0.75390625 0.457519531
vt 0.730957031 0.507324219
vt 0.723632812 0.561523438
vt 0.779785156 0.370849609
vt 0.797363281 0.331787109
vt 0.824707031 0.195068359
vt 0.763183594 0.146118164
vt 0.811035156 0.109863281
vt 0.709960938 0.372314453
vt 0.649414062 0.373535156
vt 0.671386719 0.459716797
vt 0.708007812 0.413330078
vt 0.866699219 0.289794922
vt 0.873046875 0.176025391
vt 0.831542969 0.124755859
vt 0.824707031 0.195068359
vt 0.590820312 0.155883789
vt 0.590332031 0.0599060059
vt 0.560058594 0.0599060059
vt 0.549804688 0.138793945
vt 0.438476562 0.364013672
vt 0.487304688 0.366210938
vt 0.480712891 0.229980469
vt 0.449707031 0.28125
vt 0.459716797 0.520996094
vt 0.438476562 0.364013672
vt 0.418945312 0.446777344
vt 0.435546875 0.508789062
vt 0.397705078 0.592773438
vt 0.435058594 0.725585938
vt 0.452636719 0.692871094
vt 0.435546875 0.508789062
vt 0.361816406 0.465820312
vt 0.397705078 0.592773438
vt 0.435546875 0.508789062
vt 0.418945312 0.446777344
vt 0.651367188 0.0599060059
vt 0.649902344 0.277099609
vt 0.698730469 0.176269531
vt 0.687988281 0.104064941
vt 0.734375 0.0599060059
vt 0.717285156 0.21472168
vt 0.763183594 0.146118164
vt 0.705566406 0.0599060059
vt 0.698730469 0.176269531
vt 0.687988281 0.104064941
vt 0.747070312 0.24206543
vt 0.763183594 0.146118164
vt 0.717285156 0.21472168
vt 0.714355469 0.347900391
vt 0.704589844 0.2890625
vt 0.649902344 0.277099609
vt 0.704589844 0.2890625
vt 0.717285156 0.21472168
vt 0.698730469 0.176269531
vt 0.649414062 0.373535156
vt 0.709960938 0.372314453
vt 0.714355469 0.347900391
vt 0.704589844 0.2890625
vt 0.671386719 0.459716797
vt 0.685058594 0.51171875
vt 0.710449219 0.481689453
vt 0.708007812 0.413330078
vt 0.6484375 0.483886719
vt 0.663085938 0.535644531
vt 0.685058594 0.51171875
vt 0.671386719 0.459716797
vt 0.703613281 0.583007812
vt 0.723632812 0.561523438
vt 0.730957031 0.507324219
vt 0.710449219 0.481689453
vt 0.879882812 0.0599060059
vt 0.873046875 0.176025391
vt 0.912109375 0.171386719
vt 0.907226562 0.0599060059
vt 0.862304688 0.369384766
vt 0.833984375 0.55859375
vt 0.904296875 0.581054688
vt 0.955078125 0.411865234
vt 0.748046875 0.668457031
vt 0.819824219 0.65234375
vt 0.794433594 0.576660156
vt 0.723632812 0.561523438
vt 0.612304688 0.622558594
vt 0.611328125 0.552734375
vt 0.581054688 0.485107422
vt 0.568359375 0.631835938
vt 0.646972656 0.639648438
vt 0.647460938 0.564941406
vt 0.611328125 0.552734375
vt 0.612304688 0.622558594
vt 0.362060547 0.220214844
vt 0.403808594 0.163696289
vt 0.402587891 0.0599060059
vt 0.365234375 0.14074707
vt 0.362060547 0.220214844
vt 0.393554688 0.239990234
vt 0.43359375 0.259033203
vt 0.403808594 0.163696289
vt 0.33984375 0.293457031
vt 0.344482422 0.404052734
vt 0.438476562 0.364013672
vt 0.393554688 0.239990234
vt 0.502441406 0.159301758
vt 0.499023438 0.109680176
vt 0.486083984 0.0599060059
vt 0.489013672 0.125244141
vt 0.502441406 0.159301758
vt 0.528808594 0.147949219
vt 0.512695312 0.0599060059
vt 0.499023438 0.109680176
vt 0.517578125 0.633300781
vt 0.571289062 0.700195312
vt 0.627441406 0.688964844
vt 0.614746094 0.614746094
vt 0.614746094 0.614746094
vt 0.627441406 0.688964844
vt 0.66015625 0.687011719
vt 0.670410156 0.611328125
vt 0.670410156 0.611328125
vt 0.66015625 0.687011719
vt 0.70703125 0.712402344
vt 0.751464844 0.653808594
vt 0.571289062 0.633300781
vt 0.631347656 0.698242188
vt 0.688476562 0.682617188
vt 0.669921875 0.606933594
vt 0.688476562 0.682617188
vt 0.722167969 0.678222656
vt 0.727050781 0.599121094
vt 0.700195312 0.603027344
vt 0.727050781 0.599121094
vt 0.722167969 0.678222656
vt 0.771972656 0.700195312
vt 0.812988281 0.63671875
vt 0.2578125 0.462646484
vt 0.182617188 0.466308594
vt 0.180664062 0.498779297
vt 0.254638672 0.518066406
vt 0.254638672 0.518066406
vt 0.180664062 0.498779297
vt 0.150146484 0.541992188
vt 0.202880859 0.593261719
vt 0.157958984 0.467529297
vt 0.076965332 0.471435547
vt 0.153808594 0.491699219
vt 0.255859375 0.497070312
vt 0.254638672 0.518066406
vt 0.208007812 0.465087891
vt 0.595214844 0.625
vt 0.645507812 0.694335938
vt 0.702636719 0.685546875
vt 0.693359375 0.610839844
vt 0.749023438 0.609863281
vt 0.735351562 0.685058594
vt 0.780761719 0.711914062
vt 0.827636719 0.655761719
vt 0.388916016 0.584960938
vt 0.427978516 0.661621094
vt 0.485351562 0.662109375
vt 0.487792969 0.586914062
vt 0.487792969 0.586914062
vt 0.485351562 0.662109375
vt 0.517578125 0.666503906
vt 0.54296875 0.594238281
vt 0.54296875 0.594238281
vt 0.517578125 0.666503906
vt 0.55859375 0.700195312
vt 0.613769531 0.651855469
vt 0.255615234 0.459716797
vt 0.154052734 0.469238281
vt 0.154541016 0.498779297
vt 0.252685547 0.515625
vt 0.251464844 0.368164062
vt 0.147705078 0.428222656
vt 0.154052734 0.469238281
vt 0.255615234 0.459716797
vt 0.251464844 0.363769531
vt 0.190795898 0.401367188
vt 0.180908203 0.466308594
vt 0.2578125 0.462646484
vt 0.165771484 0.494873047
vt 0.138549805 0.530761719
vt 0.202880859 0.593261719
vt 0.218383789 0.570800781
vt 0.290039062 0.43359375
vt 0.255615234 0.459716797
vt 0.252685547 0.515625
vt 0.28515625 0.481445312
vt 0.252685547 0.515625
vt 0.204223633 0.596679688
vt 0.237670898 0.630859375
vt 0.260742188 0.573730469
vt 0.237670898 0.630859375
vt 0.204223633 0.596679688
vt 0.17980957 0.661132812
vt 0.182006836 0.717285156
vt 0.255615234 0.459716797
vt 0.154052734 0.469238281
vt 0.154541016 0.498779297
vt 0.252685547 0.515625
vt 0.204223633 0.596679688
vt 0.139526367 0.537109375
vt 0.118652344 0.545410156
vt 0.17980957 0.661132812
vt 0.252685547 0.515625
vt 0.154541016 0.498779297
vt 0.139526367 0.537109375
vt 0.204223633 0.596679688
vt 0.401123047 0.612304688
vt 0.45703125 0.696289062
vt 0.507324219 0.690917969
vt 0.499511719 0.602539062
vt 0.499511719 0.602539062
vt 0.507324219 0.690917969
vt 0.534667969 0.695800781
vt 0.555175781 0.603515625
vt 0.555175781 0.603515625
vt 0.534667969 0.695800781
vt 0.569824219 0.722167969
vt 0.631835938 0.65234375
vt 0.180908203 0.466308594
vt 0.076965332 0.471435547
vt 0.165771484 0.494873047
vt 0.2578125 0.462646484
vt 0.256347656 0.489501953
vt 0.811035156 0.0599060059
vt 0.772949219 0.0599060059
vt 0.763183594 0.146118164
vt 0.811035156 0.109863281
vt 0.208007812 0.465087891
vt 0.255126953 0.420654297
vt 0.251464844 0.363769531
vt 0.159179688 0.420654297
vt 0.254638672 0.518066406
vt 0.153808594 0.491699219
vt 0.137329102 0.529785156
vt 0.202880859 0.593261719
vt 0.452636719 0.692871094
vt 0.476806641 0.647460938
vt 0.459716797 0.520996094
vt 0.435546875 0.508789062
vt 0.255615234 0.459716797
vt 0.252685547 0.515625
vt 0.286376953 0.46875
vt 0.288574219 0.447998047
vt 0.280517578 0.358154297
vt 0.251464844 0.368164062
vt 0.255615234 0.459716797
vt 0.288574219 0.422363281
vt 0.214599609 0.38671875
vt 0.241699219 0.348632812
vt 0.220825195 0.316162109
vt 0.16015625 0.381591797
vt 0.178466797 0.408935547
vt 0.557128906 0.369384766
vt 0.53125 0.461669922
vt 0.561523438 0.543945312
vt 0.581054688 0.485107422
vt 0.522949219 0.282714844
vt 0.557128906 0.369384766
vt 0.599121094 0.221557617
vt 0.533691406 0.212646484
vt 0.442626953 0.150024414
vt 0.489013672 0.125244141
vt 0.486083984 0.0599060059
vt 0.449951172 0.0599060059
vt 0.638671875 0.113342285
vt 0.521972656 0.113342285
vt 0.521972656 0.40234375
vt 0.638671875 0.40234375
vt 0.638671875 0.113342285
vt 0.521972656 0.113342285
vt 0.521972656 0.40234375
vt 0.638671875 0.40234375
vt 0.638671875 0.113342285
vt 0.521972656 0.113342285
vt 0.521972656 0.40234375
vt 0.638671875 0.40234375
vt 0.638671875 0.113342285
vt 0.521972656 0.113342285
vt 0.521972656 0.40234375
vt 0.638671875 0.40234375
vt 0.638671875 0.40234375
vt 0.638671875 0.113342285
vt 0.521972656 0.113342285
vt 0.521972656 0.40234375
vt 0.638671875 0.40234375
vt 0.638671875 0.113342285
vt 0.557617188 0.113342285
vt 0.557617188 0.40234375
vt 0.521972656 0.40234375
vt 0.521972656 0.113342285
vt 0.638671875 0.113342285
vt 0.557617188 0.113342285
vt 0.557617188 0.229125977
vt 0.521972656 0.113342285
vt 0.521972656 0.23059082
vt 0.521972656 0.250976562
vt 0.604003906 0.113220215
vt 0.598144531 0.113220215
vt 0.598144531 0.40234375
vt 0.604003906 0.40234375
vt 0.604003906 0.113342285
vt 0.598144531 0.113342285
vt 0.598144531 0.229736328
vt 0.604003906 0.23034668
vt 0.604003906 0.250732422
vt 0.598144531 0.250732422
vt 0.540039062 0.386230469
vt 0.558105469 0.317382812
vt 0.540039062 0.301025391
vt 0.558105469 0.402832031
vt 0.639160156 0.402832031
vt 0.521972656 0.402832031
vt 0.521972656 0.376708984
vt 0.598144531 0.375
vt 0.598144531 0.40234375
vt 0.604003906 0.40234375
vt 0.604003906 0.376464844
vn -0.466552734 0.249511719 0.848632812
vn -0.466552734 0.249511719 0.848632812
vn -0.466552734 0.249511719 0.848632812
vn 0.62890625 0.572753906 -0.526367188
vn 0.62890625 0.572753906 -0.526367188
vn 0.62890625 0.572753906 -0.526367188
vn 0.477294922 0.705566406 -0.5234375
vn 0.477294922 0.705566406 -0.5234375
vn 0.477294922 0.705566406 -0.5234375
vn -0.483886719 0.285644531 -0.827148438
vn -0.483886719 0.285644531 -0.827148438
vn -0.483886719 0.285644531 -0.827148438
vn 0.228393555 0.49609375 0.837890625
vn 0.228393555 0.49609375 0.837890625
vn 0.228393555 0.49609375 0.837890625
vn 0.706054688 0.705078125 0.0679931641
vn 0.706054688 0.705078125 0.0679931641
vn 0.706054688 0.705078125 0.0679931641
vn 0.597167969 0.734863281 0.321044922
vn 0.597167969 0.734863281 0.321044922
vn 0.597167969 0.734863281 0.321044922
vn 0.420898438 0.267089844 -0.866699219
vn 0.420898438 0.267089844 -0.866699219
vn 0.420898438 0.267089844 -0.866699219
vn 0.696289062 0.680175781 0.228393555
vn 0.696289062 0.680175781 0.228393555
vn 0.696289062 0.680175781 0.228393555
vn 0.874023438 0.476074219 0.0958251953
vn 0.874023438 0.476074219 0.0958251953
vn 0.874023438 0.476074219 0.0958251953
vn 0.827148438 0.373779297 0.419677734
vn 0.827148438 0.373779297 0.419677734
vn 0.827148438 0.373779297 0.419677734
vn 0.599121094 0.161621094 -0.784179688
vn 0.599121094 0.161621094 -0.784179688
vn 0.599121094 0.161621094 -0.784179688
vn 0.918945312 0.357421875 0.16796875
vn 0.918945312 0.357421875 0.16796875
vn 0.918945312 0.357421875 0.16796875
vn 0.950195312 -0.122619629 -0.287109375
vn 0.950195312 -0.122619629 -0.287109375
vn 0.950195312 -0.122619629 -0.287109375
vn 0.792480469 0.0704345703 -0.605957031
vn 0.792480469 0.0704345703 -0.605957031
vn 0.792480469 0.0704345703 -0.605957031
vn 0.8671875 -0.111938477 -0.485351562
vn 0.8671875 -0.111938477 -0.485351562
vn 0.8671875 -0.111938477 -0.485351562
vn 0.443603516 0.881835938 -0.16027832
vn 0.443603516 0.881835938 -0.16027832
vn 0.443603516 0.881835938 -0.16027832
vn 0.311279297 0.917480469 -0.247314453
vn 0.311279297 0.917480469 -0.247314453
vn 0.311279297 0.917480469 -0.247314453
vn 0.852050781 0.386962891 -0.352539062
vn 0.852050781 0.386962891 -0.352539062
vn 0.852050781 0.386962891 -0.352539062
vn 0.852050781 0.386962891 -0.352539062
vn 0.852050781 0.386962891 -0.352539062
vn 0.852050781 0.386962891 -0.352539062
vn 0.994140625 0.103027344 -0.0265197754
vn 0.994140625 0.103027344 -0.0265197754
vn 0.994140625 0.103027344 -0.0265197754
vn 0.943847656 0.241699219 0.225097656
vn 0.943847656 0.241699219 0.225097656
vn 0.943847656 0.241699219 0.225097656
vn 0.943847656 0.305419922 -0.125244141
vn 0.943847656 0.305419922 -0.125244141
vn 0.943847656 0.305419922 -0.125244141
vn 0.979980469 0.197387695 -0.0276947021
vn 0.979980469 0.197387695 -0.0276947021
vn 0.979980469 0.197387695 -0.0276947021
vn 0.97265625 0.160400391 0.166992188
vn 0.97265625 0.160400391 0.166992188
vn 0.97265625 0.160400391 0.166992188
vn 0.994628906 0.0844726562 0.0594177246
vn 0.994628906 0.0844726562 0.0594177246
vn 0.994628906 0.0844726562 0.0594177246
vn 0.994628906 0.0630493164 0.0803833008
vn 0.994628906 0.0630493164 0.0803833008
vn 0.994628906 0.0630493164 0.0803833008
vn 0.359619141 0.375 0.854492188
vn 0.359619141 0.375 0.854492188
vn 0.359619141 0.375 0.854492188
vn 0.936523438 0.239868164 -0.255371094
vn 0.936523438 0.239868164 -0.255371094
vn 0.936523438 0.239868164 -0.255371094
vn 0.967285156 0.1953125 0.162719727
vn 0.967285156 0.1953125 0.162719727
vn 0.967285156 0.1953125 0.162719727
vn 0.874023438 0.0964355469 0.4765625
vn 0.874023438 0.0964355469 0.4765625
vn 0.874023438 0.0964355469 0.4765625
vn 0.969726562 -0.107055664 -0.219482422
vn 0.969726562 -0.107055664 -0.219482422
vn 0.969726562 -0.107055664 -0.219482422
vn 0.938476562 0.340820312 0.0537109375
vn 0.938476562 0.340820312 0.0537109375
vn 0.938476562 0.340820312 0.0537109375
vn 0.9765625 0.193359375 -0.0961303711
vn 0.9765625 0.193359375 -0.0961303711
vn 0.9765625 0.193359375 -0.0961303711
vn 0.921386719 0.373535156 0.105407715
vn 0.921386719 0.373535156 0.105407715
vn 0.921386719 0.373535156 0.105407715
vn 0.921386719 0.373535156 0.105407715
vn 0.921386719 0.373535156 0.105407715
vn 0.921386719 0.373535156 0.105407715
vn -0.300292969 0.513183594 -0.804199219
vn -0.300292969 0.513183594 -0.804199219
vn -0.300292969 0.513183594 -0.804199219
vn 0.937988281 0.336914062 -0.0818481445
vn 0.937988281 0.336914062 -0.0818481445
vn 0.937988281 0.336914062 -0.0818481445
vn 0.813964844 0.384277344 0.435546875
vn 0.813964844 0.384277344 0.435546875
vn 0.813964844 0.384277344 0.435546875
vn 0.917480469 0.312744141 0.245117188
vn 0.917480469 0.312744141 0.245117188
vn 0.917480469 0.312744141 0.245117188
vn 0.910644531 0.237426758 0.337646484
vn 0.910644531 0.237426758 0.337646484
vn 0.910644531 0.237426758 0.337646484
vn 0.394042969 0.458251953 0.796875
vn 0.394042969 0.458251953 0.796875
vn 0.394042969 0.458251953 0.796875
vn 0.959472656 0.159790039 0.232421875
vn 0.959472656 0.159790039 0.232421875
vn 0.959472656 0.159790039 0.232421875
vn 0.958496094 0.0700683594 0.275634766
vn 0.958496094 0.0700683594 0.275634766
vn 0.958496094 0.0700683594 0.275634766
vn 0.900878906 0.189819336 0.390869141
vn 0.900878906 0.189819336 0.390869141
vn 0.900878906 0.189819336 0.390869141
vn 0.110046387 0.662109375 0.741210938
vn 0.110046387 0.662109375 0.741210938
vn 0.110046387 0.662109375 0.741210938
vn 0.602050781 0.774414062 0.194580078
vn 0.602050781 0.774414062 0.194580078
vn 0.602050781 0.774414062 0.194580078
vn 0.578125 0.619628906 -0.530761719
vn 0.578125 0.619628906 -0.530761719
vn 0.578125 0.619628906 -0.530761719
vn -0.597167969 0.188110352 0.779785156
vn -0.597167969 0.188110352 0.779785156
vn -0.597167969 0.188110352 0.779785156
vn 0.864746094 0.361083984 -0.349609375
vn 0.864746094 0.361083984 -0.349609375
vn 0.864746094 0.361083984 -0.349609375
vn -0.138305664 0.397460938 0.907226562
vn -0.138305664 0.397460938 0.907226562
vn -0.138305664 0.397460938 0.907226562
vn 0.554199219 0.582519531 -0.594726562
vn 0.554199219 0.582519531 -0.594726562
vn 0.554199219 0.582519531 -0.594726562
vn -0.285644531 0.522460938 0.803710938
vn -0.285644531 0.522460938 0.803710938
vn -0.285644531 0.522460938 0.803710938
vn 0.512695312 0.611328125 -0.603027344
vn 0.512695312 0.611328125 -0.603027344
vn 0.512695312 0.611328125 -0.603027344
vn 0.373291016 0.468261719 0.80078125
vn 0.373291016 0.468261719 0.80078125
vn 0.373291016 0.468261719 0.80078125
vn 0.935058594 0.351074219 -0.0444641113
vn 0.935058594 0.351074219 -0.0444641113
vn 0.935058594 0.351074219 -0.0444641113
vn 0.375244141 0.0681152344 -0.924316406
vn 0.375244141 0.0681152344 -0.924316406
vn 0.375244141 0.0681152344 -0.924316406
vn 0.918457031 0.3203125 0.232055664
vn 0.918457031 0.3203125 0.232055664
vn 0.918457031 0.3203125 0.232055664
vn -0.450439453 0.631347656 -0.631347656
vn -0.450439453 0.631347656 -0.631347656
vn -0.450439453 0.631347656 -0.631347656
vn 0.544433594 0.349609375 0.762207031
vn 0.544433594 0.349609375 0.762207031
vn 0.544433594 0.349609375 0.762207031
vn 0.970703125 0.239135742 -0.0170135498
vn 0.970703125 0.239135742 -0.0170135498
vn 0.970703125 0.239135742 -0.0170135498
vn 0.552246094 0.151977539 -0.819824219
vn 0.552246094 0.151977539 -0.819824219
vn 0.552246094 0.151977539 -0.819824219
vn 0.891601562 0.365478516 0.267333984
vn 0.891601562 0.365478516 0.267333984
vn 0.891601562 0.365478516 0.267333984
vn -0.535644531 0.519042969 0.666015625
vn -0.535644531 0.519042969 0.666015625
vn -0.535644531 0.519042969 0.666015625
vn 0.0992431641 0.569824219 0.815429688
vn 0.0992431641 0.569824219 0.815429688
vn 0.0992431641 0.569824219 0.815429688
vn 0.979980469 0.198730469 -8.36849213E-05
vn 0.979980469 0.198730469 -8.36849213E-05
vn 0.979980469 0.198730469 -8.36849213E-05
vn 0.843261719 -0.0317687988 -0.536621094
vn 0.843261719 -0.0317687988 -0.536621094
vn 0.843261719 -0.0317687988 -0.536621094
vn 0.65234375 0.415771484 0.633789062
vn 0.65234375 0.415771484 0.633789062
vn 0.65234375 0.415771484 0.633789062
vn -0.253173828 0.591796875 -0.765136719
vn -0.253173828 0.591796875 -0.765136719
vn -0.253173828 0.591796875 -0.765136719
vn -0.971679688 0.236083984 -5.96046448E-08
vn -0.971679688 0.236083984 -5.96046448E-08
vn -0.971679688 0.236083984 -5.96046448E-08
vn -0.518066406 0.464599609 0.718261719
vn -0.518066406 0.464599609 0.718261719
vn -0.518066406 0.464599609 0.718261719
vn 0.459472656 0.619628906 0.63671875
vn 0.459472656 0.619628906 0.63671875
vn 0.459472656 0.619628906 0.63671875
vn 0.821289062 0.570800781 -1.1920929E-07
vn 0.821289062 0.570800781 -1.1920929E-07
vn 0.821289062 0.570800781 -1.1920929E-07
vn 0.5078125 0.497314453 -0.703613281
vn 0.5078125 0.497314453 -0.703613281
vn 0.5078125 0.497314453 -0.703613281
vn -0.559082031 0.294921875 -0.774902344
vn -0.559082031 0.294921875 -0.774902344
vn -0.559082031 0.294921875 -0.774902344
vn 0.837890625 0.399414062 0.372070312
vn 0.837890625 0.399414062 0.372070312
vn 0.837890625 0.399414062 0.372070312
vn -0.429443359 0.675292969 -0.599609375
vn -0.429443359 0.675292969 -0.599609375
vn -0.429443359 0.675292969 -0.599609375
vn 0.563476562 0.598632812 0.569824219
vn 0.563476562 0.598632812 0.569824219
vn 0.563476562 0.598632812 0.569824219
vn -0.113037109 0.58203125 -0.805175781
vn -0.113037109 0.58203125 -0.805175781
vn -0.113037109 0.58203125 -0.805175781
vn -0.0491638184 0.290527344 0.955566406
vn -0.0491638184 0.290527344 0.955566406
vn -0.0491638184 0.290527344 0.955566406
vn 0.512695312 0.310546875 -0.800292969
vn 0.512695312 0.310546875 -0.800292969
vn 0.512695312 0.310546875 -0.800292969
vn 0.974609375 0.18371582 -0.126831055
vn 0.974609375 0.18371582 -0.126831055
vn 0.974609375 0.18371582 -0.126831055
vn 0.974609375 0.18371582 -0.126831055
vn 0.974609375 0.18371582 -0.126831055
vn 0.974609375 0.18371582 -0.126831055
vn 0.336425781 0.138671875 0.931640625
vn 0.336425781 0.138671875 0.931640625
vn 0.336425781 0.138671875 0.931640625
vn 0.935546875 0.350341797 0.0441589355
vn 0.935546875 0.350341797 0.0441589355
vn 0.935546875 0.350341797 0.0441589355
vn 0.336425781 0.364746094 -0.868164062
vn 0.336425781 0.364746094 -0.868164062
vn 0.336425781 0.364746094 -0.868164062
vn 0.360595703 0.193237305 0.912597656
vn 0.360595703 0.193237305 0.912597656
vn 0.360595703 0.193237305 0.912597656
vn 0.952636719 0.301757812 0.0397644043
vn 0.952636719 0.301757812 0.0397644043
vn 0.952636719 0.301757812 0.0397644043
vn 0.359863281 0.270263672 -0.893066406
vn 0.359863281 0.270263672 -0.893066406
vn 0.359863281 0.270263672 -0.893066406
vn 0.387451172 0.424560547 0.818359375
vn 0.387451172 0.424560547 0.818359375
vn 0.387451172 0.424560547 0.818359375
vn 0.973632812 0.19934082 -0.111633301
vn 0.973632812 0.19934082 -0.111633301
vn 0.973632812 0.19934082 -0.111633301
vn 0.440673828 -0.0020866394 -0.897949219
vn 0.440673828 -0.0020866394 -0.897949219
vn 0.440673828 -0.0020866394 -0.897949219
vn 0.360839844 0.121398926 0.924804688
vn 0.360839844 0.121398926 0.924804688
vn 0.360839844 0.121398926 0.924804688
vn 0.828125 0.464355469 -0.313476562
vn 0.828125 0.464355469 -0.313476562
vn 0.828125 0.464355469 -0.313476562
vn 0.524414062 0.472900391 -0.708007812
vn 0.524414062 0.472900391 -0.708007812
vn 0.524414062 0.472900391 -0.708007812
vn -0.0808105469 0.419189453 -0.904296875
vn -0.0808105469 0.419189453 -0.904296875
vn -0.0808105469 0.419189453 -0.904296875
vn 0.880371094 0.259521484 -0.396728516
vn 0.880371094 0.259521484 -0.396728516
vn 0.880371094 0.259521484 -0.396728516
vn -0.251464844 0.315917969 -0.915039062
vn -0.251464844 0.315917969 -0.915039062
vn -0.251464844 0.315917969 -0.915039062
vn 0.4296875 0.2578125 0.865234375
vn 0.4296875 0.2578125 0.865234375
vn 0.4296875 0.2578125 0.865234375
vn 0.644042969 0.615722656 -0.454101562
vn 0.644042969 0.615722656 -0.454101562
vn 0.644042969 0.615722656 -0.454101562
vn 0.0612487793 0.423095703 0.903808594
vn 0.0612487793 0.423095703 0.903808594
vn 0.0612487793 0.423095703 0.903808594
vn 0.811523438 -0.0561828613 -0.581542969
vn 0.811523438 -0.0561828613 -0.581542969
vn 0.811523438 -0.0561828613 -0.581542969
vn -0.19519043 0.572265625 -0.796386719
vn -0.19519043 0.572265625 -0.796386719
vn -0.19519043 0.572265625 -0.796386719
vn 0.560058594 0.743652344 -0.364990234
vn 0.560058594 0.743652344 -0.364990234
vn 0.560058594 0.743652344 -0.364990234
vn 0.8203125 0.0705566406 -0.567382812
vn 0.8203125 0.0705566406 -0.567382812
vn 0.8203125 0.0705566406 -0.567382812
vn 0.365966797 0.43359375 0.823730469
vn 0.365966797 0.43359375 0.823730469
vn 0.365966797 0.43359375 0.823730469
vn 0.935058594 0.320556641 0.150146484
vn 0.935058594 0.320556641 0.150146484
vn 0.935058594 0.320556641 0.150146484
vn 0.788085938 0.157348633 -0.594726562
vn 0.788085938 0.157348633 -0.594726562
vn 0.788085938 0.157348633 -0.594726562
vn 0.874023438 0.431884766 0.222290039
vn 0.874023438 0.431884766 0.222290039
vn 0.874023438 0.431884766 0.222290039
vn 0.963378906 0.255371094 -0.0797119141
vn 0.963378906 0.255371094 -0.0797119141
vn 0.963378906 0.255371094 -0.0797119141
vn 0.402587891 0.746582031 0.529296875
vn 0.402587891 0.746582031 0.529296875
vn 0.402587891 0.746582031 0.529296875
vn 0.548828125 0.723632812 -0.41796875
vn 0.55859375 0.715820312 -0.419433594
vn 0.548828125 0.723632812 -0.41796875
vn 0.55859375 0.715820312 -0.419433594
vn 0.55859375 0.715820312 -0.419433594
vn 0.55859375 0.715820312 -0.419433594
vn 0.409423828 0.480712891 0.775390625
vn 0.409423828 0.480712891 0.775390625
vn 0.409423828 0.480712891 0.775390625
vn 0.409423828 0.480712891 0.775390625
vn 0.409423828 0.480712891 0.775390625
vn 0.409423828 0.480712891 0.775390625
vn 0.977050781 0.193481445 0.0912475586
vn 0.977050781 0.193481445 0.0912475586
vn 0.977050781 0.193481445 0.0912475586
vn 0.978515625 0.0999755859 -0.179321289
vn 0.978515625 0.0999755859 -0.179321289
vn 0.978515625 0.0999755859 -0.179321289
vn 0.943847656 0.0838623047 0.319580078
vn 0.943847656 0.0838623047 0.319580078
vn 0.943847656 0.0838623047 0.319580078
vn 0.978515625 0.202758789 0.0348510742
vn 0.978515625 0.202758789 0.0348510742
vn 0.978515625 0.202758789 0.0348510742
vn 0.869140625 0.251708984 0.425292969
vn 0.869140625 0.251708984 0.425292969
vn 0.869140625 0.251708984 0.425292969
vn 0.931640625 0.10333252 0.348876953
vn 0.931640625 0.10333252 0.348876953
vn 0.931640625 0.10333252 0.348876953
vn 0.954589844 0.206787109 -0.215209961
vn 0.954589844 0.206787109 -0.215209961
vn 0.954589844 0.206787109 -0.215209961
vn 0.979980469 0.19519043 0.0328369141
vn 0.979980469 0.19519043 0.0328369141
vn 0.979980469 0.19519043 0.0328369141
vn 0.994628906 0.0834350586 -0.0621337891
vn 0.989746094 0.113220215 -0.0856933594
vn 0.989746094 0.113220215 -0.0856933594
vn 0.994628906 0.0834350586 -0.0621337891
vn 0.994628906 0.0834350586 -0.0621337891
vn 0.994628906 0.0834350586 -0.0621337891
vn 0.895996094 0.441894531 0.0454711914
vn 0.895996094 0.441894531 0.0454711914
vn 0.895996094 0.441894531 0.0454711914
vn 0.895996094 0.441894531 0.0454711914
vn 0.963378906 0.258544922 0.0703735352
vn 0.963378906 0.258544922 0.0703735352
vn 0.963378906 0.258544922 0.0703735352
vn 0.963378906 0.258544922 0.0703735352
vn 0.317871094 0.466552734 0.825683594
vn 0.317871094 0.466552734 0.825683594
vn 0.317871094 0.466552734 0.825683594
vn 0.317871094 0.466552734 0.825683594
vn 0.425537109 0.420654297 -0.801269531
vn 0.425537109 0.420654297 -0.801269531
vn 0.425537109 0.420654297 -0.801269531
vn 0.425537109 0.420654297 -0.801269531
vn 0.991699219 0.0935668945 -0.0860595703
vn 0.991699219 0.0935668945 -0.0860595703
vn 0.991699219 0.0935668945 -0.0860595703
vn 0.991699219 0.0935668945 -0.0860595703
vn 0.972167969 0.229370117 0.0435180664
vn 0.972167969 0.229370117 0.0435180664
vn 0.972167969 0.229370117 0.0435180664
vn 0.972167969 0.229370117 0.0435180664
vn 0.994628906 0.0777587891 0.0653686523
vn 0.994628906 0.0777587891 0.0653686523
vn 0.994628906 0.0777587891 0.0653686523
vn 0.994628906 0.0777587891 0.0653686523
vn 0.884277344 0.413330078 -0.217651367
vn 0.884277344 0.413330078 -0.217651367
vn 0.884277344 0.413330078 -0.217651367
vn 0.884277344 0.413330078 -0.217651367
vn 0.917480469 0.223754883 0.329345703
vn 0.917480469 0.223754883 0.329345703
vn 0.917480469 0.223754883 0.329345703
vn 0.917480469 0.223754883 0.329345703
vn 0.970214844 0.0274200439 -0.240844727
vn 0.970214844 0.0274200439 -0.240844727
vn 0.970214844 0.0274200439 -0.240844727
vn 0.970214844 0.0274200439 -0.240844727
vn 0.98828125 0.110839844 0.106811523
vn 0.98828125 0.110839844 0.106811523
vn 0.98828125 0.110839844 0.106811523
vn 0.98828125 0.110839844 0.106811523
vn 0.980957031 0.182983398 -0.067199707
vn 0.980957031 0.182983398 -0.067199707
vn 0.980957031 0.182983398 -0.067199707
vn 0.981933594 0.186767578 -0.0327148438
vn 0.981933594 0.186767578 -0.0327148438
vn 0.981933594 0.186767578 -0.0327148438
vn 0.981933594 0.186767578 -0.0327148438
vn 0.981933594 0.186767578 -0.0327148438
vn 0.981933594 0.186767578 -0.0327148438
vn 0.981933594 0.186767578 -0.0327148438
vn 0.981933594 0.186767578 -0.0327148438
vn 0.981933594 0.186767578 -0.0327148438
vn 0.975585938 0.215820312 -0.0348205566
vn 0.981933594 0.186767578 -0.0327148438
vn 0.981933594 0.186767578 -0.0327148438
vn 0.987792969 0.153320312 -0.0302581787
vn 0.97265625 0.145629883 -0.180053711
vn 0.97265625 0.145629883 -0.180053711
vn 0.97265625 0.145629883 -0.180053711
vn 0.97265625 0.145629883 -0.180053711
vn 0.963378906 0.176635742 -0.200805664
vn 0.963378906 0.176635742 -0.200805664
vn 0.963378906 0.176635742 -0.200805664
vn 0.963378906 0.176635742 -0.200805664
vn 0.958007812 0.204956055 -0.201171875
vn 0.954101562 0.153198242 0.2578125
vn 0.954101562 0.153198242 0.2578125
vn 0.954101562 0.153198242 0.2578125
vn 0.954101562 0.153198242 0.2578125
vn 0.992675781 0.0963745117 -0.0715942383
vn 0.992675781 0.0963745117 -0.0715942383
vn 0.992675781 0.0963745117 -0.0715942383
vn 0.992675781 0.0963745117 -0.0715942383
vn 0.939941406 0.282958984 -0.191162109
vn 0.939941406 0.282958984 -0.191162109
vn 0.939941406 0.282958984 -0.191162109
vn 0.939941406 0.282958984 -0.191162109
vn 0.987304688 0.133178711 -0.0842895508
vn 0.987304688 0.133178711 -0.0842895508
vn 0.987304688 0.133178711 -0.0842895508
vn 0.987304688 0.133178711 -0.0842895508
vn 0.423095703 0.376464844 0.82421875
vn 0.423095703 0.376464844 0.82421875
vn 0.423095703 0.376464844 0.82421875
vn 0.423095703 0.376464844 0.82421875
vn 0.433349609 0.34375 0.833007812
vn 0.433349609 0.34375 0.833007812
vn 0.433349609 0.34375 0.833007812
vn 0.433349609 0.34375 0.833007812
vn 0.353027344 0.236694336 0.905273438
vn 0.353027344 0.236694336 0.905273438
vn 0.353027344 0.236694336 0.905273438
vn 0.353027344 0.236694336 0.905273438
vn 0.909667969 0.408691406 -0.0740356445
vn 0.909667969 0.408691406 -0.0740356445
vn 0.909667969 0.408691406 -0.0740356445
vn 0.909667969 0.408691406 -0.0740356445
vn 0.969726562 0.230834961 -0.0779418945
vn 0.969726562 0.215454102 -0.114440918
vn 0.969726562 0.230834961 -0.0779418945
vn 0.969726562 0.218017578 -0.108581543
vn 0.954589844 0.151367188 -0.256835938
vn 0.954589844 0.151367188 -0.256835938
vn 0.957519531 0.258300781 -0.127075195
vn 0.957519531 0.258300781 -0.127075195
vn 0.957519531 0.258300781 -0.127075195
vn 0.957519531 0.258300781 -0.127075195
vn 0.957519531 0.258300781 -0.127075195
vn 0.934570312 0.313232422 0.16784668
vn 0.934570312 0.313232422 0.16784668
vn 0.934570312 0.313232422 0.16784668
vn 0.934570312 0.313232422 0.16784668
vn 0.952148438 0.237426758 0.192626953
vn 0.952148438 0.237426758 0.192626953
vn 0.952148438 0.237426758 0.192626953
vn 0.952148438 0.237426758 0.192626953
vn 0.933105469 0.212768555 0.289306641
vn 0.933105469 0.212768555 0.289306641
vn 0.933105469 0.212768555 0.289306641
vn 0.933105469 0.212768555 0.289306641
vn 0.851074219 0.0602111816 -0.521972656
vn 0.851074219 0.0602111816 -0.521972656
vn 0.851074219 0.0602111816 -0.521972656
vn 0.851074219 0.0602111816 -0.521972656
vn 0.940429688 0.103027344 0.323486328
vn 0.940429688 0.103027344 0.323486328
vn 0.940429688 0.103027344 0.323486328
vn 0.940429688 0.103027344 0.323486328
vn -0.0775756836 0.430908203 -0.898925781
vn -0.0775756836 0.430908203 -0.898925781
vn -0.0775756836 0.430908203 -0.898925781
vn -0.0775756836 0.430908203 -0.898925781
vn 0.470458984 0.182128906 -0.86328125
vn 0.470458984 0.182128906 -0.86328125
vn 0.470458984 0.182128906 -0.86328125
vn 0.470458984 0.182128906 -0.86328125
vn 0.942382812 0.285888672 -0.172729492
vn 0.942382812 0.285888672 -0.172729492
vn 0.942382812 0.285888672 -0.172729492
vn 0.942382812 0.285888672 -0.172729492
vn 0.909179688 0.15637207 0.386230469
vn 0.909179688 0.15637207 0.386230469
vn 0.909179688 0.15637207 0.386230469
vn 0.909179688 0.15637207 0.386230469
vn 0.925292969 0.264404297 0.271484375
vn 0.925292969 0.264404297 0.271484375
vn 0.925292969 0.264404297 0.271484375
vn 0.925292969 0.264404297 0.271484375
vn 0.229614258 0.179443359 0.956542969
vn 0.229614258 0.179443359 0.956542969
vn 0.229614258 0.179443359 0.956542969
vn 0.229614258 0.179443359 0.956542969
vn 0.470214844 0.27734375 0.837890625
vn 0.470214844 0.27734375 0.837890625
vn 0.470214844 0.27734375 0.837890625
vn 0.470214844 0.27734375 0.837890625
vn 0.326904297 0.417236328 0.848144531
vn 0.326904297 0.417236328 0.848144531
vn 0.326904297 0.417236328 0.848144531
vn 0.326904297 0.417236328 0.848144531
vn 0.84375 0.429443359 0.321777344
vn 0.84375 0.429443359 0.321777344
vn 0.84375 0.429443359 0.321777344
vn 0.84375 0.429443359 0.321777344
vn 0.813964844 0.448730469 0.369140625
vn 0.813964844 0.448730469 0.369140625
vn 0.813964844 0.448730469 0.369140625
vn 0.813964844 0.448730469 0.369140625
vn 0.435302734 0.577636719 0.690429688
vn 0.435302734 0.577636719 0.690429688
vn 0.435302734 0.577636719 0.690429688
vn 0.435302734 0.577636719 0.690429688
vn 0.951660156 0.161254883 -0.261474609
vn 0.951660156 0.161254883 -0.261474609
vn 0.951660156 0.161254883 -0.261474609
vn 0.951660156 0.161254883 -0.261474609
vn 0.573730469 -0.00431060791 -0.818847656
vn 0.573730469 -0.00431060791 -0.818847656
vn 0.573730469 -0.00431060791 -0.818847656
vn 0.573730469 -0.00431060791 -0.818847656
vn 0.500976562 0.463623047 0.730957031
vn 0.500976562 0.463623047 0.730957031
vn 0.500976562 0.463623047 0.730957031
vn 0.500976562 0.463623047 0.730957031
vn 0.937011719 0.328125 -0.118408203
vn 0.937011719 0.328125 -0.118408203
vn 0.937011719 0.328125 -0.118408203
vn 0.937011719 0.328125 -0.118408203
vn 0.374755859 0.120361328 -0.919433594
vn 0.374755859 0.120361328 -0.919433594
vn 0.374755859 0.120361328 -0.919433594
vn 0.374755859 0.120361328 -0.919433594
vn 0.880859375 0.458984375 0.114624023
vn 0.880859375 0.458984375 0.114624023
vn 0.880859375 0.458984375 0.114624023
vn 0.880859375 0.458984375 0.114624023
vn 0.80859375 0.298583984 -0.507324219
vn 0.80859375 0.298583984 -0.507324219
vn 0.80859375 0.298583984 -0.507324219
vn 0.80859375 0.298583984 -0.507324219
vn 0.872558594 0.488037109 -1.1920929E-07
vn 0.872558594 0.488037109 -1.1920929E-07
vn 0.872558594 0.488037109 -1.1920929E-07
vn 0.875 0.483886719 -0.00410842896
vn 0.875 0.483886719 -0.00410842896
vn 0.875 0.483886719 -0.00410842896
vn 0.447753906 -0.00117969513 0.894042969
vn 0.447753906 -0.00117969513 0.894042969
vn 0.447753906 -0.00117969513 0.894042969
vn 0.447753906 -0.00117969513 0.894042969
vn 0.533691406 0.527832031 -0.660644531
vn 0.533691406 0.527832031 -0.660644531
vn 0.533691406 0.527832031 -0.660644531
vn 0.533691406 0.527832031 -0.660644531
vn 0.409912109 0.133789062 0.90234375
vn 0.409912109 0.133789062 0.90234375
vn 0.409912109 0.133789062 0.90234375
vn 0.409912109 0.133789062 0.90234375
vn 0.916992188 0.390136719 -0.0848388672
vn 0.916992188 0.390136719 -0.0848388672
vn 0.916992188 0.390136719 -0.0848388672
vn 0.916992188 0.390136719 -0.0848388672
vn 0.281494141 0.449462891 -0.84765625
vn 0.281494141 0.449462891 -0.84765625
vn 0.281494141 0.449462891 -0.84765625
vn 0.281494141 0.449462891 -0.84765625
vn 0.975585938 0.211791992 -0.0577392578
vn 0.975585938 0.211791992 -0.0577392578
vn 0.975585938 0.211791992 -0.0577392578
vn 0.975585938 0.211791992 -0.0577392578
vn 0.383544922 0.606445312 0.696777344
vn 0.383544922 0.606445312 0.696777344
vn 0.383544922 0.606445312 0.696777344
vn 0.383544922 0.606445312 0.696777344
vn 0.391601562 0.185058594 0.901367188
vn 0.391601562 0.185058594 0.901367188
vn 0.391601562 0.185058594 0.901367188
vn 0.391601562 0.185058594 0.901367188
vn -0.0799560547 0.712890625 -0.696777344
vn -0.0799560547 0.712890625 -0.696777344
vn -0.0799560547 0.712890625 -0.696777344
vn -0.0799560547 0.712890625 -0.696777344
vn 0.871582031 0.431152344 -0.233886719
vn 0.871582031 0.431152344 -0.233886719
vn 0.871582031 0.431152344 -0.233886719
vn 0.871582031 0.431152344 -0.233886719
vn 0.489257812 0.551757812 -0.675292969
vn 0.489257812 0.551757812 -0.675292969
vn 0.489257812 0.551757812 -0.675292969
vn 0.489257812 0.551757812 -0.675292969
vn -0.345214844 0.583496094 -0.735351562
vn -0.345214844 0.583496094 -0.735351562
vn -0.345214844 0.583496094 -0.735351562
vn -0.345214844 0.583496094 -0.735351562
vn 0.987304688 0.153198242 -0.0399169922
vn 0.987304688 0.153198242 -0.0399169922
vn 0.987304688 0.153198242 -0.0399169922
vn 0.987304688 0.153198242 -0.0399169922
vn -0.251220703 0.184570312 -0.950195312
vn -0.251220703 0.184570312 -0.950195312
vn -0.251220703 0.184570312 -0.950195312
vn -0.251220703 0.184570312 -0.950195312
vn 0.57421875 0.186157227 -0.797363281
vn 0.57421875 0.186157227 -0.797363281
vn 0.57421875 0.186157227 -0.797363281
vn 0.57421875 0.186157227 -0.797363281
vn 0.519042969 0.445068359 0.729980469
vn 0.519042969 0.445068359 0.729980469
vn 0.519042969 0.445068359 0.729980469
vn 0.519042969 0.445068359 0.729980469
vn 0.679199219 0.459716797 0.572265625
vn 0.679199219 0.459716797 0.572265625
vn 0.679199219 0.459716797 0.572265625
vn 0.679199219 0.459716797 0.572265625
vn 0.803710938 0.454345703 -0.384033203
vn 0.803710938 0.454345703 -0.384033203
vn 0.803710938 0.454345703 -0.384033203
vn 0.803710938 0.454345703 -0.384033203
vn 0.799316406 0.52734375 0.287597656
vn 0.799316406 0.52734375 0.287597656
vn 0.799316406 0.52734375 0.287597656
vn 0.804199219 0.520507812 0.287841797
vn 0.804199219 0.520507812 0.287841797
vn 0.969726562 0.220336914 -0.106750488
vn 0.969726562 0.220336914 -0.106750488
vn 0.969726562 0.220336914 -0.106750488
vn 0.969726562 0.220336914 -0.106750488
vn 0.0612487793 0.423095703 0.903808594
vn 0.0612487793 0.423095703 0.903808594
vn 0.0612487793 0.423095703 0.903808594
vn 0.0612487793 0.423095703 0.903808594
vn 0.531738281 0.330566406 -0.779785156
vn 0.531738281 0.330566406 -0.779785156
vn 0.531738281 0.330566406 -0.779785156
vn 0.531738281 0.330566406 -0.779785156
vn 0.640136719 0.367919922 0.674316406
vn 0.640136719 0.367919922 0.674316406
vn 0.640136719 0.367919922 0.674316406
vn 0.640136719 0.367919922 0.674316406
vn 0.920410156 0.389648438 -0.035949707
vn 0.920410156 0.389648438 -0.035949707
vn 0.920410156 0.389648438 -0.035949707
vn 0.920410156 0.389648438 -0.035949707
vn 0.474609375 0.401855469 0.783203125
vn 0.474609375 0.401855469 0.783203125
vn 0.474609375 0.401855469 0.783203125
vn 0.474609375 0.401855469 0.783203125
vn -0.439941406 0.272949219 0.85546875
vn -0.439941406 0.272949219 0.85546875
vn -0.439941406 0.272949219 0.85546875
vn -0.439941406 0.272949219 0.85546875
vn -0.439941406 0.272949219 0.85546875
vn 0.955078125 0.0674438477 -0.288818359
vn 0.955078125 0.0674438477 -0.288818359
vn 0.955078125 0.0674438477 -0.288818359
vn 0.955078125 0.0674438477 -0.288818359
vn 0.938476562 0.302978516 -0.164306641
vn 0.938476562 0.302978516 -0.164306641
vn 0.938476562 0.302978516 -0.164306641
vn 0.938476562 0.302978516 -0.164306641
vn 0.889648438 0.452148438 0.0610046387
vn 0.889648438 0.452148438 0.0610046387
vn 0.889648438 0.452148438 0.0610046387
vn 0.889648438 0.452148438 0.0610046387
vn 0.00407409668 1 0.0102767944
vn 0.000695705414 1 0.00107383728
vn 0.000611305237 1 0.000665664673
vn 0.00382232666 1 0.00971221924
vn 0.000695705414 1 0.00107383728
vn -2.47955322E-05 1 -0.00351905823
vn -2.93254852E-05 1 -0.00368499756
vn 0.000611305237 1 0.000665664673
vn -2.47955322E-05 1 -0.00351905823
vn 6.00218773E-05 1 -0.0044670105
vn 7.17043877E-05 1 -0.00442123413
vn -2.93254852E-05 1 -0.00368499756
vn 6.00218773E-05 1 -0.0044670105
vn 0.000178813934 1 -0.00327110291
vn 0.000178098679 1 -0.00323677063
vn 7.17043877E-05 1 -0.00442123413
vn 0.000178098679 1 -0.00323677063
vn 0.000178813934 1 -0.00327110291
vn 0.000107824802 1 -0.00139713287
vn 0.000106394291 1 -0.00137424469
vn 0.000106394291 1 -0.00137424469
vn 0.000107824802 1 -0.00139713287
vn 2.93850899E-05 1 -9.67383385E-05
vn 2.84314156E-05 1 -6.04987144E-05
vn -2.38418579E-07 1 0.000141382217
vn -2.38418579E-07 1 0.000137329102
vn 0.000106394291 1 -0.00137424469
vn 2.84314156E-05 1 -6.04987144E-05
vn -0 1 0.000110685825
vn -2.38418579E-07 1 0.000141382217
vn 0.0293579102 0.999023438 0.0390014648
vn -2.38418579E-07 1 0.000146508217
vn -0.00226211548 0.490234375 -0.871582031
vn -0.00226211548 0.490234375 -0.871582031
vn -0.00226211548 0.490234375 -0.871582031
vn -0.00226211548 0.490234375 -0.871582031
vn 0.00944519043 0.490234375 -0.871582031
vn 0.00944519043 0.490234375 -0.871582031
vn 0.0176696777 0.489990234 -0.871582031
vn 0.0184783936 0.489746094 -0.871582031
vn 0.00944519043 0.490234375 -0.871582031
vn 0.00944519043 0.490234375 -0.871582031
vn -0.00511550903 0.998046875 0.0627441406
vn -0.00764465332 0.997070312 0.0731201172
vn -0.00640869141 0.997558594 0.0667724609
vn 2.93850899E-05 1 -9.67383385E-05
vn 0.000107824802 1 -0.00139713287
vn -2.38418579E-07 1 0.000137329102
vn -0.00205802917 0.998535156 0.0532226562
vn -0.00301361084 0.487792969 -0.873046875
vn -0.00226211548 0.490234375 -0.871582031
vn -0.00226211548 0.490234375 -0.871582031
vn -0.00301361084 0.487792969 -0.873046875
g Combined Mesh (root: scene) 2_0
f 3/3/3 2/2/2 1/1/1
f 6/6/6 5/5/5 4/4/4
f 9/9/9 8/8/8 7/7/7
f 12/12/12 11/11/11 10/10/10
f 15/15/15 14/14/14 13/13/13
f 18/18/18 17/17/17 16/16/16
f 21/21/21 20/20/20 19/19/19
f 24/24/24 23/23/23 22/22/22
f 27/27/27 26/26/26 25/25/25
f 30/30/30 29/29/29 28/28/28
f 33/33/33 32/32/32 31/31/31
f 36/36/36 35/35/35 34/34/34
f 39/39/39 38/38/38 37/37/37
f 42/42/42 41/41/41 40/40/40
f 45/45/45 44/44/44 43/43/43
f 48/48/48 47/47/47 46/46/46
f 51/51/51 50/50/50 49/49/49
f 54/54/54 53/53/53 52/52/52
f 57/57/57 56/56/56 55/55/55
f 60/60/60 59/59/59 58/58/58
f 63/63/63 62/62/62 61/61/61
f 66/66/66 65/65/65 64/64/64
f 69/69/69 68/68/68 67/67/67
f 72/72/72 71/71/71 70/70/70
f 75/75/75 74/74/74 73/73/73
f 78/78/78 77/77/77 76/76/76
f 80/80/80 78/78/78 79/79/79
f 81/81/81 80/80/80 79/79/79
f 84/84/84 83/83/83 82/82/82
f 87/87/87 86/86/86 85/85/85
f 90/90/90 89/89/89 88/88/88
f 93/93/93 92/92/92 91/91/91
f 96/96/96 95/95/95 94/94/94
f 99/99/99 98/98/98 97/97/97
f 102/102/102 101/101/101 100/100/100
f 105/105/105 104/104/104 103/103/103
f 108/108/108 107/107/107 106/106/106
f 111/111/111 110/110/110 109/109/109
f 114/114/114 113/113/113 112/112/112
f 117/117/117 116/116/116 115/115/115
f 120/120/120 119/119/119 118/118/118
f 123/123/123 122/122/122 121/121/121
f 126/126/126 125/125/125 124/124/124
f 129/129/129 128/128/128 127/127/127
f 132/132/132 131/131/131 130/130/130
f 135/135/135 134/134/134 133/133/133
f 138/138/138 137/137/137 136/136/136
f 141/141/141 140/140/140 139/139/139
f 144/144/144 143/143/143 142/142/142
f 147/147/147 146/146/146 145/145/145
f 150/150/150 149/149/149 148/148/148
f 153/153/153 152/152/152 151/151/151
f 156/156/156 155/155/155 154/154/154
f 159/159/159 158/158/158 157/157/157
f 162/162/162 161/161/161 160/160/160
f 165/165/165 164/164/164 163/163/163
f 168/168/168 167/167/167 166/166/166
f 171/171/171 170/170/170 169/169/169
f 174/174/174 173/173/173 172/172/172
f 177/177/177 176/176/176 175/175/175
f 180/180/180 179/179/179 178/178/178
f 183/183/183 182/182/182 181/181/181
f 186/186/186 185/185/185 184/184/184
f 189/189/189 188/188/188 187/187/187
f 192/192/192 191/191/191 190/190/190
f 195/195/195 194/194/194 193/193/193
f 198/198/198 197/197/197 196/196/196
f 201/201/201 200/200/200 199/199/199
f 204/204/204 203/203/203 202/202/202
f 207/207/207 206/206/206 205/205/205
f 210/210/210 209/209/209 208/208/208
f 213/213/213 212/212/212 211/211/211
f 216/216/216 215/215/215 214/214/214
f 219/219/219 218/218/218 217/217/217
f 222/222/222 221/221/221 220/220/220
f 225/225/225 224/224/224 223/223/223
f 228/228/228 227/227/227 226/226/226
f 231/231/231 230/230/230 229/229/229
f 234/234/234 233/233/233 232/232/232
f 237/237/237 236/236/236 235/235/235
f 240/240/240 239/239/239 238/238/238
f 243/243/243 242/242/242 241/241/241
f 246/246/246 245/245/245 244/244/244
f 249/249/249 248/248/248 247/247/247
f 252/252/252 251/251/251 250/250/250
f 255/255/255 254/254/254 253/253/253
f 258/258/258 257/257/257 256/256/256
f 261/261/261 260/260/260 259/259/259
f 264/264/264 263/263/263 262/262/262
f 267/267/267 266/266/266 265/265/265
f 270/270/270 269/269/269 268/268/268
f 273/273/273 272/272/272 271/271/271
f 276/276/276 275/275/275 274/274/274
f 279/279/279 278/278/278 277/277/277
f 282/282/282 281/281/281 280/280/280
f 285/285/285 284/284/284 283/283/283
f 288/288/288 287/287/287 286/286/286
f 291/291/291 290/290/290 289/289/289
f 294/294/294 293/293/293 292/292/292
f 297/297/297 296/296/296 295/295/295
f 300/300/300 299/299/299 298/298/298
f 303/303/303 302/302/302 301/301/301
f 306/306/306 305/305/305 304/304/304
f 309/309/309 308/308/308 307/307/307
f 312/312/312 311/311/311 310/310/310
f 315/315/315 314/314/314 313/313/313
f 318/318/318 317/317/317 316/316/316
f 321/321/321 320/320/320 319/319/319
f 324/324/324 323/323/323 322/322/322
f 327/327/327 326/326/326 325/325/325
f 330/330/330 329/329/329 328/328/328
f 333/333/333 332/332/332 331/331/331
f 336/336/336 335/335/335 334/334/334
f 338/338/338 337/337/337 335/335/335
f 339/339/339 338/338/338 335/335/335
f 342/342/342 341/341/341 340/340/340
f 345/345/345 344/344/344 343/343/343
f 348/348/348 347/347/347 346/346/346
f 351/351/351 350/350/350 349/349/349
f 354/354/354 353/353/353 352/352/352
f 357/357/357 356/356/356 355/355/355
f 360/360/360 359/359/359 358/358/358
f 363/363/363 362/362/362 361/361/361
f 366/366/366 365/365/365 364/364/364
f 369/369/369 368/368/368 367/367/367
f 372/372/372 371/371/371 370/370/370
f 374/374/374 370/370/370 373/373/373
f 375/375/375 374/374/374 373/373/373
f 378/378/378 377/377/377 376/376/376
f 379/379/379 378/378/378 376/376/376
f 382/382/382 381/381/381 380/380/380
f 383/383/383 382/382/382 380/380/380
f 386/386/386 385/385/385 384/384/384
f 387/387/387 386/386/386 384/384/384
f 390/390/390 389/389/389 388/388/388
f 391/391/391 390/390/390 388/388/388
f 394/394/394 393/393/393 392/392/392
f 395/395/395 394/394/394 392/392/392
f 398/398/398 397/397/397 396/396/396
f 399/399/399 398/398/398 396/396/396
f 402/402/402 401/401/401 400/400/400
f 403/403/403 402/402/402 400/400/400
f 406/406/406 405/405/405 404/404/404
f 407/407/407 406/406/406 404/404/404
f 410/410/410 409/409/409 408/408/408
f 411/411/411 410/410/410 408/408/408
f 414/414/414 413/413/413 412/412/412
f 415/415/415 414/414/414 412/412/412
f 418/418/418 417/417/417 416/416/416
f 419/419/419 418/418/418 416/416/416
f 422/422/422 421/421/421 420/420/420
f 422/422/422 420/420/420 423/423/423
f 424/424/424 422/422/422 423/423/423
f 425/425/425 424/424/424 423/423/423
f 426/426/426 425/425/425 423/423/423
f 424/424/424 425/425/425 427/427/427
f 428/428/428 424/424/424 427/427/427
f 428/428/428 427/427/427 429/429/429
f 425/425/425 430/430/430 427/427/427
f 430/430/430 431/431/431 427/427/427
f 432/432/432 427/427/427 431/431/431
f 430/430/430 433/433/433 431/431/431
f 433/433/433 434/434/434 431/431/431
f 435/435/435 431/431/431 434/434/434
f 438/438/438 437/437/437 436/436/436
f 439/439/439 438/438/438 436/436/436
f 442/442/442 441/441/441 440/440/440
f 443/443/443 442/442/442 440/440/440
f 442/442/442 443/443/443 444/444/444
f 447/447/447 446/446/446 445/445/445
f 448/448/448 447/447/447 445/445/445
f 451/451/451 450/450/450 449/449/449
f 452/452/452 451/451/451 449/449/449
f 455/455/455 454/454/454 453/453/453
f 456/456/456 455/455/455 453/453/453
f 459/459/459 458/458/458 457/457/457
f 460/460/460 459/459/459 457/457/457
f 463/463/463 462/462/462 461/461/461
f 464/464/464 463/463/463 461/461/461
f 467/467/467 466/466/466 465/465/465
f 468/468/468 467/467/467 465/465/465
f 471/471/471 470/470/470 469/469/469
f 472/472/472 471/471/471 469/469/469
f 475/475/475 474/474/474 473/473/473
f 476/476/476 475/475/475 473/473/473
f 479/479/479 478/478/478 477/477/477
f 478/478/478 480/480/480 477/477/477
f 478/478/478 481/481/481 480/480/480
f 481/481/481 482/482/482 480/480/480
f 485/485/485 484/484/484 483/483/483
f 483/483/483 486/486/486 485/485/485
f 486/486/486 487/487/487 485/485/485
f 490/490/490 489/489/489 488/488/488
f 491/491/491 490/490/490 488/488/488
f 494/494/494 493/493/493 492/492/492
f 495/495/495 494/494/494 492/492/492
f 498/498/498 497/497/497 496/496/496
f 499/499/499 498/498/498 496/496/496
f 502/502/502 501/501/501 500/500/500
f 503/503/503 502/502/502 500/500/500
f 506/506/506 505/505/505 504/504/504
f 507/507/507 506/506/506 504/504/504
f 510/510/510 509/509/509 508/508/508
f 511/511/511 510/510/510 508/508/508
f 514/514/514 513/513/513 512/512/512
f 515/515/515 514/514/514 512/512/512
f 518/518/518 517/517/517 516/516/516
f 519/519/519 518/518/518 516/516/516
f 522/522/522 521/521/521 520/520/520
f 523/523/523 522/522/522 520/520/520
f 526/526/526 525/525/525 524/524/524
f 527/527/527 526/526/526 524/524/524
f 530/530/530 529/529/529 528/528/528
f 531/531/531 530/530/530 528/528/528
f 534/534/534 533/533/533 532/532/532
f 535/535/535 534/534/534 532/532/532
f 538/538/538 537/537/537 536/536/536
f 539/539/539 538/538/538 536/536/536
f 542/542/542 541/541/541 540/540/540
f 543/543/543 542/542/542 540/540/540
f 546/546/546 545/545/545 544/544/544
f 547/547/547 546/546/546 544/544/544
f 550/550/550 549/549/549 548/548/548
f 551/551/551 550/550/550 548/548/548
f 554/554/554 553/553/553 552/552/552
f 555/555/555 554/554/554 552/552/552
f 558/558/558 557/557/557 556/556/556
f 559/559/559 558/558/558 556/556/556
f 562/562/562 561/561/561 560/560/560
f 563/563/563 562/562/562 560/560/560
f 566/566/566 565/565/565 564/564/564
f 567/567/567 566/566/566 564/564/564
f 570/570/570 569/569/569 568/568/568
f 571/571/571 570/570/570 568/568/568
f 574/574/574 573/573/573 572/572/572
f 575/575/575 574/574/574 572/572/572
f 578/578/578 577/577/577 576/576/576
f 579/579/579 578/578/578 576/576/576
f 582/582/582 581/581/581 580/580/580
f 582/582/582 580/580/580 583/583/583
f 583/583/583 584/584/584 582/582/582
f 580/580/580 585/585/585 583/583/583
f 588/588/588 587/587/587 586/586/586
f 589/589/589 588/588/588 586/586/586
f 592/592/592 591/591/591 590/590/590
f 593/593/593 592/592/592 590/590/590
f 596/596/596 595/595/595 594/594/594
f 597/597/597 596/596/596 594/594/594
f 600/600/600 599/599/599 598/598/598
f 601/601/601 600/600/600 598/598/598
f 604/604/604 603/603/603 602/602/602
f 605/605/605 604/604/604 602/602/602
f 608/608/608 607/607/607 606/606/606
f 609/609/609 608/608/608 606/606/606
f 612/612/612 611/611/611 610/610/610
f 613/613/613 612/612/612 610/610/610
f 616/616/616 615/615/615 614/614/614
f 617/617/617 616/616/616 614/614/614
f 620/620/620 619/619/619 618/618/618
f 621/621/621 620/620/620 618/618/618
f 624/624/624 623/623/623 622/622/622
f 625/625/625 624/624/624 622/622/622
f 628/628/628 627/627/627 626/626/626
f 629/629/629 628/628/628 626/626/626
f 632/632/632 631/631/631 630/630/630
f 633/633/633 632/632/632 630/630/630
f 636/636/636 635/635/635 634/634/634
f 637/637/637 636/636/636 634/634/634
f 640/640/640 639/639/639 638/638/638
f 641/641/641 640/640/640 638/638/638
f 644/644/644 643/643/643 642/642/642
f 645/645/645 644/644/644 642/642/642
f 648/648/648 647/647/647 646/646/646
f 649/649/649 648/648/648 646/646/646
f 652/652/652 651/651/651 650/650/650
f 653/653/653 652/652/652 650/650/650
f 656/656/656 655/655/655 654/654/654
f 657/657/657 656/656/656 654/654/654
f 660/660/660 659/659/659 658/658/658
f 660/660/660 658/658/658 661/661/661
f 662/662/662 660/660/660 661/661/661
f 665/665/665 664/664/664 663/663/663
f 666/666/666 665/665/665 663/663/663
f 669/669/669 668/668/668 667/667/667
f 667/667/667 670/670/670 669/669/669
f 673/673/673 672/672/672 671/671/671
f 674/674/674 673/673/673 671/671/671
f 677/677/677 676/676/676 675/675/675
f 678/678/678 677/677/677 675/675/675
f 681/681/681 680/680/680 679/679/679
f 682/682/682 681/681/681 679/679/679
f 685/685/685 684/684/684 683/683/683
f 686/686/686 685/685/685 683/683/683
f 689/689/689 688/688/688 687/687/687
f 687/687/687 690/690/690 689/689/689
f 687/687/687 691/691/691 690/690/690
f 694/694/694 693/693/693 692/692/692
f 695/695/695 694/694/694 692/692/692
f 698/698/698 697/697/697 696/696/696
f 699/699/699 698/698/698 696/696/696
f 702/702/702 701/701/701 700/700/700
f 703/703/703 702/702/702 700/700/700
g Combined Mesh (root: scene) 2_1
f 706/706/706 705/705/705 704/704/704
f 707/707/707 706/706/706 704/704/704
f 710/710/710 709/709/709 708/708/708
f 711/711/711 710/710/710 708/708/708
f 714/714/714 713/713/713 712/712/712
f 715/715/715 714/714/714 712/712/712
f 718/718/718 717/717/717 716/716/716
f 719/719/719 718/718/718 716/716/716
f 722/722/722 721/721/721 720/720/720
f 723/723/723 722/722/722 720/720/720
f 726/726/726 725/725/725 724/724/724
f 727/727/727 726/726/726 724/724/724
f 726/726/726 727/727/727 728/728/728
f 729/729/729 726/726/726 728/728/728
f 732/732/732 731/731/731 730/730/730
f 733/733/733 731/731/731 732/732/732
f 734/734/734 733/733/733 732/732/732
f 735/735/735 734/734/734 732/732/732
f 738/738/738 737/737/737 736/736/736
f 739/739/739 738/738/738 736/736/736
f 742/742/742 741/741/741 740/740/740
f 743/743/743 742/742/742 740/740/740
f 743/743/743 744/744/744 742/742/742
f 744/744/744 745/745/745 742/742/742
f 748/748/748 747/747/747 746/746/746
f 747/747/747 749/749/749 746/746/746
f 750/750/750 749/749/749 747/747/747
f 749/749/749 751/751/751 746/746/746
f 751/751/751 752/752/752 746/746/746
f 755/755/755 754/754/754 753/753/753
f 756/756/756 755/755/755 753/753/753
