g IS4_MDL_EscenarioPB_MesaTienda_Tapa_1
v -0.640672088 -0.0529883467 1.75626508E-06
v -0.640672088 7.54733342E-09 1.75626508E-06
v 1.78905373E-06 7.54733342E-09 4.19767139E-06
v 1.78905373E-06 -0.0529883467 4.19767139E-06
v -3.09375855E-06 -0.0529883467 -0.461071223
v -3.09375855E-06 7.54733342E-09 -0.461071223
v -0.640672088 7.54733342E-09 -0.461071223
v -0.640672088 -0.0529883467 -0.461071223
v 1.78905373E-06 7.54733342E-09 4.19767139E-06
v -3.09375855E-06 7.54733342E-09 -0.461071223
v -3.09375855E-06 -0.0529883467 -0.461071223
v 1.78905373E-06 -0.0529883467 4.19767139E-06
v -0.640672088 7.54733342E-09 -0.461071223
v -3.09375855E-06 7.54733342E-09 -0.461071223
v 1.78905373E-06 7.54733342E-09 4.19767139E-06
v -0.640672088 7.54733342E-09 1.75626508E-06
v -0.640672088 -0.0529883467 1.75626508E-06
v 1.78905373E-06 -0.0529883467 4.19767139E-06
v -3.09375855E-06 -0.0529883467 -0.461071223
v -0.640672088 -0.0529883467 -0.461071223
v -0.640672088 7.54733342E-09 1.75626508E-06
v -0.640672088 -0.0529883467 1.75626508E-06
v -0.640672088 -0.0529883467 -0.461071223
v -0.640672088 7.54733342E-09 -0.461071223
vt 0.571289062 0.108276367
vt 0.571289062 0.0989379883
vt 0.317871094 0.0989379883
vt 0.317871094 0.108276367
vt 0.571289062 0.108032227
vt 0.571289062 0.0986938477
vt 0.317871094 0.0986938477
vt 0.317871094 0.108032227
vt 0.570800781 0.098449707
vt 0.470703125 0.098449707
vt 0.470703125 0.107727051
vt 0.570800781 0.107727051
vt 0.571777344 0.098815918
vt 0.317626953 0.098815918
vt 0.317626953 0.233154297
vt 0.571777344 0.233154297
vt 0.317626953 0.233154297
vt 0.571777344 0.233154297
vt 0.571777344 0.0987548828
vt 0.317626953 0.0987548828
vt 0.570800781 0.108337402
vt 0.570800781 0.0989990234
vt 0.470703125 0.0989990234
vt 0.470703125 0.108337402
vn -3.75509262E-06 0 1
vn -3.75509262E-06 0 1
vn -3.75509262E-06 0 1
vn -3.75509262E-06 0 1
vn -0 0 -1
vn -0 0 -1
vn -0 0 -1
vn -0 0 -1
vn 1 0 -1.06096268E-05
vn 1 0 -1.06096268E-05
vn 1 0 -1.06096268E-05
vn 1 0 -1.06096268E-05
vn -0 1 0
vn -0 1 0
vn -0 1 0
vn -0 1 0
vn -0 -1 0
vn -0 -1 0
vn -0 -1 0
vn -0 -1 0
vn -1 0 0
vn -1 0 0
vn -1 0 0
vn -1 0 0
g IS4_MDL_EscenarioPB_MesaTienda_Tapa_1_0
f 3/3/3 2/2/2 1/1/1
f 4/4/4 3/3/3 1/1/1
f 7/7/7 6/6/6 5/5/5
f 8/8/8 7/7/7 5/5/5
f 11/11/11 10/10/10 9/9/9
f 12/12/12 11/11/11 9/9/9
f 15/15/15 14/14/14 13/13/13
f 16/16/16 15/15/15 13/13/13
f 19/19/19 18/18/18 17/17/17
f 20/20/20 19/19/19 17/17/17
f 23/23/23 22/22/22 21/21/21
f 24/24/24 23/23/23 21/21/21
