g Paint_Splas_Yellow
v -0.0321631506 0.0217929501 -0.00473693851
v -0.022730168 0.0123675568 -0.00473693851
v -0.0223734584 0.00455080858 0.00513977045
v 0.0861340091 -0.0428642593 0.000285644521
v 0.0834892243 -0.0535985902 0.000285644521
v 0.0753167197 -0.05057244 0.000285644521
v 0.0784629881 -0.0392664932 0.000285644521
v 0.0693050623 -0.0436476953 -0.00398254395
v 0.070175454 -0.0409700684 -0.00398254395
v 0.0593688563 -0.0374806598 -0.00552368164
v 0.0580814444 -0.040098913 -0.00552368164
v 0.0420309342 -0.037198972 0.000285644521
v 0.0497853458 -0.0285470709 0.000285644521
v 0.030907087 -0.0257506836 -0.00453979475
v 0.0437589586 -0.012740463 0.000285644521
v 0.0196008645 -0.0518093854 -0.0029595946
v 0.0266319588 -0.0143849039 0.000407714833
v 0.0507680364 0.00275599118 0.000285644521
v 0.0176456589 -0.0381971411 0.00201965333
v 0.00656758761 -0.0339241102 0.00656677224
v 0.0152306994 -0.00378909986 0.00281494134
v -0.00561083201 -0.0509860031 -0.00362609862
v -0.00830389932 -0.022254914 0.00114318845
v 0.0037671919 -0.0698629618 0.000285644521
v 0.00767916208 -0.0706180111 0.000285644521
v 0.00814777333 -0.0928016677 -0.00448120106
v 0.00408721156 -0.0934151188 -0.00448120106
v -0.00211130618 -0.103660546 0.000285644521
v 0.0159192272 -0.101865269 0.000285644521
v 0.00232640747 -0.112495512 0.000285644521
v 0.0131081436 -0.110916339 0.000285644521
v 0.00155324454 -0.120433748 -0.00826721173
v 0.013050165 -0.11874976 -0.00826721173
v 0.00468910486 0.00828220975 0.000777587877
v 0.0401778221 0.0135242511 0.001953125
v 0.0517628454 0.0141691398 -0.00185485836
v 0.0536990725 0.0111010717 -0.00185485836
v 0.0669677183 0.021382302 -0.00456970185
v 0.0686651394 0.0184744783 -0.00456970185
v 0.0756170601 0.0364589654 0.000285644521
v 0.0835885331 0.0166052692 0.000285644521
v 0.0951666832 0.0258719195 0.000285644521
v 0.0896217898 0.0382303894 0.000285644521
v 0.10175968 0.0283381976 -0.00826721173
v 0.0958468392 0.0415169038 -0.00826721173
v 0.0259038303 0.0288514029 0.0059967041
v -0.0182911623 -0.00989104994 0.00826721173
v -0.002584195 0.0186533462 3.05175763E-06
v -0.0233139265 -0.0361902006 -0.00369140622
v -0.0284125824 -0.0408481881 -0.00826721173
v -0.00677470909 -0.054641407 -0.00826721173
v -0.0401025526 -0.0211318731 -0.00826721173
v -0.0362139679 -0.0194198061 0.000285644521
v -0.0223734584 0.00455080858 0.00513977045
v 0.00726417778 0.0367196612 0.000270996097
v 0.0174409598 0.0494193211 0.000285644521
v 0.013784878 0.0509602167 0.000285644521
v 0.0208380911 0.0802128688 -0.00311889639
v 0.0285687577 0.0779885501 -0.00311889639
v 0.0157470405 0.0931289196 0.000285644521
v 0.0406919383 0.0850279853 0.000285644521
v 0.0438622944 0.107400835 0.000285644521
v 0.0255448483 0.112020545 0.000285644521
v 0.0461286567 0.11550767 -0.00826721173
v 0.0265958533 0.120433748 -0.00826721173
v -0.00728552556 0.0336624645 0.000285644521
v -0.0117683792 0.0212690365 -0.00199157721
v -0.022730168 0.0123675568 -0.00473693851
v -0.0321631506 0.0217929501 -0.00473693851
v -0.0418969952 0.00174529187 0.000285644521
v -0.0544344895 -0.0119404532 0.000285644521
v -0.0349714421 0.0251038596 -0.00826721173
v -0.00838420447 0.0359173305 -0.00826721173
v -0.0547339581 -0.00876415242 0.000285644521
v -0.0770240352 -0.0151359932 -0.00445495592
v -0.0759238452 -0.00749519095 -0.00445495592
v -0.0882432312 -0.0205083191 0.000285644521
v -0.0877472684 -0.0023187208 0.000285644521
v -0.0943601578 -0.00832764618 0.000285644521
v -0.0939952061 -0.0156731121 0.000285644521
v -0.10175968 -0.00915687531 -0.00826721173
v -0.101370618 -0.0169893764 -0.00826721173
v -0.0952370465 -0.0221452806 -0.00826721173
v -0.0233139265 -0.0361902006 -0.00369140622
v -0.0401025526 -0.0211318731 -0.00826721173
v -0.0362139679 -0.0194198061 0.000285644521
v -0.0592445061 -0.0130367083 -0.00826721173
v -0.0544344895 -0.0119404532 0.000285644521
v -0.0827876478 -0.0172487777 -0.00826721173
v -0.0770240352 -0.0151359932 -0.00445495592
v -0.0952370465 -0.0221452806 -0.00826721173
v -0.0882432312 -0.0205083191 0.000285644521
v -0.0418969952 0.00174529187 0.000285644521
v -0.045816116 0.00158442976 -0.00826721173
v -0.0349714421 0.0251038596 -0.00826721173
v -0.0547339581 -0.00876415242 0.000285644521
v -0.0595106967 -0.00962505769 -0.00826721173
v -0.0759238452 -0.00749519095 -0.00445495592
v -0.0816143751 -0.00910095684 -0.00826721173
v -0.0877472684 -0.0023187208 0.000285644521
v -0.0947080627 -0.00274938578 -0.00826721173
v -0.0943601578 -0.00832764618 0.000285644521
v -0.10175968 -0.00915687531 -0.00826721173
v -0.0321631506 0.0217929501 -0.00473693851
v -0.00838420447 0.0359173305 -0.00826721173
v -0.00728552556 0.0336624645 0.000285644521
v 0.00908555463 0.0405847356 -0.00826721173
v 0.00726417778 0.0367196612 0.000270996097
v 0.0140870446 0.0542545579 -0.00826721173
v 0.013784878 0.0509602167 0.000285644521
v 0.0225901883 0.0847806558 -0.00826721173
v 0.0208380911 0.0802128688 -0.00311889639
v 0.0161483902 0.100288898 -0.00826721173
v 0.0157470405 0.0931289196 0.000285644521
v 0.0265958533 0.120433748 -0.00826721173
v 0.0255448483 0.112020545 0.000285644521
v 0.0497853458 -0.0285470709 0.000285644521
v 0.0626919791 -0.0399453491 -0.00826721173
v 0.0593688563 -0.0374806598 -0.00552368164
v 0.0524240397 -0.0304968189 -0.00826721173
v 0.0437589586 -0.012740463 0.000285644521
v 0.0460464954 -0.0135640334 -0.00826721173
v 0.0507680364 0.00275599118 0.000285644521
v 0.0532754399 0.00276120543 -0.00826721173
v 0.0536990725 0.0111010717 -0.00185485836
v 0.0555705167 0.0109841032 -0.00826721173
v 0.0693050623 -0.0436476953 -0.00398254395
v 0.0732872933 -0.0465216041 -0.00826721173
v 0.0613191389 -0.0427371673 -0.00826721173
v 0.0580814444 -0.040098913 -0.00552368164
v 0.0436774641 -0.0404835455 -0.00826721173
v 0.0420309342 -0.037198972 0.000285644521
v 0.0170789771 -0.0557251349 -0.00826721173
v 0.0196008645 -0.0518093854 -0.0029595946
v 0.00726138102 -0.075778231 -0.00826721173
v 0.00767916208 -0.0706180111 0.000285644521
v 0.0784629881 -0.0392664932 0.000285644521
v 0.0912325457 -0.0456860811 -0.00826721173
v 0.0861340091 -0.0428642593 0.000285644521
v 0.0830527321 -0.0418496616 -0.00826721173
v 0.070175454 -0.0409700684 -0.00398254395
v 0.0742154941 -0.0436664 -0.00826721173
v 0.0593688563 -0.0374806598 -0.00552368164
v 0.0626919791 -0.0399453491 -0.00826721173
v 0.0834892243 -0.0535985902 0.000285644521
v 0.088412419 -0.0571323857 -0.00826721173
v 0.0796977729 -0.0539057814 -0.00826721173
v 0.0753167197 -0.05057244 0.000285644521
v 0.0732872933 -0.0465216041 -0.00826721173
v 0.0693050623 -0.0436476953 -0.00398254395
v 0.0861340091 -0.0428642593 0.000285644521
v 0.0912325457 -0.0456860811 -0.00826721173
v 0.088412419 -0.0571323857 -0.00826721173
v 0.0834892243 -0.0535985902 0.000285644521
v 0.0401778221 0.0135242511 0.001953125
v 0.0535103343 0.0142593263 -0.00826721173
v 0.0517628454 0.0141691398 -0.00185485836
v 0.0442926362 0.0153581565 -0.00826721173
v 0.0259038303 0.0288514029 0.0059967041
v 0.0280483756 0.0299777258 -0.00826721173
v 0.0174409598 0.0494193211 0.000285644521
v 0.0179848783 0.052644901 -0.00826721173
v 0.0686651394 0.0184744783 -0.00456970185
v 0.0555705167 0.0109841032 -0.00826721173
v 0.0536990725 0.0111010717 -0.00185485836
v 0.0707678273 0.0188551024 -0.00826721173
v 0.0835885331 0.0166052692 0.000285644521
v 0.0894132778 0.0184569024 -0.00826721173
v 0.0951666832 0.0258719195 0.000285644521
v 0.10175968 0.0283381976 -0.00826721173
v 0.0517628454 0.0141691398 -0.00185485836
v 0.0535103343 0.0142593263 -0.00826721173
v 0.0689577609 0.0219558403 -0.00826721173
v 0.0669677183 0.021382302 -0.00456970185
v 0.0809130445 0.0396277905 -0.00826721173
v 0.0756170601 0.0364589654 0.000285644521
v 0.0958468392 0.0415169038 -0.00826721173
v 0.0896217898 0.0382303894 0.000285644521
v 0.0285687577 0.0779885501 -0.00311889639
v 0.0179848783 0.052644901 -0.00826721173
v 0.0174409598 0.0494193211 0.000285644521
v 0.0308337323 0.0824087635 -0.00826721173
v 0.0406919383 0.0850279853 0.000285644521
v 0.0427478775 0.0916507319 -0.00826721173
v 0.0438622944 0.107400835 0.000285644521
v 0.0461286567 0.11550767 -0.00826721173
v 0.0037671919 -0.0698629618 0.000285644521
v -0.00677470909 -0.054641407 -0.00826721173
v -0.00561083201 -0.0509860031 -0.00362609862
v 0.00308969454 -0.0749726817 -0.00826721173
v 0.00408721156 -0.0934151188 -0.00448120106
v 0.00343087642 -0.100087516 -0.00826721173
v -0.00211130618 -0.103660546 0.000285644521
v -0.00317881093 -0.11101263 -0.00826721173
v 0.00232640747 -0.112495512 0.000285644521
v 0.00155324454 -0.120433748 -0.00826721173
v 0.00767916208 -0.0706180111 0.000285644521
v 0.00726138102 -0.075778231 -0.00826721173
v 0.00776095362 -0.0994333327 -0.00826721173
v 0.00814777333 -0.0928016677 -0.00448120106
v 0.0160480831 -0.109098382 -0.00826721173
v 0.0159192272 -0.101865269 0.000285644521
v 0.013050165 -0.11874976 -0.00826721173
v 0.0131081436 -0.110916339 0.000285644521
vt 0.899414062 0.14074707
vt 0.901367188 0.14050293
vt 0.901855469 0.139282227
vt 0.917480469 0.139526367
vt 0.91796875 0.138427734
vt 0.916992188 0.138427734
vt 0.916503906 0.139526367
vt 0.915527344 0.138793945
vt 0.915527344 0.139160156
vt 0.9140625 0.139282227
vt 0.9140625 0.138916016
vt 0.912109375 0.138305664
vt 0.912109375 0.139648438
vt 0.91015625 0.139038086
vt 0.910644531 0.141357422
vt 0.91015625 0.135131836
vt 0.908691406 0.140136719
vt 0.910644531 0.143554688
vt 0.909179688 0.13671875
vt 0.907714844 0.13671875
vt 0.906738281 0.140625
vt 0.907226562 0.133789062
vt 0.905273438 0.137084961
vt 0.909179688 0.132080078
vt 0.909667969 0.132202148
vt 0.910644531 0.129394531
vt 0.91015625 0.129150391
vt 0.91015625 0.127563477
vt 0.911621094 0.128173828
vt 0.910644531 0.126708984
vt 0.911621094 0.127197266
vt 0.911132812 0.125366211
vt 0.912597656 0.125976562
vt 0.904785156 0.141357422
vt 0.908691406 0.144165039
vt 0.91015625 0.145019531
vt 0.910644531 0.14465332
vt 0.911621094 0.146606445
vt 0.912109375 0.146240234
vt 0.912597656 0.148803711
vt 0.9140625 0.147338867
vt 0.914550781 0.148681641
vt 0.913574219 0.149780273
vt 0.916015625 0.149536133
vt 0.9140625 0.151000977
vt 0.905761719 0.144897461
vt 0.903320312 0.137939453
vt 0.903320312 0.142089844
vt 0.904296875 0.134521484
vt 0.903808594 0.133544922
vt 0.906738281 0.133056641
vt 0.901367188 0.134521484
vt 0.901855469 0.135742188
vt 0.901855469 0.139282227
vt 0.903320312 0.144897461
vt 0.903808594 0.147094727
vt 0.903320312 0.146972656
vt 0.901367188 0.150512695
vt 0.902832031 0.150878906
vt 0.900390625 0.151611328
vt 0.902832031 0.152709961
vt 0.901367188 0.154907227
vt 0.899414062 0.154174805
vt 0.901367188 0.156494141
vt 0.8984375 0.155273438
vt 0.901855469 0.143432617
vt 0.90234375 0.141845703
vt 0.901367188 0.14050293
vt 0.899414062 0.14074707
vt 0.899902344 0.137695312
vt 0.898925781 0.135498047
vt 0.898925781 0.140991211
vt 0.900878906 0.143920898
vt 0.898925781 0.135742188
vt 0.896972656 0.133422852
vt 0.896484375 0.134399414
vt 0.895507812 0.132446289
vt 0.895019531 0.133789062
vt 0.89453125 0.133056641
vt 0.895019531 0.132324219
vt 0.893066406 0.132324219
vt 0.894042969 0.131469727
vt 0.895019531 0.131103516
vt 0.904296875 0.134521484
vt 0.901367188 0.134521484
vt 0.901855469 0.135742188
vt 0.898925781 0.134155273
vt 0.898925781 0.135498047
vt 0.896484375 0.132446289
vt 0.896972656 0.133422852
vt 0.895019531 0.131103516
vt 0.895507812 0.132446289
vt 0.899902344 0.137695312
vt 0.898925781 0.137817383
vt 0.898925781 0.140991211
vt 0.898925781 0.135742188
vt 0.897460938 0.136108398
vt 0.896484375 0.134399414
vt 0.895507812 0.134765625
vt 0.895019531 0.133789062
vt 0.893554688 0.133789062
vt 0.89453125 0.133056641
vt 0.893066406 0.132324219
vt 0.899414062 0.14074707
vt 0.900878906 0.143920898
vt 0.901855469 0.143432617
vt 0.90234375 0.145629883
vt 0.903320312 0.144897461
vt 0.90234375 0.147094727
vt 0.903320312 0.146972656
vt 0.900390625 0.150512695
vt 0.901367188 0.150512695
vt 0.898925781 0.151977539
vt 0.900390625 0.151611328
vt 0.8984375 0.155273438
vt 0.899414062 0.154174805
vt 0.912109375 0.139648438
vt 0.914550781 0.139526367
vt 0.9140625 0.139282227
vt 0.913085938 0.140258789
vt 0.910644531 0.141357422
vt 0.911621094 0.141723633
vt 0.910644531 0.143554688
vt 0.911621094 0.143676758
vt 0.910644531 0.14465332
vt 0.911621094 0.14453125
vt 0.915527344 0.138793945
vt 0.916015625 0.137817383
vt 0.914550781 0.138549805
vt 0.9140625 0.138916016
vt 0.912597656 0.137573242
vt 0.912109375 0.138305664
vt 0.910644531 0.134277344
vt 0.91015625 0.135131836
vt 0.910644531 0.131591797
vt 0.909667969 0.132202148
vt 0.916503906 0.139526367
vt 0.918945312 0.139770508
vt 0.917480469 0.139526367
vt 0.917480469 0.14050293
vt 0.915527344 0.139160156
vt 0.916015625 0.140136719
vt 0.9140625 0.139282227
vt 0.914550781 0.139526367
vt 0.91796875 0.138427734
vt 0.918945312 0.137939453
vt 0.917480469 0.137329102
vt 0.916992188 0.138427734
vt 0.916015625 0.137817383
vt 0.915527344 0.138793945
vt 0.917480469 0.139526367
vt 0.918945312 0.139770508
vt 0.918945312 0.137939453
vt 0.91796875 0.138427734
vt 0.908691406 0.144165039
vt 0.91015625 0.145874023
vt 0.91015625 0.145019531
vt 0.909179688 0.145629883
vt 0.905761719 0.144897461
vt 0.906738281 0.146484375
vt 0.903808594 0.147094727
vt 0.904296875 0.148071289
vt 0.912109375 0.146240234
vt 0.911621094 0.14453125
vt 0.910644531 0.14465332
vt 0.912597656 0.145996094
vt 0.9140625 0.147338867
vt 0.915039062 0.147094727
vt 0.914550781 0.148681641
vt 0.916015625 0.149536133
vt 0.91015625 0.145019531
vt 0.91015625 0.145874023
vt 0.911132812 0.147094727
vt 0.911621094 0.146606445
vt 0.912109375 0.150024414
vt 0.912597656 0.148803711
vt 0.9140625 0.151000977
vt 0.913574219 0.149780273
vt 0.902832031 0.150878906
vt 0.904296875 0.148071289
vt 0.903808594 0.147094727
vt 0.903320312 0.151611328
vt 0.902832031 0.152709961
vt 0.903320312 0.153808594
vt 0.901367188 0.154907227
vt 0.901367188 0.156494141
vt 0.909179688 0.132080078
vt 0.906738281 0.133056641
vt 0.907226562 0.133789062
vt 0.908691406 0.131103516
vt 0.91015625 0.129150391
vt 0.909667969 0.128173828
vt 0.91015625 0.127563477
vt 0.909667969 0.126220703
vt 0.910644531 0.126708984
vt 0.911132812 0.125366211
vt 0.909667969 0.132202148
vt 0.910644531 0.131591797
vt 0.911621094 0.12890625
vt 0.910644531 0.129394531
vt 0.912597656 0.127563477
vt 0.911621094 0.128173828
vt 0.912597656 0.125976562
vt 0.911621094 0.127197266
vn -0.394042969 0.470947266 0.7890625
vn -0.159545898 0.32421875 0.932617188
vn -0.110595703 0.228515625 0.967285156
vn 0.589355469 0.328613281 0.737792969
vn 0.304931641 -0.540039062 0.784179688
vn -0.493164062 -0.493408203 0.716308594
vn -0.0456848145 0.764648438 0.643066406
vn -0.566894531 -0.467773438 0.678222656
vn -0.185546875 0.904785156 0.383789062
vn 0.587402344 0.375976562 0.716308594
vn 0.055847168 -0.65625 0.752441406
vn 0.0979614258 -0.307617188 0.946289062
vn 0.309570312 0.141723633 0.940429688
vn 0.113098145 -0.0520324707 0.9921875
vn 0.331787109 -0.12298584 0.935546875
vn 0.276611328 -0.420654297 0.863769531
vn 0.104064941 -0.0446166992 0.993652344
vn 0.380371094 -0.187744141 0.905761719
vn 0.178710938 -0.197143555 0.963867188
vn -0.0283050537 -0.133911133 0.990722656
vn 0.0497741699 -0.0263824463 0.998535156
vn -0.294189453 -0.274169922 0.915527344
vn -0.0628051758 -0.140625 0.98828125
vn -0.400146484 -0.0281219482 0.916015625
vn 0.449707031 -0.0939331055 0.888183594
vn 0.809570312 0.272460938 0.520019531
vn -0.764160156 0.192138672 0.615722656
vn -0.678710938 0.256835938 0.687988281
vn 0.673828125 0.399169922 0.621582031
vn -0.256103516 -0.438964844 0.861328125
vn 0.386474609 -0.375 0.842773438
vn -0.225708008 -0.703613281 0.673828125
vn 0.354003906 -0.690917969 0.630371094
vn 0.0232849121 0.00787353516 0.999511719
vn 0.231689453 0.146484375 0.961914062
vn 0.0668945312 0.750488281 0.657226562
vn 0.567871094 -0.203125 0.797851562
vn -0.618164062 0.425048828 0.661132812
vn -0.0501098633 -0.62890625 0.775878906
vn -0.465576172 0.420410156 0.778808594
vn 0.0232391357 -0.567382812 0.823242188
vn 0.458740234 -0.189941406 0.868164062
vn 0.179077148 0.446044922 0.876953125
vn 0.799316406 -0.0639038086 0.59765625
vn 0.498779297 0.623046875 0.602539062
vn 0.250488281 0.207397461 0.945800781
vn -0.0347595215 -0.0942382812 0.995117188
vn -0.10559082 0.126708984 0.986328125
vn -0.306396484 -0.369384766 0.877441406
vn -0.507324219 -0.507324219 0.696777344
vn -0.689941406 -0.466308594 0.553710938
vn -0.490722656 -0.720703125 0.489990234
vn -0.279785156 -0.350830078 0.893554688
vn -0.110595703 0.228515625 0.967285156
vn -0.310302734 0.280761719 0.908203125
vn 0.604492188 0.225341797 0.764160156
vn -0.592285156 0.27734375 0.756347656
vn -0.723144531 -0.0161743164 0.690429688
vn 0.576171875 -0.439453125 0.689453125
vn -0.426513672 -0.0472412109 0.903320312
vn 0.331054688 -0.271484375 0.903808594
vn 0.415283203 0.150878906 0.896972656
vn -0.22253418 0.329589844 0.917480469
vn 0.526367188 0.54296875 0.654296875
vn -0.184204102 0.711914062 0.677734375
vn -0.243286133 0.447998047 0.860351562
vn -0.203613281 0.105651855 0.973144531
vn -0.159545898 0.32421875 0.932617188
vn -0.394042969 0.470947266 0.7890625
vn -0.378662109 0.281738281 0.881835938
vn -0.185180664 -0.498291016 0.847167969
vn -0.571289062 0.635253906 0.520019531
vn -0.322753906 0.848144531 0.419921875
vn -0.284667969 0.426025391 0.858886719
vn 0.261474609 -0.63671875 0.725585938
vn 0.234985352 0.770996094 0.591796875
vn 0.238037109 -0.629394531 0.739746094
vn 0.255371094 0.73046875 0.633300781
vn -0.497802734 0.280273438 0.820800781
vn -0.451660156 -0.250976562 0.855957031
vn -0.743652344 0.252929688 0.618652344
vn -0.698730469 -0.301025391 0.648925781
vn -0.259033203 -0.883300781 0.390380859
vn -0.306396484 -0.369384766 0.877441406
vn -0.490722656 -0.720703125 0.489990234
vn -0.279785156 -0.350830078 0.893554688
vn -0.0783691406 -0.971191406 0.225097656
vn -0.185180664 -0.498291016 0.847167969
vn 0.325195312 -0.944335938 -0.0534973145
vn 0.261474609 -0.63671875 0.725585938
vn -0.259033203 -0.883300781 0.390380859
vn 0.238037109 -0.629394531 0.739746094
vn -0.378662109 0.281738281 0.881835938
vn -0.687988281 0.611328125 0.390625
vn -0.571289062 0.635253906 0.520019531
vn -0.284667969 0.426025391 0.858886719
vn -0.222900391 0.973632812 -0.0504150391
vn 0.234985352 0.770996094 0.591796875
vn 0.248046875 0.880371094 -0.404052734
vn 0.255371094 0.73046875 0.633300781
vn -0.33984375 0.927734375 0.154663086
vn -0.497802734 0.280273438 0.820800781
vn -0.743652344 0.252929688 0.618652344
vn -0.394042969 0.470947266 0.7890625
vn -0.322753906 0.848144531 0.419921875
vn -0.243286133 0.447998047 0.860351562
vn -0.707519531 0.683105469 0.180541992
vn -0.310302734 0.280761719 0.908203125
vn -0.95703125 0.2890625 0.0123519897
vn -0.592285156 0.27734375 0.756347656
vn -0.962402344 -0.0918579102 -0.256347656
vn -0.723144531 -0.0161743164 0.690429688
vn -0.932617188 0.306640625 0.189208984
vn -0.426513672 -0.0472412109 0.903320312
vn -0.184204102 0.711914062 0.677734375
vn -0.22253418 0.329589844 0.917480469
vn 0.309570312 0.141723633 0.940429688
vn 0.419433594 0.876953125 -0.233520508
vn 0.587402344 0.375976562 0.716308594
vn 0.846679688 0.506835938 0.161987305
vn 0.331787109 -0.12298584 0.935546875
vn 0.967285156 -0.00849151611 0.253173828
vn 0.380371094 -0.187744141 0.905761719
vn 0.897460938 -0.349609375 0.268554688
vn 0.567871094 -0.203125 0.797851562
vn 0.698242188 -0.681152344 0.220092773
vn -0.566894531 -0.467773438 0.678222656
vn -0.673339844 -0.737304688 -0.053894043
vn -0.210205078 -0.889648438 0.405273438
vn 0.055847168 -0.65625 0.752441406
vn 0.291259766 -0.859863281 0.419189453
vn 0.0979614258 -0.307617188 0.946289062
vn 0.756835938 -0.612792969 0.22644043
vn 0.276611328 -0.420654297 0.863769531
vn 0.984375 -0.174804688 -0.00778198242
vn 0.449707031 -0.0939331055 0.888183594
vn -0.0456848145 0.764648438 0.643066406
vn 0.869628906 0.116027832 0.479980469
vn 0.589355469 0.328613281 0.737792969
vn 0.263671875 0.946777344 -0.18371582
vn -0.185546875 0.904785156 0.383789062
vn -0.00450134277 0.911621094 -0.411376953
vn 0.587402344 0.375976562 0.716308594
vn 0.419433594 0.876953125 -0.233520508
vn 0.304931641 -0.540039062 0.784179688
vn 0.579101562 -0.580078125 0.572753906
vn -0.475341797 -0.875488281 0.0856933594
vn -0.493164062 -0.493408203 0.716308594
vn -0.673339844 -0.737304688 -0.053894043
vn -0.566894531 -0.467773438 0.678222656
vn 0.589355469 0.328613281 0.737792969
vn 0.869628906 0.116027832 0.479980469
vn 0.579101562 -0.580078125 0.572753906
vn 0.304931641 -0.540039062 0.784179688
vn 0.231689453 0.146484375 0.961914062
vn -0.250976562 0.967773438 -0.00835418701
vn 0.0668945312 0.750488281 0.657226562
vn 0.533691406 0.8125 0.23449707
vn 0.250488281 0.207397461 0.945800781
vn 0.8046875 0.549804688 0.224731445
vn 0.604492188 0.225341797 0.764160156
vn 0.996582031 -0.021484375 0.078125
vn -0.0501098633 -0.62890625 0.775878906
vn 0.698242188 -0.681152344 0.220092773
vn 0.567871094 -0.203125 0.797851562
vn 0.101989746 -0.988769531 -0.108276367
vn 0.0232391357 -0.567382812 0.823242188
vn 0.456542969 -0.879882812 0.130859375
vn 0.458740234 -0.189941406 0.868164062
vn 0.799316406 -0.0639038086 0.59765625
vn 0.0668945312 0.750488281 0.657226562
vn -0.250976562 0.967773438 -0.00835418701
vn -0.717285156 0.646972656 -0.259033203
vn -0.618164062 0.425048828 0.661132812
vn -0.380371094 0.919433594 0.0992431641
vn -0.465576172 0.420410156 0.778808594
vn 0.498779297 0.623046875 0.602539062
vn 0.179077148 0.446044922 0.876953125
vn 0.576171875 -0.439453125 0.689453125
vn 0.996582031 -0.021484375 0.078125
vn 0.604492188 0.225341797 0.764160156
vn 0.731445312 -0.624023438 -0.275146484
vn 0.331054688 -0.271484375 0.903808594
vn 0.958496094 -0.284179688 0.0145568848
vn 0.415283203 0.150878906 0.896972656
vn 0.526367188 0.54296875 0.654296875
vn -0.400146484 -0.0281219482 0.916015625
vn -0.689941406 -0.466308594 0.553710938
vn -0.294189453 -0.274169922 0.915527344
vn -0.958496094 -0.167114258 0.230102539
vn -0.764160156 0.192138672 0.615722656
vn -0.90625 0.333251953 -0.260742188
vn -0.678710938 0.256835938 0.687988281
vn -0.955078125 -0.179199219 0.235961914
vn -0.256103516 -0.438964844 0.861328125
vn -0.225708008 -0.703613281 0.673828125
vn 0.449707031 -0.0939331055 0.888183594
vn 0.984375 -0.174804688 -0.00778198242
vn 0.800292969 0.385986328 -0.459228516
vn 0.809570312 0.272460938 0.520019531
vn 0.999023438 -0.0145568848 -0.0395507812
vn 0.673828125 0.399169922 0.621582031
vn 0.354003906 -0.690917969 0.630371094
vn 0.386474609 -0.375 0.842773438
g Paint_Splas_Yellow_0
f 3/3/3 2/2/2 1/1/1
f 6/6/6 5/5/5 4/4/4
f 7/7/7 6/6/6 4/4/4
f 8/8/8 6/6/6 7/7/7
f 9/9/9 8/8/8 7/7/7
f 9/9/9 10/10/10 8/8/8
f 10/10/10 11/11/11 8/8/8
f 12/12/12 11/11/11 10/10/10
f 13/13/13 12/12/12 10/10/10
f 12/12/12 13/13/13 14/14/14
f 13/13/13 15/15/15 14/14/14
f 12/12/12 14/14/14 16/16/16
f 17/17/17 14/14/14 15/15/15
f 18/18/18 17/17/17 15/15/15
f 14/14/14 19/19/19 16/16/16
f 14/14/14 17/17/17 19/19/19
f 17/17/17 20/20/20 19/19/19
f 19/19/19 20/20/20 16/16/16
f 17/17/17 18/18/18 21/21/21
f 17/17/17 21/21/21 20/20/20
f 20/20/20 22/22/22 16/16/16
f 21/21/21 23/23/23 20/20/20
f 20/20/20 23/23/23 22/22/22
f 16/16/16 22/22/22 24/24/24
f 25/25/25 16/16/16 24/24/24
f 25/25/25 24/24/24 26/26/26
f 24/24/24 27/27/27 26/26/26
f 26/26/26 27/27/27 28/28/28
f 29/29/29 26/26/26 28/28/28
f 29/29/29 28/28/28 30/30/30
f 31/31/31 29/29/29 30/30/30
f 30/30/30 32/32/32 31/31/31
f 32/32/32 33/33/33 31/31/31
f 21/21/21 34/34/34 23/23/23
f 21/21/21 35/35/35 34/34/34
f 18/18/18 35/35/35 21/21/21
f 35/35/35 18/18/18 36/36/36
f 18/18/18 37/37/37 36/36/36
f 38/38/38 36/36/36 37/37/37
f 39/39/39 38/38/38 37/37/37
f 40/40/40 38/38/38 39/39/39
f 41/41/41 40/40/40 39/39/39
f 40/40/40 41/41/41 42/42/42
f 43/43/43 40/40/40 42/42/42
f 42/42/42 44/44/44 43/43/43
f 44/44/44 45/45/45 43/43/43
f 35/35/35 46/46/46 34/34/34
f 34/34/34 47/47/47 23/23/23
f 48/48/48 34/34/34 46/46/46
f 47/47/47 34/34/34 48/48/48
f 23/23/23 47/47/47 49/49/49
f 23/23/23 49/49/49 22/22/22
f 49/49/49 50/50/50 22/22/22
f 50/50/50 51/51/51 22/22/22
f 52/52/52 50/50/50 49/49/49
f 47/47/47 53/53/53 49/49/49
f 47/47/47 54/54/54 53/53/53
f 54/54/54 47/47/47 48/48/48
f 55/55/55 48/48/48 46/46/46
f 46/46/46 56/56/56 55/55/55
f 56/56/56 57/57/57 55/55/55
f 57/57/57 56/56/56 58/58/58
f 56/56/56 59/59/59 58/58/58
f 60/60/60 58/58/58 59/59/59
f 61/61/61 60/60/60 59/59/59
f 60/60/60 61/61/61 62/62/62
f 63/63/63 60/60/60 62/62/62
f 62/62/62 64/64/64 63/63/63
f 64/64/64 65/65/65 63/63/63
f 55/55/55 66/66/66 48/48/48
f 66/66/66 67/67/67 48/48/48
f 54/54/54 48/48/48 67/67/67
f 68/68/68 67/67/67 66/66/66
f 68/68/68 54/54/54 67/67/67
f 69/69/69 68/68/68 66/66/66
f 70/70/70 54/54/54 69/69/69
f 54/54/54 70/70/70 53/53/53
f 71/71/71 53/53/53 70/70/70
f 69/69/69 72/72/72 70/70/70
f 73/73/73 72/72/72 69/69/69
f 74/74/74 71/71/71 70/70/70
f 75/75/75 71/71/71 74/74/74
f 76/76/76 75/75/75 74/74/74
f 75/75/75 76/76/76 77/77/77
f 76/76/76 78/78/78 77/77/77
f 77/77/77 78/78/78 79/79/79
f 80/80/80 77/77/77 79/79/79
f 79/79/79 81/81/81 80/80/80
f 81/81/81 82/82/82 80/80/80
f 80/80/80 82/82/82 77/77/77
f 82/82/82 83/83/83 77/77/77
f 86/86/86 85/85/85 84/84/84
f 87/87/87 85/85/85 86/86/86
f 88/88/88 87/87/87 86/86/86
f 89/89/89 87/87/87 88/88/88
f 90/90/90 89/89/89 88/88/88
f 91/91/91 89/89/89 90/90/90
f 92/92/92 91/91/91 90/90/90
f 95/95/95 94/94/94 93/93/93
f 93/93/93 94/94/94 96/96/96
f 94/94/94 97/97/97 96/96/96
f 96/96/96 97/97/97 98/98/98
f 97/97/97 99/99/99 98/98/98
f 98/98/98 99/99/99 100/100/100
f 99/99/99 101/101/101 100/100/100
f 100/100/100 101/101/101 102/102/102
f 101/101/101 103/103/103 102/102/102
f 106/106/106 105/105/105 104/104/104
f 107/107/107 105/105/105 106/106/106
f 108/108/108 107/107/107 106/106/106
f 109/109/109 107/107/107 108/108/108
f 110/110/110 109/109/109 108/108/108
f 111/111/111 109/109/109 110/110/110
f 112/112/112 111/111/111 110/110/110
f 113/113/113 111/111/111 112/112/112
f 114/114/114 113/113/113 112/112/112
f 115/115/115 113/113/113 114/114/114
f 116/116/116 115/115/115 114/114/114
f 119/119/119 118/118/118 117/117/117
f 118/118/118 120/120/120 117/117/117
f 117/117/117 120/120/120 121/121/121
f 120/120/120 122/122/122 121/121/121
f 121/121/121 122/122/122 123/123/123
f 122/122/122 124/124/124 123/123/123
f 123/123/123 124/124/124 125/125/125
f 124/124/124 126/126/126 125/125/125
f 129/129/129 128/128/128 127/127/127
f 130/130/130 129/129/129 127/127/127
f 131/131/131 129/129/129 130/130/130
f 132/132/132 131/131/131 130/130/130
f 133/133/133 131/131/131 132/132/132
f 134/134/134 133/133/133 132/132/132
f 135/135/135 133/133/133 134/134/134
f 136/136/136 135/135/135 134/134/134
f 139/139/139 138/138/138 137/137/137
f 138/138/138 140/140/140 137/137/137
f 137/137/137 140/140/140 141/141/141
f 140/140/140 142/142/142 141/141/141
f 141/141/141 142/142/142 143/143/143
f 142/142/142 144/144/144 143/143/143
f 147/147/147 146/146/146 145/145/145
f 148/148/148 147/147/147 145/145/145
f 149/149/149 147/147/147 148/148/148
f 150/150/150 149/149/149 148/148/148
f 153/153/153 152/152/152 151/151/151
f 154/154/154 153/153/153 151/151/151
f 157/157/157 156/156/156 155/155/155
f 156/156/156 158/158/158 155/155/155
f 155/155/155 158/158/158 159/159/159
f 158/158/158 160/160/160 159/159/159
f 159/159/159 160/160/160 161/161/161
f 160/160/160 162/162/162 161/161/161
f 165/165/165 164/164/164 163/163/163
f 164/164/164 166/166/166 163/163/163
f 163/163/163 166/166/166 167/167/167
f 166/166/166 168/168/168 167/167/167
f 167/167/167 168/168/168 169/169/169
f 168/168/168 170/170/170 169/169/169
f 173/173/173 172/172/172 171/171/171
f 174/174/174 173/173/173 171/171/171
f 175/175/175 173/173/173 174/174/174
f 176/176/176 175/175/175 174/174/174
f 177/177/177 175/175/175 176/176/176
f 178/178/178 177/177/177 176/176/176
f 181/181/181 180/180/180 179/179/179
f 180/180/180 182/182/182 179/179/179
f 179/179/179 182/182/182 183/183/183
f 182/182/182 184/184/184 183/183/183
f 183/183/183 184/184/184 185/185/185
f 184/184/184 186/186/186 185/185/185
f 189/189/189 188/188/188 187/187/187
f 188/188/188 190/190/190 187/187/187
f 187/187/187 190/190/190 191/191/191
f 190/190/190 192/192/192 191/191/191
f 191/191/191 192/192/192 193/193/193
f 192/192/192 194/194/194 193/193/193
f 193/193/193 194/194/194 195/195/195
f 194/194/194 196/196/196 195/195/195
f 199/199/199 198/198/198 197/197/197
f 200/200/200 199/199/199 197/197/197
f 201/201/201 199/199/199 200/200/200
f 202/202/202 201/201/201 200/200/200
f 203/203/203 201/201/201 202/202/202
f 204/204/204 203/203/203 202/202/202
