g IS4_MDL_EscenarioPB_Ventanal_Rejas_1
v -0.0293492377 1.49634743 0.0264806952
v -0.0293492377 1.49634743 -0.0264807288
v 0.0286341589 1.49634743 -0.0264807288
v -0.0293492377 1.49634743 0.0264806952
v 0.0286341589 1.49634743 -0.0264807288
v 0.0286341589 1.49634743 0.0264806952
v -0.659603119 -0.0179500412 -0.0264807288
v -0.659603119 0.67419827 -0.0264807288
v -0.659603119 0.67419827 0.0264513995
v -0.659603119 -0.0179500356 0.0264513995
v 0.615655601 0.67419827 -0.0264807288
v 0.615655601 -0.0179500356 -0.0264807288
v 0.665196657 -0.0179500356 -0.0264807288
v 0.665196657 0.67419827 -0.0264807288
v 0.665196657 -0.0179500356 0.0264513995
v 0.665196657 0.67419827 0.0264513995
v 0.665196657 0.67419827 -0.0264807288
v 0.665196657 -0.0179500356 -0.0264807288
v 0.615655601 -0.0179500356 0.0264513995
v 0.615655601 0.67419827 0.0264513995
v 0.665196657 0.67419827 0.0264513995
v 0.665196657 -0.0179500356 0.0264513995
v -0.659603119 -0.0179500356 0.0264513995
v -0.659603119 0.67419827 0.0264513995
v -0.610662699 0.67419827 0.0264513995
v -0.610662699 -0.0179500356 0.0264513995
v -0.659603119 0.67419827 -0.0264807288
v -0.659603119 -0.0179500412 -0.0264807288
v -0.610662699 -0.0179500412 -0.0264807288
v -0.610662699 0.67419827 -0.0264807288
v -0.356688112 -0.0179500356 0.0264513995
v -0.356688112 0.67419827 0.0264513995
v -0.302718371 0.67419827 0.0264513995
v -0.302718371 -0.0179500356 0.0264513995
v -0.356688112 0.67419827 -0.0264807288
v -0.356688112 -0.0179500356 -0.0264807288
v -0.302718371 -0.0179500356 -0.0264807288
v -0.302718371 0.67419827 -0.0264807288
v -0.0363072455 -0.0179500356 0.0264513995
v -0.0363072455 0.67419827 0.0264513995
v 0.0210755654 0.67419827 0.0264513995
v 0.0210755654 -0.0179500356 0.0264513995
v -0.0363072455 0.67419827 -0.0264807288
v -0.0363072455 -0.0179500412 -0.0264807288
v 0.0210755654 -0.0179500412 -0.0264807288
v 0.0210755654 0.67419827 -0.0264807288
v 0.309923232 -0.0179500356 0.0264513995
v 0.309923232 0.67419827 0.0264513995
v 0.360489607 0.67419827 0.0264513995
v 0.360489607 -0.0179500356 0.0264513995
v 0.309923232 0.67419827 -0.0264807288
v 0.309923232 -0.0179500356 -0.0264807288
v 0.360489607 -0.0179500356 -0.0264807288
v 0.360489607 0.67419827 -0.0264807288
v 0.309923232 -0.0179500356 0.0264513995
v 0.309923232 -0.0179500356 -0.0264807288
v 0.309923232 0.67419827 -0.0264807288
v 0.309923232 0.67419827 0.0264513995
v 0.0210755654 0.67419827 0.0264513995
v 0.0210755654 0.67419827 -0.0264807288
v 0.0210755654 -0.0179500412 -0.0264807288
v 0.0210755654 -0.0179500356 0.0264513995
v -0.0363072455 -0.0179500356 0.0264513995
v -0.0363072455 -0.0179500412 -0.0264807288
v -0.0363072455 0.67419827 -0.0264807288
v -0.0363072455 0.67419827 0.0264513995
v -0.302718371 0.67419827 0.0264513995
v -0.302718371 0.67419827 -0.0264807288
v -0.302718371 -0.0179500356 -0.0264807288
v -0.302718371 -0.0179500356 0.0264513995
v -0.356688112 -0.0179500356 0.0264513995
v -0.356688112 -0.0179500356 -0.0264807288
v -0.356688112 0.67419827 -0.0264807288
v -0.356688112 0.67419827 0.0264513995
v -0.610662699 0.67419827 0.0264513995
v -0.610662699 0.67419827 -0.0264807288
v -0.610662699 -0.0179500412 -0.0264807288
v -0.610662699 -0.0179500356 0.0264513995
v 0.360489607 0.67419827 0.0264513995
v 0.360489607 0.67419827 -0.0264807288
v 0.360489607 -0.0179500356 -0.0264807288
v 0.360489607 -0.0179500356 0.0264513995
v 0.615655601 -0.0179500356 0.0264513995
v 0.615655601 -0.0179500356 -0.0264807288
v 0.615655601 0.67419827 -0.0264807288
v 0.615655601 0.67419827 0.0264513995
v 0.615655601 -1.49634778 0.0264513995
v 0.665196657 -1.44634163 0.0264513995
v 0.665196657 -1.49634778 0.0264513995
v 0.615655601 -1.44634163 0.0264513995
v 0.360489607 -1.49634778 0.0264513995
v 0.665196657 -0.799673319 0.0264513995
v 0.360489607 -1.44634163 0.0264513995
v 0.615655601 -0.799673319 0.0264513995
v 0.309923232 -1.49634778 0.0264513995
v 0.665196657 -0.756195486 0.0264513995
v 0.309923232 -1.44634163 0.0264513995
v 0.0210755654 -1.49634778 0.0264513995
v 0.360489607 -0.799673319 0.0264513995
v 0.615655601 -0.756195486 0.0264513995
v 0.665196657 -0.0659098104 0.0264513995
v 0.0210755654 -1.44634163 0.0264513995
v -0.0363072455 -1.49634778 0.0264513995
v -0.0363072455 -1.44634163 0.0264513995
v 0.0210755654 -0.799673319 0.0264513995
v 0.309923232 -0.799673319 0.0264513995
v -0.0363072455 -0.799673319 0.0264513995
v 0.360489607 -0.756195486 0.0264513995
v 0.615655601 -0.0659098104 0.0264513995
v 0.309923232 -0.756195486 0.0264513995
v 0.360489607 -0.0659098104 0.0264513995
v 0.0210755654 -0.756195486 0.0264513995
v -0.0363072455 -0.756195486 0.0264513995
v 0.0210755654 -0.0659098104 0.0264513995
v -0.0363072455 -0.0659098104 0.0264513995
v -0.0363072455 -0.0179499257 0.0264513995
v 0.0210755654 -0.0179499257 0.0264513995
v 0.309923232 -0.0659098104 0.0264513995
v 0.309923232 -0.0179499257 0.0264513995
v 0.360489607 -0.0179499257 0.0264513995
v 0.615655601 -0.0179499257 0.0264513995
v 0.665196657 -0.0179499257 0.0264513995
v 0.615655601 -0.0179499257 0.0264513995
v 0.615655601 -0.0179499257 -0.0264807288
v 0.665196657 -0.0179499257 -0.0264807288
v 0.665196657 -0.0179499257 0.0264513995
v 0.615655601 -1.49634778 -0.0264807288
v 0.665196657 -1.49634778 0.0264513995
v 0.665196657 -1.49634778 -0.0264807288
v 0.615655601 -1.49634778 0.0264513995
v 0.360489607 -1.49634778 -0.0264807288
v 0.360489607 -1.49634778 0.0264513995
v 0.309923232 -1.49634778 -0.0264807288
v 0.309923232 -1.49634778 0.0264513995
v 0.0210755654 -1.49634778 -0.0264807288
v 0.0210755654 -1.49634778 0.0264513995
v -0.0363072455 -1.49634778 -0.0264807288
v -0.0363072455 -1.49634778 0.0264513995
v 0.665196657 -1.49634778 0.0264513995
v 0.665196657 -1.44634163 -0.0264807288
v 0.665196657 -1.49634778 -0.0264807288
v 0.665196657 -1.44634163 0.0264513995
v 0.665196657 -0.799673319 -0.0264807288
v 0.665196657 -0.799673319 0.0264513995
v 0.665196657 -0.756195486 -0.0264807288
v 0.665196657 -0.756195486 0.0264513995
v 0.665196657 -0.0659098104 -0.0264807288
v 0.665196657 -0.0659098104 0.0264513995
v 0.665196657 -0.0179499257 -0.0264807288
v 0.665196657 -0.0179499257 0.0264513995
v -0.659603119 -1.49634778 -0.0264807288
v -0.659603119 -1.44634163 0.0264513995
v -0.659603119 -1.49634778 0.0264513995
v -0.659603119 -1.44634163 -0.0264807288
v -0.659603119 -0.799673319 0.0264513995
v -0.659603119 -0.799673319 -0.0264807288
v -0.659603119 -0.756195486 0.0264513995
v -0.659603119 -0.756195486 -0.0264807288
v -0.659603119 -0.0659098104 0.0264513995
v -0.659603119 -0.0659098104 -0.0264807288
v -0.659603119 -0.0179499257 0.0264513995
v -0.659603119 -0.0179499257 -0.0264807288
v 0.615655601 -0.0179499257 -0.0264807288
v 0.665196657 -0.0659098104 -0.0264807288
v 0.665196657 -0.0179499257 -0.0264807288
v 0.615655601 -0.0659098104 -0.0264807288
v 0.360489607 -0.0179499257 -0.0264807288
v 0.665196657 -0.756195486 -0.0264807288
v 0.360489607 -0.0659098104 -0.0264807288
v 0.615655601 -0.756195486 -0.0264807288
v 0.309923232 -0.0179499257 -0.0264807288
v 0.665196657 -0.799673319 -0.0264807288
v 0.309923232 -0.0659098104 -0.0264807288
v 0.0210755654 -0.0179499257 -0.0264807288
v 0.360489607 -0.756195486 -0.0264807288
v 0.615655601 -0.799673319 -0.0264807288
v 0.665196657 -1.44634163 -0.0264807288
v 0.0210755654 -0.0659098104 -0.0264807288
v -0.0363072455 -0.0179499257 -0.0264807288
v -0.0363072455 -0.0659098104 -0.0264807288
v 0.0210755654 -0.756195486 -0.0264807288
v 0.309923232 -0.756195486 -0.0264807288
v -0.0363072455 -0.756195486 -0.0264807288
v 0.615655601 -1.44634163 -0.0264807288
v 0.665196657 -1.49634778 -0.0264807288
v 0.615655601 -1.49634778 -0.0264807288
v 0.360489607 -0.799673319 -0.0264807288
v 0.360489607 -1.44634163 -0.0264807288
v 0.360489607 -1.49634778 -0.0264807288
v 0.309923232 -0.799673319 -0.0264807288
v 0.0210755654 -0.799673319 -0.0264807288
v -0.0363072455 -0.799673319 -0.0264807288
v 0.309923232 -1.44634163 -0.0264807288
v 0.309923232 -1.49634778 -0.0264807288
v 0.0210755654 -1.44634163 -0.0264807288
v -0.0363072455 -1.44634163 -0.0264807288
v 0.0210755654 -1.49634778 -0.0264807288
v -0.0363072455 -1.49634778 -0.0264807288
v -0.659603119 -1.49634778 -0.0264807288
v -0.659603119 -1.49634778 0.0264513995
v -0.610662699 -1.49634778 0.0264513995
v -0.610662699 -1.49634778 -0.0264807288
v -0.356688112 -1.49634778 0.0264513995
v -0.356688112 -1.49634778 -0.0264807288
v -0.302718371 -1.49634778 0.0264513995
v -0.302718371 -1.49634778 -0.0264807288
v -0.0363072455 -1.49634778 0.0264513995
v -0.0363072455 -1.49634778 -0.0264807288
v -0.659603119 -1.44634163 -0.0264807288
v -0.659603119 -1.49634778 -0.0264807288
v -0.610662699 -1.49634778 -0.0264807288
v -0.610662699 -1.44634163 -0.0264807288
v -0.659603119 -0.799673319 -0.0264807288
v -0.356688112 -1.49634778 -0.0264807288
v -0.610662699 -0.799673319 -0.0264807288
v -0.356688112 -1.44634163 -0.0264807288
v -0.659603119 -0.756195486 -0.0264807288
v -0.302718371 -1.49634778 -0.0264807288
v -0.610662699 -0.756195486 -0.0264807288
v -0.659603119 -0.0659098104 -0.0264807288
v -0.356688112 -0.799673319 -0.0264807288
v -0.302718371 -1.44634163 -0.0264807288
v -0.0363072455 -1.49634778 -0.0264807288
v -0.0363072455 -1.44634163 -0.0264807288
v -0.302718371 -0.799673319 -0.0264807288
v -0.610662699 -0.0659098104 -0.0264807288
v -0.659603119 -0.0179499257 -0.0264807288
v -0.610662699 -0.0179499257 -0.0264807288
v -0.356688112 -0.756195486 -0.0264807288
v -0.356688112 -0.0659098104 -0.0264807288
v -0.356688112 -0.0179499257 -0.0264807288
v -0.302718371 -0.756195486 -0.0264807288
v -0.0363072455 -0.799673319 -0.0264807288
v -0.0363072455 -0.756195486 -0.0264807288
v -0.302718371 -0.0659098104 -0.0264807288
v -0.302718371 -0.0179499257 -0.0264807288
v -0.0363072455 -0.0659098104 -0.0264807288
v -0.0363072455 -0.0179499257 -0.0264807288
v -0.659603119 -0.0179499257 0.0264513995
v -0.659603119 -0.0179499257 -0.0264807288
v -0.610662699 -0.0179499257 -0.0264807288
v -0.610662699 -0.0179499257 0.0264513995
v -0.659603119 -0.0659098104 0.0264513995
v -0.659603119 -0.0179499257 0.0264513995
v -0.610662699 -0.0179499257 0.0264513995
v -0.610662699 -0.0659098104 0.0264513995
v -0.659603119 -0.756195486 0.0264513995
v -0.356688112 -0.0659098104 0.0264513995
v -0.610662699 -0.756195486 0.0264513995
v -0.356688112 -0.0179499257 0.0264513995
v -0.659603119 -0.799673319 0.0264513995
v -0.302718371 -0.0659098104 0.0264513995
v -0.302718371 -0.0179499257 0.0264513995
v -0.356688112 -0.756195486 0.0264513995
v -0.0363072455 -0.0659098104 0.0264513995
v -0.0363072455 -0.0179499257 0.0264513995
v -0.302718371 -0.756195486 0.0264513995
v -0.610662699 -0.799673319 0.0264513995
v -0.659603119 -1.44634163 0.0264513995
v -0.356688112 -0.799673319 0.0264513995
v -0.610662699 -1.44634163 0.0264513995
v -0.659603119 -1.49634778 0.0264513995
v -0.610662699 -1.49634778 0.0264513995
v -0.356688112 -1.44634163 0.0264513995
v -0.356688112 -1.49634778 0.0264513995
v -0.302718371 -0.799673319 0.0264513995
v -0.0363072455 -0.756195486 0.0264513995
v -0.0363072455 -0.799673319 0.0264513995
v -0.302718371 -1.44634163 0.0264513995
v -0.302718371 -1.49634778 0.0264513995
v -0.0363072455 -1.44634163 0.0264513995
v -0.0363072455 -1.49634778 0.0264513995
v 0.360489607 -0.0179499257 0.0264513995
v 0.360489607 -0.0179499257 -0.0264807288
v 0.615655601 -0.0179499257 -0.0264807288
v 0.615655601 -0.0179499257 0.0264513995
v -0.610662699 -0.0179499257 0.0264513995
v -0.610662699 -0.0179499257 -0.0264807288
v -0.356688112 -0.0179499257 -0.0264807288
v -0.356688112 -0.0179499257 0.0264513995
v -0.356688112 -0.0179499257 0.0264513995
v -0.356688112 -0.0179499257 -0.0264807288
v -0.302718371 -0.0179499257 -0.0264807288
v -0.302718371 -0.0179499257 0.0264513995
v -0.302718371 -0.0179499257 0.0264513995
v -0.302718371 -0.0179499257 -0.0264807288
v -0.0363072455 -0.0179499257 -0.0264807288
v -0.0363072455 -0.0179499257 0.0264513995
v -0.0363072455 -0.0179499257 0.0264513995
v -0.0363072455 -0.0179499257 -0.0264807288
v 0.0210755654 -0.0179499257 -0.0264807288
v 0.0210755654 -0.0179499257 0.0264513995
v 0.0210755654 -0.0179499257 0.0264513995
v 0.0210755654 -0.0179499257 -0.0264807288
v 0.309923232 -0.0179499257 -0.0264807288
v 0.309923232 -0.0179499257 0.0264513995
v 0.309923232 -0.0179499257 0.0264513995
v 0.309923232 -0.0179499257 -0.0264807288
v 0.360489607 -0.0179499257 -0.0264807288
v 0.360489607 -0.0179499257 0.0264513995
v 0.0210755654 -0.756195486 0.0264513995
v 0.0210755654 -0.756195486 -0.0264807288
v 0.309923232 -0.756195486 -0.0264807288
v 0.309923232 -0.756195486 0.0264513995
v 0.309923232 -0.756195486 0.0264513995
v 0.309923232 -0.756195486 -0.0264807288
v 0.309923232 -0.0659098104 -0.0264807288
v 0.309923232 -0.0659098104 0.0264513995
v 0.309923232 -0.0659098104 0.0264513995
v 0.309923232 -0.0659098104 -0.0264807288
v 0.0210755654 -0.0659098104 -0.0264807288
v 0.0210755654 -0.0659098104 0.0264513995
v 0.0210755654 -0.0659098104 0.0264513995
v 0.0210755654 -0.0659098104 -0.0264807288
v 0.0210755654 -0.756195486 -0.0264807288
v 0.0210755654 -0.756195486 0.0264513995
v -0.302718371 -0.756195486 0.0264513995
v -0.302718371 -0.756195486 -0.0264807288
v -0.0363072455 -0.756195486 -0.0264807288
v -0.0363072455 -0.756195486 0.0264513995
v -0.0363072455 -0.756195486 0.0264513995
v -0.0363072455 -0.756195486 -0.0264807288
v -0.0363072455 -0.0659098104 -0.0264807288
v -0.0363072455 -0.0659098104 0.0264513995
v -0.0363072455 -0.0659098104 0.0264513995
v -0.0363072455 -0.0659098104 -0.0264807288
v -0.302718371 -0.0659098104 -0.0264807288
v -0.302718371 -0.0659098104 0.0264513995
v -0.302718371 -0.0659098104 0.0264513995
v -0.302718371 -0.0659098104 -0.0264807288
v -0.302718371 -0.756195486 -0.0264807288
v -0.302718371 -0.756195486 0.0264513995
v -0.610662699 -0.756195486 0.0264513995
v -0.610662699 -0.756195486 -0.0264807288
v -0.356688112 -0.756195486 -0.0264807288
v -0.356688112 -0.756195486 0.0264513995
v -0.356688112 -0.756195486 0.0264513995
v -0.356688112 -0.756195486 -0.0264807288
v -0.356688112 -0.0659098104 -0.0264807288
v -0.356688112 -0.0659098104 0.0264513995
v -0.356688112 -0.0659098104 0.0264513995
v -0.356688112 -0.0659098104 -0.0264807288
v -0.610662699 -0.0659098104 -0.0264807288
v -0.610662699 -0.0659098104 0.0264513995
v -0.610662699 -0.0659098104 0.0264513995
v -0.610662699 -0.0659098104 -0.0264807288
v -0.610662699 -0.756195486 -0.0264807288
v -0.610662699 -0.756195486 0.0264513995
v -0.356688112 -1.44634163 -0.0264807288
v -0.356688112 -1.44634163 0.0264513995
v -0.610662699 -1.44634163 0.0264513995
v -0.610662699 -1.44634163 -0.0264807288
v -0.610662699 -1.44634163 -0.0264807288
v -0.610662699 -1.44634163 0.0264513995
v -0.610662699 -0.799673319 0.0264513995
v -0.610662699 -0.799673319 -0.0264807288
v -0.610662699 -0.799673319 -0.0264807288
v -0.610662699 -0.799673319 0.0264513995
v -0.356688112 -0.799673319 0.0264513995
v -0.356688112 -0.799673319 -0.0264807288
v -0.356688112 -0.799673319 -0.0264807288
v -0.356688112 -0.799673319 0.0264513995
v -0.356688112 -1.44634163 0.0264513995
v -0.356688112 -1.44634163 -0.0264807288
v -0.0363072455 -1.44634163 -0.0264807288
v -0.0363072455 -1.44634163 0.0264513995
v -0.302718371 -1.44634163 0.0264513995
v -0.302718371 -1.44634163 -0.0264807288
v -0.302718371 -1.44634163 -0.0264807288
v -0.302718371 -1.44634163 0.0264513995
v -0.302718371 -0.799673319 0.0264513995
v -0.302718371 -0.799673319 -0.0264807288
v -0.302718371 -0.799673319 -0.0264807288
v -0.302718371 -0.799673319 0.0264513995
v -0.0363072455 -0.799673319 0.0264513995
v -0.0363072455 -0.799673319 -0.0264807288
v -0.0363072455 -0.799673319 -0.0264807288
v -0.0363072455 -0.799673319 0.0264513995
v -0.0363072455 -1.44634163 0.0264513995
v -0.0363072455 -1.44634163 -0.0264807288
v 0.309923232 -1.44634163 -0.0264807288
v 0.309923232 -1.44634163 0.0264513995
v 0.0210755654 -1.44634163 0.0264513995
v 0.0210755654 -1.44634163 -0.0264807288
v 0.0210755654 -1.44634163 -0.0264807288
v 0.0210755654 -1.44634163 0.0264513995
v 0.0210755654 -0.799673319 0.0264513995
v 0.0210755654 -0.799673319 -0.0264807288
v 0.0210755654 -0.799673319 -0.0264807288
v 0.0210755654 -0.799673319 0.0264513995
v 0.309923232 -0.799673319 0.0264513995
v 0.309923232 -0.799673319 -0.0264807288
v 0.309923232 -0.799673319 -0.0264807288
v 0.309923232 -0.799673319 0.0264513995
v 0.309923232 -1.44634163 0.0264513995
v 0.309923232 -1.44634163 -0.0264807288
v 0.360489607 -0.0659098104 0.0264513995
v 0.360489607 -0.0659098104 -0.0264807288
v 0.360489607 -0.756195486 -0.0264807288
v 0.360489607 -0.756195486 0.0264513995
v 0.360489607 -0.756195486 0.0264513995
v 0.360489607 -0.756195486 -0.0264807288
v 0.615655601 -0.756195486 -0.0264807288
v 0.615655601 -0.756195486 0.0264513995
v 0.615655601 -0.756195486 0.0264513995
v 0.615655601 -0.756195486 -0.0264807288
v 0.615655601 -0.0659098104 -0.0264807288
v 0.615655601 -0.0659098104 0.0264513995
v 0.615655601 -0.0659098104 0.0264513995
v 0.615655601 -0.0659098104 -0.0264807288
v 0.360489607 -0.0659098104 -0.0264807288
v 0.360489607 -0.0659098104 0.0264513995
v 0.360489607 -1.44634163 0.0264513995
v 0.360489607 -1.44634163 -0.0264807288
v 0.615655601 -1.44634163 -0.0264807288
v 0.615655601 -1.44634163 0.0264513995
v 0.615655601 -1.44634163 0.0264513995
v 0.615655601 -1.44634163 -0.0264807288
v 0.615655601 -0.799673319 -0.0264807288
v 0.615655601 -0.799673319 0.0264513995
v 0.615655601 -0.799673319 0.0264513995
v 0.615655601 -0.799673319 -0.0264807288
v 0.360489607 -0.799673319 -0.0264807288
v 0.360489607 -0.799673319 0.0264513995
v 0.360489607 -0.799673319 0.0264513995
v 0.360489607 -0.799673319 -0.0264807288
v 0.360489607 -1.44634163 -0.0264807288
v 0.360489607 -1.44634163 0.0264513995
v -0.0293492377 1.49634743 -0.0264807288
v 0.024718143 1.44501269 -0.0264807288
v 0.0286341589 1.49634743 -0.0264807288
v -0.0254381057 1.44501269 -0.0264807288
v 0.024718143 0.933696091 -0.0264807288
v -0.271385372 1.29831767 -0.0264807288
v -0.0254381057 0.933696091 -0.0264807288
v -0.00023302724 0.882968247 -0.0264798142
v -0.0496031418 0.876899838 -0.0264807288
v -0.301277936 1.34004438 -0.0264807288
v -0.0715220869 0.92448777 -0.0264807288
v -0.314427346 1.26746285 -0.0264807288
v -0.348836541 1.3055464 -0.0264807288
v -0.116082639 0.893592954 -0.0264807288
v -0.086224243 0.856200397 -0.0264807288
v -0.48983264 1.04990375 -0.0264807288
v -0.122869745 0.822264254 -0.0264807288
v -0.53083849 1.0807811 -0.0264807288
v -0.170980081 0.84184891 -0.0264807288
v -0.514300406 1.01034045 -0.0264807288
v -0.562996686 1.02657175 -0.0264807288
v -0.199598253 0.805170417 -0.0264807288
v -0.152337521 0.779180408 -0.0264807288
v -0.604891241 0.718156874 -0.0264807288
v -0.163387313 0.718156874 -0.0264807288
v -0.656033754 0.72256577 -0.0264807288
v -0.218250588 0.718156874 -0.0264807288
v -0.610662699 0.67419827 -0.0264807288
v -0.659603119 0.67419827 -0.0264807288
v -0.218250588 0.67419827 -0.0264807288
v -0.163387313 0.67419827 -0.0264807288
v 0.165289432 0.718156874 -0.0264807288
v 0.165289432 0.67419827 -0.0264807288
v -0.0293492377 1.49634743 0.0264806952
v 0.0286341589 1.49634743 0.0264806952
v 0.024718143 1.44501269 0.0264806952
v -0.0254381057 1.44501269 0.0264806952
v -0.301277936 1.34004438 0.0264806952
v -0.0254381057 0.933696091 0.0264806952
v 0.024718143 0.933696091 0.0264806952
v -0.00023302724 0.882968247 0.0264799334
v -0.271385372 1.29831767 0.0264806952
v -0.0715220869 0.92448777 0.0264806952
v -0.0496031418 0.876899838 0.0264806952
v -0.348836541 1.3055464 0.0264806952
v -0.086224243 0.856200397 0.0264806952
v -0.314427346 1.26746285 0.0264806952
v -0.53083849 1.0807811 0.0264806952
v -0.116082639 0.893592954 0.0264806952
v -0.48983264 1.04990375 0.0264806952
v -0.170980081 0.84184891 0.0264806952
v -0.122869745 0.822264254 0.0264806952
v -0.562996686 1.02657175 0.0264806952
v -0.152337521 0.779180408 0.0264806952
v -0.514300406 1.01034045 0.0264806952
v -0.656033754 0.72256577 0.0264806952
v -0.199598253 0.805170417 0.0264806952
v -0.604891241 0.718156874 0.0264806952
v -0.218250588 0.718156874 0.0264806952
v -0.659603119 0.67419827 0.0264513995
v -0.610662699 0.67419827 0.0264513995
v -0.218250588 0.67419827 0.0264806952
v -0.163387313 0.67419827 0.0264806952
v -0.163387313 0.718156874 0.0264806952
v 0.165289432 0.67419827 0.0264806952
v 0.165289432 0.718156874 0.0264806952
v 0.024718143 1.44501269 0.0264806952
v 0.024718143 1.44501269 -0.0264807288
v 0.024718143 0.933696091 -0.0264807288
v 0.024718143 0.933696091 0.0264806952
v -0.0254381057 0.933696091 0.0264806952
v -0.0254381057 0.933696091 -0.0264807288
v -0.0254381057 1.44501269 -0.0264807288
v -0.0254381057 1.44501269 0.0264806952
v 0.024718143 1.44501269 -0.0264807288
v 0.301280648 1.34004438 -0.0264807288
v 0.0286341589 1.49634743 -0.0264807288
v 0.271378309 1.29831767 -0.0264807288
v 0.348839223 1.3055464 -0.0264807288
v 0.31442517 1.26746285 -0.0264807288
v 0.530831397 1.0807811 -0.0264807288
v 0.117608763 0.890720963 -0.0264807288
v 0.489835322 1.04990375 -0.0264807288
v 0.0745667741 0.921575725 -0.0264807288
v 0.562989593 1.02657175 -0.0264807288
v 0.514298201 1.01034045 -0.0264807288
v 0.656026721 0.72256577 -0.0264807288
v 0.201182991 0.799557626 -0.0264807288
v 0.604884148 0.718156874 -0.0264807288
v 0.665196657 0.67419827 -0.0264807288
v 0.615655601 0.67419827 -0.0264807288
v 0.220147833 0.67419827 -0.0264807288
v 0.220147833 0.718156874 -0.0264807288
v 0.165289432 0.67419827 -0.0264807288
v 0.165289432 0.718156874 -0.0264807288
v 0.152037472 0.777338088 -0.0264807288
v 0.17551893 0.838359177 -0.0264807288
v 0.126021847 0.822591662 -0.0264807288
v 0.0899378657 0.8516801 -0.0264807288
v 0.0554115027 0.872811079 -0.0264807288
v -0.00023302724 0.882968247 -0.0264798142
v 0.024718143 0.933696091 -0.0264807288
v 0.0286341589 1.49634743 -0.0264807288
v 0.301280648 1.34004438 -0.0264807288
v 0.301280648 1.34004438 0.0264806952
v 0.0286341589 1.49634743 0.0264806952
v 0.0286341589 1.49634743 0.0264806952
v 0.271378309 1.29831767 0.0264806952
v 0.024718143 1.44501269 0.0264806952
v 0.301280648 1.34004438 0.0264806952
v 0.31442517 1.26746285 0.0264806952
v 0.348839223 1.3055464 0.0264806952
v 0.0745667741 0.921575725 0.0264806952
v 0.489835322 1.04990375 0.0264806952
v 0.530831397 1.0807811 0.0264806952
v 0.117608763 0.890720963 0.0264806952
v 0.514298201 1.01034045 0.0264806952
v 0.562989593 1.02657175 0.0264806952
v 0.17551893 0.838359177 0.0264806952
v 0.604884148 0.718156874 0.0264806952
v 0.656026721 0.72256577 0.0264806952
v 0.201182991 0.799557626 0.0264806952
v 0.615655601 0.67419827 0.0264513995
v 0.665196657 0.67419827 0.0264513995
v 0.220147833 0.718156874 0.0264806952
v 0.220147833 0.67419827 0.0264806952
v 0.165289432 0.718156874 0.0264806952
v 0.165289432 0.67419827 0.0264806952
v 0.152037472 0.777338088 0.0264806952
v 0.126021847 0.822591662 0.0264806952
v 0.0899378657 0.8516801 0.0264806952
v 0.0554115027 0.872811079 0.0264806952
v 0.024718143 0.933696091 0.0264806952
v -0.00023302724 0.882968247 0.0264799334
v 0.024718143 1.44501269 0.0264806952
v 0.271378309 1.29831767 0.0264806952
v 0.271378309 1.29831767 -0.0264807288
v 0.024718143 1.44501269 -0.0264807288
v 0.301280648 1.34004438 -0.0264807288
v 0.348839223 1.3055464 -0.0264807288
v 0.348839223 1.3055464 0.0264806952
v 0.301280648 1.34004438 0.0264806952
v 0.0554115027 0.872811079 0.0264806952
v 0.0899378657 0.8516801 0.0264806952
v 0.0899378657 0.8516801 -0.0264807288
v 0.0554115027 0.872811079 -0.0264807288
v 0.348839223 1.3055464 -0.0264807288
v 0.530831397 1.0807811 -0.0264807288
v 0.530831397 1.0807811 0.0264806952
v 0.348839223 1.3055464 0.0264806952
v 0.31442517 1.26746285 0.0264806952
v 0.489835322 1.04990375 0.0264806952
v 0.489835322 1.04990375 -0.0264807288
v 0.31442517 1.26746285 -0.0264807288
v 0.530831397 1.0807811 -0.0264807288
v 0.562989593 1.02657175 -0.0264807288
v 0.562989593 1.02657175 0.0264806952
v 0.530831397 1.0807811 0.0264806952
v 0.126021847 0.822591662 0.0264806952
v 0.152037472 0.777338088 0.0264806952
v 0.152037472 0.777338088 -0.0264807288
v 0.126021847 0.822591662 -0.0264807288
v 0.562989593 1.02657175 -0.0264807288
v 0.656026721 0.72256577 -0.0264807288
v 0.656026721 0.72256577 0.0264806952
v 0.562989593 1.02657175 0.0264806952
v 0.514298201 1.01034045 0.0264806952
v 0.604884148 0.718156874 0.0264806952
v 0.604884148 0.718156874 -0.0264807288
v 0.514298201 1.01034045 -0.0264807288
v 0.656026721 0.72256577 -0.0264807288
v 0.665196657 0.67419827 -0.0264807288
v 0.665196657 0.67419827 0.0264513995
v 0.656026721 0.72256577 0.0264806952
v 0.489835322 1.04990375 0.0264806952
v 0.17551893 0.838359177 0.0264806952
v 0.17551893 0.838359177 -0.0264807288
v 0.489835322 1.04990375 -0.0264807288
v 0.514298201 1.01034045 -0.0264807288
v 0.201182991 0.799557626 -0.0264807288
v 0.201182991 0.799557626 0.0264806952
v 0.514298201 1.01034045 0.0264806952
v 0.604884148 0.718156874 0.0264806952
v 0.220147833 0.718156874 0.0264806952
v 0.220147833 0.718156874 -0.0264807288
v 0.604884148 0.718156874 -0.0264807288
v 0.615655601 0.67419827 -0.0264807288
v 0.220147833 0.67419827 0.0264806952
v 0.615655601 0.67419827 0.0264513995
v 0.220147833 0.67419827 -0.0264807288
v 0.165289432 0.67419827 0.0264806952
v 0.165289432 0.67419827 -0.0264807288
v -0.163387313 0.67419827 0.0264806952
v -0.163387313 0.67419827 -0.0264807288
v -0.218250588 0.67419827 0.0264806952
v -0.218250588 0.67419827 -0.0264807288
v 0.271378309 1.29831767 0.0264806952
v 0.0745667741 0.921575725 0.0264806952
v 0.0745667741 0.921575725 -0.0264807288
v 0.271378309 1.29831767 -0.0264807288
v 0.31442517 1.26746285 -0.0264807288
v 0.117608763 0.890720963 -0.0264807288
v 0.117608763 0.890720963 0.0264806952
v 0.31442517 1.26746285 0.0264806952
v 0.201182991 0.799557626 -0.0264807288
v 0.220147833 0.718156874 -0.0264807288
v 0.220147833 0.718156874 0.0264806952
v 0.201182991 0.799557626 0.0264806952
v 0.152037472 0.777338088 0.0264806952
v 0.165289432 0.718156874 0.0264806952
v 0.165289432 0.718156874 -0.0264807288
v 0.152037472 0.777338088 -0.0264807288
v 0.126021847 0.822591662 -0.0264807288
v 0.0899378657 0.8516801 -0.0264807288
v 0.0899378657 0.8516801 0.0264806952
v 0.126021847 0.822591662 0.0264806952
v 0.17551893 0.838359177 0.0264806952
v 0.117608763 0.890720963 0.0264806952
v 0.117608763 0.890720963 -0.0264807288
v 0.17551893 0.838359177 -0.0264807288
v 0.0745667741 0.921575725 0.0264806952
v 0.024718143 0.933696091 0.0264806952
v 0.024718143 0.933696091 -0.0264807288
v 0.0745667741 0.921575725 -0.0264807288
v 0.0554115027 0.872811079 -0.0264807288
v -0.00023302724 0.882968247 -0.0264798142
v -0.00023302724 0.882968247 0.0264799334
v 0.0554115027 0.872811079 0.0264806952
v -0.0293492377 1.49634743 0.0264806952
v -0.301277936 1.34004438 0.0264806952
v -0.301277936 1.34004438 -0.0264807288
v -0.0293492377 1.49634743 -0.0264807288
v -0.0254381057 1.44501269 -0.0264807288
v -0.271385372 1.29831767 -0.0264807288
v -0.271385372 1.29831767 0.0264806952
v -0.0254381057 1.44501269 0.0264806952
v -0.301277936 1.34004438 0.0264806952
v -0.348836541 1.3055464 0.0264806952
v -0.348836541 1.3055464 -0.0264807288
v -0.301277936 1.34004438 -0.0264807288
v -0.0496031418 0.876899838 -0.0264807288
v -0.086224243 0.856200397 -0.0264807288
v -0.086224243 0.856200397 0.0264806952
v -0.0496031418 0.876899838 0.0264806952
v -0.348836541 1.3055464 0.0264806952
v -0.53083849 1.0807811 0.0264806952
v -0.53083849 1.0807811 -0.0264807288
v -0.348836541 1.3055464 -0.0264807288
v -0.314427346 1.26746285 -0.0264807288
v -0.48983264 1.04990375 -0.0264807288
v -0.48983264 1.04990375 0.0264806952
v -0.314427346 1.26746285 0.0264806952
v -0.53083849 1.0807811 0.0264806952
v -0.562996686 1.02657175 0.0264806952
v -0.562996686 1.02657175 -0.0264807288
v -0.53083849 1.0807811 -0.0264807288
v -0.122869745 0.822264254 -0.0264807288
v -0.152337521 0.779180408 -0.0264807288
v -0.152337521 0.779180408 0.0264806952
v -0.122869745 0.822264254 0.0264806952
v -0.562996686 1.02657175 0.0264806952
v -0.656033754 0.72256577 0.0264806952
v -0.656033754 0.72256577 -0.0264807288
v -0.562996686 1.02657175 -0.0264807288
v -0.514300406 1.01034045 -0.0264807288
v -0.604891241 0.718156874 -0.0264807288
v -0.604891241 0.718156874 0.0264806952
v -0.514300406 1.01034045 0.0264806952
v -0.656033754 0.72256577 0.0264806952
v -0.659603119 0.67419827 0.0264513995
v -0.659603119 0.67419827 -0.0264807288
v -0.656033754 0.72256577 -0.0264807288
v -0.48983264 1.04990375 -0.0264807288
v -0.170980081 0.84184891 -0.0264807288
v -0.170980081 0.84184891 0.0264806952
v -0.48983264 1.04990375 0.0264806952
v -0.514300406 1.01034045 0.0264806952
v -0.199598253 0.805170417 0.0264806952
v -0.199598253 0.805170417 -0.0264807288
v -0.514300406 1.01034045 -0.0264807288
v -0.604891241 0.718156874 -0.0264807288
v -0.218250588 0.718156874 -0.0264807288
v -0.218250588 0.718156874 0.0264806952
v -0.604891241 0.718156874 0.0264806952
v -0.610662699 0.67419827 0.0264513995
v -0.218250588 0.67419827 0.0264806952
v -0.218250588 0.67419827 -0.0264807288
v -0.610662699 0.67419827 -0.0264807288
v -0.271385372 1.29831767 -0.0264807288
v -0.0715220869 0.92448777 -0.0264807288
v -0.0715220869 0.92448777 0.0264806952
v -0.271385372 1.29831767 0.0264806952
v -0.314427346 1.26746285 0.0264806952
v -0.116082639 0.893592954 0.0264806952
v -0.116082639 0.893592954 -0.0264807288
v -0.314427346 1.26746285 -0.0264807288
v -0.199598253 0.805170417 0.0264806952
v -0.218250588 0.718156874 0.0264806952
v -0.218250588 0.718156874 -0.0264807288
v -0.199598253 0.805170417 -0.0264807288
v -0.152337521 0.779180408 -0.0264807288
v -0.163387313 0.718156874 -0.0264807288
v -0.163387313 0.718156874 0.0264806952
v -0.152337521 0.779180408 0.0264806952
v -0.122869745 0.822264254 0.0264806952
v -0.086224243 0.856200397 0.0264806952
v -0.086224243 0.856200397 -0.0264807288
v -0.122869745 0.822264254 -0.0264807288
v -0.170980081 0.84184891 -0.0264807288
v -0.116082639 0.893592954 -0.0264807288
v -0.116082639 0.893592954 0.0264806952
v -0.170980081 0.84184891 0.0264806952
v -0.0715220869 0.92448777 -0.0264807288
v -0.0254381057 0.933696091 -0.0264807288
v -0.0254381057 0.933696091 0.0264806952
v -0.0715220869 0.92448777 0.0264806952
v -0.0496031418 0.876899838 0.0264806952
v -0.00023302724 0.882968247 0.0264799334
v -0.00023302724 0.882968247 -0.0264798142
v -0.0496031418 0.876899838 -0.0264807288
v 0.165289432 0.718156874 0.0264806952
v -0.163387313 0.718156874 0.0264806952
v -0.163387313 0.718156874 -0.0264807288
v 0.165289432 0.718156874 -0.0264807288
vt 0.506835938 0.568847656
vt 0.513183594 0.568847656
vt 0.513183594 0.561523438
vt 0.506835938 0.568847656
vt 0.513183594 0.561523438
vt 0.506835938 0.561523438
vt 0.603515625 0.548339844
vt 0.603515625 0.568847656
vt 0.609863281 0.568847656
vt 0.609863281 0.548339844
vt 0.553710938 0.530761719
vt 0.547363281 0.522949219
vt 0.547363281 0.518554688
vt 0.505371094 0.518554688
vt 0.603515625 0.548339844
vt 0.603515625 0.568847656
vt 0.609863281 0.568847656
vt 0.609863281 0.548339844
vt 0.558105469 0.522949219
vt 0.604980469 0.530761719
vt 0.600097656 0.518554688
vt 0.558105469 0.518554688
vt 0.558105469 0.526367188
vt 0.600097656 0.526367188
vt 0.600097656 0.53125
vt 0.558105469 0.53125
vt 0.505371094 0.526367188
vt 0.547363281 0.526367188
vt 0.547363281 0.53125
vt 0.505371094 0.53125
vt 0.558105469 0.5546875
vt 0.600097656 0.5546875
vt 0.600097656 0.560058594
vt 0.558105469 0.560058594
vt 0.505371094 0.5546875
vt 0.547363281 0.5546875
vt 0.547363281 0.560058594
vt 0.505371094 0.560058594
vt 0.558105469 0.584472656
vt 0.604980469 0.561523438
vt 0.601074219 0.559082031
vt 0.558105469 0.579101562
vt 0.553710938 0.561523438
vt 0.547363281 0.584472656
vt 0.547363281 0.579101562
vt 0.557617188 0.559082031
vt 0.558105469 0.551757812
vt 0.604980469 0.545410156
vt 0.601074219 0.54296875
vt 0.558105469 0.546875
vt 0.553710938 0.545410156
vt 0.547363281 0.551757812
vt 0.547363281 0.546875
vt 0.557617188 0.54296875
vt 0.609863281 0.518554688
vt 0.602050781 0.518554688
vt 0.553710938 0.545410156
vt 0.604980469 0.545410156
vt 0.601074219 0.559082031
vt 0.557617188 0.559082031
vt 0.609863281 0.518554688
vt 0.602050781 0.518554688
vt 0.609863281 0.518554688
vt 0.602050781 0.518554688
vt 0.553710938 0.561523438
vt 0.604980469 0.561523438
vt 0.601074219 0.549316406
vt 0.557617188 0.549316406
vt 0.609863281 0.518554688
vt 0.602050781 0.518554688
vt 0.609863281 0.518554688
vt 0.602050781 0.518554688
vt 0.553710938 0.546875
vt 0.604980469 0.546875
vt 0.601074219 0.53515625
vt 0.557617188 0.53515625
vt 0.609863281 0.518554688
vt 0.602050781 0.518554688
vt 0.601074219 0.54296875
vt 0.557617188 0.54296875
vt 0.609863281 0.518554688
vt 0.602050781 0.518554688
vt 0.609863281 0.518554688
vt 0.602050781 0.518554688
vt 0.553710938 0.530761719
vt 0.604980469 0.530761719
vt 0.495605469 0.522949219
vt 0.505371094 0.518554688
vt 0.495605469 0.518554688
vt 0.505371094 0.522949219
vt 0.495605469 0.546875
vt 0.549804688 0.518554688
vt 0.505371094 0.546875
vt 0.549804688 0.522949219
vt 0.495605469 0.551757812
vt 0.558105469 0.518554688
vt 0.505371094 0.551757812
vt 0.495605469 0.579101562
vt 0.549804688 0.546875
vt 0.558105469 0.522949219
vt 0.600097656 0.518554688
vt 0.505371094 0.579101562
vt 0.495605469 0.584472656
vt 0.505371094 0.584472656
vt 0.549804688 0.579101562
vt 0.549804688 0.551757812
vt 0.549804688 0.584472656
vt 0.558105469 0.546875
vt 0.600097656 0.522949219
vt 0.558105469 0.551757812
vt 0.600097656 0.546875
vt 0.558105469 0.579101562
vt 0.558105469 0.584472656
vt 0.600097656 0.579101562
vt 0.600097656 0.584472656
vt 0.609863281 0.584472656
vt 0.609863281 0.579101562
vt 0.600097656 0.551757812
vt 0.609863281 0.551757812
vt 0.609863281 0.546875
vt 0.609863281 0.522949219
vt 0.609863281 0.518554688
vt 0.602539062 0.522949219
vt 0.608886719 0.522949219
vt 0.608886719 0.518554688
vt 0.602539062 0.518554688
vt 0.603515625 0.522949219
vt 0.609375 0.518554688
vt 0.603515625 0.518554688
vt 0.609375 0.522949219
vt 0.603515625 0.546875
vt 0.609375 0.546875
vt 0.603515625 0.551757812
vt 0.609375 0.551757812
vt 0.603515625 0.579101562
vt 0.609375 0.579101562
vt 0.603515625 0.584472656
vt 0.609375 0.584472656
vt 0.603515625 0.518554688
vt 0.609863281 0.522949219
vt 0.609863281 0.518554688
vt 0.603515625 0.522949219
vt 0.609863281 0.544433594
vt 0.603515625 0.544433594
vt 0.609863281 0.548339844
vt 0.603515625 0.548339844
vt 0.609863281 0.568847656
vt 0.603515625 0.568847656
vt 0.609863281 0.573730469
vt 0.603515625 0.573730469
vt 0.603515625 0.518554688
vt 0.609863281 0.522949219
vt 0.609863281 0.518554688
vt 0.603515625 0.522949219
vt 0.609863281 0.544433594
vt 0.603515625 0.544433594
vt 0.609863281 0.548339844
vt 0.603515625 0.548339844
vt 0.609863281 0.568847656
vt 0.603515625 0.568847656
vt 0.609863281 0.573730469
vt 0.603515625 0.573730469
vt 0.495605469 0.522949219
vt 0.505371094 0.518554688
vt 0.495605469 0.518554688
vt 0.505371094 0.522949219
vt 0.495605469 0.546875
vt 0.547363281 0.518554688
vt 0.505371094 0.546875
vt 0.547363281 0.522949219
vt 0.495605469 0.551757812
vt 0.555664062 0.518554688
vt 0.505371094 0.551757812
vt 0.495605469 0.579101562
vt 0.547363281 0.546875
vt 0.555664062 0.522949219
vt 0.600585938 0.518554688
vt 0.505371094 0.579101562
vt 0.495605469 0.584472656
vt 0.505371094 0.584472656
vt 0.547363281 0.579101562
vt 0.547363281 0.551757812
vt 0.547363281 0.584472656
vt 0.600585938 0.522949219
vt 0.609863281 0.518554688
vt 0.609863281 0.522949219
vt 0.555664062 0.546875
vt 0.600585938 0.546875
vt 0.609863281 0.546875
vt 0.555664062 0.551757812
vt 0.555664062 0.579101562
vt 0.555664062 0.584472656
vt 0.600585938 0.551757812
vt 0.609863281 0.551757812
vt 0.600585938 0.579101562
vt 0.600585938 0.584472656
vt 0.609863281 0.579101562
vt 0.609863281 0.584472656
vt 0.603515625 0.526367188
vt 0.609375 0.526367188
vt 0.609375 0.53125
vt 0.603515625 0.53125
vt 0.609375 0.5546875
vt 0.603515625 0.5546875
vt 0.609375 0.560058594
vt 0.603515625 0.560058594
vt 0.609375 0.584960938
vt 0.603515625 0.584960938
vt 0.600585938 0.526367188
vt 0.609863281 0.526367188
vt 0.609863281 0.53125
vt 0.600585938 0.53125
vt 0.555664062 0.526367188
vt 0.609863281 0.5546875
vt 0.555664062 0.53125
vt 0.600585938 0.5546875
vt 0.547363281 0.526367188
vt 0.609863281 0.560058594
vt 0.547363281 0.53125
vt 0.505371094 0.526367188
vt 0.555664062 0.5546875
vt 0.600585938 0.560058594
vt 0.609863281 0.584960938
vt 0.600585938 0.584960938
vt 0.555664062 0.560058594
vt 0.505371094 0.53125
vt 0.495605469 0.526367188
vt 0.495605469 0.53125
vt 0.547363281 0.5546875
vt 0.505371094 0.5546875
vt 0.495605469 0.5546875
vt 0.547363281 0.560058594
vt 0.555664062 0.584960938
vt 0.547363281 0.584960938
vt 0.505371094 0.560058594
vt 0.495605469 0.560058594
vt 0.505371094 0.584960938
vt 0.495605469 0.584960938
vt 0.602539062 0.526367188
vt 0.608886719 0.526367188
vt 0.608886719 0.53125
vt 0.602539062 0.53125
vt 0.600097656 0.526367188
vt 0.609863281 0.526367188
vt 0.609863281 0.53125
vt 0.600097656 0.53125
vt 0.558105469 0.526367188
vt 0.600097656 0.5546875
vt 0.558105469 0.53125
vt 0.609863281 0.5546875
vt 0.549804688 0.526367188
vt 0.600097656 0.560058594
vt 0.609863281 0.560058594
vt 0.558105469 0.5546875
vt 0.600097656 0.584960938
vt 0.609863281 0.584960938
vt 0.558105469 0.560058594
vt 0.549804688 0.53125
vt 0.505371094 0.526367188
vt 0.549804688 0.5546875
vt 0.505371094 0.53125
vt 0.495605469 0.526367188
vt 0.495605469 0.53125
vt 0.505371094 0.5546875
vt 0.495605469 0.5546875
vt 0.549804688 0.560058594
vt 0.558105469 0.584960938
vt 0.549804688 0.584960938
vt 0.505371094 0.560058594
vt 0.495605469 0.560058594
vt 0.505371094 0.584960938
vt 0.495605469 0.584960938
vt 0.602539062 0.546875
vt 0.608886719 0.546875
vt 0.608886719 0.522949219
vt 0.602539062 0.522949219
vt 0.602539062 0.53125
vt 0.608886719 0.53125
vt 0.608886719 0.5546875
vt 0.602539062 0.5546875
vt 0.602539062 0.5546875
vt 0.608886719 0.5546875
vt 0.608886719 0.560058594
vt 0.602539062 0.560058594
vt 0.602539062 0.560058594
vt 0.608886719 0.560058594
vt 0.608886719 0.584960938
vt 0.602539062 0.584960938
vt 0.602539062 0.584472656
vt 0.608886719 0.584472656
vt 0.608886719 0.579101562
vt 0.602539062 0.579101562
vt 0.602539062 0.579101562
vt 0.608886719 0.579101562
vt 0.608886719 0.551757812
vt 0.602539062 0.551757812
vt 0.602539062 0.551757812
vt 0.608886719 0.551757812
vt 0.608886719 0.546875
vt 0.602539062 0.546875
vt 0.604003906 0.545410156
vt 0.610351562 0.545410156
vt 0.610351562 0.518554688
vt 0.604003906 0.518554688
vt 0.609863281 0.518554688
vt 0.602050781 0.518554688
vt 0.602050781 0.538574219
vt 0.609863281 0.538574219
vt 0.609863281 0.518554688
vt 0.603515625 0.518554688
vt 0.603515625 0.545410156
vt 0.609863281 0.545410156
vt 0.602050781 0.538574219
vt 0.609863281 0.538574219
vt 0.609863281 0.518554688
vt 0.602050781 0.518554688
vt 0.603515625 0.571289062
vt 0.609863281 0.571289062
vt 0.609863281 0.546386719
vt 0.603515625 0.546386719
vt 0.609863281 0.518554688
vt 0.602050781 0.518554688
vt 0.602050781 0.538574219
vt 0.609863281 0.538574219
vt 0.609863281 0.546386719
vt 0.603515625 0.546386719
vt 0.603515625 0.571289062
vt 0.609863281 0.571289062
vt 0.602050781 0.538574219
vt 0.609863281 0.538574219
vt 0.609863281 0.518554688
vt 0.602050781 0.518554688
vt 0.602050781 0.542480469
vt 0.609863281 0.542480469
vt 0.609863281 0.518554688
vt 0.602050781 0.518554688
vt 0.609863281 0.518554688
vt 0.602050781 0.518554688
vt 0.602050781 0.538574219
vt 0.609863281 0.538574219
vt 0.609863281 0.518554688
vt 0.602050781 0.518554688
vt 0.602050781 0.542480469
vt 0.609863281 0.542480469
vt 0.602050781 0.538574219
vt 0.609863281 0.538574219
vt 0.609863281 0.518554688
vt 0.602050781 0.518554688
vt 0.609863281 0.518554688
vt 0.602050781 0.518554688
vt 0.602050781 0.542480469
vt 0.609863281 0.542480469
vt 0.609863281 0.518554688
vt 0.602050781 0.518554688
vt 0.602050781 0.540039062
vt 0.609863281 0.540039062
vt 0.602050781 0.542480469
vt 0.609863281 0.542480469
vt 0.609863281 0.518554688
vt 0.602050781 0.518554688
vt 0.602050781 0.540039062
vt 0.609863281 0.540039062
vt 0.609863281 0.518554688
vt 0.602050781 0.518554688
vt 0.609863281 0.548339844
vt 0.603515625 0.548339844
vt 0.603515625 0.573242188
vt 0.609863281 0.573242188
vt 0.609863281 0.518554688
vt 0.602050781 0.518554688
vt 0.602050781 0.540039062
vt 0.609863281 0.540039062
vt 0.603515625 0.573730469
vt 0.609863281 0.573730469
vt 0.609863281 0.548339844
vt 0.603515625 0.548339844
vt 0.602050781 0.540039062
vt 0.609863281 0.540039062
vt 0.609863281 0.518554688
vt 0.602050781 0.518554688
vt 0.609863281 0.518554688
vt 0.604003906 0.518554688
vt 0.604003906 0.545410156
vt 0.609863281 0.545410156
vt 0.609863281 0.518554688
vt 0.602050781 0.518554688
vt 0.602050781 0.540039062
vt 0.609863281 0.540039062
vt 0.603515625 0.573242188
vt 0.609863281 0.573242188
vt 0.609863281 0.546386719
vt 0.603515625 0.546386719
vt 0.602050781 0.540039062
vt 0.609863281 0.540039062
vt 0.609863281 0.518554688
vt 0.602050781 0.518554688
vt 0.602050781 0.538574219
vt 0.609863281 0.538574219
vt 0.609863281 0.518554688
vt 0.602050781 0.518554688
vt 0.602050781 0.542480469
vt 0.609863281 0.542480469
vt 0.609863281 0.518554688
vt 0.602050781 0.518554688
vt 0.609863281 0.518554688
vt 0.602050781 0.518554688
vt 0.602050781 0.538574219
vt 0.609863281 0.538574219
vt 0.609863281 0.518554688
vt 0.602050781 0.518554688
vt 0.602050781 0.542480469
vt 0.609863281 0.542480469
vt 0.602050781 0.542480469
vt 0.609863281 0.542480469
vt 0.609863281 0.518554688
vt 0.602050781 0.518554688
vt 0.609863281 0.518554688
vt 0.602050781 0.518554688
vt 0.602050781 0.540039062
vt 0.609863281 0.540039062
vt 0.609863281 0.518554688
vt 0.602050781 0.518554688
vt 0.602050781 0.542480469
vt 0.609863281 0.542480469
vt 0.602050781 0.540039062
vt 0.609863281 0.540039062
vt 0.609863281 0.518554688
vt 0.602050781 0.518554688
vt 0.579589844 0.629394531
vt 0.5859375 0.622558594
vt 0.586425781 0.629394531
vt 0.580078125 0.622558594
vt 0.5859375 0.5546875
vt 0.550292969 0.603027344
vt 0.580078125 0.5546875
vt 0.583007812 0.547851562
vt 0.577148438 0.547363281
vt 0.546875 0.608886719
vt 0.57421875 0.553710938
vt 0.544921875 0.599121094
vt 0.541015625 0.604003906
vt 0.568847656 0.549316406
vt 0.572753906 0.544433594
vt 0.523925781 0.5703125
vt 0.568359375 0.540039062
vt 0.519042969 0.57421875
vt 0.5625 0.542480469
vt 0.520996094 0.564941406
vt 0.515136719 0.566894531
vt 0.559082031 0.537597656
vt 0.564453125 0.534179688
vt 0.509765625 0.526367188
vt 0.563476562 0.526367188
vt 0.50390625 0.526855469
vt 0.556640625 0.526367188
vt 0.508789062 0.520019531
vt 0.502441406 0.520019531
vt 0.556640625 0.520019531
vt 0.563476562 0.520019531
vt 0.603027344 0.526367188
vt 0.603027344 0.520019531
vt 0.579589844 0.629882812
vt 0.586425781 0.629882812
vt 0.5859375 0.623046875
vt 0.580078125 0.623046875
vt 0.546875 0.608886719
vt 0.580078125 0.555175781
vt 0.5859375 0.555175781
vt 0.583007812 0.548339844
vt 0.550292969 0.603515625
vt 0.57421875 0.553710938
vt 0.577148438 0.547363281
vt 0.541015625 0.604492188
vt 0.572753906 0.544921875
vt 0.544921875 0.599121094
vt 0.519042969 0.574707031
vt 0.568847656 0.549804688
vt 0.523925781 0.5703125
vt 0.5625 0.54296875
vt 0.568359375 0.540039062
vt 0.515136719 0.567382812
vt 0.564453125 0.534667969
vt 0.520996094 0.565429688
vt 0.50390625 0.526855469
vt 0.559082031 0.538085938
vt 0.509765625 0.526367188
vt 0.556640625 0.526367188
vt 0.502441406 0.520507812
vt 0.508789062 0.520507812
vt 0.556640625 0.520507812
vt 0.563476562 0.520507812
vt 0.563476562 0.526367188
vt 0.603027344 0.520507812
vt 0.603027344 0.526367188
vt 0.506835938 0.591308594
vt 0.513183594 0.591308594
vt 0.513183594 0.527832031
vt 0.506835938 0.527832031
vt 0.513183594 0.527832031
vt 0.506835938 0.527832031
vt 0.506835938 0.591308594
vt 0.513183594 0.591308594
vt 0.580078125 0.623046875
vt 0.546875 0.608886719
vt 0.579589844 0.629882812
vt 0.550292969 0.603515625
vt 0.541015625 0.604492188
vt 0.545410156 0.599121094
vt 0.519042969 0.574707031
vt 0.568847656 0.549316406
vt 0.523925781 0.5703125
vt 0.57421875 0.553222656
vt 0.515136719 0.567382812
vt 0.520996094 0.564941406
vt 0.50390625 0.526855469
vt 0.559082031 0.537109375
vt 0.510253906 0.526367188
vt 0.502441406 0.520507812
vt 0.508789062 0.520507812
vt 0.556640625 0.520507812
vt 0.556640625 0.526367188
vt 0.563476562 0.520507812
vt 0.563476562 0.526367188
vt 0.564941406 0.534179688
vt 0.562011719 0.542480469
vt 0.567871094 0.540039062
vt 0.572265625 0.543945312
vt 0.576660156 0.546875
vt 0.583007812 0.548339844
vt 0.580078125 0.555175781
vt 0.513183594 0.561523438
vt 0.513183594 0.527832031
vt 0.506835938 0.527832031
vt 0.506835938 0.561523438
vt 0.579589844 0.629882812
vt 0.550292969 0.603515625
vt 0.580078125 0.623046875
vt 0.546875 0.609375
vt 0.545410156 0.599609375
vt 0.541015625 0.604492188
vt 0.57421875 0.553710938
vt 0.523925781 0.570800781
vt 0.519042969 0.574707031
vt 0.568847656 0.549316406
vt 0.520996094 0.565429688
vt 0.515136719 0.567382812
vt 0.562011719 0.542480469
vt 0.510253906 0.526367188
vt 0.50390625 0.52734375
vt 0.559082031 0.537597656
vt 0.508789062 0.520507812
vt 0.502441406 0.520507812
vt 0.556640625 0.526367188
vt 0.556640625 0.520507812
vt 0.563476562 0.526367188
vt 0.563476562 0.520507812
vt 0.564941406 0.534667969
vt 0.567871094 0.540527344
vt 0.572265625 0.544433594
vt 0.576660156 0.546875
vt 0.580078125 0.555175781
vt 0.583007812 0.548339844
vt 0.513183594 0.592773438
vt 0.513183594 0.57421875
vt 0.506835938 0.57421875
vt 0.506835938 0.592773438
vt 0.513183594 0.610351562
vt 0.513183594 0.605957031
vt 0.506835938 0.605957031
vt 0.506835938 0.610351562
vt 0.513183594 0.546875
vt 0.513183594 0.544433594
vt 0.506835938 0.544433594
vt 0.506835938 0.546875
vt 0.513183594 0.605957031
vt 0.513183594 0.578125
vt 0.506835938 0.578125
vt 0.506835938 0.605957031
vt 0.513183594 0.581054688
vt 0.513183594 0.553710938
vt 0.506835938 0.553710938
vt 0.506835938 0.581054688
vt 0.513183594 0.578125
vt 0.513183594 0.571289062
vt 0.506835938 0.571289062
vt 0.506835938 0.578125
vt 0.513183594 0.540527344
vt 0.513183594 0.53515625
vt 0.506835938 0.53515625
vt 0.506835938 0.540527344
vt 0.513183594 0.571289062
vt 0.513183594 0.533691406
vt 0.506835938 0.533691406
vt 0.506835938 0.571289062
vt 0.513183594 0.563964844
vt 0.513183594 0.527832031
vt 0.506835938 0.527832031
vt 0.506835938 0.563964844
vt 0.513183594 0.533691406
vt 0.513183594 0.52734375
vt 0.506835938 0.52734375
vt 0.506835938 0.533691406
vt 0.513183594 0.553710938
vt 0.513183594 0.527832031
vt 0.506835938 0.527832031
vt 0.506835938 0.553710938
vt 0.513183594 0.563964844
vt 0.513183594 0.537597656
vt 0.506835938 0.537597656
vt 0.506835938 0.563964844
vt 0.506835938 0.527832031
vt 0.506835938 0.575683594
vt 0.513183594 0.575683594
vt 0.513183594 0.527832031
vt 0.506835938 0.52734375
vt 0.513183594 0.576660156
vt 0.513183594 0.52734375
vt 0.506835938 0.576660156
vt 0.513183594 0.583496094
vt 0.506835938 0.583496094
vt 0.513183594 0.624511719
vt 0.506835938 0.624511719
vt 0.513183594 0.631347656
vt 0.506835938 0.631347656
vt 0.513183594 0.57421875
vt 0.513183594 0.52734375
vt 0.506835938 0.52734375
vt 0.506835938 0.57421875
vt 0.513183594 0.581054688
vt 0.513183594 0.534179688
vt 0.506835938 0.534179688
vt 0.506835938 0.581054688
vt 0.513183594 0.537597656
vt 0.513183594 0.527832031
vt 0.506835938 0.527832031
vt 0.506835938 0.537597656
vt 0.513183594 0.53515625
vt 0.513183594 0.527832031
vt 0.506835938 0.527832031
vt 0.506835938 0.53515625
vt 0.506835938 0.540527344
vt 0.506835938 0.544433594
vt 0.513183594 0.544433594
vt 0.513183594 0.540527344
vt 0.506835938 0.527832031
vt 0.506835938 0.534179688
vt 0.513183594 0.534179688
vt 0.513183594 0.527832031
vt 0.513183594 0.527832031
vt 0.506835938 0.527832031
vt 0.506835938 0.534179688
vt 0.513183594 0.534179688
vt 0.506835938 0.527832031
vt 0.506835938 0.534667969
vt 0.513183594 0.534667969
vt 0.513183594 0.527832031
vt 0.506835938 0.568847656
vt 0.506835938 0.602539062
vt 0.513183594 0.602539062
vt 0.513183594 0.568847656
vt 0.513183594 0.597167969
vt 0.513183594 0.578613281
vt 0.506835938 0.578613281
vt 0.506835938 0.597167969
vt 0.513183594 0.610351562
vt 0.513183594 0.605957031
vt 0.506835938 0.605957031
vt 0.506835938 0.610351562
vt 0.506835938 0.540527344
vt 0.506835938 0.545410156
vt 0.513183594 0.545410156
vt 0.513183594 0.540527344
vt 0.513183594 0.605957031
vt 0.513183594 0.578125
vt 0.506835938 0.578125
vt 0.506835938 0.605957031
vt 0.513183594 0.580566406
vt 0.513183594 0.553710938
vt 0.506835938 0.553710938
vt 0.506835938 0.580566406
vt 0.513183594 0.578125
vt 0.513183594 0.571289062
vt 0.506835938 0.571289062
vt 0.506835938 0.578125
vt 0.513183594 0.540527344
vt 0.513183594 0.53515625
vt 0.506835938 0.53515625
vt 0.506835938 0.540527344
vt 0.513183594 0.571289062
vt 0.513183594 0.533691406
vt 0.506835938 0.533691406
vt 0.506835938 0.571289062
vt 0.513183594 0.563964844
vt 0.513183594 0.527832031
vt 0.506835938 0.527832031
vt 0.506835938 0.563964844
vt 0.513183594 0.533691406
vt 0.513183594 0.52734375
vt 0.506835938 0.52734375
vt 0.506835938 0.533691406
vt 0.513183594 0.553710938
vt 0.513183594 0.527832031
vt 0.506835938 0.527832031
vt 0.506835938 0.553710938
vt 0.513183594 0.563964844
vt 0.513183594 0.538574219
vt 0.506835938 0.538574219
vt 0.506835938 0.563964844
vt 0.513183594 0.575683594
vt 0.513183594 0.527832031
vt 0.506835938 0.527832031
vt 0.506835938 0.575683594
vt 0.513183594 0.597167969
vt 0.513183594 0.547851562
vt 0.506835938 0.547851562
vt 0.506835938 0.597167969
vt 0.513183594 0.578613281
vt 0.513183594 0.532226562
vt 0.506835938 0.532226562
vt 0.506835938 0.578613281
vt 0.513183594 0.580566406
vt 0.513183594 0.534179688
vt 0.506835938 0.534179688
vt 0.506835938 0.580566406
vt 0.513183594 0.538574219
vt 0.513183594 0.527832031
vt 0.506835938 0.527832031
vt 0.506835938 0.538574219
vt 0.513183594 0.53515625
vt 0.513183594 0.527832031
vt 0.506835938 0.527832031
vt 0.506835938 0.53515625
vt 0.506835938 0.540527344
vt 0.506835938 0.544921875
vt 0.513183594 0.544921875
vt 0.513183594 0.540527344
vt 0.506835938 0.527832031
vt 0.506835938 0.534179688
vt 0.513183594 0.534179688
vt 0.513183594 0.527832031
vt 0.506835938 0.534179688
vt 0.513183594 0.534179688
vt 0.513183594 0.527832031
vt 0.506835938 0.527832031
vt 0.513183594 0.540527344
vt 0.513183594 0.534667969
vt 0.506835938 0.534667969
vt 0.506835938 0.540527344
vt 0.506835938 0.527832031
vt 0.506835938 0.568359375
vt 0.513183594 0.568359375
vt 0.513183594 0.527832031
vn -0 1 0
vn -0 1 0
vn -0 1 0
vn -0 1 0
vn -0 1 0
vn -0 1 0
vn -1 0 0
vn -1 0 0
vn -1 0 0
vn -1 0 0
vn -0 0 -1
vn -0 0 -1
vn -0 0 -1
vn -0 0 -1
vn 1 0 0
vn 1 0 0
vn 1 0 0
vn 1 0 0
vn -0 0 1
vn -0 0 1
vn -0 0 1
vn -0 0 1
vn -0 0 1
vn -0 0 1
vn -0 0 1
vn -0 0 1
vn -0 0 -1
vn -0 0 -1
vn -0 0 -1
vn -0 0 -1
vn -0 0 1
vn -0 0 1
vn -0 0 1
vn -0 0 1
vn -0 0 -1
vn -0 0 -1
vn -0 0 -1
vn -0 0 -1
vn -0 0 1
vn -0 0 1
vn -0 0 1
vn -0 0 1
vn -0 0 -1
vn -0 0 -1
vn -0 0 -1
vn -0 0 -1
vn -0 0 1
vn -0 0 1
vn -0 0 1
vn -0 0 1
vn -0 0 -1
vn -0 0 -1
vn -0 0 -1
vn -0 0 -1
vn -1 0 0
vn -1 0 0
vn -1 0 0
vn -1 0 0
vn 1 0 0
vn 1 0 0
vn 1 0 0
vn 1 0 0
vn -1 0 0
vn -1 0 0
vn -1 0 0
vn -1 0 0
vn 1 0 0
vn 1 0 0
vn 1 0 0
vn 1 0 0
vn -1 0 0
vn -1 0 0
vn -1 0 0
vn -1 0 0
vn 1 0 0
vn 1 0 0
vn 1 0 0
vn 1 0 0
vn 1 0 0
vn 1 0 0
vn 1 0 0
vn 1 0 0
vn -1 0 0
vn -1 0 0
vn -1 0 0
vn -1 0 0
vn -0 0 1
vn -0 0 1
vn -0 0 1
vn -0 0 1
vn -0 0 1
vn -0 0 1
vn -0 0 1
vn -0 0 1
vn -0 0 1
vn -0 0 1
vn -0 0 1
vn -0 0 1
vn -0 0 1
vn -0 0 1
vn -0 0 1
vn -0 0 1
vn -0 0 1
vn -0 0 1
vn -0 0 1
vn -0 0 1
vn -0 0 1
vn -0 0 1
vn -0 0 1
vn -0 0 1
vn -0 0 1
vn -0 0 1
vn -0 0 1
vn -0 0 1
vn -0 0 1
vn -0 0 1
vn -0 0 1
vn -0 0 1
vn -0 0 1
vn -0 0 1
vn -0 0 1
vn -0 0 1
vn -0 1 0
vn -0 1 0
vn -0 1 0
vn -0 1 0
vn -0 -1 0
vn -0 -1 0
vn -0 -1 0
vn -0 -1 0
vn -0 -1 0
vn -0 -1 0
vn -0 -1 0
vn -0 -1 0
vn -0 -1 0
vn -0 -1 0
vn -0 -1 0
vn -0 -1 0
vn 1 0 0
vn 1 0 0
vn 1 0 0
vn 1 0 0
vn 1 0 0
vn 1 0 0
vn 1 0 0
vn 1 0 0
vn 1 0 0
vn 1 0 0
vn 1 0 0
vn 1 0 0
vn -1 0 0
vn -1 0 0
vn -1 0 0
vn -1 0 0
vn -1 0 0
vn -1 0 0
vn -1 0 0
vn -1 0 0
vn -1 0 0
vn -1 0 0
vn -1 0 0
vn -1 0 0
vn -0 0 -1
vn -0 0 -1
vn -0 0 -1
vn -0 0 -1
vn -0 0 -1
vn -0 0 -1
vn -0 0 -1
vn -0 0 -1
vn -0 0 -1
vn -0 0 -1
vn -0 0 -1
vn -0 0 -1
vn -0 0 -1
vn -0 0 -1
vn -0 0 -1
vn -0 0 -1
vn -0 0 -1
vn -0 0 -1
vn -0 0 -1
vn -0 0 -1
vn -0 0 -1
vn -0 0 -1
vn -0 0 -1
vn -0 0 -1
vn -0 0 -1
vn -0 0 -1
vn -0 0 -1
vn -0 0 -1
vn -0 0 -1
vn -0 0 -1
vn -0 0 -1
vn -0 0 -1
vn -0 0 -1
vn -0 0 -1
vn -0 0 -1
vn -0 0 -1
vn -0 -1 0
vn -0 -1 0
vn -0 -1 0
vn -0 -1 0
vn -0 -1 0
vn -0 -1 0
vn -0 -1 0
vn -0 -1 0
vn -0 -1 0
vn -0 -1 0
vn -0 0 -1
vn -0 0 -1
vn -0 0 -1
vn -0 0 -1
vn -0 0 -1
vn -0 0 -1
vn -0 0 -1
vn -0 0 -1
vn -0 0 -1
vn -0 0 -1
vn -0 0 -1
vn -0 0 -1
vn -0 0 -1
vn -0 0 -1
vn -0 0 -1
vn -0 0 -1
vn -0 0 -1
vn -0 0 -1
vn -0 0 -1
vn -0 0 -1
vn -0 0 -1
vn -0 0 -1
vn -0 0 -1
vn -0 0 -1
vn -0 0 -1
vn -0 0 -1
vn -0 0 -1
vn -0 0 -1
vn -0 0 -1
vn -0 0 -1
vn -0 1 0
vn -0 1 0
vn -0 1 0
vn -0 1 0
vn -0 0 1
vn -0 0 1
vn -0 0 1
vn -0 0 1
vn -0 0 1
vn -0 0 1
vn -0 0 1
vn -0 0 1
vn -0 0 1
vn -0 0 1
vn -0 0 1
vn -0 0 1
vn -0 0 1
vn -0 0 1
vn -0 0 1
vn -0 0 1
vn -0 0 1
vn -0 0 1
vn -0 0 1
vn -0 0 1
vn -0 0 1
vn -0 0 1
vn -0 0 1
vn -0 0 1
vn -0 0 1
vn -0 0 1
vn -0 0 1
vn -0 0 1
vn -0 0 1
vn -0 0 1
vn -0 1 0
vn -0 1 0
vn -0 1 0
vn -0 1 0
vn -0 1 0
vn -0 1 0
vn -0 1 0
vn -0 1 0
vn -0 1 0
vn -0 1 0
vn -0 1 0
vn -0 1 0
vn -0 1 0
vn -0 1 0
vn -0 1 0
vn -0 1 0
vn -0 1 0
vn -0 1 0
vn -0 1 0
vn -0 1 0
vn -0 1 0
vn -0 1 0
vn -0 1 0
vn -0 1 0
vn -0 1 0
vn -0 1 0
vn -0 1 0
vn -0 1 0
vn -0 1 0
vn -0 1 0
vn -0 1 0
vn -0 1 0
vn -1 0 0
vn -1 0 0
vn -1 0 0
vn -1 0 0
vn -0 -1 0
vn -0 -1 0
vn -0 -1 0
vn -0 -1 0
vn 1 0 0
vn 1 0 0
vn 1 0 0
vn 1 0 0
vn -0 1 0
vn -0 1 0
vn -0 1 0
vn -0 1 0
vn -1 0 0
vn -1 0 0
vn -1 0 0
vn -1 0 0
vn -0 -1 0
vn -0 -1 0
vn -0 -1 0
vn -0 -1 0
vn 1 0 0
vn 1 0 0
vn 1 0 0
vn 1 0 0
vn -0 1 0
vn -0 1 0
vn -0 1 0
vn -0 1 0
vn -1 0 0
vn -1 0 0
vn -1 0 0
vn -1 0 0
vn -0 -1 0
vn -0 -1 0
vn -0 -1 0
vn -0 -1 0
vn 1 0 0
vn 1 0 0
vn 1 0 0
vn 1 0 0
vn -0 1 0
vn -0 1 0
vn -0 1 0
vn -0 1 0
vn 1 0 0
vn 1 0 0
vn 1 0 0
vn 1 0 0
vn -0 -1 0
vn -0 -1 0
vn -0 -1 0
vn -0 -1 0
vn -1 0 0
vn -1 0 0
vn -1 0 0
vn -1 0 0
vn -0 1 0
vn -0 1 0
vn -0 1 0
vn -0 1 0
vn 1 0 0
vn 1 0 0
vn 1 0 0
vn 1 0 0
vn -0 -1 0
vn -0 -1 0
vn -0 -1 0
vn -0 -1 0
vn -1 0 0
vn -1 0 0
vn -1 0 0
vn -1 0 0
vn -0 1 0
vn -0 1 0
vn -0 1 0
vn -0 1 0
vn 1 0 0
vn 1 0 0
vn 1 0 0
vn 1 0 0
vn -0 -1 0
vn -0 -1 0
vn -0 -1 0
vn -0 -1 0
vn -1 0 0
vn -1 0 0
vn -1 0 0
vn -1 0 0
vn 1 0 0
vn 1 0 0
vn 1 0 0
vn 1 0 0
vn -0 1 0
vn -0 1 0
vn -0 1 0
vn -0 1 0
vn -1 0 0
vn -1 0 0
vn -1 0 0
vn -1 0 0
vn -0 -1 0
vn -0 -1 0
vn -0 -1 0
vn -0 -1 0
vn -0 1 0
vn -0 1 0
vn -0 1 0
vn -0 1 0
vn -1 0 0
vn -1 0 0
vn -1 0 0
vn -1 0 0
vn -0 -1 0
vn -0 -1 0
vn -0 -1 0
vn -0 -1 0
vn 1 0 0
vn 1 0 0
vn 1 0 0
vn 1 0 0
vn -0 0 -1
vn -0 0 -1
vn -0 0 -1
vn -0 0 -1
vn -0 0 -1
vn -0 0 -1
vn -0 0 -1
vn -0 -1.80602074E-05 -1
vn -0 0 -1
vn -0 0 -1
vn -0 0 -1
vn -0 0 -1
vn -0 0 -1
vn -0 0 -1
vn -0 0 -1
vn -0 0 -1
vn -0 0 -1
vn -0 0 -1
vn -0 0 -1
vn -0 0 -1
vn -0 0 -1
vn -0 0 -1
vn -0 0 -1
vn -0 0 -1
vn -0 0 -1
vn -0 0 -1
vn -0 0 -1
vn -0 0 -1
vn -0 0 -1
vn -0 0 -1
vn -0 0 -1
vn -0 0 -1
vn -0 0 -1
vn -0 0 1
vn -0 0 1
vn -0 0 1
vn -0 0 1
vn -0 0 1
vn -0 0 1
vn -0 0 1
vn -0 -1.50203705E-05 1
vn -0 0 1
vn -0 0 1
vn -0 0 1
vn -0 0 1
vn -0 0 1
vn -0 0 1
vn -0 0 1
vn -0 0 1
vn -0 0 1
vn -0 0 1
vn -0 0 1
vn -0 0 1
vn -0 0 1
vn -0 0 1
vn -0 0 1
vn -0 0 1
vn -0 0 1
vn -3.76105309E-05 -0.000330686569 1
vn -2.78353691E-05 -0.000631809235 1
vn -2.78353691E-05 -0.000631809235 1
vn -3.76105309E-05 -0.000330686569 1
vn -0 0 1
vn -0 0 1
vn -0 0 1
vn -0 0 1
vn 1 0 0
vn 1 0 0
vn 1 0 0
vn 1 0 0
vn -1 0 0
vn -1 0 0
vn -1 0 0
vn -1 0 0
vn -0 0 -1
vn -0 0 -1
vn -0 0 -1
vn -0 0 -1
vn -0 0 -1
vn -0 0 -1
vn -0 0 -1
vn -0 0 -1
vn -0 0 -1
vn -0 0 -1
vn -0 0 -1
vn -0 0 -1
vn -0 0 -1
vn -0 0 -1
vn -0 0 -1
vn -0 0 -1
vn -0 0 -1
vn -0 0 -1
vn -0 0 -1
vn -0 0 -1
vn -0 0 -1
vn -0 0 -1
vn -0 0 -1
vn -0 0 -1
vn -0 0 -1
vn -0 0 -1
vn -9.7155571E-06 -4.88758087E-06 -1
vn -9.7155571E-06 -4.88758087E-06 -1
vn 0.497314453 0.867675781 0
vn 0.497314453 0.867675781 0
vn 0.497314453 0.867675781 0
vn 0.497314453 0.867675781 0
vn -0 0 1
vn -0 0 1
vn -0 0 1
vn -0 0 1
vn -0 0 1
vn -0 0 1
vn -0 0 1
vn -0 0 1
vn -0 0 1
vn -0 0 1
vn -0 0 1
vn -0 0 1
vn -0 0 1
vn -0 0 1
vn -0 0 1
vn -0 0 1
vn 2.75373459E-05 -0.000628471375 1
vn 2.75373459E-05 -0.000628471375 1
vn 3.75509262E-05 -0.000328540802 1
vn 3.75509262E-05 -0.000328540802 1
vn -0 0 1
vn -0 0 1
vn -0 0 1
vn -0 0 1
vn -0 0 1
vn -0 0 1
vn -8.04662704E-06 -4.05311584E-06 1
vn -8.04662704E-06 -4.05311584E-06 1
vn -0.511230469 -0.859375 0
vn -0.511230469 -0.859375 0
vn -0.511230469 -0.859375 0
vn -0.511230469 -0.859375 0
vn 0.587402344 0.809570312 0
vn 0.587402344 0.809570312 0
vn 0.587402344 0.809570312 0
vn 0.587402344 0.809570312 0
vn -0.521972656 -0.853027344 0
vn -0.521972656 -0.853027344 0
vn -0.521972656 -0.853027344 0
vn -0.521972656 -0.853027344 0
vn 0.77734375 0.629394531 0
vn 0.77734375 0.629394531 0
vn 0.77734375 0.629394531 0
vn 0.77734375 0.629394531 0
vn -0.778320312 -0.627441406 0
vn -0.778320312 -0.627441406 0
vn -0.778320312 -0.627441406 0
vn -0.778320312 -0.627441406 0
vn 0.859863281 0.510253906 0
vn 0.859863281 0.510253906 0
vn 0.859863281 0.510253906 0
vn 0.859863281 0.510253906 0
vn -0.8671875 -0.498291016 0
vn -0.8671875 -0.498291016 0
vn -0.8671875 -0.498291016 0
vn -0.8671875 -0.498291016 0
vn 0.956054688 0.292724609 0
vn 0.956054688 0.292724609 0
vn 0.956054688 0.292724609 0
vn 0.956054688 0.292724609 0
vn -0.955078125 -0.296142578 0
vn -0.955078125 -0.296142578 0
vn -0.955078125 -0.296142578 0
vn -0.955078125 -0.296142578 0
vn 0.982421875 0.186279297 0
vn 0.982421875 0.186279297 0
vn 0.982421875 0.186279297 0
vn 0.982421875 0.186279297 0
vn -0.55859375 0.829589844 0
vn -0.55859375 0.829589844 0
vn -0.55859375 0.829589844 0
vn -0.55859375 0.829589844 0
vn 0.55859375 -0.829589844 0
vn 0.55859375 -0.829589844 0
vn 0.55859375 -0.829589844 0
vn 0.55859375 -0.829589844 0
vn -0 1 0
vn -0 1 0
vn -0 1 0
vn -0 1 0
vn -0 -1 0
vn -0 -1 0
vn -0 -1 0
vn -0 -1 0
vn -0 -1 0
vn -0 -1 0
vn -0 -1 0
vn -0 -1 0
vn -0 -1 0
vn -0 -1 0
vn -0.886230469 0.463134766 0
vn -0.886230469 0.463134766 0
vn -0.886230469 0.463134766 0
vn -0.886230469 0.463134766 0
vn 0.886230469 -0.463134766 0
vn 0.886230469 -0.463134766 0
vn 0.886230469 -0.463134766 0
vn 0.886230469 -0.463134766 0
vn 0.974121094 0.226928711 0
vn 0.974121094 0.226928711 0
vn 0.974121094 0.226928711 0
vn 0.974121094 0.226928711 0
vn -0.976074219 -0.218505859 0
vn -0.976074219 -0.218505859 0
vn -0.976074219 -0.218505859 0
vn -0.976074219 -0.218505859 0
vn -0.627441406 -0.778320312 0
vn -0.627441406 -0.778320312 0
vn -0.627441406 -0.778320312 0
vn -0.627441406 -0.778320312 0
vn 0.670898438 0.741699219 0
vn 0.670898438 0.741699219 0
vn 0.670898438 0.741699219 0
vn 0.670898438 0.741699219 0
vn 0.236206055 0.971679688 0
vn 0.236206055 0.971679688 0
vn 0.236206055 0.971679688 0
vn 0.236206055 0.971679688 0
vn -0.17956543 -0.983886719 0
vn -0.17956543 -0.983886719 0
vn -0.17956543 -0.983886719 0
vn -0.17956543 -0.983886719 0
vn -0.498291016 0.8671875 0
vn -0.498291016 0.8671875 0
vn -0.498291016 0.8671875 0
vn -0.498291016 0.8671875 0
vn 0.512207031 -0.858886719 0
vn 0.512207031 -0.858886719 0
vn 0.512207031 -0.858886719 0
vn 0.512207031 -0.858886719 0
vn -0.587402344 0.809570312 0
vn -0.587402344 0.809570312 0
vn -0.587402344 0.809570312 0
vn -0.587402344 0.809570312 0
vn 0.4921875 -0.870605469 0
vn 0.4921875 -0.870605469 0
vn 0.4921875 -0.870605469 0
vn 0.4921875 -0.870605469 0
vn -0.77734375 0.629394531 0
vn -0.77734375 0.629394531 0
vn -0.77734375 0.629394531 0
vn -0.77734375 0.629394531 0
vn 0.778320312 -0.627441406 0
vn 0.778320312 -0.627441406 0
vn 0.778320312 -0.627441406 0
vn 0.778320312 -0.627441406 0
vn -0.859863281 0.510253906 0
vn -0.859863281 0.510253906 0
vn -0.859863281 0.510253906 0
vn -0.859863281 0.510253906 0
vn 0.825195312 -0.564453125 0
vn 0.825195312 -0.564453125 0
vn 0.825195312 -0.564453125 0
vn 0.825195312 -0.564453125 0
vn -0.956054688 0.292724609 0
vn -0.956054688 0.292724609 0
vn -0.956054688 0.292724609 0
vn -0.956054688 0.292724609 0
vn 0.955078125 -0.296142578 0
vn 0.955078125 -0.296142578 0
vn 0.955078125 -0.296142578 0
vn 0.955078125 -0.296142578 0
vn -0.997070312 0.0736083984 0
vn -0.997070312 0.0736083984 0
vn -0.997070312 0.0736083984 0
vn -0.997070312 0.0736083984 0
vn 0.546386719 0.837402344 0
vn 0.546386719 0.837402344 0
vn 0.546386719 0.837402344 0
vn 0.546386719 0.837402344 0
vn -0.545898438 -0.837890625 0
vn -0.545898438 -0.837890625 0
vn -0.545898438 -0.837890625 0
vn -0.545898438 -0.837890625 0
vn -0 1 0
vn -0 1 0
vn -0 1 0
vn -0 1 0
vn -0 -1 0
vn -0 -1 0
vn -0 -1 0
vn -0 -1 0
vn 0.881835938 0.471435547 0
vn 0.881835938 0.471435547 0
vn 0.881835938 0.471435547 0
vn 0.881835938 0.471435547 0
vn -0.883300781 -0.46875 0
vn -0.883300781 -0.46875 0
vn -0.883300781 -0.46875 0
vn -0.883300781 -0.46875 0
vn -0.978027344 0.209594727 0
vn -0.978027344 0.209594727 0
vn -0.978027344 0.209594727 0
vn -0.978027344 0.209594727 0
vn 0.983886719 -0.178222656 0
vn 0.983886719 -0.178222656 0
vn 0.983886719 -0.178222656 0
vn 0.983886719 -0.178222656 0
vn 0.6796875 -0.733886719 0
vn 0.6796875 -0.733886719 0
vn 0.6796875 -0.733886719 0
vn 0.6796875 -0.733886719 0
vn -0.686035156 0.727539062 0
vn -0.686035156 0.727539062 0
vn -0.686035156 0.727539062 0
vn -0.686035156 0.727539062 0
vn -0.195922852 0.98046875 0
vn -0.195922852 0.98046875 0
vn -0.195922852 0.98046875 0
vn -0.195922852 0.98046875 0
vn 0.122009277 -0.992675781 0
vn 0.122009277 -0.992675781 0
vn 0.122009277 -0.992675781 0
vn 0.122009277 -0.992675781 0
vn -0 1 0
vn -0 1 0
vn -0 1 0
vn -0 1 0
g IS4_MDL_EscenarioPB_Ventanal_Rejas_1_0
f 3/3/3 2/2/2 1/1/1
f 6/6/6 5/5/5 4/4/4
f 9/9/9 8/8/8 7/7/7
f 10/10/10 9/9/9 7/7/7
f 13/13/13 12/12/12 11/11/11
f 14/14/14 13/13/13 11/11/11
f 17/17/17 16/16/16 15/15/15
f 18/18/18 17/17/17 15/15/15
f 21/21/21 20/20/20 19/19/19
f 22/22/22 21/21/21 19/19/19
f 25/25/25 24/24/24 23/23/23
f 26/26/26 25/25/25 23/23/23
f 29/29/29 28/28/28 27/27/27
f 30/30/30 29/29/29 27/27/27
f 33/33/33 32/32/32 31/31/31
f 34/34/34 33/33/33 31/31/31
f 37/37/37 36/36/36 35/35/35
f 38/38/38 37/37/37 35/35/35
f 41/41/41 40/40/40 39/39/39
f 42/42/42 41/41/41 39/39/39
f 45/45/45 44/44/44 43/43/43
f 46/46/46 45/45/45 43/43/43
f 49/49/49 48/48/48 47/47/47
f 50/50/50 49/49/49 47/47/47
f 53/53/53 52/52/52 51/51/51
f 54/54/54 53/53/53 51/51/51
f 57/57/57 56/56/56 55/55/55
f 58/58/58 57/57/57 55/55/55
f 61/61/61 60/60/60 59/59/59
f 62/62/62 61/61/61 59/59/59
f 65/65/65 64/64/64 63/63/63
f 66/66/66 65/65/65 63/63/63
f 69/69/69 68/68/68 67/67/67
f 70/70/70 69/69/69 67/67/67
f 73/73/73 72/72/72 71/71/71
f 74/74/74 73/73/73 71/71/71
f 77/77/77 76/76/76 75/75/75
f 78/78/78 77/77/77 75/75/75
f 81/81/81 80/80/80 79/79/79
f 82/82/82 81/81/81 79/79/79
f 85/85/85 84/84/84 83/83/83
f 86/86/86 85/85/85 83/83/83
f 89/89/89 88/88/88 87/87/87
f 88/88/88 90/90/90 87/87/87
f 87/87/87 90/90/90 91/91/91
f 88/88/88 92/92/92 90/90/90
f 90/90/90 93/93/93 91/91/91
f 92/92/92 94/94/94 90/90/90
f 91/91/91 93/93/93 95/95/95
f 92/92/92 96/96/96 94/94/94
f 93/93/93 97/97/97 95/95/95
f 95/95/95 97/97/97 98/98/98
f 93/93/93 99/99/99 97/97/97
f 96/96/96 100/100/100 94/94/94
f 94/94/94 100/100/100 99/99/99
f 96/96/96 101/101/101 100/100/100
f 97/97/97 102/102/102 98/98/98
f 98/98/98 102/102/102 103/103/103
f 102/102/102 104/104/104 103/103/103
f 102/102/102 105/105/105 104/104/104
f 99/99/99 106/106/106 97/97/97
f 105/105/105 107/107/107 104/104/104
f 100/100/100 108/108/108 99/99/99
f 99/99/99 108/108/108 106/106/106
f 101/101/101 109/109/109 100/100/100
f 108/108/108 110/110/110 106/106/106
f 106/106/106 110/110/110 105/105/105
f 108/108/108 111/111/111 110/110/110
f 105/105/105 112/112/112 107/107/107
f 110/110/110 112/112/112 105/105/105
f 112/112/112 113/113/113 107/107/107
f 112/112/112 114/114/114 113/113/113
f 114/114/114 115/115/115 113/113/113
f 115/115/115 114/114/114 116/116/116
f 114/114/114 117/117/117 116/116/116
f 114/114/114 118/118/118 117/117/117
f 111/111/111 118/118/118 110/110/110
f 118/118/118 119/119/119 117/117/117
f 118/118/118 111/111/111 119/119/119
f 111/111/111 120/120/120 119/119/119
f 111/111/111 109/109/109 120/120/120
f 109/109/109 121/121/121 120/120/120
f 109/109/109 101/101/101 121/121/121
f 101/101/101 122/122/122 121/121/121
f 125/125/125 124/124/124 123/123/123
f 126/126/126 125/125/125 123/123/123
f 129/129/129 128/128/128 127/127/127
f 128/128/128 130/130/130 127/127/127
f 127/127/127 130/130/130 131/131/131
f 130/130/130 132/132/132 131/131/131
f 131/131/131 132/132/132 133/133/133
f 132/132/132 134/134/134 133/133/133
f 133/133/133 134/134/134 135/135/135
f 134/134/134 136/136/136 135/135/135
f 135/135/135 136/136/136 137/137/137
f 136/136/136 138/138/138 137/137/137
f 141/141/141 140/140/140 139/139/139
f 140/140/140 142/142/142 139/139/139
f 140/140/140 143/143/143 142/142/142
f 143/143/143 144/144/144 142/142/142
f 143/143/143 145/145/145 144/144/144
f 145/145/145 146/146/146 144/144/144
f 145/145/145 147/147/147 146/146/146
f 147/147/147 148/148/148 146/146/146
f 147/147/147 149/149/149 148/148/148
f 149/149/149 150/150/150 148/148/148
f 153/153/153 152/152/152 151/151/151
f 152/152/152 154/154/154 151/151/151
f 152/152/152 155/155/155 154/154/154
f 155/155/155 156/156/156 154/154/154
f 155/155/155 157/157/157 156/156/156
f 157/157/157 158/158/158 156/156/156
f 157/157/157 159/159/159 158/158/158
f 159/159/159 160/160/160 158/158/158
f 159/159/159 161/161/161 160/160/160
f 161/161/161 162/162/162 160/160/160
f 165/165/165 164/164/164 163/163/163
f 164/164/164 166/166/166 163/163/163
f 163/163/163 166/166/166 167/167/167
f 164/164/164 168/168/168 166/166/166
f 166/166/166 169/169/169 167/167/167
f 168/168/168 170/170/170 166/166/166
f 167/167/167 169/169/169 171/171/171
f 168/168/168 172/172/172 170/170/170
f 169/169/169 173/173/173 171/171/171
f 171/171/171 173/173/173 174/174/174
f 169/169/169 175/175/175 173/173/173
f 172/172/172 176/176/176 170/170/170
f 170/170/170 176/176/176 175/175/175
f 172/172/172 177/177/177 176/176/176
f 173/173/173 178/178/178 174/174/174
f 174/174/174 178/178/178 179/179/179
f 178/178/178 180/180/180 179/179/179
f 178/178/178 181/181/181 180/180/180
f 175/175/175 182/182/182 173/173/173
f 181/181/181 183/183/183 180/180/180
f 177/177/177 184/184/184 176/176/176
f 177/177/177 185/185/185 184/184/184
f 185/185/185 186/186/186 184/184/184
f 176/176/176 187/187/187 175/175/175
f 175/175/175 187/187/187 182/182/182
f 184/184/184 186/186/186 188/188/188
f 186/186/186 189/189/189 188/188/188
f 187/187/187 190/190/190 182/182/182
f 182/182/182 190/190/190 181/181/181
f 187/187/187 188/188/188 190/190/190
f 181/181/181 191/191/191 183/183/183
f 190/190/190 191/191/191 181/181/181
f 191/191/191 192/192/192 183/183/183
f 188/188/188 193/193/193 190/190/190
f 188/188/188 189/189/189 193/193/193
f 189/189/189 194/194/194 193/193/193
f 191/191/191 195/195/195 192/192/192
f 193/193/193 194/194/194 195/195/195
f 195/195/195 196/196/196 192/192/192
f 194/194/194 197/197/197 195/195/195
f 195/195/195 197/197/197 196/196/196
f 197/197/197 198/198/198 196/196/196
f 201/201/201 200/200/200 199/199/199
f 202/202/202 201/201/201 199/199/199
f 203/203/203 201/201/201 202/202/202
f 204/204/204 203/203/203 202/202/202
f 205/205/205 203/203/203 204/204/204
f 206/206/206 205/205/205 204/204/204
f 207/207/207 205/205/205 206/206/206
f 208/208/208 207/207/207 206/206/206
f 211/211/211 210/210/210 209/209/209
f 212/212/212 211/211/211 209/209/209
f 212/212/212 209/209/209 213/213/213
f 214/214/214 211/211/211 212/212/212
f 215/215/215 212/212/212 213/213/213
f 216/216/216 214/214/214 212/212/212
f 215/215/215 213/213/213 217/217/217
f 218/218/218 214/214/214 216/216/216
f 219/219/219 215/215/215 217/217/217
f 219/219/219 217/217/217 220/220/220
f 221/221/221 215/215/215 219/219/219
f 222/222/222 218/218/218 216/216/216
f 222/222/222 216/216/216 221/221/221
f 223/223/223 218/218/218 222/222/222
f 224/224/224 223/223/223 222/222/222
f 225/225/225 222/222/222 221/221/221
f 226/226/226 219/219/219 220/220/220
f 226/226/226 220/220/220 227/227/227
f 228/228/228 226/226/226 227/227/227
f 229/229/229 221/221/221 219/219/219
f 225/225/225 221/221/221 229/229/229
f 230/230/230 226/226/226 228/228/228
f 231/231/231 230/230/230 228/228/228
f 232/232/232 225/225/225 229/229/229
f 232/232/232 229/229/229 230/230/230
f 233/233/233 225/225/225 232/232/232
f 234/234/234 233/233/233 232/232/232
f 235/235/235 232/232/232 230/230/230
f 235/235/235 230/230/230 231/231/231
f 236/236/236 235/235/235 231/231/231
f 237/237/237 235/235/235 236/236/236
f 238/238/238 237/237/237 236/236/236
f 241/241/241 240/240/240 239/239/239
f 242/242/242 241/241/241 239/239/239
f 245/245/245 244/244/244 243/243/243
f 246/246/246 245/245/245 243/243/243
f 246/246/246 243/243/243 247/247/247
f 246/246/246 248/248/248 245/245/245
f 249/249/249 246/246/246 247/247/247
f 248/248/248 250/250/250 245/245/245
f 249/249/249 247/247/247 251/251/251
f 248/248/248 252/252/252 250/250/250
f 252/252/252 253/253/253 250/250/250
f 252/252/252 248/248/248 254/254/254
f 252/252/252 255/255/255 253/253/253
f 255/255/255 256/256/256 253/253/253
f 257/257/257 252/252/252 254/254/254
f 258/258/258 249/249/249 251/251/251
f 254/254/254 249/249/249 258/258/258
f 258/258/258 251/251/251 259/259/259
f 260/260/260 254/254/254 258/258/258
f 257/257/257 254/254/254 260/260/260
f 261/261/261 258/258/258 259/259/259
f 261/261/261 259/259/259 262/262/262
f 263/263/263 261/261/261 262/262/262
f 264/264/264 261/261/261 263/263/263
f 265/265/265 264/264/264 263/263/263
f 266/266/266 257/257/257 260/260/260
f 266/266/266 260/260/260 264/264/264
f 267/267/267 257/257/257 266/266/266
f 268/268/268 267/267/267 266/266/266
f 269/269/269 266/266/266 264/264/264
f 269/269/269 264/264/264 265/265/265
f 270/270/270 269/269/269 265/265/265
f 271/271/271 269/269/269 270/270/270
f 272/272/272 271/271/271 270/270/270
f 275/275/275 274/274/274 273/273/273
f 276/276/276 275/275/275 273/273/273
f 279/279/279 278/278/278 277/277/277
f 280/280/280 279/279/279 277/277/277
f 283/283/283 282/282/282 281/281/281
f 284/284/284 283/283/283 281/281/281
f 287/287/287 286/286/286 285/285/285
f 288/288/288 287/287/287 285/285/285
f 291/291/291 290/290/290 289/289/289
f 292/292/292 291/291/291 289/289/289
f 295/295/295 294/294/294 293/293/293
f 296/296/296 295/295/295 293/293/293
f 299/299/299 298/298/298 297/297/297
f 300/300/300 299/299/299 297/297/297
f 303/303/303 302/302/302 301/301/301
f 304/304/304 303/303/303 301/301/301
f 307/307/307 306/306/306 305/305/305
f 308/308/308 307/307/307 305/305/305
f 311/311/311 310/310/310 309/309/309
f 312/312/312 311/311/311 309/309/309
f 315/315/315 314/314/314 313/313/313
f 316/316/316 315/315/315 313/313/313
f 319/319/319 318/318/318 317/317/317
f 320/320/320 319/319/319 317/317/317
f 323/323/323 322/322/322 321/321/321
f 324/324/324 323/323/323 321/321/321
f 327/327/327 326/326/326 325/325/325
f 328/328/328 327/327/327 325/325/325
f 331/331/331 330/330/330 329/329/329
f 332/332/332 331/331/331 329/329/329
f 335/335/335 334/334/334 333/333/333
f 336/336/336 335/335/335 333/333/333
f 339/339/339 338/338/338 337/337/337
f 340/340/340 339/339/339 337/337/337
f 343/343/343 342/342/342 341/341/341
f 344/344/344 343/343/343 341/341/341
f 347/347/347 346/346/346 345/345/345
f 348/348/348 347/347/347 345/345/345
f 351/351/351 350/350/350 349/349/349
f 352/352/352 351/351/351 349/349/349
f 355/355/355 354/354/354 353/353/353
f 356/356/356 355/355/355 353/353/353
f 359/359/359 358/358/358 357/357/357
f 360/360/360 359/359/359 357/357/357
f 363/363/363 362/362/362 361/361/361
f 364/364/364 363/363/363 361/361/361
f 367/367/367 366/366/366 365/365/365
f 368/368/368 367/367/367 365/365/365
f 371/371/371 370/370/370 369/369/369
f 372/372/372 371/371/371 369/369/369
f 375/375/375 374/374/374 373/373/373
f 376/376/376 375/375/375 373/373/373
f 379/379/379 378/378/378 377/377/377
f 380/380/380 379/379/379 377/377/377
f 383/383/383 382/382/382 381/381/381
f 384/384/384 383/383/383 381/381/381
f 387/387/387 386/386/386 385/385/385
f 388/388/388 387/387/387 385/385/385
f 391/391/391 390/390/390 389/389/389
f 392/392/392 391/391/391 389/389/389
f 395/395/395 394/394/394 393/393/393
f 396/396/396 395/395/395 393/393/393
f 399/399/399 398/398/398 397/397/397
f 400/400/400 399/399/399 397/397/397
f 403/403/403 402/402/402 401/401/401
f 404/404/404 403/403/403 401/401/401
f 407/407/407 406/406/406 405/405/405
f 408/408/408 407/407/407 405/405/405
f 411/411/411 410/410/410 409/409/409
f 412/412/412 411/411/411 409/409/409
f 415/415/415 414/414/414 413/413/413
f 416/416/416 415/415/415 413/413/413
f 419/419/419 418/418/418 417/417/417
f 420/420/420 419/419/419 417/417/417
f 423/423/423 422/422/422 421/421/421
f 424/424/424 423/423/423 421/421/421
f 427/427/427 426/426/426 425/425/425
f 428/428/428 427/427/427 425/425/425
f 431/431/431 430/430/430 429/429/429
f 430/430/430 432/432/432 429/429/429
f 430/430/430 433/433/433 432/432/432
f 432/432/432 434/434/434 429/429/429
f 433/433/433 435/435/435 432/432/432
f 433/433/433 436/436/436 435/435/435
f 435/435/435 436/436/436 437/437/437
f 434/434/434 438/438/438 429/429/429
f 439/439/439 435/435/435 437/437/437
f 434/434/434 440/440/440 438/438/438
f 434/434/434 439/439/439 440/440/440
f 440/440/440 441/441/441 438/438/438
f 439/439/439 437/437/437 442/442/442
f 439/439/439 442/442/442 440/440/440
f 437/437/437 443/443/443 442/442/442
f 440/440/440 444/444/444 441/441/441
f 442/442/442 443/443/443 445/445/445
f 444/444/444 446/446/446 441/441/441
f 447/447/447 442/442/442 445/445/445
f 444/444/444 448/448/448 446/446/446
f 444/444/444 447/447/447 448/448/448
f 448/448/448 449/449/449 446/446/446
f 447/447/447 445/445/445 450/450/450
f 447/447/447 450/450/450 448/448/448
f 445/445/445 451/451/451 450/450/450
f 448/448/448 452/452/452 449/449/449
f 451/451/451 453/453/453 450/450/450
f 452/452/452 454/454/454 449/449/449
f 453/453/453 455/455/455 450/450/450
f 452/452/452 456/456/456 454/454/454
f 452/452/452 455/455/455 456/456/456
f 456/456/456 457/457/457 454/454/454
f 455/455/455 458/458/458 456/456/456
f 455/455/455 453/453/453 458/458/458
f 453/453/453 459/459/459 458/458/458
f 459/459/459 453/453/453 460/460/460
f 461/461/461 459/459/459 460/460/460
f 464/464/464 463/463/463 462/462/462
f 465/465/465 464/464/464 462/462/462
f 462/462/462 466/466/466 465/465/465
f 464/464/464 465/465/465 467/467/467
f 468/468/468 464/464/464 467/467/467
f 467/467/467 469/469/469 468/468/468
f 466/466/466 470/470/470 465/465/465
f 469/469/469 467/467/467 471/471/471
f 472/472/472 469/469/469 471/471/471
f 466/466/466 473/473/473 470/470/470
f 474/474/474 472/472/472 471/471/471
f 473/473/473 475/475/475 470/470/470
f 473/473/473 476/476/476 475/475/475
f 477/477/477 471/471/471 470/470/470
f 475/475/475 477/477/477 470/470/470
f 477/477/477 474/474/474 471/471/471
f 476/476/476 478/478/478 475/475/475
f 474/474/474 477/477/477 479/479/479
f 480/480/480 474/474/474 479/479/479
f 476/476/476 481/481/481 478/478/478
f 482/482/482 480/480/480 479/479/479
f 481/481/481 483/483/483 478/478/478
f 481/481/481 484/484/484 483/483/483
f 485/485/485 479/479/479 478/478/478
f 483/483/483 485/485/485 478/478/478
f 485/485/485 482/482/482 479/479/479
f 484/484/484 486/486/486 483/483/483
f 485/485/485 487/487/487 482/482/482
f 484/484/484 488/488/488 486/486/486
f 488/488/488 489/489/489 486/486/486
f 489/489/489 490/490/490 486/486/486
f 490/490/490 487/487/487 486/486/486
f 490/490/490 491/491/491 487/487/487
f 487/487/487 492/492/492 482/482/482
f 491/491/491 492/492/492 487/487/487
f 492/492/492 491/491/491 493/493/493
f 494/494/494 492/492/492 493/493/493
f 497/497/497 496/496/496 495/495/495
f 498/498/498 497/497/497 495/495/495
f 501/501/501 500/500/500 499/499/499
f 502/502/502 501/501/501 499/499/499
f 505/505/505 504/504/504 503/503/503
f 504/504/504 506/506/506 503/503/503
f 504/504/504 507/507/507 506/506/506
f 507/507/507 508/508/508 506/506/506
f 507/507/507 509/509/509 508/508/508
f 508/508/508 510/510/510 506/506/506
f 509/509/509 511/511/511 508/508/508
f 510/510/510 512/512/512 506/506/506
f 509/509/509 513/513/513 511/511/511
f 513/513/513 514/514/514 511/511/511
f 513/513/513 515/515/515 514/514/514
f 514/514/514 516/516/516 511/511/511
f 515/515/515 517/517/517 514/514/514
f 515/515/515 518/518/518 517/517/517
f 518/518/518 519/519/519 517/517/517
f 519/519/519 520/520/520 517/517/517
f 520/520/520 521/521/521 517/517/517
f 520/520/520 522/522/522 521/521/521
f 522/522/522 523/523/523 521/521/521
f 521/521/521 523/523/523 524/524/524
f 516/516/516 521/521/521 524/524/524
f 516/516/516 525/525/525 511/511/511
f 516/516/516 524/524/524 525/525/525
f 524/524/524 526/526/526 525/525/525
f 526/526/526 527/527/527 525/525/525
f 527/527/527 510/510/510 525/525/525
f 510/510/510 527/527/527 512/512/512
f 527/527/527 528/528/528 512/512/512
f 528/528/528 529/529/529 512/512/512
f 529/529/529 530/530/530 512/512/512
f 533/533/533 532/532/532 531/531/531
f 534/534/534 533/533/533 531/531/531
f 537/537/537 536/536/536 535/535/535
f 536/536/536 538/538/538 535/535/535
f 536/536/536 539/539/539 538/538/538
f 539/539/539 540/540/540 538/538/538
f 536/536/536 541/541/541 539/539/539
f 539/539/539 542/542/542 540/540/540
f 542/542/542 543/543/543 540/540/540
f 541/541/541 544/544/544 539/539/539
f 542/542/542 545/545/545 543/543/543
f 545/545/545 546/546/546 543/543/543
f 542/542/542 547/547/547 545/545/545
f 545/545/545 548/548/548 546/546/546
f 548/548/548 549/549/549 546/546/546
f 547/547/547 550/550/550 545/545/545
f 548/548/548 551/551/551 549/549/549
f 551/551/551 552/552/552 549/549/549
f 548/548/548 553/553/553 551/551/551
f 553/553/553 554/554/554 551/551/551
f 553/553/553 555/555/555 554/554/554
f 555/555/555 553/553/553 550/550/550
f 555/555/555 556/556/556 554/554/554
f 557/557/557 555/555/555 550/550/550
f 558/558/558 557/557/557 550/550/550
f 547/547/547 558/558/558 550/550/550
f 547/547/547 544/544/544 558/558/558
f 544/544/544 559/559/559 558/558/558
f 560/560/560 559/559/559 544/544/544
f 541/541/541 560/560/560 544/544/544
f 541/541/541 561/561/561 560/560/560
f 561/561/561 562/562/562 560/560/560
f 565/565/565 564/564/564 563/563/563
f 566/566/566 565/565/565 563/563/563
f 569/569/569 568/568/568 567/567/567
f 570/570/570 569/569/569 567/567/567
f 573/573/573 572/572/572 571/571/571
f 574/574/574 573/573/573 571/571/571
f 577/577/577 576/576/576 575/575/575
f 578/578/578 577/577/577 575/575/575
f 581/581/581 580/580/580 579/579/579
f 582/582/582 581/581/581 579/579/579
f 585/585/585 584/584/584 583/583/583
f 586/586/586 585/585/585 583/583/583
f 589/589/589 588/588/588 587/587/587
f 590/590/590 589/589/589 587/587/587
f 593/593/593 592/592/592 591/591/591
f 594/594/594 593/593/593 591/591/591
f 597/597/597 596/596/596 595/595/595
f 598/598/598 597/597/597 595/595/595
f 601/601/601 600/600/600 599/599/599
f 602/602/602 601/601/601 599/599/599
f 605/605/605 604/604/604 603/603/603
f 606/606/606 605/605/605 603/603/603
f 609/609/609 608/608/608 607/607/607
f 610/610/610 609/609/609 607/607/607
f 613/613/613 612/612/612 611/611/611
f 614/614/614 613/613/613 611/611/611
f 617/617/617 616/616/616 615/615/615
f 616/616/616 618/618/618 615/615/615
f 616/616/616 619/619/619 618/618/618
f 619/619/619 620/620/620 618/618/618
f 619/619/619 621/621/621 620/620/620
f 621/621/621 622/622/622 620/620/620
f 622/622/622 621/621/621 623/623/623
f 624/624/624 622/622/622 623/623/623
f 627/627/627 626/626/626 625/625/625
f 628/628/628 627/627/627 625/625/625
f 631/631/631 630/630/630 629/629/629
f 632/632/632 631/631/631 629/629/629
f 635/635/635 634/634/634 633/633/633
f 636/636/636 635/635/635 633/633/633
f 639/639/639 638/638/638 637/637/637
f 640/640/640 639/639/639 637/637/637
f 643/643/643 642/642/642 641/641/641
f 644/644/644 643/643/643 641/641/641
f 647/647/647 646/646/646 645/645/645
f 648/648/648 647/647/647 645/645/645
f 651/651/651 650/650/650 649/649/649
f 652/652/652 651/651/651 649/649/649
f 655/655/655 654/654/654 653/653/653
f 656/656/656 655/655/655 653/653/653
f 659/659/659 658/658/658 657/657/657
f 660/660/660 659/659/659 657/657/657
f 663/663/663 662/662/662 661/661/661
f 664/664/664 663/663/663 661/661/661
f 667/667/667 666/666/666 665/665/665
f 668/668/668 667/667/667 665/665/665
f 671/671/671 670/670/670 669/669/669
f 672/672/672 671/671/671 669/669/669
f 675/675/675 674/674/674 673/673/673
f 676/676/676 675/675/675 673/673/673
f 679/679/679 678/678/678 677/677/677
f 680/680/680 679/679/679 677/677/677
f 683/683/683 682/682/682 681/681/681
f 684/684/684 683/683/683 681/681/681
f 687/687/687 686/686/686 685/685/685
f 688/688/688 687/687/687 685/685/685
f 691/691/691 690/690/690 689/689/689
f 692/692/692 691/691/691 689/689/689
f 695/695/695 694/694/694 693/693/693
f 696/696/696 695/695/695 693/693/693
f 699/699/699 698/698/698 697/697/697
f 700/700/700 699/699/699 697/697/697
f 703/703/703 702/702/702 701/701/701
f 704/704/704 703/703/703 701/701/701
f 707/707/707 706/706/706 705/705/705
f 708/708/708 707/707/707 705/705/705
f 711/711/711 710/710/710 709/709/709
f 712/712/712 711/711/711 709/709/709
f 715/715/715 714/714/714 713/713/713
f 716/716/716 715/715/715 713/713/713
f 719/719/719 718/718/718 717/717/717
f 720/720/720 719/719/719 717/717/717
f 723/723/723 722/722/722 721/721/721
f 724/724/724 723/723/723 721/721/721
f 727/727/727 726/726/726 725/725/725
f 728/728/728 727/727/727 725/725/725
f 731/731/731 730/730/730 729/729/729
f 732/732/732 731/731/731 729/729/729
f 735/735/735 734/734/734 733/733/733
f 736/736/736 735/735/735 733/733/733
f 739/739/739 738/738/738 737/737/737
f 740/740/740 739/739/739 737/737/737
f 743/743/743 742/742/742 741/741/741
f 744/744/744 743/743/743 741/741/741
f 747/747/747 746/746/746 745/745/745
f 748/748/748 747/747/747 745/745/745
f 751/751/751 750/750/750 749/749/749
f 752/752/752 751/751/751 749/749/749
