g EscenarioPB_PuertaMuseo_Marco
v -0.162205771 1.08131564 -0.456423849
v 0.143853799 1.08131564 -0.456423849
v 0.143853799 1.08131564 0.456422806
v -0.162205771 1.08131564 0.456422806
v -0.162205771 1.08131564 0.456422806
v 0.143853799 1.08131564 0.456422806
v 0.143853799 0.00575040607 0.456422806
v -0.162205771 0.00575040607 0.456422806
v 0.143853799 -1.00561488 0.456422806
v -0.162205771 -1.00561488 0.456422806
v 0.143853799 -1.00561488 -0.456423849
v -0.162205771 0.0113342069 -0.456423849
v -0.162205771 -1.00561488 -0.456423849
v 0.143853799 0.0113342069 -0.456423849
v 0.143853799 1.08131564 -0.456423849
v -0.162205771 1.08131564 -0.456423849
v -0.134095415 0.00574994832 0.362415224
v -0.134095415 0.984546006 0.362415224
v -0.162205771 1.0029304 0.380275339
v -0.162205771 0.00575002469 0.380275339
v -0.134095415 -1.00561488 0.362415224
v -0.162205771 -1.00561488 0.380275339
v -0.134095415 0.984546006 0.362415224
v -0.134095415 0.984546006 -0.362415075
v -0.162205771 1.0029304 -0.380273968
v -0.162205771 1.0029304 0.380275339
v -0.134095415 0.0113337487 -0.362415075
v -0.134095415 -1.00561488 -0.362415075
v -0.162205771 -1.00561488 -0.380273968
v -0.162205771 0.0113338251 -0.380273968
v -0.134095415 0.984546006 -0.362415075
v -0.162205771 1.0029304 -0.380273968
v 0.143853799 0.0113338251 -0.380273968
v 0.143853799 -1.00561488 -0.380273968
v 0.115748324 -1.00561488 -0.362415075
v 0.115748324 0.0113337487 -0.362415075
v 0.143853799 1.0029304 -0.380273968
v 0.115748324 0.984546006 -0.362415075
v 0.115748324 0.984546006 -0.362415075
v 0.115748324 0.984546006 0.362415224
v 0.143853799 1.0029304 0.380275339
v 0.143853799 1.0029304 -0.380273968
v 0.115748324 0.984546006 0.362415224
v 0.143853799 0.00575002469 0.380275339
v 0.143853799 1.0029304 0.380275339
v 0.115748324 0.00574994832 0.362415224
v 0.143853799 -1.00561488 0.380275339
v 0.115748324 -1.00561488 0.362415224
v -0.162205771 0.00575040607 0.456422806
v -0.162205771 1.0029304 0.380275339
v -0.162205771 1.08131564 0.456422806
v -0.162205771 0.00575002469 0.380275339
v -0.162205771 -1.00561488 0.456422806
v -0.162205771 -1.00561488 0.380275339
v -0.162205771 1.08131564 0.456422806
v -0.162205771 1.0029304 0.380275339
v -0.162205771 1.0029304 -0.380273968
v -0.162205771 1.08131564 -0.456423849
v -0.162205771 0.0113342069 -0.456423849
v -0.162205771 -1.00561488 -0.380273968
v -0.162205771 -1.00561488 -0.456423849
v -0.162205771 0.0113338251 -0.380273968
v -0.162205771 1.08131564 -0.456423849
v -0.162205771 1.0029304 -0.380273968
v 0.143853799 1.08131564 -0.456423849
v 0.143853799 1.0029304 -0.380273968
v 0.143853799 1.0029304 0.380275339
v 0.143853799 1.08131564 0.456422806
v 0.143853799 1.08131564 0.456422806
v 0.143853799 1.0029304 0.380275339
v 0.143853799 0.00575002469 0.380275339
v 0.143853799 0.00575040607 0.456422806
v 0.143853799 -1.00561488 0.456422806
v 0.143853799 -1.00561488 0.380275339
v 0.143853799 -1.00561488 -0.456423849
v 0.143853799 -1.00561488 -0.380273968
v 0.143853799 0.0113338251 -0.380273968
v 0.143853799 0.0113342069 -0.456423849
v 0.143853799 1.08131564 -0.456423849
v 0.143853799 1.0029304 -0.380273968
v 0.115748324 0.984546006 0.362415224
v -0.134095415 0.984546006 0.362415224
v -0.134095415 0.00574994832 0.362415224
v 0.115748324 0.00574994832 0.362415224
v -0.134095415 -1.00561488 0.362415224
v 0.115748324 -1.00561488 0.362415224
v 0.115748324 0.984546006 -0.362415075
v -0.134095415 0.984546006 -0.362415075
v -0.134095415 0.984546006 0.362415224
v 0.115748324 0.984546006 0.362415224
v -0.134095415 -1.00561488 -0.362415075
v 0.115748324 0.0113337487 -0.362415075
v 0.115748324 -1.00561488 -0.362415075
v -0.134095415 0.0113337487 -0.362415075
v -0.134095415 0.984546006 -0.362415075
v 0.115748324 0.984546006 -0.362415075
vt 0.118164062 0.966796875
vt 0.136230469 0.966796875
vt 0.136230469 0.838378906
vt 0.118164062 0.838378906
vt 0.0345153809 0.941894531
vt 0.0484008789 0.941894531
vt 0.0484008789 0.831054688
vt 0.0345153809 0.831054688
vt 0.0484008789 0.670898438
vt 0.0345153809 0.670898438
vt 0.0340576172 0.670898438
vt 0.0490722656 0.831054688
vt 0.0490722656 0.670898438
vt 0.0340576172 0.831054688
vt 0.0340576172 0.941894531
vt 0.0490722656 0.941894531
vt 0.0475158691 0.831054688
vt 0.0475158691 0.940429688
vt 0.0488891602 0.942871094
vt 0.0488891602 0.831054688
vt 0.0475158691 0.665527344
vt 0.0488891602 0.665527344
vt 0.0477905273 0.831054688
vt 0.0477905273 0.947753906
vt 0.0491638184 0.951171875
vt 0.0491638184 0.831054688
vt 0.0474853516 0.831054688
vt 0.0474853516 0.666015625
vt 0.0488586426 0.666015625
vt 0.0488586426 0.831054688
vt 0.0474853516 0.940917969
vt 0.0488586426 0.943359375
vt 0.0333251953 0.831054688
vt 0.0333251953 0.666015625
vt 0.0346984863 0.666015625
vt 0.0346984863 0.831054688
vt 0.0333251953 0.943359375
vt 0.0346984863 0.940917969
vt 0.0350646973 0.947753906
vt 0.0350646973 0.831054688
vt 0.0336914062 0.831054688
vt 0.0336914062 0.951171875
vt 0.0347290039 0.940429688
vt 0.0333557129 0.831054688
vt 0.0333557129 0.942871094
vt 0.0347290039 0.831054688
vt 0.0333557129 0.665527344
vt 0.0347290039 0.665527344
vt 0.173828125 0.832519531
vt 0.160522461 0.9609375
vt 0.173828125 0.97265625
vt 0.160522461 0.832519531
vt 0.173828125 0.6640625
vt 0.160522461 0.6640625
vt 0.173583984 0.832519531
vt 0.160522461 0.832519531
vt 0.160522461 0.95703125
vt 0.173583984 0.967773438
vt 0.16027832 0.832519531
vt 0.173706055 0.6640625
vt 0.16027832 0.6640625
vt 0.173706055 0.832519531
vt 0.16027832 0.97265625
vt 0.173706055 0.9609375
vt 0.172973633 0.967285156
vt 0.16003418 0.956542969
vt 0.16003418 0.832519531
vt 0.172973633 0.832519531
vt 0.173583984 0.97265625
vt 0.16027832 0.9609375
vt 0.16027832 0.832519531
vt 0.173583984 0.832519531
vt 0.173583984 0.6640625
vt 0.16027832 0.6640625
vt 0.16015625 0.6640625
vt 0.173461914 0.6640625
vt 0.173461914 0.832519531
vt 0.16015625 0.832519531
vt 0.16015625 0.97265625
vt 0.173461914 0.9609375
vt 0.0347290039 0.940429688
vt 0.0475158691 0.940429688
vt 0.0475158691 0.831054688
vt 0.0347290039 0.831054688
vt 0.0475158691 0.665527344
vt 0.0347290039 0.665527344
vt 0.0350646973 0.947753906
vt 0.0477905273 0.947753906
vt 0.0477905273 0.831054688
vt 0.0350646973 0.831054688
vt 0.0474853516 0.666015625
vt 0.0346984863 0.831054688
vt 0.0346984863 0.666015625
vt 0.0474853516 0.831054688
vt 0.0474853516 0.940917969
vt 0.0346984863 0.940917969
vn -0 1 0
vn -0 1 0
vn -0 1 0
vn -0 1 0
vn -0 0 1
vn -0 0 1
vn -0 0 1
vn -0 0 1
vn -0 0 1
vn -0 0 1
vn -0 0 -1
vn -0 0 -1
vn -0 0 -1
vn -0 0 -1
vn -0 0 -1
vn -0 0 -1
vn -0.536132812 0 -0.844238281
vn -0.702636719 0 -0.711425781
vn -0.702636719 0 -0.711425781
vn -0.536132812 0 -0.844238281
vn -0.702636719 0 -0.711425781
vn -0.702636719 0 -0.711425781
vn -0.712890625 -0.701171875 0
vn -0.712890625 -0.701171875 0
vn -0.712890625 -0.701171875 0
vn -0.712890625 -0.701171875 0
vn -0.536132812 0 0.844238281
vn -0.702636719 0 0.711425781
vn -0.702636719 0 0.711425781
vn -0.536132812 0 0.844238281
vn -0.702636719 0 0.711425781
vn -0.702636719 0 0.711425781
vn 0.536132812 0 0.844238281
vn 0.702636719 0 0.711425781
vn 0.702636719 0 0.711425781
vn 0.536132812 0 0.844238281
vn 0.702636719 0 0.711425781
vn 0.702636719 0 0.711425781
vn 0.712890625 -0.701171875 0
vn 0.712890625 -0.701171875 0
vn 0.712890625 -0.701171875 0
vn 0.712890625 -0.701171875 0
vn 0.702636719 0 -0.711425781
vn 0.536132812 0 -0.844238281
vn 0.702636719 0 -0.711425781
vn 0.536132812 0 -0.844238281
vn 0.702636719 0 -0.711425781
vn 0.702636719 0 -0.711425781
vn -1 0 0
vn -1 -2.86102295E-06 0
vn -1 -2.92062759E-06 0
vn -1 0 0
vn -1 0 0
vn -1 0 0
vn -1 -2.92062759E-06 0
vn -1 -2.86102295E-06 0
vn -1 -2.86102295E-06 0
vn -1 -2.92062759E-06 0
vn -1 0 0
vn -1 0 0
vn -1 0 0
vn -1 0 0
vn -1 -2.92062759E-06 0
vn -1 -2.86102295E-06 0
vn 1 1.49011612E-06 0
vn 1 1.43051147E-06 0
vn 1 1.43051147E-06 0
vn 1 1.49011612E-06 0
vn 1 1.49011612E-06 0
vn 1 1.43051147E-06 0
vn 1 0 0
vn 1 0 0
vn 1 0 0
vn 1 0 0
vn 1 0 0
vn 1 0 0
vn 1 0 0
vn 1 0 0
vn 1 1.49011612E-06 0
vn 1 1.43051147E-06 0
vn -0 0 -1
vn -0 0 -1
vn -0 0 -1
vn -0 0 -1
vn -0 0 -1
vn -0 0 -1
vn -0 -1 0
vn -0 -1 0
vn -0 -1 0
vn -0 -1 0
vn -0 0 1
vn -0 0 1
vn -0 0 1
vn -0 0 1
vn -0 0 1
vn -0 0 1
g EscenarioPB_PuertaMuseo_Marco_0
f 3/3/3 2/2/2 1/1/1
f 4/4/4 3/3/3 1/1/1
f 7/7/7 6/6/6 5/5/5
f 8/8/8 7/7/7 5/5/5
f 9/9/9 7/7/7 8/8/8
f 10/10/10 9/9/9 8/8/8
f 13/13/13 12/12/12 11/11/11
f 12/12/12 14/14/14 11/11/11
f 15/15/15 14/14/14 12/12/12
f 16/16/16 15/15/15 12/12/12
f 19/19/19 18/18/18 17/17/17
f 20/20/20 19/19/19 17/17/17
f 20/20/20 17/17/17 21/21/21
f 22/22/22 20/20/20 21/21/21
f 25/25/25 24/24/24 23/23/23
f 26/26/26 25/25/25 23/23/23
f 29/29/29 28/28/28 27/27/27
f 30/30/30 29/29/29 27/27/27
f 30/30/30 27/27/27 31/31/31
f 32/32/32 30/30/30 31/31/31
f 35/35/35 34/34/34 33/33/33
f 36/36/36 35/35/35 33/33/33
f 36/36/36 33/33/33 37/37/37
f 38/38/38 36/36/36 37/37/37
f 41/41/41 40/40/40 39/39/39
f 42/42/42 41/41/41 39/39/39
f 45/45/45 44/44/44 43/43/43
f 44/44/44 46/46/46 43/43/43
f 44/44/44 47/47/47 46/46/46
f 47/47/47 48/48/48 46/46/46
f 51/51/51 50/50/50 49/49/49
f 50/50/50 52/52/52 49/49/49
f 49/49/49 52/52/52 53/53/53
f 52/52/52 54/54/54 53/53/53
f 57/57/57 56/56/56 55/55/55
f 58/58/58 57/57/57 55/55/55
f 61/61/61 60/60/60 59/59/59
f 60/60/60 62/62/62 59/59/59
f 59/59/59 62/62/62 63/63/63
f 62/62/62 64/64/64 63/63/63
f 67/67/67 66/66/66 65/65/65
f 68/68/68 67/67/67 65/65/65
f 71/71/71 70/70/70 69/69/69
f 72/72/72 71/71/71 69/69/69
f 72/72/72 73/73/73 71/71/71
f 73/73/73 74/74/74 71/71/71
f 77/77/77 76/76/76 75/75/75
f 78/78/78 77/77/77 75/75/75
f 78/78/78 79/79/79 77/77/77
f 79/79/79 80/80/80 77/77/77
f 83/83/83 82/82/82 81/81/81
f 84/84/84 83/83/83 81/81/81
f 85/85/85 83/83/83 84/84/84
f 86/86/86 85/85/85 84/84/84
f 89/89/89 88/88/88 87/87/87
f 90/90/90 89/89/89 87/87/87
f 93/93/93 92/92/92 91/91/91
f 92/92/92 94/94/94 91/91/91
f 95/95/95 94/94/94 92/92/92
f 96/96/96 95/95/95 92/92/92
