g EnginePlatform_Platform_2
v 40.599102 1.00073099 -23.5649681
v 42.8537407 1.00073099 -22.8827286
v 40.599102 1.00073099 -22.8827286
v 42.8537407 1.00073099 -23.3738537
v 43.099102 1.00073099 -23.3738537
v 43.099102 1.00073099 -23.5649681
v 43.099102 -0.287683696 -21.7163601
v 44.8536034 -0.287683696 -21.7163601
v 44.8536034 1.00073099 -21.7163601
v 43.099102 1.00073099 -21.7163601
v 42.8537407 1.00073099 -21.7163601
v 42.8537407 -0.287683696 -21.7163601
v 44.8536034 1.00073099 -21.7163601
v 44.8536034 -0.287683696 -21.7163601
v 44.8536034 -0.287683696 -22.8827286
v 44.8536034 1.00073099 -22.8827286
v 44.8536034 1.00073099 -23.3738537
v 44.8536034 -0.287683696 -23.3738537
v 43.099102 -0.287683696 -23.3738537
v 42.8537407 -0.287683696 -23.3738537
v 42.8537407 1.00073099 -23.3738537
v 43.099102 1.00073099 -23.3738537
v 44.8536034 1.00073099 -23.3738537
v 44.8536034 -0.287683696 -23.3738537
v 42.8537407 1.00073099 -23.3738537
v 42.8537407 -0.287683696 -23.3738537
v 42.8537407 -0.287683696 -22.8827286
v 42.8537407 1.00073099 -22.8827286
v 42.8537407 1.00073099 -21.7163601
v 42.8537407 -0.287683696 -21.7163601
v 45.599102 1.00073099 -20.3827286
v 44.8536034 1.00073099 -22.8827286
v 45.599102 1.00073099 -22.8827286
v 44.8536034 1.00073099 -21.7163601
v 43.099102 1.00073099 -21.7163601
v 43.099102 1.00073099 -20.3827286
v 43.099102 1.00073099 -21.7163601
v 43.099102 1.00073099 -20.3827286
v 40.599102 1.00073099 -20.3827286
v 42.8537407 1.00073099 -21.7163601
v 42.8537407 1.00073099 -22.8827286
v 40.599102 1.00073099 -22.8827286
v 45.599102 1.00073099 -23.5649681
v 43.099102 1.00073099 -23.3738537
v 43.099102 1.00073099 -23.5649681
v 44.8536034 1.00073099 -23.3738537
v 44.8536034 1.00073099 -22.8827286
v 45.599102 1.00073099 -22.8827286
v 43.099102 1.00073099 -20.3827286
v 43.099102 1.00073099 -17.8827305
v 40.599102 1.00073099 -17.8827305
v 40.599102 1.00073099 -20.3827286
v 45.599102 1.00073099 -20.3827286
v 45.599102 1.00073099 -17.8827305
v 43.099102 1.00073099 -17.8827305
v 43.099102 1.00073099 -20.3827286
v 45.599102 1.00073099 -23.5649681
v 47.2907448 1.00073099 -23.5649681
v 47.2907448 1.00073099 -22.8827286
v 45.599102 1.00073099 -22.8827286
v 45.599102 1.00073099 -17.8827305
v 45.599102 1.00073099 -20.3827286
v 47.2907448 1.00073099 -20.3827286
v 47.2907448 1.00073099 -17.8827286
v 47.2907448 1.00073099 -20.3827286
v 45.599102 1.00073099 -20.3827286
v 45.599102 1.00073099 -22.8827286
v 47.2907448 1.00073099 -22.8827286
vt 0.254150391 0.0772094727
vt 0.472167969 0.0065574646
vt 0.254150391 0.0065574646
vt 0.472167969 0.0548400879
vt 0.497070312 0.0548400879
vt 0.497070312 0.0772094727
vt 0.470458984 0.0582275391
vt 0.254150391 0.0582275391
vt 0.254150391 0.196655273
vt 0.470458984 0.196655273
vt 0.497070312 0.196655273
vt 0.497070312 0.0582275391
vt 0.477783203 0.196655273
vt 0.477783203 0.0582275391
vt 0.3515625 0.0582275391
vt 0.3515625 0.196655273
vt 0.298583984 0.196655273
vt 0.298583984 0.0582275391
vt 0.278808594 0.0582275391
vt 0.254150391 0.0582275391
vt 0.254150391 0.196655273
vt 0.278808594 0.196655273
vt 0.497070312 0.196655273
vt 0.497070312 0.0582275391
vt 0.469238281 0.196655273
vt 0.469238281 0.0582275391
vt 0.416015625 0.0582275391
vt 0.416015625 0.196655273
vt 0.289794922 0.196655273
vt 0.289794922 0.0582275391
vt 0.497070312 0.0065574646
vt 0.425048828 0.249511719
vt 0.497070312 0.249511719
vt 0.425048828 0.136230469
vt 0.254150391 0.136230469
vt 0.254150391 0.0065574646
vt 0.497070312 0.136230469
vt 0.497070312 0.0065574646
vt 0.254150391 0.0065574646
vt 0.472167969 0.136230469
vt 0.472167969 0.249511719
vt 0.254150391 0.249511719
vt 0.497070312 0.0769042969
vt 0.254150391 0.0544128418
vt 0.254150391 0.0769042969
vt 0.425048828 0.0544128418
vt 0.425048828 0.0065574646
vt 0.497070312 0.0065574646
vt 0.497070312 0.249511719
vt 0.497070312 0.0065574646
vt 0.254150391 0.0065574646
vt 0.254150391 0.249511719
vt 0.497070312 0.249511719
vt 0.497070312 0.0065574646
vt 0.254150391 0.0065574646
vt 0.254150391 0.249511719
vt 0.254150391 0.0772094727
vt 0.418457031 0.0772094727
vt 0.418457031 0.0065574646
vt 0.254150391 0.0065574646
vt 0.254150391 0.0065574646
vt 0.254150391 0.249511719
vt 0.418457031 0.249511719
vt 0.418457031 0.0065574646
vt 0.418457031 0.0065574646
vt 0.254150391 0.0065574646
vt 0.254150391 0.249511719
vt 0.418457031 0.249511719
vn -0 1 0
vn -0 1 0
vn -0 1 0
vn -0 1 0
vn -0 1 -2.98023224E-07
vn -0 1 -2.98023224E-07
vn -0 0 -1
vn -0 0 -1
vn -0 0 -1
vn -0 0 -1
vn -0 0 -1
vn -0 0 -1
vn -1 0 0
vn -1 0 0
vn -1 0 0
vn -1 0 0
vn -1 0 0
vn -1 0 0
vn -0 0 1
vn -0 0 1
vn -0 0 1
vn -0 0 1
vn -0 0 1
vn -0 0 1
vn 1 0 0
vn 1 0 0
vn 1 0 0
vn 1 0 0
vn 1 0 0
vn 1 0 0
vn -0 1 0
vn -0 1 0
vn -0 1 0
vn -0 1 0
vn -0 1 0
vn -0 1 0
vn -0 1 0
vn -0 1 0
vn -0 1 0
vn -0 1 0
vn -0 1 0
vn -0 1 0
vn -0 1 0
vn -0 1 -2.38418579E-07
vn -0 1 -2.38418579E-07
vn -0 1 -1.1920929E-07
vn -0 1 0
vn -0 1 0
vn -0 1 0
vn -0 1 0
vn -0 1 0
vn -0 1 0
vn -0 1 0
vn -0 1 0
vn -0 1 0
vn -0 1 0
vn -0 1 0
vn -0 1 0
vn -0 1 0
vn -0 1 0
vn -0 1 0
vn -0 1 0
vn -0 1 0
vn -0 1 0
vn -0 1 0
vn -0 1 0
vn -0 1 0
vn -0 1 0
g EnginePlatform_Platform_2_0
f 3/3/3 2/2/2 1/1/1
f 2/2/2 4/4/4 1/1/1
f 1/1/1 4/4/4 5/5/5
f 6/6/6 1/1/1 5/5/5
f 9/9/9 8/8/8 7/7/7
f 10/10/10 9/9/9 7/7/7
f 10/10/10 7/7/7 11/11/11
f 7/7/7 12/12/12 11/11/11
f 15/15/15 14/14/14 13/13/13
f 16/16/16 15/15/15 13/13/13
f 16/16/16 17/17/17 15/15/15
f 17/17/17 18/18/18 15/15/15
f 21/21/21 20/20/20 19/19/19
f 22/22/22 21/21/21 19/19/19
f 22/22/22 19/19/19 23/23/23
f 19/19/19 24/24/24 23/23/23
f 27/27/27 26/26/26 25/25/25
f 28/28/28 27/27/27 25/25/25
f 28/28/28 29/29/29 27/27/27
f 29/29/29 30/30/30 27/27/27
f 33/33/33 32/32/32 31/31/31
f 32/32/32 34/34/34 31/31/31
f 34/34/34 35/35/35 31/31/31
f 35/35/35 36/36/36 31/31/31
f 39/39/39 38/38/38 37/37/37
f 40/40/40 39/39/39 37/37/37
f 39/39/39 40/40/40 41/41/41
f 42/42/42 39/39/39 41/41/41
f 45/45/45 44/44/44 43/43/43
f 44/44/44 46/46/46 43/43/43
f 43/43/43 46/46/46 47/47/47
f 48/48/48 43/43/43 47/47/47
f 51/51/51 50/50/50 49/49/49
f 52/52/52 51/51/51 49/49/49
f 55/55/55 54/54/54 53/53/53
f 56/56/56 55/55/55 53/53/53
f 59/59/59 58/58/58 57/57/57
f 60/60/60 59/59/59 57/57/57
f 63/63/63 62/62/62 61/61/61
f 64/64/64 63/63/63 61/61/61
f 67/67/67 66/66/66 65/65/65
f 68/68/68 67/67/67 65/65/65
