g IS4_MDL_EscenarioPB_Panel_Codigo_Boton_0
v 0.0788555592 -0.0153529318 0.0612557717
v 0.0647127926 -0.0144937858 0.0613400005
v 0.0663022995 0.0116656525 0.0614730567
v 0.0804451331 0.0108065065 0.0613888316
v 0.0647127926 -0.0144937858 0.0613400005
v 0.0645713434 -0.0143571431 0.0362344123
v 0.0661609322 0.0118022952 0.0363674685
v 0.0663022995 0.0116656525 0.0614730567
v 0.0645713434 -0.0143571431 0.0362344123
v 0.07871411 -0.0152162891 0.0361501835
v 0.0803037658 0.0109430728 0.0362832397
v 0.0661609322 0.0118022952 0.0363674685
v 0.0804451331 0.0108065065 0.0613888316
v 0.0663022995 0.0116656525 0.0614730567
v 0.0661609322 0.0118022952 0.0363674685
v 0.0803037658 0.0109430728 0.0362832397
v 0.07871411 -0.0152162891 0.0361501835
v 0.0645713434 -0.0143571431 0.0362344123
v 0.0647127926 -0.0144937858 0.0613400005
v 0.0788555592 -0.0153529318 0.0612557717
vt 0.233520508 0.055847168
vt 0.248291016 0.055847168
vt 0.248291016 0.0283660889
vt 0.233520508 0.0283660889
vt 0.4296875 0.329101562
vt 0.408203125 0.329101562
vt 0.408203125 0.350341797
vt 0.4296875 0.350341797
vt 0.233520508 0.0557861328
vt 0.248413086 0.0557861328
vt 0.248413086 0.0283203125
vt 0.233520508 0.0283203125
vt 0.233398438 0.0546569824
vt 0.248168945 0.0546569824
vt 0.248168945 0.0283203125
vt 0.233398438 0.0283203125
vt 0.233520508 0.0546569824
vt 0.248413086 0.0546569824
vt 0.248413086 0.0283203125
vt 0.233520508 0.0283203125
vn 0.00506973267 -0.00595855713 1
vn 0.00506973267 -0.00595855713 1
vn 0.00506973267 -0.00595855713 1
vn 0.00506973267 -0.00595855713 1
vn -0.987304688 0.158447266 0.00595092773
vn -0.987304688 0.158447266 0.00595092773
vn -0.987304688 0.158447266 0.00595092773
vn -0.987304688 0.158447266 0.00595092773
vn -0.00506973267 0.00595855713 -1
vn -0.00506973267 0.00595855713 -1
vn -0.00506973267 0.00595855713 -1
vn -0.00506973267 0.00595855713 -1
vn 0.158569336 0.987304688 0.00508880615
vn 0.158569336 0.987304688 0.00508880615
vn 0.158569336 0.987304688 0.00508880615
vn 0.158569336 0.987304688 0.00508880615
vn -0.158569336 -0.987304688 -0.00508880615
vn -0.158569336 -0.987304688 -0.00508880615
vn -0.158569336 -0.987304688 -0.00508880615
vn -0.158569336 -0.987304688 -0.00508880615
g IS4_MDL_EscenarioPB_Panel_Codigo_Boton_0_0
f 3/3/3 2/2/2 1/1/1
f 4/4/4 3/3/3 1/1/1
f 7/7/7 6/6/6 5/5/5
f 8/8/8 7/7/7 5/5/5
f 11/11/11 10/10/10 9/9/9
f 12/12/12 11/11/11 9/9/9
f 15/15/15 14/14/14 13/13/13
f 16/16/16 15/15/15 13/13/13
f 19/19/19 18/18/18 17/17/17
f 20/20/20 19/19/19 17/17/17
