g IS4_MDL_EscenarioPB_Tela_ObjetosPerdidos_2
v 58.3436623 2.18282533 -11.9005003
v 58.7525635 2.26554036 -12.2480202
v 58.7718163 2.19840026 -11.9407005
v 58.3436623 2.20669723 -12.1641769
v 58.759594 2.22320962 -13.0598145
v 58.3436623 2.3516562 -13.0598145
v 58.3436623 2.57862759 -13.5455332
v 58.759594 2.32849312 -13.5455332
v 59.4345589 2.24468493 -13.0602045
v 59.3517723 2.29308248 -13.5455332
v 59.6938057 2.18282533 -13.0598145
v 59.6938057 2.18282533 -13.5455332
v 58.82621 1.68064749 -12.9556379
v 58.8341331 1.03688657 -12.9126043
v 58.799202 1.34213281 -12.5539169
v 58.8647499 1.70352554 -12.6549053
v 58.8795166 1.8581903 -12.9398031
v 58.8490334 1.8073715 -12.1247101
v 58.9211349 1.89771736 -12.6750889
v 58.759594 2.22320962 -13.0598145
v 58.7885933 1.91709638 -12.36131
v 58.7718163 2.19840026 -11.9407005
v 58.7525635 2.26554036 -12.2480202
v 58.8077469 2.01046491 -12.4271812
v 59.4345589 2.24468493 -13.0602045
v 59.6938057 2.18282533 -13.0598145
v 59.4337234 1.68643808 -12.9621449
v 59.3223228 1.80878842 -12.9556313
v 58.8341331 1.03688657 -12.9126043
v 58.82621 1.68064749 -12.9556379
v 59.2813416 1.98901916 -12.9275265
v 58.759594 2.22320962 -13.0598145
v 58.8795166 1.8581903 -12.9398031
vt 0.763183594 0.221313477
vt 0.713378906 0.235107422
vt 0.740722656 0.252197266
vt 0.739746094 0.207885742
vt 0.635253906 0.201049805
vt 0.66015625 0.169189453
vt 0.635253906 0.126708984
vt 0.607421875 0.153686523
vt 0.575683594 0.217773438
vt 0.565429688 0.171508789
vt 0.553710938 0.226196289
vt 0.536132812 0.181884766
vt 0.631347656 0.2578125
vt 0.626953125 0.303710938
vt 0.665039062 0.28515625
vt 0.660644531 0.258056641
vt 0.631835938 0.242431641
vt 0.712890625 0.274902344
vt 0.660644531 0.245849609
vt 0.635253906 0.201049805
vt 0.693359375 0.255615234
vt 0.740722656 0.252197266
vt 0.713378906 0.235107422
vt 0.688964844 0.246582031
vt 0.575683594 0.217773438
vt 0.553710938 0.226196289
vt 0.581054688 0.262939453
vt 0.590332031 0.252197266
vt 0.626953125 0.303710938
vt 0.631347656 0.2578125
vt 0.594726562 0.237426758
vt 0.635253906 0.201049805
vt 0.631835938 0.242431641
vn -0.0640258789 0.985351562 0.159179688
vn 0.36328125 0.930175781 0.0549621582
vn 0.537597656 0.840332031 0.0679931641
vn 0.0420227051 0.995117188 0.0914306641
vn 0.159301758 0.965332031 0.20715332
vn 0.140258789 0.978027344 0.155517578
vn 0.405029297 0.867675781 0.288085938
vn 0.160888672 0.97265625 0.16809082
vn 0.117736816 0.91015625 0.397460938
vn 0.0852050781 0.989257812 0.119995117
vn 0.264648438 0.839355469 0.474609375
vn 0.275146484 0.9609375 0.0244445801
vn 0.581054688 -0.0420837402 0.812988281
vn 0.681640625 -0.00123786926 0.731933594
vn 0.999023438 -0.0357666016 0.0233459473
vn 0.997070312 -0.0643920898 0.0387268066
vn 0.538574219 0.0328369141 0.842285156
vn 0.995117188 0.0969848633 -0.0281524658
vn 0.979980469 0.16809082 0.108337402
vn 0.159301758 0.965332031 0.20715332
vn 0.997558594 0.0521240234 0.0472412109
vn 0.537597656 0.840332031 0.0679931641
vn 0.36328125 0.930175781 0.0549621582
vn 0.97265625 0.181030273 0.145874023
vn 0.117736816 0.91015625 0.397460938
vn 0.264648438 0.839355469 0.474609375
vn 0.0333862305 0.0803833008 0.99609375
vn 0.0475158691 0.0557250977 0.997070312
vn 0.681640625 -0.00123786926 0.731933594
vn 0.581054688 -0.0420837402 0.812988281
vn 0.0743408203 0.20703125 0.975585938
vn 0.159301758 0.965332031 0.20715332
vn 0.538574219 0.0328369141 0.842285156
g IS4_MDL_EscenarioPB_Tela_ObjetosPerdidos_2_0
f 3/3/3 2/2/2 1/1/1
f 2/2/2 4/4/4 1/1/1
f 2/2/2 5/5/5 4/4/4
f 5/5/5 6/6/6 4/4/4
f 5/5/5 7/7/7 6/6/6
f 5/5/5 8/8/8 7/7/7
f 5/5/5 9/9/9 8/8/8
f 9/9/9 10/10/10 8/8/8
f 9/9/9 11/11/11 10/10/10
f 11/11/11 12/12/12 10/10/10
f 15/15/15 14/14/14 13/13/13
f 16/16/16 15/15/15 13/13/13
f 16/16/16 13/13/13 17/17/17
f 18/18/18 15/15/15 16/16/16
f 19/19/19 16/16/16 17/17/17
f 19/19/19 17/17/17 20/20/20
f 21/21/21 18/18/18 16/16/16
f 21/21/21 16/16/16 19/19/19
f 18/18/18 21/21/21 22/22/22
f 21/21/21 23/23/23 22/22/22
f 24/24/24 20/20/20 23/23/23
f 24/24/24 19/19/19 20/20/20
f 21/21/21 24/24/24 23/23/23
f 24/24/24 21/21/21 19/19/19
f 27/27/27 26/26/26 25/25/25
f 28/28/28 27/27/27 25/25/25
f 29/29/29 27/27/27 28/28/28
f 30/30/30 29/29/29 28/28/28
f 31/31/31 28/28/28 25/25/25
f 30/30/30 28/28/28 31/31/31
f 31/31/31 25/25/25 32/32/32
f 33/33/33 30/30/30 31/31/31
f 33/33/33 31/31/31 32/32/32
