g CatwalkEast_Column_2
v 39.9004021 4.01231623 -23.1950951
v 39.2998161 4.01231623 -23.1950951
v 39.2998161 7.71231604 -23.1950951
v 39.9004021 7.71231604 -23.1950951
v 39.9004021 4.01231623 -23.4240837
v 39.9004021 4.01231623 -23.1950951
v 39.9004021 7.71231604 -23.1950951
v 39.9004021 7.71231604 -23.4240837
v 39.2998161 7.71231604 -23.4240837
v 39.2998161 7.71231604 -23.1950951
v 39.2998161 4.01231623 -23.1950951
v 39.2998161 4.01231623 -23.4240837
vt 0.377441406 0.534667969
vt 0.302734375 0.534667969
vt 0.302734375 0.993652344
vt 0.377441406 0.993652344
vt 0.405761719 0.534667969
vt 0.377441406 0.534667969
vt 0.377441406 0.993652344
vt 0.406005859 0.993652344
vt 0.274414062 0.993652344
vt 0.302734375 0.993652344
vt 0.302734375 0.534667969
vt 0.274414062 0.534667969
vn -0 0 1
vn -0 0 1
vn -0 0 1
vn -0 0 1
vn 1 0 0
vn 1 0 0
vn 1 0 0
vn 1 0 0
vn -1 0 0
vn -1 0 0
vn -1 0 0
vn -1 0 0
g CatwalkEast_Column_2_0
f 3/3/3 2/2/2 1/1/1
f 4/4/4 3/3/3 1/1/1
f 7/7/7 6/6/6 5/5/5
f 8/8/8 7/7/7 5/5/5
f 11/11/11 10/10/10 9/9/9
f 12/12/12 11/11/11 9/9/9
