g BallsBazooka
v -0.0974015594 -0.0252204724 0.0961409956
v -0.102888852 -0.0126089687 0.0961409956
v -0.102888852 0.0126089836 0.0961409956
v -0.0974015594 0.0252204761 0.0961409956
v 0.100776762 -0.0252204537 0.0961409956
v 0.100776762 0.0252204761 0.0961409956
v 0.101791397 0.0262351763 0.0910676345
v -0.092328012 0.0262351763 0.0910676345
v 0.100412078 0.0580722205 0.0679365918
v 0.101791397 0.0262351763 0.0910676345
v -0.092328012 0.0262351763 0.0910676345
v -0.0482635312 0.0580722205 0.0679365918
v -0.0670262724 0.0505239852 0.073420696
v 0.101791397 -0.0262351632 0.081481643
v 0.101791397 -0.0262351632 0.0910676345
v 0.101791397 0.0262351763 0.0910676345
v 0.101791397 0.0262351763 0.081481643
v -0.102888852 -0.0126089687 0.0961409956
v -0.0974015594 -0.0252204724 0.0961409956
v -0.0974015594 -0.0252204724 0.0824963003
v -0.102888852 -0.0126089687 0.0824963003
v -0.102888852 0.0126089836 0.0824963003
v -0.102888852 0.0126089836 0.0961409956
v -0.0974015594 0.0252204761 0.0824963003
v -0.0974015594 0.0252204761 0.0961409956
v 0.101791397 0.0262351763 0.081481643
v 0.101791397 0.0262351763 0.0910676345
v 0.100412078 0.0580722205 0.0679365918
v 0.100412078 0.0580722205 0.0583507679
v 0.100412078 0.0580722205 0.0583507679
v 0.100412078 0.0580722205 0.0679365918
v -0.0482635312 0.0580722205 0.0679365918
v -0.0482635312 0.0580722205 0.0583507679
v -0.0670262724 0.0505239852 0.073420696
v -0.092328012 0.0262351763 0.0910676345
v -0.092328012 0.0262351763 0.081481643
v -0.0670262724 0.0505239852 0.0638348311
v -0.0482635312 0.0580722205 0.0583507679
v -0.0482635312 0.0580722205 0.0679365918
v -0.0482635312 -0.0580722168 0.0679365918
v 0.100412078 -0.0580722168 0.0679365918
v 0.100412078 -0.0580722168 0.0583507679
v -0.0482635312 -0.0580722168 0.0583507679
v -0.0670262724 -0.0505239815 0.0638348311
v -0.0670262724 -0.0505239815 0.073420696
v 0.100412078 -0.0580722168 0.0583507679
v 0.100412078 -0.0580722168 0.0679365918
v 0.101791397 -0.0262351632 0.0910676345
v 0.101791397 -0.0262351632 0.081481643
v -0.092328012 -0.0262351725 0.081481643
v -0.092328012 -0.0262351725 0.0910676345
v -0.0670262724 -0.0505239815 0.073420696
v -0.0670262724 -0.0505239815 0.0638348311
v -0.092328012 -0.0262351725 0.0910676345
v -0.0974015594 -0.0252204724 0.0961409956
v 0.100776762 -0.0252204537 0.0961409956
v 0.101791397 -0.0262351632 0.0910676345
v 0.101791397 -0.0262351632 0.0910676345
v 0.100776762 -0.0252204537 0.0961409956
v 0.100776762 0.0252204761 0.0961409956
v 0.101791397 0.0262351763 0.0910676345
v -0.092328012 -0.0262351725 0.081481643
v -0.0974015594 -0.0252204724 0.0824963003
v -0.0974015594 -0.0252204724 0.0961409956
v -0.092328012 -0.0262351725 0.0910676345
v -0.092328012 0.0262351763 0.0910676345
v -0.0974015594 0.0252204761 0.0961409956
v -0.0974015594 0.0252204761 0.0824963003
v -0.092328012 0.0262351763 0.081481643
v -0.092328012 -0.0262351725 0.0910676345
v 0.101791397 -0.0262351632 0.0910676345
v 0.100412078 -0.0580722168 0.0679365918
v -0.0482635312 -0.0580722168 0.0679365918
v -0.0670262724 -0.0505239815 0.073420696
v 0.319775641 0.0599368066 -0.0437675864
v 0.29288882 0.0599368066 -0.0437675864
v 0.29288882 0.0228938162 -0.0706808865
v 0.319775641 0.0228938162 -0.0706808865
v 0.29288882 -0.0228938311 -0.0706808716
v 0.319775641 -0.0228938311 -0.0706808716
v 0.319775641 -0.0228938311 -0.0706808716
v 0.29288882 -0.0228938311 -0.0706808716
v 0.29288882 -0.0599367954 -0.043767564
v 0.319775641 -0.0599367954 -0.043767564
v 0.29288882 -0.0740859583 -0.000220934628
v 0.319775641 -0.0740859583 -0.000220934628
v 0.319775641 -0.0740859583 -0.000220934628
v 0.29288882 -0.0740859583 -0.000220934628
v 0.29288882 -0.0599367879 0.0433256961
v 0.319775641 -0.0599367879 0.0433256961
v 0.319775641 -0.0599367879 0.0433256961
v 0.29288882 -0.0599367879 0.0433256961
v 0.29288882 -0.0228938125 0.070239
v 0.319775641 -0.0228938125 0.070239
v 0.29288882 0.0228938255 0.070239
v 0.319775641 0.0228938255 0.070239
v 0.319775641 0.0228938255 0.070239
v 0.29288882 0.0228938255 0.070239
v 0.29288882 0.0599368066 0.043325685
v 0.319775641 0.0599368066 0.043325685
v 0.29288882 0.0740859583 -0.000220939197
v 0.319775641 0.0740859583 -0.000220939197
v 0.319775641 0.0740859583 -0.000220939197
v 0.29288882 0.0740859583 -0.000220939197
v 0.29288882 0.0599368066 -0.0437675864
v 0.319775641 0.0599368066 -0.0437675864
v 0.105542317 0.0283904038 -0.0875976384
v -0.106306054 -0.0283904281 -0.0875976384
v 0.105542317 -0.0283904281 -0.0875976384
v -0.106306054 0.0283904038 -0.0875976384
v 0.105542317 0.0743270665 -0.0542227216
v -0.106306054 0.0743270665 -0.0542227253
v 0.105542317 0.0918733031 -0.000220934409
v -0.106306054 0.0918733031 -0.000220934409
v 0.105542317 -0.0283904281 -0.0875976384
v -0.106306054 -0.0283904281 -0.0875976384
v -0.106306054 -0.074327074 -0.0542226955
v 0.105542317 -0.074327074 -0.0542226918
v -0.106306054 -0.0918733031 -0.000220924485
v 0.105542317 -0.0918733031 -0.000220929694
v 0.105542317 -0.0918733031 -0.000220929694
v -0.106306054 -0.0918733031 -0.000220924485
v -0.106306054 -0.0743270591 0.0537808351
v 0.105542317 -0.0743270665 0.0537808351
v -0.106306054 -0.0283904187 0.0871557593
v 0.105542317 -0.0283904001 0.0871557593
v -0.106306054 0.0283904243 0.0871557593
v 0.105542317 0.0283904243 0.0871557593
v 0.105542317 0.0283904243 0.0871557593
v -0.106306054 0.0283904243 0.0871557593
v -0.106306054 0.0743270665 0.0537808165
v 0.105542317 0.0743270665 0.0537808165
v -0.106306054 0.0918733031 -0.000220934409
v 0.105542317 0.0918733031 -0.000220934409
v -0.106306054 0.0918733031 -0.000220934409
v -0.136281103 0.0918733031 -0.000220934409
v -0.136281103 0.0743270665 -0.0542227253
v -0.106306054 0.0743270665 -0.0542227253
v -0.136281103 0.0283904038 -0.0875976384
v -0.106306054 0.0283904038 -0.0875976384
v -0.136281103 -0.0283904281 -0.0875976384
v -0.106306054 -0.0283904281 -0.0875976384
v -0.106306054 0.0743270665 0.0537808165
v -0.136281103 0.0918733031 -0.000220934409
v -0.106306054 0.0918733031 -0.000220934409
v -0.136281103 0.0743270665 0.0537808314
v -0.106306054 0.0283904243 0.0871557593
v -0.136281103 0.0283904243 0.0871557593
v -0.106306054 -0.0283904187 0.0871557593
v -0.136281103 0.0283904243 0.0871557593
v -0.106306054 0.0283904243 0.0871557593
v -0.136281103 -0.0283904187 0.0871557593
v -0.106306054 -0.0743270591 0.0537808351
v -0.136281103 -0.0743270591 0.0537808388
v -0.106306054 -0.0918733031 -0.000220924485
v -0.136281103 -0.0918733031 -0.000220922724
v -0.106306054 -0.074327074 -0.0542226955
v -0.136281103 -0.0918733031 -0.000220922724
v -0.106306054 -0.0918733031 -0.000220924485
v -0.136281103 -0.074327074 -0.0542226955
v -0.106306054 -0.0283904281 -0.0875976384
v -0.136281103 -0.0283904281 -0.0875976384
v 0.0513997078 -0.329405665 0.0145054478
v 0.113660067 -0.31708473 -0.000220925969
v 0.0525809675 -0.332921743 -0.000220927934
v 0.112478882 -0.313568681 0.0145054478
v 0.117478348 -0.306600571 0.0210937615
v 0.113660067 -0.31708473 -0.000220925969
v 0.125081122 -0.304629236 -0.000220925547
v 0.0436442755 -0.325744748 0.0210937615
v 0.0525809675 -0.332921743 -0.000220927934
v 0.0360414274 -0.327716053 -0.000220928618
v 0.0362313241 -0.108277254 0.0177996047
v 0.0554396249 -0.0694330856 0.0177996047
v 0.0620807074 -0.0686414167 -0.000220927075
v 0.0421911031 -0.105584219 -0.000220927075
v 0.0603093132 -0.126915649 -0.000220927075
v 0.0536303893 -0.127402782 0.0177996047
v 0.102395266 -0.272565901 0.0177996047
v 0.108823031 -0.270899266 -0.000220927075
v -0.0175906196 -0.132597387 0.0177996047
v -0.0461590365 -0.081544511 0.0177996047
v 0.0554396249 -0.0694330856 0.0177996047
v 0.0362313241 -0.108277254 0.0177996047
v 0.0536303893 -0.127402782 0.0177996047
v 0.0352756642 -0.289969236 0.0177996047
v 0.102395266 -0.272565901 0.0177996047
v -0.0175906196 -0.132597387 -0.0182414595
v 0.0554396249 -0.0694330856 -0.0182414595
v -0.0461590365 -0.081544511 -0.0182414595
v 0.0362313241 -0.108277254 -0.0182414595
v 0.0536303893 -0.127402782 -0.0182414595
v 0.102395266 -0.272565901 -0.0182414595
v 0.0352756642 -0.289969236 -0.0182414595
v -0.0252978336 -0.132597387 -0.000220927075
v 0.0352756642 -0.289969236 0.0177996047
v 0.0288479012 -0.291635901 -0.000220927075
v -0.0175906196 -0.132597387 0.0177996047
v -0.0461590365 -0.081544511 0.0177996047
v -0.0494796559 -0.0819403455 -0.00337451976
v 0.125081122 -0.304629236 -0.000220925547
v 0.117478348 -0.306600571 0.0210937615
v 0.106743179 -0.274644792 0.0210937615
v 0.114345945 -0.272673458 -0.000220925547
v 0.0329093337 -0.293789089 -0.0215356182
v 0.0436442755 -0.325744748 -0.0215356182
v 0.117478348 -0.306600571 -0.0215356126
v 0.106743179 -0.274644792 -0.0215356126
v 0.0329094082 -0.293789238 0.0210937615
v 0.0436442755 -0.325744748 0.0210937615
v 0.0360414274 -0.327716053 -0.000220928618
v 0.0253065657 -0.295760512 -0.000220928618
v 0.106743179 -0.274644792 0.0210937615
v 0.117478348 -0.306600571 0.0210937615
v 0.0436442755 -0.325744748 0.0210937615
v 0.0329094082 -0.293789238 0.0210937615
v 0.114345945 -0.272673458 -0.000220925547
v 0.106743179 -0.274644792 0.0210937615
v 0.102395266 -0.272565901 0.0177996047
v 0.108823031 -0.270899266 -0.000220927075
v 0.0352756642 -0.289969236 -0.0182414595
v 0.0329093337 -0.293789089 -0.0215356182
v 0.106743179 -0.274644792 -0.0215356126
v 0.102395266 -0.272565901 -0.0182414595
v 0.102395266 -0.272565901 -0.0182414595
v 0.114345945 -0.272673458 -0.000220925547
v 0.108823031 -0.270899266 -0.000220927075
v 0.0352756642 -0.289969236 0.0177996047
v 0.0253065657 -0.295760512 -0.000220928618
v 0.0288479012 -0.291635901 -0.000220927075
v 0.0329094082 -0.293789238 0.0210937615
v 0.102395266 -0.272565901 0.0177996047
v 0.106743179 -0.274644792 0.0210937615
v 0.0352756642 -0.289969236 0.0177996047
v 0.0352756642 -0.289969236 -0.0182414595
v -0.0252978336 -0.132597387 -0.000220927075
v 0.0288479012 -0.291635901 -0.000220927075
v -0.0175906196 -0.132597387 -0.0182414595
v -0.0494796559 -0.0819403455 -0.00337451976
v -0.0461590365 -0.081544511 -0.0182414595
v 0.0253065657 -0.295760512 -0.000220928618
v 0.0329093337 -0.293789089 -0.0215356182
v 0.0352756642 -0.289969236 -0.0182414595
v 0.0288479012 -0.291635901 -0.000220927075
v 0.0360414274 -0.327716053 -0.000220928618
v 0.0436442755 -0.325744748 -0.0215356182
v 0.0329093337 -0.293789089 -0.0215356182
v 0.0253065657 -0.295760512 -0.000220928618
v 0.0525809675 -0.332921743 -0.000220927934
v 0.0436442755 -0.325744748 -0.0215356182
v 0.0360414274 -0.327716053 -0.000220928618
v 0.0513997078 -0.329405665 -0.0149473064
v 0.112478882 -0.313568681 -0.0149473008
v 0.117478348 -0.306600571 -0.0215356126
v 0.113660067 -0.31708473 -0.000220925969
v 0.0525809675 -0.332921743 -0.000220927934
v 0.113660067 -0.31708473 -0.000220925969
v 0.125081122 -0.304629236 -0.000220925547
v 0.106743179 -0.274644792 -0.0215356126
v 0.117478348 -0.306600571 -0.0215356126
v 0.125081122 -0.304629236 -0.000220925547
v 0.114345945 -0.272673458 -0.000220925547
v 0.0603093132 -0.126915649 -0.000220927075
v 0.102395266 -0.272565901 -0.0182414595
v 0.108823031 -0.270899266 -0.000220927075
v 0.0536303893 -0.127402782 -0.0182414595
v 0.0362313241 -0.108277254 -0.0182414595
v 0.0421911031 -0.105584219 -0.000220927075
v 0.0620807074 -0.0686414167 -0.000220927075
v 0.0554396249 -0.0694330856 -0.0182414595
v -0.0974015594 -0.0252204724 -0.0961409956
v 0.100776762 -0.0252204631 -0.0961409956
v 0.100776762 0.0252204761 -0.0961409956
v -0.0974014848 0.0252204761 -0.0961409956
v 0.101791471 0.0262351763 -0.0910676569
v -0.0923279375 0.0262351763 -0.0910676569
v -0.10288877 0.0126089836 -0.0961409956
v -0.10288877 -0.0126089687 -0.0961409956
v -0.0923279375 0.0262351763 -0.0910676569
v 0.101791471 0.0262351763 -0.0910676569
v 0.100412078 0.0580722205 -0.0679365918
v -0.0482635312 0.0580722205 -0.0679365918
v -0.0670262724 0.0505239852 -0.073420696
v 0.101791397 -0.0262351632 -0.081481643
v 0.101791471 0.0262351763 -0.081481643
v 0.101791471 0.0262351763 -0.0910676569
v 0.101791397 -0.0262351632 -0.0910676569
v -0.10288877 -0.0126089687 -0.0961409956
v -0.0974015594 -0.0252204724 -0.082496278
v -0.0974015594 -0.0252204724 -0.0961409956
v -0.10288877 -0.0126089687 -0.082496278
v -0.10288877 0.0126089836 -0.082496278
v -0.10288877 0.0126089836 -0.0961409956
v -0.0974014848 0.0252204761 -0.082496278
v -0.0974014848 0.0252204761 -0.0961409956
v 0.101791471 0.0262351763 -0.081481643
v 0.100412078 0.0580722205 -0.0583507605
v 0.100412078 0.0580722205 -0.0679365918
v 0.101791471 0.0262351763 -0.0910676569
v 0.100412078 0.0580722205 -0.0583507605
v -0.0482635312 0.0580722205 -0.0679365918
v 0.100412078 0.0580722205 -0.0679365918
v -0.0482635312 0.0580722205 -0.0583507605
v -0.0670262724 0.0505239852 -0.073420696
v -0.0670262724 0.0505239852 -0.0638348311
v -0.0670262724 0.0505239852 -0.073420696
v -0.0670262724 0.0505239852 -0.0638348311
v -0.0923279375 0.0262351763 -0.081481643
v -0.0923279375 0.0262351763 -0.0910676569
v -0.0482635312 -0.0580722168 -0.0679365918
v -0.0482635312 -0.0580722168 -0.0583507605
v 0.100412078 -0.0580722168 -0.0583507605
v 0.100412078 -0.0580722168 -0.0679365918
v 0.100412078 -0.0580722168 -0.0583507605
v 0.101791397 -0.0262351632 -0.081481643
v 0.101791397 -0.0262351632 -0.0910676569
v 0.100412078 -0.0580722168 -0.0679365918
v -0.0923279375 -0.0262351725 -0.081481643
v -0.0670263469 -0.0505239815 -0.073420696
v -0.0923279375 -0.0262351725 -0.0910676569
v -0.0670263469 -0.0505239815 -0.0638348311
v -0.0482635312 -0.0580722168 -0.0679365918
v -0.0482635312 -0.0580722168 -0.0583507605
v -0.0923279375 -0.0262351725 -0.0910676569
v 0.101791397 -0.0262351632 -0.0910676569
v 0.100776762 -0.0252204631 -0.0961409956
v -0.0974015594 -0.0252204724 -0.0961409956
v 0.101791397 -0.0262351632 -0.0910676569
v 0.101791471 0.0262351763 -0.0910676569
v 0.100776762 0.0252204761 -0.0961409956
v 0.100776762 -0.0252204631 -0.0961409956
v -0.0923279375 -0.0262351725 -0.081481643
v -0.0923279375 -0.0262351725 -0.0910676569
v -0.0974015594 -0.0252204724 -0.0961409956
v -0.0974015594 -0.0252204724 -0.082496278
v -0.0923279375 0.0262351763 -0.0910676569
v -0.0923279375 0.0262351763 -0.081481643
v -0.0974014848 0.0252204761 -0.082496278
v -0.0974014848 0.0252204761 -0.0961409956
v 0.100412078 -0.0580722168 -0.0679365918
v 0.101791397 -0.0262351632 -0.0910676569
v -0.0923279375 -0.0262351725 -0.0910676569
v -0.0482635312 -0.0580722168 -0.0679365918
v -0.0670263469 -0.0505239815 -0.073420696
v 0.0521580689 0.130569741 0.00359998993
v 0.0879232213 0.130569741 -0.00400240114
v 0.0879232213 0.130569741 0.00359998993
v 0.0521580689 0.130569741 -0.00400240114
v 0.0222509168 0.0978229344 -0.0104649756
v 0.0222509168 0.0978229344 0.0100625632
v 0.0990209356 0.0857187063 0.0130597483
v 0.0990209356 0.0978229344 -0.0104649756
v 0.0990209356 0.0857187063 -0.0134621607
v 0.0990209356 0.0978229344 0.0100625632
v 0.0879232213 0.130569741 -0.00400240114
v 0.0879232213 0.130569741 0.00359998993
v -0.106725179 0.0857187063 -0.0134621607
v -0.106725179 0.0978229344 -0.0104649756
v -0.106725179 0.0978229344 0.0100625632
v -0.106725179 0.0857187063 0.0130597483
v 0.0222509168 0.0978229344 0.0100625632
v 0.0521580689 0.130569741 0.00359998993
v 0.0879232213 0.130569741 0.00359998993
v 0.0990209356 0.0978229344 0.0100625632
v 0.0990209356 0.0857187063 0.0130597483
v -0.0183761418 0.0978229344 0.0100625632
v -0.106725179 0.0857187063 0.0130597483
v -0.106725179 0.0978229344 0.0100625632
v 0.0990209356 0.0978229344 -0.0104649756
v 0.0879232213 0.130569741 -0.00400240114
v 0.0521580689 0.130569741 -0.00400240114
v 0.0222509168 0.0978229344 -0.0104649756
v 0.0990209356 0.0857187063 -0.0134621607
v -0.106725179 0.0857187063 -0.0134621607
v -0.0183761418 0.0978229344 -0.0104649756
v -0.106725179 0.0978229344 -0.0104649756
v -0.0183761418 0.105613321 0.00506874593
v -0.0974662602 0.105613321 -0.00547115738
v -0.0183761418 0.105613321 -0.00547115738
v -0.0974662602 0.105613321 0.00506874593
v -0.106725179 0.0978229344 -0.0104649756
v -0.106725179 0.0978229344 0.0100625632
v 0.0222509168 0.0978229344 0.0100625632
v -0.0183761418 0.0978229344 0.0100625632
v -0.0183761418 0.0978229344 -0.0104649756
v 0.0222509168 0.0978229344 -0.0104649756
v -0.0183761418 0.0978229344 0.0100625632
v -0.0183761418 0.105613321 0.00506874593
v -0.0183761418 0.105613321 -0.00547115738
v -0.0183761418 0.0978229344 -0.0104649756
v -0.0183761418 0.0978229344 -0.0104649756
v -0.0183761418 0.105613321 -0.00547115738
v -0.0974662602 0.105613321 -0.00547115738
v -0.106725179 0.0978229344 -0.0104649756
v -0.106725179 0.0978229344 0.0100625632
v -0.0974662602 0.105613321 0.00506874593
v -0.0183761418 0.105613321 0.00506874593
v -0.0183761418 0.0978229344 0.0100625632
v 0.105542317 0.0918733031 -0.000220934409
v 0.105542317 -1.91386795E-09 -0.000220934875
v 0.105542317 0.0743270665 0.0537808165
v 0.105542317 0.0743270665 -0.0542227216
v 0.105542317 0.0283904243 0.0871557593
v 0.105542317 0.0283904038 -0.0875976384
v 0.105542317 -0.0283904001 0.0871557593
v 0.105542317 -0.0283904281 -0.0875976384
v 0.105542317 -0.0743270665 0.0537808351
v 0.105542317 -0.074327074 -0.0542226918
v 0.105542317 -0.0918733031 -0.000220929694
v 0.319775641 0.0740859583 -0.000220939197
v 0.331204891 -1.91386795E-09 -0.000220934337
v 0.319775641 0.0599368066 0.043325685
v 0.319775641 0.0599368066 -0.0437675864
v 0.319775641 0.0228938255 0.070239
v 0.319775641 0.0228938162 -0.0706808865
v 0.319775641 -0.0228938125 0.070239
v 0.319775641 -0.0228938311 -0.0706808716
v 0.319775641 -0.0599367879 0.0433256961
v 0.319775641 -0.0599367954 -0.043767564
v 0.319775641 -0.0740859583 -0.000220934628
v -0.14804101 -1.91386795E-09 -0.000220938848
v -0.136281103 0.0918733031 -0.000220934409
v -0.136281103 0.0743270665 0.0537808314
v -0.136281103 0.0283904243 0.0871557593
v -0.136281103 0.0743270665 -0.0542227253
v -0.136281103 -0.0283904187 0.0871557593
v -0.136281103 0.0283904038 -0.0875976384
v -0.136281103 -0.0743270591 0.0537808388
v -0.136281103 -0.0283904281 -0.0875976384
v -0.136281103 -0.0918733031 -0.000220922724
v -0.136281103 -0.074327074 -0.0542226955
v 0.29288882 0.0228938162 -0.0706808865
v 0.101420455 -0.0228938311 -0.0706808791
v 0.29288882 -0.0228938311 -0.0706808791
v 0.101420455 0.0228938162 -0.0706808865
v 0.29288882 0.0599368066 -0.0437675901
v 0.101420455 0.0599368066 -0.0437675901
v 0.29288882 0.0740859583 -0.000220934933
v 0.101420455 0.0740859583 -0.000220934933
v 0.29288882 -0.0228938311 -0.0706808791
v 0.101420455 -0.0228938311 -0.0706808791
v 0.101420455 -0.0599368066 -0.0437675752
v 0.29288882 -0.0599368066 -0.0437675752
v 0.101420455 -0.0740859658 -0.000220930509
v 0.29288882 -0.0740859658 -0.000220930509
v 0.29288882 -0.0740859658 -0.000220930509
v 0.101420455 -0.0740859658 -0.000220930509
v 0.101420455 -0.0599367991 0.0433257036
v 0.29288882 -0.0599367991 0.0433257036
v 0.101420455 -0.0228938218 0.070239
v 0.29288882 -0.0228938218 0.070239
v 0.101420455 0.0228938255 0.070239
v 0.29288882 0.0228938255 0.070239
v 0.29288882 0.0228938255 0.070239
v 0.101420455 0.0228938255 0.070239
v 0.101420455 0.0599368066 0.0433256961
v 0.29288882 0.0599368066 0.0433256961
v 0.101420455 0.0740859583 -0.000220934933
v 0.29288882 0.0740859583 -0.000220934933
v -0.139736608 0.0228938162 -0.0706808865
v -0.331204951 -0.0228938311 -0.0706808791
v -0.139736608 -0.0228938311 -0.0706808791
v -0.331204951 0.0228938162 -0.0706808865
v -0.139736608 0.0599368066 -0.0437675901
v -0.331204951 0.0599368066 -0.0437675901
v -0.139736608 0.0740859583 -0.000220934933
v -0.331204951 0.0740859583 -0.000220934933
v -0.139736608 -0.0228938311 -0.0706808791
v -0.331204951 -0.0228938311 -0.0706808791
v -0.331204951 -0.0599368066 -0.0437675752
v -0.139736608 -0.0599368066 -0.0437675752
v -0.331204951 -0.0740859658 -0.000220930509
v -0.139736608 -0.0740859658 -0.000220930509
v -0.139736608 -0.0740859658 -0.000220930509
v -0.331204951 -0.0740859658 -0.000220930509
v -0.331204951 -0.0599367991 0.0433257036
v -0.139736608 -0.0599367991 0.0433257036
v -0.331204951 -0.0228938218 0.070239
v -0.139736608 -0.0228938218 0.070239
v -0.331204951 0.0228938255 0.070239
v -0.139736608 0.0228938255 0.070239
v -0.139736608 0.0228938255 0.070239
v -0.331204951 0.0228938255 0.070239
v -0.331204951 0.0599368066 0.0433256961
v -0.139736608 0.0599368066 0.0433256961
v -0.331204951 0.0740859583 -0.000220934933
v -0.139736608 0.0740859583 -0.000220934933
vt 0.771484375 0.632324219
vt 0.77734375 0.642578125
vt 0.77734375 0.66796875
vt 0.771484375 0.681640625
vt 0.579589844 0.632324219
vt 0.579589844 0.681640625
vt 0.575683594 0.686035156
vt 0.766113281 0.686035156
vt 0.575683594 0.724609375
vt 0.575683594 0.686035156
vt 0.766113281 0.686035156
vt 0.721679688 0.724609375
vt 0.740234375 0.715332031
vt 0.447509766 0.709472656
vt 0.447509766 0.720703125
vt 0.5 0.720703125
vt 0.5 0.709472656
vt 0.454589844 0.720703125
vt 0.440917969 0.720703125
vt 0.440917969 0.709472656
vt 0.454589844 0.709472656
vt 0.479980469 0.709472656
vt 0.479980469 0.720703125
vt 0.493896484 0.709472656
vt 0.493896484 0.720703125
vt 0.5 0.709472656
vt 0.5 0.720703125
vt 0.537597656 0.720703125
vt 0.537597656 0.709472656
vt 0.404785156 0.709472656
vt 0.404785156 0.720703125
vt 0.554199219 0.720703125
vt 0.554199219 0.709472656
vt 0.534179688 0.720703125
vt 0.499023438 0.720703125
vt 0.499023438 0.709472656
vt 0.534179688 0.709472656
vt 0.5546875 0.709472656
vt 0.5546875 0.720703125
vt 0.420898438 0.720703125
vt 0.5703125 0.720703125
vt 0.5703125 0.709472656
vt 0.420898438 0.709472656
vt 0.400390625 0.709472656
vt 0.400390625 0.720703125
vt 0.409667969 0.709472656
vt 0.409667969 0.720703125
vt 0.447509766 0.720703125
vt 0.447509766 0.709472656
vt 0.435546875 0.709472656
vt 0.435546875 0.720703125
vt 0.400146484 0.720703125
vt 0.400146484 0.709472656
vt 0.766113281 0.627441406
vt 0.771484375 0.632324219
vt 0.579589844 0.632324219
vt 0.575683594 0.627441406
vt 0.575683594 0.627441406
vt 0.579589844 0.632324219
vt 0.579589844 0.681640625
vt 0.575683594 0.686035156
vt 0.435546875 0.709472656
vt 0.440917969 0.709472656
vt 0.440917969 0.720703125
vt 0.435546875 0.720703125
vt 0.499023438 0.720703125
vt 0.493896484 0.720703125
vt 0.493896484 0.709472656
vt 0.499023438 0.709472656
vt 0.766113281 0.627441406
vt 0.575683594 0.627441406
vt 0.575683594 0.58984375
vt 0.721679688 0.58984375
vt 0.740234375 0.596191406
vt 0.567871094 0.666992188
vt 0.567871094 0.699707031
vt 0.512695312 0.699707031
vt 0.512695312 0.666992188
vt 0.457519531 0.699707031
vt 0.457519531 0.666992188
vt 0.457519531 0.666992188
vt 0.457519531 0.699707031
vt 0.402099609 0.699707031
vt 0.402099609 0.666992188
vt 0.346679688 0.699707031
vt 0.346679688 0.666992188
vt 0.346679688 0.666992188
vt 0.346679688 0.699707031
vt 0.291503906 0.699707031
vt 0.291503906 0.666992188
vt 0.291503906 0.666992188
vt 0.291503906 0.699707031
vt 0.346679688 0.699707031
vt 0.346679688 0.666992188
vt 0.402099609 0.699707031
vt 0.402099609 0.666992188
vt 0.402099609 0.666992188
vt 0.402099609 0.699707031
vt 0.457519531 0.699707031
vt 0.457519531 0.666992188
vt 0.512695312 0.699707031
vt 0.512695312 0.666992188
vt 0.512695312 0.666992188
vt 0.512695312 0.699707031
vt 0.567871094 0.699707031
vt 0.567871094 0.666992188
vt 0.330566406 0.832519531
vt 0.521972656 0.883789062
vt 0.330566406 0.883789062
vt 0.521972656 0.832519531
vt 0.330566406 0.78125
vt 0.521972656 0.78125
vt 0.330566406 0.729980469
vt 0.521972656 0.729980469
vt 0.330566406 0.883789062
vt 0.521972656 0.883789062
vt 0.521972656 0.935058594
vt 0.330566406 0.935058594
vt 0.521972656 0.986328125
vt 0.330566406 0.986328125
vt 0.330566406 0.986328125
vt 0.521972656 0.986328125
vt 0.521972656 0.935058594
vt 0.330566406 0.935058594
vt 0.521972656 0.883789062
vt 0.330566406 0.883789062
vt 0.521972656 0.832519531
vt 0.330566406 0.832519531
vt 0.330566406 0.832519531
vt 0.521972656 0.832519531
vt 0.521972656 0.78125
vt 0.330566406 0.78125
vt 0.521972656 0.729980469
vt 0.330566406 0.729980469
vt 0.327148438 0.729492188
vt 0.300048828 0.729492188
vt 0.300048828 0.780761719
vt 0.327148438 0.780761719
vt 0.300048828 0.83203125
vt 0.327148438 0.83203125
vt 0.300048828 0.883300781
vt 0.327148438 0.883300781
vt 0.327148438 0.780761719
vt 0.300048828 0.729492188
vt 0.327148438 0.729492188
vt 0.300048828 0.780761719
vt 0.327148438 0.83203125
vt 0.300048828 0.83203125
vt 0.327148438 0.883300781
vt 0.300048828 0.83203125
vt 0.327148438 0.83203125
vt 0.300048828 0.883300781
vt 0.327148438 0.934570312
vt 0.300048828 0.934570312
vt 0.327148438 0.985839844
vt 0.300048828 0.985839844
vt 0.327148438 0.934570312
vt 0.300048828 0.985839844
vt 0.327148438 0.985839844
vt 0.300048828 0.934570312
vt 0.327148438 0.883300781
vt 0.300048828 0.883300781
vt 0.875 0.708496094
vt 0.812988281 0.724121094
vt 0.875 0.724121094
vt 0.812988281 0.708496094
vt 0.80859375 0.700195312
vt 0.804199219 0.721191406
vt 0.791015625 0.709472656
vt 0.87890625 0.700195312
vt 0.883789062 0.721191406
vt 0.897460938 0.709472656
vt 0.0667114258 0.778808594
vt 0.0381774902 0.733886719
vt 0.015838623 0.740234375
vt 0.0420837402 0.780761719
vt 0.0339050293 0.810546875
vt 0.0573425293 0.809082031
vt 0.0507202148 0.99609375
vt 0.0271606445 0.99609375
vt 0.141723633 0.788574219
vt 0.157714844 0.721191406
vt 0.0381774902 0.733886719
vt 0.0667114258 0.778808594
vt 0.0573425293 0.809082031
vt 0.135864258 0.993164062
vt 0.0507202148 0.99609375
vt 0.141723633 0.788574219
vt 0.0381774902 0.733886719
vt 0.157714844 0.721191406
vt 0.0667114258 0.778808594
vt 0.0573425293 0.809082031
vt 0.0507202148 0.99609375
vt 0.135864258 0.993164062
vt 0.165771484 0.787597656
vt 0.135864258 0.993164062
vt 0.159301758 0.993652344
vt 0.141723633 0.788574219
vt 0.157714844 0.721191406
vt 0.179931641 0.724121094
vt 0.791015625 0.709472656
vt 0.80859375 0.700195312
vt 0.805175781 0.667480469
vt 0.782226562 0.674804688
vt 0.886230469 0.667480469
vt 0.87890625 0.700195312
vt 0.80859375 0.700195312
vt 0.805175781 0.667480469
vt 0.886230469 0.667480469
vt 0.87890625 0.700195312
vt 0.897460938 0.709472656
vt 0.907714844 0.674804688
vt 0.805175781 0.667480469
vt 0.80859375 0.700195312
vt 0.87890625 0.700195312
vt 0.886230469 0.667480469
vt 0.782226562 0.674804688
vt 0.805175781 0.667480469
vt 0.801757812 0.663085938
vt 0.782714844 0.669433594
vt 0.8828125 0.663085938
vt 0.886230469 0.667480469
vt 0.805175781 0.667480469
vt 0.809570312 0.663085938
vt 0.801757812 0.663085938
vt 0.782226562 0.674804688
vt 0.782714844 0.669433594
vt 0.890136719 0.663085938
vt 0.907714844 0.674804688
vt 0.908203125 0.669433594
vt 0.886230469 0.667480469
vt 0.809570312 0.663085938
vt 0.805175781 0.667480469
vt 0.8828125 0.663085938
vt 0.135864258 0.993164062
vt 0.165771484 0.787597656
vt 0.159301758 0.993652344
vt 0.141723633 0.788574219
vt 0.179931641 0.724121094
vt 0.157714844 0.721191406
vt 0.907714844 0.674804688
vt 0.886230469 0.667480469
vt 0.890136719 0.663085938
vt 0.908203125 0.669433594
vt 0.897460938 0.709472656
vt 0.87890625 0.700195312
vt 0.886230469 0.667480469
vt 0.907714844 0.674804688
vt 0.883789062 0.721191406
vt 0.87890625 0.700195312
vt 0.897460938 0.709472656
vt 0.875 0.708496094
vt 0.812988281 0.708496094
vt 0.80859375 0.700195312
vt 0.812988281 0.724121094
vt 0.875 0.724121094
vt 0.804199219 0.721191406
vt 0.791015625 0.709472656
vt 0.805175781 0.667480469
vt 0.80859375 0.700195312
vt 0.791015625 0.709472656
vt 0.782226562 0.674804688
vt 0.0339050293 0.810546875
vt 0.0507202148 0.99609375
vt 0.0271606445 0.99609375
vt 0.0573425293 0.809082031
vt 0.0667114258 0.778808594
vt 0.0420837402 0.780761719
vt 0.015838623 0.740234375
vt 0.0381774902 0.733886719
vt 0.771484375 0.632324219
vt 0.579589844 0.632324219
vt 0.579589844 0.682128906
vt 0.771484375 0.682128906
vt 0.575683594 0.686523438
vt 0.766113281 0.686523438
vt 0.77734375 0.671386719
vt 0.77734375 0.646484375
vt 0.766113281 0.686523438
vt 0.575683594 0.686523438
vt 0.575683594 0.724609375
vt 0.721679688 0.724609375
vt 0.740234375 0.718261719
vt 0.5 0.709472656
vt 0.447509766 0.709472656
vt 0.447509766 0.720703125
vt 0.5 0.720703125
vt 0.479980469 0.720703125
vt 0.493896484 0.709472656
vt 0.493896484 0.720703125
vt 0.479980469 0.709472656
vt 0.454589844 0.709472656
vt 0.454589844 0.720703125
vt 0.440917969 0.709472656
vt 0.440917969 0.720703125
vt 0.447509766 0.709472656
vt 0.409667969 0.709472656
vt 0.409912109 0.720703125
vt 0.447509766 0.720703125
vt 0.5703125 0.709472656
vt 0.420898438 0.720703125
vt 0.5703125 0.720703125
vt 0.420898438 0.709472656
vt 0.400390625 0.720703125
vt 0.400390625 0.709472656
vt 0.400146484 0.720703125
vt 0.400146484 0.709472656
vt 0.435546875 0.709472656
vt 0.435546875 0.720703125
vt 0.554199219 0.720703125
vt 0.554199219 0.709472656
vt 0.404785156 0.709472656
vt 0.404785156 0.720703125
vt 0.537597656 0.709472656
vt 0.5 0.709472656
vt 0.5 0.720703125
vt 0.537597656 0.720703125
vt 0.499023438 0.709472656
vt 0.534179688 0.720703125
vt 0.499023438 0.720703125
vt 0.534179688 0.709472656
vt 0.5546875 0.720703125
vt 0.5546875 0.709472656
vt 0.766113281 0.627929688
vt 0.575683594 0.627929688
vt 0.579589844 0.632324219
vt 0.771484375 0.632324219
vt 0.575683594 0.627929688
vt 0.575683594 0.686523438
vt 0.579589844 0.682128906
vt 0.579589844 0.632324219
vt 0.499023438 0.709472656
vt 0.499023438 0.720703125
vt 0.493896484 0.720703125
vt 0.493896484 0.709472656
vt 0.435546875 0.720703125
vt 0.435546875 0.709472656
vt 0.440917969 0.709472656
vt 0.440917969 0.720703125
vt 0.575683594 0.58984375
vt 0.575683594 0.627929688
vt 0.766113281 0.627929688
vt 0.721679688 0.58984375
vt 0.740234375 0.598632812
vt 0.34375 0.0834350586
vt 0.389404297 0.0992431641
vt 0.389404297 0.0834350586
vt 0.34375 0.0992431641
vt 0.287109375 0.113220215
vt 0.287109375 0.0706787109
vt 0.448730469 0.0633544922
vt 0.433349609 0.112243652
vt 0.448730469 0.118347168
vt 0.433349609 0.0696411133
vt 0.389404297 0.0992431641
vt 0.389404297 0.0834350586
vt 0.0939331055 0.120483398
vt 0.109313965 0.114135742
vt 0.109313965 0.0715942383
vt 0.0939331055 0.0654907227
vt 0.305419922 0.0401916504
vt 0.34375 0.0834350586
vt 0.389404297 0.0834350586
vt 0.403320312 0.0401916504
vt 0.403320312 0.0235748291
vt 0.253662109 0.0401916504
vt 0.141113281 0.0235748291
vt 0.141113281 0.0401916504
vt 0.403320312 0.0401916504
vt 0.389404297 0.0834350586
vt 0.34375 0.0834350586
vt 0.305664062 0.0401916504
vt 0.403320312 0.0235748291
vt 0.141113281 0.0235748291
vt 0.25390625 0.0401916504
vt 0.141113281 0.0401916504
vt 0.225463867 0.0815429688
vt 0.124755859 0.103393555
vt 0.225463867 0.103393555
vt 0.124755859 0.0815429688
vt 0.109313965 0.114135742
vt 0.109313965 0.0715942383
vt 0.287109375 0.0706787109
vt 0.235473633 0.0706787109
vt 0.235473633 0.113220215
vt 0.287109375 0.113220215
vt 0.235473633 0.0706787109
vt 0.225463867 0.0815429688
vt 0.225463867 0.103393555
vt 0.235473633 0.113220215
vt 0.25390625 0.0401916504
vt 0.25390625 0.0548400879
vt 0.153076172 0.0548400879
vt 0.141113281 0.0401916504
vt 0.141113281 0.0401916504
vt 0.153076172 0.0548400879
vt 0.253662109 0.0548400879
vt 0.253662109 0.0401916504
vt 0.874511719 0.147338867
vt 0.838378906 0.2578125
vt 0.932617188 0.189575195
vt 0.802734375 0.147338867
vt 0.954589844 0.2578125
vt 0.744628906 0.189575195
vt 0.932617188 0.325927734
vt 0.722167969 0.2578125
vt 0.874511719 0.368164062
vt 0.744628906 0.325927734
vt 0.802734375 0.368164062
vt 0.124206543 0.551269531
vt 0.0947875977 0.631835938
vt 0.165771484 0.583984375
vt 0.0713500977 0.549316406
vt 0.180297852 0.634765625
vt 0.0274810791 0.579101562
vt 0.162109375 0.684570312
vt 0.00933837891 0.628417969
vt 0.118286133 0.713867188
vt 0.0238342285 0.6796875
vt 0.0654296875 0.711914062
vt 0.838378906 0.2578125
vt 0.802734375 0.147338867
vt 0.744628906 0.189575195
vt 0.722167969 0.2578125
vt 0.874511719 0.147338867
vt 0.744628906 0.325927734
vt 0.932617188 0.189575195
vt 0.802734375 0.368164062
vt 0.954589844 0.2578125
vt 0.874511719 0.368164062
vt 0.932617188 0.325927734
vt 0.400390625 0.232666016
vt 0.588378906 0.278808594
vt 0.400390625 0.278808594
vt 0.588378906 0.232666016
vt 0.400390625 0.186523438
vt 0.588378906 0.186523438
vt 0.400390625 0.140258789
vt 0.588378906 0.140258789
vt 0.400390625 0.278808594
vt 0.588378906 0.278808594
vt 0.588378906 0.324951172
vt 0.400390625 0.324951172
vt 0.588378906 0.37109375
vt 0.400390625 0.37109375
vt 0.400390625 0.37109375
vt 0.588378906 0.37109375
vt 0.588378906 0.324951172
vt 0.400390625 0.324951172
vt 0.588378906 0.278808594
vt 0.400390625 0.278808594
vt 0.588378906 0.232666016
vt 0.400390625 0.232666016
vt 0.400390625 0.232666016
vt 0.588378906 0.232666016
vt 0.588378906 0.186523438
vt 0.400390625 0.186523438
vt 0.588378906 0.140258789
vt 0.400390625 0.140258789
vt 0.520019531 0.232666016
vt 0.708007812 0.278808594
vt 0.520019531 0.278808594
vt 0.708007812 0.232666016
vt 0.520019531 0.186523438
vt 0.708007812 0.186523438
vt 0.520019531 0.140258789
vt 0.708007812 0.140258789
vt 0.520019531 0.278808594
vt 0.708007812 0.278808594
vt 0.708007812 0.324951172
vt 0.520019531 0.324951172
vt 0.708007812 0.37109375
vt 0.520019531 0.37109375
vt 0.520019531 0.37109375
vt 0.708007812 0.37109375
vt 0.708007812 0.324951172
vt 0.520019531 0.324951172
vt 0.708007812 0.278808594
vt 0.520019531 0.278808594
vt 0.708007812 0.232666016
vt 0.520019531 0.232666016
vt 0.520019531 0.232666016
vt 0.708007812 0.232666016
vt 0.708007812 0.186523438
vt 0.520019531 0.186523438
vt 0.708007812 0.140258789
vt 0.520019531 0.140258789
vn -0.013710022 -0.0468444824 0.999023438
vn -0.029083252 -0.00421905518 0.999511719
vn -0.029083252 0.00421905518 0.999511719
vn -0.013710022 0.0468444824 0.999023438
vn 0.0278015137 -0.105957031 0.994140625
vn 0.0278015137 0.105957031 0.994140625
vn 0.630859375 0.752441406 0.189941406
vn -0.0109863281 0.982421875 0.185546875
vn 0.0533447266 0.698730469 0.713378906
vn 0.0270996094 0.588378906 0.808105469
vn -0.0416259766 0.615234375 0.787109375
vn -0.00659561157 0.66796875 0.744140625
vn -0.0294342041 0.611816406 0.790527344
vn 1 0 0
vn 0.630859375 -0.752441406 0.189941406
vn 0.630859375 0.752441406 0.189941406
vn 1 0 0
vn -0.029083252 -0.00421905518 0.999511719
vn -0.013710022 -0.0468444824 0.999023438
vn -0.795898438 -0.60546875 0
vn -0.989746094 -0.143554688 0
vn -0.989746094 0.143554688 0
vn -0.029083252 0.00421905518 0.999511719
vn -0.795898438 0.60546875 0
vn -0.013710022 0.0468444824 0.999023438
vn 0.999023438 0.0432739258 0
vn 0.0270996094 0.588378906 0.808105469
vn 0.0533447266 0.698730469 0.713378906
vn 0.126831055 0.991699219 0
vn 0.126831055 0.991699219 0
vn 0.0533447266 0.698730469 0.713378906
vn -0.00659561157 0.66796875 0.744140625
vn -0.0381774902 0.999511719 0
vn -0.0294342041 0.611816406 0.790527344
vn -0.0416259766 0.615234375 0.787109375
vn -0.692382812 0.721191406 0
vn -0.546386719 0.837402344 0
vn -0.0381774902 0.999511719 0
vn -0.00659561157 0.66796875 0.744140625
vn -0.00659561157 -0.66796875 0.744140625
vn 0.0533447266 -0.698730469 0.713378906
vn 0.126831055 -0.991699219 0
vn -0.0381774902 -0.999511719 0
vn -0.546386719 -0.837402344 0
vn -0.0294342041 -0.611816406 0.790527344
vn 0.126831055 -0.991699219 0
vn 0.0533447266 -0.698730469 0.713378906
vn 0.0270996094 -0.588378906 0.808105469
vn 0.999023438 -0.0432739258 0
vn -0.692382812 -0.721191406 0
vn -0.0416259766 -0.615234375 0.787109375
vn -0.0294342041 -0.611816406 0.790527344
vn -0.546386719 -0.837402344 0
vn -0.0109863281 -0.982421875 0.185546875
vn -0.013710022 -0.0468444824 0.999023438
vn 0.0278015137 -0.105957031 0.994140625
vn 0.630859375 -0.752441406 0.189941406
vn 0.630859375 -0.752441406 0.189941406
vn 0.0278015137 -0.105957031 0.994140625
vn 0.0278015137 0.105957031 0.994140625
vn 0.630859375 0.752441406 0.189941406
vn -0.196166992 -0.98046875 0
vn -0.795898438 -0.60546875 0
vn -0.013710022 -0.0468444824 0.999023438
vn -0.0109863281 -0.982421875 0.185546875
vn -0.0109863281 0.982421875 0.185546875
vn -0.013710022 0.0468444824 0.999023438
vn -0.795898438 0.60546875 0
vn -0.196166992 0.98046875 0
vn -0.0416259766 -0.615234375 0.787109375
vn 0.0270996094 -0.588378906 0.808105469
vn 0.0533447266 -0.698730469 0.713378906
vn -0.00659561157 -0.66796875 0.744140625
vn -0.0294342041 -0.611816406 0.790527344
vn 0.686523438 0.588378906 -0.427246094
vn -0 0.809082031 -0.587890625
vn -0 0.309082031 -0.951171875
vn 0.686523438 0.224609375 -0.69140625
vn -0 -0.309082031 -0.951171875
vn 0.686523438 -0.224609375 -0.69140625
vn 0.686523438 -0.224609375 -0.69140625
vn -0 -0.309082031 -0.951171875
vn -0 -0.809082031 -0.587890625
vn 0.686523438 -0.588378906 -0.427246094
vn -0 -1 0
vn 0.686523438 -0.727050781 0
vn 0.686523438 -0.727050781 0
vn -0 -1 0
vn -0 -0.809082031 0.587890625
vn 0.686523438 -0.588378906 0.427246094
vn 0.686523438 -0.588378906 0.427246094
vn -0 -0.809082031 0.587890625
vn -0 -0.309082031 0.951171875
vn 0.686523438 -0.224609375 0.69140625
vn -0 0.309082031 0.951171875
vn 0.686523438 0.224609375 0.69140625
vn 0.686523438 0.224609375 0.69140625
vn -0 0.309082031 0.951171875
vn -0 0.809082031 0.587890625
vn 0.686523438 0.588378906 0.427246094
vn -0 1 0
vn 0.686523438 0.727050781 0
vn 0.686523438 0.727050781 0
vn -0 1 0
vn -0 0.809082031 -0.587890625
vn 0.686523438 0.588378906 -0.427246094
vn 0.170898438 0.304443359 -0.937011719
vn -0 -0.309082031 -0.951171875
vn 0.170898438 -0.304443359 -0.937011719
vn -0 0.309082031 -0.951171875
vn 0.170898438 0.796875 -0.579101562
vn -0 0.809082031 -0.587890625
vn 0.170898438 0.985351562 0
vn -0 1 0
vn 0.170898438 -0.304443359 -0.937011719
vn -0 -0.309082031 -0.951171875
vn -0 -0.809082031 -0.587890625
vn 0.170898438 -0.796875 -0.579101562
vn -0 -1 0
vn 0.170898438 -0.985351562 0
vn 0.170898438 -0.985351562 0
vn -0 -1 0
vn -0 -0.809082031 0.587890625
vn 0.170898438 -0.796875 0.579101562
vn -0 -0.309082031 0.951171875
vn 0.170898438 -0.304443359 0.937011719
vn -0 0.309082031 0.951171875
vn 0.170898438 0.304443359 0.937011719
vn 0.170898438 0.304443359 0.937011719
vn -0 0.309082031 0.951171875
vn -0 0.809082031 0.587890625
vn 0.170898438 0.796875 0.579101562
vn -0 1 0
vn 0.170898438 0.985351562 0
vn -0 1 0
vn -0.728027344 0.685546875 0
vn -0.728027344 0.5546875 -0.403076172
vn -0 0.809082031 -0.587890625
vn -0.728027344 0.211914062 -0.65234375
vn -0 0.309082031 -0.951171875
vn -0.728027344 -0.211914062 -0.65234375
vn -0 -0.309082031 -0.951171875
vn -0 0.809082031 0.587890625
vn -0.728027344 0.685546875 0
vn -0 1 0
vn -0.728027344 0.5546875 0.403076172
vn -0 0.309082031 0.951171875
vn -0.728027344 0.211914062 0.65234375
vn -0 -0.309082031 0.951171875
vn -0.728027344 0.211914062 0.65234375
vn -0 0.309082031 0.951171875
vn -0.728027344 -0.211914062 0.65234375
vn -0 -0.809082031 0.587890625
vn -0.728027344 -0.5546875 0.403076172
vn -0 -1 0
vn -0.728027344 -0.685546875 0
vn -0 -0.809082031 -0.587890625
vn -0.728027344 -0.685546875 0
vn -0 -1 0
vn -0.728027344 -0.5546875 -0.403076172
vn -0 -0.309082031 -0.951171875
vn -0.728027344 -0.211914062 -0.65234375
vn 0.138427734 -0.90234375 0.408447266
vn 0.351318359 -0.936035156 0
vn 0.151611328 -0.98828125 0
vn 0.315673828 -0.855957031 0.408935547
vn 0.286132812 -0.0484924316 0.95703125
vn 0.351318359 -0.936035156 0
vn 0.993652344 0.114318848 0
vn -0.197387695 -0.197998047 0.959960938
vn 0.151611328 -0.98828125 0
vn -0.873046875 -0.487548828 0
vn 0.132568359 0.000892162323 0.991210938
vn 0.290527344 -0.149902344 0.944824219
vn 0.888671875 -0.458496094 0
vn 0.998046875 -0.0626220703 0
vn 0.931152344 0.365234375 0
vn 0.195922852 0.081237793 0.977050781
vn 0.22253418 0.0748291016 0.972167969
vn 0.947753906 0.318847656 0
vn -0.258300781 -0.0971069336 0.961425781
vn -0 0 1
vn 0.290527344 -0.149902344 0.944824219
vn 0.132568359 0.000892162323 0.991210938
vn 0.195922852 0.081237793 0.977050781
vn -0.215576172 -0.0729370117 0.973632812
vn 0.22253418 0.0748291016 0.972167969
vn -0.249633789 -0.0936279297 -0.963867188
vn 0.290527344 -0.149902344 -0.944824219
vn -0.279541016 -0.147949219 -0.948730469
vn 0.132568359 0.000892162323 -0.991210938
vn 0.195922852 0.081237793 -0.977050781
vn 0.22253418 0.0748291016 -0.972167969
vn -0.215576172 -0.0729370117 -0.973632812
vn -0.932128906 -0.362304688 0.0024394989
vn -0.215576172 -0.0729370117 0.973632812
vn -0.947265625 -0.3203125 0
vn -0.258300781 -0.0971069336 0.961425781
vn -0.86328125 -0.439941406 0.247314453
vn -0.887695312 -0.460693359 -0.00826263428
vn 0.993652344 0.114318848 0
vn 0.286132812 -0.0484924316 0.95703125
vn 0.208496094 0.139038086 0.968261719
vn 0.913574219 0.406738281 0
vn -0.265380859 -0.0129470825 -0.963867188
vn -0.197387695 -0.197998047 -0.959960938
vn 0.286132812 -0.0484924316 -0.95703125
vn 0.208496094 0.139038086 -0.968261719
vn -0.265380859 -0.0129470825 0.963867188
vn -0.197387695 -0.197998047 0.959960938
vn -0.873046875 -0.487548828 0
vn -0.975097656 -0.22277832 -2.38418579E-07
vn 0.208496094 0.139038086 0.968261719
vn 0.286132812 -0.0484924316 0.95703125
vn -0.197387695 -0.197998047 0.959960938
vn -0.265380859 -0.0129470825 0.963867188
vn 0.913574219 0.406738281 0
vn 0.208496094 0.139038086 0.968261719
vn -0.0762329102 0.794921875 0.602050781
vn 0.305908203 0.952148438 0
vn -0.325195312 0.725097656 -0.606933594
vn -0.265380859 -0.0129470825 -0.963867188
vn 0.208496094 0.139038086 -0.968261719
vn -0.0762329102 0.794921875 -0.602050781
vn -0.0762329102 0.794921875 -0.602050781
vn 0.913574219 0.406738281 0
vn 0.305908203 0.952148438 0
vn -0.325195312 0.725097656 0.606933594
vn -0.975097656 -0.22277832 -2.38418579E-07
vn -0.758789062 0.651367188 5.00679016E-06
vn -0.265380859 -0.0129470825 0.963867188
vn -0.0762329102 0.794921875 0.602050781
vn 0.208496094 0.139038086 0.968261719
vn -0.325195312 0.725097656 0.606933594
vn -0.215576172 -0.0729370117 -0.973632812
vn -0.932128906 -0.362304688 0.0024394989
vn -0.947265625 -0.3203125 0
vn -0.249633789 -0.0936279297 -0.963867188
vn -0.887695312 -0.460693359 -0.00826263428
vn -0.279541016 -0.147949219 -0.948730469
vn -0.975097656 -0.22277832 -2.38418579E-07
vn -0.265380859 -0.0129470825 -0.963867188
vn -0.325195312 0.725097656 -0.606933594
vn -0.758789062 0.651367188 5.00679016E-06
vn -0.873046875 -0.487548828 0
vn -0.197387695 -0.197998047 -0.959960938
vn -0.265380859 -0.0129470825 -0.963867188
vn -0.975097656 -0.22277832 -2.38418579E-07
vn 0.151611328 -0.98828125 0
vn -0.197387695 -0.197998047 -0.959960938
vn -0.873046875 -0.487548828 0
vn 0.138427734 -0.90234375 -0.408447266
vn 0.315673828 -0.855957031 -0.408935547
vn 0.286132812 -0.0484924316 -0.95703125
vn 0.351318359 -0.936035156 0
vn 0.151611328 -0.98828125 0
vn 0.351318359 -0.936035156 0
vn 0.993652344 0.114318848 0
vn 0.208496094 0.139038086 -0.968261719
vn 0.286132812 -0.0484924316 -0.95703125
vn 0.993652344 0.114318848 0
vn 0.913574219 0.406738281 0
vn 0.931152344 0.365234375 0
vn 0.22253418 0.0748291016 -0.972167969
vn 0.947753906 0.318847656 0
vn 0.195922852 0.081237793 -0.977050781
vn 0.132568359 0.000892162323 -0.991210938
vn 0.998046875 -0.0626220703 0
vn 0.888671875 -0.458496094 0
vn 0.290527344 -0.149902344 -0.944824219
vn -0.013710022 -0.0468444824 -0.999023438
vn 0.0278015137 -0.105957031 -0.994140625
vn 0.0278015137 0.105957031 -0.994140625
vn -0.013710022 0.0468444824 -0.999023438
vn 0.630859375 0.751953125 -0.189941406
vn -0.0109863281 0.982421875 -0.185546875
vn -0.029083252 0.00421905518 -0.999511719
vn -0.029083252 -0.00421905518 -0.999511719
vn -0.0416259766 0.615234375 -0.787109375
vn 0.0270996094 0.588378906 -0.808105469
vn 0.0533447266 0.698730469 -0.713378906
vn -0.00659561157 0.66796875 -0.744140625
vn -0.0294342041 0.611816406 -0.790527344
vn 1 -1.49011612E-06 0
vn 1 -1.49011612E-06 0
vn 0.630859375 0.751953125 -0.189941406
vn 0.630859375 -0.752441406 -0.189941406
vn -0.029083252 -0.00421905518 -0.999511719
vn -0.795898438 -0.60546875 0
vn -0.013710022 -0.0468444824 -0.999023438
vn -0.989746094 -0.143554688 0
vn -0.989746094 0.143554688 0
vn -0.029083252 0.00421905518 -0.999511719
vn -0.795898438 0.60546875 0
vn -0.013710022 0.0468444824 -0.999023438
vn 0.999023438 0.0432739258 0
vn 0.126831055 0.991699219 0
vn 0.0533447266 0.698730469 -0.713378906
vn 0.0270996094 0.588378906 -0.808105469
vn 0.126831055 0.991699219 0
vn -0.00659561157 0.66796875 -0.744140625
vn 0.0533447266 0.698730469 -0.713378906
vn -0.0381774902 0.999511719 0
vn -0.0294342041 0.611816406 -0.790527344
vn -0.546386719 0.837402344 0
vn -0.0294342041 0.611816406 -0.790527344
vn -0.546386719 0.837402344 0
vn -0.692382812 0.721191406 0
vn -0.0416259766 0.615234375 -0.787109375
vn -0.00659561157 -0.66796875 -0.744140625
vn -0.0381774902 -0.999511719 0
vn 0.126831055 -0.991699219 0
vn 0.0533447266 -0.698730469 -0.713378906
vn 0.126831055 -0.991699219 0
vn 0.999023438 -0.0432739258 0
vn 0.0270996094 -0.588378906 -0.808105469
vn 0.0533447266 -0.698730469 -0.713378906
vn -0.692382812 -0.721191406 0
vn -0.0294342041 -0.611816406 -0.790527344
vn -0.0416259766 -0.615234375 -0.787109375
vn -0.546386719 -0.837402344 0
vn -0.00659561157 -0.66796875 -0.744140625
vn -0.0381774902 -0.999511719 0
vn -0.0109863281 -0.982421875 -0.185546875
vn 0.630859375 -0.752441406 -0.189941406
vn 0.0278015137 -0.105957031 -0.994140625
vn -0.013710022 -0.0468444824 -0.999023438
vn 0.630859375 -0.752441406 -0.189941406
vn 0.630859375 0.751953125 -0.189941406
vn 0.0278015137 0.105957031 -0.994140625
vn 0.0278015137 -0.105957031 -0.994140625
vn -0.196166992 -0.98046875 0
vn -0.0109863281 -0.982421875 -0.185546875
vn -0.013710022 -0.0468444824 -0.999023438
vn -0.795898438 -0.60546875 0
vn -0.0109863281 0.982421875 -0.185546875
vn -0.196166992 0.98046875 0
vn -0.795898438 0.60546875 0
vn -0.013710022 0.0468444824 -0.999023438
vn 0.0533447266 -0.698730469 -0.713378906
vn 0.0270996094 -0.588378906 -0.808105469
vn -0.0416259766 -0.615234375 -0.787109375
vn -0.00659561157 -0.66796875 -0.744140625
vn -0.0294342041 -0.611816406 -0.790527344
vn -0.566894531 0.823730469 0
vn -0 1 0
vn -0 1 0
vn -0.566894531 0.823730469 0
vn -0.73828125 0.674316406 0
vn -0.73828125 0.674316406 0
vn 1 -1.31130219E-06 0
vn 0.982910156 0.184082031 0
vn 1 -1.31130219E-06 0
vn 0.982910156 0.184082031 0
vn 0.947265625 0.321044922 0
vn 0.947265625 0.321044922 0
vn -1 -1.78813934E-07 0
vn -0.968261719 0.249267578 0
vn -0.968261719 0.249267578 0
vn -1 -1.78813934E-07 0
vn -0 0.240356445 0.970703125
vn -0 0.193603516 0.980957031
vn -0 0.193603516 0.980957031
vn -0 0.240356445 0.970703125
vn -0 0.240356445 0.970703125
vn -0 0.240356445 0.970703125
vn -0 0.240356445 0.970703125
vn -0 0.240356445 0.970703125
vn -0 0.240356445 -0.970703125
vn -0 0.193603516 -0.980957031
vn -0 0.193603516 -0.980957031
vn -0 0.240356445 -0.970703125
vn -0 0.240356445 -0.970703125
vn -0 0.240356445 -0.970703125
vn -0 0.240356445 -0.970703125
vn -0 0.240356445 -0.970703125
vn 0.194091797 0.980957031 0
vn -0.147583008 0.989257812 0
vn 0.194091797 0.980957031 0
vn -0.147583008 0.989257812 0
vn -0.968261719 0.249267578 0
vn -0.968261719 0.249267578 0
vn -0 1 0
vn -0 1 0
vn -0 1 0
vn -0 1 0
vn 1 -7.74860382E-07 0
vn 0.194091797 0.980957031 0
vn 0.194091797 0.980957031 0
vn 1 -7.74860382E-07 0
vn -0 0.539550781 -0.841796875
vn -0 0.539550781 -0.841796875
vn -0 0.539550781 -0.841796875
vn -0 0.539550781 -0.841796875
vn -0 0.539550781 0.841796875
vn -0 0.539550781 0.841796875
vn -0 0.539550781 0.841796875
vn -0 0.539550781 0.841796875
vn 0.170898438 0.985351562 0
vn 1 0 0
vn 0.170898438 0.796875 0.579101562
vn 0.170898438 0.796875 -0.579101562
vn 0.170898438 0.304443359 0.937011719
vn 0.170898438 0.304443359 -0.937011719
vn 0.170898438 -0.304443359 0.937011719
vn 0.170898438 -0.304443359 -0.937011719
vn 0.170898438 -0.796875 0.579101562
vn 0.170898438 -0.796875 -0.579101562
vn 0.170898438 -0.985351562 0
vn 0.686523438 0.727050781 0
vn 1 -1.1920929E-07 0
vn 0.686523438 0.588378906 0.427246094
vn 0.686523438 0.588378906 -0.427246094
vn 0.686523438 0.224609375 0.69140625
vn 0.686523438 0.224609375 -0.69140625
vn 0.686523438 -0.224609375 0.69140625
vn 0.686523438 -0.224609375 -0.69140625
vn 0.686523438 -0.588378906 0.427246094
vn 0.686523438 -0.588378906 -0.427246094
vn 0.686523438 -0.727050781 0
vn -1 0 0
vn -0.728027344 0.685546875 0
vn -0.728027344 0.5546875 0.403076172
vn -0.728027344 0.211914062 0.65234375
vn -0.728027344 0.5546875 -0.403076172
vn -0.728027344 -0.211914062 0.65234375
vn -0.728027344 0.211914062 -0.65234375
vn -0.728027344 -0.5546875 0.403076172
vn -0.728027344 -0.211914062 -0.65234375
vn -0.728027344 -0.685546875 0
vn -0.728027344 -0.5546875 -0.403076172
vn -0 0.309082031 -0.951171875
vn -0 -0.309082031 -0.951171875
vn -0 -0.309082031 -0.951171875
vn -0 0.309082031 -0.951171875
vn -0 0.809082031 -0.587890625
vn -0 0.809082031 -0.587890625
vn -0 1 0
vn -0 1 0
vn -0 -0.309082031 -0.951171875
vn -0 -0.309082031 -0.951171875
vn -0 -0.809082031 -0.587890625
vn -0 -0.809082031 -0.587890625
vn -0 -1 1.1920929E-07
vn -0 -1 1.1920929E-07
vn -0 -1 1.1920929E-07
vn -0 -1 1.1920929E-07
vn -0 -0.809082031 0.587890625
vn -0 -0.809082031 0.587890625
vn -0 -0.309082031 0.951171875
vn -0 -0.309082031 0.951171875
vn -0 0.309082031 0.951171875
vn -0 0.309082031 0.951171875
vn -0 0.309082031 0.951171875
vn -0 0.309082031 0.951171875
vn -0 0.809082031 0.587890625
vn -0 0.809082031 0.587890625
vn -0 1 0
vn -0 1 0
vn -0 0.309082031 -0.951171875
vn -0 -0.309082031 -0.951171875
vn -0 -0.309082031 -0.951171875
vn -0 0.309082031 -0.951171875
vn -0 0.809082031 -0.587890625
vn -0 0.809082031 -0.587890625
vn -0 1 0
vn -0 1 0
vn -0 -0.309082031 -0.951171875
vn -0 -0.309082031 -0.951171875
vn -0 -0.809082031 -0.587890625
vn -0 -0.809082031 -0.587890625
vn -0 -1 0
vn -0 -1 0
vn -0 -1 0
vn -0 -1 0
vn -0 -0.809082031 0.587890625
vn -0 -0.809082031 0.587890625
vn -0 -0.309082031 0.951171875
vn -0 -0.309082031 0.951171875
vn -0 0.309082031 0.951171875
vn -0 0.309082031 0.951171875
vn -0 0.309082031 0.951171875
vn -0 0.309082031 0.951171875
vn -0 0.809082031 0.587890625
vn -0 0.809082031 0.587890625
vn -0 1 0
vn -0 1 0
g BallsBazooka_0
f 3/3/3 2/2/2 1/1/1
f 4/4/4 3/3/3 1/1/1
f 4/4/4 1/1/1 5/5/5
f 5/5/5 6/6/6 4/4/4
f 4/4/4 6/6/6 7/7/7
f 8/8/8 4/4/4 7/7/7
f 11/11/11 10/10/10 9/9/9
f 9/9/9 12/12/12 11/11/11
f 12/12/12 13/13/13 11/11/11
f 16/16/16 15/15/15 14/14/14
f 17/17/17 16/16/16 14/14/14
f 20/20/20 19/19/19 18/18/18
f 21/21/21 20/20/20 18/18/18
f 22/22/22 21/21/21 18/18/18
f 23/23/23 22/22/22 18/18/18
f 22/22/22 23/23/23 24/24/24
f 23/23/23 25/25/25 24/24/24
f 28/28/28 27/27/27 26/26/26
f 29/29/29 28/28/28 26/26/26
f 32/32/32 31/31/31 30/30/30
f 33/33/33 32/32/32 30/30/30
f 36/36/36 35/35/35 34/34/34
f 37/37/37 36/36/36 34/34/34
f 37/37/37 34/34/34 38/38/38
f 34/34/34 39/39/39 38/38/38
f 42/42/42 41/41/41 40/40/40
f 43/43/43 42/42/42 40/40/40
f 43/43/43 40/40/40 44/44/44
f 40/40/40 45/45/45 44/44/44
f 48/48/48 47/47/47 46/46/46
f 49/49/49 48/48/48 46/46/46
f 52/52/52 51/51/51 50/50/50
f 53/53/53 52/52/52 50/50/50
f 56/56/56 55/55/55 54/54/54
f 57/57/57 56/56/56 54/54/54
f 60/60/60 59/59/59 58/58/58
f 61/61/61 60/60/60 58/58/58
f 64/64/64 63/63/63 62/62/62
f 65/65/65 64/64/64 62/62/62
f 68/68/68 67/67/67 66/66/66
f 69/69/69 68/68/68 66/66/66
f 72/72/72 71/71/71 70/70/70
f 70/70/70 73/73/73 72/72/72
f 70/70/70 74/74/74 73/73/73
f 77/77/77 76/76/76 75/75/75
f 78/78/78 77/77/77 75/75/75
f 79/79/79 77/77/77 78/78/78
f 80/80/80 79/79/79 78/78/78
f 83/83/83 82/82/82 81/81/81
f 84/84/84 83/83/83 81/81/81
f 85/85/85 83/83/83 84/84/84
f 86/86/86 85/85/85 84/84/84
f 89/89/89 88/88/88 87/87/87
f 90/90/90 89/89/89 87/87/87
f 93/93/93 92/92/92 91/91/91
f 94/94/94 93/93/93 91/91/91
f 95/95/95 93/93/93 94/94/94
f 96/96/96 95/95/95 94/94/94
f 99/99/99 98/98/98 97/97/97
f 100/100/100 99/99/99 97/97/97
f 101/101/101 99/99/99 100/100/100
f 102/102/102 101/101/101 100/100/100
f 105/105/105 104/104/104 103/103/103
f 106/106/106 105/105/105 103/103/103
f 109/109/109 108/108/108 107/107/107
f 108/108/108 110/110/110 107/107/107
f 107/107/107 110/110/110 111/111/111
f 110/110/110 112/112/112 111/111/111
f 111/111/111 112/112/112 113/113/113
f 112/112/112 114/114/114 113/113/113
f 117/117/117 116/116/116 115/115/115
f 118/118/118 117/117/117 115/115/115
f 119/119/119 117/117/117 118/118/118
f 120/120/120 119/119/119 118/118/118
f 123/123/123 122/122/122 121/121/121
f 124/124/124 123/123/123 121/121/121
f 125/125/125 123/123/123 124/124/124
f 126/126/126 125/125/125 124/124/124
f 127/127/127 125/125/125 126/126/126
f 128/128/128 127/127/127 126/126/126
f 131/131/131 130/130/130 129/129/129
f 132/132/132 131/131/131 129/129/129
f 133/133/133 131/131/131 132/132/132
f 134/134/134 133/133/133 132/132/132
f 137/137/137 136/136/136 135/135/135
f 138/138/138 137/137/137 135/135/135
f 139/139/139 137/137/137 138/138/138
f 140/140/140 139/139/139 138/138/138
f 141/141/141 139/139/139 140/140/140
f 142/142/142 141/141/141 140/140/140
f 145/145/145 144/144/144 143/143/143
f 144/144/144 146/146/146 143/143/143
f 143/143/143 146/146/146 147/147/147
f 146/146/146 148/148/148 147/147/147
f 151/151/151 150/150/150 149/149/149
f 150/150/150 152/152/152 149/149/149
f 149/149/149 152/152/152 153/153/153
f 152/152/152 154/154/154 153/153/153
f 153/153/153 154/154/154 155/155/155
f 154/154/154 156/156/156 155/155/155
f 159/159/159 158/158/158 157/157/157
f 158/158/158 160/160/160 157/157/157
f 157/157/157 160/160/160 161/161/161
f 160/160/160 162/162/162 161/161/161
f 165/165/165 164/164/164 163/163/163
f 164/164/164 166/166/166 163/163/163
f 163/163/163 166/166/166 167/167/167
f 167/167/167 166/166/166 168/168/168
f 169/169/169 167/167/167 168/168/168
f 170/170/170 163/163/163 167/167/167
f 171/171/171 163/163/163 170/170/170
f 172/172/172 171/171/171 170/170/170
f 175/175/175 174/174/174 173/173/173
f 176/176/176 175/175/175 173/173/173
f 176/176/176 173/173/173 177/177/177
f 173/173/173 178/178/178 177/177/177
f 177/177/177 178/178/178 179/179/179
f 180/180/180 177/177/177 179/179/179
f 183/183/183 182/182/182 181/181/181
f 184/184/184 183/183/183 181/181/181
f 181/181/181 185/185/185 184/184/184
f 185/185/185 181/181/181 186/186/186
f 187/187/187 185/185/185 186/186/186
f 190/190/190 189/189/189 188/188/188
f 189/189/189 191/191/191 188/188/188
f 191/191/191 192/192/192 188/188/188
f 188/188/188 192/192/192 193/193/193
f 194/194/194 188/188/188 193/193/193
f 197/197/197 196/196/196 195/195/195
f 196/196/196 198/198/198 195/195/195
f 198/198/198 199/199/199 195/195/195
f 199/199/199 200/200/200 195/195/195
f 203/203/203 202/202/202 201/201/201
f 204/204/204 203/203/203 201/201/201
f 207/207/207 206/206/206 205/205/205
f 208/208/208 207/207/207 205/205/205
f 211/211/211 210/210/210 209/209/209
f 212/212/212 211/211/211 209/209/209
f 215/215/215 214/214/214 213/213/213
f 216/216/216 215/215/215 213/213/213
f 219/219/219 218/218/218 217/217/217
f 220/220/220 219/219/219 217/217/217
f 223/223/223 222/222/222 221/221/221
f 224/224/224 223/223/223 221/221/221
f 226/226/226 223/223/223 225/225/225
f 227/227/227 226/226/226 225/225/225
f 230/230/230 229/229/229 228/228/228
f 229/229/229 231/231/231 228/228/228
f 231/231/231 233/233/233 232/232/232
f 234/234/234 231/231/231 232/232/232
f 237/237/237 236/236/236 235/235/235
f 236/236/236 238/238/238 235/235/235
f 236/236/236 239/239/239 238/238/238
f 239/239/239 240/240/240 238/238/238
f 243/243/243 242/242/242 241/241/241
f 244/244/244 243/243/243 241/241/241
f 247/247/247 246/246/246 245/245/245
f 248/248/248 247/247/247 245/245/245
f 251/251/251 250/250/250 249/249/249
f 250/250/250 252/252/252 249/249/249
f 253/253/253 252/252/252 250/250/250
f 254/254/254 253/253/253 250/250/250
f 252/252/252 253/253/253 255/255/255
f 256/256/256 252/252/252 255/255/255
f 257/257/257 253/253/253 254/254/254
f 258/258/258 257/257/257 254/254/254
f 261/261/261 260/260/260 259/259/259
f 262/262/262 261/261/261 259/259/259
f 265/265/265 264/264/264 263/263/263
f 264/264/264 266/266/266 263/263/263
f 263/263/263 266/266/266 267/267/267
f 268/268/268 263/263/263 267/267/267
f 268/268/268 267/267/267 269/269/269
f 267/267/267 270/270/270 269/269/269
f 273/273/273 272/272/272 271/271/271
f 271/271/271 274/274/274 273/273/273
f 273/273/273 274/274/274 275/275/275
f 274/274/274 276/276/276 275/275/275
f 271/271/271 277/277/277 274/274/274
f 271/271/271 278/278/278 277/277/277
f 281/281/281 280/280/280 279/279/279
f 279/279/279 282/282/282 281/281/281
f 279/279/279 283/283/283 282/282/282
f 286/286/286 285/285/285 284/284/284
f 287/287/287 286/286/286 284/284/284
f 290/290/290 289/289/289 288/288/288
f 289/289/289 291/291/291 288/288/288
f 291/291/291 292/292/292 288/288/288
f 292/292/292 293/293/293 288/288/288
f 293/293/293 292/292/292 294/294/294
f 295/295/295 293/293/293 294/294/294
f 298/298/298 297/297/297 296/296/296
f 299/299/299 298/298/298 296/296/296
f 302/302/302 301/301/301 300/300/300
f 301/301/301 303/303/303 300/300/300
f 301/301/301 304/304/304 303/303/303
f 304/304/304 305/305/305 303/303/303
f 308/308/308 307/307/307 306/306/306
f 309/309/309 308/308/308 306/306/306
f 312/312/312 311/311/311 310/310/310
f 313/313/313 312/312/312 310/310/310
f 316/316/316 315/315/315 314/314/314
f 317/317/317 316/316/316 314/314/314
f 320/320/320 319/319/319 318/318/318
f 319/319/319 321/321/321 318/318/318
f 319/319/319 322/322/322 321/321/321
f 322/322/322 323/323/323 321/321/321
f 326/326/326 325/325/325 324/324/324
f 327/327/327 326/326/326 324/324/324
f 330/330/330 329/329/329 328/328/328
f 331/331/331 330/330/330 328/328/328
f 334/334/334 333/333/333 332/332/332
f 335/335/335 334/334/334 332/332/332
f 338/338/338 337/337/337 336/336/336
f 339/339/339 338/338/338 336/336/336
f 342/342/342 341/341/341 340/340/340
f 340/340/340 343/343/343 342/342/342
f 343/343/343 344/344/344 342/342/342
f 347/347/347 346/346/346 345/345/345
f 346/346/346 348/348/348 345/345/345
f 345/345/345 348/348/348 349/349/349
f 350/350/350 345/345/345 349/349/349
f 353/353/353 352/352/352 351/351/351
f 352/352/352 354/354/354 351/351/351
f 352/352/352 355/355/355 354/354/354
f 355/355/355 356/356/356 354/354/354
f 359/359/359 358/358/358 357/357/357
f 360/360/360 359/359/359 357/357/357
f 363/363/363 362/362/362 361/361/361
f 364/364/364 363/363/363 361/361/361
f 364/364/364 361/361/361 365/365/365
f 361/361/361 366/366/366 365/365/365
f 366/366/366 367/367/367 365/365/365
f 366/366/366 368/368/368 367/367/367
f 371/371/371 370/370/370 369/369/369
f 372/372/372 371/371/371 369/369/369
f 369/369/369 373/373/373 372/372/372
f 373/373/373 374/374/374 372/372/372
f 374/374/374 375/375/375 372/372/372
f 374/374/374 376/376/376 375/375/375
f 379/379/379 378/378/378 377/377/377
f 378/378/378 380/380/380 377/377/377
f 380/380/380 378/378/378 381/381/381
f 382/382/382 380/380/380 381/381/381
f 385/385/385 384/384/384 383/383/383
f 386/386/386 385/385/385 383/383/383
f 389/389/389 388/388/388 387/387/387
f 390/390/390 389/389/389 387/387/387
f 393/393/393 392/392/392 391/391/391
f 394/394/394 393/393/393 391/391/391
f 397/397/397 396/396/396 395/395/395
f 398/398/398 397/397/397 395/395/395
f 401/401/401 400/400/400 399/399/399
f 399/399/399 400/400/400 402/402/402
f 403/403/403 400/400/400 401/401/401
f 402/402/402 400/400/400 404/404/404
f 405/405/405 400/400/400 403/403/403
f 404/404/404 400/400/400 406/406/406
f 407/407/407 400/400/400 405/405/405
f 406/406/406 400/400/400 408/408/408
f 409/409/409 400/400/400 407/407/407
f 408/408/408 400/400/400 409/409/409
f 412/412/412 411/411/411 410/410/410
f 410/410/410 411/411/411 413/413/413
f 414/414/414 411/411/411 412/412/412
f 413/413/413 411/411/411 415/415/415
f 416/416/416 411/411/411 414/414/414
f 415/415/415 411/411/411 417/417/417
f 418/418/418 411/411/411 416/416/416
f 417/417/417 411/411/411 419/419/419
f 420/420/420 411/411/411 418/418/418
f 419/419/419 411/411/411 420/420/420
f 423/423/423 422/422/422 421/421/421
f 424/424/424 423/423/423 421/421/421
f 422/422/422 425/425/425 421/421/421
f 426/426/426 424/424/424 421/421/421
f 425/425/425 427/427/427 421/421/421
f 428/428/428 426/426/426 421/421/421
f 427/427/427 429/429/429 421/421/421
f 430/430/430 428/428/428 421/421/421
f 429/429/429 431/431/431 421/421/421
f 431/431/431 430/430/430 421/421/421
g BallsBazooka_1
f 434/434/434 433/433/433 432/432/432
f 433/433/433 435/435/435 432/432/432
f 432/432/432 435/435/435 436/436/436
f 435/435/435 437/437/437 436/436/436
f 436/436/436 437/437/437 438/438/438
f 437/437/437 439/439/439 438/438/438
f 442/442/442 441/441/441 440/440/440
f 443/443/443 442/442/442 440/440/440
f 444/444/444 442/442/442 443/443/443
f 445/445/445 444/444/444 443/443/443
f 448/448/448 447/447/447 446/446/446
f 449/449/449 448/448/448 446/446/446
f 450/450/450 448/448/448 449/449/449
f 451/451/451 450/450/450 449/449/449
f 452/452/452 450/450/450 451/451/451
f 453/453/453 452/452/452 451/451/451
f 456/456/456 455/455/455 454/454/454
f 457/457/457 456/456/456 454/454/454
f 458/458/458 456/456/456 457/457/457
f 459/459/459 458/458/458 457/457/457
f 462/462/462 461/461/461 460/460/460
f 461/461/461 463/463/463 460/460/460
f 460/460/460 463/463/463 464/464/464
f 463/463/463 465/465/465 464/464/464
f 464/464/464 465/465/465 466/466/466
f 465/465/465 467/467/467 466/466/466
f 470/470/470 469/469/469 468/468/468
f 471/471/471 470/470/470 468/468/468
f 472/472/472 470/470/470 471/471/471
f 473/473/473 472/472/472 471/471/471
f 476/476/476 475/475/475 474/474/474
f 477/477/477 476/476/476 474/474/474
f 478/478/478 476/476/476 477/477/477
f 479/479/479 478/478/478 477/477/477
f 480/480/480 478/478/478 479/479/479
f 481/481/481 480/480/480 479/479/479
f 484/484/484 483/483/483 482/482/482
f 485/485/485 484/484/484 482/482/482
f 486/486/486 484/484/484 485/485/485
f 487/487/487 486/486/486 485/485/485
