g ControlPanel_RedBulb
v -0.0115739703 0.00574473012 -0.019208733
v -0.013992507 0.00652582757 -0.0233555678
v 0.0139925117 0.00652582757 -0.0233555678
v 0.011573975 0.00574473012 -0.019208733
v 0.0279850122 -0.000796407519 -0.000252396247
v 0.0231479369 -0.000311864715 -9.88355969E-05
v 0.0139925117 -0.00811856613 0.0228507631
v 0.0115739554 -0.0063684592 0.0190110523
v -0.0139925266 -0.00811856613 0.0228507631
v -0.0115739889 -0.0063684592 0.0190110523
v -0.0279850271 -0.000796407519 -0.000252396247
v -0.0231479518 -0.000311864715 -9.88355969E-05
v -0.013992507 0.00652582757 -0.0233555678
v -0.0115739703 0.00574473012 -0.019208733
v -0.013992507 0.00652582757 -0.0233555678
v -0.015378329 -0.000126775602 -0.0279819742
v 0.015378315 -0.000126775602 -0.0279819742
v 0.0139925117 0.00652582757 -0.0233555678
v -0.0279850271 -0.000796407519 -0.000252396247
v -0.0307566524 -0.00817418471 -0.00259068166
v -0.015378329 -0.000126775602 -0.0279819742
v -0.013992507 0.00652582757 -0.0233555678
v -0.0139925266 -0.00811856613 0.0228507631
v -0.015378329 -0.0162215941 0.0228006002
v -0.0307566524 -0.00817418471 -0.00259068166
v -0.0279850271 -0.000796407519 -0.000252396247
v 0.0139925117 -0.00811856613 0.0228507631
v 0.015378315 -0.0162215941 0.0228006002
v -0.015378329 -0.0162215941 0.0228006002
v -0.0139925266 -0.00811856613 0.0228507631
v 0.0279850122 -0.000796407519 -0.000252396247
v 0.0307566375 -0.00817418471 -0.00259068166
v 0.015378315 -0.0162215941 0.0228006002
v 0.0139925117 -0.00811856613 0.0228507631
v 0.0139925117 0.00652582757 -0.0233555678
v 0.015378315 -0.000126775602 -0.0279819742
v 0.0307566375 -0.00817418471 -0.00259068166
v 0.0279850122 -0.000796407519 -0.000252396247
v 0.0231479369 -0.000311864715 -9.88355969E-05
v 0.0115739554 -0.0063684592 0.0190110523
v -7.31099936E-09 -0.00817418471 -0.00259068166
v 0.011573975 0.00574473012 -0.019208733
v -0.0115739889 -0.0063684592 0.0190110523
v -0.0115739703 0.00574473012 -0.019208733
v -0.0231479518 -0.000311864715 -9.88355969E-05
vt 0.331787109 0.405761719
vt 0.336181641 0.405761719
vt 0.336181641 0.378662109
vt 0.331787109 0.378662109
vt 0.336181641 0.3515625
vt 0.331787109 0.3515625
vt 0.336181641 0.323974609
vt 0.331787109 0.323974609
vt 0.336181641 0.295898438
vt 0.331787109 0.295898438
vt 0.336181641 0.268798828
vt 0.331787109 0.268798828
vt 0.336181641 0.241333008
vt 0.331787109 0.241333008
vt 0.336181641 0.405761719
vt 0.345703125 0.405761719
vt 0.345703125 0.378662109
vt 0.336181641 0.378662109
vt 0.336181641 0.268798828
vt 0.345703125 0.268798828
vt 0.345703125 0.241333008
vt 0.336181641 0.241333008
vt 0.336181641 0.295898438
vt 0.345703125 0.295898438
vt 0.345703125 0.268798828
vt 0.336181641 0.268798828
vt 0.336181641 0.323974609
vt 0.345703125 0.323974609
vt 0.345703125 0.295898438
vt 0.336181641 0.295898438
vt 0.336181641 0.3515625
vt 0.345703125 0.3515625
vt 0.345703125 0.323974609
vt 0.336181641 0.323974609
vt 0.336181641 0.378662109
vt 0.345703125 0.378662109
vt 0.345703125 0.3515625
vt 0.336181641 0.3515625
vt 0.646972656 0.268066406
vt 0.644042969 0.26171875
vt 0.640136719 0.267822266
vt 0.643066406 0.274169922
vt 0.63671875 0.261474609
vt 0.636230469 0.273681641
vt 0.6328125 0.267333984
vn 0.0686645508 0.908203125 0.412597656
vn -0.416503906 0.745117188 -0.520996094
vn 0.416503906 0.745117188 -0.520996094
vn -0.0686645508 0.908203125 0.412597656
vn 0.833007812 0.526855469 0.167114258
vn -0.137329102 0.944335938 0.299316406
vn 0.416503906 0.309082031 0.854980469
vn -0.0686645508 0.979980469 0.185913086
vn -0.416503906 0.309082031 0.854980469
vn 0.0686645508 0.979980469 0.185913086
vn -0.833007812 0.526855469 0.167114258
vn 0.137329102 0.944335938 0.299316406
vn -0.416503906 0.745117188 -0.520996094
vn 0.0686645508 0.908203125 0.412597656
vn -0.416503906 0.745117188 -0.520996094
vn -0.470703125 0.567871094 -0.675292969
vn 0.470703125 0.567871094 -0.675292969
vn 0.416503906 0.745117188 -0.520996094
vn -0.833007812 0.526855469 0.167114258
vn -0.94140625 0.321289062 0.101867676
vn -0.470703125 0.567871094 -0.675292969
vn -0.416503906 0.745117188 -0.520996094
vn -0.416503906 0.309082031 0.854980469
vn -0.470703125 0.0750732422 0.87890625
vn -0.94140625 0.321289062 0.101867676
vn -0.833007812 0.526855469 0.167114258
vn 0.416503906 0.309082031 0.854980469
vn 0.470703125 0.0750732422 0.87890625
vn -0.470703125 0.0750732422 0.87890625
vn -0.416503906 0.309082031 0.854980469
vn 0.833007812 0.526855469 0.167114258
vn 0.94140625 0.321289062 0.101867676
vn 0.470703125 0.0750732422 0.87890625
vn 0.416503906 0.309082031 0.854980469
vn 0.416503906 0.745117188 -0.520996094
vn 0.470703125 0.567871094 -0.675292969
vn 0.94140625 0.321289062 0.101867676
vn 0.833007812 0.526855469 0.167114258
vn -0.137329102 0.944335938 0.299316406
vn -0.0686645508 0.979980469 0.185913086
vn -0 0.953125 0.302246094
vn -0.0686645508 0.908203125 0.412597656
vn 0.0686645508 0.979980469 0.185913086
vn 0.0686645508 0.908203125 0.412597656
vn 0.137329102 0.944335938 0.299316406
g ControlPanel_RedBulb_0
f 3/3/3 2/2/2 1/1/1
f 4/4/4 3/3/3 1/1/1
f 5/5/5 3/3/3 4/4/4
f 6/6/6 5/5/5 4/4/4
f 7/7/7 5/5/5 6/6/6
f 8/8/8 7/7/7 6/6/6
f 9/9/9 7/7/7 8/8/8
f 10/10/10 9/9/9 8/8/8
f 11/11/11 9/9/9 10/10/10
f 12/12/12 11/11/11 10/10/10
f 13/13/13 11/11/11 12/12/12
f 14/14/14 13/13/13 12/12/12
f 17/17/17 16/16/16 15/15/15
f 18/18/18 17/17/17 15/15/15
f 21/21/21 20/20/20 19/19/19
f 22/22/22 21/21/21 19/19/19
f 25/25/25 24/24/24 23/23/23
f 26/26/26 25/25/25 23/23/23
f 29/29/29 28/28/28 27/27/27
f 30/30/30 29/29/29 27/27/27
f 33/33/33 32/32/32 31/31/31
f 34/34/34 33/33/33 31/31/31
f 37/37/37 36/36/36 35/35/35
f 38/38/38 37/37/37 35/35/35
f 41/41/41 40/40/40 39/39/39
f 41/41/41 39/39/39 42/42/42
f 41/41/41 43/43/43 40/40/40
f 41/41/41 42/42/42 44/44/44
f 41/41/41 45/45/45 43/43/43
f 41/41/41 44/44/44 45/45/45
