g IS4_MDL_EscenarioPB_MesaRecepcion_1
v 1.35036623 0.354004443 -1.05135012
v 1.35036623 0.397110283 -1.05135012
v 0.854526341 0.397110283 -0.033792723
v 1.35036623 0.354004443 -1.05135012
v 0.854526341 0.397110283 -0.033792723
v 0.854526341 0.344121933 -0.033792723
v 0.84968257 -0.397110283 -0.0271508787
v 0.84968257 0.363886893 -0.0271508787
v 0.0584472641 0.354004443 0.716728508
v 0.84968257 -0.397110283 -0.0271508787
v 0.0584472641 0.354004443 0.716728508
v 0.0584472641 -0.397110283 0.716728508
v 0.0584472641 -0.397110283 0.716728508
v 0.0584472641 0.354004443 0.716728508
v -0.83548826 0.354004443 1.21824944
v -0.83548826 -0.397110283 1.21824944
v -0.703095675 -0.397110283 1.60575926
v -0.703095675 0.344121933 1.60575926
v 0.33039549 0.344121933 1.02596438
v 0.33039549 -0.397110283 1.02596438
v 0.0584472641 0.354004443 0.716728508
v 0.0584472641 0.397110283 0.716728508
v -0.83548826 0.397110283 1.21824944
v -0.83548826 0.354004443 1.21824944
v -0.679487288 0.344121933 1.67488885
v -0.679487288 0.397110283 1.67488885
v 0.378808588 0.397110283 1.08099854
v 0.378808588 0.344121933 1.08099854
v 0.378808588 0.397110283 1.08099854
v -0.679487288 0.397110283 1.67488885
v -0.83548826 0.397110283 1.21824944
v 0.0584472641 0.397110283 0.716728508
v 1.35036623 -0.397110283 -1.05135012
v 1.35036623 0.354004443 -1.05135012
v 0.84968257 0.363886893 -0.0271508787
v 0.84968257 -0.397110283 -0.0271508787
v 0.33039549 -0.397110283 1.02596438
v 0.33039549 0.344121933 1.02596438
v 1.17841792 0.344121933 0.160401613
v 1.17841792 -0.397110283 0.160401613
v 1.35036623 0.354004443 -1.05135012
v 1.35036623 -0.397110283 -1.05135012
v 1.73139644 -0.397110283 -0.979378641
v 1.73240232 0.344885617 -0.979187012
v 0.854526341 0.344121933 -0.033792723
v 0.854526341 0.397110283 -0.033792723
v 0.0584472641 0.397110283 0.716728508
v 0.0584472641 0.354004443 0.716728508
v 0.378808588 0.344121933 1.08099854
v 0.378808588 0.397110283 1.08099854
v 1.24145019 0.397110283 0.190668941
v 1.24145019 0.344121933 0.190668941
v 1.24145019 0.397110283 0.190668941
v 0.378808588 0.397110283 1.08099854
v 0.0584472641 0.397110283 0.716728508
v 0.854526341 0.397110283 -0.033792723
v 1.35036623 0.397110283 -1.05135012
v 1.35036623 0.354004443 -1.05135012
v 1.73240232 0.344885617 -0.979187012
v 1.8034277 0.397110283 -0.965776324
v 1.8034277 0.344121933 -0.965776324
v -0.83548826 -0.397110283 1.21824944
v -0.83548826 0.354004443 1.21824944
v -1.97899413 0.354004443 1.38298821
v -1.97899413 -0.397110283 1.38298821
v -1.96525383 -0.397110283 1.78998291
v -1.96525383 0.344121933 1.78998291
v -0.703095675 0.344121933 1.60575926
v -0.703095675 -0.397110283 1.60575926
v -0.83548826 0.354004443 1.21824944
v -0.83548826 0.397110283 1.21824944
v -1.97899902 0.397110283 1.38298333
v -1.97899413 0.354004443 1.38298821
v -1.96278799 0.344121933 1.86272943
v -1.96278799 0.397110283 1.86272943
v -0.679487288 0.397110283 1.67488885
v -0.679487288 0.344121933 1.67488885
v -0.679487288 0.397110283 1.67488885
v -1.96278799 0.397110283 1.86272943
v -1.97899902 0.397110283 1.38298333
v -0.83548826 0.397110283 1.21824944
v 1.5155859 -0.397110283 -1.86158204
v 1.5155859 0.354004443 -1.86158204
v 1.51794922 0.354004443 -1.6853112
v 1.51794922 -0.397110283 -1.6853112
v 1.90569329 -0.397110283 -1.68310297
v 1.90479982 0.344926775 -1.68310785
v 1.90109372 0.344956189 -1.86254144
v 1.90335929 -0.397110283 -1.86255121
v 1.51794922 0.354004443 -1.6853112
v 1.90479982 0.344926775 -1.68310785
v 1.90569329 -0.397110283 -1.68310297
v 1.51794922 -0.397110283 -1.6853112
v 1.5155859 0.354004443 -1.86158204
v 1.5155859 -0.397110283 -1.86158204
v 1.90335929 -0.397110283 -1.86255121
v 1.90109372 0.344956189 -1.86254144
v 1.5155859 0.354004443 -1.86158204
v 1.5155859 0.397110283 -1.86158204
v 1.51794922 0.397110283 -1.6853112
v 1.51794922 0.354004443 -1.6853112
v 1.97899413 0.344121933 -1.68267572
v 1.97899413 0.397110283 -1.68267572
v 1.97666013 0.397110283 -1.86272943
v 1.97666013 0.344121933 -1.86272943
v 1.97899413 0.397110283 -1.68267572
v 1.97899413 0.344121933 -1.68267572
v 1.90479982 0.344926775 -1.68310785
v 1.51794922 0.397110283 -1.6853112
v 1.51794922 0.354004443 -1.6853112
v 1.97666013 0.397110283 -1.86272943
v 1.97899413 0.397110283 -1.68267572
v 1.51794922 0.397110283 -1.6853112
v 1.5155859 0.397110283 -1.86158204
v 1.5155859 0.397110283 -1.86158204
v 1.5155859 0.354004443 -1.86158204
v 1.90109372 0.344956189 -1.86254144
v 1.97666013 0.397110283 -1.86272943
v 1.97666013 0.344121933 -1.86272943
v 1.24145019 0.397110283 0.190668941
v 1.8034277 0.397110283 -0.965776324
v 1.8034277 0.344121933 -0.965776324
v 1.24145019 0.344121933 0.190668941
v 1.8034277 0.397110283 -0.965776324
v 1.24145019 0.397110283 0.190668941
v 0.854526341 0.397110283 -0.033792723
v 1.35036623 0.397110283 -1.05135012
v 1.17841792 -0.397110283 0.160401613
v 1.17841792 0.344121933 0.160401613
v 1.73240232 0.344885617 -0.979187012
v 1.73139644 -0.397110283 -0.979378641
v -1.96525383 0.344121933 1.78998291
v -1.96278799 0.344121933 1.86272943
v -0.679487288 0.344121933 1.67488885
v -0.703095675 0.344121933 1.60575926
v -0.703095675 0.344121933 1.60575926
v -0.679487288 0.344121933 1.67488885
v 0.378808588 0.344121933 1.08099854
v 0.33039549 0.344121933 1.02596438
v 0.33039549 0.344121933 1.02596438
v 0.378808588 0.344121933 1.08099854
v 1.24145019 0.344121933 0.190668941
v 1.17841792 0.344121933 0.160401613
v 1.17841792 0.344121933 0.160401613
v 1.24145019 0.344121933 0.190668941
v 1.8034277 0.344121933 -0.965776324
v 1.73240232 0.344885617 -0.979187012
v 1.90479982 0.344926775 -1.68310785
v 1.97899413 0.344121933 -1.68267572
v 1.97666013 0.344121933 -1.86272943
v 1.90109372 0.344956189 -1.86254144
vt 0.329589844 0.110412598
vt 0.329589844 0.101196289
vt 0.561035156 0.101196289
vt 0.329589844 0.110412598
vt 0.561035156 0.101196289
vt 0.561035156 0.110412598
vt 0.743164062 0.836425781
vt 0.743164062 0.987792969
vt 0.8828125 0.987792969
vt 0.743164062 0.836425781
vt 0.8828125 0.987792969
vt 0.8828125 0.836425781
vt 0.743164062 0.836425781
vt 0.743164062 0.987792969
vt 0.8828125 0.987792969
vt 0.8828125 0.836425781
vt 0.743164062 0.836425781
vt 0.743164062 0.987792969
vt 0.8828125 0.987792969
vt 0.8828125 0.836425781
vt 0.563964844 0.110412598
vt 0.563964844 0.101196289
vt 0.327148438 0.101196289
vt 0.327148438 0.110412598
vt 0.563964844 0.110168457
vt 0.563964844 0.100952148
vt 0.327148438 0.100952148
vt 0.327148438 0.110168457
vt 0.564941406 0.101074219
vt 0.326904297 0.101074219
vt 0.326904297 0.234130859
vt 0.564941406 0.234130859
vt 0.743164062 0.836425781
vt 0.743164062 0.987792969
vt 0.8828125 0.987792969
vt 0.8828125 0.836425781
vt 0.743164062 0.836425781
vt 0.743164062 0.987792969
vt 0.8828125 0.987792969
vt 0.8828125 0.836425781
vt 0.814453125 0.836425781
vt 0.814453125 0.987792969
vt 0.743164062 0.987792969
vt 0.743164062 0.836425781
vt 0.327148438 0.110412598
vt 0.327148438 0.101196289
vt 0.560058594 0.101196289
vt 0.560058594 0.110412598
vt 0.329589844 0.110168457
vt 0.329589844 0.100952148
vt 0.5625 0.100952148
vt 0.5625 0.110168457
vt 0.326660156 0.101074219
vt 0.560546875 0.101074219
vt 0.560546875 0.234130859
vt 0.326660156 0.234130859
vt 0.329833984 0.110473633
vt 0.329833984 0.101257324
vt 0.485351562 0.101257324
vt 0.513671875 0.110473633
vt 0.513671875 0.101257324
vt 0.743164062 0.836425781
vt 0.743164062 0.987792969
vt 0.8828125 0.987792969
vt 0.8828125 0.836425781
vt 0.743164062 0.836425781
vt 0.743164062 0.987792969
vt 0.8828125 0.987792969
vt 0.8828125 0.836425781
vt 0.570800781 0.110412598
vt 0.570800781 0.101196289
vt 0.320068359 0.101196289
vt 0.320068359 0.110412598
vt 0.570800781 0.110168457
vt 0.570800781 0.100952148
vt 0.320068359 0.100952148
vt 0.320068359 0.110168457
vt 0.571777344 0.101074219
vt 0.320068359 0.101074219
vt 0.320068359 0.234130859
vt 0.571777344 0.234130859
vt 0.743164062 0.836425781
vt 0.743164062 0.987792969
vt 0.8828125 0.987792969
vt 0.8828125 0.836425781
vt 0.743164062 0.836425781
vt 0.743164062 0.987792969
vt 0.8828125 0.987792969
vt 0.8828125 0.836425781
vt 0.743164062 0.987792969
vt 0.812988281 0.987792969
vt 0.812988281 0.836425781
vt 0.743164062 0.836425781
vt 0.743164062 0.836425781
vt 0.743164062 0.987792969
vt 0.8828125 0.987792969
vt 0.8828125 0.836425781
vt 0.570800781 0.110412598
vt 0.570800781 0.101196289
vt 0.320068359 0.101196289
vt 0.320068359 0.110412598
vt 0.570800781 0.110168457
vt 0.570800781 0.100952148
vt 0.320068359 0.100952148
vt 0.320068359 0.110168457
vt 0.471435547 0.100646973
vt 0.471435547 0.109863281
vt 0.487548828 0.109863281
vt 0.570800781 0.100646973
vt 0.570800781 0.109863281
vt 0.571777344 0.101074219
vt 0.320068359 0.101074219
vt 0.320068359 0.234130859
vt 0.571777344 0.234130859
vt 0.570800781 0.110473633
vt 0.570800781 0.101257324
vt 0.48828125 0.101257324
vt 0.471435547 0.110473633
vt 0.471435547 0.101257324
vt 0.328613281 0.100952148
vt 0.560058594 0.100952148
vt 0.560058594 0.110168457
vt 0.328613281 0.110168457
vt 0.328125 0.101074219
vt 0.560546875 0.101074219
vt 0.560546875 0.234130859
vt 0.328125 0.234130859
vt 0.743164062 0.836425781
vt 0.743164062 0.987792969
vt 0.8828125 0.987792969
vt 0.8828125 0.836425781
vt 0.419921875 0.221069336
vt 0.416259766 0.233276367
vt 0.489990234 0.233276367
vt 0.489990234 0.221069336
vt 0.390869141 0.221069336
vt 0.390869141 0.233276367
vt 0.48828125 0.233276367
vt 0.48828125 0.221069336
vt 0.376953125 0.221069336
vt 0.376953125 0.233276367
vt 0.491943359 0.233276367
vt 0.491943359 0.221069336
vt 0.366210938 0.221069336
vt 0.366210938 0.233276367
vt 0.4921875 0.233276367
vt 0.4921875 0.221069336
vt 0.48828125 0.23449707
vt 0.48828125 0.221801758
vt 0.470703125 0.221801758
vt 0.470703125 0.23449707
vn -0.898925781 0 -0.437988281
vn -0.898925781 0 -0.437988281
vn -0.807617188 0 -0.58984375
vn -0.898925781 0 -0.437988281
vn -0.807617188 0 -0.58984375
vn -0.807617188 0 -0.58984375
vn -0.807617188 0 -0.58984375
vn -0.807617188 0 -0.58984375
vn -0.685058594 0 -0.728515625
vn -0.807617188 0 -0.58984375
vn -0.685058594 0 -0.728515625
vn -0.685058594 0 -0.728515625
vn -0.489257812 0 -0.872070312
vn -0.489257812 0 -0.872070312
vn -0.489257812 0 -0.872070312
vn -0.489257812 0 -0.872070312
vn 0.489257812 0 0.872070312
vn 0.489257812 0 0.872070312
vn 0.489257812 0 0.872070312
vn 0.489257812 0 0.872070312
vn -0.489257812 0 -0.872070312
vn -0.489257812 0 -0.872070312
vn -0.489257812 0 -0.872070312
vn -0.489257812 0 -0.872070312
vn 0.489501953 0 0.872070312
vn 0.489501953 0 0.872070312
vn 0.489501953 0 0.872070312
vn 0.489501953 0 0.872070312
vn -0 1 0
vn -0 1 0
vn -0 1 0
vn -0 1 0
vn -0.8984375 0 -0.439208984
vn -0.8984375 0 -0.439208984
vn -0.807617188 0 -0.58984375
vn -0.807617188 0 -0.58984375
vn 0.714355469 0 0.699707031
vn 0.714355469 0 0.699707031
vn 0.819824219 -0.000345230103 0.572753906
vn 0.819824219 -0.000345230103 0.572753906
vn 0.185546875 1.07288361E-06 -0.982421875
vn 0.185546875 1.07288361E-06 -0.982421875
vn 0.185546875 1.07288361E-06 -0.982421875
vn 0.185546875 1.07288361E-06 -0.982421875
vn -0.807617188 0 -0.58984375
vn -0.807617188 0 -0.58984375
vn -0.686035156 0 -0.727539062
vn -0.686035156 0 -0.727539062
vn 0.718261719 0 0.695800781
vn 0.718261719 0 0.695800781
vn 0.820800781 0 0.571289062
vn 0.820800781 0 0.571289062
vn -0 1 0
vn -0 1 0
vn -0 1 0
vn -0 1 0
vn 0.185546875 -5.0842762E-05 -0.982421875
vn 0.185546875 -5.0842762E-05 -0.982421875
vn 0.185546875 -4.96506691E-05 -0.982421875
vn 0.185546875 -4.45246696E-05 -0.982421875
vn 0.185546875 0 -0.982421875
vn -0.142578125 0 -0.989746094
vn -0.142578125 0 -0.989746094
vn -0.142578125 0 -0.989746094
vn -0.142578125 0 -0.989746094
vn 0.14440918 0 0.989746094
vn 0.14440918 0 0.989746094
vn 0.14440918 0 0.989746094
vn 0.14440918 0 0.989746094
vn -0.142578125 -6.41942024E-05 -0.989746094
vn -0.142578125 -6.41942024E-05 -0.989746094
vn -0.142578125 -6.41942024E-05 -0.989746094
vn -0.142578125 -6.41942024E-05 -0.989746094
vn 0.144775391 0 0.989257812
vn 0.144775391 0 0.989257812
vn 0.144775391 0 0.989257812
vn 0.144775391 0 0.989257812
vn -0 1 0
vn -0 1 0
vn -0 1 0
vn -0 1 0
vn -1 0 0.0134048462
vn -1 0 0.0134048462
vn -1 0 0.0134048462
vn -1 0 0.0134048462
vn 1 0.00212860107 -0.0168304443
vn 1 0.00212860107 -0.0168304443
vn 1 0.00212860107 -0.0168304443
vn 1 0.00212860107 -0.0168304443
vn -0.00569534302 -1.1920929E-07 1
vn -0.00569534302 -1.1920929E-07 1
vn -0.00569534302 -1.1920929E-07 1
vn -0.00569534302 -1.1920929E-07 1
vn -0.00249481201 2.74181366E-06 -1
vn -0.00249481201 2.74181366E-06 -1
vn -0.00249481201 2.74181366E-06 -1
vn -0.00249481201 2.74181366E-06 -1
vn -1 0 0.0134048462
vn -1 0 0.0134048462
vn -1 0 0.0134048462
vn -1 0 0.0134048462
vn 1 0 -0.0129623413
vn 1 0 -0.0129623413
vn 1 0 -0.0129623413
vn 1 0 -0.0129623413
vn -0.0057220459 -7.87377357E-05 1
vn -0.00582504272 0 1
vn -0.00571060181 -8.85128975E-05 1
vn -0.00570678711 -9.06586647E-05 1
vn -0.00570678711 -9.06586647E-05 1
vn -0 1 0
vn -0 1 0
vn -0 1 0
vn -0 1 0
vn -0.00248908997 8.34465027E-07 -1
vn -0.00248908997 8.34465027E-07 -1
vn -0.00248908997 7.74860382E-07 -1
vn -0.00248908997 7.15255737E-07 -1
vn -0.00248718262 0 -1
vn 0.820800781 0 0.571289062
vn 0.899414062 0 0.437011719
vn 0.899414062 0 0.437011719
vn 0.820800781 0 0.571289062
vn -0 1 0
vn -0 1 0
vn -0 1 0
vn -0 1 0
vn 0.819824219 -0.000345230103 0.572753906
vn 0.819824219 -0.000345230103 0.572753906
vn 0.899414062 -0.000666618347 0.436767578
vn 0.899414062 -0.000666618347 0.436767578
vn -0 -1 0
vn -0 -1 0
vn -0 -1 0
vn -0 -1 0
vn -0 -1 0
vn -0 -1 0
vn -0 -1 0
vn -0 -1 0
vn -0 -1 2.38418579E-07
vn -0 -1 2.38418579E-07
vn -0 -1 2.38418579E-07
vn -0 -1 2.38418579E-07
vn -0.00482559204 -1 -0.00267791748
vn -0.00482559204 -1 -0.00267791748
vn -0.00482559204 -1 -0.00267791748
vn -0.00482559204 -1 -0.00267791748
vn -0.0109481812 -1 0.000102162361
vn -0.0109481812 -1 0.000102162361
vn -0.0109481812 -1 0.000102162361
vn -0.0109481812 -1 0.000102162361
g IS4_MDL_EscenarioPB_MesaRecepcion_1_0
f 3/3/3 2/2/2 1/1/1
f 6/6/6 5/5/5 4/4/4
f 9/9/9 8/8/8 7/7/7
f 12/12/12 11/11/11 10/10/10
f 15/15/15 14/14/14 13/13/13
f 16/16/16 15/15/15 13/13/13
f 19/19/19 18/18/18 17/17/17
f 20/20/20 19/19/19 17/17/17
f 23/23/23 22/22/22 21/21/21
f 24/24/24 23/23/23 21/21/21
f 27/27/27 26/26/26 25/25/25
f 28/28/28 27/27/27 25/25/25
f 31/31/31 30/30/30 29/29/29
f 32/32/32 31/31/31 29/29/29
f 35/35/35 34/34/34 33/33/33
f 36/36/36 35/35/35 33/33/33
f 39/39/39 38/38/38 37/37/37
f 40/40/40 39/39/39 37/37/37
f 43/43/43 42/42/42 41/41/41
f 44/44/44 43/43/43 41/41/41
f 47/47/47 46/46/46 45/45/45
f 48/48/48 47/47/47 45/45/45
f 51/51/51 50/50/50 49/49/49
f 52/52/52 51/51/51 49/49/49
f 55/55/55 54/54/54 53/53/53
f 56/56/56 55/55/55 53/53/53
f 59/59/59 58/58/58 57/57/57
f 60/60/60 59/59/59 57/57/57
f 60/60/60 61/61/61 59/59/59
f 64/64/64 63/63/63 62/62/62
f 65/65/65 64/64/64 62/62/62
f 68/68/68 67/67/67 66/66/66
f 69/69/69 68/68/68 66/66/66
f 72/72/72 71/71/71 70/70/70
f 73/73/73 72/72/72 70/70/70
f 76/76/76 75/75/75 74/74/74
f 77/77/77 76/76/76 74/74/74
f 80/80/80 79/79/79 78/78/78
f 81/81/81 80/80/80 78/78/78
f 84/84/84 83/83/83 82/82/82
f 85/85/85 84/84/84 82/82/82
f 88/88/88 87/87/87 86/86/86
f 89/89/89 88/88/88 86/86/86
f 92/92/92 91/91/91 90/90/90
f 93/93/93 92/92/92 90/90/90
f 96/96/96 95/95/95 94/94/94
f 97/97/97 96/96/96 94/94/94
f 100/100/100 99/99/99 98/98/98
f 101/101/101 100/100/100 98/98/98
f 104/104/104 103/103/103 102/102/102
f 105/105/105 104/104/104 102/102/102
f 108/108/108 107/107/107 106/106/106
f 108/108/108 106/106/106 109/109/109
f 110/110/110 108/108/108 109/109/109
f 113/113/113 112/112/112 111/111/111
f 114/114/114 113/113/113 111/111/111
f 117/117/117 116/116/116 115/115/115
f 118/118/118 117/117/117 115/115/115
f 118/118/118 119/119/119 117/117/117
f 122/122/122 121/121/121 120/120/120
f 123/123/123 122/122/122 120/120/120
f 126/126/126 125/125/125 124/124/124
f 127/127/127 126/126/126 124/124/124
f 130/130/130 129/129/129 128/128/128
f 131/131/131 130/130/130 128/128/128
f 134/134/134 133/133/133 132/132/132
f 135/135/135 134/134/134 132/132/132
f 138/138/138 137/137/137 136/136/136
f 139/139/139 138/138/138 136/136/136
f 142/142/142 141/141/141 140/140/140
f 143/143/143 142/142/142 140/140/140
f 146/146/146 145/145/145 144/144/144
f 147/147/147 146/146/146 144/144/144
f 150/150/150 149/149/149 148/148/148
f 151/151/151 150/150/150 148/148/148
