g HydroelectricPlant_Ceiling_2
v 31.0519638 7.71231604 1.75131023
v 33.5519638 7.71231604 1.75131023
v 33.5519638 7.71231604 -0.748689711
v 31.0519638 7.71231604 -0.748689711
v 33.5519638 7.71231604 1.75131023
v 36.0519638 7.71231604 1.75131023
v 36.0519638 7.71231604 -0.748689711
v 33.5519638 7.71231604 -0.748689711
v 31.0519638 7.71231604 -0.748689711
v 33.5519638 7.71231604 -0.748689711
v 33.5519638 7.71231604 -3.24868941
v 31.0519638 7.71231604 -3.24868941
v 33.5519638 7.71231604 -0.748689711
v 36.0519638 7.71231604 -0.748689711
v 36.0519638 7.71231604 -3.24868941
v 33.5519638 7.71231604 -3.24868941
vt 0.258056641 0.00944519043
vt 0.491455078 0.00944519043
vt 0.491455078 0.244628906
vt 0.258056641 0.244628906
vt 0.258056641 0.00944519043
vt 0.491455078 0.00944519043
vt 0.491455078 0.244628906
vt 0.258056641 0.244628906
vt 0.258056641 0.00944519043
vt 0.491455078 0.00944519043
vt 0.491455078 0.244628906
vt 0.258056641 0.244628906
vt 0.258056641 0.00944519043
vt 0.491455078 0.00944519043
vt 0.491455078 0.244628906
vt 0.258056641 0.244628906
vn -0 -1 0
vn -0 -1 0
vn -0 -1 0
vn -0 -1 0
vn -0 -1 0
vn -0 -1 0
vn -0 -1 0
vn -0 -1 0
vn -0 -1 0
vn -0 -1 0
vn -0 -1 0
vn -0 -1 0
vn -0 -1 0
vn -0 -1 0
vn -0 -1 0
vn -0 -1 0
g HydroelectricPlant_Ceiling_2_0
f 3/3/3 2/2/2 1/1/1
f 4/4/4 3/3/3 1/1/1
f 7/7/7 6/6/6 5/5/5
f 8/8/8 7/7/7 5/5/5
f 11/11/11 10/10/10 9/9/9
f 12/12/12 11/11/11 9/9/9
f 15/15/15 14/14/14 13/13/13
f 16/16/16 15/15/15 13/13/13
