g ModularPipesA_MediumConnector
v 0.0313012674 -0.0207916256 -0.0542152375
v 0.0313012674 0.0207958985 -0.0542152375
v -0.0312988274 0.0207958985 -0.0542152375
v -0.0312988274 -0.0207916256 -0.0542152375
v -0.0312988274 -0.0207916256 -0.0542152375
v -0.0312988274 0.0207958985 -0.0542152375
v -0.0626049787 0.0207958985 -3.05175774E-07
v -0.0626049787 -0.0207916256 -3.05175774E-07
v -0.0626049787 -0.0207916256 -3.05175774E-07
v -0.0626049787 0.0207958985 -3.05175774E-07
v -0.0312988274 0.0207958985 0.0542149357
v -0.0312988274 -0.0207916256 0.0542149357
v -0.0312988274 -0.0207916256 0.0542149357
v -0.0312988274 0.0207958985 0.0542149357
v 0.0313012674 0.0207958985 0.0542149357
v 0.0313012674 -0.0207916256 0.0542149357
v 0.0313012674 -0.0207916256 0.0542149357
v 0.0313012674 0.0207958985 0.0542149357
v 0.0626049787 0.0207958985 -3.05175774E-07
v 0.0626049787 -0.0207916256 -3.05175774E-07
v 0.0626049787 -0.0207916256 -3.05175774E-07
v 0.0626049787 0.0207958985 -3.05175774E-07
v 0.0313012674 0.0207958985 -0.0542152375
v 0.0313012674 -0.0207916256 -0.0542152375
v -0.0626049787 -0.0207916256 -3.05175774E-07
v -0.0499853492 -0.0207916256 -3.05175774E-07
v -0.0249902345 -0.0207916256 -0.0432890318
v -0.0312988274 -0.0207916256 -0.0542152375
v 0.0249926746 -0.0207916256 -0.0432890318
v 0.0313012674 -0.0207916256 -0.0542152375
v 0.0499853492 -0.0207916256 -3.05175774E-07
v 0.0626049787 -0.0207916256 -3.05175774E-07
v 0.0249926746 -0.0207916256 0.0432887264
v 0.0313012674 -0.0207916256 0.0542149357
v -0.0249902345 -0.0207916256 0.0432887264
v -0.0312988274 -0.0207916256 0.0542149357
v -0.0499853492 -0.0207916256 -3.05175774E-07
v -0.0626049787 -0.0207916256 -3.05175774E-07
v -0.0312988274 0.0207958985 -0.0542152375
v -0.0499853492 0.0207958985 -3.05175774E-07
v -0.0626049787 0.0207958985 -3.05175774E-07
v -0.0249902345 0.0207958985 -0.0432890318
v 0.0313012674 0.0207958985 -0.0542152375
v 0.0249926746 0.0207958985 -0.0432890318
v 0.0626049787 0.0207958985 -3.05175774E-07
v 0.0499853492 0.0207958985 -3.05175774E-07
v 0.0313012674 0.0207958985 0.0542149357
v 0.0249926746 0.0207958985 0.0432887264
v -0.0312988274 0.0207958985 0.0542149357
v -0.0249902345 0.0207958985 0.0432887264
v -0.0626049787 0.0207958985 -3.05175774E-07
v -0.0499853492 0.0207958985 -3.05175774E-07
v -0.0249902345 -0.0207916256 -0.0432890318
v -0.0249902345 -0.0383276343 -0.0432890318
v 0.0249926746 -0.0383276343 -0.0432890318
v 0.0249926746 -0.0207916256 -0.0432890318
v -0.0499853492 -0.0207916256 -3.05175774E-07
v -0.0499853492 -0.0383276343 -3.05175774E-07
v -0.0249902345 -0.0383276343 -0.0432890318
v -0.0249902345 -0.0207916256 -0.0432890318
v -0.0249902345 -0.0207916256 0.0432887264
v -0.0249902345 -0.0383276343 0.0432882681
v -0.0499853492 -0.0383276343 -3.05175774E-07
v -0.0499853492 -0.0207916256 -3.05175774E-07
v 0.0249926746 -0.0207916256 0.0432887264
v 0.0249926746 -0.0383276343 0.0432882681
v -0.0249902345 -0.0383276343 0.0432882681
v -0.0249902345 -0.0207916256 0.0432887264
v 0.0499853492 -0.0207916256 -3.05175774E-07
v 0.0499853492 -0.0383276343 -3.05175774E-07
v 0.0249926746 -0.0383276343 0.0432882681
v 0.0249926746 -0.0207916256 0.0432887264
v 0.0249926746 -0.0207916256 -0.0432890318
v 0.0249926746 -0.0383276343 -0.0432890318
v 0.0499853492 -0.0383276343 -3.05175774E-07
v 0.0499853492 -0.0207916256 -3.05175774E-07
v 0.0249926746 0.0207958985 -0.0432890318
v 0.0249926746 0.0383282453 -0.0432890318
v -0.0249902345 0.0383282453 -0.0432890318
v -0.0249902345 0.0207958985 -0.0432890318
v -0.0249902345 0.0207958985 -0.0432890318
v -0.0249902345 0.0383282453 -0.0432890318
v -0.0499853492 0.0383282453 -3.05175774E-07
v -0.0499853492 0.0207958985 -3.05175774E-07
v -0.0499853492 0.0207958985 -3.05175774E-07
v -0.0499853492 0.0383282453 -3.05175774E-07
v -0.0249902345 0.0383282453 0.0432882681
v -0.0249902345 0.0207958985 0.0432887264
v -0.0249902345 0.0207958985 0.0432887264
v -0.0249902345 0.0383282453 0.0432882681
v 0.0249926746 0.0383282453 0.0432882681
v 0.0249926746 0.0207958985 0.0432887264
v 0.0249926746 0.0207958985 0.0432887264
v 0.0249926746 0.0383282453 0.0432882681
v 0.0499853492 0.0383282453 -3.05175774E-07
v 0.0499853492 0.0207958985 -3.05175774E-07
v 0.0499853492 0.0207958985 -3.05175774E-07
v 0.0499853492 0.0383282453 -3.05175774E-07
v 0.0249926746 0.0383282453 -0.0432890318
v 0.0249926746 0.0207958985 -0.0432890318
v 0.0499853492 -0.0383276343 -3.05175774E-07
v -0 -0.0383276343 -4.57763662E-07
v 0.0249926746 -0.0383276343 0.0432882681
v 0.0249926746 -0.0383276343 -0.0432890318
v -0.0249902345 -0.0383276343 0.0432882681
v -0.0249902345 -0.0383276343 -0.0432890318
v -0.0499853492 -0.0383276343 -3.05175774E-07
v 0.0249926746 0.0383282453 0.0432882681
v -0 0.0383282453 -4.57763662E-07
v 0.0499853492 0.0383282453 -3.05175774E-07
v -0.0249902345 0.0383282453 0.0432882681
v 0.0249926746 0.0383282453 -0.0432890318
v -0.0499853492 0.0383282453 -3.05175774E-07
v -0.0249902345 0.0383282453 -0.0432890318
vt 0.903808594 0.399902344
vt 0.903808594 0.415039062
vt 0.920898438 0.415039062
vt 0.920898438 0.399902344
vt 0.920898438 0.399902344
vt 0.920898438 0.415039062
vt 0.937988281 0.415039062
vt 0.937988281 0.399902344
vt 0.8359375 0.399902344
vt 0.8359375 0.415039062
vt 0.853027344 0.415039062
vt 0.853027344 0.399902344
vt 0.853027344 0.399902344
vt 0.853027344 0.415039062
vt 0.870117188 0.415039062
vt 0.870117188 0.399902344
vt 0.870117188 0.399902344
vt 0.870117188 0.415039062
vt 0.88671875 0.415039062
vt 0.88671875 0.399902344
vt 0.88671875 0.399902344
vt 0.88671875 0.415039062
vt 0.903808594 0.415039062
vt 0.903808594 0.399902344
vt 0.937988281 0.401123047
vt 0.937988281 0.397705078
vt 0.920898438 0.397705078
vt 0.920898438 0.401123047
vt 0.903808594 0.397705078
vt 0.903808594 0.401123047
vt 0.88671875 0.397705078
vt 0.88671875 0.401123047
vt 0.870117188 0.397705078
vt 0.870117188 0.401123047
vt 0.853027344 0.397705078
vt 0.853027344 0.401123047
vt 0.8359375 0.397705078
vt 0.8359375 0.401123047
vt 0.920898438 0.411621094
vt 0.937988281 0.414794922
vt 0.937988281 0.411621094
vt 0.920898438 0.414794922
vt 0.903808594 0.411621094
vt 0.903808594 0.414794922
vt 0.88671875 0.411621094
vt 0.88671875 0.414794922
vt 0.870117188 0.411621094
vt 0.870117188 0.414794922
vt 0.853027344 0.411621094
vt 0.853027344 0.414794922
vt 0.8359375 0.411621094
vt 0.8359375 0.414794922
vt 0.920898438 0.397705078
vt 0.920898438 0.393310547
vt 0.903808594 0.393310547
vt 0.903808594 0.397705078
vt 0.937988281 0.397705078
vt 0.937988281 0.393310547
vt 0.920898438 0.393310547
vt 0.920898438 0.397705078
vt 0.853027344 0.397705078
vt 0.853027344 0.393310547
vt 0.8359375 0.393310547
vt 0.8359375 0.397705078
vt 0.870117188 0.397705078
vt 0.870117188 0.393310547
vt 0.853027344 0.393310547
vt 0.853027344 0.397705078
vt 0.88671875 0.397705078
vt 0.88671875 0.393310547
vt 0.870117188 0.393310547
vt 0.870117188 0.397705078
vt 0.903808594 0.397705078
vt 0.903808594 0.393310547
vt 0.88671875 0.393310547
vt 0.88671875 0.397705078
vt 0.903808594 0.414794922
vt 0.903808594 0.418457031
vt 0.920898438 0.418457031
vt 0.920898438 0.414794922
vt 0.920898438 0.414794922
vt 0.920898438 0.418457031
vt 0.937988281 0.418457031
vt 0.937988281 0.414794922
vt 0.8359375 0.414794922
vt 0.8359375 0.418457031
vt 0.853027344 0.418457031
vt 0.853027344 0.414794922
vt 0.853027344 0.414794922
vt 0.853027344 0.418457031
vt 0.870117188 0.418457031
vt 0.870117188 0.414794922
vt 0.870117188 0.414794922
vt 0.870117188 0.418457031
vt 0.88671875 0.418457031
vt 0.88671875 0.414794922
vt 0.88671875 0.414794922
vt 0.88671875 0.418457031
vt 0.903808594 0.418457031
vt 0.903808594 0.414794922
vt 0.832519531 0.385009766
vt 0.847167969 0.376708984
vt 0.832519531 0.368164062
vt 0.847167969 0.393310547
vt 0.847167969 0.359619141
vt 0.861328125 0.385009766
vt 0.861328125 0.368164062
vt 0.861328125 0.368164062
vt 0.847167969 0.376708984
vt 0.861328125 0.385009766
vt 0.847167969 0.359619141
vt 0.847167969 0.393310547
vt 0.832519531 0.368164062
vt 0.832519531 0.385009766
vn 0.5 0 -0.866210938
vn 0.5 0 -0.866210938
vn -0.5 0 -0.866210938
vn -0.5 0 -0.866210938
vn -0.5 0 -0.866210938
vn -0.5 0 -0.866210938
vn -1 0 0
vn -1 0 0
vn -1 0 0
vn -1 0 0
vn -0.5 0 0.866210938
vn -0.5 0 0.866210938
vn -0.5 0 0.866210938
vn -0.5 0 0.866210938
vn 0.5 0 0.866210938
vn 0.5 0 0.866210938
vn 0.5 0 0.866210938
vn 0.5 0 0.866210938
vn 1 0 0
vn 1 0 0
vn 1 0 0
vn 1 0 0
vn 0.5 0 -0.866210938
vn 0.5 0 -0.866210938
vn -0 -1 0
vn -0 -1 0
vn -0 -1 0
vn -0 -1 0
vn -0 -1 0
vn -0 -1 0
vn -0 -1 0
vn -0 -1 0
vn -0 -1 0
vn -0 -1 0
vn -0 -1 0
vn -0 -1 0
vn -0 -1 0
vn -0 -1 0
vn -0 1 0
vn -0 1 0
vn -0 1 0
vn -0 1 0
vn -0 1 0
vn -0 1 0
vn -0 1 0
vn -0 1 0
vn -0 1 0
vn -0 1 0
vn -0 1 0
vn -0 1 0
vn -0 1 0
vn -0 1 0
vn -0.5 0 -0.866210938
vn -0.5 0 -0.866210938
vn 0.5 0 -0.866210938
vn 0.5 0 -0.866210938
vn -1 -3.75509262E-06 0
vn -1 -3.75509262E-06 0
vn -0.5 0 -0.866210938
vn -0.5 0 -0.866210938
vn -0.5 -1.88350677E-05 0.866210938
vn -0.5 -1.88350677E-05 0.866210938
vn -1 -3.75509262E-06 0
vn -1 -3.75509262E-06 0
vn 0.5 -1.88350677E-05 0.866210938
vn 0.5 -1.88350677E-05 0.866210938
vn -0.5 -1.88350677E-05 0.866210938
vn -0.5 -1.88350677E-05 0.866210938
vn 1 -3.75509262E-06 0
vn 1 -3.75509262E-06 0
vn 0.5 -1.88350677E-05 0.866210938
vn 0.5 -1.88350677E-05 0.866210938
vn 0.5 0 -0.866210938
vn 0.5 0 -0.866210938
vn 1 -3.75509262E-06 0
vn 1 -3.75509262E-06 0
vn 0.5 0 -0.866210938
vn 0.5 0 -0.866210938
vn -0.5 0 -0.866210938
vn -0.5 0 -0.866210938
vn -0.5 0 -0.866210938
vn -0.5 0 -0.866210938
vn -1 3.75509262E-06 0
vn -1 3.75509262E-06 0
vn -1 3.75509262E-06 0
vn -1 3.75509262E-06 0
vn -0.5 1.88350677E-05 0.866210938
vn -0.5 1.88350677E-05 0.866210938
vn -0.5 1.88350677E-05 0.866210938
vn -0.5 1.88350677E-05 0.866210938
vn 0.5 1.88350677E-05 0.866210938
vn 0.5 1.88350677E-05 0.866210938
vn 0.5 1.88350677E-05 0.866210938
vn 0.5 1.88350677E-05 0.866210938
vn 1 3.75509262E-06 0
vn 1 3.75509262E-06 0
vn 1 3.75509262E-06 0
vn 1 3.75509262E-06 0
vn 0.5 0 -0.866210938
vn 0.5 0 -0.866210938
vn -0 -1 0
vn -0 -1 0
vn -0 -1 0
vn -0 -1 0
vn -0 -1 0
vn -0 -1 0
vn -0 -1 0
vn -0 1 0
vn -0 1 0
vn -0 1 0
vn -0 1 0
vn -0 1 0
vn -0 1 0
vn -0 1 0
g ModularPipesA_MediumConnector_0
f 3/3/3 2/2/2 1/1/1
f 4/4/4 3/3/3 1/1/1
f 7/7/7 6/6/6 5/5/5
f 8/8/8 7/7/7 5/5/5
f 11/11/11 10/10/10 9/9/9
f 12/12/12 11/11/11 9/9/9
f 15/15/15 14/14/14 13/13/13
f 16/16/16 15/15/15 13/13/13
f 19/19/19 18/18/18 17/17/17
f 20/20/20 19/19/19 17/17/17
f 23/23/23 22/22/22 21/21/21
f 24/24/24 23/23/23 21/21/21
f 27/27/27 26/26/26 25/25/25
f 28/28/28 27/27/27 25/25/25
f 29/29/29 27/27/27 28/28/28
f 30/30/30 29/29/29 28/28/28
f 31/31/31 29/29/29 30/30/30
f 32/32/32 31/31/31 30/30/30
f 33/33/33 31/31/31 32/32/32
f 34/34/34 33/33/33 32/32/32
f 35/35/35 33/33/33 34/34/34
f 36/36/36 35/35/35 34/34/34
f 37/37/37 35/35/35 36/36/36
f 38/38/38 37/37/37 36/36/36
f 41/41/41 40/40/40 39/39/39
f 40/40/40 42/42/42 39/39/39
f 39/39/39 42/42/42 43/43/43
f 42/42/42 44/44/44 43/43/43
f 43/43/43 44/44/44 45/45/45
f 44/44/44 46/46/46 45/45/45
f 45/45/45 46/46/46 47/47/47
f 46/46/46 48/48/48 47/47/47
f 47/47/47 48/48/48 49/49/49
f 48/48/48 50/50/50 49/49/49
f 49/49/49 50/50/50 51/51/51
f 50/50/50 52/52/52 51/51/51
f 55/55/55 54/54/54 53/53/53
f 56/56/56 55/55/55 53/53/53
f 59/59/59 58/58/58 57/57/57
f 60/60/60 59/59/59 57/57/57
f 63/63/63 62/62/62 61/61/61
f 64/64/64 63/63/63 61/61/61
f 67/67/67 66/66/66 65/65/65
f 68/68/68 67/67/67 65/65/65
f 71/71/71 70/70/70 69/69/69
f 72/72/72 71/71/71 69/69/69
f 75/75/75 74/74/74 73/73/73
f 76/76/76 75/75/75 73/73/73
f 79/79/79 78/78/78 77/77/77
f 80/80/80 79/79/79 77/77/77
f 83/83/83 82/82/82 81/81/81
f 84/84/84 83/83/83 81/81/81
f 87/87/87 86/86/86 85/85/85
f 88/88/88 87/87/87 85/85/85
f 91/91/91 90/90/90 89/89/89
f 92/92/92 91/91/91 89/89/89
f 95/95/95 94/94/94 93/93/93
f 96/96/96 95/95/95 93/93/93
f 99/99/99 98/98/98 97/97/97
f 100/100/100 99/99/99 97/97/97
f 103/103/103 102/102/102 101/101/101
f 101/101/101 102/102/102 104/104/104
f 105/105/105 102/102/102 103/103/103
f 104/104/104 102/102/102 106/106/106
f 107/107/107 102/102/102 105/105/105
f 106/106/106 102/102/102 107/107/107
f 110/110/110 109/109/109 108/108/108
f 108/108/108 109/109/109 111/111/111
f 112/112/112 109/109/109 110/110/110
f 111/111/111 109/109/109 113/113/113
f 114/114/114 109/109/109 112/112/112
f 113/113/113 109/109/109 114/114/114
