g FrankenBoris_TVScreen_2_Off
v 0.713145435 2.20024705 0.188098595
v 0.450518727 2.26718998 0.21545364
v 0.437667161 2.29306149 0.208033293
v 0.688399494 2.18704319 0.198240206
v 0.614515126 1.91121209 0.170843661
v 0.364710838 2.0157311 0.200442046
v 0.339036703 2.00402641 0.190778345
v 0.602591693 1.93558443 0.183228299
vt 0.842962801 0.547845244
vt 0.762754917 0.542440832
vt 0.756417692 0.54788506
vt 0.836580575 0.542440832
vt 0.842913747 0.47031486
vt 0.76275146 0.475759089
vt 0.756369412 0.470354646
vt 0.836576521 0.47575897
vn 0.346656561 0.0688019171 0.935465395
vn 0.0146389967 -0.01451403 0.999787509
vn -0.110607184 0.222863361 0.968554616
vn 0.109063834 -0.0463276766 0.992954671
vn 0.198619738 -0.365017951 0.909566998
vn -0.0159305651 -0.104097679 0.994439483
vn -0.258644015 -0.210956499 0.942656219
vn 0.0784942508 -0.135911345 0.987606585
g FrankenBoris_TVScreen_2_Off_0
f 3/3/3 2/2/2 1/1/1
f 2/2/2 4/4/4 1/1/1
f 1/1/1 4/4/4 5/5/5
f 6/6/6 2/2/2 3/3/3
f 4/4/4 2/2/2 6/6/6
f 7/7/7 6/6/6 3/3/3
f 5/5/5 8/8/8 7/7/7
f 4/4/4 8/8/8 5/5/5
f 8/8/8 4/4/4 6/6/6
f 8/8/8 6/6/6 7/7/7
