g IS4_MiniRod_Calidad_Boli
v -0.0594415031 -0.0363294557 0.00323252077
v -0.0892883539 -0.0458128676 0.0159757938
v -0.0568106249 -0.0394140184 0.00909081753
v -0.0628266335 -0.0302155633 0.00184580218
v -0.0649827421 -0.0246542692 0.00574286794
v -0.0646465048 -0.0229042377 0.0126407184
v -0.0620156266 -0.0259888787 0.0184990242
v -0.0586305 -0.0321028456 0.019885743
v -0.0564743876 -0.0376639888 0.0159886871
v -0.0568106249 -0.0394140184 0.00909081753
v -0.0564743876 -0.0376639888 0.0159886871
v 0.0894161686 0.0356132165 -0.0170725975
v -0.0568106249 -0.0394140184 0.00909081753
v 0.0897524059 0.0373633243 -0.0101747382
v 0.0875962898 0.042924542 -0.00627768133
v -0.0586305 -0.0321028456 0.019885743
v 0.0842111632 0.0490385108 -0.00766439084
v -0.0620156266 -0.0259888787 0.0184990242
v -0.0646465048 -0.0229042377 0.0126407184
v 0.0815802813 0.052123148 -0.0135227069
v -0.0649827421 -0.0246542692 0.00574286794
v 0.081244044 0.0503730439 -0.020420555
v 0.0834001526 0.0448118262 -0.0243176222
v -0.0628266335 -0.0302155633 0.00184580218
v 0.0867852867 0.0386978574 -0.0229309127
v -0.0594415031 -0.0363294557 0.00323252077
v -0.0568106249 -0.0394140184 0.00909081753
v 0.0894161686 0.0356132165 -0.0170725975
v 0.0875962898 0.042924542 -0.00627768133
v 0.0842111632 0.0490385108 -0.00766439084
v 0.0892883539 0.0458128788 -0.0159757957
v 0.0897524059 0.0373633243 -0.0101747382
v 0.0815802813 0.052123148 -0.0135227069
v 0.0894161686 0.0356132165 -0.0170725975
v 0.081244044 0.0503730439 -0.020420555
v 0.0867852867 0.0386978574 -0.0229309127
v 0.0834001526 0.0448118262 -0.0243176222
vt 0.00942993164 0.608398438
vt 0.0224914551 0.595214844
vt 0.00603103638 0.603515625
vt 0.014175415 0.611816406
vt 0.0197753906 0.61328125
vt 0.0256500244 0.61328125
vt 0.0312042236 0.611328125
vt 0.0358581543 0.607910156
vt 0.0391540527 0.603027344
vt 0.0407104492 0.597167969
vt 0.0458374023 0.444335938
vt 0.0513916016 0.583496094
vt 0.0513916016 0.444335938
vt 0.0458374023 0.583496094
vt 0.0402832031 0.583496094
vt 0.0402832031 0.444335938
vt 0.0347290039 0.583496094
vt 0.0347290039 0.444335938
vt 0.0291595459 0.444335938
vt 0.0291595459 0.583496094
vt 0.0236053467 0.444335938
vt 0.0236053467 0.583496094
vt 0.0180511475 0.583496094
vt 0.0180511475 0.444335938
vt 0.0124969482 0.583496094
vt 0.0124969482 0.444335938
vt 0.00694274902 0.444335938
vt 0.00694274902 0.583496094
vt 0.00609207153 0.635253906
vt 0.00968170166 0.644042969
vt 0.0183563232 0.635253906
vt 0.00968170166 0.626464844
vt 0.0183563232 0.647460938
vt 0.0183563232 0.623046875
vt 0.0270233154 0.644042969
vt 0.0270233154 0.626464844
vt 0.0306243896 0.635253906
vn 0.117248535 -0.565917969 -0.815917969
vn -0.878417969 -0.450927734 0.157226562
vn 0.399902344 -0.897460938 -0.186889648
vn -0.246337891 0.0905761719 -0.96484375
vn -0.477783203 0.687988281 -0.546386719
vn -0.441894531 0.875976562 0.194335938
vn -0.159179688 0.544433594 0.823730469
vn 0.204345703 -0.112121582 0.97265625
vn 0.435791016 -0.709472656 0.553710938
vn 0.399902344 -0.897460938 -0.186889648
vn 0.435791016 -0.709472656 0.553710938
vn 0.439697266 -0.876953125 -0.193969727
vn 0.399902344 -0.897460938 -0.186889648
vn 0.475830078 -0.688964844 0.546875
vn 0.244140625 -0.0916748047 0.965332031
vn 0.204345703 -0.112121582 0.97265625
vn -0.119384766 0.564941406 0.81640625
vn -0.159179688 0.544433594 0.823730469
vn -0.441894531 0.875976562 0.194335938
vn -0.401855469 0.896484375 0.187255859
vn -0.477783203 0.687988281 -0.546386719
vn -0.437988281 0.708496094 -0.553710938
vn -0.206542969 0.111022949 -0.972167969
vn -0.246337891 0.0905761719 -0.96484375
vn 0.157104492 -0.545410156 -0.823242188
vn 0.117248535 -0.565917969 -0.815917969
vn 0.399902344 -0.897460938 -0.186889648
vn 0.439697266 -0.876953125 -0.193969727
vn 0.244140625 -0.0916748047 0.965332031
vn -0.119384766 0.564941406 0.81640625
vn 0.878417969 0.450927734 -0.157226562
vn 0.475830078 -0.688964844 0.546875
vn -0.401855469 0.896484375 0.187255859
vn 0.439697266 -0.876953125 -0.193969727
vn -0.437988281 0.708496094 -0.553710938
vn 0.157104492 -0.545410156 -0.823242188
vn -0.206542969 0.111022949 -0.972167969
g IS4_MiniRod_Calidad_Boli_0
f 3/3/3 2/2/2 1/1/1
f 2/2/2 4/4/4 1/1/1
f 2/2/2 5/5/5 4/4/4
f 2/2/2 6/6/6 5/5/5
f 7/7/7 6/6/6 2/2/2
f 8/8/8 7/7/7 2/2/2
f 9/9/9 8/8/8 2/2/2
f 9/9/9 2/2/2 10/10/10
f 13/13/13 12/12/12 11/11/11
f 12/12/12 14/14/14 11/11/11
f 14/14/14 15/15/15 11/11/11
f 15/15/15 16/16/16 11/11/11
f 15/15/15 17/17/17 16/16/16
f 17/17/17 18/18/18 16/16/16
f 19/19/19 18/18/18 17/17/17
f 20/20/20 19/19/19 17/17/17
f 21/21/21 19/19/19 20/20/20
f 22/22/22 21/21/21 20/20/20
f 21/21/21 22/22/22 23/23/23
f 24/24/24 21/21/21 23/23/23
f 24/24/24 23/23/23 25/25/25
f 26/26/26 24/24/24 25/25/25
f 26/26/26 25/25/25 27/27/27
f 25/25/25 28/28/28 27/27/27
f 31/31/31 30/30/30 29/29/29
f 31/31/31 29/29/29 32/32/32
f 31/31/31 33/33/33 30/30/30
f 34/34/34 31/31/31 32/32/32
f 35/35/35 33/33/33 31/31/31
f 36/36/36 31/31/31 34/34/34
f 37/37/37 35/35/35 31/31/31
f 36/36/36 37/37/37 31/31/31
