g FloorLevel_Wall_5
v 32.1561279 1.11574459 -23.5544033
v 30.2199154 0.0123162838 -23.5544033
v 30.2199154 1.11574459 -23.5544033
v 32.3062744 0.0123162838 -23.5544033
v 32.3062744 3.71231627 -23.5544033
v 32.1561279 3.43877578 -23.5544033
v 30.2199154 4.01231623 -23.5544033
v 32.3062744 4.01231623 -23.5544033
v 32.3062744 3.71231627 -23.5544033
v 30.2199154 3.71231627 -23.5544033
v 28.1335621 3.71231627 -23.4024048
v 27.6788425 3.71231627 -23.4024048
v 27.6788425 4.01231623 -23.4024048
v 28.1335621 4.01231623 -23.4024048
v 27.6788425 3.71231627 -23.4024048
v 28.1335621 3.71231627 -23.4024048
v 28.1335621 0.0123162838 -23.4024048
v 27.6788425 0.0123162838 -23.4024048
v 30.2199154 3.71231627 -23.5544033
v 32.3062744 3.71231627 -23.5544033
v 32.1561279 3.43877578 -23.5544033
v 30.2199154 3.43877578 -23.5544033
v 33.6878319 3.71231627 -23.4024048
v 35.7254753 3.71231627 -23.4024048
v 35.7254753 0.0123162838 -23.4024048
v 33.6878319 0.0123162838 -23.4024048
v 35.7254753 3.71231627 -23.4024048
v 33.6878319 3.71231627 -23.4024048
v 33.6878319 4.01231623 -23.4024048
v 35.7254753 4.01231623 -23.4024048
v 32.3062744 3.71231627 -23.4024048
v 33.6878319 3.71231627 -23.4024048
v 33.6878319 0.0123162838 -23.4024048
v 32.3062744 0.0123162838 -23.4024048
v 33.6878319 3.71231627 -23.4024048
v 32.3062744 3.71231627 -23.4024048
v 32.3062744 4.01231623 -23.4024048
v 33.6878319 4.01231623 -23.4024048
v 28.1335621 3.71231627 -23.5544033
v 28.2837048 3.43877578 -23.5544033
v 28.2837048 1.11574459 -23.5544033
v 28.1335621 0.0123162838 -23.5544033
v 30.2199154 0.0123162838 -23.5544033
v 30.2199154 1.11574459 -23.5544033
v 32.3062744 3.71231627 -23.4024048
v 32.3062744 3.71231627 -23.5544033
v 32.3062744 4.01231623 -23.5544033
v 32.3062744 4.01231623 -23.4024048
v 28.1335621 4.01231623 -23.4024048
v 28.1335621 4.01231623 -23.5544033
v 28.1335621 3.71231627 -23.5544033
v 28.1335621 3.71231627 -23.4024048
v 32.3062744 0.0123162838 -23.4024048
v 32.3062744 0.0123162838 -23.5544033
v 32.3062744 3.71231627 -23.5544033
v 32.3062744 3.71231627 -23.4024048
v 28.1335621 3.71231627 -23.4024048
v 28.1335621 3.71231627 -23.5544033
v 28.1335621 0.0123162838 -23.5544033
v 28.1335621 0.0123162838 -23.4024048
v 28.1335621 3.71231627 -23.5544033
v 28.1335621 4.01231623 -23.5544033
v 30.2199154 4.01231623 -23.5544033
v 30.2199154 3.71231627 -23.5544033
v 28.1335621 3.71231627 -23.5544033
v 30.2199154 3.71231627 -23.5544033
v 30.2199154 3.43877578 -23.5544033
v 28.2837048 3.43877578 -23.5544033
vt 0.512207031 0.672363281
vt 0.264648438 0.534667969
vt 0.264648438 0.672363281
vt 0.526855469 0.534667969
vt 0.526855469 0.993652344
vt 0.512207031 0.958496094
vt 0.264648438 0.993652344
vt 0.526855469 0.993652344
vt 0.526855469 0.958496094
vt 0.264648438 0.958496094
vt 0.358886719 0.958496094
vt 0.309326172 0.958496094
vt 0.309326172 0.993652344
vt 0.358886719 0.993652344
vt 0.309326172 0.993652344
vt 0.358886719 0.993652344
vt 0.358886719 0.534667969
vt 0.309326172 0.534667969
vt 0.264648438 0.993652344
vt 0.526855469 0.993652344
vt 0.512207031 0.958496094
vt 0.264648438 0.958496094
vt 0.264648438 0.993652344
vt 0.526855469 0.993652344
vt 0.526855469 0.534667969
vt 0.264648438 0.534667969
vt 0.526855469 0.958496094
vt 0.264648438 0.958496094
vt 0.264648438 0.993652344
vt 0.526855469 0.993652344
vt 0.342773438 0.993652344
vt 0.526855469 0.993652344
vt 0.526855469 0.534667969
vt 0.342773438 0.534667969
vt 0.526855469 0.958496094
vt 0.342773438 0.958496094
vt 0.342773438 0.993652344
vt 0.526855469 0.993652344
vt 0.264648438 0.993652344
vt 0.278564453 0.958496094
vt 0.278564453 0.672363281
vt 0.264648438 0.534667969
vt 0.526855469 0.534667969
vt 0.526855469 0.672363281
vt 0.279052734 0.958496094
vt 0.264648438 0.958496094
vt 0.264648438 0.993652344
vt 0.279052734 0.993652344
vt 0.51171875 0.993652344
vt 0.526855469 0.993652344
vt 0.526855469 0.958496094
vt 0.51171875 0.958496094
vt 0.279052734 0.534667969
vt 0.264648438 0.534667969
vt 0.264648438 0.993652344
vt 0.279052734 0.993652344
vt 0.51171875 0.993652344
vt 0.526855469 0.993652344
vt 0.526855469 0.534667969
vt 0.51171875 0.534667969
vt 0.264648438 0.958496094
vt 0.264648438 0.993652344
vt 0.526855469 0.993652344
vt 0.526855469 0.958496094
vt 0.264648438 0.993652344
vt 0.526855469 0.993652344
vt 0.526855469 0.958496094
vt 0.278564453 0.958496094
vn -0 0 1
vn -0 0 1
vn -0 0 1
vn -0 0 1
vn -1.38282776E-05 0 1
vn -1.38282776E-05 0 1
vn -0 0 1
vn -0 0 1
vn -0 0 1
vn -0 0 1
vn -0 0 1
vn -0 0 1
vn -0 0 1
vn -0 0 1
vn -0 0 1
vn -0 0 1
vn -0 0 1
vn -0 0 1
vn -0 0 1
vn -0 0 1
vn -0 0 1
vn -0 0 1
vn -0 0 1
vn -0 0 1
vn -0 0 1
vn -0 0 1
vn -0 0 1
vn -0 0 1
vn -0 0 1
vn -0 0 1
vn -0 0 1
vn -0 0 1
vn -0 0 1
vn -0 0 1
vn -0 0 1
vn -0 0 1
vn -0 0 1
vn -0 0 1
vn -3.4570694E-06 0 1
vn -3.4570694E-06 0 1
vn -3.4570694E-06 0 1
vn -3.4570694E-06 0 1
vn -0 0 1
vn -0 0 1
vn -1 0 0
vn -1 0 0
vn -1 0 0
vn -1 0 0
vn 1 0 0
vn 1 0 0
vn 1 0 0
vn 1 0 0
vn -1 0 0
vn -1 0 0
vn -1 0 0
vn -1 0 0
vn 1 0 0
vn 1 0 0
vn 1 0 0
vn 1 0 0
vn -0 0 1
vn -0 0 1
vn -0 0 1
vn -0 0 1
vn -0 0 1
vn -0 0 1
vn -0 0 1
vn -0 0 1
g FloorLevel_Wall_5_0
f 3/3/3 2/2/2 1/1/1
f 2/2/2 4/4/4 1/1/1
f 1/1/1 4/4/4 5/5/5
f 6/6/6 1/1/1 5/5/5
f 9/9/9 8/8/8 7/7/7
f 10/10/10 9/9/9 7/7/7
f 13/13/13 12/12/12 11/11/11
f 14/14/14 13/13/13 11/11/11
f 17/17/17 16/16/16 15/15/15
f 18/18/18 17/17/17 15/15/15
f 21/21/21 20/20/20 19/19/19
f 22/22/22 21/21/21 19/19/19
f 25/25/25 24/24/24 23/23/23
f 26/26/26 25/25/25 23/23/23
f 29/29/29 28/28/28 27/27/27
f 30/30/30 29/29/29 27/27/27
f 33/33/33 32/32/32 31/31/31
f 34/34/34 33/33/33 31/31/31
f 37/37/37 36/36/36 35/35/35
f 38/38/38 37/37/37 35/35/35
f 41/41/41 40/40/40 39/39/39
f 42/42/42 41/41/41 39/39/39
f 41/41/41 42/42/42 43/43/43
f 44/44/44 41/41/41 43/43/43
f 47/47/47 46/46/46 45/45/45
f 48/48/48 47/47/47 45/45/45
f 51/51/51 50/50/50 49/49/49
f 52/52/52 51/51/51 49/49/49
f 55/55/55 54/54/54 53/53/53
f 56/56/56 55/55/55 53/53/53
f 59/59/59 58/58/58 57/57/57
f 60/60/60 59/59/59 57/57/57
f 63/63/63 62/62/62 61/61/61
f 64/64/64 63/63/63 61/61/61
f 67/67/67 66/66/66 65/65/65
f 68/68/68 67/67/67 65/65/65
