g CatwalkEast_Wall_1
v 26.0988808 4.01231623 -22.8524303
v 26.0988808 4.01231623 -20.8147869
v 26.0988808 7.71231604 -20.8147869
v 26.0988808 7.71231604 -22.8524303
v 26.0988808 7.71231604 -23.4024048
v 26.0988808 4.01231623 -23.4024048
v 26.0988808 4.01231623 -22.8524303
v 26.0988808 7.71231604 -22.8524303
vt 0.257080078 0.534667969
vt 0.00498962402 0.534667969
vt 0.00498962402 0.993652344
vt 0.257080078 0.993652344
vt 0.071105957 0.993652344
vt 0.071105957 0.534667969
vt 0.00498962402 0.534667969
vt 0.00498962402 0.993652344
vn 1 0 0
vn 1 0 0
vn 1 0 0
vn 1 0 0
vn 1 0 0
vn 1 0 0
vn 1 0 0
vn 1 0 0
g CatwalkEast_Wall_1_0
f 3/3/3 2/2/2 1/1/1
f 4/4/4 3/3/3 1/1/1
f 7/7/7 6/6/6 5/5/5
f 8/8/8 7/7/7 5/5/5
