g ControlRoom_DoorLatch_Bar
v 0.0794675723 0.0195030738 0.0100000026
v 0.0794675723 -0.0195029676 0.0100000026
v -0.0614104159 -0.0195029676 0.0100000026
v -0.0614104159 0.0195030738 0.0100000026
v 0.0794675723 0.0195030738 -0.00999999791
v -0.0614104159 0.0195030738 -0.00999999791
v -0.0614104159 -0.0195029676 -0.00999999791
v 0.0794675723 -0.0195029676 -0.00999999791
v 0.0794675723 0.0195030738 -0.00999999791
v 0.0794675723 0.0195030738 0.0100000026
v -0.0614104159 0.0195030738 0.0100000026
v -0.0614104159 0.0195030738 -0.00999999791
v -0.0614104159 0.0195030738 -0.00999999791
v -0.0614104159 0.0195030738 0.0100000026
v -0.0614104159 -0.0195029676 0.0100000026
v -0.0614104159 -0.0195029676 -0.00999999791
v -0.0614104159 -0.0195029676 -0.00999999791
v -0.0614104159 -0.0195029676 0.0100000026
v 0.0794675723 -0.0195029676 0.0100000026
v 0.0794675723 -0.0195029676 -0.00999999791
v 0.0794675723 -0.0195029676 -0.00999999791
v 0.0794675723 -0.0195029676 0.0100000026
v 0.0794675723 0.0195030738 0.0100000026
v 0.0794675723 0.0195030738 -0.00999999791
vt 0.316162109 0.814941406
vt 0.316162109 0.799316406
vt 0.241455078 0.799316406
vt 0.241455078 0.814941406
vt 0.316162109 0.799316406
vt 0.241455078 0.799316406
vt 0.241455078 0.814941406
vt 0.316162109 0.814941406
vt 0.316162109 0.807128906
vt 0.316162109 0.798828125
vt 0.241455078 0.798828125
vt 0.241455078 0.807128906
vt 0.26953125 0.807128906
vt 0.26953125 0.798828125
vt 0.251220703 0.798828125
vt 0.251220703 0.807128906
vt 0.316162109 0.807128906
vt 0.316162109 0.798828125
vt 0.241455078 0.798828125
vt 0.241455078 0.807128906
vt 0.304931641 0.807128906
vt 0.304931641 0.798828125
vt 0.286621094 0.798828125
vt 0.286621094 0.807128906
vn -0 0 1
vn -0 0 1
vn -0 0 1
vn -0 0 1
vn -0 0 -1
vn -0 0 -1
vn -0 0 -1
vn -0 0 -1
vn -0 1 0
vn -0 1 0
vn -0 1 0
vn -0 1 0
vn -1 0 0
vn -1 0 0
vn -1 0 0
vn -1 0 0
vn -0 -1 0
vn -0 -1 0
vn -0 -1 0
vn -0 -1 0
vn 1 0 0
vn 1 0 0
vn 1 0 0
vn 1 0 0
g ControlRoom_DoorLatch_Bar_0
f 3/3/3 2/2/2 1/1/1
f 4/4/4 3/3/3 1/1/1
f 7/7/7 6/6/6 5/5/5
f 8/8/8 7/7/7 5/5/5
f 11/11/11 10/10/10 9/9/9
f 12/12/12 11/11/11 9/9/9
f 15/15/15 14/14/14 13/13/13
f 16/16/16 15/15/15 13/13/13
f 19/19/19 18/18/18 17/17/17
f 20/20/20 19/19/19 17/17/17
f 23/23/23 22/22/22 21/21/21
f 24/24/24 23/23/23 21/21/21
