g Mechanism_Lever_Handle
v -0.0335361436 0.0717755854 0.0823652074
v -0.0259119608 0.0717755854 0.0823652074
v -0.0259119608 0.0717755854 0.0872101039
v -0.0335361436 0.0717755854 0.0872101039
v -0.0335361436 0.0717755854 0.0872101039
v -0.0259119608 0.0717755854 0.0872101039
v -0.0259119608 0.064099364 0.0872101039
v -0.0335361436 0.064099364 0.0872101039
v -0.0335361436 0.064099364 0.0872101039
v -0.0259119608 0.064099364 0.0872101039
v -0.0259119608 0.064099364 0.0823652074
v -0.0335361436 0.064099364 0.0823652074
v -0.0259119608 0.064099364 0.0823652074
v -0.0259119608 0.064099364 0.0872101039
v -0.0259119608 0.0717755854 0.0872101039
v -0.0259119608 0.0717755854 0.0823652074
v -0.0335361436 0.064099364 0.0872101039
v -0.0335361436 0.064099364 0.0823652074
v -0.0335361436 0.0717755854 0.0823652074
v -0.0335361436 0.0717755854 0.0872101039
v -0.0350797735 0.0791990459 0.0647400618
v -0.0218460485 0.0771217495 0.0647400618
v -0.0218460485 0.0771217495 0.0839518532
v -0.0350797735 0.0791990459 0.0839518532
v -0.0419366546 0.0691375434 0.0647400618
v -0.0350797735 0.0791990459 0.0647400618
v -0.0350797735 0.0791990459 0.0839518532
v -0.0419366546 0.0691375434 0.0839518532
v -0.0287740808 0.0345903002 0.0647400618
v -0.0287740808 0.0345903002 0.0839518532
v -0.0354127139 0.00556976814 0.0647400618
v -0.0354127139 0.00556976814 0.0839518532
v -0.0415851288 -0.0148251047 0.0647400618
v -0.0415851288 -0.0148251047 0.0839518532
v -0.0268313959 -0.0341154858 0.0647400618
v -0.0268313959 -0.0341154858 0.0839518532
v 0.0319182947 0.0187514573 0.0839518532
v 0.0158123579 0.0264425464 0.0839518532
v 0.0158123579 0.0264425464 0.0647400618
v 0.0319182947 0.0187514573 0.0647400618
v 0.0319182947 0.0187514573 0.0839518532
v 0.038507551 -0.000536799023 0.0839518532
v 0.00876166113 -0.0197804514 0.0839518532
v 6.47102709E-08 -1.54512202E-06 0.0839518532
v -0.0268313959 -0.0341154858 0.0839518532
v 0.0158123579 0.0264425464 0.0839518532
v -0.0415851288 -0.0148251047 0.0839518532
v -0.0112001766 0.0252870787 0.0839518532
v -0.00868294295 0.0425723828 0.0839518532
v -0.0354127139 0.00556976814 0.0839518532
v -0.0177801363 0.0401424989 0.0839518532
v -0.0218460485 0.0771217495 0.0839518532
v -0.0287740808 0.0345903002 0.0839518532
v -0.0350797735 0.0791990459 0.0839518532
v -0.0419366546 0.0691375434 0.0839518532
v 0.0319182947 0.0187514573 0.0647400618
v 0.038507551 -0.000536799023 0.0647400618
v 0.038507551 -0.000536799023 0.0839518532
v 0.0319182947 0.0187514573 0.0839518532
v -0.0415851288 -0.0148251047 -0.102751933
v -0.0268313959 -0.0341154858 -0.102751933
v 0.00876166113 -0.0197804514 -0.102751933
v 6.47102709E-08 -1.54512202E-06 -0.102751933
v 0.038507551 -0.000536799023 -0.102751933
v -0.0354127139 0.00556976814 -0.102751933
v 0.0319182947 0.0187514573 -0.102751933
v -0.0112001766 0.0252870787 -0.102751933
v -0.0287740808 0.0345903002 -0.102751933
v 0.0158123579 0.0264425464 -0.102751933
v -0.0177801363 0.0401424989 -0.102751933
v -0.0419366546 0.0691375434 -0.102751933
v -0.00868294295 0.0425723828 -0.102751933
v -0.0350797735 0.0791990459 -0.102751933
v -0.0218460485 0.0771217495 -0.102751933
v 0.0319182947 0.0187514573 -0.102751933
v 0.038507551 -0.000536799023 -0.102751933
v 0.038507551 -0.000536799023 -0.086384207
v 0.0319182947 0.0187514573 -0.086384207
v 0.0158123579 0.0264425464 -0.086384207
v 0.0158123579 0.0264425464 -0.102751933
v 0.0319182947 0.0187514573 -0.102751933
v 0.0319182947 0.0187514573 -0.086384207
v -0.0350797735 0.0791990459 -0.102751933
v -0.0218460485 0.0771217495 -0.102751933
v -0.0218460485 0.0771217495 -0.086384207
v -0.0350797735 0.0791990459 -0.086384207
v -0.0419366546 0.0691375434 -0.102751933
v -0.0350797735 0.0791990459 -0.102751933
v -0.0350797735 0.0791990459 -0.086384207
v -0.0419366546 0.0691375434 -0.086384207
v -0.0287740808 0.0345903002 -0.102751933
v -0.0287740808 0.0345903002 -0.086384207
v -0.0354127139 0.00556976814 -0.102751933
v -0.0354127139 0.00556976814 -0.086384207
v -0.0415851288 -0.0148251047 -0.102751933
v -0.0354127139 0.00556976814 -0.102751933
v -0.0354127139 0.00556976814 -0.086384207
v -0.0415851288 -0.0148251047 -0.086384207
v -0.0268313959 -0.0341154858 -0.086384207
v -0.0268313959 -0.0341154858 -0.102751933
v 0.0319182947 0.0187514573 0.0647400618
v 0.038507551 -0.000536799023 -0.086384207
v 0.038507551 -0.000536799023 0.0647400618
v 0.0319182947 0.0187514573 -0.086384207
v 0.0158123579 0.0264425464 0.0647400618
v 0.0158123579 0.0264425464 -0.086384207
v -0.0112001766 0.0252870787 0.0647400618
v -0.0112001766 0.0252870787 -0.086384207
v -0.0354127139 0.00556976814 0.0647400618
v -0.0354127139 0.00556976814 -0.086384207
v -0.0415851288 -0.0148251047 0.0647400618
v -0.0415851288 -0.0148251047 -0.086384207
v -0.0268313959 -0.0341154858 -0.086384207
v -0.0268313959 -0.0341154858 0.0647400618
v 0.0158123579 0.0264425464 0.0839518532
v -0.00868294295 0.0425723828 0.0647400618
v 0.0158123579 0.0264425464 0.0647400618
v -0.00868294295 0.0425723828 0.0839518532
v -0.0218460485 0.0771217495 0.0647400618
v -0.0218460485 0.0771217495 0.0839518532
v -0.0112001766 0.0252870787 0.0647400618
v -0.0287740808 0.0345903002 0.0647400618
v -0.0354127139 0.00556976814 0.0647400618
v -0.0177801363 0.0401424989 0.0647400618
v 0.0158123579 0.0264425464 0.0647400618
v -0.0419366546 0.0691375434 0.0647400618
v -0.00868294295 0.0425723828 0.0647400618
v -0.0350797735 0.0791990459 0.0647400618
v -0.0218460485 0.0771217495 0.0647400618
v -0.0112001766 0.0252870787 -0.086384207
v -0.00868294295 0.0425723828 -0.086384207
v 0.0158123579 0.0264425464 -0.086384207
v -0.0177801363 0.0401424989 -0.086384207
v -0.0354127139 0.00556976814 -0.086384207
v -0.0218460485 0.0771217495 -0.086384207
v -0.0287740808 0.0345903002 -0.086384207
v -0.0350797735 0.0791990459 -0.086384207
v -0.0419366546 0.0691375434 -0.086384207
v 0.0158123579 0.0264425464 -0.086384207
v -0.00868294295 0.0425723828 -0.102751933
v 0.0158123579 0.0264425464 -0.102751933
v -0.00868294295 0.0425723828 -0.086384207
v -0.0218460485 0.0771217495 -0.102751933
v -0.0218460485 0.0771217495 -0.086384207
v -0.0116348052 0.0850762203 -0.0877350867
v -0.0116348052 0.0850762203 -0.0598912649
v -0.0222745705 0.0928055346 -0.0598912649
v -0.0222745705 0.0928055346 -0.0877350867
v -0.0354265198 0.0928055346 -0.0598912649
v -0.0354265198 0.0928055346 -0.0877350867
v -0.0460662842 0.0850762203 -0.0598912649
v -0.0460662842 0.0850762203 -0.0877350867
v -0.050130073 0.0725678429 -0.0598912649
v -0.050130073 0.0725678429 -0.0877350867
v -0.0460662842 0.0600573458 -0.0598912649
v -0.0460662842 0.0600573458 -0.0877350867
v -0.0460662842 0.0600573458 -0.0877350867
v -0.0460662842 0.0600573458 -0.0598912649
v -0.0354265198 0.0523280241 -0.0598912649
v -0.0354265198 0.0523280241 -0.0877350867
v -0.0222745705 0.0523280241 -0.0598912649
v -0.0222745705 0.0523280241 -0.0877350867
v -0.0116348052 0.0600573458 -0.0598912649
v -0.0116348052 0.0600573458 -0.0877350867
v -0.00757128233 0.0725678429 -0.0598912649
v -0.00757128233 0.0725678429 -0.0877350867
v -0.0116348052 0.0850762203 -0.0598912649
v -0.0116348052 0.0850762203 -0.0877350867
v -0.0116348052 0.0850762203 -0.0598912649
v -0.00731772697 0.0882112756 -0.0537061058
v -0.0206257962 0.097879827 -0.0537061058
v -0.0222745705 0.0928055346 -0.0598912649
v -0.037075296 0.097879827 -0.0537061058
v -0.0354265198 0.0928055346 -0.0598912649
v -0.0503833629 0.0882112756 -0.0537061058
v -0.0460662842 0.0850762203 -0.0598912649
v -0.0554666817 0.0725678429 -0.0537061058
v -0.050130073 0.0725678429 -0.0598912649
v -0.0503833629 0.0569244102 -0.0537061058
v -0.0460662842 0.0600573458 -0.0598912649
v -0.00757128233 0.0725678429 -0.0598912649
v -0.00731772697 0.0882112756 -0.0537061058
v -0.0116348052 0.0850762203 -0.0598912649
v -0.00223414227 0.0725678429 -0.0537061058
v -0.0116348052 0.0600573458 -0.0598912649
v -0.00731772697 0.0569244102 -0.0537061058
v -0.0222745705 0.0523280241 -0.0598912649
v -0.0206257962 0.0472537316 -0.0537061058
v -0.0354265198 0.0523280241 -0.0598912649
v -0.037075296 0.0472537316 -0.0537061058
v -0.0460662842 0.0600573458 -0.0598912649
v -0.0503833629 0.0569244102 -0.0537061058
v -0.0116348052 0.0850762203 0.0406090319
v -0.0116348052 0.0850762203 0.066821605
v -0.0222745705 0.0928055346 0.066821605
v -0.0222745705 0.0928055346 0.0406090319
v -0.0354265198 0.0928055346 0.066821605
v -0.0354265198 0.0928055346 0.0406090319
v -0.0460662842 0.0850762203 0.066821605
v -0.0460662842 0.0850762203 0.0406090319
v -0.050130073 0.0725678429 0.066821605
v -0.050130073 0.0725678429 0.0406090319
v -0.0460662842 0.0600573458 0.066821605
v -0.0460662842 0.0600573458 0.0406090319
v -0.00757128233 0.0725678429 0.0406090319
v -0.0116348052 0.0850762203 0.066821605
v -0.0116348052 0.0850762203 0.0406090319
v -0.00757128233 0.0725678429 0.066821605
v -0.0116348052 0.0600573458 0.0406090319
v -0.0116348052 0.0600573458 0.066821605
v -0.0222745705 0.0523280241 0.0406090319
v -0.0222745705 0.0523280241 0.066821605
v -0.0354265198 0.0523280241 0.0406090319
v -0.0354265198 0.0523280241 0.066821605
v -0.0460662842 0.0600573458 0.0406090319
v -0.0460662842 0.0600573458 0.066821605
v -0.00731772697 0.0882112756 -0.0537061058
v -0.00731772697 0.0882112756 0.0353180878
v -0.0206257962 0.097879827 0.0353180878
v -0.0206257962 0.097879827 -0.0537061058
v -0.037075296 0.097879827 0.0353180878
v -0.037075296 0.097879827 -0.0537061058
v -0.0503833629 0.0882112756 0.0353180878
v -0.0503833629 0.0882112756 -0.0537061058
v -0.0554666817 0.0725678429 0.0353180878
v -0.0554666817 0.0725678429 -0.0537061058
v -0.0503833629 0.0569244102 0.0353180878
v -0.0503833629 0.0569244102 -0.0537061058
v -0.00223414227 0.0725678429 -0.0537061058
v -0.00731772697 0.0882112756 0.0353180878
v -0.00731772697 0.0882112756 -0.0537061058
v -0.00223414227 0.0725678429 0.0353180878
v -0.00731772697 0.0569244102 -0.0537061058
v -0.00731772697 0.0569244102 0.0353180878
v -0.0206257962 0.0472537316 -0.0537061058
v -0.0206257962 0.0472537316 0.0353180878
v -0.037075296 0.0472537316 -0.0537061058
v -0.037075296 0.0472537316 0.0353180878
v -0.0503833629 0.0569244102 -0.0537061058
v -0.0503833629 0.0569244102 0.0353180878
v -0.00731772697 0.0882112756 0.0353180878
v -0.0116348052 0.0850762203 0.0406090319
v -0.0222745705 0.0928055346 0.0406090319
v -0.0206257962 0.097879827 0.0353180878
v -0.0354265198 0.0928055346 0.0406090319
v -0.037075296 0.097879827 0.0353180878
v -0.0460662842 0.0850762203 0.0406090319
v -0.0503833629 0.0882112756 0.0353180878
v -0.050130073 0.0725678429 0.0406090319
v -0.0554666817 0.0725678429 0.0353180878
v -0.0460662842 0.0600573458 0.0406090319
v -0.0503833629 0.0569244102 0.0353180878
v -0.00223414227 0.0725678429 0.0353180878
v -0.0116348052 0.0850762203 0.0406090319
v -0.00731772697 0.0882112756 0.0353180878
v -0.00757128233 0.0725678429 0.0406090319
v -0.00731772697 0.0569244102 0.0353180878
v -0.0116348052 0.0600573458 0.0406090319
v -0.0206257962 0.0472537316 0.0353180878
v -0.0222745705 0.0523280241 0.0406090319
v -0.037075296 0.0472537316 0.0353180878
v -0.0354265198 0.0523280241 0.0406090319
v -0.0503833629 0.0569244102 0.0353180878
v -0.0460662842 0.0600573458 0.0406090319
v -0.0335361436 0.0717755854 -0.101269364
v -0.0335361436 0.0717755854 -0.106110014
v -0.0259119608 0.0717755854 -0.106110014
v -0.0259119608 0.0717755854 -0.101269364
v -0.0335361436 0.0717755854 -0.106110014
v -0.0335361436 0.064099364 -0.106110014
v -0.0259119608 0.064099364 -0.106110014
v -0.0259119608 0.0717755854 -0.106110014
v -0.0335361436 0.064099364 -0.106110014
v -0.0335361436 0.064099364 -0.101269364
v -0.0259119608 0.064099364 -0.101269364
v -0.0259119608 0.064099364 -0.106110014
v -0.0259119608 0.064099364 -0.101269364
v -0.0259119608 0.0717755854 -0.101269364
v -0.0259119608 0.0717755854 -0.106110014
v -0.0259119608 0.064099364 -0.106110014
v -0.0335361436 0.064099364 -0.106110014
v -0.0335361436 0.0717755854 -0.106110014
v -0.0335361436 0.0717755854 -0.101269364
v -0.0335361436 0.064099364 -0.101269364
v -0.00757128233 0.0725678429 -0.0877350867
v -0.0288505461 0.0725678429 -0.0877350867
v -0.0116348052 0.0600573458 -0.0877350867
v -0.0116348052 0.0850762203 -0.0877350867
v -0.0222745705 0.0523280241 -0.0877350867
v -0.0222745705 0.0928055346 -0.0877350867
v -0.0354265198 0.0523280241 -0.0877350867
v -0.0354265198 0.0928055346 -0.0877350867
v -0.0460662842 0.0600573458 -0.0877350867
v -0.0460662842 0.0850762203 -0.0877350867
v -0.050130073 0.0725678429 -0.0877350867
v -0.0116348052 0.0600573458 0.066821605
v -0.0288505461 0.0725678429 0.066821605
v -0.00757128233 0.0725678429 0.066821605
v -0.0222745705 0.0523280241 0.066821605
v -0.0116348052 0.0850762203 0.066821605
v -0.0354265198 0.0523280241 0.066821605
v -0.0222745705 0.0928055346 0.066821605
v -0.0460662842 0.0600573458 0.066821605
v -0.0354265198 0.0928055346 0.066821605
v -0.050130073 0.0725678429 0.066821605
v -0.0460662842 0.0850762203 0.066821605
vt 0.828613281 0.909667969
vt 0.828125 0.91796875
vt 0.830566406 0.915527344
vt 0.830078125 0.911132812
vt 0.830078125 0.911132812
vt 0.830566406 0.915527344
vt 0.835449219 0.916503906
vt 0.834960938 0.911621094
vt 0.834960938 0.911621094
vt 0.835449219 0.916503906
vt 0.836914062 0.91796875
vt 0.836914062 0.909667969
vt 0.836914062 0.91796875
vt 0.835449219 0.916503906
vt 0.830566406 0.915527344
vt 0.828125 0.91796875
vt 0.834960938 0.911621094
vt 0.836914062 0.909667969
vt 0.828613281 0.909667969
vt 0.830078125 0.911132812
vt 0.351806641 0.635742188
vt 0.33984375 0.635742188
vt 0.33984375 0.652832031
vt 0.351806641 0.652832031
vt 0.303466797 0.635742188
vt 0.294433594 0.635742188
vt 0.294433594 0.652832031
vt 0.303466797 0.652832031
vt 0.334960938 0.635742188
vt 0.334960938 0.652832031
vt 0.361083984 0.635742188
vt 0.361083984 0.652832031
vt 0.379638672 0.635742188
vt 0.379638672 0.652832031
vt 0.397216797 0.635742188
vt 0.397216797 0.652832031
vt 0.338378906 0.652832031
vt 0.353027344 0.652832031
vt 0.353027344 0.635742188
vt 0.338378906 0.635742188
vt 0.314453125 0.662109375
vt 0.299804688 0.662597656
vt 0.287109375 0.684570312
vt 0.314453125 0.684082031
vt 0.299804688 0.708496094
vt 0.327880859 0.662597656
vt 0.314453125 0.710449219
vt 0.333984375 0.684082031
vt 0.339111328 0.67578125
vt 0.329345703 0.708007812
vt 0.339111328 0.685546875
vt 0.377685547 0.675292969
vt 0.339111328 0.695800781
vt 0.377685547 0.686035156
vt 0.377685547 0.695800781
vt 0.336914062 0.652832031
vt 0.354492188 0.652832031
vt 0.354492188 0.635742188
vt 0.336914062 0.635742188
vt 0.314453125 0.710449219
vt 0.299804688 0.708496094
vt 0.287109375 0.684570312
vt 0.314453125 0.684082031
vt 0.299804688 0.662597656
vt 0.329345703 0.708007812
vt 0.314453125 0.662109375
vt 0.333984375 0.684082031
vt 0.339111328 0.695800781
vt 0.327880859 0.662597656
vt 0.339111328 0.685546875
vt 0.377685547 0.695800781
vt 0.339111328 0.67578125
vt 0.377685547 0.686035156
vt 0.377685547 0.675292969
vt 0.336914062 0.652832031
vt 0.354492188 0.652832031
vt 0.354492188 0.635742188
vt 0.336914062 0.635742188
vt 0.353027344 0.652832031
vt 0.353027344 0.635742188
vt 0.338378906 0.635742188
vt 0.338378906 0.652832031
vt 0.351806641 0.635742188
vt 0.33984375 0.635742188
vt 0.33984375 0.652832031
vt 0.351806641 0.652832031
vt 0.370117188 0.652832031
vt 0.379150391 0.652832031
vt 0.379150391 0.635742188
vt 0.370117188 0.635742188
vt 0.338623047 0.652832031
vt 0.338623047 0.635742188
vt 0.312255859 0.652832031
vt 0.312255859 0.635742188
vt 0.346191406 0.635742188
vt 0.327880859 0.635742188
vt 0.327880859 0.652832031
vt 0.346191406 0.652832031
vt 0.363769531 0.652832031
vt 0.363769531 0.635742188
vt 0.416503906 0.702636719
vt 0.536621094 0.714355469
vt 0.416503906 0.714355469
vt 0.536621094 0.702636719
vt 0.416503906 0.692382812
vt 0.536621094 0.692382812
vt 0.416503906 0.677246094
vt 0.536621094 0.677246094
vt 0.416503906 0.659179688
vt 0.536621094 0.659179688
vt 0.416503906 0.646972656
vt 0.536621094 0.647460938
vt 0.536621094 0.633300781
vt 0.416503906 0.633300781
vt 0.322753906 0.652832031
vt 0.337402344 0.635742188
vt 0.322753906 0.635742188
vt 0.337402344 0.652832031
vt 0.368896484 0.635742188
vt 0.368896484 0.652832031
vt 0.333984375 0.684082031
vt 0.339111328 0.675292969
vt 0.327880859 0.662597656
vt 0.339111328 0.685546875
vt 0.329589844 0.70703125
vt 0.377685547 0.675292969
vt 0.339111328 0.695800781
vt 0.377685547 0.686035156
vt 0.377685547 0.695800781
vt 0.333984375 0.684082031
vt 0.339111328 0.674804688
vt 0.327880859 0.662597656
vt 0.339111328 0.685546875
vt 0.329589844 0.70703125
vt 0.377685547 0.675292969
vt 0.339111328 0.6953125
vt 0.377685547 0.686035156
vt 0.377685547 0.695800781
vt 0.322753906 0.652832031
vt 0.337402344 0.635742188
vt 0.322753906 0.635742188
vt 0.337402344 0.652832031
vt 0.368896484 0.635742188
vt 0.368896484 0.652832031
vt 0.559082031 0.895507812
vt 0.559082031 0.926269531
vt 0.563964844 0.926269531
vt 0.563964844 0.895507812
vt 0.569335938 0.926269531
vt 0.569335938 0.895507812
vt 0.57421875 0.926269531
vt 0.57421875 0.895507812
vt 0.579101562 0.926269531
vt 0.579101562 0.895507812
vt 0.583984375 0.926269531
vt 0.583984375 0.895507812
vt 0.559082031 0.895507812
vt 0.559082031 0.926269531
vt 0.563964844 0.926269531
vt 0.563964844 0.895507812
vt 0.569335938 0.926269531
vt 0.569335938 0.895507812
vt 0.57421875 0.926269531
vt 0.57421875 0.895507812
vt 0.579101562 0.926269531
vt 0.579101562 0.895507812
vt 0.583984375 0.926269531
vt 0.583984375 0.895507812
vt 0.384765625 0.727539062
vt 0.395263672 0.727539062
vt 0.395263672 0.735351562
vt 0.384765625 0.735351562
vt 0.395263672 0.743164062
vt 0.384765625 0.743164062
vt 0.395263672 0.750976562
vt 0.384765625 0.750976562
vt 0.395263672 0.758789062
vt 0.384765625 0.758789062
vt 0.395263672 0.766601562
vt 0.384765625 0.766601562
vt 0.384765625 0.758789062
vt 0.395263672 0.766601562
vt 0.384765625 0.766601562
vt 0.395263672 0.758789062
vt 0.384765625 0.750976562
vt 0.395263672 0.750976562
vt 0.384765625 0.743164062
vt 0.395263672 0.743164062
vt 0.384765625 0.735351562
vt 0.395263672 0.735351562
vt 0.384765625 0.727539062
vt 0.395263672 0.727539062
vt 0.559082031 0.895507812
vt 0.559082031 0.926269531
vt 0.563964844 0.926269531
vt 0.563964844 0.895507812
vt 0.569335938 0.926269531
vt 0.569335938 0.895507812
vt 0.57421875 0.926269531
vt 0.57421875 0.895507812
vt 0.579101562 0.926269531
vt 0.579101562 0.895507812
vt 0.583984375 0.926269531
vt 0.583984375 0.895507812
vt 0.579101562 0.895507812
vt 0.583984375 0.926269531
vt 0.583984375 0.895507812
vt 0.579101562 0.926269531
vt 0.57421875 0.895507812
vt 0.57421875 0.926269531
vt 0.569335938 0.895507812
vt 0.569335938 0.926269531
vt 0.563964844 0.895507812
vt 0.563964844 0.926269531
vt 0.559082031 0.895507812
vt 0.559082031 0.926269531
vt 0.432861328 0.727539062
vt 0.301025391 0.727539062
vt 0.301025391 0.735351562
vt 0.432861328 0.735351562
vt 0.301025391 0.743164062
vt 0.432861328 0.743164062
vt 0.301025391 0.750976562
vt 0.432861328 0.750976562
vt 0.301025391 0.758789062
vt 0.432861328 0.758789062
vt 0.301025391 0.766601562
vt 0.432861328 0.766601562
vt 0.432861328 0.758789062
vt 0.301025391 0.766601562
vt 0.432861328 0.766601562
vt 0.301025391 0.758789062
vt 0.432861328 0.750976562
vt 0.301025391 0.750976562
vt 0.432861328 0.743164062
vt 0.301025391 0.743164062
vt 0.432861328 0.735351562
vt 0.301025391 0.735351562
vt 0.432861328 0.727539062
vt 0.301025391 0.727539062
vt 0.384765625 0.727539062
vt 0.395263672 0.727539062
vt 0.395263672 0.735351562
vt 0.384765625 0.735351562
vt 0.395263672 0.743164062
vt 0.384765625 0.743164062
vt 0.395263672 0.750976562
vt 0.384765625 0.750976562
vt 0.395263672 0.758789062
vt 0.384765625 0.758789062
vt 0.395263672 0.766601562
vt 0.384765625 0.766601562
vt 0.384765625 0.758789062
vt 0.395263672 0.766601562
vt 0.384765625 0.766601562
vt 0.395263672 0.758789062
vt 0.384765625 0.750976562
vt 0.395263672 0.750976562
vt 0.384765625 0.743164062
vt 0.395263672 0.743164062
vt 0.384765625 0.735351562
vt 0.395263672 0.735351562
vt 0.384765625 0.727539062
vt 0.395263672 0.727539062
vt 0.840332031 0.920898438
vt 0.837402344 0.918457031
vt 0.829101562 0.917480469
vt 0.825195312 0.921875
vt 0.837402344 0.918457031
vt 0.836425781 0.91015625
vt 0.828125 0.909179688
vt 0.829101562 0.917480469
vt 0.836425781 0.91015625
vt 0.840332031 0.905761719
vt 0.825195312 0.90625
vt 0.828125 0.909179688
vt 0.825195312 0.90625
vt 0.825195312 0.921875
vt 0.829101562 0.917480469
vt 0.828125 0.909179688
vt 0.836425781 0.91015625
vt 0.837402344 0.918457031
vt 0.840332031 0.920898438
vt 0.840332031 0.905761719
vt 0.472167969 0.798339844
vt 0.457519531 0.797851562
vt 0.469482422 0.807128906
vt 0.469482422 0.790039062
vt 0.462158203 0.8125
vt 0.462158203 0.784667969
vt 0.453125 0.8125
vt 0.453125 0.784667969
vt 0.445800781 0.807128906
vt 0.445800781 0.790039062
vt 0.443115234 0.798339844
vt 0.469482422 0.790039062
vt 0.457519531 0.797851562
vt 0.472167969 0.798339844
vt 0.462158203 0.784667969
vt 0.469482422 0.807128906
vt 0.453125 0.784667969
vt 0.462158203 0.8125
vt 0.445800781 0.790039062
vt 0.453125 0.8125
vt 0.443115234 0.798339844
vt 0.445800781 0.807128906
vn -0 1 0
vn -0 1 0
vn -0 1 0
vn -0 1 0
vn -0 0 1
vn -0 0 1
vn -0 0 1
vn -0 0 1
vn -0 -1 0
vn -0 -1 0
vn -0 -1 0
vn -0 -1 0
vn 1 0 0
vn 1 0 0
vn 1 0 0
vn 1 0 0
vn -1 0 0
vn -1 0 0
vn -1 0 0
vn -1 0 0
vn -0.369384766 0.929199219 0
vn 0.811035156 0.584472656 0
vn 0.811035156 0.584472656 0
vn -0.369384766 0.929199219 0
vn -0.990234375 -0.140014648 0
vn -0.369384766 0.929199219 0
vn -0.369384766 0.929199219 0
vn -0.990234375 -0.140014648 0
vn -0.994628906 -0.102111816 0
vn -0.994628906 -0.102111816 0
vn -0.967773438 0.250976562 0
vn -0.967773438 0.250976562 0
vn -0.977539062 -0.211303711 0
vn -0.977539062 -0.211303711 0
vn -0.794433594 -0.607421875 0
vn -0.794433594 -0.607421875 0
vn 0.765136719 0.643554688 0
vn 0.505859375 0.862304688 0
vn 0.505859375 0.862304688 0
vn 0.765136719 0.643554688 0
vn -0 0 1
vn -0 0 1
vn 3.57627869E-07 0 1
vn 3.57627869E-07 0 1
vn 5.96046448E-07 0 1
vn -0 0 1
vn 6.55651093E-07 0 1
vn -4.17232513E-07 0 1
vn -0 0 1
vn 2.98023224E-07 0 1
vn -7.15255737E-07 0 1
vn -0 0 1
vn -1.7285347E-06 0 1
vn -0 0 1
vn -0 0 1
vn 0.765136719 0.643554688 0
vn 0.946289062 0.323242188 0
vn 0.946289062 0.323242188 0
vn 0.765136719 0.643554688 0
vn -0 0 -1
vn -0 0 -1
vn -0 0 -1
vn -0 0 -1
vn -0 0 -1
vn -0 0 -1
vn -0 0 -1
vn -0 0 -1
vn -2.38418579E-07 0 -1
vn -0 0 -1
vn -5.96046448E-08 0 -1
vn -0 0 -1
vn -0 0 -1
vn -0 0 -1
vn -0 0 -1
vn 0.765136719 0.643554688 0
vn 0.946289062 0.323242188 0
vn 0.946289062 0.323242188 0
vn 0.765136719 0.643554688 0
vn 0.505859375 0.862304688 0
vn 0.505859375 0.862304688 0
vn 0.765136719 0.643554688 0
vn 0.765136719 0.643554688 0
vn -0.369384766 0.929199219 0
vn 0.811035156 0.584472656 0
vn 0.811035156 0.584472656 0
vn -0.369384766 0.929199219 0
vn -0.990234375 -0.140014648 0
vn -0.369384766 0.929199219 0
vn -0.369384766 0.929199219 0
vn -0.990234375 -0.140014648 0
vn -0.994628906 -0.102111816 0
vn -0.994628906 -0.102111816 0
vn -0.967773438 0.250976562 0
vn -0.967773438 0.250976562 0
vn -0.977539062 -0.211303711 0
vn -0.967773438 0.250976562 0
vn -0.967773438 0.250976562 0
vn -0.977539062 -0.211303711 0
vn -0.794433594 -0.607421875 0
vn -0.794433594 -0.607421875 0
vn 0.765136719 0.643554688 0
vn 0.946289062 0.323242188 0
vn 0.946289062 0.323242188 0
vn 0.765136719 0.643554688 0
vn 0.149902344 0.988769531 0
vn 0.149902344 0.988769531 0
vn -0.377441406 0.926269531 0
vn -0.377441406 0.926269531 0
vn -0.797363281 0.604003906 0
vn -0.797363281 0.604003906 0
vn -0.977539062 -0.211303711 0
vn -0.977539062 -0.211303711 0
vn -0.794433594 -0.607421875 0
vn -0.794433594 -0.607421875 0
vn 0.505859375 0.862304688 0
vn 0.802734375 0.596679688 0
vn 0.505859375 0.862304688 0
vn 0.802734375 0.596679688 0
vn 0.811035156 0.584472656 0
vn 0.811035156 0.584472656 0
vn -8.34465027E-07 0 -1
vn 2.38418579E-07 0 -1
vn -1.49011612E-06 0 -1
vn -4.17232513E-07 0 -1
vn -0 0 -1
vn 2.56299973E-06 0 -1
vn -1.31130219E-06 0 -1
vn -0 0 -1
vn -2.8014183E-06 0 -1
vn 1.25169754E-06 0 1
vn 4.76837158E-07 0 1
vn 9.53674316E-07 0 1
vn 8.94069672E-07 0 1
vn 1.49011612E-06 0 1
vn -0 0 1
vn 1.43051147E-06 0 1
vn 6.55651093E-07 0 1
vn 1.31130219E-06 0 1
vn 0.505859375 0.862304688 0
vn 0.802734375 0.596679688 0
vn 0.505859375 0.862304688 0
vn 0.802734375 0.596679688 0
vn 0.811035156 0.584472656 0
vn 0.811035156 0.584472656 0
vn 0.809082031 0.587890625 0
vn 0.809082031 0.587890625 0
vn 0.309082031 0.951171875 0
vn 0.309082031 0.951171875 0
vn -0.309082031 0.951171875 0
vn -0.309082031 0.951171875 0
vn -0.809082031 0.587890625 0
vn -0.809082031 0.587890625 0
vn -1 0 0
vn -1 0 0
vn -0.809082031 -0.587890625 0
vn -0.809082031 -0.587890625 0
vn -0.809082031 -0.587890625 0
vn -0.809082031 -0.587890625 0
vn -0.309082031 -0.951171875 0
vn -0.309082031 -0.951171875 0
vn 0.309082031 -0.951171875 0
vn 0.309082031 -0.951171875 0
vn 0.809082031 -0.587890625 0
vn 0.809082031 -0.587890625 0
vn 1 0 0
vn 1 0 0
vn 0.809082031 0.587890625 0
vn 0.809082031 0.587890625 0
vn 0.612792969 0.445068359 -0.653320312
vn 0.612792969 0.445068359 -0.653320312
vn 0.234008789 0.720214844 -0.653320312
vn 0.234008789 0.720214844 -0.653320312
vn -0.234008789 0.720214844 -0.653320312
vn -0.234008789 0.720214844 -0.653320312
vn -0.612792969 0.445068359 -0.653320312
vn -0.612792969 0.445068359 -0.653320312
vn -0.757324219 1.1920929E-07 -0.653320312
vn -0.757324219 2.32458115E-06 -0.653320312
vn -0.612792969 -0.445068359 -0.653320312
vn -0.612792969 -0.445068359 -0.653320312
vn 0.757324219 2.2649765E-06 -0.653320312
vn 0.612792969 0.445068359 -0.653320312
vn 0.612792969 0.445068359 -0.653320312
vn 0.757324219 0 -0.653320312
vn 0.612792969 -0.445068359 -0.653320312
vn 0.612792969 -0.445068359 -0.653320312
vn 0.234008789 -0.720214844 -0.653320312
vn 0.234008789 -0.720214844 -0.653320312
vn -0.234008789 -0.720214844 -0.653320312
vn -0.234008789 -0.720214844 -0.653320312
vn -0.612792969 -0.445068359 -0.653320312
vn -0.612792969 -0.445068359 -0.653320312
vn 0.809082031 0.587890625 0
vn 0.809082031 0.587890625 0
vn 0.309082031 0.951171875 0
vn 0.309082031 0.951171875 0
vn -0.309082031 0.951171875 0
vn -0.309082031 0.951171875 0
vn -0.809082031 0.587890625 0
vn -0.809082031 0.587890625 0
vn -1 0 0
vn -1 0 0
vn -0.809082031 -0.587890625 0
vn -0.809082031 -0.587890625 0
vn 1 0 0
vn 0.809082031 0.587890625 0
vn 0.809082031 0.587890625 0
vn 1 0 0
vn 0.809082031 -0.587890625 0
vn 0.809082031 -0.587890625 0
vn 0.309082031 -0.951171875 0
vn 0.309082031 -0.951171875 0
vn -0.309082031 -0.951171875 0
vn -0.309082031 -0.951171875 0
vn -0.809082031 -0.587890625 0
vn -0.809082031 -0.587890625 0
vn 0.809082031 0.587890625 0
vn 0.809082031 0.587890625 0
vn 0.309082031 0.951171875 0
vn 0.309082031 0.951171875 0
vn -0.309082031 0.951171875 0
vn -0.309082031 0.951171875 0
vn -0.809082031 0.587890625 0
vn -0.809082031 0.587890625 0
vn -1 0 0
vn -1 0 0
vn -0.809082031 -0.587890625 0
vn -0.809082031 -0.587890625 0
vn 1 0 0
vn 0.809082031 0.587890625 0
vn 0.809082031 0.587890625 0
vn 1 0 0
vn 0.809082031 -0.587890625 0
vn 0.809082031 -0.587890625 0
vn 0.309082031 -0.951171875 0
vn 0.309082031 -0.951171875 0
vn -0.309082031 -0.951171875 0
vn -0.309082031 -0.951171875 0
vn -0.809082031 -0.587890625 0
vn -0.809082031 -0.587890625 0
vn 0.569824219 0.413818359 0.709960938
vn 0.569824219 0.413818359 0.709960938
vn 0.217529297 0.669921875 0.709960938
vn 0.217529297 0.669921875 0.709960938
vn -0.217529297 0.669921875 0.709960938
vn -0.217529297 0.669921875 0.709960938
vn -0.569824219 0.413818359 0.709960938
vn -0.569824219 0.413818359 0.709960938
vn -0.704101562 2.02655792E-06 0.709960938
vn -0.704101562 -1.78813934E-07 0.709960938
vn -0.569824219 -0.413818359 0.709960938
vn -0.569824219 -0.413818359 0.709960938
vn 0.704101562 0 0.709960938
vn 0.569824219 0.413818359 0.709960938
vn 0.569824219 0.413818359 0.709960938
vn 0.704101562 2.20537186E-06 0.709960938
vn 0.569824219 -0.413818359 0.709960938
vn 0.569824219 -0.413818359 0.709960938
vn 0.217651367 -0.669921875 0.709960938
vn 0.217651367 -0.669921875 0.709960938
vn -0.217651367 -0.669921875 0.709960938
vn -0.217651367 -0.669921875 0.709960938
vn -0.569824219 -0.413818359 0.709960938
vn -0.569824219 -0.413818359 0.709960938
vn -0 1 0
vn -0 1 0
vn -0 1 0
vn -0 1 0
vn -0 0 -1
vn -0 0 -1
vn -0 0 -1
vn -0 0 -1
vn -0 -1 0
vn -0 -1 0
vn -0 -1 0
vn -0 -1 0
vn 1 0 0
vn 1 0 0
vn 1 0 0
vn 1 0 0
vn -1 0 0
vn -1 0 0
vn -1 0 0
vn -1 0 0
vn -0 0 -1
vn 1.1920929E-07 0 -1
vn -0 0 -1
vn 1.07288361E-06 0 -1
vn -0 0 -1
vn 1.07288361E-06 0 -1
vn -0 0 -1
vn -5.36441803E-07 0 -1
vn -0 0 -1
vn -5.36441803E-07 0 -1
vn -0 0 -1
vn -0 0 1
vn 2.38418579E-07 0 1
vn -0 0 1
vn -0 0 1
vn 1.07288361E-06 0 1
vn -0 0 1
vn 1.07288361E-06 0 1
vn -0 0 1
vn -0 0 1
vn -0 0 1
vn -0 0 1
g Mechanism_Lever_Handle_0
f 3/3/3 2/2/2 1/1/1
f 4/4/4 3/3/3 1/1/1
f 7/7/7 6/6/6 5/5/5
f 8/8/8 7/7/7 5/5/5
f 11/11/11 10/10/10 9/9/9
f 12/12/12 11/11/11 9/9/9
f 15/15/15 14/14/14 13/13/13
f 16/16/16 15/15/15 13/13/13
f 19/19/19 18/18/18 17/17/17
f 20/20/20 19/19/19 17/17/17
f 23/23/23 22/22/22 21/21/21
f 24/24/24 23/23/23 21/21/21
f 27/27/27 26/26/26 25/25/25
f 28/28/28 27/27/27 25/25/25
f 28/28/28 25/25/25 29/29/29
f 30/30/30 28/28/28 29/29/29
f 30/30/30 29/29/29 31/31/31
f 32/32/32 30/30/30 31/31/31
f 32/32/32 31/31/31 33/33/33
f 34/34/34 32/32/32 33/33/33
f 33/33/33 35/35/35 34/34/34
f 35/35/35 36/36/36 34/34/34
f 39/39/39 38/38/38 37/37/37
f 40/40/40 39/39/39 37/37/37
f 43/43/43 42/42/42 41/41/41
f 44/44/44 43/43/43 41/41/41
f 45/45/45 43/43/43 44/44/44
f 41/41/41 46/46/46 44/44/44
f 47/47/47 45/45/45 44/44/44
f 46/46/46 48/48/48 44/44/44
f 44/44/44 48/48/48 47/47/47
f 46/46/46 49/49/49 48/48/48
f 48/48/48 50/50/50 47/47/47
f 49/49/49 51/51/51 48/48/48
f 48/48/48 51/51/51 50/50/50
f 49/49/49 52/52/52 51/51/51
f 51/51/51 53/53/53 50/50/50
f 52/52/52 54/54/54 51/51/51
f 51/51/51 54/54/54 53/53/53
f 54/54/54 55/55/55 53/53/53
f 58/58/58 57/57/57 56/56/56
f 59/59/59 58/58/58 56/56/56
f 62/62/62 61/61/61 60/60/60
f 63/63/63 62/62/62 60/60/60
f 64/64/64 62/62/62 63/63/63
f 60/60/60 65/65/65 63/63/63
f 66/66/66 64/64/64 63/63/63
f 65/65/65 67/67/67 63/63/63
f 63/63/63 67/67/67 66/66/66
f 65/65/65 68/68/68 67/67/67
f 67/67/67 69/69/69 66/66/66
f 68/68/68 70/70/70 67/67/67
f 67/67/67 70/70/70 69/69/69
f 68/68/68 71/71/71 70/70/70
f 70/70/70 72/72/72 69/69/69
f 71/71/71 73/73/73 70/70/70
f 70/70/70 73/73/73 72/72/72
f 73/73/73 74/74/74 72/72/72
f 77/77/77 76/76/76 75/75/75
f 78/78/78 77/77/77 75/75/75
f 81/81/81 80/80/80 79/79/79
f 82/82/82 81/81/81 79/79/79
f 85/85/85 84/84/84 83/83/83
f 86/86/86 85/85/85 83/83/83
f 89/89/89 88/88/88 87/87/87
f 90/90/90 89/89/89 87/87/87
f 90/90/90 87/87/87 91/91/91
f 92/92/92 90/90/90 91/91/91
f 92/92/92 91/91/91 93/93/93
f 94/94/94 92/92/92 93/93/93
f 97/97/97 96/96/96 95/95/95
f 98/98/98 97/97/97 95/95/95
f 98/98/98 95/95/95 99/99/99
f 95/95/95 100/100/100 99/99/99
f 103/103/103 102/102/102 101/101/101
f 102/102/102 104/104/104 101/101/101
f 101/101/101 104/104/104 105/105/105
f 104/104/104 106/106/106 105/105/105
f 105/105/105 106/106/106 107/107/107
f 106/106/106 108/108/108 107/107/107
f 107/107/107 108/108/108 109/109/109
f 108/108/108 110/110/110 109/109/109
f 109/109/109 110/110/110 111/111/111
f 110/110/110 112/112/112 111/111/111
f 111/111/111 112/112/112 113/113/113
f 114/114/114 111/111/111 113/113/113
f 117/117/117 116/116/116 115/115/115
f 116/116/116 118/118/118 115/115/115
f 116/116/116 119/119/119 118/118/118
f 119/119/119 120/120/120 118/118/118
f 123/123/123 122/122/122 121/121/121
f 122/122/122 124/124/124 121/121/121
f 121/121/121 124/124/124 125/125/125
f 122/122/122 126/126/126 124/124/124
f 124/124/124 127/127/127 125/125/125
f 126/126/126 128/128/128 124/124/124
f 124/124/124 128/128/128 127/127/127
f 128/128/128 129/129/129 127/127/127
f 132/132/132 131/131/131 130/130/130
f 131/131/131 133/133/133 130/130/130
f 130/130/130 133/133/133 134/134/134
f 131/131/131 135/135/135 133/133/133
f 133/133/133 136/136/136 134/134/134
f 135/135/135 137/137/137 133/133/133
f 133/133/133 137/137/137 136/136/136
f 137/137/137 138/138/138 136/136/136
f 141/141/141 140/140/140 139/139/139
f 140/140/140 142/142/142 139/139/139
f 140/140/140 143/143/143 142/142/142
f 143/143/143 144/144/144 142/142/142
f 147/147/147 146/146/146 145/145/145
f 148/148/148 147/147/147 145/145/145
f 149/149/149 147/147/147 148/148/148
f 150/150/150 149/149/149 148/148/148
f 151/151/151 149/149/149 150/150/150
f 152/152/152 151/151/151 150/150/150
f 153/153/153 151/151/151 152/152/152
f 154/154/154 153/153/153 152/152/152
f 155/155/155 153/153/153 154/154/154
f 156/156/156 155/155/155 154/154/154
f 159/159/159 158/158/158 157/157/157
f 160/160/160 159/159/159 157/157/157
f 161/161/161 159/159/159 160/160/160
f 162/162/162 161/161/161 160/160/160
f 163/163/163 161/161/161 162/162/162
f 164/164/164 163/163/163 162/162/162
f 165/165/165 163/163/163 164/164/164
f 166/166/166 165/165/165 164/164/164
f 167/167/167 165/165/165 166/166/166
f 168/168/168 167/167/167 166/166/166
f 171/171/171 170/170/170 169/169/169
f 172/172/172 171/171/171 169/169/169
f 173/173/173 171/171/171 172/172/172
f 174/174/174 173/173/173 172/172/172
f 175/175/175 173/173/173 174/174/174
f 176/176/176 175/175/175 174/174/174
f 177/177/177 175/175/175 176/176/176
f 178/178/178 177/177/177 176/176/176
f 179/179/179 177/177/177 178/178/178
f 180/180/180 179/179/179 178/178/178
f 183/183/183 182/182/182 181/181/181
f 182/182/182 184/184/184 181/181/181
f 181/181/181 184/184/184 185/185/185
f 184/184/184 186/186/186 185/185/185
f 185/185/185 186/186/186 187/187/187
f 186/186/186 188/188/188 187/187/187
f 187/187/187 188/188/188 189/189/189
f 188/188/188 190/190/190 189/189/189
f 189/189/189 190/190/190 191/191/191
f 190/190/190 192/192/192 191/191/191
f 195/195/195 194/194/194 193/193/193
f 196/196/196 195/195/195 193/193/193
f 197/197/197 195/195/195 196/196/196
f 198/198/198 197/197/197 196/196/196
f 199/199/199 197/197/197 198/198/198
f 200/200/200 199/199/199 198/198/198
f 201/201/201 199/199/199 200/200/200
f 202/202/202 201/201/201 200/200/200
f 203/203/203 201/201/201 202/202/202
f 204/204/204 203/203/203 202/202/202
f 207/207/207 206/206/206 205/205/205
f 206/206/206 208/208/208 205/205/205
f 205/205/205 208/208/208 209/209/209
f 208/208/208 210/210/210 209/209/209
f 209/209/209 210/210/210 211/211/211
f 210/210/210 212/212/212 211/211/211
f 211/211/211 212/212/212 213/213/213
f 212/212/212 214/214/214 213/213/213
f 213/213/213 214/214/214 215/215/215
f 214/214/214 216/216/216 215/215/215
f 219/219/219 218/218/218 217/217/217
f 220/220/220 219/219/219 217/217/217
f 221/221/221 219/219/219 220/220/220
f 222/222/222 221/221/221 220/220/220
f 223/223/223 221/221/221 222/222/222
f 224/224/224 223/223/223 222/222/222
f 225/225/225 223/223/223 224/224/224
f 226/226/226 225/225/225 224/224/224
f 227/227/227 225/225/225 226/226/226
f 228/228/228 227/227/227 226/226/226
f 231/231/231 230/230/230 229/229/229
f 230/230/230 232/232/232 229/229/229
f 229/229/229 232/232/232 233/233/233
f 232/232/232 234/234/234 233/233/233
f 233/233/233 234/234/234 235/235/235
f 234/234/234 236/236/236 235/235/235
f 235/235/235 236/236/236 237/237/237
f 236/236/236 238/238/238 237/237/237
f 237/237/237 238/238/238 239/239/239
f 238/238/238 240/240/240 239/239/239
f 243/243/243 242/242/242 241/241/241
f 244/244/244 243/243/243 241/241/241
f 245/245/245 243/243/243 244/244/244
f 246/246/246 245/245/245 244/244/244
f 247/247/247 245/245/245 246/246/246
f 248/248/248 247/247/247 246/246/246
f 249/249/249 247/247/247 248/248/248
f 250/250/250 249/249/249 248/248/248
f 251/251/251 249/249/249 250/250/250
f 252/252/252 251/251/251 250/250/250
f 255/255/255 254/254/254 253/253/253
f 254/254/254 256/256/256 253/253/253
f 253/253/253 256/256/256 257/257/257
f 256/256/256 258/258/258 257/257/257
f 257/257/257 258/258/258 259/259/259
f 258/258/258 260/260/260 259/259/259
f 259/259/259 260/260/260 261/261/261
f 260/260/260 262/262/262 261/261/261
f 261/261/261 262/262/262 263/263/263
f 262/262/262 264/264/264 263/263/263
f 267/267/267 266/266/266 265/265/265
f 268/268/268 267/267/267 265/265/265
f 271/271/271 270/270/270 269/269/269
f 272/272/272 271/271/271 269/269/269
f 275/275/275 274/274/274 273/273/273
f 276/276/276 275/275/275 273/273/273
f 279/279/279 278/278/278 277/277/277
f 280/280/280 279/279/279 277/277/277
f 283/283/283 282/282/282 281/281/281
f 284/284/284 283/283/283 281/281/281
f 287/287/287 286/286/286 285/285/285
f 285/285/285 286/286/286 288/288/288
f 289/289/289 286/286/286 287/287/287
f 288/288/288 286/286/286 290/290/290
f 291/291/291 286/286/286 289/289/289
f 290/290/290 286/286/286 292/292/292
f 293/293/293 286/286/286 291/291/291
f 292/292/292 286/286/286 294/294/294
f 295/295/295 286/286/286 293/293/293
f 294/294/294 286/286/286 295/295/295
f 298/298/298 297/297/297 296/296/296
f 296/296/296 297/297/297 299/299/299
f 300/300/300 297/297/297 298/298/298
f 299/299/299 297/297/297 301/301/301
f 302/302/302 297/297/297 300/300/300
f 301/301/301 297/297/297 303/303/303
f 304/304/304 297/297/297 302/302/302
f 303/303/303 297/297/297 305/305/305
f 306/306/306 297/297/297 304/304/304
f 305/305/305 297/297/297 306/306/306
