g ModularPipesA_ShortCurve
v -0.0199975576 0.225419924 0.0346411131
v -0.0199975576 0.225419924 0.178665161
v -0.0599975586 0.225419924 0.178665161
v -0.0599975586 0.225419924 0.0346411131
v -0.0599975586 0.225419924 0.0346411131
v -0.0599975586 0.225419924 0.178665161
v -0.0799975544 0.190778807 0.178665161
v -0.0799975544 0.190778807 0.0346411131
v -0.0599975586 0.15613769 0.178665161
v -0.0599975586 0.15613769 0.0346411131
v -0.0599975586 0.15613769 0.0346411131
v -0.0599975586 0.15613769 0.178665161
v -0.0199975576 0.15613769 0.178665161
v -0.0199975576 0.15613769 0.0346411131
v -0.0199975576 0.15613769 0.0346411131
v -0.0199975576 0.15613769 0.178665161
v 2.4414062E-06 0.190778807 0.178665161
v 2.4414062E-06 0.190778807 0.0346411131
v -0.0199975576 0.225419924 0.178665161
v -0.0199975576 0.225419924 0.0346411131
v -0.0199975576 0 -0.0346408077
v -0.0199975576 0.15613769 -0.0346408077
v -0.0599975586 0.15613769 -0.0346408077
v -0.0599975586 0 -0.0346408077
v -0.0599975586 0 -0.0346408077
v -0.0599975586 0.15613769 -0.0346408077
v -0.0799975544 0.15613769 0
v -0.0799975544 0 0
v -0.0599975586 0.15613769 0.0346411131
v -0.0599975586 0 0.0346411131
v -0.0599975586 0 0.0346411131
v -0.0599975586 0.15613769 0.0346411131
v -0.0199975576 0.15613769 0.0346411131
v -0.0199975576 0 0.0346411131
v -0.0199975576 0 0.0346411131
v -0.0199975576 0.15613769 0.0346411131
v 2.4414062E-06 0.15613769 0
v 2.4414062E-06 0 0
v -0.0199975576 0.15613769 -0.0346408077
v -0.0199975576 0 -0.0346408077
v -0.0599975586 0.225419924 0.0346411131
v -0.0599975586 0.207565919 -0.0173324589
v -0.0199975576 0.207565919 -0.0173324589
v -0.0199975576 0.225419924 0.0346411131
v -0.0799975544 0.190778807 0.0346411131
v -0.0599975586 0.207565919 -0.0173324589
v -0.0599975586 0.225419924 0.0346411131
v -0.0799975544 0.185959473 0.00427459693
v -0.0599975586 0.15613769 0.0346411131
v -0.0599975586 0.15613769 -0.0346408077
v -0.0799975544 0.15613769 0
v 2.4414062E-06 0.190778807 0.0346411131
v 2.4414062E-06 0.15613769 0
v -0.0199975576 0.15613769 0.0346411131
v 2.4414062E-06 0.185959473 0.00427459693
v -0.0199975576 0.225419924 0.0346411131
v -0.0199975576 0.207565919 -0.0173324589
v -0.0199975576 0.15613769 -0.0346408077
v -0.0599975586 0.207565919 -0.0173324589
v -0.0599975586 0.15613769 -0.0346408077
v -0.0199975576 0.15613769 -0.0346408077
v -0.0199975576 0.207565919 -0.0173324589
vt 0.771484375 0.0475158691
vt 0.828613281 0.0475158691
vt 0.828613281 0.033203125
vt 0.771484375 0.033203125
vt 0.771484375 0.033203125
vt 0.828613281 0.033203125
vt 0.828613281 0.0188751221
vt 0.771484375 0.0188751221
vt 0.828613281 0.0039100647
vt 0.771484375 0.0039100647
vt 0.771484375 0.0895385742
vt 0.828613281 0.0895385742
vt 0.828613281 0.076171875
vt 0.771484375 0.076171875
vt 0.771484375 0.076171875
vt 0.828613281 0.076171875
vt 0.828613281 0.0618286133
vt 0.771484375 0.0618286133
vt 0.828613281 0.0475158691
vt 0.771484375 0.0475158691
vt 0.831054688 0.0475158691
vt 0.769042969 0.0475158691
vt 0.769042969 0.0618286133
vt 0.831054688 0.0618286133
vt 0.831054688 0.0618286133
vt 0.769042969 0.0618286133
vt 0.769042969 0.076171875
vt 0.831054688 0.076171875
vt 0.769042969 0.0895385742
vt 0.831054688 0.0895385742
vt 0.831054688 0.0039100647
vt 0.769042969 0.0039100647
vt 0.769042969 0.0188751221
vt 0.831054688 0.0188751221
vt 0.831054688 0.0188751221
vt 0.769042969 0.0188751221
vt 0.769042969 0.033203125
vt 0.831054688 0.033203125
vt 0.769042969 0.0475158691
vt 0.831054688 0.0475158691
vt 0.770019531 0.0502319336
vt 0.791015625 0.0470275879
vt 0.791015625 0.0338439941
vt 0.768554688 0.0327453613
vt 0.780761719 0.0645141602
vt 0.791015625 0.0470275879
vt 0.770019531 0.0502319336
vt 0.792480469 0.0592651367
vt 0.79296875 0.0764770508
vt 0.813476562 0.0481262207
vt 0.804199219 0.0635375977
vt 0.777832031 0.0174102783
vt 0.801269531 0.0162963867
vt 0.7890625 0.0039100647
vt 0.790039062 0.0216064453
vt 0.768554688 0.0327453613
vt 0.791015625 0.0338439941
vt 0.812011719 0.0306396484
vt 0.791015625 0.0470275879
vt 0.813476562 0.0481262207
vt 0.812011719 0.0306396484
vt 0.791015625 0.0338439941
vn 0.467041016 0.881347656 -0.0695800781
vn 0.5 0.866210938 0
vn -0.5 0.866210938 0
vn -0.467041016 0.881347656 -0.0695800781
vn -0.467041016 0.881347656 -0.0695800781
vn -0.5 0.866210938 0
vn -1 0 0
vn -0.999023438 0.046875 0.00567245483
vn -0.5 -0.866210938 0
vn -0.650878906 -0.515625 0.557617188
vn -0.650878906 -0.515625 0.557617188
vn -0.5 -0.866210938 0
vn 0.5 -0.866210938 0
vn 0.650878906 -0.515625 0.557617188
vn 0.650878906 -0.515625 0.557617188
vn 0.5 -0.866210938 0
vn 1 0 0
vn 0.999023438 0.046875 0.00567245483
vn 0.5 0.866210938 0
vn 0.467041016 0.881347656 -0.0695800781
vn 0.5 0 -0.866210938
vn 0.469238281 0.0633544922 -0.880859375
vn -0.469238281 0.0633544922 -0.880859375
vn -0.5 0 -0.866210938
vn -0.5 0 -0.866210938
vn -0.469238281 0.0633544922 -0.880859375
vn -0.999023438 -0.00657653809 -0.0423583984
vn -1 0 0
vn -0.650878906 -0.515625 0.557617188
vn -0.5 0 0.866210938
vn -0.5 0 0.866210938
vn -0.650878906 -0.515625 0.557617188
vn 0.650878906 -0.515625 0.557617188
vn 0.5 0 0.866210938
vn 0.5 0 0.866210938
vn 0.650878906 -0.515625 0.557617188
vn 0.999023438 -0.00657653809 -0.0423583984
vn 1 0 0
vn 0.469238281 0.0633544922 -0.880859375
vn 0.5 0 -0.866210938
vn -0.467041016 0.881347656 -0.0695800781
vn -0.357421875 0.660644531 -0.66015625
vn 0.357421875 0.660644531 -0.66015625
vn 0.467041016 0.881347656 -0.0695800781
vn -0.999023438 0.046875 0.00567245483
vn -0.357421875 0.660644531 -0.66015625
vn -0.467041016 0.881347656 -0.0695800781
vn -0.958496094 0.200927734 -0.201782227
vn -0.650878906 -0.515625 0.557617188
vn -0.469238281 0.0633544922 -0.880859375
vn -0.999023438 -0.00657653809 -0.0423583984
vn 0.999023438 0.046875 0.00567245483
vn 0.999023438 -0.00657653809 -0.0423583984
vn 0.650878906 -0.515625 0.557617188
vn 0.958496094 0.200927734 -0.201782227
vn 0.467041016 0.881347656 -0.0695800781
vn 0.357421875 0.660644531 -0.66015625
vn 0.469238281 0.0633544922 -0.880859375
vn -0.357421875 0.660644531 -0.66015625
vn -0.469238281 0.0633544922 -0.880859375
vn 0.469238281 0.0633544922 -0.880859375
vn 0.357421875 0.660644531 -0.66015625
g ModularPipesA_ShortCurve_0
f 3/3/3 2/2/2 1/1/1
f 4/4/4 3/3/3 1/1/1
f 7/7/7 6/6/6 5/5/5
f 8/8/8 7/7/7 5/5/5
f 9/9/9 7/7/7 8/8/8
f 10/10/10 9/9/9 8/8/8
f 13/13/13 12/12/12 11/11/11
f 14/14/14 13/13/13 11/11/11
f 17/17/17 16/16/16 15/15/15
f 18/18/18 17/17/17 15/15/15
f 19/19/19 17/17/17 18/18/18
f 20/20/20 19/19/19 18/18/18
f 23/23/23 22/22/22 21/21/21
f 24/24/24 23/23/23 21/21/21
f 27/27/27 26/26/26 25/25/25
f 28/28/28 27/27/27 25/25/25
f 29/29/29 27/27/27 28/28/28
f 30/30/30 29/29/29 28/28/28
f 33/33/33 32/32/32 31/31/31
f 34/34/34 33/33/33 31/31/31
f 37/37/37 36/36/36 35/35/35
f 38/38/38 37/37/37 35/35/35
f 39/39/39 37/37/37 38/38/38
f 40/40/40 39/39/39 38/38/38
f 43/43/43 42/42/42 41/41/41
f 44/44/44 43/43/43 41/41/41
f 47/47/47 46/46/46 45/45/45
f 46/46/46 48/48/48 45/45/45
f 45/45/45 48/48/48 49/49/49
f 46/46/46 50/50/50 48/48/48
f 48/48/48 51/51/51 49/49/49
f 50/50/50 51/51/51 48/48/48
f 54/54/54 53/53/53 52/52/52
f 53/53/53 55/55/55 52/52/52
f 52/52/52 55/55/55 56/56/56
f 55/55/55 57/57/57 56/56/56
f 55/55/55 53/53/53 57/57/57
f 53/53/53 58/58/58 57/57/57
f 61/61/61 60/60/60 59/59/59
f 62/62/62 61/61/61 59/59/59
