g CatwalkEast_Floor_7
v 45.5290604 4.01231623 0.0232434068
v 47.1416626 4.01231623 0.679762721
v 45.5290604 4.01231623 0.679762721
v 45.5290604 4.01231623 0.679762721
v 47.1416626 4.01231623 0.679762721
v 47.1416626 4.01231623 1.78693843
v 45.5290604 4.01231623 1.78693843
v 45.5290604 4.01231623 -1.82024169
v 45.5290604 4.01231623 0.0232434068
v 45.5290604 3.84036827 0.0232434068
v 45.5290604 3.84036827 -1.82024169
v 45.5290604 4.01231623 0.0232434068
v 45.5290604 4.01231623 -1.82024169
v 47.1416626 4.01231623 -1.82024169
v 47.1416626 4.01231623 0.679762721
v 47.2708397 4.01231623 0.679762721
v 47.2708397 4.01231623 -1.82024169
v 45.6480598 3.7286129 0.1422434
v 45.6480598 3.7286129 -1.82024169
v 45.6480598 3.84036827 -1.82024169
v 45.6480598 3.84036827 0.1422434
v 45.5290604 3.84036827 0.0232434068
v 45.6480598 3.84036827 0.1422434
v 45.6480598 3.84036827 -1.82024169
v 45.5290604 3.84036827 -1.82024169
v 45.5648727 3.71231627 -1.82024169
v 45.5648727 3.71231627 0.0590536445
v 45.5648727 3.59293365 0.0590536445
v 45.5648727 3.59293365 -1.82024169
v 47.1416626 3.59293365 -1.82024169
v 45.5648727 3.59293365 -1.82024169
v 45.5648727 3.59293365 0.0590536445
v 47.1416626 3.59293365 0.679762721
v 45.5648727 3.59293365 0.67976284
v 45.6480598 3.7286129 -1.82024169
v 45.6480598 3.7286129 0.1422434
v 45.5648727 3.71231627 0.0590536445
v 45.5648727 3.71231627 -1.82024169
v 47.1416626 3.59293365 1.78693843
v 47.1416626 3.59293365 0.679762721
v 45.5648727 3.59293365 0.67976284
v 45.5648727 3.59293318 1.78693843
vt 0.432617188 0.0498046875
vt 0.496582031 0.206542969
vt 0.496582031 0.0448303223
vt 0.253662109 0.0448303223
vt 0.253662109 0.206542969
vt 0.373535156 0.206542969
vt 0.373535156 0.0460205078
vt 0.4375 0.328125
vt 0.659179688 0.328125
vt 0.659179688 0.307373047
vt 0.4375 0.307373047
vt 0.432617188 0.0498046875
vt 0.253662109 0.0498046875
vt 0.253662109 0.206542969
vt 0.496582031 0.206542969
vt 0.496582031 0.223999023
vt 0.253417969 0.223999023
vt 0.673339844 0.277587891
vt 0.4375 0.277587891
vt 0.4375 0.29296875
vt 0.673339844 0.29296875
vt 0.659179688 0.307373047
vt 0.673339844 0.29296875
vt 0.4375 0.29296875
vt 0.4375 0.307373047
vt 0.4375 0.267822266
vt 0.663574219 0.267822266
vt 0.663574219 0.253417969
vt 0.4375 0.253417969
vt 0.253662109 0.0547180176
vt 0.253662109 0.207397461
vt 0.435791016 0.207397461
vt 0.496582031 0.0547180176
vt 0.496582031 0.208007812
vt 0.4375 0.277587891
vt 0.673339844 0.277587891
vt 0.663574219 0.267822266
vt 0.4375 0.267822266
vt 0.373046875 0.0547180176
vt 0.253662109 0.0547180176
vt 0.253662109 0.208007812
vt 0.373046875 0.206420898
vn -0 1 0
vn -0 1 0
vn -0 1 0
vn -0 1 0
vn -0 1 0
vn -0 1 0
vn -0 1 0
vn -1 0 0
vn -1 0 0
vn -1 0 0
vn -1 0 0
vn -0 1 0
vn -0 1 0
vn -0 1 0
vn -0 1 0
vn -0 1 0
vn -0 1 0
vn -1 0 0
vn -1 0 0
vn -1 0 0
vn -1 0 0
vn -0 -1 0
vn -0 -1 0
vn -0 -1 0
vn -0 -1 0
vn -1 0 0
vn -1 0 0
vn -1 0 0
vn -1 0 0
vn -0 -1 0
vn -0 -1 0
vn -0 -1 0
vn -0 -1 0
vn -0 -1 0
vn -0.192260742 0.981445312 0
vn -0.192260742 0.981445312 0
vn -0.192260742 0.981445312 0
vn -0.192260742 0.981445312 0
vn -0 -1 -2.38418579E-07
vn -0 -1 -2.38418579E-07
vn -0 -1 -2.38418579E-07
vn -0 -1 -2.38418579E-07
g CatwalkEast_Floor_7_0
f 3/3/3 2/2/2 1/1/1
f 6/6/6 5/5/5 4/4/4
f 7/7/7 6/6/6 4/4/4
f 10/10/10 9/9/9 8/8/8
f 11/11/11 10/10/10 8/8/8
f 14/14/14 13/13/13 12/12/12
f 15/15/15 14/14/14 12/12/12
f 15/15/15 16/16/16 14/14/14
f 16/16/16 17/17/17 14/14/14
f 20/20/20 19/19/19 18/18/18
f 21/21/21 20/20/20 18/18/18
f 24/24/24 23/23/23 22/22/22
f 25/25/25 24/24/24 22/22/22
f 28/28/28 27/27/27 26/26/26
f 29/29/29 28/28/28 26/26/26
f 32/32/32 31/31/31 30/30/30
f 33/33/33 32/32/32 30/30/30
f 34/34/34 32/32/32 33/33/33
f 37/37/37 36/36/36 35/35/35
f 38/38/38 37/37/37 35/35/35
f 41/41/41 40/40/40 39/39/39
f 42/42/42 41/41/41 39/39/39
