g HydroelectricPlant_Ceiling_20
v 41.0519638 7.71231604 -18.2486877
v 43.5519638 7.71231604 -18.2486877
v 43.5519638 7.71231604 -20.7486877
v 41.0519638 7.71231604 -20.7486877
v 43.5519638 7.71231604 -18.2486877
v 46.05196 7.71231604 -18.2486877
v 46.05196 7.71231604 -20.7486877
v 43.5519638 7.71231604 -20.7486877
v 46.05196 7.71231604 -18.2486877
v 47.2651978 7.71231604 -18.2486877
v 47.2651978 7.71231604 -20.7486877
v 46.05196 7.71231604 -20.7486877
v 41.0519638 7.71231604 -20.7486877
v 43.5519638 7.71231604 -20.7486877
v 43.5519638 7.71231604 -23.2486877
v 41.0519638 7.71231604 -23.2486877
v 43.5519638 7.71231604 -20.7486877
v 46.05196 7.71231604 -20.7486877
v 46.05196 7.71231604 -23.2486877
v 43.5519638 7.71231604 -23.2486877
v 46.05196 7.71231604 -20.7486877
v 47.2651978 7.71231604 -20.7486877
v 47.2651978 7.71231604 -23.2486877
v 46.05196 7.71231604 -23.2486877
v 41.0519638 7.71231604 -23.2486877
v 43.5519638 7.71231604 -23.2486877
v 43.5519638 7.71231604 -23.5773773
v 41.0519638 7.71231604 -23.5773773
v 43.5519638 7.71231604 -23.2486877
v 46.05196 7.71231604 -23.2486877
v 46.05196 7.71231604 -23.5773773
v 43.5519638 7.71231604 -23.5773773
v 46.05196 7.71231604 -23.2486877
v 47.2651978 7.71231604 -23.2486877
v 47.2651978 7.71231604 -23.5773773
v 46.05196 7.71231604 -23.5773773
vt 0.258056641 0.00944519043
vt 0.491455078 0.00944519043
vt 0.491455078 0.244628906
vt 0.258056641 0.244628906
vt 0.258056641 0.00944519043
vt 0.491455078 0.00944519043
vt 0.491455078 0.244628906
vt 0.258056641 0.244628906
vt 0.258056641 0.00944519043
vt 0.371337891 0.00944519043
vt 0.371337891 0.244628906
vt 0.258056641 0.244628906
vt 0.258056641 0.00944519043
vt 0.491455078 0.00944519043
vt 0.491455078 0.244628906
vt 0.258056641 0.244628906
vt 0.258056641 0.00944519043
vt 0.491455078 0.00944519043
vt 0.491455078 0.244628906
vt 0.258056641 0.244628906
vt 0.258056641 0.00944519043
vt 0.371337891 0.00944519043
vt 0.371337891 0.244628906
vt 0.258056641 0.244628906
vt 0.258056641 0.00944519043
vt 0.491455078 0.00944519043
vt 0.491455078 0.0403747559
vt 0.258056641 0.0403747559
vt 0.258056641 0.00944519043
vt 0.491455078 0.00944519043
vt 0.491455078 0.0403747559
vt 0.258056641 0.0403747559
vt 0.258056641 0.00944519043
vt 0.371337891 0.00944519043
vt 0.371337891 0.0403747559
vt 0.258056641 0.0403747559
vn -0 -1 0
vn -0 -1 0
vn -0 -1 0
vn -0 -1 0
vn -0 -1 0
vn -0 -1 0
vn -0 -1 0
vn -0 -1 0
vn -0 -1 0
vn -0 -1 0
vn -0 -1 0
vn -0 -1 0
vn -0 -1 0
vn -0 -1 0
vn -0 -1 0
vn -0 -1 0
vn -0 -1 0
vn -0 -1 0
vn -0 -1 0
vn -0 -1 0
vn -0 -1 0
vn -0 -1 0
vn -0 -1 0
vn -0 -1 0
vn -0 -1 0
vn -0 -1 0
vn -0 -1 0
vn -0 -1 0
vn -0 -1 0
vn -0 -1 0
vn -0 -1 0
vn -0 -1 0
vn -0 -1 0
vn -0 -1 0
vn -0 -1 0
vn -0 -1 0
g HydroelectricPlant_Ceiling_20_0
f 3/3/3 2/2/2 1/1/1
f 4/4/4 3/3/3 1/1/1
f 7/7/7 6/6/6 5/5/5
f 8/8/8 7/7/7 5/5/5
f 11/11/11 10/10/10 9/9/9
f 12/12/12 11/11/11 9/9/9
f 15/15/15 14/14/14 13/13/13
f 16/16/16 15/15/15 13/13/13
f 19/19/19 18/18/18 17/17/17
f 20/20/20 19/19/19 17/17/17
f 23/23/23 22/22/22 21/21/21
f 24/24/24 23/23/23 21/21/21
f 27/27/27 26/26/26 25/25/25
f 28/28/28 27/27/27 25/25/25
f 31/31/31 30/30/30 29/29/29
f 32/32/32 31/31/31 29/29/29
f 35/35/35 34/34/34 33/33/33
f 36/36/36 35/35/35 33/33/33
