g BlueCeilingLampOff_Light
v 0.0178205725 -0.0260904543 -0.0308644082
v -0.0308635086 -3.66258604E-07 -0.0534588546
v -0.0178190749 -0.0260904543 -0.0308644082
v 0.0308625642 -3.66258604E-07 -0.0534588546
v 0.0356379561 -0.0260904543 -1.4966416E-07
v -0.0356388986 0.0356392823 -0.061729271
v 0.0617292635 -3.66258604E-07 -1.4966416E-07
v 0.0356379561 0.0356392823 -0.061729271
v 0.0712800473 0.0356392823 -1.4966416E-07
v -0.0356388986 -0.0260904543 -1.4966416E-07
v -0.0308635086 -3.66258604E-07 0.0534590185
v -0.0178190749 -0.0260904543 0.0308645647
v -0.061730206 -3.66258604E-07 -1.4966416E-07
v -0.0178190749 -0.0260904543 -0.0308644082
v -0.0356388986 0.0356392823 0.0617292821
v -0.0308635086 -3.66258604E-07 -0.0534588546
v -0.0712809861 0.0356392823 -1.4966416E-07
v -0.0356388986 0.0356392823 -0.061729271
v -0.0178190749 -0.0260904543 0.0308645647
v -0.0308635086 -3.66258604E-07 0.0534590185
v 0.0308625642 -3.66258604E-07 0.0534590185
v 0.0178205725 -0.0260904543 0.0308645647
v 0.0617292635 -3.66258604E-07 -1.4966416E-07
v 0.0356379561 -0.0260904543 -1.4966416E-07
v -1.69293207E-06 -0.0356394053 -1.4966416E-07
v -0.0356388986 -0.0260904543 -1.4966416E-07
v 0.0178205725 -0.0260904543 -0.0308644082
v -0.0178190749 -0.0260904543 -0.0308644082
v -0.0308635086 -3.66258604E-07 0.0534590185
v -0.0356388986 0.0356392823 0.0617292821
v 0.0356379561 0.0356392823 0.0617292821
v 0.0308625642 -3.66258604E-07 0.0534590185
v 0.0308625642 -3.66258604E-07 0.0534590185
v 0.0356379561 0.0356392823 0.0617292821
v 0.0712800473 0.0356392823 -1.4966416E-07
v 0.0617292635 -3.66258604E-07 -1.4966416E-07
vt 0.267822266 0.441894531
vt 0.268554688 0.429443359
vt 0.264892578 0.435791016
vt 0.275146484 0.441894531
vt 0.263916016 0.447509766
vt 0.271972656 0.422607422
vt 0.267578125 0.453857422
vt 0.282714844 0.44140625
vt 0.271728516 0.460205078
vt 0.258056641 0.435302734
vt 0.246826172 0.440917969
vt 0.254150391 0.440917969
vt 0.254394531 0.428955078
vt 0.264892578 0.435791016
vt 0.239135742 0.44140625
vt 0.268554688 0.429443359
vt 0.250244141 0.422607422
vt 0.271972656 0.422607422
vt 0.254150391 0.440917969
vt 0.246826172 0.440917969
vt 0.253417969 0.453369141
vt 0.257080078 0.447021484
vt 0.267578125 0.453857422
vt 0.263916016 0.447509766
vt 0.260986328 0.44140625
vt 0.258056641 0.435302734
vt 0.267822266 0.441894531
vt 0.264892578 0.435791016
vt 0.246826172 0.440917969
vt 0.239135742 0.44140625
vt 0.25 0.460205078
vt 0.253417969 0.453369141
vt 0.253417969 0.453369141
vt 0.25 0.460205078
vt 0.271728516 0.460205078
vt 0.267578125 0.453857422
vn 0.322021484 -0.765136719 -0.557617188
vn -0.452392578 -0.425292969 -0.783691406
vn -0.322021484 -0.765136719 -0.557617188
vn 0.452392578 -0.425292969 -0.783691406
vn 0.644042969 -0.765136719 -2.98023224E-07
vn -0.482910156 -0.258789062 -0.836425781
vn 0.905273438 -0.425292969 2.38418579E-07
vn 0.482910156 -0.258789062 -0.836425781
vn 0.965820312 -0.258789062 2.38418579E-07
vn -0.644042969 -0.765136719 4.76837158E-07
vn -0.452636719 -0.425292969 0.783691406
vn -0.322021484 -0.765136719 0.557617188
vn -0.905273438 -0.425292969 2.38418579E-07
vn -0.322021484 -0.765136719 -0.557617188
vn -0.482910156 -0.258789062 0.836425781
vn -0.452392578 -0.425292969 -0.783691406
vn -0.965820312 -0.258789062 0
vn -0.482910156 -0.258789062 -0.836425781
vn -0.322021484 -0.765136719 0.557617188
vn -0.452636719 -0.425292969 0.783691406
vn 0.452392578 -0.425292969 0.783691406
vn 0.322021484 -0.765136719 0.557617188
vn 0.905273438 -0.425292969 2.38418579E-07
vn 0.644042969 -0.765136719 -2.98023224E-07
vn -9.59634781E-06 -1 -2.38418579E-07
vn -0.644042969 -0.765136719 4.76837158E-07
vn 0.322021484 -0.765136719 -0.557617188
vn -0.322021484 -0.765136719 -0.557617188
vn -0.452636719 -0.425292969 0.783691406
vn -0.482910156 -0.258789062 0.836425781
vn 0.482910156 -0.258789062 0.836425781
vn 0.452392578 -0.425292969 0.783691406
vn 0.452392578 -0.425292969 0.783691406
vn 0.482910156 -0.258789062 0.836425781
vn 0.965820312 -0.258789062 2.38418579E-07
vn 0.905273438 -0.425292969 2.38418579E-07
g BlueCeilingLampOff_Light_0
f 3/3/3 2/2/2 1/1/1
f 2/2/2 4/4/4 1/1/1
f 1/1/1 4/4/4 5/5/5
f 2/2/2 6/6/6 4/4/4
f 4/4/4 7/7/7 5/5/5
f 6/6/6 8/8/8 4/4/4
f 4/4/4 8/8/8 7/7/7
f 8/8/8 9/9/9 7/7/7
f 12/12/12 11/11/11 10/10/10
f 11/11/11 13/13/13 10/10/10
f 10/10/10 13/13/13 14/14/14
f 11/11/11 15/15/15 13/13/13
f 13/13/13 16/16/16 14/14/14
f 15/15/15 17/17/17 13/13/13
f 13/13/13 17/17/17 16/16/16
f 17/17/17 18/18/18 16/16/16
f 21/21/21 20/20/20 19/19/19
f 22/22/22 21/21/21 19/19/19
f 23/23/23 21/21/21 22/22/22
f 24/24/24 23/23/23 22/22/22
f 19/19/19 25/25/25 22/22/22
f 22/22/22 25/25/25 24/24/24
f 26/26/26 25/25/25 19/19/19
f 24/24/24 25/25/25 27/27/27
f 28/28/28 25/25/25 26/26/26
f 27/27/27 25/25/25 28/28/28
f 31/31/31 30/30/30 29/29/29
f 32/32/32 31/31/31 29/29/29
f 35/35/35 34/34/34 33/33/33
f 36/36/36 35/35/35 33/33/33
