g Pantry_Fridge_Door_Down
v 0.116632737 0.589429021 0.88535583
v 0.106947675 0.589429021 0.876101077
v 0.106978498 0.589429021 0.895010352
v 0.0927844718 0.623096943 0.910168767
v 0.0927844718 0.623068273 0.807540596
v 0.0927844718 0.58417362 0.910134256
v 0.0927844718 0.58417362 0.807468534
v 0.0830994099 0.626911342 0.913985908
v 0.0927844718 0.623096943 0.910168767
v 0.0830994099 0.580359817 0.913943768
v 0.0927844718 0.58417362 0.910134256
v 0.0830994099 0.580359817 0.913943768
v 0.0927844718 0.58417362 0.910134256
v 0.0830994099 0.580359817 0.803647161
v 0.0927844718 0.58417362 0.807468534
v 0.0830994099 0.580359817 0.803647161
v 0.0927844718 0.58417362 0.807468534
v 0.0830994099 0.626881123 0.803734422
v 0.0927844718 0.623068273 0.807540596
v 0.0830994099 0.626881123 0.803734422
v 0.0927844718 0.623068273 0.807540596
v 0.0830994099 0.626911342 0.913985908
v 0.0927844718 0.623096943 0.910168767
v 0.106947675 0.617830813 0.876101077
v 0.0924951658 0.617830813 0.876101077
v 0.106947675 0.589429021 0.876101077
v 0.0924951658 0.589429021 0.876101077
v 0.106978498 0.589429021 0.895010352
v 0.106947675 0.589429021 0.876101077
v 0.0924951658 0.589429021 0.895010352
v 0.0924951658 0.589429021 0.876101077
v 0.106978498 0.589429021 0.895010352
v 0.0924951658 0.589429021 0.895010352
v 0.106978498 0.617830813 0.895010352
v 0.0924951658 0.617830813 0.895010352
v 0.106947675 0.589429021 0.876101077
v 0.106947675 0.589429021 0.728151858
v 0.106947675 0.617830813 0.876101077
v 0.106947675 0.617830813 0.728151858
v 0.106947675 0.594271243 0.723309636
v 0.106947675 0.612988591 0.723309636
v 0.106947675 0.594271243 0.723309636
v 0.106947675 0.589429021 0.728151858
v 0.111790508 0.594271243 0.723309636
v 0.116632737 0.589429021 0.728151858
v 0.116632737 0.589429021 0.728151858
v 0.116632737 0.617830813 0.728151858
v 0.111790508 0.594271243 0.723309636
v 0.111790508 0.612988591 0.723309636
v 0.106947675 0.612988591 0.723309636
v 0.111790508 0.612988591 0.723309636
v 0.106947675 0.617830813 0.728151858
v 0.116632737 0.617830813 0.728151858
v 0.116632737 0.617830813 0.88535583
v 0.116632737 0.617830813 0.728151858
v 0.116632737 0.589429021 0.88535583
v 0.116632737 0.589429021 0.728151858
v 0.106947675 0.589429021 0.728151858
v 0.106947675 0.589429021 0.876101077
v 0.116632737 0.589429021 0.728151858
v 0.116632737 0.589429021 0.88535583
v 0.111790508 0.594271243 0.723309636
v 0.111790508 0.612988591 0.723309636
v 0.106947675 0.594271243 0.723309636
v 0.106947675 0.612988591 0.723309636
v 0.106947675 0.617830813 0.728151858
v 0.116632737 0.617830813 0.728151858
v 0.106947675 0.617830813 0.876101077
v 0.116632737 0.617830813 0.88535583
v 0.106978498 0.617830813 0.895010352
v 0.106978498 0.617830813 0.895010352
v 0.0924951658 0.617830813 0.895010352
v 0.106947675 0.617830813 0.876101077
v 0.0924951658 0.617830813 0.876101077
v 0.106978498 0.589429021 0.895010352
v 0.106978498 0.617830813 0.895010352
v 0.116632737 0.589429021 0.88535583
v 0.116632737 0.617830813 0.88535583
v 4.40923777E-08 -0.661416888 1
v 0.0302133597 -0.661416888 1
v 4.40923777E-08 -0.661416888 -2.2737367E-15
v 0.0302133597 -0.661416888 -2.2737367E-15
v 0.070385173 -0.661416888 0.967862248
v 0.070385173 -0.661416888 0.0321377553
v 0.0852133632 -0.661416769 0.06302917
v 0.0852133632 -0.661416769 0.93697083
v 4.40923777E-08 -0.661416888 -2.2737367E-15
v 0.0302133597 -0.661416888 -2.2737367E-15
v 4.40923777E-08 -0.61572206 -2.2737367E-15
v 0.0302133597 -0.61572206 -2.2737367E-15
v 0.070385173 -0.661416888 0.0321377553
v 0.070385173 -0.615722001 0.0321377553
v 0.0852133632 -0.615722001 0.0629888922
v 0.0302133597 -0.661416888 1
v 4.40923777E-08 -0.661416888 1
v 4.40923777E-08 -0.61572206 1
v 0.0302133597 -0.61572206 1
v 0.070385173 -0.661416888 0.967862248
v 0.070385173 -0.615722001 0.967862248
v 0.0852133632 -0.661416769 0.93697083
v 0.0852133632 -0.615722001 0.937011063
v 0.0852133632 -0.661416769 0.06302917
v 0.0852133632 -0.615722001 0.0629888922
v 0.070385173 -0.661416888 0.0321377553
v 4.40923777E-08 -0.661416888 -2.2737367E-15
v 4.40923777E-08 -0.61572206 -2.2737367E-15
v 4.40923777E-08 -0.661416888 1
v 4.40923777E-08 -0.61572206 1
v -0.0149999559 0.614416838 0.95900023
v -0.0149999559 -0.574722052 0.95900023
v -0.0149999559 0.614416838 0.0409997553
v -0.0149999559 -0.574722052 0.0409997553
v 0.0302133597 -0.61572206 1
v 4.40923777E-08 -0.61572206 1
v 4.40923777E-08 0.655416846 1
v 0.0302133597 0.655416846 1
v 0.070385173 -0.615722001 0.967862248
v 0.0711322427 0.655416548 0.967264712
v 0.0852133632 -0.615722001 0.937011063
v 0.0852133632 0.655416548 0.937284827
v 0.0852133632 -0.615722001 0.0629888922
v 0.0852133632 0.655416548 0.0635623187
v 0.070385173 -0.615722001 0.0321377553
v 0.0711322427 0.655416548 0.0327352881
v 0.070385173 -0.615722001 0.0321377553
v 0.0711322427 0.655416548 0.0327352881
v 0.0302133597 -0.61572206 -2.2737367E-15
v 0.0302133597 0.655416846 -2.2737367E-15
v 4.40923777E-08 -0.61572206 -2.2737367E-15
v 4.40923777E-08 0.655416846 -2.2737367E-15
v 4.40923777E-08 0.655416846 -2.2737367E-15
v 0.0302133597 0.655416846 -2.2737367E-15
v 0.0100000435 0.661416888 0.00999999978
v 0.0267053638 0.661416888 0.00999999978
v 0.0711322427 0.655416548 0.0327352881
v 0.0630255565 0.661416888 0.0390563942
v 0.0852133632 0.655416548 0.0635623187
v 0.0630695 0.661416888 0.96090889
v 0.0752133578 0.66141659 0.065738216
v 0.0752133578 0.66141659 0.935053408
v 0.0852133632 0.655416548 0.937284827
v 0.0711322427 0.655416548 0.967264712
v 0.0267053638 0.661416888 0.98999995
v 0.0302133597 0.655416846 1
v 0.0100000435 0.661416888 0.98999995
v 4.40923777E-08 0.655416846 1
v 4.40923777E-08 0.655416846 -2.2737367E-15
v 4.40923777E-08 0.62741673 0.972000122
v -0.0149999559 0.614416838 0.95900023
v 4.40923777E-08 0.62741673 0.0279998779
v -0.0149999559 0.614416838 0.0409997553
v 4.40923777E-08 0.62741673 0.0279998779
v -0.0149999559 0.614416838 0.0409997553
v 4.40923777E-08 -0.587722063 0.0279998779
v -0.0149999559 -0.574722052 0.0409997553
v 4.40923777E-08 -0.587722063 0.0279998779
v -0.0149999559 -0.574722052 0.0409997553
v 4.40923777E-08 -0.587722063 0.972000122
v -0.0149999559 -0.574722052 0.95900023
v 4.40923777E-08 -0.587722063 0.972000122
v -0.0149999559 -0.574722052 0.95900023
v 4.40923777E-08 0.62741673 0.972000122
v -0.0149999559 0.614416838 0.95900023
v 4.40923777E-08 -0.61572206 -2.2737367E-15
v 4.40923777E-08 -0.587722063 0.0279998779
v 4.40923777E-08 -0.61572206 1
v 4.40923777E-08 0.62741673 0.0279998779
v 4.40923777E-08 -0.587722063 0.972000122
v 4.40923777E-08 0.655416846 -2.2737367E-15
v 4.40923777E-08 0.655416846 1
v 4.40923777E-08 0.62741673 0.972000122
vt 0.0354003906 0.954101562
vt 0.0266723633 0.943847656
vt 0.0354003906 0.967773438
vt 0.8671875 0.6796875
vt 0.733886719 0.6796875
vt 0.8671875 0.749511719
vt 0.733886719 0.749511719
vt 0.878417969 0.667480469
vt 0.8671875 0.6796875
vt 0.878417969 0.762207031
vt 0.8671875 0.749511719
vt 0.878417969 0.762207031
vt 0.8671875 0.749511719
vt 0.72265625 0.762207031
vt 0.733886719 0.749511719
vt 0.72265625 0.762207031
vt 0.733886719 0.749511719
vt 0.72265625 0.667480469
vt 0.733886719 0.6796875
vt 0.72265625 0.667480469
vt 0.733886719 0.6796875
vt 0.878417969 0.667480469
vt 0.8671875 0.6796875
vt 0.0354003906 0.950195312
vt 0.0354003906 0.950195312
vt 0.0702514648 0.950195312
vt 0.0702514648 0.950195312
vt 0.0354003906 0.967773438
vt 0.0172576904 0.967773438
vt 0.0354003906 0.983398438
vt 0.0169677734 0.983398438
vt 0.0354003906 0.967773438
vt 0.0354003906 0.983398438
vt 0.0702514648 0.967773438
vt 0.0702514648 0.983398438
vt 0.0702514648 0.950195312
vt 0.0702514648 0.776367188
vt 0.0354003906 0.950195312
vt 0.0354003906 0.776367188
vt 0.0629882812 0.76953125
vt 0.0413208008 0.76953125
vt 0.0413208008 0.764160156
vt 0.0354003906 0.766113281
vt 0.0413208008 0.76953125
vt 0.0354003906 0.776367188
vt 0.0354003906 0.776367188
vt 0.0702514648 0.776367188
vt 0.0413208008 0.76953125
vt 0.0629882812 0.76953125
vt 0.0629882812 0.764160156
vt 0.0629882812 0.76953125
vt 0.0702514648 0.766113281
vt 0.0702514648 0.776367188
vt 0.0702514648 0.954101562
vt 0.0702514648 0.776367188
vt 0.0354003906 0.954101562
vt 0.0354003906 0.776367188
vt 0.0266723633 0.776367188
vt 0.0266723633 0.943847656
vt 0.0354003906 0.776367188
vt 0.0354003906 0.954101562
vt 0.0413208008 0.76953125
vt 0.0629882812 0.76953125
vt 0.0413208008 0.764160156
vt 0.0629882812 0.764160156
vt 0.0803222656 0.776367188
vt 0.0702514648 0.776367188
vt 0.0803222656 0.943847656
vt 0.0702514648 0.954101562
vt 0.0702514648 0.967773438
vt 0.0702514648 0.967773438
vt 0.0702514648 0.983398438
vt 0.0938720703 0.967773438
vt 0.0938720703 0.983398438
vt 0.0354003906 0.967773438
vt 0.0702514648 0.967773438
vt 0.0354003906 0.954101562
vt 0.0702514648 0.954101562
vt 0.879882812 0.0475158691
vt 0.861816406 0.0475158691
vt 0.879882812 0.345947266
vt 0.861816406 0.345947266
vt 0.837402344 0.0570678711
vt 0.837402344 0.336425781
vt 0.828125 0.327148438
vt 0.828125 0.0662841797
vt 0.828125 0.361816406
vt 0.828125 0.352783203
vt 0.80078125 0.361816406
vt 0.80078125 0.352783203
vt 0.828125 0.337402344
vt 0.80078125 0.337402344
vt 0.80078125 0.327148438
vt 0.828125 0.0406799316
vt 0.828125 0.0316772461
vt 0.80078125 0.0316772461
vt 0.80078125 0.0406799316
vt 0.828125 0.0560302734
vt 0.80078125 0.0560302734
vt 0.828125 0.0662841797
vt 0.80078125 0.0662841797
vt 0.828125 0.327148438
vt 0.80078125 0.327148438
vt 0.828125 0.337402344
vt 0.829101562 0.0471191406
vt 0.801269531 0.0471191406
vt 0.829101562 0.345703125
vt 0.801269531 0.345703125
vt 0.66015625 0.349853516
vt 0.66015625 0.0188598633
vt 0.413574219 0.349853516
vt 0.413574219 0.0188598633
vt 0.0319213867 0.0256500244
vt 0.0220336914 0.0256500244
vt 0.0220336914 0.447021484
vt 0.0319213867 0.447021484
vt 0.0492553711 0.0256500244
vt 0.0492553711 0.447021484
vt 0.0604248047 0.0256500244
vt 0.0604248047 0.447021484
vt 0.350097656 0.0256500244
vt 0.350097656 0.447021484
vt 0.361328125 0.0256500244
vt 0.361328125 0.447021484
vt 0.361328125 0.0256500244
vt 0.361328125 0.447021484
vt 0.378662109 0.0256500244
vt 0.378662109 0.447021484
vt 0.388427734 0.0256500244
vt 0.388427734 0.447021484
vt 0.881347656 0.0474853516
vt 0.861816406 0.0474853516
vt 0.875976562 0.0498046875
vt 0.86328125 0.0498046875
vt 0.836425781 0.0570983887
vt 0.840820312 0.0585632324
vt 0.826660156 0.0663452148
vt 0.840820312 0.333984375
vt 0.833496094 0.0667724609
vt 0.833496094 0.325683594
vt 0.826660156 0.326171875
vt 0.836425781 0.335693359
vt 0.86328125 0.342773438
vt 0.861816406 0.345214844
vt 0.875976562 0.342773438
vt 0.881347656 0.345214844
vt 0.881347656 0.0474853516
vt 0.665039062 0.354492188
vt 0.66015625 0.349853516
vt 0.408691406 0.354492188
vt 0.413574219 0.349853516
vt 0.408691406 0.354492188
vt 0.413574219 0.349853516
vt 0.408691406 0.0140686035
vt 0.413574219 0.0188598633
vt 0.408691406 0.0140686035
vt 0.413574219 0.0188598633
vt 0.665039062 0.0140686035
vt 0.66015625 0.0188598633
vt 0.665039062 0.0140686035
vt 0.66015625 0.0188598633
vt 0.665039062 0.354492188
vt 0.66015625 0.349853516
vt 0.0319213867 0.0256500244
vt 0.0412597656 0.0355834961
vt 0.378662109 0.0256500244
vt 0.0412597656 0.437988281
vt 0.369628906 0.0355834961
vt 0.0319213867 0.447021484
vt 0.378662109 0.447021484
vt 0.369628906 0.437988281
vn -0 -1 0
vn -0 -1 0
vn -0 -1 0
vn 1 0 1.1920929E-07
vn 1 0 0
vn 1 0 1.1920929E-07
vn 1 0 0
vn 0.366455078 -0.00084400177 0.930664062
vn 0.366455078 -0.00084066391 0.930664062
vn 0.366455078 -0.000820159912 0.930664062
vn 0.366210938 -0.000813484192 0.930664062
vn 0.366455078 -0.930664062 0
vn 0.366455078 -0.930664062 0
vn 0.366455078 -0.930664062 0
vn 0.366455078 -0.930664062 0
vn 0.366455078 0.00175189972 -0.930664062
vn 0.366455078 0.00174808502 -0.930664062
vn 0.366455078 0.00172615051 -0.930664062
vn 0.366455078 0.00171852112 -0.930664062
vn 0.366455078 0.930664062 -0.000255346298
vn 0.366455078 0.930664062 -0.000255346298
vn 0.366455078 0.930664062 -0.00025844574
vn 0.366455078 0.930664062 -0.000258684158
vn -0 0 -1
vn -0 0 -1
vn -0 0 -1
vn -0 0 -1
vn -0 -1 0
vn -0 -1 0
vn -0 -1 0
vn -0 -1 0
vn -0 0 1
vn -0 0 1
vn -0 0 1
vn -0 0 1
vn -1 0 0
vn -1 0 0
vn -1 0 0
vn -1 0 0
vn -1 0 5.24520874E-06
vn -1 0 0
vn -0 -0.70703125 -0.70703125
vn -0 -0.70703125 -0.70703125
vn -0 -0.70703125 -0.70703125
vn -0 -0.70703125 -0.70703125
vn 0.70703125 0 -0.70703125
vn 0.70703125 0 -0.70703125
vn 0.70703125 0 -0.70703125
vn 0.70703125 0 -0.70703125
vn -0 0.70703125 -0.70703125
vn -0 0.70703125 -0.70703125
vn -0 0.70703125 -0.70703125
vn -0 0.70703125 -0.70703125
vn 1 0 0
vn 1 0 0
vn 1 0 0
vn 1 0 0
vn -0 -1 0
vn 1.36494637E-05 -1 0
vn 5.96046448E-07 -1 0
vn 1.40070915E-05 -1 0
vn -0 0 -1
vn -0 0 -1
vn -0 0 -1
vn -0 0 -1
vn -0 1 0
vn -0 1 0
vn -0 1 0
vn -0 1 0
vn -0 1 0
vn -0 1 0
vn -0 1 0
vn -0 1 0
vn -0 1 0
vn 0.70703125 0 0.70703125
vn 0.70703125 0 0.70703125
vn 0.70703125 0 0.70703125
vn 0.70703125 0 0.70703125
vn -0 -0.999023438 0.0456542969
vn 0.0275726318 -0.997558594 0.0603942871
vn -0 -0.999023438 -0.0456542969
vn 0.0283203125 -0.997558594 -0.0620422363
vn 0.047088623 -0.998046875 0.0410766602
vn 0.0498046875 -0.998046875 -0.0434570312
vn 0.866699219 -0.498291016 -0.0141906738
vn 0.880859375 -0.473144531 0.0144195557
vn -0 -0.999023438 -0.0456542969
vn 0.0283203125 -0.997558594 -0.0620422363
vn -0 0 -1
vn 0.415527344 4.17232513E-07 -0.909667969
vn 0.0498046875 -0.998046875 -0.0434570312
vn 0.753417969 7.39693642E-05 -0.657714844
vn 1 6.91413879E-06 -0.0164031982
vn 0.0275726318 -0.997558594 0.0603942871
vn -0 -0.999023438 0.0456542969
vn -0 0 1
vn 0.415283203 0 0.909667969
vn 0.047088623 -0.998046875 0.0410766602
vn 0.752929688 -0.000131964684 0.657714844
vn 0.880859375 -0.473144531 0.0144195557
vn 1 -1.22785568E-05 0.0163726807
vn 0.866699219 -0.498291016 -0.0141906738
vn 1 6.91413879E-06 -0.0164031982
vn 0.0498046875 -0.998046875 -0.0434570312
vn -1 0 0
vn -1 0 0
vn -1 0 0
vn -1 0 6.55651093E-07
vn -1 0 0
vn -1 0 0
vn -1 0 0
vn -1 0 0
vn 0.415283203 0 0.909667969
vn -0 0 1
vn -0.0827026367 0.142089844 0.986328125
vn 0.418212891 0.00608444214 0.908203125
vn 0.752929688 -0.000131964684 0.657714844
vn 0.751953125 0.00659179688 0.659179688
vn 1 -1.22785568E-05 0.0163726807
vn 1 0.00688552856 0.0155715942
vn 1 6.91413879E-06 -0.0164031982
vn 1 0.00686264038 -0.0155639648
vn 0.753417969 7.39693642E-05 -0.657714844
vn 0.756347656 0.00648117065 -0.654296875
vn 0.753417969 7.39693642E-05 -0.657714844
vn 0.756347656 0.00648117065 -0.654296875
vn 0.415527344 4.17232513E-07 -0.909667969
vn 0.418212891 0.00608062744 -0.908203125
vn -0 0 -1
vn -0 0.00430679321 -1
vn -0 0.00430679321 -1
vn 0.418212891 0.00608062744 -0.908203125
vn -0.268066406 0.963378906 -0.00727081299
vn 0.00632095337 1 -0.0111694336
vn 0.756347656 0.00648117065 -0.654296875
vn 0.00771331787 1 -0.00653457642
vn 1 0.00686264038 -0.0155639648
vn 0.00718307495 1 0.00617218018
vn 0.199951172 0.979980469 -0.00271987915
vn 0.209228516 0.978027344 0.00282287598
vn 1 0.00688552856 0.0155715942
vn 0.751953125 0.00659179688 0.659179688
vn 0.00612258911 1 0.0108261108
vn 0.418212891 0.00608444214 0.908203125
vn -0.265380859 0.963867188 0.00734329224
vn -0.0827026367 0.142089844 0.986328125
vn -0.514648438 0.857421875 0
vn -0.654785156 0.755859375 0
vn -0.654785156 0.755859375 0
vn -0.654785156 0.755859375 0
vn -0.654785156 0.755859375 0
vn -0.654785156 0 -0.755859375
vn -0.654785156 0 -0.755859375
vn -0.654785156 0 -0.755859375
vn -0.654785156 0 -0.755859375
vn -0.654785156 -0.755859375 0
vn -0.654785156 -0.755859375 0
vn -0.654785156 -0.755859375 0
vn -0.654785156 -0.755859375 0
vn -0.654785156 0 0.755859375
vn -0.654785156 0 0.755859375
vn -0.654785156 0 0.755859375
vn -0.654785156 0 0.755859375
vn -1 0 0
vn -1 0 0
vn -1 0 6.55651093E-07
vn -1 0 -2.50339508E-06
vn -1 0 1.66893005E-06
vn -1 0 -2.50339508E-06
vn -1 0 0
vn -1 0 0
g Pantry_Fridge_Door_Down_0
f 3/3/3 2/2/2 1/1/1
f 6/6/6 5/5/5 4/4/4
f 6/6/6 7/7/7 5/5/5
f 10/10/10 9/9/9 8/8/8
f 10/10/10 11/11/11 9/9/9
f 14/14/14 13/13/13 12/12/12
f 14/14/14 15/15/15 13/13/13
f 18/18/18 17/17/17 16/16/16
f 18/18/18 19/19/19 17/17/17
f 22/22/22 21/21/21 20/20/20
f 22/22/22 23/23/23 21/21/21
f 26/26/26 25/25/25 24/24/24
f 26/26/26 27/27/27 25/25/25
f 30/30/30 29/29/29 28/28/28
f 30/30/30 31/31/31 29/29/29
f 34/34/34 33/33/33 32/32/32
f 34/34/34 35/35/35 33/33/33
f 38/38/38 37/37/37 36/36/36
f 39/39/39 37/37/37 38/38/38
f 39/39/39 40/40/40 37/37/37
f 39/39/39 41/41/41 40/40/40
f 44/44/44 43/43/43 42/42/42
f 44/44/44 45/45/45 43/43/43
f 48/48/48 47/47/47 46/46/46
f 48/48/48 49/49/49 47/47/47
f 52/52/52 51/51/51 50/50/50
f 52/52/52 53/53/53 51/51/51
f 56/56/56 55/55/55 54/54/54
f 56/56/56 57/57/57 55/55/55
f 60/60/60 59/59/59 58/58/58
f 60/60/60 61/61/61 59/59/59
f 64/64/64 63/63/63 62/62/62
f 64/64/64 65/65/65 63/63/63
f 68/68/68 67/67/67 66/66/66
f 68/68/68 69/69/69 67/67/67
f 68/68/68 70/70/70 69/69/69
f 73/73/73 72/72/72 71/71/71
f 73/73/73 74/74/74 72/72/72
f 77/77/77 76/76/76 75/75/75
f 77/77/77 78/78/78 76/76/76
f 81/81/81 80/80/80 79/79/79
f 81/81/81 82/82/82 80/80/80
f 82/82/82 83/83/83 80/80/80
f 82/82/82 84/84/84 83/83/83
f 85/85/85 83/83/83 84/84/84
f 85/85/85 86/86/86 83/83/83
f 89/89/89 88/88/88 87/87/87
f 89/89/89 90/90/90 88/88/88
f 90/90/90 91/91/91 88/88/88
f 90/90/90 92/92/92 91/91/91
f 91/91/91 92/92/92 93/93/93
f 96/96/96 95/95/95 94/94/94
f 96/96/96 94/94/94 97/97/97
f 97/97/97 94/94/94 98/98/98
f 97/97/97 98/98/98 99/99/99
f 100/100/100 99/99/99 98/98/98
f 100/100/100 101/101/101 99/99/99
f 102/102/102 101/101/101 100/100/100
f 102/102/102 103/103/103 101/101/101
f 104/104/104 103/103/103 102/102/102
f 107/107/107 106/106/106 105/105/105
f 107/107/107 108/108/108 106/106/106
f 111/111/111 110/110/110 109/109/109
f 111/111/111 112/112/112 110/110/110
f 115/115/115 114/114/114 113/113/113
f 115/115/115 113/113/113 116/116/116
f 116/116/116 113/113/113 117/117/117
f 116/116/116 117/117/117 118/118/118
f 119/119/119 118/118/118 117/117/117
f 119/119/119 120/120/120 118/118/118
f 120/120/120 119/119/119 121/121/121
f 120/120/120 121/121/121 122/122/122
f 123/123/123 122/122/122 121/121/121
f 123/123/123 124/124/124 122/122/122
f 127/127/127 126/126/126 125/125/125
f 127/127/127 128/128/128 126/126/126
f 129/129/129 128/128/128 127/127/127
f 129/129/129 130/130/130 128/128/128
f 133/133/133 132/132/132 131/131/131
f 133/133/133 134/134/134 132/132/132
f 134/134/134 135/135/135 132/132/132
f 134/134/134 136/136/136 135/135/135
f 136/136/136 137/137/137 135/135/135
f 138/138/138 136/136/136 134/134/134
f 136/136/136 139/139/139 137/137/137
f 139/139/139 136/136/136 138/138/138
f 137/137/137 139/139/139 140/140/140
f 139/139/139 138/138/138 140/140/140
f 137/137/137 140/140/140 141/141/141
f 141/141/141 140/140/140 138/138/138
f 141/141/141 138/138/138 142/142/142
f 138/138/138 134/134/134 143/143/143
f 142/142/142 138/138/138 143/143/143
f 143/143/143 134/134/134 133/133/133
f 142/142/142 143/143/143 144/144/144
f 144/144/144 143/143/143 145/145/145
f 143/143/143 133/133/133 145/145/145
f 144/144/144 145/145/145 146/146/146
f 146/146/146 145/145/145 133/133/133
f 146/146/146 133/133/133 147/147/147
f 150/150/150 149/149/149 148/148/148
f 150/150/150 151/151/151 149/149/149
f 154/154/154 153/153/153 152/152/152
f 154/154/154 155/155/155 153/153/153
f 158/158/158 157/157/157 156/156/156
f 158/158/158 159/159/159 157/157/157
f 162/162/162 161/161/161 160/160/160
f 162/162/162 163/163/163 161/161/161
f 166/166/166 165/165/165 164/164/164
f 164/164/164 165/165/165 167/167/167
f 166/166/166 168/168/168 165/165/165
f 164/164/164 167/167/167 169/169/169
f 170/170/170 168/168/168 166/166/166
f 169/169/169 167/167/167 171/171/171
f 170/170/170 171/171/171 168/168/168
f 169/169/169 171/171/171 170/170/170
