g IS4_MDL_EscenarioPB_CordonBanderas_Bandera_5
v 0.0191376898 0.1586788 0.118659846
v 0.014644892 0.0847430304 -0.137584046
v -0.000353582407 -0.236861199 0.110463247
v -0.0113267871 0.0855897442 -0.137372866
v -0.0068339901 0.159525365 0.118871026
v -0.0134883476 -0.23622705 0.111463383
v -0.0068339901 0.159525365 0.118871026
v -0.0113267871 0.0855897442 -0.137372866
v 0.014644892 0.0847430304 -0.137584046
v 0.0191376898 0.1586788 0.118659846
v -0.000353582407 -0.236861199 0.110463247
v -0.0134883476 -0.23622705 0.111463383
v -0.0068339901 0.159525365 0.118871026
v 0.0191376898 0.1586788 0.118659846
v 0.014644892 0.0847430304 -0.137584046
v -0.0113267871 0.0855897442 -0.137372866
v -0.0134883476 -0.23622705 0.111463383
v -0.000353582407 -0.236861199 0.110463247
vt 0.932617188 0.6640625
vt 0.99609375 0.664550781
vt 0.963378906 0.748046875
vt 0.99609375 0.664550781
vt 0.932128906 0.6640625
vt 0.963378906 0.748046875
vt 0.993164062 0.666992188
vt 0.932128906 0.666992188
vt 0.932128906 0.6640625
vt 0.993164062 0.6640625
vt 0.993164062 0.6640625
vt 0.993164062 0.666992188
vt 0.932128906 0.666992188
vt 0.932128906 0.6640625
vt 0.932128906 0.666992188
vt 0.932128906 0.6640625
vt 0.993164062 0.6640625
vt 0.993164062 0.666992188
vn 0.9921875 0.112976074 -0.049987793
vn 0.991210938 0.122619629 -0.0527648926
vn 0.999023438 -0.0491638184 -0.00333023071
vn -0.981445312 0.187744141 -0.0369567871
vn -0.983398438 0.177612305 -0.033996582
vn -1 0.0165710449 0.0127487183
vn -0.983398438 0.177612305 -0.033996582
vn -0.981445312 0.187744141 -0.0369567871
vn 0.991210938 0.122619629 -0.0527648926
vn 0.9921875 0.112976074 -0.049987793
vn 0.030166626 -0.0207061768 0.999511719
vn 0.030166626 -0.0207061768 0.999511719
vn 0.030166626 -0.0207061768 0.999511719
vn 0.030166626 -0.0207061768 0.999511719
vn -0.0476074219 -0.609863281 -0.791015625
vn -0.0476074219 -0.609863281 -0.791015625
vn -0.0476074219 -0.609863281 -0.791015625
vn -0.0476074219 -0.609863281 -0.791015625
g IS4_MDL_EscenarioPB_CordonBanderas_Bandera_5_0
f 3/3/3 2/2/2 1/1/1
f 6/6/6 5/5/5 4/4/4
f 9/9/9 8/8/8 7/7/7
f 10/10/10 9/9/9 7/7/7
f 13/13/13 12/12/12 11/11/11
f 14/14/14 13/13/13 11/11/11
f 17/17/17 16/16/16 15/15/15
f 18/18/18 17/17/17 15/15/15
