g IS4_MDL_EscenarioPB_Pared_Staff_2
v -0 -2.35238099 -0.777978063
v -0 -1.35238373 -0.876692653
v -0 -2.35238099 -0.876692653
v -0 -1.35238373 -0.777978063
v -0 -0.352377087 -0.777978063
v -0 2.35238099 -0.876692653
v -0 -2.35238099 0.876692355
v -0 -1.35238397 0.725774348
v -0 -2.35238099 0.725774348
v -0 -1.35238397 0.876692355
v -0 2.35238099 0.876692355
v -0 -0.352377087 0.725774348
v -0 -0.352377087 0.725774348
v -0 2.35238099 0.876692355
v -0 2.35238099 -0.876692653
v -0 -0.352377087 -0.777978063
vt 0.331298828 0.0181121826
vt 0.341308594 0.134033203
vt 0.341308594 0.0181121826
vt 0.331298828 0.134033203
vt 0.331298828 0.213256836
vt 0.341308594 0.501464844
vt 0.161254883 0.0181121826
vt 0.176757812 0.134033203
vt 0.176757812 0.0181121826
vt 0.161254883 0.134033203
vt 0.161254883 0.501464844
vt 0.176757812 0.213256836
vt 0.176757812 0.213256836
vt 0.161254883 0.501464844
vt 0.341308594 0.501464844
vt 0.331298828 0.213256836
vn 1 0 0
vn 1 0 0
vn 1 0 0
vn 1 0 0
vn 1 0 0
vn 1 0 0
vn 1 0 0
vn 1 0 0
vn 1 0 0
vn 1 0 0
vn 1 0 0
vn 1 0 0
vn 1 1.60932541E-06 0
vn 1 1.60932541E-06 0
vn 1 1.60932541E-06 0
vn 1 1.60932541E-06 0
g IS4_MDL_EscenarioPB_Pared_Staff_2_0
f 3/3/3 2/2/2 1/1/1
f 2/2/2 4/4/4 1/1/1
f 4/4/4 2/2/2 5/5/5
f 2/2/2 6/6/6 5/5/5
f 9/9/9 8/8/8 7/7/7
f 8/8/8 10/10/10 7/7/7
f 10/10/10 8/8/8 11/11/11
f 8/8/8 12/12/12 11/11/11
f 15/15/15 14/14/14 13/13/13
f 16/16/16 15/15/15 13/13/13
