g CatwalkRailing_Corner_C
v 29.2825794 4.05278349 -9.92688656
v 29.2825794 4.962605 -9.92688656
v 30.0973988 4.962605 -10.7597666
v 30.0973988 4.05278349 -10.7597666
v 29.2599602 4.07678509 -9.98259163
v 30.0412121 4.07678509 -10.7811604
v 30.0412121 4.93860579 -10.7811604
v 29.2599602 4.93860579 -9.98259163
v 30.0744362 4.05278349 -10.7822313
v 30.0973988 4.05278349 -10.7597666
v 30.0973988 4.962605 -10.7597666
v 30.0744362 4.962605 -10.7822313
v 29.2596188 4.962605 -9.94935131
v 29.2825794 4.962605 -9.92688656
v 29.2825794 4.05278349 -9.92688656
v 29.2596188 4.05278349 -9.94935131
v 29.2596188 4.05278349 -9.94935131
v 30.0744362 4.05278349 -10.7822313
v 30.0412121 4.07678509 -10.7811604
v 29.2599602 4.07678509 -9.98259163
v 30.0744362 4.05278349 -10.7822313
v 30.0744362 4.962605 -10.7822313
v 30.0412121 4.93860579 -10.7811604
v 30.0412121 4.07678509 -10.7811604
v 30.0744362 4.962605 -10.7822313
v 29.2596188 4.962605 -9.94935131
v 29.2599602 4.93860579 -9.98259163
v 30.0412121 4.93860579 -10.7811604
v 29.2596188 4.962605 -9.94935131
v 29.2596188 4.05278349 -9.94935131
v 29.2599602 4.07678509 -9.98259163
v 29.2599602 4.93860579 -9.98259163
v 29.2078648 4.02403259 -9.91462898
v 29.23592 4.02403259 -9.94330502
v 29.23592 4.98459339 -9.94330502
v 29.2078648 4.98459339 -9.91462898
v 29.2445641 4.02403259 -9.87872696
v 29.2445641 4.98459339 -9.87872696
v 29.2726192 4.98459339 -9.90740299
v 29.2726192 4.02403259 -9.90740299
v 29.2424946 3.91503096 -9.85977745
v 29.2915211 3.91503096 -9.90989017
v 29.2379932 3.91503096 -9.96225643
v 29.1889668 3.91503096 -9.91214561
v 29.2726192 4.02403259 -9.90740299
v 29.2726192 4.98459339 -9.90740299
v 29.23592 4.98459339 -9.94330502
v 29.23592 4.02403259 -9.94330502
v 29.289938 5.00002575 -9.90589046
v 29.2464561 5.00002575 -9.86144543
v 29.1905441 5.00002575 -9.91614437
v 29.234026 5.00002575 -9.96059036
v 29.2445641 4.98459339 -9.87872696
v 29.2445641 4.02403259 -9.87872696
v 29.2078648 4.02403259 -9.91462898
v 29.2078648 4.98459339 -9.91462898
v 29.2726192 4.98459339 -9.90740299
v 29.2445641 4.98459339 -9.87872696
v 29.2464561 4.98459339 -9.86144543
v 29.289938 4.98459339 -9.90589046
v 29.2445641 4.98459339 -9.87872696
v 29.2078648 4.98459339 -9.91462898
v 29.1905441 4.98459339 -9.91614437
v 29.2464561 4.98459339 -9.86144543
v 29.2078648 4.98459339 -9.91462898
v 29.23592 4.98459339 -9.94330502
v 29.234026 4.98459339 -9.96059036
v 29.1905441 4.98459339 -9.91614437
v 29.23592 4.98459339 -9.94330502
v 29.2726192 4.98459339 -9.90740299
v 29.289938 4.98459339 -9.90589046
v 29.234026 4.98459339 -9.96059036
v 29.289938 4.98459339 -9.90589046
v 29.2464561 4.98459339 -9.86144543
v 29.2464561 5.00002575 -9.86144543
v 29.289938 5.00002575 -9.90589046
v 29.2464561 4.98459339 -9.86144543
v 29.1905441 4.98459339 -9.91614437
v 29.1905441 5.00002575 -9.91614437
v 29.2464561 5.00002575 -9.86144543
v 29.1905441 4.98459339 -9.91614437
v 29.234026 4.98459339 -9.96059036
v 29.234026 5.00002575 -9.96059036
v 29.1905441 5.00002575 -9.91614437
v 29.234026 4.98459339 -9.96059036
v 29.289938 4.98459339 -9.90589046
v 29.289938 5.00002575 -9.90589046
v 29.234026 5.00002575 -9.96059036
v 29.2424946 4.02403259 -9.85977745
v 29.2915211 4.02403259 -9.90989017
v 29.2915211 3.91503096 -9.90989017
v 29.2424946 3.91503096 -9.85977745
v 29.2915211 4.02403259 -9.90989017
v 29.2379932 4.02403259 -9.96225643
v 29.2379932 3.91503096 -9.96225643
v 29.2915211 3.91503096 -9.90989017
v 29.2379932 4.02403259 -9.96225643
v 29.1889668 4.02403259 -9.91214561
v 29.1889668 3.91503096 -9.91214561
v 29.2379932 3.91503096 -9.96225643
v 29.1889668 4.02403259 -9.91214561
v 29.2424946 4.02403259 -9.85977745
v 29.2424946 3.91503096 -9.85977745
v 29.1889668 3.91503096 -9.91214561
v 29.2445641 4.02403259 -9.87872696
v 29.2726192 4.02403259 -9.90740299
v 29.2915211 4.02403259 -9.90989017
v 29.2424946 4.02403259 -9.85977745
v 29.2726192 4.02403259 -9.90740299
v 29.23592 4.02403259 -9.94330502
v 29.2379932 4.02403259 -9.96225643
v 29.2915211 4.02403259 -9.90989017
v 29.23592 4.02403259 -9.94330502
v 29.2078648 4.02403259 -9.91462898
v 29.1889668 4.02403259 -9.91214561
v 29.2379932 4.02403259 -9.96225643
v 29.2078648 4.02403259 -9.91462898
v 29.2445641 4.02403259 -9.87872696
v 29.2424946 4.02403259 -9.85977745
v 29.1889668 4.02403259 -9.91214561
v 29.2346706 4.9589982 -9.93414688
v 30.0909443 4.9589982 -10.8094025
v 30.0909443 4.97048044 -10.8094025
v 29.2346706 4.97048044 -9.93414688
v 29.2648487 4.9589982 -9.90462112
v 29.2648487 4.97048044 -9.90462112
v 30.1211243 4.97048044 -10.7798777
v 30.1211243 4.9589982 -10.7798777
v 29.2648487 4.9589982 -9.90462112
v 30.1211243 4.9589982 -10.7798777
v 30.0909443 4.9589982 -10.8094025
v 29.2346706 4.9589982 -9.93414688
v 30.1135807 4.98103523 -10.7872553
v 29.2573071 4.98103523 -9.91200066
v 29.2422161 4.98103523 -9.92676449
v 30.0984898 4.98103523 -10.8020201
v 29.2648487 4.97048044 -9.90462112
v 29.2573071 4.98103523 -9.91200066
v 30.1135807 4.98103523 -10.7872553
v 30.1211243 4.97048044 -10.7798777
v 30.0909443 4.97048044 -10.8094025
v 30.0984898 4.98103523 -10.8020201
v 29.2422161 4.98103523 -9.92676449
v 29.2346706 4.97048044 -9.93414688
v 29.234663 4.03307009 -9.93414021
v 30.0909367 4.03307009 -10.8093958
v 30.0909367 4.05510664 -10.8093958
v 29.234663 4.05510664 -9.93414021
v 29.264843 4.03307009 -9.90461445
v 29.264843 4.05510664 -9.90461445
v 30.1211166 4.05510664 -10.77987
v 30.1211166 4.03307009 -10.77987
v 29.264843 4.03307009 -9.90461445
v 30.1211166 4.03307009 -10.77987
v 30.0909367 4.03307009 -10.8093958
v 29.234663 4.03307009 -9.93414021
v 30.1211166 4.05510664 -10.77987
v 29.264843 4.05510664 -9.90461445
v 29.234663 4.05510664 -9.93414021
v 30.0909367 4.05510664 -10.8093958
v 27.67519 4.05278349 -8.97177982
v 27.67519 4.962605 -8.97177982
v 27.67519 4.962605 -9.83854961
v 27.67519 4.05278349 -9.83854961
v 27.6200657 4.07678509 -8.99577904
v 27.6200657 4.07678509 -9.8145504
v 27.6200657 4.93860579 -9.8145504
v 27.6200657 4.93860579 -8.99577904
v 27.6430664 4.05278349 -9.83854961
v 27.67519 4.05278349 -9.83854961
v 27.67519 4.962605 -9.83854961
v 27.6430664 4.962605 -9.83854961
v 27.6430664 4.962605 -8.97177982
v 27.67519 4.962605 -8.97177982
v 27.67519 4.05278349 -8.97177982
v 27.6430664 4.05278349 -8.97177982
v 27.6430664 4.05278349 -8.97177982
v 27.6430664 4.05278349 -9.83854961
v 27.6200657 4.07678509 -9.8145504
v 27.6200657 4.07678509 -8.99577904
v 27.6430664 4.05278349 -9.83854961
v 27.6430664 4.962605 -9.83854961
v 27.6200657 4.93860579 -9.8145504
v 27.6200657 4.07678509 -9.8145504
v 27.6430664 4.962605 -9.83854961
v 27.6430664 4.962605 -8.97177982
v 27.6200657 4.93860579 -8.99577904
v 27.6200657 4.93860579 -9.8145504
v 27.6430664 4.962605 -8.97177982
v 27.6430664 4.05278349 -8.97177982
v 27.6200657 4.07678509 -8.99577904
v 27.6200657 4.93860579 -8.99577904
v 27.6303539 4.02403259 -9.8612299
v 27.6303539 4.02403259 -9.90134716
v 27.6303539 4.98459339 -9.90134716
v 27.6303539 4.98459339 -9.8612299
v 27.681694 4.02403259 -9.8612299
v 27.681694 4.98459339 -9.8612299
v 27.681694 4.98459339 -9.90134716
v 27.681694 4.02403259 -9.90134716
v 27.6934662 3.91503096 -9.84623718
v 27.6934662 3.91503096 -9.91634274
v 27.6185818 3.91503096 -9.91634274
v 27.6185818 3.91503096 -9.84623718
v 27.681694 4.02403259 -9.90134716
v 27.681694 4.98459339 -9.90134716
v 27.6303539 4.98459339 -9.90134716
v 27.6303539 4.02403259 -9.90134716
v 27.6951313 5.00002575 -9.91237736
v 27.6951313 5.00002575 -9.8501997
v 27.6169128 5.00002575 -9.8501997
v 27.6169128 5.00002575 -9.91237736
v 27.681694 4.98459339 -9.8612299
v 27.681694 4.02403259 -9.8612299
v 27.6303539 4.02403259 -9.8612299
v 27.6303539 4.98459339 -9.8612299
v 27.681694 4.98459339 -9.90134716
v 27.681694 4.98459339 -9.8612299
v 27.6951313 4.98459339 -9.8501997
v 27.6951313 4.98459339 -9.91237736
v 27.681694 4.98459339 -9.8612299
v 27.6303539 4.98459339 -9.8612299
v 27.6169128 4.98459339 -9.8501997
v 27.6951313 4.98459339 -9.8501997
v 27.6303539 4.98459339 -9.8612299
v 27.6303539 4.98459339 -9.90134716
v 27.6169128 4.98459339 -9.91237736
v 27.6169128 4.98459339 -9.8501997
v 27.6303539 4.98459339 -9.90134716
v 27.681694 4.98459339 -9.90134716
v 27.6951313 4.98459339 -9.91237736
v 27.6169128 4.98459339 -9.91237736
v 27.6951313 4.98459339 -9.91237736
v 27.6951313 4.98459339 -9.8501997
v 27.6951313 5.00002575 -9.8501997
v 27.6951313 5.00002575 -9.91237736
v 27.6951313 4.98459339 -9.8501997
v 27.6169128 4.98459339 -9.8501997
v 27.6169128 5.00002575 -9.8501997
v 27.6951313 5.00002575 -9.8501997
v 27.6169128 4.98459339 -9.8501997
v 27.6169128 4.98459339 -9.91237736
v 27.6169128 5.00002575 -9.91237736
v 27.6169128 5.00002575 -9.8501997
v 27.6169128 4.98459339 -9.91237736
v 27.6951313 4.98459339 -9.91237736
v 27.6951313 5.00002575 -9.91237736
v 27.6169128 5.00002575 -9.91237736
v 27.6934662 4.02403259 -9.84623718
v 27.6934662 4.02403259 -9.91634274
v 27.6934662 3.91503096 -9.91634274
v 27.6934662 3.91503096 -9.84623718
v 27.6934662 4.02403259 -9.91634274
v 27.6185818 4.02403259 -9.91634274
v 27.6185818 3.91503096 -9.91634274
v 27.6934662 3.91503096 -9.91634274
v 27.6185818 4.02403259 -9.91634274
v 27.6185818 4.02403259 -9.84623718
v 27.6185818 3.91503096 -9.84623718
v 27.6185818 3.91503096 -9.91634274
v 27.6185818 4.02403259 -9.84623718
v 27.6934662 4.02403259 -9.84623718
v 27.6934662 3.91503096 -9.84623718
v 27.6185818 3.91503096 -9.84623718
v 27.681694 4.02403259 -9.8612299
v 27.681694 4.02403259 -9.90134716
v 27.6934662 4.02403259 -9.91634274
v 27.6934662 4.02403259 -9.84623718
v 27.681694 4.02403259 -9.90134716
v 27.6303539 4.02403259 -9.90134716
v 27.6185818 4.02403259 -9.91634274
v 27.6934662 4.02403259 -9.91634274
v 27.6303539 4.02403259 -9.90134716
v 27.6303539 4.02403259 -9.8612299
v 27.6185818 4.02403259 -9.84623718
v 27.6185818 4.02403259 -9.91634274
v 27.6303539 4.02403259 -9.8612299
v 27.681694 4.02403259 -9.8612299
v 27.6934662 4.02403259 -9.84623718
v 27.6185818 4.02403259 -9.84623718
v 27.6358662 4.9589982 -8.94346428
v 27.6358643 4.9589982 -9.86951637
v 27.6358643 4.97048044 -9.86951637
v 27.6358662 4.97048044 -8.94346428
v 27.6780853 4.9589982 -8.94346428
v 27.6780853 4.97048044 -8.94346428
v 27.6780853 4.97048044 -9.86951637
v 27.6780853 4.9589982 -9.86951637
v 27.6780853 4.9589982 -8.94346428
v 27.6780853 4.9589982 -9.86951637
v 27.6358643 4.9589982 -9.86951637
v 27.6358662 4.9589982 -8.94346428
v 27.6675339 4.98103523 -9.86951637
v 27.6675339 4.98103523 -8.94346428
v 27.6464233 4.98103523 -8.94346428
v 27.6464195 4.98103523 -9.86951637
v 27.6780853 4.97048044 -8.94346428
v 27.6675339 4.98103523 -8.94346428
v 27.6675339 4.98103523 -9.86951637
v 27.6780853 4.97048044 -9.86951637
v 27.6358643 4.97048044 -9.86951637
v 27.6464195 4.98103523 -9.86951637
v 27.6464233 4.98103523 -8.94346428
v 27.6358662 4.97048044 -8.94346428
v 27.6358662 4.03307009 -8.94345474
v 27.6358643 4.03307009 -9.86950684
v 27.6358643 4.05510664 -9.86950684
v 27.6358662 4.05510664 -8.94345474
v 27.6780853 4.03307009 -8.94345474
v 27.6780853 4.05510664 -8.94345474
v 27.6780853 4.05510664 -9.86950684
v 27.6780853 4.03307009 -9.86950684
v 27.6780853 4.03307009 -8.94345474
v 27.6780853 4.03307009 -9.86950684
v 27.6358643 4.03307009 -9.86950684
v 27.6358662 4.03307009 -8.94345474
v 27.6780853 4.05510664 -9.86950684
v 27.6780853 4.05510664 -8.94345474
v 27.6358662 4.05510664 -8.94345474
v 27.6358643 4.05510664 -9.86950684
vt 0.246337891 0.289550781
vt 0.246337891 0.404785156
vt 0.00388717651 0.404785156
vt 0.00388717651 0.289550781
vt 0.0315856934 0.412597656
vt 0.21862793 0.412597656
vt 0.21862793 0.525390625
vt 0.0315856934 0.525390625
vt 0.216430664 0.284179688
vt 0.216430664 0.278808594
vt 0.0872802734 0.278808594
vt 0.0872802734 0.284179688
vt 0.0872802734 0.284179688
vt 0.0872802734 0.278808594
vt 0.216430664 0.278808594
vt 0.216430664 0.284179688
vt 0.0283966064 0.408203125
vt 0.221801758 0.408203125
vt 0.21862793 0.412597656
vt 0.0315856934 0.412597656
vt 0.24621582 0.408203125
vt 0.24621582 0.529785156
vt 0.2421875 0.525390625
vt 0.2421875 0.412597656
vt 0.221801758 0.529785156
vt 0.0283966064 0.529785156
vt 0.0315856934 0.525390625
vt 0.21862793 0.525390625
vt 0.00400543213 0.529785156
vt 0.00400543213 0.408203125
vt 0.00799560547 0.412597656
vt 0.00799560547 0.525390625
vt 0.287109375 0.268066406
vt 0.287109375 0.262939453
vt 0.393798828 0.262939453
vt 0.393798828 0.268066406
vt 0.287109375 0.274658203
vt 0.393798828 0.274658203
vt 0.393798828 0.280029297
vt 0.287109375 0.280029297
vt 0.275634766 0.276123047
vt 0.267333984 0.276123047
vt 0.267333984 0.267089844
vt 0.275634766 0.267089844
vt 0.287109375 0.256103516
vt 0.393798828 0.256103516
vt 0.393798828 0.262939453
vt 0.287109375 0.262939453
vt 0.279296875 0.290039062
vt 0.269042969 0.290039062
vt 0.269042969 0.27734375
vt 0.279296875 0.27734375
vt 0.393798828 0.274658203
vt 0.287109375 0.274658203
vt 0.287109375 0.268066406
vt 0.393798828 0.268066406
vt 0.283691406 0.291748047
vt 0.283691406 0.298339844
vt 0.281738281 0.300048828
vt 0.281738281 0.290039062
vt 0.283691406 0.256591797
vt 0.283691406 0.264892578
vt 0.281738281 0.267089844
vt 0.281738281 0.254394531
vt 0.283691406 0.269042969
vt 0.283691406 0.275390625
vt 0.281738281 0.27734375
vt 0.281738281 0.267089844
vt 0.283691406 0.279541016
vt 0.283691406 0.287841797
vt 0.281738281 0.290039062
vt 0.281738281 0.27734375
vt 0.281738281 0.290039062
vt 0.281738281 0.300048828
vt 0.279296875 0.300048828
vt 0.279296875 0.290039062
vt 0.281738281 0.254394531
vt 0.281738281 0.267089844
vt 0.279296875 0.267089844
vt 0.279296875 0.254394531
vt 0.281738281 0.267089844
vt 0.281738281 0.27734375
vt 0.279296875 0.27734375
vt 0.279296875 0.267089844
vt 0.281738281 0.27734375
vt 0.281738281 0.290039062
vt 0.279296875 0.290039062
vt 0.279296875 0.27734375
vt 0.254150391 0.284423828
vt 0.254150391 0.276123047
vt 0.267333984 0.276123047
vt 0.267333984 0.284423828
vt 0.254150391 0.276123047
vt 0.254150391 0.267089844
vt 0.267333984 0.267089844
vt 0.267333984 0.276123047
vt 0.254150391 0.267089844
vt 0.254150391 0.258544922
vt 0.267333984 0.258544922
vt 0.267333984 0.267089844
vt 0.254150391 0.293701172
vt 0.254150391 0.284423828
vt 0.267333984 0.284423828
vt 0.267333984 0.293701172
vt 0.252441406 0.282714844
vt 0.252441406 0.277832031
vt 0.254150391 0.276123047
vt 0.254150391 0.284423828
vt 0.252441406 0.274658203
vt 0.252441406 0.268554688
vt 0.254150391 0.267089844
vt 0.254150391 0.276123047
vt 0.252441406 0.265136719
vt 0.252441406 0.260253906
vt 0.254150391 0.258544922
vt 0.254150391 0.267089844
vt 0.252441406 0.292236328
vt 0.252441406 0.285888672
vt 0.254150391 0.284423828
vt 0.254150391 0.293701172
vt 0.00362205505 0.25390625
vt 0.246582031 0.25390625
vt 0.246582031 0.255859375
vt 0.00362205505 0.255859375
vt 0.00362205505 0.266845703
vt 0.00362205505 0.264892578
vt 0.246582031 0.264892578
vt 0.246582031 0.266845703
vt 0.00362205505 0.270263672
vt 0.246582031 0.270263672
vt 0.246582031 0.275878906
vt 0.00362205505 0.275878906
vt 0.246582031 0.262207031
vt 0.00362205505 0.262207031
vt 0.00362205505 0.258544922
vt 0.246582031 0.258544922
vt 0.00362205505 0.264892578
vt 0.00362205505 0.262207031
vt 0.246582031 0.262207031
vt 0.246582031 0.264892578
vt 0.246582031 0.255859375
vt 0.246582031 0.258544922
vt 0.00362205505 0.258544922
vt 0.00362205505 0.255859375
vt 0.00362205505 0.275878906
vt 0.246582031 0.275878906
vt 0.246582031 0.278808594
vt 0.00362205505 0.278808594
vt 0.00362205505 0.286865234
vt 0.00362205505 0.284179688
vt 0.246582031 0.284179688
vt 0.246582031 0.286865234
vt 0.00362205505 0.270263672
vt 0.246582031 0.270263672
vt 0.246582031 0.275878906
vt 0.00362205505 0.275878906
vt 0.246582031 0.284179688
vt 0.00362205505 0.284179688
vt 0.00362205505 0.278808594
vt 0.246582031 0.278808594
vt 0.00388717651 0.404785156
vt 0.00388717651 0.289550781
vt 0.246337891 0.289550781
vt 0.246337891 0.404785156
vt 0.0315856934 0.412597656
vt 0.21862793 0.412597656
vt 0.21862793 0.525390625
vt 0.0315856934 0.525390625
vt 0.216430664 0.284179688
vt 0.216430664 0.278808594
vt 0.0872802734 0.278808594
vt 0.0872802734 0.284179688
vt 0.0872802734 0.284179688
vt 0.0872802734 0.278808594
vt 0.216430664 0.278808594
vt 0.216430664 0.284179688
vt 0.0283966064 0.408203125
vt 0.221801758 0.408203125
vt 0.21862793 0.412597656
vt 0.0315856934 0.412597656
vt 0.24621582 0.408203125
vt 0.24621582 0.529785156
vt 0.2421875 0.525390625
vt 0.2421875 0.412597656
vt 0.221801758 0.529785156
vt 0.0283966064 0.529785156
vt 0.0315856934 0.525390625
vt 0.21862793 0.525390625
vt 0.00400543213 0.529785156
vt 0.00400543213 0.408203125
vt 0.00799560547 0.412597656
vt 0.00799560547 0.525390625
vt 0.393798828 0.262939453
vt 0.393798828 0.268066406
vt 0.287109375 0.268066406
vt 0.287109375 0.262939453
vt 0.393798828 0.280029297
vt 0.287109375 0.280029297
vt 0.287109375 0.274658203
vt 0.393798828 0.274658203
vt 0.275634766 0.276123047
vt 0.267333984 0.276123047
vt 0.267333984 0.267089844
vt 0.275634766 0.267089844
vt 0.393798828 0.274658203
vt 0.287109375 0.274658203
vt 0.287109375 0.268066406
vt 0.393798828 0.268066406
vt 0.279296875 0.290039062
vt 0.269042969 0.290039062
vt 0.269042969 0.27734375
vt 0.279296875 0.27734375
vt 0.287109375 0.256103516
vt 0.393798828 0.256103516
vt 0.393798828 0.262939453
vt 0.287109375 0.262939453
vt 0.283691406 0.291748047
vt 0.283691406 0.298339844
vt 0.281738281 0.300048828
vt 0.281738281 0.290039062
vt 0.283691406 0.256591797
vt 0.283691406 0.264892578
vt 0.281738281 0.267089844
vt 0.281738281 0.254394531
vt 0.283691406 0.269042969
vt 0.283691406 0.275390625
vt 0.281738281 0.27734375
vt 0.281738281 0.267089844
vt 0.283691406 0.279541016
vt 0.283691406 0.287841797
vt 0.281738281 0.290039062
vt 0.281738281 0.27734375
vt 0.281738281 0.290039062
vt 0.281738281 0.300048828
vt 0.279296875 0.300048828
vt 0.279296875 0.290039062
vt 0.281738281 0.254394531
vt 0.281738281 0.267089844
vt 0.279296875 0.267089844
vt 0.279296875 0.254394531
vt 0.281738281 0.267089844
vt 0.281738281 0.27734375
vt 0.279296875 0.27734375
vt 0.279296875 0.267089844
vt 0.281738281 0.27734375
vt 0.281738281 0.290039062
vt 0.279296875 0.290039062
vt 0.279296875 0.27734375
vt 0.254150391 0.284423828
vt 0.254150391 0.276123047
vt 0.267333984 0.276123047
vt 0.267333984 0.284423828
vt 0.254150391 0.276123047
vt 0.254150391 0.267089844
vt 0.267333984 0.267089844
vt 0.267333984 0.276123047
vt 0.254150391 0.267089844
vt 0.254150391 0.258544922
vt 0.267333984 0.258544922
vt 0.267333984 0.267089844
vt 0.254150391 0.293701172
vt 0.254150391 0.284423828
vt 0.267333984 0.284423828
vt 0.267333984 0.293701172
vt 0.252441406 0.282714844
vt 0.252441406 0.277832031
vt 0.254150391 0.276123047
vt 0.254150391 0.284423828
vt 0.252441406 0.274658203
vt 0.252441406 0.268554688
vt 0.254150391 0.267089844
vt 0.254150391 0.276123047
vt 0.252441406 0.265136719
vt 0.252441406 0.260253906
vt 0.254150391 0.258544922
vt 0.254150391 0.267089844
vt 0.252441406 0.292236328
vt 0.252441406 0.285888672
vt 0.254150391 0.284423828
vt 0.254150391 0.293701172
vt 0.00362205505 0.25390625
vt 0.246582031 0.25390625
vt 0.246582031 0.255859375
vt 0.00362205505 0.255859375
vt 0.00362205505 0.266845703
vt 0.00362205505 0.264892578
vt 0.246582031 0.264892578
vt 0.246582031 0.266845703
vt 0.00362205505 0.270263672
vt 0.246582031 0.270263672
vt 0.246582031 0.275878906
vt 0.00362205505 0.275878906
vt 0.246582031 0.262207031
vt 0.00362205505 0.262207031
vt 0.00362205505 0.258544922
vt 0.246582031 0.258544922
vt 0.00362205505 0.264892578
vt 0.00362205505 0.262207031
vt 0.246582031 0.262207031
vt 0.246582031 0.264892578
vt 0.246582031 0.255859375
vt 0.246582031 0.258544922
vt 0.00362205505 0.258544922
vt 0.00362205505 0.255859375
vt 0.00362205505 0.275878906
vt 0.246582031 0.275878906
vt 0.246582031 0.278808594
vt 0.00362205505 0.278808594
vt 0.00362205505 0.286865234
vt 0.00362205505 0.284179688
vt 0.246582031 0.284179688
vt 0.246582031 0.286865234
vt 0.00362205505 0.270263672
vt 0.246582031 0.270263672
vt 0.246582031 0.275878906
vt 0.00362205505 0.275878906
vt 0.246582031 0.284179688
vt 0.00362205505 0.284179688
vt 0.00362205505 0.278808594
vt 0.246582031 0.278808594
vn 0.71484375 0 0.69921875
vn 0.71484375 0 0.69921875
vn 0.71484375 0 0.69921875
vn 0.71484375 0 0.69921875
vn -0.71484375 0 -0.69921875
vn -0.71484375 0 -0.69921875
vn -0.71484375 0 -0.69921875
vn -0.71484375 0 -0.69921875
vn 0.69921875 0 -0.71484375
vn 0.69921875 0 -0.71484375
vn 0.69921875 0 -0.71484375
vn 0.69921875 0 -0.71484375
vn -0.69921875 0 0.71484375
vn -0.69921875 0 0.71484375
vn -0.69921875 0 0.71484375
vn -0.69921875 0 0.71484375
vn -0.516113281 -0.691894531 -0.504882812
vn -0.516113281 -0.691894531 -0.504882812
vn -0.516113281 -0.691894531 -0.504882812
vn -0.516113281 -0.691894531 -0.504882812
vn -0.0321960449 0 -0.999511719
vn -0.0321960449 0 -0.999511719
vn -0.0321960449 0 -0.999511719
vn -0.0321960449 0 -0.999511719
vn -0.516113281 0.691894531 -0.504882812
vn -0.516113281 0.691894531 -0.504882812
vn -0.516113281 0.691894531 -0.504882812
vn -0.516113281 0.691894531 -0.504882812
vn -1 0 -0.0102844238
vn -1 0 -0.0102844238
vn -1 0 -0.0102844238
vn -1 0 -0.0102844238
vn -0.71484375 0 -0.69921875
vn -0.71484375 0 -0.69921875
vn -0.71484375 0 -0.69921875
vn -0.71484375 0 -0.69921875
vn 0.71484375 0 0.69921875
vn 0.71484375 0 0.69921875
vn 0.71484375 0 0.69921875
vn 0.71484375 0 0.69921875
vn -0 -1 0
vn -0 -1 0
vn -0 -1 0
vn -0 -1 0
vn 0.69921875 0 -0.71484375
vn 0.69921875 0 -0.71484375
vn 0.69921875 0 -0.71484375
vn 0.69921875 0 -0.71484375
vn -0 1 -5.00679016E-06
vn -0 1 -5.00679016E-06
vn -0 1 -5.00679016E-06
vn -0 1 -5.00679016E-06
vn -0.69921875 0 0.71484375
vn -0.69921875 0 0.71484375
vn -0.69921875 0 0.71484375
vn -0.69921875 0 0.71484375
vn -0 -1 -1.77621841E-05
vn -0 -1 -1.77621841E-05
vn -0 -1 -1.77621841E-05
vn -0 -1 -1.77621841E-05
vn -0 -1 0
vn -0 -1 0
vn -0 -1 0
vn -0 -1 0
vn -0 -1 0
vn -0 -1 0
vn -0 -1 0
vn -0 -1 0
vn -0 -1 0
vn -0 -1 0
vn -0 -1 0
vn -0 -1 0
vn 0.71484375 0 0.69921875
vn 0.71484375 0 0.69921875
vn 0.71484375 0 0.69921875
vn 0.71484375 0 0.69921875
vn -0.69921875 0 0.71484375
vn -0.69921875 0 0.71484375
vn -0.69921875 0 0.71484375
vn -0.69921875 0 0.71484375
vn -0.71484375 0 -0.69921875
vn -0.71484375 0 -0.69921875
vn -0.71484375 0 -0.69921875
vn -0.71484375 0 -0.69921875
vn 0.69921875 0 -0.71484375
vn 0.69921875 0 -0.71484375
vn 0.69921875 0 -0.71484375
vn 0.69921875 0 -0.71484375
vn 0.71484375 0 0.69921875
vn 0.71484375 0 0.69921875
vn 0.71484375 0 0.69921875
vn 0.71484375 0 0.69921875
vn 0.69921875 0 -0.71484375
vn 0.69921875 0 -0.71484375
vn 0.69921875 0 -0.71484375
vn 0.69921875 0 -0.71484375
vn -0.71484375 0 -0.69921875
vn -0.71484375 0 -0.69921875
vn -0.71484375 0 -0.69921875
vn -0.71484375 0 -0.69921875
vn -0.69921875 0 0.71484375
vn -0.69921875 0 0.71484375
vn -0.69921875 0 0.71484375
vn -0.69921875 0 0.71484375
vn -0 1 1.46627426E-05
vn -0 1 -7.33137131E-06
vn -0 1 -8.58306885E-06
vn -0 1 1.71661377E-05
vn -0 1 -7.33137131E-06
vn -0 1 -7.33137131E-06
vn -0 1 -8.58306885E-06
vn -0 1 -8.58306885E-06
vn -0 1 -7.33137131E-06
vn -0 1 1.46627426E-05
vn -0 1 1.71661377E-05
vn -0 1 -8.58306885E-06
vn -0 1 1.46627426E-05
vn -0 1 1.46627426E-05
vn -0 1 1.71661377E-05
vn -0 1 1.71661377E-05
vn -0.71484375 0 -0.69921875
vn -0.71484375 0 -0.69921875
vn -0.71484375 0 -0.69921875
vn -0.71484375 0 -0.69921875
vn 0.71484375 0 0.69921875
vn 0.71484375 0 0.69921875
vn 0.71484375 0 0.69921875
vn 0.71484375 0 0.69921875
vn -0 -1 0
vn -0 -1 0
vn -0 -1 0
vn -0 -1 0
vn -0 1 0
vn -0 1 0
vn -0 1 0
vn -0 1 0
vn 0.505371094 0.70703125 0.494628906
vn 0.505371094 0.70703125 0.494628906
vn 0.505371094 0.70703125 0.494628906
vn 0.505371094 0.70703125 0.494628906
vn -0.505371094 0.70703125 -0.494384766
vn -0.505371094 0.70703125 -0.494384766
vn -0.505371094 0.70703125 -0.494384766
vn -0.505371094 0.70703125 -0.494384766
vn -0.71484375 0 -0.69921875
vn -0.71484375 0 -0.69921875
vn -0.71484375 0 -0.69921875
vn -0.71484375 0 -0.69921875
vn 0.71484375 0 0.69921875
vn 0.71484375 0 0.69921875
vn 0.71484375 0 0.69921875
vn 0.71484375 0 0.69921875
vn -0 -1 0
vn -0 -1 0
vn -0 -1 0
vn -0 -1 0
vn -0 1 0
vn -0 1 0
vn -0 1 0
vn -0 1 0
vn 1 0 0
vn 1 0 0
vn 1 0 0
vn 1 0 0
vn -1 0 0
vn -1 0 0
vn -1 0 0
vn -1 0 0
vn -0 0 -1
vn -0 0 -1
vn -0 0 -1
vn -0 0 -1
vn -0 0 1
vn -0 0 1
vn -0 0 1
vn -0 0 1
vn -0.722167969 -0.691894531 0
vn -0.722167969 -0.691894531 0
vn -0.722167969 -0.691894531 0
vn -0.722167969 -0.691894531 0
vn -0.722167969 0 -0.691894531
vn -0.722167969 0 -0.691894531
vn -0.722167969 0 -0.691894531
vn -0.722167969 0 -0.691894531
vn -0.722167969 0.691894531 0
vn -0.722167969 0.691894531 0
vn -0.722167969 0.691894531 0
vn -0.722167969 0.691894531 0
vn -0.722167969 0 0.691894531
vn -0.722167969 0 0.691894531
vn -0.722167969 0 0.691894531
vn -0.722167969 0 0.691894531
vn -1 0 0
vn -1 0 0
vn -1 0 0
vn -1 0 0
vn 1 0 0
vn 1 0 0
vn 1 0 0
vn 1 0 0
vn -0 -1 0
vn -0 -1 0
vn -0 -1 0
vn -0 -1 0
vn -0 0 -1
vn -0 0 -1
vn -0 0 -1
vn -0 0 -1
vn -0 1 0
vn -0 1 0
vn -0 1 0
vn -0 1 0
vn -0 0 1
vn -0 0 1
vn -0 0 1
vn -0 0 1
vn -0 -1 0
vn -0 -1 0
vn -0 -1 0
vn -0 -1 0
vn -0 -1 0
vn -0 -1 0
vn -0 -1 0
vn -0 -1 0
vn -0 -1 0
vn -0 -1 0
vn -0 -1 0
vn -0 -1 0
vn -0 -1 0
vn -0 -1 0
vn -0 -1 0
vn -0 -1 0
vn 1 0 0
vn 1 0 0
vn 1 0 0
vn 1 0 0
vn -0 0 1
vn -0 0 1
vn -0 0 1
vn -0 0 1
vn -1 0 0
vn -1 0 0
vn -1 0 0
vn -1 0 0
vn -0 0 -1
vn -0 0 -1
vn -0 0 -1
vn -0 0 -1
vn 1 0 0
vn 1 0 0
vn 1 0 0
vn 1 0 0
vn -0 0 -1
vn -0 0 -1
vn -0 0 -1
vn -0 0 -1
vn -1 0 0
vn -1 0 0
vn -1 0 0
vn -1 0 0
vn -0 0 1
vn -0 0 1
vn -0 0 1
vn -0 0 1
vn -0 1 0
vn -0 1 0
vn -0 1 0
vn -0 1 0
vn -0 1 0
vn -0 1 0
vn -0 1 0
vn -0 1 0
vn -0 1 0
vn -0 1 0
vn -0 1 0
vn -0 1 0
vn -0 1 0
vn -0 1 0
vn -0 1 0
vn -0 1 0
vn -1 0 2.62260437E-06
vn -1 0 2.62260437E-06
vn -1 0 2.62260437E-06
vn -1 0 2.62260437E-06
vn 1 0 0
vn 1 0 0
vn 1 0 0
vn 1 0 0
vn -0 -1 0
vn -0 -1 0
vn -0 -1 0
vn -0 -1 0
vn -0 1 0
vn -0 1 0
vn -0 1 0
vn -0 1 0
vn 0.70703125 0.70703125 0
vn 0.70703125 0.70703125 0
vn 0.70703125 0.70703125 0
vn 0.70703125 0.70703125 0
vn -0.70703125 0.70703125 1.78813934E-06
vn -0.70703125 0.70703125 1.78813934E-06
vn -0.70703125 0.70703125 1.78813934E-06
vn -0.70703125 0.70703125 1.78813934E-06
vn -1 0 2.62260437E-06
vn -1 0 2.62260437E-06
vn -1 0 2.62260437E-06
vn -1 0 2.62260437E-06
vn 1 0 0
vn 1 0 0
vn 1 0 0
vn 1 0 0
vn -0 -1 0
vn -0 -1 0
vn -0 -1 0
vn -0 -1 0
vn -0 1 0
vn -0 1 0
vn -0 1 0
vn -0 1 0
g CatwalkRailing_Corner_C_0
f 3/3/3 2/2/2 1/1/1
f 4/4/4 3/3/3 1/1/1
f 7/7/7 6/6/6 5/5/5
f 8/8/8 7/7/7 5/5/5
f 11/11/11 10/10/10 9/9/9
f 12/12/12 11/11/11 9/9/9
f 15/15/15 14/14/14 13/13/13
f 16/16/16 15/15/15 13/13/13
f 19/19/19 18/18/18 17/17/17
f 20/20/20 19/19/19 17/17/17
f 23/23/23 22/22/22 21/21/21
f 24/24/24 23/23/23 21/21/21
f 27/27/27 26/26/26 25/25/25
f 28/28/28 27/27/27 25/25/25
f 31/31/31 30/30/30 29/29/29
f 32/32/32 31/31/31 29/29/29
f 35/35/35 34/34/34 33/33/33
f 36/36/36 35/35/35 33/33/33
f 39/39/39 38/38/38 37/37/37
f 40/40/40 39/39/39 37/37/37
f 43/43/43 42/42/42 41/41/41
f 44/44/44 43/43/43 41/41/41
f 47/47/47 46/46/46 45/45/45
f 48/48/48 47/47/47 45/45/45
f 51/51/51 50/50/50 49/49/49
f 52/52/52 51/51/51 49/49/49
f 55/55/55 54/54/54 53/53/53
f 56/56/56 55/55/55 53/53/53
f 59/59/59 58/58/58 57/57/57
f 60/60/60 59/59/59 57/57/57
f 63/63/63 62/62/62 61/61/61
f 64/64/64 63/63/63 61/61/61
f 67/67/67 66/66/66 65/65/65
f 68/68/68 67/67/67 65/65/65
f 71/71/71 70/70/70 69/69/69
f 72/72/72 71/71/71 69/69/69
f 75/75/75 74/74/74 73/73/73
f 76/76/76 75/75/75 73/73/73
f 79/79/79 78/78/78 77/77/77
f 80/80/80 79/79/79 77/77/77
f 83/83/83 82/82/82 81/81/81
f 84/84/84 83/83/83 81/81/81
f 87/87/87 86/86/86 85/85/85
f 88/88/88 87/87/87 85/85/85
f 91/91/91 90/90/90 89/89/89
f 92/92/92 91/91/91 89/89/89
f 95/95/95 94/94/94 93/93/93
f 96/96/96 95/95/95 93/93/93
f 99/99/99 98/98/98 97/97/97
f 100/100/100 99/99/99 97/97/97
f 103/103/103 102/102/102 101/101/101
f 104/104/104 103/103/103 101/101/101
f 107/107/107 106/106/106 105/105/105
f 108/108/108 107/107/107 105/105/105
f 111/111/111 110/110/110 109/109/109
f 112/112/112 111/111/111 109/109/109
f 115/115/115 114/114/114 113/113/113
f 116/116/116 115/115/115 113/113/113
f 119/119/119 118/118/118 117/117/117
f 120/120/120 119/119/119 117/117/117
f 123/123/123 122/122/122 121/121/121
f 124/124/124 123/123/123 121/121/121
f 127/127/127 126/126/126 125/125/125
f 128/128/128 127/127/127 125/125/125
f 131/131/131 130/130/130 129/129/129
f 132/132/132 131/131/131 129/129/129
f 135/135/135 134/134/134 133/133/133
f 136/136/136 135/135/135 133/133/133
f 139/139/139 138/138/138 137/137/137
f 140/140/140 139/139/139 137/137/137
f 143/143/143 142/142/142 141/141/141
f 144/144/144 143/143/143 141/141/141
f 147/147/147 146/146/146 145/145/145
f 148/148/148 147/147/147 145/145/145
f 151/151/151 150/150/150 149/149/149
f 152/152/152 151/151/151 149/149/149
f 155/155/155 154/154/154 153/153/153
f 156/156/156 155/155/155 153/153/153
f 159/159/159 158/158/158 157/157/157
f 160/160/160 159/159/159 157/157/157
f 163/163/163 162/162/162 161/161/161
f 164/164/164 163/163/163 161/161/161
f 167/167/167 166/166/166 165/165/165
f 168/168/168 167/167/167 165/165/165
f 171/171/171 170/170/170 169/169/169
f 172/172/172 171/171/171 169/169/169
f 175/175/175 174/174/174 173/173/173
f 176/176/176 175/175/175 173/173/173
f 179/179/179 178/178/178 177/177/177
f 180/180/180 179/179/179 177/177/177
f 183/183/183 182/182/182 181/181/181
f 184/184/184 183/183/183 181/181/181
f 187/187/187 186/186/186 185/185/185
f 188/188/188 187/187/187 185/185/185
f 191/191/191 190/190/190 189/189/189
f 192/192/192 191/191/191 189/189/189
f 195/195/195 194/194/194 193/193/193
f 196/196/196 195/195/195 193/193/193
f 199/199/199 198/198/198 197/197/197
f 200/200/200 199/199/199 197/197/197
f 203/203/203 202/202/202 201/201/201
f 204/204/204 203/203/203 201/201/201
f 207/207/207 206/206/206 205/205/205
f 208/208/208 207/207/207 205/205/205
f 211/211/211 210/210/210 209/209/209
f 212/212/212 211/211/211 209/209/209
f 215/215/215 214/214/214 213/213/213
f 216/216/216 215/215/215 213/213/213
f 219/219/219 218/218/218 217/217/217
f 220/220/220 219/219/219 217/217/217
f 223/223/223 222/222/222 221/221/221
f 224/224/224 223/223/223 221/221/221
f 227/227/227 226/226/226 225/225/225
f 228/228/228 227/227/227 225/225/225
f 231/231/231 230/230/230 229/229/229
f 232/232/232 231/231/231 229/229/229
f 235/235/235 234/234/234 233/233/233
f 236/236/236 235/235/235 233/233/233
f 239/239/239 238/238/238 237/237/237
f 240/240/240 239/239/239 237/237/237
f 243/243/243 242/242/242 241/241/241
f 244/244/244 243/243/243 241/241/241
f 247/247/247 246/246/246 245/245/245
f 248/248/248 247/247/247 245/245/245
f 251/251/251 250/250/250 249/249/249
f 252/252/252 251/251/251 249/249/249
f 255/255/255 254/254/254 253/253/253
f 256/256/256 255/255/255 253/253/253
f 259/259/259 258/258/258 257/257/257
f 260/260/260 259/259/259 257/257/257
f 263/263/263 262/262/262 261/261/261
f 264/264/264 263/263/263 261/261/261
f 267/267/267 266/266/266 265/265/265
f 268/268/268 267/267/267 265/265/265
f 271/271/271 270/270/270 269/269/269
f 272/272/272 271/271/271 269/269/269
f 275/275/275 274/274/274 273/273/273
f 276/276/276 275/275/275 273/273/273
f 279/279/279 278/278/278 277/277/277
f 280/280/280 279/279/279 277/277/277
f 283/283/283 282/282/282 281/281/281
f 284/284/284 283/283/283 281/281/281
f 287/287/287 286/286/286 285/285/285
f 288/288/288 287/287/287 285/285/285
f 291/291/291 290/290/290 289/289/289
f 292/292/292 291/291/291 289/289/289
f 295/295/295 294/294/294 293/293/293
f 296/296/296 295/295/295 293/293/293
f 299/299/299 298/298/298 297/297/297
f 300/300/300 299/299/299 297/297/297
f 303/303/303 302/302/302 301/301/301
f 304/304/304 303/303/303 301/301/301
f 307/307/307 306/306/306 305/305/305
f 308/308/308 307/307/307 305/305/305
f 311/311/311 310/310/310 309/309/309
f 312/312/312 311/311/311 309/309/309
f 315/315/315 314/314/314 313/313/313
f 316/316/316 315/315/315 313/313/313
f 319/319/319 318/318/318 317/317/317
f 320/320/320 319/319/319 317/317/317
