g SideBuilding_P0_Wall_5
v 16.3555565 3.71231627 -6.89582729
v 16.3555565 0.0123162838 -6.89582729
v 16.3555565 0.0123162838 -6.59528065
v 16.3555565 2.03231621 -6.59528065
v 16.3555565 2.03231621 -5.50415993
v 16.3555565 3.71231627 -5.50415993
v 16.3555565 0.0123162838 -1.4288671
v 16.3555565 3.71231627 -1.4288671
v 16.3555565 3.71231627 -3.46651363
v 16.3555565 0.0123162838 -3.46651363
v 16.3555565 3.71231627 -1.4288671
v 16.3555565 0.0123162838 -1.4288671
v 16.3555565 0.0123162838 0.608779311
v 16.3555565 3.71231627 0.608779311
v 16.3555565 0.0123162838 -4.41572428
v 16.3555565 0.0123162838 -3.46651363
v 16.3555565 3.71231627 -3.46651363
v 16.3555565 2.03231621 -4.41572428
v 16.3555565 3.71231627 -5.50415993
v 16.3555565 2.03231621 -5.50415993
vt 0.701660156 0.995605469
vt 0.701660156 0.532714844
vt 0.66796875 0.532714844
vt 0.66796875 0.784667969
vt 0.534179688 0.784667969
vt 0.534179688 0.995605469
vt 0.534179688 0.532714844
vt 0.534179688 0.995605469
vt 0.7890625 0.995605469
vt 0.7890625 0.532714844
vt 0.7890625 0.995605469
vt 0.7890625 0.532714844
vt 0.534179688 0.532714844
vt 0.534179688 0.995605469
vt 0.657714844 0.532714844
vt 0.534179688 0.532714844
vt 0.534179688 0.995605469
vt 0.657714844 0.784667969
vt 0.7890625 0.995605469
vt 0.7890625 0.784667969
vn 1 0 0
vn 1 0 0
vn 1 0 0
vn 1 0 0
vn 1 0 0
vn 1 0 0
vn 1 0 0
vn 1 0 0
vn 1 0 0
vn 1 0 0
vn 1 0 0
vn 1 0 0
vn 1 0 0
vn 1 0 0
vn 1 0 0
vn 1 0 0
vn 1 0 0
vn 1 0 0
vn 1 -3.57627869E-07 0
vn 1 -3.57627869E-07 0
g SideBuilding_P0_Wall_5_0
f 3/3/3 2/2/2 1/1/1
f 4/4/4 3/3/3 1/1/1
f 4/4/4 1/1/1 5/5/5
f 1/1/1 6/6/6 5/5/5
f 9/9/9 8/8/8 7/7/7
f 10/10/10 9/9/9 7/7/7
f 13/13/13 12/12/12 11/11/11
f 14/14/14 13/13/13 11/11/11
f 17/17/17 16/16/16 15/15/15
f 18/18/18 17/17/17 15/15/15
f 17/17/17 18/18/18 19/19/19
f 18/18/18 20/20/20 19/19/19
