g IS4_MiniRod_Calidad_Carpeta
v 0.0614725277 -0.113012433 -0.00987994112
v 0.0712221935 0.0969254598 0.000331678981
v -0.0749320239 0.105535686 -0.0371420719
v -0.0846816897 -0.104402132 -0.0473536961
v 0.0694488585 0.0966741443 0.00719027547
v 0.0712221935 0.0969254598 0.000331678981
v 0.0614725277 -0.113012433 -0.00987994112
v 0.0596991964 -0.113263674 -0.00302134454
v -0.0767053589 0.105284527 -0.0302834678
v -0.0749320239 0.105535686 -0.0371420719
v 0.0712221935 0.0969254598 0.000331678981
v 0.0694488585 0.0966741443 0.00719027547
v -0.0864550173 -0.104653366 -0.0404950976
v -0.0846816897 -0.104402132 -0.0473536961
v -0.0749320239 0.105535686 -0.0371420719
v -0.0767053589 0.105284527 -0.0302834678
v 0.0596991964 -0.113263674 -0.00302134454
v 0.0614725277 -0.113012433 -0.00987994112
v -0.0846816897 -0.104402132 -0.0473536961
v -0.0864550173 -0.104653366 -0.0404950976
v -0.0903779641 0.11764735 -0.0274425
v -0.0888212174 0.117867842 -0.0334634073
v 0.0829079598 0.10775096 0.0105677219
v 0.0813512132 0.107530318 0.0165886302
v 0.0703761727 -0.12879315 0.00509358477
v 0.0813512132 0.107530318 0.0165886302
v 0.0829079598 0.10775096 0.0105677219
v 0.0719329119 -0.128572583 -0.000927318935
v -0.0997962654 -0.118455626 -0.0449584462
v -0.0888212174 0.117867842 -0.0334634073
v -0.0903779641 0.11764735 -0.0274425
v -0.101353005 -0.118676193 -0.03893755
v -0.0997962654 -0.118455626 -0.0449584462
v -0.101353005 -0.118676193 -0.03893755
v 0.0703761727 -0.12879315 0.00509358477
v 0.0719329119 -0.128572583 -0.000927318935
v -0.0291006863 0.108283795 -0.0149945663
v -0.0264386833 0.110330611 -0.0249065869
v 0.0236670934 0.107378639 -0.0120595405
v 0.0210050885 0.10533198 -0.00214751647
v 0.0209086463 0.0879760236 -0.00575923827
v 0.0210050885 0.10533198 -0.00214751647
v 0.0236670934 0.107378639 -0.0120595405
v 0.0235706363 0.0900223777 -0.0156712811
v 0.0235706363 0.0900223777 -0.0156712811
v 0.0236670934 0.107378639 -0.0120595405
v -0.0264386833 0.110330611 -0.0249065869
v -0.0265351199 0.0929744989 -0.0285183191
v -0.0265351199 0.0929744989 -0.0285183191
v -0.0264386833 0.110330611 -0.0249065869
v -0.0291006863 0.108283795 -0.0149945663
v -0.0291971192 0.0909279883 -0.0186062753
v -0.0265351199 0.0929744989 -0.0285183191
v -0.0291971192 0.0909279883 -0.0186062753
v 0.0209086463 0.0879760236 -0.00575923827
v 0.0235706363 0.0900223777 -0.0156712811
v -0.0120510645 0.118888654 -0.020163035
v -0.000462976081 0.124357402 -0.0185199846
v -0.00137514528 0.125475258 -0.0147055052
v -0.0129774809 0.119699962 -0.0163634419
v -0.0063141766 0.114370979 -0.0185622219
v -0.00107743056 0.117698468 -0.0176536981
v -0.000462976081 0.124357402 -0.0185199846
v -0.0120510645 0.118888654 -0.020163035
v -0.00137514528 0.125475258 -0.0147055052
v -0.00198958325 0.11881648 -0.0138393017
v -0.00724057946 0.115182139 -0.0147627164
v -0.0129774809 0.119699962 -0.0163634419
v -0.000462976081 0.124357402 -0.0185199846
v 0.00981016364 0.117601119 -0.0145577332
v 0.00888373982 0.118412271 -0.0107581615
v -0.00137514528 0.125475258 -0.0147055052
v 0.00355039747 0.113789931 -0.0160329584
v 0.00981016364 0.117601119 -0.0145577332
v -0.000462976081 0.124357402 -0.0185199846
v -0.00107743056 0.117698468 -0.0176536981
v 0.00888373982 0.118412271 -0.0107581615
v 0.00262400089 0.114601083 -0.0122334482
v -0.00198958325 0.11881648 -0.0138393017
v -0.00137514528 0.125475258 -0.0147055052
v 0.00981016364 0.117601119 -0.0145577332
v 0.00700586941 0.10668467 -0.0136734582
v 0.00607953127 0.10749644 -0.00987405702
v 0.00888373982 0.118412271 -0.0107581615
v 0.00888373982 0.118412271 -0.0107581615
v 0.00607953127 0.10749644 -0.00987405702
v -0.00291087711 0.109258376 -0.0124422265
v 0.00262400089 0.114601083 -0.0122334482
v -0.00198447984 0.10844706 -0.0162417497
v 0.00700586941 0.10668467 -0.0136734582
v 0.00981016364 0.117601119 -0.0145577332
v 0.00355039747 0.113789931 -0.0160329584
v -0.0129774809 0.119699962 -0.0163634419
v -0.0121632321 0.10857112 -0.0145514822
v -0.01123688 0.107759506 -0.0183508936
v -0.0120510645 0.118888654 -0.020163035
v -0.0120510645 0.118888654 -0.020163035
v -0.01123688 0.107759506 -0.0183508936
v -0.00198447984 0.10844706 -0.0162417497
v -0.0063141766 0.114370979 -0.0185622219
v -0.00291087711 0.109258376 -0.0124422265
v -0.0121632321 0.10857112 -0.0145514822
v -0.0129774809 0.119699962 -0.0163634419
v -0.00724057946 0.115182139 -0.0147627164
v 0.0813512132 0.107530318 0.0165886302
v 0.0703761727 -0.12879315 0.00509358477
v -0.101353005 -0.118676193 -0.03893755
v -0.0903779641 0.11764735 -0.0274425
v 0.00355039747 0.113789931 -0.0160329584
v 0.00262400089 0.114601083 -0.0122334482
v -0.00291087711 0.109258376 -0.0124422265
v -0.00198447984 0.10844706 -0.0162417497
v 0.00262400089 0.114601083 -0.0122334482
v 0.00355039747 0.113789931 -0.0160329584
v -0.00107743056 0.117698468 -0.0176536981
v -0.00198958325 0.11881648 -0.0138393017
v -0.00724057946 0.115182139 -0.0147627164
v -0.0063141766 0.114370979 -0.0185622219
v -0.00198447984 0.10844706 -0.0162417497
v -0.00291087711 0.109258376 -0.0124422265
v -0.0063141766 0.114370979 -0.0185622219
v -0.00724057946 0.115182139 -0.0147627164
v -0.00198958325 0.11881648 -0.0138393017
v -0.00107743056 0.117698468 -0.0176536981
v -0.0888212174 0.117867842 -0.0334634073
v -0.0997962654 -0.118455626 -0.0449584462
v 0.0719329119 -0.128572583 -0.000927318935
v 0.0829079598 0.10775096 0.0105677219
vt 0.01171875 0.291259766
vt 0.01171875 0.436523438
vt 0.116088867 0.436523438
vt 0.116088867 0.291259766
vt 0.0055809021 0.436523438
vt 0.01171875 0.436523438
vt 0.01171875 0.291259766
vt 0.0055809021 0.291259766
vt 0.0055809021 0.427978516
vt 0.0117950439 0.427978516
vt 0.0117950439 0.323486328
vt 0.0055809021 0.323486328
vt 0.0055809021 0.436523438
vt 0.0113830566 0.436523438
vt 0.0113830566 0.291259766
vt 0.0055809021 0.291259766
vt 0.0055809021 0.397949219
vt 0.0117950439 0.397949219
vt 0.0117950439 0.293701172
vt 0.0055809021 0.293701172
vt 0.711425781 0.268066406
vt 0.716308594 0.268066406
vt 0.716308594 0.128540039
vt 0.711425781 0.128540039
vt 0.711425781 0.0983276367
vt 0.711425781 0.284179688
vt 0.716308594 0.284179688
vt 0.716308594 0.0983276367
vt 0.716308594 0.284179688
vt 0.716308594 0.0983276367
vt 0.711425781 0.0983276367
vt 0.711425781 0.284179688
vt 0.716308594 0.109680176
vt 0.711425781 0.109680176
vt 0.711425781 0.249023438
vt 0.716308594 0.249023438
vt 0.104919434 0.479492188
vt 0.104919434 0.472167969
vt 0.0694580078 0.472167969
vt 0.0694580078 0.479492188
vt 0.062286377 0.460205078
vt 0.062286377 0.472412109
vt 0.0694580078 0.472167969
vt 0.0694580078 0.460205078
vt 0.0694580078 0.460205078
vt 0.0694580078 0.472167969
vt 0.104919434 0.472167969
vt 0.104919434 0.460205078
vt 0.104919434 0.460205078
vt 0.104919434 0.472167969
vt 0.112060547 0.472412109
vt 0.112060547 0.460205078
vt 0.104919434 0.460205078
vt 0.104919434 0.452880859
vt 0.0694580078 0.452880859
vt 0.0694580078 0.460205078
vt 0.0814819336 0.51171875
vt 0.0817260742 0.504394531
vt 0.0780639648 0.504394531
vt 0.0781860352 0.511230469
vt 0.0866088867 0.51171875
vt 0.0871582031 0.504394531
vt 0.0817260742 0.504394531
vt 0.0814819336 0.51171875
vt 0.0780639648 0.504394531
vt 0.0725097656 0.504394531
vt 0.0731201172 0.51171875
vt 0.0781860352 0.511230469
vt 0.0817260742 0.504394531
vt 0.0815429688 0.496826172
vt 0.0781860352 0.497314453
vt 0.0780639648 0.504394531
vt 0.0866699219 0.497070312
vt 0.0815429688 0.496826172
vt 0.0817260742 0.504394531
vt 0.0871582031 0.504394531
vt 0.0781860352 0.497314453
vt 0.0731201172 0.497070312
vt 0.0725097656 0.504394531
vt 0.0780639648 0.504394531
vt 0.0815429688 0.496826172
vt 0.0814819336 0.489990234
vt 0.0770874023 0.489746094
vt 0.0781860352 0.497314453
vt 0.0781860352 0.497314453
vt 0.0770874023 0.489746094
vt 0.0682373047 0.491943359
vt 0.0731201172 0.497070312
vt 0.0895996094 0.490234375
vt 0.0814819336 0.489990234
vt 0.0815429688 0.496826172
vt 0.0866699219 0.497070312
vt 0.0781860352 0.511230469
vt 0.0771484375 0.519042969
vt 0.0814819336 0.518554688
vt 0.0814819336 0.51171875
vt 0.0814819336 0.51171875
vt 0.0814819336 0.518554688
vt 0.0896606445 0.518066406
vt 0.0866088867 0.51171875
vt 0.0682373047 0.516601562
vt 0.0771484375 0.519042969
vt 0.0781860352 0.511230469
vt 0.0731201172 0.51171875
vt 0.85546875 0.283935547
vt 0.85546875 0.0985107422
vt 0.716308594 0.0985107422
vt 0.716308594 0.283935547
vt 0.0866699219 0.497070312
vt 0.0902709961 0.497802734
vt 0.092956543 0.491455078
vt 0.0895996094 0.490234375
vt 0.0902709961 0.497802734
vt 0.0866699219 0.497070312
vt 0.0871582031 0.504394531
vt 0.0908813477 0.504394531
vt 0.0903320312 0.510742188
vt 0.0866088867 0.51171875
vt 0.0896606445 0.518066406
vt 0.0928344727 0.517089844
vt 0.0866088867 0.51171875
vt 0.0903320312 0.510742188
vt 0.0908813477 0.504394531
vt 0.0871582031 0.504394531
vt 0.85546875 0.284179688
vt 0.85546875 0.0983276367
vt 0.716308594 0.0983276367
vt 0.716308594 0.284179688
vn 0.250244141 0.0354309082 -0.967773438
vn 0.250244141 0.0354309082 -0.967773438
vn 0.250244141 0.0354309082 -0.967773438
vn 0.250244141 0.0354309082 -0.967773438
vn 0.967285156 -0.0569763184 0.247924805
vn 0.967285156 -0.0569763184 0.247924805
vn 0.967285156 -0.0569763184 0.247924805
vn 0.967285156 -0.0569763184 0.247924805
vn 0.0463256836 0.997558594 0.0485229492
vn 0.0463256836 0.997558594 0.0485229492
vn 0.0463256836 0.997558594 0.0485229492
vn 0.0463256836 0.997558594 0.0485229492
vn -0.967285156 0.0569763184 -0.247924805
vn -0.967285156 0.0569763184 -0.247924805
vn -0.967285156 0.0569763184 -0.247924805
vn -0.967285156 0.0569763184 -0.247924805
vn -0.0463256836 -0.997558594 -0.0485229492
vn -0.0463256836 -0.997558594 -0.0485229492
vn -0.0463256836 -0.997558594 -0.0485229492
vn -0.0463256836 -0.997558594 -0.0485229492
vn 0.0463256836 0.997558594 0.0485229492
vn 0.0463256836 0.997558594 0.0485229492
vn 0.0463256836 0.997558594 0.0485229492
vn 0.0463256836 0.997558594 0.0485229492
vn 0.967285156 -0.0569763184 0.247924805
vn 0.967285156 -0.0569763184 0.247924805
vn 0.967285156 -0.0569763184 0.247924805
vn 0.967285156 -0.0569763184 0.247924805
vn -0.967285156 0.0569763184 -0.247924805
vn -0.967285156 0.0569763184 -0.247924805
vn -0.967285156 0.0569763184 -0.247924805
vn -0.967285156 0.0569763184 -0.247924805
vn -0.0463256836 -0.997558594 -0.0485229492
vn -0.0463256836 -0.997558594 -0.0485229492
vn -0.0463256836 -0.997558594 -0.0485229492
vn -0.0463256836 -0.997558594 -0.0485229492
vn 0.00546646118 0.979003906 0.203613281
vn 0.00546646118 0.979003906 0.203613281
vn 0.00546646118 0.979003906 0.203613281
vn 0.00546646118 0.979003906 0.203613281
vn 0.967285156 -0.0569763184 0.247924805
vn 0.967285156 -0.0569763184 0.247924805
vn 0.967285156 -0.0569763184 0.247924805
vn 0.967285156 -0.0569763184 0.247924805
vn 0.254394531 0.195678711 -0.947265625
vn 0.254394531 0.195678711 -0.947265625
vn 0.254394531 0.195678711 -0.947265625
vn 0.254394531 0.195678711 -0.947265625
vn -0.967285156 0.0569763184 -0.247924805
vn -0.967285156 0.0569763184 -0.247924805
vn -0.967285156 0.0569763184 -0.247924805
vn -0.967285156 0.0569763184 -0.247924805
vn -0.00547790527 -0.979003906 -0.203613281
vn -0.00547790527 -0.979003906 -0.203613281
vn -0.00547790527 -0.979003906 -0.203613281
vn -0.00547790527 -0.979003906 -0.203613281
vn -0.378173828 0.871582031 -0.312255859
vn -0.378173828 0.871582031 -0.312255859
vn -0.378173828 0.871582031 -0.312255859
vn -0.378173828 0.871582031 -0.312255859
vn 0.209106445 -0.118408203 -0.970703125
vn 0.209106445 -0.118408203 -0.970703125
vn 0.209106445 -0.118408203 -0.970703125
vn 0.209106445 -0.118408203 -0.970703125
vn -0.213500977 0.116271973 0.970214844
vn -0.213500977 0.116271973 0.970214844
vn -0.213500977 0.116271973 0.970214844
vn -0.213500977 0.116271973 0.970214844
vn 0.574707031 0.815429688 -0.0677490234
vn 0.574707031 0.815429688 -0.0677490234
vn 0.574707031 0.815429688 -0.0677490234
vn 0.574707031 0.815429688 -0.0677490234
vn 0.270507812 -0.122009277 -0.955078125
vn 0.270507812 -0.122009277 -0.955078125
vn 0.270507812 -0.122009277 -0.955078125
vn 0.270507812 -0.122009277 -0.955078125
vn -0.266601562 0.119384766 0.956542969
vn -0.266601562 0.119384766 0.956542969
vn -0.266601562 0.119384766 0.956542969
vn -0.266601562 0.119384766 0.956542969
vn 0.936523438 -0.218261719 0.274902344
vn 0.936523438 -0.218261719 0.274902344
vn 0.936523438 -0.218261719 0.274902344
vn 0.936523438 -0.218261719 0.274902344
vn -0.274658203 0.180053711 0.944335938
vn -0.274658203 0.180053711 0.944335938
vn -0.274658203 0.180053711 0.944335938
vn -0.274658203 0.180053711 0.944335938
vn 0.274658203 -0.180053711 -0.944335938
vn 0.274658203 -0.180053711 -0.944335938
vn 0.274658203 -0.180053711 -0.944335938
vn 0.274658203 -0.180053711 -0.944335938
vn -0.971191406 -0.105895996 -0.214111328
vn -0.971191406 -0.105895996 -0.214111328
vn -0.971191406 -0.105895996 -0.214111328
vn -0.971191406 -0.105895996 -0.214111328
vn 0.194091797 -0.175415039 -0.965332031
vn 0.194091797 -0.175415039 -0.965332031
vn 0.194091797 -0.175415039 -0.965332031
vn 0.194091797 -0.175415039 -0.965332031
vn -0.194091797 0.175415039 0.965332031
vn -0.194091797 0.175415039 0.965332031
vn -0.194091797 0.175415039 0.965332031
vn -0.194091797 0.175415039 0.965332031
vn -0.250244141 -0.0354309082 0.967773438
vn -0.250244141 -0.0354309082 0.967773438
vn -0.250244141 -0.0354309082 0.967773438
vn -0.250244141 -0.0354309082 0.967773438
vn -0.654785156 0.690429688 -0.307128906
vn -0.654785156 0.690429688 -0.307128906
vn -0.654785156 0.690429688 -0.307128906
vn -0.654785156 0.690429688 -0.307128906
vn -0.665527344 -0.745605469 0.0283050537
vn -0.665527344 -0.745605469 0.0283050537
vn -0.665527344 -0.745605469 0.0283050537
vn -0.665527344 -0.745605469 0.0283050537
vn 0.793457031 0.604980469 0.0642700195
vn 0.793457031 0.604980469 0.0642700195
vn 0.793457031 0.604980469 0.0642700195
vn 0.793457031 0.604980469 0.0642700195
vn 0.483642578 -0.813476562 0.322998047
vn 0.483642578 -0.813476562 0.322998047
vn 0.483642578 -0.813476562 0.322998047
vn 0.483642578 -0.813476562 0.322998047
vn 0.250244141 0.0354309082 -0.967773438
vn 0.250244141 0.0354309082 -0.967773438
vn 0.250244141 0.0354309082 -0.967773438
vn 0.250244141 0.0354309082 -0.967773438
g IS4_MiniRod_Calidad_Carpeta_0
f 3/3/3 2/2/2 1/1/1
f 4/4/4 3/3/3 1/1/1
f 7/7/7 6/6/6 5/5/5
f 8/8/8 7/7/7 5/5/5
f 11/11/11 10/10/10 9/9/9
f 12/12/12 11/11/11 9/9/9
f 15/15/15 14/14/14 13/13/13
f 16/16/16 15/15/15 13/13/13
f 19/19/19 18/18/18 17/17/17
f 20/20/20 19/19/19 17/17/17
f 23/23/23 22/22/22 21/21/21
f 24/24/24 23/23/23 21/21/21
f 27/27/27 26/26/26 25/25/25
f 28/28/28 27/27/27 25/25/25
f 31/31/31 30/30/30 29/29/29
f 32/32/32 31/31/31 29/29/29
f 35/35/35 34/34/34 33/33/33
f 36/36/36 35/35/35 33/33/33
f 39/39/39 38/38/38 37/37/37
f 40/40/40 39/39/39 37/37/37
f 43/43/43 42/42/42 41/41/41
f 44/44/44 43/43/43 41/41/41
f 47/47/47 46/46/46 45/45/45
f 48/48/48 47/47/47 45/45/45
f 51/51/51 50/50/50 49/49/49
f 52/52/52 51/51/51 49/49/49
f 55/55/55 54/54/54 53/53/53
f 56/56/56 55/55/55 53/53/53
f 59/59/59 58/58/58 57/57/57
f 60/60/60 59/59/59 57/57/57
f 63/63/63 62/62/62 61/61/61
f 64/64/64 63/63/63 61/61/61
f 67/67/67 66/66/66 65/65/65
f 68/68/68 67/67/67 65/65/65
f 71/71/71 70/70/70 69/69/69
f 72/72/72 71/71/71 69/69/69
f 75/75/75 74/74/74 73/73/73
f 76/76/76 75/75/75 73/73/73
f 79/79/79 78/78/78 77/77/77
f 80/80/80 79/79/79 77/77/77
f 83/83/83 82/82/82 81/81/81
f 84/84/84 83/83/83 81/81/81
f 87/87/87 86/86/86 85/85/85
f 88/88/88 87/87/87 85/85/85
f 91/91/91 90/90/90 89/89/89
f 92/92/92 91/91/91 89/89/89
f 95/95/95 94/94/94 93/93/93
f 96/96/96 95/95/95 93/93/93
f 99/99/99 98/98/98 97/97/97
f 100/100/100 99/99/99 97/97/97
f 103/103/103 102/102/102 101/101/101
f 104/104/104 103/103/103 101/101/101
f 107/107/107 106/106/106 105/105/105
f 108/108/108 107/107/107 105/105/105
f 111/111/111 110/110/110 109/109/109
f 112/112/112 111/111/111 109/109/109
f 115/115/115 114/114/114 113/113/113
f 116/116/116 115/115/115 113/113/113
f 119/119/119 118/118/118 117/117/117
f 120/120/120 119/119/119 117/117/117
f 123/123/123 122/122/122 121/121/121
f 124/124/124 123/123/123 121/121/121
f 127/127/127 126/126/126 125/125/125
f 128/128/128 127/127/127 125/125/125
