g IS4_MDL_EscenarioPB_Heladeria_Servilletero_1
v 0.074672848 0.117417984 0.0685687214
v -0.074672848 0.117417984 0.0685687214
v -0.074672848 0.135150567 0.0021673583
v 0.074672848 0.135150567 0.0021673583
v 0.074672848 0.117417984 -0.0685699433
v -0.074672848 0.117417984 -0.0685699433
v -0.074672848 -0.117417946 0.0685687214
v 0.074672848 -0.117417946 0.0685687214
v 0.074672848 -0.117417946 0.0021673583
v -0.074672848 -0.117417946 0.0021673583
v -0.074672848 -0.117417946 -0.0685699433
v 0.074672848 -0.117417946 -0.0685699433
v 0.074672848 -0.117417946 -0.0685699433
v 0.074672848 0.117417984 -0.0685699433
v -0.074672848 0.117417984 -0.0685699433
v -0.074672848 -0.117417946 -0.0685699433
v -0.074672848 -0.117417946 0.0685687214
v -0.074672848 0.117417984 0.0685687214
v 0.074672848 0.117417984 0.0685687214
v 0.074672848 -0.117417946 0.0685687214
v -0.074672848 -0.117417946 0.0021673583
v -0.074672848 -0.117417946 -0.0685699433
v -0.074672848 0.117417984 -0.0685699433
v -0.074672848 0.135150567 0.0021673583
v -0.074672848 0.117417984 0.0685687214
v -0.074672848 -0.117417946 0.0685687214
v 0.074672848 -0.117417946 0.0021673583
v 0.074672848 0.117417984 -0.0685699433
v 0.074672848 -0.117417946 -0.0685699433
v 0.074672848 0.135150567 0.0021673583
v 0.074672848 0.117417984 0.0685687214
v 0.074672848 -0.117417946 0.0685687214
vt 0.015296936 0.500976562
vt 0.015296936 0.540527344
vt 0.0458374023 0.540527344
vt 0.0458374023 0.500976562
vt 0.0783691406 0.500976562
vt 0.0783691406 0.540527344
vt 0.0155181885 0.500976562
vt 0.0155181885 0.540527344
vt 0.0460510254 0.540527344
vt 0.0460510254 0.500976562
vt 0.0785522461 0.500976562
vt 0.0785522461 0.540527344
vt 0.0146789551 0.500976562
vt 0.0146789551 0.591308594
vt 0.0805053711 0.591308594
vt 0.0805053711 0.500976562
vt 0.0147857666 0.500976562
vt 0.0147857666 0.591308594
vt 0.0806274414 0.591308594
vt 0.0806274414 0.500976562
vt 0.0455322266 0.595703125
vt 0.0803833008 0.595703125
vt 0.0803833008 0.684082031
vt 0.0447998047 0.690917969
vt 0.0127792358 0.684082031
vt 0.0127792358 0.595703125
vt 0.0457458496 0.595703125
vt 0.0806274414 0.684082031
vt 0.0806274414 0.595703125
vt 0.0449523926 0.690917969
vt 0.0130157471 0.684082031
vt 0.0130157471 0.595703125
vn -0 0.966308594 0.258056641
vn -0 0.966308594 0.258056641
vn -0 1 0
vn -0 1 0
vn -0 0.970214844 -0.243164062
vn -0 0.970214844 -0.243164062
vn -0 -1 0
vn -0 -1 0
vn -0 -1 0
vn -0 -1 0
vn -0 -1 0
vn -0 -1 0
vn -0 0 -1
vn -0 0 -1
vn -0 0 -1
vn -0 0 -1
vn -0 0 1
vn -0 0 1
vn -0 0 1
vn -0 0 1
vn -1 0 0
vn -1 0 0
vn -1 0 0
vn -1 0 0
vn -1 0 0
vn -1 0 0
vn 1 0 0
vn 1 0 0
vn 1 0 0
vn 1 0 0
vn 1 0 0
vn 1 0 0
g IS4_MDL_EscenarioPB_Heladeria_Servilletero_1_0
f 3/3/3 2/2/2 1/1/1
f 4/4/4 3/3/3 1/1/1
f 4/4/4 5/5/5 3/3/3
f 5/5/5 6/6/6 3/3/3
f 9/9/9 8/8/8 7/7/7
f 10/10/10 9/9/9 7/7/7
f 10/10/10 11/11/11 9/9/9
f 11/11/11 12/12/12 9/9/9
f 15/15/15 14/14/14 13/13/13
f 16/16/16 15/15/15 13/13/13
f 19/19/19 18/18/18 17/17/17
f 20/20/20 19/19/19 17/17/17
f 23/23/23 22/22/22 21/21/21
f 24/24/24 23/23/23 21/21/21
f 25/25/25 24/24/24 21/21/21
f 26/26/26 25/25/25 21/21/21
f 29/29/29 28/28/28 27/27/27
f 28/28/28 30/30/30 27/27/27
f 30/30/30 31/31/31 27/27/27
f 31/31/31 32/32/32 27/27/27
