g IS4_MDL_EscenarioPB_Ventilacion_Trampilla_1
v -0.00765624968 -0.292383671 -0.036381837
v -0.00765624968 0.295189738 -0.036381837
v 0.00765624968 0.295189738 -0.036381837
v 0.00765624968 -0.292383671 -0.036381837
v -0.00765624968 -0.292383671 -0.036381837
v -0.00774414046 -0.292382956 -0.051874999
v -0.00774414046 0.295188963 -0.051874999
v -0.00765624968 0.295189738 -0.036381837
v 0.00765624968 0.295189738 -0.036381837
v 0.00774414046 0.295188963 -0.051874999
v 0.00774414046 -0.292382956 -0.051874999
v 0.00765624968 -0.292383671 -0.036381837
v -0.00774414046 -0.292382956 -0.051874999
v 0.00774414046 -0.292382956 -0.051874999
v 0.00774414046 0.295188963 -0.051874999
v -0.00774414046 0.295188963 -0.051874999
v -0.00765624968 -0.292383671 -0.0953613296
v -0.00765624968 0.295189738 -0.0953613296
v 0.00765624968 0.295189738 -0.0953613296
v 0.00765624968 -0.292383671 -0.0953613296
v -0.00765624968 -0.292383671 -0.0953613296
v -0.00774414046 -0.292382956 -0.110859372
v -0.00774414046 0.295188963 -0.110859372
v -0.00765624968 0.295189738 -0.0953613296
v 0.00765624968 0.295189738 -0.0953613296
v 0.00774414046 0.295188963 -0.110859372
v 0.00774414046 -0.292382956 -0.110859372
v 0.00765624968 -0.292383671 -0.0953613296
v -0.00774414046 -0.292382956 -0.110859372
v 0.00774414046 -0.292382956 -0.110859372
v 0.00774414046 0.295188963 -0.110859372
v -0.00774414046 0.295188963 -0.110859372
v -0.00765624968 -0.292383671 0.0906542912
v -0.00765624968 0.295189738 0.0906542912
v 0.00765624968 0.295189738 0.0906542912
v 0.00765624968 -0.292383671 0.0906542912
v -0.00765624968 -0.292383671 0.0906542912
v -0.00774414046 -0.292382956 0.0751611292
v -0.00774414046 0.295188963 0.0751611292
v -0.00765624968 0.295189738 0.0906542912
v 0.00765624968 0.295189738 0.0906542912
v 0.00774414046 0.295188963 0.0751611292
v 0.00774414046 -0.292382956 0.0751611292
v 0.00765624968 -0.292383671 0.0906542912
v -0.00774414046 -0.292382956 0.0751611292
v 0.00774414046 -0.292382956 0.0751611292
v 0.00774414046 0.295188963 0.0751611292
v -0.00774414046 0.295188963 0.0751611292
v -0.00765624968 -0.292383671 0.0277685542
v -0.00765624968 0.295189738 0.0277685542
v 0.00765624968 0.295189738 0.0277685542
v 0.00765624968 -0.292383671 0.0277685542
v -0.00765624968 -0.292383671 0.0277685542
v -0.00774414046 -0.292382956 0.0122705074
v -0.00774414046 0.295188963 0.0122705074
v -0.00765624968 0.295189738 0.0277685542
v 0.00765624968 0.295189738 0.0277685542
v 0.00774414046 0.295188963 0.0122705074
v 0.00774414046 -0.292382956 0.0122705074
v 0.00765624968 -0.292383671 0.0277685542
v -0.00774414046 -0.292382956 0.0122705074
v 0.00774414046 -0.292382956 0.0122705074
v 0.00774414046 0.295188963 0.0122705074
v -0.00774414046 0.295188963 0.0122705074
v -0.00765624968 -0.292383671 0.154101565
v -0.00765624968 0.295189738 0.154101565
v 0.00765624968 0.295189738 0.154101565
v 0.00765624968 -0.292383671 0.154101565
v -0.00765624968 -0.292383671 0.154101565
v -0.00774414046 -0.292382956 0.138608396
v -0.00774414046 0.295188963 0.138608396
v -0.00765624968 0.295189738 0.154101565
v 0.00765624968 0.295189738 0.154101565
v 0.00774414046 0.295188963 0.138608396
v 0.00774414046 -0.292382956 0.138608396
v 0.00765624968 -0.292383671 0.154101565
v -0.00774414046 -0.292382956 0.138608396
v 0.00774414046 -0.292382956 0.138608396
v 0.00774414046 0.295188963 0.138608396
v -0.00774414046 0.295188963 0.138608396
v -0.00880859327 -0.156493723 0.282582998
v -0.00880859327 -0.156493723 -0.290219724
v 0.00880859327 -0.156493723 -0.290219724
v 0.00880859327 -0.156493723 0.282582998
v -0.00880859327 -0.156493723 0.282582998
v -0.00891113281 -0.171989322 0.282582998
v -0.00891113281 -0.171989322 -0.290219724
v -0.00880859327 -0.156493723 -0.290219724
v 0.00880859327 -0.156493723 -0.290219724
v 0.00891113281 -0.171989322 -0.290219724
v 0.00891113281 -0.171989322 0.282582998
v 0.00880859327 -0.156493723 0.282582998
v -0.00891113281 -0.171989322 0.282582998
v 0.00891113281 -0.171989322 0.282582998
v 0.00891113281 -0.171989322 -0.290219724
v -0.00891113281 -0.171989322 -0.290219724
v -0.00880859327 -0.0949464813 0.282582998
v -0.00880859327 -0.0949464813 -0.290219724
v 0.00880859327 -0.0949464813 -0.290219724
v 0.00880859327 -0.0949464813 0.282582998
v -0.00880859327 -0.0949464813 0.282582998
v -0.00891113281 -0.11044208 0.282582998
v -0.00891113281 -0.11044208 -0.290219724
v -0.00880859327 -0.0949464813 -0.290219724
v 0.00880859327 -0.0949464813 -0.290219724
v 0.00891113281 -0.11044208 -0.290219724
v 0.00891113281 -0.11044208 0.282582998
v 0.00880859327 -0.0949464813 0.282582998
v -0.00891113281 -0.11044208 0.282582998
v 0.00891113281 -0.11044208 0.282582998
v 0.00891113281 -0.11044208 -0.290219724
v -0.00891113281 -0.11044208 -0.290219724
v -0.00880859327 -0.218040809 0.282582998
v -0.00880859327 -0.218040809 -0.290219724
v 0.00880859327 -0.218040809 -0.290219724
v 0.00880859327 -0.218040809 0.282582998
v -0.00880859327 -0.218040809 0.282582998
v -0.00891113281 -0.233536407 0.282582998
v -0.00891113281 -0.233536407 -0.290219724
v -0.00880859327 -0.218040809 -0.290219724
v 0.00880859327 -0.218040809 -0.290219724
v 0.00891113281 -0.233536407 -0.290219724
v 0.00891113281 -0.233536407 0.282582998
v 0.00880859327 -0.218040809 0.282582998
v -0.00891113281 -0.233536407 0.282582998
v 0.00891113281 -0.233536407 0.282582998
v 0.00891113281 -0.233536407 -0.290219724
v -0.00891113281 -0.233536407 -0.290219724
v -0.00880859327 -0.0333993807 0.282582998
v -0.00880859327 -0.0333993807 -0.290219724
v 0.00880859327 -0.0333993807 -0.290219724
v 0.00880859327 -0.0333993807 0.282582998
v -0.00880859327 -0.0333993807 0.282582998
v -0.00891113281 -0.0488949865 0.282582998
v -0.00891113281 -0.0488949865 -0.290219724
v -0.00880859327 -0.0333993807 -0.290219724
v 0.00880859327 -0.0333993807 -0.290219724
v 0.00891113281 -0.0488949865 -0.290219724
v 0.00891113281 -0.0488949865 0.282582998
v 0.00880859327 -0.0333993807 0.282582998
v -0.00891113281 -0.0488949865 0.282582998
v 0.00891113281 -0.0488949865 0.282582998
v 0.00891113281 -0.0488949865 -0.290219724
v -0.00891113281 -0.0488949865 -0.290219724
v -0.0165624991 0.324999988 -0.324999988
v 0.0165624991 0.324999988 -0.324999988
v 0.016567383 0.324999988 0.00810058601
v -0.016567383 0.324999988 0.00810058601
v -0.0165624991 0.324999988 0.324999988
v 0.0165624991 0.324999988 0.324999988
v 0.0165624991 -0.324999988 -0.324999988
v -0.0165624991 -0.324999988 -0.324999988
v -0.016567383 -0.324999988 0.00810058601
v 0.016567383 -0.324999988 0.00810058601
v 0.0165624991 -0.324999988 0.324999988
v -0.0165624991 -0.324999988 0.324999988
v -0.0165624991 -0.324999988 0.324999988
v -0.0165624991 0.324999988 0.324999988
v 0.0165624991 0.324999988 0.324999988
v 0.0165624991 -0.324999988 0.324999988
v 0.0165624991 -0.324999988 -0.324999988
v 0.0165624991 0.324999988 -0.324999988
v -0.0165624991 0.324999988 -0.324999988
v -0.0165624991 -0.324999988 -0.324999988
v -0.0165624991 -0.324999988 -0.324999988
v -0.0146337887 -0.28651163 -0.276645511
v -0.0146337887 -0.28651163 0.00810058601
v -0.016567383 -0.324999988 0.00810058601
v -0.0165624991 -0.324999988 0.324999988
v -0.0146386717 -0.28651163 0.276640624
v -0.0146386717 0.28651163 0.276640624
v -0.0165624991 0.324999988 0.324999988
v -0.016567383 0.324999988 0.00810058601
v -0.0146337887 0.28651163 0.00810058601
v -0.0146337887 0.28651163 -0.276645511
v -0.0165624991 0.324999988 -0.324999988
v -0.0165624991 0.324999988 -0.324999988
v -0.0146337887 0.28651163 -0.276645511
v -0.0146337887 -0.28651163 -0.276645511
v -0.0165624991 -0.324999988 -0.324999988
v 0.0165624991 0.324999988 -0.324999988
v 0.0146337887 0.28651163 -0.276645511
v 0.0146337887 0.28651163 0.00810058601
v 0.016567383 0.324999988 0.00810058601
v 0.0165624991 0.324999988 0.324999988
v 0.0146386717 0.28651163 0.276640624
v 0.0146386717 -0.28651163 0.276640624
v 0.0165624991 -0.324999988 0.324999988
v 0.016567383 -0.324999988 0.00810058601
v 0.0146337887 -0.28651163 0.00810058601
v 0.0146337887 -0.28651163 -0.276645511
v 0.0165624991 -0.324999988 -0.324999988
v 0.0165624991 -0.324999988 -0.324999988
v 0.0146337887 -0.28651163 -0.276645511
v 0.0146337887 0.28651163 -0.276645511
v 0.0165624991 0.324999988 -0.324999988
v -0.0146337887 -0.28651163 -0.276645511
v 0.0146337887 -0.28651163 -0.276645511
v 0.0146337887 -0.28651163 0.00810058601
v -0.0146337887 -0.28651163 0.00810058601
v 0.0146386717 -0.28651163 0.276640624
v -0.0146386717 -0.28651163 0.276640624
v -0.0146386717 -0.28651163 0.276640624
v 0.0146386717 -0.28651163 0.276640624
v 0.0146386717 0.28651163 0.276640624
v -0.0146386717 0.28651163 0.276640624
v 0.0146337887 0.28651163 0.00810058601
v 0.0146337887 0.28651163 -0.276645511
v -0.0146337887 0.28651163 -0.276645511
v -0.0146337887 0.28651163 0.00810058601
v -0.0146386717 0.28651163 0.276640624
v 0.0146386717 0.28651163 0.276640624
v -0.0146337887 0.28651163 -0.276645511
v 0.0146337887 0.28651163 -0.276645511
v 0.0146337887 -0.28651163 -0.276645511
v -0.0146337887 -0.28651163 -0.276645511
v -0.0165624991 0.324999988 0.324999988
v -0.0146386717 0.28651163 0.276640624
v -0.0146337887 0.28651163 0.00810058601
v -0.016567383 0.324999988 0.00810058601
v 0.0146337887 0.28651163 0.00810058601
v 0.0146386717 0.28651163 0.276640624
v 0.0165624991 0.324999988 0.324999988
v 0.016567383 0.324999988 0.00810058601
v 0.0165624991 -0.324999988 0.324999988
v 0.0146386717 -0.28651163 0.276640624
v 0.0146337887 -0.28651163 0.00810058601
v 0.016567383 -0.324999988 0.00810058601
v -0.0146337887 -0.28651163 0.00810058601
v -0.0146386717 -0.28651163 0.276640624
v -0.0165624991 -0.324999988 0.324999988
v -0.016567383 -0.324999988 0.00810058601
v -0.00765624968 -0.292383671 0.218735352
v -0.00765624968 0.295189738 0.218735352
v 0.00765624968 0.295189738 0.218735352
v 0.00765624968 -0.292383671 0.218735352
v -0.00765624968 -0.292383671 0.218735352
v -0.00774414046 -0.292382956 0.203237295
v -0.00774414046 0.295188963 0.203237295
v -0.00765624968 0.295189738 0.218735352
v 0.00765624968 0.295189738 0.218735352
v 0.00774414046 0.295188963 0.203237295
v 0.00774414046 -0.292382956 0.203237295
v 0.00765624968 -0.292383671 0.218735352
v -0.00774414046 -0.292382956 0.203237295
v 0.00774414046 -0.292382956 0.203237295
v 0.00774414046 0.295188963 0.203237295
v -0.00774414046 0.295188963 0.203237295
v -0.00765624968 -0.292383671 -0.159995109
v -0.00765624968 0.295189738 -0.159995109
v 0.00765624968 0.295189738 -0.159995109
v 0.00765624968 -0.292383671 -0.159995109
v -0.00765624968 -0.292383671 -0.159995109
v -0.00774414046 -0.292382956 -0.175488278
v -0.00774414046 0.295188963 -0.175488278
v -0.00765624968 0.295189738 -0.159995109
v 0.00765624968 0.295189738 -0.159995109
v 0.00774414046 0.295188963 -0.175488278
v 0.00774414046 -0.292382956 -0.175488278
v 0.00765624968 -0.292383671 -0.159995109
v -0.00774414046 -0.292382956 -0.175488278
v 0.00774414046 -0.292382956 -0.175488278
v 0.00774414046 0.295188963 -0.175488278
v -0.00774414046 0.295188963 -0.175488278
v -0.00765624968 -0.292383671 -0.224628896
v -0.00765624968 0.295189738 -0.224628896
v 0.00765624968 0.295189738 -0.224628896
v 0.00765624968 -0.292383671 -0.224628896
v -0.00765624968 -0.292383671 -0.224628896
v -0.00774414046 -0.292382956 -0.240122065
v -0.00774414046 0.295188963 -0.240122065
v -0.00765624968 0.295189738 -0.224628896
v 0.00765624968 0.295189738 -0.224628896
v 0.00774414046 0.295188963 -0.240122065
v 0.00774414046 -0.292382956 -0.240122065
v 0.00765624968 -0.292383671 -0.224628896
v -0.00774414046 -0.292382956 -0.240122065
v 0.00774414046 -0.292382956 -0.240122065
v 0.00774414046 0.295188963 -0.240122065
v -0.00774414046 0.295188963 -0.240122065
v -0.00880859327 0.15508756 0.282582998
v -0.00880859327 0.15508756 -0.290219724
v 0.00880859327 0.15508756 -0.290219724
v 0.00880859327 0.15508756 0.282582998
v -0.00880859327 0.15508756 0.282582998
v -0.00891113281 0.139591947 0.282582998
v -0.00891113281 0.139591947 -0.290219724
v -0.00880859327 0.15508756 -0.290219724
v 0.00880859327 0.15508756 -0.290219724
v 0.00891113281 0.139591947 -0.290219724
v 0.00891113281 0.139591947 0.282582998
v 0.00880859327 0.15508756 0.282582998
v -0.00891113281 0.139591947 0.282582998
v 0.00891113281 0.139591947 0.282582998
v 0.00891113281 0.139591947 -0.290219724
v -0.00891113281 0.139591947 -0.290219724
v -0.00880859327 0.089694947 0.282582998
v -0.00880859327 0.089694947 -0.290219724
v 0.00880859327 0.089694947 -0.290219724
v 0.00880859327 0.089694947 0.282582998
v -0.00880859327 0.089694947 0.282582998
v -0.00891113281 0.0741993412 0.282582998
v -0.00891113281 0.0741993412 -0.290219724
v -0.00880859327 0.089694947 -0.290219724
v 0.00880859327 0.089694947 -0.290219724
v 0.00891113281 0.0741993412 -0.290219724
v 0.00891113281 0.0741993412 0.282582998
v 0.00880859327 0.089694947 0.282582998
v -0.00891113281 0.0741993412 0.282582998
v 0.00891113281 0.0741993412 0.282582998
v 0.00891113281 0.0741993412 -0.290219724
v -0.00891113281 0.0741993412 -0.290219724
v -0.00880859327 0.224850118 0.282582998
v -0.00880859327 0.224850118 -0.290219724
v 0.00880859327 0.224850118 -0.290219724
v 0.00880859327 0.224850118 0.282582998
v -0.00880859327 0.224850118 0.282582998
v -0.00891113281 0.209354505 0.282582998
v -0.00891113281 0.209354505 -0.290219724
v -0.00880859327 0.224850118 -0.290219724
v 0.00880859327 0.224850118 -0.290219724
v 0.00891113281 0.209354505 -0.290219724
v 0.00891113281 0.209354505 0.282582998
v 0.00880859327 0.224850118 0.282582998
v -0.00891113281 0.209354505 0.282582998
v 0.00891113281 0.209354505 0.282582998
v 0.00891113281 0.209354505 -0.290219724
v -0.00891113281 0.209354505 -0.290219724
v -0.00880859327 0.0281478595 0.282582998
v -0.00880859327 0.0281478595 -0.290219724
v 0.00880859327 0.0281478595 -0.290219724
v 0.00880859327 0.0281478595 0.282582998
v -0.00880859327 0.0281478595 0.282582998
v -0.00891113281 0.0126522537 0.282582998
v -0.00891113281 0.0126522537 -0.290219724
v -0.00880859327 0.0281478595 -0.290219724
v 0.00880859327 0.0281478595 -0.290219724
v 0.00891113281 0.0126522537 -0.290219724
v 0.00891113281 0.0126522537 0.282582998
v 0.00880859327 0.0281478595 0.282582998
v -0.00891113281 0.0126522537 0.282582998
v 0.00891113281 0.0126522537 0.282582998
v 0.00891113281 0.0126522537 -0.290219724
v -0.00891113281 0.0126522537 -0.290219724
vt 0.727539062 0.307373047
vt 0.848144531 0.307373047
vt 0.848144531 0.278564453
vt 0.727539062 0.278564453
vt 0.848144531 0.307373047
vt 0.848144531 0.278564453
vt 0.727539062 0.278564453
vt 0.727539062 0.307373047
vt 0.727539062 0.278564453
vt 0.727539062 0.307373047
vt 0.848144531 0.307373047
vt 0.848144531 0.278564453
vt 0.848144531 0.307373047
vt 0.848144531 0.278564453
vt 0.727539062 0.278564453
vt 0.727539062 0.307373047
vt 0.727539062 0.307373047
vt 0.848144531 0.307373047
vt 0.848144531 0.278564453
vt 0.727539062 0.278564453
vt 0.848144531 0.307373047
vt 0.848144531 0.278564453
vt 0.727539062 0.278564453
vt 0.727539062 0.307373047
vt 0.727539062 0.278564453
vt 0.727539062 0.307373047
vt 0.848144531 0.307373047
vt 0.848144531 0.278564453
vt 0.848144531 0.307373047
vt 0.848144531 0.278564453
vt 0.727539062 0.278564453
vt 0.727539062 0.307373047
vt 0.727539062 0.307373047
vt 0.848144531 0.307373047
vt 0.848144531 0.278564453
vt 0.727539062 0.278564453
vt 0.848144531 0.307373047
vt 0.848144531 0.278564453
vt 0.727539062 0.278564453
vt 0.727539062 0.307373047
vt 0.727539062 0.278564453
vt 0.727539062 0.307373047
vt 0.848144531 0.307373047
vt 0.848144531 0.278564453
vt 0.848144531 0.307373047
vt 0.848144531 0.278564453
vt 0.727539062 0.278564453
vt 0.727539062 0.307373047
vt 0.727539062 0.307373047
vt 0.848144531 0.307373047
vt 0.848144531 0.278564453
vt 0.727539062 0.278564453
vt 0.848144531 0.307373047
vt 0.848144531 0.278564453
vt 0.727539062 0.278564453
vt 0.727539062 0.307373047
vt 0.727539062 0.278564453
vt 0.727539062 0.307373047
vt 0.848144531 0.307373047
vt 0.848144531 0.278564453
vt 0.848144531 0.307373047
vt 0.848144531 0.278564453
vt 0.727539062 0.278564453
vt 0.727539062 0.307373047
vt 0.727539062 0.307373047
vt 0.848144531 0.307373047
vt 0.848144531 0.278564453
vt 0.727539062 0.278564453
vt 0.848144531 0.307373047
vt 0.848144531 0.278564453
vt 0.727539062 0.278564453
vt 0.727539062 0.307373047
vt 0.727539062 0.278564453
vt 0.727539062 0.307373047
vt 0.848144531 0.307373047
vt 0.848144531 0.278564453
vt 0.848144531 0.307373047
vt 0.848144531 0.278564453
vt 0.727539062 0.278564453
vt 0.727539062 0.307373047
vt 0.848144531 0.307373047
vt 0.727539062 0.307373047
vt 0.727539062 0.278564453
vt 0.848144531 0.278564453
vt 0.727539062 0.307373047
vt 0.727539062 0.278564453
vt 0.848144531 0.278564453
vt 0.848144531 0.307373047
vt 0.848144531 0.278564453
vt 0.848144531 0.307373047
vt 0.727539062 0.307373047
vt 0.727539062 0.278564453
vt 0.727539062 0.307373047
vt 0.727539062 0.278564453
vt 0.848144531 0.278564453
vt 0.848144531 0.307373047
vt 0.848144531 0.307373047
vt 0.727539062 0.307373047
vt 0.727539062 0.278564453
vt 0.848144531 0.278564453
vt 0.727539062 0.307373047
vt 0.727539062 0.278564453
vt 0.848144531 0.278564453
vt 0.848144531 0.307373047
vt 0.848144531 0.278564453
vt 0.848144531 0.307373047
vt 0.727539062 0.307373047
vt 0.727539062 0.278564453
vt 0.727539062 0.307373047
vt 0.727539062 0.278564453
vt 0.848144531 0.278564453
vt 0.848144531 0.307373047
vt 0.848144531 0.307373047
vt 0.727539062 0.307373047
vt 0.727539062 0.278564453
vt 0.848144531 0.278564453
vt 0.727539062 0.307373047
vt 0.727539062 0.278564453
vt 0.848144531 0.278564453
vt 0.848144531 0.307373047
vt 0.848144531 0.278564453
vt 0.848144531 0.307373047
vt 0.727539062 0.307373047
vt 0.727539062 0.278564453
vt 0.727539062 0.307373047
vt 0.727539062 0.278564453
vt 0.848144531 0.278564453
vt 0.848144531 0.307373047
vt 0.848144531 0.307373047
vt 0.727539062 0.307373047
vt 0.727539062 0.278564453
vt 0.848144531 0.278564453
vt 0.727539062 0.307373047
vt 0.727539062 0.278564453
vt 0.848144531 0.278564453
vt 0.848144531 0.307373047
vt 0.848144531 0.278564453
vt 0.848144531 0.307373047
vt 0.727539062 0.307373047
vt 0.727539062 0.278564453
vt 0.727539062 0.307373047
vt 0.727539062 0.278564453
vt 0.848144531 0.278564453
vt 0.848144531 0.307373047
vt 0.768554688 0.45703125
vt 0.762695312 0.45703125
vt 0.762695312 0.512695312
vt 0.768554688 0.512695312
vt 0.768554688 0.567871094
vt 0.762695312 0.567871094
vt 0.763671875 0.567871094
vt 0.769042969 0.567871094
vt 0.769042969 0.509765625
vt 0.763671875 0.509765625
vt 0.763671875 0.456787109
vt 0.769042969 0.456787109
vt 0.768554688 0.567871094
vt 0.768554688 0.456787109
vt 0.763183594 0.456787109
vt 0.763183594 0.567871094
vt 0.763183594 0.45703125
vt 0.763183594 0.567871094
vt 0.769042969 0.567871094
vt 0.769042969 0.45703125
vt 0.729980469 0.277832031
vt 0.742675781 0.307861328
vt 0.796875 0.307861328
vt 0.796875 0.277832031
vt 0.866210938 0.277832031
vt 0.854492188 0.307861328
vt 0.701171875 0.307861328
vt 0.69140625 0.277832031
vt 0.796875 0.277832031
vt 0.796875 0.307861328
vt 0.742675781 0.307861328
vt 0.729980469 0.277832031
vt 0.69140625 0.277832031
vt 0.701171875 0.307861328
vt 0.854492188 0.307861328
vt 0.866210938 0.277832031
vt 0.729980469 0.277832031
vt 0.742675781 0.307861328
vt 0.796875 0.307861328
vt 0.796875 0.277832031
vt 0.690917969 0.277832031
vt 0.701171875 0.307861328
vt 0.854492188 0.307861328
vt 0.866210938 0.277832031
vt 0.796875 0.277832031
vt 0.796875 0.307861328
vt 0.742675781 0.307861328
vt 0.729980469 0.277832031
vt 0.866210938 0.277832031
vt 0.854492188 0.307861328
vt 0.701171875 0.307861328
vt 0.690917969 0.277832031
vt 0.769042969 0.465820312
vt 0.763671875 0.465820312
vt 0.763671875 0.515136719
vt 0.769042969 0.515136719
vt 0.763671875 0.560546875
vt 0.769042969 0.560546875
vt 0.769042969 0.465332031
vt 0.764160156 0.465332031
vt 0.764160156 0.563476562
vt 0.769042969 0.563476562
vt 0.763183594 0.512695312
vt 0.763183594 0.560058594
vt 0.768066406 0.560058594
vt 0.768066406 0.512695312
vt 0.768066406 0.465576172
vt 0.763183594 0.465576172
vt 0.769042969 0.465576172
vt 0.764160156 0.465576172
vt 0.764160156 0.563476562
vt 0.769042969 0.563476562
vt 0.730957031 0.277832031
vt 0.743652344 0.307861328
vt 0.796875 0.307861328
vt 0.796875 0.277832031
vt 0.796875 0.307861328
vt 0.743652344 0.307861328
vt 0.730957031 0.277832031
vt 0.796875 0.277832031
vt 0.730957031 0.277832031
vt 0.743652344 0.307861328
vt 0.796875 0.307861328
vt 0.796875 0.277832031
vt 0.796875 0.307861328
vt 0.743652344 0.307861328
vt 0.730957031 0.277832031
vt 0.796875 0.277832031
vt 0.727539062 0.307373047
vt 0.848144531 0.307373047
vt 0.848144531 0.278564453
vt 0.727539062 0.278564453
vt 0.848144531 0.307373047
vt 0.848144531 0.278564453
vt 0.727539062 0.278564453
vt 0.727539062 0.307373047
vt 0.727539062 0.278564453
vt 0.727539062 0.307373047
vt 0.848144531 0.307373047
vt 0.848144531 0.278564453
vt 0.848144531 0.307373047
vt 0.848144531 0.278564453
vt 0.727539062 0.278564453
vt 0.727539062 0.307373047
vt 0.727539062 0.307373047
vt 0.848144531 0.307373047
vt 0.848144531 0.278564453
vt 0.727539062 0.278564453
vt 0.848144531 0.307373047
vt 0.848144531 0.278564453
vt 0.727539062 0.278564453
vt 0.727539062 0.307373047
vt 0.727539062 0.278564453
vt 0.727539062 0.307373047
vt 0.848144531 0.307373047
vt 0.848144531 0.278564453
vt 0.848144531 0.307373047
vt 0.848144531 0.278564453
vt 0.727539062 0.278564453
vt 0.727539062 0.307373047
vt 0.727539062 0.307373047
vt 0.848144531 0.307373047
vt 0.848144531 0.278564453
vt 0.727539062 0.278564453
vt 0.848144531 0.307373047
vt 0.848144531 0.278564453
vt 0.727539062 0.278564453
vt 0.727539062 0.307373047
vt 0.727539062 0.278564453
vt 0.727539062 0.307373047
vt 0.848144531 0.307373047
vt 0.848144531 0.278564453
vt 0.848144531 0.307373047
vt 0.848144531 0.278564453
vt 0.727539062 0.278564453
vt 0.727539062 0.307373047
vt 0.848144531 0.307373047
vt 0.727539062 0.307373047
vt 0.727539062 0.278564453
vt 0.848144531 0.278564453
vt 0.727539062 0.307373047
vt 0.727539062 0.278564453
vt 0.848144531 0.278564453
vt 0.848144531 0.307373047
vt 0.848144531 0.278564453
vt 0.848144531 0.307373047
vt 0.727539062 0.307373047
vt 0.727539062 0.278564453
vt 0.727539062 0.307373047
vt 0.727539062 0.278564453
vt 0.848144531 0.278564453
vt 0.848144531 0.307373047
vt 0.848144531 0.307373047
vt 0.727539062 0.307373047
vt 0.727539062 0.278564453
vt 0.848144531 0.278564453
vt 0.727539062 0.307373047
vt 0.727539062 0.278564453
vt 0.848144531 0.278564453
vt 0.848144531 0.307373047
vt 0.848144531 0.278564453
vt 0.848144531 0.307373047
vt 0.727539062 0.307373047
vt 0.727539062 0.278564453
vt 0.727539062 0.307373047
vt 0.727539062 0.278564453
vt 0.848144531 0.278564453
vt 0.848144531 0.307373047
vt 0.848144531 0.307373047
vt 0.727539062 0.307373047
vt 0.727539062 0.278564453
vt 0.848144531 0.278564453
vt 0.727539062 0.307373047
vt 0.727539062 0.278564453
vt 0.848144531 0.278564453
vt 0.848144531 0.307373047
vt 0.848144531 0.278564453
vt 0.848144531 0.307373047
vt 0.727539062 0.307373047
vt 0.727539062 0.278564453
vt 0.727539062 0.307373047
vt 0.727539062 0.278564453
vt 0.848144531 0.278564453
vt 0.848144531 0.307373047
vt 0.848144531 0.307373047
vt 0.727539062 0.307373047
vt 0.727539062 0.278564453
vt 0.848144531 0.278564453
vt 0.727539062 0.307373047
vt 0.727539062 0.278564453
vt 0.848144531 0.278564453
vt 0.848144531 0.307373047
vt 0.848144531 0.278564453
vt 0.848144531 0.307373047
vt 0.727539062 0.307373047
vt 0.727539062 0.278564453
vt 0.727539062 0.307373047
vt 0.727539062 0.278564453
vt 0.848144531 0.278564453
vt 0.848144531 0.307373047
vn -0 0 1
vn -0 0 1
vn -0 0 1
vn -0 0 1
vn -1 0 0.00575256348
vn -1 0 0.00575256348
vn -1 0 0.00575256348
vn -1 0 0.00575256348
vn 1 0 0.00567245483
vn 1 0 0.00567245483
vn 1 0 0.00567245483
vn 1 0 0.00567245483
vn -0 0 -1
vn -0 0 -1
vn -0 0 -1
vn -0 0 -1
vn -0 0 1
vn -0 0 1
vn -0 0 1
vn -0 0 1
vn -1 0 0.00575256348
vn -1 0 0.00575256348
vn -1 0 0.00575256348
vn -1 0 0.00575256348
vn 1 0 0.00567245483
vn 1 0 0.00567245483
vn 1 0 0.00567245483
vn 1 0 0.00567245483
vn -0 0 -1
vn -0 0 -1
vn -0 0 -1
vn -0 0 -1
vn -0 0 1
vn -0 0 1
vn -0 0 1
vn -0 0 1
vn -1 0 0.00575256348
vn -1 0 0.00575256348
vn -1 0 0.00575256348
vn -1 0 0.00575256348
vn 1 0 0.00567245483
vn 1 0 0.00567245483
vn 1 0 0.00567245483
vn 1 0 0.00567245483
vn -0 0 -1
vn -0 0 -1
vn -0 0 -1
vn -0 0 -1
vn -0 0 1
vn -0 0 1
vn -0 0 1
vn -0 0 1
vn -1 0 0.00575256348
vn -1 0 0.00575256348
vn -1 0 0.00575256348
vn -1 0 0.00575256348
vn 1 0 0.00567245483
vn 1 0 0.00567245483
vn 1 0 0.00567245483
vn 1 0 0.00567245483
vn -0 0 -1
vn -0 0 -1
vn -0 0 -1
vn -0 0 -1
vn -0 0 1
vn -0 0 1
vn -0 0 1
vn -0 0 1
vn -1 0 0.00575256348
vn -1 0 0.00575256348
vn -1 0 0.00575256348
vn -1 0 0.00575256348
vn 1 0 0.00567245483
vn 1 0 0.00567245483
vn 1 0 0.00567245483
vn 1 0 0.00567245483
vn -0 0 -1
vn -0 0 -1
vn -0 0 -1
vn -0 0 -1
vn -0 1 0
vn -0 1 0
vn -0 1 0
vn -0 1 0
vn -1 0.00660324097 0
vn -1 0.00660324097 0
vn -1 0.00660324097 0
vn -1 0.00660324097 0
vn 1 0.00659942627 0
vn 1 0.00659942627 0
vn 1 0.00659942627 0
vn 1 0.00659942627 0
vn -0 -1 0
vn -0 -1 0
vn -0 -1 0
vn -0 -1 0
vn -0 1 0
vn -0 1 0
vn -0 1 0
vn -0 1 0
vn -1 0.00660324097 0
vn -1 0.00660324097 0
vn -1 0.00660324097 0
vn -1 0.00660324097 0
vn 1 0.00659942627 0
vn 1 0.00659942627 0
vn 1 0.00659942627 0
vn 1 0.00659942627 0
vn -0 -1 0
vn -0 -1 0
vn -0 -1 0
vn -0 -1 0
vn -0 1 0
vn -0 1 0
vn -0 1 0
vn -0 1 0
vn -1 0.00660324097 0
vn -1 0.00660324097 0
vn -1 0.00660324097 0
vn -1 0.00660324097 0
vn 1 0.00659942627 0
vn 1 0.00659942627 0
vn 1 0.00659942627 0
vn 1 0.00659942627 0
vn -0 -1 0
vn -0 -1 0
vn -0 -1 0
vn -0 -1 0
vn -0 1 0
vn -0 1 0
vn -0 1 0
vn -0 1 0
vn -1 0.00660324097 0
vn -1 0.00660324097 0
vn -1 0.00660324097 0
vn -1 0.00660324097 0
vn 1 0.00659942627 0
vn 1 0.00659942627 0
vn 1 0.00659942627 0
vn 1 0.00659942627 0
vn -0 -1 0
vn -0 -1 0
vn -0 -1 0
vn -0 -1 0
vn -0 1 0
vn -0 1 0
vn -0 1 0
vn -0 1 0
vn -0 1 0
vn -0 1 0
vn -0 -1 0
vn -0 -1 0
vn -0 -1 0
vn -0 -1 0
vn -0 -1 0
vn -0 -1 0
vn -0 0 1
vn -0 0 1
vn -0 0 1
vn -0 0 1
vn -0 0 -1
vn -0 0 -1
vn -0 0 -1
vn -0 0 -1
vn -0.998535156 0.0500183105 0
vn -0.998535156 0.0500183105 0
vn -0.998535156 0.0500183105 0
vn -0.998535156 0.0500183105 0
vn -0.999023438 0 -0.039855957
vn -0.999023438 0 -0.039855957
vn -0.999023438 0 -0.039855957
vn -0.999023438 0 -0.039855957
vn -0.998535156 -0.0500183105 0
vn -0.998535156 -0.0500183105 0
vn -0.998535156 -0.0500488281 0
vn -0.998535156 -0.0500488281 0
vn -0.999023438 0 0.039855957
vn -0.999023438 0 0.039855957
vn -0.999023438 0 0.039855957
vn -0.999023438 0 0.039855957
vn 0.998535156 -0.0500488281 0
vn 0.998535156 -0.0500488281 0
vn 0.998535156 -0.0500793457 0
vn 0.998535156 -0.0500793457 0
vn 0.999023438 0 -0.039855957
vn 0.999023438 0 -0.039855957
vn 0.999023438 0 -0.039855957
vn 0.999023438 0 -0.039855957
vn 0.998535156 0.0500793457 0
vn 0.998535156 0.0500793457 0
vn 0.998535156 0.0500793457 0
vn 0.998535156 0.0500793457 0
vn 0.999023438 0 0.039855957
vn 0.999023438 0 0.039855957
vn 0.999023438 0 0.039855957
vn 0.999023438 0 0.039855957
vn -0 1 0
vn -0 1 0
vn -0 1 0
vn -0 1 0
vn -0 1 0
vn -0 1 0
vn -0 0 -1
vn -0 0 -1
vn -0 0 -1
vn -0 0 -1
vn -0 -1 0
vn -0 -1 0
vn -0 -1 0
vn -0 -1 0
vn -0 -1 0
vn -0 -1 0
vn -0 0 1
vn -0 0 1
vn -0 0 1
vn -0 0 1
vn -0.998535156 -0.0500183105 0
vn -0.998535156 -0.0500183105 0
vn -0.998535156 -0.0500183105 0
vn -0.998535156 -0.0500183105 0
vn 0.998535156 -0.0500793457 0
vn 0.998535156 -0.0500793457 0
vn 0.998535156 -0.0500793457 0
vn 0.998535156 -0.0500793457 0
vn 0.998535156 0.0500793457 0
vn 0.998535156 0.0500793457 0
vn 0.998535156 0.0500793457 0
vn 0.998535156 0.0500793457 0
vn -0.998535156 0.0500183105 0
vn -0.998535156 0.0500488281 0
vn -0.998535156 0.0500488281 0
vn -0.998535156 0.0500183105 0
vn -0 0 1
vn -0 0 1
vn -0 0 1
vn -0 0 1
vn -1 0 0.00575256348
vn -1 0 0.00575256348
vn -1 0 0.00575256348
vn -1 0 0.00575256348
vn 1 0 0.00567245483
vn 1 0 0.00567245483
vn 1 0 0.00567245483
vn 1 0 0.00567245483
vn -0 0 -1
vn -0 0 -1
vn -0 0 -1
vn -0 0 -1
vn -0 0 1
vn -0 0 1
vn -0 0 1
vn -0 0 1
vn -1 0 0.00574874878
vn -1 0 0.00574874878
vn -1 0 0.00574874878
vn -1 0 0.00574874878
vn 1 0 0.00567245483
vn 1 0 0.00567245483
vn 1 0 0.00567245483
vn 1 0 0.00567245483
vn -0 0 -1
vn -0 0 -1
vn -0 0 -1
vn -0 0 -1
vn -0 0 1
vn -0 0 1
vn -0 0 1
vn -0 0 1
vn -1 0 0.00575256348
vn -1 0 0.00575256348
vn -1 0 0.00575256348
vn -1 0 0.00575256348
vn 1 0 0.00567245483
vn 1 0 0.00567245483
vn 1 0 0.00567245483
vn 1 0 0.00567245483
vn -0 0 -1
vn -0 0 -1
vn -0 0 -1
vn -0 0 -1
vn -0 1 0
vn -0 1 0
vn -0 1 0
vn -0 1 0
vn -1 0.00660324097 0
vn -1 0.00660324097 0
vn -1 0.00660324097 0
vn -1 0.00660324097 0
vn 1 0.00659942627 0
vn 1 0.00659942627 0
vn 1 0.00659942627 0
vn 1 0.00659942627 0
vn -0 -1 0
vn -0 -1 0
vn -0 -1 0
vn -0 -1 0
vn -0 1 0
vn -0 1 0
vn -0 1 0
vn -0 1 0
vn -1 0.00660324097 0
vn -1 0.00660324097 0
vn -1 0.00660324097 0
vn -1 0.00660324097 0
vn 1 0.00659942627 0
vn 1 0.00659942627 0
vn 1 0.00659942627 0
vn 1 0.00659942627 0
vn -0 -1 0
vn -0 -1 0
vn -0 -1 0
vn -0 -1 0
vn -0 1 0
vn -0 1 0
vn -0 1 0
vn -0 1 0
vn -1 0.00660324097 0
vn -1 0.00660324097 0
vn -1 0.00660324097 0
vn -1 0.00660324097 0
vn 1 0.00659942627 0
vn 1 0.00659942627 0
vn 1 0.00659942627 0
vn 1 0.00659942627 0
vn -0 -1 0
vn -0 -1 0
vn -0 -1 0
vn -0 -1 0
vn -0 1 0
vn -0 1 0
vn -0 1 0
vn -0 1 0
vn -1 0.00660324097 0
vn -1 0.00660324097 0
vn -1 0.00660324097 0
vn -1 0.00660324097 0
vn 1 0.00659942627 0
vn 1 0.00659942627 0
vn 1 0.00659942627 0
vn 1 0.00659942627 0
vn -0 -1 0
vn -0 -1 0
vn -0 -1 0
vn -0 -1 0
g IS4_MDL_EscenarioPB_Ventilacion_Trampilla_1_0
f 3/3/3 2/2/2 1/1/1
f 4/4/4 3/3/3 1/1/1
f 7/7/7 6/6/6 5/5/5
f 8/8/8 7/7/7 5/5/5
f 11/11/11 10/10/10 9/9/9
f 12/12/12 11/11/11 9/9/9
f 15/15/15 14/14/14 13/13/13
f 16/16/16 15/15/15 13/13/13
f 19/19/19 18/18/18 17/17/17
f 20/20/20 19/19/19 17/17/17
f 23/23/23 22/22/22 21/21/21
f 24/24/24 23/23/23 21/21/21
f 27/27/27 26/26/26 25/25/25
f 28/28/28 27/27/27 25/25/25
f 31/31/31 30/30/30 29/29/29
f 32/32/32 31/31/31 29/29/29
f 35/35/35 34/34/34 33/33/33
f 36/36/36 35/35/35 33/33/33
f 39/39/39 38/38/38 37/37/37
f 40/40/40 39/39/39 37/37/37
f 43/43/43 42/42/42 41/41/41
f 44/44/44 43/43/43 41/41/41
f 47/47/47 46/46/46 45/45/45
f 48/48/48 47/47/47 45/45/45
f 51/51/51 50/50/50 49/49/49
f 52/52/52 51/51/51 49/49/49
f 55/55/55 54/54/54 53/53/53
f 56/56/56 55/55/55 53/53/53
f 59/59/59 58/58/58 57/57/57
f 60/60/60 59/59/59 57/57/57
f 63/63/63 62/62/62 61/61/61
f 64/64/64 63/63/63 61/61/61
f 67/67/67 66/66/66 65/65/65
f 68/68/68 67/67/67 65/65/65
f 71/71/71 70/70/70 69/69/69
f 72/72/72 71/71/71 69/69/69
f 75/75/75 74/74/74 73/73/73
f 76/76/76 75/75/75 73/73/73
f 79/79/79 78/78/78 77/77/77
f 80/80/80 79/79/79 77/77/77
f 83/83/83 82/82/82 81/81/81
f 84/84/84 83/83/83 81/81/81
f 87/87/87 86/86/86 85/85/85
f 88/88/88 87/87/87 85/85/85
f 91/91/91 90/90/90 89/89/89
f 92/92/92 91/91/91 89/89/89
f 95/95/95 94/94/94 93/93/93
f 96/96/96 95/95/95 93/93/93
f 99/99/99 98/98/98 97/97/97
f 100/100/100 99/99/99 97/97/97
f 103/103/103 102/102/102 101/101/101
f 104/104/104 103/103/103 101/101/101
f 107/107/107 106/106/106 105/105/105
f 108/108/108 107/107/107 105/105/105
f 111/111/111 110/110/110 109/109/109
f 112/112/112 111/111/111 109/109/109
f 115/115/115 114/114/114 113/113/113
f 116/116/116 115/115/115 113/113/113
f 119/119/119 118/118/118 117/117/117
f 120/120/120 119/119/119 117/117/117
f 123/123/123 122/122/122 121/121/121
f 124/124/124 123/123/123 121/121/121
f 127/127/127 126/126/126 125/125/125
f 128/128/128 127/127/127 125/125/125
f 131/131/131 130/130/130 129/129/129
f 132/132/132 131/131/131 129/129/129
f 135/135/135 134/134/134 133/133/133
f 136/136/136 135/135/135 133/133/133
f 139/139/139 138/138/138 137/137/137
f 140/140/140 139/139/139 137/137/137
f 143/143/143 142/142/142 141/141/141
f 144/144/144 143/143/143 141/141/141
f 147/147/147 146/146/146 145/145/145
f 148/148/148 147/147/147 145/145/145
f 148/148/148 149/149/149 147/147/147
f 149/149/149 150/150/150 147/147/147
f 153/153/153 152/152/152 151/151/151
f 154/154/154 153/153/153 151/151/151
f 154/154/154 155/155/155 153/153/153
f 155/155/155 156/156/156 153/153/153
f 159/159/159 158/158/158 157/157/157
f 160/160/160 159/159/159 157/157/157
f 163/163/163 162/162/162 161/161/161
f 164/164/164 163/163/163 161/161/161
f 167/167/167 166/166/166 165/165/165
f 168/168/168 167/167/167 165/165/165
f 171/171/171 170/170/170 169/169/169
f 172/172/172 171/171/171 169/169/169
f 175/175/175 174/174/174 173/173/173
f 176/176/176 175/175/175 173/173/173
f 179/179/179 178/178/178 177/177/177
f 180/180/180 179/179/179 177/177/177
f 183/183/183 182/182/182 181/181/181
f 184/184/184 183/183/183 181/181/181
f 187/187/187 186/186/186 185/185/185
f 188/188/188 187/187/187 185/185/185
f 191/191/191 190/190/190 189/189/189
f 192/192/192 191/191/191 189/189/189
f 195/195/195 194/194/194 193/193/193
f 196/196/196 195/195/195 193/193/193
f 199/199/199 198/198/198 197/197/197
f 200/200/200 199/199/199 197/197/197
f 201/201/201 199/199/199 200/200/200
f 202/202/202 201/201/201 200/200/200
f 205/205/205 204/204/204 203/203/203
f 206/206/206 205/205/205 203/203/203
f 209/209/209 208/208/208 207/207/207
f 210/210/210 209/209/209 207/207/207
f 210/210/210 207/207/207 211/211/211
f 207/207/207 212/212/212 211/211/211
f 215/215/215 214/214/214 213/213/213
f 216/216/216 215/215/215 213/213/213
f 219/219/219 218/218/218 217/217/217
f 220/220/220 219/219/219 217/217/217
f 223/223/223 222/222/222 221/221/221
f 224/224/224 223/223/223 221/221/221
f 227/227/227 226/226/226 225/225/225
f 228/228/228 227/227/227 225/225/225
f 231/231/231 230/230/230 229/229/229
f 232/232/232 231/231/231 229/229/229
f 235/235/235 234/234/234 233/233/233
f 236/236/236 235/235/235 233/233/233
f 239/239/239 238/238/238 237/237/237
f 240/240/240 239/239/239 237/237/237
f 243/243/243 242/242/242 241/241/241
f 244/244/244 243/243/243 241/241/241
f 247/247/247 246/246/246 245/245/245
f 248/248/248 247/247/247 245/245/245
f 251/251/251 250/250/250 249/249/249
f 252/252/252 251/251/251 249/249/249
f 255/255/255 254/254/254 253/253/253
f 256/256/256 255/255/255 253/253/253
f 259/259/259 258/258/258 257/257/257
f 260/260/260 259/259/259 257/257/257
f 263/263/263 262/262/262 261/261/261
f 264/264/264 263/263/263 261/261/261
f 267/267/267 266/266/266 265/265/265
f 268/268/268 267/267/267 265/265/265
f 271/271/271 270/270/270 269/269/269
f 272/272/272 271/271/271 269/269/269
f 275/275/275 274/274/274 273/273/273
f 276/276/276 275/275/275 273/273/273
f 279/279/279 278/278/278 277/277/277
f 280/280/280 279/279/279 277/277/277
f 283/283/283 282/282/282 281/281/281
f 284/284/284 283/283/283 281/281/281
f 287/287/287 286/286/286 285/285/285
f 288/288/288 287/287/287 285/285/285
f 291/291/291 290/290/290 289/289/289
f 292/292/292 291/291/291 289/289/289
f 295/295/295 294/294/294 293/293/293
f 296/296/296 295/295/295 293/293/293
f 299/299/299 298/298/298 297/297/297
f 300/300/300 299/299/299 297/297/297
f 303/303/303 302/302/302 301/301/301
f 304/304/304 303/303/303 301/301/301
f 307/307/307 306/306/306 305/305/305
f 308/308/308 307/307/307 305/305/305
f 311/311/311 310/310/310 309/309/309
f 312/312/312 311/311/311 309/309/309
f 315/315/315 314/314/314 313/313/313
f 316/316/316 315/315/315 313/313/313
f 319/319/319 318/318/318 317/317/317
f 320/320/320 319/319/319 317/317/317
f 323/323/323 322/322/322 321/321/321
f 324/324/324 323/323/323 321/321/321
f 327/327/327 326/326/326 325/325/325
f 328/328/328 327/327/327 325/325/325
f 331/331/331 330/330/330 329/329/329
f 332/332/332 331/331/331 329/329/329
f 335/335/335 334/334/334 333/333/333
f 336/336/336 335/335/335 333/333/333
f 339/339/339 338/338/338 337/337/337
f 340/340/340 339/339/339 337/337/337
f 343/343/343 342/342/342 341/341/341
f 344/344/344 343/343/343 341/341/341
