g BallsBazooka_Ball_6
v -0.0413351245 0.0337499939 0.041335132
v 1.79074835E-08 0.0584567003 0.0337499976
v 1.79074835E-08 0.0337499939 0.0584567115
v -0.0238648411 0.0584567003 0.0238648504
v 1.79074835E-08 0.0674999952 0
v -0.033749979 0.0584567003 0
v -0.0238648411 0.0584567003 -0.0238648504
v 1.79074835E-08 0.0584567003 -0.0337499939
v -0.0238648411 -0.0584567152 -0.0238648504
v -0.058456704 -0.0337500051 0
v -0.033749979 -0.0584567152 0
v -0.0413351245 -0.0337500051 -0.041335132
v -0.0674999803 -4.76837148E-09 0
v -0.0477296636 -4.76837148E-09 -0.0477297008
v 1.79074835E-08 -0.0584567152 -0.0337499939
v 1.79074835E-08 -0.0675000027 0
v 1.79074835E-08 -0.0337500051 -0.0584567115
v 1.79074835E-08 -4.76837148E-09 -0.0674999878
v -0.033749979 -0.0584567152 0
v -0.058456704 -0.0337500051 0
v -0.0413351245 -0.0337500051 0.041335132
v -0.0238648411 -0.0584567152 0.0238648504
v 1.79074835E-08 -0.0675000027 0
v -0.0238648411 -0.0584567152 -0.0238648504
v 1.79074835E-08 -0.0584567152 0.0337499976
v 1.79074835E-08 -0.0337500051 0.0584567115
v 1.79074835E-08 -4.76837148E-09 0.0674999952
v -0.0477296636 -4.76837148E-09 0.0477297008
v 1.79074835E-08 -0.0584567152 0.0337499976
v 1.79074835E-08 -0.0337500051 0.0584567115
v 0.0413351618 -0.0337500051 0.0413351394
v 0.0238648783 -0.0584567152 0.0238648523
v 1.79074835E-08 -0.0675000027 0
v 0.03375002 -0.0584567152 0
v 0.0238648783 -0.0584567152 0.0238648523
v 0.058456745 -0.0337500051 0
v 0.03375002 -0.0584567152 0
v 0.0413351618 -0.0337500051 0.0413351394
v 0.0675000176 -4.76837148E-09 0
v 0.0477297381 -4.76837148E-09 0.0477297045
v 1.79074835E-08 -0.0337500051 0.0584567115
v 0.058456745 0.0337499939 0
v 1.79074835E-08 -4.76837148E-09 0.0674999952
v 0.0413351618 0.0337499939 0.0413351394
v 1.79074835E-08 0.0337499939 0.0584567115
v -0.058456704 -0.0337500051 0
v -0.0477296636 -4.76837148E-09 0.0477297008
v -0.0413351245 -0.0337500051 0.041335132
v -0.0674999803 -4.76837148E-09 0
v -0.0413351245 0.0337499939 0.041335132
v -0.058456704 0.0337499939 0
v 1.79074835E-08 0.0337499939 0.0584567115
v 1.79074835E-08 -4.76837148E-09 0.0674999952
v -0.0238648411 0.0584567003 0.0238648504
v -0.033749979 0.0584567003 0
v 1.79074835E-08 0.0584567003 0.0337499976
v 0.058456745 -0.0337500051 0
v 0.0675000176 -4.76837148E-09 0
v 0.0477297008 -4.76837148E-09 -0.0477297008
v 0.0413351618 -0.0337500051 -0.041335132
v 1.79074835E-08 -4.76837148E-09 -0.0674999878
v 0.03375002 -0.0584567152 0
v 1.79074835E-08 -0.0337500051 -0.0584567115
v 0.0238648783 -0.0584567152 -0.0238648504
v 1.79074835E-08 -0.0675000027 0
v 1.79074835E-08 -0.0584567152 -0.0337499939
v 0.0477297008 -4.76837148E-09 -0.0477297008
v 1.79074835E-08 0.0337499939 -0.0584567115
v 1.79074835E-08 -4.76837148E-09 -0.0674999878
v 0.0413351618 0.0337499939 -0.041335132
v 0.0675000176 -4.76837148E-09 0
v 1.79074835E-08 0.0584567003 -0.0337499939
v 0.058456745 0.0337499939 0
v 0.0238648783 0.0584567003 -0.0238648504
v 0.03375002 0.0584567003 0
v -0.0477296636 -4.76837148E-09 -0.0477297008
v -0.058456704 0.0337499939 0
v -0.0674999803 -4.76837148E-09 0
v -0.0413351245 0.0337499939 -0.041335132
v 1.79074835E-08 -4.76837148E-09 -0.0674999878
v -0.033749979 0.0584567003 0
v 1.79074835E-08 0.0337499939 -0.0584567115
v -0.0238648411 0.0584567003 -0.0238648504
v 1.79074835E-08 0.0584567003 -0.0337499939
v 0.0413351618 0.0337499939 0.0413351394
v 0.03375002 0.0584567003 0
v 0.058456745 0.0337499939 0
v 0.0238648783 0.0584567003 0.0238648523
v 1.79074835E-08 0.0337499939 0.0584567115
v 1.79074835E-08 0.0584567003 0.0337499976
v 1.79074835E-08 0.0674999952 0
v 0.0238648783 0.0584567003 -0.0238648504
v 1.79074835E-08 0.0584567003 -0.0337499939
vt 0.841796875 0.514160156
vt 0.834472656 0.46484375
vt 0.799316406 0.500976562
vt 0.856933594 0.48046875
vt 0.885742188 0.448486328
vt 0.885742188 0.485107422
vt 0.913574219 0.48046875
vt 0.936035156 0.46484375
vt 0.913574219 0.618652344
vt 0.885742188 0.581542969
vt 0.885742188 0.614257812
vt 0.929199219 0.584960938
vt 0.885742188 0.549316406
vt 0.934082031 0.549316406
vt 0.936035156 0.634277344
vt 0.885742188 0.650390625
vt 0.972167969 0.59765625
vt 0.984863281 0.549316406
vt 0.885742188 0.614257812
vt 0.885742188 0.581542969
vt 0.841796875 0.584960938
vt 0.856933594 0.618652344
vt 0.885742188 0.650390625
vt 0.913574219 0.618652344
vt 0.834472656 0.634277344
vt 0.799316406 0.59765625
vt 0.786132812 0.549316406
vt 0.836914062 0.549316406
vt 0.834472656 0.634277344
vt 0.799316406 0.59765625
vt 0.841796875 0.584960938
vt 0.856933594 0.618652344
vt 0.885742188 0.650390625
vt 0.885742188 0.614257812
vt 0.856933594 0.618652344
vt 0.885742188 0.581542969
vt 0.885742188 0.614257812
vt 0.841796875 0.584960938
vt 0.885742188 0.549316406
vt 0.836914062 0.549316406
vt 0.799316406 0.59765625
vt 0.885742188 0.517578125
vt 0.786132812 0.549316406
vt 0.841796875 0.514160156
vt 0.799316406 0.500976562
vt 0.885742188 0.581542969
vt 0.836914062 0.549316406
vt 0.841796875 0.584960938
vt 0.885742188 0.549316406
vt 0.841796875 0.514160156
vt 0.885742188 0.517578125
vt 0.799316406 0.500976562
vt 0.786132812 0.549316406
vt 0.856933594 0.48046875
vt 0.885742188 0.485107422
vt 0.834472656 0.46484375
vt 0.885742188 0.581542969
vt 0.885742188 0.549316406
vt 0.934082031 0.549316406
vt 0.929199219 0.584960938
vt 0.984863281 0.549316406
vt 0.885742188 0.614257812
vt 0.972167969 0.59765625
vt 0.913574219 0.618652344
vt 0.885742188 0.650390625
vt 0.936035156 0.634277344
vt 0.934082031 0.549316406
vt 0.972167969 0.500976562
vt 0.984863281 0.549316406
vt 0.929199219 0.514160156
vt 0.885742188 0.549316406
vt 0.936035156 0.46484375
vt 0.885742188 0.517578125
vt 0.913574219 0.48046875
vt 0.885742188 0.485107422
vt 0.934082031 0.549316406
vt 0.885742188 0.517578125
vt 0.885742188 0.549316406
vt 0.929199219 0.514160156
vt 0.984863281 0.549316406
vt 0.885742188 0.485107422
vt 0.972167969 0.500976562
vt 0.913574219 0.48046875
vt 0.936035156 0.46484375
vt 0.841796875 0.514160156
vt 0.885742188 0.485107422
vt 0.885742188 0.517578125
vt 0.856933594 0.48046875
vt 0.799316406 0.500976562
vt 0.834472656 0.46484375
vt 0.885742188 0.448486328
vt 0.913574219 0.48046875
vt 0.936035156 0.46484375
vn -0.63671875 0.435058594 0.63671875
vn -1.1920929E-07 0.772949219 0.634765625
vn -0 0.435058594 0.900390625
vn -0.448730469 0.772949219 0.448730469
vn -0 1 0
vn -0.634765625 0.772949219 1.1920929E-07
vn -0.448730469 0.772949219 -0.448730469
vn -0 0.772949219 -0.634765625
vn -0.448730469 -0.772949219 -0.448730469
vn -0.900390625 -0.435058594 0
vn -0.634765625 -0.772949219 0
vn -0.63671875 -0.435058594 -0.63671875
vn -1 0 0
vn -0.70703125 -1.1920929E-07 -0.70703125
vn -0 -0.772949219 -0.634765625
vn -0 -1 0
vn -0 -0.435058594 -0.900390625
vn -0 -1.1920929E-07 -1
vn -0.634765625 -0.772949219 0
vn -0.900390625 -0.435058594 0
vn -0.63671875 -0.435058594 0.63671875
vn -0.448730469 -0.772949219 0.448730469
vn -0 -1 0
vn -0.448730469 -0.772949219 -0.448730469
vn -0 -0.772949219 0.634765625
vn -0 -0.435058594 0.900390625
vn -0 1.1920929E-07 1
vn -0.70703125 1.1920929E-07 0.70703125
vn -0 -0.772949219 0.634765625
vn -0 -0.435058594 0.900390625
vn 0.63671875 -0.435058594 0.63671875
vn 0.448730469 -0.772949219 0.448730469
vn -0 -1 0
vn 0.634765625 -0.772949219 0
vn 0.448730469 -0.772949219 0.448730469
vn 0.900390625 -0.435058594 0
vn 0.634765625 -0.772949219 0
vn 0.63671875 -0.435058594 0.63671875
vn 1 2.38418579E-07 -1.78813934E-07
vn 0.70703125 0 0.70703125
vn -0 -0.435058594 0.900390625
vn 0.900390625 0.435058594 -1.78813934E-07
vn -0 1.1920929E-07 1
vn 0.63671875 0.435058594 0.63671875
vn -0 0.435058594 0.900390625
vn -0.900390625 -0.435058594 0
vn -0.70703125 1.1920929E-07 0.70703125
vn -0.63671875 -0.435058594 0.63671875
vn -1 0 0
vn -0.63671875 0.435058594 0.63671875
vn -0.900390625 0.435058594 0
vn -0 0.435058594 0.900390625
vn -0 1.1920929E-07 1
vn -0.448730469 0.772949219 0.448730469
vn -0.634765625 0.772949219 1.1920929E-07
vn -1.1920929E-07 0.772949219 0.634765625
vn 0.900390625 -0.435058594 0
vn 1 2.38418579E-07 -1.78813934E-07
vn 0.70703125 2.38418579E-07 -0.70703125
vn 0.63671875 -0.435058594 -0.63671875
vn -0 -1.1920929E-07 -1
vn 0.634765625 -0.772949219 0
vn -0 -0.435058594 -0.900390625
vn 0.448730469 -0.772949219 -0.448730469
vn -0 -1 0
vn -0 -0.772949219 -0.634765625
vn 0.70703125 2.38418579E-07 -0.70703125
vn -0 0.435058594 -0.900390625
vn -0 -1.1920929E-07 -1
vn 0.63671875 0.435058594 -0.63671875
vn 1 2.38418579E-07 -1.78813934E-07
vn -0 0.772949219 -0.634765625
vn 0.900390625 0.435058594 -1.78813934E-07
vn 0.448730469 0.772949219 -0.448730469
vn 0.634765625 0.772949219 0
vn -0.70703125 -1.1920929E-07 -0.70703125
vn -0.900390625 0.435058594 0
vn -1 0 0
vn -0.63671875 0.435058594 -0.63671875
vn -0 -1.1920929E-07 -1
vn -0.634765625 0.772949219 1.1920929E-07
vn -0 0.435058594 -0.900390625
vn -0.448730469 0.772949219 -0.448730469
vn -0 0.772949219 -0.634765625
vn 0.63671875 0.435058594 0.63671875
vn 0.634765625 0.772949219 0
vn 0.900390625 0.435058594 -1.78813934E-07
vn 0.448730469 0.772949219 0.448730469
vn -0 0.435058594 0.900390625
vn -1.1920929E-07 0.772949219 0.634765625
vn -0 1 0
vn 0.448730469 0.772949219 -0.448730469
vn -0 0.772949219 -0.634765625
g BallsBazooka_Ball_6_0
f 3/3/3 2/2/2 1/1/1
f 2/2/2 5/5/5 4/4/4
f 4/4/4 5/5/5 6/6/6
f 6/6/6 5/5/5 7/7/7
f 7/7/7 5/5/5 8/8/8
f 11/11/11 10/10/10 9/9/9
f 10/10/10 12/12/12 9/9/9
f 10/10/10 13/13/13 12/12/12
f 13/13/13 14/14/14 12/12/12
f 9/9/9 12/12/12 15/15/15
f 15/15/15 16/16/16 9/9/9
f 12/12/12 17/17/17 15/15/15
f 12/12/12 14/14/14 17/17/17
f 14/14/14 18/18/18 17/17/17
f 21/21/21 20/20/20 19/19/19
f 22/22/22 21/21/21 19/19/19
f 19/19/19 23/23/23 22/22/22
f 24/24/24 23/23/23 19/19/19
f 22/22/22 23/23/23 25/25/25
f 25/25/25 26/26/26 22/22/22
f 26/26/26 21/21/21 22/22/22
f 26/26/26 27/27/27 21/21/21
f 27/27/27 28/28/28 21/21/21
f 31/31/31 30/30/30 29/29/29
f 32/32/32 31/31/31 29/29/29
f 29/29/29 33/33/33 32/32/32
f 32/32/32 33/33/33 34/34/34
f 37/37/37 36/36/36 35/35/35
f 36/36/36 38/38/38 35/35/35
f 36/36/36 39/39/39 38/38/38
f 39/39/39 40/40/40 38/38/38
f 38/38/38 40/40/40 41/41/41
f 39/39/39 42/42/42 40/40/40
f 40/40/40 43/43/43 41/41/41
f 42/42/42 44/44/44 40/40/40
f 40/40/40 44/44/44 43/43/43
f 44/44/44 45/45/45 43/43/43
f 48/48/48 47/47/47 46/46/46
f 47/47/47 49/49/49 46/46/46
f 47/47/47 50/50/50 49/49/49
f 50/50/50 51/51/51 49/49/49
f 52/52/52 50/50/50 47/47/47
f 53/53/53 52/52/52 47/47/47
f 50/50/50 54/54/54 51/51/51
f 54/54/54 55/55/55 51/51/51
f 56/56/56 54/54/54 50/50/50
f 59/59/59 58/58/58 57/57/57
f 60/60/60 59/59/59 57/57/57
f 61/61/61 59/59/59 60/60/60
f 60/60/60 57/57/57 62/62/62
f 63/63/63 61/61/61 60/60/60
f 64/64/64 60/60/60 62/62/62
f 63/63/63 60/60/60 64/64/64
f 62/62/62 65/65/65 64/64/64
f 66/66/66 63/63/63 64/64/64
f 64/64/64 65/65/65 66/66/66
f 69/69/69 68/68/68 67/67/67
f 68/68/68 70/70/70 67/67/67
f 67/67/67 70/70/70 71/71/71
f 68/68/68 72/72/72 70/70/70
f 70/70/70 73/73/73 71/71/71
f 72/72/72 74/74/74 70/70/70
f 70/70/70 74/74/74 73/73/73
f 74/74/74 75/75/75 73/73/73
f 78/78/78 77/77/77 76/76/76
f 77/77/77 79/79/79 76/76/76
f 76/76/76 79/79/79 80/80/80
f 77/77/77 81/81/81 79/79/79
f 79/79/79 82/82/82 80/80/80
f 81/81/81 83/83/83 79/79/79
f 79/79/79 83/83/83 82/82/82
f 83/83/83 84/84/84 82/82/82
f 87/87/87 86/86/86 85/85/85
f 86/86/86 88/88/88 85/85/85
f 85/85/85 88/88/88 89/89/89
f 88/88/88 90/90/90 89/89/89
f 88/88/88 91/91/91 90/90/90
f 86/86/86 91/91/91 88/88/88
f 92/92/92 91/91/91 86/86/86
f 93/93/93 91/91/91 92/92/92
