g CatwalkRailing_DiagonalShort
v 44.8480072 4.05278349 -10.3511934
v 44.8480072 4.962605 -10.3511934
v 45.470932 4.962605 -9.71966171
v 45.470932 4.05278349 -9.71966171
v 44.9051056 4.07678509 -10.3716784
v 45.4925804 4.07678509 -9.7763319
v 45.4925804 4.93860579 -9.7763319
v 44.9051056 4.93860579 -10.3716784
v 45.4938774 4.05278349 -9.74214268
v 45.470932 4.05278349 -9.71966171
v 45.470932 4.962605 -9.71966171
v 45.4938774 4.962605 -9.74214268
v 44.8709564 4.962605 -10.3736753
v 44.8480072 4.962605 -10.3511934
v 44.8480072 4.05278349 -10.3511934
v 44.8709564 4.05278349 -10.3736753
v 44.8709564 4.05278349 -10.3736753
v 45.4938774 4.05278349 -9.74214268
v 45.4925804 4.07678509 -9.7763319
v 44.9051056 4.07678509 -10.3716784
v 45.4938774 4.05278349 -9.74214268
v 45.4938774 4.962605 -9.74214268
v 45.4925804 4.93860579 -9.7763319
v 45.4925804 4.07678509 -9.7763319
v 45.4938774 4.962605 -9.74214268
v 44.8709564 4.962605 -10.3736753
v 44.9051056 4.93860579 -10.3716784
v 45.4925804 4.93860579 -9.7763319
v 44.8709564 4.962605 -10.3736753
v 44.8709564 4.05278349 -10.3736753
v 44.9051056 4.07678509 -10.3716784
v 44.9051056 4.93860579 -10.3716784
v 45.5197105 4.02403259 -9.73393917
v 45.5493393 4.02403259 -9.70369339
v 45.5493393 4.98459339 -9.70369339
v 45.5197105 4.98459339 -9.73393917
v 45.483036 4.02403259 -9.6980114
v 45.483036 4.98459339 -9.6980114
v 45.5126648 4.98459339 -9.66776562
v 45.5126648 4.02403259 -9.66776562
v 45.4635544 3.91503096 -9.70107555
v 45.5153313 3.91503096 -9.64822197
v 45.5688286 3.91503096 -9.70062733
v 45.5170441 3.91503096 -9.75348091
v 45.5126648 4.02403259 -9.66776562
v 45.5126648 4.98459339 -9.66776562
v 45.5493393 4.98459339 -9.70369339
v 45.5493393 4.02403259 -9.70369339
v 45.5112152 5.00002575 -9.65004539
v 45.4652901 5.00002575 -9.6969223
v 45.5211601 5.00002575 -9.7516613
v 45.5670891 5.00002575 -9.70478439
v 45.483036 4.98459339 -9.6980114
v 45.483036 4.02403259 -9.6980114
v 45.5197105 4.02403259 -9.73393917
v 45.5197105 4.98459339 -9.73393917
v 45.5126648 4.98459339 -9.66776562
v 45.483036 4.98459339 -9.6980114
v 45.4652901 4.98459339 -9.6969223
v 45.5112152 4.98459339 -9.65004539
v 45.483036 4.98459339 -9.6980114
v 45.5197105 4.98459339 -9.73393917
v 45.5211601 4.98459339 -9.7516613
v 45.4652901 4.98459339 -9.6969223
v 45.5197105 4.98459339 -9.73393917
v 45.5493393 4.98459339 -9.70369339
v 45.5670891 4.98459339 -9.70478439
v 45.5211601 4.98459339 -9.7516613
v 45.5493393 4.98459339 -9.70369339
v 45.5126648 4.98459339 -9.66776562
v 45.5112152 4.98459339 -9.65004539
v 45.5670891 4.98459339 -9.70478439
v 45.5112152 4.98459339 -9.65004539
v 45.4652901 4.98459339 -9.6969223
v 45.4652901 5.00002575 -9.6969223
v 45.5112152 5.00002575 -9.65004539
v 45.4652901 4.98459339 -9.6969223
v 45.5211601 4.98459339 -9.7516613
v 45.5211601 5.00002575 -9.7516613
v 45.4652901 5.00002575 -9.6969223
v 45.5211601 4.98459339 -9.7516613
v 45.5670891 4.98459339 -9.70478439
v 45.5670891 5.00002575 -9.70478439
v 45.5211601 5.00002575 -9.7516613
v 45.5670891 4.98459339 -9.70478439
v 45.5112152 4.98459339 -9.65004539
v 45.5112152 5.00002575 -9.65004539
v 45.5670891 5.00002575 -9.70478439
v 45.4635544 4.02403259 -9.70107555
v 45.5153313 4.02403259 -9.64822197
v 45.5153313 3.91503096 -9.64822197
v 45.4635544 3.91503096 -9.70107555
v 45.5153313 4.02403259 -9.64822197
v 45.5688286 4.02403259 -9.70062733
v 45.5688286 3.91503096 -9.70062733
v 45.5153313 3.91503096 -9.64822197
v 45.5688286 4.02403259 -9.70062733
v 45.5170441 4.02403259 -9.75348091
v 45.5170441 3.91503096 -9.75348091
v 45.5688286 3.91503096 -9.70062733
v 45.5170441 4.02403259 -9.75348091
v 45.4635544 4.02403259 -9.70107555
v 45.4635544 3.91503096 -9.70107555
v 45.5170441 3.91503096 -9.75348091
v 45.483036 4.02403259 -9.6980114
v 45.5126648 4.02403259 -9.66776562
v 45.5153313 4.02403259 -9.64822197
v 45.4635544 4.02403259 -9.70107555
v 45.5126648 4.02403259 -9.66776562
v 45.5493393 4.02403259 -9.70369339
v 45.5688286 4.02403259 -9.70062733
v 45.5153313 4.02403259 -9.64822197
v 45.5493393 4.02403259 -9.70369339
v 45.5197105 4.02403259 -9.73393917
v 45.5170441 4.02403259 -9.75348091
v 45.5688286 4.02403259 -9.70062733
v 45.5197105 4.02403259 -9.73393917
v 45.483036 4.02403259 -9.6980114
v 45.4635544 4.02403259 -9.70107555
v 45.5170441 4.02403259 -9.75348091
v 44.8551826 4.9589982 -10.4000616
v 45.5218925 4.9589982 -9.72383499
v 45.5218925 4.97048044 -9.72383499
v 44.8551826 4.97048044 -10.4000616
v 44.8250275 4.9589982 -10.3705149
v 44.8250275 4.97048044 -10.3705149
v 45.4917336 4.97048044 -9.69428921
v 45.4917336 4.9589982 -9.69428921
v 44.8250275 4.9589982 -10.3705149
v 45.4917336 4.9589982 -9.69428921
v 45.5218925 4.9589982 -9.72383499
v 44.8551826 4.9589982 -10.4000616
v 45.4992714 4.98103523 -9.70167351
v 44.8325615 4.98103523 -10.3779001
v 44.8476448 4.98103523 -10.3926744
v 45.5143547 4.98103523 -9.71644783
v 44.8250275 4.97048044 -10.3705149
v 44.8325615 4.98103523 -10.3779001
v 45.4992714 4.98103523 -9.70167351
v 45.4917336 4.97048044 -9.69428921
v 45.5218925 4.97048044 -9.72383499
v 45.5143547 4.98103523 -9.71644783
v 44.8476448 4.98103523 -10.3926744
v 44.8551826 4.97048044 -10.4000616
v 44.855175 4.03307009 -10.4000692
v 45.5218849 4.03307009 -9.72384357
v 45.5218849 4.05510664 -9.72384357
v 44.855175 4.05510664 -10.4000692
v 44.8250198 4.03307009 -10.3705225
v 44.8250198 4.05510664 -10.3705225
v 45.4917259 4.05510664 -9.69429684
v 45.4917259 4.03307009 -9.69429684
v 44.8250198 4.03307009 -10.3705225
v 45.4917259 4.03307009 -9.69429684
v 45.5218849 4.03307009 -9.72384357
v 44.855175 4.03307009 -10.4000692
v 45.4917259 4.05510664 -9.69429684
v 44.8250198 4.05510664 -10.3705225
v 44.855175 4.05510664 -10.4000692
v 45.5218849 4.05510664 -9.72384357
vt 0.116149902 0.289550781
vt 0.116149902 0.404785156
vt 0.00388717651 0.404785156
vt 0.00388717651 0.289550781
vt 0.0727539062 0.412597656
vt 0.180786133 0.412597656
vt 0.180786133 0.525390625
vt 0.0727539062 0.525390625
vt 0.216430664 0.284179688
vt 0.216430664 0.278808594
vt 0.0872802734 0.278808594
vt 0.0872802734 0.284179688
vt 0.0872802734 0.284179688
vt 0.0872802734 0.278808594
vt 0.216430664 0.278808594
vt 0.216430664 0.284179688
vt 0.0687255859 0.408203125
vt 0.184692383 0.408203125
vt 0.180786133 0.412597656
vt 0.0727539062 0.412597656
vt 0.24597168 0.408203125
vt 0.24597168 0.529785156
vt 0.24206543 0.525390625
vt 0.24206543 0.412597656
vt 0.184692383 0.529785156
vt 0.0687255859 0.529785156
vt 0.0727539062 0.525390625
vt 0.180786133 0.525390625
vt 0.00400543213 0.529785156
vt 0.00400543213 0.408203125
vt 0.00799560547 0.412597656
vt 0.00799560547 0.525390625
vt 0.393798828 0.262939453
vt 0.393798828 0.268066406
vt 0.287109375 0.268066406
vt 0.287109375 0.262939453
vt 0.393798828 0.280029297
vt 0.287109375 0.280029297
vt 0.287109375 0.274658203
vt 0.393798828 0.274658203
vt 0.275634766 0.276123047
vt 0.267333984 0.276123047
vt 0.267333984 0.267089844
vt 0.275634766 0.267089844
vt 0.393798828 0.274658203
vt 0.287109375 0.274658203
vt 0.287109375 0.268066406
vt 0.393798828 0.268066406
vt 0.279296875 0.290039062
vt 0.269042969 0.290039062
vt 0.269042969 0.27734375
vt 0.279296875 0.27734375
vt 0.287109375 0.256103516
vt 0.393798828 0.256103516
vt 0.393798828 0.262939453
vt 0.287109375 0.262939453
vt 0.283691406 0.291748047
vt 0.283691406 0.298339844
vt 0.281738281 0.300048828
vt 0.281738281 0.290039062
vt 0.283691406 0.256591797
vt 0.283691406 0.264892578
vt 0.281738281 0.267089844
vt 0.281738281 0.254394531
vt 0.283691406 0.269042969
vt 0.283691406 0.275390625
vt 0.281738281 0.27734375
vt 0.281738281 0.267089844
vt 0.283691406 0.279541016
vt 0.283691406 0.287841797
vt 0.281738281 0.290039062
vt 0.281738281 0.27734375
vt 0.281738281 0.290039062
vt 0.281738281 0.300048828
vt 0.279296875 0.300048828
vt 0.279296875 0.290039062
vt 0.281738281 0.254394531
vt 0.281738281 0.267089844
vt 0.279296875 0.267089844
vt 0.279296875 0.254394531
vt 0.281738281 0.267089844
vt 0.281738281 0.27734375
vt 0.279296875 0.27734375
vt 0.279296875 0.267089844
vt 0.281738281 0.27734375
vt 0.281738281 0.290039062
vt 0.279296875 0.290039062
vt 0.279296875 0.27734375
vt 0.254150391 0.284423828
vt 0.254150391 0.276123047
vt 0.267333984 0.276123047
vt 0.267333984 0.284423828
vt 0.254150391 0.276123047
vt 0.254150391 0.267089844
vt 0.267333984 0.267089844
vt 0.267333984 0.276123047
vt 0.254150391 0.267089844
vt 0.254150391 0.258544922
vt 0.267333984 0.258544922
vt 0.267333984 0.267089844
vt 0.254150391 0.293701172
vt 0.254150391 0.284423828
vt 0.267333984 0.284423828
vt 0.267333984 0.293701172
vt 0.252441406 0.282714844
vt 0.252441406 0.277832031
vt 0.254150391 0.276123047
vt 0.254150391 0.284423828
vt 0.252441406 0.274658203
vt 0.252441406 0.268554688
vt 0.254150391 0.267089844
vt 0.254150391 0.276123047
vt 0.252441406 0.265136719
vt 0.252441406 0.260253906
vt 0.254150391 0.258544922
vt 0.254150391 0.267089844
vt 0.252441406 0.292236328
vt 0.252441406 0.285888672
vt 0.254150391 0.284423828
vt 0.254150391 0.293701172
vt 0.00362205505 0.25390625
vt 0.246582031 0.25390625
vt 0.246582031 0.255859375
vt 0.00362205505 0.255859375
vt 0.00362205505 0.266845703
vt 0.00362205505 0.264892578
vt 0.246582031 0.264892578
vt 0.246582031 0.266845703
vt 0.00362205505 0.270263672
vt 0.246582031 0.270263672
vt 0.246582031 0.275878906
vt 0.00362205505 0.275878906
vt 0.246582031 0.262207031
vt 0.00362205505 0.262207031
vt 0.00362205505 0.258544922
vt 0.246582031 0.258544922
vt 0.00362205505 0.264892578
vt 0.00362205505 0.262207031
vt 0.246582031 0.262207031
vt 0.246582031 0.264892578
vt 0.246582031 0.255859375
vt 0.246582031 0.258544922
vt 0.00362205505 0.258544922
vt 0.00362205505 0.255859375
vt 0.00362205505 0.275878906
vt 0.246582031 0.275878906
vt 0.246582031 0.278808594
vt 0.00362205505 0.278808594
vt 0.00362205505 0.286865234
vt 0.00362205505 0.284179688
vt 0.246582031 0.284179688
vt 0.246582031 0.286865234
vt 0.00362205505 0.270263672
vt 0.246582031 0.270263672
vt 0.246582031 0.275878906
vt 0.00362205505 0.275878906
vt 0.246582031 0.284179688
vt 0.00362205505 0.284179688
vt 0.00362205505 0.278808594
vt 0.246582031 0.278808594
vn -0.711914062 0 0.702148438
vn -0.711914062 0 0.702148438
vn -0.711914062 0 0.702148438
vn -0.711914062 0 0.702148438
vn 0.711914062 0 -0.702148438
vn 0.711914062 0 -0.702148438
vn 0.711914062 0 -0.702148438
vn 0.711914062 0 -0.702148438
vn 0.699707031 0 0.714355469
vn 0.699707031 0 0.714355469
vn 0.699707031 0 0.714355469
vn 0.699707031 0 0.714355469
vn -0.699707031 0 -0.714355469
vn -0.699707031 0 -0.714355469
vn -0.699707031 0 -0.714355469
vn -0.699707031 0 -0.714355469
vn 0.514160156 -0.691894531 -0.507324219
vn 0.514160156 -0.691894531 -0.507324219
vn 0.514160156 -0.691894531 -0.507324219
vn 0.514160156 -0.691894531 -0.507324219
vn 0.999511719 0 -0.0378112793
vn 0.999511719 0 -0.0378112793
vn 0.999511719 0 -0.0378112793
vn 0.999511719 0 -0.0378112793
vn 0.514160156 0.691894531 -0.506835938
vn 0.514160156 0.691894531 -0.506835938
vn 0.514160156 0.691894531 -0.506835938
vn 0.514160156 0.691894531 -0.506835938
vn 0.058380127 0 -0.998535156
vn 0.058380127 0 -0.998535156
vn 0.058380127 0 -0.998535156
vn 0.058380127 0 -0.998535156
vn 0.714355469 0 -0.699707031
vn 0.714355469 0 -0.699707031
vn 0.714355469 0 -0.699707031
vn 0.714355469 0 -0.699707031
vn -0.714355469 0 0.699707031
vn -0.714355469 0 0.699707031
vn -0.714355469 0 0.699707031
vn -0.714355469 0 0.699707031
vn -0 -1 0
vn -0 -1 0
vn -0 -1 0
vn -0 -1 0
vn 0.699707031 0 0.714355469
vn 0.699707031 0 0.714355469
vn 0.699707031 0 0.714355469
vn 0.699707031 0 0.714355469
vn -0 1 0
vn -0 1 0
vn -0 1 0
vn -0 1 0
vn -0.699707031 0 -0.714355469
vn -0.699707031 0 -0.714355469
vn -0.699707031 0 -0.714355469
vn -0.699707031 0 -0.714355469
vn -0 -1 0
vn -0 -1 0
vn -0 -1 0
vn -0 -1 0
vn -0 -1 0
vn -0 -1 0
vn -0 -1 0
vn -0 -1 0
vn -0 -1 0
vn -0 -1 0
vn -0 -1 0
vn -0 -1 0
vn -0 -1 0
vn -0 -1 0
vn -0 -1 0
vn -0 -1 0
vn -0.714355469 0 0.699707031
vn -0.714355469 0 0.699707031
vn -0.714355469 0 0.699707031
vn -0.714355469 0 0.699707031
vn -0.699707031 0 -0.714355469
vn -0.699707031 0 -0.714355469
vn -0.699707031 0 -0.714355469
vn -0.699707031 0 -0.714355469
vn 0.714355469 0 -0.699707031
vn 0.714355469 0 -0.699707031
vn 0.714355469 0 -0.699707031
vn 0.714355469 0 -0.699707031
vn 0.699707031 0 0.714355469
vn 0.699707031 0 0.714355469
vn 0.699707031 0 0.714355469
vn 0.699707031 0 0.714355469
vn -0.714355469 0 0.699707031
vn -0.714355469 0 0.699707031
vn -0.714355469 0 0.699707031
vn -0.714355469 0 0.699707031
vn 0.699707031 0 0.714355469
vn 0.699707031 0 0.714355469
vn 0.699707031 0 0.714355469
vn 0.699707031 0 0.714355469
vn 0.714355469 0 -0.699707031
vn 0.714355469 0 -0.699707031
vn 0.714355469 0 -0.699707031
vn 0.714355469 0 -0.699707031
vn -0.699707031 0 -0.714355469
vn -0.699707031 0 -0.714355469
vn -0.699707031 0 -0.714355469
vn -0.699707031 0 -0.714355469
vn -0 1 -5.96046448E-06
vn -0 1 2.15768814E-05
vn -0 1 2.23517418E-05
vn -0 1 -1.090765E-05
vn -0 1 2.15768814E-05
vn -0 1 5.96046448E-06
vn -0 1 1.090765E-05
vn -0 1 2.23517418E-05
vn -0 1 5.96046448E-06
vn -0 1 -2.15768814E-05
vn -0 1 -2.23517418E-05
vn -0 1 1.090765E-05
vn -0 1 -2.15768814E-05
vn -0 1 -5.96046448E-06
vn -0 1 -1.090765E-05
vn -0 1 -2.23517418E-05
vn 0.711914062 0 -0.702148438
vn 0.711914062 0 -0.702148438
vn 0.711914062 0 -0.702148438
vn 0.711914062 0 -0.702148438
vn -0.711914062 0 0.702148438
vn -0.711914062 0 0.702148438
vn -0.711914062 0 0.702148438
vn -0.711914062 0 0.702148438
vn -0 -1 0
vn -0 -1 0
vn -0 -1 0
vn -0 -1 0
vn -0 1 0
vn -0 1 0
vn -0 1 0
vn -0 1 0
vn -0.503417969 0.70703125 0.496582031
vn -0.503417969 0.70703125 0.496582031
vn -0.503417969 0.70703125 0.496582031
vn -0.503417969 0.70703125 0.496582031
vn 0.503417969 0.70703125 -0.496337891
vn 0.503417969 0.70703125 -0.496337891
vn 0.503417969 0.70703125 -0.496337891
vn 0.503417969 0.70703125 -0.496337891
vn 0.711914062 0 -0.702148438
vn 0.711914062 0 -0.702148438
vn 0.711914062 0 -0.702148438
vn 0.711914062 0 -0.702148438
vn -0.711914062 0 0.702148438
vn -0.711914062 0 0.702148438
vn -0.711914062 0 0.702148438
vn -0.711914062 0 0.702148438
vn -0 -1 0
vn -0 -1 0
vn -0 -1 0
vn -0 -1 0
vn -0 1 0
vn -0 1 0
vn -0 1 0
vn -0 1 0
g CatwalkRailing_DiagonalShort_0
f 3/3/3 2/2/2 1/1/1
f 4/4/4 3/3/3 1/1/1
f 7/7/7 6/6/6 5/5/5
f 8/8/8 7/7/7 5/5/5
f 11/11/11 10/10/10 9/9/9
f 12/12/12 11/11/11 9/9/9
f 15/15/15 14/14/14 13/13/13
f 16/16/16 15/15/15 13/13/13
f 19/19/19 18/18/18 17/17/17
f 20/20/20 19/19/19 17/17/17
f 23/23/23 22/22/22 21/21/21
f 24/24/24 23/23/23 21/21/21
f 27/27/27 26/26/26 25/25/25
f 28/28/28 27/27/27 25/25/25
f 31/31/31 30/30/30 29/29/29
f 32/32/32 31/31/31 29/29/29
f 35/35/35 34/34/34 33/33/33
f 36/36/36 35/35/35 33/33/33
f 39/39/39 38/38/38 37/37/37
f 40/40/40 39/39/39 37/37/37
f 43/43/43 42/42/42 41/41/41
f 44/44/44 43/43/43 41/41/41
f 47/47/47 46/46/46 45/45/45
f 48/48/48 47/47/47 45/45/45
f 51/51/51 50/50/50 49/49/49
f 52/52/52 51/51/51 49/49/49
f 55/55/55 54/54/54 53/53/53
f 56/56/56 55/55/55 53/53/53
f 59/59/59 58/58/58 57/57/57
f 60/60/60 59/59/59 57/57/57
f 63/63/63 62/62/62 61/61/61
f 64/64/64 63/63/63 61/61/61
f 67/67/67 66/66/66 65/65/65
f 68/68/68 67/67/67 65/65/65
f 71/71/71 70/70/70 69/69/69
f 72/72/72 71/71/71 69/69/69
f 75/75/75 74/74/74 73/73/73
f 76/76/76 75/75/75 73/73/73
f 79/79/79 78/78/78 77/77/77
f 80/80/80 79/79/79 77/77/77
f 83/83/83 82/82/82 81/81/81
f 84/84/84 83/83/83 81/81/81
f 87/87/87 86/86/86 85/85/85
f 88/88/88 87/87/87 85/85/85
f 91/91/91 90/90/90 89/89/89
f 92/92/92 91/91/91 89/89/89
f 95/95/95 94/94/94 93/93/93
f 96/96/96 95/95/95 93/93/93
f 99/99/99 98/98/98 97/97/97
f 100/100/100 99/99/99 97/97/97
f 103/103/103 102/102/102 101/101/101
f 104/104/104 103/103/103 101/101/101
f 107/107/107 106/106/106 105/105/105
f 108/108/108 107/107/107 105/105/105
f 111/111/111 110/110/110 109/109/109
f 112/112/112 111/111/111 109/109/109
f 115/115/115 114/114/114 113/113/113
f 116/116/116 115/115/115 113/113/113
f 119/119/119 118/118/118 117/117/117
f 120/120/120 119/119/119 117/117/117
f 123/123/123 122/122/122 121/121/121
f 124/124/124 123/123/123 121/121/121
f 127/127/127 126/126/126 125/125/125
f 128/128/128 127/127/127 125/125/125
f 131/131/131 130/130/130 129/129/129
f 132/132/132 131/131/131 129/129/129
f 135/135/135 134/134/134 133/133/133
f 136/136/136 135/135/135 133/133/133
f 139/139/139 138/138/138 137/137/137
f 140/140/140 139/139/139 137/137/137
f 143/143/143 142/142/142 141/141/141
f 144/144/144 143/143/143 141/141/141
f 147/147/147 146/146/146 145/145/145
f 148/148/148 147/147/147 145/145/145
f 151/151/151 150/150/150 149/149/149
f 152/152/152 151/151/151 149/149/149
f 155/155/155 154/154/154 153/153/153
f 156/156/156 155/155/155 153/153/153
f 159/159/159 158/158/158 157/157/157
f 160/160/160 159/159/159 157/157/157
