g IS4_MDL_EscenarioPB_Pared_Staff_13
v -0 2.35238099 -1.42651749
v -0 2.35238099 1.42651713
v -0 -1.35238397 1.42651713
v -0 -1.35238397 -1.42651749
v -0 -2.35238099 -1.42651749
v -0 -2.35238099 1.42651713
vt 0.0303649902 0.501464844
vt 0.296630859 0.501464844
vt 0.296630859 0.134033203
vt 0.0303649902 0.134033203
vt 0.0303649902 0.0181121826
vt 0.296630859 0.0181121826
vn -1 0 0
vn -1 0 0
vn -1 0 0
vn -1 0 0
vn -1 0 0
vn -1 0 0
g IS4_MDL_EscenarioPB_Pared_Staff_13_0
f 3/3/3 2/2/2 1/1/1
f 4/4/4 3/3/3 1/1/1
f 3/3/3 4/4/4 5/5/5
f 6/6/6 3/3/3 5/5/5
