g Turbine_A_Nail
v -0.0118442392 -0.251562297 0.007620255
v -0.0118442392 0.257697314 0.007620255
v 0.0118569322 0.257697314 0.007620255
v 0.0118569322 -0.251562297 0.007620255
v -0.0118442392 0.257697314 -0.00762022287
v -0.0118442392 -0.251562297 -0.00762022287
v 0.0118569322 -0.251562297 -0.00762022287
v 0.0118569322 0.257697314 -0.00762022287
v 0.0118569322 -0.251562297 0.007620255
v 0.0118569322 0.257697314 0.007620255
v 0.0118569322 0.257697314 -0.00762022287
v 0.0118569322 -0.251562297 -0.00762022287
v -0.0118442392 -0.251562297 -0.00762022287
v -0.0118442392 0.257697314 -0.00762022287
v -0.0118442392 0.257697314 0.007620255
v -0.0118442392 -0.251562297 0.007620255
v 0.0257021468 -0.251562297 0.0227801669
v 0.0257021468 -0.261111259 0.0227801669
v -0.0256967768 -0.261111259 0.0227801669
v -0.0256967768 -0.251562297 0.0227801669
v -0.0256967768 -0.251562297 -0.0227807444
v -0.0256967768 -0.261111259 -0.0227807444
v 0.0257021468 -0.261111259 -0.0227807444
v 0.0257021468 -0.251562297 -0.0227807444
v -0.0256967768 -0.251562297 0.0227801669
v -0.0256967768 -0.261111259 0.0227801669
v -0.0256967768 -0.261111259 -0.0227807444
v -0.0256967768 -0.251562297 -0.0227807444
v 0.0257021468 -0.251562297 -0.0227807444
v 0.0257021468 -0.261111259 -0.0227807444
v 0.0257021468 -0.261111259 0.0227801669
v 0.0257021468 -0.251562297 0.0227801669
v 0.0195205063 0.294299126 0.0125500653
v 0.00932519324 0.294299185 0.0125500653
v 0.00932519324 0.294299185 -0.0125494218
v 0.0195205063 0.294299126 -0.0125494218
v -0.0195126962 0.294299126 -0.0125494218
v -0.0093173841 0.294299185 -0.0125494218
v -0.0093173841 0.294299185 0.0125500653
v -0.0195126962 0.294299126 0.0125500653
v 0.00932519324 0.26959011 0.0125500653
v -0.0093173841 0.26959011 0.0125500653
v -0.0093173841 0.26959011 -0.0125494218
v 0.00932519324 0.26959011 -0.0125494218
v 0.0195205063 0.257697314 0.0125500653
v 0.0195205063 0.294299126 0.0125500653
v 0.0195205063 0.294299126 -0.0125494218
v 0.0195205063 0.257697314 -0.0125494218
v 0.0195205063 0.257697314 -0.0125494218
v 0.0195205063 0.294299126 -0.0125494218
v 0.00932519324 0.294299185 -0.0125494218
v 0.00932519324 0.26959011 -0.0125494218
v -0.0093173841 0.26959011 -0.0125494218
v -0.0195126962 0.257697314 -0.0125494218
v -0.0195126962 0.294299126 -0.0125494218
v -0.0093173841 0.294299185 -0.0125494218
v 0.00932519324 0.26959011 -0.0125494218
v 0.00932519324 0.294299185 -0.0125494218
v 0.00932519324 0.294299185 0.0125500653
v 0.00932519324 0.26959011 0.0125500653
v 0.00932519324 0.26959011 0.0125500653
v 0.00932519324 0.294299185 0.0125500653
v 0.0195205063 0.294299126 0.0125500653
v 0.0195205063 0.257697314 0.0125500653
v -0.0195126962 0.257697314 0.0125500653
v -0.0093173841 0.26959011 0.0125500653
v -0.0093173841 0.294299185 0.0125500653
v -0.0195126962 0.294299126 0.0125500653
v -0.0195126962 0.257697314 -0.0125494218
v -0.0195126962 0.294299126 -0.0125494218
v -0.0195126962 0.294299126 0.0125500653
v -0.0195126962 0.257697314 0.0125500653
v -0.0093173841 0.26959011 0.0125500653
v -0.0093173841 0.294299185 0.0125500653
v -0.0093173841 0.294299185 -0.0125494218
v -0.0093173841 0.26959011 -0.0125494218
v 0.0118569322 0.257697314 -0.00762022287
v -0.0195126962 0.257697314 -0.0125494218
v -0.0118442392 0.257697314 -0.00762022287
v 0.0195205063 0.257697314 -0.0125494218
v -0.0195126962 0.257697314 0.0125500653
v 0.0118569322 0.257697314 0.007620255
v -0.0118442392 0.257697314 0.007620255
v 0.0195205063 0.257697314 0.0125500653
v -0.0118442392 -0.251562297 -0.00762022287
v 0.0257021468 -0.251562297 -0.0227807444
v 0.0118569322 -0.251562297 -0.00762022287
v -0.0256967768 -0.251562297 -0.0227807444
v 0.0257021468 -0.251562297 0.0227801669
v -0.0118442392 -0.251562297 0.007620255
v 0.0118569322 -0.251562297 0.007620255
v -0.0256967768 -0.251562297 0.0227801669
vt 0.631835938 0.455810547
vt 0.570800781 0.455810547
vt 0.570800781 0.458740234
vt 0.631835938 0.458740234
vt 0.570800781 0.464111328
vt 0.631835938 0.464111328
vt 0.631835938 0.461425781
vt 0.570800781 0.461425781
vt 0.631835938 0.458740234
vt 0.570800781 0.458740234
vt 0.570800781 0.461425781
vt 0.631835938 0.461425781
vt 0.631835938 0.464111328
vt 0.570800781 0.464111328
vt 0.570800781 0.467041016
vt 0.631835938 0.467041016
vt 0.339355469 0.755859375
vt 0.339355469 0.753417969
vt 0.330078125 0.753417969
vt 0.330078125 0.755859375
vt 0.330078125 0.769042969
vt 0.330078125 0.771484375
vt 0.339355469 0.771484375
vt 0.339355469 0.769042969
vt 0.330078125 0.755859375
vt 0.327392578 0.755859375
vt 0.327392578 0.769042969
vt 0.330078125 0.769042969
vt 0.339355469 0.769042969
vt 0.341796875 0.769042969
vt 0.341796875 0.755859375
vt 0.339355469 0.755859375
vt 0.344970703 0.800292969
vt 0.344970703 0.802246094
vt 0.354003906 0.802246094
vt 0.354003906 0.800292969
vt 0.354003906 0.767578125
vt 0.354003906 0.765136719
vt 0.344970703 0.765136719
vt 0.344970703 0.767578125
vt 0.344970703 0.752929688
vt 0.344970703 0.757324219
vt 0.354003906 0.757324219
vt 0.354003906 0.752929688
vt 0.344970703 0.788085938
vt 0.344970703 0.800292969
vt 0.354003906 0.800292969
vt 0.354003906 0.788085938
vt 0.344970703 0.788085938
vt 0.333007812 0.788085938
vt 0.333007812 0.786132812
vt 0.341064453 0.786132812
vt 0.341064453 0.781738281
vt 0.344970703 0.779296875
vt 0.333007812 0.779296875
vt 0.333007812 0.781738281
vt 0.354003906 0.810546875
vt 0.354003906 0.802246094
vt 0.344970703 0.802246094
vt 0.344970703 0.810546875
vt 0.341064453 0.786132812
vt 0.333251953 0.786132812
vt 0.333251953 0.788085938
vt 0.344970703 0.788085938
vt 0.344970703 0.779296875
vt 0.341064453 0.781738281
vt 0.333251953 0.781738281
vt 0.333251953 0.779296875
vt 0.354003906 0.779296875
vt 0.354003906 0.767578125
vt 0.344970703 0.767578125
vt 0.344970703 0.779296875
vt 0.344970703 0.757324219
vt 0.344970703 0.765136719
vt 0.354003906 0.765136719
vt 0.354003906 0.757324219
vt 0.352294922 0.786621094
vt 0.354003906 0.779296875
vt 0.352294922 0.78125
vt 0.354003906 0.788085938
vt 0.344970703 0.779296875
vt 0.346679688 0.786621094
vt 0.346679688 0.78125
vt 0.344970703 0.788085938
vt 0.332519531 0.764648438
vt 0.339355469 0.769042969
vt 0.336669922 0.764648438
vt 0.330078125 0.769042969
vt 0.339355469 0.755859375
vt 0.332519531 0.760253906
vt 0.336669922 0.760253906
vt 0.330078125 0.755859375
vn -0 0 1
vn -0 0 1
vn -0 0 1
vn -0 0 1
vn -0 0 -1
vn -0 0 -1
vn -0 0 -1
vn -0 0 -1
vn 1 0 0
vn 1 0 0
vn 1 0 0
vn 1 0 0
vn -1 0 0
vn -1 0 0
vn -1 0 0
vn -1 0 0
vn -0 0 1
vn -0 0 1
vn -0 0 1
vn -0 0 1
vn -0 0 -1
vn -0 0 -1
vn -0 0 -1
vn -0 0 -1
vn -1 0 0
vn -1 0 0
vn -1 0 0
vn -1 0 0
vn 1 0 0
vn 1 0 0
vn 1 0 0
vn 1 0 0
vn 7.51018524E-06 1 0
vn 7.51018524E-06 1 0
vn 7.51018524E-06 1 0
vn 7.51018524E-06 1 0
vn -7.51018524E-06 1 0
vn -7.51018524E-06 1 0
vn -7.51018524E-06 1 0
vn -7.51018524E-06 1 0
vn -0 1 0
vn -0 1 0
vn -0 1 0
vn -0 1 0
vn 1 0 0
vn 1 0 0
vn 1 0 0
vn 1 0 0
vn -0 0 -1
vn -0 0 -1
vn -0 0 -1
vn -0 0 -1
vn -0 0 -1
vn -0 0 -1
vn 5.96046448E-07 0 -1
vn 5.96046448E-07 0 -1
vn -1 0 0
vn -1 0 0
vn -1 0 0
vn -1 0 0
vn -0 0 1
vn -0 0 1
vn -0 0 1
vn -0 0 1
vn -0 0 1
vn -0 0 1
vn -1.1920929E-06 0 1
vn -1.1920929E-06 0 1
vn -1 0 0
vn -1 0 0
vn -1 0 0
vn -1 0 0
vn 1 0 0
vn 1 0 0
vn 1 0 0
vn 1 0 0
vn -0 -1 0
vn -0 -1 -2.44379044E-06
vn -0 -1 -2.44379044E-06
vn -0 -1 0
vn -0 -1 -2.44379044E-06
vn -0 -1 -2.44379044E-06
vn -0 -1 -2.44379044E-06
vn -0 -1 -2.44379044E-06
vn -0 1 -3.57627869E-07
vn -0 1 -3.57627869E-07
vn -0 1 -3.57627869E-07
vn -0 1 -3.57627869E-07
vn -0 1 3.57627869E-07
vn -0 1 3.57627869E-07
vn -0 1 3.57627869E-07
vn -0 1 3.57627869E-07
g Turbine_A_Nail_0
f 3/3/3 2/2/2 1/1/1
f 4/4/4 3/3/3 1/1/1
f 7/7/7 6/6/6 5/5/5
f 8/8/8 7/7/7 5/5/5
f 11/11/11 10/10/10 9/9/9
f 12/12/12 11/11/11 9/9/9
f 15/15/15 14/14/14 13/13/13
f 16/16/16 15/15/15 13/13/13
f 19/19/19 18/18/18 17/17/17
f 20/20/20 19/19/19 17/17/17
f 23/23/23 22/22/22 21/21/21
f 24/24/24 23/23/23 21/21/21
f 27/27/27 26/26/26 25/25/25
f 28/28/28 27/27/27 25/25/25
f 31/31/31 30/30/30 29/29/29
f 32/32/32 31/31/31 29/29/29
f 35/35/35 34/34/34 33/33/33
f 36/36/36 35/35/35 33/33/33
f 39/39/39 38/38/38 37/37/37
f 40/40/40 39/39/39 37/37/37
f 43/43/43 42/42/42 41/41/41
f 44/44/44 43/43/43 41/41/41
f 47/47/47 46/46/46 45/45/45
f 48/48/48 47/47/47 45/45/45
f 51/51/51 50/50/50 49/49/49
f 52/52/52 51/51/51 49/49/49
f 53/53/53 52/52/52 49/49/49
f 54/54/54 53/53/53 49/49/49
f 54/54/54 55/55/55 53/53/53
f 55/55/55 56/56/56 53/53/53
f 59/59/59 58/58/58 57/57/57
f 60/60/60 59/59/59 57/57/57
f 63/63/63 62/62/62 61/61/61
f 64/64/64 63/63/63 61/61/61
f 64/64/64 61/61/61 65/65/65
f 61/61/61 66/66/66 65/65/65
f 66/66/66 67/67/67 65/65/65
f 67/67/67 68/68/68 65/65/65
f 71/71/71 70/70/70 69/69/69
f 72/72/72 71/71/71 69/69/69
f 75/75/75 74/74/74 73/73/73
f 76/76/76 75/75/75 73/73/73
f 79/79/79 78/78/78 77/77/77
f 78/78/78 80/80/80 77/77/77
f 81/81/81 78/78/78 79/79/79
f 77/77/77 80/80/80 82/82/82
f 83/83/83 81/81/81 79/79/79
f 80/80/80 84/84/84 82/82/82
f 84/84/84 81/81/81 83/83/83
f 82/82/82 84/84/84 83/83/83
f 87/87/87 86/86/86 85/85/85
f 86/86/86 88/88/88 85/85/85
f 89/89/89 86/86/86 87/87/87
f 85/85/85 88/88/88 90/90/90
f 91/91/91 89/89/89 87/87/87
f 88/88/88 92/92/92 90/90/90
f 92/92/92 89/89/89 91/91/91
f 90/90/90 92/92/92 91/91/91
