g BrainJar_Brain_Prototipe
v -0.026540637 -0.0181332733 0.00543287257
v -0.0288108699 -0.0164504945 0.00457612006
v -0.0290947892 -0.0155363604 0.00612167362
v -0.0267824475 -0.016800303 0.00772084203
v -0.0172848962 -0.020550698 0.00690426817
v -0.0272190589 -0.0149380825 0.00948783848
v -0.0294928346 -0.0142769618 0.00737263681
v -0.0297479592 -0.0127575351 0.00824717525
v -0.0175388027 -0.0187097155 0.01009202
v -0.0181047581 -0.0161652267 0.0125555508
v -0.0277083032 -0.0127907135 0.0104258247
v -0.0111189978 -0.0189288426 0.0108808614
v -0.0108545441 -0.0209766664 0.00735586137
v -0.0280203186 -0.01064537 0.0102110188
v -0.0298711769 -0.0115712164 0.00838350318
v -0.0116822934 -0.0160876457 0.0135967247
v -0.00447547529 -0.0164740551 0.0104980748
v -0.00430720113 -0.0185976885 0.00721734017
v 0.00442209514 -0.0144377369 0.00608584378
v -0.0281259101 -0.0089894915 0.00873384438
v -0.0300547872 -0.0108960392 0.00750986068
v -0.00496997451 -0.0137687773 0.0129242511
v 0.00450121518 -0.0122543853 0.00852228142
v 0.00726780575 -0.0134002827 0.00539657567
v 0.00412175572 -0.00967299473 0.0101525784
v -0.00583745865 -0.0107725477 0.0141349025
v 0.0074680876 -0.0118572712 0.00689989096
v 0.0089544449 -0.0132262986 0.0052354238
v 0.0075169974 -0.0100293634 0.00774316769
v 0.00916212797 -0.0115878386 0.00680614449
v 0.0132364584 -0.0123137664 0.00432170881
v 0.0135897277 -0.0111853359 0.00523784617
v 0.0152983861 -0.0123675726 0.00427774433
v 0.0155788492 -0.0116141122 0.00483163819
v 0.009222541 -0.00966272783 0.0076956558
v 0.0138551695 -0.00996523816 0.00577589031
v 0.0159133375 -0.0107823275 0.00513189286
v 0.00325748743 -0.00698649883 0.0107518863
v 0.00728414627 -0.00807053503 0.00767002068
v 0.00902271923 -0.00761515135 0.00764169684
v 0.0138468845 -0.00885132793 0.00580966938
v 0.0161768775 -0.010002723 0.00509029394
v 0.00631116237 -0.00486392481 0.00528091425
v 0.00874891784 -0.0054421518 0.00580627425
v 0.0138521111 -0.00770471571 0.00492887478
v 0.016539216 -0.00929040927 0.00452167494
v 0.0139408251 -0.007581749 0.00367279048
v 0.0167769082 -0.0092460867 0.00377119053
v 0.00886882842 -0.00489808526 0.00369478227
v 0.0138334334 -0.00792813767 0.00243030535
v 0.0168167315 -0.00948454812 0.00302593224
v 0.00155204884 -0.00343659404 0.00965976715
v 0.00617420906 -0.00317906379 0.00241794577
v 0.00905472878 -0.00518026808 0.00166284561
v 0.0136212455 -0.00863732304 0.00131164549
v 0.0167162288 -0.00993165933 0.00235103606
v 0.00416878099 -0.00206555356 0.00351720792
v 0.00596575299 -0.00325201987 0.000578079198
v 0.00907753594 -0.00612223614 -0.000207252495
v 0.0135165378 -0.00960116833 0.000340423576
v 0.0166143365 -0.0105372239 0.00177814474
v 0.0032546618 -0.00126171112 0.00176654814
v 0.00581607688 -0.00393734453 -0.0011362267
v 0.00868145656 -0.00757692335 -0.00166549673
v 0.0133196879 -0.0107646035 -0.000292053213
v 0.0163796749 -0.011259851 0.00140499114
v 0.0057597789 -0.00525618996 -0.0024997138
v 0.00816128589 -0.0093813464 -0.00253004069
v 0.012989264 -0.0120392079 -0.000445117941
v 0.0159855485 -0.0120348977 0.00130384439
v 0.00575623754 -0.00697992789 -0.00335139269
v 0.00230645947 -0.00298912032 -0.00334685319
v 0.0018934604 -0.00161788939 -0.00184840197
v 0.00774503639 -0.0115536833 -0.00263299933
v 0.0129817575 -0.0131506966 0.000554599741
v 0.0156217096 -0.0127984853 0.0019451523
v 0.00554786855 -0.0104278419 -0.00284906384
v 0.00790736638 -0.0140041113 -0.00102674472
v 0.0131721003 -0.0133733936 0.00176778785
v 0.0154927969 -0.0130672455 0.00274023041
v 0.00238235737 -0.0010855532 -3.57627869E-05
v 0.00635728939 -0.0139520019 -0.000531177502
v 0.00830420014 -0.0146932602 0.00105834962
v 0.0131978653 -0.0131327482 0.00313211442
v 0.0152900517 -0.0129399486 0.00356826768
v 0.0132364584 -0.0123137664 0.00432170881
v 0.0152983861 -0.0123675726 0.00427774433
v 0.0089544449 -0.0132262986 0.0052354238
v 0.00861676596 -0.0143843358 0.00324066146
v 0.00726780575 -0.0134002827 0.00539657567
v 0.00700732274 -0.0144368215 0.00347602833
v 0.00442209514 -0.0144377369 0.00608584378
v 0.00674883462 -0.0146791069 0.00141370774
v 0.00401487481 -0.0159140676 0.0030922126
v -0.00430720113 -0.0185976885 0.00721734017
v 0.0033804297 -0.016356878 -0.000151948931
v -0.00436089933 -0.0200242903 0.0035006809
v -0.0108210752 -0.0223022122 0.00348442071
v -0.0108545441 -0.0209766664 0.00735586137
v -0.0172718838 -0.0217505489 0.00340534211
v -0.0172848962 -0.020550698 0.00690426817
v -0.026540637 -0.0181332733 0.00543287257
v -0.0265898611 -0.0189878121 0.00291544897
v -0.0288108699 -0.0164504945 0.00457612006
v -0.0289638732 -0.0170224421 0.00285763736
v -0.0292397868 -0.0171493385 0.00106437679
v -0.0175990872 -0.0219387244 -0.000166883459
v -0.011117775 -0.0224964805 -0.000473985652
v -0.00471079117 -0.0203880593 -0.00038185119
v -0.0268509313 -0.0191113278 0.000328979484
v -0.0182615854 -0.020963816 -0.00329347607
v -0.0272118542 -0.0184215866 -0.00193464279
v -0.0293895025 -0.0168202966 -0.000667390821
v -0.0294691976 -0.0161460824 -0.00165607454
v -0.0274735522 -0.0168562178 -0.00343211158
v -0.0296926722 -0.0150464913 -0.00160392758
v -0.0117498487 -0.0213874765 -0.00397125212
v 0.00254175533 -0.015574865 -0.0031803702
v -0.0196033381 -0.0178594105 -0.00583894737
v -0.00536453631 -0.0194447804 -0.00387110701
v 0.00117669755 -0.0125262495 -0.00613708468
v -0.0131780105 -0.017560659 -0.00708429329
v -0.00679845037 -0.0158474296 -0.00701708766
v -0.0211242251 -0.0137201212 -0.00655954331
v -0.0150053939 -0.0122077558 -0.00825778022
v -0.00875148457 -0.0106045436 -0.00831240602
v -0.000550768338 -0.00822884496 -0.00751337036
v -0.0276307035 -0.0146455662 -0.0037256144
v -0.0221108627 -0.0104829501 -0.00540659903
v -0.0277962983 -0.0123177003 -0.00284362794
v -0.0161658879 -0.00835066754 -0.00709997164
v 0.00377509696 -0.00704518287 -0.00454209326
v 0.00304620457 -0.00483472832 -0.00427259458
v -0.00155412732 -0.00486853579 -0.00693438528
v -0.00234589283 -0.00193244929 -0.00506794918
v -0.00996415969 -0.00675553316 -0.00731509179
v -0.0228327587 -0.00768873189 -0.00312598213
v -0.00266198022 0.000141572949 -0.00226905826
v -0.0108052874 -0.00355261797 -0.00493417727
v -0.0169730056 -0.00514711346 -0.00457018847
v -0.00243597198 0.00112666131 0.0010138416
v -0.0112137003 -0.00131667615 -0.00160823821
v -0.0173672475 -0.0029103756 -0.00112936972
v -0.0231438875 -0.00577822188 -5.53607933E-05
v -0.0279558338 -0.0102995159 -0.001111908
v -0.00168603531 0.000922508247 0.00434374809
v -0.000504962809 -0.000368213659 0.00719195371
v -0.0104653575 -0.000688729284 0.00637804018
v -0.0110776639 -0.000314774516 0.00232309336
v -0.0172455423 -0.00184109679 0.0028974819
v -0.0230794661 -0.00475069974 0.00345349312
v -0.0280673355 -0.00891883392 0.00117698661
v -0.00938479789 -0.00255805952 0.0100618266
v -0.0166671183 -0.00213378901 0.00705606444
v -0.0298633799 -0.0121835899 0.000580320368
v -0.0225721542 -0.0049181697 0.0071209236
v -0.0156273767 -0.00397984032 0.0108826924
v -0.00747426273 -0.00660324562 0.0132531067
v -0.0217185728 -0.00627552485 0.0104285907
v -0.0281619783 -0.00812797528 0.00639163936
v -0.0281468574 -0.00810663216 0.00372635829
v -0.0139238378 -0.00823288411 0.0142235756
v -0.0125076268 -0.0127531718 0.0150243565
v -0.0189365968 -0.0132178972 0.013846674
v -0.0202841833 -0.0094909668 0.0131745143
v -0.030149037 -0.0105905198 0.00576350186
v -0.0298711769 -0.0115712164 0.00838350318
v -0.0302433241 -0.01233212 0.00684511149
v -0.0297479592 -0.0127575351 0.00824717525
v -0.0294928346 -0.0142769618 0.00737263681
v -0.0299946014 -0.0106672766 0.0039127348
v -0.0302424952 -0.0131575009 0.00513053872
v -0.0290947892 -0.0155363604 0.00612167362
v -0.0288108699 -0.0164504945 0.00457612006
v -0.0300756115 -0.0139651345 0.00339559559
v -0.0289638732 -0.0170224421 0.00285763736
v -0.0297953691 -0.011204958 0.00215120311
v -0.030102184 -0.0147485062 0.00164221763
v -0.0299645625 -0.0154986568 -0.000100917816
v -0.0292397868 -0.0171493385 0.00106437679
v -0.0293895025 -0.0168202966 -0.000667390821
v -0.0294691976 -0.0161460824 -0.00165607454
v -0.0298929494 -0.0135341836 -0.000697126379
v 0.0155788492 -0.0116141122 0.00483163819
v 0.0222953651 -0.0140161151 0.00592569355
v 0.0152983861 -0.0123675726 0.00427774433
v 0.0224667788 -0.01330713 0.00645832065
v 0.0159133375 -0.0107823275 0.00513189286
v 0.0296509117 -0.0126512051 0.0059062764
v 0.0227614995 -0.0124769211 0.00677066809
v 0.0161768775 -0.010002723 0.00509029394
v 0.0297279973 -0.0122093773 0.00647789007
v 0.0354714543 -0.0109163756 0.00549709285
v 0.0230981577 -0.011649997 0.00676965714
v 0.016539216 -0.00929040927 0.00452167494
v 0.0297602434 -0.0116150016 0.00685684197
v 0.0354850553 -0.0105743911 0.00602085097
v 0.0395385511 -0.00887841638 0.00510107027
v 0.0236228406 -0.010799 0.00631502131
v 0.0167769082 -0.0092460867 0.00377119053
v 0.0296856873 -0.0110080522 0.00697082514
v 0.0395076834 -0.00860226341 0.00558114983
v 0.041349452 -0.0055941008 0.00524608605
v 0.0353914127 -0.0101456307 0.00640077563
v 0.0239616297 -0.0105944397 0.00568040833
v 0.0168167315 -0.00948454812 0.00302593224
v 0.041301541 -0.00534783816 0.00566173531
v 0.042450238 -0.00314562302 0.00496349344
v 0.0296332762 -0.0103419395 0.00667390786
v 0.039339494 -0.00828240346 0.00595247233
v 0.0351477526 -0.00972453784 0.00656053517
v 0.0241204947 -0.0106729027 0.00500850659
v 0.0167162288 -0.00993165933 0.00235103606
v 0.0424090363 -0.00290814391 0.00532697653
v 0.0440457873 -0.00231953128 0.00452764519
v 0.0297153685 -0.0101213381 0.00610139826
v 0.0348363593 -0.00924919825 0.00635354966
v 0.0390083082 -0.00799019355 0.00613294588
v 0.0411451571 -0.00505672907 0.00599115342
v 0.0241159927 -0.0109690549 0.00437267311
v 0.0166143365 -0.0105372239 0.00177814474
v 0.0440160222 -0.00209900364 0.00487499218
v 0.0461834036 -0.00213622092 0.00396011351
v 0.0297239032 -0.0101428125 0.00549018849
v 0.0347687565 -0.00911934394 0.00587230688
v 0.0385228656 -0.00767489662 0.0060090255
v 0.0422715954 -0.00262643816 0.00560518261
v 0.0408711433 -0.00479095941 0.00614477135
v 0.0461530723 -0.00191929808 0.0042831609
v 0.0516409874 -0.00240962021 0.00247896183
v 0.0516432188 -0.00226063258 0.00270536426
v 0.0439016372 -0.00180302619 0.00512744905
v 0.0460703261 -0.00163549895 0.0045130155
v 0.0516318455 -0.00205584988 0.00286493287
v 0.0420260467 -0.00234940997 0.00574121485
v 0.0404679514 -0.00449496275 0.006055946
v 0.0436920002 -0.00150097371 0.00523681613
v 0.0458999723 -0.00131739618 0.00460203178
v 0.0515846051 -0.00182759285 0.00291776657
v 0.041677516 -0.00205019955 0.00562953949
v 0.0382896699 -0.00758638373 0.00559156388
v 0.0434055217 -0.00116519444 0.0051091956
v 0.04567983 -0.000984315877 0.00444261543
v 0.0515399426 -0.00156062597 0.00280578597
v 0.0402593091 -0.00437341677 0.00566013344
v 0.0347112715 -0.0091797635 0.00534439087
v 0.041516643 -0.00192758557 0.00528997416
v 0.0432999693 -0.00108221045 0.00479135523
v 0.0456074886 -0.000912098854 0.00411230093
v 0.051553838 -0.00148205273 0.00258495333
v 0.0381996632 -0.00772241084 0.00510438904
v 0.0297108069 -0.0103595397 0.00489683123
v 0.0401705913 -0.00450150017 0.00520975096
v 0.0414174087 -0.00195107935 0.00490486156
v 0.0432227999 -0.00112139701 0.00442695618
v 0.0455601998 -0.000952262839 0.00376258837
v 0.0515559278 -0.00149619102 0.00234378804
v 0.0346819982 -0.009384281 0.00482028956
v 0.0240596626 -0.0114601227 0.00381179806
v 0.0163796749 -0.011259851 0.00140499114
v 0.0297678765 -0.0106844231 0.00434259418
v 0.0238435697 -0.0121021764 0.00340522756
v 0.0159855485 -0.0120348977 0.00130384439
v 0.0381795019 -0.00792847108 0.00463838549
v 0.034758728 -0.00964934845 0.00431207661
v 0.0234445352 -0.0129092261 0.00322528835
v 0.0156217096 -0.0127984853 0.0019451523
v 0.0297957361 -0.0111576058 0.00391990645
v 0.040179003 -0.00472398754 0.00477863289
v 0.0229218546 -0.013825261 0.00371532422
v 0.0154927969 -0.0130672455 0.00274023041
v 0.0382601246 -0.00813682098 0.00420324318
v 0.0297385473 -0.011757588 0.00369388564
v 0.0348590873 -0.0100146672 0.00390888192
v 0.0413812436 -0.00208706851 0.00451330189
v 0.0226343907 -0.0142696425 0.00442129141
v 0.0152900517 -0.0129399486 0.00356826768
v 0.0402651429 -0.00493355747 0.00440130243
v 0.0297867432 -0.0124110579 0.00400478346
v 0.0384115316 -0.00840601418 0.00383436191
v 0.0349589325 -0.0104798526 0.00367380143
v 0.0431986563 -0.00123864645 0.0040591429
v 0.0223953091 -0.0144193741 0.00523803709
v 0.0152983861 -0.0123675726 0.00427774433
v 0.0222953651 -0.0140161151 0.00592569355
v 0.0414614603 -0.0023137473 0.0041481019
v 0.0298262686 -0.0127166845 0.00454193121
v 0.0297472756 -0.0128136445 0.00522535294
v 0.0296509117 -0.0126512051 0.0059062764
v 0.0455411896 -0.00107674114 0.00341600413
v 0.0352457948 -0.0109393261 0.00389364245
v 0.0354786925 -0.0110962484 0.00489208195
v 0.0354714543 -0.0109163756 0.00549709285
v 0.0354398042 -0.0110794352 0.00432188017
v 0.0386207402 -0.00874724332 0.0035785865
v 0.0395215489 -0.00903364178 0.00457805628
v 0.0395385511 -0.00887841638 0.00510107027
v 0.0390635915 -0.00903276168 0.00372201903
v 0.0393676944 -0.00907629449 0.00407985691
v 0.0404054336 -0.00516590569 0.00410650251
v 0.0413465835 -0.00573852984 0.00480367662
v 0.041349452 -0.0055941008 0.00524608605
v 0.0412186123 -0.00573917385 0.00436454779
v 0.0409743674 -0.0056826924 0.00403732294
v 0.040600352 -0.00543718319 0.00392404525
v 0.0416037589 -0.00259545795 0.00385982497
v 0.042458389 -0.0032689285 0.00454690913
v 0.042450238 -0.00314562302 0.00496349344
v 0.042354878 -0.00327709666 0.00413898472
v 0.0421302207 -0.00319214328 0.00383785251
v 0.0417855345 -0.00290889735 0.0036907196
v 0.0432557762 -0.00141223904 0.00370468129
v 0.044052355 -0.00243666652 0.00413011527
v 0.0440457873 -0.00231953128 0.00452764519
v 0.0439707264 -0.00244779093 0.00374439242
v 0.0437866487 -0.00233154302 0.0034465217
v 0.043490041 -0.0019882773 0.00327558513
v 0.0433578342 -0.00166024687 0.00342714298
v 0.0455951951 -0.00125361443 0.0030847548
v 0.0461881831 -0.00226197229 0.00358205778
v 0.0461834036 -0.00213622092 0.00396011351
v 0.0461456515 -0.00226043211 0.00320369704
v 0.0516683199 -0.00249258988 0.00222146977
v 0.0516409874 -0.00240962021 0.00247896183
v 0.0516779013 -0.0024863577 0.00196233741
v 0.0516422987 -0.0023809718 0.00175092695
v 0.0459815338 -0.0021281098 0.00290390011
v 0.0515995771 -0.00211949809 0.00162212364
v 0.0457671434 -0.00179154391 0.00271184905
v 0.0515993349 -0.0018917179 0.00171201699
v 0.0456714705 -0.00149240019 0.00283151609
v 0.0515826195 -0.0017185068 0.00188693998
v 0.0515549406 -0.00158422464 0.00210767752
v 0.0518339947 -0.00184712885 0.00223325728
v 0.0518334508 -0.00179912557 0.00235174177
v 0.0518323742 -0.00179179187 0.00247426983
v 0.051553838 -0.00148205273 0.00258495333
v 0.0518479794 -0.00191520213 0.0021209335
v 0.0515993349 -0.0018917179 0.00171201699
v 0.0518762991 -0.00218280777 0.00253320695
v 0.051823996 -0.00182746409 0.00258455263
v 0.0515399426 -0.00156062597 0.00280578597
v 0.0518703535 -0.00207810407 0.00261405949
v 0.0518466979 -0.0019632054 0.00264146808
v 0.0515846051 -0.00182759285 0.00291776657
v 0.0516318455 -0.00205584988 0.00286493287
v 0.0516432188 -0.00226063258 0.00270536426
v 0.0518749952 -0.00225797645 0.0024178694
v 0.0516409874 -0.00240962021 0.00247896183
v 0.0518888161 -0.00229982845 0.00228687283
v 0.0516683199 -0.00249258988 0.00222146977
v 0.0518939644 -0.00229757791 0.00215555192
v 0.0516779013 -0.0024863577 0.00196233741
v 0.0518577136 -0.00200722693 0.00203388208
v 0.0515995771 -0.00211949809 0.00162212364
v 0.0518565327 -0.00211874954 0.00198619836
v 0.0516422987 -0.0023809718 0.00175092695
v 0.0518770106 -0.00224766252 0.0020497893
vt 0.788085938 0.377441406
vt 0.786132812 0.383056641
vt 0.788574219 0.385253906
vt 0.791992188 0.380371094
vt 0.80078125 0.359619141
vt 0.794921875 0.383789062
vt 0.791015625 0.388183594
vt 0.793945312 0.391601562
vt 0.804199219 0.364501953
vt 0.807128906 0.369628906
vt 0.797363281 0.387207031
vt 0.815917969 0.357910156
vt 0.813964844 0.351806641
vt 0.799316406 0.390625
vt 0.795898438 0.39453125
vt 0.817382812 0.363769531
vt 0.830566406 0.356689453
vt 0.830566406 0.350097656
vt 0.8515625 0.356689453
vt 0.801269531 0.394287109
vt 0.796875 0.397949219
vt 0.830566406 0.362304688
vt 0.850097656 0.362060547
vt 0.857910156 0.360107422
vt 0.848632812 0.366699219
vt 0.830566406 0.367431641
vt 0.856933594 0.364013672
vt 0.861328125 0.362060547
vt 0.855957031 0.367675781
vt 0.860351562 0.365966797
vt 0.869628906 0.367675781
vt 0.868652344 0.370361328
vt 0.873046875 0.369873047
vt 0.872558594 0.371582031
vt 0.859375 0.369628906
vt 0.868164062 0.373046875
vt 0.872558594 0.373535156
vt 0.847167969 0.370849609
vt 0.85546875 0.371582031
vt 0.858398438 0.373046875
vt 0.867675781 0.375244141
vt 0.872558594 0.375488281
vt 0.85546875 0.379150391
vt 0.858398438 0.378173828
vt 0.867675781 0.378417969
vt 0.873046875 0.378173828
vt 0.868164062 0.381347656
vt 0.874023438 0.380371094
vt 0.859375 0.382324219
vt 0.869140625 0.384277344
vt 0.874511719 0.382568359
vt 0.845214844 0.376220703
vt 0.85546875 0.385253906
vt 0.860839844 0.386230469
vt 0.870117188 0.387451172
vt 0.875488281 0.385009766
vt 0.852050781 0.384277344
vt 0.855957031 0.388427734
vt 0.862304688 0.390136719
vt 0.87109375 0.390625
vt 0.876464844 0.387207031
vt 0.8515625 0.387207031
vt 0.856933594 0.391601562
vt 0.86328125 0.394287109
vt 0.872070312 0.393310547
vt 0.876953125 0.389404297
vt 0.857910156 0.39453125
vt 0.864257812 0.398193359
vt 0.873535156 0.395996094
vt 0.877929688 0.391845703
vt 0.859375 0.397705078
vt 0.853027344 0.395263672
vt 0.8515625 0.392578125
vt 0.866210938 0.401855469
vt 0.875488281 0.398193359
vt 0.879394531 0.394287109
vt 0.862792969 0.403076172
vt 0.869628906 0.405761719
vt 0.877441406 0.399169922
vt 0.880371094 0.395507812
vt 0.851074219 0.389892578
vt 0.868164062 0.408691406
vt 0.872558594 0.407714844
vt 0.879882812 0.400390625
vt 0.881835938 0.396728516
vt 0.882324219 0.401367188
vt 0.883789062 0.397460938
vt 0.879882812 0.410644531
vt 0.875976562 0.409423828
vt 0.878417969 0.4140625
vt 0.875 0.412597656
vt 0.875976562 0.420166016
vt 0.871582031 0.410888672
vt 0.870605469 0.41796875
vt 0.862792969 0.437011719
vt 0.865722656 0.415771484
vt 0.858398438 0.432373047
vt 0.845703125 0.439208984
vt 0.848144531 0.4453125
vt 0.83203125 0.441650391
vt 0.83203125 0.447753906
vt 0.811035156 0.441650391
vt 0.812011719 0.437255859
vt 0.805664062 0.438476562
vt 0.806640625 0.435302734
vt 0.806640625 0.431396484
vt 0.830566406 0.436035156
vt 0.842773438 0.433837891
vt 0.854003906 0.427978516
vt 0.8125 0.432617188
vt 0.829101562 0.430908203
vt 0.812011719 0.428466797
vt 0.806640625 0.427001953
vt 0.806152344 0.423828125
vt 0.811523438 0.424560547
vt 0.8046875 0.420166016
vt 0.840332031 0.428955078
vt 0.861328125 0.413574219
vt 0.825683594 0.425048828
vt 0.850585938 0.423828125
vt 0.856445312 0.409667969
vt 0.836425781 0.422851562
vt 0.845703125 0.418212891
vt 0.822265625 0.419189453
vt 0.832519531 0.416503906
vt 0.841308594 0.412597656
vt 0.8515625 0.405517578
vt 0.810546875 0.420654297
vt 0.819824219 0.414550781
vt 0.809082031 0.416503906
vt 0.829589844 0.411621094
vt 0.857421875 0.399902344
vt 0.854980469 0.397460938
vt 0.849121094 0.401855469
vt 0.847167969 0.398193359
vt 0.838867188 0.407958984
vt 0.817382812 0.409667969
vt 0.845703125 0.394042969
vt 0.8359375 0.403076172
vt 0.827148438 0.40625
vt 0.844238281 0.389892578
vt 0.833984375 0.397705078
vt 0.824707031 0.400878906
vt 0.815429688 0.404052734
vt 0.808105469 0.411865234
vt 0.84375 0.385742188
vt 0.84375 0.381591797
vt 0.831054688 0.386474609
vt 0.83203125 0.392089844
vt 0.822753906 0.395019531
vt 0.813476562 0.3984375
vt 0.806152344 0.407226562
vt 0.830078125 0.381103516
vt 0.821777344 0.389160156
vt 0.803222656 0.412353516
vt 0.812011719 0.392822266
vt 0.8203125 0.383544922
vt 0.830078125 0.373779297
vt 0.811035156 0.387451172
vt 0.802734375 0.398193359
vt 0.8046875 0.402587891
vt 0.819335938 0.375976562
vt 0.818847656 0.369140625
vt 0.809082031 0.374755859
vt 0.810058594 0.381103516
vt 0.798828125 0.401611328
vt 0.794921875 0.398193359
vt 0.795410156 0.401855469
vt 0.793457031 0.400146484
vt 0.791992188 0.403808594
vt 0.800292969 0.405273438
vt 0.796386719 0.40625
vt 0.791992188 0.407958984
vt 0.792480469 0.411865234
vt 0.797363281 0.410400391
vt 0.794433594 0.415527344
vt 0.801757812 0.408691406
vt 0.799316406 0.414306641
vt 0.801269531 0.41796875
vt 0.797363281 0.418457031
vt 0.80078125 0.420654297
vt 0.803222656 0.421142578
vt 0.803710938 0.416259766
vt 0.676269531 0.382080078
vt 0.689453125 0.379638672
vt 0.67578125 0.380371094
vt 0.689941406 0.381347656
vt 0.676757812 0.383789062
vt 0.702636719 0.380859375
vt 0.690429688 0.383056641
vt 0.676757812 0.385253906
vt 0.702636719 0.382324219
vt 0.713378906 0.381835938
vt 0.690429688 0.384765625
vt 0.676269531 0.386962891
vt 0.702636719 0.384033203
vt 0.713378906 0.383300781
vt 0.72265625 0.382324219
vt 0.690917969 0.38671875
vt 0.676269531 0.388427734
vt 0.702636719 0.385498047
vt 0.723144531 0.383789062
vt 0.733398438 0.383789062
vt 0.713867188 0.384765625
vt 0.69140625 0.388183594
vt 0.676269531 0.389892578
vt 0.733886719 0.385009766
vt 0.743164062 0.384521484
vt 0.702636719 0.387207031
vt 0.723144531 0.385009766
vt 0.713378906 0.385986328
vt 0.69140625 0.389648438
vt 0.67578125 0.391113281
vt 0.743652344 0.385742188
vt 0.750488281 0.384521484
vt 0.702636719 0.388427734
vt 0.713378906 0.387695312
vt 0.723144531 0.386230469
vt 0.733886719 0.386230469
vt 0.690917969 0.391357422
vt 0.67578125 0.392578125
vt 0.750488281 0.385986328
vt 0.758789062 0.385009766
vt 0.702148438 0.389892578
vt 0.713378906 0.388916016
vt 0.723144531 0.387939453
vt 0.743652344 0.386962891
vt 0.734375 0.387207031
vt 0.758300781 0.386230469
vt 0.778320312 0.387207031
vt 0.778320312 0.388183594
vt 0.75 0.386962891
vt 0.7578125 0.387451172
vt 0.777832031 0.388916016
vt 0.743652344 0.387939453
vt 0.734863281 0.388671875
vt 0.75 0.387939453
vt 0.757324219 0.388427734
vt 0.777832031 0.389648438
vt 0.743652344 0.389160156
vt 0.723144531 0.389404297
vt 0.749511719 0.389404297
vt 0.756835938 0.389648438
vt 0.77734375 0.390869141
vt 0.734863281 0.389892578
vt 0.712890625 0.390380859
vt 0.743652344 0.390136719
vt 0.749511719 0.390380859
vt 0.756835938 0.390625
vt 0.777832031 0.391601562
vt 0.72265625 0.390869141
vt 0.702148438 0.391357422
vt 0.734375 0.391113281
vt 0.743652344 0.391357422
vt 0.749511719 0.391601562
vt 0.756835938 0.391845703
vt 0.777832031 0.392333984
vt 0.712890625 0.391601562
vt 0.690917969 0.392822266
vt 0.675292969 0.394042969
vt 0.702148438 0.392822266
vt 0.690429688 0.39453125
vt 0.674804688 0.395507812
vt 0.722167969 0.392089844
vt 0.712402344 0.393066406
vt 0.689453125 0.396240234
vt 0.674804688 0.397460938
vt 0.701660156 0.394287109
vt 0.733886719 0.392333984
vt 0.688964844 0.398193359
vt 0.674804688 0.398925781
vt 0.721679688 0.393554688
vt 0.701660156 0.395751953
vt 0.712402344 0.39453125
vt 0.743652344 0.392578125
vt 0.688476562 0.399658203
vt 0.674804688 0.400634766
vt 0.733886719 0.393554688
vt 0.701660156 0.397460938
vt 0.721679688 0.394775391
vt 0.711914062 0.395751953
vt 0.749511719 0.392578125
vt 0.688476562 0.401367188
vt 0.674804688 0.40234375
vt 0.688476562 0.403076172
vt 0.743652344 0.393554688
vt 0.701660156 0.398925781
vt 0.701660156 0.400390625
vt 0.701660156 0.401855469
vt 0.756835938 0.393066406
vt 0.712402344 0.397460938
vt 0.712402344 0.400146484
vt 0.712402344 0.401855469
vt 0.712402344 0.398925781
vt 0.721191406 0.395996094
vt 0.721679688 0.400146484
vt 0.722167969 0.401611328
vt 0.721191406 0.397705078
vt 0.721679688 0.398925781
vt 0.733398438 0.39453125
vt 0.732421875 0.399658203
vt 0.732910156 0.400878906
vt 0.732421875 0.398193359
vt 0.732421875 0.396972656
vt 0.732910156 0.395507812
vt 0.743164062 0.394775391
vt 0.742675781 0.399414062
vt 0.743164062 0.400634766
vt 0.742675781 0.397949219
vt 0.742675781 0.396972656
vt 0.743164062 0.395751953
vt 0.749511719 0.393798828
vt 0.75 0.399658203
vt 0.75 0.400878906
vt 0.75 0.3984375
vt 0.75 0.397460938
vt 0.75 0.395996094
vt 0.75 0.395019531
vt 0.757324219 0.394042969
vt 0.758300781 0.399902344
vt 0.7578125 0.401123047
vt 0.758300781 0.398681641
vt 0.778320312 0.3984375
vt 0.778320312 0.399414062
vt 0.778320312 0.397705078
vt 0.778808594 0.396728516
vt 0.758300781 0.397460938
vt 0.778320312 0.395751953
vt 0.7578125 0.396240234
vt 0.778320312 0.395019531
vt 0.7578125 0.395263672
vt 0.778320312 0.394042969
vt 0.777832031 0.393310547
vt 0.779296875 0.393066406
vt 0.779296875 0.392578125
vt 0.779296875 0.392089844
vt 0.778320312 0.391357422
vt 0.779296875 0.393310547
vt 0.778808594 0.394775391
vt 0.780761719 0.392333984
vt 0.779296875 0.391845703
vt 0.778808594 0.390625
vt 0.780273438 0.391845703
vt 0.779785156 0.391845703
vt 0.779785156 0.390380859
vt 0.780273438 0.390869141
vt 0.78125 0.391601562
vt 0.780761719 0.392578125
vt 0.781738281 0.392333984
vt 0.780761719 0.393066406
vt 0.781738281 0.393554688
vt 0.780761719 0.393554688
vt 0.78125 0.39453125
vt 0.779785156 0.393798828
vt 0.779785156 0.395263672
vt 0.780273438 0.394042969
vt 0.780761719 0.395019531
vt 0.780761719 0.393798828
vn -0.330634624 -0.843204141 0.423895746
vn -0.74750036 -0.612241447 0.257688969
vn -0.753945589 -0.58271414 0.303331941
vn -0.354352951 -0.734525979 0.578710139
vn -0.179504186 -0.87231034 0.454810798
vn -0.396144181 -0.538513422 0.743688941
vn -0.767555416 -0.48546654 0.41854614
vn -0.781901598 -0.277148098 0.558407366
vn -0.202287957 -0.750957489 0.628603578
vn -0.240297347 -0.538062096 0.80792731
vn -0.446566522 -0.163549751 0.879675984
vn 0.120149054 -0.722013474 0.681366861
vn 0.147050545 -0.860358953 0.488015085
vn -0.487036288 0.329679996 0.80876869
vn -0.845670581 0.141486481 0.514609456
vn 0.0662032291 -0.482505709 0.873387277
vn 0.375770926 -0.603352785 0.703392923
vn 0.397858977 -0.766365051 0.504373789
vn 0.440232068 -0.721607864 0.534301162
vn -0.548552513 0.672461867 0.496875435
vn -0.873001516 0.435450941 0.219660923
vn 0.326121897 -0.339052111 0.882433057
vn 0.437524289 -0.524093091 0.730683923
vn 0.331571758 -0.726117134 0.602340639
vn 0.431392252 -0.210685626 0.877218485
vn 0.196471021 0.131094649 0.97170651
vn 0.359416425 -0.500942767 0.787322164
vn 0.239865974 -0.719500721 0.651753664
vn 0.412525028 -0.128695443 0.901809633
vn 0.25116691 -0.485438198 0.837415695
vn 0.228478476 -0.698649168 0.678002179
vn 0.249965385 -0.472423524 0.845182419
vn -0.221075326 -0.647141457 0.729611993
vn -0.221076861 -0.377653211 0.899168015
vn 0.245170504 -0.103210077 0.963970482
vn 0.297815055 -0.131470859 0.945527256
vn -0.170596123 -0.0677014515 0.983012497
vn 0.378950238 0.317689449 0.869177818
vn 0.459808767 0.48542732 0.743596911
vn 0.194267333 0.511490583 0.837040961
vn 0.3614586 0.436442375 0.823933125
vn -0.0238222387 0.421668828 0.90643692
vn 0.476155221 0.742652476 0.470896512
vn 0.226079136 0.824692607 0.51843071
vn 0.403425843 0.797765374 0.44812721
vn 0.143931568 0.838402092 0.525704801
vn 0.449299932 0.892339349 -0.0431295559
vn 0.268884599 0.960130155 -0.0764926597
vn 0.396499246 0.915306449 0.0707278773
vn 0.486952603 0.793115795 -0.365847647
vn 0.323287427 0.842273772 -0.431346893
vn 0.26605022 0.639340937 0.721429527
vn 0.495406508 0.866553783 0.0604728237
vn 0.520256996 0.800553441 -0.297400236
vn 0.507935524 0.626257181 -0.59144187
vn 0.353587717 0.677601516 -0.644850194
vn 0.510922849 0.811059535 0.284851223
vn 0.537479818 0.792407274 -0.288454682
vn 0.547473669 0.626808524 -0.554421961
vn 0.503449857 0.405811846 -0.762794197
vn 0.374193072 0.466513008 -0.801464379
vn 0.43885228 0.898559213 0.000244750496
vn 0.54561317 0.671232998 -0.501749456
vn 0.52986753 0.392780542 -0.751640797
vn 0.47753346 0.0967673138 -0.873268545
vn 0.385690182 0.130791456 -0.913310766
vn 0.551595569 0.486900419 -0.677251935
vn 0.402063817 0.0510853417 -0.914185405
vn 0.423006862 -0.383799881 -0.820830584
vn 0.345143765 -0.426953763 -0.835814655
vn 0.510646701 0.143364593 -0.847753823
vn 0.435050964 0.605362296 -0.666533768
vn 0.39711225 0.780029356 -0.483586639
vn 0.219588697 -0.402307689 -0.888779759
vn 0.365035027 -0.785812438 -0.4992477
vn 0.210072815 -0.810098708 -0.547365963
vn 0.559941888 -0.250356138 -0.789801776
vn 0.181437865 -0.76884526 -0.613153398
vn 0.28346315 -0.958934009 0.00970526598
vn 0.00776521815 -0.992034137 -0.125729114
vn 0.402836651 0.878777862 -0.255874932
vn 0.516565502 -0.634786308 -0.574635863
vn 0.221625417 -0.974055767 -0.0457997024
vn 0.231411517 -0.885825574 0.402196229
vn -0.146398604 -0.92244947 0.357287765
vn 0.228478476 -0.698649168 0.678002179
vn -0.221075326 -0.647141457 0.729611993
vn 0.239865974 -0.719500721 0.651753664
vn 0.228649601 -0.901368141 0.367770135
vn 0.331571758 -0.726117134 0.602340639
vn 0.342074275 -0.874489248 0.343880594
vn 0.440232068 -0.721607864 0.534301162
vn 0.403022051 -0.914492905 -0.035717804
vn 0.462092996 -0.841002166 0.281399012
vn 0.397858977 -0.766365051 0.504373789
vn 0.503941417 -0.86120981 -0.0660369545
vn 0.416008681 -0.869314909 0.266886443
vn 0.162880927 -0.950776279 0.263617456
vn 0.147050545 -0.860358953 0.488015085
vn -0.165850654 -0.952103734 0.256888956
vn -0.179504186 -0.87231034 0.454810798
vn -0.330634624 -0.843204141 0.423895746
vn -0.321226656 -0.914229691 0.246976808
vn -0.74750036 -0.612241447 0.257688969
vn -0.744401515 -0.634524643 0.207953855
vn -0.732345641 -0.677956522 0.0635986626
vn -0.158631817 -0.987022221 -0.0249615554
vn 0.164892361 -0.985012531 -0.050605841
vn 0.424433678 -0.903602779 -0.0579497106
vn -0.320241541 -0.947248876 -0.0128345164
vn -0.152982309 -0.871709406 -0.465530843
vn -0.315869033 -0.854959846 -0.411424696
vn -0.708028555 -0.681009173 -0.186874703
vn -0.743241489 -0.419877082 -0.520860076
vn -0.329924256 -0.535510004 -0.777418077
vn -0.79191637 -0.0169512741 -0.610394239
vn 0.129657567 -0.836504102 -0.532400012
vn 0.525375128 -0.652614892 -0.545962274
vn -0.179909781 -0.542234838 -0.820739865
vn 0.369574219 -0.758014262 -0.537428379
vn 0.431141049 -0.365547419 -0.824919641
vn 0.0419837125 -0.498285443 -0.865995944
vn 0.241805002 -0.449042708 -0.860169053
vn -0.272532135 -0.127464652 -0.953666091
vn -0.0814069435 -0.112388045 -0.99032414
vn 0.0964751467 -0.0923386738 -0.991042972
vn 0.289588809 -0.0540118627 -0.955625951
vn -0.420214415 -0.0910082534 -0.902849555
vn -0.395172209 0.286171556 -0.872894406
vn -0.532186568 0.284274131 -0.797474563
vn -0.230422646 0.317173511 -0.919949055
vn 0.585627556 0.0173536334 -0.810394585
vn 0.495224178 0.356929034 -0.792057276
vn 0.12624535 0.34664762 -0.929460824
vn 0.0110672042 0.643085659 -0.765714169
vn -0.065480113 0.332011491 -0.940999866
vn -0.472774804 0.551554143 -0.687220573
vn -0.0528672636 0.864289701 -0.500208318
vn -0.171838939 0.629631042 -0.757651746
vn -0.322784901 0.601723015 -0.730574667
vn -0.0516543947 0.983714521 -0.172155961
vn -0.231892809 0.845997214 -0.480119139
vn -0.374002814 0.804053843 -0.462189585
vn -0.514828682 0.735200047 -0.440944791
vn -0.60166961 0.507207155 -0.617036939
vn 0.00662727095 0.985505164 0.169515625
vn 0.133664593 0.84398967 0.519437492
vn -0.188070461 0.955715239 0.226357877
vn -0.237142667 0.961277485 -0.140388399
vn -0.378480285 0.915234685 -0.13819623
vn -0.51995945 0.841314077 -0.147759274
vn -0.637660623 0.651216388 -0.411468387
vn -0.0766080394 0.791269302 0.606649935
vn -0.335898608 0.91497618 0.223586008
vn -0.906813204 0.265672386 -0.327273548
vn -0.486031026 0.852511048 0.192350417
vn -0.241916895 0.750608385 0.614868462
vn 0.0470261462 0.531979382 0.845450401
vn -0.413200259 0.701809764 0.580283165
vn -0.61254859 0.781180978 0.120584212
vn -0.640706539 0.747297823 -0.176184446
vn -0.142982885 0.450288981 0.881360173
vn -0.0340362079 -0.0186717883 0.99924612
vn -0.293108225 -0.121729881 0.948298216
vn -0.346294224 0.368633509 0.862664282
vn -0.910990596 0.411570102 -0.0265760478
vn -0.845670581 0.141486481 0.514609456
vn -0.984631896 -0.159384221 0.071390219
vn -0.781901598 -0.277148098 0.558407366
vn -0.767555416 -0.48546654 0.41854614
vn -0.920677125 0.344670087 -0.183183134
vn -0.977065206 -0.212414876 -0.0149484621
vn -0.753945589 -0.58271414 0.303331941
vn -0.74750036 -0.612241447 0.257688969
vn -0.979039848 -0.20323512 0.0132845864
vn -0.744401515 -0.634524643 0.207953855
vn -0.918194175 0.303525686 -0.254541785
vn -0.982032955 -0.185136214 0.0365475938
vn -0.971954882 -0.228734359 -0.054630395
vn -0.732345641 -0.677956522 0.0635986626
vn -0.708028555 -0.681009173 -0.186874703
vn -0.743241489 -0.419877082 -0.520860076
vn -0.868573546 0.172113076 -0.464711815
vn -0.221076861 -0.377653211 0.899168015
vn -0.11730472 -0.705399692 0.699035704
vn -0.221075326 -0.647141457 0.729611993
vn -0.142562553 -0.431781828 0.890640378
vn -0.170596123 -0.0677014515 0.983012497
vn 0.21171549 -0.788942814 0.576841235
vn -0.154393122 -0.121302217 0.980534852
vn -0.0238222387 0.421668828 0.90643692
vn 0.148687914 -0.572278619 0.806466937
vn 0.362195104 -0.806348443 0.467565
vn -0.141704172 0.349868029 0.926019609
vn 0.143931568 0.838402092 0.525704801
vn 0.0686949715 -0.273247272 0.959487796
vn 0.31477809 -0.638641536 0.702176392
vn 0.63838017 -0.661468685 0.393611461
vn -0.0750356317 0.792649627 0.605042219
vn 0.268884599 0.960130155 -0.0764926597
vn -0.0522399321 0.231559321 0.971417189
vn 0.574817181 -0.539000392 0.615681529
vn 0.87058562 -0.387369245 0.303357422
vn 0.221546829 -0.37356177 0.900759935
vn 0.0236952417 0.999713719 0.00332591217
vn 0.323287427 0.842273772 -0.431346893
vn 0.77290982 -0.314326733 0.551188886
vn 0.78694737 -0.490766793 0.373980969
vn -0.144956365 0.743486285 0.652851939
vn 0.41214335 -0.335672259 0.847031236
vn 0.0273597706 0.134964168 0.990472674
vn 0.084592998 0.929255843 -0.359621495
vn 0.353587717 0.677601516 -0.644850194
vn 0.689167082 -0.36401543 0.626531303
vn 0.361360967 -0.793709219 0.489330113
vn -0.17527841 0.98328501 0.0492751561
vn -0.187510446 0.708449483 0.680396378
vn 0.0645763353 0.0282654017 0.99751246
vn 0.528607607 -0.161914513 0.833281219
vn 0.134518996 0.779250503 -0.612105608
vn 0.374193072 0.466513008 -0.801464379
vn 0.360038847 -0.585887969 0.726021588
vn 0.129091576 -0.850432038 0.510000646
vn -0.153615773 0.944108844 -0.291651875
vn -0.308497339 0.950278282 0.0424345136
vn -0.367221594 0.490902871 0.790039659
vn 0.482485294 -0.128194585 0.866472125
vn 0.0511692502 0.0902656242 0.994602382
vn 0.183583543 -0.644541681 0.742201447
vn 0.0983812287 -0.870681047 0.481908351
vn 0.158903539 -0.683380306 0.712559462
vn 0.323109478 -0.241566598 0.915011346
vn 0.235045552 -0.270956755 0.933453858
vn 0.224752769 -0.351746649 0.908713639
vn 0.08255364 0.238904804 0.967527449
vn -0.487669319 0.346301496 0.801407516
vn 0.179072976 0.326538831 0.9280653
vn 0.236731067 0.358017325 0.903206468
vn 0.26721403 0.266533226 0.92604363
vn -0.412465215 0.549811363 0.72634697
vn -0.662457347 0.739151001 0.121679664
vn -0.0704713017 0.795321047 0.602078259
vn 0.136986032 0.839417279 0.525940597
vn 0.206102654 0.819479942 0.534765661
vn -0.848100364 0.468226701 0.247970968
vn -0.299836069 0.90865308 -0.290599138
vn -0.711741209 0.671357453 0.206648797
vn -0.250201017 0.966400445 0.0589040779
vn 0.0188746285 0.999816358 0.00331403385
vn 0.0943943337 0.995363116 -0.0184917692
vn -0.646522164 0.714839935 -0.266482532
vn -0.123072781 0.84227562 -0.524809301
vn -0.885863125 0.446037143 -0.127661705
vn -0.772969782 0.621567488 -0.127167553
vn -0.31204468 0.920007288 -0.237096399
vn -0.0450155959 0.958247185 -0.282375485
vn 0.0315890647 0.951042116 -0.307442665
vn -0.270043701 0.831226408 -0.48594144
vn 0.161527693 0.576857805 -0.800714672
vn 0.385690182 0.130791456 -0.913310766
vn -0.0932401121 0.691472054 -0.716360748
vn 0.194947407 0.255554765 -0.946935713
vn 0.345143765 -0.426953763 -0.835814655
vn -0.583162367 0.66856885 -0.461451352
vn -0.240903541 0.71208328 -0.659471691
vn 0.219852164 -0.349774271 -0.910671711
vn 0.210072815 -0.810098708 -0.547365963
vn -0.0361775905 0.426400065 -0.903810918
vn -0.839880168 0.403031796 -0.363547444
vn 0.161253974 -0.783968568 -0.599491835
vn 0.00776521815 -0.992034137 -0.125729114
vn -0.512081087 0.580192626 -0.633363605
vn 0.112175882 -0.189113155 -0.975526929
vn -0.17310749 0.486553013 -0.856329381
vn -0.76233089 0.524485707 -0.379165322
vn 0.0828343183 -0.978812277 -0.187256545
vn -0.146398604 -0.92244947 0.357287765
vn -0.750359178 0.347100735 -0.562567472
vn 0.225496471 -0.720308244 -0.655978262
vn -0.367506623 0.417224616 -0.831181407
vn 0.0374517068 -0.110273249 -0.993195415
vn -0.341533214 0.821181417 -0.457182825
vn -0.0191277321 -0.957847595 0.286639124
vn -0.221075326 -0.647141457 0.729611993
vn -0.11730472 -0.705399692 0.699035704
vn -0.687247515 0.411169767 -0.598857403
vn 0.274364322 -0.940423012 -0.200820222
vn 0.269768804 -0.941587508 0.201587886
vn 0.21171549 -0.788942814 0.576841235
vn -0.0850168392 0.877601385 -0.47179231
vn 0.259786308 -0.695495844 -0.669922709
vn 0.386468738 -0.904014885 0.182753876
vn 0.362195104 -0.806348443 0.467565
vn 0.376104146 -0.912504792 -0.16087459
vn 0.0431916639 -0.058022622 -0.997380435
vn 0.689476907 -0.715699434 0.111336678
vn 0.63838017 -0.661468685 0.393611461
vn 0.44517374 -0.51560843 -0.73209852
vn 0.669498861 -0.698181391 -0.253602087
vn -0.576030016 0.257211536 -0.77590698
vn 0.905315578 -0.423976839 0.0254435111
vn 0.87058562 -0.387369245 0.303357422
vn 0.84151274 -0.410797954 -0.350858033
vn 0.534037411 -0.275448203 -0.79933244
vn -0.0308716632 -0.00193747331 -0.999521494
vn -0.555353403 0.255044937 -0.79153949
vn 0.80223614 -0.591055572 0.0840862989
vn 0.78694737 -0.490766793 0.373980969
vn 0.71013397 -0.62647748 -0.321303159
vn 0.372174561 -0.461289525 -0.805417895
vn -0.170245171 -0.096255444 -0.980689228
vn -0.3428213 0.673189759 -0.655201614
vn 0.316527009 -0.925684214 0.207170039
vn 0.361360967 -0.793709219 0.489330113
vn 0.234780297 -0.958611369 -0.161066711
vn 0.0655677095 -0.739341378 -0.67013067
vn -0.159509644 -0.170124635 -0.97242707
vn -0.315922678 0.415901601 -0.852771223
vn -0.111707486 0.754312456 -0.646942139
vn 0.0678545535 -0.970117509 0.232954308
vn 0.129091576 -0.850432038 0.510000646
vn -0.00671389233 -0.991631806 -0.128924057
vn 0.0398970582 -0.980287015 0.193509027
vn 0.0983812287 -0.870681047 0.481908351
vn -0.0160773266 -0.988771975 -0.148565009
vn -0.0792532936 -0.7898826 -0.608115435
vn -0.092187576 -0.771867275 -0.629064679
vn -0.115523517 -0.255276889 -0.959941685
vn -0.153187722 -0.179861963 -0.971690953
vn -0.0749683231 0.457230836 -0.886182606
vn -0.145785943 0.486490965 -0.861436665
vn -0.0358718187 0.739305913 -0.672413588
vn -0.00681161601 0.86948204 -0.493917495
vn 0.867221534 0.468200505 -0.169455111
vn 0.856133282 0.502820194 -0.119195968
vn 0.831680715 0.551472783 0.0646901131
vn 0.0943943337 0.995363116 -0.0184917692
vn 0.869503915 0.443605572 -0.217202768
vn -0.0749683231 0.457230836 -0.886182606
vn 0.880867243 -0.28368929 0.378937066
vn 0.773800552 0.499850094 0.389079183
vn 0.206102654 0.819479942 0.534765661
vn 0.849033058 -0.103689209 0.518065214
vn 0.778679609 0.250470638 0.575258732
vn 0.26721403 0.266533226 0.92604363
vn 0.224752769 -0.351746649 0.908713639
vn 0.158903539 -0.683380306 0.712559462
vn 0.890239 -0.344826788 0.297605395
vn 0.0983812287 -0.870681047 0.481908351
vn 0.90113014 -0.38412714 0.20102419
vn 0.0398970582 -0.980287015 0.193509027
vn 0.909427941 -0.414486766 -0.0337871462
vn -0.0160773266 -0.988771975 -0.148565009
vn 0.876185536 0.321780741 -0.35882619
vn -0.115523517 -0.255276889 -0.959941685
vn 0.8657974 0.0235262811 -0.499841303
vn -0.0792532936 -0.7898826 -0.608115435
vn 0.880782247 -0.27327767 -0.386706501
g BrainJar_Brain_Prototipe_0
f 3/3/3 2/2/2 1/1/1
f 4/4/4 3/3/3 1/1/1
f 4/4/4 1/1/1 5/5/5
f 4/4/4 6/6/6 3/3/3
f 6/6/6 7/7/7 3/3/3
f 8/8/8 7/7/7 6/6/6
f 9/9/9 4/4/4 5/5/5
f 10/10/10 6/6/6 4/4/4
f 9/9/9 10/10/10 4/4/4
f 11/11/11 8/8/8 6/6/6
f 11/11/11 6/6/6 10/10/10
f 12/12/12 9/9/9 5/5/5
f 13/13/13 12/12/12 5/5/5
f 11/11/11 14/14/14 8/8/8
f 14/14/14 15/15/15 8/8/8
f 16/16/16 10/10/10 9/9/9
f 12/12/12 16/16/16 9/9/9
f 17/17/17 12/12/12 13/13/13
f 18/18/18 17/17/17 13/13/13
f 17/17/17 18/18/18 19/19/19
f 14/14/14 20/20/20 15/15/15
f 20/20/20 21/21/21 15/15/15
f 22/22/22 16/16/16 12/12/12
f 17/17/17 22/22/22 12/12/12
f 23/23/23 17/17/17 19/19/19
f 19/19/19 24/24/24 23/23/23
f 25/25/25 22/22/22 17/17/17
f 23/23/23 25/25/25 17/17/17
f 16/16/16 22/22/22 26/26/26
f 26/26/26 22/22/22 25/25/25
f 24/24/24 27/27/27 23/23/23
f 24/24/24 28/28/28 27/27/27
f 29/29/29 25/25/25 23/23/23
f 27/27/27 29/29/29 23/23/23
f 28/28/28 30/30/30 27/27/27
f 27/27/27 30/30/30 29/29/29
f 28/28/28 31/31/31 30/30/30
f 31/31/31 32/32/32 30/30/30
f 31/31/31 33/33/33 32/32/32
f 33/33/33 34/34/34 32/32/32
f 30/30/30 32/32/32 35/35/35
f 30/30/30 35/35/35 29/29/29
f 32/32/32 34/34/34 36/36/36
f 32/32/32 36/36/36 35/35/35
f 34/34/34 37/37/37 36/36/36
f 38/38/38 25/25/25 29/29/29
f 38/38/38 26/26/26 25/25/25
f 29/29/29 35/35/35 39/39/39
f 39/39/39 38/38/38 29/29/29
f 35/35/35 36/36/36 40/40/40
f 35/35/35 40/40/40 39/39/39
f 36/36/36 37/37/37 41/41/41
f 36/36/36 41/41/41 40/40/40
f 37/37/37 42/42/42 41/41/41
f 38/38/38 39/39/39 43/43/43
f 39/39/39 40/40/40 43/43/43
f 40/40/40 41/41/41 44/44/44
f 40/40/40 44/44/44 43/43/43
f 41/41/41 42/42/42 45/45/45
f 41/41/41 45/45/45 44/44/44
f 42/42/42 46/46/46 45/45/45
f 45/45/45 46/46/46 47/47/47
f 46/46/46 48/48/48 47/47/47
f 44/44/44 45/45/45 49/49/49
f 45/45/45 47/47/47 49/49/49
f 47/47/47 48/48/48 50/50/50
f 48/48/48 51/51/51 50/50/50
f 52/52/52 38/38/38 43/43/43
f 26/26/26 38/38/38 52/52/52
f 43/43/43 44/44/44 53/53/53
f 44/44/44 49/49/49 53/53/53
f 49/49/49 47/47/47 54/54/54
f 47/47/47 50/50/50 54/54/54
f 50/50/50 51/51/51 55/55/55
f 51/51/51 56/56/56 55/55/55
f 52/52/52 43/43/43 57/57/57
f 57/57/57 43/43/43 53/53/53
f 53/53/53 49/49/49 58/58/58
f 49/49/49 54/54/54 58/58/58
f 54/54/54 50/50/50 59/59/59
f 50/50/50 55/55/55 59/59/59
f 55/55/55 56/56/56 60/60/60
f 56/56/56 61/61/61 60/60/60
f 62/62/62 57/57/57 53/53/53
f 62/62/62 53/53/53 58/58/58
f 54/54/54 59/59/59 63/63/63
f 58/58/58 54/54/54 63/63/63
f 59/59/59 55/55/55 64/64/64
f 55/55/55 60/60/60 64/64/64
f 60/60/60 61/61/61 65/65/65
f 61/61/61 66/66/66 65/65/65
f 63/63/63 59/59/59 67/67/67
f 59/59/59 64/64/64 67/67/67
f 64/64/64 60/60/60 68/68/68
f 60/60/60 65/65/65 68/68/68
f 65/65/65 66/66/66 69/69/69
f 66/66/66 70/70/70 69/69/69
f 67/67/67 64/64/64 71/71/71
f 64/64/64 68/68/68 71/71/71
f 63/63/63 67/67/67 72/72/72
f 72/72/72 67/67/67 71/71/71
f 58/58/58 63/63/63 73/73/73
f 73/73/73 63/63/63 72/72/72
f 68/68/68 65/65/65 74/74/74
f 65/65/65 69/69/69 74/74/74
f 69/69/69 70/70/70 75/75/75
f 70/70/70 76/76/76 75/75/75
f 71/71/71 68/68/68 77/77/77
f 68/68/68 74/74/74 77/77/77
f 74/74/74 69/69/69 78/78/78
f 69/69/69 75/75/75 78/78/78
f 75/75/75 76/76/76 79/79/79
f 76/76/76 80/80/80 79/79/79
f 81/81/81 58/58/58 73/73/73
f 81/81/81 62/62/62 58/58/58
f 77/77/77 74/74/74 82/82/82
f 74/74/74 78/78/78 82/82/82
f 78/78/78 75/75/75 83/83/83
f 75/75/75 79/79/79 83/83/83
f 79/79/79 80/80/80 84/84/84
f 80/80/80 85/85/85 84/84/84
f 84/84/84 85/85/85 86/86/86
f 85/85/85 87/87/87 86/86/86
f 84/84/84 86/86/86 88/88/88
f 79/79/79 84/84/84 89/89/89
f 89/89/89 84/84/84 88/88/88
f 83/83/83 79/79/79 89/89/89
f 89/89/89 88/88/88 90/90/90
f 91/91/91 89/89/89 90/90/90
f 83/83/83 89/89/89 91/91/91
f 91/91/91 90/90/90 92/92/92
f 78/78/78 83/83/83 93/93/93
f 93/93/93 83/83/83 91/91/91
f 82/82/82 78/78/78 93/93/93
f 94/94/94 91/91/91 92/92/92
f 92/92/92 95/95/95 94/94/94
f 93/93/93 91/91/91 96/96/96
f 91/91/91 94/94/94 96/96/96
f 93/93/93 96/96/96 82/82/82
f 95/95/95 97/97/97 94/94/94
f 94/94/94 97/97/97 96/96/96
f 97/97/97 95/95/95 98/98/98
f 95/95/95 99/99/99 98/98/98
f 98/98/98 99/99/99 100/100/100
f 99/99/99 101/101/101 100/100/100
f 101/101/101 102/102/102 100/100/100
f 102/102/102 103/103/103 100/100/100
f 102/102/102 104/104/104 103/103/103
f 104/104/104 105/105/105 103/103/103
f 103/103/103 105/105/105 106/106/106
f 100/100/100 107/107/107 98/98/98
f 100/100/100 103/103/103 107/107/107
f 98/98/98 108/108/108 97/97/97
f 107/107/107 108/108/108 98/98/98
f 97/97/97 109/109/109 96/96/96
f 108/108/108 109/109/109 97/97/97
f 110/110/110 103/103/103 106/106/106
f 103/103/103 110/110/110 107/107/107
f 108/108/108 107/107/107 111/111/111
f 107/107/107 110/110/110 111/111/111
f 112/112/112 110/110/110 106/106/106
f 110/110/110 112/112/112 111/111/111
f 113/113/113 112/112/112 106/106/106
f 113/113/113 114/114/114 112/112/112
f 114/114/114 115/115/115 112/112/112
f 111/111/111 112/112/112 115/115/115
f 115/115/115 114/114/114 116/116/116
f 117/117/117 108/108/108 111/111/111
f 109/109/109 108/108/108 117/117/117
f 96/96/96 109/109/109 118/118/118
f 96/96/96 118/118/118 82/82/82
f 119/119/119 111/111/111 115/115/115
f 111/111/111 119/119/119 117/117/117
f 120/120/120 109/109/109 117/117/117
f 109/109/109 120/120/120 118/118/118
f 118/118/118 121/121/121 82/82/82
f 121/121/121 77/77/77 82/82/82
f 119/119/119 122/122/122 117/117/117
f 117/117/117 122/122/122 120/120/120
f 120/120/120 123/123/123 118/118/118
f 123/123/123 121/121/121 118/118/118
f 122/122/122 123/123/123 120/120/120
f 119/119/119 115/115/115 124/124/124
f 122/122/122 119/119/119 124/124/124
f 123/123/123 122/122/122 125/125/125
f 125/125/125 122/122/122 124/124/124
f 123/123/123 126/126/126 121/121/121
f 126/126/126 123/123/123 125/125/125
f 77/77/77 121/121/121 127/127/127
f 126/126/126 127/127/127 121/121/121
f 115/115/115 128/128/128 124/124/124
f 128/128/128 115/115/115 116/116/116
f 124/124/124 129/129/129 125/125/125
f 124/124/124 128/128/128 129/129/129
f 130/130/130 128/128/128 116/116/116
f 128/128/128 130/130/130 129/129/129
f 129/129/129 131/131/131 125/125/125
f 125/125/125 131/131/131 126/126/126
f 132/132/132 77/77/77 127/127/127
f 71/71/71 77/77/77 132/132/132
f 133/133/133 71/71/71 132/132/132
f 132/132/132 127/127/127 133/133/133
f 133/133/133 72/72/72 71/71/71
f 127/127/127 126/126/126 134/134/134
f 127/127/127 134/134/134 133/133/133
f 135/135/135 72/72/72 133/133/133
f 134/134/134 135/135/135 133/133/133
f 72/72/72 135/135/135 73/73/73
f 126/126/126 136/136/136 134/134/134
f 131/131/131 136/136/136 126/126/126
f 135/135/135 134/134/134 136/136/136
f 131/131/131 129/129/129 137/137/137
f 137/137/137 129/129/129 130/130/130
f 135/135/135 138/138/138 73/73/73
f 73/73/73 138/138/138 81/81/81
f 139/139/139 135/135/135 136/136/136
f 135/135/135 139/139/139 138/138/138
f 136/136/136 131/131/131 140/140/140
f 140/140/140 131/131/131 137/137/137
f 139/139/139 136/136/136 140/140/140
f 138/138/138 141/141/141 81/81/81
f 139/139/139 142/142/142 138/138/138
f 138/138/138 142/142/142 141/141/141
f 139/139/139 140/140/140 143/143/143
f 142/142/142 139/139/139 143/143/143
f 140/140/140 137/137/137 144/144/144
f 143/143/143 140/140/140 144/144/144
f 145/145/145 137/137/137 130/130/130
f 137/137/137 145/145/145 144/144/144
f 141/141/141 146/146/146 81/81/81
f 146/146/146 62/62/62 81/81/81
f 57/57/57 62/62/62 146/146/146
f 147/147/147 57/57/57 146/146/146
f 147/147/147 52/52/52 57/57/57
f 148/148/148 146/146/146 141/141/141
f 146/146/146 148/148/148 147/147/147
f 142/142/142 149/149/149 141/141/141
f 149/149/149 148/148/148 141/141/141
f 142/142/142 143/143/143 150/150/150
f 149/149/149 142/142/142 150/150/150
f 143/143/143 144/144/144 151/151/151
f 150/150/150 143/143/143 151/151/151
f 145/145/145 152/152/152 144/144/144
f 144/144/144 152/152/152 151/151/151
f 52/52/52 147/147/147 153/153/153
f 148/148/148 153/153/153 147/147/147
f 154/154/154 148/148/148 149/149/149
f 150/150/150 154/154/154 149/149/149
f 145/145/145 155/155/155 152/152/152
f 155/155/155 145/145/145 130/130/130
f 151/151/151 156/156/156 150/150/150
f 156/156/156 154/154/154 150/150/150
f 148/148/148 154/154/154 157/157/157
f 153/153/153 148/148/148 157/157/157
f 158/158/158 52/52/52 153/153/153
f 158/158/158 26/26/26 52/52/52
f 154/154/154 156/156/156 159/159/159
f 157/157/157 154/154/154 159/159/159
f 160/160/160 156/156/156 151/151/151
f 156/156/156 160/160/160 159/159/159
f 152/152/152 161/161/161 151/151/151
f 161/161/161 160/160/160 151/151/151
f 162/162/162 158/158/158 153/153/153
f 157/157/157 162/162/162 153/153/153
f 26/26/26 158/158/158 163/163/163
f 158/158/158 162/162/162 163/163/163
f 163/163/163 16/16/16 26/26/26
f 10/10/10 16/16/16 163/163/163
f 164/164/164 10/10/10 163/163/163
f 163/163/163 162/162/162 164/164/164
f 164/164/164 11/11/11 10/10/10
f 165/165/165 162/162/162 157/157/157
f 162/162/162 165/165/165 164/164/164
f 164/164/164 165/165/165 11/11/11
f 165/165/165 14/14/14 11/11/11
f 159/159/159 165/165/165 157/157/157
f 165/165/165 159/159/159 14/14/14
f 159/159/159 20/20/20 14/14/14
f 160/160/160 20/20/20 159/159/159
f 20/20/20 160/160/160 166/166/166
f 21/21/21 20/20/20 166/166/166
f 167/167/167 21/21/21 166/166/166
f 166/166/166 160/160/160 161/161/161
f 168/168/168 167/167/167 166/166/166
f 169/169/169 167/167/167 168/168/168
f 170/170/170 169/169/169 168/168/168
f 171/171/171 166/166/166 161/161/161
f 168/168/168 166/166/166 171/171/171
f 170/170/170 168/168/168 172/172/172
f 172/172/172 168/168/168 171/171/171
f 173/173/173 170/170/170 172/172/172
f 173/173/173 172/172/172 174/174/174
f 172/172/172 175/175/175 174/174/174
f 175/175/175 172/172/172 171/171/171
f 174/174/174 175/175/175 176/176/176
f 177/177/177 171/171/171 161/161/161
f 177/177/177 175/175/175 171/171/171
f 152/152/152 177/177/177 161/161/161
f 155/155/155 177/177/177 152/152/152
f 178/178/178 175/175/175 177/177/177
f 175/175/175 178/178/178 176/176/176
f 155/155/155 178/178/178 177/177/177
f 176/176/176 178/178/178 179/179/179
f 180/180/180 176/176/176 179/179/179
f 180/180/180 179/179/179 181/181/181
f 179/179/179 182/182/182 181/181/181
f 178/178/178 155/155/155 183/183/183
f 179/179/179 178/178/178 183/183/183
f 179/179/179 183/183/183 182/182/182
f 183/183/183 155/155/155 130/130/130
f 183/183/183 116/116/116 182/182/182
f 183/183/183 130/130/130 116/116/116
f 186/186/186 185/185/185 184/184/184
f 185/185/185 187/187/187 184/184/184
f 184/184/184 187/187/187 188/188/188
f 185/185/185 189/189/189 187/187/187
f 187/187/187 190/190/190 188/188/188
f 188/188/188 190/190/190 191/191/191
f 189/189/189 192/192/192 187/187/187
f 187/187/187 192/192/192 190/190/190
f 189/189/189 193/193/193 192/192/192
f 190/190/190 194/194/194 191/191/191
f 191/191/191 194/194/194 195/195/195
f 192/192/192 196/196/196 190/190/190
f 190/190/190 196/196/196 194/194/194
f 193/193/193 197/197/197 192/192/192
f 192/192/192 197/197/197 196/196/196
f 193/193/193 198/198/198 197/197/197
f 194/194/194 199/199/199 195/195/195
f 195/195/195 199/199/199 200/200/200
f 196/196/196 201/201/201 194/194/194
f 194/194/194 201/201/201 199/199/199
f 198/198/198 202/202/202 197/197/197
f 198/198/198 203/203/203 202/202/202
f 197/197/197 204/204/204 196/196/196
f 196/196/196 204/204/204 201/201/201
f 197/197/197 202/202/202 204/204/204
f 199/199/199 205/205/205 200/200/200
f 200/200/200 205/205/205 206/206/206
f 203/203/203 207/207/207 202/202/202
f 203/203/203 208/208/208 207/207/207
f 201/201/201 209/209/209 199/199/199
f 199/199/199 209/209/209 205/205/205
f 202/202/202 210/210/210 204/204/204
f 202/202/202 207/207/207 210/210/210
f 204/204/204 211/211/211 201/201/201
f 201/201/201 211/211/211 209/209/209
f 204/204/204 210/210/210 211/211/211
f 205/205/205 212/212/212 206/206/206
f 206/206/206 212/212/212 213/213/213
f 208/208/208 214/214/214 207/207/207
f 208/208/208 215/215/215 214/214/214
f 209/209/209 216/216/216 205/205/205
f 205/205/205 216/216/216 212/212/212
f 211/211/211 217/217/217 209/209/209
f 209/209/209 217/217/217 216/216/216
f 210/210/210 218/218/218 211/211/211
f 211/211/211 218/218/218 217/217/217
f 207/207/207 219/219/219 210/210/210
f 207/207/207 214/214/214 219/219/219
f 210/210/210 219/219/219 218/218/218
f 212/212/212 220/220/220 213/213/213
f 213/213/213 220/220/220 221/221/221
f 215/215/215 222/222/222 214/214/214
f 215/215/215 223/223/223 222/222/222
f 216/216/216 224/224/224 212/212/212
f 212/212/212 224/224/224 220/220/220
f 217/217/217 225/225/225 216/216/216
f 216/216/216 225/225/225 224/224/224
f 218/218/218 226/226/226 217/217/217
f 217/217/217 226/226/226 225/225/225
f 214/214/214 227/227/227 219/219/219
f 214/214/214 222/222/222 227/227/227
f 219/219/219 228/228/228 218/218/218
f 218/218/218 228/228/228 226/226/226
f 219/219/219 227/227/227 228/228/228
f 223/223/223 229/229/229 222/222/222
f 223/223/223 230/230/230 229/229/229
f 230/230/230 231/231/231 229/229/229
f 222/222/222 232/232/232 227/227/227
f 222/222/222 229/229/229 232/232/232
f 229/229/229 231/231/231 233/233/233
f 229/229/229 233/233/233 232/232/232
f 231/231/231 234/234/234 233/233/233
f 227/227/227 235/235/235 228/228/228
f 227/227/227 232/232/232 235/235/235
f 228/228/228 236/236/236 226/226/226
f 228/228/228 235/235/235 236/236/236
f 232/232/232 233/233/233 237/237/237
f 232/232/232 237/237/237 235/235/235
f 233/233/233 234/234/234 238/238/238
f 233/233/233 238/238/238 237/237/237
f 234/234/234 239/239/239 238/238/238
f 235/235/235 237/237/237 240/240/240
f 235/235/235 240/240/240 236/236/236
f 226/226/226 236/236/236 241/241/241
f 226/226/226 241/241/241 225/225/225
f 237/237/237 238/238/238 242/242/242
f 237/237/237 242/242/242 240/240/240
f 238/238/238 239/239/239 243/243/243
f 238/238/238 243/243/243 242/242/242
f 239/239/239 244/244/244 243/243/243
f 236/236/236 240/240/240 245/245/245
f 236/236/236 245/245/245 241/241/241
f 225/225/225 241/241/241 246/246/246
f 225/225/225 246/246/246 224/224/224
f 240/240/240 242/242/242 247/247/247
f 240/240/240 247/247/247 245/245/245
f 242/242/242 243/243/243 248/248/248
f 242/242/242 248/248/248 247/247/247
f 243/243/243 244/244/244 249/249/249
f 243/243/243 249/249/249 248/248/248
f 244/244/244 250/250/250 249/249/249
f 241/241/241 245/245/245 251/251/251
f 241/241/241 251/251/251 246/246/246
f 224/224/224 246/246/246 252/252/252
f 224/224/224 252/252/252 220/220/220
f 245/245/245 247/247/247 253/253/253
f 245/245/245 253/253/253 251/251/251
f 247/247/247 248/248/248 254/254/254
f 247/247/247 254/254/254 253/253/253
f 248/248/248 249/249/249 255/255/255
f 248/248/248 255/255/255 254/254/254
f 249/249/249 250/250/250 256/256/256
f 249/249/249 256/256/256 255/255/255
f 250/250/250 257/257/257 256/256/256
f 246/246/246 251/251/251 258/258/258
f 246/246/246 258/258/258 252/252/252
f 220/220/220 252/252/252 259/259/259
f 220/220/220 259/259/259 221/221/221
f 221/221/221 259/259/259 260/260/260
f 252/252/252 261/261/261 259/259/259
f 252/252/252 258/258/258 261/261/261
f 259/259/259 262/262/262 260/260/260
f 259/259/259 261/261/261 262/262/262
f 260/260/260 262/262/262 263/263/263
f 251/251/251 264/264/264 258/258/258
f 251/251/251 253/253/253 264/264/264
f 258/258/258 265/265/265 261/261/261
f 258/258/258 264/264/264 265/265/265
f 262/262/262 266/266/266 263/263/263
f 263/263/263 266/266/266 267/267/267
f 261/261/261 268/268/268 262/262/262
f 261/261/261 265/265/265 268/268/268
f 262/262/262 268/268/268 266/266/266
f 253/253/253 269/269/269 264/264/264
f 253/253/253 254/254/254 269/269/269
f 266/266/266 270/270/270 267/267/267
f 267/267/267 270/270/270 271/271/271
f 264/264/264 272/272/272 265/265/265
f 264/264/264 269/269/269 272/272/272
f 268/268/268 273/273/273 266/266/266
f 266/266/266 273/273/273 270/270/270
f 265/265/265 274/274/274 268/268/268
f 265/265/265 272/272/272 274/274/274
f 268/268/268 274/274/274 273/273/273
f 254/254/254 275/275/275 269/269/269
f 254/254/254 255/255/255 275/275/275
f 270/270/270 276/276/276 271/271/271
f 271/271/271 276/276/276 277/277/277
f 269/269/269 278/278/278 272/272/272
f 269/269/269 275/275/275 278/278/278
f 273/273/273 279/279/279 270/270/270
f 270/270/270 279/279/279 276/276/276
f 272/272/272 280/280/280 274/274/274
f 272/272/272 278/278/278 280/280/280
f 274/274/274 281/281/281 273/273/273
f 273/273/273 281/281/281 279/279/279
f 274/274/274 280/280/280 281/281/281
f 255/255/255 282/282/282 275/275/275
f 255/255/255 256/256/256 282/282/282
f 276/276/276 283/283/283 277/277/277
f 277/277/277 283/283/283 284/284/284
f 283/283/283 285/285/285 284/284/284
f 275/275/275 286/286/286 278/278/278
f 275/275/275 282/282/282 286/286/286
f 279/279/279 287/287/287 276/276/276
f 276/276/276 287/287/287 283/283/283
f 283/283/283 288/288/288 285/285/285
f 287/287/287 288/288/288 283/283/283
f 288/288/288 289/289/289 285/285/285
f 256/256/256 290/290/290 282/282/282
f 256/256/256 257/257/257 290/290/290
f 279/279/279 291/291/291 287/287/287
f 281/281/281 291/291/291 279/279/279
f 288/288/288 292/292/292 289/289/289
f 292/292/292 293/293/293 289/289/289
f 287/287/287 294/294/294 288/288/288
f 291/291/291 294/294/294 287/287/287
f 294/294/294 292/292/292 288/288/288
f 281/281/281 295/295/295 291/291/291
f 280/280/280 295/295/295 281/281/281
f 292/292/292 296/296/296 293/293/293
f 296/296/296 297/297/297 293/293/293
f 291/291/291 298/298/298 294/294/294
f 295/295/295 298/298/298 291/291/291
f 294/294/294 299/299/299 292/292/292
f 299/299/299 296/296/296 292/292/292
f 298/298/298 299/299/299 294/294/294
f 280/280/280 300/300/300 295/295/295
f 278/278/278 300/300/300 280/280/280
f 278/278/278 286/286/286 300/300/300
f 296/296/296 301/301/301 297/297/297
f 301/301/301 302/302/302 297/297/297
f 299/299/299 303/303/303 296/296/296
f 303/303/303 301/301/301 296/296/296
f 298/298/298 304/304/304 299/299/299
f 304/304/304 303/303/303 299/299/299
f 295/295/295 305/305/305 298/298/298
f 300/300/300 305/305/305 295/295/295
f 305/305/305 304/304/304 298/298/298
f 286/286/286 306/306/306 300/300/300
f 300/300/300 306/306/306 305/305/305
f 301/301/301 307/307/307 302/302/302
f 307/307/307 308/308/308 302/302/302
f 303/303/303 309/309/309 301/301/301
f 309/309/309 307/307/307 301/301/301
f 304/304/304 310/310/310 303/303/303
f 310/310/310 309/309/309 303/303/303
f 305/305/305 311/311/311 304/304/304
f 306/306/306 311/311/311 305/305/305
f 311/311/311 310/310/310 304/304/304
f 286/286/286 312/312/312 306/306/306
f 282/282/282 312/312/312 286/286/286
f 282/282/282 290/290/290 312/312/312
f 307/307/307 313/313/313 308/308/308
f 313/313/313 314/314/314 308/308/308
f 309/309/309 315/315/315 307/307/307
f 315/315/315 313/313/313 307/307/307
f 310/310/310 316/316/316 309/309/309
f 316/316/316 315/315/315 309/309/309
f 311/311/311 317/317/317 310/310/310
f 317/317/317 316/316/316 310/310/310
f 306/306/306 318/318/318 311/311/311
f 312/312/312 318/318/318 306/306/306
f 318/318/318 317/317/317 311/311/311
f 290/290/290 319/319/319 312/312/312
f 312/312/312 319/319/319 318/318/318
f 313/313/313 320/320/320 314/314/314
f 320/320/320 321/321/321 314/314/314
f 315/315/315 322/322/322 313/313/313
f 322/322/322 320/320/320 313/313/313
f 320/320/320 323/323/323 321/321/321
f 323/323/323 324/324/324 321/321/321
f 325/325/325 323/323/323 320/320/320
f 322/322/322 325/325/325 320/320/320
f 326/326/326 325/325/325 322/322/322
f 327/327/327 322/322/322 315/315/315
f 327/327/327 326/326/326 322/322/322
f 316/316/316 327/327/327 315/315/315
f 328/328/328 326/326/326 327/327/327
f 329/329/329 327/327/327 316/316/316
f 329/329/329 328/328/328 327/327/327
f 317/317/317 329/329/329 316/316/316
f 330/330/330 328/328/328 329/329/329
f 331/331/331 329/329/329 317/317/317
f 331/331/331 330/330/330 329/329/329
f 318/318/318 331/331/331 317/317/317
f 332/332/332 330/330/330 331/331/331
f 319/319/319 331/331/331 318/318/318
f 319/319/319 332/332/332 331/331/331
f 333/333/333 332/332/332 319/319/319
f 290/290/290 333/333/333 319/319/319
f 257/257/257 333/333/333 290/290/290
f 333/333/333 334/334/334 332/332/332
f 257/257/257 335/335/335 333/333/333
f 335/335/335 334/334/334 333/333/333
f 336/336/336 335/335/335 257/257/257
f 337/337/337 336/336/336 257/257/257
f 334/334/334 338/338/338 332/332/332
f 332/332/332 338/338/338 339/339/339
f 334/334/334 335/335/335 340/340/340
f 335/335/335 336/336/336 340/340/340
f 341/341/341 336/336/336 337/337/337
f 342/342/342 341/341/341 337/337/337
f 336/336/336 341/341/341 343/343/343
f 336/336/336 343/343/343 340/340/340
f 344/344/344 341/341/341 342/342/342
f 341/341/341 344/344/344 343/343/343
f 345/345/345 344/344/344 342/342/342
f 343/343/343 344/344/344 345/345/345
f 346/346/346 343/343/343 345/345/345
f 340/340/340 343/343/343 346/346/346
f 347/347/347 340/340/340 346/346/346
f 348/348/348 334/334/334 340/340/340
f 348/348/348 340/340/340 347/347/347
f 338/338/338 334/334/334 348/348/348
f 349/349/349 348/348/348 347/347/347
f 350/350/350 348/348/348 349/349/349
f 350/350/350 338/338/338 348/348/348
f 351/351/351 350/350/350 349/349/349
f 352/352/352 350/350/350 351/351/351
f 338/338/338 350/350/350 352/352/352
f 353/353/353 352/352/352 351/351/351
f 354/354/354 338/338/338 352/352/352
f 338/338/338 354/354/354 339/339/339
f 339/339/339 354/354/354 355/355/355
f 354/354/354 356/356/356 355/355/355
f 354/354/354 352/352/352 356/356/356
f 355/355/355 356/356/356 357/357/357
f 358/358/358 352/352/352 353/353/353
f 357/357/357 358/358/358 353/353/353
f 352/352/352 358/358/358 356/356/356
f 356/356/356 358/358/358 357/357/357
