g ModularPipesB_ShortStraight
v -0.0359643549 1.2207031E-06 -0.0622961409
v -0.0359643549 0.539500117 -0.0622961409
v -0.107895508 0.539500117 -0.0622961409
v -0.107895508 1.2207031E-06 -0.0622961409
v -0.107895508 1.2207031E-06 -0.0622961409
v -0.107895508 0.539500117 -0.0622961409
v -0.143862307 0.539500117 0
v -0.143862307 1.2207031E-06 0
v -0.143862307 1.2207031E-06 0
v -0.143862307 0.539500117 0
v -0.107895508 0.539500117 0.0622962937
v -0.107895508 1.2207031E-06 0.0622962937
v -0.107895508 1.2207031E-06 0.0622962937
v -0.107895508 0.539500117 0.0622962937
v -0.0359643549 0.539500117 0.0622962937
v -0.0359643549 1.2207031E-06 0.0622962937
v -0.0359643549 1.2207031E-06 0.0622962937
v -0.0359643549 0.539500117 0.0622962937
v 2.4414062E-06 0.539500117 0
v 2.4414062E-06 1.2207031E-06 0
v 2.4414062E-06 1.2207031E-06 0
v 2.4414062E-06 0.539500117 0
v -0.0359643549 0.539500117 -0.0622961409
v -0.0359643549 1.2207031E-06 -0.0622961409
vt 0.872558594 0.0599975586
vt 0.768554688 0.0599975586
vt 0.768554688 0.0725097656
vt 0.872558594 0.0725097656
vt 0.872558594 0.0725097656
vt 0.768554688 0.0725097656
vt 0.768554688 0.0841674805
vt 0.872558594 0.0841674805
vt 0.872558594 0.00942230225
vt 0.768554688 0.00942230225
vt 0.768554688 0.0224761963
vt 0.872558594 0.0224761963
vt 0.872558594 0.0224761963
vt 0.768554688 0.0224761963
vt 0.768554688 0.0349731445
vt 0.872558594 0.0349731445
vt 0.872558594 0.0349731445
vt 0.768554688 0.0349731445
vt 0.768554688 0.0474853516
vt 0.872558594 0.0474853516
vt 0.872558594 0.0474853516
vt 0.768554688 0.0474853516
vt 0.768554688 0.0599975586
vt 0.872558594 0.0599975586
vn 0.5 0 -0.866210938
vn 0.5 0 -0.866210938
vn -0.5 0 -0.866210938
vn -0.5 0 -0.866210938
vn -0.5 0 -0.866210938
vn -0.5 0 -0.866210938
vn -1 0 0
vn -1 0 0
vn -1 0 0
vn -1 0 0
vn -0.5 0 0.866210938
vn -0.5 0 0.866210938
vn -0.5 0 0.866210938
vn -0.5 0 0.866210938
vn 0.5 0 0.866210938
vn 0.5 0 0.866210938
vn 0.5 0 0.866210938
vn 0.5 0 0.866210938
vn 1 0 0
vn 1 0 0
vn 1 0 0
vn 1 0 0
vn 0.5 0 -0.866210938
vn 0.5 0 -0.866210938
g ModularPipesB_ShortStraight_0
f 3/3/3 2/2/2 1/1/1
f 4/4/4 3/3/3 1/1/1
f 7/7/7 6/6/6 5/5/5
f 8/8/8 7/7/7 5/5/5
f 11/11/11 10/10/10 9/9/9
f 12/12/12 11/11/11 9/9/9
f 15/15/15 14/14/14 13/13/13
f 16/16/16 15/15/15 13/13/13
f 19/19/19 18/18/18 17/17/17
f 20/20/20 19/19/19 17/17/17
f 23/23/23 22/22/22 21/21/21
f 24/24/24 23/23/23 21/21/21
