g IS4_MDL_EscenarioPB_Pared_Recepcion_8
v 0.00123535155 -1.35238612 0.0860478207
v 0.00123535155 -2.35238099 0.0860478207
v -0.00123535155 -2.35238123 2.87442565
v -0.00123535155 -1.35238647 2.87442565
v -0.00123535155 2.35238099 2.87442565
v 0.00123535155 2.35238099 0.0860478207
v 0.00123535155 -2.35238099 0.0860478207
v 0.00123535155 -1.35238612 -2.87442565
v 0.00123535155 -2.35238099 -2.87442565
v 0.00123535155 -1.35238612 0.0860478207
v 0.00123535155 2.35238099 0.0860478207
v 0.00123535155 2.35238099 -2.87442565
vt 0.625488281 0.617675781
vt 0.625488281 0.513183594
vt 0.943359375 0.513183594
vt 0.943359375 0.617675781
vt 0.943359375 0.991210938
vt 0.625488281 0.991210938
vt 0.829101562 0.513183594
vt 0.510253906 0.617675781
vt 0.510253906 0.513183594
vt 0.829101562 0.617675781
vt 0.829101562 0.991210938
vt 0.510253906 0.991210938
vn 1 0 0.00088596344
vn 1 0 0.00088596344
vn 1 0 0.00088596344
vn 1 0 0.00088596344
vn 1 0 0.00088596344
vn 1 0 0.00088596344
vn 1 0 0
vn 1 0 0
vn 1 0 0
vn 1 0 0
vn 1 0 0
vn 1 0 0
g IS4_MDL_EscenarioPB_Pared_Recepcion_8_0
f 3/3/3 2/2/2 1/1/1
f 4/4/4 3/3/3 1/1/1
f 4/4/4 1/1/1 5/5/5
f 1/1/1 6/6/6 5/5/5
f 9/9/9 8/8/8 7/7/7
f 8/8/8 10/10/10 7/7/7
f 10/10/10 8/8/8 11/11/11
f 8/8/8 12/12/12 11/11/11
