g Butane
v -0.0433739834 0.866826475 0.0138241062
v -0.0350781232 0.866826475 0.0250773616
v -0.0350781232 0.8523947 0.0250773616
v 0.0207934566 0.896446824 -0.030791549
v -0.00999999978 0.896446824 -0.0435458347
v 0.00697530713 0.896446824 -0.0409791842
v -0.00999999978 0.896446824 0
v 0.0335449204 0.896446824 0
v 0.030979136 0.896446824 -0.0169741325
v -0.0407934561 0.896446824 -0.030791549
v -0.0269753076 0.896446824 -0.0409791842
v 0.0207934566 0.896446824 0.0307917017
v 0.0309791602 0.896446824 0.0169742238
v -0.0535449199 0.896446824 0
v -0.0509791374 0.896446824 -0.0169741325
v -0.00999999978 0.896446824 0.0435458347
v 0.00697531458 0.896446824 0.0409792401
v -0.0407934561 0.896446824 0.0307917017
v -0.0509791598 0.896446824 0.0169742238
v -0.0269753132 0.896446824 0.0409792401
v 0.106938682 0.799999654 -0.28231594
v -0.00999999978 0.799999654 -0.299999982
v -0.00999999978 0.0475888066 -0.299999982
v 0.106938682 0.0475888066 -0.28231594
v 0.202131346 0.0475888066 -0.212132037
v 0.202131346 0.799999654 -0.212132037
v 0.272315741 0.799999654 -0.116939083
v 0.272315741 0.0475888066 -0.116939083
v -0.126938686 0.799999654 -0.28231594
v -0.222131342 0.0475888066 -0.212132037
v -0.126938686 0.0475888066 -0.28231594
v -0.222131342 0.799999654 -0.212132037
v -0.292315751 0.799999654 -0.116939083
v -0.292315751 0.0475888066 -0.116939083
v -0.310000002 0.0475888066 0
v -0.310000002 0.799999654 0
v -0.126938686 0.799999654 0.28231594
v -0.00999999978 0.799999654 0.299999982
v -0.00999999978 0.0475888066 0.299999982
v -0.126938686 0.0475888066 0.28231594
v 0.106938682 0.799999654 0.28231594
v 0.202131346 0.799999654 0.212132037
v 0.202131346 0.0475888066 0.212132037
v 0.106938682 0.0475888066 0.28231594
v -0.00999999978 0.0475888066 0.299999982
v -0.00999999978 0.799999654 0.299999982
v -0.00999999978 0 -0.248489991
v 0.165708005 0 -0.175709069
v 0.0868599862 0 -0.233842254
v -0.00999999978 0 0
v -0.185708001 0 -0.175709069
v -0.106859989 0 -0.233842254
v -0.258491218 0 0
v -0.243842751 0 -0.0968606845
v 0.238491207 0 0
v 0.223842755 0 -0.0968606845
v 0.165708005 0 0.175708994
v 0.22384271 0 0.0968606323
v -0.00999999978 0 0.248490065
v 0.0868599862 0 0.233842269
v -0.185708001 0 0.175708994
v -0.106859989 0 0.233842269
v -0.243842706 0 0.0968606323
v 0.106938682 0.0475888066 -0.28231594
v -0.00999999978 0.0475888066 -0.299999982
v 0.0868599862 0 -0.233842254
v -0.106859989 0 -0.233842254
v 0.202131346 0.0475888066 -0.212132037
v -0.126938686 0.0475888066 -0.28231594
v -0.185708001 0 -0.175709069
v 0.272315741 0.0475888066 -0.116939083
v -0.222131342 0.0475888066 -0.212132037
v 0.223842755 0 -0.0968606845
v -0.243842751 0 -0.0968606845
v 0.289999992 0.0475888066 0
v -0.292315751 0.0475888066 -0.116939083
v 0.238491207 0 0
v 0.272315741 0.0475888066 0.116939083
v -0.310000002 0.0475888066 0
v 0.22384271 0 0.0968606323
v -0.243842706 0 0.0968606323
v 0.202131346 0.0475888066 0.212132037
v -0.292315751 0.0475888066 0.116939083
v 0.165708005 0 0.175708994
v -0.185708001 0 0.175708994
v 0.106938682 0.0475888066 0.28231594
v -0.222131342 0.0475888066 0.212132037
v 0.0868599862 0 0.233842269
v -0.106859989 0 0.233842269
v -0.00999999978 0.0475888066 0.299999982
v -0.126938686 0.0475888066 0.28231594
v -0.00999999978 0 0.248490065
v 0.00382459979 0.866826475 -0.0333742239
v -0.00999999978 0.866826475 -0.0354646295
v -0.00999999978 0.8523947 -0.0354646295
v -0.0238246005 0.866826475 -0.0333742239
v -0.0238246005 0.8523947 -0.0333742239
v -0.0350781232 0.8523947 -0.0250772852
v -0.0350781232 0.866826475 -0.0250772852
v -0.0433739647 0.866826475 -0.0138240596
v -0.0433739647 0.8523947 -0.0138240596
v 0.00382459979 0.866826475 -0.0333742239
v -0.00999999978 0.8523947 -0.0354646295
v 0.00382459979 0.8523947 -0.0333742239
v 0.0150781246 0.8523947 -0.0250772852
v 0.0150781246 0.866826475 -0.0250772852
v -0.0433739647 0.866826475 -0.0138240596
v -0.0454638675 0.8523947 0
v -0.0433739647 0.8523947 -0.0138240596
v -0.0454638675 0.866826475 0
v -0.0433739834 0.866826475 0.0138241062
v -0.0433739834 0.8523947 0.0138241062
v -0.0350781232 0.8523947 0.0250773616
v 0.00382460235 0.866826475 0.0333742537
v 0.0150781246 0.8523947 0.0250773616
v 0.00382460235 0.8523947 0.0333742537
v 0.0150781246 0.866826475 0.0250773616
v 0.0233739819 0.866826475 0.0138241062
v 0.0233739819 0.8523947 0.0138241062
v 0.0254638661 0.8523947 0
v 0.0254638661 0.866826475 0
v 0.0233739689 0.866826475 -0.0138240596
v 0.0233739689 0.8523947 -0.0138240596
v 0.0233739689 0.866826475 -0.0138240596
v 0.0150781246 0.866826475 -0.0250772852
v 0.0150781246 0.8523947 -0.0250772852
v 0.0233739689 0.8523947 -0.0138240596
v -0.0554474518 0.866826475 0.0188249815
v -0.0441503897 0.866826475 0.0341490917
v -0.0350781232 0.866826475 0.0250773616
v -0.0433739834 0.866826475 0.0138241062
v -0.0454638675 0.866826475 0
v -0.0582934543 0.866826475 0
v -0.0554474294 0.866826475 -0.0188248884
v -0.0433739647 0.866826475 -0.0138240596
v -0.0350781232 0.866826475 -0.0250772852
v -0.0441503897 0.866826475 -0.034148939
v -0.0288257655 0.866826475 -0.0454473086
v -0.0238246005 0.866826475 -0.0333742239
v -0.00999999978 0.866826475 -0.0354646295
v -0.00999999978 0.866826475 -0.0482939146
v 0.00882576685 0.866826475 -0.0454473086
v 0.00382459979 0.866826475 -0.0333742239
v 0.0150781246 0.866826475 -0.0250772852
v 0.0241503902 0.866826475 -0.034148939
v 0.0354474299 0.866826475 -0.0188248884
v 0.0241503902 0.866826475 -0.034148939
v 0.0150781246 0.866826475 -0.0250772852
v 0.0233739689 0.866826475 -0.0138240596
v 0.0254638661 0.866826475 0
v 0.0382934548 0.866826475 0
v 0.0354474522 0.866826475 0.0188249815
v 0.0233739819 0.866826475 0.0138241062
v 0.0150781246 0.866826475 0.0250773616
v 0.0241503902 0.866826475 0.0341490917
v 0.0088257743 0.866826475 0.0454473719
v 0.00382460235 0.866826475 0.0333742537
v -0.00999999978 0.866826475 0.0354646295
v -0.00999999978 0.866826475 0.0482939146
v -0.0288257729 0.866826475 0.0454473719
v -0.0238246005 0.866826475 0.0333742537
v -0.0350781232 0.866826475 0.0250773616
v -0.0441503897 0.866826475 0.0341490917
v -0.0269753076 0.896446824 -0.0409791842
v -0.0407934561 0.896446824 -0.030791549
v -0.0441503897 0.866826475 -0.034148939
v -0.0288257655 0.866826475 -0.0454473086
v -0.00999999978 0.866826475 -0.0482939146
v -0.00999999978 0.896446824 -0.0435458347
v 0.00697530713 0.896446824 -0.0409791842
v 0.00882576685 0.866826475 -0.0454473086
v 0.0241503902 0.866826475 -0.034148939
v 0.0207934566 0.896446824 -0.030791549
v -0.0509791598 0.896446824 0.0169742238
v -0.0407934561 0.896446824 0.0307917017
v -0.0441503897 0.866826475 0.0341490917
v -0.0554474518 0.866826475 0.0188249815
v -0.0582934543 0.866826475 0
v -0.0535449199 0.896446824 0
v -0.0509791374 0.896446824 -0.0169741325
v -0.0554474294 0.866826475 -0.0188248884
v -0.0441503897 0.866826475 -0.034148939
v -0.0407934561 0.896446824 -0.030791549
v 0.00697531458 0.896446824 0.0409792401
v 0.0207934566 0.896446824 0.0307917017
v 0.0241503902 0.866826475 0.0341490917
v 0.0088257743 0.866826475 0.0454473719
v -0.00999999978 0.866826475 0.0482939146
v -0.00999999978 0.896446824 0.0435458347
v -0.0269753132 0.896446824 0.0409792401
v -0.0288257729 0.866826475 0.0454473719
v -0.0441503897 0.866826475 0.0341490917
v -0.0407934561 0.896446824 0.0307917017
v 0.030979136 0.896446824 -0.0169741325
v 0.0207934566 0.896446824 -0.030791549
v 0.0241503902 0.866826475 -0.034148939
v 0.0354474299 0.866826475 -0.0188248884
v 0.0382934548 0.866826475 0
v 0.0335449204 0.896446824 0
v 0.0309791602 0.896446824 0.0169742238
v 0.0354474522 0.866826475 0.0188249815
v 0.0241503902 0.866826475 0.0341490917
v 0.0207934566 0.896446824 0.0307917017
v -0.304143071 0.892250657 2.28881831E-07
v -0.285659164 0.892250657 -4.57763662E-07
v -0.261344641 0.892250657 0.104109153
v -0.278197467 0.892250657 0.111091428
v -0.217990711 0.892250657 0.207991019
v -0.204921871 0.892250657 0.194919124
v -0.114110731 0.892250657 0.251342088
v -0.121091001 0.892250657 0.268198133
v -0.00999999978 0.892250657 0.294143736
v -0.00999999978 0.892250657 0.275656879
v 0.0941083729 0.892250657 0.251341999
v 0.101091258 0.892250657 0.268198371
v 0.197990716 0.892250657 0.207991481
v 0.184916988 0.892250657 0.194918975
v 0.241342291 0.892250657 0.104109436
v 0.258193821 0.892250657 0.111091293
v 0.284135729 0.892250657 -4.57763662E-07
v 0.265659183 0.892250657 2.28881831E-07
v 0.284135729 0.892250657 -4.57763662E-07
v 0.265659183 0.892250657 2.28881831E-07
v 0.241342291 0.892250657 -0.104109302
v 0.258193821 0.892250657 -0.111091614
v 0.197990716 0.892250657 -0.207991183
v 0.184916988 0.892250657 -0.194919199
v 0.0941083729 0.892250657 -0.251342118
v 0.101091258 0.892250657 -0.268198311
v -0.00999999978 0.892250657 -0.294143975
v -0.00999999978 0.892250657 -0.275656879
v -0.114110731 0.892250657 -0.251342028
v -0.121091001 0.892250657 -0.26819849
v -0.217990711 0.892250657 -0.207991481
v -0.204921871 0.892250657 -0.19491905
v -0.261344641 0.892250657 -0.104109578
v -0.278197467 0.892250657 -0.111091413
v -0.304143071 0.892250657 2.28881831E-07
v -0.285659164 0.892250657 -4.57763662E-07
v -0.261344641 0.892250657 -0.104109578
v -0.204921871 0.892250657 -0.19491905
v -0.204921871 0.795652151 -0.19491905
v -0.261344641 0.795652151 -0.104109339
v -0.285659164 0.795652151 0
v -0.285659164 0.892250657 -4.57763662E-07
v -0.304143071 0.795652151 0
v -0.304143071 0.892250657 2.28881831E-07
v -0.278197467 0.892250657 0.111091428
v -0.278197467 0.795652151 0.111091383
v -0.261344641 0.892250657 0.104109153
v -0.285659164 0.892250657 -4.57763662E-07
v -0.285659164 0.795652151 0
v -0.261344641 0.795652151 0.104109317
v -0.204921871 0.795652151 0.194918975
v -0.204921871 0.892250657 0.194919124
v 0.241342291 0.892250657 0.104109436
v 0.184916988 0.795652151 0.194918975
v 0.241342291 0.795652151 0.104109317
v 0.184916988 0.892250657 0.194918975
v 0.157199711 0.82565397 0.206399068
v 0.0793041289 0.82565397 0.257473797
v 0.0941083729 0.795652151 0.251342088
v 0.157199711 0.862248838 0.206399843
v 0.0793041289 0.862248838 0.257474124
v 0.0941083729 0.892250657 0.251341999
v -0.00999999978 0.892250657 0.275656879
v -0.00999999978 0.862248838 0.275656879
v 0.284135729 0.795652151 0
v 0.284135729 0.892250657 -4.57763662E-07
v 0.258193821 0.892250657 -0.111091614
v 0.258193821 0.795652151 -0.11109145
v 0.197990716 0.795652151 -0.207991332
v 0.197990716 0.892250657 -0.207991183
v 0.170273438 0.82565397 -0.219471961
v 0.170273438 0.862248838 -0.219471425
v 0.0862870216 0.82565397 -0.274330437
v 0.101091258 0.795652151 -0.268198401
v 0.0862870216 0.862248838 -0.27433005
v 0.101091258 0.892250657 -0.268198311
v -0.00999999978 0.795652151 -0.294143975
v -0.00999999978 0.82565397 -0.294144064
v -0.106286772 0.82565397 -0.274330318
v -0.121091001 0.795652151 -0.268198401
v -0.00999999978 0.892250657 -0.294143975
v -0.00999999978 0.862248838 -0.294143885
v -0.106286772 0.862248838 -0.274330348
v -0.121091001 0.892250657 -0.26819849
v 0.241342291 0.892250657 -0.104109302
v 0.265659183 0.892250657 2.28881831E-07
v 0.265659183 0.795652151 0
v 0.241342291 0.795652151 -0.104109339
v 0.184916988 0.795652151 -0.19491905
v 0.184916988 0.892250657 -0.194919199
v -0.00999999978 0.795652151 0.294143736
v -0.00999999978 0.82565397 0.294143826
v 0.0862870216 0.82565397 0.274330199
v 0.101091258 0.795652151 0.268198222
v 0.197990716 0.795652151 0.207991183
v 0.170273438 0.82565397 0.219471738
v 0.170273438 0.862248838 0.219471961
v 0.197990716 0.892250657 0.207991481
v 0.0862870216 0.862248838 0.274330258
v 0.101091258 0.892250657 0.268198371
v -0.00999999978 0.892250657 0.294143736
v 0.258193821 0.892250657 0.111091293
v 0.258193821 0.795652151 0.111091383
v 0.284135729 0.795652151 0
v 0.284135729 0.892250657 -4.57763662E-07
v 0.0862870216 0.862248838 0.274330258
v -0.00999999978 0.862248838 0.294143677
v -0.00999999978 0.892250657 0.294143736
v -0.106286772 0.862248838 0.27432996
v -0.121091001 0.892250657 0.268198133
v -0.217990711 0.892250657 0.207991019
v -0.190273434 0.862248838 0.219471425
v -0.190273434 0.82565397 0.219471812
v -0.217990711 0.795652151 0.207991183
v -0.278197467 0.892250657 0.111091428
v -0.278197467 0.795652151 0.111091383
v -0.106286772 0.82565397 0.274330258
v -0.121091001 0.795652151 0.268198222
v -0.00999999978 0.795652151 0.294143736
v -0.00999999978 0.82565397 0.294143826
v 0.0793041289 0.82565397 0.257473797
v -0.00999999978 0.795652151 0.275657028
v 0.0941083729 0.795652151 0.251342088
v -0.00999999978 0.82565397 0.275657028
v -0.0993077904 0.82565397 0.257474124
v -0.114110731 0.795652151 0.251342088
v -0.204921871 0.795652151 0.194918975
v -0.177207023 0.82565397 0.206399679
v -0.177207023 0.862248838 0.206399605
v -0.204921871 0.892250657 0.194919124
v -0.0993077904 0.862248838 0.257474005
v -0.114110731 0.892250657 0.251342088
v -0.00999999978 0.892250657 0.275656879
v -0.00999999978 0.862248838 0.275656879
v -0.190273434 0.82565397 -0.219471738
v -0.177207023 0.82565397 -0.206399605
v -0.177207023 0.862248838 -0.206399605
v -0.190273434 0.862248838 -0.219471961
v 0.0793041289 0.862248838 -0.257474035
v 0.157199711 0.862248838 -0.206399679
v 0.170273438 0.862248838 -0.219471425
v 0.0862870216 0.862248838 -0.27433005
v -0.00999999978 0.862248838 -0.294143885
v -0.00999999978 0.862248838 -0.275656879
v -0.0993077904 0.862248838 -0.257474005
v -0.106286772 0.862248838 -0.274330348
v -0.190273434 0.862248838 -0.219471961
v -0.177207023 0.862248838 -0.206399605
v 0.170273438 0.862248838 -0.219471425
v 0.157199711 0.862248838 -0.206399679
v 0.157199711 0.82565397 -0.206399754
v 0.170273438 0.82565397 -0.219471961
v 0.170273438 0.82565397 -0.219471961
v 0.157199711 0.82565397 -0.206399754
v 0.0793041289 0.82565397 -0.257474184
v 0.0862870216 0.82565397 -0.274330437
v -0.00999999978 0.82565397 -0.294144064
v -0.00999999978 0.82565397 -0.275657117
v -0.0993077904 0.82565397 -0.257474124
v -0.106286772 0.82565397 -0.274330318
v -0.190273434 0.82565397 -0.219471738
v -0.177207023 0.82565397 -0.206399605
v 0.170273438 0.82565397 0.219471738
v 0.157199711 0.82565397 0.206399068
v 0.157199711 0.862248838 0.206399843
v 0.170273438 0.862248838 0.219471961
v -0.0993077904 0.862248838 0.257474005
v -0.177207023 0.862248838 0.206399605
v -0.190273434 0.862248838 0.219471425
v -0.106286772 0.862248838 0.27432996
v -0.00999999978 0.862248838 0.294143677
v -0.00999999978 0.862248838 0.275656879
v 0.0793041289 0.862248838 0.257474124
v 0.0862870216 0.862248838 0.274330258
v 0.170273438 0.862248838 0.219471961
v 0.157199711 0.862248838 0.206399843
v -0.190273434 0.862248838 0.219471425
v -0.177207023 0.862248838 0.206399605
v -0.177207023 0.82565397 0.206399679
v -0.190273434 0.82565397 0.219471812
v -0.190273434 0.82565397 0.219471812
v -0.177207023 0.82565397 0.206399679
v -0.0993077904 0.82565397 0.257474124
v -0.106286772 0.82565397 0.274330258
v -0.00999999978 0.82565397 0.294143826
v -0.00999999978 0.82565397 0.275657028
v 0.0793041289 0.82565397 0.257473797
v 0.0862870216 0.82565397 0.274330199
v 0.170273438 0.82565397 0.219471738
v 0.157199711 0.82565397 0.206399068
v -0.0350781232 0.8523947 0.0250773616
v -0.0350781232 0.866826475 0.0250773616
v -0.0238246005 0.866826475 0.0333742537
v -0.0238246005 0.8523947 0.0333742537
v -0.00999999978 0.8523947 0.0354646295
v -0.00999999978 0.866826475 0.0354646295
v 0.00382460235 0.866826475 0.0333742537
v 0.00382460235 0.8523947 0.0333742537
v -0.222131342 0.0475888066 0.212132037
v -0.126938686 0.799999654 0.28231594
v -0.126938686 0.0475888066 0.28231594
v -0.222131342 0.799999654 0.212132037
v -0.292315751 0.799999654 0.116939083
v -0.292315751 0.0475888066 0.116939083
v -0.310000002 0.0475888066 0
v -0.310000002 0.799999654 0
v 0.202131346 0.0475888066 0.212132037
v 0.202131346 0.799999654 0.212132037
v 0.272315741 0.799999654 0.116939083
v 0.272315741 0.0475888066 0.116939083
v 0.289999992 0.0475888066 0
v 0.289999992 0.799999654 0
v 0.272315741 0.799999654 -0.116939083
v 0.272315741 0.0475888066 -0.116939083
v -0.00999999978 0.0475888066 -0.299999982
v -0.00999999978 0.799999654 -0.299999982
v -0.126938686 0.799999654 -0.28231594
v -0.126938686 0.0475888066 -0.28231594
v -0.278197467 0.892250657 -0.111091413
v -0.304143071 0.892250657 2.28881831E-07
v -0.304143071 0.795652151 0
v -0.278197467 0.795652151 -0.11109145
v -0.217990711 0.795652151 -0.207991332
v -0.217990711 0.892250657 -0.207991481
v -0.190273434 0.862248838 -0.219471961
v -0.106286772 0.862248838 -0.274330348
v -0.121091001 0.892250657 -0.26819849
v -0.190273434 0.82565397 -0.219471738
v -0.106286772 0.82565397 -0.274330318
v -0.121091001 0.795652151 -0.268198401
v 0.265659183 0.795652151 0
v 0.265659183 0.892250657 2.28881831E-07
v 0.241342291 0.892250657 0.104109436
v 0.241342291 0.795652151 0.104109317
v -0.00999999978 0.892250657 -0.275656879
v -0.0993077904 0.862248838 -0.257474005
v -0.114110731 0.892250657 -0.251342028
v -0.204921871 0.892250657 -0.19491905
v -0.00999999978 0.862248838 -0.275656879
v -0.177207023 0.862248838 -0.206399605
v -0.177207023 0.82565397 -0.206399605
v -0.204921871 0.795652151 -0.19491905
v 0.0793041289 0.862248838 -0.257474035
v 0.0941083729 0.892250657 -0.251342118
v 0.184916988 0.892250657 -0.194919199
v 0.157199711 0.862248838 -0.206399679
v -0.0993077904 0.82565397 -0.257474124
v -0.114110731 0.795652151 -0.251342148
v 0.184916988 0.795652151 -0.19491905
v 0.157199711 0.82565397 -0.206399754
v -0.00999999978 0.795652151 -0.275657117
v -0.00999999978 0.82565397 -0.275657117
v 0.0793041289 0.82565397 -0.257474184
v 0.0941083729 0.795652151 -0.251342148
v 0.0233739689 0.8523947 -0.0138240596
v 0.098381348 0.8523947 -0.108382717
v 0.134240687 0.8523947 -0.0597465932
v 0.143276364 0.8523947 0
v 0.0150781246 0.8523947 -0.0250772852
v 0.0254638661 0.8523947 0
v 0.00382459979 0.8523947 -0.0333742239
v 0.0233739819 0.8523947 0.0138241062
v 0.0497457869 0.8523947 -0.14424108
v -0.00999999978 0.8523947 -0.153276369
v -0.00999999978 0.8523947 -0.0354646295
v -0.0238246005 0.8523947 -0.0333742239
v 0.134240687 0.8523947 0.0597465932
v 0.098381348 0.8523947 0.108382717
v 0.0150781246 0.8523947 0.0250773616
v 0.00382460235 0.8523947 0.0333742537
v -0.0697457865 0.8523947 -0.14424108
v -0.118381344 0.8523947 -0.108382717
v -0.0350781232 0.8523947 -0.0250772852
v -0.0433739647 0.8523947 -0.0138240596
v 0.0497457869 0.8523947 0.14424108
v -0.00999999978 0.8523947 0.153276369
v -0.00999999978 0.8523947 0.0354646295
v -0.0238246005 0.8523947 0.0333742537
v -0.154240683 0.8523947 -0.0597465932
v -0.163276359 0.8523947 0
v -0.0454638675 0.8523947 0
v -0.0433739834 0.8523947 0.0138241062
v -0.0697457865 0.8523947 0.14424108
v -0.118381344 0.8523947 0.108382717
v -0.0350781232 0.8523947 0.0250773616
v -0.154240683 0.8523947 0.0597465932
v 0.0497457869 0.8523947 0.14424108
v 0.202131346 0.799999654 0.212132037
v 0.134240687 0.8523947 0.0597465932
v 0.106938682 0.799999654 0.28231594
v 0.272315741 0.799999654 0.116939083
v -0.00999999978 0.799999654 0.299999982
v 0.289999992 0.799999654 0
v -0.0697457865 0.8523947 0.14424108
v -0.126938686 0.799999654 0.28231594
v 0.134240687 0.8523947 -0.0597465932
v 0.272315741 0.799999654 -0.116939083
v -0.222131342 0.799999654 0.212132037
v 0.202131346 0.799999654 -0.212132037
v -0.154240683 0.8523947 0.0597465932
v -0.292315751 0.799999654 0.116939083
v 0.0497457869 0.8523947 -0.14424108
v 0.106938682 0.799999654 -0.28231594
v -0.310000002 0.799999654 0
v -0.00999999978 0.799999654 -0.299999982
v -0.154240683 0.8523947 -0.0597465932
v -0.292315751 0.799999654 -0.116939083
v -0.0697457865 0.8523947 -0.14424108
v -0.126938686 0.799999654 -0.28231594
v -0.222131342 0.799999654 -0.212132037
vt 0.885253906 0.841308594
vt 0.888183594 0.841308594
vt 0.887207031 0.838867188
vt 0.883789062 0.857910156
vt 0.881347656 0.863769531
vt 0.8828125 0.860839844
vt 0.875488281 0.857910156
vt 0.881347656 0.852050781
vt 0.8828125 0.854980469
vt 0.875488281 0.866210938
vt 0.878417969 0.865234375
vt 0.875488281 0.849609375
vt 0.878417969 0.851074219
vt 0.870117188 0.863769531
vt 0.872558594 0.865234375
vt 0.870117188 0.852050781
vt 0.873046875 0.851074219
vt 0.8671875 0.858398438
vt 0.868652344 0.860839844
vt 0.868652344 0.854980469
vt 0.855957031 0.768066406
vt 0.876464844 0.768066406
vt 0.876464844 0.634277344
vt 0.855957031 0.634277344
vt 0.835449219 0.634277344
vt 0.835449219 0.768066406
vt 0.814941406 0.768066406
vt 0.814941406 0.634277344
vt 0.855957031 0.768066406
vt 0.835449219 0.634277344
vt 0.855957031 0.634277344
vt 0.835449219 0.768066406
vt 0.814941406 0.768066406
vt 0.814941406 0.634277344
vt 0.794433594 0.634277344
vt 0.794433594 0.768066406
vt 0.733398438 0.768066406
vt 0.712890625 0.768066406
vt 0.712890625 0.634277344
vt 0.733398438 0.634277344
vt 0.733398438 0.768066406
vt 0.753417969 0.768066406
vt 0.753417969 0.634277344
vt 0.733398438 0.634277344
vt 0.712890625 0.634277344
vt 0.712890625 0.768066406
vt 0.980957031 0.73828125
vt 0.954589844 0.763671875
vt 0.967773438 0.750976562
vt 0.937011719 0.719726562
vt 0.980957031 0.701660156
vt 0.980957031 0.720214844
vt 0.955566406 0.67578125
vt 0.968261719 0.688964844
vt 0.91796875 0.763671875
vt 0.936523438 0.763671875
vt 0.892578125 0.737304688
vt 0.905273438 0.750488281
vt 0.893066406 0.700683594
vt 0.892578125 0.719238281
vt 0.918945312 0.675292969
vt 0.90625 0.687988281
vt 0.9375 0.675292969
vt 0.9765625 0.760253906
vt 0.993164062 0.744140625
vt 0.967773438 0.750976562
vt 0.980957031 0.720214844
vt 0.959472656 0.776855469
vt 0.993652344 0.720214844
vt 0.980957031 0.701660156
vt 0.936035156 0.776367188
vt 0.994140625 0.696777344
vt 0.936523438 0.763671875
vt 0.968261719 0.688964844
vt 0.912597656 0.775878906
vt 0.977539062 0.680175781
vt 0.91796875 0.763671875
vt 0.895996094 0.759277344
vt 0.961425781 0.663085938
vt 0.905273438 0.750488281
vt 0.9375 0.675292969
vt 0.879882812 0.7421875
vt 0.9375 0.663085938
vt 0.892578125 0.737304688
vt 0.918945312 0.675292969
vt 0.880371094 0.71875
vt 0.9140625 0.662597656
vt 0.892578125 0.719238281
vt 0.90625 0.687988281
vt 0.880371094 0.6953125
vt 0.897460938 0.678710938
vt 0.893066406 0.700683594
vt 0.865722656 0.841308594
vt 0.869140625 0.841308594
vt 0.869628906 0.838867188
vt 0.872558594 0.841308594
vt 0.872558594 0.838867188
vt 0.875488281 0.838867188
vt 0.875488281 0.841308594
vt 0.87890625 0.841308594
vt 0.878417969 0.838867188
vt 0.865722656 0.841308594
vt 0.869628906 0.838867188
vt 0.866699219 0.838867188
vt 0.863769531 0.838867188
vt 0.862792969 0.841308594
vt 0.87890625 0.841308594
vt 0.881835938 0.838867188
vt 0.878417969 0.838867188
vt 0.882324219 0.841308594
vt 0.885253906 0.841308594
vt 0.884277344 0.838867188
vt 0.887207031 0.838867188
vt 0.872558594 0.841308594
vt 0.875488281 0.838867188
vt 0.872558594 0.838867188
vt 0.875488281 0.841308594
vt 0.87890625 0.841308594
vt 0.878417969 0.838867188
vt 0.881347656 0.838867188
vt 0.882324219 0.841308594
vt 0.885253906 0.841308594
vt 0.884277344 0.838867188
vt 0.885253906 0.841308594
vt 0.888183594 0.841308594
vt 0.887207031 0.838867188
vt 0.884277344 0.838867188
vt 0.88671875 0.843261719
vt 0.890625 0.843261719
vt 0.888183594 0.841308594
vt 0.885253906 0.841308594
vt 0.882324219 0.841308594
vt 0.8828125 0.843261719
vt 0.879394531 0.843261719
vt 0.87890625 0.841308594
vt 0.875488281 0.841308594
vt 0.875488281 0.843261719
vt 0.872070312 0.843261719
vt 0.872558594 0.841308594
vt 0.869140625 0.841308594
vt 0.868164062 0.843261719
vt 0.864746094 0.843261719
vt 0.865722656 0.841308594
vt 0.862792969 0.841308594
vt 0.860839844 0.843261719
vt 0.88671875 0.843261719
vt 0.890136719 0.843261719
vt 0.888183594 0.841308594
vt 0.885253906 0.841308594
vt 0.882324219 0.841308594
vt 0.8828125 0.843261719
vt 0.87890625 0.843261719
vt 0.87890625 0.841308594
vt 0.875488281 0.841308594
vt 0.875488281 0.843261719
vt 0.872070312 0.843261719
vt 0.872558594 0.841308594
vt 0.869140625 0.841308594
vt 0.868164062 0.843261719
vt 0.864746094 0.843261719
vt 0.866210938 0.841308594
vt 0.862792969 0.841308594
vt 0.860839844 0.843261719
vt 0.872070312 0.849121094
vt 0.875488281 0.849121094
vt 0.875488281 0.843261719
vt 0.872070312 0.843261719
vt 0.868164062 0.843261719
vt 0.868652344 0.849121094
vt 0.865722656 0.849121094
vt 0.864746094 0.843261719
vt 0.860839844 0.843261719
vt 0.862304688 0.849121094
vt 0.885742188 0.849121094
vt 0.888671875 0.849121094
vt 0.890625 0.843261719
vt 0.88671875 0.843261719
vt 0.8828125 0.843261719
vt 0.882324219 0.849121094
vt 0.87890625 0.849121094
vt 0.879394531 0.843261719
vt 0.875488281 0.843261719
vt 0.875488281 0.849121094
vt 0.872070312 0.849121094
vt 0.875488281 0.849121094
vt 0.875488281 0.843261719
vt 0.872070312 0.843261719
vt 0.868164062 0.843261719
vt 0.869140625 0.849121094
vt 0.865722656 0.849121094
vt 0.864746094 0.843261719
vt 0.860839844 0.843261719
vt 0.862304688 0.849121094
vt 0.885253906 0.849121094
vt 0.888671875 0.849121094
vt 0.890136719 0.843261719
vt 0.88671875 0.843261719
vt 0.8828125 0.843261719
vt 0.882324219 0.849121094
vt 0.87890625 0.849121094
vt 0.87890625 0.843261719
vt 0.875488281 0.843261719
vt 0.875488281 0.849121094
vt 0.849121094 0.909667969
vt 0.857421875 0.909667969
vt 0.857421875 0.892578125
vt 0.849121094 0.892578125
vt 0.849121094 0.875488281
vt 0.857421875 0.875488281
vt 0.857421875 0.857910156
vt 0.849121094 0.857910156
vt 0.849121094 0.840332031
vt 0.857421875 0.840332031
vt 0.857421875 0.822753906
vt 0.849121094 0.822753906
vt 0.849121094 0.805175781
vt 0.857421875 0.805175781
vt 0.857421875 0.788085938
vt 0.849121094 0.788085938
vt 0.849121094 0.770996094
vt 0.857421875 0.770996094
vt 0.849121094 0.770996094
vt 0.857421875 0.770996094
vt 0.857421875 0.788085938
vt 0.849121094 0.788085938
vt 0.849121094 0.805175781
vt 0.857421875 0.805175781
vt 0.857421875 0.822753906
vt 0.849121094 0.822753906
vt 0.849121094 0.840332031
vt 0.857421875 0.840332031
vt 0.857421875 0.857910156
vt 0.849121094 0.857910156
vt 0.849121094 0.875488281
vt 0.857421875 0.875488281
vt 0.857421875 0.892578125
vt 0.849121094 0.892578125
vt 0.849121094 0.909667969
vt 0.857421875 0.909667969
vt 0.849121094 0.892578125
vt 0.849121094 0.875488281
vt 0.834472656 0.875488281
vt 0.834472656 0.892578125
vt 0.834472656 0.909667969
vt 0.849121094 0.909667969
vt 0.834472656 0.909667969
vt 0.849121094 0.909667969
vt 0.849121094 0.892578125
vt 0.834472656 0.892578125
vt 0.849121094 0.892578125
vt 0.849121094 0.909667969
vt 0.834472656 0.909667969
vt 0.834472656 0.892578125
vt 0.834472656 0.875488281
vt 0.849121094 0.875488281
vt 0.849121094 0.788085938
vt 0.834472656 0.805175781
vt 0.834472656 0.788085938
vt 0.849121094 0.805175781
vt 0.838378906 0.810058594
vt 0.838378906 0.825195312
vt 0.834472656 0.822753906
vt 0.844238281 0.810058594
vt 0.844238281 0.825195312
vt 0.849121094 0.822753906
vt 0.849121094 0.840332031
vt 0.844238281 0.840332031
vt 0.834472656 0.770996094
vt 0.849121094 0.770996094
vt 0.849121094 0.788085938
vt 0.834472656 0.788085938
vt 0.834472656 0.805175781
vt 0.849121094 0.805175781
vt 0.838378906 0.810058594
vt 0.844238281 0.810058594
vt 0.838378906 0.825195312
vt 0.834472656 0.822753906
vt 0.844238281 0.825195312
vt 0.849121094 0.822753906
vt 0.834472656 0.840332031
vt 0.838378906 0.840332031
vt 0.838378906 0.85546875
vt 0.834472656 0.857910156
vt 0.849121094 0.840332031
vt 0.844238281 0.840332031
vt 0.844238281 0.85546875
vt 0.849121094 0.857910156
vt 0.849121094 0.788085938
vt 0.849121094 0.770996094
vt 0.834472656 0.770996094
vt 0.834472656 0.788085938
vt 0.834472656 0.805175781
vt 0.849121094 0.805175781
vt 0.834472656 0.840332031
vt 0.838378906 0.840332031
vt 0.838378906 0.825195312
vt 0.834472656 0.822753906
vt 0.834472656 0.805175781
vt 0.838378906 0.810058594
vt 0.844238281 0.810058594
vt 0.849121094 0.805175781
vt 0.844238281 0.825195312
vt 0.849121094 0.822753906
vt 0.849121094 0.840332031
vt 0.849121094 0.788085938
vt 0.834472656 0.788085938
vt 0.834472656 0.770996094
vt 0.849121094 0.770996094
vt 0.844238281 0.825195312
vt 0.844238281 0.840332031
vt 0.849121094 0.840332031
vt 0.844238281 0.85546875
vt 0.849121094 0.857910156
vt 0.849121094 0.875488281
vt 0.844238281 0.870605469
vt 0.838378906 0.870605469
vt 0.834472656 0.875488281
vt 0.849121094 0.892578125
vt 0.834472656 0.892578125
vt 0.838378906 0.85546875
vt 0.834472656 0.857910156
vt 0.834472656 0.840332031
vt 0.838378906 0.840332031
vt 0.838378906 0.825195312
vt 0.834472656 0.840332031
vt 0.834472656 0.822753906
vt 0.838378906 0.840332031
vt 0.838378906 0.85546875
vt 0.834472656 0.857910156
vt 0.834472656 0.875488281
vt 0.838378906 0.870605469
vt 0.844238281 0.870605469
vt 0.849121094 0.875488281
vt 0.844238281 0.85546875
vt 0.849121094 0.857910156
vt 0.849121094 0.840332031
vt 0.844238281 0.840332031
vt 0.849121094 0.844726562
vt 0.857421875 0.844726562
vt 0.857421875 0.834960938
vt 0.849121094 0.834960938
vt 0.857421875 0.819824219
vt 0.857421875 0.797851562
vt 0.849121094 0.793945312
vt 0.849121094 0.818359375
vt 0.849121094 0.842285156
vt 0.857421875 0.842285156
vt 0.857421875 0.864746094
vt 0.849121094 0.866699219
vt 0.849121094 0.890625
vt 0.857421875 0.887207031
vt 0.849121094 0.844238281
vt 0.857421875 0.844238281
vt 0.857421875 0.834472656
vt 0.849121094 0.834472656
vt 0.849121094 0.890625
vt 0.857421875 0.887207031
vt 0.857421875 0.864746094
vt 0.849121094 0.866699219
vt 0.849121094 0.842285156
vt 0.857421875 0.842285156
vt 0.857421875 0.819824219
vt 0.849121094 0.818359375
vt 0.849121094 0.793945312
vt 0.857421875 0.797851562
vt 0.849121094 0.833984375
vt 0.857421875 0.833984375
vt 0.857421875 0.84375
vt 0.849121094 0.84375
vt 0.857421875 0.864746094
vt 0.857421875 0.887207031
vt 0.849121094 0.890625
vt 0.849121094 0.866699219
vt 0.849121094 0.842285156
vt 0.857421875 0.842285156
vt 0.857421875 0.819824219
vt 0.849121094 0.818359375
vt 0.849121094 0.793945312
vt 0.857421875 0.797851562
vt 0.849121094 0.834472656
vt 0.857421875 0.834472656
vt 0.857421875 0.844238281
vt 0.849121094 0.844238281
vt 0.849121094 0.793945312
vt 0.857421875 0.797851562
vt 0.857421875 0.819824219
vt 0.849121094 0.818359375
vt 0.849121094 0.842285156
vt 0.857421875 0.842285156
vt 0.857421875 0.864746094
vt 0.849121094 0.866699219
vt 0.849121094 0.890625
vt 0.857421875 0.887207031
vt 0.863769531 0.838867188
vt 0.862792969 0.841308594
vt 0.866210938 0.841308594
vt 0.866699219 0.838867188
vt 0.869628906 0.838867188
vt 0.869140625 0.841308594
vt 0.872558594 0.841308594
vt 0.872558594 0.838867188
vt 0.753417969 0.634277344
vt 0.733398438 0.768066406
vt 0.733398438 0.634277344
vt 0.753417969 0.768066406
vt 0.773925781 0.768066406
vt 0.773925781 0.634277344
vt 0.794433594 0.634277344
vt 0.794433594 0.768066406
vt 0.753417969 0.634277344
vt 0.753417969 0.768066406
vt 0.773925781 0.768066406
vt 0.773925781 0.634277344
vt 0.794433594 0.634277344
vt 0.794433594 0.768066406
vt 0.814941406 0.768066406
vt 0.814941406 0.634277344
vt 0.876464844 0.634277344
vt 0.876464844 0.768066406
vt 0.855957031 0.768066406
vt 0.855957031 0.634277344
vt 0.849121094 0.892578125
vt 0.849121094 0.909667969
vt 0.834472656 0.909667969
vt 0.834472656 0.892578125
vt 0.834472656 0.875488281
vt 0.849121094 0.875488281
vt 0.844238281 0.870605469
vt 0.844238281 0.85546875
vt 0.849121094 0.857910156
vt 0.838378906 0.870605469
vt 0.838378906 0.85546875
vt 0.834472656 0.857910156
vt 0.834472656 0.770996094
vt 0.849121094 0.770996094
vt 0.849121094 0.788085938
vt 0.834472656 0.788085938
vt 0.849121094 0.840332031
vt 0.844238281 0.85546875
vt 0.849121094 0.857910156
vt 0.849121094 0.875488281
vt 0.844238281 0.840332031
vt 0.844238281 0.870605469
vt 0.838378906 0.870605469
vt 0.834472656 0.875488281
vt 0.844238281 0.825195312
vt 0.849121094 0.822753906
vt 0.849121094 0.805175781
vt 0.844238281 0.810058594
vt 0.838378906 0.85546875
vt 0.834472656 0.857910156
vt 0.834472656 0.805175781
vt 0.838378906 0.810058594
vt 0.834472656 0.840332031
vt 0.838378906 0.840332031
vt 0.838378906 0.825195312
vt 0.834472656 0.822753906
vt 0.94921875 0.828613281
vt 0.971679688 0.822265625
vt 0.963867188 0.813964844
vt 0.956054688 0.806152344
vt 0.951171875 0.830078125
vt 0.947265625 0.826660156
vt 0.950683594 0.833007812
vt 0.944824219 0.826660156
vt 0.971191406 0.833007812
vt 0.971191406 0.844238281
vt 0.950683594 0.835449219
vt 0.94921875 0.836914062
vt 0.9453125 0.806152344
vt 0.934082031 0.806152344
vt 0.942382812 0.826660156
vt 0.940429688 0.828125
vt 0.963378906 0.8515625
vt 0.955566406 0.859375
vt 0.947265625 0.838867188
vt 0.944824219 0.838867188
vt 0.926269531 0.813964844
vt 0.918457031 0.821289062
vt 0.938476562 0.830078125
vt 0.938476562 0.832519531
vt 0.944335938 0.859375
vt 0.93359375 0.859375
vt 0.942382812 0.838867188
vt 0.940429688 0.836914062
vt 0.91796875 0.832519531
vt 0.91796875 0.843261719
vt 0.938476562 0.835449219
vt 0.92578125 0.851074219
vt 0.926269531 0.813964844
vt 0.922851562 0.778808594
vt 0.9453125 0.806152344
vt 0.907226562 0.794433594
vt 0.9453125 0.778808594
vt 0.891113281 0.810058594
vt 0.967285156 0.779296875
vt 0.91796875 0.832519531
vt 0.891113281 0.832519531
vt 0.963867188 0.813964844
vt 0.982910156 0.794921875
vt 0.891113281 0.854492188
vt 0.998535156 0.811035156
vt 0.92578125 0.851074219
vt 0.906738281 0.870605469
vt 0.971191406 0.833007812
vt 0.998535156 0.833007812
vt 0.922363281 0.886230469
vt 0.998535156 0.85546875
vt 0.944335938 0.859375
vt 0.944335938 0.88671875
vt 0.963378906 0.8515625
vt 0.982421875 0.87109375
vt 0.966796875 0.88671875
vn -0.923828125 0 0.382568359
vn -0.70703125 0 0.70703125
vn -0.70703125 0 0.70703125
vn 0.589355469 0.552734375 -0.589355469
vn -1.1920929E-07 0.553222656 -0.833007812
vn -0 1 0
vn -0 1 0
vn 0.833007812 0.553222656 0
vn -0 1 -4.11272049E-06
vn -0.589355469 0.552734375 -0.589355469
vn -0 1 0
vn 0.589355469 0.552734375 0.589355469
vn -0 1 4.11272049E-06
vn -0.833007812 0.553222656 0
vn -0 1 -4.11272049E-06
vn 1.1920929E-07 0.553222656 0.833007812
vn -0 1 0
vn -0.589355469 0.552734375 0.589355469
vn -0 1 4.11272049E-06
vn -0 1 0
vn 0.382568359 0 -0.923828125
vn -0 0 -1
vn -0 0 -1
vn 0.382568359 0 -0.923828125
vn 0.70703125 0 -0.70703125
vn 0.70703125 0 -0.70703125
vn 0.923828125 0 -0.382568359
vn 0.923828125 0 -0.382568359
vn -0.382568359 0 -0.923828125
vn -0.70703125 0 -0.70703125
vn -0.382568359 0 -0.923828125
vn -0.70703125 0 -0.70703125
vn -0.923828125 0 -0.382568359
vn -0.923828125 0 -0.382568359
vn -1 0 0
vn -1 0 0
vn -0.382568359 0 0.923828125
vn -0 0 1
vn -0 0 1
vn -0.382568359 0 0.923828125
vn 0.382568359 0 0.923828125
vn 0.70703125 0 0.70703125
vn 0.70703125 0 0.70703125
vn 0.382568359 0 0.923828125
vn -0 0 1
vn -0 0 1
vn -0 -0.932617188 -0.360839844
vn 0.255126953 -0.932617188 -0.255126953
vn -0 -1 0
vn -0 -1 0
vn -0.255126953 -0.932617188 -0.255126953
vn -0 -1 0
vn -0.360839844 -0.932617188 0
vn -0 -1 0
vn 0.360839844 -0.932617188 0
vn -0 -1 0
vn 0.255126953 -0.932617188 0.255126953
vn -0 -1 0
vn -0 -0.932617188 0.360839844
vn -0 -1 0
vn -0.255126953 -0.932617188 0.255126953
vn -0 -1 0
vn -0 -1 0
vn 0.257080078 -0.740722656 -0.620605469
vn -0 -0.734375 -0.678710938
vn 0.257080078 -0.740722656 -0.620605469
vn -0.257080078 -0.740722656 -0.620605469
vn 0.479736328 -0.734375 -0.479736328
vn -0.257080078 -0.740722656 -0.620605469
vn -0.255126953 -0.932617188 -0.255126953
vn 0.620605469 -0.740722656 -0.257080078
vn -0.479736328 -0.734375 -0.479736328
vn 0.620605469 -0.740722656 -0.257080078
vn -0.620605469 -0.740722656 -0.257080078
vn 0.678710938 -0.734375 0
vn -0.620605469 -0.740722656 -0.257080078
vn 0.360839844 -0.932617188 0
vn 0.620605469 -0.740722656 0.257080078
vn -0.678710938 -0.734375 0
vn 0.620605469 -0.740722656 0.257080078
vn -0.620605469 -0.740722656 0.257080078
vn 0.479736328 -0.734375 0.479736328
vn -0.620605469 -0.740722656 0.257080078
vn 0.255126953 -0.932617188 0.255126953
vn -0.255126953 -0.932617188 0.255126953
vn 0.257080078 -0.740722656 0.620605469
vn -0.479736328 -0.734375 0.479736328
vn 0.257080078 -0.740722656 0.620605469
vn -0.257080078 -0.740722656 0.620605469
vn -0 -0.734375 0.678710938
vn -0.257080078 -0.740722656 0.620605469
vn -0 -0.932617188 0.360839844
vn 0.382568359 0 -0.923828125
vn -0 0 -1
vn -0 0 -1
vn -0.382568359 0 -0.923828125
vn -0.382568359 0 -0.923828125
vn -0.70703125 0 -0.70703125
vn -0.70703125 0 -0.70703125
vn -0.923828125 0 -0.382568359
vn -0.923828125 0 -0.382568359
vn 0.382568359 0 -0.923828125
vn -0 0 -1
vn 0.382568359 0 -0.923828125
vn 0.70703125 0 -0.70703125
vn 0.70703125 0 -0.70703125
vn -0.923828125 0 -0.382568359
vn -1 0 0
vn -0.923828125 0 -0.382568359
vn -1 0 0
vn -0.923828125 0 0.382568359
vn -0.923828125 0 0.382568359
vn -0.70703125 0 0.70703125
vn 0.382568359 0 0.923828125
vn 0.70703125 0 0.70703125
vn 0.382568359 0 0.923828125
vn 0.70703125 0 0.70703125
vn 0.923828125 0 0.382568359
vn 0.923828125 0 0.382568359
vn 1 0 0
vn 1 0 0
vn 0.923828125 0 -0.382568359
vn 0.923828125 0 -0.382568359
vn 0.923828125 0 -0.382568359
vn 0.70703125 0 -0.70703125
vn 0.70703125 0 -0.70703125
vn 0.923828125 0 -0.382568359
vn -0 -1 0
vn -0 -1 0
vn -0 -1 0
vn -0 -1 0
vn -0 -1 -1.01327896E-06
vn -0 -1 -1.01327896E-06
vn -0 -1 -1.37090683E-06
vn -0 -1 -1.37090683E-06
vn -0 -1 -2.02655792E-06
vn -0 -1 -2.02655792E-06
vn -0 -1 0
vn -0 -1 0
vn -0 -1 1.01327896E-06
vn -0 -1 1.01327896E-06
vn -0 -1 1.84774399E-06
vn -0 -1 1.84774399E-06
vn -0 -1 0
vn -0 -1 0
vn -0 -1 -3.63588333E-06
vn -0 -1 0
vn -0 -1 0
vn -0 -1 -3.63588333E-06
vn -0 -1 1.01327896E-06
vn -0 -1 1.01327896E-06
vn -0 -1 1.37090683E-06
vn -0 -1 1.37090683E-06
vn -0 -1 2.02655792E-06
vn -0 -1 2.02655792E-06
vn -0 -1 0
vn -0 -1 0
vn -0 -1 -1.01327896E-06
vn -0 -1 -1.01327896E-06
vn -0 -1 -1.84774399E-06
vn -0 -1 -1.84774399E-06
vn -0 -1 0
vn -0 -1 0
vn -0.377685547 0.161132812 -0.911621094
vn -0.589355469 0.552734375 -0.589355469
vn -0.698242188 0.158325195 -0.698242188
vn -0.377685547 0.161132812 -0.911621094
vn -1.1920929E-07 0.158325195 -0.987304688
vn -1.1920929E-07 0.553222656 -0.833007812
vn 0.377685547 0.161132812 -0.911621094
vn 0.377685547 0.161132812 -0.911621094
vn 0.698242188 0.158325195 -0.698242188
vn 0.589355469 0.552734375 -0.589355469
vn -0.911621094 0.161132812 0.377685547
vn -0.589355469 0.552734375 0.589355469
vn -0.698242188 0.158325195 0.698242188
vn -0.911621094 0.161132812 0.377685547
vn -0.987304688 0.158325195 0
vn -0.833007812 0.553222656 0
vn -0.911621094 0.161132812 -0.377685547
vn -0.911621094 0.161132812 -0.377685547
vn -0.698242188 0.158325195 -0.698242188
vn -0.589355469 0.552734375 -0.589355469
vn 0.377685547 0.161132812 0.911621094
vn 0.589355469 0.552734375 0.589355469
vn 0.698242188 0.158325195 0.698242188
vn 0.377685547 0.161132812 0.911621094
vn 1.78813934E-07 0.158325195 0.987304688
vn 1.1920929E-07 0.553222656 0.833007812
vn -0.377685547 0.161132812 0.911621094
vn -0.377685547 0.161132812 0.911621094
vn -0.698242188 0.158325195 0.698242188
vn -0.589355469 0.552734375 0.589355469
vn 0.911621094 0.161132812 -0.377685547
vn 0.589355469 0.552734375 -0.589355469
vn 0.698242188 0.158325195 -0.698242188
vn 0.911621094 0.161132812 -0.377685547
vn 0.987304688 0.158325195 0
vn 0.833007812 0.553222656 0
vn 0.911621094 0.161132812 0.377685547
vn 0.911621094 0.161132812 0.377685547
vn 0.698242188 0.158325195 0.698242188
vn 0.589355469 0.552734375 0.589355469
vn -0 1 1.1920929E-07
vn -0 1 1.1920929E-07
vn -0 1 -3.57627869E-07
vn -0 1 -3.57627869E-07
vn -0 1 8.94069672E-07
vn -0 1 8.94069672E-07
vn -0 1 1.7285347E-06
vn -0 1 1.7285347E-06
vn -0 1 8.94069672E-07
vn -0 1 8.94069672E-07
vn -0 1 0
vn -0 1 0
vn -0 1 0
vn -0 1 0
vn -0 1 -3.57627869E-07
vn -0 1 -3.57627869E-07
vn -0 1 -1.78813934E-07
vn -0 1 -1.78813934E-07
vn -0 1 -1.78813934E-07
vn -0 1 -1.78813934E-07
vn -0 1 3.57627869E-07
vn -0 1 3.57627869E-07
vn -0 1 -1.01327896E-06
vn -0 1 -1.01327896E-06
vn -0 1 0
vn -0 1 0
vn -0 1 -2.44379044E-06
vn -0 1 -2.44379044E-06
vn -0 1 -1.54972076E-06
vn -0 1 -1.54972076E-06
vn -0 1 -1.54972076E-06
vn -0 1 -1.54972076E-06
vn -0 1 5.96046448E-07
vn -0 1 5.96046448E-07
vn -0 1 1.1920929E-07
vn -0 1 1.1920929E-07
vn 0.923828125 9.53674316E-07 0.382568359
vn 0.871582031 -1.07288361E-06 0.490234375
vn 0.871582031 2.62260437E-06 0.490234375
vn 0.923828125 9.53674316E-07 0.382568359
vn 1 2.38418579E-07 -1.13248825E-06
vn 1 2.38418579E-07 1.1920929E-06
vn -1 0 -5.96046448E-07
vn -1 0 5.36441803E-07
vn -0.923828125 -1.1920929E-07 0.382568359
vn -0.923828125 -1.1920929E-07 0.382568359
vn 0.923828125 -4.76837158E-07 -0.382568359
vn 1 2.38418579E-07 1.1920929E-06
vn 1 2.38418579E-07 -1.13248825E-06
vn 0.923828125 -4.76837158E-07 -0.382568359
vn 0.871582031 1.66893005E-06 -0.490234375
vn 0.871582031 -2.20537186E-06 -0.490234375
vn -0.923828125 3.57627869E-07 -0.3828125
vn -0.871582031 -1.25169754E-06 -0.490234375
vn -0.923828125 3.57627869E-07 -0.3828125
vn -0.871582031 7.74860382E-07 -0.490234375
vn -0.382568359 -9.59634781E-06 -0.923828125
vn -0.331787109 -0.0162658691 -0.943359375
vn -0.431152344 -0.0721435547 -0.899414062
vn -0.382568359 2.62260437E-06 -0.923828125
vn -0.331787109 0.0162506104 -0.943359375
vn -0.431152344 0.0721435547 -0.899414062
vn -0 -6.55651093E-06 -1
vn -0 -6.55651093E-06 -1
vn 1 -1.1920929E-07 1.13248825E-06
vn 1 -1.1920929E-07 -1.13248825E-06
vn 0.923828125 -3.57627869E-07 -0.382568359
vn 0.923828125 -3.57627869E-07 -0.382568359
vn 0.872070312 0 -0.489013672
vn 0.872070312 -1.84774399E-06 -0.489013672
vn 0.382568359 3.39746475E-06 -0.923828125
vn 0.382568359 -7.86781311E-06 -0.923828125
vn 0.33203125 0.0161590576 -0.942871094
vn 0.431152344 0.0718383789 -0.899414062
vn 0.33203125 -0.0161743164 -0.942871094
vn 0.431152344 -0.0718383789 -0.899414062
vn -2.38418579E-07 5.30481339E-06 -1
vn -2.38418579E-07 5.30481339E-06 -1
vn -0.33203125 0.0161743164 -0.942871094
vn -0.431152344 0.0718383789 -0.899414062
vn 9.53674316E-07 -1.03712082E-05 -1
vn 9.53674316E-07 -1.03712082E-05 -1
vn -0.33203125 -0.0161743164 -0.942871094
vn -0.431152344 -0.0718383789 -0.899414062
vn -0.923828125 0 0.3828125
vn -1 0 -5.96046448E-07
vn -1 0 5.96046448E-07
vn -0.923828125 0 0.3828125
vn -0.871582031 -7.74860382E-07 0.490234375
vn -0.871582031 7.74860382E-07 0.490234375
vn -0 3.75509262E-06 1
vn -0 3.75509262E-06 1
vn 0.33203125 0.0161590576 0.942871094
vn 0.431152344 0.0718383789 0.899414062
vn 0.872070312 7.15255737E-07 0.489013672
vn 0.382568359 2.20537186E-06 0.923828125
vn 0.382568359 -6.13927841E-06 0.923828125
vn 0.872070312 -6.55651093E-07 0.489013672
vn 0.33203125 -0.0161743164 0.942871094
vn 0.431152344 -0.0718383789 0.899414062
vn -1.13248825E-06 -8.70227814E-06 1
vn 0.923828125 1.78813934E-07 0.382568359
vn 0.923828125 1.78813934E-07 0.382568359
vn 1 -1.1920929E-07 1.13248825E-06
vn 1 -1.1920929E-07 -1.13248825E-06
vn 0.33203125 -0.0161743164 0.942871094
vn -1.13248825E-06 -8.70227814E-06 1
vn -1.13248825E-06 -8.70227814E-06 1
vn -0.33203125 -0.0161743164 0.942871094
vn -0.431152344 -0.0718383789 0.899414062
vn -0.872070312 -1.01327896E-06 0.489013672
vn -0.382568359 -6.13927841E-06 0.923828125
vn -0.382568359 3.03983688E-06 0.923828125
vn -0.872070312 4.76837158E-07 0.489013672
vn -0.923828125 -1.1920929E-07 0.382568359
vn -0.923828125 -1.1920929E-07 0.382568359
vn -0.33203125 0.0161590576 0.942871094
vn -0.431152344 0.0718383789 0.899414062
vn -0 3.75509262E-06 1
vn -0 3.75509262E-06 1
vn -0.331787109 -0.0162658691 -0.943359375
vn -8.94069672E-07 1.25169754E-06 -1
vn -0.431152344 -0.0721435547 -0.899414062
vn -8.94069672E-07 1.25169754E-06 -1
vn 0.331787109 -0.0162353516 -0.943359375
vn 0.431152344 -0.0720825195 -0.899414062
vn 0.871582031 1.66893005E-06 -0.490234375
vn 0.382568359 1.2755394E-05 -0.923828125
vn 0.382568359 -1.01923943E-05 -0.923828125
vn 0.871582031 -2.20537186E-06 -0.490234375
vn 0.331787109 0.0162353516 -0.943359375
vn 0.431152344 0.0721435547 -0.899414062
vn -0 -6.55651093E-06 -1
vn -0 -6.55651093E-06 -1
vn 0.70703125 -1.96695328E-06 -0.70703125
vn 0.70703125 -1.96695328E-06 -0.70703125
vn 0.70703125 -1.96695328E-06 -0.70703125
vn 0.70703125 -1.96695328E-06 -0.70703125
vn -0 -1 1.78813934E-06
vn -0 -1 0
vn -0 -1 0
vn -0 -1 1.78813934E-06
vn -0 -1 3.57627869E-07
vn -0 -1 3.57627869E-07
vn -0 -1 6.55651093E-07
vn -0 -1 6.55651093E-07
vn -0 -1 7.15255737E-07
vn -0 -1 7.15255737E-07
vn -0.70703125 5.90085983E-06 -0.70703125
vn -0.70703125 5.90085983E-06 -0.70703125
vn -0.70703125 5.90085983E-06 -0.70703125
vn -0.70703125 5.90085983E-06 -0.70703125
vn -0 1 -1.66893005E-06
vn -0 1 -1.66893005E-06
vn -0 1 -1.54972076E-06
vn -0 1 -1.54972076E-06
vn -0 1 -8.34465027E-07
vn -0 1 -8.34465027E-07
vn -0 1 1.78813934E-06
vn -0 1 1.78813934E-06
vn -0 1 0
vn -0 1 0
vn -0.70703125 -9.59634781E-06 0.70703125
vn -0.70703125 -9.59634781E-06 0.70703125
vn -0.70703125 -9.59634781E-06 0.70703125
vn -0.70703125 -9.59634781E-06 0.70703125
vn -0 -1 0
vn -0 -1 0
vn -0 -1 0
vn -0 -1 0
vn -0 -1 9.53674316E-07
vn -0 -1 9.53674316E-07
vn -0 -1 -1.78813934E-06
vn -0 -1 -1.78813934E-06
vn -0 -1 1.90734863E-06
vn -0 -1 1.90734863E-06
vn 0.70703125 4.529953E-06 0.70703125
vn 0.70703125 4.529953E-06 0.70703125
vn 0.70703125 4.529953E-06 0.70703125
vn 0.70703125 4.529953E-06 0.70703125
vn -0 1 2.38418579E-07
vn -0 1 2.38418579E-07
vn -0 1 -1.54972076E-06
vn -0 1 -1.54972076E-06
vn -0 1 1.1920929E-07
vn -0 1 1.1920929E-07
vn -0 1 1.78813934E-06
vn -0 1 1.78813934E-06
vn -0 1 0
vn -0 1 0
vn -0.70703125 0 0.70703125
vn -0.70703125 0 0.70703125
vn -0.382568359 0 0.923828125
vn -0.382568359 0 0.923828125
vn -0 0 1
vn -0 0 1
vn 0.382568359 0 0.923828125
vn 0.382568359 0 0.923828125
vn -0.70703125 0 0.70703125
vn -0.382568359 0 0.923828125
vn -0.382568359 0 0.923828125
vn -0.70703125 0 0.70703125
vn -0.923828125 0 0.382568359
vn -0.923828125 0 0.382568359
vn -1 0 0
vn -1 0 0
vn 0.70703125 0 0.70703125
vn 0.70703125 0 0.70703125
vn 0.923828125 0 0.382568359
vn 0.923828125 0 0.382568359
vn 1 0 0
vn 1 0 0
vn 0.923828125 0 -0.382568359
vn 0.923828125 0 -0.382568359
vn -0 0 -1
vn -0 0 -1
vn -0.382568359 0 -0.923828125
vn -0.382568359 0 -0.923828125
vn -0.923828125 0 -0.382568359
vn -1 0 5.36441803E-07
vn -1 0 -5.96046448E-07
vn -0.923828125 0 -0.382568359
vn -0.872070312 8.34465027E-07 -0.489013672
vn -0.872070312 -1.01327896E-06 -0.489013672
vn -0.382568359 -6.19888306E-06 -0.923828125
vn -0.33203125 -0.0161743164 -0.942871094
vn -0.431152344 -0.0718383789 -0.899414062
vn -0.382568359 4.529953E-06 -0.923828125
vn -0.33203125 0.0161743164 -0.942871094
vn -0.431152344 0.0718383789 -0.899414062
vn -1 0 5.96046448E-07
vn -1 0 -5.96046448E-07
vn -0.923828125 3.57627869E-07 -0.3828125
vn -0.923828125 3.57627869E-07 -0.3828125
vn 2.38418579E-07 -4.05311584E-06 1
vn 0.331787109 0.0162353516 0.943359375
vn 0.431152344 0.0721435547 0.899414062
vn 0.871582031 -1.07288361E-06 0.490234375
vn 2.38418579E-07 -4.05311584E-06 1
vn 0.382568359 -1.12056732E-05 0.923828125
vn 0.382568359 1.07288361E-05 0.923828125
vn 0.871582031 2.62260437E-06 0.490234375
vn -0.331787109 0.0162658691 0.943359375
vn -0.431152344 0.0721435547 0.899414062
vn -0.871582031 7.74860382E-07 0.490234375
vn -0.382568359 5.78165054E-06 0.923828125
vn 0.331787109 -0.0162353516 0.943359375
vn 0.431152344 -0.0721435547 0.899414062
vn -0.871582031 -7.74860382E-07 0.490234375
vn -0.382568359 -3.21865082E-06 0.923828125
vn 2.98023224E-07 5.30481339E-06 1
vn 2.98023224E-07 5.30481339E-06 1
vn -0.331787109 -0.0162506104 0.943359375
vn -0.431152344 -0.0721435547 0.899414062
vn -0 1 -1.78813934E-07
vn 0.201171875 0.958496094 -0.201171875
vn -0 1 -1.78813934E-07
vn 0.284667969 0.958496094 0
vn -0 1 -4.17232513E-07
vn -0 1 0
vn -0 1 2.38418579E-07
vn -0 1 -2.38418579E-07
vn -0 1 2.38418579E-07
vn -0 0.958496094 -0.284667969
vn -0 1 -1.78813934E-07
vn -0 1 0
vn -0 1 -2.38418579E-07
vn 0.201171875 0.958496094 0.201171875
vn -0 1 5.96046448E-07
vn -0 1 0
vn -0 1 0
vn -0.201171875 0.958496094 -0.201171875
vn -0 1 -5.96046448E-07
vn -0 1 0
vn -0 1 0
vn -0 0.958496094 0.284667969
vn -0 1 1.78813934E-07
vn -0 1 0
vn -0 1 0
vn -0.284667969 0.958496094 0
vn -0 1 0
vn -0 1 -2.38418579E-07
vn -0 1 0
vn -0.201171875 0.958496094 0.201171875
vn -0 1 4.17232513E-07
vn -0 1 -2.38418579E-07
vn 0.126586914 0.943847656 0.305664062
vn 0.237792969 0.941894531 0.237792969
vn 0.305664062 0.943847656 0.126586914
vn 0.126586914 0.943847656 0.305664062
vn 0.305664062 0.943847656 0.126586914
vn -0 0.941894531 0.336181641
vn 0.336181641 0.941894531 1.1920929E-07
vn -0.126586914 0.943847656 0.305664062
vn -0.126586914 0.943847656 0.305664062
vn 0.305664062 0.943847656 -0.126586914
vn 0.305664062 0.943847656 -0.126586914
vn -0.237792969 0.941894531 0.237792969
vn 0.237792969 0.941894531 -0.237792969
vn -0.305664062 0.943847656 0.126586914
vn -0.305664062 0.943847656 0.126586914
vn 0.126586914 0.943847656 -0.305664062
vn 0.126586914 0.943847656 -0.305664062
vn -0.336181641 0.941894531 -1.1920929E-07
vn -0 0.941894531 -0.336181641
vn -0.305664062 0.943847656 -0.126586914
vn -0.305664062 0.943847656 -0.126586914
vn -0.126586914 0.943847656 -0.305664062
vn -0.126586914 0.943847656 -0.305664062
vn -0.237792969 0.941894531 -0.237792969
g Butane_0
f 3/3/3 2/2/2 1/1/1
f 6/6/6 5/5/5 4/4/4
f 5/5/5 7/7/7 4/4/4
f 4/4/4 7/7/7 8/8/8
f 9/9/9 4/4/4 8/8/8
f 10/10/10 7/7/7 5/5/5
f 11/11/11 10/10/10 5/5/5
f 8/8/8 7/7/7 12/12/12
f 13/13/13 8/8/8 12/12/12
f 14/14/14 7/7/7 10/10/10
f 15/15/15 14/14/14 10/10/10
f 12/12/12 7/7/7 16/16/16
f 17/17/17 12/12/12 16/16/16
f 18/18/18 7/7/7 14/14/14
f 16/16/16 7/7/7 18/18/18
f 19/19/19 18/18/18 14/14/14
f 20/20/20 16/16/16 18/18/18
f 23/23/23 22/22/22 21/21/21
f 24/24/24 23/23/23 21/21/21
f 24/24/24 21/21/21 25/25/25
f 21/21/21 26/26/26 25/25/25
f 25/25/25 26/26/26 27/27/27
f 28/28/28 25/25/25 27/27/27
f 31/31/31 30/30/30 29/29/29
f 30/30/30 32/32/32 29/29/29
f 33/33/33 32/32/32 30/30/30
f 34/34/34 33/33/33 30/30/30
f 34/34/34 35/35/35 33/33/33
f 35/35/35 36/36/36 33/33/33
f 39/39/39 38/38/38 37/37/37
f 40/40/40 39/39/39 37/37/37
f 43/43/43 42/42/42 41/41/41
f 44/44/44 43/43/43 41/41/41
f 44/44/44 41/41/41 45/45/45
f 41/41/41 46/46/46 45/45/45
f 49/49/49 48/48/48 47/47/47
f 48/48/48 50/50/50 47/47/47
f 47/47/47 50/50/50 51/51/51
f 52/52/52 47/47/47 51/51/51
f 51/51/51 50/50/50 53/53/53
f 54/54/54 51/51/51 53/53/53
f 55/55/55 50/50/50 48/48/48
f 56/56/56 55/55/55 48/48/48
f 57/57/57 50/50/50 55/55/55
f 58/58/58 57/57/57 55/55/55
f 59/59/59 50/50/50 57/57/57
f 60/60/60 59/59/59 57/57/57
f 61/61/61 50/50/50 59/59/59
f 53/53/53 50/50/50 61/61/61
f 62/62/62 61/61/61 59/59/59
f 63/63/63 53/53/53 61/61/61
f 47/47/47 65/65/65 64/64/64
f 66/66/66 47/47/47 64/64/64
f 47/47/47 67/67/67 65/65/65
f 66/66/66 64/64/64 68/68/68
f 67/67/67 69/69/69 65/65/65
f 48/48/48 66/66/66 68/68/68
f 67/67/67 70/70/70 69/69/69
f 68/68/68 71/71/71 48/48/48
f 70/70/70 72/72/72 69/69/69
f 71/71/71 73/73/73 48/48/48
f 70/70/70 74/74/74 72/72/72
f 71/71/71 75/75/75 73/73/73
f 74/74/74 76/76/76 72/72/72
f 75/75/75 77/77/77 73/73/73
f 74/74/74 53/53/53 76/76/76
f 77/77/77 75/75/75 78/78/78
f 53/53/53 79/79/79 76/76/76
f 80/80/80 77/77/77 78/78/78
f 53/53/53 81/81/81 79/79/79
f 80/80/80 78/78/78 82/82/82
f 81/81/81 83/83/83 79/79/79
f 84/84/84 80/80/80 82/82/82
f 81/81/81 85/85/85 83/83/83
f 84/84/84 82/82/82 86/86/86
f 85/85/85 87/87/87 83/83/83
f 88/88/88 84/84/84 86/86/86
f 85/85/85 89/89/89 87/87/87
f 88/88/88 86/86/86 90/90/90
f 89/89/89 91/91/91 87/87/87
f 92/92/92 88/88/88 90/90/90
f 92/92/92 90/90/90 91/91/91
f 89/89/89 92/92/92 91/91/91
f 95/95/95 94/94/94 93/93/93
f 96/96/96 94/94/94 95/95/95
f 97/97/97 96/96/96 95/95/95
f 97/97/97 98/98/98 96/96/96
f 98/98/98 99/99/99 96/96/96
f 100/100/100 99/99/99 98/98/98
f 101/101/101 100/100/100 98/98/98
f 104/104/104 103/103/103 102/102/102
f 104/104/104 102/102/102 105/105/105
f 102/102/102 106/106/106 105/105/105
f 109/109/109 108/108/108 107/107/107
f 108/108/108 110/110/110 107/107/107
f 111/111/111 110/110/110 108/108/108
f 112/112/112 111/111/111 108/108/108
f 112/112/112 113/113/113 111/111/111
f 116/116/116 115/115/115 114/114/114
f 115/115/115 117/117/117 114/114/114
f 118/118/118 117/117/117 115/115/115
f 119/119/119 118/118/118 115/115/115
f 119/119/119 120/120/120 118/118/118
f 120/120/120 121/121/121 118/118/118
f 122/122/122 121/121/121 120/120/120
f 123/123/123 122/122/122 120/120/120
f 126/126/126 125/125/125 124/124/124
f 127/127/127 126/126/126 124/124/124
f 130/130/130 129/129/129 128/128/128
f 131/131/131 130/130/130 128/128/128
f 131/131/131 128/128/128 132/132/132
f 128/128/128 133/133/133 132/132/132
f 132/132/132 133/133/133 134/134/134
f 135/135/135 132/132/132 134/134/134
f 135/135/135 134/134/134 136/136/136
f 134/134/134 137/137/137 136/136/136
f 136/136/136 137/137/137 138/138/138
f 139/139/139 136/136/136 138/138/138
f 139/139/139 138/138/138 140/140/140
f 138/138/138 141/141/141 140/140/140
f 140/140/140 141/141/141 142/142/142
f 143/143/143 140/140/140 142/142/142
f 143/143/143 142/142/142 144/144/144
f 142/142/142 145/145/145 144/144/144
f 148/148/148 147/147/147 146/146/146
f 149/149/149 148/148/148 146/146/146
f 149/149/149 146/146/146 150/150/150
f 146/146/146 151/151/151 150/150/150
f 150/150/150 151/151/151 152/152/152
f 153/153/153 150/150/150 152/152/152
f 153/153/153 152/152/152 154/154/154
f 152/152/152 155/155/155 154/154/154
f 154/154/154 155/155/155 156/156/156
f 157/157/157 154/154/154 156/156/156
f 157/157/157 156/156/156 158/158/158
f 156/156/156 159/159/159 158/158/158
f 158/158/158 159/159/159 160/160/160
f 161/161/161 158/158/158 160/160/160
f 161/161/161 160/160/160 162/162/162
f 160/160/160 163/163/163 162/162/162
f 166/166/166 165/165/165 164/164/164
f 167/167/167 166/166/166 164/164/164
f 167/167/167 164/164/164 168/168/168
f 164/164/164 169/169/169 168/168/168
f 168/168/168 169/169/169 170/170/170
f 171/171/171 168/168/168 170/170/170
f 171/171/171 170/170/170 172/172/172
f 170/170/170 173/173/173 172/172/172
f 176/176/176 175/175/175 174/174/174
f 177/177/177 176/176/176 174/174/174
f 177/177/177 174/174/174 178/178/178
f 174/174/174 179/179/179 178/178/178
f 178/178/178 179/179/179 180/180/180
f 181/181/181 178/178/178 180/180/180
f 181/181/181 180/180/180 182/182/182
f 180/180/180 183/183/183 182/182/182
f 186/186/186 185/185/185 184/184/184
f 187/187/187 186/186/186 184/184/184
f 187/187/187 184/184/184 188/188/188
f 184/184/184 189/189/189 188/188/188
f 188/188/188 189/189/189 190/190/190
f 191/191/191 188/188/188 190/190/190
f 191/191/191 190/190/190 192/192/192
f 190/190/190 193/193/193 192/192/192
f 196/196/196 195/195/195 194/194/194
f 197/197/197 196/196/196 194/194/194
f 197/197/197 194/194/194 198/198/198
f 194/194/194 199/199/199 198/198/198
f 198/198/198 199/199/199 200/200/200
f 201/201/201 198/198/198 200/200/200
f 201/201/201 200/200/200 202/202/202
f 200/200/200 203/203/203 202/202/202
f 206/206/206 205/205/205 204/204/204
f 207/207/207 206/206/206 204/204/204
f 207/207/207 208/208/208 206/206/206
f 208/208/208 209/209/209 206/206/206
f 210/210/210 209/209/209 208/208/208
f 211/211/211 210/210/210 208/208/208
f 211/211/211 212/212/212 210/210/210
f 212/212/212 213/213/213 210/210/210
f 214/214/214 213/213/213 212/212/212
f 215/215/215 214/214/214 212/212/212
f 215/215/215 216/216/216 214/214/214
f 216/216/216 217/217/217 214/214/214
f 218/218/218 217/217/217 216/216/216
f 219/219/219 218/218/218 216/216/216
f 219/219/219 220/220/220 218/218/218
f 220/220/220 221/221/221 218/218/218
f 224/224/224 223/223/223 222/222/222
f 225/225/225 224/224/224 222/222/222
f 225/225/225 226/226/226 224/224/224
f 226/226/226 227/227/227 224/224/224
f 228/228/228 227/227/227 226/226/226
f 229/229/229 228/228/228 226/226/226
f 229/229/229 230/230/230 228/228/228
f 230/230/230 231/231/231 228/228/228
f 232/232/232 231/231/231 230/230/230
f 233/233/233 232/232/232 230/230/230
f 233/233/233 234/234/234 232/232/232
f 234/234/234 235/235/235 232/232/232
f 236/236/236 235/235/235 234/234/234
f 237/237/237 236/236/236 234/234/234
f 237/237/237 238/238/238 236/236/236
f 238/238/238 239/239/239 236/236/236
f 242/242/242 241/241/241 240/240/240
f 243/243/243 242/242/242 240/240/240
f 243/243/243 240/240/240 244/244/244
f 240/240/240 245/245/245 244/244/244
f 248/248/248 247/247/247 246/246/246
f 249/249/249 248/248/248 246/246/246
f 252/252/252 251/251/251 250/250/250
f 253/253/253 252/252/252 250/250/250
f 253/253/253 250/250/250 254/254/254
f 250/250/250 255/255/255 254/254/254
f 258/258/258 257/257/257 256/256/256
f 257/257/257 259/259/259 256/256/256
f 257/257/257 260/260/260 259/259/259
f 261/261/261 260/260/260 257/257/257
f 262/262/262 261/261/261 257/257/257
f 260/260/260 263/263/263 259/259/259
f 259/259/259 263/263/263 264/264/264
f 265/265/265 259/259/259 264/264/264
f 265/265/265 264/264/264 266/266/266
f 264/264/264 267/267/267 266/266/266
f 270/270/270 269/269/269 268/268/268
f 271/271/271 270/270/270 268/268/268
f 271/271/271 272/272/272 270/270/270
f 272/272/272 273/273/273 270/270/270
f 272/272/272 274/274/274 273/273/273
f 274/274/274 275/275/275 273/273/273
f 276/276/276 274/274/274 272/272/272
f 277/277/277 276/276/276 272/272/272
f 273/273/273 275/275/275 278/278/278
f 279/279/279 273/273/273 278/278/278
f 277/277/277 280/280/280 276/276/276
f 280/280/280 281/281/281 276/276/276
f 282/282/282 281/281/281 280/280/280
f 283/283/283 282/282/282 280/280/280
f 279/279/279 278/278/278 284/284/284
f 278/278/278 285/285/285 284/284/284
f 284/284/284 285/285/285 286/286/286
f 287/287/287 284/284/284 286/286/286
f 290/290/290 289/289/289 288/288/288
f 291/291/291 290/290/290 288/288/288
f 291/291/291 288/288/288 292/292/292
f 288/288/288 293/293/293 292/292/292
f 296/296/296 295/295/295 294/294/294
f 297/297/297 296/296/296 294/294/294
f 297/297/297 298/298/298 296/296/296
f 298/298/298 299/299/299 296/296/296
f 300/300/300 299/299/299 298/298/298
f 301/301/301 300/300/300 298/298/298
f 302/302/302 300/300/300 301/301/301
f 303/303/303 302/302/302 301/301/301
f 303/303/303 304/304/304 302/302/302
f 305/305/305 301/301/301 298/298/298
f 306/306/306 305/305/305 298/298/298
f 306/306/306 307/307/307 305/305/305
f 307/307/307 308/308/308 305/305/305
f 311/311/311 310/310/310 309/309/309
f 312/312/312 310/310/310 311/311/311
f 313/313/313 312/312/312 311/311/311
f 313/313/313 314/314/314 312/312/312
f 314/314/314 315/315/315 312/312/312
f 316/316/316 315/315/315 314/314/314
f 317/317/317 316/316/316 314/314/314
f 317/317/317 314/314/314 318/318/318
f 319/319/319 317/317/317 318/318/318
f 320/320/320 316/316/316 317/317/317
f 321/321/321 320/320/320 317/317/317
f 321/321/321 322/322/322 320/320/320
f 322/322/322 323/323/323 320/320/320
f 326/326/326 325/325/325 324/324/324
f 325/325/325 327/327/327 324/324/324
f 328/328/328 327/327/327 325/325/325
f 329/329/329 328/328/328 325/325/325
f 329/329/329 330/330/330 328/328/328
f 330/330/330 331/331/331 328/328/328
f 332/332/332 331/331/331 330/330/330
f 333/333/333 332/332/332 330/330/330
f 334/334/334 332/332/332 333/333/333
f 335/335/335 334/334/334 333/333/333
f 335/335/335 336/336/336 334/334/334
f 336/336/336 337/337/337 334/334/334
f 340/340/340 339/339/339 338/338/338
f 341/341/341 340/340/340 338/338/338
f 344/344/344 343/343/343 342/342/342
f 345/345/345 344/344/344 342/342/342
f 345/345/345 342/342/342 346/346/346
f 342/342/342 347/347/347 346/346/346
f 346/346/346 347/347/347 348/348/348
f 349/349/349 346/346/346 348/348/348
f 349/349/349 348/348/348 350/350/350
f 348/348/348 351/351/351 350/350/350
f 354/354/354 353/353/353 352/352/352
f 355/355/355 354/354/354 352/352/352
f 358/358/358 357/357/357 356/356/356
f 359/359/359 358/358/358 356/356/356
f 359/359/359 360/360/360 358/358/358
f 360/360/360 361/361/361 358/358/358
f 362/362/362 361/361/361 360/360/360
f 363/363/363 362/362/362 360/360/360
f 363/363/363 364/364/364 362/362/362
f 364/364/364 365/365/365 362/362/362
f 368/368/368 367/367/367 366/366/366
f 369/369/369 368/368/368 366/366/366
f 372/372/372 371/371/371 370/370/370
f 373/373/373 372/372/372 370/370/370
f 373/373/373 370/370/370 374/374/374
f 370/370/370 375/375/375 374/374/374
f 374/374/374 375/375/375 376/376/376
f 377/377/377 374/374/374 376/376/376
f 377/377/377 376/376/376 378/378/378
f 376/376/376 379/379/379 378/378/378
f 382/382/382 381/381/381 380/380/380
f 383/383/383 382/382/382 380/380/380
f 386/386/386 385/385/385 384/384/384
f 387/387/387 386/386/386 384/384/384
f 387/387/387 388/388/388 386/386/386
f 388/388/388 389/389/389 386/386/386
f 390/390/390 389/389/389 388/388/388
f 391/391/391 390/390/390 388/388/388
f 391/391/391 392/392/392 390/390/390
f 392/392/392 393/393/393 390/390/390
f 396/396/396 395/395/395 394/394/394
f 397/397/397 396/396/396 394/394/394
f 397/397/397 398/398/398 396/396/396
f 398/398/398 399/399/399 396/396/396
f 400/400/400 399/399/399 398/398/398
f 401/401/401 400/400/400 398/398/398
f 404/404/404 403/403/403 402/402/402
f 403/403/403 405/405/405 402/402/402
f 402/402/402 405/405/405 406/406/406
f 407/407/407 402/402/402 406/406/406
f 407/407/407 406/406/406 408/408/408
f 406/406/406 409/409/409 408/408/408
f 412/412/412 411/411/411 410/410/410
f 413/413/413 412/412/412 410/410/410
f 413/413/413 414/414/414 412/412/412
f 414/414/414 415/415/415 412/412/412
f 416/416/416 415/415/415 414/414/414
f 417/417/417 416/416/416 414/414/414
f 420/420/420 419/419/419 418/418/418
f 421/421/421 420/420/420 418/418/418
f 424/424/424 423/423/423 422/422/422
f 425/425/425 424/424/424 422/422/422
f 425/425/425 422/422/422 426/426/426
f 422/422/422 427/427/427 426/426/426
f 427/427/427 428/428/428 426/426/426
f 429/429/429 428/428/428 427/427/427
f 430/430/430 429/429/429 427/427/427
f 428/428/428 431/431/431 426/426/426
f 426/426/426 431/431/431 432/432/432
f 433/433/433 426/426/426 432/432/432
f 436/436/436 435/435/435 434/434/434
f 437/437/437 436/436/436 434/434/434
f 440/440/440 439/439/439 438/438/438
f 440/440/440 441/441/441 439/439/439
f 439/439/439 442/442/442 438/438/438
f 441/441/441 443/443/443 439/439/439
f 444/444/444 443/443/443 441/441/441
f 445/445/445 444/444/444 441/441/441
f 438/438/438 442/442/442 446/446/446
f 447/447/447 438/438/438 446/446/446
f 447/447/447 446/446/446 448/448/448
f 446/446/446 449/449/449 448/448/448
f 450/450/450 444/444/444 445/445/445
f 451/451/451 450/450/450 445/445/445
f 448/448/448 449/449/449 452/452/452
f 449/449/449 453/453/453 452/452/452
f 451/451/451 454/454/454 450/450/450
f 454/454/454 455/455/455 450/450/450
f 452/452/452 453/453/453 456/456/456
f 456/456/456 455/455/455 454/454/454
f 457/457/457 452/452/452 456/456/456
f 457/457/457 456/456/456 454/454/454
f 460/460/460 459/459/459 458/458/458
f 460/460/460 458/458/458 461/461/461
f 459/459/459 462/462/462 458/458/458
f 458/458/458 463/463/463 461/461/461
f 464/464/464 462/462/462 459/459/459
f 461/461/461 463/463/463 465/465/465
f 466/466/466 464/464/464 459/459/459
f 466/466/466 467/467/467 464/464/464
f 467/467/467 468/468/468 464/464/464
f 469/469/469 468/468/468 467/467/467
f 470/470/470 461/461/461 465/465/465
f 470/470/470 465/465/465 471/471/471
f 465/465/465 472/472/472 471/471/471
f 471/471/471 472/472/472 473/473/473
f 474/474/474 469/469/469 467/467/467
f 474/474/474 475/475/475 469/469/469
f 475/475/475 476/476/476 469/469/469
f 477/477/477 476/476/476 475/475/475
f 478/478/478 471/471/471 473/473/473
f 478/478/478 473/473/473 479/479/479
f 473/473/473 480/480/480 479/479/479
f 479/479/479 480/480/480 481/481/481
f 482/482/482 477/477/477 475/475/475
f 482/482/482 483/483/483 477/477/477
f 483/483/483 484/484/484 477/477/477
f 485/485/485 484/484/484 483/483/483
f 486/486/486 479/479/479 481/481/481
f 486/486/486 481/481/481 487/487/487
f 481/481/481 488/488/488 487/487/487
f 487/487/487 488/488/488 485/485/485
f 489/489/489 485/485/485 483/483/483
f 489/489/489 487/487/487 485/485/485
f 491/491/491 471/471/471 490/490/490
f 492/492/492 471/471/471 491/491/491
f 493/493/493 491/491/491 490/490/490
f 494/494/494 492/492/492 491/491/491
f 493/493/493 490/490/490 495/495/495
f 490/490/490 479/479/479 495/495/495
f 494/494/494 496/496/496 492/492/492
f 496/496/496 461/461/461 492/492/492
f 495/495/495 479/479/479 497/497/497
f 498/498/498 495/495/495 497/497/497
f 499/499/499 461/461/461 496/496/496
f 500/500/500 499/499/499 496/496/496
f 498/498/498 497/497/497 501/501/501
f 497/497/497 487/487/487 501/501/501
f 500/500/500 502/502/502 499/499/499
f 502/502/502 459/459/459 499/499/499
f 501/501/501 487/487/487 503/503/503
f 504/504/504 501/501/501 503/503/503
f 505/505/505 459/459/459 502/502/502
f 506/506/506 505/505/505 502/502/502
f 504/504/504 503/503/503 507/507/507
f 503/503/503 483/483/483 507/507/507
f 506/506/506 508/508/508 505/505/505
f 508/508/508 467/467/467 505/505/505
f 507/507/507 483/483/483 509/509/509
f 510/510/510 507/507/507 509/509/509
f 511/511/511 467/467/467 508/508/508
f 512/512/512 511/511/511 508/508/508
f 510/510/510 509/509/509 513/513/513
f 512/512/512 513/513/513 511/511/511
f 509/509/509 475/475/475 513/513/513
f 513/513/513 475/475/475 511/511/511
