g FloorLevel_Jail_Bars_3
v 28.1029434 2.77960539 -10.1487198
v 28.1029434 0.472400129 -10.1487198
v 28.1507511 0.472400129 -10.1487198
v 28.1507511 2.77960539 -10.1487198
v 28.1029434 2.77960515 -10.1087198
v 28.1507511 2.77960515 -10.1087198
v 28.1507511 0.472400129 -10.1087198
v 28.1029434 0.472400129 -10.1087198
v 28.1507511 2.77960515 -10.1087198
v 28.1507511 2.77960539 -10.1487198
v 28.1507511 0.472400129 -10.1487198
v 28.1507511 0.472400129 -10.1087198
v 28.1029434 0.472400129 -10.1087198
v 28.1029434 0.472400129 -10.1487198
v 28.1029434 2.77960539 -10.1487198
v 28.1029434 2.77960515 -10.1087198
v 28.4045506 2.77960539 -10.1487198
v 28.4045506 0.472400129 -10.1487198
v 28.4523544 0.472400129 -10.1487198
v 28.4523544 2.77960539 -10.1487198
v 28.4045506 2.77960515 -10.1087198
v 28.4523544 2.77960515 -10.1087198
v 28.4523544 0.472400129 -10.1087198
v 28.4045506 0.472400129 -10.1087198
v 28.4523544 2.77960515 -10.1087198
v 28.4523544 2.77960539 -10.1487198
v 28.4523544 0.472400129 -10.1487198
v 28.4523544 0.472400129 -10.1087198
v 28.4045506 0.472400129 -10.1087198
v 28.4045506 0.472400129 -10.1487198
v 28.4045506 2.77960539 -10.1487198
v 28.4045506 2.77960515 -10.1087198
v 27.9365921 0.495682985 -10.0605421
v 27.9365921 0.495682985 -10.1945133
v 28.6125622 0.495682985 -10.1945133
v 28.6125622 0.495682985 -10.0605421
v 28.0015907 0.430682987 -10.179513
v 28.0015907 0.0472264104 -10.179513
v 28.5475636 0.0472264104 -10.179513
v 28.5475636 0.430682987 -10.179513
v 28.5475636 0.430682987 -10.0755424
v 28.5475636 0.0472264104 -10.0755424
v 28.0015907 0.0472264104 -10.0755424
v 28.0015907 0.430682987 -10.0755424
v 27.9365921 0.495682985 -10.1945133
v 27.9765911 0.455682963 -10.1945133
v 28.5725632 0.455682963 -10.1945133
v 28.6125622 0.495682985 -10.1945133
v 28.6125622 0.495682985 -10.1945133
v 28.5725632 0.455682963 -10.1945133
v 28.5725632 0.02222641 -10.1945133
v 28.6125622 -0.0177735891 -10.1945133
v 28.6125622 -0.0177735891 -10.1945133
v 28.5725632 0.02222641 -10.1945133
v 27.9765911 0.02222641 -10.1945133
v 27.9365921 -0.0177735891 -10.1945133
v 27.9365921 -0.0177735891 -10.1945133
v 27.9765911 0.02222641 -10.1945133
v 27.9765911 0.455682963 -10.1945133
v 27.9365921 0.495682985 -10.1945133
v 28.6125622 0.495682985 -10.0605421
v 28.5725632 0.455682963 -10.0605421
v 27.9765911 0.455682963 -10.0605421
v 27.9365921 0.495682985 -10.0605421
v 27.9365921 0.495682985 -10.0605421
v 27.9765911 0.455682963 -10.0605421
v 27.9765911 0.02222641 -10.0605421
v 27.9365921 -0.0177735891 -10.0605421
v 27.9365921 -0.0177735891 -10.0605421
v 27.9765911 0.02222641 -10.0605421
v 28.5725632 0.02222641 -10.0605421
v 28.6125622 -0.0177735891 -10.0605421
v 28.6125622 -0.0177735891 -10.0605421
v 28.5725632 0.02222641 -10.0605421
v 28.5725632 0.455682963 -10.0605421
v 28.6125622 0.495682985 -10.0605421
v 27.9765911 0.455682963 -10.1945133
v 28.0015907 0.430682987 -10.179513
v 28.5475636 0.430682987 -10.179513
v 28.5725632 0.455682963 -10.1945133
v 28.5725632 0.455682963 -10.1945133
v 28.5475636 0.430682987 -10.179513
v 28.5475636 0.0472264104 -10.179513
v 28.5725632 0.02222641 -10.1945133
v 28.5725632 0.02222641 -10.1945133
v 28.5475636 0.0472264104 -10.179513
v 28.0015907 0.0472264104 -10.179513
v 27.9765911 0.02222641 -10.1945133
v 27.9765911 0.02222641 -10.1945133
v 28.0015907 0.0472264104 -10.179513
v 28.0015907 0.430682987 -10.179513
v 27.9765911 0.455682963 -10.1945133
v 28.5725632 0.455682963 -10.0605421
v 28.5475636 0.430682987 -10.0755424
v 28.0015907 0.430682987 -10.0755424
v 27.9765911 0.455682963 -10.0605421
v 27.9765911 0.455682963 -10.0605421
v 28.0015907 0.430682987 -10.0755424
v 28.0015907 0.0472264104 -10.0755424
v 27.9765911 0.02222641 -10.0605421
v 27.9765911 0.02222641 -10.0605421
v 28.0015907 0.0472264104 -10.0755424
v 28.5475636 0.0472264104 -10.0755424
v 28.5725632 0.02222641 -10.0605421
v 28.5725632 0.02222641 -10.0605421
v 28.5475636 0.0472264104 -10.0755424
v 28.5475636 0.430682987 -10.0755424
v 28.5725632 0.455682963 -10.0605421
v 28.6101265 2.81105471 -10.0739088
v 28.5701256 2.77106023 -10.0739088
v 27.9728069 2.77105474 -10.0739088
v 27.9328079 2.81106019 -10.0739088
v 27.9328079 2.81106019 -10.0739088
v 27.9728069 2.77105474 -10.0739088
v 27.9728069 0.491984636 -10.0739088
v 27.9328079 0.491984159 -10.0739088
v 28.6101265 0.491984159 -10.0739088
v 28.5701256 0.491984636 -10.0739088
v 28.5701256 2.77106023 -10.0739088
v 28.6101265 2.81105471 -10.0739088
v 28.6101265 2.81106019 -10.1659079
v 27.9328079 2.81106019 -10.1659079
v 27.9728069 2.77106023 -10.1659079
v 28.5701256 2.77106023 -10.1659079
v 27.9328079 2.81106019 -10.1659079
v 27.9328079 0.491984159 -10.1659079
v 27.9728069 0.491984636 -10.1659079
v 27.9728069 2.77106023 -10.1659079
v 28.6101265 0.491984159 -10.1659079
v 28.6101265 2.81106019 -10.1659079
v 28.5701256 2.77106023 -10.1659079
v 28.5701256 0.491984636 -10.1659079
v 27.9728069 2.77106023 -10.1659079
v 27.9728069 2.77105474 -10.0739088
v 28.5701256 2.77106023 -10.0739088
v 28.5701256 2.77106023 -10.1659079
v 27.9728069 0.491984636 -10.1659079
v 27.9728069 0.491984636 -10.0739088
v 27.9728069 2.77105474 -10.0739088
v 27.9728069 2.77106023 -10.1659079
v 28.5701256 2.77106023 -10.1659079
v 28.5701256 2.77106023 -10.0739088
v 28.5701256 0.491984636 -10.0739088
v 28.5701256 0.491984636 -10.1659079
vt 0.459960938 0.511230469
vt 0.735839844 0.511230469
vt 0.735839844 0.505859375
vt 0.459960938 0.505859375
vt 0.459960938 0.516113281
vt 0.459960938 0.521972656
vt 0.735839844 0.521972656
vt 0.735839844 0.516113281
vt 0.459960938 0.521972656
vt 0.459960938 0.526855469
vt 0.735839844 0.526855469
vt 0.735839844 0.521972656
vt 0.735839844 0.516113281
vt 0.735839844 0.511230469
vt 0.459960938 0.511230469
vt 0.459960938 0.516113281
vt 0.459960938 0.511230469
vt 0.735839844 0.511230469
vt 0.735839844 0.505859375
vt 0.459960938 0.505859375
vt 0.459960938 0.516113281
vt 0.459960938 0.521972656
vt 0.735839844 0.521972656
vt 0.735839844 0.516113281
vt 0.459960938 0.521972656
vt 0.459960938 0.526855469
vt 0.735839844 0.526855469
vt 0.735839844 0.521972656
vt 0.735839844 0.516113281
vt 0.735839844 0.511230469
vt 0.459960938 0.511230469
vt 0.459960938 0.516113281
vt 0.293945312 0.300292969
vt 0.293945312 0.3203125
vt 0.396484375 0.3203125
vt 0.396484375 0.300292969
vt 0.875488281 0.430664062
vt 0.875488281 0.373046875
vt 0.958007812 0.373046875
vt 0.958007812 0.430664062
vt 0.958007812 0.430664062
vt 0.958007812 0.373046875
vt 0.875488281 0.373046875
vt 0.875488281 0.430664062
vt 0.865234375 0.44140625
vt 0.871582031 0.434570312
vt 0.961914062 0.434570312
vt 0.967773438 0.44140625
vt 0.881835938 0.44140625
vt 0.888183594 0.434570312
vt 0.954589844 0.434570312
vt 0.960449219 0.44140625
vt 0.968261719 0.362304688
vt 0.961914062 0.368896484
vt 0.871582031 0.368896484
vt 0.865234375 0.362304688
vt 0.871582031 0.44140625
vt 0.877441406 0.434570312
vt 0.943847656 0.434570312
vt 0.949707031 0.44140625
vt 0.967773438 0.44140625
vt 0.961914062 0.434570312
vt 0.871582031 0.434570312
vt 0.865234375 0.44140625
vt 0.949707031 0.44140625
vt 0.943847656 0.434570312
vt 0.877441406 0.434570312
vt 0.87109375 0.44140625
vt 0.865234375 0.362304688
vt 0.871582031 0.368896484
vt 0.961914062 0.368896484
vt 0.968261719 0.362304688
vt 0.960449219 0.44140625
vt 0.954589844 0.434570312
vt 0.888183594 0.434570312
vt 0.881835938 0.44140625
vt 0.871582031 0.434570312
vt 0.875488281 0.430664062
vt 0.958007812 0.430664062
vt 0.961914062 0.434570312
vt 0.888183594 0.434570312
vt 0.892578125 0.430664062
vt 0.950195312 0.430664062
vt 0.954589844 0.434570312
vt 0.961914062 0.368896484
vt 0.958007812 0.373046875
vt 0.875488281 0.373046875
vt 0.871582031 0.368896484
vt 0.877441406 0.434570312
vt 0.881835938 0.430664062
vt 0.939453125 0.430664062
vt 0.943847656 0.434570312
vt 0.961914062 0.434570312
vt 0.958007812 0.430664062
vt 0.875488281 0.430664062
vt 0.871582031 0.434570312
vt 0.943847656 0.434570312
vt 0.939453125 0.430664062
vt 0.881835938 0.430664062
vt 0.877441406 0.434570312
vt 0.871582031 0.368896484
vt 0.875488281 0.373046875
vt 0.958007812 0.373046875
vt 0.961914062 0.368896484
vt 0.954589844 0.434570312
vt 0.950195312 0.430664062
vt 0.892578125 0.430664062
vt 0.888183594 0.434570312
vt 0.541992188 0.479492188
vt 0.546875 0.484863281
vt 0.623535156 0.484863281
vt 0.628417969 0.479492188
vt 0.435058594 0.479492188
vt 0.440185547 0.484863281
vt 0.735839844 0.484863281
vt 0.735839844 0.479492188
vt 0.735839844 0.501953125
vt 0.735839844 0.496826172
vt 0.440185547 0.496826172
vt 0.435058594 0.501953125
vt 0.541992188 0.501953125
vt 0.62890625 0.501953125
vt 0.623535156 0.496826172
vt 0.546875 0.496826172
vt 0.435058594 0.501953125
vt 0.735839844 0.501953125
vt 0.735839844 0.496826172
vt 0.440185547 0.496826172
vt 0.735839844 0.479492188
vt 0.435058594 0.479492188
vt 0.440185547 0.484863281
vt 0.735839844 0.484863281
vt 0.623535156 0.496826172
vt 0.623535156 0.484863281
vt 0.546875 0.484863281
vt 0.546875 0.496826172
vt 0.735839844 0.496826172
vt 0.735839844 0.484863281
vt 0.440185547 0.484863281
vt 0.440185547 0.496826172
vt 0.440185547 0.484863281
vt 0.440185547 0.496826172
vt 0.735839844 0.496826172
vt 0.735839844 0.484863281
vn -0 0 -1
vn -0 0 -1
vn -0 0 -1
vn -0 0 -1
vn -0 0 1
vn -0 0 1
vn -0 0 1
vn -0 0 1
vn 1 0 0
vn 1 0 0
vn 1 0 0
vn 1 0 0
vn -1 0 0
vn -1 0 0
vn -1 0 0
vn -1 0 0
vn -0 0 -1
vn -0 0 -1
vn -0 0 -1
vn -0 0 -1
vn -0 0 1
vn -0 0 1
vn -0 0 1
vn -0 0 1
vn 1 0 0
vn 1 0 0
vn 1 0 0
vn 1 0 0
vn -1 0 0
vn -1 0 0
vn -1 0 0
vn -1 0 0
vn -0 1 0
vn -0 1 0
vn -0 1 0
vn -0 1 0
vn -0 0 -1
vn -0 0 -1
vn -0 0 -1
vn -0 0 -1
vn -0 0 1
vn -0 0 1
vn -0 0 1
vn -0 0 1
vn -1.66893005E-06 0 -1
vn -1.66893005E-06 0 -1
vn 1.66893005E-06 0 -1
vn 1.66893005E-06 0 -1
vn 1.66893005E-06 0 -1
vn 1.66893005E-06 0 -1
vn 1.66893005E-06 0 -1
vn 1.66893005E-06 0 -1
vn 1.66893005E-06 0 -1
vn 1.66893005E-06 0 -1
vn -1.66893005E-06 0 -1
vn -1.66893005E-06 0 -1
vn -1.66893005E-06 0 -1
vn -1.66893005E-06 0 -1
vn -1.66893005E-06 0 -1
vn -1.66893005E-06 0 -1
vn -4.41074371E-06 0 1
vn -4.41074371E-06 0 1
vn 4.41074371E-06 0 1
vn 4.41074371E-06 0 1
vn 4.41074371E-06 0 1
vn 4.41074371E-06 0 1
vn 4.41074371E-06 0 1
vn 4.41074371E-06 0 1
vn 4.41074371E-06 0 1
vn 4.41074371E-06 0 1
vn -4.41074371E-06 0 1
vn -4.41074371E-06 0 1
vn -4.41074371E-06 0 1
vn -4.41074371E-06 0 1
vn -4.41074371E-06 0 1
vn -4.41074371E-06 0 1
vn -0 -0.514648438 -0.857421875
vn -0 -0.514648438 -0.857421875
vn -0 -0.514648438 -0.857421875
vn -0 -0.514648438 -0.857421875
vn -0.514648438 0 -0.857421875
vn -0.514648438 0 -0.857421875
vn -0.514648438 0 -0.857421875
vn -0.514648438 0 -0.857421875
vn -0 0.514648438 -0.857421875
vn -0 0.514648438 -0.857421875
vn -0 0.514648438 -0.857421875
vn -0 0.514648438 -0.857421875
vn 0.514648438 0 -0.857421875
vn 0.514648438 0 -0.857421875
vn 0.514648438 0 -0.857421875
vn 0.514648438 0 -0.857421875
vn -0 -0.514648438 0.857421875
vn -0 -0.514648438 0.857421875
vn -0 -0.514648438 0.857421875
vn -0 -0.514648438 0.857421875
vn 0.514648438 0 0.857421875
vn 0.514648438 0 0.857421875
vn 0.514648438 0 0.857421875
vn 0.514648438 0 0.857421875
vn -0 0.514648438 0.857421875
vn -0 0.514648438 0.857421875
vn -0 0.514648438 0.857421875
vn -0 0.514648438 0.857421875
vn -0.514648438 0 0.857421875
vn -0.514648438 0 0.857421875
vn -0.514648438 0 0.857421875
vn -0.514648438 0 0.857421875
vn -2.59876251E-05 0 1
vn -2.59876251E-05 0 1
vn 6.67572021E-06 0 1
vn 6.67572021E-06 0 1
vn 6.67572021E-06 0 1
vn 6.67572021E-06 0 1
vn 8.5234642E-06 0 1
vn 8.5234642E-06 0 1
vn -3.31401825E-05 0 1
vn -3.31401825E-05 0 1
vn -2.59876251E-05 0 1
vn -2.59876251E-05 0 1
vn 1.32918358E-05 0 -1
vn -1.32918358E-05 0 -1
vn -1.32918358E-05 0 -1
vn 1.32918358E-05 0 -1
vn -1.32918358E-05 0 -1
vn -1.69873238E-05 0 -1
vn -1.69873238E-05 0 -1
vn -1.32918358E-05 0 -1
vn 1.69873238E-05 0 -1
vn 1.32918358E-05 0 -1
vn 1.32918358E-05 0 -1
vn 1.69873238E-05 0 -1
vn 4.58955765E-06 -1 -2.84314156E-05
vn 4.58955765E-06 -1 -2.84314156E-05
vn 4.58955765E-06 -1 -2.84314156E-05
vn 4.58955765E-06 -1 -2.84314156E-05
vn 1 0 0
vn 1 0 0
vn 1 0 0
vn 1 0 0
vn -1 0 0
vn -1 0 0
vn -1 0 0
vn -1 0 0
g FloorLevel_Jail_Bars_3_0
f 3/3/3 2/2/2 1/1/1
f 4/4/4 3/3/3 1/1/1
f 7/7/7 6/6/6 5/5/5
f 8/8/8 7/7/7 5/5/5
f 11/11/11 10/10/10 9/9/9
f 12/12/12 11/11/11 9/9/9
f 15/15/15 14/14/14 13/13/13
f 16/16/16 15/15/15 13/13/13
f 19/19/19 18/18/18 17/17/17
f 20/20/20 19/19/19 17/17/17
f 23/23/23 22/22/22 21/21/21
f 24/24/24 23/23/23 21/21/21
f 27/27/27 26/26/26 25/25/25
f 28/28/28 27/27/27 25/25/25
f 31/31/31 30/30/30 29/29/29
f 32/32/32 31/31/31 29/29/29
f 35/35/35 34/34/34 33/33/33
f 36/36/36 35/35/35 33/33/33
f 39/39/39 38/38/38 37/37/37
f 40/40/40 39/39/39 37/37/37
f 43/43/43 42/42/42 41/41/41
f 44/44/44 43/43/43 41/41/41
f 47/47/47 46/46/46 45/45/45
f 48/48/48 47/47/47 45/45/45
f 51/51/51 50/50/50 49/49/49
f 52/52/52 51/51/51 49/49/49
f 55/55/55 54/54/54 53/53/53
f 56/56/56 55/55/55 53/53/53
f 59/59/59 58/58/58 57/57/57
f 60/60/60 59/59/59 57/57/57
f 63/63/63 62/62/62 61/61/61
f 64/64/64 63/63/63 61/61/61
f 67/67/67 66/66/66 65/65/65
f 68/68/68 67/67/67 65/65/65
f 71/71/71 70/70/70 69/69/69
f 72/72/72 71/71/71 69/69/69
f 75/75/75 74/74/74 73/73/73
f 76/76/76 75/75/75 73/73/73
f 79/79/79 78/78/78 77/77/77
f 80/80/80 79/79/79 77/77/77
f 83/83/83 82/82/82 81/81/81
f 84/84/84 83/83/83 81/81/81
f 87/87/87 86/86/86 85/85/85
f 88/88/88 87/87/87 85/85/85
f 91/91/91 90/90/90 89/89/89
f 92/92/92 91/91/91 89/89/89
f 95/95/95 94/94/94 93/93/93
f 96/96/96 95/95/95 93/93/93
f 99/99/99 98/98/98 97/97/97
f 100/100/100 99/99/99 97/97/97
f 103/103/103 102/102/102 101/101/101
f 104/104/104 103/103/103 101/101/101
f 107/107/107 106/106/106 105/105/105
f 108/108/108 107/107/107 105/105/105
f 111/111/111 110/110/110 109/109/109
f 112/112/112 111/111/111 109/109/109
f 115/115/115 114/114/114 113/113/113
f 116/116/116 115/115/115 113/113/113
f 119/119/119 118/118/118 117/117/117
f 120/120/120 119/119/119 117/117/117
f 123/123/123 122/122/122 121/121/121
f 124/124/124 123/123/123 121/121/121
f 127/127/127 126/126/126 125/125/125
f 128/128/128 127/127/127 125/125/125
f 131/131/131 130/130/130 129/129/129
f 132/132/132 131/131/131 129/129/129
f 135/135/135 134/134/134 133/133/133
f 136/136/136 135/135/135 133/133/133
f 139/139/139 138/138/138 137/137/137
f 140/140/140 139/139/139 137/137/137
f 143/143/143 142/142/142 141/141/141
f 144/144/144 143/143/143 141/141/141
