g ModularPipesA_ShortConnector
v -0.024084473 -0.0201269519 -0.0417272933
v 0.0240966789 -0.0201269519 -0.0417272933
v 0.0240966789 0.0201287828 -0.0417272933
v -0.024084473 0.0201287828 -0.0417272933
v -0.0481811501 -0.0201269519 1.52587887E-07
v -0.024084473 -0.0201269519 -0.0417272933
v -0.024084473 0.0201287828 -0.0417272933
v -0.0481811501 0.0201287828 1.52587887E-07
v -0.024084473 -0.0201269519 0.0417272933
v -0.0481811501 -0.0201269519 1.52587887E-07
v -0.0481811501 0.0201287828 1.52587887E-07
v -0.024084473 0.0201287828 0.0417272933
v 0.0240966789 -0.0201269519 0.0417272933
v -0.024084473 -0.0201269519 0.0417272933
v -0.024084473 0.0201287828 0.0417272933
v 0.0240966789 0.0201287828 0.0417272933
v 0.048186034 -0.0201269519 1.52587887E-07
v 0.0240966789 -0.0201269519 0.0417272933
v 0.0240966789 0.0201287828 0.0417272933
v 0.048186034 0.0201287828 1.52587887E-07
v 0.0240966789 -0.0201269519 -0.0417272933
v 0.048186034 -0.0201269519 1.52587887E-07
v 0.048186034 0.0201287828 1.52587887E-07
v 0.0240966789 0.0201287828 -0.0417272933
v 0.048186034 -0.0201269519 1.52587887E-07
v 4.88281239E-06 -0.0201269519 0
v 0.0240966789 -0.0201269519 0.0417272933
v 0.0240966789 -0.0201269519 -0.0417272933
v -0.024084473 -0.0201269519 0.0417272933
v -0.024084473 -0.0201269519 -0.0417272933
v -0.0481811501 -0.0201269519 1.52587887E-07
v 0.0240966789 0.0201287828 0.0417272933
v 4.88281239E-06 0.0201287828 0
v 0.048186034 0.0201287828 1.52587887E-07
v -0.024084473 0.0201287828 0.0417272933
v 0.0240966789 0.0201287828 -0.0417272933
v -0.0481811501 0.0201287828 1.52587887E-07
v -0.024084473 0.0201287828 -0.0417272933
vt 0.919921875 0.399658203
vt 0.903320312 0.399658203
vt 0.903320312 0.415283203
vt 0.919921875 0.415283203
vt 0.937011719 0.399658203
vt 0.919921875 0.399658203
vt 0.919921875 0.415283203
vt 0.937011719 0.415283203
vt 0.853027344 0.399658203
vt 0.8359375 0.399658203
vt 0.8359375 0.415283203
vt 0.853027344 0.415283203
vt 0.870117188 0.399658203
vt 0.853027344 0.399658203
vt 0.853027344 0.415283203
vt 0.870117188 0.415283203
vt 0.88671875 0.399658203
vt 0.870117188 0.399658203
vt 0.870117188 0.415283203
vt 0.88671875 0.415283203
vt 0.903320312 0.399658203
vt 0.88671875 0.399658203
vt 0.88671875 0.415283203
vt 0.903320312 0.415283203
vt 0.832519531 0.385009766
vt 0.847167969 0.376464844
vt 0.832519531 0.368164062
vt 0.847167969 0.393310547
vt 0.847167969 0.359619141
vt 0.861328125 0.385009766
vt 0.861328125 0.368164062
vt 0.861328125 0.368164062
vt 0.847167969 0.376464844
vt 0.861328125 0.385009766
vt 0.847167969 0.359619141
vt 0.847167969 0.393310547
vt 0.832519531 0.368164062
vt 0.832519531 0.385009766
vn -0.5 0 -0.866210938
vn 0.5 0 -0.866210938
vn 0.5 0 -0.866210938
vn -0.5 0 -0.866210938
vn -1 0 0
vn -0.5 0 -0.866210938
vn -0.5 0 -0.866210938
vn -1 0 0
vn -0.5 0 0.866210938
vn -1 0 0
vn -1 0 0
vn -0.5 0 0.866210938
vn 0.5 0 0.866210938
vn -0.5 0 0.866210938
vn -0.5 0 0.866210938
vn 0.5 0 0.866210938
vn 1 0 0
vn 0.5 0 0.866210938
vn 0.5 0 0.866210938
vn 1 0 0
vn 0.5 0 -0.866210938
vn 1 0 0
vn 1 0 0
vn 0.5 0 -0.866210938
vn -0 -1 0
vn -0 -1 0
vn -0 -1 0
vn -0 -1 0
vn -0 -1 0
vn -0 -1 0
vn -0 -1 0
vn -0 1 0
vn -0 1 0
vn -0 1 0
vn -0 1 0
vn -0 1 0
vn -0 1 0
vn -0 1 0
g ModularPipesA_ShortConnector_0
f 3/3/3 2/2/2 1/1/1
f 4/4/4 3/3/3 1/1/1
f 7/7/7 6/6/6 5/5/5
f 8/8/8 7/7/7 5/5/5
f 11/11/11 10/10/10 9/9/9
f 12/12/12 11/11/11 9/9/9
f 15/15/15 14/14/14 13/13/13
f 16/16/16 15/15/15 13/13/13
f 19/19/19 18/18/18 17/17/17
f 20/20/20 19/19/19 17/17/17
f 23/23/23 22/22/22 21/21/21
f 24/24/24 23/23/23 21/21/21
f 27/27/27 26/26/26 25/25/25
f 25/25/25 26/26/26 28/28/28
f 29/29/29 26/26/26 27/27/27
f 28/28/28 26/26/26 30/30/30
f 31/31/31 26/26/26 29/29/29
f 30/30/30 26/26/26 31/31/31
f 34/34/34 33/33/33 32/32/32
f 32/32/32 33/33/33 35/35/35
f 36/36/36 33/33/33 34/34/34
f 35/35/35 33/33/33 37/37/37
f 38/38/38 33/33/33 36/36/36
f 37/37/37 33/33/33 38/38/38
