g IS4_MDL_EscenarioPB_Tapete_Arma_1
v 0.366287947 0.220069647 -0.146131277
v -1.09059579E-06 0.220069647 3.10075308E-07
v 0.155672744 0.220069647 -0.362333685
v 0.36233288 0.220069647 0.155672923
v 0.155672744 0.220069647 -0.362333685
v -1.09059579E-06 0.220069647 3.10075308E-07
v -0.1461339 0.220069647 -0.366285086
v -0.362335086 0.220069647 -0.155672282
v -0.362335086 0.220069647 -0.155672282
v -1.09059579E-06 0.220069647 3.10075308E-07
v -0.366290152 0.220069647 0.146131903
v -0.163106546 0.220069647 0.354701221
v -1.09059579E-06 0.220069647 3.10075308E-07
v -0.155674905 0.220069647 0.362334281
v -0.163106546 0.220069647 0.354701221
v 0.146126837 0.220069647 0.366285712
v 0.152489141 0.220069647 0.360089421
v 0.36233288 0.220069647 0.155672923
v -0.163106546 0.220069647 0.354701221
v -0.155674905 0.220069647 0.362334281
v -0.154185653 0.206131279 0.369659722
v -0.161607534 0.207570568 0.364679247
v -0.3708556 0.207570568 0.147977605
v -0.366290152 0.220069647 0.146131903
v -0.366851687 0.207570568 -0.157588795
v -0.362335086 0.220069647 -0.155672282
v -0.366290152 0.220069647 0.146131903
v -0.3708556 0.207570568 0.147977605
v -0.147955179 0.207570568 -0.370826095
v -0.1461339 0.220069647 -0.366285086
v -0.362335086 0.220069647 -0.155672282
v -0.366851687 0.207570568 -0.157588795
v 0.157611221 0.207570568 -0.366825849
v 0.155672744 0.220069647 -0.362333685
v -0.1461339 0.220069647 -0.366285086
v -0.147955179 0.207570568 -0.370826095
v 0.370853364 0.207570568 -0.147928149
v 0.366287947 0.220069647 -0.146131277
v 0.155672744 0.220069647 -0.362333685
v 0.157611221 0.207570568 -0.366825849
v 0.366844594 0.207570568 0.157635808
v 0.36233288 0.220069647 0.155672923
v 0.366287947 0.220069647 -0.146131277
v 0.370853364 0.207570568 -0.147928149
v 0.152489141 0.220069647 0.360089421
v 0.36233288 0.220069647 0.155672923
v 0.366844594 0.207570568 0.157635808
v 0.151322156 0.207570568 0.371900946
v 0.144525275 0.206131279 0.373570859
v 0.146126837 0.220069647 0.366285712
v -0.154185653 0.206131279 0.369659722
v -0.155674905 0.220069647 0.362334281
v 0.146126837 0.220069647 0.366285712
v 0.144525275 0.206131279 0.373570859
vt 0.399902344 0.397949219
vt 0.250976562 0.250732422
vt 0.252441406 0.460205078
vt 0.46484375 0.249389648
vt 0.253417969 0.460205078
vt 0.254882812 0.250732422
vt 0.401855469 0.399902344
vt 0.46875 0.252197266
vt 0.466308594 0.249755859
vt 0.252441406 0.251220703
vt 0.401611328 0.398193359
vt 0.259033203 0.458251953
vt 0.254882812 0.251220703
vt 0.253417969 0.460449219
vt 0.248291016 0.458251953
vt 0.401855469 0.400146484
vt 0.403808594 0.395996094
vt 0.46875 0.252685547
vt 0.172119141 0.254882812
vt 0.176269531 0.255126953
vt 0.180053711 0.250976562
vt 0.176513672 0.25
vt 0.053894043 0.248291016
vt 0.0556335449 0.252685547
vt 0.0524597168 0.251464844
vt 0.0542297363 0.255859375
vt 0.174926758 0.257568359
vt 0.176879883 0.253173828
vt 0.0523986816 0.251464844
vt 0.0541992188 0.255859375
vt 0.174926758 0.256591797
vt 0.176757812 0.251953125
vt 0.18347168 0.253662109
vt 0.181640625 0.249267578
vt 0.0610046387 0.247680664
vt 0.0591125488 0.252197266
vt 0.180786133 0.254882812
vt 0.179077148 0.250488281
vt 0.058380127 0.247070312
vt 0.056427002 0.251464844
vt 0.180664062 0.256835938
vt 0.178833008 0.252441406
vt 0.0581970215 0.250732422
vt 0.0562744141 0.255126953
vt 0.176757812 0.248657227
vt 0.0596008301 0.250244141
vt 0.0578308105 0.254638672
vt 0.181518555 0.254150391
vt 0.183959961 0.252685547
vt 0.180297852 0.248535156
vt 0.255615234 0.467529297
vt 0.253417969 0.460449219
vt 0.401855469 0.400146484
vt 0.405273438 0.406738281
vn -0 1 -2.38418579E-07
vn -0 1 0
vn -0 1 -2.38418579E-07
vn -0 1 2.38418579E-07
vn -0 1 -2.38418579E-07
vn -0 1 0
vn -0 1 -1.1920929E-07
vn -0 1 -1.1920929E-07
vn -0 1 -1.1920929E-07
vn -0 1 0
vn -0 1 2.38418579E-07
vn -0 1 4.17232513E-07
vn -0 1 0
vn -0 1 0
vn -0 1 4.17232513E-07
vn -0 1 0
vn -0 1 4.17232513E-07
vn -0 1 2.38418579E-07
vn -0.661132812 0.385498047 0.643554688
vn -0.568847656 0.404052734 0.716308594
vn -0.568847656 0.404052734 0.716308594
vn -0.656738281 0.38671875 0.647460938
vn -0.662597656 0.385253906 0.642578125
vn -0.662597656 0.385253906 0.642578125
vn -0.939941406 0.341552734 -0.0123138428
vn -0.939941406 0.341552734 -0.0123138428
vn -0.939941406 0.341552734 -0.0123138428
vn -0.939941406 0.341552734 -0.0123138428
vn -0.65625 0.340332031 -0.673339844
vn -0.65625 0.340332031 -0.673339844
vn -0.65625 0.340332031 -0.673339844
vn -0.65625 0.340332031 -0.673339844
vn 0.0123138428 0.33984375 -0.940429688
vn 0.0123138428 0.33984375 -0.940429688
vn 0.0123138428 0.33984375 -0.940429688
vn 0.0123138428 0.33984375 -0.940429688
vn 0.673339844 0.340576172 -0.65625
vn 0.673339844 0.340576172 -0.65625
vn 0.673339844 0.340576172 -0.65625
vn 0.673339844 0.340576172 -0.65625
vn 0.939941406 0.341064453 0.0123214722
vn 0.939941406 0.341064453 0.0123214722
vn 0.939941406 0.341064453 0.0123214722
vn 0.939941406 0.341064453 0.0123214722
vn 0.627929688 0.438720703 0.642578125
vn 0.630859375 0.4375 0.640625
vn 0.630859375 0.4375 0.640625
vn 0.620117188 0.441894531 0.647949219
vn 0.400146484 0.508789062 0.762207031
vn 0.400146484 0.508789062 0.762207031
vn -0.0115966797 0.464111328 0.885742188
vn -0.0115966797 0.464111328 0.885742188
vn -0.0115966797 0.464111328 0.885742188
vn -0.0115966797 0.464111328 0.885742188
g IS4_MDL_EscenarioPB_Tapete_Arma_1_0
f 3/3/3 2/2/2 1/1/1
f 1/1/1 2/2/2 4/4/4
f 7/7/7 6/6/6 5/5/5
f 8/8/8 6/6/6 7/7/7
f 11/11/11 10/10/10 9/9/9
f 12/12/12 10/10/10 11/11/11
f 15/15/15 14/14/14 13/13/13
f 16/16/16 13/13/13 14/14/14
f 17/17/17 13/13/13 16/16/16
f 17/17/17 18/18/18 13/13/13
f 21/21/21 20/20/20 19/19/19
f 22/22/22 21/21/21 19/19/19
f 22/22/22 19/19/19 23/23/23
f 19/19/19 24/24/24 23/23/23
f 27/27/27 26/26/26 25/25/25
f 28/28/28 27/27/27 25/25/25
f 31/31/31 30/30/30 29/29/29
f 32/32/32 31/31/31 29/29/29
f 35/35/35 34/34/34 33/33/33
f 36/36/36 35/35/35 33/33/33
f 39/39/39 38/38/38 37/37/37
f 40/40/40 39/39/39 37/37/37
f 43/43/43 42/42/42 41/41/41
f 44/44/44 43/43/43 41/41/41
f 47/47/47 46/46/46 45/45/45
f 48/48/48 47/47/47 45/45/45
f 48/48/48 45/45/45 49/49/49
f 45/45/45 50/50/50 49/49/49
f 53/53/53 52/52/52 51/51/51
f 54/54/54 53/53/53 51/51/51
