g polySurface3
v 4.28809071 0.808941424 -6.88776159
v 4.28809071 0.810749292 -6.99549198
v 4.28809071 0.66971153 -6.99194241
v 4.28809071 0.657115817 -6.84234238
v 4.28809071 0.999994576 -5.88418055
v 4.28809071 0.99999851 -6.88776112
v 4.28809071 0.567233622 -6.85017681
v 4.28808975 1.14564621 -6.88776112
v 4.28809023 1.14463687 -6.81161785
v 4.28809071 0.437939852 -6.66961145
v 4.28808928 1.25014675 -6.81216192
v 4.28809071 -2.40802763E-07 -5.88418055
v 4.28809071 0.332241118 -6.67037392
v 4.28809071 -2.40802763E-07 -5.62516975
v 4.28809071 0.999994576 -5.62516975
v 4.28809071 4.70476198 -5.62516975
v 4.28809071 4.70476198 -5.88418055
v 4.28808594 2.00000381 -6.88776112
v 4.28808928 1.2593528 -6.88776112
v 4.28809071 4.70476198 -8.6305542
v 4.28808594 2.00000381 -8.6305542
v 4.28809071 0.25911817 -6.75646639
v 4.28809071 0.326132417 -6.76341724
v 4.28809071 0.105897494 -6.82322931
v 4.28809071 0.204808578 -6.8204093
v 4.28809071 -2.40802763E-07 -6.82395267
v 4.28809071 -2.40802763E-07 -6.99699402
v 4.28809071 0.093396388 -6.99269629
v 4.28809071 0.840649486 -10.3893642
v 4.28809071 1.00000191 -10.3893642
v 4.28809977 1.00000119 -10.5341511
v 4.2881012 0.803196311 -10.5540304
v 4.28816891 0.999995172 -11.6425362
v 4.28810167 0.722058177 -10.5661497
v 4.28811646 0.675786853 -10.8052454
v 4.28811646 0.562148094 -10.8045311
v 4.28816891 4.70476198 -11.6425362
v 4.28816891 -2.40802763E-07 -11.6425362
v 4.28809977 1.13466346 -10.5394831
v 4.28812695 0.324810892 -10.6925364
v 4.28808594 2.00000381 -10.3893642
v 4.28809023 1.14332032 -10.3893642
v 4.28808594 2.00000381 -8.6305542
v 4.28809071 4.70476198 -8.6305542
v 4.28813171 0.214121789 -10.6506405
v 4.28812361 0.322353899 -10.5717621
v 4.28812933 0.218849748 -10.5847168
v 4.28813696 0.104503274 -10.6342144
v 4.28813505 0.102535903 -10.5673618
v 4.28814125 -2.40802763E-07 -10.5687227
vt 0.857910156 0.595214844
vt 0.844726562 0.595214844
vt 0.844238281 0.583007812
vt 0.861816406 0.58203125
vt 0.959472656 0.617675781
vt 0.857910156 0.617675781
vt 0.860351562 0.572753906
vt 0.857910156 0.632324219
vt 0.865234375 0.632324219
vt 0.877929688 0.559082031
vt 0.865234375 0.643066406
vt 0.959472656 0.513183594
vt 0.877441406 0.547851562
vt 0.990234375 0.513183594
vt 0.990234375 0.617675781
vt 0.990234375 0.991210938
vt 0.959472656 0.991210938
vt 0.857910156 0.719238281
vt 0.857910156 0.644042969
vt 0.670898438 0.991210938
vt 0.670898438 0.719238281
vt 0.868652344 0.540527344
vt 0.868164062 0.547363281
vt 0.861328125 0.524414062
vt 0.861816406 0.534667969
vt 0.85546875 0.513183594
vt 0.844726562 0.513183594
vt 0.845703125 0.524414062
vt 0.642089844 0.59765625
vt 0.642089844 0.617675781
vt 0.626953125 0.617675781
vt 0.625 0.594238281
vt 0.51171875 0.617675781
vt 0.624023438 0.5859375
vt 0.599121094 0.581542969
vt 0.599121094 0.569824219
vt 0.51171875 0.991210938
vt 0.51171875 0.513183594
vt 0.626464844 0.630859375
vt 0.611328125 0.545898438
vt 0.642089844 0.719238281
vt 0.642089844 0.631835938
vt 0.830078125 0.719238281
vt 0.830078125 0.991210938
vt 0.616210938 0.534667969
vt 0.624023438 0.545898438
vt 0.623046875 0.535644531
vt 0.618164062 0.523925781
vt 0.625 0.523925781
vt 0.625 0.513183594
vn 1 2.38418579E-06 0
vn 1 2.62260437E-06 0
vn 1 2.62260437E-06 0
vn 1 3.57627869E-07 0
vn 1 0 0
vn 1 2.08616257E-06 -3.03983688E-06
vn 1 1.60932541E-06 0
vn 1 5.00679016E-06 -2.98023224E-07
vn 1 5.42402267E-06 -1.1920929E-07
vn 1 6.55651093E-07 0
vn 1 8.34465027E-07 -4.05311584E-06
vn 1 0 0
vn 1 0 0
vn 1 0 0
vn 1 0 0
vn 1 0 0
vn 1 -1.84774399E-06 -4.17232513E-07
vn 1 -1.31130219E-06 -1.37090683E-06
vn 1 5.24520874E-06 -3.4570694E-06
vn 1 -6.97374344E-06 8.46385956E-06
vn 1 -6.97374344E-06 8.46385956E-06
vn 1 -1.1920929E-07 0
vn 1 -7.74860382E-06 0
vn 1 -2.98023224E-07 0
vn 1 0 0
vn 1 -7.15255737E-07 0
vn 1 -2.86102295E-06 0
vn 1 -2.86102295E-06 0
vn 1 2.39610672E-05 2.7358532E-05
vn 1 0 6.47902489E-05
vn 1 0 6.24060631E-05
vn 1 -3.4570694E-06 6.22868538E-05
vn 1 0 6.47902489E-05
vn 1 -7.56978989E-06 6.22272491E-05
vn 1 -1.07288361E-06 6.22868538E-05
vn 1 5.66840172E-05 2.56896019E-05
vn 1 -9.89437103E-06 2.3663044E-05
vn 1 1.95503235E-05 3.37958336E-05
vn 1 1.01327896E-06 6.54459E-05
vn 1 5.50746918E-05 2.58088112E-05
vn 1 -7.21216202E-06 3.51071358E-05
vn 1 6.07967377E-06 6.27040863E-05
vn 1 -6.97374344E-06 8.46385956E-06
vn 1 -6.97374344E-06 8.46385956E-06
vn 1 5.36441803E-05 2.59876251E-05
vn 1 4.87565994E-05 2.71201134E-05
vn 1 4.87565994E-05 2.71201134E-05
vn 1 4.90546227E-05 2.59876251E-05
vn 1 4.59551811E-05 2.60472298E-05
vn 1 4.59551811E-05 2.60472298E-05
g polySurface3_0
f 3/3/3 2/2/2 1/1/1
f 4/4/4 3/3/3 1/1/1
f 5/5/5 4/4/4 1/1/1
f 1/1/1 6/6/6 5/5/5
f 5/5/5 7/7/7 4/4/4
f 5/5/5 6/6/6 8/8/8
f 9/9/9 5/5/5 8/8/8
f 5/5/5 10/10/10 7/7/7
f 5/5/5 9/9/9 11/11/11
f 10/10/10 5/5/5 12/12/12
f 10/10/10 12/12/12 13/13/13
f 12/12/12 5/5/5 14/14/14
f 5/5/5 15/15/15 14/14/14
f 15/15/15 5/5/5 16/16/16
f 5/5/5 17/17/17 16/16/16
f 5/5/5 11/11/11 17/17/17
f 11/11/11 18/18/18 17/17/17
f 11/11/11 19/19/19 18/18/18
f 17/17/17 18/18/18 20/20/20
f 18/18/18 21/21/21 20/20/20
f 22/22/22 13/13/13 12/12/12
f 23/23/23 13/13/13 22/22/22
f 22/22/22 12/12/12 24/24/24
f 25/25/25 22/22/22 24/24/24
f 24/24/24 12/12/12 26/26/26
f 26/26/26 27/27/27 24/24/24
f 27/27/27 28/28/28 24/24/24
f 31/31/31 30/30/30 29/29/29
f 32/32/32 31/31/31 29/29/29
f 32/32/32 33/33/33 31/31/31
f 32/32/32 34/34/34 33/33/33
f 34/34/34 35/35/35 33/33/33
f 35/35/35 36/36/36 33/33/33
f 31/31/31 33/33/33 37/37/37
f 36/36/36 38/38/38 33/33/33
f 37/37/37 39/39/39 31/31/31
f 40/40/40 38/38/38 36/36/36
f 37/37/37 41/41/41 39/39/39
f 42/42/42 39/39/39 41/41/41
f 43/43/43 41/41/41 37/37/37
f 44/44/44 43/43/43 37/37/37
f 40/40/40 45/45/45 38/38/38
f 40/40/40 46/46/46 45/45/45
f 46/46/46 47/47/47 45/45/45
f 45/45/45 48/48/48 38/38/38
f 48/48/48 49/49/49 38/38/38
f 49/49/49 50/50/50 38/38/38
