g J_Bandana
v -0.018191319 0.743305862 -0.0266100187
v -0.0110870227 0.746853471 -0.0346907042
v -0.0139979785 0.740589261 -0.0315539837
v -0.014023684 0.752120256 -0.031478323
v -0.0105949324 0.749267697 -0.0413166992
v -0.0196106862 0.755348563 -0.0313562453
v -0.0239045024 0.747103095 -0.0269406885
v -0.0279007163 0.750219882 -0.0318814032
v -0.0253967177 0.755589128 -0.0349905789
v -0.0194084477 0.758893251 -0.0413881168
v -0.0252033975 0.757398367 -0.0413782336
v -0.0137469936 0.755748093 -0.0412534699
v -0.011903231 0.747021377 -0.0476061963
v -0.0206591357 0.756471157 -0.0512217693
v -0.0258649923 0.755770624 -0.047914423
v -0.014967612 0.753293514 -0.051108487
v -0.0245500971 0.7479195 -0.0558286943
v -0.0142527577 0.741161883 -0.0505700037
v -0.013257781 0.740746319 -0.0414387137
v -0.0105949324 0.749267697 -0.0413166992
v -0.0110870227 0.746853471 -0.0346907042
v -0.0139979785 0.740589261 -0.0315539837
v -0.0180106387 0.735991478 -0.0344881974
v -0.0192994643 0.734443963 -0.0411560871
v -0.0177784562 0.735662878 -0.0481341295
v -0.0184493139 0.744662225 -0.0560750514
v -0.0242086072 0.735693097 -0.0511321053
v -0.0192994643 0.734443963 -0.0411560871
v -0.0294055287 0.73992157 -0.0511927828
v -0.0259610377 0.7340855 -0.041224625
v -0.0180106387 0.735991478 -0.0344881974
v -0.0283473693 0.750475228 -0.0507759862
v -0.0276107397 0.750336528 -0.0411401168
v -0.0252033975 0.757398367 -0.0413782336
v -0.0253967177 0.755589128 -0.0349905789
v -0.0279007163 0.750219882 -0.0318814032
v -0.031247152 0.74563241 -0.0342684165
v -0.0321886614 0.743926167 -0.041248966
v -0.0314312316 0.74548763 -0.0477481037
v -0.0309883896 0.737847984 -0.0411386415
v -0.0321886614 0.743926167 -0.041248966
v -0.0289958511 0.740066588 -0.0310333706
v -0.031247152 0.74563241 -0.0342684165
v -0.0239147581 0.736204803 -0.03105193
v -0.0139979785 0.740589261 -0.0315539837
v -0.018191319 0.743305862 -0.0266100187
v -0.0239045024 0.747103095 -0.0269406885
v -0.0279007163 0.750219882 -0.0318814032
v -0.0231920481 0.714602172 -0.0424722172
v -0.0220910273 0.704168618 -0.0421879999
v -0.0206864607 0.702961922 -0.0448896773
v -0.0222698711 0.714337766 -0.0482911654
v -0.02096048 0.731728733 -0.0496429689
v -0.0206538867 0.731770337 -0.0445999056
v -0.018754391 0.742586672 -0.0401572548
v -0.018390106 0.703809798 -0.0462703966
v -0.0170575324 0.702321291 -0.0445456728
v -0.0108043039 0.713235974 -0.0446741134
v -0.0170241818 0.7044276 -0.0424410701
v -0.0124774165 0.713594139 -0.0409112647
v -0.0158805735 0.714197516 -0.0493895747
v -0.0111135291 0.732619524 -0.0520110019
v -0.0179373175 0.743270099 -0.0446905755
v -0.0174861364 0.747280359 -0.0378279686
v -0.00449217716 0.730965495 -0.045859091
v -0.0113985976 0.743639886 -0.0466979817
v -0.0170364324 0.747856677 -0.041436404
v -0.0170754101 0.74833566 -0.0377570204
v -0.0168642309 0.748887897 -0.0408187062
v -0.0137066469 0.748250544 -0.0436297208
v -0.0141046485 0.749326766 -0.0429277122
v -0.00722798193 0.730849564 -0.0411697626
v -0.0079745613 0.74195683 -0.0424923375
v -0.011827332 0.747071743 -0.0408388376
v -0.0120435869 0.748511434 -0.0408059396
v -0.00949629303 0.741660953 -0.0382736921
v -0.0122831203 0.746626735 -0.0375282802
v -0.0126687801 0.74778372 -0.0373329036
v -0.0206538867 0.731770337 -0.0445999056
v -0.00949629303 0.741660953 -0.0382736921
v -0.0231920481 0.714602172 -0.0424722172
v -0.018754391 0.742586672 -0.0401572548
v -0.0220910273 0.704168618 -0.0421879999
v -0.0122831203 0.746626735 -0.0375282802
v -0.0170241818 0.7044276 -0.0424410701
v -0.0206864607 0.702961922 -0.0448896773
v -0.0170575324 0.702321291 -0.0445456728
v -0.0174861364 0.747280359 -0.0378279686
v -0.0126687801 0.74778372 -0.0373329036
v -0.0170754101 0.74833566 -0.0377570204
v -0.0560268611 0.765509486 -0.0396760181
v -0.0647942424 0.764423728 -0.0421677195
v -0.066360347 0.765726686 -0.0440826342
v -0.0558250509 0.76846081 -0.0421500802
v -0.0650036111 0.765350878 -0.0468913652
v -0.0665203556 0.763223469 -0.0468464755
v -0.0571114682 0.758491337 -0.0497140735
v -0.0648646802 0.761503756 -0.0453523956
v -0.0571160167 0.757074654 -0.046008572
v -0.0429673903 0.752131701 -0.0469795652
v -0.0561398938 0.76522243 -0.0485019721
v -0.0430656746 0.7536605 -0.0507266261
v -0.0416774973 0.762470663 -0.0486654751
v -0.0314120539 0.749340117 -0.0473248325
v -0.0312829725 0.748268425 -0.0433329679
v -0.0413515121 0.767774642 -0.0401070267
v -0.0285507478 0.755541503 -0.0466520861
v -0.0259286668 0.748189449 -0.0428704098
v -0.0269055497 0.747322619 -0.0398645625
v -0.0249714721 0.7481969 -0.0419894457
v -0.0257968251 0.747427225 -0.0393108018
v -0.0229773205 0.751944125 -0.0417868271
v -0.0235215332 0.752506077 -0.0429196693
v -0.0236611031 0.75413239 -0.0374030024
v -0.0245662685 0.755301893 -0.0376121663
v -0.0250817463 0.752272189 -0.0345599502
v -0.0260995999 0.752966225 -0.0340567455
v -0.0297920797 0.760001421 -0.0386495106
v -0.0318323188 0.756436646 -0.0339066721
v -0.0417155549 0.764207542 -0.0371127538
v -0.0571160167 0.757074654 -0.046008572
v -0.0647942424 0.764423728 -0.0421677195
v -0.0429673903 0.752131701 -0.0469795652
v -0.0648646802 0.761503756 -0.0453523956
v -0.066360347 0.765726686 -0.0440826342
v -0.0665203556 0.763223469 -0.0468464755
v -0.0312829725 0.748268425 -0.0433329679
v -0.0318323188 0.756436646 -0.0339066721
v -0.0269055497 0.747322619 -0.0398645625
v -0.0260995999 0.752966225 -0.0340567455
v -0.0257968251 0.747427225 -0.0393108018
v -0.0250817463 0.752272189 -0.0345599502
v 0.0173864402 0.791867435 0.0806150138
v 0.00674260641 0.791808426 0.0831542537
v 0.0167447329 0.791768074 0.0801778883
v 0.00701906672 0.791991711 0.0838250741
v -0.00632988568 0.791790247 0.0819253922
v 0.0211957898 0.793485403 0.0903222859
v -0.00626837648 0.791997969 0.0825788379
v -0.0192277431 0.791732848 0.0772903785
v -0.0195053816 0.791869283 0.0779940262
v 0.00931703858 0.794628501 0.0912480205
v -0.00676590111 0.79500252 0.0902943611
v -0.0230646487 0.794328153 0.0869912282
v -0.0202830005 0.800673187 0.0852926746
v 0.0036465039 0.802336991 0.0865934193
v 0.0114368796 0.802174568 0.087470822
v -0.00898682605 0.801947773 0.0851132274
v -0.0184558239 0.805722892 0.0813826621
v -0.00249907095 0.807079375 0.0813495591
v 0.00210870197 0.807858586 0.0827762038
v -0.0108964788 0.806256235 0.0802338794
v -0.0190426074 0.810589969 0.0752405375
v -0.0149198202 0.812138975 0.0722594336
v -0.0107813729 0.811469316 0.0744039416
v -0.0174235906 0.811809123 0.0727806762
v -0.0111931702 0.813092768 0.0752870068
v -0.0149451634 0.81399262 0.0730737299
v 0.00131969526 0.809626043 0.0857706144
v 0.00210870197 0.807858586 0.0827762038
v -0.0175151639 0.81347096 0.0735723525
v 0.0118236393 0.802021325 0.0912239328
v 0.0114368796 0.802174568 0.087470822
v 0.0241460111 0.791563153 0.0942001119
v 0.0211957898 0.793485403 0.0903222859
v -0.00350487768 0.808240116 0.0860108808
v -0.0194583107 0.812427759 0.0763826892
v -0.0184558239 0.805722892 0.0813826621
v -0.0192165244 0.80665195 0.0842979699
v -0.0202830005 0.800673187 0.0852926746
v -0.0114526544 0.807088852 0.0857808664
v -0.0197309721 0.799718916 0.0883348137
v -0.0230646487 0.794328153 0.0869912282
v 0.00396822812 0.801198781 0.0926283076
v -0.00846700277 0.800461769 0.0923889726
v -0.0240920037 0.791440845 0.090062581
v -0.00645820796 0.791184843 0.0959009975
v 0.0102676274 0.791106462 0.0966443345
v -0.0349180587 0.790972829 0.0794674829
v -0.0290885624 0.791006207 0.072384648
v -0.0195053816 0.791869283 0.0779940262
v -0.0192277431 0.791732848 0.0772903785
v -0.0287064817 0.790952563 0.0717015564
v -0.0357857235 0.789278388 0.0622799583
v -0.0363078266 0.789227903 0.0627726987
v -0.0410205163 0.784455955 0.0469505601
v -0.0416945443 0.784470201 0.0471771099
v -0.0435591005 0.778934896 0.0267971251
v -0.04318415 0.788421094 0.0678634644
v -0.0371857882 0.788960457 0.0822294727
v -0.0442033671 0.779315472 0.0279160328
v -0.0417131446 0.772163451 0.00695761899
v -0.0487831235 0.784056067 0.0494519211
v -0.0422356874 0.77204746 0.00614934321
v -0.0344852544 0.766403198 -0.0106842611
v -0.0272705313 0.774790406 0.0915979818
v -0.0465084165 0.78612113 0.0705778897
v -0.0513926595 0.78050983 0.0268741157
v -0.0350644626 0.766427875 -0.0111561287
v -0.0215397552 0.764396191 -0.0214322116
v -0.0222087372 0.764336169 -0.0219897628
v -0.0520591624 0.781648159 0.050908722
v -0.048190888 0.773131669 0.0732545778
v -0.0500009097 0.772838831 0.00354657555
v -0.0420944244 0.766581416 -0.0167249255
v -0.0261537302 0.763367116 -0.0303162802
v -0.0554514341 0.777559042 0.0257706586
v -0.0530549511 0.770391226 0.00240913732
v -0.0458686166 0.76438266 -0.0191582404
v -0.0272346698 0.760438383 -0.0320954472
v -0.0281840675 0.750613928 -0.0322672278
v -0.047841195 0.753610909 -0.0192570724
v -0.0282501243 0.740622103 -0.0331152938
v -0.0549107864 0.769744098 0.0526812524
v -0.0586829856 0.765706241 0.0274828952
v -0.0575271584 0.75969702 0.00335252611
v -0.056883052 0.758060694 0.0533068068
v -0.0629692897 0.75476408 0.0281910971
v -0.0628459007 0.749422491 0.00254154555
v -0.0482691564 0.743872643 -0.0187496152
v -0.0467181876 0.739107728 -0.0180230904
v -0.0272789001 0.736319482 -0.0316976197
v -0.0606510043 0.74474895 0.00419933628
v -0.0616137013 0.750196815 0.0289863795
v -0.0401972011 0.738103092 -0.0114209279
v -0.0238205474 0.735408843 -0.022884462
v -0.0237638708 0.73544699 -0.0219089668
v -0.039620962 0.738023579 -0.0107906042
v -0.0515830331 0.74374634 0.00730005978
v -0.050955914 0.743837416 0.00820572861
v -0.0527355708 0.749480367 0.0292107593
v -0.0519849248 0.749425709 0.0292012859
v -0.0459418036 0.7541731 0.0513006896
v -0.045395799 0.754087329 0.0504786298
v -0.0550093986 0.753755867 0.0526039861
v -0.0399575718 0.757314682 0.0653266385
v -0.0390212201 0.757498562 0.0650482178
v -0.0493186004 0.754389048 0.0708892122
v -0.0345453657 0.758709073 0.0740872175
v -0.0340062194 0.758846581 0.0734323785
v -0.0489933752 0.760632932 0.0731667876
v -0.0404037721 0.757473767 0.0811035112
v -0.0269178879 0.759123206 0.0789911747
v -0.0265521314 0.759290397 0.0782312229
v -0.0393512808 0.774111331 0.0850343406
v -0.0416385457 0.761649013 0.0838980079
v -0.0301901568 0.75754571 0.0876039043
v -0.008312786 0.759620786 0.0847716779
v -0.00830355007 0.759822667 0.0838538259
v -0.0305045024 0.761746883 0.0905913264
v -0.00885301363 0.757641375 0.0946100801
v 0.0120431203 0.75953126 0.0839129612
v 0.0117373355 0.759731352 0.0829139501
v 0.0259999037 0.758922577 0.0769559443
v -0.00646891398 0.775329888 0.0986136049
v -0.00853741542 0.761627316 0.0983792469
v 0.0147737823 0.757550418 0.0948915854
v 0.0265105125 0.758768857 0.0779080689
v 0.0147097409 0.775451779 0.099055849
v 0.0378124006 0.755603611 0.0696037337
v 0.0372550413 0.755620956 0.0687734559
v 0.0318466425 0.757309377 0.088383384
v 0.0153670246 0.761690438 0.0985710919
v 0.0320390835 0.775218189 0.0923196077
v 0.0328778625 0.761839449 0.0914943591
v 0.0454586409 0.751948178 0.0559320264
v 0.0446059518 0.751890719 0.0556606725
v 0.0450830981 0.756231904 0.0772685483
v 0.0443665795 0.774284482 0.0792087168
v 0.0486889444 0.746525764 0.0315490998
v 0.0477129631 0.746362984 0.0315204151
v 0.046182327 0.761028886 0.0792336464
v 0.0550705045 0.752725184 0.0591308288
v 0.0480809137 0.742286742 0.00596746989
v 0.0471450016 0.742052615 0.00597024895
v 0.0593283363 0.748306632 0.0316532068
v 0.0564497411 0.75781399 0.0605381466
v 0.0417146832 0.740006387 -0.0114043495
v 0.0412851647 0.740017772 -0.0103140092
v 0.0540550016 0.770371675 0.0605583526
v 0.0613643453 0.753637671 0.0317537449
v 0.0587952659 0.744132876 0.00279023708
v 0.0280616656 0.738545358 -0.0213215388
v 0.0264542643 0.738313138 -0.0201821346
v 0.0492939241 0.74198401 -0.0169479437
v 0.0592289865 0.750034094 0.00145772204
v 0.0581300966 0.765743494 0.0304622501
v 0.050260976 0.78397727 0.0582620129
v -8.43681919E-05 0.735727549 -0.0254750159
v -0.000157767296 0.735651553 -0.02431494
v 0.0305546224 0.739161313 -0.0298187044
v -0.0238205474 0.735408843 -0.022884462
v -0.0237638708 0.73544699 -0.0219089668
v 8.83717003E-05 0.736365616 -0.0344870649
v -0.0272789001 0.736319482 -0.0316976197
v 0.0502047129 0.746625721 -0.0176404994
v -0.000933060481 0.739993513 -0.0374382697
v -0.0282501243 0.740622103 -0.0331152938
v -0.0281840675 0.750613928 -0.0322672278
v 0.0315754451 0.743353486 -0.0321568251
v 0.0310199205 0.753117561 -0.0329548195
v 0.049558416 0.757103503 -0.0186315943
v -0.000171358697 0.750068188 -0.0365763269
v 0.000133844791 0.759973347 -0.0362607948
v -0.0272346698 0.760438383 -0.0320954472
v 0.0580777265 0.761232376 0.00175950327
v 0.0559679344 0.778044939 0.0282215904
v 0.0287024975 0.762435138 -0.0319957621
v -0.00020212181 0.762900054 -0.0342888013
v -0.0261537302 0.763367116 -0.0303162802
v 0.0545595735 0.772275805 0.00124713825
v 0.0269231722 0.765654027 -0.0309526175
v -0.00103234046 0.76432687 -0.0257319938
v -0.0222087372 0.764336169 -0.0219897628
v 0.0480467565 0.767360568 -0.0197989568
v -0.000925534638 0.764418304 -0.0251597688
v -0.0215397552 0.764396191 -0.0214322116
v 0.0214666743 0.765780032 -0.020574484
v 0.0219500735 0.765795708 -0.0213684868
v 0.0383026414 0.769843102 -0.0116538871
v 0.0388264284 0.769831538 -0.0123508675
v 0.0435567833 0.774706721 0.00116673403
v 0.0458907932 0.770896912 -0.0182194393
v 0.0442303233 0.774892092 0.00174794986
v 0.0437619537 0.780964196 0.0275152959
v 0.0513881631 0.774784863 0.00110285357
v 0.0445779152 0.781286061 0.0288572609
v 0.0396990776 0.78569442 0.0533716604
v 0.0525520891 0.781644583 0.0270071067
v 0.0399029329 0.786031246 0.0547055043
v 0.0296880901 0.790117323 0.0694612563
v 0.0468214564 0.786392272 0.056493938
v 0.0301907584 0.790212393 0.0701749027
v 0.0167447329 0.791768074 0.0801778883
v 0.0173864402 0.791867435 0.0806150138
v 0.0365225151 0.790888488 0.0761260539
v 0.0394685194 0.78872478 0.0786867663
vt 0.81640625 0.166625977
vt 0.844238281 0.151977539
vt 0.823730469 0.149169922
vt 0.842285156 0.168457031
vt 0.865722656 0.151245117
vt 0.843261719 0.184448242
vt 0.817871094 0.186279297
vt 0.829589844 0.20324707
vt 0.848632812 0.200683594
vt 0.866699219 0.186767578
vt 0.868652344 0.200927734
vt 0.865722656 0.169555664
vt 0.888183594 0.147338867
vt 0.888183594 0.185180664
vt 0.890136719 0.200561523
vt 0.88671875 0.168457031
vt 0.906738281 0.181762695
vt 0.908203125 0.150146484
vt 0.908203125 0.129882812
vt 0.884277344 0.129760742
vt 0.892578125 0.112243652
vt 0.911621094 0.105224609
vt 0.927246094 0.114074707
vt 0.931640625 0.131958008
vt 0.926757812 0.149536133
vt 0.90625 0.166137695
vt 0.928710938 0.166625977
vt 0.950195312 0.153320312
vt 0.927246094 0.183227539
vt 0.950195312 0.169189453
vt 0.971679688 0.154052734
vt 0.907226562 0.197265625
vt 0.907714844 0.218994141
vt 0.887695312 0.218261719
vt 0.893066406 0.234985352
vt 0.909179688 0.24230957
vt 0.923828125 0.235351562
vt 0.928222656 0.216796875
vt 0.924316406 0.200073242
vt 0.948730469 0.185791016
vt 0.945800781 0.200317383
vt 0.972167969 0.186889648
vt 0.967773438 0.203125
vt 0.973632812 0.171264648
vt 0.989746094 0.15234375
vt 0.997558594 0.170288086
vt 0.995605469 0.190307617
vt 0.984375 0.207885742
vt 0.690429688 0.138061523
vt 0.666992188 0.15637207
vt 0.668945312 0.165161133
vt 0.696777344 0.151489258
vt 0.739746094 0.140991211
vt 0.740722656 0.128540039
vt 0.776855469 0.130493164
vt 0.674316406 0.170410156
vt 0.670410156 0.176269531
vt 0.702636719 0.185913086
vt 0.673828125 0.183837891
vt 0.700683594 0.196289062
vt 0.701660156 0.167602539
vt 0.747070312 0.163330078
vt 0.773925781 0.141723633
vt 0.791503906 0.133056641
vt 0.748046875 0.184814453
vt 0.774414062 0.16015625
vt 0.788574219 0.142333984
vt 0.793945312 0.134399414
vt 0.791503906 0.142333984
vt 0.788085938 0.154296875
vt 0.791015625 0.152832031
vt 0.750488281 0.197265625
vt 0.776367188 0.175170898
vt 0.791015625 0.165039062
vt 0.793945312 0.162231445
vt 0.783691406 0.183349609
vt 0.796386719 0.172485352
vt 0.798828125 0.170654297
vt 0.741699219 0.232299805
vt 0.77734375 0.209350586
vt 0.6953125 0.223999023
vt 0.772460938 0.233642578
vt 0.669921875 0.213134766
vt 0.788085938 0.219482422
vt 0.674804688 0.200805664
vt 0.6640625 0.20690918
vt 0.667480469 0.197875977
vt 0.786621094 0.233032227
vt 0.791015625 0.221069336
vt 0.789550781 0.232666016
vt 0.484619141 0.177734375
vt 0.459960938 0.186401367
vt 0.45703125 0.193359375
vt 0.484375 0.187255859
vt 0.4609375 0.200317383
vt 0.455566406 0.204833984
vt 0.478027344 0.221313477
vt 0.456298828 0.212402344
vt 0.473632812 0.230102539
vt 0.512207031 0.243774414
vt 0.481445312 0.204711914
vt 0.512207031 0.234130859
vt 0.514160156 0.212158203
vt 0.542480469 0.238769531
vt 0.547363281 0.247436523
vt 0.518554688 0.189086914
vt 0.546386719 0.223266602
vt 0.559570312 0.239013672
vt 0.562988281 0.24621582
vt 0.562988281 0.23828125
vt 0.565917969 0.245117188
vt 0.564941406 0.225830078
vt 0.561523438 0.225830078
vt 0.568847656 0.212280273
vt 0.565917969 0.210083008
vt 0.574707031 0.204833984
vt 0.572753906 0.201660156
vt 0.550292969 0.201049805
vt 0.559082031 0.188720703
vt 0.522949219 0.17956543
vt 0.482910156 0.151611328
vt 0.462890625 0.171630859
vt 0.520019531 0.140991211
vt 0.462646484 0.161010742
vt 0.456054688 0.170532227
vt 0.455566406 0.161254883
vt 0.551757812 0.138793945
vt 0.553222656 0.169555664
vt 0.565429688 0.142456055
vt 0.568359375 0.162353516
vt 0.568359375 0.143554688
vt 0.570800781 0.16015625
vt 0.650390625 0.208374023
vt 0.631347656 0.205932617
vt 0.649414062 0.209350586
vt 0.631835938 0.204711914
vt 0.608886719 0.208984375
vt 0.655273438 0.190673828
vt 0.608886719 0.207763672
vt 0.5859375 0.215576172
vt 0.585449219 0.214233398
vt 0.634765625 0.191040039
vt 0.607910156 0.193847656
vt 0.580078125 0.197875977
vt 0.582519531 0.185668945
vt 0.623535156 0.177124023
vt 0.63671875 0.176269531
vt 0.6015625 0.180297852
vt 0.583496094 0.173828125
vt 0.610839844 0.167480469
vt 0.618652344 0.166137695
vt 0.596191406 0.170532227
vt 0.581054688 0.158447266
vt 0.589355469 0.157592773
vt 0.595703125 0.158081055
vt 0.585449219 0.158203125
vt 0.594726562 0.154785156
vt 0.589355469 0.156494141
vt 0.616699219 0.140014648
vt 0.619628906 0.145141602
vt 0.585449219 0.156494141
vt 0.635253906 0.124206543
vt 0.637207031 0.130249023
vt 0.654785156 0.10333252
vt 0.655761719 0.112121582
vt 0.607910156 0.137695312
vt 0.582519531 0.154785156
vt 0.575683594 0.142944336
vt 0.579589844 0.138671875
vt 0.573730469 0.12878418
vt 0.59375 0.135864258
vt 0.576660156 0.123718262
vt 0.566894531 0.115722656
vt 0.620605469 0.121948242
vt 0.598632812 0.121154785
vt 0.568847656 0.108154297
vt 0.6015625 0.104858398
vt 0.630371094 0.10369873
vt 0.543457031 0.108337402
vt 0.536132812 0.12109375
vt 0.554199219 0.129760742
vt 0.553710938 0.130737305
vt 0.53515625 0.122070312
vt 0.51171875 0.116516113
vt 0.512207031 0.115478516
vt 0.479980469 0.110290527
vt 0.480224609 0.109130859
vt 0.442138672 0.10534668
vt 0.517089844 0.102966309
vt 0.544921875 0.10168457
vt 0.444580078 0.104492188
vt 0.403320312 0.101013184
vt 0.483154297 0.0974121094
vt 0.402099609 0.0997314453
vt 0.364990234 0.0975341797
vt 0.565917969 0.0775756836
vt 0.519042969 0.0954589844
vt 0.444580078 0.0922851562
vt 0.364990234 0.0963134766
vt 0.334716797 0.0999145508
vt 0.334960938 0.0985107422
vt 0.484619141 0.0900878906
vt 0.520996094 0.0733032227
vt 0.403076172 0.0859375
vt 0.363769531 0.0813598633
vt 0.328613281 0.083984375
vt 0.442626953 0.083984375
vt 0.402099609 0.0791625977
vt 0.36328125 0.0736694336
vt 0.326416016 0.0774536133
vt 0.323242188 0.0584716797
vt 0.360839844 0.0559997559
vt 0.319580078 0.0393066406
vt 0.485839844 0.0681152344
vt 0.443603516 0.0631103516
vt 0.402832031 0.0599365234
vt 0.485595703 0.0467224121
vt 0.442626953 0.0431518555
vt 0.401123047 0.0416259766
vt 0.359619141 0.0397949219
vt 0.358154297 0.0317382812
vt 0.319091797 0.0308380127
vt 0.401367188 0.0328979492
vt 0.443115234 0.0349731445
vt 0.360351562 0.0163726807
vt 0.324462891 0.0141906738
vt 0.325683594 0.0128250122
vt 0.360595703 0.0149612427
vt 0.40234375 0.0181884766
vt 0.403808594 0.0169372559
vt 0.445556641 0.0202941895
vt 0.445556641 0.0190429688
vt 0.489990234 0.022857666
vt 0.488769531 0.0214385986
vt 0.485595703 0.0382995605
vt 0.51953125 0.0247192383
vt 0.520507812 0.0231323242
vt 0.517089844 0.0420837402
vt 0.540039062 0.0291900635
vt 0.540039062 0.0277252197
vt 0.520019531 0.0523376465
vt 0.5390625 0.0452880859
vt 0.557617188 0.0294952393
vt 0.558105469 0.0280456543
vt 0.544433594 0.0751342773
vt 0.540527344 0.053894043
vt 0.559082031 0.0454101562
vt 0.594726562 0.0280609131
vt 0.594238281 0.0264892578
vt 0.561035156 0.0543212891
vt 0.596191406 0.0449829102
vt 0.633300781 0.0241394043
vt 0.633300781 0.0223999023
vt 0.664550781 0.019241333
vt 0.601074219 0.0779418945
vt 0.59765625 0.0542907715
vt 0.635253906 0.0438842773
vt 0.664550781 0.0211029053
vt 0.635253906 0.0765991211
vt 0.693847656 0.0192718506
vt 0.694335938 0.0175933838
vt 0.665527344 0.0411376953
vt 0.635253906 0.0533447266
vt 0.664550781 0.0735473633
vt 0.664550781 0.0506286621
vt 0.7265625 0.0137710571
vt 0.726074219 0.0122833252
vt 0.693847656 0.0371704102
vt 0.692871094 0.0689086914
vt 0.775878906 0.00662994385
vt 0.775390625 0.00495147705
vt 0.693359375 0.0461120605
vt 0.729003906 0.0304718018
vt 0.827148438 0.00731277466
vt 0.827636719 0.00578308105
vt 0.776855469 0.0243225098
vt 0.727539062 0.0394592285
vt 0.864257812 0.0137710571
vt 0.86328125 0.0120010376
vt 0.726074219 0.0612487793
vt 0.776367188 0.0341491699
vt 0.826171875 0.0259399414
vt 0.896972656 0.0176696777
vt 0.898925781 0.0152435303
vt 0.861328125 0.0296173096
vt 0.826660156 0.0361633301
vt 0.776367188 0.0558776855
vt 0.727539062 0.0853271484
vt 0.948730469 0.0204620361
vt 0.94921875 0.0184936523
vt 0.8984375 0.0323791504
vt 0.991210938 0.0243225098
vt 0.991210938 0.022644043
vt 0.948730469 0.0354309082
vt 0.995117188 0.0411071777
vt 0.859863281 0.0373535156
vt 0.949707031 0.0435791016
vt 0.995605469 0.0494689941
vt 0.993652344 0.0680541992
vt 0.896972656 0.0403747559
vt 0.895507812 0.0565795898
vt 0.858886719 0.0548095703
vt 0.946777344 0.0606689453
vt 0.942871094 0.0772705078
vt 0.989257812 0.0857543945
vt 0.82421875 0.0556030273
vt 0.778320312 0.0775146484
vt 0.895507812 0.0727539062
vt 0.942382812 0.0832519531
vt 0.986816406 0.0916137695
vt 0.823242188 0.0751953125
vt 0.895996094 0.0790405273
vt 0.940917969 0.0977783203
vt 0.978515625 0.104736328
vt 0.858398438 0.0717773438
vt 0.940917969 0.0986938477
vt 0.977539062 0.105529785
vt 0.896484375 0.0983276367
vt 0.896484375 0.0968017578
vt 0.856933594 0.0949707031
vt 0.857421875 0.0935668945
vt 0.827636719 0.0944213867
vt 0.857421875 0.0786132812
vt 0.826171875 0.0935668945
vt 0.779296875 0.100952148
vt 0.82421875 0.0816040039
vt 0.776855469 0.0996704102
vt 0.732910156 0.105285645
vt 0.779296875 0.0861206055
vt 0.73046875 0.104736328
vt 0.69921875 0.116394043
vt 0.729492188 0.0928344727
vt 0.698242188 0.11517334
vt 0.669433594 0.127807617
vt 0.669433594 0.126586914
vt 0.691894531 0.101928711
vt 0.690429688 0.0946655273
vn 0.284912109 -0.157958984 0.9453125
vn 0.930175781 0.0622253418 0.362304688
vn 0.704589844 -0.432617188 0.5625
vn 0.625 0.477539062 0.6171875
vn 0.969726562 0.240234375 -0.0399780273
vn 0.105712891 0.747070312 0.65625
vn -0.250488281 0.180419922 0.951171875
vn -0.675292969 0.44921875 0.584960938
vn -0.490966797 0.765136719 0.416992188
vn 0.201782227 0.979003906 0.0319213867
vn -0.474365234 0.87890625 0.0518798828
vn 0.710449219 0.704101562 0.00490570068
vn 0.916992188 0.0781860352 -0.391357422
vn 0.0728149414 0.778808594 -0.623046875
vn -0.563476562 0.751464844 -0.343261719
vn 0.625488281 0.494628906 -0.603515625
vn -0.286376953 0.142578125 -0.947265625
vn 0.706054688 -0.379638672 -0.59765625
vn 0.864746094 -0.501464844 -0.0229034424
vn 0.969726562 0.240234375 -0.0399780273
vn 0.930175781 0.0622253418 0.362304688
vn 0.704589844 -0.432617188 0.5625
vn 0.358154297 -0.864746094 0.3515625
vn 0.258789062 -0.965820312 0.0245666504
vn 0.389892578 -0.828125 -0.402587891
vn 0.300048828 -0.131958008 -0.944824219
vn -0.165771484 -0.768554688 -0.617675781
vn 0.258789062 -0.965820312 0.0245666504
vn -0.666015625 -0.411376953 -0.622558594
vn -0.340576172 -0.939941406 0.0188446045
vn 0.358154297 -0.864746094 0.3515625
vn -0.751953125 0.404785156 -0.520507812
vn -0.879394531 0.475097656 0.0239715576
vn -0.474365234 0.87890625 0.0518798828
vn -0.490966797 0.765136719 0.416992188
vn -0.675292969 0.44921875 0.584960938
vn -0.922363281 0.10760498 0.370605469
vn -1 -0.00749588013 0.0160522461
vn -0.940917969 0.100769043 -0.323486328
vn -0.812011719 -0.583007812 0.0226745605
vn -1 -0.00749588013 0.0160522461
vn -0.675292969 -0.403808594 0.6171875
vn -0.922363281 0.10760498 0.370605469
vn -0.187988281 -0.771484375 0.607421875
vn 0.704589844 -0.432617188 0.5625
vn 0.284912109 -0.157958984 0.9453125
vn -0.250488281 0.180419922 0.951171875
vn -0.675292969 0.44921875 0.584960938
vn -0.57421875 0.069152832 0.815917969
vn -0.672363281 -0.211547852 0.709472656
vn -0.717773438 -0.439208984 -0.540039062
vn -0.667480469 -0.0736694336 -0.741210938
vn -0.601074219 0.145996094 -0.785644531
vn -0.604492188 0.0367431641 0.795410156
vn -0.568359375 -0.190185547 0.80078125
vn 0.20324707 -0.359863281 -0.910644531
vn 0.715820312 -0.623046875 -0.315429688
vn 0.860351562 -0.365722656 -0.354736328
vn 0.241088867 -0.283691406 0.928222656
vn 0.134887695 -0.0394287109 0.990234375
vn 0.217651367 -0.222167969 -0.950195312
vn 0.270019531 0.0695800781 -0.960449219
vn -0.615722656 0.428955078 -0.661132812
vn -0.567871094 -0.151000977 0.809082031
vn 0.916992188 -0.0998535156 -0.386474609
vn 0.236694336 0.508789062 -0.827636719
vn -0.752929688 0.426757812 -0.500976562
vn -0.603027344 0.0582275391 0.795410156
vn -0.83984375 0.365234375 -0.401855469
vn 0.114257812 0.654296875 -0.747558594
vn 0.00726699829 0.507324219 -0.861816406
vn 0.20715332 -0.0921630859 0.974121094
vn 0.912597656 0.364013672 -0.187011719
vn 0.833007812 0.549804688 -0.0625610352
vn 0.930175781 0.301025391 -0.210205078
vn 0.115844727 -0.194580078 0.974121094
vn 0.227416992 -0.0889892578 0.969726562
vn 0.447265625 0.0167388916 0.894042969
vn -0.604492188 0.0367431641 0.795410156
vn 0.115844727 -0.194580078 0.974121094
vn -0.57421875 0.069152832 0.815917969
vn -0.568359375 -0.190185547 0.80078125
vn -0.672363281 -0.211547852 0.709472656
vn 0.227416992 -0.0889892578 0.969726562
vn 0.241088867 -0.283691406 0.928222656
vn -0.717773438 -0.439208984 -0.540039062
vn 0.715820312 -0.623046875 -0.315429688
vn -0.567871094 -0.151000977 0.809082031
vn 0.447265625 0.0167388916 0.894042969
vn -0.603027344 0.0582275391 0.795410156
vn -0.206054688 -0.312011719 0.927246094
vn -0.358886719 -0.209350586 0.909667969
vn -0.433837891 0.899414062 0.0524597168
vn 0.00536727905 0.996582031 -0.0842285156
vn -0.190551758 0.642578125 -0.7421875
vn -0.536132812 -0.186279297 -0.823242188
vn -0.187988281 -0.199584961 -0.961914062
vn -0.427001953 -0.793945312 0.432373047
vn -0.268554688 -0.771972656 0.575683594
vn -0.382080078 -0.772949219 0.506347656
vn 0.019317627 0.616210938 -0.787597656
vn 0.0104293823 -0.218017578 -0.976074219
vn 0.271240234 0.58203125 -0.766601562
vn 0.197753906 -0.350341797 -0.915527344
vn -0.468261719 -0.752441406 0.463378906
vn 0.314697266 0.944824219 -0.0893554688
vn 0.511230469 0.450439453 -0.731933594
vn 0.430664062 -0.564941406 -0.703613281
vn -0.397949219 -0.779785156 0.483398438
vn 0.552246094 -0.661621094 -0.506835938
vn -0.119995117 -0.833496094 0.539550781
vn 0.892578125 0.225708008 -0.390869141
vn 0.737792969 0.345458984 -0.579589844
vn 0.781738281 0.592773438 0.194946289
vn 0.650878906 0.750976562 0.113464355
vn 0.12878418 -0.327636719 0.936035156
vn -0.205810547 -0.291015625 0.934082031
vn 0.555175781 0.831054688 -0.029800415
vn -0.3671875 -0.347167969 0.862792969
vn -0.225463867 -0.258544922 0.939453125
vn -0.268554688 -0.771972656 0.575683594
vn -0.358886719 -0.209350586 0.909667969
vn -0.382080078 -0.772949219 0.506347656
vn -0.427001953 -0.793945312 0.432373047
vn -0.433837891 0.899414062 0.0524597168
vn -0.536132812 -0.186279297 -0.823242188
vn -0.468261719 -0.752441406 0.463378906
vn -0.3671875 -0.347167969 0.862792969
vn -0.397949219 -0.779785156 0.483398438
vn -0.205810547 -0.291015625 0.934082031
vn -0.119995117 -0.833496094 0.539550781
vn 0.12878418 -0.327636719 0.936035156
vn 0.0111465454 0.982910156 -0.184204102
vn -0.00317382812 0.965820312 -0.258300781
vn -0.0288085938 0.982910156 -0.181762695
vn 0.024230957 0.952148438 -0.3046875
vn 0.0564575195 0.965332031 -0.255859375
vn 0.257568359 0.953613281 -0.156738281
vn 0.0473937988 0.946777344 -0.318359375
vn 0.0364990234 0.981445312 -0.187133789
vn -0.00575637817 0.969726562 -0.244384766
vn 0.025680542 0.426757812 -0.903808594
vn 0.109130859 0.374755859 -0.920898438
vn -0.184814453 0.922363281 -0.339111328
vn -0.126098633 -0.474365234 -0.87109375
vn 0.0838623047 -0.534179688 -0.841308594
vn 0.390136719 0.0628051758 -0.918457031
vn 0.0969848633 -0.572753906 -0.813964844
vn -0.323730469 -0.6953125 -0.642089844
vn 0.175292969 -0.661132812 -0.729492188
vn 0.582519531 0.263183594 -0.769042969
vn 0.0632324219 -0.735839844 -0.674316406
vn -0.38671875 -0.729492188 -0.564453125
vn 0.155883789 -0.659667969 -0.734863281
vn 0.564453125 0.0813598633 -0.821289062
vn -0.05859375 -0.723632812 -0.6875
vn 0.119140625 0.98046875 0.156738281
vn -0.0969238281 0.911132812 0.400634766
vn 0.239379883 0.875976562 0.418457031
vn 0.582519531 0.263183594 -0.769042969
vn -0.16796875 0.884277344 0.435302734
vn 0.302490234 0.640625 0.705566406
vn 0.390136719 0.0628051758 -0.918457031
vn 0.459716797 0.350097656 0.81640625
vn 0.257568359 0.953613281 -0.156738281
vn -0.0914306641 0.734375 0.672363281
vn -0.315429688 0.817871094 0.481201172
vn -0.323730469 -0.6953125 -0.642089844
vn -0.380859375 0.670898438 0.636230469
vn -0.126098633 -0.474365234 -0.87109375
vn -0.151245117 0.725585938 0.671386719
vn -0.388427734 0.416259766 0.822265625
vn -0.184814453 0.922363281 -0.339111328
vn 0.000324964523 0.471435547 0.881835938
vn -0.173461914 0.448486328 0.876953125
vn -0.394042969 0.253662109 0.883300781
vn -0.174316406 0.212036133 0.961425781
vn 0.0846557617 0.226318359 0.970214844
vn -0.268310547 0.962890625 0.0355224609
vn -0.110595703 0.983886719 -0.139648438
vn -0.00575637817 0.969726562 -0.244384766
vn 0.0364990234 0.981445312 -0.187133789
vn -0.0677490234 0.991210938 -0.112121582
vn -0.15234375 0.970703125 -0.186035156
vn -0.171630859 0.973144531 -0.154174805
vn -0.0580444336 0.965332031 -0.254150391
vn -0.0689697266 0.975585938 -0.207641602
vn 0.108032227 0.948730469 -0.297119141
vn -0.341308594 0.937988281 -0.0596313477
vn -0.637695312 0.359863281 0.681152344
vn 0.111999512 0.960449219 -0.254638672
vn 0.150878906 0.947265625 -0.282958984
vn -0.313476562 0.939453125 -0.137084961
vn 0.190795898 0.945800781 -0.261962891
vn 0.132446289 0.975097656 -0.176879883
vn -0.392578125 0.10534668 0.913574219
vn -0.856933594 0.379882812 0.348144531
vn -0.164428711 0.959472656 -0.228759766
vn 0.135375977 0.975097656 -0.176757812
vn 0.0113830566 0.993164062 -0.115966797
vn 0.0292358398 0.991210938 -0.129760742
vn -0.910644531 0.394042969 0.125976562
vn -0.893066406 0.165039062 0.418212891
vn -0.0781860352 0.948730469 -0.306640625
vn -0.0723266602 0.9453125 -0.318603516
vn -0.0698852539 0.916992188 -0.392822266
vn -0.896484375 0.437744141 -0.0689086914
vn -0.844726562 0.439941406 -0.3046875
vn -0.706054688 0.344726562 -0.618652344
vn -0.326660156 0.206787109 -0.922363281
vn -0.354003906 0.0613708496 -0.933105469
vn -0.735839844 0.164306641 -0.656738281
vn -0.356933594 -0.0946044922 -0.929199219
vn -0.955566406 0.218139648 0.19934082
vn -0.950683594 0.310302734 -0.00102615356
vn -0.904296875 0.314453125 -0.288330078
vn -0.964355469 0.0709838867 0.255126953
vn -0.985839844 0.157836914 0.0535888672
vn -0.946289062 0.10357666 -0.305908203
vn -0.744140625 -0.0468139648 -0.666503906
vn -0.449462891 -0.862792969 -0.231445312
vn -0.202758789 -0.887207031 -0.414306641
vn -0.553222656 -0.832519531 0.0232086182
vn -0.490966797 -0.842773438 0.221191406
vn -0.187866211 -0.979980469 0.0676879883
vn -0.0735473633 -0.99609375 -0.0511169434
vn -0.0628051758 -0.998046875 0.00521850586
vn -0.178588867 -0.978027344 0.109558105
vn -0.174194336 -0.967773438 0.180664062
vn -0.161865234 -0.962402344 0.217529297
vn -0.0658569336 -0.977050781 0.202758789
vn -0.0479431152 -0.973632812 0.223754883
vn 0.0997924805 -0.98828125 0.114624023
vn 0.0649414062 -0.979980469 0.188964844
vn -0.373291016 -0.895019531 0.243530273
vn 0.225952148 -0.973144531 0.038482666
vn 0.197143555 -0.976074219 0.0903320312
vn -0.304199219 -0.916015625 0.260742188
vn 0.203735352 -0.978027344 -0.040222168
vn 0.186767578 -0.981445312 -0.0432434082
vn -0.89453125 -0.00834655762 0.447265625
vn -0.172607422 -0.932617188 0.316162109
vn 0.0829467773 -0.984375 -0.156494141
vn 0.102600098 -0.979492188 -0.173706055
vn -0.654296875 0.144042969 0.7421875
vn -0.680175781 -0.0845947266 0.728027344
vn -0.094909668 -0.969238281 0.227294922
vn 0.0305633545 -0.982910156 -0.182128906
vn 0.0362854004 -0.979003906 -0.199584961
vn -0.393554688 -0.161621094 0.904785156
vn -0.0458679199 -0.974609375 0.21875
vn -0.0417175293 -0.986328125 -0.160766602
vn -0.0550537109 -0.983398438 -0.173095703
vn -0.172241211 -0.983886719 -0.0465087891
vn -0.16809082 0.0772705078 0.982910156
vn -0.173950195 -0.192382812 0.965820312
vn 0.0266571045 -0.973144531 0.227783203
vn -0.111633301 -0.992675781 -0.0444946289
vn 0.147583008 0.056854248 0.987304688
vn -0.0919189453 -0.987792969 0.127563477
vn -0.178344727 -0.975097656 0.132324219
vn 0.116516113 -0.953125 0.279052734
vn 0.162109375 -0.212036133 0.963867188
vn 0.567382812 0.127929688 0.813476562
vn 0.534179688 -0.149658203 0.83203125
vn 0.0350036621 -0.979492188 0.198974609
vn 0.00254249573 -0.976074219 0.218505859
vn 0.275390625 -0.892089844 0.357910156
vn 0.812988281 0.209472656 0.543457031
vn 0.14050293 -0.974609375 0.173095703
vn 0.141967773 -0.971191406 0.192016602
vn 0.806640625 -0.0375366211 0.590332031
vn 0.447998047 -0.848632812 0.280761719
vn 0.198120117 -0.975097656 0.100463867
vn 0.200195312 -0.973144531 0.111816406
vn 0.53125 -0.83203125 0.159912109
vn 0.959472656 0.0494689941 0.277832031
vn 0.190063477 -0.981445312 -0.0123062134
vn 0.15637207 -0.987304688 0.0273284912
vn 0.938964844 0.232666016 0.252929688
vn 0.997070312 0.057220459 0.049987793
vn 0.597167969 -0.801757812 -0.00971984863
vn 0.130126953 -0.990234375 -0.0533752441
vn 0.108093262 -0.993164062 -0.0392456055
vn 0.504394531 -0.8125 -0.292236328
vn 0.977050781 0.0203857422 -0.212158203
vn 0.974609375 0.221923828 0.0330810547
vn 0.887695312 0.412353516 0.203979492
vn 0.0553283691 -0.99609375 -0.0671386719
vn 0.0654296875 -0.997070312 -0.0386962891
vn 0.248046875 -0.876953125 -0.411132812
vn -0.0735473633 -0.99609375 -0.0511169434
vn -0.0628051758 -0.998046875 0.00521850586
vn 0.0645751953 -0.911621094 -0.406494141
vn -0.202758789 -0.887207031 -0.414306641
vn 0.7890625 -0.0806274414 -0.609375
vn 0.00305557251 -0.142578125 -0.989746094
vn -0.356933594 -0.0946044922 -0.929199219
vn -0.354003906 0.0613708496 -0.933105469
vn 0.368408203 -0.159057617 -0.916015625
vn 0.349609375 0.03515625 -0.936035156
vn 0.781738281 0.0827636719 -0.617675781
vn -0.00106239319 0.048034668 -0.999023438
vn -0.00636291504 0.165283203 -0.986328125
vn -0.326660156 0.206787109 -0.922363281
vn 0.96484375 0.176391602 -0.195678711
vn 0.927246094 0.373779297 0.0023021698
vn 0.305419922 0.192260742 -0.932617188
vn -0.0398254395 0.912109375 -0.408447266
vn -0.0698852539 0.916992188 -0.392822266
vn 0.916015625 0.342041016 -0.210693359
vn -0.0122451782 0.909179688 -0.416015625
vn -0.0403137207 0.991699219 -0.12097168
vn 0.0292358398 0.991210938 -0.129760742
vn 0.728515625 0.269775391 -0.629882812
vn -0.0379333496 0.995605469 -0.0882568359
vn 0.0113830566 0.993164062 -0.115966797
vn -0.106018066 0.990234375 -0.08984375
vn -0.122070312 0.987304688 -0.101501465
vn -0.170898438 0.96875 -0.179443359
vn -0.181518555 0.973632812 -0.138916016
vn -0.110900879 0.958984375 -0.26171875
vn 0.135620117 0.924316406 -0.356933594
vn -0.0962524414 0.969238281 -0.226928711
vn -0.0501403809 0.973632812 -0.223388672
vn 0.240844727 0.934082031 -0.263916016
vn -0.054901123 0.977539062 -0.203613281
vn -0.0826416016 0.975585938 -0.202636719
vn 0.273193359 0.944824219 -0.180175781
vn -0.000990867615 0.98046875 -0.196411133
vn 0.035736084 0.979003906 -0.201293945
vn 0.286376953 0.953125 -0.0980224609
vn 0.0306091309 0.982421875 -0.18371582
vn -0.0288085938 0.982910156 -0.181762695
vn 0.0111465454 0.982910156 -0.184204102
vn 0.221923828 0.974609375 -0.0363464355
vn 0.750488281 0.449951172 0.484375
g J_Bandana_0
f 3/3/3 2/2/2 1/1/1
f 2/2/2 4/4/4 1/1/1
f 2/2/2 5/5/5 4/4/4
f 4/4/4 6/6/6 1/1/1
f 6/6/6 7/7/7 1/1/1
f 7/7/7 6/6/6 8/8/8
f 6/6/6 9/9/9 8/8/8
f 6/6/6 10/10/10 9/9/9
f 10/10/10 6/6/6 4/4/4
f 10/10/10 11/11/11 9/9/9
f 5/5/5 12/12/12 4/4/4
f 12/12/12 10/10/10 4/4/4
f 12/12/12 5/5/5 13/13/13
f 11/11/11 10/10/10 14/14/14
f 14/14/14 10/10/10 12/12/12
f 15/15/15 11/11/11 14/14/14
f 16/16/16 14/14/14 12/12/12
f 16/16/16 12/12/12 13/13/13
f 14/14/14 17/17/17 15/15/15
f 17/17/17 14/14/14 16/16/16
f 13/13/13 18/18/18 16/16/16
f 13/13/13 19/19/19 18/18/18
f 20/20/20 19/19/19 13/13/13
f 21/21/21 19/19/19 20/20/20
f 22/22/22 19/19/19 21/21/21
f 23/23/23 19/19/19 22/22/22
f 24/24/24 19/19/19 23/23/23
f 25/25/25 19/19/19 24/24/24
f 18/18/18 19/19/19 25/25/25
f 18/18/18 26/26/26 16/16/16
f 18/18/18 25/25/25 26/26/26
f 26/26/26 17/17/17 16/16/16
f 25/25/25 27/27/27 26/26/26
f 25/25/25 28/28/28 27/27/27
f 29/29/29 17/17/17 26/26/26
f 27/27/27 29/29/29 26/26/26
f 28/28/28 30/30/30 27/27/27
f 28/28/28 31/31/31 30/30/30
f 17/17/17 29/29/29 32/32/32
f 17/17/17 32/32/32 15/15/15
f 32/32/32 33/33/33 15/15/15
f 15/15/15 33/33/33 34/34/34
f 34/34/34 33/33/33 35/35/35
f 35/35/35 33/33/33 36/36/36
f 36/36/36 33/33/33 37/37/37
f 37/37/37 33/33/33 38/38/38
f 38/38/38 33/33/33 39/39/39
f 39/39/39 33/33/33 32/32/32
f 29/29/29 39/39/39 32/32/32
f 40/40/40 29/29/29 27/27/27
f 29/29/29 40/40/40 39/39/39
f 30/30/30 40/40/40 27/27/27
f 40/40/40 41/41/41 39/39/39
f 40/40/40 42/42/42 41/41/41
f 42/42/42 40/40/40 30/30/30
f 42/42/42 43/43/43 41/41/41
f 44/44/44 42/42/42 30/30/30
f 31/31/31 44/44/44 30/30/30
f 31/31/31 45/45/45 44/44/44
f 45/45/45 46/46/46 44/44/44
f 46/46/46 47/47/47 44/44/44
f 47/47/47 42/42/42 44/44/44
f 42/42/42 47/47/47 43/43/43
f 47/47/47 48/48/48 43/43/43
f 51/51/51 50/50/50 49/49/49
f 52/52/52 51/51/51 49/49/49
f 53/53/53 52/52/52 49/49/49
f 54/54/54 53/53/53 49/49/49
f 54/54/54 55/55/55 53/53/53
f 51/51/51 52/52/52 56/56/56
f 51/51/51 56/56/56 57/57/57
f 57/57/57 56/56/56 58/58/58
f 59/59/59 57/57/57 58/58/58
f 60/60/60 59/59/59 58/58/58
f 52/52/52 61/61/61 56/56/56
f 56/56/56 61/61/61 58/58/58
f 62/62/62 61/61/61 52/52/52
f 53/53/53 62/62/62 52/52/52
f 55/55/55 63/63/63 53/53/53
f 55/55/55 64/64/64 63/63/63
f 58/58/58 61/61/61 65/65/65
f 61/61/61 62/62/62 65/65/65
f 66/66/66 62/62/62 53/53/53
f 63/63/63 66/66/66 53/53/53
f 65/65/65 62/62/62 66/66/66
f 64/64/64 67/67/67 63/63/63
f 63/63/63 67/67/67 66/66/66
f 64/64/64 68/68/68 67/67/67
f 68/68/68 69/69/69 67/67/67
f 67/67/67 69/69/69 70/70/70
f 67/67/67 70/70/70 66/66/66
f 69/69/69 71/71/71 70/70/70
f 65/65/65 72/72/72 58/58/58
f 72/72/72 60/60/60 58/58/58
f 73/73/73 65/65/65 66/66/66
f 66/66/66 70/70/70 73/73/73
f 65/65/65 73/73/73 72/72/72
f 70/70/70 71/71/71 74/74/74
f 70/70/70 74/74/74 73/73/73
f 71/71/71 75/75/75 74/74/74
f 73/73/73 76/76/76 72/72/72
f 73/73/73 74/74/74 76/76/76
f 74/74/74 77/77/77 76/76/76
f 74/74/74 75/75/75 77/77/77
f 75/75/75 78/78/78 77/77/77
f 72/72/72 79/79/79 60/60/60
f 72/72/72 80/80/80 79/79/79
f 79/79/79 81/81/81 60/60/60
f 80/80/80 82/82/82 79/79/79
f 81/81/81 83/83/83 60/60/60
f 80/80/80 84/84/84 82/82/82
f 83/83/83 85/85/85 60/60/60
f 83/83/83 86/86/86 85/85/85
f 86/86/86 87/87/87 85/85/85
f 84/84/84 88/88/88 82/82/82
f 84/84/84 89/89/89 88/88/88
f 89/89/89 90/90/90 88/88/88
f 93/93/93 92/92/92 91/91/91
f 94/94/94 93/93/93 91/91/91
f 93/93/93 94/94/94 95/95/95
f 93/93/93 95/95/95 96/96/96
f 96/96/96 95/95/95 97/97/97
f 98/98/98 96/96/96 97/97/97
f 99/99/99 98/98/98 97/97/97
f 100/100/100 99/99/99 97/97/97
f 95/95/95 101/101/101 97/97/97
f 94/94/94 101/101/101 95/95/95
f 102/102/102 100/100/100 97/97/97
f 97/97/97 101/101/101 102/102/102
f 103/103/103 101/101/101 94/94/94
f 101/101/101 103/103/103 102/102/102
f 102/102/102 104/104/104 100/100/100
f 104/104/104 105/105/105 100/100/100
f 106/106/106 103/103/103 94/94/94
f 106/106/106 94/94/94 91/91/91
f 102/102/102 103/103/103 107/107/107
f 104/104/104 102/102/102 107/107/107
f 107/107/107 103/103/103 106/106/106
f 104/104/104 108/108/108 105/105/105
f 108/108/108 109/109/109 105/105/105
f 108/108/108 110/110/110 109/109/109
f 110/110/110 111/111/111 109/109/109
f 112/112/112 110/110/110 108/108/108
f 113/113/113 108/108/108 104/104/104
f 113/113/113 112/112/112 108/108/108
f 107/107/107 113/113/113 104/104/104
f 114/114/114 112/112/112 113/113/113
f 115/115/115 114/114/114 113/113/113
f 115/115/115 113/113/113 107/107/107
f 116/116/116 114/114/114 115/115/115
f 117/117/117 116/116/116 115/115/115
f 118/118/118 115/115/115 107/107/107
f 117/117/117 115/115/115 118/118/118
f 118/118/118 107/107/107 106/106/106
f 119/119/119 117/117/117 118/118/118
f 119/119/119 118/118/118 106/106/106
f 120/120/120 119/119/119 106/106/106
f 120/120/120 106/106/106 91/91/91
f 120/120/120 91/91/91 121/121/121
f 91/91/91 122/122/122 121/121/121
f 123/123/123 120/120/120 121/121/121
f 122/122/122 124/124/124 121/121/121
f 122/122/122 125/125/125 124/124/124
f 125/125/125 126/126/126 124/124/124
f 123/123/123 127/127/127 120/120/120
f 127/127/127 128/128/128 120/120/120
f 127/127/127 129/129/129 128/128/128
f 129/129/129 130/130/130 128/128/128
f 129/129/129 131/131/131 130/130/130
f 131/131/131 132/132/132 130/130/130
f 135/135/135 134/134/134 133/133/133
f 134/134/134 136/136/136 133/133/133
f 134/134/134 137/137/137 136/136/136
f 133/133/133 136/136/136 138/138/138
f 137/137/137 139/139/139 136/136/136
f 137/137/137 140/140/140 139/139/139
f 140/140/140 141/141/141 139/139/139
f 136/136/136 142/142/142 138/138/138
f 136/136/136 139/139/139 142/142/142
f 139/139/139 141/141/141 143/143/143
f 139/139/139 143/143/143 142/142/142
f 141/141/141 144/144/144 143/143/143
f 144/144/144 145/145/145 143/143/143
f 142/142/142 146/146/146 138/138/138
f 142/142/142 143/143/143 146/146/146
f 146/146/146 147/147/147 138/138/138
f 145/145/145 148/148/148 143/143/143
f 143/143/143 148/148/148 146/146/146
f 145/145/145 149/149/149 148/148/148
f 146/146/146 150/150/150 147/147/147
f 146/146/146 148/148/148 150/150/150
f 150/150/150 151/151/151 147/147/147
f 149/149/149 152/152/152 148/148/148
f 148/148/148 152/152/152 150/150/150
f 149/149/149 153/153/153 152/152/152
f 150/150/150 154/154/154 151/151/151
f 150/150/150 152/152/152 154/154/154
f 154/154/154 155/155/155 151/151/151
f 153/153/153 156/156/156 152/152/152
f 152/152/152 156/156/156 154/154/154
f 155/155/155 154/154/154 157/157/157
f 154/154/154 156/156/156 158/158/158
f 154/154/154 158/158/158 157/157/157
f 155/155/155 157/157/157 159/159/159
f 159/159/159 157/157/157 158/158/158
f 160/160/160 155/155/155 159/159/159
f 161/161/161 156/156/156 153/153/153
f 156/156/156 161/161/161 158/158/158
f 160/160/160 159/159/159 162/162/162
f 163/163/163 160/160/160 162/162/162
f 163/163/163 162/162/162 164/164/164
f 165/165/165 163/163/163 164/164/164
f 166/166/166 159/159/159 158/158/158
f 162/162/162 159/159/159 166/166/166
f 167/167/167 161/161/161 153/153/153
f 167/167/167 153/153/153 168/168/168
f 169/169/169 167/167/167 168/168/168
f 161/161/161 167/167/167 169/169/169
f 169/169/169 168/168/168 170/170/170
f 158/158/158 161/161/161 171/171/171
f 171/171/171 161/161/161 169/169/169
f 166/166/166 158/158/158 171/171/171
f 172/172/172 169/169/169 170/170/170
f 171/171/171 169/169/169 172/172/172
f 172/172/172 170/170/170 173/173/173
f 174/174/174 162/162/162 166/166/166
f 164/164/164 162/162/162 174/174/174
f 166/166/166 171/171/171 175/175/175
f 175/175/175 171/171/171 172/172/172
f 174/174/174 166/166/166 175/175/175
f 175/175/175 172/172/172 176/176/176
f 176/176/176 172/172/172 173/173/173
f 174/174/174 175/175/175 177/177/177
f 177/177/177 175/175/175 176/176/176
f 178/178/178 164/164/164 174/174/174
f 178/178/178 174/174/174 177/177/177
f 176/176/176 173/173/173 179/179/179
f 180/180/180 179/179/179 173/173/173
f 181/181/181 180/180/180 173/173/173
f 181/181/181 182/182/182 180/180/180
f 182/182/182 183/183/183 180/180/180
f 183/183/183 184/184/184 180/180/180
f 184/184/184 185/185/185 180/180/180
f 180/180/180 185/185/185 179/179/179
f 184/184/184 186/186/186 185/185/185
f 186/186/186 187/187/187 185/185/185
f 186/186/186 188/188/188 187/187/187
f 185/185/185 189/189/189 179/179/179
f 185/185/185 187/187/187 189/189/189
f 190/190/190 176/176/176 179/179/179
f 190/190/190 179/179/179 189/189/189
f 188/188/188 191/191/191 187/187/187
f 188/188/188 192/192/192 191/191/191
f 187/187/187 193/193/193 189/189/189
f 187/187/187 191/191/191 193/193/193
f 192/192/192 194/194/194 191/191/191
f 192/192/192 195/195/195 194/194/194
f 196/196/196 176/176/176 190/190/190
f 177/177/177 176/176/176 196/196/196
f 189/189/189 193/193/193 197/197/197
f 197/197/197 190/190/190 189/189/189
f 191/191/191 198/198/198 193/193/193
f 191/191/191 194/194/194 198/198/198
f 195/195/195 199/199/199 194/194/194
f 195/195/195 200/200/200 199/199/199
f 200/200/200 201/201/201 199/199/199
f 193/193/193 202/202/202 197/197/197
f 193/193/193 198/198/198 202/202/202
f 190/190/190 197/197/197 203/203/203
f 203/203/203 197/197/197 202/202/202
f 194/194/194 199/199/199 204/204/204
f 194/194/194 204/204/204 198/198/198
f 199/199/199 201/201/201 205/205/205
f 199/199/199 205/205/205 204/204/204
f 201/201/201 206/206/206 205/205/205
f 198/198/198 207/207/207 202/202/202
f 198/198/198 204/204/204 207/207/207
f 204/204/204 205/205/205 208/208/208
f 204/204/204 208/208/208 207/207/207
f 209/209/209 205/205/205 206/206/206
f 205/205/205 209/209/209 208/208/208
f 210/210/210 209/209/209 206/206/206
f 210/210/210 211/211/211 209/209/209
f 211/211/211 212/212/212 209/209/209
f 208/208/208 209/209/209 212/212/212
f 211/211/211 213/213/213 212/212/212
f 214/214/214 202/202/202 207/207/207
f 214/214/214 203/203/203 202/202/202
f 215/215/215 207/207/207 208/208/208
f 215/215/215 214/214/214 207/207/207
f 216/216/216 208/208/208 212/212/212
f 216/216/216 215/215/215 208/208/208
f 214/214/214 215/215/215 217/217/217
f 214/214/214 217/217/217 203/203/203
f 218/218/218 215/215/215 216/216/216
f 215/215/215 218/218/218 217/217/217
f 219/219/219 216/216/216 212/212/212
f 219/219/219 218/218/218 216/216/216
f 213/213/213 220/220/220 212/212/212
f 220/220/220 219/219/219 212/212/212
f 220/220/220 213/213/213 221/221/221
f 213/213/213 222/222/222 221/221/221
f 223/223/223 219/219/219 220/220/220
f 221/221/221 223/223/223 220/220/220
f 218/218/218 219/219/219 224/224/224
f 219/219/219 223/223/223 224/224/224
f 225/225/225 221/221/221 222/222/222
f 226/226/226 225/225/225 222/222/222
f 226/226/226 227/227/227 225/225/225
f 227/227/227 228/228/228 225/225/225
f 225/225/225 229/229/229 221/221/221
f 225/225/225 228/228/228 229/229/229
f 229/229/229 223/223/223 221/221/221
f 228/228/228 230/230/230 229/229/229
f 229/229/229 231/231/231 223/223/223
f 229/229/229 230/230/230 231/231/231
f 231/231/231 224/224/224 223/223/223
f 230/230/230 232/232/232 231/231/231
f 231/231/231 232/232/232 233/233/233
f 231/231/231 233/233/233 224/224/224
f 232/232/232 234/234/234 233/233/233
f 224/224/224 235/235/235 218/218/218
f 233/233/233 235/235/235 224/224/224
f 235/235/235 217/217/217 218/218/218
f 233/233/233 234/234/234 236/236/236
f 233/233/233 236/236/236 235/235/235
f 234/234/234 237/237/237 236/236/236
f 217/217/217 235/235/235 238/238/238
f 236/236/236 238/238/238 235/235/235
f 236/236/236 237/237/237 239/239/239
f 236/236/236 239/239/239 238/238/238
f 237/237/237 240/240/240 239/239/239
f 241/241/241 217/217/217 238/238/238
f 217/217/217 241/241/241 203/203/203
f 239/239/239 242/242/242 238/238/238
f 238/238/238 242/242/242 241/241/241
f 239/239/239 240/240/240 243/243/243
f 239/239/239 243/243/243 242/242/242
f 240/240/240 244/244/244 243/243/243
f 245/245/245 203/203/203 241/241/241
f 245/245/245 190/190/190 203/203/203
f 245/245/245 196/196/196 190/190/190
f 242/242/242 246/246/246 241/241/241
f 246/246/246 245/245/245 241/241/241
f 243/243/243 247/247/247 242/242/242
f 242/242/242 247/247/247 246/246/246
f 243/243/243 244/244/244 248/248/248
f 243/243/243 248/248/248 247/247/247
f 244/244/244 249/249/249 248/248/248
f 246/246/246 250/250/250 245/245/245
f 250/250/250 196/196/196 245/245/245
f 247/247/247 250/250/250 246/246/246
f 248/248/248 251/251/251 247/247/247
f 247/247/247 251/251/251 250/250/250
f 248/248/248 249/249/249 252/252/252
f 248/248/248 252/252/252 251/251/251
f 249/249/249 253/253/253 252/252/252
f 253/253/253 254/254/254 252/252/252
f 255/255/255 196/196/196 250/250/250
f 255/255/255 177/177/177 196/196/196
f 178/178/178 177/177/177 255/255/255
f 251/251/251 256/256/256 250/250/250
f 256/256/256 255/255/255 250/250/250
f 252/252/252 257/257/257 251/251/251
f 256/256/256 251/251/251 257/257/257
f 254/254/254 258/258/258 252/252/252
f 252/252/252 258/258/258 257/257/257
f 259/259/259 178/178/178 255/255/255
f 259/259/259 255/255/255 256/256/256
f 258/258/258 254/254/254 260/260/260
f 254/254/254 261/261/261 260/260/260
f 258/258/258 262/262/262 257/257/257
f 258/258/258 260/260/260 262/262/262
f 263/263/263 256/256/256 257/257/257
f 263/263/263 259/259/259 256/256/256
f 263/263/263 257/257/257 262/262/262
f 259/259/259 264/264/264 178/178/178
f 264/264/264 164/164/164 178/178/178
f 263/263/263 265/265/265 259/259/259
f 265/265/265 263/263/263 262/262/262
f 265/265/265 264/264/264 259/259/259
f 260/260/260 261/261/261 266/266/266
f 261/261/261 267/267/267 266/266/266
f 260/260/260 268/268/268 262/262/262
f 265/265/265 262/262/262 268/268/268
f 260/260/260 266/266/266 268/268/268
f 264/264/264 269/269/269 164/164/164
f 264/264/264 265/265/265 269/269/269
f 266/266/266 267/267/267 270/270/270
f 267/267/267 271/271/271 270/270/270
f 272/272/272 265/265/265 268/268/268
f 265/265/265 272/272/272 269/269/269
f 266/266/266 273/273/273 268/268/268
f 266/266/266 270/270/270 273/273/273
f 272/272/272 268/268/268 273/273/273
f 270/270/270 271/271/271 274/274/274
f 271/271/271 275/275/275 274/274/274
f 270/270/270 276/276/276 273/273/273
f 270/270/270 274/274/274 276/276/276
f 277/277/277 272/272/272 273/273/273
f 277/277/277 273/273/273 276/276/276
f 274/274/274 275/275/275 278/278/278
f 275/275/275 279/279/279 278/278/278
f 277/277/277 280/280/280 272/272/272
f 280/280/280 269/269/269 272/272/272
f 281/281/281 277/277/277 276/276/276
f 277/277/277 281/281/281 280/280/280
f 274/274/274 282/282/282 276/276/276
f 274/274/274 278/278/278 282/282/282
f 276/276/276 282/282/282 281/281/281
f 278/278/278 279/279/279 283/283/283
f 279/279/279 284/284/284 283/283/283
f 278/278/278 285/285/285 282/282/282
f 278/278/278 283/283/283 285/285/285
f 282/282/282 286/286/286 281/281/281
f 282/282/282 285/285/285 286/286/286
f 281/281/281 287/287/287 280/280/280
f 287/287/287 281/281/281 286/286/286
f 280/280/280 288/288/288 269/269/269
f 280/280/280 287/287/287 288/288/288
f 283/283/283 284/284/284 289/289/289
f 284/284/284 290/290/290 289/289/289
f 283/283/283 291/291/291 285/285/285
f 283/283/283 289/289/289 291/291/291
f 289/289/289 290/290/290 292/292/292
f 290/290/290 293/293/293 292/292/292
f 289/289/289 292/292/292 294/294/294
f 289/289/289 294/294/294 291/291/291
f 292/292/292 295/295/295 294/294/294
f 296/296/296 285/285/285 291/291/291
f 285/285/285 296/296/296 286/286/286
f 294/294/294 295/295/295 297/297/297
f 295/295/295 298/298/298 297/297/297
f 297/297/297 298/298/298 299/299/299
f 300/300/300 291/291/291 294/294/294
f 300/300/300 296/296/296 291/291/291
f 297/297/297 300/300/300 294/294/294
f 296/296/296 300/300/300 301/301/301
f 301/301/301 300/300/300 297/297/297
f 286/286/286 296/296/296 302/302/302
f 302/302/302 296/296/296 301/301/301
f 303/303/303 297/297/297 299/299/299
f 303/303/303 301/301/301 297/297/297
f 304/304/304 303/303/303 299/299/299
f 303/303/303 304/304/304 301/301/301
f 305/305/305 304/304/304 299/299/299
f 306/306/306 286/286/286 302/302/302
f 306/306/306 287/287/287 286/286/286
f 287/287/287 306/306/306 307/307/307
f 287/287/287 307/307/307 288/288/288
f 302/302/302 301/301/301 308/308/308
f 304/304/304 308/308/308 301/301/301
f 304/304/304 305/305/305 309/309/309
f 305/305/305 310/310/310 309/309/309
f 306/306/306 302/302/302 311/311/311
f 306/306/306 311/311/311 307/307/307
f 312/312/312 308/308/308 304/304/304
f 309/309/309 312/312/312 304/304/304
f 313/313/313 309/309/309 310/310/310
f 314/314/314 313/313/313 310/310/310
f 315/315/315 302/302/302 308/308/308
f 302/302/302 315/315/315 311/311/311
f 316/316/316 313/313/313 314/314/314
f 317/317/317 316/316/316 314/314/314
f 316/316/316 318/318/318 313/313/313
f 313/313/313 319/319/319 309/309/309
f 318/318/318 319/319/319 313/313/313
f 319/319/319 312/312/312 309/309/309
f 318/318/318 320/320/320 319/319/319
f 320/320/320 321/321/321 319/319/319
f 319/319/319 321/321/321 312/312/312
f 320/320/320 322/322/322 321/321/321
f 312/312/312 323/323/323 308/308/308
f 323/323/323 315/315/315 308/308/308
f 321/321/321 323/323/323 312/312/312
f 322/322/322 324/324/324 321/321/321
f 321/321/321 324/324/324 323/323/323
f 322/322/322 325/325/325 324/324/324
f 315/315/315 323/323/323 326/326/326
f 324/324/324 326/326/326 323/323/323
f 311/311/311 315/315/315 326/326/326
f 325/325/325 327/327/327 324/324/324
f 324/324/324 327/327/327 326/326/326
f 325/325/325 328/328/328 327/327/327
f 311/311/311 326/326/326 329/329/329
f 327/327/327 329/329/329 326/326/326
f 307/307/307 311/311/311 329/329/329
f 328/328/328 330/330/330 327/327/327
f 327/327/327 330/330/330 329/329/329
f 328/328/328 331/331/331 330/330/330
f 307/307/307 329/329/329 332/332/332
f 330/330/330 332/332/332 329/329/329
f 288/288/288 307/307/307 332/332/332
f 331/331/331 333/333/333 330/330/330
f 330/330/330 333/333/333 332/332/332
f 331/331/331 334/334/334 333/333/333
f 334/334/334 335/335/335 333/333/333
f 333/333/333 336/336/336 332/332/332
f 333/333/333 335/335/335 336/336/336
f 288/288/288 332/332/332 336/336/336
f 335/335/335 165/165/165 336/336/336
f 337/337/337 288/288/288 336/336/336
f 336/336/336 165/165/165 337/337/337
f 288/288/288 337/337/337 269/269/269
f 165/165/165 164/164/164 337/337/337
f 269/269/269 337/337/337 164/164/164
