g MiniGame_Light_Bulb
v -0.0697610453 -0.037823163 0.140644535
v 0.068914488 0.212276012 0.138925776
v 0.0697604343 -0.037823163 0.140644535
v -0.068914488 0.212276012 0.138925776
v 0.0527438335 0.381614685 0.10634765
v -0.0527444445 0.381614685 0.10634765
v -0.0527444445 0.381614685 0.10634765
v -0.109508969 0.381614685 0.00283203111
v -3.05175774E-07 0.437182158 0.00189453119
v 0.0527438335 0.381614685 0.10634765
v 0.109508358 0.381614685 0.00283203111
v -0.068914488 0.212276012 -0.138964847
v -0.0697610453 -0.037823163 -0.140683591
v 0.0697604343 -0.037823163 -0.140683591
v 0.068914488 0.212276012 -0.138964847
v -0.0527444445 0.381614685 -0.106386714
v 0.0527438335 0.381614685 -0.106386714
v 0.0697604343 -0.037823163 0.140644535
v 0.143081963 0.212276012 0.00369140622
v 0.144839168 -0.037823163 0.00373046868
v 0.068914488 0.212276012 0.138925776
v 0.109508358 0.381614685 0.00283203111
v 0.0527438335 0.381614685 0.10634765
v -0.144839779 -0.037823163 0.00373046868
v -0.068914488 0.212276012 0.138925776
v -0.0697610453 -0.037823163 0.140644535
v -0.143081963 0.212276012 0.00369140622
v -0.0527444445 0.381614685 0.10634765
v -0.109508969 0.381614685 0.00283203111
v -0.0697610453 -0.037823163 -0.140683591
v -0.143081963 0.212276012 0.00369140622
v -0.144839779 -0.037823163 0.00373046868
v -0.068914488 0.212276012 -0.138964847
v -0.109508969 0.381614685 0.00283203111
v -0.0527444445 0.381614685 -0.106386714
v 0.143081963 0.212276012 0.00369140622
v 0.0697604343 -0.037823163 -0.140683591
v 0.144839168 -0.037823163 0.00373046868
v 0.068914488 0.212276012 -0.138964847
v 0.0527438335 0.381614685 -0.106386714
v 0.109508358 0.381614685 0.00283203111
v 0.0527438335 0.381614685 -0.106386714
v 0.109508358 0.381614685 0.00283203111
v -3.05175774E-07 0.437182158 0.00189453119
v -0.0527444445 0.381614685 -0.106386714
v -0.109508969 0.381614685 0.00283203111
vt 0.933105469 0.416503906
vt 0.953125 0.478271484
vt 0.951660156 0.416503906
vt 0.930664062 0.476074219
vt 0.952636719 0.500976562
vt 0.93359375 0.500976562
vt 0.93359375 0.500976562
vt 0.919433594 0.513671875
vt 0.940429688 0.526367188
vt 0.952636719 0.500976562
vt 0.966796875 0.515136719
vt 0.930664062 0.476074219
vt 0.933105469 0.416503906
vt 0.951660156 0.416503906
vt 0.953125 0.478271484
vt 0.93359375 0.500976562
vt 0.952636719 0.500976562
vt 0.951660156 0.416503906
vt 0.98046875 0.491455078
vt 0.970214844 0.416503906
vt 0.953125 0.478271484
vt 0.966796875 0.515136719
vt 0.952636719 0.500976562
vt 0.914550781 0.416503906
vt 0.930664062 0.476074219
vt 0.933105469 0.416503906
vt 0.904785156 0.487548828
vt 0.93359375 0.500976562
vt 0.919433594 0.513671875
vt 0.933105469 0.416503906
vt 0.904785156 0.487548828
vt 0.913574219 0.416503906
vt 0.930664062 0.476074219
vt 0.919433594 0.513671875
vt 0.93359375 0.500976562
vt 0.98046875 0.491455078
vt 0.951660156 0.416503906
vt 0.971191406 0.416503906
vt 0.953125 0.478271484
vt 0.952636719 0.500976562
vt 0.966796875 0.515136719
vt 0.952636719 0.500976562
vt 0.966796875 0.515136719
vt 0.940429688 0.526367188
vt 0.93359375 0.500976562
vt 0.919433594 0.513671875
vn -0.537597656 0.00760269165 0.843261719
vn 0.534667969 0.0806274414 0.841308594
vn 0.537597656 0.00760269165 0.843261719
vn -0.534667969 0.0806274414 0.841308594
vn 0.505371094 0.349365234 0.7890625
vn -0.505371094 0.349365234 0.7890625
vn -0.505371094 0.349365234 0.7890625
vn -0.942382812 0.334960938 -0.000774383545
vn -0 1 -0.00108528137
vn 0.505371094 0.349365234 0.7890625
vn 0.942382812 0.334960938 -0.000774383545
vn -0.5546875 0.0803222656 -0.828125
vn -0.558105469 0.00758743286 -0.829589844
vn 0.558105469 0.00758743286 -0.829589844
vn 0.5546875 0.0803222656 -0.828125
vn -0.523925781 0.350830078 -0.776367188
vn 0.523925781 0.350830078 -0.776367188
vn 0.537597656 0.00760269165 0.843261719
vn 0.997070312 0.0753173828 0.000306844711
vn 1 0.00703811646 2.35438347E-05
vn 0.534667969 0.0806274414 0.841308594
vn 0.942382812 0.334960938 -0.000774383545
vn 0.505371094 0.349365234 0.7890625
vn -1 0.00704193115 2.36034393E-05
vn -0.534667969 0.0806274414 0.841308594
vn -0.537597656 0.00760269165 0.843261719
vn -0.997070312 0.0753173828 0.00030708313
vn -0.505371094 0.349365234 0.7890625
vn -0.942382812 0.334960938 -0.000774383545
vn -0.558105469 0.00758743286 -0.829589844
vn -0.997070312 0.0753173828 0.00030708313
vn -1 0.00704193115 2.36034393E-05
vn -0.5546875 0.0803222656 -0.828125
vn -0.942382812 0.334960938 -0.000774383545
vn -0.523925781 0.350830078 -0.776367188
vn 0.997070312 0.0753173828 0.000306844711
vn 0.558105469 0.00758743286 -0.829589844
vn 1 0.00703811646 2.35438347E-05
vn 0.5546875 0.0803222656 -0.828125
vn 0.523925781 0.350830078 -0.776367188
vn 0.942382812 0.334960938 -0.000774383545
vn 0.523925781 0.350830078 -0.776367188
vn 0.942382812 0.334960938 -0.000774383545
vn -0 1 -0.00108528137
vn -0.523925781 0.350830078 -0.776367188
vn -0.942382812 0.334960938 -0.000774383545
g MiniGame_Light_Bulb_0
f 3/3/3 2/2/2 1/1/1
f 2/2/2 4/4/4 1/1/1
f 2/2/2 5/5/5 4/4/4
f 5/5/5 6/6/6 4/4/4
f 9/9/9 8/8/8 7/7/7
f 10/10/10 9/9/9 7/7/7
f 10/10/10 11/11/11 9/9/9
f 14/14/14 13/13/13 12/12/12
f 15/15/15 14/14/14 12/12/12
f 12/12/12 16/16/16 15/15/15
f 16/16/16 17/17/17 15/15/15
f 20/20/20 19/19/19 18/18/18
f 19/19/19 21/21/21 18/18/18
f 19/19/19 22/22/22 21/21/21
f 22/22/22 23/23/23 21/21/21
f 26/26/26 25/25/25 24/24/24
f 25/25/25 27/27/27 24/24/24
f 25/25/25 28/28/28 27/27/27
f 28/28/28 29/29/29 27/27/27
f 32/32/32 31/31/31 30/30/30
f 31/31/31 33/33/33 30/30/30
f 31/31/31 34/34/34 33/33/33
f 34/34/34 35/35/35 33/33/33
f 38/38/38 37/37/37 36/36/36
f 37/37/37 39/39/39 36/36/36
f 39/39/39 40/40/40 36/36/36
f 40/40/40 41/41/41 36/36/36
f 44/44/44 43/43/43 42/42/42
f 44/44/44 42/42/42 45/45/45
f 44/44/44 45/45/45 46/46/46
