g EnergyStructure_Door_2_Frame
v -0.447902575 0.960892901 -0.539921772
v -0.454261959 -1.20129773 -0.533562388
v -0.227443922 -1.20553732 -0.658630277
v -0.221084538 0.958773106 -0.664989662
v -0.136292748 0.784949938 -0.493286288
v 0.296145378 0.784949938 0.403386885
v 0.383056962 0.963012695 0.575090259
v -0.221084538 0.958773106 -0.664989662
v -0.142652133 -1.20553732 -0.486926904
v -0.136292748 0.784949938 -0.493286288
v -0.221084538 0.958773106 -0.664989662
v -0.227443922 -1.20553732 -0.658630277
v 0.383056962 0.963012695 0.575090259
v 0.296145378 0.784949938 0.403386885
v 0.291905788 -1.20341752 0.409746269
v 0.376697578 -1.20553732 0.581449643
v 0.383056962 0.963012695 0.575090259
v 0.376697578 -1.20553732 0.581449643
v 0.181676462 -1.19917793 0.689559174
v 0.188035846 0.963012695 0.68319979
v -0.142652133 -1.20553732 -0.486926904
v -0.310115917 -1.20553732 -0.408494499
v -0.305876327 0.784949938 -0.414853883
v -0.136292748 0.784949938 -0.493286288
v 0.128681594 0.787069732 0.48181929
v 0.296145378 0.784949938 0.403386885
v -0.136292748 0.784949938 -0.493286288
v -0.305876327 0.784949938 -0.414853883
v 0.296145378 0.784949938 0.403386885
v 0.128681594 0.787069732 0.48181929
v 0.124442004 -1.20341752 0.488178675
v 0.291905788 -1.20341752 0.409746269
v 0.188035846 0.963012695 0.68319979
v -0.447902575 0.960892901 -0.539921772
v -0.221084538 0.958773106 -0.664989662
v 0.383056962 0.963012695 0.575090259
vt 0.302253257 0.51967236
vt 0.0332431793 0.51967236
vt 0.0332431793 0.449656039
vt 0.254347352 0.449656039
vt 0.453341108 0.453341108
vt 0.243292144 0.453341108
vt 0.210126518 0.52335743
vt 0.486506734 0.52335743
vt 0.0332431793 0.51967236
vt 0.339103952 0.51967236
vt 0.372269578 0.449656039
vt 0.0332431793 0.449656039
vt 0.372269578 0.449656039
vt 0.339103952 0.51967236
vt 0.0332431793 0.51967236
vt 0.0332431793 0.449656039
vt 0.361214369 0.486506734
vt 0.0332431793 0.51967236
vt 0.0332431793 0.449656039
vt 0.316993535 0.449656039
vt 0.0332431793 0.449656039
vt 0.0332431793 0.52335743
vt 0.512302221 0.52335743
vt 0.512302221 0.449656039
vt 0.217496657 0.453341108
vt 0.217496657 0.52335743
vt 0.479136595 0.52335743
vt 0.479136595 0.453341108
vt 0.512302221 0.52335743
vt 0.512302221 0.449656039
vt 0.0332431793 0.449656039
vt 0.0332431793 0.52335743
vt 0.52335743 0.453341108
vt 0.176960892 0.453341108
vt 0.176960892 0.52335743
vt 0.52335743 0.52335743
vn -0.492001579 -0.0158709571 -0.87044963
vn -0.492001579 -0.0158709571 -0.87044963
vn -0.492001579 -0.0158709571 -0.87044963
vn -0.492001579 -0.0158709571 -0.87044963
vn 0.904647895 -0.0158709571 -0.425864178
vn 0.904647895 -0.0158709571 -0.425864178
vn 0.904647895 -0.0158709571 -0.425864178
vn 0.904647895 -0.0158709571 -0.425864178
vn 0.904647895 -0.0158709571 -0.425864178
vn 0.904647895 -0.0158709571 -0.425864178
vn 0.904647895 -0.0158709571 -0.425864178
vn 0.904647895 -0.0158709571 -0.425864178
vn 0.904647895 -0.0158709571 -0.425864178
vn 0.904647895 -0.0158709571 -0.425864178
vn 0.904647895 -0.0158709571 -0.425864178
vn 0.904647895 -0.0158709571 -0.425864178
vn 0.49200146 0.0158710764 0.870449696
vn 0.49200146 0.0158710764 0.870449696
vn 0.49200146 0.0158710764 0.870449696
vn 0.49200146 0.0158710764 0.870449696
vn 0.428517393 0.0158710764 0.903394129
vn 0.428517393 0.0158710764 0.903394129
vn 0.428517393 0.0158710764 0.903394129
vn 0.428517393 0.0158710764 0.903394129
vn -0.0158710764 -0.999873996 -0.000318584877
vn -0.0158710764 -0.999873996 -0.000318584877
vn -0.0158710764 -0.999873996 -0.000318584877
vn -0.0158710764 -0.999873996 -0.000318584877
vn -0.428517512 -0.0158709571 -0.903394075
vn -0.428517512 -0.0158709571 -0.903394075
vn -0.428517512 -0.0158709571 -0.903394075
vn -0.428517512 -0.0158709571 -0.903394075
vn 0.0158709561 0.999874048 -0
vn 0.0158709561 0.999874048 -0
vn 0.0158709561 0.999874048 -0
vn 0.0158709561 0.999874048 -0
g EnergyStructure_Door_2_Frame_0
f 3/3/3 2/2/2 1/1/1
f 4/4/4 3/3/3 1/1/1
f 7/7/7 6/6/6 5/5/5
f 8/8/8 7/7/7 5/5/5
f 11/11/11 10/10/10 9/9/9
f 12/12/12 11/11/11 9/9/9
f 15/15/15 14/14/14 13/13/13
f 16/16/16 15/15/15 13/13/13
f 19/19/19 18/18/18 17/17/17
f 20/20/20 19/19/19 17/17/17
f 23/23/23 22/22/22 21/21/21
f 24/24/24 23/23/23 21/21/21
f 27/27/27 26/26/26 25/25/25
f 28/28/28 27/27/27 25/25/25
f 31/31/31 30/30/30 29/29/29
f 32/32/32 31/31/31 29/29/29
f 35/35/35 34/34/34 33/33/33
f 36/36/36 35/35/35 33/33/33
