g IS4_MDL_EscenarioPB_PosteMuseoCordon_1
v -0 -0.398416907 -0.245170355
v -0.134082034 -0.323252946 -0.134084702
v -0.173359364 -0.398416907 -0.173361585
v -0 -0.323252946 -0.189624399
v -0.0489160158 -0.230639085 -0.0489213951
v 0.173364252 -0.398416907 -0.173361585
v -0 -0.230639085 -0.0691855624
v 0.134086907 -0.323252946 -0.134084702
v 0.245185539 -0.398416907 -4.57763662E-07
v 0.0489501953 -0.230639085 -0.0489213951
v 0.189633787 -0.323252946 -4.57763662E-07
v 0.0691845715 -0.230639085 -4.57763662E-07
v -0.245166004 -0.398416907 -4.57763662E-07
v -0.134082034 -0.323252946 0.134084314
v -0.173359364 -0.398416907 0.173361197
v -0.189619139 -0.323252946 -4.57763662E-07
v -0.173359364 -0.398416907 -0.173361585
v -0.0489160158 -0.230639085 0.0489209741
v -0.134082034 -0.323252946 -0.134084702
v -0.0691796839 -0.230639085 -4.57763662E-07
v -0.0489160158 -0.230639085 -0.0489213951
v 0.173364252 -0.398416907 0.173361361
v 0.189633787 -0.323252946 -4.57763662E-07
v 0.245185539 -0.398416907 -4.57763662E-07
v 0.134086907 -0.323252946 0.134084389
v 0.0691845715 -0.230639085 -4.57763662E-07
v -0 -0.398416907 0.245169982
v 0.0489501953 -0.230639085 0.0489209741
v -0 -0.323252946 0.189624026
v -0.173359364 -0.398416907 0.173361197
v -0 -0.230639085 0.069184795
v -0.134082034 -0.323252946 0.134084314
v -0.0489160158 -0.230639085 0.0489209741
v -0.0447753891 0.653615534 0.0447705053
v -0 0.689629018 -5.34057619E-07
v -0 0.653615534 0.0633151978
v 0.0447753891 0.653615534 0.0447705053
v -0 0.589968681 0.0983842462
v 0.0633251965 0.653615534 -4.57763662E-07
v 0.069594726 0.589968681 0.0695680976
v 0.098393552 0.589968681 -5.34057619E-07
v 0.0489501953 -0.230639085 -0.0489213951
v 0.0379394516 0.511257827 -0.037937928
v -0 0.511257827 -0.0536521524
v -0 -0.230639085 -0.0691855624
v -0 -0.230639085 -0.0691855624
v -0 0.511257827 -0.0536521524
v -0.0379394516 0.511257827 -0.037937928
v -0.0489160158 -0.230639085 -0.0489213951
v -0.0536523424 0.511257827 -4.57763662E-07
v -0.0691796839 -0.230639085 -4.57763662E-07
v -0.0691796839 -0.230639085 -4.57763662E-07
v -0.0536523424 0.511257827 -4.57763662E-07
v -0.0379394516 0.511257827 0.0379373915
v -0.0489160158 -0.230639085 0.0489209741
v -0.0489160158 -0.230639085 0.0489209741
v -0.0379394516 0.511257827 0.0379373915
v -0 0.511257827 0.0536517315
v -0 -0.230639085 0.069184795
v 0.0379394516 0.511257827 0.0379373915
v 0.0489501953 -0.230639085 0.0489209741
v 0.0489501953 -0.230639085 0.0489209741
v 0.0379394516 0.511257827 0.0379373915
v 0.0536572263 0.511257827 -4.57763662E-07
v 0.0691845715 -0.230639085 -4.57763662E-07
v 0.0379394516 0.511257827 -0.037937928
v 0.0489501953 -0.230639085 -0.0489213951
v 0.0379394516 0.511257827 -0.037937928
v 0.069594726 0.589968681 -0.0695686713
v -0 0.589968681 -0.098384589
v -0 0.511257827 -0.0536521524
v -0 0.511257827 -0.0536521524
v -0 0.589968681 -0.098384589
v -0.0695703104 0.589968681 -0.0695686713
v -0.0379394516 0.511257827 -0.037937928
v -0.0983886719 0.589968681 -5.34057619E-07
v -0.0536523424 0.511257827 -4.57763662E-07
v -0.0536523424 0.511257827 -4.57763662E-07
v -0.0695703104 0.589968681 0.0695680976
v -0.0379394516 0.511257827 0.0379373915
v -0.0983886719 0.589968681 -5.34057619E-07
v -0.0447753891 0.653615534 0.0447705053
v -0.0633203089 0.653615534 -4.57763662E-07
v -0.0695703104 0.589968681 -0.0695686713
v -0 0.689629018 -5.34057619E-07
v -0.0447753891 0.653615534 -0.0447713472
v -0 0.511257827 0.0536517315
v 0.069594726 0.589968681 0.0695680976
v 0.0379394516 0.511257827 0.0379373915
v -0 0.589968681 0.0983842462
v -0.0379394516 0.511257827 0.0379373915
v -0.0695703104 0.589968681 0.0695680976
v -0 0.653615534 0.0633151978
v -0.0447753891 0.653615534 0.0447705053
v 0.0379394516 0.511257827 0.0379373915
v 0.069594726 0.589968681 0.0695680976
v 0.098393552 0.589968681 -5.34057619E-07
v 0.0536572263 0.511257827 -4.57763662E-07
v 0.069594726 0.589968681 -0.0695686713
v 0.0379394516 0.511257827 -0.037937928
v -0 0.589968681 -0.098384589
v -0.0447753891 0.653615534 -0.0447713472
v -0.0695703104 0.589968681 -0.0695686713
v -0 0.653615534 -0.0633158833
v 0.069594726 0.589968681 -0.0695686713
v -0 0.689629018 -5.34057619E-07
v 0.0447753891 0.653615534 -0.0447713472
v 0.098393552 0.589968681 -5.34057619E-07
v 0.0633251965 0.653615534 -4.57763662E-07
v 0.245185539 -0.398416907 -4.57763662E-07
v -0 -0.398416907 -4.57763662E-07
v 0.173364252 -0.398416907 0.173361361
v 0.173364252 -0.398416907 -0.173361585
v -0 -0.398416907 0.245169982
v -0 -0.398416907 -0.245170355
v -0.173359364 -0.398416907 0.173361197
v -0.173359364 -0.398416907 -0.173361585
v -0.245166004 -0.398416907 -4.57763662E-07
vt 0.450439453 0.409179688
vt 0.465087891 0.446777344
vt 0.481201172 0.439208984
vt 0.444335938 0.426025391
vt 0.440917969 0.457275391
vt 0.407470703 0.409912109
vt 0.434570312 0.450683594
vt 0.414794922 0.426025391
vt 0.377441406 0.440673828
vt 0.425537109 0.450195312
vt 0.394042969 0.446777344
vt 0.418701172 0.456542969
vt 0.481689453 0.482177734
vt 0.444335938 0.496826172
vt 0.451660156 0.513183594
vt 0.465087891 0.476074219
vt 0.481201172 0.439208984
vt 0.43359375 0.47265625
vt 0.465087891 0.446777344
vt 0.440429688 0.466552734
vt 0.440917969 0.457275391
vt 0.377929688 0.483642578
vt 0.394042969 0.446777344
vt 0.377441406 0.440673828
vt 0.394287109 0.476074219
vt 0.418701172 0.456542969
vt 0.408691406 0.513671875
vt 0.418457031 0.465576172
vt 0.415039062 0.496826172
vt 0.451660156 0.513183594
vt 0.424560547 0.472167969
vt 0.444335938 0.496826172
vt 0.43359375 0.47265625
vt 0.410400391 0.468017578
vt 0.426025391 0.461425781
vt 0.411865234 0.455078125
vt 0.422119141 0.446777344
vt 0.395751953 0.443603516
vt 0.434570312 0.448486328
vt 0.417480469 0.426757812
vt 0.443847656 0.428710938
vt 0.98046875 0.310302734
vt 0.625488281 0.310302734
vt 0.625488281 0.302734375
vt 0.98046875 0.302734375
vt 0.98046875 0.302734375
vt 0.625488281 0.302734375
vt 0.625488281 0.295166016
vt 0.98046875 0.295166016
vt 0.625488281 0.287353516
vt 0.98046875 0.287353516
vt 0.98046875 0.287353516
vt 0.625488281 0.287353516
vt 0.625488281 0.280029297
vt 0.98046875 0.280029297
vt 0.98046875 0.279541016
vt 0.625488281 0.279541016
vt 0.625488281 0.287597656
vt 0.98046875 0.287597656
vt 0.625488281 0.295410156
vt 0.98046875 0.295410156
vt 0.98046875 0.295410156
vt 0.625488281 0.295410156
vt 0.625488281 0.303222656
vt 0.98046875 0.303222656
vt 0.625488281 0.310302734
vt 0.98046875 0.310302734
vt 0.481445312 0.440673828
vt 0.4609375 0.448730469
vt 0.461914062 0.475097656
vt 0.480957031 0.483154297
vt 0.480957031 0.483154297
vt 0.461914062 0.475097656
vt 0.442138672 0.495605469
vt 0.449951172 0.513183594
vt 0.412353516 0.495117188
vt 0.406494141 0.512207031
vt 0.406494141 0.512207031
vt 0.392578125 0.47265625
vt 0.376953125 0.480712891
vt 0.412353516 0.495117188
vt 0.410400391 0.468017578
vt 0.419189453 0.477783203
vt 0.442138672 0.495605469
vt 0.426025391 0.461425781
vt 0.432128906 0.478515625
vt 0.378662109 0.4375
vt 0.417480469 0.426757812
vt 0.409912109 0.408447266
vt 0.395751953 0.443603516
vt 0.376953125 0.480712891
vt 0.392578125 0.47265625
vt 0.411865234 0.455078125
vt 0.410400391 0.468017578
vt 0.409912109 0.408447266
vt 0.417480469 0.426757812
vt 0.443847656 0.428710938
vt 0.452148438 0.409912109
vt 0.4609375 0.448730469
vt 0.481445312 0.440673828
vt 0.461914062 0.475097656
vt 0.432128906 0.478515625
vt 0.442138672 0.495605469
vt 0.441650391 0.470703125
vt 0.4609375 0.448730469
vt 0.426025391 0.461425781
vt 0.440673828 0.458496094
vt 0.443847656 0.428710938
vt 0.434570312 0.448486328
vt 0.377441406 0.439453125
vt 0.429199219 0.4609375
vt 0.407714844 0.409423828
vt 0.377441406 0.482421875
vt 0.450683594 0.409423828
vt 0.407714844 0.512695312
vt 0.480712891 0.439697266
vt 0.450439453 0.512695312
vt 0.480712891 0.482421875
vn 6.55651093E-07 -0.659179688 -0.751953125
vn -0.518066406 0.680664062 -0.518066406
vn -0.531738281 -0.659179688 -0.531738281
vn -0 0.680664062 -0.732421875
vn -0.431152344 0.79296875 -0.430908203
vn 0.531738281 -0.659179688 -0.531738281
vn -1.2755394E-05 0.792480469 -0.609375
vn 0.518066406 0.680664062 -0.518066406
vn 0.751953125 -0.659179688 -1.1920929E-07
vn 0.431152344 0.792480469 -0.430908203
vn 0.732421875 0.680664062 0
vn 0.609863281 0.792480469 -1.1920929E-07
vn -0.751953125 -0.659179688 0
vn -0.518066406 0.680664062 0.518066406
vn -0.531738281 -0.659179688 0.531738281
vn -0.732421875 0.680664062 0
vn -0.531738281 -0.659179688 -0.531738281
vn -0.431152344 0.79296875 0.430908203
vn -0.518066406 0.680664062 -0.518066406
vn -0.609375 0.79296875 -2.98023224E-07
vn -0.431152344 0.79296875 -0.430908203
vn 0.531738281 -0.659179688 0.531738281
vn 0.732421875 0.680664062 0
vn 0.751953125 -0.659179688 -1.1920929E-07
vn 0.518066406 0.680664062 0.518066406
vn 0.609863281 0.792480469 -1.1920929E-07
vn 4.17232513E-07 -0.659179688 0.751953125
vn 0.431152344 0.792480469 0.430908203
vn -2.38418579E-07 0.680664062 0.732421875
vn -0.531738281 -0.659179688 0.531738281
vn -1.28746033E-05 0.792480469 0.609375
vn -0.518066406 0.680664062 0.518066406
vn -0.431152344 0.79296875 0.430908203
vn -0.575683594 0.580566406 0.575683594
vn 1.37090683E-06 1 -2.98023224E-07
vn -0 0.580566406 0.813964844
vn 0.575683594 0.580566406 0.575683594
vn 8.58306885E-06 -0.0498046875 0.998535156
vn 0.813964844 0.580566406 2.98023224E-07
vn 0.706054688 -0.0498352051 0.706054688
vn 0.998535156 -0.0498352051 0
vn 0.70703125 0.0209503174 -0.70703125
vn 0.70703125 0.0209503174 -0.70703125
vn -0 0.0209350586 -1
vn 5.96046448E-07 0.0209350586 -1
vn 5.96046448E-07 0.0209350586 -1
vn -0 0.0209350586 -1
vn -0.70703125 0.0209197998 -0.70703125
vn -0.70703125 0.0209197998 -0.70703125
vn -1 0.0209197998 0
vn -1 0.0209197998 0
vn -1 0.0209197998 0
vn -1 0.0209197998 0
vn -0.70703125 0.0209197998 0.70703125
vn -0.70703125 0.0209197998 0.70703125
vn -0.70703125 0.0209197998 0.70703125
vn -0.70703125 0.0209197998 0.70703125
vn -0 0.0209350586 1
vn 6.55651093E-07 0.0209350586 1
vn 0.70703125 0.0209503174 0.70703125
vn 0.70703125 0.0209503174 0.70703125
vn 0.70703125 0.0209503174 0.70703125
vn 0.70703125 0.0209503174 0.70703125
vn 1 0.0209503174 0
vn 1 0.0209503174 0
vn 0.70703125 0.0209503174 -0.70703125
vn 0.70703125 0.0209503174 -0.70703125
vn 0.614746094 -0.494140625 -0.614746094
vn 0.706054688 -0.0498352051 -0.706054688
vn 8.5234642E-06 -0.0498046875 -0.998535156
vn -0 -0.494140625 -0.869628906
vn -0 -0.494140625 -0.869628906
vn 8.5234642E-06 -0.0498046875 -0.998535156
vn -0.706054688 -0.0498352051 -0.706054688
vn -0.614746094 -0.494140625 -0.614746094
vn -0.998535156 -0.0498352051 -2.38418579E-07
vn -0.869628906 -0.494140625 -1.1920929E-07
vn -0.869628906 -0.494140625 -1.1920929E-07
vn -0.706054688 -0.0498352051 0.706054688
vn -0.614746094 -0.494140625 0.614746094
vn -0.998535156 -0.0498352051 -2.38418579E-07
vn -0.575683594 0.580566406 0.575683594
vn -0.813964844 0.580566406 0
vn -0.706054688 -0.0498352051 -0.706054688
vn 1.37090683E-06 1 -2.98023224E-07
vn -0.575683594 0.580566406 -0.575683594
vn -0 -0.494140625 0.869628906
vn 0.706054688 -0.0498352051 0.706054688
vn 0.614746094 -0.494140625 0.614746094
vn 8.58306885E-06 -0.0498046875 0.998535156
vn -0.614746094 -0.494140625 0.614746094
vn -0.706054688 -0.0498352051 0.706054688
vn -0 0.580566406 0.813964844
vn -0.575683594 0.580566406 0.575683594
vn 0.614746094 -0.494140625 0.614746094
vn 0.706054688 -0.0498352051 0.706054688
vn 0.998535156 -0.0498352051 0
vn 0.869140625 -0.494140625 1.1920929E-07
vn 0.706054688 -0.0498352051 -0.706054688
vn 0.614746094 -0.494140625 -0.614746094
vn 8.5234642E-06 -0.0498046875 -0.998535156
vn -0.575683594 0.580566406 -0.575683594
vn -0.706054688 -0.0498352051 -0.706054688
vn -0 0.580566406 -0.813964844
vn 0.706054688 -0.0498352051 -0.706054688
vn 1.37090683E-06 1 -2.98023224E-07
vn 0.575683594 0.580566406 -0.575683594
vn 0.998535156 -0.0498352051 0
vn 0.813964844 0.580566406 2.98023224E-07
vn 0.751953125 -0.659179688 -1.1920929E-07
vn -0 -1 0
vn 0.531738281 -0.659179688 0.531738281
vn 0.531738281 -0.659179688 -0.531738281
vn 4.17232513E-07 -0.659179688 0.751953125
vn 6.55651093E-07 -0.659179688 -0.751953125
vn -0.531738281 -0.659179688 0.531738281
vn -0.531738281 -0.659179688 -0.531738281
vn -0.751953125 -0.659179688 0
g IS4_MDL_EscenarioPB_PosteMuseoCordon_1_0
f 3/3/3 2/2/2 1/1/1
f 2/2/2 4/4/4 1/1/1
f 2/2/2 5/5/5 4/4/4
f 1/1/1 4/4/4 6/6/6
f 5/5/5 7/7/7 4/4/4
f 4/4/4 8/8/8 6/6/6
f 4/4/4 7/7/7 8/8/8
f 6/6/6 8/8/8 9/9/9
f 7/7/7 10/10/10 8/8/8
f 8/8/8 11/11/11 9/9/9
f 8/8/8 10/10/10 11/11/11
f 10/10/10 12/12/12 11/11/11
f 15/15/15 14/14/14 13/13/13
f 14/14/14 16/16/16 13/13/13
f 13/13/13 16/16/16 17/17/17
f 14/14/14 18/18/18 16/16/16
f 16/16/16 19/19/19 17/17/17
f 18/18/18 20/20/20 16/16/16
f 16/16/16 20/20/20 19/19/19
f 20/20/20 21/21/21 19/19/19
f 24/24/24 23/23/23 22/22/22
f 23/23/23 25/25/25 22/22/22
f 23/23/23 26/26/26 25/25/25
f 22/22/22 25/25/25 27/27/27
f 26/26/26 28/28/28 25/25/25
f 25/25/25 29/29/29 27/27/27
f 25/25/25 28/28/28 29/29/29
f 27/27/27 29/29/29 30/30/30
f 28/28/28 31/31/31 29/29/29
f 29/29/29 32/32/32 30/30/30
f 29/29/29 31/31/31 32/32/32
f 31/31/31 33/33/33 32/32/32
f 36/36/36 35/35/35 34/34/34
f 37/37/37 35/35/35 36/36/36
f 37/37/37 36/36/36 38/38/38
f 39/39/39 35/35/35 37/37/37
f 40/40/40 37/37/37 38/38/38
f 39/39/39 37/37/37 40/40/40
f 41/41/41 39/39/39 40/40/40
f 44/44/44 43/43/43 42/42/42
f 45/45/45 44/44/44 42/42/42
f 48/48/48 47/47/47 46/46/46
f 49/49/49 48/48/48 46/46/46
f 50/50/50 48/48/48 49/49/49
f 51/51/51 50/50/50 49/49/49
f 54/54/54 53/53/53 52/52/52
f 55/55/55 54/54/54 52/52/52
f 58/58/58 57/57/57 56/56/56
f 59/59/59 58/58/58 56/56/56
f 60/60/60 58/58/58 59/59/59
f 61/61/61 60/60/60 59/59/59
f 64/64/64 63/63/63 62/62/62
f 65/65/65 64/64/64 62/62/62
f 66/66/66 64/64/64 65/65/65
f 67/67/67 66/66/66 65/65/65
f 70/70/70 69/69/69 68/68/68
f 71/71/71 70/70/70 68/68/68
f 74/74/74 73/73/73 72/72/72
f 75/75/75 74/74/74 72/72/72
f 76/76/76 74/74/74 75/75/75
f 77/77/77 76/76/76 75/75/75
f 80/80/80 79/79/79 78/78/78
f 79/79/79 81/81/81 78/78/78
f 79/79/79 82/82/82 81/81/81
f 82/82/82 83/83/83 81/81/81
f 81/81/81 83/83/83 84/84/84
f 82/82/82 85/85/85 83/83/83
f 83/83/83 86/86/86 84/84/84
f 83/83/83 85/85/85 86/86/86
f 89/89/89 88/88/88 87/87/87
f 88/88/88 90/90/90 87/87/87
f 87/87/87 90/90/90 91/91/91
f 90/90/90 92/92/92 91/91/91
f 90/90/90 93/93/93 92/92/92
f 93/93/93 94/94/94 92/92/92
f 97/97/97 96/96/96 95/95/95
f 98/98/98 97/97/97 95/95/95
f 99/99/99 97/97/97 98/98/98
f 100/100/100 99/99/99 98/98/98
f 103/103/103 102/102/102 101/101/101
f 102/102/102 104/104/104 101/101/101
f 101/101/101 104/104/104 105/105/105
f 102/102/102 106/106/106 104/104/104
f 104/104/104 107/107/107 105/105/105
f 104/104/104 106/106/106 107/107/107
f 105/105/105 107/107/107 108/108/108
f 107/107/107 106/106/106 109/109/109
f 107/107/107 109/109/109 108/108/108
f 112/112/112 111/111/111 110/110/110
f 110/110/110 111/111/111 113/113/113
f 114/114/114 111/111/111 112/112/112
f 113/113/113 111/111/111 115/115/115
f 116/116/116 111/111/111 114/114/114
f 115/115/115 111/111/111 117/117/117
f 118/118/118 111/111/111 116/116/116
f 117/117/117 111/111/111 118/118/118
