g Turbine_A_PanelDoor
v -4.00999943E-06 -0.235487416 3.00620422E-06
v -4.00999943E-06 0.235487387 3.00620422E-06
v -0.317848235 0.235487387 -0.00108769198
v -0.317848235 -0.235487416 -0.00108769198
v -6.50451548E-05 -0.235487416 0.0187420193
v -0.317909271 -0.235487416 0.0176616982
v -0.317909271 0.235487387 0.0176616982
v -6.50451548E-05 0.235487387 0.0187420193
v -6.50451548E-05 -0.235487416 0.0187420193
v -4.00999943E-06 -0.235487416 3.00620422E-06
v -0.317848235 -0.235487416 -0.00108769198
v -0.317909271 -0.235487416 0.0176616982
v -0.317909271 -0.235487416 0.0176616982
v -0.317848235 -0.235487416 -0.00108769198
v -0.317848235 0.235487387 -0.00108769198
v -0.317909271 0.235487387 0.0176616982
v -0.317909271 0.235487387 0.0176616982
v -0.317848235 0.235487387 -0.00108769198
v -4.00999943E-06 0.235487387 3.00620422E-06
v -6.50451548E-05 0.235487387 0.0187420193
v -6.50451548E-05 0.235487387 0.0187420193
v -4.00999943E-06 0.235487387 3.00620422E-06
v -4.00999943E-06 -0.235487416 3.00620422E-06
v -6.50451548E-05 -0.235487416 0.0187420193
vt 0.479980469 0.953125
vt 0.479980469 0.994140625
vt 0.5078125 0.994140625
vt 0.5078125 0.953125
vt 0.5078125 0.953125
vt 0.480224609 0.953125
vt 0.480224609 0.994140625
vt 0.5078125 0.994140625
vt 0.428466797 0.985351562
vt 0.430419922 0.985351562
vt 0.430419922 0.958007812
vt 0.428466797 0.958007812
vt 0.430419922 0.951171875
vt 0.428466797 0.951171875
vt 0.428466797 0.9921875
vt 0.430419922 0.9921875
vt 0.430419922 0.958007812
vt 0.428466797 0.958007812
vt 0.428466797 0.985351562
vt 0.430419922 0.985351562
vt 0.428466797 0.9921875
vt 0.430419922 0.9921875
vt 0.430419922 0.951171875
vt 0.428466797 0.951171875
vn 0.00343132019 0 -1
vn 0.00343132019 0 -1
vn 0.00343132019 0 -1
vn 0.00343132019 0 -1
vn -0.00339889526 0 1
vn -0.00339889526 0 1
vn -0.00339889526 0 1
vn -0.00339889526 0 1
vn -0 -1 0
vn -0 -1 0
vn -0 -1 0
vn -0 -1 0
vn -1 0 -0.00325584412
vn -1 0 -0.00325584412
vn -1 0 -0.00325584412
vn -1 0 -0.00325584412
vn -0 1 1.7285347E-06
vn -0 1 1.7285347E-06
vn -0 1 1.7285347E-06
vn -0 1 1.7285347E-06
vn 1 0 0.00325775146
vn 1 0 0.00325775146
vn 1 0 0.00325775146
vn 1 0 0.00325775146
g Turbine_A_PanelDoor_0
f 3/3/3 2/2/2 1/1/1
f 4/4/4 3/3/3 1/1/1
f 7/7/7 6/6/6 5/5/5
f 8/8/8 7/7/7 5/5/5
f 11/11/11 10/10/10 9/9/9
f 12/12/12 11/11/11 9/9/9
f 15/15/15 14/14/14 13/13/13
f 16/16/16 15/15/15 13/13/13
f 19/19/19 18/18/18 17/17/17
f 20/20/20 19/19/19 17/17/17
f 23/23/23 22/22/22 21/21/21
f 24/24/24 23/23/23 21/21/21
