g Turbine_A_Pipe_D
v -0.0150891114 0.255981147 -0.125286862
v 0.00866577122 0.238396034 -0.0898095667
v -0.00866577122 0.238396034 -0.0898095667
v 0.0150866695 0.255981147 -0.125286862
v -0.0150891114 0.255981147 -0.31078735
v 0.0226867665 0.225299418 -0.0898095667
v 0.0150866695 0.255981147 -0.31078735
v 0.039503172 0.233175233 -0.125286862
v 0.039503172 0.233175233 -0.31078735
v 0.0150866695 0.173370659 -0.125286862
v -0.00866577122 0.190955773 -0.0898095667
v 0.00866577122 0.190955773 -0.0898095667
v -0.0150891114 0.173370659 -0.125286862
v 0.0150866695 0.173370659 -0.31078735
v -0.0226867665 0.204052389 -0.0898095667
v -0.0150891114 0.173370659 -0.31078735
v -0.039503172 0.196176559 -0.125286862
v -0.039503172 0.196176559 -0.31078735
v -0.039503172 0.233175233 -0.31078735
v -0.0150891114 0.255981147 -0.31078735
v -0.0150891114 0.255981147 -0.125286862
v -0.039503172 0.233175233 -0.125286862
v -0.039503172 0.196176559 -0.31078735
v -0.00866577122 0.238396034 -0.0898095667
v -0.039503172 0.196176559 -0.125286862
v -0.0226867665 0.225299418 -0.0898095667
v -0.0226867665 0.204052389 -0.0898095667
v 0.039503172 0.196176559 -0.31078735
v 0.0150866695 0.173370659 -0.31078735
v 0.0150866695 0.173370659 -0.125286862
v 0.039503172 0.196176559 -0.125286862
v 0.039503172 0.233175233 -0.31078735
v 0.00866577122 0.190955773 -0.0898095667
v 0.039503172 0.233175233 -0.125286862
v 0.0226867665 0.204052389 -0.0898095667
v 0.0226867665 0.225299418 -0.0898095667
v -0.0125476075 0.224042773 0.38065064
v 0.000269775395 0.225891754 0.40549314
v -0.014395752 0.225891754 0.40549314
v -0.00157836906 0.224042773 0.38065064
v -0.0125476075 0.224042773 -0.0614660643
v -0.00157836906 0.224042773 -0.0614660643
v -0.0168029778 0.225773081 -0.092382811
v -0.00223022467 0.225773081 -0.092382811
v -0.00157836906 0.224042773 0.38065064
v 0.000269775395 0.211654201 0.40549314
v 0.000269775395 0.225891754 0.40549314
v -0.00157836906 0.213503256 0.38065064
v -0.00157836906 0.224042773 -0.0614660643
v -0.00157836906 0.213503256 -0.0614660643
v -0.00223022467 0.225773081 -0.092382811
v -0.00223022467 0.211772949 -0.092382811
v -0.00157836906 0.213503256 0.38065064
v -0.014395752 0.211654201 0.40549314
v 0.000269775395 0.211654201 0.40549314
v -0.0125476075 0.213503256 0.38065064
v -0.00157836906 0.213503256 -0.0614660643
v -0.0125476075 0.213503256 -0.0614660643
v -0.00223022467 0.211772949 -0.092382811
v -0.0168029778 0.211772949 -0.092382811
v -0.0125476075 0.213503256 0.38065064
v -0.014395752 0.225891754 0.40549314
v -0.014395752 0.211654201 0.40549314
v -0.0125476075 0.224042773 0.38065064
v -0.0125476075 0.213503256 -0.0614660643
v -0.0125476075 0.224042773 -0.0614660643
v -0.0168029778 0.211772949 -0.092382811
v -0.0168029778 0.225773081 -0.092382811
v 0.00499877939 0.216909364 0.38065064
v 0.0178161617 0.218758345 0.40549314
v 0.0031506347 0.218758345 0.40549314
v 0.0159680173 0.216909364 0.38065064
v 0.00499877939 0.216909364 -0.0614660643
v 0.0159680173 0.216909364 -0.0614660643
v 0.00565063441 0.218639672 -0.092382811
v 0.0202233884 0.218639672 -0.092382811
v 0.0159680173 0.216909364 0.38065064
v 0.0178161617 0.204520792 0.40549314
v 0.0178161617 0.218758345 0.40549314
v 0.0159680173 0.206369847 0.38065064
v 0.0159680173 0.216909364 -0.0614660643
v 0.0159680173 0.206369847 -0.0614660643
v 0.0202233884 0.218639672 -0.092382811
v 0.0202233884 0.204639539 -0.092382811
v 0.0159680173 0.206369847 0.38065064
v 0.0031506347 0.204520792 0.40549314
v 0.0178161617 0.204520792 0.40549314
v 0.00499877939 0.206369847 0.38065064
v 0.0159680173 0.206369847 -0.0614660643
v 0.00499877939 0.206369847 -0.0614660643
v 0.0202233884 0.204639539 -0.092382811
v 0.00565063441 0.204639539 -0.092382811
v 0.00499877939 0.206369847 0.38065064
v 0.0031506347 0.218758345 0.40549314
v 0.0031506347 0.204520792 0.40549314
v 0.00499877939 0.216909364 0.38065064
v 0.00499877939 0.206369847 -0.0614660643
v 0.00499877939 0.216909364 -0.0614660643
v 0.00565063441 0.204639539 -0.092382811
v 0.00565063441 0.218639672 -0.092382811
v 0.000650634756 0.221065208 -0.309188217
v 0.000650634756 0.221065208 -0.379480571
v 0.00985961873 0.217163384 -0.379480571
v 0.00985961873 0.217163384 -0.309188217
v -0.00855834968 0.217163384 -0.309188217
v -0.00855834968 0.217163384 -0.379480571
v 0.000650634756 0.221065208 -0.379480571
v 0.000650634756 0.221065208 -0.309188217
v -0.00855834968 0.20567733 -0.309188217
v -0.00855834968 0.217163384 -0.379480571
v -0.00855834968 0.217163384 -0.309188217
v -0.00855834968 0.20567733 -0.379480571
v -0.00855834968 0.210312039 -0.394881576
v -0.00855834968 0.20269607 -0.386283547
v -0.00855834968 0.187518224 -0.390142202
v -0.00855834968 0.187518224 -0.401600957
v -0.00855834968 0.210312039 -0.394881576
v 0.000650634756 0.201775506 -0.309188217
v 0.000650634756 0.201775506 -0.379480571
v -0.00855834968 0.20567733 -0.379480571
v -0.00855834968 0.20567733 -0.309188217
v 0.00985961873 0.20567733 -0.309188217
v 0.00985961873 0.20567733 -0.379480571
v 0.000650634756 0.201775506 -0.379480571
v 0.000650634756 0.201775506 -0.309188217
v 0.00985961873 0.217163384 -0.309188217
v 0.00985961873 0.217163384 -0.379480571
v 0.00985961873 0.20567733 -0.379480571
v 0.00985961873 0.20567733 -0.309188217
v 0.000650634756 0.221065208 -0.379480571
v 0.000650634756 0.212899089 -0.397803336
v 0.00985961873 0.210312039 -0.394881576
v 0.00985961873 0.217163384 -0.379480571
v -0.00855834968 0.217163384 -0.379480571
v -0.00855834968 0.210312039 -0.394881576
v 0.000650634756 0.212899089 -0.397803336
v 0.000650634756 0.221065208 -0.379480571
v 0.000650634756 0.201775506 -0.379480571
v 0.000650634756 0.200108975 -0.383363634
v -0.00855834968 0.20269607 -0.386283547
v -0.00855834968 0.20567733 -0.379480571
v 0.00985961873 0.20567733 -0.379480571
v 0.00985961873 0.20269607 -0.386283547
v 0.000650634756 0.200108975 -0.383363634
v 0.000650634756 0.201775506 -0.379480571
v 0.00985961873 0.217163384 -0.379480571
v 0.00985961873 0.210312039 -0.394881576
v 0.00985961873 0.20269607 -0.386283547
v 0.00985961873 0.20567733 -0.379480571
v 0.00985961873 0.210312039 -0.394881576
v 0.00985961873 0.187518224 -0.390142202
v 0.00985961873 0.187518224 -0.401600957
v 0.000650634756 0.212899089 -0.397803336
v 0.000650634756 0.187518224 -0.40549314
v 0.00985961873 0.187518224 -0.401600957
v 0.00985961873 0.210312039 -0.394881576
v -0.00855834968 0.210312039 -0.394881576
v -0.00855834968 0.187518224 -0.401600957
v 0.000650634756 0.187518224 -0.40549314
v 0.000650634756 0.212899089 -0.397803336
v 0.000650634756 0.200108975 -0.383363634
v 0.000650634756 0.187518224 -0.386249393
v -0.00855834968 0.187518224 -0.390142202
v -0.00855834968 0.20269607 -0.386283547
v 0.00985961873 0.20269607 -0.386283547
v 0.00985961873 0.187518224 -0.390142202
v 0.000650634756 0.187518224 -0.386249393
v 0.000650634756 0.200108975 -0.383363634
v 0.000650634756 0.187518224 -0.40549314
v 0.000650634756 -0.255981147 -0.40549314
v 0.00985961873 -0.255981147 -0.401600957
v 0.00985961873 0.187518224 -0.401600957
v -0.00855834968 0.187518224 -0.401600957
v -0.00855834968 -0.255981147 -0.401600957
v 0.000650634756 -0.255981147 -0.40549314
v 0.000650634756 0.187518224 -0.40549314
v -0.00855834968 0.187518224 -0.390142202
v -0.00855834968 -0.255981147 -0.390142202
v -0.00855834968 -0.255981147 -0.401600957
v -0.00855834968 0.187518224 -0.401600957
v 0.000650634756 0.187518224 -0.386249393
v 0.000650634756 -0.255981147 -0.386249393
v -0.00855834968 -0.255981147 -0.390142202
v -0.00855834968 0.187518224 -0.390142202
v 0.00985961873 0.187518224 -0.390142202
v 0.00985961873 -0.255981147 -0.390142202
v 0.000650634756 -0.255981147 -0.386249393
v 0.000650634756 0.187518224 -0.386249393
v 0.00985961873 0.187518224 -0.401600957
v 0.00985961873 -0.255981147 -0.401600957
v 0.00985961873 -0.255981147 -0.390142202
v 0.00985961873 0.187518224 -0.390142202
v -0.00866577122 0.190955773 -0.0898095667
v -0.0226867665 0.204052389 -0.0898095667
v -1.2207031E-06 0.214675903 -0.0855480954
v 0.00866577122 0.190955773 -0.0898095667
v -0.0226867665 0.225299418 -0.0898095667
v 0.0226867665 0.204052389 -0.0898095667
v -0.00866577122 0.238396034 -0.0898095667
v 0.0226867665 0.225299418 -0.0898095667
v 0.00866577122 0.238396034 -0.0898095667
v -0.039503172 0.196176559 -0.31078735
v -0.0150891114 0.173370659 -0.31078735
v -1.2207031E-06 0.214675903 -0.321761459
v -0.039503172 0.233175233 -0.31078735
v 0.0150866695 0.173370659 -0.31078735
v -0.0150891114 0.255981147 -0.31078735
v 0.039503172 0.196176559 -0.31078735
v 0.0150866695 0.255981147 -0.31078735
v 0.039503172 0.233175233 -0.31078735
vt 0.499267578 0.905273438
vt 0.502929688 0.898925781
vt 0.499267578 0.8984375
vt 0.503417969 0.905273438
vt 0.499023438 0.935058594
vt 0.507324219 0.898925781
vt 0.504394531 0.935058594
vt 0.508789062 0.904785156
vt 0.509765625 0.935058594
vt 0.479003906 0.90234375
vt 0.486816406 0.897460938
vt 0.483886719 0.896484375
vt 0.483886719 0.903808594
vt 0.476318359 0.93359375
vt 0.490478516 0.8984375
vt 0.481201172 0.934082031
vt 0.488769531 0.904785156
vt 0.486816406 0.934570312
vt 0.493164062 0.935058594
vt 0.499023438 0.935058594
vt 0.499267578 0.905273438
vt 0.494384766 0.905273438
vt 0.486816406 0.934570312
vt 0.499267578 0.8984375
vt 0.488769531 0.904785156
vt 0.494873047 0.898925781
vt 0.490478516 0.8984375
vt 0.516113281 0.934570312
vt 0.521972656 0.934082031
vt 0.519042969 0.90234375
vt 0.514160156 0.903808594
vt 0.509765625 0.935058594
vt 0.514160156 0.896484375
vt 0.508789062 0.904785156
vt 0.511230469 0.897949219
vt 0.507324219 0.898925781
vt 0.6640625 0.479248047
vt 0.668945312 0.481933594
vt 0.668945312 0.479003906
vt 0.6640625 0.481201172
vt 0.577636719 0.479003906
vt 0.578125 0.481201172
vt 0.571777344 0.479248047
vt 0.571777344 0.481933594
vt 0.6640625 0.481201172
vt 0.668457031 0.484619141
vt 0.668945312 0.481933594
vt 0.6640625 0.483398438
vt 0.578125 0.481201172
vt 0.578125 0.483398438
vt 0.571777344 0.481933594
vt 0.572265625 0.484619141
vt 0.6640625 0.474853516
vt 0.668945312 0.476318359
vt 0.668457031 0.473632812
vt 0.6640625 0.477050781
vt 0.578125 0.474853516
vt 0.577636719 0.477050781
vt 0.572265625 0.473876953
vt 0.571777344 0.4765625
vt 0.6640625 0.477050781
vt 0.668945312 0.479003906
vt 0.668945312 0.476318359
vt 0.6640625 0.479248047
vt 0.577636719 0.477050781
vt 0.577636719 0.479003906
vt 0.571777344 0.4765625
vt 0.571777344 0.479248047
vt 0.6640625 0.479003906
vt 0.668945312 0.481689453
vt 0.668945312 0.479003906
vt 0.6640625 0.481201172
vt 0.577636719 0.479248047
vt 0.577636719 0.481201172
vt 0.571777344 0.479248047
vt 0.571777344 0.481933594
vt 0.6640625 0.481201172
vt 0.668457031 0.484619141
vt 0.668945312 0.481689453
vt 0.6640625 0.483398438
vt 0.577636719 0.481201172
vt 0.578125 0.483398438
vt 0.571777344 0.481933594
vt 0.572265625 0.484619141
vt 0.6640625 0.474853516
vt 0.668945312 0.476318359
vt 0.668457031 0.473632812
vt 0.6640625 0.477050781
vt 0.578125 0.474853516
vt 0.577636719 0.477050781
vt 0.572265625 0.473632812
vt 0.571777344 0.4765625
vt 0.6640625 0.477050781
vt 0.668945312 0.479003906
vt 0.668945312 0.476318359
vt 0.6640625 0.479003906
vt 0.577636719 0.477050781
vt 0.577636719 0.479248047
vt 0.571777344 0.4765625
vt 0.571777344 0.479248047
vt 0.491455078 0.791503906
vt 0.491455078 0.80078125
vt 0.492919922 0.801269531
vt 0.493164062 0.791503906
vt 0.489990234 0.791503906
vt 0.490234375 0.801269531
vt 0.491455078 0.80078125
vt 0.491455078 0.791503906
vt 0.48828125 0.791503906
vt 0.490234375 0.801269531
vt 0.489990234 0.791503906
vt 0.488525391 0.801757812
vt 0.490234375 0.802734375
vt 0.488769531 0.802734375
vt 0.488525391 0.805175781
vt 0.489990234 0.805664062
vt 0.490234375 0.802734375
vt 0.486816406 0.791503906
vt 0.487304688 0.801757812
vt 0.488525391 0.801757812
vt 0.48828125 0.791503906
vt 0.494873047 0.791503906
vt 0.494384766 0.801757812
vt 0.495849609 0.801757812
vt 0.496337891 0.791503906
vt 0.493164062 0.791503906
vt 0.492919922 0.801269531
vt 0.494384766 0.801757812
vt 0.494873047 0.791503906
vt 0.491455078 0.80078125
vt 0.491455078 0.803222656
vt 0.492919922 0.802734375
vt 0.492919922 0.801269531
vt 0.490234375 0.801269531
vt 0.490234375 0.802734375
vt 0.491455078 0.803222656
vt 0.491455078 0.80078125
vt 0.487304688 0.801757812
vt 0.487304688 0.802734375
vt 0.488769531 0.802734375
vt 0.488525391 0.801757812
vt 0.494384766 0.801757812
vt 0.494384766 0.802734375
vt 0.495849609 0.802734375
vt 0.495849609 0.801757812
vt 0.492919922 0.801269531
vt 0.492919922 0.802734375
vt 0.494384766 0.802734375
vt 0.494384766 0.801757812
vt 0.492919922 0.802734375
vt 0.494628906 0.805175781
vt 0.492919922 0.805664062
vt 0.491455078 0.803222656
vt 0.491455078 0.805664062
vt 0.492919922 0.805664062
vt 0.492919922 0.802734375
vt 0.490234375 0.802734375
vt 0.489990234 0.805664062
vt 0.491455078 0.805664062
vt 0.491455078 0.803222656
vt 0.487304688 0.802734375
vt 0.487060547 0.805175781
vt 0.488525391 0.805175781
vt 0.488769531 0.802734375
vt 0.494384766 0.802734375
vt 0.494628906 0.805175781
vt 0.49609375 0.805175781
vt 0.495849609 0.802734375
vt 0.491455078 0.805664062
vt 0.491455078 0.869140625
vt 0.492919922 0.869140625
vt 0.492919922 0.805664062
vt 0.489990234 0.805664062
vt 0.489990234 0.869140625
vt 0.491455078 0.869140625
vt 0.491455078 0.805664062
vt 0.488525391 0.805175781
vt 0.488525391 0.869140625
vt 0.489990234 0.869140625
vt 0.489990234 0.805664062
vt 0.487060547 0.805175781
vt 0.487060547 0.869140625
vt 0.488525391 0.869140625
vt 0.488525391 0.805175781
vt 0.494628906 0.805175781
vt 0.494628906 0.869140625
vt 0.49609375 0.869140625
vt 0.49609375 0.805175781
vt 0.492919922 0.805664062
vt 0.492919922 0.869140625
vt 0.494628906 0.869140625
vt 0.494628906 0.805175781
vt 0.272949219 0.741210938
vt 0.269775391 0.744140625
vt 0.275146484 0.747070312
vt 0.277099609 0.741210938
vt 0.269775391 0.749511719
vt 0.280517578 0.744140625
vt 0.272949219 0.752441406
vt 0.280517578 0.749511719
vt 0.277099609 0.752441406
vt 0.282226562 0.743652344
vt 0.277832031 0.739746094
vt 0.275390625 0.747070312
vt 0.282226562 0.75
vt 0.272705078 0.739746094
vt 0.277832031 0.75390625
vt 0.268554688 0.743652344
vt 0.272705078 0.75390625
vt 0.268554688 0.75
vn -0.384277344 0.920898438 0.0621643066
vn 0.343017578 0.815429688 0.466308594
vn -0.343017578 0.815429688 0.466308594
vn 0.384277344 0.920898438 0.0621643066
vn -0.385498047 0.922851562 0
vn 0.821289062 0.332519531 0.463134766
vn 0.385498047 0.922851562 0
vn 0.923828125 0.377685547 0.061126709
vn 0.92578125 0.377929688 0
vn 0.384277344 -0.920898438 0.0621643066
vn -0.343017578 -0.815429688 0.466308594
vn 0.343017578 -0.815429688 0.466308594
vn -0.384277344 -0.920898438 0.0621643066
vn 0.385498047 -0.922851562 0
vn -0.821289062 -0.332519531 0.463134766
vn -0.385498047 -0.922851562 0
vn -0.923828125 -0.377685547 0.061126709
vn -0.92578125 -0.377929688 0
vn -0.92578125 0.377929688 0
vn -0.385498047 0.922851562 0
vn -0.384277344 0.920898438 0.0621643066
vn -0.923828125 0.377685547 0.061126709
vn -0.92578125 -0.377929688 0
vn -0.343017578 0.815429688 0.466308594
vn -0.923828125 -0.377685547 0.061126709
vn -0.821289062 0.332519531 0.463134766
vn -0.821289062 -0.332519531 0.463134766
vn 0.92578125 -0.377929688 0
vn 0.385498047 -0.922851562 0
vn 0.384277344 -0.920898438 0.0621643066
vn 0.923828125 -0.377685547 0.061126709
vn 0.92578125 0.377929688 0
vn 0.343017578 -0.815429688 0.466308594
vn 0.923828125 0.377685547 0.061126709
vn 0.821289062 -0.332519531 0.463134766
vn 0.821289062 0.332519531 0.463134766
vn -0.692871094 0.720703125 -0.00678634644
vn 0.690917969 0.715332031 -0.104614258
vn -0.690917969 0.715332031 -0.104614258
vn 0.692871094 0.720703125 -0.00678634644
vn -0.69140625 0.722167969 0.0106811523
vn 0.694335938 0.719726562 0.00185775757
vn -0.705566406 0.6953125 0.136108398
vn 0.674316406 0.737792969 0.0270690918
vn 0.692871094 0.720703125 -0.00678634644
vn 0.690917969 -0.715332031 -0.104614258
vn 0.690917969 0.715332031 -0.104614258
vn 0.692871094 -0.720703125 -0.00678634644
vn 0.694335938 0.719726562 0.00185775757
vn 0.694335938 -0.719726562 0.00185775757
vn 0.674316406 0.737792969 0.0270690918
vn 0.674316406 -0.737792969 0.0270690918
vn 0.692871094 -0.720703125 -0.00678634644
vn -0.690917969 -0.715332031 -0.104614258
vn 0.690917969 -0.715332031 -0.104614258
vn -0.692871094 -0.720703125 -0.00678634644
vn 0.694335938 -0.719726562 0.00185775757
vn -0.69140625 -0.722167969 0.0106811523
vn 0.674316406 -0.737792969 0.0270690918
vn -0.705566406 -0.6953125 0.136108398
vn -0.692871094 -0.720703125 -0.00678634644
vn -0.690917969 0.715332031 -0.104614258
vn -0.690917969 -0.715332031 -0.104614258
vn -0.692871094 0.720703125 -0.00678634644
vn -0.69140625 -0.722167969 0.0106811523
vn -0.69140625 0.722167969 0.0106811523
vn -0.705566406 -0.6953125 0.136108398
vn -0.705566406 0.6953125 0.136108398
vn -0.692871094 0.720703125 -0.00678634644
vn 0.690917969 0.715332031 -0.104614258
vn -0.690917969 0.715332031 -0.104614258
vn 0.692871094 0.720703125 -0.00678634644
vn -0.694335938 0.719726562 0.00185775757
vn 0.69140625 0.722167969 0.0106811523
vn -0.674316406 0.737792969 0.0270690918
vn 0.705566406 0.6953125 0.136108398
vn 0.692871094 0.720703125 -0.00678634644
vn 0.690917969 -0.715332031 -0.104614258
vn 0.690917969 0.715332031 -0.104614258
vn 0.692871094 -0.720703125 -0.00678634644
vn 0.69140625 0.722167969 0.0106811523
vn 0.69140625 -0.722167969 0.0106811523
vn 0.705566406 0.6953125 0.136108398
vn 0.705566406 -0.6953125 0.136108398
vn 0.692871094 -0.720703125 -0.00678634644
vn -0.690917969 -0.715332031 -0.104614258
vn 0.690917969 -0.715332031 -0.104614258
vn -0.692871094 -0.720703125 -0.00678634644
vn 0.69140625 -0.722167969 0.0106811523
vn -0.694335938 -0.719726562 0.00185775757
vn 0.705566406 -0.6953125 0.136108398
vn -0.674316406 -0.737792969 0.0270690918
vn -0.692871094 -0.720703125 -0.00678634644
vn -0.690917969 0.715332031 -0.104614258
vn -0.690917969 -0.715332031 -0.104614258
vn -0.692871094 0.720703125 -0.00678634644
vn -0.694335938 -0.719726562 0.00185775757
vn -0.694335938 0.719726562 0.00185775757
vn -0.674316406 -0.737792969 0.0270690918
vn -0.674316406 0.737792969 0.0270690918
vn 0.390136719 0.920898438 0
vn 0.390136719 0.920898438 0
vn 0.390136719 0.920898438 0
vn 0.390136719 0.920898438 0
vn -0.390136719 0.920898438 0
vn -0.390136719 0.920898438 0
vn -0.390136719 0.920898438 0
vn -0.390136719 0.920898438 0
vn -1 0 0
vn -1 0 0
vn -1 0 0
vn -1 0 0
vn -1 0 0
vn -1 0 0
vn -1 8.94069672E-07 0
vn -1 8.94069672E-07 0
vn -1 8.94069672E-07 0
vn -0.390136719 -0.920898438 0
vn -0.390136719 -0.920898438 0
vn -0.390136719 -0.920898438 0
vn -0.390136719 -0.920898438 0
vn 0.390136719 -0.920898438 0
vn 0.390136719 -0.920898438 0
vn 0.390136719 -0.920898438 0
vn 0.390136719 -0.920898438 0
vn 1 0 0
vn 1 0 0
vn 1 0 0
vn 1 0 0
vn 0.360351562 0.852050781 -0.379394531
vn 0.360351562 0.852050781 -0.379394531
vn 0.360351562 0.852050781 -0.379394531
vn 0.360351562 0.852050781 -0.379394531
vn -0.360351562 0.852050781 -0.379394531
vn -0.360351562 0.852050781 -0.379394531
vn -0.360351562 0.852050781 -0.379394531
vn -0.360351562 0.852050781 -0.379394531
vn -0.360351562 -0.85546875 0.372070312
vn -0.360351562 -0.85546875 0.372070312
vn -0.360351562 -0.85546875 0.372070312
vn -0.360351562 -0.85546875 0.372070312
vn 0.360351562 -0.85546875 0.372070312
vn 0.360351562 -0.85546875 0.372070312
vn 0.360351562 -0.85546875 0.372070312
vn 0.360351562 -0.85546875 0.372070312
vn 1 6.02006912E-06 0
vn 1 6.02006912E-06 0
vn 1 6.02006912E-06 0
vn 1 6.02006912E-06 0
vn 1 0 0
vn 1 0 0
vn 1 0 0
vn 0.3671875 0.266601562 -0.891113281
vn 0.3671875 0.266601562 -0.891113281
vn 0.3671875 0.266601562 -0.891113281
vn 0.3671875 0.266601562 -0.891113281
vn -0.3671875 0.266601562 -0.891113281
vn -0.3671875 0.266601562 -0.891113281
vn -0.3671875 0.266601562 -0.891113281
vn -0.3671875 0.266601562 -0.891113281
vn -0.365478516 -0.219726562 0.904296875
vn -0.365478516 -0.219726562 0.904296875
vn -0.365478516 -0.219726562 0.904296875
vn -0.365478516 -0.219726562 0.904296875
vn 0.365478516 -0.219726562 0.904296875
vn 0.365478516 -0.219726562 0.904296875
vn 0.365478516 -0.219726562 0.904296875
vn 0.365478516 -0.219726562 0.904296875
vn 0.389404297 0 -0.920898438
vn 0.389404297 0 -0.920898438
vn 0.389404297 0 -0.920898438
vn 0.389404297 0 -0.920898438
vn -0.389404297 0 -0.920898438
vn -0.389404297 0 -0.920898438
vn -0.389404297 0 -0.920898438
vn -0.389404297 0 -0.920898438
vn -1 0 0
vn -1 0 0
vn -1 0 0
vn -1 0 0
vn -0.389404297 0 0.920898438
vn -0.389404297 0 0.920898438
vn -0.389404297 0 0.920898438
vn -0.389404297 0 0.920898438
vn 0.389404297 0 0.920898438
vn 0.389404297 0 0.920898438
vn 0.389404297 0 0.920898438
vn 0.389404297 0 0.920898438
vn 1 0 0
vn 1 0 0
vn 1 0 0
vn 1 0 0
vn -0.0629272461 -0.154174805 0.985839844
vn -0.154785156 -0.0650634766 0.985839844
vn -4.47034836E-06 0 1
vn 0.0629272461 -0.154174805 0.985839844
vn -0.154785156 0.0650634766 0.985839844
vn 0.154663086 -0.0650024414 0.985839844
vn -0.0629272461 0.154174805 0.985839844
vn 0.154663086 0.0650024414 0.985839844
vn 0.0629272461 0.154174805 0.985839844
vn -0.225097656 -0.094543457 -0.969726562
vn -0.0916137695 -0.224365234 -0.970214844
vn -6.55651093E-07 0 -1
vn -0.225097656 0.094543457 -0.969726562
vn 0.0916137695 -0.224365234 -0.970214844
vn -0.0916137695 0.224365234 -0.970214844
vn 0.225097656 -0.094543457 -0.969726562
vn 0.0916137695 0.224365234 -0.970214844
vn 0.225097656 0.094543457 -0.969726562
g Turbine_A_Pipe_D_0
f 3/3/3 2/2/2 1/1/1
f 2/2/2 4/4/4 1/1/1
f 1/1/1 4/4/4 5/5/5
f 2/2/2 6/6/6 4/4/4
f 4/4/4 7/7/7 5/5/5
f 6/6/6 8/8/8 4/4/4
f 4/4/4 8/8/8 7/7/7
f 8/8/8 9/9/9 7/7/7
f 12/12/12 11/11/11 10/10/10
f 11/11/11 13/13/13 10/10/10
f 10/10/10 13/13/13 14/14/14
f 11/11/11 15/15/15 13/13/13
f 13/13/13 16/16/16 14/14/14
f 15/15/15 17/17/17 13/13/13
f 13/13/13 17/17/17 16/16/16
f 17/17/17 18/18/18 16/16/16
f 21/21/21 20/20/20 19/19/19
f 22/22/22 21/21/21 19/19/19
f 19/19/19 23/23/23 22/22/22
f 24/24/24 21/21/21 22/22/22
f 23/23/23 25/25/25 22/22/22
f 26/26/26 24/24/24 22/22/22
f 22/22/22 25/25/25 27/27/27
f 26/26/26 22/22/22 27/27/27
f 30/30/30 29/29/29 28/28/28
f 31/31/31 30/30/30 28/28/28
f 28/28/28 32/32/32 31/31/31
f 33/33/33 30/30/30 31/31/31
f 32/32/32 34/34/34 31/31/31
f 35/35/35 33/33/33 31/31/31
f 31/31/31 34/34/34 36/36/36
f 35/35/35 31/31/31 36/36/36
f 39/39/39 38/38/38 37/37/37
f 38/38/38 40/40/40 37/37/37
f 41/41/41 37/37/37 40/40/40
f 42/42/42 41/41/41 40/40/40
f 43/43/43 41/41/41 42/42/42
f 44/44/44 43/43/43 42/42/42
f 47/47/47 46/46/46 45/45/45
f 46/46/46 48/48/48 45/45/45
f 49/49/49 45/45/45 48/48/48
f 50/50/50 49/49/49 48/48/48
f 51/51/51 49/49/49 50/50/50
f 52/52/52 51/51/51 50/50/50
f 55/55/55 54/54/54 53/53/53
f 54/54/54 56/56/56 53/53/53
f 57/57/57 53/53/53 56/56/56
f 58/58/58 57/57/57 56/56/56
f 59/59/59 57/57/57 58/58/58
f 60/60/60 59/59/59 58/58/58
f 63/63/63 62/62/62 61/61/61
f 62/62/62 64/64/64 61/61/61
f 65/65/65 61/61/61 64/64/64
f 66/66/66 65/65/65 64/64/64
f 67/67/67 65/65/65 66/66/66
f 68/68/68 67/67/67 66/66/66
f 71/71/71 70/70/70 69/69/69
f 70/70/70 72/72/72 69/69/69
f 73/73/73 69/69/69 72/72/72
f 74/74/74 73/73/73 72/72/72
f 75/75/75 73/73/73 74/74/74
f 76/76/76 75/75/75 74/74/74
f 79/79/79 78/78/78 77/77/77
f 78/78/78 80/80/80 77/77/77
f 81/81/81 77/77/77 80/80/80
f 82/82/82 81/81/81 80/80/80
f 83/83/83 81/81/81 82/82/82
f 84/84/84 83/83/83 82/82/82
f 87/87/87 86/86/86 85/85/85
f 86/86/86 88/88/88 85/85/85
f 89/89/89 85/85/85 88/88/88
f 90/90/90 89/89/89 88/88/88
f 91/91/91 89/89/89 90/90/90
f 92/92/92 91/91/91 90/90/90
f 95/95/95 94/94/94 93/93/93
f 94/94/94 96/96/96 93/93/93
f 97/97/97 93/93/93 96/96/96
f 98/98/98 97/97/97 96/96/96
f 99/99/99 97/97/97 98/98/98
f 100/100/100 99/99/99 98/98/98
f 103/103/103 102/102/102 101/101/101
f 104/104/104 103/103/103 101/101/101
f 107/107/107 106/106/106 105/105/105
f 108/108/108 107/107/107 105/105/105
f 111/111/111 110/110/110 109/109/109
f 110/110/110 112/112/112 109/109/109
f 110/110/110 113/113/113 112/112/112
f 113/113/113 114/114/114 112/112/112
f 116/116/116 115/115/115 114/114/114
f 117/117/117 116/116/116 114/114/114
f 120/120/120 119/119/119 118/118/118
f 121/121/121 120/120/120 118/118/118
f 124/124/124 123/123/123 122/122/122
f 125/125/125 124/124/124 122/122/122
f 128/128/128 127/127/127 126/126/126
f 129/129/129 128/128/128 126/126/126
f 132/132/132 131/131/131 130/130/130
f 133/133/133 132/132/132 130/130/130
f 136/136/136 135/135/135 134/134/134
f 137/137/137 136/136/136 134/134/134
f 140/140/140 139/139/139 138/138/138
f 141/141/141 140/140/140 138/138/138
f 144/144/144 143/143/143 142/142/142
f 145/145/145 144/144/144 142/142/142
f 148/148/148 147/147/147 146/146/146
f 149/149/149 148/148/148 146/146/146
f 148/148/148 151/151/151 150/150/150
f 151/151/151 152/152/152 150/150/150
f 155/155/155 154/154/154 153/153/153
f 156/156/156 155/155/155 153/153/153
f 159/159/159 158/158/158 157/157/157
f 160/160/160 159/159/159 157/157/157
f 163/163/163 162/162/162 161/161/161
f 164/164/164 163/163/163 161/161/161
f 167/167/167 166/166/166 165/165/165
f 168/168/168 167/167/167 165/165/165
f 171/171/171 170/170/170 169/169/169
f 172/172/172 171/171/171 169/169/169
f 175/175/175 174/174/174 173/173/173
f 176/176/176 175/175/175 173/173/173
f 179/179/179 178/178/178 177/177/177
f 180/180/180 179/179/179 177/177/177
f 183/183/183 182/182/182 181/181/181
f 184/184/184 183/183/183 181/181/181
f 187/187/187 186/186/186 185/185/185
f 188/188/188 187/187/187 185/185/185
f 191/191/191 190/190/190 189/189/189
f 192/192/192 191/191/191 189/189/189
f 195/195/195 194/194/194 193/193/193
f 195/195/195 193/193/193 196/196/196
f 197/197/197 194/194/194 195/195/195
f 195/195/195 196/196/196 198/198/198
f 195/195/195 199/199/199 197/197/197
f 198/198/198 200/200/200 195/195/195
f 195/195/195 201/201/201 199/199/199
f 195/195/195 200/200/200 201/201/201
f 204/204/204 203/203/203 202/202/202
f 204/204/204 202/202/202 205/205/205
f 204/204/204 206/206/206 203/203/203
f 204/204/204 205/205/205 207/207/207
f 204/204/204 208/208/208 206/206/206
f 204/204/204 207/207/207 209/209/209
f 204/204/204 210/210/210 208/208/208
f 204/204/204 209/209/209 210/210/210
