g IS4_MDL_EscenarioPB_Estanteria_ObjetosPerdidos_2
v 61.2203369 -0.0123560326 -8.3526392
v 61.2203369 -0.0123560326 -7.79703856
v 61.2203369 2.17392111 -7.79703856
v 61.2203369 2.17392111 -8.3526392
v 60.3633957 -0.0123560326 -7.79703856
v 60.3633957 -0.0123560326 -8.3526392
v 60.3633957 2.17392111 -8.3526392
v 60.3633957 2.17392111 -7.79703856
v 61.2203369 2.17392111 -7.79703856
v 61.2203369 -0.0123560326 -7.79703856
v 60.3633957 -0.0123560326 -7.79703856
v 60.3633957 2.17392111 -7.79703856
v 60.3633957 2.17392111 -8.3526392
v 61.2203369 2.17392111 -8.3526392
v 61.2203369 2.17392111 -7.79703856
v 60.3633957 2.17392111 -7.79703856
v 61.2203369 -0.0123560326 -8.3526392
v 60.3633957 -0.0123560326 -8.3526392
v 60.3633957 -0.0123560326 -7.79703856
v 61.2203369 -0.0123560326 -7.79703856
v 61.1713333 2.13648653 -7.85738039
v 60.4123993 2.13648653 -7.85738039
v 60.4123993 0.0250785053 -7.85738039
v 61.1713333 0.0250785053 -7.85738039
v 61.2203369 2.17392111 -8.3526392
v 60.3633957 2.17392111 -8.3526392
v 60.4123993 2.13648653 -8.3526392
v 61.1713333 2.13648653 -8.3526392
v 60.3633957 2.17392111 -8.3526392
v 60.3633957 -0.0123560326 -8.3526392
v 60.4123993 0.0250785053 -8.3526392
v 60.4123993 2.13648653 -8.3526392
v 60.3633957 -0.0123560326 -8.3526392
v 61.2203369 -0.0123560326 -8.3526392
v 61.1713333 0.0250785053 -8.3526392
v 60.4123993 0.0250785053 -8.3526392
v 61.2203369 -0.0123560326 -8.3526392
v 61.2203369 2.17392111 -8.3526392
v 61.1713333 2.13648653 -8.3526392
v 61.1713333 0.0250785053 -8.3526392
v 61.1713333 2.13648653 -8.3526392
v 60.4123993 2.13648653 -8.3526392
v 60.4123993 2.13648653 -7.85738039
v 61.1713333 2.13648653 -7.85738039
v 60.4123993 2.13648653 -8.3526392
v 60.4123993 0.0250785053 -8.3526392
v 60.4123993 0.0250785053 -7.85738039
v 60.4123993 2.13648653 -7.85738039
v 60.4123993 0.0250785053 -8.3526392
v 61.1713333 0.0250785053 -8.3526392
v 61.1713333 0.0250785053 -7.85738039
v 60.4123993 0.0250785053 -7.85738039
v 61.1713333 0.0250785053 -8.3526392
v 61.1713333 2.13648653 -8.3526392
v 61.1713333 2.13648653 -7.85738039
v 61.1713333 0.0250785053 -7.85738039
v 60.4012871 0.442516208 -8.3292017
v 61.1774445 0.442516208 -8.3292017
v 61.1774445 0.442516208 -7.8582201
v 60.4012871 0.442516208 -7.8582201
v 61.1774445 0.442516208 -8.3292017
v 60.4012871 0.442516208 -8.3292017
v 60.4012909 0.405081689 -8.3292017
v 61.1774445 0.405081689 -8.3292017
v 61.1774445 0.405081689 -8.3292017
v 60.4012909 0.405081689 -8.3292017
v 60.4012909 0.405081689 -7.8582201
v 61.1774445 0.405081689 -7.8582201
v 60.4060059 1.75199366 -8.34578323
v 61.1814423 1.72176695 -8.31276608
v 61.1735344 1.72423768 -7.84189177
v 60.398098 1.75446439 -7.8749094
v 61.1814423 1.72176695 -8.31276608
v 60.4060059 1.75199366 -8.34578323
v 60.4051933 1.71456873 -8.34552956
v 61.1806297 1.68434227 -8.3125124
v 61.1806297 1.68434227 -8.3125124
v 60.4051933 1.71456873 -8.34552956
v 60.3972855 1.71703947 -7.87465572
v 61.1727219 1.686813 -7.84163809
v 60.4012985 1.3049072 -8.33222866
v 61.1814308 1.30659604 -8.32606602
v 61.1798782 1.30563307 -7.85508537
v 60.3997459 1.30394411 -7.86124659
v 61.1814308 1.30659604 -8.32606602
v 60.4012985 1.3049072 -8.33222866
v 60.3988571 1.2675525 -8.33234596
v 61.1789894 1.26924157 -8.32618427
v 61.1789894 1.26924157 -8.32618427
v 60.3988571 1.2675525 -8.33234596
v 60.3973045 1.2665894 -7.86136436
v 61.1774368 1.26827848 -7.85520267
v 60.4011116 0.866493583 -8.3292017
v 61.1771507 0.884042323 -8.3292017
v 61.1771507 0.884042323 -7.8582201
v 60.4011116 0.866493583 -7.8582201
v 61.1771507 0.884042323 -8.3292017
v 60.4011116 0.866493583 -8.3292017
v 60.4015808 0.829062045 -8.3292017
v 61.1776199 0.846610725 -8.3292017
v 61.1776199 0.846610725 -8.3292017
v 60.4015808 0.829062045 -8.3292017
v 60.4015808 0.829062045 -7.8582201
v 61.1776199 0.846610725 -7.8582201
vt 0.87109375 0.0574035645
vt 0.87109375 0.100891113
vt 0.63671875 0.100891113
vt 0.63671875 0.0574035645
vt 0.63671875 0.100891113
vt 0.63671875 0.0574035645
vt 0.87109375 0.0574035645
vt 0.87109375 0.100891113
vt 0.624023438 0.0567932129
vt 0.98046875 0.0567932129
vt 0.98046875 0.223876953
vt 0.624023438 0.223876953
vt 0.713378906 0.0574035645
vt 0.872070312 0.0574035645
vt 0.872070312 0.100891113
vt 0.713378906 0.100891113
vt 0.713378906 0.0574035645
vt 0.872070312 0.0574035645
vt 0.872070312 0.100891113
vt 0.713378906 0.100891113
vt 0.624023438 0.224121094
vt 0.624023438 0.0565795898
vt 0.980957031 0.0565795898
vt 0.980957031 0.224121094
vt 0.624023438 0.224853516
vt 0.624023438 0.057800293
vt 0.630371094 0.063293457
vt 0.630371094 0.219360352
vt 0.624023438 0.057800293
vt 0.98046875 0.057800293
vt 0.974121094 0.063293457
vt 0.630371094 0.063293457
vt 0.98046875 0.057800293
vt 0.98046875 0.224853516
vt 0.974121094 0.219360352
vt 0.974121094 0.063293457
vt 0.98046875 0.224853516
vt 0.624023438 0.224853516
vt 0.630371094 0.219360352
vt 0.974121094 0.219360352
vt 0.713378906 0.0574035645
vt 0.872070312 0.0574035645
vt 0.872070312 0.100891113
vt 0.713378906 0.100891113
vt 0.63671875 0.0574035645
vt 0.872070312 0.0574035645
vt 0.872070312 0.100891113
vt 0.63671875 0.100891113
vt 0.713378906 0.0574035645
vt 0.872070312 0.0574035645
vt 0.872070312 0.100891113
vt 0.713378906 0.100891113
vt 0.63671875 0.0574035645
vt 0.872070312 0.0574035645
vt 0.872070312 0.100891113
vt 0.63671875 0.100891113
vt 0.713378906 0.0574035645
vt 0.871582031 0.0574035645
vt 0.871582031 0.100891113
vt 0.713378906 0.100891113
vt 0.939453125 0.134765625
vt 0.665527344 0.134765625
vt 0.665527344 0.127441406
vt 0.939453125 0.127441406
vt 0.713378906 0.0574035645
vt 0.871582031 0.0574035645
vt 0.871582031 0.100891113
vt 0.713378906 0.100891113
vt 0.645019531 0.0574035645
vt 0.803710938 0.0574035645
vt 0.803710938 0.100891113
vt 0.645019531 0.100891113
vt 0.939453125 0.134765625
vt 0.665527344 0.134765625
vt 0.665527344 0.127441406
vt 0.939453125 0.127441406
vt 0.645019531 0.0574035645
vt 0.803710938 0.0574035645
vt 0.803710938 0.100891113
vt 0.645019531 0.100891113
vt 0.811035156 0.22644043
vt 0.65234375 0.22644043
vt 0.65234375 0.182861328
vt 0.811035156 0.182861328
vt 0.939453125 0.134765625
vt 0.665527344 0.134765625
vt 0.665527344 0.127441406
vt 0.939453125 0.127441406
vt 0.948730469 0.22644043
vt 0.790527344 0.22644043
vt 0.790527344 0.182861328
vt 0.948730469 0.182861328
vt 0.948730469 0.22644043
vt 0.790527344 0.22644043
vt 0.790527344 0.182861328
vt 0.948730469 0.182861328
vt 0.939453125 0.134765625
vt 0.665527344 0.134765625
vt 0.665527344 0.127441406
vt 0.939453125 0.127441406
vt 0.948730469 0.22644043
vt 0.790527344 0.22644043
vt 0.790527344 0.182861328
vt 0.948730469 0.182861328
vn 1 0 0
vn 1 0 0
vn 1 0 0
vn 1 0 0
vn -1 0 0
vn -1 0 0
vn -1 0 0
vn -1 0 0
vn -0 0 1
vn -0 0 1
vn -0 0 1
vn -0 0 1
vn -0 1 0
vn -0 1 0
vn -0 1 0
vn -0 1 0
vn -0 -1 0
vn -0 -1 0
vn -0 -1 0
vn -0 -1 0
vn -0 0 -1
vn -0 0 -1
vn -0 0 -1
vn -0 0 -1
vn -0 0 -1
vn -0 0 -1
vn -0 0 -1
vn -0 0 -1
vn 1.48415565E-05 0 -1
vn 1.48415565E-05 0 -1
vn 1.48415565E-05 0 -1
vn 1.48415565E-05 0 -1
vn -0 0 -1
vn -0 0 -1
vn -0 0 -1
vn -0 0 -1
vn -1.48415565E-05 0 -1
vn -1.48415565E-05 0 -1
vn -1.48415565E-05 0 -1
vn -1.48415565E-05 0 -1
vn -0 -1 0
vn -0 -1 0
vn -0 -1 0
vn -0 -1 0
vn 1 0 0
vn 1 0 0
vn 1 0 0
vn 1 0 0
vn -0 1 0
vn -0 1 0
vn -0 1 0
vn -0 1 0
vn -1 0 0
vn -1 0 0
vn -1 0 0
vn -1 0 0
vn -0 1 0
vn -0 1 0
vn -0 1 0
vn -0 1 0
vn -0 0 -1
vn -0 0 -1
vn -0 0 -1
vn -0 0 -1
vn -0 -1 0
vn -0 -1 0
vn -0 -1 0
vn -0 -1 0
vn 0.0391540527 0.999023438 -0.00458526611
vn 0.0391540527 0.999023438 -0.00458526611
vn 0.0391540527 0.999023438 -0.00458526611
vn 0.0391540527 0.999023438 -0.00458526611
vn 0.0422363281 -0.00769805908 -0.999023438
vn 0.0422363281 -0.00769805908 -0.999023438
vn 0.0422363281 -0.00769805908 -0.999023438
vn 0.0422363281 -0.00769805908 -0.999023438
vn -0.0391540527 -0.999023438 0.00458526611
vn -0.0391540527 -0.999023438 0.00458526611
vn -0.0391540527 -0.999023438 0.00458526611
vn -0.0391540527 -0.999023438 0.00458526611
vn -0.00218009949 1 0.00203704834
vn -0.00218009949 1 0.00203704834
vn -0.00218009949 1 0.00203704834
vn -0.00218009949 1 0.00203704834
vn 0.00789642334 0.00263786316 -1
vn 0.00789642334 0.00263786316 -1
vn 0.00789642334 0.00263786316 -1
vn 0.00789642334 0.00263786316 -1
vn 0.00218200684 -1 -0.00203704834
vn 0.00218200684 -1 -0.00203704834
vn 0.00218200684 -1 -0.00203704834
vn 0.00218200684 -1 -0.00203704834
vn -0.0226135254 0.999511719 0
vn -0.0226135254 0.999511719 0
vn -0.0226135254 0.999511719 0
vn -0.0226135254 0.999511719 0
vn -0 0 -1
vn -0 0 -1
vn -0 0 -1
vn -0 0 -1
vn 0.0226135254 -0.999511719 0
vn 0.0226135254 -0.999511719 0
vn 0.0226135254 -0.999511719 0
vn 0.0226135254 -0.999511719 0
g IS4_MDL_EscenarioPB_Estanteria_ObjetosPerdidos_2_0
f 3/3/3 2/2/2 1/1/1
f 4/4/4 3/3/3 1/1/1
f 7/7/7 6/6/6 5/5/5
f 8/8/8 7/7/7 5/5/5
f 11/11/11 10/10/10 9/9/9
f 12/12/12 11/11/11 9/9/9
f 15/15/15 14/14/14 13/13/13
f 16/16/16 15/15/15 13/13/13
f 19/19/19 18/18/18 17/17/17
f 20/20/20 19/19/19 17/17/17
f 23/23/23 22/22/22 21/21/21
f 24/24/24 23/23/23 21/21/21
f 27/27/27 26/26/26 25/25/25
f 28/28/28 27/27/27 25/25/25
f 31/31/31 30/30/30 29/29/29
f 32/32/32 31/31/31 29/29/29
f 35/35/35 34/34/34 33/33/33
f 36/36/36 35/35/35 33/33/33
f 39/39/39 38/38/38 37/37/37
f 40/40/40 39/39/39 37/37/37
f 43/43/43 42/42/42 41/41/41
f 44/44/44 43/43/43 41/41/41
f 47/47/47 46/46/46 45/45/45
f 48/48/48 47/47/47 45/45/45
f 51/51/51 50/50/50 49/49/49
f 52/52/52 51/51/51 49/49/49
f 55/55/55 54/54/54 53/53/53
f 56/56/56 55/55/55 53/53/53
f 59/59/59 58/58/58 57/57/57
f 60/60/60 59/59/59 57/57/57
f 63/63/63 62/62/62 61/61/61
f 64/64/64 63/63/63 61/61/61
f 67/67/67 66/66/66 65/65/65
f 68/68/68 67/67/67 65/65/65
f 71/71/71 70/70/70 69/69/69
f 72/72/72 71/71/71 69/69/69
f 75/75/75 74/74/74 73/73/73
f 76/76/76 75/75/75 73/73/73
f 79/79/79 78/78/78 77/77/77
f 80/80/80 79/79/79 77/77/77
f 83/83/83 82/82/82 81/81/81
f 84/84/84 83/83/83 81/81/81
f 87/87/87 86/86/86 85/85/85
f 88/88/88 87/87/87 85/85/85
f 91/91/91 90/90/90 89/89/89
f 92/92/92 91/91/91 89/89/89
f 95/95/95 94/94/94 93/93/93
f 96/96/96 95/95/95 93/93/93
f 99/99/99 98/98/98 97/97/97
f 100/100/100 99/99/99 97/97/97
f 103/103/103 102/102/102 101/101/101
f 104/104/104 103/103/103 101/101/101
