g CatwalkWest_Floor_7
v 27.6141968 3.84036827 -19.3150654
v 27.6310272 3.84036827 -20.7571602
v 27.6310272 3.7286129 -20.7571621
v 27.6141968 3.7286129 -19.3150654
v 26.0875072 4.01231623 -19.3150654
v 26.0849991 4.01231623 -20.7072945
v 27.749691 4.01231623 -20.7072945
v 27.733429 4.01231623 -19.3150654
v 27.733429 4.01231623 -19.3150654
v 27.749691 4.01231623 -20.7072945
v 27.749691 3.84036827 -20.7072945
v 27.733429 3.84036827 -19.3150654
v 27.749691 3.84036827 -20.7072945
v 27.6310272 3.84036827 -20.7571602
v 27.6141968 3.84036827 -19.3150654
v 27.733429 3.84036827 -19.3150654
v 27.6975479 3.71231627 -19.3150654
v 27.7139816 3.71231627 -20.7222996
v 27.7139816 3.59293365 -20.7222996
v 27.6975479 3.59293365 -19.3150654
v 27.6141968 3.7286129 -19.3150654
v 27.6310272 3.7286129 -20.7571621
v 27.7139816 3.71231627 -20.7222996
v 27.6975479 3.71231627 -19.3150654
v 26.0898037 4.01231623 -16.8150654
v 26.0875072 4.01231623 -19.3150654
v 27.733429 4.01231623 -19.3150654
v 27.7252998 4.01231623 -16.8150654
v 27.7252998 4.01231623 -16.8150654
v 27.733429 4.01231623 -19.3150654
v 27.733429 3.84036827 -19.3150654
v 27.7252998 3.84036827 -16.8150654
v 27.6141968 3.84036827 -19.3150654
v 27.6057777 3.84036827 -16.8150654
v 27.7252998 3.84036827 -16.8150654
v 27.733429 3.84036827 -19.3150654
v 27.6057777 3.84036827 -16.8150654
v 27.6141968 3.84036827 -19.3150654
v 27.6141968 3.7286129 -19.3150654
v 27.6057777 3.7286129 -16.8150654
v 27.6057777 3.7286129 -16.8150654
v 27.6141968 3.7286129 -19.3150654
v 27.6975479 3.71231627 -19.3150654
v 27.689333 3.71231627 -16.8150654
v 27.689333 3.71231627 -16.8150654
v 27.6975479 3.71231627 -19.3150654
v 27.6975479 3.59293365 -19.3150654
v 27.689333 3.59293365 -16.8150654
v 27.689333 3.59293365 -16.8150654
v 27.6975479 3.59293365 -19.3150654
v 27.5400562 3.59293365 -19.3150654
v 27.5427246 3.59293365 -16.8150654
v 27.6975479 3.59293365 -19.3150654
v 27.7139816 3.59293365 -20.7222996
v 27.537466 3.59293318 -20.7222996
v 27.5400562 3.59293365 -19.3150654
vt 0.437744141 0.29296875
vt 0.610839844 0.29296875
vt 0.610839844 0.277587891
vt 0.437744141 0.277587891
vt 0.496582031 0.0933227539
vt 0.364013672 0.0930786133
vt 0.361083984 0.249145508
vt 0.496582031 0.249145508
vt 0.437744141 0.328125
vt 0.604980469 0.328125
vt 0.604980469 0.307373047
vt 0.437744141 0.307373047
vt 0.604980469 0.307373047
vt 0.610839844 0.29296875
vt 0.437744141 0.29296875
vt 0.437744141 0.307373047
vt 0.437744141 0.267822266
vt 0.606445312 0.267822266
vt 0.606445312 0.253417969
vt 0.437744141 0.253417969
vt 0.437744141 0.277587891
vt 0.610839844 0.277587891
vt 0.606445312 0.267822266
vt 0.437744141 0.267822266
vt 0.496582031 0.0935058594
vt 0.253662109 0.0933227539
vt 0.253662109 0.249145508
vt 0.496582031 0.249145508
vt 0.437744141 0.328125
vt 0.736816406 0.328125
vt 0.736816406 0.307373047
vt 0.437744141 0.307373047
vt 0.736816406 0.29296875
vt 0.437744141 0.29296875
vt 0.437744141 0.307373047
vt 0.736816406 0.307373047
vt 0.437744141 0.29296875
vt 0.736816406 0.29296875
vt 0.736816406 0.277587891
vt 0.437744141 0.277587891
vt 0.437744141 0.277587891
vt 0.736816406 0.277587891
vt 0.736816406 0.267822266
vt 0.437744141 0.267822266
vt 0.437744141 0.267822266
vt 0.736816406 0.267822266
vt 0.736816406 0.253417969
vt 0.437744141 0.253417969
vt 0.496582031 0.224121094
vt 0.253662109 0.224121094
vt 0.253662109 0.249145508
vt 0.496582031 0.249145508
vt 0.496582031 0.224121094
vt 0.358154297 0.224121094
vt 0.359619141 0.249145508
vt 0.496582031 0.249145508
vn 1 -1.93715096E-05 0.0116729736
vn 1 -1.93715096E-05 0.0116729736
vn 1 -1.93715096E-05 0.0116729736
vn 1 -1.93715096E-05 0.0116729736
vn -0 1 0
vn -0 1 0
vn -0 1 0
vn -0 1 0
vn 1 0 0.011680603
vn 1 0 0.011680603
vn 1 0 0.011680603
vn 1 0 0.011680603
vn -0 -1 0
vn -0 -1 0
vn -0 -1 0
vn -0 -1 0
vn 1 0 0.0116729736
vn 1 0 0.0116729736
vn 1 0 0.0116729736
vn 1 0 0.0116729736
vn 0.191894531 0.981445312 0.00223922729
vn 0.191894531 0.981445312 0.00223922729
vn 0.191894531 0.981445312 0.00223922729
vn 0.191894531 0.981445312 0.00223922729
vn -0 1 0
vn -0 1 0
vn -0 1 0
vn -0 1 0
vn 1 0 0.00325202942
vn 1 0 0.00325202942
vn 1 0 0.00325202942
vn 1 0 0.00325202942
vn -0 -1 0
vn -0 -1 0
vn -0 -1 0
vn -0 -1 0
vn 1 0 0.00336647034
vn 1 0 0.00336647034
vn 1 0 0.00336647034
vn 1 0 0.00336647034
vn 0.191650391 0.981445312 0.000637531281
vn 0.191650391 0.981445312 0.000637531281
vn 0.191650391 0.981445312 0.000637531281
vn 0.191650391 0.981445312 0.000637531281
vn 1 0 0.00328636169
vn 1 0 0.00328636169
vn 1 0 0.00328636169
vn 1 0 0.00328636169
vn -0 -1 0
vn -0 -1 0
vn -0 -1 0
vn -0 -1 0
vn 8.94069672E-07 -1 1.78813934E-07
vn 8.94069672E-07 -1 1.78813934E-07
vn 8.94069672E-07 -1 1.78813934E-07
vn 8.94069672E-07 -1 1.78813934E-07
g CatwalkWest_Floor_7_0
f 3/3/3 2/2/2 1/1/1
f 4/4/4 3/3/3 1/1/1
f 7/7/7 6/6/6 5/5/5
f 8/8/8 7/7/7 5/5/5
f 11/11/11 10/10/10 9/9/9
f 12/12/12 11/11/11 9/9/9
f 15/15/15 14/14/14 13/13/13
f 16/16/16 15/15/15 13/13/13
f 19/19/19 18/18/18 17/17/17
f 20/20/20 19/19/19 17/17/17
f 23/23/23 22/22/22 21/21/21
f 24/24/24 23/23/23 21/21/21
f 27/27/27 26/26/26 25/25/25
f 28/28/28 27/27/27 25/25/25
f 31/31/31 30/30/30 29/29/29
f 32/32/32 31/31/31 29/29/29
f 35/35/35 34/34/34 33/33/33
f 36/36/36 35/35/35 33/33/33
f 39/39/39 38/38/38 37/37/37
f 40/40/40 39/39/39 37/37/37
f 43/43/43 42/42/42 41/41/41
f 44/44/44 43/43/43 41/41/41
f 47/47/47 46/46/46 45/45/45
f 48/48/48 47/47/47 45/45/45
f 51/51/51 50/50/50 49/49/49
f 52/52/52 51/51/51 49/49/49
f 55/55/55 54/54/54 53/53/53
f 56/56/56 55/55/55 53/53/53
