g Turbine_B_Connector
v 0.535727501 -0.0983657837 2.4414062E-06
v 2.4414062E-06 -0.0983657837 2.4414062E-06
v 2.4414062E-06 -0.0585722327 0.0940728709
v 0.535727501 -0.0585722327 0.0940728709
v 2.4414062E-06 0.0585721955 0.0940728709
v 0.535727501 0.0585721955 0.0940728709
v 0.535727501 -0.0585722327 0.0940728709
v 2.4414062E-06 -0.0585722327 0.0940728709
v 0.535727501 0.0983658209 2.4414062E-06
v 2.4414062E-06 0.0983658209 2.4414062E-06
v 2.4414062E-06 0.0585721955 -0.0940789804
v 0.535727501 0.0585721955 -0.0940789804
v 2.4414062E-06 -0.0585722327 -0.0940789804
v 0.535727501 -0.0585722327 -0.0940789804
v 0.535727501 0.0585721955 -0.0940789804
v 2.4414062E-06 0.0585721955 -0.0940789804
v 0.535727501 0.0585721955 0.0940728709
v 2.4414062E-06 0.0585721955 0.0940728709
v 2.4414062E-06 0.0983658209 2.4414062E-06
v 0.535727501 0.0983658209 2.4414062E-06
v 0.535727501 -0.0585722327 -0.0940789804
v 2.4414062E-06 -0.0585722327 -0.0940789804
v 2.4414062E-06 -0.0983657837 2.4414062E-06
v 0.535727501 -0.0983657837 2.4414062E-06
v 0.571640611 -0.181174204 1.22070305E-05
v 0.689589858 -0.181174204 1.22070305E-05
v 0.689589858 -0.107880704 -0.173273921
v 0.571640611 -0.107880704 -0.173273921
v 0.571640611 -0.107880704 0.173274532
v 0.689589858 -0.107880704 0.173274532
v 0.689589858 -0.181174204 1.22070305E-05
v 0.571640611 -0.181174204 1.22070305E-05
v 0.571640611 0.107880704 0.173274532
v 0.689589858 0.107880704 0.173274532
v 0.689589858 -0.107880704 0.173274532
v 0.571640611 -0.107880704 0.173274532
v 0.571640611 0.181174204 1.22070305E-05
v 0.689589858 0.181174204 1.22070305E-05
v 0.689589858 0.107880704 0.173274532
v 0.571640611 0.107880704 0.173274532
v 0.571640611 0.107880704 -0.173273921
v 0.689589858 0.107880704 -0.173273921
v 0.689589858 0.181174204 1.22070305E-05
v 0.571640611 0.181174204 1.22070305E-05
v 0.571640611 -0.107880704 -0.173273921
v 0.689589858 -0.107880704 -0.173273921
v 0.689589858 0.107880704 -0.173273921
v 0.571640611 0.107880704 -0.173273921
v -0.535727501 -0.0983657837 2.4414062E-06
v -0.535727501 -0.0585722327 0.09407226
v -2.4414062E-06 -0.0585722327 0.09407226
v -2.4414062E-06 -0.0983657837 2.4414062E-06
v -2.4414062E-06 0.0585721955 0.09407226
v -2.4414062E-06 -0.0585722327 0.09407226
v -0.535727501 -0.0585722327 0.09407226
v -0.535727501 0.0585721955 0.09407226
v -0.535727501 0.0983658209 2.4414062E-06
v -0.535727501 0.0585721955 -0.0940789804
v -2.4414062E-06 0.0585721955 -0.0940789804
v -2.4414062E-06 0.0983658209 2.4414062E-06
v -2.4414062E-06 -0.0585722327 -0.0940789804
v -2.4414062E-06 0.0585721955 -0.0940789804
v -0.535727501 0.0585721955 -0.0940789804
v -0.535727501 -0.0585722327 -0.0940789804
v -0.535727501 0.0585721955 0.09407226
v -0.535727501 0.0983658209 2.4414062E-06
v -2.4414062E-06 0.0983658209 2.4414062E-06
v -2.4414062E-06 0.0585721955 0.09407226
v -0.535727501 -0.0585722327 -0.0940789804
v -0.535727501 -0.0983657837 2.4414062E-06
v -2.4414062E-06 -0.0983657837 2.4414062E-06
v -2.4414062E-06 -0.0585722327 -0.0940789804
v -0.571640611 -0.181174204 1.15966795E-05
v -0.571640611 -0.107880704 -0.173274532
v -0.689589858 -0.107880704 -0.173274532
v -0.689589858 -0.181174204 1.15966795E-05
v -0.571640611 -0.107880704 0.173274532
v -0.571640611 -0.181174204 1.15966795E-05
v -0.689589858 -0.181174204 1.15966795E-05
v -0.689589858 -0.107880704 0.173274532
v -0.571640611 0.107880704 0.173274532
v -0.571640611 -0.107880704 0.173274532
v -0.689589858 -0.107880704 0.173274532
v -0.689589858 0.107880704 0.173274532
v -0.571640611 0.181174204 1.15966795E-05
v -0.571640611 0.107880704 0.173274532
v -0.689589858 0.107880704 0.173274532
v -0.689589858 0.181174204 1.15966795E-05
v -0.571640611 0.107880704 -0.173274532
v -0.571640611 0.181174204 1.15966795E-05
v -0.689589858 0.181174204 1.15966795E-05
v -0.689589858 0.107880704 -0.173274532
v -0.571640611 -0.107880704 -0.173274532
v -0.571640611 0.107880704 -0.173274532
v -0.689589858 0.107880704 -0.173274532
v -0.689589858 -0.107880704 -0.173274532
v -0.535727501 0.0585721955 -0.0940789804
v -0.535727501 0.0983658209 2.4414062E-06
v -0.571640611 0.181174204 1.15966795E-05
v -0.571640611 0.107880704 -0.173274532
v -0.571640611 0.107880704 0.173274532
v -0.535727501 -0.0585722327 -0.0940789804
v -0.535727501 0.0585721955 0.09407226
v -0.571640611 -0.107880704 -0.173274532
v -0.571640611 -0.107880704 0.173274532
v -0.535727501 -0.0983657837 2.4414062E-06
v -0.535727501 -0.0585722327 0.09407226
v -0.571640611 -0.181174204 1.15966795E-05
v 0.535727501 0.0585721955 -0.0940789804
v 0.571640611 0.107880704 -0.173273921
v 0.571640611 0.181174204 1.22070305E-05
v 0.535727501 0.0983658209 2.4414062E-06
v 0.535727501 -0.0585722327 -0.0940789804
v 0.571640611 0.107880704 0.173274532
v 0.571640611 -0.107880704 -0.173273921
v 0.535727501 0.0585721955 0.0940728709
v 0.535727501 -0.0983657837 2.4414062E-06
v 0.571640611 -0.107880704 0.173274532
v 0.571640611 -0.181174204 1.22070305E-05
v 0.535727501 -0.0585722327 0.0940728709
vt 0.379150391 0.585449219
vt 0.345458984 0.5859375
vt 0.345703125 0.604492188
vt 0.379394531 0.604003906
vt 0.345947266 0.625976562
vt 0.379638672 0.625488281
vt 0.379394531 0.604003906
vt 0.345703125 0.604492188
vt 0.379150391 0.585449219
vt 0.345458984 0.5859375
vt 0.345703125 0.604492188
vt 0.379394531 0.604003906
vt 0.345947266 0.625976562
vt 0.379638672 0.625488281
vt 0.379394531 0.604003906
vt 0.345703125 0.604492188
vt 0.379638672 0.625488281
vt 0.345947266 0.625976562
vt 0.346191406 0.64453125
vt 0.379882812 0.644042969
vt 0.379638672 0.625488281
vt 0.345947266 0.625976562
vt 0.346191406 0.64453125
vt 0.379882812 0.644042969
vt 0.47265625 0.456298828
vt 0.47265625 0.467529297
vt 0.502441406 0.467529297
vt 0.502441406 0.456298828
vt 0.536132812 0.467529297
vt 0.536132812 0.456298828
vt 0.565917969 0.456298828
vt 0.565917969 0.467529297
vt 0.502441406 0.467529297
vt 0.502441406 0.456298828
vt 0.536132812 0.456298828
vt 0.536132812 0.467529297
vt 0.47265625 0.467529297
vt 0.47265625 0.456298828
vt 0.502441406 0.456298828
vt 0.502441406 0.467529297
vt 0.536132812 0.456298828
vt 0.536132812 0.467529297
vt 0.565917969 0.467529297
vt 0.565917969 0.456298828
vt 0.502441406 0.456298828
vt 0.502441406 0.467529297
vt 0.536132812 0.467529297
vt 0.536132812 0.456298828
vt 0.379150391 0.585449219
vt 0.379394531 0.604003906
vt 0.345703125 0.604492188
vt 0.345458984 0.5859375
vt 0.345947266 0.625976562
vt 0.345703125 0.604492188
vt 0.379394531 0.604003906
vt 0.379638672 0.625488281
vt 0.379150391 0.585449219
vt 0.379394531 0.604003906
vt 0.345703125 0.604492188
vt 0.345458984 0.5859375
vt 0.345947266 0.625976562
vt 0.345703125 0.604492188
vt 0.379394531 0.604003906
vt 0.379638672 0.625488281
vt 0.379638672 0.625488281
vt 0.379882812 0.644042969
vt 0.346191406 0.64453125
vt 0.345947266 0.625976562
vt 0.379638672 0.625488281
vt 0.379882812 0.644042969
vt 0.346191406 0.64453125
vt 0.345947266 0.625976562
vt 0.47265625 0.456298828
vt 0.502441406 0.456298828
vt 0.502441406 0.467529297
vt 0.47265625 0.467529297
vt 0.536132812 0.467529297
vt 0.565917969 0.467529297
vt 0.565917969 0.456298828
vt 0.536132812 0.456298828
vt 0.502441406 0.467529297
vt 0.536132812 0.467529297
vt 0.536132812 0.456298828
vt 0.502441406 0.456298828
vt 0.47265625 0.467529297
vt 0.502441406 0.467529297
vt 0.502441406 0.456298828
vt 0.47265625 0.456298828
vt 0.536132812 0.456298828
vt 0.565917969 0.456298828
vt 0.565917969 0.467529297
vt 0.536132812 0.467529297
vt 0.502441406 0.456298828
vt 0.536132812 0.456298828
vt 0.536132812 0.467529297
vt 0.502441406 0.467529297
vt 0.418212891 0.568359375
vt 0.432861328 0.574707031
vt 0.432861328 0.587890625
vt 0.405517578 0.576171875
vt 0.460449219 0.576171875
vt 0.418212891 0.549804688
vt 0.447753906 0.568359375
vt 0.405517578 0.541992188
vt 0.460449219 0.541992188
vt 0.433105469 0.543945312
vt 0.447753906 0.549804688
vt 0.433105469 0.530273438
vt 0.418212891 0.568359375
vt 0.405517578 0.576171875
vt 0.432861328 0.587890625
vt 0.432861328 0.574707031
vt 0.418212891 0.549804688
vt 0.460449219 0.576171875
vt 0.405517578 0.541992188
vt 0.447753906 0.568359375
vt 0.433105469 0.543945312
vt 0.460449219 0.541992188
vt 0.433105469 0.530273438
vt 0.447753906 0.549804688
vn -0 -1 0
vn -0 -1 0
vn -0 -0.514160156 0.857910156
vn -0 -0.514160156 0.857910156
vn -0 0.514160156 0.857910156
vn -0 0.514160156 0.857910156
vn -0 -0.514160156 0.857910156
vn -0 -0.514160156 0.857910156
vn -0 1 0
vn -0 1 0
vn -0 0.514160156 -0.857910156
vn -0 0.514160156 -0.857910156
vn -0 -0.514160156 -0.857910156
vn -0 -0.514160156 -0.857910156
vn -0 0.514160156 -0.857910156
vn -0 0.514160156 -0.857910156
vn -0 0.514160156 0.857910156
vn -0 0.514160156 0.857910156
vn -0 1 0
vn -0 1 0
vn -0 -0.514160156 -0.857910156
vn -0 -0.514160156 -0.857910156
vn -0 -1 0
vn -0 -1 0
vn -0 -1 0
vn -0 -1 0
vn -0 -0.514160156 -0.857910156
vn -0 -0.514160156 -0.857910156
vn -0 -0.514160156 0.857910156
vn -0 -0.514160156 0.857910156
vn -0 -1 0
vn -0 -1 0
vn -0 0.514160156 0.857910156
vn -0 0.514160156 0.857910156
vn -0 -0.514160156 0.857910156
vn -0 -0.514160156 0.857910156
vn -0 1 0
vn -0 1 0
vn -0 0.514160156 0.857910156
vn -0 0.514160156 0.857910156
vn -0 0.514160156 -0.857910156
vn -0 0.514160156 -0.857910156
vn -0 1 0
vn -0 1 0
vn -0 -0.514160156 -0.857910156
vn -0 -0.514160156 -0.857910156
vn -0 0.514160156 -0.857910156
vn -0 0.514160156 -0.857910156
vn -0 -1 0
vn -0 -0.514160156 0.857910156
vn -0 -0.514160156 0.857910156
vn -0 -1 0
vn -0 0.514160156 0.857910156
vn -0 -0.514160156 0.857910156
vn -0 -0.514160156 0.857910156
vn -0 0.514160156 0.857910156
vn -0 1 0
vn -0 0.514160156 -0.857910156
vn -0 0.514160156 -0.857910156
vn -0 1 0
vn -0 -0.514160156 -0.857910156
vn -0 0.514160156 -0.857910156
vn -0 0.514160156 -0.857910156
vn -0 -0.514160156 -0.857910156
vn -0 0.514160156 0.857910156
vn -0 1 0
vn -0 1 0
vn -0 0.514160156 0.857910156
vn -0 -0.514160156 -0.857910156
vn -0 -1 0
vn -0 -1 0
vn -0 -0.514160156 -0.857910156
vn -0 -1 0
vn -0 -0.514160156 -0.857910156
vn -0 -0.514160156 -0.857910156
vn -0 -1 0
vn -0 -0.514160156 0.857910156
vn -0 -1 0
vn -0 -1 0
vn -0 -0.514160156 0.857910156
vn -0 0.514160156 0.857910156
vn -0 -0.514160156 0.857910156
vn -0 -0.514160156 0.857910156
vn -0 0.514160156 0.857910156
vn -0 1 0
vn -0 0.514160156 0.857910156
vn -0 0.514160156 0.857910156
vn -0 1 0
vn -0 0.514160156 -0.857910156
vn -0 1 0
vn -0 1 0
vn -0 0.514160156 -0.857910156
vn -0 -0.514160156 -0.857910156
vn -0 0.514160156 -0.857910156
vn -0 0.514160156 -0.857910156
vn -0 -0.514160156 -0.857910156
vn 0.933105469 0.187255859 -0.306640625
vn 0.917480469 0.397949219 -6.91413879E-06
vn 0.917480469 0.397949219 1.09672546E-05
vn 0.933105469 0.1796875 -0.311279297
vn 0.933105469 0.1796875 0.311279297
vn 0.933105469 -0.187255859 -0.306640625
vn 0.933105469 0.187133789 0.306640625
vn 0.933105469 -0.1796875 -0.311279297
vn 0.933105469 -0.1796875 0.311279297
vn 0.917480469 -0.397949219 -6.85453415E-06
vn 0.933105469 -0.187133789 0.306640625
vn 0.917480469 -0.397949219 1.10268593E-05
vn -0.933105469 0.187255859 -0.306640625
vn -0.933105469 0.1796875 -0.311279297
vn -0.917480469 0.397949219 1.18017197E-05
vn -0.917480469 0.397949219 -7.62939453E-06
vn -0.933105469 -0.187255859 -0.306640625
vn -0.933105469 0.1796875 0.311279297
vn -0.933105469 -0.1796875 -0.311279297
vn -0.933105469 0.187133789 0.306640625
vn -0.917480469 -0.397949219 -7.56978989E-06
vn -0.933105469 -0.1796875 0.311279297
vn -0.917480469 -0.397949219 1.18017197E-05
vn -0.933105469 -0.187133789 0.306640625
g Turbine_B_Connector_0
f 3/3/3 2/2/2 1/1/1
f 4/4/4 3/3/3 1/1/1
f 7/7/7 6/6/6 5/5/5
f 8/8/8 7/7/7 5/5/5
f 11/11/11 10/10/10 9/9/9
f 12/12/12 11/11/11 9/9/9
f 15/15/15 14/14/14 13/13/13
f 16/16/16 15/15/15 13/13/13
f 19/19/19 18/18/18 17/17/17
f 20/20/20 19/19/19 17/17/17
f 23/23/23 22/22/22 21/21/21
f 24/24/24 23/23/23 21/21/21
f 27/27/27 26/26/26 25/25/25
f 28/28/28 27/27/27 25/25/25
f 31/31/31 30/30/30 29/29/29
f 32/32/32 31/31/31 29/29/29
f 35/35/35 34/34/34 33/33/33
f 36/36/36 35/35/35 33/33/33
f 39/39/39 38/38/38 37/37/37
f 40/40/40 39/39/39 37/37/37
f 43/43/43 42/42/42 41/41/41
f 44/44/44 43/43/43 41/41/41
f 47/47/47 46/46/46 45/45/45
f 48/48/48 47/47/47 45/45/45
f 51/51/51 50/50/50 49/49/49
f 52/52/52 51/51/51 49/49/49
f 55/55/55 54/54/54 53/53/53
f 56/56/56 55/55/55 53/53/53
f 59/59/59 58/58/58 57/57/57
f 60/60/60 59/59/59 57/57/57
f 63/63/63 62/62/62 61/61/61
f 64/64/64 63/63/63 61/61/61
f 67/67/67 66/66/66 65/65/65
f 68/68/68 67/67/67 65/65/65
f 71/71/71 70/70/70 69/69/69
f 72/72/72 71/71/71 69/69/69
f 75/75/75 74/74/74 73/73/73
f 76/76/76 75/75/75 73/73/73
f 79/79/79 78/78/78 77/77/77
f 80/80/80 79/79/79 77/77/77
f 83/83/83 82/82/82 81/81/81
f 84/84/84 83/83/83 81/81/81
f 87/87/87 86/86/86 85/85/85
f 88/88/88 87/87/87 85/85/85
f 91/91/91 90/90/90 89/89/89
f 92/92/92 91/91/91 89/89/89
f 95/95/95 94/94/94 93/93/93
f 96/96/96 95/95/95 93/93/93
f 99/99/99 98/98/98 97/97/97
f 100/100/100 99/99/99 97/97/97
f 99/99/99 101/101/101 98/98/98
f 100/100/100 97/97/97 102/102/102
f 101/101/101 103/103/103 98/98/98
f 104/104/104 100/100/100 102/102/102
f 101/101/101 105/105/105 103/103/103
f 104/104/104 102/102/102 106/106/106
f 105/105/105 107/107/107 103/103/103
f 108/108/108 104/104/104 106/106/106
f 108/108/108 106/106/106 107/107/107
f 105/105/105 108/108/108 107/107/107
f 111/111/111 110/110/110 109/109/109
f 112/112/112 111/111/111 109/109/109
f 109/109/109 110/110/110 113/113/113
f 114/114/114 111/111/111 112/112/112
f 110/110/110 115/115/115 113/113/113
f 116/116/116 114/114/114 112/112/112
f 113/113/113 115/115/115 117/117/117
f 118/118/118 114/114/114 116/116/116
f 115/115/115 119/119/119 117/117/117
f 120/120/120 118/118/118 116/116/116
f 117/117/117 119/119/119 120/120/120
f 119/119/119 118/118/118 120/120/120
