g MiniGame_Light
v -0.0387503058 -1.72762465 0.0387304686
v -0.0387503058 1.6518141 0.0387304686
v 0.038750913 1.6518141 0.0387304686
v 0.038750913 -1.72762465 0.0387304686
v -0.0387503058 1.6518141 -0.038769532
v -0.0387503058 -1.72762465 -0.038769532
v 0.038750913 -1.72762465 -0.038769532
v 0.038750913 1.6518141 -0.038769532
v 0.038750913 -1.72762465 0.0387304686
v 0.038750913 1.6518141 0.0387304686
v 0.038750913 1.6518141 -0.038769532
v 0.038750913 -1.72762465 -0.038769532
v -0.0387503058 -1.72762465 -0.038769532
v -0.0387503058 1.6518141 -0.038769532
v -0.0387503058 1.6518141 0.0387304686
v -0.0387503058 -1.72762465 0.0387304686
v -0.0932009891 1.63746285 0.187871084
v -0.0932009891 1.72762465 0.187871084
v 0.093202211 1.72762465 0.187871084
v 0.093202211 1.63746285 0.187871084
v -0.0932009891 1.72762465 0.187871084
v 0.193507388 1.72762465 0.00498046866
v 0.093202211 1.72762465 0.187871084
v -0.193506166 1.72762465 0.00498046866
v 0.093202211 1.72762465 -0.18794921
v -0.0932009891 1.72762465 -0.18794921
v -0.0932009891 1.72762465 -0.18794921
v -0.0932009891 1.63746285 -0.18794921
v 0.093202211 1.63746285 -0.18794921
v 0.093202211 1.72762465 -0.18794921
v -0.193506166 1.63746285 0.00498046866
v -0.0932009891 1.63746285 0.187871084
v 0.093202211 1.63746285 0.187871084
v 0.193507388 1.63746285 0.00498046866
v -0.0932009891 1.63746285 -0.18794921
v 0.093202211 1.63746285 -0.18794921
v 0.093202211 1.63746285 0.187871084
v 0.093202211 1.72762465 0.187871084
v 0.193507388 1.72762465 0.00498046866
v 0.193507388 1.63746285 0.00498046866
v 0.093202211 1.63746285 -0.18794921
v 0.093202211 1.72762465 -0.18794921
v -0.193506166 1.63746285 0.00498046866
v -0.0932009891 1.72762465 0.187871084
v -0.0932009891 1.63746285 0.187871084
v -0.193506166 1.72762465 0.00498046866
v -0.0932009891 1.63746285 -0.18794921
v -0.0932009891 1.72762465 -0.18794921
vt 0.0327148438 0.546386719
vt 0.456542969 0.546386719
vt 0.456542969 0.530273438
vt 0.0327148438 0.530273438
vt 0.0327148438 0.546386719
vt 0.456542969 0.546386719
vt 0.456542969 0.530273438
vt 0.0327148438 0.530273438
vt 0.0327148438 0.546386719
vt 0.456542969 0.546386719
vt 0.456542969 0.530273438
vt 0.0327148438 0.530273438
vt 0.0327148438 0.546386719
vt 0.456542969 0.546386719
vt 0.456542969 0.530273438
vt 0.0327148438 0.530273438
vt 0.489990234 0.546875
vt 0.489990234 0.528320312
vt 0.444824219 0.528320312
vt 0.444824219 0.546875
vt 0.455322266 0.50390625
vt 0.48828125 0.452148438
vt 0.455322266 0.470458984
vt 0.48828125 0.521972656
vt 0.5234375 0.470458984
vt 0.5234375 0.50390625
vt 0.489990234 0.546875
vt 0.489990234 0.528320312
vt 0.444824219 0.528320312
vt 0.444824219 0.546875
vt 0.490234375 0.521972656
vt 0.5234375 0.50390625
vt 0.5234375 0.470458984
vt 0.490234375 0.452148438
vt 0.455322266 0.50390625
vt 0.455322266 0.470458984
vt 0.513183594 0.546875
vt 0.513183594 0.528320312
vt 0.46875 0.528320312
vt 0.46875 0.546875
vt 0.421875 0.546875
vt 0.421875 0.528320312
vt 0.466308594 0.546875
vt 0.421875 0.528320312
vt 0.421875 0.546875
vt 0.466308594 0.528320312
vt 0.513183594 0.546875
vt 0.513183594 0.528320312
vn -0.70703125 0 0.70703125
vn -0.70703125 0 0.70703125
vn 0.70703125 0 0.70703125
vn 0.70703125 0 0.70703125
vn -0.70703125 0 -0.70703125
vn -0.70703125 0 -0.70703125
vn 0.70703125 0 -0.70703125
vn 0.70703125 0 -0.70703125
vn 0.70703125 0 0.70703125
vn 0.70703125 0 0.70703125
vn 0.70703125 0 -0.70703125
vn 0.70703125 0 -0.70703125
vn -0.70703125 0 -0.70703125
vn -0.70703125 0 -0.70703125
vn -0.70703125 0 0.70703125
vn -0.70703125 0 0.70703125
vn -0.537597656 0 0.843261719
vn -0.537597656 0 0.843261719
vn 0.537597656 0 0.843261719
vn 0.537597656 0 0.843261719
vn -0 1 0
vn -0 1 0
vn -0 1 0
vn -0 1 0
vn -0 1 0
vn -0 1 0
vn -0.558105469 0 -0.829589844
vn -0.558105469 0 -0.829589844
vn 0.558105469 0 -0.829589844
vn 0.558105469 0 -0.829589844
vn -0 -1 0
vn -0 -1 2.38418579E-07
vn -0 -1 2.38418579E-07
vn -0 -1 0
vn -0 -1 -2.38418579E-07
vn -0 -1 -2.38418579E-07
vn 0.537597656 0 0.843261719
vn 0.537597656 0 0.843261719
vn 1 0 0
vn 1 0 0
vn 0.558105469 0 -0.829589844
vn 0.558105469 0 -0.829589844
vn -1 0 0
vn -0.537597656 0 0.843261719
vn -0.537597656 0 0.843261719
vn -1 0 0
vn -0.558105469 0 -0.829589844
vn -0.558105469 0 -0.829589844
g MiniGame_Light_0
f 3/3/3 2/2/2 1/1/1
f 4/4/4 3/3/3 1/1/1
f 7/7/7 6/6/6 5/5/5
f 8/8/8 7/7/7 5/5/5
f 11/11/11 10/10/10 9/9/9
f 12/12/12 11/11/11 9/9/9
f 15/15/15 14/14/14 13/13/13
f 16/16/16 15/15/15 13/13/13
f 19/19/19 18/18/18 17/17/17
f 20/20/20 19/19/19 17/17/17
f 23/23/23 22/22/22 21/21/21
f 22/22/22 24/24/24 21/21/21
f 22/22/22 25/25/25 24/24/24
f 25/25/25 26/26/26 24/24/24
f 29/29/29 28/28/28 27/27/27
f 30/30/30 29/29/29 27/27/27
f 33/33/33 32/32/32 31/31/31
f 34/34/34 33/33/33 31/31/31
f 34/34/34 31/31/31 35/35/35
f 36/36/36 34/34/34 35/35/35
f 39/39/39 38/38/38 37/37/37
f 40/40/40 39/39/39 37/37/37
f 40/40/40 41/41/41 39/39/39
f 41/41/41 42/42/42 39/39/39
f 45/45/45 44/44/44 43/43/43
f 44/44/44 46/46/46 43/43/43
f 43/43/43 46/46/46 47/47/47
f 46/46/46 48/48/48 47/47/47
