g IS4_MDL_EscenarioPB_Pared_Recepcion_5
v -2.36713123 2.35238099 -7.62939408E-07
v -0.0102954097 2.35238099 -7.62939408E-07
v -0.0102954097 -1.35238218 4.57763662E-07
v -2.36713123 -1.35238564 -7.62939408E-07
v -2.36713123 -2.35238099 -7.62939408E-07
v -0.0102954097 -2.35238028 -7.62939408E-07
v 2.1663599 -2.35238099 -7.62939408E-07
v 2.36713123 -1.35238421 4.57763662E-07
v 2.36713123 -2.35238099 -7.62939408E-07
v 2.16635489 -1.35238421 4.57763662E-07
v 2.16635489 -0.352377087 4.57763662E-07
v 2.36713123 2.35238099 -7.62939408E-07
v 1.36830807 -0.352377087 4.57763662E-07
v -0.0102954097 2.35238099 -7.62939408E-07
v 1.36830807 -1.35237885 4.57763662E-07
v -0.0102954097 -1.35238218 4.57763662E-07
v -0.0102954097 -2.35238028 -7.62939408E-07
v 1.36831295 -2.35238099 -7.62939408E-07
vt 0.558105469 0.991210938
vt 0.817382812 0.991210938
vt 0.817382812 0.617675781
vt 0.558105469 0.617675781
vt 0.558105469 0.513183594
vt 0.817382812 0.513183594
vt 0.538085938 0.513183594
vt 0.51171875 0.617675781
vt 0.51171875 0.513183594
vt 0.538085938 0.617675781
vt 0.538085938 0.719238281
vt 0.51171875 0.991210938
vt 0.635253906 0.719238281
vt 0.799804688 0.991210938
vt 0.635253906 0.617675781
vt 0.799804688 0.617675781
vt 0.799804688 0.513183594
vt 0.635253906 0.513183594
vn -1.07288361E-06 1.78813934E-07 1
vn -1.07288361E-06 1.78813934E-07 1
vn -8.34465027E-07 0 1
vn -8.34465027E-07 0 1
vn -0 -5.96046448E-07 1
vn -0 -5.96046448E-07 1
vn -0 -1.1920929E-06 1
vn -4.64916229E-06 -1.78813934E-07 1
vn -0 -1.1920929E-06 1
vn -4.64916229E-06 -1.78813934E-07 1
vn -1.13248825E-06 4.17232513E-07 1
vn -0 4.76837158E-07 1
vn 9.53674316E-07 3.57627869E-07 1
vn 4.76837158E-07 4.17232513E-07 1
vn 1.90734863E-06 2.38418579E-07 1
vn 1.90734863E-06 2.38418579E-07 1
vn 1.13248825E-06 -1.1920929E-06 1
vn 1.13248825E-06 -1.1920929E-06 1
g IS4_MDL_EscenarioPB_Pared_Recepcion_5_0
f 3/3/3 2/2/2 1/1/1
f 4/4/4 3/3/3 1/1/1
f 3/3/3 4/4/4 5/5/5
f 6/6/6 3/3/3 5/5/5
f 9/9/9 8/8/8 7/7/7
f 8/8/8 10/10/10 7/7/7
f 10/10/10 8/8/8 11/11/11
f 8/8/8 12/12/12 11/11/11
f 13/13/13 11/11/11 12/12/12
f 14/14/14 13/13/13 12/12/12
f 15/15/15 13/13/13 14/14/14
f 16/16/16 15/15/15 14/14/14
f 15/15/15 16/16/16 17/17/17
f 18/18/18 15/15/15 17/17/17
