g MiniRod_Lumberjack_Part_18
v 0.00785187911 0.0123876557 -0.0291878786
v -0.00980049372 0.0118756182 -0.0293544866
v -0.00890873186 0.0114751225 -0.0388440229
v 0.00865899771 0.0115006054 -0.0389355756
v 0.00915943366 0.00573123805 -0.0450609289
v -0.00854955427 0.00677090511 -0.0449907482
v 0.00949649513 -0.00417948607 -0.045973938
v -0.0086596366 -0.00336770876 -0.0461126417
v 0.00929052569 -0.0111817056 -0.0425581448
v -0.00902826991 -0.0102604991 -0.0428098291
v 0.0091585042 -0.0154014761 -0.0317343436
v -0.00943654776 -0.0152262719 -0.0330258831
v 0.00948303938 -0.0119529041 -0.0221744627
v -0.00926929247 -0.0111917527 -0.0234969035
v 0.0127609801 -0.00168339128 -0.0277455226
v 0.00785187911 0.0123876557 -0.0291878786
v 0.00865899771 0.0115006054 -0.0389355756
v 0.00915943366 0.00573123805 -0.0450609289
v 0.00949649513 -0.00417948607 -0.045973938
v 0.00929052569 -0.0111817056 -0.0425581448
v 0.0091585042 -0.0154014761 -0.0317343436
v 0.00948303938 -0.0119529041 -0.0221744627
v -0.012644832 0.000141047232 -0.0280392356
v -0.00890873186 0.0114751225 -0.0388440229
v -0.00980049372 0.0118756182 -0.0293544866
v -0.00854955427 0.00677090511 -0.0449907482
v -0.0086596366 -0.00336770876 -0.0461126417
v -0.00902826991 -0.0102604991 -0.0428098291
v -0.00943654776 -0.0152262719 -0.0330258831
v -0.00926929247 -0.0111917527 -0.0234969035
v 0.0233331416 0.0120750843 -0.0258646682
v 0.000434768182 -0.0129317511 -0.0312963389
v 0.0255689789 -0.0121591315 -0.0261750594
v -0.00108342886 0.0154014761 -0.0315244459
v -0.0255689789 -0.0128464736 -0.0260123722
v -0.0236701407 0.011566571 -0.0266646855
v -0.00108342886 0.0154014761 -0.0315244459
v -0.0175016113 0.00848526601 0.0190587994
v -0.0236701407 0.011566571 -0.0266646855
v -0.000500276103 0.0110306153 0.0179513358
v 0.0233331416 0.0120750843 -0.0258646682
v 0.0184641387 0.00822792388 0.0203665532
v 0.011061647 0.00807702634 0.0429752544
v 0.00149048562 0.00797724351 0.0461126417
v -0.0093523385 0.00828874204 0.0445794202
v 0.0255689789 -0.0121591315 -0.0261750594
v 0.0184641387 0.00822792388 0.0203665532
v 0.0233331416 0.0120750843 -0.0258646682
v 0.020968629 -0.0128785735 0.02057519
v 0.0134640383 -0.0129047427 0.0354076177
v 0.011061647 0.00807702634 0.0429752544
v 0.00106994866 -0.0117880376 0.0392235182
v 0.00149048562 0.00797724351 0.0461126417
v -0.0093523385 0.00828874204 0.0445794202
v -0.0126755638 -0.0122717982 0.0369238928
v -0.0175016113 0.00848526601 0.0190587994
v -0.021927435 -0.0123955477 0.0154975411
v -0.0255689789 -0.0128464736 -0.0260123722
v -0.0236701407 0.011566571 -0.0266646855
v 0.020968629 -0.0128785735 0.02057519
v 0.00106994866 -0.0117880376 0.0392235182
v 0.0134640383 -0.0129047427 0.0354076177
v 0.000724546902 -0.0133850751 0.000511684397
v 0.0255689789 -0.0121591315 -0.0261750594
v 0.000434768182 -0.0129317511 -0.0312963389
v -0.0255689789 -0.0128464736 -0.0260123722
v -0.021927435 -0.0123955477 0.0154975411
v -0.0126755638 -0.0122717982 0.0369238928
vt 0.232299805 0.773925781
vt 0.232543945 0.801757812
vt 0.247558594 0.800292969
vt 0.247680664 0.772460938
vt 0.260986328 0.771972656
vt 0.259765625 0.799804688
vt 0.276611328 0.770996094
vt 0.275878906 0.799804688
vt 0.288818359 0.770996094
vt 0.287841797 0.799804688
vt 0.307128906 0.771484375
vt 0.305175781 0.80078125
vt 0.323242188 0.770996094
vt 0.321289062 0.800292969
vt 0.793457031 0.0222625732
vt 0.770507812 0.0283508301
vt 0.774902344 0.0432128906
vt 0.78515625 0.0514831543
vt 0.80078125 0.0507202148
vt 0.811035156 0.044128418
vt 0.815917969 0.0265197754
vt 0.809570312 0.0119857788
vt 0.316162109 0.744628906
vt 0.291015625 0.747070312
vt 0.302001953 0.757324219
vt 0.288330078 0.735351562
vt 0.297119141 0.721679688
vt 0.307861328 0.716308594
vt 0.324951172 0.719726562
vt 0.333251953 0.733886719
vt 0.765625 0.169311523
vt 0.796875 0.140136719
vt 0.767089844 0.137084961
vt 0.796875 0.169189453
vt 0.828125 0.139892578
vt 0.825683594 0.171875
vt 0.796875 0.169189453
vt 0.812988281 0.224731445
vt 0.825683594 0.171875
vt 0.793945312 0.218994141
vt 0.765625 0.169311523
vt 0.771484375 0.223999023
vt 0.782226562 0.242919922
vt 0.790527344 0.244873047
vt 0.799316406 0.244873047
vt 0.735839844 0.178222656
vt 0.771484375 0.223999023
vt 0.765625 0.169311523
vt 0.751953125 0.236816406
vt 0.767578125 0.257080078
vt 0.782226562 0.242919922
vt 0.788085938 0.265136719
vt 0.790527344 0.244873047
vt 0.799316406 0.244873047
vt 0.811523438 0.260498047
vt 0.812988281 0.224731445
vt 0.835449219 0.234130859
vt 0.853027344 0.184448242
vt 0.825683594 0.171875
vt 0.775390625 0.0800170898
vt 0.800292969 0.0588684082
vt 0.78515625 0.0627441406
vt 0.798339844 0.104492188
vt 0.767089844 0.137084961
vt 0.796875 0.140136719
vt 0.828125 0.139892578
vt 0.826660156 0.088684082
vt 0.81640625 0.0625610352
vn -0.0150756836 0.997558594 -0.0681152344
vn -0.0150756836 0.997558594 -0.0681152344
vn -0.000392913818 0.941894531 -0.335693359
vn 0.0012845993 0.931152344 -0.364746094
vn 0.0128479004 0.399414062 -0.916503906
vn 0.0135269165 0.436767578 -0.899414062
vn -0.00115680695 -0.147583008 -0.989257812
vn -0.000787734985 -0.13671875 -0.990722656
vn -0.0111083984 -0.768066406 -0.640136719
vn -0.0111236572 -0.765136719 -0.644042969
vn -0.0320739746 -0.999511719 -0.0206451416
vn -0.0303649902 -0.998046875 -0.0546875
vn -0.0488891602 -0.9296875 0.365722656
vn -0.0488891602 -0.9296875 0.365722656
vn 0.995117188 -0.0221099854 -0.095703125
vn 0.94140625 0.333496094 0.0476379395
vn 0.979492188 0.170654297 -0.10748291
vn 0.980957031 0.120788574 -0.15234375
vn 0.990234375 -0.0179595947 -0.13684082
vn 0.977539062 -0.176513672 -0.115844727
vn 0.977539062 -0.196411133 -0.079284668
vn 0.960449219 -0.271240234 0.0651855469
vn -0.989746094 -0.0223846436 -0.141723633
vn -0.9765625 0.105712891 -0.187255859
vn -0.969238281 0.223754883 -0.100524902
vn -0.975585938 0.0831298828 -0.203125
vn -0.982910156 -0.0178375244 -0.182128906
vn -0.98046875 -0.112915039 -0.160522461
vn -0.984863281 -0.139648438 -0.104858398
vn -0.963867188 -0.239624023 0.118347168
vn 0.877929688 0.0884399414 -0.470947266
vn 0.0121688843 0.00149726868 -1
vn 0.9140625 0.0926513672 -0.395019531
vn 0.00142192841 0.000681400299 -1
vn -0.911132812 0.0993041992 -0.400146484
vn -0.862304688 0.0889892578 -0.498779297
vn -0.00718688965 0.99609375 0.0897827148
vn -0.130126953 0.987792969 0.0845947266
vn -0.145629883 0.985351562 0.0874633789
vn -0.00143909454 0.99609375 0.0861206055
vn 0.122802734 0.98828125 0.0903320312
vn 0.116455078 0.989257812 0.0862426758
vn 0.0958862305 0.992675781 0.0728759766
vn 0.00510787964 0.997070312 0.0744628906
vn -0.080871582 0.993652344 0.0754394531
vn 0.9140625 0.0926513672 -0.395019531
vn 0.979492188 0.0872802734 0.180541992
vn 0.877929688 0.0884399414 -0.470947266
vn 0.979492188 0.087097168 0.181396484
vn 0.818847656 -0.0600280762 0.570800781
vn 0.708007812 -0.132446289 0.693847656
vn 0.0616760254 -0.32421875 0.943847656
vn 0.0559692383 -0.324462891 0.944335938
vn -0.703125 -0.107666016 0.702636719
vn -0.826660156 -0.0259857178 0.5625
vn -0.972167969 0.111755371 0.206542969
vn -0.9765625 0.117004395 0.180908203
vn -0.911132812 0.0993041992 -0.400146484
vn -0.862304688 0.0889892578 -0.498779297
vn -0.0078125 -1 0.0124282837
vn -0.0154037476 -0.999511719 0.0274810791
vn -0.0312042236 -0.999023438 0.0251464844
vn 0.000546455383 -1 0.00542449951
vn 0.0350341797 -0.999511719 -0.0132904053
vn 0.0132598877 -1 -0.0143737793
vn -0.0191040039 -1 -0.0013628006
vn -0.0143585205 -0.999511719 0.0238952637
vn -0.00371360779 -0.999511719 0.0291900635
g MiniRod_Lumberjack_Part_18_0
f 3/3/3 2/2/2 1/1/1
f 4/4/4 3/3/3 1/1/1
f 4/4/4 5/5/5 3/3/3
f 5/5/5 6/6/6 3/3/3
f 5/5/5 7/7/7 6/6/6
f 7/7/7 8/8/8 6/6/6
f 8/8/8 7/7/7 9/9/9
f 10/10/10 8/8/8 9/9/9
f 10/10/10 9/9/9 11/11/11
f 12/12/12 10/10/10 11/11/11
f 12/12/12 11/11/11 13/13/13
f 14/14/14 12/12/12 13/13/13
f 17/17/17 16/16/16 15/15/15
f 17/17/17 15/15/15 18/18/18
f 15/15/15 19/19/19 18/18/18
f 19/19/19 15/15/15 20/20/20
f 15/15/15 21/21/21 20/20/20
f 15/15/15 22/22/22 21/21/21
f 25/25/25 24/24/24 23/23/23
f 23/23/23 24/24/24 26/26/26
f 27/27/27 23/23/23 26/26/26
f 23/23/23 27/27/27 28/28/28
f 29/29/29 23/23/23 28/28/28
f 23/23/23 29/29/29 30/30/30
f 33/33/33 32/32/32 31/31/31
f 32/32/32 34/34/34 31/31/31
f 34/34/34 32/32/32 35/35/35
f 36/36/36 34/34/34 35/35/35
f 39/39/39 38/38/38 37/37/37
f 38/38/38 40/40/40 37/37/37
f 37/37/37 40/40/40 41/41/41
f 40/40/40 42/42/42 41/41/41
f 43/43/43 42/42/42 40/40/40
f 44/44/44 43/43/43 40/40/40
f 40/40/40 38/38/38 44/44/44
f 38/38/38 45/45/45 44/44/44
f 48/48/48 47/47/47 46/46/46
f 47/47/47 49/49/49 46/46/46
f 49/49/49 47/47/47 50/50/50
f 47/47/47 51/51/51 50/50/50
f 50/50/50 51/51/51 52/52/52
f 51/51/51 53/53/53 52/52/52
f 52/52/52 53/53/53 54/54/54
f 55/55/55 52/52/52 54/54/54
f 55/55/55 54/54/54 56/56/56
f 57/57/57 55/55/55 56/56/56
f 58/58/58 57/57/57 56/56/56
f 59/59/59 58/58/58 56/56/56
f 62/62/62 61/61/61 60/60/60
f 61/61/61 63/63/63 60/60/60
f 60/60/60 63/63/63 64/64/64
f 63/63/63 65/65/65 64/64/64
f 66/66/66 65/65/65 63/63/63
f 66/66/66 63/63/63 67/67/67
f 63/63/63 61/61/61 67/67/67
f 61/61/61 68/68/68 67/67/67
