g IS4_MDL_EscenarioPB_MesaRecepcion_Tapa_1
v -0.0402010232 -0.0536075979 -0.664544761
v -0.0402010232 -0.000619241036 -0.664544761
v -0.207105309 -0.000619241036 -0.0395997241
v -0.207105309 -0.0536075979 -0.0395997241
v 0.245956212 -0.0536075979 0.0459727831
v 0.245956212 -0.000619241036 0.0459727831
v 0.420858532 -0.000619241036 -0.661915362
v 0.420858532 -0.0536075979 -0.661916554
v -0.207105309 -0.000619241036 -0.0395997241
v 0.245956212 -0.000619241036 0.0459727831
v 0.245956212 -0.0536075979 0.0459727831
v -0.207105309 -0.0536075979 -0.0395997241
v 0.420858532 -0.000619241036 -0.661915362
v 0.245956212 -0.000619241036 0.0459727831
v -0.207105309 -0.000619241036 -0.0395997241
v -0.0402010232 -0.000619241036 -0.664544761
v -0.0402010232 -0.0536075979 -0.664544761
v -0.207105309 -0.0536075979 -0.0395997241
v 0.245956212 -0.0536075979 0.0459727831
v 0.420858532 -0.0536075979 -0.661916554
v -0.0402010232 -0.000619241036 -0.664544761
v -0.0402010232 -0.0536075979 -0.664544761
v 0.420858532 -0.0536075979 -0.661916554
v 0.420858532 -0.000619241036 -0.661915362
vt 0.541992188 0.110412598
vt 0.541992188 0.101135254
vt 0.327148438 0.101135254
vt 0.327148438 0.110412598
vt 0.541992188 0.110168457
vt 0.541992188 0.100891113
vt 0.327148438 0.100891113
vt 0.327148438 0.110168457
vt 0.541992188 0.100585938
vt 0.45703125 0.100585938
vt 0.45703125 0.109863281
vt 0.541992188 0.109863281
vt 0.54296875 0.101013184
vt 0.327148438 0.101013184
vt 0.327148438 0.235107422
vt 0.54296875 0.235107422
vt 0.327148438 0.235107422
vt 0.54296875 0.235107422
vt 0.54296875 0.100952148
vt 0.327148438 0.100952148
vt 0.541992188 0.110473633
vt 0.541992188 0.101196289
vt 0.45703125 0.101196289
vt 0.45703125 0.110473633
vn -0.966308594 0 -0.258056641
vn -0.966308594 0 -0.258056641
vn -0.966308594 0 -0.258056641
vn -0.966308594 0 -0.258056641
vn 0.970703125 -2.50339508E-06 0.239868164
vn 0.970703125 -2.50339508E-06 0.239868164
vn 0.970703125 -2.50339508E-06 0.239868164
vn 0.970703125 -2.50339508E-06 0.239868164
vn -0.185546875 0 0.982421875
vn -0.185546875 0 0.982421875
vn -0.185546875 0 0.982421875
vn -0.185546875 0 0.982421875
vn -0 1 0
vn -0 1 0
vn -0 1 0
vn -0 1 0
vn -0 -1 0
vn -0 -1 0
vn -0 -1 0
vn -0 -1 0
vn 0.00570297241 1.15036964E-05 -1
vn 0.00570297241 1.15036964E-05 -1
vn 0.00570297241 1.15036964E-05 -1
vn 0.00570297241 1.15036964E-05 -1
g IS4_MDL_EscenarioPB_MesaRecepcion_Tapa_1_0
f 3/3/3 2/2/2 1/1/1
f 4/4/4 3/3/3 1/1/1
f 7/7/7 6/6/6 5/5/5
f 8/8/8 7/7/7 5/5/5
f 11/11/11 10/10/10 9/9/9
f 12/12/12 11/11/11 9/9/9
f 15/15/15 14/14/14 13/13/13
f 16/16/16 15/15/15 13/13/13
f 19/19/19 18/18/18 17/17/17
f 20/20/20 19/19/19 17/17/17
f 23/23/23 22/22/22 21/21/21
f 24/24/24 23/23/23 21/21/21
