g EnergyStructure_Door_2_Frame
v 0.131477222 0.961425185 0.770802672
v 0.131477222 -1.20108132 0.770802672
v -0.124804156 -1.20319935 0.781392812
v -0.124804156 0.961425185 0.781392812
v -0.124804156 0.785628868 0.590770299
v -0.120568101 0.785628868 -0.597443365
v -0.118450073 0.961425185 -0.790183906
v -0.124804156 0.961425185 0.781392812
v -0.124804156 -1.20319935 0.590770299
v -0.124804156 0.785628868 0.590770299
v -0.124804156 0.961425185 0.781392812
v -0.124804156 -1.20319935 0.781392812
v -0.118450073 0.961425185 -0.790183906
v -0.120568101 0.785628868 -0.597443365
v -0.120568101 -1.20319935 -0.597443365
v -0.118450073 -1.20531738 -0.790183906
v -0.118450073 0.961425185 -0.790183906
v -0.118450073 -1.20531738 -0.790183906
v 0.103942859 -1.20108132 -0.798656017
v 0.103942859 0.961425185 -0.798656017
v -0.124804156 -1.20319935 0.590770299
v 0.0594642727 -1.20319935 0.597124383
v 0.0594642727 0.785628868 0.597124383
v -0.124804156 0.785628868 0.590770299
v 0.0658183565 0.785628868 -0.593207309
v -0.120568101 0.785628868 -0.597443365
v -0.124804156 0.785628868 0.590770299
v 0.0594642727 0.785628868 0.597124383
v -0.120568101 0.785628868 -0.597443365
v 0.0658183565 0.785628868 -0.593207309
v 0.0658183565 -1.20319935 -0.593207309
v -0.120568101 -1.20319935 -0.597443365
v 0.103942859 0.961425185 -0.798656017
v 0.131477222 0.961425185 0.770802672
v -0.124804156 0.961425185 0.781392812
v -0.118450073 0.961425185 -0.790183906
vt 0.302618904 0.521031654
vt 0.0332431793 0.521031654
vt 0.0332431793 0.448227404
vt 0.251655929 0.448227404
vt 0.455507829 0.451867617
vt 0.244375504 0.451867617
vt 0.211613592 0.521031654
vt 0.488269742 0.521031654
vt 0.0332431793 0.521031654
vt 0.339021029 0.521031654
vt 0.371782942 0.448227404
vt 0.0332431793 0.448227404
vt 0.371782942 0.448227404
vt 0.339021029 0.521031654
vt 0.0332431793 0.521031654
vt 0.0332431793 0.448227404
vt 0.364502517 0.484629529
vt 0.0332431793 0.521031654
vt 0.0332431793 0.448227404
vt 0.313539542 0.448227404
vt 0.0332431793 0.448227404
vt 0.0332431793 0.521031654
vt 0.513751229 0.521031654
vt 0.513751229 0.448227404
vt 0.218894017 0.451867617
vt 0.218894017 0.521031654
vt 0.480989317 0.521031654
vt 0.480989317 0.451867617
vt 0.513751229 0.521031654
vt 0.513751229 0.448227404
vt 0.0332431793 0.448227404
vt 0.0332431793 0.521031654
vt 0.521031654 0.451867617
vt 0.175211467 0.451867617
vt 0.175211467 0.521031654
vt 0.521031654 0.521031654
vn 0.0476130474 0.0158710158 0.99873976
vn 0.0476130474 0.0158710158 0.99873976
vn 0.0476130474 0.0158710158 0.99873976
vn 0.0476130474 0.0158710158 0.99873976
vn -0.999873996 0.0158710158 -0.000321587207
vn -0.999873996 0.0158710158 -0.000321587207
vn -0.999873996 0.0158710158 -0.000321587207
vn -0.999873996 0.0158710158 -0.000321587207
vn -0.999873996 0.0158710158 -0.000321587207
vn -0.999873996 0.0158710158 -0.000321587207
vn -0.999873996 0.0158710158 -0.000321587207
vn -0.999873996 0.0158710158 -0.000321587207
vn -0.999873996 0.0158710158 -0.000321587207
vn -0.999873996 0.0158710158 -0.000321587207
vn -0.999873996 0.0158710158 -0.000321587207
vn -0.999873996 0.0158710158 -0.000321587207
vn -0.0476130474 0.0158710158 -0.99873976
vn -0.0476130474 0.0158710158 -0.99873976
vn -0.0476130474 0.0158710158 -0.99873976
vn -0.0476130474 0.0158710158 -0.99873976
vn 0.0158710158 0.0158710158 -0.999748079
vn 0.0158710158 0.0158710158 -0.999748079
vn 0.0158710158 0.0158710158 -0.999748079
vn 0.0158710158 0.0158710158 -0.999748079
vn -0.0158710158 -0.999873996 -0.000321587206
vn -0.0158710158 -0.999873996 -0.000321587206
vn -0.0158710158 -0.999873996 -0.000321587206
vn -0.0158710158 -0.999873996 -0.000321587206
vn -0.0158710158 0.0158710158 0.999748079
vn -0.0158710158 0.0158710158 0.999748079
vn -0.0158710158 0.0158710158 0.999748079
vn -0.0158710158 0.0158710158 0.999748079
vn -0.0158710158 0.999873996 -0.000321587207
vn -0.0158710158 0.999873996 -0.000321587207
vn -0.0158710158 0.999873996 -0.000321587207
vn -0.0158710158 0.999873996 -0.000321587207
g EnergyStructure_Door_2_Frame_0
f 3/3/3 2/2/2 1/1/1
f 4/4/4 3/3/3 1/1/1
f 7/7/7 6/6/6 5/5/5
f 8/8/8 7/7/7 5/5/5
f 11/11/11 10/10/10 9/9/9
f 12/12/12 11/11/11 9/9/9
f 15/15/15 14/14/14 13/13/13
f 16/16/16 15/15/15 13/13/13
f 19/19/19 18/18/18 17/17/17
f 20/20/20 19/19/19 17/17/17
f 23/23/23 22/22/22 21/21/21
f 24/24/24 23/23/23 21/21/21
f 27/27/27 26/26/26 25/25/25
f 28/28/28 27/27/27 25/25/25
f 31/31/31 30/30/30 29/29/29
f 32/32/32 31/31/31 29/29/29
f 35/35/35 34/34/34 33/33/33
f 36/36/36 35/35/35 33/33/33
