g FuseBox
v -0.049999997 -0.189999998 0.119999997
v -0.049999997 0.189999998 0.119999997
v 0.049999997 0.189999998 0.119999997
v 0.049999997 -0.189999998 0.119999997
v -0.049999997 0.189999998 0.119999997
v -0.049999997 0.189999998 -0.119999997
v 0.049999997 0.189999998 -0.119999997
v 0.049999997 0.189999998 0.119999997
v -0.049999997 0.189999998 -0.119999997
v -0.049999997 -0.189999998 -0.119999997
v 0.049999997 -0.189999998 -0.119999997
v 0.049999997 0.189999998 -0.119999997
v -0.049999997 -0.189999998 -0.119999997
v -0.049999997 -0.189999998 0.119999997
v 0.049999997 -0.189999998 0.119999997
v 0.049999997 -0.189999998 -0.119999997
v -0.0382861309 -0.179999992 0.109999999
v -0.0382861309 0.179999992 0.109999999
v -0.0382861309 0.179999992 -0.109999999
v -0.0382861309 -0.179999992 -0.109999999
v 0.049999997 -0.189999998 0.119999997
v 0.049999997 -0.179999992 0.109999999
v 0.049999997 -0.179999992 -0.109999999
v 0.049999997 -0.189999998 -0.119999997
v 0.049999997 -0.189999998 -0.119999997
v 0.049999997 -0.179999992 -0.109999999
v 0.049999997 0.179999992 -0.109999999
v 0.049999997 0.189999998 -0.119999997
v 0.049999997 0.189999998 -0.119999997
v 0.049999997 0.179999992 -0.109999999
v 0.049999997 0.179999992 0.109999999
v 0.049999997 0.189999998 0.119999997
v 0.049999997 0.189999998 0.119999997
v 0.049999997 0.179999992 0.109999999
v 0.049999997 -0.179999992 0.109999999
v 0.049999997 -0.189999998 0.119999997
v 0.049999997 -0.179999992 0.109999999
v -0.0382861309 -0.179999992 0.109999999
v -0.0382861309 -0.179999992 -0.109999999
v 0.049999997 -0.179999992 -0.109999999
v 0.049999997 -0.179999992 -0.109999999
v -0.0382861309 -0.179999992 -0.109999999
v -0.0382861309 0.179999992 -0.109999999
v 0.049999997 0.179999992 -0.109999999
v 0.049999997 0.179999992 -0.109999999
v -0.0382861309 0.179999992 -0.109999999
v -0.0382861309 0.179999992 0.109999999
v 0.049999997 0.179999992 0.109999999
v 0.049999997 0.179999992 0.109999999
v -0.0382861309 0.179999992 0.109999999
v -0.0382861309 -0.179999992 0.109999999
v 0.049999997 -0.179999992 0.109999999
vt 0.500976562 0.401855469
vt 0.500976562 0.488037109
vt 0.5234375 0.488037109
vt 0.5234375 0.401855469
vt 0.500976562 0.417724609
vt 0.500976562 0.472167969
vt 0.5234375 0.472167969
vt 0.5234375 0.417724609
vt 0.500976562 0.401855469
vt 0.500976562 0.488037109
vt 0.5234375 0.488037109
vt 0.5234375 0.401855469
vt 0.500976562 0.417724609
vt 0.500976562 0.472167969
vt 0.5234375 0.472167969
vt 0.5234375 0.417724609
vt 0.5078125 0.314453125
vt 0.5078125 0.386474609
vt 0.551757812 0.386474609
vt 0.551757812 0.314453125
vt 0.5234375 0.472167969
vt 0.525878906 0.469970703
vt 0.525878906 0.419921875
vt 0.5234375 0.417724609
vt 0.5234375 0.488037109
vt 0.525878906 0.485839844
vt 0.525878906 0.404052734
vt 0.5234375 0.401855469
vt 0.5234375 0.472167969
vt 0.525878906 0.469970703
vt 0.525878906 0.419921875
vt 0.5234375 0.417724609
vt 0.5234375 0.488037109
vt 0.525878906 0.485839844
vt 0.525878906 0.404052734
vt 0.5234375 0.401855469
vt 0.525878906 0.469970703
vt 0.545898438 0.469970703
vt 0.545898438 0.419921875
vt 0.525878906 0.419921875
vt 0.525878906 0.485839844
vt 0.545898438 0.485839844
vt 0.545898438 0.404052734
vt 0.525878906 0.404052734
vt 0.525878906 0.469970703
vt 0.545898438 0.469970703
vt 0.545898438 0.419921875
vt 0.525878906 0.419921875
vt 0.525878906 0.485839844
vt 0.545898438 0.485595703
vt 0.545898438 0.404052734
vt 0.525878906 0.404052734
vn -0 0 1
vn -0 0 1
vn -0 0 1
vn -0 0 1
vn -0 1 0
vn -0 1 0
vn -0 1 0
vn -0 1 0
vn -0 0 -1
vn -0 0 -1
vn -0 0 -1
vn -0 0 -1
vn -0 -1 0
vn -0 -1 0
vn -0 -1 0
vn -0 -1 0
vn 1 0 0
vn 1 0 0
vn 1 0 0
vn 1 0 0
vn 1 0 0
vn 1 0 0
vn 1 0 0
vn 1 0 0
vn 1 0 0
vn 1 0 0
vn 1 0 0
vn 1 0 0
vn 1 0 0
vn 1 0 0
vn 1 0 0
vn 1 0 0
vn 1 0 0
vn 1 0 0
vn 1 0 0
vn 1 0 0
vn -0 1 0
vn -0 1 0
vn -0 1 0
vn -0 1 0
vn -0 0 1
vn -0 0 1
vn -0 0 1
vn -0 0 1
vn -0 -1 0
vn -0 -1 0
vn -0 -1 0
vn -0 -1 0
vn -0 0 -1
vn -0 0 -1
vn -0 0 -1
vn -0 0 -1
g FuseBox_0
f 3/3/3 2/2/2 1/1/1
f 4/4/4 3/3/3 1/1/1
f 7/7/7 6/6/6 5/5/5
f 8/8/8 7/7/7 5/5/5
f 11/11/11 10/10/10 9/9/9
f 12/12/12 11/11/11 9/9/9
f 15/15/15 14/14/14 13/13/13
f 16/16/16 15/15/15 13/13/13
f 19/19/19 18/18/18 17/17/17
f 20/20/20 19/19/19 17/17/17
f 23/23/23 22/22/22 21/21/21
f 24/24/24 23/23/23 21/21/21
f 27/27/27 26/26/26 25/25/25
f 28/28/28 27/27/27 25/25/25
f 31/31/31 30/30/30 29/29/29
f 32/32/32 31/31/31 29/29/29
f 35/35/35 34/34/34 33/33/33
f 36/36/36 35/35/35 33/33/33
f 39/39/39 38/38/38 37/37/37
f 40/40/40 39/39/39 37/37/37
f 43/43/43 42/42/42 41/41/41
f 44/44/44 43/43/43 41/41/41
f 47/47/47 46/46/46 45/45/45
f 48/48/48 47/47/47 45/45/45
f 51/51/51 50/50/50 49/49/49
f 52/52/52 51/51/51 49/49/49
