g IS4_MDL_EscenarioPB_Taquilla_Escondite_Estante_1
v -0.275736064 0.0779960081 0.304466367
v -0.275736064 -0.0461725369 -0.299329311
v 0.27085036 -0.0461725369 -0.299329311
v 0.27085036 0.0779960081 0.304466367
v 0.27085036 -0.0461725369 -0.299329311
v 0.27085036 -0.0758011341 -0.29379335
v 0.27085036 0.048586946 0.311070085
v 0.27085036 0.0779960081 0.304466367
v 0.27085036 -0.0758011341 -0.29379335
v -0.226761475 -0.0758011341 -0.29379335
v -0.226761475 0.048586946 0.311070085
v 0.27085036 0.048586946 0.311070085
vt 0.366455078 0.0129852295
vt 0.366455078 0.0775756836
vt 0.427246094 0.0775756836
vt 0.427246094 0.0129852295
vt 0.427246094 0.0129852295
vt 0.421142578 0.0129852295
vt 0.421142578 0.0775756836
vt 0.427246094 0.0775756836
vt 0.427246094 0.0129852295
vt 0.3671875 0.0129852295
vt 0.3671875 0.0775756836
vt 0.427246094 0.0775756836
vn -0 0.979492188 -0.201416016
vn -0 0.979492188 -0.201416016
vn -0 0.979492188 -0.201416016
vn -0 0.979492188 -0.201416016
vn 1 5.36441803E-07 -1.1920929E-07
vn 1 5.36441803E-07 -1.1920929E-07
vn 1 5.36441803E-07 -1.1920929E-07
vn 1 5.36441803E-07 -1.1920929E-07
vn -0 -0.979492188 0.201416016
vn -0 -0.979492188 0.201416016
vn -0 -0.979492188 0.201416016
vn -0 -0.979492188 0.201416016
g IS4_MDL_EscenarioPB_Taquilla_Escondite_Estante_1_0
f 3/3/3 2/2/2 1/1/1
f 4/4/4 3/3/3 1/1/1
f 7/7/7 6/6/6 5/5/5
f 8/8/8 7/7/7 5/5/5
f 11/11/11 10/10/10 9/9/9
f 12/12/12 11/11/11 9/9/9
