g EnginePlatform_Wall_3
v 47.2555809 0.0123162838 -19.5829582
v 47.2555809 3.44962788 -19.7331085
v 47.2555809 3.71231627 -19.5829582
v 47.2555809 1.11574447 -19.7331085
v 47.2555809 0.0123162838 -21.6040039
v 47.2555809 1.11574447 -21.4538574
v 47.2555809 3.71231627 -21.6040039
v 47.2555809 3.44962788 -21.4538574
v 47.1035767 0.0123162838 -21.6040039
v 47.1035767 0.0123162838 -23.4024048
v 47.1035767 3.71231627 -23.4024048
v 47.1035767 3.71231627 -21.6040039
v 47.1035767 3.71231627 -21.6040039
v 47.1035767 3.71231627 -23.4024048
v 47.1035767 4.01231623 -23.4024048
v 47.1035767 4.01231623 -21.6040039
v 47.2555809 3.71231627 -19.5829582
v 47.2555809 3.44962788 -19.7331085
v 47.2555809 3.44962788 -21.4538574
v 47.2555809 3.71231627 -21.6040039
v 47.1035767 0.0123162838 -17.4982147
v 47.1035767 0.0123162838 -19.5829582
v 47.1035767 3.71231627 -19.5829582
v 47.1035767 3.71231627 -17.4982147
v 47.1035767 3.71231627 -17.4982147
v 47.1035767 3.71231627 -19.5829582
v 47.1035767 4.01231623 -19.5829582
v 47.1035767 4.01231623 -17.4982147
v 47.2555809 4.01231623 -19.5829582
v 47.2555809 3.71231627 -19.5829582
v 47.2555809 3.71231627 -21.6040039
v 47.2555809 4.01231623 -21.6040039
v 47.1035767 0.0123162838 -19.5829582
v 47.2555809 0.0123162838 -19.5829582
v 47.2555809 3.71231627 -19.5829582
v 47.1035767 3.71231627 -19.5829582
v 47.1035767 3.71231627 -21.6040039
v 47.2555809 3.71231627 -21.6040039
v 47.2555809 0.0123162838 -21.6040039
v 47.1035767 0.0123162838 -21.6040039
v 47.1035767 4.01231623 -21.6040039
v 47.2555809 4.01231623 -21.6040039
v 47.2555809 3.71231627 -21.6040039
v 47.1035767 3.71231627 -21.6040039
v 47.1035767 3.71231627 -19.5829582
v 47.2555809 3.71231627 -19.5829582
v 47.2555809 4.01231623 -19.5829582
v 47.1035767 4.01231623 -19.5829582
vt 0.526855469 0.534667969
vt 0.506835938 0.958496094
vt 0.526855469 0.993652344
vt 0.506835938 0.672363281
vt 0.264648438 0.534667969
vt 0.280273438 0.672363281
vt 0.264648438 0.993652344
vt 0.280273438 0.958496094
vt 0.526855469 0.534667969
vt 0.299560547 0.534667969
vt 0.299560547 0.993652344
vt 0.526855469 0.993652344
vt 0.526855469 0.958496094
vt 0.299560547 0.958496094
vt 0.299560547 0.993652344
vt 0.526855469 0.993652344
vt 0.526855469 0.993652344
vt 0.506835938 0.958496094
vt 0.280273438 0.958496094
vt 0.264648438 0.993652344
vt 0.526855469 0.534667969
vt 0.264648438 0.534667969
vt 0.264648438 0.993652344
vt 0.526855469 0.993652344
vt 0.526855469 0.958496094
vt 0.264648438 0.958496094
vt 0.264648438 0.993652344
vt 0.526855469 0.993652344
vt 0.526855469 0.993652344
vt 0.526855469 0.958496094
vt 0.264648438 0.958496094
vt 0.264648438 0.993652344
vt 0.280273438 0.534667969
vt 0.264648438 0.534667969
vt 0.264648438 0.993652344
vt 0.280273438 0.993652344
vt 0.506835938 0.993652344
vt 0.526855469 0.993652344
vt 0.526855469 0.534667969
vt 0.506835938 0.534667969
vt 0.506835938 0.993652344
vt 0.526855469 0.993652344
vt 0.526855469 0.958496094
vt 0.506835938 0.958496094
vt 0.280273438 0.958496094
vt 0.264648438 0.958496094
vt 0.264648438 0.993652344
vt 0.280273438 0.993652344
vn -1 0 0
vn -1 0 0
vn -1 0 0
vn -1 0 0
vn -1 3.39746475E-06 0
vn -1 3.39746475E-06 0
vn -1 0 0
vn -1 0 0
vn -1 0 0
vn -1 0 0
vn -1 0 0
vn -1 0 0
vn -1 0 0
vn -1 0 0
vn -1 0 0
vn -1 0 0
vn -1 -1.43051147E-05 0
vn -1 -1.43051147E-05 0
vn -1 -1.43051147E-05 0
vn -1 -1.43051147E-05 0
vn -1 0 0
vn -1 0 0
vn -1 0 0
vn -1 0 0
vn -1 0 0
vn -1 0 0
vn -1 0 0
vn -1 0 0
vn -1 0 0
vn -1 0 0
vn -1 0 0
vn -1 0 0
vn -0 0 -1
vn -0 0 -1
vn -0 0 -1
vn -0 0 -1
vn -0 0 1
vn -0 0 1
vn -0 0 1
vn -0 0 1
vn -0 0 1
vn -0 0 1
vn -0 0 1
vn -0 0 1
vn -0 0 -1
vn -0 0 -1
vn -0 0 -1
vn -0 0 -1
g EnginePlatform_Wall_3_0
f 3/3/3 2/2/2 1/1/1
f 2/2/2 4/4/4 1/1/1
f 5/5/5 1/1/1 4/4/4
f 6/6/6 5/5/5 4/4/4
f 5/5/5 6/6/6 7/7/7
f 6/6/6 8/8/8 7/7/7
f 11/11/11 10/10/10 9/9/9
f 12/12/12 11/11/11 9/9/9
f 15/15/15 14/14/14 13/13/13
f 16/16/16 15/15/15 13/13/13
f 19/19/19 18/18/18 17/17/17
f 20/20/20 19/19/19 17/17/17
f 23/23/23 22/22/22 21/21/21
f 24/24/24 23/23/23 21/21/21
f 27/27/27 26/26/26 25/25/25
f 28/28/28 27/27/27 25/25/25
f 31/31/31 30/30/30 29/29/29
f 32/32/32 31/31/31 29/29/29
f 35/35/35 34/34/34 33/33/33
f 36/36/36 35/35/35 33/33/33
f 39/39/39 38/38/38 37/37/37
f 40/40/40 39/39/39 37/37/37
f 43/43/43 42/42/42 41/41/41
f 44/44/44 43/43/43 41/41/41
f 47/47/47 46/46/46 45/45/45
f 48/48/48 47/47/47 45/45/45
