g IS4_MDL_EscenarioPB_CordonMuseo_1
v 0.00766472798 0.0255306046 0.0147135919
v 0.0638878718 -0.0409907922 0.0177983083
v 0.053130731 -0.0670987666 0.0298147574
v -0.0024256038 -0.000564670539 0.026730651
v 0.0651940256 -0.04242092 -0.0147390747
v 0.00896874443 0.0241001695 -0.0178300478
v -0.000252599712 -0.00294878008 -0.027510833
v 0.0553060248 -0.0694826096 -0.0244206227
v 0.0445412435 -0.093167074 0.00389846787
v 0.0553060248 -0.0694826096 -0.0244206227
v -0.000252599712 -0.00294878008 -0.027510833
v -0.0103917597 -0.0266066156 0.00121414184
v 0.00896874443 0.0241001695 -0.0178300478
v 0.0651940256 -0.04242092 -0.0147390747
v 0.0638878718 -0.0409907922 0.0177983083
v 0.00766472798 0.0255306046 0.0147135919
v -0.0024256038 -0.000564670539 0.026730651
v 0.053130731 -0.0670987666 0.0298147574
v 0.0445412435 -0.093167074 0.00389846787
v -0.0103917597 -0.0266066156 0.00121414184
v 0.0638878718 -0.0409907922 0.0177983083
v 0.373541623 -0.1398011 0.0230223406
v 0.373592168 -0.165773079 0.0350539573
v 0.053130731 -0.0670987666 0.0298147574
v 0.0553060248 -0.0694826096 -0.0244206227
v 0.375798345 -0.168156505 -0.0191815663
v 0.374865711 -0.141231224 -0.00952146947
v 0.0651940256 -0.04242092 -0.0147390747
v 0.0651940256 -0.04242092 -0.0147390747
v 0.374865711 -0.141231224 -0.00952146947
v 0.373541623 -0.1398011 0.0230223406
v 0.0638878718 -0.0409907922 0.0177983083
v 0.053130731 -0.0670987666 0.0298147574
v 0.373592168 -0.165773079 0.0350539573
v 0.375149667 -0.191714019 0.00914576091
v 0.0445412435 -0.093167074 0.00389846787
v 0.0445412435 -0.093167074 0.00389846787
v 0.375149667 -0.191714019 0.00914576091
v 0.375798345 -0.168156505 -0.0191815663
v 0.0553060248 -0.0694826096 -0.0244206227
v 1.41324198 -0.0240194704 0.019700164
v 1.48069835 0.0323358141 0.0173086543
v 1.48075449 0.00636444055 0.0293403622
v 1.41329789 -0.0499911495 0.03173187
v 1.4154731 -0.052374877 -0.0225035083
v 1.48292983 0.00398040749 -0.0248951707
v 1.48199964 0.0309057608 -0.0152288815
v 1.41454542 -0.0254498292 -0.0128436275
v 1.41454542 -0.0254498292 -0.0128436275
v 1.48199964 0.0309057608 -0.0152288815
v 1.48069835 0.0323358141 0.0173086543
v 1.41324198 -0.0240194704 0.019700164
v 1.41329789 -0.0499911495 0.03173187
v 1.48075449 0.00636444055 0.0293403622
v 1.48229504 -0.0195764154 0.00343826297
v 1.41483843 -0.0759316981 0.00582977291
v 1.41483843 -0.0759316981 0.00582977291
v 1.48229504 -0.0195764154 0.00343826297
v 1.48292983 0.00398040749 -0.0248951707
v 1.4154731 -0.052374877 -0.0225035083
v 0.373541623 -0.1398011 0.0230223406
v 0.772739947 -0.185152277 0.025661163
v 0.772795141 -0.211124107 0.0376927182
v 0.373592168 -0.165773079 0.0350539573
v 0.374865711 -0.141231224 -0.00952146947
v 0.7740435 -0.18658264 -0.00688262936
v 0.772739947 -0.185152277 0.025661163
v 0.373541623 -0.1398011 0.0230223406
v 0.375798345 -0.168156505 -0.0191815663
v 0.774970591 -0.213507831 -0.0165426638
v 0.7740435 -0.18658264 -0.00688262936
v 0.374865711 -0.141231224 -0.00952146947
v 0.375149667 -0.191714019 0.00914576091
v 0.774338305 -0.237065122 0.0117845153
v 0.774970591 -0.213507831 -0.0165426638
v 0.375798345 -0.168156505 -0.0191815663
v 0.373592168 -0.165773079 0.0350539573
v 0.772795141 -0.211124107 0.0376927182
v 0.774338305 -0.237065122 0.0117845153
v 0.375149667 -0.191714019 0.00914576091
v 1.13431191 -0.130249023 0.0237284694
v 1.41324198 -0.0240194704 0.019700164
v 1.41329789 -0.0499911495 0.03173187
v 1.13435924 -0.156220704 0.0357661918
v 1.13563561 -0.131678775 -0.00880923774
v 1.41454542 -0.0254498292 -0.0128436275
v 1.41324198 -0.0240194704 0.019700164
v 1.13431191 -0.130249023 0.0237284694
v 1.13656795 -0.158604428 -0.0184754375
v 1.4154731 -0.052374877 -0.0225035083
v 1.41454542 -0.0254498292 -0.0128436275
v 1.13563561 -0.131678775 -0.00880923774
v 1.1359185 -0.182160944 0.00986424927
v 1.41483843 -0.0759316981 0.00582977291
v 1.4154731 -0.052374877 -0.0225035083
v 1.13656795 -0.158604428 -0.0184754375
v 1.13435924 -0.156220704 0.0357661918
v 1.41329789 -0.0499911495 0.03173187
v 1.41483843 -0.0759316981 0.00582977291
v 1.1359185 -0.182160944 0.00986424927
v 0.772739947 -0.185152277 0.025661163
v 1.13431191 -0.130249023 0.0237284694
v 1.13435924 -0.156220704 0.0357661918
v 0.772795141 -0.211124107 0.0376927182
v 0.7740435 -0.18658264 -0.00688262936
v 1.13563561 -0.131678775 -0.00880923774
v 1.13431191 -0.130249023 0.0237284694
v 0.772739947 -0.185152277 0.025661163
v 0.774970591 -0.213507831 -0.0165426638
v 1.13656795 -0.158604428 -0.0184754375
v 1.13563561 -0.131678775 -0.00880923774
v 0.7740435 -0.18658264 -0.00688262936
v 0.774338305 -0.237065122 0.0117845153
v 1.1359185 -0.182160944 0.00986424927
v 1.13656795 -0.158604428 -0.0184754375
v 0.774970591 -0.213507831 -0.0165426638
v 0.772795141 -0.211124107 0.0376927182
v 1.13435924 -0.156220704 0.0357661918
v 1.1359185 -0.182160944 0.00986424927
v 0.774338305 -0.237065122 0.0117845153
vt 0.625976562 0.33203125
vt 0.674316406 0.33203125
vt 0.674316406 0.325439453
vt 0.625976562 0.325439453
vt 0.674316406 0.339355469
vt 0.625976562 0.339355469
vt 0.625976562 0.345458984
vt 0.674316406 0.345458984
vt 0.674316406 0.354248047
vt 0.674316406 0.345458984
vt 0.625976562 0.345458984
vt 0.625976562 0.354248047
vt 0.625976562 0.339355469
vt 0.674316406 0.339355469
vt 0.674316406 0.33203125
vt 0.625976562 0.33203125
vt 0.625976562 0.325439453
vt 0.674316406 0.325439453
vt 0.674316406 0.316650391
vt 0.625976562 0.316650391
vt 0.625976562 0.33203125
vt 0.787597656 0.33203125
vt 0.787597656 0.325439453
vt 0.625976562 0.325439453
vt 0.625976562 0.345458984
vt 0.787597656 0.345458984
vt 0.787597656 0.339355469
vt 0.625976562 0.339355469
vt 0.625976562 0.339355469
vt 0.787597656 0.339355469
vt 0.787597656 0.33203125
vt 0.625976562 0.33203125
vt 0.625976562 0.325439453
vt 0.787597656 0.325439453
vt 0.787597656 0.316650391
vt 0.625976562 0.316650391
vt 0.625976562 0.354248047
vt 0.787597656 0.354248047
vt 0.787597656 0.345458984
vt 0.625976562 0.345458984
vt 0.625976562 0.33203125
vt 0.674316406 0.33203125
vt 0.674316406 0.325439453
vt 0.625976562 0.325439453
vt 0.625976562 0.345458984
vt 0.674316406 0.345458984
vt 0.674316406 0.339355469
vt 0.625976562 0.339355469
vt 0.625976562 0.339355469
vt 0.674316406 0.339355469
vt 0.674316406 0.33203125
vt 0.625976562 0.33203125
vt 0.625976562 0.325439453
vt 0.674316406 0.325439453
vt 0.674316406 0.316650391
vt 0.625976562 0.316650391
vt 0.625976562 0.354248047
vt 0.674316406 0.354248047
vt 0.674316406 0.345458984
vt 0.625976562 0.345458984
vt 0.625976562 0.33203125
vt 0.787597656 0.33203125
vt 0.787597656 0.325439453
vt 0.625976562 0.325439453
vt 0.625976562 0.339355469
vt 0.787597656 0.339355469
vt 0.787597656 0.33203125
vt 0.625976562 0.33203125
vt 0.625976562 0.345458984
vt 0.787597656 0.345458984
vt 0.787597656 0.339355469
vt 0.625976562 0.339355469
vt 0.625976562 0.354248047
vt 0.787597656 0.354248047
vt 0.787597656 0.345458984
vt 0.625976562 0.345458984
vt 0.625976562 0.325439453
vt 0.787597656 0.325439453
vt 0.787597656 0.316650391
vt 0.625976562 0.316650391
vt 0.625976562 0.33203125
vt 0.787597656 0.33203125
vt 0.787597656 0.325439453
vt 0.625976562 0.325439453
vt 0.625976562 0.339355469
vt 0.787597656 0.339355469
vt 0.787597656 0.33203125
vt 0.625976562 0.33203125
vt 0.625976562 0.345458984
vt 0.787597656 0.345458984
vt 0.787597656 0.339355469
vt 0.625976562 0.339355469
vt 0.625976562 0.354248047
vt 0.787597656 0.354248047
vt 0.787597656 0.345458984
vt 0.625976562 0.345458984
vt 0.625976562 0.325439453
vt 0.787597656 0.325439453
vt 0.787597656 0.316650391
vt 0.625976562 0.316650391
vt 0.625976562 0.33203125
vt 0.787597656 0.33203125
vt 0.787597656 0.325439453
vt 0.625976562 0.325439453
vt 0.625976562 0.339355469
vt 0.787597656 0.339355469
vt 0.787597656 0.33203125
vt 0.625976562 0.33203125
vt 0.625976562 0.345458984
vt 0.787597656 0.345458984
vt 0.787597656 0.339355469
vt 0.625976562 0.339355469
vt 0.625976562 0.354248047
vt 0.787597656 0.354248047
vt 0.787597656 0.345458984
vt 0.625976562 0.345458984
vt 0.625976562 0.325439453
vt 0.787597656 0.325439453
vt 0.787597656 0.316650391
vt 0.625976562 0.316650391
vn 0.692382812 0.603027344 0.396728516
vn 0.342285156 0.770507812 0.537597656
vn -0.153442383 -0.274902344 0.94921875
vn -0.0953369141 -0.0318908691 0.995117188
vn 0.349853516 0.740722656 -0.573730469
vn 0.713378906 0.584472656 -0.38671875
vn -0.10723877 -0.131591797 -0.985351562
vn -0.149414062 -0.362548828 -0.919921875
vn -0.380859375 -0.923828125 0.0352172852
vn -0.149414062 -0.362548828 -0.919921875
vn -0.10723877 -0.131591797 -0.985351562
vn -0.76953125 -0.638671875 0.0094833374
vn 0.713378906 0.584472656 -0.38671875
vn 0.349853516 0.740722656 -0.573730469
vn 0.342285156 0.770507812 0.537597656
vn 0.692382812 0.603027344 0.396728516
vn -0.0953369141 -0.0318908691 0.995117188
vn -0.153442383 -0.274902344 0.94921875
vn -0.380859375 -0.923828125 0.0352172852
vn -0.76953125 -0.638671875 0.0094833374
vn 0.342285156 0.770507812 0.537597656
vn 0.169921875 0.845214844 0.506835938
vn -0.0726928711 -0.277832031 0.958007812
vn -0.153442383 -0.274902344 0.94921875
vn -0.149414062 -0.362548828 -0.919921875
vn -0.0681152344 -0.364746094 -0.928710938
vn 0.171264648 0.805664062 -0.567382812
vn 0.349853516 0.740722656 -0.573730469
vn 0.349853516 0.740722656 -0.573730469
vn 0.171264648 0.805664062 -0.567382812
vn 0.169921875 0.845214844 0.506835938
vn 0.342285156 0.770507812 0.537597656
vn -0.153442383 -0.274902344 0.94921875
vn -0.0726928711 -0.277832031 0.958007812
vn -0.186523438 -0.981933594 0.0371704102
vn -0.380859375 -0.923828125 0.0352172852
vn -0.380859375 -0.923828125 0.0352172852
vn -0.186523438 -0.981933594 0.0371704102
vn -0.0681152344 -0.364746094 -0.928710938
vn -0.149414062 -0.362548828 -0.919921875
vn -0.387939453 0.827636719 0.405761719
vn -0.6171875 0.749023438 0.241088867
vn 0.067199707 -0.0381469727 0.997070312
vn 0.136474609 -0.204833984 0.969238281
vn 0.14440918 -0.292236328 -0.9453125
vn 0.0661010742 -0.12109375 -0.990234375
vn -0.604492188 0.708007812 -0.365234375
vn -0.381103516 0.770019531 -0.51171875
vn -0.381103516 0.770019531 -0.51171875
vn -0.604492188 0.708007812 -0.365234375
vn -0.6171875 0.749023438 0.241088867
vn -0.387939453 0.827636719 0.405761719
vn 0.136474609 -0.204833984 0.969238281
vn 0.067199707 -0.0381469727 0.997070312
vn 0.641601562 -0.765625 0.0511474609
vn 0.403564453 -0.913574219 0.0480957031
vn 0.403564453 -0.913574219 0.0480957031
vn 0.641601562 -0.765625 0.0511474609
vn 0.0661010742 -0.12109375 -0.990234375
vn 0.14440918 -0.292236328 -0.9453125
vn 0.169921875 0.845214844 0.506835938
vn -0.00958251953 0.863769531 0.503417969
vn 0.001953125 -0.302246094 0.953125
vn -0.0726928711 -0.277832031 0.958007812
vn 0.171264648 0.805664062 -0.567382812
vn -0.0114364624 0.815429688 -0.579101562
vn -0.00958251953 0.863769531 0.503417969
vn 0.169921875 0.845214844 0.506835938
vn -0.0681152344 -0.364746094 -0.928710938
vn 0.00672149658 -0.389160156 -0.920898438
vn -0.0114364624 0.815429688 -0.579101562
vn 0.171264648 0.805664062 -0.567382812
vn -0.186523438 -0.981933594 0.0371704102
vn 0.0124816895 -0.999023438 0.0434875488
vn 0.00672149658 -0.389160156 -0.920898438
vn -0.0681152344 -0.364746094 -0.928710938
vn -0.0726928711 -0.277832031 0.958007812
vn 0.001953125 -0.302246094 0.953125
vn 0.0124816895 -0.999023438 0.0434875488
vn -0.186523438 -0.981933594 0.0371704102
vn -0.211914062 0.852539062 0.477783203
vn -0.387939453 0.827636719 0.405761719
vn 0.136474609 -0.204833984 0.969238281
vn 0.0874023438 -0.280029297 0.956054688
vn -0.210449219 0.796875 -0.565917969
vn -0.381103516 0.770019531 -0.51171875
vn -0.387939453 0.827636719 0.405761719
vn -0.211914062 0.852539062 0.477783203
vn 0.0939941406 -0.368896484 -0.924804688
vn 0.14440918 -0.292236328 -0.9453125
vn -0.381103516 0.770019531 -0.51171875
vn -0.210449219 0.796875 -0.565917969
vn 0.233276367 -0.971191406 0.0494689941
vn 0.403564453 -0.913574219 0.0480957031
vn 0.14440918 -0.292236328 -0.9453125
vn 0.0939941406 -0.368896484 -0.924804688
vn 0.0874023438 -0.280029297 0.956054688
vn 0.136474609 -0.204833984 0.969238281
vn 0.403564453 -0.913574219 0.0480957031
vn 0.233276367 -0.971191406 0.0494689941
vn -0.00958251953 0.863769531 0.503417969
vn -0.211914062 0.852539062 0.477783203
vn 0.0874023438 -0.280029297 0.956054688
vn 0.001953125 -0.302246094 0.953125
vn -0.0114364624 0.815429688 -0.579101562
vn -0.210449219 0.796875 -0.565917969
vn -0.211914062 0.852539062 0.477783203
vn -0.00958251953 0.863769531 0.503417969
vn 0.00672149658 -0.389160156 -0.920898438
vn 0.0939941406 -0.368896484 -0.924804688
vn -0.210449219 0.796875 -0.565917969
vn -0.0114364624 0.815429688 -0.579101562
vn 0.0124816895 -0.999023438 0.0434875488
vn 0.233276367 -0.971191406 0.0494689941
vn 0.0939941406 -0.368896484 -0.924804688
vn 0.00672149658 -0.389160156 -0.920898438
vn 0.001953125 -0.302246094 0.953125
vn 0.0874023438 -0.280029297 0.956054688
vn 0.233276367 -0.971191406 0.0494689941
vn 0.0124816895 -0.999023438 0.0434875488
g IS4_MDL_EscenarioPB_CordonMuseo_1_0
f 3/3/3 2/2/2 1/1/1
f 4/4/4 3/3/3 1/1/1
f 7/7/7 6/6/6 5/5/5
f 8/8/8 7/7/7 5/5/5
f 11/11/11 10/10/10 9/9/9
f 12/12/12 11/11/11 9/9/9
f 15/15/15 14/14/14 13/13/13
f 16/16/16 15/15/15 13/13/13
f 19/19/19 18/18/18 17/17/17
f 20/20/20 19/19/19 17/17/17
f 23/23/23 22/22/22 21/21/21
f 24/24/24 23/23/23 21/21/21
f 27/27/27 26/26/26 25/25/25
f 28/28/28 27/27/27 25/25/25
f 31/31/31 30/30/30 29/29/29
f 32/32/32 31/31/31 29/29/29
f 35/35/35 34/34/34 33/33/33
f 36/36/36 35/35/35 33/33/33
f 39/39/39 38/38/38 37/37/37
f 40/40/40 39/39/39 37/37/37
f 43/43/43 42/42/42 41/41/41
f 44/44/44 43/43/43 41/41/41
f 47/47/47 46/46/46 45/45/45
f 48/48/48 47/47/47 45/45/45
f 51/51/51 50/50/50 49/49/49
f 52/52/52 51/51/51 49/49/49
f 55/55/55 54/54/54 53/53/53
f 56/56/56 55/55/55 53/53/53
f 59/59/59 58/58/58 57/57/57
f 60/60/60 59/59/59 57/57/57
f 63/63/63 62/62/62 61/61/61
f 64/64/64 63/63/63 61/61/61
f 67/67/67 66/66/66 65/65/65
f 68/68/68 67/67/67 65/65/65
f 71/71/71 70/70/70 69/69/69
f 72/72/72 71/71/71 69/69/69
f 75/75/75 74/74/74 73/73/73
f 76/76/76 75/75/75 73/73/73
f 79/79/79 78/78/78 77/77/77
f 80/80/80 79/79/79 77/77/77
f 83/83/83 82/82/82 81/81/81
f 84/84/84 83/83/83 81/81/81
f 87/87/87 86/86/86 85/85/85
f 88/88/88 87/87/87 85/85/85
f 91/91/91 90/90/90 89/89/89
f 92/92/92 91/91/91 89/89/89
f 95/95/95 94/94/94 93/93/93
f 96/96/96 95/95/95 93/93/93
f 99/99/99 98/98/98 97/97/97
f 100/100/100 99/99/99 97/97/97
f 103/103/103 102/102/102 101/101/101
f 104/104/104 103/103/103 101/101/101
f 107/107/107 106/106/106 105/105/105
f 108/108/108 107/107/107 105/105/105
f 111/111/111 110/110/110 109/109/109
f 112/112/112 111/111/111 109/109/109
f 115/115/115 114/114/114 113/113/113
f 116/116/116 115/115/115 113/113/113
f 119/119/119 118/118/118 117/117/117
f 120/120/120 119/119/119 117/117/117
