g IS4_MDL_EscenarioPB_ColgadorPercha_9
v -0.0362778232 -0.0236723926 0.0294143818
v -0.0265073143 -0.0236723926 0.0294143818
v -0.0265073143 -0.00183233432 0.0150601324
v -0.0362778232 -0.00183233432 0.0150601324
v -0.0265073143 0.00657068053 2.10705657E-05
v -0.0362778232 0.00657068053 2.10705657E-05
v -0.0265073143 -0.0127799045 0.0350198485
v -0.0362778232 -0.0127799045 0.0350198485
v -0.0362778232 0.00918573141 0.0204104744
v -0.0265073143 0.00918573141 0.0204104744
v -0.0362778232 0.0188149437 0.000365308864
v -0.0265073143 0.0188149437 0.000365308864
v -0.0362778232 0.00657068053 2.10705657E-05
v -0.0265073143 0.00657068053 2.10705657E-05
v -0.0265073143 0.000255983527 -0.0186788812
v -0.0362778232 0.000255983527 -0.0186788812
v -0.0265073143 -0.021533262 -0.0297286846
v -0.0362778232 -0.021533262 -0.0297286846
v -0.0265073143 0.0188149437 0.000365308864
v -0.0362778232 0.0188149437 0.000365308864
v -0.0362778232 0.00936960056 -0.0268636942
v -0.0265073143 0.00936960056 -0.0268636942
v -0.0362778232 -0.0112546356 -0.0363912806
v -0.0265073143 -0.0112546356 -0.0363912806
v -0.0265073143 -0.0236723926 0.0294143818
v -0.0362778232 -0.0236723926 0.0294143818
v -0.0362778232 -0.0668161586 0.0910757557
v -0.0265073143 -0.0668161586 0.0910757557
v -0.0362778232 -0.0236723926 0.0294143818
v -0.036282707 -0.0562056527 0.0954629555
v -0.0362778232 -0.0668161586 0.0910757557
v -0.0362778232 -0.0127799045 0.0350198485
v -0.0362778232 -0.00183233432 0.0150601324
v -0.0362778232 0.00918573141 0.0204104744
v -0.0362778232 0.00657068053 2.10705657E-05
v -0.0362778232 0.0188149437 0.000365308864
v -0.0362778232 0.000255983527 -0.0186788812
v -0.0362778232 0.00936960056 -0.0268636942
v -0.0362778232 -0.021533262 -0.0297286846
v -0.0362778232 -0.0112546356 -0.0363912806
v -0.0362778232 -0.0612467006 -0.0902999789
v -0.0362778232 -0.0512222834 -0.0991732702
v -0.0265073143 -0.0127799045 0.0350198485
v -0.0265073143 -0.0668161586 0.0910757557
v -0.0265121982 -0.0562056527 0.0954629555
v -0.0265073143 -0.0236723926 0.0294143818
v -0.0265073143 0.00918573141 0.0204104744
v -0.0265073143 -0.00183233432 0.0150601324
v -0.0265073143 0.0188149437 0.000365308864
v -0.0265073143 0.00657068053 2.10705657E-05
v -0.0265073143 0.00936960056 -0.0268636942
v -0.0265073143 0.000255983527 -0.0186788812
v -0.0265073143 -0.0112546356 -0.0363912806
v -0.0265073143 -0.021533262 -0.0297286846
v -0.0265073143 -0.0512222834 -0.0991732702
v -0.0265073143 -0.0612467006 -0.0902999789
v -0.0362778232 -0.0127799045 0.0350198485
v -0.0265073143 -0.0127799045 0.0350198485
v -0.0265121982 -0.0562056527 0.0954629555
v -0.036282707 -0.0562056527 0.0954629555
v -0.0362778232 -0.021533262 -0.0297286846
v -0.0265073143 -0.021533262 -0.0297286846
v -0.0265073143 -0.0612467006 -0.0902999789
v -0.0362778232 -0.0612467006 -0.0902999789
v -0.0265073143 -0.0112546356 -0.0363912806
v -0.0362778232 -0.0112546356 -0.0363912806
v -0.0362778232 -0.0512222834 -0.0991732702
v -0.0265073143 -0.0512222834 -0.0991732702
vt 0.369140625 0.5390625
vt 0.389404297 0.5390625
vt 0.389404297 0.551269531
vt 0.369140625 0.551269531
vt 0.389404297 0.559570312
vt 0.369140625 0.559570312
vt 0.389404297 0.584960938
vt 0.369140625 0.584960938
vt 0.369140625 0.572753906
vt 0.389404297 0.572753906
vt 0.369140625 0.562011719
vt 0.389404297 0.562011719
vt 0.369140625 0.559570312
vt 0.389404297 0.559570312
vt 0.389404297 0.568847656
vt 0.369140625 0.568847656
vt 0.389404297 0.580078125
vt 0.369140625 0.580078125
vt 0.389404297 0.562011719
vt 0.369140625 0.562011719
vt 0.369140625 0.548339844
vt 0.389404297 0.548339844
vt 0.369140625 0.537597656
vt 0.389404297 0.537597656
vt 0.389404297 0.5390625
vt 0.369140625 0.5390625
vt 0.369140625 0.503417969
vt 0.389404297 0.503417969
vt 0.389404297 0.547851562
vt 0.369140625 0.502929688
vt 0.389404297 0.502929688
vt 0.369140625 0.547851562
vt 0.389404297 0.573242188
vt 0.369140625 0.573242188
vt 0.389404297 0.588867188
vt 0.369140625 0.588867188
vt 0.389404297 0.614746094
vt 0.369140625 0.614746094
vt 0.389404297 0.640136719
vt 0.369140625 0.640136719
vt 0.389404297 0.680664062
vt 0.369140625 0.680664062
vt 0.369140625 0.640136719
vt 0.389404297 0.680664062
vt 0.369140625 0.680664062
vt 0.389404297 0.640136719
vt 0.369140625 0.614746094
vt 0.389404297 0.614746094
vt 0.369140625 0.588867188
vt 0.389404297 0.588867188
vt 0.369140625 0.573242188
vt 0.389404297 0.573242188
vt 0.369140625 0.547851562
vt 0.389404297 0.547851562
vt 0.369140625 0.502929688
vt 0.389404297 0.502929688
vt 0.369140625 0.584960938
vt 0.389404297 0.584960938
vt 0.389404297 0.620117188
vt 0.369140625 0.620117188
vt 0.369140625 0.580078125
vt 0.389404297 0.580078125
vt 0.389404297 0.614257812
vt 0.369140625 0.614257812
vt 0.389404297 0.537597656
vt 0.369140625 0.537597656
vt 0.369140625 0.502441406
vt 0.389404297 0.502441406
vn -0 -0.549316406 -0.835449219
vn -0 -0.549316406 -0.835449219
vn -0 -0.696777344 -0.717285156
vn -0 -0.696777344 -0.717285156
vn -0 -0.998046875 -0.0617675781
vn -0 -0.998046875 -0.0617675781
vn -0 0.553710938 0.833007812
vn -0 0.553710938 0.833007812
vn -0 0.738769531 0.673828125
vn -0 0.738769531 0.673828125
vn -0 1 0.00388908386
vn -0 1 0.00388908386
vn -0 -0.998046875 -0.0617675781
vn -0 -0.998046875 -0.0617675781
vn -0 -0.727050781 0.686523438
vn -0 -0.727050781 0.686523438
vn -0 -0.452392578 0.891601562
vn -0 -0.452392578 0.891601562
vn -0 1 0.00388908386
vn -0 1 0.00388908386
vn -0 0.773925781 -0.633300781
vn -0 0.773925781 -0.633300781
vn -0 0.419189453 -0.907714844
vn -0 0.419189453 -0.907714844
vn -0 -0.819335938 -0.573242188
vn -0 -0.819335938 -0.573242188
vn -0 -0.819335938 -0.573242188
vn -0 -0.819335938 -0.573242188
vn -1 0 0
vn -1 -0.000111937523 -0.000151157379
vn -1 -0.000111937523 -0.000151157379
vn -1 0 0
vn -1 -3.95178795E-05 0
vn -1 -5.8889389E-05 0
vn -1 6.71744347E-05 0
vn -1 7.635355E-05 0
vn -1 0.000206112862 0
vn -1 0.000206112862 0
vn -1 0.000189900398 0
vn -1 0.000189900398 0
vn -1 -0.000469684601 0
vn -1 -0.000469684601 0
vn 1 0.000175237656 0
vn 1 0 0.000151157379
vn 1 0 0.000151157379
vn 1 0.000175237656 0
vn 1 0.000195980072 0
vn 1 0.000189185143 0
vn 1 5.69820404E-05 0
vn 1 6.47902489E-05 0
vn 1 -3.44514847E-05 0
vn 1 -3.46302986E-05 0
vn 1 0 0
vn 1 0 0
vn 1 0.000208735466 0
vn 1 0.000208735466 0
vn -0 0.812011719 0.583496094
vn -0 0.812011719 0.583496094
vn -0 0.812011719 0.583496094
vn -0 0.812011719 0.583496094
vn -0 -0.836425781 0.548339844
vn -0 -0.836425781 0.548339844
vn -0 -0.836425781 0.548339844
vn -0 -0.836425781 0.548339844
vn -0 0.84375 -0.536621094
vn -0 0.84375 -0.536621094
vn -0 0.84375 -0.536621094
vn -0 0.84375 -0.536621094
g IS4_MDL_EscenarioPB_ColgadorPercha_9_0
f 3/3/3 2/2/2 1/1/1
f 4/4/4 3/3/3 1/1/1
f 5/5/5 3/3/3 4/4/4
f 6/6/6 5/5/5 4/4/4
f 9/9/9 8/8/8 7/7/7
f 10/10/10 9/9/9 7/7/7
f 11/11/11 9/9/9 10/10/10
f 12/12/12 11/11/11 10/10/10
f 15/15/15 14/14/14 13/13/13
f 16/16/16 15/15/15 13/13/13
f 17/17/17 15/15/15 16/16/16
f 18/18/18 17/17/17 16/16/16
f 21/21/21 20/20/20 19/19/19
f 22/22/22 21/21/21 19/19/19
f 23/23/23 21/21/21 22/22/22
f 24/24/24 23/23/23 22/22/22
f 27/27/27 26/26/26 25/25/25
f 28/28/28 27/27/27 25/25/25
f 31/31/31 30/30/30 29/29/29
f 30/30/30 32/32/32 29/29/29
f 33/33/33 29/29/29 32/32/32
f 34/34/34 33/33/33 32/32/32
f 35/35/35 33/33/33 34/34/34
f 36/36/36 35/35/35 34/34/34
f 37/37/37 35/35/35 36/36/36
f 38/38/38 37/37/37 36/36/36
f 39/39/39 37/37/37 38/38/38
f 40/40/40 39/39/39 38/38/38
f 41/41/41 39/39/39 40/40/40
f 42/42/42 41/41/41 40/40/40
f 45/45/45 44/44/44 43/43/43
f 44/44/44 46/46/46 43/43/43
f 47/47/47 43/43/43 46/46/46
f 48/48/48 47/47/47 46/46/46
f 49/49/49 47/47/47 48/48/48
f 50/50/50 49/49/49 48/48/48
f 51/51/51 49/49/49 50/50/50
f 52/52/52 51/51/51 50/50/50
f 53/53/53 51/51/51 52/52/52
f 54/54/54 53/53/53 52/52/52
f 55/55/55 53/53/53 54/54/54
f 56/56/56 55/55/55 54/54/54
f 59/59/59 58/58/58 57/57/57
f 60/60/60 59/59/59 57/57/57
f 63/63/63 62/62/62 61/61/61
f 64/64/64 63/63/63 61/61/61
f 67/67/67 66/66/66 65/65/65
f 68/68/68 67/67/67 65/65/65
