g BlueCeilingLampOff
v 0.00817626901 -0.0105938716 -4.57763662E-07
v -0 -0.0105938716 -0.00817672722
v -0 -0.894439042 -0.00950851385
v 0.00950927753 -0.894439042 -4.57763662E-07
v -0 -0.0105938716 -0.00817672722
v -0.00817626901 -0.0105938716 -4.57763662E-07
v -0.00950927753 -0.894439042 -4.57763662E-07
v -0 -0.894439042 -0.00950851385
v -0.00817626901 -0.0105938716 -4.57763662E-07
v -0 -0.0105938716 0.00817642175
v -0 -0.894439042 0.00950881932
v -0.00950927753 -0.894439042 -4.57763662E-07
v -0 -0.0105938716 0.00817642175
v 0.00817626901 -0.0105938716 -4.57763662E-07
v 0.00950927753 -0.894439042 -4.57763662E-07
v -0 -0.894439042 0.00950881932
v 0.0650341809 0 -0.0650340244
v 0.0650341809 -0.0125079341 -0.0650340244
v 0.0650341809 -0.0125079341 0.0650337189
v 0.0650341809 0 0.0650337189
v -0.0650341809 0 -0.0650340244
v -0.0650341809 -0.0125079341 -0.0650340244
v 0.0650341809 -0.0125079341 -0.0650340244
v 0.0650341809 0 -0.0650340244
v -0.0650341809 0 0.0650337189
v -0.0650341809 -0.0125079341 0.0650337189
v -0.0650341809 -0.0125079341 -0.0650340244
v -0.0650341809 0 -0.0650340244
v 0.0650341809 0 0.0650337189
v 0.0650341809 -0.0125079341 0.0650337189
v -0.0650341809 -0.0125079341 0.0650337189
v -0.0650341809 0 0.0650337189
v 0.0650341809 -0.0125079341 -0.0650340244
v -0.0650341809 -0.0125079341 -0.0650340244
v -0.0650341809 -0.0125079341 0.0650337189
v 0.0650341809 -0.0125079341 0.0650337189
v 0.0410864241 -0.900762916 -0.0410856605
v -0 -0.900762916 -0.0581040941
v -0 -0.949764371 -0.06757126
v 0.0477807596 -0.949764371 -0.0477806069
v 0.058103025 -0.900762916 -4.57763662E-07
v 0.0675707981 -0.949764371 -4.57763662E-07
v 0.0410864241 -0.900762916 0.0410859659
v 0.0477807596 -0.949764371 0.0477803014
v -0 -0.900762916 -0.0581040941
v -0.0410864241 -0.900762916 -0.0410856605
v -0.0477807596 -0.949764371 -0.0477806069
v -0 -0.949764371 -0.06757126
v -0.0410864241 -0.900762916 -0.0410856605
v -0.0675732419 -0.949764371 -4.57763662E-07
v -0.0477807596 -0.949764371 -0.0477806069
v -0.058103025 -0.900762916 -4.57763662E-07
v -0.0477807596 -0.949764371 0.0477803014
v -0.0410864241 -0.900762916 0.0410859659
v -0 -0.949764371 0.0675715655
v -0 -0.900762916 0.0581043996
v -0 -0.900762916 0.0581043996
v 0.0410864241 -0.900762916 0.0410859659
v 0.0477807596 -0.949764371 0.0477803014
v -0 -0.949764371 0.0675715655
v -0 -1.15211546 -0.148199916
v -0 -0.982984602 -4.57763662E-07
v 0.104792476 -1.15211546 -0.104792938
v 0.148198232 -1.15211546 -4.57763662E-07
v 0.104792476 -1.15211546 0.104793243
v -0.104792476 -1.15211546 -0.104792938
v -0 -0.982984602 -4.57763662E-07
v -0 -1.15211546 -0.148199916
v -0.148200676 -1.15211546 -4.57763662E-07
v -0.104792476 -1.15211546 0.104793243
v -0 -0.982984602 -4.57763662E-07
v -0.148200676 -1.15211546 -4.57763662E-07
v -0 -1.15211546 0.148199618
v 0.104792476 -1.15211546 0.104793243
v 0.107006833 -1.02085567 -0.107006684
v 0.0877050757 -0.941212118 -4.57763662E-07
v 0.0620165989 -0.941212118 -0.0620164461
v 0.15133056 -1.02085567 -4.57763662E-07
v 0.0620165989 -0.941212118 0.0620167516
v 0.107006833 -1.02085567 0.107006989
v 0.112556152 -1.15211546 0.112558134
v 0.159182131 -1.15211546 -4.57763662E-07
v 0.112556152 -1.15211546 -0.112557828
v 0.0620165989 -0.941212118 -0.0620164461
v -0 -0.941212118 -0.0877049267
v -0 -1.02085567 -0.1513298
v 0.107006833 -1.02085567 -0.107006684
v 0.112556152 -1.15211546 -0.112557828
v -0 -1.15211546 -0.159180745
v -0 -0.941212118 -0.0877049267
v -0.0620165989 -0.941212118 -0.0620164461
v -0.107006833 -1.02085567 -0.107006684
v -0 -1.02085567 -0.1513298
v -0.0620165989 -0.941212118 -0.0620164461
v -0.0877050757 -0.941212118 -4.57763662E-07
v -0.15133056 -1.02085567 -4.57763662E-07
v -0.107006833 -1.02085567 -0.107006684
v -0.112556152 -1.15211546 -0.112557828
v -0.159182131 -1.15211546 -4.57763662E-07
v -0 -1.15211546 -0.159180745
v -0 -1.02085567 -0.1513298
v -0.0877050757 -0.941212118 -4.57763662E-07
v -0.107006833 -1.02085567 0.107006989
v -0.15133056 -1.02085567 -4.57763662E-07
v -0.0620165989 -0.941212118 0.0620167516
v -0 -0.92668885 -4.57763662E-07
v -0.0620165989 -0.941212118 -0.0620164461
v -0 -0.941212118 -0.0877049267
v -0 -0.941212118 0.0877052322
v -0 -1.02085567 0.151330099
v -0.0620165989 -0.941212118 0.0620167516
v -0 -1.02085567 0.151330099
v -0.107006833 -1.02085567 0.107006989
v -0.112556152 -1.15211546 0.112558134
v -0 -1.15211546 0.159181058
v -0.159182131 -1.15211546 -4.57763662E-07
v -0.15133056 -1.02085567 -4.57763662E-07
v -0 -0.941212118 0.0877052322
v 0.107006833 -1.02085567 0.107006989
v -0 -1.02085567 0.151330099
v 0.0620165989 -0.941212118 0.0620167516
v -0 -0.92668885 -4.57763662E-07
v 0.0877050757 -0.941212118 -4.57763662E-07
v 0.0620165989 -0.941212118 -0.0620164461
v -0 -0.941212118 -0.0877049267
v -0 -1.15211546 0.159181058
v -0 -1.02085567 0.151330099
v 0.107006833 -1.02085567 0.107006989
v 0.112556152 -1.15211546 0.112558134
v -0 -1.15211546 -0.159180745
v -0 -1.15211546 -0.148199916
v 0.104792476 -1.15211546 -0.104792938
v 0.112556152 -1.15211546 -0.112557828
v 0.148198232 -1.15211546 -4.57763662E-07
v 0.159182131 -1.15211546 -4.57763662E-07
v 0.104792476 -1.15211546 0.104793243
v 0.112556152 -1.15211546 0.112558134
v -0 -1.15211546 0.148199618
v -0 -1.15211546 0.159181058
v -0.112556152 -1.15211546 -0.112557828
v -0 -1.15211546 -0.148199916
v -0 -1.15211546 -0.159180745
v -0.104792476 -1.15211546 -0.104792938
v -0.159182131 -1.15211546 -4.57763662E-07
v -0.148200676 -1.15211546 -4.57763662E-07
v -0.112556152 -1.15211546 0.112558134
v -0.104792476 -1.15211546 0.104793243
v -0 -1.15211546 0.159181058
v -0 -1.15211546 0.148199618
v 0.0410864241 -0.900762916 0.0410859659
v -0 -0.891827345 -4.57763662E-07
v 0.058103025 -0.900762916 -4.57763662E-07
v -0 -0.900762916 0.0581043996
v 0.0410864241 -0.900762916 -0.0410856605
v -0.0410864241 -0.900762916 0.0410859659
v -0 -0.900762916 -0.0581040941
v -0.058103025 -0.900762916 -4.57763662E-07
v -0.0410864241 -0.900762916 -0.0410856605
vt 0.551757812 0.992675781
vt 0.553710938 0.992675781
vt 0.554199219 0.784179688
vt 0.551757812 0.784179688
vt 0.553710938 0.992675781
vt 0.551757812 0.992675781
vt 0.551757812 0.784179688
vt 0.554199219 0.784179688
vt 0.551757812 0.992675781
vt 0.549316406 0.992675781
vt 0.549316406 0.784179688
vt 0.551757812 0.784179688
vt 0.549316406 0.992675781
vt 0.551757812 0.992675781
vt 0.551757812 0.784179688
vt 0.549316406 0.784179688
vt 0.836425781 0.996582031
vt 0.836425781 0.994628906
vt 0.818359375 0.994628906
vt 0.818359375 0.996582031
vt 0.838378906 0.9765625
vt 0.836425781 0.9765625
vt 0.836425781 0.994628906
vt 0.838378906 0.994628906
vt 0.818359375 0.974609375
vt 0.818359375 0.9765625
vt 0.836425781 0.9765625
vt 0.836425781 0.974609375
vt 0.81640625 0.994628906
vt 0.818359375 0.994628906
vt 0.818359375 0.9765625
vt 0.81640625 0.9765625
vt 0.836425781 0.994628906
vt 0.836425781 0.9765625
vt 0.818359375 0.9765625
vt 0.818359375 0.994628906
vt 0.885253906 0.880371094
vt 0.887695312 0.887207031
vt 0.895507812 0.888671875
vt 0.892089844 0.875488281
vt 0.878417969 0.876953125
vt 0.879882812 0.869140625
vt 0.871582031 0.879394531
vt 0.866699219 0.872558594
vt 0.887695312 0.887207031
vt 0.884277344 0.894042969
vt 0.889160156 0.900390625
vt 0.895507812 0.888671875
vt 0.884277344 0.894042969
vt 0.875976562 0.904296875
vt 0.889160156 0.900390625
vt 0.877441406 0.896484375
vt 0.863769531 0.897949219
vt 0.870605469 0.893066406
vt 0.860351562 0.884765625
vt 0.868164062 0.886230469
vt 0.868164062 0.886230469
vt 0.871582031 0.879394531
vt 0.866699219 0.872558594
vt 0.860351562 0.884765625
vt 0.709960938 0.674804688
vt 0.677734375 0.686523438
vt 0.708984375 0.701171875
vt 0.689453125 0.719238281
vt 0.663085938 0.717773438
vt 0.692382812 0.655273438
vt 0.677734375 0.686523438
vt 0.709960938 0.674804688
vt 0.666015625 0.654296875
vt 0.646484375 0.671875
vt 0.677734375 0.686523438
vt 0.666015625 0.654296875
vt 0.645019531 0.698242188
vt 0.663085938 0.717773438
vt 0.865234375 0.972167969
vt 0.851074219 0.951171875
vt 0.848144531 0.963867188
vt 0.868652344 0.952148438
vt 0.849121094 0.938964844
vt 0.866699219 0.932128906
vt 0.890136719 0.929199219
vt 0.892578125 0.951660156
vt 0.890136719 0.975097656
vt 0.848144531 0.963867188
vt 0.83984375 0.973632812
vt 0.857421875 0.990722656
vt 0.865234375 0.972167969
vt 0.890136719 0.975097656
vt 0.886230469 0.998535156
vt 0.841796875 0.928710938
vt 0.849121094 0.938964844
vt 0.866699219 0.932128906
vt 0.858886719 0.911132812
vt 0.849121094 0.938964844
vt 0.851074219 0.951171875
vt 0.868652344 0.952148438
vt 0.866699219 0.932128906
vt 0.890136719 0.928710938
vt 0.892578125 0.951660156
vt 0.888183594 0.907714844
vt 0.858886719 0.911132812
vt 0.851074219 0.951171875
vt 0.865234375 0.972167969
vt 0.868652344 0.952148438
vt 0.848144531 0.963867188
vt 0.834472656 0.950683594
vt 0.849121094 0.938964844
vt 0.841796875 0.928710938
vt 0.83984375 0.973632812
vt 0.857910156 0.990722656
vt 0.848144531 0.963867188
vt 0.857910156 0.990722656
vt 0.865234375 0.972167969
vt 0.890136719 0.974609375
vt 0.886230469 0.998535156
vt 0.892578125 0.951660156
vt 0.868652344 0.952148438
vt 0.841796875 0.928710938
vt 0.866699219 0.932128906
vt 0.858886719 0.911132812
vt 0.849121094 0.938964844
vt 0.834472656 0.950683594
vt 0.851074219 0.951171875
vt 0.848144531 0.963867188
vt 0.83984375 0.973632812
vt 0.888183594 0.907714844
vt 0.858886719 0.911132812
vt 0.866699219 0.932128906
vt 0.890136719 0.929199219
vt 0.886230469 0.998535156
vt 0.888183594 0.997558594
vt 0.892089844 0.975097656
vt 0.890136719 0.975097656
vt 0.89453125 0.952148438
vt 0.892578125 0.951660156
vt 0.892089844 0.929199219
vt 0.890136719 0.929199219
vt 0.890625 0.908691406
vt 0.888183594 0.907714844
vt 0.890136719 0.928710938
vt 0.890136719 0.908203125
vt 0.888183594 0.907714844
vt 0.892089844 0.929199219
vt 0.892578125 0.951660156
vt 0.89453125 0.951660156
vt 0.890136719 0.974609375
vt 0.892089844 0.974609375
vt 0.886230469 0.998535156
vt 0.888671875 0.997558594
vt 0.871582031 0.879394531
vt 0.877929688 0.88671875
vt 0.878417969 0.876953125
vt 0.868164062 0.886230469
vt 0.885253906 0.880371094
vt 0.870605469 0.893066406
vt 0.887695312 0.887207031
vt 0.877441406 0.896484375
vt 0.884277344 0.894042969
vn 1 0.00150775909 0
vn -0 0.00150775909 -1
vn -0 0.00150775909 -1
vn 1 0.00150775909 0
vn -0 0.00150775909 -1
vn -1 0.00150775909 0
vn -1 0.00150775909 0
vn -0 0.00150775909 -1
vn -1 0.00150775909 0
vn -0 0.00150775909 1
vn -0 0.00150775909 1
vn -1 0.00150775909 0
vn -0 0.00150775909 1
vn 1 0.00150775909 0
vn 1 0.00150775909 0
vn -0 0.00150775909 1
vn 1 0 0
vn 1 0 0
vn 1 0 0
vn 1 0 0
vn -0 0 -1
vn -0 0 -1
vn -0 0 -1
vn -0 0 -1
vn -1 0 0
vn -1 0 0
vn -1 0 0
vn -1 0 0
vn -0 0 1
vn -0 0 1
vn -0 0 1
vn -0 0 1
vn -0 -1 0
vn -0 -1 0
vn -0 -1 0
vn -0 -1 0
vn 0.618652344 0.484619141 -0.618652344
vn -0 0.484619141 -0.874511719
vn -0 0.189697266 -0.981933594
vn 0.694335938 0.189697266 -0.694335938
vn 0.874511719 0.484619141 -5.36441803E-07
vn 0.981933594 0.189697266 0
vn 0.618652344 0.484619141 0.618652344
vn 0.694335938 0.189697266 0.694335938
vn -0 0.484619141 -0.874511719
vn -0.618652344 0.484619141 -0.618652344
vn -0.694335938 0.189697266 -0.694335938
vn -0 0.189697266 -0.981933594
vn -0.618652344 0.484619141 -0.618652344
vn -0.981933594 0.189697266 1.1920929E-07
vn -0.694335938 0.189697266 -0.694335938
vn -0.874511719 0.484619141 3.57627869E-07
vn -0.694335938 0.189697266 0.694335938
vn -0.618652344 0.484619141 0.618652344
vn -1.1920929E-07 0.189697266 0.981933594
vn -0 0.484619141 0.874511719
vn -0 0.484619141 0.874511719
vn 0.618652344 0.484619141 0.618652344
vn 0.694335938 0.189697266 0.694335938
vn -1.1920929E-07 0.189697266 0.981933594
vn -0 -0.732910156 0.680175781
vn 1.37090683E-06 -1 1.1920929E-07
vn -0.481201172 -0.732910156 0.481201172
vn -0.680175781 -0.732910156 -2.98023224E-07
vn -0.481201172 -0.732910156 -0.481201172
vn 0.481201172 -0.732910156 0.481201172
vn 1.37090683E-06 -1 1.1920929E-07
vn -0 -0.732910156 0.680175781
vn 0.680175781 -0.732910156 -2.98023224E-07
vn 0.481201172 -0.732910156 -0.481201172
vn 1.37090683E-06 -1 1.1920929E-07
vn 0.680175781 -0.732910156 -2.98023224E-07
vn -0 -0.732910156 -0.680175781
vn -0.481201172 -0.732910156 -0.481201172
vn 0.683105469 0.258056641 -0.683105469
vn 0.700683594 0.713378906 -1.78813934E-07
vn 0.495361328 0.713378906 -0.495361328
vn 0.966308594 0.258056641 0
vn 0.495361328 0.713378906 0.495361328
vn 0.683105469 0.258056641 0.683105469
vn 0.706054688 0.0596923828 0.706054688
vn 0.998046875 0.0596923828 0
vn 0.706054688 0.0596923828 -0.706054688
vn 0.495361328 0.713378906 -0.495361328
vn -0 0.713378906 -0.700683594
vn -0 0.258056641 -0.966308594
vn 0.683105469 0.258056641 -0.683105469
vn 0.706054688 0.0596923828 -0.706054688
vn -0 0.0596923828 -0.998046875
vn -0 0.713378906 -0.700683594
vn -0.495361328 0.713378906 -0.495361328
vn -0.683105469 0.258056641 -0.683105469
vn -0 0.258056641 -0.966308594
vn -0.495361328 0.713378906 -0.495361328
vn -0.700683594 0.713378906 -4.17232513E-07
vn -0.966308594 0.258056641 0
vn -0.683105469 0.258056641 -0.683105469
vn -0.706054688 0.0596923828 -0.706054688
vn -0.998046875 0.0596923828 0
vn -0 0.0596923828 -0.998046875
vn -0 0.258056641 -0.966308594
vn -0.700683594 0.713378906 -4.17232513E-07
vn -0.683105469 0.258056641 0.683105469
vn -0.966308594 0.258056641 0
vn -0.495361328 0.713378906 0.495361328
vn -0 1 -2.98023224E-07
vn -0.495361328 0.713378906 -0.495361328
vn -0 0.713378906 -0.700683594
vn -0 0.713378906 0.700683594
vn -0 0.258056641 0.966308594
vn -0.495361328 0.713378906 0.495361328
vn -0 0.258056641 0.966308594
vn -0.683105469 0.258056641 0.683105469
vn -0.706054688 0.0596923828 0.706054688
vn -0 0.0596923828 0.998046875
vn -0.998046875 0.0596923828 0
vn -0.966308594 0.258056641 0
vn -0 0.713378906 0.700683594
vn 0.683105469 0.258056641 0.683105469
vn -0 0.258056641 0.966308594
vn 0.495361328 0.713378906 0.495361328
vn -0 1 -2.98023224E-07
vn 0.700683594 0.713378906 -1.78813934E-07
vn 0.495361328 0.713378906 -0.495361328
vn -0 0.713378906 -0.700683594
vn -0 0.0596923828 0.998046875
vn -0 0.258056641 0.966308594
vn 0.683105469 0.258056641 0.683105469
vn 0.706054688 0.0596923828 0.706054688
vn -0 -1 -2.2649765E-06
vn -0 -0.732910156 0.680175781
vn -0.481201172 -0.732910156 0.481201172
vn -0 -1 9.53674316E-07
vn -0.680175781 -0.732910156 -2.98023224E-07
vn -0 -1 -2.98023224E-07
vn -0.481201172 -0.732910156 -0.481201172
vn -0 -1 9.53674316E-07
vn -0 -0.732910156 -0.680175781
vn -0 -1 2.2649765E-06
vn -0 -1 -1.25169754E-06
vn -0 -0.732910156 0.680175781
vn -0 -1 -2.2649765E-06
vn 0.481201172 -0.732910156 0.481201172
vn -0 -1 0
vn 0.680175781 -0.732910156 -2.98023224E-07
vn -0 -1 -9.53674316E-07
vn 0.481201172 -0.732910156 -0.481201172
vn -0 -1 2.2649765E-06
vn -0 -0.732910156 -0.680175781
vn 0.618652344 0.484619141 0.618652344
vn -0 1 -4.17232513E-07
vn 0.874511719 0.484619141 -5.36441803E-07
vn -0 0.484619141 0.874511719
vn 0.618652344 0.484619141 -0.618652344
vn -0.618652344 0.484619141 0.618652344
vn -0 0.484619141 -0.874511719
vn -0.874511719 0.484619141 3.57627869E-07
vn -0.618652344 0.484619141 -0.618652344
g BlueCeilingLampOff_0
f 3/3/3 2/2/2 1/1/1
f 4/4/4 3/3/3 1/1/1
f 7/7/7 6/6/6 5/5/5
f 8/8/8 7/7/7 5/5/5
f 11/11/11 10/10/10 9/9/9
f 12/12/12 11/11/11 9/9/9
f 15/15/15 14/14/14 13/13/13
f 16/16/16 15/15/15 13/13/13
f 19/19/19 18/18/18 17/17/17
f 20/20/20 19/19/19 17/17/17
f 23/23/23 22/22/22 21/21/21
f 24/24/24 23/23/23 21/21/21
f 27/27/27 26/26/26 25/25/25
f 28/28/28 27/27/27 25/25/25
f 31/31/31 30/30/30 29/29/29
f 32/32/32 31/31/31 29/29/29
f 35/35/35 34/34/34 33/33/33
f 36/36/36 35/35/35 33/33/33
f 39/39/39 38/38/38 37/37/37
f 40/40/40 39/39/39 37/37/37
f 37/37/37 41/41/41 40/40/40
f 41/41/41 42/42/42 40/40/40
f 42/42/42 41/41/41 43/43/43
f 44/44/44 42/42/42 43/43/43
f 47/47/47 46/46/46 45/45/45
f 48/48/48 47/47/47 45/45/45
f 51/51/51 50/50/50 49/49/49
f 50/50/50 52/52/52 49/49/49
f 50/50/50 53/53/53 52/52/52
f 53/53/53 54/54/54 52/52/52
f 53/53/53 55/55/55 54/54/54
f 55/55/55 56/56/56 54/54/54
f 59/59/59 58/58/58 57/57/57
f 60/60/60 59/59/59 57/57/57
f 63/63/63 62/62/62 61/61/61
f 64/64/64 62/62/62 63/63/63
f 65/65/65 62/62/62 64/64/64
f 68/68/68 67/67/67 66/66/66
f 66/66/66 67/67/67 69/69/69
f 72/72/72 71/71/71 70/70/70
f 70/70/70 71/71/71 73/73/73
f 73/73/73 71/71/71 74/74/74
f 77/77/77 76/76/76 75/75/75
f 76/76/76 78/78/78 75/75/75
f 78/78/78 76/76/76 79/79/79
f 80/80/80 78/78/78 79/79/79
f 78/78/78 80/80/80 81/81/81
f 82/82/82 78/78/78 81/81/81
f 75/75/75 78/78/78 82/82/82
f 83/83/83 75/75/75 82/82/82
f 86/86/86 85/85/85 84/84/84
f 87/87/87 86/86/86 84/84/84
f 86/86/86 87/87/87 88/88/88
f 89/89/89 86/86/86 88/88/88
f 92/92/92 91/91/91 90/90/90
f 93/93/93 92/92/92 90/90/90
f 96/96/96 95/95/95 94/94/94
f 97/97/97 96/96/96 94/94/94
f 96/96/96 97/97/97 98/98/98
f 99/99/99 96/96/96 98/98/98
f 98/98/98 97/97/97 100/100/100
f 97/97/97 101/101/101 100/100/100
f 104/104/104 103/103/103 102/102/102
f 103/103/103 105/105/105 102/102/102
f 105/105/105 106/106/106 102/102/102
f 102/102/102 106/106/106 107/107/107
f 107/107/107 106/106/106 108/108/108
f 109/109/109 106/106/106 105/105/105
f 110/110/110 109/109/109 105/105/105
f 113/113/113 112/112/112 111/111/111
f 112/112/112 113/113/113 114/114/114
f 115/115/115 112/112/112 114/114/114
f 114/114/114 113/113/113 116/116/116
f 113/113/113 117/117/117 116/116/116
f 120/120/120 119/119/119 118/118/118
f 119/119/119 121/121/121 118/118/118
f 121/121/121 122/122/122 118/118/118
f 123/123/123 122/122/122 121/121/121
f 124/124/124 122/122/122 123/123/123
f 125/125/125 122/122/122 124/124/124
f 128/128/128 127/127/127 126/126/126
f 129/129/129 128/128/128 126/126/126
f 132/132/132 131/131/131 130/130/130
f 133/133/133 132/132/132 130/130/130
f 134/134/134 132/132/132 133/133/133
f 135/135/135 134/134/134 133/133/133
f 136/136/136 134/134/134 135/135/135
f 137/137/137 136/136/136 135/135/135
f 138/138/138 136/136/136 137/137/137
f 139/139/139 138/138/138 137/137/137
f 142/142/142 141/141/141 140/140/140
f 141/141/141 143/143/143 140/140/140
f 140/140/140 143/143/143 144/144/144
f 143/143/143 145/145/145 144/144/144
f 144/144/144 145/145/145 146/146/146
f 145/145/145 147/147/147 146/146/146
f 146/146/146 147/147/147 148/148/148
f 147/147/147 149/149/149 148/148/148
f 152/152/152 151/151/151 150/150/150
f 150/150/150 151/151/151 153/153/153
f 154/154/154 151/151/151 152/152/152
f 153/153/153 151/151/151 155/155/155
f 156/156/156 151/151/151 154/154/154
f 155/155/155 151/151/151 157/157/157
f 158/158/158 151/151/151 156/156/156
f 157/157/157 151/151/151 158/158/158
