g MadInventor_Hands
v 0.301294863 0.499833018 0.0109988088
v 0.303002179 0.48325792 0.0131399846
v 0.296260715 0.491701841 0.00536352256
v 0.305609286 0.487835884 0.01631115
v 0.304897577 0.479862213 0.0156808961
v 0.307162732 0.484095752 0.018292632
v 0.309101433 0.472159475 0.0214084387
v 0.321596056 0.489081949 0.0140761323
v 0.310912699 0.476016521 0.0233589169
v 0.314071119 0.465014726 0.0266740937
v 0.321537852 0.501461804 0.00799969397
v 0.313918591 0.509872019 0.00528955786
v 0.321556151 0.515034318 -0.00718377857
v 0.329823971 0.506273508 -0.00263224542
v 0.322508693 0.514177144 -0.0220062211
v 0.330125958 0.505438626 -0.0246396065
v 0.341915667 0.492233634 -0.0161069445
v 0.317713827 0.507638097 -0.0354789011
v 0.318834543 0.485390067 0.0143123893
v 0.314559877 0.468551546 0.0290012825
v 0.316896886 0.463195801 0.0279074851
v 0.337884516 0.491405785 0.0105568003
v 0.331467152 0.485293925 0.0119943544
v 0.319226772 0.478880376 0.0212808605
v 0.322622061 0.474448621 0.0173580255
v 0.320796728 0.480099052 0.0111182071
v 0.322061926 0.472146779 0.0273898076
v 0.324584275 0.468269289 0.0236313865
v 0.324156821 0.465182632 0.0266662315
v 0.316980779 0.465624869 0.0301163141
v 0.323061973 0.468280047 0.0287951138
v 0.340867877 0.492678523 0.00534637272
v 0.341820568 0.492343158 -0.000628245471
v 0.343324423 0.493566871 -0.00879206415
v 0.349551529 0.473565459 0.00780838961
v 0.347501874 0.473219633 0.0123579456
v 0.342288017 0.470257759 0.0137834735
v 0.348996431 0.45156467 0.0162905194
v 0.353612125 0.452836215 0.0145375682
v 0.352817386 0.440280288 0.0164821576
v 0.355973721 0.453140676 0.0100683207
v 0.34820953 0.472190619 0.00266486872
v 0.35620147 0.441402346 0.0149011295
v 0.358524501 0.44114548 0.0112670921
v 0.357654065 0.437173039 0.0116687417
v 0.356420964 0.438194185 0.014732304
v 0.3537651 0.437211484 0.0155546423
v 0.354416221 0.434711903 0.0118832802
v 0.354268551 0.435751826 0.00752749806
v 0.357864171 0.44054237 0.00719411112
v 0.357503742 0.437086701 0.00825945381
v 0.353468001 0.438720703 0.00633988949
v 0.350174099 0.449863583 0.00380697777
v 0.354632378 0.452650368 0.00520743243
v 0.343185008 0.467241228 0.000625369546
v 0.337977141 0.474539936 5.80924752E-05
v 0.342935145 0.465060085 -6.94623595E-05
v 0.348870486 0.469277471 -0.00143626146
v 0.348456264 0.445040375 0.000956869393
v 0.35258624 0.470428318 -0.00818082411
v 0.353770584 0.447951227 -0.000873464916
v 0.351161152 0.435495824 3.24365501E-05
v 0.348308951 0.468687087 -0.0135816019
v 0.355940402 0.448760092 -0.00773685798
v 0.355355531 0.437138319 -0.00174737035
v 0.352079332 0.43113333 -0.00293429359
v 0.356479973 0.437280983 -0.00782528706
v 0.354315966 0.431625903 -0.0065322835
v 0.354104638 0.432124257 -0.00302155968
v 0.352060527 0.430140078 -0.00596957654
v 0.351586491 0.430155426 -0.00875303149
v 0.351767957 0.447267115 -0.0128234308
v 0.353313237 0.437136799 -0.0125715435
v 0.353530347 0.431711644 -0.00958208274
v 0.349598497 0.434721053 -0.0128139053
v 0.346967906 0.443727136 -0.0128671099
v 0.342228532 0.463392526 -0.0147261173
v 0.335566908 0.467723906 -0.0139797283
v 0.348030776 0.468550146 -0.0158261862
v 0.341217697 0.464756876 -0.0137985153
v 0.34523806 0.449046463 -0.0128269307
v 0.343392491 0.491311163 -0.0221657027
v 0.349929571 0.450736731 -0.014482596
v 0.351232141 0.441970587 -0.0155700929
v 0.347543031 0.440474987 -0.0127560562
v 0.348128796 0.436391473 -0.0143458266
v 0.350992203 0.437665254 -0.0164835844
v 0.347540587 0.434340656 -0.0186565593
v 0.351103306 0.437684327 -0.0199078768
v 0.352061063 0.442384094 -0.0201453492
v 0.351551622 0.450840622 -0.0204189941
v 0.349777132 0.438553751 -0.0230227355
v 0.34588322 0.435968608 -0.0228723548
v 0.344714046 0.439948529 -0.0239296649
v 0.349257529 0.442392468 -0.0239349809
v 0.347378224 0.450314313 -0.0248690527
v 0.342528999 0.448429734 -0.0247831587
v 0.349876285 0.468054384 -0.0218942761
v 0.346019864 0.466539711 -0.0264598411
v 0.338222951 0.463761628 -0.0268134996
v 0.340516984 0.469148099 -0.027408706
v 0.342469662 0.487574846 -0.0284997933
v 0.342513412 0.467018396 -0.0284237284
v 0.337966412 0.465214252 -0.02733499
v 0.343769461 0.455898553 -0.0297609027
v 0.339691371 0.454625219 -0.0279534087
v 0.340301782 0.447631061 -0.0276750084
v 0.343936712 0.448685855 -0.0296625122
v 0.34087944 0.444007784 -0.0293975491
v 0.342814147 0.443636954 -0.0316147171
v 0.338921547 0.442518771 -0.0334558301
v 0.341954142 0.443424821 -0.0350791961
v 0.337853462 0.444096625 -0.0365251973
v 0.344753385 0.448739201 -0.0356292911
v 0.344616622 0.45625025 -0.0362857468
v 0.34364292 0.467869163 -0.0368639268
v 0.34064281 0.444159657 -0.0373430215
v 0.336978406 0.447915345 -0.0379609391
v 0.34114483 0.448936194 -0.0385300182
v 0.33638069 0.454184115 -0.0388271995
v 0.340119213 0.456016183 -0.0392621309
v 0.3385728 0.467076898 -0.0402122289
v 0.334023744 0.465337008 -0.0401916988
v 0.338778675 0.488120109 -0.0360551812
v 0.333429456 0.485941261 -0.0403140262
v 0.329025447 0.478176683 -0.041585654
v 0.323654562 0.500907183 -0.0360613428
v 0.318217427 0.49259311 -0.041022595
v 0.311295062 0.499641091 -0.0403590053
v 0.321596056 0.489081949 0.0140761323
v 0.320796728 0.480099052 0.0111182071
v 0.318834543 0.485390067 0.0143123893
v 0.32540217 0.479210228 0.01044631
v 0.331467152 0.485293925 0.0119943544
v 0.342288017 0.470257759 0.0137834735
v 0.337204725 0.466852903 0.0114046615
v 0.348996431 0.45156467 0.0162905194
v 0.320859373 0.47507304 0.00308448379
v 0.327542722 0.472774804 0.0057627568
v 0.327596694 0.469671041 -0.000317941885
v 0.31999281 0.473253012 -0.0129498634
v 0.305347472 0.477413386 0.00732471561
v 0.317615956 0.475061953 0.00940432958
v 0.322622061 0.474448621 0.0173580255
v 0.319921494 0.46944502 0.0152444821
v 0.324584275 0.468269289 0.0236313865
v 0.336531132 0.464307278 0.00713370088
v 0.343177229 0.448389739 0.0107944673
v 0.34453547 0.450072557 0.0152364131
v 0.347986817 0.439360142 0.0155759025
v 0.352817386 0.440280288 0.0164821576
v 0.3537651 0.437211484 0.0155546423
v 0.307608813 0.474456936 0.0120651266
v 0.322430044 0.464859188 0.0212397426
v 0.324156821 0.465182632 0.0266662315
v 0.337889254 0.463667214 0.00257608434
v 0.31112662 0.469078541 0.0171220247
v 0.322934628 0.463289946 0.0250032563
v 0.316896886 0.463195801 0.0279074851
v 0.316666663 0.463106006 0.0231457595
v 0.317479342 0.462451786 0.0261711981
v 0.314071119 0.465014726 0.0266740937
v 0.309101433 0.472159475 0.0214084387
v 0.304897577 0.479862213 0.0156808961
v 0.303002179 0.48325792 0.0131399846
v 0.296260715 0.491701841 0.00536352256
v 0.29396981 0.487429619 -0.00781817269
v 0.30455485 0.478621215 -0.0101626227
v 0.294212759 0.486501068 -0.0229167864
v 0.304404348 0.481868207 -0.0255829226
v 0.319079578 0.474241704 -0.0267023407
v 0.307087421 0.485084295 -0.0348604545
v 0.299845815 0.490595847 -0.036033906
v 0.31579861 0.480643183 -0.037398953
v 0.318217427 0.49259311 -0.041022595
v 0.311295062 0.499641091 -0.0403590053
v 0.329025447 0.478176683 -0.041585654
v 0.326684326 0.472898543 -0.0385045446
v 0.327504456 0.470120847 -0.0309442487
v 0.329269111 0.469398797 -0.0254165381
v 0.32859692 0.468968034 -0.018159695
v 0.330401957 0.463007152 -0.0374980681
v 0.334023744 0.465337008 -0.0401916988
v 0.330153108 0.462200373 -0.0325179845
v 0.332522184 0.453437299 -0.0352056511
v 0.33638069 0.454184115 -0.0388271995
v 0.336978406 0.447915345 -0.0379609391
v 0.332135201 0.453608274 -0.0316912569
v 0.333754122 0.448661119 -0.0349225327
v 0.337853462 0.444096625 -0.0365251973
v 0.333160669 0.44851917 -0.0312825181
v 0.335190654 0.443784088 -0.0313583575
v 0.33524105 0.44466728 -0.0347717069
v 0.338921547 0.442518771 -0.0334558301
v 0.34087944 0.444007784 -0.0293975491
v 0.334858418 0.454524994 -0.0280628279
v 0.335763305 0.44925788 -0.0273517799
v 0.337264597 0.445104092 -0.0273913331
v 0.340301782 0.447631061 -0.0276750084
v 0.339691371 0.454625219 -0.0279534087
v 0.337966412 0.465214252 -0.02733499
v 0.332892001 0.463411778 -0.0285191648
v 0.340516984 0.469148099 -0.027408706
v 0.338222951 0.463761628 -0.0268134996
v 0.333984137 0.461480945 -0.0231768563
v 0.342528999 0.448429734 -0.0247831587
v 0.337959021 0.446184874 -0.0220057741
v 0.333673179 0.46114561 -0.018709071
v 0.340006024 0.438859612 -0.0219501592
v 0.344714046 0.439948529 -0.0239296649
v 0.34588322 0.435968608 -0.0228723548
v 0.336043835 0.462633997 -0.0155577343
v 0.337193131 0.446324408 -0.016935952
v 0.339725792 0.438682348 -0.0167367086
v 0.342797846 0.434907585 -0.016928209
v 0.341977805 0.435418755 -0.0210040919
v 0.347540587 0.434340656 -0.0186565593
v 0.348128796 0.436391473 -0.0143458266
v 0.343024552 0.439907879 -0.0129454201
v 0.344703853 0.436462879 -0.0134823881
v 0.347543031 0.440474987 -0.0127560562
v 0.340525538 0.447423548 -0.013455281
v 0.34523806 0.449046463 -0.0128269307
v 0.341217697 0.464756876 -0.0137985153
v 0.335566908 0.467723906 -0.0139797283
v 0.328333348 0.46887973 -0.0132452557
v 0.337014258 0.459708154 -0.0108594941
v 0.342228532 0.463392526 -0.0147261173
v 0.328385115 0.468067378 -0.00733862398
v 0.336333662 0.459742308 -0.0065630665
v 0.343435138 0.441635847 -0.00997215509
v 0.346967906 0.443727136 -0.0128671099
v 0.349598497 0.434721053 -0.0128139053
v 0.346332997 0.433419168 -0.0105997631
v 0.351586491 0.430155426 -0.00875303149
v 0.337761223 0.461510837 -0.00214233459
v 0.342526227 0.441555887 -0.00578440074
v 0.349364847 0.42999208 -0.00728359912
v 0.352060527 0.430140078 -0.00596957654
v 0.34951964 0.430047363 -0.00535034901
v 0.352079332 0.43113333 -0.00293429359
v 0.343947023 0.442787886 -0.00149266981
v 0.347108185 0.434396356 -0.00191376021
v 0.345472395 0.433188587 -0.00630174857
v 0.349939466 0.430723369 -0.00330950017
v 0.351161152 0.435495824 3.24365501E-05
v 0.348456264 0.445040375 0.000956869393
v 0.342935145 0.465060085 -6.94623595E-05
v 0.337977141 0.474539936 5.80924752E-05
v 0.343185008 0.467241228 0.000625369546
v 0.345154941 0.447887689 0.0064215241
v 0.350174099 0.449863583 0.00380697777
v 0.349237829 0.437841684 0.00741485646
v 0.353468001 0.438720703 0.00633988949
v 0.354268551 0.435751826 0.00752749806
v 0.347146183 0.437793195 0.0114387833
v 0.350905329 0.435529321 0.00825188868
v 0.354416221 0.434711903 0.0118832802
v 0.35007143 0.435452938 0.0115896221
v 0.349952996 0.436966151 0.0147773763
v 0.286397576 0.482089788 -0.0288001653
v 0.294212759 0.486501068 -0.0229167864
v 0.299845815 0.490595847 -0.036033906
v 0.293660253 0.486542344 -0.0431025065
v 0.311295062 0.499641091 -0.0403590053
v 0.270065635 0.514534652 -0.0477432236
v 0.262485802 0.504782677 -0.0277406424
v 0.307039291 0.499910355 -0.0524482392
v 0.317713827 0.507638097 -0.0354789011
v 0.279411912 0.525082767 -0.0505964085
v 0.318554819 0.512938499 -0.044664558
v 0.289772511 0.540649891 -0.0418557823
v 0.322508693 0.514177144 -0.0220062211
v 0.297412097 0.549345553 -0.026445359
v 0.328274429 0.523528159 -0.0256550945
v 0.321556151 0.515034318 -0.00718377857
v 0.326687992 0.524249554 -0.00100470299
v 0.297061175 0.54857862 -0.00669948803
v 0.313918591 0.509872019 0.00528955786
v 0.313569754 0.516915977 0.0168932956
v 0.286645174 0.539086342 0.00939458515
v 0.301294863 0.499833018 0.0109988088
v 0.298484176 0.502234638 0.0196831822
v 0.27256459 0.52322942 0.013862676
v 0.296260715 0.491701841 0.00536352256
v 0.28961125 0.489619702 0.0102070775
v 0.263659149 0.510437846 0.00331300078
v 0.29396981 0.487429619 -0.00781817269
v 0.284801006 0.4836725 -0.00573603669
v 0.294212759 0.486501068 -0.0229167864
v 0.261430383 0.506623089 -0.0128837721
v 0.286397576 0.482089788 -0.0288001653
v 0.262485802 0.504782677 -0.0277406424
v -0.301294863 0.499833018 0.0109988088
v -0.296260715 0.491701841 0.00536352256
v -0.303002179 0.48325792 0.0131399846
v -0.305609286 0.487835884 0.01631115
v -0.304897577 0.479862213 0.0156808961
v -0.307162732 0.484095752 0.018292632
v -0.309101433 0.472159475 0.0214084387
v -0.321596056 0.489081949 0.0140761323
v -0.310912699 0.476016521 0.0233589169
v -0.314071119 0.465014726 0.0266740937
v -0.321537852 0.501461804 0.00799969397
v -0.313918591 0.509872019 0.00528955786
v -0.321556151 0.515034318 -0.00718377857
v -0.329823971 0.506273508 -0.00263224542
v -0.322508693 0.514177144 -0.0220062211
v -0.330125958 0.505438626 -0.0246396065
v -0.341915667 0.492233634 -0.0161069445
v -0.317713827 0.507638097 -0.0354789011
v -0.318834543 0.485390067 0.0143123893
v -0.314559877 0.468551546 0.0290012825
v -0.316896886 0.463195801 0.0279074851
v -0.337884516 0.491405785 0.0105568003
v -0.331467152 0.485293925 0.0119943544
v -0.319226772 0.478880376 0.0212808605
v -0.322622061 0.474448621 0.0173580255
v -0.320796728 0.480099052 0.0111182071
v -0.322061926 0.472146779 0.0273898076
v -0.324584275 0.468269289 0.0236313865
v -0.324156821 0.465182632 0.0266662315
v -0.316980779 0.465624869 0.0301163141
v -0.323061973 0.468280047 0.0287951138
v -0.340867877 0.492678523 0.00534637272
v -0.341820568 0.492343158 -0.000628245471
v -0.343324423 0.493566871 -0.00879206415
v -0.349551529 0.473565459 0.00780838961
v -0.347501874 0.473219633 0.0123579456
v -0.342288017 0.470257759 0.0137834735
v -0.348996431 0.45156467 0.0162905194
v -0.353612125 0.452836215 0.0145375682
v -0.352817386 0.440280288 0.0164821576
v -0.355973721 0.453140676 0.0100683207
v -0.34820953 0.472190619 0.00266486872
v -0.35620147 0.441402346 0.0149011295
v -0.358524501 0.44114548 0.0112670921
v -0.357654065 0.437173039 0.0116687417
v -0.356420964 0.438194185 0.014732304
v -0.3537651 0.437211484 0.0155546423
v -0.354416221 0.434711903 0.0118832802
v -0.354268551 0.435751826 0.00752749806
v -0.357864171 0.44054237 0.00719411112
v -0.357503742 0.437086701 0.00825945381
v -0.353468001 0.438720703 0.00633988949
v -0.350174099 0.449863583 0.00380697777
v -0.354632378 0.452650368 0.00520743243
v -0.343185008 0.467241228 0.000625369546
v -0.337977141 0.474539936 5.80924752E-05
v -0.342935145 0.465060085 -6.94623595E-05
v -0.348870486 0.469277471 -0.00143626146
v -0.348456264 0.445040375 0.000956869393
v -0.35258624 0.470428318 -0.00818082411
v -0.353770584 0.447951227 -0.000873464916
v -0.351161152 0.435495824 3.24365501E-05
v -0.348308951 0.468687087 -0.0135816019
v -0.355940402 0.448760092 -0.00773685798
v -0.355355531 0.437138319 -0.00174737035
v -0.352079332 0.43113333 -0.00293429359
v -0.356479973 0.437280983 -0.00782528706
v -0.354315966 0.431625903 -0.0065322835
v -0.354104638 0.432124257 -0.00302155968
v -0.352060527 0.430140078 -0.00596957654
v -0.351586491 0.430155426 -0.00875303149
v -0.351767957 0.447267115 -0.0128234308
v -0.353313237 0.437136799 -0.0125715435
v -0.353530347 0.431711644 -0.00958208274
v -0.349598497 0.434721053 -0.0128139053
v -0.346967906 0.443727136 -0.0128671099
v -0.342228532 0.463392526 -0.0147261173
v -0.335566908 0.467723906 -0.0139797283
v -0.348030776 0.468550146 -0.0158261862
v -0.341217697 0.464756876 -0.0137985153
v -0.34523806 0.449046463 -0.0128269307
v -0.343392491 0.491311163 -0.0221657027
v -0.349929571 0.450736731 -0.014482596
v -0.351232141 0.441970587 -0.0155700929
v -0.347543031 0.440474987 -0.0127560562
v -0.348128796 0.436391473 -0.0143458266
v -0.350992203 0.437665254 -0.0164835844
v -0.347540587 0.434340656 -0.0186565593
v -0.351103306 0.437684327 -0.0199078768
v -0.352061063 0.442384094 -0.0201453492
v -0.351551622 0.450840622 -0.0204189941
v -0.349777132 0.438553751 -0.0230227355
v -0.34588322 0.435968608 -0.0228723548
v -0.344714046 0.439948529 -0.0239296649
v -0.349257529 0.442392468 -0.0239349809
v -0.347378224 0.450314313 -0.0248690527
v -0.342528999 0.448429734 -0.0247831587
v -0.349876285 0.468054384 -0.0218942761
v -0.346019864 0.466539711 -0.0264598411
v -0.338222951 0.463761628 -0.0268134996
v -0.340516984 0.469148099 -0.027408706
v -0.342469662 0.487574846 -0.0284997933
v -0.342513412 0.467018396 -0.0284237284
v -0.337966412 0.465214252 -0.02733499
v -0.343769461 0.455898553 -0.0297609027
v -0.339691371 0.454625219 -0.0279534087
v -0.340301782 0.447631061 -0.0276750084
v -0.343936712 0.448685855 -0.0296625122
v -0.34087944 0.444007784 -0.0293975491
v -0.342814147 0.443636954 -0.0316147171
v -0.338921547 0.442518771 -0.0334558301
v -0.341954142 0.443424821 -0.0350791961
v -0.337853462 0.444096625 -0.0365251973
v -0.344753385 0.448739201 -0.0356292911
v -0.344616622 0.45625025 -0.0362857468
v -0.34364292 0.467869163 -0.0368639268
v -0.34064281 0.444159657 -0.0373430215
v -0.336978406 0.447915345 -0.0379609391
v -0.34114483 0.448936194 -0.0385300182
v -0.33638069 0.454184115 -0.0388271995
v -0.340119213 0.456016183 -0.0392621309
v -0.3385728 0.467076898 -0.0402122289
v -0.334023744 0.465337008 -0.0401916988
v -0.338778675 0.488120109 -0.0360551812
v -0.333429456 0.485941261 -0.0403140262
v -0.329025447 0.478176683 -0.041585654
v -0.323654562 0.500907183 -0.0360613428
v -0.318217427 0.49259311 -0.041022595
v -0.311295062 0.499641091 -0.0403590053
v -0.321596056 0.489081949 0.0140761323
v -0.318834543 0.485390067 0.0143123893
v -0.320796728 0.480099052 0.0111182071
v -0.32540217 0.479210228 0.01044631
v -0.331467152 0.485293925 0.0119943544
v -0.342288017 0.470257759 0.0137834735
v -0.337204725 0.466852903 0.0114046615
v -0.348996431 0.45156467 0.0162905194
v -0.320859373 0.47507304 0.00308448379
v -0.327542722 0.472774804 0.0057627568
v -0.327596694 0.469671041 -0.000317941885
v -0.31999281 0.473253012 -0.0129498634
v -0.305347472 0.477413386 0.00732471561
v -0.317615956 0.475061953 0.00940432958
v -0.322622061 0.474448621 0.0173580255
v -0.319921494 0.46944502 0.0152444821
v -0.324584275 0.468269289 0.0236313865
v -0.336531132 0.464307278 0.00713370088
v -0.343177229 0.448389739 0.0107944673
v -0.34453547 0.450072557 0.0152364131
v -0.347986817 0.439360142 0.0155759025
v -0.352817386 0.440280288 0.0164821576
v -0.3537651 0.437211484 0.0155546423
v -0.307608813 0.474456936 0.0120651266
v -0.322430044 0.464859188 0.0212397426
v -0.324156821 0.465182632 0.0266662315
v -0.337889254 0.463667214 0.00257608434
v -0.31112662 0.469078541 0.0171220247
v -0.322934628 0.463289946 0.0250032563
v -0.316896886 0.463195801 0.0279074851
v -0.316666663 0.463106006 0.0231457595
v -0.317479342 0.462451786 0.0261711981
v -0.314071119 0.465014726 0.0266740937
v -0.309101433 0.472159475 0.0214084387
v -0.304897577 0.479862213 0.0156808961
v -0.303002179 0.48325792 0.0131399846
v -0.296260715 0.491701841 0.00536352256
v -0.29396981 0.487429619 -0.00781817269
v -0.30455485 0.478621215 -0.0101626227
v -0.294212759 0.486501068 -0.0229167864
v -0.304404348 0.481868207 -0.0255829226
v -0.319079578 0.474241704 -0.0267023407
v -0.307087421 0.485084295 -0.0348604545
v -0.299845815 0.490595847 -0.036033906
v -0.31579861 0.480643183 -0.037398953
v -0.318217427 0.49259311 -0.041022595
v -0.311295062 0.499641091 -0.0403590053
v -0.329025447 0.478176683 -0.041585654
v -0.326684326 0.472898543 -0.0385045446
v -0.327504456 0.470120847 -0.0309442487
v -0.329269111 0.469398797 -0.0254165381
v -0.32859692 0.468968034 -0.018159695
v -0.330401957 0.463007152 -0.0374980681
v -0.334023744 0.465337008 -0.0401916988
v -0.330153108 0.462200373 -0.0325179845
v -0.332522184 0.453437299 -0.0352056511
v -0.33638069 0.454184115 -0.0388271995
v -0.336978406 0.447915345 -0.0379609391
v -0.332135201 0.453608274 -0.0316912569
v -0.333754122 0.448661119 -0.0349225327
v -0.337853462 0.444096625 -0.0365251973
v -0.333160669 0.44851917 -0.0312825181
v -0.335190654 0.443784088 -0.0313583575
v -0.33524105 0.44466728 -0.0347717069
v -0.338921547 0.442518771 -0.0334558301
v -0.34087944 0.444007784 -0.0293975491
v -0.334858418 0.454524994 -0.0280628279
v -0.335763305 0.44925788 -0.0273517799
v -0.337264597 0.445104092 -0.0273913331
v -0.340301782 0.447631061 -0.0276750084
v -0.339691371 0.454625219 -0.0279534087
v -0.337966412 0.465214252 -0.02733499
v -0.332892001 0.463411778 -0.0285191648
v -0.340516984 0.469148099 -0.027408706
v -0.338222951 0.463761628 -0.0268134996
v -0.333984137 0.461480945 -0.0231768563
v -0.342528999 0.448429734 -0.0247831587
v -0.337959021 0.446184874 -0.0220057741
v -0.333673179 0.46114561 -0.018709071
v -0.340006024 0.438859612 -0.0219501592
v -0.344714046 0.439948529 -0.0239296649
v -0.34588322 0.435968608 -0.0228723548
v -0.336043835 0.462633997 -0.0155577343
v -0.337193131 0.446324408 -0.016935952
v -0.339725792 0.438682348 -0.0167367086
v -0.342797846 0.434907585 -0.016928209
v -0.341977805 0.435418755 -0.0210040919
v -0.347540587 0.434340656 -0.0186565593
v -0.348128796 0.436391473 -0.0143458266
v -0.343024552 0.439907879 -0.0129454201
v -0.344703853 0.436462879 -0.0134823881
v -0.347543031 0.440474987 -0.0127560562
v -0.340525538 0.447423548 -0.013455281
v -0.34523806 0.449046463 -0.0128269307
v -0.341217697 0.464756876 -0.0137985153
v -0.335566908 0.467723906 -0.0139797283
v -0.328333348 0.46887973 -0.0132452557
v -0.337014258 0.459708154 -0.0108594941
v -0.342228532 0.463392526 -0.0147261173
v -0.328385115 0.468067378 -0.00733862398
v -0.343435138 0.441635847 -0.00997215509
v -0.346967906 0.443727136 -0.0128671099
v -0.349598497 0.434721053 -0.0128139053
v -0.336333662 0.459742308 -0.0065630665
v -0.346332997 0.433419168 -0.0105997631
v -0.351586491 0.430155426 -0.00875303149
v -0.337761223 0.461510837 -0.00214233459
v -0.342526227 0.441555887 -0.00578440074
v -0.349364847 0.42999208 -0.00728359912
v -0.352060527 0.430140078 -0.00596957654
v -0.34951964 0.430047363 -0.00535034901
v -0.352079332 0.43113333 -0.00293429359
v -0.343947023 0.442787886 -0.00149266981
v -0.347108185 0.434396356 -0.00191376021
v -0.345472395 0.433188587 -0.00630174857
v -0.349939466 0.430723369 -0.00330950017
v -0.351161152 0.435495824 3.24365501E-05
v -0.348456264 0.445040375 0.000956869393
v -0.342935145 0.465060085 -6.94623595E-05
v -0.337977141 0.474539936 5.80924752E-05
v -0.343185008 0.467241228 0.000625369546
v -0.345154941 0.447887689 0.0064215241
v -0.350174099 0.449863583 0.00380697777
v -0.349237829 0.437841684 0.00741485646
v -0.353468001 0.438720703 0.00633988949
v -0.354268551 0.435751826 0.00752749806
v -0.347146183 0.437793195 0.0114387833
v -0.350905329 0.435529321 0.00825188868
v -0.354416221 0.434711903 0.0118832802
v -0.35007143 0.435452938 0.0115896221
v -0.349952996 0.436966151 0.0147773763
v -0.286397576 0.482089788 -0.0288001653
v -0.299845815 0.490595847 -0.036033906
v -0.294212759 0.486501068 -0.0229167864
v -0.293660253 0.486542344 -0.0431025065
v -0.265304267 0.50849086 -0.0261806175
v -0.311295062 0.499641091 -0.0403590053
v -0.271622658 0.516619921 -0.0428542793
v -0.307039291 0.499910355 -0.0524482392
v -0.279413491 0.5254125 -0.0452326275
v -0.317713827 0.507638097 -0.0354789011
v -0.288049817 0.538388848 -0.0379466563
v -0.318554819 0.512938499 -0.044664558
v -0.322508693 0.514177144 -0.0220062211
v -0.328274429 0.523528159 -0.0256550945
v -0.294417977 0.545637369 -0.0251008999
v -0.321556151 0.515034318 -0.00718377857
v -0.294125468 0.544998109 -0.00864122529
v -0.326687992 0.524249554 -0.00100470299
v -0.313918591 0.509872019 0.00528955786
v -0.285442948 0.537085533 0.0047744019
v -0.313569754 0.516915977 0.0168932956
v -0.301294863 0.499833018 0.0109988088
v -0.273705691 0.523867607 0.00849889219
v -0.298484176 0.502234638 0.0196831822
v -0.296260715 0.491701841 0.00536352256
v -0.26628235 0.513204873 -0.000295057602
v -0.28961125 0.489619702 0.0102070775
v -0.29396981 0.487429619 -0.00781817269
v -0.264424503 0.510024965 -0.0137962932
v -0.284801006 0.4836725 -0.00573603669
v -0.294212759 0.486501068 -0.0229167864
v -0.286397576 0.482089788 -0.0288001653
v -0.265304267 0.50849086 -0.0261806175
v -0.265304267 0.50849086 -0.0261806175
v -0.264424503 0.510024965 -0.0137962932
v -0.277272761 0.527204514 -0.0183753446
v -0.271622658 0.516619921 -0.0428542793
v -0.26628235 0.513204873 -0.000295057602
v -0.279413491 0.5254125 -0.0452326275
v -0.273705691 0.523867607 0.00849889219
v -0.288049817 0.538388848 -0.0379466563
v -0.285442948 0.537085533 0.0047744019
v -0.294417977 0.545637369 -0.0251008999
v -0.294125468 0.544998109 -0.00864122529
v 0.262485802 0.504782677 -0.0277406424
v 0.276044756 0.53098619 -0.0192839839
v 0.261430383 0.506623089 -0.0128837721
v 0.270065635 0.514534652 -0.0477432236
v 0.263659149 0.510437846 0.00331300078
v 0.279411912 0.525082767 -0.0505964085
v 0.27256459 0.52322942 0.013862676
v 0.289772511 0.540649891 -0.0418557823
v 0.286645174 0.539086342 0.00939458515
v 0.297412097 0.549345553 -0.026445359
v 0.297061175 0.54857862 -0.00669948803
vt 0.0511474609 0.416992188
vt 0.029586792 0.409423828
vt 0.038848877 0.426757812
vt 0.0366516113 0.404296875
vt 0.0254821777 0.404785156
vt 0.0317993164 0.400146484
vt 0.0149765015 0.395263672
vt 0.0482788086 0.384033203
vt 0.0208435059 0.391845703
vt 0.0050239563 0.384521484
vt 0.065612793 0.389404297
vt 0.0712280273 0.405517578
vt 0.0884399414 0.400390625
vt 0.0834350586 0.381835938
vt 0.105285645 0.401123047
vt 0.111633301 0.384033203
vt 0.106079102 0.353271484
vt 0.122802734 0.40625
vt 0.0419006348 0.385253906
vt 0.0107803345 0.383300781
vt 0.00419998169 0.378417969
vt 0.0615844727 0.365234375
vt 0.0500183105 0.371337891
vt 0.0293273926 0.381835938
vt 0.031463623 0.372558594
vt 0.0427856445 0.376464844
vt 0.0187988281 0.375976562
vt 0.0189361572 0.368164062
vt 0.011505127 0.369140625
vt 0.00814056396 0.379394531
vt 0.0142288208 0.373535156
vt 0.0700073242 0.360351562
vt 0.0787353516 0.355712891
vt 0.0928344727 0.354248047
vt 0.0508728027 0.343505859
vt 0.0455322266 0.348388672
vt 0.038482666 0.354248047
vt 0.0198974609 0.334472656
vt 0.0258178711 0.330322266
vt 0.0120773315 0.322265625
vt 0.0313415527 0.325927734
vt 0.0562438965 0.338623047
vt 0.0171051025 0.320556641
vt 0.0213470459 0.316650391
vt 0.0177001953 0.313232422
vt 0.0149230957 0.316650391
vt 0.0111618042 0.316650391
vt 0.0134735107 0.309326172
vt 0.0201263428 0.305908203
vt 0.0248565674 0.3125
vt 0.020904541 0.310302734
vt 0.025894165 0.306152344
vt 0.0389404297 0.313476562
vt 0.0364074707 0.320800781
vt 0.0601501465 0.329101562
vt 0.0678710938 0.336425781
vt 0.0665893555 0.324707031
vt 0.0762329102 0.326416016
vt 0.0614624023 0.300292969
vt 0.0861816406 0.324707031
vt 0.0700683594 0.301025391
vt 0.062286377 0.283203125
vt 0.0949707031 0.322021484
vt 0.0796508789 0.300048828
vt 0.0681762695 0.28515625
vt 0.0672607422 0.275634766
vt 0.0758666992 0.284667969
vt 0.0733032227 0.276855469
vt 0.0686645508 0.278320312
vt 0.0720825195 0.2734375
vt 0.0769042969 0.272705078
vt 0.0880126953 0.297851562
vt 0.082824707 0.283447266
vt 0.0775756836 0.276367188
vt 0.0861816406 0.278076172
vt 0.0942993164 0.292236328
vt 0.101806641 0.314453125
vt 0.110595703 0.318847656
vt 0.126831055 0.325683594
vt 0.121459961 0.316894531
vt 0.131958008 0.300048828
vt 0.116455078 0.355712891
vt 0.13671875 0.305908203
vt 0.144165039 0.296386719
vt 0.140869141 0.290527344
vt 0.147216797 0.287597656
vt 0.1484375 0.292236328
vt 0.154907227 0.288574219
vt 0.152099609 0.294677734
vt 0.148925781 0.300048828
vt 0.143676758 0.310302734
vt 0.155273438 0.297851562
vt 0.160400391 0.293945312
vt 0.161499023 0.301025391
vt 0.154418945 0.302734375
vt 0.151367188 0.313476562
vt 0.158935547 0.313964844
vt 0.134277344 0.328857422
vt 0.142211914 0.331298828
vt 0.153076172 0.333251953
vt 0.151733398 0.340332031
vt 0.12890625 0.357666016
vt 0.153564453 0.348876953
vt 0.153808594 0.342529297
vt 0.171386719 0.34375
vt 0.17199707 0.337158203
vt 0.183105469 0.3359375
vt 0.181152344 0.341308594
vt 0.188964844 0.338867188
vt 0.188110352 0.342773438
vt 0.193969727 0.345458984
vt 0.189575195 0.347167969
vt 0.193359375 0.3515625
vt 0.182006836 0.348876953
vt 0.173217773 0.352539062
vt 0.157592773 0.358886719
vt 0.189819336 0.350585938
vt 0.189697266 0.357421875
vt 0.184570312 0.354248047
vt 0.181274414 0.362792969
vt 0.176391602 0.359130859
vt 0.161499023 0.365966797
vt 0.165771484 0.371337891
vt 0.13659668 0.368164062
vt 0.143310547 0.376708984
vt 0.154785156 0.382324219
vt 0.127807617 0.393554688
vt 0.141723633 0.398925781
vt 0.136352539 0.412109375
vt 0.115966797 0.222412109
vt 0.106140137 0.221435547
vt 0.111755371 0.224975586
vt 0.104553223 0.215820312
vt 0.114868164 0.213500977
vt 0.115905762 0.197753906
vt 0.107910156 0.196655273
vt 0.126464844 0.177856445
vt 0.0927124023 0.219238281
vt 0.0965576172 0.208862305
vt 0.0862426758 0.204711914
vt 0.0693969727 0.221191406
vt 0.0957641602 0.243041992
vt 0.101074219 0.227294922
vt 0.11315918 0.226074219
vt 0.111755371 0.231689453
vt 0.124023438 0.229248047
vt 0.102844238 0.193481445
vt 0.115844727 0.172851562
vt 0.120849609 0.17590332
vt 0.124511719 0.166137695
vt 0.130249023 0.165405273
vt 0.129150391 0.160400391
vt 0.102294922 0.241699219
vt 0.121032715 0.233764648
vt 0.127929688 0.233642578
vt 0.0983276367 0.189819336
vt 0.110473633 0.240966797
vt 0.125244141 0.235229492
vt 0.126220703 0.242675781
vt 0.120910645 0.240234375
vt 0.124389648 0.241088867
vt 0.122680664 0.245483398
vt 0.112182617 0.247436523
vt 0.103759766 0.249755859
vt 0.100952148 0.252685547
vt 0.091796875 0.263916016
vt 0.0776977539 0.261962891
vt 0.0755615234 0.243041992
vt 0.0632324219 0.262207031
vt 0.058013916 0.247924805
vt 0.052154541 0.228393555
vt 0.0466918945 0.251464844
vt 0.0485839844 0.263671875
vt 0.0409545898 0.240844727
vt 0.0294952393 0.251464844
vt 0.0317077637 0.263671875
vt 0.028427124 0.233032227
vt 0.0346679688 0.227905273
vt 0.0422973633 0.221069336
vt 0.0477905273 0.215576172
vt 0.0576782227 0.211791992
vt 0.0261993408 0.21862793
vt 0.0217590332 0.22277832
vt 0.0303344727 0.214111328
vt 0.0158538818 0.208618164
vt 0.0114974976 0.213256836
vt 0.00603485107 0.207641602
vt 0.0184936523 0.205322266
vt 0.0109939575 0.205200195
vt 0.00350952148 0.202514648
vt 0.0135421753 0.202026367
vt 0.00874328613 0.198852539
vt 0.00709152222 0.202148438
vt 0.00403213501 0.197387695
vt 0.00785064697 0.192016602
vt 0.0213928223 0.200561523
vt 0.0158996582 0.197265625
vt 0.0117034912 0.19519043
vt 0.0140228271 0.19140625
vt 0.0229797363 0.194702148
vt 0.0364685059 0.203491211
vt 0.0341491699 0.209594727
vt 0.0378417969 0.206542969
vt 0.0355834961 0.201416016
vt 0.0418395996 0.198242188
vt 0.0251922607 0.187255859
vt 0.0303955078 0.182861328
vt 0.0463256836 0.1953125
vt 0.0256958008 0.175292969
vt 0.0195770264 0.176757812
vt 0.0196380615 0.170288086
vt 0.0507507324 0.191894531
vt 0.0354919434 0.17956543
vt 0.0304260254 0.172363281
vt 0.0272979736 0.16809082
vt 0.0241851807 0.171264648
vt 0.0231628418 0.1640625
vt 0.0298309326 0.161621094
vt 0.0343933105 0.168457031
vt 0.0310516357 0.165649414
vt 0.036529541 0.163452148
vt 0.0401611328 0.176025391
vt 0.0449829102 0.172363281
vt 0.0552368164 0.186767578
vt 0.0602416992 0.198486328
vt 0.0648803711 0.208984375
vt 0.0651855469 0.188110352
vt 0.0563049316 0.189208984
vt 0.0744628906 0.205688477
vt 0.0703735352 0.187133789
vt 0.0596923828 0.168701172
vt 0.0542907715 0.170410156
vt 0.0511169434 0.156982422
vt 0.0560302734 0.156738281
vt 0.0551147461 0.149047852
vt 0.076171875 0.185546875
vt 0.0645751953 0.167480469
vt 0.0579528809 0.150634766
vt 0.0588378906 0.146972656
vt 0.0600280762 0.149902344
vt 0.0635375977 0.146850586
vt 0.0697631836 0.165771484
vt 0.0658569336 0.153686523
vt 0.060760498 0.155639648
vt 0.0624694824 0.149291992
vt 0.0699462891 0.150146484
vt 0.0755615234 0.162963867
vt 0.0827026367 0.181152344
vt 0.0883178711 0.18737793
vt 0.0930175781 0.183227539
vt 0.111328125 0.169311523
vt 0.105407715 0.165649414
vt 0.116882324 0.160644531
vt 0.113830566 0.15625
vt 0.118408203 0.154296875
vt 0.120544434 0.163696289
vt 0.11907959 0.158081055
vt 0.124755859 0.155639648
vt 0.122314453 0.16003418
vt 0.125244141 0.162719727
vt 0.210205078 0.446777344
vt 0.207763672 0.436767578
vt 0.189697266 0.441650391
vt 0.193603516 0.449707031
vt 0.16796875 0.442626953
vt 0.193603516 0.5
vt 0.21862793 0.493896484
vt 0.173339844 0.452392578
vt 0.151977539 0.444580078
vt 0.177246094 0.501953125
vt 0.155151367 0.452880859
vt 0.154174805 0.506347656
vt 0.131347656 0.4453125
vt 0.132080078 0.506347656
vt 0.132202148 0.454101562
vt 0.111755371 0.445068359
vt 0.108947754 0.454101562
vt 0.110168457 0.506347656
vt 0.0905761719 0.445556641
vt 0.0875244141 0.456787109
vt 0.085144043 0.504394531
vt 0.067199707 0.448486328
vt 0.0675048828 0.455810547
vt 0.0603942871 0.501464844
vt 0.0523681641 0.446777344
vt 0.0496826172 0.452880859
vt 0.0395812988 0.497558594
vt 0.0346374512 0.441650391
vt 0.0317993164 0.450683594
vt 0.0160980225 0.436767578
vt 0.0214080811 0.494628906
vt 0.00834655762 0.443847656
vt 0.00569915771 0.490722656
vt 0.0511779785 0.416992188
vt 0.0388793945 0.426757812
vt 0.0296173096 0.409667969
vt 0.0366821289 0.404296875
vt 0.0254974365 0.405029297
vt 0.031829834 0.400146484
vt 0.0149917603 0.395507812
vt 0.0482788086 0.384033203
vt 0.0208587646 0.391845703
vt 0.00503540039 0.384521484
vt 0.065612793 0.389404297
vt 0.0712280273 0.405517578
vt 0.0884399414 0.400390625
vt 0.0834350586 0.381835938
vt 0.105285645 0.401123047
vt 0.111633301 0.383789062
vt 0.106079102 0.353271484
vt 0.122802734 0.40625
vt 0.0419006348 0.385253906
vt 0.0107955933 0.383300781
vt 0.00421142578 0.378417969
vt 0.0615844727 0.365234375
vt 0.0500183105 0.371337891
vt 0.0293273926 0.381835938
vt 0.0314941406 0.372558594
vt 0.0428161621 0.376464844
vt 0.0187988281 0.376220703
vt 0.0189361572 0.368164062
vt 0.011505127 0.369140625
vt 0.00814819336 0.379394531
vt 0.0142364502 0.373535156
vt 0.0700073242 0.360351562
vt 0.0787353516 0.355712891
vt 0.0928344727 0.354248047
vt 0.0508728027 0.343505859
vt 0.0455322266 0.348388672
vt 0.038482666 0.354248047
vt 0.0198974609 0.334472656
vt 0.0258178711 0.330322266
vt 0.0120697021 0.322265625
vt 0.0313415527 0.325927734
vt 0.0562438965 0.338623047
vt 0.0171051025 0.320556641
vt 0.0213470459 0.316650391
vt 0.0176849365 0.313232422
vt 0.0149078369 0.316650391
vt 0.0111541748 0.316650391
vt 0.0134658813 0.309570312
vt 0.0201263428 0.305908203
vt 0.0248565674 0.3125
vt 0.0208892822 0.310302734
vt 0.0258789062 0.306152344
vt 0.0389099121 0.313476562
vt 0.0363769531 0.320800781
vt 0.0601501465 0.329101562
vt 0.0678710938 0.336425781
vt 0.0665893555 0.324707031
vt 0.0762329102 0.326416016
vt 0.0614624023 0.300292969
vt 0.0861816406 0.324707031
vt 0.0700683594 0.301025391
vt 0.062286377 0.283203125
vt 0.0949707031 0.322021484
vt 0.0796508789 0.300048828
vt 0.0681762695 0.28515625
vt 0.0672607422 0.275634766
vt 0.0758666992 0.284667969
vt 0.0733032227 0.276855469
vt 0.0686645508 0.278320312
vt 0.0720825195 0.273193359
vt 0.0769042969 0.272705078
vt 0.0880126953 0.297851562
vt 0.082824707 0.283447266
vt 0.0775756836 0.276367188
vt 0.0861816406 0.278076172
vt 0.0942993164 0.292236328
vt 0.101806641 0.314453125
vt 0.110595703 0.318847656
vt 0.126831055 0.325683594
vt 0.121459961 0.316894531
vt 0.131958008 0.300048828
vt 0.116455078 0.355712891
vt 0.13671875 0.305908203
vt 0.144165039 0.296386719
vt 0.140869141 0.290527344
vt 0.147216797 0.287597656
vt 0.1484375 0.292236328
vt 0.154907227 0.288574219
vt 0.152099609 0.294677734
vt 0.148925781 0.300048828
vt 0.143676758 0.310302734
vt 0.155273438 0.297851562
vt 0.160400391 0.293945312
vt 0.161499023 0.301025391
vt 0.154418945 0.302734375
vt 0.151367188 0.313476562
vt 0.158935547 0.313964844
vt 0.134277344 0.328857422
vt 0.142089844 0.331298828
vt 0.152954102 0.333251953
vt 0.151733398 0.340332031
vt 0.12890625 0.357666016
vt 0.153564453 0.348876953
vt 0.153808594 0.342529297
vt 0.171386719 0.34375
vt 0.17199707 0.337158203
vt 0.183105469 0.3359375
vt 0.181152344 0.341308594
vt 0.188964844 0.338867188
vt 0.188110352 0.342773438
vt 0.193969727 0.345214844
vt 0.189575195 0.347167969
vt 0.193359375 0.3515625
vt 0.182006836 0.348876953
vt 0.173217773 0.352539062
vt 0.157592773 0.358886719
vt 0.189819336 0.350341797
vt 0.189697266 0.357421875
vt 0.184570312 0.354248047
vt 0.181274414 0.362792969
vt 0.176391602 0.359130859
vt 0.161499023 0.365966797
vt 0.165771484 0.371337891
vt 0.13659668 0.368164062
vt 0.143310547 0.376708984
vt 0.154907227 0.382324219
vt 0.127807617 0.393554688
vt 0.141723633 0.398925781
vt 0.136352539 0.411865234
vt 0.115966797 0.222412109
vt 0.111755371 0.224975586
vt 0.106201172 0.221313477
vt 0.104553223 0.215820312
vt 0.114868164 0.213500977
vt 0.115905762 0.197753906
vt 0.107910156 0.196533203
vt 0.126464844 0.177734375
vt 0.0927124023 0.219238281
vt 0.0966186523 0.208740234
vt 0.0862426758 0.204711914
vt 0.0693969727 0.221191406
vt 0.0957641602 0.243041992
vt 0.101074219 0.227294922
vt 0.11315918 0.226074219
vt 0.111755371 0.231689453
vt 0.124023438 0.229248047
vt 0.102844238 0.193481445
vt 0.115844727 0.172851562
vt 0.120849609 0.17578125
vt 0.124511719 0.166137695
vt 0.130249023 0.165405273
vt 0.129150391 0.160400391
vt 0.102294922 0.241699219
vt 0.121032715 0.233642578
vt 0.127929688 0.233642578
vt 0.0983276367 0.189819336
vt 0.110473633 0.240966797
vt 0.125244141 0.235229492
vt 0.126220703 0.242675781
vt 0.120910645 0.240234375
vt 0.124450684 0.241088867
vt 0.122680664 0.245483398
vt 0.112182617 0.247314453
vt 0.103820801 0.249755859
vt 0.101013184 0.252685547
vt 0.0918579102 0.263916016
vt 0.0776977539 0.261962891
vt 0.0755615234 0.243041992
vt 0.0632324219 0.262207031
vt 0.0580444336 0.247924805
vt 0.052154541 0.228393555
vt 0.0467224121 0.251464844
vt 0.048614502 0.263671875
vt 0.0409851074 0.240844727
vt 0.029510498 0.251464844
vt 0.0317382812 0.263671875
vt 0.0284423828 0.233032227
vt 0.0346679688 0.227905273
vt 0.0422973633 0.221069336
vt 0.0477905273 0.215576172
vt 0.0576782227 0.211791992
vt 0.0262145996 0.21862793
vt 0.0217590332 0.222900391
vt 0.0303344727 0.214111328
vt 0.0158538818 0.208618164
vt 0.011505127 0.213378906
vt 0.00603103638 0.207641602
vt 0.0184936523 0.205322266
vt 0.0109863281 0.205322266
vt 0.00349807739 0.202514648
vt 0.0135269165 0.202026367
vt 0.00872802734 0.198852539
vt 0.00708007812 0.202148438
vt 0.00400924683 0.197387695
vt 0.00782012939 0.192016602
vt 0.0213775635 0.200561523
vt 0.0158843994 0.197265625
vt 0.0116882324 0.19519043
vt 0.013999939 0.19152832
vt 0.0229492188 0.194702148
vt 0.0364685059 0.203491211
vt 0.0341491699 0.209594727
vt 0.0378417969 0.206542969
vt 0.0355834961 0.201416016
vt 0.0418701172 0.198242188
vt 0.0252075195 0.187255859
vt 0.0303955078 0.182861328
vt 0.0463256836 0.1953125
vt 0.0257110596 0.175292969
vt 0.0195922852 0.176757812
vt 0.0196685791 0.170288086
vt 0.0507507324 0.191894531
vt 0.0355224609 0.17956543
vt 0.0304412842 0.172363281
vt 0.0273132324 0.16809082
vt 0.0242004395 0.171264648
vt 0.0231933594 0.1640625
vt 0.0298614502 0.161621094
vt 0.0343933105 0.168457031
vt 0.0310668945 0.165649414
vt 0.0365600586 0.163452148
vt 0.0401916504 0.176025391
vt 0.0449829102 0.172363281
vt 0.0552368164 0.186767578
vt 0.0602416992 0.198486328
vt 0.0648803711 0.208984375
vt 0.0651245117 0.188110352
vt 0.0563049316 0.189208984
vt 0.0744628906 0.205688477
vt 0.0596618652 0.168701172
vt 0.0542602539 0.170410156
vt 0.0510864258 0.156982422
vt 0.0703735352 0.187011719
vt 0.0559997559 0.156738281
vt 0.0550842285 0.149047852
vt 0.076171875 0.185546875
vt 0.0645141602 0.167480469
vt 0.0579223633 0.150634766
vt 0.0587768555 0.146972656
vt 0.0599975586 0.149902344
vt 0.0634765625 0.146850586
vt 0.0697631836 0.165771484
vt 0.0658569336 0.153686523
vt 0.0607299805 0.155639648
vt 0.0624084473 0.149291992
vt 0.0698852539 0.150146484
vt 0.0755615234 0.162841797
vt 0.0827026367 0.181152344
vt 0.0883178711 0.18737793
vt 0.0930175781 0.183227539
vt 0.111328125 0.169311523
vt 0.105407715 0.165649414
vt 0.116943359 0.160522461
vt 0.113830566 0.15625
vt 0.118408203 0.154296875
vt 0.120544434 0.163696289
vt 0.11907959 0.158081055
vt 0.124816895 0.155517578
vt 0.122375488 0.16003418
vt 0.125244141 0.162719727
vt 0.210205078 0.446777344
vt 0.189697266 0.441650391
vt 0.207763672 0.436767578
vt 0.193603516 0.449707031
vt 0.21862793 0.493896484
vt 0.16796875 0.442626953
vt 0.193603516 0.499755859
vt 0.173461914 0.452392578
vt 0.177368164 0.501953125
vt 0.151977539 0.444580078
vt 0.154174805 0.506347656
vt 0.155151367 0.452880859
vt 0.131347656 0.4453125
vt 0.132202148 0.454101562
vt 0.132080078 0.506347656
vt 0.111694336 0.445068359
vt 0.110168457 0.506347656
vt 0.108947754 0.453857422
vt 0.0905761719 0.445556641
vt 0.085144043 0.504394531
vt 0.0874633789 0.456787109
vt 0.0671386719 0.448486328
vt 0.0603637695 0.501464844
vt 0.0674438477 0.455810547
vt 0.0523376465 0.446777344
vt 0.0395507812 0.497558594
vt 0.049621582 0.452880859
vt 0.034576416 0.441650391
vt 0.0213775635 0.494628906
vt 0.0317687988 0.450683594
vt 0.0160369873 0.436767578
vt 0.00827789307 0.443847656
vt 0.00564575195 0.490722656
vt 0.205566406 0.431884766
vt 0.188842773 0.429931641
vt 0.197143555 0.400878906
vt 0.228881836 0.419189453
vt 0.170776367 0.423583984
vt 0.233276367 0.403564453
vt 0.16003418 0.405517578
vt 0.224731445 0.382080078
vt 0.166259766 0.381835938
vt 0.208740234 0.367675781
vt 0.184936523 0.3671875
vt 0.205566406 0.431884766
vt 0.197753906 0.398681641
vt 0.188720703 0.4296875
vt 0.228881836 0.419189453
vt 0.170776367 0.423583984
vt 0.233276367 0.403564453
vt 0.16003418 0.405273438
vt 0.224731445 0.382080078
vt 0.166381836 0.381835938
vt 0.208740234 0.367675781
vt 0.184936523 0.3671875
vn -0.337359756 0.941198111 -0.0182867106
vn -0.916463554 0.399310559 0.025409773
vn -0.969090462 0.110313848 0.220668226
vn -0.406458914 0.899104774 0.162485987
vn -0.950633645 0.272965282 -0.147599131
vn -0.216880381 0.964089692 0.153277665
vn -0.944238067 0.221138611 -0.243951485
vn 0.0442346111 0.83860141 0.542946517
vn -0.256355643 0.942666292 0.213686705
vn -0.956057608 0.0526061989 -0.288420588
vn 0.300615132 0.952681005 0.0450473465
vn 0.43635565 0.749836326 0.497332036
vn -0.0471596457 0.960065842 0.275770724
vn 0.784741044 0.53039217 -0.320726752
vn 0.965470672 0.0900075212 0.24446854
vn 0.960930824 -0.220051661 -0.167896524
vn 0.94102031 -0.0409446694 0.33586359
vn 0.892291844 -0.441739291 0.0931752548
vn 0.267890722 0.80617702 0.527554035
vn -0.515343726 0.661389887 0.544962466
vn -0.750753522 -0.49119851 0.441693515
vn 0.475259691 0.877968788 -0.0574384481
vn -0.0770060048 0.99701798 0.00502229156
vn 0.460949928 0.724389911 0.512625098
vn 0.828278959 -0.326042742 0.45568645
vn 0.363315642 -0.166224703 0.916717529
vn 0.223189265 0.480511189 0.848112941
vn 0.795919716 -0.403634161 0.451210827
vn 0.118074156 -0.669037282 0.733789921
vn -0.733336747 0.601216555 0.317420751
vn 0.39832601 0.434782058 0.80765152
vn 0.789427161 0.568115652 -0.232485145
vn 0.931443572 0.358791053 0.0606776029
vn 0.98654604 0.145671725 0.0742067248
vn 0.954783201 0.296103477 0.0266785901
vn 0.491130143 0.849012256 -0.194857076
vn -0.0773108974 0.955389559 -0.285050452
vn -0.0474920459 0.943448246 -0.328100502
vn 0.506901324 0.849865615 -0.144150496
vn -0.0463846847 0.982797623 -0.178766415
vn 0.946180046 0.24572961 0.210618675
vn 0.953101218 0.301090479 0.0307024214
vn 0.523269892 0.847377479 0.0902217776
vn 0.839767218 0.344248831 0.419861615
vn 0.32495901 0.444744587 0.834627986
vn 0.593620181 0.801988244 0.0665572956
vn -0.320367068 0.867398918 0.380767733
vn -0.424363136 0.364197701 0.829021156
vn -0.240514442 -0.440474778 0.864947915
vn 0.631778479 -0.470648944 0.615910292
vn -0.559462309 0.225610629 0.797559857
vn -0.0199576225 -0.887895942 0.459611237
vn -0.000147076265 -0.921432912 0.388537526
vn 0.95030725 0.273089588 0.149459898
vn 0.0772766843 -0.924724817 0.372709304
vn 0.350304544 0.744517088 0.568314254
vn -0.100779064 0.987591386 -0.120444231
vn 0.945500731 0.0332497321 0.323918104
vn -0.24153848 0.962058008 0.126899883
vn 0.88317585 0.00228408538 0.46903646
vn 0.0269251876 0.588896275 0.80776
vn -0.386541218 0.896765649 0.215400308
vn 0.543549955 -0.827830553 0.138744473
vn 0.234116331 -0.290242851 0.927873254
vn -0.230153382 0.353342175 0.906740665
vn -0.859830141 0.47825256 0.178791896
vn -0.0700860247 -0.390828282 0.917791486
vn -0.583047748 -0.43075186 0.688845515
vn -0.343455285 0.901394308 0.263679385
vn -0.964113176 -0.232985809 0.127292171
vn -0.588808715 -0.769136369 -0.248462319
vn 0.260736555 -0.911483705 0.318141431
vn 0.0806293562 -0.92979151 0.359147072
vn 0.250251323 -0.217363909 0.94346559
vn -0.014065736 -0.906000614 -0.423042655
vn 0.0657485053 -0.927941442 -0.366881162
vn 0.0659802109 -0.992396176 -0.103905298
vn -0.711119652 -0.244527102 0.659177661
vn 0.323492825 0.7944327 0.514032185
vn -0.157395124 0.953554094 0.2568295
vn -0.0674433112 0.984514594 0.161809862
vn 0.97789818 -0.0742388293 0.195457727
vn -0.0617286749 0.935712874 0.347319812
vn -0.0319693796 0.514653623 0.856801987
vn -0.115165107 0.934636772 0.336438805
vn -0.67751056 0.582259774 0.449391812
vn -0.0425934158 0.914963543 0.40128231
vn -0.951345384 -0.137805417 0.275593132
vn -0.489371121 -0.30590573 0.81666255
vn 0.0404990241 -0.266369909 0.963019669
vn 0.155899078 -0.308148265 0.938477576
vn 0.260643125 -0.230158642 0.937599063
vn -0.642957926 -0.765901506 -0.000107257976
vn -0.125762209 -0.962879479 -0.238845333
vn 0.00369890616 -0.917164147 0.398492336
vn -0.0639309883 -0.950992644 -0.302532494
vn -0.0948627517 -0.959053099 -0.266867429
vn 0.751675308 -0.226816788 0.619304717
vn 0.348108739 -0.908363104 0.231725737
vn -0.126674876 -0.987972081 -0.0886835828
vn -0.277130336 -0.944979548 0.173817202
vn 0.898100972 -0.272864968 0.344904721
vn 0.0789846182 0.885671854 0.457544416
vn -0.0831247941 0.956131279 0.280897439
vn 0.0998929664 0.521974564 0.847091496
vn 0.106716804 0.98082906 0.163051695
vn -0.0192778148 0.940771759 0.338491738
vn -0.0791653469 0.470528007 0.878826559
vn -0.680314004 0.67783314 0.278774112
vn 0.0151051534 0.850466192 0.525812924
vn -0.989310741 0.0926072672 -0.112641595
vn -0.680013716 -0.254956871 0.687443376
vn -0.653306782 -0.658767819 -0.37311545
vn -0.157591149 -0.30495441 0.939237893
vn 0.0173728447 -0.318453401 0.947779298
vn 0.663787484 -0.426359326 0.61449486
vn -0.109795876 -0.958732486 0.262253523
vn -0.273151904 -0.865670145 -0.419527382
vn -0.213414878 -0.921467423 0.324579567
vn -0.249010861 -0.894841731 -0.370475084
vn -0.138252169 -0.945381343 0.295195669
vn 0.26793763 -0.941302896 0.205324963
vn -0.119657651 -0.977371871 -0.174431309
vn 0.927838564 -0.372972071 0.002718125
vn 0.561650693 -0.82735455 0.00573544297
vn 0.0468022898 -0.975943029 -0.21294336
vn 0.781586945 -0.455421627 -0.426277906
vn 0.228094235 -0.927150488 -0.297262698
vn 0.420099676 -0.88660717 0.193504527
vn 0.0442346111 0.83860141 0.542946517
vn 0.363315642 -0.166224703 0.916717529
vn 0.267890722 0.80617702 0.527554035
vn -0.682774067 0.58693552 0.43511638
vn -0.0770060048 0.99701798 0.00502229156
vn -0.0773108974 0.955389559 -0.285050452
vn -0.558095336 0.808759034 -0.185575992
vn -0.0474920459 0.943448246 -0.328100502
vn -0.745055139 -0.374236286 0.552123129
vn -0.896879196 0.154322162 0.414478362
vn 0.249348447 -0.966310501 0.0637912676
vn -0.459157795 -0.374467582 0.805573165
vn -0.960190237 0.107119143 0.257992357
vn -0.274475574 -0.932073772 0.23643519
vn 0.828278959 -0.326042742 0.45568645
vn 0.11981041 -0.990189016 -0.0719105825
vn 0.795919716 -0.403634161 0.451210827
vn -0.9775424 0.149665862 0.148361266
vn -0.991984963 -0.0704842284 -0.104870468
vn -0.65419209 0.714953423 -0.246727347
vn -0.7056247 0.63043344 -0.323492616
vn -0.0463846847 0.982797623 -0.178766415
vn -0.320367068 0.867398918 0.380767733
vn -0.786038935 -0.610463917 -0.0973482057
vn 0.254827172 -0.895582318 -0.364685386
vn 0.118074156 -0.669037282 0.733789921
vn 0.133312449 -0.918967783 0.371114492
vn -0.670947731 -0.648759842 -0.359081656
vn -0.0416261032 -0.930767715 -0.363233835
vn -0.750753522 -0.49119851 0.441693515
vn -0.639639616 -0.745237648 -0.188366845
vn -0.0917591527 -0.98216933 -0.164084435
vn -0.956057608 0.0526061989 -0.288420588
vn -0.944238067 0.221138611 -0.243951485
vn -0.950633645 0.272965282 -0.147599131
vn -0.916463554 0.399310559 0.025409773
vn -0.969090462 0.110313848 0.220668226
vn -0.675435662 -0.318443209 0.665117025
vn -0.520437062 -0.369182587 0.769967198
vn -0.537123859 -0.578523576 0.613847256
vn -0.618342936 -0.580485165 0.529800892
vn -0.767064214 -0.544658363 0.339057237
vn -0.380897731 -0.894585252 0.233739719
vn -0.0691542923 -0.831357241 0.55141896
vn -0.147595257 -0.98734957 -0.0579360612
vn 0.228094235 -0.927150488 -0.297262698
vn 0.420099676 -0.88660717 0.193504527
vn 0.0468022898 -0.975943029 -0.21294336
vn -0.398726285 -0.91690743 0.0172707383
vn -0.963600636 -0.263928056 0.0426111221
vn -0.95223546 -0.178036228 0.248093992
vn -0.612255454 -0.26371178 0.745385349
vn -0.771347761 -0.55632031 -0.309079766
vn -0.119657651 -0.977371871 -0.174431309
vn -0.947605669 0.0603867322 -0.313682795
vn -0.509213209 -0.545229137 -0.665903211
vn -0.249010861 -0.894841731 -0.370475084
vn -0.273151904 -0.865670145 -0.419527382
vn -0.572456479 0.31330964 -0.757714093
vn -0.516272128 -0.527080834 -0.675017655
vn -0.653306782 -0.658767819 -0.37311545
vn -0.627177119 0.28832987 -0.723543167
vn -0.944024146 0.168465376 -0.28361553
vn -0.69339633 -0.45116818 -0.561826408
vn -0.989310741 0.0926072672 -0.112641595
vn -0.680314004 0.67783314 0.278774112
vn -0.249661118 0.927072465 -0.2796534
vn -0.0344565362 0.909899592 -0.413395196
vn 0.0151051534 0.850466192 0.525812924
vn -0.0192778148 0.940771759 0.338491738
vn 0.106716804 0.98082906 0.163051695
vn -0.0831247941 0.956131279 0.280897439
vn 0.12258517 0.886163294 0.446864098
vn -0.277130336 -0.944979548 0.173817202
vn -0.126674876 -0.987972081 -0.0886835828
vn -0.728869677 -0.584632933 -0.356304973
vn -0.0948627517 -0.959053099 -0.266867429
vn -0.0819809884 -0.961700678 -0.261554748
vn -0.952126086 0.141779691 -0.27083993
vn -0.504841268 -0.644781232 -0.573927104
vn -0.125762209 -0.962879479 -0.238845333
vn -0.642957926 -0.765901506 -0.000107257976
vn -0.67335552 0.73919642 -0.0134574678
vn -0.61391747 0.359648645 -0.702679157
vn -0.762492061 0.305535138 -0.570310593
vn -0.998309135 0.05812148 0.000860417844
vn -0.763184845 0.297461003 -0.573642612
vn -0.951345384 -0.137805417 0.275593132
vn -0.67751056 0.582259774 0.449391812
vn -0.518856525 0.851543188 -0.075247921
vn -0.0659641847 0.885811269 0.45933336
vn -0.115165107 0.934636772 0.336438805
vn -0.0547629669 0.930618703 0.361869901
vn -0.0674433112 0.984514594 0.161809862
vn -0.157395124 0.953554094 0.2568295
vn -0.711119652 -0.244527102 0.659177661
vn -0.955238879 -0.108909562 0.275059015
vn -0.988201439 0.0639917403 -0.139150694
vn 0.0659802109 -0.992396176 -0.103905298
vn -0.978469193 -0.111929007 0.173406899
vn -0.976146996 -0.0290428847 -0.215159044
vn -0.370242596 -0.59330833 -0.714776576
vn 0.0657485053 -0.927941442 -0.366881162
vn -0.014065736 -0.906000614 -0.423042655
vn -0.470188648 -0.619305909 -0.62879473
vn -0.588808715 -0.769136369 -0.248462319
vn -0.172816321 0.955636203 0.238524616
vn -0.679748893 0.160133928 -0.715750396
vn -0.378783107 0.411254227 -0.829091847
vn -0.964113176 -0.232985809 0.127292171
vn -0.746352434 0.14866586 -0.64873457
vn -0.859830141 0.47825256 0.178791896
vn -0.444034517 0.779420197 -0.44197017
vn -0.412158698 0.759068072 -0.503925443
vn -0.734903038 0.113516979 -0.668604016
vn -0.343455285 0.901394308 0.263679385
vn -0.386541218 0.896765649 0.215400308
vn -0.24153848 0.962058008 0.126899883
vn -0.100779064 0.987591386 -0.120444231
vn 0.350304544 0.744517088 0.568314254
vn 0.0772766843 -0.924724817 0.372709304
vn 0.102361426 -0.906754196 0.409046412
vn -0.000147076265 -0.921432912 0.388537526
vn -0.614261389 -0.766911328 0.185822502
vn -0.0199576225 -0.887895942 0.459611237
vn -0.240514442 -0.440474778 0.864947915
vn -0.975949168 -0.167496204 -0.139528736
vn -0.559462309 0.225610629 0.797559857
vn -0.424363136 0.364197701 0.829021156
vn -0.863904595 0.156104654 0.478852898
vn -0.60424906 0.748904467 -0.272075683
vn -0.725337446 -0.685947537 0.0579788499
vn -0.537123859 -0.578523576 0.613847256
vn -0.0691542923 -0.831357241 0.55141896
vn -0.289141506 -0.957124114 -0.0176230874
vn 0.420099676 -0.88660717 0.193504527
vn -0.00970643107 -0.837910771 -0.545720935
vn -0.518325925 -0.59565264 -0.613625407
vn 0.369483799 -0.915470898 -0.159357324
vn 0.892291844 -0.441739291 0.0931752548
vn 0.608470857 -0.699355006 -0.375054419
vn 0.832910061 -0.521686316 -0.184673265
vn 0.934604883 -0.255259275 -0.247702032
vn 0.965470672 0.0900075212 0.24446854
vn 0.953292191 0.261222214 -0.151647314
vn 0.997871518 0.0624657013 -0.0187239442
vn -0.0471596457 0.960065842 0.275770724
vn 0.756679893 0.653693736 -0.0109523647
vn 0.604352295 0.789345026 -0.108133011
vn 0.43635565 0.749836326 0.497332036
vn 0.226455301 0.948111057 0.223166481
vn 0.0282284282 0.994086027 -0.104861617
vn -0.337359756 0.941198111 -0.0182867106
vn -0.430179089 0.804819047 0.408915967
vn -0.577076137 0.802678287 -0.150634035
vn -0.969090462 0.110313848 0.220668226
vn -0.849194646 0.315193146 0.423699915
vn -0.902611256 0.24667187 -0.352769077
vn -0.675435662 -0.318443209 0.665117025
vn -0.929273427 -0.21692273 0.298990726
vn -0.537123859 -0.578523576 0.613847256
vn -0.774050891 -0.261754453 -0.576480508
vn -0.725337446 -0.685947537 0.0579788499
vn -0.518325925 -0.59565264 -0.613625407
vn -0.135554552 0.43025285 -0.892472684
vn 0.337962627 -0.613760531 -0.713497937
vn -0.0305603575 -0.269265741 -0.962580919
vn -0.0746731311 0.50278616 -0.861179411
vn -0.188326403 -0.326813221 -0.926135123
vn -0.260736734 0.733536065 -0.627647281
vn -0.133851469 -0.410909861 -0.90179646
vn 0.254373789 0.816410542 -0.518428206
vn -0.0645277351 0.706538558 -0.704726458
vn -0.0341480561 -0.516584098 -0.855555236
vn -0.169584572 0.832118809 -0.528033614
vn 0.374287099 0.908632338 -0.1851933
vn 0.398962826 0.643114507 -0.653630137
vn -0.591745615 0.777166367 -0.214125246
vn -0.298701435 0.768457711 0.565906584
vn -0.662552238 0.591792107 0.459137022
vn -0.460292339 0.850065351 0.25596875
vn -0.377965659 0.442445636 0.813255072
vn 0.123865798 0.974229813 -0.188503191
vn -0.00701578893 0.603781283 -0.797119081
vn 0.800068915 -0.224021688 -0.556510627
vn -0.114681579 0.722699225 -0.681581914
vn 0.195991129 0.35627234 -0.913595855
vn -0.0695066825 0.989171803 0.129259706
vn 0.48447147 0.315250784 0.816029608
vn 0.840618789 0.4845846 0.241945982
vn 0.173520312 0.980416954 -0.0931303576
vn 0.427255273 0.376164079 0.82216388
vn 0.944426656 0.191946104 0.26686129
vn -0.0706051663 0.325226724 -0.942996562
vn 0.143626899 0.985544622 0.0898500606
vn -0.505689204 0.769491673 -0.390078276
vn -0.439079225 0.893452168 -0.0946178734
vn -0.615478158 0.787024856 0.042172581
vn -0.533258855 0.833191097 -0.146381408
vn -0.184097499 0.603723586 -0.775645614
vn 0.207561538 0.183471024 -0.960862458
vn 0.161214828 0.193075195 -0.967849016
vn -0.319468588 0.508964539 -0.799309075
vn 0.176488563 0.343079925 -0.922576785
vn -0.747666717 0.651665807 -0.127773985
vn -0.547726154 0.817955911 -0.175909936
vn -0.358751565 0.621563375 -0.696388006
vn -0.697381794 0.707673013 -0.113391034
vn -0.114977166 0.992047429 0.051208172
vn -0.438333482 0.59400028 -0.674557209
vn 0.511765301 0.690002918 -0.511851847
vn 0.601328969 0.783293784 0.15765284
vn 0.297511309 0.442249686 0.846110046
vn -0.596123934 0.409387738 0.690679371
vn 0.705663145 0.656972706 0.265379757
vn -0.0528310426 -0.0754309073 0.995750427
vn -0.0709905401 -0.124624334 0.989661098
vn -0.77395159 0.602643251 -0.194474071
vn -0.142818525 -0.109592892 0.983662605
vn 0.462682068 0.842613041 -0.275551587
vn 0.283124447 0.250724167 -0.925731003
vn -0.597182214 0.796168447 0.0974122435
vn 0.321497917 0.215818644 -0.921987772
vn -0.515854716 0.842672884 0.154260606
vn -0.305118531 0.678765655 -0.667967021
vn 0.41265887 0.343354553 -0.843694508
vn -0.482822359 0.211014628 0.849914849
vn -0.73330611 0.67541194 0.0779803842
vn -0.268103898 0.816470027 -0.511367798
vn 0.674666226 0.647454798 -0.354440182
vn -0.602445602 0.779505074 0.171555147
vn -0.090640597 0.932367563 0.349964321
vn 0.352728128 0.352747381 -0.866690397
vn 0.585965812 0.727835774 0.356229186
vn 0.377624065 0.241121843 0.894013584
vn -0.608531833 0.177187458 0.773494422
vn -0.5334059 0.29507947 0.792720795
vn -0.810873985 0.582662284 -0.0546645373
vn 0.010326365 -0.247802287 0.968755603
vn -0.079883717 -0.344941616 0.935218632
vn -0.268966585 -0.286307722 0.919611335
vn 0.862517059 0.241721749 0.444561452
vn -0.00198171311 0.764492631 -0.644629419
vn 0.353915036 0.356789172 -0.864549398
vn 0.401710361 0.347512871 -0.847268224
vn -0.579563081 0.776173413 0.248317584
vn 0.286987811 0.513697207 -0.808549941
vn -0.233965725 0.825010598 -0.5144099
vn 0.322434813 0.54637146 -0.772990286
vn 0.4622145 0.864711523 -0.196549565
vn 0.227384672 0.554515898 -0.800504982
vn 0.404035777 0.710743606 0.575846076
vn -0.29595384 0.856280863 0.423313528
vn -0.713043571 0.693683684 0.101842433
vn -0.739015758 0.662068903 0.124580882
vn -0.826808572 0.561113119 -0.0392388776
vn 0.0633563325 0.177353382 0.982105732
vn -0.233140931 -0.342453539 0.910148859
vn -0.667995453 0.110945873 0.735848546
vn -0.224516675 -0.439029247 0.869968712
vn -0.230676278 -0.414054841 0.880537868
vn -0.599023044 0.755168021 0.266256779
vn -0.5815503 0.13735947 0.801830173
vn -0.344399899 -0.396681845 0.850900769
vn -0.0226495843 -0.23702386 0.971239686
vn -0.464243352 0.77000922 0.437680274
vn 0.442658752 0.683432937 -0.58049345
vn 0.576472342 0.466079593 -0.671155274
vn -0.0174194034 0.938913465 -0.343712121
vn 0.530672729 0.450841278 -0.717724621
vn 0.52288729 0.62311995 -0.581644535
vn 0.0529889502 0.983310938 -0.17404516
vn 0.797056854 0.598965168 0.0770779774
vn 0.372975051 0.761846662 -0.529602885
vn 0.744901836 0.0999081209 0.659651101
vn 0.0247133318 0.676145375 0.736353576
vn 0.115541495 -0.445159167 0.887965918
vn -0.438137174 0.801755488 0.406477571
vn -0.563872874 0.774445832 0.286846906
vn -0.653231561 0.678858876 0.335319668
vn -0.665905237 -0.047879912 0.744498312
vn -0.253602117 -0.622474134 0.740413308
vn -0.595887184 0.040409945 0.802050829
vn -0.306394041 -0.590610445 0.746526659
vn -0.650242507 -0.00791495945 0.759685457
vn -0.62059474 0.0798546821 0.780054748
vn -0.395206243 -0.46577853 0.791746438
vn -0.70803827 0.580385923 0.402285933
vn -0.540052712 0.20814608 0.81548661
vn -0.419787019 -0.394613892 0.817348599
vn -0.75535804 0.327800155 0.567433953
vn -0.477628917 -0.284064144 0.831371307
vn -0.0853142738 -0.102490313 0.991068721
vn 0.254373789 0.816410542 -0.518428206
vn 0.123865798 0.974229813 -0.188503191
vn 0.840618789 0.4845846 0.241945982
vn 0.486103296 0.184606448 -0.854180336
vn 0.195991129 0.35627234 -0.913595855
vn 0.207561538 0.183471024 -0.960862458
vn 0.563700318 -0.17410408 -0.807421565
vn 0.161214828 0.193075195 -0.967849016
vn 0.863664925 -0.437387288 -0.250549912
vn 0.838018835 -0.451281756 -0.306706905
vn -0.26199013 -0.101735242 0.959693313
vn 0.871353745 -0.403518021 0.279134154
vn 0.311566651 -0.398539037 -0.862608254
vn 0.738040984 -0.674674571 0.0104748718
vn 0.48447147 0.315250784 0.816029608
vn 0.514782012 -0.74475491 0.42466411
vn 0.427255273 0.376164079 0.82216388
vn 0.811305285 -0.578335941 -0.0855049342
vn 0.857678235 -0.513150752 0.0326230749
vn 0.698066711 -0.104548529 -0.708359003
vn 0.73939395 -0.100611649 -0.665713072
vn 0.176488563 0.343079925 -0.922576785
vn 0.511765301 0.690002918 -0.511851847
vn 0.309836149 -0.837894261 -0.449371547
vn 0.348387152 -0.698699117 0.62485677
vn 0.944426656 0.191946104 0.26686129
vn -0.201883152 -0.0779853314 0.976299882
vn 0.171791002 -0.92277509 -0.344926059
vn 0.435237736 -0.822017848 0.367225856
vn 0.800068915 -0.224021688 -0.556510627
vn 0.354853153 -0.899060369 -0.256456107
vn 0.689235568 -0.701458514 0.181411549
vn -0.0341480561 -0.516584098 -0.855555236
vn -0.133851469 -0.410909861 -0.90179646
vn -0.188326403 -0.326813221 -0.926135123
vn -0.0305603575 -0.269265741 -0.962580919
vn 0.337962627 -0.613760531 -0.713497937
vn 0.810295939 -0.575377941 -0.111178726
vn 0.761677504 -0.617870271 -0.19515048
vn 0.757017493 -0.631037414 0.169458613
vn 0.653074384 -0.698754847 0.291951269
vn 0.596954048 -0.719037652 0.355852216
vn 0.270372152 -0.715701938 0.643948436
vn 0.504381061 -0.47432524 0.721536756
vn -0.0958944559 -0.541985452 0.834898889
vn -0.477628917 -0.284064144 0.831371307
vn -0.0853142738 -0.102490313 0.991068721
vn -0.419787019 -0.394613892 0.817348599
vn 0.0848245993 -0.607497573 0.789779425
vn 0.675206304 -0.673862934 0.300008595
vn 0.821955621 -0.468023151 0.324566394
vn 0.868345201 -0.470258325 0.15758732
vn 0.342192471 -0.749464571 0.566751301
vn -0.395206243 -0.46577853 0.791746438
vn 0.724562883 -0.684155822 0.0833035633
vn 0.194149658 -0.843688786 0.500494778
vn -0.306394041 -0.590610445 0.746526659
vn -0.253602117 -0.622474134 0.740413308
vn 0.717005312 -0.687511146 -0.115029439
vn 0.221096978 -0.843210995 0.490011573
vn 0.115541495 -0.445159167 0.887965918
vn 0.750182152 -0.65841341 -0.060979981
vn 0.916592836 -0.273230404 0.291895002
vn 0.421762556 -0.702227056 0.57357955
vn 0.744901836 0.0999081209 0.659651101
vn 0.797056854 0.598965168 0.0770779774
vn 0.778797865 -0.0724736899 -0.623074234
vn 0.805429578 -0.0439435393 -0.591060162
vn 0.294455469 0.758405149 -0.581478834
vn 0.52288729 0.62311995 -0.581644535
vn 0.530672729 0.450841278 -0.717724621
vn 0.576472342 0.466079593 -0.671155274
vn 0.446297705 0.68492049 -0.575936019
vn -0.0226495843 -0.23702386 0.971239686
vn -0.344399899 -0.396681845 0.850900769
vn 0.399693668 -0.721057773 0.565968812
vn -0.230676278 -0.414054841 0.880537868
vn -0.226205498 -0.451458603 0.863143265
vn 0.817453742 -0.567980289 -0.0957483277
vn 0.382720023 -0.648184538 0.658317626
vn -0.233140931 -0.342453539 0.910148859
vn 0.0633563325 0.177353382 0.982105732
vn 0.766235113 -0.101002045 -0.634572566
vn 0.78507936 -0.583198071 -0.208639488
vn 0.87815994 -0.463036984 -0.120132327
vn 0.972378731 0.101907156 0.209987119
vn 0.869668126 -0.480882227 -0.111488171
vn 0.404035777 0.710743606 0.575846076
vn 0.4622145 0.864711523 -0.196549565
vn 0.695616722 0.0159882847 -0.718235135
vn 0.157833979 0.542941928 -0.824804544
vn 0.322434813 0.54637146 -0.772990286
vn 0.261551768 0.510622799 -0.819057405
vn 0.401710361 0.347512871 -0.847268224
vn 0.353915036 0.356789172 -0.864549398
vn 0.862517059 0.241721749 0.444561452
vn 0.935255408 -0.32301873 0.144762889
vn 0.881733418 -0.461935639 -0.0957165137
vn -0.268966585 -0.286307722 0.919611335
vn 0.899602711 -0.431090832 0.0698257536
vn 0.420010418 -0.668487668 0.613771498
vn -0.079883717 -0.344941616 0.935218632
vn 0.010326365 -0.247802287 0.968755603
vn 0.835445344 -0.548643589 -0.0319585465
vn 0.464668989 -0.613026679 0.638968766
vn 0.377624065 0.241121843 0.894013584
vn 0.296390444 0.337246418 -0.893542171
vn 0.784231544 -0.618319511 -0.0515930429
vn 0.893605649 -0.427752584 -0.1360019
vn 0.585965812 0.727835774 0.356229186
vn 0.990146697 -0.0358064063 0.13537848
vn 0.674666226 0.647454798 -0.354440182
vn 0.721488297 -0.277304888 -0.634473503
vn 0.773526371 -0.250387937 -0.582205176
vn 0.804573357 -0.593851149 -0.00158415269
vn 0.352728128 0.352747381 -0.866690397
vn 0.41265887 0.343354553 -0.843694508
vn 0.321497917 0.215818644 -0.921987772
vn 0.283124447 0.250724167 -0.925731003
vn 0.462682068 0.842613041 -0.275551587
vn -0.142818525 -0.109592892 0.983662605
vn -0.17286098 -0.0817323029 0.981549323
vn -0.0709905401 -0.124624334 0.989661098
vn 0.503349066 -0.370640069 0.780554771
vn -0.0528310426 -0.0754309073 0.995750427
vn 0.297511309 0.442249686 0.846110046
vn 0.902267754 -0.413840204 0.121033393
vn 0.705663145 0.656972706 0.265379757
vn 0.601328969 0.783293784 0.15765284
vn 0.941561639 0.290160686 0.171080291
vn 0.667770147 0.0247030668 -0.74395752
vn 0.365585595 -0.925363421 -0.100248665
vn 0.504381061 -0.47432524 0.721536756
vn 0.757017493 -0.631037414 0.169458613
vn -0.0304611903 -0.904288828 0.425833017
vn -0.0976445675 -0.597977698 -0.795542717
vn -0.0853142738 -0.102490313 0.991068721
vn -0.58777082 -0.655596197 -0.474045485
vn -0.5475806 -0.308690578 0.777731001
vn -0.939957142 -0.337801427 0.0486903675
vn -0.377965659 0.442445636 0.813255072
vn -0.911630332 0.150025323 0.382651955
vn -0.731209576 0.19744128 0.652954519
vn -0.298701435 0.768457711 0.565906584
vn -0.660251498 0.619883478 0.424043149
vn -0.615877569 0.57231009 0.541438699
vn 0.398962826 0.643114507 -0.653630137
vn -0.149724513 0.909990489 0.386652172
vn -0.35975945 0.932167172 0.040465951
vn 0.374287099 0.908632338 -0.1851933
vn 0.301065356 0.951964557 -0.055885002
vn 0.0535611436 0.913662553 -0.402929306
vn -0.135554552 0.43025285 -0.892472684
vn 0.588992834 0.587229609 -0.55520159
vn 0.31408903 0.485440403 -0.815901756
vn 0.337962627 -0.613760531 -0.713497937
vn 0.511605442 0.00436588563 -0.859209478
vn 0.511373997 -0.162138432 -0.843923986
vn 0.810295939 -0.575377941 -0.111178726
vn 0.227632433 -0.380396307 -0.896371663
vn 0.579900801 -0.639215112 -0.505093157
vn 0.757017493 -0.631037414 0.169458613
vn 0.365585595 -0.925363421 -0.100248665
vn -0.0976445675 -0.597977698 -0.795542717
vn -0.0976445675 -0.597977698 -0.795542717
vn 0.227632433 -0.380396307 -0.896371663
vn -0.525822103 0.4896532 -0.69552201
vn -0.58777082 -0.655596197 -0.474045485
vn 0.511605442 0.00436588563 -0.859209478
vn -0.939957142 -0.337801427 0.0486903675
vn 0.588992834 0.587229609 -0.55520159
vn -0.911630332 0.150025323 0.382651955
vn 0.301065356 0.951964557 -0.055885002
vn -0.615877569 0.57231009 0.541438699
vn -0.149724513 0.909990489 0.386652172
vn -0.518325925 -0.59565264 -0.613625407
vn 0.270039082 0.309656769 -0.91169709
vn -0.774050891 -0.261754453 -0.576480508
vn -0.00970643107 -0.837910771 -0.545720935
vn -0.902611256 0.24667187 -0.352769077
vn 0.608470857 -0.699355006 -0.375054419
vn -0.577076137 0.802678287 -0.150634035
vn 0.934604883 -0.255259275 -0.247702032
vn 0.0282284282 0.994086027 -0.104861617
vn 0.953292191 0.261222214 -0.151647314
vn 0.604352295 0.789345026 -0.108133011
g MadInventor_Hands_0
f 3/3/3 2/2/2 1/1/1
f 2/2/2 4/4/4 1/1/1
f 4/4/4 2/2/2 5/5/5
f 6/6/6 4/4/4 5/5/5
f 6/6/6 5/5/5 7/7/7
f 4/4/4 8/8/8 1/1/1
f 4/4/4 6/6/6 8/8/8
f 9/9/9 6/6/6 7/7/7
f 9/9/9 7/7/7 10/10/10
f 8/8/8 11/11/11 1/1/1
f 1/1/1 11/11/11 12/12/12
f 12/12/12 11/11/11 13/13/13
f 11/11/11 14/14/14 13/13/13
f 13/13/13 14/14/14 15/15/15
f 14/14/14 16/16/16 15/15/15
f 17/17/17 16/16/16 14/14/14
f 18/18/18 15/15/15 16/16/16
f 6/6/6 19/19/19 8/8/8
f 19/19/19 6/6/6 9/9/9
f 20/20/20 9/9/9 10/10/10
f 10/10/10 21/21/21 20/20/20
f 22/22/22 11/11/11 8/8/8
f 23/23/23 22/22/22 8/8/8
f 24/24/24 19/19/19 9/9/9
f 9/9/9 20/20/20 24/24/24
f 24/24/24 25/25/25 19/19/19
f 25/25/25 26/26/26 19/19/19
f 24/24/24 27/27/27 25/25/25
f 20/20/20 27/27/27 24/24/24
f 27/27/27 28/28/28 25/25/25
f 28/28/28 27/27/27 29/29/29
f 21/21/21 30/30/30 20/20/20
f 20/20/20 30/30/30 27/27/27
f 27/27/27 31/31/31 29/29/29
f 29/29/29 31/31/31 21/21/21
f 30/30/30 31/31/31 27/27/27
f 31/31/31 30/30/30 21/21/21
f 11/11/11 22/22/22 32/32/32
f 14/14/14 11/11/11 32/32/32
f 32/32/32 33/33/33 14/14/14
f 34/34/34 14/14/14 33/33/33
f 32/32/32 35/35/35 33/33/33
f 32/32/32 22/22/22 35/35/35
f 34/34/34 17/17/17 14/14/14
f 22/22/22 36/36/36 35/35/35
f 36/36/36 22/22/22 23/23/23
f 37/37/37 36/36/36 23/23/23
f 37/37/37 38/38/38 36/36/36
f 38/38/38 39/39/39 36/36/36
f 39/39/39 38/38/38 40/40/40
f 35/35/35 36/36/36 41/41/41
f 36/36/36 39/39/39 41/41/41
f 35/35/35 42/42/42 33/33/33
f 35/35/35 41/41/41 42/42/42
f 43/43/43 39/39/39 40/40/40
f 44/44/44 41/41/41 39/39/39
f 43/43/43 44/44/44 39/39/39
f 44/44/44 43/43/43 45/45/45
f 43/43/43 40/40/40 46/46/46
f 43/43/43 46/46/46 45/45/45
f 40/40/40 47/47/47 46/46/46
f 45/45/45 46/46/46 47/47/47
f 48/48/48 45/45/45 47/47/47
f 48/48/48 49/49/49 45/45/45
f 44/44/44 50/50/50 41/41/41
f 44/44/44 45/45/45 50/50/50
f 49/49/49 51/51/51 45/45/45
f 45/45/45 51/51/51 50/50/50
f 49/49/49 52/52/52 51/51/51
f 52/52/52 50/50/50 51/51/51
f 52/52/52 53/53/53 50/50/50
f 50/50/50 54/54/54 41/41/41
f 53/53/53 54/54/54 50/50/50
f 41/41/41 54/54/54 42/42/42
f 54/54/54 53/53/53 42/42/42
f 53/53/53 55/55/55 42/42/42
f 42/42/42 55/55/55 33/33/33
f 55/55/55 56/56/56 33/33/33
f 56/56/56 57/57/57 33/33/33
f 57/57/57 58/58/58 33/33/33
f 58/58/58 57/57/57 59/59/59
f 58/58/58 60/60/60 33/33/33
f 60/60/60 34/34/34 33/33/33
f 61/61/61 58/58/58 59/59/59
f 61/61/61 59/59/59 62/62/62
f 60/60/60 63/63/63 34/34/34
f 63/63/63 17/17/17 34/34/34
f 60/60/60 58/58/58 64/64/64
f 58/58/58 61/61/61 64/64/64
f 60/60/60 64/64/64 63/63/63
f 65/65/65 61/61/61 62/62/62
f 62/62/62 66/66/66 65/65/65
f 64/64/64 61/61/61 67/67/67
f 61/61/61 65/65/65 67/67/67
f 67/67/67 65/65/65 68/68/68
f 66/66/66 69/69/69 65/65/65
f 65/65/65 69/69/69 68/68/68
f 68/68/68 69/69/69 66/66/66
f 70/70/70 68/68/68 66/66/66
f 70/70/70 71/71/71 68/68/68
f 64/64/64 67/67/67 72/72/72
f 64/64/64 72/72/72 63/63/63
f 67/67/67 68/68/68 73/73/73
f 67/67/67 73/73/73 72/72/72
f 71/71/71 74/74/74 68/68/68
f 68/68/68 74/74/74 73/73/73
f 73/73/73 74/74/74 71/71/71
f 75/75/75 73/73/73 71/71/71
f 73/73/73 75/75/75 76/76/76
f 72/72/72 73/73/73 76/76/76
f 72/72/72 76/76/76 63/63/63
f 76/76/76 77/77/77 63/63/63
f 63/63/63 77/77/77 17/17/17
f 77/77/77 78/78/78 17/17/17
f 79/79/79 17/17/17 78/78/78
f 80/80/80 79/79/79 78/78/78
f 80/80/80 81/81/81 79/79/79
f 17/17/17 79/79/79 82/82/82
f 16/16/16 17/17/17 82/82/82
f 81/81/81 83/83/83 79/79/79
f 84/84/84 83/83/83 81/81/81
f 85/85/85 84/84/84 81/81/81
f 85/85/85 86/86/86 84/84/84
f 86/86/86 87/87/87 84/84/84
f 87/87/87 86/86/86 88/88/88
f 84/84/84 87/87/87 89/89/89
f 89/89/89 87/87/87 88/88/88
f 83/83/83 84/84/84 90/90/90
f 90/90/90 84/84/84 89/89/89
f 79/79/79 83/83/83 91/91/91
f 91/91/91 83/83/83 90/90/90
f 89/89/89 88/88/88 92/92/92
f 88/88/88 93/93/93 92/92/92
f 92/92/92 93/93/93 94/94/94
f 89/89/89 92/92/92 95/95/95
f 90/90/90 89/89/89 95/95/95
f 95/95/95 92/92/92 94/94/94
f 90/90/90 95/95/95 96/96/96
f 95/95/95 94/94/94 96/96/96
f 91/91/91 90/90/90 96/96/96
f 94/94/94 97/97/97 96/96/96
f 98/98/98 79/79/79 91/91/91
f 98/98/98 91/91/91 96/96/96
f 79/79/79 98/98/98 82/82/82
f 99/99/99 96/96/96 97/97/97
f 99/99/99 98/98/98 96/96/96
f 82/82/82 98/98/98 99/99/99
f 100/100/100 99/99/99 97/97/97
f 99/99/99 100/100/100 101/101/101
f 102/102/102 82/82/82 99/99/99
f 102/102/102 99/99/99 101/101/101
f 82/82/82 102/102/102 16/16/16
f 102/102/102 101/101/101 103/103/103
f 101/101/101 104/104/104 103/103/103
f 103/103/103 104/104/104 105/105/105
f 104/104/104 106/106/106 105/105/105
f 106/106/106 107/107/107 105/105/105
f 107/107/107 108/108/108 105/105/105
f 107/107/107 109/109/109 108/108/108
f 109/109/109 110/110/110 108/108/108
f 109/109/109 111/111/111 110/110/110
f 111/111/111 112/112/112 110/110/110
f 108/108/108 110/110/110 112/112/112
f 111/111/111 113/113/113 112/112/112
f 105/105/105 108/108/108 114/114/114
f 114/114/114 108/108/108 112/112/112
f 103/103/103 105/105/105 115/115/115
f 115/115/115 105/105/105 114/114/114
f 103/103/103 116/116/116 102/102/102
f 116/116/116 103/103/103 115/115/115
f 113/113/113 117/117/117 112/112/112
f 117/117/117 113/113/113 118/118/118
f 112/112/112 117/117/117 119/119/119
f 119/119/119 117/117/117 118/118/118
f 114/114/114 112/112/112 119/119/119
f 119/119/119 118/118/118 120/120/120
f 114/114/114 119/119/119 121/121/121
f 115/115/115 114/114/114 121/121/121
f 121/121/121 119/119/119 120/120/120
f 115/115/115 121/121/121 122/122/122
f 121/121/121 120/120/120 122/122/122
f 116/116/116 115/115/115 122/122/122
f 120/120/120 123/123/123 122/122/122
f 116/116/116 124/124/124 102/102/102
f 116/116/116 122/122/122 124/124/124
f 16/16/16 102/102/102 124/124/124
f 122/122/122 123/123/123 125/125/125
f 122/122/122 125/125/125 124/124/124
f 123/123/123 126/126/126 125/125/125
f 127/127/127 16/16/16 124/124/124
f 124/124/124 125/125/125 127/127/127
f 127/127/127 125/125/125 126/126/126
f 127/127/127 18/18/18 16/16/16
f 128/128/128 127/127/127 126/126/126
f 18/18/18 127/127/127 128/128/128
f 129/129/129 18/18/18 128/128/128
f 132/132/132 131/131/131 130/130/130
f 131/131/131 133/133/133 130/130/130
f 130/130/130 133/133/133 134/134/134
f 135/135/135 134/134/134 133/133/133
f 136/136/136 135/135/135 133/133/133
f 135/135/135 136/136/136 137/137/137
f 138/138/138 133/133/133 131/131/131
f 133/133/133 139/139/139 136/136/136
f 139/139/139 133/133/133 138/138/138
f 138/138/138 140/140/140 139/139/139
f 138/138/138 141/141/141 140/140/140
f 141/141/141 138/138/138 142/142/142
f 143/143/143 138/138/138 131/131/131
f 142/142/142 138/138/138 143/143/143
f 143/143/143 131/131/131 144/144/144
f 145/145/145 143/143/143 144/144/144
f 145/145/145 144/144/144 146/146/146
f 139/139/139 147/147/147 136/136/136
f 139/139/139 140/140/140 147/147/147
f 147/147/147 148/148/148 136/136/136
f 136/136/136 149/149/149 137/137/137
f 148/148/148 149/149/149 136/136/136
f 137/137/137 149/149/149 150/150/150
f 150/150/150 149/149/149 148/148/148
f 151/151/151 137/137/137 150/150/150
f 151/151/151 150/150/150 152/152/152
f 153/153/153 142/142/142 143/143/143
f 153/153/153 143/143/143 145/145/145
f 154/154/154 145/145/145 146/146/146
f 146/146/146 155/155/155 154/154/154
f 147/147/147 156/156/156 148/148/148
f 140/140/140 156/156/156 147/147/147
f 157/157/157 153/153/153 145/145/145
f 145/145/145 154/154/154 157/157/157
f 155/155/155 158/158/158 154/154/154
f 155/155/155 159/159/159 158/158/158
f 160/160/160 154/154/154 158/158/158
f 154/154/154 160/160/160 157/157/157
f 159/159/159 161/161/161 158/158/158
f 161/161/161 160/160/160 158/158/158
f 160/160/160 161/161/161 159/159/159
f 162/162/162 160/160/160 159/159/159
f 160/160/160 162/162/162 163/163/163
f 157/157/157 160/160/160 163/163/163
f 163/163/163 164/164/164 157/157/157
f 164/164/164 153/153/153 157/157/157
f 164/164/164 165/165/165 153/153/153
f 165/165/165 142/142/142 153/153/153
f 166/166/166 142/142/142 165/165/165
f 142/142/142 166/166/166 167/167/167
f 168/168/168 142/142/142 167/167/167
f 168/168/168 167/167/167 169/169/169
f 168/168/168 141/141/141 142/142/142
f 170/170/170 168/168/168 169/169/169
f 141/141/141 168/168/168 171/171/171
f 168/168/168 170/170/170 171/171/171
f 172/172/172 170/170/170 169/169/169
f 173/173/173 172/172/172 169/169/169
f 172/172/172 174/174/174 170/170/170
f 174/174/174 171/171/171 170/170/170
f 175/175/175 172/172/172 173/173/173
f 174/174/174 172/172/172 175/175/175
f 176/176/176 175/175/175 173/173/173
f 175/175/175 177/177/177 174/174/174
f 177/177/177 178/178/178 174/174/174
f 171/171/171 174/174/174 179/179/179
f 174/174/174 178/178/178 179/179/179
f 179/179/179 180/180/180 171/171/171
f 180/180/180 181/181/181 171/171/171
f 181/181/181 141/141/141 171/171/171
f 182/182/182 178/178/178 177/177/177
f 183/183/183 182/182/182 177/177/177
f 179/179/179 178/178/178 184/184/184
f 179/179/179 184/184/184 180/180/180
f 178/178/178 182/182/182 184/184/184
f 185/185/185 182/182/182 183/183/183
f 186/186/186 185/185/185 183/183/183
f 186/186/186 187/187/187 185/185/185
f 188/188/188 184/184/184 182/182/182
f 185/185/185 188/188/188 182/182/182
f 187/187/187 189/189/189 185/185/185
f 187/187/187 190/190/190 189/189/189
f 188/188/188 185/185/185 191/191/191
f 185/185/185 189/189/189 191/191/191
f 191/191/191 189/189/189 192/192/192
f 190/190/190 193/193/193 189/189/189
f 189/189/189 193/193/193 192/192/192
f 192/192/192 193/193/193 190/190/190
f 194/194/194 192/192/192 190/190/190
f 194/194/194 195/195/195 192/192/192
f 188/188/188 196/196/196 184/184/184
f 188/188/188 191/191/191 196/196/196
f 191/191/191 192/192/192 197/197/197
f 191/191/191 197/197/197 196/196/196
f 195/195/195 198/198/198 192/192/192
f 192/192/192 198/198/198 197/197/197
f 197/197/197 198/198/198 195/195/195
f 199/199/199 197/197/197 195/195/195
f 199/199/199 200/200/200 197/197/197
f 200/200/200 196/196/196 197/197/197
f 196/196/196 200/200/200 201/201/201
f 196/196/196 202/202/202 184/184/184
f 202/202/202 196/196/196 201/201/201
f 184/184/184 202/202/202 180/180/180
f 180/180/180 202/202/202 201/201/201
f 203/203/203 180/180/180 201/201/201
f 203/203/203 204/204/204 180/180/180
f 204/204/204 205/205/205 180/180/180
f 180/180/180 205/205/205 181/181/181
f 204/204/204 206/206/206 205/205/205
f 206/206/206 207/207/207 205/205/205
f 205/205/205 208/208/208 181/181/181
f 208/208/208 205/205/205 207/207/207
f 209/209/209 207/207/207 206/206/206
f 210/210/210 209/209/209 206/206/206
f 210/210/210 211/211/211 209/209/209
f 181/181/181 208/208/208 212/212/212
f 213/213/213 208/208/208 207/207/207
f 208/208/208 213/213/213 212/212/212
f 209/209/209 214/214/214 207/207/207
f 214/214/214 213/213/213 207/207/207
f 214/214/214 209/209/209 215/215/215
f 211/211/211 216/216/216 209/209/209
f 209/209/209 216/216/216 215/215/215
f 215/215/215 216/216/216 211/211/211
f 217/217/217 215/215/215 211/211/211
f 217/217/217 218/218/218 215/215/215
f 214/214/214 219/219/219 213/213/213
f 214/214/214 215/215/215 219/219/219
f 218/218/218 220/220/220 215/215/215
f 215/215/215 220/220/220 219/219/219
f 220/220/220 218/218/218 221/221/221
f 219/219/219 220/220/220 221/221/221
f 219/219/219 222/222/222 213/213/213
f 219/219/219 221/221/221 222/222/222
f 213/213/213 222/222/222 212/212/212
f 221/221/221 223/223/223 222/222/222
f 223/223/223 224/224/224 222/222/222
f 224/224/224 212/212/212 222/222/222
f 224/224/224 225/225/225 212/212/212
f 225/225/225 226/226/226 212/212/212
f 226/226/226 181/181/181 212/212/212
f 181/181/181 226/226/226 141/141/141
f 227/227/227 226/226/226 225/225/225
f 228/228/228 227/227/227 225/225/225
f 141/141/141 226/226/226 229/229/229
f 141/141/141 229/229/229 140/140/140
f 227/227/227 230/230/230 226/226/226
f 230/230/230 229/229/229 226/226/226
f 231/231/231 227/227/227 228/228/228
f 230/230/230 227/227/227 231/231/231
f 232/232/232 231/231/231 228/228/228
f 232/232/232 233/233/233 231/231/231
f 233/233/233 234/234/234 231/231/231
f 233/233/233 235/235/235 234/234/234
f 236/236/236 140/140/140 229/229/229
f 230/230/230 236/236/236 229/229/229
f 237/237/237 230/230/230 231/231/231
f 237/237/237 231/231/231 234/234/234
f 235/235/235 238/238/238 234/234/234
f 235/235/235 239/239/239 238/238/238
f 239/239/239 240/240/240 238/238/238
f 234/234/234 238/238/238 240/240/240
f 239/239/239 241/241/241 240/240/240
f 242/242/242 236/236/236 230/230/230
f 237/237/237 242/242/242 230/230/230
f 243/243/243 242/242/242 237/237/237
f 244/244/244 237/237/237 234/234/234
f 244/244/244 234/234/234 240/240/240
f 244/244/244 243/243/243 237/237/237
f 244/244/244 240/240/240 243/243/243
f 241/241/241 245/245/245 240/240/240
f 240/240/240 245/245/245 243/243/243
f 243/243/243 245/245/245 241/241/241
f 246/246/246 243/243/243 241/241/241
f 243/243/243 246/246/246 247/247/247
f 242/242/242 243/243/243 247/247/247
f 242/242/242 247/247/247 236/236/236
f 247/247/247 248/248/248 236/236/236
f 140/140/140 236/236/236 248/248/248
f 249/249/249 140/140/140 248/248/248
f 156/156/156 140/140/140 249/249/249
f 250/250/250 156/156/156 249/249/249
f 251/251/251 156/156/156 250/250/250
f 252/252/252 251/251/251 250/250/250
f 253/253/253 251/251/251 252/252/252
f 156/156/156 251/251/251 148/148/148
f 148/148/148 251/251/251 253/253/253
f 254/254/254 253/253/253 252/252/252
f 254/254/254 255/255/255 253/253/253
f 256/256/256 148/148/148 253/253/253
f 256/256/256 150/150/150 148/148/148
f 255/255/255 257/257/257 253/253/253
f 255/255/255 258/258/258 257/257/257
f 253/253/253 257/257/257 259/259/259
f 258/258/258 259/259/259 257/257/257
f 256/256/256 253/253/253 259/259/259
f 258/258/258 152/152/152 259/259/259
f 150/150/150 260/260/260 152/152/152
f 150/150/150 256/256/256 260/260/260
f 152/152/152 260/260/260 259/259/259
f 256/256/256 259/259/259 260/260/260
f 263/263/263 262/262/262 261/261/261
f 264/264/264 263/263/263 261/261/261
f 265/265/265 263/263/263 264/264/264
f 264/264/264 261/261/261 266/266/266
f 261/261/261 267/267/267 266/266/266
f 268/268/268 265/265/265 264/264/264
f 264/264/264 266/266/266 268/268/268
f 265/265/265 268/268/268 269/269/269
f 266/266/266 270/270/270 268/268/268
f 268/268/268 271/271/271 269/269/269
f 268/268/268 270/270/270 271/271/271
f 270/270/270 272/272/272 271/271/271
f 269/269/269 271/271/271 273/273/273
f 272/272/272 274/274/274 271/271/271
f 271/271/271 275/275/275 273/273/273
f 274/274/274 275/275/275 271/271/271
f 273/273/273 275/275/275 276/276/276
f 275/275/275 274/274/274 277/277/277
f 275/275/275 277/277/277 276/276/276
f 274/274/274 278/278/278 277/277/277
f 276/276/276 277/277/277 279/279/279
f 277/277/277 278/278/278 280/280/280
f 277/277/277 280/280/280 279/279/279
f 278/278/278 281/281/281 280/280/280
f 279/279/279 280/280/280 282/282/282
f 280/280/280 281/281/281 283/283/283
f 280/280/280 283/283/283 282/282/282
f 281/281/281 284/284/284 283/283/283
f 282/282/282 283/283/283 285/285/285
f 283/283/283 284/284/284 286/286/286
f 283/283/283 286/286/286 285/285/285
f 284/284/284 287/287/287 286/286/286
f 285/285/285 286/286/286 288/288/288
f 286/286/286 287/287/287 289/289/289
f 286/286/286 289/289/289 288/288/288
f 290/290/290 288/288/288 289/289/289
f 287/287/287 291/291/291 289/289/289
f 292/292/292 290/290/290 289/289/289
f 289/289/289 291/291/291 292/292/292
f 291/291/291 293/293/293 292/292/292
f 296/296/296 295/295/295 294/294/294
f 297/297/297 296/296/296 294/294/294
f 296/296/296 297/297/297 298/298/298
f 297/297/297 299/299/299 298/298/298
f 298/298/298 299/299/299 300/300/300
f 301/301/301 297/297/297 294/294/294
f 299/299/299 297/297/297 301/301/301
f 299/299/299 302/302/302 300/300/300
f 300/300/300 302/302/302 303/303/303
f 304/304/304 301/301/301 294/294/294
f 304/304/304 294/294/294 305/305/305
f 304/304/304 305/305/305 306/306/306
f 307/307/307 304/304/304 306/306/306
f 307/307/307 306/306/306 308/308/308
f 309/309/309 307/307/307 308/308/308
f 309/309/309 310/310/310 307/307/307
f 308/308/308 311/311/311 309/309/309
f 312/312/312 299/299/299 301/301/301
f 299/299/299 312/312/312 302/302/302
f 302/302/302 313/313/313 303/303/303
f 314/314/314 303/303/303 313/313/313
f 304/304/304 315/315/315 301/301/301
f 315/315/315 316/316/316 301/301/301
f 312/312/312 317/317/317 302/302/302
f 313/313/313 302/302/302 317/317/317
f 318/318/318 317/317/317 312/312/312
f 319/319/319 318/318/318 312/312/312
f 320/320/320 317/317/317 318/318/318
f 320/320/320 313/313/313 317/317/317
f 321/321/321 320/320/320 318/318/318
f 320/320/320 321/321/321 322/322/322
f 323/323/323 314/314/314 313/313/313
f 323/323/323 313/313/313 320/320/320
f 324/324/324 320/320/320 322/322/322
f 324/324/324 322/322/322 314/314/314
f 324/324/324 323/323/323 320/320/320
f 323/323/323 324/324/324 314/314/314
f 315/315/315 304/304/304 325/325/325
f 304/304/304 307/307/307 325/325/325
f 326/326/326 325/325/325 307/307/307
f 307/307/307 327/327/327 326/326/326
f 328/328/328 325/325/325 326/326/326
f 315/315/315 325/325/325 328/328/328
f 310/310/310 327/327/327 307/307/307
f 329/329/329 315/315/315 328/328/328
f 315/315/315 329/329/329 316/316/316
f 329/329/329 330/330/330 316/316/316
f 331/331/331 330/330/330 329/329/329
f 332/332/332 331/331/331 329/329/329
f 331/331/331 332/332/332 333/333/333
f 329/329/329 328/328/328 334/334/334
f 332/332/332 329/329/329 334/334/334
f 335/335/335 328/328/328 326/326/326
f 334/334/334 328/328/328 335/335/335
f 332/332/332 336/336/336 333/333/333
f 334/334/334 337/337/337 332/332/332
f 337/337/337 336/336/336 332/332/332
f 336/336/336 337/337/337 338/338/338
f 333/333/333 336/336/336 339/339/339
f 339/339/339 336/336/336 338/338/338
f 340/340/340 333/333/333 339/339/339
f 339/339/339 338/338/338 340/340/340
f 338/338/338 341/341/341 340/340/340
f 342/342/342 341/341/341 338/338/338
f 343/343/343 337/337/337 334/334/334
f 338/338/338 337/337/337 343/343/343
f 344/344/344 342/342/342 338/338/338
f 344/344/344 338/338/338 343/343/343
f 345/345/345 342/342/342 344/344/344
f 343/343/343 345/345/345 344/344/344
f 346/346/346 345/345/345 343/343/343
f 347/347/347 343/343/343 334/334/334
f 347/347/347 346/346/346 343/343/343
f 347/347/347 334/334/334 335/335/335
f 346/346/346 347/347/347 335/335/335
f 348/348/348 346/346/346 335/335/335
f 348/348/348 335/335/335 326/326/326
f 349/349/349 348/348/348 326/326/326
f 350/350/350 349/349/349 326/326/326
f 351/351/351 350/350/350 326/326/326
f 350/350/350 351/351/351 352/352/352
f 353/353/353 351/351/351 326/326/326
f 327/327/327 353/353/353 326/326/326
f 351/351/351 354/354/354 352/352/352
f 352/352/352 354/354/354 355/355/355
f 356/356/356 353/353/353 327/327/327
f 310/310/310 356/356/356 327/327/327
f 351/351/351 353/353/353 357/357/357
f 354/354/354 351/351/351 357/357/357
f 357/357/357 353/353/353 356/356/356
f 354/354/354 358/358/358 355/355/355
f 359/359/359 355/355/355 358/358/358
f 354/354/354 357/357/357 360/360/360
f 358/358/358 354/354/354 360/360/360
f 358/358/358 360/360/360 361/361/361
f 362/362/362 359/359/359 358/358/358
f 362/362/362 358/358/358 361/361/361
f 362/362/362 361/361/361 359/359/359
f 361/361/361 363/363/363 359/359/359
f 364/364/364 363/363/363 361/361/361
f 360/360/360 357/357/357 365/365/365
f 365/365/365 357/357/357 356/356/356
f 361/361/361 360/360/360 366/366/366
f 366/366/366 360/360/360 365/365/365
f 367/367/367 364/364/364 361/361/361
f 367/367/367 361/361/361 366/366/366
f 367/367/367 366/366/366 364/364/364
f 366/366/366 368/368/368 364/364/364
f 368/368/368 366/366/366 369/369/369
f 366/366/366 365/365/365 369/369/369
f 369/369/369 365/365/365 356/356/356
f 370/370/370 369/369/369 356/356/356
f 370/370/370 356/356/356 310/310/310
f 371/371/371 370/370/370 310/310/310
f 310/310/310 372/372/372 371/371/371
f 372/372/372 373/373/373 371/371/371
f 374/374/374 373/373/373 372/372/372
f 372/372/372 310/310/310 375/375/375
f 310/310/310 309/309/309 375/375/375
f 376/376/376 374/374/374 372/372/372
f 376/376/376 377/377/377 374/374/374
f 377/377/377 378/378/378 374/374/374
f 379/379/379 378/378/378 377/377/377
f 380/380/380 379/379/379 377/377/377
f 379/379/379 380/380/380 381/381/381
f 380/380/380 377/377/377 382/382/382
f 380/380/380 382/382/382 381/381/381
f 377/377/377 376/376/376 383/383/383
f 377/377/377 383/383/383 382/382/382
f 376/376/376 372/372/372 384/384/384
f 376/376/376 384/384/384 383/383/383
f 381/381/381 382/382/382 385/385/385
f 386/386/386 381/381/381 385/385/385
f 386/386/386 385/385/385 387/387/387
f 385/385/385 382/382/382 388/388/388
f 382/382/382 383/383/383 388/388/388
f 385/385/385 388/388/388 387/387/387
f 388/388/388 383/383/383 389/389/389
f 387/387/387 388/388/388 389/389/389
f 383/383/383 384/384/384 389/389/389
f 390/390/390 387/387/387 389/389/389
f 372/372/372 391/391/391 384/384/384
f 384/384/384 391/391/391 389/389/389
f 391/391/391 372/372/372 375/375/375
f 389/389/389 392/392/392 390/390/390
f 391/391/391 392/392/392 389/389/389
f 391/391/391 375/375/375 392/392/392
f 392/392/392 393/393/393 390/390/390
f 393/393/393 392/392/392 394/394/394
f 375/375/375 395/395/395 392/392/392
f 392/392/392 395/395/395 394/394/394
f 395/395/395 375/375/375 309/309/309
f 394/394/394 395/395/395 396/396/396
f 397/397/397 394/394/394 396/396/396
f 397/397/397 396/396/396 398/398/398
f 399/399/399 397/397/397 398/398/398
f 400/400/400 399/399/399 398/398/398
f 401/401/401 400/400/400 398/398/398
f 402/402/402 400/400/400 401/401/401
f 403/403/403 402/402/402 401/401/401
f 404/404/404 402/402/402 403/403/403
f 405/405/405 404/404/404 403/403/403
f 403/403/403 401/401/401 405/405/405
f 406/406/406 404/404/404 405/405/405
f 401/401/401 398/398/398 407/407/407
f 401/401/401 407/407/407 405/405/405
f 398/398/398 396/396/396 408/408/408
f 398/398/398 408/408/408 407/407/407
f 409/409/409 396/396/396 395/395/395
f 396/396/396 409/409/409 408/408/408
f 410/410/410 406/406/406 405/405/405
f 406/406/406 410/410/410 411/411/411
f 410/410/410 405/405/405 412/412/412
f 410/410/410 412/412/412 411/411/411
f 405/405/405 407/407/407 412/412/412
f 411/411/411 412/412/412 413/413/413
f 412/412/412 407/407/407 414/414/414
f 407/407/407 408/408/408 414/414/414
f 412/412/412 414/414/414 413/413/413
f 414/414/414 408/408/408 415/415/415
f 413/413/413 414/414/414 415/415/415
f 408/408/408 409/409/409 415/415/415
f 416/416/416 413/413/413 415/415/415
f 417/417/417 409/409/409 395/395/395
f 415/415/415 409/409/409 417/417/417
f 395/395/395 309/309/309 417/417/417
f 416/416/416 415/415/415 418/418/418
f 418/418/418 415/415/415 417/417/417
f 419/419/419 416/416/416 418/418/418
f 309/309/309 420/420/420 417/417/417
f 418/418/418 417/417/417 420/420/420
f 418/418/418 420/420/420 419/419/419
f 311/311/311 420/420/420 309/309/309
f 420/420/420 421/421/421 419/419/419
f 420/420/420 311/311/311 421/421/421
f 311/311/311 422/422/422 421/421/421
f 425/425/425 424/424/424 423/423/423
f 426/426/426 425/425/425 423/423/423
f 426/426/426 423/423/423 427/427/427
f 427/427/427 428/428/428 426/426/426
f 428/428/428 429/429/429 426/426/426
f 429/429/429 428/428/428 430/430/430
f 426/426/426 431/431/431 425/425/425
f 432/432/432 426/426/426 429/429/429
f 426/426/426 432/432/432 431/431/431
f 433/433/433 431/431/431 432/432/432
f 434/434/434 431/431/431 433/433/433
f 431/431/431 434/434/434 435/435/435
f 431/431/431 436/436/436 425/425/425
f 431/431/431 435/435/435 436/436/436
f 425/425/425 436/436/436 437/437/437
f 436/436/436 438/438/438 437/437/437
f 437/437/437 438/438/438 439/439/439
f 440/440/440 432/432/432 429/429/429
f 433/433/433 432/432/432 440/440/440
f 441/441/441 440/440/440 429/429/429
f 442/442/442 429/429/429 430/430/430
f 442/442/442 441/441/441 429/429/429
f 442/442/442 430/430/430 443/443/443
f 442/442/442 443/443/443 441/441/441
f 430/430/430 444/444/444 443/443/443
f 443/443/443 444/444/444 445/445/445
f 436/436/436 446/446/446 438/438/438
f 435/435/435 446/446/446 436/436/436
f 438/438/438 447/447/447 439/439/439
f 448/448/448 439/439/439 447/447/447
f 449/449/449 433/433/433 440/440/440
f 449/449/449 440/440/440 441/441/441
f 446/446/446 450/450/450 438/438/438
f 447/447/447 438/438/438 450/450/450
f 451/451/451 448/448/448 447/447/447
f 452/452/452 448/448/448 451/451/451
f 447/447/447 453/453/453 451/451/451
f 453/453/453 447/447/447 450/450/450
f 454/454/454 452/452/452 451/451/451
f 453/453/453 454/454/454 451/451/451
f 454/454/454 453/453/453 452/452/452
f 453/453/453 455/455/455 452/452/452
f 455/455/455 453/453/453 456/456/456
f 453/453/453 450/450/450 456/456/456
f 457/457/457 456/456/456 450/450/450
f 446/446/446 457/457/457 450/450/450
f 458/458/458 457/457/457 446/446/446
f 435/435/435 458/458/458 446/446/446
f 435/435/435 459/459/459 458/458/458
f 459/459/459 435/435/435 460/460/460
f 435/435/435 461/461/461 460/460/460
f 460/460/460 461/461/461 462/462/462
f 434/434/434 461/461/461 435/435/435
f 461/461/461 463/463/463 462/462/462
f 461/461/461 434/434/434 464/464/464
f 463/463/463 461/461/461 464/464/464
f 463/463/463 465/465/465 462/462/462
f 465/465/465 466/466/466 462/462/462
f 467/467/467 465/465/465 463/463/463
f 464/464/464 467/467/467 463/463/463
f 465/465/465 468/468/468 466/466/466
f 465/465/465 467/467/467 468/468/468
f 468/468/468 469/469/469 466/466/466
f 470/470/470 468/468/468 467/467/467
f 471/471/471 470/470/470 467/467/467
f 467/467/467 464/464/464 472/472/472
f 471/471/471 467/467/467 472/472/472
f 473/473/473 472/472/472 464/464/464
f 474/474/474 473/473/473 464/464/464
f 434/434/434 474/474/474 464/464/464
f 471/471/471 475/475/475 470/470/470
f 475/475/475 476/476/476 470/470/470
f 471/471/471 472/472/472 477/477/477
f 477/477/477 472/472/472 473/473/473
f 475/475/475 471/471/471 477/477/477
f 475/475/475 478/478/478 476/476/476
f 478/478/478 479/479/479 476/476/476
f 480/480/480 479/479/479 478/478/478
f 477/477/477 481/481/481 475/475/475
f 481/481/481 478/478/478 475/475/475
f 482/482/482 480/480/480 478/478/478
f 483/483/483 480/480/480 482/482/482
f 478/478/478 481/481/481 484/484/484
f 482/482/482 478/478/478 484/484/484
f 482/482/482 484/484/484 485/485/485
f 486/486/486 483/483/483 482/482/482
f 486/486/486 482/482/482 485/485/485
f 486/486/486 485/485/485 483/483/483
f 485/485/485 487/487/487 483/483/483
f 488/488/488 487/487/487 485/485/485
f 489/489/489 481/481/481 477/477/477
f 484/484/484 481/481/481 489/489/489
f 485/485/485 484/484/484 490/490/490
f 490/490/490 484/484/484 489/489/489
f 491/491/491 488/488/488 485/485/485
f 491/491/491 485/485/485 490/490/490
f 491/491/491 490/490/490 488/488/488
f 490/490/490 492/492/492 488/488/488
f 493/493/493 492/492/492 490/490/490
f 489/489/489 493/493/493 490/490/490
f 493/493/493 489/489/489 494/494/494
f 495/495/495 489/489/489 477/477/477
f 489/489/489 495/495/495 494/494/494
f 495/495/495 477/477/477 473/473/473
f 495/495/495 473/473/473 494/494/494
f 473/473/473 496/496/496 494/494/494
f 497/497/497 496/496/496 473/473/473
f 498/498/498 497/497/497 473/473/473
f 498/498/498 473/473/473 474/474/474
f 499/499/499 497/497/497 498/498/498
f 500/500/500 499/499/499 498/498/498
f 501/501/501 498/498/498 474/474/474
f 498/498/498 501/501/501 500/500/500
f 500/500/500 502/502/502 499/499/499
f 502/502/502 503/503/503 499/499/499
f 504/504/504 503/503/503 502/502/502
f 501/501/501 474/474/474 505/505/505
f 501/501/501 506/506/506 500/500/500
f 506/506/506 501/501/501 505/505/505
f 507/507/507 502/502/502 500/500/500
f 506/506/506 507/507/507 500/500/500
f 502/502/502 507/507/507 508/508/508
f 509/509/509 504/504/504 502/502/502
f 509/509/509 502/502/502 508/508/508
f 509/509/509 508/508/508 504/504/504
f 508/508/508 510/510/510 504/504/504
f 511/511/511 510/510/510 508/508/508
f 512/512/512 507/507/507 506/506/506
f 508/508/508 507/507/507 512/512/512
f 513/513/513 511/511/511 508/508/508
f 513/513/513 508/508/508 512/512/512
f 511/511/511 513/513/513 514/514/514
f 513/513/513 512/512/512 514/514/514
f 515/515/515 512/512/512 506/506/506
f 514/514/514 512/512/512 515/515/515
f 515/515/515 506/506/506 505/505/505
f 516/516/516 514/514/514 515/515/515
f 517/517/517 516/516/516 515/515/515
f 505/505/505 517/517/517 515/515/515
f 518/518/518 517/517/517 505/505/505
f 519/519/519 518/518/518 505/505/505
f 474/474/474 519/519/519 505/505/505
f 519/519/519 474/474/474 434/434/434
f 519/519/519 520/520/520 518/518/518
f 520/520/520 521/521/521 518/518/518
f 519/519/519 434/434/434 522/522/522
f 522/522/522 434/434/434 433/433/433
f 520/520/520 523/523/523 521/521/521
f 523/523/523 524/524/524 521/521/521
f 525/525/525 524/524/524 523/523/523
f 526/526/526 520/520/520 519/519/519
f 522/522/522 526/526/526 519/519/519
f 520/520/520 526/526/526 523/523/523
f 527/527/527 525/525/525 523/523/523
f 528/528/528 525/525/525 527/527/527
f 433/433/433 529/529/529 522/522/522
f 529/529/529 526/526/526 522/522/522
f 526/526/526 530/530/530 523/523/523
f 523/523/523 530/530/530 527/527/527
f 531/531/531 528/528/528 527/527/527
f 532/532/532 528/528/528 531/531/531
f 533/533/533 532/532/532 531/531/531
f 531/531/531 527/527/527 533/533/533
f 534/534/534 532/532/532 533/533/533
f 529/529/529 535/535/535 526/526/526
f 535/535/535 530/530/530 526/526/526
f 535/535/535 536/536/536 530/530/530
f 530/530/530 537/537/537 527/527/527
f 527/527/527 537/537/537 533/533/533
f 536/536/536 537/537/537 530/530/530
f 533/533/533 537/537/537 536/536/536
f 538/538/538 534/534/534 533/533/533
f 538/538/538 533/533/533 536/536/536
f 538/538/538 536/536/536 534/534/534
f 536/536/536 539/539/539 534/534/534
f 539/539/539 536/536/536 540/540/540
f 536/536/536 535/535/535 540/540/540
f 540/540/540 535/535/535 529/529/529
f 541/541/541 540/540/540 529/529/529
f 529/529/529 433/433/433 541/541/541
f 433/433/433 542/542/542 541/541/541
f 433/433/433 449/449/449 542/542/542
f 449/449/449 543/543/543 542/542/542
f 449/449/449 544/544/544 543/543/543
f 544/544/544 545/545/545 543/543/543
f 544/544/544 546/546/546 545/545/545
f 544/544/544 449/449/449 441/441/441
f 544/544/544 441/441/441 546/546/546
f 546/546/546 547/547/547 545/545/545
f 548/548/548 547/547/547 546/546/546
f 441/441/441 549/549/549 546/546/546
f 443/443/443 549/549/549 441/441/441
f 550/550/550 548/548/548 546/546/546
f 551/551/551 548/548/548 550/550/550
f 550/550/550 546/546/546 552/552/552
f 552/552/552 551/551/551 550/550/550
f 546/546/546 549/549/549 552/552/552
f 445/445/445 551/551/551 552/552/552
f 553/553/553 443/443/443 445/445/445
f 549/549/549 443/443/443 553/553/553
f 553/553/553 445/445/445 552/552/552
f 552/552/552 549/549/549 553/553/553
f 556/556/556 555/555/555 554/554/554
f 555/555/555 557/557/557 554/554/554
f 558/558/558 554/554/554 557/557/557
f 555/555/555 559/559/559 557/557/557
f 560/560/560 558/558/558 557/557/557
f 559/559/559 561/561/561 557/557/557
f 560/560/560 557/557/557 561/561/561
f 562/562/562 560/560/560 561/561/561
f 561/561/561 559/559/559 563/563/563
f 562/562/562 561/561/561 564/564/564
f 565/565/565 561/561/561 563/563/563
f 561/561/561 565/565/565 564/564/564
f 565/565/565 563/563/563 566/566/566
f 565/565/565 567/567/567 564/564/564
f 567/567/567 565/565/565 566/566/566
f 567/567/567 568/568/568 564/564/564
f 567/567/567 566/566/566 569/569/569
f 568/568/568 567/567/567 570/570/570
f 571/571/571 567/567/567 569/569/569
f 567/567/567 571/571/571 570/570/570
f 571/571/571 569/569/569 572/572/572
f 570/570/570 571/571/571 573/573/573
f 574/574/574 571/571/571 572/572/572
f 571/571/571 574/574/574 573/573/573
f 574/574/574 572/572/572 575/575/575
f 573/573/573 574/574/574 576/576/576
f 577/577/577 574/574/574 575/575/575
f 574/574/574 577/577/577 576/576/576
f 577/577/577 575/575/575 578/578/578
f 576/576/576 577/577/577 579/579/579
f 580/580/580 577/577/577 578/578/578
f 577/577/577 580/580/580 579/579/579
f 580/580/580 578/578/578 581/581/581
f 579/579/579 580/580/580 582/582/582
f 583/583/583 580/580/580 581/581/581
f 580/580/580 583/583/583 582/582/582
f 581/581/581 584/584/584 583/583/583
f 584/584/584 585/585/585 583/583/583
f 582/582/582 583/583/583 585/585/585
f 586/586/586 582/582/582 585/585/585
f 589/589/589 588/588/588 587/587/587
f 589/589/589 587/587/587 590/590/590
f 589/589/589 591/591/591 588/588/588
f 589/589/589 590/590/590 592/592/592
f 589/589/589 593/593/593 591/591/591
f 589/589/589 592/592/592 594/594/594
f 589/589/589 595/595/595 593/593/593
f 589/589/589 594/594/594 596/596/596
f 589/589/589 597/597/597 595/595/595
f 589/589/589 596/596/596 597/597/597
f 600/600/600 599/599/599 598/598/598
f 598/598/598 599/599/599 601/601/601
f 602/602/602 599/599/599 600/600/600
f 601/601/601 599/599/599 603/603/603
f 604/604/604 599/599/599 602/602/602
f 603/603/603 599/599/599 605/605/605
f 606/606/606 599/599/599 604/604/604
f 605/605/605 599/599/599 607/607/607
f 608/608/608 599/599/599 606/606/606
f 607/607/607 599/599/599 608/608/608
