g IS4_MDL_EscenarioPB_FocoPared_1
v 0.0576865785 0.0819215104 -0.145278886
v 0.0576865785 0.0819215104 -0.115255684
v 1.03639684E-06 0.105814025 -0.115255684
v 1.03639684E-06 0.105814025 -0.145278886
v -0.0576845109 0.0819215104 -0.115255684
v -0.0576845109 0.0819215104 -0.145278886
v -0.0576845109 0.0819215104 -0.145278886
v -0.0576845109 0.0819215104 -0.115255684
v -0.0815761089 0.0242390167 -0.115255684
v -0.0815761089 0.0242390167 -0.145278886
v -0.0815761089 0.0242390167 -0.145278886
v -0.0815761089 0.0242390167 -0.115255684
v -0.0576845109 -0.0334437825 -0.115255684
v -0.0576845109 -0.0334437825 -0.145278886
v -0.0576845109 -0.0334437825 -0.145278886
v -0.0576845109 -0.0334437825 -0.115255684
v 1.03639684E-06 -0.0573362969 -0.115255684
v 1.03639684E-06 -0.0573362969 -0.145278886
v 0.0576865785 -0.0334437825 -0.115255684
v 0.0576865785 -0.0334437825 -0.145278886
v 0.0576865785 -0.0334437825 -0.145278886
v 0.0576865785 -0.0334437825 -0.115255684
v 0.0815781876 0.0242390167 -0.115255684
v 0.0815781876 0.0242390167 -0.145278886
v 0.0815781876 0.0242390167 -0.145278886
v 0.0815781876 0.0242390167 -0.115255684
v 0.0576865785 0.0819215104 -0.115255684
v 0.0576865785 0.0819215104 -0.145278886
v 0.0642393157 -0.101954527 -0.00814966764
v 1.03639684E-06 0.0188798252 -0.0263634715
v 1.03639684E-06 -0.10581439 -0.034473978
v 0.0457627513 0.0216303747 -0.00760798017
v 0.0908408836 -0.0926341489 0.0554022714
v 1.03639684E-06 0.0625895411 -0.00958139915
v 0.0295420513 0.0643656701 0.00252400804
v 1.03639684E-06 0.0927247331 0.0282188933
v 0.0417783782 0.068650946 0.0317493193
v 1.03639684E-06 -0.10581439 -0.034473978
v -0.0457655676 0.0216303747 -0.00760798017
v -0.0642225966 -0.101954527 -0.00814966764
v 1.03639684E-06 0.0188798252 -0.0263634715
v -0.0295350943 0.0643656701 0.00252400804
v 1.03639684E-06 0.0625895411 -0.00958139915
v 1.03639684E-06 0.0927247331 0.0282188933
v -0.0417714268 0.068650946 0.0317493193
v -0.064715758 0.0282703899 0.0376712568
v -0.0642225966 -0.101954527 -0.00814966764
v -0.0457655676 0.0216303747 -0.00760798017
v -0.064715758 0.0282703899 0.0376712568
v -0.0908388048 -0.0926341489 0.0554022714
v -0.0457655676 0.0349104032 0.0829509422
v -0.0642225966 -0.0833140835 0.118954666
v -0.0642225966 -0.0833140835 0.118954666
v 1.03639684E-06 0.0376609527 0.101706281
v 1.03639684E-06 -0.0794536024 0.145278975
v -0.0457655676 0.0349104032 0.0829509422
v 1.03639684E-06 0.0747129545 0.073080495
v -0.0295350943 0.0729368329 0.0609746315
v -0.064715758 0.0282703899 0.0376712568
v 1.03639684E-06 0.0927247331 0.0282188933
v -0.0417714268 0.068650946 0.0317493193
v 1.03639684E-06 -0.0794536024 0.145278975
v 0.0457627513 0.0349104032 0.0829509422
v 0.0642393157 -0.0833140835 0.118954666
v 1.03639684E-06 0.0376609527 0.101706281
v 0.0295420513 0.0729368329 0.0609746315
v 1.03639684E-06 0.0747129545 0.073080495
v 1.03639684E-06 0.0927247331 0.0282188933
v 0.0295420513 0.0729368329 0.0609746315
v 1.03639684E-06 0.0927247331 0.0282188933
v 0.0417783782 0.068650946 0.0317493193
v 0.0457627513 0.0349104032 0.0829509422
v 0.0647227094 0.0282703899 0.0376712568
v 0.0642393157 -0.0833140835 0.118954666
v 0.0295420513 0.0643656701 0.00252400804
v 0.0908408836 -0.0926341489 0.0554022714
v 0.0457627513 0.0216303747 -0.00760798017
v -0.0165126361 0.0234974399 0.0139485681
v -0.0165126361 0.0234974399 -0.132765293
v 1.03639684E-06 0.0475889333 -0.132765293
v 1.03639684E-06 0.0475889333 0.0139485681
v -0.0165126361 0.0234974399 -0.132765293
v -0.0165126361 0.0234974399 0.0139485681
v 1.03639684E-06 0.000888798735 0.0139485681
v 1.03639684E-06 0.000888798735 -0.132765293
v 1.03639684E-06 0.000888798735 -0.132765293
v 1.03639684E-06 0.000888798735 0.0139485681
v 0.0165098254 0.0234974399 0.0139485681
v 0.0165098254 0.0234974399 -0.132765293
v 1.03639684E-06 0.0475889333 0.0139485681
v 1.03639684E-06 0.0475889333 -0.132765293
v 0.0165098254 0.0234974399 -0.132765293
v 0.0165098254 0.0234974399 0.0139485681
v 0.0576865785 -0.0334437825 -0.115255684
v 1.03639684E-06 0.0242390167 -0.115255684
v 0.0815781876 0.0242390167 -0.115255684
v 1.03639684E-06 -0.0573362969 -0.115255684
v 0.0576865785 0.0819215104 -0.115255684
v -0.0576845109 -0.0334437825 -0.115255684
v 1.03639684E-06 0.105814025 -0.115255684
v -0.0815761089 0.0242390167 -0.115255684
v -0.0576845109 0.0819215104 -0.115255684
vt 0.730957031 0.614746094
vt 0.730957031 0.625
vt 0.714355469 0.625
vt 0.714355469 0.614746094
vt 0.697265625 0.625
vt 0.697265625 0.614746094
vt 0.697265625 0.614746094
vt 0.697265625 0.625
vt 0.680175781 0.625
vt 0.680175781 0.614746094
vt 0.747558594 0.614746094
vt 0.747558594 0.625
vt 0.730957031 0.625
vt 0.730957031 0.614746094
vt 0.730957031 0.614746094
vt 0.730957031 0.625
vt 0.713867188 0.625
vt 0.713867188 0.614746094
vt 0.696777344 0.625
vt 0.696777344 0.614746094
vt 0.696777344 0.614746094
vt 0.696777344 0.625
vt 0.6796875 0.625
vt 0.6796875 0.614746094
vt 0.748046875 0.614746094
vt 0.748046875 0.625
vt 0.730957031 0.625
vt 0.730957031 0.614746094
vt 0.577636719 0.520996094
vt 0.581054688 0.568359375
vt 0.597167969 0.520996094
vt 0.569335938 0.561035156
vt 0.556152344 0.520996094
vt 0.5703125 0.579101562
vt 0.563476562 0.573242188
vt 0.5546875 0.584960938
vt 0.555175781 0.570800781
vt 0.597167969 0.520996094
vt 0.569335938 0.561035156
vt 0.578125 0.520996094
vt 0.581542969 0.567871094
vt 0.563964844 0.573242188
vt 0.570800781 0.579101562
vt 0.555664062 0.584960938
vt 0.555664062 0.571289062
vt 0.555664062 0.55859375
vt 0.578125 0.520996094
vt 0.569335938 0.561035156
vt 0.555664062 0.55859375
vt 0.556640625 0.520996094
vt 0.541992188 0.561035156
vt 0.53515625 0.520996094
vt 0.53515625 0.520996094
vt 0.529785156 0.567382812
vt 0.515136719 0.520996094
vt 0.541992188 0.561035156
vt 0.540527344 0.578613281
vt 0.547363281 0.573242188
vt 0.555664062 0.55859375
vt 0.555664062 0.584960938
vt 0.555664062 0.571289062
vt 0.515625 0.520996094
vt 0.541992188 0.560546875
vt 0.534667969 0.520996094
vt 0.529296875 0.56640625
vt 0.546875 0.572753906
vt 0.539550781 0.578125
vt 0.5546875 0.584960938
vt 0.546875 0.572753906
vt 0.5546875 0.584960938
vt 0.555175781 0.570800781
vt 0.541992188 0.560546875
vt 0.555664062 0.55859375
vt 0.534667969 0.520996094
vt 0.563476562 0.573242188
vt 0.556152344 0.520996094
vt 0.569335938 0.561035156
vt 0.73828125 0.6015625
vt 0.688476562 0.6015625
vt 0.688476562 0.612792969
vt 0.73828125 0.612792969
vt 0.688476562 0.624023438
vt 0.73828125 0.624023438
vt 0.73828125 0.612792969
vt 0.688476562 0.612792969
vt 0.687988281 0.612792969
vt 0.737792969 0.612792969
vt 0.737792969 0.6015625
vt 0.687988281 0.6015625
vt 0.737792969 0.612792969
vt 0.687988281 0.612792969
vt 0.687988281 0.624023438
vt 0.737792969 0.624023438
vt 0.5546875 0.548339844
vt 0.5546875 0.579101562
vt 0.576171875 0.557128906
vt 0.533203125 0.557128906
vt 0.585449219 0.579101562
vt 0.523925781 0.578613281
vt 0.576171875 0.600585938
vt 0.532714844 0.600585938
vt 0.5546875 0.609863281
vn 0.70703125 0.70703125 0
vn 0.70703125 0.70703125 0
vn -0 1 0
vn -0 1 0
vn -0.70703125 0.70703125 0
vn -0.70703125 0.70703125 0
vn -0.70703125 0.70703125 0
vn -0.70703125 0.70703125 0
vn -1 0 0
vn -1 0 0
vn -1 0 0
vn -1 0 0
vn -0.70703125 -0.70703125 0
vn -0.70703125 -0.70703125 0
vn -0.70703125 -0.70703125 0
vn -0.70703125 -0.70703125 0
vn -0 -1 0
vn -0 -1 0
vn 0.70703125 -0.70703125 0
vn 0.70703125 -0.70703125 0
vn 0.70703125 -0.70703125 0
vn 0.70703125 -0.70703125 0
vn 1 0 0
vn 1 0 0
vn 1 0 0
vn 1 0 0
vn 0.70703125 0.70703125 0
vn 0.70703125 0.70703125 0
vn 0.69140625 0.106506348 -0.714355469
vn 2.98023224E-07 0.117553711 -0.993164062
vn 2.08616257E-06 0.0648803711 -0.998046875
vn 0.682617188 0.158569336 -0.713378906
vn 0.978027344 0.206787109 -0.0303344727
vn -1.25169754E-06 0.463134766 -0.886230469
vn 0.572265625 0.497558594 -0.651855469
vn -4.35113907E-06 0.989257812 -0.145141602
vn 0.809570312 0.580566406 -0.085144043
vn 2.08616257E-06 0.0648803711 -0.998046875
vn -0.682617188 0.158569336 -0.713378906
vn -0.69140625 0.106445312 -0.714355469
vn 2.98023224E-07 0.117553711 -0.993164062
vn -0.572265625 0.497558594 -0.651367188
vn -1.25169754E-06 0.463134766 -0.886230469
vn -4.35113907E-06 0.989257812 -0.145141602
vn -0.809570312 0.580566406 -0.085144043
vn -0.965332031 0.257568359 -0.0377807617
vn -0.69140625 0.106445312 -0.714355469
vn -0.682617188 0.158569336 -0.713378906
vn -0.965332031 0.257568359 -0.0377807617
vn -0.978027344 0.206787109 -0.0303192139
vn -0.682617188 0.356689453 0.637695312
vn -0.69140625 0.307128906 0.653808594
vn -0.69140625 0.307128906 0.653808594
vn 3.57627869E-07 0.397705078 0.917480469
vn 2.14576721E-06 0.348632812 0.937011719
vn -0.682617188 0.356689453 0.637695312
vn -1.31130219E-06 0.698242188 0.715820312
vn -0.572265625 0.663574219 0.481201172
vn -0.965332031 0.257568359 -0.0377807617
vn -4.35113907E-06 0.989257812 -0.145141602
vn -0.809570312 0.580566406 -0.085144043
vn 2.14576721E-06 0.348632812 0.937011719
vn 0.682617188 0.356689453 0.637695312
vn 0.69140625 0.307128906 0.653808594
vn 3.57627869E-07 0.397705078 0.917480469
vn 0.572753906 0.663574219 0.481201172
vn -1.31130219E-06 0.698242188 0.715820312
vn -4.35113907E-06 0.989257812 -0.145141602
vn 0.572753906 0.663574219 0.481201172
vn -4.35113907E-06 0.989257812 -0.145141602
vn 0.809570312 0.580566406 -0.085144043
vn 0.682617188 0.356689453 0.637695312
vn 0.965332031 0.257568359 -0.0377807617
vn 0.69140625 0.307128906 0.653808594
vn 0.572265625 0.497558594 -0.651855469
vn 0.978027344 0.206787109 -0.0303344727
vn 0.682617188 0.158569336 -0.713378906
vn -1 0 0
vn -1 0 0
vn -0 1 0
vn -0 1 0
vn -1 0 0
vn -1 0 0
vn -0 -1 0
vn -0 -1 0
vn -0 -1 0
vn -0 -1 0
vn 1 0 0
vn 1 0 0
vn -0 1 0
vn -0 1 0
vn 1 0 0
vn 1 0 0
vn -0 0 1
vn -0 0 1
vn -0 0 1
vn -1.78813934E-07 0 1
vn 1.78813934E-07 0 1
vn -1.78813934E-07 0 1
vn 1.78813934E-07 0 1
vn -0 0 1
vn -0 0 1
g IS4_MDL_EscenarioPB_FocoPared_1_0
f 3/3/3 2/2/2 1/1/1
f 4/4/4 3/3/3 1/1/1
f 5/5/5 3/3/3 4/4/4
f 6/6/6 5/5/5 4/4/4
f 9/9/9 8/8/8 7/7/7
f 10/10/10 9/9/9 7/7/7
f 13/13/13 12/12/12 11/11/11
f 14/14/14 13/13/13 11/11/11
f 17/17/17 16/16/16 15/15/15
f 18/18/18 17/17/17 15/15/15
f 19/19/19 17/17/17 18/18/18
f 20/20/20 19/19/19 18/18/18
f 23/23/23 22/22/22 21/21/21
f 24/24/24 23/23/23 21/21/21
f 27/27/27 26/26/26 25/25/25
f 28/28/28 27/27/27 25/25/25
f 31/31/31 30/30/30 29/29/29
f 30/30/30 32/32/32 29/29/29
f 29/29/29 32/32/32 33/33/33
f 30/30/30 34/34/34 32/32/32
f 34/34/34 35/35/35 32/32/32
f 34/34/34 36/36/36 35/35/35
f 35/35/35 36/36/36 37/37/37
f 40/40/40 39/39/39 38/38/38
f 39/39/39 41/41/41 38/38/38
f 39/39/39 42/42/42 41/41/41
f 42/42/42 43/43/43 41/41/41
f 42/42/42 44/44/44 43/43/43
f 45/45/45 44/44/44 42/42/42
f 45/45/45 42/42/42 39/39/39
f 46/46/46 45/45/45 39/39/39
f 49/49/49 48/48/48 47/47/47
f 50/50/50 49/49/49 47/47/47
f 51/51/51 49/49/49 50/50/50
f 52/52/52 51/51/51 50/50/50
f 55/55/55 54/54/54 53/53/53
f 54/54/54 56/56/56 53/53/53
f 54/54/54 57/57/57 56/56/56
f 57/57/57 58/58/58 56/56/56
f 56/56/56 58/58/58 59/59/59
f 57/57/57 60/60/60 58/58/58
f 58/58/58 61/61/61 59/59/59
f 58/58/58 60/60/60 61/61/61
f 64/64/64 63/63/63 62/62/62
f 63/63/63 65/65/65 62/62/62
f 63/63/63 66/66/66 65/65/65
f 66/66/66 67/67/67 65/65/65
f 66/66/66 68/68/68 67/67/67
f 71/71/71 70/70/70 69/69/69
f 71/71/71 69/69/69 72/72/72
f 73/73/73 71/71/71 72/72/72
f 73/73/73 72/72/72 74/74/74
f 75/75/75 71/71/71 73/73/73
f 76/76/76 73/73/73 74/74/74
f 77/77/77 75/75/75 73/73/73
f 77/77/77 73/73/73 76/76/76
f 80/80/80 79/79/79 78/78/78
f 81/81/81 80/80/80 78/78/78
f 84/84/84 83/83/83 82/82/82
f 85/85/85 84/84/84 82/82/82
f 88/88/88 87/87/87 86/86/86
f 89/89/89 88/88/88 86/86/86
f 92/92/92 91/91/91 90/90/90
f 93/93/93 92/92/92 90/90/90
f 96/96/96 95/95/95 94/94/94
f 94/94/94 95/95/95 97/97/97
f 98/98/98 95/95/95 96/96/96
f 97/97/97 95/95/95 99/99/99
f 100/100/100 95/95/95 98/98/98
f 99/99/99 95/95/95 101/101/101
f 102/102/102 95/95/95 100/100/100
f 101/101/101 95/95/95 102/102/102
