g IS4_MDL_EscenarioPB_Revista_2
v 0.0717424974 -0.109702706 -0.0749022067
v 0.0782568827 0.0905887857 0.0026605844
v -0.0715810284 0.101319738 0.0561400019
v -0.0910692886 -0.117385186 -0.0268163197
v 0.0782568827 0.0905887857 0.0026605844
v 0.0816800967 0.0860890076 0.0135321803
v -0.068157807 0.0968199596 0.0670116022
v -0.0715810284 0.101319738 0.0561400019
v 0.0816800967 0.0860890076 0.0135321803
v 0.0751657188 -0.114202484 -0.0640306026
v -0.0876460746 -0.121884964 -0.01594471
v -0.068157807 0.0968199596 0.0670116022
v 0.0751657188 -0.114202484 -0.0640306026
v 0.0717424974 -0.109702706 -0.0749022067
v -0.0910692886 -0.117385186 -0.0268163197
v -0.0876460746 -0.121884964 -0.01594471
v -0.0910692886 -0.117385186 -0.0268163197
v -0.0715810284 0.101319738 0.0561400019
v -0.068157807 0.0968199596 0.0670116022
v -0.0876460746 -0.121884964 -0.01594471
v 0.0751657188 -0.114202484 -0.0640306026
v 0.0816800967 0.0860890076 0.0135321803
v 0.0782568827 0.0905887857 0.0026605844
v 0.0717424974 -0.109702706 -0.0749022067
vt 0.837402344 0.558105469
vt 0.837402344 0.709960938
vt 0.962402344 0.709960938
vt 0.962402344 0.558105469
vt 0.193847656 0.473632812
vt 0.197753906 0.473632812
vt 0.197753906 0.402099609
vt 0.193847656 0.402099609
vt 0.837402344 0.558105469
vt 0.837402344 0.709960938
vt 0.962402344 0.709960938
vt 0.962402344 0.558105469
vt 0.193847656 0.473144531
vt 0.197753906 0.473144531
vt 0.197753906 0.401367188
vt 0.193847656 0.401367188
vt 0.194091797 0.401367188
vt 0.194091797 0.48828125
vt 0.197998047 0.48828125
vt 0.197998047 0.401367188
vt 0.889648438 0.700195312
vt 0.944335938 0.701660156
vt 0.944335938 0.697753906
vt 0.889648438 0.695800781
vn -0.285400391 0.358154297 -0.889160156
vn -0.285400391 0.358154297 -0.889160156
vn -0.285400391 0.358154297 -0.889160156
vn -0.285400391 0.358154297 -0.889160156
vn 0.182861328 0.927246094 0.326171875
vn 0.182861328 0.927246094 0.326171875
vn 0.182861328 0.927246094 0.326171875
vn 0.182861328 0.927246094 0.326171875
vn 0.285400391 -0.358154297 0.889160156
vn 0.285400391 -0.358154297 0.889160156
vn 0.285400391 -0.358154297 0.889160156
vn 0.285400391 -0.358154297 0.889160156
vn -0.0637817383 -0.929199219 -0.364501953
vn -0.0637817383 -0.929199219 -0.364501953
vn -0.0637817383 -0.929199219 -0.364501953
vn -0.0637817383 -0.929199219 -0.364501953
vn -0.956542969 -0.0250701904 0.290771484
vn -0.956542969 -0.0250701904 0.290771484
vn -0.956542969 -0.0250701904 0.290771484
vn -0.956542969 -0.0250701904 0.290771484
vn 0.959472656 0.0739746094 -0.271484375
vn 0.959472656 0.0739746094 -0.271484375
vn 0.959472656 0.0739746094 -0.271484375
vn 0.959472656 0.0739746094 -0.271484375
g IS4_MDL_EscenarioPB_Revista_2_0
f 3/3/3 2/2/2 1/1/1
f 4/4/4 3/3/3 1/1/1
f 7/7/7 6/6/6 5/5/5
f 8/8/8 7/7/7 5/5/5
f 11/11/11 10/10/10 9/9/9
f 12/12/12 11/11/11 9/9/9
f 15/15/15 14/14/14 13/13/13
f 16/16/16 15/15/15 13/13/13
f 19/19/19 18/18/18 17/17/17
f 20/20/20 19/19/19 17/17/17
f 23/23/23 22/22/22 21/21/21
f 24/24/24 23/23/23 21/21/21
