g IS4_MDL_EscenarioPB_Revista_5
v -0.0895737559 -0.109065473 0.0536029413
v -0.079312183 0.123269476 -0.0361417197
v 0.0846281871 0.100574426 -0.0355540067
v 0.0799728781 -0.118885905 0.0475656502
v -0.079312183 0.123269476 -0.0361417197
v -0.0799728781 0.118885905 -0.0475656502
v 0.083967492 0.0961908475 -0.0469779298
v 0.0846281871 0.100574426 -0.0355540067
v -0.0799728781 0.118885905 -0.0475656502
v -0.090234451 -0.113449045 0.042179022
v 0.079312183 -0.123269476 0.0361417197
v 0.083967492 0.0961908475 -0.0469779298
v -0.090234451 -0.113449045 0.042179022
v -0.0895737559 -0.109065473 0.0536029413
v 0.0799728781 -0.118885905 0.0475656502
v 0.079312183 -0.123269476 0.0361417197
v 0.0799728781 -0.118885905 0.0475656502
v 0.0846281871 0.100574426 -0.0355540067
v 0.083967492 0.0961908475 -0.0469779298
v 0.079312183 -0.123269476 0.0361417197
v -0.090234451 -0.113449045 0.042179022
v -0.0799728781 0.118885905 -0.0475656502
v -0.079312183 0.123269476 -0.0361417197
v -0.0895737559 -0.109065473 0.0536029413
vt 0.650390625 0.0662231445
vt 0.650390625 0.180419922
vt 0.744140625 0.180419922
vt 0.744140625 0.0662231445
vt 0.193847656 0.473632812
vt 0.197753906 0.473632812
vt 0.197753906 0.402099609
vt 0.193847656 0.402099609
vt 0.650390625 0.0662231445
vt 0.650390625 0.180419922
vt 0.744140625 0.180419922
vt 0.744140625 0.0662231445
vt 0.193847656 0.473144531
vt 0.197753906 0.473144531
vt 0.197753906 0.401367188
vt 0.193847656 0.401367188
vt 0.194091797 0.401367188
vt 0.194091797 0.48828125
vt 0.197998047 0.48828125
vt 0.197998047 0.401367188
vt 0.636230469 0.106750488
vt 0.636230469 0.168579102
vt 0.640625 0.168579102
vt 0.640625 0.106750488
vn 0.0498962402 0.35546875 0.93359375
vn 0.0498962402 0.35546875 0.93359375
vn 0.0498962402 0.35546875 0.93359375
vn 0.0498962402 0.35546875 0.93359375
vn 0.129150391 0.923339844 -0.361816406
vn 0.129150391 0.923339844 -0.361816406
vn 0.129150391 0.923339844 -0.361816406
vn 0.129150391 0.923339844 -0.361816406
vn -0.0498962402 -0.35546875 -0.93359375
vn -0.0498962402 -0.35546875 -0.93359375
vn -0.0498962402 -0.35546875 -0.93359375
vn -0.0498962402 -0.35546875 -0.93359375
vn -0.0411682129 -0.932128906 0.360107422
vn -0.0411682129 -0.932128906 0.360107422
vn -0.0411682129 -0.932128906 0.360107422
vn -0.0411682129 -0.932128906 0.360107422
vn 0.998535156 -0.0375976562 -0.0433044434
vn 0.998535156 -0.0375976562 -0.0433044434
vn 0.998535156 -0.0375976562 -0.0433044434
vn 0.998535156 -0.0375976562 -0.0433044434
vn -0.997558594 0.057800293 0.0355224609
vn -0.997558594 0.057800293 0.0355224609
vn -0.997558594 0.057800293 0.0355224609
vn -0.997558594 0.057800293 0.0355224609
g IS4_MDL_EscenarioPB_Revista_5_0
f 3/3/3 2/2/2 1/1/1
f 4/4/4 3/3/3 1/1/1
f 7/7/7 6/6/6 5/5/5
f 8/8/8 7/7/7 5/5/5
f 11/11/11 10/10/10 9/9/9
f 12/12/12 11/11/11 9/9/9
f 15/15/15 14/14/14 13/13/13
f 16/16/16 15/15/15 13/13/13
f 19/19/19 18/18/18 17/17/17
f 20/20/20 19/19/19 17/17/17
f 23/23/23 22/22/22 21/21/21
f 24/24/24 23/23/23 21/21/21
