g Rod_Preregister_Hat
v -0.245752677 1.91393518 0.0112914117
v -0.229185373 1.86834049 0.0053883926
v -0.248654664 1.86714447 0.00111529615
v -0.258782178 1.8689431 -0.0374969319
v -0.247797817 1.87417972 -0.0498147793
v -0.251479954 1.90266776 -0.0667373016
v -0.259852082 1.84721279 0.0329246596
v -0.284039706 1.8528198 0.0267066918
v -0.285080522 1.86590433 0.00196541613
v -0.237174839 1.86375248 0.00363631779
v -0.234749392 1.84227169 0.0329493582
v -0.222193122 1.84818399 0.00905313995
v -0.247424632 1.86575651 -0.029480774
v -0.237174839 1.86375248 0.00363631779
v -0.222193122 1.84818399 0.00905313995
v -0.220641539 1.85450423 -0.024555359
v -0.215376958 1.82995605 -0.0462210365
v -0.248071238 1.84645927 -0.0617435351
v -0.29094255 1.853827 -0.0475504138
v -0.275372088 1.86684394 -0.0257923491
v -0.208700195 1.81939995 -0.00131395727
v -0.234749392 1.84227169 0.0329493582
v -0.222193122 1.84818399 0.00905313995
v -0.233252615 1.81480515 0.0341834724
v -0.221022353 1.7777797 -0.0119849024
v -0.242863923 1.77710199 0.021505462
v -0.222193122 1.84818399 0.00905313995
v -0.220641539 1.85450423 -0.024555359
v -0.215376958 1.82995605 -0.0462210365
v -0.208700195 1.81939995 -0.00131395727
v -0.221022353 1.7777797 -0.0119849024
v -0.227155924 1.78884244 -0.0487545952
v -0.29693836 1.83070314 0.0240178742
v -0.285080522 1.86590433 0.00196541613
v -0.284039706 1.8528198 0.0267066918
v -0.307589084 1.84479749 -0.00661922991
v -0.29094255 1.853827 -0.0475504138
v -0.315011054 1.80598021 -0.0171832852
v -0.306431442 1.79809368 0.0168851539
v -0.297914743 1.80734909 -0.0533508919
v -0.299735785 1.77901745 -0.0218111128
v -0.294903457 1.78097105 -0.046543397
v -0.299106747 1.77760839 0.00335840834
v -0.233252615 1.81480515 0.0341834724
v -0.259852082 1.84721279 0.0329246596
v -0.234749392 1.84227169 0.0329493582
v -0.268972367 1.82026803 0.0398549661
v -0.242863923 1.77710199 0.021505462
v -0.284039706 1.8528198 0.0267066918
v -0.275996566 1.78632832 0.0295772683
v -0.29693836 1.83070314 0.0240178742
v -0.306431442 1.79809368 0.0168851539
v -0.260149032 1.80039656 -0.0670691803
v -0.227155924 1.78884244 -0.0487545952
v -0.215376958 1.82995605 -0.0462210365
v -0.248071238 1.84645927 -0.0617435351
v -0.297914743 1.80734909 -0.0533508919
v -0.29094255 1.853827 -0.0475504138
v -0.267781407 1.77371633 -0.0482332632
v -0.294903457 1.78097105 -0.046543397
v -0.227155924 1.78884244 -0.0487545952
v -0.260149032 1.80039656 -0.0670691803
v -0.267781407 1.77371633 -0.0482332632
v -0.243890882 1.7732712 -0.0394463576
v -0.221022353 1.7777797 -0.0119849024
v -0.24702242 1.76602447 -0.0177127402
v -0.271439999 1.7651521 -0.0210076086
v -0.294903457 1.78097105 -0.046543397
v -0.299735785 1.77901745 -0.0218111128
v -0.299106747 1.77760839 0.00335840834
v -0.271439999 1.7651521 -0.0210076086
v -0.271799505 1.76810062 0.00689542154
v -0.24702242 1.76602447 -0.0177127402
v -0.306431442 1.79809368 0.0168851539
v -0.315011054 1.80598021 -0.0171832852
v -0.275996566 1.78632832 0.0295772683
v -0.253172606 1.76555455 0.00391216995
v -0.221022353 1.7777797 -0.0119849024
v -0.242863923 1.77710199 0.021505462
v -0.197043002 1.81245947 0.0771396384
v -0.220851541 1.84830725 0.0828441083
v -0.183386311 1.87623823 0.1122346
v -0.152925 1.83744025 0.107161976
v -0.0976242498 1.92330515 0.130217224
v -0.0721107498 1.88297939 0.11863137
v -0.00736619858 1.97319651 0.120909154
v 0.0140997991 1.92599881 0.116520055
v 0.060687419 1.94375789 0.0895325765
v 0.0410995483 1.99392259 0.0975862294
v 0.0897024348 1.9562546 0.0195037387
v 0.0831736252 2.00555682 -0.0466393158
v 0.0927103981 1.95959866 -0.0488278419
v 0.0777152628 2.00518298 0.0268211812
v 0.060687419 1.94375789 0.0895325765
v 0.044654794 2.05382562 -0.0473626107
v 0.0410995483 1.99392259 0.0975862294
v 0.0345693044 2.05242252 0.0146968421
v -0.00631208625 2.09699821 0.0126600219
v -0.00154970039 2.10026455 -0.0464298502
v -0.0603398979 2.10921097 0.0150664691
v -0.0691490248 2.07010865 0.0690129027
v -0.115830317 2.12034702 0.00983919855
v -0.119405128 2.10142303 0.0527100265
v -0.023710344 2.08720279 0.0448970757
v 0.00837973785 2.04705667 0.0603898019
v -0.0466891043 2.02956605 0.0772850439
v -0.00736619858 1.97319651 0.120909154
v -0.109520711 1.99138939 0.0886507109
v 0.0648383498 1.94891977 -0.163060486
v 0.0863841176 1.96330535 -0.130758688
v 0.0732558593 2.0066607 -0.119221173
v 0.052821748 1.99366665 -0.169148982
v 0.034038689 2.04658508 -0.108021274
v 0.0143456571 2.02865171 -0.156477958
v -0.0278350897 2.01041532 -0.179775625
v -0.0161590688 2.07627702 -0.0948955789
v 0.044654794 2.05382562 -0.0473626107
v -0.00154970039 2.10026455 -0.0464298502
v -0.0587293245 2.12217712 -0.0426052958
v -0.0354897343 2.06485343 -0.133534834
v -0.0587222688 2.05341601 -0.155277908
v -0.0685385466 2.10650945 -0.0906585529
v -0.0850764066 2.08889055 -0.132281944
v -0.15815112 2.04752445 -0.153321877
v -0.119707406 2.11518073 -0.0888784304
v -0.118927076 2.13470459 -0.0433809832
v -0.175616458 2.11785054 -0.047594592
v -0.124186315 2.10096002 -0.117789529
v -0.16888018 2.09984255 -0.0962423831
v -0.222425252 2.06809139 -0.0551971644
v -0.167827249 2.08966565 -0.119945355
v -0.209804356 2.04735398 -0.122663587
v -0.222533837 2.05344009 -0.110775001
v -0.247509763 2.01746321 -0.056366317
v 0.0927103981 1.95959866 -0.0488278419
v 0.0732558593 2.0066607 -0.119221173
v 0.0863841176 1.96330535 -0.130758688
v 0.0831736252 2.00555682 -0.0466393158
v 0.034038689 2.04658508 -0.108021274
v 0.044654794 2.05382562 -0.0473626107
v -0.093293421 1.91716456 -0.1925174
v -0.0746177211 1.87696373 -0.174994037
v 0.0159923695 1.92352831 -0.175820932
v -0.203137442 1.8513099 -0.176802769
v -0.176456764 1.8226279 -0.166333079
v -0.231499106 1.8365922 -0.142402828
v -0.205401361 1.80445778 -0.136717469
v -0.203137442 1.8513099 -0.176802769
v -0.0746177211 1.87696373 -0.174994037
v -0.200535402 1.90903974 -0.162715867
v -0.223649815 1.91342068 -0.125360861
v -0.093293421 1.91716456 -0.1925174
v -0.225531042 1.95894134 -0.115555301
v -0.105281688 1.96301734 -0.18678005
v -0.209133461 1.96751583 -0.139625818
v -0.220411807 2.00994706 -0.109237753
v -0.223977149 1.97247815 -0.0908773318
v 0.00324232201 1.96750259 -0.190554991
v 0.0159923695 1.92352831 -0.175820932
v 0.0648383498 1.94891977 -0.163060486
v 0.052821748 1.99366665 -0.169148982
v -0.0278350897 2.01041532 -0.179775625
v -0.134092778 2.00610089 -0.171459377
v -0.0587222688 2.05341601 -0.155277908
v -0.15815112 2.04752445 -0.153321877
v -0.209804356 2.04735398 -0.122663587
v -0.222533837 2.05344009 -0.110775001
v -0.167827249 2.08966565 -0.119945355
v -0.249997735 2.01254296 -0.0947770327
v -0.255570143 1.96041787 -0.0866261646
v -0.251479954 1.90266776 -0.0667373016
v -0.228146181 1.83593857 -0.0807694644
v -0.205401361 1.80445778 -0.136717469
v -0.231499106 1.8365922 -0.142402828
v -0.207005456 1.80491662 -0.0793355107
v -0.222266853 1.83807111 -0.0256270897
v -0.206028953 1.80675459 -0.0257474314
v -0.220851541 1.84830725 0.0828441083
v -0.197043002 1.81245947 0.0771396384
v -0.20589985 1.8079108 0.0239640847
v -0.225147069 1.83416378 0.0257046334
v -0.214034572 1.90289342 0.0283377953
v -0.183386311 1.87623823 0.1122346
v -0.222266853 1.83807111 -0.0256270897
v -0.206028953 1.80675459 -0.0257474314
v -0.209258467 1.88346112 -0.0286385212
v -0.213163584 1.87934482 0.00388002582
v -0.225879446 1.91632867 0.0286742207
v -0.229185373 1.86834049 0.0053883926
v -0.245752677 1.91393518 0.0112914117
v -0.197861582 1.94073713 0.0898111612
v -0.109520711 1.99138939 0.0886507109
v -0.0976242498 1.92330515 0.130217224
v -0.0466891043 2.02956605 0.0772850439
v -0.00736619858 1.97319651 0.120909154
v -0.149130061 2.02142859 0.0768179968
v -0.0691490248 2.07010865 0.0690129027
v -0.119405128 2.10142303 0.0527100265
v -0.207177758 1.95688808 0.0420140699
v -0.198068023 2.04858708 0.0663435608
v -0.152634338 2.09418416 0.0530287288
v -0.115830317 2.12034702 0.00983919855
v -0.171471313 2.11494708 0.00312264753
v -0.228551 2.06390953 -0.0129023623
v -0.225365907 1.96713841 0.0449715406
v -0.241492614 1.96676052 0.0185806975
v -0.232651457 2.01558805 0.0271478202
v -0.249445751 2.01975822 -0.0142633626
v -0.250656039 1.96559739 -0.0164061636
v -0.247509763 2.01746321 -0.056366317
v -0.222425252 2.06809139 -0.0551971644
v -0.255430937 1.96450984 -0.052527193
v -0.257856041 1.91351414 -0.0152465673
v -0.248654664 1.86714447 0.00111529615
v -0.259667456 1.91117609 -0.0456086732
v -0.21091947 1.9145422 -0.0570994802
v -0.209258467 1.88346112 -0.0286385212
v -0.222266853 1.83807111 -0.0256270897
v -0.228146181 1.83593857 -0.0807694644
v -0.214164481 1.9342351 -0.069351837
v -0.231499106 1.8365922 -0.142402828
v -0.223649815 1.91342068 -0.125360861
v -0.225531042 1.95894134 -0.115555301
v -0.223977149 1.97247815 -0.0908773318
v -0.229185373 1.86834049 0.0053883926
v -0.213163584 1.87934482 0.00388002582
v -0.209258467 1.88346112 -0.0286385212
v -0.23759225 1.85751188 -0.0220994782
v -0.255966038 1.85891223 -0.0166778043
v -0.247797817 1.87417972 -0.0498147793
v -0.258782178 1.8689431 -0.0374969319
v -0.23759225 1.85751188 -0.0220994782
v -0.209258467 1.88346112 -0.0286385212
v -0.21091947 1.9145422 -0.0570994802
v -0.214164481 1.9342351 -0.069351837
v -0.251479954 1.90266776 -0.0667373016
v -0.223977149 1.97247815 -0.0908773318
v -0.248654664 1.86714447 0.00111529615
v -0.229185373 1.86834049 0.0053883926
v -0.23759225 1.85751188 -0.0220994782
v -0.255966038 1.85891223 -0.0166778043
v -0.248654664 1.86714447 0.00111529615
v -0.255966038 1.85891223 -0.0166778043
v -0.257856041 1.91351414 -0.0152465673
v -0.259667456 1.91117609 -0.0456086732
v -0.258782178 1.8689431 -0.0374969319
v -0.258782178 1.8689431 -0.0374969319
v -0.251479954 1.90266776 -0.0667373016
v -0.259667456 1.91117609 -0.0456086732
v -0.255570143 1.96041787 -0.0866261646
v -0.259667456 1.91117609 -0.0456086732
v -0.255570143 1.96041787 -0.0866261646
v -0.255430937 1.96450984 -0.052527193
v -0.249997735 2.01254296 -0.0947770327
v -0.247509763 2.01746321 -0.056366317
v -0.222533837 2.05344009 -0.110775001
v -0.00154970039 2.10026455 -0.0464298502
v -0.0603398979 2.10921097 0.0150664691
v -0.0587293245 2.12217712 -0.0426052958
v -0.115830317 2.12034702 0.00983919855
v -0.118927076 2.13470459 -0.0433809832
v -0.171471313 2.11494708 0.00312264753
v -0.175616458 2.11785054 -0.047594592
v -0.228551 2.06390953 -0.0129023623
v -0.222425252 2.06809139 -0.0551971644
v -0.206028953 1.80675459 -0.0257474314
v -0.065485321 1.88050759 -0.0334082022
v -0.207005456 1.80491662 -0.0793355107
v -0.20589985 1.8079108 0.0239640847
v -0.205401361 1.80445778 -0.136717469
v -0.197043002 1.81245947 0.0771396384
v -0.176456764 1.8226279 -0.166333079
v -0.152925 1.83744025 0.107161976
v -0.0746177211 1.87696373 -0.174994037
v -0.0721107498 1.88297939 0.11863137
v 0.0159923695 1.92352831 -0.175820932
v 0.0140997991 1.92599881 0.116520055
v 0.0648383498 1.94891977 -0.163060486
v 0.060687419 1.94375789 0.0895325765
v 0.0863841176 1.96330535 -0.130758688
v 0.0897024348 1.9562546 0.0195037387
v 0.0927103981 1.95959866 -0.0488278419
vt 0.11895752 0.590820312
vt 0.0823974609 0.549804688
vt 0.075012207 0.571777344
vt 0.562011719 0.262695312
vt 0.547363281 0.252441406
vt 0.515136719 0.261962891
vt 0.23449707 0.831054688
vt 0.262207031 0.8359375
vt 0.291992188 0.812011719
vt 0.216674805 0.785644531
vt 0.206665039 0.832519531
vt 0.184692383 0.810546875
vt 0.360595703 0.823730469
vt 0.374023438 0.783691406
vt 0.412597656 0.796875
vt 0.39453125 0.827148438
vt 0.400390625 0.868164062
vt 0.365478516 0.864746094
vt 0.326660156 0.860351562
vt 0.327148438 0.827636719
vt 0.149169922 0.859375
vt 0.206665039 0.832519531
vt 0.184692383 0.810546875
vt 0.1953125 0.864746094
vt 0.161254883 0.936523438
vt 0.197998047 0.918945312
vt 0.412597656 0.796875
vt 0.39453125 0.827148438
vt 0.400390625 0.868164062
vt 0.447265625 0.853027344
vt 0.433837891 0.937988281
vt 0.400390625 0.921386719
vt 0.262695312 0.866210938
vt 0.291992188 0.812011719
vt 0.262207031 0.8359375
vt 0.291259766 0.856933594
vt 0.326660156 0.860351562
vt 0.29296875 0.9140625
vt 0.263183594 0.908691406
vt 0.323730469 0.916992188
vt 0.29296875 0.959472656
vt 0.323242188 0.946289062
vt 0.264892578 0.939941406
vt 0.1953125 0.864746094
vt 0.23449707 0.831054688
vt 0.206665039 0.832519531
vt 0.231201172 0.866699219
vt 0.197998047 0.918945312
vt 0.262207031 0.8359375
vt 0.231689453 0.911621094
vt 0.262695312 0.866210938
vt 0.263183594 0.908691406
vt 0.363037109 0.91796875
vt 0.400390625 0.921386719
vt 0.400390625 0.868164062
vt 0.365478516 0.864746094
vt 0.323730469 0.916992188
vt 0.326660156 0.860351562
vt 0.356445312 0.952148438
vt 0.323242188 0.946289062
vt 0.400390625 0.921386719
vt 0.363037109 0.91796875
vt 0.356445312 0.952148438
vt 0.388183594 0.951660156
vt 0.433837891 0.937988281
vt 0.394042969 0.976074219
vt 0.349121094 0.987792969
vt 0.323242188 0.946289062
vt 0.29296875 0.959472656
vt 0.264892578 0.939941406
vt 0.240234375 0.981933594
vt 0.230957031 0.945800781
vt 0.198242188 0.970214844
vt 0.263183594 0.908691406
vt 0.29296875 0.9140625
vt 0.231689453 0.911621094
vt 0.208740234 0.947753906
vt 0.161254883 0.936523438
vt 0.197998047 0.918945312
vt 0.139160156 0.403076172
vt 0.147827148 0.44921875
vt 0.197753906 0.449707031
vt 0.202148438 0.391113281
vt 0.298339844 0.442626953
vt 0.305419922 0.386962891
vt 0.401611328 0.458007812
vt 0.412841797 0.400390625
vt 0.478271484 0.417236328
vt 0.456542969 0.47265625
vt 0.556152344 0.460205078
vt 0.592773438 0.552734375
vt 0.6171875 0.504394531
vt 0.528808594 0.508789062
vt 0.478271484 0.417236328
vt 0.554199219 0.615722656
vt 0.456542969 0.47265625
vt 0.501464844 0.576660156
vt 0.464355469 0.631835938
vt 0.506347656 0.679199219
vt 0.417236328 0.665039062
vt 0.381835938 0.598632812
vt 0.369140625 0.698730469
vt 0.350585938 0.651367188
vt 0.433105469 0.609375
vt 0.450683594 0.553710938
vt 0.388916016 0.547851562
vt 0.401611328 0.458007812
vt 0.313476562 0.53125
vt 0.140380859 0.0263366699
vt 0.0939331055 0.0461730957
vt 0.0951538086 0.10168457
vt 0.144897461 0.078125
vt 0.113342285 0.165039062
vt 0.160766602 0.133911133
vt 0.2109375 0.128051758
vt 0.142578125 0.227172852
vt 0.060333252 0.202026367
vt 0.100891113 0.271484375
vt 0.150634766 0.324462891
vt 0.182495117 0.20324707
vt 0.215698242 0.192382812
vt 0.184448242 0.281005859
vt 0.220825195 0.246582031
vt 0.305908203 0.235351562
vt 0.23059082 0.312744141
vt 0.209472656 0.363525391
vt 0.276611328 0.377197266
vt 0.247802734 0.282226562
vt 0.285400391 0.319335938
vt 0.354980469 0.361328125
vt 0.291259766 0.291259766
vt 0.349853516 0.278076172
vt 0.356933594 0.296142578
vt 0.416015625 0.338134766
vt 0.0102005005 0.0808105469
vt 0.0951538086 0.10168457
vt 0.0939331055 0.0461730957
vt 0.0264587402 0.134643555
vt 0.113342285 0.165039062
vt 0.060333252 0.202026367
vt 0.312744141 0.0659790039
vt 0.318115234 0.0123977661
vt 0.205444336 0.0135650635
vt 0.438232422 0.0725097656
vt 0.442382812 0.026550293
vt 0.478271484 0.0868530273
vt 0.494384766 0.0454101562
vt 0.438232422 0.0725097656
vt 0.318115234 0.0123977661
vt 0.412109375 0.130981445
vt 0.4453125 0.165771484
vt 0.312744141 0.0659790039
vt 0.424072266 0.214599609
vt 0.301269531 0.11920166
vt 0.395263672 0.200195312
vt 0.389892578 0.260986328
vt 0.433837891 0.245849609
vt 0.202636719 0.0678710938
vt 0.205444336 0.0135650635
vt 0.140380859 0.0263366699
vt 0.144897461 0.078125
vt 0.2109375 0.128051758
vt 0.305419922 0.180175781
vt 0.215698242 0.192382812
vt 0.305908203 0.235351562
vt 0.349853516 0.278076172
vt 0.356933594 0.296142578
vt 0.291259766 0.291259766
vt 0.407226562 0.29296875
vt 0.456298828 0.27734375
vt 0.515136719 0.261962891
vt 0.528808594 0.119140625
vt 0.494384766 0.0454101562
vt 0.478271484 0.0868530273
vt 0.548339844 0.0821533203
vt 0.575195312 0.153320312
vt 0.594238281 0.117980957
vt 0.147827148 0.44921875
vt 0.139160156 0.403076172
vt 0.0874633789 0.424804688
vt 0.0960083008 0.461914062
vt 0.129150391 0.542480469
vt 0.197753906 0.449707031
vt 0.0513000488 0.476318359
vt 0.041229248 0.436523438
vt 0.0529785156 0.521972656
vt 0.0899658203 0.526855469
vt 0.136962891 0.564941406
vt 0.0823974609 0.549804688
vt 0.11895752 0.590820312
vt 0.210083008 0.522460938
vt 0.313476562 0.53125
vt 0.298339844 0.442626953
vt 0.388916016 0.547851562
vt 0.401611328 0.458007812
vt 0.287841797 0.580566406
vt 0.381835938 0.598632812
vt 0.350585938 0.651367188
vt 0.187988281 0.573730469
vt 0.263427734 0.633789062
vt 0.320068359 0.657714844
vt 0.369140625 0.698730469
vt 0.314697266 0.718261719
vt 0.234741211 0.717773438
vt 0.185791016 0.598632812
vt 0.165039062 0.625
vt 0.209594727 0.651367188
vt 0.189086914 0.693847656
vt 0.143310547 0.659179688
vt 0.169555664 0.736816406
vt 0.230957031 0.765136719
vt 0.12322998 0.694824219
vt 0.101135254 0.620605469
vt 0.075012207 0.571777344
vt 0.0816040039 0.649414062
vt 0.502441406 0.213989258
vt 0.546386719 0.201049805
vt 0.575195312 0.153320312
vt 0.528808594 0.119140625
vt 0.479248047 0.224365234
vt 0.478271484 0.0868530273
vt 0.4453125 0.165771484
vt 0.424072266 0.214599609
vt 0.433837891 0.245849609
vt 0.0823974609 0.549804688
vt 0.0899658203 0.526855469
vt 0.0529785156 0.521972656
vt 0.0520019531 0.559570312
vt 0.584472656 0.253662109
vt 0.547363281 0.252441406
vt 0.562011719 0.262695312
vt 0.576660156 0.233154297
vt 0.546386719 0.201049805
vt 0.502441406 0.213989258
vt 0.479248047 0.224365234
vt 0.515136719 0.261962891
vt 0.433837891 0.245849609
vt 0.075012207 0.571777344
vt 0.0823974609 0.549804688
vt 0.0520019531 0.559570312
vt 0.0561218262 0.582519531
vt 0.075012207 0.571777344
vt 0.0561218262 0.582519531
vt 0.101135254 0.620605469
vt 0.0816040039 0.649414062
vt 0.0514526367 0.610351562
vt 0.562011719 0.262695312
vt 0.515136719 0.261962891
vt 0.521972656 0.288330078
vt 0.456298828 0.27734375
vt 0.521972656 0.288330078
vt 0.456298828 0.27734375
vt 0.469482422 0.313964844
vt 0.407226562 0.29296875
vt 0.416015625 0.338134766
vt 0.356933594 0.296142578
vt 0.506347656 0.679199219
vt 0.417236328 0.665039062
vt 0.447265625 0.725585938
vt 0.369140625 0.698730469
vt 0.382324219 0.759277344
vt 0.314697266 0.718261719
vt 0.311767578 0.774414062
vt 0.234741211 0.717773438
vt 0.230957031 0.765136719
vt 0.611328125 0.214355469
vt 0.762207031 0.215087891
vt 0.612304688 0.157226562
vt 0.609375 0.267333984
vt 0.616210938 0.0962524414
vt 0.616210938 0.324462891
vt 0.650390625 0.0666503906
vt 0.662597656 0.359130859
vt 0.759765625 0.0639648438
vt 0.75 0.376708984
vt 0.856445312 0.0686645508
vt 0.841308594 0.379882812
vt 0.907714844 0.0852661133
vt 0.889648438 0.353759766
vt 0.930664062 0.12109375
vt 0.922851562 0.28125
vt 0.930175781 0.208740234
vn -0.822753906 -0.0702514648 0.564453125
vn 0.0685424805 -0.735351562 0.674316406
vn -0.702636719 -0.329101562 0.630859375
vn -0.934082031 -0.315673828 -0.165527344
vn 0.0816650391 -0.635742188 -0.767578125
vn -0.392089844 -0.388427734 -0.833984375
vn 0.0248260498 0.589355469 0.807128906
vn -0.345947266 0.661132812 0.665527344
vn -0.350341797 0.907714844 0.231689453
vn 0.264892578 0.928710938 0.260009766
vn 0.509765625 0.371582031 0.775878906
vn 0.798828125 0.499511719 0.334716797
vn 0.229492188 0.926757812 -0.297119141
vn 0.264892578 0.928710938 0.260009766
vn 0.798828125 0.499511719 0.334716797
vn 0.756835938 0.625488281 -0.190307617
vn 0.818847656 0.111328125 -0.562988281
vn 0.136352539 0.385009766 -0.912597656
vn -0.565917969 0.485107422 -0.666503906
vn -0.207519531 0.955078125 -0.21081543
vn 0.977539062 -0.106567383 0.180908203
vn 0.509765625 0.371582031 0.775878906
vn 0.798828125 0.499511719 0.334716797
vn 0.568359375 -0.200073242 0.798339844
vn 0.862304688 -0.497802734 0.0947265625
vn 0.480712891 -0.545898438 0.686035156
vn 0.798828125 0.499511719 0.334716797
vn 0.756835938 0.625488281 -0.190307617
vn 0.818847656 0.111328125 -0.562988281
vn 0.977539062 -0.106567383 0.180908203
vn 0.862304688 -0.497802734 0.0947265625
vn 0.712402344 -0.337890625 -0.615234375
vn -0.728515625 0.169067383 0.663574219
vn -0.350341797 0.907714844 0.231689453
vn -0.345947266 0.661132812 0.665527344
vn -0.916992188 0.398925781 -0.0172119141
vn -0.565917969 0.485107422 -0.666503906
vn -0.992675781 0.0134963989 -0.118652344
vn -0.799316406 -0.203735352 0.565429688
vn -0.657714844 0.0367126465 -0.752441406
vn -0.717285156 -0.681152344 -0.147216797
vn -0.574707031 -0.578125 -0.579101562
vn -0.631347656 -0.728027344 0.266113281
vn 0.568359375 -0.200073242 0.798339844
vn 0.0248260498 0.589355469 0.807128906
vn 0.509765625 0.371582031 0.775878906
vn -0.145019531 -0.0865478516 0.985839844
vn 0.480712891 -0.545898438 0.686035156
vn -0.345947266 0.661132812 0.665527344
vn -0.208740234 -0.430175781 0.878417969
vn -0.728515625 0.169067383 0.663574219
vn -0.799316406 -0.203735352 0.565429688
vn 0.0206604004 -0.101074219 -0.994628906
vn 0.712402344 -0.337890625 -0.615234375
vn 0.818847656 0.111328125 -0.562988281
vn 0.136352539 0.385009766 -0.912597656
vn -0.657714844 0.0367126465 -0.752441406
vn -0.565917969 0.485107422 -0.666503906
vn -0.108459473 -0.745117188 -0.657714844
vn -0.574707031 -0.578125 -0.579101562
vn 0.712402344 -0.337890625 -0.615234375
vn 0.0206604004 -0.101074219 -0.994628906
vn -0.108459473 -0.745117188 -0.657714844
vn 0.305664062 -0.814453125 -0.493164062
vn 0.862304688 -0.497802734 0.0947265625
vn 0.295166016 -0.951660156 -0.0871582031
vn -0.208251953 -0.969726562 -0.126953125
vn -0.574707031 -0.578125 -0.579101562
vn -0.717285156 -0.681152344 -0.147216797
vn -0.631347656 -0.728027344 0.266113281
vn -0.208251953 -0.969726562 -0.126953125
vn -0.253173828 -0.894042969 0.369628906
vn 0.295166016 -0.951660156 -0.0871582031
vn -0.799316406 -0.203735352 0.565429688
vn -0.992675781 0.0134963989 -0.118652344
vn -0.208740234 -0.430175781 0.878417969
vn 0.164550781 -0.939941406 0.299560547
vn 0.862304688 -0.497802734 0.0947265625
vn 0.480712891 -0.545898438 0.686035156
vn 0.0566711426 -0.948730469 0.310791016
vn -0.875976562 -0.10369873 0.470947266
vn -0.466552734 0.0803222656 0.880859375
vn 0.271484375 -0.798828125 0.537109375
vn -0.135498047 0.188842773 0.97265625
vn 0.370117188 -0.745605469 0.554199219
vn 0.057434082 0.332275391 0.94140625
vn 0.442382812 -0.666992188 0.599609375
vn 0.712890625 -0.585449219 0.385986328
vn 0.522949219 0.467529297 0.712890625
vn 0.805175781 -0.578125 0.131591797
vn 0.879882812 0.474365234 -0.0163879395
vn 0.783203125 -0.619628906 -0.0501708984
vn 0.83203125 0.472412109 0.290771484
vn 0.712890625 -0.585449219 0.385986328
vn 0.708496094 0.703125 -0.0628051758
vn 0.522949219 0.467529297 0.712890625
vn 0.69140625 0.674804688 0.257568359
vn 0.505371094 0.818359375 0.274414062
vn 0.5234375 0.843261719 -0.123596191
vn 0.213012695 0.913085938 0.348388672
vn 0.0834350586 0.501953125 0.860839844
vn 0.038848877 0.940429688 0.337402344
vn 0.0187072754 0.6953125 0.718261719
vn 0.305908203 0.688476562 0.657226562
vn 0.402099609 0.642089844 0.652832031
vn -0.0181427002 0.469482422 0.8828125
vn 0.057434082 0.332275391 0.94140625
vn -0.223999023 0.412353516 0.8828125
vn 0.670898438 -0.622558594 -0.403320312
vn 0.822265625 -0.545410156 -0.163452148
vn 0.812011719 0.51953125 -0.265625
vn 0.53125 0.382568359 -0.755859375
vn 0.578613281 0.74609375 -0.329833984
vn 0.358886719 0.671386719 -0.6484375
vn 0.0305023193 0.370117188 -0.928222656
vn 0.433349609 0.800292969 -0.415039062
vn 0.708496094 0.703125 -0.0628051758
vn 0.5234375 0.843261719 -0.123596191
vn 0.271240234 0.958496094 -0.087097168
vn 0.335693359 0.762695312 -0.553222656
vn 0.014251709 0.483154297 -0.875488281
vn 0.283935547 0.859375 -0.425048828
vn 0.0881958008 0.668457031 -0.738769531
vn -0.325195312 0.369384766 -0.870605469
vn -0.0247650146 0.918945312 -0.394042969
vn -0.0164031982 0.998046875 -0.0609130859
vn -0.493164062 0.86328125 -0.107849121
vn -0.0705566406 0.762207031 -0.643554688
vn -0.458984375 0.815429688 -0.352539062
vn -0.756347656 0.644042969 -0.113952637
vn -0.327880859 0.612792969 -0.719238281
vn -0.533203125 0.293701172 -0.79296875
vn -0.738769531 0.559570312 -0.375732422
vn -0.94921875 0.312744141 -0.0317687988
vn 0.783203125 -0.619628906 -0.0501708984
vn 0.812011719 0.51953125 -0.265625
vn 0.822265625 -0.545410156 -0.163452148
vn 0.879882812 0.474365234 -0.0163879395
vn 0.578613281 0.74609375 -0.329833984
vn 0.708496094 0.703125 -0.0628051758
vn -0.0429382324 -0.0672607422 -0.996582031
vn 0.390380859 -0.790527344 -0.471435547
vn 0.437744141 -0.735839844 -0.516601562
vn -0.350585938 -0.112670898 -0.9296875
vn 0.287597656 -0.795898438 -0.532714844
vn -0.936035156 -0.184204102 -0.299804688
vn 0.0287475586 -0.985839844 -0.16418457
vn -0.350585938 -0.112670898 -0.9296875
vn 0.390380859 -0.790527344 -0.471435547
vn -0.484375 0.175537109 -0.856933594
vn -0.962890625 0.0917358398 -0.253662109
vn -0.0429382324 -0.0672607422 -0.996582031
vn -0.983886719 0.00169467926 -0.178833008
vn -0.198974609 0.221191406 -0.954589844
vn -0.554199219 0.188842773 -0.810546875
vn -0.544921875 0.105529785 -0.83203125
vn -0.624023438 -0.303955078 -0.720214844
vn 0.158325195 0.0331420898 -0.986816406
vn 0.437744141 -0.735839844 -0.516601562
vn 0.670898438 -0.622558594 -0.403320312
vn 0.53125 0.382568359 -0.755859375
vn 0.0305023193 0.370117188 -0.928222656
vn -0.284179688 0.306396484 -0.908691406
vn 0.014251709 0.483154297 -0.875488281
vn -0.325195312 0.369384766 -0.870605469
vn -0.533203125 0.293701172 -0.79296875
vn -0.738769531 0.559570312 -0.375732422
vn -0.327880859 0.612792969 -0.719238281
vn -0.898925781 0.212646484 -0.382568359
vn -0.6953125 -0.196166992 -0.69140625
vn -0.392089844 -0.388427734 -0.833984375
vn -0.985351562 -0.136962891 0.103637695
vn 0.0287475586 -0.985839844 -0.16418457
vn -0.936035156 -0.184204102 -0.299804688
vn 0.0513916016 -0.998046875 0.0346069336
vn -0.993652344 -0.0971069336 0.0531311035
vn 0.0739746094 -0.997070312 0.0274353027
vn -0.875976562 -0.10369873 0.470947266
vn 0.0566711426 -0.948730469 0.310791016
vn 0.0587463379 -0.997558594 0.0419616699
vn -0.982421875 -0.18359375 0.0287475586
vn -0.928710938 0.0883789062 0.359863281
vn -0.466552734 0.0803222656 0.880859375
vn -0.993652344 -0.0971069336 0.0531311035
vn 0.0739746094 -0.997070312 0.0274353027
vn -0.978515625 -0.122619629 -0.166381836
vn -0.997070312 0.00282669067 0.075012207
vn -0.467041016 -0.241455078 0.850585938
vn 0.0685424805 -0.735351562 0.674316406
vn -0.822753906 -0.0702514648 0.564453125
vn -0.547363281 0.352294922 0.759277344
vn -0.223999023 0.412353516 0.8828125
vn -0.135498047 0.188842773 0.97265625
vn -0.0181427002 0.469482422 0.8828125
vn 0.057434082 0.332275391 0.94140625
vn -0.241943359 0.243408203 0.939453125
vn 0.0834350586 0.501953125 0.860839844
vn 0.0187072754 0.6953125 0.718261719
vn -0.480224609 0.0517883301 0.875488281
vn -0.526855469 0.351806641 0.7734375
vn -0.349121094 0.635253906 0.688964844
vn 0.038848877 0.940429688 0.337402344
vn -0.504394531 0.812988281 0.290771484
vn -0.775390625 0.589355469 0.22668457
vn -0.53125 -0.114135742 0.839355469
vn -0.884277344 0.0365600586 0.465332031
vn -0.862304688 0.228881836 0.452148438
vn -0.943359375 0.273925781 0.187011719
vn -0.978027344 0.0855712891 0.189453125
vn -0.94921875 0.312744141 -0.0317687988
vn -0.756347656 0.644042969 -0.113952637
vn -0.997070312 0.0783691406 0.00517272949
vn -0.973144531 0.0480041504 0.224365234
vn -0.702636719 -0.329101562 0.630859375
vn -0.998535156 -0.00268936157 -0.0527648926
vn -0.985351562 -0.0430297852 -0.166259766
vn -0.978515625 -0.122619629 -0.166381836
vn -0.993652344 -0.0971069336 0.0531311035
vn -0.985351562 -0.136962891 0.103637695
vn -0.87890625 -0.206787109 -0.429443359
vn -0.936035156 -0.184204102 -0.299804688
vn -0.962890625 0.0917358398 -0.253662109
vn -0.983886719 0.00169467926 -0.178833008
vn -0.624023438 -0.303955078 -0.720214844
vn 0.0685424805 -0.735351562 0.674316406
vn -0.997070312 0.00282669067 0.075012207
vn -0.978515625 -0.122619629 -0.166381836
vn 0.410400391 -0.854492188 -0.318603516
vn -0.880859375 -0.42578125 0.208007812
vn 0.0816650391 -0.635742188 -0.767578125
vn -0.934082031 -0.315673828 -0.165527344
vn 0.410400391 -0.854492188 -0.318603516
vn -0.978515625 -0.122619629 -0.166381836
vn -0.985351562 -0.0430297852 -0.166259766
vn -0.87890625 -0.206787109 -0.429443359
vn -0.392089844 -0.388427734 -0.833984375
vn -0.624023438 -0.303955078 -0.720214844
vn -0.702636719 -0.329101562 0.630859375
vn 0.0685424805 -0.735351562 0.674316406
vn 0.410400391 -0.854492188 -0.318603516
vn -0.880859375 -0.42578125 0.208007812
vn -0.702636719 -0.329101562 0.630859375
vn -0.880859375 -0.42578125 0.208007812
vn -0.973144531 0.0480041504 0.224365234
vn -0.998535156 -0.00268936157 -0.0527648926
vn -0.934082031 -0.315673828 -0.165527344
vn -0.934082031 -0.315673828 -0.165527344
vn -0.392089844 -0.388427734 -0.833984375
vn -0.998535156 -0.00268936157 -0.0527648926
vn -0.6953125 -0.196166992 -0.69140625
vn -0.998535156 -0.00268936157 -0.0527648926
vn -0.6953125 -0.196166992 -0.69140625
vn -0.997070312 0.0783691406 0.00517272949
vn -0.898925781 0.212646484 -0.382568359
vn -0.94921875 0.312744141 -0.0317687988
vn -0.738769531 0.559570312 -0.375732422
vn 0.5234375 0.843261719 -0.123596191
vn 0.213012695 0.913085938 0.348388672
vn 0.271240234 0.958496094 -0.087097168
vn 0.038848877 0.940429688 0.337402344
vn -0.0164031982 0.998046875 -0.0609130859
vn -0.504394531 0.812988281 0.290771484
vn -0.493164062 0.86328125 -0.107849121
vn -0.775390625 0.589355469 0.22668457
vn -0.756347656 0.644042969 -0.113952637
vn 0.0739746094 -0.997070312 0.0274353027
vn 0.458984375 -0.888183594 0.00537872314
vn 0.0513916016 -0.998046875 0.0346069336
vn 0.0587463379 -0.997558594 0.0419616699
vn 0.0287475586 -0.985839844 -0.16418457
vn 0.0566711426 -0.948730469 0.310791016
vn 0.287597656 -0.795898438 -0.532714844
vn 0.271484375 -0.798828125 0.537109375
vn 0.390380859 -0.790527344 -0.471435547
vn 0.370117188 -0.745605469 0.554199219
vn 0.437744141 -0.735839844 -0.516601562
vn 0.442382812 -0.666992188 0.599609375
vn 0.670898438 -0.622558594 -0.403320312
vn 0.712890625 -0.585449219 0.385986328
vn 0.822265625 -0.545410156 -0.163452148
vn 0.805175781 -0.578125 0.131591797
vn 0.783203125 -0.619628906 -0.0501708984
g Rod_Preregister_Hat_0
f 3/3/3 2/2/2 1/1/1
f 6/6/6 5/5/5 4/4/4
f 9/9/9 8/8/8 7/7/7
f 10/10/10 9/9/9 7/7/7
f 10/10/10 7/7/7 11/11/11
f 12/12/12 10/10/10 11/11/11
f 14/14/14 13/13/13 9/9/9
f 14/14/14 15/15/15 13/13/13
f 15/15/15 16/16/16 13/13/13
f 13/13/13 16/16/16 17/17/17
f 18/18/18 13/13/13 17/17/17
f 18/18/18 19/19/19 13/13/13
f 13/13/13 20/20/20 9/9/9
f 19/19/19 20/20/20 13/13/13
f 20/20/20 19/19/19 9/9/9
f 23/23/23 22/22/22 21/21/21
f 22/22/22 24/24/24 21/21/21
f 21/21/21 24/24/24 25/25/25
f 24/24/24 26/26/26 25/25/25
f 29/29/29 28/28/28 27/27/27
f 30/30/30 29/29/29 27/27/27
f 29/29/29 30/30/30 31/31/31
f 32/32/32 29/29/29 31/31/31
f 35/35/35 34/34/34 33/33/33
f 34/34/34 36/36/36 33/33/33
f 37/37/37 36/36/36 34/34/34
f 33/33/33 36/36/36 38/38/38
f 36/36/36 37/37/37 38/38/38
f 39/39/39 33/33/33 38/38/38
f 37/37/37 40/40/40 38/38/38
f 41/41/41 38/38/38 40/40/40
f 42/42/42 41/41/41 40/40/40
f 38/38/38 41/41/41 43/43/43
f 46/46/46 45/45/45 44/44/44
f 45/45/45 47/47/47 44/44/44
f 48/48/48 44/44/44 47/47/47
f 45/45/45 49/49/49 47/47/47
f 50/50/50 48/48/48 47/47/47
f 49/49/49 51/51/51 47/47/47
f 50/50/50 47/47/47 52/52/52
f 47/47/47 51/51/51 52/52/52
f 55/55/55 54/54/54 53/53/53
f 56/56/56 55/55/55 53/53/53
f 56/56/56 53/53/53 57/57/57
f 58/58/58 56/56/56 57/57/57
f 57/57/57 53/53/53 59/59/59
f 60/60/60 57/57/57 59/59/59
f 63/63/63 62/62/62 61/61/61
f 64/64/64 63/63/63 61/61/61
f 61/61/61 65/65/65 64/64/64
f 65/65/65 66/66/66 64/64/64
f 63/63/63 64/64/64 66/66/66
f 67/67/67 63/63/63 66/66/66
f 68/68/68 63/63/63 67/67/67
f 69/69/69 68/68/68 67/67/67
f 69/69/69 71/71/71 70/70/70
f 71/71/71 72/72/72 70/70/70
f 71/71/71 73/73/73 72/72/72
f 70/70/70 72/72/72 74/74/74
f 74/74/74 75/75/75 70/70/70
f 72/72/72 76/76/76 74/74/74
f 73/73/73 77/77/77 72/72/72
f 76/76/76 72/72/72 77/77/77
f 73/73/73 78/78/78 77/77/77
f 79/79/79 76/76/76 77/77/77
f 78/78/78 79/79/79 77/77/77
f 82/82/82 81/81/81 80/80/80
f 83/83/83 82/82/82 80/80/80
f 82/82/82 83/83/83 84/84/84
f 83/83/83 85/85/85 84/84/84
f 84/84/84 85/85/85 86/86/86
f 85/85/85 87/87/87 86/86/86
f 86/86/86 87/87/87 88/88/88
f 89/89/89 86/86/86 88/88/88
f 92/92/92 91/91/91 90/90/90
f 91/91/91 93/93/93 90/90/90
f 94/94/94 90/90/90 93/93/93
f 91/91/91 95/95/95 93/93/93
f 96/96/96 94/94/94 93/93/93
f 95/95/95 97/97/97 93/93/93
f 93/93/93 97/97/97 96/96/96
f 98/98/98 97/97/97 95/95/95
f 99/99/99 98/98/98 95/95/95
f 100/100/100 98/98/98 99/99/99
f 98/98/98 100/100/100 101/101/101
f 100/100/100 102/102/102 101/101/101
f 102/102/102 103/103/103 101/101/101
f 98/98/98 104/104/104 97/97/97
f 104/104/104 98/98/98 101/101/101
f 104/104/104 105/105/105 97/97/97
f 97/97/97 105/105/105 96/96/96
f 104/104/104 101/101/101 105/105/105
f 105/105/105 106/106/106 96/96/96
f 101/101/101 106/106/106 105/105/105
f 106/106/106 107/107/107 96/96/96
f 106/106/106 101/101/101 108/108/108
f 111/111/111 110/110/110 109/109/109
f 112/112/112 111/111/111 109/109/109
f 113/113/113 111/111/111 112/112/112
f 114/114/114 113/113/113 112/112/112
f 115/115/115 114/114/114 112/112/112
f 116/116/116 113/113/113 114/114/114
f 117/117/117 113/113/113 116/116/116
f 118/118/118 117/117/117 116/116/116
f 119/119/119 118/118/118 116/116/116
f 120/120/120 114/114/114 115/115/115
f 120/120/120 116/116/116 114/114/114
f 121/121/121 120/120/120 115/115/115
f 122/122/122 119/119/119 116/116/116
f 122/122/122 116/116/116 120/120/120
f 123/123/123 120/120/120 121/121/121
f 123/123/123 122/122/122 120/120/120
f 123/123/123 121/121/121 124/124/124
f 122/122/122 125/125/125 119/119/119
f 125/125/125 126/126/126 119/119/119
f 126/126/126 125/125/125 127/127/127
f 123/123/123 128/128/128 122/122/122
f 123/123/123 124/124/124 128/128/128
f 128/128/128 125/125/125 122/122/122
f 125/125/125 129/129/129 127/127/127
f 125/125/125 128/128/128 129/129/129
f 130/130/130 127/127/127 129/129/129
f 124/124/124 131/131/131 128/128/128
f 128/128/128 131/131/131 129/129/129
f 131/131/131 124/124/124 132/132/132
f 129/129/129 131/131/131 133/133/133
f 133/133/133 130/130/130 129/129/129
f 130/130/130 133/133/133 134/134/134
f 137/137/137 136/136/136 135/135/135
f 136/136/136 138/138/138 135/135/135
f 138/138/138 136/136/136 139/139/139
f 140/140/140 138/138/138 139/139/139
f 143/143/143 142/142/142 141/141/141
f 144/144/144 141/141/141 142/142/142
f 147/147/147 146/146/146 145/145/145
f 146/146/146 148/148/148 145/145/145
f 145/145/145 148/148/148 149/149/149
f 150/150/150 148/148/148 146/146/146
f 151/151/151 150/150/150 146/146/146
f 152/152/152 148/148/148 150/150/150
f 151/151/151 153/153/153 150/150/150
f 154/154/154 152/152/152 150/150/150
f 153/153/153 155/155/155 150/150/150
f 154/154/154 150/150/150 155/155/155
f 156/156/156 155/155/155 153/153/153
f 153/153/153 157/157/157 156/156/156
f 158/158/158 152/152/152 154/154/154
f 158/158/158 159/159/159 152/152/152
f 159/159/159 158/158/158 160/160/160
f 158/158/158 161/161/161 160/160/160
f 158/158/158 162/162/162 161/161/161
f 162/162/162 158/158/158 154/154/154
f 163/163/163 154/154/154 155/155/155
f 162/162/162 154/154/154 163/163/163
f 155/155/155 156/156/156 163/163/163
f 164/164/164 162/162/162 163/163/163
f 164/164/164 163/163/163 165/165/165
f 156/156/156 165/165/165 163/163/163
f 165/165/165 156/156/156 166/166/166
f 166/166/166 156/156/156 167/167/167
f 168/168/168 166/166/166 167/167/167
f 156/156/156 169/169/169 167/167/167
f 169/169/169 156/156/156 157/157/157
f 170/170/170 169/169/169 157/157/157
f 171/171/171 170/170/170 157/157/157
f 174/174/174 173/173/173 172/172/172
f 173/173/173 175/175/175 172/172/172
f 176/176/176 172/172/172 175/175/175
f 177/177/177 176/176/176 175/175/175
f 180/180/180 179/179/179 178/178/178
f 181/181/181 180/180/180 178/178/178
f 181/181/181 178/178/178 182/182/182
f 182/182/182 178/178/178 183/183/183
f 180/180/180 181/181/181 184/184/184
f 185/185/185 180/180/180 184/184/184
f 184/184/184 181/181/181 186/186/186
f 181/181/181 187/187/187 186/186/186
f 187/187/187 181/181/181 182/182/182
f 182/182/182 188/188/188 187/187/187
f 188/188/188 189/189/189 187/187/187
f 189/189/189 188/188/188 190/190/190
f 191/191/191 182/182/182 183/183/183
f 192/192/192 191/191/191 183/183/183
f 193/193/193 192/192/192 183/183/183
f 192/192/192 193/193/193 194/194/194
f 193/193/193 195/195/195 194/194/194
f 192/192/192 196/196/196 191/191/191
f 197/197/197 196/196/196 192/192/192
f 197/197/197 198/198/198 196/196/196
f 182/182/182 191/191/191 199/199/199
f 196/196/196 199/199/199 191/191/191
f 196/196/196 200/200/200 199/199/199
f 198/198/198 201/201/201 196/196/196
f 201/201/201 200/200/200 196/196/196
f 198/198/198 202/202/202 201/201/201
f 202/202/202 203/203/203 201/201/201
f 201/201/201 203/203/203 200/200/200
f 203/203/203 204/204/204 200/200/200
f 199/199/199 205/205/205 182/182/182
f 200/200/200 205/205/205 199/199/199
f 205/205/205 188/188/188 182/182/182
f 205/205/205 206/206/206 188/188/188
f 206/206/206 190/190/190 188/188/188
f 200/200/200 207/207/207 205/205/205
f 207/207/207 206/206/206 205/205/205
f 207/207/207 200/200/200 208/208/208
f 200/200/200 204/204/204 208/208/208
f 207/207/207 208/208/208 206/206/206
f 206/206/206 209/209/209 190/190/190
f 208/208/208 209/209/209 206/206/206
f 208/208/208 204/204/204 210/210/210
f 208/208/208 210/210/210 209/209/209
f 204/204/204 211/211/211 210/210/210
f 210/210/210 212/212/212 209/209/209
f 209/209/209 213/213/213 190/190/190
f 209/209/209 212/212/212 213/213/213
f 190/190/190 213/213/213 214/214/214
f 212/212/212 215/215/215 213/213/213
f 218/218/218 217/217/217 216/216/216
f 219/219/219 218/218/218 216/216/216
f 216/216/216 220/220/220 219/219/219
f 220/220/220 221/221/221 219/219/219
f 221/221/221 220/220/220 222/222/222
f 222/222/222 220/220/220 223/223/223
f 220/220/220 224/224/224 223/223/223
f 227/227/227 226/226/226 225/225/225
f 228/228/228 227/227/227 225/225/225
f 231/231/231 230/230/230 229/229/229
f 230/230/230 232/232/232 229/229/229
f 232/232/232 230/230/230 233/233/233
f 230/230/230 234/234/234 233/233/233
f 235/235/235 234/234/234 230/230/230
f 236/236/236 235/235/235 230/230/230
f 235/235/235 236/236/236 237/237/237
f 240/240/240 239/239/239 238/238/238
f 241/241/241 240/240/240 238/238/238
f 244/244/244 243/243/243 242/242/242
f 243/243/243 244/244/244 245/245/245
f 246/246/246 243/243/243 245/245/245
f 249/249/249 248/248/248 247/247/247
f 250/250/250 248/248/248 249/249/249
f 253/253/253 252/252/252 251/251/251
f 254/254/254 252/252/252 253/253/253
f 255/255/255 254/254/254 253/253/253
f 256/256/256 254/254/254 255/255/255
f 259/259/259 258/258/258 257/257/257
f 258/258/258 259/259/259 260/260/260
f 259/259/259 261/261/261 260/260/260
f 260/260/260 261/261/261 262/262/262
f 261/261/261 263/263/263 262/262/262
f 262/262/262 263/263/263 264/264/264
f 263/263/263 265/265/265 264/264/264
f 268/268/268 267/267/267 266/266/266
f 266/266/266 267/267/267 269/269/269
f 270/270/270 267/267/267 268/268/268
f 269/269/269 267/267/267 271/271/271
f 272/272/272 267/267/267 270/270/270
f 271/271/271 267/267/267 273/273/273
f 274/274/274 267/267/267 272/272/272
f 273/273/273 267/267/267 275/275/275
f 276/276/276 267/267/267 274/274/274
f 275/275/275 267/267/267 277/277/277
f 278/278/278 267/267/267 276/276/276
f 277/277/277 267/267/267 279/279/279
f 280/280/280 267/267/267 278/278/278
f 279/279/279 267/267/267 281/281/281
f 282/282/282 267/267/267 280/280/280
f 281/281/281 267/267/267 282/282/282
