g IS4_MDL_EscenarioPB_Camiseta_7
v -0.00222681719 -0.1409747 0.00641628494
v -0.0045608012 0.0335611291 0.00161403907
v -0.00853052735 0.0651095882 0.0786819085
v -0.00150416093 -0.144931301 0.135631368
v -0.00646998081 -0.254769385 0.00877468288
v -0.0160256457 0.0507673956 0.124822043
v -0.00150416093 -0.158152282 0.162617445
v -0.0308254492 -0.0355189182 0.196701929
v -0.00148462958 -0.251303047 0.13895534
v 0.0139108775 -0.517121375 0.0149770761
v -0.0151613876 -0.524331927 0.146070823
v 0.0685886145 -0.517121375 0.0149770761
v -0.0151613876 -0.524331927 0.146070823
v 0.00994603429 -0.524331927 0.146070823
v 0.0139108775 -0.517121375 0.0149770761
v 0.00994603429 -0.561247349 -0.0692685246
v -0.0151613876 -0.561247349 -0.0692685246
v -0.00150416093 -0.158152282 0.162617445
v -0.0308254492 -0.0355189182 0.196701929
v -0.000283457775 -0.0355189182 0.196701929
v 0.00994603429 -0.158152282 0.162617445
v -0.00150416093 -0.167024031 -0.122312963
v 0.00994603429 -0.167024031 -0.122312963
v -0.000283457775 -0.0735699087 -0.20803684
v -0.0308254492 -0.0735699087 -0.20803684
v -0.00558619201 0.067556642 -0.0717734098
v 0.00462376885 0.0310071129 -0.132748753
v 0.0105807995 0.0688901097 -0.0761410818
v -0.0160256457 0.0310071129 -0.132748753
v -0.000283457775 -0.0735699087 -0.20803684
v -0.0308254492 -0.0735699087 -0.20803684
v 0.00994603429 -0.144931301 0.135631368
v -0.00148462958 -0.251303047 0.13895534
v -0.00150416093 -0.144931301 0.135631368
v 0.00996556599 -0.251303047 0.13895534
v -0.0151613876 -0.524331927 0.146070823
v 0.00994603429 -0.524331927 0.146070823
v -0.00150416093 -0.152310148 -0.109225802
v 0.0243259165 -0.314278513 -0.100500219
v 0.00994603429 -0.152310148 -0.109225802
v 0.0128708379 -0.314278513 -0.100500219
v 0.00994603429 -0.561247349 -0.0692685246
v -0.0151613876 -0.561247349 -0.0692685246
v -0.00150416093 -0.144931301 0.135631368
v -0.00150416093 -0.158152282 0.162617445
v 0.00994603429 -0.158152282 0.162617445
v 0.00994603429 -0.144931301 0.135631368
v 0.00994603429 -0.144931301 0.135631368
v 0.00994603429 -0.158152282 0.162617445
v -0.000283457775 -0.0355189182 0.196701929
v 0.00462376885 0.0507673956 0.124822043
v 0.0089987684 0.0654431507 0.0793813765
v 0.0302390028 0.0335611291 0.00161403907
v 0.0325729847 -0.1409747 0.00641628494
v 0.00996556599 -0.251303047 0.13895534
v 0.0325925164 -0.254769385 0.00877468288
v 0.00994603429 -0.524331927 0.146070823
v 0.0685886145 -0.517121375 0.0149770761
v 0.00462376885 0.0507673956 0.124822043
v -0.000283457775 -0.0355189182 0.196701929
v -0.0308254492 -0.0355189182 0.196701929
v -0.0160256457 0.0507673956 0.124822043
v -0.00853052735 0.0651095882 0.0786819085
v 0.0089987684 0.0654431507 0.0793813765
v 0.0302390028 0.0335611291 0.00161403907
v -0.0045608012 0.0335611291 0.00161403907
v 0.0105807995 0.0688901097 -0.0761410818
v -0.00558619201 0.067556642 -0.0717734098
v -0.00150416093 -0.152310148 -0.109225802
v -0.00150416093 -0.167024031 -0.122312963
v -0.0308254492 -0.0735699087 -0.20803684
v -0.0160256457 0.0310071129 -0.132748753
v -0.00558619201 0.067556642 -0.0717734098
v -0.0045608012 0.0335611291 0.00161403907
v -0.00222681719 -0.1409747 0.00641628494
v 0.0128708379 -0.314278513 -0.100500219
v -0.00646998081 -0.254769385 0.00877468288
v -0.0151613876 -0.561247349 -0.0692685246
v 0.0139108775 -0.517121375 0.0149770761
v 0.00462376885 0.0310071129 -0.132748753
v -0.000283457775 -0.0735699087 -0.20803684
v 0.00994603429 -0.167024031 -0.122312963
v 0.00994603429 -0.152310148 -0.109225802
v 0.0105807995 0.0688901097 -0.0761410818
v 0.0302390028 0.0335611291 0.00161403907
v 0.0325729847 -0.1409747 0.00641628494
v 0.0325925164 -0.254769385 0.00877468288
v 0.0243259165 -0.314278513 -0.100500219
v 0.0685886145 -0.517121375 0.0149770761
v 0.00994603429 -0.561247349 -0.0692685246
v 0.00994603429 -0.152310148 -0.109225802
v 0.00994603429 -0.167024031 -0.122312963
v -0.00150416093 -0.167024031 -0.122312963
v -0.00150416093 -0.152310148 -0.109225802
vt 0.0703125 0.885742188
vt 0.0700073242 0.941894531
vt 0.0439453125 0.937988281
vt 0.029876709 0.889160156
vt 0.0706176758 0.857421875
vt 0.0209197998 0.935058594
vt 0.018371582 0.886230469
vt 0.0034198761 0.902832031
vt 0.0301055908 0.8515625
vt 0.0704956055 0.8046875
vt 0.0261535645 0.799316406
vt 0.0217590332 0.826171875
vt 0.0138778687 0.850585938
vt 0.0217590332 0.850585938
vt 0.0138778687 0.826171875
vt 0.0217590332 0.80078125
vt 0.0138778687 0.80078125
vt 0.0138778687 0.80078125
vt 0.0138778687 0.823730469
vt 0.0217590332 0.823730469
vt 0.0217590332 0.80078125
vt 0.0138778687 0.81640625
vt 0.0217590332 0.81640625
vt 0.0217590332 0.80078125
vt 0.0138778687 0.80078125
vt 0.0023651123 0.84765625
vt 0.0102462769 0.856445312
vt 0.0102462769 0.84765625
vt 0.0023651123 0.856445312
vt 0.0102462769 0.876464844
vt 0.0023651123 0.876464844
vt 0.0102462769 0.850585938
vt 0.0023651123 0.840332031
vt 0.0023651123 0.850585938
vt 0.0102462769 0.840332031
vt 0.0023651123 0.80078125
vt 0.0102462769 0.80078125
vt 0.0023651123 0.80078125
vt 0.0102462769 0.821777344
vt 0.0102462769 0.80078125
vt 0.0023651123 0.821777344
vt 0.0102462769 0.856445312
vt 0.0023651123 0.856445312
vt 0.0138778687 0.80078125
vt 0.0138778687 0.805664062
vt 0.0217590332 0.805664062
vt 0.0217590332 0.80078125
vt 0.0294647217 0.889160156
vt 0.0179595947 0.886230469
vt 0.00301361084 0.902832031
vt 0.0205230713 0.935058594
vt 0.0431213379 0.937988281
vt 0.0700073242 0.941894531
vt 0.0703125 0.885742188
vt 0.0296936035 0.8515625
vt 0.0706176758 0.857421875
vt 0.0261535645 0.799316406
vt 0.0704956055 0.8046875
vt 0.0102462769 0.821289062
vt 0.0102462769 0.80078125
vt 0.0023651123 0.80078125
vt 0.0023651123 0.821289062
vt 0.0023651123 0.828613281
vt 0.0102462769 0.828613281
vt 0.0102462769 0.836914062
vt 0.0023651123 0.836914062
vt 0.0102462769 0.84765625
vt 0.0023651123 0.84765625
vt 0.0291442871 0.889160156
vt 0.018371582 0.88671875
vt 0.00290870667 0.90234375
vt 0.020324707 0.935546875
vt 0.0463256836 0.946777344
vt 0.0700073242 0.941894531
vt 0.0703125 0.885742188
vt 0.0296630859 0.851074219
vt 0.0706176758 0.857421875
vt 0.0259857178 0.798828125
vt 0.0704956055 0.8046875
vt 0.0207366943 0.935546875
vt 0.00331497192 0.90234375
vt 0.0187683105 0.88671875
vt 0.0295562744 0.889160156
vt 0.0463256836 0.947265625
vt 0.0700073242 0.941894531
vt 0.0703125 0.885742188
vt 0.0706176758 0.857421875
vt 0.0300750732 0.851074219
vt 0.0704956055 0.8046875
vt 0.0263977051 0.798828125
vt 0.0217590332 0.818847656
vt 0.0217590332 0.81640625
vt 0.0138778687 0.81640625
vt 0.0138778687 0.818847656
vn -0.999511719 -0.0171966553 -0.0158996582
vn -0.998046875 0.0608825684 -0.00552749634
vn -0.992675781 0.103027344 -0.0600891113
vn -0.998046875 -0.0412902832 -0.0446166992
vn -0.999023438 -0.00832366943 -0.04296875
vn -0.976074219 0.205932617 0.0710449219
vn -0.9609375 -0.258300781 0.100891113
vn -0.994628906 -0.0236816406 0.102111816
vn -0.997558594 -0.0012960434 0.0701904297
vn -0.989746094 -0.142944336 -0.00395965576
vn -0.98828125 -0.145874023 0.0461425781
vn 0.999023438 -0.0433654785 0.0166015625
vn -0.98828125 -0.145874023 0.0461425781
vn 0.90625 -0.108825684 0.408691406
vn -0.989746094 -0.142944336 -0.00395965576
vn 0.885253906 -0.210693359 -0.414794922
vn -0.984375 -0.146362305 -0.0993652344
vn -0.9609375 -0.258300781 0.100891113
vn -0.994628906 -0.0236816406 0.102111816
vn 0.880859375 0.123168945 0.45703125
vn 0.925292969 -0.0836181641 0.369628906
vn -0.954589844 -0.297607422 0.0116500854
vn 0.947753906 -0.179443359 -0.264160156
vn 0.879394531 0.0264892578 -0.475097656
vn -0.98828125 -0.0360412598 -0.149536133
vn -0.987304688 0.150512695 0.0543518066
vn 0.901367188 0.251220703 -0.352050781
vn 0.966796875 0.174682617 -0.187133789
vn -0.979492188 0.190673828 -0.0646972656
vn 0.879394531 0.0264892578 -0.475097656
vn -0.98828125 -0.0360412598 -0.149536133
vn 0.982421875 0.0221710205 0.185791016
vn -0.997558594 -0.0012960434 0.0701904297
vn -0.998046875 -0.0412902832 -0.0446166992
vn 0.927734375 0.0538330078 0.369628906
vn -0.98828125 -0.145874023 0.0461425781
vn 0.90625 -0.108825684 0.408691406
vn -0.999023438 -0.0434265137 0.0171661377
vn 0.914550781 0.00846862793 -0.404785156
vn 0.981933594 0.0234985352 -0.188842773
vn -0.988769531 -0.0139389038 -0.148681641
vn 0.885253906 -0.210693359 -0.414794922
vn -0.984375 -0.146362305 -0.0993652344
vn -0.998046875 -0.0412902832 -0.0446166992
vn -0.9609375 -0.258300781 0.100891113
vn 0.925292969 -0.0836181641 0.369628906
vn 0.982421875 0.0221710205 0.185791016
vn 0.982421875 0.0221710205 0.185791016
vn 0.925292969 -0.0836181641 0.369628906
vn 0.880859375 0.123168945 0.45703125
vn 0.890136719 0.306640625 0.336425781
vn 0.970703125 0.180664062 0.157592773
vn 0.995117188 0.0980224609 -0.00301933289
vn 0.999511719 0.0288696289 0.00194644928
vn 0.927734375 0.0538330078 0.369628906
vn 0.998046875 0.0448608398 0.0456237793
vn 0.90625 -0.108825684 0.408691406
vn 0.999023438 -0.0433654785 0.0166015625
vn 0.890136719 0.306640625 0.336425781
vn 0.880859375 0.123168945 0.45703125
vn -0.994628906 -0.0236816406 0.102111816
vn -0.976074219 0.205932617 0.0710449219
vn -0.992675781 0.103027344 -0.0600891113
vn 0.970703125 0.180664062 0.157592773
vn 0.995117188 0.0980224609 -0.00301933289
vn -0.998046875 0.0608825684 -0.00552749634
vn 0.966796875 0.174682617 -0.187133789
vn -0.987304688 0.150512695 0.0543518066
vn -0.999023438 -0.0434265137 0.0171661377
vn -0.954589844 -0.297607422 0.0116500854
vn -0.98828125 -0.0360412598 -0.149536133
vn -0.979492188 0.190673828 -0.0646972656
vn -0.987304688 0.150512695 0.0543518066
vn -0.998046875 0.0608825684 -0.00552749634
vn -0.999511719 -0.0171966553 -0.0158996582
vn -0.988769531 -0.0139389038 -0.148681641
vn -0.999023438 -0.00832366943 -0.04296875
vn -0.984375 -0.146362305 -0.0993652344
vn -0.989746094 -0.142944336 -0.00395965576
vn 0.901367188 0.251220703 -0.352050781
vn 0.879394531 0.0264892578 -0.475097656
vn 0.947753906 -0.179443359 -0.264160156
vn 0.981933594 0.0234985352 -0.188842773
vn 0.966796875 0.174682617 -0.187133789
vn 0.995117188 0.0980224609 -0.00301933289
vn 0.999511719 0.0288696289 0.00194644928
vn 0.998046875 0.0448608398 0.0456237793
vn 0.914550781 0.00846862793 -0.404785156
vn 0.999023438 -0.0433654785 0.0166015625
vn 0.885253906 -0.210693359 -0.414794922
vn 0.981933594 0.0234985352 -0.188842773
vn 0.947753906 -0.179443359 -0.264160156
vn -0.954589844 -0.297607422 0.0116500854
vn -0.999023438 -0.0434265137 0.0171661377
g IS4_MDL_EscenarioPB_Camiseta_7_0
f 3/3/3 2/2/2 1/1/1
f 4/4/4 3/3/3 1/1/1
f 1/1/1 5/5/5 4/4/4
f 4/4/4 6/6/6 3/3/3
f 4/4/4 7/7/7 6/6/6
f 7/7/7 8/8/8 6/6/6
f 5/5/5 9/9/9 4/4/4
f 5/5/5 10/10/10 9/9/9
f 10/10/10 11/11/11 9/9/9
f 14/14/14 13/13/13 12/12/12
f 13/13/13 15/15/15 12/12/12
f 12/12/12 15/15/15 16/16/16
f 15/15/15 17/17/17 16/16/16
f 20/20/20 19/19/19 18/18/18
f 21/21/21 20/20/20 18/18/18
f 24/24/24 23/23/23 22/22/22
f 25/25/25 24/24/24 22/22/22
f 28/28/28 27/27/27 26/26/26
f 27/27/27 29/29/29 26/26/26
f 27/27/27 30/30/30 29/29/29
f 30/30/30 31/31/31 29/29/29
f 34/34/34 33/33/33 32/32/32
f 33/33/33 35/35/35 32/32/32
f 33/33/33 36/36/36 35/35/35
f 36/36/36 37/37/37 35/35/35
f 40/40/40 39/39/39 38/38/38
f 39/39/39 41/41/41 38/38/38
f 39/39/39 42/42/42 41/41/41
f 42/42/42 43/43/43 41/41/41
f 46/46/46 45/45/45 44/44/44
f 47/47/47 46/46/46 44/44/44
f 50/50/50 49/49/49 48/48/48
f 51/51/51 50/50/50 48/48/48
f 52/52/52 51/51/51 48/48/48
f 53/53/53 52/52/52 48/48/48
f 54/54/54 53/53/53 48/48/48
f 48/48/48 55/55/55 54/54/54
f 55/55/55 56/56/56 54/54/54
f 55/55/55 57/57/57 56/56/56
f 57/57/57 58/58/58 56/56/56
f 61/61/61 60/60/60 59/59/59
f 62/62/62 61/61/61 59/59/59
f 63/63/63 62/62/62 59/59/59
f 64/64/64 63/63/63 59/59/59
f 64/64/64 65/65/65 63/63/63
f 65/65/65 66/66/66 63/63/63
f 65/65/65 67/67/67 66/66/66
f 67/67/67 68/68/68 66/66/66
f 71/71/71 70/70/70 69/69/69
f 72/72/72 71/71/71 69/69/69
f 73/73/73 72/72/72 69/69/69
f 74/74/74 73/73/73 69/69/69
f 75/75/75 74/74/74 69/69/69
f 69/69/69 76/76/76 75/75/75
f 76/76/76 77/77/77 75/75/75
f 76/76/76 78/78/78 77/77/77
f 78/78/78 79/79/79 77/77/77
f 82/82/82 81/81/81 80/80/80
f 83/83/83 82/82/82 80/80/80
f 83/83/83 80/80/80 84/84/84
f 83/83/83 84/84/84 85/85/85
f 86/86/86 83/83/83 85/85/85
f 86/86/86 87/87/87 83/83/83
f 87/87/87 88/88/88 83/83/83
f 87/87/87 89/89/89 88/88/88
f 89/89/89 90/90/90 88/88/88
f 93/93/93 92/92/92 91/91/91
f 94/94/94 93/93/93 91/91/91
