g IS4_MDL_EscenarioPB_PedestalGrande_Roto_Cristal_1
v -1.09090328 -0.593724668 0.386912227
v -1.09090328 0.603724658 0.386912227
v -0.486948222 0.603724658 0.386912227
v -4.88281239E-06 -0.593724668 0.386912227
v -0.271791995 0.603724658 0.386912227
v -4.88281239E-06 0.603724658 0.386912227
v -4.88281239E-06 0.603724658 0.386912227
v -0.0893945321 0.603724658 0.259687334
v -4.88281239E-06 0.603724658 -0.0396435522
v -0.182973623 0.603724658 0.228178099
v -0.05484863 0.603724658 -0.0925622508
v -0.271791995 0.603724658 0.386912227
v -0.187592775 0.603724658 0.0889987126
v -0.291630864 0.603724658 0.143955991
v -0.486948222 0.603724658 0.386912227
v -0.274033189 0.603724658 -0.0331748948
v -0.378471673 0.603724658 -0.0490628034
v -0.441704094 0.603724658 -0.162962794
v -0.52106446 0.603724658 0.00240432727
v -0.751376927 0.603724658 -0.0463833623
v -0.509453118 0.603724658 -0.133873597
v -1.09090328 0.603724658 0.386912227
v -0.816850543 0.603724658 -0.132768705
v -1.09090328 0.603724658 -0.0533975214
v -0.934189439 0.603724658 -0.190518647
v -1.09090328 0.603724658 -0.2625238
v -0.93269527 0.603724658 -0.191913754
v -0.826025367 0.603724658 -0.20767425
v -0.87931639 0.603724658 -0.24647598
v -1.09090328 -0.593724668 0.386912227
v -1.09090328 0.603724658 -0.0533975214
v -1.09090328 0.603724658 0.386912227
v -1.09090328 0.603724658 -0.2625238
v -1.09090328 0.208567113 -0.386912227
v -1.09090328 -0.10599304 -0.386912227
v -1.09090328 -0.593724668 -0.386912227
v -4.88281239E-06 -0.593724668 0.386912227
v -4.88281239E-06 0.603724658 0.386912227
v 0.390991211 0.603724658 0.386912227
v 1.09089351 0.603724658 0.386912227
v 1.09089351 -0.593724668 0.386912227
v 0.910234332 0.603724658 -0.168726191
v 1.09089351 0.603724658 -0.386912227
v 1.09089351 0.603724658 0.386912227
v 0.693168938 0.603724658 0.113036036
v 0.690190434 0.603724658 -0.0739151016
v 0.589477539 0.603724658 -0.101701811
v 0.463046879 0.603724658 0.117808074
v 0.490820289 0.603724658 -0.0416514575
v 0.390991211 0.603724658 0.386912227
v 0.232685536 0.603724658 0.0749902353
v -4.88281239E-06 0.603724658 0.386912227
v 0.122260742 0.603724658 0.190957636
v -4.88281239E-06 0.603724658 -0.0396435522
v 1.09089351 -0.593724668 0.386912227
v 1.09089351 0.603724658 0.386912227
v 1.09089351 0.603724658 -0.386912227
v 1.09089351 -0.593724668 -0.386912227
v 1.09089351 0.603724658 -0.386912227
v 0.789897442 0.424876541 -0.386912227
v 0.779750943 0.124847025 -0.386912227
v 1.09089351 -0.593724668 -0.386912227
v 0.650136709 0.114254527 -0.386912227
v 0.630766571 -0.0530097187 -0.386912227
v 0.523588836 -0.593724668 -0.386912227
v 0.508164048 0.112968974 -0.386912227
v 0.494506836 -0.165784761 -0.386912227
v 0.231264636 -0.593724668 -0.386912227
v 0.414809555 -0.197547674 -0.386912227
v 0.465957016 -0.0515523516 -0.386912227
v 0.238017574 -0.197656021 -0.386912227
v -4.88281239E-06 -0.421897233 -0.386912227
v -4.88281239E-06 -0.593724668 -0.386912227
v -1.08090329 0.593724668 -0.386912227
v -1.09090328 0.208567113 -0.386912227
v -1.09090328 -0.10599304 -0.386912227
v -0.918515623 0.376940161 -0.386912227
v -0.907812476 -0.0804524943 -0.386912227
v -1.09090328 -0.593724668 -0.386912227
v -0.848867178 -0.299629271 -0.386912227
v -0.706640601 0.000765611301 -0.386912227
v -0.700468719 -0.153222188 -0.386912227
v -0.71590817 -0.308623493 -0.386912227
v -0.450727522 -0.384390056 -0.386912227
v -0.478583962 -0.593724668 -0.386912227
v -0.182397455 -0.336813152 -0.386912227
v -4.88281239E-06 -0.593724668 -0.386912227
v -4.88281239E-06 -0.421897233 -0.386912227
v -4.88281239E-06 -0.119767912 -0.386912227
v -1.08090329 -0.593724668 0.376912236
v -0.486948222 0.593724668 0.376912236
v -1.08090329 0.593724668 0.376912236
v -4.88281239E-06 -0.593724668 0.376912236
v -0.271791995 0.593724668 0.376912236
v -4.88281239E-06 0.593724668 0.376912236
v -4.88281239E-06 0.593724668 0.376912236
v -4.88281239E-06 0.593724668 -0.0396435522
v -0.0893945321 0.593724668 0.259687334
v -0.182973623 0.593724668 0.228178099
v -0.05484863 0.593724668 -0.0925622508
v -0.271791995 0.593724668 0.376912236
v -0.187592775 0.593724668 0.0889987126
v -0.291630864 0.593724668 0.143955991
v -0.486948222 0.593724668 0.376912236
v -0.274033189 0.593724668 -0.0331748948
v -0.378471673 0.593724668 -0.0490628034
v -0.441704094 0.593724668 -0.162962794
v -0.52106446 0.593724668 0.00240432727
v -0.751376927 0.593724668 -0.0463833623
v -0.509453118 0.593724668 -0.133873597
v -1.08090329 0.593724668 0.376912236
v -0.816850543 0.593724668 -0.132768705
v -1.08090329 0.593724668 -0.0533975214
v -0.934189439 0.593724668 -0.190518647
v -1.08090329 0.593724668 -0.2625238
v -0.93269527 0.593724668 -0.191913754
v -0.826025367 0.593724668 -0.20767425
v -0.87931639 0.593724668 -0.24647598
v -1.08090329 -0.593724668 0.376912236
v -1.08090329 0.593724668 0.376912236
v -1.08090329 0.593724668 -0.0533975214
v -1.08090329 0.593724668 -0.2625238
v -1.08090329 0.208567113 -0.376912236
v -1.08090329 -0.10599304 -0.376912236
v -1.08090329 -0.593724668 -0.376912236
v -4.88281239E-06 -0.593724668 0.376912236
v 0.390991211 0.593724668 0.376912236
v -4.88281239E-06 0.593724668 0.376912236
v 1.08089352 0.593724668 0.376912236
v 1.08089352 -0.593724668 0.376912236
v 0.910234332 0.593724668 -0.168726191
v 1.08089352 0.593724668 0.376912236
v 1.08089352 0.593724668 -0.376912236
v 0.693168938 0.593724668 0.113036036
v 0.690190434 0.593724668 -0.0739151016
v 0.589477539 0.593724668 -0.101701811
v 0.463046879 0.593724668 0.117808074
v 0.490820289 0.593724668 -0.0416514575
v 0.390991211 0.593724668 0.376912236
v 0.232685536 0.593724668 0.0749902353
v -4.88281239E-06 0.593724668 0.376912236
v 0.122260742 0.593724668 0.190957636
v -4.88281239E-06 0.593724668 -0.0396435522
v 1.08089352 -0.593724668 0.376912236
v 1.08089352 -0.593724668 -0.376912236
v 1.08089352 0.593724668 -0.376912236
v 1.08089352 0.593724668 0.376912236
v 1.08089352 0.593724668 -0.376912236
v 0.779750943 0.124847025 -0.376912236
v 0.789897442 0.424876541 -0.376912236
v 1.08089352 -0.593724668 -0.376912236
v 0.650136709 0.114254527 -0.376912236
v 0.630766571 -0.0530097187 -0.376912236
v 0.523588836 -0.593724668 -0.376912236
v 0.508164048 0.112968974 -0.376912236
v 0.494506836 -0.165784761 -0.376912236
v 0.231264636 -0.593724668 -0.376912236
v 0.414809555 -0.197547674 -0.376912236
v 0.465957016 -0.0515523516 -0.376912236
v 0.238017574 -0.197656021 -0.376912236
v -4.88281239E-06 -0.421897233 -0.376912236
v -4.88281239E-06 -0.593724668 -0.376912236
v -1.08090329 0.593724668 -0.376912236
v -1.08090329 -0.10599304 -0.376912236
v -1.08090329 0.208567113 -0.376912236
v -0.918515623 0.376940161 -0.376912236
v -0.907812476 -0.0804524943 -0.376912236
v -1.08090329 -0.593724668 -0.376912236
v -0.848867178 -0.299629271 -0.376912236
v -0.706640601 0.000765611301 -0.376912236
v -0.700468719 -0.153222188 -0.376912236
v -0.71590817 -0.308623493 -0.376912236
v -0.450727522 -0.384390056 -0.376912236
v -0.478583962 -0.593724668 -0.376912236
v -0.182397455 -0.336813152 -0.376912236
v -4.88281239E-06 -0.593724668 -0.376912236
v -4.88281239E-06 -0.421897233 -0.376912236
v -4.88281239E-06 -0.119767912 -0.376912236
v -4.88281239E-06 0.593724668 -0.0396435522
v -4.88281239E-06 0.603724658 -0.0396435522
v -0.0893945321 0.603724658 0.259687334
v -0.0893945321 0.593724668 0.259687334
v 1.08089352 0.593724668 -0.376912236
v 1.09089351 0.603724658 -0.386912227
v 0.910234332 0.603724658 -0.168726191
v 0.910234332 0.593724668 -0.168726191
v 0.690190434 0.603724658 -0.0739151016
v 0.690190434 0.593724668 -0.0739151016
v 0.779750943 0.124847025 -0.376912236
v 0.779750943 0.124847025 -0.386912227
v 0.789897442 0.424876541 -0.386912227
v 0.789897442 0.424876541 -0.376912236
v 0.789897442 0.424876541 -0.376912236
v 0.789897442 0.424876541 -0.386912227
v 1.09089351 0.603724658 -0.386912227
v 1.08089352 0.593724668 -0.376912236
v -1.08090329 0.593724668 -0.376912236
v -1.08090329 0.593724668 -0.386912227
v -0.918515623 0.376940161 -0.386912227
v -0.918515623 0.376940161 -0.376912236
v -1.08090329 0.208567113 -0.376912236
v -1.09090328 0.208567113 -0.386912227
v -1.08090329 0.593724668 -0.386912227
v -1.08090329 0.593724668 -0.376912236
v 0.690190434 0.593724668 -0.0739151016
v 0.690190434 0.603724658 -0.0739151016
v 0.589477539 0.603724658 -0.101701811
v 0.589477539 0.593724668 -0.101701811
v 0.589477539 0.593724668 -0.101701811
v 0.589477539 0.603724658 -0.101701811
v 0.693168938 0.603724658 0.113036036
v 0.693168938 0.593724668 0.113036036
v 0.693168938 0.593724668 0.113036036
v 0.693168938 0.603724658 0.113036036
v 0.490820289 0.603724658 -0.0416514575
v 0.490820289 0.593724668 -0.0416514575
v 0.490820289 0.593724668 -0.0416514575
v 0.490820289 0.603724658 -0.0416514575
v 0.463046879 0.603724658 0.117808074
v 0.463046879 0.593724668 0.117808074
v 0.463046879 0.593724668 0.117808074
v 0.463046879 0.603724658 0.117808074
v 0.232685536 0.603724658 0.0749902353
v 0.232685536 0.593724668 0.0749902353
v 0.232685536 0.593724668 0.0749902353
v 0.232685536 0.603724658 0.0749902353
v 0.122260742 0.603724658 0.190957636
v 0.122260742 0.593724668 0.190957636
v 0.122260742 0.593724668 0.190957636
v 0.122260742 0.603724658 0.190957636
v -4.88281239E-06 0.603724658 -0.0396435522
v -4.88281239E-06 0.593724668 -0.0396435522
v -0.0893945321 0.593724668 0.259687334
v -0.0893945321 0.603724658 0.259687334
v -0.05484863 0.603724658 -0.0925622508
v -0.05484863 0.593724668 -0.0925622508
v -0.05484863 0.593724668 -0.0925622508
v -0.05484863 0.603724658 -0.0925622508
v -0.182973623 0.603724658 0.228178099
v -0.182973623 0.593724668 0.228178099
v -0.182973623 0.593724668 0.228178099
v -0.182973623 0.603724658 0.228178099
v -0.187592775 0.603724658 0.0889987126
v -0.187592775 0.593724668 0.0889987126
v -0.187592775 0.593724668 0.0889987126
v -0.187592775 0.603724658 0.0889987126
v -0.291630864 0.603724658 0.143955991
v -0.291630864 0.593724668 0.143955991
v -0.291630864 0.593724668 0.143955991
v -0.291630864 0.603724658 0.143955991
v -0.274033189 0.603724658 -0.0331748948
v -0.274033189 0.593724668 -0.0331748948
v -0.274033189 0.593724668 -0.0331748948
v -0.274033189 0.603724658 -0.0331748948
v -0.378471673 0.603724658 -0.0490628034
v -0.378471673 0.593724668 -0.0490628034
v -0.378471673 0.593724668 -0.0490628034
v -0.378471673 0.603724658 -0.0490628034
v -0.441704094 0.603724658 -0.162962794
v -0.441704094 0.593724668 -0.162962794
v -0.441704094 0.593724668 -0.162962794
v -0.441704094 0.603724658 -0.162962794
v -0.52106446 0.603724658 0.00240432727
v -0.52106446 0.593724668 0.00240432727
v -0.52106446 0.593724668 0.00240432727
v -0.52106446 0.603724658 0.00240432727
v -0.509453118 0.603724658 -0.133873597
v -0.509453118 0.593724668 -0.133873597
v -0.509453118 0.593724668 -0.133873597
v -0.509453118 0.603724658 -0.133873597
v -0.751376927 0.603724658 -0.0463833623
v -0.751376927 0.593724668 -0.0463833623
v -0.751376927 0.593724668 -0.0463833623
v -0.751376927 0.603724658 -0.0463833623
v -0.816850543 0.603724658 -0.132768705
v -0.816850543 0.593724668 -0.132768705
v -0.816850543 0.593724668 -0.132768705
v -0.816850543 0.603724658 -0.132768705
v -0.826025367 0.603724658 -0.20767425
v -0.826025367 0.593724668 -0.20767425
v -0.826025367 0.593724668 -0.20767425
v -0.826025367 0.603724658 -0.20767425
v -0.93269527 0.603724658 -0.191913754
v -0.93269527 0.593724668 -0.191913754
v -0.93269527 0.593724668 -0.191913754
v -0.93269527 0.603724658 -0.191913754
v -0.87931639 0.603724658 -0.24647598
v -0.87931639 0.593724668 -0.24647598
v -0.87931639 0.593724668 -0.24647598
v -0.87931639 0.603724658 -0.24647598
v -1.09090328 0.603724658 -0.2625238
v -1.08090329 0.593724668 -0.2625238
v -4.88281239E-06 -0.421897233 -0.376912236
v -4.88281239E-06 -0.421897233 -0.386912227
v 0.238017574 -0.197656021 -0.386912227
v 0.238017574 -0.197656021 -0.376912236
v 0.630766571 -0.0530097187 -0.376912236
v 0.630766571 -0.0530097187 -0.386912227
v 0.650136709 0.114254527 -0.386912227
v 0.650136709 0.114254527 -0.376912236
v 0.650136709 0.114254527 -0.376912236
v 0.650136709 0.114254527 -0.386912227
v 0.779750943 0.124847025 -0.386912227
v 0.779750943 0.124847025 -0.376912236
v 0.494506836 -0.165784761 -0.376912236
v 0.494506836 -0.165784761 -0.386912227
v 0.508164048 0.112968974 -0.386912227
v 0.508164048 0.112968974 -0.376912236
v 0.508164048 0.112968974 -0.376912236
v 0.508164048 0.112968974 -0.386912227
v 0.630766571 -0.0530097187 -0.386912227
v 0.630766571 -0.0530097187 -0.376912236
v 0.414809555 -0.197547674 -0.376912236
v 0.414809555 -0.197547674 -0.386912227
v 0.465957016 -0.0515523516 -0.386912227
v 0.465957016 -0.0515523516 -0.376912236
v 0.465957016 -0.0515523516 -0.376912236
v 0.465957016 -0.0515523516 -0.386912227
v 0.494506836 -0.165784761 -0.386912227
v 0.494506836 -0.165784761 -0.376912236
v 0.238017574 -0.197656021 -0.376912236
v 0.238017574 -0.197656021 -0.386912227
v 0.414809555 -0.197547674 -0.386912227
v 0.414809555 -0.197547674 -0.376912236
v -0.182397455 -0.336813152 -0.376912236
v -0.182397455 -0.336813152 -0.386912227
v -4.88281239E-06 -0.119767912 -0.386912227
v -4.88281239E-06 -0.119767912 -0.376912236
v -4.88281239E-06 -0.119767912 -0.376912236
v -4.88281239E-06 -0.119767912 -0.386912227
v -4.88281239E-06 -0.421897233 -0.386912227
v -4.88281239E-06 -0.421897233 -0.376912236
v -0.450727522 -0.384390056 -0.376912236
v -0.182397455 -0.336813152 -0.386912227
v -0.182397455 -0.336813152 -0.376912236
v -0.450727522 -0.384390056 -0.386912227
v -0.71590817 -0.308623493 -0.376912236
v -0.71590817 -0.308623493 -0.386912227
v -0.848867178 -0.299629271 -0.376912236
v -0.848867178 -0.299629271 -0.386912227
v -0.700468719 -0.153222188 -0.386912227
v -0.700468719 -0.153222188 -0.376912236
v -0.700468719 -0.153222188 -0.376912236
v -0.700468719 -0.153222188 -0.386912227
v -0.71590817 -0.308623493 -0.386912227
v -0.71590817 -0.308623493 -0.376912236
v -0.907812476 -0.0804524943 -0.376912236
v -0.907812476 -0.0804524943 -0.386912227
v -0.706640601 0.000765611301 -0.386912227
v -0.706640601 0.000765611301 -0.376912236
v -0.706640601 0.000765611301 -0.376912236
v -0.706640601 0.000765611301 -0.386912227
v -0.848867178 -0.299629271 -0.386912227
v -0.848867178 -0.299629271 -0.376912236
v -0.918515623 0.376940161 -0.376912236
v -0.918515623 0.376940161 -0.386912227
v -0.907812476 -0.0804524943 -0.386912227
v -0.907812476 -0.0804524943 -0.376912236
v -1.08090329 0.593724668 -0.2625238
v -1.09090328 0.603724658 -0.2625238
v -1.09090328 0.208567113 -0.386912227
v -1.08090329 0.208567113 -0.376912236
vt 0.746582031 0.400634766
vt 0.746582031 0.59765625
vt 0.704589844 0.59765625
vt 0.669921875 0.400634766
vt 0.688964844 0.59765625
vt 0.669921875 0.59765625
vt 0.669921875 0.400634766
vt 0.676269531 0.431152344
vt 0.669921875 0.509277344
vt 0.682617188 0.439453125
vt 0.673828125 0.522949219
vt 0.688964844 0.400634766
vt 0.683105469 0.475830078
vt 0.690429688 0.461425781
vt 0.704589844 0.400634766
vt 0.689453125 0.5078125
vt 0.696777344 0.51171875
vt 0.701171875 0.541503906
vt 0.70703125 0.498291016
vt 0.723144531 0.511230469
vt 0.706054688 0.534179688
vt 0.746582031 0.400634766
vt 0.728027344 0.533691406
vt 0.746582031 0.513183594
vt 0.736328125 0.548828125
vt 0.746582031 0.567382812
vt 0.736328125 0.549316406
vt 0.728515625 0.553222656
vt 0.732421875 0.563476562
vt 0.624511719 0.400634766
vt 0.694335938 0.59765625
vt 0.624511719 0.59765625
vt 0.728027344 0.59765625
vt 0.746582031 0.533691406
vt 0.746582031 0.481445312
vt 0.746582031 0.400634766
vt 0.669921875 0.400634766
vt 0.669921875 0.59765625
vt 0.697753906 0.59765625
vt 0.746582031 0.59765625
vt 0.746582031 0.400634766
vt 0.734863281 0.54296875
vt 0.746582031 0.59765625
vt 0.746582031 0.400634766
vt 0.719238281 0.469482422
vt 0.71875 0.518066406
vt 0.711914062 0.525390625
vt 0.702636719 0.468261719
vt 0.704589844 0.509765625
vt 0.697753906 0.400634766
vt 0.686523438 0.479492188
vt 0.669921875 0.400634766
vt 0.678710938 0.44921875
vt 0.669921875 0.509277344
vt 0.624511719 0.400634766
vt 0.624511719 0.59765625
vt 0.746582031 0.59765625
vt 0.746582031 0.400634766
vt 0.746582031 0.400634766
vt 0.726074219 0.428466797
vt 0.725097656 0.478271484
vt 0.746582031 0.59765625
vt 0.716308594 0.479980469
vt 0.71484375 0.5078125
vt 0.70703125 0.59765625
vt 0.706054688 0.480224609
vt 0.705078125 0.526367188
vt 0.686523438 0.59765625
vt 0.69921875 0.531738281
vt 0.703125 0.507324219
vt 0.686523438 0.531738281
vt 0.669921875 0.568847656
vt 0.669921875 0.59765625
vt 0.746582031 0.400634766
vt 0.746582031 0.464355469
vt 0.746582031 0.516601562
vt 0.735351562 0.436523438
vt 0.734375 0.512207031
vt 0.746582031 0.59765625
vt 0.73046875 0.548828125
vt 0.720214844 0.498779297
vt 0.719726562 0.524414062
vt 0.720703125 0.550292969
vt 0.702148438 0.5625
vt 0.704101562 0.59765625
vt 0.682617188 0.5546875
vt 0.669921875 0.59765625
vt 0.669921875 0.568847656
vt 0.669921875 0.519042969
vt 0.746582031 0.400634766
vt 0.704589844 0.59765625
vt 0.746582031 0.59765625
vt 0.669921875 0.400634766
vt 0.688964844 0.59765625
vt 0.669921875 0.59765625
vt 0.669921875 0.400634766
vt 0.669921875 0.509277344
vt 0.676269531 0.431152344
vt 0.682617188 0.439453125
vt 0.673828125 0.522949219
vt 0.688964844 0.400634766
vt 0.683105469 0.475830078
vt 0.690429688 0.461425781
vt 0.704589844 0.400634766
vt 0.689453125 0.5078125
vt 0.696777344 0.51171875
vt 0.701171875 0.541503906
vt 0.70703125 0.498291016
vt 0.723144531 0.511230469
vt 0.706054688 0.534179688
vt 0.746582031 0.400634766
vt 0.728027344 0.533691406
vt 0.746582031 0.513183594
vt 0.736328125 0.548828125
vt 0.746582031 0.567382812
vt 0.736328125 0.549316406
vt 0.728515625 0.553222656
vt 0.732421875 0.563476562
vt 0.624511719 0.400634766
vt 0.624511719 0.59765625
vt 0.694335938 0.59765625
vt 0.728027344 0.59765625
vt 0.746582031 0.533691406
vt 0.746582031 0.481445312
vt 0.746582031 0.400634766
vt 0.669921875 0.400634766
vt 0.697753906 0.59765625
vt 0.669921875 0.59765625
vt 0.746582031 0.59765625
vt 0.746582031 0.400634766
vt 0.734863281 0.54296875
vt 0.746582031 0.400634766
vt 0.746582031 0.59765625
vt 0.719238281 0.469482422
vt 0.71875 0.518066406
vt 0.711914062 0.525390625
vt 0.702636719 0.468261719
vt 0.704589844 0.509765625
vt 0.697753906 0.400634766
vt 0.686523438 0.479492188
vt 0.669921875 0.400634766
vt 0.678710938 0.44921875
vt 0.669921875 0.509277344
vt 0.624511719 0.400634766
vt 0.746582031 0.400634766
vt 0.746582031 0.59765625
vt 0.624511719 0.59765625
vt 0.746582031 0.400634766
vt 0.725097656 0.478271484
vt 0.726074219 0.428466797
vt 0.746582031 0.59765625
vt 0.716308594 0.479980469
vt 0.71484375 0.5078125
vt 0.70703125 0.59765625
vt 0.706054688 0.480224609
vt 0.705078125 0.526367188
vt 0.686523438 0.59765625
vt 0.69921875 0.531738281
vt 0.703125 0.507324219
vt 0.686523438 0.531738281
vt 0.669921875 0.568847656
vt 0.669921875 0.59765625
vt 0.746582031 0.400634766
vt 0.746582031 0.516601562
vt 0.746582031 0.464355469
vt 0.735351562 0.436523438
vt 0.734375 0.512207031
vt 0.746582031 0.59765625
vt 0.73046875 0.548828125
vt 0.720214844 0.498779297
vt 0.719726562 0.524414062
vt 0.720703125 0.550292969
vt 0.702148438 0.5625
vt 0.704101562 0.59765625
vt 0.682617188 0.5546875
vt 0.669921875 0.59765625
vt 0.669921875 0.568847656
vt 0.669921875 0.519042969
vt 0.669921875 0.509277344
vt 0.669921875 0.509277344
vt 0.676269531 0.431152344
vt 0.676269531 0.431152344
vt 0.746582031 0.59765625
vt 0.746582031 0.59765625
vt 0.734863281 0.54296875
vt 0.734863281 0.54296875
vt 0.71875 0.518066406
vt 0.71875 0.518066406
vt 0.725097656 0.478271484
vt 0.725097656 0.478271484
vt 0.726074219 0.428466797
vt 0.726074219 0.428466797
vt 0.726074219 0.428466797
vt 0.726074219 0.428466797
vt 0.746582031 0.400634766
vt 0.746582031 0.400634766
vt 0.746582031 0.400634766
vt 0.746582031 0.400634766
vt 0.735351562 0.436523438
vt 0.735351562 0.436523438
vt 0.746582031 0.464355469
vt 0.746582031 0.464355469
vt 0.746582031 0.400634766
vt 0.746582031 0.400634766
vt 0.71875 0.518066406
vt 0.71875 0.518066406
vt 0.711914062 0.525390625
vt 0.711914062 0.525390625
vt 0.711914062 0.525390625
vt 0.711914062 0.525390625
vt 0.719238281 0.469482422
vt 0.719238281 0.469482422
vt 0.719238281 0.469482422
vt 0.719238281 0.469482422
vt 0.704589844 0.509765625
vt 0.704589844 0.509765625
vt 0.704589844 0.509765625
vt 0.704589844 0.509765625
vt 0.702636719 0.468261719
vt 0.702636719 0.468261719
vt 0.702636719 0.468261719
vt 0.702636719 0.468261719
vt 0.686523438 0.479492188
vt 0.686523438 0.479492188
vt 0.686523438 0.479492188
vt 0.686523438 0.479492188
vt 0.678710938 0.44921875
vt 0.678710938 0.44921875
vt 0.678710938 0.44921875
vt 0.678710938 0.44921875
vt 0.669921875 0.509277344
vt 0.669921875 0.509277344
vt 0.676269531 0.431152344
vt 0.676269531 0.431152344
vt 0.673828125 0.522949219
vt 0.673828125 0.522949219
vt 0.673828125 0.522949219
vt 0.673828125 0.522949219
vt 0.682617188 0.439453125
vt 0.682617188 0.439453125
vt 0.682617188 0.439453125
vt 0.682617188 0.439453125
vt 0.683105469 0.475830078
vt 0.683105469 0.475830078
vt 0.683105469 0.475830078
vt 0.683105469 0.475830078
vt 0.690429688 0.461425781
vt 0.690429688 0.461425781
vt 0.690429688 0.461425781
vt 0.690429688 0.461425781
vt 0.689453125 0.5078125
vt 0.689453125 0.5078125
vt 0.689453125 0.5078125
vt 0.689453125 0.5078125
vt 0.696777344 0.51171875
vt 0.696777344 0.51171875
vt 0.696777344 0.51171875
vt 0.696777344 0.51171875
vt 0.701171875 0.541503906
vt 0.701171875 0.541503906
vt 0.701171875 0.541503906
vt 0.701171875 0.541503906
vt 0.70703125 0.498291016
vt 0.70703125 0.498291016
vt 0.70703125 0.498291016
vt 0.70703125 0.498291016
vt 0.706054688 0.534179688
vt 0.706054688 0.534179688
vt 0.706054688 0.534179688
vt 0.706054688 0.534179688
vt 0.723144531 0.511230469
vt 0.723144531 0.511230469
vt 0.723144531 0.511230469
vt 0.723144531 0.511230469
vt 0.728027344 0.533691406
vt 0.728027344 0.533691406
vt 0.728027344 0.533691406
vt 0.728027344 0.533691406
vt 0.728515625 0.553222656
vt 0.728515625 0.553222656
vt 0.728515625 0.553222656
vt 0.728515625 0.553222656
vt 0.736328125 0.549316406
vt 0.736328125 0.549316406
vt 0.736328125 0.549316406
vt 0.736328125 0.549316406
vt 0.732421875 0.563476562
vt 0.732421875 0.563476562
vt 0.732421875 0.563476562
vt 0.732421875 0.563476562
vt 0.746582031 0.567382812
vt 0.746582031 0.567382812
vt 0.669921875 0.568847656
vt 0.669921875 0.568847656
vt 0.686523438 0.531738281
vt 0.686523438 0.531738281
vt 0.71484375 0.5078125
vt 0.71484375 0.5078125
vt 0.716308594 0.479980469
vt 0.716308594 0.479980469
vt 0.716308594 0.479980469
vt 0.716308594 0.479980469
vt 0.725097656 0.478271484
vt 0.725097656 0.478271484
vt 0.705078125 0.526367188
vt 0.705078125 0.526367188
vt 0.706054688 0.480224609
vt 0.706054688 0.480224609
vt 0.706054688 0.480224609
vt 0.706054688 0.480224609
vt 0.71484375 0.5078125
vt 0.71484375 0.5078125
vt 0.69921875 0.531738281
vt 0.69921875 0.531738281
vt 0.703125 0.507324219
vt 0.703125 0.507324219
vt 0.703125 0.507324219
vt 0.703125 0.507324219
vt 0.705078125 0.526367188
vt 0.705078125 0.526367188
vt 0.686523438 0.531738281
vt 0.686523438 0.531738281
vt 0.69921875 0.531738281
vt 0.69921875 0.531738281
vt 0.682617188 0.5546875
vt 0.682617188 0.5546875
vt 0.669921875 0.519042969
vt 0.669921875 0.519042969
vt 0.669921875 0.519042969
vt 0.669921875 0.519042969
vt 0.669921875 0.568847656
vt 0.669921875 0.568847656
vt 0.702148438 0.5625
vt 0.682617188 0.5546875
vt 0.682617188 0.5546875
vt 0.702148438 0.5625
vt 0.720703125 0.550292969
vt 0.720703125 0.550292969
vt 0.73046875 0.548828125
vt 0.73046875 0.548828125
vt 0.719726562 0.524414062
vt 0.719726562 0.524414062
vt 0.719726562 0.524414062
vt 0.719726562 0.524414062
vt 0.720703125 0.550292969
vt 0.720703125 0.550292969
vt 0.734375 0.512207031
vt 0.734375 0.512207031
vt 0.720214844 0.498779297
vt 0.720214844 0.498779297
vt 0.720214844 0.498779297
vt 0.720214844 0.498779297
vt 0.73046875 0.548828125
vt 0.73046875 0.548828125
vt 0.735351562 0.436523438
vt 0.735351562 0.436523438
vt 0.734375 0.512207031
vt 0.734375 0.512207031
vt 0.728027344 0.59765625
vt 0.728027344 0.59765625
vt 0.746582031 0.533691406
vt 0.746582031 0.533691406
vn -0 0 1
vn -0 0 1
vn -0 0 1
vn -0 0 1
vn -0 0 1
vn -0 0 1
vn -0 1 0
vn -0 1 -8.34465027E-07
vn -0 1 0
vn -0 1 -4.76837158E-07
vn -0 1 7.15255737E-07
vn -0 1 -6.55651093E-07
vn -0 1 1.78813934E-07
vn -0 1 2.38418579E-07
vn -0 1 0
vn -0 1 2.98023224E-07
vn -0 1 0
vn -0 1 -1.78813934E-07
vn -0 1 -1.1920929E-07
vn -0 1 -2.38418579E-07
vn -0 1 -1.54972076E-06
vn -0 1 0
vn -0 1 -8.94069672E-07
vn -0 1 0
vn -0 1 -3.57627869E-07
vn -0 1 4.17232513E-07
vn -0 1 2.38418579E-07
vn -0 1 -1.43051147E-06
vn -0 1 3.81469727E-06
vn -1 0 0
vn -1 1.78813934E-07 0
vn -1 0 0
vn -1 2.98023224E-07 0
vn -1 2.38418579E-07 0
vn -1 0 0
vn -1 0 0
vn -0 0 1
vn -0 0 1
vn -0 0 1
vn -0 0 1
vn -0 0 1
vn -0 1 0
vn -0 1 0
vn -0 1 0
vn -0 1 2.38418579E-07
vn -0 1 0
vn -0 1 0
vn -0 1 2.98023224E-07
vn -0 1 0
vn -0 1 2.98023224E-07
vn -0 1 1.1920929E-07
vn -0 1 0
vn -0 1 1.1920929E-07
vn -0 1 0
vn 1 0 0
vn 1 0 0
vn 1 0 0
vn 1 0 0
vn -0 0 -1
vn -1.1920929E-07 0 -1
vn -0 0 -1
vn -0 0 -1
vn -2.38418579E-07 0 -1
vn -1.1920929E-07 0 -1
vn -0 0 -1
vn -0 0 -1
vn -0 0 -1
vn -0 0 -1
vn -0 0 -1
vn -0 0 -1
vn -0 0 -1
vn -0 0 -1
vn -0 0 -1
vn -0 0 -1
vn -0 0 -1
vn -0 0 -1
vn -0 0 -1
vn -0 0 -1
vn -0 0 -1
vn -0 0 -1
vn -0 0 -1
vn -0 0 -1
vn -0 0 -1
vn -0 0 -1
vn -0 0 -1
vn -0 0 -1
vn -0 0 -1
vn -0 0 -1
vn -0 0 -1
vn -0 0 -1
vn -0 0 -1
vn -0 0 -1
vn -0 0 -1
vn -0 0 -1
vn -0 0 -1
vn -0 -1 0
vn -0 -1 0
vn -0 -1 7.15255737E-07
vn -0 -1 5.36441803E-07
vn -0 -1 0
vn -0 -1 5.96046448E-07
vn -0 -1 0
vn -0 -1 -3.57627869E-07
vn -0 -1 0
vn -0 -1 -6.55651093E-07
vn -0 -1 0
vn -0 -1 2.98023224E-07
vn -0 -1 1.1920929E-07
vn -0 -1 -2.38418579E-07
vn -0 -1 1.54972076E-06
vn -0 -1 0
vn -0 -1 -5.36441803E-07
vn -0 -1 0
vn -0 -1 -5.96046448E-07
vn -0 -1 -4.76837158E-07
vn -0 -1 -1.25169754E-06
vn -0 -1 0
vn -0 -1 -3.9935112E-06
vn 1 0 0
vn 1 0 0
vn 1 0 0
vn 1 0 0
vn 1 0 0
vn 1 0 0
vn 1 0 0
vn -0 0 -1
vn -0 0 -1
vn -0 0 -1
vn -0 0 -1
vn -0 0 -1
vn -0 -1 -2.38418579E-07
vn -0 -1 0
vn -0 -1 0
vn -0 -1 0
vn -0 -1 -4.76837158E-07
vn -0 -1 -4.76837158E-07
vn -0 -1 1.1920929E-07
vn -0 -1 0
vn -0 -1 0
vn -0 -1 -7.74860382E-07
vn -0 -1 0
vn -0 -1 -5.96046448E-07
vn -0 -1 0
vn -1 0 0
vn -1 0 0
vn -1 0 0
vn -1 0 0
vn -0 0 1
vn -1.1920929E-07 0 1
vn -0 0 1
vn -0 0 1
vn 2.38418579E-07 0 1
vn 1.1920929E-07 0 1
vn -0 0 1
vn -0 0 1
vn -0 0 1
vn -0 0 1
vn -0 0 1
vn -0 0 1
vn -0 0 1
vn -0 0 1
vn -0 0 1
vn -0 0 1
vn -0 0 1
vn 2.38418579E-07 0 1
vn 1.78813934E-07 0 1
vn -0 0 1
vn -0 0 1
vn -0 0 1
vn -0 0 1
vn -0 0 1
vn -0 0 1
vn -0 0 1
vn -0 0 1
vn -0 0 1
vn -0 0 1
vn -0 0 1
vn -0 0 1
vn -0.958007812 0 -0.286132812
vn -0.958007812 0 -0.286132812
vn -0.958007812 0 -0.286132812
vn -0.958007812 0 -0.286132812
vn -0.770019531 0.0677490234 -0.634277344
vn -0 1 0
vn -0.613769531 0.0373840332 -0.788574219
vn -0.613769531 0.0373840332 -0.788574219
vn -0.395751953 0 -0.918457031
vn -0.395751953 0 -0.918457031
vn -0.999511719 0.0338134766 0
vn -0.999511719 0.0338134766 0
vn -0.999511719 0.0338134766 0
vn -0.999511719 0.0338134766 0
vn -0.498535156 0.849121094 0.175170898
vn -0.498535156 0.849121094 0.175170898
vn -0 0 -1
vn -0.498535156 0.849121094 0.175170898
vn 0.800292969 0.599609375 0
vn -0 0 -1
vn 0.800292969 0.599609375 0
vn 0.800292969 0.599609375 0
vn -0.89453125 0.0116119385 0.447265625
vn -0.89453125 0.0116119385 0.447265625
vn -0 0 -1
vn -0.89453125 0.0116119385 0.447265625
vn 0.265869141 0 -0.963867188
vn 0.265869141 0 -0.963867188
vn 0.265869141 0 -0.963867188
vn 0.265869141 0 -0.963867188
vn -0.900390625 0 0.434814453
vn -0.900390625 0 0.434814453
vn -0.900390625 0 0.434814453
vn -0.900390625 0 0.434814453
vn 0.607421875 0 -0.794433594
vn 0.607421875 0 -0.794433594
vn 0.607421875 0 -0.794433594
vn 0.607421875 0 -0.794433594
vn -0.985351562 0 -0.171630859
vn -0.985351562 0 -0.171630859
vn -0.985351562 0 -0.171630859
vn -0.985351562 0 -0.171630859
vn 0.182739258 0 -0.983398438
vn 0.182739258 0 -0.983398438
vn 0.182739258 0 -0.983398438
vn 0.182739258 0 -0.983398438
vn -0.724121094 0 -0.689453125
vn -0.724121094 0 -0.689453125
vn -0.724121094 0 -0.689453125
vn -0.724121094 0 -0.689453125
vn 0.883300781 0 -0.468505859
vn 0.883300781 0 -0.468505859
vn 0.883300781 0 -0.468505859
vn 0.883300781 0 -0.468505859
vn 0.995117188 0 0.0975952148
vn 0.995117188 0 0.0975952148
vn 0.995117188 0 0.0975952148
vn 0.995117188 0 0.0975952148
vn -0.928710938 0 -0.370849609
vn -0.928710938 0 -0.370849609
vn -0.928710938 0 -0.370849609
vn -0.928710938 0 -0.370849609
vn 0.999511719 0 -0.0331726074
vn 0.999511719 0 -0.0331726074
vn 0.999511719 0 -0.0331726074
vn 0.999511719 0 -0.0331726074
vn -0.467041016 0 -0.884277344
vn -0.467041016 0 -0.884277344
vn -0.467041016 0 -0.884277344
vn -0.467041016 0 -0.884277344
vn 0.995117188 0 0.0988769531
vn 0.995117188 0 0.0988769531
vn 0.995117188 0 0.0988769531
vn 0.995117188 0 0.0988769531
vn 0.150390625 0 -0.988769531
vn 0.150390625 0 -0.988769531
vn 0.150390625 0 -0.988769531
vn 0.150390625 0 -0.988769531
vn 0.874511719 0 -0.485351562
vn 0.874511719 0 -0.485351562
vn 0.874511719 0 -0.485351562
vn 0.874511719 0 -0.485351562
vn -0.901367188 0 -0.432617188
vn -0.901367188 0 -0.432617188
vn -0.901367188 0 -0.432617188
vn -0.901367188 0 -0.432617188
vn 0.996582031 0 0.0848999023
vn 0.996582031 0 0.0848999023
vn 0.996582031 0 0.0848999023
vn 0.996582031 0 0.0848999023
vn -0.340087891 0 -0.940429688
vn -0.340087891 0 -0.940429688
vn -0.340087891 0 -0.940429688
vn -0.340087891 0 -0.940429688
vn 0.796875 0 -0.604003906
vn 0.796875 0 -0.604003906
vn 0.796875 0 -0.604003906
vn 0.796875 0 -0.604003906
vn 0.992675781 0 -0.121582031
vn 0.992675781 0 -0.121582031
vn 0.992675781 0 -0.121582031
vn 0.992675781 0 -0.121582031
vn -0.146118164 0 -0.989257812
vn -0.146118164 0 -0.989257812
vn -0.146118164 0 -0.989257812
vn -0.146118164 0 -0.989257812
vn 0.71484375 0 0.69921875
vn 0.71484375 0 0.69921875
vn 0.71484375 0 0.69921875
vn 0.71484375 0 0.69921875
vn 0.0773925781 0.0386962891 -0.99609375
vn 0.0773925781 0.0386962891 -0.99609375
vn 0.0773925781 0.0386962891 -0.99609375
vn 0.0773925781 0.0386962891 -0.99609375
vn -0.685546875 0.728027344 0
vn -0.685546875 0.728027344 0
vn -0.685546875 0.728027344 0
vn -0.685546875 0.728027344 0
vn -0.993164062 0.11505127 0
vn -0.993164062 0.11505127 0
vn -0.993164062 0.11505127 0
vn -0.993164062 0.11505127 0
vn -0.0814819336 0.996582031 0
vn -0.0814819336 0.996582031 0
vn -0.0814819336 0.996582031 0
vn -0.0814819336 0.996582031 0
vn -0.999023438 0.0489501953 0
vn -0.999023438 0.0489501953 0
vn -0.999023438 0.0489501953 0
vn -0.999023438 0.0489501953 0
vn 0.804199219 0.594238281 0
vn 0.804199219 0.594238281 0
vn 0.804199219 0.594238281 0
vn 0.804199219 0.594238281 0
vn -0.943847656 0.330566406 0
vn -0.943847656 0.330566406 0
vn -0.943847656 0.330566406 0
vn -0.943847656 0.330566406 0
vn 0.970214844 0.242431641 0
vn 0.970214844 0.242431641 0
vn 0.970214844 0.242431641 0
vn 0.970214844 0.242431641 0
vn -0.000612735748 1 0
vn -0.000612735748 1 0
vn -0.000612735748 1 0
vn -0.000612735748 1 0
vn -0.765625 0.643554688 0
vn -0.765625 0.643554688 0
vn -0.765625 0.643554688 0
vn -0.765625 0.643554688 0
vn 1 0 0
vn 1 0 0
vn 1 0 0
vn 1 0 0
vn 0.0527648926 0.998535156 0
vn -0.174560547 0.984863281 0
vn -0.174560547 0.984863281 0
vn 0.0527648926 0.998535156 0
vn 0.274658203 0.961425781 0
vn 0.274658203 0.961425781 0
vn -0.702148438 0.711914062 0
vn -0.702148438 0.711914062 0
vn -0.702148438 0.711914062 0
vn -0.702148438 0.711914062 0
vn 0.995117188 -0.0988769531 0
vn 0.995117188 -0.0988769531 0
vn 0.995117188 -0.0988769531 0
vn 0.995117188 -0.0988769531 0
vn -0.374267578 0.927246094 0
vn -0.374267578 0.927246094 0
vn -0.374267578 0.927246094 0
vn -0.374267578 0.927246094 0
vn 0.903808594 -0.427978516 0
vn 0.903808594 -0.427978516 0
vn 0.903808594 -0.427978516 0
vn 0.903808594 -0.427978516 0
vn 0.999511719 0.0233917236 0
vn 0.999511719 0.0233917236 0
vn 0.999511719 0.0233917236 0
vn 0.999511719 0.0233917236 0
vn 0.529785156 0.248168945 -0.811035156
vn 0.529785156 0.248168945 -0.811035156
vn 0.529785156 0.248168945 -0.811035156
vn 0.529785156 0.248168945 -0.811035156
g IS4_MDL_EscenarioPB_PedestalGrande_Roto_Cristal_1_0
f 3/3/3 2/2/2 1/1/1
f 3/3/3 1/1/1 4/4/4
f 5/5/5 3/3/3 4/4/4
f 6/6/6 5/5/5 4/4/4
f 9/9/9 8/8/8 7/7/7
f 8/8/8 10/10/10 7/7/7
f 8/8/8 11/11/11 10/10/10
f 10/10/10 12/12/12 7/7/7
f 10/10/10 13/13/13 12/12/12
f 13/13/13 14/14/14 12/12/12
f 14/14/14 15/15/15 12/12/12
f 14/14/14 16/16/16 15/15/15
f 16/16/16 17/17/17 15/15/15
f 17/17/17 18/18/18 15/15/15
f 18/18/18 19/19/19 15/15/15
f 19/19/19 20/20/20 15/15/15
f 19/19/19 21/21/21 20/20/20
f 20/20/20 22/22/22 15/15/15
f 20/20/20 23/23/23 22/22/22
f 23/23/23 24/24/24 22/22/22
f 25/25/25 24/24/24 23/23/23
f 25/25/25 26/26/26 24/24/24
f 27/27/27 25/25/25 23/23/23
f 25/25/25 27/27/27 26/26/26
f 23/23/23 28/28/28 27/27/27
f 27/27/27 29/29/29 26/26/26
f 32/32/32 31/31/31 30/30/30
f 31/31/31 33/33/33 30/30/30
f 33/33/33 34/34/34 30/30/30
f 34/34/34 35/35/35 30/30/30
f 35/35/35 36/36/36 30/30/30
f 39/39/39 38/38/38 37/37/37
f 40/40/40 39/39/39 37/37/37
f 41/41/41 40/40/40 37/37/37
f 44/44/44 43/43/43 42/42/42
f 44/44/44 42/42/42 45/45/45
f 42/42/42 46/46/46 45/45/45
f 46/46/46 47/47/47 45/45/45
f 44/44/44 45/45/45 48/48/48
f 45/45/45 49/49/49 48/48/48
f 50/50/50 44/44/44 48/48/48
f 50/50/50 48/48/48 51/51/51
f 50/50/50 51/51/51 52/52/52
f 51/51/51 53/53/53 52/52/52
f 53/53/53 54/54/54 52/52/52
f 57/57/57 56/56/56 55/55/55
f 58/58/58 57/57/57 55/55/55
f 61/61/61 60/60/60 59/59/59
f 61/61/61 59/59/59 62/62/62
f 63/63/63 61/61/61 62/62/62
f 64/64/64 63/63/63 62/62/62
f 64/64/64 62/62/62 65/65/65
f 66/66/66 64/64/64 65/65/65
f 67/67/67 66/66/66 65/65/65
f 67/67/67 65/65/65 68/68/68
f 68/68/68 69/69/69 67/67/67
f 69/69/69 70/70/70 67/67/67
f 71/71/71 69/69/69 68/68/68
f 71/71/71 68/68/68 72/72/72
f 68/68/68 73/73/73 72/72/72
f 76/76/76 75/75/75 74/74/74
f 77/77/77 76/76/76 74/74/74
f 77/77/77 78/78/78 76/76/76
f 79/79/79 76/76/76 78/78/78
f 80/80/80 79/79/79 78/78/78
f 78/78/78 81/81/81 80/80/80
f 80/80/80 82/82/82 79/79/79
f 82/82/82 83/83/83 79/79/79
f 83/83/83 84/84/84 79/79/79
f 84/84/84 85/85/85 79/79/79
f 84/84/84 86/86/86 85/85/85
f 86/86/86 87/87/87 85/85/85
f 86/86/86 88/88/88 87/87/87
f 86/86/86 89/89/89 88/88/88
f 92/92/92 91/91/91 90/90/90
f 90/90/90 91/91/91 93/93/93
f 91/91/91 94/94/94 93/93/93
f 94/94/94 95/95/95 93/93/93
f 98/98/98 97/97/97 96/96/96
f 99/99/99 98/98/98 96/96/96
f 100/100/100 98/98/98 99/99/99
f 101/101/101 99/99/99 96/96/96
f 102/102/102 99/99/99 101/101/101
f 103/103/103 102/102/102 101/101/101
f 104/104/104 103/103/103 101/101/101
f 105/105/105 103/103/103 104/104/104
f 106/106/106 105/105/105 104/104/104
f 107/107/107 106/106/106 104/104/104
f 108/108/108 107/107/107 104/104/104
f 109/109/109 108/108/108 104/104/104
f 110/110/110 108/108/108 109/109/109
f 111/111/111 109/109/109 104/104/104
f 112/112/112 109/109/109 111/111/111
f 113/113/113 112/112/112 111/111/111
f 112/112/112 113/113/113 114/114/114
f 115/115/115 114/114/114 113/113/113
f 112/112/112 114/114/114 116/116/116
f 116/116/116 114/114/114 115/115/115
f 116/116/116 117/117/117 112/112/112
f 118/118/118 116/116/116 115/115/115
f 121/121/121 120/120/120 119/119/119
f 122/122/122 121/121/121 119/119/119
f 123/123/123 122/122/122 119/119/119
f 124/124/124 123/123/123 119/119/119
f 125/125/125 124/124/124 119/119/119
f 128/128/128 127/127/127 126/126/126
f 127/127/127 129/129/129 126/126/126
f 129/129/129 130/130/130 126/126/126
f 133/133/133 132/132/132 131/131/131
f 131/131/131 132/132/132 134/134/134
f 135/135/135 131/131/131 134/134/134
f 136/136/136 135/135/135 134/134/134
f 134/134/134 132/132/132 137/137/137
f 138/138/138 134/134/134 137/137/137
f 132/132/132 139/139/139 137/137/137
f 137/137/137 139/139/139 140/140/140
f 140/140/140 139/139/139 141/141/141
f 142/142/142 140/140/140 141/141/141
f 143/143/143 142/142/142 141/141/141
f 146/146/146 145/145/145 144/144/144
f 147/147/147 146/146/146 144/144/144
f 150/150/150 149/149/149 148/148/148
f 148/148/148 149/149/149 151/151/151
f 149/149/149 152/152/152 151/151/151
f 152/152/152 153/153/153 151/151/151
f 151/151/151 153/153/153 154/154/154
f 153/153/153 155/155/155 154/154/154
f 155/155/155 156/156/156 154/154/154
f 157/157/157 154/154/154 156/156/156
f 156/156/156 158/158/158 157/157/157
f 156/156/156 159/159/159 158/158/158
f 158/158/158 160/160/160 157/157/157
f 157/157/157 160/160/160 161/161/161
f 162/162/162 157/157/157 161/161/161
f 165/165/165 164/164/164 163/163/163
f 164/164/164 166/166/166 163/163/163
f 167/167/167 166/166/166 164/164/164
f 167/167/167 164/164/164 168/168/168
f 167/167/167 168/168/168 169/169/169
f 169/169/169 170/170/170 167/167/167
f 171/171/171 169/169/169 168/168/168
f 172/172/172 171/171/171 168/168/168
f 173/173/173 172/172/172 168/168/168
f 174/174/174 173/173/173 168/168/168
f 175/175/175 173/173/173 174/174/174
f 176/176/176 175/175/175 174/174/174
f 177/177/177 175/175/175 176/176/176
f 178/178/178 175/175/175 177/177/177
f 181/181/181 180/180/180 179/179/179
f 182/182/182 181/181/181 179/179/179
f 185/185/185 184/184/184 183/183/183
f 186/186/186 185/185/185 183/183/183
f 187/187/187 185/185/185 186/186/186
f 188/188/188 187/187/187 186/186/186
f 191/191/191 190/190/190 189/189/189
f 192/192/192 191/191/191 189/189/189
f 195/195/195 194/194/194 193/193/193
f 196/196/196 195/195/195 193/193/193
f 199/199/199 198/198/198 197/197/197
f 200/200/200 199/199/199 197/197/197
f 203/203/203 202/202/202 201/201/201
f 204/204/204 203/203/203 201/201/201
f 207/207/207 206/206/206 205/205/205
f 208/208/208 207/207/207 205/205/205
f 211/211/211 210/210/210 209/209/209
f 212/212/212 211/211/211 209/209/209
f 215/215/215 214/214/214 213/213/213
f 216/216/216 215/215/215 213/213/213
f 219/219/219 218/218/218 217/217/217
f 220/220/220 219/219/219 217/217/217
f 223/223/223 222/222/222 221/221/221
f 224/224/224 223/223/223 221/221/221
f 227/227/227 226/226/226 225/225/225
f 228/228/228 227/227/227 225/225/225
f 231/231/231 230/230/230 229/229/229
f 232/232/232 231/231/231 229/229/229
f 235/235/235 234/234/234 233/233/233
f 236/236/236 235/235/235 233/233/233
f 239/239/239 238/238/238 237/237/237
f 240/240/240 239/239/239 237/237/237
f 243/243/243 242/242/242 241/241/241
f 244/244/244 243/243/243 241/241/241
f 247/247/247 246/246/246 245/245/245
f 248/248/248 247/247/247 245/245/245
f 251/251/251 250/250/250 249/249/249
f 252/252/252 251/251/251 249/249/249
f 255/255/255 254/254/254 253/253/253
f 256/256/256 255/255/255 253/253/253
f 259/259/259 258/258/258 257/257/257
f 260/260/260 259/259/259 257/257/257
f 263/263/263 262/262/262 261/261/261
f 264/264/264 263/263/263 261/261/261
f 267/267/267 266/266/266 265/265/265
f 268/268/268 267/267/267 265/265/265
f 271/271/271 270/270/270 269/269/269
f 272/272/272 271/271/271 269/269/269
f 275/275/275 274/274/274 273/273/273
f 276/276/276 275/275/275 273/273/273
f 279/279/279 278/278/278 277/277/277
f 280/280/280 279/279/279 277/277/277
f 283/283/283 282/282/282 281/281/281
f 284/284/284 283/283/283 281/281/281
f 287/287/287 286/286/286 285/285/285
f 288/288/288 287/287/287 285/285/285
f 291/291/291 290/290/290 289/289/289
f 292/292/292 291/291/291 289/289/289
f 295/295/295 294/294/294 293/293/293
f 296/296/296 295/295/295 293/293/293
f 299/299/299 298/298/298 297/297/297
f 300/300/300 299/299/299 297/297/297
f 303/303/303 302/302/302 301/301/301
f 304/304/304 303/303/303 301/301/301
f 307/307/307 306/306/306 305/305/305
f 308/308/308 307/307/307 305/305/305
f 311/311/311 310/310/310 309/309/309
f 312/312/312 311/311/311 309/309/309
f 315/315/315 314/314/314 313/313/313
f 316/316/316 315/315/315 313/313/313
f 319/319/319 318/318/318 317/317/317
f 320/320/320 319/319/319 317/317/317
f 323/323/323 322/322/322 321/321/321
f 324/324/324 323/323/323 321/321/321
f 327/327/327 326/326/326 325/325/325
f 328/328/328 327/327/327 325/325/325
f 331/331/331 330/330/330 329/329/329
f 332/332/332 331/331/331 329/329/329
f 335/335/335 334/334/334 333/333/333
f 334/334/334 336/336/336 333/333/333
f 333/333/333 336/336/336 337/337/337
f 336/336/336 338/338/338 337/337/337
f 341/341/341 340/340/340 339/339/339
f 342/342/342 341/341/341 339/339/339
f 345/345/345 344/344/344 343/343/343
f 346/346/346 345/345/345 343/343/343
f 349/349/349 348/348/348 347/347/347
f 350/350/350 349/349/349 347/347/347
f 353/353/353 352/352/352 351/351/351
f 354/354/354 353/353/353 351/351/351
f 357/357/357 356/356/356 355/355/355
f 358/358/358 357/357/357 355/355/355
f 361/361/361 360/360/360 359/359/359
f 362/362/362 361/361/361 359/359/359
