g IS4_MDL_EscenarioPB_LetreroRecepcion_Frosty_1
v -0.485705733 0.421814561 0.0587365702
v -0.562390327 0.315922201 0.0587365702
v -0.627307296 0.373129874 0.0587365702
v -0.627268255 0.43921873 0.058738403
v -0.914016247 0.350682378 0.0587426759
v -0.780261338 0.323315412 0.0587365702
v -0.90124768 0.302584827 0.058741454
v -0.77168715 0.288768888 0.0587365702
v -1.07807875 0.309666723 0.0587426759
v -0.855583608 0.130562738 0.0587365702
v -1.02429461 0.279147327 0.058741454
v -1.13217545 0.240558445 0.0587426759
v -1.04832292 0.244739354 0.058741454
v -1.07763934 0.158465564 0.0587426759
v -1.02864027 0.215503514 0.058741454
v -0.97448498 0.145933211 0.0587426759
v -0.952107072 0.249520242 0.058741454
v -0.741037726 0.165212378 0.0587365702
v -0.83850354 0.0707867295 0.0587426759
v -0.728484035 0.106704086 0.0587365702
v -0.821819007 -0.0328845307 0.0587402321
v -0.647194982 0.137510359 0.0587365702
v -0.695744753 -0.0656756684 0.0587365702
v -0.649109006 0.192374855 0.0587402321
v -0.585964561 0.112856433 0.0587365702
v -0.548298538 0.186937839 0.0587426759
v -0.859807253 -0.0975262523 0.0587377921
v -0.721648097 -0.177867442 0.0587365702
v -0.911799431 -0.144408569 0.0587365702
v -0.863571882 -0.217174083 0.0587365702
v -0.285622716 0.0877880752 0.0587365702
v -0.197058275 0.0388500877 0.0587426759
v -0.279245764 -0.0699554533 0.0587365702
v -0.3286452 0.00538695278 0.0587426759
v -0.377136409 -0.0208886806 0.0587426759
v -0.404284835 0.0616735741 0.0587426759
v -0.40083757 -0.0640893653 0.0587365702
v -0.492751658 0.0168957412 0.0587365702
v -0.451667666 0.121108994 0.0587365702
v -0.568640292 0.0445092656 0.0587365702
v -0.487732112 -0.0690826476 0.0587365702
v -0.479343444 -0.205068991 0.0587365702
v -0.399782896 -0.203854382 0.0587365702
v 0.722805023 0.193756074 0.0587365702
v 0.815358698 0.198518038 0.0587365702
v 0.800226867 0.13546142 0.0587426759
v 0.710495412 0.121980578 0.0587365702
v 0.575886011 0.136221305 0.0587426759
v 0.560456336 0.00107481878 0.0587426759
v 0.693864584 0.018439319 0.0587365702
v 0.577570617 -0.143548593 0.0587365702
v 0.686520815 -0.0585400462 0.0587365702
v 0.704416335 -0.121251836 0.0587365702
v 0.662819684 -0.214019179 0.0587426759
v 0.814870417 -0.156286016 0.0587426759
v 0.79056865 -0.0543225184 0.0587365702
v 0.588195622 0.207997411 0.0587426759
v 0.671735644 0.401430041 0.0587365702
v 0.563776672 0.415593266 0.0587365702
v 0.520705342 0.206549048 0.0587365702
v 0.475866497 0.152796611 0.0587365702
v 0.490246385 0.270468116 0.0587365702
v 0.435661435 0.208458841 0.0587365702
v 0.317223936 -0.134819344 0.0587365702
v 0.190549135 -0.113038339 0.0587365702
v 0.23231183 -0.106585704 0.0587426759
v 0.242399722 -0.18222414 0.0587365702
v 0.364894807 -0.13041383 0.0587365702
v 0.365275681 -0.20086427 0.0587365702
v 0.408249319 -0.123745121 0.0587365702
v 0.458981723 -0.180087909 0.0587365702
v 0.402604789 -0.102288827 0.0587365702
v 0.523845017 -0.120033577 0.0587365702
v 0.368493468 -0.0740399212 0.0587365702
v 0.502145767 -0.0395019613 0.0587304682
v 0.246164367 -0.0457330421 0.0587365702
v 0.317140937 0.0125573622 0.0587365702
v 0.194601879 0.0217205714 0.0587365702
v 0.292761058 0.0519415177 0.0587365702
v 0.216764957 0.113812245 0.0587365702
v 0.328898728 0.139212027 0.0587365702
v 0.316345036 0.0791699141 0.0587426759
v 0.417824507 0.131768793 0.0587365702
v 0.346550107 0.0542724505 0.0587365702
v 0.480300099 0.0475945957 0.0587365702
v 0.360759079 0.00309874443 0.0587426759
v 0.949465156 0.0900079235 0.0587365702
v 0.848600924 -0.0484021083 0.0587426759
v 0.840978861 0.0926525742 0.0587426759
v 0.943532526 0.0144140515 0.0587365702
v 0.919289351 -0.175714731 0.0587426759
v 0.966711223 -0.0594513007 0.0587365702
v 1.03384018 -0.203231826 0.0587426759
v 1.02994859 -0.117443241 0.0587365702
v 1.13217509 -0.179618552 0.0587365702
v 1.04020739 -0.320379019 0.0587365702
v 1.12648666 -0.0488879494 0.058739014
v 1.11995828 -0.34858641 0.0587365702
v 1.06199443 -0.0247058198 0.058739014
v 1.13172102 0.0865966678 0.0587426759
v 1.05267322 0.0889099017 0.0587426759
v 1.01677477 -0.357102036 0.0587365702
v 1.03058815 -0.43921873 0.0587426759
v 0.975700498 -0.344487309 0.0587365702
v 0.891384125 -0.432800293 0.0587426759
v 0.987199545 -0.297709972 0.0587365702
v 0.883249342 -0.294229746 0.0587426759
v -0.485705733 0.421814561 -0.0587365702
v -0.627307296 0.373129874 -0.0587365702
v -0.562390327 0.315922201 -0.0587365702
v -0.627268255 0.43921873 -0.0587341301
v -0.780261338 0.323315412 -0.0587365702
v -0.914016247 0.350682378 -0.0587304682
v -0.90124768 0.302584827 -0.0587316863
v -0.77168715 0.288768888 -0.0587365702
v -0.741037726 0.165212378 -0.0587365702
v -1.02429461 0.279147327 -0.0587316863
v -1.07807875 0.309666723 -0.0587304682
v -1.04832292 0.244739354 -0.0587316863
v -1.13217545 0.240558445 -0.0587304682
v -1.02864027 0.215503514 -0.0587316863
v -1.07763934 0.158465564 -0.0587304682
v -0.952107072 0.249520242 -0.0587316863
v -0.97448498 0.145933211 -0.0587304682
v -0.855583608 0.130562738 -0.0587365702
v -0.83850354 0.0707867295 -0.0587304682
v -0.728484035 0.106704086 -0.0587365702
v -0.821819007 -0.0328845307 -0.0587329082
v -0.695744753 -0.0656756684 -0.0587365702
v -0.721648097 -0.177867442 -0.0587365702
v -0.859807253 -0.0975262523 -0.058735352
v -0.863571882 -0.217174083 -0.0587365702
v -0.911799431 -0.144408569 -0.0587365702
v -0.647194982 0.137510359 -0.0587365702
v -0.649109006 0.192374855 -0.0587329082
v -0.548298538 0.186937839 -0.0587304682
v -0.585964561 0.112856433 -0.0587365702
v -0.285622716 0.0877880752 -0.0587365702
v -0.279245764 -0.0699554533 -0.0587365702
v -0.197058275 0.0388500877 -0.0587365702
v -0.3286452 0.00538695278 -0.0587365702
v -0.377136409 -0.0208886806 -0.0587304682
v -0.404284835 0.0616735741 -0.0587365702
v -0.40083757 -0.0640893653 -0.0587365702
v -0.492751658 0.0168957412 -0.0587365702
v -0.451667666 0.121108994 -0.0587365702
v -0.568640292 0.0445092656 -0.0587365702
v -0.487732112 -0.0690826476 -0.0587365702
v -0.479343444 -0.205068991 -0.0587365702
v -0.399782896 -0.203854382 -0.0587365702
v 0.722805023 0.193756074 -0.0587365702
v 0.800226867 0.13546142 -0.0587365702
v 0.815358698 0.198518038 -0.0587365702
v 0.710495412 0.121980578 -0.0587365702
v 0.575886011 0.136221305 -0.0587365702
v 0.560456336 0.00107481878 -0.0587365702
v 0.693864584 0.018439319 -0.0587365702
v 0.577570617 -0.143548593 -0.0587365702
v 0.686520815 -0.0585400462 -0.0587365702
v 0.704416335 -0.121251836 -0.0587365702
v 0.662819684 -0.214019179 -0.0587365702
v 0.814870417 -0.156286016 -0.0587365702
v 0.79056865 -0.0543225184 -0.0587365702
v 0.588195622 0.207997411 -0.0587365702
v 0.671735644 0.401430041 -0.0587365702
v 0.563776672 0.415593266 -0.0587365702
v 0.520705342 0.206549048 -0.0587365702
v 0.475866497 0.152796611 -0.0587365702
v 0.435661435 0.208458841 -0.0587365702
v 0.490246385 0.270468116 -0.0587365702
v 0.480300099 0.0475945957 -0.0587365702
v 0.346550107 0.0542724505 -0.0587426759
v 0.360759079 0.00309874443 -0.0587304682
v 0.417824507 0.131768793 -0.0587365702
v 0.316345036 0.0791699141 -0.0587365702
v 0.328898728 0.139212027 -0.0587365702
v 0.292761058 0.0519415177 -0.0587365702
v 0.216764957 0.113812245 -0.0587365702
v 0.194601879 0.0217205714 -0.0587426759
v 0.317140937 0.0125573622 -0.0587365702
v 0.246164367 -0.0457330421 -0.0587365702
v 0.502145767 -0.0395019613 -0.0587426759
v 0.368493468 -0.0740399212 -0.0587365702
v 0.523845017 -0.120033577 -0.0587365702
v 0.402604789 -0.102288827 -0.0587365702
v 0.458981723 -0.180087909 -0.0587365702
v 0.408249319 -0.123745121 -0.0587365702
v 0.365275681 -0.20086427 -0.0587365702
v 0.364894807 -0.13041383 -0.0587365702
v 0.242399722 -0.18222414 -0.0587365702
v 0.317223936 -0.134819344 -0.0587365702
v 0.190539375 -0.113038339 -0.0587426759
v 0.23231183 -0.106585704 -0.0587304682
v 0.949465156 0.0900079235 -0.0587365702
v 0.840978861 0.0926525742 -0.0587304682
v 0.848600924 -0.0484021083 -0.0587304682
v 0.943532526 0.0144140515 -0.0587365702
v 0.966711223 -0.0594513007 -0.0587365702
v 0.919289351 -0.175714731 -0.0587304682
v 1.02994859 -0.117443241 -0.0587365702
v 1.03384018 -0.203231826 -0.0587304682
v 1.13217509 -0.179618552 -0.0587365702
v 1.0402025 -0.320379019 -0.0587365702
v 1.11995828 -0.34858641 -0.0587426759
v 1.01677477 -0.357102036 -0.0587426759
v 1.03058815 -0.43921873 -0.0587365702
v 0.975700498 -0.344487309 -0.058738403
v 0.891384125 -0.432800293 -0.0587322973
v 0.987199545 -0.297709972 -0.0587365702
v 0.883249342 -0.294229746 -0.0587304682
v 1.12648666 -0.0488879494 -0.0587335192
v 1.06199443 -0.0247058198 -0.0587365702
v 1.05267322 0.0889099017 -0.0587365702
v 1.13172102 0.0865966678 -0.0587304682
v -0.485705733 0.421814561 -0.0587365702
v -0.485705733 0.421814561 0.0587365702
v -0.627268255 0.43921873 0.058738403
v -0.627268255 0.43921873 -0.0587341301
v -0.914016247 0.350682378 -0.0587304682
v -0.914016247 0.350682378 0.0587426759
v -0.627307296 0.373129874 -0.0587365702
v -0.562390327 0.315922201 0.0587365702
v -0.562390327 0.315922201 -0.0587365702
v -0.627307296 0.373129874 0.0587365702
v -0.780261338 0.323315412 -0.0587365702
v -0.780261338 0.323315412 0.0587365702
v -0.562390327 0.315922201 -0.0587365702
v -0.562390327 0.315922201 0.0587365702
v -0.485705733 0.421814561 0.0587365702
v -0.485705733 0.421814561 -0.0587365702
v -0.728484035 0.106704086 -0.0587365702
v -0.728484035 0.106704086 0.0587365702
v -0.647194982 0.137510359 0.0587365702
v -0.647194982 0.137510359 -0.0587365702
v -0.585964561 0.112856433 -0.0587365702
v -0.585964561 0.112856433 0.0587365702
v -0.585964561 0.112856433 -0.0587365702
v -0.585964561 0.112856433 0.0587365702
v -0.548298538 0.186937839 0.0587426759
v -0.548298538 0.186937839 -0.0587304682
v -0.649109006 0.192374855 -0.0587329082
v -0.741037726 0.165212378 0.0587365702
v -0.741037726 0.165212378 -0.0587365702
v -0.649109006 0.192374855 0.0587402321
v -0.548298538 0.186937839 -0.0587304682
v -0.548298538 0.186937839 0.0587426759
v -0.83850354 0.0707867295 -0.0587304682
v -0.83850354 0.0707867295 0.0587426759
v -0.821819007 -0.0328845307 0.0587402321
v -0.821819007 -0.0328845307 -0.0587329082
v -0.859807253 -0.0975262523 -0.058735352
v -0.859807253 -0.0975262523 0.0587377921
v -0.911799431 -0.144408569 -0.0587365702
v -0.911799431 -0.144408569 0.0587365702
v -0.911799431 -0.144408569 -0.0587365702
v -0.911799431 -0.144408569 0.0587365702
v -0.863571882 -0.217174083 0.0587365702
v -0.863571882 -0.217174083 -0.0587365702
v -0.695744753 -0.0656756684 -0.0587365702
v -0.728484035 0.106704086 0.0587365702
v -0.728484035 0.106704086 -0.0587365702
v -0.695744753 -0.0656756684 0.0587365702
v -0.721648097 -0.177867442 -0.0587365702
v -0.721648097 -0.177867442 0.0587365702
v -0.855583608 0.130562738 -0.0587365702
v -0.83850354 0.0707867295 0.0587426759
v -0.83850354 0.0707867295 -0.0587304682
v -0.855583608 0.130562738 0.0587365702
v -0.90124768 0.302584827 0.058741454
v -0.90124768 0.302584827 -0.0587316863
v -0.97448498 0.145933211 -0.0587304682
v -0.97448498 0.145933211 0.0587426759
v -0.952107072 0.249520242 0.058741454
v -0.952107072 0.249520242 -0.0587316863
v -0.77168715 0.288768888 -0.0587365702
v -0.780261338 0.323315412 0.0587365702
v -0.780261338 0.323315412 -0.0587365702
v -0.77168715 0.288768888 0.0587365702
v -0.741037726 0.165212378 -0.0587365702
v -0.741037726 0.165212378 0.0587365702
v -0.3286452 0.00538695278 -0.0587365702
v -0.3286452 0.00538695278 0.0587426759
v -0.279245764 -0.0699554533 0.0587365702
v -0.279245764 -0.0699554533 -0.0587365702
v -0.279245764 -0.0699554533 -0.0587365702
v -0.279245764 -0.0699554533 0.0587365702
v -0.197058275 0.0388500877 0.0587426759
v -0.197058275 0.0388500877 -0.0587365702
v -0.197058275 0.0388500877 -0.0587365702
v -0.197058275 0.0388500877 0.0587426759
v -0.285622716 0.0877880752 0.0587365702
v -0.285622716 0.0877880752 -0.0587365702
v -0.285622716 0.0877880752 0.0587365702
v -0.404284835 0.0616735741 0.0587426759
v -0.404284835 0.0616735741 -0.0587365702
v -0.285622716 0.0877880752 -0.0587365702
v -0.377136409 -0.0208886806 -0.0587304682
v -0.377136409 -0.0208886806 0.0587426759
v -0.3286452 0.00538695278 0.0587426759
v -0.3286452 0.00538695278 -0.0587365702
v -0.40083757 -0.0640893653 -0.0587365702
v -0.40083757 -0.0640893653 0.0587365702
v -0.377136409 -0.0208886806 0.0587426759
v -0.377136409 -0.0208886806 -0.0587304682
v -0.487732112 -0.0690826476 -0.0587365702
v -0.479343444 -0.205068991 0.0587365702
v -0.479343444 -0.205068991 -0.0587365702
v -0.487732112 -0.0690826476 0.0587365702
v -0.492751658 0.0168957412 -0.0587365702
v -0.492751658 0.0168957412 0.0587365702
v -0.479343444 -0.205068991 -0.0587365702
v -0.479343444 -0.205068991 0.0587365702
v -0.399782896 -0.203854382 0.0587365702
v -0.399782896 -0.203854382 -0.0587365702
v -0.399782896 -0.203854382 -0.0587365702
v -0.399782896 -0.203854382 0.0587365702
v -0.40083757 -0.0640893653 0.0587365702
v -0.40083757 -0.0640893653 -0.0587365702
v -0.404284835 0.0616735741 -0.0587365702
v -0.404284835 0.0616735741 0.0587426759
v -0.451667666 0.121108994 0.0587365702
v -0.451667666 0.121108994 -0.0587365702
v -0.451667666 0.121108994 -0.0587365702
v -0.451667666 0.121108994 0.0587365702
v -0.568640292 0.0445092656 0.0587365702
v -0.568640292 0.0445092656 -0.0587365702
v -0.568640292 0.0445092656 -0.0587365702
v -0.568640292 0.0445092656 0.0587365702
v -0.492751658 0.0168957412 0.0587365702
v -0.492751658 0.0168957412 -0.0587365702
v 0.710495412 0.121980578 -0.0587365702
v 0.710495412 0.121980578 0.0587365702
v 0.800226867 0.13546142 0.0587426759
v 0.800226867 0.13546142 -0.0587365702
v 0.800226867 0.13546142 -0.0587365702
v 0.800226867 0.13546142 0.0587426759
v 0.815358698 0.198518038 0.0587365702
v 0.815358698 0.198518038 -0.0587365702
v 0.815358698 0.198518038 -0.0587365702
v 0.815358698 0.198518038 0.0587365702
v 0.722805023 0.193756074 0.0587365702
v 0.722805023 0.193756074 -0.0587365702
v 0.588195622 0.207997411 -0.0587365702
v 0.588195622 0.207997411 0.0587426759
v 0.520705342 0.206549048 0.0587365702
v 0.520705342 0.206549048 -0.0587365702
v 0.490246385 0.270468116 -0.0587365702
v 0.490246385 0.270468116 0.0587365702
v 0.435661435 0.208458841 0.0587365702
v 0.435661435 0.208458841 -0.0587365702
v 0.475866497 0.152796611 -0.0587365702
v 0.475866497 0.152796611 0.0587365702
v 0.575886011 0.136221305 0.0587426759
v 0.575886011 0.136221305 -0.0587365702
v 0.662819684 -0.214019179 -0.0587365702
v 0.662819684 -0.214019179 0.0587426759
v 0.814870417 -0.156286016 0.0587426759
v 0.814870417 -0.156286016 -0.0587365702
v 0.814870417 -0.156286016 -0.0587365702
v 0.814870417 -0.156286016 0.0587426759
v 0.79056865 -0.0543225184 0.0587365702
v 0.79056865 -0.0543225184 -0.0587365702
v 0.79056865 -0.0543225184 -0.0587365702
v 0.79056865 -0.0543225184 0.0587365702
v 0.704416335 -0.121251836 0.0587365702
v 0.704416335 -0.121251836 -0.0587365702
v 0.671735644 0.401430041 -0.0587365702
v 0.671735644 0.401430041 0.0587365702
v 0.563776672 0.415593266 0.0587365702
v 0.563776672 0.415593266 -0.0587365702
v 0.563776672 0.415593266 -0.0587365702
v 0.563776672 0.415593266 0.0587365702
v 0.588195622 0.207997411 0.0587426759
v 0.588195622 0.207997411 -0.0587365702
v 0.722805023 0.193756074 -0.0587365702
v 0.722805023 0.193756074 0.0587365702
v 0.671735644 0.401430041 0.0587365702
v 0.671735644 0.401430041 -0.0587365702
v 0.575886011 0.136221305 -0.0587365702
v 0.575886011 0.136221305 0.0587426759
v 0.560456336 0.00107481878 0.0587426759
v 0.560456336 0.00107481878 -0.0587365702
v 0.693864584 0.018439319 -0.0587365702
v 0.693864584 0.018439319 0.0587365702
v 0.710495412 0.121980578 0.0587365702
v 0.710495412 0.121980578 -0.0587365702
v 0.560456336 0.00107481878 -0.0587365702
v 0.560456336 0.00107481878 0.0587426759
v 0.577570617 -0.143548593 0.0587365702
v 0.577570617 -0.143548593 -0.0587365702
v 0.686520815 -0.0585400462 -0.0587365702
v 0.686520815 -0.0585400462 0.0587365702
v 0.693864584 0.018439319 0.0587365702
v 0.693864584 0.018439319 -0.0587365702
v 0.577570617 -0.143548593 0.0587365702
v 0.662819684 -0.214019179 0.0587426759
v 0.662819684 -0.214019179 -0.0587365702
v 0.577570617 -0.143548593 -0.0587365702
v 0.704416335 -0.121251836 -0.0587365702
v 0.704416335 -0.121251836 0.0587365702
v 0.686520815 -0.0585400462 0.0587365702
v 0.686520815 -0.0585400462 -0.0587365702
v 1.13217509 -0.179618552 -0.0587365702
v 1.13217509 -0.179618552 0.0587365702
v 1.12648666 -0.0488879494 0.058739014
v 1.12648666 -0.0488879494 -0.0587335192
v 1.13172102 0.0865966678 -0.0587304682
v 1.13172102 0.0865966678 0.0587426759
v 1.13172102 0.0865966678 -0.0587304682
v 1.13172102 0.0865966678 0.0587426759
v 1.05267322 0.0889099017 0.0587426759
v 1.05267322 0.0889099017 -0.0587365702
v 1.06199443 -0.0247058198 -0.0587365702
v 1.02994859 -0.117443241 0.0587365702
v 1.02994859 -0.117443241 -0.0587365702
v 1.06199443 -0.0247058198 0.058739014
v 1.05267322 0.0889099017 -0.0587365702
v 1.05267322 0.0889099017 0.0587426759
v 0.949465156 0.0900079235 -0.0587365702
v 0.949465156 0.0900079235 0.0587365702
v 0.840978861 0.0926525742 0.0587426759
v 0.840978861 0.0926525742 -0.0587304682
v 0.840978861 0.0926525742 -0.0587304682
v 0.840978861 0.0926525742 0.0587426759
v 0.848600924 -0.0484021083 0.0587426759
v 0.848600924 -0.0484021083 -0.0587304682
v 0.919289351 -0.175714731 -0.0587304682
v 0.919289351 -0.175714731 0.0587426759
v 0.943532526 0.0144140515 -0.0587365702
v 0.949465156 0.0900079235 0.0587365702
v 0.949465156 0.0900079235 -0.0587365702
v 0.943532526 0.0144140515 0.0587365702
v 0.966711223 -0.0594513007 -0.0587365702
v 0.966711223 -0.0594513007 0.0587365702
v 1.02994859 -0.117443241 -0.0587365702
v 1.02994859 -0.117443241 0.0587365702
v 1.03384018 -0.203231826 -0.0587304682
v 1.03384018 -0.203231826 0.0587426759
v 1.04020739 -0.320379019 0.0587365702
v 1.0402025 -0.320379019 -0.0587365702
v 1.11995828 -0.34858641 -0.0587426759
v 1.11995828 -0.34858641 0.0587365702
v 1.13217509 -0.179618552 0.0587365702
v 1.13217509 -0.179618552 -0.0587365702
v 1.0402025 -0.320379019 -0.0587365702
v 1.04020739 -0.320379019 0.0587365702
v 1.01677477 -0.357102036 0.0587365702
v 1.01677477 -0.357102036 -0.0587426759
v 1.03058815 -0.43921873 -0.0587365702
v 1.03058815 -0.43921873 0.0587426759
v 1.11995828 -0.34858641 0.0587365702
v 1.11995828 -0.34858641 -0.0587426759
v 0.975700498 -0.344487309 -0.058738403
v 0.975700498 -0.344487309 0.0587365702
v 0.987199545 -0.297709972 0.0587365702
v 0.987199545 -0.297709972 -0.0587365702
v 0.987199545 -0.297709972 -0.0587365702
v 0.987199545 -0.297709972 0.0587365702
v 0.883249342 -0.294229746 0.0587426759
v 0.883249342 -0.294229746 -0.0587304682
v 0.883249342 -0.294229746 -0.0587304682
v 0.883249342 -0.294229746 0.0587426759
v 0.891384125 -0.432800293 0.0587426759
v 0.891384125 -0.432800293 -0.0587322973
v -0.0299928542 0.134625837 -0.0587426759
v -0.0299928542 0.134625837 0.0587365702
v -0.157688171 0.0736846775 0.0587365702
v -0.157688171 0.0736846775 -0.0587365702
v -0.0718434379 0.0228509419 -0.0587365702
v -0.0718434379 0.0228509419 0.0587365702
v -0.0217213705 0.0424774066 0.0587426759
v -0.0217213705 0.0424774066 -0.0587365702
v -0.00534441648 -0.193397835 -0.0587304682
v -0.00534441648 -0.193397835 0.0587426759
v 0.124631166 -0.13329041 0.0587365702
v 0.124631166 -0.13329041 -0.0587365702
v 0.0385911278 -0.0834277421 -0.0587304682
v 0.0385911278 -0.0834277421 0.0587426759
v -0.0106910951 -0.102631845 0.0587365702
v -0.0106910951 -0.102631845 -0.0587365702
v 0.124631166 -0.13329041 -0.0587365702
v 0.124631166 -0.13329041 0.0587365702
v 0.148049131 -0.0228735451 0.0587426759
v 0.148049131 -0.0228735451 -0.0587365702
v 0.0473850779 -0.0271685887 -0.0587365702
v 0.0473850779 -0.0271685887 0.0587426759
v 0.0385911278 -0.0834277421 0.0587426759
v 0.0385911278 -0.0834277421 -0.0587304682
v 0.148049131 -0.0228735451 -0.0587365702
v 0.148049131 -0.0228735451 0.0587426759
v 0.118503235 0.076519765 0.0587365702
v 0.118503235 0.076519765 -0.0587365702
v 0.0292551909 0.0264819227 -0.0587365702
v 0.0292551909 0.0264819227 0.0587426759
v 0.0473850779 -0.0271685887 0.0587426759
v 0.0473850779 -0.0271685887 -0.0587365702
v 0.118503235 0.076519765 -0.0587365702
v 0.118503235 0.076519765 0.0587365702
v -0.0299928542 0.134625837 0.0587365702
v -0.0299928542 0.134625837 -0.0587426759
v -0.0217213705 0.0424774066 -0.0587365702
v -0.0217213705 0.0424774066 0.0587426759
v 0.0292551909 0.0264819227 0.0587426759
v 0.0292551909 0.0264819227 -0.0587365702
v -0.157688171 0.0736846775 -0.0587365702
v -0.157688171 0.0736846775 0.0587365702
v -0.181574881 -0.0364685133 0.0587426759
v -0.181574881 -0.0364685133 -0.0587304682
v -0.0813063309 -0.0317230299 -0.0587304682
v -0.0813063309 -0.0317230299 0.0587426759
v -0.0718434379 0.0228509419 0.0587365702
v -0.0718434379 0.0228509419 -0.0587365702
v -0.181574881 -0.0364685133 -0.0587304682
v -0.181574881 -0.0364685133 0.0587426759
v -0.132141292 -0.150159314 0.0587365702
v -0.132141292 -0.150159314 -0.0587365702
v -0.0629078895 -0.0865423679 -0.0587365702
v -0.0629078895 -0.0865423679 0.0587365702
v -0.0813063309 -0.0317230299 0.0587426759
v -0.0813063309 -0.0317230299 -0.0587304682
v -0.132141292 -0.150159314 -0.0587365702
v -0.132141292 -0.150159314 0.0587365702
v -0.00534441648 -0.193397835 0.0587426759
v -0.00534441648 -0.193397835 -0.0587304682
v -0.0106910951 -0.102631845 -0.0587365702
v -0.0106910951 -0.102631845 0.0587365702
v -0.0629078895 -0.0865423679 0.0587365702
v -0.0629078895 -0.0865423679 -0.0587365702
v 0.346550107 0.0542724505 -0.0587426759
v 0.346550107 0.0542724505 0.0587365702
v 0.360759079 0.00309874443 0.0587426759
v 0.360759079 0.00309874443 -0.0587304682
v 0.360759079 0.00309874443 -0.0587304682
v 0.360759079 0.00309874443 0.0587426759
v 0.480300099 0.0475945957 0.0587365702
v 0.480300099 0.0475945957 -0.0587365702
v 0.480300099 0.0475945957 0.0587365702
v 0.417824507 0.131768793 0.0587365702
v 0.417824507 0.131768793 -0.0587365702
v 0.480300099 0.0475945957 -0.0587365702
v 0.328898728 0.139212027 -0.0587365702
v 0.328898728 0.139212027 0.0587365702
v 0.216764957 0.113812245 0.0587365702
v 0.216764957 0.113812245 -0.0587365702
v 0.292761058 0.0519415177 -0.0587365702
v 0.292761058 0.0519415177 0.0587365702
v 0.316345036 0.0791699141 0.0587426759
v 0.316345036 0.0791699141 -0.0587365702
v 0.317140937 0.0125573622 0.0587365702
v 0.292761058 0.0519415177 0.0587365702
v 0.292761058 0.0519415177 -0.0587365702
v 0.317140937 0.0125573622 -0.0587365702
v 0.368493468 -0.0740399212 -0.0587365702
v 0.368493468 -0.0740399212 0.0587365702
v 0.402604789 -0.102288827 0.0587365702
v 0.402604789 -0.102288827 -0.0587365702
v 0.523845017 -0.120033577 -0.0587365702
v 0.523845017 -0.120033577 0.0587365702
v 0.502145767 -0.0395019613 0.0587304682
v 0.502145767 -0.0395019613 -0.0587426759
v 0.402604789 -0.102288827 -0.0587365702
v 0.402604789 -0.102288827 0.0587365702
v 0.408249319 -0.123745121 0.0587365702
v 0.408249319 -0.123745121 -0.0587365702
v 0.458981723 -0.180087909 0.0587365702
v 0.523845017 -0.120033577 0.0587365702
v 0.523845017 -0.120033577 -0.0587365702
v 0.458981723 -0.180087909 -0.0587365702
v 0.408249319 -0.123745121 -0.0587365702
v 0.408249319 -0.123745121 0.0587365702
v 0.364894807 -0.13041383 0.0587365702
v 0.364894807 -0.13041383 -0.0587365702
v 0.365275681 -0.20086427 -0.0587365702
v 0.365275681 -0.20086427 0.0587365702
v 0.458981723 -0.180087909 0.0587365702
v 0.458981723 -0.180087909 -0.0587365702
v 0.364894807 -0.13041383 -0.0587365702
v 0.364894807 -0.13041383 0.0587365702
v 0.317223936 -0.134819344 0.0587365702
v 0.317223936 -0.134819344 -0.0587365702
v 0.242399722 -0.18222414 -0.0587365702
v 0.242399722 -0.18222414 0.0587365702
v 0.365275681 -0.20086427 0.0587365702
v 0.365275681 -0.20086427 -0.0587365702
v 0.317223936 -0.134819344 -0.0587365702
v 0.317223936 -0.134819344 0.0587365702
v 0.23231183 -0.106585704 0.0587426759
v 0.23231183 -0.106585704 -0.0587304682
v 0.23231183 -0.106585704 -0.0587304682
v 0.23231183 -0.106585704 0.0587426759
v 0.190549135 -0.113038339 0.0587365702
v 0.190539375 -0.113038339 -0.0587426759
v 0.190539375 -0.113038339 -0.0587426759
v 0.190549135 -0.113038339 0.0587365702
v 0.242399722 -0.18222414 0.0587365702
v 0.242399722 -0.18222414 -0.0587365702
v 0.502145767 -0.0395019613 0.0587304682
v 0.317140937 0.0125573622 0.0587365702
v 0.317140937 0.0125573622 -0.0587365702
v 0.502145767 -0.0395019613 -0.0587426759
v 0.368493468 -0.0740399212 0.0587365702
v 0.368493468 -0.0740399212 -0.0587365702
v 0.246164367 -0.0457330421 -0.0587365702
v 0.246164367 -0.0457330421 0.0587365702
v 0.246164367 -0.0457330421 0.0587365702
v 0.246164367 -0.0457330421 -0.0587365702
v 0.194601879 0.0217205714 -0.0587426759
v 0.194601879 0.0217205714 0.0587365702
v 0.216764957 0.113812245 -0.0587365702
v 0.216764957 0.113812245 0.0587365702
v 0.194601879 0.0217205714 0.0587365702
v 0.194601879 0.0217205714 -0.0587426759
v 0.316345036 0.0791699141 -0.0587365702
v 0.316345036 0.0791699141 0.0587426759
v 0.346550107 0.0542724505 0.0587365702
v 0.346550107 0.0542724505 -0.0587426759
v 0.417824507 0.131768793 -0.0587365702
v 0.417824507 0.131768793 0.0587365702
v 0.328898728 0.139212027 0.0587365702
v 0.328898728 0.139212027 -0.0587365702
v -0.863571882 -0.217174083 -0.0587365702
v -0.863571882 -0.217174083 0.0587365702
v -0.721648097 -0.177867442 0.0587365702
v -0.721648097 -0.177867442 -0.0587365702
v -0.90124768 0.302584827 -0.0587316863
v -1.02429461 0.279147327 -0.0587316863
v -1.02429461 0.279147327 0.058741454
v -0.90124768 0.302584827 0.058741454
v -0.914016247 0.350682378 0.0587426759
v -1.07807875 0.309666723 0.0587426759
v -1.07807875 0.309666723 -0.0587304682
v -0.914016247 0.350682378 -0.0587304682
v -1.02429461 0.279147327 -0.0587316863
v -1.04832292 0.244739354 -0.0587316863
v -1.04832292 0.244739354 0.058741454
v -1.02429461 0.279147327 0.058741454
v -1.07807875 0.309666723 0.0587426759
v -1.13217545 0.240558445 0.0587426759
v -1.13217545 0.240558445 -0.0587304682
v -1.07807875 0.309666723 -0.0587304682
v -1.04832292 0.244739354 -0.0587316863
v -1.02864027 0.215503514 -0.0587316863
v -1.02864027 0.215503514 0.058741454
v -1.04832292 0.244739354 0.058741454
v -1.13217545 0.240558445 0.0587426759
v -1.07763934 0.158465564 0.0587426759
v -1.07763934 0.158465564 -0.0587304682
v -1.13217545 0.240558445 -0.0587304682
v -1.02864027 0.215503514 -0.0587316863
v -0.952107072 0.249520242 -0.0587316863
v -0.952107072 0.249520242 0.058741454
v -1.02864027 0.215503514 0.058741454
v -1.07763934 0.158465564 0.0587426759
v -0.97448498 0.145933211 0.0587426759
v -0.97448498 0.145933211 -0.0587304682
v -1.07763934 0.158465564 -0.0587304682
v 0.475866497 0.152796611 -0.0587365702
v 0.435661435 0.208458841 -0.0587365702
v 0.435661435 0.208458841 0.0587365702
v 0.475866497 0.152796611 0.0587365702
v 0.520705342 0.206549048 0.0587365702
v 0.490246385 0.270468116 0.0587365702
v 0.490246385 0.270468116 -0.0587365702
v 0.520705342 0.206549048 -0.0587365702
v 0.919289351 -0.175714731 0.0587426759
v 1.03384018 -0.203231826 0.0587426759
v 1.03384018 -0.203231826 -0.0587304682
v 0.919289351 -0.175714731 -0.0587304682
v 1.01677477 -0.357102036 -0.0587426759
v 1.01677477 -0.357102036 0.0587365702
v 0.975700498 -0.344487309 0.0587365702
v 0.975700498 -0.344487309 -0.058738403
v 0.891384125 -0.432800293 0.0587426759
v 1.03058815 -0.43921873 0.0587426759
v 1.03058815 -0.43921873 -0.0587365702
v 0.891384125 -0.432800293 -0.0587322973
v -0.181574881 -0.0364685133 0.0587426759
v -0.0813063309 -0.0317230299 0.0587426759
v -0.0629078895 -0.0865423679 0.0587365702
v -0.157688171 0.0736846775 0.0587365702
v -0.132141292 -0.150159314 0.0587365702
v -0.0718434379 0.0228509419 0.0587365702
v -0.0106910951 -0.102631845 0.0587365702
v -0.0299928542 0.134625837 0.0587365702
v -0.00534441648 -0.193397835 0.0587426759
v -0.0217213705 0.0424774066 0.0587426759
v 0.0385911278 -0.0834277421 0.0587426759
v 0.118503235 0.076519765 0.0587365702
v 0.124631166 -0.13329041 0.0587365702
v 0.0292551909 0.0264819227 0.0587426759
v 0.0473850779 -0.0271685887 0.0587426759
v 0.148049131 -0.0228735451 0.0587426759
v -0.0299928542 0.134625837 -0.0587426759
v -0.157688171 0.0736846775 -0.0587365702
v -0.0718434379 0.0228509419 -0.0587365702
v -0.0217213705 0.0424774066 -0.0587365702
v -0.0813063309 -0.0317230299 -0.0587304682
v 0.118503235 0.076519765 -0.0587365702
v -0.181574881 -0.0364685133 -0.0587304682
v 0.0292551909 0.0264819227 -0.0587365702
v -0.0629078895 -0.0865423679 -0.0587365702
v 0.148049131 -0.0228735451 -0.0587365702
v -0.132141292 -0.150159314 -0.0587365702
v 0.0473850779 -0.0271685887 -0.0587365702
v -0.0106910951 -0.102631845 -0.0587365702
v 0.124631166 -0.13329041 -0.0587365702
v -0.00534441648 -0.193397835 -0.0587304682
v 0.0385911278 -0.0834277421 -0.0587304682
vt 0.315673828 0.85546875
vt 0.300048828 0.870605469
vt 0.311279297 0.879882812
vt 0.322021484 0.878417969
vt 0.314697266 0.927734375
vt 0.306884766 0.90625
vt 0.306640625 0.926757812
vt 0.301025391 0.905761719
vt 0.312255859 0.955566406
vt 0.277099609 0.923828125
vt 0.305908203 0.947753906
vt 0.302246094 0.966308594
vt 0.30078125 0.952636719
vt 0.287353516 0.959472656
vt 0.295410156 0.950195312
vt 0.282470703 0.942871094
vt 0.299072266 0.936523438
vt 0.279785156 0.903808594
vt 0.266845703 0.922363281
vt 0.270019531 0.903320312
vt 0.249267578 0.922363281
vt 0.272949219 0.889160156
vt 0.240722656 0.90234375
vt 0.281982422 0.888183594
vt 0.267333984 0.879882812
vt 0.278564453 0.871582031
vt 0.239624023 0.930175781
vt 0.222900391 0.909179688
vt 0.233154297 0.939941406
vt 0.219970703 0.93359375
vt 0.282470703 0.9140625
vt 0.270507812 0.895996094
vt 0.248168945 0.915527344
vt 0.265380859 0.924804688
vt 0.260498047 0.935546875
vt 0.278808594 0.940429688
vt 0.251464844 0.94140625
vt 0.270507812 0.959960938
vt 0.292236328 0.949707031
vt 0.277587891 0.976074219
vt 0.251708984 0.960449219
vt 0.222167969 0.9609375
vt 0.221191406 0.943359375
vt 0.282958984 0.902832031
vt 0.281982422 0.916503906
vt 0.272949219 0.913085938
vt 0.272705078 0.899414062
vt 0.27734375 0.879882812
vt 0.257568359 0.875
vt 0.257568359 0.895019531
vt 0.235595703 0.875
vt 0.24621582 0.892578125
vt 0.236572266 0.894042969
vt 0.223510742 0.886230469
vt 0.229248047 0.909667969
vt 0.244873047 0.908203125
vt 0.287597656 0.883300781
vt 0.314941406 0.899414062
vt 0.319091797 0.883300781
vt 0.288818359 0.873046875
vt 0.281738281 0.865234375
vt 0.298828125 0.869628906
vt 0.290771484 0.860351562
vt 0.238037109 0.943359375
vt 0.248046875 0.974121094
vt 0.248168945 0.963378906
vt 0.229003906 0.963867188
vt 0.237426758 0.931640625
vt 0.219970703 0.934082031
vt 0.237426758 0.920410156
vt 0.221679688 0.91015625
vt 0.242919922 0.921386719
vt 0.234130859 0.891601562
vt 0.251220703 0.928710938
vt 0.254882812 0.894042969
vt 0.262695312 0.958007812
vt 0.274658203 0.937988281
vt 0.28125 0.968261719
vt 0.28515625 0.942871094
vt 0.303222656 0.959472656
vt 0.305419922 0.930664062
vt 0.291015625 0.936035156
vt 0.300292969 0.908691406
vt 0.283691406 0.929199219
vt 0.27734375 0.896484375
vt 0.270507812 0.927734375
vt 0.305664062 0.902832031
vt 0.284423828 0.918457031
vt 0.306152344 0.919433594
vt 0.293945312 0.903808594
vt 0.264892578 0.907714844
vt 0.282714844 0.900390625
vt 0.260742188 0.890136719
vt 0.273681641 0.890625
vt 0.264160156 0.875
vt 0.242675781 0.889160156
vt 0.284179688 0.875976562
vt 0.23828125 0.876953125
vt 0.287841797 0.885742188
vt 0.304931641 0.875
vt 0.305175781 0.88671875
vt 0.237182617 0.893066406
vt 0.224609375 0.891113281
vt 0.239135742 0.899414062
vt 0.225708008 0.912109375
vt 0.24621582 0.897460938
vt 0.246948242 0.913085938
vt 0.316650391 0.855957031
vt 0.312011719 0.880371094
vt 0.301025391 0.87109375
vt 0.322753906 0.87890625
vt 0.307373047 0.906738281
vt 0.315185547 0.928222656
vt 0.306884766 0.927246094
vt 0.301513672 0.90625
vt 0.280273438 0.904296875
vt 0.305908203 0.948242188
vt 0.312255859 0.956054688
vt 0.30078125 0.953125
vt 0.302246094 0.966796875
vt 0.295654297 0.950195312
vt 0.287353516 0.959960938
vt 0.299316406 0.937011719
vt 0.282714844 0.942871094
vt 0.27734375 0.923828125
vt 0.267089844 0.922363281
vt 0.270507812 0.903320312
vt 0.249633789 0.922363281
vt 0.241210938 0.90234375
vt 0.223266602 0.909179688
vt 0.239868164 0.930175781
vt 0.220214844 0.93359375
vt 0.233398438 0.939453125
vt 0.2734375 0.889160156
vt 0.282714844 0.888183594
vt 0.279296875 0.871582031
vt 0.268066406 0.879882812
vt 0.288574219 0.945800781
vt 0.254394531 0.948242188
vt 0.278564453 0.965332031
vt 0.270263672 0.937011719
vt 0.264160156 0.926757812
vt 0.281982422 0.919921875
vt 0.254638672 0.921875
vt 0.271484375 0.901367188
vt 0.294433594 0.909179688
vt 0.276855469 0.884277344
vt 0.252929688 0.902832031
vt 0.223388672 0.905761719
vt 0.224243164 0.923339844
vt 0.283691406 0.90234375
vt 0.2734375 0.913574219
vt 0.282958984 0.916992188
vt 0.272705078 0.899414062
vt 0.276855469 0.87890625
vt 0.256347656 0.874511719
vt 0.256835938 0.895507812
vt 0.233642578 0.875
vt 0.245117188 0.893066406
vt 0.235107422 0.895019531
vt 0.221435547 0.887207031
vt 0.228027344 0.911621094
vt 0.244140625 0.909179688
vt 0.287841797 0.881835938
vt 0.31640625 0.897949219
vt 0.3203125 0.881347656
vt 0.288574219 0.871582031
vt 0.281005859 0.863769531
vt 0.290283203 0.858398438
vt 0.299072266 0.867675781
vt 0.228149414 0.907226562
vt 0.249511719 0.934082031
vt 0.256835938 0.922363281
vt 0.22253418 0.933105469
vt 0.249755859 0.943847656
vt 0.236206055 0.951660156
vt 0.259033203 0.943847656
vt 0.260009766 0.96875
vt 0.281494141 0.957519531
vt 0.262451172 0.932617188
vt 0.285644531 0.936035156
vt 0.241088867 0.888183594
vt 0.270263672 0.907714844
vt 0.252929688 0.870117188
vt 0.270019531 0.896484375
vt 0.275390625 0.872558594
vt 0.273193359 0.892089844
vt 0.295166016 0.887207031
vt 0.281738281 0.898925781
vt 0.3125 0.913574219
vt 0.290771484 0.907226562
vt 0.308105469 0.935546875
vt 0.299804688 0.928710938
vt 0.303222656 0.906738281
vt 0.302978516 0.890136719
vt 0.281494141 0.892089844
vt 0.291748047 0.90625
vt 0.280517578 0.910644531
vt 0.262451172 0.903808594
vt 0.271972656 0.920410156
vt 0.259033203 0.921386719
vt 0.263183594 0.936523438
vt 0.241210938 0.923339844
vt 0.237304688 0.935546875
vt 0.235473633 0.919921875
vt 0.223022461 0.922363281
vt 0.237060547 0.913574219
vt 0.223144531 0.900878906
vt 0.244262695 0.915039062
vt 0.244262695 0.898925781
vt 0.283203125 0.934570312
vt 0.286376953 0.924804688
vt 0.303710938 0.922851562
vt 0.303710938 0.934570312
vt 0.361572266 0.834472656
vt 0.381835938 0.834472656
vt 0.381835938 0.870117188
vt 0.361572266 0.870117188
vt 0.361572266 0.935546875
vt 0.381835938 0.935546875
vt 0.361572266 0.892089844
vt 0.381835938 0.872070312
vt 0.361572266 0.872070312
vt 0.381835938 0.892089844
vt 0.361572266 0.930175781
vt 0.381835938 0.930175781
vt 0.361572266 0.834472656
vt 0.381835938 0.834472656
vt 0.381835938 0.875488281
vt 0.361572266 0.875488281
vt 0.361572266 0.875488281
vt 0.381835938 0.875488281
vt 0.381835938 0.8515625
vt 0.361572266 0.8515625
vt 0.361572266 0.834472656
vt 0.381835938 0.834472656
vt 0.361572266 0.834472656
vt 0.381835938 0.834472656
vt 0.381835938 0.865722656
vt 0.361572266 0.865722656
vt 0.361572266 0.851074219
vt 0.381835938 0.875
vt 0.361572266 0.875
vt 0.381835938 0.851074219
vt 0.361572266 0.834472656
vt 0.381835938 0.834472656
vt 0.361572266 0.8828125
vt 0.381835938 0.8828125
vt 0.381835938 0.863769531
vt 0.361572266 0.863769531
vt 0.361572266 0.848632812
vt 0.381835938 0.848632812
vt 0.361572266 0.834472656
vt 0.381835938 0.834472656
vt 0.361572266 0.877441406
vt 0.381835938 0.877441406
vt 0.381835938 0.834472656
vt 0.361572266 0.834472656
vt 0.361572266 0.908691406
vt 0.381835938 0.930664062
vt 0.361572266 0.930664062
vt 0.381835938 0.908691406
vt 0.361572266 0.891113281
vt 0.381835938 0.891113281
vt 0.361572266 0.913085938
vt 0.381835938 0.8828125
vt 0.361572266 0.8828125
vt 0.381835938 0.913085938
vt 0.381835938 0.954101562
vt 0.361572266 0.954101562
vt 0.361572266 0.965332031
vt 0.381835938 0.965332031
vt 0.381835938 0.954101562
vt 0.361572266 0.954101562
vt 0.361572266 0.854980469
vt 0.382324219 0.857910156
vt 0.361572266 0.857910156
vt 0.382324219 0.854980469
vt 0.361572266 0.843261719
vt 0.382324219 0.843261719
vt 0.361572266 0.940429688
vt 0.381835938 0.940429688
vt 0.381835938 0.92578125
vt 0.361572266 0.92578125
vt 0.361572266 0.834472656
vt 0.381835938 0.834472656
vt 0.381835938 0.852050781
vt 0.361572266 0.852050781
vt 0.361572266 0.852050781
vt 0.381835938 0.852050781
vt 0.381835938 0.87890625
vt 0.361572266 0.87890625
vt 0.381835938 0.942382812
vt 0.381835938 0.925292969
vt 0.361572266 0.925292969
vt 0.361572266 0.942382812
vt 0.361572266 0.92578125
vt 0.381835938 0.92578125
vt 0.381835938 0.937011719
vt 0.361572266 0.937011719
vt 0.361572266 0.900390625
vt 0.381835938 0.900390625
vt 0.381835938 0.931640625
vt 0.361572266 0.931640625
vt 0.361572266 0.866210938
vt 0.381835938 0.834472656
vt 0.361572266 0.834472656
vt 0.381835938 0.866210938
vt 0.361572266 0.916503906
vt 0.381835938 0.916503906
vt 0.361572266 0.875
vt 0.381835938 0.875
vt 0.381835938 0.834472656
vt 0.361572266 0.834472656
vt 0.361572266 0.867675781
vt 0.381835938 0.867675781
vt 0.381835938 0.900390625
vt 0.361572266 0.900390625
vt 0.361572266 0.926269531
vt 0.381835938 0.926269531
vt 0.381835938 0.939453125
vt 0.361572266 0.939453125
vt 0.361572266 0.834472656
vt 0.381835938 0.834472656
vt 0.381835938 0.867675781
vt 0.361572266 0.867675781
vt 0.361572266 0.931152344
vt 0.381835938 0.931152344
vt 0.381835938 0.916503906
vt 0.361572266 0.916503906
vt 0.361572266 0.926757812
vt 0.381835938 0.926757812
vt 0.381835938 0.945800781
vt 0.361572266 0.945800781
vt 0.361572266 0.834472656
vt 0.381835938 0.834472656
vt 0.381835938 0.864746094
vt 0.361572266 0.864746094
vt 0.361572266 0.953613281
vt 0.381835938 0.953613281
vt 0.381835938 0.933105469
vt 0.361572266 0.933105469
vt 0.361572266 0.953613281
vt 0.381835938 0.953613281
vt 0.381835938 0.939941406
vt 0.361572266 0.939941406
vt 0.361572266 0.852539062
vt 0.382080078 0.852539062
vt 0.382080078 0.842773438
vt 0.361572266 0.842773438
vt 0.381835938 0.939941406
vt 0.361572266 0.939941406
vt 0.361572266 0.953613281
vt 0.381835938 0.953613281
vt 0.361572266 0.86328125
vt 0.381835938 0.86328125
vt 0.381835938 0.834472656
vt 0.361572266 0.834472656
vt 0.361572266 0.834472656
vt 0.381835938 0.834472656
vt 0.381835938 0.866210938
vt 0.361572266 0.866210938
vt 0.361572266 0.953613281
vt 0.381835938 0.953613281
vt 0.381835938 0.943847656
vt 0.361572266 0.943847656
vt 0.361572266 0.834472656
vt 0.381835938 0.834472656
vt 0.381835938 0.868164062
vt 0.361572266 0.868164062
vt 0.361572266 0.876953125
vt 0.381835938 0.876953125
vt 0.381835938 0.834472656
vt 0.361572266 0.834472656
vt 0.361572266 0.834472656
vt 0.381835938 0.834472656
vt 0.381835938 0.875
vt 0.361572266 0.875
vt 0.361572266 0.91015625
vt 0.381835938 0.91015625
vt 0.381835938 0.876464844
vt 0.361572266 0.876464844
vt 0.361572266 0.844238281
vt 0.381835938 0.844238281
vt 0.381835938 0.878417969
vt 0.361572266 0.878417969
vt 0.361572266 0.876464844
vt 0.381835938 0.876464844
vt 0.381835938 0.853027344
vt 0.361572266 0.853027344
vt 0.361572266 0.834472656
vt 0.381835938 0.834472656
vt 0.381835938 0.844238281
vt 0.361572266 0.844238281
vt 0.381835938 0.853027344
vt 0.381835938 0.834472656
vt 0.361572266 0.834472656
vt 0.361572266 0.853027344
vt 0.361572266 0.943847656
vt 0.381835938 0.943847656
vt 0.381835938 0.9375
vt 0.361572266 0.9375
vt 0.361572266 0.856445312
vt 0.381835938 0.856445312
vt 0.381835938 0.899414062
vt 0.361572266 0.899414062
vt 0.361572266 0.947753906
vt 0.381835938 0.947753906
vt 0.361572266 0.834472656
vt 0.381835938 0.834472656
vt 0.381835938 0.865234375
vt 0.361572266 0.865234375
vt 0.361572266 0.895996094
vt 0.381835938 0.865722656
vt 0.361572266 0.865722656
vt 0.381835938 0.895996094
vt 0.361572266 0.9296875
vt 0.381835938 0.9296875
vt 0.361572266 0.834472656
vt 0.381835938 0.834472656
vt 0.381835938 0.8671875
vt 0.361572266 0.8671875
vt 0.361572266 0.934082031
vt 0.381835938 0.934082031
vt 0.381835938 0.909179688
vt 0.361572266 0.909179688
vt 0.361572266 0.878417969
vt 0.381835938 0.878417969
vt 0.361572266 0.912109375
vt 0.381835938 0.930664062
vt 0.361572266 0.930664062
vt 0.381835938 0.912109375
vt 0.361572266 0.888671875
vt 0.381835938 0.888671875
vt 0.361572266 0.866699219
vt 0.381835938 0.866699219
vt 0.361572266 0.849121094
vt 0.381835938 0.849121094
vt 0.381835938 0.834472656
vt 0.361572266 0.834472656
vt 0.361572266 0.834472656
vt 0.381835938 0.834472656
vt 0.381835938 0.856445312
vt 0.361572266 0.856445312
vt 0.361572266 0.834472656
vt 0.381835938 0.834472656
vt 0.381835938 0.845214844
vt 0.361572266 0.845214844
vt 0.361572266 0.904296875
vt 0.381835938 0.904296875
vt 0.381835938 0.879394531
vt 0.361572266 0.879394531
vt 0.361572266 0.860351562
vt 0.381835938 0.860351562
vt 0.381835938 0.866699219
vt 0.361572266 0.866699219
vt 0.361572266 0.8671875
vt 0.381835938 0.8671875
vt 0.381835938 0.834472656
vt 0.361572266 0.834472656
vt 0.361572266 0.931640625
vt 0.381835938 0.931640625
vt 0.381835938 0.923828125
vt 0.361572266 0.923828125
vt 0.361572266 0.92578125
vt 0.381835938 0.92578125
vt 0.381835938 0.907714844
vt 0.361572266 0.907714844
vt 0.381835938 0.931152344
vt 0.361572266 0.931152344
vt 0.361572266 0.942871094
vt 0.381835938 0.942871094
vt 0.361572266 0.834472656
vt 0.381835938 0.834472656
vt 0.381835938 0.850585938
vt 0.361572266 0.850585938
vt 0.361572266 0.954101562
vt 0.381835938 0.954101562
vt 0.381835938 0.942382812
vt 0.361572266 0.942382812
vt 0.361572266 0.850585938
vt 0.381835938 0.850585938
vt 0.381835938 0.886230469
vt 0.361572266 0.886230469
vt 0.361572266 0.857421875
vt 0.381835938 0.857421875
vt 0.381835938 0.834472656
vt 0.361572266 0.834472656
vt 0.361572266 0.886230469
vt 0.381835938 0.886230469
vt 0.381835938 0.918457031
vt 0.361572266 0.918457031
vt 0.361572266 0.877441406
vt 0.381835938 0.877441406
vt 0.381835938 0.857421875
vt 0.361572266 0.857421875
vt 0.361572266 0.918457031
vt 0.381835938 0.918457031
vt 0.381835938 0.939453125
vt 0.361572266 0.939453125
vt 0.381835938 0.942871094
vt 0.361572266 0.942871094
vt 0.361572266 0.954101562
vt 0.381835938 0.954101562
vt 0.361572266 0.907714844
vt 0.381835938 0.907714844
vt 0.381835938 0.872070312
vt 0.361572266 0.872070312
vt 0.381835938 0.856933594
vt 0.361572266 0.856933594
vt 0.361572266 0.876464844
vt 0.381835938 0.876464844
vt 0.361572266 0.872070312
vt 0.381835938 0.872070312
vt 0.381835938 0.834472656
vt 0.361572266 0.834472656
vt 0.381835938 0.834472656
vt 0.361572266 0.834472656
vt 0.361572266 0.856933594
vt 0.381835938 0.856933594
vt 0.361572266 0.86328125
vt 0.381835938 0.86328125
vt 0.381835938 0.834472656
vt 0.361572266 0.834472656
vt 0.361572266 0.942382812
vt 0.381835938 0.942382812
vt 0.381835938 0.930664062
vt 0.361572266 0.930664062
vt 0.361572266 0.954101562
vt 0.381835938 0.954101562
vt 0.381835938 0.940917969
vt 0.361572266 0.940917969
vt 0.361572266 0.876464844
vt 0.381835938 0.876464844
vt 0.381835938 0.834472656
vt 0.361572266 0.834472656
vt 0.381835938 0.834472656
vt 0.381835938 0.858886719
vt 0.361572266 0.858886719
vt 0.361572266 0.834472656
vt 0.361572266 0.886230469
vt 0.381835938 0.886230469
vt 0.381835938 0.914550781
vt 0.361572266 0.914550781
vt 0.361572266 0.934082031
vt 0.381835938 0.934082031
vt 0.381835938 0.943359375
vt 0.361572266 0.943359375
vt 0.381835938 0.940429688
vt 0.381835938 0.953613281
vt 0.361572266 0.953613281
vt 0.361572266 0.940429688
vt 0.361572266 0.953613281
vt 0.381835938 0.953613281
vt 0.381835938 0.945800781
vt 0.361572266 0.945800781
vt 0.361572266 0.901367188
vt 0.381835938 0.901367188
vt 0.381835938 0.931640625
vt 0.361572266 0.931640625
vt 0.361572266 0.945800781
vt 0.381835938 0.945800781
vt 0.381835938 0.938476562
vt 0.361572266 0.938476562
vt 0.381835938 0.880371094
vt 0.381835938 0.901367188
vt 0.361572266 0.901367188
vt 0.361572266 0.880371094
vt 0.361572266 0.953613281
vt 0.381835938 0.953613281
vt 0.381835938 0.942382812
vt 0.361572266 0.942382812
vt 0.361572266 0.864257812
vt 0.381835938 0.864257812
vt 0.381835938 0.834472656
vt 0.361572266 0.834472656
vt 0.361572266 0.942382812
vt 0.381835938 0.942382812
vt 0.381835938 0.931152344
vt 0.361572266 0.931152344
vt 0.361572266 0.901855469
vt 0.381835938 0.901855469
vt 0.381835938 0.864257812
vt 0.361572266 0.864257812
vt 0.381835938 0.94140625
vt 0.361572266 0.94140625
vt 0.361572266 0.953613281
vt 0.381835938 0.953613281
vt 0.361572266 0.834472656
vt 0.381835938 0.834472656
vt 0.381835938 0.877929688
vt 0.361572266 0.877929688
vt 0.361572266 0.856933594
vt 0.382080078 0.856933594
vt 0.382080078 0.841796875
vt 0.361572266 0.841796875
vt 0.381835938 0.873535156
vt 0.381835938 0.931152344
vt 0.361572266 0.931152344
vt 0.361572266 0.873535156
vt 0.381835938 0.87890625
vt 0.361572266 0.87890625
vt 0.361572266 0.931152344
vt 0.381835938 0.931152344
vt 0.381835938 0.877929688
vt 0.361572266 0.877929688
vt 0.361572266 0.907226562
vt 0.381835938 0.907226562
vt 0.361572266 0.931640625
vt 0.381835938 0.931640625
vt 0.381835938 0.907226562
vt 0.361572266 0.907226562
vt 0.361572266 0.943359375
vt 0.381835938 0.943359375
vt 0.381835938 0.953613281
vt 0.361572266 0.953613281
vt 0.361572266 0.858886719
vt 0.381835938 0.858886719
vt 0.381835938 0.886230469
vt 0.361572266 0.886230469
vt 0.361572266 0.876464844
vt 0.381835938 0.876464844
vt 0.381835938 0.891113281
vt 0.361572266 0.891113281
vt 0.361572266 0.954101562
vt 0.361572266 0.954101562
vt 0.381835938 0.954101562
vt 0.381835938 0.954101562
vt 0.381835938 0.965332031
vt 0.381835938 0.965332031
vt 0.361572266 0.965332031
vt 0.361572266 0.965332031
vt 0.361572266 0.954101562
vt 0.361572266 0.954101562
vt 0.381835938 0.954101562
vt 0.381835938 0.954101562
vt 0.381835938 0.965332031
vt 0.381835938 0.965332031
vt 0.361572266 0.965332031
vt 0.361572266 0.965332031
vt 0.361572266 0.954101562
vt 0.361572266 0.954101562
vt 0.381835938 0.954101562
vt 0.381835938 0.954101562
vt 0.381835938 0.965332031
vt 0.381835938 0.965332031
vt 0.361572266 0.965332031
vt 0.361572266 0.965332031
vt 0.361572266 0.954101562
vt 0.361572266 0.954101562
vt 0.381835938 0.954101562
vt 0.381835938 0.954101562
vt 0.381835938 0.965332031
vt 0.381835938 0.965332031
vt 0.361572266 0.965332031
vt 0.361572266 0.965332031
vt 0.361572266 0.834472656
vt 0.361572266 0.842773438
vt 0.382080078 0.842773438
vt 0.382080078 0.834472656
vt 0.382080078 0.860351562
vt 0.382080078 0.852539062
vt 0.361572266 0.852539062
vt 0.361572266 0.860351562
vt 0.381835938 0.878417969
vt 0.381835938 0.849121094
vt 0.361572266 0.849121094
vt 0.361572266 0.878417969
vt 0.361572266 0.845214844
vt 0.381835938 0.845214844
vt 0.381835938 0.860351562
vt 0.361572266 0.860351562
vt 0.381835938 0.923828125
vt 0.381835938 0.904296875
vt 0.361572266 0.904296875
vt 0.361572266 0.923828125
vt 0.254394531 0.921875
vt 0.253662109 0.90234375
vt 0.242797852 0.899902344
vt 0.275634766 0.915527344
vt 0.231445312 0.9140625
vt 0.264160156 0.899414062
vt 0.238769531 0.889648438
vt 0.285400391 0.889648438
vt 0.220947266 0.890136719
vt 0.267333984 0.889648438
vt 0.241699219 0.879882812
vt 0.271484375 0.861816406
vt 0.23059082 0.863769531
vt 0.263183594 0.879882812
vt 0.252441406 0.877441406
vt 0.251708984 0.857421875
vt 0.219970703 0.890625
vt 0.23046875 0.916503906
vt 0.241333008 0.899902344
vt 0.238037109 0.890136719
vt 0.251953125 0.90234375
vt 0.232788086 0.862304688
vt 0.251708984 0.922363281
vt 0.241699219 0.880371094
vt 0.262695312 0.899414062
vt 0.252441406 0.857421875
vt 0.274414062 0.913574219
vt 0.252441406 0.877441406
vt 0.266357422 0.889648438
vt 0.273925781 0.86328125
vt 0.284179688 0.889160156
vt 0.263183594 0.879882812
vn 4.70876694E-06 -1.257658E-05 1
vn 4.70876694E-06 -1.257658E-05 1
vn 1.4603138E-05 -3.23653221E-05 1
vn 1.49011612E-05 -3.29017639E-05 1
vn 2.92658806E-05 -2.93850899E-05 1
vn 2.59876251E-05 -3.94582748E-05 1
vn 2.99215317E-05 -8.94069672E-06 1
vn 2.81333923E-05 -1.0073185E-05 1
vn 7.27176666E-06 -2.61068344E-05 1
vn 2.08616257E-05 7.56978989E-06 1
vn 7.27176666E-06 -2.61068344E-05 1
vn 2.39610672E-05 -1.16825104E-05 1
vn 2.39610672E-05 -1.16825104E-05 1
vn 2.02059746E-05 9.35792923E-06 1
vn 2.02059746E-05 9.35792923E-06 1
vn -7.15255737E-06 1.60336494E-05 1
vn -7.15255737E-06 1.60336494E-05 1
vn 1.63912773E-05 -7.74860382E-07 1
vn 3.20076942E-05 1.41263008E-05 1
vn 2.37226486E-05 8.70227814E-06 1
vn 2.68220901E-05 -8.5234642E-06 1
vn -1.45435333E-05 -5.17964363E-05 1
vn 2.31862068E-05 -1.02519989E-05 1
vn -1.47819519E-05 -5.23924828E-05 1
vn -2.11000443E-05 -6.80685043E-05 1
vn -2.11000443E-05 -6.80685043E-05 1
vn 3.57627869E-06 -1.38878822E-05 1
vn 4.70876694E-06 -1.50799751E-05 1
vn -0 -1.01327896E-05 1
vn -0 -1.01327896E-05 1
vn 7.51018524E-06 9.11951065E-06 1
vn 2.32458115E-06 0 1
vn 2.32458115E-06 0 1
vn 1.090765E-05 1.51395798E-05 1
vn -2.3663044E-05 9.95397568E-06 1
vn -1.81794167E-05 5.30481339E-06 1
vn -1.49011612E-05 -1.47819519E-05 1
vn -3.36170197E-05 -7.03334808E-06 1
vn -4.16040421E-05 1.52587891E-05 1
vn -4.16040421E-05 1.52587891E-05 1
vn -1.14440918E-05 -1.34706497E-05 1
vn -0 0 1
vn -0 0 1
vn 1.94907188E-05 1.88946724E-05 1
vn -3.80277634E-05 5.31673431E-05 1
vn -3.80277634E-05 5.31673431E-05 1
vn 3.53455544E-05 2.68220901E-06 1
vn 2.78949738E-05 1.78813934E-07 1
vn 4.37498093E-05 -1.61528587E-05 1
vn 4.57763672E-05 -1.37090683E-05 1
vn 1.60932541E-05 5.90085983E-06 1
vn 2.49743462E-05 -8.46385956E-06 1
vn -2.18749046E-05 5.44786453E-05 1
vn -1.75237656E-05 5.07831573E-05 1
vn -3.53455544E-05 6.57439232E-05 1
vn -3.53455544E-05 6.57439232E-05 1
vn 2.07424164E-05 1.45435333E-05 1
vn 2.77161598E-05 1.96695328E-05 1
vn 2.77161598E-05 1.96695328E-05 1
vn -7.13467598E-05 3.1888485E-05 1
vn -7.13467598E-05 3.1888485E-05 1
vn -0 0 1
vn -0 0 1
vn -0 0 1
vn -1.56760216E-05 -8.26120377E-05 1
vn -1.56760216E-05 -8.26120377E-05 1
vn -0 0 1
vn -0 0 1
vn -0 0 1
vn -0 0 1
vn -0 0 1
vn 1.70469284E-05 6.61611557E-05 1
vn 1.70469284E-05 6.61611557E-05 1
vn 1.70469284E-05 6.61611557E-05 1
vn 1.70469284E-05 6.61611557E-05 1
vn 2.16960907E-05 1.39474869E-05 1
vn 2.16960907E-05 1.39474869E-05 1
vn -0 0 1
vn -4.91142273E-05 2.21729279E-05 1
vn -4.91142273E-05 2.21729279E-05 1
vn -4.91142273E-05 2.21729279E-05 1
vn -4.91142273E-05 2.21729279E-05 1
vn 5.11407852E-05 1.12652779E-05 1
vn 5.11407852E-05 1.12652779E-05 1
vn 2.8014183E-06 4.64320183E-05 1
vn 2.8014183E-06 4.64320183E-05 1
vn 6.19292259E-05 4.76837158E-07 1
vn 5.81741333E-05 1.57952309E-05 1
vn 6.19292259E-05 4.76837158E-07 1
vn 5.96642494E-05 9.7155571E-06 1
vn 3.20076942E-05 4.23789024E-05 1
vn 4.3451786E-05 3.41534615E-05 1
vn 3.20672989E-05 1.55568123E-05 1
vn 8.04662704E-06 2.70605087E-05 1
vn 2.31266022E-05 -1.06692314E-05 1
vn 2.41994858E-05 4.17232513E-07 1
vn -1.02519989E-05 -2.38418579E-05 1
vn 2.47359276E-05 -4.17232513E-07 1
vn -1.04904175E-05 -2.53915787E-05 1
vn -1.09672546E-05 -2.95042992E-05 1
vn -1.09672546E-05 -2.95042992E-05 1
vn -7.74860382E-07 6.06179237E-05 1
vn 9.53674316E-07 6.27636909E-05 1
vn 4.83393669E-05 2.8014183E-05 1
vn 4.30345535E-05 3.30805779E-05 1
vn 7.9035759E-05 -1.1920929E-06 1
vn 7.9035759E-05 -1.1920929E-06 1
vn -4.70876694E-06 1.67489052E-05 -1
vn -1.63912773E-05 3.74317169E-05 -1
vn -4.70876694E-06 1.67489052E-05 -1
vn -1.67489052E-05 3.80277634E-05 -1
vn -3.05771828E-05 4.41074371E-05 -1
vn -3.51667404E-05 3.272295E-05 -1
vn -2.92062759E-05 8.94069672E-06 -1
vn -2.50935555E-05 1.0073185E-05 -1
vn -1.20401382E-05 7.74860382E-07 -1
vn -7.27176666E-06 2.61068344E-05 -1
vn -7.27176666E-06 2.61068344E-05 -1
vn -1.19805336E-05 1.16825104E-05 -1
vn -1.19805336E-05 1.16825104E-05 -1
vn -2.02059746E-05 -9.35792923E-06 -1
vn -2.02059746E-05 -9.35792923E-06 -1
vn 6.2584877E-06 -1.60336494E-05 -1
vn 6.2584877E-06 -1.60336494E-05 -1
vn -1.60932541E-05 -7.56978989E-06 -1
vn -3.31997871E-05 -1.41263008E-05 -1
vn -2.40206718E-05 -8.70227814E-06 -1
vn -2.84910202E-05 8.5234642E-06 -1
vn -2.45571136E-05 1.02519989E-05 -1
vn -3.21865082E-06 1.50799751E-05 -1
vn -1.43051147E-06 1.38878822E-05 -1
vn 4.29153442E-06 1.01327896E-05 -1
vn 4.29153442E-06 1.01327896E-05 -1
vn 2.33054161E-05 5.17964363E-05 -1
vn 2.37822533E-05 5.23924828E-05 -1
vn 3.55839729E-05 6.80685043E-05 -1
vn 3.55839729E-05 6.80685043E-05 -1
vn -8.76188278E-06 -9.11951065E-06 -1
vn -4.64916229E-06 0 -1
vn -4.64916229E-06 0 -1
vn -1.14440918E-05 -1.51395798E-05 -1
vn 4.69088554E-05 -2.29477882E-05 -1
vn 3.57627869E-07 -1.04904175E-05 -1
vn 1.05500221E-05 1.78813934E-07 -1
vn 5.12599945E-06 0 -1
vn -0 0 -1
vn -0 0 -1
vn 5.12599945E-06 0 -1
vn 7.74860382E-07 0 -1
vn 7.74860382E-07 0 -1
vn -1.13248825E-06 0 -1
vn -8.10623169E-06 0 -1
vn -8.10623169E-06 0 -1
vn 1.54972076E-06 0 -1
vn 2.74181366E-06 0 -1
vn 4.23192978E-06 0 -1
vn 3.93390656E-06 0 -1
vn 2.8014183E-06 0 -1
vn 3.93390656E-06 0 -1
vn -0 0 -1
vn -0 0 -1
vn -0 0 -1
vn -0 0 -1
vn 2.38418579E-07 0 -1
vn -1.01327896E-06 0 -1
vn -1.01327896E-06 0 -1
vn -0 0 -1
vn -0 0 -1
vn -0 0 -1
vn -0 0 -1
vn 4.44054604E-05 -6.62207603E-05 -1
vn 4.44054604E-05 -6.62207603E-05 -1
vn 4.44054604E-05 -6.62207603E-05 -1
vn 4.44054604E-05 -6.62207603E-05 -1
vn 7.39097595E-06 0 -1
vn 7.39097595E-06 0 -1
vn 7.39097595E-06 0 -1
vn 7.39097595E-06 0 -1
vn 4.33325768E-05 -2.29477882E-05 -1
vn -2.16960907E-05 -1.39474869E-05 -1
vn -2.16960907E-05 -1.39474869E-05 -1
vn -2.04443932E-05 -6.61611557E-05 -1
vn -2.04443932E-05 -6.61611557E-05 -1
vn -2.04443932E-05 -6.61611557E-05 -1
vn -2.04443932E-05 -6.61611557E-05 -1
vn -0 0 -1
vn -0 0 -1
vn -1.31130219E-06 0 -1
vn -1.31130219E-06 0 -1
vn 2.86102295E-06 0 -1
vn 2.86102295E-06 0 -1
vn 6.77704811E-05 8.91685486E-05 -1
vn 6.77704811E-05 8.91685486E-05 -1
vn -5.40018082E-05 -4.76837158E-07 -1
vn -5.40018082E-05 -4.76837158E-07 -1
vn -5.78165054E-05 -1.57952309E-05 -1
vn -5.63263893E-05 -9.7155571E-06 -1
vn -4.86969948E-05 -3.41534615E-05 -1
vn -3.8087368E-05 -4.23789024E-05 -1
vn -6.91413879E-06 -3.0875206E-05 -1
vn -4.88758087E-05 -3.57627869E-06 -1
vn -3.49283218E-05 1.95503235E-05 -1
vn -4.7326088E-05 3.06367874E-05 -1
vn -4.80413437E-05 3.11136246E-05 -1
vn -2.88486481E-05 -2.62856483E-05 -1
vn -3.58819962E-05 -3.26037407E-05 -1
vn -6.23464584E-05 -8.58306885E-06 -1
vn -6.13927841E-05 -1.37090683E-05 -1
vn -6.77108765E-05 2.11000443E-05 -1
vn -6.77108765E-05 2.11000443E-05 -1
vn 3.64780426E-05 1.1742115E-05 -1
vn 4.45842743E-05 1.21593475E-05 -1
vn 6.57439232E-05 1.33514404E-05 -1
vn 6.57439232E-05 1.33514404E-05 -1
vn 0.122009277 0.992675781 0
vn 0.122009277 0.992675781 0
vn -0.163818359 0.986328125 0
vn -0.163818359 0.986328125 0
vn -0.294921875 0.955566406 0
vn -0.294921875 0.955566406 0
vn -0.0339050293 -0.999511719 0
vn -0.661132812 -0.75 0
vn -0.661132812 -0.75 0
vn -0.0339050293 -0.999511719 0
vn 0.309570312 -0.950683594 0
vn 0.309570312 -0.950683594 0
vn 0.810058594 -0.586425781 0
vn 0.810058594 -0.586425781 0
vn 0.810058594 -0.586425781 0
vn 0.810058594 -0.586425781 0
vn 0.354248047 -0.935058594 0
vn 0.354248047 -0.935058594 0
vn 0.0431213379 -0.999023438 0
vn 0.0431213379 -0.999023438 0
vn -0.373535156 -0.927734375 0
vn -0.373535156 -0.927734375 0
vn 0.891601562 -0.453125 0
vn 0.891601562 -0.453125 0
vn 0.891601562 -0.453125 0
vn 0.891601562 -0.453125 0
vn -0.111999512 0.993652344 0
vn -0.283447266 0.958984375 0
vn -0.283447266 0.958984375 0
vn -0.111999512 0.993652344 0
vn 0.0538635254 0.998535156 0
vn 0.0538635254 0.998535156 0
vn -0.987304688 -0.158935547 0
vn -0.987304688 -0.158935547 0
vn -0.9921875 0.125610352 0
vn -0.9921875 0.125610352 0
vn -0.778320312 0.627929688 0
vn -0.778320312 0.627929688 0
vn -0.669433594 0.742675781 0
vn -0.669433594 0.742675781 0
vn -0.833496094 -0.552246094 0
vn -0.833496094 -0.552246094 0
vn -0.833496094 -0.552246094 0
vn -0.833496094 -0.552246094 0
vn 0.999511719 0.024017334 0
vn 0.982421875 0.186645508 0
vn 0.982421875 0.186645508 0
vn 0.999511719 0.024017334 0
vn 0.669921875 -0.7421875 0
vn 0.669921875 -0.7421875 0
vn -0.961425781 -0.274658203 0
vn -0.961425781 -0.274658203 0
vn -0.961425781 -0.274658203 0
vn -0.961425781 -0.274658203 0
vn -0.966308594 -0.256591797 0
vn -0.966308594 -0.256591797 0
vn 0.977539062 -0.211181641 0
vn 0.977539062 -0.211181641 0
vn 0.977539062 -0.211181641 0
vn 0.977539062 -0.211181641 0
vn 0.970703125 0.240844727 0
vn 0.970703125 0.240844727 0
vn 0.970703125 0.240844727 0
vn 0.970703125 0.240844727 0
vn 0.970703125 0.240722656 0
vn 0.970703125 0.240722656 0
vn -0.836425781 -0.548339844 0
vn -0.836425781 -0.548339844 0
vn -0.836425781 -0.548339844 0
vn -0.836425781 -0.548339844 0
vn 0.797851562 -0.602539062 0
vn 0.797851562 -0.602539062 0
vn 0.797851562 -0.602539062 0
vn 0.797851562 -0.602539062 0
vn 0.483642578 0.875488281 0
vn 0.483642578 0.875488281 0
vn 0.483642578 0.875488281 0
vn 0.483642578 0.875488281 0
vn -0.21496582 0.9765625 0
vn -0.21496582 0.9765625 0
vn -0.21496582 0.9765625 0
vn -0.21496582 0.9765625 0
vn 0.476318359 -0.879394531 0
vn 0.476318359 -0.879394531 0
vn 0.476318359 -0.879394531 0
vn 0.476318359 -0.879394531 0
vn 0.876953125 -0.480957031 0
vn 0.876953125 -0.480957031 0
vn 0.876953125 -0.480957031 0
vn 0.876953125 -0.480957031 0
vn -0.998046875 -0.0616149902 0
vn -0.998046875 -0.0616149902 0
vn -0.998046875 -0.0616149902 0
vn -0.998046875 -0.0616149902 0
vn -0.998535156 -0.0582275391 0
vn -0.998535156 -0.0582275391 0
vn 0.0152664185 -1 0
vn 0.0152664185 -1 0
vn 0.0152664185 -1 0
vn 0.0152664185 -1 0
vn 1 0.00756454468 0
vn 1 0.00756454468 0
vn 1 0.00756454468 0
vn 1 0.00756454468 0
vn 0.781738281 0.623535156 0
vn 0.781738281 0.623535156 0
vn 0.781738281 0.623535156 0
vn 0.781738281 0.623535156 0
vn -0.547851562 0.836425781 0
vn -0.547851562 0.836425781 0
vn -0.547851562 0.836425781 0
vn -0.547851562 0.836425781 0
vn -0.341796875 -0.939941406 0
vn -0.341796875 -0.939941406 0
vn -0.341796875 -0.939941406 0
vn -0.341796875 -0.939941406 0
vn 0.14855957 -0.988769531 0
vn 0.14855957 -0.988769531 0
vn 0.14855957 -0.988769531 0
vn 0.14855957 -0.988769531 0
vn 0.972167969 -0.233276367 0
vn 0.972167969 -0.233276367 0
vn 0.972167969 -0.233276367 0
vn 0.972167969 -0.233276367 0
vn -0.0513916016 0.998535156 0
vn -0.0513916016 0.998535156 0
vn -0.0513916016 0.998535156 0
vn -0.0513916016 0.998535156 0
vn -0.0214538574 1 0
vn -0.0214538574 1 0
vn -0.0214538574 1 0
vn -0.0214538574 1 0
vn -0.750488281 0.660644531 0
vn -0.750488281 0.660644531 0
vn -0.750488281 0.660644531 0
vn -0.750488281 0.660644531 0
vn -0.163452148 -0.986328125 0
vn -0.163452148 -0.986328125 0
vn -0.163452148 -0.986328125 0
vn -0.163452148 -0.986328125 0
vn 0.354980469 -0.935058594 0
vn 0.354980469 -0.935058594 0
vn 0.354980469 -0.935058594 0
vn 0.354980469 -0.935058594 0
vn 0.97265625 0.231811523 0
vn 0.97265625 0.231811523 0
vn 0.97265625 0.231811523 0
vn 0.97265625 0.231811523 0
vn -0.61328125 0.789550781 0
vn -0.61328125 0.789550781 0
vn -0.61328125 0.789550781 0
vn -0.61328125 0.789550781 0
vn 0.130126953 0.991699219 0
vn 0.130126953 0.991699219 0
vn 0.130126953 0.991699219 0
vn 0.130126953 0.991699219 0
vn -0.993164062 -0.116821289 0
vn -0.993164062 -0.116821289 0
vn -0.993164062 -0.116821289 0
vn -0.993164062 -0.116821289 0
vn 0.971191406 0.238769531 0
vn 0.971191406 0.238769531 0
vn 0.971191406 0.238769531 0
vn 0.971191406 0.238769531 0
vn -0.993652344 0.11340332 0
vn -0.993652344 0.11340332 0
vn -0.993652344 0.11340332 0
vn -0.993652344 0.11340332 0
vn 0.987304688 -0.158569336 0
vn 0.987304688 -0.158569336 0
vn 0.987304688 -0.158569336 0
vn 0.987304688 -0.158569336 0
vn -0.993164062 -0.117492676 0
vn -0.993164062 -0.117492676 0
vn -0.993164062 -0.117492676 0
vn -0.993164062 -0.117492676 0
vn 0.995605469 -0.0949707031 0
vn 0.995605469 -0.0949707031 0
vn 0.995605469 -0.0949707031 0
vn 0.995605469 -0.0949707031 0
vn -0.637207031 -0.770996094 0
vn -0.637207031 -0.770996094 0
vn -0.637207031 -0.770996094 0
vn -0.637207031 -0.770996094 0
vn 0.961425781 0.274414062 0
vn 0.961425781 0.274414062 0
vn 0.961425781 0.274414062 0
vn 0.961425781 0.274414062 0
vn 0.999023438 0.0435180664 0
vn 0.999023438 0.0435180664 0
vn 1 0.00174045563 0
vn 1 0.0017414093 0
vn 0.999023438 -0.0385742188 0
vn 0.999023438 -0.0385742188 0
vn 0.0292510986 0.999511719 0
vn 0.0292510986 0.999511719 0
vn 0.0292510986 0.999511719 0
vn 0.0292510986 0.999511719 0
vn -0.994140625 0.109436035 0
vn -0.9453125 0.326660156 0
vn -0.9453125 0.326660156 0
vn -0.994140625 0.109436035 0
vn -0.996582031 -0.0817260742 0
vn -0.996582031 -0.0817260742 0
vn 0.0243682861 0.999511719 0
vn 0.0243682861 0.999511719 0
vn 0.0243682861 0.999511719 0
vn 0.0243682861 0.999511719 0
vn -0.998535156 -0.0539550781 0
vn -0.998535156 -0.0539550781 0
vn -0.959960938 -0.280029297 0
vn -0.959960938 -0.280029297 0
vn -0.641113281 -0.767089844 0
vn -0.641113281 -0.767089844 0
vn 0.993164062 0.114685059 0
vn 0.997070312 -0.0782470703 0
vn 0.997070312 -0.0782470703 0
vn 0.993164062 0.114685059 0
vn 0.836425781 0.548339844 0
vn 0.836425781 0.548339844 0
vn 0.67578125 0.736816406 0
vn 0.67578125 0.736816406 0
vn -0.998535156 -0.0542907715 2.06828117E-05
vn -0.998535156 -0.0542907715 2.06828117E-05
vn -0.998535156 -0.0542907715 2.06828117E-05
vn -0.998535156 -0.0542907715 2.06828117E-05
vn 0.997558594 -0.0720825195 0
vn 0.997558594 -0.0720825195 0
vn 0.997558594 -0.0720825195 0
vn 0.997558594 -0.0720825195 0
vn -0.842773438 0.538085938 1.74641609E-05
vn -0.842773438 0.538085938 1.74641609E-05
vn -0.842773438 0.538085938 1.74641609E-05
vn -0.842773438 0.538085938 1.74641609E-05
vn 0.711914062 -0.702148438 0
vn 0.711914062 -0.702148438 0
vn 0.711914062 -0.702148438 0
vn 0.711914062 -0.702148438 0
vn 0.895019531 0.445800781 0
vn 0.895019531 0.445800781 0
vn 0.971191406 -0.238769531 0
vn 0.971191406 -0.238769531 0
vn 0.0334472656 0.999511719 0
vn 0.0334472656 0.999511719 0
vn 0.0334472656 0.999511719 0
vn 0.0334472656 0.999511719 0
vn -0.998046875 -0.05859375 0
vn -0.998046875 -0.05859375 0
vn -0.701171875 -0.712890625 0
vn -0.701171875 -0.712890625 0
vn -0.430664062 0.90234375 0
vn -0.430664062 0.90234375 0
vn -0.430664062 0.90234375 0
vn -0.430664062 0.90234375 0
vn 0.364501953 -0.931152344 0
vn 0.364501953 -0.931152344 0
vn 0.364501953 -0.931152344 0
vn 0.364501953 -0.931152344 0
vn 0.419677734 -0.907714844 0
vn 0.419677734 -0.907714844 0
vn 0.419677734 -0.907714844 0
vn 0.419677734 -0.907714844 0
vn -0.363037109 0.931640625 0
vn -0.363037109 0.931640625 0
vn -0.363037109 0.931640625 0
vn -0.363037109 0.931640625 0
vn 0.978027344 -0.207397461 0
vn 0.978027344 -0.207397461 0
vn 0.978027344 -0.207397461 0
vn 0.978027344 -0.207397461 0
vn -0.987792969 0.154541016 0
vn -0.987792969 0.154541016 0
vn -0.987792969 0.154541016 0
vn -0.987792969 0.154541016 0
vn 0.958496094 0.284912109 0
vn 0.958496094 0.284912109 0
vn 0.958496094 0.284912109 0
vn 0.958496094 0.284912109 0
vn -0.947265625 -0.3203125 0
vn -0.947265625 -0.3203125 0
vn -0.947265625 -0.3203125 0
vn -0.947265625 -0.3203125 0
vn 0.364501953 0.931152344 0
vn 0.364501953 0.931152344 0
vn 0.364501953 0.931152344 0
vn 0.364501953 0.931152344 0
vn -0.299316406 -0.954101562 0
vn -0.299316406 -0.954101562 0
vn -0.299316406 -0.954101562 0
vn -0.299316406 -0.954101562 0
vn -0.977050781 0.211914062 0
vn -0.977050781 0.211914062 0
vn -0.977050781 0.211914062 0
vn -0.977050781 0.211914062 0
vn 0.985351562 -0.170898438 0
vn 0.985351562 -0.170898438 0
vn 0.985351562 -0.170898438 0
vn 0.985351562 -0.170898438 0
vn -0.916992188 -0.398681641 0
vn -0.916992188 -0.398681641 0
vn -0.916992188 -0.398681641 0
vn -0.916992188 -0.398681641 0
vn 0.948242188 0.318115234 0
vn 0.948242188 0.318115234 0
vn 0.948242188 0.318115234 0
vn 0.948242188 0.318115234 0
vn -0.322753906 -0.946289062 0
vn -0.322753906 -0.946289062 0
vn -0.322753906 -0.946289062 0
vn -0.322753906 -0.946289062 0
vn 0.294433594 0.955566406 0
vn 0.294433594 0.955566406 0
vn 0.294433594 0.955566406 0
vn 0.294433594 0.955566406 0
vn -0.963378906 -0.267578125 0
vn -0.963378906 -0.267578125 0
vn -0.963378906 -0.267578125 0
vn -0.963378906 -0.267578125 0
vn 0.348876953 -0.937011719 0
vn 0.348876953 -0.937011719 0
vn 0.348876953 -0.937011719 0
vn 0.348876953 -0.937011719 0
vn 0.803222656 0.596191406 0
vn 0.803222656 0.596191406 0
vn 0.803222656 0.596191406 0
vn 0.803222656 0.596191406 0
vn -0.220947266 0.975097656 0
vn -0.220947266 0.975097656 0
vn -0.220947266 0.975097656 0
vn -0.220947266 0.975097656 0
vn 0.755859375 -0.654785156 0
vn 0.755859375 -0.654785156 0
vn 0.755859375 -0.654785156 0
vn 0.755859375 -0.654785156 0
vn 0.850097656 0.526367188 0
vn 0.850097656 0.526367188 0
vn 0.850097656 0.526367188 0
vn 0.850097656 0.526367188 0
vn -0.637695312 -0.770019531 0
vn -0.637695312 -0.770019531 0
vn -0.637695312 -0.770019531 0
vn -0.637695312 -0.770019531 0
vn 0.965332031 0.260253906 0
vn 0.965332031 0.260253906 0
vn 0.965332031 0.260253906 0
vn 0.965332031 0.260253906 0
vn -0.967285156 -0.254394531 0
vn -0.967285156 -0.254394531 0
vn -0.967285156 -0.254394531 0
vn -0.967285156 -0.254394531 0
vn 0.679199219 -0.733886719 0
vn 0.679199219 -0.733886719 0
vn 0.679199219 -0.733886719 0
vn 0.679199219 -0.733886719 0
vn -0.151977539 0.98828125 0
vn -0.151977539 0.98828125 0
vn -0.151977539 0.98828125 0
vn -0.151977539 0.98828125 0
vn 0.216430664 -0.976074219 0
vn 0.216430664 -0.976074219 0
vn 0.216430664 -0.976074219 0
vn 0.216430664 -0.976074219 0
vn -0.0920410156 0.995605469 0
vn -0.0920410156 0.995605469 0
vn -0.0920410156 0.995605469 0
vn -0.0920410156 0.995605469 0
vn -0.150024414 -0.988769531 0
vn -0.150024414 -0.988769531 0
vn -0.150024414 -0.988769531 0
vn -0.150024414 -0.988769531 0
vn 0.315429688 0.948730469 0
vn 0.315429688 0.948730469 0
vn 0.315429688 0.948730469 0
vn 0.315429688 0.948730469 0
vn -0.152709961 0.98828125 4.88758087E-06
vn -0.152709961 0.98828125 4.88758087E-06
vn -0.152709961 0.98828125 4.88758087E-06
vn -0.152709961 0.98828125 4.88758087E-06
vn -0.800292969 -0.599609375 3.30805779E-05
vn -0.800292969 -0.599609375 3.30805779E-05
vn -0.800292969 -0.599609375 3.30805779E-05
vn -0.800292969 -0.599609375 3.30805779E-05
vn 0.270996094 0.962402344 0
vn 0.270996094 0.962402344 0
vn 0.270996094 0.962402344 0
vn 0.270996094 0.962402344 0
vn -0.225463867 -0.974121094 0
vn -0.225463867 -0.974121094 0
vn -0.225463867 -0.974121094 0
vn -0.225463867 -0.974121094 0
vn -0.794433594 -0.607421875 0
vn -0.794433594 -0.607421875 0
vn -0.794433594 -0.607421875 0
vn -0.794433594 -0.607421875 0
vn -0.972167969 0.233886719 0
vn -0.972167969 0.233886719 0
vn -0.972167969 0.233886719 0
vn -0.972167969 0.233886719 0
vn -0.636230469 -0.771484375 0
vn -0.636230469 -0.771484375 0
vn -0.636230469 -0.771484375 0
vn -0.636230469 -0.771484375 0
vn 0.0834350586 0.996582031 0
vn 0.0834350586 0.996582031 0
vn 0.0834350586 0.996582031 0
vn 0.0834350586 0.996582031 0
vn 0.266845703 -0.963867188 0
vn 0.266845703 -0.963867188 0
vn 0.669921875 -0.7421875 0
vn 0.669921875 -0.7421875 0
vn 0.187133789 -0.982421875 0
vn 0.187133789 -0.982421875 0
vn 0.187133789 -0.982421875 0
vn 0.187133789 -0.982421875 0
vn -0.242553711 0.970214844 0
vn -0.242553711 0.970214844 0
vn -0.242553711 0.970214844 0
vn -0.242553711 0.970214844 0
vn 0.819824219 -0.572753906 0
vn 0.819824219 -0.572753906 0
vn 0.819824219 -0.572753906 0
vn 0.819824219 -0.572753906 0
vn -0.787597656 0.616210938 0
vn -0.787597656 0.616210938 0
vn -0.787597656 0.616210938 0
vn -0.787597656 0.616210938 0
vn 0.829589844 0.55859375 0
vn 0.829589844 0.55859375 0
vn 0.829589844 0.55859375 0
vn 0.829589844 0.55859375 0
vn -0.833007812 -0.553222656 0
vn -0.833007812 -0.553222656 0
vn -0.833007812 -0.553222656 0
vn -0.833007812 -0.553222656 0
vn -0.40625 0.913574219 0
vn -0.40625 0.913574219 0
vn -0.40625 0.913574219 0
vn -0.40625 0.913574219 0
vn -0.120605469 -0.992675781 0
vn -0.120605469 -0.992675781 0
vn -0.120605469 -0.992675781 0
vn -0.120605469 -0.992675781 0
vn -0.810546875 -0.585449219 0
vn -0.810546875 -0.585449219 0
vn -0.810546875 -0.585449219 0
vn -0.810546875 -0.585449219 0
vn 0.902832031 0.430175781 0
vn 0.902832031 0.430175781 0
vn 0.902832031 0.430175781 0
vn 0.902832031 0.430175781 0
vn -0.641113281 -0.767089844 0
vn -0.233520508 -0.972167969 0
vn -0.233520508 -0.972167969 0
vn -0.641113281 -0.767089844 0
vn 0.293457031 0.956054688 0
vn 0.293457031 0.956054688 0
vn 0.895019531 0.445800781 0
vn 0.895019531 0.445800781 0
vn -0.701171875 -0.712890625 0
vn -0.0460510254 -0.999023438 0
vn -0.0460510254 -0.999023438 0
vn -0.701171875 -0.712890625 0
vn 1.21593475E-05 7.05718994E-05 1
vn 1.21593475E-05 7.05718994E-05 1
vn 3.01599503E-05 -6.23464584E-05 1
vn -4.14252281E-05 1.54972076E-05 1
vn 3.01599503E-05 -6.23464584E-05 1
vn -4.14252281E-05 1.54972076E-05 1
vn 6.02006912E-06 0 1
vn -4.14252281E-05 1.54972076E-05 1
vn 6.02006912E-06 0 1
vn -4.14252281E-05 1.54972076E-05 1
vn 6.02006912E-06 0 1
vn 1.50203705E-05 4.58359718E-05 1
vn 6.02006912E-06 0 1
vn 1.50203705E-05 4.58359718E-05 1
vn 2.99811363E-05 -4.10079956E-05 1
vn 2.99811363E-05 -4.10079956E-05 1
vn -1.18613243E-05 -5.03063202E-05 -1
vn -1.18613243E-05 -5.03063202E-05 -1
vn -1.18613243E-05 -5.03063202E-05 -1
vn -1.18613243E-05 -5.03063202E-05 -1
vn -2.42590904E-05 -7.05718994E-05 -1
vn -0 0 -1
vn -2.42590904E-05 -7.05718994E-05 -1
vn -0 0 -1
vn -1.1742115E-05 6.23464584E-05 -1
vn -3.59416008E-05 -2.89082527E-05 -1
vn -1.1742115E-05 6.23464584E-05 -1
vn -3.59416008E-05 -2.89082527E-05 -1
vn -0 0 -1
vn -0 0 -1
vn -0 0 -1
vn -0 0 -1
g IS4_MDL_EscenarioPB_LetreroRecepcion_Frosty_1_0
f 3/3/3 2/2/2 1/1/1
f 4/4/4 3/3/3 1/1/1
f 4/4/4 5/5/5 3/3/3
f 5/5/5 6/6/6 3/3/3
f 5/5/5 7/7/7 6/6/6
f 7/7/7 8/8/8 6/6/6
f 5/5/5 9/9/9 7/7/7
f 7/7/7 10/10/10 8/8/8
f 9/9/9 11/11/11 7/7/7
f 9/9/9 12/12/12 11/11/11
f 12/12/12 13/13/13 11/11/11
f 12/12/12 14/14/14 13/13/13
f 14/14/14 15/15/15 13/13/13
f 14/14/14 16/16/16 15/15/15
f 16/16/16 17/17/17 15/15/15
f 10/10/10 18/18/18 8/8/8
f 10/10/10 19/19/19 18/18/18
f 19/19/19 20/20/20 18/18/18
f 19/19/19 21/21/21 20/20/20
f 20/20/20 22/22/22 18/18/18
f 21/21/21 23/23/23 20/20/20
f 22/22/22 24/24/24 18/18/18
f 22/22/22 25/25/25 24/24/24
f 25/25/25 26/26/26 24/24/24
f 21/21/21 27/27/27 23/23/23
f 27/27/27 28/28/28 23/23/23
f 27/27/27 29/29/29 28/28/28
f 29/29/29 30/30/30 28/28/28
f 33/33/33 32/32/32 31/31/31
f 34/34/34 33/33/33 31/31/31
f 34/34/34 31/31/31 35/35/35
f 31/31/31 36/36/36 35/35/35
f 36/36/36 37/37/37 35/35/35
f 36/36/36 38/38/38 37/37/37
f 36/36/36 39/39/39 38/38/38
f 39/39/39 40/40/40 38/38/38
f 38/38/38 41/41/41 37/37/37
f 41/41/41 42/42/42 37/37/37
f 42/42/42 43/43/43 37/37/37
f 46/46/46 45/45/45 44/44/44
f 47/47/47 46/46/46 44/44/44
f 48/48/48 47/47/47 44/44/44
f 48/48/48 49/49/49 47/47/47
f 49/49/49 50/50/50 47/47/47
f 49/49/49 51/51/51 50/50/50
f 51/51/51 52/52/52 50/50/50
f 53/53/53 52/52/52 51/51/51
f 54/54/54 53/53/53 51/51/51
f 54/54/54 55/55/55 53/53/53
f 55/55/55 56/56/56 53/53/53
f 57/57/57 48/48/48 44/44/44
f 57/57/57 44/44/44 58/58/58
f 59/59/59 57/57/57 58/58/58
f 57/57/57 60/60/60 48/48/48
f 60/60/60 61/61/61 48/48/48
f 60/60/60 62/62/62 61/61/61
f 62/62/62 63/63/63 61/61/61
f 66/66/66 65/65/65 64/64/64
f 65/65/65 67/67/67 64/64/64
f 64/64/64 67/67/67 68/68/68
f 67/67/67 69/69/69 68/68/68
f 68/68/68 69/69/69 70/70/70
f 69/69/69 71/71/71 70/70/70
f 72/72/72 70/70/70 71/71/71
f 73/73/73 72/72/72 71/71/71
f 72/72/72 73/73/73 74/74/74
f 73/73/73 75/75/75 74/74/74
f 76/76/76 74/74/74 75/75/75
f 77/77/77 76/76/76 75/75/75
f 78/78/78 76/76/76 77/77/77
f 79/79/79 78/78/78 77/77/77
f 78/78/78 79/79/79 80/80/80
f 80/80/80 79/79/79 81/81/81
f 79/79/79 82/82/82 81/81/81
f 83/83/83 81/81/81 82/82/82
f 84/84/84 83/83/83 82/82/82
f 83/83/83 84/84/84 85/85/85
f 84/84/84 86/86/86 85/85/85
f 89/89/89 88/88/88 87/87/87
f 88/88/88 90/90/90 87/87/87
f 88/88/88 91/91/91 90/90/90
f 91/91/91 92/92/92 90/90/90
f 91/91/91 93/93/93 92/92/92
f 93/93/93 94/94/94 92/92/92
f 93/93/93 95/95/95 94/94/94
f 93/93/93 96/96/96 95/95/95
f 95/95/95 97/97/97 94/94/94
f 96/96/96 98/98/98 95/95/95
f 97/97/97 99/99/99 94/94/94
f 97/97/97 100/100/100 99/99/99
f 100/100/100 101/101/101 99/99/99
f 96/96/96 102/102/102 98/98/98
f 102/102/102 103/103/103 98/98/98
f 102/102/102 104/104/104 103/103/103
f 104/104/104 105/105/105 103/103/103
f 104/104/104 106/106/106 105/105/105
f 106/106/106 107/107/107 105/105/105
f 110/110/110 109/109/109 108/108/108
f 109/109/109 111/111/111 108/108/108
f 109/109/109 112/112/112 111/111/111
f 112/112/112 113/113/113 111/111/111
f 114/114/114 113/113/113 112/112/112
f 115/115/115 114/114/114 112/112/112
f 115/115/115 116/116/116 114/114/114
f 114/114/114 117/117/117 113/113/113
f 117/117/117 118/118/118 113/113/113
f 117/117/117 119/119/119 118/118/118
f 119/119/119 120/120/120 118/118/118
f 119/119/119 121/121/121 120/120/120
f 121/121/121 122/122/122 120/120/120
f 121/121/121 123/123/123 122/122/122
f 123/123/123 124/124/124 122/122/122
f 116/116/116 125/125/125 114/114/114
f 126/126/126 125/125/125 116/116/116
f 127/127/127 126/126/126 116/116/116
f 128/128/128 126/126/126 127/127/127
f 129/129/129 128/128/128 127/127/127
f 129/129/129 130/130/130 128/128/128
f 130/130/130 131/131/131 128/128/128
f 130/130/130 132/132/132 131/131/131
f 132/132/132 133/133/133 131/131/131
f 134/134/134 127/127/127 116/116/116
f 135/135/135 134/134/134 116/116/116
f 135/135/135 136/136/136 134/134/134
f 136/136/136 137/137/137 134/134/134
f 140/140/140 139/139/139 138/138/138
f 139/139/139 141/141/141 138/138/138
f 138/138/138 141/141/141 142/142/142
f 143/143/143 138/138/138 142/142/142
f 144/144/144 143/143/143 142/142/142
f 145/145/145 143/143/143 144/144/144
f 146/146/146 143/143/143 145/145/145
f 147/147/147 146/146/146 145/145/145
f 148/148/148 145/145/145 144/144/144
f 149/149/149 148/148/148 144/144/144
f 150/150/150 149/149/149 144/144/144
f 153/153/153 152/152/152 151/151/151
f 152/152/152 154/154/154 151/151/151
f 154/154/154 155/155/155 151/151/151
f 156/156/156 155/155/155 154/154/154
f 157/157/157 156/156/156 154/154/154
f 158/158/158 156/156/156 157/157/157
f 159/159/159 158/158/158 157/157/157
f 159/159/159 160/160/160 158/158/158
f 160/160/160 161/161/161 158/158/158
f 162/162/162 161/161/161 160/160/160
f 163/163/163 162/162/162 160/160/160
f 155/155/155 164/164/164 151/151/151
f 151/151/151 164/164/164 165/165/165
f 164/164/164 166/166/166 165/165/165
f 167/167/167 164/164/164 155/155/155
f 168/168/168 167/167/167 155/155/155
f 168/168/168 169/169/169 167/167/167
f 169/169/169 170/170/170 167/167/167
f 173/173/173 172/172/172 171/171/171
f 172/172/172 174/174/174 171/171/171
f 174/174/174 172/172/172 175/175/175
f 176/176/176 174/174/174 175/175/175
f 175/175/175 177/177/177 176/176/176
f 177/177/177 178/178/178 176/176/176
f 177/177/177 179/179/179 178/178/178
f 179/179/179 177/177/177 180/180/180
f 181/181/181 179/179/179 180/180/180
f 181/181/181 180/180/180 182/182/182
f 183/183/183 181/181/181 182/182/182
f 182/182/182 184/184/184 183/183/183
f 184/184/184 185/185/185 183/183/183
f 185/185/185 184/184/184 186/186/186
f 187/187/187 185/185/185 186/186/186
f 186/186/186 188/188/188 187/187/187
f 188/188/188 189/189/189 187/187/187
f 188/188/188 190/190/190 189/189/189
f 190/190/190 191/191/191 189/189/189
f 190/190/190 192/192/192 191/191/191
f 192/192/192 193/193/193 191/191/191
f 196/196/196 195/195/195 194/194/194
f 197/197/197 196/196/196 194/194/194
f 197/197/197 198/198/198 196/196/196
f 198/198/198 199/199/199 196/196/196
f 198/198/198 200/200/200 199/199/199
f 200/200/200 201/201/201 199/199/199
f 202/202/202 201/201/201 200/200/200
f 203/203/203 201/201/201 202/202/202
f 204/204/204 203/203/203 202/202/202
f 205/205/205 203/203/203 204/204/204
f 206/206/206 205/205/205 204/204/204
f 207/207/207 205/205/205 206/206/206
f 208/208/208 207/207/207 206/206/206
f 209/209/209 207/207/207 208/208/208
f 210/210/210 209/209/209 208/208/208
f 211/211/211 202/202/202 200/200/200
f 212/212/212 211/211/211 200/200/200
f 212/212/212 213/213/213 211/211/211
f 213/213/213 214/214/214 211/211/211
f 217/217/217 216/216/216 215/215/215
f 218/218/218 217/217/217 215/215/215
f 218/218/218 219/219/219 217/217/217
f 219/219/219 220/220/220 217/217/217
f 223/223/223 222/222/222 221/221/221
f 222/222/222 224/224/224 221/221/221
f 221/221/221 224/224/224 225/225/225
f 224/224/224 226/226/226 225/225/225
f 229/229/229 228/228/228 227/227/227
f 230/230/230 229/229/229 227/227/227
f 233/233/233 232/232/232 231/231/231
f 234/234/234 233/233/233 231/231/231
f 234/234/234 235/235/235 233/233/233
f 235/235/235 236/236/236 233/233/233
f 239/239/239 238/238/238 237/237/237
f 240/240/240 239/239/239 237/237/237
f 243/243/243 242/242/242 241/241/241
f 242/242/242 244/244/244 241/241/241
f 241/241/241 244/244/244 245/245/245
f 244/244/244 246/246/246 245/245/245
f 249/249/249 248/248/248 247/247/247
f 250/250/250 249/249/249 247/247/247
f 250/250/250 251/251/251 249/249/249
f 251/251/251 252/252/252 249/249/249
f 251/251/251 253/253/253 252/252/252
f 253/253/253 254/254/254 252/252/252
f 257/257/257 256/256/256 255/255/255
f 258/258/258 257/257/257 255/255/255
f 261/261/261 260/260/260 259/259/259
f 260/260/260 262/262/262 259/259/259
f 259/259/259 262/262/262 263/263/263
f 262/262/262 264/264/264 263/263/263
f 267/267/267 266/266/266 265/265/265
f 266/266/266 268/268/268 265/265/265
f 265/265/265 268/268/268 269/269/269
f 270/270/270 265/265/265 269/269/269
f 273/273/273 272/272/272 271/271/271
f 274/274/274 273/273/273 271/271/271
f 277/277/277 276/276/276 275/275/275
f 276/276/276 278/278/278 275/275/275
f 275/275/275 278/278/278 279/279/279
f 278/278/278 280/280/280 279/279/279
f 283/283/283 282/282/282 281/281/281
f 284/284/284 283/283/283 281/281/281
f 287/287/287 286/286/286 285/285/285
f 288/288/288 287/287/287 285/285/285
f 291/291/291 290/290/290 289/289/289
f 292/292/292 291/291/291 289/289/289
f 295/295/295 294/294/294 293/293/293
f 296/296/296 295/295/295 293/293/293
f 299/299/299 298/298/298 297/297/297
f 300/300/300 299/299/299 297/297/297
f 303/303/303 302/302/302 301/301/301
f 304/304/304 303/303/303 301/301/301
f 307/307/307 306/306/306 305/305/305
f 306/306/306 308/308/308 305/305/305
f 305/305/305 308/308/308 309/309/309
f 308/308/308 310/310/310 309/309/309
f 313/313/313 312/312/312 311/311/311
f 314/314/314 313/313/313 311/311/311
f 317/317/317 316/316/316 315/315/315
f 318/318/318 317/317/317 315/315/315
f 321/321/321 320/320/320 319/319/319
f 322/322/322 321/321/321 319/319/319
f 325/325/325 324/324/324 323/323/323
f 326/326/326 325/325/325 323/323/323
f 329/329/329 328/328/328 327/327/327
f 330/330/330 329/329/329 327/327/327
f 333/333/333 332/332/332 331/331/331
f 334/334/334 333/333/333 331/331/331
f 337/337/337 336/336/336 335/335/335
f 338/338/338 337/337/337 335/335/335
f 341/341/341 340/340/340 339/339/339
f 342/342/342 341/341/341 339/339/339
f 345/345/345 344/344/344 343/343/343
f 346/346/346 345/345/345 343/343/343
f 349/349/349 348/348/348 347/347/347
f 350/350/350 349/349/349 347/347/347
f 353/353/353 352/352/352 351/351/351
f 354/354/354 353/353/353 351/351/351
f 357/357/357 356/356/356 355/355/355
f 358/358/358 357/357/357 355/355/355
f 361/361/361 360/360/360 359/359/359
f 362/362/362 361/361/361 359/359/359
f 365/365/365 364/364/364 363/363/363
f 366/366/366 365/365/365 363/363/363
f 369/369/369 368/368/368 367/367/367
f 370/370/370 369/369/369 367/367/367
f 373/373/373 372/372/372 371/371/371
f 374/374/374 373/373/373 371/371/371
f 377/377/377 376/376/376 375/375/375
f 378/378/378 377/377/377 375/375/375
f 381/381/381 380/380/380 379/379/379
f 382/382/382 381/381/381 379/379/379
f 385/385/385 384/384/384 383/383/383
f 386/386/386 385/385/385 383/383/383
f 389/389/389 388/388/388 387/387/387
f 390/390/390 389/389/389 387/387/387
f 393/393/393 392/392/392 391/391/391
f 394/394/394 393/393/393 391/391/391
f 397/397/397 396/396/396 395/395/395
f 398/398/398 397/397/397 395/395/395
f 401/401/401 400/400/400 399/399/399
f 402/402/402 401/401/401 399/399/399
f 405/405/405 404/404/404 403/403/403
f 406/406/406 405/405/405 403/403/403
f 406/406/406 407/407/407 405/405/405
f 407/407/407 408/408/408 405/405/405
f 411/411/411 410/410/410 409/409/409
f 412/412/412 411/411/411 409/409/409
f 415/415/415 414/414/414 413/413/413
f 414/414/414 416/416/416 413/413/413
f 413/413/413 416/416/416 417/417/417
f 416/416/416 418/418/418 417/417/417
f 421/421/421 420/420/420 419/419/419
f 422/422/422 421/421/421 419/419/419
f 425/425/425 424/424/424 423/423/423
f 426/426/426 425/425/425 423/423/423
f 426/426/426 427/427/427 425/425/425
f 427/427/427 428/428/428 425/425/425
f 431/431/431 430/430/430 429/429/429
f 430/430/430 432/432/432 429/429/429
f 429/429/429 432/432/432 433/433/433
f 432/432/432 434/434/434 433/433/433
f 433/433/433 434/434/434 435/435/435
f 434/434/434 436/436/436 435/435/435
f 439/439/439 438/438/438 437/437/437
f 440/440/440 439/439/439 437/437/437
f 443/443/443 442/442/442 441/441/441
f 444/444/444 443/443/443 441/441/441
f 447/447/447 446/446/446 445/445/445
f 448/448/448 447/447/447 445/445/445
f 451/451/451 450/450/450 449/449/449
f 452/452/452 451/451/451 449/449/449
f 455/455/455 454/454/454 453/453/453
f 456/456/456 455/455/455 453/453/453
f 459/459/459 458/458/458 457/457/457
f 460/460/460 459/459/459 457/457/457
f 463/463/463 462/462/462 461/461/461
f 464/464/464 463/463/463 461/461/461
f 467/467/467 466/466/466 465/465/465
f 468/468/468 467/467/467 465/465/465
f 471/471/471 470/470/470 469/469/469
f 472/472/472 471/471/471 469/469/469
f 475/475/475 474/474/474 473/473/473
f 476/476/476 475/475/475 473/473/473
f 479/479/479 478/478/478 477/477/477
f 480/480/480 479/479/479 477/477/477
f 483/483/483 482/482/482 481/481/481
f 484/484/484 483/483/483 481/481/481
f 487/487/487 486/486/486 485/485/485
f 488/488/488 487/487/487 485/485/485
f 491/491/491 490/490/490 489/489/489
f 492/492/492 491/491/491 489/489/489
f 495/495/495 494/494/494 493/493/493
f 496/496/496 495/495/495 493/493/493
f 499/499/499 498/498/498 497/497/497
f 500/500/500 499/499/499 497/497/497
f 503/503/503 502/502/502 501/501/501
f 504/504/504 503/503/503 501/501/501
f 507/507/507 506/506/506 505/505/505
f 508/508/508 507/507/507 505/505/505
f 511/511/511 510/510/510 509/509/509
f 512/512/512 511/511/511 509/509/509
f 515/515/515 514/514/514 513/513/513
f 516/516/516 515/515/515 513/513/513
f 519/519/519 518/518/518 517/517/517
f 520/520/520 519/519/519 517/517/517
f 523/523/523 522/522/522 521/521/521
f 524/524/524 523/523/523 521/521/521
f 527/527/527 526/526/526 525/525/525
f 528/528/528 527/527/527 525/525/525
f 531/531/531 530/530/530 529/529/529
f 532/532/532 531/531/531 529/529/529
f 535/535/535 534/534/534 533/533/533
f 536/536/536 535/535/535 533/533/533
f 539/539/539 538/538/538 537/537/537
f 540/540/540 539/539/539 537/537/537
f 543/543/543 542/542/542 541/541/541
f 544/544/544 543/543/543 541/541/541
f 547/547/547 546/546/546 545/545/545
f 548/548/548 547/547/547 545/545/545
f 551/551/551 550/550/550 549/549/549
f 552/552/552 551/551/551 549/549/549
f 555/555/555 554/554/554 553/553/553
f 556/556/556 555/555/555 553/553/553
f 559/559/559 558/558/558 557/557/557
f 560/560/560 559/559/559 557/557/557
f 563/563/563 562/562/562 561/561/561
f 564/564/564 563/563/563 561/561/561
f 567/567/567 566/566/566 565/565/565
f 568/568/568 567/567/567 565/565/565
f 571/571/571 570/570/570 569/569/569
f 572/572/572 571/571/571 569/569/569
f 575/575/575 574/574/574 573/573/573
f 576/576/576 575/575/575 573/573/573
f 579/579/579 578/578/578 577/577/577
f 580/580/580 579/579/579 577/577/577
f 583/583/583 582/582/582 581/581/581
f 584/584/584 583/583/583 581/581/581
f 587/587/587 586/586/586 585/585/585
f 588/588/588 587/587/587 585/585/585
f 591/591/591 590/590/590 589/589/589
f 592/592/592 591/591/591 589/589/589
f 595/595/595 594/594/594 593/593/593
f 596/596/596 595/595/595 593/593/593
f 599/599/599 598/598/598 597/597/597
f 600/600/600 599/599/599 597/597/597
f 603/603/603 602/602/602 601/601/601
f 604/604/604 603/603/603 601/601/601
f 607/607/607 606/606/606 605/605/605
f 608/608/608 607/607/607 605/605/605
f 611/611/611 610/610/610 609/609/609
f 612/612/612 611/611/611 609/609/609
f 615/615/615 614/614/614 613/613/613
f 616/616/616 615/615/615 613/613/613
f 619/619/619 618/618/618 617/617/617
f 620/620/620 619/619/619 617/617/617
f 623/623/623 622/622/622 621/621/621
f 624/624/624 623/623/623 621/621/621
f 627/627/627 626/626/626 625/625/625
f 628/628/628 627/627/627 625/625/625
f 631/631/631 630/630/630 629/629/629
f 632/632/632 631/631/631 629/629/629
f 635/635/635 634/634/634 633/633/633
f 636/636/636 635/635/635 633/633/633
f 639/639/639 638/638/638 637/637/637
f 640/640/640 639/639/639 637/637/637
f 643/643/643 642/642/642 641/641/641
f 644/644/644 643/643/643 641/641/641
f 647/647/647 646/646/646 645/645/645
f 648/648/648 647/647/647 645/645/645
f 651/651/651 650/650/650 649/649/649
f 652/652/652 651/651/651 649/649/649
f 655/655/655 654/654/654 653/653/653
f 656/656/656 655/655/655 653/653/653
f 659/659/659 658/658/658 657/657/657
f 660/660/660 659/659/659 657/657/657
f 663/663/663 662/662/662 661/661/661
f 664/664/664 663/663/663 661/661/661
f 667/667/667 666/666/666 665/665/665
f 668/668/668 667/667/667 665/665/665
f 671/671/671 670/670/670 669/669/669
f 672/672/672 671/671/671 669/669/669
f 675/675/675 674/674/674 673/673/673
f 676/676/676 675/675/675 673/673/673
f 679/679/679 678/678/678 677/677/677
f 677/677/677 678/678/678 680/680/680
f 681/681/681 679/679/679 677/677/677
f 678/678/678 682/682/682 680/680/680
f 683/683/683 679/679/679 681/681/681
f 680/680/680 682/682/682 684/684/684
f 685/685/685 683/683/683 681/681/681
f 682/682/682 686/686/686 684/684/684
f 687/687/687 683/683/683 685/685/685
f 684/684/684 686/686/686 688/688/688
f 689/689/689 687/687/687 685/685/685
f 686/686/686 690/690/690 688/688/688
f 691/691/691 687/687/687 689/689/689
f 688/688/688 690/690/690 692/692/692
f 692/692/692 691/691/691 689/689/689
f 690/690/690 691/691/691 692/692/692
f 695/695/695 694/694/694 693/693/693
f 696/696/696 695/695/695 693/693/693
f 695/695/695 697/697/697 694/694/694
f 696/696/696 693/693/693 698/698/698
f 697/697/697 699/699/699 694/694/694
f 700/700/700 696/696/696 698/698/698
f 697/697/697 701/701/701 699/699/699
f 700/700/700 698/698/698 702/702/702
f 701/701/701 703/703/703 699/699/699
f 704/704/704 700/700/700 702/702/702
f 701/701/701 705/705/705 703/703/703
f 704/704/704 702/702/702 706/706/706
f 705/705/705 707/707/707 703/703/703
f 708/708/708 704/704/704 706/706/706
f 708/708/708 706/706/706 707/707/707
f 705/705/705 708/708/708 707/707/707
