g IS4_MDL_EscenarioPB_Pared_Heladeria_6
v 0.717822254 -1.352386 0.0199998468
v 0.517705083 -0.352377117 0.0199998468
v 0.517705083 -1.352386 0.0199998468
v 0.717822254 -0.352377117 0.0199998468
v 0.717822254 2.35238099 0.0199998468
v -0.280039042 -0.352377117 0.0199998468
v -0.677817345 2.35238099 0.0199992359
v -0.717822254 -1.35238528 -0.0200001523
v -0.717822254 -2.35238123 -0.0200001523
v -0.280034184 -2.35238123 -0.0200001523
v -0.280034184 -1.35238528 -0.0200001523
v -0.280039042 -0.352377117 0.0199998468
v -0.677817345 2.35238099 0.0199992359
v -0.677822232 -1.35238528 0.0199998468
v -0.280034184 -1.35238528 0.0199998468
v 0.717822254 -2.35238123 -0.0200001523
v 0.717822254 -1.352386 -0.0200001523
v 0.517705083 -1.352386 -0.0200001523
v 0.517705083 -2.35238123 -0.0200001523
v -0.677822232 -1.35238528 0.0199998468
v -0.717822254 -1.35238528 -0.0200001523
v -0.280034184 -1.35238528 -0.0200001523
v -0.280034184 -1.35238528 0.0199998468
v -0.280034184 -1.35238528 0.0199998468
v -0.280034184 -1.35238528 -0.0200001523
v -0.280034184 -2.35238123 -0.0200001523
v -0.280034184 -2.35238123 0.0199998468
v 0.517705083 -2.35238123 0.0199998468
v 0.517705083 -2.35238123 -0.0200001523
v 0.517705083 -1.352386 -0.0200001523
v 0.517705083 -1.352386 0.0199998468
v 0.517705083 -1.352386 0.0199998468
v 0.517705083 -1.352386 -0.0200001523
v 0.717822254 -1.352386 -0.0200001523
v 0.717822254 -1.352386 0.0199998468
vt 0.0323181152 0.135375977
vt 0.0508117676 0.227905273
vt 0.0508117676 0.135375977
vt 0.0323181152 0.227905273
vt 0.0323181152 0.505371094
vt 0.124572754 0.227905273
vt 0.161376953 0.505371094
vt 0.661132812 0.147827148
vt 0.661132812 0.0117797852
vt 0.624511719 0.0117797852
vt 0.624511719 0.147827148
vt 0.124572754 0.227905273
vt 0.161376953 0.505371094
vt 0.161376953 0.135375977
vt 0.124572754 0.135375977
vt 0.523925781 0.0117797852
vt 0.523925781 0.147827148
vt 0.55078125 0.147827148
vt 0.55078125 0.0117797852
vt 0.544921875 0.1484375
vt 0.541503906 0.141479492
vt 0.58203125 0.141479492
vt 0.58203125 0.1484375
vt 0.624511719 0.147827148
vt 0.624511719 0.147827148
vt 0.624511719 0.0117797852
vt 0.624511719 0.0117797852
vt 0.736816406 0.147827148
vt 0.736816406 0.147827148
vt 0.523925781 0.147827148
vt 0.523925781 0.147827148
vt 0.546875 0.14074707
vt 0.546875 0.147827148
vt 0.565429688 0.147827148
vt 0.565429688 0.14074707
vn -0 0 -1
vn -0 0 -1
vn -0 0 -1
vn -0 0 -1
vn -0 0 -1
vn 5.36441803E-07 -1.1920929E-07 -1
vn 5.36441803E-07 -1.1920929E-07 -1
vn -0 0 -1
vn -0 0 -1
vn -0 0 -1
vn -0 0 -1
vn 1.66893005E-06 -1.1920929E-07 -1
vn 1.66893005E-06 -1.1920929E-07 -1
vn 1.66893005E-06 -1.1920929E-07 -1
vn 1.66893005E-06 -1.1920929E-07 -1
vn -0 0 -1
vn -0 0 -1
vn -0 0 -1
vn -0 0 -1
vn -0 1 2.02655792E-06
vn -0 1 2.02655792E-06
vn -0 1 2.02655792E-06
vn -0 1 2.02655792E-06
vn 1 0 0
vn 1 0 0
vn 1 0 0
vn 1 0 0
vn -1 0 0
vn -1 0 0
vn -1 0 0
vn -1 0 0
vn -0 1 0
vn -0 1 0
vn -0 1 0
vn -0 1 0
g IS4_MDL_EscenarioPB_Pared_Heladeria_6_0
f 3/3/3 2/2/2 1/1/1
f 2/2/2 4/4/4 1/1/1
f 5/5/5 4/4/4 2/2/2
f 5/5/5 2/2/2 6/6/6
f 7/7/7 5/5/5 6/6/6
f 10/10/10 9/9/9 8/8/8
f 11/11/11 10/10/10 8/8/8
f 14/14/14 13/13/13 12/12/12
f 15/15/15 14/14/14 12/12/12
f 18/18/18 17/17/17 16/16/16
f 19/19/19 18/18/18 16/16/16
f 22/22/22 21/21/21 20/20/20
f 23/23/23 22/22/22 20/20/20
f 26/26/26 25/25/25 24/24/24
f 27/27/27 26/26/26 24/24/24
f 30/30/30 29/29/29 28/28/28
f 31/31/31 30/30/30 28/28/28
f 34/34/34 33/33/33 32/32/32
f 35/35/35 34/34/34 32/32/32
