g CatwalkWest_Wall_3
v 32.1561279 7.22877741 1.75131023
v 30.2199154 7.71231604 1.75131023
v 30.2199154 7.22877741 1.75131023
v 32.3062744 7.71231604 1.75131023
v 32.3062744 4.01231623 1.75131023
v 32.1561279 4.92532206 1.75131023
v 30.2199154 4.01231623 1.75131023
v 30.2199154 4.92532206 1.75131023
v 28.1335621 4.01231623 1.75131023
v 30.2199154 4.01231623 1.75131023
v 30.2199154 4.92532206 1.75131023
v 28.2837048 4.92532206 1.75131023
v 28.2837048 7.22877741 1.75131023
v 28.1335621 7.71231604 1.75131023
v 30.2199154 7.71231604 1.75131023
v 30.2199154 7.22877741 1.75131023
v 26.0988808 4.01231623 1.59931028
v 28.1335621 4.01231623 1.59931028
v 28.1335621 7.71231604 1.59931028
v 26.0988808 7.71231604 1.59931028
v 28.1335621 4.01231623 1.59931028
v 28.1335621 4.01231623 1.75131023
v 28.1335621 7.71231604 1.75131023
v 28.1335621 7.71231604 1.59931028
v 32.3062744 7.71231604 1.59931028
v 32.3062744 7.71231604 1.75131023
v 32.3062744 4.01231623 1.75131023
v 32.3062744 4.01231623 1.59931028
v 32.3062744 4.01231623 1.59931028
v 33.6878281 4.01231623 1.59931028
v 33.6878281 7.71231604 1.59931028
v 32.3062744 7.71231604 1.59931028
vt 0.510253906 0.595214844
vt 0.264648438 0.534667969
vt 0.264648438 0.595214844
vt 0.526855469 0.534667969
vt 0.526855469 0.993652344
vt 0.510253906 0.880859375
vt 0.264648438 0.993652344
vt 0.264648438 0.880859375
vt 0.264648438 0.993652344
vt 0.526855469 0.993652344
vt 0.526855469 0.880859375
vt 0.281982422 0.880859375
vt 0.281982422 0.595214844
vt 0.264648438 0.534667969
vt 0.526855469 0.534667969
vt 0.526855469 0.595214844
vt 0.264648438 0.993652344
vt 0.526855469 0.993652344
vt 0.526855469 0.534667969
vt 0.264648438 0.534667969
vt 0.509765625 0.993652344
vt 0.526855469 0.993652344
vt 0.526855469 0.534667969
vt 0.509765625 0.534667969
vt 0.282470703 0.534667969
vt 0.264648438 0.534667969
vt 0.264648438 0.993652344
vt 0.282470703 0.993652344
vt 0.349853516 0.993652344
vt 0.526855469 0.993652344
vt 0.526855469 0.534667969
vt 0.349853516 0.534667969
vn -0 0 -1
vn -0 0 -1
vn -0 0 -1
vn -0 0 -1
vn -0 0 -1
vn -0 0 -1
vn -0 0 -1
vn -0 0 -1
vn 2.38418579E-07 0 -1
vn -0 0 -1
vn -0 0 -1
vn 2.38418579E-07 0 -1
vn 2.38418579E-07 0 -1
vn 2.38418579E-07 0 -1
vn -0 0 -1
vn -0 0 -1
vn -0 0 -1
vn -0 0 -1
vn -0 0 -1
vn -0 0 -1
vn 1 0 0
vn 1 0 0
vn 1 0 0
vn 1 0 0
vn -1 0 0
vn -1 0 0
vn -1 0 0
vn -1 0 0
vn -0 0 -1
vn -0 0 -1
vn -0 0 -1
vn -0 0 -1
g CatwalkWest_Wall_3_0
f 3/3/3 2/2/2 1/1/1
f 2/2/2 4/4/4 1/1/1
f 1/1/1 4/4/4 5/5/5
f 6/6/6 1/1/1 5/5/5
f 6/6/6 5/5/5 7/7/7
f 8/8/8 6/6/6 7/7/7
f 11/11/11 10/10/10 9/9/9
f 12/12/12 11/11/11 9/9/9
f 13/13/13 12/12/12 9/9/9
f 14/14/14 13/13/13 9/9/9
f 13/13/13 14/14/14 15/15/15
f 16/16/16 13/13/13 15/15/15
f 19/19/19 18/18/18 17/17/17
f 20/20/20 19/19/19 17/17/17
f 23/23/23 22/22/22 21/21/21
f 24/24/24 23/23/23 21/21/21
f 27/27/27 26/26/26 25/25/25
f 28/28/28 27/27/27 25/25/25
f 31/31/31 30/30/30 29/29/29
f 32/32/32 31/31/31 29/29/29
