g IS4_MDL_EscenarioPB_Techo_Staff_1
v -5.15597153 6.98566396E-07 -0.622881472
v -5.15597153 6.98566396E-07 1.18382931
v -3.15597653 6.98566396E-07 1.18382931
v -3.15597653 6.98566396E-07 -0.622881472
v -5.15597153 6.98566396E-07 -2.42959356
v -5.15597153 6.98566396E-07 -0.622881472
v -3.15597653 6.98566396E-07 -0.622881472
v -3.15597653 6.98566396E-07 -2.42959356
v -3.15597653 6.98566396E-07 -2.42959356
v -3.15597653 6.98566396E-07 -0.622881472
v -1.15598142 8.82148754E-08 -0.622881472
v -1.15598142 8.82148754E-08 -2.42959356
v -1.15598142 8.82148754E-08 -2.42959356
v -1.15598142 8.82148754E-08 -0.622881472
v 0.844013631 8.82148754E-08 -0.622881472
v 0.844013631 8.82148754E-08 -2.42959356
v 2.84400392 -5.22136702E-07 -2.42959213
v 0.844013631 8.82148754E-08 -2.42959356
v 0.844013631 8.82148754E-08 -0.622881472
v 2.84400392 -5.22136702E-07 -0.622881472
v 2.84400392 -5.22136702E-07 -2.42959213
v 2.84400392 -5.22136702E-07 -0.622881472
v 4.84399891 -5.22136702E-07 -0.622880816
v 4.84399891 -5.22136702E-07 -2.42959213
v 4.84399891 -5.22136702E-07 -2.42959213
v 4.84399891 -5.22136702E-07 -0.622880816
v 6.84399414 -1.13248825E-06 -0.622880816
v 6.84399414 -1.13248825E-06 -2.42959213
v -5.15597153 6.98566396E-07 -4.82681751
v -5.15597153 6.98566396E-07 -2.42959356
v -3.15597653 6.98566396E-07 -2.42959356
v -3.15597653 6.98566396E-07 -4.82681751
v -3.15597653 6.98566396E-07 -4.82681751
v -3.15597653 6.98566396E-07 -2.42959356
v -1.15598142 8.82148754E-08 -2.42959356
v -1.15598142 8.82148754E-08 -4.82681751
v -1.15598142 8.82148754E-08 -4.82681751
v -1.15598142 8.82148754E-08 -2.42959356
v 0.844013631 8.82148754E-08 -2.42959356
v 0.844013631 8.82148754E-08 -4.82681751
v 2.84400392 -5.22136702E-07 -4.82681608
v 0.844013631 8.82148754E-08 -4.82681751
v 0.844013631 8.82148754E-08 -2.42959356
v 2.84400392 -5.22136702E-07 -2.42959213
v 2.84400392 -5.22136702E-07 -4.82681608
v 2.84400392 -5.22136702E-07 -2.42959213
v 4.84399891 -5.22136702E-07 -2.42959213
v 4.84399891 -5.22136702E-07 -4.82681608
v 4.84399891 -5.22136702E-07 -4.82681608
v 4.84399891 -5.22136702E-07 -2.42959213
v 6.84399414 -1.13248825E-06 -2.42959213
v 6.84399414 -1.13248825E-06 -4.82681608
v 0.844013631 8.82148754E-08 -5.81137705
v 0.844013631 8.82148754E-08 -4.82681751
v 2.84400392 -5.22136702E-07 -4.82681608
v 2.84400392 -5.22136702E-07 -5.80381346
v 2.84400392 -5.22136702E-07 -5.80381346
v 2.84400392 -5.22136702E-07 -4.82681608
v 4.84399891 -5.22136702E-07 -4.82681608
v 4.84399891 -5.22136702E-07 -5.80095673
v 4.84399891 -5.22136702E-07 -5.80095673
v 4.84399891 -5.22136702E-07 -4.82681608
v 6.84399414 -1.13248825E-06 -4.82681608
v 6.84399414 -1.13248825E-06 -5.79810047
v -5.15597153 6.98566396E-07 -4.82681751
v -6.84333467 1.00374223E-06 -4.82681751
v -6.84269524 1.00374223E-06 -3.81648302
v -5.77235842 6.98566396E-07 -3.79297233
v -5.78373051 6.98566396E-07 -2.42959356
v -5.15597153 6.98566396E-07 -2.42959356
v -5.79880381 6.98566396E-07 -0.622881472
v -5.15597153 6.98566396E-07 -0.622881472
v -5.15597153 6.98566396E-07 -2.42959356
v -5.78373051 6.98566396E-07 -2.42959356
v -5.1559763 6.98566396E-07 2.1270349
v -5.15597153 6.98566396E-07 1.18382931
v -5.25119114 6.98566396E-07 1.18382931
v -5.24917459 6.98566396E-07 2.12616563
v -4.22541475 6.98566396E-07 2.13570189
v -4.22238779 6.98566396E-07 2.95832562
v -3.15597653 6.98566396E-07 2.95832562
v -3.15597653 6.98566396E-07 1.18382931
v -5.15597153 6.98566396E-07 1.18382931
v -5.1559763 6.98566396E-07 2.1270349
v -3.54546857 6.98566396E-07 5.33279181
v -3.5890491 6.98566396E-07 5.17639494
v -4.22123051 6.98566396E-07 5.17639494
v -4.22086906 6.98566396E-07 5.86511278
v -3.36396909 6.98566396E-07 5.51594162
v -3.50615478 6.98566396E-07 5.8678813
v -3.15597653 6.98566396E-07 5.86923742
v -3.15597653 6.98566396E-07 5.57699156
v -3.15597653 6.98566396E-07 1.18382931
v -3.15597653 6.98566396E-07 2.95832562
v -1.39593744 8.82148754E-08 2.95832562
v -1.38812006 8.82148754E-08 1.18382931
v -3.15597653 6.98566396E-07 -0.622881472
v -1.15598142 8.82148754E-08 0.119761959
v -1.15598142 8.82148754E-08 -0.622881472
v -1.38343751 8.82148754E-08 0.120897211
v -1.38812006 8.82148754E-08 1.18382931
v -3.15597653 6.98566396E-07 1.18382931
v -1.15598142 8.82148754E-08 -0.622881472
v -1.15598142 8.82148754E-08 0.119761959
v 0.844013631 8.82148754E-08 0.109772339
v 0.844013631 8.82148754E-08 -0.622881472
v -1.15598142 8.82148754E-08 -5.82692623
v -1.15598142 8.82148754E-08 -4.82681751
v 0.844013631 8.82148754E-08 -4.82681751
v 0.844013631 8.82148754E-08 -5.81137705
v -3.15597653 6.98566396E-07 -5.84247541
v -3.15597653 6.98566396E-07 -4.82681751
v -1.15598142 8.82148754E-08 -4.82681751
v -1.15598142 8.82148754E-08 -5.82692623
v -5.15597153 6.98566396E-07 -5.8580246
v -5.15597153 6.98566396E-07 -4.82681751
v -3.15597653 6.98566396E-07 -4.82681751
v -3.15597653 6.98566396E-07 -5.84247541
v -6.84399414 1.00374223E-06 -5.87114716
v -6.84333467 1.00374223E-06 -4.82681751
v -5.15597153 6.98566396E-07 -4.82681751
v -5.15597153 6.98566396E-07 -5.8580246
v -5.25119114 6.98566396E-07 1.18382931
v -5.15597153 6.98566396E-07 1.18382931
v -5.15597153 6.98566396E-07 -0.622881472
v -5.25119114 6.98566396E-07 -0.120922849
v -5.79880381 6.98566396E-07 -0.622881472
v -5.80820322 6.98566396E-07 -0.117028803
v 2.84400392 -5.22136702E-07 -0.622881472
v 0.844013631 8.82148754E-08 -0.622881472
v 0.844013631 8.82148754E-08 0.109772339
v 2.84400392 -5.22136702E-07 0.10458374
v 2.84400392 -5.22136702E-07 -0.622881472
v 2.84400392 -5.22136702E-07 0.10458374
v 4.84399891 -5.22136702E-07 0.0993945301
v 4.84399891 -5.22136702E-07 -0.622880816
v 4.84399891 -5.22136702E-07 -0.622880816
v 4.84399891 -5.22136702E-07 0.0993945301
v 6.84399414 -1.13248825E-06 0.0942065418
v 6.84399414 -1.13248825E-06 -0.622880816
v -3.15597653 6.98566396E-07 5.57699156
v -3.15597653 6.98566396E-07 5.86923742
v -3.11605883 6.98566396E-07 5.58517647
v -2.57880545 6.98566396E-07 5.87114716
v -2.87539411 6.98566396E-07 5.51135254
v -2.57760787 6.98566396E-07 5.36264467
v -2.69083548 6.98566396E-07 5.33565235
v -2.57696414 6.98566396E-07 5.08908558
v -2.64203119 6.98566396E-07 5.09455442
v -2.69083548 6.98566396E-07 5.33565235
v -2.57760787 6.98566396E-07 5.36264467
v -2.68788266 6.98566396E-07 4.83808231
v -2.64203119 6.98566396E-07 5.09455442
v -2.57696414 6.98566396E-07 5.08908558
v -2.57621145 6.98566396E-07 4.76929998
v -2.87244129 6.98566396E-07 4.65942907
v -2.57573795 6.98566396E-07 4.56794786
v -2.57481933 6.98566396E-07 4.17751169
v -3.11310601 6.98566396E-07 4.5944643
v -3.15597653 6.98566396E-07 4.17146397
v -3.15597653 6.98566396E-07 4.60524464
v -2.57340336 6.98566396E-07 3.57563233
v -3.15597653 6.98566396E-07 3.5697279
v -3.15597653 6.98566396E-07 2.95832562
v -2.57239437 6.98566396E-07 3.14673567
v -1.3967334 8.82148754E-08 3.13961959
v -1.39593744 8.82148754E-08 2.95832562
v -4.22123051 6.98566396E-07 5.17639494
v -3.5890491 6.98566396E-07 5.17639494
v -3.61362958 6.98566396E-07 5.08908176
v -3.55103135 1.00374223E-06 4.84596777
v -4.22140551 6.98566396E-07 4.84111023
v -3.55014157 6.98566396E-07 4.84251165
v -3.36558223 6.98566396E-07 4.65795279
v -4.22176123 6.98566396E-07 4.15949345
v -3.15597653 6.98566396E-07 4.17146397
v -3.15597653 6.98566396E-07 4.60524464
v -4.22207499 6.98566396E-07 3.55806637
v -3.15597653 6.98566396E-07 3.5697279
v -4.22238779 6.98566396E-07 2.95832562
v -3.15597653 6.98566396E-07 2.95832562
vt 0.764160156 0.235839844
vt 0.764160156 0.00543212891
vt 0.993164062 0.00543212891
vt 0.993164062 0.235839844
vt 0.764160156 0.235839844
vt 0.764160156 0.00543212891
vt 0.993164062 0.00543212891
vt 0.993164062 0.235839844
vt 0.764160156 0.235839844
vt 0.764160156 0.00543212891
vt 0.993164062 0.00543212891
vt 0.993164062 0.235839844
vt 0.764160156 0.235839844
vt 0.764160156 0.00543212891
vt 0.993164062 0.00543212891
vt 0.993164062 0.235839844
vt 0.993164062 0.235839844
vt 0.764160156 0.235839844
vt 0.764160156 0.00543212891
vt 0.993164062 0.00543212891
vt 0.764160156 0.235839844
vt 0.764160156 0.00543212891
vt 0.993164062 0.00543212891
vt 0.993164062 0.235839844
vt 0.764160156 0.235839844
vt 0.764160156 0.00543212891
vt 0.993164062 0.00543212891
vt 0.993164062 0.235839844
vt 0.764160156 0.235839844
vt 0.764160156 0.00543212891
vt 0.993164062 0.00543212891
vt 0.993164062 0.235839844
vt 0.764160156 0.235839844
vt 0.764160156 0.00543212891
vt 0.993164062 0.00543212891
vt 0.993164062 0.235839844
vt 0.764160156 0.235839844
vt 0.764160156 0.00543212891
vt 0.993164062 0.00543212891
vt 0.993164062 0.235839844
vt 0.993164062 0.235839844
vt 0.764160156 0.235839844
vt 0.764160156 0.00543212891
vt 0.993164062 0.00543212891
vt 0.764160156 0.235839844
vt 0.764160156 0.00543212891
vt 0.993164062 0.00543212891
vt 0.993164062 0.235839844
vt 0.764160156 0.235839844
vt 0.764160156 0.00543212891
vt 0.993164062 0.00543212891
vt 0.993164062 0.235839844
vt 0.764160156 0.127563477
vt 0.764160156 0.00543212891
vt 0.993164062 0.00543212891
vt 0.993164062 0.126586914
vt 0.764160156 0.126586914
vt 0.764160156 0.00543212891
vt 0.993164062 0.00543212891
vt 0.993164062 0.126220703
vt 0.764160156 0.126220703
vt 0.764160156 0.00543212891
vt 0.993164062 0.00543212891
vt 0.993164062 0.125854492
vt 0.993164062 0.235839844
vt 0.799804688 0.235839844
vt 0.799804688 0.138671875
vt 0.922363281 0.136474609
vt 0.921386719 0.00543212891
vt 0.993164062 0.00543212891
vt 0.919433594 0.00543212891
vt 0.993164062 0.00543212891
vt 0.993164062 0.235839844
vt 0.921386719 0.235839844
vt 0.993164062 0.113342285
vt 0.993164062 0.235839844
vt 0.981933594 0.235839844
vt 0.982421875 0.113464355
vt 0.870605469 0.112243652
vt 0.87109375 0.00543212891
vt 0.993164062 0.00543212891
vt 0.993164062 0.235839844
vt 0.764160156 0.235839844
vt 0.764160156 0.113342285
vt 0.948730469 0.217285156
vt 0.943359375 0.235839844
vt 0.87109375 0.235839844
vt 0.87109375 0.154174805
vt 0.969238281 0.195556641
vt 0.953125 0.153808594
vt 0.993164062 0.153686523
vt 0.993164062 0.188354492
vt 0.764160156 0.0048789978
vt 0.764160156 0.235229492
vt 0.965820312 0.235229492
vt 0.966308594 0.0048789978
vt 0.764160156 0.235839844
vt 0.993164062 0.141113281
vt 0.993164062 0.235839844
vt 0.966796875 0.140991211
vt 0.966308594 0.00543212891
vt 0.764160156 0.00543212891
vt 0.764160156 0.235839844
vt 0.764160156 0.141113281
vt 0.993164062 0.142333984
vt 0.993164062 0.235839844
vt 0.764160156 0.129516602
vt 0.764160156 0.00543212891
vt 0.993164062 0.00543212891
vt 0.993164062 0.127563477
vt 0.764160156 0.131469727
vt 0.764160156 0.00543212891
vt 0.993164062 0.00543212891
vt 0.993164062 0.129516602
vt 0.764160156 0.133300781
vt 0.764160156 0.00543212891
vt 0.993164062 0.00543212891
vt 0.993164062 0.131469727
vt 0.799804688 0.135009766
vt 0.799804688 0.00543212891
vt 0.993164062 0.00543212891
vt 0.993164062 0.133300781
vt 0.981933594 0.00543212891
vt 0.993164062 0.00543212891
vt 0.993164062 0.235839844
vt 0.984863281 0.17175293
vt 0.919433594 0.235839844
vt 0.918457031 0.171264648
vt 0.993164062 0.235839844
vt 0.764160156 0.235839844
vt 0.764160156 0.142333984
vt 0.993164062 0.143066406
vt 0.764160156 0.235839844
vt 0.764160156 0.143066406
vt 0.993164062 0.143676758
vt 0.993164062 0.235839844
vt 0.764160156 0.235839844
vt 0.764160156 0.143676758
vt 0.993164062 0.14440918
vt 0.993164062 0.235839844
vt 0.764160156 0.188354492
vt 0.764160156 0.153686523
vt 0.768554688 0.18737793
vt 0.820800781 0.153442383
vt 0.793945312 0.196044922
vt 0.820800781 0.213745117
vt 0.813476562 0.216918945
vt 0.820800781 0.233276367
vt 0.818359375 0.234130859
vt 0.813476562 0.216796875
vt 0.820800781 0.213989258
vt 0.813476562 0.0405578613
vt 0.816894531 0.0149307251
vt 0.820800781 0.0144958496
vt 0.820800781 0.0477294922
vt 0.793945312 0.0591125488
vt 0.820800781 0.0686035156
vt 0.820800781 0.109191895
vt 0.768554688 0.0658569336
vt 0.764160156 0.109802246
vt 0.764160156 0.0647583008
vt 0.821289062 0.17175293
vt 0.764160156 0.172363281
vt 0.764160156 0.235839844
vt 0.821289062 0.216308594
vt 0.965332031 0.217041016
vt 0.965820312 0.235839844
vt 0.87109375 0.00543212891
vt 0.943359375 0.00543212891
vt 0.940917969 0.0144958496
vt 0.947753906 0.0397644043
vt 0.87109375 0.0402526855
vt 0.947753906 0.0401000977
vt 0.969238281 0.0592651367
vt 0.87109375 0.111083984
vt 0.993164062 0.109802246
vt 0.993164062 0.0647583008
vt 0.87109375 0.173583984
vt 0.993164062 0.172363281
vt 0.87109375 0.235839844
vt 0.993164062 0.235839844
vn -0 -1 0
vn -0 -1 0
vn -0 -1 0
vn -0 -1 0
vn -0 -1 0
vn -0 -1 0
vn -0 -1 0
vn -0 -1 0
vn -2.98023224E-07 -1 0
vn -2.98023224E-07 -1 0
vn -2.98023224E-07 -1 0
vn -2.98023224E-07 -1 0
vn -0 -1 0
vn -0 -1 0
vn -0 -1 0
vn -0 -1 0
vn -2.98023224E-07 -1 0
vn -2.98023224E-07 -1 0
vn -2.98023224E-07 -1 0
vn -2.98023224E-07 -1 0
vn -0 -1 0
vn -0 -1 0
vn -0 -1 0
vn -0 -1 0
vn -2.98023224E-07 -1 0
vn -2.98023224E-07 -1 0
vn -2.98023224E-07 -1 0
vn -2.98023224E-07 -1 0
vn -0 -1 0
vn -0 -1 0
vn -0 -1 0
vn -0 -1 0
vn -2.98023224E-07 -1 0
vn -2.98023224E-07 -1 0
vn -2.98023224E-07 -1 0
vn -2.98023224E-07 -1 0
vn -0 -1 0
vn -0 -1 0
vn -0 -1 0
vn -0 -1 0
vn -2.98023224E-07 -1 0
vn -2.98023224E-07 -1 0
vn -2.98023224E-07 -1 0
vn -2.98023224E-07 -1 0
vn -0 -1 0
vn -0 -1 0
vn -0 -1 0
vn -0 -1 0
vn -2.98023224E-07 -1 0
vn -2.98023224E-07 -1 0
vn -2.98023224E-07 -1 0
vn -2.98023224E-07 -1 0
vn -2.98023224E-07 -1 0
vn -2.98023224E-07 -1 0
vn -2.98023224E-07 -1 0
vn -2.98023224E-07 -1 0
vn -0 -1 0
vn -0 -1 0
vn -0 -1 0
vn -0 -1 0
vn -2.98023224E-07 -1 0
vn -2.98023224E-07 -1 0
vn -2.98023224E-07 -1 0
vn -2.98023224E-07 -1 0
vn -2.38418579E-07 -1 -5.36441803E-07
vn -2.38418579E-07 -1 -5.36441803E-07
vn -2.38418579E-07 -1 -5.36441803E-07
vn -2.38418579E-07 -1 -5.36441803E-07
vn -0 -1 0
vn -0 -1 0
vn -0 -1 0
vn -0 -1 0
vn -0 -1 0
vn -0 -1 0
vn -0 -1 2.38418579E-07
vn -0 -1 2.38418579E-07
vn -0 -1 2.38418579E-07
vn -0 -1 2.38418579E-07
vn -0 -1 0
vn -0 -1 0
vn -0 -1 0
vn -0 -1 0
vn -0 -1 0
vn -0 -1 0
vn -0 -1 0
vn -0 -1 4.17232513E-07
vn -0 -1 4.17232513E-07
vn -0 -1 1.1920929E-07
vn -0 -1 0
vn -0 -1 -1.1920929E-07
vn -0 -1 1.07288361E-06
vn -0 -1 1.07288361E-06
vn -3.57627869E-07 -1 0
vn -3.57627869E-07 -1 0
vn -3.57627869E-07 -1 0
vn -3.57627869E-07 -1 0
vn -2.98023224E-07 -1 0
vn -2.98023224E-07 -1 0
vn -2.98023224E-07 -1 0
vn -2.98023224E-07 -1 0
vn -3.57627869E-07 -1 0
vn -3.57627869E-07 -1 0
vn -0 -1 0
vn -0 -1 0
vn -0 -1 0
vn -0 -1 0
vn -0 -1 0
vn -0 -1 0
vn -0 -1 0
vn -0 -1 0
vn -2.98023224E-07 -1 0
vn -2.98023224E-07 -1 0
vn -2.98023224E-07 -1 0
vn -2.98023224E-07 -1 0
vn -0 -1 0
vn -0 -1 0
vn -0 -1 0
vn -0 -1 0
vn -1.78813934E-07 -1 2.98023224E-07
vn -1.78813934E-07 -1 2.98023224E-07
vn -1.78813934E-07 -1 2.98023224E-07
vn -1.78813934E-07 -1 2.98023224E-07
vn -0 -1 0
vn -0 -1 0
vn -0 -1 0
vn -0 -1 0
vn -0 -1 0
vn -0 -1 0
vn -2.98023224E-07 -1 0
vn -2.98023224E-07 -1 0
vn -2.98023224E-07 -1 0
vn -2.98023224E-07 -1 0
vn -0 -1 0
vn -0 -1 0
vn -0 -1 0
vn -0 -1 0
vn -2.98023224E-07 -1 0
vn -2.98023224E-07 -1 0
vn -2.98023224E-07 -1 0
vn -2.98023224E-07 -1 0
vn -0 -1 0
vn -0 -1 -5.96046448E-07
vn -0 -1 -5.96046448E-07
vn -0 -1 -4.17232513E-07
vn -0 -1 -4.17232513E-07
vn -0 -1 1.78813934E-07
vn -0 -1 1.78813934E-07
vn -0 -1 1.07288361E-06
vn -0 -1 1.07288361E-06
vn -0 -1 1.78813934E-07
vn -0 -1 1.78813934E-07
vn -0 -1 -1.31130219E-06
vn -0 -1 0
vn -0 -1 0
vn -0 -1 -1.66893005E-06
vn -0 -1 -2.98023224E-07
vn -0 -1 -4.17232513E-07
vn -0 -1 3.57627869E-07
vn -0 -1 -4.76837158E-07
vn -0 -1 2.38418579E-07
vn -0 -1 -6.55651093E-07
vn -0 -1 2.98023224E-07
vn -0 -1 2.98023224E-07
vn -0 -1 1.1920929E-07
vn -2.38418579E-07 -1 4.17232513E-07
vn -4.17232513E-07 -1 7.15255737E-07
vn -4.17232513E-07 -1 7.15255737E-07
vn 1.78813934E-07 -1 9.53674316E-07
vn -0 -1 -7.09295273E-06
vn 1.78813934E-07 -1 1.1920929E-07
vn -0 -1 5.36441803E-07
vn -0 -1 5.96046448E-07
vn -0 -1 2.98023224E-07
vn -0 -1 -4.76837158E-07
vn -0 -1 3.57627869E-07
vn -0 -1 0
vn -0 -1 -9.53674316E-07
vn -0 -1 2.98023224E-07
vn -0 -1 2.98023224E-07
vn -0 -1 0
vn -0 -1 0
g IS4_MDL_EscenarioPB_Techo_Staff_1_0
f 3/3/3 2/2/2 1/1/1
f 4/4/4 3/3/3 1/1/1
f 7/7/7 6/6/6 5/5/5
f 8/8/8 7/7/7 5/5/5
f 11/11/11 10/10/10 9/9/9
f 12/12/12 11/11/11 9/9/9
f 15/15/15 14/14/14 13/13/13
f 16/16/16 15/15/15 13/13/13
f 19/19/19 18/18/18 17/17/17
f 20/20/20 19/19/19 17/17/17
f 23/23/23 22/22/22 21/21/21
f 24/24/24 23/23/23 21/21/21
f 27/27/27 26/26/26 25/25/25
f 28/28/28 27/27/27 25/25/25
f 31/31/31 30/30/30 29/29/29
f 32/32/32 31/31/31 29/29/29
f 35/35/35 34/34/34 33/33/33
f 36/36/36 35/35/35 33/33/33
f 39/39/39 38/38/38 37/37/37
f 40/40/40 39/39/39 37/37/37
f 43/43/43 42/42/42 41/41/41
f 44/44/44 43/43/43 41/41/41
f 47/47/47 46/46/46 45/45/45
f 48/48/48 47/47/47 45/45/45
f 51/51/51 50/50/50 49/49/49
f 52/52/52 51/51/51 49/49/49
f 55/55/55 54/54/54 53/53/53
f 56/56/56 55/55/55 53/53/53
f 59/59/59 58/58/58 57/57/57
f 60/60/60 59/59/59 57/57/57
f 63/63/63 62/62/62 61/61/61
f 64/64/64 63/63/63 61/61/61
f 67/67/67 66/66/66 65/65/65
f 68/68/68 67/67/67 65/65/65
f 68/68/68 65/65/65 69/69/69
f 65/65/65 70/70/70 69/69/69
f 73/73/73 72/72/72 71/71/71
f 74/74/74 73/73/73 71/71/71
f 77/77/77 76/76/76 75/75/75
f 78/78/78 77/77/77 75/75/75
f 81/81/81 80/80/80 79/79/79
f 82/82/82 81/81/81 79/79/79
f 82/82/82 79/79/79 83/83/83
f 79/79/79 84/84/84 83/83/83
f 87/87/87 86/86/86 85/85/85
f 88/88/88 87/87/87 85/85/85
f 88/88/88 85/85/85 89/89/89
f 90/90/90 88/88/88 89/89/89
f 90/90/90 89/89/89 91/91/91
f 89/89/89 92/92/92 91/91/91
f 95/95/95 94/94/94 93/93/93
f 96/96/96 95/95/95 93/93/93
f 99/99/99 98/98/98 97/97/97
f 98/98/98 100/100/100 97/97/97
f 100/100/100 101/101/101 97/97/97
f 101/101/101 102/102/102 97/97/97
f 105/105/105 104/104/104 103/103/103
f 106/106/106 105/105/105 103/103/103
f 109/109/109 108/108/108 107/107/107
f 110/110/110 109/109/109 107/107/107
f 113/113/113 112/112/112 111/111/111
f 114/114/114 113/113/113 111/111/111
f 117/117/117 116/116/116 115/115/115
f 118/118/118 117/117/117 115/115/115
f 121/121/121 120/120/120 119/119/119
f 122/122/122 121/121/121 119/119/119
f 125/125/125 124/124/124 123/123/123
f 126/126/126 125/125/125 123/123/123
f 127/127/127 125/125/125 126/126/126
f 128/128/128 127/127/127 126/126/126
f 131/131/131 130/130/130 129/129/129
f 132/132/132 131/131/131 129/129/129
f 135/135/135 134/134/134 133/133/133
f 136/136/136 135/135/135 133/133/133
f 139/139/139 138/138/138 137/137/137
f 140/140/140 139/139/139 137/137/137
f 143/143/143 142/142/142 141/141/141
f 144/144/144 142/142/142 143/143/143
f 145/145/145 144/144/144 143/143/143
f 146/146/146 144/144/144 145/145/145
f 147/147/147 146/146/146 145/145/145
f 150/150/150 149/149/149 148/148/148
f 151/151/151 150/150/150 148/148/148
f 154/154/154 153/153/153 152/152/152
f 155/155/155 154/154/154 152/152/152
f 155/155/155 152/152/152 156/156/156
f 157/157/157 155/155/155 156/156/156
f 157/157/157 156/156/156 158/158/158
f 156/156/156 159/159/159 158/158/158
f 158/158/158 159/159/159 160/160/160
f 159/159/159 161/161/161 160/160/160
f 158/158/158 160/160/160 162/162/162
f 160/160/160 163/163/163 162/162/162
f 162/162/162 163/163/163 164/164/164
f 165/165/165 162/162/162 164/164/164
f 166/166/166 165/165/165 164/164/164
f 167/167/167 166/166/166 164/164/164
f 170/170/170 169/169/169 168/168/168
f 171/171/171 170/170/170 168/168/168
f 172/172/172 171/171/171 168/168/168
f 173/173/173 171/171/171 172/172/172
f 174/174/174 173/173/173 172/172/172
f 172/172/172 175/175/175 174/174/174
f 175/175/175 176/176/176 174/174/174
f 176/176/176 177/177/177 174/174/174
f 175/175/175 178/178/178 176/176/176
f 178/178/178 179/179/179 176/176/176
f 178/178/178 180/180/180 179/179/179
f 180/180/180 181/181/181 179/179/179
