g EscenarioPB_Puerta_Staff_Marco
v 0.147490233 1.08296859 0.456423938
v -0.147490233 1.08296859 0.456423938
v -0.147490233 1.08296859 -0.456423342
v 0.147490233 1.08296859 -0.456423342
v 0.147490233 0.01002244 -0.456423342
v 0.147490233 1.08296859 -0.456423342
v -0.147490233 1.08296859 -0.456423342
v -0.147490233 0.01002244 -0.456423342
v 0.147490233 -1.00561488 -0.456423342
v -0.147490233 -1.00561488 -0.456423342
v -0.147490233 -1.00561488 0.456423938
v 0.147490233 0.0156062031 0.456423938
v 0.147490233 -1.00561488 0.456423938
v -0.147490233 0.0156062031 0.456423938
v 0.147490233 1.08296859 0.456423938
v -0.147490233 1.08296859 0.456423938
v 0.120405272 0.0100219436 -0.362415165
v 0.120405272 0.986199081 -0.362415165
v 0.147490233 1.00458348 -0.380275875
v 0.147490233 0.01002202 -0.380275875
v 0.120405272 -1.00561488 -0.362415165
v 0.147490233 -1.00561488 -0.380275875
v 0.120405272 0.986199081 -0.362415165
v 0.120405272 0.986199081 0.362415165
v 0.147490233 1.00458348 0.380273432
v 0.147490233 1.00458348 -0.380275875
v 0.120405272 0.0156057449 0.362415165
v 0.120405272 -1.00561488 0.362415165
v 0.147490233 -1.00561488 0.380273432
v 0.147490233 0.0156058213 0.380273432
v 0.120405272 0.986199081 0.362415165
v 0.147490233 1.00458348 0.380273432
v -0.147490233 0.0156058213 0.380273432
v -0.147490233 -1.00561488 0.380273432
v -0.120402828 -1.00561488 0.362415165
v -0.120402828 0.0156057449 0.362415165
v -0.147490233 1.00458348 0.380273432
v -0.120402828 0.986199081 0.362415165
v -0.120402828 0.986199081 0.362415165
v -0.120402828 0.986199081 -0.362415165
v -0.147490233 1.00458348 -0.380275875
v -0.147490233 1.00458348 0.380273432
v -0.120402828 0.986199081 -0.362415165
v -0.147490233 0.01002202 -0.380275875
v -0.147490233 1.00458348 -0.380275875
v -0.120402828 0.0100219436 -0.362415165
v -0.147490233 -1.00561488 -0.380275875
v -0.120402828 -1.00561488 -0.362415165
v 0.147490233 0.01002244 -0.456423342
v 0.147490233 1.00458348 -0.380275875
v 0.147490233 1.08296859 -0.456423342
v 0.147490233 0.01002202 -0.380275875
v 0.147490233 -1.00561488 -0.456423342
v 0.147490233 -1.00561488 -0.380275875
v 0.147490233 1.08296859 -0.456423342
v 0.147490233 1.00458348 -0.380275875
v 0.147490233 1.00458348 0.380273432
v 0.147490233 1.08296859 0.456423938
v 0.147490233 0.0156062031 0.456423938
v 0.147490233 -1.00561488 0.380273432
v 0.147490233 -1.00561488 0.456423938
v 0.147490233 0.0156058213 0.380273432
v 0.147490233 1.08296859 0.456423938
v 0.147490233 1.00458348 0.380273432
v -0.147490233 1.08296859 0.456423938
v -0.147490233 1.00458348 0.380273432
v -0.147490233 1.00458348 -0.380275875
v -0.147490233 1.08296859 -0.456423342
v -0.147490233 1.08296859 -0.456423342
v -0.147490233 1.00458348 -0.380275875
v -0.147490233 0.01002202 -0.380275875
v -0.147490233 0.01002244 -0.456423342
v -0.147490233 -1.00561488 -0.456423342
v -0.147490233 -1.00561488 -0.380275875
v -0.147490233 -1.00561488 0.456423938
v -0.147490233 -1.00561488 0.380273432
v -0.147490233 0.0156058213 0.380273432
v -0.147490233 0.0156062031 0.456423938
v -0.147490233 1.08296859 0.456423938
v -0.147490233 1.00458348 0.380273432
v 0.120405272 0.0100219436 -0.362415165
v -0.120402828 0.986199081 -0.362415165
v 0.120405272 0.986199081 -0.362415165
v -0.120402828 0.0100219436 -0.362415165
v 0.120405272 -1.00561488 -0.362415165
v -0.120402828 -1.00561488 -0.362415165
v 0.120405272 0.986199081 -0.362415165
v -0.120402828 0.986199081 -0.362415165
v -0.120402828 0.986199081 0.362415165
v 0.120405272 0.986199081 0.362415165
v 0.120405272 0.0156057449 0.362415165
v -0.120402828 -1.00561488 0.362415165
v 0.120405272 -1.00561488 0.362415165
v -0.120402828 0.0156057449 0.362415165
v 0.120405272 0.986199081 0.362415165
v -0.120402828 0.986199081 0.362415165
vt 0.500488281 0.96484375
vt 0.519042969 0.96484375
vt 0.519042969 0.836425781
vt 0.500488281 0.836425781
vt 0.416748047 0.833007812
vt 0.416748047 0.941894531
vt 0.431152344 0.941894531
vt 0.431152344 0.833007812
vt 0.416748047 0.670898438
vt 0.431152344 0.670898438
vt 0.416748047 0.670898438
vt 0.431396484 0.833007812
vt 0.431396484 0.670898438
vt 0.416748047 0.833007812
vt 0.431396484 0.941894531
vt 0.416748047 0.941894531
vt 0.4296875 0.833007812
vt 0.4296875 0.940429688
vt 0.431152344 0.942871094
vt 0.431152344 0.833007812
vt 0.4296875 0.665527344
vt 0.431152344 0.665527344
vt 0.429931641 0.833007812
vt 0.429931641 0.947753906
vt 0.431396484 0.951171875
vt 0.431396484 0.833007812
vt 0.4296875 0.833007812
vt 0.4296875 0.666015625
vt 0.431152344 0.666015625
vt 0.431152344 0.833007812
vt 0.4296875 0.940917969
vt 0.431152344 0.943359375
vt 0.416015625 0.833007812
vt 0.416015625 0.666015625
vt 0.417480469 0.666015625
vt 0.417480469 0.833007812
vt 0.416015625 0.943359375
vt 0.417480469 0.940917969
vt 0.41796875 0.947753906
vt 0.41796875 0.833007812
vt 0.416503906 0.833007812
vt 0.416503906 0.951171875
vt 0.417480469 0.940429688
vt 0.416259766 0.833007812
vt 0.416259766 0.942871094
vt 0.417480469 0.833007812
vt 0.416259766 0.665527344
vt 0.417480469 0.665527344
vt 0.556152344 0.833007812
vt 0.54296875 0.959472656
vt 0.556152344 0.971191406
vt 0.54296875 0.833007812
vt 0.556152344 0.6640625
vt 0.54296875 0.6640625
vt 0.555664062 0.833007812
vt 0.54296875 0.833007812
vt 0.54296875 0.946777344
vt 0.555664062 0.958984375
vt 0.542480469 0.833007812
vt 0.556152344 0.6640625
vt 0.542480469 0.6640625
vt 0.556152344 0.833007812
vt 0.542480469 0.971191406
vt 0.556152344 0.959472656
vt 0.555664062 0.958496094
vt 0.54296875 0.946289062
vt 0.54296875 0.833007812
vt 0.555664062 0.833007812
vt 0.556640625 0.971191406
vt 0.54296875 0.959472656
vt 0.54296875 0.833007812
vt 0.556640625 0.833007812
vt 0.556640625 0.6640625
vt 0.54296875 0.6640625
vt 0.54296875 0.6640625
vt 0.556152344 0.6640625
vt 0.556152344 0.833007812
vt 0.54296875 0.833007812
vt 0.54296875 0.971191406
vt 0.556152344 0.959472656
vt 0.4296875 0.833007812
vt 0.417480469 0.940429688
vt 0.4296875 0.940429688
vt 0.417480469 0.833007812
vt 0.4296875 0.665527344
vt 0.417480469 0.665527344
vt 0.429931641 0.833007812
vt 0.41796875 0.833007812
vt 0.41796875 0.947753906
vt 0.429931641 0.947753906
vt 0.4296875 0.833007812
vt 0.417480469 0.666015625
vt 0.4296875 0.666015625
vt 0.417480469 0.833007812
vt 0.4296875 0.940917969
vt 0.417480469 0.940917969
vn -0 1 0
vn -0 1 0
vn -0 1 0
vn -0 1 0
vn -0 0 -1
vn -0 0 -1
vn -0 0 -1
vn -0 0 -1
vn -0 0 -1
vn -0 0 -1
vn -0 0 1
vn -0 0 1
vn -0 0 1
vn -0 0 1
vn -0 0 1
vn -0 0 1
vn 0.550292969 0 0.834960938
vn 0.702636719 0 0.711425781
vn 0.702636719 0 0.711425781
vn 0.550292969 0 0.834960938
vn 0.702636719 0 0.711425781
vn 0.702636719 0 0.711425781
vn 0.712890625 -0.701171875 0
vn 0.712890625 -0.701171875 0
vn 0.712890625 -0.701171875 0
vn 0.712890625 -0.701171875 0
vn 0.550292969 0 -0.834960938
vn 0.702636719 0 -0.711425781
vn 0.702636719 0 -0.711425781
vn 0.550292969 0 -0.834960938
vn 0.702636719 0 -0.711425781
vn 0.702636719 0 -0.711425781
vn -0.550292969 0 -0.834960938
vn -0.702636719 0 -0.711425781
vn -0.702636719 0 -0.711425781
vn -0.550292969 0 -0.834960938
vn -0.702636719 0 -0.711425781
vn -0.702636719 0 -0.711425781
vn -0.712890625 -0.701171875 0
vn -0.712890625 -0.701171875 0
vn -0.712890625 -0.701171875 0
vn -0.712890625 -0.701171875 0
vn -0.702636719 0 0.711425781
vn -0.550292969 0 0.834960938
vn -0.702636719 0 0.711425781
vn -0.550292969 0 0.834960938
vn -0.702636719 0 0.711425781
vn -0.702636719 0 0.711425781
vn 1 0 0
vn 1 -2.86102295E-06 0
vn 1 -2.92062759E-06 0
vn 1 0 0
vn 1 0 0
vn 1 0 0
vn 1 -2.92062759E-06 0
vn 1 -2.86102295E-06 0
vn 1 -2.86102295E-06 0
vn 1 -2.92062759E-06 0
vn 1 0 0
vn 1 0 0
vn 1 0 0
vn 1 0 0
vn 1 -2.92062759E-06 0
vn 1 -2.86102295E-06 0
vn -1 1.49011612E-06 0
vn -1 1.43051147E-06 0
vn -1 1.43051147E-06 0
vn -1 1.49011612E-06 0
vn -1 1.49011612E-06 0
vn -1 1.43051147E-06 0
vn -1 0 0
vn -1 0 0
vn -1 0 0
vn -1 0 0
vn -1 0 0
vn -1 0 0
vn -1 0 0
vn -1 0 0
vn -1 1.49011612E-06 0
vn -1 1.43051147E-06 0
vn -0 0 1
vn -0 0 1
vn -0 0 1
vn -0 0 1
vn -0 0 1
vn -0 0 1
vn -0 -1 0
vn -0 -1 0
vn -0 -1 0
vn -0 -1 0
vn -0 0 -1
vn -0 0 -1
vn -0 0 -1
vn -0 0 -1
vn -0 0 -1
vn -0 0 -1
g EscenarioPB_Puerta_Staff_Marco_0
f 3/3/3 2/2/2 1/1/1
f 4/4/4 3/3/3 1/1/1
f 7/7/7 6/6/6 5/5/5
f 8/8/8 7/7/7 5/5/5
f 8/8/8 5/5/5 9/9/9
f 10/10/10 8/8/8 9/9/9
f 13/13/13 12/12/12 11/11/11
f 12/12/12 14/14/14 11/11/11
f 12/12/12 15/15/15 14/14/14
f 15/15/15 16/16/16 14/14/14
f 19/19/19 18/18/18 17/17/17
f 20/20/20 19/19/19 17/17/17
f 20/20/20 17/17/17 21/21/21
f 22/22/22 20/20/20 21/21/21
f 25/25/25 24/24/24 23/23/23
f 26/26/26 25/25/25 23/23/23
f 29/29/29 28/28/28 27/27/27
f 30/30/30 29/29/29 27/27/27
f 30/30/30 27/27/27 31/31/31
f 32/32/32 30/30/30 31/31/31
f 35/35/35 34/34/34 33/33/33
f 36/36/36 35/35/35 33/33/33
f 36/36/36 33/33/33 37/37/37
f 38/38/38 36/36/36 37/37/37
f 41/41/41 40/40/40 39/39/39
f 42/42/42 41/41/41 39/39/39
f 45/45/45 44/44/44 43/43/43
f 44/44/44 46/46/46 43/43/43
f 44/44/44 47/47/47 46/46/46
f 47/47/47 48/48/48 46/46/46
f 51/51/51 50/50/50 49/49/49
f 50/50/50 52/52/52 49/49/49
f 49/49/49 52/52/52 53/53/53
f 52/52/52 54/54/54 53/53/53
f 57/57/57 56/56/56 55/55/55
f 58/58/58 57/57/57 55/55/55
f 61/61/61 60/60/60 59/59/59
f 60/60/60 62/62/62 59/59/59
f 59/59/59 62/62/62 63/63/63
f 62/62/62 64/64/64 63/63/63
f 67/67/67 66/66/66 65/65/65
f 68/68/68 67/67/67 65/65/65
f 71/71/71 70/70/70 69/69/69
f 72/72/72 71/71/71 69/69/69
f 72/72/72 73/73/73 71/71/71
f 73/73/73 74/74/74 71/71/71
f 77/77/77 76/76/76 75/75/75
f 78/78/78 77/77/77 75/75/75
f 78/78/78 79/79/79 77/77/77
f 79/79/79 80/80/80 77/77/77
f 83/83/83 82/82/82 81/81/81
f 82/82/82 84/84/84 81/81/81
f 81/81/81 84/84/84 85/85/85
f 84/84/84 86/86/86 85/85/85
f 89/89/89 88/88/88 87/87/87
f 90/90/90 89/89/89 87/87/87
f 93/93/93 92/92/92 91/91/91
f 92/92/92 94/94/94 91/91/91
f 91/91/91 94/94/94 95/95/95
f 94/94/94 96/96/96 95/95/95
