g IS4_MDL_EscenarioPB_FocoTecho_Cristal_3
v -0.0511926264 -3.05175774E-07 -0.0962557197
v -0.0357995592 -0.0356405638 0.0213448331
v 0.0178478993 -0.0468563847 -0.0968105271
v -0.0902502388 0.0468557738 -0.0393167883
v 0.0764392093 -0.0662646443 -0.0406511687
v -0.0764392093 0.0662646443 0.0406543724
v 0.0902502388 -0.0468563847 0.0393199921
v -0.0178503413 0.0468557738 0.0968105271
v 0.0511901826 -3.05175774E-07 0.0962567851
vt 0.708638608 0.676468611
vt 0.689666986 0.674853861
vt 0.703189373 0.689667106
vt 0.703166604 0.663253427
vt 0.690016925 0.695159614
vt 0.689920187 0.657774448
vt 0.676811218 0.689742506
vt 0.676688313 0.66331017
vt 0.671281338 0.676567674
vn -0.677726567 -0.723624229 -0.130593389
vn -0.549842775 -0.780756712 0.29680267
vn -0.415768117 -0.903619289 -0.103000551
vn -0.856679678 -0.510386705 0.0748697445
vn -0.206140116 -0.972627401 0.107247464
vn -0.809148848 -0.403608739 0.427057505
vn -0.137779057 -0.905609369 0.40110901
vn -0.542533278 -0.499674529 0.675265193
vn -0.260386527 -0.718968272 0.644425035
g IS4_MDL_EscenarioPB_FocoTecho_Cristal_3_0
f 3/3/3 2/2/2 1/1/1
f 1/1/1 2/2/2 4/4/4
f 5/5/5 2/2/2 3/3/3
f 4/4/4 2/2/2 6/6/6
f 7/7/7 2/2/2 5/5/5
f 6/6/6 2/2/2 8/8/8
f 9/9/9 2/2/2 7/7/7
f 8/8/8 2/2/2 9/9/9
