g CatwalkEast_Wall_3
v 35.7254715 4.01231623 -23.4024048
v 33.6878319 4.01231623 -23.4024048
v 33.6878319 7.71231604 -23.4024048
v 35.7254715 7.71231604 -23.4024048
v 37.7631187 4.01231623 -23.4024048
v 37.7631187 4.01231623 -23.5544033
v 37.7631187 7.71231604 -23.5544033
v 37.7631187 7.71231604 -23.4024048
v 35.7254715 7.71231604 -23.4024048
v 35.7254753 7.71231604 -23.5544033
v 35.7254753 4.01231623 -23.5544033
v 35.7254715 4.01231623 -23.4024048
v 39.8007622 4.01231623 -23.4024048
v 37.7631187 4.01231623 -23.4024048
v 37.7631187 7.71231604 -23.4024048
v 39.8007622 7.71231604 -23.4024048
v 35.875618 7.24799681 -23.5544033
v 35.7254753 7.71231604 -23.5544033
v 37.7631187 7.71231604 -23.5544033
v 35.7254753 4.01231623 -23.5544033
v 37.6129723 7.24799681 -23.5544033
v 35.8756218 4.91620064 -23.5544033
v 37.7631187 4.01231623 -23.5544033
v 37.6129723 4.91620064 -23.5544033
vt 0.264648438 0.993652344
vt 0.526855469 0.993652344
vt 0.526855469 0.534667969
vt 0.264648438 0.534667969
vt 0.505371094 0.993652344
vt 0.526855469 0.993652344
vt 0.526855469 0.534667969
vt 0.505371094 0.534667969
vt 0.284423828 0.534667969
vt 0.264648438 0.534667969
vt 0.264648438 0.993652344
vt 0.284423828 0.993652344
vt 0.264648438 0.993652344
vt 0.526855469 0.993652344
vt 0.526855469 0.534667969
vt 0.264648438 0.534667969
vt 0.5078125 0.592773438
vt 0.526855469 0.534667969
vt 0.264648438 0.534667969
vt 0.526855469 0.993652344
vt 0.284179688 0.592773438
vt 0.5078125 0.881835938
vt 0.264648438 0.993652344
vt 0.284179688 0.881835938
vn -0 0 1
vn -0 0 1
vn -0 0 1
vn -0 0 1
vn -1 0 0
vn -1 0 0
vn -1 0 0
vn -1 0 0
vn 1 0 1.60336494E-05
vn 1 0 1.60336494E-05
vn 1 0 1.60336494E-05
vn 1 0 1.60336494E-05
vn -0 0 1
vn -0 0 1
vn -0 0 1
vn -0 0 1
vn -0 0 1
vn -0 0 1
vn -1.38282776E-05 0 1
vn -0 0 1
vn -1.38282776E-05 0 1
vn -0 0 1
vn -1.38282776E-05 0 1
vn -1.38282776E-05 0 1
g CatwalkEast_Wall_3_0
f 3/3/3 2/2/2 1/1/1
f 4/4/4 3/3/3 1/1/1
f 7/7/7 6/6/6 5/5/5
f 8/8/8 7/7/7 5/5/5
f 11/11/11 10/10/10 9/9/9
f 12/12/12 11/11/11 9/9/9
f 15/15/15 14/14/14 13/13/13
f 16/16/16 15/15/15 13/13/13
f 19/19/19 18/18/18 17/17/17
f 17/17/17 18/18/18 20/20/20
f 21/21/21 19/19/19 17/17/17
f 22/22/22 17/17/17 20/20/20
f 19/19/19 21/21/21 23/23/23
f 22/22/22 20/20/20 23/23/23
f 21/21/21 24/24/24 23/23/23
f 24/24/24 22/22/22 23/23/23
