g IS4_MDL_EscenarioPB_Heladeria_Cartel_Precios_1
v -0.212753907 -0.659987152 -0.0530427545
v 0.0618408173 0.0231657587 -0.0524465926
v 0.0523046851 0.0975056216 -0.0524674989
v -0.258354485 -0.659987152 -0.0531407148
v 0.0615429692 0.0231657587 0.085067898
v -0.213051751 -0.659987152 0.0844763145
v -0.258652329 -0.659987152 0.0843783543
v 0.0520068333 0.0975056216 0.0850468427
v -0.213051751 -0.659987152 0.0844763145
v -0.212753907 -0.659987152 -0.0530427545
v -0.258354485 -0.659987152 -0.0531407148
v -0.258652329 -0.659987152 0.0843783543
v -0.258354485 -0.659987152 -0.0531407148
v 0.0523046851 0.0975056216 -0.0524674989
v 0.0520068333 0.0975056216 0.0850468427
v -0.258652329 -0.659987152 0.0843783543
v -0.213051751 -0.659987152 0.0844763145
v 0.0615429692 0.0231657587 0.085067898
v 0.0618408173 0.0231657587 -0.0524465926
v -0.212753907 -0.659987152 -0.0530427545
v -0.0301220696 0.659987152 0.252568662
v -0.0302197263 0.659987152 0.2971434
v -0.072133787 0.650674701 0.297055364
v -0.0720361322 0.650674701 0.252476037
v -0.0290478505 0.659987152 -0.245311275
v -0.070961915 0.650674701 -0.245403901
v -0.0289355461 0.659987152 -0.297275394
v -0.0708496049 0.650674701 -0.29736343
v 0.257827133 -0.636466384 0.297770232
v 0.257924795 -0.636466384 0.253190756
v 0.216010734 -0.645778716 0.253097981
v 0.215913087 -0.645778716 0.297677457
v 0.227841794 -0.501099408 0.253127277
v 0.215742186 -0.446635813 0.2531012
v 0.216821283 -0.446635813 -0.244783327
v 0.228920892 -0.501099408 -0.24475722
v 0.187006831 -0.510411739 -0.244845271
v 0.174907222 -0.455948174 -0.244871363
v 0.173832998 -0.455948174 0.253008574
v 0.185932606 -0.510411739 0.253034502
v 0.227841794 -0.501099408 0.253127277
v 0.228920892 -0.501099408 -0.24475722
v 0.187006831 -0.510411739 -0.244845271
v 0.185932606 -0.510411739 0.253034502
v 0.25899902 -0.636466384 -0.244689018
v 0.259111315 -0.636466384 -0.296648622
v 0.217197254 -0.645778716 -0.296741337
v 0.217084959 -0.645778716 -0.244781792
v 0.200595692 -0.450001985 0.253065795
v -0.0368017554 0.618504465 0.252554476
v -0.0357275382 0.618504465 -0.245325461
v 0.201669917 -0.450001985 -0.244814143
v 0.174907222 -0.455948174 -0.244871363
v -0.0624902323 0.612558246 -0.245382681
v -0.0635644495 0.612558246 0.252497107
v 0.173832998 -0.455948174 0.253008574
v -0.0216552727 0.621870697 0.252588332
v -0.0301220696 0.659987152 0.252568662
v -0.0290478505 0.659987152 -0.245311275
v -0.0205810536 0.621870697 -0.245296165
v -0.0217529293 0.621870697 0.29716292
v -0.0302197263 0.659987152 0.2971434
v -0.0301220696 0.659987152 0.252568662
v -0.0216552727 0.621870697 0.252588332
v 0.215649411 -0.446635813 0.297675937
v 0.215742186 -0.446635813 0.2531012
v 0.22774902 -0.501099408 0.297702163
v 0.227841794 -0.501099408 0.253127277
v 0.257827133 -0.636466384 0.297770232
v 0.257924795 -0.636466384 0.253190756
v -0.0302197263 0.659987152 0.2971434
v -0.0636621043 0.612558246 0.297071844
v -0.072133787 0.650674701 0.297055364
v -0.0217529293 0.621870697 0.29716292
v 0.17373535 -0.455948174 0.297587872
v 0.215649411 -0.446635813 0.297675937
v 0.185834959 -0.510411739 0.297613978
v 0.22774902 -0.501099408 0.297702163
v 0.215913087 -0.645778716 0.297677457
v 0.257827133 -0.636466384 0.297770232
v -0.0635644495 0.612558246 0.252497107
v -0.0720361322 0.650674701 0.252476037
v -0.072133787 0.650674701 0.297055364
v -0.0636621043 0.612558246 0.297071844
v 0.173832998 -0.455948174 0.253008574
v 0.17373535 -0.455948174 0.297587872
v 0.185932606 -0.510411739 0.253034502
v 0.185834959 -0.510411739 0.297613978
v 0.216010734 -0.645778716 0.253097981
v 0.215913087 -0.645778716 0.297677457
v -0.0624902323 0.612558246 -0.245382681
v -0.070961915 0.650674701 -0.245403901
v -0.0720361322 0.650674701 0.252476037
v -0.0635644495 0.612558246 0.252497107
v -0.0623779297 0.612558246 -0.29734686
v -0.0708496049 0.650674701 -0.29736343
v -0.070961915 0.650674701 -0.245403901
v -0.0624902323 0.612558246 -0.245382681
v 0.175019532 -0.455948174 -0.296830893
v 0.174907222 -0.455948174 -0.244871363
v 0.187119141 -0.510411739 -0.296804816
v 0.187006831 -0.510411739 -0.244845271
v 0.217197254 -0.645778716 -0.296741337
v 0.217084959 -0.645778716 -0.244781792
v -0.0204687491 0.621870697 -0.297255695
v -0.0289355461 0.659987152 -0.297275394
v -0.0708496049 0.650674701 -0.29736343
v -0.0623779297 0.612558246 -0.29734686
v 0.216933593 -0.446635813 -0.296742767
v 0.175019532 -0.455948174 -0.296830893
v 0.229033202 -0.501099408 -0.29671669
v 0.187119141 -0.510411739 -0.296804816
v 0.259111315 -0.636466384 -0.296648622
v 0.217197254 -0.645778716 -0.296741337
v -0.0205810536 0.621870697 -0.245296165
v -0.0290478505 0.659987152 -0.245311275
v -0.0289355461 0.659987152 -0.297275394
v -0.0204687491 0.621870697 -0.297255695
v 0.216821283 -0.446635813 -0.244783327
v 0.216933593 -0.446635813 -0.296742767
v 0.228920892 -0.501099408 -0.24475722
v 0.229033202 -0.501099408 -0.29671669
v 0.25899902 -0.636466384 -0.244689018
v 0.259111315 -0.636466384 -0.296648622
v 0.215742186 -0.446635813 0.2531012
v 0.200595692 -0.450001985 0.253065795
v 0.201669917 -0.450001985 -0.244814143
v 0.216821283 -0.446635813 -0.244783327
v 0.216821283 -0.446635813 -0.244783327
v 0.201669917 -0.450001985 -0.244814143
v -0.0357275382 0.618504465 -0.245325461
v -0.0205810536 0.621870697 -0.245296165
v -0.0205810536 0.621870697 -0.245296165
v -0.0357275382 0.618504465 -0.245325461
v -0.0368017554 0.618504465 0.252554476
v -0.0216552727 0.621870697 0.252588332
v -0.0216552727 0.621870697 0.252588332
v -0.0368017554 0.618504465 0.252554476
v 0.200595692 -0.450001985 0.253065795
v 0.215742186 -0.446635813 0.2531012
v 0.185932606 -0.510411739 0.253034502
v 0.216010734 -0.645778716 0.253097981
v 0.257924795 -0.636466384 0.253190756
v 0.227841794 -0.501099408 0.253127277
v 0.228920892 -0.501099408 -0.24475722
v 0.25899902 -0.636466384 -0.244689018
v 0.217084959 -0.645778716 -0.244781792
v 0.187006831 -0.510411739 -0.244845271
vt 0.896972656 0.210083008
vt 0.708984375 0.210083008
vt 0.692382812 0.222290039
vt 0.901367188 0.222290039
vt 0.883789062 0.210083008
vt 0.695800781 0.210083008
vt 0.69140625 0.222290039
vt 0.900390625 0.222290039
vt 0.98046875 0.058013916
vt 0.932617188 0.058013916
vt 0.932617188 0.0738525391
vt 0.98046875 0.0738525391
vt 0.98046875 0.0576477051
vt 0.717285156 0.0576477051
vt 0.717285156 0.105407715
vt 0.98046875 0.105407715
vt 0.98046875 0.058807373
vt 0.743164062 0.058807373
vt 0.743164062 0.106567383
vt 0.98046875 0.106567383
vt 0.789550781 0.0581054688
vt 0.773925781 0.0581054688
vt 0.773925781 0.0726318359
vt 0.789550781 0.0726318359
vt 0.962402344 0.0581054688
vt 0.962402344 0.0726318359
vt 0.98046875 0.0581054688
vt 0.98046875 0.0726318359
vt 0.98046875 0.0589904785
vt 0.96484375 0.0589904785
vt 0.96484375 0.0735473633
vt 0.98046875 0.0735473633
vt 0.640625 0.210083008
vt 0.640625 0.222290039
vt 0.767578125 0.222290039
vt 0.767578125 0.210083008
vt 0.641113281 0.210083008
vt 0.641113281 0.222290039
vt 0.768554688 0.222290039
vt 0.768554688 0.210083008
vt 0.98046875 0.0581665039
vt 0.807617188 0.0581665039
vt 0.807617188 0.0727539062
vt 0.98046875 0.0727539062
vt 0.98046875 0.0587158203
vt 0.962402344 0.0587158203
vt 0.962402344 0.0732421875
vt 0.98046875 0.0732421875
vt 0.497314453 0.518554688
vt 0.497314453 0.634277344
vt 0.611816406 0.634277344
vt 0.611816406 0.518554688
vt 0.9765625 0.0547790527
vt 0.631835938 0.0547790527
vt 0.631835938 0.215576172
vt 0.9765625 0.215576172
vt 0.640625 0.210083008
vt 0.640625 0.222290039
vt 0.767578125 0.222290039
vt 0.767578125 0.210083008
vt 0.650390625 0.210083008
vt 0.640625 0.210083008
vt 0.640625 0.222290039
vt 0.650390625 0.222290039
vt 0.923339844 0.210083008
vt 0.923339844 0.222290039
vt 0.9375 0.210083008
vt 0.9375 0.222290039
vt 0.971679688 0.210083008
vt 0.971679688 0.222290039
vt 0.9765625 0.210083008
vt 0.966308594 0.222290039
vt 0.976074219 0.222290039
vt 0.966308594 0.210083008
vt 0.687011719 0.222290039
vt 0.687011719 0.210083008
vt 0.672363281 0.222290039
vt 0.672851562 0.210083008
vt 0.637207031 0.222290039
vt 0.637207031 0.210083008
vt 0.650390625 0.210083008
vt 0.640625 0.210083008
vt 0.640625 0.222290039
vt 0.650390625 0.222290039
vt 0.923339844 0.210083008
vt 0.923339844 0.222290039
vt 0.9375 0.210083008
vt 0.9375 0.222290039
vt 0.971679688 0.210083008
vt 0.971679688 0.222290039
vt 0.641113281 0.210083008
vt 0.641113281 0.222290039
vt 0.768554688 0.222290039
vt 0.768554688 0.210083008
vt 0.650390625 0.210083008
vt 0.640625 0.210083008
vt 0.640625 0.222290039
vt 0.650390625 0.222290039
vt 0.923339844 0.210083008
vt 0.923339844 0.222290039
vt 0.9375 0.210083008
vt 0.9375 0.222290039
vt 0.971679688 0.210083008
vt 0.971679688 0.222290039
vt 0.645507812 0.210083008
vt 0.635742188 0.210083008
vt 0.635742188 0.222290039
vt 0.645507812 0.222290039
vt 0.924804688 0.210083008
vt 0.925292969 0.222290039
vt 0.939453125 0.210083008
vt 0.939453125 0.222290039
vt 0.974609375 0.210083008
vt 0.974609375 0.222290039
vt 0.650390625 0.210083008
vt 0.640625 0.210083008
vt 0.640625 0.222290039
vt 0.650390625 0.222290039
vt 0.923339844 0.210083008
vt 0.923339844 0.222290039
vt 0.9375 0.210083008
vt 0.9375 0.222290039
vt 0.971679688 0.210083008
vt 0.971679688 0.222290039
vt 0.711914062 0.221069336
vt 0.711914062 0.224243164
vt 0.815917969 0.224243164
vt 0.815917969 0.221069336
vt 0.712402344 0.221557617
vt 0.712402344 0.224853516
vt 0.940917969 0.223754883
vt 0.940917969 0.220581055
vt 0.711914062 0.221801758
vt 0.711914062 0.224975586
vt 0.815917969 0.224975586
vt 0.815917969 0.221801758
vt 0.711914062 0.221069336
vt 0.711914062 0.224365234
vt 0.940429688 0.224731445
vt 0.940429688 0.221435547
vt 0.931152344 0.073425293
vt 0.979492188 0.0733642578
vt 0.979492188 0.0584411621
vt 0.931152344 0.0585327148
vt 0.979492188 0.0587463379
vt 0.931152344 0.0588684082
vt 0.931152344 0.0737915039
vt 0.979492188 0.0736694336
vn 0.002161026 3.4570694E-06 -1
vn 0.002161026 3.4570694E-06 -1
vn 0.002161026 3.4570694E-06 -1
vn 0.002161026 3.4570694E-06 -1
vn -0.0021572113 1.49011612E-06 1
vn -0.0021572113 1.49011612E-06 1
vn -0.0021572113 1.49011612E-06 1
vn -0.0021572113 1.49011612E-06 1
vn -0 -1 1.1920929E-07
vn -0 -1 1.1920929E-07
vn -0 -1 1.1920929E-07
vn -0 -1 1.1920929E-07
vn -0.925292969 0.379394531 -0.00200462341
vn -0.925292969 0.379394531 -0.00200462341
vn -0.925292969 0.379394531 -0.00200462341
vn -0.925292969 0.379394531 -0.00200462341
vn 0.927734375 -0.373046875 0.00201034546
vn 0.927734375 -0.373046875 0.00201034546
vn 0.927734375 -0.373046875 0.00201034546
vn 0.927734375 -0.373046875 0.00201034546
vn -0.216918945 0.976074219 -0.000468492508
vn -0.216918945 0.976074219 -0.000474452972
vn -0.216918945 0.976074219 -0.000474452972
vn -0.216918945 0.976074219 -0.000468492508
vn -0.216918945 0.976074219 -0.000468015671
vn -0.216918945 0.976074219 -0.000468015671
vn -0.216918945 0.976074219 -0.000468492508
vn -0.216918945 0.976074219 -0.000468492508
vn 0.216918945 -0.976074219 0.000475168228
vn 0.216918945 -0.976074219 0.000475168228
vn 0.216918945 -0.976074219 0.000475168228
vn 0.216918945 -0.976074219 0.000475168228
vn 0.976074219 0.216918945 0.00210952759
vn 0.976074219 0.216918945 0.0020942688
vn 0.976074219 0.216918945 0.00211143494
vn 0.976074219 0.216918945 0.00211524963
vn -0.976074219 -0.216918945 -0.00210571289
vn -0.976074219 -0.216918945 -0.00210571289
vn -0.976074219 -0.216918945 -0.00210952759
vn -0.976074219 -0.216918945 -0.00210952759
vn 0.216918945 -0.976074219 0.000469207764
vn 0.216918945 -0.976074219 0.000469207764
vn 0.216918945 -0.976074219 0.000469207764
vn 0.216918945 -0.976074219 0.000469207764
vn 0.216918945 -0.976074219 0.000469207764
vn 0.216918945 -0.976074219 0.000469207764
vn 0.216918945 -0.976074219 0.000469207764
vn 0.216918945 -0.976074219 0.000469207764
vn 0.976074219 0.216918945 0.00210571289
vn 0.976074219 0.216918945 0.00210571289
vn 0.976074219 0.216918945 0.00210571289
vn 0.976074219 0.216918945 0.00210571289
vn -0.976074219 -0.216918945 -0.00210571289
vn -0.976074219 -0.216918945 -0.00210571289
vn -0.976074219 -0.216918945 -0.00210952759
vn -0.976074219 -0.216918945 -0.00210952759
vn 0.976074219 0.216918945 0.00209236145
vn 0.976074219 0.216796875 0.00210952759
vn 0.976074219 0.216796875 0.00210571289
vn 0.976074219 0.216918945 0.00210952759
vn 0.976074219 0.216918945 0.0020866394
vn 0.976074219 0.216796875 0.00213813782
vn 0.976074219 0.216796875 0.00210952759
vn 0.976074219 0.216918945 0.00209236145
vn 0.976074219 0.216918945 0.00208282471
vn 0.976074219 0.216918945 0.0020942688
vn 0.976074219 0.216918945 0.00203132629
vn 0.976074219 0.216918945 0.00210952759
vn 0.976074219 0.216918945 0.00208473206
vn 0.976074219 0.216918945 0.00208473206
vn -0.00213623047 -2.38418579E-06 1
vn -0.00213813782 6.07967377E-06 1
vn -0.00213623047 -2.38418579E-06 1
vn -0.00213813782 6.07967377E-06 1
vn -0.00213623047 6.73532486E-06 1
vn -0.00213623047 6.73532486E-06 1
vn -0.00210380554 1.28149986E-05 1
vn -0.00210380554 1.28149986E-05 1
vn -0.002161026 5.84125519E-06 1
vn -0.002161026 5.84125519E-06 1
vn -0.976074219 -0.216918945 -0.00210952759
vn -0.976074219 -0.216918945 -0.00210952759
vn -0.976074219 -0.216918945 -0.00213813782
vn -0.976074219 -0.216918945 -0.00213813782
vn -0.976074219 -0.216918945 -0.00210952759
vn -0.976074219 -0.216918945 -0.00213813782
vn -0.976074219 -0.216918945 -0.00210952759
vn -0.976074219 -0.216918945 -0.00213813782
vn -0.976074219 -0.216918945 -0.00213813782
vn -0.976074219 -0.216918945 -0.00213813782
vn -0.976074219 -0.216918945 -0.00210571289
vn -0.976074219 -0.216918945 -0.00210571289
vn -0.976074219 -0.216918945 -0.00210952759
vn -0.976074219 -0.216918945 -0.00210952759
vn -0.976074219 -0.216918945 -0.00210952759
vn -0.976074219 -0.216918945 -0.00210952759
vn -0.976074219 -0.216918945 -0.00210571289
vn -0.976074219 -0.216918945 -0.00210571289
vn -0.976074219 -0.216918945 -0.00210952759
vn -0.976074219 -0.216918945 -0.00210571289
vn -0.976074219 -0.216918945 -0.00210952759
vn -0.976074219 -0.216918945 -0.00210571289
vn -0.976074219 -0.216918945 -0.00210952759
vn -0.976074219 -0.216918945 -0.00210952759
vn 0.00214004517 -5.78165054E-06 -1
vn 0.00213813782 -2.98023224E-07 -1
vn 0.00213813782 -2.98023224E-07 -1
vn 0.00214004517 -5.78165054E-06 -1
vn 0.00213813782 -6.19888306E-06 -1
vn 0.00213813782 -6.19888306E-06 -1
vn 0.00210380554 -1.14440918E-05 -1
vn 0.00210380554 -1.14440918E-05 -1
vn 0.00215911865 -6.2584877E-06 -1
vn 0.00215911865 -6.2584877E-06 -1
vn 0.976074219 0.216918945 0.00210952759
vn 0.976074219 0.216796875 0.00210571289
vn 0.976074219 0.216796875 0.00210952759
vn 0.976074219 0.216918945 0.00210952759
vn 0.976074219 0.216918945 0.00211143494
vn 0.976074219 0.216918945 0.00210952759
vn 0.976074219 0.216918945 0.00211524963
vn 0.976074219 0.216918945 0.00210952759
vn 0.976074219 0.216918945 0.00210952759
vn 0.976074219 0.216918945 0.00210952759
vn -0.216918945 0.976074219 -0.000469207764
vn -0.216918945 0.976074219 -0.000469207764
vn -0.216918945 0.976074219 -0.000469207764
vn -0.216918945 0.976074219 -0.000469207764
vn -0.00199127197 3.65972519E-05 1
vn -0.00199127197 3.65972519E-05 1
vn -0.00199127197 3.65972519E-05 1
vn -0.00199127197 3.65972519E-05 1
vn 0.216918945 -0.976074219 0.000468015671
vn 0.216918945 -0.976074219 0.000468015671
vn 0.216918945 -0.976074219 0.000468015671
vn 0.216918945 -0.976074219 0.000468015671
vn 0.00227928162 2.74777412E-05 -1
vn 0.00227928162 2.74777412E-05 -1
vn 0.00227928162 2.74777412E-05 -1
vn 0.00227928162 2.74777412E-05 -1
vn 0.00220870972 2.18749046E-05 -1
vn 0.00220870972 2.18749046E-05 -1
vn 0.00220870972 2.18749046E-05 -1
vn 0.00220870972 2.18749046E-05 -1
vn -0.00215911865 6.7949295E-06 1
vn -0.00215911865 6.7949295E-06 1
vn -0.00215911865 6.7949295E-06 1
vn -0.00215911865 6.7949295E-06 1
g IS4_MDL_EscenarioPB_Heladeria_Cartel_Precios_1_0
f 3/3/3 2/2/2 1/1/1
f 4/4/4 3/3/3 1/1/1
f 7/7/7 6/6/6 5/5/5
f 8/8/8 7/7/7 5/5/5
f 11/11/11 10/10/10 9/9/9
f 12/12/12 11/11/11 9/9/9
f 15/15/15 14/14/14 13/13/13
f 16/16/16 15/15/15 13/13/13
f 19/19/19 18/18/18 17/17/17
f 20/20/20 19/19/19 17/17/17
f 23/23/23 22/22/22 21/21/21
f 24/24/24 23/23/23 21/21/21
f 24/24/24 21/21/21 25/25/25
f 26/26/26 24/24/24 25/25/25
f 26/26/26 25/25/25 27/27/27
f 28/28/28 26/26/26 27/27/27
f 31/31/31 30/30/30 29/29/29
f 32/32/32 31/31/31 29/29/29
f 35/35/35 34/34/34 33/33/33
f 36/36/36 35/35/35 33/33/33
f 39/39/39 38/38/38 37/37/37
f 40/40/40 39/39/39 37/37/37
f 43/43/43 42/42/42 41/41/41
f 44/44/44 43/43/43 41/41/41
f 47/47/47 46/46/46 45/45/45
f 48/48/48 47/47/47 45/45/45
f 51/51/51 50/50/50 49/49/49
f 52/52/52 51/51/51 49/49/49
f 55/55/55 54/54/54 53/53/53
f 56/56/56 55/55/55 53/53/53
f 59/59/59 58/58/58 57/57/57
f 60/60/60 59/59/59 57/57/57
f 63/63/63 62/62/62 61/61/61
f 64/64/64 63/63/63 61/61/61
f 64/64/64 61/61/61 65/65/65
f 66/66/66 64/64/64 65/65/65
f 66/66/66 65/65/65 67/67/67
f 68/68/68 66/66/66 67/67/67
f 67/67/67 69/69/69 68/68/68
f 69/69/69 70/70/70 68/68/68
f 73/73/73 72/72/72 71/71/71
f 72/72/72 74/74/74 71/71/71
f 72/72/72 75/75/75 74/74/74
f 75/75/75 76/76/76 74/74/74
f 75/75/75 77/77/77 76/76/76
f 77/77/77 78/78/78 76/76/76
f 77/77/77 79/79/79 78/78/78
f 79/79/79 80/80/80 78/78/78
f 83/83/83 82/82/82 81/81/81
f 84/84/84 83/83/83 81/81/81
f 84/84/84 81/81/81 85/85/85
f 86/86/86 84/84/84 85/85/85
f 86/86/86 85/85/85 87/87/87
f 88/88/88 86/86/86 87/87/87
f 87/87/87 89/89/89 88/88/88
f 89/89/89 90/90/90 88/88/88
f 93/93/93 92/92/92 91/91/91
f 94/94/94 93/93/93 91/91/91
f 97/97/97 96/96/96 95/95/95
f 98/98/98 97/97/97 95/95/95
f 98/98/98 95/95/95 99/99/99
f 100/100/100 98/98/98 99/99/99
f 100/100/100 99/99/99 101/101/101
f 102/102/102 100/100/100 101/101/101
f 101/101/101 103/103/103 102/102/102
f 103/103/103 104/104/104 102/102/102
f 107/107/107 106/106/106 105/105/105
f 108/108/108 107/107/107 105/105/105
f 108/108/108 105/105/105 109/109/109
f 110/110/110 108/108/108 109/109/109
f 110/110/110 109/109/109 111/111/111
f 112/112/112 110/110/110 111/111/111
f 111/111/111 113/113/113 112/112/112
f 113/113/113 114/114/114 112/112/112
f 117/117/117 116/116/116 115/115/115
f 118/118/118 117/117/117 115/115/115
f 118/118/118 115/115/115 119/119/119
f 120/120/120 118/118/118 119/119/119
f 120/120/120 119/119/119 121/121/121
f 122/122/122 120/120/120 121/121/121
f 121/121/121 123/123/123 122/122/122
f 123/123/123 124/124/124 122/122/122
f 127/127/127 126/126/126 125/125/125
f 128/128/128 127/127/127 125/125/125
f 131/131/131 130/130/130 129/129/129
f 132/132/132 131/131/131 129/129/129
f 135/135/135 134/134/134 133/133/133
f 136/136/136 135/135/135 133/133/133
f 139/139/139 138/138/138 137/137/137
f 140/140/140 139/139/139 137/137/137
f 143/143/143 142/142/142 141/141/141
f 144/144/144 143/143/143 141/141/141
f 147/147/147 146/146/146 145/145/145
f 148/148/148 147/147/147 145/145/145
