g IS4_MDL_EscenarioPB_Escombro_15
v -0.06001921 -0.0416444279 0.0328098163
v 0.21288453 -0.0268126596 -0.0103978831
v 0.0481712483 -0.0293913186 -0.430385262
v -0.0583277754 0.0264666807 0.0355431996
v 0.0498574972 0.0387198702 -0.427653074
v 0.214575827 0.041298531 -0.00766564487
v -0.0583277754 0.0264666807 0.0355431996
v -0.06001921 -0.0416444279 0.0328098163
v 0.0481712483 -0.0293913186 -0.430385262
v 0.0498574972 0.0387198702 -0.427653074
v 0.0498574972 0.0387198702 -0.427653074
v 0.0481712483 -0.0293913186 -0.430385262
v 0.21288453 -0.0268126596 -0.0103978831
v 0.214575827 0.041298531 -0.00766564487
v 0.214575827 0.041298531 -0.00766564487
v 0.21288453 -0.0268126596 -0.0103978831
v -0.06001921 -0.0416444279 0.0328098163
v -0.0583277754 0.0264666807 0.0355431996
vt 0.865722656 0.207397461
vt 0.898925781 0.125366211
vt 0.879882812 0.125366211
vt 0.865722656 0.207397461
vt 0.879882812 0.125366211
vt 0.898925781 0.125366211
vt 0.977539062 0.401611328
vt 0.965820312 0.401611328
vt 0.966796875 0.470458984
vt 0.978515625 0.470458984
vt 0.990722656 0.398925781
vt 0.979003906 0.3984375
vt 0.98046875 0.469970703
vt 0.9921875 0.470458984
vt 0.965332031 0.431396484
vt 0.953613281 0.431396484
vt 0.951660156 0.470458984
vt 0.963378906 0.470458984
vn 0.0520019531 -0.998535156 -0.0142669678
vn 0.0520019531 -0.998535156 -0.0142669678
vn 0.0520019531 -0.998535156 -0.0142669678
vn -0.0520019531 0.998535156 0.0142669678
vn -0.0520019531 0.998535156 0.0142669678
vn -0.0520019531 0.998535156 0.0142669678
vn -0.973632812 0.0332336426 -0.22644043
vn -0.973632812 0.0332336426 -0.22644043
vn -0.973632812 0.0332336426 -0.22644043
vn -0.973632812 0.0332336426 -0.22644043
vn 0.931152344 -0.00843811035 -0.364990234
vn 0.931152344 -0.00843811035 -0.364990234
vn 0.931152344 -0.00843811035 -0.364990234
vn 0.931152344 -0.00843811035 -0.364990234
vn 0.158569336 -0.0435180664 0.986328125
vn 0.158569336 -0.0435180664 0.986328125
vn 0.158569336 -0.0435180664 0.986328125
vn 0.158569336 -0.0435180664 0.986328125
g IS4_MDL_EscenarioPB_Escombro_15_0
f 3/3/3 2/2/2 1/1/1
f 6/6/6 5/5/5 4/4/4
f 9/9/9 8/8/8 7/7/7
f 10/10/10 9/9/9 7/7/7
f 13/13/13 12/12/12 11/11/11
f 14/14/14 13/13/13 11/11/11
f 17/17/17 16/16/16 15/15/15
f 18/18/18 17/17/17 15/15/15
