g Garage_Platform_P4
v -0.191600218 -0.225303337 0.856386781
v 1.03041637 -0.225303337 0.856386781
v 1.03041637 -0.225305781 7.62939436E-08
v -0.191600218 -0.225305781 7.62939436E-08
v -0.191600218 -0.225303337 0.856386781
v -0.191600218 0.225307003 0.85312748
v 1.03041637 0.225307003 0.85312748
v 1.03041637 -0.225303337 0.856386781
v 1.03041637 0.225192249 7.62939436E-08
v 1.03041637 0.225307003 0.85312748
v -0.191600218 0.225307003 0.85312748
v -0.191600218 0.225079954 7.62939436E-08
v 1.03041637 -0.225303337 0.856386781
v 2.25243306 -0.225303337 0.856386781
v 2.25243306 -0.225303337 7.62939436E-08
v 1.03041637 -0.225305781 7.62939436E-08
v 1.03041637 -0.225303337 0.856386781
v 1.03041637 0.225307003 0.85312748
v 2.25243306 0.225307003 0.85312748
v 2.25243306 -0.225303337 0.856386781
v 2.25243306 0.225307003 7.62939436E-08
v 2.25243306 0.225307003 0.85312748
v 1.03041637 0.225307003 0.85312748
v 1.03041637 0.225192249 7.62939436E-08
v -0.191600218 -0.225303337 -0.856386304
v -0.191600218 -0.225305781 7.62939436E-08
v 1.03041637 -0.225305781 7.62939436E-08
v 1.03041637 -0.225303337 -0.856386304
v -0.191600218 -0.225303337 -0.856386304
v 1.03041637 -0.225303337 -0.856386304
v 1.03041637 0.225307003 -0.853127062
v -0.191600218 0.225307003 -0.853127062
v 1.03041637 0.225192249 7.62939436E-08
v -0.191600218 0.225079954 7.62939436E-08
v -0.191600218 0.225307003 -0.853127062
v 1.03041637 0.225307003 -0.853127062
v 1.03041637 -0.225303337 -0.856386304
v 1.03041637 -0.225305781 7.62939436E-08
v 2.25243306 -0.225303337 7.62939436E-08
v 2.25243306 -0.225303337 -0.856386304
v 1.03041637 -0.225303337 -0.856386304
v 2.25243306 -0.225303337 -0.856386304
v 2.25243306 0.225307003 -0.853127062
v 1.03041637 0.225307003 -0.853127062
v 2.25243306 0.225307003 7.62939436E-08
v 1.03041637 0.225192249 7.62939436E-08
v 1.03041637 0.225307003 -0.853127062
v 2.25243306 0.225307003 -0.853127062
v 2.25243306 -0.225303337 0.856386781
v 3.4744494 -0.225303337 0.856386781
v 3.4744494 -0.225305781 7.62939436E-08
v 2.25243306 -0.225305781 7.62939436E-08
v 2.25243306 -0.225303337 0.856386781
v 2.25243306 0.225307003 0.85312748
v 3.4744494 0.225307003 0.85312748
v 3.4744494 -0.225303337 0.856386781
v 3.4744494 0.225192249 7.62939436E-08
v 3.4744494 0.225307003 0.85312748
v 2.25243306 0.225307003 0.85312748
v 2.25243306 0.225079954 7.62939436E-08
v 3.4744494 -0.225303337 0.856386781
v 4.69646597 -0.225303337 0.856386781
v 4.69646597 -0.225303337 7.62939436E-08
v 3.4744494 -0.225305781 7.62939436E-08
v 3.4744494 -0.225303337 0.856386781
v 3.4744494 0.225307003 0.85312748
v 4.69646597 0.225307003 0.85312748
v 4.69646597 -0.225303337 0.856386781
v 4.69646597 0.225307003 7.62939436E-08
v 4.69646597 0.225307003 0.85312748
v 3.4744494 0.225307003 0.85312748
v 3.4744494 0.225192249 7.62939436E-08
v 2.25243306 -0.225303337 -0.856386304
v 2.25243306 -0.225305781 7.62939436E-08
v 3.4744494 -0.225305781 7.62939436E-08
v 3.4744494 -0.225303337 -0.856386304
v 2.25243306 -0.225303337 -0.856386304
v 3.4744494 -0.225303337 -0.856386304
v 3.4744494 0.225307003 -0.853127062
v 2.25243306 0.225307003 -0.853127062
v 3.4744494 0.225192249 7.62939436E-08
v 2.25243306 0.225079954 7.62939436E-08
v 2.25243306 0.225307003 -0.853127062
v 3.4744494 0.225307003 -0.853127062
v 3.4744494 -0.225303337 -0.856386304
v 3.4744494 -0.225305781 7.62939436E-08
v 4.69646597 -0.225303337 7.62939436E-08
v 4.69646597 -0.225303337 -0.856386304
v 3.4744494 -0.225303337 -0.856386304
v 4.69646597 -0.225303337 -0.856386304
v 4.69646597 0.225307003 -0.853127062
v 3.4744494 0.225307003 -0.853127062
v 4.69646597 0.225307003 7.62939436E-08
v 3.4744494 0.225192249 7.62939436E-08
v 3.4744494 0.225307003 -0.853127062
v 4.69646597 0.225307003 -0.853127062
v -4.13615084 -0.225303337 0.856386781
v -3.85765004 -0.225303337 0.856386781
v -3.85765004 -0.225305781 7.62939436E-08
v -4.13615084 -0.225305781 7.62939436E-08
v -4.2525816 -0.225303337 0.439299375
v -4.44664431 -0.225303337 0.682419479
v -4.69646835 -0.225303337 0.82141304
v -4.13615084 -0.225303337 0.856386781
v -3.85765004 0.225307003 0.85312748
v -3.85765004 -0.225303337 0.856386781
v -4.13615084 0.225307003 0.85312748
v -4.69646835 -0.225303337 0.82141304
v -4.69646835 0.225307003 0.818153739
v -3.85765004 0.225192249 7.62939436E-08
v -3.85765004 0.225307003 0.85312748
v -4.13615084 0.225307003 0.85312748
v -4.13615084 0.225165397 7.62939436E-08
v -4.25183964 0.225238636 0.46249029
v -4.4491539 0.225270376 0.692898035
v -4.69646835 0.225307003 0.818153739
v -3.85765004 -0.225303337 0.856386781
v -2.63563347 -0.225303337 0.856386781
v -2.63563347 -0.225303337 7.62939436E-08
v -3.85765004 -0.225305781 7.62939436E-08
v -3.85765004 -0.225303337 0.856386781
v -3.85765004 0.225307003 0.85312748
v -2.63563347 0.225307003 0.85312748
v -2.63563347 -0.225303337 0.856386781
v -2.63563347 0.225307003 7.62939436E-08
v -2.63563347 0.225307003 0.85312748
v -3.85765004 0.225307003 0.85312748
v -3.85765004 0.225192249 7.62939436E-08
v -4.13615084 -0.225303337 -0.856386304
v -3.85765004 -0.225305781 7.62939436E-08
v -3.85765004 -0.225303337 -0.856386304
v -4.13615084 -0.225305781 7.62939436E-08
v -4.21025753 -0.225305781 -0.412652194
v -4.3689146 -0.225303337 -0.6574471
v -4.69646835 -0.225303337 -0.856386304
v -4.13615084 -0.225303337 -0.856386304
v -3.85765004 -0.225303337 -0.856386304
v -3.85765004 0.225307003 -0.853127062
v -4.13615084 0.225307003 -0.853127062
v -4.69646835 -0.225303337 -0.856386304
v -4.69646835 0.225307003 -0.853127062
v -3.85765004 0.225192249 7.62939436E-08
v -4.13615084 0.225307003 -0.853127062
v -3.85765004 0.225307003 -0.853127062
v -4.13615084 0.225165397 7.62939436E-08
v -4.21067238 0.225228876 -0.425706387
v -4.36999846 0.225275263 -0.684998393
v -4.69646835 0.225307003 -0.853127062
v -3.85765004 -0.225303337 -0.856386304
v -3.85765004 -0.225305781 7.62939436E-08
v -2.63563347 -0.225303337 7.62939436E-08
v -2.63563347 -0.225303337 -0.856386304
v -3.85765004 -0.225303337 -0.856386304
v -2.63563347 -0.225303337 -0.856386304
v -2.63563347 0.225307003 -0.853127062
v -3.85765004 0.225307003 -0.853127062
v -2.63563347 0.225307003 7.62939436E-08
v -3.85765004 0.225192249 7.62939436E-08
v -3.85765004 0.225307003 -0.853127062
v -2.63563347 0.225307003 -0.853127062
v -2.63563347 -0.225303337 0.856386781
v -1.41361678 -0.225303337 0.856386781
v -1.41361678 -0.225305781 7.62939436E-08
v -2.63563347 -0.225305781 7.62939436E-08
v -2.63563347 -0.225303337 0.856386781
v -2.63563347 0.225307003 0.85312748
v -1.41361678 0.225307003 0.85312748
v -1.41361678 -0.225303337 0.856386781
v -1.41361678 0.225192249 7.62939436E-08
v -1.41361678 0.225307003 0.85312748
v -2.63563347 0.225307003 0.85312748
v -2.63563347 0.225079954 7.62939436E-08
v -1.41361678 -0.225303337 0.856386781
v -0.191600218 -0.225303337 0.856386781
v -0.191600218 -0.225303337 7.62939436E-08
v -1.41361678 -0.225305781 7.62939436E-08
v -1.41361678 -0.225303337 0.856386781
v -1.41361678 0.225307003 0.85312748
v -0.191600218 0.225307003 0.85312748
v -0.191600218 -0.225303337 0.856386781
v -0.191600218 0.225307003 7.62939436E-08
v -0.191600218 0.225307003 0.85312748
v -1.41361678 0.225307003 0.85312748
v -1.41361678 0.225192249 7.62939436E-08
v -2.63563347 -0.225303337 -0.856386304
v -2.63563347 -0.225305781 7.62939436E-08
v -1.41361678 -0.225305781 7.62939436E-08
v -1.41361678 -0.225303337 -0.856386304
v -2.63563347 -0.225303337 -0.856386304
v -1.41361678 -0.225303337 -0.856386304
v -1.41361678 0.225307003 -0.853127062
v -2.63563347 0.225307003 -0.853127062
v -1.41361678 0.225192249 7.62939436E-08
v -2.63563347 0.225079954 7.62939436E-08
v -2.63563347 0.225307003 -0.853127062
v -1.41361678 0.225307003 -0.853127062
v -1.41361678 -0.225303337 -0.856386304
v -1.41361678 -0.225305781 7.62939436E-08
v -0.191600218 -0.225303337 7.62939436E-08
v -0.191600218 -0.225303337 -0.856386304
v -1.41361678 -0.225303337 -0.856386304
v -0.191600218 -0.225303337 -0.856386304
v -0.191600218 0.225307003 -0.853127062
v -1.41361678 0.225307003 -0.853127062
v -0.191600218 0.225307003 7.62939436E-08
v -1.41361678 0.225192249 7.62939436E-08
v -1.41361678 0.225307003 -0.853127062
v -0.191600218 0.225307003 -0.853127062
v -4.4491539 0.225270376 0.692898035
v -4.69646835 0.225307003 0.818153739
v -4.69646835 -0.225303337 0.82141304
v -4.44664431 -0.225303337 0.682419479
v -4.2525816 -0.225303337 0.439299375
v -4.25183964 0.225238636 0.46249029
v -4.13615084 0.225165397 7.62939436E-08
v -4.13615084 -0.225305781 7.62939436E-08
v -4.21067238 0.225228876 -0.425706387
v -4.21025753 -0.225305781 -0.412652194
v -4.3689146 -0.225303337 -0.6574471
v -4.69646835 -0.225303337 -0.856386304
v -4.69646835 0.225307003 -0.853127062
v -4.36999846 0.225275263 -0.684998393
v -4.21025753 -0.225305781 -0.412652194
v -4.21067238 0.225228876 -0.425706387
vt 0.0892333984 0.536132812
vt 0.299804688 0.536132812
vt 0.299804688 0.624511719
vt 0.0892333984 0.624511719
vt 0.700683594 0.947753906
vt 0.700683594 0.906738281
vt 0.482666016 0.906738281
vt 0.482666016 0.947753906
vt 0.0860595703 0.721679688
vt 0.0860595703 0.816894531
vt 0.302246094 0.816894531
vt 0.302246094 0.721679688
vt 0.299804688 0.536132812
vt 0.0892333984 0.536132812
vt 0.0892333984 0.624511719
vt 0.299804688 0.624511719
vt 0.482666016 0.947753906
vt 0.482666016 0.906738281
vt 0.700683594 0.906738281
vt 0.700683594 0.947753906
vt 0.0860595703 0.721679688
vt 0.0860595703 0.816894531
vt 0.302246094 0.816894531
vt 0.302246094 0.721679688
vt 0.0892333984 0.536132812
vt 0.0892333984 0.624511719
vt 0.299804688 0.624511719
vt 0.299804688 0.536132812
vt 0.700683594 0.947753906
vt 0.482666016 0.947753906
vt 0.482666016 0.906738281
vt 0.700683594 0.906738281
vt 0.0860595703 0.721679688
vt 0.302246094 0.721679688
vt 0.302246094 0.816894531
vt 0.0860595703 0.816894531
vt 0.299804688 0.536132812
vt 0.299804688 0.624511719
vt 0.0892333984 0.624511719
vt 0.0892333984 0.536132812
vt 0.482666016 0.947753906
vt 0.700683594 0.947753906
vt 0.700683594 0.906738281
vt 0.482666016 0.906738281
vt 0.0860595703 0.721679688
vt 0.302246094 0.721679688
vt 0.302246094 0.816894531
vt 0.0860595703 0.816894531
vt 0.0892333984 0.536132812
vt 0.299804688 0.536132812
vt 0.299804688 0.624511719
vt 0.0892333984 0.624511719
vt 0.700683594 0.947753906
vt 0.700683594 0.906738281
vt 0.482666016 0.906738281
vt 0.482666016 0.947753906
vt 0.0860595703 0.721679688
vt 0.0860595703 0.816894531
vt 0.302246094 0.816894531
vt 0.302246094 0.721679688
vt 0.299804688 0.536132812
vt 0.0892333984 0.536132812
vt 0.0892333984 0.624511719
vt 0.299804688 0.624511719
vt 0.482666016 0.947753906
vt 0.482666016 0.906738281
vt 0.700683594 0.906738281
vt 0.700683594 0.947753906
vt 0.0860595703 0.721679688
vt 0.0860595703 0.816894531
vt 0.302246094 0.816894531
vt 0.302246094 0.721679688
vt 0.0892333984 0.536132812
vt 0.0892333984 0.624511719
vt 0.299804688 0.624511719
vt 0.299804688 0.536132812
vt 0.700683594 0.947753906
vt 0.482666016 0.947753906
vt 0.482666016 0.906738281
vt 0.700683594 0.906738281
vt 0.0860595703 0.721679688
vt 0.302246094 0.721679688
vt 0.302246094 0.816894531
vt 0.0860595703 0.816894531
vt 0.299804688 0.536132812
vt 0.299804688 0.624511719
vt 0.0892333984 0.624511719
vt 0.0892333984 0.536132812
vt 0.482666016 0.947753906
vt 0.700683594 0.947753906
vt 0.700683594 0.906738281
vt 0.482666016 0.906738281
vt 0.0860595703 0.721679688
vt 0.302246094 0.721679688
vt 0.302246094 0.816894531
vt 0.0860595703 0.816894531
vt 0.248901367 0.536132812
vt 0.299804688 0.536132812
vt 0.299804688 0.624511719
vt 0.248901367 0.624511719
vt 0.228759766 0.579101562
vt 0.19543457 0.554199219
vt 0.15234375 0.536132812
vt 0.53515625 0.947753906
vt 0.482666016 0.906738281
vt 0.482666016 0.947753906
vt 0.53515625 0.906738281
vt 0.635253906 0.947753906
vt 0.635253906 0.906738281
vt 0.0860595703 0.721679688
vt 0.0860595703 0.816894531
vt 0.138183594 0.816894531
vt 0.138183594 0.721679688
vt 0.158691406 0.7734375
vt 0.193603516 0.798828125
vt 0.237304688 0.816894531
vt 0.299804688 0.536132812
vt 0.0892333984 0.536132812
vt 0.0892333984 0.624511719
vt 0.299804688 0.624511719
vt 0.482666016 0.947753906
vt 0.482666016 0.906738281
vt 0.700683594 0.906738281
vt 0.700683594 0.947753906
vt 0.0860595703 0.721679688
vt 0.0860595703 0.816894531
vt 0.302246094 0.816894531
vt 0.302246094 0.721679688
vt 0.248901367 0.536132812
vt 0.299804688 0.624511719
vt 0.299804688 0.536132812
vt 0.248901367 0.624511719
vt 0.236083984 0.58203125
vt 0.208740234 0.556640625
vt 0.15234375 0.536132812
vt 0.53515625 0.947753906
vt 0.482666016 0.947753906
vt 0.482666016 0.906738281
vt 0.53515625 0.906738281
vt 0.635253906 0.947753906
vt 0.635253906 0.906738281
vt 0.0860595703 0.721679688
vt 0.138183594 0.816894531
vt 0.0860595703 0.816894531
vt 0.138183594 0.721679688
vt 0.151367188 0.769042969
vt 0.17956543 0.798339844
vt 0.237304688 0.816894531
vt 0.299804688 0.536132812
vt 0.299804688 0.624511719
vt 0.0892333984 0.624511719
vt 0.0892333984 0.536132812
vt 0.482666016 0.947753906
vt 0.700683594 0.947753906
vt 0.700683594 0.906738281
vt 0.482666016 0.906738281
vt 0.0860595703 0.721679688
vt 0.302246094 0.721679688
vt 0.302246094 0.816894531
vt 0.0860595703 0.816894531
vt 0.0892333984 0.536132812
vt 0.299804688 0.536132812
vt 0.299804688 0.624511719
vt 0.0892333984 0.624511719
vt 0.700683594 0.947753906
vt 0.700683594 0.906738281
vt 0.482666016 0.906738281
vt 0.482666016 0.947753906
vt 0.0860595703 0.721679688
vt 0.0860595703 0.816894531
vt 0.302246094 0.816894531
vt 0.302246094 0.721679688
vt 0.299804688 0.536132812
vt 0.0892333984 0.536132812
vt 0.0892333984 0.624511719
vt 0.299804688 0.624511719
vt 0.482666016 0.947753906
vt 0.482666016 0.906738281
vt 0.700683594 0.906738281
vt 0.700683594 0.947753906
vt 0.0860595703 0.721679688
vt 0.0860595703 0.816894531
vt 0.302246094 0.816894531
vt 0.302246094 0.721679688
vt 0.0892333984 0.536132812
vt 0.0892333984 0.624511719
vt 0.299804688 0.624511719
vt 0.299804688 0.536132812
vt 0.700683594 0.947753906
vt 0.482666016 0.947753906
vt 0.482666016 0.906738281
vt 0.700683594 0.906738281
vt 0.0860595703 0.721679688
vt 0.302246094 0.721679688
vt 0.302246094 0.816894531
vt 0.0860595703 0.816894531
vt 0.299804688 0.536132812
vt 0.299804688 0.624511719
vt 0.0892333984 0.624511719
vt 0.0892333984 0.536132812
vt 0.482666016 0.947753906
vt 0.700683594 0.947753906
vt 0.700683594 0.906738281
vt 0.482666016 0.906738281
vt 0.0860595703 0.721679688
vt 0.302246094 0.721679688
vt 0.302246094 0.816894531
vt 0.0860595703 0.816894531
vt 0.670898438 0.947753906
vt 0.700683594 0.947753906
vt 0.700683594 0.907714844
vt 0.670898438 0.907714844
vt 0.640136719 0.907714844
vt 0.640136719 0.947753906
vt 0.593261719 0.947753906
vt 0.593261719 0.907714844
vt 0.55078125 0.947753906
vt 0.55078125 0.907714844
vt 0.520996094 0.907714844
vt 0.483154297 0.907714844
vt 0.483154297 0.947753906
vt 0.520996094 0.947753906
vt 0.55078125 0.907714844
vt 0.55078125 0.947753906
vn -0 -1 1.49011612E-06
vn -0 -1 1.49011612E-06
vn -0 -1 0
vn -0 -1 0
vn -0 0.00723266602 1
vn -0 0.00723266602 1
vn -0 0.00723266602 1
vn -0 0.00723266602 1
vn -4.64320183E-05 1 0
vn -4.64320183E-05 1 -0.000200867653
vn -4.64320183E-05 1 -0.000200867653
vn -4.64320183E-05 1 0
vn 4.76837158E-07 -1 0
vn 4.76837158E-07 -1 0
vn 4.76837158E-07 -1 0
vn 4.76837158E-07 -1 0
vn -0 0.00723266602 1
vn -0 0.00723266602 1
vn -0 0.00723266602 1
vn -0 0.00723266602 1
vn -4.64320183E-05 1 0
vn -4.64320183E-05 1 -6.59227371E-05
vn -4.64320183E-05 1 -6.59227371E-05
vn -4.64320183E-05 1 0
vn -0 -1 -1.49011612E-06
vn -0 -1 0
vn -0 -1 0
vn -0 -1 -1.49011612E-06
vn -0 0.00723266602 -1
vn -0 0.00723266602 -1
vn -0 0.00723266602 -1
vn -0 0.00723266602 -1
vn -4.64320183E-05 1 0
vn -4.64320183E-05 1 0
vn -4.64320183E-05 1 0.000200867653
vn -4.64320183E-05 1 0.000200867653
vn 4.76837158E-07 -1 0
vn 4.76837158E-07 -1 0
vn 4.76837158E-07 -1 0
vn 4.76837158E-07 -1 0
vn -0 0.00723266602 -1
vn -0 0.00723266602 -1
vn -0 0.00723266602 -1
vn -0 0.00723266602 -1
vn -4.64320183E-05 1 0
vn -4.64320183E-05 1 0
vn -4.64320183E-05 1 6.59227371E-05
vn -4.64320183E-05 1 6.59227371E-05
vn -0 -1 1.49011612E-06
vn -0 -1 1.49011612E-06
vn -0 -1 0
vn -0 -1 0
vn -0 0.00723266602 1
vn -0 0.00723266602 1
vn -0 0.00723266602 1
vn -0 0.00723266602 1
vn -4.64320183E-05 1 0
vn -4.64320183E-05 1 -0.000200867653
vn -4.64320183E-05 1 -0.000200867653
vn -4.64320183E-05 1 0
vn 4.76837158E-07 -1 0
vn 4.76837158E-07 -1 0
vn 4.76837158E-07 -1 0
vn 4.76837158E-07 -1 0
vn -0 0.00723266602 1
vn -0 0.00723266602 1
vn -0 0.00723266602 1
vn -0 0.00723266602 1
vn -4.64320183E-05 1 0
vn -4.64320183E-05 1 -6.59227371E-05
vn -4.64320183E-05 1 -6.59227371E-05
vn -4.64320183E-05 1 0
vn -0 -1 -1.49011612E-06
vn -0 -1 0
vn -0 -1 0
vn -0 -1 -1.49011612E-06
vn -0 0.00723266602 -1
vn -0 0.00723266602 -1
vn -0 0.00723266602 -1
vn -0 0.00723266602 -1
vn -4.64320183E-05 1 0
vn -4.64320183E-05 1 0
vn -4.64320183E-05 1 0.000200867653
vn -4.64320183E-05 1 0.000200867653
vn 4.76837158E-07 -1 0
vn 4.76837158E-07 -1 0
vn 4.76837158E-07 -1 0
vn 4.76837158E-07 -1 0
vn -0 0.00723266602 -1
vn -0 0.00723266602 -1
vn -0 0.00723266602 -1
vn -0 0.00723266602 -1
vn -4.64320183E-05 1 0
vn -4.64320183E-05 1 0
vn -4.64320183E-05 1 6.59227371E-05
vn -4.64320183E-05 1 6.59227371E-05
vn -1.78813934E-07 -1 1.37090683E-06
vn -0 -1 1.60932541E-06
vn -0 -1 0
vn -0 -1 0
vn -3.63588333E-06 -1 0
vn -0 -1 0
vn -0 -1 0
vn -0.0416564941 0.00722503662 0.999023438
vn -0 0.00723266602 1
vn -0 0.00723266602 1
vn -0.0416564941 0.00722503662 0.999023438
vn -0.062286377 0.00721740723 0.998046875
vn -0.062286377 0.00721740723 0.998046875
vn -4.82201576E-05 1 0
vn -4.82201576E-05 1 -0.000147938728
vn -4.39882278E-05 1 -0.000153541565
vn -4.82797623E-05 1 -1.43051147E-06
vn -3.44514847E-05 1 -0.000163912773
vn -5.30481339E-06 1 -0.000213503838
vn 1.6272068E-05 1 -0.000257730484
vn 4.76837158E-07 -1 0
vn 4.76837158E-07 -1 0
vn 4.76837158E-07 -1 0
vn 4.76837158E-07 -1 0
vn -0 0.00723266602 1
vn -0 0.00723266602 1
vn -0 0.00723266602 1
vn -0 0.00723266602 1
vn -4.64320183E-05 1 0
vn -4.64320183E-05 1 -6.59227371E-05
vn -4.64320183E-05 1 -6.59227371E-05
vn -4.64320183E-05 1 0
vn -0 -1 -7.74860382E-07
vn -0 -1 0
vn -0 -1 -1.60932541E-06
vn -0 -1 0
vn 5.06639481E-06 -1 -2.2649765E-06
vn -1.13248825E-06 -1 4.11272049E-06
vn -0 -1 7.03334808E-06
vn -0 0.00723266602 -1
vn -0 0.00723266602 -1
vn -0 0.00723266602 -1
vn -0 0.00723266602 -1
vn -0 0.00723266602 -1
vn -0 0.00723266602 -1
vn -4.82201576E-05 1 0
vn -4.19020653E-05 1 0.000153303146
vn -4.82201576E-05 1 0.000147938728
vn -4.82797623E-05 1 -1.43051147E-06
vn -6.53862953E-05 1 0.000171065331
vn -5.36441803E-07 1 0.000183701515
vn -0 1 0.000182390213
vn 4.76837158E-07 -1 0
vn 4.76837158E-07 -1 0
vn 4.76837158E-07 -1 0
vn 4.76837158E-07 -1 0
vn -0 0.00723266602 -1
vn -0 0.00723266602 -1
vn -0 0.00723266602 -1
vn -0 0.00723266602 -1
vn -4.64320183E-05 1 0
vn -4.64320183E-05 1 0
vn -4.64320183E-05 1 6.59227371E-05
vn -4.64320183E-05 1 6.59227371E-05
vn -0 -1 1.49011612E-06
vn -0 -1 1.49011612E-06
vn -0 -1 0
vn -0 -1 0
vn -0 0.00723266602 1
vn -0 0.00723266602 1
vn -0 0.00723266602 1
vn -0 0.00723266602 1
vn -4.64320183E-05 1 0
vn -4.64320183E-05 1 -0.000200867653
vn -4.64320183E-05 1 -0.000200867653
vn -4.64320183E-05 1 0
vn 4.76837158E-07 -1 0
vn 4.76837158E-07 -1 0
vn 4.76837158E-07 -1 0
vn 4.76837158E-07 -1 0
vn -0 0.00723266602 1
vn -0 0.00723266602 1
vn -0 0.00723266602 1
vn -0 0.00723266602 1
vn -4.64320183E-05 1 0
vn -4.64320183E-05 1 -6.59227371E-05
vn -4.64320183E-05 1 -6.59227371E-05
vn -4.64320183E-05 1 0
vn -0 -1 -1.49011612E-06
vn -0 -1 0
vn -0 -1 0
vn -0 -1 -1.49011612E-06
vn -0 0.00723266602 -1
vn -0 0.00723266602 -1
vn -0 0.00723266602 -1
vn -0 0.00723266602 -1
vn -4.64320183E-05 1 0
vn -4.64320183E-05 1 0
vn -4.64320183E-05 1 0.000200867653
vn -4.64320183E-05 1 0.000200867653
vn 4.76837158E-07 -1 0
vn 4.76837158E-07 -1 0
vn 4.76837158E-07 -1 0
vn 4.76837158E-07 -1 0
vn -0 0.00723266602 -1
vn -0 0.00723266602 -1
vn -0 0.00723266602 -1
vn -0 0.00723266602 -1
vn -4.64320183E-05 1 0
vn -4.64320183E-05 1 0
vn -4.64320183E-05 1 6.59227371E-05
vn -4.64320183E-05 1 6.59227371E-05
vn -0.63671875 0.0145645142 -0.770996094
vn -0.469238281 0.00576400757 -0.8828125
vn -0.469238281 0.00576400757 -0.8828125
vn -0.640625 0.0147628784 -0.767578125
vn -0.913085938 0.0133056641 -0.407470703
vn -0.908203125 0.0137252808 -0.418457031
vn -0.999023438 0.00487136841 -0.0479125977
vn -0.999023438 0.00487136841 -0.0479125977
vn -0.943359375 0.0109100342 0.331298828
vn -0.945800781 0.0105667114 0.325195312
vn -0.672363281 0.0234985352 0.739746094
vn -0.489257812 0.0229034424 0.871582031
vn -0.489257812 0.0229034424 0.871582031
vn -0.662109375 0.0234985352 0.749023438
vn -0.945800781 0.0105667114 0.325195312
vn -0.943359375 0.0109100342 0.331298828
g Garage_Platform_P4_0
f 3/3/3 2/2/2 1/1/1
f 4/4/4 3/3/3 1/1/1
f 7/7/7 6/6/6 5/5/5
f 8/8/8 7/7/7 5/5/5
f 11/11/11 10/10/10 9/9/9
f 12/12/12 11/11/11 9/9/9
f 15/15/15 14/14/14 13/13/13
f 16/16/16 15/15/15 13/13/13
f 19/19/19 18/18/18 17/17/17
f 20/20/20 19/19/19 17/17/17
f 23/23/23 22/22/22 21/21/21
f 24/24/24 23/23/23 21/21/21
f 27/27/27 26/26/26 25/25/25
f 28/28/28 27/27/27 25/25/25
f 31/31/31 30/30/30 29/29/29
f 32/32/32 31/31/31 29/29/29
f 35/35/35 34/34/34 33/33/33
f 36/36/36 35/35/35 33/33/33
f 39/39/39 38/38/38 37/37/37
f 40/40/40 39/39/39 37/37/37
f 43/43/43 42/42/42 41/41/41
f 44/44/44 43/43/43 41/41/41
f 47/47/47 46/46/46 45/45/45
f 48/48/48 47/47/47 45/45/45
f 51/51/51 50/50/50 49/49/49
f 52/52/52 51/51/51 49/49/49
f 55/55/55 54/54/54 53/53/53
f 56/56/56 55/55/55 53/53/53
f 59/59/59 58/58/58 57/57/57
f 60/60/60 59/59/59 57/57/57
f 63/63/63 62/62/62 61/61/61
f 64/64/64 63/63/63 61/61/61
f 67/67/67 66/66/66 65/65/65
f 68/68/68 67/67/67 65/65/65
f 71/71/71 70/70/70 69/69/69
f 72/72/72 71/71/71 69/69/69
f 75/75/75 74/74/74 73/73/73
f 76/76/76 75/75/75 73/73/73
f 79/79/79 78/78/78 77/77/77
f 80/80/80 79/79/79 77/77/77
f 83/83/83 82/82/82 81/81/81
f 84/84/84 83/83/83 81/81/81
f 87/87/87 86/86/86 85/85/85
f 88/88/88 87/87/87 85/85/85
f 91/91/91 90/90/90 89/89/89
f 92/92/92 91/91/91 89/89/89
f 95/95/95 94/94/94 93/93/93
f 96/96/96 95/95/95 93/93/93
f 99/99/99 98/98/98 97/97/97
f 100/100/100 99/99/99 97/97/97
f 101/101/101 100/100/100 97/97/97
f 102/102/102 101/101/101 97/97/97
f 102/102/102 97/97/97 103/103/103
f 106/106/106 105/105/105 104/104/104
f 105/105/105 107/107/107 104/104/104
f 104/104/104 107/107/107 108/108/108
f 107/107/107 109/109/109 108/108/108
f 112/112/112 111/111/111 110/110/110
f 113/113/113 112/112/112 110/110/110
f 114/114/114 112/112/112 113/113/113
f 114/114/114 115/115/115 112/112/112
f 115/115/115 116/116/116 112/112/112
f 119/119/119 118/118/118 117/117/117
f 120/120/120 119/119/119 117/117/117
f 123/123/123 122/122/122 121/121/121
f 124/124/124 123/123/123 121/121/121
f 127/127/127 126/126/126 125/125/125
f 128/128/128 127/127/127 125/125/125
f 131/131/131 130/130/130 129/129/129
f 130/130/130 132/132/132 129/129/129
f 129/129/129 132/132/132 133/133/133
f 129/129/129 133/133/133 134/134/134
f 129/129/129 134/134/134 135/135/135
f 138/138/138 137/137/137 136/136/136
f 139/139/139 138/138/138 136/136/136
f 139/139/139 136/136/136 140/140/140
f 141/141/141 139/139/139 140/140/140
f 144/144/144 143/143/143 142/142/142
f 143/143/143 145/145/145 142/142/142
f 143/143/143 146/146/146 145/145/145
f 147/147/147 146/146/146 143/143/143
f 147/147/147 143/143/143 148/148/148
f 151/151/151 150/150/150 149/149/149
f 152/152/152 151/151/151 149/149/149
f 155/155/155 154/154/154 153/153/153
f 156/156/156 155/155/155 153/153/153
f 159/159/159 158/158/158 157/157/157
f 160/160/160 159/159/159 157/157/157
f 163/163/163 162/162/162 161/161/161
f 164/164/164 163/163/163 161/161/161
f 167/167/167 166/166/166 165/165/165
f 168/168/168 167/167/167 165/165/165
f 171/171/171 170/170/170 169/169/169
f 172/172/172 171/171/171 169/169/169
f 175/175/175 174/174/174 173/173/173
f 176/176/176 175/175/175 173/173/173
f 179/179/179 178/178/178 177/177/177
f 180/180/180 179/179/179 177/177/177
f 183/183/183 182/182/182 181/181/181
f 184/184/184 183/183/183 181/181/181
f 187/187/187 186/186/186 185/185/185
f 188/188/188 187/187/187 185/185/185
f 191/191/191 190/190/190 189/189/189
f 192/192/192 191/191/191 189/189/189
f 195/195/195 194/194/194 193/193/193
f 196/196/196 195/195/195 193/193/193
f 199/199/199 198/198/198 197/197/197
f 200/200/200 199/199/199 197/197/197
f 203/203/203 202/202/202 201/201/201
f 204/204/204 203/203/203 201/201/201
f 207/207/207 206/206/206 205/205/205
f 208/208/208 207/207/207 205/205/205
f 211/211/211 210/210/210 209/209/209
f 212/212/212 211/211/211 209/209/209
f 213/213/213 212/212/212 209/209/209
f 214/214/214 213/213/213 209/209/209
f 214/214/214 215/215/215 213/213/213
f 215/215/215 216/216/216 213/213/213
f 215/215/215 217/217/217 216/216/216
f 217/217/217 218/218/218 216/216/216
f 221/221/221 220/220/220 219/219/219
f 222/222/222 221/221/221 219/219/219
f 222/222/222 219/219/219 223/223/223
f 224/224/224 222/222/222 223/223/223
