g Gatehouse_WindowBig_Door_Glass
v 0.0101428218 -0.464243919 0.5400244
v 0.0101428218 0.464243919 0.5400244
v 0.0101428218 0.464243919 -0.5400244
v 0.0101428218 -0.464243919 -0.5400244
v -0.0101428218 -0.464243919 -0.5400244
v -0.0101428218 0.464243919 -0.5400244
v -0.0101428218 0.464243919 0.540019512
v -0.0101428218 -0.464243919 0.540019512
vt 0.836425781 0.281982422
vt 0.749511719 0.281982422
vt 0.749511719 0.37890625
vt 0.836425781 0.37890625
vt 0.836425781 0.37890625
vt 0.749511719 0.37890625
vt 0.749511719 0.281982422
vt 0.836425781 0.281982422
vn 1 0 0
vn 1 0 0
vn 1 0 0
vn 1 0 0
vn -1 0 0
vn -1 0 0
vn -1 0 0
vn -1 0 0
g Gatehouse_WindowBig_Door_Glass_0
f 3/3/3 2/2/2 1/1/1
f 4/4/4 3/3/3 1/1/1
f 7/7/7 6/6/6 5/5/5
f 8/8/8 7/7/7 5/5/5
