g Rock_B_12
v 0.104967431 -0.081580392 -0.104628489
v 0.11784725 -0.0385346819 -0.129371298
v 0.0690395158 -0.0378567967 -0.139878519
v 0.0544649841 -0.081580392 -0.114118882
v -0.0387442307 -0.0812414494 -0.0842919328
v -0.0516240495 -0.0361620837 -0.101239063
v -0.120090454 -0.081580392 -0.0385346819
v -0.0560303032 0.0180687321 -0.0870034736
v 0.0510755581 0.0180687321 -0.117169365
v -0.152967887 -0.0378567967 -0.0436188209
v -0.17160973 -0.0385346819 -0.0032846516
v -0.140088068 -0.081580392 0.00146054479
v 0.11784725 -0.0385346819 -0.129371298
v 0.0510755581 0.0180687321 -0.117169365
v 0.0690395158 -0.0378567967 -0.139878519
v 0.100222235 0.0194245025 -0.104289546
v 0.135811208 0.0217971007 -0.0561596971
v 0.171061238 -0.0381957393 -0.0720899992
v 0.175128549 -0.0385346819 -0.0022678238
v 0.0022678238 0.06213127 -0.0585322953
v -0.0560303032 0.0180687321 -0.0870034736
v 0.135472265 0.0194245025 0.00722256897
v 0.138861691 -0.0378567967 0.0516240495
v 0.105306374 0.0180687321 0.057047131
v 0.0924265552 0.0478956809 -0.0205707242
v 0.0920876126 0.0478956809 -0.0361620837
v 0.0405683375 0.065520696 0.0380663455
v 0.0788688512 0.0458620253 -0.0642943194
v 0.0276885187 0.0682322368 -0.0022678238
v -0.0502682791 0.0726384906 -0.0422630505
v -0.134664986 0.0184076747 -0.0368399689
v -0.152967887 -0.0378567967 -0.0436188209
v -0.0251865267 0.0814509982 0.0238307563
v -0.085857252 0.0709437776 -0.0188760112
v -0.00349420038 0.0767058018 0.0658596386
v 0.0263327483 0.0180687321 0.106532751
v -0.0611144422 0.0777226296 0.0377274029
v -0.105515923 0.0600976144 0.0523019346
v -0.0451841401 0.0743332036 0.0760279166
v -0.0950087021 -0.081580392 0.105515923
v -0.0709437776 -0.0378567967 0.145850092
v -0.0519629921 -0.081580392 0.118395741
v -0.11297266 -0.0385346819 0.131614503
v -0.156696255 -0.0381957393 0.070604835
v -0.128564019 -0.081580392 0.0580639588
v -0.17160973 -0.0385346819 -0.0032846516
v -0.140088068 -0.081580392 0.00146054479
v 0.0337894855 -0.0812414494 0.0922971613
v -0.0519629921 -0.081580392 0.118395741
v -0.0709437776 -0.0378567967 0.145850092
v 0.0395515097 -0.0361620837 0.111955832
v 0.138861691 -0.0378567967 0.0516240495
v 0.105645317 -0.081580392 0.0516240495
v 0.105306374 0.0180687321 0.057047131
v 0.0263327483 0.0180687321 0.106532751
v 0.175128549 -0.0385346819 -0.0022678238
v 0.141234289 -0.081580392 0.000782659589
v 0.14259006 -0.081580392 -0.0592101804
v 0.171061238 -0.0381957393 -0.0720899992
v 0.171061238 -0.0381957393 -0.0720899992
v 0.11784725 -0.0385346819 -0.129371298
v 0.104967431 -0.081580392 -0.104628489
v 0.14259006 -0.081580392 -0.0592101804
v -0.0502682791 0.0726384906 -0.0422630505
v -0.085857252 0.0709437776 -0.0188760112
v -0.134664986 0.0184076747 -0.0368399689
v -0.114667373 0.0577250162 0.0255254693
v -0.105515923 0.0600976144 0.0523019346
v -0.151273174 0.0197634451 0.00417208558
v -0.152967887 -0.0378567967 -0.0436188209
v -0.17160973 -0.0385346819 -0.0032846516
v -0.13771547 0.0221360433 0.0624702126
v -0.104499095 0.0197634451 0.112294775
v -0.156696255 -0.0381957393 0.070604835
v 0.0263327483 0.0180687321 0.106532751
v -0.0451841401 0.0743332036 0.0760279166
v -0.00349420038 0.0767058018 0.0658596386
v -0.0631480978 0.0184076747 0.128225077
v 0.0395515097 -0.0361620837 0.111955832
v -0.0709437776 -0.0378567967 0.145850092
v -0.11297266 -0.0385346819 0.131614503
v -0.104499095 0.0197634451 0.112294775
v -0.13771547 0.0221360433 0.0624702126
v -0.156696255 -0.0381957393 0.070604835
v -0.0990760133 0.0600976144 0.06213127
v -0.105515923 0.0600976144 0.0523019346
vt 0.414555307 0.60114122
vt 0.431517663 0.570043568
vt 0.40324707 0.544600034
vt 0.369322358 0.544600034
vt 0.349532943 0.437171781
vt 0.380630596 0.437171781
vt 0.397592951 0.338224706
vt 0.420209426 0.437171781
vt 0.428690603 0.513502382
vt 0.428690603 0.349532943
vt 0.459788256 0.332570588
vt 0.445652959 0.301472935
vt 0.431517663 0.570043568
vt 0.428690603 0.513502382
vt 0.40324707 0.544600034
vt 0.451307078 0.538945916
vt 0.490885908 0.550254153
vt 0.488058848 0.592660042
vt 0.538945916 0.584178864
vt 0.462615315 0.471096493
vt 0.420209426 0.437171781
vt 0.533291797 0.541772975
vt 0.584178864 0.555908271
vt 0.564389449 0.516329441
vt 0.505021204 0.516329441
vt 0.496540026 0.519156501
vt 0.533291797 0.476750611
vt 0.473923552 0.516329441
vt 0.505021204 0.476750611
vt 0.465442374 0.439998841
vt 0.448480018 0.380630596
vt 0.428690603 0.349532943
vt 0.507848263 0.4428259
vt 0.473923552 0.414555307
vt 0.536118856 0.445652959
vt 0.584178864 0.456961196
vt 0.510675323 0.420209426
vt 0.510675323 0.391938833
vt 0.536118856 0.423036485
vt 0.589832983 0.318435291
vt 0.598314161 0.369322358
vt 0.632238872 0.366495299
vt 0.572870627 0.346705884
vt 0.516329441 0.321262351
vt 0.519156501 0.295818817
vt 0.459788256 0.332570588
vt 0.445652959 0.301472935
vt 0.652028287 0.468269433
vt 0.632238872 0.366495299
vt 0.598314161 0.369322358
vt 0.623757694 0.462615315
vt 0.584178864 0.555908271
vt 0.620930635 0.555908271
vt 0.564389449 0.516329441
vt 0.584178864 0.456961196
vt 0.538945916 0.584178864
vt 0.56156239 0.609622398
vt 0.485231789 0.623757694
vt 0.488058848 0.592660042
vt 0.488058848 0.592660042
vt 0.431517663 0.570043568
vt 0.414555307 0.60114122
vt 0.485231789 0.623757694
vt 0.465442374 0.439998841
vt 0.473923552 0.414555307
vt 0.448480018 0.380630596
vt 0.493712967 0.391938833
vt 0.510675323 0.391938833
vt 0.473923552 0.36366824
vt 0.428690603 0.349532943
vt 0.459788256 0.332570588
vt 0.513502382 0.36366824
vt 0.550254153 0.372149418
vt 0.516329441 0.321262351
vt 0.584178864 0.456961196
vt 0.536118856 0.423036485
vt 0.536118856 0.445652959
vt 0.572870627 0.394765892
vt 0.623757694 0.462615315
vt 0.598314161 0.369322358
vt 0.572870627 0.346705884
vt 0.550254153 0.372149418
vt 0.513502382 0.36366824
vt 0.516329441 0.321262351
vt 0.519156501 0.394765892
vt 0.510675323 0.391938833
vn 0.443302362 -0.568439123 -0.693080067
vn 0.568439123 0.0259604937 -0.822315643
vn -0.0885288744 -0.0366078871 -0.995400674
vn -0.182381445 -0.443302362 -0.8776218
vn -0.370086588 -0.412018171 -0.832632538
vn -0.401370778 -0.0678920774 -0.913395952
vn -0.526507539 -0.474586552 -0.705377499
vn -0.370086588 0.432654968 -0.822098289
vn -0.0885288744 0.526507539 -0.845548609
vn -0.682928491 -0.0678920774 -0.727323409
vn -0.995076764 -0.0991071839 -0
vn -0.803007179 -0.595969354 -0
vn 0.568439123 0.0259604937 -0.822315643
vn -0.0885288744 0.526507539 -0.845548609
vn -0.0885288744 -0.0366078871 -0.995400674
vn 0.412018171 0.651644301 -0.636867908
vn 0.724860075 0.651644301 -0.223467172
vn 0.912565217 0.057244684 -0.404904644
vn 0.975133598 0.057244684 0.21409697
vn 0.0053236967 0.870633633 -0.491903176
vn -0.370086588 0.432654968 -0.822098289
vn 0.724860075 0.651644301 0.223467172
vn 0.693575885 -0.0366078871 0.719452816
vn 0.568439123 0.526507539 0.632192039
vn 0.443302362 0.870633633 0.213260621
vn 0.349449791 0.933202014 -0.0837785457
vn 0.412018171 0.839349443 0.354589254
vn 0.224313029 0.901917824 -0.369090645
vn 0.224313029 0.964486204 -0.139463351
vn -0.182381445 0.839349443 -0.51208351
vn -0.62036011 0.463939159 -0.632387374
vn -0.682928491 -0.0678920774 -0.727323409
vn 0.0678920774 0.995770395 -0.0619030424
vn -0.432654968 0.808065253 -0.399800232
vn 0.25559722 0.808065253 0.530754754
vn 0.349449791 0.432654968 0.831080334
vn -0.182381445 0.964486204 0.191058551
vn -0.55779173 0.808065253 0.189470139
vn -0.0259604937 0.776781062 0.629235436
vn -0.526507539 -0.599723314 0.60259585
vn 0.0678920774 -0.0991762678 0.992751094
vn 0.161744649 -0.474586552 0.865220361
vn -0.651644301 -0.0991762678 0.752013147
vn -0.901917824 -0.0991762678 0.420366872
vn -0.745496872 -0.568439123 0.348010599
vn -0.995076764 -0.0991071839 -0
vn -0.803007179 -0.595969354 -0
vn 0.380733981 -0.412018171 0.827818013
vn 0.161744649 -0.474586552 0.865220361
vn 0.0678920774 -0.0991762678 0.992751094
vn 0.412018171 -0.0678920774 0.908642775
vn 0.693575885 -0.0366078871 0.719452816
vn 0.537154933 -0.443302362 0.717598491
vn 0.568439123 0.526507539 0.632192039
vn 0.349449791 0.432654968 0.831080334
vn 0.975133598 0.057244684 0.21409697
vn 0.787428456 -0.568439123 0.238397547
vn 0.756144265 -0.599723314 -0.261873628
vn 0.912565217 0.057244684 -0.404904644
vn 0.912565217 0.057244684 -0.404904644
vn 0.568439123 0.0259604937 -0.822315643
vn 0.443302362 -0.568439123 -0.693080067
vn 0.756144265 -0.599723314 -0.261873628
vn -0.182381445 0.839349443 -0.51208351
vn -0.432654968 0.808065253 -0.399800232
vn -0.62036011 0.463939159 -0.632387374
vn -0.608952838 0.79320643 -0
vn -0.55779173 0.808065253 0.189470139
vn -0.869222688 0.494420792 -0
vn -0.682928491 -0.0678920774 -0.727323409
vn -0.995076764 -0.0991071839 -0
vn -0.839349443 0.432654968 0.329092982
vn -0.526507539 0.495223349 0.691045328
vn -0.901917824 -0.0991762678 0.420366872
vn 0.349449791 0.432654968 0.831080334
vn -0.0259604937 0.776781062 0.629235436
vn 0.25559722 0.808065253 0.530754754
vn 0.0366078871 0.463939159 0.885110343
vn 0.412018171 -0.0678920774 0.908642775
vn 0.0678920774 -0.0991762678 0.992751094
vn -0.651644301 -0.0991762678 0.752013147
vn -0.526507539 0.495223349 0.691045328
vn -0.839349443 0.432654968 0.329092982
vn -0.901917824 -0.0991762678 0.420366872
vn -0.401370778 0.776781062 0.485296487
vn -0.55779173 0.808065253 0.189470139
g Rock_B_12_0
f 3/3/3 2/2/2 1/1/1
f 4/4/4 3/3/3 1/1/1
f 4/4/4 5/5/5 3/3/3
f 5/5/5 6/6/6 3/3/3
f 5/5/5 7/7/7 6/6/6
f 6/6/6 8/8/8 3/3/3
f 8/8/8 9/9/9 3/3/3
f 6/6/6 10/10/10 8/8/8
f 7/7/7 10/10/10 6/6/6
f 11/11/11 10/10/10 7/7/7
f 12/12/12 11/11/11 7/7/7
f 15/15/15 14/14/14 13/13/13
f 14/14/14 16/16/16 13/13/13
f 13/13/13 16/16/16 17/17/17
f 18/18/18 13/13/13 17/17/17
f 18/18/18 17/17/17 19/19/19
f 16/16/16 14/14/14 20/20/20
f 14/14/14 21/21/21 20/20/20
f 17/17/17 22/22/22 19/19/19
f 19/19/19 22/22/22 23/23/23
f 22/22/22 24/24/24 23/23/23
f 22/22/22 17/17/17 25/25/25
f 24/24/24 22/22/22 25/25/25
f 26/26/26 17/17/17 16/16/16
f 17/17/17 26/26/26 25/25/25
f 27/27/27 24/24/24 25/25/25
f 27/27/27 25/25/25 26/26/26
f 28/28/28 26/26/26 16/16/16
f 28/28/28 16/16/16 20/20/20
f 29/29/29 26/26/26 28/28/28
f 20/20/20 29/29/29 28/28/28
f 29/29/29 27/27/27 26/26/26
f 21/21/21 30/30/30 20/20/20
f 20/20/20 30/30/30 29/29/29
f 21/21/21 31/31/31 30/30/30
f 32/32/32 31/31/31 21/21/21
f 30/30/30 33/33/33 29/29/29
f 29/29/29 33/33/33 27/27/27
f 33/33/33 30/30/30 34/34/34
f 27/27/27 35/35/35 24/24/24
f 33/33/33 35/35/35 27/27/27
f 35/35/35 36/36/36 24/24/24
f 37/37/37 33/33/33 34/34/34
f 33/33/33 37/37/37 35/35/35
f 37/37/37 34/34/34 38/38/38
f 37/37/37 39/39/39 35/35/35
f 37/37/37 38/38/38 39/39/39
f 42/42/42 41/41/41 40/40/40
f 41/41/41 43/43/43 40/40/40
f 40/40/40 43/43/43 44/44/44
f 45/45/45 40/40/40 44/44/44
f 45/45/45 44/44/44 46/46/46
f 47/47/47 45/45/45 46/46/46
f 50/50/50 49/49/49 48/48/48
f 51/51/51 50/50/50 48/48/48
f 51/51/51 48/48/48 52/52/52
f 48/48/48 53/53/53 52/52/52
f 51/51/51 52/52/52 54/54/54
f 55/55/55 51/51/51 54/54/54
f 56/56/56 52/52/52 53/53/53
f 57/57/57 56/56/56 53/53/53
f 57/57/57 58/58/58 56/56/56
f 58/58/58 59/59/59 56/56/56
f 62/62/62 61/61/61 60/60/60
f 63/63/63 62/62/62 60/60/60
f 66/66/66 65/65/65 64/64/64
f 67/67/67 65/65/65 66/66/66
f 65/65/65 67/67/67 68/68/68
f 69/69/69 67/67/67 66/66/66
f 69/69/69 66/66/66 70/70/70
f 71/71/71 69/69/69 70/70/70
f 72/72/72 68/68/68 67/67/67
f 69/69/69 72/72/72 67/67/67
f 72/72/72 69/69/69 71/71/71
f 72/72/72 73/73/73 68/68/68
f 74/74/74 72/72/72 71/71/71
f 77/77/77 76/76/76 75/75/75
f 76/76/76 78/78/78 75/75/75
f 75/75/75 78/78/78 79/79/79
f 78/78/78 80/80/80 79/79/79
f 80/80/80 78/78/78 81/81/81
f 78/78/78 76/76/76 82/82/82
f 78/78/78 82/82/82 81/81/81
f 81/81/81 82/82/82 83/83/83
f 84/84/84 81/81/81 83/83/83
f 76/76/76 85/85/85 82/82/82
f 82/82/82 85/85/85 86/86/86
f 86/86/86 85/85/85 76/76/76
