g IS4_MDL_EscenarioGaraje_Estatua_Paredes_Trampilla
v -0.513719499 0.471488476 -0.0543093756
v -0.48937133 -0.474680215 -0.0555648692
v 0.513719499 -0.474680215 -0.0270950235
v 0.503978252 0.471488476 -0.0266940221
v -0.531412363 0.493183345 -0.0435159206
v -0.513719499 0.471488476 -0.0543093756
v 0.503978252 0.471488476 -0.0266940221
v 0.529893816 0.493183345 -0.0136752231
v 0.529893816 0.493183345 -0.0136752231
v 0.503978252 0.471488476 -0.0266940221
v 0.513719499 -0.474680215 -0.0270950235
v 0.534923077 -0.496375561 -0.0149001991
v 0.534923077 -0.496375561 -0.0149001991
v 0.513719499 -0.474680215 -0.0270950235
v -0.48937133 -0.474680215 -0.0555648692
v -0.503265381 -0.496375561 -0.0443594269
v -0.503265381 -0.496375561 -0.0443594269
v -0.48937133 -0.474680215 -0.0555648692
v -0.513719499 0.471488476 -0.0543093756
v -0.531412363 0.493183345 -0.0435159206
v 0.518282473 -0.480720252 0.0427322462
v -0.487161845 -0.480720252 0.00174408779
v -0.505450428 0.476152271 0.00178315025
v 0.520062268 0.480720282 0.0434408672
v 0.534923077 -0.496375561 0.0282876659
v 0.518282473 -0.480720252 0.0427322462
v 0.520062268 0.480720282 0.0434408672
v 0.533958733 0.496375561 0.0315591507
v 0.533958733 0.496375561 0.0315591507
v 0.520062268 0.480720282 0.0434408672
v -0.505450428 0.476152271 0.00178315025
v -0.528013885 0.491658777 -0.00303557538
v -0.528013885 0.491658777 -0.00303557538
v -0.505450428 0.476152271 0.00178315025
v -0.487161845 -0.480720252 0.00174408779
v -0.503265381 -0.496375561 -0.00682829972
v -0.503265381 -0.496375561 -0.00682829972
v -0.487161845 -0.480720252 0.00174408779
v 0.518282473 -0.480720252 0.0427322462
v 0.534923077 -0.496375561 0.0282876659
v 0.534923077 -0.496375561 0.0282876659
v 0.534923077 -0.496375561 -0.0149001991
v -0.503265381 -0.496375561 -0.0443594269
v -0.503265381 -0.496375561 -0.00682829972
v 0.533958733 0.496375561 0.0315591507
v 0.529893816 0.493183345 -0.0136752231
v 0.534923077 -0.496375561 -0.0149001991
v 0.534923077 -0.496375561 0.0282876659
v -0.528013885 0.491658777 -0.00303557538
v -0.531412363 0.493183345 -0.0435159206
v 0.529893816 0.493183345 -0.0136752231
v 0.533958733 0.496375561 0.0315591507
v -0.503265381 -0.496375561 -0.00682829972
v -0.503265381 -0.496375561 -0.0443594269
v -0.531412363 0.493183345 -0.0435159206
v -0.528013885 0.491658777 -0.00303557538
vt 0.209838867 0.303710938
vt 0.211425781 0.328857422
vt 0.23840332 0.327636719
vt 0.237060547 0.302490234
vt 0.6640625 0.106140137
vt 0.663085938 0.101928711
vt 0.586914062 0.0778808594
vt 0.583984375 0.0809936523
vt 0.586914062 0.0785522461
vt 0.587402344 0.083190918
vt 0.658203125 0.105529785
vt 0.661132812 0.101989746
vt 0.663574219 0.106079102
vt 0.662597656 0.101928711
vt 0.587402344 0.0781860352
vt 0.584472656 0.0812988281
vt 0.661132812 0.105407715
vt 0.660644531 0.100891113
vt 0.589355469 0.0785522461
vt 0.586914062 0.08203125
vt 0.529296875 0.0129928589
vt 0.374267578 0.0129928589
vt 0.374267578 0.254394531
vt 0.53515625 0.255615234
vt 0.512695312 0.0128097534
vt 0.516113281 0.0148849487
vt 0.516113281 0.142578125
vt 0.512695312 0.144775391
vt 0.657226562 0.0247955322
vt 0.652832031 0.0434265137
vt 0.393066406 0.0432739258
vt 0.388916016 0.0246124268
vt 0.512695312 0.14440918
vt 0.516113281 0.142333984
vt 0.516113281 0.0151443481
vt 0.512695312 0.0131072998
vt 0.391601562 0.014251709
vt 0.395507812 0.0216827393
vt 0.650390625 0.0216827393
vt 0.654785156 0.014251709
vt 0.890136719 0.554199219
vt 0.881835938 0.554199219
vt 0.881835938 0.72265625
vt 0.890136719 0.72265625
vt 0.881835938 0.71875
vt 0.890625 0.71875
vt 0.890625 0.558105469
vt 0.881835938 0.558105469
vt 0.881835938 0.724609375
vt 0.890625 0.724609375
vt 0.890625 0.552246094
vt 0.881835938 0.552246094
vt 0.890136719 0.558105469
vt 0.882324219 0.558105469
vt 0.882324219 0.71875
vt 0.890136719 0.71875
vn 0.0277404785 0.00137519836 -0.999511719
vn 0.0277404785 0.00137519836 -0.999511719
vn 0.0277404785 0.00137519836 -0.999511719
vn 0.0277404785 0.00137519836 -0.999511719
vn 0.0242767334 0.477539062 -0.878417969
vn 0.0242767334 0.477539062 -0.878417969
vn 0.0242767334 0.477539062 -0.878417969
vn 0.0242767334 0.477539062 -0.878417969
vn 0.471679688 0.00434494019 -0.881835938
vn 0.471679688 0.00434494019 -0.881835938
vn 0.471679688 0.00434494019 -0.881835938
vn 0.471679688 0.00434494019 -0.881835938
vn 0.0250244141 -0.471191406 -0.881835938
vn 0.0250244141 -0.471191406 -0.881835938
vn 0.0250244141 -0.471191406 -0.881835938
vn 0.0250244141 -0.471191406 -0.881835938
vn -0.571289062 -0.0146102905 -0.8203125
vn -0.571289062 -0.0146102905 -0.8203125
vn -0.571289062 -0.0146102905 -0.8203125
vn -0.571289062 -0.0146102905 -0.8203125
vn -0.0406494141 -0.000739097595 0.999023438
vn -0.0406494141 -0.000739097595 0.999023438
vn -0.0406494141 -0.000739097595 0.999023438
vn -0.0406494141 -0.000739097595 0.999023438
vn 0.652832031 -0.00181484222 0.757324219
vn 0.652832031 -0.00181484222 0.757324219
vn 0.652832031 -0.00181484222 0.757324219
vn 0.652832031 -0.00181484222 0.757324219
vn -0.0343933105 0.464599609 0.884765625
vn -0.0343933105 0.464599609 0.884765625
vn -0.0343933105 0.464599609 0.884765625
vn -0.0343933105 0.464599609 0.884765625
vn -0.327148438 -0.00910186768 0.944824219
vn -0.327148438 -0.00910186768 0.944824219
vn -0.327148438 -0.00910186768 0.944824219
vn -0.327148438 -0.00910186768 0.944824219
vn -0.0299835205 -0.592285156 0.805175781
vn -0.0299835205 -0.592285156 0.805175781
vn -0.0299835205 -0.592285156 0.805175781
vn -0.0299835205 -0.592285156 0.805175781
vn -0 -1 0
vn -0 -1 0
vn -0 -1 0
vn -0 -1 0
vn 0.999023438 0.00312614441 -0.0460205078
vn 0.999023438 0.00312614441 -0.0460205078
vn 0.999023438 0.00312614441 -0.0460205078
vn 0.999023438 0.00312614441 -0.0460205078
vn -0.00163459778 1 -0.0193023682
vn -0.00163459778 1 -0.0193023682
vn -0.00163459778 1 -0.0193023682
vn -0.00163459778 1 -0.0193023682
vn -0.998535156 -0.0268096924 0.04296875
vn -0.998535156 -0.0268096924 0.04296875
vn -0.998535156 -0.0268096924 0.04296875
vn -0.998535156 -0.0268096924 0.04296875
g IS4_MDL_EscenarioGaraje_Estatua_Paredes_Trampilla_0
f 3/3/3 2/2/2 1/1/1
f 4/4/4 3/3/3 1/1/1
f 7/7/7 6/6/6 5/5/5
f 8/8/8 7/7/7 5/5/5
f 11/11/11 10/10/10 9/9/9
f 12/12/12 11/11/11 9/9/9
f 15/15/15 14/14/14 13/13/13
f 16/16/16 15/15/15 13/13/13
f 19/19/19 18/18/18 17/17/17
f 20/20/20 19/19/19 17/17/17
g IS4_MDL_EscenarioGaraje_Estatua_Paredes_Trampilla_1
f 23/23/23 22/22/22 21/21/21
f 24/24/24 23/23/23 21/21/21
f 27/27/27 26/26/26 25/25/25
f 28/28/28 27/27/27 25/25/25
f 31/31/31 30/30/30 29/29/29
f 32/32/32 31/31/31 29/29/29
f 35/35/35 34/34/34 33/33/33
f 36/36/36 35/35/35 33/33/33
f 39/39/39 38/38/38 37/37/37
f 40/40/40 39/39/39 37/37/37
f 43/43/43 42/42/42 41/41/41
f 44/44/44 43/43/43 41/41/41
f 47/47/47 46/46/46 45/45/45
f 48/48/48 47/47/47 45/45/45
f 51/51/51 50/50/50 49/49/49
f 52/52/52 51/51/51 49/49/49
f 55/55/55 54/54/54 53/53/53
f 56/56/56 55/55/55 53/53/53
