g IS4_MDL_EscenarioPB_FocoTecho_Agarre_2
v 0.0201433171 -0.179470122 0.0237206891
v 0.0201433171 0.0129523724 0.0237206891
v 0.0217815004 0.0129523724 -0.0176745728
v 0.0217815004 -0.179470122 -0.0176745728
v -0.0197785571 -0.179470122 0.0221325532
v -0.0197785571 0.0129523724 0.0221325532
v 0.0201433171 0.0129523724 0.0237206891
v 0.0201433171 -0.179470122 0.0237206891
v -0.0181379318 -0.179470122 -0.0192578249
v -0.0181379318 0.0129523724 -0.0192578249
v -0.0197785571 0.0129523724 0.0221325532
v -0.0197785571 -0.179470122 0.0221325532
v 0.0217815004 -0.179470122 -0.0176745728
v 0.0217815004 0.0129523724 -0.0176745728
v -0.0181379318 0.0129523724 -0.0192578249
v -0.0181379318 -0.179470122 -0.0192578249
v 0.0270231999 -0.400454283 -0.123568125
v 0.0283952709 -0.400453985 -0.158240974
v -0.0157697685 -0.400453985 -0.159990236
v -0.0171418395 -0.400454283 -0.125319824
v 0.0242741778 -0.170682281 -0.0543164201
v 0.0198308174 -0.170682281 0.0575610213
v -0.0243317783 -0.170682281 0.0557995439
v -0.0198908616 -0.170682281 -0.0560681298
v 0.0157609917 -0.400453985 0.159999982
v 0.0170012265 -0.400454283 0.128771961
v -0.027163811 -0.400454283 0.127017811
v -0.0284089278 -0.400453985 0.158247054
v 0.0197233949 -0.216143399 0.0601965189
v 0.0243523028 -0.215151876 -0.0563140996
v -0.0198127367 -0.215151876 -0.0580676384
v -0.0244392008 -0.216143399 0.0584387034
v -0.0198908616 -0.170682281 -0.0560681298
v -0.0187067799 -0.189210713 -0.0858960003
v 0.0254606996 -0.189210713 -0.0841388032
v 0.0242741778 -0.170682281 -0.0543164201
v 0.0198308174 -0.170682281 0.0575610213
v 0.0186955631 -0.187228292 0.0861004516
v -0.0254719164 -0.187227994 0.084338367
v -0.0243317783 -0.170682281 0.0557995439
v 0.0243523028 -0.215151876 -0.0563140996
v 0.0270231999 -0.400454283 -0.123568125
v -0.0171418395 -0.400454283 -0.125319824
v -0.0198127367 -0.215151876 -0.0580676384
v -0.0198127367 -0.215151876 -0.0580676384
v -0.0171418395 -0.400454283 -0.125319824
v -0.0157697685 -0.400453985 -0.159990236
v -0.0187067799 -0.189210713 -0.0858960003
v -0.0198908616 -0.170682281 -0.0560681298
v -0.0243317783 -0.170682281 0.0557995439
v -0.0244392008 -0.216143399 0.0584387034
v -0.0254719164 -0.187227994 0.084338367
v -0.027163811 -0.400454283 0.127017811
v -0.0284089278 -0.400453985 0.158247054
v -0.0187067799 -0.189210713 -0.0858960003
v -0.0157697685 -0.400453985 -0.159990236
v 0.0283952709 -0.400453985 -0.158240974
v 0.0254606996 -0.189210713 -0.0841388032
v 0.0254606996 -0.189210713 -0.0841388032
v 0.0283952709 -0.400453985 -0.158240974
v 0.0270231999 -0.400454283 -0.123568125
v 0.0243523028 -0.215151876 -0.0563140996
v 0.0242741778 -0.170682281 -0.0543164201
v 0.0197233949 -0.216143399 0.0601965189
v 0.0198308174 -0.170682281 0.0575610213
v 0.0186955631 -0.187228292 0.0861004516
v 0.0157609917 -0.400453985 0.159999982
v 0.0170012265 -0.400454283 0.128771961
v 0.0186955631 -0.187228292 0.0861004516
v 0.0157609917 -0.400453985 0.159999982
v -0.0284089278 -0.400453985 0.158247054
v -0.0254719164 -0.187227994 0.084338367
v -0.0244392008 -0.216143399 0.0584387034
v -0.027163811 -0.400454283 0.127017811
v 0.0170012265 -0.400454283 0.128771961
v 0.0197233949 -0.216143399 0.0601965189
vt 0.604492188 0.493408203
vt 0.50390625 0.493408203
vt 0.50390625 0.513183594
vt 0.604492188 0.513183594
vt 0.50390625 0.513671875
vt 0.604492188 0.513671875
vt 0.604492188 0.494873047
vt 0.50390625 0.494873047
vt 0.604492188 0.493896484
vt 0.50390625 0.493896484
vt 0.50390625 0.513671875
vt 0.604492188 0.513671875
vt 0.604492188 0.493896484
vt 0.50390625 0.493896484
vt 0.50390625 0.512695312
vt 0.604492188 0.512695312
vt 0.568847656 0.494140625
vt 0.568847656 0.512695312
vt 0.590332031 0.512695312
vt 0.590332031 0.494140625
vt 0.575683594 0.494140625
vt 0.522460938 0.494140625
vt 0.522460938 0.512695312
vt 0.575683594 0.512695312
vt 0.568847656 0.494140625
vt 0.568847656 0.512695312
vt 0.590332031 0.512695312
vt 0.590332031 0.494140625
vt 0.588867188 0.494140625
vt 0.533203125 0.494140625
vt 0.533203125 0.512695312
vt 0.588867188 0.512695312
vt 0.575683594 0.512695312
vt 0.590332031 0.512695312
vt 0.590332031 0.494140625
vt 0.575683594 0.494140625
vt 0.522460938 0.494140625
vt 0.504394531 0.494140625
vt 0.504394531 0.512695312
vt 0.522460938 0.512695312
vt 0.590332031 0.494140625
vt 0.504394531 0.494140625
vt 0.504394531 0.512695312
vt 0.590332031 0.512695312
vt 0.541503906 0.589355469
vt 0.5234375 0.540039062
vt 0.514160156 0.540039062
vt 0.534179688 0.596191406
vt 0.541992188 0.601074219
vt 0.571777344 0.601074219
vt 0.572265625 0.588867188
vt 0.579589844 0.596679688
vt 0.590820312 0.540039062
vt 0.599121094 0.540039062
vt 0.504394531 0.512695312
vt 0.602050781 0.512695312
vt 0.602050781 0.494140625
vt 0.504394531 0.494140625
vt 0.579101562 0.596191406
vt 0.599121094 0.540039062
vt 0.58984375 0.540039062
vt 0.571777344 0.589355469
vt 0.571289062 0.601074219
vt 0.541015625 0.589355469
vt 0.541503906 0.601074219
vt 0.534179688 0.596679688
vt 0.514160156 0.540039062
vt 0.522460938 0.540039062
vt 0.602050781 0.494140625
vt 0.504394531 0.494140625
vt 0.504394531 0.512695312
vt 0.602050781 0.512695312
vt 0.504394531 0.512695312
vt 0.590332031 0.512695312
vt 0.590332031 0.494140625
vt 0.504394531 0.494140625
vn 0.691894531 0 0.722167969
vn 0.691894531 0 0.722167969
vn 0.746582031 0 -0.665039062
vn 0.746582031 0 -0.665039062
vn -0.746582031 0 0.665039062
vn -0.746582031 0 0.665039062
vn 0.691894531 0 0.722167969
vn 0.691894531 0 0.722167969
vn -0.691894531 0 -0.722167969
vn -0.691894531 0 -0.722167969
vn -0.746582031 0 0.665039062
vn -0.746582031 0 0.665039062
vn 0.746582031 0 -0.665039062
vn 0.746582031 0 -0.665039062
vn -0.691894531 0 -0.722167969
vn -0.691894531 0 -0.722167969
vn 3.57627869E-07 -1 -9.05990601E-06
vn 3.57627869E-07 -1 -9.05990601E-06
vn 3.57627869E-07 -1 -9.05990601E-06
vn 3.57627869E-07 -1 -9.05990601E-06
vn -0 1 0
vn -0 1 0
vn -0 1 0
vn -0 1 0
vn -3.57627869E-07 -1 9.89437103E-06
vn -3.57627869E-07 -1 9.89437103E-06
vn -3.57627869E-07 -1 9.89437103E-06
vn -3.57627869E-07 -1 9.89437103E-06
vn 0.000337839127 -1 -0.00849914551
vn 0.000337839127 -1 -0.00849914551
vn 0.000337839127 -1 -0.00849914551
vn 0.000337839127 -1 -0.00849914551
vn 0.0209350586 0.849609375 -0.526855469
vn 0.0209350586 0.849609375 -0.526855469
vn 0.0209350586 0.849609375 -0.526855469
vn 0.0209350586 0.849609375 -0.526855469
vn -0.0199737549 0.865234375 0.500976562
vn -0.0199737549 0.865234375 0.500976562
vn -0.0199737549 0.865234375 0.500976562
vn -0.0199737549 0.865234375 0.500976562
vn -0.0372619629 -0.341308594 0.938964844
vn -0.0372619629 -0.341308594 0.938964844
vn -0.0372619629 -0.341308594 0.938964844
vn -0.0372619629 -0.341308594 0.938964844
vn -0.999023438 4.33921814E-05 -0.0396728516
vn -0.999023438 -7.9870224E-06 -0.0396118164
vn -0.999023438 -7.9870224E-06 -0.0396118164
vn -0.999023438 2.88486481E-05 -0.0396728516
vn -0.999023438 4.33921814E-05 -0.0396728516
vn -0.999023438 4.33921814E-05 -0.0396728516
vn -0.999023438 4.33921814E-05 -0.0396728516
vn -0.999023438 4.51207161E-05 -0.0398864746
vn -0.999023438 -4.17232513E-05 -0.0398254395
vn -0.999023438 -4.17232513E-05 -0.0398254395
vn 0.0374145508 0.331298828 -0.942871094
vn 0.0374145508 0.331298828 -0.942871094
vn 0.0374145508 0.331298828 -0.942871094
vn 0.0374145508 0.331298828 -0.942871094
vn 0.999023438 -3.16500664E-05 0.0397644043
vn 0.999023438 -1.05500221E-05 0.039642334
vn 0.999023438 -1.05500221E-05 0.039642334
vn 0.999023438 -4.40478325E-05 0.0397033691
vn 0.999023438 -4.40478325E-05 0.0397033691
vn 0.999023438 -4.40478325E-05 0.0397033691
vn 0.999023438 -4.40478325E-05 0.0397033691
vn 0.999023438 -5.88297844E-05 0.0397033691
vn 0.999023438 -1.43051147E-06 0.0396728516
vn 0.999023438 -1.43051147E-06 0.0396728516
vn -0.0375671387 0.327636719 0.943847656
vn -0.0375671387 0.327636719 0.943847656
vn -0.0375671387 0.327636719 0.943847656
vn -0.0375671387 0.327636719 0.943847656
vn 0.0372314453 -0.348876953 -0.936523438
vn 0.0372314453 -0.348876953 -0.936523438
vn 0.0372314453 -0.348876953 -0.936523438
vn 0.0372314453 -0.348876953 -0.936523438
g IS4_MDL_EscenarioPB_FocoTecho_Agarre_2_0
f 3/3/3 2/2/2 1/1/1
f 4/4/4 3/3/3 1/1/1
f 7/7/7 6/6/6 5/5/5
f 8/8/8 7/7/7 5/5/5
f 11/11/11 10/10/10 9/9/9
f 12/12/12 11/11/11 9/9/9
f 15/15/15 14/14/14 13/13/13
f 16/16/16 15/15/15 13/13/13
f 19/19/19 18/18/18 17/17/17
f 20/20/20 19/19/19 17/17/17
f 23/23/23 22/22/22 21/21/21
f 24/24/24 23/23/23 21/21/21
f 27/27/27 26/26/26 25/25/25
f 28/28/28 27/27/27 25/25/25
f 31/31/31 30/30/30 29/29/29
f 32/32/32 31/31/31 29/29/29
f 35/35/35 34/34/34 33/33/33
f 36/36/36 35/35/35 33/33/33
f 39/39/39 38/38/38 37/37/37
f 40/40/40 39/39/39 37/37/37
f 43/43/43 42/42/42 41/41/41
f 44/44/44 43/43/43 41/41/41
f 47/47/47 46/46/46 45/45/45
f 48/48/48 47/47/47 45/45/45
f 49/49/49 48/48/48 45/45/45
f 50/50/50 49/49/49 45/45/45
f 51/51/51 50/50/50 45/45/45
f 51/51/51 52/52/52 50/50/50
f 51/51/51 53/53/53 52/52/52
f 53/53/53 54/54/54 52/52/52
f 57/57/57 56/56/56 55/55/55
f 58/58/58 57/57/57 55/55/55
f 61/61/61 60/60/60 59/59/59
f 62/62/62 61/61/61 59/59/59
f 62/62/62 59/59/59 63/63/63
f 62/62/62 63/63/63 64/64/64
f 63/63/63 65/65/65 64/64/64
f 65/65/65 66/66/66 64/64/64
f 66/66/66 67/67/67 64/64/64
f 67/67/67 68/68/68 64/64/64
f 71/71/71 70/70/70 69/69/69
f 72/72/72 71/71/71 69/69/69
f 75/75/75 74/74/74 73/73/73
f 76/76/76 75/75/75 73/73/73
