g Cesped24
v -0.0335152792 0.0201091675 2.28574204
v -0.0603275026 0.042452687 2.28574204
v -0.0603275026 0.042452687 0.878100316
v -0.0290465753 0.0335152792 0.878100316
v 0.0156404636 -0.042452687 2.28574204
v -0.0603275026 0.042452687 -0.498260485
v 0.042452687 -0.042452687 0.878100316
v 0.0245778714 0.0335152792 -0.498260485
v -0.0603275026 0.042452687 -1.87015258
v 0.0603275026 -0.042452687 -0.498260485
v -0.0290465753 0.0335152792 -1.87015258
v -0.0603275026 0.042452687 -2.28574204
v 0.042452687 -0.042452687 -1.87015258
v 0.0245778714 0.0335152792 -2.28574204
v 0.0603275026 -0.042452687 -2.28574204
vt 0.948848631 0.189535878
vt 0.948848631 0.189535878
vt 0.948848631 0.25394187
vt 0.948848631 0.25394187
vt 0.95223842 0.189535878
vt 0.948848631 0.318347862
vt 0.955628209 0.25394187
vt 0.95223842 0.318347862
vt 0.948848631 0.379364066
vt 0.955628209 0.318347862
vt 0.948848631 0.379364066
vt 0.948848631 0.3997028
vt 0.955628209 0.379364066
vt 0.95223842 0.3997028
vt 0.955628209 0.3997028
vn 0.689069064 0.724695678 -0
vn 0.464980103 0.870026541 0.163851524
vn 0.294553723 0.955239731 -0.0274801832
vn 0.635406483 0.756408954 0.155254936
vn 0.744738952 0.667355897 -0
vn 0.180909575 0.983499733 -0
vn 0.777428466 0.614386971 0.134661167
vn 0.607002086 0.784813351 -0.124965881
vn 0.180909575 0.983499733 -0
vn 0.805832863 0.585982574 -0.0851928383
vn 0.598162369 0.801374931 -0
vn 0.180909575 0.983499733 -0
vn 0.805832863 0.585982574 0.0851928383
vn 0.607002086 0.784813351 0.124965881
vn 0.805832863 0.585982574 0.0851928383
g Cesped24_0
f 3/3/3 2/2/2 1/1/1
f 4/4/4 3/3/3 1/1/1
f 1/1/1 5/5/5 4/4/4
f 6/6/6 3/3/3 4/4/4
f 5/5/5 7/7/7 4/4/4
f 8/8/8 6/6/6 4/4/4
f 4/4/4 7/7/7 8/8/8
f 9/9/9 6/6/6 8/8/8
f 7/7/7 10/10/10 8/8/8
f 11/11/11 9/9/9 8/8/8
f 8/8/8 10/10/10 11/11/11
f 12/12/12 9/9/9 11/11/11
f 10/10/10 13/13/13 11/11/11
f 14/14/14 12/12/12 11/11/11
f 11/11/11 13/13/13 14/14/14
f 13/13/13 15/15/15 14/14/14
