g Cabin_TableLamp_Bulb
v 0.00807137042 -0.03659622 -0.00807137135
v 0.00807137042 -0.0137695093 -0.00807137135
v -1.85762281E-06 -0.0137695093 -0.0114113772
v -1.85762281E-06 -0.03659622 -0.0114113772
v -1.85762281E-06 -0.03659622 -0.0114113772
v -1.85762281E-06 -0.0137695093 -0.0114113772
v -0.00807137135 -0.0137695093 -0.00807137135
v -0.00807137135 -0.03659622 -0.00807137135
v -0.00807137135 -0.03659622 -0.00807137135
v -0.00807137135 -0.0137695093 -0.00807137135
v -0.0114113772 -0.0137695093 5.5728683E-06
v -0.0114113772 -0.03659622 5.5728683E-06
v -0.00807137135 -0.0137695093 0.00807137042
v -0.00807137135 -0.03659622 0.00807137042
v -0.00807137135 -0.03659622 0.00807137042
v -0.00807137135 -0.0137695093 0.00807137042
v -1.85762281E-06 -0.0137695093 0.0114113772
v -1.85762281E-06 -0.03659622 0.0114113772
v 0.00807137042 -0.0137695093 0.00807137042
v 0.00807137042 -0.03659622 0.00807137042
v 0.00807137042 -0.03659622 0.00807137042
v 0.00807137042 -0.0137695093 0.00807137042
v 0.0114113772 -0.0137695093 5.5728683E-06
v 0.0114113772 -0.03659622 5.5728683E-06
v 0.00807137042 -0.0137695093 -0.00807137135
v 0.00807137042 -0.03659622 -0.00807137135
v -1.85762281E-06 0.0349267982 -0.00976552349
v -1.85762281E-06 0.0365962237 5.5728683E-06
v -0.00690478412 0.0349267982 -0.00690478412
v 0.00690478366 0.0349267982 -0.00690478412
v 0.00976552255 0.0349267982 5.5728683E-06
v -0.00690478412 0.0349267982 -0.00690478412
v -1.85762281E-06 0.0365962237 5.5728683E-06
v -0.00976552349 0.0349267982 5.5728683E-06
v -0.00690478412 0.0349267982 0.00690478366
v -1.85762281E-06 0.0349267982 0.00976552255
v 0.00690478366 0.0349267982 0.00690478366
v 0.00976552255 0.0349267982 5.5728683E-06
v 0.00807137042 -0.0137695093 -0.00807137135
v -1.85762281E-06 0.00905672275 -0.0237645693
v -1.85762281E-06 -0.0137695093 -0.0114113772
v 0.0168059133 0.00905672275 -0.0168021992
v -1.85762281E-06 0.020470202 -0.0237645693
v 0.0168059133 0.020470202 -0.0168021992
v -1.85762281E-06 0.0296005271 -0.0179985072
v 0.0127265733 0.0296005271 -0.0127302883
v -1.85762281E-06 -0.0137695093 -0.0114113772
v -0.0168021992 0.00905672275 -0.0168021992
v -0.00807137135 -0.0137695093 -0.00807137135
v -1.85762281E-06 0.00905672275 -0.0237645693
v -0.0168021992 0.020470202 -0.0168021992
v -1.85762281E-06 0.020470202 -0.0237645693
v -0.0237645693 0.020470202 5.5728683E-06
v -0.0237645693 0.00905672275 5.5728683E-06
v -0.0179985072 0.0296005271 5.5728683E-06
v -0.0127302883 0.0296005271 -0.0127302883
v -1.85762281E-06 0.0296005271 -0.0179985072
v -0.00690478412 0.0349267982 -0.00690478412
v -1.85762281E-06 0.0349267982 -0.00976552349
v -0.00807137135 -0.0137695093 -0.00807137135
v -0.0168021992 0.00905672275 -0.0168021992
v -0.0237645693 0.00905672275 5.5728683E-06
v -0.0114113772 -0.0137695093 5.5728683E-06
v -0.0168021992 0.00905672275 0.0168059133
v -0.00807137135 -0.0137695093 0.00807137042
v -0.0168021992 0.020470202 0.0168059133
v -0.0237645693 0.020470202 5.5728683E-06
v 0.00807137042 -0.0137695093 0.00807137042
v 0.0237645693 0.00905672275 5.5728683E-06
v 0.0114113772 -0.0137695093 5.5728683E-06
v 0.0168059133 0.00905672275 0.0168059133
v -1.85762281E-06 -0.0137695093 0.0114113772
v -1.85762281E-06 0.00905672275 0.0237645693
v -0.00807137135 -0.0137695093 0.00807137042
v 0.0168059133 0.020470202 0.0168059133
v -0.0168021992 0.00905672275 0.0168059133
v -1.85762281E-06 0.020470202 0.0237645693
v 0.0127265733 0.0296005271 0.0127340052
v -0.0168021992 0.020470202 0.0168059133
v -1.85762281E-06 0.0296005271 0.0180022232
v 0.0114113772 -0.0137695093 5.5728683E-06
v 0.0168059133 0.00905672275 -0.0168021992
v 0.00807137042 -0.0137695093 -0.00807137135
v 0.0237645693 0.00905672275 5.5728683E-06
v 0.0168059133 0.020470202 -0.0168021992
v 0.0237645693 0.020470202 5.5728683E-06
v 0.0168059133 0.00905672275 0.0168059133
v 0.0168059133 0.020470202 0.0168059133
v 0.0237645693 0.020470202 5.5728683E-06
v 0.0127265733 0.0296005271 -0.0127302883
v 0.0168059133 0.020470202 -0.0168021992
v 0.0180022232 0.0296005271 5.5728683E-06
v 0.0168059133 0.020470202 0.0168059133
v 0.0127265733 0.0296005271 0.0127340052
v 0.00976552255 0.0349267982 5.5728683E-06
v 0.00690478366 0.0349267982 0.00690478366
v 0.00690478366 0.0349267982 -0.00690478412
v -1.85762281E-06 0.0349267982 -0.00976552349
v -1.85762281E-06 0.0296005271 -0.0179985072
v -0.0127302883 0.0296005271 -0.0127302883
v -0.00690478412 0.0349267982 -0.00690478412
v -0.00976552349 0.0349267982 5.5728683E-06
v -0.0179985072 0.0296005271 5.5728683E-06
v -0.00690478412 0.0349267982 0.00690478366
v -0.0127302883 0.0296005271 0.0127340052
v -0.0237645693 0.020470202 5.5728683E-06
v -0.0168021992 0.020470202 0.0168059133
v -1.85762281E-06 0.0349267982 0.00976552255
v -1.85762281E-06 0.0296005271 0.0180022232
v 0.00690478366 0.0349267982 0.00690478366
v 0.0127265733 0.0296005271 0.0127340052
v 0.0114113772 -0.03659622 5.5728683E-06
v -1.85762281E-06 -0.03659622 5.5728683E-06
v 0.00807137042 -0.03659622 0.00807137042
v 0.00807137042 -0.03659622 -0.00807137135
v -1.85762281E-06 -0.03659622 0.0114113772
v -1.85762281E-06 -0.03659622 -0.0114113772
v -0.00807137135 -0.03659622 0.00807137042
v -0.00807137135 -0.03659622 -0.00807137135
v -0.0114113772 -0.03659622 5.5728683E-06
vt 0.652832031 0.784179688
vt 0.640136719 0.784179688
vt 0.640136719 0.789550781
vt 0.652832031 0.789550781
vt 0.652832031 0.745605469
vt 0.640136719 0.745605469
vt 0.640136719 0.750976562
vt 0.652832031 0.750976562
vt 0.652832031 0.750976562
vt 0.640136719 0.750976562
vt 0.640136719 0.756835938
vt 0.652832031 0.756835938
vt 0.640136719 0.762207031
vt 0.652832031 0.762207031
vt 0.652832031 0.762207031
vt 0.640136719 0.762207031
vt 0.640136719 0.767578125
vt 0.652832031 0.767578125
vt 0.640136719 0.772949219
vt 0.652832031 0.772949219
vt 0.652832031 0.772949219
vt 0.640136719 0.772949219
vt 0.640136719 0.778808594
vt 0.652832031 0.778808594
vt 0.640136719 0.784179688
vt 0.652832031 0.784179688
vt 0.478515625 0.0436401367
vt 0.469482422 0.0399169922
vt 0.473144531 0.0489501953
vt 0.478515625 0.0361633301
vt 0.473144531 0.0308532715
vt 0.473144531 0.0489501953
vt 0.469482422 0.0399169922
vt 0.465820312 0.0489501953
vt 0.460449219 0.0436706543
vt 0.460449219 0.0361633301
vt 0.465820312 0.0308685303
vt 0.473144531 0.0308532715
vt 0.501953125 0.0616149902
vt 0.48828125 0.0687866211
vt 0.501953125 0.0687866211
vt 0.48828125 0.0616149902
vt 0.483886719 0.0687866211
vt 0.483886719 0.0616149902
vt 0.479003906 0.0687866211
vt 0.479003906 0.0616149902
vt 0.501953125 0.01146698
vt 0.48828125 0.0186309814
vt 0.501953125 0.0186309814
vt 0.48828125 0.01146698
vt 0.483886719 0.0186309814
vt 0.483886719 0.01146698
vt 0.483886719 0.0258026123
vt 0.48828125 0.0258026123
vt 0.479003906 0.0258026123
vt 0.479003906 0.0186309814
vt 0.479003906 0.01146698
vt 0.472900391 0.0186309814
vt 0.472900391 0.01146698
vt 0.501953125 0.0186309814
vt 0.48828125 0.0186309814
vt 0.48828125 0.0258026123
vt 0.501953125 0.0258026123
vt 0.48828125 0.0329589844
vt 0.501953125 0.0329589844
vt 0.483886719 0.0329589844
vt 0.483886719 0.0258026123
vt 0.501953125 0.0473022461
vt 0.48828125 0.054473877
vt 0.501953125 0.054473877
vt 0.48828125 0.0473022461
vt 0.501953125 0.0401306152
vt 0.48828125 0.0401306152
vt 0.501953125 0.0329589844
vt 0.483886719 0.0473022461
vt 0.48828125 0.0329589844
vt 0.483886719 0.0401306152
vt 0.479003906 0.0473022461
vt 0.483886719 0.0329589844
vt 0.479003906 0.0401306152
vt 0.501953125 0.054473877
vt 0.48828125 0.0616149902
vt 0.501953125 0.0616149902
vt 0.48828125 0.054473877
vt 0.483886719 0.0616149902
vt 0.483886719 0.054473877
vt 0.48828125 0.0473022461
vt 0.483886719 0.0473022461
vt 0.483886719 0.054473877
vt 0.479003906 0.0616149902
vt 0.483886719 0.0616149902
vt 0.479003906 0.054473877
vt 0.483886719 0.0473022461
vt 0.479003906 0.0473022461
vt 0.472900391 0.054473877
vt 0.472900391 0.0473022461
vt 0.472900391 0.0616149902
vt 0.472900391 0.0687866211
vt 0.479003906 0.0687866211
vt 0.479003906 0.0186309814
vt 0.472900391 0.0186309814
vt 0.472900391 0.0258026123
vt 0.479003906 0.0258026123
vt 0.472900391 0.0329589844
vt 0.479003906 0.0329589844
vt 0.483886719 0.0258026123
vt 0.483886719 0.0329589844
vt 0.472900391 0.0401306152
vt 0.479003906 0.0401306152
vt 0.472900391 0.0473022461
vt 0.479003906 0.0473022461
vt 0.477294922 0.659179688
vt 0.483154297 0.645019531
vt 0.469238281 0.650878906
vt 0.488769531 0.659179688
vt 0.469238281 0.639648438
vt 0.496826172 0.650878906
vt 0.477294922 0.631347656
vt 0.496826172 0.639648438
vt 0.488769531 0.631347656
vn 0.70703125 0 -0.70703125
vn 0.668945312 -0.323730469 -0.668945312
vn -0 -0.323730469 -0.946289062
vn -0 0 -1
vn -0 0 -1
vn -0 -0.323730469 -0.946289062
vn -0.668945312 -0.323730469 -0.668945312
vn -0.70703125 0 -0.70703125
vn -0.70703125 0 -0.70703125
vn -0.668945312 -0.323730469 -0.668945312
vn -0.946289062 -0.323730469 -2.38418579E-07
vn -1 0 0
vn -0.668945312 -0.323730469 0.668945312
vn -0.70703125 0 0.70703125
vn -0.70703125 0 0.70703125
vn -0.668945312 -0.323730469 0.668945312
vn -0 -0.323730469 0.946289062
vn -0 0 1
vn 0.668945312 -0.323730469 0.668945312
vn 0.70703125 0 0.70703125
vn 0.70703125 0 0.70703125
vn 0.668945312 -0.323730469 0.668945312
vn 0.946289062 -0.323730469 -4.17232513E-07
vn 1 0 0
vn 0.668945312 -0.323730469 -0.668945312
vn 0.70703125 0 -0.70703125
vn -0 0.876953125 -0.480957031
vn -0 1 -4.76837158E-07
vn -0.340087891 0.876953125 -0.340087891
vn 0.340087891 0.876953125 -0.340087891
vn 0.480957031 0.876953125 -1.60932541E-06
vn -0.340087891 0.876953125 -0.340087891
vn -0 1 -4.76837158E-07
vn -0.480957031 0.876953125 0
vn -0.340087891 0.876953125 0.340087891
vn 1.78813934E-07 0.876953125 0.480957031
vn 0.340087891 0.876953125 0.340087891
vn 0.480957031 0.876953125 -1.60932541E-06
vn 0.668945312 -0.323730469 -0.668945312
vn -1.1920929E-07 -0.293212891 -0.956054688
vn -0 -0.323730469 -0.946289062
vn 0.676269531 -0.293212891 -0.676269531
vn -1.1920929E-07 0.232910156 -0.97265625
vn 0.6875 0.232910156 -0.6875
vn -1.78813934E-07 0.637207031 -0.770507812
vn 0.544921875 0.637207031 -0.544921875
vn -0 -0.323730469 -0.946289062
vn -0.676269531 -0.293212891 -0.676269531
vn -0.668945312 -0.323730469 -0.668945312
vn -1.1920929E-07 -0.293212891 -0.956054688
vn -0.6875 0.232910156 -0.6875
vn -1.1920929E-07 0.232910156 -0.97265625
vn -0.97265625 0.232910156 0
vn -0.956054688 -0.293212891 0
vn -0.770507812 0.637207031 -4.76837158E-07
vn -0.544921875 0.637207031 -0.544921875
vn -1.78813934E-07 0.637207031 -0.770507812
vn -0.340087891 0.876953125 -0.340087891
vn -0 0.876953125 -0.480957031
vn -0.668945312 -0.323730469 -0.668945312
vn -0.676269531 -0.293212891 -0.676269531
vn -0.956054688 -0.293212891 0
vn -0.946289062 -0.323730469 -2.38418579E-07
vn -0.676269531 -0.293212891 0.676269531
vn -0.668945312 -0.323730469 0.668945312
vn -0.6875 0.232910156 0.6875
vn -0.97265625 0.232910156 0
vn 0.668945312 -0.323730469 0.668945312
vn 0.956054688 -0.293212891 0
vn 0.946289062 -0.323730469 -4.17232513E-07
vn 0.676269531 -0.293212891 0.676269531
vn -0 -0.323730469 0.946289062
vn -0 -0.293212891 0.956054688
vn -0.668945312 -0.323730469 0.668945312
vn 0.6875 0.232910156 0.6875
vn -0.676269531 -0.293212891 0.676269531
vn 1.1920929E-07 0.232910156 0.97265625
vn 0.544921875 0.637207031 0.544921875
vn -0.6875 0.232910156 0.6875
vn -0 0.637207031 0.770507812
vn 0.946289062 -0.323730469 -4.17232513E-07
vn 0.676269531 -0.293212891 -0.676269531
vn 0.668945312 -0.323730469 -0.668945312
vn 0.956054688 -0.293212891 0
vn 0.6875 0.232910156 -0.6875
vn 0.97265625 0.232910156 0
vn 0.676269531 -0.293212891 0.676269531
vn 0.6875 0.232910156 0.6875
vn 0.97265625 0.232910156 0
vn 0.544921875 0.637207031 -0.544921875
vn 0.6875 0.232910156 -0.6875
vn 0.770507812 0.637207031 -5.36441803E-07
vn 0.6875 0.232910156 0.6875
vn 0.544921875 0.637207031 0.544921875
vn 0.480957031 0.876953125 -1.60932541E-06
vn 0.340087891 0.876953125 0.340087891
vn 0.340087891 0.876953125 -0.340087891
vn -0 0.876953125 -0.480957031
vn -1.78813934E-07 0.637207031 -0.770507812
vn -0.544921875 0.637207031 -0.544921875
vn -0.340087891 0.876953125 -0.340087891
vn -0.480957031 0.876953125 0
vn -0.770507812 0.637207031 -4.76837158E-07
vn -0.340087891 0.876953125 0.340087891
vn -0.544921875 0.637207031 0.544921875
vn -0.97265625 0.232910156 0
vn -0.6875 0.232910156 0.6875
vn 1.78813934E-07 0.876953125 0.480957031
vn -0 0.637207031 0.770507812
vn 0.340087891 0.876953125 0.340087891
vn 0.544921875 0.637207031 0.544921875
vn -0 -1 0
vn -0 -1 0
vn -0 -1 0
vn -0 -1 0
vn -0 -1 0
vn -0 -1 0
vn -0 -1 0
vn -0 -1 0
vn -0 -1 0
g Cabin_TableLamp_Bulb_0
f 3/3/3 2/2/2 1/1/1
f 4/4/4 3/3/3 1/1/1
f 7/7/7 6/6/6 5/5/5
f 8/8/8 7/7/7 5/5/5
f 11/11/11 10/10/10 9/9/9
f 12/12/12 11/11/11 9/9/9
f 13/13/13 11/11/11 12/12/12
f 14/14/14 13/13/13 12/12/12
f 17/17/17 16/16/16 15/15/15
f 18/18/18 17/17/17 15/15/15
f 19/19/19 17/17/17 18/18/18
f 20/20/20 19/19/19 18/18/18
f 23/23/23 22/22/22 21/21/21
f 24/24/24 23/23/23 21/21/21
f 25/25/25 23/23/23 24/24/24
f 26/26/26 25/25/25 24/24/24
f 29/29/29 28/28/28 27/27/27
f 27/27/27 28/28/28 30/30/30
f 30/30/30 28/28/28 31/31/31
f 34/34/34 33/33/33 32/32/32
f 35/35/35 33/33/33 34/34/34
f 36/36/36 33/33/33 35/35/35
f 37/37/37 33/33/33 36/36/36
f 38/38/38 33/33/33 37/37/37
f 41/41/41 40/40/40 39/39/39
f 40/40/40 42/42/42 39/39/39
f 40/40/40 43/43/43 42/42/42
f 43/43/43 44/44/44 42/42/42
f 43/43/43 45/45/45 44/44/44
f 45/45/45 46/46/46 44/44/44
f 49/49/49 48/48/48 47/47/47
f 48/48/48 50/50/50 47/47/47
f 48/48/48 51/51/51 50/50/50
f 51/51/51 52/52/52 50/50/50
f 53/53/53 51/51/51 48/48/48
f 54/54/54 53/53/53 48/48/48
f 53/53/53 55/55/55 51/51/51
f 55/55/55 56/56/56 51/51/51
f 51/51/51 56/56/56 52/52/52
f 56/56/56 57/57/57 52/52/52
f 56/56/56 58/58/58 57/57/57
f 58/58/58 59/59/59 57/57/57
f 62/62/62 61/61/61 60/60/60
f 63/63/63 62/62/62 60/60/60
f 64/64/64 62/62/62 63/63/63
f 65/65/65 64/64/64 63/63/63
f 64/64/64 66/66/66 62/62/62
f 66/66/66 67/67/67 62/62/62
f 70/70/70 69/69/69 68/68/68
f 69/69/69 71/71/71 68/68/68
f 68/68/68 71/71/71 72/72/72
f 71/71/71 73/73/73 72/72/72
f 72/72/72 73/73/73 74/74/74
f 71/71/71 75/75/75 73/73/73
f 73/73/73 76/76/76 74/74/74
f 75/75/75 77/77/77 73/73/73
f 73/73/73 77/77/77 76/76/76
f 75/75/75 78/78/78 77/77/77
f 77/77/77 79/79/79 76/76/76
f 78/78/78 80/80/80 77/77/77
f 77/77/77 80/80/80 79/79/79
f 83/83/83 82/82/82 81/81/81
f 82/82/82 84/84/84 81/81/81
f 82/82/82 85/85/85 84/84/84
f 85/85/85 86/86/86 84/84/84
f 84/84/84 86/86/86 87/87/87
f 86/86/86 88/88/88 87/87/87
f 91/91/91 90/90/90 89/89/89
f 90/90/90 92/92/92 89/89/89
f 89/89/89 92/92/92 93/93/93
f 92/92/92 94/94/94 93/93/93
f 92/92/92 95/95/95 94/94/94
f 95/95/95 96/96/96 94/94/94
f 97/97/97 95/95/95 92/92/92
f 90/90/90 97/97/97 92/92/92
f 98/98/98 97/97/97 90/90/90
f 99/99/99 98/98/98 90/90/90
f 102/102/102 101/101/101 100/100/100
f 103/103/103 102/102/102 100/100/100
f 104/104/104 102/102/102 103/103/103
f 105/105/105 104/104/104 103/103/103
f 105/105/105 103/103/103 106/106/106
f 107/107/107 105/105/105 106/106/106
f 108/108/108 104/104/104 105/105/105
f 109/109/109 105/105/105 107/107/107
f 109/109/109 108/108/108 105/105/105
f 110/110/110 108/108/108 109/109/109
f 111/111/111 110/110/110 109/109/109
f 114/114/114 113/113/113 112/112/112
f 112/112/112 113/113/113 115/115/115
f 116/116/116 113/113/113 114/114/114
f 115/115/115 113/113/113 117/117/117
f 118/118/118 113/113/113 116/116/116
f 117/117/117 113/113/113 119/119/119
f 120/120/120 113/113/113 118/118/118
f 119/119/119 113/113/113 120/120/120
