g Cannon_Pedals
v -0.0569867119 0.00440109847 0.119926229
v -0.0947369561 0.0250086654 0.0991270542
v -0.072270833 0.0661622658 0.0991270542
v -0.0345215015 0.0455546975 0.119926229
v -0.0249670595 -0.0130781876 0.119926229
v -0.00250215433 0.0280754156 0.119926229
v -0.0947369561 0.0250086654 -0.0763988346
v -0.0947369561 0.0250086654 -0.0991265923
v -0.072270833 0.0661622658 -0.0991265923
v -0.072270833 0.0661622658 -0.0763988346
v -0.0947369561 0.0250086654 0.072117582
v -0.072270833 0.0661622658 0.072117582
v -0.0947369561 0.0250086654 0.0991270542
v -0.072270833 0.0661622658 0.0991270542
v -0.0947369561 0.0250086654 -0.0991265923
v -0.0345215015 0.0455546975 -0.119926021
v -0.072270833 0.0661622658 -0.0991265923
v -0.0569867119 0.00440109847 -0.119926021
v -0.00250215433 0.0280754156 -0.119926021
v -0.0249670595 -0.0130781876 -0.119926021
v 0.0792852566 -0.0699896142 -0.0991265923
v 0.10175138 -0.0288363192 -0.0763988346
v 0.10175138 -0.0288363192 -0.0991265923
v 0.0792852566 -0.0699896142 -0.0763988346
v 0.10175138 -0.0288363192 0.072117582
v 0.0792852566 -0.0699896142 0.072117582
v 0.10175138 -0.0288363192 0.0991270542
v 0.0792852566 -0.0699896142 0.0991270542
v -0.0569867119 0.00440109847 -0.119926021
v -0.0947369561 0.0250086654 -0.0991265923
v -0.0947369561 0.0250086654 -0.0763988346
v -0.0666809231 0.00969292223 -0.0763988346
v -0.0249670595 -0.0130781876 -0.119926021
v -0.0947369561 0.0250086654 0.072117582
v -0.0249670595 -0.0130781876 -0.0763988346
v -0.0666809231 0.00969292223 0.072117582
v -0.0947369561 0.0250086654 0.0991270542
v -0.0569867119 0.00440109847 0.119926229
v -0.0249670595 -0.0130781876 0.119926229
v -0.0249670595 -0.0130781876 0.072117582
v -0.00818239152 -0.0334009081 0.119926229
v -0.00818239152 -0.0334009081 -0.119926021
v -0.00818239152 -0.0334009081 0.072117582
v 0.0162325874 -0.0355695263 0.119926229
v -0.00818239152 -0.0334009081 -0.0763988346
v 0.0162325874 -0.0355695263 -0.119926021
v 0.0162325874 -0.0355695263 0.072117582
v 0.0436269939 -0.0505242869 0.119926229
v 0.0162325874 -0.0355695263 -0.0763988346
v 0.0436269939 -0.0505242869 -0.119926021
v 0.0533215143 -0.0558161102 0.072117582
v 0.0792852566 -0.0699896142 0.0991270542
v 0.0792852566 -0.0699896142 0.072117582
v 0.0533215143 -0.0558161102 -0.0763988346
v 0.0792852566 -0.0699896142 -0.0991265923
v 0.0792852566 -0.0699896142 -0.0763988346
v 0.0436269939 -0.0505242869 0.119926229
v 0.0162325874 -0.0355695263 0.119926229
v 0.0386987105 0.00558411237 0.119926229
v 0.0660937279 -0.00937068276 0.119926229
v 0.0792852566 -0.0699896142 0.0991270542
v 0.10175138 -0.0288363192 0.0991270542
v 0.0162325874 -0.0355695263 -0.119926021
v 0.0660937279 -0.00937068276 -0.119926021
v 0.0386987105 0.00558411237 -0.119926021
v 0.0436269939 -0.0505242869 -0.119926021
v 0.10175138 -0.0288363192 -0.0991265923
v 0.0792852566 -0.0699896142 -0.0991265923
v 0.0162325874 -0.0355695263 0.15395844
v 0.0236706343 0.0249484312 0.15395844
v 0.0386987105 0.00558411237 0.15395844
v -0.00818239152 -0.0334009081 0.15395844
v -0.00250215433 0.0280754156 0.15395844
v -0.0249670595 -0.0130781876 0.15395844
v -0.00818239152 -0.0334009081 -0.1810707
v 0.0162325874 -0.0355695263 -0.1810707
v 0.0386987105 0.00558411237 -0.1810707
v 0.0236706343 0.0249484312 -0.1810707
v -0.0249670595 -0.0130781876 -0.1810707
v -0.00250215433 0.0280754156 -0.1810707
v 0.10175138 -0.0288363192 -0.0763988346
v 0.0660937279 -0.00937068276 -0.119926021
v 0.10175138 -0.0288363192 -0.0991265923
v 0.0757879466 -0.014662507 -0.0763988346
v 0.10175138 -0.0288363192 0.072117582
v 0.0386987105 0.00558411237 -0.119926021
v 0.0757879466 -0.014662507 0.072117582
v 0.10175138 -0.0288363192 0.0991270542
v 0.0660937279 -0.00937068276 0.119926229
v 0.0386987105 0.00558411237 -0.0763988346
v 0.0386987105 0.00558411237 0.072117582
v 0.0236706343 0.0249484312 -0.119926021
v 0.0386987105 0.00558411237 0.119926229
v 0.0236706343 0.0249484312 -0.0763988346
v -0.00250215433 0.0280754156 -0.119926021
v 0.0236706343 0.0249484312 0.072117582
v 0.0236706343 0.0249484312 0.119926229
v -0.00250215433 0.0280754156 -0.0763988346
v -0.0345215015 0.0455546975 -0.119926021
v -0.00250215433 0.0280754156 0.072117582
v -0.00250215433 0.0280754156 0.119926229
v -0.0442148 0.0508465245 -0.0763988346
v -0.072270833 0.0661622658 -0.0991265923
v -0.072270833 0.0661622658 -0.0763988346
v -0.0442148 0.0508465245 0.072117582
v -0.0345215015 0.0455546975 0.119926229
v -0.072270833 0.0661622658 0.072117582
v -0.072270833 0.0661622658 0.0991270542
v 0.0757879466 -0.014662507 -0.0763988346
v 0.0533215143 -0.0558161102 -0.0763988346
v 0.0162325874 -0.0355695263 -0.0763988346
v 0.0386987105 0.00558411237 -0.0763988346
v 0.0386987105 0.00558411237 -0.0763988346
v 0.0162325874 -0.0355695263 -0.0763988346
v 0.0162325874 -0.0355695263 0.072117582
v 0.0386987105 0.00558411237 0.072117582
v 0.0386987105 0.00558411237 0.072117582
v 0.0162325874 -0.0355695263 0.072117582
v 0.0533215143 -0.0558161102 0.072117582
v 0.0757879466 -0.014662507 0.072117582
v 0.0757879466 -0.014662507 0.072117582
v 0.0533215143 -0.0558161102 0.072117582
v 0.0533215143 -0.0558161102 -0.0763988346
v 0.0757879466 -0.014662507 -0.0763988346
v -0.0666809231 0.00969292223 0.072117582
v -0.0442148 0.0508465245 0.072117582
v -0.0442148 0.0508465245 -0.0763988346
v -0.0666809231 0.00969292223 -0.0763988346
v -0.0666809231 0.00969292223 -0.0763988346
v -0.0442148 0.0508465245 -0.0763988346
v -0.00250215433 0.0280754156 -0.0763988346
v -0.0249670595 -0.0130781876 -0.0763988346
v -0.0249670595 -0.0130781876 -0.0763988346
v -0.00250215433 0.0280754156 -0.0763988346
v -0.00250215433 0.0280754156 0.072117582
v -0.0249670595 -0.0130781876 0.072117582
v -0.0249670595 -0.0130781876 0.072117582
v -0.00250215433 0.0280754156 0.072117582
v -0.0442148 0.0508465245 0.072117582
v -0.0666809231 0.00969292223 0.072117582
v 0.0162325874 -0.0355695263 0.119926229
v 0.0162325874 -0.0355695263 0.15395844
v 0.0386987105 0.00558411237 0.15395844
v 0.0386987105 0.00558411237 0.119926229
v 0.0386987105 0.00558411237 0.119926229
v 0.0386987105 0.00558411237 0.15395844
v 0.0236706343 0.0249484312 0.15395844
v 0.0236706343 0.0249484312 0.119926229
v -0.00250215433 0.0280754156 0.119926229
v -0.00250215433 0.0280754156 0.15395844
v -0.00250215433 0.0280754156 0.119926229
v -0.00250215433 0.0280754156 0.15395844
v -0.0249670595 -0.0130781876 0.15395844
v -0.0249670595 -0.0130781876 0.119926229
v -0.00818239152 -0.0334009081 0.15395844
v 0.0162325874 -0.0355695263 0.15395844
v 0.0162325874 -0.0355695263 0.119926229
v -0.00818239152 -0.0334009081 0.119926229
v -0.0249670595 -0.0130781876 0.119926229
v -0.0249670595 -0.0130781876 0.15395844
v 0.0236706343 0.0249484312 -0.119926021
v 0.0386987105 0.00558411237 -0.1810707
v 0.0386987105 0.00558411237 -0.119926021
v 0.0236706343 0.0249484312 -0.1810707
v -0.00250215433 0.0280754156 -0.119926021
v -0.00250215433 0.0280754156 -0.1810707
v 0.0386987105 0.00558411237 -0.119926021
v 0.0386987105 0.00558411237 -0.1810707
v 0.0162325874 -0.0355695263 -0.1810707
v 0.0162325874 -0.0355695263 -0.119926021
v 0.0162325874 -0.0355695263 -0.119926021
v 0.0162325874 -0.0355695263 -0.1810707
v -0.00818239152 -0.0334009081 -0.1810707
v -0.00818239152 -0.0334009081 -0.119926021
v -0.0249670595 -0.0130781876 -0.1810707
v -0.0249670595 -0.0130781876 -0.119926021
v -0.0249670595 -0.0130781876 -0.119926021
v -0.0249670595 -0.0130781876 -0.1810707
v -0.00250215433 0.0280754156 -0.1810707
v -0.00250215433 0.0280754156 -0.119926021
v -0.0569867119 0.00440109847 -0.915283263
v -0.072270833 0.0661622658 -0.894484103
v -0.0947369561 0.0250086654 -0.894484103
v -0.0345215015 0.0455546975 -0.915283263
v -0.0249670595 -0.0130781876 -0.915283263
v -0.00250215433 0.0280754156 -0.915283263
v -0.0947369561 0.0250086654 -0.718958199
v -0.072270833 0.0661622658 -0.696230471
v -0.0947369561 0.0250086654 -0.696230471
v -0.072270833 0.0661622658 -0.718958199
v -0.0947369561 0.0250086654 -0.867474675
v -0.072270833 0.0661622658 -0.867474675
v -0.0947369561 0.0250086654 -0.894484103
v -0.072270833 0.0661622658 -0.894484103
v -0.0947369561 0.0250086654 -0.696230471
v -0.072270833 0.0661622658 -0.696230471
v -0.0345215015 0.0455546975 -0.675431073
v -0.0569867119 0.00440109847 -0.675431073
v -0.00250215433 0.0280754156 -0.675431073
v -0.0249670595 -0.0130781876 -0.675431073
v 0.0792852566 -0.0699896142 -0.696230471
v 0.10175138 -0.0288363192 -0.696230471
v 0.10175138 -0.0288363192 -0.718958199
v 0.0792852566 -0.0699896142 -0.718958199
v 0.10175138 -0.0288363192 -0.867474675
v 0.0792852566 -0.0699896142 -0.867474675
v 0.10175138 -0.0288363192 -0.894484103
v 0.0792852566 -0.0699896142 -0.894484103
v -0.0569867119 0.00440109847 -0.675431073
v -0.0947369561 0.0250086654 -0.718958199
v -0.0947369561 0.0250086654 -0.696230471
v -0.0666809231 0.00969292223 -0.718958199
v -0.0249670595 -0.0130781876 -0.675431073
v -0.0947369561 0.0250086654 -0.867474675
v -0.0249670595 -0.0130781876 -0.718958199
v -0.0666809231 0.00969292223 -0.867474675
v -0.0947369561 0.0250086654 -0.894484103
v -0.0569867119 0.00440109847 -0.915283263
v -0.0249670595 -0.0130781876 -0.915283263
v -0.0249670595 -0.0130781876 -0.867474675
v -0.00818239152 -0.0334009081 -0.915283263
v -0.00818239152 -0.0334009081 -0.675431073
v -0.00818239152 -0.0334009081 -0.867474675
v 0.0162325874 -0.0355695263 -0.915283263
v -0.00818239152 -0.0334009081 -0.718958199
v 0.0162325874 -0.0355695263 -0.675431073
v 0.0162325874 -0.0355695263 -0.867474675
v 0.0436269939 -0.0505242869 -0.915283263
v 0.0162325874 -0.0355695263 -0.718958199
v 0.0436269939 -0.0505242869 -0.675431073
v 0.0533215143 -0.0558161102 -0.867474675
v 0.0792852566 -0.0699896142 -0.894484103
v 0.0792852566 -0.0699896142 -0.867474675
v 0.0533215143 -0.0558161102 -0.718958199
v 0.0792852566 -0.0699896142 -0.696230471
v 0.0792852566 -0.0699896142 -0.718958199
v 0.0436269939 -0.0505242869 -0.915283263
v 0.0386987105 0.00558411237 -0.915283263
v 0.0162325874 -0.0355695263 -0.915283263
v 0.0660937279 -0.00937068276 -0.915283263
v 0.0792852566 -0.0699896142 -0.894484103
v 0.10175138 -0.0288363192 -0.894484103
v 0.0162325874 -0.0355695263 -0.675431073
v 0.0386987105 0.00558411237 -0.675431073
v 0.0660937279 -0.00937068276 -0.675431073
v 0.0436269939 -0.0505242869 -0.675431073
v 0.10175138 -0.0288363192 -0.696230471
v 0.0792852566 -0.0699896142 -0.696230471
v 0.0162325874 -0.0355695263 -0.949315548
v 0.0386987105 0.00558411237 -0.949315548
v 0.0236706343 0.0249484312 -0.949315548
v -0.00818239152 -0.0334009081 -0.949315548
v -0.00250215433 0.0280754156 -0.949315548
v -0.0249670595 -0.0130781876 -0.949315548
v -0.00818239152 -0.0334009081 -0.614286363
v 0.0386987105 0.00558411237 -0.614286363
v 0.0162325874 -0.0355695263 -0.614286363
v 0.0236706343 0.0249484312 -0.614286363
v -0.0249670595 -0.0130781876 -0.614286363
v -0.00250215433 0.0280754156 -0.614286363
v 0.10175138 -0.0288363192 -0.718958199
v 0.10175138 -0.0288363192 -0.696230471
v 0.0660937279 -0.00937068276 -0.675431073
v 0.0757879466 -0.014662507 -0.718958199
v 0.10175138 -0.0288363192 -0.867474675
v 0.0386987105 0.00558411237 -0.675431073
v 0.0757879466 -0.014662507 -0.867474675
v 0.10175138 -0.0288363192 -0.894484103
v 0.0660937279 -0.00937068276 -0.915283263
v 0.0386987105 0.00558411237 -0.718958199
v 0.0386987105 0.00558411237 -0.867474675
v 0.0236706343 0.0249484312 -0.675431073
v 0.0386987105 0.00558411237 -0.915283263
v 0.0236706343 0.0249484312 -0.718958199
v -0.00250215433 0.0280754156 -0.675431073
v 0.0236706343 0.0249484312 -0.867474675
v 0.0236706343 0.0249484312 -0.915283263
v -0.00250215433 0.0280754156 -0.718958199
v -0.0345215015 0.0455546975 -0.675431073
v -0.00250215433 0.0280754156 -0.867474675
v -0.00250215433 0.0280754156 -0.915283263
v -0.0442148 0.0508465245 -0.718958199
v -0.072270833 0.0661622658 -0.696230471
v -0.072270833 0.0661622658 -0.718958199
v -0.0442148 0.0508465245 -0.867474675
v -0.0345215015 0.0455546975 -0.915283263
v -0.072270833 0.0661622658 -0.867474675
v -0.072270833 0.0661622658 -0.894484103
v 0.0757879466 -0.014662507 -0.718958199
v 0.0386987105 0.00558411237 -0.718958199
v 0.0162325874 -0.0355695263 -0.718958199
v 0.0533215143 -0.0558161102 -0.718958199
v 0.0386987105 0.00558411237 -0.718958199
v 0.0386987105 0.00558411237 -0.867474675
v 0.0162325874 -0.0355695263 -0.867474675
v 0.0162325874 -0.0355695263 -0.718958199
v 0.0386987105 0.00558411237 -0.867474675
v 0.0757879466 -0.014662507 -0.867474675
v 0.0533215143 -0.0558161102 -0.867474675
v 0.0162325874 -0.0355695263 -0.867474675
v 0.0757879466 -0.014662507 -0.867474675
v 0.0757879466 -0.014662507 -0.718958199
v 0.0533215143 -0.0558161102 -0.718958199
v 0.0533215143 -0.0558161102 -0.867474675
v -0.0666809231 0.00969292223 -0.867474675
v -0.0666809231 0.00969292223 -0.718958199
v -0.0442148 0.0508465245 -0.718958199
v -0.0442148 0.0508465245 -0.867474675
v -0.0666809231 0.00969292223 -0.718958199
v -0.0249670595 -0.0130781876 -0.718958199
v -0.00250215433 0.0280754156 -0.718958199
v -0.0442148 0.0508465245 -0.718958199
v -0.0249670595 -0.0130781876 -0.718958199
v -0.0249670595 -0.0130781876 -0.867474675
v -0.00250215433 0.0280754156 -0.867474675
v -0.00250215433 0.0280754156 -0.718958199
v -0.0249670595 -0.0130781876 -0.867474675
v -0.0666809231 0.00969292223 -0.867474675
v -0.0442148 0.0508465245 -0.867474675
v -0.00250215433 0.0280754156 -0.867474675
v 0.0162325874 -0.0355695263 -0.915283263
v 0.0386987105 0.00558411237 -0.915283263
v 0.0386987105 0.00558411237 -0.949315548
v 0.0162325874 -0.0355695263 -0.949315548
v 0.0386987105 0.00558411237 -0.915283263
v 0.0236706343 0.0249484312 -0.949315548
v 0.0386987105 0.00558411237 -0.949315548
v 0.0236706343 0.0249484312 -0.915283263
v -0.00250215433 0.0280754156 -0.915283263
v -0.00250215433 0.0280754156 -0.949315548
v -0.00250215433 0.0280754156 -0.915283263
v -0.0249670595 -0.0130781876 -0.915283263
v -0.0249670595 -0.0130781876 -0.949315548
v -0.00250215433 0.0280754156 -0.949315548
v -0.00818239152 -0.0334009081 -0.949315548
v 0.0162325874 -0.0355695263 -0.915283263
v 0.0162325874 -0.0355695263 -0.949315548
v -0.00818239152 -0.0334009081 -0.915283263
v -0.0249670595 -0.0130781876 -0.915283263
v -0.0249670595 -0.0130781876 -0.949315548
v 0.0236706343 0.0249484312 -0.675431073
v 0.0386987105 0.00558411237 -0.675431073
v 0.0386987105 0.00558411237 -0.614286363
v 0.0236706343 0.0249484312 -0.614286363
v -0.00250215433 0.0280754156 -0.675431073
v -0.00250215433 0.0280754156 -0.614286363
v 0.0386987105 0.00558411237 -0.675431073
v 0.0162325874 -0.0355695263 -0.675431073
v 0.0162325874 -0.0355695263 -0.614286363
v 0.0386987105 0.00558411237 -0.614286363
v 0.0162325874 -0.0355695263 -0.675431073
v -0.00818239152 -0.0334009081 -0.614286363
v 0.0162325874 -0.0355695263 -0.614286363
v -0.00818239152 -0.0334009081 -0.675431073
v -0.0249670595 -0.0130781876 -0.614286363
v -0.0249670595 -0.0130781876 -0.675431073
v -0.0249670595 -0.0130781876 -0.675431073
v -0.00250215433 0.0280754156 -0.675431073
v -0.00250215433 0.0280754156 -0.614286363
v -0.0249670595 -0.0130781876 -0.614286363
vt 0.849121094 0.548828125
vt 0.864746094 0.548828125
vt 0.864746094 0.533203125
vt 0.849121094 0.533203125
vt 0.837402344 0.548828125
vt 0.837402344 0.533203125
vt 0.922851562 0.548828125
vt 0.930175781 0.548828125
vt 0.930175781 0.533203125
vt 0.922363281 0.533203125
vt 0.874023438 0.548828125
vt 0.874023438 0.533203125
vt 0.864746094 0.548828125
vt 0.864746094 0.533203125
vt 0.930175781 0.548828125
vt 0.945800781 0.533203125
vt 0.930175781 0.533203125
vt 0.945800781 0.548828125
vt 0.958007812 0.533203125
vt 0.958007812 0.548828125
vt 0.930175781 0.552734375
vt 0.922851562 0.568359375
vt 0.930175781 0.568359375
vt 0.922851562 0.552734375
vt 0.874023438 0.568359375
vt 0.874023438 0.552734375
vt 0.865234375 0.568359375
vt 0.865234375 0.552734375
vt 0.896972656 0.525878906
vt 0.87890625 0.517089844
vt 0.87890625 0.507324219
vt 0.892578125 0.507324219
vt 0.912597656 0.525878906
vt 0.87890625 0.445068359
vt 0.912597656 0.507324219
vt 0.892578125 0.445068359
vt 0.87890625 0.43359375
vt 0.896972656 0.424804688
vt 0.912597656 0.424804688
vt 0.912597656 0.445068359
vt 0.923339844 0.424804688
vt 0.923828125 0.525878906
vt 0.923339844 0.445068359
vt 0.934082031 0.424804688
vt 0.923828125 0.507324219
vt 0.934082031 0.525878906
vt 0.934082031 0.445068359
vt 0.946777344 0.424804688
vt 0.934082031 0.507324219
vt 0.947265625 0.525878906
vt 0.951660156 0.445068359
vt 0.964355469 0.43359375
vt 0.964355469 0.445068359
vt 0.951660156 0.507324219
vt 0.964355469 0.517089844
vt 0.964355469 0.507324219
vt 0.850097656 0.552734375
vt 0.83984375 0.552734375
vt 0.83984375 0.568359375
vt 0.850097656 0.568359375
vt 0.865234375 0.552734375
vt 0.865234375 0.568359375
vt 0.955566406 0.552734375
vt 0.9453125 0.568359375
vt 0.955566406 0.568359375
vt 0.9453125 0.552734375
vt 0.930175781 0.568359375
vt 0.930175781 0.552734375
vt 0.865234375 0.501953125
vt 0.857421875 0.51953125
vt 0.864257812 0.516601562
vt 0.857910156 0.5
vt 0.849121094 0.518066406
vt 0.850097656 0.502929688
vt 0.8515625 0.446777344
vt 0.845703125 0.448486328
vt 0.841796875 0.461669922
vt 0.851074219 0.464111328
vt 0.857421875 0.447753906
vt 0.861328125 0.461425781
vt 0.964355469 0.507324219
vt 0.947265625 0.525878906
vt 0.964355469 0.517089844
vt 0.951660156 0.507324219
vt 0.964355469 0.445068359
vt 0.934082031 0.525878906
vt 0.951660156 0.445068359
vt 0.964355469 0.43359375
vt 0.947265625 0.424804688
vt 0.934082031 0.507324219
vt 0.934082031 0.445068359
vt 0.923828125 0.525878906
vt 0.934082031 0.424804688
vt 0.923828125 0.507324219
vt 0.912597656 0.525878906
vt 0.923828125 0.445068359
vt 0.923828125 0.424804688
vt 0.912597656 0.507324219
vt 0.896972656 0.525878906
vt 0.912597656 0.445068359
vt 0.912597656 0.424804688
vt 0.892578125 0.507324219
vt 0.87890625 0.517089844
vt 0.87890625 0.507324219
vt 0.892578125 0.445068359
vt 0.896972656 0.424804688
vt 0.87890625 0.445068359
vt 0.87890625 0.43359375
vt 0.98828125 0.474121094
vt 0.98828125 0.46484375
vt 0.979980469 0.46484375
vt 0.979980469 0.474121094
vt 0.975585938 0.429443359
vt 0.966796875 0.429443359
vt 0.966796875 0.461181641
vt 0.975585938 0.461181641
vt 0.9765625 0.46484375
vt 0.966796875 0.46484375
vt 0.966796875 0.473388672
vt 0.9765625 0.473144531
vt 0.987792969 0.429443359
vt 0.979003906 0.429443359
vt 0.979003906 0.461181641
vt 0.987792969 0.461181641
vt 0.967773438 0.507324219
vt 0.9765625 0.507324219
vt 0.9765625 0.475830078
vt 0.967773438 0.475830078
vt 0.980957031 0.520019531
vt 0.990234375 0.520019531
vt 0.990234375 0.510742188
vt 0.980957031 0.510742188
vt 0.979980469 0.507324219
vt 0.988769531 0.507324219
vt 0.988769531 0.475830078
vt 0.979980469 0.475830078
vt 0.977539062 0.520019531
vt 0.977539062 0.510742188
vt 0.967773438 0.510742188
vt 0.967773438 0.520019531
vt 0.872070312 0.497558594
vt 0.865234375 0.501953125
vt 0.864257812 0.516601562
vt 0.872070312 0.523925781
vt 0.872070312 0.523925781
vt 0.864257812 0.516601562
vt 0.857421875 0.51953125
vt 0.856933594 0.53125
vt 0.842285156 0.521972656
vt 0.849121094 0.518066406
vt 0.842285156 0.521972656
vt 0.849121094 0.518066406
vt 0.850097656 0.502929688
vt 0.842285156 0.495849609
vt 0.857910156 0.5
vt 0.865234375 0.501953125
vt 0.872070312 0.497558594
vt 0.858398438 0.488769531
vt 0.842285156 0.495849609
vt 0.850097656 0.502929688
vt 0.850585938 0.484863281
vt 0.841796875 0.461669922
vt 0.840820312 0.484375
vt 0.851074219 0.464111328
vt 0.860351562 0.484619141
vt 0.861328125 0.461425781
vt 0.825195312 0.446044922
vt 0.841796875 0.461669922
vt 0.845703125 0.448486328
vt 0.836425781 0.433349609
vt 0.836425781 0.433349609
vt 0.845703125 0.448486328
vt 0.8515625 0.446777344
vt 0.846679688 0.429199219
vt 0.857421875 0.447753906
vt 0.858886719 0.429199219
vt 0.858886719 0.429199219
vt 0.857421875 0.447753906
vt 0.861328125 0.461425781
vt 0.875976562 0.439208984
vt 0.849121094 0.548828125
vt 0.864746094 0.533203125
vt 0.864746094 0.548828125
vt 0.849121094 0.533203125
vt 0.837402344 0.548828125
vt 0.837402344 0.533203125
vt 0.922851562 0.548828125
vt 0.930175781 0.533203125
vt 0.930175781 0.548828125
vt 0.922363281 0.533203125
vt 0.874023438 0.548828125
vt 0.874023438 0.533203125
vt 0.864746094 0.548828125
vt 0.864746094 0.533203125
vt 0.930175781 0.548828125
vt 0.930175781 0.533203125
vt 0.945800781 0.533203125
vt 0.945800781 0.548828125
vt 0.958007812 0.533203125
vt 0.958007812 0.548828125
vt 0.930175781 0.552734375
vt 0.930175781 0.568359375
vt 0.922851562 0.568359375
vt 0.922851562 0.552734375
vt 0.874023438 0.568359375
vt 0.874023438 0.552734375
vt 0.865234375 0.568359375
vt 0.865234375 0.552734375
vt 0.896972656 0.525878906
vt 0.87890625 0.507324219
vt 0.87890625 0.517089844
vt 0.892578125 0.507324219
vt 0.912597656 0.525878906
vt 0.87890625 0.445068359
vt 0.912597656 0.507324219
vt 0.892578125 0.445068359
vt 0.87890625 0.43359375
vt 0.896972656 0.424804688
vt 0.912597656 0.424804688
vt 0.912597656 0.445068359
vt 0.923339844 0.424804688
vt 0.923828125 0.525878906
vt 0.923339844 0.445068359
vt 0.934082031 0.424804688
vt 0.923828125 0.507324219
vt 0.934082031 0.525878906
vt 0.934082031 0.445068359
vt 0.946777344 0.424804688
vt 0.934082031 0.507324219
vt 0.947265625 0.525878906
vt 0.951660156 0.445068359
vt 0.964355469 0.43359375
vt 0.964355469 0.445068359
vt 0.951660156 0.507324219
vt 0.964355469 0.517089844
vt 0.964355469 0.507324219
vt 0.850097656 0.552734375
vt 0.83984375 0.568359375
vt 0.83984375 0.552734375
vt 0.850097656 0.568359375
vt 0.865234375 0.552734375
vt 0.865234375 0.568359375
vt 0.955566406 0.552734375
vt 0.955566406 0.568359375
vt 0.9453125 0.568359375
vt 0.9453125 0.552734375
vt 0.930175781 0.568359375
vt 0.930175781 0.552734375
vt 0.865234375 0.501953125
vt 0.864257812 0.516601562
vt 0.857421875 0.51953125
vt 0.857910156 0.5
vt 0.849121094 0.518066406
vt 0.850097656 0.502929688
vt 0.8515625 0.446777344
vt 0.841796875 0.461669922
vt 0.845703125 0.448486328
vt 0.851074219 0.464111328
vt 0.857421875 0.447753906
vt 0.861328125 0.461425781
vt 0.964355469 0.507324219
vt 0.964355469 0.517089844
vt 0.947265625 0.525878906
vt 0.951660156 0.507324219
vt 0.964355469 0.445068359
vt 0.934082031 0.525878906
vt 0.951660156 0.445068359
vt 0.964355469 0.43359375
vt 0.947265625 0.424804688
vt 0.934082031 0.507324219
vt 0.934082031 0.445068359
vt 0.923828125 0.525878906
vt 0.934082031 0.424804688
vt 0.923828125 0.507324219
vt 0.912597656 0.525878906
vt 0.923828125 0.445068359
vt 0.923828125 0.424804688
vt 0.912597656 0.507324219
vt 0.896972656 0.525878906
vt 0.912597656 0.445068359
vt 0.912597656 0.424804688
vt 0.892578125 0.507324219
vt 0.87890625 0.517089844
vt 0.87890625 0.507324219
vt 0.892578125 0.445068359
vt 0.896972656 0.424804688
vt 0.87890625 0.445068359
vt 0.87890625 0.43359375
vt 0.98828125 0.474121094
vt 0.979980469 0.474121094
vt 0.979980469 0.46484375
vt 0.98828125 0.46484375
vt 0.975585938 0.429443359
vt 0.975585938 0.461181641
vt 0.966796875 0.461181641
vt 0.966796875 0.429443359
vt 0.9765625 0.46484375
vt 0.9765625 0.473144531
vt 0.966796875 0.473388672
vt 0.966796875 0.46484375
vt 0.987792969 0.429443359
vt 0.987792969 0.461181641
vt 0.979003906 0.461181641
vt 0.979003906 0.429443359
vt 0.967773438 0.507324219
vt 0.967773438 0.475830078
vt 0.9765625 0.475830078
vt 0.9765625 0.507324219
vt 0.980957031 0.520019531
vt 0.980957031 0.510742188
vt 0.990234375 0.510742188
vt 0.990234375 0.520019531
vt 0.979980469 0.507324219
vt 0.979980469 0.475830078
vt 0.988769531 0.475830078
vt 0.988769531 0.507324219
vt 0.977539062 0.520019531
vt 0.967773438 0.520019531
vt 0.967773438 0.510742188
vt 0.977539062 0.510742188
vt 0.872070312 0.497558594
vt 0.872070312 0.523925781
vt 0.864257812 0.516601562
vt 0.865234375 0.501953125
vt 0.872070312 0.523925781
vt 0.857421875 0.51953125
vt 0.864257812 0.516601562
vt 0.856933594 0.53125
vt 0.842285156 0.521972656
vt 0.849121094 0.518066406
vt 0.842285156 0.521972656
vt 0.842285156 0.495849609
vt 0.850097656 0.502929688
vt 0.849121094 0.518066406
vt 0.857910156 0.5
vt 0.872070312 0.497558594
vt 0.865234375 0.501953125
vt 0.858398438 0.488769531
vt 0.842285156 0.495849609
vt 0.850097656 0.502929688
vt 0.850585938 0.484863281
vt 0.840820312 0.484375
vt 0.841796875 0.461669922
vt 0.851074219 0.464111328
vt 0.860351562 0.484619141
vt 0.861328125 0.461425781
vt 0.825195312 0.446044922
vt 0.836425781 0.433349609
vt 0.845703125 0.448486328
vt 0.841796875 0.461669922
vt 0.836425781 0.433349609
vt 0.8515625 0.446777344
vt 0.845703125 0.448486328
vt 0.846679688 0.429199219
vt 0.857421875 0.447753906
vt 0.858886719 0.429199219
vt 0.858886719 0.429199219
vt 0.875976562 0.439208984
vt 0.861328125 0.461425781
vt 0.857421875 0.447753906
vn -0.222167969 0.121276855 0.967285156
vn -0.382080078 0.208618164 0.900390625
vn -0.382080078 0.208618164 0.900390625
vn -0.222167969 0.121276855 0.967285156
vn 4.17232513E-07 0 1
vn 4.17232513E-07 0 1
vn -0.877929688 0.479248047 0
vn -0.877929688 0.479248047 0
vn -0.877929688 0.479248047 0
vn -0.877929688 0.479248047 0
vn -0.877929688 0.479248047 0
vn -0.877929688 0.479248047 0
vn -0.877929688 0.479248047 0
vn -0.877929688 0.479248047 0
vn -0.382080078 0.208618164 -0.900390625
vn -0.222167969 0.121276855 -0.967285156
vn -0.382080078 0.208618164 -0.900390625
vn -0.222167969 0.121276855 -0.967285156
vn 2.38418579E-07 0 -1
vn 2.38418579E-07 0 -1
vn 0.877929688 -0.479248047 0
vn 0.877929688 -0.479248047 0
vn 0.877929688 -0.479248047 0
vn 0.877929688 -0.479248047 0
vn 0.877929688 -0.479248047 0
vn 0.877929688 -0.479248047 0
vn 0.877929688 -0.479248047 0
vn 0.877929688 -0.479248047 0
vn -0.479248047 -0.877929688 -2.8014183E-06
vn -0.479248047 -0.877929688 -3.87430191E-06
vn -0.479248047 -0.877929688 -7.74860382E-07
vn -0.479248047 -0.877929688 -1.1920929E-06
vn -0.602050781 -0.798339844 -1.54972076E-06
vn -0.479248047 -0.877929688 8.94069672E-07
vn -0.703613281 -0.7109375 -6.55651093E-07
vn -0.479248047 -0.877929688 1.31130219E-06
vn -0.479248047 -0.877929688 3.9935112E-06
vn -0.479248047 -0.877929688 2.86102295E-06
vn -0.602050781 -0.798339844 1.54972076E-06
vn -0.699707031 -0.714355469 7.15255737E-07
vn -0.479248047 -0.877929688 0
vn -0.479248047 -0.877929688 0
vn -0.479248047 -0.877929688 0
vn -0.329345703 -0.944335938 -2.14576721E-06
vn -0.479248047 -0.877929688 0
vn -0.329345703 -0.944335938 2.32458115E-06
vn -0.196166992 -0.98046875 -9.53674316E-07
vn -0.479248047 -0.877929688 -3.4570694E-06
vn -0.190551758 -0.981445312 1.01327896E-06
vn -0.479248047 -0.877929688 3.87430191E-06
vn -0.479248047 -0.877929688 -1.37090683E-06
vn -0.479248047 -0.877929688 -3.33786011E-06
vn -0.479248047 -0.877929688 -7.15255737E-07
vn -0.479248047 -0.877929688 1.49011612E-06
vn -0.479248047 -0.877929688 4.11272049E-06
vn -0.479248047 -0.877929688 8.34465027E-07
vn 0.244140625 -0.133300781 0.960449219
vn 1.01327896E-06 0 1
vn 1.01327896E-06 0 1
vn 0.244140625 -0.133300781 0.960449219
vn 0.399902344 -0.218383789 0.890136719
vn 0.399902344 -0.218383789 0.890136719
vn -2.38418579E-07 0 -1
vn 0.244140625 -0.133300781 -0.960449219
vn -2.38418579E-07 0 -1
vn 0.244140625 -0.133300781 -0.960449219
vn 0.399902344 -0.218383789 -0.890136719
vn 0.399902344 -0.218383789 -0.890136719
vn 3.57627869E-07 0 1
vn -1.1920929E-07 0 1
vn 3.57627869E-07 0 1
vn -1.1920929E-07 0 1
vn -5.36441803E-07 0 1
vn -5.36441803E-07 0 1
vn -0 0 -1
vn -0 0 -1
vn -0 0 -1
vn -0 0 -1
vn -0 0 -1
vn -0 0 -1
vn 0.479248047 0.877929688 -9.53674316E-07
vn 0.479248047 0.877929688 -2.62260437E-06
vn 0.479248047 0.877929688 -4.82797623E-06
vn 0.479248047 0.877929688 -1.25169754E-06
vn 0.479248047 0.877929688 1.07288361E-06
vn 0.616210938 0.787597656 -1.1920929E-06
vn 0.479248047 0.877929688 1.31130219E-06
vn 0.479248047 0.877929688 4.88758087E-06
vn 0.479248047 0.877929688 2.56299973E-06
vn 0.72265625 0.69140625 -4.76837158E-07
vn 0.71875 0.6953125 4.76837158E-07
vn 0.479248047 0.877929688 0
vn 0.616210938 0.787597656 1.07288361E-06
vn 0.479248047 0.877929688 0
vn 0.345947266 0.937988281 -2.08616257E-06
vn 0.479248047 0.877929688 0
vn 0.479248047 0.877929688 0
vn 0.217285156 0.976074219 -8.94069672E-07
vn 0.479248047 0.877929688 -3.63588333E-06
vn 0.22265625 0.975097656 1.07288361E-06
vn 0.345947266 0.937988281 2.38418579E-06
vn 0.479248047 0.877929688 -1.49011612E-06
vn 0.479248047 0.877929688 -4.529953E-06
vn 0.479248047 0.877929688 -8.94069672E-07
vn 0.479248047 0.877929688 1.66893005E-06
vn 0.479248047 0.877929688 3.9935112E-06
vn 0.479248047 0.877929688 1.01327896E-06
vn 0.479248047 0.877929688 4.529953E-06
vn 7.74860382E-07 0 1
vn 7.74860382E-07 0 1
vn 7.74860382E-07 0 1
vn 7.74860382E-07 0 1
vn 0.877929688 -0.479248047 0
vn 0.877929688 -0.479248047 0
vn 0.877929688 -0.479248047 0
vn 0.877929688 -0.479248047 0
vn -0 0 -1
vn -0 0 -1
vn -0 0 -1
vn -0 0 -1
vn -0.877929688 0.479248047 0
vn -0.877929688 0.479248047 0
vn -0.877929688 0.479248047 0
vn -0.877929688 0.479248047 0
vn 0.877929688 -0.479248047 0
vn 0.877929688 -0.479248047 0
vn 0.877929688 -0.479248047 0
vn 0.877929688 -0.479248047 0
vn -0 0 1
vn -0 0 1
vn -0 0 1
vn -0 0 1
vn -0.877929688 0.479248047 0
vn -0.877929688 0.479248047 0
vn -0.877929688 0.479248047 0
vn -0.877929688 0.479248047 0
vn -6.55651093E-07 0 -1
vn -6.55651093E-07 0 -1
vn -6.55651093E-07 0 -1
vn -6.55651093E-07 0 -1
vn 0.877929688 -0.479248047 0
vn 0.877929688 -0.479248047 0
vn 0.877929688 -0.479248047 0
vn 0.877929688 -0.479248047 0
vn 0.790039062 0.61328125 0
vn 0.790039062 0.61328125 0
vn 0.479248047 0.877929688 0
vn 0.479248047 0.877929688 0
vn 0.118652344 0.993164062 0
vn 0.118652344 0.993164062 0
vn -0.877929688 0.479248047 0
vn -0.877929688 0.479248047 0
vn -0.877929688 0.479248047 0
vn -0.877929688 0.479248047 0
vn -0.479248047 -0.877929688 0
vn -0.0885009766 -0.99609375 0
vn -0.0885009766 -0.99609375 0
vn -0.479248047 -0.877929688 0
vn -0.770996094 -0.63671875 0
vn -0.770996094 -0.63671875 0
vn 0.479248047 0.877929688 0
vn 0.992675781 -0.122009277 0
vn 0.992675781 -0.122009277 0
vn 0.479248047 0.877929688 0
vn -0.615722656 0.787597656 0
vn -0.615722656 0.787597656 0
vn 0.992675781 -0.122009277 0
vn 0.992675781 -0.122009277 0
vn 0.639160156 -0.769042969 0
vn 0.639160156 -0.769042969 0
vn 0.639160156 -0.769042969 0
vn 0.639160156 -0.769042969 0
vn -0.479248047 -0.877929688 0
vn -0.479248047 -0.877929688 0
vn -0.995605469 0.0919799805 0
vn -0.995605469 0.0919799805 0
vn -0.995605469 0.0919799805 0
vn -0.995605469 0.0919799805 0
vn -0.615722656 0.787597656 0
vn -0.615722656 0.787597656 0
vn -0.222167969 0.121276855 -0.967285156
vn -0.382080078 0.208618164 -0.900390625
vn -0.382080078 0.208618164 -0.900390625
vn -0.222167969 0.121276855 -0.967285156
vn 8.94069672E-07 0 -1
vn 8.94069672E-07 0 -1
vn -0.877929688 0.479248047 0
vn -0.877929688 0.479248047 0
vn -0.877929688 0.479248047 0
vn -0.877929688 0.479248047 0
vn -0.877929688 0.479248047 0
vn -0.877929688 0.479248047 0
vn -0.877929688 0.479248047 0
vn -0.877929688 0.479248047 0
vn -0.382080078 0.208618164 0.900390625
vn -0.382080078 0.208618164 0.900390625
vn -0.222167969 0.121276855 0.967285156
vn -0.222167969 0.121276855 0.967285156
vn -0 0 1
vn -0 0 1
vn 0.877929688 -0.479248047 0
vn 0.877929688 -0.479248047 0
vn 0.877929688 -0.479248047 0
vn 0.877929688 -0.479248047 0
vn 0.877929688 -0.479248047 0
vn 0.877929688 -0.479248047 0
vn 0.877929688 -0.479248047 0
vn 0.877929688 -0.479248047 0
vn -0.479248047 -0.877929688 2.92062759E-06
vn -0.479248047 -0.877929688 8.34465027E-07
vn -0.479248047 -0.877929688 4.17232513E-06
vn -0.479248047 -0.877929688 1.25169754E-06
vn -0.602050781 -0.798339844 1.54972076E-06
vn -0.479248047 -0.877929688 -8.34465027E-07
vn -0.703613281 -0.7109375 6.55651093E-07
vn -0.479248047 -0.877929688 -1.1920929E-06
vn -0.479248047 -0.877929688 -3.69548798E-06
vn -0.479248047 -0.877929688 -2.62260437E-06
vn -0.602050781 -0.798339844 -1.43051147E-06
vn -0.699707031 -0.714355469 -6.55651093E-07
vn -0.479248047 -0.877929688 0
vn -0.479248047 -0.877929688 0
vn -0.479248047 -0.877929688 0
vn -0.329345703 -0.944335938 2.14576721E-06
vn -0.479248047 -0.877929688 0
vn -0.329345703 -0.944335938 -2.50339508E-06
vn -0.196166992 -0.98046875 9.53674316E-07
vn -0.479248047 -0.877929688 3.51667404E-06
vn -0.190551758 -0.981445312 -1.07288361E-06
vn -0.479248047 -0.877929688 -4.05311584E-06
vn -0.479248047 -0.877929688 1.43051147E-06
vn -0.479248047 -0.877929688 3.63588333E-06
vn -0.479248047 -0.877929688 8.34465027E-07
vn -0.479248047 -0.877929688 -1.54972076E-06
vn -0.479248047 -0.877929688 -4.11272049E-06
vn -0.479248047 -0.877929688 -8.34465027E-07
vn 0.244140625 -0.133300781 -0.960449219
vn -0 0 -1
vn -0 0 -1
vn 0.244140625 -0.133300781 -0.960449219
vn 0.399902344 -0.218383789 -0.890136719
vn 0.399902344 -0.218383789 -0.890136719
vn -0 0 1
vn -0 0 1
vn 0.244140625 -0.133300781 0.960449219
vn 0.244140625 -0.133300781 0.960449219
vn 0.399902344 -0.218383789 0.890136719
vn 0.399902344 -0.218383789 0.890136719
vn -0 0 -1
vn -0 0 -1
vn -0 0 -1
vn -0 0 -1
vn -0 0 -1
vn -0 0 -1
vn -0 0 1
vn -0 0 1
vn -0 0 1
vn -0 0 1
vn -0 0 1
vn -0 0 1
vn 0.479248047 0.877929688 1.13248825E-06
vn 0.479248047 0.877929688 5.54323196E-06
vn 0.479248047 0.877929688 3.15904617E-06
vn 0.479248047 0.877929688 1.49011612E-06
vn 0.479248047 0.877929688 -9.53674316E-07
vn 0.616210938 0.787597656 1.49011612E-06
vn 0.479248047 0.877929688 -1.25169754E-06
vn 0.479248047 0.877929688 -4.23192978E-06
vn 0.479248047 0.877929688 -2.68220901E-06
vn 0.72265625 0.69140625 5.96046448E-07
vn 0.71875 0.6953125 -5.96046448E-07
vn 0.479248047 0.877929688 0
vn 0.616210938 0.787597656 -1.31130219E-06
vn 0.479248047 0.877929688 0
vn 0.345947266 0.937988281 2.62260437E-06
vn 0.479248047 0.877929688 0
vn 0.479248047 0.877929688 0
vn 0.217285156 0.976074219 1.13248825E-06
vn 0.479248047 0.877929688 4.23192978E-06
vn 0.22265625 0.975097656 -8.34465027E-07
vn 0.345947266 0.937988281 -1.90734863E-06
vn 0.479248047 0.877929688 1.66893005E-06
vn 0.479248047 0.877929688 4.529953E-06
vn 0.479248047 0.877929688 8.94069672E-07
vn 0.479248047 0.877929688 -1.43051147E-06
vn 0.479248047 0.877929688 -3.27825546E-06
vn 0.479248047 0.877929688 -8.94069672E-07
vn 0.479248047 0.877929688 -3.9935112E-06
vn 7.74860382E-07 0 -1
vn 7.74860382E-07 0 -1
vn 7.74860382E-07 0 -1
vn 7.74860382E-07 0 -1
vn 0.877929688 -0.479248047 0
vn 0.877929688 -0.479248047 0
vn 0.877929688 -0.479248047 0
vn 0.877929688 -0.479248047 0
vn 1.13248825E-06 0 1
vn 1.13248825E-06 0 1
vn 1.13248825E-06 0 1
vn 1.13248825E-06 0 1
vn -0.877929688 0.479248047 0
vn -0.877929688 0.479248047 0
vn -0.877929688 0.479248047 0
vn -0.877929688 0.479248047 0
vn 0.877929688 -0.479248047 0
vn 0.877929688 -0.479248047 0
vn 0.877929688 -0.479248047 0
vn 0.877929688 -0.479248047 0
vn -0 0 -1
vn -0 0 -1
vn -0 0 -1
vn -0 0 -1
vn -0.877929688 0.479248047 0
vn -0.877929688 0.479248047 0
vn -0.877929688 0.479248047 0
vn -0.877929688 0.479248047 0
vn 3.57627869E-07 0 1
vn 3.57627869E-07 0 1
vn 3.57627869E-07 0 1
vn 3.57627869E-07 0 1
vn 0.877929688 -0.479248047 0
vn 0.877929688 -0.479248047 0
vn 0.877929688 -0.479248047 0
vn 0.877929688 -0.479248047 0
vn 0.790039062 0.61328125 0
vn 0.479248047 0.877929688 0
vn 0.790039062 0.61328125 0
vn 0.479248047 0.877929688 0
vn 0.118652344 0.993164062 0
vn 0.118652344 0.993164062 0
vn -0.877929688 0.479248047 0
vn -0.877929688 0.479248047 0
vn -0.877929688 0.479248047 0
vn -0.877929688 0.479248047 0
vn -0.479248047 -0.877929688 0
vn -0.0885009766 -0.99609375 0
vn -0.0885009766 -0.99609375 0
vn -0.479248047 -0.877929688 0
vn -0.770996094 -0.63671875 0
vn -0.770996094 -0.63671875 0
vn 0.479248047 0.877929688 0
vn 0.992675781 -0.122009277 0
vn 0.992675781 -0.122009277 0
vn 0.479248047 0.877929688 0
vn -0.615722656 0.787597656 0
vn -0.615722656 0.787597656 0
vn 0.992675781 -0.122009277 0
vn 0.639160156 -0.769042969 0
vn 0.639160156 -0.769042969 0
vn 0.992675781 -0.122009277 0
vn 0.639160156 -0.769042969 0
vn -0.479248047 -0.877929688 0
vn 0.639160156 -0.769042969 0
vn -0.479248047 -0.877929688 0
vn -0.995605469 0.0919799805 0
vn -0.995605469 0.0919799805 0
vn -0.995605469 0.0919799805 0
vn -0.615722656 0.787597656 0
vn -0.615722656 0.787597656 0
vn -0.995605469 0.0919799805 0
g Cannon_Pedals_0
f 3/3/3 2/2/2 1/1/1
f 4/4/4 3/3/3 1/1/1
f 4/4/4 1/1/1 5/5/5
f 6/6/6 4/4/4 5/5/5
f 9/9/9 8/8/8 7/7/7
f 10/10/10 9/9/9 7/7/7
f 10/10/10 7/7/7 11/11/11
f 12/12/12 10/10/10 11/11/11
f 12/12/12 11/11/11 13/13/13
f 14/14/14 12/12/12 13/13/13
f 17/17/17 16/16/16 15/15/15
f 16/16/16 18/18/18 15/15/15
f 16/16/16 19/19/19 18/18/18
f 19/19/19 20/20/20 18/18/18
f 23/23/23 22/22/22 21/21/21
f 22/22/22 24/24/24 21/21/21
f 22/22/22 25/25/25 24/24/24
f 25/25/25 26/26/26 24/24/24
f 25/25/25 27/27/27 26/26/26
f 27/27/27 28/28/28 26/26/26
f 31/31/31 30/30/30 29/29/29
f 32/32/32 31/31/31 29/29/29
f 32/32/32 29/29/29 33/33/33
f 34/34/34 31/31/31 32/32/32
f 35/35/35 32/32/32 33/33/33
f 36/36/36 34/34/34 32/32/32
f 37/37/37 34/34/34 36/36/36
f 38/38/38 37/37/37 36/36/36
f 39/39/39 38/38/38 36/36/36
f 40/40/40 39/39/39 36/36/36
f 41/41/41 39/39/39 40/40/40
f 35/35/35 33/33/33 42/42/42
f 43/43/43 41/41/41 40/40/40
f 43/43/43 40/40/40 35/35/35
f 44/44/44 41/41/41 43/43/43
f 45/45/45 35/35/35 42/42/42
f 45/45/45 43/43/43 35/35/35
f 45/45/45 42/42/42 46/46/46
f 47/47/47 44/44/44 43/43/43
f 47/47/47 43/43/43 45/45/45
f 48/48/48 44/44/44 47/47/47
f 49/49/49 45/45/45 46/46/46
f 49/49/49 47/47/47 45/45/45
f 49/49/49 46/46/46 50/50/50
f 51/51/51 48/48/48 47/47/47
f 52/52/52 48/48/48 51/51/51
f 53/53/53 52/52/52 51/51/51
f 54/54/54 49/49/49 50/50/50
f 53/53/53 51/51/51 54/54/54
f 54/54/54 50/50/50 55/55/55
f 56/56/56 53/53/53 54/54/54
f 56/56/56 54/54/54 55/55/55
f 59/59/59 58/58/58 57/57/57
f 60/60/60 59/59/59 57/57/57
f 60/60/60 57/57/57 61/61/61
f 62/62/62 60/60/60 61/61/61
f 65/65/65 64/64/64 63/63/63
f 64/64/64 66/66/66 63/63/63
f 64/64/64 67/67/67 66/66/66
f 67/67/67 68/68/68 66/66/66
f 71/71/71 70/70/70 69/69/69
f 70/70/70 72/72/72 69/69/69
f 70/70/70 73/73/73 72/72/72
f 73/73/73 74/74/74 72/72/72
f 77/77/77 76/76/76 75/75/75
f 78/78/78 77/77/77 75/75/75
f 78/78/78 75/75/75 79/79/79
f 80/80/80 78/78/78 79/79/79
f 83/83/83 82/82/82 81/81/81
f 82/82/82 84/84/84 81/81/81
f 81/81/81 84/84/84 85/85/85
f 82/82/82 86/86/86 84/84/84
f 84/84/84 87/87/87 85/85/85
f 85/85/85 87/87/87 88/88/88
f 87/87/87 89/89/89 88/88/88
f 86/86/86 90/90/90 84/84/84
f 87/87/87 91/91/91 89/89/89
f 86/86/86 92/92/92 90/90/90
f 91/91/91 93/93/93 89/89/89
f 92/92/92 94/94/94 90/90/90
f 90/90/90 94/94/94 91/91/91
f 92/92/92 95/95/95 94/94/94
f 91/91/91 96/96/96 93/93/93
f 94/94/94 96/96/96 91/91/91
f 96/96/96 97/97/97 93/93/93
f 95/95/95 98/98/98 94/94/94
f 94/94/94 98/98/98 96/96/96
f 95/95/95 99/99/99 98/98/98
f 96/96/96 100/100/100 97/97/97
f 98/98/98 100/100/100 96/96/96
f 100/100/100 101/101/101 97/97/97
f 99/99/99 102/102/102 98/98/98
f 99/99/99 103/103/103 102/102/102
f 103/103/103 104/104/104 102/102/102
f 100/100/100 105/105/105 101/101/101
f 102/102/102 104/104/104 105/105/105
f 105/105/105 106/106/106 101/101/101
f 104/104/104 107/107/107 105/105/105
f 105/105/105 107/107/107 106/106/106
f 107/107/107 108/108/108 106/106/106
f 111/111/111 110/110/110 109/109/109
f 112/112/112 111/111/111 109/109/109
f 115/115/115 114/114/114 113/113/113
f 116/116/116 115/115/115 113/113/113
f 119/119/119 118/118/118 117/117/117
f 120/120/120 119/119/119 117/117/117
f 123/123/123 122/122/122 121/121/121
f 124/124/124 123/123/123 121/121/121
f 127/127/127 126/126/126 125/125/125
f 128/128/128 127/127/127 125/125/125
f 131/131/131 130/130/130 129/129/129
f 132/132/132 131/131/131 129/129/129
f 135/135/135 134/134/134 133/133/133
f 136/136/136 135/135/135 133/133/133
f 139/139/139 138/138/138 137/137/137
f 140/140/140 139/139/139 137/137/137
f 143/143/143 142/142/142 141/141/141
f 144/144/144 143/143/143 141/141/141
f 147/147/147 146/146/146 145/145/145
f 148/148/148 147/147/147 145/145/145
f 148/148/148 149/149/149 147/147/147
f 149/149/149 150/150/150 147/147/147
f 153/153/153 152/152/152 151/151/151
f 154/154/154 153/153/153 151/151/151
f 157/157/157 156/156/156 155/155/155
f 158/158/158 157/157/157 155/155/155
f 158/158/158 155/155/155 159/159/159
f 155/155/155 160/160/160 159/159/159
f 163/163/163 162/162/162 161/161/161
f 162/162/162 164/164/164 161/161/161
f 161/161/161 164/164/164 165/165/165
f 164/164/164 166/166/166 165/165/165
f 169/169/169 168/168/168 167/167/167
f 170/170/170 169/169/169 167/167/167
f 173/173/173 172/172/172 171/171/171
f 174/174/174 173/173/173 171/171/171
f 175/175/175 173/173/173 174/174/174
f 176/176/176 175/175/175 174/174/174
f 179/179/179 178/178/178 177/177/177
f 180/180/180 179/179/179 177/177/177
f 183/183/183 182/182/182 181/181/181
f 182/182/182 184/184/184 181/181/181
f 181/181/181 184/184/184 185/185/185
f 184/184/184 186/186/186 185/185/185
f 189/189/189 188/188/188 187/187/187
f 188/188/188 190/190/190 187/187/187
f 187/187/187 190/190/190 191/191/191
f 190/190/190 192/192/192 191/191/191
f 191/191/191 192/192/192 193/193/193
f 192/192/192 194/194/194 193/193/193
f 197/197/197 196/196/196 195/195/195
f 198/198/198 197/197/197 195/195/195
f 199/199/199 197/197/197 198/198/198
f 200/200/200 199/199/199 198/198/198
f 203/203/203 202/202/202 201/201/201
f 204/204/204 203/203/203 201/201/201
f 205/205/205 203/203/203 204/204/204
f 206/206/206 205/205/205 204/204/204
f 207/207/207 205/205/205 206/206/206
f 208/208/208 207/207/207 206/206/206
f 211/211/211 210/210/210 209/209/209
f 210/210/210 212/212/212 209/209/209
f 209/209/209 212/212/212 213/213/213
f 210/210/210 214/214/214 212/212/212
f 212/212/212 215/215/215 213/213/213
f 214/214/214 216/216/216 212/212/212
f 214/214/214 217/217/217 216/216/216
f 217/217/217 218/218/218 216/216/216
f 218/218/218 219/219/219 216/216/216
f 219/219/219 220/220/220 216/216/216
f 219/219/219 221/221/221 220/220/220
f 213/213/213 215/215/215 222/222/222
f 221/221/221 223/223/223 220/220/220
f 220/220/220 223/223/223 215/215/215
f 221/221/221 224/224/224 223/223/223
f 215/215/215 225/225/225 222/222/222
f 223/223/223 225/225/225 215/215/215
f 222/222/222 225/225/225 226/226/226
f 224/224/224 227/227/227 223/223/223
f 223/223/223 227/227/227 225/225/225
f 224/224/224 228/228/228 227/227/227
f 225/225/225 229/229/229 226/226/226
f 227/227/227 229/229/229 225/225/225
f 226/226/226 229/229/229 230/230/230
f 228/228/228 231/231/231 227/227/227
f 228/228/228 232/232/232 231/231/231
f 232/232/232 233/233/233 231/231/231
f 229/229/229 234/234/234 230/230/230
f 231/231/231 233/233/233 234/234/234
f 230/230/230 234/234/234 235/235/235
f 233/233/233 236/236/236 234/234/234
f 234/234/234 236/236/236 235/235/235
f 239/239/239 238/238/238 237/237/237
f 238/238/238 240/240/240 237/237/237
f 237/237/237 240/240/240 241/241/241
f 240/240/240 242/242/242 241/241/241
f 245/245/245 244/244/244 243/243/243
f 246/246/246 245/245/245 243/243/243
f 247/247/247 245/245/245 246/246/246
f 248/248/248 247/247/247 246/246/246
f 251/251/251 250/250/250 249/249/249
f 252/252/252 251/251/251 249/249/249
f 253/253/253 251/251/251 252/252/252
f 254/254/254 253/253/253 252/252/252
f 257/257/257 256/256/256 255/255/255
f 256/256/256 258/258/258 255/255/255
f 255/255/255 258/258/258 259/259/259
f 258/258/258 260/260/260 259/259/259
f 263/263/263 262/262/262 261/261/261
f 264/264/264 263/263/263 261/261/261
f 264/264/264 261/261/261 265/265/265
f 266/266/266 263/263/263 264/264/264
f 267/267/267 264/264/264 265/265/265
f 267/267/267 265/265/265 268/268/268
f 269/269/269 267/267/267 268/268/268
f 270/270/270 266/266/266 264/264/264
f 271/271/271 267/267/267 269/269/269
f 272/272/272 266/266/266 270/270/270
f 273/273/273 271/271/271 269/269/269
f 274/274/274 272/272/272 270/270/270
f 274/274/274 270/270/270 271/271/271
f 275/275/275 272/272/272 274/274/274
f 276/276/276 271/271/271 273/273/273
f 276/276/276 274/274/274 271/271/271
f 277/277/277 276/276/276 273/273/273
f 278/278/278 275/275/275 274/274/274
f 278/278/278 274/274/274 276/276/276
f 279/279/279 275/275/275 278/278/278
f 280/280/280 276/276/276 277/277/277
f 280/280/280 278/278/278 276/276/276
f 281/281/281 280/280/280 277/277/277
f 282/282/282 279/279/279 278/278/278
f 283/283/283 279/279/279 282/282/282
f 284/284/284 283/283/283 282/282/282
f 285/285/285 280/280/280 281/281/281
f 284/284/284 282/282/282 285/285/285
f 286/286/286 285/285/285 281/281/281
f 287/287/287 284/284/284 285/285/285
f 287/287/287 285/285/285 286/286/286
f 288/288/288 287/287/287 286/286/286
f 291/291/291 290/290/290 289/289/289
f 292/292/292 291/291/291 289/289/289
f 295/295/295 294/294/294 293/293/293
f 296/296/296 295/295/295 293/293/293
f 299/299/299 298/298/298 297/297/297
f 300/300/300 299/299/299 297/297/297
f 303/303/303 302/302/302 301/301/301
f 304/304/304 303/303/303 301/301/301
f 307/307/307 306/306/306 305/305/305
f 308/308/308 307/307/307 305/305/305
f 311/311/311 310/310/310 309/309/309
f 312/312/312 311/311/311 309/309/309
f 315/315/315 314/314/314 313/313/313
f 316/316/316 315/315/315 313/313/313
f 319/319/319 318/318/318 317/317/317
f 320/320/320 319/319/319 317/317/317
f 323/323/323 322/322/322 321/321/321
f 324/324/324 323/323/323 321/321/321
f 327/327/327 326/326/326 325/325/325
f 326/326/326 328/328/328 325/325/325
f 329/329/329 328/328/328 326/326/326
f 330/330/330 329/329/329 326/326/326
f 333/333/333 332/332/332 331/331/331
f 334/334/334 333/333/333 331/331/331
f 337/337/337 336/336/336 335/335/335
f 336/336/336 338/338/338 335/335/335
f 335/335/335 338/338/338 339/339/339
f 340/340/340 335/335/335 339/339/339
f 343/343/343 342/342/342 341/341/341
f 344/344/344 343/343/343 341/341/341
f 344/344/344 341/341/341 345/345/345
f 346/346/346 344/344/344 345/345/345
f 349/349/349 348/348/348 347/347/347
f 350/350/350 349/349/349 347/347/347
f 353/353/353 352/352/352 351/351/351
f 352/352/352 354/354/354 351/351/351
f 352/352/352 355/355/355 354/354/354
f 355/355/355 356/356/356 354/354/354
f 359/359/359 358/358/358 357/357/357
f 360/360/360 359/359/359 357/357/357
