g Turbine_A_BigMachine
v 0.752895474 -1.18255616E-06 -1.50578797
v -0.752895474 0.520123661 -1.39116633
v -0.752895474 -1.18255616E-06 -1.50578797
v 0.752895474 0.520123661 -1.39116633
v -0.752895474 0.869613111 -1.19231009
v 0.752895474 0.869613111 -1.19231009
v -0.752895474 1.21160543 -0.805040896
v 0.752895474 1.21160543 -0.805040896
v 0.752895474 1.3867085 -0.420538932
v -0.752895474 1.3867085 -0.420538932
v -0.752895474 1.3867085 -0.420538932
v 0.752895474 1.3867085 -0.420538932
v 0.752895474 1.44967186 -1.83105465E-06
v -0.752895474 1.44967186 -1.83105465E-06
v 0.752895474 1.38670886 0.420536488
v -0.752895474 1.38670886 0.420536488
v 0.752895474 1.21160614 0.805039644
v -0.752895474 1.21160614 0.805039644
v -0.752895474 0.869614184 1.19231009
v 0.752895474 0.869614184 1.19231009
v -0.752895474 0.520124793 1.39116633
v 0.752895474 0.520124793 1.39116633
v -0.752895474 -1.18255616E-06 1.50578797
v 0.752895474 -1.18255616E-06 1.50578797
v -0.778894007 -3.81469718E-08 -1.14410579
v -0.778894007 0.390533775 -1.0783124
v -0.778894007 0 -6.10351549E-07
v -0.778894007 0.661457956 -0.924291372
v -0.778894007 0.926550269 -0.624093592
v -0.778894007 1.06225872 -0.326014996
v -0.778894007 1.11104119 -1.83105465E-06
v -0.778894007 1.06225908 0.32601136
v -0.778894007 0.926550984 0.6240924
v -0.778894007 0.66145879 0.924291372
v -0.778894007 0.39053455 1.07831359
v -0.778894007 -3.81469718E-08 1.14410579
v 0.778894007 0 -6.10351549E-07
v 0.778894007 0.390535623 -1.0783124
v 0.778894007 -3.81469718E-08 -1.14410579
v 0.778894007 0.661458731 -0.924291372
v 0.778894007 0.926550746 -0.624093592
v 0.778894007 1.06225932 -0.326013774
v 0.778894007 1.11104167 -1.83105465E-06
v 0.778894007 1.06225955 0.32601136
v 0.778894007 0.926551402 0.6240924
v 0.778894007 0.661460042 0.924291372
v 0.778894007 0.390536189 1.07831359
v 0.778894007 -3.81469718E-08 1.14410579
v -0.752895474 0.48205474 -1.29925966
v -0.752895474 -1.2207031E-06 -1.40678763
v -0.752895474 -1.18255616E-06 -1.50578797
v -0.752895474 0.520123661 -1.39116633
v -0.752895474 0.80847472 -1.11361754
v -0.752895474 0.869613111 -1.19231009
v -0.752895474 1.12787926 -0.751918316
v -0.752895474 1.21160543 -0.805040896
v -0.752895474 1.3867085 -0.420538932
v -0.752895474 1.29140306 -0.392787457
v -0.752895474 1.44967186 -1.83105465E-06
v -0.752895474 1.35019279 -1.83105465E-06
v -0.752895474 1.38670886 0.420536488
v -0.752895474 1.29140377 0.392786235
v -0.752895474 1.21160614 0.805039644
v -0.752895474 1.1278801 0.751917124
v -0.752895474 0.808475792 1.11361635
v -0.752895474 0.869614184 1.19231009
v -0.752895474 0.482055813 1.29925966
v -0.752895474 0.520124793 1.39116633
v -0.752895474 -1.23023983E-06 1.40678763
v -0.752895474 -1.18255616E-06 1.50578797
v 0.752895474 -1.2207031E-06 -1.40678763
v 0.752895474 0.520123661 -1.39116633
v 0.752895474 -1.18255616E-06 -1.50578797
v 0.752895474 0.48205474 -1.29925966
v 0.752895474 0.869613111 -1.19231009
v 0.752895474 0.80847472 -1.11361754
v 0.752895474 1.21160543 -0.805040896
v 0.752895474 1.12787926 -0.751918316
v 0.752895474 1.29140306 -0.392787457
v 0.752895474 1.3867085 -0.420538932
v 0.752895474 1.35019279 -1.83105465E-06
v 0.752895474 1.44967186 -1.83105465E-06
v 0.752895474 1.29140377 0.392786235
v 0.752895474 1.38670886 0.420536488
v 0.752895474 1.1278801 0.751917124
v 0.752895474 1.21160614 0.805039644
v 0.752895474 0.869614184 1.19231009
v 0.752895474 0.808475792 1.11361635
v 0.752895474 0.520124793 1.39116633
v 0.752895474 0.482055813 1.29925966
v 0.752895474 -1.18255616E-06 1.50578797
v 0.752895474 -1.23023983E-06 1.40678763
v -0.696894526 0.48205474 -1.29925966
v -0.696894526 -1.2207031E-06 -1.40678763
v -0.752895474 -1.2207031E-06 -1.40678763
v -0.752895474 0.48205474 -1.29925966
v -0.696894526 0.808474839 -1.11361754
v -0.752895474 0.80847472 -1.11361754
v -0.696894526 1.12787938 -0.751918316
v -0.752895474 1.12787926 -0.751918316
v -0.752895474 1.29140306 -0.392787457
v -0.752895474 1.29140306 -0.392787457
v -0.696894526 1.29140317 -0.392787457
v -0.696894526 1.12787938 -0.751918316
v -0.752895474 1.35019279 -1.83105465E-06
v -0.696894526 1.35019267 -1.83105465E-06
v -0.752895474 1.29140377 0.392786235
v -0.696894526 1.29140377 0.392786235
v -0.752895474 1.1278801 0.751917124
v -0.696894526 1.12788033 0.751917124
v -0.696894526 0.808476031 1.11361635
v -0.752895474 0.808475792 1.11361635
v -0.696894526 0.482055813 1.29925966
v -0.696894526 0.808476031 1.11361635
v -0.752895474 0.808475792 1.11361635
v -0.752895474 0.482055813 1.29925966
v -0.696894526 -1.23023983E-06 1.40678763
v -0.752895474 -1.23023983E-06 1.40678763
v 0.696894526 -1.2207031E-06 -1.40678763
v 0.752895474 0.48205474 -1.29925966
v 0.752895474 -1.2207031E-06 -1.40678763
v 0.696894526 0.48205474 -1.29925966
v 0.752895474 0.80847472 -1.11361754
v 0.696894526 0.80847472 -1.11361754
v 0.696894526 0.80847472 -1.11361754
v 0.752895474 1.12787926 -0.751918316
v 0.752895474 0.80847472 -1.11361754
v 0.696894526 1.1278795 -0.751918316
v 0.696894526 1.29140329 -0.392787457
v 0.752895474 1.29140306 -0.392787457
v 0.696894526 1.35019302 -1.83105465E-06
v 0.752895474 1.35019279 -1.83105465E-06
v 0.696894526 1.29140377 0.392786235
v 0.752895474 1.29140377 0.392786235
v 0.696894526 1.1278801 0.751917124
v 0.752895474 1.29140377 0.392786235
v 0.696894526 1.1278801 0.751917124
v 0.752895474 1.1278801 0.751917124
v 0.752895474 0.808475792 1.11361635
v 0.696894526 0.808475792 1.11361635
v 0.752895474 0.482055813 1.29925966
v 0.696894526 0.482055813 1.29925966
v 0.752895474 -1.23023983E-06 1.40678763
v 0.696894526 -1.23023983E-06 1.40678763
v -0.696894526 0.413607627 -1.13401306
v -0.696894526 -6.48498542E-07 -1.21032894
v -0.696894526 -1.2207031E-06 -1.40678763
v -0.696894526 0.48205474 -1.29925966
v -0.696894526 0.698787212 -0.973087728
v -0.696894526 0.808474839 -1.11361754
v -0.696894526 0.977653801 -0.657195449
v -0.696894526 1.12787938 -0.751918316
v -0.696894526 1.29140317 -0.392787457
v -0.696894526 1.1202234 -0.34329772
v -0.696894526 1.35019267 -1.83105465E-06
v -0.696894526 1.17133152 -1.83105465E-06
v -0.696894526 1.29140377 0.392786235
v -0.696894526 1.12022376 0.343296498
v -0.696894526 1.12788033 0.751917124
v -0.696894526 0.977654457 0.657194197
v -0.696894526 0.698788106 0.973086536
v -0.696894526 0.808476031 1.11361635
v -0.696894526 0.413608551 1.13401425
v -0.696894526 0.482055813 1.29925966
v -0.696894526 -6.48498542E-07 1.21032774
v -0.696894526 -1.23023983E-06 1.40678763
v 0.696894526 -6.48498542E-07 -1.21032894
v 0.696894526 0.48205474 -1.29925966
v 0.696894526 -1.2207031E-06 -1.40678763
v 0.696894526 0.413607627 -1.13401306
v 0.696894526 0.80847472 -1.11361754
v 0.696894526 0.698787034 -0.973087728
v 0.696894526 1.1278795 -0.751918316
v 0.696894526 0.977653801 -0.657195449
v 0.696894526 1.12022364 -0.34329772
v 0.696894526 1.29140329 -0.392787457
v 0.696894526 1.17133188 -1.83105465E-06
v 0.696894526 1.35019302 -1.83105465E-06
v 0.696894526 1.12022388 0.343296498
v 0.696894526 1.29140377 0.392786235
v 0.696894526 0.977654397 0.657193005
v 0.696894526 1.1278801 0.751917124
v 0.696894526 0.808475792 1.11361635
v 0.696894526 0.698787808 0.973086536
v 0.696894526 0.482055813 1.29925966
v 0.696894526 0.413608402 1.13401425
v 0.696894526 -1.23023983E-06 1.40678763
v 0.696894526 -6.48498542E-07 1.21032774
v -0.778894007 -3.81469718E-08 -1.14410579
v -0.696894526 -6.48498542E-07 -1.21032894
v -0.696894526 0.413607627 -1.13401306
v -0.778894007 0.390533775 -1.0783124
v -0.696894526 0.698787212 -0.973087728
v -0.778894007 0.661457956 -0.924291372
v -0.696894526 0.977653801 -0.657195449
v -0.778894007 0.926550269 -0.624093592
v -0.696894526 1.1202234 -0.34329772
v -0.778894007 1.06225872 -0.326014996
v -0.696894526 1.17133152 -1.83105465E-06
v -0.778894007 1.11104119 -1.83105465E-06
v -0.696894526 1.12022376 0.343296498
v -0.778894007 1.06225908 0.32601136
v -0.696894526 0.977654457 0.657194197
v -0.778894007 0.926550984 0.6240924
v -0.696894526 0.698788106 0.973086536
v -0.778894007 0.66145879 0.924291372
v -0.696894526 0.413608551 1.13401425
v -0.778894007 0.39053455 1.07831359
v -0.696894526 -6.48498542E-07 1.21032774
v -0.778894007 -3.81469718E-08 1.14410579
v 0.778894007 -3.81469718E-08 -1.14410579
v 0.696894526 0.413607627 -1.13401306
v 0.696894526 -6.48498542E-07 -1.21032894
v 0.778894007 0.390535623 -1.0783124
v 0.696894526 0.698787034 -0.973087728
v 0.778894007 0.661458731 -0.924291372
v 0.696894526 0.977653801 -0.657195449
v 0.778894007 0.926550746 -0.624093592
v 0.778894007 1.06225932 -0.326013774
v 0.696894526 1.12022364 -0.34329772
v 0.778894007 1.11104167 -1.83105465E-06
v 0.696894526 1.17133188 -1.83105465E-06
v 0.778894007 1.06225955 0.32601136
v 0.696894526 1.12022388 0.343296498
v 0.778894007 0.926551402 0.6240924
v 0.696894526 0.977654397 0.657193005
v 0.696894526 0.698787808 0.973086536
v 0.778894007 0.661460042 0.924291372
v 0.696894526 0.413608402 1.13401425
v 0.778894007 0.390536189 1.07831359
v 0.696894526 -6.48498542E-07 1.21032774
v 0.778894007 -3.81469718E-08 1.14410579
vt 0.310791016 0.634277344
vt 0.275146484 0.734863281
vt 0.310791016 0.734863281
vt 0.275146484 0.634277344
vt 0.248291016 0.734863281
vt 0.248291016 0.634277344
vt 0.213867188 0.734863281
vt 0.213867188 0.634277344
vt 0.185546875 0.634277344
vt 0.185546875 0.734863281
vt 0.185546875 0.734863281
vt 0.185546875 0.634277344
vt 0.157226562 0.634277344
vt 0.157226562 0.734863281
vt 0.12878418 0.634277344
vt 0.12878418 0.734863281
vt 0.100585938 0.634277344
vt 0.100585938 0.734863281
vt 0.0661010742 0.734863281
vt 0.0661010742 0.634277344
vt 0.039276123 0.734863281
vt 0.039276123 0.634277344
vt 0.00371742249 0.734863281
vt 0.00371742249 0.634277344
vt 0.475585938 0.708984375
vt 0.445556641 0.717285156
vt 0.481689453 0.803222656
vt 0.425048828 0.73046875
vt 0.405517578 0.754882812
vt 0.395507812 0.777832031
vt 0.392089844 0.803222656
vt 0.395751953 0.828125
vt 0.405517578 0.8515625
vt 0.425292969 0.875488281
vt 0.445556641 0.889160156
vt 0.475585938 0.897949219
vt 0.481689453 0.803222656
vt 0.445556641 0.889160156
vt 0.475585938 0.897949219
vt 0.425292969 0.875488281
vt 0.405517578 0.8515625
vt 0.395751953 0.828125
vt 0.392089844 0.803222656
vt 0.395507812 0.777832031
vt 0.405517578 0.754882812
vt 0.425048828 0.73046875
vt 0.445556641 0.717285156
vt 0.475585938 0.708984375
vt 0.432617188 0.693847656
vt 0.469482422 0.680175781
vt 0.468261719 0.672363281
vt 0.428710938 0.687011719
vt 0.407226562 0.7109375
vt 0.401855469 0.705078125
vt 0.382568359 0.741210938
vt 0.375732422 0.737304688
vt 0.362060547 0.769042969
vt 0.369873047 0.770996094
vt 0.357421875 0.803222656
vt 0.365234375 0.803222656
vt 0.362304688 0.837402344
vt 0.369873047 0.835449219
vt 0.375976562 0.868652344
vt 0.3828125 0.864746094
vt 0.407226562 0.895507812
vt 0.401855469 0.900878906
vt 0.432373047 0.912597656
vt 0.428466797 0.919433594
vt 0.469482422 0.926269531
vt 0.468261719 0.934082031
vt 0.469482422 0.926269531
vt 0.428466797 0.919433594
vt 0.468261719 0.934082031
vt 0.432373047 0.912597656
vt 0.401855469 0.900878906
vt 0.407226562 0.895507812
vt 0.375976562 0.868652344
vt 0.3828125 0.864746094
vt 0.369873047 0.835449219
vt 0.362304688 0.837402344
vt 0.365234375 0.803222656
vt 0.357421875 0.803222656
vt 0.369873047 0.770996094
vt 0.362060547 0.769042969
vt 0.382568359 0.741210938
vt 0.375732422 0.737304688
vt 0.401855469 0.705078125
vt 0.407226562 0.7109375
vt 0.428710938 0.687011719
vt 0.432617188 0.693847656
vt 0.468261719 0.672363281
vt 0.469482422 0.680175781
vt 0.434570312 0.697753906
vt 0.471191406 0.684570312
vt 0.469482422 0.680175781
vt 0.432617188 0.693847656
vt 0.41015625 0.714355469
vt 0.407226562 0.7109375
vt 0.386230469 0.743652344
vt 0.382568359 0.741210938
vt 0.369873047 0.770996094
vt 0.369873047 0.770996094
vt 0.374023438 0.772460938
vt 0.386230469 0.743652344
vt 0.365234375 0.803222656
vt 0.369873047 0.803222656
vt 0.369873047 0.835449219
vt 0.374267578 0.833984375
vt 0.3828125 0.864746094
vt 0.386474609 0.862792969
vt 0.41015625 0.892089844
vt 0.407226562 0.895507812
vt 0.434570312 0.908691406
vt 0.41015625 0.892089844
vt 0.407226562 0.895507812
vt 0.432373047 0.912597656
vt 0.471191406 0.922363281
vt 0.469482422 0.926269531
vt 0.471191406 0.922363281
vt 0.432373047 0.912597656
vt 0.469482422 0.926269531
vt 0.434570312 0.908691406
vt 0.407226562 0.895507812
vt 0.41015625 0.892089844
vt 0.41015625 0.892089844
vt 0.3828125 0.864746094
vt 0.407226562 0.895507812
vt 0.386474609 0.862792969
vt 0.374267578 0.833984375
vt 0.369873047 0.835449219
vt 0.369873047 0.803222656
vt 0.365234375 0.803222656
vt 0.374023438 0.772460938
vt 0.369873047 0.770996094
vt 0.386230469 0.743652344
vt 0.369873047 0.770996094
vt 0.386230469 0.743652344
vt 0.382568359 0.741210938
vt 0.407226562 0.7109375
vt 0.41015625 0.714355469
vt 0.432617188 0.693847656
vt 0.434570312 0.697753906
vt 0.469482422 0.680175781
vt 0.471191406 0.684570312
vt 0.441650391 0.709960938
vt 0.473632812 0.700195312
vt 0.471191406 0.684570312
vt 0.434570312 0.697753906
vt 0.419677734 0.724609375
vt 0.41015625 0.714355469
vt 0.3984375 0.750488281
vt 0.386230469 0.743652344
vt 0.374023438 0.772460938
vt 0.387695312 0.775878906
vt 0.369873047 0.803222656
vt 0.384033203 0.803222656
vt 0.374267578 0.833984375
vt 0.387939453 0.830566406
vt 0.386474609 0.862792969
vt 0.398681641 0.85546875
vt 0.419921875 0.881835938
vt 0.41015625 0.892089844
vt 0.441650391 0.896484375
vt 0.434570312 0.908691406
vt 0.473632812 0.90625
vt 0.471191406 0.922363281
vt 0.473632812 0.90625
vt 0.434570312 0.908691406
vt 0.471191406 0.922363281
vt 0.441650391 0.896484375
vt 0.41015625 0.892089844
vt 0.419921875 0.881835938
vt 0.386474609 0.862792969
vt 0.398681641 0.85546875
vt 0.387939453 0.830566406
vt 0.374267578 0.833984375
vt 0.384033203 0.803222656
vt 0.369873047 0.803222656
vt 0.387695312 0.775878906
vt 0.374023438 0.772460938
vt 0.3984375 0.750488281
vt 0.386230469 0.743652344
vt 0.41015625 0.714355469
vt 0.419677734 0.724609375
vt 0.434570312 0.697753906
vt 0.441650391 0.709960938
vt 0.471191406 0.684570312
vt 0.473632812 0.700195312
vt 0.475585938 0.708984375
vt 0.473632812 0.700195312
vt 0.441650391 0.709960938
vt 0.445556641 0.717285156
vt 0.419677734 0.724609375
vt 0.425048828 0.73046875
vt 0.3984375 0.750488281
vt 0.405517578 0.754882812
vt 0.387695312 0.775878906
vt 0.395507812 0.777832031
vt 0.384033203 0.803222656
vt 0.392089844 0.803222656
vt 0.387939453 0.830566406
vt 0.395751953 0.828125
vt 0.398681641 0.85546875
vt 0.405517578 0.8515625
vt 0.419921875 0.881835938
vt 0.425292969 0.875488281
vt 0.441650391 0.896484375
vt 0.445556641 0.889160156
vt 0.473632812 0.90625
vt 0.475585938 0.897949219
vt 0.475585938 0.897949219
vt 0.441650391 0.896484375
vt 0.473632812 0.90625
vt 0.445556641 0.889160156
vt 0.419921875 0.881835938
vt 0.425292969 0.875488281
vt 0.398681641 0.85546875
vt 0.405517578 0.8515625
vt 0.395751953 0.828125
vt 0.387939453 0.830566406
vt 0.392089844 0.803222656
vt 0.384033203 0.803222656
vt 0.395507812 0.777832031
vt 0.387695312 0.775878906
vt 0.405517578 0.754882812
vt 0.3984375 0.750488281
vt 0.419677734 0.724609375
vt 0.425048828 0.73046875
vt 0.441650391 0.709960938
vt 0.445556641 0.717285156
vt 0.473632812 0.700195312
vt 0.475585938 0.708984375
vn -0 0.215209961 -0.9765625
vn -0 0.339111328 -0.940917969
vn -0 0.215209961 -0.9765625
vn -0 0.339111328 -0.940917969
vn -0 0.646484375 -0.762695312
vn -0 0.646484375 -0.762695312
vn -0 0.830566406 -0.556640625
vn -0 0.830566406 -0.556640625
vn -0 0.958984375 -0.283691406
vn -0 0.958984375 -0.283691406
vn -0 0.958984375 -0.283691406
vn -0 0.958984375 -0.283691406
vn -0 1 -4.76837158E-07
vn -0 1 -4.76837158E-07
vn -0 0.958984375 0.283691406
vn -0 0.958984375 0.283691406
vn -0 0.830566406 0.556640625
vn -0 0.830566406 0.556640625
vn -0 0.646484375 0.762695312
vn -0 0.646484375 0.762695312
vn -0 0.339111328 0.940917969
vn -0 0.339111328 0.940917969
vn -0 0.215209961 0.9765625
vn -0 0.215209961 0.9765625
vn -1 0 0
vn -1 0 0
vn -1 0 0
vn -1 0 0
vn -1 0 0
vn -1 0 0
vn -1 0 0
vn -1 0 0
vn -1 0 0
vn -1 0 0
vn -1 0 0
vn -1 0 0
vn 1 0 0
vn 1 0 0
vn 1 0 0
vn 1 -1.1920929E-07 0
vn 1 -1.1920929E-07 0
vn 1 1.1920929E-07 0
vn 1 0 0
vn 1 0 0
vn 1 1.1920929E-07 0
vn 1 -2.38418579E-07 0
vn 1 0 0
vn 1 4.17232513E-07 0
vn -1 0 0
vn -1 0 0
vn -1 0 0
vn -1 0 0
vn -1 1.78813934E-07 0
vn -1 1.78813934E-07 0
vn -1 0 0
vn -1 0 0
vn -1 0 0
vn -1 0 0
vn -1 0 0
vn -1 0 0
vn -1 0 0
vn -1 0 0
vn -1 0 0
vn -1 0 0
vn -1 0 0
vn -1 0 0
vn -1 0 0
vn -1 0 0
vn -1 0 0
vn -1 0 0
vn 1 -2.38418579E-07 0
vn 1 1.1920929E-07 0
vn 1 -2.38418579E-07 0
vn 1 1.1920929E-07 0
vn 1 2.98023224E-07 0
vn 1 2.98023224E-07 0
vn 1 -1.1920929E-07 0
vn 1 -1.1920929E-07 0
vn 1 -1.1920929E-07 0
vn 1 -1.1920929E-07 0
vn 1 0 0
vn 1 0 0
vn 1 -1.78813934E-07 0
vn 1 -1.78813934E-07 0
vn 1 -1.78813934E-07 0
vn 1 -1.78813934E-07 0
vn 1 0 0
vn 1 0 0
vn 1 0 0
vn 1 0 0
vn 1 0 0
vn 1 0 0
vn 5.36441803E-07 -0.340820312 0.939941406
vn -0 -0.217651367 0.976074219
vn -0 -0.217651367 0.976074219
vn 5.36441803E-07 -0.340820312 0.939941406
vn 1.54972076E-06 -0.646484375 0.762695312
vn 1.54972076E-06 -0.646484375 0.762695312
vn 2.08616257E-06 -0.830566406 0.556640625
vn 2.08616257E-06 -0.830566406 0.556640625
vn 1.1920929E-06 -0.958984375 0.283447266
vn 1.1920929E-06 -0.958984375 0.283447266
vn 1.1920929E-06 -0.958984375 0.283447266
vn 2.08616257E-06 -0.830566406 0.556640625
vn -6.55651093E-07 -1 8.34465027E-07
vn -6.55651093E-07 -1 8.34465027E-07
vn -1.1920929E-07 -0.958984375 -0.283447266
vn -1.1920929E-07 -0.958984375 -0.283447266
vn 1.54972076E-06 -0.830566406 -0.556640625
vn 1.54972076E-06 -0.830566406 -0.556640625
vn 1.54972076E-06 -0.646484375 -0.762695312
vn 1.54972076E-06 -0.646484375 -0.762695312
vn 5.36441803E-07 -0.340820312 -0.939941406
vn 1.54972076E-06 -0.646484375 -0.762695312
vn 1.54972076E-06 -0.646484375 -0.762695312
vn 5.36441803E-07 -0.340820312 -0.939941406
vn -0 -0.217651367 -0.976074219
vn -0 -0.217651367 -0.976074219
vn -0 -0.217651367 0.976074219
vn -0 -0.340820312 0.939941406
vn -0 -0.217651367 0.976074219
vn -0 -0.340820312 0.939941406
vn -1.01327896E-06 -0.646484375 0.762695312
vn -1.01327896E-06 -0.646484375 0.762695312
vn -1.01327896E-06 -0.646484375 0.762695312
vn -2.92062759E-06 -0.830566406 0.556640625
vn -1.01327896E-06 -0.646484375 0.762695312
vn -2.92062759E-06 -0.830566406 0.556640625
vn -4.17232513E-06 -0.958984375 0.283447266
vn -4.17232513E-06 -0.958984375 0.283447266
vn -2.74181366E-06 -1 8.34465027E-07
vn -2.74181366E-06 -1 8.34465027E-07
vn -6.55651093E-07 -0.958984375 -0.283447266
vn -6.55651093E-07 -0.958984375 -0.283447266
vn -0 -0.830566406 -0.556640625
vn -6.55651093E-07 -0.958984375 -0.283447266
vn -0 -0.830566406 -0.556640625
vn -0 -0.830566406 -0.556640625
vn -0 -0.646484375 -0.762695312
vn -0 -0.646484375 -0.762695312
vn -0 -0.340820312 -0.939941406
vn -0 -0.340820312 -0.939941406
vn -0 -0.217651367 -0.976074219
vn -0 -0.217651367 -0.976074219
vn -1 0 0
vn -1 0 0
vn -1 0 0
vn -1 0 0
vn -1 0 0
vn -1 0 0
vn -1 0 0
vn -1 0 0
vn -1 0 0
vn -1 0 0
vn -1 0 0
vn -1 0 0
vn -1 0 0
vn -1 0 0
vn -1 0 0
vn -1 0 0
vn -1 0 0
vn -1 0 0
vn -1 0 0
vn -1 0 0
vn -1 0 0
vn -1 0 0
vn 1 0 0
vn 1 0 0
vn 1 0 0
vn 1 0 0
vn 1 1.78813934E-07 0
vn 1 1.78813934E-07 0
vn 1 0 0
vn 1 0 0
vn 1 -2.38418579E-07 0
vn 1 -2.38418579E-07 0
vn 1 -1.1920929E-07 0
vn 1 -1.1920929E-07 0
vn 1 1.1920929E-07 0
vn 1 1.1920929E-07 0
vn 1 1.1920929E-07 0
vn 1 1.1920929E-07 0
vn 1 0 0
vn 1 0 0
vn 1 0 0
vn 1 0 0
vn 1 0 0
vn 1 0 0
vn -0.603515625 0.138793945 -0.78515625
vn -0.603515625 0.138793945 -0.78515625
vn -0.604003906 0.256103516 -0.754394531
vn -0.604492188 0.251464844 -0.755859375
vn -0.59765625 0.516601562 -0.612792969
vn -0.59765625 0.519042969 -0.611328125
vn -0.595703125 0.667480469 -0.446777344
vn -0.595703125 0.667480469 -0.446777344
vn -0.59375 0.771972656 -0.227905273
vn -0.59375 0.771972656 -0.227661133
vn -0.593261719 0.805175781 -4.17232513E-07
vn -0.593261719 0.805175781 -4.76837158E-07
vn -0.59375 0.771972656 0.227905273
vn -0.59375 0.771972656 0.227661133
vn -0.595703125 0.667480469 0.446777344
vn -0.595703125 0.667480469 0.446777344
vn -0.59765625 0.516601562 0.612792969
vn -0.59765625 0.519042969 0.611328125
vn -0.604003906 0.256103516 0.754394531
vn -0.604492188 0.251464844 0.755859375
vn -0.603515625 0.138793945 0.78515625
vn -0.603515625 0.138793945 0.78515625
vn 0.603515625 0.138793945 -0.78515625
vn 0.604003906 0.256103516 -0.754394531
vn 0.603515625 0.138793945 -0.78515625
vn 0.604492188 0.251464844 -0.755859375
vn 0.59765625 0.516601562 -0.612792969
vn 0.59765625 0.519042969 -0.611328125
vn 0.595703125 0.667480469 -0.446777344
vn 0.595703125 0.667480469 -0.446777344
vn 0.59375 0.771972656 -0.227661133
vn 0.59375 0.771972656 -0.227905273
vn 0.593261719 0.805175781 -2.98023224E-07
vn 0.593261719 0.805175781 -2.38418579E-07
vn 0.59375 0.771972656 0.227661133
vn 0.59375 0.771972656 0.227905273
vn 0.595703125 0.667480469 0.446777344
vn 0.595703125 0.667480469 0.446777344
vn 0.59765625 0.516601562 0.612792969
vn 0.59765625 0.519042969 0.611328125
vn 0.604003906 0.256103516 0.754394531
vn 0.604492188 0.251464844 0.755859375
vn 0.603515625 0.138793945 0.78515625
vn 0.603515625 0.138793945 0.78515625
g Turbine_A_BigMachine_0
f 3/3/3 2/2/2 1/1/1
f 2/2/2 4/4/4 1/1/1
f 2/2/2 5/5/5 4/4/4
f 5/5/5 6/6/6 4/4/4
f 5/5/5 7/7/7 6/6/6
f 7/7/7 8/8/8 6/6/6
f 9/9/9 8/8/8 7/7/7
f 10/10/10 9/9/9 7/7/7
f 13/13/13 12/12/12 11/11/11
f 14/14/14 13/13/13 11/11/11
f 15/15/15 13/13/13 14/14/14
f 16/16/16 15/15/15 14/14/14
f 17/17/17 15/15/15 16/16/16
f 18/18/18 17/17/17 16/16/16
f 18/18/18 19/19/19 17/17/17
f 19/19/19 20/20/20 17/17/17
f 19/19/19 21/21/21 20/20/20
f 21/21/21 22/22/22 20/20/20
f 21/21/21 23/23/23 22/22/22
f 23/23/23 24/24/24 22/22/22
f 27/27/27 26/26/26 25/25/25
f 27/27/27 28/28/28 26/26/26
f 27/27/27 29/29/29 28/28/28
f 29/29/29 27/27/27 30/30/30
f 30/30/30 27/27/27 31/31/31
f 31/31/31 27/27/27 32/32/32
f 32/32/32 27/27/27 33/33/33
f 27/27/27 34/34/34 33/33/33
f 27/27/27 35/35/35 34/34/34
f 27/27/27 36/36/36 35/35/35
f 39/39/39 38/38/38 37/37/37
f 38/38/38 40/40/40 37/37/37
f 40/40/40 41/41/41 37/37/37
f 42/42/42 37/37/37 41/41/41
f 43/43/43 37/37/37 42/42/42
f 44/44/44 37/37/37 43/43/43
f 45/45/45 37/37/37 44/44/44
f 45/45/45 46/46/46 37/37/37
f 46/46/46 47/47/47 37/37/37
f 47/47/47 48/48/48 37/37/37
f 51/51/51 50/50/50 49/49/49
f 52/52/52 51/51/51 49/49/49
f 52/52/52 49/49/49 53/53/53
f 54/54/54 52/52/52 53/53/53
f 54/54/54 53/53/53 55/55/55
f 56/56/56 54/54/54 55/55/55
f 56/56/56 55/55/55 57/57/57
f 55/55/55 58/58/58 57/57/57
f 57/57/57 58/58/58 59/59/59
f 58/58/58 60/60/60 59/59/59
f 59/59/59 60/60/60 61/61/61
f 60/60/60 62/62/62 61/61/61
f 61/61/61 62/62/62 63/63/63
f 62/62/62 64/64/64 63/63/63
f 63/63/63 64/64/64 65/65/65
f 66/66/66 63/63/63 65/65/65
f 66/66/66 65/65/65 67/67/67
f 68/68/68 66/66/66 67/67/67
f 68/68/68 67/67/67 69/69/69
f 70/70/70 68/68/68 69/69/69
f 73/73/73 72/72/72 71/71/71
f 72/72/72 74/74/74 71/71/71
f 72/72/72 75/75/75 74/74/74
f 75/75/75 76/76/76 74/74/74
f 75/75/75 77/77/77 76/76/76
f 77/77/77 78/78/78 76/76/76
f 79/79/79 78/78/78 77/77/77
f 80/80/80 79/79/79 77/77/77
f 81/81/81 79/79/79 80/80/80
f 82/82/82 81/81/81 80/80/80
f 83/83/83 81/81/81 82/82/82
f 84/84/84 83/83/83 82/82/82
f 85/85/85 83/83/83 84/84/84
f 86/86/86 85/85/85 84/84/84
f 86/86/86 87/87/87 85/85/85
f 87/87/87 88/88/88 85/85/85
f 87/87/87 89/89/89 88/88/88
f 89/89/89 90/90/90 88/88/88
f 89/89/89 91/91/91 90/90/90
f 91/91/91 92/92/92 90/90/90
f 95/95/95 94/94/94 93/93/93
f 96/96/96 95/95/95 93/93/93
f 96/96/96 93/93/93 97/97/97
f 98/98/98 96/96/96 97/97/97
f 98/98/98 97/97/97 99/99/99
f 100/100/100 98/98/98 99/99/99
f 100/100/100 99/99/99 101/101/101
f 104/104/104 103/103/103 102/102/102
f 102/102/102 103/103/103 105/105/105
f 103/103/103 106/106/106 105/105/105
f 105/105/105 106/106/106 107/107/107
f 106/106/106 108/108/108 107/107/107
f 107/107/107 108/108/108 109/109/109
f 108/108/108 110/110/110 109/109/109
f 109/109/109 110/110/110 111/111/111
f 112/112/112 109/109/109 111/111/111
f 115/115/115 114/114/114 113/113/113
f 116/116/116 115/115/115 113/113/113
f 116/116/116 113/113/113 117/117/117
f 118/118/118 116/116/116 117/117/117
f 121/121/121 120/120/120 119/119/119
f 120/120/120 122/122/122 119/119/119
f 120/120/120 123/123/123 122/122/122
f 123/123/123 124/124/124 122/122/122
f 127/127/127 126/126/126 125/125/125
f 126/126/126 128/128/128 125/125/125
f 129/129/129 128/128/128 126/126/126
f 130/130/130 129/129/129 126/126/126
f 131/131/131 129/129/129 130/130/130
f 132/132/132 131/131/131 130/130/130
f 133/133/133 131/131/131 132/132/132
f 134/134/134 133/133/133 132/132/132
f 135/135/135 133/133/133 134/134/134
f 138/138/138 137/137/137 136/136/136
f 138/138/138 139/139/139 137/137/137
f 139/139/139 140/140/140 137/137/137
f 139/139/139 141/141/141 140/140/140
f 141/141/141 142/142/142 140/140/140
f 141/141/141 143/143/143 142/142/142
f 143/143/143 144/144/144 142/142/142
f 147/147/147 146/146/146 145/145/145
f 148/148/148 147/147/147 145/145/145
f 148/148/148 145/145/145 149/149/149
f 150/150/150 148/148/148 149/149/149
f 150/150/150 149/149/149 151/151/151
f 152/152/152 150/150/150 151/151/151
f 152/152/152 151/151/151 153/153/153
f 151/151/151 154/154/154 153/153/153
f 153/153/153 154/154/154 155/155/155
f 154/154/154 156/156/156 155/155/155
f 155/155/155 156/156/156 157/157/157
f 156/156/156 158/158/158 157/157/157
f 157/157/157 158/158/158 159/159/159
f 158/158/158 160/160/160 159/159/159
f 159/159/159 160/160/160 161/161/161
f 162/162/162 159/159/159 161/161/161
f 162/162/162 161/161/161 163/163/163
f 164/164/164 162/162/162 163/163/163
f 164/164/164 163/163/163 165/165/165
f 166/166/166 164/164/164 165/165/165
f 169/169/169 168/168/168 167/167/167
f 168/168/168 170/170/170 167/167/167
f 168/168/168 171/171/171 170/170/170
f 171/171/171 172/172/172 170/170/170
f 171/171/171 173/173/173 172/172/172
f 173/173/173 174/174/174 172/172/172
f 175/175/175 174/174/174 173/173/173
f 176/176/176 175/175/175 173/173/173
f 177/177/177 175/175/175 176/176/176
f 178/178/178 177/177/177 176/176/176
f 179/179/179 177/177/177 178/178/178
f 180/180/180 179/179/179 178/178/178
f 181/181/181 179/179/179 180/180/180
f 182/182/182 181/181/181 180/180/180
f 182/182/182 183/183/183 181/181/181
f 183/183/183 184/184/184 181/181/181
f 183/183/183 185/185/185 184/184/184
f 185/185/185 186/186/186 184/184/184
f 185/185/185 187/187/187 186/186/186
f 187/187/187 188/188/188 186/186/186
f 191/191/191 190/190/190 189/189/189
f 192/192/192 191/191/191 189/189/189
f 193/193/193 191/191/191 192/192/192
f 194/194/194 193/193/193 192/192/192
f 195/195/195 193/193/193 194/194/194
f 196/196/196 195/195/195 194/194/194
f 195/195/195 196/196/196 197/197/197
f 196/196/196 198/198/198 197/197/197
f 197/197/197 198/198/198 199/199/199
f 198/198/198 200/200/200 199/199/199
f 199/199/199 200/200/200 201/201/201
f 200/200/200 202/202/202 201/201/201
f 201/201/201 202/202/202 203/203/203
f 202/202/202 204/204/204 203/203/203
f 205/205/205 203/203/203 204/204/204
f 206/206/206 205/205/205 204/204/204
f 207/207/207 205/205/205 206/206/206
f 208/208/208 207/207/207 206/206/206
f 209/209/209 207/207/207 208/208/208
f 210/210/210 209/209/209 208/208/208
f 213/213/213 212/212/212 211/211/211
f 212/212/212 214/214/214 211/211/211
f 212/212/212 215/215/215 214/214/214
f 215/215/215 216/216/216 214/214/214
f 215/215/215 217/217/217 216/216/216
f 217/217/217 218/218/218 216/216/216
f 219/219/219 218/218/218 217/217/217
f 220/220/220 219/219/219 217/217/217
f 221/221/221 219/219/219 220/220/220
f 222/222/222 221/221/221 220/220/220
f 223/223/223 221/221/221 222/222/222
f 224/224/224 223/223/223 222/222/222
f 225/225/225 223/223/223 224/224/224
f 226/226/226 225/225/225 224/224/224
f 226/226/226 227/227/227 225/225/225
f 227/227/227 228/228/228 225/225/225
f 227/227/227 229/229/229 228/228/228
f 229/229/229 230/230/230 228/228/228
f 229/229/229 231/231/231 230/230/230
f 231/231/231 232/232/232 230/230/230
