g Saucepan_Milk
v 3.41981625E-08 0.0602676272 -0.0539326333
v -9.55774127E-09 0.0696541667 -0.000356791832
v -0.0412191711 0.0603861883 -0.0411257297
v 0.0412194207 0.0603861883 -0.0411254391
v -0.0540360436 0.0602581687 -0.000167101854
v 0.0540360436 0.0602581687 -0.000167172562
v -0.0416290388 0.0603567399 0.0411414839
v 0.0416286662 0.0603567399 0.0411417969
v -3.53157503E-08 0.0602732748 0.0527157262
vt 0.0723266602 0.341064453
vt 0.0723266602 0.291992188
vt 0.0319519043 0.329345703
vt 0.112731934 0.329345703
vt 0.0193786621 0.291992188
vt 0.125244141 0.291992188
vt 0.0315551758 0.254150391
vt 0.11315918 0.254150391
vt 0.0723266602 0.243530273
vn 5.36441803E-07 0.984863281 -0.172607422
vn -0 1 -0.000106692314
vn -0.111755371 0.987304688 -0.111450195
vn 0.111755371 0.987304688 -0.111450195
vn -0.171264648 0.985351562 -0.000143170357
vn 0.171264648 0.985351562 -0.000142097473
vn -0.110107422 0.987792969 0.110839844
vn 0.110107422 0.987792969 0.110839844
vn -5.96046448E-07 0.984863281 0.174072266
g Saucepan_Milk_0
f 3/3/3 2/2/2 1/1/1
f 1/1/1 2/2/2 4/4/4
f 5/5/5 2/2/2 3/3/3
f 4/4/4 2/2/2 6/6/6
f 7/7/7 2/2/2 5/5/5
f 6/6/6 2/2/2 8/8/8
f 9/9/9 2/2/2 7/7/7
f 8/8/8 2/2/2 9/9/9
