g school_fanart2
v -0.0266724583 0.969203472 0.785357594
v -0.128304511 0.942499161 0.927695453
v -0.0266723912 0.799802661 0.95816201
v -0.0266724583 0.969203472 -0.790257633
v -0.0266724583 0.704316854 -0.972615719
v -0.0909317583 0.926404834 -0.94813621
v -0.0266716853 -0.969198048 0.958161235
v -0.0266724583 -0.969203472 -0.972615719
vt 0.907219768 0.998007953
vt 0.980357468 0.984286427
vt 0.996012151 0.910964429
vt 0.0976178423 0.998007953
vt 0.00391636137 0.861900687
vt 0.016494723 0.9760167
vt 0.996011794 0.0019947926
vt 0.00391636137 0.00199203193
vn -0.999999404 -0.000823888287 -0.000807262375
vn -1 0 0
vn -0.999999404 -0.000825412979 -0.000808757148
vn -0.999999523 -0.000567852403 0.000824752788
vn -0.999999881 -0.000349637063 0.000507781515
vn -1 0 0
vn -0.96060282 0.16235052 -0.225576341
vn -1 0 0
g school_fanart2_0
f 3/3/3 2/2/2 1/1/1
f 3/3/3 1/1/1 4/4/4
f 3/3/3 4/4/4 5/5/5
f 4/4/4 6/6/6 5/5/5
f 7/7/7 3/3/3 5/5/5
f 5/5/5 8/8/8 7/7/7
