g Enclosure_Light
v -0.000253906241 -0.0143411253 0.0547534153
v -0.00207275385 0.0970846564 0.0395361334
v -0.000366210938 0.100152582 0.0538134761
v 0.00148925779 -0.0143411253 0.0693530291
v 0.0113745118 0.0970846564 0.0379296876
v 0.0131933587 -0.0143411253 0.0531469733
v 0.0149365235 -0.0143411253 0.0677465796
v 0.0130810542 0.100152582 0.0522070304
v 0.00148925779 -0.0143411253 0.0693530291
v -0.000366210938 0.100152582 0.0538134761
v 0.0130810542 0.100152582 0.0522070304
v 0.0149365235 -0.0143411253 0.0677465796
v 0.0131933587 -0.0143411253 0.0531469733
v 0.0113745118 0.0970846564 0.0379296876
v -0.00207275385 0.0970846564 0.0395361334
v -0.000253906241 -0.0143411253 0.0547534153
v -0.00207275385 0.0970846564 0.0395361334
v -0.00359619129 0.126767576 0.0267846677
v -0.00275146472 0.13964355 0.0338427722
v -0.000366210938 0.100152582 0.0538134761
v -0.000366210938 0.100152582 0.0538134761
v -0.00275146472 0.13964355 0.0338427722
v 0.0106958002 0.13964355 0.0322363265
v 0.0130810542 0.100152582 0.0522070304
v 0.0130810542 0.100152582 0.0522070304
v 0.0106958002 0.13964355 0.0322363265
v 0.00985107385 0.126767576 0.025178222
v 0.0113745118 0.0970846564 0.0379296876
v 0.0113745118 0.0970846564 0.0379296876
v 0.00985107385 0.126767576 0.025178222
v -0.00359619129 0.126767576 0.0267846677
v -0.00207275385 0.0970846564 0.0395361334
v -0.00359619129 0.126767576 0.0267846677
v -0.00659667933 0.138988033 0.00165527337
v -0.00659667933 0.15186432 0.00165527337
v -0.00275146472 0.13964355 0.0338427722
v -0.00275146472 0.13964355 0.0338427722
v -0.00659667933 0.15186432 0.00165527337
v 0.00685058581 0.15186432 4.88281221E-05
v 0.0106958002 0.13964355 0.0322363265
v 0.0106958002 0.13964355 0.0322363265
v 0.00685058581 0.15186432 4.88281221E-05
v 0.00685058581 0.138988033 4.88281221E-05
v 0.00985107385 0.126767576 0.025178222
v 0.00985107385 0.126767576 0.025178222
v 0.00685058581 0.138988033 4.88281221E-05
v -0.00659667933 0.138988033 0.00165527337
v -0.00359619129 0.126767576 0.0267846677
v -6.10351562E-05 -0.0143411253 -0.0578320287
v 0.00175537111 0.0970846564 -0.042612303
v 5.12695296E-05 0.100152582 -0.0568896458
v -0.00180419919 -0.0143411253 -0.072429195
v -0.0116918944 0.0970846564 -0.0410058573
v -0.0135083003 -0.0143411253 -0.056225583
v -0.0152514642 -0.0143411253 -0.070822753
v -0.0133959958 0.100152582 -0.0552832037
v -0.00180419919 -0.0143411253 -0.072429195
v 5.12695296E-05 0.100152582 -0.0568896458
v -0.0133959958 0.100152582 -0.0552832037
v -0.0152514642 -0.0143411253 -0.070822753
v -0.0135083003 -0.0143411253 -0.056225583
v -0.0116918944 0.0970846564 -0.0410058573
v 0.00175537111 0.0970846564 -0.042612303
v -6.10351562E-05 -0.0143411253 -0.0578320287
v 0.00175537111 0.0970846564 -0.042612303
v 0.00348144514 0.126767576 -0.0281542968
v 0.00263916003 0.13964355 -0.0352148414
v 5.12695296E-05 0.100152582 -0.0568896458
v 5.12695296E-05 0.100152582 -0.0568896458
v 0.00263916003 0.13964355 -0.0352148414
v -0.0108081056 0.13964355 -0.0336083993
v -0.0133959958 0.100152582 -0.0552832037
v -0.0133959958 0.100152582 -0.0552832037
v -0.0108081056 0.13964355 -0.0336083993
v -0.00996582024 0.126767576 -0.026547851
v -0.0116918944 0.0970846564 -0.0410058573
v -0.0116918944 0.0970846564 -0.0410058573
v -0.00996582024 0.126767576 -0.026547851
v 0.00348144514 0.126767576 -0.0281542968
v 0.00175537111 0.0970846564 -0.042612303
v 0.00348144514 0.126767576 -0.0281542968
v 0.00685058581 0.138988033 4.88281221E-05
v 0.00685058581 0.15186432 4.88281221E-05
v 0.00263916003 0.13964355 -0.0352148414
v 0.00263916003 0.13964355 -0.0352148414
v 0.00685058581 0.15186432 4.88281221E-05
v -0.00659667933 0.15186432 0.00165527337
v -0.0108081056 0.13964355 -0.0336083993
v -0.0108081056 0.13964355 -0.0336083993
v -0.00659667933 0.15186432 0.00165527337
v -0.00659667933 0.138988033 0.00165527337
v -0.00996582024 0.126767576 -0.026547851
v -0.00996582024 0.126767576 -0.026547851
v -0.00659667933 0.138988033 0.00165527337
v 0.00685058581 0.138988033 4.88281221E-05
v 0.00348144514 0.126767576 -0.0281542968
v -0.0465722643 0.0449970439 0.0428881831
v -0.0465722643 0.0623246171 0.0428881831
v 0.0026147461 0.0623246171 0.0590356439
v 0.0026147461 0.0449970439 0.0590356439
v -0.0465722643 0.0623246171 0.0428881831
v 0.0030193266 0.0600687601 0.0459041186
v 0.0026147461 0.0623246171 0.0590356439
v -0.0369478501 0.0600687601 0.0352344811
v -0.0493520722 0.0600687601 -0.00187867449
v -0.0590332001 0.0623246171 -0.00168701168
v -0.0465722643 0.0623246171 -0.042893067
v -0.0465722643 0.0449970439 -0.042893067
v 0.0026147461 0.0449970439 -0.0590405278
v 0.0026147461 0.0623246171 -0.0590405278
v -0.0590332001 0.0449970439 -0.00168701168
v -0.0369479023 0.0472528823 0.0352344997
v -0.0493520349 0.0472528823 -0.00187867484
v -0.0465722643 0.0449970439 0.0428881831
v 0.00294385594 0.0472528823 0.0459041931
v 0.0026147461 0.0449970439 0.0590356439
v 0.0465698242 0.0449970439 0.0428881831
v 0.0465698242 0.0623246171 0.0428881831
v 0.0590332001 0.0623246171 -0.00168701168
v 0.0590332001 0.0449970439 -0.00168701168
v -0.0590332001 0.0449970439 -0.00168701168
v -0.0590332001 0.0623246171 -0.00168701168
v -0.0465722643 0.0623246171 0.0428881831
v -0.0465722643 0.0449970439 0.0428881831
v 0.0026147461 0.0623246171 -0.0590405278
v 0.0026147461 0.0449970439 -0.0590405278
v 0.0465698242 0.0449970439 -0.042893067
v 0.0465698242 0.0623246171 -0.042893067
v 0.0026147461 0.0449970439 0.0590356439
v 0.0391889885 0.0472528823 0.0348607749
v 0.00294385594 0.0472528823 0.0459041931
v 0.0465698242 0.0449970439 0.0428881831
v 0.047408618 0.0472528823 -0.001917099
v 0.0590332001 0.0449970439 -0.00168701168
v 0.0026147461 0.0623246171 0.0590356439
v 0.0465698242 0.0623246171 0.0428881831
v 0.0465698242 0.0449970439 0.0428881831
v 0.0026147461 0.0449970439 0.0590356439
v 0.0590332001 0.0623246171 -0.00168701168
v 0.0391889699 0.0600687601 0.0348607674
v 0.0474086031 0.0600687601 -0.00191709911
v 0.0465698242 0.0623246171 0.0428881831
v 0.0030193266 0.0600687601 0.0459041186
v 0.0026147461 0.0623246171 0.0590356439
v -0.0590332001 0.0623246171 -0.00168701168
v -0.0381863266 0.0600687601 -0.0363413319
v -0.0493520722 0.0600687601 -0.00187867449
v -0.0465722643 0.0623246171 -0.042893067
v 0.00298537221 0.0600687601 -0.0467783287
v 0.0026147461 0.0623246171 -0.0590405278
v -0.0465722643 0.0449970439 -0.042893067
v -0.0465722643 0.0623246171 -0.042893067
v -0.0590332001 0.0623246171 -0.00168701168
v -0.0590332001 0.0449970439 -0.00168701168
v -0.0465722643 0.0449970439 -0.042893067
v 0.00298537198 0.0472528823 -0.0467783399
v 0.0026147461 0.0449970439 -0.0590405278
v -0.0381863192 0.0472528823 -0.0363413505
v -0.0493520349 0.0472528823 -0.00187867484
v -0.0590332001 0.0449970439 -0.00168701168
v 0.0465698242 0.0449970439 -0.042893067
v 0.0026147461 0.0449970439 -0.0590405278
v 0.00298537198 0.0472528823 -0.0467783399
v 0.0372768342 0.0472528823 -0.0351370797
v 0.0590332001 0.0449970439 -0.00168701168
v 0.047408618 0.0472528823 -0.001917099
v 0.0590332001 0.0623246171 -0.00168701168
v 0.0465698242 0.0623246171 -0.042893067
v 0.0465698242 0.0449970439 -0.042893067
v 0.0590332001 0.0449970439 -0.00168701168
v 0.0465698242 0.0623246171 -0.042893067
v 0.0590332001 0.0623246171 -0.00168701168
v 0.0474086031 0.0600687601 -0.00191709911
v 0.0372768342 0.0600687601 -0.0351371132
v 0.0026147461 0.0623246171 -0.0590405278
v 0.00298537221 0.0600687601 -0.0467783287
v 0.0557275377 -0.0143411253 0.00523437466
v 0.0547802709 0.100152582 0.00523437466
v 0.0704296827 -0.0143411253 0.00523437466
v 0.0404003896 0.0970846564 0.00523437466
v 0.0346679688 0.144528806 0.00523437466
v 0.0275585931 0.131652832 0.00523437466
v 0.00225097663 0.156749576 0.00523437466
v 0.00225097663 0.143873289 0.00523437466
v 0.0404003896 0.0970846564 -0.0083105471
v 0.0557275377 -0.0143411253 -0.0083105471
v 0.0704296827 -0.0143411253 -0.0083105471
v 0.0547802709 0.100152582 -0.0083105471
v 0.0704296827 -0.0143411253 0.00523437466
v 0.0547802709 0.100152582 0.00523437466
v 0.0547802709 0.100152582 -0.0083105471
v 0.0704296827 -0.0143411253 -0.0083105471
v 0.0557275377 -0.0143411253 -0.0083105471
v 0.0404003896 0.0970846564 -0.0083105471
v 0.0404003896 0.0970846564 0.00523437466
v 0.0557275377 -0.0143411253 0.00523437466
v 0.0547802709 0.100152582 0.00523437466
v 0.0346679688 0.144528806 0.00523437466
v 0.0346679688 0.144528806 -0.0083105471
v 0.0547802709 0.100152582 -0.0083105471
v 0.0547802709 0.100152582 -0.0083105471
v 0.0346679688 0.144528806 -0.0083105471
v 0.0275585931 0.131652832 -0.0083105471
v 0.0404003896 0.0970846564 -0.0083105471
v 0.0404003896 0.0970846564 -0.0083105471
v 0.0275585931 0.131652832 -0.0083105471
v 0.0275585931 0.131652832 0.00523437466
v 0.0404003896 0.0970846564 0.00523437466
v 0.0346679688 0.144528806 0.00523437466
v 0.00225097663 0.156749576 0.00523437466
v 0.00225097663 0.156749576 -0.0083105471
v 0.0346679688 0.144528806 -0.0083105471
v 0.0346679688 0.144528806 -0.0083105471
v 0.00225097663 0.156749576 -0.0083105471
v 0.00225097663 0.143873289 -0.0083105471
v 0.0275585931 0.131652832 -0.0083105471
v 0.0275585931 0.131652832 -0.0083105471
v 0.00225097663 0.143873289 -0.0083105471
v 0.00225097663 0.143873289 0.00523437466
v 0.0275585931 0.131652832 0.00523437466
v -0.0560400374 -0.0143411253 -0.0083105471
v -0.0407128893 0.0970846564 -0.0083105471
v -0.0550927706 0.100152582 -0.0083105471
v -0.0707421824 -0.0143411253 -0.0083105471
v -0.0407128893 0.0970846564 0.00523437466
v -0.0560400374 -0.0143411253 0.00523437466
v -0.0707421824 -0.0143411253 0.00523437466
v -0.0550927706 0.100152582 0.00523437466
v -0.0261523426 0.131652832 0.00523437466
v -0.0332617164 0.144528806 0.00523437466
v 0.00225097663 0.143873289 0.00523437466
v 0.00225097663 0.156749576 0.00523437466
v -0.0707421824 -0.0143411253 -0.0083105471
v -0.0550927706 0.100152582 -0.0083105471
v -0.0550927706 0.100152582 0.00523437466
v -0.0707421824 -0.0143411253 0.00523437466
v -0.0560400374 -0.0143411253 0.00523437466
v -0.0407128893 0.0970846564 0.00523437466
v -0.0407128893 0.0970846564 -0.0083105471
v -0.0560400374 -0.0143411253 -0.0083105471
v -0.0407128893 0.0970846564 -0.0083105471
v -0.0261523426 0.131652832 -0.0083105471
v -0.0332617164 0.144528806 -0.0083105471
v -0.0550927706 0.100152582 -0.0083105471
v -0.0550927706 0.100152582 -0.0083105471
v -0.0332617164 0.144528806 -0.0083105471
v -0.0332617164 0.144528806 0.00523437466
v -0.0550927706 0.100152582 0.00523437466
v -0.0407128893 0.0970846564 0.00523437466
v -0.0261523426 0.131652832 0.00523437466
v -0.0261523426 0.131652832 -0.0083105471
v -0.0407128893 0.0970846564 -0.0083105471
v -0.0261523426 0.131652832 -0.0083105471
v 0.00225097663 0.143873289 -0.0083105471
v 0.00225097663 0.156749576 -0.0083105471
v -0.0332617164 0.144528806 -0.0083105471
v -0.0332617164 0.144528806 -0.0083105471
v 0.00225097663 0.156749576 -0.0083105471
v 0.00225097663 0.156749576 0.00523437466
v -0.0332617164 0.144528806 0.00523437466
v -0.0261523426 0.131652832 0.00523437466
v 0.00225097663 0.143873289 0.00523437466
v 0.00225097663 0.143873289 -0.0083105471
v -0.0261523426 0.131652832 -0.0083105471
v -0.0636279285 -0.0340878293 0.0585961901
v -0.0636279285 -0.0061575314 0.0585961901
v 0.00357177737 -0.0061575314 0.0806567371
v 0.00357177737 -0.0340878293 0.0806567371
v -0.0636279285 -0.0061575314 -0.0585986301
v -0.0636279285 -0.0340878293 -0.0585986301
v 0.00357177737 -0.0340878293 -0.0806591809
v 0.00357177737 -0.0061575314 -0.0806591809
v -0.0806494132 -0.0340878293 -0.00230224594
v -0.0636279285 -0.0340878293 0.0585961901
v 0.00357177737 -0.0340878293 0.0806567371
v 0.00452880841 -0.0340878293 -0.0031689452
v -0.0636279285 -0.0340878293 -0.0585986301
v 0.00357177737 -0.0340878293 -0.0806591809
v 0.0806494132 -0.0340878293 -0.00230224594
v 0.0636230484 -0.0340878293 0.0585961901
v 0.0636230484 -0.0340878293 -0.0585986301
v 0.0636230484 -0.0340878293 0.0585961901
v 0.0636230484 -0.0061575314 0.0585961901
v 0.0806494132 -0.0061575314 -0.00230224594
v 0.0806494132 -0.0340878293 -0.00230224594
v -0.0806494132 -0.0340878293 -0.00230224594
v -0.0806494132 -0.0061575314 -0.00230224594
v -0.0636279285 -0.0061575314 0.0585961901
v -0.0636279285 -0.0340878293 0.0585961901
v 0.00357177737 -0.0061575314 -0.0806591809
v 0.00357177737 -0.0340878293 -0.0806591809
v 0.0636230484 -0.0340878293 -0.0585986301
v 0.0636230484 -0.0061575314 -0.0585986301
v 0.00357177737 -0.0061575314 0.0806567371
v 0.0636230484 -0.0061575314 0.0585961901
v 0.0636230484 -0.0340878293 0.0585961901
v 0.00357177737 -0.0340878293 0.0806567371
v 0.0806494132 -0.0061575314 -0.00230224594
v 0.0636230484 -0.0061575314 0.0585961901
v 0.00357177737 -0.0061575314 0.0806567371
v 0.00452880841 -0.0061575314 -0.0031689452
v -0.0636279285 -0.0061575314 0.0585961901
v -0.0806494132 -0.0061575314 -0.00230224594
v 0.00357177737 -0.0061575314 -0.0806591809
v 0.0636230484 -0.0061575314 -0.0585986301
v -0.0636279285 -0.0061575314 -0.0585986301
v -0.0636279285 -0.0340878293 -0.0585986301
v -0.0636279285 -0.0061575314 -0.0585986301
v -0.0806494132 -0.0061575314 -0.00230224594
v -0.0806494132 -0.0340878293 -0.00230224594
v 0.0806494132 -0.0061575314 -0.00230224594
v 0.0636230484 -0.0061575314 -0.0585986301
v 0.0636230484 -0.0340878293 -0.0585986301
v 0.0806494132 -0.0340878293 -0.00230224594
v -0.0175195318 -0.156749874 0.0161328129
v -0.0175195318 -0.0308715813 0.0161328129
v 0.0175195318 -0.0308715813 0.0161328129
v 0.0175195318 -0.156749874 0.0161328129
v -0.0175195318 -0.0308715813 -0.016135253
v -0.0175195318 -0.156749874 -0.016135253
v 0.0175195318 -0.156749874 -0.016135253
v 0.0175195318 -0.0308715813 -0.016135253
v 0.0175195318 -0.156749874 0.0161328129
v 0.0175195318 -0.0308715813 0.0161328129
v 0.0175195318 -0.0308715813 -0.016135253
v 0.0175195318 -0.156749874 -0.016135253
v -0.0175195318 -0.156749874 -0.016135253
v -0.0175195318 -0.0308715813 -0.016135253
v -0.0175195318 -0.0308715813 0.0161328129
v -0.0175195318 -0.156749874 0.0161328129
v 0.0474086031 0.0600687601 -0.00191709911
v 0.047408618 0.0472528823 -0.001917099
v 0.0372768342 0.0472528823 -0.0351370797
v 0.0372768342 0.0600687601 -0.0351371132
v 0.0372768342 0.0600687601 -0.0351371132
v 0.0372768342 0.0472528823 -0.0351370797
v 0.00298537198 0.0472528823 -0.0467783399
v 0.00298537221 0.0600687601 -0.0467783287
v 0.00298537221 0.0600687601 -0.0467783287
v 0.00298537198 0.0472528823 -0.0467783399
v -0.0381863192 0.0472528823 -0.0363413505
v -0.0381863266 0.0600687601 -0.0363413319
v -0.0381863266 0.0600687601 -0.0363413319
v -0.0381863192 0.0472528823 -0.0363413505
v -0.0493520349 0.0472528823 -0.00187867484
v -0.0493520722 0.0600687601 -0.00187867449
v -0.0493520722 0.0600687601 -0.00187867449
v -0.0493520349 0.0472528823 -0.00187867484
v -0.0369479023 0.0472528823 0.0352344997
v -0.0369478501 0.0600687601 0.0352344811
v -0.0369478501 0.0600687601 0.0352344811
v -0.0369479023 0.0472528823 0.0352344997
v 0.00294385594 0.0472528823 0.0459041931
v 0.0030193266 0.0600687601 0.0459041186
v 0.0030193266 0.0600687601 0.0459041186
v 0.00294385594 0.0472528823 0.0459041931
v 0.0391889885 0.0472528823 0.0348607749
v 0.0391889699 0.0600687601 0.0348607674
v 0.0391889699 0.0600687601 0.0348607674
v 0.0391889885 0.0472528823 0.0348607749
v 0.047408618 0.0472528823 -0.001917099
v 0.0474086031 0.0600687601 -0.00191709911
vt 0.673339844 0.440185547
vt 0.575195312 0.440185547
vt 0.575195312 0.462646484
vt 0.673339844 0.462646484
vt 0.575195312 0.440185547
vt 0.673339844 0.440185547
vt 0.673339844 0.462646484
vt 0.575195312 0.462646484
vt 0.485107422 0.461425781
vt 0.597167969 0.461425781
vt 0.597167969 0.439453125
vt 0.485107422 0.439453125
vt 0.65625 0.440185547
vt 0.546875 0.440185547
vt 0.546875 0.462402344
vt 0.65625 0.462402344
vt 0.575195312 0.440185547
vt 0.539550781 0.440185547
vt 0.540527344 0.462646484
vt 0.575195312 0.462646484
vt 0.597167969 0.461425781
vt 0.64453125 0.461425781
vt 0.64453125 0.439453125
vt 0.597167969 0.439453125
vt 0.575195312 0.462646484
vt 0.540039062 0.462646484
vt 0.539550781 0.440185547
vt 0.575195312 0.440185547
vt 0.546875 0.440185547
vt 0.511230469 0.440185547
vt 0.511230469 0.462402344
vt 0.546875 0.462402344
vt 0.539550781 0.440185547
vt 0.514160156 0.440185547
vt 0.513671875 0.462646484
vt 0.540527344 0.462646484
vt 0.64453125 0.461425781
vt 0.678222656 0.461669922
vt 0.678222656 0.439453125
vt 0.64453125 0.439453125
vt 0.540039062 0.462646484
vt 0.514160156 0.462646484
vt 0.514648438 0.440185547
vt 0.539550781 0.440185547
vt 0.511230469 0.440185547
vt 0.483886719 0.440185547
vt 0.483886719 0.462402344
vt 0.511230469 0.462402344
vt 0.673339844 0.440185547
vt 0.575195312 0.440185547
vt 0.575195312 0.462646484
vt 0.673339844 0.462646484
vt 0.575195312 0.440185547
vt 0.673339844 0.440185547
vt 0.673339844 0.462646484
vt 0.575195312 0.462646484
vt 0.678710938 0.440185547
vt 0.56640625 0.440185547
vt 0.56640625 0.462158203
vt 0.678710938 0.462158203
vt 0.482421875 0.461914062
vt 0.591796875 0.461669922
vt 0.591796875 0.439697266
vt 0.482421875 0.439697266
vt 0.575195312 0.440185547
vt 0.5390625 0.440185547
vt 0.540039062 0.462646484
vt 0.575195312 0.462646484
vt 0.56640625 0.440185547
vt 0.518554688 0.440185547
vt 0.518554688 0.462158203
vt 0.56640625 0.462158203
vt 0.575195312 0.462646484
vt 0.539550781 0.462646484
vt 0.538574219 0.440185547
vt 0.575195312 0.440185547
vt 0.591796875 0.461669922
vt 0.627929688 0.461669922
vt 0.627929688 0.439697266
vt 0.591796875 0.439697266
vt 0.5390625 0.440185547
vt 0.51171875 0.440185547
vt 0.51171875 0.462646484
vt 0.540039062 0.462646484
vt 0.518554688 0.440185547
vt 0.481933594 0.440185547
vt 0.481933594 0.462158203
vt 0.518554688 0.462158203
vt 0.539550781 0.462646484
vt 0.510742188 0.462646484
vt 0.510742188 0.440185547
vt 0.538574219 0.440185547
vt 0.627929688 0.461669922
vt 0.658203125 0.461669922
vt 0.658203125 0.439697266
vt 0.627929688 0.439697266
vt 0.522460938 0.441894531
vt 0.522460938 0.463378906
vt 0.583984375 0.463378906
vt 0.583984375 0.441894531
vt 0.513671875 0.192871094
vt 0.552734375 0.194702148
vt 0.552246094 0.180175781
vt 0.524902344 0.200927734
vt 0.512207031 0.227905273
vt 0.50390625 0.227905273
vt 0.522460938 0.441650391
vt 0.522460938 0.463134766
vt 0.583984375 0.463134766
vt 0.583984375 0.441650391
vt 0.50390625 0.225341797
vt 0.520507812 0.253662109
vt 0.514160156 0.225219727
vt 0.513671875 0.260253906
vt 0.552246094 0.263427734
vt 0.552246094 0.272949219
vt 0.531738281 0.44140625
vt 0.531738281 0.462890625
vt 0.587402344 0.462890625
vt 0.587402344 0.44140625
vt 0.583007812 0.441162109
vt 0.583007812 0.462890625
vt 0.639160156 0.462890625
vt 0.639160156 0.441162109
vt 0.583984375 0.441650391
vt 0.583984375 0.463134766
vt 0.639160156 0.463134766
vt 0.639160156 0.441650391
vt 0.552246094 0.272949219
vt 0.580566406 0.252929688
vt 0.552246094 0.263427734
vt 0.586914062 0.260253906
vt 0.586425781 0.225219727
vt 0.596679688 0.225341797
vt 0.583984375 0.463378906
vt 0.639160156 0.463378906
vt 0.639160156 0.441894531
vt 0.583984375 0.441894531
vt 0.596679688 0.227905273
vt 0.578613281 0.200683594
vt 0.584960938 0.228027344
vt 0.586914062 0.192871094
vt 0.552734375 0.194702148
vt 0.552246094 0.180175781
vt 0.50390625 0.227905273
vt 0.521484375 0.253173828
vt 0.512207031 0.227905273
vt 0.513671875 0.260253906
vt 0.552734375 0.261230469
vt 0.552246094 0.272949219
vt 0.531738281 0.441162109
vt 0.531738281 0.462890625
vt 0.583007812 0.462890625
vt 0.583007812 0.441162109
vt 0.513671875 0.192871094
vt 0.552246094 0.19140625
vt 0.552246094 0.180175781
vt 0.521484375 0.198730469
vt 0.514160156 0.225219727
vt 0.50390625 0.225341797
vt 0.586914062 0.192871094
vt 0.552246094 0.180175781
vt 0.552246094 0.19140625
vt 0.578125 0.201782227
vt 0.596679688 0.225341797
vt 0.586425781 0.225219727
vt 0.587402344 0.462890625
vt 0.639160156 0.462890625
vt 0.639160156 0.44140625
vt 0.587402344 0.44140625
vt 0.586914062 0.260253906
vt 0.596679688 0.227905273
vt 0.584960938 0.228027344
vt 0.578125 0.254150391
vt 0.552246094 0.272949219
vt 0.552734375 0.261230469
vt 0.673339844 0.440185547
vt 0.575195312 0.462646484
vt 0.673339844 0.462646484
vt 0.575195312 0.440185547
vt 0.540527344 0.462646484
vt 0.539550781 0.440185547
vt 0.513671875 0.462646484
vt 0.514160156 0.440185547
vt 0.575195312 0.440185547
vt 0.673339844 0.440185547
vt 0.673339844 0.462646484
vt 0.575195312 0.462646484
vt 0.485107422 0.461425781
vt 0.597167969 0.461425781
vt 0.597167969 0.439453125
vt 0.485107422 0.439453125
vt 0.65625 0.440185547
vt 0.546875 0.440185547
vt 0.546875 0.462402344
vt 0.65625 0.462402344
vt 0.597167969 0.461425781
vt 0.64453125 0.461425781
vt 0.64453125 0.439453125
vt 0.597167969 0.439453125
vt 0.575195312 0.462646484
vt 0.540039062 0.462646484
vt 0.539550781 0.440185547
vt 0.575195312 0.440185547
vt 0.546875 0.440185547
vt 0.511230469 0.440185547
vt 0.511230469 0.462402344
vt 0.546875 0.462402344
vt 0.64453125 0.461425781
vt 0.678222656 0.461669922
vt 0.678222656 0.439453125
vt 0.64453125 0.439453125
vt 0.540039062 0.462646484
vt 0.514160156 0.462646484
vt 0.514648438 0.440185547
vt 0.539550781 0.440185547
vt 0.511230469 0.440185547
vt 0.483886719 0.440185547
vt 0.483886719 0.462402344
vt 0.511230469 0.462402344
vt 0.673339844 0.440185547
vt 0.575195312 0.440185547
vt 0.575195312 0.462646484
vt 0.673339844 0.462646484
vt 0.575195312 0.440185547
vt 0.673339844 0.440185547
vt 0.673339844 0.462646484
vt 0.575195312 0.462646484
vt 0.538574219 0.440185547
vt 0.539550781 0.462646484
vt 0.510742188 0.440185547
vt 0.510742188 0.462646484
vt 0.678710938 0.440185547
vt 0.56640625 0.440185547
vt 0.56640625 0.462158203
vt 0.678710938 0.462158203
vt 0.482421875 0.461914062
vt 0.591796875 0.461669922
vt 0.591796875 0.439697266
vt 0.482421875 0.439697266
vt 0.575195312 0.440185547
vt 0.5390625 0.440185547
vt 0.540039062 0.462646484
vt 0.575195312 0.462646484
vt 0.56640625 0.440185547
vt 0.518554688 0.440185547
vt 0.518554688 0.462158203
vt 0.56640625 0.462158203
vt 0.591796875 0.461669922
vt 0.627929688 0.461669922
vt 0.627929688 0.439697266
vt 0.591796875 0.439697266
vt 0.5390625 0.440185547
vt 0.51171875 0.440185547
vt 0.51171875 0.462646484
vt 0.540039062 0.462646484
vt 0.518554688 0.440185547
vt 0.481933594 0.440185547
vt 0.481933594 0.462158203
vt 0.518554688 0.462158203
vt 0.627929688 0.461669922
vt 0.658203125 0.461669922
vt 0.658203125 0.439697266
vt 0.627929688 0.439697266
vt 0.522460938 0.441894531
vt 0.522460938 0.463378906
vt 0.583984375 0.463378906
vt 0.583984375 0.441894531
vt 0.522460938 0.441650391
vt 0.522460938 0.463134766
vt 0.583984375 0.463134766
vt 0.583984375 0.441650391
vt 0.0709228516 0.166381836
vt 0.0766601562 0.186889648
vt 0.0992431641 0.194335938
vt 0.0995483398 0.166137695
vt 0.0766601562 0.147460938
vt 0.0992431641 0.140014648
vt 0.12512207 0.166381836
vt 0.119384766 0.186889648
vt 0.119384766 0.147460938
vt 0.531738281 0.44140625
vt 0.531738281 0.462890625
vt 0.587402344 0.462890625
vt 0.587402344 0.44140625
vt 0.583007812 0.441162109
vt 0.583007812 0.462890625
vt 0.639160156 0.462890625
vt 0.639160156 0.441162109
vt 0.583984375 0.441650391
vt 0.583984375 0.463134766
vt 0.639160156 0.463134766
vt 0.639160156 0.441650391
vt 0.583984375 0.463378906
vt 0.639160156 0.463378906
vt 0.639160156 0.441894531
vt 0.583984375 0.441894531
vt 0.596679688 0.227905273
vt 0.586914062 0.192871094
vt 0.552246094 0.180175781
vt 0.553222656 0.228393555
vt 0.513671875 0.192871094
vt 0.50390625 0.227905273
vt 0.552246094 0.272949219
vt 0.586914062 0.260253906
vt 0.513671875 0.260253906
vt 0.531738281 0.441162109
vt 0.531738281 0.462890625
vt 0.583007812 0.462890625
vt 0.583007812 0.441162109
vt 0.587402344 0.462890625
vt 0.639160156 0.462890625
vt 0.639160156 0.44140625
vt 0.587402344 0.44140625
vt 0.587402344 0.440429688
vt 0.492919922 0.440429688
vt 0.493896484 0.462890625
vt 0.587890625 0.462890625
vt 0.614746094 0.439697266
vt 0.520507812 0.439697266
vt 0.521484375 0.462158203
vt 0.615722656 0.462158203
vt 0.642578125 0.440917969
vt 0.548339844 0.440917969
vt 0.546875 0.461425781
vt 0.641113281 0.461425781
vt 0.667480469 0.441162109
vt 0.573242188 0.441162109
vt 0.571777344 0.461669922
vt 0.666015625 0.461669922
vt 0.584960938 0.228027344
vt 0.586425781 0.225219727
vt 0.578125 0.201782227
vt 0.578125 0.254150391
vt 0.578125 0.254150391
vt 0.578125 0.201782227
vt 0.552246094 0.19140625
vt 0.552734375 0.261230469
vt 0.552734375 0.261230469
vt 0.552246094 0.19140625
vt 0.521484375 0.198730469
vt 0.521484375 0.253173828
vt 0.521484375 0.253173828
vt 0.521484375 0.198730469
vt 0.514160156 0.225219727
vt 0.512207031 0.227905273
vt 0.512207031 0.227905273
vt 0.514160156 0.225219727
vt 0.520507812 0.253662109
vt 0.524902344 0.200927734
vt 0.524902344 0.200927734
vt 0.520507812 0.253662109
vt 0.552246094 0.263427734
vt 0.552734375 0.194702148
vt 0.552734375 0.194702148
vt 0.552246094 0.263427734
vt 0.580566406 0.252929688
vt 0.578613281 0.200683594
vt 0.578613281 0.200683594
vt 0.580566406 0.252929688
vt 0.586425781 0.225219727
vt 0.584960938 0.228027344
vn -0.993164062 -1.1920929E-07 0.118591309
vn -0.993164062 -1.1920929E-07 0.118591309
vn -0.993164062 -1.1920929E-07 0.118591309
vn -0.993164062 -1.1920929E-07 0.118591309
vn 0.993164062 1.78813934E-07 -0.118591309
vn 0.993164062 1.78813934E-07 -0.118591309
vn 0.993164062 1.78813934E-07 -0.118591309
vn 0.993164062 1.78813934E-07 -0.118591309
vn 0.117553711 0.135375977 0.983886719
vn 0.117553711 0.135375977 0.983886719
vn 0.117553711 0.135375977 0.983886719
vn 0.117553711 0.135375977 0.983886719
vn -0.117492676 -0.136230469 -0.983886719
vn -0.117492676 -0.136230469 -0.983886719
vn -0.117492676 -0.136230469 -0.983886719
vn -0.117492676 -0.136230469 -0.983886719
vn -0.993164062 4.44054604E-05 0.118713379
vn -0.993164062 4.44054604E-05 0.118713379
vn -0.993164062 4.44054604E-05 0.118713379
vn -0.993164062 4.44054604E-05 0.118713379
vn 0.105712891 0.453857422 0.884765625
vn 0.105712891 0.453857422 0.884765625
vn 0.105712891 0.453857422 0.884765625
vn 0.105712891 0.453857422 0.884765625
vn 0.993164062 -4.4465065E-05 -0.118713379
vn 0.993164062 -4.4465065E-05 -0.118713379
vn 0.993164062 -4.4465065E-05 -0.118713379
vn 0.993164062 -4.4465065E-05 -0.118713379
vn -0.108886719 -0.396972656 -0.911132812
vn -0.108886719 -0.396972656 -0.911132812
vn -0.108886719 -0.396972656 -0.911132812
vn -0.108886719 -0.396972656 -0.911132812
vn -0.993164062 5.9902668E-05 0.118591309
vn -0.993164062 5.9902668E-05 0.118591309
vn -0.993164062 5.9902668E-05 0.118591309
vn -0.993164062 5.9902668E-05 0.118591309
vn 0.0418395996 0.935546875 0.350341797
vn 0.0418395996 0.935546875 0.350341797
vn 0.0418395996 0.935546875 0.350341797
vn 0.0418395996 0.935546875 0.350341797
vn 0.993164062 -5.98430634E-05 -0.118591309
vn 0.993164062 -5.98430634E-05 -0.118591309
vn 0.993164062 -5.98430634E-05 -0.118591309
vn 0.993164062 -5.98430634E-05 -0.118591309
vn -0.051574707 -0.900390625 -0.431640625
vn -0.051574707 -0.900390625 -0.431640625
vn -0.051574707 -0.900390625 -0.431640625
vn -0.051574707 -0.900390625 -0.431640625
vn 0.993164062 1.78813934E-06 -0.118530273
vn 0.993164062 1.78813934E-06 -0.118530273
vn 0.993164062 1.78813934E-06 -0.118530273
vn 0.993164062 1.78813934E-06 -0.118530273
vn -0.993164062 -1.78813934E-06 0.118530273
vn -0.993164062 -1.78813934E-06 0.118530273
vn -0.993164062 -1.78813934E-06 0.118530273
vn -0.993164062 -1.78813934E-06 0.118530273
vn -0.117553711 0.135375977 -0.983886719
vn -0.117553711 0.135375977 -0.983886719
vn -0.117553711 0.135375977 -0.983886719
vn -0.117553711 0.135375977 -0.983886719
vn 0.117492676 -0.136230469 0.983886719
vn 0.117492676 -0.136230469 0.983886719
vn 0.117492676 -0.136230469 0.983886719
vn 0.117492676 -0.136230469 0.983886719
vn 0.993164062 -2.06828117E-05 -0.118530273
vn 0.993164062 -2.06828117E-05 -0.118530273
vn 0.993164062 -2.06828117E-05 -0.118530273
vn 0.993164062 -2.06828117E-05 -0.118530273
vn -0.103820801 0.483886719 -0.869140625
vn -0.103820801 0.483886719 -0.869140625
vn -0.103820801 0.483886719 -0.869140625
vn -0.103820801 0.483886719 -0.869140625
vn -0.993164062 2.06828117E-05 0.118530273
vn -0.993164062 2.06828117E-05 0.118530273
vn -0.993164062 2.06828117E-05 0.118530273
vn -0.993164062 2.06828117E-05 0.118530273
vn 0.106506348 -0.440429688 0.891601562
vn 0.106506348 -0.440429688 0.891601562
vn 0.106506348 -0.440429688 0.891601562
vn 0.106506348 -0.440429688 0.891601562
vn 0.993164062 -3.61800194E-05 -0.118591309
vn 0.993164062 -3.61800194E-05 -0.118591309
vn 0.993164062 -3.61800194E-05 -0.118591309
vn 0.993164062 -3.61800194E-05 -0.118591309
vn -0.0386047363 0.945800781 -0.322998047
vn -0.0386047363 0.945800781 -0.322998047
vn -0.0386047363 0.945800781 -0.322998047
vn -0.0386047363 0.945800781 -0.322998047
vn -0.993164062 3.61800194E-05 0.118591309
vn -0.993164062 3.61800194E-05 0.118591309
vn -0.993164062 3.61800194E-05 0.118591309
vn -0.993164062 3.61800194E-05 0.118591309
vn 0.046875 -0.918457031 0.392333984
vn 0.046875 -0.918457031 0.392333984
vn 0.046875 -0.918457031 0.392333984
vn 0.046875 -0.918457031 0.392333984
vn -0.312011719 0 0.950195312
vn -0.312011719 0 0.950195312
vn -0.312011719 0 0.950195312
vn -0.312011719 0 0.950195312
vn 0.129760742 0.983886719 -0.12487793
vn 0.0559387207 0.980957031 -0.185913086
vn 0.0559387207 0.980957031 -0.185913086
vn 0.118652344 0.983886719 -0.134155273
vn 0.20324707 0.977050781 -0.0618591309
vn 0.20324707 0.977050781 -0.0618591309
vn -0.312011719 0 -0.950195312
vn -0.312011719 0 -0.950195312
vn -0.312011719 0 -0.950195312
vn -0.312011719 0 -0.950195312
vn 0.20324707 -0.977050781 -0.0618591309
vn 0.118774414 -0.983886719 -0.134155273
vn 0.20324707 -0.977050781 -0.0618591309
vn 0.129882812 -0.983398438 -0.12487793
vn 0.0560302734 -0.980957031 -0.186035156
vn 0.0560302734 -0.980957031 -0.186035156
vn 0.962890625 0 0.269287109
vn 0.962890625 0 0.269287109
vn 0.962890625 0 0.269287109
vn 0.962890625 0 0.269287109
vn -0.962890625 0 0.269287109
vn -0.962890625 0 0.269287109
vn -0.962890625 0 0.269287109
vn -0.962890625 0 0.269287109
vn 0.344726562 0 -0.938476562
vn 0.344726562 0 -0.938476562
vn 0.344726562 0 -0.938476562
vn 0.344726562 0 -0.938476562
vn -0.063659668 -0.979980469 -0.187744141
vn -0.136230469 -0.983398438 -0.121582031
vn -0.063659668 -0.979980469 -0.187744141
vn -0.128295898 -0.983398438 -0.12890625
vn -0.208740234 -0.9765625 -0.0530700684
vn -0.208740234 -0.9765625 -0.0530700684
vn 0.344726562 0 0.938476562
vn 0.344726562 0 0.938476562
vn 0.344726562 0 0.938476562
vn 0.344726562 0 0.938476562
vn -0.208740234 0.9765625 -0.0530700684
vn -0.136352539 0.983398438 -0.121643066
vn -0.208740234 0.9765625 -0.0530700684
vn -0.128417969 0.983398438 -0.12902832
vn -0.0637817383 0.979980469 -0.187988281
vn -0.0637817383 0.979980469 -0.187988281
vn 0.218994141 0.973144531 0.068359375
vn 0.125366211 0.98046875 0.151123047
vn 0.218994141 0.973144531 0.068359375
vn 0.138916016 0.98046875 0.139404297
vn 0.0606079102 0.9765625 0.206054688
vn 0.0606079102 0.9765625 0.206054688
vn -0.95703125 0 -0.289550781
vn -0.95703125 0 -0.289550781
vn -0.95703125 0 -0.289550781
vn -0.95703125 0 -0.289550781
vn 0.138916016 -0.98046875 0.139404297
vn 0.0606079102 -0.9765625 0.206054688
vn 0.0606079102 -0.9765625 0.206054688
vn 0.125366211 -0.98046875 0.151123047
vn 0.218994141 -0.973144531 0.068359375
vn 0.218994141 -0.973144531 0.068359375
vn -0.131347656 -0.983886719 0.122802734
vn -0.0676879883 -0.979492188 0.190551758
vn -0.0676879883 -0.979492188 0.190551758
vn -0.125854492 -0.983886719 0.12878418
vn -0.190551758 -0.979980469 0.0578613281
vn -0.190551758 -0.979980469 0.0578613281
vn 0.95703125 0 -0.289550781
vn 0.95703125 0 -0.289550781
vn 0.95703125 0 -0.289550781
vn 0.95703125 0 -0.289550781
vn -0.131347656 0.983886719 0.122802734
vn -0.190551758 0.979980469 0.0578613281
vn -0.190551758 0.979980469 0.0578613281
vn -0.125854492 0.983886719 0.12878418
vn -0.0676879883 0.979492188 0.190551758
vn -0.0676879883 0.979492188 0.190551758
vn -0 0 1
vn -0 0 1
vn -0 0 1
vn -0 0 1
vn -0 0 1
vn -0 0 1
vn -0 0 1
vn -0 0 1
vn -0 0 -1
vn -0 0 -1
vn -0 0 -1
vn -0 0 -1
vn 0.990722656 0.135375977 0
vn 0.990722656 0.135375977 0
vn 0.990722656 0.135375977 0
vn 0.990722656 0.135375977 0
vn -0.990722656 -0.136230469 0
vn -0.990722656 -0.136230469 0
vn -0.990722656 -0.136230469 0
vn -0.990722656 -0.136230469 0
vn 0.910644531 0.412841797 0
vn 0.910644531 0.412841797 0
vn 0.910644531 0.412841797 0
vn 0.910644531 0.412841797 0
vn -0 0 -1
vn -0 0 -1
vn -0 0 -1
vn -0 0 -1
vn -0.9375 -0.348144531 0
vn -0.9375 -0.348144531 0
vn -0.9375 -0.348144531 0
vn -0.9375 -0.348144531 0
vn 0.352783203 0.935546875 0
vn 0.352783203 0.935546875 0
vn 0.352783203 0.935546875 0
vn 0.352783203 0.935546875 0
vn -0 0 -1
vn -0 0 -1
vn -0 0 -1
vn -0 0 -1
vn -0.434814453 -0.900390625 0
vn -0.434814453 -0.900390625 0
vn -0.434814453 -0.900390625 0
vn -0.434814453 -0.900390625 0
vn -0 0 -1
vn -0 0 -1
vn -0 0 -1
vn -0 0 -1
vn -0 0 1
vn -0 0 1
vn -0 0 1
vn -0 0 1
vn -0 0 1
vn -0 0 1
vn -0 0 1
vn -0 0 1
vn -0.990722656 0.135375977 0
vn -0.990722656 0.135375977 0
vn -0.990722656 0.135375977 0
vn -0.990722656 0.135375977 0
vn 0.990722656 -0.136230469 0
vn 0.990722656 -0.136230469 0
vn 0.990722656 -0.136230469 0
vn 0.990722656 -0.136230469 0
vn -0 0 -1
vn -0 0 -1
vn -0 0 -1
vn -0 0 -1
vn -0.897460938 0.44140625 0
vn -0.897460938 0.44140625 0
vn -0.897460938 0.44140625 0
vn -0.897460938 0.44140625 0
vn 0.921386719 -0.388183594 0
vn 0.921386719 -0.388183594 0
vn 0.921386719 -0.388183594 0
vn 0.921386719 -0.388183594 0
vn -0 0 -1
vn -0 0 -1
vn -0 0 -1
vn -0 0 -1
vn -0.325439453 0.945800781 0
vn -0.325439453 0.945800781 0
vn -0.325439453 0.945800781 0
vn -0.325439453 0.945800781 0
vn 0.395263672 -0.918457031 0
vn 0.395263672 -0.918457031 0
vn 0.395263672 -0.918457031 0
vn 0.395263672 -0.918457031 0
vn -0.312011719 0 0.950195312
vn -0.312011719 0 0.950195312
vn -0.312011719 0 0.950195312
vn -0.312011719 0 0.950195312
vn -0.312011719 0 -0.950195312
vn -0.312011719 0 -0.950195312
vn -0.312011719 0 -0.950195312
vn -0.312011719 0 -0.950195312
vn -0 -1 0
vn -0 -1 0
vn -0 -1 0
vn -0 -1 0
vn -0 -1 0
vn -0 -1 0
vn -0 -1 0
vn -0 -1 0
vn -0 -1 0
vn 0.962890625 0 0.269287109
vn 0.962890625 0 0.269287109
vn 0.962890625 0 0.269287109
vn 0.962890625 0 0.269287109
vn -0.962890625 0 0.269287109
vn -0.962890625 0 0.269287109
vn -0.962890625 0 0.269287109
vn -0.962890625 0 0.269287109
vn 0.344726562 0 -0.938476562
vn 0.344726562 0 -0.938476562
vn 0.344726562 0 -0.938476562
vn 0.344726562 0 -0.938476562
vn 0.344726562 0 0.938476562
vn 0.344726562 0 0.938476562
vn 0.344726562 0 0.938476562
vn 0.344726562 0 0.938476562
vn -0 1 0
vn -0 1 0
vn -0 1 0
vn -0 1 0
vn -0 1 0
vn -0 1 0
vn -0 1 0
vn -0 1 0
vn -0 1 0
vn -0.95703125 0 -0.289306641
vn -0.95703125 0 -0.289306641
vn -0.95703125 0 -0.289306641
vn -0.95703125 0 -0.289306641
vn 0.95703125 0 -0.289550781
vn 0.95703125 0 -0.289550781
vn 0.95703125 0 -0.289550781
vn 0.95703125 0 -0.289550781
vn -0 0 1
vn -0 0 1
vn -0 0 1
vn -0 0 1
vn -0 0 -1
vn -0 0 -1
vn -0 0 -1
vn -0 0 -1
vn 1 0 0
vn 1 0 0
vn 1 0 0
vn 1 0 0
vn -1 0 0
vn -1 0 0
vn -1 0 0
vn -1 0 0
vn -0.956542969 -4.17232513E-07 0.291748047
vn -0.956542969 -4.17232513E-07 0.291748047
vn -0.956542969 -4.17232513E-07 0.291748047
vn -0.956542969 -4.17232513E-07 0.291748047
vn -0.321533203 8.94069672E-07 0.946777344
vn -0.321533203 8.94069672E-07 0.946777344
vn -0.321533203 8.94069672E-07 0.946777344
vn -0.321533203 8.94069672E-07 0.946777344
vn 0.245727539 -9.53674316E-07 0.969238281
vn 0.245727539 -9.53674316E-07 0.969238281
vn 0.245727539 -9.53674316E-07 0.969238281
vn 0.245727539 -9.53674316E-07 0.969238281
vn 0.951171875 1.1920929E-06 0.308105469
vn 0.951171875 1.1920929E-06 0.308105469
vn 0.951171875 1.1920929E-06 0.308105469
vn 0.951171875 1.1920929E-06 0.308105469
vn 0.948242188 -7.15255737E-07 -0.316894531
vn 0.948242188 -7.15255737E-07 -0.316894531
vn 0.948242188 -7.15255737E-07 -0.316894531
vn 0.948242188 -7.15255737E-07 -0.316894531
vn 0.258056641 -0.000763893127 -0.966308594
vn 0.258056641 -0.000763893127 -0.966308594
vn 0.258056641 -0.000763893127 -0.966308594
vn 0.258056641 -0.000763893127 -0.966308594
vn -0.291748047 0.000855922699 -0.956542969
vn -0.291748047 0.000855922699 -0.956542969
vn -0.291748047 0.000855922699 -0.956542969
vn -0.291748047 0.000855922699 -0.956542969
vn -0.976074219 -1.60932541E-06 -0.218139648
vn -0.976074219 -1.60932541E-06 -0.218139648
vn -0.976074219 -1.60932541E-06 -0.218139648
vn -0.976074219 -1.60932541E-06 -0.218139648
g Enclosure_Light_0
f 3/3/3 2/2/2 1/1/1
f 4/4/4 3/3/3 1/1/1
f 7/7/7 6/6/6 5/5/5
f 8/8/8 7/7/7 5/5/5
f 11/11/11 10/10/10 9/9/9
f 12/12/12 11/11/11 9/9/9
f 15/15/15 14/14/14 13/13/13
f 16/16/16 15/15/15 13/13/13
f 19/19/19 18/18/18 17/17/17
f 20/20/20 19/19/19 17/17/17
f 23/23/23 22/22/22 21/21/21
f 24/24/24 23/23/23 21/21/21
f 27/27/27 26/26/26 25/25/25
f 28/28/28 27/27/27 25/25/25
f 31/31/31 30/30/30 29/29/29
f 32/32/32 31/31/31 29/29/29
f 35/35/35 34/34/34 33/33/33
f 36/36/36 35/35/35 33/33/33
f 39/39/39 38/38/38 37/37/37
f 40/40/40 39/39/39 37/37/37
f 43/43/43 42/42/42 41/41/41
f 44/44/44 43/43/43 41/41/41
f 47/47/47 46/46/46 45/45/45
f 48/48/48 47/47/47 45/45/45
f 51/51/51 50/50/50 49/49/49
f 52/52/52 51/51/51 49/49/49
f 55/55/55 54/54/54 53/53/53
f 56/56/56 55/55/55 53/53/53
f 59/59/59 58/58/58 57/57/57
f 60/60/60 59/59/59 57/57/57
f 63/63/63 62/62/62 61/61/61
f 64/64/64 63/63/63 61/61/61
f 67/67/67 66/66/66 65/65/65
f 68/68/68 67/67/67 65/65/65
f 71/71/71 70/70/70 69/69/69
f 72/72/72 71/71/71 69/69/69
f 75/75/75 74/74/74 73/73/73
f 76/76/76 75/75/75 73/73/73
f 79/79/79 78/78/78 77/77/77
f 80/80/80 79/79/79 77/77/77
f 83/83/83 82/82/82 81/81/81
f 84/84/84 83/83/83 81/81/81
f 87/87/87 86/86/86 85/85/85
f 88/88/88 87/87/87 85/85/85
f 91/91/91 90/90/90 89/89/89
f 92/92/92 91/91/91 89/89/89
f 95/95/95 94/94/94 93/93/93
f 96/96/96 95/95/95 93/93/93
f 99/99/99 98/98/98 97/97/97
f 100/100/100 99/99/99 97/97/97
f 103/103/103 102/102/102 101/101/101
f 102/102/102 104/104/104 101/101/101
f 104/104/104 105/105/105 101/101/101
f 105/105/105 106/106/106 101/101/101
f 109/109/109 108/108/108 107/107/107
f 110/110/110 109/109/109 107/107/107
f 113/113/113 112/112/112 111/111/111
f 112/112/112 114/114/114 111/111/111
f 112/112/112 115/115/115 114/114/114
f 115/115/115 116/116/116 114/114/114
f 119/119/119 118/118/118 117/117/117
f 120/120/120 119/119/119 117/117/117
f 123/123/123 122/122/122 121/121/121
f 124/124/124 123/123/123 121/121/121
f 127/127/127 126/126/126 125/125/125
f 128/128/128 127/127/127 125/125/125
f 131/131/131 130/130/130 129/129/129
f 130/130/130 132/132/132 129/129/129
f 130/130/130 133/133/133 132/132/132
f 133/133/133 134/134/134 132/132/132
f 137/137/137 136/136/136 135/135/135
f 138/138/138 137/137/137 135/135/135
f 141/141/141 140/140/140 139/139/139
f 140/140/140 142/142/142 139/139/139
f 140/140/140 143/143/143 142/142/142
f 143/143/143 144/144/144 142/142/142
f 147/147/147 146/146/146 145/145/145
f 146/146/146 148/148/148 145/145/145
f 146/146/146 149/149/149 148/148/148
f 149/149/149 150/150/150 148/148/148
f 153/153/153 152/152/152 151/151/151
f 154/154/154 153/153/153 151/151/151
f 157/157/157 156/156/156 155/155/155
f 156/156/156 158/158/158 155/155/155
f 158/158/158 159/159/159 155/155/155
f 159/159/159 160/160/160 155/155/155
f 163/163/163 162/162/162 161/161/161
f 164/164/164 163/163/163 161/161/161
f 164/164/164 161/161/161 165/165/165
f 166/166/166 164/164/164 165/165/165
f 169/169/169 168/168/168 167/167/167
f 170/170/170 169/169/169 167/167/167
f 173/173/173 172/172/172 171/171/171
f 174/174/174 173/173/173 171/171/171
f 174/174/174 171/171/171 175/175/175
f 176/176/176 174/174/174 175/175/175
f 179/179/179 178/178/178 177/177/177
f 178/178/178 180/180/180 177/177/177
f 178/178/178 181/181/181 180/180/180
f 181/181/181 182/182/182 180/180/180
f 181/181/181 183/183/183 182/182/182
f 183/183/183 184/184/184 182/182/182
f 187/187/187 186/186/186 185/185/185
f 188/188/188 187/187/187 185/185/185
f 191/191/191 190/190/190 189/189/189
f 192/192/192 191/191/191 189/189/189
f 195/195/195 194/194/194 193/193/193
f 196/196/196 195/195/195 193/193/193
f 199/199/199 198/198/198 197/197/197
f 200/200/200 199/199/199 197/197/197
f 203/203/203 202/202/202 201/201/201
f 204/204/204 203/203/203 201/201/201
f 207/207/207 206/206/206 205/205/205
f 208/208/208 207/207/207 205/205/205
f 211/211/211 210/210/210 209/209/209
f 212/212/212 211/211/211 209/209/209
f 215/215/215 214/214/214 213/213/213
f 216/216/216 215/215/215 213/213/213
f 219/219/219 218/218/218 217/217/217
f 220/220/220 219/219/219 217/217/217
f 223/223/223 222/222/222 221/221/221
f 224/224/224 223/223/223 221/221/221
f 227/227/227 226/226/226 225/225/225
f 228/228/228 227/227/227 225/225/225
f 225/225/225 229/229/229 228/228/228
f 229/229/229 230/230/230 228/228/228
f 229/229/229 231/231/231 230/230/230
f 231/231/231 232/232/232 230/230/230
f 235/235/235 234/234/234 233/233/233
f 236/236/236 235/235/235 233/233/233
f 239/239/239 238/238/238 237/237/237
f 240/240/240 239/239/239 237/237/237
f 243/243/243 242/242/242 241/241/241
f 244/244/244 243/243/243 241/241/241
f 247/247/247 246/246/246 245/245/245
f 248/248/248 247/247/247 245/245/245
f 251/251/251 250/250/250 249/249/249
f 252/252/252 251/251/251 249/249/249
f 255/255/255 254/254/254 253/253/253
f 256/256/256 255/255/255 253/253/253
f 259/259/259 258/258/258 257/257/257
f 260/260/260 259/259/259 257/257/257
f 263/263/263 262/262/262 261/261/261
f 264/264/264 263/263/263 261/261/261
f 267/267/267 266/266/266 265/265/265
f 268/268/268 267/267/267 265/265/265
f 271/271/271 270/270/270 269/269/269
f 272/272/272 271/271/271 269/269/269
f 275/275/275 274/274/274 273/273/273
f 276/276/276 275/275/275 273/273/273
f 276/276/276 273/273/273 277/277/277
f 278/278/278 276/276/276 277/277/277
f 276/276/276 279/279/279 275/275/275
f 276/276/276 278/278/278 279/279/279
f 279/279/279 280/280/280 275/275/275
f 278/278/278 281/281/281 279/279/279
f 284/284/284 283/283/283 282/282/282
f 285/285/285 284/284/284 282/282/282
f 288/288/288 287/287/287 286/286/286
f 289/289/289 288/288/288 286/286/286
f 292/292/292 291/291/291 290/290/290
f 293/293/293 292/292/292 290/290/290
f 296/296/296 295/295/295 294/294/294
f 297/297/297 296/296/296 294/294/294
f 300/300/300 299/299/299 298/298/298
f 301/301/301 300/300/300 298/298/298
f 300/300/300 301/301/301 302/302/302
f 301/301/301 303/303/303 302/302/302
f 301/301/301 298/298/298 304/304/304
f 301/301/301 304/304/304 303/303/303
f 298/298/298 305/305/305 304/304/304
f 304/304/304 306/306/306 303/303/303
f 309/309/309 308/308/308 307/307/307
f 310/310/310 309/309/309 307/307/307
f 313/313/313 312/312/312 311/311/311
f 314/314/314 313/313/313 311/311/311
f 317/317/317 316/316/316 315/315/315
f 318/318/318 317/317/317 315/315/315
f 321/321/321 320/320/320 319/319/319
f 322/322/322 321/321/321 319/319/319
f 325/325/325 324/324/324 323/323/323
f 326/326/326 325/325/325 323/323/323
f 329/329/329 328/328/328 327/327/327
f 330/330/330 329/329/329 327/327/327
f 333/333/333 332/332/332 331/331/331
f 334/334/334 333/333/333 331/331/331
f 337/337/337 336/336/336 335/335/335
f 338/338/338 337/337/337 335/335/335
f 341/341/341 340/340/340 339/339/339
f 342/342/342 341/341/341 339/339/339
f 345/345/345 344/344/344 343/343/343
f 346/346/346 345/345/345 343/343/343
f 349/349/349 348/348/348 347/347/347
f 350/350/350 349/349/349 347/347/347
f 353/353/353 352/352/352 351/351/351
f 354/354/354 353/353/353 351/351/351
f 357/357/357 356/356/356 355/355/355
f 358/358/358 357/357/357 355/355/355
f 361/361/361 360/360/360 359/359/359
f 362/362/362 361/361/361 359/359/359
