g RodRoom_Bed
v -0.971266747 4.54747341E-15 1.26107967
v -0.961950362 0.068486765 1.32315361
v -0.95035702 4.54747341E-15 1.31156039
v -1.00532711 -1.52587887E-07 -0.52139771
v -0.986405611 0.0684479475 -0.498249501
v -0.971266747 4.54747341E-15 -0.504520237
v 0.894224823 4.54747341E-15 1.33247006
v 0.956298828 0.068486765 1.32315361
v 0.944705188 4.54747341E-15 1.31156039
v 0.0958727971 0.870967925 -0.999999344
v 0.109575801 0.864070773 -1.10195124
v 0.138483271 0.81959796 -1.13430107
v 0.123383179 0.808929265 -1.00372982
v 0.108344115 0.774691701 -0.801232278
v 0.0808343515 0.836730301 -0.797501802
v 0.103985593 0.747918904 -0.669782102
v 0.0794958472 0.800350428 -0.696915865
v -0.506411731 0.718226373 -1.18595517
v -0.50468868 0.764399648 -1.15216613
v -0.509135127 0.77219075 -1.04945743
v -0.510770857 0.708595157 -1.05450559
v -0.524173558 0.75650245 -0.846959233
v -0.525809288 0.692906737 -0.852008045
v -0.54090941 0.682238162 -0.721436143
v -0.534769297 0.733019769 -0.747130096
v 0.123383179 0.808929265 -1.00372982
v 0.138483271 0.81959796 -1.13430107
v 0.119319454 0.76881659 -1.10860717
v 0.108724363 0.74533391 -1.0087781
v 0.0936852992 0.711096227 -0.806280494
v 0.108344115 0.774691701 -0.801232278
v 0.0892395005 0.705096364 -0.703571737
v 0.103985593 0.747918904 -0.669782102
v -0.494945675 0.669145584 -1.15882194
v -0.506411731 0.718226373 -1.18595517
v -0.510770857 0.708595157 -1.05450559
v -0.496284157 0.646556854 -1.058236
v -0.525809288 0.692906737 -0.852008045
v -0.511322618 0.630868495 -0.855738521
v -0.525025606 0.637765706 -0.753786623
v -0.54090941 0.682238162 -0.721436143
v -0.54090941 0.682238162 -0.721436143
v -0.534769297 0.733019769 -0.747130096
v -0.379682004 0.753799021 -0.731255472
v -0.376657695 0.699945152 -0.704630136
v -0.0772082508 0.790516853 -0.706528902
v -0.0741839558 0.731426775 -0.679903567
v 0.103985593 0.747918904 -0.669782102
v 0.0794958472 0.800350428 -0.696915865
v -0.50468868 0.764399648 -1.15216613
v -0.506411731 0.718226373 -1.18595517
v -0.341685176 0.744232833 -1.17554808
v -0.34919861 0.793403387 -1.14172363
v -0.039210815 0.805988312 -1.15082157
v -0.0467248522 0.855158925 -1.116997
v 0.109575801 0.864070773 -1.10195124
v 0.138483271 0.81959796 -1.13430107
v -0.525025606 0.637765706 -0.753786623
v -0.54090941 0.682238162 -0.721436143
v -0.376657695 0.699945152 -0.704630136
v -0.369132668 0.650666654 -0.738461912
v -0.0741839558 0.731426775 -0.679903567
v -0.0666589364 0.687600136 -0.713735342
v 0.0892395005 0.705096364 -0.703571737
v 0.103985593 0.747918904 -0.669782102
v -0.509135127 0.77219075 -1.04945743
v -0.50468868 0.764399648 -1.15216613
v -0.34919861 0.793403387 -1.14172363
v -0.35849303 0.801790357 -1.03793395
v -0.0467248522 0.855158925 -1.116997
v -0.374978632 0.792269707 -0.831908524
v -0.524173558 0.75650245 -0.846959233
v -0.534769297 0.733019769 -0.747130096
v -0.379682004 0.753799021 -0.731255472
v -0.0560192876 0.863546073 -1.01320803
v -0.072504878 0.840853453 -0.807182014
v -0.0772082508 0.790516853 -0.706528902
v 0.0794958472 0.800350428 -0.696915865
v 0.0808343515 0.836730301 -0.797501802
v 0.0958727971 0.870967925 -0.999999344
v 0.109575801 0.864070773 -1.10195124
v -0.511322618 0.630868495 -0.855738521
v -0.525025606 0.637765706 -0.753786623
v -0.369132668 0.650666654 -0.738461912
v -0.359832138 0.644196332 -0.842255235
v -0.0666589364 0.687600136 -0.713735342
v -0.344595343 0.665919721 -1.04742861
v -0.496284157 0.646556854 -1.058236
v -0.494945675 0.669145584 -1.15882194
v -0.0573583953 0.6928339 -0.817528665
v -0.338649273 0.69027096 -1.14893007
v -0.506411731 0.718226373 -1.18595517
v -0.341685176 0.744232833 -1.17554808
v 0.0936852992 0.711096227 -0.806280494
v 0.0892395005 0.705096364 -0.703571737
v 0.108724363 0.74533391 -1.0087781
v -0.0421209708 0.72767508 -1.02270198
v 0.119319454 0.76881659 -1.10860717
v -0.0361755379 0.752026498 -1.12420344
v -0.039210815 0.805988312 -1.15082157
v 0.138483271 0.81959796 -1.13430107
v -0.904943228 0.637606204 1.33105588
v -0.00282592769 0.637606204 1.33105588
v -0.00282592769 0.572696805 1.35794222
v -0.904943228 0.572696805 1.35794222
v -0.00282592769 0.162976742 1.35794222
v -0.969852567 0.572696805 1.33105588
v -0.957922935 0.625676632 1.31912625
v -0.969852567 0.162976742 1.33105588
v -0.904943228 0.162976742 1.35794222
v -0.00282592769 0.068486765 1.34761775
v -0.902889371 0.068486765 1.34761775
v -0.961950362 0.068486765 1.32315361
v -0.00282592769 4.54747341E-15 1.33247006
v -0.95035702 4.54747341E-15 1.31156039
v -0.899876356 4.54747341E-15 1.33247006
v -0.904943228 0.637606204 1.33105588
v -0.957922935 0.625676632 1.31912625
v -0.969852567 0.637606204 1.26614618
v -0.904943228 0.664492548 1.26614618
v -0.00282592769 0.637606204 1.33105588
v -0.00282592769 0.664492548 1.26614618
v -0.00282592769 0.664492548 0.243549794
v -0.904943228 0.664492548 0.243549794
v -0.969852567 0.637606204 0.243549794
v -0.969852567 0.637606204 1.26614618
v -0.957922935 0.625676632 1.31912625
v -0.969852567 0.572696805 1.33105588
v -0.996738851 0.572696805 1.26614618
v -0.969852567 0.637606204 0.243549794
v -0.996738851 0.572696805 0.243549794
v -0.996738851 0.162976742 1.26614618
v -0.969852567 0.162976742 1.33105588
v -0.996738851 0.162996635 0.243549794
v -0.961950362 0.068486765 1.32315361
v -0.986414135 0.068486765 1.26409304
v -0.986409903 0.0684673488 0.240382686
v -0.971266747 4.54747341E-15 1.26107967
v -0.971266747 4.54747341E-15 0.23574096
v -0.993087113 0.655303717 -0.542831421
v -0.980024099 0.647777855 -0.670411944
v -0.907586634 0.677782416 -0.670411944
v -0.919683814 0.686039329 -0.542831421
v -0.00282592769 0.677782416 -0.670411944
v -0.980024099 0.647777855 -0.507258892
v -0.00282592769 0.686039329 -0.542831421
v -0.907586634 0.677782416 -0.507258892
v -0.969852567 0.637606204 -0.493969113
v -0.00282592769 0.677782416 -0.507258892
v -0.904943228 0.664492548 -0.493969113
v -0.00282592769 0.664492548 -0.493969113
v -0.996738851 0.572696805 0.243549794
v -0.969852567 0.637606204 -0.493969113
v -0.969852567 0.637606204 0.243549794
v -0.996738851 0.572696805 -0.493969113
v -0.996738851 0.163016513 -0.493969113
v -0.996738851 0.162996635 0.243549794
v -0.986409903 0.0684673488 0.240382686
v -0.986405611 0.0684479475 -0.498249501
v -0.971266747 4.54747341E-15 -0.504520237
v -0.971266747 4.54747341E-15 0.23574096
v -0.969852567 0.637606204 0.243549794
v -0.969852567 0.637606204 -0.493969113
v -0.904943228 0.664492548 -0.493969113
v -0.904943228 0.664492548 0.243549794
v -0.00282592769 0.664492548 -0.493969113
v -0.00282592769 0.664492548 0.243549794
v -0.996738851 0.572696805 -0.493969113
v -0.980024099 0.647777855 -0.507258892
v -0.969852567 0.637606204 -0.493969113
v -1.01002872 0.575340331 -0.507258892
v -0.993087113 0.655303717 -0.542831421
v -1.01002872 0.163685083 -0.507258892
v -0.996738851 0.163016513 -0.493969113
v -0.986405611 0.0684479475 -0.498249501
v -1.0234915 0.581101298 -0.542831421
v -0.980024099 0.647777855 -0.670411944
v -1.01002872 0.575340331 -0.670411944
v -1.01002872 0.163654625 -0.670411944
v -1.0234915 0.158237308 -0.542831421
v -1.00703609 0.0685108155 -0.513025522
v -1.00532711 -1.52587887E-07 -0.52139771
v -1.0191617 0.0634188652 -0.544155896
v -1.00565732 0.0690426975 -0.662286997
v -1.01470757 -0.0082569886 -0.546182215
v -1.00015008 -4.51660162E-05 -0.650256932
v -0.00282592769 0.677782416 -0.670411944
v -0.899868727 0.643492937 -0.683701754
v -0.00282592769 0.643492937 -0.683701754
v -0.907586634 0.677782416 -0.670411944
v -0.980024099 0.647777855 -0.670411944
v -0.939587712 0.630578041 -0.683701754
v -1.01002872 0.575340331 -0.670411944
v -0.949762523 0.582536519 -0.683701754
v -1.01002872 0.163654625 -0.670411944
v -0.957570791 0.164987639 -0.683701754
v -1.00565732 0.0690426975 -0.662286997
v -0.956750154 0.070354268 -0.673867762
v -0.954168677 -6.10733041E-05 -0.659069836
v -1.00015008 -4.51660162E-05 -0.650256932
v 0.899291337 0.637606204 1.33105588
v -0.00282592769 0.572696805 1.35794222
v -0.00282592769 0.637606204 1.33105588
v 0.899291337 0.572696805 1.35794222
v -0.00282592769 0.162976742 1.35794222
v 0.964201033 0.572696805 1.33105588
v 0.952271104 0.625676632 1.31912625
v 0.964201033 0.162976742 1.33105588
v 0.899291337 0.162976742 1.35794222
v 0.956298828 0.068486765 1.32315361
v 0.897238135 0.068486765 1.34761775
v -0.00282592769 0.068486765 1.34761775
v 0.894224823 4.54747341E-15 1.33247006
v -0.00282592769 4.54747341E-15 1.33247006
v 0.899291337 0.637606204 1.33105588
v 0.964201033 0.637606204 1.26614618
v 0.952271104 0.625676632 1.31912625
v 0.899291337 0.664492548 1.26614618
v -0.00282592769 0.637606204 1.33105588
v -0.00282592769 0.664492548 1.26614618
v -0.00282592769 0.664492548 0.243549794
v 0.899291337 0.664492548 0.243549794
v 0.964201033 0.637606204 0.243549794
v 0.964201033 0.637606204 1.26614618
v 0.964201033 0.572696805 1.33105588
v 0.952271104 0.625676632 1.31912625
v 0.991087019 0.572696805 1.26614618
v 0.964201033 0.637606204 0.243549794
v 0.991087019 0.572696805 0.243549794
v 0.991087019 0.162976742 1.26614618
v 0.991087019 0.162996635 0.243549794
v 0.964201033 0.162976742 1.33105588
v 0.980758011 0.0684673488 0.240382686
v 0.980762899 0.068486765 1.26409304
v 0.965615213 4.54747341E-15 0.23574096
v 0.956298828 0.068486765 1.32315361
v 0.965615213 4.54747341E-15 1.26107967
v 0.944705188 4.54747341E-15 1.31156039
v 0.987435281 0.655303717 -0.542831421
v 0.901934803 0.677782416 -0.670411944
v 0.974372566 0.647777855 -0.670411944
v 0.914032578 0.686039329 -0.542831421
v -0.00282592769 0.677782416 -0.670411944
v 0.974372566 0.647777855 -0.507258892
v -0.00282592769 0.686039329 -0.542831421
v 0.901934803 0.677782416 -0.507258892
v 0.964201033 0.637606204 -0.493969113
v -0.00282592769 0.677782416 -0.507258892
v 0.899291337 0.664492548 -0.493969113
v -0.00282592769 0.664492548 -0.493969113
v 0.964201033 0.637606204 0.243549794
v 0.964201033 0.637606204 -0.493969113
v 0.991087019 0.572696805 -0.493969113
v 0.991087019 0.572696805 0.243549794
v 0.991087019 0.163016513 -0.493969113
v 0.991087019 0.162996635 0.243549794
v 0.980753779 0.0684479475 -0.498249501
v 0.980758011 0.0684673488 0.240382686
v 0.965615213 4.54747341E-15 -0.504520237
v 0.965615213 4.54747341E-15 0.23574096
v 0.899291337 0.664492548 0.243549794
v 0.964201033 0.637606204 -0.493969113
v 0.964201033 0.637606204 0.243549794
v 0.899291337 0.664492548 -0.493969113
v -0.00282592769 0.664492548 0.243549794
v -0.00282592769 0.664492548 -0.493969113
v 0.991087019 0.572696805 -0.493969113
v 0.964201033 0.637606204 -0.493969113
v 0.974372566 0.647777855 -0.507258892
v 1.00437677 0.575340331 -0.507258892
v 0.991087019 0.163016513 -0.493969113
v 0.987435281 0.655303717 -0.542831421
v 1.00437677 0.163685083 -0.507258892
v 1.00499332 0.0685108155 -0.513025522
v 1.01783991 0.581101298 -0.542831421
v 0.974372566 0.647777855 -0.670411944
v 1.00437677 0.575340331 -0.670411944
v 1.01783991 0.158237308 -0.542831421
v 1.00437677 0.163654625 -0.670411944
v 1.00391173 0.0690426975 -0.662286997
v 1.01711845 0.0634188652 -0.544155896
v 1.01306391 -0.0082569886 -0.546182215
v 1.00368345 -1.52587887E-07 -0.52139771
v 0.999180913 -4.51660162E-05 -0.650256932
v -0.00282592769 0.677782416 -0.670411944
v -0.00282592769 0.643492937 -0.683701754
v 0.894216895 0.643492937 -0.683701754
v 0.901934803 0.677782416 -0.670411944
v 0.974372566 0.647777855 -0.670411944
v 0.933936119 0.630578041 -0.683701754
v 1.00437677 0.575340331 -0.670411944
v 0.944110692 0.582536519 -0.683701754
v 1.00437677 0.163654625 -0.670411944
v 0.9519189 0.164987639 -0.683701754
v 0.951098621 0.070354268 -0.673867762
v 1.00391173 0.0690426975 -0.662286997
v 0.948516846 -6.10733041E-05 -0.659069836
v 0.999180913 -4.51660162E-05 -0.650256932
v 1.00499332 0.0685108155 -0.513025522
v 0.980753779 0.0684479475 -0.498249501
v 0.991087019 0.163016513 -0.493969113
v 1.00368345 -1.52587887E-07 -0.52139771
v 0.965615213 4.54747341E-15 -0.504520237
v -0.985435188 0.613737643 -0.652691007
v -0.968039215 0.636861265 -1.30002809
v -0.968039215 0.636861265 -0.652691007
v -0.985435188 0.613737643 -1.30002809
v -0.990947843 0.128604755 -1.30002809
v -0.990947843 0.128604755 -0.652691007
v -0.965057373 0.104099765 -0.652691007
v -0.965057373 0.104099765 -1.30002809
v -0.969978333 4.54747341E-15 -1.30002809
v -0.969978333 4.54747341E-15 -0.652691007
v -0.968039215 0.636861265 -0.652691007
v -0.968039215 0.636861265 -1.30002809
v -0.943996549 0.656180799 -1.30002809
v -0.943996549 0.656180799 -0.652691007
v -0.00282592769 0.656180799 -1.30002809
v -0.00282592769 0.656180799 -0.652691007
v 0.979783297 0.613737643 -0.652691007
v 0.962387681 0.636861265 -0.652691007
v 0.962387681 0.636861265 -1.30002809
v 0.979783297 0.613737643 -1.30002809
v 0.985296011 0.128604755 -0.652691007
v 0.985296011 0.128604755 -1.30002809
v 0.959405482 0.104099765 -1.30002809
v 0.959405482 0.104099765 -0.652691007
v 0.964326739 4.54747341E-15 -1.30002809
v 0.964326739 4.54747341E-15 -0.652691007
v 0.962387681 0.636861265 -0.652691007
v 0.938344717 0.656180799 -1.30002809
v 0.962387681 0.636861265 -1.30002809
v 0.938344717 0.656180799 -0.652691007
v -0.00282592769 0.656180799 -1.30002809
v -0.00282592769 0.656180799 -0.652691007
v -1.01604915 4.54747341E-15 -1.29267633
v -1.01604915 0.684028506 -1.29267633
v -0 0.684028506 -1.29267633
v -0 4.54747341E-15 -1.29267633
v -1.01604915 0.684028506 -1.29267633
v -1.01604915 0.684028506 -1.35794246
v -0 0.684028506 -1.35794246
v -0 0.684028506 -1.29267633
v -1.01604915 0.684028506 -1.35794246
v -1.01604915 4.54747341E-15 -1.35794246
v -0 4.54747341E-15 -1.35794246
v -0 0.684028506 -1.35794246
v 1.01604915 4.54747341E-15 -1.29267633
v 1.01604915 0.684028506 -1.29267633
v 1.01604915 0.684028506 -1.35794246
v 1.01604915 4.54747341E-15 -1.35794246
v -1.01604915 4.54747341E-15 -1.35794246
v -1.01604915 0.684028506 -1.35794246
v -1.01604915 0.684028506 -1.29267633
v -1.01604915 4.54747341E-15 -1.29267633
v 0.610864878 0.77377373 -1.07504511
v 0.615530372 0.758467674 -1.17689574
v 0.624403656 0.710476458 -1.20680845
v 0.618990481 0.710476458 -1.07504511
v 0.618990481 0.710476458 -0.871384859
v 0.610864878 0.77377373 -0.871384859
v 0.624403656 0.710476458 -0.73962158
v 0.615530372 0.758467674 -0.76953429
v -0.0125054931 0.710476458 -1.20680845
v -0.00363220205 0.758467674 -1.17689574
v 0.00103332521 0.77377373 -1.07504511
v -0.00709228497 0.710476458 -1.07504511
v 0.00103332521 0.77377373 -0.871384859
v -0.00709228497 0.710476458 -0.871384859
v -0.0125054931 0.710476458 -0.73962158
v -0.00363220205 0.758467674 -0.76953429
v 0.618990481 0.710476458 -1.07504511
v 0.624403656 0.710476458 -1.20680845
v 0.615530372 0.66248554 -1.17689574
v 0.610864878 0.647179484 -1.07504511
v 0.610864878 0.647179484 -0.871384859
v 0.618990481 0.710476458 -0.871384859
v 0.615530372 0.66248554 -0.76953429
v 0.624403656 0.710476458 -0.73962158
v -0.00363220205 0.66248554 -1.17689574
v -0.0125054931 0.710476458 -1.20680845
v -0.00709228497 0.710476458 -1.07504511
v 0.00103332521 0.647179484 -1.07504511
v -0.00709228497 0.710476458 -0.871384859
v 0.00103332521 0.647179484 -0.871384859
v -0.00363220205 0.66248554 -0.76953429
v -0.0125054931 0.710476458 -0.73962158
v -0.00363220205 0.758467674 -1.17689574
v -0.0125054931 0.710476458 -1.20680845
v 0.153506473 0.712540805 -1.21002626
v 0.153506473 0.764446795 -1.17962766
v 0.00103332521 0.77377373 -1.07504511
v 0.458391726 0.712540805 -1.21002626
v 0.153506473 0.780911148 -1.07639098
v 0.458391726 0.764446795 -1.17962766
v 0.153506473 0.793207169 -0.870039642
v 0.00103332521 0.77377373 -0.871384859
v -0.00363220205 0.758467674 -0.76953429
v 0.615530372 0.758467674 -1.17689574
v 0.624403656 0.710476458 -1.20680845
v 0.610864878 0.77377373 -1.07504511
v 0.458391726 0.780911148 -1.07639098
v 0.610864878 0.77377373 -0.871384859
v 0.458391726 0.793207169 -0.870039642
v 0.615530372 0.758467674 -0.76953429
v 0.153506473 0.764446795 -0.766802371
v -0.0125054931 0.710476458 -0.73962158
v 0.153506473 0.712540805 -0.736404419
v 0.458391726 0.764446795 -0.766802371
v 0.624403656 0.710476458 -0.73962158
v 0.458391726 0.712540805 -0.736404419
v -0.00363220205 0.66248554 -0.76953429
v -0.0125054931 0.710476458 -0.73962158
v 0.153506473 0.712540805 -0.736404419
v 0.153506473 0.660526097 -0.766802371
v 0.458391726 0.712540805 -0.736404419
v 0.458391726 0.660526097 -0.766802371
v 0.615530372 0.66248554 -0.76953429
v 0.624403656 0.710476458 -0.73962158
v -0.0125054931 0.710476458 -1.20680845
v -0.00363220205 0.66248554 -1.17689574
v 0.153506473 0.660526097 -1.17962766
v 0.153506473 0.712540805 -1.21002626
v 0.458391726 0.660526097 -1.17962766
v 0.458391726 0.712540805 -1.21002626
v 0.624403656 0.710476458 -1.20680845
v 0.615530372 0.66248554 -1.17689574
v 0.00103332521 0.647179484 -0.871384859
v -0.00363220205 0.66248554 -0.76953429
v 0.153506473 0.660526097 -0.766802371
v 0.153506473 0.644001901 -0.870039642
v 0.458391726 0.660526097 -0.766802371
v 0.153506473 0.644001901 -1.07639098
v 0.00103332521 0.647179484 -1.07504511
v -0.00363220205 0.66248554 -1.17689574
v 0.153506473 0.660526097 -1.17962766
v 0.458391726 0.644001901 -0.870039642
v 0.458391726 0.644001901 -1.07639098
v 0.458391726 0.660526097 -1.17962766
v 0.615530372 0.66248554 -1.17689574
v 0.610864878 0.647179484 -1.07504511
v 0.610864878 0.647179484 -0.871384859
v 0.615530372 0.66248554 -0.76953429
v -0 0.684028506 -1.29267633
v 1.01604915 0.684028506 -1.29267633
v 1.01604915 4.54747341E-15 -1.29267633
v -0 4.54747341E-15 -1.29267633
v -0 0.684028506 -1.35794246
v 1.01604915 0.684028506 -1.35794246
v 1.01604915 0.684028506 -1.29267633
v -0 0.684028506 -1.29267633
v -0 4.54747341E-15 -1.35794246
v 1.01604915 4.54747341E-15 -1.35794246
v 1.01604915 0.684028506 -1.35794246
v -0 0.684028506 -1.35794246
vt 0.758300781 0.108642578
vt 0.768554688 0.0997314453
vt 0.758300781 0.0997314453
vt 0.758789062 0.275390625
vt 0.767578125 0.26953125
vt 0.7578125 0.269775391
vt 0.861328125 0.00737380981
vt 0.8515625 0.0174865723
vt 0.8515625 0.00737380981
vt 0.738769531 0.032043457
vt 0.73828125 0.0162506104
vt 0.731933594 0.00831604004
vt 0.727539062 0.0314025879
vt 0.727539062 0.0662841797
vt 0.73828125 0.0646362305
vt 0.731445312 0.0894165039
vt 0.737792969 0.0811767578
vt 0.842773438 0.0102386475
vt 0.837402344 0.0177764893
vt 0.836914062 0.0335388184
vt 0.847167969 0.0327453613
vt 0.836425781 0.0656738281
vt 0.847167969 0.0667724609
vt 0.841308594 0.0891723633
vt 0.836425781 0.0814208984
vt 0.725585938 0.0325317383
vt 0.729492188 0.00959014893
vt 0.735839844 0.017364502
vt 0.736328125 0.0337524414
vt 0.737792969 0.0672607422
vt 0.7265625 0.0675048828
vt 0.73828125 0.0833129883
vt 0.732910156 0.0905761719
vt 0.837890625 0.0168609619
vt 0.841796875 0.00877380371
vt 0.848632812 0.0316162109
vt 0.837890625 0.0328979492
vt 0.849121094 0.06640625
vt 0.838378906 0.0655517578
vt 0.838867188 0.0816650391
vt 0.84375 0.0894775391
vt 0.841308594 0.0891723633
vt 0.836425781 0.0814208984
vt 0.812011719 0.0833740234
vt 0.812988281 0.0931396484
vt 0.762695312 0.083190918
vt 0.762207031 0.0938110352
vt 0.731445312 0.0894165039
vt 0.737792969 0.0811767578
vt 0.837402344 0.0177764893
vt 0.842773438 0.0102386475
vt 0.814453125 0.00563430786
vt 0.812988281 0.0153656006
vt 0.762695312 0.00509643555
vt 0.762695312 0.0149078369
vt 0.73828125 0.0162506104
vt 0.731933594 0.00831604004
vt 0.838867188 0.0816650391
vt 0.84375 0.0894775391
vt 0.814453125 0.0940551758
vt 0.813964844 0.0839233398
vt 0.763183594 0.0940551758
vt 0.763183594 0.0847167969
vt 0.73828125 0.0833129883
vt 0.732910156 0.0905761719
vt 0.836914062 0.0335388184
vt 0.837402344 0.0177764893
vt 0.812988281 0.0153656006
vt 0.8125 0.0323791504
vt 0.762695312 0.0149078369
vt 0.812011719 0.0659179688
vt 0.836425781 0.0656738281
vt 0.836425781 0.0814208984
vt 0.812011719 0.0833740234
vt 0.762695312 0.0317687988
vt 0.762695312 0.0650024414
vt 0.762695312 0.083190918
vt 0.737792969 0.0811767578
vt 0.73828125 0.0646362305
vt 0.738769531 0.032043457
vt 0.73828125 0.0162506104
vt 0.838378906 0.0655517578
vt 0.838867188 0.0816650391
vt 0.813964844 0.0839233398
vt 0.813476562 0.0666503906
vt 0.763183594 0.0847167969
vt 0.8125 0.0325012207
vt 0.837890625 0.0328979492
vt 0.837890625 0.0168609619
vt 0.763183594 0.0670776367
vt 0.8125 0.0151596069
vt 0.841796875 0.00877380371
vt 0.8125 0.00505828857
vt 0.737792969 0.0672607422
vt 0.73828125 0.0833129883
vt 0.736328125 0.0337524414
vt 0.76171875 0.0323486328
vt 0.735839844 0.017364502
vt 0.761230469 0.0148773193
vt 0.760253906 0.00484466553
vt 0.729492188 0.00959014893
vt 0.861328125 0.0997314453
vt 0.993164062 0.0997314453
vt 0.993164062 0.0908813477
vt 0.861328125 0.0908813477
vt 0.993164062 0.0313720703
vt 0.8515625 0.0908813477
vt 0.8515625 0.0997314453
vt 0.8515625 0.0313720703
vt 0.861328125 0.0313720703
vt 0.993164062 0.0174865723
vt 0.861328125 0.0174865723
vt 0.8515625 0.0174865723
vt 0.993164062 0.00737380981
vt 0.8515625 0.00737380981
vt 0.861328125 0.00737380981
vt 0.861328125 0.0997314453
vt 0.8515625 0.0997314453
vt 0.8515625 0.108764648
vt 0.861328125 0.108825684
vt 0.993164062 0.0997314453
vt 0.993164062 0.108825684
vt 0.993164062 0.260009766
vt 0.861328125 0.260009766
vt 0.8515625 0.260009766
vt 0.8515625 0.108764648
vt 0.8515625 0.0997314453
vt 0.842285156 0.0997314453
vt 0.842285156 0.108764648
vt 0.8515625 0.260009766
vt 0.842285156 0.260009766
vt 0.782714844 0.108703613
vt 0.782714844 0.0997314453
vt 0.782714844 0.260009766
vt 0.768554688 0.0997314453
vt 0.768554688 0.108703613
vt 0.768554688 0.260009766
vt 0.758300781 0.108642578
vt 0.758300781 0.260009766
vt 0.852050781 0.276367188
vt 0.852539062 0.293701172
vt 0.862792969 0.294921875
vt 0.862792969 0.276367188
vt 0.992675781 0.295654297
vt 0.852539062 0.270996094
vt 0.993164062 0.277099609
vt 0.864257812 0.271240234
vt 0.852539062 0.268310547
vt 0.993652344 0.271972656
vt 0.864257812 0.268554688
vt 0.993652344 0.269287109
vt 0.842285156 0.260009766
vt 0.8515625 0.153442383
vt 0.8515625 0.260009766
vt 0.842285156 0.153442383
vt 0.782714844 0.153564453
vt 0.782714844 0.260009766
vt 0.768554688 0.260009766
vt 0.768554688 0.153564453
vt 0.758300781 0.153564453
vt 0.758300781 0.260009766
vt 0.8515625 0.260009766
vt 0.8515625 0.153442383
vt 0.861328125 0.153442383
vt 0.861328125 0.260009766
vt 0.993164062 0.153442383
vt 0.993164062 0.260009766
vt 0.840820312 0.268310547
vt 0.852539062 0.270996094
vt 0.852539062 0.268310547
vt 0.840820312 0.270996094
vt 0.852050781 0.276367188
vt 0.781738281 0.271240234
vt 0.781738281 0.268554688
vt 0.767578125 0.26953125
vt 0.841308594 0.276367188
vt 0.852539062 0.293701172
vt 0.842285156 0.294433594
vt 0.783691406 0.295166016
vt 0.78125 0.276855469
vt 0.768066406 0.273193359
vt 0.758789062 0.275390625
vt 0.768066406 0.278076172
vt 0.770507812 0.295166016
vt 0.7578125 0.279296875
vt 0.760253906 0.294677734
vt 0.992675781 0.295654297
vt 0.862792969 0.300048828
vt 0.9921875 0.30078125
vt 0.862792969 0.294921875
vt 0.852539062 0.293701172
vt 0.854980469 0.299316406
vt 0.842285156 0.294433594
vt 0.846191406 0.302734375
vt 0.783691406 0.295166016
vt 0.784667969 0.302978516
vt 0.770507812 0.295166016
vt 0.770019531 0.302490234
vt 0.759765625 0.301269531
vt 0.760253906 0.294677734
vt 0.861328125 0.0997314453
vt 0.993164062 0.0908813477
vt 0.993164062 0.0997314453
vt 0.861328125 0.0908813477
vt 0.993164062 0.0313720703
vt 0.8515625 0.0908813477
vt 0.8515625 0.0997314453
vt 0.8515625 0.0313720703
vt 0.861328125 0.0313720703
vt 0.8515625 0.0174865723
vt 0.861328125 0.0174865723
vt 0.993164062 0.0174865723
vt 0.861328125 0.00737380981
vt 0.993164062 0.00737380981
vt 0.861328125 0.0997314453
vt 0.8515625 0.108764648
vt 0.8515625 0.0997314453
vt 0.861328125 0.108825684
vt 0.993164062 0.0997314453
vt 0.993164062 0.108825684
vt 0.993164062 0.260009766
vt 0.861328125 0.260009766
vt 0.8515625 0.260009766
vt 0.8515625 0.108764648
vt 0.842285156 0.0997314453
vt 0.8515625 0.0997314453
vt 0.842285156 0.108703613
vt 0.8515625 0.260009766
vt 0.842285156 0.260009766
vt 0.782714844 0.108703613
vt 0.782714844 0.260009766
vt 0.782714844 0.0997314453
vt 0.768554688 0.260009766
vt 0.768554688 0.108703613
vt 0.758300781 0.260009766
vt 0.768554688 0.0997314453
vt 0.758300781 0.108642578
vt 0.758300781 0.0997314453
vt 0.852050781 0.276123047
vt 0.862792969 0.294433594
vt 0.852539062 0.293457031
vt 0.862792969 0.276123047
vt 0.992675781 0.295166016
vt 0.852539062 0.270751953
vt 0.993164062 0.276611328
vt 0.864257812 0.270996094
vt 0.852539062 0.268066406
vt 0.993652344 0.271484375
vt 0.864257812 0.268310547
vt 0.993652344 0.268798828
vt 0.8515625 0.260009766
vt 0.8515625 0.153442383
vt 0.842285156 0.153442383
vt 0.842285156 0.260009766
vt 0.782714844 0.153564453
vt 0.782714844 0.260009766
vt 0.768554688 0.153564453
vt 0.768554688 0.260009766
vt 0.758300781 0.153564453
vt 0.758300781 0.260009766
vt 0.861328125 0.260009766
vt 0.8515625 0.153442383
vt 0.8515625 0.260009766
vt 0.861328125 0.153442383
vt 0.993164062 0.260009766
vt 0.993164062 0.153442383
vt 0.840820312 0.267822266
vt 0.852539062 0.268066406
vt 0.852539062 0.270751953
vt 0.840820312 0.270507812
vt 0.781738281 0.268310547
vt 0.852050781 0.276123047
vt 0.781738281 0.270996094
vt 0.768554688 0.272949219
vt 0.841308594 0.275878906
vt 0.852539062 0.293457031
vt 0.842285156 0.294189453
vt 0.781738281 0.276367188
vt 0.783691406 0.294921875
vt 0.770507812 0.294921875
vt 0.768066406 0.277832031
vt 0.7578125 0.279052734
vt 0.758789062 0.274902344
vt 0.760253906 0.294189453
vt 0.992675781 0.295166016
vt 0.9921875 0.300537109
vt 0.862792969 0.299804688
vt 0.862792969 0.294433594
vt 0.852539062 0.293457031
vt 0.854980469 0.299072266
vt 0.842285156 0.294189453
vt 0.846191406 0.302490234
vt 0.783691406 0.294921875
vt 0.784667969 0.302978516
vt 0.770507812 0.302490234
vt 0.770507812 0.294921875
vt 0.759765625 0.301757812
vt 0.760253906 0.294189453
vt 0.768554688 0.272949219
vt 0.768066406 0.269042969
vt 0.781738281 0.268310547
vt 0.758789062 0.274902344
vt 0.7578125 0.269042969
vt 0.848632812 0.308349609
vt 0.853027344 0.401367188
vt 0.853027344 0.308349609
vt 0.848632812 0.401367188
vt 0.778808594 0.401367188
vt 0.778808594 0.308349609
vt 0.773925781 0.308349609
vt 0.773925781 0.401367188
vt 0.758789062 0.401367188
vt 0.758789062 0.308349609
vt 0.853027344 0.308349609
vt 0.853027344 0.401367188
vt 0.857421875 0.401367188
vt 0.857421875 0.308349609
vt 0.992675781 0.401367188
vt 0.992675781 0.308349609
vt 0.848632812 0.308349609
vt 0.853027344 0.308349609
vt 0.853027344 0.401367188
vt 0.848632812 0.401367188
vt 0.778808594 0.308349609
vt 0.778808594 0.401367188
vt 0.773925781 0.401367188
vt 0.773925781 0.308349609
vt 0.758789062 0.401367188
vt 0.758789062 0.308349609
vt 0.853027344 0.308349609
vt 0.857421875 0.401367188
vt 0.853027344 0.401367188
vt 0.857421875 0.308349609
vt 0.992675781 0.401367188
vt 0.992675781 0.308349609
vt 0.846679688 0.410400391
vt 0.846679688 0.510253906
vt 0.995605469 0.510253906
vt 0.995605469 0.410400391
vt 0.846679688 0.510253906
vt 0.846679688 0.520019531
vt 0.995605469 0.520019531
vt 0.995605469 0.510253906
vt 0.846679688 0.510253906
vt 0.846679688 0.41015625
vt 0.995605469 0.41015625
vt 0.995605469 0.510253906
vt 0.946777344 0.510253906
vt 0.846679688 0.510253906
vt 0.846679688 0.520019531
vt 0.946777344 0.520019531
vt 0.946777344 0.520019531
vt 0.846679688 0.520019531
vt 0.846679688 0.510253906
vt 0.946777344 0.510253906
vt 0.736328125 0.0325317383
vt 0.736328125 0.0161590576
vt 0.731445312 0.00811004639
vt 0.725585938 0.0315246582
vt 0.725585938 0.0670166016
vt 0.736328125 0.0659790039
vt 0.731445312 0.0903930664
vt 0.736328125 0.0823974609
vt 0.843261719 0.00839233398
vt 0.838378906 0.0164031982
vt 0.838378906 0.0328063965
vt 0.849121094 0.031829834
vt 0.838378906 0.0662231445
vt 0.849121094 0.0673217773
vt 0.843261719 0.0906982422
vt 0.838378906 0.0827026367
vt 0.7265625 0.0321960449
vt 0.732421875 0.00922393799
vt 0.737304688 0.0171203613
vt 0.737304688 0.033203125
vt 0.737304688 0.0659179688
vt 0.7265625 0.0669555664
vt 0.737304688 0.0819702148
vt 0.732421875 0.0899047852
vt 0.837402344 0.0169067383
vt 0.842285156 0.00897979736
vt 0.848144531 0.0319213867
vt 0.837402344 0.032989502
vt 0.848144531 0.0667114258
vt 0.837402344 0.0657348633
vt 0.837402344 0.0817871094
vt 0.842285156 0.0896606445
vt 0.838378906 0.0164031982
vt 0.843261719 0.00839233398
vt 0.813964844 0.00402832031
vt 0.812988281 0.0142974854
vt 0.838378906 0.0328063965
vt 0.761230469 0.00403213501
vt 0.812988281 0.0319824219
vt 0.76171875 0.0142059326
vt 0.8125 0.0667114258
vt 0.838378906 0.0662231445
vt 0.838378906 0.0827026367
vt 0.736328125 0.0161590576
vt 0.731445312 0.00811004639
vt 0.736328125 0.0325317383
vt 0.762207031 0.031829834
vt 0.736328125 0.0659790039
vt 0.762207031 0.0664672852
vt 0.736328125 0.0823974609
vt 0.812988281 0.0847167969
vt 0.843261719 0.0906982422
vt 0.813476562 0.0948486328
vt 0.76171875 0.0845947266
vt 0.731445312 0.0903930664
vt 0.761230469 0.0948486328
vt 0.837402344 0.0817871094
vt 0.842285156 0.0896606445
vt 0.813476562 0.0940551758
vt 0.8125 0.0839233398
vt 0.76171875 0.0940551758
vt 0.762207031 0.083984375
vt 0.737304688 0.0819702148
vt 0.732421875 0.0899047852
vt 0.842285156 0.00897979736
vt 0.837402344 0.0169067383
vt 0.8125 0.0149154663
vt 0.812988281 0.00486755371
vt 0.762207031 0.0149993896
vt 0.76171875 0.00486755371
vt 0.732421875 0.00922393799
vt 0.737304688 0.0171203613
vt 0.837402344 0.0657348633
vt 0.837402344 0.0817871094
vt 0.8125 0.0839233398
vt 0.8125 0.0664672852
vt 0.762207031 0.083984375
vt 0.8125 0.0322875977
vt 0.837402344 0.032989502
vt 0.837402344 0.0169067383
vt 0.8125 0.0149154663
vt 0.762207031 0.0665893555
vt 0.762207031 0.0324401855
vt 0.762207031 0.0149993896
vt 0.737304688 0.0171203613
vt 0.737304688 0.033203125
vt 0.737304688 0.0659179688
vt 0.737304688 0.0819702148
vt 0.995605469 0.510253906
vt 0.846679688 0.510253906
vt 0.846679688 0.410400391
vt 0.995605469 0.410400391
vt 0.995605469 0.520019531
vt 0.846679688 0.520019531
vt 0.846679688 0.510253906
vt 0.995605469 0.510253906
vt 0.995605469 0.41015625
vt 0.846679688 0.41015625
vt 0.846679688 0.510253906
vt 0.995605469 0.510253906
vn -0.976074219 -0.216796875 0.0205230713
vn -0.697753906 -0.161010742 0.697753906
vn -0.6875 -0.232788086 0.6875
vn -0.7734375 -0.112243652 0.623535156
vn -0.987304688 -0.157714844 0.028427124
vn -0.975585938 -0.217407227 0.0338134766
vn 0.023223877 -0.216918945 0.976074219
vn 0.697753906 -0.161010742 0.697753906
vn 0.6875 -0.232788086 0.6875
vn 0.278320312 0.955566406 0.094909668
vn 0.285400391 0.898925781 -0.331787109
vn 0.615722656 0.11541748 -0.779785156
vn 0.989746094 0.106750488 0.0948486328
vn 0.9921875 0.0932006836 0.0850830078
vn 0.283935547 0.9296875 0.233764648
vn 0.506347656 -0.017364502 0.861816406
vn 0.225097656 0.767089844 0.601074219
vn -0.444580078 -0.00148773193 -0.895507812
vn -0.460205078 0.801269531 -0.381835938
vn -0.512207031 0.858398438 -0.0222167969
vn -0.992675781 -0.0966796875 -0.0699462891
vn -0.519042969 0.851074219 0.0805664062
vn -0.991210938 -0.0949707031 -0.0922241211
vn -0.573730469 -0.119262695 0.810546875
vn -0.507324219 0.729003906 0.458984375
vn 0.989746094 0.106750488 0.0948486328
vn 0.615722656 0.11541748 -0.779785156
vn 0.428955078 -0.783203125 -0.449951172
vn 0.443115234 -0.88671875 -0.131469727
vn 0.427490234 -0.899414062 -0.0920410156
vn 0.9921875 0.0932006836 0.0850830078
vn 0.382324219 -0.878417969 0.286132812
vn 0.506347656 -0.017364502 0.861816406
vn -0.211181641 -0.841796875 -0.496337891
vn -0.444580078 -0.00148773193 -0.895507812
vn -0.992675781 -0.0966796875 -0.0699462891
vn -0.230834961 -0.962402344 -0.144042969
vn -0.991210938 -0.0949707031 -0.0922241211
vn -0.249389648 -0.966308594 -0.0610046387
vn -0.303222656 -0.8984375 0.317871094
vn -0.573730469 -0.119262695 0.810546875
vn -0.573730469 -0.119262695 0.810546875
vn -0.507324219 0.729003906 0.458984375
vn -0.168212891 0.790039062 0.58984375
vn -0.0815429688 -0.0780029297 0.993652344
vn -0.123779297 0.778320312 0.615234375
vn -0.063659668 -0.0738525391 0.995117188
vn 0.506347656 -0.017364502 0.861816406
vn 0.225097656 0.767089844 0.601074219
vn -0.460205078 0.801269531 -0.381835938
vn -0.444580078 -0.00148773193 -0.895507812
vn 0.0622253418 0.0601501465 -0.99609375
vn -0.14855957 0.904296875 -0.400390625
vn 0.0713500977 0.101135254 -0.9921875
vn -0.10748291 0.915527344 -0.387695312
vn 0.285400391 0.898925781 -0.331787109
vn 0.615722656 0.11541748 -0.779785156
vn -0.303222656 -0.8984375 0.317871094
vn -0.573730469 -0.119262695 0.810546875
vn -0.0815429688 -0.0780029297 0.993652344
vn 0.0802001953 -0.934082031 0.348388672
vn -0.063659668 -0.0738525391 0.995117188
vn 0.0959472656 -0.942871094 0.318603516
vn 0.382324219 -0.878417969 0.286132812
vn 0.506347656 -0.017364502 0.861816406
vn -0.512207031 0.858398438 -0.0222167969
vn -0.460205078 0.801269531 -0.381835938
vn -0.14855957 0.904296875 -0.400390625
vn -0.192993164 0.980957031 0.00542068481
vn -0.10748291 0.915527344 -0.387695312
vn -0.189575195 0.96875 0.161010742
vn -0.519042969 0.851074219 0.0805664062
vn -0.507324219 0.729003906 0.458984375
vn -0.168212891 0.790039062 0.58984375
vn -0.135009766 0.990234375 0.0271606445
vn -0.12878418 0.97265625 0.193603516
vn -0.123779297 0.778320312 0.615234375
vn 0.225097656 0.767089844 0.601074219
vn 0.283935547 0.9296875 0.233764648
vn 0.278320312 0.955566406 0.094909668
vn 0.285400391 0.898925781 -0.331787109
vn -0.249389648 -0.966308594 -0.0610046387
vn -0.303222656 -0.8984375 0.317871094
vn 0.0802001953 -0.934082031 0.348388672
vn 0.14855957 -0.987304688 -0.0595092773
vn 0.0959472656 -0.942871094 0.318603516
vn 0.172241211 -0.974121094 -0.145019531
vn -0.230834961 -0.962402344 -0.144042969
vn -0.211181641 -0.841796875 -0.496337891
vn 0.156860352 -0.983398438 -0.0895385742
vn 0.190551758 -0.84375 -0.501464844
vn -0.444580078 -0.00148773193 -0.895507812
vn 0.0622253418 0.0601501465 -0.99609375
vn 0.427490234 -0.899414062 -0.0920410156
vn 0.382324219 -0.878417969 0.286132812
vn 0.443115234 -0.88671875 -0.131469727
vn 0.174316406 -0.971191406 -0.161621094
vn 0.428955078 -0.783203125 -0.449951172
vn 0.187988281 -0.834472656 -0.518554688
vn 0.0713500977 0.101135254 -0.9921875
vn 0.615722656 0.11541748 -0.779785156
vn -0.0189208984 0.70703125 0.70703125
vn -0 0.70703125 0.70703125
vn -0 0.0565490723 0.998535156
vn -0.0265045166 0.0553588867 0.998046875
vn -0 -0.0204467773 1
vn -0.706542969 0.039276123 0.706542969
vn -0.577148438 0.577148438 0.577148438
vn -0.70703125 -0.0208435059 0.70703125
vn -0.0275726318 -0.0202789307 0.999511719
vn -0 -0.154296875 0.987792969
vn -0.025177002 -0.153808594 0.987792969
vn -0.697753906 -0.161010742 0.697753906
vn -0 -0.215942383 0.9765625
vn -0.6875 -0.232788086 0.6875
vn -0.023223877 -0.216918945 0.976074219
vn -0.0189208984 0.70703125 0.70703125
vn -0.577148438 0.577148438 0.577148438
vn -0.70703125 0.70703125 0.016784668
vn -0.0272369385 0.999511719 0.0241546631
vn -0 0.70703125 0.70703125
vn -0 0.999511719 0.0247192383
vn -0 1 0
vn -0.0277862549 0.999511719 0
vn -0.70703125 0.70703125 0
vn -0.70703125 0.70703125 0.016784668
vn -0.577148438 0.577148438 0.577148438
vn -0.706542969 0.039276123 0.706542969
vn -0.998046875 0.055480957 0.0235595703
vn -0.70703125 0.70703125 0
vn -0.998535156 0.0565490723 0
vn -0.999511719 -0.0202941895 0.024520874
vn -0.70703125 -0.0208435059 0.70703125
vn -1 -0.0205535889 -4.76837158E-07
vn -0.697753906 -0.161010742 0.697753906
vn -0.987792969 -0.153808594 0.0223083496
vn -0.987792969 -0.154663086 -1.37090683E-06
vn -0.976074219 -0.216796875 0.0205230713
vn -0.9765625 -0.215942383 0
vn -0.717285156 0.696777344 -0.00566101074
vn -0.678710938 0.670898438 -0.298095703
vn -0.0268554688 0.967285156 -0.253173828
vn -0.0355529785 0.999511719 -0.00670623779
vn -0 0.958007812 -0.287109375
vn -0.610351562 0.629882812 0.48046875
vn -0 1 0
vn -0.0223388672 0.925292969 0.37890625
vn -0.70703125 0.70703125 0.0238342285
vn -0 0.915527344 0.402587891
vn -0.0278167725 0.999511719 0.0194396973
vn -0 1 0.0177307129
vn -0.998535156 0.0565490723 0
vn -0.70703125 0.70703125 0.0238342285
vn -0.70703125 0.70703125 0
vn -0.998046875 0.0566101074 0.0196228027
vn -0.999511719 -0.0210876465 0.018447876
vn -1 -0.0205535889 -4.76837158E-07
vn -0.987792969 -0.154663086 -1.37090683E-06
vn -0.987304688 -0.157714844 0.028427124
vn -0.975585938 -0.217407227 0.0338134766
vn -0.9765625 -0.215942383 0
vn -0.70703125 0.70703125 0
vn -0.70703125 0.70703125 0.0238342285
vn -0.0278167725 0.999511719 0.0194396973
vn -0.0277862549 0.999511719 0
vn -0 1 0.0177307129
vn -0 1 0
vn -0.998046875 0.0566101074 0.0196228027
vn -0.610351562 0.629882812 0.48046875
vn -0.70703125 0.70703125 0.0238342285
vn -0.880859375 0.0505371094 0.471191406
vn -0.717285156 0.696777344 -0.00566101074
vn -0.874023438 -0.0109634399 0.486083984
vn -0.999511719 -0.0210876465 0.018447876
vn -0.987304688 -0.157714844 0.028427124
vn -0.998046875 0.0639038086 -0.00484085083
vn -0.678710938 0.670898438 -0.298095703
vn -0.898925781 0.0520629883 -0.435302734
vn -0.900390625 -0.0121612549 -0.434814453
vn -1 -0.00957489014 -0.00415420532
vn -0.803710938 -0.0876464844 0.588867188
vn -0.7734375 -0.112243652 0.623535156
vn -0.998046875 -0.0620422363 -0.0139389038
vn -0.893554688 -0.0982666016 -0.437988281
vn -0.99609375 -0.0787353516 -0.0405273438
vn -0.895996094 -0.130981445 -0.424072266
vn -0 0.958007812 -0.287109375
vn -0.00757980347 0.361083984 -0.932617188
vn -0 0.361328125 -0.932617188
vn -0.0268554688 0.967285156 -0.253173828
vn -0.678710938 0.670898438 -0.298095703
vn -0.196289062 0.21105957 -0.957519531
vn -0.898925781 0.0520629883 -0.435302734
vn -0.232299805 0.0142745972 -0.97265625
vn -0.900390625 -0.0121612549 -0.434814453
vn -0.23059082 -0.0142974854 -0.973144531
vn -0.893554688 -0.0982666016 -0.437988281
vn -0.22253418 -0.137451172 -0.965332031
vn -0.203491211 -0.196289062 -0.958984375
vn -0.895996094 -0.130981445 -0.424072266
vn 0.0189208984 0.70703125 0.70703125
vn -0 0.0565490723 0.998535156
vn -0 0.70703125 0.70703125
vn 0.0265045166 0.0553588867 0.998046875
vn -0 -0.0204467773 1
vn 0.706542969 0.039276123 0.706542969
vn 0.577148438 0.577148438 0.577148438
vn 0.70703125 -0.0208435059 0.70703125
vn 0.0275726318 -0.0202789307 0.999511719
vn 0.697753906 -0.161010742 0.697753906
vn 0.025177002 -0.153808594 0.987792969
vn -0 -0.154296875 0.987792969
vn 0.023223877 -0.216918945 0.976074219
vn -0 -0.215942383 0.9765625
vn 0.0189208984 0.70703125 0.70703125
vn 0.70703125 0.70703125 0.016784668
vn 0.577148438 0.577148438 0.577148438
vn 0.0272369385 0.999511719 0.0241546631
vn -0 0.70703125 0.70703125
vn -0 0.999511719 0.0247192383
vn -0 1 0
vn 0.0277862549 0.999511719 0
vn 0.70703125 0.70703125 0
vn 0.70703125 0.70703125 0.016784668
vn 0.706542969 0.039276123 0.706542969
vn 0.577148438 0.577148438 0.577148438
vn 0.998046875 0.055480957 0.0235595703
vn 0.70703125 0.70703125 0
vn 0.998535156 0.0565490723 0
vn 0.999511719 -0.0202941895 0.0245056152
vn 1 -0.0205535889 -4.76837158E-07
vn 0.70703125 -0.0208435059 0.70703125
vn 0.987792969 -0.154663086 -1.54972076E-06
vn 0.987792969 -0.153808594 0.0223083496
vn 0.9765625 -0.215942383 -1.78813934E-07
vn 0.697753906 -0.161010742 0.697753906
vn 0.976074219 -0.216796875 0.0205230713
vn 0.6875 -0.232788086 0.6875
vn 0.717285156 0.696777344 -0.00566101074
vn 0.0268554688 0.967285156 -0.253173828
vn 0.678710938 0.670898438 -0.298095703
vn 0.0355529785 0.999511719 -0.00670623779
vn -0 0.958007812 -0.287109375
vn 0.610351562 0.629882812 0.48046875
vn -0 1 0
vn 0.0223388672 0.925292969 0.37890625
vn 0.70703125 0.70703125 0.0238342285
vn -0 0.915527344 0.402587891
vn 0.0278167725 0.999511719 0.0194396973
vn -0 1 0.0177307129
vn 0.70703125 0.70703125 0
vn 0.70703125 0.70703125 0.0238342285
vn 0.998046875 0.0566101074 0.0196228027
vn 0.998535156 0.0565490723 0
vn 0.999511719 -0.0210418701 0.0189208984
vn 1 -0.0205535889 -4.76837158E-07
vn 0.986816406 -0.157836914 0.0320739746
vn 0.987792969 -0.154663086 -1.54972076E-06
vn 0.975097656 -0.217773438 0.0383300781
vn 0.9765625 -0.215942383 -1.78813934E-07
vn 0.0277862549 0.999511719 0
vn 0.70703125 0.70703125 0.0238342285
vn 0.70703125 0.70703125 0
vn 0.0278167725 0.999511719 0.0194396973
vn -0 1 0
vn -0 1 0.0177307129
vn 0.998046875 0.0566101074 0.0196228027
vn 0.70703125 0.70703125 0.0238342285
vn 0.610351562 0.629882812 0.48046875
vn 0.880859375 0.0505371094 0.471191406
vn 0.999511719 -0.0210418701 0.0189208984
vn 0.717285156 0.696777344 -0.00566101074
vn 0.871582031 -0.00690078735 0.490722656
vn 0.78515625 -0.0712890625 0.615234375
vn 0.998046875 0.0639038086 -0.00484085083
vn 0.678710938 0.670898438 -0.298095703
vn 0.898925781 0.0520629883 -0.435302734
vn 1 -0.00213432312 -0.00388145447
vn 0.898925781 -0.00688171387 -0.437744141
vn 0.890136719 -0.0759887695 -0.44921875
vn 0.999511719 -0.0356445312 -0.0120925903
vn 0.997070312 -0.0706176758 -0.0368041992
vn 0.747070312 -0.110473633 0.655761719
vn 0.887695312 -0.127197266 -0.442626953
vn -0 0.958007812 -0.287109375
vn -0 0.361328125 -0.932617188
vn 0.00757980347 0.361083984 -0.932617188
vn 0.0268554688 0.967285156 -0.253173828
vn 0.678710938 0.670898438 -0.298095703
vn 0.196289062 0.21105957 -0.957519531
vn 0.898925781 0.0520629883 -0.435302734
vn 0.232299805 0.0142745972 -0.97265625
vn 0.898925781 -0.00688171387 -0.437744141
vn 0.229248047 -0.0139923096 -0.973144531
vn 0.21081543 -0.135375977 -0.968261719
vn 0.890136719 -0.0759887695 -0.44921875
vn 0.187255859 -0.194946289 -0.962890625
vn 0.887695312 -0.127197266 -0.442626953
vn 0.78515625 -0.0712890625 0.615234375
vn 0.986816406 -0.157836914 0.0320739746
vn 0.999511719 -0.0210418701 0.0189208984
vn 0.747070312 -0.110473633 0.655761719
vn 0.975097656 -0.217773438 0.0383300781
vn -0.999023438 0.0450134277 0
vn -0.715332031 0.698730469 0
vn -0.715332031 0.698730469 0
vn -0.999023438 0.0450134277 0
vn -0.999023438 -0.0399475098 0
vn -0.999023438 -0.0399475098 0
vn -0.986816406 -0.160888672 0
vn -0.986816406 -0.160888672 0
vn -0.999023438 0.0472106934 0
vn -0.999023438 0.0472106934 0
vn -0.715332031 0.698730469 0
vn -0.715332031 0.698730469 0
vn -0.0200042725 1 0
vn -0.0200042725 1 0
vn -0 1 0
vn -0 1 0
vn 0.999023438 0.0450134277 0
vn 0.715332031 0.698730469 0
vn 0.715332031 0.698730469 0
vn 0.999023438 0.0450134277 0
vn 0.999023438 -0.0399475098 0
vn 0.999023438 -0.0399475098 0
vn 0.986816406 -0.160888672 0
vn 0.986816406 -0.160888672 0
vn 0.999023438 0.0472106934 0
vn 0.999023438 0.0472106934 0
vn 0.715332031 0.698730469 0
vn 0.0200042725 1 0
vn 0.715332031 0.698730469 0
vn 0.0200042725 1 0
vn -0 1 0
vn -0 1 0
vn -0 0 1
vn -0 0 1
vn -0 0 1
vn -0 0 1
vn -0 1 0
vn -0 1 0
vn -0 1 0
vn -0 1 0
vn -0 0 -1
vn -0 0 -1
vn -0 0 -1
vn -0 0 -1
vn 1 0 0
vn 1 0 0
vn 1 0 0
vn 1 0 0
vn -1 0 0
vn -1 0 0
vn -1 0 0
vn -1 0 0
vn 0.402099609 0.913574219 -0.0592956543
vn 0.380371094 0.828613281 -0.410400391
vn 0.514648438 -0.00391387939 -0.857421875
vn 1 -1.78813934E-07 0.0111999512
vn 1 0 -0.0111999512
vn 0.411865234 0.91015625 0.0427246094
vn 0.514648438 -0.0039100647 0.857421875
vn 0.39453125 0.809570312 0.434326172
vn -0.514648438 -0.0039100647 -0.857421875
vn -0.380371094 0.828613281 -0.410400391
vn -0.402099609 0.913574219 -0.0592956543
vn -1 0 0.0111999512
vn -0.411865234 0.91015625 0.0427246094
vn -1 0 -0.0111999512
vn -0.514648438 -0.0039100647 0.857421875
vn -0.39453125 0.809570312 0.434326172
vn 1 -1.78813934E-07 0.0111999512
vn 0.514648438 -0.00391387939 -0.857421875
vn 0.363769531 -0.835449219 -0.411865234
vn 0.363525391 -0.930664062 -0.0431213379
vn 0.363525391 -0.930664062 0.0431213379
vn 1 0 -0.0111999512
vn 0.363769531 -0.835449219 0.411865234
vn 0.514648438 -0.0039100647 0.857421875
vn -0.363769531 -0.835449219 -0.411865234
vn -0.514648438 -0.0039100647 -0.857421875
vn -1 0 0.0111999512
vn -0.363525391 -0.930664062 -0.0431213379
vn -1 0 -0.0111999512
vn -0.363525391 -0.930664062 0.0431213379
vn -0.363769531 -0.835449219 0.411865234
vn -0.514648438 -0.0039100647 0.857421875
vn -0.380371094 0.828613281 -0.410400391
vn -0.514648438 -0.0039100647 -0.857421875
vn -0.00870513916 0.00139808655 -1
vn -0.0140304565 0.891113281 -0.453369141
vn -0.402099609 0.913574219 -0.0592956543
vn 0.00870513916 0.00139808655 -1
vn -0.0240783691 0.99609375 -0.0855712891
vn 0.0140304565 0.891113281 -0.453369141
vn -0.0284881592 0.998046875 0.0525512695
vn -0.411865234 0.91015625 0.0427246094
vn -0.39453125 0.809570312 0.434326172
vn 0.380371094 0.828613281 -0.410400391
vn 0.514648438 -0.00391387939 -0.857421875
vn 0.402099609 0.913574219 -0.0592956543
vn 0.0240783691 0.99609375 -0.0855712891
vn 0.411865234 0.91015625 0.0427246094
vn 0.0284881592 0.998046875 0.0525512695
vn 0.39453125 0.809570312 0.434326172
vn -0.0226135254 0.862792969 0.504882812
vn -0.514648438 -0.0039100647 0.857421875
vn -0.00870513916 0.00139808655 1
vn 0.0226135254 0.862792969 0.504882812
vn 0.514648438 -0.0039100647 0.857421875
vn 0.00870513916 0.00139808655 1
vn -0.363769531 -0.835449219 0.411865234
vn -0.514648438 -0.0039100647 0.857421875
vn -0.00870513916 0.00139808655 1
vn -0.00638198853 -0.890136719 0.455566406
vn 0.00870513916 0.00139808655 1
vn 0.00638198853 -0.890136719 0.455566406
vn 0.363769531 -0.835449219 0.411865234
vn 0.514648438 -0.0039100647 0.857421875
vn -0.514648438 -0.0039100647 -0.857421875
vn -0.363769531 -0.835449219 -0.411865234
vn -0.00638198853 -0.890136719 -0.455566406
vn -0.00870513916 0.00139808655 -1
vn 0.00638198853 -0.890136719 -0.455566406
vn 0.00870513916 0.00139808655 -1
vn 0.514648438 -0.00391387939 -0.857421875
vn 0.363769531 -0.835449219 -0.411865234
vn -0.363525391 -0.930664062 0.0431213379
vn -0.363769531 -0.835449219 0.411865234
vn -0.00638198853 -0.890136719 0.455566406
vn -0.00667190552 -0.998535156 0.0529785156
vn 0.00638198853 -0.890136719 0.455566406
vn -0.00667190552 -0.998535156 -0.0529785156
vn -0.363525391 -0.930664062 -0.0431213379
vn -0.363769531 -0.835449219 -0.411865234
vn -0.00638198853 -0.890136719 -0.455566406
vn 0.00667190552 -0.998535156 0.0529785156
vn 0.00667190552 -0.998535156 -0.0529785156
vn 0.00638198853 -0.890136719 -0.455566406
vn 0.363769531 -0.835449219 -0.411865234
vn 0.363525391 -0.930664062 -0.0431213379
vn 0.363525391 -0.930664062 0.0431213379
vn 0.363769531 -0.835449219 0.411865234
vn -0 0 1
vn -0 0 1
vn -0 0 1
vn -0 0 1
vn -0 1 0
vn -0 1 0
vn -0 1 0
vn -0 1 0
vn -0 0 -1
vn -0 0 -1
vn -0 0 -1
vn -0 0 -1
g RodRoom_Bed_0
f 3/3/3 2/2/2 1/1/1
f 6/6/6 5/5/5 4/4/4
f 9/9/9 8/8/8 7/7/7
f 12/12/12 11/11/11 10/10/10
f 13/13/13 12/12/12 10/10/10
f 14/14/14 13/13/13 10/10/10
f 15/15/15 14/14/14 10/10/10
f 14/14/14 15/15/15 16/16/16
f 15/15/15 17/17/17 16/16/16
f 20/20/20 19/19/19 18/18/18
f 21/21/21 20/20/20 18/18/18
f 20/20/20 21/21/21 22/22/22
f 21/21/21 23/23/23 22/22/22
f 23/23/23 24/24/24 22/22/22
f 24/24/24 25/25/25 22/22/22
f 28/28/28 27/27/27 26/26/26
f 29/29/29 28/28/28 26/26/26
f 30/30/30 29/29/29 26/26/26
f 31/31/31 30/30/30 26/26/26
f 30/30/30 31/31/31 32/32/32
f 31/31/31 33/33/33 32/32/32
f 36/36/36 35/35/35 34/34/34
f 37/37/37 36/36/36 34/34/34
f 38/38/38 36/36/36 37/37/37
f 39/39/39 38/38/38 37/37/37
f 39/39/39 40/40/40 38/38/38
f 40/40/40 41/41/41 38/38/38
f 44/44/44 43/43/43 42/42/42
f 45/45/45 44/44/44 42/42/42
f 46/46/46 44/44/44 45/45/45
f 47/47/47 46/46/46 45/45/45
f 47/47/47 48/48/48 46/46/46
f 48/48/48 49/49/49 46/46/46
f 52/52/52 51/51/51 50/50/50
f 53/53/53 52/52/52 50/50/50
f 54/54/54 52/52/52 53/53/53
f 55/55/55 54/54/54 53/53/53
f 55/55/55 56/56/56 54/54/54
f 56/56/56 57/57/57 54/54/54
f 60/60/60 59/59/59 58/58/58
f 61/61/61 60/60/60 58/58/58
f 62/62/62 60/60/60 61/61/61
f 63/63/63 62/62/62 61/61/61
f 63/63/63 64/64/64 62/62/62
f 64/64/64 65/65/65 62/62/62
f 68/68/68 67/67/67 66/66/66
f 69/69/69 68/68/68 66/66/66
f 68/68/68 69/69/69 70/70/70
f 71/71/71 69/69/69 66/66/66
f 72/72/72 71/71/71 66/66/66
f 71/71/71 72/72/72 73/73/73
f 74/74/74 71/71/71 73/73/73
f 69/69/69 75/75/75 70/70/70
f 75/75/75 69/69/69 71/71/71
f 76/76/76 71/71/71 74/74/74
f 76/76/76 75/75/75 71/71/71
f 77/77/77 76/76/76 74/74/74
f 77/77/77 78/78/78 76/76/76
f 78/78/78 79/79/79 76/76/76
f 76/76/76 79/79/79 75/75/75
f 79/79/79 80/80/80 75/75/75
f 75/75/75 80/80/80 70/70/70
f 80/80/80 81/81/81 70/70/70
f 84/84/84 83/83/83 82/82/82
f 85/85/85 84/84/84 82/82/82
f 84/84/84 85/85/85 86/86/86
f 85/85/85 82/82/82 87/87/87
f 82/82/82 88/88/88 87/87/87
f 87/87/87 88/88/88 89/89/89
f 85/85/85 90/90/90 86/86/86
f 90/90/90 85/85/85 87/87/87
f 91/91/91 87/87/87 89/89/89
f 91/91/91 89/89/89 92/92/92
f 93/93/93 91/91/91 92/92/92
f 90/90/90 94/94/94 86/86/86
f 94/94/94 95/95/95 86/86/86
f 94/94/94 90/90/90 96/96/96
f 97/97/97 90/90/90 87/87/87
f 90/90/90 97/97/97 96/96/96
f 97/97/97 87/87/87 91/91/91
f 98/98/98 96/96/96 97/97/97
f 99/99/99 91/91/91 93/93/93
f 99/99/99 97/97/97 91/91/91
f 99/99/99 98/98/98 97/97/97
f 100/100/100 99/99/99 93/93/93
f 101/101/101 98/98/98 99/99/99
f 100/100/100 101/101/101 99/99/99
f 104/104/104 103/103/103 102/102/102
f 105/105/105 104/104/104 102/102/102
f 106/106/106 104/104/104 105/105/105
f 105/105/105 102/102/102 107/107/107
f 102/102/102 108/108/108 107/107/107
f 107/107/107 109/109/109 105/105/105
f 110/110/110 106/106/106 105/105/105
f 109/109/109 110/110/110 105/105/105
f 106/106/106 110/110/110 111/111/111
f 110/110/110 109/109/109 112/112/112
f 110/110/110 112/112/112 111/111/111
f 109/109/109 113/113/113 112/112/112
f 114/114/114 111/111/111 112/112/112
f 112/112/112 113/113/113 115/115/115
f 116/116/116 114/114/114 112/112/112
f 116/116/116 112/112/112 115/115/115
f 119/119/119 118/118/118 117/117/117
f 120/120/120 119/119/119 117/117/117
f 117/117/117 121/121/121 120/120/120
f 121/121/121 122/122/122 120/120/120
f 122/122/122 123/123/123 120/120/120
f 123/123/123 124/124/124 120/120/120
f 120/120/120 124/124/124 119/119/119
f 124/124/124 125/125/125 119/119/119
f 128/128/128 127/127/127 126/126/126
f 129/129/129 128/128/128 126/126/126
f 126/126/126 130/130/130 129/129/129
f 130/130/130 131/131/131 129/129/129
f 129/129/129 132/132/132 128/128/128
f 132/132/132 129/129/129 131/131/131
f 132/132/132 133/133/133 128/128/128
f 134/134/134 132/132/132 131/131/131
f 133/133/133 132/132/132 135/135/135
f 132/132/132 134/134/134 136/136/136
f 132/132/132 136/136/136 135/135/135
f 134/134/134 137/137/137 136/136/136
f 135/135/135 136/136/136 138/138/138
f 138/138/138 136/136/136 137/137/137
f 139/139/139 138/138/138 137/137/137
f 142/142/142 141/141/141 140/140/140
f 143/143/143 142/142/142 140/140/140
f 144/144/144 142/142/142 143/143/143
f 143/143/143 140/140/140 145/145/145
f 146/146/146 144/144/144 143/143/143
f 147/147/147 143/143/143 145/145/145
f 146/146/146 143/143/143 147/147/147
f 147/147/147 145/145/145 148/148/148
f 149/149/149 146/146/146 147/147/147
f 150/150/150 147/147/147 148/148/148
f 149/149/149 147/147/147 150/150/150
f 151/151/151 149/149/149 150/150/150
f 154/154/154 153/153/153 152/152/152
f 153/153/153 155/155/155 152/152/152
f 152/152/152 155/155/155 156/156/156
f 157/157/157 152/152/152 156/156/156
f 157/157/157 156/156/156 158/158/158
f 156/156/156 159/159/159 158/158/158
f 158/158/158 159/159/159 160/160/160
f 161/161/161 158/158/158 160/160/160
f 164/164/164 163/163/163 162/162/162
f 165/165/165 164/164/164 162/162/162
f 166/166/166 164/164/164 165/165/165
f 167/167/167 166/166/166 165/165/165
f 170/170/170 169/169/169 168/168/168
f 169/169/169 171/171/171 168/168/168
f 169/169/169 172/172/172 171/171/171
f 168/168/168 171/171/171 173/173/173
f 174/174/174 168/168/168 173/173/173
f 174/174/174 173/173/173 175/175/175
f 172/172/172 176/176/176 171/171/171
f 172/172/172 177/177/177 176/176/176
f 177/177/177 178/178/178 176/176/176
f 176/176/176 178/178/178 179/179/179
f 171/171/171 176/176/176 180/180/180
f 173/173/173 171/171/171 180/180/180
f 180/180/180 176/176/176 179/179/179
f 173/173/173 181/181/181 175/175/175
f 173/173/173 180/180/180 181/181/181
f 175/175/175 181/181/181 182/182/182
f 180/180/180 179/179/179 183/183/183
f 180/180/180 183/183/183 181/181/181
f 182/182/182 181/181/181 183/183/183
f 179/179/179 184/184/184 183/183/183
f 185/185/185 182/182/182 183/183/183
f 183/183/183 184/184/184 186/186/186
f 185/185/185 183/183/183 186/186/186
f 189/189/189 188/188/188 187/187/187
f 188/188/188 190/190/190 187/187/187
f 191/191/191 190/190/190 188/188/188
f 192/192/192 191/191/191 188/188/188
f 193/193/193 191/191/191 192/192/192
f 194/194/194 193/193/193 192/192/192
f 195/195/195 193/193/193 194/194/194
f 196/196/196 195/195/195 194/194/194
f 195/195/195 196/196/196 197/197/197
f 196/196/196 198/198/198 197/197/197
f 198/198/198 199/199/199 197/197/197
f 199/199/199 200/200/200 197/197/197
f 203/203/203 202/202/202 201/201/201
f 202/202/202 204/204/204 201/201/201
f 202/202/202 205/205/205 204/204/204
f 201/201/201 204/204/204 206/206/206
f 207/207/207 201/201/201 206/206/206
f 208/208/208 206/206/206 204/204/204
f 209/209/209 208/208/208 204/204/204
f 205/205/205 209/209/209 204/204/204
f 208/208/208 209/209/209 210/210/210
f 209/209/209 205/205/205 211/211/211
f 209/209/209 211/211/211 210/210/210
f 205/205/205 212/212/212 211/211/211
f 210/210/210 211/211/211 213/213/213
f 213/213/213 211/211/211 212/212/212
f 214/214/214 213/213/213 212/212/212
f 217/217/217 216/216/216 215/215/215
f 216/216/216 218/218/218 215/215/215
f 219/219/219 215/215/215 218/218/218
f 220/220/220 219/219/219 218/218/218
f 221/221/221 220/220/220 218/218/218
f 222/222/222 221/221/221 218/218/218
f 222/222/222 218/218/218 216/216/216
f 223/223/223 222/222/222 216/216/216
f 226/226/226 225/225/225 224/224/224
f 225/225/225 227/227/227 224/224/224
f 228/228/228 224/224/224 227/227/227
f 229/229/229 228/228/228 227/227/227
f 230/230/230 227/227/227 225/225/225
f 229/229/229 227/227/227 230/230/230
f 231/231/231 229/229/229 230/230/230
f 232/232/232 230/230/230 225/225/225
f 231/231/231 230/230/230 233/233/233
f 230/230/230 232/232/232 234/234/234
f 230/230/230 234/234/234 233/233/233
f 235/235/235 233/233/233 234/234/234
f 232/232/232 236/236/236 234/234/234
f 237/237/237 235/235/235 234/234/234
f 237/237/237 234/234/234 236/236/236
f 238/238/238 237/237/237 236/236/236
f 241/241/241 240/240/240 239/239/239
f 240/240/240 242/242/242 239/239/239
f 240/240/240 243/243/243 242/242/242
f 239/239/239 242/242/242 244/244/244
f 243/243/243 245/245/245 242/242/242
f 242/242/242 246/246/246 244/244/244
f 242/242/242 245/245/245 246/246/246
f 244/244/244 246/246/246 247/247/247
f 245/245/245 248/248/248 246/246/246
f 246/246/246 249/249/249 247/247/247
f 246/246/246 248/248/248 249/249/249
f 248/248/248 250/250/250 249/249/249
f 253/253/253 252/252/252 251/251/251
f 254/254/254 253/253/253 251/251/251
f 255/255/255 253/253/253 254/254/254
f 256/256/256 255/255/255 254/254/254
f 255/255/255 256/256/256 257/257/257
f 256/256/256 258/258/258 257/257/257
f 259/259/259 257/257/257 258/258/258
f 260/260/260 259/259/259 258/258/258
f 263/263/263 262/262/262 261/261/261
f 262/262/262 264/264/264 261/261/261
f 261/261/261 264/264/264 265/265/265
f 264/264/264 266/266/266 265/265/265
f 269/269/269 268/268/268 267/267/267
f 270/270/270 269/269/269 267/267/267
f 270/270/270 267/267/267 271/271/271
f 272/272/272 269/269/269 270/270/270
f 273/273/273 270/270/270 271/271/271
f 273/273/273 271/271/271 274/274/274
f 275/275/275 272/272/272 270/270/270
f 275/275/275 270/270/270 273/273/273
f 276/276/276 272/272/272 275/275/275
f 277/277/277 276/276/276 275/275/275
f 277/277/277 275/275/275 278/278/278
f 278/278/278 275/275/275 273/273/273
f 279/279/279 277/277/277 278/278/278
f 279/279/279 278/278/278 280/280/280
f 278/278/278 273/273/273 281/281/281
f 273/273/273 274/274/274 281/281/281
f 278/278/278 281/281/281 280/280/280
f 282/282/282 281/281/281 274/274/274
f 280/280/280 281/281/281 282/282/282
f 283/283/283 282/282/282 274/274/274
f 284/284/284 280/280/280 282/282/282
f 287/287/287 286/286/286 285/285/285
f 288/288/288 287/287/287 285/285/285
f 288/288/288 289/289/289 287/287/287
f 289/289/289 290/290/290 287/287/287
f 289/289/289 291/291/291 290/290/290
f 291/291/291 292/292/292 290/290/290
f 291/291/291 293/293/293 292/292/292
f 293/293/293 294/294/294 292/292/292
f 294/294/294 293/293/293 295/295/295
f 293/293/293 296/296/296 295/295/295
f 297/297/297 295/295/295 296/296/296
f 298/298/298 297/297/297 296/296/296
f 301/301/301 300/300/300 299/299/299
f 302/302/302 299/299/299 300/300/300
f 303/303/303 302/302/302 300/300/300
f 306/306/306 305/305/305 304/304/304
f 305/305/305 307/307/307 304/304/304
f 304/304/304 307/307/307 308/308/308
f 309/309/309 304/304/304 308/308/308
f 310/310/310 309/309/309 308/308/308
f 311/311/311 310/310/310 308/308/308
f 310/310/310 311/311/311 312/312/312
f 313/313/313 310/310/310 312/312/312
f 316/316/316 315/315/315 314/314/314
f 317/317/317 316/316/316 314/314/314
f 318/318/318 316/316/316 317/317/317
f 319/319/319 318/318/318 317/317/317
f 322/322/322 321/321/321 320/320/320
f 323/323/323 322/322/322 320/320/320
f 323/323/323 320/320/320 324/324/324
f 325/325/325 323/323/323 324/324/324
f 325/325/325 324/324/324 326/326/326
f 324/324/324 327/327/327 326/326/326
f 326/326/326 327/327/327 328/328/328
f 327/327/327 329/329/329 328/328/328
f 332/332/332 331/331/331 330/330/330
f 331/331/331 333/333/333 330/330/330
f 331/331/331 334/334/334 333/333/333
f 334/334/334 335/335/335 333/333/333
f 338/338/338 337/337/337 336/336/336
f 339/339/339 338/338/338 336/336/336
f 342/342/342 341/341/341 340/340/340
f 343/343/343 342/342/342 340/340/340
f 346/346/346 345/345/345 344/344/344
f 347/347/347 346/346/346 344/344/344
f 350/350/350 349/349/349 348/348/348
f 351/351/351 350/350/350 348/348/348
f 354/354/354 353/353/353 352/352/352
f 355/355/355 354/354/354 352/352/352
f 358/358/358 357/357/357 356/356/356
f 359/359/359 358/358/358 356/356/356
f 360/360/360 359/359/359 356/356/356
f 361/361/361 360/360/360 356/356/356
f 360/360/360 361/361/361 362/362/362
f 361/361/361 363/363/363 362/362/362
f 366/366/366 365/365/365 364/364/364
f 367/367/367 366/366/366 364/364/364
f 366/366/366 367/367/367 368/368/368
f 367/367/367 369/369/369 368/368/368
f 369/369/369 370/370/370 368/368/368
f 370/370/370 371/371/371 368/368/368
f 374/374/374 373/373/373 372/372/372
f 375/375/375 374/374/374 372/372/372
f 376/376/376 375/375/375 372/372/372
f 377/377/377 376/376/376 372/372/372
f 376/376/376 377/377/377 378/378/378
f 377/377/377 379/379/379 378/378/378
f 382/382/382 381/381/381 380/380/380
f 383/383/383 382/382/382 380/380/380
f 384/384/384 382/382/382 383/383/383
f 385/385/385 384/384/384 383/383/383
f 385/385/385 386/386/386 384/384/384
f 386/386/386 387/387/387 384/384/384
f 390/390/390 389/389/389 388/388/388
f 391/391/391 390/390/390 388/388/388
f 391/391/391 388/388/388 392/392/392
f 393/393/393 390/390/390 391/391/391
f 394/394/394 391/391/391 392/392/392
f 395/395/395 393/393/393 391/391/391
f 391/391/391 394/394/394 395/395/395
f 396/396/396 394/394/394 392/392/392
f 397/397/397 396/396/396 392/392/392
f 396/396/396 397/397/397 398/398/398
f 395/395/395 399/399/399 393/393/393
f 399/399/399 400/400/400 393/393/393
f 401/401/401 399/399/399 395/395/395
f 394/394/394 402/402/402 395/395/395
f 402/402/402 401/401/401 395/395/395
f 402/402/402 394/394/394 396/396/396
f 403/403/403 401/401/401 402/402/402
f 404/404/404 403/403/403 402/402/402
f 404/404/404 402/402/402 396/396/396
f 405/405/405 403/403/403 404/404/404
f 406/406/406 396/396/396 398/398/398
f 404/404/404 396/396/396 406/406/406
f 406/406/406 398/398/398 407/407/407
f 408/408/408 406/406/406 407/407/407
f 409/409/409 405/405/405 404/404/404
f 409/409/409 404/404/404 406/406/406
f 409/409/409 406/406/406 408/408/408
f 410/410/410 405/405/405 409/409/409
f 411/411/411 409/409/409 408/408/408
f 411/411/411 410/410/410 409/409/409
f 414/414/414 413/413/413 412/412/412
f 415/415/415 414/414/414 412/412/412
f 416/416/416 414/414/414 415/415/415
f 417/417/417 416/416/416 415/415/415
f 417/417/417 418/418/418 416/416/416
f 418/418/418 419/419/419 416/416/416
f 422/422/422 421/421/421 420/420/420
f 423/423/423 422/422/422 420/420/420
f 424/424/424 422/422/422 423/423/423
f 425/425/425 424/424/424 423/423/423
f 425/425/425 426/426/426 424/424/424
f 426/426/426 427/427/427 424/424/424
f 430/430/430 429/429/429 428/428/428
f 431/431/431 430/430/430 428/428/428
f 430/430/430 431/431/431 432/432/432
f 431/431/431 428/428/428 433/433/433
f 428/428/428 434/434/434 433/433/433
f 433/433/433 434/434/434 435/435/435
f 436/436/436 433/433/433 435/435/435
f 431/431/431 437/437/437 432/432/432
f 437/437/437 431/431/431 433/433/433
f 438/438/438 433/433/433 436/436/436
f 438/438/438 437/437/437 433/433/433
f 439/439/439 438/438/438 436/436/436
f 439/439/439 440/440/440 438/438/438
f 440/440/440 441/441/441 438/438/438
f 437/437/437 438/438/438 441/441/441
f 442/442/442 437/437/437 441/441/441
f 437/437/437 442/442/442 432/432/432
f 442/442/442 443/443/443 432/432/432
f 446/446/446 445/445/445 444/444/444
f 447/447/447 446/446/446 444/444/444
f 450/450/450 449/449/449 448/448/448
f 451/451/451 450/450/450 448/448/448
f 454/454/454 453/453/453 452/452/452
f 455/455/455 454/454/454 452/452/452
