g Wall_Hidroelectric_Plant_Exterior_5
v 9.02869987 7.33835125 11.9009161
v 9.02869034 8.42135334 7.63348675
v 9.02869987 7.33835125 7.67068148
v 9.02869987 8.32292271 -9.870821
v 9.02869987 7.33835125 -13.7503948
v 9.02870941 7.33835125 -9.87082863
v 9.02869034 8.42135334 7.63348675
v 9.02869987 9.4412384 3.6147635
v 9.02870941 7.33835125 3.58619642
v 9.02869987 7.33835125 7.67068148
v 9.02869987 9.46855354 -5.35660744
v 9.02869987 8.32292271 -9.870821
v 9.02870941 7.33835125 -9.87082863
v 9.02870941 7.33835125 -5.36350203
v 9.02869987 9.4412384 3.6147635
v 9.02869987 10.4761066 -0.462999076
v 9.02870941 7.33835125 -0.503281057
v 9.02870941 7.33835125 3.58619642
v 9.02869987 9.46855354 -5.35660744
v 9.02870941 7.33835125 -5.36350203
v 9.02870941 7.33835125 -0.503281057
v 9.02869987 10.4761066 -0.462999076
v 9.02869987 10.4761066 -1.38648057
vt 0.069519043 0.369384766
vt 0.364013672 0.458007812
vt 0.364013672 0.369384766
vt 0.069519043 0.449707031
vt 0.364013672 0.369384766
vt 0.069519043 0.369384766
vt 0.069519043 0.458007812
vt 0.364013672 0.543945312
vt 0.364013672 0.369384766
vt 0.069519043 0.369384766
vt 0.069519043 0.546386719
vt 0.364013672 0.449707031
vt 0.364013672 0.369384766
vt 0.069519043 0.369384766
vt 0.069519043 0.543945312
vt 0.364013672 0.631347656
vt 0.364013672 0.369384766
vt 0.069519043 0.369384766
vt 0.364013672 0.546386719
vt 0.364013672 0.369384766
vt 0.069519043 0.369384766
vt 0.069519043 0.631347656
vt 0.11730957 0.631347656
vn 1 1.090765E-05 0
vn 1 6.7949295E-06 2.56299973E-06
vn 1 7.21216202E-06 2.32458115E-06
vn 1 8.10623169E-06 -1.07288361E-06
vn 1 1.31130219E-05 -2.50339508E-06
vn 1 8.40425491E-06 -1.1920929E-06
vn 1 6.7949295E-06 2.56299973E-06
vn 1 4.23192978E-06 1.31130219E-06
vn 1 4.35113907E-06 1.49011612E-06
vn 1 7.21216202E-06 2.32458115E-06
vn 1 3.81469727E-06 -4.76837158E-07
vn 1 8.10623169E-06 -1.07288361E-06
vn 1 8.40425491E-06 -1.1920929E-06
vn 1 4.17232513E-06 -5.36441803E-07
vn 1 4.23192978E-06 1.31130219E-06
vn 1 2.98023224E-06 0
vn 1 2.98023224E-06 0
vn 1 4.35113907E-06 1.49011612E-06
vn 1 3.81469727E-06 -4.76837158E-07
vn 1 4.17232513E-06 -5.36441803E-07
vn 1 2.98023224E-06 0
vn 1 2.98023224E-06 0
vn 1 2.56299973E-06 -3.57627869E-07
g Wall_Hidroelectric_Plant_Exterior_5_0
f 3/3/3 2/2/2 1/1/1
f 6/6/6 5/5/5 4/4/4
f 9/9/9 8/8/8 7/7/7
f 10/10/10 9/9/9 7/7/7
f 13/13/13 12/12/12 11/11/11
f 14/14/14 13/13/13 11/11/11
f 17/17/17 16/16/16 15/15/15
f 18/18/18 17/17/17 15/15/15
f 21/21/21 20/20/20 19/19/19
f 19/19/19 22/22/22 21/21/21
f 19/19/19 23/23/23 22/22/22
