g Runway_Column
v -0.218870848 1.39983177 0.21661742
v 0.218870848 1.39983177 0.21661742
v 0.218870848 1.3553704 0.21661742
v -0.218870848 1.3553704 0.21661742
v -0.218870848 1.3553704 -0.21661742
v 0.218870848 1.3553704 -0.21661742
v 0.218870848 1.40394402 -0.21661742
v -0.218870848 1.40394402 -0.21661742
v -0.218870848 1.40394402 -0.21661742
v 0.218870848 1.40394402 -0.21661742
v 0.218870848 1.39983177 0.21661742
v -0.218870848 1.39983177 0.21661742
v 0.218870848 1.39983177 0.21661742
v 0.218870848 1.40394402 -0.21661742
v 0.218870848 1.3553704 -0.21661742
v 0.218870848 1.3553704 0.21661742
v -0.218870848 1.40394402 -0.21661742
v -0.218870848 1.39983177 0.21661742
v -0.218870848 1.3553704 0.21661742
v -0.218870848 1.3553704 -0.21661742
v -0.0996228009 1.3553704 0.0985974073
v 0.0996228009 1.3553704 0.0985974073
v 0.0996228009 0.00862457231 0.0985974073
v -0.0996228009 0.00862457231 0.0985974073
v 0.0996228009 1.3553704 0.0985974073
v 0.0996228009 1.3553704 -0.098594971
v 0.0996228009 0.00862457231 -0.098594971
v 0.0996228009 0.00862457231 0.0985974073
v 0.0996228009 1.3553704 -0.098594971
v -0.0996228009 1.3553704 -0.098594971
v -0.0996228009 0.00862457231 -0.098594971
v 0.0996228009 0.00862457231 -0.098594971
v -0.0996228009 1.3553704 -0.098594971
v -0.0996228009 1.3553704 0.0985974073
v -0.0996228009 0.00862457231 0.0985974073
v -0.0996228009 0.00862457231 -0.098594971
v -0.218870848 -1.39983177 0.21661742
v -0.218870848 -1.3553704 0.21661742
v 0.218870848 -1.3553704 0.21661742
v 0.218870848 -1.39983177 0.21661742
v -0.218870848 -1.3553704 -0.21661742
v -0.218870848 -1.40394402 -0.21661742
v 0.218870848 -1.40394402 -0.21661742
v 0.218870848 -1.3553704 -0.21661742
v -0.218870848 -1.40394402 -0.21661742
v -0.218870848 -1.39983177 0.21661742
v 0.218870848 -1.39983177 0.21661742
v 0.218870848 -1.40394402 -0.21661742
v 0.218870848 -1.39983177 0.21661742
v 0.218870848 -1.3553704 0.21661742
v 0.218870848 -1.3553704 -0.21661742
v 0.218870848 -1.40394402 -0.21661742
v -0.218870848 -1.40394402 -0.21661742
v -0.218870848 -1.3553704 -0.21661742
v -0.218870848 -1.3553704 0.21661742
v -0.218870848 -1.39983177 0.21661742
v -0.0996228009 -1.3553704 0.0985974073
v -0.0996228009 0.00862426776 0.0985974073
v 0.0996228009 0.00862426776 0.0985974073
v 0.0996228009 -1.3553704 0.0985974073
v 0.0996228009 -1.3553704 0.0985974073
v 0.0996228009 0.00862426776 0.0985974073
v 0.0996228009 0.00862426776 -0.098594971
v 0.0996228009 -1.3553704 -0.098594971
v 0.0996228009 -1.3553704 -0.098594971
v 0.0996228009 0.00862426776 -0.098594971
v -0.0996228009 0.00862426776 -0.098594971
v -0.0996228009 -1.3553704 -0.098594971
v -0.0996228009 -1.3553704 -0.098594971
v -0.0996228009 0.00862426776 -0.098594971
v -0.0996228009 0.00862426776 0.0985974073
v -0.0996228009 -1.3553704 0.0985974073
v 0.218870848 -1.3553704 -0.21661742
v -0.0996228009 -1.3553704 -0.098594971
v -0.218870848 -1.3553704 -0.21661742
v 0.0996228009 -1.3553704 -0.098594971
v -0.0996228009 -1.3553704 0.0985974073
v 0.218870848 -1.3553704 0.21661742
v -0.218870848 -1.3553704 0.21661742
v 0.0996228009 -1.3553704 0.0985974073
v 0.218870848 1.3553704 -0.21661742
v -0.218870848 1.3553704 -0.21661742
v -0.0996228009 1.3553704 -0.098594971
v 0.0996228009 1.3553704 -0.098594971
v -0.0996228009 1.3553704 0.0985974073
v 0.218870848 1.3553704 0.21661742
v -0.218870848 1.3553704 0.21661742
v 0.0996228009 1.3553704 0.0985974073
vt 0.0593566895 0.608398438
vt 0.0593566895 0.537597656
vt 0.0531311035 0.537597656
vt 0.0531311035 0.608398438
vt 0.0593566895 0.608398438
vt 0.0593566895 0.537597656
vt 0.0531311035 0.537597656
vt 0.0531311035 0.608398438
vt 0.341064453 0.848632812
vt 0.341064453 0.786621094
vt 0.390380859 0.786621094
vt 0.390380859 0.848632812
vt 0.0593566895 0.608398438
vt 0.0593566895 0.537597656
vt 0.0531311035 0.537597656
vt 0.0531311035 0.608398438
vt 0.0593566895 0.608398438
vt 0.0593566895 0.537597656
vt 0.0531311035 0.537597656
vt 0.0531311035 0.608398438
vt 0.0129318237 0.470214844
vt 0.0629882812 0.470214844
vt 0.0629882812 0.935546875
vt 0.0129318237 0.935546875
vt 0.0129318237 0.470214844
vt 0.0629882812 0.470214844
vt 0.0629882812 0.935546875
vt 0.0129318237 0.935546875
vt 0.0629882812 0.935546875
vt 0.0129318237 0.935546875
vt 0.0129318237 0.470214844
vt 0.0629882812 0.470214844
vt 0.0129318237 0.470214844
vt 0.0629882812 0.470214844
vt 0.0629882812 0.935546875
vt 0.0129318237 0.935546875
vt 0.0593566895 0.608398438
vt 0.0531311035 0.608398438
vt 0.0531311035 0.537597656
vt 0.0593566895 0.537597656
vt 0.0593566895 0.608398438
vt 0.0531311035 0.608398438
vt 0.0531311035 0.537597656
vt 0.0593566895 0.537597656
vt 0.341064453 0.848632812
vt 0.390380859 0.848632812
vt 0.390380859 0.786621094
vt 0.341064453 0.786621094
vt 0.0593566895 0.608398438
vt 0.0531311035 0.608398438
vt 0.0531311035 0.537597656
vt 0.0593566895 0.537597656
vt 0.0593566895 0.608398438
vt 0.0531311035 0.608398438
vt 0.0531311035 0.537597656
vt 0.0593566895 0.537597656
vt 0.0129318237 0.470214844
vt 0.0129318237 0.935546875
vt 0.0629882812 0.935546875
vt 0.0629882812 0.470214844
vt 0.0129318237 0.470214844
vt 0.0129318237 0.935546875
vt 0.0629882812 0.935546875
vt 0.0629882812 0.470214844
vt 0.0629882812 0.935546875
vt 0.0629882812 0.470214844
vt 0.0129318237 0.470214844
vt 0.0129318237 0.935546875
vt 0.0129318237 0.470214844
vt 0.0129318237 0.935546875
vt 0.0629882812 0.935546875
vt 0.0629882812 0.470214844
vt 0.390136719 0.786621094
vt 0.376708984 0.83203125
vt 0.390136719 0.848632812
vt 0.376708984 0.803710938
vt 0.354248047 0.83203125
vt 0.340820312 0.786621094
vt 0.340820312 0.848632812
vt 0.354248047 0.803710938
vt 0.390136719 0.786621094
vt 0.390136719 0.848632812
vt 0.376708984 0.83203125
vt 0.376708984 0.803710938
vt 0.354248047 0.83203125
vt 0.340820312 0.786621094
vt 0.340820312 0.848632812
vt 0.354248047 0.803710938
vn -0 0 1
vn -0 0 1
vn -0 0 1
vn -0 0 1
vn -0 0 -1
vn -0 0 -1
vn -0 0 -1
vn -0 0 -1
vn -0 1 0
vn -0 1 0
vn -0 1 0
vn -0 1 0
vn 1 0 0
vn 1 0 0
vn 1 0 0
vn 1 0 0
vn -1 0 0
vn -1 0 0
vn -1 0 0
vn -1 0 0
vn -0 0 1
vn -0 0 1
vn -0 0 1
vn -0 0 1
vn 1 0 0
vn 1 0 0
vn 1 0 0
vn 1 0 0
vn -0 0 -1
vn -0 0 -1
vn -0 0 -1
vn -0 0 -1
vn -1 0 0
vn -1 0 0
vn -1 0 0
vn -1 0 0
vn -0 0 1
vn -0 0 1
vn -0 0 1
vn -0 0 1
vn -0 0 -1
vn -0 0 -1
vn -0 0 -1
vn -0 0 -1
vn -0 -1 0
vn -0 -1 0
vn -0 -1 0
vn -0 -1 0
vn 1 0 0
vn 1 0 0
vn 1 0 0
vn 1 0 0
vn -1 0 0
vn -1 0 0
vn -1 0 0
vn -1 0 0
vn -0 0 1
vn -0 0 1
vn -0 0 1
vn -0 0 1
vn 1 0 0
vn 1 0 0
vn 1 0 0
vn 1 0 0
vn -0 0 -1
vn -0 0 -1
vn -0 0 -1
vn -0 0 -1
vn -1 0 0
vn -1 0 0
vn -1 0 0
vn -1 0 0
vn -0 1 0
vn -0 1 0
vn -0 1 0
vn -0 1 0
vn -0 1 0
vn -0 1 0
vn -0 1 0
vn -0 1 0
vn -0 -1 0
vn -0 -1 0
vn -0 -1 0
vn -0 -1 0
vn -0 -1 0
vn -0 -1 0
vn -0 -1 0
vn -0 -1 0
g Runway_Column_0
f 3/3/3 2/2/2 1/1/1
f 4/4/4 3/3/3 1/1/1
f 7/7/7 6/6/6 5/5/5
f 8/8/8 7/7/7 5/5/5
f 11/11/11 10/10/10 9/9/9
f 12/12/12 11/11/11 9/9/9
f 15/15/15 14/14/14 13/13/13
f 16/16/16 15/15/15 13/13/13
f 19/19/19 18/18/18 17/17/17
f 20/20/20 19/19/19 17/17/17
f 23/23/23 22/22/22 21/21/21
f 24/24/24 23/23/23 21/21/21
f 27/27/27 26/26/26 25/25/25
f 28/28/28 27/27/27 25/25/25
f 31/31/31 30/30/30 29/29/29
f 32/32/32 31/31/31 29/29/29
f 35/35/35 34/34/34 33/33/33
f 36/36/36 35/35/35 33/33/33
f 39/39/39 38/38/38 37/37/37
f 40/40/40 39/39/39 37/37/37
f 43/43/43 42/42/42 41/41/41
f 44/44/44 43/43/43 41/41/41
f 47/47/47 46/46/46 45/45/45
f 48/48/48 47/47/47 45/45/45
f 51/51/51 50/50/50 49/49/49
f 52/52/52 51/51/51 49/49/49
f 55/55/55 54/54/54 53/53/53
f 56/56/56 55/55/55 53/53/53
f 59/59/59 58/58/58 57/57/57
f 60/60/60 59/59/59 57/57/57
f 63/63/63 62/62/62 61/61/61
f 64/64/64 63/63/63 61/61/61
f 67/67/67 66/66/66 65/65/65
f 68/68/68 67/67/67 65/65/65
f 71/71/71 70/70/70 69/69/69
f 72/72/72 71/71/71 69/69/69
f 75/75/75 74/74/74 73/73/73
f 74/74/74 76/76/76 73/73/73
f 77/77/77 74/74/74 75/75/75
f 73/73/73 76/76/76 78/78/78
f 79/79/79 77/77/77 75/75/75
f 76/76/76 80/80/80 78/78/78
f 80/80/80 77/77/77 79/79/79
f 78/78/78 80/80/80 79/79/79
f 83/83/83 82/82/82 81/81/81
f 84/84/84 83/83/83 81/81/81
f 83/83/83 85/85/85 82/82/82
f 84/84/84 81/81/81 86/86/86
f 85/85/85 87/87/87 82/82/82
f 88/88/88 84/84/84 86/86/86
f 88/88/88 86/86/86 87/87/87
f 85/85/85 88/88/88 87/87/87
