g ForestGate_Rail
v -3.2586534 0.0781892389 0.043978069
v -6.51730776 0.0781892389 0.043978069
v -6.52930832 0.0701892078 0.0364777856
v -3.2586534 0.0781892389 0.043978069
v -6.52930832 0.0701892078 0.0364777856
v -3.2646544 0.0701892078 0.0364777856
v -6.52930832 0 0.0893089473
v -6.52930832 0.0396485887 0.0795050412
v -3.2646544 0.0396485887 0.0795050412
v -3.2646544 0 0.0893089473
v -6.52930832 0.0396485887 -0.0795050859
v -6.52930832 0 -0.0893089473
v -3.2646544 0 -0.0893089473
v -3.2646544 0.0396485887 -0.0795050859
v -6.52930832 0 -0.0364778005
v -6.52930832 0.0396485887 0.0364777856
v -6.52930832 0 0.0364777856
v -6.52930832 0.0396485887 -0.0364778005
v -6.52930832 0 -0.0893089473
v -6.52930832 0.0396485887 -0.0795050859
v -6.52930832 0.0701892078 -0.0364778005
v -6.52930832 0.0701892078 -0.0795050859
v -6.52930832 0.0396485887 -0.0364778005
v -3.2646544 0.0396485887 -0.0364778005
v -3.2646544 0.0396485887 0.0364777856
v -6.52930832 0.0396485887 0.0364777856
v 6.52930832 0.0396485887 -0.0364778005
v 6.52930832 0 0.0364777856
v 6.52930832 0.0396485887 0.0364777856
v 6.52930832 0 -0.0364778005
v 6.52930832 0 -0.0893089473
v 6.52930832 0.0396485887 -0.0795050859
v 6.52930832 0.0701892078 -0.0795050859
v 6.52930832 0.0701892078 -0.0364778005
v -6.51730776 0.0781892389 -0.0439780504
v -6.51730776 0.0781892389 -0.0720047653
v -3.2586534 0.0781892389 -0.0720047653
v -3.2586534 0.0781892389 -0.0439780504
v -6.52930832 0.0396485887 0.0364777856
v -6.52930832 0 0.0893089473
v -6.52930832 0 0.0364777856
v -6.52930832 0.0396485887 0.0795050412
v -6.52930832 0.0701892078 0.0795050412
v -6.52930832 0.0701892078 0.0364777856
v -6.51730776 0.0781892389 0.0720047876
v -6.51730776 0.0781892389 0.043978069
v -3.2586534 0.0781892389 0.043978069
v -3.2586534 0.0781892389 0.0720047876
v 6.52930832 0 0.0893089473
v 6.52930832 0.0396485887 0.0364777856
v 6.52930832 0 0.0364777856
v 6.52930832 0.0396485887 0.0795050412
v 6.52930832 0.0701892078 0.0364777856
v 6.52930832 0.0701892078 0.0795050412
v -6.52930832 0.0396485887 -0.0364778005
v -6.52930832 0.0701892078 -0.0364778005
v -3.2646544 0.0701892078 -0.0364778005
v -3.2646544 0.0396485887 -0.0364778005
v -3.2646544 0.0701892078 -0.0795050859
v -6.52930832 0.0701892078 -0.0795050859
v -6.52930832 0.0396485887 -0.0795050859
v -3.2646544 0.0396485887 -0.0795050859
v -6.52930832 0.0396485887 0.0795050412
v -6.52930832 0.0701892078 0.0795050412
v -3.2646544 0.0701892078 0.0795050412
v -3.2646544 0.0396485887 0.0795050412
v -3.2646544 0.0701892078 0.0364777856
v -6.52930832 0.0701892078 0.0364777856
v -6.52930832 0.0396485887 0.0364777856
v -3.2646544 0.0396485887 0.0364777856
v -6.52930832 0.0701892078 -0.0364778005
v -6.51730776 0.0781892389 -0.0439780504
v -3.2586534 0.0781892389 -0.0439780504
v -3.2646544 0.0701892078 -0.0364778005
v 6.52930832 0.0701892078 -0.0364778005
v 6.51730824 0.0781892389 -0.0439780504
v 6.51730824 0.0781892389 -0.0720047653
v 6.52930832 0.0701892078 -0.0795050859
v -3.2586534 0.0781892389 -0.0720047653
v -6.51730776 0.0781892389 -0.0720047653
v -6.52930832 0.0701892078 -0.0795050859
v -3.2646544 0.0701892078 -0.0795050859
v -6.52930832 0.0701892078 -0.0795050859
v -6.51730776 0.0781892389 -0.0720047653
v -6.51730776 0.0781892389 -0.0439780504
v -6.52930832 0.0701892078 -0.0364778005
v -6.52930832 0.0701892078 0.0795050412
v -6.51730776 0.0781892389 0.0720047876
v -3.2586534 0.0781892389 0.0720047876
v -3.2646544 0.0701892078 0.0795050412
v 6.52930832 0.0701892078 0.0795050412
v 6.51730824 0.0781892389 0.0720047876
v 6.51730824 0.0781892389 0.043978069
v 6.52930832 0.0701892078 0.0364777856
v -6.52930832 0.0701892078 0.0364777856
v -6.51730776 0.0781892389 0.043978069
v -6.51730776 0.0781892389 0.0720047876
v -6.52930832 0.0701892078 0.0795050412
v -0 0.0396485887 0.0795050412
v 3.26465392 0.0396485887 0.0795050412
v 3.26465392 0 0.0893089473
v -0 0 0.0893089473
v -0 0.0701892078 0.0795050412
v 3.26465392 0.0701892078 0.0795050412
v 3.26465392 0.0396485887 0.0795050412
v -0 0.0396485887 0.0795050412
v 3.05175774E-07 0.0781892389 0.0720047876
v 3.25865412 0.0781892389 0.0720047876
v 3.26465392 0.0701892078 0.0795050412
v -0 0.0701892078 0.0795050412
v 3.05175774E-07 0.0781892389 0.043978069
v 3.25865412 0.0781892389 0.043978069
v 3.25865412 0.0781892389 0.0720047876
v 3.05175774E-07 0.0781892389 0.0720047876
v 3.25865412 0.0781892389 0.043978069
v 3.05175774E-07 0.0781892389 0.043978069
v -0 0.0701892078 0.0364777856
v 3.26465392 0.0701892078 0.0364777856
v 3.26465392 0.0701892078 0.0364777856
v -0 0.0701892078 0.0364777856
v -0 0.0396485887 0.0364777856
v 3.26465392 0.0396485887 0.0364777856
v -0 0.0396485887 -0.0364778005
v 3.26465392 0.0396485887 -0.0364778005
v 3.26465392 0.0396485887 0.0364777856
v -0 0.0396485887 0.0364777856
v -0 0.0701892078 -0.0364778005
v 3.26465392 0.0701892078 -0.0364778005
v 3.26465392 0.0396485887 -0.0364778005
v -0 0.0396485887 -0.0364778005
v 3.05175774E-07 0.0781892389 -0.0439780504
v 3.25865412 0.0781892389 -0.0439780504
v 3.26465392 0.0701892078 -0.0364778005
v -0 0.0701892078 -0.0364778005
v 3.05175774E-07 0.0781892389 -0.0720047653
v 3.25865412 0.0781892389 -0.0720047653
v 3.25865412 0.0781892389 -0.0439780504
v 3.05175774E-07 0.0781892389 -0.0439780504
v 3.25865412 0.0781892389 -0.0720047653
v 3.05175774E-07 0.0781892389 -0.0720047653
v -0 0.0701892078 -0.0795050859
v 3.26465392 0.0701892078 -0.0795050859
v 3.26465392 0.0701892078 -0.0795050859
v -0 0.0701892078 -0.0795050859
v -0 0.0396485887 -0.0795050859
v 3.26465392 0.0396485887 -0.0795050859
v -0 0 -0.0893089473
v 3.26465392 0 -0.0893089473
v 3.26465392 0.0396485887 -0.0795050859
v -0 0.0396485887 -0.0795050859
v -3.2646544 0.0396485887 0.0795050412
v -0 0.0396485887 0.0795050412
v -0 0 0.0893089473
v -3.2646544 0 0.0893089473
v -3.2646544 0.0701892078 0.0795050412
v -0 0.0701892078 0.0795050412
v -0 0.0396485887 0.0795050412
v -3.2646544 0.0396485887 0.0795050412
v -3.2586534 0.0781892389 0.0720047876
v 3.05175774E-07 0.0781892389 0.0720047876
v -0 0.0701892078 0.0795050412
v -3.2646544 0.0701892078 0.0795050412
v -3.2586534 0.0781892389 0.043978069
v 3.05175774E-07 0.0781892389 0.043978069
v 3.05175774E-07 0.0781892389 0.0720047876
v -3.2586534 0.0781892389 0.0720047876
v 3.05175774E-07 0.0781892389 0.043978069
v -3.2586534 0.0781892389 0.043978069
v -3.2646544 0.0701892078 0.0364777856
v -0 0.0701892078 0.0364777856
v -0 0.0701892078 0.0364777856
v -3.2646544 0.0701892078 0.0364777856
v -3.2646544 0.0396485887 0.0364777856
v -0 0.0396485887 0.0364777856
v -3.2646544 0.0396485887 -0.0364778005
v -0 0.0396485887 -0.0364778005
v -0 0.0396485887 0.0364777856
v -3.2646544 0.0396485887 0.0364777856
v -3.2646544 0.0701892078 -0.0364778005
v -0 0.0701892078 -0.0364778005
v -0 0.0396485887 -0.0364778005
v -3.2646544 0.0396485887 -0.0364778005
v -3.2586534 0.0781892389 -0.0439780504
v 3.05175774E-07 0.0781892389 -0.0439780504
v -0 0.0701892078 -0.0364778005
v -3.2646544 0.0701892078 -0.0364778005
v -3.2586534 0.0781892389 -0.0720047653
v 3.05175774E-07 0.0781892389 -0.0720047653
v 3.05175774E-07 0.0781892389 -0.0439780504
v -3.2586534 0.0781892389 -0.0439780504
v 3.05175774E-07 0.0781892389 -0.0720047653
v -3.2586534 0.0781892389 -0.0720047653
v -3.2646544 0.0701892078 -0.0795050859
v -0 0.0701892078 -0.0795050859
v -0 0.0701892078 -0.0795050859
v -3.2646544 0.0701892078 -0.0795050859
v -3.2646544 0.0396485887 -0.0795050859
v -0 0.0396485887 -0.0795050859
v -3.2646544 0 -0.0893089473
v -0 0 -0.0893089473
v -0 0.0396485887 -0.0795050859
v -3.2646544 0.0396485887 -0.0795050859
v 3.26465392 0.0396485887 0.0795050412
v 6.52930832 0.0396485887 0.0795050412
v 6.52930832 0 0.0893089473
v 3.26465392 0 0.0893089473
v 3.26465392 0.0701892078 0.0795050412
v 6.52930832 0.0701892078 0.0795050412
v 6.52930832 0.0396485887 0.0795050412
v 3.26465392 0.0396485887 0.0795050412
v 3.25865412 0.0781892389 0.0720047876
v 6.51730824 0.0781892389 0.0720047876
v 6.52930832 0.0701892078 0.0795050412
v 3.26465392 0.0701892078 0.0795050412
v 3.25865412 0.0781892389 0.043978069
v 6.51730824 0.0781892389 0.043978069
v 6.51730824 0.0781892389 0.0720047876
v 3.25865412 0.0781892389 0.0720047876
v 6.52930832 0.0701892078 0.0364777856
v 6.51730824 0.0781892389 0.043978069
v 3.25865412 0.0781892389 0.043978069
v 3.26465392 0.0701892078 0.0364777856
v 6.52930832 0.0396485887 0.0364777856
v 6.52930832 0.0701892078 0.0364777856
v 3.26465392 0.0701892078 0.0364777856
v 3.26465392 0.0396485887 0.0364777856
v 3.26465392 0.0396485887 -0.0364778005
v 6.52930832 0.0396485887 -0.0364778005
v 6.52930832 0.0396485887 0.0364777856
v 3.26465392 0.0396485887 0.0364777856
v 3.26465392 0.0701892078 -0.0364778005
v 6.52930832 0.0701892078 -0.0364778005
v 6.52930832 0.0396485887 -0.0364778005
v 3.26465392 0.0396485887 -0.0364778005
v 3.25865412 0.0781892389 -0.0439780504
v 6.51730824 0.0781892389 -0.0439780504
v 6.52930832 0.0701892078 -0.0364778005
v 3.26465392 0.0701892078 -0.0364778005
v 3.25865412 0.0781892389 -0.0720047653
v 6.51730824 0.0781892389 -0.0720047653
v 6.51730824 0.0781892389 -0.0439780504
v 3.25865412 0.0781892389 -0.0439780504
v 6.52930832 0.0701892078 -0.0795050859
v 6.51730824 0.0781892389 -0.0720047653
v 3.25865412 0.0781892389 -0.0720047653
v 3.26465392 0.0701892078 -0.0795050859
v 6.52930832 0.0396485887 -0.0795050859
v 6.52930832 0.0701892078 -0.0795050859
v 3.26465392 0.0701892078 -0.0795050859
v 3.26465392 0.0396485887 -0.0795050859
v 3.26465392 0 -0.0893089473
v 6.52930832 0 -0.0893089473
v 6.52930832 0.0396485887 -0.0795050859
v 3.26465392 0.0396485887 -0.0795050859
vt 0.996582031 0.913574219
vt 0.429931641 0.913574219
vt 0.427734375 0.916992188
vt 0.996582031 0.913574219
vt 0.427734375 0.916992188
vt 0.996582031 0.916992188
vt 0.427978516 0.875488281
vt 0.427734375 0.893066406
vt 0.996582031 0.893066406
vt 0.996582031 0.875488281
vt 0.427734375 0.977050781
vt 0.427978516 0.994140625
vt 0.996582031 0.994140625
vt 0.996582031 0.977050781
vt 0.420898438 0.994140625
vt 0.412597656 0.9765625
vt 0.412597656 0.994140625
vt 0.421875 0.977050781
vt 0.427978516 0.994140625
vt 0.427734375 0.977050781
vt 0.422119141 0.963867188
vt 0.427734375 0.963867188
vt 0.427734375 0.939941406
vt 0.996582031 0.939941406
vt 0.996582031 0.930175781
vt 0.427734375 0.930175781
vt 0.986328125 0.977050781
vt 0.996582031 0.994140625
vt 0.996582031 0.9765625
vt 0.987304688 0.994140625
vt 0.98046875 0.994140625
vt 0.98046875 0.977050781
vt 0.98046875 0.963867188
vt 0.986328125 0.963867188
vt 0.429931641 0.956542969
vt 0.429931641 0.960449219
vt 0.996582031 0.960449219
vt 0.996582031 0.956542969
vt 0.422119141 0.893066406
vt 0.427978516 0.875488281
vt 0.420898438 0.875488281
vt 0.427734375 0.893066406
vt 0.427734375 0.90625
vt 0.422119141 0.90625
vt 0.429931641 0.909667969
vt 0.429931641 0.913574219
vt 0.996582031 0.913574219
vt 0.996582031 0.909667969
vt 0.98046875 0.875488281
vt 0.986328125 0.893066406
vt 0.987304688 0.875488281
vt 0.98046875 0.892578125
vt 0.986328125 0.90625
vt 0.98046875 0.905761719
vt 0.427734375 0.939941406
vt 0.427734375 0.953125
vt 0.996582031 0.953125
vt 0.996582031 0.939941406
vt 0.996582031 0.963867188
vt 0.427734375 0.963867188
vt 0.427734375 0.977050781
vt 0.996582031 0.977050781
vt 0.427734375 0.893066406
vt 0.427734375 0.90625
vt 0.996582031 0.90625
vt 0.996582031 0.893066406
vt 0.996582031 0.916992188
vt 0.427734375 0.916992188
vt 0.427734375 0.930175781
vt 0.996582031 0.930175781
vt 0.427734375 0.953125
vt 0.429931641 0.956542969
vt 0.996582031 0.956542969
vt 0.996582031 0.953125
vt 0.986328125 0.963867188
vt 0.985351562 0.959960938
vt 0.981445312 0.959960938
vt 0.98046875 0.963867188
vt 0.996582031 0.960449219
vt 0.429931641 0.960449219
vt 0.427734375 0.963867188
vt 0.996582031 0.963867188
vt 0.427734375 0.963867188
vt 0.427001953 0.959960938
vt 0.423339844 0.959960938
vt 0.422119141 0.963867188
vt 0.427734375 0.90625
vt 0.429931641 0.909667969
vt 0.996582031 0.909667969
vt 0.996582031 0.90625
vt 0.98046875 0.905761719
vt 0.981445312 0.91015625
vt 0.985351562 0.91015625
vt 0.986328125 0.90625
vt 0.422119141 0.90625
vt 0.423339844 0.91015625
vt 0.427001953 0.91015625
vt 0.427734375 0.90625
vt 0.412597656 0.892578125
vt 0.996582031 0.892578125
vt 0.996582031 0.875488281
vt 0.412597656 0.875488281
vt 0.412597656 0.905761719
vt 0.996582031 0.905761719
vt 0.996582031 0.892578125
vt 0.412597656 0.892578125
vt 0.412597656 0.909667969
vt 0.996582031 0.909667969
vt 0.996582031 0.905761719
vt 0.412597656 0.905761719
vt 0.412597656 0.913085938
vt 0.996582031 0.913085938
vt 0.996582031 0.909667969
vt 0.412597656 0.909667969
vt 0.996582031 0.913085938
vt 0.412597656 0.913085938
vt 0.412597656 0.916992188
vt 0.996582031 0.916992188
vt 0.996582031 0.916992188
vt 0.412597656 0.916992188
vt 0.412597656 0.930175781
vt 0.996582031 0.930175781
vt 0.412597656 0.939941406
vt 0.996582031 0.939941406
vt 0.996582031 0.930175781
vt 0.412597656 0.930175781
vt 0.412597656 0.953125
vt 0.996582031 0.953125
vt 0.996582031 0.939941406
vt 0.412597656 0.939941406
vt 0.412597656 0.956542969
vt 0.996582031 0.956542969
vt 0.996582031 0.953125
vt 0.412597656 0.953125
vt 0.412597656 0.960449219
vt 0.996582031 0.960449219
vt 0.996582031 0.956542969
vt 0.412597656 0.956542969
vt 0.996582031 0.960449219
vt 0.412597656 0.960449219
vt 0.412597656 0.963867188
vt 0.996582031 0.963867188
vt 0.996582031 0.963867188
vt 0.412597656 0.963867188
vt 0.412597656 0.977539062
vt 0.996582031 0.977539062
vt 0.412597656 0.994140625
vt 0.996582031 0.994140625
vt 0.996582031 0.977539062
vt 0.412597656 0.977539062
vt 0.412597656 0.892578125
vt 0.996582031 0.892578125
vt 0.996582031 0.875488281
vt 0.412597656 0.875488281
vt 0.412597656 0.905761719
vt 0.996582031 0.905761719
vt 0.996582031 0.892578125
vt 0.412597656 0.892578125
vt 0.412597656 0.909667969
vt 0.996582031 0.909667969
vt 0.996582031 0.905761719
vt 0.412597656 0.905761719
vt 0.412597656 0.913085938
vt 0.996582031 0.913085938
vt 0.996582031 0.909667969
vt 0.412597656 0.909667969
vt 0.996582031 0.913085938
vt 0.412597656 0.913085938
vt 0.412597656 0.916992188
vt 0.996582031 0.916992188
vt 0.996582031 0.916992188
vt 0.412597656 0.916992188
vt 0.412597656 0.930175781
vt 0.996582031 0.930175781
vt 0.412597656 0.939941406
vt 0.996582031 0.939941406
vt 0.996582031 0.930175781
vt 0.412597656 0.930175781
vt 0.412597656 0.953125
vt 0.996582031 0.953125
vt 0.996582031 0.939941406
vt 0.412597656 0.939941406
vt 0.412597656 0.956542969
vt 0.996582031 0.956542969
vt 0.996582031 0.953125
vt 0.412597656 0.953125
vt 0.412597656 0.960449219
vt 0.996582031 0.960449219
vt 0.996582031 0.956542969
vt 0.412597656 0.956542969
vt 0.996582031 0.960449219
vt 0.412597656 0.960449219
vt 0.412597656 0.963867188
vt 0.996582031 0.963867188
vt 0.996582031 0.963867188
vt 0.412597656 0.963867188
vt 0.412597656 0.977539062
vt 0.996582031 0.977539062
vt 0.412597656 0.994140625
vt 0.996582031 0.994140625
vt 0.996582031 0.977539062
vt 0.412597656 0.977539062
vt 0.412597656 0.893066406
vt 0.98046875 0.892578125
vt 0.98046875 0.875488281
vt 0.412597656 0.875488281
vt 0.412597656 0.90625
vt 0.98046875 0.905761719
vt 0.98046875 0.892578125
vt 0.412597656 0.893066406
vt 0.412597656 0.909667969
vt 0.978515625 0.909667969
vt 0.98046875 0.905761719
vt 0.412597656 0.90625
vt 0.412597656 0.913574219
vt 0.978515625 0.913085938
vt 0.978515625 0.909667969
vt 0.412597656 0.909667969
vt 0.98046875 0.916992188
vt 0.978515625 0.913085938
vt 0.412597656 0.913574219
vt 0.412597656 0.916992188
vt 0.98046875 0.930175781
vt 0.98046875 0.916992188
vt 0.412597656 0.916992188
vt 0.412597656 0.930175781
vt 0.412597656 0.939941406
vt 0.98046875 0.939941406
vt 0.98046875 0.930175781
vt 0.412597656 0.930175781
vt 0.412597656 0.953125
vt 0.98046875 0.953125
vt 0.98046875 0.939941406
vt 0.412597656 0.939941406
vt 0.412597656 0.956542969
vt 0.978515625 0.956542969
vt 0.98046875 0.953125
vt 0.412597656 0.953125
vt 0.412597656 0.960449219
vt 0.978515625 0.960449219
vt 0.978515625 0.956542969
vt 0.412597656 0.956542969
vt 0.98046875 0.963867188
vt 0.978515625 0.960449219
vt 0.412597656 0.960449219
vt 0.412597656 0.963867188
vt 0.98046875 0.977050781
vt 0.98046875 0.963867188
vt 0.412597656 0.963867188
vt 0.412597656 0.977539062
vt 0.412597656 0.994140625
vt 0.98046875 0.994140625
vt 0.98046875 0.977050781
vt 0.412597656 0.977539062
vn -0 0.684082031 -0.729492188
vn -0 0.684082031 -0.729492188
vn -0 0.684082031 -0.729492188
vn -0 0.684082031 -0.729492188
vn -0 0.684082031 -0.729492188
vn -0 0.684082031 -0.729492188
vn -0 0.239990234 0.970703125
vn -0 0.239990234 0.970703125
vn -0 0.239990234 0.970703125
vn -0 0.239990234 0.970703125
vn -0 0.239990234 -0.970703125
vn -0 0.239990234 -0.970703125
vn -0 0.239990234 -0.970703125
vn -0 0.239990234 -0.970703125
vn -1 -2.56299973E-06 0
vn -1 0 0
vn -1 0 0
vn -1 -2.56299973E-06 0
vn -1 -6.43730164E-06 0
vn -1 -6.43730164E-06 0
vn -1 0 0
vn -1 0 0
vn -0 1 0
vn -0 1 0
vn -0 1 0
vn -0 1 0
vn 1 0 0
vn 1 -1.25169754E-06 0
vn 1 -1.25169754E-06 0
vn 1 0 0
vn 1 0 0
vn 1 0 0
vn 1 0 0
vn 1 0 0
vn -0 1 0
vn -0 1 0
vn -0 1 0
vn -0 1 0
vn -1 0 0
vn -1 0 0
vn -1 0 0
vn -1 0 0
vn -1 0 0
vn -1 0 0
vn -0 1 0
vn -0 1 0
vn -0 1 0
vn -0 1 0
vn 1 -3.21865082E-06 0
vn 1 -1.25169754E-06 0
vn 1 -1.25169754E-06 0
vn 1 -3.21865082E-06 0
vn 1 0 0
vn 1 0 0
vn -0 0 1
vn -0 0 1
vn -0 0 1
vn -0 0 1
vn -0 0 -1
vn -0 0 -1
vn -0 0 -1
vn -0 0 -1
vn -0 0 1
vn -0 0 1
vn -0 0 1
vn -0 0 1
vn -0 0 -1
vn -0 0 -1
vn -0 0 -1
vn -0 0 -1
vn -0 0.684082031 0.729492188
vn -0 0.684082031 0.729492188
vn -0 0.684082031 0.729492188
vn -0 0.684082031 0.729492188
vn 0.5546875 0.83203125 0
vn 0.5546875 0.83203125 0
vn 0.5546875 0.83203125 0
vn 0.5546875 0.83203125 0
vn -0 0.684082031 -0.729492188
vn -0 0.684082031 -0.729492188
vn -0 0.684082031 -0.729492188
vn -0 0.684082031 -0.729492188
vn -0.5546875 0.83203125 0
vn -0.5546875 0.83203125 0
vn -0.5546875 0.83203125 0
vn -0.5546875 0.83203125 0
vn -0 0.684082031 0.729492188
vn -0 0.684082031 0.729492188
vn -0 0.684082031 0.729492188
vn -0 0.684082031 0.729492188
vn 0.5546875 0.83203125 0
vn 0.5546875 0.83203125 0
vn 0.5546875 0.83203125 0
vn 0.5546875 0.83203125 0
vn -0.5546875 0.83203125 0
vn -0.5546875 0.83203125 0
vn -0.5546875 0.83203125 0
vn -0.5546875 0.83203125 0
vn -0 0.239990234 0.970703125
vn -0 0.239990234 0.970703125
vn -0 0.239990234 0.970703125
vn -0 0.239990234 0.970703125
vn -0 0 1
vn -0 0 1
vn -0 0 1
vn -0 0 1
vn -0 0.684082031 0.729492188
vn -0 0.684082031 0.729492188
vn -0 0.684082031 0.729492188
vn -0 0.684082031 0.729492188
vn -0 1 0
vn -0 1 0
vn -0 1 0
vn -0 1 0
vn -0 0.684082031 -0.729492188
vn -0 0.684082031 -0.729492188
vn -0 0.684082031 -0.729492188
vn -0 0.684082031 -0.729492188
vn -0 0 -1
vn -0 0 -1
vn -0 0 -1
vn -0 0 -1
vn -0 1 0
vn -0 1 0
vn -0 1 0
vn -0 1 0
vn -0 0 1
vn -0 0 1
vn -0 0 1
vn -0 0 1
vn -0 0.684082031 0.729492188
vn -0 0.684082031 0.729492188
vn -0 0.684082031 0.729492188
vn -0 0.684082031 0.729492188
vn -0 1 0
vn -0 1 0
vn -0 1 0
vn -0 1 0
vn -0 0.684082031 -0.729492188
vn -0 0.684082031 -0.729492188
vn -0 0.684082031 -0.729492188
vn -0 0.684082031 -0.729492188
vn -0 0 -1
vn -0 0 -1
vn -0 0 -1
vn -0 0 -1
vn -0 0.239990234 -0.970703125
vn -0 0.239990234 -0.970703125
vn -0 0.239990234 -0.970703125
vn -0 0.239990234 -0.970703125
vn -0 0.239990234 0.970703125
vn -0 0.239990234 0.970703125
vn -0 0.239990234 0.970703125
vn -0 0.239990234 0.970703125
vn -0 0 1
vn -0 0 1
vn -0 0 1
vn -0 0 1
vn -0 0.684082031 0.729492188
vn -0 0.684082031 0.729492188
vn -0 0.684082031 0.729492188
vn -0 0.684082031 0.729492188
vn -0 1 0
vn -0 1 0
vn -0 1 0
vn -0 1 0
vn -0 0.684082031 -0.729492188
vn -0 0.684082031 -0.729492188
vn -0 0.684082031 -0.729492188
vn -0 0.684082031 -0.729492188
vn -0 0 -1
vn -0 0 -1
vn -0 0 -1
vn -0 0 -1
vn -0 1 0
vn -0 1 0
vn -0 1 0
vn -0 1 0
vn -0 0 1
vn -0 0 1
vn -0 0 1
vn -0 0 1
vn -0 0.684082031 0.729492188
vn -0 0.684082031 0.729492188
vn -0 0.684082031 0.729492188
vn -0 0.684082031 0.729492188
vn -0 1 0
vn -0 1 0
vn -0 1 0
vn -0 1 0
vn -0 0.684082031 -0.729492188
vn -0 0.684082031 -0.729492188
vn -0 0.684082031 -0.729492188
vn -0 0.684082031 -0.729492188
vn -0 0 -1
vn -0 0 -1
vn -0 0 -1
vn -0 0 -1
vn -0 0.239990234 -0.970703125
vn -0 0.239990234 -0.970703125
vn -0 0.239990234 -0.970703125
vn -0 0.239990234 -0.970703125
vn -0 0.239990234 0.970703125
vn -0 0.239990234 0.970703125
vn -0 0.239990234 0.970703125
vn -0 0.239990234 0.970703125
vn -0 0 1
vn -0 0 1
vn -0 0 1
vn -0 0 1
vn -0 0.684082031 0.729492188
vn -0 0.684082031 0.729492188
vn -0 0.684082031 0.729492188
vn -0 0.684082031 0.729492188
vn -0 1 0
vn -0 1 0
vn -0 1 0
vn -0 1 0
vn -0 0.684082031 -0.729492188
vn -0 0.684082031 -0.729492188
vn -0 0.684082031 -0.729492188
vn -0 0.684082031 -0.729492188
vn -0 0 -1
vn -0 0 -1
vn -0 0 -1
vn -0 0 -1
vn -0 1 0
vn -0 1 0
vn -0 1 0
vn -0 1 0
vn -0 0 1
vn -0 0 1
vn -0 0 1
vn -0 0 1
vn -0 0.684082031 0.729492188
vn -0 0.684082031 0.729492188
vn -0 0.684082031 0.729492188
vn -0 0.684082031 0.729492188
vn -0 1 0
vn -0 1 0
vn -0 1 0
vn -0 1 0
vn -0 0.684082031 -0.729492188
vn -0 0.684082031 -0.729492188
vn -0 0.684082031 -0.729492188
vn -0 0.684082031 -0.729492188
vn -0 0 -1
vn -0 0 -1
vn -0 0 -1
vn -0 0 -1
vn -0 0.239990234 -0.970703125
vn -0 0.239990234 -0.970703125
vn -0 0.239990234 -0.970703125
vn -0 0.239990234 -0.970703125
g ForestGate_Rail_0
f 3/3/3 2/2/2 1/1/1
f 6/6/6 5/5/5 4/4/4
f 9/9/9 8/8/8 7/7/7
f 10/10/10 9/9/9 7/7/7
f 13/13/13 12/12/12 11/11/11
f 14/14/14 13/13/13 11/11/11
f 17/17/17 16/16/16 15/15/15
f 16/16/16 18/18/18 15/15/15
f 15/15/15 18/18/18 19/19/19
f 18/18/18 20/20/20 19/19/19
f 18/18/18 21/21/21 20/20/20
f 21/21/21 22/22/22 20/20/20
f 25/25/25 24/24/24 23/23/23
f 26/26/26 25/25/25 23/23/23
f 29/29/29 28/28/28 27/27/27
f 28/28/28 30/30/30 27/27/27
f 30/30/30 31/31/31 27/27/27
f 31/31/31 32/32/32 27/27/27
f 32/32/32 33/33/33 27/27/27
f 33/33/33 34/34/34 27/27/27
f 37/37/37 36/36/36 35/35/35
f 38/38/38 37/37/37 35/35/35
f 41/41/41 40/40/40 39/39/39
f 40/40/40 42/42/42 39/39/39
f 42/42/42 43/43/43 39/39/39
f 43/43/43 44/44/44 39/39/39
f 47/47/47 46/46/46 45/45/45
f 48/48/48 47/47/47 45/45/45
f 51/51/51 50/50/50 49/49/49
f 50/50/50 52/52/52 49/49/49
f 50/50/50 53/53/53 52/52/52
f 53/53/53 54/54/54 52/52/52
f 57/57/57 56/56/56 55/55/55
f 58/58/58 57/57/57 55/55/55
f 61/61/61 60/60/60 59/59/59
f 62/62/62 61/61/61 59/59/59
f 65/65/65 64/64/64 63/63/63
f 66/66/66 65/65/65 63/63/63
f 69/69/69 68/68/68 67/67/67
f 70/70/70 69/69/69 67/67/67
f 73/73/73 72/72/72 71/71/71
f 74/74/74 73/73/73 71/71/71
f 77/77/77 76/76/76 75/75/75
f 78/78/78 77/77/77 75/75/75
f 81/81/81 80/80/80 79/79/79
f 82/82/82 81/81/81 79/79/79
f 85/85/85 84/84/84 83/83/83
f 86/86/86 85/85/85 83/83/83
f 89/89/89 88/88/88 87/87/87
f 90/90/90 89/89/89 87/87/87
f 93/93/93 92/92/92 91/91/91
f 94/94/94 93/93/93 91/91/91
f 97/97/97 96/96/96 95/95/95
f 98/98/98 97/97/97 95/95/95
f 101/101/101 100/100/100 99/99/99
f 102/102/102 101/101/101 99/99/99
f 105/105/105 104/104/104 103/103/103
f 106/106/106 105/105/105 103/103/103
f 109/109/109 108/108/108 107/107/107
f 110/110/110 109/109/109 107/107/107
f 113/113/113 112/112/112 111/111/111
f 114/114/114 113/113/113 111/111/111
f 117/117/117 116/116/116 115/115/115
f 118/118/118 117/117/117 115/115/115
f 121/121/121 120/120/120 119/119/119
f 122/122/122 121/121/121 119/119/119
f 125/125/125 124/124/124 123/123/123
f 126/126/126 125/125/125 123/123/123
f 129/129/129 128/128/128 127/127/127
f 130/130/130 129/129/129 127/127/127
f 133/133/133 132/132/132 131/131/131
f 134/134/134 133/133/133 131/131/131
f 137/137/137 136/136/136 135/135/135
f 138/138/138 137/137/137 135/135/135
f 141/141/141 140/140/140 139/139/139
f 142/142/142 141/141/141 139/139/139
f 145/145/145 144/144/144 143/143/143
f 146/146/146 145/145/145 143/143/143
f 149/149/149 148/148/148 147/147/147
f 150/150/150 149/149/149 147/147/147
f 153/153/153 152/152/152 151/151/151
f 154/154/154 153/153/153 151/151/151
f 157/157/157 156/156/156 155/155/155
f 158/158/158 157/157/157 155/155/155
f 161/161/161 160/160/160 159/159/159
f 162/162/162 161/161/161 159/159/159
f 165/165/165 164/164/164 163/163/163
f 166/166/166 165/165/165 163/163/163
f 169/169/169 168/168/168 167/167/167
f 170/170/170 169/169/169 167/167/167
f 173/173/173 172/172/172 171/171/171
f 174/174/174 173/173/173 171/171/171
f 177/177/177 176/176/176 175/175/175
f 178/178/178 177/177/177 175/175/175
f 181/181/181 180/180/180 179/179/179
f 182/182/182 181/181/181 179/179/179
f 185/185/185 184/184/184 183/183/183
f 186/186/186 185/185/185 183/183/183
f 189/189/189 188/188/188 187/187/187
f 190/190/190 189/189/189 187/187/187
f 193/193/193 192/192/192 191/191/191
f 194/194/194 193/193/193 191/191/191
f 197/197/197 196/196/196 195/195/195
f 198/198/198 197/197/197 195/195/195
f 201/201/201 200/200/200 199/199/199
f 202/202/202 201/201/201 199/199/199
f 205/205/205 204/204/204 203/203/203
f 206/206/206 205/205/205 203/203/203
f 209/209/209 208/208/208 207/207/207
f 210/210/210 209/209/209 207/207/207
f 213/213/213 212/212/212 211/211/211
f 214/214/214 213/213/213 211/211/211
f 217/217/217 216/216/216 215/215/215
f 218/218/218 217/217/217 215/215/215
f 221/221/221 220/220/220 219/219/219
f 222/222/222 221/221/221 219/219/219
f 225/225/225 224/224/224 223/223/223
f 226/226/226 225/225/225 223/223/223
f 229/229/229 228/228/228 227/227/227
f 230/230/230 229/229/229 227/227/227
f 233/233/233 232/232/232 231/231/231
f 234/234/234 233/233/233 231/231/231
f 237/237/237 236/236/236 235/235/235
f 238/238/238 237/237/237 235/235/235
f 241/241/241 240/240/240 239/239/239
f 242/242/242 241/241/241 239/239/239
f 245/245/245 244/244/244 243/243/243
f 246/246/246 245/245/245 243/243/243
f 249/249/249 248/248/248 247/247/247
f 250/250/250 249/249/249 247/247/247
f 253/253/253 252/252/252 251/251/251
f 254/254/254 253/253/253 251/251/251
