g Exterior_ColorFence_7
v 18.4558029 0.921641648 21.7929153
v 18.4134254 0.885043025 21.749897
v 18.4981804 0.8850438 21.749897
v 18.4134254 0.885043621 21.8359375
v 18.4134254 0.885043025 21.749897
v 18.4558029 0.921641648 21.7929153
v 18.4981804 0.885043025 21.8359375
v 18.4134254 0.885043621 21.8359375
v 18.4558029 0.921641648 21.7929153
v 18.4981804 0.885043025 21.8359375
v 18.4558029 0.921641648 21.7929153
v 18.4981804 0.8850438 21.749897
v 18.4558029 0.921641648 22.8290977
v 18.4134254 0.885043025 22.7860756
v 18.4981804 0.8850438 22.7860756
v 18.4134254 0.885043621 22.8721237
v 18.4134254 0.885043025 22.7860756
v 18.4558029 0.921641648 22.8290977
v 18.4981804 0.885043025 22.8721237
v 18.4134254 0.885043621 22.8721237
v 18.4558029 0.921641648 22.8290977
v 18.4981804 0.885043025 22.8721237
v 18.4558029 0.921641648 22.8290977
v 18.4981804 0.8850438 22.7860756
v 18.4558029 0.402579874 24.8416843
v 18.4134254 0.365981221 24.7986622
v 18.4981804 0.365981966 24.7986622
v 18.4134254 0.365981817 24.8847122
v 18.4134254 0.365981221 24.7986622
v 18.4558029 0.402579874 24.8416843
v 18.4981804 0.365981221 24.8847122
v 18.4134254 0.365981817 24.8847122
v 18.4558029 0.402579874 24.8416843
v 18.4981804 0.365981221 24.8847122
v 18.4558029 0.402579874 24.8416843
v 18.4981804 0.365981966 24.7986622
v 18.4558029 0.0833268538 26.8884468
v 18.4134254 0.04672819 26.8454247
v 18.4981804 0.0467289537 26.8454247
v 18.4134254 0.046728801 26.9314747
v 18.4134254 0.04672819 26.8454247
v 18.4558029 0.0833268538 26.8884468
v 18.4981804 0.04672819 26.9314747
v 18.4134254 0.046728801 26.9314747
v 18.4558029 0.0833268538 26.8884468
v 18.4981804 0.04672819 26.9314747
v 18.4558029 0.0833268538 26.8884468
v 18.4981804 0.0467289537 26.8454247
v 18.4981804 -0.182335943 21.8359375
v 18.4981804 0.885043025 21.8359375
v 18.4981804 0.8850438 21.749897
v 18.4981804 -0.182335258 21.749897
v 18.4981804 -0.182335258 21.749897
v 18.4981804 0.8850438 21.749897
v 18.4134254 0.885043025 21.749897
v 18.4134254 -0.182335943 21.749897
v 18.4134254 -0.182335943 21.749897
v 18.4134254 0.885043025 21.749897
v 18.4134254 0.885043621 21.8359375
v 18.4134254 -0.182335332 21.8359375
v 18.4134254 -0.182335332 21.8359375
v 18.4134254 0.885043621 21.8359375
v 18.4981804 0.885043025 21.8359375
v 18.4981804 -0.182335943 21.8359375
v 18.4981804 -0.182335258 21.749897
v 18.5208111 -0.182335258 21.7272701
v 18.5208073 -0.182335943 21.8585682
v 18.4981804 -0.182335943 21.8359375
v 18.4981804 -0.182335943 21.8359375
v 18.5208073 -0.182335943 21.8585682
v 18.3907986 -0.182335332 21.8585682
v 18.4134254 -0.182335332 21.8359375
v 18.4134254 -0.182335943 21.749897
v 18.3907986 -0.182335943 21.7272701
v 18.5208111 -0.182335258 21.7272701
v 18.4981804 -0.182335258 21.749897
v 18.4134254 -0.182335332 21.8359375
v 18.3907986 -0.182335332 21.8585682
v 18.3907986 -0.182335943 21.7272701
v 18.4134254 -0.182335943 21.749897
v 18.5208111 -0.182335258 21.7272701
v 18.5208111 -0.28173238 21.7272701
v 18.5208073 -0.281733066 21.8585682
v 18.5208073 -0.182335943 21.8585682
v 18.5208073 -0.182335943 21.8585682
v 18.5208073 -0.281733066 21.8585682
v 18.3907986 -0.28173247 21.8585682
v 18.3907986 -0.182335332 21.8585682
v 18.3907986 -0.182335943 21.7272701
v 18.3907986 -0.281733066 21.7272701
v 18.5208111 -0.28173238 21.7272701
v 18.5208111 -0.182335258 21.7272701
v 18.3907986 -0.182335332 21.8585682
v 18.3907986 -0.28173247 21.8585682
v 18.3907986 -0.281733066 21.7272701
v 18.3907986 -0.182335943 21.7272701
v 18.4190426 -0.108781032 26.8566647
v 18.4190426 0.30567652 24.8502769
v 18.4558029 0.321155012 24.8502769
v 18.4558029 -0.0933024734 26.8566647
v 18.4190426 0.720588803 22.841692
v 18.4190426 0.720588803 21.8276672
v 18.4558029 0.736067355 21.8276672
v 18.4558029 0.736067355 22.841692
v 18.4190426 0.30567652 24.8502769
v 18.4190426 0.720588803 22.841692
v 18.4558029 0.736067355 22.841692
v 18.4558029 0.321155012 24.8502769
v 18.4190426 -0.130326137 26.8522129
v 18.4925632 -0.130326748 26.8522129
v 18.4925632 0.284130722 24.8458271
v 18.4190426 0.284131318 24.8458271
v 18.4190426 0.698588848 22.8394432
v 18.4925632 0.698588252 22.8394432
v 18.4925632 0.698588252 21.8276672
v 18.4190426 0.698588848 21.8276672
v 18.4190426 0.284131318 24.8458271
v 18.4925632 0.284130722 24.8458271
v 18.4925632 0.698588252 22.8394432
v 18.4190426 0.698588848 22.8394432
v 18.4925632 -0.130326748 26.8522129
v 18.4925632 -0.108781643 26.8566647
v 18.4925632 0.305675894 24.8502769
v 18.4925632 0.284130722 24.8458271
v 18.4190426 0.284131318 24.8458271
v 18.4190426 0.30567652 24.8502769
v 18.4190426 -0.108781032 26.8566647
v 18.4190426 -0.130326137 26.8522129
v 18.4925632 0.698588252 22.8394432
v 18.4925632 0.720588207 22.841692
v 18.4925632 0.720588207 21.8276672
v 18.4925632 0.698588252 21.8276672
v 18.4190426 0.698588848 21.8276672
v 18.4190426 0.720588803 21.8276672
v 18.4190426 0.720588803 22.841692
v 18.4190426 0.698588848 22.8394432
v 18.4925632 0.284130722 24.8458271
v 18.4925632 0.305675894 24.8502769
v 18.4925632 0.720588207 22.841692
v 18.4925632 0.698588252 22.8394432
v 18.4190426 0.698588848 22.8394432
v 18.4190426 0.720588803 22.841692
v 18.4190426 0.30567652 24.8502769
v 18.4190426 0.284131318 24.8458271
v 18.4558029 0.321155012 24.8502769
v 18.4925632 0.305675894 24.8502769
v 18.4925632 -0.108781643 26.8566647
v 18.4558029 -0.0933024734 26.8566647
v 18.4558029 0.736067355 22.841692
v 18.4925632 0.720588207 22.841692
v 18.4925632 0.305675894 24.8502769
v 18.4558029 0.321155012 24.8502769
v 18.4558029 0.736067355 21.8276672
v 18.4925632 0.720588207 21.8276672
v 18.4925632 0.720588207 22.841692
v 18.4558029 0.736067355 22.841692
v 18.4283295 0.00741510373 24.8502769
v 18.4832764 0.00741449324 24.8502769
v 18.4832764 -0.40704307 26.8566647
v 18.4283295 -0.407042444 26.8566647
v 18.4832764 0.422326803 21.8276672
v 18.4832745 0.422326803 22.841692
v 18.4283295 0.422327399 22.841692
v 18.4283295 0.422327399 21.8276672
v 18.4283295 0.422327399 22.841692
v 18.4832745 0.422326803 22.841692
v 18.4832764 0.00741449324 24.8502769
v 18.4283295 0.00741510373 24.8502769
v 18.4283295 -0.428587556 26.8522129
v 18.4832764 -0.428588182 26.8522129
v 18.4832764 -0.0141306873 24.8458271
v 18.4283295 -0.0141300773 24.8458271
v 18.4283295 0.400327444 22.8394432
v 18.4832764 0.400326848 22.8394432
v 18.4832764 0.400326848 21.8276672
v 18.4283295 0.400327444 21.8276672
v 18.4283295 -0.0141300773 24.8458271
v 18.4832764 -0.0141306873 24.8458271
v 18.4832764 0.400326848 22.8394432
v 18.4283295 0.400327444 22.8394432
v 18.4832764 -0.428588182 26.8522129
v 18.4832764 -0.40704307 26.8566647
v 18.4832764 0.00741449324 24.8502769
v 18.4832764 -0.0141306873 24.8458271
v 18.4283295 -0.0141300773 24.8458271
v 18.4283295 0.00741510373 24.8502769
v 18.4283295 -0.407042444 26.8566647
v 18.4283295 -0.428587556 26.8522129
v 18.4832764 0.400326848 22.8394432
v 18.4832745 0.422326803 22.841692
v 18.4832764 0.422326803 21.8276672
v 18.4832764 0.400326848 21.8276672
v 18.4283295 0.400327444 21.8276672
v 18.4283295 0.422327399 21.8276672
v 18.4283295 0.422327399 22.841692
v 18.4283295 0.400327444 22.8394432
v 18.4832764 -0.0141306873 24.8458271
v 18.4832764 0.00741449324 24.8502769
v 18.4832745 0.422326803 22.841692
v 18.4832764 0.400326848 22.8394432
v 18.4283295 0.400327444 22.8394432
v 18.4283295 0.422327399 22.841692
v 18.4283295 0.00741510373 24.8502769
v 18.4283295 -0.0141300773 24.8458271
v 18.4283295 -0.340430528 24.8502769
v 18.4832764 -0.340431124 24.8502769
v 18.4832764 -0.754888654 26.8566647
v 18.4283295 -0.754888058 26.8566647
v 18.4832764 0.0744811073 21.8276672
v 18.4832745 0.0744811073 22.841692
v 18.4283295 0.0744817108 22.841692
v 18.4283295 0.0744817108 21.8276672
v 18.4283295 0.0744817108 22.841692
v 18.4832745 0.0744811073 22.841692
v 18.4832764 -0.340431124 24.8502769
v 18.4283295 -0.340430528 24.8502769
v 18.4283295 -0.77643317 26.8522129
v 18.4832764 -0.776433766 26.8522129
v 18.4832764 -0.361976296 24.8458271
v 18.4283295 -0.3619757 24.8458271
v 18.4283295 0.0524817444 22.8394432
v 18.4832764 0.0524811335 22.8394432
v 18.4832764 0.0524811335 21.8276672
v 18.4283295 0.0524817444 21.8276672
v 18.4283295 -0.3619757 24.8458271
v 18.4832764 -0.361976296 24.8458271
v 18.4832764 0.0524811335 22.8394432
v 18.4283295 0.0524817444 22.8394432
v 18.4832764 -0.776433766 26.8522129
v 18.4832764 -0.754888654 26.8566647
v 18.4832764 -0.340431124 24.8502769
v 18.4832764 -0.361976296 24.8458271
v 18.4283295 -0.3619757 24.8458271
v 18.4283295 -0.340430528 24.8502769
v 18.4283295 -0.754888058 26.8566647
v 18.4283295 -0.77643317 26.8522129
v 18.4832764 0.0524811335 22.8394432
v 18.4832745 0.0744811073 22.841692
v 18.4832764 0.0744811073 21.8276672
v 18.4832764 0.0524811335 21.8276672
v 18.4283295 0.0524817444 21.8276672
v 18.4283295 0.0744817108 21.8276672
v 18.4283295 0.0744817108 22.841692
v 18.4283295 0.0524817444 22.8394432
v 18.4832764 -0.361976296 24.8458271
v 18.4832764 -0.340431124 24.8502769
v 18.4832745 0.0744811073 22.841692
v 18.4832764 0.0524811335 22.8394432
v 18.4283295 0.0524817444 22.8394432
v 18.4283295 0.0744817108 22.841692
v 18.4283295 -0.340430528 24.8502769
v 18.4283295 -0.3619757 24.8458271
v 18.4981804 -0.214956865 22.8721237
v 18.4981804 0.885043025 22.8721237
v 18.4981804 0.8850438 22.7860756
v 18.4981804 -0.214956179 22.7860756
v 18.4981804 -0.214956179 22.7860756
v 18.4981804 0.8850438 22.7860756
v 18.4134254 0.885043025 22.7860756
v 18.4134254 -0.214956865 22.7860756
v 18.4134254 -0.214956865 22.7860756
v 18.4134254 0.885043025 22.7860756
v 18.4134254 0.885043621 22.8721237
v 18.4134254 -0.214956254 22.8721237
v 18.4134254 -0.214956254 22.8721237
v 18.4134254 0.885043621 22.8721237
v 18.4981804 0.885043025 22.8721237
v 18.4981804 -0.214956865 22.8721237
v 18.4981804 -0.734018683 24.8847122
v 18.4981804 0.365981221 24.8847122
v 18.4981804 0.365981966 24.7986622
v 18.4981804 -0.734018028 24.7986622
v 18.4981804 -0.734018028 24.7986622
v 18.4981804 0.365981966 24.7986622
v 18.4134254 0.365981221 24.7986622
v 18.4134254 -0.734018683 24.7986622
v 18.4134254 -0.734018683 24.7986622
v 18.4134254 0.365981221 24.7986622
v 18.4134254 0.365981817 24.8847122
v 18.4134254 -0.734018087 24.8847122
v 18.4134254 -0.734018087 24.8847122
v 18.4134254 0.365981817 24.8847122
v 18.4981804 0.365981221 24.8847122
v 18.4981804 -0.734018683 24.8847122
v 18.4981804 -1.05327165 26.9314747
v 18.4981804 0.04672819 26.9314747
v 18.4981804 0.0467289537 26.8454247
v 18.4981804 -1.05327106 26.8454247
v 18.4981804 -1.05327106 26.8454247
v 18.4981804 0.0467289537 26.8454247
v 18.4134254 0.04672819 26.8454247
v 18.4134254 -1.05327165 26.8454247
v 18.4134254 -1.05327165 26.8454247
v 18.4134254 0.04672819 26.8454247
v 18.4134254 0.046728801 26.9314747
v 18.4134254 -1.05327106 26.9314747
v 18.4134254 -1.05327106 26.9314747
v 18.4134254 0.046728801 26.9314747
v 18.4981804 0.04672819 26.9314747
v 18.4981804 -1.05327165 26.9314747
vt 0.6875 0.522949219
vt 0.678222656 0.515625
vt 0.678222656 0.530273438
vt 0.678222656 0.559570312
vt 0.678222656 0.574707031
vt 0.6875 0.567382812
vt 0.678222656 0.544921875
vt 0.678222656 0.559570312
vt 0.6875 0.552246094
vt 0.678222656 0.544921875
vt 0.6875 0.537597656
vt 0.678222656 0.530273438
vt 0.6875 0.522949219
vt 0.678222656 0.515625
vt 0.678222656 0.530273438
vt 0.678222656 0.559570312
vt 0.678222656 0.574707031
vt 0.6875 0.567382812
vt 0.678222656 0.544921875
vt 0.678222656 0.559570312
vt 0.6875 0.552246094
vt 0.678222656 0.544921875
vt 0.6875 0.537597656
vt 0.678222656 0.530273438
vt 0.6875 0.522949219
vt 0.678222656 0.515625
vt 0.678222656 0.530273438
vt 0.678222656 0.559570312
vt 0.678222656 0.574707031
vt 0.6875 0.567382812
vt 0.678222656 0.544921875
vt 0.678222656 0.559570312
vt 0.6875 0.552246094
vt 0.678222656 0.544921875
vt 0.6875 0.537597656
vt 0.678222656 0.530273438
vt 0.6875 0.522949219
vt 0.678222656 0.515625
vt 0.678222656 0.530273438
vt 0.678222656 0.559570312
vt 0.678222656 0.574707031
vt 0.6875 0.567382812
vt 0.678222656 0.544921875
vt 0.678222656 0.559570312
vt 0.6875 0.552246094
vt 0.678222656 0.544921875
vt 0.6875 0.537597656
vt 0.678222656 0.530273438
vt 0.489990234 0.544921875
vt 0.678222656 0.544921875
vt 0.678222656 0.530273438
vt 0.489990234 0.530273438
vt 0.489990234 0.530273438
vt 0.678222656 0.530273438
vt 0.678222656 0.515625
vt 0.489990234 0.515625
vt 0.489990234 0.574707031
vt 0.678222656 0.574707031
vt 0.678222656 0.559570312
vt 0.489990234 0.559570312
vt 0.489990234 0.559570312
vt 0.678222656 0.559570312
vt 0.678222656 0.544921875
vt 0.489990234 0.544921875
vt 0.496582031 0.367431641
vt 0.500488281 0.371337891
vt 0.500488281 0.347412109
vt 0.496582031 0.3515625
vt 0.496582031 0.343261719
vt 0.500488281 0.347412109
vt 0.500488281 0.323730469
vt 0.496582031 0.327880859
vt 0.496582031 0.391113281
vt 0.500488281 0.395019531
vt 0.500488281 0.371337891
vt 0.496582031 0.375488281
vt 0.496582031 0.319824219
vt 0.500488281 0.323730469
vt 0.500488281 0.299804688
vt 0.496582031 0.303955078
vt 0.500488281 0.371337891
vt 0.515136719 0.371337891
vt 0.515136719 0.347412109
vt 0.500488281 0.347412109
vt 0.500488281 0.347412109
vt 0.515136719 0.347412109
vt 0.515136719 0.323730469
vt 0.500488281 0.323730469
vt 0.500488281 0.395019531
vt 0.515136719 0.395019531
vt 0.515136719 0.371337891
vt 0.500488281 0.371337891
vt 0.500488281 0.323730469
vt 0.515136719 0.323730469
vt 0.515136719 0.299804688
vt 0.500488281 0.299804688
vt 0.487548828 0.770996094
vt 0.689453125 0.770996094
vt 0.689453125 0.764160156
vt 0.487548828 0.764160156
vt 0.487548828 0.770996094
vt 0.587402344 0.770996094
vt 0.587402344 0.764160156
vt 0.487548828 0.764160156
vt 0.487548828 0.770996094
vt 0.689453125 0.770996094
vt 0.689453125 0.764160156
vt 0.487548828 0.764160156
vt 0.487548828 0.740722656
vt 0.487548828 0.753417969
vt 0.689453125 0.753417969
vt 0.689453125 0.740722656
vt 0.487548828 0.740722656
vt 0.487548828 0.753417969
vt 0.587402344 0.753417969
vt 0.587402344 0.740722656
vt 0.487548828 0.740722656
vt 0.487548828 0.753417969
vt 0.689453125 0.753417969
vt 0.689453125 0.740722656
vt 0.487548828 0.753417969
vt 0.487548828 0.757324219
vt 0.689453125 0.757324219
vt 0.689453125 0.753417969
vt 0.689453125 0.774902344
vt 0.689453125 0.770996094
vt 0.487548828 0.770996094
vt 0.487548828 0.774902344
vt 0.487548828 0.753417969
vt 0.487548828 0.757324219
vt 0.587402344 0.757324219
vt 0.587402344 0.753417969
vt 0.587402344 0.774902344
vt 0.587402344 0.770996094
vt 0.487548828 0.770996094
vt 0.487548828 0.774902344
vt 0.487548828 0.753417969
vt 0.487548828 0.757324219
vt 0.689453125 0.757324219
vt 0.689453125 0.753417969
vt 0.689453125 0.774902344
vt 0.689453125 0.770996094
vt 0.487548828 0.770996094
vt 0.487548828 0.774902344
vt 0.689453125 0.764160156
vt 0.689453125 0.757324219
vt 0.487548828 0.757324219
vt 0.487548828 0.764160156
vt 0.689453125 0.764160156
vt 0.689453125 0.757324219
vt 0.487548828 0.757324219
vt 0.487548828 0.764160156
vt 0.587402344 0.764160156
vt 0.587402344 0.757324219
vt 0.487548828 0.757324219
vt 0.487548828 0.764160156
vt 0.627441406 0.733398438
vt 0.627441406 0.723632812
vt 0.429931641 0.723632812
vt 0.429931641 0.733398438
vt 0.52734375 0.723632812
vt 0.429931641 0.723632812
vt 0.429931641 0.733398438
vt 0.52734375 0.733398438
vt 0.627441406 0.733398438
vt 0.627441406 0.723632812
vt 0.429931641 0.723632812
vt 0.429931641 0.733398438
vt 0.429931641 0.710449219
vt 0.429931641 0.719726562
vt 0.627441406 0.719726562
vt 0.627441406 0.710449219
vt 0.429931641 0.710449219
vt 0.429931641 0.719726562
vt 0.52734375 0.719726562
vt 0.52734375 0.710449219
vt 0.429931641 0.710449219
vt 0.429931641 0.719726562
vt 0.627441406 0.719726562
vt 0.627441406 0.710449219
vt 0.429931641 0.719726562
vt 0.429931641 0.723632812
vt 0.627441406 0.723632812
vt 0.627441406 0.719726562
vt 0.627441406 0.736816406
vt 0.627441406 0.733398438
vt 0.429931641 0.733398438
vt 0.429931641 0.736816406
vt 0.429931641 0.719726562
vt 0.429931641 0.723632812
vt 0.52734375 0.723632812
vt 0.52734375 0.719726562
vt 0.52734375 0.736816406
vt 0.52734375 0.733398438
vt 0.429931641 0.733398438
vt 0.429931641 0.736816406
vt 0.429931641 0.719726562
vt 0.429931641 0.723632812
vt 0.627441406 0.723632812
vt 0.627441406 0.719726562
vt 0.627441406 0.736816406
vt 0.627441406 0.733398438
vt 0.429931641 0.733398438
vt 0.429931641 0.736816406
vt 0.627441406 0.701660156
vt 0.627441406 0.692382812
vt 0.429931641 0.692382812
vt 0.429931641 0.701660156
vt 0.52734375 0.692382812
vt 0.429931641 0.692382812
vt 0.429931641 0.701660156
vt 0.52734375 0.701660156
vt 0.627441406 0.701660156
vt 0.627441406 0.692382812
vt 0.429931641 0.692382812
vt 0.429931641 0.701660156
vt 0.429931641 0.679199219
vt 0.429931641 0.688476562
vt 0.627441406 0.688476562
vt 0.627441406 0.679199219
vt 0.429931641 0.679199219
vt 0.429931641 0.688476562
vt 0.52734375 0.688476562
vt 0.52734375 0.679199219
vt 0.429931641 0.679199219
vt 0.429931641 0.688476562
vt 0.627441406 0.688476562
vt 0.627441406 0.679199219
vt 0.429931641 0.688476562
vt 0.429931641 0.692382812
vt 0.627441406 0.692382812
vt 0.627441406 0.688476562
vt 0.627441406 0.705566406
vt 0.627441406 0.701660156
vt 0.429931641 0.701660156
vt 0.429931641 0.705566406
vt 0.429931641 0.688476562
vt 0.429931641 0.692382812
vt 0.52734375 0.692382812
vt 0.52734375 0.688476562
vt 0.52734375 0.705566406
vt 0.52734375 0.701660156
vt 0.429931641 0.701660156
vt 0.429931641 0.705566406
vt 0.429931641 0.688476562
vt 0.429931641 0.692382812
vt 0.627441406 0.692382812
vt 0.627441406 0.688476562
vt 0.627441406 0.705566406
vt 0.627441406 0.701660156
vt 0.429931641 0.701660156
vt 0.429931641 0.705566406
vt 0.489990234 0.544921875
vt 0.678222656 0.544921875
vt 0.678222656 0.530273438
vt 0.489990234 0.530273438
vt 0.489990234 0.530273438
vt 0.678222656 0.530273438
vt 0.678222656 0.515625
vt 0.489990234 0.515625
vt 0.489990234 0.574707031
vt 0.678222656 0.574707031
vt 0.678222656 0.559570312
vt 0.489990234 0.559570312
vt 0.489990234 0.559570312
vt 0.678222656 0.559570312
vt 0.678222656 0.544921875
vt 0.489990234 0.544921875
vt 0.489990234 0.544921875
vt 0.678222656 0.544921875
vt 0.678222656 0.530273438
vt 0.489990234 0.530273438
vt 0.489990234 0.530273438
vt 0.678222656 0.530273438
vt 0.678222656 0.515625
vt 0.489990234 0.515625
vt 0.489990234 0.574707031
vt 0.678222656 0.574707031
vt 0.678222656 0.559570312
vt 0.489990234 0.559570312
vt 0.489990234 0.559570312
vt 0.678222656 0.559570312
vt 0.678222656 0.544921875
vt 0.489990234 0.544921875
vt 0.489990234 0.544921875
vt 0.678222656 0.544921875
vt 0.678222656 0.530273438
vt 0.489990234 0.530273438
vt 0.489990234 0.530273438
vt 0.678222656 0.530273438
vt 0.678222656 0.515625
vt 0.489990234 0.515625
vt 0.489990234 0.574707031
vt 0.678222656 0.574707031
vt 0.678222656 0.559570312
vt 0.489990234 0.559570312
vt 0.489990234 0.559570312
vt 0.678222656 0.559570312
vt 0.678222656 0.544921875
vt 0.489990234 0.544921875
vn -4.08291817E-05 0.76171875 -0.647949219
vn -4.08291817E-05 0.76171875 -0.647949219
vn -4.08291817E-05 0.76171875 -0.647949219
vn -0.653808594 0.756835938 -5.06639481E-06
vn -0.653808594 0.756835938 -5.06639481E-06
vn -0.653808594 0.756835938 -5.06639481E-06
vn -5.48362732E-06 0.76171875 0.647949219
vn -5.48362732E-06 0.76171875 0.647949219
vn -5.48362732E-06 0.76171875 0.647949219
vn 0.653808594 0.756835938 6.31809235E-06
vn 0.653808594 0.756835938 6.31809235E-06
vn 0.653808594 0.756835938 6.31809235E-06
vn -4.0769577E-05 0.76171875 -0.647949219
vn -4.0769577E-05 0.76171875 -0.647949219
vn -4.0769577E-05 0.76171875 -0.647949219
vn -0.653808594 0.756835938 -5.06639481E-06
vn -0.653808594 0.756835938 -5.06639481E-06
vn -0.653808594 0.756835938 -5.06639481E-06
vn 1.39474869E-05 0.76171875 0.647949219
vn 1.39474869E-05 0.76171875 0.647949219
vn 1.39474869E-05 0.76171875 0.647949219
vn 0.653808594 0.756835938 6.31809235E-06
vn 0.653808594 0.756835938 6.31809235E-06
vn 0.653808594 0.756835938 6.31809235E-06
vn -0 0.76171875 -0.647949219
vn -0 0.76171875 -0.647949219
vn -0 0.76171875 -0.647949219
vn -0.653808594 0.756835938 -5.06639481E-06
vn -0.653808594 0.756835938 -5.06639481E-06
vn -0.653808594 0.756835938 -5.06639481E-06
vn 3.75509262E-05 0.76171875 0.647949219
vn 3.75509262E-05 0.76171875 0.647949219
vn 3.75509262E-05 0.76171875 0.647949219
vn 0.653808594 0.756835938 6.31809235E-06
vn 0.653808594 0.756835938 6.31809235E-06
vn 0.653808594 0.756835938 6.31809235E-06
vn -0 0.76171875 -0.647949219
vn -0 0.76171875 -0.647949219
vn -0 0.76171875 -0.647949219
vn -0.653808594 0.756835938 -5.06639481E-06
vn -0.653808594 0.756835938 -5.06639481E-06
vn -0.653808594 0.756835938 -5.06639481E-06
vn 2.90870667E-05 0.76171875 0.647949219
vn 2.90870667E-05 0.76171875 0.647949219
vn 2.90870667E-05 0.76171875 0.647949219
vn 0.653808594 0.756835938 6.31809235E-06
vn 0.653808594 0.756835938 6.31809235E-06
vn 0.653808594 0.756835938 6.31809235E-06
vn 1 0 0
vn 1 0 0
vn 1 0 0
vn 1 0 0
vn -0 0 -1
vn -0 0 -1
vn -0 0 -1
vn -0 0 -1
vn -1 0 0
vn -1 0 0
vn -1 0 0
vn -1 0 0
vn -0 0 1
vn -0 0 1
vn -0 0 1
vn -0 0 1
vn -3.15904617E-06 1 3.15904617E-06
vn -3.15904617E-06 1 3.15904617E-06
vn 2.8014183E-06 1 3.09944153E-06
vn 2.8014183E-06 1 3.09944153E-06
vn 2.8014183E-06 1 3.09944153E-06
vn 2.8014183E-06 1 3.09944153E-06
vn 2.8014183E-06 1 -2.86102295E-06
vn 2.8014183E-06 1 -2.86102295E-06
vn -3.15904617E-06 1 -2.86102295E-06
vn -3.15904617E-06 1 -2.86102295E-06
vn -3.15904617E-06 1 3.15904617E-06
vn -3.15904617E-06 1 3.15904617E-06
vn 2.8014183E-06 1 -2.86102295E-06
vn 2.8014183E-06 1 -2.86102295E-06
vn -3.15904617E-06 1 -2.86102295E-06
vn -3.15904617E-06 1 -2.86102295E-06
vn 1 0 1.85966492E-05
vn 1 0 1.85966492E-05
vn 1 0 1.85966492E-05
vn 1 0 1.85966492E-05
vn -0 0 1
vn -0 0 1
vn -0 0 1
vn -0 0 1
vn -0 0 -1
vn -0 0 -1
vn -0 0 -1
vn -0 0 -1
vn -1 0 0
vn -1 0 0
vn -1 0 0
vn -1 0 0
vn -0.381103516 0.905273438 0.187011719
vn -0.381103516 0.905273438 0.187011719
vn -0.381103516 0.905273438 0.187011719
vn -0.381103516 0.905273438 0.187011719
vn -0.388183594 0.921386719 -2.38418579E-07
vn -0.388183594 0.921386719 -2.38418579E-07
vn -0.388183594 0.921386719 -2.38418579E-07
vn -0.388183594 0.921386719 -2.38418579E-07
vn -0.381103516 0.905273438 0.187011719
vn -0.381103516 0.905273438 0.187011719
vn -0.381103516 0.905273438 0.187011719
vn -0.381103516 0.905273438 0.187011719
vn -6.61611557E-06 -0.979492188 -0.202270508
vn -6.61611557E-06 -0.979492188 -0.202270508
vn -6.61611557E-06 -0.979492188 -0.202270508
vn -6.61611557E-06 -0.979492188 -0.202270508
vn -8.28504562E-06 -1 0
vn -8.28504562E-06 -1 0
vn -8.28504562E-06 -1 0
vn -8.28504562E-06 -1 0
vn -8.88109207E-06 -0.979492188 -0.202270508
vn -8.88109207E-06 -0.979492188 -0.202270508
vn -8.88109207E-06 -0.979492188 -0.202270508
vn -8.88109207E-06 -0.979492188 -0.202270508
vn 1 2.64048576E-05 0
vn 1 2.64048576E-05 0
vn 1 6.10351562E-05 2.68220901E-06
vn 1 6.10351562E-05 2.68220901E-06
vn -1 -3.27825546E-05 0
vn -1 -3.27825546E-05 0
vn -1 -2.28881836E-05 0
vn -1 -2.28881836E-05 0
vn 1 7.72476196E-05 3.75509262E-06
vn 1 7.72476196E-05 3.75509262E-06
vn 1 3.98755074E-05 5.96046448E-07
vn 1 3.98755074E-05 5.96046448E-07
vn -1 0 0
vn -1 0 0
vn -1 -2.85506248E-05 0
vn -1 -2.85506248E-05 0
vn 1 6.10351562E-05 2.68220901E-06
vn 1 6.10351562E-05 2.68220901E-06
vn 1 7.72476196E-05 3.75509262E-06
vn 1 7.72476196E-05 3.75509262E-06
vn -1 -2.85506248E-05 0
vn -1 -2.85506248E-05 0
vn -1 -3.27825546E-05 0
vn -1 -3.27825546E-05 0
vn 0.381103516 0.905273438 0.187011719
vn 0.381103516 0.905273438 0.187011719
vn 0.381103516 0.905273438 0.187011719
vn 0.381103516 0.905273438 0.187011719
vn 0.381347656 0.905273438 0.187011719
vn 0.381347656 0.905273438 0.187011719
vn 0.381347656 0.905273438 0.187011719
vn 0.381347656 0.905273438 0.187011719
vn 0.388183594 0.921386719 4.76837158E-07
vn 0.388183594 0.921386719 4.76837158E-07
vn 0.388183594 0.921386719 4.76837158E-07
vn 0.388183594 0.921386719 4.76837158E-07
vn 1.58548355E-05 0.979492188 0.202270508
vn 1.58548355E-05 0.979492188 0.202270508
vn 1.58548355E-05 0.979492188 0.202270508
vn 1.58548355E-05 0.979492188 0.202270508
vn 1.10864639E-05 1 0
vn 1.10864639E-05 1 0
vn 1.10864639E-05 1 0
vn 1.10864639E-05 1 0
vn 1.28746033E-05 0.979492188 0.202270508
vn 1.28746033E-05 0.979492188 0.202270508
vn 1.28746033E-05 0.979492188 0.202270508
vn 1.28746033E-05 0.979492188 0.202270508
vn -8.88109207E-06 -0.979492188 -0.202270508
vn -8.88109207E-06 -0.979492188 -0.202270508
vn -8.88109207E-06 -0.979492188 -0.202270508
vn -8.88109207E-06 -0.979492188 -0.202270508
vn -1.10864639E-05 -1 0
vn -1.10864639E-05 -1 0
vn -1.10864639E-05 -1 0
vn -1.10864639E-05 -1 0
vn -1.18613243E-05 -0.979492188 -0.202270508
vn -1.18613243E-05 -0.979492188 -0.202270508
vn -1.18613243E-05 -0.979492188 -0.202270508
vn -1.18613243E-05 -0.979492188 -0.202270508
vn 1 1.05500221E-05 0
vn 1 1.05500221E-05 0
vn 1 -2.40802765E-05 2.68220901E-06
vn 1 -2.40802765E-05 2.68220901E-06
vn -1 -1.31130219E-06 0
vn -1 -1.31130219E-06 0
vn -1 -7.15255737E-06 0
vn -1 -7.15255737E-06 0
vn 1 -3.4570694E-05 3.75509262E-06
vn 1 -3.4570694E-05 3.75509262E-06
vn 1 1.43647194E-05 5.96046448E-07
vn 1 1.43647194E-05 5.96046448E-07
vn -1 0 0
vn -1 0 0
vn -1 3.09944153E-06 0
vn -1 3.09944153E-06 0
vn 1 -2.40802765E-05 2.68220901E-06
vn 1 -2.40802765E-05 2.68220901E-06
vn 1 -3.4570694E-05 3.75509262E-06
vn 1 -3.4570694E-05 3.75509262E-06
vn -1 3.09944153E-06 0
vn -1 3.09944153E-06 0
vn -1 -1.31130219E-06 0
vn -1 -1.31130219E-06 0
vn 1.58548355E-05 0.979492188 0.202270508
vn 1.58548355E-05 0.979492188 0.202270508
vn 1.58548355E-05 0.979492188 0.202270508
vn 1.58548355E-05 0.979492188 0.202270508
vn 1.10864639E-05 1 0
vn 1.10864639E-05 1 0
vn 1.10864639E-05 1 0
vn 1.10864639E-05 1 0
vn 1.28746033E-05 0.979492188 0.202270508
vn 1.28746033E-05 0.979492188 0.202270508
vn 1.28746033E-05 0.979492188 0.202270508
vn 1.28746033E-05 0.979492188 0.202270508
vn -8.88109207E-06 -0.979492188 -0.202270508
vn -8.88109207E-06 -0.979492188 -0.202270508
vn -8.88109207E-06 -0.979492188 -0.202270508
vn -8.88109207E-06 -0.979492188 -0.202270508
vn -1.10864639E-05 -1 0
vn -1.10864639E-05 -1 0
vn -1.10864639E-05 -1 0
vn -1.10864639E-05 -1 0
vn -1.18613243E-05 -0.979492188 -0.202270508
vn -1.18613243E-05 -0.979492188 -0.202270508
vn -1.18613243E-05 -0.979492188 -0.202270508
vn -1.18613243E-05 -0.979492188 -0.202270508
vn 1 1.05500221E-05 0
vn 1 1.05500221E-05 0
vn 1 -2.40802765E-05 2.68220901E-06
vn 1 -2.40802765E-05 2.68220901E-06
vn -1 -1.31130219E-06 0
vn -1 -1.31130219E-06 0
vn -1 -7.15255737E-06 0
vn -1 -7.15255737E-06 0
vn 1 -3.4570694E-05 3.75509262E-06
vn 1 -3.4570694E-05 3.75509262E-06
vn 1 1.43647194E-05 5.96046448E-07
vn 1 1.43647194E-05 5.96046448E-07
vn -1 0 0
vn -1 0 0
vn -1 3.09944153E-06 0
vn -1 3.09944153E-06 0
vn 1 -2.40802765E-05 2.68220901E-06
vn 1 -2.40802765E-05 2.68220901E-06
vn 1 -3.4570694E-05 3.75509262E-06
vn 1 -3.4570694E-05 3.75509262E-06
vn -1 3.09944153E-06 0
vn -1 3.09944153E-06 0
vn -1 -1.31130219E-06 0
vn -1 -1.31130219E-06 0
vn 1 0 0
vn 1 0 0
vn 1 0 0
vn 1 0 0
vn -0 0 -1
vn -0 0 -1
vn -0 0 -1
vn -0 0 -1
vn -1 0 0
vn -1 0 0
vn -1 0 0
vn -1 0 0
vn -0 0 1
vn -0 0 1
vn -0 0 1
vn -0 0 1
vn 1 0 0
vn 1 0 0
vn 1 0 0
vn 1 0 0
vn -3.34978104E-05 0 -1
vn -3.34978104E-05 0 -1
vn -3.34978104E-05 0 -1
vn -3.34978104E-05 0 -1
vn -1 0 0
vn -1 0 0
vn -1 0 0
vn -1 0 0
vn -0 0 1
vn -0 0 1
vn -0 0 1
vn -0 0 1
vn 1 0 0
vn 1 0 0
vn 1 0 0
vn 1 0 0
vn -0 0 -1
vn -0 0 -1
vn -0 0 -1
vn -0 0 -1
vn -1 0 0
vn -1 0 0
vn -1 0 0
vn -1 0 0
vn -0 0 1
vn -0 0 1
vn -0 0 1
vn -0 0 1
g Exterior_ColorFence_7_0
f 3/3/3 2/2/2 1/1/1
f 6/6/6 5/5/5 4/4/4
f 9/9/9 8/8/8 7/7/7
f 12/12/12 11/11/11 10/10/10
f 15/15/15 14/14/14 13/13/13
f 18/18/18 17/17/17 16/16/16
f 21/21/21 20/20/20 19/19/19
f 24/24/24 23/23/23 22/22/22
f 27/27/27 26/26/26 25/25/25
f 30/30/30 29/29/29 28/28/28
f 33/33/33 32/32/32 31/31/31
f 36/36/36 35/35/35 34/34/34
f 39/39/39 38/38/38 37/37/37
f 42/42/42 41/41/41 40/40/40
f 45/45/45 44/44/44 43/43/43
f 48/48/48 47/47/47 46/46/46
f 51/51/51 50/50/50 49/49/49
f 52/52/52 51/51/51 49/49/49
f 55/55/55 54/54/54 53/53/53
f 56/56/56 55/55/55 53/53/53
f 59/59/59 58/58/58 57/57/57
f 60/60/60 59/59/59 57/57/57
f 63/63/63 62/62/62 61/61/61
f 64/64/64 63/63/63 61/61/61
f 67/67/67 66/66/66 65/65/65
f 68/68/68 67/67/67 65/65/65
f 71/71/71 70/70/70 69/69/69
f 72/72/72 71/71/71 69/69/69
f 75/75/75 74/74/74 73/73/73
f 76/76/76 75/75/75 73/73/73
f 79/79/79 78/78/78 77/77/77
f 80/80/80 79/79/79 77/77/77
f 83/83/83 82/82/82 81/81/81
f 84/84/84 83/83/83 81/81/81
f 87/87/87 86/86/86 85/85/85
f 88/88/88 87/87/87 85/85/85
f 91/91/91 90/90/90 89/89/89
f 92/92/92 91/91/91 89/89/89
f 95/95/95 94/94/94 93/93/93
f 96/96/96 95/95/95 93/93/93
f 99/99/99 98/98/98 97/97/97
f 100/100/100 99/99/99 97/97/97
f 103/103/103 102/102/102 101/101/101
f 104/104/104 103/103/103 101/101/101
f 107/107/107 106/106/106 105/105/105
f 108/108/108 107/107/107 105/105/105
f 111/111/111 110/110/110 109/109/109
f 112/112/112 111/111/111 109/109/109
f 115/115/115 114/114/114 113/113/113
f 116/116/116 115/115/115 113/113/113
f 119/119/119 118/118/118 117/117/117
f 120/120/120 119/119/119 117/117/117
f 123/123/123 122/122/122 121/121/121
f 124/124/124 123/123/123 121/121/121
f 127/127/127 126/126/126 125/125/125
f 128/128/128 127/127/127 125/125/125
f 131/131/131 130/130/130 129/129/129
f 132/132/132 131/131/131 129/129/129
f 135/135/135 134/134/134 133/133/133
f 136/136/136 135/135/135 133/133/133
f 139/139/139 138/138/138 137/137/137
f 140/140/140 139/139/139 137/137/137
f 143/143/143 142/142/142 141/141/141
f 144/144/144 143/143/143 141/141/141
f 147/147/147 146/146/146 145/145/145
f 148/148/148 147/147/147 145/145/145
f 151/151/151 150/150/150 149/149/149
f 152/152/152 151/151/151 149/149/149
f 155/155/155 154/154/154 153/153/153
f 156/156/156 155/155/155 153/153/153
f 159/159/159 158/158/158 157/157/157
f 160/160/160 159/159/159 157/157/157
f 163/163/163 162/162/162 161/161/161
f 164/164/164 163/163/163 161/161/161
f 167/167/167 166/166/166 165/165/165
f 168/168/168 167/167/167 165/165/165
f 171/171/171 170/170/170 169/169/169
f 172/172/172 171/171/171 169/169/169
f 175/175/175 174/174/174 173/173/173
f 176/176/176 175/175/175 173/173/173
f 179/179/179 178/178/178 177/177/177
f 180/180/180 179/179/179 177/177/177
f 183/183/183 182/182/182 181/181/181
f 184/184/184 183/183/183 181/181/181
f 187/187/187 186/186/186 185/185/185
f 188/188/188 187/187/187 185/185/185
f 191/191/191 190/190/190 189/189/189
f 192/192/192 191/191/191 189/189/189
f 195/195/195 194/194/194 193/193/193
f 196/196/196 195/195/195 193/193/193
f 199/199/199 198/198/198 197/197/197
f 200/200/200 199/199/199 197/197/197
f 203/203/203 202/202/202 201/201/201
f 204/204/204 203/203/203 201/201/201
f 207/207/207 206/206/206 205/205/205
f 208/208/208 207/207/207 205/205/205
f 211/211/211 210/210/210 209/209/209
f 212/212/212 211/211/211 209/209/209
f 215/215/215 214/214/214 213/213/213
f 216/216/216 215/215/215 213/213/213
f 219/219/219 218/218/218 217/217/217
f 220/220/220 219/219/219 217/217/217
f 223/223/223 222/222/222 221/221/221
f 224/224/224 223/223/223 221/221/221
f 227/227/227 226/226/226 225/225/225
f 228/228/228 227/227/227 225/225/225
f 231/231/231 230/230/230 229/229/229
f 232/232/232 231/231/231 229/229/229
f 235/235/235 234/234/234 233/233/233
f 236/236/236 235/235/235 233/233/233
f 239/239/239 238/238/238 237/237/237
f 240/240/240 239/239/239 237/237/237
f 243/243/243 242/242/242 241/241/241
f 244/244/244 243/243/243 241/241/241
f 247/247/247 246/246/246 245/245/245
f 248/248/248 247/247/247 245/245/245
f 251/251/251 250/250/250 249/249/249
f 252/252/252 251/251/251 249/249/249
f 255/255/255 254/254/254 253/253/253
f 256/256/256 255/255/255 253/253/253
f 259/259/259 258/258/258 257/257/257
f 260/260/260 259/259/259 257/257/257
f 263/263/263 262/262/262 261/261/261
f 264/264/264 263/263/263 261/261/261
f 267/267/267 266/266/266 265/265/265
f 268/268/268 267/267/267 265/265/265
f 271/271/271 270/270/270 269/269/269
f 272/272/272 271/271/271 269/269/269
f 275/275/275 274/274/274 273/273/273
f 276/276/276 275/275/275 273/273/273
f 279/279/279 278/278/278 277/277/277
f 280/280/280 279/279/279 277/277/277
f 283/283/283 282/282/282 281/281/281
f 284/284/284 283/283/283 281/281/281
f 287/287/287 286/286/286 285/285/285
f 288/288/288 287/287/287 285/285/285
f 291/291/291 290/290/290 289/289/289
f 292/292/292 291/291/291 289/289/289
f 295/295/295 294/294/294 293/293/293
f 296/296/296 295/295/295 293/293/293
f 299/299/299 298/298/298 297/297/297
f 300/300/300 299/299/299 297/297/297
