g EnergyCable_Curve_C
v 0.281241 -0.363588184 -0.0885368958
v 0.280509263 -0.309498817 -0.0881678164
v 0.20550926 -0.309498817 -0.142658517
v 0.206692964 -0.370251298 -0.142927721
v 0.293611914 -0.444024205 -0.0898168907
v 0.222948983 -0.466333747 -0.144464165
v 0.323663861 -0.521185756 -0.0910009146
v 0.259899825 -0.557345033 -0.146512628
v 0.321756661 -0.640740633 -0.147793412
v 0.374658495 -0.589252472 -0.0916609541
v 0.441756666 -0.641807377 -0.0909822732
v 0.403269351 -0.704996347 -0.146475479
v 0.518869519 -0.675697029 -0.0897677615
v 0.206692964 -0.370251298 -0.142927721
v 0.20550926 -0.309498817 -0.142658517
v 0.112804182 -0.309498817 -0.142658502
v 0.114838101 -0.376851559 -0.143268883
v 0.222948983 -0.466333747 -0.144464165
v 0.137380823 -0.493052065 -0.143618777
v 0.114838101 -0.376851559 -0.143268883
v 0.112804182 -0.309498817 -0.142658502
v 0.0378041826 -0.309498817 -0.0881677866
v 0.0403495021 -0.382172465 -0.0887058228
v 0.00915672258 -0.309498817 0
v 0.0117724603 -0.384364694 1.1321958E-10
v 0.137380823 -0.493052065 -0.143618777
v 0.0689474493 -0.513801396 -0.0885934606
v 0.0428518653 -0.521460712 -1.95510097E-09
v 0.119942628 -0.63606298 -0.0896196738
v 0.0964566767 -0.649264276 -5.07263653E-09
v 0.184703514 -0.773996592 -8.70608652E-09
v 0.182020798 -0.601163745 -0.145687073
v 0.204641789 -0.754627049 -0.09078677
v 0.259899825 -0.557345033 -0.146512628
v 0.222948983 -0.466333747 -0.144464165
v 0.256869644 -0.703854203 -0.147225112
v 0.356608272 -0.782133341 -0.14564164
v 0.319442064 -0.843612909 -0.089584291
v 0.305384219 -0.866866529 -1.25561073E-08
v 0.467593282 -0.831223726 -0.143535823
v 0.445919782 -0.899447858 -0.088578254
v 0.437928766 -0.925519228 -1.58247548E-08
v 0.583521962 -0.857038915 -0.143287942
v 0.592648089 -0.765389383 -0.142905265
v 0.656289339 -0.772239923 -0.142658502
v 0.656289339 -0.864944994 -0.142658532
v 0.576060474 -0.931376219 -0.088708505
v 0.573043406 -0.959907055 -1.78777597E-08
v 0.656289339 -0.939944983 -0.0881678239
v 0.656289339 -0.968592405 -1.78813924E-08
v 0.0117724603 -0.384364694 1.1321958E-10
v 0.00915672258 -0.309498817 0
v 0.0378041826 -0.309498817 0.0881677866
v 0.0403495021 -0.382172465 0.0887058228
v 0.112804182 -0.309498817 0.142658472
v 0.0428518653 -0.521460712 -1.95510097E-09
v 0.114838101 -0.376851559 0.143268853
v 0.0689474493 -0.513801396 0.0885934606
v 0.137380823 -0.493052065 0.143618733
v 0.0964566767 -0.649264276 -5.07263653E-09
v 0.119942628 -0.63606298 0.0896196514
v 0.182020798 -0.601163745 0.145687029
v 0.256869644 -0.703854203 0.147225067
v 0.204641789 -0.754627049 0.0907867327
v 0.184703514 -0.773996592 -8.70608652E-09
v 0.305384219 -0.866866529 -1.25561073E-08
v 0.319442064 -0.843612909 0.0895842463
v 0.356608272 -0.782133341 0.145641595
v 0.437928766 -0.925519228 -1.58247548E-08
v 0.445919782 -0.899447858 0.0885781944
v 0.467593282 -0.831223726 0.143535763
v 0.573043406 -0.959907055 -1.78777597E-08
v 0.576060474 -0.931376159 0.088708438
v 0.656289339 -0.968592405 -1.78813924E-08
v 0.583521962 -0.857039034 0.143287882
v 0.656289339 -0.939944983 0.0881677642
v 0.656289339 -0.864944994 0.142658457
v 0.114838101 -0.376851559 0.143268853
v 0.112804182 -0.309498817 0.142658472
v 0.20550926 -0.309498817 0.142658472
v 0.206692964 -0.370251298 0.142927676
v 0.137380823 -0.493052065 0.143618733
v 0.280509263 -0.309498817 0.0881677717
v 0.222948983 -0.466333747 0.14446412
v 0.182020798 -0.601163745 0.145687029
v 0.281241 -0.363588184 0.0885368511
v 0.309156716 -0.309498817 -8.94069618E-09
v 0.293611914 -0.444024205 0.0898168534
v 0.259899825 -0.557345033 0.146512598
v 0.323663861 -0.521185756 0.0910008773
v 0.374658495 -0.589252472 0.0916609168
v 0.321756661 -0.640740633 0.147793382
v 0.256869644 -0.703854203 0.147225067
v 0.356608272 -0.782133341 0.145641595
v 0.403269351 -0.704996347 0.146475434
v 0.441756666 -0.641807377 0.090982236
v 0.467593282 -0.831223726 0.143535763
v 0.495520324 -0.746034443 0.144366905
v 0.518869519 -0.675697029 0.0897677243
v 0.583521962 -0.857039034 0.143287882
v 0.592648089 -0.765389383 0.142905235
v 0.656289339 -0.864944994 0.142658457
v 0.601293862 -0.691124737 0.0884805769
v 0.656289339 -0.772239923 0.142658472
v 0.656289339 -0.697239876 0.0881677791
v 0.495520324 -0.746034443 -0.144366935
v 0.592648089 -0.765389383 -0.142905265
v 0.601293862 -0.691124737 -0.0884805918
v 0.656289339 -0.697239876 -0.0881678015
v 0.656289339 -0.772239923 -0.142658502
v 0.467593282 -0.831223726 -0.143535823
v 0.592648089 -0.765389383 -0.142905265
v 0.495520324 -0.746034443 -0.144366935
v 0.356608272 -0.782133341 -0.14564164
v 0.403269351 -0.704996347 -0.146475479
v 0.256869644 -0.703854203 -0.147225112
v 0.321756661 -0.640740633 -0.147793412
v 0.259899825 -0.557345033 -0.146512628
v 0.601293862 -0.691124737 -0.0884805918
v 0.656289339 -0.697239876 -0.0881678015
v 0.656289339 -0.668592453 -8.94069618E-09
v 0.604739726 -0.662428141 -8.89588758E-09
v 0.656289339 -0.697239876 0.0881677791
v 0.601293862 -0.691124737 0.0884805769
v 0.518869519 -0.675697029 -0.0897677615
v 0.495520324 -0.746034443 -0.144366935
v 0.403269351 -0.704996347 -0.146475479
v 0.527754366 -0.648382068 -8.75134454E-09
v 0.518869519 -0.675697029 0.0897677243
v 0.441756666 -0.641807377 -0.0909822732
v 0.456588358 -0.617456317 -8.61827765E-09
v 0.441756666 -0.641807377 0.090982236
v 0.374658495 -0.589252472 -0.0916609541
v 0.394947946 -0.569495201 -8.55312177E-09
v 0.374658495 -0.589252472 0.0916609168
v 0.323663861 -0.521185756 0.0910008773
v 0.348224699 -0.50724417 -8.61622329E-09
v 0.323663861 -0.521185756 -0.0910009146
v 0.293611914 -0.444024205 -0.0898168907
v 0.321037143 -0.43555662 -8.74720474E-09
v 0.293611914 -0.444024205 0.0898168534
v 0.281241 -0.363588184 -0.0885368958
v 0.310071111 -0.360932142 -8.88891893E-09
v 0.281241 -0.363588184 0.0885368511
v 0.280509263 -0.309498817 -0.0881678164
v 0.309156716 -0.309498817 -8.94069618E-09
vt 0.6796875 0.51953125
vt 0.667480469 0.51953125
vt 0.667480469 0.538085938
vt 0.6796875 0.538085938
vt 0.701171875 0.51953125
vt 0.700683594 0.538085938
vt 0.720703125 0.51953125
vt 0.720703125 0.538085938
vt 0.7421875 0.538085938
vt 0.7421875 0.51953125
vt 0.763671875 0.51953125
vt 0.763671875 0.538085938
vt 0.784667969 0.51953125
vt 0.6796875 0.356201172
vt 0.667480469 0.356201172
vt 0.667480469 0.373779297
vt 0.6796875 0.373779297
vt 0.700195312 0.356201172
vt 0.700195312 0.373779297
vt 0.6796875 0.373779297
vt 0.667480469 0.373779297
vt 0.667480469 0.392089844
vt 0.6796875 0.392089844
vt 0.667480469 0.411376953
vt 0.6796875 0.411376953
vt 0.700195312 0.373779297
vt 0.699707031 0.392089844
vt 0.699707031 0.411376953
vt 0.720703125 0.392089844
vt 0.720703125 0.411376953
vt 0.7421875 0.411376953
vt 0.720703125 0.373779297
vt 0.7421875 0.392089844
vt 0.720703125 0.356201172
vt 0.700195312 0.356201172
vt 0.7421875 0.373779297
vt 0.763671875 0.373779297
vt 0.763671875 0.392089844
vt 0.763671875 0.411376953
vt 0.784667969 0.373779297
vt 0.784667969 0.392089844
vt 0.784667969 0.411376953
vt 0.805664062 0.373779297
vt 0.805664062 0.356201172
vt 0.814453125 0.356201172
vt 0.814453125 0.373779297
vt 0.805664062 0.392089844
vt 0.805664062 0.411376953
vt 0.814453125 0.392089844
vt 0.814453125 0.411376953
vt 0.6796875 0.411376953
vt 0.667480469 0.411376953
vt 0.667480469 0.430419922
vt 0.6796875 0.430419922
vt 0.667480469 0.448730469
vt 0.699707031 0.411376953
vt 0.6796875 0.448730469
vt 0.699707031 0.430419922
vt 0.700195312 0.448730469
vt 0.720703125 0.411376953
vt 0.720703125 0.430419922
vt 0.720703125 0.448730469
vt 0.7421875 0.448730469
vt 0.7421875 0.430419922
vt 0.7421875 0.411376953
vt 0.763671875 0.411376953
vt 0.763671875 0.430419922
vt 0.763671875 0.448730469
vt 0.784667969 0.411376953
vt 0.784667969 0.430419922
vt 0.784667969 0.448730469
vt 0.805664062 0.411376953
vt 0.805664062 0.430419922
vt 0.814453125 0.411376953
vt 0.805664062 0.448730469
vt 0.814453125 0.430419922
vt 0.814453125 0.448730469
vt 0.6796875 0.448730469
vt 0.667480469 0.448730469
vt 0.667480469 0.466308594
vt 0.6796875 0.466308594
vt 0.700195312 0.448730469
vt 0.667480469 0.483886719
vt 0.700683594 0.466308594
vt 0.720703125 0.448730469
vt 0.6796875 0.483886719
vt 0.667480469 0.501464844
vt 0.700683594 0.483886719
vt 0.720703125 0.466308594
vt 0.720703125 0.483886719
vt 0.7421875 0.483886719
vt 0.7421875 0.466308594
vt 0.7421875 0.448730469
vt 0.763671875 0.448730469
vt 0.763671875 0.466308594
vt 0.763671875 0.483886719
vt 0.784667969 0.448730469
vt 0.784667969 0.466308594
vt 0.784667969 0.483886719
vt 0.805664062 0.448730469
vt 0.805664062 0.466308594
vt 0.814453125 0.448730469
vt 0.805664062 0.483886719
vt 0.814453125 0.466308594
vt 0.814453125 0.483886719
vt 0.784667969 0.538085938
vt 0.805664062 0.538085938
vt 0.805664062 0.51953125
vt 0.814453125 0.51953125
vt 0.814453125 0.538085938
vt 0.784667969 0.373779297
vt 0.805664062 0.356201172
vt 0.784667969 0.356201172
vt 0.763671875 0.373779297
vt 0.763671875 0.356201172
vt 0.7421875 0.373779297
vt 0.7421875 0.356201172
vt 0.720703125 0.356201172
vt 0.805664062 0.51953125
vt 0.814453125 0.51953125
vt 0.814453125 0.501464844
vt 0.805664062 0.501464844
vt 0.814453125 0.483886719
vt 0.805664062 0.483886719
vt 0.784667969 0.51953125
vt 0.784667969 0.538085938
vt 0.763671875 0.538085938
vt 0.784667969 0.501464844
vt 0.784667969 0.483886719
vt 0.763671875 0.51953125
vt 0.763671875 0.501464844
vt 0.763671875 0.483886719
vt 0.7421875 0.51953125
vt 0.7421875 0.501464844
vt 0.7421875 0.483886719
vt 0.720703125 0.483886719
vt 0.720703125 0.501464844
vt 0.720703125 0.51953125
vt 0.701171875 0.51953125
vt 0.701171875 0.501464844
vt 0.700683594 0.483886719
vt 0.6796875 0.51953125
vt 0.6796875 0.501464844
vt 0.6796875 0.483886719
vt 0.667480469 0.51953125
vt 0.667480469 0.501464844
vn 0.791992188 0.0853881836 -0.604492188
vn 0.80078125 0.0158538818 -0.598632812
vn 0.290283203 0.0108947754 -0.95703125
vn 0.270996094 0.0374755859 -0.961914062
vn 0.765625 0.216552734 -0.605957031
vn 0.251220703 0.0852050781 -0.964355469
vn 0.692871094 0.395996094 -0.602539062
vn 0.22253418 0.142333984 -0.964355469
vn 0.188232422 0.183227539 -0.96484375
vn 0.571289062 0.55859375 -0.6015625
vn 0.416748047 0.6796875 -0.603515625
vn 0.14855957 0.217041016 -0.96484375
vn 0.244018555 0.755859375 -0.607421875
vn 0.270996094 0.0374755859 -0.961914062
vn 0.290283203 0.0108947754 -0.95703125
vn -0.329101562 -0.00367927551 -0.944335938
vn -0.349121094 -0.045501709 -0.936035156
vn 0.251220703 0.0852050781 -0.964355469
vn -0.354248047 -0.0993652344 -0.9296875
vn -0.349121094 -0.045501709 -0.936035156
vn -0.329101562 -0.00367927551 -0.944335938
vn -0.817871094 -0.0239868164 -0.574707031
vn -0.819335938 -0.122436523 -0.560058594
vn -0.999511719 -0.033782959 0
vn -0.98828125 -0.152832031 0
vn -0.354248047 -0.0993652344 -0.9296875
vn -0.798828125 -0.247802734 -0.548339844
vn -0.953613281 -0.301269531 0
vn -0.735351562 -0.409667969 -0.540039062
vn -0.871582031 -0.489990234 0
vn -0.721191406 -0.692871094 0
vn -0.334472656 -0.175415039 -0.92578125
vn -0.606933594 -0.583496094 -0.5390625
vn 0.22253418 0.142333984 -0.964355469
vn 0.251220703 0.0852050781 -0.964355469
vn -0.2734375 -0.263427734 -0.925292969
vn -0.184448242 -0.329101562 -0.926269531
vn -0.4296875 -0.723144531 -0.541015625
vn -0.513671875 -0.857910156 -2.98023224E-07
vn -0.108886719 -0.350097656 -0.930175781
vn -0.268066406 -0.791015625 -0.549804688
vn -0.325195312 -0.945800781 -4.17232513E-07
vn -0.059753418 -0.343505859 -0.9375
vn 0.0519714355 0.273193359 -0.960449219
vn 0.0349731445 0.269287109 -0.962402344
vn -0.0306091309 -0.345703125 -0.937988281
vn -0.154296875 -0.8125 -0.562011719
vn -0.190185547 -0.981933594 0
vn -0.0836181641 -0.8203125 -0.565429688
vn -0.103881836 -0.994628906 4.17232513E-07
vn -0.98828125 -0.152832031 0
vn -0.999511719 -0.033782959 0
vn -0.817871094 -0.0239868164 0.574707031
vn -0.819335938 -0.122436523 0.560058594
vn -0.329101562 -0.00367927551 0.944335938
vn -0.953613281 -0.301269531 0
vn -0.349121094 -0.045501709 0.936035156
vn -0.798828125 -0.247802734 0.548339844
vn -0.354248047 -0.0993652344 0.9296875
vn -0.871582031 -0.489990234 0
vn -0.735351562 -0.409667969 0.540039062
vn -0.334472656 -0.175415039 0.92578125
vn -0.2734375 -0.263427734 0.925292969
vn -0.606933594 -0.583496094 0.5390625
vn -0.721191406 -0.692871094 0
vn -0.513671875 -0.857910156 -2.98023224E-07
vn -0.4296875 -0.723144531 0.541015625
vn -0.184448242 -0.329101562 0.926269531
vn -0.325195312 -0.945800781 -4.17232513E-07
vn -0.268066406 -0.791015625 0.549804688
vn -0.108886719 -0.350097656 0.930175781
vn -0.190185547 -0.981933594 0
vn -0.154296875 -0.8125 0.562011719
vn -0.103881836 -0.994628906 4.17232513E-07
vn -0.059753418 -0.343505859 0.9375
vn -0.0836181641 -0.8203125 0.565429688
vn -0.0306091309 -0.345703125 0.937988281
vn -0.349121094 -0.045501709 0.936035156
vn -0.329101562 -0.00367927551 0.944335938
vn 0.290283203 0.0108947754 0.95703125
vn 0.270996094 0.0374755859 0.961914062
vn -0.354248047 -0.0993652344 0.9296875
vn 0.80078125 0.0158538818 0.598632812
vn 0.251220703 0.0852050781 0.964355469
vn -0.334472656 -0.175415039 0.92578125
vn 0.791992188 0.0853881836 0.604492188
vn 1 0.0167388916 0
vn 0.765625 0.216552734 0.605957031
vn 0.22253418 0.142333984 0.964355469
vn 0.692871094 0.395996094 0.602539062
vn 0.571289062 0.55859375 0.6015625
vn 0.188232422 0.183227539 0.96484375
vn -0.2734375 -0.263427734 0.925292969
vn -0.184448242 -0.329101562 0.926269531
vn 0.14855957 0.217041016 0.96484375
vn 0.416748047 0.6796875 0.603515625
vn -0.108886719 -0.350097656 0.930175781
vn 0.0928955078 0.247802734 0.964355469
vn 0.244018555 0.755859375 0.607421875
vn -0.059753418 -0.343505859 0.9375
vn 0.0519714355 0.273193359 0.960449219
vn -0.0306091309 -0.345703125 0.937988281
vn 0.130859375 0.787597656 0.602050781
vn 0.0349731445 0.269287109 0.962402344
vn 0.0913696289 0.787597656 0.609375
vn 0.0928955078 0.247802734 -0.964355469
vn 0.0519714355 0.273193359 -0.960449219
vn 0.130859375 0.787597656 -0.602050781
vn 0.0913696289 0.787597656 -0.609375
vn 0.0349731445 0.269287109 -0.962402344
vn -0.108886719 -0.350097656 -0.930175781
vn 0.0519714355 0.273193359 -0.960449219
vn 0.0928955078 0.247802734 -0.964355469
vn -0.184448242 -0.329101562 -0.926269531
vn 0.14855957 0.217041016 -0.96484375
vn -0.2734375 -0.263427734 -0.925292969
vn 0.188232422 0.183227539 -0.96484375
vn 0.22253418 0.142333984 -0.964355469
vn 0.130859375 0.787597656 -0.602050781
vn 0.0913696289 0.787597656 -0.609375
vn 0.11541748 0.993164062 0
vn 0.157348633 0.987304688 0
vn 0.0913696289 0.787597656 0.609375
vn 0.130859375 0.787597656 0.602050781
vn 0.244018555 0.755859375 -0.607421875
vn 0.0928955078 0.247802734 -0.964355469
vn 0.14855957 0.217041016 -0.96484375
vn 0.295654297 0.955078125 0
vn 0.244018555 0.755859375 0.607421875
vn 0.416748047 0.6796875 -0.603515625
vn 0.514160156 0.857421875 0
vn 0.416748047 0.6796875 0.603515625
vn 0.571289062 0.55859375 -0.6015625
vn 0.713867188 0.700195312 0
vn 0.571289062 0.55859375 0.6015625
vn 0.692871094 0.395996094 0.602539062
vn 0.873046875 0.487304688 0
vn 0.692871094 0.395996094 -0.602539062
vn 0.765625 0.216552734 -0.605957031
vn 0.965820312 0.258544922 0
vn 0.765625 0.216552734 0.605957031
vn 0.791992188 0.0853881836 -0.604492188
vn 0.995117188 0.0975952148 0
vn 0.791992188 0.0853881836 0.604492188
vn 0.80078125 0.0158538818 -0.598632812
vn 1 0.0167388916 0
g EnergyCable_Curve_C_0
f 3/3/3 2/2/2 1/1/1
f 4/4/4 3/3/3 1/1/1
f 4/4/4 1/1/1 5/5/5
f 6/6/6 4/4/4 5/5/5
f 6/6/6 5/5/5 7/7/7
f 8/8/8 6/6/6 7/7/7
f 8/8/8 7/7/7 9/9/9
f 7/7/7 10/10/10 9/9/9
f 10/10/10 11/11/11 9/9/9
f 11/11/11 12/12/12 9/9/9
f 11/11/11 13/13/13 12/12/12
f 16/16/16 15/15/15 14/14/14
f 17/17/17 16/16/16 14/14/14
f 17/17/17 14/14/14 18/18/18
f 19/19/19 17/17/17 18/18/18
f 22/22/22 21/21/21 20/20/20
f 23/23/23 22/22/22 20/20/20
f 24/24/24 22/22/22 23/23/23
f 25/25/25 24/24/24 23/23/23
f 23/23/23 20/20/20 26/26/26
f 25/25/25 23/23/23 27/27/27
f 27/27/27 23/23/23 26/26/26
f 28/28/28 25/25/25 27/27/27
f 28/28/28 27/27/27 29/29/29
f 30/30/30 28/28/28 29/29/29
f 30/30/30 29/29/29 31/31/31
f 27/27/27 26/26/26 32/32/32
f 29/29/29 27/27/27 32/32/32
f 29/29/29 33/33/33 31/31/31
f 29/29/29 32/32/32 33/33/33
f 32/32/32 26/26/26 34/34/34
f 26/26/26 35/35/35 34/34/34
f 32/32/32 34/34/34 36/36/36
f 32/32/32 36/36/36 33/33/33
f 36/36/36 37/37/37 33/33/33
f 33/33/33 38/38/38 31/31/31
f 37/37/37 38/38/38 33/33/33
f 38/38/38 39/39/39 31/31/31
f 37/37/37 40/40/40 38/38/38
f 38/38/38 41/41/41 39/39/39
f 40/40/40 41/41/41 38/38/38
f 41/41/41 42/42/42 39/39/39
f 40/40/40 43/43/43 41/41/41
f 44/44/44 43/43/43 40/40/40
f 44/44/44 45/45/45 43/43/43
f 45/45/45 46/46/46 43/43/43
f 41/41/41 47/47/47 42/42/42
f 43/43/43 47/47/47 41/41/41
f 43/43/43 46/46/46 47/47/47
f 47/47/47 48/48/48 42/42/42
f 46/46/46 49/49/49 47/47/47
f 47/47/47 49/49/49 48/48/48
f 49/49/49 50/50/50 48/48/48
f 53/53/53 52/52/52 51/51/51
f 54/54/54 53/53/53 51/51/51
f 55/55/55 53/53/53 54/54/54
f 54/54/54 51/51/51 56/56/56
f 57/57/57 55/55/55 54/54/54
f 58/58/58 54/54/54 56/56/56
f 57/57/57 54/54/54 58/58/58
f 59/59/59 57/57/57 58/58/58
f 58/58/58 56/56/56 60/60/60
f 59/59/59 58/58/58 61/61/61
f 61/61/61 58/58/58 60/60/60
f 62/62/62 59/59/59 61/61/61
f 62/62/62 61/61/61 63/63/63
f 61/61/61 60/60/60 64/64/64
f 61/61/61 64/64/64 63/63/63
f 60/60/60 65/65/65 64/64/64
f 65/65/65 66/66/66 64/64/64
f 64/64/64 67/67/67 63/63/63
f 66/66/66 67/67/67 64/64/64
f 67/67/67 68/68/68 63/63/63
f 66/66/66 69/69/69 67/67/67
f 67/67/67 70/70/70 68/68/68
f 69/69/69 70/70/70 67/67/67
f 70/70/70 71/71/71 68/68/68
f 69/69/69 72/72/72 70/70/70
f 70/70/70 73/73/73 71/71/71
f 72/72/72 73/73/73 70/70/70
f 72/72/72 74/74/74 73/73/73
f 73/73/73 75/75/75 71/71/71
f 74/74/74 76/76/76 73/73/73
f 73/73/73 76/76/76 75/75/75
f 76/76/76 77/77/77 75/75/75
f 80/80/80 79/79/79 78/78/78
f 81/81/81 80/80/80 78/78/78
f 81/81/81 78/78/78 82/82/82
f 83/83/83 80/80/80 81/81/81
f 84/84/84 81/81/81 82/82/82
f 84/84/84 82/82/82 85/85/85
f 86/86/86 83/83/83 81/81/81
f 86/86/86 81/81/81 84/84/84
f 87/87/87 83/83/83 86/86/86
f 88/88/88 86/86/86 84/84/84
f 88/88/88 84/84/84 89/89/89
f 89/89/89 84/84/84 85/85/85
f 90/90/90 88/88/88 89/89/89
f 90/90/90 89/89/89 91/91/91
f 89/89/89 85/85/85 92/92/92
f 89/89/89 92/92/92 91/91/91
f 85/85/85 93/93/93 92/92/92
f 93/93/93 94/94/94 92/92/92
f 92/92/92 95/95/95 91/91/91
f 94/94/94 95/95/95 92/92/92
f 95/95/95 96/96/96 91/91/91
f 94/94/94 97/97/97 95/95/95
f 95/95/95 98/98/98 96/96/96
f 97/97/97 98/98/98 95/95/95
f 98/98/98 99/99/99 96/96/96
f 97/97/97 100/100/100 98/98/98
f 98/98/98 101/101/101 99/99/99
f 100/100/100 101/101/101 98/98/98
f 100/100/100 102/102/102 101/101/101
f 101/101/101 103/103/103 99/99/99
f 102/102/102 104/104/104 101/101/101
f 101/101/101 104/104/104 103/103/103
f 104/104/104 105/105/105 103/103/103
f 108/108/108 107/107/107 106/106/106
f 108/108/108 109/109/109 107/107/107
f 109/109/109 110/110/110 107/107/107
f 113/113/113 112/112/112 111/111/111
f 113/113/113 111/111/111 114/114/114
f 115/115/115 113/113/113 114/114/114
f 115/115/115 114/114/114 116/116/116
f 117/117/117 115/115/115 116/116/116
f 118/118/118 117/117/117 116/116/116
f 121/121/121 120/120/120 119/119/119
f 122/122/122 121/121/121 119/119/119
f 123/123/123 121/121/121 122/122/122
f 124/124/124 123/123/123 122/122/122
f 122/122/122 119/119/119 125/125/125
f 125/125/125 119/119/119 126/126/126
f 125/125/125 126/126/126 127/127/127
f 124/124/124 122/122/122 128/128/128
f 128/128/128 122/122/122 125/125/125
f 129/129/129 124/124/124 128/128/128
f 128/128/128 125/125/125 130/130/130
f 129/129/129 128/128/128 131/131/131
f 131/131/131 128/128/128 130/130/130
f 132/132/132 129/129/129 131/131/131
f 131/131/131 130/130/130 133/133/133
f 132/132/132 131/131/131 134/134/134
f 134/134/134 131/131/131 133/133/133
f 135/135/135 132/132/132 134/134/134
f 136/136/136 135/135/135 134/134/134
f 137/137/137 134/134/134 133/133/133
f 137/137/137 136/136/136 134/134/134
f 138/138/138 137/137/137 133/133/133
f 138/138/138 139/139/139 137/137/137
f 137/137/137 140/140/140 136/136/136
f 139/139/139 140/140/140 137/137/137
f 140/140/140 141/141/141 136/136/136
f 139/139/139 142/142/142 140/140/140
f 140/140/140 143/143/143 141/141/141
f 142/142/142 143/143/143 140/140/140
f 143/143/143 144/144/144 141/141/141
f 142/142/142 145/145/145 143/143/143
f 143/143/143 146/146/146 144/144/144
f 145/145/145 146/146/146 143/143/143
