g Roof_Museum_Exterior_Chimney_2
v 8.56946372E-08 -2.28400183 -0.882313848
v -0.623890281 -0.771141648 -0.623889744
v -0.623890281 -2.28400183 -0.623889744
v 0.62389046 -2.28400183 -0.623889744
v 8.56946372E-08 -0.771141648 -0.882313848
v 0.62389046 -0.771141648 -0.623889744
v 8.56946372E-08 0.329107344 -0.882313848
v 0.62389046 0.329107344 -0.623889744
v 8.56946372E-08 2.25527191 -0.882313848
v 0.62389046 2.25527191 -0.623889744
v 8.56946372E-08 3.43192458 -0.882313848
v 0.62389046 3.43192458 -0.623889744
v 8.56946372E-08 4.81412697 -0.882313848
v 0.62389046 4.81412697 -0.623889744
v 8.56946372E-08 7.65850163 -0.882313848
v 0.62389046 7.65850163 -0.623889744
v 0.918985665 -3.97412372 -0.90531677
v 0.62389046 -2.28400183 -0.623889744
v 8.56946372E-08 -2.28400183 -0.882313848
v -0.000892858661 -4.04417276 -1.27909851
v -0.623890281 -2.28400183 -0.623889744
v -0.920251369 -3.9764688 -0.903601646
v -0.920251369 -3.9764688 -0.903601646
v -0.623890281 -2.28400183 -0.623889744
v -0.882313132 -2.28400183 6.3045843E-07
v -1.30053449 -3.81066799 0.00121278863
v -1.30053449 -3.81066799 0.00121278863
v -0.882313132 -2.28400183 6.3045843E-07
v -0.623890281 -2.2840054 0.623888552
v -0.918985486 -3.64389801 0.905319214
v 8.56946372E-08 -2.2840054 0.88231504
v 0.000893030025 -3.57384658 1.27909851
v 0.000893030025 -3.57384658 1.27909851
v 8.56946372E-08 -2.2840054 0.88231504
v 0.62389046 -2.2840054 0.623888552
v 0.920246661 -3.64155173 0.903601646
v 0.920246661 -3.64155173 0.903601646
v 0.62389046 -2.2840054 0.623888552
v 0.882313311 -2.2840054 6.3045843E-07
v 1.30053484 -3.80735254 -0.00121396908
v 0.62389046 -2.28400183 -0.623889744
v 0.918985665 -3.97412372 -0.90531677
v -0.623890281 -2.2840054 0.623888552
v 8.56946372E-08 -0.771146536 0.88231504
v 8.56946372E-08 -2.2840054 0.88231504
v -0.623890281 -0.771146536 0.623888552
v -0.882313132 -2.28400183 6.3045843E-07
v 8.56946372E-08 0.329102457 0.88231504
v -0.882313132 -0.771141648 6.3045843E-07
v -0.623890281 0.329102457 0.623888552
v 8.56946372E-08 2.25525975 0.88231504
v -0.882313132 0.329107344 6.3045843E-07
v -0.623890281 2.25525975 0.623888552
v 8.56946372E-08 3.43191481 0.88231504
v -0.882313132 2.25527191 6.3045843E-07
v -0.623890281 3.43191481 0.623888552
v 8.56946372E-08 4.81411219 0.88231504
v -0.882313132 3.43192458 6.3045843E-07
v -0.623890281 4.81411219 0.623888552
v 8.56946372E-08 7.65848207 0.88231504
v -0.882313132 4.81412697 6.3045843E-07
v -0.623890281 7.65848207 0.623888552
v -0.882313132 7.65850163 6.3045843E-07
v -0.623890281 -2.28400183 -0.623889744
v -0.882313132 -0.771141648 6.3045843E-07
v -0.882313132 -2.28400183 6.3045843E-07
v -0.623890281 -0.771141648 -0.623889744
v -0.882313132 0.329107344 6.3045843E-07
v -0.623890281 0.329107344 -0.623889744
v -0.882313132 2.25527191 6.3045843E-07
v 8.56946372E-08 -0.771141648 -0.882313848
v 8.56946372E-08 -2.28400183 -0.882313848
v 8.56946372E-08 0.329107344 -0.882313848
v -0.623890281 2.25527191 -0.623889744
v -0.882313132 3.43192458 6.3045843E-07
v 8.56946372E-08 2.25527191 -0.882313848
v -0.623890281 3.43192458 -0.623889744
v -0.882313132 4.81412697 6.3045843E-07
v 8.56946372E-08 3.43192458 -0.882313848
v -0.623890281 4.81412697 -0.623889744
v -0.882313132 7.65850163 6.3045843E-07
v 8.56946372E-08 4.81412697 -0.882313848
v -0.623890281 7.65850163 -0.623889744
v 8.56946372E-08 7.65850163 -0.882313848
v 0.882313311 -2.2840054 6.3045843E-07
v 0.62389046 -0.771141648 -0.623889744
v 0.62389046 -2.28400183 -0.623889744
v 0.882313311 -0.771146536 6.3045843E-07
v 0.62389046 -2.2840054 0.623888552
v 0.62389046 0.329107344 -0.623889744
v 0.882313311 0.329102457 6.3045843E-07
v 0.62389046 2.25527191 -0.623889744
v 0.882313311 2.25525975 6.3045843E-07
v 0.62389046 3.43192458 -0.623889744
v 0.882313311 3.43191481 6.3045843E-07
v 0.62389046 4.81412697 -0.623889744
v 0.882313311 4.81411219 6.3045843E-07
v 0.62389046 7.65850163 -0.623889744
v 0.882313311 7.65848207 6.3045843E-07
v 8.56946372E-08 4.81411219 0.88231504
v 8.56946372E-08 7.65848207 0.88231504
v 0.62389046 7.65848207 0.623888552
v 0.62389046 4.81411219 0.623888552
v 0.882313311 7.65848207 6.3045843E-07
v 8.56946372E-08 3.43191481 0.88231504
v 0.882313311 4.81411219 6.3045843E-07
v 0.62389046 3.43191481 0.623888552
v 8.56946372E-08 2.25525975 0.88231504
v 0.882313311 3.43191481 6.3045843E-07
v 0.62389046 2.25525975 0.623888552
v 8.56946372E-08 0.329102457 0.88231504
v 0.882313311 2.25525975 6.3045843E-07
v 0.62389046 0.329102457 0.623888552
v 8.56946372E-08 -0.771146536 0.88231504
v 0.882313311 0.329102457 6.3045843E-07
v 0.62389046 -0.771146536 0.623888552
v 8.56946372E-08 -2.2840054 0.88231504
v 0.882313311 -0.771146536 6.3045843E-07
v 0.62389046 -2.2840054 0.623888552
v 0.62389046 7.65848207 0.623888552
v 8.56946372E-08 7.65848207 6.3045843E-07
v 0.882313311 7.65848207 6.3045843E-07
v 8.56946372E-08 7.65848207 0.88231504
v 0.62389046 7.65850163 -0.623889744
v -0.623890281 7.65848207 0.623888552
v 8.56946372E-08 7.65850163 -0.882313848
v -0.882313132 7.65850163 6.3045843E-07
v -0.623890281 7.65850163 -0.623889744
vt 0.346191406 0.0179595947
vt 0.365234375 0.058013916
vt 0.365234375 0.0179595947
vt 0.327392578 0.0179595947
vt 0.346191406 0.058013916
vt 0.327392578 0.058013916
vt 0.346191406 0.0871582031
vt 0.327392578 0.0871582031
vt 0.346191406 0.138183594
vt 0.327392578 0.138183594
vt 0.346191406 0.169311523
vt 0.327392578 0.169311523
vt 0.346191406 0.205932617
vt 0.327392578 0.205932617
vt 0.346191406 0.28125
vt 0.327392578 0.28125
vt 0.0427246094 0.249023438
vt 0.0427246094 0.28515625
vt 0.061706543 0.28515625
vt 0.061706543 0.249023438
vt 0.0806884766 0.28515625
vt 0.0806884766 0.249023438
vt 0.0806884766 0.249023438
vt 0.0806884766 0.28515625
vt 0.0996704102 0.28515625
vt 0.0996704102 0.249023438
vt 0.0996704102 0.249023438
vt 0.0996704102 0.28515625
vt 0.118652344 0.28515625
vt 0.118652344 0.249023438
vt 0.137573242 0.28515625
vt 0.137573242 0.249023438
vt 0.137573242 0.249023438
vt 0.137573242 0.28515625
vt 0.156616211 0.28515625
vt 0.156616211 0.249023438
vt 0.156616211 0.249023438
vt 0.156616211 0.28515625
vt 0.175537109 0.28515625
vt 0.175537109 0.249023438
vt 0.194580078 0.28515625
vt 0.194580078 0.249023438
vt 0.403076172 0.0179595947
vt 0.422119141 0.058013916
vt 0.422119141 0.0179595947
vt 0.403076172 0.058013916
vt 0.384277344 0.0179595947
vt 0.422119141 0.0871582031
vt 0.384277344 0.058013916
vt 0.403076172 0.0871582031
vt 0.422119141 0.138183594
vt 0.384277344 0.0871582031
vt 0.403076172 0.138183594
vt 0.422119141 0.169311523
vt 0.384277344 0.138183594
vt 0.403076172 0.169311523
vt 0.422119141 0.205932617
vt 0.384277344 0.169311523
vt 0.403076172 0.205932617
vt 0.422119141 0.28125
vt 0.384277344 0.205932617
vt 0.403076172 0.28125
vt 0.384277344 0.28125
vt 0.365234375 0.0179595947
vt 0.384277344 0.058013916
vt 0.384277344 0.0179595947
vt 0.365234375 0.058013916
vt 0.384277344 0.0871582031
vt 0.365234375 0.0871582031
vt 0.384277344 0.138183594
vt 0.346191406 0.058013916
vt 0.346191406 0.0179595947
vt 0.346191406 0.0871582031
vt 0.365234375 0.138183594
vt 0.384277344 0.169311523
vt 0.346191406 0.138183594
vt 0.365234375 0.169311523
vt 0.384277344 0.205932617
vt 0.346191406 0.169311523
vt 0.365234375 0.205932617
vt 0.384277344 0.28125
vt 0.346191406 0.205932617
vt 0.365234375 0.28125
vt 0.346191406 0.28125
vt 0.460205078 0.0179595947
vt 0.479003906 0.058013916
vt 0.479003906 0.0179595947
vt 0.460205078 0.058013916
vt 0.441162109 0.0179595947
vt 0.479003906 0.0871582031
vt 0.460205078 0.0871582031
vt 0.479003906 0.138183594
vt 0.460205078 0.138183594
vt 0.479003906 0.169311523
vt 0.460205078 0.169311523
vt 0.479003906 0.205932617
vt 0.460205078 0.205932617
vt 0.479003906 0.28125
vt 0.460205078 0.28125
vt 0.422119141 0.205932617
vt 0.422119141 0.28125
vt 0.441162109 0.28125
vt 0.441162109 0.205932617
vt 0.460205078 0.28125
vt 0.422119141 0.169311523
vt 0.460205078 0.205932617
vt 0.441162109 0.169311523
vt 0.422119141 0.138183594
vt 0.460205078 0.169311523
vt 0.441162109 0.138183594
vt 0.422119141 0.0871582031
vt 0.460205078 0.138183594
vt 0.441162109 0.0871582031
vt 0.422119141 0.058013916
vt 0.460205078 0.0871582031
vt 0.441162109 0.058013916
vt 0.422119141 0.0179595947
vt 0.460205078 0.058013916
vt 0.441162109 0.0179595947
vt 0.465576172 0.669433594
vt 0.444824219 0.688964844
vt 0.474121094 0.690429688
vt 0.444824219 0.660644531
vt 0.465576172 0.7109375
vt 0.424072266 0.669433594
vt 0.444824219 0.719726562
vt 0.415283203 0.690429688
vt 0.424072266 0.7109375
vn -0.000438928604 0.13671875 -0.990722656
vn -0.70703125 0 -0.70703125
vn -0.684570312 0.142089844 -0.71484375
vn 0.684082031 0.142333984 -0.715332031
vn -0 0 -1
vn 0.70703125 0 -0.70703125
vn -0 0 -1
vn 0.70703125 0 -0.70703125
vn -0 0 -1
vn 0.70703125 0 -0.70703125
vn -0 0 -1
vn 0.70703125 0 -0.70703125
vn -0 0 -1
vn 0.70703125 0 -0.70703125
vn -0 0 -1
vn 0.70703125 0 -0.70703125
vn 0.639648438 0.235595703 -0.731933594
vn 0.684082031 0.142333984 -0.715332031
vn -0.000438928604 0.13671875 -0.990722656
vn -0.00122261047 0.224609375 -0.974609375
vn -0.684570312 0.142089844 -0.71484375
vn -0.641113281 0.235229492 -0.73046875
vn -0.641113281 0.235229492 -0.73046875
vn -0.684570312 0.142089844 -0.71484375
vn -0.987792969 0.152832031 -0.0269317627
vn -0.961425781 0.260498047 -0.0899047852
vn -0.961425781 0.260498047 -0.0899047852
vn -0.987792969 0.152832031 -0.0269317627
vn -0.709472656 0.159179688 0.686523438
vn -0.721679688 0.282470703 0.631835938
vn 6.73532486E-06 0.16027832 0.987304688
vn -4.41074371E-05 0.290039062 0.95703125
vn -4.41074371E-05 0.290039062 0.95703125
vn 6.73532486E-06 0.16027832 0.987304688
vn 0.709472656 0.159301758 0.686523438
vn 0.721679688 0.282714844 0.631835938
vn 0.721679688 0.282714844 0.631835938
vn 0.709472656 0.159301758 0.686523438
vn 0.987792969 0.152954102 -0.0272369385
vn 0.9609375 0.260986328 -0.0910644531
vn 0.684082031 0.142333984 -0.715332031
vn 0.639648438 0.235595703 -0.731933594
vn -0.709472656 0.159179688 0.686523438
vn -0 0 1
vn 6.73532486E-06 0.16027832 0.987304688
vn -0.70703125 0 0.70703125
vn -0.987792969 0.152832031 -0.0269317627
vn -0 0 1
vn -1 0 -2.38418579E-07
vn -0.70703125 0 0.70703125
vn -0 0 1
vn -1 0 -1.1920929E-07
vn -0.70703125 0 0.70703125
vn -0 0 1
vn -1 0 -6.55651093E-07
vn -0.70703125 0 0.70703125
vn -0 0 1
vn -1 0 1.78813934E-07
vn -0.70703125 0 0.70703125
vn -0 0 1
vn -1 0 7.15255737E-07
vn -0.70703125 0 0.70703125
vn -1 0 -4.11272049E-06
vn -0.684570312 0.142089844 -0.71484375
vn -1 0 -2.38418579E-07
vn -0.987792969 0.152832031 -0.0269317627
vn -0.70703125 0 -0.70703125
vn -1 0 -1.1920929E-07
vn -0.70703125 0 -0.70703125
vn -1 0 -6.55651093E-07
vn -0 0 -1
vn -0.000438928604 0.13671875 -0.990722656
vn -0 0 -1
vn -0.70703125 0 -0.70703125
vn -1 0 1.78813934E-07
vn -0 0 -1
vn -0.70703125 0 -0.70703125
vn -1 0 7.15255737E-07
vn -0 0 -1
vn -0.70703125 0 -0.70703125
vn -1 0 -4.11272049E-06
vn -0 0 -1
vn -0.70703125 0 -0.70703125
vn -0 0 -1
vn 0.987792969 0.152954102 -0.0272369385
vn 0.70703125 0 -0.70703125
vn 0.684082031 0.142333984 -0.715332031
vn 1 0 -1.1920929E-07
vn 0.709472656 0.159301758 0.686523438
vn 0.70703125 0 -0.70703125
vn 1 0 2.38418579E-07
vn 0.70703125 0 -0.70703125
vn 1 0 -7.74860382E-07
vn 0.70703125 0 -0.70703125
vn 1 0 -3.57627869E-07
vn 0.70703125 0 -0.70703125
vn 1 0 7.74860382E-07
vn 0.70703125 0 -0.70703125
vn 1 0 -3.69548798E-06
vn -0 0 1
vn -0 0 1
vn 0.70703125 0 0.70703125
vn 0.70703125 0 0.70703125
vn 1 0 -3.69548798E-06
vn -0 0 1
vn 1 0 7.74860382E-07
vn 0.70703125 0 0.70703125
vn -0 0 1
vn 1 0 -3.57627869E-07
vn 0.70703125 0 0.70703125
vn -0 0 1
vn 1 0 -7.74860382E-07
vn 0.70703125 0 0.70703125
vn -0 0 1
vn 1 0 2.38418579E-07
vn 0.70703125 0 0.70703125
vn 6.73532486E-06 0.16027832 0.987304688
vn 1 0 -1.1920929E-07
vn 0.709472656 0.159301758 0.686523438
vn -0 1 0
vn 5.54323196E-06 1 1.34706497E-05
vn -0 1 1.41859055E-05
vn -0 1 0
vn -4.58955765E-06 1 2.55703926E-05
vn 1.10864639E-05 1 1.13248825E-05
vn -0 1 2.27093697E-05
vn 2.21133232E-05 1 1.70469284E-05
vn 1.56760216E-05 1 1.70469284E-05
g Roof_Museum_Exterior_Chimney_2_0
f 3/3/3 2/2/2 1/1/1
f 1/1/1 5/5/5 4/4/4
f 5/5/5 6/6/6 4/4/4
f 5/5/5 7/7/7 6/6/6
f 7/7/7 8/8/8 6/6/6
f 7/7/7 9/9/9 8/8/8
f 9/9/9 10/10/10 8/8/8
f 9/9/9 11/11/11 10/10/10
f 11/11/11 12/12/12 10/10/10
f 11/11/11 13/13/13 12/12/12
f 13/13/13 14/14/14 12/12/12
f 13/13/13 15/15/15 14/14/14
f 15/15/15 16/16/16 14/14/14
f 19/19/19 18/18/18 17/17/17
f 20/20/20 19/19/19 17/17/17
f 21/21/21 19/19/19 20/20/20
f 22/22/22 21/21/21 20/20/20
f 25/25/25 24/24/24 23/23/23
f 26/26/26 25/25/25 23/23/23
f 29/29/29 28/28/28 27/27/27
f 30/30/30 29/29/29 27/27/27
f 31/31/31 29/29/29 30/30/30
f 32/32/32 31/31/31 30/30/30
f 35/35/35 34/34/34 33/33/33
f 36/36/36 35/35/35 33/33/33
f 39/39/39 38/38/38 37/37/37
f 40/40/40 39/39/39 37/37/37
f 41/41/41 39/39/39 40/40/40
f 42/42/42 41/41/41 40/40/40
f 45/45/45 44/44/44 43/43/43
f 44/44/44 46/46/46 43/43/43
f 43/43/43 46/46/46 47/47/47
f 44/44/44 48/48/48 46/46/46
f 46/46/46 49/49/49 47/47/47
f 48/48/48 50/50/50 46/46/46
f 46/46/46 50/50/50 49/49/49
f 48/48/48 51/51/51 50/50/50
f 50/50/50 52/52/52 49/49/49
f 51/51/51 53/53/53 50/50/50
f 50/50/50 53/53/53 52/52/52
f 51/51/51 54/54/54 53/53/53
f 53/53/53 55/55/55 52/52/52
f 54/54/54 56/56/56 53/53/53
f 53/53/53 56/56/56 55/55/55
f 54/54/54 57/57/57 56/56/56
f 56/56/56 58/58/58 55/55/55
f 57/57/57 59/59/59 56/56/56
f 56/56/56 59/59/59 58/58/58
f 57/57/57 60/60/60 59/59/59
f 59/59/59 61/61/61 58/58/58
f 60/60/60 62/62/62 59/59/59
f 59/59/59 62/62/62 61/61/61
f 62/62/62 63/63/63 61/61/61
f 66/66/66 65/65/65 64/64/64
f 65/65/65 67/67/67 64/64/64
f 65/65/65 68/68/68 67/67/67
f 68/68/68 69/69/69 67/67/67
f 68/68/68 70/70/70 69/69/69
f 67/67/67 69/69/69 71/71/71
f 67/67/67 71/71/71 72/72/72
f 69/69/69 73/73/73 71/71/71
f 70/70/70 74/74/74 69/69/69
f 69/69/69 74/74/74 73/73/73
f 70/70/70 75/75/75 74/74/74
f 74/74/74 76/76/76 73/73/73
f 75/75/75 77/77/77 74/74/74
f 74/74/74 77/77/77 76/76/76
f 75/75/75 78/78/78 77/77/77
f 77/77/77 79/79/79 76/76/76
f 78/78/78 80/80/80 77/77/77
f 77/77/77 80/80/80 79/79/79
f 78/78/78 81/81/81 80/80/80
f 80/80/80 82/82/82 79/79/79
f 81/81/81 83/83/83 80/80/80
f 80/80/80 83/83/83 82/82/82
f 83/83/83 84/84/84 82/82/82
f 87/87/87 86/86/86 85/85/85
f 86/86/86 88/88/88 85/85/85
f 85/85/85 88/88/88 89/89/89
f 86/86/86 90/90/90 88/88/88
f 90/90/90 91/91/91 88/88/88
f 90/90/90 92/92/92 91/91/91
f 92/92/92 93/93/93 91/91/91
f 92/92/92 94/94/94 93/93/93
f 94/94/94 95/95/95 93/93/93
f 94/94/94 96/96/96 95/95/95
f 96/96/96 97/97/97 95/95/95
f 96/96/96 98/98/98 97/97/97
f 98/98/98 99/99/99 97/97/97
f 102/102/102 101/101/101 100/100/100
f 103/103/103 102/102/102 100/100/100
f 104/104/104 102/102/102 103/103/103
f 103/103/103 100/100/100 105/105/105
f 106/106/106 104/104/104 103/103/103
f 107/107/107 103/103/103 105/105/105
f 106/106/106 103/103/103 107/107/107
f 107/107/107 105/105/105 108/108/108
f 109/109/109 106/106/106 107/107/107
f 110/110/110 107/107/107 108/108/108
f 109/109/109 107/107/107 110/110/110
f 110/110/110 108/108/108 111/111/111
f 112/112/112 109/109/109 110/110/110
f 113/113/113 110/110/110 111/111/111
f 112/112/112 110/110/110 113/113/113
f 113/113/113 111/111/111 114/114/114
f 115/115/115 112/112/112 113/113/113
f 116/116/116 113/113/113 114/114/114
f 115/115/115 113/113/113 116/116/116
f 116/116/116 114/114/114 117/117/117
f 118/118/118 115/115/115 116/116/116
f 119/119/119 116/116/116 117/117/117
f 118/118/118 116/116/116 119/119/119
f 122/122/122 121/121/121 120/120/120
f 120/120/120 121/121/121 123/123/123
f 124/124/124 121/121/121 122/122/122
f 123/123/123 121/121/121 125/125/125
f 126/126/126 121/121/121 124/124/124
f 125/125/125 121/121/121 127/127/127
f 128/128/128 121/121/121 126/126/126
f 127/127/127 121/121/121 128/128/128
