g IS4_MDL_EscenarioPB_PedestalCuadrado_1
v -0.38835749 -0.38835898 0.388359457
v -0.38835749 0.38835898 0.388359457
v 0.388361245 0.38835898 0.388359457
v 0.388361245 -0.38835898 0.388359457
v -0.38835749 0.38835898 0.388359457
v -0.38835749 0.38835898 -0.388358682
v 0.388361245 0.38835898 -0.388358682
v 0.388361245 0.38835898 0.388359457
v -0.38835749 0.38835898 -0.388358682
v -0.38835749 -0.38835898 -0.388358682
v 0.388361245 -0.38835898 -0.388358682
v 0.388361245 0.38835898 -0.388358682
v 0.388361245 -0.38835898 0.388359457
v 0.388361245 0.38835898 0.388359457
v 0.388361245 0.38835898 -0.388358682
v 0.388361245 -0.38835898 -0.388358682
v -0.38835749 -0.38835898 -0.388358682
v -0.38835749 0.38835898 -0.388358682
v -0.38835749 0.38835898 0.388359457
v -0.38835749 -0.38835898 0.388359457
vt 0.496582031 0.401611328
vt 0.496582031 0.514160156
vt 0.611816406 0.514160156
vt 0.611816406 0.401611328
vt 0.496582031 0.520019531
vt 0.496582031 0.631347656
vt 0.611816406 0.631347656
vt 0.611816406 0.520019531
vt 0.496582031 0.401611328
vt 0.496582031 0.514160156
vt 0.611816406 0.514160156
vt 0.611816406 0.401611328
vt 0.496582031 0.401611328
vt 0.496582031 0.514160156
vt 0.611816406 0.514160156
vt 0.611816406 0.401611328
vt 0.496582031 0.401611328
vt 0.496582031 0.514160156
vt 0.611816406 0.514160156
vt 0.611816406 0.401611328
vn -0 0 1
vn -0 0 1
vn -0 0 1
vn -0 0 1
vn -0 1 0
vn -0 1 0
vn -0 1 0
vn -0 1 0
vn -0 0 -1
vn -0 0 -1
vn -0 0 -1
vn -0 0 -1
vn 1 0 0
vn 1 0 0
vn 1 0 0
vn 1 0 0
vn -1 0 0
vn -1 0 0
vn -1 0 0
vn -1 0 0
g IS4_MDL_EscenarioPB_PedestalCuadrado_1_0
f 3/3/3 2/2/2 1/1/1
f 4/4/4 3/3/3 1/1/1
f 7/7/7 6/6/6 5/5/5
f 8/8/8 7/7/7 5/5/5
f 11/11/11 10/10/10 9/9/9
f 12/12/12 11/11/11 9/9/9
f 15/15/15 14/14/14 13/13/13
f 16/16/16 15/15/15 13/13/13
f 19/19/19 18/18/18 17/17/17
f 20/20/20 19/19/19 17/17/17
