g CabinRailing_Corner
v -47.2227936 1.66300344 -56.4815521
v -46.0797348 1.6630038 -56.4815521
v -46.0797348 1.61873257 -56.4815521
v -47.2227936 1.61873257 -56.4815521
v -47.2227974 1.66300344 -56.5525513
v -47.2227974 1.61873257 -56.5525513
v -46.0797386 1.61873257 -56.5525513
v -46.0797386 1.6630038 -56.5525513
v -47.2227974 1.66300344 -56.5525513
v -46.0797386 1.6630038 -56.5525513
v -46.0797348 1.6630038 -56.4815521
v -47.2227936 1.66300344 -56.4815521
v -46.0797386 1.61873257 -56.5525513
v -47.2227974 1.61873257 -56.5525513
v -47.2227936 1.61873257 -56.4815521
v -46.0797348 1.61873257 -56.4815521
v -46.0932426 1.623873 -56.5545731
v -47.2494431 0.775830925 -56.5545654
v -47.2092896 0.712289035 -56.5545654
v -46.0530891 1.56033111 -56.5545654
v -46.093235 1.623873 -56.5216942
v -46.0530891 1.56033111 -56.5216942
v -47.2092896 0.712289035 -56.5216942
v -47.2494469 0.775830925 -56.5216942
v -46.093235 1.623873 -56.5216942
v -47.2494469 0.775830925 -56.5216942
v -47.2494431 0.775830925 -56.5545654
v -46.0932426 1.623873 -56.5545731
v -47.2092896 0.712289035 -56.5216942
v -46.0530891 1.56033111 -56.5216942
v -46.0530891 1.56033111 -56.5545654
v -47.2092896 0.712289035 -56.5545654
v -47.2092819 1.623873 -56.5260544
v -47.2494431 1.56033111 -56.5260582
v -46.0932426 0.712289035 -56.5260582
v -46.0530891 0.775830925 -56.5260582
v -47.2092857 1.623873 -56.4931908
v -46.0530853 0.775830925 -56.4931908
v -46.0932426 0.712289035 -56.4931908
v -47.2494507 1.56033111 -56.493187
v -47.2092857 1.623873 -56.4931908
v -47.2092819 1.623873 -56.5260544
v -46.0530891 0.775830925 -56.5260582
v -46.0530853 0.775830925 -56.4931908
v -46.0932426 0.712289035 -56.4931908
v -46.0932426 0.712289035 -56.5260582
v -47.2494431 1.56033111 -56.5260582
v -47.2494507 1.56033111 -56.493187
v -47.1966057 1.66923976 -56.560318
v -47.2800217 1.66923976 -56.560318
v -47.2800217 0.666922152 -56.560318
v -47.1966057 0.666922152 -56.560318
v -47.1966095 1.66923976 -56.4732132
v -47.1966095 0.666922152 -56.4732132
v -47.2800369 0.666922152 -56.4732056
v -47.2800369 1.66923976 -56.4732056
v -47.1966095 1.66923976 -56.4732132
v -47.1966057 1.66923976 -56.560318
v -47.1966057 0.666922152 -56.560318
v -47.1966095 0.666922152 -56.4732132
v -47.2800369 0.666922152 -56.4732056
v -47.2800217 0.666922152 -56.560318
v -47.2800217 1.66923976 -56.560318
v -47.2800369 1.66923976 -56.4732056
v -47.2800369 1.66923976 -56.4732056
v -47.2800217 1.66923976 -56.560318
v -47.1966057 1.66923976 -56.560318
v -47.1966095 1.66923976 -56.4732132
v -46.1063461 1.66300344 -57.7706566
v -46.1063423 1.6630038 -56.5265694
v -46.1063423 1.61873257 -56.5265694
v -46.1063461 1.61873257 -57.7706566
v -46.035347 1.66300344 -57.7706566
v -46.035347 1.61873257 -57.7706566
v -46.0353394 1.61873257 -56.5265694
v -46.0353394 1.6630038 -56.5265694
v -46.035347 1.66300344 -57.7706566
v -46.0353394 1.6630038 -56.5265694
v -46.1063423 1.6630038 -56.5265694
v -46.1063461 1.66300344 -57.7706566
v -46.0353394 1.61873257 -56.5265694
v -46.035347 1.61873257 -57.7706566
v -46.1063461 1.61873257 -57.7706566
v -46.1063423 1.61873257 -56.5265694
v -46.0333405 1.623873 -56.5392036
v -46.0333328 0.775830925 -57.7956085
v -46.0333405 0.712289035 -57.7580223
v -46.0333405 1.56033111 -56.5016136
v -46.0662041 1.623873 -56.5392036
v -46.0662041 1.56033111 -56.5016136
v -46.0662003 0.712289035 -57.7580223
v -46.0662041 0.775830925 -57.7956085
v -46.0662041 1.623873 -56.5392036
v -46.0662041 0.775830925 -57.7956085
v -46.0333328 0.775830925 -57.7956085
v -46.0333405 1.623873 -56.5392036
v -46.0662003 0.712289035 -57.7580223
v -46.0662041 1.56033111 -56.5016136
v -46.0333405 1.56033111 -56.5016136
v -46.0333405 0.712289035 -57.7580223
v -46.0618401 1.623873 -57.7580223
v -46.0618401 1.56033111 -57.7956085
v -46.0618401 0.712289035 -56.5392075
v -46.0618401 0.775830925 -56.5016136
v -46.0946999 1.623873 -57.7580223
v -46.0946999 0.775830925 -56.5016136
v -46.0947075 0.712289035 -56.5392036
v -46.0946999 1.56033111 -57.7956085
v -46.0946999 1.623873 -57.7580223
v -46.0618401 1.623873 -57.7580223
v -46.0618401 0.775830925 -56.5016136
v -46.0946999 0.775830925 -56.5016136
v -46.0947075 0.712289035 -56.5392036
v -46.0618401 0.712289035 -56.5392075
v -46.0618401 1.56033111 -57.7956085
v -46.0946999 1.56033111 -57.7956085
v -46.0275803 1.66923976 -56.4729729
v -46.0275803 1.66923976 -56.5510788
v -46.0275803 0.666922152 -56.5510788
v -46.0275803 0.666922152 -56.4729729
v -46.0275803 1.66923976 -57.7461472
v -46.0275764 1.66923976 -57.8242531
v -46.0275764 0.666922152 -57.8242531
v -46.0275803 0.666922152 -57.7461472
v -46.1146812 1.66923976 -56.4729729
v -46.1146812 0.666922152 -56.4729729
v -46.1146851 0.666922152 -56.5510788
v -46.1146851 1.66923976 -56.5510788
v -46.1146851 1.66923976 -57.7461472
v -46.1146851 0.666922152 -57.7461472
v -46.1146851 0.666922152 -57.8242531
v -46.1146851 1.66923976 -57.8242531
v -46.1146812 1.66923976 -56.4729729
v -46.0275803 1.66923976 -56.4729729
v -46.0275803 0.666922152 -56.4729729
v -46.1146812 0.666922152 -56.4729729
v -46.1146851 0.666922152 -56.5510788
v -46.0275803 0.666922152 -56.5510788
v -46.0275803 1.66923976 -56.5510788
v -46.1146851 1.66923976 -56.5510788
v -46.1146851 1.66923976 -56.5510788
v -46.0275803 1.66923976 -56.5510788
v -46.0275803 1.66923976 -56.4729729
v -46.1146812 1.66923976 -56.4729729
v -46.1146851 1.66923976 -57.7461472
v -46.0275803 1.66923976 -57.7461472
v -46.0275803 0.666922152 -57.7461472
v -46.1146851 0.666922152 -57.7461472
v -46.1146851 0.666922152 -57.8242531
v -46.0275764 0.666922152 -57.8242531
v -46.0275764 1.66923976 -57.8242531
v -46.1146851 1.66923976 -57.8242531
v -46.1146851 1.66923976 -57.8242531
v -46.0275764 1.66923976 -57.8242531
v -46.0275803 1.66923976 -57.7461472
v -46.1146851 1.66923976 -57.7461472
vt 0.255371094 0.430664062
vt 0.255371094 0.272216797
vt 0.249633789 0.272216797
vt 0.249633789 0.430664062
vt 0.264404297 0.430664062
vt 0.270019531 0.430664062
vt 0.270019531 0.272216797
vt 0.264404297 0.272216797
vt 0.264404297 0.430664062
vt 0.264404297 0.272216797
vt 0.255371094 0.272216797
vt 0.255371094 0.430664062
vt 0.270019531 0.272216797
vt 0.270019531 0.430664062
vt 0.279052734 0.430664062
vt 0.279052734 0.272216797
vt 0.319335938 0.434814453
vt 0.319335938 0.594238281
vt 0.330810547 0.594238281
vt 0.330810547 0.434814453
vt 0.314208984 0.434814453
vt 0.302490234 0.434814453
vt 0.302490234 0.594238281
vt 0.314208984 0.594238281
vt 0.314208984 0.434814453
vt 0.314208984 0.594238281
vt 0.319335938 0.594238281
vt 0.319335938 0.434814453
vt 0.302490234 0.594238281
vt 0.302490234 0.434814453
vt 0.297363281 0.434814453
vt 0.297363281 0.594238281
vt 0.319335938 0.594238281
vt 0.330810547 0.594238281
vt 0.330810547 0.434814453
vt 0.319335938 0.434814453
vt 0.314208984 0.594238281
vt 0.314208984 0.434814453
vt 0.302490234 0.434814453
vt 0.302490234 0.594238281
vt 0.314208984 0.594238281
vt 0.319335938 0.594238281
vt 0.319335938 0.434814453
vt 0.314208984 0.434814453
vt 0.302490234 0.434814453
vt 0.297363281 0.434814453
vt 0.297363281 0.594238281
vt 0.302490234 0.594238281
vt 0.281005859 0.431152344
vt 0.294433594 0.431152344
vt 0.294433594 0.272216797
vt 0.281005859 0.272216797
vt 0.321289062 0.431152344
vt 0.321289062 0.272216797
vt 0.307861328 0.272216797
vt 0.307861328 0.431152344
vt 0.321289062 0.431152344
vt 0.334716797 0.431152344
vt 0.334716797 0.272216797
vt 0.321289062 0.272216797
vt 0.307861328 0.272216797
vt 0.294433594 0.272216797
vt 0.294433594 0.431152344
vt 0.307861328 0.431152344
vt 0.307861328 0.431152344
vt 0.307861328 0.41796875
vt 0.321289062 0.41796875
vt 0.321289062 0.431152344
vt 0.264404297 0.272216797
vt 0.264404297 0.430664062
vt 0.270019531 0.430664062
vt 0.270019531 0.272216797
vt 0.255371094 0.272216797
vt 0.249633789 0.272216797
vt 0.249633789 0.430664062
vt 0.255371094 0.430664062
vt 0.255371094 0.272216797
vt 0.255371094 0.430664062
vt 0.264404297 0.430664062
vt 0.264404297 0.272216797
vt 0.279052734 0.430664062
vt 0.279052734 0.272216797
vt 0.270019531 0.272216797
vt 0.270019531 0.430664062
vt 0.314208984 0.594238281
vt 0.314208984 0.434814453
vt 0.302490234 0.434814453
vt 0.302490234 0.594238281
vt 0.319335938 0.594238281
vt 0.330810547 0.594238281
vt 0.330810547 0.434814453
vt 0.319335938 0.434814453
vt 0.319335938 0.594238281
vt 0.319335938 0.434814453
vt 0.314208984 0.434814453
vt 0.314208984 0.594238281
vt 0.297363281 0.434814453
vt 0.297363281 0.594238281
vt 0.302490234 0.594238281
vt 0.302490234 0.434814453
vt 0.314208984 0.434814453
vt 0.302490234 0.434814453
vt 0.302490234 0.594238281
vt 0.314208984 0.594238281
vt 0.319335938 0.434814453
vt 0.319335938 0.594238281
vt 0.330810547 0.594238281
vt 0.330810547 0.434814453
vt 0.319335938 0.434814453
vt 0.314208984 0.434814453
vt 0.314208984 0.594238281
vt 0.319335938 0.594238281
vt 0.297363281 0.594238281
vt 0.302490234 0.594238281
vt 0.302490234 0.434814453
vt 0.297363281 0.434814453
vt 0.307861328 0.431152344
vt 0.321289062 0.431152344
vt 0.321289062 0.272216797
vt 0.307861328 0.272216797
vt 0.307861328 0.431152344
vt 0.321289062 0.431152344
vt 0.321289062 0.272216797
vt 0.307861328 0.272216797
vt 0.294433594 0.431152344
vt 0.294433594 0.272216797
vt 0.281005859 0.272216797
vt 0.281005859 0.431152344
vt 0.294433594 0.431152344
vt 0.294433594 0.272216797
vt 0.281005859 0.272216797
vt 0.281005859 0.431152344
vt 0.294433594 0.431152344
vt 0.307861328 0.431152344
vt 0.307861328 0.272216797
vt 0.294433594 0.272216797
vt 0.334716797 0.272216797
vt 0.321289062 0.272216797
vt 0.321289062 0.431152344
vt 0.334716797 0.431152344
vt 0.321289062 0.41796875
vt 0.321289062 0.431152344
vt 0.307861328 0.431152344
vt 0.307861328 0.41796875
vt 0.294433594 0.431152344
vt 0.307861328 0.431152344
vt 0.307861328 0.272216797
vt 0.294433594 0.272216797
vt 0.334716797 0.272216797
vt 0.321289062 0.272216797
vt 0.321289062 0.431152344
vt 0.334716797 0.431152344
vt 0.321289062 0.41796875
vt 0.321289062 0.431152344
vt 0.307861328 0.431152344
vt 0.307861328 0.41796875
vn 9.53674316E-07 0 1
vn 9.53674316E-07 0 1
vn 9.53674316E-07 0 1
vn 9.53674316E-07 0 1
vn -0 0 -1
vn -0 0 -1
vn -0 0 -1
vn -0 0 -1
vn -2.38418579E-07 1 0
vn -2.38418579E-07 1 0
vn -2.38418579E-07 1 0
vn -2.38418579E-07 1 0
vn -0 -1 0
vn -0 -1 0
vn -0 -1 0
vn -0 -1 0
vn -0 -5.42998314E-05 -1
vn -0 -5.42998314E-05 -1
vn -0 -5.42998314E-05 -1
vn -0 -5.42998314E-05 -1
vn 1.81794167E-05 0 1
vn 1.81794167E-05 0 1
vn 1.81794167E-05 0 1
vn 1.81794167E-05 0 1
vn -0.591308594 0.806152344 8.70227814E-05
vn -0.591308594 0.806152344 8.70227814E-05
vn -0.591308594 0.806152344 8.70227814E-05
vn -0.591308594 0.806152344 8.70227814E-05
vn 0.591308594 -0.806152344 0
vn 0.591308594 -0.806152344 0
vn 0.591308594 -0.806152344 0
vn 0.591308594 -0.806152344 0
vn -1.81794167E-05 0 -1
vn -1.81794167E-05 0 -1
vn -1.81794167E-05 0 -1
vn -1.81794167E-05 0 -1
vn -0 0 1
vn -0 0 1
vn -0 0 1
vn -0 0 1
vn 0.591308594 0.806152344 2.98023224E-07
vn 0.591308594 0.806152344 2.98023224E-07
vn 0.591308594 0.806152344 2.98023224E-07
vn 0.591308594 0.806152344 2.98023224E-07
vn -0.591308594 -0.806152344 -1.1920929E-06
vn -0.591308594 -0.806152344 -1.1920929E-06
vn -0.591308594 -0.806152344 -1.1920929E-06
vn -0.591308594 -0.806152344 -1.1920929E-06
vn -0 0 -1
vn -0 0 -1
vn -0 0 -1
vn -0 0 -1
vn -0 0 1
vn -0 0 1
vn -0 0 1
vn -0 0 1
vn 1 0 5.60283661E-05
vn 1 0 5.60283661E-05
vn 1 0 5.60283661E-05
vn 1 0 5.60283661E-05
vn -1 0 -0.000168204308
vn -1 0 -0.000168204308
vn -1 0 -0.000168204308
vn -1 0 -0.000168204308
vn -0 1 0
vn -0 1 0
vn -0 1 0
vn -0 1 0
vn -1 0 1.96695328E-06
vn -1 0 1.96695328E-06
vn -1 0 1.96695328E-06
vn -1 0 1.96695328E-06
vn 1 0 -1.96695328E-06
vn 1 0 -1.96695328E-06
vn 1 0 -1.96695328E-06
vn 1 0 -1.96695328E-06
vn -0 1 -2.38418579E-07
vn -0 1 -2.38418579E-07
vn -0 1 -2.38418579E-07
vn -0 1 -2.38418579E-07
vn -0 -1 0
vn -0 -1 0
vn -0 -1 0
vn -0 -1 0
vn 1 0 0
vn 1 0 0
vn 1 0 0
vn 1 0 0
vn -1 -1.31130219E-05 0
vn -1 -1.31130219E-05 0
vn -1 -1.31130219E-05 0
vn -1 -1.31130219E-05 0
vn -0 0.829101562 -0.559570312
vn -0 0.829101562 -0.559570312
vn -0 0.829101562 -0.559570312
vn -0 0.829101562 -0.559570312
vn -0 -0.829101562 0.559570312
vn -0 -0.829101562 0.559570312
vn -0 -0.829101562 0.559570312
vn -0 -0.829101562 0.559570312
vn 1 -8.94069672E-07 0
vn 1 -8.94069672E-07 0
vn 1 -8.94069672E-07 0
vn 1 -8.94069672E-07 0
vn -1 2.79545784E-05 1.85370445E-05
vn -1 2.79545784E-05 1.85370445E-05
vn -1 2.79545784E-05 1.85370445E-05
vn -1 2.79545784E-05 1.85370445E-05
vn -0 0.829101562 0.559570312
vn -0 0.829101562 0.559570312
vn -0 0.829101562 0.559570312
vn -0 0.829101562 0.559570312
vn -0 -0.828613281 -0.559570312
vn -0 -0.828613281 -0.559570312
vn -0 -0.828613281 -0.559570312
vn -0 -0.828613281 -0.559570312
vn 1 0 0
vn 1 0 0
vn 1 0 0
vn 1 0 0
vn 1 0 3.12328339E-05
vn 1 0 3.12328339E-05
vn 1 0 3.12328339E-05
vn 1 0 3.12328339E-05
vn -1 0 0
vn -1 0 0
vn -1 0 0
vn -1 0 0
vn -1 0 0
vn -1 0 0
vn -1 0 0
vn -1 0 0
vn -0 0 1
vn -0 0 1
vn -0 0 1
vn -0 0 1
vn -0 0 -1
vn -0 0 -1
vn -0 0 -1
vn -0 0 -1
vn -0 1 0
vn -0 1 0
vn -0 1 0
vn -0 1 0
vn -0 0 1
vn -0 0 1
vn -0 0 1
vn -0 0 1
vn -0 0 -1
vn -0 0 -1
vn -0 0 -1
vn -0 0 -1
vn -0 1 0
vn -0 1 0
vn -0 1 0
vn -0 1 0
g CabinRailing_Corner_0
f 3/3/3 2/2/2 1/1/1
f 4/4/4 3/3/3 1/1/1
f 7/7/7 6/6/6 5/5/5
f 8/8/8 7/7/7 5/5/5
f 11/11/11 10/10/10 9/9/9
f 12/12/12 11/11/11 9/9/9
f 15/15/15 14/14/14 13/13/13
f 16/16/16 15/15/15 13/13/13
f 19/19/19 18/18/18 17/17/17
f 20/20/20 19/19/19 17/17/17
f 23/23/23 22/22/22 21/21/21
f 24/24/24 23/23/23 21/21/21
f 27/27/27 26/26/26 25/25/25
f 28/28/28 27/27/27 25/25/25
f 31/31/31 30/30/30 29/29/29
f 32/32/32 31/31/31 29/29/29
f 35/35/35 34/34/34 33/33/33
f 36/36/36 35/35/35 33/33/33
f 39/39/39 38/38/38 37/37/37
f 40/40/40 39/39/39 37/37/37
f 43/43/43 42/42/42 41/41/41
f 44/44/44 43/43/43 41/41/41
f 47/47/47 46/46/46 45/45/45
f 48/48/48 47/47/47 45/45/45
f 51/51/51 50/50/50 49/49/49
f 52/52/52 51/51/51 49/49/49
f 55/55/55 54/54/54 53/53/53
f 56/56/56 55/55/55 53/53/53
f 59/59/59 58/58/58 57/57/57
f 60/60/60 59/59/59 57/57/57
f 63/63/63 62/62/62 61/61/61
f 64/64/64 63/63/63 61/61/61
f 67/67/67 66/66/66 65/65/65
f 68/68/68 67/67/67 65/65/65
f 71/71/71 70/70/70 69/69/69
f 72/72/72 71/71/71 69/69/69
f 75/75/75 74/74/74 73/73/73
f 76/76/76 75/75/75 73/73/73
f 79/79/79 78/78/78 77/77/77
f 80/80/80 79/79/79 77/77/77
f 83/83/83 82/82/82 81/81/81
f 84/84/84 83/83/83 81/81/81
f 87/87/87 86/86/86 85/85/85
f 88/88/88 87/87/87 85/85/85
f 91/91/91 90/90/90 89/89/89
f 92/92/92 91/91/91 89/89/89
f 95/95/95 94/94/94 93/93/93
f 96/96/96 95/95/95 93/93/93
f 99/99/99 98/98/98 97/97/97
f 100/100/100 99/99/99 97/97/97
f 103/103/103 102/102/102 101/101/101
f 104/104/104 103/103/103 101/101/101
f 107/107/107 106/106/106 105/105/105
f 108/108/108 107/107/107 105/105/105
f 111/111/111 110/110/110 109/109/109
f 112/112/112 111/111/111 109/109/109
f 115/115/115 114/114/114 113/113/113
f 116/116/116 115/115/115 113/113/113
f 119/119/119 118/118/118 117/117/117
f 120/120/120 119/119/119 117/117/117
f 123/123/123 122/122/122 121/121/121
f 124/124/124 123/123/123 121/121/121
f 127/127/127 126/126/126 125/125/125
f 128/128/128 127/127/127 125/125/125
f 131/131/131 130/130/130 129/129/129
f 132/132/132 131/131/131 129/129/129
f 135/135/135 134/134/134 133/133/133
f 136/136/136 135/135/135 133/133/133
f 139/139/139 138/138/138 137/137/137
f 140/140/140 139/139/139 137/137/137
f 143/143/143 142/142/142 141/141/141
f 144/144/144 143/143/143 141/141/141
f 147/147/147 146/146/146 145/145/145
f 148/148/148 147/147/147 145/145/145
f 151/151/151 150/150/150 149/149/149
f 152/152/152 151/151/151 149/149/149
f 155/155/155 154/154/154 153/153/153
f 156/156/156 155/155/155 153/153/153
