g HydraulicJack_Head
v -0.000624694803 -0.188985214 0.0342305377
v -0.000624694803 -0.0739089027 0.0342305377
v 0.0215244293 -0.0739089027 0.0266236868
v 0.0215244293 -0.188985214 0.0266236868
v 0.0336020663 -0.0739089027 0.0065592574
v 0.0336020663 -0.188985214 0.0065592574
v 0.0299569312 -0.0739089027 -0.0165742878
v 0.0299569312 -0.188985214 -0.0165742878
v 0.0122946166 -0.0739089027 -0.0319525525
v 0.0122946166 -0.188985214 -0.0319525525
v -0.0111204525 -0.0739089027 -0.0323798731
v -0.0111204525 -0.188985214 -0.0323798731
v -0.0293321609 -0.0739089027 -0.0176562872
v -0.0293321609 -0.188985214 -0.0176562872
v -0.0338189676 -0.0739089027 0.00532886479
v -0.0338189676 -0.188985214 0.00532886479
v -0.0224814974 -0.0739089027 0.0258205794
v -0.0224814974 -0.188985214 0.0258205794
v -0.000624694803 -0.0739089027 0.0342305377
v -0.000624694803 -0.188985214 0.0342305377
v -0.000624694803 -0.0739089027 0.0342305377
v -0.000624694803 0.041167412 0.0342305377
v 0.0215244293 0.041167412 0.0266236868
v 0.0215244293 -0.0739089027 0.0266236868
v 0.0336020663 0.041167412 0.0065592574
v 0.0336020663 -0.0739089027 0.0065592574
v 0.0299569312 0.041167412 -0.0165742878
v 0.0299569312 -0.0739089027 -0.0165742878
v 0.0122946166 0.041167412 -0.0319525525
v 0.0122946166 -0.0739089027 -0.0319525525
v -0.0111204525 0.041167412 -0.0323798731
v -0.0111204525 -0.0739089027 -0.0323798731
v -0.0293321609 0.041167412 -0.0176562872
v -0.0293321609 -0.0739089027 -0.0176562872
v -0.0338189676 0.041167412 0.00532886479
v -0.0338189676 -0.0739089027 0.00532886479
v -0.0224814974 0.041167412 0.0258205794
v -0.0224814974 -0.0739089027 0.0258205794
v -0.000624694803 0.041167412 0.0342305377
v -0.000624694803 -0.0739089027 0.0342305377
v 0.0465650558 0.155991137 -0.0268843621
v 0.0465650558 0.188985214 -0.0268843621
v 0.0268843453 0.188985214 -0.0465650819
v 0.0268843453 0.155991137 -0.0465650819
v -0 0.188985214 -0.0537687242
v -0 0.155991137 -0.0537687242
v -0.0268843453 0.188985214 -0.0465650819
v -0.0268843453 0.155991137 -0.0465650819
v -0.0465650558 0.188985214 -0.0268843621
v -0.0465650558 0.155991137 -0.0268843621
v -0.0537687279 0.188985214 0
v -0.0537687279 0.155991137 0
v -0.0465650558 0.188985214 0.026884364
v -0.0465650558 0.155991137 0.026884364
v -0.0268843453 0.188985214 0.0465650782
v -0.0268843453 0.155991137 0.0465650782
v -0 0.188985214 0.0537687242
v -0 0.155991137 0.0537687242
v 0.0268843453 0.188985214 0.0465650782
v 0.0268843453 0.155991137 0.0465650782
v 0.0465650558 0.188985214 0.026884364
v 0.0465650558 0.155991137 0.026884364
v 0.0537687279 0.188985214 0
v 0.0537687279 0.155991137 0
v 0.0465650558 0.188985214 -0.0268843621
v 0.0465650558 0.155991137 -0.0268843621
v -0.000624694803 0.0412554927 0.0342305377
v -0.000624694803 0.16112411 0.0342305377
v 0.0215244293 0.16112411 0.0266236868
v 0.0215244293 0.0412554927 0.0266236868
v 0.0336020663 0.16112411 0.0065592574
v 0.0336020663 0.0412554927 0.0065592574
v 0.0299569312 0.16112411 -0.0165742878
v 0.0299569312 0.0412554927 -0.0165742878
v 0.0122946166 0.16112411 -0.0319525525
v 0.0122946166 0.0412554927 -0.0319525525
v -0.0111204525 0.16112411 -0.0323798731
v -0.0111204525 0.0412554927 -0.0323798731
v -0.0293321609 0.16112411 -0.0176562872
v -0.0293321609 0.0412554927 -0.0176562872
v -0.0338189676 0.16112411 0.00532886479
v -0.0338189676 0.0412554927 0.00532886479
v -0.0224814974 0.16112411 0.0258205794
v -0.0224814974 0.0412554927 0.0258205794
v -0.000624694803 0.16112411 0.0342305377
v -0.000624694803 0.0412554927 0.0342305377
v 0.0465650558 0.188985214 0.026884364
v -0 0.188985214 0
v 0.0537687279 0.188985214 0
v 0.0268843453 0.188985214 0.0465650782
v 0.0465650558 0.188985214 -0.0268843621
v -0 0.188985214 0.0537687242
v 0.0268843453 0.188985214 -0.0465650819
v -0.0268843453 0.188985214 0.0465650782
v -0 0.188985214 -0.0537687242
v -0.0465650558 0.188985214 0.026884364
v -0.0268843453 0.188985214 -0.0465650819
v -0.0537687279 0.188985214 0
v -0.0465650558 0.188985214 -0.0268843621
v 0.0537687279 0.155991137 0
v -0 0.155991137 0
v 0.0465650558 0.155991137 0.026884364
v 0.0465650558 0.155991137 -0.0268843621
v 0.0268843453 0.155991137 0.0465650782
v 0.0268843453 0.155991137 -0.0465650819
v -0 0.155991137 0.0537687242
v -0 0.155991137 -0.0537687242
v -0.0268843453 0.155991137 0.0465650782
v -0.0268843453 0.155991137 -0.0465650819
v -0.0465650558 0.155991137 0.026884364
v -0.0465650558 0.155991137 -0.0268843621
v -0.0537687279 0.155991137 0
vt 0.37890625 0.643554688
vt 0.37890625 0.750488281
vt 0.391113281 0.750488281
vt 0.391113281 0.643554688
vt 0.403320312 0.750488281
vt 0.403320312 0.643554688
vt 0.415527344 0.750488281
vt 0.415527344 0.643554688
vt 0.427734375 0.750488281
vt 0.427734375 0.643554688
vt 0.439941406 0.750488281
vt 0.439941406 0.643554688
vt 0.452148438 0.750488281
vt 0.452148438 0.643554688
vt 0.464355469 0.750488281
vt 0.464355469 0.643554688
vt 0.4765625 0.750488281
vt 0.4765625 0.643554688
vt 0.488769531 0.750488281
vt 0.488769531 0.643554688
vt 0.37890625 0.664550781
vt 0.37890625 0.771972656
vt 0.391113281 0.771972656
vt 0.391113281 0.664550781
vt 0.403320312 0.771972656
vt 0.403320312 0.664550781
vt 0.415527344 0.771972656
vt 0.415527344 0.664550781
vt 0.427734375 0.771972656
vt 0.427734375 0.664550781
vt 0.439941406 0.771972656
vt 0.439941406 0.664550781
vt 0.452148438 0.771972656
vt 0.452148438 0.664550781
vt 0.464355469 0.771972656
vt 0.464355469 0.664550781
vt 0.4765625 0.771972656
vt 0.4765625 0.664550781
vt 0.488769531 0.771972656
vt 0.488769531 0.664550781
vt 0.176635742 0.806152344
vt 0.176635742 0.843261719
vt 0.187133789 0.843261719
vt 0.187133789 0.806152344
vt 0.197631836 0.843261719
vt 0.197631836 0.806152344
vt 0.208129883 0.843261719
vt 0.208129883 0.806152344
vt 0.218505859 0.843261719
vt 0.218505859 0.806152344
vt 0.229003906 0.843261719
vt 0.229003906 0.806152344
vt 0.239501953 0.843261719
vt 0.239501953 0.806152344
vt 0.25 0.843261719
vt 0.25 0.806152344
vt 0.260498047 0.843261719
vt 0.260498047 0.806152344
vt 0.270996094 0.843261719
vt 0.270996094 0.806152344
vt 0.281494141 0.843261719
vt 0.281494141 0.806152344
vt 0.291992188 0.843261719
vt 0.291992188 0.806152344
vt 0.302490234 0.843261719
vt 0.302490234 0.806152344
vt 0.37890625 0.686035156
vt 0.37890625 0.801269531
vt 0.391113281 0.801269531
vt 0.391113281 0.686035156
vt 0.403320312 0.801269531
vt 0.403320312 0.686035156
vt 0.415527344 0.801269531
vt 0.415527344 0.686035156
vt 0.427734375 0.801269531
vt 0.427734375 0.686035156
vt 0.439941406 0.801269531
vt 0.439941406 0.686035156
vt 0.452148438 0.801269531
vt 0.452148438 0.686035156
vt 0.464355469 0.801269531
vt 0.464355469 0.686035156
vt 0.4765625 0.801269531
vt 0.4765625 0.686035156
vt 0.488769531 0.801269531
vt 0.488769531 0.686035156
vt 0.338867188 0.901855469
vt 0.288330078 0.928222656
vt 0.346679688 0.930664062
vt 0.317382812 0.880371094
vt 0.338867188 0.959960938
vt 0.288330078 0.872558594
vt 0.317382812 0.980957031
vt 0.259277344 0.880371094
vt 0.288330078 0.988769531
vt 0.238037109 0.901855469
vt 0.259277344 0.980957031
vt 0.230224609 0.930664062
vt 0.238037109 0.959960938
vt 0.414306641 0.848144531
vt 0.368896484 0.846191406
vt 0.408203125 0.87109375
vt 0.408203125 0.825683594
vt 0.391601562 0.887695312
vt 0.391601562 0.809082031
vt 0.368896484 0.893554688
vt 0.368896484 0.802734375
vt 0.346435547 0.887695312
vt 0.346435547 0.809082031
vt 0.329833984 0.87109375
vt 0.329833984 0.825683594
vt 0.323730469 0.848144531
vn -0.0182495117 0 1
vn -0.0182495117 0 1
vn 0.62890625 0 0.777832031
vn 0.62890625 0 0.777832031
vn 0.981445312 0 0.191650391
vn 0.981445312 0 0.191650391
vn 0.875 0 -0.484130859
vn 0.875 0 -0.484130859
vn 0.359130859 0 -0.933105469
vn 0.359130859 0 -0.933105469
vn -0.324707031 0 -0.945800781
vn -0.324707031 0 -0.945800781
vn -0.856933594 0 -0.515625
vn -0.856933594 0 -0.515625
vn -0.987792969 0 0.155639648
vn -0.987792969 0 0.155639648
vn -0.656738281 0 0.754394531
vn -0.656738281 0 0.754394531
vn -0.0182495117 0 1
vn -0.0182495117 0 1
vn -0.0182495117 0 1
vn -0.0182495117 0 1
vn 0.62890625 0 0.777832031
vn 0.62890625 0 0.777832031
vn 0.981445312 0 0.191650391
vn 0.981445312 0 0.191650391
vn 0.875 0 -0.484130859
vn 0.875 0 -0.484130859
vn 0.359130859 0 -0.933105469
vn 0.359130859 0 -0.933105469
vn -0.324707031 0 -0.945800781
vn -0.324707031 0 -0.945800781
vn -0.856933594 0 -0.515625
vn -0.856933594 0 -0.515625
vn -0.987792969 0 0.155639648
vn -0.987792969 0 0.155639648
vn -0.656738281 0 0.754394531
vn -0.656738281 0 0.754394531
vn -0.0182495117 0 1
vn -0.0182495117 0 1
vn 0.866210938 0 -0.5
vn 0.866210938 0 -0.5
vn 0.5 0 -0.866210938
vn 0.5 0 -0.866210938
vn -0 0 -1
vn -0 0 -1
vn -0.5 0 -0.866210938
vn -0.5 0 -0.866210938
vn -0.866210938 0 -0.5
vn -0.866210938 0 -0.5
vn -1 0 0
vn -1 0 0
vn -0.866210938 0 0.5
vn -0.866210938 0 0.5
vn -0.5 0 0.866210938
vn -0.5 0 0.866210938
vn -0 0 1
vn -0 0 1
vn 0.5 0 0.866210938
vn 0.5 0 0.866210938
vn 0.866210938 0 0.5
vn 0.866210938 0 0.5
vn 1 0 0
vn 1 0 0
vn 0.866210938 0 -0.5
vn 0.866210938 0 -0.5
vn -0.0182495117 0 1
vn -0.0182495117 0 1
vn 0.62890625 0 0.777832031
vn 0.62890625 0 0.777832031
vn 0.981445312 0 0.191650391
vn 0.981445312 0 0.191650391
vn 0.875 0 -0.484130859
vn 0.875 0 -0.484130859
vn 0.359130859 0 -0.933105469
vn 0.359130859 0 -0.933105469
vn -0.324707031 0 -0.945800781
vn -0.324707031 0 -0.945800781
vn -0.856933594 0 -0.515625
vn -0.856933594 0 -0.515625
vn -0.987792969 0 0.155639648
vn -0.987792969 0 0.155639648
vn -0.656738281 0 0.754394531
vn -0.656738281 0 0.754394531
vn -0.0182495117 0 1
vn -0.0182495117 0 1
vn -0 1 0
vn -0 1 0
vn -0 1 0
vn -0 1 0
vn -0 1 0
vn -0 1 0
vn -0 1 0
vn -0 1 0
vn -0 1 0
vn -0 1 0
vn -0 1 0
vn -0 1 0
vn -0 1 0
vn -0 -1 0
vn -0 -1 0
vn -0 -1 -1.07288361E-06
vn -0 -1 1.07288361E-06
vn -0 -1 -1.07288361E-06
vn -0 -1 1.07288361E-06
vn -0 -1 0
vn -0 -1 0
vn -0 -1 -1.07288361E-06
vn -0 -1 1.07288361E-06
vn -0 -1 -1.07288361E-06
vn -0 -1 1.07288361E-06
vn -0 -1 0
g HydraulicJack_Head_0
f 3/3/3 2/2/2 1/1/1
f 4/4/4 3/3/3 1/1/1
f 5/5/5 3/3/3 4/4/4
f 6/6/6 5/5/5 4/4/4
f 7/7/7 5/5/5 6/6/6
f 8/8/8 7/7/7 6/6/6
f 9/9/9 7/7/7 8/8/8
f 10/10/10 9/9/9 8/8/8
f 11/11/11 9/9/9 10/10/10
f 12/12/12 11/11/11 10/10/10
f 13/13/13 11/11/11 12/12/12
f 14/14/14 13/13/13 12/12/12
f 15/15/15 13/13/13 14/14/14
f 16/16/16 15/15/15 14/14/14
f 17/17/17 15/15/15 16/16/16
f 18/18/18 17/17/17 16/16/16
f 19/19/19 17/17/17 18/18/18
f 20/20/20 19/19/19 18/18/18
f 23/23/23 22/22/22 21/21/21
f 24/24/24 23/23/23 21/21/21
f 25/25/25 23/23/23 24/24/24
f 26/26/26 25/25/25 24/24/24
f 27/27/27 25/25/25 26/26/26
f 28/28/28 27/27/27 26/26/26
f 29/29/29 27/27/27 28/28/28
f 30/30/30 29/29/29 28/28/28
f 31/31/31 29/29/29 30/30/30
f 32/32/32 31/31/31 30/30/30
f 33/33/33 31/31/31 32/32/32
f 34/34/34 33/33/33 32/32/32
f 35/35/35 33/33/33 34/34/34
f 36/36/36 35/35/35 34/34/34
f 37/37/37 35/35/35 36/36/36
f 38/38/38 37/37/37 36/36/36
f 39/39/39 37/37/37 38/38/38
f 40/40/40 39/39/39 38/38/38
f 43/43/43 42/42/42 41/41/41
f 44/44/44 43/43/43 41/41/41
f 45/45/45 43/43/43 44/44/44
f 46/46/46 45/45/45 44/44/44
f 47/47/47 45/45/45 46/46/46
f 48/48/48 47/47/47 46/46/46
f 49/49/49 47/47/47 48/48/48
f 50/50/50 49/49/49 48/48/48
f 51/51/51 49/49/49 50/50/50
f 52/52/52 51/51/51 50/50/50
f 53/53/53 51/51/51 52/52/52
f 54/54/54 53/53/53 52/52/52
f 55/55/55 53/53/53 54/54/54
f 56/56/56 55/55/55 54/54/54
f 57/57/57 55/55/55 56/56/56
f 58/58/58 57/57/57 56/56/56
f 59/59/59 57/57/57 58/58/58
f 60/60/60 59/59/59 58/58/58
f 61/61/61 59/59/59 60/60/60
f 62/62/62 61/61/61 60/60/60
f 63/63/63 61/61/61 62/62/62
f 64/64/64 63/63/63 62/62/62
f 65/65/65 63/63/63 64/64/64
f 66/66/66 65/65/65 64/64/64
f 69/69/69 68/68/68 67/67/67
f 70/70/70 69/69/69 67/67/67
f 71/71/71 69/69/69 70/70/70
f 72/72/72 71/71/71 70/70/70
f 73/73/73 71/71/71 72/72/72
f 74/74/74 73/73/73 72/72/72
f 75/75/75 73/73/73 74/74/74
f 76/76/76 75/75/75 74/74/74
f 77/77/77 75/75/75 76/76/76
f 78/78/78 77/77/77 76/76/76
f 79/79/79 77/77/77 78/78/78
f 80/80/80 79/79/79 78/78/78
f 81/81/81 79/79/79 80/80/80
f 82/82/82 81/81/81 80/80/80
f 83/83/83 81/81/81 82/82/82
f 84/84/84 83/83/83 82/82/82
f 85/85/85 83/83/83 84/84/84
f 86/86/86 85/85/85 84/84/84
f 89/89/89 88/88/88 87/87/87
f 87/87/87 88/88/88 90/90/90
f 91/91/91 88/88/88 89/89/89
f 90/90/90 88/88/88 92/92/92
f 93/93/93 88/88/88 91/91/91
f 92/92/92 88/88/88 94/94/94
f 95/95/95 88/88/88 93/93/93
f 94/94/94 88/88/88 96/96/96
f 97/97/97 88/88/88 95/95/95
f 96/96/96 88/88/88 98/98/98
f 99/99/99 88/88/88 97/97/97
f 98/98/98 88/88/88 99/99/99
f 102/102/102 101/101/101 100/100/100
f 100/100/100 101/101/101 103/103/103
f 104/104/104 101/101/101 102/102/102
f 103/103/103 101/101/101 105/105/105
f 106/106/106 101/101/101 104/104/104
f 105/105/105 101/101/101 107/107/107
f 108/108/108 101/101/101 106/106/106
f 107/107/107 101/101/101 109/109/109
f 110/110/110 101/101/101 108/108/108
f 109/109/109 101/101/101 111/111/111
f 112/112/112 101/101/101 110/110/110
f 111/111/111 101/101/101 112/112/112
