g RodRoom_Shelving
v 0.30733338 1.15880394 -0.543561697
v 0.30733338 2.05093837 -0.543561697
v -0.30733338 2.05093837 -0.543561697
v -0.30733338 1.15880394 -0.543561697
v 0.30733338 2.05093837 -0.543561697
v 0.30733338 2.05093837 0.543561697
v -0.30733338 2.05093837 0.543561697
v -0.30733338 2.05093837 -0.543561697
v 0.30733338 2.05093837 0.543561697
v 0.30733338 1.15880394 0.543561697
v -0.30733338 1.15880394 0.543561697
v -0.30733338 2.05093837 0.543561697
v -0.30733338 2.05093837 -0.543561697
v -0.30733338 2.05093837 0.543561697
v -0.30733338 1.15880394 0.543561697
v -0.30733338 1.15880394 -0.543561697
v -0.162931517 1.15880394 0.436690807
v -0.162931517 1.9411447 0.436690807
v -0.162931517 1.9411447 -0.436690956
v -0.162931517 1.15880394 -0.436690956
v 0.30733338 1.15880394 -0.543561697
v 0.30733338 1.15880394 -0.436690956
v 0.30733338 1.9411447 -0.436690956
v 0.30733338 2.05093837 -0.543561697
v 0.30733338 1.9411447 -0.436690956
v 0.30733338 1.9411447 0.436690956
v 0.30733338 2.05093837 0.543561697
v 0.30733338 2.05093837 -0.543561697
v 0.30733338 2.05093837 0.543561697
v 0.30733338 1.9411447 0.436690956
v 0.30733338 1.15880394 0.436690956
v 0.30733338 1.15880394 0.543561697
v 0.30733338 1.15880394 -0.436690956
v -0.162931517 1.15880394 -0.436690956
v -0.162931517 1.9411447 -0.436690956
v 0.30733338 1.9411447 -0.436690956
v -0.162931517 1.9411447 -0.436690956
v -0.162931517 1.9411447 0.436690807
v 0.30733338 1.9411447 0.436690956
v 0.30733338 1.9411447 -0.436690956
v 0.30733338 1.9411447 0.436690956
v -0.162931517 1.9411447 0.436690807
v -0.162931517 1.15880394 0.436690807
v 0.30733338 1.15880394 0.436690956
v 0.289553821 0.667369604 0.452584535
v 0.289553821 0.667369604 -0.483857721
v -0.209959716 0.667369604 -0.483857721
v -0.209959716 0.667369604 0.452584535
v 0.289553821 0.667369604 0.452584535
v 0.289553821 0.717580378 0.452584535
v 0.289553821 0.717580378 -0.483857721
v 0.289553821 0.667369604 -0.483857721
v 0.289553821 0.717580378 0.452584535
v -0.209959716 0.717580378 0.452584535
v -0.209959716 0.717580378 -0.483857721
v 0.289553821 0.717580378 -0.483857721
v 0.23957397 1.12908006 0.452584535
v -0.209959716 1.12908006 -0.0156362914
v -0.209959716 1.12908006 0.452584535
v 0.23957397 1.12908006 -0.0156362914
v -0.209959716 1.12908006 -0.483857721
v 0.23957397 1.12908006 -0.483857721
v 0.23957397 1.12908006 0.452584535
v 0.23957397 1.17552161 0.452584535
v 0.23957397 1.17552161 -0.0156362914
v 0.23957397 1.12908006 -0.0156362914
v 0.23957397 1.12908006 -0.483857721
v 0.23957397 1.17552161 -0.483857721
v 0.23957397 1.17552161 0.452584535
v -0.209959716 1.17552161 0.452584535
v -0.209959716 1.17552161 -0.0156362914
v 0.23957397 1.17552161 -0.0156362914
v 0.23957397 1.17552161 -0.483857721
v -0.209959716 1.17552161 -0.483857721
v 0.264832139 1.53376448 0.452584535
v 0.264832139 1.53376448 -0.483857721
v -0.184701532 1.53376448 -0.483857721
v -0.184701532 1.53376448 0.452584535
v 0.264832139 1.53376448 0.452584535
v 0.264832139 1.58267331 0.452584535
v 0.264832139 1.58267331 -0.483857721
v 0.264832139 1.53376448 -0.483857721
v 0.264832139 1.58267331 0.452584535
v -0.184701532 1.58267331 0.452584535
v -0.184701532 1.58267331 -0.483857721
v 0.264832139 1.58267331 -0.483857721
v 0.30733338 1.15880394 -0.543561697
v -0.30733338 1.15880394 -0.543561697
v -0.30733338 0.117484353 -0.543561697
v 0.30733338 0.117484353 -0.543561697
v 0.30733338 0 -0.543561697
v -0.30733338 0 -0.543561697
v -0.30733338 0 0.543561697
v 0.30733338 0 0.543561697
v 0.30733338 0.117484353 0.543561697
v -0.30733338 0.117484353 0.543561697
v -0.30733338 1.15880394 0.543561697
v 0.30733338 1.15880394 0.543561697
v -0.30733338 0.117484353 -0.543561697
v -0.30733338 1.15880394 -0.543561697
v -0.30733338 1.15880394 0.543561697
v -0.30733338 0.117484353 0.543561697
v -0.162931517 1.15880394 0.436690807
v -0.162931517 1.15880394 -0.436690956
v -0.162931517 0.227279127 -0.436690956
v -0.162931517 0.227279127 0.436690807
v 0.30733338 0.117484353 0.543561697
v 0.30733338 0.117484353 -0.543561697
v 0.30733338 0 -0.543561697
v 0.30733338 0 0.543561697
v 0.30733338 0 0.543561697
v -0.30733338 0 0.543561697
v -0.30733338 0.117484353 0.543561697
v 0.30733338 0.117484353 0.543561697
v -0.30733338 0 -0.543561697
v -0.30733338 0.117484353 -0.543561697
v -0.30733338 0.117484353 0.543561697
v -0.30733338 0 0.543561697
v 0.30733338 0.117484353 -0.543561697
v -0.30733338 0.117484353 -0.543561697
v -0.30733338 0 -0.543561697
v 0.30733338 0 -0.543561697
v 0.30733338 1.15880394 -0.543561697
v 0.30733338 0.117484353 -0.543561697
v 0.30733338 0.227279127 -0.436690956
v 0.30733338 1.15880394 -0.436690956
v 0.30733338 0.227279127 -0.436690956
v 0.30733338 0.117484353 -0.543561697
v 0.30733338 0.117484353 0.543561697
v 0.30733338 0.227279127 0.436690956
v 0.30733338 0.117484353 0.543561697
v 0.30733338 1.15880394 0.543561697
v 0.30733338 1.15880394 0.436690956
v 0.30733338 0.227279127 0.436690956
v 0.30733338 1.15880394 -0.436690956
v 0.30733338 0.227279127 -0.436690956
v -0.162931517 0.227279127 -0.436690956
v -0.162931517 1.15880394 -0.436690956
v -0.162931517 0.227279127 -0.436690956
v 0.30733338 0.227279127 -0.436690956
v 0.30733338 0.227279127 0.436690956
v -0.162931517 0.227279127 0.436690807
v 0.30733338 0.227279127 0.436690956
v 0.30733338 1.15880394 0.436690956
v -0.162931517 1.15880394 0.436690807
v -0.162931517 0.227279127 0.436690807
v 0.270956427 0.682898879 -0.0156362914
v 0.270956427 0.682898879 -0.476231992
v 0.270956427 0.189789057 -0.476231992
v 0.270956427 0.189789057 -0.0156362914
v 0.286441028 0.682898879 0.444959402
v 0.286441028 0.682898879 -0.0156362914
v 0.286441028 0.189789057 -0.0156362914
v 0.286441028 0.189789057 0.444959402
v 0.270956427 0.189789057 -0.0156362914
v 0.286441028 0.189789057 -0.0156362914
v 0.286441028 0.682898879 -0.0156362914
v 0.270956427 0.682898879 -0.0156362914
vt 0.231567383 0.828613281
vt 0.231567383 0.390136719
vt 0.355957031 0.390136719
vt 0.355957031 0.828613281
vt 0.646484375 0.754882812
vt 0.646484375 0.657226562
vt 0.516113281 0.657226562
vt 0.516113281 0.754882812
vt 0.231567383 0.390136719
vt 0.231567383 0.828613281
vt 0.355957031 0.828613281
vt 0.355957031 0.390136719
vt 0.236938477 0.645996094
vt 0.350585938 0.645996094
vt 0.350585938 0.515136719
vt 0.236938477 0.515136719
vt 0.252929688 0.543457031
vt 0.252929688 0.4296875
vt 0.334472656 0.4296875
vt 0.334472656 0.543457031
vt 0.505371094 0.408447266
vt 0.492431641 0.408691406
vt 0.492431641 0.854980469
vt 0.505371094 0.870605469
vt 0.491455078 0.769042969
vt 0.491455078 0.854980469
vt 0.505859375 0.858398438
vt 0.505859375 0.754882812
vt 0.505371094 0.870605469
vt 0.490722656 0.854980469
vt 0.490722656 0.408691406
vt 0.505371094 0.408447266
vt 0.231567383 0.828613281
vt 0.356933594 0.828613281
vt 0.356933594 0.390136719
vt 0.231567383 0.390136719
vt 0.254882812 0.45703125
vt 0.254882812 0.551269531
vt 0.333984375 0.551269531
vt 0.333984375 0.45703125
vt 0.231567383 0.390136719
vt 0.356933594 0.390136719
vt 0.356933594 0.828613281
vt 0.231567383 0.828613281
vt 0.237670898 0.646484375
vt 0.237670898 0.825683594
vt 0.347412109 0.825683594
vt 0.347412109 0.646484375
vt 0.362548828 0.834472656
vt 0.375244141 0.834472656
vt 0.375244141 0.648925781
vt 0.362548828 0.648925781
vt 0.237670898 0.825683594
vt 0.347412109 0.825683594
vt 0.347412109 0.646484375
vt 0.237670898 0.646484375
vt 0.237670898 0.646484375
vt 0.347412109 0.735839844
vt 0.347412109 0.646484375
vt 0.237670898 0.735839844
vt 0.347412109 0.825683594
vt 0.237670898 0.825683594
vt 0.362548828 0.834472656
vt 0.375244141 0.834472656
vt 0.375244141 0.741699219
vt 0.362548828 0.741699219
vt 0.362548828 0.648925781
vt 0.375244141 0.648925781
vt 0.237670898 0.825683594
vt 0.347412109 0.825683594
vt 0.347412109 0.735839844
vt 0.237670898 0.735839844
vt 0.237670898 0.646484375
vt 0.347412109 0.646484375
vt 0.237670898 0.646484375
vt 0.237670898 0.825683594
vt 0.347412109 0.825683594
vt 0.347412109 0.646484375
vt 0.362548828 0.834472656
vt 0.375244141 0.834472656
vt 0.375244141 0.648925781
vt 0.362548828 0.648925781
vt 0.237670898 0.825683594
vt 0.347412109 0.825683594
vt 0.347412109 0.646484375
vt 0.237670898 0.646484375
vt 0.231567383 0.828613281
vt 0.355957031 0.828613281
vt 0.355957031 0.390136719
vt 0.231567383 0.390136719
vt 0.66015625 0.763183594
vt 0.516113281 0.763183594
vt 0.516113281 0.647460938
vt 0.66015625 0.647460938
vt 0.231567383 0.390136719
vt 0.355957031 0.390136719
vt 0.355957031 0.828613281
vt 0.231567383 0.828613281
vt 0.236938477 0.645996094
vt 0.236938477 0.515136719
vt 0.350585938 0.515136719
vt 0.350585938 0.645996094
vt 0.252929688 0.543457031
vt 0.334472656 0.543457031
vt 0.334472656 0.4296875
vt 0.252929688 0.4296875
vt 0.378173828 0.863769531
vt 0.487304688 0.863769531
vt 0.500488281 0.884765625
vt 0.364746094 0.884765625
vt 0.504394531 0.885253906
vt 0.368896484 0.885253906
vt 0.368896484 0.862792969
vt 0.49609375 0.862792969
vt 0.364990234 0.884277344
vt 0.37890625 0.862792969
vt 0.492431641 0.862792969
vt 0.506347656 0.884277344
vt 0.492431641 0.86328125
vt 0.368896484 0.86328125
vt 0.368896484 0.885253906
vt 0.500976562 0.885253906
vt 0.505371094 0.408447266
vt 0.505371094 0.857910156
vt 0.492431641 0.854980469
vt 0.492431641 0.408691406
vt 0.491455078 0.769042969
vt 0.505859375 0.755371094
vt 0.505859375 0.857910156
vt 0.491455078 0.854980469
vt 0.505371094 0.857910156
vt 0.505371094 0.408447266
vt 0.490722656 0.408691406
vt 0.490722656 0.854980469
vt 0.231567383 0.828613281
vt 0.231567383 0.390136719
vt 0.356933594 0.390136719
vt 0.356933594 0.828613281
vt 0.254882812 0.45703125
vt 0.333984375 0.45703125
vt 0.333984375 0.551269531
vt 0.254882812 0.551269531
vt 0.231567383 0.390136719
vt 0.231567383 0.828613281
vt 0.356933594 0.828613281
vt 0.356933594 0.390136719
vt 0.252929688 0.543457031
vt 0.334472656 0.543457031
vt 0.334472656 0.4296875
vt 0.252929688 0.4296875
vt 0.252929688 0.543457031
vt 0.334472656 0.543457031
vt 0.334472656 0.4296875
vt 0.252929688 0.4296875
vt 0.252929688 0.4296875
vt 0.334472656 0.4296875
vt 0.334472656 0.543457031
vt 0.252929688 0.543457031
vn -0 0 -1
vn -0 -0.118835449 -0.992675781
vn -0 -0.0977783203 -0.995117188
vn -0 0 -1
vn -0 1 0
vn -0 1 0
vn -0 1 0
vn -0 1 0
vn -0 -0.118835449 0.992675781
vn -0 0 1
vn -0 0 1
vn -0 -0.0977783203 0.995117188
vn -1 0 0
vn -1 0 0
vn -1 0 0
vn -1 0 0
vn 1 0 0
vn 1 0 0
vn 1 0 0
vn 1 0 0
vn 1 0 0
vn 1 0 0
vn 1 0 0
vn 1 0 0
vn 1 2.38418579E-07 0
vn 1 2.38418579E-07 0
vn 1 2.38418579E-07 0
vn 1 2.38418579E-07 0
vn 1 0 0
vn 1 0 0
vn 1 0 0
vn 1 0 0
vn -0 0 1
vn -0 0 1
vn -0 0 1
vn -0 0 1
vn -0 -1 0
vn -0 -1 0
vn -0 -1 0
vn -0 -1 0
vn -0 0 -1
vn -0 0 -1
vn -0 0 -1
vn -0 0 -1
vn -0 -1 0
vn -0 -1 0
vn -0 -1 0
vn -0 -1 0
vn 1 0 0
vn 1 0 0
vn 1 0 0
vn 1 0 0
vn -0 1 0
vn -0 1 0
vn -0 1 0
vn -0 1 0
vn -0 -1 0
vn -0 -1 0
vn -0 -1 0
vn -0 -1 0
vn -0 -1 0
vn -0 -1 0
vn 1 0 0
vn 1 0 0
vn 1 0 0
vn 1 0 0
vn 1 0 0
vn 1 0 0
vn -0 1 0
vn -0 1 0
vn -0 1 0
vn -0 1 0
vn -0 1 0
vn -0 1 0
vn -0 -1 0
vn -0 -1 0
vn -0 -1 0
vn -0 -1 0
vn 1 0 0
vn 1 0 0
vn 1 0 0
vn 1 0 0
vn -0 1 0
vn -0 1 0
vn -0 1 0
vn -0 1 0
vn -0 0 -1
vn -0 0 -1
vn -0 0.0977783203 -0.995117188
vn -0 0.118835449 -0.992675781
vn -0 -1 0
vn -0 -1 0
vn -0 -1 0
vn -0 -1 0
vn -0 0.118835449 0.992675781
vn -0 0.0977783203 0.995117188
vn -0 0 1
vn -0 0 1
vn -1 0 0
vn -1 0 0
vn -1 0 0
vn -1 0 0
vn 1 0 0
vn 1 0 0
vn 1 0 0
vn 1 0 0
vn 0.877929688 0.478759766 0
vn 0.877929688 0.478759766 0
vn 0.877929688 0.478759766 0
vn 0.877929688 0.478759766 0
vn -0 0.628417969 0.777832031
vn -0 0.628417969 0.777832031
vn -0 0.0977783203 0.995117188
vn -0 0.118835449 0.992675781
vn -1 -1.78813934E-07 0
vn -1 0 0
vn -1 0 0
vn -1 -1.78813934E-07 0
vn -0 0.118835449 -0.992675781
vn -0 0.0977783203 -0.995117188
vn -0 0.628417969 -0.777832031
vn -0 0.628417969 -0.777832031
vn 1 0 0
vn 1 0 0
vn 1 0 0
vn 1 0 0
vn 1 -1.78813934E-07 0
vn 1 -1.78813934E-07 0
vn 1 -1.78813934E-07 0
vn 1 -1.78813934E-07 0
vn 1 0 0
vn 1 0 0
vn 1 0 0
vn 1 0 0
vn -0 0 1
vn -0 0 1
vn -0 0 1
vn -0 0 1
vn -0 1 0
vn -0 1 0
vn -0 1 0
vn -0 1 0
vn -0 0 -1
vn -0 0 -1
vn -0 0 -1
vn -0 0 -1
vn 1 0 0
vn 1 0 0
vn 1 0 0
vn 1 0 0
vn 1 0 0
vn 1 0 0
vn 1 0 0
vn 1 0 0
vn -0 0 -1
vn -0 0 -1
vn -0 0 -1
vn -0 0 -1
g RodRoom_Shelving_0
f 3/3/3 2/2/2 1/1/1
f 4/4/4 3/3/3 1/1/1
f 7/7/7 6/6/6 5/5/5
f 8/8/8 7/7/7 5/5/5
f 11/11/11 10/10/10 9/9/9
f 12/12/12 11/11/11 9/9/9
f 15/15/15 14/14/14 13/13/13
f 16/16/16 15/15/15 13/13/13
f 19/19/19 18/18/18 17/17/17
f 20/20/20 19/19/19 17/17/17
f 23/23/23 22/22/22 21/21/21
f 24/24/24 23/23/23 21/21/21
f 27/27/27 26/26/26 25/25/25
f 28/28/28 27/27/27 25/25/25
f 31/31/31 30/30/30 29/29/29
f 32/32/32 31/31/31 29/29/29
f 35/35/35 34/34/34 33/33/33
f 36/36/36 35/35/35 33/33/33
f 39/39/39 38/38/38 37/37/37
f 40/40/40 39/39/39 37/37/37
f 43/43/43 42/42/42 41/41/41
f 44/44/44 43/43/43 41/41/41
f 47/47/47 46/46/46 45/45/45
f 48/48/48 47/47/47 45/45/45
f 51/51/51 50/50/50 49/49/49
f 52/52/52 51/51/51 49/49/49
f 55/55/55 54/54/54 53/53/53
f 56/56/56 55/55/55 53/53/53
f 59/59/59 58/58/58 57/57/57
f 58/58/58 60/60/60 57/57/57
f 58/58/58 61/61/61 60/60/60
f 61/61/61 62/62/62 60/60/60
f 65/65/65 64/64/64 63/63/63
f 66/66/66 65/65/65 63/63/63
f 66/66/66 67/67/67 65/65/65
f 67/67/67 68/68/68 65/65/65
f 71/71/71 70/70/70 69/69/69
f 72/72/72 71/71/71 69/69/69
f 72/72/72 73/73/73 71/71/71
f 73/73/73 74/74/74 71/71/71
f 77/77/77 76/76/76 75/75/75
f 78/78/78 77/77/77 75/75/75
f 81/81/81 80/80/80 79/79/79
f 82/82/82 81/81/81 79/79/79
f 85/85/85 84/84/84 83/83/83
f 86/86/86 85/85/85 83/83/83
f 89/89/89 88/88/88 87/87/87
f 90/90/90 89/89/89 87/87/87
f 93/93/93 92/92/92 91/91/91
f 94/94/94 93/93/93 91/91/91
f 97/97/97 96/96/96 95/95/95
f 98/98/98 97/97/97 95/95/95
f 101/101/101 100/100/100 99/99/99
f 102/102/102 101/101/101 99/99/99
f 105/105/105 104/104/104 103/103/103
f 106/106/106 105/105/105 103/103/103
f 109/109/109 108/108/108 107/107/107
f 110/110/110 109/109/109 107/107/107
f 113/113/113 112/112/112 111/111/111
f 114/114/114 113/113/113 111/111/111
f 117/117/117 116/116/116 115/115/115
f 118/118/118 117/117/117 115/115/115
f 121/121/121 120/120/120 119/119/119
f 122/122/122 121/121/121 119/119/119
f 125/125/125 124/124/124 123/123/123
f 126/126/126 125/125/125 123/123/123
f 129/129/129 128/128/128 127/127/127
f 130/130/130 129/129/129 127/127/127
f 133/133/133 132/132/132 131/131/131
f 134/134/134 133/133/133 131/131/131
f 137/137/137 136/136/136 135/135/135
f 138/138/138 137/137/137 135/135/135
f 141/141/141 140/140/140 139/139/139
f 142/142/142 141/141/141 139/139/139
f 145/145/145 144/144/144 143/143/143
f 146/146/146 145/145/145 143/143/143
f 149/149/149 148/148/148 147/147/147
f 150/150/150 149/149/149 147/147/147
f 153/153/153 152/152/152 151/151/151
f 154/154/154 153/153/153 151/151/151
f 157/157/157 156/156/156 155/155/155
f 158/158/158 157/157/157 155/155/155
