g DamRound_Fence_9
v -8.44652843 2.40253067 -42.5993919
v -8.44652843 2.36157608 -41.9898567
v -8.44652843 1.87352061 -41.9898605
v -8.44652843 1.90531158 -42.5993919
v -8.44652843 1.42409182 -42.5993919
v -8.44652843 1.40794349 -41.9898567
v -8.44652843 0.927326381 -41.9898567
v -8.44652843 0.927326381 -42.5993919
v -8.44652843 1.40794349 -41.9898567
v -8.44652843 1.40794349 -41.4228516
v -8.44652843 0.927326381 -41.4228439
v -8.44652843 0.927326381 -41.9898567
v -8.44652843 2.36157608 -41.9898567
v -8.44652843 2.36157608 -41.4228516
v -8.44652843 1.87352061 -41.4228554
v -8.44652843 1.87352061 -41.9898605
v -8.44652843 1.43821871 -43.1326294
v -8.44652843 1.42409182 -42.5993919
v -8.44652843 0.927326381 -42.5993919
v -8.44652843 0.927326381 -43.1326294
v -8.44652843 2.43835878 -43.1326294
v -8.44652843 2.40253067 -42.5993919
v -8.44652843 1.90531158 -42.5993919
v -8.44652843 1.93312323 -43.1326294
v -8.44652843 1.93312323 -43.1326294
v -8.44652843 1.90531158 -42.5993919
v -8.44652843 1.42409182 -42.5993919
v -8.44652843 1.43821871 -43.1326294
v -8.44652843 1.90531158 -42.5993919
v -8.44652843 1.87352061 -41.9898605
v -8.44652843 1.40794349 -41.9898567
v -8.44652843 1.42409182 -42.5993919
v -8.44652843 1.87352061 -41.9898605
v -8.44652843 1.87352061 -41.4228554
v -8.44652843 1.40794349 -41.4228516
v -8.44652843 1.40794349 -41.9898567
v -8.44652843 2.85267878 -43.1326294
v -8.44652843 2.81027699 -42.5993919
v -8.44652843 2.40253067 -42.5993919
v -8.44652843 2.43835878 -43.1326294
v -8.44652843 2.81027699 -42.5993919
v -8.44652843 2.76180792 -41.9898567
v -8.44652843 2.36157608 -41.9898567
v -8.44652843 2.40253067 -42.5993919
v -8.44652843 2.76180792 -41.9898567
v -8.44652843 2.76180792 -41.4228439
v -8.44652843 2.36157608 -41.4228516
v -8.44652843 2.36157608 -41.9898567
vt 0.756835938 0.501464844
vt 0.0196228027 0.501464844
vt 0.0196228027 0.0168762207
vt 0.756835938 0.0168762207
vt 0.756835938 0.501464844
vt 0.0196228027 0.501464844
vt 0.0196228027 0.0168762207
vt 0.756835938 0.0168762207
vt 0.0196228027 0.501464844
vt 0.756835938 0.501464844
vt 0.756835938 0.0168762207
vt 0.0196228027 0.0168762207
vt 0.0196228027 0.501464844
vt 0.756835938 0.501464844
vt 0.756835938 0.0168762207
vt 0.0196228027 0.0168762207
vt 0.0196228027 0.501464844
vt 0.756835938 0.501464844
vt 0.756835938 0.0168762207
vt 0.0196228027 0.0168762207
vt 0.0196228027 0.501464844
vt 0.756835938 0.501464844
vt 0.756835938 0.0168762207
vt 0.0196228027 0.0168762207
vt 0.0196228027 0.501464844
vt 0.756835938 0.501464844
vt 0.756835938 0.0168762207
vt 0.0196228027 0.0168762207
vt 0.756835938 0.501464844
vt 0.0196228027 0.501464844
vt 0.0196228027 0.0168762207
vt 0.756835938 0.0168762207
vt 0.0196228027 0.501464844
vt 0.756835938 0.501464844
vt 0.756835938 0.0168762207
vt 0.0196228027 0.0168762207
vt 0.0196228027 0.501464844
vt 0.756835938 0.501464844
vt 0.756835938 0.0168762207
vt 0.0196228027 0.0168762207
vt 0.756835938 0.501464844
vt 0.0196228027 0.501464844
vt 0.0196228027 0.0168762207
vt 0.756835938 0.0168762207
vt 0.0196228027 0.501464844
vt 0.756835938 0.501464844
vt 0.756835938 0.0168762207
vt 0.0196228027 0.0168762207
vn -1 -7.74860382E-07 0
vn -1 0 0
vn -1 0 0
vn -1 0 0
vn -1 7.15255737E-07 0
vn -1 0 0
vn -1 0 0
vn -1 1.37090683E-06 0
vn -1 0 0
vn -1 -1.43051147E-06 0
vn -1 -2.86102295E-06 0
vn -1 0 0
vn -1 0 0
vn -1 1.54972076E-06 0
vn -1 0 0
vn -1 0 0
vn -1 0 0
vn -1 7.15255737E-07 0
vn -1 1.37090683E-06 0
vn -1 0 0
vn -1 0 0
vn -1 -7.74860382E-07 0
vn -1 0 0
vn -1 0 0
vn -1 0 0
vn -1 0 0
vn -1 7.15255737E-07 0
vn -1 0 0
vn -1 0 0
vn -1 0 0
vn -1 0 0
vn -1 7.15255737E-07 0
vn -1 0 0
vn -1 0 0
vn -1 -1.43051147E-06 0
vn -1 0 0
vn -1 0 0
vn -1 -1.60932541E-06 0
vn -1 -7.74860382E-07 0
vn -1 0 0
vn -1 -1.60932541E-06 0
vn -1 0 0
vn -1 0 0
vn -1 -7.74860382E-07 0
vn -1 0 0
vn -1 3.4570694E-06 0
vn -1 1.54972076E-06 0
vn -1 0 0
g DamRound_Fence_9_0
f 3/3/3 2/2/2 1/1/1
f 4/4/4 3/3/3 1/1/1
f 7/7/7 6/6/6 5/5/5
f 8/8/8 7/7/7 5/5/5
f 11/11/11 10/10/10 9/9/9
f 12/12/12 11/11/11 9/9/9
f 15/15/15 14/14/14 13/13/13
f 16/16/16 15/15/15 13/13/13
f 19/19/19 18/18/18 17/17/17
f 20/20/20 19/19/19 17/17/17
f 23/23/23 22/22/22 21/21/21
f 24/24/24 23/23/23 21/21/21
f 27/27/27 26/26/26 25/25/25
f 28/28/28 27/27/27 25/25/25
f 31/31/31 30/30/30 29/29/29
f 32/32/32 31/31/31 29/29/29
f 35/35/35 34/34/34 33/33/33
f 36/36/36 35/35/35 33/33/33
f 39/39/39 38/38/38 37/37/37
f 40/40/40 39/39/39 37/37/37
f 43/43/43 42/42/42 41/41/41
f 44/44/44 43/43/43 41/41/41
f 47/47/47 46/46/46 45/45/45
f 48/48/48 47/47/47 45/45/45
