g Rock_D_5
v 0.354463467 0.497168098 -0.0923064194
v 0.208989036 0.516867761 -0.207473677
v 0.275664817 0.40473122 -0.36204026
v 0.309002707 0.40473122 -0.318094859
v 0.502968616 0.151666324 -0.284756969
v 0.339309881 0.165304552 -0.489330388
v 0.192320091 0.389577634 -0.460538573
v 0.205958319 0.148635607 -0.699965241
v 0.263541948 -0.0938217781 -0.827255368
v 0.459023215 -0.12564431 -0.627228025
v 0.493876464 -0.336279163 -0.660565916
v 0.640866253 -0.122613593 -0.392347434
v 0.540852582 0.14560489 -0.0983678541
v 0.669658068 -0.334763805 -0.442354269
v 0.424169965 0.14560489 0.216826747
v 0.277180176 0.513837043 0.0713523156
v 0.459023215 -0.0816989088 0.222888181
v 0.657535199 -0.113521441 -0.195350808
v 0.460538573 -0.301425914 0.198642443
v 0.681780937 -0.334763805 -0.248388361
v 0.642381612 -0.484784312 -0.46356929
v 0.490845746 -0.484784312 -0.649958405
v 0.654504481 -0.484784312 -0.269603382
v -0.207734595 0.457768773 -0.0635146049
v -0.40473122 0.277441093 0.209249953
v -0.601727846 0.0683215982 0.244103202
v -0.594151052 0.103174847 0.0622601636
v -0.719925821 -0.192320091 0.338055439
v -0.177427422 0.222888181 -0.390832075
v -0.0577140876 0.52899063 -0.289303045
v -0.704772234 -0.169589711 0.138028096
v 0.00896169328 0.142574172 -0.663596633
v 0.0377535078 0.498683457 -0.40750102
v 0.0392688664 -0.0862449848 -0.753002794
v 0.205958319 0.148635607 -0.699965241
v 0.263541948 -0.0938217781 -0.827255368
v 0.258995872 -0.315064142 -0.812101782
v 0.0286613558 -0.30597199 -0.731787773
v -0.218342105 0.000130458661 -0.390832075
v -0.218342105 -0.224142623 -0.363555619
v -0.0243761972 -0.484784312 -0.595405494
v -0.186519574 -0.399924227 -0.319610218
v -0.677495778 -0.390832075 0.160758476
v -0.722956538 -0.413562455 0.388062275
v -0.59718177 -0.50903005 0.154697042
v -0.669918985 -0.542367941 0.392608351
v 0.00896169328 0.142574172 -0.663596633
v 0.205958319 0.148635607 -0.699965241
v 0.192320091 0.389577634 -0.460538573
v 0.0377535078 0.498683457 -0.40750102
v 0.275664817 0.40473122 -0.36204026
v 0.208989036 0.516867761 -0.207473677
v 0.122613593 0.542628858 -0.0726067569
v -0.0577140876 0.52899063 -0.289303045
v 0.277180176 0.513837043 0.0713523156
v 0.354463467 0.497168098 -0.0923064194
v 0.119582875 0.118328434 0.474437718
v 0.277180176 0.513837043 0.0713523156
v 0.424169965 0.14560489 0.216826747
v 0.108975365 0.442615187 0.22440354
v 0.122613593 0.542628858 -0.0726067569
v -0.047106577 0.46079949 0.121359151
v -0.0577140876 0.52899063 -0.289303045
v -0.207734595 0.457768773 -0.0635146049
v -0.40473122 0.277441093 0.209249953
v -0.298656114 0.295625397 0.298656114
v -0.601727846 0.0683215982 0.244103202
v -0.225918899 0.297140755 0.321386494
v -0.428976959 0.0955980541 0.415338731
v -0.719925821 -0.192320091 0.338055439
v -0.166819911 0.0728676742 0.533536706
v 0.00896169328 -0.174135787 0.613850715
v -0.541113499 -0.18171258 0.57445139
v -0.722956538 -0.413562455 0.388062275
v -0.286533245 -0.195350808 0.691134006
v -0.550205651 -0.399924227 0.606273922
v -0.669918985 -0.542367941 0.392608351
v -0.516867761 -0.53176043 0.575966748
v -0.307748266 -0.415077813 0.704772234
v -0.0274069145 -0.399924227 0.604758563
v -0.289563962 -0.543883299 0.654765399
v -0.0228608385 -0.528729713 0.547174934
v 0.263541948 -0.0938217781 -0.827255368
v 0.258995872 -0.315064142 -0.812101782
v 0.493876464 -0.336279163 -0.660565916
v 0.490845746 -0.484784312 -0.649958405
v 0.199896884 -0.484784312 -0.677234861
v -0.0243761972 -0.484784312 -0.595405494
v 0.0286613558 -0.30597199 -0.731787773
v 0.436292835 -0.478722877 0.148635607
v 0.681780937 -0.334763805 -0.248388361
v 0.654504481 -0.484784312 -0.269603382
v 0.460538573 -0.301425914 0.198642443
v -0.0274069145 -0.399924227 0.604758563
v -0.0228608385 -0.528729713 0.547174934
v 0.459023215 -0.0816989088 0.222888181
v 0.00896169328 -0.174135787 0.613850715
v 0.119582875 0.118328434 0.474437718
v 0.424169965 0.14560489 0.216826747
vt 0.280238455 0.150813907
vt 0.280238455 0.185073346
vt 0.31069129 0.192686555
vt 0.306884686 0.181266742
vt 0.341144125 0.147007303
vt 0.348757334 0.196493159
vt 0.31069129 0.215526181
vt 0.348757334 0.245979016
vt 0.379210168 0.261205433
vt 0.39824319 0.204106368
vt 0.424889421 0.207912972
vt 0.386823377 0.13558749
vt 0.314497894 0.112747863
vt 0.417276212 0.131780885
vt 0.253592225 0.086101633
vt 0.24978562 0.143200698
vt 0.257398829 0.0594554025
vt 0.356370542 0.10132805
vt 0.265012038 0.0290025676
vt 0.386823377 0.086101633
vt 0.440115838 0.13558749
vt 0.443922443 0.215526181
vt 0.402049795 0.0746818199
vt 0.207912972 0.22313939
vt 0.143200698 0.211719577
vt 0.108941259 0.238365807
vt 0.13558749 0.261205433
vt 0.0670686112 0.24978562
vt 0.257398829 0.280238455
vt 0.257398829 0.230752599
vt 0.097521446 0.280238455
vt 0.322111103 0.272625246
vt 0.28404506 0.230752599
vt 0.344950729 0.291658268
vt 0.348757334 0.245979016
vt 0.379210168 0.261205433
vt 0.39824319 0.276431851
vt 0.356370542 0.314497894
vt 0.253592225 0.31069129
vt 0.245979016 0.341144125
vt 0.337337521 0.352563938
vt 0.242172412 0.363983751
vt 0.0784884242 0.303078081
vt 0.0404223807 0.253592225
vt 0.0784884242 0.322111103
vt 0.0213893589 0.257398829
vt 0.322111103 0.272625246
vt 0.348757334 0.245979016
vt 0.31069129 0.215526181
vt 0.28404506 0.230752599
vt 0.31069129 0.192686555
vt 0.280238455 0.185073346
vt 0.24978562 0.181266742
vt 0.257398829 0.230752599
vt 0.24978562 0.143200698
vt 0.280238455 0.150813907
vt 0.173653533 0.10132805
vt 0.24978562 0.143200698
vt 0.253592225 0.086101633
vt 0.211719577 0.143200698
vt 0.24978562 0.181266742
vt 0.204106368 0.177460138
vt 0.257398829 0.230752599
vt 0.207912972 0.22313939
vt 0.143200698 0.211719577
vt 0.147007303 0.188879951
vt 0.108941259 0.238365807
vt 0.150813907 0.173653533
vt 0.105134655 0.188879951
vt 0.0670686112 0.24978562
vt 0.124167677 0.131780885
vt 0.124167677 0.0784884242
vt 0.0556487981 0.185073346
vt 0.0404223807 0.253592225
vt 0.0708752155 0.124167677
vt 0.0290025676 0.181266742
vt 0.0213893589 0.257398829
vt 0.00996954581 0.177460138
vt 0.0480355894 0.116554468
vt 0.10132805 0.0556487981
vt 0.032809172 0.10132805
vt 0.10132805 0.0366157763
vt 0.379210168 0.261205433
vt 0.39824319 0.276431851
vt 0.424889421 0.207912972
vt 0.443922443 0.215526181
vt 0.409663003 0.31069129
vt 0.337337521 0.352563938
vt 0.356370542 0.314497894
vt 0.272625246 0.00616294146
vt 0.386823377 0.086101633
vt 0.402049795 0.0746818199
vt 0.265012038 0.0290025676
vt 0.10132805 0.0556487981
vt 0.10132805 0.0366157763
vt 0.257398829 0.0594554025
vt 0.124167677 0.0784884242
vt 0.173653533 0.10132805
vt 0.253592225 0.086101633
vn 0.770518507 0.620162419 0.147308534
vn 0.245150157 0.929202625 -0.276557196
vn 0.585094384 0.620162419 -0.522554434
vn 0.708710466 0.558354378 -0.431242234
vn 0.801422528 0.496546337 -0.333412159
vn 0.677806446 0.496546337 -0.542236257
vn 0.337862219 0.68197046 -0.64866433
vn 0.306958199 0.558354378 -0.770725018
vn 0.337862219 0.280218193 -0.898513709
vn 0.708710466 0.372930254 -0.598876031
vn 0.646902425 -0.0288220133 -0.762027916
vn 0.832326548 0.372930254 -0.410067729
vn 0.89413459 0.372930254 0.247883765
vn 0.89413459 0.094794069 -0.437649883
vn 0.739614487 0.342026234 0.579645121
vn 0.554190363 0.68197046 0.477272808
vn 0.770518507 0.0329860279 0.636563549
vn 0.955942631 0.15660211 0.248293105
vn 0.770518507 -0.152438096 0.618921527
vn 0.955942631 -0.0906300545 0.279212965
vn 0.89413459 -0.0906300545 -0.438531104
vn 0.523286343 -0.276054178 -0.806204375
vn 0.92503861 -0.214246137 0.31369119
vn -0.620162419 0.743778501 -0.24938347
vn -0.589258398 0.774682522 0.229437422
vn -0.774682522 0.589258398 0.229437422
vn -0.805586542 0.372930254 -0.460383914
vn -0.898298604 0.280218193 0.338433719
vn -0.743778501 0.342026234 -0.574292257
vn -0.558354378 0.743778501 -0.367469631
vn -0.867394584 0.0329860279 -0.496526493
vn -0.527450357 0.372930254 -0.76336043
vn -0.311122213 0.712874481 -0.628500552
vn -0.620162419 0.094794069 -0.778725021
vn 0.306958199 0.558354378 -0.770725018
vn 0.337862219 0.280218193 -0.898513709
vn 0.152438096 -0.214246137 -0.964811494
vn -0.651066439 -0.214246137 -0.728155948
vn -0.774682522 0.0329860279 -0.63148944
vn -0.774682522 -0.152438096 -0.61370157
vn -0.743778501 -0.276054178 -0.608759092
vn -0.743778501 -0.276054178 -0.608759092
vn -0.805586542 -0.214246137 -0.552384753
vn -0.929202625 -0.121534075 0.349015688
vn -0.712874481 -0.36876624 -0.596507699
vn -0.867394584 -0.39967026 0.296463015
vn -0.527450357 0.372930254 -0.76336043
vn 0.306958199 0.558354378 -0.770725018
vn 0.337862219 0.68197046 -0.64866433
vn -0.311122213 0.712874481 -0.628500552
vn 0.585094384 0.620162419 -0.522554434
vn 0.245150157 0.929202625 -0.276557196
vn -0.0638900484 0.991010666 0.117541149
vn -0.558354378 0.743778501 -0.367469631
vn 0.554190363 0.68197046 0.477272808
vn 0.770518507 0.620162419 0.147308534
vn 0.39967026 0.403834275 0.822910421
vn 0.554190363 0.68197046 0.477272808
vn 0.739614487 0.342026234 0.579645121
vn 0.245150157 0.68197046 0.689070165
vn -0.0638900484 0.991010666 0.117541149
vn -0.249314172 0.929202625 0.272809321
vn -0.558354378 0.743778501 -0.367469631
vn -0.620162419 0.743778501 -0.24938347
vn -0.589258398 0.774682522 0.229437422
vn -0.372930254 0.774682522 0.510676038
vn -0.774682522 0.589258398 0.229437422
vn -0.12569809 0.712874481 0.689934754
vn -0.465642316 0.589258398 0.660266441
vn -0.898298604 0.280218193 0.338433719
vn -0.0329860279 0.558354378 0.828946507
vn 0.492382322 0.094794069 0.865201557
vn -0.558354378 0.403834275 0.724678044
vn -0.929202625 -0.121534075 0.349015688
vn -0.094794069 0.311122213 0.945630506
vn -0.620162419 -0.0288220133 0.78394379
vn -0.867394584 -0.39967026 0.296463015
vn -0.558354378 -0.337862219 0.757686947
vn -0.0329860279 -0.0906300545 0.995338191
vn 0.523286343 -0.183342116 0.832200139
vn 0.0597260339 -0.36876624 0.927601348
vn 0.585094384 -0.306958199 0.750627222
vn 0.337862219 0.280218193 -0.898513709
vn 0.152438096 -0.214246137 -0.964811494
vn 0.646902425 -0.0288220133 -0.762027916
vn 0.523286343 -0.276054178 -0.806204375
vn -0.094794069 -0.523286343 -0.846868046
vn -0.743778501 -0.276054178 -0.608759092
vn -0.651066439 -0.214246137 -0.728155948
vn 0.770518507 -0.276054178 0.574539225
vn 0.955942631 -0.0906300545 0.279212965
vn 0.92503861 -0.214246137 0.31369119
vn 0.770518507 -0.152438096 0.618921527
vn 0.523286343 -0.183342116 0.832200139
vn 0.585094384 -0.306958199 0.750627222
vn 0.770518507 0.0329860279 0.636563549
vn 0.492382322 0.094794069 0.865201557
vn 0.39967026 0.403834275 0.822910421
vn 0.739614487 0.342026234 0.579645121
g Rock_D_5_0
f 3/3/3 2/2/2 1/1/1
f 4/4/4 3/3/3 1/1/1
f 4/4/4 5/5/5 3/3/3
f 4/4/4 1/1/1 5/5/5
f 5/5/5 6/6/6 3/3/3
f 3/3/3 6/6/6 7/7/7
f 6/6/6 8/8/8 7/7/7
f 8/8/8 6/6/6 9/9/9
f 6/6/6 10/10/10 9/9/9
f 10/10/10 11/11/11 9/9/9
f 5/5/5 12/12/12 6/6/6
f 12/12/12 10/10/10 6/6/6
f 1/1/1 13/13/13 5/5/5
f 5/5/5 13/13/13 12/12/12
f 11/11/11 10/10/10 14/14/14
f 10/10/10 12/12/12 14/14/14
f 13/13/13 1/1/1 15/15/15
f 1/1/1 16/16/16 15/15/15
f 13/13/13 15/15/15 17/17/17
f 18/18/18 13/13/13 17/17/17
f 13/13/13 18/18/18 12/12/12
f 17/17/17 19/19/19 18/18/18
f 19/19/19 20/20/20 18/18/18
f 18/18/18 20/20/20 12/12/12
f 20/20/20 14/14/14 12/12/12
f 14/14/14 21/21/21 11/11/11
f 14/14/14 20/20/20 21/21/21
f 21/21/21 22/22/22 11/11/11
f 20/20/20 23/23/23 21/21/21
f 26/26/26 25/25/25 24/24/24
f 27/27/27 26/26/26 24/24/24
f 26/26/26 27/27/27 28/28/28
f 29/29/29 27/27/27 24/24/24
f 30/30/30 29/29/29 24/24/24
f 27/27/27 31/31/31 28/28/28
f 27/27/27 29/29/29 31/31/31
f 32/32/32 29/29/29 30/30/30
f 33/33/33 32/32/32 30/30/30
f 32/32/32 34/34/34 29/29/29
f 32/32/32 35/35/35 34/34/34
f 35/35/35 36/36/36 34/34/34
f 36/36/36 37/37/37 34/34/34
f 37/37/37 38/38/38 34/34/34
f 34/34/34 39/39/39 29/29/29
f 39/39/39 34/34/34 38/38/38
f 29/29/29 39/39/39 31/31/31
f 40/40/40 39/39/39 38/38/38
f 39/39/39 40/40/40 31/31/31
f 38/38/38 41/41/41 40/40/40
f 41/41/41 42/42/42 40/40/40
f 31/31/31 43/43/43 28/28/28
f 40/40/40 43/43/43 31/31/31
f 40/40/40 42/42/42 43/43/43
f 43/43/43 44/44/44 28/28/28
f 42/42/42 45/45/45 43/43/43
f 44/44/44 43/43/43 46/46/46
f 43/43/43 45/45/45 46/46/46
f 49/49/49 48/48/48 47/47/47
f 50/50/50 49/49/49 47/47/47
f 49/49/49 50/50/50 51/51/51
f 50/50/50 52/52/52 51/51/51
f 53/53/53 52/52/52 50/50/50
f 54/54/54 53/53/53 50/50/50
f 52/52/52 53/53/53 55/55/55
f 56/56/56 52/52/52 55/55/55
f 59/59/59 58/58/58 57/57/57
f 58/58/58 60/60/60 57/57/57
f 58/58/58 61/61/61 60/60/60
f 61/61/61 62/62/62 60/60/60
f 61/61/61 63/63/63 62/62/62
f 63/63/63 64/64/64 62/62/62
f 62/62/62 64/64/64 65/65/65
f 66/66/66 62/62/62 65/65/65
f 60/60/60 62/62/62 66/66/66
f 66/66/66 65/65/65 67/67/67
f 57/57/57 60/60/60 68/68/68
f 68/68/68 60/60/60 66/66/66
f 69/69/69 66/66/66 67/67/67
f 66/66/66 69/69/69 68/68/68
f 67/67/67 70/70/70 69/69/69
f 71/71/71 57/57/57 68/68/68
f 69/69/69 71/71/71 68/68/68
f 57/57/57 71/71/71 72/72/72
f 70/70/70 73/73/73 69/69/69
f 73/73/73 70/70/70 74/74/74
f 71/71/71 69/69/69 75/75/75
f 71/71/71 75/75/75 72/72/72
f 69/69/69 73/73/73 75/75/75
f 76/76/76 73/73/73 74/74/74
f 73/73/73 76/76/76 75/75/75
f 74/74/74 77/77/77 76/76/76
f 77/77/77 78/78/78 76/76/76
f 75/75/75 79/79/79 72/72/72
f 76/76/76 79/79/79 75/75/75
f 76/76/76 78/78/78 79/79/79
f 79/79/79 80/80/80 72/72/72
f 78/78/78 81/81/81 79/79/79
f 80/80/80 79/79/79 82/82/82
f 79/79/79 81/81/81 82/82/82
f 85/85/85 84/84/84 83/83/83
f 85/85/85 86/86/86 84/84/84
f 86/86/86 87/87/87 84/84/84
f 84/84/84 87/87/87 88/88/88
f 89/89/89 84/84/84 88/88/88
f 92/92/92 91/91/91 90/90/90
f 91/91/91 93/93/93 90/90/90
f 90/90/90 93/93/93 94/94/94
f 95/95/95 90/90/90 94/94/94
f 93/93/93 96/96/96 94/94/94
f 96/96/96 97/97/97 94/94/94
f 97/97/97 96/96/96 98/98/98
f 96/96/96 99/99/99 98/98/98
