g Elevator_RingHanger_2
v 0.701640666 -0.0801730305 0.799768746
v 0.701640666 0.0690377802 0.799768746
v 0.677158237 0.0690377802 0.822062433
v 0.677158237 -0.0801730305 0.822062433
v 0.892636776 0.0690377802 0.983516276
v 0.892636776 -0.0801730305 0.983516276
v 0.834785223 -0.0801730305 0.973706722
v 0.834785223 0.0690377802 0.973706722
v 0.867509842 -0.0801730305 0.959341466
v 0.969416559 -0.0801730305 0.853414953
v 0.969416559 0.0690377802 0.853414953
v 0.867509842 0.0690377802 0.959341466
v 0.892636776 0.0690377802 0.983516276
v 0.994543493 0.0690377802 0.877589762
v 0.994543493 -0.0801730305 0.877589762
v 0.892636776 -0.0801730305 0.983516276
v 0.982050836 0.0690377802 0.82063663
v 0.982050836 -0.0801730305 0.82063663
v 0.994543493 -0.0801730305 0.877589762
v 0.994543493 0.0690377802 0.877589762
v 0.867509842 0.0690377802 0.959341466
v 0.701640666 0.0690377802 0.799768746
v 0.701640666 -0.0801730305 0.799768746
v 0.867509842 -0.0801730305 0.959341466
v 0.834785223 -0.0801730305 0.973706722
v 0.703291059 -0.0801730305 0.84720403
v 0.703291059 0.0690377802 0.84720403
v 0.834785223 0.0690377802 0.973706722
v 0.969416559 -0.0801730305 0.853414953
v 0.803547442 -0.0801730305 0.693842232
v 0.803547442 0.0690377802 0.693842232
v 0.969416559 0.0690377802 0.853414953
v 0.982050836 0.0690377802 0.82063663
v 0.850556672 0.0690377802 0.694130898
v 0.850556672 -0.0801730305 0.694130898
v 0.982050836 -0.0801730305 0.82063663
v 0.645986378 -0.0801730305 0.895335138
v 0.617114365 -0.0801730305 0.867561698
v 0.617114365 0.0690377802 0.867561698
v 0.645986378 0.0690377802 0.895335138
v 0.803547442 -0.0801730305 0.693842232
v 0.824421465 -0.0801730305 0.668989956
v 0.824421465 0.0690377802 0.668989956
v 0.803547442 0.0690377802 0.693842232
v 0.896435618 0.0690377802 0.635008633
v 0.867563546 0.0690377802 0.607232749
v 0.867563546 -0.0801730305 0.607232749
v 0.896435618 -0.0801730305 0.635008633
v 0.703291059 -0.0801730305 0.84720403
v 0.645986378 -0.0801730305 0.895335138
v 0.645986378 0.0690377802 0.895335138
v 0.703291059 0.0690377802 0.84720403
v 0.703291059 0.0690377802 0.84720403
v 0.645986378 0.0690377802 0.895335138
v 0.617114365 0.0690377802 0.867561698
v 0.677158237 0.0690377802 0.822062433
v 0.701640666 0.0690377802 0.799768746
v 0.834785223 0.0690377802 0.973706722
v 0.867509842 0.0690377802 0.959341466
v 0.892636776 0.0690377802 0.983516276
v 0.969416559 0.0690377802 0.853414953
v 0.994543493 0.0690377802 0.877589762
v 0.982050836 0.0690377802 0.82063663
v 0.850556672 0.0690377802 0.694130898
v 0.803547442 0.0690377802 0.693842232
v 0.824421465 0.0690377802 0.668989956
v 0.896435618 0.0690377802 0.635008633
v 0.867563546 0.0690377802 0.607232749
v 0.677158237 0.0690377802 0.822062433
v 0.617114365 0.0690377802 0.867561698
v 0.617114365 -0.0801730305 0.867561698
v 0.677158237 -0.0801730305 0.822062433
v 0.677158237 -0.0801730305 0.822062433
v 0.617114365 -0.0801730305 0.867561698
v 0.645986378 -0.0801730305 0.895335138
v 0.703291059 -0.0801730305 0.84720403
v 0.701640666 -0.0801730305 0.799768746
v 0.867509842 -0.0801730305 0.959341466
v 0.834785223 -0.0801730305 0.973706722
v 0.892636776 -0.0801730305 0.983516276
v 0.969416559 -0.0801730305 0.853414953
v 0.994543493 -0.0801730305 0.877589762
v 0.982050836 -0.0801730305 0.82063663
v 0.803547442 -0.0801730305 0.693842232
v 0.850556672 -0.0801730305 0.694130898
v 0.824421465 -0.0801730305 0.668989956
v 0.867563546 -0.0801730305 0.607232749
v 0.896435618 -0.0801730305 0.635008633
v 0.850556672 0.0690377802 0.694130898
v 0.896435618 0.0690377802 0.635008633
v 0.896435618 -0.0801730305 0.635008633
v 0.850556672 -0.0801730305 0.694130898
v 0.824421465 -0.0801730305 0.668989956
v 0.867563546 -0.0801730305 0.607232749
v 0.867563546 0.0690377802 0.607232749
v 0.824421465 0.0690377802 0.668989956
v -0.820004761 -0.0801730305 0.688123226
v -0.820004761 0.0690377802 0.688123226
v -0.84174794 0.0690377802 0.663147032
v -0.84174794 -0.0801730305 0.663147032
v -1.0079931 0.0690377802 0.874951839
v -1.0079931 -0.0801730305 0.874951839
v -0.996884644 -0.0801730305 0.817335844
v -0.996884644 0.0690377802 0.817335844
v -0.983256757 -0.0801730305 0.850373566
v -0.87964344 -0.0801730305 0.9546296
v -0.87964344 0.0690377802 0.9546296
v -0.983256757 0.0690377802 0.850373566
v -1.0079931 0.0690377802 0.874951839
v -0.904374897 0.0690377802 0.97920841
v -0.904374897 -0.0801730305 0.97920841
v -1.0079931 -0.0801730305 0.874951839
v -0.847153246 0.0690377802 0.967993855
v -0.847153246 -0.0801730305 0.967993855
v -0.904374897 -0.0801730305 0.97920841
v -0.904374897 0.0690377802 0.97920841
v -0.983256757 0.0690377802 0.850373566
v -0.820004761 0.0690377802 0.688123226
v -0.820004761 -0.0801730305 0.688123226
v -0.983256757 -0.0801730305 0.850373566
v -0.996884644 -0.0801730305 0.817335844
v -0.867465734 -0.0801730305 0.688711584
v -0.867465734 0.0690377802 0.688711584
v -0.996884644 0.0690377802 0.817335844
v -0.87964344 -0.0801730305 0.9546296
v -0.716391504 -0.0801730305 0.7923792
v -0.716391504 0.0690377802 0.7923792
v -0.87964344 0.0690377802 0.9546296
v -0.847153246 0.0690377802 0.967993855
v -0.717734277 0.0690377802 0.839368939
v -0.717734277 -0.0801730305 0.839368939
v -0.847153246 -0.0801730305 0.967993855
v -0.914301634 -0.0801730305 0.63034004
v -0.885888577 -0.0801730305 0.602101505
v -0.885888577 0.0690377802 0.602101505
v -0.914301634 0.0690377802 0.63034004
v -0.716391504 -0.0801730305 0.7923792
v -0.692016482 -0.0801730305 0.81380558
v -0.692016482 0.0690377802 0.81380558
v -0.716391504 0.0690377802 0.7923792
v -0.659653246 0.0690377802 0.886563778
v -0.631240129 0.0690377802 0.858322203
v -0.631240129 -0.0801730305 0.858322203
v -0.659653246 -0.0801730305 0.886563778
v -0.867465734 -0.0801730305 0.688711584
v -0.914301634 -0.0801730305 0.63034004
v -0.914301634 0.0690377802 0.63034004
v -0.867465734 0.0690377802 0.688711584
v -0.867465734 0.0690377802 0.688711584
v -0.914301634 0.0690377802 0.63034004
v -0.885888577 0.0690377802 0.602101505
v -0.84174794 0.0690377802 0.663147032
v -0.820004761 0.0690377802 0.688123226
v -0.996884644 0.0690377802 0.817335844
v -0.983256757 0.0690377802 0.850373566
v -1.0079931 0.0690377802 0.874951839
v -0.87964344 0.0690377802 0.9546296
v -0.904374897 0.0690377802 0.97920841
v -0.847153246 0.0690377802 0.967993855
v -0.717734277 0.0690377802 0.839368939
v -0.716391504 0.0690377802 0.7923792
v -0.692016482 0.0690377802 0.81380558
v -0.659653246 0.0690377802 0.886563778
v -0.631240129 0.0690377802 0.858322203
v -0.84174794 0.0690377802 0.663147032
v -0.885888577 0.0690377802 0.602101505
v -0.885888577 -0.0801730305 0.602101505
v -0.84174794 -0.0801730305 0.663147032
v -0.84174794 -0.0801730305 0.663147032
v -0.885888577 -0.0801730305 0.602101505
v -0.914301634 -0.0801730305 0.63034004
v -0.867465734 -0.0801730305 0.688711584
v -0.820004761 -0.0801730305 0.688123226
v -0.983256757 -0.0801730305 0.850373566
v -0.996884644 -0.0801730305 0.817335844
v -1.0079931 -0.0801730305 0.874951839
v -0.87964344 -0.0801730305 0.9546296
v -0.904374897 -0.0801730305 0.97920841
v -0.847153246 -0.0801730305 0.967993855
v -0.716391504 -0.0801730305 0.7923792
v -0.717734277 -0.0801730305 0.839368939
v -0.692016482 -0.0801730305 0.81380558
v -0.631240129 -0.0801730305 0.858322203
v -0.659653246 -0.0801730305 0.886563778
v -0.717734277 0.0690377802 0.839368939
v -0.659653246 0.0690377802 0.886563778
v -0.659653246 -0.0801730305 0.886563778
v -0.717734277 -0.0801730305 0.839368939
v -0.692016482 -0.0801730305 0.81380558
v -0.631240129 -0.0801730305 0.858322203
v -0.631240129 0.0690377802 0.858322203
v -0.692016482 0.0690377802 0.81380558
v -0.704912007 -0.0801730305 -0.804979444
v -0.704912007 0.0690377802 -0.804979444
v -0.680268466 0.0690377802 -0.827091277
v -0.680268466 -0.0801730305 -0.827091277
v -0.894545794 0.0690377802 -0.990132034
v -0.894545794 -0.0801730305 -0.990132034
v -0.836772382 -0.0801730305 -0.979895234
v -0.836772382 0.0690377802 -0.979895234
v -0.869599521 -0.0801730305 -0.965771675
v -0.972285032 -0.0801730305 -0.86060077
v -0.972285032 0.0690377802 -0.86060077
v -0.869599521 0.0690377802 -0.965771675
v -0.894545794 0.0690377802 -0.990132034
v -0.997231364 0.0690377802 -0.884959936
v -0.997231364 -0.0801730305 -0.884959936
v -0.894545794 -0.0801730305 -0.990132034
v -0.985161006 0.0690377802 -0.827916443
v -0.985161006 -0.0801730305 -0.827916443
v -0.997231364 -0.0801730305 -0.884959936
v -0.997231364 0.0690377802 -0.884959936
v -0.869599521 0.0690377802 -0.965771675
v -0.704912007 0.0690377802 -0.804979444
v -0.704912007 -0.0801730305 -0.804979444
v -0.869599521 -0.0801730305 -0.965771675
v -0.836772382 -0.0801730305 -0.979895234
v -0.706215739 -0.0801730305 -0.852425754
v -0.706215739 0.0690377802 -0.852425754
v -0.836772382 0.0690377802 -0.979895234
v -0.972285032 -0.0801730305 -0.86060077
v -0.807597578 -0.0801730305 -0.699807346
v -0.807597578 0.0690377802 -0.699807346
v -0.972285032 0.0690377802 -0.86060077
v -0.985161006 0.0690377802 -0.827916443
v -0.854604423 0.0690377802 -0.700443327
v -0.854604423 -0.0801730305 -0.700443327
v -0.985161006 -0.0801730305 -0.827916443
v -0.648554623 -0.0801730305 -0.90013206
v -0.619892478 -0.0801730305 -0.872144997
v -0.619892478 0.0690377802 -0.872144997
v -0.648554623 0.0690377802 -0.90013206
v -0.807597578 -0.0801730305 -0.699807346
v -0.82865715 -0.0801730305 -0.675110102
v -0.82865715 0.0690377802 -0.675110102
v -0.807597578 0.0690377802 -0.699807346
v -0.900922775 0.0690377802 -0.641661584
v -0.872255743 0.0690377802 -0.613673329
v -0.872255743 -0.0801730305 -0.613673329
v -0.900922775 -0.0801730305 -0.641661584
v -0.706215739 -0.0801730305 -0.852425754
v -0.648554623 -0.0801730305 -0.90013206
v -0.648554623 0.0690377802 -0.90013206
v -0.706215739 0.0690377802 -0.852425754
v -0.706215739 0.0690377802 -0.852425754
v -0.648554623 0.0690377802 -0.90013206
v -0.619892478 0.0690377802 -0.872144997
v -0.680268466 0.0690377802 -0.827091277
v -0.704912007 0.0690377802 -0.804979444
v -0.836772382 0.0690377802 -0.979895234
v -0.869599521 0.0690377802 -0.965771675
v -0.894545794 0.0690377802 -0.990132034
v -0.972285032 0.0690377802 -0.86060077
v -0.997231364 0.0690377802 -0.884959936
v -0.985161006 0.0690377802 -0.827916443
v -0.854604423 0.0690377802 -0.700443327
v -0.807597578 0.0690377802 -0.699807346
v -0.82865715 0.0690377802 -0.675110102
v -0.900922775 0.0690377802 -0.641661584
v -0.872255743 0.0690377802 -0.613673329
v -0.680268466 0.0690377802 -0.827091277
v -0.619892478 0.0690377802 -0.872144997
v -0.619892478 -0.0801730305 -0.872144997
v -0.680268466 -0.0801730305 -0.827091277
v -0.680268466 -0.0801730305 -0.827091277
v -0.619892478 -0.0801730305 -0.872144997
v -0.648554623 -0.0801730305 -0.90013206
v -0.706215739 -0.0801730305 -0.852425754
v -0.704912007 -0.0801730305 -0.804979444
v -0.869599521 -0.0801730305 -0.965771675
v -0.836772382 -0.0801730305 -0.979895234
v -0.894545794 -0.0801730305 -0.990132034
v -0.972285032 -0.0801730305 -0.86060077
v -0.997231364 -0.0801730305 -0.884959936
v -0.985161006 -0.0801730305 -0.827916443
v -0.807597578 -0.0801730305 -0.699807346
v -0.854604423 -0.0801730305 -0.700443327
v -0.82865715 -0.0801730305 -0.675110102
v -0.872255743 -0.0801730305 -0.613673329
v -0.900922775 -0.0801730305 -0.641661584
v -0.854604423 0.0690377802 -0.700443327
v -0.900922775 0.0690377802 -0.641661584
v -0.900922775 -0.0801730305 -0.641661584
v -0.854604423 -0.0801730305 -0.700443327
v -0.82865715 -0.0801730305 -0.675110102
v -0.872255743 -0.0801730305 -0.613673329
v -0.872255743 0.0690377802 -0.613673329
v -0.82865715 0.0690377802 -0.675110102
v 0.805263758 -0.0801730305 -0.69465965
v 0.805263758 0.0690377802 -0.69465965
v 0.827204645 0.0690377802 -0.669858634
v 0.827204645 -0.0801730305 -0.669858634
v 0.991743207 0.0690377802 -0.882989705
v 0.991743207 -0.0801730305 -0.882989705
v 0.981103599 -0.0801730305 -0.825285852
v 0.981103599 0.0690377802 -0.825285852
v 0.967209518 -0.0801730305 -0.858213127
v 0.862761259 -0.0801730305 -0.961634755
v 0.862761259 0.0690377802 -0.961634755
v 0.967209518 0.0690377802 -0.858213127
v 0.991743207 0.0690377802 -0.882989705
v 0.887295008 0.0690377802 -0.986411333
v 0.887295008 -0.0801730305 -0.986411333
v 0.991743207 -0.0801730305 -0.882989705
v 0.830168486 0.0690377802 -0.974737763
v 0.830168486 -0.0801730305 -0.974737763
v 0.887295008 -0.0801730305 -0.986411333
v 0.887295008 0.0690377802 -0.986411333
v 0.967209518 0.0690377802 -0.858213127
v 0.805263758 0.0690377802 -0.69465965
v 0.805263758 -0.0801730305 -0.69465965
v 0.967209518 -0.0801730305 -0.858213127
v 0.981103599 -0.0801730305 -0.825285852
v 0.852719784 -0.0801730305 -0.69562763
v 0.852719784 0.0690377802 -0.69562763
v 0.981103599 0.0690377802 -0.825285852
v 0.862761259 -0.0801730305 -0.961634755
v 0.700815499 -0.0801730305 -0.798081279
v 0.700815499 0.0690377802 -0.798081279
v 0.862761259 0.0690377802 -0.961634755
v 0.830168486 0.0690377802 -0.974737763
v 0.701782286 0.0690377802 -0.845079541
v 0.701782286 -0.0801730305 -0.845079541
v 0.830168486 -0.0801730305 -0.974737763
v 0.900019586 -0.0801730305 -0.637634516
v 0.871833563 -0.0801730305 -0.609167695
v 0.871833563 0.0690377802 -0.609167695
v 0.900019586 0.0690377802 -0.637634516
v 0.700815499 -0.0801730305 -0.798081279
v 0.676269591 -0.0801730305 -0.819310486
v 0.676269591 0.0690377802 -0.819310486
v 0.700815499 0.0690377802 -0.798081279
v 0.643325269 0.0690377802 -0.891806841
v 0.615136802 0.0690377802 -0.863338828
v 0.615136802 -0.0801730305 -0.863338828
v 0.643325269 -0.0801730305 -0.891806841
v 0.852719784 -0.0801730305 -0.69562763
v 0.900019586 -0.0801730305 -0.637634516
v 0.900019586 0.0690377802 -0.637634516
v 0.852719784 0.0690377802 -0.69562763
v 0.852719784 0.0690377802 -0.69562763
v 0.900019586 0.0690377802 -0.637634516
v 0.871833563 0.0690377802 -0.609167695
v 0.827204645 0.0690377802 -0.669858634
v 0.805263758 0.0690377802 -0.69465965
v 0.981103599 0.0690377802 -0.825285852
v 0.967209518 0.0690377802 -0.858213127
v 0.991743207 0.0690377802 -0.882989705
v 0.862761259 0.0690377802 -0.961634755
v 0.887295008 0.0690377802 -0.986411333
v 0.830168486 0.0690377802 -0.974737763
v 0.701782286 0.0690377802 -0.845079541
v 0.700815499 0.0690377802 -0.798081279
v 0.676269591 0.0690377802 -0.819310486
v 0.643325269 0.0690377802 -0.891806841
v 0.615136802 0.0690377802 -0.863338828
v 0.827204645 0.0690377802 -0.669858634
v 0.871833563 0.0690377802 -0.609167695
v 0.871833563 -0.0801730305 -0.609167695
v 0.827204645 -0.0801730305 -0.669858634
v 0.827204645 -0.0801730305 -0.669858634
v 0.871833563 -0.0801730305 -0.609167695
v 0.900019586 -0.0801730305 -0.637634516
v 0.852719784 -0.0801730305 -0.69562763
v 0.805263758 -0.0801730305 -0.69465965
v 0.967209518 -0.0801730305 -0.858213127
v 0.981103599 -0.0801730305 -0.825285852
v 0.991743207 -0.0801730305 -0.882989705
v 0.862761259 -0.0801730305 -0.961634755
v 0.887295008 -0.0801730305 -0.986411333
v 0.830168486 -0.0801730305 -0.974737763
v 0.700815499 -0.0801730305 -0.798081279
v 0.701782286 -0.0801730305 -0.845079541
v 0.676269591 -0.0801730305 -0.819310486
v 0.615136802 -0.0801730305 -0.863338828
v 0.643325269 -0.0801730305 -0.891806841
v 0.701782286 0.0690377802 -0.845079541
v 0.643325269 0.0690377802 -0.891806841
v 0.643325269 -0.0801730305 -0.891806841
v 0.701782286 -0.0801730305 -0.845079541
v 0.676269591 -0.0801730305 -0.819310486
v 0.615136802 -0.0801730305 -0.863338828
v 0.615136802 0.0690377802 -0.863338828
v 0.676269591 0.0690377802 -0.819310486
v 0.640668988 -0.113017268 0.875411451
v 0.640668988 0.113017268 0.875411451
v 0.866228104 0.113017268 0.632042289
v 0.86622566 -0.113017268 0.632047176
v 1.02207279 0.113017268 0.331503987
v 1.02207279 -0.113017268 0.331500322
v 1.07741702 0.113017268 -0.00248771673
v 1.07741702 -0.113017268 -0.00248771673
v 1.07741702 -0.113017268 -0.00248771673
v 1.07741702 0.113017268 -0.00248771673
v 1.02684581 0.113017268 -0.337235332
v 1.02684581 -0.113017268 -0.337235332
v 0.879709542 0.113017268 -0.636504114
v 0.879707098 -0.113017268 -0.636506557
v 0.559809685 -0.102916561 0.776829302
v 0.768093348 0.102916561 0.56895268
v 0.559809685 0.102916561 0.776829302
v 0.768093348 -0.102916561 0.56895268
v 0.906389236 0.102916561 0.30225715
v 0.906389236 -0.102916561 0.30225715
v 0.955502987 0.102916561 0.00587776164
v 0.955502987 -0.102916561 0.00587776164
v 0.910625041 0.102916561 -0.291173309
v 0.910625041 -0.102916561 -0.291173309
v 0.910625041 -0.102916561 -0.291173309
v 0.771933675 -0.102916561 -0.564828098
v 0.771933675 0.102916561 -0.564828098
v 0.910625041 0.102916561 -0.291173309
v 0.559809685 -0.102916561 0.776829302
v 0.640668988 -0.113017268 0.875411451
v 0.86622566 -0.113017268 0.632047176
v 0.768093348 -0.102916561 0.56895268
v 1.02207279 -0.113017268 0.331500322
v 0.906389236 -0.102916561 0.30225715
v 1.07741702 -0.113017268 -0.00248771673
v 0.955502987 -0.102916561 0.00587776164
v 1.02684581 -0.113017268 -0.337235332
v 0.910625041 -0.102916561 -0.291173309
v 0.879707098 -0.113017268 -0.636506557
v 0.771933675 -0.102916561 -0.564828098
v 0.768093348 0.102916561 0.56895268
v 0.640668988 0.113017268 0.875411451
v 0.559809685 0.102916561 0.776829302
v 0.866228104 0.113017268 0.632042289
v 0.906389236 0.102916561 0.30225715
v 1.02207279 0.113017268 0.331503987
v 0.955502987 0.102916561 0.00587776164
v 1.07741702 0.113017268 -0.00248771673
v 0.910625041 0.102916561 -0.291173309
v 1.02684581 0.113017268 -0.337235332
v 0.771933675 0.102916561 -0.564828098
v 0.879709542 0.113017268 -0.636504114
v -1.02409172 -0.113017268 0.335511535
v -0.870414972 0.113017268 0.636503994
v -0.870414972 -0.113017268 0.636505187
v -1.02409172 0.113017268 0.335508496
v -1.0774169 -0.113017268 0.0011902618
v -1.0774169 0.113017268 0.00119087216
v -1.02482903 -0.113017268 -0.333241194
v -1.02482903 0.113017268 -0.333242416
v -0.871459842 -0.113017268 -0.635060012
v -0.871459842 0.113017268 -0.635060012
v -0.632338762 -0.113017268 -0.874710917
v -0.632338762 0.113017268 -0.874710917
v 0.879707098 -0.113017268 -0.636506557
v 0.879709542 0.113017268 -0.636504114
v 0.639707148 0.113017268 -0.876112282
v 0.639712036 -0.113017268 -0.876111031
v 0.337895602 0.113017268 -1.02947533
v 0.639712036 -0.113017268 -0.876111031
v 0.337895602 0.113017268 -1.02947533
v 0.337890744 -0.113017268 -1.02947533
v 0.00345714344 0.113017268 -1.08206809
v 0.00345714344 -0.113017268 -1.08206809
v -0.330864131 0.113017268 -1.02873921
v -0.330864131 -0.113017268 -1.02873921
v -0.632338762 0.113017268 -0.874710917
v -0.632338762 -0.113017268 -0.874710917
v -0.917475462 -0.102916561 0.29772833
v -0.78110832 -0.102916561 0.564827919
v -0.78110832 0.102916561 0.564827919
v -0.917475462 0.102916561 0.29772833
v -0.964799702 -0.102916561 0.00105720514
v -0.964799702 0.102916561 0.00105720514
v -0.918129802 -0.102916561 -0.295716763
v -0.918129802 0.102916561 -0.295716763
v -0.782036066 -0.102916561 -0.563543916
v 0.771933675 -0.102916561 -0.564828098
v 0.55896008 0.102916561 -0.777451396
v 0.771933675 0.102916561 -0.564828098
v 0.55896008 -0.102916561 -0.777451396
v 0.291132927 0.102916561 -0.91354388
v 0.291132927 -0.102916561 -0.91354388
v -0.0056444183 0.102916561 -0.96021384
v -0.0056444183 -0.102916561 -0.96021384
v -0.0056444183 -0.102916561 -0.96021384
v -0.302314341 0.102916561 -0.912890851
v -0.0056444183 0.102916561 -0.96021384
v -0.302314341 -0.102916561 -0.912890851
v -0.569838762 0.102916561 -0.776207507
v -0.569838762 -0.102916561 -0.776207507
v -0.569838762 -0.102916561 -0.776207507
v -0.782036066 0.102916561 -0.563543916
v -0.569838762 0.102916561 -0.776207507
v -0.782036066 -0.102916561 -0.563543916
v -0.918129802 0.102916561 -0.295716763
v -0.917475462 -0.102916561 0.29772833
v -0.870414972 -0.113017268 0.636505187
v -0.78110832 -0.102916561 0.564827919
v -1.02409172 -0.113017268 0.335511535
v -0.964799702 -0.102916561 0.00105720514
v -1.0774169 -0.113017268 0.0011902618
v -0.918129802 -0.102916561 -0.295716763
v -1.02482903 -0.113017268 -0.333241194
v -0.782036066 -0.102916561 -0.563543916
v -0.871459842 -0.113017268 -0.635060012
v -0.569838762 -0.102916561 -0.776207507
v -0.632338762 -0.113017268 -0.874710917
v -0.302314341 -0.102916561 -0.912890851
v -0.330864131 -0.113017268 -1.02873921
v -0.0056444183 -0.102916561 -0.96021384
v 0.00345714344 -0.113017268 -1.08206809
v 0.291132927 -0.102916561 -0.91354388
v 0.337890744 -0.113017268 -1.02947533
v 0.55896008 -0.102916561 -0.777451396
v 0.639712036 -0.113017268 -0.876111031
v 0.771933675 -0.102916561 -0.564828098
v 0.879707098 -0.113017268 -0.636506557
v -0.78110832 0.102916561 0.564827919
v -0.870414972 0.113017268 0.636503994
v -1.02409172 0.113017268 0.335508496
v -0.917475462 0.102916561 0.29772833
v -1.0774169 0.113017268 0.00119087216
v -0.964799702 0.102916561 0.00105720514
v -1.02482903 0.113017268 -0.333242416
v -0.918129802 0.102916561 -0.295716763
v -0.871459842 0.113017268 -0.635060012
v -0.782036066 0.102916561 -0.563543916
v -0.632338762 0.113017268 -0.874710917
v -0.569838762 0.102916561 -0.776207507
v -0.330864131 0.113017268 -1.02873921
v -0.302314341 0.102916561 -0.912890851
v 0.00345714344 0.113017268 -1.08206809
v -0.0056444183 0.102916561 -0.96021384
v 0.337895602 0.113017268 -1.02947533
v 0.291132927 0.102916561 -0.91354388
v 0.639707148 0.113017268 -0.876112282
v 0.55896008 0.102916561 -0.777451396
v 0.879709542 0.113017268 -0.636504114
v 0.771933675 0.102916561 -0.564828098
v -0.870414972 -0.113017268 0.636505187
v -0.870414972 0.113017268 0.636503994
v -0.631371915 0.113017268 0.875412047
v -0.631381691 -0.113017268 0.875410199
v -0.329731315 0.113017268 1.02910709
v -0.329731315 -0.113017268 1.02910709
v 0.00464366702 0.113017268 1.08206797
v 0.00464366702 -0.113017268 1.08206797
v 0.00464366702 -0.113017268 1.08206797
v 0.00464366702 0.113017268 1.08206797
v 0.33902353 0.113017268 1.02910709
v 0.33902353 -0.113017268 1.02910709
v 0.640668988 0.113017268 0.875411451
v 0.640668988 -0.113017268 0.875411451
v -0.78110832 -0.102916561 0.564827919
v -0.568989158 -0.102916561 0.776829302
v -0.568989158 0.102916561 0.776829302
v -0.78110832 0.102916561 0.564827919
v -0.568989158 -0.102916561 0.776829302
v -0.301313341 0.102916561 0.913217843
v -0.568989158 0.102916561 0.776829302
v -0.301313341 -0.102916561 0.913217843
v -0.00458973134 0.102916561 0.960214317
v -0.00458973134 -0.102916561 0.960214317
v 0.292133898 0.102916561 0.913217843
v 0.292133898 -0.102916561 0.913217843
v 0.292133898 -0.102916561 0.913217843
v 0.559809685 -0.102916561 0.776829302
v 0.559809685 0.102916561 0.776829302
v 0.292133898 0.102916561 0.913217843
v -0.78110832 -0.102916561 0.564827919
v -0.870414972 -0.113017268 0.636505187
v -0.631381691 -0.113017268 0.875410199
v -0.568989158 -0.102916561 0.776829302
v -0.329731315 -0.113017268 1.02910709
v -0.301313341 -0.102916561 0.913217843
v 0.00464366702 -0.113017268 1.08206797
v -0.00458973134 -0.102916561 0.960214317
v 0.33902353 -0.113017268 1.02910709
v 0.292133898 -0.102916561 0.913217843
v 0.640668988 -0.113017268 0.875411451
v 0.559809685 -0.102916561 0.776829302
v -0.568989158 0.102916561 0.776829302
v -0.870414972 0.113017268 0.636503994
v -0.78110832 0.102916561 0.564827919
v -0.631371915 0.113017268 0.875412047
v -0.301313341 0.102916561 0.913217843
v -0.329731315 0.113017268 1.02910709
v -0.00458973134 0.102916561 0.960214317
v 0.00464366702 0.113017268 1.08206797
v 0.292133898 0.102916561 0.913217843
v 0.33902353 0.113017268 1.02910709
v 0.559809685 0.102916561 0.776829302
v 0.640668988 0.113017268 0.875411451
vt 0.618164062 0.898925781
vt 0.618164062 0.9296875
vt 0.610351562 0.9296875
vt 0.610351562 0.898925781
vt 0.5 0.9296875
vt 0.5 0.898925781
vt 0.478271484 0.898925781
vt 0.478271484 0.9296875
vt 0.537109375 0.898925781
vt 0.499755859 0.898925781
vt 0.499755859 0.9296875
vt 0.537109375 0.9296875
vt 0.5 0.9296875
vt 0.537109375 0.9296875
vt 0.537109375 0.898925781
vt 0.5 0.898925781
vt 0.557617188 0.9296875
vt 0.557617188 0.898925781
vt 0.537109375 0.898925781
vt 0.537109375 0.9296875
vt 0.420654297 0.9296875
vt 0.477294922 0.9296875
vt 0.477294922 0.898925781
vt 0.420654297 0.898925781
vt 0.478271484 0.898925781
vt 0.420654297 0.898925781
vt 0.420654297 0.9296875
vt 0.478271484 0.9296875
vt 0.420654297 0.9296875
vt 0.477294922 0.9296875
vt 0.477294922 0.898925781
vt 0.420654297 0.898925781
vt 0.557617188 0.9296875
vt 0.618652344 0.9296875
vt 0.618652344 0.898925781
vt 0.557617188 0.898925781
vt 0.576660156 0.898925781
vt 0.591796875 0.898925781
vt 0.591796875 0.9296875
vt 0.576660156 0.9296875
vt 0.618164062 0.898925781
vt 0.610351562 0.898925781
vt 0.610351562 0.9296875
vt 0.618164062 0.9296875
vt 0.576660156 0.9296875
vt 0.591796875 0.9296875
vt 0.591796875 0.898925781
vt 0.576660156 0.898925781
vt 0.559082031 0.898925781
vt 0.576660156 0.898925781
vt 0.576660156 0.9296875
vt 0.559082031 0.9296875
vt 0.454101562 0.831054688
vt 0.4296875 0.833984375
vt 0.4296875 0.847167969
vt 0.454101562 0.843261719
vt 0.46484375 0.842285156
vt 0.453613281 0.771484375
vt 0.464355469 0.767089844
vt 0.464355469 0.755859375
vt 0.512695312 0.766601562
vt 0.512695312 0.755371094
vt 0.522949219 0.770996094
vt 0.5234375 0.831054688
vt 0.513183594 0.842285156
vt 0.5234375 0.842773438
vt 0.547851562 0.833496094
vt 0.547851562 0.846679688
vt 0.610351562 0.9296875
vt 0.591796875 0.9296875
vt 0.591796875 0.898925781
vt 0.610351562 0.898925781
vt 0.5234375 0.842773438
vt 0.547851562 0.846191406
vt 0.547851562 0.833007812
vt 0.5234375 0.830566406
vt 0.512695312 0.841796875
vt 0.512207031 0.766601562
vt 0.522949219 0.770996094
vt 0.512207031 0.755371094
vt 0.464111328 0.767089844
vt 0.464111328 0.755371094
vt 0.453613281 0.771484375
vt 0.464599609 0.842285156
vt 0.453857422 0.831054688
vt 0.454101562 0.842773438
vt 0.4296875 0.847167969
vt 0.4296875 0.833984375
vt 0.55859375 0.9296875
vt 0.576660156 0.9296875
vt 0.576660156 0.898925781
vt 0.55859375 0.898925781
vt 0.610351562 0.898925781
vt 0.591796875 0.898925781
vt 0.591796875 0.9296875
vt 0.610351562 0.9296875
vt 0.618164062 0.898925781
vt 0.618164062 0.9296875
vt 0.610351562 0.9296875
vt 0.610351562 0.898925781
vt 0.5 0.9296875
vt 0.5 0.898925781
vt 0.478271484 0.898925781
vt 0.478271484 0.9296875
vt 0.537109375 0.898925781
vt 0.499755859 0.898925781
vt 0.499755859 0.9296875
vt 0.537109375 0.9296875
vt 0.5 0.9296875
vt 0.537109375 0.9296875
vt 0.537109375 0.898925781
vt 0.5 0.898925781
vt 0.557617188 0.9296875
vt 0.557617188 0.898925781
vt 0.537109375 0.898925781
vt 0.537109375 0.9296875
vt 0.420654297 0.9296875
vt 0.477294922 0.9296875
vt 0.477294922 0.898925781
vt 0.420654297 0.898925781
vt 0.478271484 0.898925781
vt 0.420654297 0.898925781
vt 0.420654297 0.9296875
vt 0.478271484 0.9296875
vt 0.420654297 0.9296875
vt 0.477294922 0.9296875
vt 0.477294922 0.898925781
vt 0.420654297 0.898925781
vt 0.557617188 0.9296875
vt 0.618652344 0.9296875
vt 0.618652344 0.898925781
vt 0.557617188 0.898925781
vt 0.576660156 0.898925781
vt 0.591796875 0.898925781
vt 0.591796875 0.9296875
vt 0.576660156 0.9296875
vt 0.618164062 0.898925781
vt 0.610351562 0.898925781
vt 0.610351562 0.9296875
vt 0.618164062 0.9296875
vt 0.576660156 0.9296875
vt 0.591796875 0.9296875
vt 0.591796875 0.898925781
vt 0.576660156 0.898925781
vt 0.559082031 0.898925781
vt 0.576660156 0.898925781
vt 0.576660156 0.9296875
vt 0.559082031 0.9296875
vt 0.454101562 0.831054688
vt 0.4296875 0.833984375
vt 0.4296875 0.847167969
vt 0.454101562 0.843261719
vt 0.46484375 0.842285156
vt 0.453613281 0.771484375
vt 0.464355469 0.767089844
vt 0.464355469 0.755859375
vt 0.512695312 0.766601562
vt 0.512695312 0.755371094
vt 0.522949219 0.770996094
vt 0.5234375 0.831054688
vt 0.513183594 0.842285156
vt 0.5234375 0.842773438
vt 0.547851562 0.833496094
vt 0.547851562 0.846679688
vt 0.610351562 0.9296875
vt 0.591796875 0.9296875
vt 0.591796875 0.898925781
vt 0.610351562 0.898925781
vt 0.5234375 0.842773438
vt 0.547851562 0.846191406
vt 0.547851562 0.833007812
vt 0.5234375 0.830566406
vt 0.512695312 0.841796875
vt 0.512207031 0.766601562
vt 0.522949219 0.770996094
vt 0.512207031 0.755371094
vt 0.464111328 0.767089844
vt 0.464111328 0.755371094
vt 0.453613281 0.771484375
vt 0.464599609 0.842285156
vt 0.453857422 0.831054688
vt 0.454101562 0.842773438
vt 0.4296875 0.847167969
vt 0.4296875 0.833984375
vt 0.55859375 0.9296875
vt 0.576660156 0.9296875
vt 0.576660156 0.898925781
vt 0.55859375 0.898925781
vt 0.610351562 0.898925781
vt 0.591796875 0.898925781
vt 0.591796875 0.9296875
vt 0.610351562 0.9296875
vt 0.618164062 0.898925781
vt 0.618164062 0.9296875
vt 0.610351562 0.9296875
vt 0.610351562 0.898925781
vt 0.5 0.9296875
vt 0.5 0.898925781
vt 0.478271484 0.898925781
vt 0.478271484 0.9296875
vt 0.537109375 0.898925781
vt 0.499755859 0.898925781
vt 0.499755859 0.9296875
vt 0.537109375 0.9296875
vt 0.5 0.9296875
vt 0.537109375 0.9296875
vt 0.537109375 0.898925781
vt 0.5 0.898925781
vt 0.557617188 0.9296875
vt 0.557617188 0.898925781
vt 0.537109375 0.898925781
vt 0.537109375 0.9296875
vt 0.420654297 0.9296875
vt 0.477294922 0.9296875
vt 0.477294922 0.898925781
vt 0.420654297 0.898925781
vt 0.478271484 0.898925781
vt 0.420654297 0.898925781
vt 0.420654297 0.9296875
vt 0.478271484 0.9296875
vt 0.420654297 0.9296875
vt 0.477294922 0.9296875
vt 0.477294922 0.898925781
vt 0.420654297 0.898925781
vt 0.557617188 0.9296875
vt 0.618652344 0.9296875
vt 0.618652344 0.898925781
vt 0.557617188 0.898925781
vt 0.576660156 0.898925781
vt 0.591796875 0.898925781
vt 0.591796875 0.9296875
vt 0.576660156 0.9296875
vt 0.618164062 0.898925781
vt 0.610351562 0.898925781
vt 0.610351562 0.9296875
vt 0.618164062 0.9296875
vt 0.576660156 0.9296875
vt 0.591796875 0.9296875
vt 0.591796875 0.898925781
vt 0.576660156 0.898925781
vt 0.559082031 0.898925781
vt 0.576660156 0.898925781
vt 0.576660156 0.9296875
vt 0.559082031 0.9296875
vt 0.454101562 0.831054688
vt 0.4296875 0.833984375
vt 0.4296875 0.847167969
vt 0.454101562 0.843261719
vt 0.46484375 0.842285156
vt 0.453613281 0.771484375
vt 0.464355469 0.767089844
vt 0.464355469 0.755859375
vt 0.512695312 0.766601562
vt 0.512695312 0.755371094
vt 0.522949219 0.770996094
vt 0.5234375 0.831054688
vt 0.513183594 0.842285156
vt 0.5234375 0.842773438
vt 0.547851562 0.833496094
vt 0.547851562 0.846679688
vt 0.610351562 0.9296875
vt 0.591796875 0.9296875
vt 0.591796875 0.898925781
vt 0.610351562 0.898925781
vt 0.5234375 0.842773438
vt 0.547851562 0.846191406
vt 0.547851562 0.833007812
vt 0.5234375 0.830566406
vt 0.512695312 0.841796875
vt 0.512207031 0.766601562
vt 0.522949219 0.770996094
vt 0.512207031 0.755371094
vt 0.464111328 0.767089844
vt 0.464111328 0.755371094
vt 0.453613281 0.771484375
vt 0.464599609 0.842285156
vt 0.453857422 0.831054688
vt 0.454101562 0.842773438
vt 0.4296875 0.847167969
vt 0.4296875 0.833984375
vt 0.55859375 0.9296875
vt 0.576660156 0.9296875
vt 0.576660156 0.898925781
vt 0.55859375 0.898925781
vt 0.610351562 0.898925781
vt 0.591796875 0.898925781
vt 0.591796875 0.9296875
vt 0.610351562 0.9296875
vt 0.618164062 0.898925781
vt 0.618164062 0.9296875
vt 0.610351562 0.9296875
vt 0.610351562 0.898925781
vt 0.5 0.9296875
vt 0.5 0.898925781
vt 0.478271484 0.898925781
vt 0.478271484 0.9296875
vt 0.537109375 0.898925781
vt 0.499755859 0.898925781
vt 0.499755859 0.9296875
vt 0.537109375 0.9296875
vt 0.5 0.9296875
vt 0.537109375 0.9296875
vt 0.537109375 0.898925781
vt 0.5 0.898925781
vt 0.557617188 0.9296875
vt 0.557617188 0.898925781
vt 0.537109375 0.898925781
vt 0.537109375 0.9296875
vt 0.420654297 0.9296875
vt 0.477294922 0.9296875
vt 0.477294922 0.898925781
vt 0.420654297 0.898925781
vt 0.478271484 0.898925781
vt 0.420654297 0.898925781
vt 0.420654297 0.9296875
vt 0.478271484 0.9296875
vt 0.420654297 0.9296875
vt 0.477294922 0.9296875
vt 0.477294922 0.898925781
vt 0.420654297 0.898925781
vt 0.557617188 0.9296875
vt 0.618652344 0.9296875
vt 0.618652344 0.898925781
vt 0.557617188 0.898925781
vt 0.576660156 0.898925781
vt 0.591796875 0.898925781
vt 0.591796875 0.9296875
vt 0.576660156 0.9296875
vt 0.618164062 0.898925781
vt 0.610351562 0.898925781
vt 0.610351562 0.9296875
vt 0.618164062 0.9296875
vt 0.576660156 0.9296875
vt 0.591796875 0.9296875
vt 0.591796875 0.898925781
vt 0.576660156 0.898925781
vt 0.559082031 0.898925781
vt 0.576660156 0.898925781
vt 0.576660156 0.9296875
vt 0.559082031 0.9296875
vt 0.454101562 0.831054688
vt 0.4296875 0.833984375
vt 0.4296875 0.847167969
vt 0.454101562 0.843261719
vt 0.46484375 0.842285156
vt 0.453613281 0.771484375
vt 0.464355469 0.767089844
vt 0.464355469 0.755859375
vt 0.512695312 0.766601562
vt 0.512695312 0.755371094
vt 0.522949219 0.770996094
vt 0.5234375 0.831054688
vt 0.513183594 0.842285156
vt 0.5234375 0.842773438
vt 0.547851562 0.833496094
vt 0.547851562 0.846679688
vt 0.610351562 0.9296875
vt 0.591796875 0.9296875
vt 0.591796875 0.898925781
vt 0.610351562 0.898925781
vt 0.5234375 0.842773438
vt 0.547851562 0.846191406
vt 0.547851562 0.833007812
vt 0.5234375 0.830566406
vt 0.512695312 0.841796875
vt 0.512207031 0.766601562
vt 0.522949219 0.770996094
vt 0.512207031 0.755371094
vt 0.464111328 0.767089844
vt 0.464111328 0.755371094
vt 0.453613281 0.771484375
vt 0.464599609 0.842285156
vt 0.453857422 0.831054688
vt 0.454101562 0.842773438
vt 0.4296875 0.847167969
vt 0.4296875 0.833984375
vt 0.55859375 0.9296875
vt 0.576660156 0.9296875
vt 0.576660156 0.898925781
vt 0.55859375 0.898925781
vt 0.610351562 0.898925781
vt 0.591796875 0.898925781
vt 0.591796875 0.9296875
vt 0.610351562 0.9296875
vt 0.337646484 0.938476562
vt 0.337646484 0.977050781
vt 0.50390625 0.977050781
vt 0.50390625 0.938476562
vt 0.58984375 0.977050781
vt 0.58984375 0.938476562
vt 0.684082031 0.977050781
vt 0.684082031 0.938476562
vt 0.684082031 0.938476562
vt 0.684082031 0.977050781
vt 0.775390625 0.977050781
vt 0.775390625 0.938476562
vt 0.867675781 0.977050781
vt 0.867675781 0.938476562
vt 0.337646484 0.938476562
vt 0.50390625 0.977539062
vt 0.337646484 0.977539062
vt 0.50390625 0.938476562
vt 0.58984375 0.977539062
vt 0.58984375 0.938476562
vt 0.684082031 0.977539062
vt 0.684082031 0.938476562
vt 0.775390625 0.977539062
vt 0.775390625 0.938476562
vt 0.775390625 0.938476562
vt 0.867675781 0.938476562
vt 0.867675781 0.977539062
vt 0.775390625 0.977539062
vt 0.722167969 0.909179688
vt 0.722167969 0.9296875
vt 0.687988281 0.9296875
vt 0.687988281 0.909179688
vt 0.650390625 0.9296875
vt 0.650390625 0.909179688
vt 0.61328125 0.9296875
vt 0.61328125 0.909179688
vt 0.576171875 0.9296875
vt 0.576171875 0.909179688
vt 0.543945312 0.9296875
vt 0.543945312 0.909179688
vt 0.405761719 0.908691406
vt 0.368652344 0.9296875
vt 0.368652344 0.908691406
vt 0.405761719 0.9296875
vt 0.445800781 0.908691406
vt 0.445800781 0.9296875
vt 0.479980469 0.908691406
vt 0.479980469 0.9296875
vt 0.512695312 0.908691406
vt 0.512695312 0.9296875
vt 0.54296875 0.908691406
vt 0.54296875 0.9296875
vt 0.416259766 0.938476562
vt 0.337646484 0.977050781
vt 0.337646484 0.938476562
vt 0.416259766 0.977050781
vt 0.58984375 0.938476562
vt 0.58984375 0.977050781
vt 0.684082031 0.938476562
vt 0.684082031 0.977050781
vt 0.775390625 0.938476562
vt 0.775390625 0.977050781
vt 0.865722656 0.938476562
vt 0.865722656 0.977050781
vt 0.337646484 0.938476562
vt 0.337646484 0.977050781
vt 0.50390625 0.977050781
vt 0.50390625 0.938476562
vt 0.58984375 0.977050781
vt 0.50390625 0.938476562
vt 0.58984375 0.977050781
vt 0.58984375 0.938476562
vt 0.684082031 0.977050781
vt 0.684082031 0.938476562
vt 0.775390625 0.977050781
vt 0.775390625 0.938476562
vt 0.867675781 0.977050781
vt 0.867675781 0.938476562
vt 0.416259766 0.938476562
vt 0.337646484 0.938476562
vt 0.337646484 0.977539062
vt 0.416259766 0.977539062
vt 0.58984375 0.938476562
vt 0.58984375 0.977539062
vt 0.684082031 0.938476562
vt 0.684082031 0.977539062
vt 0.775390625 0.938476562
vt 0.337646484 0.938476562
vt 0.50390625 0.977539062
vt 0.337646484 0.977539062
vt 0.50390625 0.938476562
vt 0.58984375 0.977539062
vt 0.58984375 0.938476562
vt 0.684082031 0.977539062
vt 0.684082031 0.938476562
vt 0.684082031 0.938476562
vt 0.775390625 0.977539062
vt 0.684082031 0.977539062
vt 0.775390625 0.938476562
vt 0.867675781 0.977539062
vt 0.867675781 0.938476562
vt 0.865722656 0.938476562
vt 0.775390625 0.977539062
vt 0.865722656 0.977539062
vt 0.775390625 0.938476562
vt 0.684082031 0.977539062
vt 0.684082031 0.909179688
vt 0.721191406 0.9296875
vt 0.721191406 0.909179688
vt 0.684082031 0.9296875
vt 0.644042969 0.909179688
vt 0.644042969 0.9296875
vt 0.610351562 0.909179688
vt 0.610351562 0.9296875
vt 0.577636719 0.909179688
vt 0.577636719 0.9296875
vt 0.547363281 0.909179688
vt 0.547363281 0.9296875
vt 0.514648438 0.909179688
vt 0.514648438 0.9296875
vt 0.477783203 0.909179688
vt 0.477783203 0.9296875
vt 0.440673828 0.909179688
vt 0.440673828 0.9296875
vt 0.403076172 0.909179688
vt 0.403076172 0.9296875
vt 0.368652344 0.909179688
vt 0.368652344 0.9296875
vt 0.368652344 0.908691406
vt 0.368652344 0.9296875
vt 0.404052734 0.9296875
vt 0.404052734 0.908691406
vt 0.44140625 0.9296875
vt 0.44140625 0.908691406
vt 0.478515625 0.9296875
vt 0.478515625 0.908691406
vt 0.515625 0.9296875
vt 0.515625 0.908691406
vt 0.547851562 0.9296875
vt 0.547851562 0.908691406
vt 0.578125 0.9296875
vt 0.578125 0.908691406
vt 0.610839844 0.9296875
vt 0.610839844 0.908691406
vt 0.645019531 0.9296875
vt 0.645019531 0.908691406
vt 0.685058594 0.9296875
vt 0.685058594 0.908691406
vt 0.722167969 0.9296875
vt 0.722167969 0.908691406
vt 0.337646484 0.938476562
vt 0.337646484 0.977050781
vt 0.50390625 0.977050781
vt 0.50390625 0.938476562
vt 0.58984375 0.977050781
vt 0.58984375 0.938476562
vt 0.684082031 0.977050781
vt 0.684082031 0.938476562
vt 0.684082031 0.938476562
vt 0.684082031 0.977050781
vt 0.775390625 0.977050781
vt 0.775390625 0.938476562
vt 0.867675781 0.977050781
vt 0.867675781 0.938476562
vt 0.337646484 0.938476562
vt 0.50390625 0.938476562
vt 0.50390625 0.977539062
vt 0.337646484 0.977539062
vt 0.50390625 0.938476562
vt 0.58984375 0.977539062
vt 0.50390625 0.977539062
vt 0.58984375 0.938476562
vt 0.684082031 0.977539062
vt 0.684082031 0.938476562
vt 0.775390625 0.977539062
vt 0.775390625 0.938476562
vt 0.775390625 0.938476562
vt 0.867675781 0.938476562
vt 0.867675781 0.977539062
vt 0.775390625 0.977539062
vt 0.722167969 0.909179688
vt 0.722167969 0.9296875
vt 0.687988281 0.9296875
vt 0.687988281 0.909179688
vt 0.650390625 0.9296875
vt 0.650390625 0.909179688
vt 0.61328125 0.9296875
vt 0.61328125 0.909179688
vt 0.576171875 0.9296875
vt 0.576171875 0.909179688
vt 0.543945312 0.9296875
vt 0.543945312 0.909179688
vt 0.405761719 0.908691406
vt 0.368652344 0.9296875
vt 0.368652344 0.908691406
vt 0.405761719 0.9296875
vt 0.445800781 0.908691406
vt 0.445800781 0.9296875
vt 0.479980469 0.908691406
vt 0.479980469 0.9296875
vt 0.512695312 0.908691406
vt 0.512695312 0.9296875
vt 0.54296875 0.908691406
vt 0.54296875 0.9296875
vn -0.673339844 0 -0.739257812
vn -0.673339844 0 -0.739257812
vn -0.673339844 0 -0.739257812
vn -0.673339844 0 -0.739257812
vn 0.515625 0 0.856933594
vn 0.515625 0 0.856933594
vn -0.167236328 0 0.985839844
vn -0.167236328 0 0.985839844
vn -0.720703125 0 -0.693359375
vn -0.720703125 0 -0.693359375
vn -0.720703125 0 -0.693359375
vn -0.720703125 0 -0.693359375
vn 0.515625 0 0.856933594
vn 0.876464844 0 0.481201172
vn 0.876464844 0 0.481201172
vn 0.515625 0 0.856933594
vn 0.9765625 0 -0.214233398
vn 0.9765625 0 -0.214233398
vn 0.876464844 0 0.481201172
vn 0.876464844 0 0.481201172
vn 0.693359375 0 -0.720703125
vn 0.693359375 0 -0.720703125
vn 0.693359375 0 -0.720703125
vn 0.693359375 0 -0.720703125
vn -0.693359375 0 0.720703125
vn -0.693359375 0 0.720703125
vn -0.693359375 0 0.720703125
vn -0.693359375 0 0.720703125
vn -0.693359375 0 0.720703125
vn -0.693359375 0 0.720703125
vn -0.693359375 0 0.720703125
vn -0.693359375 0 0.720703125
vn 0.693359375 0 -0.720703125
vn 0.693359375 0 -0.720703125
vn 0.693359375 0 -0.720703125
vn 0.693359375 0 -0.720703125
vn -0.693359375 0 0.720703125
vn -0.693359375 0 0.720703125
vn -0.693359375 0 0.720703125
vn -0.693359375 0 0.720703125
vn -0.765625 0 -0.643066406
vn -0.765625 0 -0.643066406
vn -0.765625 0 -0.643066406
vn -0.765625 0 -0.643066406
vn 0.693359375 0 -0.720703125
vn 0.693359375 0 -0.720703125
vn 0.693359375 0 -0.720703125
vn 0.693359375 0 -0.720703125
vn 0.643066406 0 0.765625
vn 0.643066406 0 0.765625
vn 0.643066406 0 0.765625
vn 0.643066406 0 0.765625
vn -0 1 0
vn -0 1 1.71661377E-05
vn -0 1 1.71661377E-05
vn -0 1 0
vn -0 1 0
vn -0 1 0
vn -0 1 -4.17232513E-06
vn -0 1 -4.58955765E-06
vn -0 1 -9.41753387E-06
vn -0 1 -6.31809235E-06
vn -0 1 -4.32729721E-05
vn -0 1 0
vn -0 1 0
vn -0 1 4.16040421E-05
vn -0 1 -1.71661377E-05
vn -0 1 -1.71661377E-05
vn -0.604003906 0 -0.796875
vn -0.604003906 0 -0.796875
vn -0.604003906 0 -0.796875
vn -0.604003906 0 -0.796875
vn -0 -1 0
vn -0 -1 0
vn -0 -1 0
vn -0 -1 1.43051147E-05
vn -0 -1 1.43051147E-05
vn -0 -1 0
vn -0 -1 0
vn -0 -1 0
vn -0 -1 0
vn -0 -1 0
vn -0 -1 0
vn -0 -1 1.4603138E-05
vn -0 -1 1.4603138E-05
vn -0 -1 0
vn -0 -1 1.71661377E-05
vn -0 -1 1.71661377E-05
vn 0.790039062 0 0.61328125
vn 0.790039062 0 0.61328125
vn 0.790039062 0 0.61328125
vn 0.790039062 0 0.61328125
vn -0.819824219 0 -0.572753906
vn -0.819824219 0 -0.572753906
vn -0.819824219 0 -0.572753906
vn -0.819824219 0 -0.572753906
vn 0.754394531 0 -0.656738281
vn 0.754394531 0 -0.656738281
vn 0.754394531 0 -0.656738281
vn 0.754394531 0 -0.656738281
vn -0.868164062 0 0.49609375
vn -0.868164062 0 0.49609375
vn -0.981933594 0 -0.189208984
vn -0.981933594 0 -0.189208984
vn 0.709472656 0 -0.705078125
vn 0.709472656 0 -0.705078125
vn 0.709472656 0 -0.705078125
vn 0.709472656 0 -0.705078125
vn -0.868164062 0 0.49609375
vn -0.500976562 0 0.865722656
vn -0.500976562 0 0.865722656
vn -0.868164062 0 0.49609375
vn 0.192382812 0 0.981445312
vn 0.192382812 0 0.981445312
vn -0.500976562 0 0.865722656
vn -0.500976562 0 0.865722656
vn 0.705078125 0 0.709472656
vn 0.705078125 0 0.709472656
vn 0.705078125 0 0.709472656
vn 0.705078125 0 0.709472656
vn -0.705078125 0 -0.709472656
vn -0.705078125 0 -0.709472656
vn -0.705078125 0 -0.709472656
vn -0.705078125 0 -0.709472656
vn -0.705078125 0 -0.709472656
vn -0.705078125 0 -0.709472656
vn -0.705078125 0 -0.709472656
vn -0.705078125 0 -0.709472656
vn 0.705078125 0 0.709472656
vn 0.705078125 0 0.709472656
vn 0.705078125 0 0.709472656
vn 0.705078125 0 0.709472656
vn -0.705078125 0 -0.709472656
vn -0.705078125 0 -0.709472656
vn -0.705078125 0 -0.709472656
vn -0.705078125 0 -0.709472656
vn 0.66015625 0 -0.750976562
vn 0.66015625 0 -0.750976562
vn 0.66015625 0 -0.750976562
vn 0.66015625 0 -0.750976562
vn 0.705078125 0 0.709472656
vn 0.705078125 0 0.709472656
vn 0.705078125 0 0.709472656
vn 0.705078125 0 0.709472656
vn -0.779785156 0 0.625976562
vn -0.779785156 0 0.625976562
vn -0.779785156 0 0.625976562
vn -0.779785156 0 0.625976562
vn -0 1 0
vn -0 1 0
vn -0 1 0
vn -0 1 0
vn -0 1 0
vn -0 1 -2.12192535E-05
vn -0 1 -6.7949295E-06
vn -0 1 -5.42402267E-06
vn -0 1 -4.17232513E-06
vn -0 1 -4.58955765E-06
vn -0 1 0
vn -0 1 -1.4603138E-05
vn -0 1 -1.4603138E-05
vn -0 1 0
vn -0 1 1.71661377E-05
vn -0 1 1.71661377E-05
vn 0.810546875 0 -0.5859375
vn 0.810546875 0 -0.5859375
vn 0.810546875 0 -0.5859375
vn 0.810546875 0 -0.5859375
vn -0 -1 0
vn -0 -1 1.71661377E-05
vn -0 -1 1.71661377E-05
vn -0 -1 0
vn -0 -1 0
vn -0 -1 0
vn -0 -1 0
vn -0 -1 0
vn -0 -1 0
vn -0 -1 0
vn -0 -1 0
vn -0 -1 0
vn -0 -1 0
vn -0 -1 0
vn -0 -1 0
vn -0 -1 0
vn -0.630859375 0 0.775878906
vn -0.630859375 0 0.775878906
vn -0.630859375 0 0.775878906
vn -0.630859375 0 0.775878906
vn 0.590820312 0 -0.806640625
vn 0.590820312 0 -0.806640625
vn 0.590820312 0 -0.806640625
vn 0.590820312 0 -0.806640625
vn 0.66796875 0 0.744140625
vn 0.66796875 0 0.744140625
vn 0.66796875 0 0.744140625
vn 0.66796875 0 0.744140625
vn -0.509277344 0 -0.860839844
vn -0.509277344 0 -0.860839844
vn 0.174438477 0 -0.984863281
vn 0.174438477 0 -0.984863281
vn 0.715332031 0 0.698730469
vn 0.715332031 0 0.698730469
vn 0.715332031 0 0.698730469
vn 0.715332031 0 0.698730469
vn -0.509277344 0 -0.860839844
vn -0.873046875 0 -0.487792969
vn -0.873046875 0 -0.487792969
vn -0.509277344 0 -0.860839844
vn -0.978515625 0 0.20703125
vn -0.978515625 0 0.20703125
vn -0.873046875 0 -0.487792969
vn -0.873046875 0 -0.487792969
vn -0.698730469 0 0.715332031
vn -0.698730469 0 0.715332031
vn -0.698730469 0 0.715332031
vn -0.698730469 0 0.715332031
vn 0.698730469 0 -0.715332031
vn 0.698730469 0 -0.715332031
vn 0.698730469 0 -0.715332031
vn 0.698730469 0 -0.715332031
vn 0.698730469 0 -0.715332031
vn 0.698730469 0 -0.715332031
vn 0.698730469 0 -0.715332031
vn 0.698730469 0 -0.715332031
vn -0.698730469 0 0.715332031
vn -0.698730469 0 0.715332031
vn -0.698730469 0 0.715332031
vn -0.698730469 0 0.715332031
vn 0.698730469 0 -0.715332031
vn 0.698730469 0 -0.715332031
vn 0.698730469 0 -0.715332031
vn 0.698730469 0 -0.715332031
vn 0.760742188 0 0.648925781
vn 0.760742188 0 0.648925781
vn 0.760742188 0 0.648925781
vn 0.760742188 0 0.648925781
vn -0.698730469 0 0.715332031
vn -0.698730469 0 0.715332031
vn -0.698730469 0 0.715332031
vn -0.698730469 0 0.715332031
vn -0.637695312 0 -0.770507812
vn -0.637695312 0 -0.770507812
vn -0.637695312 0 -0.770507812
vn -0.637695312 0 -0.770507812
vn -0 1 0
vn -0 1 1.71661377E-05
vn -0 1 1.71661377E-05
vn -0 1 0
vn -0 1 0
vn -0 1 0
vn -0 1 -4.17232513E-06
vn -0 1 -4.58955765E-06
vn -0 1 1.07288361E-06
vn -0 1 -2.86102295E-06
vn -0 1 4.32729721E-05
vn -0 1 0
vn -0 1 0
vn -0 1 0
vn -0 1 0
vn -0 1 0
vn 0.598144531 0 0.801269531
vn 0.598144531 0 0.801269531
vn 0.598144531 0 0.801269531
vn 0.598144531 0 0.801269531
vn -0 -1 0
vn -0 -1 1.71661377E-05
vn -0 -1 1.71661377E-05
vn -0 -1 0
vn -0 -1 0
vn -0 -1 0
vn -0 -1 0
vn -0 -1 0
vn -0 -1 2.62260437E-06
vn -0 -1 8.34465027E-07
vn -0 -1 2.16364861E-05
vn -0 -1 0
vn -0 -1 0
vn -0 -1 -4.16040421E-05
vn -0 -1 0
vn -0 -1 0
vn -0.785644531 0 -0.618652344
vn -0.785644531 0 -0.618652344
vn -0.785644531 0 -0.618652344
vn -0.785644531 0 -0.618652344
vn 0.815429688 0 0.578613281
vn 0.815429688 0 0.578613281
vn 0.815429688 0 0.578613281
vn 0.815429688 0 0.578613281
vn -0.749023438 0 0.662597656
vn -0.749023438 0 0.662597656
vn -0.749023438 0 0.662597656
vn -0.749023438 0 0.662597656
vn 0.864257812 0 -0.502929688
vn 0.864257812 0 -0.502929688
vn 0.983398438 0 0.181396484
vn 0.983398438 0 0.181396484
vn -0.703613281 0 0.710449219
vn -0.703613281 0 0.710449219
vn -0.703613281 0 0.710449219
vn -0.703613281 0 0.710449219
vn 0.864257812 0 -0.502929688
vn 0.493896484 0 -0.869628906
vn 0.493896484 0 -0.869628906
vn 0.864257812 0 -0.502929688
vn -0.200195312 0 -0.979980469
vn -0.200195312 0 -0.979980469
vn 0.493896484 0 -0.869628906
vn 0.493896484 0 -0.869628906
vn -0.710449219 0 -0.703613281
vn -0.710449219 0 -0.703613281
vn -0.710449219 0 -0.703613281
vn -0.710449219 0 -0.703613281
vn 0.710449219 0 0.703613281
vn 0.710449219 0 0.703613281
vn 0.710449219 0 0.703613281
vn 0.710449219 0 0.703613281
vn 0.710449219 0 0.703613281
vn 0.710449219 0 0.703613281
vn 0.710449219 0 0.703613281
vn 0.710449219 0 0.703613281
vn -0.710449219 0 -0.703613281
vn -0.710449219 0 -0.703613281
vn -0.710449219 0 -0.703613281
vn -0.710449219 0 -0.703613281
vn 0.710449219 0 0.703613281
vn 0.710449219 0 0.703613281
vn 0.710449219 0 0.703613281
vn 0.710449219 0 0.703613281
vn -0.654296875 0 0.756347656
vn -0.654296875 0 0.756347656
vn -0.654296875 0 0.756347656
vn -0.654296875 0 0.756347656
vn -0.710449219 0 -0.703613281
vn -0.710449219 0 -0.703613281
vn -0.710449219 0 -0.703613281
vn -0.710449219 0 -0.703613281
vn 0.774902344 0 -0.631835938
vn 0.774902344 0 -0.631835938
vn 0.774902344 0 -0.631835938
vn 0.774902344 0 -0.631835938
vn -0 1 -1.43051147E-05
vn -0 1 0
vn -0 1 0
vn -0 1 0
vn -0 1 -1.43051147E-05
vn -0 1 -2.12192535E-05
vn -0 1 -1.51395798E-05
vn -0 1 -1.4603138E-05
vn -0 1 -1.78217888E-05
vn -0 1 -1.5437603E-05
vn -0 1 -4.32729721E-05
vn -0 1 0
vn -0 1 0
vn -0 1 0
vn -0 1 -1.71661377E-05
vn -0 1 -1.71661377E-05
vn -0.805664062 0 0.592285156
vn -0.805664062 0 0.592285156
vn -0.805664062 0 0.592285156
vn -0.805664062 0 0.592285156
vn -0 -1 0
vn -0 -1 -1.71661377E-05
vn -0 -1 -1.71661377E-05
vn -0 -1 0
vn -0 -1 0
vn -0 -1 -1.93119049E-05
vn -0 -1 -2.12192535E-05
vn -0 -1 -1.9133091E-05
vn -0 -1 -6.2584877E-06
vn -0 -1 -1.48415565E-05
vn -0 -1 8.64863396E-05
vn -0 -1 -1.4603138E-05
vn -0 -1 -1.4603138E-05
vn -0 -1 0
vn -0 -1 0
vn -0 -1 0
vn 0.624511719 0 -0.78125
vn 0.624511719 0 -0.78125
vn 0.624511719 0 -0.78125
vn 0.624511719 0 -0.78125
vn -0.584472656 0 0.811523438
vn -0.584472656 0 0.811523438
vn -0.584472656 0 0.811523438
vn -0.584472656 0 0.811523438
vn 0.733398438 5.1856041E-06 0.6796875
vn 0.733398438 5.1856041E-06 0.6796875
vn 0.818847656 -6.55651093E-07 0.57421875
vn 0.818847656 -6.55651093E-07 0.57421875
vn 0.948730469 -3.51667404E-06 0.315917969
vn 0.948730469 -3.51667404E-06 0.315673828
vn 1 -2.38418579E-07 0.00713729858
vn 1 -2.38418579E-07 0.00713729858
vn 1 -2.38418579E-07 0.00713729858
vn 1 -2.38418579E-07 0.00713729858
vn 0.954589844 0 -0.297607422
vn 0.954589844 0 -0.297607422
vn 0.897460938 0 -0.441162109
vn 0.897460938 0 -0.441162109
vn -0.706542969 0 -0.708007812
vn -0.807617188 0 -0.58984375
vn -0.706542969 0 -0.708007812
vn -0.807617188 0 -0.58984375
vn -0.948730469 0 -0.315917969
vn -0.948730469 0 -0.315917969
vn -1 0 -0.00713729858
vn -1 0 -0.00713729858
vn -0.952148438 0 0.306152344
vn -0.952148438 0 0.306152344
vn -0.952148438 0 0.306152344
vn -0.892089844 0 0.452148438
vn -0.892089844 0 0.452148438
vn -0.952148438 0 0.306152344
vn -0.0601806641 -0.996582031 -0.0578613281
vn -0.0601806641 -0.996582031 -0.0578613281
vn -0.0687255859 -0.996582031 -0.0487060547
vn -0.0681762695 -0.996582031 -0.0492553711
vn -0.0804443359 -0.996582031 -0.0260314941
vn -0.080078125 -0.996582031 -0.0272674561
vn -0.0825805664 -0.996582031 0.000110089779
vn -0.0826416016 -0.996582031 -0.00115871429
vn -0.0761108398 -0.996582031 0.0247650146
vn -0.0765991211 -0.996582031 0.0237121582
vn -0.0712280273 -0.997070312 0.0355224609
vn -0.0712280273 -0.997070312 0.0355224609
vn -0.0681762695 0.996582031 -0.0492553711
vn -0.0601806641 0.996582031 -0.0578613281
vn -0.0601806641 0.996582031 -0.0578613281
vn -0.0687255859 0.996582031 -0.0487060547
vn -0.080078125 0.996582031 -0.0272674561
vn -0.0804443359 0.996582031 -0.0260314941
vn -0.0826416016 0.996582031 -0.00116252899
vn -0.0825805664 0.996582031 0.000106334686
vn -0.0765991211 0.996582031 0.0237121582
vn -0.0761108398 0.996582031 0.0247650146
vn -0.0712280273 0.997070312 0.0355224609
vn -0.0712280273 0.997070312 0.0355224609
vn -0.950683594 -4.88758087E-06 0.309814453
vn -0.890625 -9.05990601E-06 0.454833984
vn -0.890625 -9.05990601E-06 0.454833984
vn -0.950683594 -4.88758087E-06 0.309814453
vn -1 0 0.00110054016
vn -1 0 0.00110149384
vn -0.951171875 2.8014183E-06 -0.307861328
vn -0.951171875 2.8014183E-06 -0.307861328
vn -0.809570312 4.05311584E-06 -0.586914062
vn -0.809570312 4.05311584E-06 -0.586914062
vn -0.588867188 2.74181366E-06 -0.80859375
vn -0.588867188 2.74181366E-06 -0.80859375
vn 0.706542969 8.76188278E-06 -0.707519531
vn 0.706542969 8.76188278E-06 -0.707519531
vn 0.586914062 3.9935112E-06 -0.809570312
vn 0.586914062 3.9935112E-06 -0.809570312
vn 0.307861328 -4.17232513E-07 -0.951171875
vn 0.586914062 3.9935112E-06 -0.809570312
vn 0.307861328 -4.17232513E-07 -0.951171875
vn 0.307861328 -4.17232513E-07 -0.951171875
vn -0.00110054016 0 -1
vn -0.00110054016 0 -1
vn -0.310058594 1.31130219E-06 -0.950683594
vn -0.310058594 1.31130219E-06 -0.950683594
vn -0.588867188 2.74181366E-06 -0.80859375
vn -0.588867188 2.74181366E-06 -0.80859375
vn 0.950683594 0 -0.309814453
vn 0.890625 0 -0.454833984
vn 0.890625 0 -0.454833984
vn 0.950683594 0 -0.309814453
vn 1 0 -0.00110244751
vn 1 0 -0.00110244751
vn 0.951171875 0 0.307861328
vn 0.951171875 0 0.307861328
vn 0.809570312 0 0.586914062
vn -0.706542969 0 0.707519531
vn -0.586914062 0 0.809570312
vn -0.706542969 0 0.707519531
vn -0.586914062 0 0.809570312
vn -0.307861328 0 0.951171875
vn -0.307861328 0 0.951171875
vn 0.00110054016 0 1
vn 0.00110054016 0 1
vn 0.00110054016 0 1
vn 0.310058594 0 0.950683594
vn 0.00110054016 0 1
vn 0.310058594 0 0.950683594
vn 0.588867188 0 0.80859375
vn 0.588867188 0 0.80859375
vn 0.588867188 0 0.80859375
vn 0.809570312 0 0.586914062
vn 0.588867188 0 0.80859375
vn 0.809570312 0 0.586914062
vn 0.951171875 0 0.307861328
vn 0.0846557617 -0.99609375 -0.0273742676
vn 0.0798950195 -0.99609375 -0.040802002
vn 0.0798950195 -0.99609375 -0.040802002
vn 0.0845336914 -0.99609375 -0.0278015137
vn 0.0893554688 -0.99609375 -9.78708267E-05
vn 0.0893554688 -0.99609375 -9.93013382E-05
vn 0.0847167969 -0.99609375 0.0272064209
vn 0.0845947266 -0.99609375 0.027633667
vn 0.071472168 -0.99609375 0.0513305664
vn 0.0709228516 -0.99609375 0.0520019531
vn 0.0513000488 -0.99609375 0.0695800781
vn 0.0503540039 -0.99609375 0.0701904297
vn 0.0267791748 -0.996582031 0.0802612305
vn 0.0255432129 -0.996582031 0.0805664062
vn 0.000662326813 -0.996582031 0.0826416016
vn -0.000606060028 -0.996582031 0.0825805664
vn -0.0243835449 -0.996582031 0.0770263672
vn -0.0254516602 -0.996582031 0.0765991211
vn -0.0461120605 -0.997070312 0.0643310547
vn -0.0468444824 -0.997070312 0.0637207031
vn -0.056060791 -0.997070312 0.0561828613
vn -0.056060791 -0.997070312 0.0561828613
vn 0.0798950195 0.99609375 -0.040802002
vn 0.0798950195 0.99609375 -0.040802002
vn 0.0845336914 0.99609375 -0.0278015137
vn 0.0846557617 0.99609375 -0.0273742676
vn 0.0893554688 0.99609375 -9.7990036E-05
vn 0.0893554688 0.99609375 -9.64403152E-05
vn 0.0845947266 0.99609375 0.027633667
vn 0.0847167969 0.99609375 0.0272064209
vn 0.0709228516 0.99609375 0.0520019531
vn 0.071472168 0.99609375 0.0513305664
vn 0.0503540039 0.99609375 0.0701904297
vn 0.0513000488 0.99609375 0.0695800781
vn 0.0255432129 0.996582031 0.0805664062
vn 0.0267791748 0.996582031 0.0802612305
vn -0.000606060028 0.996582031 0.0825805664
vn 0.000662326813 0.996582031 0.0826416016
vn -0.0254516602 0.996582031 0.0765991211
vn -0.0243835449 0.996582031 0.0770263672
vn -0.0468444824 0.997070312 0.0637207031
vn -0.0461120605 0.997070312 0.0643310547
vn -0.056060791 0.997070312 0.0561523438
vn -0.056060791 0.997070312 0.0561523438
vn -0.70703125 3.15904617E-06 0.707519531
vn -0.70703125 3.15904617E-06 0.707519531
vn -0.587402344 8.34465027E-07 0.809082031
vn -0.587402344 8.34465027E-07 0.809082031
vn -0.309082031 -1.43051147E-06 0.951171875
vn -0.309082031 -1.43051147E-06 0.951171875
vn -0 -6.55651093E-07 1
vn -0 -6.55651093E-07 1
vn -0 -6.55651093E-07 1
vn -0 -6.55651093E-07 1
vn 0.309082031 0 0.951171875
vn 0.309082031 0 0.951171875
vn 0.454101562 0 0.891113281
vn 0.454101562 0 0.891113281
vn 0.70703125 0 -0.707519531
vn 0.587402344 0 -0.809082031
vn 0.587402344 0 -0.809082031
vn 0.70703125 0 -0.707519531
vn 0.587402344 0 -0.809082031
vn 0.309082031 0 -0.951171875
vn 0.587402344 0 -0.809082031
vn 0.309082031 0 -0.951171875
vn -0 0 -1
vn -0 0 -1
vn -0.309082031 0 -0.951171875
vn -0.309082031 0 -0.951171875
vn -0.309082031 0 -0.951171875
vn -0.454101562 0 -0.891113281
vn -0.454101562 0 -0.891113281
vn -0.309082031 0 -0.951171875
vn 0.0624694824 -0.99609375 -0.0625
vn 0.0624694824 -0.99609375 -0.0625
vn 0.0502624512 -0.99609375 -0.0702514648
vn 0.0512084961 -0.99609375 -0.0696411133
vn 0.0254516602 -0.996582031 -0.0806274414
vn 0.0266876221 -0.996582031 -0.0803222656
vn -0.000696659088 -0.996582031 -0.0825805664
vn 0.000571250916 -0.996582031 -0.0826416016
vn -0.0255432129 -0.996582031 -0.0765380859
vn -0.0244598389 -0.996582031 -0.076965332
vn -0.0367126465 -0.996582031 -0.0720214844
vn -0.0367126465 -0.996582031 -0.0720214844
vn 0.0512084961 0.99609375 -0.0696411133
vn 0.0624694824 0.99609375 -0.0625
vn 0.0624694824 0.99609375 -0.0625
vn 0.0502624512 0.99609375 -0.0702514648
vn 0.0266876221 0.996582031 -0.0803222656
vn 0.0254516602 0.996582031 -0.0806274414
vn 0.000571250916 0.996582031 -0.0826416016
vn -0.000697135925 0.996582031 -0.0825805664
vn -0.0244598389 0.996582031 -0.076965332
vn -0.0255432129 0.996582031 -0.0765380859
vn -0.0367126465 0.996582031 -0.0720214844
vn -0.0367126465 0.996582031 -0.0720214844
g Elevator_RingHanger_2_0
f 3/3/3 2/2/2 1/1/1
f 4/4/4 3/3/3 1/1/1
f 7/7/7 6/6/6 5/5/5
f 8/8/8 7/7/7 5/5/5
f 11/11/11 10/10/10 9/9/9
f 12/12/12 11/11/11 9/9/9
f 15/15/15 14/14/14 13/13/13
f 16/16/16 15/15/15 13/13/13
f 19/19/19 18/18/18 17/17/17
f 20/20/20 19/19/19 17/17/17
f 23/23/23 22/22/22 21/21/21
f 24/24/24 23/23/23 21/21/21
f 27/27/27 26/26/26 25/25/25
f 28/28/28 27/27/27 25/25/25
f 31/31/31 30/30/30 29/29/29
f 32/32/32 31/31/31 29/29/29
f 35/35/35 34/34/34 33/33/33
f 36/36/36 35/35/35 33/33/33
f 39/39/39 38/38/38 37/37/37
f 40/40/40 39/39/39 37/37/37
f 43/43/43 42/42/42 41/41/41
f 44/44/44 43/43/43 41/41/41
f 47/47/47 46/46/46 45/45/45
f 48/48/48 47/47/47 45/45/45
f 51/51/51 50/50/50 49/49/49
f 52/52/52 51/51/51 49/49/49
f 55/55/55 54/54/54 53/53/53
f 56/56/56 55/55/55 53/53/53
f 57/57/57 56/56/56 53/53/53
f 57/57/57 53/53/53 58/58/58
f 59/59/59 57/57/57 58/58/58
f 59/59/59 58/58/58 60/60/60
f 61/61/61 59/59/59 60/60/60
f 62/62/62 61/61/61 60/60/60
f 63/63/63 61/61/61 62/62/62
f 63/63/63 64/64/64 61/61/61
f 64/64/64 65/65/65 61/61/61
f 64/64/64 66/66/66 65/65/65
f 64/64/64 67/67/67 66/66/66
f 67/67/67 68/68/68 66/66/66
f 71/71/71 70/70/70 69/69/69
f 72/72/72 71/71/71 69/69/69
f 75/75/75 74/74/74 73/73/73
f 76/76/76 75/75/75 73/73/73
f 76/76/76 73/73/73 77/77/77
f 76/76/76 77/77/77 78/78/78
f 79/79/79 76/76/76 78/78/78
f 78/78/78 80/80/80 79/79/79
f 78/78/78 81/81/81 80/80/80
f 81/81/81 82/82/82 80/80/80
f 81/81/81 83/83/83 82/82/82
f 81/81/81 84/84/84 83/83/83
f 84/84/84 85/85/85 83/83/83
f 84/84/84 86/86/86 85/85/85
f 86/86/86 87/87/87 85/85/85
f 87/87/87 88/88/88 85/85/85
f 91/91/91 90/90/90 89/89/89
f 92/92/92 91/91/91 89/89/89
f 95/95/95 94/94/94 93/93/93
f 96/96/96 95/95/95 93/93/93
f 99/99/99 98/98/98 97/97/97
f 100/100/100 99/99/99 97/97/97
f 103/103/103 102/102/102 101/101/101
f 104/104/104 103/103/103 101/101/101
f 107/107/107 106/106/106 105/105/105
f 108/108/108 107/107/107 105/105/105
f 111/111/111 110/110/110 109/109/109
f 112/112/112 111/111/111 109/109/109
f 115/115/115 114/114/114 113/113/113
f 116/116/116 115/115/115 113/113/113
f 119/119/119 118/118/118 117/117/117
f 120/120/120 119/119/119 117/117/117
f 123/123/123 122/122/122 121/121/121
f 124/124/124 123/123/123 121/121/121
f 127/127/127 126/126/126 125/125/125
f 128/128/128 127/127/127 125/125/125
f 131/131/131 130/130/130 129/129/129
f 132/132/132 131/131/131 129/129/129
f 135/135/135 134/134/134 133/133/133
f 136/136/136 135/135/135 133/133/133
f 139/139/139 138/138/138 137/137/137
f 140/140/140 139/139/139 137/137/137
f 143/143/143 142/142/142 141/141/141
f 144/144/144 143/143/143 141/141/141
f 147/147/147 146/146/146 145/145/145
f 148/148/148 147/147/147 145/145/145
f 151/151/151 150/150/150 149/149/149
f 152/152/152 151/151/151 149/149/149
f 153/153/153 152/152/152 149/149/149
f 153/153/153 149/149/149 154/154/154
f 155/155/155 153/153/153 154/154/154
f 155/155/155 154/154/154 156/156/156
f 157/157/157 155/155/155 156/156/156
f 158/158/158 157/157/157 156/156/156
f 159/159/159 157/157/157 158/158/158
f 159/159/159 160/160/160 157/157/157
f 160/160/160 161/161/161 157/157/157
f 160/160/160 162/162/162 161/161/161
f 160/160/160 163/163/163 162/162/162
f 163/163/163 164/164/164 162/162/162
f 167/167/167 166/166/166 165/165/165
f 168/168/168 167/167/167 165/165/165
f 171/171/171 170/170/170 169/169/169
f 172/172/172 171/171/171 169/169/169
f 172/172/172 169/169/169 173/173/173
f 172/172/172 173/173/173 174/174/174
f 175/175/175 172/172/172 174/174/174
f 174/174/174 176/176/176 175/175/175
f 174/174/174 177/177/177 176/176/176
f 177/177/177 178/178/178 176/176/176
f 177/177/177 179/179/179 178/178/178
f 177/177/177 180/180/180 179/179/179
f 180/180/180 181/181/181 179/179/179
f 180/180/180 182/182/182 181/181/181
f 182/182/182 183/183/183 181/181/181
f 183/183/183 184/184/184 181/181/181
f 187/187/187 186/186/186 185/185/185
f 188/188/188 187/187/187 185/185/185
f 191/191/191 190/190/190 189/189/189
f 192/192/192 191/191/191 189/189/189
f 195/195/195 194/194/194 193/193/193
f 196/196/196 195/195/195 193/193/193
f 199/199/199 198/198/198 197/197/197
f 200/200/200 199/199/199 197/197/197
f 203/203/203 202/202/202 201/201/201
f 204/204/204 203/203/203 201/201/201
f 207/207/207 206/206/206 205/205/205
f 208/208/208 207/207/207 205/205/205
f 211/211/211 210/210/210 209/209/209
f 212/212/212 211/211/211 209/209/209
f 215/215/215 214/214/214 213/213/213
f 216/216/216 215/215/215 213/213/213
f 219/219/219 218/218/218 217/217/217
f 220/220/220 219/219/219 217/217/217
f 223/223/223 222/222/222 221/221/221
f 224/224/224 223/223/223 221/221/221
f 227/227/227 226/226/226 225/225/225
f 228/228/228 227/227/227 225/225/225
f 231/231/231 230/230/230 229/229/229
f 232/232/232 231/231/231 229/229/229
f 235/235/235 234/234/234 233/233/233
f 236/236/236 235/235/235 233/233/233
f 239/239/239 238/238/238 237/237/237
f 240/240/240 239/239/239 237/237/237
f 243/243/243 242/242/242 241/241/241
f 244/244/244 243/243/243 241/241/241
f 247/247/247 246/246/246 245/245/245
f 248/248/248 247/247/247 245/245/245
f 249/249/249 248/248/248 245/245/245
f 249/249/249 245/245/245 250/250/250
f 251/251/251 249/249/249 250/250/250
f 251/251/251 250/250/250 252/252/252
f 253/253/253 251/251/251 252/252/252
f 254/254/254 253/253/253 252/252/252
f 255/255/255 253/253/253 254/254/254
f 255/255/255 256/256/256 253/253/253
f 256/256/256 257/257/257 253/253/253
f 256/256/256 258/258/258 257/257/257
f 256/256/256 259/259/259 258/258/258
f 259/259/259 260/260/260 258/258/258
f 263/263/263 262/262/262 261/261/261
f 264/264/264 263/263/263 261/261/261
f 267/267/267 266/266/266 265/265/265
f 268/268/268 267/267/267 265/265/265
f 268/268/268 265/265/265 269/269/269
f 268/268/268 269/269/269 270/270/270
f 271/271/271 268/268/268 270/270/270
f 270/270/270 272/272/272 271/271/271
f 270/270/270 273/273/273 272/272/272
f 273/273/273 274/274/274 272/272/272
f 273/273/273 275/275/275 274/274/274
f 273/273/273 276/276/276 275/275/275
f 276/276/276 277/277/277 275/275/275
f 276/276/276 278/278/278 277/277/277
f 278/278/278 279/279/279 277/277/277
f 279/279/279 280/280/280 277/277/277
f 283/283/283 282/282/282 281/281/281
f 284/284/284 283/283/283 281/281/281
f 287/287/287 286/286/286 285/285/285
f 288/288/288 287/287/287 285/285/285
f 291/291/291 290/290/290 289/289/289
f 292/292/292 291/291/291 289/289/289
f 295/295/295 294/294/294 293/293/293
f 296/296/296 295/295/295 293/293/293
f 299/299/299 298/298/298 297/297/297
f 300/300/300 299/299/299 297/297/297
f 303/303/303 302/302/302 301/301/301
f 304/304/304 303/303/303 301/301/301
f 307/307/307 306/306/306 305/305/305
f 308/308/308 307/307/307 305/305/305
f 311/311/311 310/310/310 309/309/309
f 312/312/312 311/311/311 309/309/309
f 315/315/315 314/314/314 313/313/313
f 316/316/316 315/315/315 313/313/313
f 319/319/319 318/318/318 317/317/317
f 320/320/320 319/319/319 317/317/317
f 323/323/323 322/322/322 321/321/321
f 324/324/324 323/323/323 321/321/321
f 327/327/327 326/326/326 325/325/325
f 328/328/328 327/327/327 325/325/325
f 331/331/331 330/330/330 329/329/329
f 332/332/332 331/331/331 329/329/329
f 335/335/335 334/334/334 333/333/333
f 336/336/336 335/335/335 333/333/333
f 339/339/339 338/338/338 337/337/337
f 340/340/340 339/339/339 337/337/337
f 343/343/343 342/342/342 341/341/341
f 344/344/344 343/343/343 341/341/341
f 345/345/345 344/344/344 341/341/341
f 345/345/345 341/341/341 346/346/346
f 347/347/347 345/345/345 346/346/346
f 347/347/347 346/346/346 348/348/348
f 349/349/349 347/347/347 348/348/348
f 350/350/350 349/349/349 348/348/348
f 351/351/351 349/349/349 350/350/350
f 351/351/351 352/352/352 349/349/349
f 352/352/352 353/353/353 349/349/349
f 352/352/352 354/354/354 353/353/353
f 352/352/352 355/355/355 354/354/354
f 355/355/355 356/356/356 354/354/354
f 359/359/359 358/358/358 357/357/357
f 360/360/360 359/359/359 357/357/357
f 363/363/363 362/362/362 361/361/361
f 364/364/364 363/363/363 361/361/361
f 364/364/364 361/361/361 365/365/365
f 364/364/364 365/365/365 366/366/366
f 367/367/367 364/364/364 366/366/366
f 366/366/366 368/368/368 367/367/367
f 366/366/366 369/369/369 368/368/368
f 369/369/369 370/370/370 368/368/368
f 369/369/369 371/371/371 370/370/370
f 369/369/369 372/372/372 371/371/371
f 372/372/372 373/373/373 371/371/371
f 372/372/372 374/374/374 373/373/373
f 374/374/374 375/375/375 373/373/373
f 375/375/375 376/376/376 373/373/373
f 379/379/379 378/378/378 377/377/377
f 380/380/380 379/379/379 377/377/377
f 383/383/383 382/382/382 381/381/381
f 384/384/384 383/383/383 381/381/381
f 387/387/387 386/386/386 385/385/385
f 388/388/388 387/387/387 385/385/385
f 389/389/389 387/387/387 388/388/388
f 390/390/390 389/389/389 388/388/388
f 391/391/391 389/389/389 390/390/390
f 392/392/392 391/391/391 390/390/390
f 395/395/395 394/394/394 393/393/393
f 396/396/396 395/395/395 393/393/393
f 397/397/397 395/395/395 396/396/396
f 398/398/398 397/397/397 396/396/396
f 401/401/401 400/400/400 399/399/399
f 400/400/400 402/402/402 399/399/399
f 400/400/400 403/403/403 402/402/402
f 403/403/403 404/404/404 402/402/402
f 403/403/403 405/405/405 404/404/404
f 405/405/405 406/406/406 404/404/404
f 405/405/405 407/407/407 406/406/406
f 407/407/407 408/408/408 406/406/406
f 411/411/411 410/410/410 409/409/409
f 412/412/412 411/411/411 409/409/409
f 415/415/415 414/414/414 413/413/413
f 416/416/416 415/415/415 413/413/413
f 417/417/417 415/415/415 416/416/416
f 418/418/418 417/417/417 416/416/416
f 419/419/419 417/417/417 418/418/418
f 420/420/420 419/419/419 418/418/418
f 421/421/421 419/419/419 420/420/420
f 422/422/422 421/421/421 420/420/420
f 423/423/423 421/421/421 422/422/422
f 424/424/424 423/423/423 422/422/422
f 427/427/427 426/426/426 425/425/425
f 426/426/426 428/428/428 425/425/425
f 425/425/425 428/428/428 429/429/429
f 428/428/428 430/430/430 429/429/429
f 429/429/429 430/430/430 431/431/431
f 430/430/430 432/432/432 431/431/431
f 431/431/431 432/432/432 433/433/433
f 432/432/432 434/434/434 433/433/433
f 433/433/433 434/434/434 435/435/435
f 434/434/434 436/436/436 435/435/435
f 439/439/439 438/438/438 437/437/437
f 438/438/438 440/440/440 437/437/437
f 437/437/437 440/440/440 441/441/441
f 440/440/440 442/442/442 441/441/441
f 441/441/441 442/442/442 443/443/443
f 442/442/442 444/444/444 443/443/443
f 443/443/443 444/444/444 445/445/445
f 444/444/444 446/446/446 445/445/445
f 445/445/445 446/446/446 447/447/447
f 446/446/446 448/448/448 447/447/447
f 451/451/451 450/450/450 449/449/449
f 452/452/452 451/451/451 449/449/449
f 453/453/453 451/451/451 452/452/452
f 456/456/456 455/455/455 454/454/454
f 457/457/457 455/455/455 456/456/456
f 458/458/458 457/457/457 456/456/456
f 459/459/459 457/457/457 458/458/458
f 460/460/460 459/459/459 458/458/458
f 461/461/461 459/459/459 460/460/460
f 462/462/462 461/461/461 460/460/460
f 465/465/465 464/464/464 463/463/463
f 466/466/466 465/465/465 463/463/463
f 466/466/466 463/463/463 467/467/467
f 468/468/468 466/466/466 467/467/467
f 468/468/468 467/467/467 469/469/469
f 470/470/470 468/468/468 469/469/469
f 470/470/470 469/469/469 471/471/471
f 474/474/474 473/473/473 472/472/472
f 473/473/473 475/475/475 472/472/472
f 473/473/473 476/476/476 475/475/475
f 476/476/476 477/477/477 475/475/475
f 476/476/476 478/478/478 477/477/477
f 478/478/478 479/479/479 477/477/477
f 482/482/482 481/481/481 480/480/480
f 481/481/481 483/483/483 480/480/480
f 481/481/481 484/484/484 483/483/483
f 484/484/484 485/485/485 483/483/483
f 488/488/488 487/487/487 486/486/486
f 487/487/487 489/489/489 486/486/486
f 487/487/487 490/490/490 489/489/489
f 493/493/493 492/492/492 491/491/491
f 492/492/492 494/494/494 491/491/491
f 491/491/491 494/494/494 495/495/495
f 494/494/494 496/496/496 495/495/495
f 495/495/495 496/496/496 497/497/497
f 496/496/496 498/498/498 497/497/497
f 497/497/497 498/498/498 499/499/499
f 498/498/498 500/500/500 499/499/499
f 499/499/499 500/500/500 501/501/501
f 500/500/500 502/502/502 501/501/501
f 501/501/501 502/502/502 503/503/503
f 502/502/502 504/504/504 503/503/503
f 503/503/503 504/504/504 505/505/505
f 504/504/504 506/506/506 505/505/505
f 505/505/505 506/506/506 507/507/507
f 506/506/506 508/508/508 507/507/507
f 507/507/507 508/508/508 509/509/509
f 508/508/508 510/510/510 509/509/509
f 509/509/509 510/510/510 511/511/511
f 510/510/510 512/512/512 511/511/511
f 515/515/515 514/514/514 513/513/513
f 516/516/516 515/515/515 513/513/513
f 517/517/517 515/515/515 516/516/516
f 518/518/518 517/517/517 516/516/516
f 519/519/519 517/517/517 518/518/518
f 520/520/520 519/519/519 518/518/518
f 521/521/521 519/519/519 520/520/520
f 522/522/522 521/521/521 520/520/520
f 523/523/523 521/521/521 522/522/522
f 524/524/524 523/523/523 522/522/522
f 525/525/525 523/523/523 524/524/524
f 526/526/526 525/525/525 524/524/524
f 527/527/527 525/525/525 526/526/526
f 528/528/528 527/527/527 526/526/526
f 529/529/529 527/527/527 528/528/528
f 530/530/530 529/529/529 528/528/528
f 531/531/531 529/529/529 530/530/530
f 532/532/532 531/531/531 530/530/530
f 533/533/533 531/531/531 532/532/532
f 534/534/534 533/533/533 532/532/532
f 537/537/537 536/536/536 535/535/535
f 538/538/538 537/537/537 535/535/535
f 539/539/539 537/537/537 538/538/538
f 540/540/540 539/539/539 538/538/538
f 541/541/541 539/539/539 540/540/540
f 542/542/542 541/541/541 540/540/540
f 545/545/545 544/544/544 543/543/543
f 546/546/546 545/545/545 543/543/543
f 547/547/547 545/545/545 546/546/546
f 548/548/548 547/547/547 546/546/546
f 551/551/551 550/550/550 549/549/549
f 552/552/552 551/551/551 549/549/549
f 555/555/555 554/554/554 553/553/553
f 554/554/554 556/556/556 553/553/553
f 554/554/554 557/557/557 556/556/556
f 557/557/557 558/558/558 556/556/556
f 557/557/557 559/559/559 558/558/558
f 559/559/559 560/560/560 558/558/558
f 563/563/563 562/562/562 561/561/561
f 564/564/564 563/563/563 561/561/561
f 567/567/567 566/566/566 565/565/565
f 568/568/568 567/567/567 565/565/565
f 569/569/569 567/567/567 568/568/568
f 570/570/570 569/569/569 568/568/568
f 571/571/571 569/569/569 570/570/570
f 572/572/572 571/571/571 570/570/570
f 573/573/573 571/571/571 572/572/572
f 574/574/574 573/573/573 572/572/572
f 575/575/575 573/573/573 574/574/574
f 576/576/576 575/575/575 574/574/574
f 579/579/579 578/578/578 577/577/577
f 578/578/578 580/580/580 577/577/577
f 577/577/577 580/580/580 581/581/581
f 580/580/580 582/582/582 581/581/581
f 581/581/581 582/582/582 583/583/583
f 582/582/582 584/584/584 583/583/583
f 583/583/583 584/584/584 585/585/585
f 584/584/584 586/586/586 585/585/585
f 585/585/585 586/586/586 587/587/587
f 586/586/586 588/588/588 587/587/587
