g Roof_Museum_Exterior_Main
v 24.1059208 10.0035839 0.384639531
v 24.1059208 9.02199173 5.58397436
v 17.8418407 9.02199173 5.58397579
v 17.8418407 10.0035839 0.384641975
v 24.1059208 10.1705837 0.384639531
v 17.8418407 10.1705837 0.384641975
v 17.8418407 10.1705856 -0.280151725
v 24.1059208 10.1705856 -0.280155391
v -5.42284536 10.1705837 0.384639531
v -10.8675814 10.1705837 0.384641975
v -10.8675814 10.1705856 -0.279260606
v -5.42284536 10.1705856 -0.280152947
v -5.42284536 10.0035839 0.384639531
v -5.42284536 9.02199173 5.58397436
v -10.8675814 9.02199173 5.58397579
v -10.8675814 10.0035839 0.384641975
v -10.8675814 9.76994133 -1.70752227
v -5.42284536 10.0035858 -0.280152947
v -10.8675814 10.0035858 -0.279260606
v -10.8917322 8.88825893 -6.25696087
v -5.44691277 9.04634285 -6.25695133
v 0.254005343 10.1705837 0.384640753
v -5.42284536 10.1705837 0.384639531
v -5.42284536 10.1705856 -0.280152947
v 0.254005343 10.1705856 -0.280156612
v 0.254005343 10.0035839 0.384640753
v 0.254005343 9.02199173 5.58397532
v -5.42284536 9.02199173 5.58397436
v -5.42284536 10.0035839 0.384639531
v 5.93732023 10.1705837 0.384643197
v 0.254005343 10.1705837 0.384640753
v 0.254005343 10.1705856 -0.280156612
v 5.93732023 10.1705856 -0.280150503
v 5.93732023 10.0035839 0.384643197
v 5.93732023 9.02199173 5.58397675
v 0.254005343 9.02199173 5.58397532
v 0.254005343 10.0035839 0.384640753
v 11.925807 10.1705837 0.384640753
v 5.93732023 10.1705837 0.384643197
v 5.93732023 10.1705856 -0.280150503
v 11.925807 10.1705856 -0.280154169
v 11.925807 10.0035839 0.384640753
v 11.925807 9.02199173 5.58397532
v 5.93732023 9.02199173 5.58397675
v 5.93732023 10.0035839 0.384643197
v 17.8418407 10.1705837 0.384641975
v 11.925807 10.1705837 0.384640753
v 11.925807 10.1705856 -0.280154169
v 17.8418407 10.1705856 -0.280151725
v 17.8418407 10.0035839 0.384641975
v 17.8418407 9.02199173 5.58397579
v 11.925807 9.02199173 5.58397532
v 11.925807 10.0035839 0.384640753
v -17.6172543 9.57256603 -1.67523468
v -17.6414051 8.69095898 -6.25695992
v -25.2590809 8.69095898 -6.25695992
v -25.2349319 9.57256603 -1.67523468
v -5.42284536 9.80358601 -0.263005733
v -5.44699097 8.84723854 -6.2569499
v -10.8917322 8.69095898 -6.25695992
v -10.8675814 9.57256603 -1.67523468
v -10.8675814 9.80358601 -0.263005733
v 24.1059208 9.8035841 0.36592859
v 24.1059208 9.80358601 -0.263005733
v 17.8418407 9.80358601 -0.263005733
v 17.8418407 9.8035841 0.36592859
v -5.42284536 9.8035841 0.36592859
v -5.42284536 9.80358601 -0.263005733
v -10.8675814 9.80358601 -0.263005733
v -10.8675814 9.8035841 0.36592859
v 24.1059208 9.80358601 -0.263005733
v 24.0817699 8.84731674 -6.2569499
v 17.8176918 8.84731674 -6.2569499
v 17.8418407 9.80358601 -0.263005733
v 0.254005343 9.80358601 -0.263005733
v 0.229859829 8.84729195 -6.2569499
v -5.44699097 8.84723854 -6.2569499
v -5.42284536 9.80358601 -0.263005733
v 0.254005343 9.8035841 0.36592859
v 0.254005343 9.80358601 -0.263005733
v -5.42284536 9.80358601 -0.263005733
v -5.42284536 9.8035841 0.36592859
v 5.93732023 9.80358601 -0.263005733
v 5.91316986 8.84731674 -6.2569499
v 0.229859829 8.84729195 -6.2569499
v 0.254005343 9.80358601 -0.263005733
v 5.93732023 9.8035841 0.36592859
v 5.93732023 9.80358601 -0.263005733
v 0.254005343 9.80358601 -0.263005733
v 0.254005343 9.8035841 0.36592859
v 11.925807 9.80358601 -0.263005733
v 11.9016562 8.84731674 -6.2569499
v 5.91316986 8.84731674 -6.2569499
v 5.93732023 9.80358601 -0.263005733
v 11.925807 9.8035841 0.36592859
v 11.925807 9.80358601 -0.263005733
v 5.93732023 9.80358601 -0.263005733
v 5.93732023 9.8035841 0.36592859
v 17.8418407 9.80358601 -0.263005733
v 17.8176918 8.84731674 -6.2569499
v 11.9016562 8.84731674 -6.2569499
v 11.925807 9.80358601 -0.263005733
v 17.8418407 9.8035841 0.36592859
v 17.8418407 9.80358601 -0.263005733
v 11.925807 9.80358601 -0.263005733
v 11.925807 9.8035841 0.36592859
v -10.8675814 9.57256603 -1.67523468
v -10.8917322 8.69095898 -6.25695992
v -17.6414051 8.69095898 -6.25695992
v -17.6172543 9.57256603 -1.67523468
v -25.2349319 9.57256603 -1.67523468
v -25.2349319 9.76961613 -1.70944607
v -17.6172543 9.76961613 -1.70944607
v -17.6172543 9.57256603 -1.67523468
v -17.6172543 6.8508029 -17.3522148
v -17.6172543 7.04785395 -17.3864288
v -25.2349319 7.04785395 -17.3864288
v -25.2349319 6.8508029 -17.3522148
v -5.42283058 6.85088873 -17.3522301
v -5.42258644 7.04811764 -17.386385
v -10.8675766 7.0479393 -17.3864441
v -10.8675814 6.8508029 -17.3522148
v 17.8418407 6.84501934 16.0369797
v 17.8418407 7.04154778 16.0740833
v 24.1059208 7.04154778 16.0740833
v 24.1059208 6.84501934 16.0369797
v 24.1059208 9.8035841 0.36592859
v 24.1059208 10.0035839 0.384639531
v 24.1059208 10.0035858 -0.280155391
v 24.1059208 9.80358601 -0.263005733
v -10.8675814 6.84501934 16.0369797
v -10.8675814 7.04154778 16.0740833
v -5.42284536 7.04154778 16.0740833
v -5.42284536 6.84501934 16.0369797
v -10.8675814 10.0035839 0.384641975
v -10.8675814 9.02199173 5.58397579
v -10.8675814 8.82314205 5.55916834
v -10.8675814 9.8035841 0.36592859
v -10.8675814 9.80358601 -0.263005733
v -10.8675814 10.0035858 -0.279260606
v -10.8675814 9.57256603 -1.67523468
v -10.8675814 9.76994133 -1.70752227
v 24.1059208 10.0035858 -0.280155391
v 24.0817699 9.04637146 -6.25695133
v 24.0817699 8.84731674 -6.2569499
v 24.1059208 9.80358601 -0.263005733
v 24.1059208 6.85113001 -17.3522739
v 24.1059208 7.04821014 -17.386322
v 17.8418407 7.04821014 -17.386322
v 17.8418407 6.85113001 -17.3522739
v 0.254015088 6.85105228 -17.3522587
v 0.254010201 7.04821014 -17.386322
v -5.42258644 7.04811764 -17.386385
v -5.42283058 6.85088873 -17.3522301
v -5.42284536 6.84501934 16.0369797
v -5.42284536 7.04154778 16.0740833
v 0.254005343 7.04154778 16.0740833
v 0.254005343 6.84501934 16.0369797
v 5.93732548 6.85113001 -17.3522739
v 5.93732548 7.04821014 -17.386322
v 0.254010201 7.04821014 -17.386322
v 0.254015088 6.85105228 -17.3522587
v 0.254005343 6.84501934 16.0369797
v 0.254005343 7.04154778 16.0740833
v 5.93732023 7.04154778 16.0740833
v 5.93732023 6.84501934 16.0369797
v 11.925807 6.85113001 -17.3522739
v 11.925807 7.04821014 -17.386322
v 5.93732548 7.04821014 -17.386322
v 5.93732548 6.85113001 -17.3522739
v 5.93732023 6.84501934 16.0369797
v 5.93732023 7.04154778 16.0740833
v 11.925807 7.04154778 16.0740833
v 11.925807 6.84501934 16.0369797
v 17.8418407 6.85113001 -17.3522739
v 17.8418407 7.04821014 -17.386322
v 11.925807 7.04821014 -17.386322
v 11.925807 6.85113001 -17.3522739
v 11.925807 6.84501934 16.0369797
v 11.925807 7.04154778 16.0740833
v 17.8418407 7.04154778 16.0740833
v 17.8418407 6.84501934 16.0369797
v -17.6172543 9.57256603 -1.67523468
v -17.6172543 9.76961613 -1.70944607
v -10.8675814 9.76994133 -1.70752227
v -10.8675814 9.57256603 -1.67523468
v -10.8675814 6.8508029 -17.3522148
v -10.8675766 7.0479393 -17.3864441
v -17.6172543 7.04785395 -17.3864288
v -17.6172543 6.8508029 -17.3522148
v -25.2349319 9.76961613 -1.70944607
v -25.2349319 9.57256603 -1.67523468
v -25.2590809 8.69095898 -6.25695992
v -25.2590809 8.88801289 -6.25696087
v -17.6172543 9.76961613 -1.70944607
v -25.2349319 9.76961613 -1.70944607
v -25.2590809 8.88801289 -6.25696087
v -17.6414051 8.88801289 -6.25696087
v 24.1059208 10.0035858 -0.280155391
v 17.8418407 10.0035858 -0.280151725
v 17.8176918 9.04637146 -6.25695133
v 24.0817699 9.04637146 -6.25695133
v 0.254005343 10.0035858 -0.280156612
v -5.42284536 10.0035858 -0.280152947
v -5.44691277 9.04634285 -6.25695133
v 0.229854941 9.04637146 -6.25695133
v 5.93732023 10.0035858 -0.280150503
v 0.254005343 10.0035858 -0.280156612
v 0.229854941 9.04637146 -6.25695133
v 5.91316986 9.04637146 -6.25695133
v 11.925807 10.0035858 -0.280154169
v 5.93732023 10.0035858 -0.280150503
v 5.91316986 9.04637146 -6.25695133
v 11.9016562 9.04637146 -6.25695133
v 17.8418407 10.0035858 -0.280151725
v 11.925807 10.0035858 -0.280154169
v 11.9016562 9.04637146 -6.25695133
v 17.8176918 9.04637146 -6.25695133
v -10.8675814 9.76994133 -1.70752227
v -17.6172543 9.76961613 -1.70944607
v -17.6414051 8.88801289 -6.25696087
v -10.8917322 8.88825893 -6.25696087
v 24.1059208 9.8035841 0.36592859
v 17.8418407 9.8035841 0.36592859
v 17.8418407 8.82314205 5.55916834
v 24.1059208 8.82314205 5.55916834
v 24.1059208 10.0035839 0.384639531
v 24.1059208 9.8035841 0.36592859
v 24.1059208 8.82314205 5.55916834
v 24.1059208 9.02199173 5.58397436
v -5.42284536 9.8035841 0.36592859
v -10.8675814 9.8035841 0.36592859
v -10.8675814 8.82314205 5.55916834
v -5.42284536 8.82314205 5.55916834
v 0.254005343 9.8035841 0.36592859
v -5.42284536 9.8035841 0.36592859
v -5.42284536 8.82314205 5.55916834
v 0.254005343 8.82314205 5.55916834
v 5.93732023 9.8035841 0.36592859
v 0.254005343 9.8035841 0.36592859
v 0.254005343 8.82314205 5.55916834
v 5.93732023 8.82314205 5.55916834
v 11.925807 9.8035841 0.36592859
v 5.93732023 9.8035841 0.36592859
v 5.93732023 8.82314205 5.55916834
v 11.925807 8.82314205 5.55916834
v 17.8418407 9.8035841 0.36592859
v 11.925807 9.8035841 0.36592859
v 11.925807 8.82314205 5.55916834
v 17.8418407 8.82314205 5.55916834
v 24.1059208 9.02199173 5.58397436
v 24.1059208 7.96869373 11.1631308
v 17.8418407 7.96869373 11.1631317
v 17.8418407 9.02199173 5.58397579
v 24.1059208 8.82314205 5.55916834
v 24.1059208 7.77107906 11.1317844
v 24.1059208 7.96869373 11.1631308
v 24.1059208 9.02199173 5.58397436
v 17.8418407 8.82314205 5.55916834
v 17.8418407 7.77107906 11.1317844
v 24.1059208 7.77107906 11.1317844
v 24.1059208 8.82314205 5.55916834
v 11.925807 8.82314205 5.55916834
v 11.925807 7.77107906 11.1317844
v 17.8418407 7.77107906 11.1317844
v 17.8418407 8.82314205 5.55916834
v 5.93732023 8.82314205 5.55916834
v 5.93732023 7.77107906 11.1317844
v 11.925807 7.77107906 11.1317844
v 11.925807 8.82314205 5.55916834
v 0.254005343 8.82314205 5.55916834
v 0.254005343 7.77107906 11.1317844
v 5.93732023 7.77107906 11.1317844
v 5.93732023 8.82314205 5.55916834
v -5.42284536 8.82314205 5.55916834
v -5.42284536 7.77107906 11.1317844
v 0.254005343 7.77107906 11.1317844
v 0.254005343 8.82314205 5.55916834
v -10.8675814 8.82314205 5.55916834
v -10.8675814 7.77107906 11.1317844
v -5.42284536 7.77107906 11.1317844
v -5.42284536 8.82314205 5.55916834
v -10.8675814 9.02199173 5.58397579
v -10.8675814 7.96869373 11.1631317
v -10.8675814 7.77107906 11.1317844
v -10.8675814 8.82314205 5.55916834
v -5.42284536 9.02199173 5.58397436
v -5.42284536 7.96869373 11.1631308
v -10.8675814 7.96869373 11.1631317
v -10.8675814 9.02199173 5.58397579
v 0.254005343 9.02199173 5.58397532
v 0.254005343 7.96869373 11.1631317
v -5.42284536 7.96869373 11.1631308
v -5.42284536 9.02199173 5.58397436
v 5.93732023 9.02199173 5.58397675
v 5.93732023 7.96869373 11.1631317
v 0.254005343 7.96869373 11.1631317
v 0.254005343 9.02199173 5.58397532
v 11.925807 9.02199173 5.58397532
v 11.925807 7.96869373 11.1631317
v 5.93732023 7.96869373 11.1631317
v 5.93732023 9.02199173 5.58397675
v 17.8418407 9.02199173 5.58397579
v 17.8418407 7.96869373 11.1631317
v 11.925807 7.96869373 11.1631317
v 11.925807 9.02199173 5.58397532
v 24.1059208 7.96869373 11.1631308
v 24.1059208 7.04154778 16.0740833
v 17.8418407 7.04154778 16.0740833
v 17.8418407 7.96869373 11.1631317
v 24.1059208 7.77107906 11.1317844
v 24.1059208 6.84501934 16.0369797
v 24.1059208 7.04154778 16.0740833
v 24.1059208 7.96869373 11.1631308
v 17.8418407 7.77107906 11.1317844
v 17.8418407 6.84501934 16.0369797
v 24.1059208 6.84501934 16.0369797
v 24.1059208 7.77107906 11.1317844
v 11.925807 7.77107906 11.1317844
v 11.925807 6.84501934 16.0369797
v 17.8418407 6.84501934 16.0369797
v 17.8418407 7.77107906 11.1317844
v 5.93732023 7.77107906 11.1317844
v 5.93732023 6.84501934 16.0369797
v 11.925807 6.84501934 16.0369797
v 11.925807 7.77107906 11.1317844
v 0.254005343 7.77107906 11.1317844
v 0.254005343 6.84501934 16.0369797
v 5.93732023 6.84501934 16.0369797
v 5.93732023 7.77107906 11.1317844
v -5.42284536 7.77107906 11.1317844
v -5.42284536 6.84501934 16.0369797
v 0.254005343 6.84501934 16.0369797
v 0.254005343 7.77107906 11.1317844
v -10.8675814 7.77107906 11.1317844
v -10.8675814 6.84501934 16.0369797
v -5.42284536 6.84501934 16.0369797
v -5.42284536 7.77107906 11.1317844
v -10.8675814 7.96869373 11.1631317
v -10.8675814 7.04154778 16.0740833
v -10.8675814 6.84501934 16.0369797
v -10.8675814 7.77107906 11.1317844
v -5.42284536 7.96869373 11.1631308
v -5.42284536 7.04154778 16.0740833
v -10.8675814 7.04154778 16.0740833
v -10.8675814 7.96869373 11.1631317
v 0.254005343 7.96869373 11.1631317
v 0.254005343 7.04154778 16.0740833
v -5.42284536 7.04154778 16.0740833
v -5.42284536 7.96869373 11.1631308
v 5.93732023 7.96869373 11.1631317
v 5.93732023 7.04154778 16.0740833
v 0.254005343 7.04154778 16.0740833
v 0.254005343 7.96869373 11.1631317
v 11.925807 7.96869373 11.1631317
v 11.925807 7.04154778 16.0740833
v 5.93732023 7.04154778 16.0740833
v 5.93732023 7.96869373 11.1631317
v 17.8418407 7.96869373 11.1631317
v 17.8418407 7.04154778 16.0740833
v 11.925807 7.04154778 16.0740833
v 11.925807 7.96869373 11.1631317
v 11.9016562 9.04637146 -6.25695133
v 11.925807 8.04471207 -12.0908184
v 17.8418407 8.04471207 -12.0908184
v 17.8176918 9.04637146 -6.25695133
v 5.91316986 9.04637146 -6.25695133
v 5.93732548 8.04471207 -12.0908184
v 11.925807 8.04471207 -12.0908184
v 11.9016562 9.04637146 -6.25695133
v 0.229854941 9.04637146 -6.25695133
v 0.254010201 8.04471207 -12.0908184
v 5.93732548 8.04471207 -12.0908184
v 5.91316986 9.04637146 -6.25695133
v -5.44691277 9.04634285 -6.25695133
v -5.42266941 8.04465103 -12.0908527
v 0.254010201 8.04471207 -12.0908184
v 0.229854941 9.04637146 -6.25695133
v -10.8917322 8.88825893 -6.25696087
v -10.8675814 7.96912575 -12.0908871
v -5.42266941 8.04465103 -12.0908527
v -5.44691277 9.04634285 -6.25695133
v -17.6414051 8.88801289 -6.25696087
v -17.6172543 7.96896219 -12.0908823
v -10.8675814 7.96912575 -12.0908871
v -10.8917322 8.88825893 -6.25696087
v -25.2590809 8.88801289 -6.25696087
v -25.2349319 7.96896219 -12.0908823
v -17.6172543 7.96896219 -12.0908823
v -17.6414051 8.88801289 -6.25696087
v -25.2590809 8.69095898 -6.25695992
v -25.2349319 7.77191162 -12.0729914
v -25.2349319 7.96896219 -12.0908823
v -25.2590809 8.88801289 -6.25696087
v -17.6414051 8.69095898 -6.25695992
v -17.6172543 7.77191162 -12.0729914
v -25.2349319 7.77191162 -12.0729914
v -25.2590809 8.69095898 -6.25695992
v -10.8917322 8.69095898 -6.25695992
v -10.8675814 7.77191162 -12.0729914
v -17.6172543 7.77191162 -12.0729914
v -17.6414051 8.69095898 -6.25695992
v -5.44699097 8.84723854 -6.2569499
v -5.42283535 7.84652567 -12.0729961
v -10.8675814 7.77191162 -12.0729914
v -10.8917322 8.69095898 -6.25695992
v 0.229859829 8.84729195 -6.2569499
v 0.254010201 7.8466382 -12.0730114
v -5.42283535 7.84652567 -12.0729961
v -5.44699097 8.84723854 -6.2569499
v 5.91316986 8.84731674 -6.2569499
v 5.93732548 7.84668922 -12.0730209
v 0.254010201 7.8466382 -12.0730114
v 0.229859829 8.84729195 -6.2569499
v 11.9016562 8.84731674 -6.2569499
v 11.925807 7.84668922 -12.0730209
v 5.93732548 7.84668922 -12.0730209
v 5.91316986 8.84731674 -6.2569499
v 17.8176918 8.84731674 -6.2569499
v 17.8418407 7.84668922 -12.0730209
v 11.925807 7.84668922 -12.0730209
v 11.9016562 8.84731674 -6.2569499
v 24.0817699 8.84731674 -6.2569499
v 24.1059208 7.84668922 -12.0730209
v 17.8418407 7.84668922 -12.0730209
v 17.8176918 8.84731674 -6.2569499
v 24.0817699 9.04637146 -6.25695133
v 24.1059208 8.04471207 -12.0908184
v 24.1059208 7.84668922 -12.0730209
v 24.0817699 8.84731674 -6.2569499
v 17.8418407 8.04471207 -12.0908184
v 24.1059208 8.04471207 -12.0908184
v 24.0817699 9.04637146 -6.25695133
v 17.8176918 9.04637146 -6.25695133
v -25.2349319 7.96896219 -12.0908823
v -25.2349319 7.04785395 -17.3864288
v -17.6172543 7.04785395 -17.3864288
v -17.6172543 7.96896219 -12.0908823
v -25.2349319 7.77191162 -12.0729914
v -25.2349319 6.8508029 -17.3522148
v -25.2349319 7.04785395 -17.3864288
v -25.2349319 7.96896219 -12.0908823
v -17.6172543 7.77191162 -12.0729914
v -17.6172543 6.8508029 -17.3522148
v -25.2349319 6.8508029 -17.3522148
v -25.2349319 7.77191162 -12.0729914
v -10.8675814 7.77191162 -12.0729914
v -10.8675814 6.8508029 -17.3522148
v -17.6172543 6.8508029 -17.3522148
v -17.6172543 7.77191162 -12.0729914
v -5.42283535 7.84652567 -12.0729961
v -5.42283058 6.85088873 -17.3522301
v -10.8675814 6.8508029 -17.3522148
v -10.8675814 7.77191162 -12.0729914
v 0.254010201 7.8466382 -12.0730114
v 0.254015088 6.85105228 -17.3522587
v -5.42283058 6.85088873 -17.3522301
v -5.42283535 7.84652567 -12.0729961
v 5.93732548 7.84668922 -12.0730209
v 5.93732548 6.85113001 -17.3522739
v 0.254015088 6.85105228 -17.3522587
v 0.254010201 7.8466382 -12.0730114
v 11.925807 7.84668922 -12.0730209
v 11.925807 6.85113001 -17.3522739
v 5.93732548 6.85113001 -17.3522739
v 5.93732548 7.84668922 -12.0730209
v 17.8418407 7.84668922 -12.0730209
v 17.8418407 6.85113001 -17.3522739
v 11.925807 6.85113001 -17.3522739
v 11.925807 7.84668922 -12.0730209
v 24.1059208 7.84668922 -12.0730209
v 24.1059208 6.85113001 -17.3522739
v 17.8418407 6.85113001 -17.3522739
v 17.8418407 7.84668922 -12.0730209
v 24.1059208 8.04471207 -12.0908184
v 24.1059208 7.04821014 -17.386322
v 24.1059208 6.85113001 -17.3522739
v 24.1059208 7.84668922 -12.0730209
v 17.8418407 7.04821014 -17.386322
v 24.1059208 7.04821014 -17.386322
v 24.1059208 8.04471207 -12.0908184
v 17.8418407 8.04471207 -12.0908184
v 11.925807 8.04471207 -12.0908184
v 11.925807 7.04821014 -17.386322
v 17.8418407 7.04821014 -17.386322
v 17.8418407 8.04471207 -12.0908184
v 5.93732548 8.04471207 -12.0908184
v 5.93732548 7.04821014 -17.386322
v 11.925807 7.04821014 -17.386322
v 11.925807 8.04471207 -12.0908184
v 0.254010201 8.04471207 -12.0908184
v 0.254010201 7.04821014 -17.386322
v 5.93732548 7.04821014 -17.386322
v 5.93732548 8.04471207 -12.0908184
v -5.42266941 8.04465103 -12.0908527
v -5.42258644 7.04811764 -17.386385
v 0.254010201 7.04821014 -17.386322
v 0.254010201 8.04471207 -12.0908184
v -10.8675814 7.96912575 -12.0908871
v -10.8675766 7.0479393 -17.3864441
v -5.42258644 7.04811764 -17.386385
v -5.42266941 8.04465103 -12.0908527
v -17.6172543 7.96896219 -12.0908823
v -17.6172543 7.04785395 -17.3864288
v -10.8675766 7.0479393 -17.3864441
v -10.8675814 7.96912575 -12.0908871
v 24.1059208 10.0035839 0.384639531
v 24.1059208 10.1705837 0.384639531
v 24.1059208 10.1705856 -0.280155391
v 24.1059208 10.0035858 -0.280155391
v 24.1059208 10.0035858 -0.280155391
v 24.1059208 10.1705856 -0.280155391
v 17.8418407 10.1705856 -0.280151725
v 17.8418407 10.0035858 -0.280151725
v 11.925807 10.1705856 -0.280154169
v 11.925807 10.0035858 -0.280154169
v 5.93732023 10.1705856 -0.280150503
v 5.93732023 10.0035858 -0.280150503
v 0.254005343 10.1705856 -0.280156612
v 0.254005343 10.0035858 -0.280156612
v -5.42284536 10.1705856 -0.280152947
v -5.42284536 10.0035858 -0.280152947
v -10.8675814 10.1705856 -0.279260606
v -10.8675814 10.0035858 -0.279260606
v 17.8418407 10.0035839 0.384641975
v 24.1059208 10.1705837 0.384639531
v 24.1059208 10.0035839 0.384639531
v 17.8418407 10.1705837 0.384641975
v 11.925807 10.0035839 0.384640753
v 11.925807 10.1705837 0.384640753
v 5.93732023 10.0035839 0.384643197
v 5.93732023 10.1705837 0.384643197
v 0.254005343 10.0035839 0.384640753
v 0.254005343 10.1705837 0.384640753
v -5.42284536 10.0035839 0.384639531
v -5.42284536 10.1705837 0.384639531
v -10.8675814 10.0035839 0.384641975
v -10.8675814 10.1705837 0.384641975
v -10.8675814 10.0035858 -0.279260606
v -10.8675814 10.1705856 -0.279260606
v -10.8675814 10.1705837 0.384641975
v -10.8675814 10.0035839 0.384641975
vt 0.328125 0.984863281
vt 0.328125 0.698730469
vt 0.0144500732 0.698730469
vt 0.0144500732 0.984863281
vt 0.70703125 0.643066406
vt 0.70703125 0.889160156
vt 0.741210938 0.889160156
vt 0.741210938 0.643066406
vt 0.70703125 0.889160156
vt 0.70703125 0.643066406
vt 0.741210938 0.643066406
vt 0.741210938 0.889160156
vt 0.328125 0.984863281
vt 0.328125 0.698730469
vt 0.0144500732 0.698730469
vt 0.0144500732 0.984863281
vt 0.0144500732 0.915039062
vt 0.328125 0.984863281
vt 0.0153427124 0.984375
vt 0.0144500732 0.698730469
vt 0.328125 0.698730469
vt 0.70703125 0.643066406
vt 0.70703125 0.889160156
vt 0.741210938 0.889160156
vt 0.741210938 0.643066406
vt 0.328125 0.984863281
vt 0.328125 0.698730469
vt 0.0144500732 0.698730469
vt 0.0144500732 0.984863281
vt 0.70703125 0.889160156
vt 0.70703125 0.643066406
vt 0.741210938 0.643066406
vt 0.741210938 0.889160156
vt 0.328125 0.984863281
vt 0.328125 0.698730469
vt 0.0144500732 0.698730469
vt 0.0144500732 0.984863281
vt 0.70703125 0.643066406
vt 0.70703125 0.889160156
vt 0.741210938 0.889160156
vt 0.741210938 0.643066406
vt 0.328125 0.984863281
vt 0.328125 0.698730469
vt 0.0144500732 0.698730469
vt 0.0144500732 0.984863281
vt 0.70703125 0.889160156
vt 0.70703125 0.643066406
vt 0.741210938 0.643066406
vt 0.741210938 0.889160156
vt 0.328125 0.984863281
vt 0.328125 0.698730469
vt 0.0144500732 0.698730469
vt 0.0144500732 0.984863281
vt 0.328125 0.916015625
vt 0.328125 0.698730469
vt 0.0144500732 0.698730469
vt 0.0144500732 0.916015625
vt 0.328125 0.984863281
vt 0.328125 0.698730469
vt 0.0144500732 0.698730469
vt 0.0144500732 0.916015625
vt 0.0153427124 0.984375
vt 0.70703125 0.643066406
vt 0.741210938 0.643066406
vt 0.741210938 0.889160156
vt 0.70703125 0.889160156
vt 0.70703125 0.889160156
vt 0.741210938 0.889160156
vt 0.741210938 0.643066406
vt 0.70703125 0.643066406
vt 0.328125 0.984863281
vt 0.328125 0.698730469
vt 0.0144500732 0.698730469
vt 0.0144500732 0.984863281
vt 0.328125 0.984863281
vt 0.328125 0.698730469
vt 0.0144500732 0.698730469
vt 0.0144500732 0.984863281
vt 0.70703125 0.643066406
vt 0.741210938 0.643066406
vt 0.741210938 0.889160156
vt 0.70703125 0.889160156
vt 0.328125 0.984863281
vt 0.328125 0.698730469
vt 0.0144500732 0.698730469
vt 0.0144500732 0.984863281
vt 0.70703125 0.889160156
vt 0.741210938 0.889160156
vt 0.741210938 0.643066406
vt 0.70703125 0.643066406
vt 0.328125 0.984863281
vt 0.328125 0.698730469
vt 0.0144500732 0.698730469
vt 0.0144500732 0.984863281
vt 0.70703125 0.643066406
vt 0.741210938 0.643066406
vt 0.741210938 0.889160156
vt 0.70703125 0.889160156
vt 0.328125 0.984863281
vt 0.328125 0.698730469
vt 0.0144500732 0.698730469
vt 0.0144500732 0.984863281
vt 0.70703125 0.889160156
vt 0.741210938 0.889160156
vt 0.741210938 0.643066406
vt 0.70703125 0.643066406
vt 0.328125 0.916015625
vt 0.328125 0.698730469
vt 0.0144500732 0.698730469
vt 0.0144500732 0.916015625
vt 0.316650391 0.983886719
vt 0.327880859 0.983886719
vt 0.327880859 0.699707031
vt 0.316650391 0.699707031
vt 0.0154495239 0.712890625
vt 0.0154495239 0.725097656
vt 0.326171875 0.725097656
vt 0.326171875 0.712890625
vt 0.0154495239 0.712890625
vt 0.0154495239 0.725097656
vt 0.326171875 0.725097656
vt 0.326171875 0.712890625
vt 0.326171875 0.725097656
vt 0.326171875 0.712890625
vt 0.0154495239 0.712890625
vt 0.0154495239 0.725097656
vt 0.706054688 0.71875
vt 0.705078125 0.73046875
vt 0.7421875 0.73046875
vt 0.741210938 0.71875
vt 0.326171875 0.725097656
vt 0.326171875 0.712890625
vt 0.0154495239 0.712890625
vt 0.0154495239 0.725097656
vt 0.327880859 0.983886719
vt 0.327880859 0.699707031
vt 0.316650391 0.699707031
vt 0.316650391 0.983886719
vt 0.316650391 0.983886719
vt 0.327880859 0.983886719
vt 0.316650391 0.983886719
vt 0.327880859 0.983886719
vt 0.327880859 0.983886719
vt 0.327880859 0.699707031
vt 0.316650391 0.699707031
vt 0.316650391 0.983886719
vt 0.0154495239 0.712890625
vt 0.0154495239 0.725097656
vt 0.326171875 0.725097656
vt 0.326171875 0.712890625
vt 0.0154495239 0.712890625
vt 0.0154495239 0.725097656
vt 0.326171875 0.725097656
vt 0.326171875 0.712890625
vt 0.326171875 0.725097656
vt 0.326171875 0.712890625
vt 0.0154495239 0.712890625
vt 0.0154495239 0.725097656
vt 0.0154495239 0.712890625
vt 0.0154495239 0.725097656
vt 0.326171875 0.725097656
vt 0.326171875 0.712890625
vt 0.326171875 0.725097656
vt 0.326171875 0.712890625
vt 0.0154495239 0.712890625
vt 0.0154495239 0.725097656
vt 0.0154495239 0.712890625
vt 0.0154495239 0.725097656
vt 0.326171875 0.725097656
vt 0.326171875 0.712890625
vt 0.326171875 0.725097656
vt 0.326171875 0.712890625
vt 0.0154495239 0.712890625
vt 0.0154495239 0.725097656
vt 0.0154495239 0.712890625
vt 0.0154495239 0.725097656
vt 0.326171875 0.725097656
vt 0.326171875 0.712890625
vt 0.326171875 0.725097656
vt 0.326171875 0.712890625
vt 0.0154495239 0.712890625
vt 0.0154495239 0.725097656
vt 0.316650391 0.983886719
vt 0.327880859 0.983886719
vt 0.327880859 0.699707031
vt 0.316650391 0.699707031
vt 0.0154495239 0.712890625
vt 0.0154495239 0.725097656
vt 0.326171875 0.725097656
vt 0.326171875 0.712890625
vt 0.327880859 0.699707031
vt 0.316650391 0.699707031
vt 0.316650391 0.983886719
vt 0.327880859 0.983886719
vt 0.328125 0.914550781
vt 0.0144500732 0.914550781
vt 0.0144500732 0.698730469
vt 0.328125 0.698730469
vt 0.328125 0.984863281
vt 0.0144500732 0.984863281
vt 0.0144500732 0.698730469
vt 0.328125 0.698730469
vt 0.328125 0.984863281
vt 0.0144500732 0.984863281
vt 0.0144500732 0.698730469
vt 0.328125 0.698730469
vt 0.328125 0.984863281
vt 0.0144500732 0.984863281
vt 0.0144500732 0.698730469
vt 0.328125 0.698730469
vt 0.328125 0.984863281
vt 0.0144500732 0.984863281
vt 0.0144500732 0.698730469
vt 0.328125 0.698730469
vt 0.328125 0.984863281
vt 0.0144500732 0.984863281
vt 0.0144500732 0.698730469
vt 0.328125 0.698730469
vt 0.328125 0.915039062
vt 0.0144500732 0.914550781
vt 0.0144500732 0.698730469
vt 0.328125 0.698730469
vt 0.328125 0.984863281
vt 0.0144500732 0.984863281
vt 0.0144500732 0.698730469
vt 0.328125 0.698730469
vt 0.327880859 0.699707031
vt 0.316650391 0.699707031
vt 0.316650391 0.983886719
vt 0.327880859 0.983886719
vt 0.328125 0.984863281
vt 0.0144500732 0.984863281
vt 0.0144500732 0.698730469
vt 0.328125 0.698730469
vt 0.328125 0.984863281
vt 0.0144500732 0.984863281
vt 0.0144500732 0.698730469
vt 0.328125 0.698730469
vt 0.328125 0.984863281
vt 0.0144500732 0.984863281
vt 0.0144500732 0.698730469
vt 0.328125 0.698730469
vt 0.328125 0.984863281
vt 0.0144500732 0.984863281
vt 0.0144500732 0.698730469
vt 0.328125 0.698730469
vt 0.328125 0.984863281
vt 0.0144500732 0.984863281
vt 0.0144500732 0.698730469
vt 0.328125 0.698730469
vt 0.328125 0.984863281
vt 0.328125 0.698730469
vt 0.0144500732 0.698730469
vt 0.0144500732 0.984863281
vt 0.316650391 0.699707031
vt 0.316650391 0.983886719
vt 0.327880859 0.983886719
vt 0.327880859 0.699707031
vt 0.0144500732 0.984863281
vt 0.0144500732 0.698730469
vt 0.328125 0.698730469
vt 0.328125 0.984863281
vt 0.0144500732 0.984863281
vt 0.0144500732 0.698730469
vt 0.328125 0.698730469
vt 0.328125 0.984863281
vt 0.0144500732 0.984863281
vt 0.0144500732 0.698730469
vt 0.328125 0.698730469
vt 0.328125 0.984863281
vt 0.0144500732 0.984863281
vt 0.0144500732 0.698730469
vt 0.328125 0.698730469
vt 0.328125 0.984863281
vt 0.0144500732 0.984863281
vt 0.0144500732 0.698730469
vt 0.328125 0.698730469
vt 0.328125 0.984863281
vt 0.0144500732 0.984863281
vt 0.0144500732 0.698730469
vt 0.328125 0.698730469
vt 0.328125 0.984863281
vt 0.327880859 0.983886719
vt 0.327880859 0.699707031
vt 0.316650391 0.699707031
vt 0.316650391 0.983886719
vt 0.328125 0.984863281
vt 0.328125 0.698730469
vt 0.0144500732 0.698730469
vt 0.0144500732 0.984863281
vt 0.328125 0.984863281
vt 0.328125 0.698730469
vt 0.0144500732 0.698730469
vt 0.0144500732 0.984863281
vt 0.328125 0.984863281
vt 0.328125 0.698730469
vt 0.0144500732 0.698730469
vt 0.0144500732 0.984863281
vt 0.328125 0.984863281
vt 0.328125 0.698730469
vt 0.0144500732 0.698730469
vt 0.0144500732 0.984863281
vt 0.328125 0.984863281
vt 0.328125 0.698730469
vt 0.0144500732 0.698730469
vt 0.0144500732 0.984863281
vt 0.328125 0.984863281
vt 0.328125 0.698730469
vt 0.0144500732 0.698730469
vt 0.0144500732 0.984863281
vt 0.316650391 0.699707031
vt 0.316650391 0.983886719
vt 0.327880859 0.983886719
vt 0.327880859 0.699707031
vt 0.0144500732 0.984863281
vt 0.0144500732 0.698730469
vt 0.328125 0.698730469
vt 0.328125 0.984863281
vt 0.0144500732 0.984863281
vt 0.0144500732 0.698730469
vt 0.328125 0.698730469
vt 0.328125 0.984863281
vt 0.0144500732 0.984863281
vt 0.0144500732 0.698730469
vt 0.328125 0.698730469
vt 0.328125 0.984863281
vt 0.0144500732 0.984863281
vt 0.0144500732 0.698730469
vt 0.328125 0.698730469
vt 0.328125 0.984863281
vt 0.0144500732 0.984863281
vt 0.0144500732 0.698730469
vt 0.328125 0.698730469
vt 0.328125 0.984863281
vt 0.0144500732 0.984863281
vt 0.0144500732 0.698730469
vt 0.328125 0.698730469
vt 0.328125 0.984863281
vt 0.327880859 0.983886719
vt 0.327880859 0.699707031
vt 0.316650391 0.699707031
vt 0.316650391 0.983886719
vt 0.328125 0.984863281
vt 0.328125 0.698730469
vt 0.0144500732 0.698730469
vt 0.0144500732 0.984863281
vt 0.328125 0.984863281
vt 0.328125 0.698730469
vt 0.0144500732 0.698730469
vt 0.0144500732 0.984863281
vt 0.328125 0.984863281
vt 0.328125 0.698730469
vt 0.0144500732 0.698730469
vt 0.0144500732 0.984863281
vt 0.328125 0.984863281
vt 0.328125 0.698730469
vt 0.0144500732 0.698730469
vt 0.0144500732 0.984863281
vt 0.328125 0.984863281
vt 0.328125 0.698730469
vt 0.0144500732 0.698730469
vt 0.0144500732 0.984863281
vt 0.0144500732 0.984863281
vt 0.0144500732 0.698730469
vt 0.328125 0.698730469
vt 0.328125 0.984863281
vt 0.0144500732 0.984863281
vt 0.0144500732 0.698730469
vt 0.328125 0.698730469
vt 0.328125 0.984863281
vt 0.0144500732 0.984863281
vt 0.0144500732 0.698730469
vt 0.328125 0.698730469
vt 0.328125 0.984863281
vt 0.0144500732 0.984863281
vt 0.0144500732 0.698730469
vt 0.328125 0.698730469
vt 0.328125 0.984863281
vt 0.0144500732 0.984863281
vt 0.0144500732 0.698730469
vt 0.328125 0.698730469
vt 0.328125 0.984863281
vt 0.0144500732 0.984863281
vt 0.0144500732 0.698730469
vt 0.328125 0.698730469
vt 0.328125 0.984863281
vt 0.0144500732 0.984863281
vt 0.0144500732 0.698730469
vt 0.328125 0.698730469
vt 0.328125 0.984863281
vt 0.316650391 0.699707031
vt 0.316650391 0.983886719
vt 0.327880859 0.983886719
vt 0.327880859 0.699707031
vt 0.328125 0.984863281
vt 0.328125 0.698730469
vt 0.0144500732 0.698730469
vt 0.0144500732 0.984863281
vt 0.328125 0.984863281
vt 0.328125 0.698730469
vt 0.0144500732 0.698730469
vt 0.0144500732 0.984863281
vt 0.328125 0.984863281
vt 0.328125 0.698730469
vt 0.0144500732 0.698730469
vt 0.0144500732 0.984863281
vt 0.328125 0.984863281
vt 0.328125 0.698730469
vt 0.0144500732 0.698730469
vt 0.0144500732 0.984863281
vt 0.328125 0.984863281
vt 0.328125 0.698730469
vt 0.0144500732 0.698730469
vt 0.0144500732 0.984863281
vt 0.328125 0.984863281
vt 0.328125 0.698730469
vt 0.0144500732 0.698730469
vt 0.0144500732 0.984863281
vt 0.328125 0.984863281
vt 0.328125 0.698730469
vt 0.0144500732 0.698730469
vt 0.0144500732 0.984863281
vt 0.328125 0.984863281
vt 0.328125 0.698730469
vt 0.0144500732 0.698730469
vt 0.0144500732 0.984863281
vt 0.327880859 0.983886719
vt 0.327880859 0.699707031
vt 0.316650391 0.699707031
vt 0.316650391 0.983886719
vt 0.0144500732 0.698730469
vt 0.328125 0.698730469
vt 0.328125 0.984863281
vt 0.0144500732 0.984863281
vt 0.0144500732 0.984863281
vt 0.0144500732 0.698730469
vt 0.328125 0.698730469
vt 0.328125 0.984863281
vt 0.316650391 0.699707031
vt 0.316650391 0.983886719
vt 0.327880859 0.983886719
vt 0.327880859 0.699707031
vt 0.328125 0.984863281
vt 0.328125 0.698730469
vt 0.0144500732 0.698730469
vt 0.0144500732 0.984863281
vt 0.328125 0.984863281
vt 0.328125 0.698730469
vt 0.0144500732 0.698730469
vt 0.0144500732 0.984863281
vt 0.328125 0.984863281
vt 0.328125 0.698730469
vt 0.0144500732 0.698730469
vt 0.0144500732 0.984863281
vt 0.328125 0.984863281
vt 0.328125 0.698730469
vt 0.0144500732 0.698730469
vt 0.0144500732 0.984863281
vt 0.328125 0.984863281
vt 0.328125 0.698730469
vt 0.0144500732 0.698730469
vt 0.0144500732 0.984863281
vt 0.328125 0.984863281
vt 0.328125 0.698730469
vt 0.0144500732 0.698730469
vt 0.0144500732 0.984863281
vt 0.328125 0.984863281
vt 0.328125 0.698730469
vt 0.0144500732 0.698730469
vt 0.0144500732 0.984863281
vt 0.328125 0.984863281
vt 0.328125 0.698730469
vt 0.0144500732 0.698730469
vt 0.0144500732 0.984863281
vt 0.327880859 0.983886719
vt 0.327880859 0.699707031
vt 0.316650391 0.699707031
vt 0.316650391 0.983886719
vt 0.0144500732 0.698730469
vt 0.328125 0.698730469
vt 0.328125 0.984863281
vt 0.0144500732 0.984863281
vt 0.0144500732 0.984863281
vt 0.0144500732 0.698730469
vt 0.328125 0.698730469
vt 0.328125 0.984863281
vt 0.0144500732 0.984863281
vt 0.0144500732 0.698730469
vt 0.328125 0.698730469
vt 0.328125 0.984863281
vt 0.0144500732 0.984863281
vt 0.0144500732 0.698730469
vt 0.328125 0.698730469
vt 0.328125 0.984863281
vt 0.0144500732 0.984863281
vt 0.0144500732 0.698730469
vt 0.328125 0.698730469
vt 0.328125 0.984863281
vt 0.0144500732 0.984863281
vt 0.0144500732 0.698730469
vt 0.328125 0.698730469
vt 0.328125 0.984863281
vt 0.0144500732 0.984863281
vt 0.0144500732 0.698730469
vt 0.328125 0.698730469
vt 0.328125 0.984863281
vt 0.70703125 0.643066406
vt 0.70703125 0.643066406
vt 0.741210938 0.643066406
vt 0.741210938 0.643066406
vt 0.741210938 0.643066406
vt 0.741210938 0.643066406
vt 0.741210938 0.889160156
vt 0.741210938 0.889160156
vt 0.741210938 0.643066406
vt 0.741210938 0.643066406
vt 0.741210938 0.889160156
vt 0.741210938 0.889160156
vt 0.741210938 0.643066406
vt 0.741210938 0.643066406
vt 0.741210938 0.889160156
vt 0.741210938 0.889160156
vt 0.741210938 0.643066406
vt 0.741210938 0.643066406
vt 0.70703125 0.889160156
vt 0.70703125 0.643066406
vt 0.70703125 0.643066406
vt 0.70703125 0.889160156
vt 0.70703125 0.643066406
vt 0.70703125 0.643066406
vt 0.70703125 0.889160156
vt 0.70703125 0.889160156
vt 0.70703125 0.643066406
vt 0.70703125 0.643066406
vt 0.70703125 0.889160156
vt 0.70703125 0.889160156
vt 0.70703125 0.643066406
vt 0.70703125 0.643066406
vt 0.741210938 0.643066406
vt 0.741210938 0.643066406
vt 0.70703125 0.643066406
vt 0.70703125 0.643066406
vn -0 0.982421875 0.185546875
vn -0 0.982421875 0.185546875
vn -0 0.982421875 0.185546875
vn -0 0.982421875 0.185546875
vn -0 1 2.98023224E-06
vn -0 1 3.09944153E-06
vn -0 1 3.09944153E-06
vn -0 1 2.98023224E-06
vn -0 1 3.39746475E-06
vn -0 1 3.4570694E-06
vn -0 1 3.4570694E-06
vn -0 1 3.39746475E-06
vn -0 0.982421875 0.185546875
vn -0 0.982421875 0.185546875
vn -0 0.982421875 0.185546875
vn -0 0.982421875 0.185546875
vn -0.00640487671 0.983886719 -0.17980957
vn -0.00526046753 0.986328125 -0.163818359
vn -2.64048576E-05 0.986816406 -0.161499023
vn -0.00797271729 0.985351562 -0.169067383
vn -0.00818634033 0.986328125 -0.165283203
vn -0 1 4.11272049E-06
vn -0 1 3.39746475E-06
vn -0 1 3.39746475E-06
vn -0 1 4.11272049E-06
vn -0 0.982421875 0.185546875
vn -0 0.982421875 0.185546875
vn -0 0.982421875 0.185546875
vn -0 0.982421875 0.185546875
vn -0 1 4.05311584E-06
vn -0 1 4.11272049E-06
vn -0 1 4.11272049E-06
vn -0 1 4.05311584E-06
vn -0 0.982421875 0.185546875
vn -0 0.982421875 0.185546875
vn -0 0.982421875 0.185546875
vn -0 0.982421875 0.185546875
vn -0 1 3.15904617E-06
vn -0 1 4.05311584E-06
vn -0 1 4.05311584E-06
vn -0 1 3.15904617E-06
vn -0 0.982421875 0.185546875
vn -0 0.982421875 0.185546875
vn -0 0.982421875 0.185546875
vn -0 0.982421875 0.185546875
vn -0 1 3.09944153E-06
vn -0 1 3.15904617E-06
vn -0 1 3.15904617E-06
vn -0 1 3.09944153E-06
vn -0 0.982421875 0.185546875
vn -0 0.982421875 0.185546875
vn -0 0.982421875 0.185546875
vn -0 0.982421875 0.185546875
vn -0 -0.981933594 0.188964844
vn -0 -0.985351562 0.170654297
vn -0 -0.985351562 0.170654297
vn -0 -0.981933594 0.188964844
vn 0.00471115112 -0.989257812 0.146240234
vn 0.00811767578 -0.986328125 0.165039062
vn 0.00788116455 -0.985839844 0.168823242
vn 0.00636672974 -0.983886719 0.178833008
vn -0 -0.99609375 0.0861816406
vn -0 -0.986328125 -0.166015625
vn -0 -0.989746094 0.142822266
vn -0 -0.989746094 0.142944336
vn -0 -0.986328125 -0.166015625
vn -0 -0.986328125 -0.166015625
vn 0.00471115112 -0.989257812 0.146240234
vn -0 -0.99609375 0.0861816406
vn -0 -0.986328125 -0.166015625
vn -0 -0.989746094 0.142822266
vn -0 -0.986328125 0.163452148
vn -0 -0.986328125 0.163452148
vn -0 -0.989746094 0.142944336
vn 3.03983688E-06 -0.989746094 0.142944336
vn 6.97374344E-06 -0.986328125 0.163452148
vn 0.00811767578 -0.986328125 0.165039062
vn 0.00471115112 -0.989257812 0.146240234
vn -0 -0.986328125 -0.166015625
vn 3.03983688E-06 -0.989746094 0.142944336
vn 0.00471115112 -0.989257812 0.146240234
vn -0 -0.986328125 -0.166015625
vn 8.94069672E-07 -0.989746094 0.142944336
vn 2.14576721E-06 -0.986328125 0.163452148
vn 6.97374344E-06 -0.986328125 0.163452148
vn 3.03983688E-06 -0.989746094 0.142944336
vn -0 -0.986328125 -0.166015625
vn 8.94069672E-07 -0.989746094 0.142944336
vn 3.03983688E-06 -0.989746094 0.142944336
vn -0 -0.986328125 -0.166015625
vn -0 -0.989746094 0.142944336
vn -0 -0.986328125 0.163452148
vn 2.14576721E-06 -0.986328125 0.163452148
vn 8.94069672E-07 -0.989746094 0.142944336
vn -0 -0.986328125 -0.166015625
vn -0 -0.989746094 0.142944336
vn 8.94069672E-07 -0.989746094 0.142944336
vn -0 -0.986328125 -0.166015625
vn -0 -0.989746094 0.142944336
vn -0 -0.986328125 0.163452148
vn -0 -0.986328125 0.163452148
vn -0 -0.989746094 0.142944336
vn -0 -0.986328125 -0.166015625
vn -0 -0.989746094 0.142944336
vn -0 -0.989746094 0.142944336
vn -0 -0.986328125 -0.166015625
vn 0.00636672974 -0.983886719 0.178833008
vn 0.00788116455 -0.985839844 0.168823242
vn -0 -0.985351562 0.170654297
vn -0 -0.981933594 0.188964844
vn -0 0.171020508 0.985351562
vn -0 0.171020508 0.985351562
vn -6.78300858E-05 0.168823242 0.985839844
vn -6.78300858E-05 0.168823242 0.985839844
vn -1.1920929E-07 -0.171020508 -0.985351562
vn -1.1920929E-07 -0.171020508 -0.985351562
vn -0 -0.171020508 -0.985351562
vn -0 -0.171020508 -0.985351562
vn 7.56978989E-06 -0.170654297 -0.985351562
vn 7.56978989E-06 -0.170654297 -0.985351562
vn 3.51667404E-06 -0.171020508 -0.985351562
vn 3.51667404E-06 -0.171020508 -0.985351562
vn -0 -0.185546875 0.982421875
vn -0 -0.185546875 0.982421875
vn -0 -0.185546875 0.982421875
vn -0 -0.185546875 0.982421875
vn 1 -1.96695328E-06 0
vn 1 -1.96695328E-06 0
vn 1 -0.000159978867 -0.00362014771
vn 1 -0.000159740448 -0.00361442566
vn -0 -0.185546875 0.982421875
vn -0 -0.185546875 0.982421875
vn -0 -0.185546875 0.982421875
vn -0 -0.185546875 0.982421875
vn -1 -2.38418579E-07 0
vn -1 -2.74181366E-06 0
vn -1 -2.98023224E-06 0
vn -1 -2.38418579E-07 0
vn -1 1.66893005E-06 0
vn -1 1.66893005E-06 0
vn -1 3.39746475E-06 0
vn -1 3.39746475E-06 0
vn 1 -0.000159978867 -0.00362014771
vn 1 -1.88350677E-05 -0.000435829163
vn 1 1.87158585E-05 0.000413656235
vn 1 -0.000159740448 -0.00361442566
vn -0 -0.170288086 -0.985351562
vn -0 -0.170288086 -0.985351562
vn -0 -0.170288086 -0.985351562
vn -0 -0.170288086 -0.985351562
vn 3.27825546E-06 -0.170288086 -0.985351562
vn 3.27825546E-06 -0.170288086 -0.985351562
vn 7.56978989E-06 -0.170654297 -0.985351562
vn 7.56978989E-06 -0.170654297 -0.985351562
vn -0 -0.185546875 0.982421875
vn -0 -0.185546875 0.982421875
vn -0 -0.185546875 0.982421875
vn -0 -0.185546875 0.982421875
vn -1.78813934E-07 -0.170288086 -0.985351562
vn -1.78813934E-07 -0.170288086 -0.985351562
vn 3.27825546E-06 -0.170288086 -0.985351562
vn 3.27825546E-06 -0.170288086 -0.985351562
vn -0 -0.185546875 0.982421875
vn -0 -0.185546875 0.982421875
vn -0 -0.185546875 0.982421875
vn -0 -0.185546875 0.982421875
vn -0 -0.170288086 -0.985351562
vn -0 -0.170288086 -0.985351562
vn -1.78813934E-07 -0.170288086 -0.985351562
vn -1.78813934E-07 -0.170288086 -0.985351562
vn -0 -0.185546875 0.982421875
vn -0 -0.185546875 0.982421875
vn -0 -0.185546875 0.982421875
vn -0 -0.185546875 0.982421875
vn -0 -0.170288086 -0.985351562
vn -0 -0.170288086 -0.985351562
vn -0 -0.170288086 -0.985351562
vn -0 -0.170288086 -0.985351562
vn -0 -0.185546875 0.982421875
vn -0 -0.185546875 0.982421875
vn -0 -0.185546875 0.982421875
vn -0 -0.185546875 0.982421875
vn -6.78300858E-05 0.168823242 0.985839844
vn -6.78300858E-05 0.168823242 0.985839844
vn -0.00014436245 0.166259766 0.985839844
vn -0.00014436245 0.166259766 0.985839844
vn 3.51667404E-06 -0.171020508 -0.985351562
vn 3.51667404E-06 -0.171020508 -0.985351562
vn -1.1920929E-07 -0.171020508 -0.985351562
vn -1.1920929E-07 -0.171020508 -0.985351562
vn -1 0.000442266464 0.00520324707
vn -1 0.000442266464 0.00520324707
vn -1 6.53266907E-05 -0.000506401062
vn -1 0.000132441521 0.000509738922
vn -6.7949295E-06 0.981933594 -0.190307617
vn -0 0.981933594 -0.190307617
vn -0 0.985351562 -0.170898438
vn -1.08480453E-05 0.985351562 -0.170898438
vn -0 0.987304688 -0.158081055
vn -0 0.987304688 -0.158081055
vn -0 0.986328125 -0.163574219
vn -0 0.986328125 -0.163574219
vn -1.25169754E-06 0.987304688 -0.158081055
vn -0.00526046753 0.986328125 -0.163818359
vn -0.00818634033 0.986328125 -0.165283203
vn -2.44379044E-06 0.986328125 -0.163574219
vn -0 0.987304688 -0.158081055
vn -1.25169754E-06 0.987304688 -0.158081055
vn -2.44379044E-06 0.986328125 -0.163574219
vn -0 0.986328125 -0.163574219
vn -0 0.987304688 -0.158081055
vn -0 0.987304688 -0.158081055
vn -0 0.986328125 -0.163574219
vn -0 0.986328125 -0.163574219
vn -0 0.987304688 -0.158081055
vn -0 0.987304688 -0.158081055
vn -0 0.986328125 -0.163574219
vn -0 0.986328125 -0.163574219
vn -0.00640487671 0.983886719 -0.17980957
vn -6.7949295E-06 0.981933594 -0.190307617
vn -1.08480453E-05 0.985351562 -0.170898438
vn -0.00797271729 0.985351562 -0.169067383
vn -0 -0.986328125 -0.166015625
vn -0 -0.986328125 -0.166015625
vn -0 -0.982421875 -0.185546875
vn -0 -0.982421875 -0.185546875
vn 1 -1.96695328E-06 0
vn 1 -1.96695328E-06 0
vn 1 -8.34465027E-07 0
vn 1 -9.53674316E-07 0
vn -0 -0.986328125 -0.166015625
vn -0 -0.986328125 -0.166015625
vn -0 -0.982421875 -0.185546875
vn -0 -0.982421875 -0.185546875
vn -0 -0.986328125 -0.166015625
vn -0 -0.986328125 -0.166015625
vn -0 -0.982421875 -0.185546875
vn -0 -0.982421875 -0.185546875
vn -0 -0.986328125 -0.166015625
vn -0 -0.986328125 -0.166015625
vn -0 -0.982421875 -0.185546875
vn -0 -0.982421875 -0.185546875
vn -0 -0.986328125 -0.166015625
vn -0 -0.986328125 -0.166015625
vn -0 -0.982421875 -0.185546875
vn -0 -0.982421875 -0.185546875
vn -0 -0.986328125 -0.166015625
vn -0 -0.986328125 -0.166015625
vn -0 -0.982421875 -0.185546875
vn -0 -0.982421875 -0.185546875
vn -0 0.982421875 0.185546875
vn -0 0.982421875 0.185546875
vn -0 0.982421875 0.185546875
vn -0 0.982421875 0.185546875
vn 1 -8.34465027E-07 0
vn 1 0 0
vn 1 0 0
vn 1 -9.53674316E-07 0
vn -0 -0.982421875 -0.185546875
vn -0 -0.982421875 -0.185546875
vn -0 -0.982421875 -0.185546875
vn -0 -0.982421875 -0.185546875
vn -0 -0.982421875 -0.185546875
vn -0 -0.982421875 -0.185546875
vn -0 -0.982421875 -0.185546875
vn -0 -0.982421875 -0.185546875
vn -0 -0.982421875 -0.185546875
vn -0 -0.982421875 -0.185546875
vn -0 -0.982421875 -0.185546875
vn -0 -0.982421875 -0.185546875
vn -0 -0.982421875 -0.185546875
vn -0 -0.982421875 -0.185546875
vn -0 -0.982421875 -0.185546875
vn -0 -0.982421875 -0.185546875
vn -0 -0.982421875 -0.185546875
vn -0 -0.982421875 -0.185546875
vn -0 -0.982421875 -0.185546875
vn -0 -0.982421875 -0.185546875
vn -0 -0.982421875 -0.185546875
vn -0 -0.982421875 -0.185546875
vn -0 -0.982421875 -0.185546875
vn -0 -0.982421875 -0.185546875
vn -1 -2.74181366E-06 0
vn -1 -1.1920929E-07 0
vn -1 1.1920929E-07 0
vn -1 -2.98023224E-06 0
vn -0 0.982421875 0.185546875
vn -0 0.982421875 0.185546875
vn -0 0.982421875 0.185546875
vn -0 0.982421875 0.185546875
vn -0 0.982421875 0.185546875
vn -0 0.982421875 0.185546875
vn -0 0.982421875 0.185546875
vn -0 0.982421875 0.185546875
vn -0 0.982421875 0.185546875
vn -0 0.982421875 0.185546875
vn -0 0.982421875 0.185546875
vn -0 0.982421875 0.185546875
vn -0 0.982421875 0.185546875
vn -0 0.982421875 0.185546875
vn -0 0.982421875 0.185546875
vn -0 0.982421875 0.185546875
vn -0 0.982421875 0.185546875
vn -0 0.982421875 0.185546875
vn -0 0.982421875 0.185546875
vn -0 0.982421875 0.185546875
vn -0 0.982421875 0.185546875
vn -0 0.982421875 0.185546875
vn -0 0.982421875 0.185546875
vn -0 0.982421875 0.185546875
vn 1 0 0
vn 1 0 0
vn 1 0 0
vn 1 0 0
vn -0 -0.982421875 -0.185546875
vn -0 -0.982421875 -0.185546875
vn -0 -0.982421875 -0.185546875
vn -0 -0.982421875 -0.185546875
vn -0 -0.982421875 -0.185546875
vn -0 -0.982421875 -0.185546875
vn -0 -0.982421875 -0.185546875
vn -0 -0.982421875 -0.185546875
vn -0 -0.982421875 -0.185546875
vn -0 -0.982421875 -0.185546875
vn -0 -0.982421875 -0.185546875
vn -0 -0.982421875 -0.185546875
vn -0 -0.982421875 -0.185546875
vn -0 -0.982421875 -0.185546875
vn -0 -0.982421875 -0.185546875
vn -0 -0.982421875 -0.185546875
vn -0 -0.982421875 -0.185546875
vn -0 -0.982421875 -0.185546875
vn -0 -0.982421875 -0.185546875
vn -0 -0.982421875 -0.185546875
vn -0 -0.982421875 -0.185546875
vn -0 -0.982421875 -0.185546875
vn -0 -0.982421875 -0.185546875
vn -0 -0.982421875 -0.185546875
vn -1 -1.1920929E-07 0
vn -1 6.2584877E-06 0
vn -1 6.2584877E-06 0
vn -1 1.1920929E-07 0
vn -0 0.982421875 0.185546875
vn -0 0.982421875 0.185546875
vn -0 0.982421875 0.185546875
vn -0 0.982421875 0.185546875
vn -0 0.982421875 0.185546875
vn -0 0.982421875 0.185546875
vn -0 0.982421875 0.185546875
vn -0 0.982421875 0.185546875
vn -0 0.982421875 0.185546875
vn -0 0.982421875 0.185546875
vn -0 0.982421875 0.185546875
vn -0 0.982421875 0.185546875
vn -0 0.982421875 0.185546875
vn -0 0.982421875 0.185546875
vn -0 0.982421875 0.185546875
vn -0 0.982421875 0.185546875
vn -0 0.982421875 0.185546875
vn -0 0.982421875 0.185546875
vn -0 0.982421875 0.185546875
vn -0 0.982421875 0.185546875
vn -0 0.986328125 -0.163574219
vn -0 0.984375 -0.176757812
vn -0 0.984375 -0.176757812
vn -0 0.986328125 -0.163574219
vn -0 0.986328125 -0.163574219
vn -0 0.984375 -0.176757812
vn -0 0.984375 -0.176757812
vn -0 0.986328125 -0.163574219
vn -2.44379044E-06 0.986328125 -0.163574219
vn -4.70876694E-06 0.984375 -0.176757812
vn -0 0.984375 -0.176757812
vn -0 0.986328125 -0.163574219
vn -0.00818634033 0.986328125 -0.165283203
vn -0.00701141357 0.984863281 -0.173461914
vn -4.70876694E-06 0.984375 -0.176757812
vn -2.44379044E-06 0.986328125 -0.163574219
vn -0.00797271729 0.985351562 -0.169067383
vn -0.00642776489 0.985839844 -0.166259766
vn -0.00701141357 0.984863281 -0.173461914
vn -0.00818634033 0.986328125 -0.165283203
vn -1.08480453E-05 0.985351562 -0.170898438
vn -1.15036964E-05 0.986816406 -0.163085938
vn -0.00642776489 0.985839844 -0.166259766
vn -0.00797271729 0.985351562 -0.169067383
vn -0 0.985351562 -0.170898438
vn -0 0.986816406 -0.163085938
vn -1.15036964E-05 0.986816406 -0.163085938
vn -1.08480453E-05 0.985351562 -0.170898438
vn -1 6.53266907E-05 -0.000506401062
vn -1 -8.59498978E-05 -0.00204467773
vn -1 -9.40561295E-05 -0.00223922729
vn -1 0.000132441521 0.000509738922
vn -0 -0.985351562 0.170654297
vn -0 -0.986328125 0.163574219
vn -0 -0.986328125 0.163574219
vn -0 -0.985351562 0.170654297
vn 0.00788116455 -0.985839844 0.168823242
vn 0.00634002686 -0.985839844 0.166625977
vn -0 -0.986328125 0.163574219
vn -0 -0.985351562 0.170654297
vn 0.00811767578 -0.986328125 0.165039062
vn 0.00693130493 -0.984863281 0.173828125
vn 0.00634002686 -0.985839844 0.166625977
vn 0.00788116455 -0.985839844 0.168823242
vn 6.97374344E-06 -0.986328125 0.163452148
vn 1.41859055E-05 -0.984375 0.177124023
vn 0.00693130493 -0.984863281 0.173828125
vn 0.00811767578 -0.986328125 0.165039062
vn 2.14576721E-06 -0.986328125 0.163452148
vn 4.41074371E-06 -0.984375 0.177124023
vn 1.41859055E-05 -0.984375 0.177124023
vn 6.97374344E-06 -0.986328125 0.163452148
vn -0 -0.986328125 0.163452148
vn -0 -0.984375 0.177124023
vn 4.41074371E-06 -0.984375 0.177124023
vn 2.14576721E-06 -0.986328125 0.163452148
vn -0 -0.986328125 0.163452148
vn -0 -0.984375 0.177124023
vn -0 -0.984375 0.177124023
vn -0 -0.986328125 0.163452148
vn -0 -0.986328125 0.163452148
vn -0 -0.984375 0.177124023
vn -0 -0.984375 0.177124023
vn -0 -0.986328125 0.163452148
vn 1 -1.88350677E-05 -0.000435829163
vn 1 9.75728035E-05 0.00226020813
vn 1 8.69631767E-05 0.00202941895
vn 1 1.87158585E-05 0.000413656235
vn -0 0.984375 -0.176757812
vn -0 0.984375 -0.176757812
vn -0 0.986328125 -0.163574219
vn -0 0.986328125 -0.163574219
vn -0 0.986816406 -0.163085938
vn -0 0.985351562 -0.171386719
vn -8.64267349E-06 0.985351562 -0.171386719
vn -1.15036964E-05 0.986816406 -0.163085938
vn -1 -8.59498978E-05 -0.00204467773
vn -1 0 0
vn -1 0 0
vn -1 -9.40561295E-05 -0.00223922729
vn -0 -0.986328125 0.163574219
vn -0 -0.985351562 0.171875
vn -0 -0.985351562 0.171875
vn -0 -0.986328125 0.163574219
vn 0.00634002686 -0.985839844 0.166625977
vn 0.00301551819 -0.984375 0.174926758
vn -0 -0.985351562 0.171875
vn -0 -0.986328125 0.163574219
vn 0.00693130493 -0.984863281 0.173828125
vn 0.00331497192 -0.983398438 0.182006836
vn 0.00301551819 -0.984375 0.174926758
vn 0.00634002686 -0.985839844 0.166625977
vn 1.41859055E-05 -0.984375 0.177124023
vn 1.8119812E-05 -0.982910156 0.185302734
vn 0.00331497192 -0.983398438 0.182006836
vn 0.00693130493 -0.984863281 0.173828125
vn 4.41074371E-06 -0.984375 0.177124023
vn 5.60283661E-06 -0.982910156 0.185302734
vn 1.8119812E-05 -0.982910156 0.185302734
vn 1.41859055E-05 -0.984375 0.177124023
vn -0 -0.984375 0.177124023
vn -0 -0.982910156 0.185302734
vn 5.60283661E-06 -0.982910156 0.185302734
vn 4.41074371E-06 -0.984375 0.177124023
vn -0 -0.984375 0.177124023
vn -0 -0.982910156 0.185302734
vn -0 -0.982910156 0.185302734
vn -0 -0.984375 0.177124023
vn -0 -0.984375 0.177124023
vn -0 -0.982910156 0.185302734
vn -0 -0.982910156 0.185302734
vn -0 -0.984375 0.177124023
vn 1 9.75728035E-05 0.00226020813
vn 1 -5.84125519E-06 0
vn 1 -5.84125519E-06 0
vn 1 8.69631767E-05 0.00202941895
vn -0 0.982910156 -0.184936523
vn -0 0.982910156 -0.184936523
vn -0 0.984375 -0.176757812
vn -0 0.984375 -0.176757812
vn -0 0.984375 -0.176757812
vn -0 0.982910156 -0.184936523
vn -0 0.982910156 -0.184936523
vn -0 0.984375 -0.176757812
vn -0 0.984375 -0.176757812
vn -0 0.982910156 -0.184936523
vn -0 0.982910156 -0.184936523
vn -0 0.984375 -0.176757812
vn -4.70876694E-06 0.984375 -0.176757812
vn -5.84125519E-06 0.982910156 -0.184936523
vn -0 0.982910156 -0.184936523
vn -0 0.984375 -0.176757812
vn -0.00701141357 0.984863281 -0.173461914
vn -0.00335121155 0.983398438 -0.181640625
vn -5.84125519E-06 0.982910156 -0.184936523
vn -4.70876694E-06 0.984375 -0.176757812
vn -0.00642776489 0.985839844 -0.166259766
vn -0.00306510925 0.984863281 -0.174438477
vn -0.00335121155 0.983398438 -0.181640625
vn -0.00701141357 0.984863281 -0.173461914
vn -1.15036964E-05 0.986816406 -0.163085938
vn -8.64267349E-06 0.985351562 -0.171386719
vn -0.00306510925 0.984863281 -0.174438477
vn -0.00642776489 0.985839844 -0.166259766
vn 1 0 0
vn 1 0 0
vn 1 0 0
vn 1 0 0
vn -5.36441803E-07 0 -1
vn -5.36441803E-07 0 -1
vn -5.36441803E-07 0 -1
vn -5.36441803E-07 0 -1
vn -5.96046448E-07 0 -1
vn -5.96046448E-07 0 -1
vn 1.01327896E-06 0 -1
vn 1.01327896E-06 0 -1
vn -5.96046448E-07 0 -1
vn -5.96046448E-07 0 -1
vn -0.000163912773 0 -1
vn -0.000163912773 0 -1
vn -0.000163912773 0 -1
vn -0.000163912773 0 -1
vn 3.57627869E-07 0 1
vn 3.57627869E-07 0 1
vn 3.57627869E-07 0 1
vn 3.57627869E-07 0 1
vn 5.96046448E-07 0 1
vn 5.96046448E-07 0 1
vn -5.96046448E-07 0 1
vn -5.96046448E-07 0 1
vn -1.78813934E-07 0 1
vn -1.78813934E-07 0 1
vn 4.17232513E-07 0 1
vn 4.17232513E-07 0 1
vn 4.17232513E-07 0 1
vn 4.17232513E-07 0 1
vn -1 0 0
vn -1 0 0
vn -1 0 0
vn -1 0 0
g Roof_Museum_Exterior_Main_0
f 3/3/3 2/2/2 1/1/1
f 4/4/4 3/3/3 1/1/1
f 7/7/7 6/6/6 5/5/5
f 8/8/8 7/7/7 5/5/5
f 11/11/11 10/10/10 9/9/9
f 12/12/12 11/11/11 9/9/9
f 15/15/15 14/14/14 13/13/13
f 16/16/16 15/15/15 13/13/13
f 19/19/19 18/18/18 17/17/17
f 20/20/20 17/17/17 18/18/18
f 21/21/21 20/20/20 18/18/18
f 24/24/24 23/23/23 22/22/22
f 25/25/25 24/24/24 22/22/22
f 28/28/28 27/27/27 26/26/26
f 29/29/29 28/28/28 26/26/26
f 32/32/32 31/31/31 30/30/30
f 33/33/33 32/32/32 30/30/30
f 36/36/36 35/35/35 34/34/34
f 37/37/37 36/36/36 34/34/34
f 40/40/40 39/39/39 38/38/38
f 41/41/41 40/40/40 38/38/38
f 44/44/44 43/43/43 42/42/42
f 45/45/45 44/44/44 42/42/42
f 48/48/48 47/47/47 46/46/46
f 49/49/49 48/48/48 46/46/46
f 52/52/52 51/51/51 50/50/50
f 53/53/53 52/52/52 50/50/50
f 56/56/56 55/55/55 54/54/54
f 57/57/57 56/56/56 54/54/54
f 60/60/60 59/59/59 58/58/58
f 61/61/61 60/60/60 58/58/58
f 58/58/58 62/62/62 61/61/61
f 65/65/65 64/64/64 63/63/63
f 66/66/66 65/65/65 63/63/63
f 69/69/69 68/68/68 67/67/67
f 70/70/70 69/69/69 67/67/67
f 73/73/73 72/72/72 71/71/71
f 74/74/74 73/73/73 71/71/71
f 77/77/77 76/76/76 75/75/75
f 78/78/78 77/77/77 75/75/75
f 81/81/81 80/80/80 79/79/79
f 82/82/82 81/81/81 79/79/79
f 85/85/85 84/84/84 83/83/83
f 86/86/86 85/85/85 83/83/83
f 89/89/89 88/88/88 87/87/87
f 90/90/90 89/89/89 87/87/87
f 93/93/93 92/92/92 91/91/91
f 94/94/94 93/93/93 91/91/91
f 97/97/97 96/96/96 95/95/95
f 98/98/98 97/97/97 95/95/95
f 101/101/101 100/100/100 99/99/99
f 102/102/102 101/101/101 99/99/99
f 105/105/105 104/104/104 103/103/103
f 106/106/106 105/105/105 103/103/103
f 109/109/109 108/108/108 107/107/107
f 110/110/110 109/109/109 107/107/107
f 113/113/113 112/112/112 111/111/111
f 114/114/114 113/113/113 111/111/111
f 117/117/117 116/116/116 115/115/115
f 118/118/118 117/117/117 115/115/115
f 121/121/121 120/120/120 119/119/119
f 122/122/122 121/121/121 119/119/119
f 125/125/125 124/124/124 123/123/123
f 126/126/126 125/125/125 123/123/123
f 129/129/129 128/128/128 127/127/127
f 130/130/130 129/129/129 127/127/127
f 133/133/133 132/132/132 131/131/131
f 134/134/134 133/133/133 131/131/131
f 137/137/137 136/136/136 135/135/135
f 138/138/138 137/137/137 135/135/135
f 138/138/138 135/135/135 139/139/139
f 135/135/135 140/140/140 139/139/139
f 139/139/139 140/140/140 141/141/141
f 140/140/140 142/142/142 141/141/141
f 145/145/145 144/144/144 143/143/143
f 146/146/146 145/145/145 143/143/143
f 149/149/149 148/148/148 147/147/147
f 150/150/150 149/149/149 147/147/147
f 153/153/153 152/152/152 151/151/151
f 154/154/154 153/153/153 151/151/151
f 157/157/157 156/156/156 155/155/155
f 158/158/158 157/157/157 155/155/155
f 161/161/161 160/160/160 159/159/159
f 162/162/162 161/161/161 159/159/159
f 165/165/165 164/164/164 163/163/163
f 166/166/166 165/165/165 163/163/163
f 169/169/169 168/168/168 167/167/167
f 170/170/170 169/169/169 167/167/167
f 173/173/173 172/172/172 171/171/171
f 174/174/174 173/173/173 171/171/171
f 177/177/177 176/176/176 175/175/175
f 178/178/178 177/177/177 175/175/175
f 181/181/181 180/180/180 179/179/179
f 182/182/182 181/181/181 179/179/179
f 185/185/185 184/184/184 183/183/183
f 186/186/186 185/185/185 183/183/183
f 189/189/189 188/188/188 187/187/187
f 190/190/190 189/189/189 187/187/187
f 193/193/193 192/192/192 191/191/191
f 194/194/194 193/193/193 191/191/191
f 197/197/197 196/196/196 195/195/195
f 198/198/198 197/197/197 195/195/195
f 201/201/201 200/200/200 199/199/199
f 202/202/202 201/201/201 199/199/199
f 205/205/205 204/204/204 203/203/203
f 206/206/206 205/205/205 203/203/203
f 209/209/209 208/208/208 207/207/207
f 210/210/210 209/209/209 207/207/207
f 213/213/213 212/212/212 211/211/211
f 214/214/214 213/213/213 211/211/211
f 217/217/217 216/216/216 215/215/215
f 218/218/218 217/217/217 215/215/215
f 221/221/221 220/220/220 219/219/219
f 222/222/222 221/221/221 219/219/219
f 225/225/225 224/224/224 223/223/223
f 226/226/226 225/225/225 223/223/223
f 229/229/229 228/228/228 227/227/227
f 230/230/230 229/229/229 227/227/227
f 233/233/233 232/232/232 231/231/231
f 234/234/234 233/233/233 231/231/231
f 237/237/237 236/236/236 235/235/235
f 238/238/238 237/237/237 235/235/235
f 241/241/241 240/240/240 239/239/239
f 242/242/242 241/241/241 239/239/239
f 245/245/245 244/244/244 243/243/243
f 246/246/246 245/245/245 243/243/243
f 249/249/249 248/248/248 247/247/247
f 250/250/250 249/249/249 247/247/247
f 253/253/253 252/252/252 251/251/251
f 254/254/254 253/253/253 251/251/251
f 257/257/257 256/256/256 255/255/255
f 258/258/258 257/257/257 255/255/255
f 261/261/261 260/260/260 259/259/259
f 262/262/262 261/261/261 259/259/259
f 265/265/265 264/264/264 263/263/263
f 266/266/266 265/265/265 263/263/263
f 269/269/269 268/268/268 267/267/267
f 270/270/270 269/269/269 267/267/267
f 273/273/273 272/272/272 271/271/271
f 274/274/274 273/273/273 271/271/271
f 277/277/277 276/276/276 275/275/275
f 278/278/278 277/277/277 275/275/275
f 281/281/281 280/280/280 279/279/279
f 282/282/282 281/281/281 279/279/279
f 285/285/285 284/284/284 283/283/283
f 286/286/286 285/285/285 283/283/283
f 289/289/289 288/288/288 287/287/287
f 290/290/290 289/289/289 287/287/287
f 293/293/293 292/292/292 291/291/291
f 294/294/294 293/293/293 291/291/291
f 297/297/297 296/296/296 295/295/295
f 298/298/298 297/297/297 295/295/295
f 301/301/301 300/300/300 299/299/299
f 302/302/302 301/301/301 299/299/299
f 305/305/305 304/304/304 303/303/303
f 306/306/306 305/305/305 303/303/303
f 309/309/309 308/308/308 307/307/307
f 310/310/310 309/309/309 307/307/307
f 313/313/313 312/312/312 311/311/311
f 314/314/314 313/313/313 311/311/311
f 317/317/317 316/316/316 315/315/315
f 318/318/318 317/317/317 315/315/315
f 321/321/321 320/320/320 319/319/319
f 322/322/322 321/321/321 319/319/319
f 325/325/325 324/324/324 323/323/323
f 326/326/326 325/325/325 323/323/323
f 329/329/329 328/328/328 327/327/327
f 330/330/330 329/329/329 327/327/327
f 333/333/333 332/332/332 331/331/331
f 334/334/334 333/333/333 331/331/331
f 337/337/337 336/336/336 335/335/335
f 338/338/338 337/337/337 335/335/335
f 341/341/341 340/340/340 339/339/339
f 342/342/342 341/341/341 339/339/339
f 345/345/345 344/344/344 343/343/343
f 346/346/346 345/345/345 343/343/343
f 349/349/349 348/348/348 347/347/347
f 350/350/350 349/349/349 347/347/347
f 353/353/353 352/352/352 351/351/351
f 354/354/354 353/353/353 351/351/351
f 357/357/357 356/356/356 355/355/355
f 358/358/358 357/357/357 355/355/355
f 361/361/361 360/360/360 359/359/359
f 362/362/362 361/361/361 359/359/359
f 365/365/365 364/364/364 363/363/363
f 366/366/366 365/365/365 363/363/363
f 369/369/369 368/368/368 367/367/367
f 370/370/370 369/369/369 367/367/367
f 373/373/373 372/372/372 371/371/371
f 374/374/374 373/373/373 371/371/371
f 377/377/377 376/376/376 375/375/375
f 378/378/378 377/377/377 375/375/375
f 381/381/381 380/380/380 379/379/379
f 382/382/382 381/381/381 379/379/379
f 385/385/385 384/384/384 383/383/383
f 386/386/386 385/385/385 383/383/383
f 389/389/389 388/388/388 387/387/387
f 390/390/390 389/389/389 387/387/387
f 393/393/393 392/392/392 391/391/391
f 394/394/394 393/393/393 391/391/391
f 397/397/397 396/396/396 395/395/395
f 398/398/398 397/397/397 395/395/395
f 401/401/401 400/400/400 399/399/399
f 402/402/402 401/401/401 399/399/399
f 405/405/405 404/404/404 403/403/403
f 406/406/406 405/405/405 403/403/403
f 409/409/409 408/408/408 407/407/407
f 410/410/410 409/409/409 407/407/407
f 413/413/413 412/412/412 411/411/411
f 414/414/414 413/413/413 411/411/411
f 417/417/417 416/416/416 415/415/415
f 418/418/418 417/417/417 415/415/415
f 421/421/421 420/420/420 419/419/419
f 422/422/422 421/421/421 419/419/419
f 425/425/425 424/424/424 423/423/423
f 426/426/426 425/425/425 423/423/423
f 429/429/429 428/428/428 427/427/427
f 430/430/430 429/429/429 427/427/427
f 433/433/433 432/432/432 431/431/431
f 434/434/434 433/433/433 431/431/431
f 437/437/437 436/436/436 435/435/435
f 438/438/438 437/437/437 435/435/435
f 441/441/441 440/440/440 439/439/439
f 442/442/442 441/441/441 439/439/439
f 445/445/445 444/444/444 443/443/443
f 446/446/446 445/445/445 443/443/443
f 449/449/449 448/448/448 447/447/447
f 450/450/450 449/449/449 447/447/447
f 453/453/453 452/452/452 451/451/451
f 454/454/454 453/453/453 451/451/451
f 457/457/457 456/456/456 455/455/455
f 458/458/458 457/457/457 455/455/455
f 461/461/461 460/460/460 459/459/459
f 462/462/462 461/461/461 459/459/459
f 465/465/465 464/464/464 463/463/463
f 466/466/466 465/465/465 463/463/463
f 469/469/469 468/468/468 467/467/467
f 470/470/470 469/469/469 467/467/467
f 473/473/473 472/472/472 471/471/471
f 474/474/474 473/473/473 471/471/471
f 477/477/477 476/476/476 475/475/475
f 478/478/478 477/477/477 475/475/475
f 481/481/481 480/480/480 479/479/479
f 482/482/482 481/481/481 479/479/479
f 485/485/485 484/484/484 483/483/483
f 486/486/486 485/485/485 483/483/483
f 489/489/489 488/488/488 487/487/487
f 490/490/490 489/489/489 487/487/487
f 493/493/493 492/492/492 491/491/491
f 494/494/494 493/493/493 491/491/491
f 497/497/497 496/496/496 495/495/495
f 498/498/498 497/497/497 495/495/495
f 501/501/501 500/500/500 499/499/499
f 502/502/502 501/501/501 499/499/499
f 505/505/505 504/504/504 503/503/503
f 506/506/506 505/505/505 503/503/503
f 509/509/509 508/508/508 507/507/507
f 510/510/510 509/509/509 507/507/507
f 513/513/513 512/512/512 511/511/511
f 514/514/514 513/513/513 511/511/511
f 515/515/515 513/513/513 514/514/514
f 516/516/516 515/515/515 514/514/514
f 517/517/517 515/515/515 516/516/516
f 518/518/518 517/517/517 516/516/516
f 519/519/519 517/517/517 518/518/518
f 520/520/520 519/519/519 518/518/518
f 521/521/521 519/519/519 520/520/520
f 522/522/522 521/521/521 520/520/520
f 523/523/523 521/521/521 522/522/522
f 524/524/524 523/523/523 522/522/522
f 527/527/527 526/526/526 525/525/525
f 526/526/526 528/528/528 525/525/525
f 525/525/525 528/528/528 529/529/529
f 528/528/528 530/530/530 529/529/529
f 529/529/529 530/530/530 531/531/531
f 530/530/530 532/532/532 531/531/531
f 531/531/531 532/532/532 533/533/533
f 532/532/532 534/534/534 533/533/533
f 533/533/533 534/534/534 535/535/535
f 534/534/534 536/536/536 535/535/535
f 535/535/535 536/536/536 537/537/537
f 536/536/536 538/538/538 537/537/537
f 541/541/541 540/540/540 539/539/539
f 542/542/542 541/541/541 539/539/539
