g IS4_MDL_EscenarioGaraje_Carretilla_Manillar_1
v 1.31205738 1.14993083 0.154630721
v 1.31205738 1.2957083 0.154630721
v 1.45821953 1.2957083 0.154630721
v 1.45821953 1.14993083 0.154630721
v 1.31205738 1.2957083 0.154630721
v 1.31205738 1.2957083 -0.161039427
v 1.45821953 1.2957083 -0.161039427
v 1.45821953 1.2957083 0.154630721
v 1.31205738 1.2957083 -0.161039427
v 1.31205738 1.14993083 -0.161039427
v 1.45821953 1.14993083 -0.161039427
v 1.45821953 1.2957083 -0.161039427
v 1.31205738 1.14993083 -0.161039427
v 1.31205738 1.14993083 0.154630721
v 1.45821953 1.14993083 0.154630721
v 1.45821953 1.14993083 -0.161039427
v 1.45821953 1.14993083 0.154630721
v 1.45821953 1.2957083 0.154630721
v 1.45821953 1.2957083 -0.161039427
v 1.45821953 1.14993083 -0.161039427
v 1.31205738 1.14993083 -0.161039427
v 1.31205738 1.2957083 -0.161039427
v 1.31205738 1.2957083 0.154630721
v 1.31205738 1.14993083 0.154630721
v 1.32869947 1.1890204 0.44135192
v 1.32869947 1.25661874 0.44135192
v 1.38300717 1.28873134 0.44135192
v 1.38300717 1.1569078 0.44135192
v 1.44157743 1.1890204 0.44135192
v 1.44157743 1.25661874 0.44135192
v 1.32869947 1.25661874 0.44135192
v 1.32869947 1.25661874 -0.447760582
v 1.38300717 1.28873134 -0.447760582
v 1.38300717 1.28873134 0.44135192
v 1.32869947 1.25661874 -0.447760582
v 1.32869947 1.1890204 -0.447760582
v 1.38300717 1.1569078 -0.447760582
v 1.38300717 1.28873134 -0.447760582
v 1.44157743 1.25661874 -0.447760582
v 1.44157743 1.1890204 -0.447760582
v 1.32869947 1.1890204 -0.447760582
v 1.32869947 1.1890204 0.44135192
v 1.38300717 1.1569078 0.44135192
v 1.38300717 1.1569078 -0.447760582
v 1.44157743 1.1890204 0.44135192
v 1.44157743 1.25661874 0.44135192
v 1.44157743 1.25661874 -0.447760582
v 1.44157743 1.1890204 -0.447760582
v 1.32869947 1.1890204 -0.447760582
v 1.32869947 1.25661874 -0.447760582
v 1.32869947 1.25661874 0.44135192
v 1.32869947 1.1890204 0.44135192
v 1.38300717 1.28873134 0.44135192
v 1.38300717 1.28873134 -0.447760582
v 1.44157743 1.25661874 -0.447760582
v 1.44157743 1.25661874 0.44135192
v 1.38300717 1.1569078 0.44135192
v 1.44157743 1.1890204 0.44135192
v 1.44157743 1.1890204 -0.447760582
v 1.38300717 1.1569078 -0.447760582
v -0.021678362 -0.108715445 0.0748425201
v -0.0848343596 -0.0347138047 0.0748425201
v 1.34123266 1.27493811 0.0748425201
v 1.40438867 1.20093632 0.0748425201
v -0.0848343596 -0.0347138047 0.0748425201
v -0.0848343596 -0.0347138047 -0.0812512264
v 1.34123266 1.27493811 -0.0812512264
v 1.34123266 1.27493811 0.0748425201
v -0.0848343596 -0.0347138047 -0.0812512264
v -0.021678362 -0.108715445 -0.0812512264
v 1.40438867 1.20093632 -0.0812512264
v 1.34123266 1.27493811 -0.0812512264
v -0.021678362 -0.108715445 -0.0812512264
v -0.021678362 -0.108715445 0.0748425201
v 1.40438867 1.20093632 0.0748425201
v 1.40438867 1.20093632 -0.0812512264
v 1.40438867 1.20093632 0.0748425201
v 1.34123266 1.27493811 0.0748425201
v 1.34123266 1.27493811 -0.0812512264
v 1.40438867 1.20093632 -0.0812512264
v -0.021678362 -0.108715445 -0.0812512264
v -0.0848343596 -0.0347138047 -0.0812512264
v -0.0848343596 -0.0347138047 0.0748425201
v -0.021678362 -0.108715445 0.0748425201
vt 0.760742188 0.744628906
vt 0.733886719 0.744628906
vt 0.733886719 0.850585938
vt 0.760742188 0.850585938
vt 0.733398438 0.744140625
vt 0.733398438 0.852050781
vt 0.761230469 0.852050781
vt 0.761230469 0.744140625
vt 0.760742188 0.744628906
vt 0.733886719 0.744628906
vt 0.733886719 0.850585938
vt 0.760742188 0.850585938
vt 0.733398438 0.743652344
vt 0.733398438 0.8515625
vt 0.761230469 0.8515625
vt 0.761230469 0.743652344
vt 0.760742188 0.745605469
vt 0.733886719 0.745605469
vt 0.733886719 0.8515625
vt 0.760742188 0.8515625
vt 0.760742188 0.745117188
vt 0.733886719 0.745117188
vt 0.733886719 0.851074219
vt 0.760742188 0.851074219
vt 0.885253906 0.778808594
vt 0.885253906 0.751953125
vt 0.884765625 0.751953125
vt 0.884765625 0.778808594
vt 0.777832031 0.778808594
vt 0.777832031 0.751953125
vt 0.884765625 0.752441406
vt 0.77734375 0.751953125
vt 0.77734375 0.779296875
vt 0.884765625 0.779296875
vt 0.885253906 0.778808594
vt 0.885253906 0.751953125
vt 0.884765625 0.751953125
vt 0.884765625 0.778808594
vt 0.777832031 0.778808594
vt 0.777832031 0.751953125
vt 0.885253906 0.752441406
vt 0.777832031 0.752441406
vt 0.777832031 0.779296875
vt 0.885253906 0.779296875
vt 0.884277344 0.778808594
vt 0.884277344 0.751953125
vt 0.778320312 0.751953125
vt 0.778320312 0.778808594
vt 0.884765625 0.778808594
vt 0.884765625 0.751953125
vt 0.778808594 0.751953125
vt 0.778808594 0.778808594
vt 0.884765625 0.751464844
vt 0.77734375 0.751464844
vt 0.77734375 0.779296875
vt 0.884765625 0.779296875
vt 0.777832031 0.751464844
vt 0.777832031 0.779296875
vt 0.885253906 0.779296875
vt 0.885253906 0.751464844
vt 0.760742188 0.706054688
vt 0.733886719 0.706054688
vt 0.733886719 0.850585938
vt 0.760742188 0.850585938
vt 0.760742188 0.706054688
vt 0.733886719 0.706054688
vt 0.733886719 0.850585938
vt 0.760742188 0.850585938
vt 0.760742188 0.706054688
vt 0.733886719 0.706054688
vt 0.733886719 0.850585938
vt 0.760742188 0.850585938
vt 0.760742188 0.706054688
vt 0.733886719 0.706054688
vt 0.733886719 0.850585938
vt 0.760742188 0.850585938
vt 0.760742188 0.706054688
vt 0.733886719 0.706054688
vt 0.733886719 0.8515625
vt 0.760742188 0.8515625
vt 0.760742188 0.706054688
vt 0.733886719 0.706054688
vt 0.733886719 0.851074219
vt 0.760742188 0.851074219
vn -0 0 1
vn -0 0 1
vn -0 0 1
vn -0 0 1
vn -0 1 0
vn -0 1 0
vn -0 1 0
vn -0 1 0
vn -0 0 -1
vn -0 0 -1
vn -0 0 -1
vn -0 0 -1
vn -0 -1 0
vn -0 -1 0
vn -0 -1 0
vn -0 -1 0
vn 1 0 0
vn 1 0 0
vn 1 0 0
vn 1 0 0
vn -1 0 0
vn -1 0 0
vn -1 0 0
vn -1 0 0
vn -0 0 1
vn -0 0 1
vn 1.78813934E-06 0 1
vn 1.78813934E-06 0 1
vn 3.39746475E-06 0 1
vn 3.39746475E-06 0 1
vn -0.508789062 0.860839844 0
vn -0.508789062 0.860839844 0
vn -0 1 0
vn -0 1 0
vn -0 0 -1
vn -0 0 -1
vn -0 0 -1
vn -0 0 -1
vn -0 0 -1
vn -0 0 -1
vn -0.508789062 -0.860839844 0
vn -0.508789062 -0.860839844 0
vn -0 -1 0
vn -0 -1 0
vn 1 0 0
vn 1 0 0
vn 1 0 0
vn 1 0 0
vn -1 0 0
vn -1 0 0
vn -1 0 0
vn -1 0 0
vn -0 1 0
vn -0 1 0
vn 0.480712891 0.876953125 0
vn 0.480712891 0.876953125 0
vn -0 -1 0
vn 0.480712891 -0.876953125 0
vn 0.480712891 -0.876953125 0
vn -0 -1 0
vn -1.66893005E-06 0 1
vn -1.66893005E-06 0 1
vn -1.66893005E-06 0 1
vn -1.66893005E-06 0 1
vn -0.676269531 0.736328125 0
vn -0.676269531 0.736328125 0
vn -0.676269531 0.736328125 0
vn -0.676269531 0.736328125 0
vn 8.34465027E-07 0 -1
vn 8.34465027E-07 0 -1
vn 8.34465027E-07 0 -1
vn 8.34465027E-07 0 -1
vn 0.676269531 -0.736328125 0
vn 0.676269531 -0.736328125 0
vn 0.676269531 -0.736328125 0
vn 0.676269531 -0.736328125 0
vn 0.760742188 0.648925781 0
vn 0.760742188 0.648925781 0
vn 0.760742188 0.648925781 0
vn 0.760742188 0.648925781 0
vn -0.760742188 -0.648925781 0
vn -0.760742188 -0.648925781 0
vn -0.760742188 -0.648925781 0
vn -0.760742188 -0.648925781 0
g IS4_MDL_EscenarioGaraje_Carretilla_Manillar_1_0
f 3/3/3 2/2/2 1/1/1
f 4/4/4 3/3/3 1/1/1
f 7/7/7 6/6/6 5/5/5
f 8/8/8 7/7/7 5/5/5
f 11/11/11 10/10/10 9/9/9
f 12/12/12 11/11/11 9/9/9
f 15/15/15 14/14/14 13/13/13
f 16/16/16 15/15/15 13/13/13
f 19/19/19 18/18/18 17/17/17
f 20/20/20 19/19/19 17/17/17
f 23/23/23 22/22/22 21/21/21
f 24/24/24 23/23/23 21/21/21
f 27/27/27 26/26/26 25/25/25
f 28/28/28 27/27/27 25/25/25
f 28/28/28 29/29/29 27/27/27
f 29/29/29 30/30/30 27/27/27
f 33/33/33 32/32/32 31/31/31
f 34/34/34 33/33/33 31/31/31
f 37/37/37 36/36/36 35/35/35
f 38/38/38 37/37/37 35/35/35
f 38/38/38 39/39/39 37/37/37
f 39/39/39 40/40/40 37/37/37
f 43/43/43 42/42/42 41/41/41
f 44/44/44 43/43/43 41/41/41
f 47/47/47 46/46/46 45/45/45
f 48/48/48 47/47/47 45/45/45
f 51/51/51 50/50/50 49/49/49
f 52/52/52 51/51/51 49/49/49
f 55/55/55 54/54/54 53/53/53
f 56/56/56 55/55/55 53/53/53
f 59/59/59 58/58/58 57/57/57
f 60/60/60 59/59/59 57/57/57
f 63/63/63 62/62/62 61/61/61
f 64/64/64 63/63/63 61/61/61
f 67/67/67 66/66/66 65/65/65
f 68/68/68 67/67/67 65/65/65
f 71/71/71 70/70/70 69/69/69
f 72/72/72 71/71/71 69/69/69
f 75/75/75 74/74/74 73/73/73
f 76/76/76 75/75/75 73/73/73
f 79/79/79 78/78/78 77/77/77
f 80/80/80 79/79/79 77/77/77
f 83/83/83 82/82/82 81/81/81
f 84/84/84 83/83/83 81/81/81
