g Railing_Stairs_2
v 2.49745679 1.34203041 -0.0729891211
v 0.446433812 -0.369304657 -0.0729891211
v 0.446433812 -0.369304657 -0.00975669827
v 2.49745679 1.34203041 -0.00975669827
v 2.49745679 1.39952922 -0.00975669827
v 0.446433812 -0.311805874 -0.00975669827
v 0.446433812 -0.311805874 -0.0729891211
v 2.49745679 1.39952922 -0.0729891211
v 2.49745679 1.34203041 -0.00975669827
v 0.446433812 -0.369304657 -0.00975669827
v 0.446433812 -0.311805874 -0.00975669827
v 2.49745679 1.39952922 -0.00975669827
v 2.49745679 1.39952922 -0.0729891211
v 0.446433812 -0.311805874 -0.0729891211
v 0.446433812 -0.369304657 -0.0729891211
v 2.49745679 1.34203041 -0.0729891211
v 2.49745679 1.82323468 -0.0729891211
v 0.446433812 0.111899257 -0.0729891211
v 0.446433812 0.111899562 0.0713809952
v 2.49745679 1.82323468 0.0729886591
v 2.49745679 1.87671363 0.0729886591
v 0.446433812 0.165378258 0.0729886591
v 0.446433812 0.165378258 -0.0729891211
v 2.49745679 1.87671363 -0.0729891211
v 2.49745679 1.82323468 0.0729886591
v 0.446433812 0.111899562 0.0713809952
v 0.446433812 0.165378258 0.0729886591
v 2.49745679 1.87671363 0.0729886591
v 2.49745679 1.87671363 -0.0729891211
v 0.446433812 0.165378258 -0.0729891211
v 0.446433812 0.111899257 -0.0729891211
v 2.49745679 1.82323468 -0.0729891211
v -0.561202884 -0.369304657 -0.00975669827
v 0.446433812 -0.369304657 -0.00975669827
v 0.446433812 -0.369304657 -0.0729891211
v -0.561202884 -0.369304657 -0.0729891211
v -0.561202884 -0.311805874 -0.0729891211
v 0.446433812 -0.311805874 -0.0729891211
v 0.446433812 -0.311805874 -0.00975669827
v -0.561202884 -0.311805874 -0.00975669827
v -0.561202884 -0.369304657 -0.00975669827
v 0.446433812 -0.311805874 -0.00975669827
v 0.446433812 -0.369304657 -0.00975669827
v -0.561202884 -0.311805874 -0.00975669827
v -2.49745774 -1.81921494 -0.00975669827
v -2.49745774 -1.87671363 -0.00975669827
v 0.446433812 -0.369304657 -0.0729891211
v 0.446433812 -0.311805874 -0.0729891211
v -0.561202884 -0.311805874 -0.0729891211
v -0.561202884 -0.369304657 -0.0729891211
v -2.49745774 -1.87671363 -0.0729891211
v -2.49745774 -1.81921494 -0.0729891211
v -0.561202884 0.165378571 -0.0729891211
v 0.446433812 0.165378258 -0.0729891211
v 0.446433812 0.165378258 0.0729886591
v -0.561202884 0.165378571 0.0729886591
v 0.446433812 0.111899257 -0.0729891211
v 0.446433812 0.165378258 -0.0729891211
v -0.561202884 0.165378571 -0.0729891211
v -0.561202884 0.111899562 -0.0729891211
v -2.49745774 -1.39550948 -0.0729891211
v -2.49745774 -1.34203041 -0.0729891211
v -0.561202884 -0.369304657 -0.0729891211
v -2.49745774 -1.87671363 -0.0729891211
v -2.49745774 -1.87671363 -0.00975669827
v -0.561202884 -0.369304657 -0.00975669827
v -0.561202884 -0.311805874 -0.00975669827
v -2.49745774 -1.81921494 -0.00975669827
v -2.49745774 -1.81921494 -0.0729891211
v -0.561202884 -0.311805874 -0.0729891211
v -0.561202884 0.111899562 -0.0729891211
v -2.49745774 -1.39550948 -0.0729891211
v -2.49745774 -1.39550948 0.0729886591
v -0.561202884 0.111899562 0.0729886591
v -0.561202884 0.165378571 0.0729886591
v -2.49745774 -1.34203041 0.0729886591
v -2.49745774 -1.34203041 -0.0729891211
v -0.561202884 0.165378571 -0.0729891211
v -0.561202884 0.111899562 0.0729886591
v -2.49745774 -1.39550948 0.0729886591
v -2.49745774 -1.34203041 0.0729886591
v -0.561202884 0.165378571 0.0729886591
v -0.561202884 0.111899562 0.0729886591
v -0.561202884 0.165378571 0.0729886591
v 0.446433812 0.165378258 0.0729886591
v 0.446433812 0.111899562 0.0713809952
v -0.561202884 0.111899562 0.0729886591
v 0.446433812 0.111899562 0.0713809952
v 0.446433812 0.111899257 -0.0729891211
v -0.561202884 0.111899562 -0.0729891211
v -2.49745774 -1.39550948 -0.0729891211
v -2.49745774 -1.34203041 -0.0729891211
v -2.49745774 -1.34203041 0.0729886591
v -2.49745774 -1.39550948 0.0729886591
v -2.49745774 -1.87671363 -0.0729891211
v -2.49745774 -1.81921494 -0.0729891211
v -2.49745774 -1.81921494 -0.00975669827
v -2.49745774 -1.87671363 -0.00975669827
vt 0.671875 0.938964844
vt 0.504882812 0.938964844
vt 0.504882812 0.913085938
vt 0.671875 0.913085938
vt 0.808105469 0.938964844
vt 0.641601562 0.938964844
vt 0.641601562 0.913085938
vt 0.808105469 0.913085938
vt 0.669433594 0.913085938
vt 0.495849609 0.913085938
vt 0.495849609 0.943359375
vt 0.669433594 0.943359375
vt 0.584960938 0.943359375
vt 0.751464844 0.943359375
vt 0.751464844 0.913085938
vt 0.584960938 0.913085938
vt 0.58203125 0.938964844
vt 0.861816406 0.938964844
vt 0.861816406 0.913085938
vt 0.58203125 0.913085938
vt 0.602050781 0.938964844
vt 0.818847656 0.938964844
vt 0.818847656 0.913085938
vt 0.602050781 0.913085938
vt 0.673339844 0.913085938
vt 0.506347656 0.913085938
vt 0.506347656 0.938964844
vt 0.673339844 0.938964844
vt 0.585449219 0.943359375
vt 0.751464844 0.943359375
vt 0.751464844 0.913085938
vt 0.585449219 0.913085938
vt 0.671875 0.913085938
vt 0.751464844 0.913085938
vt 0.751464844 0.938964844
vt 0.671875 0.938964844
vt 0.817382812 0.913085938
vt 0.551269531 0.913085938
vt 0.551269531 0.938964844
vt 0.817382812 0.938964844
vt 0.669433594 0.913085938
vt 0.751464844 0.943359375
vt 0.751464844 0.913085938
vt 0.669433594 0.943359375
vt 0.495849609 0.943359375
vt 0.495849609 0.913085938
vt 0.50390625 0.913085938
vt 0.50390625 0.943359375
vt 0.584960938 0.943359375
vt 0.584960938 0.913085938
vt 0.751464844 0.913085938
vt 0.751464844 0.943359375
vt 0.602050781 0.913085938
vt 0.500488281 0.913085938
vt 0.500488281 0.938964844
vt 0.602050781 0.938964844
vt 0.507324219 0.913085938
vt 0.507324219 0.943359375
vt 0.585449219 0.943359375
vt 0.585449219 0.913085938
vt 0.751464844 0.913085938
vt 0.751464844 0.943359375
vt 0.671875 0.938964844
vt 0.504882812 0.938964844
vt 0.504882812 0.913085938
vt 0.671875 0.913085938
vt 0.808105469 0.938964844
vt 0.641601562 0.938964844
vt 0.641601562 0.913085938
vt 0.808105469 0.913085938
vt 0.58203125 0.938964844
vt 0.861816406 0.938964844
vt 0.861816406 0.913085938
vt 0.58203125 0.913085938
vt 0.602050781 0.938964844
vt 0.818847656 0.938964844
vt 0.818847656 0.913085938
vt 0.602050781 0.913085938
vt 0.673339844 0.913085938
vt 0.506347656 0.913085938
vt 0.506347656 0.938964844
vt 0.673339844 0.938964844
vt 0.673339844 0.913085938
vt 0.673339844 0.938964844
vt 0.751464844 0.938964844
vt 0.750976562 0.913085938
vt 0.58203125 0.913085938
vt 0.451171875 0.913085938
vt 0.450439453 0.938964844
vt 0.58203125 0.938964844
vt 0.650390625 0.938964844
vt 0.650390625 0.913574219
vt 0.589355469 0.913574219
vt 0.589355469 0.938964844
vt 0.637207031 0.938964844
vt 0.637207031 0.913574219
vt 0.610839844 0.913574219
vt 0.610839844 0.938964844
vn 0.640625 -0.768066406 0
vn 0.640625 -0.768066406 0
vn 0.640625 -0.768066406 0
vn 0.640625 -0.768066406 0
vn -0.640625 0.768066406 0
vn -0.640625 0.768066406 0
vn -0.640625 0.768066406 0
vn -0.640625 0.768066406 0
vn -0 0 1
vn -0 0 1
vn -0 0 1
vn -0 0 1
vn -0 0 -1
vn -0 0 -1
vn -0 0 -1
vn -0 0 -1
vn 0.640625 -0.768066406 0
vn 0.640625 -0.768066406 0
vn 0.640625 -0.768066406 0
vn 0.640625 -0.768066406 0
vn -0.640625 0.768066406 0
vn -0.640625 0.768066406 0
vn -0.640625 0.768066406 0
vn -0.640625 0.768066406 0
vn 0.0121612549 -0.0150299072 1
vn 0.0121612549 -0.0150299072 1
vn 0.0121612549 -0.0150299072 1
vn 0.0121612549 -0.0150299072 1
vn -0 0 -1
vn -0 0 -1
vn -0 0 -1
vn -0 0 -1
vn -0 -1 0
vn -0 -1 0
vn -0 -1 0
vn -0 -1 0
vn -0 1 0
vn -0 1 0
vn -0 1 0
vn -0 1 0
vn -0 0 1
vn -0 0 1
vn -0 0 1
vn -0 0 1
vn -0 0 1
vn -0 0 1
vn -0 0 -1
vn -0 0 -1
vn -0 0 -1
vn -0 0 -1
vn -0 0 -1
vn -0 0 -1
vn 2.98023224E-07 1 0
vn 2.98023224E-07 1 0
vn 2.98023224E-07 1 0
vn 2.98023224E-07 1 0
vn -0 0 -1
vn -0 0 -1
vn -0 0 -1
vn -0 0 -1
vn -0 0 -1
vn -0 0 -1
vn 0.614257812 -0.7890625 0
vn 0.614257812 -0.7890625 0
vn 0.614257812 -0.7890625 0
vn 0.614257812 -0.7890625 0
vn -0.614257812 0.7890625 0
vn -0.614257812 0.7890625 0
vn -0.614257812 0.7890625 0
vn -0.614257812 0.7890625 0
vn 0.614257812 -0.7890625 0
vn 0.614257812 -0.7890625 0
vn 0.614257812 -0.7890625 0
vn 0.614257812 -0.7890625 0
vn -0.614257812 0.7890625 0
vn -0.614257812 0.7890625 0
vn -0.614257812 0.7890625 0
vn -0.614257812 0.7890625 0
vn -0 0 1
vn -0 0 1
vn -0 0 1
vn -0 0 1
vn 0.000798225403 -0.0150299072 1
vn 0.000798225403 -0.0150299072 1
vn 0.000798225403 -0.0150299072 1
vn 0.000798225403 -0.0150299072 1
vn -1.78813934E-07 -1 1.31130219E-06
vn -1.78813934E-07 -1 1.31130219E-06
vn -1.78813934E-07 -1 1.31130219E-06
vn -1.78813934E-07 -1 1.31130219E-06
vn -1 0 0
vn -1 0 0
vn -1 0 0
vn -1 0 0
vn -1 0 0
vn -1 0 0
vn -1 0 0
vn -1 0 0
g Railing_Stairs_2_0
f 3/3/3 2/2/2 1/1/1
f 4/4/4 3/3/3 1/1/1
f 7/7/7 6/6/6 5/5/5
f 8/8/8 7/7/7 5/5/5
f 11/11/11 10/10/10 9/9/9
f 12/12/12 11/11/11 9/9/9
f 15/15/15 14/14/14 13/13/13
f 16/16/16 15/15/15 13/13/13
f 19/19/19 18/18/18 17/17/17
f 20/20/20 19/19/19 17/17/17
f 23/23/23 22/22/22 21/21/21
f 24/24/24 23/23/23 21/21/21
f 27/27/27 26/26/26 25/25/25
f 28/28/28 27/27/27 25/25/25
f 31/31/31 30/30/30 29/29/29
f 32/32/32 31/31/31 29/29/29
f 35/35/35 34/34/34 33/33/33
f 36/36/36 35/35/35 33/33/33
f 39/39/39 38/38/38 37/37/37
f 40/40/40 39/39/39 37/37/37
f 43/43/43 42/42/42 41/41/41
f 42/42/42 44/44/44 41/41/41
f 44/44/44 45/45/45 41/41/41
f 45/45/45 46/46/46 41/41/41
f 49/49/49 48/48/48 47/47/47
f 50/50/50 49/49/49 47/47/47
f 50/50/50 51/51/51 49/49/49
f 51/51/51 52/52/52 49/49/49
f 55/55/55 54/54/54 53/53/53
f 56/56/56 55/55/55 53/53/53
f 59/59/59 58/58/58 57/57/57
f 60/60/60 59/59/59 57/57/57
f 60/60/60 61/61/61 59/59/59
f 61/61/61 62/62/62 59/59/59
f 65/65/65 64/64/64 63/63/63
f 66/66/66 65/65/65 63/63/63
f 69/69/69 68/68/68 67/67/67
f 70/70/70 69/69/69 67/67/67
f 73/73/73 72/72/72 71/71/71
f 74/74/74 73/73/73 71/71/71
f 77/77/77 76/76/76 75/75/75
f 78/78/78 77/77/77 75/75/75
f 81/81/81 80/80/80 79/79/79
f 82/82/82 81/81/81 79/79/79
f 85/85/85 84/84/84 83/83/83
f 86/86/86 85/85/85 83/83/83
f 89/89/89 88/88/88 87/87/87
f 90/90/90 89/89/89 87/87/87
f 93/93/93 92/92/92 91/91/91
f 94/94/94 93/93/93 91/91/91
f 97/97/97 96/96/96 95/95/95
f 98/98/98 97/97/97 95/95/95
