g HydraulicJack
v 0.177328989 -0.275358379 0.0252703037
v 0.173582613 -0.201543346 0.00129150983
v 0.177226067 -0.275358379 0.00127587433
v 0.173685566 -0.201543346 0.0252859425
v 0.154072896 -0.176155999 0.00137526146
v 0.154175818 -0.176155999 0.0253696479
v 0.149884865 -0.275358319 0.00139320968
v 0.177226067 -0.275358379 0.00127587433
v 0.173582613 -0.201543346 0.00129150983
v 0.157196254 -0.210483581 0.00136184331
v 0.154072896 -0.176155999 0.00137526146
v 0.144468099 -0.200937644 0.00141649845
v 0.157299221 -0.210483581 0.025356276
v 0.177328989 -0.275358379 0.0252703037
v 0.149987817 -0.275358319 0.025387641
v 0.173685566 -0.201543346 0.0252859425
v 0.144571066 -0.200937644 0.0254108813
v 0.154175818 -0.176155999 0.0253696479
v 0.144468099 -0.200937644 0.00141649845
v 0.154072896 -0.176155999 0.00137526146
v 0.154175818 -0.176155999 0.0253696479
v 0.144571066 -0.200937644 0.0254108813
v 0.149884865 -0.275358319 0.00139320968
v 0.149987817 -0.275358319 0.025387641
v 0.177328989 -0.275358379 0.0252703037
v 0.177226067 -0.275358379 0.00127587433
v 0.117022656 -0.275358379 0.146356955
v 0.131237894 -0.201543346 0.126686051
v 0.133837149 -0.275358379 0.129239276
v 0.114423394 -0.201543346 0.14380376
v 0.117319554 -0.176155999 0.113014325
v 0.100505091 -0.176155999 0.13013199
v 0.114331841 -0.275358319 0.11007949
v 0.133837149 -0.275358379 0.129239276
v 0.131237894 -0.201543346 0.126686051
v 0.119547792 -0.210483581 0.11520306
v 0.117319554 -0.176155999 0.113014325
v 0.110467479 -0.200937644 0.106283642
v 0.102733292 -0.210483581 0.132320777
v 0.117022656 -0.275358379 0.146356955
v 0.0975173041 -0.275358319 0.127197191
v 0.114423394 -0.201543346 0.14380376
v 0.0936529785 -0.200937644 0.123401314
v 0.100505091 -0.176155999 0.13013199
v 0.110467479 -0.200937644 0.106283642
v 0.117319554 -0.176155999 0.113014325
v 0.100505091 -0.176155999 0.13013199
v 0.0936529785 -0.200937644 0.123401314
v 0.114331841 -0.275358319 0.11007949
v 0.0975173041 -0.275358319 0.127197191
v 0.117022656 -0.275358379 0.146356955
v 0.133837149 -0.275358379 0.129239276
v -0.0110405814 -0.275358379 0.189930499
v 0.0129024042 -0.201543346 0.185961455
v 0.0129518807 -0.275358379 0.18960464
v -0.0110900579 -0.201543346 0.186287344
v 0.0126373963 -0.176155999 0.166453362
v -0.0113550266 -0.176155999 0.166779205
v 0.0125805195 -0.275358319 0.162265703
v 0.0129518807 -0.275358379 0.18960464
v 0.0129024042 -0.201543346 0.185961455
v 0.0126798162 -0.210483581 0.169576496
v 0.0126373963 -0.176155999 0.166453362
v 0.0125068957 -0.200937644 0.156849414
v -0.0113126077 -0.210483581 0.16990234
v -0.0110405814 -0.275358379 0.189930499
v -0.0114119034 -0.275358319 0.162591547
v -0.0110900579 -0.201543346 0.186287344
v -0.0114854891 -0.200937644 0.157175258
v -0.0113550266 -0.176155999 0.166779205
v 0.0125068957 -0.200937644 0.156849414
v 0.0126373963 -0.176155999 0.166453362
v -0.0113550266 -0.176155999 0.166779205
v -0.0114854891 -0.200937644 0.157175258
v 0.0125805195 -0.275358319 0.162265703
v -0.0114119034 -0.275358319 0.162591547
v -0.0110405814 -0.275358379 0.189930499
v 0.0129518807 -0.275358379 0.18960464
v -0.132682309 -0.275358379 0.130751669
v -0.112880141 -0.201543346 0.144783556
v -0.115409136 -0.275358379 0.147406429
v -0.130153313 -0.201543346 0.128128797
v -0.0993383452 -0.176155999 0.130738795
v -0.116611525 -0.176155999 0.11408408
v -0.0964313969 -0.275358319 0.127723917
v -0.115409136 -0.275358379 0.147406429
v -0.112880141 -0.201543346 0.144783556
v -0.101506315 -0.210483581 0.132987276
v -0.0993383452 -0.176155999 0.130738795
v -0.0926716328 -0.200937644 0.12382447
v -0.118779495 -0.210483581 0.116332538
v -0.132682309 -0.275358379 0.130751669
v -0.113704577 -0.275358319 0.111069173
v -0.130153313 -0.201543346 0.128128797
v -0.109944731 -0.200937644 0.107169762
v -0.116611525 -0.176155999 0.11408408
v -0.0926716328 -0.200937644 0.12382447
v -0.0993383452 -0.176155999 0.130738795
v -0.116611525 -0.176155999 0.11408408
v -0.109944731 -0.200937644 0.107169762
v -0.0964313969 -0.275358319 0.127723917
v -0.113704577 -0.275358319 0.111069173
v -0.132682309 -0.275358379 0.130751669
v -0.115409136 -0.275358379 0.147406429
v -0.177329138 -0.275358379 0.00114673376
v -0.173401073 -0.201543346 0.0250964463
v -0.177044332 -0.275358379 0.0251396988
v -0.173685864 -0.201543346 0.00110347988
v -0.153892562 -0.176155999 0.0248648189
v -0.154177368 -0.176155999 0.000871896744
v -0.149704784 -0.275358319 0.0248151273
v -0.177044332 -0.275358379 0.0251396988
v -0.173401073 -0.201543346 0.0250964463
v -0.157015726 -0.210483581 0.0249019098
v -0.153892562 -0.176155999 0.0248648189
v -0.144288376 -0.200937644 0.0247507803
v -0.157300532 -0.210483581 0.000908945804
v -0.177329138 -0.275358379 0.00114673376
v -0.14998959 -0.275358319 0.000822161441
v -0.173685864 -0.201543346 0.00110347988
v -0.144573182 -0.200937644 0.000757867063
v -0.154177368 -0.176155999 0.000871896744
v -0.144288376 -0.200937644 0.0247507803
v -0.153892562 -0.176155999 0.0248648189
v -0.154177368 -0.176155999 0.000871896744
v -0.144573182 -0.200937644 0.000757867063
v -0.149704784 -0.275358319 0.0248151273
v -0.14998959 -0.275358319 0.000822161441
v -0.177329138 -0.275358379 0.00114673376
v -0.177044332 -0.275358379 0.0251396988
v -0.116472743 -0.275358379 -0.12168356
v -0.130755201 -0.201543346 -0.102061383
v -0.133345768 -0.275358379 -0.104623497
v -0.113882184 -0.201543346 -0.119121455
v -0.11688374 -0.176155999 -0.0883421227
v -0.100010805 -0.176155999 -0.105402149
v -0.113906063 -0.275358319 -0.0853970721
v -0.133345768 -0.275358379 -0.104623497
v -0.130755201 -0.201543346 -0.102061383
v -0.11910443 -0.210483581 -0.0905384794
v -0.11688374 -0.176155999 -0.0883421227
v -0.110054746 -0.200937644 -0.0815880299
v -0.102231488 -0.210483581 -0.107598551
v -0.116472743 -0.275358379 -0.12168356
v -0.0970330536 -0.275358319 -0.102457136
v -0.113882184 -0.201543346 -0.119121455
v -0.0931817293 -0.200937644 -0.0986480713
v -0.100010805 -0.176155999 -0.105402149
v -0.110054746 -0.200937644 -0.0815880299
v -0.11688374 -0.176155999 -0.0883421227
v -0.100010805 -0.176155999 -0.105402149
v -0.0931817293 -0.200937644 -0.0986480713
v -0.113906063 -0.275358319 -0.0853970721
v -0.0970330536 -0.275358319 -0.102457136
v -0.116472743 -0.275358379 -0.12168356
v -0.133345768 -0.275358379 -0.104623497
v 0.00974085927 -0.275358379 -0.164939031
v -0.014170235 -0.201543346 -0.160782427
v -0.0142482836 -0.275358379 -0.16442512
v 0.00981890783 -0.201543346 -0.161296338
v -0.0137523348 -0.176155999 -0.141277
v 0.0102367699 -0.176155999 -0.141790926
v -0.0136626512 -0.275358319 -0.137089893
v -0.0142482836 -0.275358379 -0.16442512
v -0.014170235 -0.201543346 -0.160782427
v -0.0138192447 -0.210483581 -0.144399703
v -0.0137523348 -0.176155999 -0.141277
v -0.0135465702 -0.200937644 -0.131674349
v 0.0101698982 -0.210483581 -0.144913629
v 0.00974085927 -0.275358379 -0.164939031
v 0.0103265299 -0.275358319 -0.137603834
v 0.00981890783 -0.201543346 -0.161296338
v 0.0104425345 -0.200937644 -0.13218829
v 0.0102367699 -0.176155999 -0.141790926
v -0.0135465702 -0.200937644 -0.131674349
v -0.0137523348 -0.176155999 -0.141277
v 0.0102367699 -0.176155999 -0.141790926
v 0.0104425345 -0.200937644 -0.13218829
v -0.0136626512 -0.275358319 -0.137089893
v 0.0103265299 -0.275358319 -0.137603834
v 0.00974085927 -0.275358379 -0.164939031
v -0.0142482836 -0.275358379 -0.16442512
v 0.137189314 -0.275358379 -0.100526139
v 0.11793723 -0.201543346 -0.115303665
v 0.120564483 -0.275358379 -0.117828108
v 0.134562105 -0.201543346 -0.0980017185
v 0.1038692 -0.176155999 -0.10178607
v 0.120493993 -0.176155999 -0.084484145
v 0.100849256 -0.275358319 -0.0988843516
v 0.120564483 -0.275358379 -0.117828108
v 0.11793723 -0.201543346 -0.115303665
v 0.106121354 -0.210483581 -0.103950158
v 0.1038692 -0.176155999 -0.10178607
v 0.0969433859 -0.200937644 -0.0951312631
v 0.122746229 -0.210483581 -0.0866482034
v 0.137189314 -0.275358379 -0.100526139
v 0.117474087 -0.275358319 -0.0815824047
v 0.134562105 -0.201543346 -0.0980017185
v 0.113568217 -0.200937644 -0.0778293461
v 0.120493993 -0.176155999 -0.084484145
v 0.0969433859 -0.200937644 -0.0951312631
v 0.1038692 -0.176155999 -0.10178607
v 0.120493993 -0.176155999 -0.084484145
v 0.113568217 -0.200937644 -0.0778293461
v 0.100849256 -0.275358319 -0.0988843516
v 0.117474087 -0.275358319 -0.0815824047
v 0.137189314 -0.275358379 -0.100526139
v 0.120564483 -0.275358379 -0.117828108
v -0.0618846603 -0.276168615 0.162049398
v 4.56152047E-05 -0.265988111 0.180326998
v 4.56152047E-05 -0.276168615 0.174368203
v -0.064165011 -0.265988111 0.167554662
v -0.11438664 -0.276168615 0.126968741
v 4.56152047E-05 -0.210483581 0.180326998
v -0.118600354 -0.265988111 0.131182224
v -0.149467289 -0.276168615 0.0744667128
v -0.064165011 -0.210483581 0.167554662
v 4.56152047E-05 -0.200937584 0.167095184
v -0.0591014549 -0.200937584 0.155329958
v -0.118600354 -0.210483581 0.131182224
v -0.1092439 -0.200937644 0.121825941
v -0.154972732 -0.265988111 0.0767470598
v -0.161786154 -0.276168615 0.0125363981
v -0.154972732 -0.210483581 0.0767470598
v -0.142747924 -0.200937584 0.0716834813
v -0.16774486 -0.265988111 0.0125363991
v -0.149467289 -0.276168615 -0.049393896
v -0.16774486 -0.210483581 0.0125363991
v -0.154513061 -0.200937644 0.0125364019
v -0.154972583 -0.265988111 -0.0516742468
v -0.114386566 -0.276168615 -0.101895884
v -0.154972583 -0.210483581 -0.0516742468
v -0.142747849 -0.200937644 -0.0466106497
v -0.118600205 -0.265988111 -0.106109396
v -0.061884582 -0.276168615 -0.13697651
v -0.118600205 -0.210483581 -0.106109396
v -0.109243743 -0.200937644 -0.0967530683
v -0.0641649291 -0.265988111 -0.142481789
v 4.57296446E-05 -0.276168615 -0.1492953
v -0.0641649291 -0.210483581 -0.142481789
v -0.0591013804 -0.200937644 -0.13025704
v 4.57296446E-05 -0.265988111 -0.155254021
v 0.0619760416 -0.276168615 -0.136976466
v 4.57296446E-05 -0.210483581 -0.155254021
v 4.57296446E-05 -0.200937644 -0.142022252
v 0.0642563924 -0.265988111 -0.142481655
v 0.114478022 -0.276168615 -0.101895742
v 0.0642563924 -0.210483581 -0.142481655
v 0.0591927245 -0.200937644 -0.13025704
v 0.118691511 -0.265988111 -0.106109284
v 0.149558589 -0.276168615 -0.0493937954
v 0.118691511 -0.210483581 -0.106109284
v 0.109335199 -0.200937644 -0.0967529342
v 0.155063882 -0.265988111 -0.0516740978
v 0.161877394 -0.276168615 0.0125364559
v 0.155063882 -0.210483581 -0.0516740978
v 0.142839223 -0.200937644 -0.0466105454
v 0.167836189 -0.265988201 0.0125364587
v 0.149558589 -0.276168615 0.0744667873
v 0.167836189 -0.210483581 0.0125364587
v 0.15460436 -0.200937584 0.0125364559
v 0.155063882 -0.265988201 0.076747112
v 0.114477947 -0.276168615 0.126968756
v 0.155063882 -0.210483581 0.076747112
v 0.142839149 -0.200937584 0.071683526
v 0.118691429 -0.265988201 0.131182253
v 0.0619759634 -0.276168615 0.162049398
v 0.118691429 -0.210483581 0.131182253
v 0.109335124 -0.200937584 0.121825956
v 0.0642562732 -0.265988201 0.167554662
v 4.56152047E-05 -0.276168615 0.174368203
v 4.56152047E-05 -0.265988111 0.180326998
v 0.0642562732 -0.210483581 0.167554662
v 0.0591926835 -0.200937584 0.155329958
v 4.56152047E-05 -0.210483581 0.180326998
v 4.56152047E-05 -0.200937584 0.167095184
v -0.0591014549 -0.200937584 0.155329958
v 4.56152047E-05 0.115801789 0.167095184
v 4.56152047E-05 -0.200937584 0.167095184
v -0.0591014549 0.115801789 0.155329958
v -0.1092439 -0.200937644 0.121825941
v 4.56152047E-05 0.161791191 0.146567151
v -0.1092439 0.115801729 0.121825941
v -0.142747924 -0.200937584 0.0716834813
v -0.0512458123 0.161791191 0.136364609
v 4.56152047E-05 0.186656579 0.116474129
v -0.142747924 0.115801789 0.0716834813
v -0.154513061 -0.200937644 0.0125364019
v -0.09472844 0.161791146 0.107310466
v -0.0397296213 0.186656579 0.108562313
v 4.56152047E-05 0.194905475 0.0912650749
v -0.0300825201 0.194905475 0.0852722153
v -0.0734494478 0.186656564 0.0860314742
v -0.0556239784 0.194905475 0.0682059973
v -0.154513061 0.115801729 0.0125364019
v -0.142747849 -0.200937644 -0.0466106497
v -0.123782545 0.161791191 0.063827768
v -0.0959802717 0.186656579 0.0523116775
v -0.072690174 0.194905475 0.0426646024
v -0.142747849 0.115801729 -0.0466106497
v -0.109243743 -0.200937644 -0.0967530683
v -0.133985028 0.161791146 0.0125364102
v -0.103891954 0.186656564 0.0125364205
v -0.0786829814 0.194905475 0.0125364298
v -0.109243743 0.115801729 -0.0967530683
v -0.0591013804 -0.200937644 -0.13025704
v -0.123782471 0.161791146 -0.0387549214
v -0.0959801972 0.186656564 -0.0272388067
v -0.072690174 0.194905475 -0.017591713
v -0.0591013804 0.115801729 -0.13025704
v 4.57296446E-05 -0.200937644 -0.142022252
v -0.0947282836 0.161791146 -0.0822375864
v -0.0734493732 0.186656564 -0.0609585978
v -0.0556238256 0.194905475 -0.0431331135
v 4.57296446E-05 0.115801729 -0.142022252
v 0.0591927245 -0.200937644 -0.13025704
v -0.0512456968 0.161791146 -0.111291699
v -0.039729584 0.186656564 -0.0834893957
v -0.0300824828 0.194905475 -0.060199298
v 0.0591927245 0.115801729 -0.13025704
v 0.109335199 -0.200937644 -0.0967529342
v 4.57296446E-05 0.161791146 -0.121494234
v 4.57296446E-05 0.186656564 -0.0914012119
v 4.57296446E-05 0.194905475 -0.066192165
v 0.109335199 0.115801729 -0.0967529342
v 0.142839223 -0.200937644 -0.0466105454
v 0.0513369255 0.161791146 -0.111291677
v 0.0398208909 0.186656564 -0.0834893659
v 0.0301738251 0.194905475 -0.0601992719
v 0.142839223 0.115801729 -0.0466105454
v 0.15460436 -0.200937584 0.0125364559
v 0.094819665 0.161791146 -0.0822374597
v 0.0735407546 0.186656564 -0.0609585084
v 0.0557152443 0.194905475 -0.0431330539
v 0.15460436 0.115801789 0.0125364559
v 0.142839149 -0.200937584 0.071683526
v 0.123873815 0.161791146 -0.0387548283
v 0.0960714966 0.186656564 -0.0272387359
v 0.0727814361 0.194905475 -0.0175916627
v 0.142839149 0.115801789 0.071683526
v 0.109335124 -0.200937584 0.121825956
v 0.134076342 0.161791191 0.0125364577
v 0.103983335 0.186656579 0.0125364577
v 0.0787743255 0.194905475 0.0125364577
v 0.109335124 0.115801789 0.121825956
v 0.0591926835 -0.200937584 0.155329958
v 0.123873696 0.161791191 0.0638277829
v 0.0960714966 0.186656579 0.0523116961
v 0.0727814361 0.194905475 0.0426646136
v 0.0591926835 0.115801789 0.155329958
v 4.56152047E-05 -0.200937584 0.167095184
v 4.56152047E-05 0.115801789 0.167095184
v 0.0948196277 0.161791191 0.107310481
v 0.0735406727 0.186656579 0.0860314816
v 0.055715207 0.194905475 0.0682059973
v 0.0513369255 0.161791191 0.136364624
v 4.56152047E-05 0.161791191 0.146567151
v 0.0398208499 0.186656579 0.108562313
v 0.0301737878 0.194905475 0.0852722153
v 4.56152047E-05 0.186656579 0.116474129
v 4.56152047E-05 0.194905475 0.0912650749
v -0.0300825201 0.194905475 0.0852722153
v 4.56152047E-05 0.211300924 0.0853045806
v 4.56152047E-05 0.194905475 0.0912650749
v -0.0278014839 0.211300924 0.0797654241
v 4.56152047E-05 0.218442172 0.0664614663
v -0.0556239784 0.194905475 0.0682059973
v -0.0205905624 0.218442172 0.0623566583
v -0.0514093116 0.211300924 0.0639912859
v -0.072690174 0.194905475 0.0426646024
v -0.038085144 0.218442172 0.0506671928
v -0.067183353 0.211300924 0.0403836146
v -0.0786829814 0.194905475 0.0125364298
v -0.0497745983 0.218442172 0.0331726633
v -0.072722517 0.211300924 0.0125364326
v -0.072690174 0.194905475 -0.017591713
v -0.0538793653 0.218442172 0.0125364382
v -0.067183353 0.211300924 -0.0153107261
v -0.0556238256 0.194905475 -0.0431331135
v -0.0497745983 0.218442172 -0.00809977483
v -0.0514091179 0.211300924 -0.0389183983
v -0.0300824828 0.194905475 -0.060199298
v -0.0380850695 0.218442172 -0.0255942978
v -0.0278014466 0.211300924 -0.0546925068
v 4.57296446E-05 0.194905475 -0.066192165
v -0.0205905251 0.218442172 -0.0372837409
v 4.57296446E-05 0.211300924 -0.060231667
v 0.0301738251 0.194905475 -0.0601992719
v 4.57296446E-05 0.218442172 -0.0413885489
v 0.0278927889 0.211300924 -0.0546924919
v 0.0557152443 0.194905475 -0.0431330539
v 0.0206818674 0.218442172 -0.037283726
v 0.051500462 0.211300924 -0.0389183499
v 0.0727814361 0.194905475 -0.0175916627
v 0.0381763726 0.218442172 -0.0255942568
v 0.0672746524 0.211300924 -0.0153106805
v 0.0787743255 0.194905475 0.0125364577
v 0.0498658642 0.218442172 -0.00809973478
v 0.0728138238 0.211300924 0.0125364577
v 0.0727814361 0.194905475 0.0426646136
v 0.0539706685 0.218442172 0.0125364587
v 0.0672746524 0.211300924 0.0403836258
v 0.055715207 0.194905475 0.0682059973
v 0.0498658642 0.218442172 0.0331726745
v 0.0515004247 0.211300924 0.0639912933
v 0.0301737878 0.194905475 0.0852722153
v 0.0381763726 0.218442172 0.050667204
v 0.0278927516 0.211300924 0.0797654241
v 4.56152047E-05 0.194905475 0.0912650749
v 0.0206818283 0.218442172 0.0623566583
v 4.56152047E-05 0.211300924 0.0853045806
v 4.56152047E-05 0.218442172 0.0664614663
v -0.0205905624 0.218442172 0.0623566583
v 4.56152047E-05 0.276168644 0.0664614663
v 4.56152047E-05 0.218442172 0.0664614663
v -0.0205905624 0.276168644 0.0623566583
v -0.038085144 0.218442172 0.0506671928
v -0.038085144 0.276168644 0.0506671928
v -0.0497745983 0.218442172 0.0331726633
v -0.0497745983 0.276168644 0.0331726633
v -0.0538793653 0.218442172 0.0125364382
v -0.0538793653 0.276168644 0.0125364382
v -0.0497745983 0.218442172 -0.00809977483
v -0.0497745983 0.276168644 -0.00809977483
v -0.0380850695 0.218442172 -0.0255942978
v -0.0380850695 0.276168644 -0.0255942978
v -0.0205905251 0.218442172 -0.0372837409
v -0.0205905251 0.276168644 -0.0372837409
v 4.57296446E-05 0.218442172 -0.0413885489
v 4.57296446E-05 0.276168644 -0.0413885489
v 0.0206818674 0.218442172 -0.037283726
v 0.0206818674 0.276168644 -0.037283726
v 0.0381763726 0.218442172 -0.0255942568
v 0.0381763726 0.276168644 -0.0255942568
v 0.0498658642 0.218442172 -0.00809973478
v 0.0498658642 0.276168644 -0.00809973478
v 0.0539706685 0.218442172 0.0125364587
v 0.0539706685 0.276168644 0.0125364587
v 0.0498658642 0.218442172 0.0331726745
v 0.0498658642 0.276168644 0.0331726745
v 0.0381763726 0.218442172 0.050667204
v 0.0381763726 0.276168644 0.050667204
v 0.0206818283 0.218442172 0.0623566583
v 0.0206818283 0.276168644 0.0623566583
v 4.56152047E-05 0.218442172 0.0664614663
v 4.56152047E-05 0.276168644 0.0664614663
v -0.0819984898 -0.0191302858 -0.0965799615
v -0.0819984898 -0.0191302858 -0.175301582
v 0.0820899457 -0.0191302858 -0.175301582
v 0.0820899457 -0.0191302858 -0.0965799615
v -0.0742821991 -0.0230870806 -0.182219505
v -0.0742821991 -0.0993160009 -0.182219505
v 0.0743736923 -0.0993160009 -0.182219505
v 0.0743736923 -0.0230870806 -0.182219505
v -0.0819984898 -0.103272796 -0.175301582
v -0.0819984898 -0.103272796 -0.0965799615
v 0.0820899457 -0.103272796 -0.0965799615
v 0.0820899457 -0.103272796 -0.175301582
v 0.0820899457 -0.103272796 -0.0965799615
v 0.0820899457 -0.0191302858 -0.0965799615
v 0.0820899457 -0.0191302858 -0.175301582
v 0.0820899457 -0.103272796 -0.175301582
v -0.0819984898 -0.103272796 -0.175301582
v -0.0819984898 -0.0191302858 -0.175301582
v -0.0819984898 -0.0191302858 -0.0965799615
v -0.0819984898 -0.103272796 -0.0965799615
v -0.0819984898 -0.0191302858 -0.175301582
v -0.0742821991 -0.0230870806 -0.182219505
v 0.0743736923 -0.0230870806 -0.182219505
v 0.0820899457 -0.0191302858 -0.175301582
v -0.0742821991 -0.0993160009 -0.182219505
v -0.0742821991 -0.0230870806 -0.182219505
v -0.0819984898 -0.0191302858 -0.175301582
v -0.0819984898 -0.103272796 -0.175301582
v -0.0742821991 -0.0993160009 -0.182219505
v -0.0819984898 -0.103272796 -0.175301582
v 0.0820899457 -0.103272796 -0.175301582
v 0.0743736923 -0.0993160009 -0.182219505
v 0.0820899457 -0.0191302858 -0.175301582
v 0.0743736923 -0.0230870806 -0.182219505
v 0.0743736923 -0.0993160009 -0.182219505
v 0.0820899457 -0.103272796 -0.175301582
v 0.161877394 -0.276168615 0.0125364559
v 4.56533526E-05 -0.276168615 0.0125364559
v 0.149558589 -0.276168615 0.0744667873
v 0.149558589 -0.276168615 -0.0493937954
v 0.114477947 -0.276168615 0.126968756
v 0.114478022 -0.276168615 -0.101895742
v 0.0619759634 -0.276168615 0.162049398
v 0.0619760416 -0.276168615 -0.136976466
v 4.56152047E-05 -0.276168615 0.174368203
v 4.57296446E-05 -0.276168615 -0.1492953
v -0.0618846603 -0.276168615 0.162049398
v -0.061884582 -0.276168615 -0.13697651
v -0.11438664 -0.276168615 0.126968741
v -0.114386566 -0.276168615 -0.101895884
v -0.149467289 -0.276168615 0.0744667128
v -0.149467289 -0.276168615 -0.049393896
v -0.161786154 -0.276168615 0.0125363981
v 0.0498658642 0.276168644 0.0331726745
v 4.56533526E-05 0.276168615 0.0125364587
v 0.0539706685 0.276168644 0.0125364587
v 0.0381763726 0.276168644 0.050667204
v 0.0498658642 0.276168644 -0.00809973478
v 0.0206818283 0.276168644 0.0623566583
v 0.0381763726 0.276168644 -0.0255942568
v 4.56152047E-05 0.276168644 0.0664614663
v 0.0206818674 0.276168644 -0.037283726
v -0.0205905624 0.276168644 0.0623566583
v 4.57296446E-05 0.276168644 -0.0413885489
v -0.038085144 0.276168644 0.0506671928
v -0.0205905251 0.276168644 -0.0372837409
v -0.0497745983 0.276168644 0.0331726633
v -0.0380850695 0.276168644 -0.0255942978
v -0.0538793653 0.276168644 0.0125364382
v -0.0497745983 0.276168644 -0.00809977483
v 0.0290768333 -0.0744878203 -0.189547569
v 0.0290753078 -0.0724109039 -0.186277345
v 0.0216861237 -0.070435971 -0.18617332
v 0.0206743516 -0.0722420588 -0.189429313
v 0.0374759585 -0.0722311214 -0.189693406
v 0.0162738711 -0.0650307462 -0.186121404
v 0.0364615545 -0.0704263449 -0.186405554
v 0.0145199494 -0.066095598 -0.18937026
v 0.0436212048 -0.0660766512 -0.189827725
v 0.0142888175 -0.0576435439 -0.186135486
v 0.0418656804 -0.0650140718 -0.186523661
v 0.0122626405 -0.0576953702 -0.189386293
v 0.0458659641 -0.0576734915 -0.18991451
v 0.0162628088 -0.0502537526 -0.18621181
v 0.0438396744 -0.0576242991 -0.1866
v 0.0145073999 -0.0492921993 -0.189473078
v 0.0436086543 -0.0492732599 -0.189930499
v 0.0216669738 -0.0448414795 -0.186329916
v 0.04185462 -0.0502370931 -0.186614066
v 0.0206526089 -0.0431377403 -0.189607382
v 0.0374542139 -0.0431267917 -0.189871475
v 0.0290531814 -0.0428569317 -0.18645817
v 0.0364424028 -0.0448318645 -0.186562151
v 0.0290517323 -0.0408810303 -0.18975319
v 0.0464137159 -0.0476530269 -0.189319223
v 0.0458659641 -0.0576734915 -0.18991451
v 0.0491047166 -0.0576673113 -0.18930015
v 0.0436086543 -0.0492732599 -0.189930499
v 0.0436212048 -0.0660766512 -0.189827725
v 0.0390767567 -0.0403255448 -0.189248845
v 0.0464287065 -0.06768509 -0.189196691
v 0.0374542139 -0.0431267917 -0.189871475
v 0.0374759585 -0.0722311214 -0.189693406
v 0.0290597808 -0.0376482755 -0.18910785
v 0.0391026959 -0.0750221014 -0.189036563
v 0.0290517323 -0.0408810303 -0.18975319
v 0.0290768333 -0.0744878203 -0.189547569
v 0.0190468132 -0.0403385907 -0.188934013
v 0.0290897265 -0.0777124166 -0.188862726
v 0.0206526089 -0.0431377403 -0.189607382
v 0.0206743516 -0.0722420588 -0.189429313
v 0.0117208017 -0.0476756096 -0.188773915
v 0.0190727524 -0.0750351474 -0.188721731
v 0.0145073999 -0.0492921993 -0.189473078
v 0.0145199494 -0.066095598 -0.18937026
v 0.00904475339 -0.0576933958 -0.188670456
v 0.011735755 -0.0677076802 -0.188651353
v 0.0122626405 -0.0576953702 -0.189386293
v 0.0492557026 -0.0460388921 -0.181758195
v 0.0464137159 -0.0476530269 -0.189319223
v 0.0491047166 -0.0576673113 -0.18930015
v 0.0407823063 -0.0375764854 -0.181676894
v 0.0523635 -0.0576042943 -0.181736141
v 0.0390767567 -0.0403255448 -0.189248845
v 0.0464287065 -0.06768509 -0.189196691
v 0.0292138197 -0.0344845392 -0.181514084
v 0.0492730215 -0.069173716 -0.181616664
v 0.0290597808 -0.0376482755 -0.18910785
v 0.0391026959 -0.0750221014 -0.189036563
v 0.0176499467 -0.037591543 -0.181313276
v 0.040812254 -0.0776471719 -0.181431726
v 0.0190468132 -0.0403385907 -0.188934013
v 0.0290897265 -0.0777124166 -0.188862726
v 0.00918921549 -0.0460649878 -0.181128383
v 0.0292483792 -0.0807541609 -0.181230962
v 0.0117208017 -0.0476756096 -0.188773915
v 0.0190727524 -0.0750351474 -0.188721731
v 0.00609870069 -0.0576344207 -0.181008905
v 0.0176798925 -0.0776622146 -0.181068152
v 0.00904475339 -0.0576933958 -0.188670456
v 0.011735755 -0.0677076802 -0.188651353
v 0.00920649618 -0.0691998079 -0.180986851
vt 0.117553711 0.739257812
vt 0.095703125 0.672363281
vt 0.095703125 0.739257812
vt 0.117553711 0.672363281
vt 0.095703125 0.648925781
vt 0.117553711 0.648925781
vt 0.150512695 0.651855469
vt 0.125488281 0.651855469
vt 0.12890625 0.719238281
vt 0.143798828 0.7109375
vt 0.146606445 0.7421875
vt 0.155395508 0.719726562
vt 0.143798828 0.7109375
vt 0.125488281 0.651855469
vt 0.150512695 0.651855469
vt 0.12890625 0.719238281
vt 0.155395508 0.719726562
vt 0.146606445 0.7421875
vt 0.127929688 0.744628906
vt 0.127929688 0.767089844
vt 0.149780273 0.767089844
vt 0.149780273 0.744628906
vt 0.0995483398 0.76953125
vt 0.121398926 0.76953125
vt 0.121398926 0.744628906
vt 0.0995483398 0.744628906
vt 0.117553711 0.739257812
vt 0.095703125 0.672363281
vt 0.095703125 0.739257812
vt 0.117553711 0.672363281
vt 0.095703125 0.648925781
vt 0.117553711 0.648925781
vt 0.150512695 0.651855469
vt 0.125488281 0.651855469
vt 0.12890625 0.719238281
vt 0.143798828 0.7109375
vt 0.146606445 0.7421875
vt 0.155395508 0.719726562
vt 0.143798828 0.7109375
vt 0.125488281 0.651855469
vt 0.150512695 0.651855469
vt 0.12890625 0.719238281
vt 0.155395508 0.719726562
vt 0.146606445 0.7421875
vt 0.127929688 0.744628906
vt 0.127929688 0.767089844
vt 0.149780273 0.767089844
vt 0.149780273 0.744628906
vt 0.0995483398 0.76953125
vt 0.121398926 0.76953125
vt 0.121398926 0.744628906
vt 0.0995483398 0.744628906
vt 0.117553711 0.739257812
vt 0.095703125 0.672363281
vt 0.095703125 0.739257812
vt 0.117553711 0.672363281
vt 0.095703125 0.648925781
vt 0.117553711 0.648925781
vt 0.150512695 0.651855469
vt 0.125488281 0.651855469
vt 0.12890625 0.719238281
vt 0.143798828 0.7109375
vt 0.146606445 0.7421875
vt 0.155395508 0.719726562
vt 0.143798828 0.7109375
vt 0.125488281 0.651855469
vt 0.150512695 0.651855469
vt 0.12890625 0.719238281
vt 0.155395508 0.719726562
vt 0.146606445 0.7421875
vt 0.127929688 0.744628906
vt 0.127929688 0.767089844
vt 0.149780273 0.767089844
vt 0.149780273 0.744628906
vt 0.0995483398 0.76953125
vt 0.121398926 0.76953125
vt 0.121398926 0.744628906
vt 0.0995483398 0.744628906
vt 0.117553711 0.739257812
vt 0.095703125 0.672363281
vt 0.095703125 0.739257812
vt 0.117553711 0.672363281
vt 0.095703125 0.648925781
vt 0.117553711 0.648925781
vt 0.150512695 0.651855469
vt 0.125488281 0.651855469
vt 0.12890625 0.719238281
vt 0.143798828 0.7109375
vt 0.146606445 0.7421875
vt 0.155395508 0.719726562
vt 0.143798828 0.7109375
vt 0.125488281 0.651855469
vt 0.150512695 0.651855469
vt 0.12890625 0.719238281
vt 0.155395508 0.719726562
vt 0.146606445 0.7421875
vt 0.127929688 0.744628906
vt 0.127929688 0.767089844
vt 0.149780273 0.767089844
vt 0.149780273 0.744628906
vt 0.0995483398 0.76953125
vt 0.121398926 0.76953125
vt 0.121398926 0.744628906
vt 0.0995483398 0.744628906
vt 0.117553711 0.739257812
vt 0.095703125 0.672363281
vt 0.095703125 0.739257812
vt 0.117553711 0.672363281
vt 0.095703125 0.648925781
vt 0.117553711 0.648925781
vt 0.150512695 0.651855469
vt 0.125488281 0.651855469
vt 0.12890625 0.719238281
vt 0.143798828 0.7109375
vt 0.146606445 0.7421875
vt 0.155395508 0.719726562
vt 0.143798828 0.7109375
vt 0.125488281 0.651855469
vt 0.150512695 0.651855469
vt 0.12890625 0.719238281
vt 0.155395508 0.719726562
vt 0.146606445 0.7421875
vt 0.127929688 0.744628906
vt 0.127929688 0.767089844
vt 0.149780273 0.767089844
vt 0.149780273 0.744628906
vt 0.0995483398 0.76953125
vt 0.121398926 0.76953125
vt 0.121398926 0.744628906
vt 0.0995483398 0.744628906
vt 0.117553711 0.739257812
vt 0.095703125 0.672363281
vt 0.095703125 0.739257812
vt 0.117553711 0.672363281
vt 0.095703125 0.648925781
vt 0.117553711 0.648925781
vt 0.150512695 0.651855469
vt 0.125488281 0.651855469
vt 0.12890625 0.719238281
vt 0.143798828 0.7109375
vt 0.146606445 0.7421875
vt 0.155395508 0.719726562
vt 0.143798828 0.7109375
vt 0.125488281 0.651855469
vt 0.150512695 0.651855469
vt 0.12890625 0.719238281
vt 0.155395508 0.719726562
vt 0.146606445 0.7421875
vt 0.127929688 0.744628906
vt 0.127929688 0.767089844
vt 0.149780273 0.767089844
vt 0.149780273 0.744628906
vt 0.0995483398 0.76953125
vt 0.121398926 0.76953125
vt 0.121398926 0.744628906
vt 0.0995483398 0.744628906
vt 0.117553711 0.739257812
vt 0.095703125 0.672363281
vt 0.095703125 0.739257812
vt 0.117553711 0.672363281
vt 0.095703125 0.648925781
vt 0.117553711 0.648925781
vt 0.150512695 0.651855469
vt 0.125488281 0.651855469
vt 0.12890625 0.719238281
vt 0.143798828 0.7109375
vt 0.146606445 0.7421875
vt 0.155395508 0.719726562
vt 0.143798828 0.7109375
vt 0.125488281 0.651855469
vt 0.150512695 0.651855469
vt 0.12890625 0.719238281
vt 0.155395508 0.719726562
vt 0.146606445 0.7421875
vt 0.127929688 0.744628906
vt 0.127929688 0.767089844
vt 0.149780273 0.767089844
vt 0.149780273 0.744628906
vt 0.0995483398 0.76953125
vt 0.121398926 0.76953125
vt 0.121398926 0.744628906
vt 0.0995483398 0.744628906
vt 0.117553711 0.739257812
vt 0.095703125 0.672363281
vt 0.095703125 0.739257812
vt 0.117553711 0.672363281
vt 0.095703125 0.648925781
vt 0.117553711 0.648925781
vt 0.150512695 0.651855469
vt 0.125488281 0.651855469
vt 0.12890625 0.719238281
vt 0.143798828 0.7109375
vt 0.146606445 0.7421875
vt 0.155395508 0.719726562
vt 0.143798828 0.7109375
vt 0.125488281 0.651855469
vt 0.150512695 0.651855469
vt 0.12890625 0.719238281
vt 0.155395508 0.719726562
vt 0.146606445 0.7421875
vt 0.127929688 0.744628906
vt 0.127929688 0.767089844
vt 0.149780273 0.767089844
vt 0.149780273 0.744628906
vt 0.0995483398 0.76953125
vt 0.121398926 0.76953125
vt 0.121398926 0.744628906
vt 0.0995483398 0.744628906
vt 0.444824219 0.346679688
vt 0.471191406 0.359130859
vt 0.471679688 0.354003906
vt 0.443603516 0.3515625
vt 0.417236328 0.339111328
vt 0.464355469 0.383056641
vt 0.416259766 0.343994141
vt 0.389404297 0.332275391
vt 0.437744141 0.374755859
vt 0.4609375 0.389648438
vt 0.435791016 0.381347656
vt 0.410888672 0.367431641
vt 0.409423828 0.374023438
vt 0.388427734 0.337402344
vt 0.360839844 0.326660156
vt 0.383789062 0.360839844
vt 0.382568359 0.367675781
vt 0.360107422 0.331542969
vt 0.33203125 0.322021484
vt 0.356445312 0.355224609
vt 0.355224609 0.362060547
vt 0.331542969 0.326904297
vt 0.302978516 0.318603516
vt 0.328613281 0.350585938
vt 0.327636719 0.357421875
vt 0.302490234 0.323486328
vt 0.273681641 0.31640625
vt 0.300537109 0.347412109
vt 0.299804688 0.354248047
vt 0.2734375 0.321533203
vt 0.244384766 0.315673828
vt 0.272216797 0.345458984
vt 0.271972656 0.352294922
vt 0.244384766 0.320800781
vt 0.215209961 0.31640625
vt 0.244140625 0.344726562
vt 0.244018555 0.3515625
vt 0.215332031 0.321533203
vt 0.186035156 0.318115234
vt 0.215942383 0.345214844
vt 0.216064453 0.352294922
vt 0.186401367 0.323242188
vt 0.157226562 0.321289062
vt 0.187866211 0.347167969
vt 0.188232422 0.354003906
vt 0.157714844 0.326416016
vt 0.12878418 0.325439453
vt 0.16003418 0.350097656
vt 0.160644531 0.356933594
vt 0.129394531 0.330566406
vt 0.100708008 0.330566406
vt 0.132446289 0.354248047
vt 0.133300781 0.361083984
vt 0.101501465 0.335693359
vt 0.0731811523 0.336425781
vt 0.105285645 0.359375
vt 0.106323242 0.366210938
vt 0.0740356445 0.341552734
vt 0.046081543 0.342773438
vt 0.0784912109 0.364990234
vt 0.0797119141 0.371826172
vt 0.0469665527 0.34765625
vt 0.0195617676 0.348388672
vt 0.0199279785 0.353515625
vt 0.0519714355 0.37109375
vt 0.0535888672 0.378173828
vt 0.0250091553 0.377929688
vt 0.0281677246 0.384521484
vt 0.435791016 0.381347656
vt 0.422119141 0.528808594
vt 0.4609375 0.389648438
vt 0.399658203 0.517578125
vt 0.409423828 0.374023438
vt 0.404785156 0.549316406
vt 0.377441406 0.5078125
vt 0.382568359 0.367675781
vt 0.387207031 0.536621094
vt 0.388916016 0.561035156
vt 0.355224609 0.5
vt 0.355224609 0.362060547
vt 0.368164062 0.526855469
vt 0.375976562 0.549804688
vt 0.378417969 0.567382812
vt 0.368164062 0.558105469
vt 0.359619141 0.541503906
vt 0.354003906 0.551269531
vt 0.332763672 0.494140625
vt 0.327636719 0.357421875
vt 0.347900391 0.520019531
vt 0.341796875 0.53515625
vt 0.337646484 0.545898438
vt 0.310302734 0.489990234
vt 0.299804688 0.354248047
vt 0.327392578 0.514648438
vt 0.322753906 0.530761719
vt 0.319824219 0.541503906
vt 0.288085938 0.487060547
vt 0.271972656 0.352294922
vt 0.306640625 0.510742188
vt 0.303222656 0.52734375
vt 0.301269531 0.538574219
vt 0.265625 0.485351562
vt 0.244018555 0.3515625
vt 0.285400391 0.508300781
vt 0.283447266 0.524902344
vt 0.282226562 0.536132812
vt 0.243041992 0.484863281
vt 0.216064453 0.352294922
vt 0.264404297 0.506835938
vt 0.263427734 0.5234375
vt 0.262695312 0.534667969
vt 0.220581055 0.485351562
vt 0.188232422 0.354003906
vt 0.243164062 0.506347656
vt 0.243164062 0.522949219
vt 0.243164062 0.534667969
vt 0.197998047 0.487060547
vt 0.160644531 0.356933594
vt 0.221801758 0.506835938
vt 0.22277832 0.5234375
vt 0.223510742 0.53515625
vt 0.175415039 0.489990234
vt 0.133300781 0.361083984
vt 0.200561523 0.508300781
vt 0.202514648 0.524902344
vt 0.203857422 0.536132812
vt 0.152832031 0.494140625
vt 0.106323242 0.366210938
vt 0.179321289 0.511230469
vt 0.182373047 0.52734375
vt 0.184570312 0.538574219
vt 0.130249023 0.499755859
vt 0.0797119141 0.371826172
vt 0.158203125 0.514648438
vt 0.162597656 0.530761719
vt 0.165649414 0.541503906
vt 0.107543945 0.506835938
vt 0.0535888672 0.378173828
vt 0.137207031 0.520019531
vt 0.143188477 0.53515625
vt 0.147338867 0.545898438
vt 0.0847167969 0.515625
vt 0.0281677246 0.384521484
vt 0.061340332 0.524902344
vt 0.116516113 0.526367188
vt 0.124572754 0.541503906
vt 0.130249023 0.551269531
vt 0.0963745117 0.53515625
vt 0.0773925781 0.547363281
vt 0.107421875 0.549316406
vt 0.115234375 0.558105469
vt 0.0931396484 0.560546875
vt 0.104064941 0.567382812
vt 0.380859375 0.580566406
vt 0.389160156 0.602539062
vt 0.397705078 0.593261719
vt 0.373535156 0.590820312
vt 0.378173828 0.610351562
vt 0.363037109 0.570800781
vt 0.364746094 0.602050781
vt 0.357177734 0.58203125
vt 0.344970703 0.562988281
vt 0.350097656 0.594726562
vt 0.340087891 0.574707031
vt 0.326660156 0.557128906
vt 0.334472656 0.588378906
vt 0.322753906 0.569335938
vt 0.308105469 0.552246094
vt 0.318359375 0.583007812
vt 0.305175781 0.564453125
vt 0.2890625 0.548828125
vt 0.301757812 0.578613281
vt 0.287353516 0.561523438
vt 0.270019531 0.546875
vt 0.284667969 0.575683594
vt 0.269042969 0.559570312
vt 0.250976562 0.545898438
vt 0.267578125 0.573730469
vt 0.250976562 0.55859375
vt 0.231811523 0.546875
vt 0.250488281 0.573242188
vt 0.232666016 0.559082031
vt 0.212768555 0.548339844
vt 0.233276367 0.573730469
vt 0.214477539 0.561035156
vt 0.193725586 0.551757812
vt 0.216186523 0.575683594
vt 0.196411133 0.564453125
vt 0.174926758 0.556640625
vt 0.19921875 0.578613281
vt 0.178588867 0.568847656
vt 0.15637207 0.5625
vt 0.182617188 0.583007812
vt 0.161132812 0.574707031
vt 0.137939453 0.570800781
vt 0.166381836 0.588378906
vt 0.143920898 0.58203125
vt 0.119873047 0.581054688
vt 0.150878906 0.594726562
vt 0.127441406 0.591308594
vt 0.103027344 0.594726562
vt 0.136352539 0.603027344
vt 0.111816406 0.604003906
vt 0.123474121 0.612304688
vt 0.364746094 0.602050781
vt 0.361328125 0.646972656
vt 0.378173828 0.610351562
vt 0.34765625 0.640136719
vt 0.350097656 0.594726562
vt 0.334228516 0.633789062
vt 0.334472656 0.588378906
vt 0.320800781 0.627929688
vt 0.318359375 0.583007812
vt 0.307128906 0.623535156
vt 0.301757812 0.578613281
vt 0.293212891 0.619628906
vt 0.284667969 0.575683594
vt 0.279052734 0.6171875
vt 0.267578125 0.573730469
vt 0.264892578 0.615722656
vt 0.250488281 0.573242188
vt 0.250732422 0.615234375
vt 0.233276367 0.573730469
vt 0.236328125 0.615722656
vt 0.216186523 0.575683594
vt 0.222167969 0.6171875
vt 0.19921875 0.578613281
vt 0.208129883 0.619628906
vt 0.182617188 0.583007812
vt 0.194335938 0.623046875
vt 0.166381836 0.588378906
vt 0.180908203 0.627441406
vt 0.150878906 0.594726562
vt 0.167724609 0.633300781
vt 0.136352539 0.603027344
vt 0.154785156 0.639648438
vt 0.123474121 0.612304688
vt 0.141967773 0.646972656
vt 0.0158843994 0.912597656
vt 0.0817260742 0.912597656
vt 0.0817260742 0.775390625
vt 0.0158843994 0.775390625
vt 0.0249938965 0.763183594
vt 0.0896606445 0.763183594
vt 0.0896606445 0.63671875
vt 0.0249938965 0.63671875
vt 0.0981445312 0.912597656
vt 0.1640625 0.912597656
vt 0.1640625 0.775390625
vt 0.0981445312 0.775390625
vt 0.163696289 0.916015625
vt 0.0933227539 0.916015625
vt 0.0933227539 0.981933594
vt 0.163696289 0.981933594
vt 0.0166320801 0.982421875
vt 0.0869750977 0.982421875
vt 0.0869750977 0.916503906
vt 0.0166320801 0.916503906
vt 0.0817260742 0.912597656
vt 0.0875244141 0.905761719
vt 0.0875244141 0.781738281
vt 0.0817260742 0.775390625
vt 0.0199432373 0.98828125
vt 0.0836791992 0.98828125
vt 0.0869750977 0.982421875
vt 0.0166320801 0.982421875
vt 0.0924072266 0.905761719
vt 0.0981445312 0.912597656
vt 0.0981445312 0.775390625
vt 0.0924072266 0.781738281
vt 0.0933227539 0.981933594
vt 0.0966186523 0.987792969
vt 0.160400391 0.987792969
vt 0.163696289 0.981933594
vt 0.169799805 0.694335938
vt 0.251464844 0.710449219
vt 0.182250977 0.6640625
vt 0.169799805 0.7265625
vt 0.205200195 0.641113281
vt 0.182250977 0.756835938
vt 0.235229492 0.62890625
vt 0.205200195 0.779785156
vt 0.267822266 0.62890625
vt 0.235229492 0.791992188
vt 0.297851562 0.641113281
vt 0.267822266 0.791992188
vt 0.320800781 0.6640625
vt 0.297851562 0.779785156
vt 0.333251953 0.694335938
vt 0.320800781 0.756835938
vt 0.333251953 0.7265625
vt 0.380615234 0.978027344
vt 0.403076172 0.944335938
vt 0.369384766 0.966796875
vt 0.395019531 0.983886719
vt 0.36328125 0.952148438
vt 0.410888672 0.983886719
vt 0.36328125 0.936523438
vt 0.425537109 0.978027344
vt 0.369384766 0.921875
vt 0.436767578 0.966796875
vt 0.380615234 0.910644531
vt 0.442871094 0.952148438
vt 0.395019531 0.904785156
vt 0.442871094 0.936523438
vt 0.410888672 0.904785156
vt 0.436767578 0.921875
vt 0.425537109 0.910644531
vt 0.200927734 0.940429688
vt 0.200927734 0.943847656
vt 0.207885742 0.946289062
vt 0.209716797 0.942871094
vt 0.192138672 0.942382812
vt 0.212768555 0.951660156
vt 0.193969727 0.945800781
vt 0.215942383 0.949707031
vt 0.185546875 0.948730469
vt 0.214355469 0.958496094
vt 0.188598633 0.950683594
vt 0.218017578 0.958496094
vt 0.182861328 0.957519531
vt 0.212280273 0.965332031
vt 0.186523438 0.957519531
vt 0.215332031 0.967285156
vt 0.184814453 0.966308594
vt 0.20703125 0.970214844
vt 0.188110352 0.964355469
vt 0.208618164 0.973632812
vt 0.191040039 0.97265625
vt 0.199951172 0.971679688
vt 0.193115234 0.969726562
vt 0.199707031 0.975585938
vt 0.182006836 0.967773438
vt 0.182861328 0.957519531
vt 0.1796875 0.95703125
vt 0.184814453 0.966308594
vt 0.185546875 0.948730469
vt 0.189331055 0.975585938
vt 0.182861328 0.947265625
vt 0.191040039 0.97265625
vt 0.192138672 0.942382812
vt 0.199584961 0.978515625
vt 0.190551758 0.939941406
vt 0.199707031 0.975585938
vt 0.200927734 0.940429688
vt 0.210083008 0.9765625
vt 0.201049805 0.937011719
vt 0.208618164 0.973632812
vt 0.209716797 0.942871094
vt 0.218017578 0.969238281
vt 0.211425781 0.940429688
vt 0.215332031 0.967285156
vt 0.215942383 0.949707031
vt 0.221191406 0.958496094
vt 0.21862793 0.948242188
vt 0.218017578 0.958496094
vt 0.175170898 0.971191406
vt 0.182006836 0.967773438
vt 0.1796875 0.95703125
vt 0.184814453 0.981933594
vt 0.171630859 0.95703125
vt 0.189331055 0.975585938
vt 0.182861328 0.947265625
vt 0.198852539 0.986816406
vt 0.17578125 0.942871094
vt 0.199584961 0.978515625
vt 0.190551758 0.939941406
vt 0.213500977 0.983886719
vt 0.186401367 0.932617188
vt 0.210083008 0.9765625
vt 0.201049805 0.937011719
vt 0.224609375 0.973632812
vt 0.200805664 0.929199219
vt 0.218017578 0.969238281
vt 0.211425781 0.940429688
vt 0.229248047 0.958984375
vt 0.215332031 0.933105469
vt 0.221191406 0.958496094
vt 0.21862793 0.948242188
vt 0.226074219 0.944335938
vn 0.998535156 0.0492858887 -0.00428390503
vn 0.973632812 0.227294922 -0.00417709351
vn 0.998535156 0.0492858887 -0.00428390503
vn 0.973632812 0.227294922 -0.00417709351
vn 0.79296875 0.609375 -0.00340270996
vn 0.79296875 0.609375 -0.00340270996
vn -0.00429153442 0 -1
vn -0.00429153442 0 -1
vn -0.00429153442 1.1920929E-07 -1
vn -0.00429153442 1.1920929E-07 -1
vn -0.00429153442 2.98023224E-07 -1
vn -0.00429153442 2.98023224E-07 -1
vn 0.00429153442 1.1920929E-07 1
vn 0.00429153442 -1.1920929E-07 1
vn 0.00429153442 -1.1920929E-07 1
vn 0.00429153442 1.78813934E-07 1
vn 0.00429153442 8.94069672E-07 1
vn 0.00429153442 8.94069672E-07 1
vn -0.932617188 0.361328125 0.00400161743
vn -0.932617188 0.361328125 0.00400161743
vn -0.932617188 0.361328125 0.00400161743
vn -0.932617188 0.361328125 0.00400161743
vn -2.8014183E-06 -1 4.17232513E-07
vn -2.8014183E-06 -1 4.17232513E-07
vn -2.8014183E-06 -1 4.17232513E-07
vn -2.8014183E-06 -1 4.17232513E-07
vn 0.712402344 0.0492858887 0.699707031
vn 0.694824219 0.227294922 0.682617188
vn 0.712402344 0.0492858887 0.699707031
vn 0.694824219 0.227294922 0.682617188
vn 0.565429688 0.609375 0.555664062
vn 0.565429688 0.609375 0.555664062
vn 0.700683594 0 -0.713378906
vn 0.700683594 0 -0.713378906
vn 0.700683594 0 -0.713378906
vn 0.700683594 0 -0.713378906
vn 0.700683594 1.78813934E-07 -0.713378906
vn 0.700683594 1.78813934E-07 -0.713378906
vn -0.700683594 1.78813934E-07 0.713378906
vn -0.700683594 0 0.713378906
vn -0.700683594 0 0.713378906
vn -0.700683594 2.38418579E-07 0.713378906
vn -0.700683594 8.34465027E-07 0.713378906
vn -0.700683594 8.34465027E-07 0.713378906
vn -0.665039062 0.361328125 -0.653320312
vn -0.665039062 0.361328125 -0.653320312
vn -0.665039062 0.361328125 -0.653320312
vn -0.665039062 0.361328125 -0.653320312
vn -1.96695328E-06 -1 -2.32458115E-06
vn -1.96695328E-06 -1 -2.32458115E-06
vn -1.96695328E-06 -1 -2.32458115E-06
vn -1.96695328E-06 -1 -2.32458115E-06
vn 0.0135650635 0.0492858887 0.998535156
vn 0.0132217407 0.227294922 0.973632812
vn 0.0135650635 0.0492858887 0.998535156
vn 0.0132217407 0.227294922 0.973632812
vn 0.0107650757 0.609375 0.79296875
vn 0.0107650757 0.609375 0.79296875
vn 1 0 -0.0135803223
vn 1 0 -0.0135803223
vn 1 0 -0.0135803223
vn 1 0 -0.0135803223
vn 1 -2.98023224E-07 -0.0135879517
vn 1 -2.98023224E-07 -0.0135879517
vn -1 0 0.0135803223
vn -1 0 0.0135803223
vn -1 0 0.0135803223
vn -1 0 0.0135803223
vn -1 0 0.0135803223
vn -1 0 0.0135803223
vn -0.0126647949 0.361328125 -0.932128906
vn -0.0126647949 0.361328125 -0.932128906
vn -0.0126647949 0.361328125 -0.932128906
vn -0.0126647949 0.361328125 -0.932128906
vn -0 -1 -3.51667404E-06
vn -0 -1 -3.51667404E-06
vn -0 -1 -3.51667404E-06
vn -0 -1 -3.51667404E-06
vn -0.693359375 0.0492858887 0.719238281
vn -0.67578125 0.227294922 0.701171875
vn -0.693359375 0.0492858887 0.719238281
vn -0.67578125 0.227294922 0.701171875
vn -0.550292969 0.609375 0.570800781
vn -0.550292969 0.609375 0.570800781
vn 0.719726562 0 0.694335938
vn 0.719726562 0 0.694335938
vn 0.719726562 0 0.694335938
vn 0.719726562 0 0.694335938
vn 0.719726562 -1.78813934E-07 0.694335938
vn 0.719726562 -1.78813934E-07 0.694335938
vn -0.719726562 1.1920929E-07 -0.694335938
vn -0.719726562 0 -0.694335938
vn -0.719726562 0 -0.694335938
vn -0.719726562 1.78813934E-07 -0.694335938
vn -0.719726562 3.57627869E-07 -0.694335938
vn -0.719726562 3.57627869E-07 -0.694335938
vn 0.646972656 0.361328125 -0.671386719
vn 0.646972656 0.361328125 -0.671386719
vn 0.646972656 0.361328125 -0.671386719
vn 0.646972656 0.361328125 -0.671386719
vn 1.90734863E-06 -1 -1.1920929E-06
vn 1.90734863E-06 -1 -1.1920929E-06
vn 1.90734863E-06 -1 -1.1920929E-06
vn 1.90734863E-06 -1 -1.1920929E-06
vn -0.998535156 0.0492858887 0.0118560791
vn -0.973632812 0.227294922 0.0115585327
vn -0.998535156 0.0492858887 0.0118560791
vn -0.973632812 0.227294922 0.0115585327
vn -0.79296875 0.609375 0.00941467285
vn -0.79296875 0.609375 0.00941467285
vn 0.0118713379 0 1
vn 0.0118713379 0 1
vn 0.0118713379 1.1920929E-07 1
vn 0.0118713379 1.1920929E-07 1
vn 0.0118713379 2.38418579E-07 1
vn 0.0118713379 2.38418579E-07 1
vn -0.0118713379 1.1920929E-07 -1
vn -0.0118713379 0 -1
vn -0.0118713379 0 -1
vn -0.0118713379 1.78813934E-07 -1
vn -0.0118713379 8.34465027E-07 -1
vn -0.0118713379 8.34465027E-07 -1
vn 0.932128906 0.361328125 -0.0110702515
vn 0.932128906 0.361328125 -0.0110702515
vn 0.932128906 0.361328125 -0.0110702515
vn 0.932128906 0.361328125 -0.0110702515
vn 2.8014183E-06 -1 -1.78813934E-07
vn 2.8014183E-06 -1 -1.78813934E-07
vn 2.8014183E-06 -1 -1.78813934E-07
vn 2.8014183E-06 -1 -1.78813934E-07
vn -0.709960938 0.0492858887 -0.702148438
vn -0.692382812 0.227294922 -0.684570312
vn -0.709960938 0.0492858887 -0.702148438
vn -0.692382812 0.227294922 -0.684570312
vn -0.563964844 0.609375 -0.557617188
vn -0.563964844 0.609375 -0.557617188
vn -0.703125 4.76837158E-07 0.7109375
vn -0.703125 4.76837158E-07 0.7109375
vn -0.703125 1.1920929E-07 0.7109375
vn -0.703125 2.38418579E-07 0.7109375
vn -0.703125 -7.74860382E-07 0.7109375
vn -0.703125 -7.74860382E-07 0.7109375
vn 0.703125 2.98023224E-07 -0.7109375
vn 0.703125 0 -0.7109375
vn 0.703125 0 -0.7109375
vn 0.703125 4.17232513E-07 -0.7109375
vn 0.703125 1.54972076E-06 -0.7109375
vn 0.703125 1.54972076E-06 -0.7109375
vn 0.663085938 0.361328125 0.655761719
vn 0.663085938 0.361328125 0.655761719
vn 0.663085938 0.361328125 0.655761719
vn 0.663085938 0.361328125 0.655761719
vn 1.96695328E-06 -1 1.7285347E-06
vn 1.96695328E-06 -1 1.7285347E-06
vn 1.96695328E-06 -1 1.7285347E-06
vn 1.96695328E-06 -1 1.7285347E-06
vn -0.0213928223 0.0492858887 -0.998535156
vn -0.0208587646 0.227294922 -0.973632812
vn -0.0213928223 0.0492858887 -0.998535156
vn -0.0208587646 0.227294922 -0.973632812
vn -0.0169830322 0.609375 -0.79296875
vn -0.0169830322 0.609375 -0.79296875
vn -1 1.1920929E-07 0.0214233398
vn -1 1.1920929E-07 0.0214233398
vn -1 1.1920929E-07 0.0214233398
vn -1 1.1920929E-07 0.0214233398
vn -1 0 0.0214233398
vn -1 0 0.0214233398
vn 1 2.98023224E-07 -0.0214233398
vn 1 1.1920929E-07 -0.0214233398
vn 1 1.1920929E-07 -0.0214233398
vn 1 3.57627869E-07 -0.0214233398
vn 1 8.94069672E-07 -0.0214233398
vn 1 8.94069672E-07 -0.0214233398
vn 0.0199737549 0.361328125 0.932128906
vn 0.0199737549 0.361328125 0.932128906
vn 0.0199737549 0.361328125 0.932128906
vn 0.0199737549 0.361328125 0.932128906
vn -0 -1 3.51667404E-06
vn -0 -1 3.51667404E-06
vn -0 -1 3.51667404E-06
vn -0 -1 3.51667404E-06
vn 0.720214844 0.0492858887 -0.691894531
vn 0.702148438 0.227294922 -0.674804688
vn 0.720214844 0.0492858887 -0.691894531
vn 0.702148438 0.227294922 -0.674804688
vn 0.571777344 0.609375 -0.549316406
vn 0.571777344 0.609375 -0.549316406
vn -0.692871094 -1.1920929E-07 -0.721191406
vn -0.692871094 -1.1920929E-07 -0.721191406
vn -0.692871094 1.78813934E-07 -0.721191406
vn -0.692871094 1.1920929E-07 -0.721191406
vn -0.692871094 9.53674316E-07 -0.721191406
vn -0.692871094 9.53674316E-07 -0.721191406
vn 0.692871094 0 0.721191406
vn 0.692871094 -2.38418579E-07 0.721191406
vn 0.692871094 -2.38418579E-07 0.721191406
vn 0.692871094 1.1920929E-07 0.721191406
vn 0.692871094 9.53674316E-07 0.721191406
vn 0.692871094 9.53674316E-07 0.721191406
vn -0.672363281 0.361328125 0.645996094
vn -0.672363281 0.361328125 0.645996094
vn -0.672363281 0.361328125 0.645996094
vn -0.672363281 0.361328125 0.645996094
vn -2.02655792E-06 -1 2.92062759E-06
vn -2.02655792E-06 -1 2.92062759E-06
vn -2.02655792E-06 -1 2.92062759E-06
vn -2.02655792E-06 -1 2.92062759E-06
vn -0.330322266 -0.505371094 0.797363281
vn -0 -0.0842285156 0.996582031
vn -6.55651093E-07 -0.505371094 0.862792969
vn -0.381347656 -0.0842285156 0.920410156
vn -0.610351562 -0.505371094 0.610351562
vn -0 0.176391602 0.984375
vn -0.704589844 -0.0842285156 0.704589844
vn -0.797363281 -0.505371094 0.330322266
vn -0.376708984 0.176391602 0.909179688
vn -0 0.811035156 0.584960938
vn -0.223876953 0.811035156 0.540527344
vn -0.695800781 0.176391602 0.695800781
vn -0.413818359 0.811035156 0.413818359
vn -0.920410156 -0.0842285156 0.381347656
vn -0.862792969 -0.505371094 -6.55651093E-07
vn -0.909179688 0.176391602 0.376708984
vn -0.540527344 0.811035156 0.223876953
vn -0.996582031 -0.0842285156 -1.13248825E-06
vn -0.797363281 -0.505371094 -0.330322266
vn -0.984375 0.176391602 -1.07288361E-06
vn -0.584960938 0.811035156 -2.38418579E-07
vn -0.920410156 -0.0842285156 -0.381347656
vn -0.610351562 -0.505371094 -0.610351562
vn -0.909179688 0.176391602 -0.376708984
vn -0.540527344 0.811035156 -0.223876953
vn -0.704589844 -0.0842285156 -0.704589844
vn -0.330322266 -0.505371094 -0.797363281
vn -0.695800781 0.176391602 -0.695800781
vn -0.413818359 0.811035156 -0.413818359
vn -0.381347656 -0.0842285156 -0.920410156
vn 6.55651093E-07 -0.505371094 -0.862792969
vn -0.376708984 0.176391602 -0.909179688
vn -0.223876953 0.811035156 -0.540527344
vn 1.01327896E-06 -0.0842285156 -0.996582031
vn 0.330322266 -0.505371094 -0.797363281
vn 9.53674316E-07 0.176391602 -0.984375
vn 2.98023224E-07 0.811035156 -0.584960938
vn 0.381347656 -0.0842285156 -0.920410156
vn 0.610351562 -0.505371094 -0.610351562
vn 0.376708984 0.176391602 -0.909179688
vn 0.223876953 0.811035156 -0.540527344
vn 0.704589844 -0.0842285156 -0.704589844
vn 0.797363281 -0.505371094 -0.330322266
vn 0.695800781 0.176391602 -0.695800781
vn 0.413818359 0.811035156 -0.413818359
vn 0.920410156 -0.0842285156 -0.381347656
vn 0.862792969 -0.505371094 -4.76837158E-07
vn 0.909179688 0.176391602 -0.376708984
vn 0.540527344 0.811035156 -0.223876953
vn 0.996582031 -0.0842285156 0
vn 0.797363281 -0.505371094 0.330322266
vn 0.984375 0.176391602 1.1920929E-07
vn 0.584960938 0.811035156 4.17232513E-07
vn 0.920410156 -0.0842285156 0.381347656
vn 0.610351562 -0.505371094 0.610351562
vn 0.909179688 0.176391602 0.376708984
vn 0.540527344 0.811035156 0.223876953
vn 0.704589844 -0.0842285156 0.704589844
vn 0.330322266 -0.505371094 0.797363281
vn 0.695800781 0.176391602 0.695800781
vn 0.413818359 0.811035156 0.413818359
vn 0.381347656 -0.0842285156 0.920410156
vn -6.55651093E-07 -0.505371094 0.862792969
vn -0 -0.0842285156 0.996582031
vn 0.376708984 0.176391602 0.909179688
vn 0.223876953 0.811035156 0.540527344
vn -0 0.176391602 0.984375
vn -0 0.811035156 0.584960938
vn -0.382568359 0 0.923828125
vn -0 0.0508117676 0.998535156
vn -0 0 1
vn -0.382080078 0.0508117676 0.922851562
vn -0.70703125 0 0.70703125
vn -0 0.549804688 0.835449219
vn -0.706054688 0.0508117676 0.706054688
vn -0.923828125 0 0.382568359
vn -0.319580078 0.549804688 0.771972656
vn -0 0.8359375 0.548828125
vn -0.922851562 0.0508117676 0.382080078
vn -1 0 -7.15255737E-07
vn -0.590820312 0.549804688 0.590820312
vn -0.209960938 0.8359375 0.506835938
vn -0 0.950195312 0.311035156
vn -0.119018555 0.950195312 0.287353516
vn -0.387939453 0.8359375 0.387939453
vn -0.219848633 0.950195312 0.219848633
vn -0.998535156 0.0508117676 -6.55651093E-07
vn -0.923828125 0 -0.382568359
vn -0.771972656 0.549804688 0.319580078
vn -0.506835938 0.8359375 0.209960938
vn -0.287353516 0.950195312 0.119018555
vn -0.922851562 0.0508117676 -0.382080078
vn -0.70703125 0 -0.70703125
vn -0.835449219 0.549804688 -7.74860382E-07
vn -0.548828125 0.8359375 -7.15255737E-07
vn -0.311035156 0.950195312 -4.76837158E-07
vn -0.706054688 0.0508117676 -0.706054688
vn -0.382568359 0 -0.923828125
vn -0.771972656 0.549804688 -0.319580078
vn -0.506835938 0.8359375 -0.209960938
vn -0.287353516 0.950195312 -0.119018555
vn -0.382080078 0.0508117676 -0.922851562
vn -0 0 -1
vn -0.590820312 0.549804688 -0.590820312
vn -0.387939453 0.8359375 -0.387939453
vn -0.219848633 0.950195312 -0.219848633
vn -0 0.0508117676 -0.998535156
vn 0.382568359 0 -0.923828125
vn -0.319580078 0.549804688 -0.771972656
vn -0.209960938 0.8359375 -0.506835938
vn -0.119018555 0.950195312 -0.287353516
vn 0.382080078 0.0508117676 -0.922851562
vn 0.70703125 0 -0.70703125
vn 1.1920929E-07 0.549804688 -0.835449219
vn 1.1920929E-07 0.8359375 -0.548828125
vn 1.78813934E-07 0.950195312 -0.311035156
vn 0.706054688 0.0508117676 -0.706054688
vn 0.923828125 0 -0.382568359
vn 0.319580078 0.549804688 -0.771972656
vn 0.209960938 0.8359375 -0.506835938
vn 0.119018555 0.950195312 -0.287353516
vn 0.922851562 0.0508117676 -0.382080078
vn 1 0 5.96046448E-07
vn 0.590820312 0.549804688 -0.590820312
vn 0.387939453 0.8359375 -0.387939453
vn 0.219848633 0.950195312 -0.219848633
vn 0.998535156 0.0508117676 7.15255737E-07
vn 0.923828125 0 0.382568359
vn 0.771972656 0.549804688 -0.319580078
vn 0.506835938 0.8359375 -0.209960938
vn 0.287353516 0.950195312 -0.119018555
vn 0.922851562 0.0508117676 0.382080078
vn 0.70703125 0 0.70703125
vn 0.835449219 0.549804688 4.76837158E-07
vn 0.548828125 0.8359375 0
vn 0.311035156 0.950195312 -1.1920929E-07
vn 0.706054688 0.0508117676 0.706054688
vn 0.382568359 0 0.923828125
vn 0.771972656 0.549804688 0.319580078
vn 0.506835938 0.8359375 0.209960938
vn 0.287353516 0.950195312 0.119018555
vn 0.382080078 0.0508117676 0.922851562
vn -0 0 1
vn -0 0.0508117676 0.998535156
vn 0.590820312 0.549804688 0.590820312
vn 0.387939453 0.8359375 0.387939453
vn 0.219848633 0.950195312 0.219848633
vn 0.319580078 0.549804688 0.771972656
vn -0 0.549804688 0.835449219
vn 0.209960938 0.8359375 0.506835938
vn 0.119018555 0.950195312 0.287353516
vn -0 0.8359375 0.548828125
vn -0 0.950195312 0.311035156
vn -0.359619141 0.341552734 0.868164062
vn -0 0.668945312 0.743164062
vn -0 0.341552734 0.939941406
vn -0.284423828 0.668945312 0.686523438
vn -0 0.935058594 0.354492188
vn -0.664550781 0.341552734 0.664550781
vn -0.135620117 0.935058594 0.327392578
vn -0.525390625 0.668945312 0.525390625
vn -0.868164062 0.341552734 0.359619141
vn -0.250488281 0.935058594 0.250488281
vn -0.686523438 0.668945312 0.284423828
vn -0.939941406 0.341552734 0
vn -0.327392578 0.935058594 0.135620117
vn -0.743164062 0.668945312 -1.1920929E-07
vn -0.868164062 0.341552734 -0.359619141
vn -0.354492188 0.935058594 -1.78813934E-07
vn -0.686523438 0.668945312 -0.284423828
vn -0.664550781 0.341552734 -0.664550781
vn -0.327392578 0.935058594 -0.135620117
vn -0.525390625 0.668945312 -0.525390625
vn -0.359619141 0.341552734 -0.868164062
vn -0.250488281 0.935058594 -0.250488281
vn -0.284423828 0.668945312 -0.686523438
vn 2.38418579E-07 0.341552734 -0.939941406
vn -0.135620117 0.935058594 -0.327392578
vn 1.78813934E-07 0.668945312 -0.743164062
vn 0.359619141 0.341552734 -0.868164062
vn 1.1920929E-07 0.935058594 -0.354492188
vn 0.284423828 0.668945312 -0.686523438
vn 0.664550781 0.341552734 -0.664550781
vn 0.135620117 0.935058594 -0.327392578
vn 0.525390625 0.668945312 -0.525390625
vn 0.868164062 0.341552734 -0.359619141
vn 0.250488281 0.935058594 -0.250488281
vn 0.686523438 0.668945312 -0.284423828
vn 0.939941406 0.341552734 0
vn 0.327392578 0.935058594 -0.135620117
vn 0.743164062 0.668945312 -1.1920929E-07
vn 0.868164062 0.341552734 0.359619141
vn 0.354492188 0.935058594 -1.78813934E-07
vn 0.686523438 0.668945312 0.284423828
vn 0.664550781 0.341552734 0.664550781
vn 0.327392578 0.935058594 0.135620117
vn 0.525390625 0.668945312 0.525390625
vn 0.359619141 0.341552734 0.868164062
vn 0.250488281 0.935058594 0.250488281
vn 0.284423828 0.668945312 0.686523438
vn -0 0.341552734 0.939941406
vn 0.135620117 0.935058594 0.327392578
vn -0 0.668945312 0.743164062
vn -0 0.935058594 0.354492188
vn -0.382568359 0 0.923828125
vn -0 0 1
vn -0 0 1
vn -0.382568359 0 0.923828125
vn -0.70703125 0 0.70703125
vn -0.70703125 0 0.70703125
vn -0.923828125 0 0.382568359
vn -0.923828125 0 0.382568359
vn -1 0 0
vn -1 0 0
vn -0.923828125 0 -0.382568359
vn -0.923828125 0 -0.382568359
vn -0.70703125 0 -0.70703125
vn -0.70703125 0 -0.70703125
vn -0.382568359 0 -0.923828125
vn -0.382568359 0 -0.923828125
vn 2.98023224E-07 0 -1
vn 2.98023224E-07 0 -1
vn 0.382568359 0 -0.923828125
vn 0.382568359 0 -0.923828125
vn 0.70703125 0 -0.70703125
vn 0.70703125 0 -0.70703125
vn 0.923828125 0 -0.382568359
vn 0.923828125 0 -0.382568359
vn 1 0 0
vn 1 0 0
vn 0.923828125 0 0.382568359
vn 0.923828125 0 0.382568359
vn 0.70703125 0 0.70703125
vn 0.70703125 0 0.70703125
vn 0.382568359 0 0.923828125
vn 0.382568359 0 0.923828125
vn -0 0 1
vn -0 0 1
vn -0 1 0
vn -0 1 0
vn -0 1 0
vn -0 1 0
vn -0 0 -1
vn -0 0 -1
vn -0 0 -1
vn -0 0 -1
vn -0 -1 0
vn -0 -1 0
vn -0 -1 0
vn -0 -1 0
vn 1 0 0
vn 1 0 0
vn 1 0 0
vn 1 0 0
vn -1 0 0
vn -1 0 0
vn -1 0 0
vn -1 0 0
vn -0 0.868164062 -0.496582031
vn -0 0.868164062 -0.496582031
vn -0 0.868164062 -0.496582031
vn -0 0.868164062 -0.496582031
vn -0.667480469 0 -0.744628906
vn -0.667480469 0 -0.744628906
vn -0.667480469 0 -0.744628906
vn -0.667480469 0 -0.744628906
vn -0 -0.868164062 -0.496582031
vn -0 -0.868164062 -0.496582031
vn -0 -0.868164062 -0.496582031
vn -0 -0.868164062 -0.496582031
vn 0.667480469 0 -0.744628906
vn 0.667480469 0 -0.744628906
vn 0.667480469 0 -0.744628906
vn 0.667480469 0 -0.744628906
vn -0 -1 0
vn -0 -1 0
vn -0 -1 0
vn -0 -1 0
vn -0 -1 0
vn -0 -1 0
vn -0 -1 0
vn -0 -1 0
vn -0 -1 0
vn -0 -1 0
vn -0 -1 0
vn -0 -1 0
vn -0 -1 0
vn -0 -1 0
vn -0 -1 0
vn -0 -1 0
vn -0 -1 0
vn -6.55651093E-07 1 -7.15255737E-07
vn -0 1 0
vn -7.15255737E-07 1 0
vn -4.76837158E-07 1 -1.01327896E-06
vn -6.55651093E-07 1 7.15255737E-07
vn -2.98023224E-07 1 -5.96046448E-07
vn -4.76837158E-07 1 7.15255737E-07
vn -0 1 -5.96046448E-07
vn -2.98023224E-07 1 7.15255737E-07
vn 2.98023224E-07 1 -1.01327896E-06
vn -0 1 1.13248825E-06
vn 4.76837158E-07 1 -7.15255737E-07
vn 2.98023224E-07 1 8.34465027E-07
vn 6.55651093E-07 1 0
vn 4.76837158E-07 1 3.57627869E-07
vn 7.15255737E-07 1 0
vn 6.55651093E-07 1 0
vn -0.0110321045 0.844238281 -0.536132812
vn -0.0072517395 0.844238281 -0.536132812
vn 0.418212891 0.732910156 -0.536621094
vn 0.414550781 0.734863281 -0.536621094
vn -0.432373047 0.727539062 -0.532714844
vn 0.732421875 0.422851562 -0.533691406
vn -0.430419922 0.728515625 -0.532714844
vn 0.729980469 0.426269531 -0.533691406
vn -0.739746094 0.418212891 -0.52734375
vn 0.848632812 -0.00364303589 -0.528808594
vn -0.739746094 0.418212891 -0.52734375
vn 0.848632812 -0.00136375427 -0.528808594
vn -0.853027344 -0.00262069702 -0.521484375
vn 0.734863281 -0.431640625 -0.522949219
vn -0.853027344 -0.00484085083 -0.521484375
vn 0.734863281 -0.431640625 -0.522949219
vn -0.742675781 -0.425537109 -0.516601562
vn 0.421630859 -0.744628906 -0.517578125
vn -0.741210938 -0.428955078 -0.516601562
vn 0.419921875 -0.745605469 -0.517578125
vn -0.435302734 -0.739257812 -0.514160156
vn -0.00576782227 -0.857421875 -0.514160156
vn -0.431396484 -0.741699219 -0.514160156
vn -0.00961303711 -0.857421875 -0.514160156
vn 0.159301758 0.0950317383 -0.982421875
vn 0.186401367 -0.00587081909 -0.982421875
vn 0.186401367 -0.00587081909 -0.982421875
vn 0.159301758 0.0950317383 -0.982421875
vn 0.159423828 -0.106811523 -0.981445312
vn 0.0853881836 0.168823242 -0.981933594
vn 0.159423828 -0.106750488 -0.981445312
vn 0.0853881836 0.168823242 -0.981933594
vn 0.0856323242 -0.180664062 -0.979980469
vn -0.0155410767 0.195800781 -0.98046875
vn 0.0856323242 -0.180664062 -0.979980469
vn -0.0155410767 0.195800781 -0.98046875
vn -0.0152359009 -0.207763672 -0.978027344
vn -0.116394043 0.168701172 -0.979003906
vn -0.0152359009 -0.207763672 -0.978027344
vn -0.116394043 0.168701172 -0.979003906
vn -0.116149902 -0.180786133 -0.9765625
vn -0.190185547 0.0947875977 -0.977050781
vn -0.116149902 -0.180786133 -0.9765625
vn -0.190185547 0.0947875977 -0.977050781
vn -0.190063477 -0.106994629 -0.976074219
vn -0.217163086 -0.0061340332 -0.976074219
vn -0.190063477 -0.106994629 -0.976074219
vn -0.217163086 -0.0061340332 -0.976074219
vn 0.793945312 0.460205078 -0.396728516
vn 0.793945312 0.460449219 -0.396728516
vn 0.918457031 -0.00198364258 -0.395751953
vn 0.456054688 0.798339844 -0.392578125
vn 0.918457031 -0.00144958496 -0.395751953
vn 0.455322266 0.798828125 -0.392578125
vn 0.794921875 -0.46484375 -0.389648438
vn -0.00591278076 0.923339844 -0.384521484
vn 0.795898438 -0.463867188 -0.389648438
vn -0.00728607178 0.923339844 -0.384521484
vn 0.45703125 -0.804199219 -0.380371094
vn -0.468994141 0.799804688 -0.374267578
vn 0.458251953 -0.803222656 -0.380371094
vn -0.470214844 0.799316406 -0.374267578
vn -0.005859375 -0.929199219 -0.370117188
vn -0.80859375 0.461181641 -0.364990234
vn -0.00448226929 -0.929199219 -0.370117188
vn -0.809082031 0.460205078 -0.364990234
vn -0.469238281 -0.805664062 -0.361816406
vn -0.93359375 -0.00260734558 -0.358886719
vn -0.468505859 -0.806152344 -0.361816406
vn -0.93359375 -0.0031452179 -0.358886719
vn -0.809082031 -0.466552734 -0.357666016
vn -0.80859375 -0.466796875 -0.357666016
g HydraulicJack_0
f 3/3/3 2/2/2 1/1/1
f 2/2/2 4/4/4 1/1/1
f 2/2/2 5/5/5 4/4/4
f 5/5/5 6/6/6 4/4/4
f 9/9/9 8/8/8 7/7/7
f 10/10/10 9/9/9 7/7/7
f 11/11/11 9/9/9 10/10/10
f 12/12/12 11/11/11 10/10/10
f 15/15/15 14/14/14 13/13/13
f 14/14/14 16/16/16 13/13/13
f 13/13/13 16/16/16 17/17/17
f 16/16/16 18/18/18 17/17/17
f 21/21/21 20/20/20 19/19/19
f 22/22/22 21/21/21 19/19/19
f 25/25/25 24/24/24 23/23/23
f 26/26/26 25/25/25 23/23/23
f 29/29/29 28/28/28 27/27/27
f 28/28/28 30/30/30 27/27/27
f 28/28/28 31/31/31 30/30/30
f 31/31/31 32/32/32 30/30/30
f 35/35/35 34/34/34 33/33/33
f 36/36/36 35/35/35 33/33/33
f 37/37/37 35/35/35 36/36/36
f 38/38/38 37/37/37 36/36/36
f 41/41/41 40/40/40 39/39/39
f 40/40/40 42/42/42 39/39/39
f 39/39/39 42/42/42 43/43/43
f 42/42/42 44/44/44 43/43/43
f 47/47/47 46/46/46 45/45/45
f 48/48/48 47/47/47 45/45/45
f 51/51/51 50/50/50 49/49/49
f 52/52/52 51/51/51 49/49/49
f 55/55/55 54/54/54 53/53/53
f 54/54/54 56/56/56 53/53/53
f 54/54/54 57/57/57 56/56/56
f 57/57/57 58/58/58 56/56/56
f 61/61/61 60/60/60 59/59/59
f 62/62/62 61/61/61 59/59/59
f 63/63/63 61/61/61 62/62/62
f 64/64/64 63/63/63 62/62/62
f 67/67/67 66/66/66 65/65/65
f 66/66/66 68/68/68 65/65/65
f 65/65/65 68/68/68 69/69/69
f 68/68/68 70/70/70 69/69/69
f 73/73/73 72/72/72 71/71/71
f 74/74/74 73/73/73 71/71/71
f 77/77/77 76/76/76 75/75/75
f 78/78/78 77/77/77 75/75/75
f 81/81/81 80/80/80 79/79/79
f 80/80/80 82/82/82 79/79/79
f 80/80/80 83/83/83 82/82/82
f 83/83/83 84/84/84 82/82/82
f 87/87/87 86/86/86 85/85/85
f 88/88/88 87/87/87 85/85/85
f 89/89/89 87/87/87 88/88/88
f 90/90/90 89/89/89 88/88/88
f 93/93/93 92/92/92 91/91/91
f 92/92/92 94/94/94 91/91/91
f 91/91/91 94/94/94 95/95/95
f 94/94/94 96/96/96 95/95/95
f 99/99/99 98/98/98 97/97/97
f 100/100/100 99/99/99 97/97/97
f 103/103/103 102/102/102 101/101/101
f 104/104/104 103/103/103 101/101/101
f 107/107/107 106/106/106 105/105/105
f 106/106/106 108/108/108 105/105/105
f 106/106/106 109/109/109 108/108/108
f 109/109/109 110/110/110 108/108/108
f 113/113/113 112/112/112 111/111/111
f 114/114/114 113/113/113 111/111/111
f 115/115/115 113/113/113 114/114/114
f 116/116/116 115/115/115 114/114/114
f 119/119/119 118/118/118 117/117/117
f 118/118/118 120/120/120 117/117/117
f 117/117/117 120/120/120 121/121/121
f 120/120/120 122/122/122 121/121/121
f 125/125/125 124/124/124 123/123/123
f 126/126/126 125/125/125 123/123/123
f 129/129/129 128/128/128 127/127/127
f 130/130/130 129/129/129 127/127/127
f 133/133/133 132/132/132 131/131/131
f 132/132/132 134/134/134 131/131/131
f 132/132/132 135/135/135 134/134/134
f 135/135/135 136/136/136 134/134/134
f 139/139/139 138/138/138 137/137/137
f 140/140/140 139/139/139 137/137/137
f 141/141/141 139/139/139 140/140/140
f 142/142/142 141/141/141 140/140/140
f 145/145/145 144/144/144 143/143/143
f 144/144/144 146/146/146 143/143/143
f 143/143/143 146/146/146 147/147/147
f 146/146/146 148/148/148 147/147/147
f 151/151/151 150/150/150 149/149/149
f 152/152/152 151/151/151 149/149/149
f 155/155/155 154/154/154 153/153/153
f 156/156/156 155/155/155 153/153/153
f 159/159/159 158/158/158 157/157/157
f 158/158/158 160/160/160 157/157/157
f 158/158/158 161/161/161 160/160/160
f 161/161/161 162/162/162 160/160/160
f 165/165/165 164/164/164 163/163/163
f 166/166/166 165/165/165 163/163/163
f 167/167/167 165/165/165 166/166/166
f 168/168/168 167/167/167 166/166/166
f 171/171/171 170/170/170 169/169/169
f 170/170/170 172/172/172 169/169/169
f 169/169/169 172/172/172 173/173/173
f 172/172/172 174/174/174 173/173/173
f 177/177/177 176/176/176 175/175/175
f 178/178/178 177/177/177 175/175/175
f 181/181/181 180/180/180 179/179/179
f 182/182/182 181/181/181 179/179/179
f 185/185/185 184/184/184 183/183/183
f 184/184/184 186/186/186 183/183/183
f 184/184/184 187/187/187 186/186/186
f 187/187/187 188/188/188 186/186/186
f 191/191/191 190/190/190 189/189/189
f 192/192/192 191/191/191 189/189/189
f 193/193/193 191/191/191 192/192/192
f 194/194/194 193/193/193 192/192/192
f 197/197/197 196/196/196 195/195/195
f 196/196/196 198/198/198 195/195/195
f 195/195/195 198/198/198 199/199/199
f 198/198/198 200/200/200 199/199/199
f 203/203/203 202/202/202 201/201/201
f 204/204/204 203/203/203 201/201/201
f 207/207/207 206/206/206 205/205/205
f 208/208/208 207/207/207 205/205/205
f 211/211/211 210/210/210 209/209/209
f 210/210/210 212/212/212 209/209/209
f 209/209/209 212/212/212 213/213/213
f 210/210/210 214/214/214 212/212/212
f 212/212/212 215/215/215 213/213/213
f 213/213/213 215/215/215 216/216/216
f 214/214/214 217/217/217 212/212/212
f 212/212/212 217/217/217 215/215/215
f 214/214/214 218/218/218 217/217/217
f 218/218/218 219/219/219 217/217/217
f 217/217/217 219/219/219 220/220/220
f 217/217/217 220/220/220 215/215/215
f 219/219/219 221/221/221 220/220/220
f 215/215/215 222/222/222 216/216/216
f 215/215/215 220/220/220 222/222/222
f 216/216/216 222/222/222 223/223/223
f 220/220/220 221/221/221 224/224/224
f 220/220/220 224/224/224 222/222/222
f 221/221/221 225/225/225 224/224/224
f 222/222/222 226/226/226 223/223/223
f 222/222/222 224/224/224 226/226/226
f 223/223/223 226/226/226 227/227/227
f 224/224/224 225/225/225 228/228/228
f 224/224/224 228/228/228 226/226/226
f 225/225/225 229/229/229 228/228/228
f 226/226/226 230/230/230 227/227/227
f 226/226/226 228/228/228 230/230/230
f 227/227/227 230/230/230 231/231/231
f 228/228/228 229/229/229 232/232/232
f 228/228/228 232/232/232 230/230/230
f 229/229/229 233/233/233 232/232/232
f 230/230/230 234/234/234 231/231/231
f 230/230/230 232/232/232 234/234/234
f 231/231/231 234/234/234 235/235/235
f 232/232/232 233/233/233 236/236/236
f 232/232/232 236/236/236 234/234/234
f 233/233/233 237/237/237 236/236/236
f 234/234/234 238/238/238 235/235/235
f 234/234/234 236/236/236 238/238/238
f 235/235/235 238/238/238 239/239/239
f 236/236/236 237/237/237 240/240/240
f 236/236/236 240/240/240 238/238/238
f 237/237/237 241/241/241 240/240/240
f 238/238/238 242/242/242 239/239/239
f 238/238/238 240/240/240 242/242/242
f 239/239/239 242/242/242 243/243/243
f 240/240/240 241/241/241 244/244/244
f 240/240/240 244/244/244 242/242/242
f 241/241/241 245/245/245 244/244/244
f 242/242/242 246/246/246 243/243/243
f 242/242/242 244/244/244 246/246/246
f 243/243/243 246/246/246 247/247/247
f 244/244/244 245/245/245 248/248/248
f 244/244/244 248/248/248 246/246/246
f 245/245/245 249/249/249 248/248/248
f 246/246/246 250/250/250 247/247/247
f 246/246/246 248/248/248 250/250/250
f 247/247/247 250/250/250 251/251/251
f 248/248/248 249/249/249 252/252/252
f 248/248/248 252/252/252 250/250/250
f 249/249/249 253/253/253 252/252/252
f 250/250/250 254/254/254 251/251/251
f 250/250/250 252/252/252 254/254/254
f 251/251/251 254/254/254 255/255/255
f 252/252/252 253/253/253 256/256/256
f 252/252/252 256/256/256 254/254/254
f 253/253/253 257/257/257 256/256/256
f 254/254/254 258/258/258 255/255/255
f 254/254/254 256/256/256 258/258/258
f 255/255/255 258/258/258 259/259/259
f 256/256/256 257/257/257 260/260/260
f 256/256/256 260/260/260 258/258/258
f 257/257/257 261/261/261 260/260/260
f 258/258/258 262/262/262 259/259/259
f 258/258/258 260/260/260 262/262/262
f 259/259/259 262/262/262 263/263/263
f 260/260/260 261/261/261 264/264/264
f 260/260/260 264/264/264 262/262/262
f 261/261/261 265/265/265 264/264/264
f 262/262/262 266/266/266 263/263/263
f 262/262/262 264/264/264 266/266/266
f 263/263/263 266/266/266 267/267/267
f 264/264/264 265/265/265 268/268/268
f 264/264/264 268/268/268 266/266/266
f 265/265/265 269/269/269 268/268/268
f 266/266/266 270/270/270 267/267/267
f 266/266/266 268/268/268 270/270/270
f 267/267/267 270/270/270 271/271/271
f 270/270/270 272/272/272 271/271/271
f 268/268/268 269/269/269 273/273/273
f 268/268/268 273/273/273 270/270/270
f 270/270/270 273/273/273 272/272/272
f 269/269/269 274/274/274 273/273/273
f 273/273/273 275/275/275 272/272/272
f 273/273/273 274/274/274 275/275/275
f 274/274/274 276/276/276 275/275/275
f 279/279/279 278/278/278 277/277/277
f 278/278/278 280/280/280 277/277/277
f 277/277/277 280/280/280 281/281/281
f 278/278/278 282/282/282 280/280/280
f 280/280/280 283/283/283 281/281/281
f 281/281/281 283/283/283 284/284/284
f 282/282/282 285/285/285 280/280/280
f 280/280/280 285/285/285 283/283/283
f 282/282/282 286/286/286 285/285/285
f 283/283/283 287/287/287 284/284/284
f 284/284/284 287/287/287 288/288/288
f 285/285/285 289/289/289 283/283/283
f 283/283/283 289/289/289 287/287/287
f 286/286/286 290/290/290 285/285/285
f 285/285/285 290/290/290 289/289/289
f 286/286/286 291/291/291 290/290/290
f 291/291/291 292/292/292 290/290/290
f 290/290/290 292/292/292 293/293/293
f 290/290/290 293/293/293 289/289/289
f 292/292/292 294/294/294 293/293/293
f 287/287/287 295/295/295 288/288/288
f 288/288/288 295/295/295 296/296/296
f 289/289/289 297/297/297 287/287/287
f 289/289/289 293/293/293 297/297/297
f 287/287/287 297/297/297 295/295/295
f 293/293/293 294/294/294 298/298/298
f 293/293/293 298/298/298 297/297/297
f 294/294/294 299/299/299 298/298/298
f 295/295/295 300/300/300 296/296/296
f 296/296/296 300/300/300 301/301/301
f 297/297/297 302/302/302 295/295/295
f 297/297/297 298/298/298 302/302/302
f 295/295/295 302/302/302 300/300/300
f 298/298/298 299/299/299 303/303/303
f 298/298/298 303/303/303 302/302/302
f 299/299/299 304/304/304 303/303/303
f 300/300/300 305/305/305 301/301/301
f 301/301/301 305/305/305 306/306/306
f 302/302/302 307/307/307 300/300/300
f 302/302/302 303/303/303 307/307/307
f 300/300/300 307/307/307 305/305/305
f 303/303/303 304/304/304 308/308/308
f 303/303/303 308/308/308 307/307/307
f 304/304/304 309/309/309 308/308/308
f 305/305/305 310/310/310 306/306/306
f 306/306/306 310/310/310 311/311/311
f 307/307/307 312/312/312 305/305/305
f 307/307/307 308/308/308 312/312/312
f 305/305/305 312/312/312 310/310/310
f 308/308/308 309/309/309 313/313/313
f 308/308/308 313/313/313 312/312/312
f 309/309/309 314/314/314 313/313/313
f 310/310/310 315/315/315 311/311/311
f 311/311/311 315/315/315 316/316/316
f 312/312/312 317/317/317 310/310/310
f 312/312/312 313/313/313 317/317/317
f 310/310/310 317/317/317 315/315/315
f 313/313/313 314/314/314 318/318/318
f 313/313/313 318/318/318 317/317/317
f 314/314/314 319/319/319 318/318/318
f 315/315/315 320/320/320 316/316/316
f 316/316/316 320/320/320 321/321/321
f 317/317/317 322/322/322 315/315/315
f 317/317/317 318/318/318 322/322/322
f 315/315/315 322/322/322 320/320/320
f 318/318/318 319/319/319 323/323/323
f 318/318/318 323/323/323 322/322/322
f 319/319/319 324/324/324 323/323/323
f 320/320/320 325/325/325 321/321/321
f 321/321/321 325/325/325 326/326/326
f 322/322/322 327/327/327 320/320/320
f 322/322/322 323/323/323 327/327/327
f 320/320/320 327/327/327 325/325/325
f 323/323/323 324/324/324 328/328/328
f 323/323/323 328/328/328 327/327/327
f 324/324/324 329/329/329 328/328/328
f 325/325/325 330/330/330 326/326/326
f 326/326/326 330/330/330 331/331/331
f 327/327/327 332/332/332 325/325/325
f 327/327/327 328/328/328 332/332/332
f 325/325/325 332/332/332 330/330/330
f 328/328/328 329/329/329 333/333/333
f 328/328/328 333/333/333 332/332/332
f 329/329/329 334/334/334 333/333/333
f 330/330/330 335/335/335 331/331/331
f 331/331/331 335/335/335 336/336/336
f 332/332/332 337/337/337 330/330/330
f 332/332/332 333/333/333 337/337/337
f 330/330/330 337/337/337 335/335/335
f 333/333/333 334/334/334 338/338/338
f 333/333/333 338/338/338 337/337/337
f 334/334/334 339/339/339 338/338/338
f 335/335/335 340/340/340 336/336/336
f 336/336/336 340/340/340 341/341/341
f 337/337/337 342/342/342 335/335/335
f 337/337/337 338/338/338 342/342/342
f 335/335/335 342/342/342 340/340/340
f 338/338/338 339/339/339 343/343/343
f 338/338/338 343/343/343 342/342/342
f 339/339/339 344/344/344 343/343/343
f 340/340/340 345/345/345 341/341/341
f 341/341/341 345/345/345 346/346/346
f 342/342/342 347/347/347 340/340/340
f 342/342/342 343/343/343 347/347/347
f 340/340/340 347/347/347 345/345/345
f 343/343/343 344/344/344 348/348/348
f 343/343/343 348/348/348 347/347/347
f 344/344/344 349/349/349 348/348/348
f 345/345/345 350/350/350 346/346/346
f 346/346/346 350/350/350 351/351/351
f 350/350/350 352/352/352 351/351/351
f 347/347/347 353/353/353 345/345/345
f 347/347/347 348/348/348 353/353/353
f 345/345/345 353/353/353 350/350/350
f 348/348/348 349/349/349 354/354/354
f 348/348/348 354/354/354 353/353/353
f 349/349/349 355/355/355 354/354/354
f 350/350/350 356/356/356 352/352/352
f 353/353/353 356/356/356 350/350/350
f 353/353/353 354/354/354 356/356/356
f 356/356/356 357/357/357 352/352/352
f 354/354/354 355/355/355 358/358/358
f 354/354/354 358/358/358 356/356/356
f 356/356/356 358/358/358 357/357/357
f 355/355/355 359/359/359 358/358/358
f 358/358/358 360/360/360 357/357/357
f 358/358/358 359/359/359 360/360/360
f 359/359/359 361/361/361 360/360/360
f 364/364/364 363/363/363 362/362/362
f 363/363/363 365/365/365 362/362/362
f 363/363/363 366/366/366 365/365/365
f 362/362/362 365/365/365 367/367/367
f 366/366/366 368/368/368 365/365/365
f 365/365/365 369/369/369 367/367/367
f 365/365/365 368/368/368 369/369/369
f 367/367/367 369/369/369 370/370/370
f 368/368/368 371/371/371 369/369/369
f 369/369/369 372/372/372 370/370/370
f 369/369/369 371/371/371 372/372/372
f 370/370/370 372/372/372 373/373/373
f 371/371/371 374/374/374 372/372/372
f 372/372/372 375/375/375 373/373/373
f 372/372/372 374/374/374 375/375/375
f 373/373/373 375/375/375 376/376/376
f 374/374/374 377/377/377 375/375/375
f 375/375/375 378/378/378 376/376/376
f 375/375/375 377/377/377 378/378/378
f 376/376/376 378/378/378 379/379/379
f 377/377/377 380/380/380 378/378/378
f 378/378/378 381/381/381 379/379/379
f 378/378/378 380/380/380 381/381/381
f 379/379/379 381/381/381 382/382/382
f 380/380/380 383/383/383 381/381/381
f 381/381/381 384/384/384 382/382/382
f 381/381/381 383/383/383 384/384/384
f 382/382/382 384/384/384 385/385/385
f 383/383/383 386/386/386 384/384/384
f 384/384/384 387/387/387 385/385/385
f 384/384/384 386/386/386 387/387/387
f 385/385/385 387/387/387 388/388/388
f 386/386/386 389/389/389 387/387/387
f 387/387/387 390/390/390 388/388/388
f 387/387/387 389/389/389 390/390/390
f 388/388/388 390/390/390 391/391/391
f 389/389/389 392/392/392 390/390/390
f 390/390/390 393/393/393 391/391/391
f 390/390/390 392/392/392 393/393/393
f 391/391/391 393/393/393 394/394/394
f 392/392/392 395/395/395 393/393/393
f 393/393/393 396/396/396 394/394/394
f 393/393/393 395/395/395 396/396/396
f 394/394/394 396/396/396 397/397/397
f 395/395/395 398/398/398 396/396/396
f 396/396/396 399/399/399 397/397/397
f 396/396/396 398/398/398 399/399/399
f 397/397/397 399/399/399 400/400/400
f 398/398/398 401/401/401 399/399/399
f 399/399/399 402/402/402 400/400/400
f 399/399/399 401/401/401 402/402/402
f 400/400/400 402/402/402 403/403/403
f 401/401/401 404/404/404 402/402/402
f 402/402/402 405/405/405 403/403/403
f 402/402/402 404/404/404 405/405/405
f 403/403/403 405/405/405 406/406/406
f 404/404/404 407/407/407 405/405/405
f 405/405/405 408/408/408 406/406/406
f 405/405/405 407/407/407 408/408/408
f 406/406/406 408/408/408 409/409/409
f 407/407/407 410/410/410 408/408/408
f 408/408/408 411/411/411 409/409/409
f 408/408/408 410/410/410 411/411/411
f 410/410/410 412/412/412 411/411/411
f 415/415/415 414/414/414 413/413/413
f 414/414/414 416/416/416 413/413/413
f 413/413/413 416/416/416 417/417/417
f 416/416/416 418/418/418 417/417/417
f 417/417/417 418/418/418 419/419/419
f 418/418/418 420/420/420 419/419/419
f 419/419/419 420/420/420 421/421/421
f 420/420/420 422/422/422 421/421/421
f 421/421/421 422/422/422 423/423/423
f 422/422/422 424/424/424 423/423/423
f 423/423/423 424/424/424 425/425/425
f 424/424/424 426/426/426 425/425/425
f 425/425/425 426/426/426 427/427/427
f 426/426/426 428/428/428 427/427/427
f 427/427/427 428/428/428 429/429/429
f 428/428/428 430/430/430 429/429/429
f 429/429/429 430/430/430 431/431/431
f 430/430/430 432/432/432 431/431/431
f 431/431/431 432/432/432 433/433/433
f 432/432/432 434/434/434 433/433/433
f 433/433/433 434/434/434 435/435/435
f 434/434/434 436/436/436 435/435/435
f 435/435/435 436/436/436 437/437/437
f 436/436/436 438/438/438 437/437/437
f 437/437/437 438/438/438 439/439/439
f 438/438/438 440/440/440 439/439/439
f 439/439/439 440/440/440 441/441/441
f 440/440/440 442/442/442 441/441/441
f 441/441/441 442/442/442 443/443/443
f 442/442/442 444/444/444 443/443/443
f 443/443/443 444/444/444 445/445/445
f 444/444/444 446/446/446 445/445/445
f 449/449/449 448/448/448 447/447/447
f 450/450/450 449/449/449 447/447/447
f 453/453/453 452/452/452 451/451/451
f 454/454/454 453/453/453 451/451/451
f 457/457/457 456/456/456 455/455/455
f 458/458/458 457/457/457 455/455/455
f 461/461/461 460/460/460 459/459/459
f 462/462/462 461/461/461 459/459/459
f 465/465/465 464/464/464 463/463/463
f 466/466/466 465/465/465 463/463/463
f 469/469/469 468/468/468 467/467/467
f 470/470/470 469/469/469 467/467/467
f 473/473/473 472/472/472 471/471/471
f 474/474/474 473/473/473 471/471/471
f 477/477/477 476/476/476 475/475/475
f 478/478/478 477/477/477 475/475/475
f 481/481/481 480/480/480 479/479/479
f 482/482/482 481/481/481 479/479/479
f 485/485/485 484/484/484 483/483/483
f 483/483/483 484/484/484 486/486/486
f 487/487/487 484/484/484 485/485/485
f 486/486/486 484/484/484 488/488/488
f 489/489/489 484/484/484 487/487/487
f 488/488/488 484/484/484 490/490/490
f 491/491/491 484/484/484 489/489/489
f 490/490/490 484/484/484 492/492/492
f 493/493/493 484/484/484 491/491/491
f 492/492/492 484/484/484 494/494/494
f 495/495/495 484/484/484 493/493/493
f 494/494/494 484/484/484 496/496/496
f 497/497/497 484/484/484 495/495/495
f 496/496/496 484/484/484 498/498/498
f 499/499/499 484/484/484 497/497/497
f 498/498/498 484/484/484 499/499/499
f 502/502/502 501/501/501 500/500/500
f 500/500/500 501/501/501 503/503/503
f 504/504/504 501/501/501 502/502/502
f 503/503/503 501/501/501 505/505/505
f 506/506/506 501/501/501 504/504/504
f 505/505/505 501/501/501 507/507/507
f 508/508/508 501/501/501 506/506/506
f 507/507/507 501/501/501 509/509/509
f 510/510/510 501/501/501 508/508/508
f 509/509/509 501/501/501 511/511/511
f 512/512/512 501/501/501 510/510/510
f 511/511/511 501/501/501 513/513/513
f 514/514/514 501/501/501 512/512/512
f 513/513/513 501/501/501 515/515/515
f 516/516/516 501/501/501 514/514/514
f 515/515/515 501/501/501 516/516/516
f 519/519/519 518/518/518 517/517/517
f 520/520/520 519/519/519 517/517/517
f 517/517/517 518/518/518 521/521/521
f 522/522/522 519/519/519 520/520/520
f 518/518/518 523/523/523 521/521/521
f 524/524/524 522/522/522 520/520/520
f 521/521/521 523/523/523 525/525/525
f 526/526/526 522/522/522 524/524/524
f 523/523/523 527/527/527 525/525/525
f 528/528/528 526/526/526 524/524/524
f 525/525/525 527/527/527 529/529/529
f 530/530/530 526/526/526 528/528/528
f 527/527/527 531/531/531 529/529/529
f 532/532/532 530/530/530 528/528/528
f 529/529/529 531/531/531 533/533/533
f 534/534/534 530/530/530 532/532/532
f 531/531/531 535/535/535 533/533/533
f 536/536/536 534/534/534 532/532/532
f 533/533/533 535/535/535 537/537/537
f 538/538/538 534/534/534 536/536/536
f 535/535/535 539/539/539 537/537/537
f 540/540/540 538/538/538 536/536/536
f 537/537/537 539/539/539 540/540/540
f 539/539/539 538/538/538 540/540/540
f 543/543/543 542/542/542 541/541/541
f 542/542/542 544/544/544 541/541/541
f 545/545/545 542/542/542 543/543/543
f 541/541/541 544/544/544 546/546/546
f 547/547/547 545/545/545 543/543/543
f 544/544/544 548/548/548 546/546/546
f 549/549/549 545/545/545 547/547/547
f 546/546/546 548/548/548 550/550/550
f 551/551/551 549/549/549 547/547/547
f 548/548/548 552/552/552 550/550/550
f 553/553/553 549/549/549 551/551/551
f 550/550/550 552/552/552 554/554/554
f 555/555/555 553/553/553 551/551/551
f 552/552/552 556/556/556 554/554/554
f 557/557/557 553/553/553 555/555/555
f 554/554/554 556/556/556 558/558/558
f 559/559/559 557/557/557 555/555/555
f 556/556/556 560/560/560 558/558/558
f 561/561/561 557/557/557 559/559/559
f 558/558/558 560/560/560 562/562/562
f 563/563/563 561/561/561 559/559/559
f 560/560/560 564/564/564 562/562/562
f 564/564/564 561/561/561 563/563/563
f 562/562/562 564/564/564 563/563/563
f 567/567/567 566/566/566 565/565/565
f 565/565/565 566/566/566 568/568/568
f 569/569/569 567/567/567 565/565/565
f 566/566/566 570/570/570 568/568/568
f 571/571/571 567/567/567 569/569/569
f 568/568/568 570/570/570 572/572/572
f 573/573/573 571/571/571 569/569/569
f 570/570/570 574/574/574 572/572/572
f 575/575/575 571/571/571 573/573/573
f 572/572/572 574/574/574 576/576/576
f 577/577/577 575/575/575 573/573/573
f 574/574/574 578/578/578 576/576/576
f 579/579/579 575/575/575 577/577/577
f 576/576/576 578/578/578 580/580/580
f 581/581/581 579/579/579 577/577/577
f 578/578/578 582/582/582 580/580/580
f 583/583/583 579/579/579 581/581/581
f 580/580/580 582/582/582 584/584/584
f 585/585/585 583/583/583 581/581/581
f 582/582/582 586/586/586 584/584/584
f 587/587/587 583/583/583 585/585/585
f 584/584/584 586/586/586 588/588/588
f 588/588/588 587/587/587 585/585/585
f 586/586/586 587/587/587 588/588/588
