g Rock_B_6
v -0.0295184612 0.223358682 -0.124600403
v 0.0904400364 0.262285612 -0.122217122
v 0.0785236293 0.278174155 -0.0141750313
v -0.0557345567 0.232891808 -0.0308580011
v -0.223358682 0.16298222 -0.047540971
v 0.0427744082 0.247985924 0.145504823
v 0.140488946 0.241630507 0.14629925
v 0.165910614 0.264668894 0.00489121999
v -0.0787729437 0.212236703 0.110550029
v -0.00330236572 0.0612955467 0.239247225
v -0.247985924 0.0620899738 0.160598939
v -0.32663421 0.0668565366 0.0732119537
v -0.233686235 0.155832376 0.0231630441
v -0.332989627 0.0740063808 -0.065018368
v -0.391777235 -0.13095582 0.0986336221
v -0.421171039 -0.13095582 -0.0793180564
v -0.391777235 -0.13095582 0.0986336221
v -0.32663421 0.0668565366 0.0732119537
v -0.247985924 0.0620899738 0.160598939
v -0.311540095 -0.129366966 0.181254044
v -0.335372909 -0.27792484 0.0676509637
v -0.250369205 -0.27792484 0.150271386
v -0.0326961698 -0.277130413 0.212236703
v -0.00330236572 0.0612955467 0.239247225
v -0.0295184612 -0.123805976 0.260696758
v 0.181799157 -0.27792484 0.227330818
v 0.238997911 -0.129366966 0.278968582
v 0.211987388 0.0628844009 0.242424934
v 0.0427744082 0.247985924 0.145504823
v 0.140488946 0.241630507 0.14629925
v 0.317646197 -0.27792484 -0.0817013379
v 0.385966931 -0.13095582 -0.109506288
v 0.32241276 -0.129366966 -0.190537856
v 0.250914318 -0.27792484 -0.161144051
v 0.0523075338 -0.277130413 -0.220726087
v 0.0666072223 -0.123805976 -0.266008433
v 0.285074685 0.0628844009 -0.166705041
v -0.201114723 -0.129366966 -0.277130413
v -0.136766125 -0.27792484 -0.234231348
v 0.0856734735 0.0620899738 -0.238997911
v 0.184182438 0.253546914 -0.0888511821
v 0.0904400364 0.262285612 -0.122217122
v -0.12961628 0.0620899738 -0.243764474
v -0.0295184612 0.223358682 -0.124600403
v -0.251958059 0.0668565366 -0.18656572
v -0.340139471 -0.13095582 -0.219137232
v -0.204292431 0.16298222 -0.0777292022
v -0.223358682 0.16298222 -0.047540971
v -0.332989627 0.0740063808 -0.065018368
v -0.421171039 -0.13095582 -0.0793180564
v 0.385966931 -0.13095582 -0.109506288
v 0.285074685 0.0628844009 -0.166705041
v 0.32241276 -0.129366966 -0.190537856
v 0.343862293 0.0668565366 -0.082495765
v 0.184182438 0.253546914 -0.0888511821
v 0.345451147 0.0755952351 0.0557345567
v 0.391527921 -0.13095582 0.0644732552
v 0.317646197 -0.27792484 -0.0817013379
v 0.321618333 -0.27792484 0.051762421
v 0.326384896 -0.13095582 0.224947537
v 0.271569423 -0.27792484 0.175693054
v 0.181799157 -0.27792484 0.227330818
v 0.238997911 -0.129366966 0.278968582
v 0.296196665 0.0668565366 0.18522618
v 0.211987388 0.0628844009 0.242424934
v 0.253297599 0.197142587 0.0970447678
v 0.140488946 0.241630507 0.14629925
v 0.269980569 0.205086858 0.034285024
v 0.165910614 0.264668894 0.00489121999
v 0.269980569 0.205086858 0.00648007426
v 0.0904400364 0.262285612 -0.122217122
v 0.0785236293 0.278174155 -0.0141750313
v -0.136766125 -0.27792484 -0.234231348
v -0.201114723 -0.129366966 -0.277130413
v -0.340139471 -0.13095582 -0.219137232
v -0.271024311 -0.27792484 -0.18100473
v -0.349672597 -0.27792484 -0.0681960765
v -0.421171039 -0.13095582 -0.0793180564
v -0.335372909 -0.27792484 0.0676509637
v -0.391777235 -0.13095582 0.0986336221
vt 0.531192393 0.476126685
vt 0.538075607 0.445152224
vt 0.507101146 0.441710617
vt 0.503659539 0.476126685
vt 0.496776326 0.517425966
vt 0.465801865 0.43826901
vt 0.472685078 0.414177763
vt 0.510542753 0.421060976
vt 0.462360258 0.469243471
vt 0.421060976 0.43826901
vt 0.431385797 0.51398436
vt 0.452035437 0.538075607
vt 0.476126685 0.517425966
vt 0.489893112 0.551842034
vt 0.431385797 0.572491675
vt 0.486451505 0.593141316
vt 0.431385797 0.572491675
vt 0.452035437 0.538075607
vt 0.431385797 0.51398436
vt 0.403852942 0.544958821
vt 0.414177763 0.600024529
vt 0.369436875 0.544958821
vt 0.348787234 0.434827404
vt 0.421060976 0.43826901
vt 0.379761695 0.434827404
vt 0.396969729 0.338462414
vt 0.42794419 0.348787234
vt 0.448593831 0.379761695
vt 0.465801865 0.43826901
vt 0.472685078 0.414177763
vt 0.589699709 0.317812773
vt 0.572491675 0.345345627
vt 0.596582922 0.369436875
vt 0.63099899 0.365995268
vt 0.651648631 0.465801865
vt 0.624115777 0.462360258
vt 0.572491675 0.393528122
vt 0.582816495 0.555283641
vt 0.62067417 0.555283641
vt 0.586258102 0.455477044
vt 0.534634 0.421060976
vt 0.538075607 0.445152224
vt 0.565608461 0.517425966
vt 0.531192393 0.476126685
vt 0.534634 0.541517214
vt 0.538075607 0.586258102
vt 0.507101146 0.517425966
vt 0.496776326 0.517425966
vt 0.489893112 0.551842034
vt 0.486451505 0.593141316
vt 0.572491675 0.345345627
vt 0.572491675 0.393528122
vt 0.596582922 0.369436875
vt 0.551842034 0.372878481
vt 0.534634 0.421060976
vt 0.51398436 0.362553661
vt 0.517425966 0.32125438
vt 0.589699709 0.317812773
vt 0.520867573 0.293721525
vt 0.458918651 0.3315792
vt 0.448593831 0.300604739
vt 0.396969729 0.338462414
vt 0.42794419 0.348787234
vt 0.472685078 0.365995268
vt 0.448593831 0.379761695
vt 0.493334719 0.390086515
vt 0.472685078 0.414177763
vt 0.510542753 0.393528122
vt 0.510542753 0.421060976
vt 0.517425966 0.393528122
vt 0.538075607 0.445152224
vt 0.507101146 0.441710617
vt 0.62067417 0.555283641
vt 0.582816495 0.555283641
vt 0.538075607 0.586258102
vt 0.562166855 0.610349349
vt 0.486451505 0.624115777
vt 0.486451505 0.593141316
vt 0.414177763 0.600024529
vt 0.431385797 0.572491675
vn -0.176502375 0.740276859 -0.648719572
vn 0.105384866 0.67763525 -0.727808009
vn -0.144975264 0.98943528 -0
vn -0.333106399 0.928201687 -0.165776222
vn -0.489710422 0.865560077 -0.104830602
vn -0.176502375 0.708956054 0.682809069
vn 0.168026476 0.67763525 0.71594523
vn 0.26198889 0.959522491 0.103336393
vn -0.364427203 0.740276859 0.564962818
vn -0.176502375 0.301785594 0.936895067
vn -0.427068813 0.395748008 0.813016447
vn -0.802918468 0.489710422 0.339861201
vn -0.521031226 0.834239273 0.180475197
vn -0.834239273 0.489710422 -0.253433499
vn -0.928201687 0.0198983522 0.371544996
vn -0.990843296 0.0512191568 -0.12492462
vn -0.928201687 0.0198983522 0.371544996
vn -0.802918468 0.489710422 0.339861201
vn -0.427068813 0.395748008 0.813016447
vn -0.458389617 -0.0114224525 0.888677943
vn -0.834239273 -0.418592913 0.358921731
vn -0.364427203 -0.324630499 0.872816047
vn -0.176502375 -0.293309694 0.939583064
vn -0.176502375 0.301785594 0.936895067
vn -0.176502375 -0.0427432571 0.983371713
vn 0.0427432571 -0.355951304 0.933526477
vn 0.168026476 -0.0427432571 0.984855379
vn 0.168026476 0.333106399 0.927796977
vn -0.176502375 0.708956054 0.682809069
vn 0.168026476 0.67763525 0.71594523
vn 0.857084178 -0.449913717 -0.250966848
vn 0.951046592 -0.0740640618 -0.300041489
vn 0.512555327 -0.0427432571 -0.857589675
vn 0.387272108 -0.355951304 -0.850481619
vn 0.168026476 -0.293309694 -0.941135764
vn 0.168026476 -0.0427432571 -0.984855379
vn 0.481234522 0.333106399 -0.81083504
vn -0.176502375 -0.0114224525 -0.984233935
vn -0.0512191568 -0.293309694 -0.954644448
vn 0.168026476 0.301785594 -0.938452214
vn 0.418592913 0.646314445 -0.638010667
vn 0.105384866 0.67763525 -0.727808009
vn -0.145181571 0.395748008 -0.906810799
vn -0.176502375 0.740276859 -0.648719572
vn -0.521031226 0.521031226 -0.676056893
vn -0.708956054 0.0198983522 -0.704971892
vn -0.395748008 0.802918468 -0.445763892
vn -0.489710422 0.865560077 -0.104830602
vn -0.834239273 0.489710422 -0.253433499
vn -0.990843296 0.0512191568 -0.12492462
vn 0.951046592 -0.0740640618 -0.300041489
vn 0.481234522 0.333106399 -0.81083504
vn 0.512555327 -0.0427432571 -0.857589675
vn 0.888404982 0.364427203 -0.279158379
vn 0.418592913 0.646314445 -0.638010667
vn 0.951046592 0.301785594 0.0666020696
vn 0.982367396 -0.0740640618 0.171664828
vn 0.857084178 -0.449913717 -0.250966848
vn 0.888404982 -0.449913717 0.0911824218
vn 0.794442569 -0.0740640618 0.60280637
vn 0.700480155 -0.449913717 0.553990253
vn 0.0427432571 -0.355951304 0.933526477
vn 0.168026476 -0.0427432571 0.984855379
vn 0.731800959 0.364427203 0.575899444
vn 0.168026476 0.333106399 0.927796977
vn 0.606517741 0.646314445 0.463048452
vn 0.168026476 0.67763525 0.71594523
vn 0.731800959 0.67763525 0.0726486375
vn 0.26198889 0.959522491 0.103336393
vn 0.731800959 0.646314445 -0.216205907
vn 0.105384866 0.67763525 -0.727808009
vn -0.144975264 0.98943528 -0
vn -0.0512191568 -0.293309694 -0.954644448
vn -0.176502375 -0.0114224525 -0.984233935
vn -0.708956054 0.0198983522 -0.704971892
vn -0.552352031 -0.418592913 -0.72089334
vn -0.865560077 -0.449913717 -0.219962267
vn -0.990843296 0.0512191568 -0.12492462
vn -0.834239273 -0.418592913 0.358921731
vn -0.928201687 0.0198983522 0.371544996
g Rock_B_6_0
f 3/3/3 2/2/2 1/1/1
f 4/4/4 3/3/3 1/1/1
f 4/4/4 1/1/1 5/5/5
f 6/6/6 3/3/3 4/4/4
f 3/3/3 6/6/6 7/7/7
f 8/8/8 3/3/3 7/7/7
f 9/9/9 6/6/6 4/4/4
f 10/10/10 6/6/6 9/9/9
f 11/11/11 10/10/10 9/9/9
f 12/12/12 11/11/11 9/9/9
f 9/9/9 4/4/4 13/13/13
f 4/4/4 5/5/5 13/13/13
f 13/13/13 12/12/12 9/9/9
f 13/13/13 5/5/5 12/12/12
f 5/5/5 14/14/14 12/12/12
f 15/15/15 12/12/12 14/14/14
f 16/16/16 15/15/15 14/14/14
f 19/19/19 18/18/18 17/17/17
f 20/20/20 19/19/19 17/17/17
f 20/20/20 17/17/17 21/21/21
f 22/22/22 20/20/20 21/21/21
f 22/22/22 23/23/23 20/20/20
f 24/24/24 19/19/19 20/20/20
f 23/23/23 25/25/25 20/20/20
f 25/25/25 24/24/24 20/20/20
f 23/23/23 26/26/26 25/25/25
f 26/26/26 27/27/27 25/25/25
f 25/25/25 27/27/27 24/24/24
f 27/27/27 28/28/28 24/24/24
f 24/24/24 28/28/28 29/29/29
f 28/28/28 30/30/30 29/29/29
f 33/33/33 32/32/32 31/31/31
f 34/34/34 33/33/33 31/31/31
f 33/33/33 34/34/34 35/35/35
f 36/36/36 33/33/33 35/35/35
f 37/37/37 33/33/33 36/36/36
f 36/36/36 35/35/35 38/38/38
f 35/35/35 39/39/39 38/38/38
f 40/40/40 37/37/37 36/36/36
f 41/41/41 37/37/37 40/40/40
f 42/42/42 41/41/41 40/40/40
f 40/40/40 36/36/36 43/43/43
f 42/42/42 40/40/40 43/43/43
f 36/36/36 38/38/38 43/43/43
f 44/44/44 42/42/42 43/43/43
f 45/45/45 43/43/43 38/38/38
f 46/46/46 45/45/45 38/38/38
f 44/44/44 43/43/43 47/47/47
f 43/43/43 45/45/45 47/47/47
f 44/44/44 47/47/47 48/48/48
f 49/49/49 48/48/48 47/47/47
f 45/45/45 49/49/49 47/47/47
f 49/49/49 45/45/45 46/46/46
f 50/50/50 49/49/49 46/46/46
f 53/53/53 52/52/52 51/51/51
f 52/52/52 54/54/54 51/51/51
f 52/52/52 55/55/55 54/54/54
f 51/51/51 54/54/54 56/56/56
f 57/57/57 51/51/51 56/56/56
f 58/58/58 51/51/51 57/57/57
f 59/59/59 58/58/58 57/57/57
f 59/59/59 57/57/57 60/60/60
f 57/57/57 56/56/56 60/60/60
f 61/61/61 59/59/59 60/60/60
f 61/61/61 60/60/60 62/62/62
f 60/60/60 63/63/63 62/62/62
f 60/60/60 64/64/64 63/63/63
f 56/56/56 64/64/64 60/60/60
f 64/64/64 65/65/65 63/63/63
f 64/64/64 66/66/66 65/65/65
f 64/64/64 56/56/56 66/66/66
f 66/66/66 67/67/67 65/65/65
f 56/56/56 68/68/68 66/66/66
f 67/67/67 66/66/66 68/68/68
f 56/56/56 54/54/54 68/68/68
f 69/69/69 67/67/67 68/68/68
f 54/54/54 70/70/70 68/68/68
f 55/55/55 70/70/70 54/54/54
f 68/68/68 70/70/70 55/55/55
f 69/69/69 68/68/68 55/55/55
f 69/69/69 55/55/55 71/71/71
f 72/72/72 69/69/69 71/71/71
f 75/75/75 74/74/74 73/73/73
f 76/76/76 75/75/75 73/73/73
f 76/76/76 77/77/77 75/75/75
f 77/77/77 78/78/78 75/75/75
f 77/77/77 79/79/79 78/78/78
f 79/79/79 80/80/80 78/78/78
