g BlueFiles_A
v -0.0451438129 0.367519528 0.120416865
v -0.0451438129 -2.86102289E-08 0.120416865
v -0.0451438911 -2.86102289E-08 -0.12041679
v -0.0451438911 0.367519528 -0.12041679
v 0.0451437384 0.367519528 -0.120416865
v 0.0451437384 -2.86102289E-08 -0.120416865
v 0.0451437384 -2.86102289E-08 0.120416865
v 0.0451437384 0.367519528 0.120416865
v 0.0451437384 0.367519528 0.120416865
v 0.0451437384 -2.86102289E-08 0.120416865
v -0.0451438129 -2.86102289E-08 0.120416865
v -0.0451438129 0.367519528 0.120416865
v -0.0451438911 -2.86102289E-08 -0.12041679
v 0.0451437384 -2.86102289E-08 -0.120416865
v 0.0451437384 0.367519528 -0.120416865
v -0.0451438911 0.367519528 -0.12041679
v -0.0451438129 0.367519528 0.120416865
v -0.0451438911 0.367519528 -0.12041679
v 0.0451437384 0.367519528 -0.120416865
v 0.0451437384 0.367519528 0.120416865
v -0.0451438129 -2.86102289E-08 0.120416865
v 0.0451437384 -2.86102289E-08 0.120416865
v 0.0451437384 -2.86102289E-08 -0.120416865
v -0.0451438911 -2.86102289E-08 -0.12041679
vt 0.541015625 0.478515625
vt 0.471923828 0.479003906
vt 0.471923828 0.5390625
vt 0.541015625 0.5390625
vt 0.541015625 0.5390625
vt 0.471923828 0.5390625
vt 0.471923828 0.479248047
vt 0.541015625 0.478515625
vt 0.541015625 0.458740234
vt 0.471923828 0.459716797
vt 0.471923828 0.479003906
vt 0.541015625 0.478515625
vt 0.471923828 0.437255859
vt 0.471923828 0.45703125
vt 0.541015625 0.45703125
vt 0.541015625 0.437255859
vt 0.541503906 0.437255859
vt 0.472167969 0.437255859
vt 0.472167969 0.45703125
vt 0.541503906 0.45703125
vt 0.541503906 0.45703125
vt 0.541503906 0.437255859
vt 0.472167969 0.437255859
vt 0.472167969 0.45703125
vn -1 0 2.98023224E-07
vn -1 0 2.98023224E-07
vn -1 0 2.98023224E-07
vn -1 0 2.98023224E-07
vn 1 0 0
vn 1 0 0
vn 1 0 0
vn 1 0 0
vn -0 0 1
vn -0 0 1
vn -0 0 1
vn -0 0 1
vn -8.94069672E-07 0 -1
vn -8.94069672E-07 0 -1
vn -8.94069672E-07 0 -1
vn -8.94069672E-07 0 -1
vn -0 1 0
vn -0 1 0
vn -0 1 0
vn -0 1 0
vn -0 -1 0
vn -0 -1 0
vn -0 -1 0
vn -0 -1 0
g BlueFiles_A_0
f 3/3/3 2/2/2 1/1/1
f 4/4/4 3/3/3 1/1/1
f 7/7/7 6/6/6 5/5/5
f 8/8/8 7/7/7 5/5/5
f 11/11/11 10/10/10 9/9/9
f 12/12/12 11/11/11 9/9/9
f 15/15/15 14/14/14 13/13/13
f 16/16/16 15/15/15 13/13/13
f 19/19/19 18/18/18 17/17/17
f 20/20/20 19/19/19 17/17/17
f 23/23/23 22/22/22 21/21/21
f 24/24/24 23/23/23 21/21/21
