g Wall_Museum_Exterior_4
v 2.20532925E-07 7.93162394 16.3010178
v 2.20532925E-07 7.93163013 12.201643
v 2.20532925E-07 9.51474857 12.2016439
v 2.20532925E-07 4.02972507 -16.3165684
v 2.20532925E-07 4.73449421 -12.2416391
v 2.20532925E-07 4.02972364 -12.2416363
v 2.20532925E-07 7.9316411 3.85935998
v 2.20532925E-07 7.93164825 -1.01813996
v 2.20532925E-07 9.57744694 3.85935879
v 2.20532925E-07 7.93163872 6.23471975
v 2.20532925E-07 7.9316411 3.85935998
v 2.20532925E-07 9.57744694 3.85935879
v 2.20532925E-07 10.3992443 6.29483461
v 2.20532925E-07 7.93163633 7.79652548
v 2.20532925E-07 10.9422274 7.90402269
v 2.20532925E-07 7.93163013 12.201643
v 2.20532925E-07 7.93162394 16.3010178
v 2.20532925E-07 6.38870668 16.3010178
v 2.20532925E-07 6.48885298 12.201643
v 2.20532925E-07 4.02972507 16.3010178
v 2.20532925E-07 4.02972269 12.201643
v -2.22087328E-06 5.7420392 -6.43831587
v 2.20532925E-07 6.68306446 -1.01813996
v 2.20532925E-07 4.02971745 -1.01813996
v 2.20532925E-07 4.02971983 -6.43831587
v 2.20532925E-07 -6.23794365 -6.43831587
v 2.20532925E-07 -6.23794413 -1.01813996
v 2.20532925E-07 -6.95094061 -1.01813996
v 2.20532925E-07 -6.95093966 -6.43831587
v 2.20532925E-07 -7.23543453 -4.78657961
v 2.20532925E-07 -7.72023296 -1.01813996
v 2.20532925E-07 -7.24414492 -5.83130646
v 2.20532925E-07 -7.72023296 -4.79180431
v 2.20532925E-07 -7.72023296 -5.83243084
v 2.20532925E-07 -7.72023296 -6.43831587
v 2.20532925E-07 -10.4053383 -1.01813996
v 2.20532925E-07 -8.26710892 -5.83375168
v 2.20532925E-07 -8.27601719 -4.79793358
v 2.20532925E-07 -10.4053383 -6.4383173
v 2.20532925E-07 -10.9422264 -1.01813996
v 2.20532925E-07 -10.9422264 -6.43831587
v 2.20532925E-07 -6.23794317 12.2016439
v 2.20532925E-07 -6.23794222 16.3010178
v 2.20532925E-07 -6.9509387 16.3010178
v 2.20532925E-07 -6.95093918 12.2016439
v 2.20532925E-07 -7.72023296 16.3010159
v 2.20532925E-07 -7.72023296 12.2016439
v 2.20532925E-07 -10.4053383 16.3010178
v 2.20532925E-07 -10.4053383 12.2016439
v 2.20532925E-07 -10.9422264 16.3010178
v 2.20532925E-07 -10.9422264 12.2016439
v -2.22087328E-06 -5.94978094 12.2016439
v -2.22087328E-06 -5.94978094 16.3010178
v 2.20532925E-07 -6.23794222 16.3010178
v 2.20532925E-07 -6.23794317 12.2016439
v 2.20532925E-07 -5.94978094 -6.43831587
v 2.20532925E-07 -5.94978094 -1.01813996
v 2.20532925E-07 -6.23794413 -1.01813996
v 2.20532925E-07 -6.23794365 -6.43831587
v -2.22087328E-06 -2.95454311 12.2016439
v -2.22087328E-06 -2.95454311 16.3010159
v -2.22087328E-06 -3.78109407 16.3010159
v -2.22087328E-06 -3.68892288 12.2016439
v -2.22087328E-06 -4.80662203 16.3010159
v -2.22087328E-06 -4.80662251 12.2016439
v -2.22087328E-06 -5.94978094 16.3010178
v -2.22087328E-06 -5.94978094 12.2016439
v -2.22087328E-06 -2.95454311 -6.43831587
v -2.22087328E-06 -2.95454311 -1.01813996
v -2.22087328E-06 -3.78109694 -1.01813996
v -2.22087328E-06 -3.78109574 -6.43831587
v -2.22087328E-06 -4.80662441 -1.01813996
v -2.22087328E-06 -4.80662298 -6.43831587
v 2.20532925E-07 -5.94978094 -1.01813996
v 2.20532925E-07 -5.94978094 -6.43831587
v 2.20532925E-07 -5.94978094 3.85935879
v 2.20532925E-07 -6.23794365 6.21318293
v 2.20532925E-07 -6.23794365 3.85935879
v 2.20532925E-07 -5.94978094 6.21318293
v 2.20532925E-07 -5.94978094 7.74433231
v 2.20532925E-07 -6.23794365 7.74433231
v -2.22087328E-06 -3.51773763 6.21318293
v -2.22087328E-06 -2.95454311 7.74433136
v -2.22087328E-06 -3.50630212 7.74433136
v -2.22087328E-06 -2.95454311 6.21318293
v -2.22087328E-06 -2.95454311 3.85935879
v -2.22087328E-06 -3.68637037 3.85935879
v -2.22087328E-06 -4.80662298 6.21318293
v -2.22087328E-06 -4.80662394 3.85935879
v 2.20532925E-07 -5.94978094 6.21318293
v 2.20532925E-07 -5.94978094 3.85935879
v 2.20532925E-07 -10.4053383 3.8593576
v 2.20532925E-07 -10.9422264 6.21318293
v 2.20532925E-07 -10.9422264 3.8593576
v 2.20532925E-07 -10.4053383 6.21318293
v 2.20532925E-07 -10.9422264 7.74433231
v 2.20532925E-07 -10.4053383 7.74433231
v 2.20532925E-07 -7.72023296 3.85935879
v 2.20532925E-07 -7.72023296 7.74433136
v 2.20532925E-07 -7.72023296 6.21318293
v 2.20532925E-07 -6.95093966 3.85935879
v 2.20532925E-07 -6.95093966 7.74433231
v 2.20532925E-07 -6.95093966 6.21318293
v 2.20532925E-07 -6.23794365 3.85935879
v 2.20532925E-07 -6.23794365 7.74433231
v 2.20532925E-07 -6.23794365 6.21318293
v 2.20532925E-07 4.02972269 12.201643
v 2.20532925E-07 4.02972507 16.3010178
v 2.20532925E-07 3.64545727 16.3010178
v 2.20532925E-07 3.64545608 12.2016439
v 2.20532925E-07 3.64545488 6.21318388
v 2.20532925E-07 4.02972126 7.74433231
v 2.20532925E-07 3.64545488 7.74433279
v 2.20532925E-07 4.02971983 6.21318293
v 2.20532925E-07 4.02971888 3.85935998
v 2.20532925E-07 3.64545369 3.85935879
v 2.20532925E-07 4.02971983 -6.43831587
v 2.20532925E-07 4.02971745 -1.01813996
v 2.20532925E-07 3.64545131 -1.01813996
v 2.20532925E-07 3.6454525 -6.43831444
v -2.22087328E-06 -2.65454316 -6.43831587
v -2.22087328E-06 -2.65454364 -1.01813996
v -2.22087328E-06 -2.95454311 -1.01813996
v -2.22087328E-06 -2.95454311 -6.43831587
v -2.22087328E-06 -2.65454364 3.85935879
v -2.22087328E-06 -2.95454311 6.21318293
v -2.22087328E-06 -2.95454311 3.85935879
v -2.22087328E-06 -2.65454364 6.21318293
v -2.22087328E-06 -2.65454364 7.74433136
v -2.22087328E-06 -2.95454311 7.74433136
v -2.22087328E-06 -2.65454316 12.2016439
v -2.22087328E-06 -2.65454316 16.3010159
v -2.22087328E-06 -2.95454311 16.3010159
v -2.22087328E-06 -2.95454311 12.2016439
v -2.22087328E-06 -1.49705839 3.85935879
v -2.22087328E-06 -2.65454364 6.21318293
v -2.22087328E-06 -2.65454364 3.85935879
v -2.22087328E-06 -1.4970578 6.21318293
v -2.22087328E-06 -0.570735216 3.85935879
v -2.22087328E-06 -1.4970578 7.74433136
v -2.22087328E-06 -2.65454364 7.74433136
v -2.22087328E-06 -0.570735216 7.74433231
v -2.22087328E-06 -0.570735216 6.21318293
v -2.22087328E-06 0.345456153 3.85935879
v -2.22087328E-06 0.345456153 7.74433231
v -2.22087328E-06 0.345456153 6.21318293
v -2.22087328E-06 -1.4970578 12.2016439
v -2.22087328E-06 -2.65454316 16.3010159
v -2.22087328E-06 -2.65454316 12.2016439
v -2.22087328E-06 -1.4970572 16.3010159
v -2.22087328E-06 -0.570734024 12.2016439
v -2.22087328E-06 -0.570734024 16.3010159
v -2.22087328E-06 0.345457375 12.2016439
v -2.22087328E-06 0.345457375 16.3010178
v -2.22087328E-06 -1.49705839 -6.43831587
v -2.22087328E-06 -2.65454364 -1.01813996
v -2.22087328E-06 -2.65454316 -6.43831587
v -2.22087328E-06 -1.49705839 -1.01813996
v -2.22087328E-06 -0.570735216 -6.43831587
v -2.22087328E-06 -0.570736468 -1.01813996
v -2.22087328E-06 0.345456153 -6.43831587
v -2.22087328E-06 0.345454931 -1.01813996
v -2.22087328E-06 0.645456135 3.85935879
v -2.22087328E-06 0.345456153 6.21318293
v -2.22087328E-06 0.345456153 3.85935879
v -2.22087328E-06 0.645456135 6.21318293
v -2.22087328E-06 0.645456135 7.74433231
v -2.22087328E-06 0.345456153 7.74433231
v -2.22087328E-06 0.645457387 12.2016439
v -2.22087328E-06 0.645457387 16.3010178
v -2.22087328E-06 0.345457375 16.3010178
v -2.22087328E-06 0.345457375 12.2016439
v -2.22087328E-06 0.645454943 -6.43831587
v -2.22087328E-06 0.645454943 -1.01813996
v -2.22087328E-06 0.345454931 -1.01813996
v -2.22087328E-06 0.345456153 -6.43831587
v -2.22087328E-06 1.89778042 3.85935879
v -2.22087328E-06 0.645456135 6.21318293
v -2.22087328E-06 0.645456135 3.85935879
v -2.22087328E-06 1.89778161 6.21318293
v -2.22087328E-06 2.7982285 3.85935879
v -2.22087328E-06 1.89778161 7.74433231
v -2.22087328E-06 0.645456135 7.74433231
v -2.22087328E-06 2.7982285 7.74433231
v -2.22087328E-06 2.7982285 6.21318293
v 2.20532925E-07 3.64545369 3.85935879
v 2.20532925E-07 3.64545488 7.74433279
v 2.20532925E-07 3.64545488 6.21318388
v -2.22087328E-06 1.89778411 12.2016439
v -2.22087328E-06 0.645457387 16.3010178
v -2.22087328E-06 0.645457387 12.2016439
v -2.22087328E-06 1.89778411 16.3010178
v -2.22087328E-06 2.79823089 12.2016439
v -2.22087328E-06 2.79823208 16.3010178
v 2.20532925E-07 3.64545608 12.2016439
v 2.20532925E-07 3.64545727 16.3010178
v -2.22087328E-06 1.89778161 -6.43831587
v -2.22087328E-06 0.645454943 -1.01813996
v -2.22087328E-06 0.645454943 -6.43831587
v -2.22087328E-06 1.89777923 -1.01813996
v -2.22087328E-06 2.7982285 -6.43831587
v -2.22087328E-06 2.79822588 -1.01813996
v 2.20532925E-07 3.6454525 -6.43831444
v 2.20532925E-07 3.64545131 -1.01813996
v 2.20532925E-07 6.56673765 6.21566677
v 2.20532925E-07 7.93163633 7.79652548
v 2.20532925E-07 6.57145691 7.75051308
v 2.20532925E-07 7.93163872 6.23471975
v 2.20532925E-07 7.9316411 3.85935998
v 2.20532925E-07 6.5860405 3.85935998
v 2.20532925E-07 4.02971983 6.21318293
v 2.20532925E-07 4.02971888 3.85935998
v 2.20532925E-07 3.64545727 -16.3165684
v 2.20532925E-07 4.02972507 -16.3165684
v 2.20532925E-07 4.02972364 -12.2416363
v 2.20532925E-07 3.64545488 -12.2416391
v -2.22087328E-06 2.79823208 -16.3165684
v 2.20532925E-07 3.64545727 -16.3165684
v 2.20532925E-07 3.64545488 -12.2416391
v -2.22087328E-06 2.79823089 -12.2416391
v -2.22087328E-06 1.89778411 -16.3165684
v -2.22087328E-06 1.8977828 -12.2416391
v -2.22087328E-06 0.645457387 -16.3165684
v -2.22087328E-06 0.645456135 -12.2416391
v -2.22087328E-06 0.345457375 -16.3165684
v -2.22087328E-06 0.645457387 -16.3165684
v -2.22087328E-06 0.645456135 -12.2416391
v -2.22087328E-06 0.345457375 -12.2416391
v -2.22087328E-06 -0.570734024 -16.3165684
v -2.22087328E-06 0.345457375 -16.3165684
v -2.22087328E-06 0.345457375 -12.2416391
v -2.22087328E-06 -0.570734024 -12.2416363
v -2.22087328E-06 -1.4970572 -16.3165684
v -2.22087328E-06 -1.4970578 -12.2416391
v -2.22087328E-06 -2.65454316 -16.3165684
v -2.22087328E-06 -2.65454316 -12.2416391
v -2.22087328E-06 -2.95454311 -16.3165684
v -2.22087328E-06 -2.65454316 -16.3165684
v -2.22087328E-06 -2.65454316 -12.2416391
v -2.22087328E-06 -2.95454311 -12.2416391
v -2.22087328E-06 -3.78109336 -16.3165684
v -2.22087328E-06 -2.95454311 -16.3165684
v -2.22087328E-06 -2.95454311 -12.2416391
v -2.22087328E-06 -3.78109455 -12.2416391
v -2.22087328E-06 -4.80662203 -16.3165684
v -2.22087328E-06 -4.80662251 -12.2416391
v 2.20532925E-07 -5.94978094 -16.3165684
v 2.20532925E-07 -5.94978094 -12.2416391
v 2.20532925E-07 -6.23794174 -16.3165684
v 2.20532925E-07 -5.94978094 -16.3165684
v 2.20532925E-07 -5.94978094 -12.2416391
v 2.20532925E-07 -6.23794222 -12.241642
v 2.20532925E-07 -6.9509387 -16.3165684
v 2.20532925E-07 -6.23794174 -16.3165684
v 2.20532925E-07 -6.23794222 -12.241642
v 2.20532925E-07 -6.95093918 -12.2416391
v 2.20532925E-07 -7.72023296 -16.3165684
v 2.20532925E-07 -7.72023296 -12.2416391
v 2.20532925E-07 -10.4053383 -16.3165684
v 2.20532925E-07 -10.4053383 -12.241642
v 2.20532925E-07 -10.9422264 -16.3165684
v 2.20532925E-07 -10.9422264 -12.241642
v 2.20532925E-07 4.73449421 -12.2416391
v -2.22087328E-06 5.7420392 -6.43831587
v 2.20532925E-07 4.02971983 -6.43831587
v 2.20532925E-07 4.02972364 -12.2416363
v 2.20532925E-07 4.02972364 -12.2416363
v 2.20532925E-07 4.02971983 -6.43831587
v 2.20532925E-07 3.6454525 -6.43831444
v 2.20532925E-07 3.64545488 -12.2416391
v 2.20532925E-07 3.64545488 -12.2416391
v 2.20532925E-07 3.6454525 -6.43831444
v -2.22087328E-06 2.7982285 -6.43831587
v -2.22087328E-06 2.79823089 -12.2416391
v -2.22087328E-06 1.89778161 -6.43831587
v -2.22087328E-06 1.8977828 -12.2416391
v -2.22087328E-06 0.645454943 -6.43831587
v -2.22087328E-06 0.645456135 -12.2416391
v -2.22087328E-06 0.645456135 -12.2416391
v -2.22087328E-06 0.645454943 -6.43831587
v -2.22087328E-06 0.345456153 -6.43831587
v -2.22087328E-06 0.345457375 -12.2416391
v -2.22087328E-06 0.345457375 -12.2416391
v -2.22087328E-06 0.345456153 -6.43831587
v -2.22087328E-06 -0.570735216 -6.43831587
v -2.22087328E-06 -0.570734024 -12.2416363
v -2.22087328E-06 -1.49705839 -6.43831587
v -2.22087328E-06 -1.4970578 -12.2416391
v -2.22087328E-06 -2.65454316 -6.43831587
v -2.22087328E-06 -2.65454316 -12.2416391
v -2.22087328E-06 -2.65454316 -12.2416391
v -2.22087328E-06 -2.65454316 -6.43831587
v -2.22087328E-06 -2.95454311 -6.43831587
v -2.22087328E-06 -2.95454311 -12.2416391
v -2.22087328E-06 -2.95454311 -12.2416391
v -2.22087328E-06 -2.95454311 -6.43831587
v -2.22087328E-06 -3.78109574 -6.43831587
v -2.22087328E-06 -3.78109455 -12.2416391
v -2.22087328E-06 -4.80662298 -6.43831587
v -2.22087328E-06 -4.80662251 -12.2416391
v 2.20532925E-07 -5.94978094 -6.43831587
v 2.20532925E-07 -5.94978094 -12.2416391
v 2.20532925E-07 -5.94978094 -12.2416391
v 2.20532925E-07 -5.94978094 -6.43831587
v 2.20532925E-07 -6.23794365 -6.43831587
v 2.20532925E-07 -6.23794222 -12.241642
v 2.20532925E-07 -6.23794222 -12.241642
v 2.20532925E-07 -6.23794365 -6.43831587
v 2.20532925E-07 -6.95093966 -6.43831587
v 2.20532925E-07 -6.95093918 -12.2416391
v 2.20532925E-07 -7.72023296 -6.43831587
v 2.20532925E-07 -7.72023296 -12.2416391
v 2.20532925E-07 -10.4053383 -6.4383173
v 2.20532925E-07 -10.4053383 -12.241642
v 2.20532925E-07 -10.9422264 -6.43831587
v 2.20532925E-07 -10.9422264 -12.241642
v 2.20532925E-07 7.93164825 -1.01813996
v 2.20532925E-07 7.9316411 3.85935998
v 2.20532925E-07 6.5860405 3.85935998
v 2.20532925E-07 6.68306446 -1.01813996
v 2.20532925E-07 4.02971745 -1.01813996
v 2.20532925E-07 4.02971888 3.85935998
v 2.20532925E-07 3.64545131 -1.01813996
v 2.20532925E-07 4.02971745 -1.01813996
v 2.20532925E-07 4.02971888 3.85935998
v 2.20532925E-07 3.64545369 3.85935879
v -2.22087328E-06 2.79822588 -1.01813996
v 2.20532925E-07 3.64545131 -1.01813996
v 2.20532925E-07 3.64545369 3.85935879
v -2.22087328E-06 2.7982285 3.85935879
v -2.22087328E-06 1.89777923 -1.01813996
v -2.22087328E-06 1.89778042 3.85935879
v -2.22087328E-06 0.645454943 -1.01813996
v -2.22087328E-06 0.645456135 3.85935879
v -2.22087328E-06 0.345454931 -1.01813996
v -2.22087328E-06 0.645454943 -1.01813996
v -2.22087328E-06 0.645456135 3.85935879
v -2.22087328E-06 0.345456153 3.85935879
v -2.22087328E-06 -0.570736468 -1.01813996
v -2.22087328E-06 0.345454931 -1.01813996
v -2.22087328E-06 0.345456153 3.85935879
v -2.22087328E-06 -0.570735216 3.85935879
v -2.22087328E-06 -1.49705839 -1.01813996
v -2.22087328E-06 -1.49705839 3.85935879
v -2.22087328E-06 -2.65454364 -1.01813996
v -2.22087328E-06 -2.65454364 3.85935879
v -2.22087328E-06 -2.95454311 -1.01813996
v -2.22087328E-06 -2.65454364 -1.01813996
v -2.22087328E-06 -2.65454364 3.85935879
v -2.22087328E-06 -2.95454311 3.85935879
v -2.22087328E-06 -3.78109694 -1.01813996
v -2.22087328E-06 -2.95454311 -1.01813996
v -2.22087328E-06 -2.95454311 3.85935879
v -2.22087328E-06 -3.68637037 3.85935879
v -2.22087328E-06 -4.80662441 -1.01813996
v -2.22087328E-06 -4.80662394 3.85935879
v 2.20532925E-07 -5.94978094 -1.01813996
v 2.20532925E-07 -5.94978094 3.85935879
v 2.20532925E-07 -6.23794413 -1.01813996
v 2.20532925E-07 -5.94978094 -1.01813996
v 2.20532925E-07 -5.94978094 3.85935879
v 2.20532925E-07 -6.23794365 3.85935879
v 2.20532925E-07 -6.95094061 -1.01813996
v 2.20532925E-07 -6.23794413 -1.01813996
v 2.20532925E-07 -6.23794365 3.85935879
v 2.20532925E-07 -6.95093966 3.85935879
v 2.20532925E-07 -7.72023296 -1.01813996
v 2.20532925E-07 -7.72023296 3.85935879
v 2.20532925E-07 -10.4053383 -1.01813996
v 2.20532925E-07 -10.4053383 3.8593576
v 2.20532925E-07 -10.9422264 3.8593576
v 2.20532925E-07 -10.9422264 -1.01813996
v 2.20532925E-07 9.51474857 12.2016439
v 2.20532925E-07 7.93163013 12.201643
v 2.20532925E-07 7.93163633 7.79652548
v 2.20532925E-07 10.9422274 7.90402269
v 2.20532925E-07 10.9422274 8.50530815
v 2.20532925E-07 6.57145691 7.75051308
v 2.20532925E-07 7.93163633 7.79652548
v 2.20532925E-07 7.93163013 12.201643
v 2.20532925E-07 6.48885298 12.201643
v 2.20532925E-07 4.02972126 7.74433231
v 2.20532925E-07 4.02972269 12.201643
v 2.20532925E-07 3.64545488 7.74433279
v 2.20532925E-07 4.02972126 7.74433231
v 2.20532925E-07 4.02972269 12.201643
v 2.20532925E-07 3.64545608 12.2016439
v -2.22087328E-06 2.7982285 7.74433231
v 2.20532925E-07 3.64545488 7.74433279
v 2.20532925E-07 3.64545608 12.2016439
v -2.22087328E-06 2.79823089 12.2016439
v -2.22087328E-06 1.89778161 7.74433231
v -2.22087328E-06 1.89778411 12.2016439
v -2.22087328E-06 0.645456135 7.74433231
v -2.22087328E-06 0.645457387 12.2016439
v -2.22087328E-06 0.345456153 7.74433231
v -2.22087328E-06 0.645456135 7.74433231
v -2.22087328E-06 0.645457387 12.2016439
v -2.22087328E-06 0.345457375 12.2016439
v -2.22087328E-06 -0.570735216 7.74433231
v -2.22087328E-06 0.345456153 7.74433231
v -2.22087328E-06 0.345457375 12.2016439
v -2.22087328E-06 -0.570734024 12.2016439
v -2.22087328E-06 -1.4970578 7.74433136
v -2.22087328E-06 -1.4970578 12.2016439
v -2.22087328E-06 -2.65454364 7.74433136
v -2.22087328E-06 -2.65454316 12.2016439
v -2.22087328E-06 -2.95454311 7.74433136
v -2.22087328E-06 -2.65454364 7.74433136
v -2.22087328E-06 -2.65454316 12.2016439
v -2.22087328E-06 -2.95454311 12.2016439
v -2.22087328E-06 -3.50630212 7.74433136
v -2.22087328E-06 -2.95454311 7.74433136
v -2.22087328E-06 -2.95454311 12.2016439
v -2.22087328E-06 -3.68892288 12.2016439
v -2.22087328E-06 -4.80662251 12.2016439
v -2.22087328E-06 -4.80662298 7.74433136
v 2.20532925E-07 -5.94978094 7.74433231
v -2.22087328E-06 -5.94978094 12.2016439
v 2.20532925E-07 -6.23794365 7.74433231
v 2.20532925E-07 -5.94978094 7.74433231
v -2.22087328E-06 -5.94978094 12.2016439
v 2.20532925E-07 -6.23794317 12.2016439
v 2.20532925E-07 -6.95093966 7.74433231
v 2.20532925E-07 -6.23794365 7.74433231
v 2.20532925E-07 -6.23794317 12.2016439
v 2.20532925E-07 -6.95093918 12.2016439
v 2.20532925E-07 -7.72023296 7.74433136
v 2.20532925E-07 -7.72023296 12.2016439
v 2.20532925E-07 -10.4053383 7.74433231
v 2.20532925E-07 -10.4053383 12.2016439
v 2.20532925E-07 -10.9422264 12.2016439
v 2.20532925E-07 -10.9422264 7.74433231
v 2.20532925E-07 -10.9422264 -12.241642
v 2.20532925E-07 -11.5279808 -12.241642
v 2.20532925E-07 -11.5279808 -16.3165684
v 2.20532925E-07 -10.9422264 -16.3165684
v 2.20532925E-07 -11.5279808 -1.01813996
v 2.20532925E-07 -10.9422264 -1.01813996
v 2.20532925E-07 -10.9422264 3.8593576
v 2.20532925E-07 -11.5279808 3.8593576
v 2.20532925E-07 -10.9422264 7.74433231
v 2.20532925E-07 -11.5279818 7.74433231
v 2.20532925E-07 -11.5279808 6.21318293
v 2.20532925E-07 -10.9422264 6.21318293
v 2.20532925E-07 -10.9422264 12.2016439
v 2.20532925E-07 -11.5279808 12.2016439
v 2.20532925E-07 -11.5279818 7.74433231
v 2.20532925E-07 -10.9422264 7.74433231
v 2.20532925E-07 -10.9422264 -6.43831587
v 2.20532925E-07 -11.5279808 -6.43831587
v 2.20532925E-07 -11.5279808 -12.241642
v 2.20532925E-07 -10.9422264 -12.241642
v 2.20532925E-07 -10.9422264 -1.01813996
v 2.20532925E-07 -11.5279808 -1.01813996
v 2.20532925E-07 -11.5279808 -6.43831587
v 2.20532925E-07 -10.9422264 -6.43831587
v 2.20532925E-07 -10.9422264 6.21318293
v 2.20532925E-07 -11.5279808 6.21318293
v 2.20532925E-07 -11.5279808 3.8593576
v 2.20532925E-07 -10.9422264 3.8593576
v 2.20532925E-07 -10.9422264 16.3010178
v 2.20532925E-07 -11.5279808 16.3010178
v 2.20532925E-07 -11.5279808 12.2016439
v 2.20532925E-07 -10.9422264 12.2016439
vt 1.00878906 0.635742188
vt 0.757324219 0.635742188
vt 0.757324219 0.821289062
vt 0.500976562 0.267578125
vt 0.985839844 0.343261719
vt 0.985839844 0.267578125
vt 0.985839844 0.267578125
vt 0.500976562 0.267578125
vt 0.985839844 0.467529297
vt 0.755371094 0.267578125
vt 0.500976562 0.267578125
vt 0.500976562 0.467529297
vt 0.76171875 0.55859375
vt 0.985839844 0.267578125
vt 0.985839844 0.623535156
vt 0.757324219 0.989257812
vt 1.00878906 0.989257812
vt 1.00878906 0.850585938
vt 0.757324219 0.850585938
vt 1.00878906 0.635742188
vt 0.757324219 0.635742188
vt 0.500976562 0.432128906
vt 0.985839844 0.515136719
vt 0.985839844 0.267578125
vt 0.500976562 0.267578125
vt 0.0136489868 0.6484375
vt 0.411865234 0.6484375
vt 0.411865234 0.594726562
vt 0.0136489868 0.594726562
vt 0.134155273 0.572753906
vt 0.411865234 0.536621094
vt 0.0595397949 0.572265625
vt 0.133789062 0.536621094
vt 0.0594787598 0.536621094
vt 0.0136489868 0.536621094
vt 0.411865234 0.334472656
vt 0.059387207 0.496826172
vt 0.133422852 0.49609375
vt 0.0136489868 0.334472656
vt 0.411865234 0.294189453
vt 0.0136489868 0.294189453
vt 0.0136489868 0.6484375
vt 0.411865234 0.6484375
vt 0.411865234 0.594726562
vt 0.0136489868 0.594726562
vt 0.411865234 0.536621094
vt 0.0136489868 0.536621094
vt 0.411865234 0.334472656
vt 0.0136489868 0.334472656
vt 0.411865234 0.294189453
vt 0.0136489868 0.294189453
vt 0.351074219 0.9609375
vt 0.733886719 0.9609375
vt 0.733886719 0.938964844
vt 0.351074219 0.938964844
vt 0.351074219 0.9609375
vt 0.733886719 0.9609375
vt 0.733886719 0.938964844
vt 0.351074219 0.938964844
vt 0.757324219 0.989257812
vt 1.00878906 0.989257812
vt 1.00878906 0.896484375
vt 0.757324219 0.897460938
vt 1.00878906 0.774902344
vt 0.757324219 0.774902344
vt 1.00878906 0.635742188
vt 0.757324219 0.635742188
vt 0.500976562 0.623535156
vt 0.985839844 0.623535156
vt 0.985839844 0.533691406
vt 0.500976562 0.533691406
vt 0.985839844 0.415771484
vt 0.500976562 0.415771484
vt 0.985839844 0.267578125
vt 0.500976562 0.267578125
vt 0.351074219 0.9609375
vt 0.572753906 0.938964844
vt 0.351074219 0.938964844
vt 0.572753906 0.9609375
vt 0.733886719 0.9609375
vt 0.733886719 0.938964844
vt 0.752929688 0.5625
vt 0.985839844 0.623535156
vt 0.985839844 0.563476562
vt 0.752929688 0.623535156
vt 0.500976562 0.623535156
vt 0.500976562 0.534667969
vt 0.752929688 0.415771484
vt 0.500976562 0.415771484
vt 0.752929688 0.267578125
vt 0.500976562 0.267578125
vt 0.0136489868 0.334472656
vt 0.220581055 0.294189453
vt 0.0136489868 0.294189453
vt 0.220581055 0.334472656
vt 0.411865234 0.294189453
vt 0.411865234 0.334472656
vt 0.0136489868 0.536621094
vt 0.411865234 0.536621094
vt 0.220581055 0.536621094
vt 0.0136489868 0.594726562
vt 0.411865234 0.594726562
vt 0.220581055 0.594726562
vt 0.0136489868 0.6484375
vt 0.411865234 0.6484375
vt 0.220581055 0.6484375
vt 0.351074219 0.9609375
vt 0.733886719 0.9609375
vt 0.733886719 0.938964844
vt 0.351074219 0.938964844
vt 0.572753906 0.938964844
vt 0.735351562 0.9609375
vt 0.735351562 0.938964844
vt 0.572753906 0.9609375
vt 0.351074219 0.9609375
vt 0.351074219 0.938964844
vt 0.351074219 0.9609375
vt 0.733886719 0.9609375
vt 0.733886719 0.938964844
vt 0.351074219 0.938964844
vt 0.351074219 0.9609375
vt 0.733886719 0.9609375
vt 0.733886719 0.938964844
vt 0.351074219 0.938964844
vt 0.351074219 0.9609375
vt 0.572753906 0.938964844
vt 0.351074219 0.938964844
vt 0.572753906 0.9609375
vt 0.735351562 0.9609375
vt 0.735351562 0.938964844
vt 0.351074219 0.9609375
vt 0.733886719 0.9609375
vt 0.733886719 0.938964844
vt 0.351074219 0.938964844
vt 0.500976562 0.419433594
vt 0.752929688 0.267578125
vt 0.500976562 0.267578125
vt 0.752929688 0.419433594
vt 0.500976562 0.521972656
vt 0.985839844 0.419433594
vt 0.985839844 0.267578125
vt 0.985839844 0.521972656
vt 0.752929688 0.521972656
vt 0.500976562 0.623535156
vt 0.985839844 0.623535156
vt 0.752929688 0.623535156
vt 0.757324219 0.778808594
vt 1.00878906 0.635742188
vt 0.757324219 0.635742188
vt 1.00878906 0.778808594
vt 0.757324219 0.884277344
vt 1.00878906 0.884277344
vt 0.757324219 0.989257812
vt 1.00878906 0.989257812
vt 0.500976562 0.419433594
vt 0.985839844 0.267578125
vt 0.500976562 0.267578125
vt 0.985839844 0.419433594
vt 0.500976562 0.521972656
vt 0.985839844 0.521972656
vt 0.500976562 0.623535156
vt 0.985839844 0.623535156
vt 0.351074219 0.9609375
vt 0.572753906 0.938964844
vt 0.351074219 0.938964844
vt 0.572753906 0.9609375
vt 0.735351562 0.9609375
vt 0.735351562 0.938964844
vt 0.351074219 0.9609375
vt 0.733886719 0.9609375
vt 0.733886719 0.938964844
vt 0.351074219 0.938964844
vt 0.351074219 0.9609375
vt 0.733886719 0.9609375
vt 0.733886719 0.938964844
vt 0.351074219 0.938964844
vt 0.500976562 0.425292969
vt 0.752929688 0.267578125
vt 0.500976562 0.267578125
vt 0.752929688 0.425292969
vt 0.500976562 0.52734375
vt 0.985839844 0.425292969
vt 0.985839844 0.267578125
vt 0.985839844 0.52734375
vt 0.752929688 0.52734375
vt 0.500976562 0.623535156
vt 0.985839844 0.623535156
vt 0.752929688 0.623535156
vt 0.757324219 0.784667969
vt 1.00878906 0.635742188
vt 0.757324219 0.635742188
vt 1.00878906 0.784667969
vt 0.757324219 0.890136719
vt 1.00878906 0.890136719
vt 0.757324219 0.989257812
vt 1.00878906 0.989257812
vt 0.500976562 0.425292969
vt 0.985839844 0.267578125
vt 0.500976562 0.267578125
vt 0.985839844 0.425292969
vt 0.500976562 0.52734375
vt 0.985839844 0.52734375
vt 0.500976562 0.623535156
vt 0.985839844 0.623535156
vt 0.753417969 0.504882812
vt 0.985839844 0.623535156
vt 0.985839844 0.505371094
vt 0.755371094 0.623535156
vt 0.500976562 0.623535156
vt 0.500976562 0.497802734
vt 0.752929688 0.267578125
vt 0.500976562 0.267578125
vt 0.351074219 0.938964844
vt 0.351074219 0.9609375
vt 0.733886719 0.9609375
vt 0.733886719 0.938964844
vt 1.0078125 0.890136719
vt 1.0078125 0.989257812
vt 0.757324219 0.989257812
vt 0.757324219 0.890136719
vt 1.0078125 0.784667969
vt 0.757324219 0.784667969
vt 1.0078125 0.635742188
vt 0.757324219 0.635742188
vt 0.351074219 0.938964844
vt 0.351074219 0.9609375
vt 0.733886719 0.9609375
vt 0.733886719 0.938964844
vt 1.0078125 0.884277344
vt 1.0078125 0.989257812
vt 0.757324219 0.989257812
vt 0.757324219 0.884277344
vt 1.0078125 0.778808594
vt 0.757324219 0.778808594
vt 1.0078125 0.635742188
vt 0.757324219 0.635742188
vt 0.351074219 0.938964844
vt 0.351074219 0.9609375
vt 0.733886719 0.9609375
vt 0.733886719 0.938964844
vt 1.0078125 0.896484375
vt 1.0078125 0.989257812
vt 0.757324219 0.989257812
vt 0.757324219 0.896484375
vt 1.0078125 0.774902344
vt 0.757324219 0.774902344
vt 1.0078125 0.635742188
vt 0.757324219 0.635742188
vt 0.351074219 0.938964844
vt 0.351074219 0.9609375
vt 0.733886719 0.9609375
vt 0.733886719 0.938964844
vt 0.0136489868 0.594726562
vt 0.0136489868 0.6484375
vt 0.411865234 0.6484375
vt 0.411865234 0.594726562
vt 0.0136489868 0.536621094
vt 0.411865234 0.536621094
vt 0.0136489868 0.334472656
vt 0.411865234 0.334472656
vt 0.0136489868 0.294189453
vt 0.411865234 0.294189453
vt 0.500976562 0.343261719
vt 0.985839844 0.432128906
vt 0.985839844 0.267578125
vt 0.500976562 0.267578125
vt 0.351074219 0.9609375
vt 0.733886719 0.9609375
vt 0.733886719 0.938964844
vt 0.351074219 0.938964844
vt 0.500976562 0.623535156
vt 0.985839844 0.623535156
vt 0.985839844 0.52734375
vt 0.500976562 0.52734375
vt 0.985839844 0.425292969
vt 0.500976562 0.425292969
vt 0.985839844 0.267578125
vt 0.500976562 0.267578125
vt 0.351074219 0.9609375
vt 0.733886719 0.9609375
vt 0.733886719 0.938964844
vt 0.351074219 0.938964844
vt 0.500976562 0.623535156
vt 0.985839844 0.623535156
vt 0.985839844 0.521972656
vt 0.500976562 0.521972656
vt 0.985839844 0.419433594
vt 0.500976562 0.419433594
vt 0.985839844 0.267578125
vt 0.500976562 0.267578125
vt 0.351074219 0.9609375
vt 0.733886719 0.9609375
vt 0.733886719 0.938964844
vt 0.351074219 0.938964844
vt 0.500976562 0.623535156
vt 0.985839844 0.623535156
vt 0.985839844 0.533691406
vt 0.500976562 0.533691406
vt 0.985839844 0.415771484
vt 0.500976562 0.415771484
vt 0.985839844 0.267578125
vt 0.500976562 0.267578125
vt 0.351074219 0.9609375
vt 0.733886719 0.9609375
vt 0.733886719 0.938964844
vt 0.351074219 0.938964844
vt 0.0136489868 0.6484375
vt 0.411865234 0.6484375
vt 0.411865234 0.594726562
vt 0.0136489868 0.594726562
vt 0.411865234 0.536621094
vt 0.0136489868 0.536621094
vt 0.411865234 0.334472656
vt 0.0136489868 0.334472656
vt 0.411865234 0.294189453
vt 0.0136489868 0.294189453
vt 0.500976562 0.623535156
vt 0.985839844 0.623535156
vt 0.985839844 0.497802734
vt 0.500976562 0.515136719
vt 0.500976562 0.267578125
vt 0.985839844 0.267578125
vt 0.351074219 0.938964844
vt 0.351074219 0.9609375
vt 0.733886719 0.9609375
vt 0.733886719 0.938964844
vt 0.500976562 0.52734375
vt 0.500976562 0.623535156
vt 0.985839844 0.623535156
vt 0.985839844 0.52734375
vt 0.500976562 0.425292969
vt 0.985839844 0.425292969
vt 0.500976562 0.267578125
vt 0.985839844 0.267578125
vt 0.351074219 0.938964844
vt 0.351074219 0.9609375
vt 0.733886719 0.9609375
vt 0.733886719 0.938964844
vt 0.500976562 0.521972656
vt 0.500976562 0.623535156
vt 0.985839844 0.623535156
vt 0.985839844 0.521972656
vt 0.500976562 0.419433594
vt 0.985839844 0.419433594
vt 0.500976562 0.267578125
vt 0.985839844 0.267578125
vt 0.351074219 0.938964844
vt 0.351074219 0.9609375
vt 0.733886719 0.9609375
vt 0.733886719 0.938964844
vt 0.500976562 0.533691406
vt 0.500976562 0.623535156
vt 0.985839844 0.623535156
vt 0.985839844 0.534667969
vt 0.500976562 0.415771484
vt 0.985839844 0.415771484
vt 0.500976562 0.267578125
vt 0.985839844 0.267578125
vt 0.351074219 0.938964844
vt 0.351074219 0.9609375
vt 0.733886719 0.9609375
vt 0.733886719 0.938964844
vt 0.0136489868 0.594726562
vt 0.0136489868 0.6484375
vt 0.411865234 0.6484375
vt 0.411865234 0.594726562
vt 0.0136489868 0.536621094
vt 0.411865234 0.536621094
vt 0.0136489868 0.334472656
vt 0.411865234 0.334472656
vt 0.411865234 0.294189453
vt 0.0136489868 0.294189453
vt 0.985839844 0.460693359
vt 0.985839844 0.267578125
vt 0.500976562 0.267578125
vt 0.500976562 0.623535156
vt 0.564453125 0.623535156
vt 0.500976562 0.505371094
vt 0.500976562 0.623535156
vt 0.985839844 0.623535156
vt 0.985839844 0.489257812
vt 0.500976562 0.267578125
vt 0.985839844 0.267578125
vt 0.351074219 0.938964844
vt 0.351074219 0.9609375
vt 0.733886719 0.9609375
vt 0.733886719 0.938964844
vt 0.500976562 0.52734375
vt 0.500976562 0.623535156
vt 0.985839844 0.623535156
vt 0.985839844 0.52734375
vt 0.500976562 0.425292969
vt 0.985839844 0.425292969
vt 0.500976562 0.267578125
vt 0.985839844 0.267578125
vt 0.351074219 0.938964844
vt 0.351074219 0.9609375
vt 0.733886719 0.9609375
vt 0.733886719 0.938964844
vt 0.500976562 0.521972656
vt 0.500976562 0.623535156
vt 0.985839844 0.623535156
vt 0.985839844 0.521972656
vt 0.500976562 0.419433594
vt 0.985839844 0.419433594
vt 0.500976562 0.267578125
vt 0.985839844 0.267578125
vt 0.351074219 0.938964844
vt 0.351074219 0.9609375
vt 0.733886719 0.9609375
vt 0.733886719 0.938964844
vt 0.500976562 0.563476562
vt 0.500976562 0.623535156
vt 0.985839844 0.623535156
vt 0.985839844 0.534667969
vt 0.985839844 0.415771484
vt 0.500976562 0.415771484
vt 0.500976562 0.267578125
vt 0.985839844 0.267578125
vt 0.351074219 0.938964844
vt 0.351074219 0.9609375
vt 0.733886719 0.9609375
vt 0.733886719 0.938964844
vt 0.0136489868 0.594726562
vt 0.0136489868 0.6484375
vt 0.411865234 0.6484375
vt 0.411865234 0.594726562
vt 0.0136489868 0.536621094
vt 0.411865234 0.536621094
vt 0.0136489868 0.334472656
vt 0.411865234 0.334472656
vt 0.411865234 0.294189453
vt 0.0136489868 0.294189453
vt 0.98828125 0.76953125
vt 0.95703125 0.76953125
vt 0.95703125 0.956054688
vt 0.98828125 0.956054688
vt 0.95703125 0.946777344
vt 0.98828125 0.946777344
vt 0.98828125 0.723144531
vt 0.95703125 0.723144531
vt 0.98828125 0.861816406
vt 0.95703125 0.861816406
vt 0.95703125 0.932128906
vt 0.98828125 0.932128906
vt 0.98828125 0.725585938
vt 0.95703125 0.725585938
vt 0.95703125 0.930175781
vt 0.98828125 0.930175781
vt 0.98828125 0.688964844
vt 0.95703125 0.688964844
vt 0.95703125 0.955566406
vt 0.98828125 0.955566406
vt 0.98828125 0.726074219
vt 0.95703125 0.726074219
vt 0.95703125 0.974609375
vt 0.98828125 0.974609375
vt 0.98828125 0.733398438
vt 0.95703125 0.733398438
vt 0.95703125 0.841308594
vt 0.98828125 0.841308594
vt 0.98828125 0.689453125
vt 0.95703125 0.689453125
vt 0.95703125 0.877929688
vt 0.98828125 0.877929688
vn -1 0 0
vn -1 -2.38418579E-07 0
vn -1 0 0
vn -1 0 0
vn -1 -1.54972076E-06 -1.1920929E-07
vn -1 -1.01327896E-06 0
vn -1 3.57627869E-07 0
vn -1 3.57627869E-07 0
vn -1 1.07288361E-06 0
vn -1 -4.17232513E-07 0
vn -1 3.57627869E-07 0
vn -1 1.07288361E-06 0
vn -1 0 0
vn -1 -2.38418579E-07 0
vn -1 0 0
vn -1 -2.38418579E-07 0
vn -1 0 0
vn -1 0 0
vn -1 2.38418579E-07 0
vn -1 0 0
vn -1 5.96046448E-07 0
vn -1 -1.31130219E-06 1.1920929E-07
vn -1 -1.07288361E-06 2.98023224E-07
vn -1 -1.60932541E-06 1.78813934E-07
vn -1 -1.07288361E-06 1.1920929E-07
vn -1 0 0
vn -1 0 0
vn -1 0 0
vn -1 -9.53674316E-07 0
vn -1 0 0
vn -1 0 0
vn -1 0 0
vn -1 0 0
vn -1 0 0
vn -1 0 0
vn -1 0 0
vn -1 0 0
vn -1 0 0
vn -1 4.76837158E-07 0
vn -1 0 0
vn -1 2.08616257E-06 0
vn -1 -2.92062759E-06 0
vn -1 0 0
vn -1 2.08616257E-06 0
vn -1 4.17232513E-07 0
vn -1 -8.94069672E-07 0
vn -1 0 0
vn -1 -9.53674316E-07 0
vn -1 -1.78813934E-07 0
vn -1 0 0
vn -1 0 0
vn -1 -1.49011612E-06 -1.1920929E-07
vn -1 0 0
vn -1 0 0
vn -1 -2.92062759E-06 0
vn -1 -7.74860382E-07 0
vn -1 -1.66893005E-06 0
vn -1 0 0
vn -1 0 0
vn -1 0 0
vn -1 -2.8014183E-06 0
vn -1 -1.60932541E-06 0
vn -1 0 0
vn -1 1.37090683E-06 0
vn -1 3.57627869E-07 0
vn -1 0 0
vn -1 -1.49011612E-06 -1.1920929E-07
vn -1 0 0
vn -1 0 0
vn -1 0 0
vn -1 0 0
vn -1 -1.13248825E-06 0
vn -1 -1.01327896E-06 0
vn -1 -1.66893005E-06 0
vn -1 -7.74860382E-07 0
vn -1 -1.78813934E-06 0
vn -1 0 0
vn -1 0 0
vn -1 -1.66893005E-06 0
vn -1 -2.62260437E-06 -2.38418579E-07
vn -1 -4.17232513E-06 0
vn -1 0 0
vn -1 2.2649765E-06 0
vn -1 1.43051147E-06 0
vn -1 0 0
vn -1 0 0
vn -1 0 0
vn -1 -1.13248825E-06 0
vn -1 -1.13248825E-06 0
vn -1 -1.66893005E-06 0
vn -1 -1.78813934E-06 0
vn -1 2.98023224E-07 0
vn -1 0 0
vn -1 0 0
vn -1 4.76837158E-07 0
vn -1 0 0
vn -1 3.57627869E-07 0
vn -1 2.38418579E-07 0
vn -1 5.96046448E-07 0
vn -1 4.76837158E-07 0
vn -1 0 0
vn -1 -7.74860382E-07 0
vn -1 0 0
vn -1 0 0
vn -1 -4.17232513E-06 0
vn -1 0 0
vn -1 2.14576721E-06 0
vn -1 7.92741776E-06 0
vn -1 4.94718552E-06 0
vn -1 2.38418579E-06 0
vn -1 1.96695328E-06 0
vn -1 -1.60932541E-06 0
vn -1 4.17232513E-07 0
vn -1 5.30481339E-06 0
vn -1 -2.2649765E-06 0
vn -1 7.15255737E-07 0
vn -1 -1.07288361E-06 1.1920929E-07
vn -1 -1.60932541E-06 1.78813934E-07
vn -1 1.01327896E-06 0
vn -1 1.78813934E-06 0
vn -1 0 0
vn -1 0 0
vn -1 0 0
vn -1 0 0
vn -1 0 0
vn -1 0 0
vn -1 0 0
vn -1 0 0
vn -1 0 0
vn -1 2.2649765E-06 0
vn -1 0 0
vn -1 0 0
vn -1 -2.8014183E-06 0
vn -1 0 0
vn -1 0 0
vn -1 0 0
vn -1 0 0
vn -1 0 0
vn -1 0 0
vn -1 4.17232513E-07 0
vn -1 0 0
vn -1 4.76837158E-07 0
vn -1 0 0
vn -1 0 0
vn -1 0 0
vn -1 0 0
vn -1 2.98023224E-07 0
vn -1 0 0
vn -1 0 0
vn -1 0 0
vn -1 -4.76837158E-07 0
vn -1 -1.66893005E-06 0
vn -1 -1.1920929E-06 0
vn -1 -2.50339508E-06 0
vn -1 0 0
vn -1 0 0
vn -1 0 0
vn -1 0 0
vn -1 0 0
vn -1 0 0
vn -1 0 0
vn -1 0 0
vn -1 0 0
vn -1 0 0
vn -1 0 0
vn -1 0 0
vn -1 0 0
vn -1 0 0
vn -1 0 0
vn -1 0 0
vn -1 -2.50339508E-06 0
vn -1 -1.1920929E-06 0
vn -1 0 0
vn -1 0 0
vn -1 0 0
vn -1 0 0
vn -1 0 0
vn -1 0 0
vn -1 0 0
vn -1 0 0
vn -1 1.01327896E-06 0
vn -1 0 0
vn -1 0 0
vn -1 6.55651093E-07 0
vn -1 2.38418579E-07 0
vn -1 7.15255737E-07 0
vn -1 4.17232513E-07 0
vn -1 1.96695328E-06 0
vn -1 0 0
vn -1 0 0
vn -1 0 0
vn -1 0 0
vn -1 1.1920929E-06 0
vn -1 1.7285347E-06 0
vn -1 2.38418579E-06 0
vn -1 4.94718552E-06 0
vn -1 0 0
vn -1 0 0
vn -1 0 0
vn -1 0 0
vn -1 1.25169754E-06 0
vn -1 1.37090683E-06 0
vn -1 1.78813934E-06 0
vn -1 1.01327896E-06 0
vn -1 -5.36441803E-07 0
vn -1 -2.38418579E-07 0
vn -1 3.57627869E-07 0
vn -1 -4.17232513E-07 0
vn -1 3.57627869E-07 0
vn -1 -2.38418579E-07 0
vn -1 0 0
vn -1 0 0
vn -1 2.50339508E-06 0
vn -1 0 0
vn -1 -1.01327896E-06 0
vn -1 2.02655792E-06 0
vn -1 1.7285347E-06 0
vn -1 2.50339508E-06 0
vn -1 2.02655792E-06 0
vn -1 1.43051147E-06 0
vn -1 0 0
vn -1 0 0
vn -1 0 0
vn -1 0 0
vn -1 0 0
vn -1 0 0
vn -1 0 0
vn -1 0 0
vn -1 0 0
vn -1 0 0
vn -1 0 0
vn -1 0 0
vn -1 0 0
vn -1 0 0
vn -1 0 0
vn -1 0 0
vn -1 0 0
vn -1 0 0
vn -1 0 0
vn -1 0 0
vn -1 0 0
vn -1 0 0
vn -1 0 0
vn -1 0 0
vn -1 -1.43051147E-06 0
vn -1 -1.1920929E-06 0
vn -1 -2.14576721E-06 0
vn -1 -8.94069672E-07 0
vn -1 0 0
vn -1 -2.14576721E-06 0
vn -1 -8.94069672E-07 0
vn -1 0 0
vn -1 0 0
vn -1 0 0
vn -1 0 0
vn -1 -8.34465027E-07 0
vn -1 0 0
vn -1 0 0
vn -1 0 0
vn -1 4.17232513E-07 0
vn -1 0 0
vn -1 2.38418579E-06 0
vn -1 -1.54972076E-06 -1.1920929E-07
vn -1 -1.31130219E-06 1.1920929E-07
vn -1 -1.07288361E-06 1.1920929E-07
vn -1 -1.01327896E-06 0
vn -1 -1.01327896E-06 0
vn -1 -1.07288361E-06 1.1920929E-07
vn -1 1.78813934E-06 0
vn -1 2.02655792E-06 0
vn -1 2.02655792E-06 0
vn -1 1.78813934E-06 0
vn -1 1.25169754E-06 0
vn -1 1.43051147E-06 0
vn -1 0 0
vn -1 0 0
vn -1 0 0
vn -1 0 0
vn -1 0 0
vn -1 0 0
vn -1 0 0
vn -1 0 0
vn -1 0 0
vn -1 0 0
vn -1 0 0
vn -1 0 0
vn -1 0 0
vn -1 0 0
vn -1 0 0
vn -1 0 0
vn -1 0 0
vn -1 0 0
vn -1 0 0
vn -1 0 0
vn -1 0 0
vn -1 0 0
vn -1 0 0
vn -1 0 0
vn -1 -1.01327896E-06 0
vn -1 -1.1920929E-06 0
vn -1 -7.74860382E-07 0
vn -1 -8.94069672E-07 0
vn -1 -8.94069672E-07 0
vn -1 -7.74860382E-07 0
vn -1 0 0
vn -1 0 0
vn -1 0 0
vn -1 0 0
vn -1 -9.53674316E-07 0
vn -1 -8.34465027E-07 0
vn -1 0 0
vn -1 0 0
vn -1 4.76837158E-07 0
vn -1 4.17232513E-07 0
vn -1 2.08616257E-06 0
vn -1 2.38418579E-06 0
vn -1 3.57627869E-07 0
vn -1 3.57627869E-07 0
vn -1 -2.38418579E-07 0
vn -1 0 0
vn -1 0 0
vn -1 0 0
vn -1 1.01327896E-06 0
vn -1 -1.60932541E-06 1.78813934E-07
vn -1 -2.2649765E-06 0
vn -1 7.15255737E-07 0
vn -1 1.37090683E-06 0
vn -1 1.01327896E-06 0
vn -1 7.15255737E-07 0
vn -1 1.01327896E-06 0
vn -1 0 0
vn -1 0 0
vn -1 0 0
vn -1 0 0
vn -1 0 0
vn -1 0 0
vn -1 0 0
vn -1 0 0
vn -1 0 0
vn -1 0 0
vn -1 0 0
vn -1 0 0
vn -1 0 0
vn -1 0 0
vn -1 0 0
vn -1 0 0
vn -1 0 0
vn -1 0 0
vn -1 0 0
vn -1 0 0
vn -1 0 0
vn -1 0 0
vn -1 0 0
vn -1 0 0
vn -1 -1.13248825E-06 0
vn -1 -1.13248825E-06 0
vn -1 -1.66893005E-06 0
vn -1 -1.78813934E-06 0
vn -1 0 0
vn -1 -1.66893005E-06 0
vn -1 -1.78813934E-06 0
vn -1 0 0
vn -1 0 0
vn -1 0 0
vn -1 0 0
vn -1 0 0
vn -1 0 0
vn -1 2.38418579E-07 0
vn -1 0 0
vn -1 2.98023224E-07 0
vn -1 0 0
vn -1 0 0
vn -1 0 0
vn -1 -2.38418579E-07 0
vn -1 -2.38418579E-07 0
vn -1 0 0
vn -1 0 0
vn -1 3.57627869E-07 0
vn -1 -2.38418579E-07 0
vn -1 -2.38418579E-07 0
vn -1 2.38418579E-07 0
vn -1 1.13248825E-06 0
vn -1 5.96046448E-07 0
vn -1 4.17232513E-07 0
vn -1 -1.60932541E-06 0
vn -1 2.14576721E-06 0
vn -1 2.38418579E-06 0
vn -1 6.55651093E-07 0
vn -1 4.17232513E-07 0
vn -1 2.38418579E-06 0
vn -1 1.1920929E-06 0
vn -1 0 0
vn -1 0 0
vn -1 0 0
vn -1 0 0
vn -1 0 0
vn -1 0 0
vn -1 0 0
vn -1 -1.1920929E-06 0
vn -1 4.76837158E-07 0
vn -1 0 0
vn -1 -1.1920929E-06 0
vn -1 -4.76837158E-07 0
vn -1 4.17232513E-07 0
vn -1 2.98023224E-07 0
vn -1 0 0
vn -1 0 0
vn -1 2.2649765E-06 0
vn -1 0 0
vn -1 0 0
vn -1 0 0
vn -1 1.43051147E-06 0
vn -1 2.2649765E-06 0
vn -1 0 0
vn -1 0 0
vn -1 3.57627869E-07 0
vn -1 -5.36441803E-07 -1.1920929E-07
vn -1 -2.62260437E-06 -2.38418579E-07
vn -1 -1.49011612E-06 -1.1920929E-07
vn -1 -4.17232513E-06 0
vn -1 -2.62260437E-06 -2.38418579E-07
vn -1 -1.49011612E-06 -1.1920929E-07
vn -1 -2.92062759E-06 0
vn -1 -7.74860382E-07 0
vn -1 -4.17232513E-06 0
vn -1 -2.92062759E-06 0
vn -1 4.17232513E-07 0
vn -1 5.96046448E-07 0
vn -1 0 0
vn -1 3.57627869E-07 0
vn -1 -1.78813934E-07 0
vn -1 0 0
vn -1 0 0
vn -1 0 0
vn -1 0 0
vn -1 0 0
vn -1 0 0
vn -1 0 0
vn -1 0 0
vn -1 0 0
vn -1 0 0
vn -1 0 0
vn -1 0 0
vn -1 0 0
vn -1 0 0
vn -1 0 0
vn -1 0 0
vn -1 0 0
vn -1 0 0
vn -1 0 0
vn -1 0 0
vn -1 0 0
vn -1 0 0
vn -1 0 0
vn -1 0 0
vn -1 0 0
vn -1 0 0
vn -1 0 0
vn -1 0 0
vn -1 0 0
vn -1 0 0
vn -1 0 0
vn -1 0 0
vn -1 0 0
vn -1 0 0
g Wall_Museum_Exterior_4_0
f 3/3/3 2/2/2 1/1/1
f 6/6/6 5/5/5 4/4/4
f 9/9/9 8/8/8 7/7/7
f 12/12/12 11/11/11 10/10/10
f 13/13/13 12/12/12 10/10/10
f 13/13/13 10/10/10 14/14/14
f 15/15/15 13/13/13 14/14/14
f 18/18/18 17/17/17 16/16/16
f 19/19/19 18/18/18 16/16/16
f 20/20/20 18/18/18 19/19/19
f 21/21/21 20/20/20 19/19/19
f 24/24/24 23/23/23 22/22/22
f 25/25/25 24/24/24 22/22/22
f 28/28/28 27/27/27 26/26/26
f 29/29/29 28/28/28 26/26/26
f 30/30/30 28/28/28 29/29/29
f 31/31/31 28/28/28 30/30/30
f 32/32/32 30/30/30 29/29/29
f 33/33/33 31/31/31 30/30/30
f 34/34/34 32/32/32 29/29/29
f 35/35/35 34/34/34 29/29/29
f 36/36/36 31/31/31 33/33/33
f 37/37/37 34/34/34 35/35/35
f 38/38/38 36/36/36 33/33/33
f 38/38/38 37/37/37 36/36/36
f 39/39/39 37/37/37 35/35/35
f 37/37/37 39/39/39 36/36/36
f 40/40/40 36/36/36 39/39/39
f 41/41/41 40/40/40 39/39/39
f 44/44/44 43/43/43 42/42/42
f 45/45/45 44/44/44 42/42/42
f 46/46/46 44/44/44 45/45/45
f 47/47/47 46/46/46 45/45/45
f 48/48/48 46/46/46 47/47/47
f 49/49/49 48/48/48 47/47/47
f 50/50/50 48/48/48 49/49/49
f 51/51/51 50/50/50 49/49/49
f 54/54/54 53/53/53 52/52/52
f 55/55/55 54/54/54 52/52/52
f 58/58/58 57/57/57 56/56/56
f 59/59/59 58/58/58 56/56/56
f 62/62/62 61/61/61 60/60/60
f 63/63/63 62/62/62 60/60/60
f 64/64/64 62/62/62 63/63/63
f 65/65/65 64/64/64 63/63/63
f 66/66/66 64/64/64 65/65/65
f 67/67/67 66/66/66 65/65/65
f 70/70/70 69/69/69 68/68/68
f 71/71/71 70/70/70 68/68/68
f 72/72/72 70/70/70 71/71/71
f 73/73/73 72/72/72 71/71/71
f 74/74/74 72/72/72 73/73/73
f 75/75/75 74/74/74 73/73/73
f 78/78/78 77/77/77 76/76/76
f 77/77/77 79/79/79 76/76/76
f 80/80/80 79/79/79 77/77/77
f 81/81/81 80/80/80 77/77/77
f 84/84/84 83/83/83 82/82/82
f 83/83/83 85/85/85 82/82/82
f 82/82/82 85/85/85 86/86/86
f 87/87/87 82/82/82 86/86/86
f 88/88/88 82/82/82 87/87/87
f 89/89/89 88/88/88 87/87/87
f 90/90/90 88/88/88 89/89/89
f 91/91/91 90/90/90 89/89/89
f 94/94/94 93/93/93 92/92/92
f 93/93/93 95/95/95 92/92/92
f 93/93/93 96/96/96 95/95/95
f 96/96/96 97/97/97 95/95/95
f 92/92/92 95/95/95 98/98/98
f 97/97/97 99/99/99 95/95/95
f 95/95/95 100/100/100 98/98/98
f 99/99/99 100/100/100 95/95/95
f 98/98/98 100/100/100 101/101/101
f 99/99/99 102/102/102 100/100/100
f 100/100/100 103/103/103 101/101/101
f 102/102/102 103/103/103 100/100/100
f 101/101/101 103/103/103 104/104/104
f 102/102/102 105/105/105 103/103/103
f 103/103/103 106/106/106 104/104/104
f 105/105/105 106/106/106 103/103/103
f 109/109/109 108/108/108 107/107/107
f 110/110/110 109/109/109 107/107/107
f 113/113/113 112/112/112 111/111/111
f 112/112/112 114/114/114 111/111/111
f 111/111/111 114/114/114 115/115/115
f 116/116/116 111/111/111 115/115/115
f 119/119/119 118/118/118 117/117/117
f 120/120/120 119/119/119 117/117/117
f 123/123/123 122/122/122 121/121/121
f 124/124/124 123/123/123 121/121/121
f 127/127/127 126/126/126 125/125/125
f 126/126/126 128/128/128 125/125/125
f 129/129/129 128/128/128 126/126/126
f 130/130/130 129/129/129 126/126/126
f 133/133/133 132/132/132 131/131/131
f 134/134/134 133/133/133 131/131/131
f 137/137/137 136/136/136 135/135/135
f 136/136/136 138/138/138 135/135/135
f 135/135/135 138/138/138 139/139/139
f 140/140/140 138/138/138 136/136/136
f 141/141/141 140/140/140 136/136/136
f 140/140/140 142/142/142 138/138/138
f 138/138/138 143/143/143 139/139/139
f 142/142/142 143/143/143 138/138/138
f 139/139/139 143/143/143 144/144/144
f 142/142/142 145/145/145 143/143/143
f 143/143/143 146/146/146 144/144/144
f 145/145/145 146/146/146 143/143/143
f 149/149/149 148/148/148 147/147/147
f 148/148/148 150/150/150 147/147/147
f 147/147/147 150/150/150 151/151/151
f 150/150/150 152/152/152 151/151/151
f 151/151/151 152/152/152 153/153/153
f 152/152/152 154/154/154 153/153/153
f 157/157/157 156/156/156 155/155/155
f 156/156/156 158/158/158 155/155/155
f 155/155/155 158/158/158 159/159/159
f 158/158/158 160/160/160 159/159/159
f 159/159/159 160/160/160 161/161/161
f 160/160/160 162/162/162 161/161/161
f 165/165/165 164/164/164 163/163/163
f 164/164/164 166/166/166 163/163/163
f 167/167/167 166/166/166 164/164/164
f 168/168/168 167/167/167 164/164/164
f 171/171/171 170/170/170 169/169/169
f 172/172/172 171/171/171 169/169/169
f 175/175/175 174/174/174 173/173/173
f 176/176/176 175/175/175 173/173/173
f 179/179/179 178/178/178 177/177/177
f 178/178/178 180/180/180 177/177/177
f 177/177/177 180/180/180 181/181/181
f 182/182/182 180/180/180 178/178/178
f 183/183/183 182/182/182 178/178/178
f 182/182/182 184/184/184 180/180/180
f 180/180/180 185/185/185 181/181/181
f 184/184/184 185/185/185 180/180/180
f 181/181/181 185/185/185 186/186/186
f 184/184/184 187/187/187 185/185/185
f 185/185/185 188/188/188 186/186/186
f 187/187/187 188/188/188 185/185/185
f 191/191/191 190/190/190 189/189/189
f 190/190/190 192/192/192 189/189/189
f 189/189/189 192/192/192 193/193/193
f 192/192/192 194/194/194 193/193/193
f 193/193/193 194/194/194 195/195/195
f 194/194/194 196/196/196 195/195/195
f 199/199/199 198/198/198 197/197/197
f 198/198/198 200/200/200 197/197/197
f 197/197/197 200/200/200 201/201/201
f 200/200/200 202/202/202 201/201/201
f 201/201/201 202/202/202 203/203/203
f 202/202/202 204/204/204 203/203/203
f 207/207/207 206/206/206 205/205/205
f 206/206/206 208/208/208 205/205/205
f 205/205/205 208/208/208 209/209/209
f 210/210/210 205/205/205 209/209/209
f 205/205/205 210/210/210 211/211/211
f 210/210/210 212/212/212 211/211/211
f 215/215/215 214/214/214 213/213/213
f 216/216/216 215/215/215 213/213/213
f 219/219/219 218/218/218 217/217/217
f 220/220/220 219/219/219 217/217/217
f 220/220/220 217/217/217 221/221/221
f 222/222/222 220/220/220 221/221/221
f 222/222/222 221/221/221 223/223/223
f 224/224/224 222/222/222 223/223/223
f 227/227/227 226/226/226 225/225/225
f 228/228/228 227/227/227 225/225/225
f 231/231/231 230/230/230 229/229/229
f 232/232/232 231/231/231 229/229/229
f 232/232/232 229/229/229 233/233/233
f 234/234/234 232/232/232 233/233/233
f 234/234/234 233/233/233 235/235/235
f 236/236/236 234/234/234 235/235/235
f 239/239/239 238/238/238 237/237/237
f 240/240/240 239/239/239 237/237/237
f 243/243/243 242/242/242 241/241/241
f 244/244/244 243/243/243 241/241/241
f 244/244/244 241/241/241 245/245/245
f 246/246/246 244/244/244 245/245/245
f 246/246/246 245/245/245 247/247/247
f 248/248/248 246/246/246 247/247/247
f 251/251/251 250/250/250 249/249/249
f 252/252/252 251/251/251 249/249/249
f 255/255/255 254/254/254 253/253/253
f 256/256/256 255/255/255 253/253/253
f 256/256/256 253/253/253 257/257/257
f 258/258/258 256/256/256 257/257/257
f 258/258/258 257/257/257 259/259/259
f 260/260/260 258/258/258 259/259/259
f 260/260/260 259/259/259 261/261/261
f 262/262/262 260/260/260 261/261/261
f 265/265/265 264/264/264 263/263/263
f 266/266/266 265/265/265 263/263/263
f 269/269/269 268/268/268 267/267/267
f 270/270/270 269/269/269 267/267/267
f 273/273/273 272/272/272 271/271/271
f 274/274/274 273/273/273 271/271/271
f 275/275/275 273/273/273 274/274/274
f 276/276/276 275/275/275 274/274/274
f 277/277/277 275/275/275 276/276/276
f 278/278/278 277/277/277 276/276/276
f 281/281/281 280/280/280 279/279/279
f 282/282/282 281/281/281 279/279/279
f 285/285/285 284/284/284 283/283/283
f 286/286/286 285/285/285 283/283/283
f 287/287/287 285/285/285 286/286/286
f 288/288/288 287/287/287 286/286/286
f 289/289/289 287/287/287 288/288/288
f 290/290/290 289/289/289 288/288/288
f 293/293/293 292/292/292 291/291/291
f 294/294/294 293/293/293 291/291/291
f 297/297/297 296/296/296 295/295/295
f 298/298/298 297/297/297 295/295/295
f 299/299/299 297/297/297 298/298/298
f 300/300/300 299/299/299 298/298/298
f 301/301/301 299/299/299 300/300/300
f 302/302/302 301/301/301 300/300/300
f 305/305/305 304/304/304 303/303/303
f 306/306/306 305/305/305 303/303/303
f 309/309/309 308/308/308 307/307/307
f 310/310/310 309/309/309 307/307/307
f 311/311/311 309/309/309 310/310/310
f 312/312/312 311/311/311 310/310/310
f 313/313/313 311/311/311 312/312/312
f 314/314/314 313/313/313 312/312/312
f 315/315/315 313/313/313 314/314/314
f 316/316/316 315/315/315 314/314/314
f 319/319/319 318/318/318 317/317/317
f 320/320/320 319/319/319 317/317/317
f 319/319/319 320/320/320 321/321/321
f 322/322/322 319/319/319 321/321/321
f 325/325/325 324/324/324 323/323/323
f 326/326/326 325/325/325 323/323/323
f 329/329/329 328/328/328 327/327/327
f 330/330/330 329/329/329 327/327/327
f 330/330/330 327/327/327 331/331/331
f 332/332/332 330/330/330 331/331/331
f 332/332/332 331/331/331 333/333/333
f 334/334/334 332/332/332 333/333/333
f 337/337/337 336/336/336 335/335/335
f 338/338/338 337/337/337 335/335/335
f 341/341/341 340/340/340 339/339/339
f 342/342/342 341/341/341 339/339/339
f 342/342/342 339/339/339 343/343/343
f 344/344/344 342/342/342 343/343/343
f 344/344/344 343/343/343 345/345/345
f 346/346/346 344/344/344 345/345/345
f 349/349/349 348/348/348 347/347/347
f 350/350/350 349/349/349 347/347/347
f 353/353/353 352/352/352 351/351/351
f 354/354/354 353/353/353 351/351/351
f 354/354/354 351/351/351 355/355/355
f 356/356/356 354/354/354 355/355/355
f 356/356/356 355/355/355 357/357/357
f 358/358/358 356/356/356 357/357/357
f 361/361/361 360/360/360 359/359/359
f 362/362/362 361/361/361 359/359/359
f 365/365/365 364/364/364 363/363/363
f 366/366/366 365/365/365 363/363/363
f 366/366/366 363/363/363 367/367/367
f 368/368/368 366/366/366 367/367/367
f 368/368/368 367/367/367 369/369/369
f 370/370/370 368/368/368 369/369/369
f 370/370/370 369/369/369 371/371/371
f 369/369/369 372/372/372 371/371/371
f 375/375/375 374/374/374 373/373/373
f 373/373/373 376/376/376 375/375/375
f 373/373/373 377/377/377 376/376/376
f 380/380/380 379/379/379 378/378/378
f 381/381/381 380/380/380 378/378/378
f 378/378/378 382/382/382 381/381/381
f 382/382/382 383/383/383 381/381/381
f 386/386/386 385/385/385 384/384/384
f 387/387/387 386/386/386 384/384/384
f 390/390/390 389/389/389 388/388/388
f 391/391/391 390/390/390 388/388/388
f 391/391/391 388/388/388 392/392/392
f 393/393/393 391/391/391 392/392/392
f 393/393/393 392/392/392 394/394/394
f 395/395/395 393/393/393 394/394/394
f 398/398/398 397/397/397 396/396/396
f 399/399/399 398/398/398 396/396/396
f 402/402/402 401/401/401 400/400/400
f 403/403/403 402/402/402 400/400/400
f 403/403/403 400/400/400 404/404/404
f 405/405/405 403/403/403 404/404/404
f 405/405/405 404/404/404 406/406/406
f 407/407/407 405/405/405 406/406/406
f 410/410/410 409/409/409 408/408/408
f 411/411/411 410/410/410 408/408/408
f 414/414/414 413/413/413 412/412/412
f 415/415/415 414/414/414 412/412/412
f 416/416/416 415/415/415 412/412/412
f 417/417/417 416/416/416 412/412/412
f 416/416/416 417/417/417 418/418/418
f 419/419/419 416/416/416 418/418/418
f 422/422/422 421/421/421 420/420/420
f 423/423/423 422/422/422 420/420/420
f 426/426/426 425/425/425 424/424/424
f 427/427/427 426/426/426 424/424/424
f 427/427/427 424/424/424 428/428/428
f 429/429/429 427/427/427 428/428/428
f 429/429/429 428/428/428 430/430/430
f 431/431/431 429/429/429 430/430/430
f 432/432/432 431/431/431 430/430/430
f 433/433/433 432/432/432 430/430/430
f 436/436/436 435/435/435 434/434/434
f 437/437/437 436/436/436 434/434/434
f 440/440/440 439/439/439 438/438/438
f 441/441/441 440/440/440 438/438/438
f 444/444/444 443/443/443 442/442/442
f 445/445/445 444/444/444 442/442/442
f 448/448/448 447/447/447 446/446/446
f 449/449/449 448/448/448 446/446/446
f 452/452/452 451/451/451 450/450/450
f 453/453/453 452/452/452 450/450/450
f 456/456/456 455/455/455 454/454/454
f 457/457/457 456/456/456 454/454/454
f 460/460/460 459/459/459 458/458/458
f 461/461/461 460/460/460 458/458/458
f 464/464/464 463/463/463 462/462/462
f 465/465/465 464/464/464 462/462/462
