g DamRound_ElectricPost_2
v -6.99177599 0.72031647 -35.9421539
v -6.76361418 0.866904914 -35.8483582
v -6.76361418 0.720316172 -35.8476906
v -6.99177599 0.866905808 -35.9426308
v -7.08634138 0.720317662 -36.1703758
v -7.08634138 0.866906404 -36.1703796
v -6.76361418 0.720316172 -35.8476906
v -6.76361418 0.866904914 -35.8483582
v -6.53544283 0.866905808 -35.9426308
v -6.53544283 0.72031647 -35.9421539
v -6.44087744 0.866906404 -36.1703796
v -6.44087744 0.720317662 -36.1703796
v -6.44087744 0.720317662 -36.1703796
v -6.44087744 0.866906404 -36.1703796
v -6.53544044 0.866907656 -36.3981285
v -6.53544044 0.720318258 -36.3986015
v -6.76361418 0.866908252 -36.4924126
v -6.76361418 0.72031951 -36.4930916
v -6.76361418 0.72031951 -36.4930916
v -6.76361418 0.866908252 -36.4924126
v -6.99178553 0.866907656 -36.3981285
v -6.99178553 0.720318258 -36.3986015
v -7.08634138 0.866906404 -36.1703796
v -7.08634138 0.720317662 -36.1703758
v -6.93720579 0.875924945 -35.9972649
v -6.93720579 1.64717829 -35.9968414
v -6.76361418 1.64717805 -35.9249611
v -6.76361418 0.875923753 -35.9255562
v -6.59001446 1.64717829 -35.9968414
v -6.59001446 0.875924945 -35.9972649
v -7.00910997 0.875925601 -36.1703835
v -7.00910759 1.64717829 -36.1703835
v -6.93720579 1.64717829 -35.9968414
v -6.93720579 0.875924945 -35.9972649
v -6.93720579 0.875926495 -36.3435059
v -6.93720579 1.64717829 -36.3439293
v -7.00910759 1.64717829 -36.1703835
v -7.00910997 0.875925601 -36.1703835
v -6.76537943 0.875926495 -36.4165993
v -6.76380968 1.64717829 -36.4159622
v -6.93720579 1.64717829 -36.3439293
v -6.93720579 0.875926495 -36.3435059
v -6.59020853 1.64717829 -36.3440819
v -6.76380968 1.64717829 -36.4159622
v -6.76537943 0.875926495 -36.4165993
v -6.59177732 0.875926495 -36.3448906
v -6.51811028 0.875925601 -36.1703835
v -6.51811028 1.64717829 -36.1703835
v -6.59001446 0.875924945 -35.9972649
v -6.59001446 1.64717829 -35.9968414
v -6.51811028 1.64717829 -36.1703835
v -6.51811028 0.875925601 -36.1703835
v -6.51811028 0.875925601 -36.1703835
v -6.44087744 0.866906404 -36.1703796
v -6.53544283 0.866905808 -35.9426308
v -6.59001446 0.875924945 -35.9972649
v -6.76361418 0.866904914 -35.8483582
v -6.76361418 0.875923753 -35.9255562
v -6.99177599 0.866905808 -35.9426308
v -6.93720579 0.875924945 -35.9972649
v -7.08634138 0.866906404 -36.1703796
v -7.00910997 0.875925601 -36.1703835
v -6.59177732 0.875926495 -36.3448906
v -6.44087744 0.866906404 -36.1703796
v -6.51811028 0.875925601 -36.1703835
v -6.53544044 0.866907656 -36.3981285
v -6.76537943 0.875926495 -36.4165993
v -6.76361418 0.866908252 -36.4924126
v -6.93720579 0.875926495 -36.3435059
v -6.99178553 0.866907656 -36.3981285
v -7.00910997 0.875925601 -36.1703835
v -7.08634138 0.866906404 -36.1703796
v -6.59001446 1.74579155 -35.9967918
v -6.57852745 1.74811006 -36.1703835
v -6.51811028 1.74579155 -36.1703835
v -6.63273525 1.74811006 -36.0395126
v -6.76361418 1.74579155 -35.9248886
v -6.76361418 1.74811006 -35.985302
v -6.93720579 1.74579155 -35.9967918
v -6.89448357 1.74811006 -36.0395126
v -7.00910997 1.74579155 -36.1703835
v -6.94869375 1.74811006 -36.1703835
v -6.51811028 1.74579155 -36.1703835
v -6.57852745 1.74811006 -36.1703835
v -6.63273525 1.74811006 -36.3012581
v -6.59001446 1.74579155 -36.3439789
v -6.76361418 1.74811006 -36.3554649
v -6.76361418 1.74579155 -36.4158821
v -6.89448357 1.74811006 -36.3012581
v -6.93720579 1.74579155 -36.3439789
v -6.94869375 1.74811006 -36.1703835
v -7.00910997 1.74579155 -36.1703835
v -6.88657331 1.83604336 -36.0474205
v -6.91846657 1.88381612 -36.0155296
v -6.76361418 1.88381612 -35.9513969
v -6.76361418 1.83604336 -35.9964943
v -6.60875702 1.88381612 -36.0155296
v -6.64064693 1.83604336 -36.0474205
v -6.64064693 1.83604336 -36.0474205
v -6.60875702 1.88381612 -36.0155296
v -6.54461908 1.88381612 -36.1703835
v -6.5897193 1.83604336 -36.1703835
v -6.5897193 1.83604336 -36.1703835
v -6.54461908 1.88381612 -36.1703835
v -6.60875702 1.88381612 -36.3252373
v -6.64064693 1.83604336 -36.2933426
v -6.76361418 1.88381612 -36.3893738
v -6.76361418 1.83604336 -36.3442726
v -6.76361418 1.83604336 -36.3442726
v -6.76361418 1.88381612 -36.3893738
v -6.91846657 1.88381612 -36.3252373
v -6.88657331 1.83604336 -36.2933426
v -6.98259974 1.88381612 -36.1703835
v -6.93750095 1.83604336 -36.1703835
v -6.93750095 1.83604336 -36.1703835
v -6.98259974 1.88381612 -36.1703835
v -6.91846657 1.88381612 -36.0155296
v -6.88657331 1.83604336 -36.0474205
v -6.91846657 1.88381612 -36.0155296
v -6.89669275 1.94623196 -36.0373039
v -6.76361418 1.94623196 -35.982193
v -6.76361418 1.88381612 -35.9513969
v -6.76361418 1.88381612 -35.9513969
v -6.76361418 1.94623196 -35.982193
v -6.63053083 1.94623196 -36.0373039
v -6.60875702 1.88381612 -36.0155296
v -6.57541227 1.94623196 -36.1703835
v -6.54461908 1.88381612 -36.1703835
v -6.54461908 1.88381612 -36.1703835
v -6.57541227 1.94623196 -36.1703835
v -6.63053083 1.94623196 -36.303463
v -6.60875702 1.88381612 -36.3252373
v -6.76361418 1.94623196 -36.3585777
v -6.76361418 1.88381612 -36.3893738
v -6.76361418 1.88381612 -36.3893738
v -6.76361418 1.94623196 -36.3585777
v -6.89669275 1.94623196 -36.303463
v -6.91846657 1.88381612 -36.3252373
v -6.91846657 1.88381612 -36.3252373
v -6.89669275 1.94623196 -36.303463
v -6.9518075 1.94623196 -36.1703835
v -6.98259974 1.88381612 -36.1703835
v -6.98259974 1.88381612 -36.1703835
v -6.9518075 1.94623196 -36.1703835
v -6.89669275 1.94623196 -36.0373039
v -6.91846657 1.88381612 -36.0155296
v -6.76361418 1.94623196 -35.982193
v -6.60136318 2.01425266 -36.0081406
v -6.63053083 1.94623196 -36.0373039
v -6.76361418 2.01425266 -35.9409447
v -6.89669275 1.94623196 -36.0373039
v -6.9258604 2.01425266 -36.0081406
v -6.9518075 1.94623196 -36.1703835
v -6.99305296 2.01425266 -36.1703835
v -6.63053083 1.94623196 -36.0373039
v -6.60136318 2.01425266 -36.0081406
v -6.53416634 2.01425266 -36.1703835
v -6.57541227 1.94623196 -36.1703835
v -6.57541227 1.94623196 -36.1703835
v -6.53416634 2.01425266 -36.1703835
v -6.60136318 2.01425266 -36.3326225
v -6.63053083 1.94623196 -36.303463
v -6.76361418 2.01425266 -36.3998222
v -6.76361418 1.94623196 -36.3585777
v -6.76361418 1.94623196 -36.3585777
v -6.76361418 2.01425266 -36.3998222
v -6.9258604 2.01425266 -36.3326225
v -6.89669275 1.94623196 -36.303463
v -6.99305296 2.01425266 -36.1703835
v -6.9518075 1.94623196 -36.1703835
v -6.9258604 2.01425266 -36.0081406
v -6.76361418 2.06519246 -35.9815216
v -6.76361418 2.01425266 -35.9409447
v -6.89716291 2.06519246 -36.0368347
v -6.99305296 2.01425266 -36.1703835
v -6.95247412 2.06519246 -36.1703835
v -6.76361418 2.01425266 -35.9409447
v -6.76361418 2.06519246 -35.9815216
v -6.6300621 2.06519246 -36.0368347
v -6.60136318 2.01425266 -36.0081406
v -6.5747447 2.06519246 -36.1703835
v -6.53416634 2.01425266 -36.1703835
v -6.53416634 2.01425266 -36.1703835
v -6.5747447 2.06519246 -36.1703835
v -6.6300621 2.06519246 -36.3039322
v -6.60136318 2.01425266 -36.3326225
v -6.60136318 2.01425266 -36.3326225
v -6.6300621 2.06519246 -36.3039322
v -6.76361418 2.06519246 -36.3592415
v -6.76361418 2.01425266 -36.3998222
v -6.89716291 2.06519246 -36.3039322
v -6.9258604 2.01425266 -36.3326225
v -6.9258604 2.01425266 -36.3326225
v -6.89716291 2.06519246 -36.3039322
v -6.95247412 2.06519246 -36.1703835
v -6.99305296 2.01425266 -36.1703835
v -6.89716291 2.06519246 -36.0368347
v -6.76361418 2.13417649 -35.9434013
v -6.76361418 2.06519246 -35.9815216
v -6.92412472 2.13417649 -36.0098763
v -6.95247412 2.06519246 -36.1703835
v -6.99060154 2.13417649 -36.1703835
v -6.76361418 2.06519246 -35.9815216
v -6.76361418 2.13417649 -35.9434013
v -6.60310173 2.13417649 -36.0098763
v -6.6300621 2.06519246 -36.0368347
v -6.53661966 2.13417649 -36.1703835
v -6.5747447 2.06519246 -36.1703835
v -6.5747447 2.06519246 -36.1703835
v -6.53661966 2.13417649 -36.1703835
v -6.60310173 2.13417649 -36.3308945
v -6.6300621 2.06519246 -36.3039322
v -6.76361418 2.13417649 -36.3973656
v -6.76361418 2.06519246 -36.3592415
v -6.76361418 2.06519246 -36.3592415
v -6.76361418 2.13417649 -36.3973656
v -6.92412472 2.13417649 -36.3308945
v -6.89716291 2.06519246 -36.3039322
v -6.99060154 2.13417649 -36.1703835
v -6.95247412 2.06519246 -36.1703835
v -6.92412472 2.13417649 -36.0098763
v -6.89765358 2.1862185 -36.0363503
v -6.76361418 2.1862185 -35.980835
v -6.76361418 2.13417649 -35.9434013
v -6.62957382 2.1862185 -36.0363503
v -6.60310173 2.13417649 -36.0098763
v -6.57405758 2.1862185 -36.1703835
v -6.53661966 2.13417649 -36.1703835
v -6.53661966 2.13417649 -36.1703835
v -6.57405758 2.1862185 -36.1703835
v -6.62957382 2.1862185 -36.3044243
v -6.60310173 2.13417649 -36.3308945
v -6.76361418 2.1862185 -36.3599319
v -6.76361418 2.13417649 -36.3973656
v -6.76361418 2.13417649 -36.3973656
v -6.76361418 2.1862185 -36.3599319
v -6.89765358 2.1862185 -36.3044243
v -6.92412472 2.13417649 -36.3308945
v -6.9531641 2.1862185 -36.1703835
v -6.99060154 2.13417649 -36.1703835
v -6.99060154 2.13417649 -36.1703835
v -6.9531641 2.1862185 -36.1703835
v -6.89765358 2.1862185 -36.0363503
v -6.92412472 2.13417649 -36.0098763
v -6.89765358 2.1862185 -36.0363503
v -6.9559021 2.184762 -35.9781075
v -6.76361656 2.184762 -35.8984718
v -6.76361418 2.1862185 -35.980835
v -6.76361418 2.1862185 -35.980835
v -6.76361656 2.184762 -35.8984718
v -6.5713315 2.184762 -35.9781075
v -6.62957382 2.1862185 -36.0363503
v -6.62957382 2.1862185 -36.0363503
v -6.5713315 2.184762 -35.9781075
v -6.49168825 2.184762 -36.1703835
v -6.57405758 2.1862185 -36.1703835
v -6.57405758 2.1862185 -36.1703835
v -6.49168825 2.184762 -36.1703835
v -6.5713315 2.184762 -36.3626671
v -6.62957382 2.1862185 -36.3044243
v -6.62957382 2.1862185 -36.3044243
v -6.5713315 2.184762 -36.3626671
v -6.76361656 2.184762 -36.4422951
v -6.76361418 2.1862185 -36.3599319
v -6.76361418 2.1862185 -36.3599319
v -6.76361656 2.184762 -36.4422951
v -6.9559021 2.184762 -36.3626671
v -6.89765358 2.1862185 -36.3044243
v -6.89765358 2.1862185 -36.3044243
v -6.9559021 2.184762 -36.3626671
v -7.03553104 2.184762 -36.1703835
v -6.9531641 2.1862185 -36.1703835
v -6.9531641 2.1862185 -36.1703835
v -7.03553104 2.184762 -36.1703835
v -6.9559021 2.184762 -35.9781075
v -6.89765358 2.1862185 -36.0363503
v -6.9559021 2.184762 -35.9781075
v -6.9559021 2.27558279 -35.9781075
v -6.76361656 2.27558279 -35.8984718
v -6.76361656 2.184762 -35.8984718
v -6.76361656 2.184762 -35.8984718
v -6.76361656 2.27558279 -35.8984718
v -6.5713315 2.27558279 -35.9781075
v -6.5713315 2.184762 -35.9781075
v -6.5713315 2.184762 -35.9781075
v -6.5713315 2.27558279 -35.9781075
v -6.49168825 2.27558279 -36.1703835
v -6.49168825 2.184762 -36.1703835
v -6.49168825 2.184762 -36.1703835
v -6.49168825 2.27558279 -36.1703835
v -6.5713315 2.27558279 -36.3626671
v -6.5713315 2.184762 -36.3626671
v -6.5713315 2.184762 -36.3626671
v -6.5713315 2.27558279 -36.3626671
v -6.76361656 2.27558279 -36.4422951
v -6.76361656 2.184762 -36.4422951
v -6.76361656 2.184762 -36.4422951
v -6.76361656 2.27558279 -36.4422951
v -6.9559021 2.27558279 -36.3626671
v -6.9559021 2.184762 -36.3626671
v -6.9559021 2.184762 -36.3626671
v -6.9559021 2.27558279 -36.3626671
v -7.03553104 2.27558279 -36.1703835
v -7.03553104 2.184762 -36.1703835
v -7.03553104 2.184762 -36.1703835
v -7.03553104 2.27558279 -36.1703835
v -6.9559021 2.27558279 -35.9781075
v -6.9559021 2.184762 -35.9781075
v -6.93720579 1.64717829 -36.3439293
v -6.93720579 1.74579155 -36.3439789
v -7.00910997 1.74579155 -36.1703835
v -7.00910759 1.64717829 -36.1703835
v -6.76380968 1.64717829 -36.4159622
v -6.76361418 1.74579155 -36.4158821
v -6.93720579 1.74579155 -36.3439789
v -6.93720579 1.64717829 -36.3439293
v -6.59001446 1.74579155 -36.3439789
v -6.76361418 1.74579155 -36.4158821
v -6.76380968 1.64717829 -36.4159622
v -6.59020853 1.64717829 -36.3440819
v -6.51811028 1.64717829 -36.1703835
v -6.51811028 1.74579155 -36.1703835
v -6.59001446 1.64717829 -35.9968414
v -6.59001446 1.74579155 -35.9967918
v -6.51811028 1.74579155 -36.1703835
v -6.51811028 1.64717829 -36.1703835
v -6.76361418 1.64717805 -35.9249611
v -6.59001446 1.74579155 -35.9967918
v -6.59001446 1.64717829 -35.9968414
v -6.76361418 1.74579155 -35.9248886
v -6.93720579 1.64717829 -35.9968414
v -6.93720579 1.74579155 -35.9967918
v -7.00910759 1.64717829 -36.1703835
v -7.00910997 1.74579155 -36.1703835
v -6.93720579 1.74579155 -35.9967918
v -6.93720579 1.64717829 -35.9968414
v -6.6119504 1.78746641 -36.3220406
v -6.76361418 1.83604336 -36.3442726
v -6.76361418 1.78746641 -36.3848572
v -6.64064693 1.83604336 -36.2933426
v -6.54913425 1.78746641 -36.1703835
v -6.5897193 1.83604336 -36.1703835
v -6.6119504 1.78746641 -36.0187302
v -6.5897193 1.83604336 -36.1703835
v -6.54913425 1.78746641 -36.1703835
v -6.64064693 1.83604336 -36.0474205
v -6.76361418 1.78746641 -35.9559135
v -6.76361418 1.83604336 -35.9964943
v -6.91526699 1.78746641 -36.0187302
v -6.76361418 1.83604336 -35.9964943
v -6.76361418 1.78746641 -35.9559135
v -6.88657331 1.83604336 -36.0474205
v -6.97808313 1.78746641 -36.1703835
v -6.93750095 1.83604336 -36.1703835
v -6.91526699 1.78746641 -36.3220406
v -6.93750095 1.83604336 -36.1703835
v -6.97808313 1.78746641 -36.1703835
v -6.88657331 1.83604336 -36.2933426
v -6.76361418 1.78746641 -36.3848572
v -6.76361418 1.83604336 -36.3442726
v -6.63273525 1.74811006 -36.3012581
v -6.76361418 1.78746641 -36.3848572
v -6.76361418 1.74811006 -36.3554649
v -6.6119504 1.78746641 -36.3220406
v -6.57852745 1.74811006 -36.1703835
v -6.54913425 1.78746641 -36.1703835
v -6.63273525 1.74811006 -36.0395126
v -6.54913425 1.78746641 -36.1703835
v -6.57852745 1.74811006 -36.1703835
v -6.6119504 1.78746641 -36.0187302
v -6.76361418 1.74811006 -35.985302
v -6.76361418 1.78746641 -35.9559135
v -6.89448357 1.74811006 -36.0395126
v -6.76361418 1.78746641 -35.9559135
v -6.76361418 1.74811006 -35.985302
v -6.91526699 1.78746641 -36.0187302
v -6.94869375 1.74811006 -36.1703835
v -6.97808313 1.78746641 -36.1703835
v -6.89448357 1.74811006 -36.3012581
v -6.97808313 1.78746641 -36.1703835
v -6.94869375 1.74811006 -36.1703835
v -6.91526699 1.78746641 -36.3220406
v -6.76361418 1.74811006 -36.3554649
v -6.76361418 1.78746641 -36.3848572
v -6.9559021 2.27558279 -36.3626671
v -6.95580435 2.34088731 -36.1703835
v -7.03553104 2.27558279 -36.1703835
v -6.89952612 2.34088731 -36.3062897
v -6.76361656 2.35676813 -36.1703796
v -6.76361656 2.27558279 -36.4422951
v -6.89952612 2.34088731 -36.034481
v -6.9559021 2.27558279 -35.9781075
v -6.76361656 2.34088731 -36.3625717
v -6.5713315 2.27558279 -36.3626671
v -6.76361656 2.34088731 -35.9781914
v -6.76361656 2.27558279 -35.8984718
v -6.62770844 2.34088731 -36.3062897
v -6.49168825 2.27558279 -36.1703835
v -6.62770844 2.34088731 -36.034481
v -6.5713315 2.27558279 -35.9781075
v -6.57141447 2.34088731 -36.1703835
vt 0.898925781 0.0210723877
vt 0.872070312 0.00793457031
vt 0.872070312 0.0210723877
vt 0.898925781 0.00793457031
vt 0.930664062 0.0210723877
vt 0.930664062 0.00793457031
vt 0.872070312 0.0210723877
vt 0.872070312 0.00793457031
vt 0.841308594 0.00793457031
vt 0.841308594 0.0210723877
vt 0.812988281 0.00793457031
vt 0.812988281 0.0210723877
vt 0.812988281 0.00793457031
vt 0.812988281 0.0210723877
vt 0.841308594 0.0210723877
vt 0.841308594 0.00793457031
vt 0.872070312 0.0210723877
vt 0.872070312 0.00793457031
vt 0.872070312 0.00793457031
vt 0.872070312 0.0210723877
vt 0.898925781 0.0210723877
vt 0.898925781 0.00793457031
vt 0.930664062 0.0210723877
vt 0.930664062 0.00793457031
vt 0.907226562 0.0674438477
vt 0.907226562 0.158203125
vt 0.861816406 0.158203125
vt 0.861816406 0.0674438477
vt 0.819824219 0.158203125
vt 0.819824219 0.0674438477
vt 0.961914062 0.0674438477
vt 0.961914062 0.158203125
vt 0.907226562 0.158203125
vt 0.907226562 0.0674438477
vt 0.911132812 0.0674438477
vt 0.911132812 0.170654297
vt 0.961914062 0.170654297
vt 0.961914062 0.0674438477
vt 0.866210938 0.0674438477
vt 0.866210938 0.170654297
vt 0.911132812 0.170654297
vt 0.911132812 0.0674438477
vt 0.823242188 0.170654297
vt 0.866210938 0.170654297
vt 0.866210938 0.0674438477
vt 0.823242188 0.0674438477
vt 0.777832031 0.0674438477
vt 0.777832031 0.170654297
vt 0.819824219 0.0674438477
vt 0.819824219 0.158203125
vt 0.777832031 0.158203125
vt 0.777832031 0.0674438477
vt 0.812988281 0.00793457031
vt 0.812988281 0.0210723877
vt 0.841308594 0.0210723877
vt 0.841308594 0.00793457031
vt 0.872070312 0.0210723877
vt 0.872070312 0.00793457031
vt 0.898925781 0.0210723877
vt 0.898925781 0.00793457031
vt 0.930664062 0.0210723877
vt 0.930664062 0.00793457031
vt 0.898925781 0.00793457031
vt 0.930664062 0.0210723877
vt 0.930664062 0.00793457031
vt 0.898925781 0.0210723877
vt 0.872070312 0.00793457031
vt 0.872070312 0.0210723877
vt 0.841308594 0.00793457031
vt 0.841308594 0.0210723877
vt 0.812988281 0.00793457031
vt 0.812988281 0.0210723877
vt 0.901367188 0.252685547
vt 0.925292969 0.242919922
vt 0.925292969 0.252685547
vt 0.901367188 0.242919922
vt 0.875976562 0.252685547
vt 0.875976562 0.242919922
vt 0.848632812 0.252685547
vt 0.848632812 0.242919922
vt 0.825195312 0.252685547
vt 0.825195312 0.242919922
vt 0.926269531 0.252441406
vt 0.926269531 0.242919922
vt 0.901855469 0.242919922
vt 0.901855469 0.252441406
vt 0.875976562 0.242919922
vt 0.875976562 0.252441406
vt 0.848144531 0.242919922
vt 0.848144531 0.252441406
vt 0.824707031 0.242919922
vt 0.824707031 0.252441406
vt 0.424804688 0.901367188
vt 0.424560547 0.915527344
vt 0.458496094 0.915527344
vt 0.458740234 0.901367188
vt 0.492919922 0.915527344
vt 0.492919922 0.901367188
vt 0.492919922 0.901367188
vt 0.492919922 0.915527344
vt 0.52734375 0.915527344
vt 0.52734375 0.901367188
vt 0.52734375 0.901367188
vt 0.52734375 0.915527344
vt 0.492919922 0.915527344
vt 0.492919922 0.901367188
vt 0.458740234 0.915527344
vt 0.458740234 0.901367188
vt 0.458740234 0.901367188
vt 0.458740234 0.915527344
vt 0.424560547 0.915527344
vt 0.424804688 0.901367188
vt 0.390136719 0.915527344
vt 0.390136719 0.901367188
vt 0.390136719 0.901367188
vt 0.390136719 0.915527344
vt 0.424560547 0.915527344
vt 0.424804688 0.901367188
vt 0.424560547 0.915527344
vt 0.424560547 0.9296875
vt 0.458496094 0.9296875
vt 0.458496094 0.915527344
vt 0.458496094 0.915527344
vt 0.458496094 0.9296875
vt 0.492919922 0.9296875
vt 0.492919922 0.915527344
vt 0.52734375 0.9296875
vt 0.52734375 0.915527344
vt 0.52734375 0.915527344
vt 0.52734375 0.9296875
vt 0.492919922 0.9296875
vt 0.492919922 0.915527344
vt 0.458740234 0.9296875
vt 0.458740234 0.915527344
vt 0.458740234 0.915527344
vt 0.458740234 0.9296875
vt 0.424560547 0.9296875
vt 0.424560547 0.915527344
vt 0.424560547 0.915527344
vt 0.424560547 0.9296875
vt 0.390136719 0.9296875
vt 0.390136719 0.915527344
vt 0.390136719 0.915527344
vt 0.390136719 0.9296875
vt 0.424560547 0.9296875
vt 0.424560547 0.915527344
vt 0.458740234 0.901367188
vt 0.492919922 0.915527344
vt 0.492919922 0.901367188
vt 0.458740234 0.915527344
vt 0.424560547 0.901367188
vt 0.424560547 0.915527344
vt 0.390136719 0.901367188
vt 0.390136719 0.915527344
vt 0.492919922 0.901367188
vt 0.492919922 0.915527344
vt 0.52734375 0.915527344
vt 0.52734375 0.901367188
vt 0.52734375 0.901367188
vt 0.52734375 0.915527344
vt 0.492919922 0.915527344
vt 0.492919922 0.901367188
vt 0.458740234 0.915527344
vt 0.458496094 0.901367188
vt 0.458496094 0.901367188
vt 0.458740234 0.915527344
vt 0.424560547 0.915527344
vt 0.424316406 0.901367188
vt 0.390136719 0.915527344
vt 0.390136719 0.901367188
vt 0.424560547 0.915527344
vt 0.458740234 0.9296875
vt 0.458740234 0.915527344
vt 0.424560547 0.9296875
vt 0.390136719 0.915527344
vt 0.390136719 0.9296875
vt 0.458740234 0.915527344
vt 0.458740234 0.9296875
vt 0.492919922 0.9296875
vt 0.492919922 0.915527344
vt 0.52734375 0.9296875
vt 0.52734375 0.915527344
vt 0.52734375 0.915527344
vt 0.52734375 0.9296875
vt 0.492919922 0.9296875
vt 0.492919922 0.915527344
vt 0.492919922 0.915527344
vt 0.492919922 0.9296875
vt 0.458740234 0.9296875
vt 0.458740234 0.915527344
vt 0.424560547 0.9296875
vt 0.424560547 0.915527344
vt 0.424560547 0.915527344
vt 0.424560547 0.9296875
vt 0.390136719 0.9296875
vt 0.390136719 0.915527344
vt 0.424560547 0.901367188
vt 0.458740234 0.915527344
vt 0.458740234 0.901367188
vt 0.424560547 0.915527344
vt 0.390136719 0.901367188
vt 0.390136719 0.915527344
vt 0.458740234 0.901367188
vt 0.458740234 0.915527344
vt 0.492919922 0.915527344
vt 0.492919922 0.901367188
vt 0.52734375 0.915527344
vt 0.52734375 0.901367188
vt 0.52734375 0.901367188
vt 0.52734375 0.915527344
vt 0.492919922 0.915527344
vt 0.492919922 0.901367188
vt 0.458740234 0.915527344
vt 0.458740234 0.901367188
vt 0.458740234 0.901367188
vt 0.458740234 0.915527344
vt 0.424560547 0.915527344
vt 0.424316406 0.901367188
vt 0.390136719 0.915527344
vt 0.390136719 0.901367188
vt 0.424560547 0.915527344
vt 0.424560547 0.9296875
vt 0.458740234 0.9296875
vt 0.458740234 0.915527344
vt 0.492919922 0.9296875
vt 0.492919922 0.915527344
vt 0.52734375 0.9296875
vt 0.52734375 0.915527344
vt 0.52734375 0.915527344
vt 0.52734375 0.9296875
vt 0.492919922 0.9296875
vt 0.492919922 0.915527344
vt 0.458740234 0.9296875
vt 0.458740234 0.915527344
vt 0.458740234 0.915527344
vt 0.458740234 0.9296875
vt 0.424560547 0.9296875
vt 0.424560547 0.915527344
vt 0.390136719 0.9296875
vt 0.390136719 0.915527344
vt 0.390136719 0.915527344
vt 0.390136719 0.9296875
vt 0.424560547 0.9296875
vt 0.424560547 0.915527344
vt 0.848632812 0.242919922
vt 0.848632812 0.252685547
vt 0.875976562 0.252685547
vt 0.875976562 0.242919922
vt 0.875976562 0.242919922
vt 0.875976562 0.252685547
vt 0.901367188 0.252685547
vt 0.901367188 0.242919922
vt 0.901367188 0.242919922
vt 0.901367188 0.252685547
vt 0.92578125 0.252685547
vt 0.92578125 0.242919922
vt 0.92578125 0.242919922
vt 0.92578125 0.252441406
vt 0.901367188 0.252441406
vt 0.901367188 0.242919922
vt 0.901367188 0.242919922
vt 0.901367188 0.252441406
vt 0.875976562 0.252441406
vt 0.875976562 0.242919922
vt 0.875976562 0.242919922
vt 0.875976562 0.252441406
vt 0.848144531 0.252441406
vt 0.848144531 0.242919922
vt 0.848144531 0.242919922
vt 0.848144531 0.252441406
vt 0.824707031 0.252441406
vt 0.824707031 0.242919922
vt 0.825195312 0.242919922
vt 0.825195312 0.252685547
vt 0.848632812 0.252685547
vt 0.848632812 0.242919922
vt 0.859863281 0.24230957
vt 0.859863281 0.252685547
vt 0.845703125 0.252685547
vt 0.845703125 0.24230957
vt 0.845703125 0.24230957
vt 0.845703125 0.252685547
vt 0.832519531 0.252685547
vt 0.832519531 0.24230957
vt 0.832519531 0.24230957
vt 0.832519531 0.252685547
vt 0.818359375 0.252685547
vt 0.818359375 0.24230957
vt 0.818359375 0.24230957
vt 0.818359375 0.252685547
vt 0.833007812 0.252685547
vt 0.833007812 0.24230957
vt 0.833007812 0.24230957
vt 0.833007812 0.252685547
vt 0.847167969 0.252685547
vt 0.847167969 0.24230957
vt 0.847167969 0.24230957
vt 0.847167969 0.252685547
vt 0.860839844 0.252685547
vt 0.860839844 0.24230957
vt 0.860839844 0.24230957
vt 0.860839844 0.252685547
vt 0.875976562 0.252685547
vt 0.875976562 0.24230957
vt 0.875976562 0.24230957
vt 0.875976562 0.252685547
vt 0.859863281 0.252685547
vt 0.859863281 0.24230957
vt 0.911132812 0.253173828
vt 0.911132812 0.241821289
vt 0.961914062 0.241821289
vt 0.961914062 0.253173828
vt 0.866210938 0.253173828
vt 0.866210938 0.241821289
vt 0.911132812 0.241821289
vt 0.911132812 0.253173828
vt 0.823242188 0.241821289
vt 0.866210938 0.241821289
vt 0.866210938 0.253173828
vt 0.823242188 0.253173828
vt 0.777832031 0.253173828
vt 0.777832031 0.241821289
vt 0.819824219 0.252441406
vt 0.819824219 0.242431641
vt 0.777832031 0.242431641
vt 0.777832031 0.252441406
vt 0.861816406 0.252441406
vt 0.819824219 0.242431641
vt 0.819824219 0.252441406
vt 0.861816406 0.242431641
vt 0.907226562 0.252441406
vt 0.907226562 0.242431641
vt 0.961914062 0.252441406
vt 0.961914062 0.242431641
vt 0.907226562 0.242431641
vt 0.907226562 0.252441406
vt 0.493652344 0.914550781
vt 0.459716797 0.929199219
vt 0.459716797 0.914550781
vt 0.493408203 0.929199219
vt 0.528320312 0.914550781
vt 0.528808594 0.929199219
vt 0.493164062 0.914550781
vt 0.528320312 0.929199219
vt 0.528320312 0.914550781
vt 0.493164062 0.929199219
vt 0.459228516 0.914550781
vt 0.459228516 0.929199219
vt 0.425292969 0.914550781
vt 0.459228516 0.929199219
vt 0.459228516 0.914550781
vt 0.425537109 0.929199219
vt 0.390380859 0.914550781
vt 0.390136719 0.929199219
vt 0.42578125 0.914550781
vt 0.390380859 0.929199219
vt 0.390625 0.914550781
vt 0.42578125 0.929199219
vt 0.459716797 0.914550781
vt 0.459716797 0.929199219
vt 0.493896484 0.901367188
vt 0.459716797 0.914550781
vt 0.459716797 0.901367188
vt 0.493652344 0.914550781
vt 0.528320312 0.901367188
vt 0.528320312 0.914550781
vt 0.493408203 0.901367188
vt 0.528320312 0.914550781
vt 0.528320312 0.901367188
vt 0.493164062 0.914550781
vt 0.459228516 0.901367188
vt 0.459228516 0.914550781
vt 0.425048828 0.901367188
vt 0.459228516 0.914550781
vt 0.459228516 0.901367188
vt 0.425292969 0.914550781
vt 0.390380859 0.901367188
vt 0.390380859 0.914550781
vt 0.425537109 0.901367188
vt 0.390625 0.914550781
vt 0.390625 0.901367188
vt 0.42578125 0.914550781
vt 0.459716797 0.901367188
vt 0.459716797 0.914550781
vt 0.818359375 0.114501953
vt 0.840820312 0.116943359
vt 0.840820312 0.105712891
vt 0.826171875 0.122497559
vt 0.840332031 0.137695312
vt 0.808105469 0.13684082
vt 0.85546875 0.123535156
vt 0.86328125 0.115600586
vt 0.819335938 0.136962891
vt 0.816894531 0.159667969
vt 0.860839844 0.138427734
vt 0.872070312 0.138427734
vt 0.825195312 0.151733398
vt 0.839355469 0.169677734
vt 0.854492188 0.152832031
vt 0.862304688 0.160766602
vt 0.839355469 0.158325195
vn -0.706542969 0.00230026245 0.708007812
vn -1.37090683E-06 0.00391769409 1
vn -1.37090683E-06 0.00391769409 1
vn -0.70703125 0.00229644775 0.70703125
vn -1 0.000671863556 2.84910202E-05
vn -1 0.000671863556 1.43051147E-05
vn -1.37090683E-06 0.00391769409 1
vn -1.37090683E-06 0.00391769409 1
vn 0.70703125 0.00229644775 0.70703125
vn 0.706054688 0.00230026245 0.708007812
vn 1 0.000675201416 4.35113907E-06
vn 1 0.000675201416 6.31809235E-06
vn 1 0.000675201416 6.31809235E-06
vn 1 0.000675201416 4.35113907E-06
vn 0.70703125 0.00230026245 -0.70703125
vn 0.706542969 0.00230407715 -0.708007812
vn -3.9935112E-06 0.00392532349 -1
vn -3.9935112E-06 0.00392532349 -1
vn -3.9935112E-06 0.00392532349 -1
vn -3.9935112E-06 0.00392532349 -1
vn -0.70703125 0.00228881836 -0.70703125
vn -0.706542969 0.00229263306 -0.708007812
vn -1 0.000671863556 1.43051147E-05
vn -1 0.000671863556 2.84910202E-05
vn -0.706542969 -0.00038766861 0.707519531
vn -0.706542969 -0.000386476517 0.707519531
vn -0 -0.000658988953 1
vn -0 -0.000662326813 1
vn 0.706542969 -0.000386476517 0.707519531
vn 0.706542969 -0.000388383865 0.707519531
vn -1 -0.000112354755 1.31130219E-06
vn -1 -0.00011318922 1.78813934E-07
vn -0.706542969 -0.000386476517 0.707519531
vn -0.706542969 -0.00038766861 0.707519531
vn -0.708984375 0.000225782394 -0.705078125
vn -0.708984375 0.000224947929 -0.705566406
vn -1 -0.00011318922 1.78813934E-07
vn -1 -0.000112354755 1.31130219E-06
vn -0.0027217865 0.000331640244 -1
vn -0.00160980225 0.000330686569 -1
vn -0.708984375 0.000224947929 -0.705566406
vn -0.708984375 0.000225782394 -0.705078125
vn 0.706542969 -0.000348329544 -0.707519531
vn -0.00160980225 0.000330686569 -1
vn -0.0027217865 0.000331640244 -1
vn 0.706054688 -0.000348806381 -0.708496094
vn 1 -0.000456094742 -0.00281524658
vn 1 -0.000454187393 -0.00252914429
vn 0.706542969 -0.000388383865 0.707519531
vn 0.706542969 -0.000386476517 0.707519531
vn 1 -0.000454187393 -0.00252914429
vn 1 -0.000456094742 -0.00281524658
vn 0.115478516 0.993164062 -0.00032043457
vn 0.115478516 0.993164062 -0.000247240067
vn 0.0819091797 0.993164062 0.0821533203
vn 0.0819091797 0.993164062 0.0821533203
vn 2.98023224E-07 0.993164062 0.116027832
vn -2.38418579E-07 0.993164062 0.116027832
vn -0.0819702148 0.993164062 0.0821533203
vn -0.0819091797 0.993164062 0.0821533203
vn -0.115966797 0.993164062 6.73532486E-06
vn -0.115966797 0.993164062 4.35113907E-06
vn 0.0814208984 0.993164062 -0.082824707
vn 0.115478516 0.993164062 -0.000247240067
vn 0.115478516 0.993164062 -0.00032043457
vn 0.082824707 0.993164062 -0.0813598633
vn -0.000905036926 0.993164062 -0.117248535
vn 0.000749111176 0.993164062 -0.117248535
vn -0.0828857422 0.993164062 -0.0824584961
vn -0.082824707 0.993164062 -0.0825195312
vn -0.115966797 0.993164062 4.35113907E-06
vn -0.115966797 0.993164062 6.73532486E-06
vn 0.657226562 0.368652344 0.657226562
vn 0.711425781 0.702636719 -1.78813934E-07
vn 0.9296875 0.368652344 -0.000255823135
vn 0.502929688 0.702636719 0.503417969
vn -0 0.368408203 0.9296875
vn -1.25169754E-06 0.702636719 0.711425781
vn -0.657226562 0.368652344 0.657226562
vn -0.502929688 0.702636719 0.502929688
vn -0.9296875 0.368896484 0
vn -0.711425781 0.702636719 -1.78813934E-07
vn 0.9296875 0.368652344 -0.000255823135
vn 0.711425781 0.702636719 -1.78813934E-07
vn 0.502929688 0.702636719 -0.503417969
vn 0.657714844 0.368652344 -0.657226562
vn -1.25169754E-06 0.702636719 -0.711425781
vn 0.000240683556 0.369140625 -0.929199219
vn -0.502929688 0.702636719 -0.502929688
vn -0.657226562 0.369140625 -0.657226562
vn -0.711425781 0.702636719 -1.78813934E-07
vn -0.9296875 0.368896484 0
vn -0.706054688 -0.0563354492 0.706054688
vn -0.704101562 -0.0921630859 0.704101562
vn 8.94069672E-07 -0.0921630859 0.995605469
vn -1.78813934E-06 -0.0563049316 0.998535156
vn 0.704101562 -0.0921020508 0.704101562
vn 0.706054688 -0.0563049316 0.706054688
vn 0.706054688 -0.0563049316 0.706054688
vn 0.704101562 -0.0921020508 0.704101562
vn 0.995605469 -0.0921630859 6.55651093E-07
vn 0.998535156 -0.0563049316 -7.74860382E-07
vn 0.998535156 -0.0563049316 -7.74860382E-07
vn 0.995605469 -0.0921630859 6.55651093E-07
vn 0.704101562 -0.0921630859 -0.704101562
vn 0.706054688 -0.0563049316 -0.706054688
vn 8.34465027E-07 -0.0921630859 -0.995605469
vn -1.7285347E-06 -0.0563049316 -0.998535156
vn -1.7285347E-06 -0.0563049316 -0.998535156
vn 8.34465027E-07 -0.0921630859 -0.995605469
vn -0.704101562 -0.0921630859 -0.704101562
vn -0.706054688 -0.0563354492 -0.706054688
vn -0.995605469 -0.0921630859 6.55651093E-07
vn -0.998535156 -0.0563354492 -7.15255737E-07
vn -0.998535156 -0.0563354492 -7.15255737E-07
vn -0.995605469 -0.0921630859 6.55651093E-07
vn -0.704101562 -0.0921630859 0.704101562
vn -0.706054688 -0.0563354492 0.706054688
vn -0.704101562 -0.0921630859 0.704101562
vn -0.704101562 -0.0913696289 0.704101562
vn -7.15255737E-07 -0.0913085938 0.995605469
vn 8.94069672E-07 -0.0921630859 0.995605469
vn 8.94069672E-07 -0.0921630859 0.995605469
vn -7.15255737E-07 -0.0913085938 0.995605469
vn 0.704101562 -0.0913696289 0.704101562
vn 0.704101562 -0.0921020508 0.704101562
vn 0.995605469 -0.0913085938 -5.36441803E-07
vn 0.995605469 -0.0921630859 6.55651093E-07
vn 0.995605469 -0.0921630859 6.55651093E-07
vn 0.995605469 -0.0913085938 -5.36441803E-07
vn 0.704101562 -0.0913085938 -0.704101562
vn 0.704101562 -0.0921630859 -0.704101562
vn -7.15255737E-07 -0.0913085938 -0.995605469
vn 8.34465027E-07 -0.0921630859 -0.995605469
vn 8.34465027E-07 -0.0921630859 -0.995605469
vn -7.15255737E-07 -0.0913085938 -0.995605469
vn -0.704101562 -0.0913085938 -0.704101562
vn -0.704101562 -0.0921630859 -0.704101562
vn -0.704101562 -0.0921630859 -0.704101562
vn -0.704101562 -0.0913085938 -0.704101562
vn -0.995605469 -0.0913085938 -4.76837158E-07
vn -0.995605469 -0.0921630859 6.55651093E-07
vn -0.995605469 -0.0921630859 6.55651093E-07
vn -0.995605469 -0.0913085938 -4.76837158E-07
vn -0.704101562 -0.0913696289 0.704101562
vn -0.704101562 -0.0921630859 0.704101562
vn -7.15255737E-07 -0.0913085938 0.995605469
vn 0.70703125 -0.0154647827 0.70703125
vn 0.704101562 -0.0913696289 0.704101562
vn 8.34465027E-07 -0.0154571533 1
vn -0.704101562 -0.0913696289 0.704101562
vn -0.70703125 -0.0154647827 0.70703125
vn -0.995605469 -0.0913085938 -4.76837158E-07
vn -1 -0.0154571533 1.54972076E-06
vn 0.704101562 -0.0913696289 0.704101562
vn 0.70703125 -0.0154647827 0.70703125
vn 1 -0.0154571533 1.49011612E-06
vn 0.995605469 -0.0913085938 -5.36441803E-07
vn 0.995605469 -0.0913085938 -5.36441803E-07
vn 1 -0.0154571533 1.49011612E-06
vn 0.70703125 -0.0154571533 -0.70703125
vn 0.704101562 -0.0913085938 -0.704101562
vn 8.94069672E-07 -0.0154571533 -1
vn -7.15255737E-07 -0.0913085938 -0.995605469
vn -7.15255737E-07 -0.0913085938 -0.995605469
vn 8.94069672E-07 -0.0154571533 -1
vn -0.70703125 -0.0154571533 -0.70703125
vn -0.704101562 -0.0913085938 -0.704101562
vn -1 -0.0154571533 1.54972076E-06
vn -0.995605469 -0.0913085938 -4.76837158E-07
vn -0.70703125 -0.0154647827 0.70703125
vn -5.36441803E-07 0.0325317383 0.999511719
vn 8.34465027E-07 -0.0154571533 1
vn -0.706542969 0.0325317383 0.706542969
vn -1 -0.0154571533 1.54972076E-06
vn -0.999511719 0.0325012207 -1.78813934E-07
vn 8.34465027E-07 -0.0154571533 1
vn -5.36441803E-07 0.0325317383 0.999511719
vn 0.706542969 0.0325317383 0.706542969
vn 0.70703125 -0.0154647827 0.70703125
vn 0.999511719 0.0325012207 -2.38418579E-07
vn 1 -0.0154571533 1.49011612E-06
vn 1 -0.0154571533 1.49011612E-06
vn 0.999511719 0.0325012207 -2.38418579E-07
vn 0.706542969 0.0325012207 -0.706542969
vn 0.70703125 -0.0154571533 -0.70703125
vn 0.70703125 -0.0154571533 -0.70703125
vn 0.706542969 0.0325012207 -0.706542969
vn -5.96046448E-07 0.0325012207 -0.999511719
vn 8.94069672E-07 -0.0154571533 -1
vn -0.706542969 0.0324707031 -0.706542969
vn -0.70703125 -0.0154571533 -0.70703125
vn -0.70703125 -0.0154571533 -0.70703125
vn -0.706542969 0.0324707031 -0.706542969
vn -0.999511719 0.0325012207 -1.78813934E-07
vn -1 -0.0154571533 1.54972076E-06
vn -0.706542969 0.0325317383 0.706542969
vn 4.76837158E-07 -0.0141067505 1
vn -5.36441803E-07 0.0325317383 0.999511719
vn -0.70703125 -0.0141220093 0.70703125
vn -0.999511719 0.0325012207 -1.78813934E-07
vn -1 -0.0141296387 -1.78813934E-07
vn -5.36441803E-07 0.0325317383 0.999511719
vn 4.76837158E-07 -0.0141067505 1
vn 0.70703125 -0.0141067505 0.70703125
vn 0.706542969 0.0325317383 0.706542969
vn 1 -0.0141143799 -2.38418579E-07
vn 0.999511719 0.0325012207 -2.38418579E-07
vn 0.999511719 0.0325012207 -2.38418579E-07
vn 1 -0.0141143799 -2.38418579E-07
vn 0.70703125 -0.0141143799 -0.70703125
vn 0.706542969 0.0325012207 -0.706542969
vn 4.17232513E-07 -0.0141220093 -1
vn -5.96046448E-07 0.0325012207 -0.999511719
vn -5.96046448E-07 0.0325012207 -0.999511719
vn 4.17232513E-07 -0.0141220093 -1
vn -0.70703125 -0.0141296387 -0.70703125
vn -0.706542969 0.0324707031 -0.706542969
vn -1 -0.0141296387 -1.78813934E-07
vn -0.999511719 0.0325012207 -1.78813934E-07
vn -0.70703125 -0.0141220093 0.70703125
vn -0.444091797 -0.778320312 0.444091797
vn -2.38418579E-07 -0.778320312 0.627929688
vn 4.76837158E-07 -0.0141067505 1
vn 0.444091797 -0.778320312 0.444091797
vn 0.70703125 -0.0141067505 0.70703125
vn 0.627929688 -0.778320312 1.1920929E-07
vn 1 -0.0141143799 -2.38418579E-07
vn 1 -0.0141143799 -2.38418579E-07
vn 0.627929688 -0.778320312 1.1920929E-07
vn 0.444091797 -0.778320312 -0.444091797
vn 0.70703125 -0.0141143799 -0.70703125
vn -2.38418579E-07 -0.778320312 -0.627929688
vn 4.17232513E-07 -0.0141220093 -1
vn 4.17232513E-07 -0.0141220093 -1
vn -2.38418579E-07 -0.778320312 -0.627929688
vn -0.444091797 -0.778320312 -0.444091797
vn -0.70703125 -0.0141296387 -0.70703125
vn -0.627929688 -0.778320312 4.17232513E-07
vn -1 -0.0141296387 -1.78813934E-07
vn -1 -0.0141296387 -1.78813934E-07
vn -0.627929688 -0.778320312 4.17232513E-07
vn -0.444091797 -0.778320312 0.444091797
vn -0.70703125 -0.0141220093 0.70703125
vn -0.444091797 -0.778320312 0.444091797
vn 0.00732421875 -1 -0.0176849365
vn 0.00732421875 -1 -0.0176849365
vn -2.38418579E-07 -0.778320312 0.627929688
vn -2.38418579E-07 -0.778320312 0.627929688
vn -0.00732421875 -1 -0.0176849365
vn -0.00732421875 -1 -0.0176849365
vn 0.444091797 -0.778320312 0.444091797
vn 0.444091797 -0.778320312 0.444091797
vn -0.0176849365 -1 -0.00732421875
vn -0.0176849365 -1 -0.00732421875
vn 0.627929688 -0.778320312 1.1920929E-07
vn 0.627929688 -0.778320312 1.1920929E-07
vn -0.0176849365 -1 0.00732421875
vn -0.0176849365 -1 0.00732421875
vn 0.444091797 -0.778320312 -0.444091797
vn 0.444091797 -0.778320312 -0.444091797
vn -0.00732421875 -1 0.0176849365
vn -0.00732421875 -1 0.0176849365
vn -2.38418579E-07 -0.778320312 -0.627929688
vn -2.38418579E-07 -0.778320312 -0.627929688
vn 0.00732421875 -1 0.0176849365
vn 0.00732421875 -1 0.0176849365
vn -0.444091797 -0.778320312 -0.444091797
vn -0.444091797 -0.778320312 -0.444091797
vn 0.0176849365 -1 0.00732040405
vn 0.0176849365 -1 0.00732040405
vn -0.627929688 -0.778320312 4.17232513E-07
vn -0.627929688 -0.778320312 4.17232513E-07
vn 0.0176849365 -1 -0.00732040405
vn 0.0176849365 -1 -0.00732040405
vn -0.444091797 -0.778320312 0.444091797
vn -0.382568359 0 0.923828125
vn -0.655273438 0.375244141 0.655273438
vn -0 0.375244141 0.926757812
vn -0.382568359 0 0.923828125
vn 0.382568359 0 0.923828125
vn -0 0.375244141 0.926757812
vn 0.655273438 0.375244141 0.655273438
vn 0.382568359 0 0.923828125
vn 0.923828125 0 0.382568359
vn 0.655273438 0.375244141 0.655273438
vn 0.926757812 0.375244141 0
vn 0.923828125 0 0.382568359
vn 0.923828125 0 -0.382568359
vn 0.926757812 0.375244141 0
vn 0.655273438 0.375244141 -0.655273438
vn 0.923828125 0 -0.382568359
vn 0.382568359 0 -0.923828125
vn 0.655273438 0.375244141 -0.655273438
vn -0 0.375244141 -0.926757812
vn 0.382568359 0 -0.923828125
vn -0.382568359 0 -0.923828125
vn -0 0.375244141 -0.926757812
vn -0.655273438 0.375244141 -0.655273438
vn -0.382568359 0 -0.923828125
vn -0.923828125 0 -0.382568359
vn -0.655273438 0.375244141 -0.655273438
vn -0.926757812 0.375244141 0
vn -0.923828125 0 -0.382568359
vn -0.923828125 0 0.382568359
vn -0.926757812 0.375244141 0
vn -0.655273438 0.375244141 0.655273438
vn -0.923828125 0 0.382568359
vn -0.708984375 0.000224947929 -0.705566406
vn -0.657226562 0.369140625 -0.657226562
vn -0.9296875 0.368896484 0
vn -1 -0.00011318922 1.78813934E-07
vn -0.00160980225 0.000330686569 -1
vn 0.000240683556 0.369140625 -0.929199219
vn -0.657226562 0.369140625 -0.657226562
vn -0.708984375 0.000224947929 -0.705566406
vn 0.657714844 0.368652344 -0.657226562
vn 0.000240683556 0.369140625 -0.929199219
vn -0.00160980225 0.000330686569 -1
vn 0.706542969 -0.000348329544 -0.707519531
vn 1 -0.000454187393 -0.00252914429
vn 0.9296875 0.368652344 -0.000255823135
vn 0.706542969 -0.000386476517 0.707519531
vn 0.657226562 0.368652344 0.657226562
vn 0.9296875 0.368652344 -0.000255823135
vn 1 -0.000454187393 -0.00252914429
vn -0 -0.000658988953 1
vn 0.657226562 0.368652344 0.657226562
vn 0.706542969 -0.000386476517 0.707519531
vn -0 0.368408203 0.9296875
vn -0.706542969 -0.000386476517 0.707519531
vn -0.657226562 0.368652344 0.657226562
vn -1 -0.00011318922 1.78813934E-07
vn -0.9296875 0.368896484 0
vn -0.657226562 0.368652344 0.657226562
vn -0.706542969 -0.000386476517 0.707519531
vn 0.702636719 0.110473633 -0.702636719
vn -1.7285347E-06 -0.0563049316 -0.998535156
vn 2.32458115E-06 0.110473633 -0.993652344
vn 0.706054688 -0.0563049316 -0.706054688
vn 0.993652344 0.110473633 2.38418579E-07
vn 0.998535156 -0.0563049316 -7.74860382E-07
vn 0.702636719 0.110473633 0.702636719
vn 0.998535156 -0.0563049316 -7.74860382E-07
vn 0.993652344 0.110473633 2.38418579E-07
vn 0.706054688 -0.0563049316 0.706054688
vn 2.32458115E-06 0.110473633 0.993652344
vn -1.78813934E-06 -0.0563049316 0.998535156
vn -0.702636719 0.110473633 0.702636719
vn -1.78813934E-06 -0.0563049316 0.998535156
vn 2.32458115E-06 0.110473633 0.993652344
vn -0.706054688 -0.0563354492 0.706054688
vn -0.993652344 0.110473633 2.38418579E-07
vn -0.998535156 -0.0563354492 -7.15255737E-07
vn -0.702636719 0.110473633 -0.702636719
vn -0.998535156 -0.0563354492 -7.15255737E-07
vn -0.993652344 0.110473633 2.38418579E-07
vn -0.706054688 -0.0563354492 -0.706054688
vn 2.32458115E-06 0.110473633 -0.993652344
vn -1.7285347E-06 -0.0563049316 -0.998535156
vn 0.502929688 0.702636719 -0.503417969
vn 2.32458115E-06 0.110473633 -0.993652344
vn -1.25169754E-06 0.702636719 -0.711425781
vn 0.702636719 0.110473633 -0.702636719
vn 0.711425781 0.702636719 -1.78813934E-07
vn 0.993652344 0.110473633 2.38418579E-07
vn 0.502929688 0.702636719 0.503417969
vn 0.993652344 0.110473633 2.38418579E-07
vn 0.711425781 0.702636719 -1.78813934E-07
vn 0.702636719 0.110473633 0.702636719
vn -1.25169754E-06 0.702636719 0.711425781
vn 2.32458115E-06 0.110473633 0.993652344
vn -0.502929688 0.702636719 0.502929688
vn 2.32458115E-06 0.110473633 0.993652344
vn -1.25169754E-06 0.702636719 0.711425781
vn -0.702636719 0.110473633 0.702636719
vn -0.711425781 0.702636719 -1.78813934E-07
vn -0.993652344 0.110473633 2.38418579E-07
vn -0.502929688 0.702636719 -0.502929688
vn -0.993652344 0.110473633 2.38418579E-07
vn -0.711425781 0.702636719 -1.78813934E-07
vn -0.702636719 0.110473633 -0.702636719
vn -1.25169754E-06 0.702636719 -0.711425781
vn 2.32458115E-06 0.110473633 -0.993652344
vn -0.655273438 0.375244141 -0.655273438
vn -0.471435547 0.881835938 -1.1920929E-07
vn -0.926757812 0.375244141 0
vn -0.333496094 0.881835938 -0.333496094
vn -0 1 8.34465027E-07
vn -0 0.375244141 -0.926757812
vn -0.333496094 0.881835938 0.333496094
vn -0.655273438 0.375244141 0.655273438
vn 1.1920929E-07 0.881835938 -0.471435547
vn 0.655273438 0.375244141 -0.655273438
vn 1.1920929E-07 0.881835938 0.471435547
vn -0 0.375244141 0.926757812
vn 0.333496094 0.881835938 -0.333496094
vn 0.926757812 0.375244141 0
vn 0.333496094 0.881835938 0.333496094
vn 0.655273438 0.375244141 0.655273438
vn 0.471435547 0.881835938 -1.78813934E-07
g DamRound_ElectricPost_2_0
f 3/3/3 2/2/2 1/1/1
f 2/2/2 4/4/4 1/1/1
f 1/1/1 4/4/4 5/5/5
f 4/4/4 6/6/6 5/5/5
f 9/9/9 8/8/8 7/7/7
f 10/10/10 9/9/9 7/7/7
f 11/11/11 9/9/9 10/10/10
f 12/12/12 11/11/11 10/10/10
f 15/15/15 14/14/14 13/13/13
f 16/16/16 15/15/15 13/13/13
f 17/17/17 15/15/15 16/16/16
f 18/18/18 17/17/17 16/16/16
f 21/21/21 20/20/20 19/19/19
f 22/22/22 21/21/21 19/19/19
f 23/23/23 21/21/21 22/22/22
f 24/24/24 23/23/23 22/22/22
f 27/27/27 26/26/26 25/25/25
f 28/28/28 27/27/27 25/25/25
f 29/29/29 27/27/27 28/28/28
f 30/30/30 29/29/29 28/28/28
f 33/33/33 32/32/32 31/31/31
f 34/34/34 33/33/33 31/31/31
f 37/37/37 36/36/36 35/35/35
f 38/38/38 37/37/37 35/35/35
f 41/41/41 40/40/40 39/39/39
f 42/42/42 41/41/41 39/39/39
f 45/45/45 44/44/44 43/43/43
f 46/46/46 45/45/45 43/43/43
f 46/46/46 43/43/43 47/47/47
f 43/43/43 48/48/48 47/47/47
f 51/51/51 50/50/50 49/49/49
f 52/52/52 51/51/51 49/49/49
f 55/55/55 54/54/54 53/53/53
f 56/56/56 55/55/55 53/53/53
f 57/57/57 55/55/55 56/56/56
f 58/58/58 57/57/57 56/56/56
f 59/59/59 57/57/57 58/58/58
f 60/60/60 59/59/59 58/58/58
f 61/61/61 59/59/59 60/60/60
f 62/62/62 61/61/61 60/60/60
f 65/65/65 64/64/64 63/63/63
f 64/64/64 66/66/66 63/63/63
f 63/63/63 66/66/66 67/67/67
f 66/66/66 68/68/68 67/67/67
f 67/67/67 68/68/68 69/69/69
f 68/68/68 70/70/70 69/69/69
f 69/69/69 70/70/70 71/71/71
f 70/70/70 72/72/72 71/71/71
f 75/75/75 74/74/74 73/73/73
f 74/74/74 76/76/76 73/73/73
f 73/73/73 76/76/76 77/77/77
f 76/76/76 78/78/78 77/77/77
f 77/77/77 78/78/78 79/79/79
f 78/78/78 80/80/80 79/79/79
f 79/79/79 80/80/80 81/81/81
f 80/80/80 82/82/82 81/81/81
f 85/85/85 84/84/84 83/83/83
f 86/86/86 85/85/85 83/83/83
f 87/87/87 85/85/85 86/86/86
f 88/88/88 87/87/87 86/86/86
f 89/89/89 87/87/87 88/88/88
f 90/90/90 89/89/89 88/88/88
f 91/91/91 89/89/89 90/90/90
f 92/92/92 91/91/91 90/90/90
f 95/95/95 94/94/94 93/93/93
f 96/96/96 95/95/95 93/93/93
f 97/97/97 95/95/95 96/96/96
f 98/98/98 97/97/97 96/96/96
f 101/101/101 100/100/100 99/99/99
f 102/102/102 101/101/101 99/99/99
f 105/105/105 104/104/104 103/103/103
f 106/106/106 105/105/105 103/103/103
f 107/107/107 105/105/105 106/106/106
f 108/108/108 107/107/107 106/106/106
f 111/111/111 110/110/110 109/109/109
f 112/112/112 111/111/111 109/109/109
f 113/113/113 111/111/111 112/112/112
f 114/114/114 113/113/113 112/112/112
f 117/117/117 116/116/116 115/115/115
f 118/118/118 117/117/117 115/115/115
f 121/121/121 120/120/120 119/119/119
f 122/122/122 121/121/121 119/119/119
f 125/125/125 124/124/124 123/123/123
f 126/126/126 125/125/125 123/123/123
f 127/127/127 125/125/125 126/126/126
f 128/128/128 127/127/127 126/126/126
f 131/131/131 130/130/130 129/129/129
f 132/132/132 131/131/131 129/129/129
f 133/133/133 131/131/131 132/132/132
f 134/134/134 133/133/133 132/132/132
f 137/137/137 136/136/136 135/135/135
f 138/138/138 137/137/137 135/135/135
f 141/141/141 140/140/140 139/139/139
f 142/142/142 141/141/141 139/139/139
f 145/145/145 144/144/144 143/143/143
f 146/146/146 145/145/145 143/143/143
f 149/149/149 148/148/148 147/147/147
f 148/148/148 150/150/150 147/147/147
f 147/147/147 150/150/150 151/151/151
f 150/150/150 152/152/152 151/151/151
f 151/151/151 152/152/152 153/153/153
f 152/152/152 154/154/154 153/153/153
f 157/157/157 156/156/156 155/155/155
f 158/158/158 157/157/157 155/155/155
f 161/161/161 160/160/160 159/159/159
f 162/162/162 161/161/161 159/159/159
f 163/163/163 161/161/161 162/162/162
f 164/164/164 163/163/163 162/162/162
f 167/167/167 166/166/166 165/165/165
f 168/168/168 167/167/167 165/165/165
f 169/169/169 167/167/167 168/168/168
f 170/170/170 169/169/169 168/168/168
f 173/173/173 172/172/172 171/171/171
f 172/172/172 174/174/174 171/171/171
f 171/171/171 174/174/174 175/175/175
f 174/174/174 176/176/176 175/175/175
f 179/179/179 178/178/178 177/177/177
f 180/180/180 179/179/179 177/177/177
f 181/181/181 179/179/179 180/180/180
f 182/182/182 181/181/181 180/180/180
f 185/185/185 184/184/184 183/183/183
f 186/186/186 185/185/185 183/183/183
f 189/189/189 188/188/188 187/187/187
f 190/190/190 189/189/189 187/187/187
f 191/191/191 189/189/189 190/190/190
f 192/192/192 191/191/191 190/190/190
f 195/195/195 194/194/194 193/193/193
f 196/196/196 195/195/195 193/193/193
f 199/199/199 198/198/198 197/197/197
f 198/198/198 200/200/200 197/197/197
f 197/197/197 200/200/200 201/201/201
f 200/200/200 202/202/202 201/201/201
f 205/205/205 204/204/204 203/203/203
f 206/206/206 205/205/205 203/203/203
f 207/207/207 205/205/205 206/206/206
f 208/208/208 207/207/207 206/206/206
f 211/211/211 210/210/210 209/209/209
f 212/212/212 211/211/211 209/209/209
f 213/213/213 211/211/211 212/212/212
f 214/214/214 213/213/213 212/212/212
f 217/217/217 216/216/216 215/215/215
f 218/218/218 217/217/217 215/215/215
f 219/219/219 217/217/217 218/218/218
f 220/220/220 219/219/219 218/218/218
f 223/223/223 222/222/222 221/221/221
f 224/224/224 223/223/223 221/221/221
f 225/225/225 223/223/223 224/224/224
f 226/226/226 225/225/225 224/224/224
f 227/227/227 225/225/225 226/226/226
f 228/228/228 227/227/227 226/226/226
f 231/231/231 230/230/230 229/229/229
f 232/232/232 231/231/231 229/229/229
f 233/233/233 231/231/231 232/232/232
f 234/234/234 233/233/233 232/232/232
f 237/237/237 236/236/236 235/235/235
f 238/238/238 237/237/237 235/235/235
f 239/239/239 237/237/237 238/238/238
f 240/240/240 239/239/239 238/238/238
f 243/243/243 242/242/242 241/241/241
f 244/244/244 243/243/243 241/241/241
f 247/247/247 246/246/246 245/245/245
f 248/248/248 247/247/247 245/245/245
f 251/251/251 250/250/250 249/249/249
f 252/252/252 251/251/251 249/249/249
f 255/255/255 254/254/254 253/253/253
f 256/256/256 255/255/255 253/253/253
f 259/259/259 258/258/258 257/257/257
f 260/260/260 259/259/259 257/257/257
f 263/263/263 262/262/262 261/261/261
f 264/264/264 263/263/263 261/261/261
f 267/267/267 266/266/266 265/265/265
f 268/268/268 267/267/267 265/265/265
f 271/271/271 270/270/270 269/269/269
f 272/272/272 271/271/271 269/269/269
f 275/275/275 274/274/274 273/273/273
f 276/276/276 275/275/275 273/273/273
f 279/279/279 278/278/278 277/277/277
f 280/280/280 279/279/279 277/277/277
f 283/283/283 282/282/282 281/281/281
f 284/284/284 283/283/283 281/281/281
f 287/287/287 286/286/286 285/285/285
f 288/288/288 287/287/287 285/285/285
f 291/291/291 290/290/290 289/289/289
f 292/292/292 291/291/291 289/289/289
f 295/295/295 294/294/294 293/293/293
f 296/296/296 295/295/295 293/293/293
f 299/299/299 298/298/298 297/297/297
f 300/300/300 299/299/299 297/297/297
f 303/303/303 302/302/302 301/301/301
f 304/304/304 303/303/303 301/301/301
f 307/307/307 306/306/306 305/305/305
f 308/308/308 307/307/307 305/305/305
f 311/311/311 310/310/310 309/309/309
f 312/312/312 311/311/311 309/309/309
f 315/315/315 314/314/314 313/313/313
f 316/316/316 315/315/315 313/313/313
f 319/319/319 318/318/318 317/317/317
f 320/320/320 319/319/319 317/317/317
f 320/320/320 317/317/317 321/321/321
f 317/317/317 322/322/322 321/321/321
f 325/325/325 324/324/324 323/323/323
f 326/326/326 325/325/325 323/323/323
f 329/329/329 328/328/328 327/327/327
f 328/328/328 330/330/330 327/327/327
f 327/327/327 330/330/330 331/331/331
f 330/330/330 332/332/332 331/331/331
f 335/335/335 334/334/334 333/333/333
f 336/336/336 335/335/335 333/333/333
f 339/339/339 338/338/338 337/337/337
f 338/338/338 340/340/340 337/337/337
f 337/337/337 340/340/340 341/341/341
f 340/340/340 342/342/342 341/341/341
f 345/345/345 344/344/344 343/343/343
f 344/344/344 346/346/346 343/343/343
f 343/343/343 346/346/346 347/347/347
f 346/346/346 348/348/348 347/347/347
f 351/351/351 350/350/350 349/349/349
f 350/350/350 352/352/352 349/349/349
f 349/349/349 352/352/352 353/353/353
f 352/352/352 354/354/354 353/353/353
f 357/357/357 356/356/356 355/355/355
f 356/356/356 358/358/358 355/355/355
f 355/355/355 358/358/358 359/359/359
f 358/358/358 360/360/360 359/359/359
f 363/363/363 362/362/362 361/361/361
f 362/362/362 364/364/364 361/361/361
f 361/361/361 364/364/364 365/365/365
f 364/364/364 366/366/366 365/365/365
f 369/369/369 368/368/368 367/367/367
f 368/368/368 370/370/370 367/367/367
f 367/367/367 370/370/370 371/371/371
f 370/370/370 372/372/372 371/371/371
f 375/375/375 374/374/374 373/373/373
f 374/374/374 376/376/376 373/373/373
f 373/373/373 376/376/376 377/377/377
f 376/376/376 378/378/378 377/377/377
f 381/381/381 380/380/380 379/379/379
f 380/380/380 382/382/382 379/379/379
f 379/379/379 382/382/382 383/383/383
f 382/382/382 384/384/384 383/383/383
f 387/387/387 386/386/386 385/385/385
f 386/386/386 388/388/388 385/385/385
f 386/386/386 389/389/389 388/388/388
f 385/385/385 388/388/388 390/390/390
f 391/391/391 386/386/386 387/387/387
f 391/391/391 389/389/389 386/386/386
f 392/392/392 391/391/391 387/387/387
f 388/388/388 393/393/393 390/390/390
f 388/388/388 389/389/389 393/393/393
f 390/390/390 393/393/393 394/394/394
f 395/395/395 391/391/391 392/392/392
f 395/395/395 389/389/389 391/391/391
f 396/396/396 395/395/395 392/392/392
f 393/393/393 397/397/397 394/394/394
f 393/393/393 389/389/389 397/397/397
f 394/394/394 397/397/397 398/398/398
f 399/399/399 395/395/395 396/396/396
f 399/399/399 389/389/389 395/395/395
f 400/400/400 399/399/399 396/396/396
f 398/398/398 401/401/401 400/400/400
f 397/397/397 401/401/401 398/398/398
f 397/397/397 389/389/389 401/401/401
f 401/401/401 399/399/399 400/400/400
f 401/401/401 389/389/389 399/399/399
