g Enclosure_Cloth_18
v -0.725954592 -0.36591205 0.0117346188
v -0.772853971 -0.480923325 0.0117346188
v -1.0094384 -0.266804546 0.0117346188
v -1.00874996 -0.261221647 -0.0117321778
v -0.772358358 -0.47589007 -0.0117321778
v -0.724433601 -0.361428261 -0.0117321778
v -0.618076146 -0.596446157 0.0117346188
v -0.677783191 -0.644925535 0.0117346188
v -0.725954592 -0.36591205 0.0117346188
v -0.724433601 -0.361428261 -0.0117321778
v -0.677021444 -0.644925535 -0.0117321778
v -0.618071258 -0.592914462 -0.0117321778
v -1.70991695 0.0629551336 0.0117346188
v -1.70991695 1.01228595 0.0117346188
v -0.999770463 0.974657416 0.0117346188
v -1.00687015 0.0629551336 0.0117346188
v -0.047895506 0.0629551336 0.0117346188
v -0.0479003899 0.924221039 0.0117346188
v 1.70991695 0.0629551336 0.0117346188
v 1.70991695 1.01228595 0.0117346188
v -0.0479003899 -0.975409806 0.0117346188
v 1.70991695 -0.975409806 0.0117346188
v -0.634592295 -0.872020066 0.0117346188
v -0.604755819 -1.01228595 0.0117346188
v -0.618076146 -0.596446157 0.0117346188
v -0.725954592 -0.36591205 0.0117346188
v -1.0094384 -0.266804546 0.0117346188
v -1.14748538 -0.225387156 0.0117346188
v -1.30443597 -0.332554817 0.0117346188
v -1.43416989 -0.588522673 0.0117346188
v -1.70991695 -0.975409806 0.0117346188
v -1.42514157 -0.878821373 0.0117346188
v -1.46056151 -1.00609374 0.0117346188
v -1.70991695 1.01228595 0.0117346188
v -1.70991695 1.01228595 -0.0117321778
v -1.0227685 0.975876272 -0.0117346188
v -0.999770463 0.974657416 0.0117346188
v -0.0479003899 0.924221039 0.0117346188
v -0.0479003899 0.924221039 -0.0117321778
v 1.70991695 1.01228595 0.0117346188
v 1.70991695 1.01228595 -0.0117321778
v -1.70991695 -0.975409806 -0.0117321778
v -1.70991695 -0.975409806 0.0117346188
v -1.46056151 -1.00609374 0.0117346188
v -1.46008539 -1.00609374 -0.0117321778
v 1.70991695 0.0629551336 0.0117346188
v 1.70991695 1.01228595 0.0117346188
v 1.70991695 1.01228595 -0.0117321778
v 1.70991695 0.0629551336 -0.0117321778
v 1.70991695 -0.975409806 0.0117346188
v 1.70991695 -0.975409806 -0.0117321778
v -1.70991695 0.0629551336 -0.0117321778
v -1.70991695 1.01228595 -0.0117321778
v -1.70991695 1.01228595 0.0117346188
v -1.70991695 0.0629551336 0.0117346188
v -1.70991695 -0.975409806 -0.0117321778
v -1.70991695 -0.975409806 0.0117346188
v -0.0479003899 -0.975409806 0.0117346188
v 1.70991695 -0.975409806 0.0117346188
v 1.70991695 -0.975409806 -0.0117321778
v -0.0479003899 -0.975409806 -0.0117321778
v -0.604755819 -1.01228595 0.0117346188
v -0.605637193 -1.01228595 -0.0117321778
v -0.0479003899 0.924221039 -0.0117321778
v 1.70991695 0.0629551336 -0.0117321778
v 1.70991695 1.01228595 -0.0117321778
v -0.0479003899 0.0629543662 -0.0117321778
v 1.70991695 -0.975409806 -0.0117321778
v -0.0479003899 -0.975409806 -0.0117321778
v -1.01700675 0.0629548281 -0.0117321778
v -1.0227685 0.975876272 -0.0117346188
v -1.70991695 0.0629551336 -0.0117321778
v -1.70991695 1.01228595 -0.0117321778
v -0.618071258 -0.592914462 -0.0117321778
v -0.635505378 -0.873920441 -0.0117321778
v -0.605637193 -1.01228595 -0.0117321778
v -0.724433601 -0.361428261 -0.0117321778
v -1.00874996 -0.261221647 -0.0117321778
v -1.15375483 -0.22254993 -0.0117321778
v -1.30538332 -0.329780757 -0.0117321778
v -1.43909669 -0.582769811 -0.0117321778
v -1.42577875 -0.881440878 -0.0117321778
v -1.70991695 -0.975409806 -0.0117321778
v -1.46008539 -1.00609374 -0.0117321778
v -1.42577875 -0.881440878 -0.0117321778
v -1.46008539 -1.00609374 -0.0117321778
v -1.46056151 -1.00609374 0.0117346188
v -1.42514157 -0.878821373 0.0117346188
v -1.43416989 -0.588522673 0.0117346188
v -1.43909669 -0.582769811 -0.0117321778
v -1.30443597 -0.332554817 0.0117346188
v -1.30538332 -0.329780757 -0.0117321778
v -1.43909669 -0.582769811 -0.0117321778
v -1.43416989 -0.588522673 0.0117346188
v -0.635505378 -0.873920441 -0.0117321778
v -0.618071258 -0.592914462 -0.0117321778
v -0.618076146 -0.596446157 0.0117346188
v -0.634592295 -0.872020066 0.0117346188
v -0.604755819 -1.01228595 0.0117346188
v -0.605637193 -1.01228595 -0.0117321778
v -1.0094384 -0.266804546 0.0117346188
v -0.772853971 -0.480923325 0.0117346188
v -0.772358358 -0.47589007 -0.0117321778
v -1.00874996 -0.261221647 -0.0117321778
v -0.724433601 -0.361428261 -0.0117321778
v -0.772358358 -0.47589007 -0.0117321778
v -0.772853971 -0.480923325 0.0117346188
v -0.725954592 -0.36591205 0.0117346188
v -1.13360107 -0.259308189 0.0117346188
v -1.28032219 -0.402853131 0.0117346188
v -1.30443597 -0.332554817 0.0117346188
v -1.14748538 -0.225387156 0.0117346188
v -1.0094384 -0.266804546 0.0117346188
v -1.30443597 -0.332554817 0.0117346188
v -1.28032219 -0.402853131 0.0117346188
v -1.28044915 -0.398674637 -0.0117321778
v -1.30538332 -0.329780757 -0.0117321778
v -1.30538332 -0.329780757 -0.0117321778
v -1.28044915 -0.398674637 -0.0117321778
v -1.14361084 -0.268210173 -0.0117321778
v -1.15375483 -0.22254993 -0.0117321778
v -1.00874996 -0.261221647 -0.0117321778
v -1.14361084 -0.268210173 -0.0117321778
v -1.28044915 -0.398674637 -0.0117321778
v -1.28032219 -0.402853131 0.0117346188
v -1.13360107 -0.259308189 0.0117346188
v -1.00874996 -0.261221647 -0.0117321778
v -1.0094384 -0.266804546 0.0117346188
v -0.725954592 -0.36591205 0.0117346188
v -0.677783191 -0.644925535 0.0117346188
v -0.677021444 -0.644925535 -0.0117321778
v -0.724433601 -0.361428261 -0.0117321778
v -0.618071258 -0.592914462 -0.0117321778
v -0.677021444 -0.644925535 -0.0117321778
v -0.677783191 -0.644925535 0.0117346188
v -0.618076146 -0.596446157 0.0117346188
vt 0.517578125 0.649414062
vt 0.530273438 0.624511719
vt 0.575683594 0.66796875
vt 0.575195312 0.668945312
vt 0.528808594 0.624023438
vt 0.515625 0.649414062
vt 0.497802734 0.599609375
vt 0.51171875 0.590332031
vt 0.517578125 0.649414062
vt 0.515625 0.649414062
vt 0.510253906 0.588378906
vt 0.49609375 0.598632812
vt 0.720214844 0.749023438
vt 0.720214844 0.987304688
vt 0.572265625 0.987304688
vt 0.573730469 0.749023438
vt 0.374267578 0.749023438
vt 0.374267578 0.987304688
vt 0.00856781006 0.749023438
vt 0.00856781006 0.987304688
vt 0.374267578 0.488525391
vt 0.00856781006 0.488525391
vt 0.496337891 0.514648438
vt 0.497802734 0.488525391
vt 0.492919922 0.583496094
vt 0.515625 0.646484375
vt 0.57421875 0.666503906
vt 0.603027344 0.658691406
vt 0.635742188 0.649902344
vt 0.662597656 0.585449219
vt 0.720214844 0.488525391
vt 0.661132812 0.512695312
vt 0.66015625 0.488525391
vt 0.718261719 0.977539062
vt 0.718261719 0.969726562
vt 0.576171875 0.969726562
vt 0.571289062 0.977539062
vt 0.374023438 0.977539062
vt 0.374023438 0.969726562
vt 0.0100479126 0.977539062
vt 0.0100479126 0.969726562
vt 0.718261719 0.963867188
vt 0.718261719 0.956542969
vt 0.658691406 0.956542969
vt 0.658203125 0.963867188
vt 0.714355469 0.709472656
vt 0.714355469 0.519042969
vt 0.706542969 0.519042969
vt 0.706542969 0.709472656
vt 0.714355469 0.91796875
vt 0.706542969 0.91796875
vt 0.699707031 0.709472656
vt 0.699707031 0.519042969
vt 0.692382812 0.519042969
vt 0.692382812 0.709472656
vt 0.699707031 0.91796875
vt 0.692382812 0.91796875
vt 0.374023438 0.956542969
vt 0.0100479126 0.956542969
vt 0.0100479126 0.963867188
vt 0.374023438 0.963867188
vt 0.496826172 0.956542969
vt 0.497314453 0.963867188
vt 0.374267578 0.987304688
vt 0.00856781006 0.749023438
vt 0.00856781006 0.987304688
vt 0.374267578 0.749023438
vt 0.00856781006 0.488525391
vt 0.374267578 0.488525391
vt 0.576171875 0.749023438
vt 0.577148438 0.987304688
vt 0.720214844 0.749023438
vt 0.720214844 0.987304688
vt 0.492919922 0.585449219
vt 0.496826172 0.514160156
vt 0.498046875 0.488525391
vt 0.514648438 0.648925781
vt 0.57421875 0.668945312
vt 0.604492188 0.66015625
vt 0.636230469 0.651367188
vt 0.665039062 0.588378906
vt 0.661132812 0.512207031
vt 0.720214844 0.488525391
vt 0.66015625 0.488525391
vt 0.284423828 0.647460938
vt 0.284423828 0.606445312
vt 0.274169922 0.606445312
vt 0.274169922 0.6484375
vt 0.274169922 0.773925781
vt 0.284423828 0.776367188
vt 0.274169922 0.884765625
vt 0.284423828 0.886230469
vt 0.284423828 0.776367188
vt 0.274169922 0.773925781
vt 0.285888672 0.650390625
vt 0.285888672 0.771972656
vt 0.296142578 0.770507812
vt 0.296142578 0.651367188
vt 0.296142578 0.606445312
vt 0.285888672 0.606445312
vt 0.363037109 0.863769531
vt 0.363037109 0.795410156
vt 0.355224609 0.794921875
vt 0.355224609 0.863769531
vt 0.371826172 0.833496094
vt 0.371826172 0.796875
vt 0.364013672 0.794921875
vt 0.364013672 0.831542969
vt 0.599609375 0.652832031
vt 0.629394531 0.633300781
vt 0.635253906 0.648925781
vt 0.603027344 0.660644531
vt 0.575683594 0.66796875
vt 0.308349609 0.857421875
vt 0.308349609 0.793945312
vt 0.298095703 0.793945312
vt 0.298095703 0.857910156
vt 0.63671875 0.648925781
vt 0.630371094 0.633300781
vt 0.602539062 0.650390625
vt 0.604980469 0.661132812
vt 0.575195312 0.668945312
vt 0.298095703 0.773925781
vt 0.298095703 0.793945312
vt 0.308349609 0.793945312
vt 0.308349609 0.76953125
vt 0.298095703 0.729492188
vt 0.308349609 0.729980469
vt 0.296142578 0.879394531
vt 0.296142578 0.824707031
vt 0.285888672 0.826660156
vt 0.285888672 0.881347656
vt 0.285888672 0.771972656
vt 0.285888672 0.826660156
vt 0.296142578 0.824707031
vt 0.296142578 0.770507812
vn -1.04904175E-05 0 1
vn -1.04904175E-05 0 1
vn -1.04904175E-05 0 1
vn -0 0 -1
vn -0 0 -1
vn -0 0 -1
vn -1.03116035E-05 0 1
vn -1.03116035E-05 0 1
vn -1.03116035E-05 0 1
vn -0 0 -1
vn -0 0 -1
vn -0 0 -1
vn -0 0 1
vn -0 0 1
vn 2.38418579E-07 0 1
vn 3.57627869E-07 0 1
vn -0 0 1
vn 2.98023224E-07 0 1
vn 1.78813934E-07 0 1
vn 1.78813934E-07 0 1
vn -0 0 1
vn -0 0 1
vn -4.17232513E-06 0 1
vn -4.94718552E-06 0 1
vn -2.8014183E-06 0 1
vn 1.78813934E-06 0 1
vn -0 0 1
vn 2.32458115E-06 0 1
vn -1.84774399E-06 0 1
vn -1.1920929E-06 0 1
vn 3.57627869E-07 0 1
vn 5.36441803E-07 0 1
vn 1.1920929E-05 0 1
vn 0.0529174805 0.998535156 1.1920929E-05
vn 0.0529174805 0.998535156 1.1920929E-05
vn 0.0529174805 0.998535156 1.08480453E-05
vn 0.0529174805 0.998535156 9.29832458E-06
vn -0.0136032104 1 3.03983688E-06
vn -0.0136032104 1 3.03983688E-06
vn -0.0500488281 0.998535156 0
vn -0.0500488281 0.998535156 0
vn -0.122009277 -0.992675781 -0.00123691559
vn -0.122009277 -0.992675781 -0.00123691559
vn -0.122009277 -0.992675781 -0.00123691559
vn -0.122009277 -0.992675781 -0.00123691559
vn 1 0 0
vn 1 0 0
vn 1 0 0
vn 1 0 0
vn 1 0 0
vn 1 0 0
vn -1 0 0
vn -1 0 0
vn -1 0 0
vn -1 0 0
vn -1 0 0
vn -1 0 0
vn 0.0159301758 -1 -0.000299215317
vn -0 -1 0
vn -0 -1 0
vn 0.0159301758 -1 -0.000299215317
vn 0.0660400391 -0.998046875 -0.00124073029
vn 0.0660400391 -0.998046875 -0.00124073029
vn -2.38418579E-07 -4.76837158E-07 -1
vn -4.76837158E-07 0 -1
vn -9.53674316E-07 0 -1
vn -1.1920929E-07 -2.38418579E-07 -1
vn -0 0 -1
vn -0 0 -1
vn 2.98023224E-07 -1.07288361E-06 -1
vn 5.36441803E-07 -1.37090683E-06 -1
vn -1.78813934E-07 -1.07288361E-06 -1
vn -2.38418579E-07 -1.31130219E-06 -1
vn 8.34465027E-07 0 -1
vn -0 0 -1
vn 1.25169754E-06 0 -1
vn 1.1920929E-06 0 -1
vn -1.1920929E-06 0 -1
vn -6.55651093E-07 0 -1
vn -0 0 -1
vn -0 0 -1
vn -0 0 -1
vn -0 0 -1
vn -0 0 -1
vn 0.995117188 -0.0656738281 -0.0733642578
vn 0.963867188 -0.266845703 0.0115814209
vn 0.963867188 -0.266845703 0.0115814209
vn 0.995605469 -0.0469360352 -0.0810546875
vn 0.992675781 0.0376586914 -0.11517334
vn 0.992675781 0.0376586914 -0.11517334
vn 0.871582031 -0.451171875 -0.191040039
vn 0.871582031 -0.451171875 -0.191040039
vn 0.871582031 -0.451171875 -0.191040039
vn 0.871582031 -0.451171875 -0.191040039
vn -0.999023438 -0.0369262695 0.0304870605
vn -0.998046875 0.0608520508 0.0214233398
vn -0.998046875 0.0608520508 0.0214233398
vn -0.999023438 -0.0249481201 0.0293884277
vn -0.9765625 -0.209350586 0.0458068848
vn -0.9765625 -0.209350586 0.0458068848
vn -0.660644531 -0.728515625 -0.181518555
vn -0.660644531 -0.728515625 -0.181518555
vn -0.660644531 -0.728515625 -0.181518555
vn -0.660644531 -0.728515625 -0.181518555
vn 0.923339844 -0.381591797 -0.037689209
vn 0.923339844 -0.381591797 -0.037689209
vn 0.923339844 -0.381591797 -0.037689209
vn 0.923339844 -0.381591797 -0.037689209
vn -3.03983688E-06 0 1
vn -0 0 1
vn -0 0 1
vn -2.08616257E-06 0 1
vn -1.78217888E-05 0 1
vn -0.942871094 -0.332275391 -0.027633667
vn -0.942871094 -0.332275391 -0.027633667
vn -0.942871094 -0.332275391 -0.027633667
vn -0.942871094 -0.332275391 -0.027633667
vn 9.41753387E-06 0 -1
vn 9.41753387E-06 0 -1
vn 5.24520874E-06 0 -1
vn 4.82797623E-06 0 -1
vn -1.1742115E-05 0 -1
vn 0.537597656 -0.842285156 -0.039855957
vn 0.692871094 -0.716796875 -0.0774536133
vn 0.692871094 -0.716796875 -0.0774536133
vn 0.338867188 -0.940917969 0.0038394928
vn -0.00195884705 -0.997558594 0.0709228516
vn -0.00195884705 -0.997558594 0.0709228516
vn -0.983886719 -0.167236328 -0.0638427734
vn -0.983886719 -0.167236328 -0.0638427734
vn -0.983886719 -0.167236328 -0.0638427734
vn -0.983886719 -0.167236328 -0.0638427734
vn 0.645507812 -0.762207031 -0.0468139648
vn 0.645507812 -0.762207031 -0.0468139648
vn 0.645507812 -0.762207031 -0.0468139648
vn 0.645507812 -0.762207031 -0.0468139648
g Enclosure_Cloth_18_0
f 3/3/3 2/2/2 1/1/1
f 6/6/6 5/5/5 4/4/4
f 9/9/9 8/8/8 7/7/7
f 12/12/12 11/11/11 10/10/10
f 15/15/15 14/14/14 13/13/13
f 16/16/16 15/15/15 13/13/13
f 16/16/16 17/17/17 15/15/15
f 17/17/17 18/18/18 15/15/15
f 17/17/17 19/19/19 18/18/18
f 19/19/19 20/20/20 18/18/18
f 17/17/17 21/21/21 19/19/19
f 21/21/21 22/22/22 19/19/19
f 23/23/23 21/21/21 17/17/17
f 23/23/23 24/24/24 21/21/21
f 25/25/25 23/23/23 17/17/17
f 26/26/26 25/25/25 17/17/17
f 26/26/26 17/17/17 16/16/16
f 27/27/27 26/26/26 16/16/16
f 28/28/28 27/27/27 16/16/16
f 28/28/28 16/16/16 13/13/13
f 29/29/29 28/28/28 13/13/13
f 30/30/30 29/29/29 13/13/13
f 30/30/30 13/13/13 31/31/31
f 32/32/32 30/30/30 31/31/31
f 33/33/33 32/32/32 31/31/31
f 36/36/36 35/35/35 34/34/34
f 37/37/37 36/36/36 34/34/34
f 37/37/37 38/38/38 36/36/36
f 38/38/38 39/39/39 36/36/36
f 38/38/38 40/40/40 39/39/39
f 40/40/40 41/41/41 39/39/39
f 44/44/44 43/43/43 42/42/42
f 45/45/45 44/44/44 42/42/42
f 48/48/48 47/47/47 46/46/46
f 49/49/49 48/48/48 46/46/46
f 49/49/49 46/46/46 50/50/50
f 51/51/51 49/49/49 50/50/50
f 54/54/54 53/53/53 52/52/52
f 55/55/55 54/54/54 52/52/52
f 55/55/55 52/52/52 56/56/56
f 57/57/57 55/55/55 56/56/56
f 60/60/60 59/59/59 58/58/58
f 61/61/61 60/60/60 58/58/58
f 61/61/61 58/58/58 62/62/62
f 63/63/63 61/61/61 62/62/62
f 66/66/66 65/65/65 64/64/64
f 65/65/65 67/67/67 64/64/64
f 65/65/65 68/68/68 67/67/67
f 68/68/68 69/69/69 67/67/67
f 67/67/67 70/70/70 64/64/64
f 70/70/70 71/71/71 64/64/64
f 70/70/70 72/72/72 71/71/71
f 72/72/72 73/73/73 71/71/71
f 74/74/74 67/67/67 69/69/69
f 75/75/75 74/74/74 69/69/69
f 75/75/75 69/69/69 76/76/76
f 74/74/74 77/77/77 67/67/67
f 67/67/67 77/77/77 78/78/78
f 70/70/70 67/67/67 78/78/78
f 70/70/70 78/78/78 79/79/79
f 70/70/70 79/79/79 72/72/72
f 79/79/79 80/80/80 72/72/72
f 80/80/80 81/81/81 72/72/72
f 81/81/81 82/82/82 72/72/72
f 82/82/82 83/83/83 72/72/72
f 82/82/82 84/84/84 83/83/83
f 87/87/87 86/86/86 85/85/85
f 88/88/88 87/87/87 85/85/85
f 88/88/88 85/85/85 89/89/89
f 85/85/85 90/90/90 89/89/89
f 93/93/93 92/92/92 91/91/91
f 94/94/94 93/93/93 91/91/91
f 97/97/97 96/96/96 95/95/95
f 98/98/98 97/97/97 95/95/95
f 98/98/98 95/95/95 99/99/99
f 95/95/95 100/100/100 99/99/99
f 103/103/103 102/102/102 101/101/101
f 104/104/104 103/103/103 101/101/101
f 107/107/107 106/106/106 105/105/105
f 108/108/108 107/107/107 105/105/105
f 111/111/111 110/110/110 109/109/109
f 112/112/112 111/111/111 109/109/109
f 112/112/112 109/109/109 113/113/113
f 116/116/116 115/115/115 114/114/114
f 117/117/117 116/116/116 114/114/114
f 120/120/120 119/119/119 118/118/118
f 121/121/121 120/120/120 118/118/118
f 121/121/121 122/122/122 120/120/120
f 125/125/125 124/124/124 123/123/123
f 126/126/126 125/125/125 123/123/123
f 126/126/126 123/123/123 127/127/127
f 128/128/128 126/126/126 127/127/127
f 131/131/131 130/130/130 129/129/129
f 132/132/132 131/131/131 129/129/129
f 135/135/135 134/134/134 133/133/133
f 136/136/136 135/135/135 133/133/133
