g Vallas3
v -4.28572102 1.24874117 0.0637923902
v -4.68948135 1.24874117 0.0637923902
v -4.68948135 1.24874117 0.0023506014
v -4.28572102 1.24874117 0.0023506014
v -4.13650525 1.20485418 0.0023506014
v -4.13650525 1.20485418 0.0637923902
v -4.03117647 1.090748 0.0023506014
v -4.03117647 1.090748 0.0637923902
v -4.03117647 1.090748 0.0637923902
v -4.03117647 1.090748 0.0023506014
v -3.98728948 0.932754832 0.0023506014
v -3.98728948 0.932754832 0.0637923902
v -4.98791289 0.932754832 0.0637923902
v -4.98791289 0.932754832 0.0023506014
v -4.9440259 1.090748 0.0023506014
v -4.9440259 1.090748 0.0637923902
v -4.83869712 1.20485418 0.0023506014
v -4.83869712 1.20485418 0.0637923902
v -4.68948135 1.24874117 0.0023506014
v -4.68948135 1.24874117 0.0637923902
v -4.98791289 0.932754832 0.0637923902
v -4.9440259 1.090748 0.0637923902
v -4.83869712 1.20485418 0.0637923902
v -4.68948135 1.24874117 0.0637923902
v -4.28572102 1.24874117 0.0637923902
v -3.98728948 0.932754832 0.0637923902
v -3.98728948 0.0023506014 0.0637923902
v -4.98791289 0.0023506014 0.0637923902
v -4.03117647 1.090748 0.0637923902
v -4.13650525 1.20485418 0.0637923902
v -4.28572102 1.24874117 0.0023506014
v -4.03117647 1.090748 0.0023506014
v -4.13650525 1.20485418 0.0023506014
v -3.98728948 0.932754832 0.0023506014
v -4.98791289 0.932754832 0.0023506014
v -4.68948135 1.24874117 0.0023506014
v -4.9440259 1.090748 0.0023506014
v -4.83869712 1.20485418 0.0023506014
v -3.98728948 0.0023506014 0.0023506014
v -4.98791289 0.0023506014 0.0023506014
v -2.99544346 0.0023506014 0.0023506014
v -2.99544346 0.932754832 0.0023506014
v -3.293875 1.24874117 0.0023506014
v -3.03055305 1.090748 0.0023506014
v -3.14465923 1.20485418 0.0023506014
v -3.68885793 1.24874117 0.0023506014
v -3.95217988 1.090748 0.0023506014
v -3.8380737 1.20485418 0.0023506014
v -3.293875 1.24874117 0.0637923902
v -3.14465923 1.20485418 0.0023506014
v -3.14465923 1.20485418 0.0637923902
v -3.293875 1.24874117 0.0023506014
v -3.68885793 1.24874117 0.0023506014
v -3.68885793 1.24874117 0.0637923902
v -3.8380737 1.20485418 0.0637923902
v -3.8380737 1.20485418 0.0023506014
v -3.95217988 1.090748 0.0637923902
v -3.95217988 1.090748 0.0023506014
v -3.14465923 1.20485418 0.0637923902
v -3.14465923 1.20485418 0.0023506014
v -3.03055305 1.090748 0.0023506014
v -3.03055305 1.090748 0.0637923902
v -2.99544346 0.932754832 0.0023506014
v -2.99544346 0.932754832 0.0637923902
v -3.98728948 0.932754832 0.0637923902
v -3.98728948 0.932754832 0.0023506014
v -3.95217988 1.090748 0.0023506014
v -3.95217988 1.090748 0.0637923902
v -3.98728948 0.932754832 0.0637923902
v -3.95217988 1.090748 0.0637923902
v -3.8380737 1.20485418 0.0637923902
v -3.68885793 1.24874117 0.0637923902
v -3.293875 1.24874117 0.0637923902
v -2.99544346 0.932754832 0.0637923902
v -3.03055305 1.090748 0.0637923902
v -3.14465923 1.20485418 0.0637923902
v -2.99544346 0.0023506014 0.0637923902
v -3.98728948 0.0023506014 0.0637923902
v -1.99482004 0.0023506014 0.0637923902
v -1.99482004 0.932754832 0.0637923902
v -2.29325158 1.24874117 0.0637923902
v -2.03870703 1.090748 0.0637923902
v -2.14403581 1.20485418 0.0637923902
v -2.69701191 1.24874117 0.0637923902
v -2.84622768 1.20485418 0.0637923902
v -2.95155646 1.090748 0.0637923902
v -2.29325158 1.24874117 0.0637923902
v -2.69701191 1.24874117 0.0637923902
v -2.69701191 1.24874117 0.0023506014
v -2.29325158 1.24874117 0.0023506014
v -2.14403581 1.20485418 0.0023506014
v -2.14403581 1.20485418 0.0637923902
v -2.03870703 1.090748 0.0023506014
v -2.03870703 1.090748 0.0637923902
v -2.03870703 1.090748 0.0637923902
v -2.03870703 1.090748 0.0023506014
v -1.99482004 0.932754832 0.0023506014
v -1.99482004 0.932754832 0.0637923902
v -2.99544346 0.932754832 0.0637923902
v -2.99544346 0.932754832 0.0023506014
v -2.95155646 1.090748 0.0023506014
v -2.95155646 1.090748 0.0637923902
v -2.84622768 1.20485418 0.0023506014
v -2.84622768 1.20485418 0.0637923902
v -2.69701191 1.24874117 0.0023506014
v -2.69701191 1.24874117 0.0637923902
v -2.29325158 1.24874117 0.0023506014
v -2.03870703 1.090748 0.0023506014
v -2.14403581 1.20485418 0.0023506014
v -1.99482004 0.932754832 0.0023506014
v -2.99544346 0.932754832 0.0023506014
v -1.99482004 0.0023506014 0.0023506014
v -2.99544346 0.0023506014 0.0023506014
v -2.69701191 1.24874117 0.0023506014
v -2.95155646 1.090748 0.0023506014
v -2.84622768 1.20485418 0.0023506014
v 0.296080944 1.24874117 0.0637923902
v 0.146865171 1.20485418 0.0637923902
v 0.146865171 1.20485418 0.0023506014
v 0.296080944 1.24874117 0.0023506014
v 0.699841271 1.24874117 0.0023506014
v 0.699841271 1.24874117 0.0637923902
v 0.849057044 1.20485418 0.0637923902
v 0.849057044 1.20485418 0.0023506014
v 0.146865171 1.20485418 0.0637923902
v 0.0415363906 1.090748 0.0023506014
v 0.146865171 1.20485418 0.0023506014
v 0.0415363906 1.090748 0.0637923902
v -0.0023506014 0.932754832 0.0023506014
v -0.0023506014 0.932754832 0.0637923902
v 0.998272816 0.932754832 0.0637923902
v 0.954385824 1.090748 0.0023506014
v 0.998272816 0.932754832 0.0023506014
v 0.954385824 1.090748 0.0637923902
v 0.849057044 1.20485418 0.0023506014
v 0.849057044 1.20485418 0.0637923902
v 0.998272816 0.932754832 0.0637923902
v 0.849057044 1.20485418 0.0637923902
v 0.954385824 1.090748 0.0637923902
v 0.699841271 1.24874117 0.0637923902
v 0.296080944 1.24874117 0.0637923902
v -0.0023506014 0.932754832 0.0637923902
v -0.0023506014 0.0023506014 0.0637923902
v 0.998272816 0.0023506014 0.0637923902
v 0.0415363906 1.090748 0.0637923902
v 0.146865171 1.20485418 0.0637923902
v 0.296080944 1.24874117 0.0023506014
v 0.146865171 1.20485418 0.0023506014
v 0.0415363906 1.090748 0.0023506014
v -0.0023506014 0.932754832 0.0023506014
v 0.998272816 0.932754832 0.0023506014
v 0.699841271 1.24874117 0.0023506014
v 0.954385824 1.090748 0.0023506014
v 0.849057044 1.20485418 0.0023506014
v -0.0023506014 0.0023506014 0.0023506014
v 0.998272816 0.0023506014 0.0023506014
v -0.994196621 0.0023506014 0.0023506014
v -0.994196621 0.932754832 0.0023506014
v -0.695765075 1.24874117 0.0023506014
v -0.959087027 1.090748 0.0023506014
v -0.844980848 1.20485418 0.0023506014
v -0.300782147 1.24874117 0.0023506014
v -0.037460195 1.090748 0.0023506014
v -0.151566374 1.20485418 0.0023506014
v -0.695765075 1.24874117 0.0637923902
v -0.844980848 1.20485418 0.0637923902
v -0.844980848 1.20485418 0.0023506014
v -0.695765075 1.24874117 0.0023506014
v -0.300782147 1.24874117 0.0023506014
v -0.300782147 1.24874117 0.0637923902
v -0.151566374 1.20485418 0.0637923902
v -0.151566374 1.20485418 0.0023506014
v -0.844980848 1.20485418 0.0637923902
v -0.959087027 1.090748 0.0023506014
v -0.844980848 1.20485418 0.0023506014
v -0.959087027 1.090748 0.0637923902
v -0.994196621 0.932754832 0.0023506014
v -0.994196621 0.932754832 0.0637923902
v -0.0023506014 0.932754832 0.0637923902
v -0.037460195 1.090748 0.0023506014
v -0.0023506014 0.932754832 0.0023506014
v -0.037460195 1.090748 0.0637923902
v -0.151566374 1.20485418 0.0023506014
v -0.151566374 1.20485418 0.0637923902
v -0.0023506014 0.932754832 0.0637923902
v -0.151566374 1.20485418 0.0637923902
v -0.037460195 1.090748 0.0637923902
v -0.300782147 1.24874117 0.0637923902
v -0.695765075 1.24874117 0.0637923902
v -0.994196621 0.932754832 0.0637923902
v -0.959087027 1.090748 0.0637923902
v -0.844980848 1.20485418 0.0637923902
v -0.994196621 0.0023506014 0.0637923902
v -0.0023506014 0.0023506014 0.0637923902
v -1.99482004 0.0023506014 0.0637923902
v -1.99482004 0.932754832 0.0637923902
v -1.69638849 1.24874117 0.0637923902
v -1.95093305 1.090748 0.0637923902
v -1.84560427 1.20485418 0.0637923902
v -1.29262817 1.24874117 0.0637923902
v -1.14341239 1.20485418 0.0637923902
v -1.03808361 1.090748 0.0637923902
v -1.69638849 1.24874117 0.0637923902
v -1.84560427 1.20485418 0.0637923902
v -1.84560427 1.20485418 0.0023506014
v -1.69638849 1.24874117 0.0023506014
v -1.29262817 1.24874117 0.0023506014
v -1.29262817 1.24874117 0.0637923902
v -1.14341239 1.20485418 0.0637923902
v -1.14341239 1.20485418 0.0023506014
v -1.84560427 1.20485418 0.0637923902
v -1.95093305 1.090748 0.0023506014
v -1.84560427 1.20485418 0.0023506014
v -1.95093305 1.090748 0.0637923902
v -1.99482004 0.932754832 0.0023506014
v -1.99482004 0.932754832 0.0637923902
v -0.994196621 0.932754832 0.0637923902
v -1.03808361 1.090748 0.0023506014
v -0.994196621 0.932754832 0.0023506014
v -1.03808361 1.090748 0.0637923902
v -1.14341239 1.20485418 0.0023506014
v -1.14341239 1.20485418 0.0637923902
v -1.69638849 1.24874117 0.0023506014
v -1.84560427 1.20485418 0.0023506014
v -1.95093305 1.090748 0.0023506014
v -1.99482004 0.932754832 0.0023506014
v -0.994196621 0.932754832 0.0023506014
v -1.99482004 0.0023506014 0.0023506014
v -0.994196621 0.0023506014 0.0023506014
v -1.29262817 1.24874117 0.0023506014
v -1.03808361 1.090748 0.0023506014
v -1.14341239 1.20485418 0.0023506014
v 3.2891738 1.24874117 0.0637923902
v 3.13995803 1.20485418 0.0637923902
v 3.13995803 1.20485418 0.0023506014
v 3.2891738 1.24874117 0.0023506014
v 3.69293413 1.24874117 0.0023506014
v 3.69293413 1.24874117 0.0637923902
v 3.8421499 1.20485418 0.0637923902
v 3.8421499 1.20485418 0.0023506014
v 3.13995803 1.20485418 0.0637923902
v 3.03462925 1.090748 0.0023506014
v 3.13995803 1.20485418 0.0023506014
v 3.03462925 1.090748 0.0637923902
v 2.99074225 0.932754832 0.0023506014
v 2.99074225 0.932754832 0.0637923902
v 3.99136567 0.932754832 0.0637923902
v 3.94747868 1.090748 0.0023506014
v 3.99136567 0.932754832 0.0023506014
v 3.94747868 1.090748 0.0637923902
v 3.8421499 1.20485418 0.0023506014
v 3.8421499 1.20485418 0.0637923902
v 3.99136567 0.932754832 0.0637923902
v 3.8421499 1.20485418 0.0637923902
v 3.94747868 1.090748 0.0637923902
v 3.69293413 1.24874117 0.0637923902
v 3.2891738 1.24874117 0.0637923902
v 2.99074225 0.932754832 0.0637923902
v 2.99074225 0.0023506014 0.0637923902
v 3.99136567 0.0023506014 0.0637923902
v 3.03462925 1.090748 0.0637923902
v 3.13995803 1.20485418 0.0637923902
v 3.2891738 1.24874117 0.0023506014
v 3.13995803 1.20485418 0.0023506014
v 3.03462925 1.090748 0.0023506014
v 2.99074225 0.932754832 0.0023506014
v 3.99136567 0.932754832 0.0023506014
v 3.69293413 1.24874117 0.0023506014
v 3.94747868 1.090748 0.0023506014
v 3.8421499 1.20485418 0.0023506014
v 2.99074225 0.0023506014 0.0023506014
v 3.99136567 0.0023506014 0.0023506014
v 1.99889623 0.0023506014 0.0023506014
v 1.99889623 0.932754832 0.0023506014
v 2.29732778 1.24874117 0.0023506014
v 2.03400583 1.090748 0.0023506014
v 2.14811201 1.20485418 0.0023506014
v 2.69231071 1.24874117 0.0023506014
v 2.95563266 1.090748 0.0023506014
v 2.84152648 1.20485418 0.0023506014
v 2.29732778 1.24874117 0.0637923902
v 2.14811201 1.20485418 0.0637923902
v 2.14811201 1.20485418 0.0023506014
v 2.29732778 1.24874117 0.0023506014
v 2.69231071 1.24874117 0.0023506014
v 2.69231071 1.24874117 0.0637923902
v 2.84152648 1.20485418 0.0637923902
v 2.84152648 1.20485418 0.0023506014
v 2.14811201 1.20485418 0.0637923902
v 2.03400583 1.090748 0.0023506014
v 2.14811201 1.20485418 0.0023506014
v 2.03400583 1.090748 0.0637923902
v 1.99889623 0.932754832 0.0023506014
v 1.99889623 0.932754832 0.0637923902
v 2.99074225 0.932754832 0.0637923902
v 2.95563266 1.090748 0.0023506014
v 2.99074225 0.932754832 0.0023506014
v 2.95563266 1.090748 0.0637923902
v 2.84152648 1.20485418 0.0023506014
v 2.84152648 1.20485418 0.0637923902
v 2.99074225 0.932754832 0.0637923902
v 2.84152648 1.20485418 0.0637923902
v 2.95563266 1.090748 0.0637923902
v 2.69231071 1.24874117 0.0637923902
v 2.29732778 1.24874117 0.0637923902
v 1.99889623 0.932754832 0.0637923902
v 2.03400583 1.090748 0.0637923902
v 2.14811201 1.20485418 0.0637923902
v 1.99889623 0.0023506014 0.0637923902
v 2.99074225 0.0023506014 0.0637923902
v 0.998272816 0.0023506014 0.0637923902
v 0.998272816 0.932754832 0.0637923902
v 1.29670436 1.24874117 0.0637923902
v 1.04215981 1.090748 0.0637923902
v 1.14748859 1.20485418 0.0637923902
v 1.70046469 1.24874117 0.0637923902
v 1.84968046 1.20485418 0.0637923902
v 1.95500924 1.090748 0.0637923902
v 1.29670436 1.24874117 0.0637923902
v 1.14748859 1.20485418 0.0637923902
v 1.14748859 1.20485418 0.0023506014
v 1.29670436 1.24874117 0.0023506014
v 1.70046469 1.24874117 0.0023506014
v 1.70046469 1.24874117 0.0637923902
v 1.84968046 1.20485418 0.0637923902
v 1.84968046 1.20485418 0.0023506014
v 1.14748859 1.20485418 0.0637923902
v 1.04215981 1.090748 0.0023506014
v 1.14748859 1.20485418 0.0023506014
v 1.04215981 1.090748 0.0637923902
v 0.998272816 0.932754832 0.0023506014
v 0.998272816 0.932754832 0.0637923902
v 1.99889623 0.932754832 0.0637923902
v 1.95500924 1.090748 0.0023506014
v 1.99889623 0.932754832 0.0023506014
v 1.95500924 1.090748 0.0637923902
v 1.84968046 1.20485418 0.0023506014
v 1.84968046 1.20485418 0.0637923902
v 1.29670436 1.24874117 0.0023506014
v 1.14748859 1.20485418 0.0023506014
v 1.04215981 1.090748 0.0023506014
v 0.998272816 0.932754832 0.0023506014
v 1.99889623 0.932754832 0.0023506014
v 0.998272816 0.0023506014 0.0023506014
v 1.99889623 0.0023506014 0.0023506014
v 1.70046469 1.24874117 0.0023506014
v 1.95500924 1.090748 0.0023506014
v 1.84968046 1.20485418 0.0023506014
vt 0.205919921 0.517592558
vt 0.205919921 0.555601416
vt 0.209720807 0.555601416
vt 0.209720807 0.517592558
vt 0.209720807 0.506189901
vt 0.205919921 0.506189901
vt 0.209720807 0.490986357
vt 0.205919921 0.490986357
vt 0.205919921 0.490986357
vt 0.209720807 0.490986357
vt 0.209720807 0.475782814
vt 0.205919921 0.475782814
vt 0.205919921 0.59741116
vt 0.209720807 0.59741116
vt 0.209720807 0.582207617
vt 0.205919921 0.582207617
vt 0.209720807 0.567004074
vt 0.205919921 0.567004074
vt 0.209720807 0.555601416
vt 0.205919921 0.555601416
vt 0.129902205 0.441574842
vt 0.114698661 0.441574842
vt 0.10709689 0.452977499
vt 0.103296004 0.464380157
vt 0.103296004 0.498588129
vt 0.129902205 0.521393444
vt 0.205919921 0.521393444
vt 0.205919921 0.441574842
vt 0.114698661 0.517592558
vt 0.10709689 0.509990786
vt 0.103296004 0.547999645
vt 0.114698661 0.52519433
vt 0.10709689 0.532796101
vt 0.129902205 0.521393444
vt 0.129902205 0.605012932
vt 0.103296004 0.578406731
vt 0.114698661 0.601212046
vt 0.10709689 0.589809389
vt 0.205919921 0.521393444
vt 0.205919921 0.605012932
vt 0.205919921 0.441574842
vt 0.129902205 0.441574842
vt 0.103296004 0.464380157
vt 0.114698661 0.445375727
vt 0.10709689 0.452977499
vt 0.103296004 0.498588129
vt 0.114698661 0.517592558
vt 0.10709689 0.509990786
vt 0.205919921 0.399765098
vt 0.209720807 0.384561554
vt 0.205919921 0.384561554
vt 0.209720807 0.399765098
vt 0.209720807 0.43397307
vt 0.205919921 0.43397307
vt 0.205919921 0.449176613
vt 0.209720807 0.449176613
vt 0.205919921 0.460579271
vt 0.209720807 0.460579271
vt 0.205919921 0.384561554
vt 0.209720807 0.384561554
vt 0.209720807 0.369358011
vt 0.205919921 0.369358011
vt 0.209720807 0.357955354
vt 0.205919921 0.357955354
vt 0.205919921 0.475782814
vt 0.209720807 0.475782814
vt 0.209720807 0.460579271
vt 0.205919921 0.460579271
vt 0.129902205 0.441574842
vt 0.114698661 0.441574842
vt 0.10709689 0.452977499
vt 0.103296004 0.464380157
vt 0.103296004 0.498588129
vt 0.129902205 0.521393444
vt 0.114698661 0.517592558
vt 0.10709689 0.509990786
vt 0.205919921 0.521393444
vt 0.205919921 0.441574842
vt 0.205919921 0.605012932
vt 0.129902205 0.605012932
vt 0.103296004 0.578406731
vt 0.114698661 0.601212046
vt 0.10709689 0.589809389
vt 0.103296004 0.547999645
vt 0.10709689 0.532796101
vt 0.114698661 0.52519433
vt 0.205919921 0.43397307
vt 0.205919921 0.399765098
vt 0.209720807 0.399765098
vt 0.209720807 0.43397307
vt 0.209720807 0.449176613
vt 0.205919921 0.449176613
vt 0.209720807 0.460579271
vt 0.205919921 0.460579271
vt 0.205919921 0.460579271
vt 0.209720807 0.460579271
vt 0.209720807 0.475782814
vt 0.205919921 0.475782814
vt 0.205919921 0.357955354
vt 0.209720807 0.357955354
vt 0.209720807 0.369358011
vt 0.205919921 0.369358011
vt 0.209720807 0.384561554
vt 0.205919921 0.384561554
vt 0.209720807 0.399765098
vt 0.205919921 0.399765098
vt 0.103296004 0.464380157
vt 0.114698661 0.441574842
vt 0.10709689 0.452977499
vt 0.129902205 0.441574842
vt 0.129902205 0.521393444
vt 0.205919921 0.441574842
vt 0.205919921 0.521393444
vt 0.103296004 0.498588129
vt 0.114698661 0.517592558
vt 0.10709689 0.509990786
vt 0.205919921 0.517592558
vt 0.205919921 0.506189901
vt 0.209720807 0.506189901
vt 0.209720807 0.517592558
vt 0.209720807 0.555601416
vt 0.205919921 0.555601416
vt 0.205919921 0.567004074
vt 0.209720807 0.567004074
vt 0.205919921 0.506189901
vt 0.209720807 0.490986357
vt 0.209720807 0.506189901
vt 0.205919921 0.490986357
vt 0.209720807 0.475782814
vt 0.205919921 0.475782814
vt 0.205919921 0.59741116
vt 0.209720807 0.582207617
vt 0.209720807 0.59741116
vt 0.205919921 0.582207617
vt 0.209720807 0.567004074
vt 0.205919921 0.567004074
vt 0.129902205 0.441574842
vt 0.10709689 0.452977499
vt 0.114698661 0.441574842
vt 0.103296004 0.464380157
vt 0.103296004 0.498588129
vt 0.129902205 0.521393444
vt 0.205919921 0.521393444
vt 0.205919921 0.441574842
vt 0.114698661 0.517592558
vt 0.10709689 0.509990786
vt 0.103296004 0.547999645
vt 0.10709689 0.532796101
vt 0.114698661 0.52519433
vt 0.129902205 0.521393444
vt 0.129902205 0.605012932
vt 0.103296004 0.578406731
vt 0.114698661 0.601212046
vt 0.10709689 0.593610274
vt 0.205919921 0.521393444
vt 0.205919921 0.605012932
vt 0.205919921 0.441574842
vt 0.129902205 0.441574842
vt 0.103296004 0.464380157
vt 0.114698661 0.445375727
vt 0.10709689 0.452977499
vt 0.103296004 0.498588129
vt 0.114698661 0.517592558
vt 0.10709689 0.509990786
vt 0.205919921 0.399765098
vt 0.205919921 0.384561554
vt 0.209720807 0.384561554
vt 0.209720807 0.399765098
vt 0.209720807 0.43397307
vt 0.205919921 0.43397307
vt 0.205919921 0.449176613
vt 0.209720807 0.449176613
vt 0.205919921 0.384561554
vt 0.209720807 0.369358011
vt 0.209720807 0.384561554
vt 0.205919921 0.369358011
vt 0.209720807 0.357955354
vt 0.205919921 0.357955354
vt 0.205919921 0.475782814
vt 0.209720807 0.460579271
vt 0.209720807 0.475782814
vt 0.205919921 0.460579271
vt 0.209720807 0.449176613
vt 0.205919921 0.449176613
vt 0.129902205 0.441574842
vt 0.10709689 0.452977499
vt 0.114698661 0.441574842
vt 0.103296004 0.464380157
vt 0.103296004 0.498588129
vt 0.129902205 0.521393444
vt 0.114698661 0.517592558
vt 0.10709689 0.509990786
vt 0.205919921 0.521393444
vt 0.205919921 0.441574842
vt 0.205919921 0.605012932
vt 0.129902205 0.605012932
vt 0.103296004 0.578406731
vt 0.114698661 0.601212046
vt 0.10709689 0.593610274
vt 0.103296004 0.547999645
vt 0.10709689 0.532796101
vt 0.114698661 0.52519433
vt 0.205919921 0.43397307
vt 0.205919921 0.449176613
vt 0.209720807 0.449176613
vt 0.209720807 0.43397307
vt 0.209720807 0.399765098
vt 0.205919921 0.399765098
vt 0.205919921 0.384561554
vt 0.209720807 0.384561554
vt 0.205919921 0.449176613
vt 0.209720807 0.460579271
vt 0.209720807 0.449176613
vt 0.205919921 0.460579271
vt 0.209720807 0.475782814
vt 0.205919921 0.475782814
vt 0.205919921 0.357955354
vt 0.209720807 0.369358011
vt 0.209720807 0.357955354
vt 0.205919921 0.369358011
vt 0.209720807 0.384561554
vt 0.205919921 0.384561554
vt 0.103296004 0.464380157
vt 0.10709689 0.452977499
vt 0.114698661 0.441574842
vt 0.129902205 0.441574842
vt 0.129902205 0.521393444
vt 0.205919921 0.441574842
vt 0.205919921 0.521393444
vt 0.103296004 0.498588129
vt 0.114698661 0.517592558
vt 0.10709689 0.509990786
vt 0.205919921 0.517592558
vt 0.205919921 0.506189901
vt 0.209720807 0.506189901
vt 0.209720807 0.517592558
vt 0.209720807 0.555601416
vt 0.205919921 0.555601416
vt 0.205919921 0.567004074
vt 0.209720807 0.567004074
vt 0.205919921 0.506189901
vt 0.209720807 0.490986357
vt 0.209720807 0.506189901
vt 0.205919921 0.490986357
vt 0.209720807 0.475782814
vt 0.205919921 0.475782814
vt 0.205919921 0.59741116
vt 0.209720807 0.582207617
vt 0.209720807 0.59741116
vt 0.205919921 0.582207617
vt 0.209720807 0.567004074
vt 0.205919921 0.567004074
vt 0.129902205 0.441574842
vt 0.10709689 0.452977499
vt 0.114698661 0.441574842
vt 0.103296004 0.464380157
vt 0.103296004 0.498588129
vt 0.129902205 0.521393444
vt 0.205919921 0.521393444
vt 0.205919921 0.441574842
vt 0.114698661 0.517592558
vt 0.10709689 0.509990786
vt 0.103296004 0.547999645
vt 0.10709689 0.532796101
vt 0.114698661 0.52519433
vt 0.129902205 0.521393444
vt 0.129902205 0.605012932
vt 0.103296004 0.578406731
vt 0.114698661 0.601212046
vt 0.10709689 0.593610274
vt 0.205919921 0.521393444
vt 0.205919921 0.605012932
vt 0.205919921 0.441574842
vt 0.129902205 0.441574842
vt 0.103296004 0.464380157
vt 0.114698661 0.445375727
vt 0.10709689 0.452977499
vt 0.103296004 0.498588129
vt 0.114698661 0.517592558
vt 0.10709689 0.509990786
vt 0.205919921 0.399765098
vt 0.205919921 0.384561554
vt 0.209720807 0.384561554
vt 0.209720807 0.399765098
vt 0.209720807 0.43397307
vt 0.205919921 0.43397307
vt 0.205919921 0.449176613
vt 0.209720807 0.449176613
vt 0.205919921 0.384561554
vt 0.209720807 0.369358011
vt 0.209720807 0.384561554
vt 0.205919921 0.369358011
vt 0.209720807 0.357955354
vt 0.205919921 0.357955354
vt 0.205919921 0.475782814
vt 0.209720807 0.460579271
vt 0.209720807 0.475782814
vt 0.205919921 0.460579271
vt 0.209720807 0.449176613
vt 0.205919921 0.449176613
vt 0.129902205 0.441574842
vt 0.10709689 0.452977499
vt 0.114698661 0.441574842
vt 0.103296004 0.464380157
vt 0.103296004 0.498588129
vt 0.129902205 0.521393444
vt 0.114698661 0.517592558
vt 0.10709689 0.509990786
vt 0.205919921 0.521393444
vt 0.205919921 0.441574842
vt 0.205919921 0.605012932
vt 0.129902205 0.605012932
vt 0.103296004 0.578406731
vt 0.114698661 0.601212046
vt 0.10709689 0.593610274
vt 0.103296004 0.547999645
vt 0.10709689 0.532796101
vt 0.114698661 0.52519433
vt 0.205919921 0.43397307
vt 0.205919921 0.449176613
vt 0.209720807 0.449176613
vt 0.209720807 0.43397307
vt 0.209720807 0.399765098
vt 0.205919921 0.399765098
vt 0.205919921 0.384561554
vt 0.209720807 0.384561554
vt 0.205919921 0.449176613
vt 0.209720807 0.460579271
vt 0.209720807 0.449176613
vt 0.205919921 0.460579271
vt 0.209720807 0.475782814
vt 0.205919921 0.475782814
vt 0.205919921 0.357955354
vt 0.209720807 0.369358011
vt 0.209720807 0.357955354
vt 0.205919921 0.369358011
vt 0.209720807 0.384561554
vt 0.205919921 0.384561554
vt 0.103296004 0.464380157
vt 0.10709689 0.452977499
vt 0.114698661 0.441574842
vt 0.129902205 0.441574842
vt 0.129902205 0.521393444
vt 0.205919921 0.441574842
vt 0.205919921 0.521393444
vt 0.103296004 0.498588129
vt 0.114698661 0.517592558
vt 0.10709689 0.509990786
vn 0.0620810545 0.998071111 -0
vn -0.0626405356 0.998036153 -0
vn -0.0626405356 0.998036153 -0
vn 0.0620810545 0.998071111 -0
vn 0.4995779 0.843793915 -0.196045276
vn 0.4995779 0.843793915 -0.196045276
vn 0.87447236 0.468899455 -0.124223157
vn 0.87447236 0.468899455 -0.124223157
vn 0.87447236 0.468899455 -0.124223157
vn 0.87447236 0.468899455 -0.124223157
vn -0.000281380283 0.99999994 -0.000200086038
vn -0.000281380283 0.99999994 -0.000200086038
vn -0.96822682 0.250073637 -0
vn -0.96822682 0.250073637 -0
vn -0.868191597 0.496229132 -0
vn -0.868191597 0.496229132 -0
vn -0.50014066 0.843793915 -0.194605108
vn -0.50014066 0.843793915 -0.194605108
vn -0.0626405356 0.998036153 -0
vn -0.0626405356 0.998036153 -0
vn -0.000281380283 0.000281380283 0.999999921
vn -0.000281380283 0.000281380283 0.999999921
vn -0.000281380283 0.000281380283 0.999999921
vn -0.000281380283 0.000281380283 0.999999921
vn -0.000281380283 0.000281380283 0.999999921
vn -0.000281380283 0.000281380283 0.999999921
vn -0.000281380283 0.000281380283 0.999999921
vn -0.000281380283 0.000281380283 0.999999921
vn -0.000281380283 0.000281380283 0.999999921
vn -0.000281380283 0.000281380283 0.999999921
vn -0.000281380283 0.000281380283 -0.999999921
vn -0.000281380283 0.000281380283 -0.999999921
vn -0.000281380283 0.000281380283 -0.999999921
vn -0.000281380283 0.000281380283 -0.999999921
vn -0.000281380283 0.000281380283 -0.999999921
vn -0.000281380283 0.000281380283 -0.999999921
vn -0.000281380283 0.000281380283 -0.999999921
vn -0.000281380283 0.000281380283 -0.999999921
vn -0.000281380283 0.000281380283 -0.999999921
vn -0.000281380283 0.000281380283 -0.999999921
vn -0.000281380283 0.000281380283 -0.999999921
vn -0.000281380283 0.000281380283 -0.999999921
vn -0.000281380283 0.000281380283 -0.999999921
vn -0.000281380283 0.000281380283 -0.999999921
vn -0.000281380283 0.000281380283 -0.999999921
vn -0.000281380283 0.000281380283 -0.999999921
vn -0.000281380283 0.000281380283 -0.999999921
vn -0.000281380283 0.000281380283 -0.999999921
vn 0.0620810545 0.998071111 -0
vn 0.4995779 0.843793915 -0.196045276
vn 0.4995779 0.843793915 -0.196045276
vn 0.0620810545 0.998071111 -0
vn -0.0626405356 0.998036153 -0
vn -0.0626405356 0.998036153 -0
vn -0.50014066 0.843793915 -0.194605108
vn -0.50014066 0.843793915 -0.194605108
vn -0.87503512 0.468899455 -0.120195004
vn -0.87503512 0.468899455 -0.120195004
vn 0.4995779 0.843793915 -0.196045276
vn 0.4995779 0.843793915 -0.196045276
vn 0.87447236 0.468899455 -0.124223157
vn 0.87447236 0.468899455 -0.124223157
vn -0.000281380283 0.99999994 -0.000200086038
vn -0.000281380283 0.99999994 -0.000200086038
vn -0.000281380283 0.99999994 -0.000200086038
vn -0.000281380283 0.99999994 -0.000200086038
vn -0.87503512 0.468899455 -0.120195004
vn -0.87503512 0.468899455 -0.120195004
vn -0.000281380283 0.000281380283 0.999999921
vn -0.000281380283 0.000281380283 0.999999921
vn -0.000281380283 0.000281380283 0.999999921
vn -0.000281380283 0.000281380283 0.999999921
vn -0.000281380283 0.000281380283 0.999999921
vn -0.000281380283 0.000281380283 0.999999921
vn -0.000281380283 0.000281380283 0.999999921
vn -0.000281380283 0.000281380283 0.999999921
vn -0.000281380283 0.000281380283 0.999999921
vn -0.000281380283 0.000281380283 0.999999921
vn -0.000281380283 0.000281380283 0.999999921
vn -0.000281380283 0.000281380283 0.999999921
vn -0.000281380283 0.000281380283 0.999999921
vn -0.000281380283 0.000281380283 0.999999921
vn -0.000281380283 0.000281380283 0.999999921
vn -0.000281380283 0.000281380283 0.999999921
vn -0.000281380283 0.000281380283 0.999999921
vn -0.000281380283 0.000281380283 0.999999921
vn 0.0620810545 0.998071111 -0
vn -0.0626405356 0.998036153 -0
vn -0.0626405356 0.998036153 -0
vn 0.0620810545 0.998071111 -0
vn 0.4995779 0.843793915 -0.196045276
vn 0.4995779 0.843793915 -0.196045276
vn 0.868054004 0.496469783 -0
vn 0.868054004 0.496469783 -0
vn 0.868054004 0.496469783 -0
vn 0.868054004 0.496469783 -0
vn 0.968191618 0.250209894 -0
vn 0.968191618 0.250209894 -0
vn -0.000281380283 0.99999994 -0.000200086038
vn -0.000281380283 0.99999994 -0.000200086038
vn -0.87503512 0.468899455 -0.120195004
vn -0.87503512 0.468899455 -0.120195004
vn -0.50014066 0.843793915 -0.194605108
vn -0.50014066 0.843793915 -0.194605108
vn -0.0626405356 0.998036153 -0
vn -0.0626405356 0.998036153 -0
vn -0.000281380283 0.000281380283 -0.999999921
vn -0.000281380283 0.000281380283 -0.999999921
vn -0.000281380283 0.000281380283 -0.999999921
vn -0.000281380283 0.000281380283 -0.999999921
vn -0.000281380283 0.000281380283 -0.999999921
vn -0.000281380283 0.000281380283 -0.999999921
vn -0.000281380283 0.000281380283 -0.999999921
vn -0.000281380283 0.000281380283 -0.999999921
vn -0.000281380283 0.000281380283 -0.999999921
vn -0.000281380283 0.000281380283 -0.999999921
vn -0.0626405356 0.998036153 -0
vn -0.50014066 0.843793915 -0.194605108
vn -0.50014066 0.843793915 -0.194605108
vn -0.0626405356 0.998036153 -0
vn 0.0620810545 0.998071111 -0
vn 0.0620810545 0.998071111 -0
vn 0.4995779 0.843793915 -0.196045276
vn 0.4995779 0.843793915 -0.196045276
vn -0.50014066 0.843793915 -0.194605108
vn -0.87503512 0.468899455 -0.120195004
vn -0.50014066 0.843793915 -0.194605108
vn -0.87503512 0.468899455 -0.120195004
vn -0.000281380283 0.99999994 -0.000200086038
vn -0.000281380283 0.99999994 -0.000200086038
vn 0.968191618 0.250209894 -0
vn 0.868054004 0.496469783 -0
vn 0.968191618 0.250209894 -0
vn 0.868054004 0.496469783 -0
vn 0.4995779 0.843793915 -0.196045276
vn 0.4995779 0.843793915 -0.196045276
vn -0.000281380283 0.000281380283 0.999999921
vn -0.000281380283 0.000281380283 0.999999921
vn -0.000281380283 0.000281380283 0.999999921
vn -0.000281380283 0.000281380283 0.999999921
vn -0.000281380283 0.000281380283 0.999999921
vn -0.000281380283 0.000281380283 0.999999921
vn -0.000281380283 0.000281380283 0.999999921
vn -0.000281380283 0.000281380283 0.999999921
vn -0.000281380283 0.000281380283 0.999999921
vn -0.000281380283 0.000281380283 0.999999921
vn -0.000281380283 0.000281380283 -0.999999921
vn -0.000281380283 0.000281380283 -0.999999921
vn -0.000281380283 0.000281380283 -0.999999921
vn -0.000281380283 0.000281380283 -0.999999921
vn -0.000281380283 0.000281380283 -0.999999921
vn -0.000281380283 0.000281380283 -0.999999921
vn -0.000281380283 0.000281380283 -0.999999921
vn -0.000281380283 0.000281380283 -0.999999921
vn -0.000281380283 0.000281380283 -0.999999921
vn -0.000281380283 0.000281380283 -0.999999921
vn -0.000281380283 0.000281380283 -0.999999921
vn -0.000281380283 0.000281380283 -0.999999921
vn -0.000281380283 0.000281380283 -0.999999921
vn -0.000281380283 0.000281380283 -0.999999921
vn -0.000281380283 0.000281380283 -0.999999921
vn -0.000281380283 0.000281380283 -0.999999921
vn -0.000281380283 0.000281380283 -0.999999921
vn -0.000281380283 0.000281380283 -0.999999921
vn -0.0626405356 0.998036153 -0
vn -0.50014066 0.843793915 -0.194605108
vn -0.50014066 0.843793915 -0.194605108
vn -0.0626405356 0.998036153 -0
vn 0.0620810545 0.998071111 -0
vn 0.0620810545 0.998071111 -0
vn 0.4995779 0.843793915 -0.196045276
vn 0.4995779 0.843793915 -0.196045276
vn -0.50014066 0.843793915 -0.194605108
vn -0.87503512 0.468899455 -0.120195004
vn -0.50014066 0.843793915 -0.194605108
vn -0.87503512 0.468899455 -0.120195004
vn -0.000281380283 0.99999994 -0.000200086038
vn -0.000281380283 0.99999994 -0.000200086038
vn -0.000281380283 0.99999994 -0.000200086038
vn 0.87447236 0.468899455 -0.124223157
vn -0.000281380283 0.99999994 -0.000200086038
vn 0.87447236 0.468899455 -0.124223157
vn 0.4995779 0.843793915 -0.196045276
vn 0.4995779 0.843793915 -0.196045276
vn -0.000281380283 0.000281380283 0.999999921
vn -0.000281380283 0.000281380283 0.999999921
vn -0.000281380283 0.000281380283 0.999999921
vn -0.000281380283 0.000281380283 0.999999921
vn -0.000281380283 0.000281380283 0.999999921
vn -0.000281380283 0.000281380283 0.999999921
vn -0.000281380283 0.000281380283 0.999999921
vn -0.000281380283 0.000281380283 0.999999921
vn -0.000281380283 0.000281380283 0.999999921
vn -0.000281380283 0.000281380283 0.999999921
vn -0.000281380283 0.000281380283 0.999999921
vn -0.000281380283 0.000281380283 0.999999921
vn -0.000281380283 0.000281380283 0.999999921
vn -0.000281380283 0.000281380283 0.999999921
vn -0.000281380283 0.000281380283 0.999999921
vn -0.000281380283 0.000281380283 0.999999921
vn -0.000281380283 0.000281380283 0.999999921
vn -0.000281380283 0.000281380283 0.999999921
vn -0.0626405356 0.998036153 -0
vn -0.50014066 0.843793915 -0.194605108
vn -0.50014066 0.843793915 -0.194605108
vn -0.0626405356 0.998036153 -0
vn 0.0620810545 0.998071111 -0
vn 0.0620810545 0.998071111 -0
vn 0.4995779 0.843793915 -0.196045276
vn 0.4995779 0.843793915 -0.196045276
vn -0.50014066 0.843793915 -0.194605108
vn -0.868191597 0.496229132 -0
vn -0.50014066 0.843793915 -0.194605108
vn -0.868191597 0.496229132 -0
vn -0.96822682 0.250073637 -0
vn -0.96822682 0.250073637 -0
vn -0.000281380283 0.99999994 -0.000200086038
vn 0.87447236 0.468899455 -0.124223157
vn -0.000281380283 0.99999994 -0.000200086038
vn 0.87447236 0.468899455 -0.124223157
vn 0.4995779 0.843793915 -0.196045276
vn 0.4995779 0.843793915 -0.196045276
vn -0.000281380283 0.000281380283 -0.999999921
vn -0.000281380283 0.000281380283 -0.999999921
vn -0.000281380283 0.000281380283 -0.999999921
vn -0.000281380283 0.000281380283 -0.999999921
vn -0.000281380283 0.000281380283 -0.999999921
vn -0.000281380283 0.000281380283 -0.999999921
vn -0.000281380283 0.000281380283 -0.999999921
vn -0.000281380283 0.000281380283 -0.999999921
vn -0.000281380283 0.000281380283 -0.999999921
vn -0.000281380283 0.000281380283 -0.999999921
vn -0.0626405356 0.998036153 -0
vn -0.50014066 0.843793915 -0.194605108
vn -0.50014066 0.843793915 -0.194605108
vn -0.0626405356 0.998036153 -0
vn 0.0620810545 0.998071111 -0
vn 0.0620810545 0.998071111 -0
vn 0.4995779 0.843793915 -0.196045276
vn 0.4995779 0.843793915 -0.196045276
vn -0.50014066 0.843793915 -0.194605108
vn -0.87503512 0.468899455 -0.120195004
vn -0.50014066 0.843793915 -0.194605108
vn -0.87503512 0.468899455 -0.120195004
vn -0.000281380283 0.99999994 -0.000200086038
vn -0.000281380283 0.99999994 -0.000200086038
vn 0.968191618 0.250209894 -0
vn 0.868054004 0.496469783 -0
vn 0.968191618 0.250209894 -0
vn 0.868054004 0.496469783 -0
vn 0.4995779 0.843793915 -0.196045276
vn 0.4995779 0.843793915 -0.196045276
vn -0.000281380283 0.000281380283 0.999999921
vn -0.000281380283 0.000281380283 0.999999921
vn -0.000281380283 0.000281380283 0.999999921
vn -0.000281380283 0.000281380283 0.999999921
vn -0.000281380283 0.000281380283 0.999999921
vn -0.000281380283 0.000281380283 0.999999921
vn -0.000281380283 0.000281380283 0.999999921
vn -0.000281380283 0.000281380283 0.999999921
vn -0.000281380283 0.000281380283 0.999999921
vn -0.000281380283 0.000281380283 0.999999921
vn -0.000281380283 0.000281380283 -0.999999921
vn -0.000281380283 0.000281380283 -0.999999921
vn -0.000281380283 0.000281380283 -0.999999921
vn -0.000281380283 0.000281380283 -0.999999921
vn -0.000281380283 0.000281380283 -0.999999921
vn -0.000281380283 0.000281380283 -0.999999921
vn -0.000281380283 0.000281380283 -0.999999921
vn -0.000281380283 0.000281380283 -0.999999921
vn -0.000281380283 0.000281380283 -0.999999921
vn -0.000281380283 0.000281380283 -0.999999921
vn -0.000281380283 0.000281380283 -0.999999921
vn -0.000281380283 0.000281380283 -0.999999921
vn -0.000281380283 0.000281380283 -0.999999921
vn -0.000281380283 0.000281380283 -0.999999921
vn -0.000281380283 0.000281380283 -0.999999921
vn -0.000281380283 0.000281380283 -0.999999921
vn -0.000281380283 0.000281380283 -0.999999921
vn -0.000281380283 0.000281380283 -0.999999921
vn -0.0626405356 0.998036153 -0
vn -0.50014066 0.843793915 -0.194605108
vn -0.50014066 0.843793915 -0.194605108
vn -0.0626405356 0.998036153 -0
vn 0.0620810545 0.998071111 -0
vn 0.0620810545 0.998071111 -0
vn 0.4995779 0.843793915 -0.196045276
vn 0.4995779 0.843793915 -0.196045276
vn -0.50014066 0.843793915 -0.194605108
vn -0.87503512 0.468899455 -0.120195004
vn -0.50014066 0.843793915 -0.194605108
vn -0.87503512 0.468899455 -0.120195004
vn -0.000281380283 0.99999994 -0.000200086038
vn -0.000281380283 0.99999994 -0.000200086038
vn -0.000281380283 0.99999994 -0.000200086038
vn 0.87447236 0.468899455 -0.124223157
vn -0.000281380283 0.99999994 -0.000200086038
vn 0.87447236 0.468899455 -0.124223157
vn 0.4995779 0.843793915 -0.196045276
vn 0.4995779 0.843793915 -0.196045276
vn -0.000281380283 0.000281380283 0.999999921
vn -0.000281380283 0.000281380283 0.999999921
vn -0.000281380283 0.000281380283 0.999999921
vn -0.000281380283 0.000281380283 0.999999921
vn -0.000281380283 0.000281380283 0.999999921
vn -0.000281380283 0.000281380283 0.999999921
vn -0.000281380283 0.000281380283 0.999999921
vn -0.000281380283 0.000281380283 0.999999921
vn -0.000281380283 0.000281380283 0.999999921
vn -0.000281380283 0.000281380283 0.999999921
vn -0.000281380283 0.000281380283 0.999999921
vn -0.000281380283 0.000281380283 0.999999921
vn -0.000281380283 0.000281380283 0.999999921
vn -0.000281380283 0.000281380283 0.999999921
vn -0.000281380283 0.000281380283 0.999999921
vn -0.000281380283 0.000281380283 0.999999921
vn -0.000281380283 0.000281380283 0.999999921
vn -0.000281380283 0.000281380283 0.999999921
vn -0.0626405356 0.998036153 -0
vn -0.50014066 0.843793915 -0.194605108
vn -0.50014066 0.843793915 -0.194605108
vn -0.0626405356 0.998036153 -0
vn 0.0620810545 0.998071111 -0
vn 0.0620810545 0.998071111 -0
vn 0.4995779 0.843793915 -0.196045276
vn 0.4995779 0.843793915 -0.196045276
vn -0.50014066 0.843793915 -0.194605108
vn -0.868191597 0.496229132 -0
vn -0.50014066 0.843793915 -0.194605108
vn -0.868191597 0.496229132 -0
vn -0.96822682 0.250073637 -0
vn -0.96822682 0.250073637 -0
vn -0.000281380283 0.99999994 -0.000200086038
vn 0.87447236 0.468899455 -0.124223157
vn -0.000281380283 0.99999994 -0.000200086038
vn 0.87447236 0.468899455 -0.124223157
vn 0.4995779 0.843793915 -0.196045276
vn 0.4995779 0.843793915 -0.196045276
vn -0.000281380283 0.000281380283 -0.999999921
vn -0.000281380283 0.000281380283 -0.999999921
vn -0.000281380283 0.000281380283 -0.999999921
vn -0.000281380283 0.000281380283 -0.999999921
vn -0.000281380283 0.000281380283 -0.999999921
vn -0.000281380283 0.000281380283 -0.999999921
vn -0.000281380283 0.000281380283 -0.999999921
vn -0.000281380283 0.000281380283 -0.999999921
vn -0.000281380283 0.000281380283 -0.999999921
vn -0.000281380283 0.000281380283 -0.999999921
g Vallas3_0
f 3/3/3 2/2/2 1/1/1
f 4/4/4 3/3/3 1/1/1
f 5/5/5 4/4/4 1/1/1
f 6/6/6 5/5/5 1/1/1
f 7/7/7 5/5/5 6/6/6
f 8/8/8 7/7/7 6/6/6
f 11/11/11 10/10/10 9/9/9
f 12/12/12 11/11/11 9/9/9
f 15/15/15 14/14/14 13/13/13
f 16/16/16 15/15/15 13/13/13
f 17/17/17 15/15/15 16/16/16
f 18/18/18 17/17/17 16/16/16
f 19/19/19 17/17/17 18/18/18
f 20/20/20 19/19/19 18/18/18
f 23/23/23 22/22/22 21/21/21
f 24/24/24 23/23/23 21/21/21
f 25/25/25 24/24/24 21/21/21
f 26/26/26 25/25/25 21/21/21
f 27/27/27 26/26/26 21/21/21
f 28/28/28 27/27/27 21/21/21
f 26/26/26 29/29/29 25/25/25
f 29/29/29 30/30/30 25/25/25
f 33/33/33 32/32/32 31/31/31
f 32/32/32 34/34/34 31/31/31
f 34/34/34 35/35/35 31/31/31
f 35/35/35 36/36/36 31/31/31
f 35/35/35 37/37/37 36/36/36
f 37/37/37 38/38/38 36/36/36
f 34/34/34 39/39/39 35/35/35
f 39/39/39 40/40/40 35/35/35
f 41/41/41 39/39/39 34/34/34
f 42/42/42 41/41/41 34/34/34
f 42/42/42 34/34/34 43/43/43
f 44/44/44 42/42/42 43/43/43
f 45/45/45 44/44/44 43/43/43
f 34/34/34 46/46/46 43/43/43
f 34/34/34 47/47/47 46/46/46
f 47/47/47 48/48/48 46/46/46
f 51/51/51 50/50/50 49/49/49
f 50/50/50 52/52/52 49/49/49
f 52/52/52 53/53/53 49/49/49
f 53/53/53 54/54/54 49/49/49
f 54/54/54 53/53/53 55/55/55
f 53/53/53 56/56/56 55/55/55
f 55/55/55 56/56/56 57/57/57
f 56/56/56 58/58/58 57/57/57
f 61/61/61 60/60/60 59/59/59
f 62/62/62 61/61/61 59/59/59
f 63/63/63 61/61/61 62/62/62
f 64/64/64 63/63/63 62/62/62
f 67/67/67 66/66/66 65/65/65
f 68/68/68 67/67/67 65/65/65
f 71/71/71 70/70/70 69/69/69
f 72/72/72 71/71/71 69/69/69
f 73/73/73 72/72/72 69/69/69
f 74/74/74 73/73/73 69/69/69
f 74/74/74 75/75/75 73/73/73
f 75/75/75 76/76/76 73/73/73
f 77/77/77 74/74/74 69/69/69
f 78/78/78 77/77/77 69/69/69
f 77/77/77 79/79/79 74/74/74
f 79/79/79 80/80/80 74/74/74
f 80/80/80 81/81/81 74/74/74
f 80/80/80 82/82/82 81/81/81
f 82/82/82 83/83/83 81/81/81
f 81/81/81 84/84/84 74/74/74
f 84/84/84 85/85/85 74/74/74
f 85/85/85 86/86/86 74/74/74
f 89/89/89 88/88/88 87/87/87
f 90/90/90 89/89/89 87/87/87
f 91/91/91 90/90/90 87/87/87
f 92/92/92 91/91/91 87/87/87
f 93/93/93 91/91/91 92/92/92
f 94/94/94 93/93/93 92/92/92
f 97/97/97 96/96/96 95/95/95
f 98/98/98 97/97/97 95/95/95
f 101/101/101 100/100/100 99/99/99
f 102/102/102 101/101/101 99/99/99
f 103/103/103 101/101/101 102/102/102
f 104/104/104 103/103/103 102/102/102
f 105/105/105 103/103/103 104/104/104
f 106/106/106 105/105/105 104/104/104
f 109/109/109 108/108/108 107/107/107
f 108/108/108 110/110/110 107/107/107
f 110/110/110 111/111/111 107/107/107
f 110/110/110 112/112/112 111/111/111
f 112/112/112 113/113/113 111/111/111
f 111/111/111 114/114/114 107/107/107
f 111/111/111 115/115/115 114/114/114
f 115/115/115 116/116/116 114/114/114
f 119/119/119 118/118/118 117/117/117
f 120/120/120 119/119/119 117/117/117
f 121/121/121 120/120/120 117/117/117
f 122/122/122 121/121/121 117/117/117
f 121/121/121 122/122/122 123/123/123
f 124/124/124 121/121/121 123/123/123
f 127/127/127 126/126/126 125/125/125
f 126/126/126 128/128/128 125/125/125
f 126/126/126 129/129/129 128/128/128
f 129/129/129 130/130/130 128/128/128
f 133/133/133 132/132/132 131/131/131
f 132/132/132 134/134/134 131/131/131
f 132/132/132 135/135/135 134/134/134
f 135/135/135 136/136/136 134/134/134
f 139/139/139 138/138/138 137/137/137
f 138/138/138 140/140/140 137/137/137
f 140/140/140 141/141/141 137/137/137
f 141/141/141 142/142/142 137/137/137
f 142/142/142 143/143/143 137/137/137
f 143/143/143 144/144/144 137/137/137
f 145/145/145 142/142/142 141/141/141
f 146/146/146 145/145/145 141/141/141
f 149/149/149 148/148/148 147/147/147
f 150/150/150 149/149/149 147/147/147
f 151/151/151 150/150/150 147/147/147
f 152/152/152 151/151/151 147/147/147
f 153/153/153 151/151/151 152/152/152
f 154/154/154 153/153/153 152/152/152
f 155/155/155 150/150/150 151/151/151
f 156/156/156 155/155/155 151/151/151
f 155/155/155 157/157/157 150/150/150
f 157/157/157 158/158/158 150/150/150
f 150/150/150 158/158/158 159/159/159
f 158/158/158 160/160/160 159/159/159
f 160/160/160 161/161/161 159/159/159
f 162/162/162 150/150/150 159/159/159
f 163/163/163 150/150/150 162/162/162
f 164/164/164 163/163/163 162/162/162
f 167/167/167 166/166/166 165/165/165
f 168/168/168 167/167/167 165/165/165
f 169/169/169 168/168/168 165/165/165
f 170/170/170 169/169/169 165/165/165
f 169/169/169 170/170/170 171/171/171
f 172/172/172 169/169/169 171/171/171
f 175/175/175 174/174/174 173/173/173
f 174/174/174 176/176/176 173/173/173
f 174/174/174 177/177/177 176/176/176
f 177/177/177 178/178/178 176/176/176
f 181/181/181 180/180/180 179/179/179
f 180/180/180 182/182/182 179/179/179
f 180/180/180 183/183/183 182/182/182
f 183/183/183 184/184/184 182/182/182
f 187/187/187 186/186/186 185/185/185
f 186/186/186 188/188/188 185/185/185
f 188/188/188 189/189/189 185/185/185
f 189/189/189 190/190/190 185/185/185
f 191/191/191 190/190/190 189/189/189
f 192/192/192 191/191/191 189/189/189
f 190/190/190 193/193/193 185/185/185
f 193/193/193 194/194/194 185/185/185
f 195/195/195 193/193/193 190/190/190
f 196/196/196 195/195/195 190/190/190
f 197/197/197 196/196/196 190/190/190
f 198/198/198 196/196/196 197/197/197
f 199/199/199 198/198/198 197/197/197
f 200/200/200 197/197/197 190/190/190
f 201/201/201 200/200/200 190/190/190
f 202/202/202 201/201/201 190/190/190
f 205/205/205 204/204/204 203/203/203
f 206/206/206 205/205/205 203/203/203
f 207/207/207 206/206/206 203/203/203
f 208/208/208 207/207/207 203/203/203
f 207/207/207 208/208/208 209/209/209
f 210/210/210 207/207/207 209/209/209
f 213/213/213 212/212/212 211/211/211
f 212/212/212 214/214/214 211/211/211
f 212/212/212 215/215/215 214/214/214
f 215/215/215 216/216/216 214/214/214
f 219/219/219 218/218/218 217/217/217
f 218/218/218 220/220/220 217/217/217
f 218/218/218 221/221/221 220/220/220
f 221/221/221 222/222/222 220/220/220
f 225/225/225 224/224/224 223/223/223
f 226/226/226 225/225/225 223/223/223
f 227/227/227 226/226/226 223/223/223
f 228/228/228 226/226/226 227/227/227
f 229/229/229 228/228/228 227/227/227
f 230/230/230 227/227/227 223/223/223
f 231/231/231 227/227/227 230/230/230
f 232/232/232 231/231/231 230/230/230
f 235/235/235 234/234/234 233/233/233
f 236/236/236 235/235/235 233/233/233
f 237/237/237 236/236/236 233/233/233
f 238/238/238 237/237/237 233/233/233
f 237/237/237 238/238/238 239/239/239
f 240/240/240 237/237/237 239/239/239
f 243/243/243 242/242/242 241/241/241
f 242/242/242 244/244/244 241/241/241
f 242/242/242 245/245/245 244/244/244
f 245/245/245 246/246/246 244/244/244
f 249/249/249 248/248/248 247/247/247
f 248/248/248 250/250/250 247/247/247
f 248/248/248 251/251/251 250/250/250
f 251/251/251 252/252/252 250/250/250
f 255/255/255 254/254/254 253/253/253
f 254/254/254 256/256/256 253/253/253
f 256/256/256 257/257/257 253/253/253
f 257/257/257 258/258/258 253/253/253
f 258/258/258 259/259/259 253/253/253
f 259/259/259 260/260/260 253/253/253
f 261/261/261 258/258/258 257/257/257
f 262/262/262 261/261/261 257/257/257
f 265/265/265 264/264/264 263/263/263
f 266/266/266 265/265/265 263/263/263
f 267/267/267 266/266/266 263/263/263
f 268/268/268 267/267/267 263/263/263
f 269/269/269 267/267/267 268/268/268
f 270/270/270 269/269/269 268/268/268
f 271/271/271 266/266/266 267/267/267
f 272/272/272 271/271/271 267/267/267
f 271/271/271 273/273/273 266/266/266
f 273/273/273 274/274/274 266/266/266
f 266/266/266 274/274/274 275/275/275
f 274/274/274 276/276/276 275/275/275
f 276/276/276 277/277/277 275/275/275
f 278/278/278 266/266/266 275/275/275
f 279/279/279 266/266/266 278/278/278
f 280/280/280 279/279/279 278/278/278
f 283/283/283 282/282/282 281/281/281
f 284/284/284 283/283/283 281/281/281
f 285/285/285 284/284/284 281/281/281
f 286/286/286 285/285/285 281/281/281
f 285/285/285 286/286/286 287/287/287
f 288/288/288 285/285/285 287/287/287
f 291/291/291 290/290/290 289/289/289
f 290/290/290 292/292/292 289/289/289
f 290/290/290 293/293/293 292/292/292
f 293/293/293 294/294/294 292/292/292
f 297/297/297 296/296/296 295/295/295
f 296/296/296 298/298/298 295/295/295
f 296/296/296 299/299/299 298/298/298
f 299/299/299 300/300/300 298/298/298
f 303/303/303 302/302/302 301/301/301
f 302/302/302 304/304/304 301/301/301
f 304/304/304 305/305/305 301/301/301
f 305/305/305 306/306/306 301/301/301
f 307/307/307 306/306/306 305/305/305
f 308/308/308 307/307/307 305/305/305
f 306/306/306 309/309/309 301/301/301
f 309/309/309 310/310/310 301/301/301
f 311/311/311 309/309/309 306/306/306
f 312/312/312 311/311/311 306/306/306
f 313/313/313 312/312/312 306/306/306
f 314/314/314 312/312/312 313/313/313
f 315/315/315 314/314/314 313/313/313
f 316/316/316 313/313/313 306/306/306
f 317/317/317 316/316/316 306/306/306
f 318/318/318 317/317/317 306/306/306
f 321/321/321 320/320/320 319/319/319
f 322/322/322 321/321/321 319/319/319
f 323/323/323 322/322/322 319/319/319
f 324/324/324 323/323/323 319/319/319
f 323/323/323 324/324/324 325/325/325
f 326/326/326 323/323/323 325/325/325
f 329/329/329 328/328/328 327/327/327
f 328/328/328 330/330/330 327/327/327
f 328/328/328 331/331/331 330/330/330
f 331/331/331 332/332/332 330/330/330
f 335/335/335 334/334/334 333/333/333
f 334/334/334 336/336/336 333/333/333
f 334/334/334 337/337/337 336/336/336
f 337/337/337 338/338/338 336/336/336
f 341/341/341 340/340/340 339/339/339
f 342/342/342 341/341/341 339/339/339
f 343/343/343 342/342/342 339/339/339
f 344/344/344 342/342/342 343/343/343
f 345/345/345 344/344/344 343/343/343
f 346/346/346 343/343/343 339/339/339
f 347/347/347 343/343/343 346/346/346
f 348/348/348 347/347/347 346/346/346
