g Step_Cover_5
v -2.51999307 -1.79082823 0.0819974467
v -2.52237105 -1.45907867 0.0814163983
v -2.18031526 -1.79082716 0.0813907608
v -2.51999307 -1.79082823 0.0819974467
v -2.18031526 -1.79082716 0.0813907608
v -2.17701936 -1.79082823 0.0819486231
v -2.17697549 -1.79082823 -0.0818892643
v -2.18026161 -1.79082716 -0.0824471265
v -2.52378225 -1.45759988 -0.0824214891
v -2.17697549 -1.79082823 -0.0818892643
v -2.52378225 -1.45759988 -0.0824214891
v -2.5199492 -1.79082823 -0.0818404406
v 0.493532211 0.103310905 0.0814408064
v 1.61566603 0.567923486 0.0819486231
v 0.493229479 -0.377972066 0.0813907608
v 1.61595893 1.03629947 0.0819974467
v 2.52338076 1.33287346 0.0823990628
v 2.52367139 1.79081178 0.082446672
v 0.493229479 -0.377972066 0.0813907608
v 1.61577344 0.567940831 -0.0818892643
v 0.493336886 -0.37795496 -0.0824471265
v 1.61566603 0.567923486 0.0819486231
v 2.52349305 1.33289063 -0.0814388245
v 2.52338076 1.33287346 0.0823990628
v 0.493336886 -0.37795496 -0.0824471265
v 1.61607122 1.03631592 -0.0818404406
v 0.493644506 0.103327692 -0.0823958591
v 1.61577344 0.567940831 -0.0818892643
v 2.5237813 1.79082823 -0.0813912153
v 2.52349305 1.33289063 -0.0814388245
v 0.493644506 0.103327692 -0.0823958591
v 1.61595893 1.03629947 0.0819974467
v 0.493532211 0.103310905 0.0814408064
v 1.61607122 1.03631592 -0.0818404406
v 2.52367139 1.79081178 0.082446672
v 2.5237813 1.79082823 -0.0813912153
v 2.52367139 1.79081178 0.082446672
v 2.5237813 1.79082823 -0.0813912153
v 2.52349305 1.33289063 -0.0814388245
v 2.52338076 1.33287346 0.0823990628
v -0.60512501 0.0981072038 0.0813907608
v 0.493532211 0.103310905 0.0814408064
v 0.493229479 -0.377972066 0.0813907608
v -0.610022426 -0.37795496 0.0813907608
v -0.610022426 -0.37795496 0.0813907608
v 0.493229479 -0.377972066 0.0813907608
v 0.493336886 -0.37795496 -0.0824471265
v -0.610032201 -0.37795496 -0.0824471265
v -0.610032201 -0.37795496 -0.0824471265
v 0.493336886 -0.37795496 -0.0824471265
v 0.493644506 0.103327692 -0.0823958591
v -0.604851544 0.103327841 -0.0824471265
v -0.604851544 0.103327841 -0.0824471265
v 0.493644506 0.103327692 -0.0823958591
v 0.493532211 0.103310905 0.0814408064
v -0.60512501 0.0981072038 0.0813907608
v -2.52378225 -1.45759988 -0.0824214891
v -1.47316694 -0.61850822 0.0819974467
v -2.52237105 -1.45907867 0.0814163983
v -1.47305954 -0.618492663 -0.0818404406
v -0.60512501 0.0981072038 0.0813907608
v -0.604851544 0.103327841 -0.0824471265
v -0.60512501 0.0981072038 0.0813907608
v -0.604851544 0.103327841 -0.0824471265
v -0.610032201 -0.37795496 -0.0824471265
v -0.610022426 -0.37795496 0.0813907608
v -1.47316694 -0.61850822 0.0819974467
v -0.60512501 0.0981072038 0.0813907608
v -0.610022426 -0.37795496 0.0813907608
v -1.47346473 -1.08475971 0.0819486231
v -2.52237105 -1.45907867 0.0814163983
v -2.17272735 -1.64806807 0.0814798698
v -2.18031526 -1.79082716 0.0813907608
v -1.47335243 -1.08474386 -0.0818892643
v -0.610032201 -0.37795496 -0.0824471265
v -0.604851544 0.103327841 -0.0824471265
v -1.47305954 -0.618492663 -0.0818404406
v -2.16712189 -1.64252341 -0.0823543519
v -2.52378225 -1.45759988 -0.0824214891
v -2.18026161 -1.79082716 -0.0824471265
v -1.47346473 -1.08475971 0.0819486231
v -0.610022426 -0.37795496 0.0813907608
v -0.610032201 -0.37795496 -0.0824471265
v -1.47335243 -1.08474386 -0.0818892643
v -2.17272735 -1.64806807 0.0814798698
v -2.16712189 -1.64252341 -0.0823543519
v -2.18031526 -1.79082716 0.0813907608
v -2.18026161 -1.79082716 -0.0824471265
v -2.52237105 -1.45907867 0.0814163983
v -2.52378225 -1.45759988 -0.0824214891
v -2.18026161 -1.79082716 -0.0824471265
v -2.18031526 -1.79082716 0.0813907608
v -2.5199492 -1.79082823 -0.0818404406
v -2.52378225 -1.45759988 -0.0824214891
v -2.52237105 -1.45907867 0.0814163983
v -2.51999307 -1.79082823 0.0819974467
v -2.17701936 -1.79082823 0.0819486231
v -2.18031526 -1.79082716 0.0813907608
v -2.18026161 -1.79082716 -0.0824471265
v -2.17697549 -1.79082823 -0.0818892643
vt 0.859863281 0.907226562
vt 0.788574219 0.907226562
vt 0.788574219 0.94921875
vt 0.859863281 0.907226562
vt 0.788574219 0.94921875
vt 0.859863281 0.94921875
vt 0.857910156 0.949707031
vt 0.788574219 0.949707031
vt 0.788574219 0.907714844
vt 0.857910156 0.949707031
vt 0.788574219 0.907714844
vt 0.857910156 0.907714844
vt 0.567871094 0.907226562
vt 0.7265625 0.94921875
vt 0.567871094 0.94921875
vt 0.7265625 0.907226562
vt 0.854980469 0.94921875
vt 0.854980469 0.907226562
vt 0.685058594 0.915527344
vt 0.555664062 0.937988281
vt 0.685058594 0.937988281
vt 0.555664062 0.915527344
vt 0.450927734 0.937988281
vt 0.450927734 0.915527344
vt 0.854980469 0.949707031
vt 0.696289062 0.907714844
vt 0.854980469 0.907714844
vt 0.696289062 0.949707031
vt 0.567871094 0.907714844
vt 0.567871094 0.949707031
vt 0.452148438 0.9375
vt 0.672363281 0.915039062
vt 0.452148438 0.915039062
vt 0.672363281 0.9375
vt 0.850585938 0.915039062
vt 0.850585938 0.9375
vt 0.6796875 0.915039062
vt 0.6796875 0.9375
vt 0.685058594 0.9375
vt 0.685058594 0.915039062
vt 0.522460938 0.907226562
vt 0.709960938 0.907226562
vt 0.709960938 0.94921875
vt 0.522460938 0.94921875
vt 0.638671875 0.915527344
vt 0.451171875 0.915527344
vt 0.451171875 0.937988281
vt 0.638671875 0.937988281
vt 0.709960938 0.949707031
vt 0.522460938 0.949707031
vt 0.522460938 0.907714844
vt 0.709960938 0.907714844
vt 0.638671875 0.9375
vt 0.451171875 0.9375
vt 0.451171875 0.915039062
vt 0.638671875 0.915039062
vt 0.450927734 0.9375
vt 0.580078125 0.915039062
vt 0.450927734 0.915039062
vt 0.580078125 0.9375
vt 0.685058594 0.915039062
vt 0.685058594 0.9375
vt 0.6796875 0.915039062
vt 0.6796875 0.9375
vt 0.685058594 0.9375
vt 0.685058594 0.915039062
vt 0.635253906 0.907226562
vt 0.515136719 0.907226562
vt 0.515136719 0.94921875
vt 0.635253906 0.94921875
vt 0.784179688 0.907226562
vt 0.760742188 0.94921875
vt 0.784179688 0.94921875
vt 0.6640625 0.949707031
vt 0.784179688 0.949707031
vt 0.784179688 0.907714844
vt 0.6640625 0.907714844
vt 0.540039062 0.949707031
vt 0.515136719 0.907714844
vt 0.515136719 0.949707031
vt 0.555664062 0.915527344
vt 0.450927734 0.915527344
vt 0.450927734 0.937988281
vt 0.555664062 0.937988281
vt 0.6640625 0.915527344
vt 0.663085938 0.937988281
vt 0.685058594 0.915527344
vt 0.685058594 0.937988281
vt 0.657714844 0.915039062
vt 0.657714844 0.9375
vt 0.661621094 0.9375
vt 0.661621094 0.915039062
vt 0.612304688 0.9375
vt 0.6953125 0.9375
vt 0.6953125 0.915039062
vt 0.612304688 0.915039062
vt 0.592773438 0.915527344
vt 0.509765625 0.915527344
vt 0.509765625 0.937988281
vt 0.592773438 0.937988281
vn 0.000953674316 0.00254821777 1
vn 0.000953674316 0.00254821777 1
vn 0.000953674316 0.00254821777 1
vn 0.000953674316 0.00254821777 1
vn 0.000953674316 0.00254821777 1
vn 0.000953674316 0.00254821777 1
vn -0.000955581665 -0.00254249573 -1
vn -0.000955581665 -0.00254249573 -1
vn -0.000955581665 -0.00254249573 -1
vn -0.000955581665 -0.00254249573 -1
vn -0.000955581665 -0.00254249573 -1
vn -0.000955581665 -0.00254249573 -1
vn -0.00040769577 -0.000103831291 1
vn -0.000408887863 -0.000103831291 1
vn -0.00040769577 -0.000103831291 1
vn -0.00041103363 -0.000103831291 1
vn -0.00041270256 -0.000103831291 1
vn -0.00041270256 -0.000103831291 1
vn 0.64453125 -0.764648438 0.000350952148
vn 0.64453125 -0.764648438 0.00035238266
vn 0.64453125 -0.764648438 0.000350952148
vn 0.64453125 -0.764648438 0.00035238266
vn 0.64453125 -0.764648438 0.000354528427
vn 0.64453125 -0.764648438 0.000354528427
vn 0.000406265259 0.000105142593 -1
vn 0.0004093647 0.000104248524 -1
vn 0.000406265259 0.000105142593 -1
vn 0.000407218933 0.00010484457 -1
vn 0.000410795212 0.000103831291 -1
vn 0.000410795212 0.000103831291 -1
vn -0.639160156 0.769042969 -0.000350475311
vn -0.639160156 0.769042969 -0.000351667404
vn -0.639160156 0.769042969 -0.000350475311
vn -0.639160156 0.769042969 -0.000351667404
vn -0.639160156 0.769042969 -0.000353574753
vn -0.639160156 0.769042969 -0.000353574753
vn 1 -0.000629901886 0.000678062439
vn 1 -0.000629901886 0.000678062439
vn 1 -0.000629901886 0.000678062439
vn 1 -0.000629901886 0.000678062439
vn -2.22325325E-05 -5.21540642E-05 1
vn -2.22325325E-05 -5.21540642E-05 1
vn -2.22325325E-05 -5.21540642E-05 1
vn -2.22325325E-05 -5.21540642E-05 1
vn -7.74860382E-06 -1 -5.1856041E-05
vn -7.74860382E-06 -1 -5.1856041E-05
vn -7.74860382E-06 -1 -5.1856041E-05
vn -7.74860382E-06 -1 -5.1856041E-05
vn 2.36034393E-05 5.31077385E-05 -1
vn 2.36034393E-05 5.31077385E-05 -1
vn 2.36034393E-05 5.31077385E-05 -1
vn 2.36034393E-05 5.31077385E-05 -1
vn -0.002368927 1 0.0159759521
vn -0.002368927 1 0.0159759521
vn -0.002368927 1 0.0159759521
vn -0.002368927 1 0.0159759521
vn -0.624511719 0.780761719 0.00604248047
vn -0.630859375 0.775878906 0.00856018066
vn -0.624511719 0.780761719 0.00604248047
vn -0.630859375 0.775878906 0.00856018066
vn -0.637695312 0.770019531 0.0115585327
vn -0.637695312 0.770019531 0.0115585327
vn 1 -0.0105285645 0.000637054443
vn 1 -0.0105285645 0.000637054443
vn 1 -0.0105285645 0.000637054443
vn 1 -0.0105285645 0.000637054443
vn 0.000389575958 -0.000128865242 1
vn 0.000717639923 -5.57899475E-05 1
vn 0.000717639923 -5.57899475E-05 1
vn -9.76324081E-05 -0.000237226486 1
vn -0.000398635864 -0.000304222107 1
vn -0.000438213348 -0.000231981277 1
vn -0.000398635864 -0.000304222107 1
vn 9.57250595E-05 0.000237226486 -1
vn -0.000719547272 5.56707382E-05 -1
vn -0.000719547272 5.56707382E-05 -1
vn -0.000391721725 0.000128626823 -1
vn 0.000437259674 0.000232100487 -1
vn 0.000397443771 0.000304460526 -1
vn 0.000397443771 0.000304460526 -1
vn 0.639648438 -0.768554688 0.000212192535
vn 0.633300781 -0.773925781 0.000155448914
vn 0.633300781 -0.773925781 0.000155448914
vn 0.639648438 -0.768554688 0.000212192535
vn 0.710449219 -0.704101562 0.000423908234
vn 0.703125 -0.7109375 0.000180363655
vn 0.647460938 -0.762207031 0.000280380249
vn 0.647460938 -0.762207031 0.000280380249
vn 0.552246094 0.833496094 0.00147438049
vn 0.552246094 0.833496094 0.00147438049
vn 0.552246094 0.833496094 0.00147438049
vn 0.552246094 0.833496094 0.00147438049
vn -1 -0.00916290283 0.00413131714
vn -1 -0.00916290283 0.00413131714
vn -1 -0.00916290283 0.00413131714
vn -1 -0.00916290283 0.00413131714
vn 0.999511719 0.0295410156 0.000298023224
vn 0.999511719 0.0295410156 0.000298023224
vn 0.999511719 0.0295410156 0.000298023224
vn 0.999511719 0.0295410156 0.000298023224
g Step_Cover_5_0
f 3/3/3 2/2/2 1/1/1
f 6/6/6 5/5/5 4/4/4
f 9/9/9 8/8/8 7/7/7
f 12/12/12 11/11/11 10/10/10
f 15/15/15 14/14/14 13/13/13
f 14/14/14 16/16/16 13/13/13
f 14/14/14 17/17/17 16/16/16
f 17/17/17 18/18/18 16/16/16
f 21/21/21 20/20/20 19/19/19
f 20/20/20 22/22/22 19/19/19
f 20/20/20 23/23/23 22/22/22
f 23/23/23 24/24/24 22/22/22
f 27/27/27 26/26/26 25/25/25
f 26/26/26 28/28/28 25/25/25
f 26/26/26 29/29/29 28/28/28
f 29/29/29 30/30/30 28/28/28
f 33/33/33 32/32/32 31/31/31
f 32/32/32 34/34/34 31/31/31
f 32/32/32 35/35/35 34/34/34
f 35/35/35 36/36/36 34/34/34
f 39/39/39 38/38/38 37/37/37
f 40/40/40 39/39/39 37/37/37
f 43/43/43 42/42/42 41/41/41
f 44/44/44 43/43/43 41/41/41
f 47/47/47 46/46/46 45/45/45
f 48/48/48 47/47/47 45/45/45
f 51/51/51 50/50/50 49/49/49
f 52/52/52 51/51/51 49/49/49
f 55/55/55 54/54/54 53/53/53
f 56/56/56 55/55/55 53/53/53
f 59/59/59 58/58/58 57/57/57
f 58/58/58 60/60/60 57/57/57
f 58/58/58 61/61/61 60/60/60
f 61/61/61 62/62/62 60/60/60
f 65/65/65 64/64/64 63/63/63
f 66/66/66 65/65/65 63/63/63
f 69/69/69 68/68/68 67/67/67
f 70/70/70 69/69/69 67/67/67
f 70/70/70 67/67/67 71/71/71
f 72/72/72 70/70/70 71/71/71
f 73/73/73 72/72/72 71/71/71
f 76/76/76 75/75/75 74/74/74
f 77/77/77 76/76/76 74/74/74
f 77/77/77 74/74/74 78/78/78
f 79/79/79 77/77/77 78/78/78
f 79/79/79 78/78/78 80/80/80
f 83/83/83 82/82/82 81/81/81
f 84/84/84 83/83/83 81/81/81
f 84/84/84 81/81/81 85/85/85
f 86/86/86 84/84/84 85/85/85
f 86/86/86 85/85/85 87/87/87
f 88/88/88 86/86/86 87/87/87
f 91/91/91 90/90/90 89/89/89
f 92/92/92 91/91/91 89/89/89
f 95/95/95 94/94/94 93/93/93
f 96/96/96 95/95/95 93/93/93
f 99/99/99 98/98/98 97/97/97
f 100/100/100 99/99/99 97/97/97
