g RodRoom_CoffeeTable
v 0.582105875 0 -0.756993234
v 0.582105875 0.799999952 -0.756993234
v 0.642105877 0.799999952 -0.756993234
v 0.642105877 0 -0.756993234
v 0.582105875 0.799999952 -0.816993237
v 0.582105875 0 -0.816993237
v 0.642105877 0 -0.816993237
v 0.642105877 0.799999952 -0.816993237
v 0.642105877 0 -0.756993234
v 0.642105877 0.799999952 -0.756993234
v 0.642105877 0.799999952 -0.816993237
v 0.642105877 0 -0.816993237
v 0.582105875 0 -0.816993237
v 0.582105875 0.799999952 -0.816993237
v 0.582105875 0.799999952 -0.756993234
v 0.582105875 0 -0.756993234
v 0.582105875 0 0.816993237
v 0.582105875 0.799999952 0.816993237
v 0.642105877 0.799999952 0.816993237
v 0.642105877 0 0.816993237
v 0.582105875 0.799999952 0.756993234
v 0.582105875 0 0.756993234
v 0.642105877 0 0.756993234
v 0.642105877 0.799999952 0.756993234
v 0.642105877 0 0.816993237
v 0.642105877 0.799999952 0.816993237
v 0.642105877 0.799999952 0.756993234
v 0.642105877 0 0.756993234
v 0.582105875 0 0.756993234
v 0.582105875 0.799999952 0.756993234
v 0.582105875 0.799999952 0.816993237
v 0.582105875 0 0.816993237
v -0.612105846 0.747083962 0.786993265
v -0.612105846 0.812138736 0.786993265
v 0.612105846 0.812138736 0.786993265
v 0.612105846 0.747083962 0.786993265
v -0.612105846 0.812138736 -0.786993265
v -0.612105846 0.747083962 -0.786993265
v 0.612105846 0.747083962 -0.786993265
v 0.612105846 0.812138736 -0.786993265
v 0.612105846 0.812138736 0
v 0.612105846 0.812138736 -0.786993265
v 0.612105846 0.747083962 -0.786993265
v 0.612105846 0.747083962 0
v 0.612105846 0.747083962 0.786993265
v 0.612105846 0.812138736 0.786993265
v -0.612105846 0.812138736 0
v -0.612105846 0.812138736 0.786993265
v -0.612105846 0.747083962 0.786993265
v -0.612105846 0.747083962 0
v -0.612105846 0.747083962 -0.786993265
v -0.612105846 0.812138736 -0.786993265
v -0.699999988 0.793460667 0.899999976
v -0.699999988 0.85346067 0.899999976
v 0.699999988 0.85346067 0.899999976
v 0.699999988 0.793460667 0.899999976
v -0.699999988 0.85346067 0
v -0.699999988 0.85346067 -0.899999976
v 0.699999988 0.85346067 -0.899999976
v 0.699999988 0.85346067 0
v -0.699999988 0.85346067 -0.899999976
v -0.699999988 0.793460667 -0.899999976
v 0.699999988 0.793460667 -0.899999976
v 0.699999988 0.85346067 -0.899999976
v -0.699999988 0.793460667 -0.899999976
v -0.699999988 0.793460667 0
v 0.699999988 0.793460667 0
v 0.699999988 0.793460667 -0.899999976
v 0.699999988 0.85346067 0
v 0.699999988 0.85346067 -0.899999976
v 0.699999988 0.793460667 -0.899999976
v 0.699999988 0.793460667 0
v -0.699999988 0.793460667 -0.899999976
v -0.699999988 0.85346067 -0.899999976
v -0.699999988 0.85346067 0
v -0.699999988 0.793460667 0
v -0.642105877 0 -0.756993234
v -0.642105877 0.799999952 -0.756993234
v -0.582105875 0.799999952 -0.756993234
v -0.582105875 0 -0.756993234
v -0.642105877 0.799999952 -0.816993237
v -0.642105877 0 -0.816993237
v -0.582105875 0 -0.816993237
v -0.582105875 0.799999952 -0.816993237
v -0.582105875 0 -0.756993234
v -0.582105875 0.799999952 -0.756993234
v -0.582105875 0.799999952 -0.816993237
v -0.582105875 0 -0.816993237
v -0.642105877 0 -0.816993237
v -0.642105877 0.799999952 -0.816993237
v -0.642105877 0.799999952 -0.756993234
v -0.642105877 0 -0.756993234
v -0.642105877 0 0.816993237
v -0.642105877 0.799999952 0.816993237
v -0.582105875 0.799999952 0.816993237
v -0.582105875 0 0.816993237
v -0.642105877 0.799999952 0.756993234
v -0.642105877 0 0.756993234
v -0.582105875 0 0.756993234
v -0.582105875 0.799999952 0.756993234
v -0.582105875 0 0.816993237
v -0.582105875 0.799999952 0.816993237
v -0.582105875 0.799999952 0.756993234
v -0.582105875 0 0.756993234
v -0.642105877 0 0.756993234
v -0.642105877 0.799999952 0.756993234
v -0.642105877 0.799999952 0.816993237
v -0.642105877 0 0.816993237
v -0.612105846 0.747083962 -0.786993265
v -0.554105878 0.747083962 -0.728993237
v 0.554105878 0.747083962 -0.728993237
v 0.612105846 0.747083962 -0.786993265
v 0.612105846 0.747083962 -0.786993265
v 0.554105878 0.747083962 -0.728993237
v 0.554105878 0.747083962 0
v 0.612105846 0.747083962 0
v 0.612105846 0.747083962 0.786993265
v 0.554105878 0.747083962 0.728993237
v 0.612105846 0.747083962 0.786993265
v 0.554105878 0.747083962 0.728993237
v -0.554105878 0.747083962 0.728993237
v -0.612105846 0.747083962 0.786993265
v -0.612105846 0.747083962 0.786993265
v -0.554105878 0.747083962 0.728993237
v -0.554105878 0.747083962 0
v -0.612105846 0.747083962 0
v -0.612105846 0.747083962 -0.786993265
v -0.554105878 0.747083962 -0.728993237
v -0.554105878 0.747083962 -0.728993237
v -0.554105878 0.812138736 -0.728993237
v 0.554105878 0.812138736 -0.728993237
v 0.554105878 0.747083962 -0.728993237
v 0.554105878 0.747083962 -0.728993237
v 0.554105878 0.812138736 -0.728993237
v 0.554105878 0.812138736 0
v 0.554105878 0.747083962 0
v 0.554105878 0.747083962 0.728993237
v 0.554105878 0.812138736 0.728993237
v 0.554105878 0.747083962 0.728993237
v 0.554105878 0.812138736 0.728993237
v -0.554105878 0.812138736 0.728993237
v -0.554105878 0.747083962 0.728993237
v -0.554105878 0.747083962 0.728993237
v -0.554105878 0.812138736 0.728993237
v -0.554105878 0.812138736 0
v -0.554105878 0.747083962 0
v -0.554105878 0.747083962 -0.728993237
v -0.554105878 0.812138736 -0.728993237
v -0.699999988 0.85346067 0.899999976
v -0.699999988 0.85346067 0
v 0.699999988 0.85346067 0
v 0.699999988 0.85346067 0.899999976
v 0.699999988 0.793460667 0.899999976
v 0.699999988 0.85346067 0.899999976
v 0.699999988 0.85346067 0
v 0.699999988 0.793460667 0
v -0.699999988 0.793460667 0
v -0.699999988 0.793460667 0.899999976
v 0.699999988 0.793460667 0.899999976
v 0.699999988 0.793460667 0
v -0.699999988 0.85346067 0
v -0.699999988 0.85346067 0.899999976
v -0.699999988 0.793460667 0.899999976
v -0.699999988 0.793460667 0
vt 0.387207031 0.363525391
vt 0.387207031 0.548828125
vt 0.401123047 0.548828125
vt 0.401123047 0.363525391
vt 0.428955078 0.548828125
vt 0.428955078 0.363525391
vt 0.415039062 0.363525391
vt 0.415039062 0.548828125
vt 0.401123047 0.363525391
vt 0.401123047 0.548828125
vt 0.415039062 0.548828125
vt 0.415039062 0.363525391
vt 0.428955078 0.363525391
vt 0.428955078 0.548828125
vt 0.442626953 0.548828125
vt 0.442626953 0.363525391
vt 0.428955078 0.548828125
vt 0.428955078 0.363525391
vt 0.415039062 0.363525391
vt 0.415039062 0.548828125
vt 0.387207031 0.363525391
vt 0.387207031 0.548828125
vt 0.401123047 0.548828125
vt 0.401123047 0.363525391
vt 0.415039062 0.548828125
vt 0.415039062 0.363525391
vt 0.401123047 0.363525391
vt 0.401123047 0.548828125
vt 0.442626953 0.548828125
vt 0.442626953 0.363525391
vt 0.428955078 0.363525391
vt 0.428955078 0.548828125
vt 0.186523438 0.801269531
vt 0.201416016 0.801269531
vt 0.201416016 0.52734375
vt 0.186523438 0.527832031
vt 0.201416016 0.525878906
vt 0.186523438 0.525878906
vt 0.186523438 0.799316406
vt 0.201416016 0.799316406
vt 0.201416016 0.664550781
vt 0.201416016 0.480224609
vt 0.186523438 0.480224609
vt 0.186523438 0.664550781
vt 0.186523438 0.849121094
vt 0.201416016 0.849121094
vt 0.201416016 0.664550781
vt 0.201416016 0.480224609
vt 0.186523438 0.480224609
vt 0.186523438 0.664550781
vt 0.186523438 0.849121094
vt 0.201416016 0.849121094
vt 0.204223633 0.327148438
vt 0.215087891 0.327148438
vt 0.215087891 0.584960938
vt 0.204223633 0.584960938
vt 0.381103516 0.327148438
vt 0.215087891 0.327148438
vt 0.215087891 0.584960938
vt 0.381103516 0.584960938
vt 0.215087891 0.327148438
vt 0.204223633 0.327148438
vt 0.204223633 0.584960938
vt 0.215087891 0.584960938
vt 0.215087891 0.584960938
vt 0.381103516 0.584960938
vt 0.381103516 0.327148438
vt 0.215087891 0.327148438
vt 0.215087891 0.584960938
vt 0.215087891 0.419433594
vt 0.204223633 0.419433594
vt 0.204223633 0.584960938
vt 0.204223633 0.493164062
vt 0.215087891 0.493164062
vt 0.215087891 0.327148438
vt 0.204223633 0.327148438
vt 0.428955078 0.363525391
vt 0.428955078 0.548828125
vt 0.442626953 0.548828125
vt 0.442626953 0.363525391
vt 0.415039062 0.548828125
vt 0.415039062 0.363525391
vt 0.401123047 0.363525391
vt 0.401123047 0.548828125
vt 0.387207031 0.363525391
vt 0.387207031 0.548828125
vt 0.401123047 0.548828125
vt 0.401123047 0.363525391
vt 0.415039062 0.363525391
vt 0.415039062 0.548828125
vt 0.428955078 0.548828125
vt 0.428955078 0.363525391
vt 0.415039062 0.363525391
vt 0.415039062 0.548828125
vt 0.428955078 0.548828125
vt 0.428955078 0.363525391
vt 0.401123047 0.548828125
vt 0.401123047 0.363525391
vt 0.387207031 0.363525391
vt 0.387207031 0.548828125
vt 0.428955078 0.363525391
vt 0.428955078 0.548828125
vt 0.442626953 0.548828125
vt 0.442626953 0.363525391
vt 0.401123047 0.363525391
vt 0.401123047 0.548828125
vt 0.415039062 0.548828125
vt 0.415039062 0.363525391
vt 0.186523438 0.525878906
vt 0.173461914 0.538574219
vt 0.173461914 0.786621094
vt 0.186523438 0.799316406
vt 0.186523438 0.480224609
vt 0.173461914 0.493896484
vt 0.173461914 0.664550781
vt 0.186523438 0.664550781
vt 0.186523438 0.849121094
vt 0.173461914 0.835449219
vt 0.186523438 0.527832031
vt 0.173461914 0.540527344
vt 0.173461914 0.788085938
vt 0.186523438 0.801269531
vt 0.186523438 0.480224609
vt 0.173461914 0.493896484
vt 0.173461914 0.664550781
vt 0.186523438 0.664550781
vt 0.186523438 0.849121094
vt 0.173461914 0.835449219
vt 0.173461914 0.538574219
vt 0.158935547 0.538574219
vt 0.158935547 0.786621094
vt 0.173461914 0.786621094
vt 0.173461914 0.493896484
vt 0.158935547 0.493896484
vt 0.158935547 0.664550781
vt 0.173461914 0.664550781
vt 0.173461914 0.835449219
vt 0.158935547 0.835449219
vt 0.173461914 0.540527344
vt 0.158935547 0.540527344
vt 0.158935547 0.788085938
vt 0.173461914 0.788085938
vt 0.173461914 0.493896484
vt 0.158935547 0.493896484
vt 0.158935547 0.664550781
vt 0.173461914 0.664550781
vt 0.173461914 0.835449219
vt 0.158935547 0.835449219
vt 0.215087891 0.327148438
vt 0.381103516 0.327148438
vt 0.381103516 0.584960938
vt 0.215087891 0.584960938
vt 0.204223633 0.41796875
vt 0.215087891 0.41796875
vt 0.215087891 0.584960938
vt 0.204223633 0.584960938
vt 0.381103516 0.584960938
vt 0.215087891 0.584960938
vt 0.215087891 0.327148438
vt 0.381103516 0.327148438
vt 0.215087891 0.327148438
vt 0.215087891 0.493164062
vt 0.204223633 0.493164062
vt 0.204223633 0.327148438
vn -0 0 1
vn -0 0 1
vn -0 0 1
vn -0 0 1
vn -0 0 -1
vn -0 0 -1
vn -0 0 -1
vn -0 0 -1
vn 1 0 0
vn 1 0 0
vn 1 0 0
vn 1 0 0
vn -1 0 0
vn -1 0 0
vn -1 0 0
vn -1 0 0
vn -0 0 1
vn -0 0 1
vn -0 0 1
vn -0 0 1
vn -0 0 -1
vn -0 0 -1
vn -0 0 -1
vn -0 0 -1
vn 1 0 0
vn 1 0 0
vn 1 0 0
vn 1 0 0
vn -1 0 0
vn -1 0 0
vn -1 0 0
vn -1 0 0
vn -0 0 1
vn -0 0 1
vn -0 0 1
vn -0 0 1
vn -0 0 -1
vn -0 0 -1
vn -0 0 -1
vn -0 0 -1
vn 1 0 0
vn 1 0 0
vn 1 0 0
vn 1 0 0
vn 1 0 0
vn 1 0 0
vn -1 0 0
vn -1 0 0
vn -1 0 0
vn -1 0 0
vn -1 0 0
vn -1 0 0
vn -0 0 1
vn -0 0 1
vn -0 0 1
vn -0 0 1
vn -0 1 0
vn -0 1 0
vn -0 1 0
vn -0 1 0
vn -0 0 -1
vn -0 0 -1
vn -0 0 -1
vn -0 0 -1
vn -0 -1 0
vn -0 -1 0
vn -0 -1 0
vn -0 -1 0
vn 1 0 0
vn 1 0 0
vn 1 0 0
vn 1 0 0
vn -1 0 0
vn -1 0 0
vn -1 0 0
vn -1 0 0
vn -0 0 1
vn -0 0 1
vn -0 0 1
vn -0 0 1
vn -0 0 -1
vn -0 0 -1
vn -0 0 -1
vn -0 0 -1
vn 1 0 0
vn 1 0 0
vn 1 0 0
vn 1 0 0
vn -1 0 0
vn -1 0 0
vn -1 0 0
vn -1 0 0
vn -0 0 1
vn -0 0 1
vn -0 0 1
vn -0 0 1
vn -0 0 -1
vn -0 0 -1
vn -0 0 -1
vn -0 0 -1
vn 1 0 0
vn 1 0 0
vn 1 0 0
vn 1 0 0
vn -1 0 0
vn -1 0 0
vn -1 0 0
vn -1 0 0
vn -0 -1 0
vn -0 -1 0
vn -0 -1 0
vn -0 -1 0
vn -0 -1 0
vn -0 -1 0
vn -0 -1 0
vn -0 -1 0
vn -0 -1 0
vn -0 -1 0
vn -0 -1 0
vn -0 -1 0
vn -0 -1 0
vn -0 -1 0
vn -0 -1 0
vn -0 -1 0
vn -0 -1 0
vn -0 -1 0
vn -0 -1 0
vn -0 -1 0
vn -0 0 1
vn -0 0 1
vn -0 0 1
vn -0 0 1
vn -1 0 0
vn -1 0 0
vn -1 0 0
vn -1 0 0
vn -1 0 0
vn -1 0 0
vn -0 0 -1
vn -0 0 -1
vn -0 0 -1
vn -0 0 -1
vn 1 0 0
vn 1 0 0
vn 1 0 0
vn 1 0 0
vn 1 0 0
vn 1 0 0
vn -0 1 0
vn -0 1 0
vn -0 1 0
vn -0 1 0
vn 1 0 0
vn 1 0 0
vn 1 0 0
vn 1 0 0
vn -0 -1 0
vn -0 -1 0
vn -0 -1 0
vn -0 -1 0
vn -1 0 0
vn -1 0 0
vn -1 0 0
vn -1 0 0
g RodRoom_CoffeeTable_0
f 3/3/3 2/2/2 1/1/1
f 4/4/4 3/3/3 1/1/1
f 7/7/7 6/6/6 5/5/5
f 8/8/8 7/7/7 5/5/5
f 11/11/11 10/10/10 9/9/9
f 12/12/12 11/11/11 9/9/9
f 15/15/15 14/14/14 13/13/13
f 16/16/16 15/15/15 13/13/13
f 19/19/19 18/18/18 17/17/17
f 20/20/20 19/19/19 17/17/17
f 23/23/23 22/22/22 21/21/21
f 24/24/24 23/23/23 21/21/21
f 27/27/27 26/26/26 25/25/25
f 28/28/28 27/27/27 25/25/25
f 31/31/31 30/30/30 29/29/29
f 32/32/32 31/31/31 29/29/29
f 35/35/35 34/34/34 33/33/33
f 36/36/36 35/35/35 33/33/33
f 39/39/39 38/38/38 37/37/37
f 40/40/40 39/39/39 37/37/37
f 43/43/43 42/42/42 41/41/41
f 44/44/44 43/43/43 41/41/41
f 44/44/44 41/41/41 45/45/45
f 41/41/41 46/46/46 45/45/45
f 49/49/49 48/48/48 47/47/47
f 50/50/50 49/49/49 47/47/47
f 50/50/50 47/47/47 51/51/51
f 47/47/47 52/52/52 51/51/51
f 55/55/55 54/54/54 53/53/53
f 56/56/56 55/55/55 53/53/53
f 59/59/59 58/58/58 57/57/57
f 60/60/60 59/59/59 57/57/57
f 63/63/63 62/62/62 61/61/61
f 64/64/64 63/63/63 61/61/61
f 67/67/67 66/66/66 65/65/65
f 68/68/68 67/67/67 65/65/65
f 71/71/71 70/70/70 69/69/69
f 72/72/72 71/71/71 69/69/69
f 75/75/75 74/74/74 73/73/73
f 76/76/76 75/75/75 73/73/73
f 79/79/79 78/78/78 77/77/77
f 80/80/80 79/79/79 77/77/77
f 83/83/83 82/82/82 81/81/81
f 84/84/84 83/83/83 81/81/81
f 87/87/87 86/86/86 85/85/85
f 88/88/88 87/87/87 85/85/85
f 91/91/91 90/90/90 89/89/89
f 92/92/92 91/91/91 89/89/89
f 95/95/95 94/94/94 93/93/93
f 96/96/96 95/95/95 93/93/93
f 99/99/99 98/98/98 97/97/97
f 100/100/100 99/99/99 97/97/97
f 103/103/103 102/102/102 101/101/101
f 104/104/104 103/103/103 101/101/101
f 107/107/107 106/106/106 105/105/105
f 108/108/108 107/107/107 105/105/105
f 111/111/111 110/110/110 109/109/109
f 112/112/112 111/111/111 109/109/109
f 115/115/115 114/114/114 113/113/113
f 116/116/116 115/115/115 113/113/113
f 116/116/116 117/117/117 115/115/115
f 117/117/117 118/118/118 115/115/115
f 121/121/121 120/120/120 119/119/119
f 122/122/122 121/121/121 119/119/119
f 125/125/125 124/124/124 123/123/123
f 126/126/126 125/125/125 123/123/123
f 126/126/126 127/127/127 125/125/125
f 127/127/127 128/128/128 125/125/125
f 131/131/131 130/130/130 129/129/129
f 132/132/132 131/131/131 129/129/129
f 135/135/135 134/134/134 133/133/133
f 136/136/136 135/135/135 133/133/133
f 136/136/136 137/137/137 135/135/135
f 137/137/137 138/138/138 135/135/135
f 141/141/141 140/140/140 139/139/139
f 142/142/142 141/141/141 139/139/139
f 145/145/145 144/144/144 143/143/143
f 146/146/146 145/145/145 143/143/143
f 146/146/146 147/147/147 145/145/145
f 147/147/147 148/148/148 145/145/145
f 151/151/151 150/150/150 149/149/149
f 152/152/152 151/151/151 149/149/149
f 155/155/155 154/154/154 153/153/153
f 156/156/156 155/155/155 153/153/153
f 159/159/159 158/158/158 157/157/157
f 160/160/160 159/159/159 157/157/157
f 163/163/163 162/162/162 161/161/161
f 164/164/164 163/163/163 161/161/161
