g Exterior_Grass_12
v -7.48882498 0.392135152 -2.22847538
v -7.48882498 0.392135152 -4.42825794
v -5.28904242 0.277363888 -2.24760392
v -5.25078533 0.43039224 -0.086078448
v -5.28904242 0.277363888 -2.24760392
v -2.97448859 0.33474952 -0.219978256
v -7.48882498 0.392135152 -4.42825794
v -7.48882498 0.392135152 -2.22847538
v -8.04355275 0.392135152 -2.22847538
v -7.48882498 0.392135152 -4.42825794
v -8.04355275 0.392135152 -2.22847538
v -7.71836751 0.392135152 -3.43357365
v -7.48882498 -0.277363888 4.27522959
v -7.48882498 -0.296492432 4.19871541
v -9.17213685 -0.602549136 4.44738648
v -5.28904242 0.086078448 4.33261522
v -5.28904242 0.33474952 2.1519612
v -3.05100277 0.315620976 2.11370411
v -3.08925986 0.181721168 4.37087231
v -5.28904242 0.33474952 2.1519612
v -5.25078533 0.43039224 -0.086078448
v -2.97448859 0.33474952 -0.219978256
v -3.05100277 0.315620976 2.11370411
v -3.08925986 0.181721168 4.37087231
v -3.05100277 0.315620976 2.11370411
v -0.889477296 0.258235344 2.1519612
v -0.889477296 0.277363888 4.35174376
v -3.05100277 0.315620976 2.11370411
v -2.97448859 0.33474952 -0.219978256
v -0.851220208 0.277363888 -0.086078448
v -0.889477296 0.258235344 2.1519612
v -0.889477296 0.277363888 4.35174376
v -0.889477296 0.258235344 2.1519612
v 1.31030526 0.392135152 2.17108974
v 1.31030526 0.373006608 4.37087231
v -0.889477296 0.258235344 2.1519612
v -0.851220208 0.277363888 -0.086078448
v 1.31030526 0.449520784 -0.028692816
v 1.31030526 0.392135152 2.17108974
v 1.31030526 0.373006608 4.37087231
v 1.31030526 0.392135152 2.17108974
v 3.51008783 0.487777872 2.17108974
v 3.51008783 0.411263696 4.37087231
v 1.31030526 0.392135152 2.17108974
v 1.31030526 0.449520784 -0.028692816
v 3.51008783 0.468649328 -0.028692816
v 3.51008783 0.487777872 2.17108974
v 3.51008783 0.411263696 4.37087231
v 3.51008783 0.487777872 2.17108974
v 5.70987039 0.506906416 2.1519612
v 5.70987039 0.449520784 4.35174376
v 5.70987039 0.449520784 4.35174376
v 5.70987039 0.506906416 2.1519612
v 7.81401023 0.52603496 2.17108974
v 7.81401023 0.583420592 4.37087231
v 7.81401023 0.583420592 4.37087231
v 7.81401023 0.52603496 2.17108974
v 9.78425026 0.43039224 2.17108974
v 9.78425026 0.640806224 4.37087231
v -7.48882498 -0.124335536 4.17958687
v -7.48882498 0.219978256 2.1519612
v -5.28904242 0.33474952 2.1519612
v -5.28904242 0.086078448 4.33261522
v -7.48882498 0.258235344 -0.028692816
v -7.48882498 0.392135152 -2.22847538
v -5.28904242 0.277363888 -2.24760392
v -5.25078533 0.43039224 -0.086078448
v -7.48882498 0.219978256 2.1519612
v -7.48882498 0.258235344 -0.028692816
v -5.25078533 0.43039224 -0.086078448
v -5.28904242 0.33474952 2.1519612
v -9.4973221 0.219978256 0.315620976
v -9.34429375 0.219978256 -0.028692816
v -7.48882498 0.258235344 -0.028692816
v -7.48882498 0.219978256 2.1519612
v -9.68860754 0.028692816 2.17108974
v -8.57915199 0.33474952 -1.44420507
v -8.04355275 0.392135152 -2.22847538
v -7.48882498 0.392135152 -2.22847538
v -7.48882498 0.258235344 -0.028692816
v -9.34429375 0.219978256 -0.028692816
v -3.08925986 0.181721168 4.37087231
v -3.08925986 0.009564272 4.44738648
v -5.28904242 -0.086078448 4.42825794
v -5.28904242 0.086078448 4.33261522
v -0.889477296 0.277363888 4.35174376
v -0.889477296 0.124335536 4.44738648
v -3.08925986 0.009564272 4.44738648
v -3.08925986 0.181721168 4.37087231
v 1.31030526 0.373006608 4.37087231
v 1.31030526 0.200849712 4.44738648
v -0.889477296 0.124335536 4.44738648
v -0.889477296 0.277363888 4.35174376
v 3.51008783 0.411263696 4.37087231
v 3.51008783 0.258235344 4.44738648
v 1.31030526 0.200849712 4.44738648
v 1.31030526 0.373006608 4.37087231
v 5.70987039 0.449520784 4.35174376
v 5.70987039 0.296492432 4.42825794
v 3.51008783 0.258235344 4.44738648
v 3.51008783 0.411263696 4.37087231
v 7.81401023 0.583420592 4.37087231
v 7.81401023 0.411263696 4.44738648
v 5.70987039 0.296492432 4.42825794
v 5.70987039 0.449520784 4.35174376
v 9.78425026 0.468649328 4.44738648
v 7.81401023 0.583420592 4.37087231
v 9.78425026 0.640806224 4.37087231
v 7.81401023 0.411263696 4.44738648
v 7.81401023 0.315620976 4.37087231
v 9.78425026 0.353878064 4.37087231
v -5.28904242 0.086078448 4.33261522
v -5.28904242 -0.086078448 4.42825794
v -7.48882498 -0.277363888 4.27522959
v -7.48882498 -0.124335536 4.17958687
v -7.48882498 -0.124335536 4.17958687
v -7.48882498 -0.277363888 4.27522959
v -9.17213685 -0.602549136 4.44738648
v -9.13387976 -0.449520784 4.37087231
v -9.47819356 -0.449520784 4.17958687
v -9.53557919 -0.602549136 4.2369725
v -9.13387976 -0.449520784 4.37087231
v -9.47819356 -0.449520784 4.17958687
v -9.55470773 -0.411263696 3.95004434
v -9.4973221 -0.315620976 3.56747346
v -9.68860754 0.028692816 2.17108974
v -7.48882498 0.219978256 2.1519612
v -7.48882498 -0.124335536 4.17958687
v -9.55470773 -0.411263696 3.95004434
v -9.47819356 -0.449520784 4.17958687
v -9.53557919 -0.602549136 4.2369725
v -9.65035045 -0.564292048 3.96917288
v -9.4973221 -0.315620976 3.56747346
v -9.59296482 -0.468649328 3.56747346
v -9.68860754 0.028692816 2.17108974
v -9.78425026 -0.14346408 2.17108974
v -9.4973221 0.219978256 0.315620976
v -9.68860754 0.028692816 2.17108974
v -9.78425026 -0.14346408 2.17108974
v -9.57383628 0.04782136 0.296492432
v -9.34429375 0.219978256 -0.028692816
v -9.42080792 0.066949904 -0.066949904
v -8.57915199 0.33474952 -1.44420507
v -9.34429375 0.219978256 -0.028692816
v -9.42080792 0.066949904 -0.066949904
v -8.63653762 0.181721168 -1.5015907
v -8.04355275 0.392135152 -2.22847538
v -8.12006693 0.219978256 -2.26673246
v -7.71836751 0.392135152 -3.43357365
v -8.04355275 0.392135152 -2.22847538
v -8.12006693 0.219978256 -2.26673246
v -7.79488168 0.219978256 -3.47183074
v -7.48882498 0.392135152 -4.42825794
v -7.5844677 0.219978256 -4.44738648
v -3.08925986 0.009564272 4.44738648
v -3.08925986 -0.028692816 4.37087231
v -5.28904242 -0.124335536 4.35174376
v -5.28904242 -0.086078448 4.42825794
v -0.889477296 0.124335536 4.44738648
v -0.889477296 0.04782136 4.35174376
v -3.08925986 -0.028692816 4.37087231
v -3.08925986 0.009564272 4.44738648
v 1.31030526 0.200849712 4.44738648
v 1.31030526 0.124335536 4.37087231
v -0.889477296 0.04782136 4.35174376
v -0.889477296 0.124335536 4.44738648
v 3.51008783 0.258235344 4.44738648
v 3.51008783 0.162592624 4.37087231
v 1.31030526 0.124335536 4.37087231
v 1.31030526 0.200849712 4.44738648
v 5.70987039 0.296492432 4.42825794
v 5.70987039 0.200849712 4.35174376
v 3.51008783 0.162592624 4.37087231
v 3.51008783 0.258235344 4.44738648
v 7.81401023 0.411263696 4.44738648
v 7.81401023 0.315620976 4.37087231
v 5.70987039 0.200849712 4.35174376
v 5.70987039 0.296492432 4.42825794
v -5.28904242 -0.086078448 4.42825794
v -5.28904242 -0.124335536 4.35174376
v -7.48882498 -0.296492432 4.19871541
v -7.48882498 -0.277363888 4.27522959
v -7.48882498 -0.296492432 4.19871541
v -7.48882498 -0.640806224 4.27522959
v -9.17213685 -0.640806224 4.44738648
v -9.17213685 -0.602549136 4.44738648
v -5.28904242 -0.124335536 4.35174376
v -5.28904242 -0.640806224 4.42825794
v -7.48882498 -0.640806224 4.27522959
v -7.48882498 -0.296492432 4.19871541
v -3.08925986 -0.028692816 4.37087231
v -3.08925986 -0.640806224 4.44738648
v -5.28904242 -0.640806224 4.42825794
v -5.28904242 -0.124335536 4.35174376
v -0.889477296 0.04782136 4.35174376
v -0.889477296 -0.640806224 4.44738648
v -3.08925986 -0.640806224 4.44738648
v -3.08925986 -0.028692816 4.37087231
v 1.31030526 0.124335536 4.37087231
v 1.31030526 -0.640806224 4.44738648
v -0.889477296 -0.640806224 4.44738648
v -0.889477296 0.04782136 4.35174376
v 3.51008783 0.162592624 4.37087231
v 3.51008783 -0.640806224 4.44738648
v 1.31030526 -0.640806224 4.44738648
v 1.31030526 0.124335536 4.37087231
v 5.70987039 0.200849712 4.35174376
v 5.70987039 -0.640806224 4.42825794
v 3.51008783 -0.640806224 4.44738648
v 3.51008783 0.162592624 4.37087231
v 7.81401023 0.315620976 4.37087231
v 7.81401023 -0.640806224 4.44738648
v 5.70987039 -0.640806224 4.42825794
v 5.70987039 0.200849712 4.35174376
v 9.78425026 0.353878064 4.37087231
v 9.78425026 -0.640806224 4.44738648
v 7.81401023 -0.640806224 4.44738648
v 7.81401023 0.315620976 4.37087231
vt 0 0
vt 0 1
vt 1 0
vt 0 0
vt 0 1
vt 1 0
vt 1 1
vt 1 0
vt 0.752941176 0
vt 1 1
vt 0.752941176 0
vt 0.890196078 0.552941176
vt 1 0.0784313725
vt 1 0.0392156863
vt 0.274509804 0
vt 0 0
vt 0 1
vt 1 1
vt 1 0
vt 0 0
vt 0 1
vt 1 1
vt 1 0
vt 0 0
vt 0 1
vt 1 1
vt 1 0
vt 0 0
vt 0 1
vt 1 1
vt 1 0
vt 0 0
vt 0 1
vt 1 1
vt 1 0
vt 0 0
vt 0 1
vt 1 1
vt 1 0
vt 0 0
vt 0 1
vt 1 1
vt 1 0
vt 0 0
vt 0 1
vt 1 1
vt 1 0
vt 0 0
vt 0 1
vt 1 1
vt 1 0
vt 0 0
vt 0 1
vt 1 1
vt 1 0
vt 0 0
vt 0 1
vt 1 1
vt 1 0
vt 0 0
vt 0 1
vt 1 1
vt 1 0
vt 0 0
vt 0 1
vt 1 1
vt 1 0
vt 0 0
vt 0 1
vt 1 1
vt 1 0
vt 0.152941176 0.819607843
vt 0.207843137 1
vt 1 1
vt 1 0
vt 0.0784313725 0
vt 0.545098039 0.635294118
vt 0.752941176 1
vt 1 1
vt 1 0
vt 0.235294118 0
vt 1 0
vt 1 0.0784313725
vt 0 0.0784313725
vt 0 0
vt 1 0
vt 1 0.0784313725
vt 0 0.0784313725
vt 0 0
vt 1 0
vt 1 0.0784313725
vt 0 0.0784313725
vt 0 0
vt 1 0
vt 1 0.0784313725
vt 0 0.0784313725
vt 0 0
vt 1 0
vt 1 0.0784313725
vt 0 0.0784313725
vt 0 0
vt 1 0
vt 1 0.0784313725
vt 0 0.0784313725
vt 0 0
vt 1 0.0784313725
vt 0 0
vt 1 0
vt 0 0.0784313725
vt 0 0.141176471
vt 1 0.141176471
vt 1 0
vt 1 0.0784313725
vt 0 0.0784313725
vt 0 0
vt 1 0.0549019608
vt 1 0.0784313725
vt 0.274509804 0
vt 0.301960784 0.0509803922
vt 0.160784314 0.125490196
vt 0.105882353 0.062745098
vt 0.301960784 0.0509803922
vt 0.160784314 0.125490196
vt 0.117647059 0.223529412
vt 0.141176471 0.403921569
vt 0.0784313725 1
vt 1 1
vt 1 0.0549019608
vt 0.117647059 0.223529412
vt 0.160784314 0.125490196
vt 0.105882353 0.062745098
vt 0.0470588235 0.188235294
vt 0.141176471 0.403921569
vt 0.062745098 0.380392157
vt 0.0784313725 1
vt 0 1
vt 0.152941176 0.819607843
vt 0.0784313725 0
vt 0 0
vt 0.0745098039 0.82745098
vt 0.207843137 1
vt 0.133333333 1
vt 0.545098039 0.635294118
vt 0.235294118 0
vt 0.160784314 0.0196078431
vt 0.470588235 0.670588235
vt 0.752941176 1
vt 0.678431373 1
vt 0.890196078 0.552941176
vt 0.752941176 0
vt 0.678431373 0.0352941176
vt 0.815686275 0.57254902
vt 1 1
vt 0.898039216 1
vt 1 0.0784313725
vt 1 0.141176471
vt 0 0.141176471
vt 0 0.0784313725
vt 1 0.0784313725
vt 1 0.141176471
vt 0 0.141176471
vt 0 0.0784313725
vt 1 0.0784313725
vt 1 0.141176471
vt 0 0.141176471
vt 0 0.0784313725
vt 1 0.0784313725
vt 1 0.141176471
vt 0 0.141176471
vt 0 0.0784313725
vt 1 0.0784313725
vt 1 0.141176471
vt 0 0.141176471
vt 0 0.0784313725
vt 1 0.0784313725
vt 1 0.141176471
vt 0 0.141176471
vt 0 0.0784313725
vt 1 0.0784313725
vt 1 0.141176471
vt 0 0.141176471
vt 0 0.0784313725
vt 1 0.360784314
vt 1 0
vt 0.235294118 0
vt 0.235294118 0.0352941176
vt 1 0.51372549
vt 1 0
vt 0 0
vt 0 0.360784314
vt 1 0.596078431
vt 1 0
vt 0 0
vt 0 0.51372549
vt 1 0.690196078
vt 1 0
vt 0 0
vt 0 0.596078431
vt 1 0.756862745
vt 1 0
vt 0 0
vt 0 0.690196078
vt 1 0.8
vt 1 0
vt 0 0
vt 0 0.756862745
vt 1 0.839215686
vt 1 0
vt 0 0
vt 0 0.8
vt 1 0.952941176
vt 1 0
vt 0 0
vt 0 0.839215686
vt 1 1
vt 1 0
vt 0 0
vt 0 0.952941176
vn 0.00257425223 0.999966472 0.00777350157
vn -0.0676265828 0.997710702 -0
vn 0.00257425223 0.999966472 -0.00777350157
vn -0.0150129928 0.999887299 -0
vn 0.00257425223 0.999966472 -0.00777350157
vn 0.0201592645 0.999796781 -0
vn -0.0676265828 0.997710702 -0
vn 0.00257425223 0.999966472 0.00777350157
vn -0.0850613707 0.996375714 -0
vn -0.0676265828 0.997710702 -0
vn -0.0850613707 0.996375714 -0
vn -0.261252254 0.964789605 -0.0304676552
vn -0.0150141815 0.120544784 0.992594343
vn -0.0150141815 0.0150141815 0.999774549
vn 0.020162686 0.331605989 0.943202488
vn -0.0501910491 0.982378039 0.180039573
vn -0.0325863933 0.999468922 -0
vn 0.00257425223 0.999966472 0.00777350157
vn -0.0150129928 0.999887299 -0
vn -0.0325863933 0.999468922 -0
vn -0.0150129928 0.999887299 -0
vn 0.0201592645 0.999796781 -0
vn 0.00257425223 0.999966472 0.00777350157
vn -0.0150129928 0.999887299 -0
vn 0.00257425223 0.999966472 0.00777350157
vn -0.0325863933 0.999468922 -0
vn -0.0325863933 0.999468922 -0
vn 0.00257425223 0.999966472 0.00777350157
vn 0.0201592645 0.999796781 -0
vn -0.0150129928 0.999887299 -0
vn -0.0325863933 0.999468922 -0
vn -0.0325863933 0.999468922 -0
vn -0.0325863933 0.999468922 -0
vn -0.0501296256 0.99874272 -0
vn -0.0325863933 0.999468922 -0
vn -0.0325863933 0.999468922 -0
vn -0.0150129928 0.999887299 -0
vn -0.0501296256 0.99874272 -0
vn -0.0501296256 0.99874272 -0
vn -0.0325863933 0.999468922 -0
vn -0.0501296256 0.99874272 -0
vn -0.0325863933 0.999468922 -0
vn -0.0150129928 0.999887299 -0
vn -0.0501296256 0.99874272 -0
vn -0.0501296256 0.99874272 -0
vn -0.0325863933 0.999468922 -0
vn -0.0325863933 0.999468922 -0
vn -0.0150129928 0.999887299 -0
vn -0.0325863933 0.999468922 -0
vn -0.0325863933 0.999468922 -0
vn -0.0325863933 0.999468922 -0
vn -0.0325863933 0.999468922 -0
vn -0.0325863933 0.999468922 -0
vn -0.0150129928 0.999887299 -0
vn -0.0150129928 0.999887299 -0
vn -0.0150129928 0.999887299 -0
vn -0.0150129928 0.999887299 -0
vn 0.00257425223 0.999966472 -0.00777350157
vn 0.00257425223 0.999966472 0.00777350157
vn -0.10295635 0.964789605 0.242035139
vn -0.0676265828 0.997710702 -0
vn -0.0325863933 0.999468922 -0
vn -0.0501910491 0.982378039 0.180039573
vn -0.0325863933 0.999468922 -0
vn 0.00257425223 0.999966472 0.00777350157
vn 0.00257425223 0.999966472 -0.00777350157
vn -0.0150129928 0.999887299 -0
vn -0.0676265828 0.997710702 -0
vn -0.0325863933 0.999468922 -0
vn -0.0150129928 0.999887299 -0
vn -0.0325863933 0.999468922 -0
vn -0.0850613707 0.996375714 -0
vn -0.0850613707 0.996375714 -0
vn -0.0325863933 0.999468922 -0
vn -0.0676265828 0.997710702 -0
vn -0.138133218 0.982378039 0.125907122
vn -0.0676265828 0.997710702 -0
vn -0.0850613707 0.996375714 -0
vn 0.00257425223 0.999966472 0.00777350157
vn -0.0325863933 0.999468922 -0
vn -0.0850613707 0.996375714 -0
vn -0.0150129928 0.999887299 -0
vn 0.00257425223 0.0326026153 0.999465078
vn -0.0501910491 0.0501910491 0.997477678
vn -0.0501910491 0.982378039 0.180039573
vn -0.0325863933 0.999468922 -0
vn 0.00257425223 0.0326026153 0.999465078
vn 0.00257425223 0.0326026153 0.999465078
vn -0.0150129928 0.999887299 -0
vn -0.0325863933 0.999468922 -0
vn 0.00257425223 0.0326026153 0.999465078
vn 0.00257425223 0.0326026153 0.999465078
vn -0.0325863933 0.999468922 -0
vn -0.0150129928 0.999887299 -0
vn 0.00257425223 0.0326026153 0.999465078
vn 0.00257425223 0.0326026153 0.999465078
vn -0.0325863933 0.999468922 -0
vn -0.0325863933 0.999468922 -0
vn 0.00257425223 0.0150141815 0.999883967
vn 0.00257425223 0.0326026153 0.999465078
vn -0.0150129928 0.999887299 -0
vn -0.0150129928 0.999887299 -0
vn -0.0150141815 0.0326026153 0.999355614
vn 0.00257425223 0.0150141815 0.999883967
vn -0.0325863933 0.999468922 -0
vn 0.00257425223 0.0326026153 0.999465078
vn -0.0150129928 0.999887299 -0
vn 0.00257425223 0.999966472 0.00777350157
vn -0.0150141815 0.0326026153 0.999355614
vn 0.00257425223 -0.00257425223 0.999993373
vn 0.00257425223 -0.00257425223 0.999993373
vn -0.0501910491 0.982378039 0.180039573
vn -0.0501910491 0.0501910491 0.997477678
vn -0.0150141815 0.120544784 0.992594343
vn -0.10295635 0.964789605 0.242035139
vn -0.10295635 0.964789605 0.242035139
vn -0.0150141815 0.120544784 0.992594343
vn 0.020162686 0.331605989 0.943202488
vn -0.120544784 0.947201171 0.297117648
vn -0.366782857 0.841670569 0.39630921
vn -0.595432496 0.489901893 0.636754488
vn -0.120544784 0.947201171 0.297117648
vn -0.366782857 0.841670569 0.39630921
vn -0.472313459 0.859259002 0.196453463
vn -0.155721652 0.964789605 0.21197119
vn -0.138133218 0.982378039 0.125907122
vn -0.0676265828 0.997710702 -0
vn -0.10295635 0.964789605 0.242035139
vn -0.472313459 0.859259002 0.196453463
vn -0.366782857 0.841670569 0.39630921
vn -0.595432496 0.489901893 0.636754488
vn -0.859259002 0.472313459 0.196453463
vn -0.155721652 0.964789605 0.21197119
vn -0.876847436 0.472313459 0.0897695381
vn -0.138133218 0.982378039 0.125907122
vn -0.876847436 0.472313459 0.0897695381
vn -0.0850613707 0.996375714 -0
vn -0.138133218 0.982378039 0.125907122
vn -0.876847436 0.472313459 0.0897695381
vn -0.876847436 0.472313459 -0.0897695381
vn -0.0850613707 0.996375714 -0
vn -0.788905267 0.472313459 -0.393126539
vn -0.0676265828 0.997710702 -0
vn -0.0850613707 0.996375714 -0
vn -0.788905267 0.472313459 -0.393126539
vn -0.771316833 0.472313459 -0.426603257
vn -0.0850613707 0.996375714 -0
vn -0.806493701 0.472313459 -0.355651383
vn -0.261252254 0.964789605 -0.0304676552
vn -0.0850613707 0.996375714 -0
vn -0.806493701 0.472313459 -0.355651383
vn -0.859259002 0.472313459 -0.196453463
vn -0.0676265828 0.997710702 -0
vn -0.859259002 0.472313459 -0.196453463
vn 0.00257425223 0.0326026153 0.999465078
vn 0.00257425223 -0.00257425223 0.999993373
vn -0.0326026153 -0.00257425223 0.999465078
vn -0.0501910491 0.0501910491 0.997477678
vn 0.00257425223 0.0326026153 0.999465078
vn 0.00257425223 -0.00257425223 0.999993373
vn 0.00257425223 -0.00257425223 0.999993373
vn 0.00257425223 0.0326026153 0.999465078
vn 0.00257425223 0.0326026153 0.999465078
vn 0.00257425223 -0.00257425223 0.999993373
vn 0.00257425223 -0.00257425223 0.999993373
vn 0.00257425223 0.0326026153 0.999465078
vn 0.00257425223 0.0326026153 0.999465078
vn 0.00257425223 -0.00257425223 0.999993373
vn 0.00257425223 -0.00257425223 0.999993373
vn 0.00257425223 0.0326026153 0.999465078
vn 0.00257425223 0.0150141815 0.999883967
vn 0.00257425223 -0.00257425223 0.999993373
vn 0.00257425223 -0.00257425223 0.999993373
vn 0.00257425223 0.0326026153 0.999465078
vn -0.0150141815 0.0326026153 0.999355614
vn 0.00257425223 -0.00257425223 0.999993373
vn 0.00257425223 -0.00257425223 0.999993373
vn 0.00257425223 0.0150141815 0.999883967
vn -0.0501910491 0.0501910491 0.997477678
vn -0.0326026153 -0.00257425223 0.999465078
vn -0.0150141815 0.0150141815 0.999774549
vn -0.0150141815 0.120544784 0.992594343
vn -0.0150141815 0.0150141815 0.999774549
vn -0.0326026153 0.190898519 0.981068206
vn 0.108104855 0.208486953 0.972032166
vn 0.020162686 0.331605989 0.943202488
vn -0.0326026153 -0.00257425223 0.999465078
vn -0.0326026153 0.155721652 0.9872628
vn -0.0326026153 0.190898519 0.981068206
vn -0.0150141815 0.0150141815 0.999774549
vn 0.00257425223 -0.00257425223 0.999993373
vn 0.00257425223 0.138133218 0.990410313
vn -0.0326026153 0.155721652 0.9872628
vn -0.0326026153 -0.00257425223 0.999465078
vn 0.00257425223 -0.00257425223 0.999993373
vn 0.00257425223 0.120544784 0.992704552
vn 0.00257425223 0.138133218 0.990410313
vn 0.00257425223 -0.00257425223 0.999993373
vn 0.00257425223 -0.00257425223 0.999993373
vn 0.00257425223 0.10295635 0.994682544
vn 0.00257425223 0.120544784 0.992704552
vn 0.00257425223 -0.00257425223 0.999993373
vn 0.00257425223 -0.00257425223 0.999993373
vn 0.00257425223 0.10295635 0.994682544
vn 0.00257425223 0.10295635 0.994682544
vn 0.00257425223 -0.00257425223 0.999993373
vn 0.00257425223 -0.00257425223 0.999993373
vn 0.00257425223 0.0853679166 0.996346171
vn 0.00257425223 0.10295635 0.994682544
vn 0.00257425223 -0.00257425223 0.999993373
vn 0.00257425223 -0.00257425223 0.999993373
vn 0.00257425223 0.0853679166 0.996346171
vn 0.00257425223 0.0853679166 0.996346171
vn 0.00257425223 -0.00257425223 0.999993373
vn 0.00257425223 -0.00257425223 0.999993373
vn 0.00257425223 0.0853679166 0.996346171
vn 0.00257425223 0.0853679166 0.996346171
vn 0.00257425223 -0.00257425223 0.999993373
g Exterior_Grass_12_0
f 3/3/3 2/2/2 1/1/1
f 6/6/6 5/5/5 4/4/4
f 9/9/9 8/8/8 7/7/7
f 12/12/12 11/11/11 10/10/10
f 15/15/15 14/14/14 13/13/13
f 18/18/18 17/17/17 16/16/16
f 19/19/19 18/18/18 16/16/16
f 22/22/22 21/21/21 20/20/20
f 23/23/23 22/22/22 20/20/20
f 26/26/26 25/25/25 24/24/24
f 27/27/27 26/26/26 24/24/24
f 30/30/30 29/29/29 28/28/28
f 31/31/31 30/30/30 28/28/28
f 34/34/34 33/33/33 32/32/32
f 35/35/35 34/34/34 32/32/32
f 38/38/38 37/37/37 36/36/36
f 39/39/39 38/38/38 36/36/36
f 42/42/42 41/41/41 40/40/40
f 43/43/43 42/42/42 40/40/40
f 46/46/46 45/45/45 44/44/44
f 47/47/47 46/46/46 44/44/44
f 50/50/50 49/49/49 48/48/48
f 51/51/51 50/50/50 48/48/48
f 54/54/54 53/53/53 52/52/52
f 55/55/55 54/54/54 52/52/52
f 58/58/58 57/57/57 56/56/56
f 59/59/59 58/58/58 56/56/56
f 62/62/62 61/61/61 60/60/60
f 63/63/63 62/62/62 60/60/60
f 66/66/66 65/65/65 64/64/64
f 67/67/67 66/66/66 64/64/64
f 70/70/70 69/69/69 68/68/68
f 71/71/71 70/70/70 68/68/68
f 74/74/74 73/73/73 72/72/72
f 72/72/72 75/75/75 74/74/74
f 72/72/72 76/76/76 75/75/75
f 79/79/79 78/78/78 77/77/77
f 77/77/77 80/80/80 79/79/79
f 77/77/77 81/81/81 80/80/80
f 84/84/84 83/83/83 82/82/82
f 85/85/85 84/84/84 82/82/82
f 88/88/88 87/87/87 86/86/86
f 89/89/89 88/88/88 86/86/86
f 92/92/92 91/91/91 90/90/90
f 93/93/93 92/92/92 90/90/90
f 96/96/96 95/95/95 94/94/94
f 97/97/97 96/96/96 94/94/94
f 100/100/100 99/99/99 98/98/98
f 101/101/101 100/100/100 98/98/98
f 104/104/104 103/103/103 102/102/102
f 105/105/105 104/104/104 102/102/102
f 108/108/108 107/107/107 106/106/106
f 107/107/107 109/109/109 106/106/106
f 109/109/109 110/110/110 106/106/106
f 110/110/110 111/111/111 106/106/106
f 114/114/114 113/113/113 112/112/112
f 115/115/115 114/114/114 112/112/112
f 118/118/118 117/117/117 116/116/116
f 119/119/119 118/118/118 116/116/116
f 118/118/118 119/119/119 120/120/120
f 121/121/121 118/118/118 120/120/120
f 124/124/124 123/123/123 122/122/122
f 125/125/125 124/124/124 122/122/122
f 125/125/125 122/122/122 126/126/126
f 122/122/122 127/127/127 126/126/126
f 122/122/122 128/128/128 127/127/127
f 131/131/131 130/130/130 129/129/129
f 132/132/132 131/131/131 129/129/129
f 132/132/132 129/129/129 133/133/133
f 134/134/134 132/132/132 133/133/133
f 134/134/134 133/133/133 135/135/135
f 136/136/136 134/134/134 135/135/135
f 139/139/139 138/138/138 137/137/137
f 140/140/140 139/139/139 137/137/137
f 140/140/140 137/137/137 141/141/141
f 142/142/142 140/140/140 141/141/141
f 145/145/145 144/144/144 143/143/143
f 146/146/146 145/145/145 143/143/143
f 146/146/146 143/143/143 147/147/147
f 148/148/148 146/146/146 147/147/147
f 151/151/151 150/150/150 149/149/149
f 152/152/152 151/151/151 149/149/149
f 152/152/152 149/149/149 153/153/153
f 154/154/154 152/152/152 153/153/153
f 157/157/157 156/156/156 155/155/155
f 158/158/158 157/157/157 155/155/155
f 161/161/161 160/160/160 159/159/159
f 162/162/162 161/161/161 159/159/159
f 165/165/165 164/164/164 163/163/163
f 166/166/166 165/165/165 163/163/163
f 169/169/169 168/168/168 167/167/167
f 170/170/170 169/169/169 167/167/167
f 173/173/173 172/172/172 171/171/171
f 174/174/174 173/173/173 171/171/171
f 177/177/177 176/176/176 175/175/175
f 178/178/178 177/177/177 175/175/175
f 181/181/181 180/180/180 179/179/179
f 182/182/182 181/181/181 179/179/179
g Exterior_Grass_12_1
f 185/185/185 184/184/184 183/183/183
f 186/186/186 185/185/185 183/183/183
f 189/189/189 188/188/188 187/187/187
f 190/190/190 189/189/189 187/187/187
f 193/193/193 192/192/192 191/191/191
f 194/194/194 193/193/193 191/191/191
f 197/197/197 196/196/196 195/195/195
f 198/198/198 197/197/197 195/195/195
f 201/201/201 200/200/200 199/199/199
f 202/202/202 201/201/201 199/199/199
f 205/205/205 204/204/204 203/203/203
f 206/206/206 205/205/205 203/203/203
f 209/209/209 208/208/208 207/207/207
f 210/210/210 209/209/209 207/207/207
f 213/213/213 212/212/212 211/211/211
f 214/214/214 213/213/213 211/211/211
f 217/217/217 216/216/216 215/215/215
f 218/218/218 217/217/217 215/215/215
