g FridgeLetters_P
v -0.0169189442 -0.0102430722 0.00425781263
v -0.0169189442 -0.0486439504 0.00425781263
v -0.0340307616 -0.0486439504 0.00425781263
v -0.0340307616 0.0486439504 0.00425781263
v -0.0148803703 0.00743637048 0.00425781263
v -0.0148779294 0.0319633484 0.00425781263
v 0.0239770506 0.0486439504 0.00425781263
v 0.00752929691 0.0319633484 0.00425781263
v 0.0128369136 0.0196998585 0.00425781263
v 0.0339062475 0.0192004386 0.00425781263
v 0.0239770506 -0.0102430722 0.00425781263
v -0.0169189442 -0.0102430722 0.00425781263
v 0.00752929691 0.00743637048 0.00425781263
v -0.0146972649 -0.0124653624 -0.00425781263
v -0.036252439 -0.050866086 -0.00425781263
v -0.0146972649 -0.050866086 -0.00425781263
v -0.036252439 0.050866086 -0.00425781263
v -0.0133447265 0.00897048973 -0.00425781263
v -0.0133447265 0.0304290764 -0.00425781263
v 0.0255737305 0.050866086 -0.00425781263
v 0.00652099587 0.0304290764 -0.00425781263
v 0.0111669917 0.0196998585 -0.00425781263
v 0.036252439 0.0192004386 -0.00425781263
v 0.0255737305 -0.0124653624 -0.00425781263
v 0.00652099587 0.00897048973 -0.00425781263
v -0.0146972649 -0.0124653624 -0.00425781263
v -0.0133447265 0.00897048973 -0.00425781263
v -0.036252439 0.050866086 -0.00425781263
v -0.0340307616 0.0486439504 0.00425781263
v -0.0340307616 -0.0486439504 0.00425781263
v -0.036252439 -0.050866086 -0.00425781263
v -0.036252439 -0.050866086 -0.00425781263
v -0.0340307616 -0.0486439504 0.00425781263
v -0.0169189442 -0.0486439504 0.00425781263
v -0.0146972649 -0.050866086 -0.00425781263
v -0.0146972649 -0.050866086 -0.00425781263
v -0.0169189442 -0.0486439504 0.00425781263
v -0.0169189442 -0.0102430722 0.00425781263
v -0.0146972649 -0.0124653624 -0.00425781263
v -0.0133447265 0.0304290764 -0.00425781263
v -0.0148779294 0.0319633484 0.00425781263
v 0.00752929691 0.0319633484 0.00425781263
v 0.00652099587 0.0304290764 -0.00425781263
v 0.0255737305 0.050866086 -0.00425781263
v 0.0239770506 0.0486439504 0.00425781263
v -0.0340307616 0.0486439504 0.00425781263
v -0.036252439 0.050866086 -0.00425781263
v 0.0239770506 -0.0102430722 0.00425781263
v 0.0255737305 -0.0124653624 -0.00425781263
v -0.0146972649 -0.0124653624 -0.00425781263
v -0.0169189442 -0.0102430722 0.00425781263
v 0.0255737305 -0.0124653624 -0.00425781263
v 0.0239770506 -0.0102430722 0.00425781263
v 0.0339062475 0.0192004386 0.00425781263
v 0.036252439 0.0192004386 -0.00425781263
v 0.0239770506 0.0486439504 0.00425781263
v 0.0255737305 0.050866086 -0.00425781263
v 0.0111669917 0.0196998585 -0.00425781263
v 0.00752929691 0.00743637048 0.00425781263
v 0.00652099587 0.00897048973 -0.00425781263
v 0.0128369136 0.0196998585 0.00425781263
v 0.00652099587 0.0304290764 -0.00425781263
v 0.00752929691 0.0319633484 0.00425781263
v 0.00652099587 0.00897048973 -0.00425781263
v 0.00752929691 0.00743637048 0.00425781263
v -0.0148803703 0.00743637048 0.00425781263
v -0.0133447265 0.00897048973 -0.00425781263
v -0.0133447265 0.00897048973 -0.00425781263
v -0.0148803703 0.00743637048 0.00425781263
v -0.0148779294 0.0319633484 0.00425781263
v -0.0133447265 0.0304290764 -0.00425781263
vt 0.463134766 0.841308594
vt 0.452392578 0.845214844
vt 0.453613281 0.848144531
vt 0.481933594 0.84375
vt 0.467285156 0.841308594
vt 0.478759766 0.840332031
vt 0.483398438 0.827148438
vt 0.479736328 0.830566406
vt 0.474121094 0.827636719
vt 0.474853516 0.823242188
vt 0.465820312 0.825195312
vt 0.463134766 0.841308594
vt 0.467285156 0.830078125
vt 0.462890625 0.83984375
vt 0.449951172 0.846191406
vt 0.449951172 0.840332031
vt 0.484863281 0.846191406
vt 0.46875 0.840332031
vt 0.479492188 0.840332031
vt 0.484863281 0.824707031
vt 0.479492188 0.830566406
vt 0.474121094 0.828125
vt 0.473876953 0.821289062
vt 0.463134766 0.824707031
vt 0.46875 0.830566406
vt 0.462890625 0.83984375
vt 0.46875 0.840332031
vt 0.484130859 0.845703125
vt 0.481933594 0.84375
vt 0.453613281 0.848144531
vt 0.452636719 0.851074219
vt 0.452636719 0.851074219
vt 0.453613281 0.848144531
vt 0.452392578 0.845214844
vt 0.449707031 0.844726562
vt 0.449707031 0.844726562
vt 0.452392578 0.845214844
vt 0.463134766 0.841308594
vt 0.460693359 0.83984375
vt 0.477050781 0.838867188
vt 0.478759766 0.840332031
vt 0.479736328 0.830566406
vt 0.477539062 0.831542969
vt 0.486083984 0.826171875
vt 0.483398438 0.827148438
vt 0.481933594 0.84375
vt 0.484130859 0.845703125
vt 0.465820312 0.825195312
vt 0.464599609 0.822753906
vt 0.460693359 0.83984375
vt 0.463134766 0.841308594
vt 0.464599609 0.822753906
vt 0.465820312 0.825195312
vt 0.474853516 0.823242188
vt 0.475341797 0.8203125
vt 0.483398438 0.827148438
vt 0.486083984 0.826171875
vt 0.473876953 0.830078125
vt 0.467285156 0.830078125
vt 0.469482422 0.831542969
vt 0.474121094 0.827636719
vt 0.477539062 0.831542969
vt 0.479736328 0.830566406
vt 0.469482422 0.831542969
vt 0.467285156 0.830078125
vt 0.467285156 0.841308594
vt 0.468994141 0.839355469
vt 0.468994141 0.839355469
vt 0.467285156 0.841308594
vt 0.478759766 0.840332031
vt 0.477050781 0.838867188
vn 0.130249023 -0.0126495361 0.991210938
vn 0.593261719 -0.298583984 0.747558594
vn -0.756835938 -0.147094727 0.63671875
vn -0.626464844 0.377197266 0.682128906
vn 0.0832519531 0.0765380859 0.993652344
vn 0.119384766 -0.109741211 0.986816406
vn 0.253173828 0.58203125 0.772949219
vn -0.0556335449 -0.126342773 0.990234375
vn -0.155029297 0 0.987792969
vn 0.530761719 0 0.847167969
vn 0.412109375 -0.320800781 0.852539062
vn -0.319335938 -0.232910156 0.918457031
vn -0.0797729492 0.181274414 0.979980469
vn -0 0 -1
vn -0 0 -1
vn -0 0 -1
vn -0 0 -1
vn -0 0 -1
vn -0 0 -1
vn -0 0 -1
vn -0 0 -1
vn -0 0 -1
vn -0 0 -1
vn -0 0 -1
vn -0 0 -1
vn -0 0 -1
vn -0 0 -1
vn -0.806640625 0.485595703 0.337158203
vn -0.626464844 0.377197266 0.682128906
vn -0.756835938 -0.147094727 0.63671875
vn -0.938476562 -0.182373047 0.292480469
vn -0.938476562 -0.182373047 0.292480469
vn -0.756835938 -0.147094727 0.63671875
vn 0.593261719 -0.298583984 0.747558594
vn 0.842773438 -0.424316406 0.330566406
vn 0.842773438 -0.424316406 0.330566406
vn 0.593261719 -0.298583984 0.747558594
vn 0.130249023 -0.0126495361 0.991210938
vn 0.95703125 -0.092956543 0.273925781
vn 0.713378906 -0.655761719 0.246704102
vn 0.119384766 -0.109741211 0.986816406
vn -0.0556335449 -0.126342773 0.990234375
vn -0.394042969 -0.895019531 0.207885742
vn 0.380615234 0.875 0.299560547
vn 0.253173828 0.58203125 0.772949219
vn -0.626464844 0.377197266 0.682128906
vn -0.806640625 0.485595703 0.337158203
vn 0.412109375 -0.320800781 0.852539062
vn 0.75390625 -0.586914062 0.294677734
vn -0.602050781 -0.747070312 0.281494141
vn -0.259521484 -0.322021484 0.910644531
vn 0.75390625 -0.586914062 0.294677734
vn 0.412109375 -0.320800781 0.852539062
vn 0.530761719 0 0.847167969
vn 0.963867188 0 0.265625
vn 0.253173828 0.58203125 0.772949219
vn 0.380615234 0.875 0.299560547
vn -0.981445312 -1.1920929E-07 0.192626953
vn -0.0797729492 0.181274414 0.979980469
vn -0.394042969 0.895019531 0.207885742
vn -0.155029297 0 0.987792969
vn -0.394042969 -0.895019531 0.207885742
vn -0.0556335449 -0.126342773 0.990234375
vn -0.394042969 0.895019531 0.207885742
vn -0.0797729492 0.181274414 0.979980469
vn 0.0832519531 0.0765380859 0.993652344
vn 0.713378906 0.655761719 0.246704102
vn 0.713378906 0.655761719 0.246704102
vn 0.0832519531 0.0765380859 0.993652344
vn 0.119384766 -0.109741211 0.986816406
vn 0.713378906 -0.655761719 0.246704102
g FridgeLetters_P_0
f 3/3/3 2/2/2 1/1/1
f 3/3/3 1/1/1 4/4/4
f 1/1/1 5/5/5 4/4/4
f 5/5/5 6/6/6 4/4/4
f 7/7/7 4/4/4 6/6/6
f 8/8/8 7/7/7 6/6/6
f 7/7/7 8/8/8 9/9/9
f 10/10/10 7/7/7 9/9/9
f 10/10/10 9/9/9 11/11/11
f 12/12/12 11/11/11 5/5/5
f 9/9/9 13/13/13 11/11/11
f 11/11/11 13/13/13 5/5/5
f 16/16/16 15/15/15 14/14/14
f 14/14/14 15/15/15 17/17/17
f 18/18/18 14/14/14 17/17/17
f 19/19/19 18/18/18 17/17/17
f 17/17/17 20/20/20 19/19/19
f 20/20/20 21/21/21 19/19/19
f 21/21/21 20/20/20 22/22/22
f 20/20/20 23/23/23 22/22/22
f 22/22/22 23/23/23 24/24/24
f 25/25/25 22/22/22 24/24/24
f 25/25/25 24/24/24 26/26/26
f 27/27/27 25/25/25 26/26/26
f 30/30/30 29/29/29 28/28/28
f 31/31/31 30/30/30 28/28/28
f 34/34/34 33/33/33 32/32/32
f 35/35/35 34/34/34 32/32/32
f 38/38/38 37/37/37 36/36/36
f 39/39/39 38/38/38 36/36/36
f 42/42/42 41/41/41 40/40/40
f 43/43/43 42/42/42 40/40/40
f 46/46/46 45/45/45 44/44/44
f 47/47/47 46/46/46 44/44/44
f 50/50/50 49/49/49 48/48/48
f 51/51/51 50/50/50 48/48/48
f 54/54/54 53/53/53 52/52/52
f 55/55/55 54/54/54 52/52/52
f 56/56/56 54/54/54 55/55/55
f 57/57/57 56/56/56 55/55/55
f 60/60/60 59/59/59 58/58/58
f 59/59/59 61/61/61 58/58/58
f 58/58/58 61/61/61 62/62/62
f 61/61/61 63/63/63 62/62/62
f 66/66/66 65/65/65 64/64/64
f 67/67/67 66/66/66 64/64/64
f 70/70/70 69/69/69 68/68/68
f 71/71/71 70/70/70 68/68/68
