g IS4_SalaControl_PanelControl
v -0.0468858331 -0.0207868181 0.179204568
v -0.0531282015 -0.0254248809 0.160575196
v -0.040644072 -0.0161484517 0.160575196
v -0.0408833288 -0.0163808446 0.114077926
v -0.053367462 -0.025657272 0.114077926
v -0.0471250899 -0.021019211 0.0954485461
v -0.0269963071 -0.00535682682 0.136784837
v -0.0394804366 -0.0146332551 0.148768485
v -0.0394804366 -0.0146332551 0.124801122
v -0.0553845204 -0.0286272429 0.148768485
v -0.06786865 -0.0379036702 0.136784837
v -0.0553845204 -0.0286272429 0.124801122
v -0.0224584956 -0.00271316525 -0.102524221
v -0.0332020558 -0.0106962584 -0.102524221
v -0.0332020558 -0.0106962584 -0.143397346
v -0.0224584956 -0.00271316525 -0.143397346
v -0.0184434503 -0.00828979444 -0.102524221
v -0.0224584956 -0.00271316525 -0.102524221
v -0.0224584956 -0.00271316525 -0.143397346
v -0.0184434503 -0.00828979444 -0.143397346
v -0.0184434503 -0.00828979444 -0.143397346
v -0.0224584956 -0.00271316525 -0.143397346
v -0.0332020558 -0.0106962584 -0.143397346
v -0.0291870106 -0.0162728876 -0.143397346
v -0.0291870106 -0.0162728876 -0.143397346
v -0.0332020558 -0.0106962584 -0.143397346
v -0.0332020558 -0.0106962584 -0.102524221
v -0.0291870106 -0.0162728876 -0.102524221
v -0.0291870106 -0.0162728876 -0.102524221
v -0.0332020558 -0.0106962584 -0.102524221
v -0.0224584956 -0.00271316525 -0.102524221
v -0.0184434503 -0.00828979444 -0.102524221
v -0.0224584956 -0.00271316525 -0.160946906
v -0.0332020558 -0.0106962584 -0.160946906
v -0.0332020558 -0.0106962584 -0.189444408
v -0.0224584956 -0.00271316525 -0.189444408
v -0.0184434503 -0.00828979444 -0.160946906
v -0.0224584956 -0.00271316525 -0.160946906
v -0.0224584956 -0.00271316525 -0.189444408
v -0.0184434503 -0.00828979444 -0.189444408
v -0.0184434503 -0.00828979444 -0.189444408
v -0.0224584956 -0.00271316525 -0.189444408
v -0.0332020558 -0.0106962584 -0.189444408
v -0.0291870106 -0.0162728876 -0.189444408
v -0.0291870106 -0.0162728876 -0.189444408
v -0.0332020558 -0.0106962584 -0.189444408
v -0.0332020558 -0.0106962584 -0.160946906
v -0.0291870106 -0.0162728876 -0.160946906
v -0.0291870106 -0.0162728876 -0.160946906
v -0.0332020558 -0.0106962584 -0.160946906
v -0.0224584956 -0.00271316525 -0.160946906
v -0.0184434503 -0.00828979444 -0.160946906
v 0.0373347476 0.0406124853 -0.160946906
v 0.0265911855 0.032629393 -0.160946906
v 0.0265911855 0.032629393 -0.189444408
v 0.0373347476 0.0406124853 -0.189444408
v 0.041349791 0.0350358561 -0.160946906
v 0.0373347476 0.0406124853 -0.160946906
v 0.0373347476 0.0406124853 -0.189444408
v 0.041349791 0.0350358561 -0.189444408
v 0.041349791 0.0350358561 -0.189444408
v 0.0373347476 0.0406124853 -0.189444408
v 0.0265911855 0.032629393 -0.189444408
v 0.0306062307 0.0270527638 -0.189444408
v 0.0306062307 0.0270527638 -0.189444408
v 0.0265911855 0.032629393 -0.189444408
v 0.0265911855 0.032629393 -0.160946906
v 0.0306062307 0.0270527638 -0.160946906
v 0.0306062307 0.0270527638 -0.160946906
v 0.0265911855 0.032629393 -0.160946906
v 0.0373347476 0.0406124853 -0.160946906
v 0.041349791 0.0350358561 -0.160946906
v 0.0373347476 0.0406124853 -0.102524221
v 0.0265911855 0.032629393 -0.102524221
v 0.0265911855 0.032629393 -0.143397346
v 0.0373347476 0.0406124853 -0.143397346
v 0.041349791 0.0350358561 -0.102524221
v 0.0373347476 0.0406124853 -0.102524221
v 0.0373347476 0.0406124853 -0.143397346
v 0.041349791 0.0350358561 -0.143397346
v 0.041349791 0.0350358561 -0.143397346
v 0.0373347476 0.0406124853 -0.143397346
v 0.0265911855 0.032629393 -0.143397346
v 0.0306062307 0.0270527638 -0.143397346
v 0.0306062307 0.0270527638 -0.143397346
v 0.0265911855 0.032629393 -0.143397346
v 0.0265911855 0.032629393 -0.102524221
v 0.0306062307 0.0270527638 -0.102524221
v 0.0306062307 0.0270527638 -0.102524221
v 0.0265911855 0.032629393 -0.102524221
v 0.0373347476 0.0406124853 -0.102524221
v 0.041349791 0.0350358561 -0.102524221
v 0.0373347476 0.0406124853 -0.0601925664
v 0.0265911855 0.032629393 -0.0601925664
v 0.0265911855 0.032629393 -0.0886900723
v 0.0373347476 0.0406124853 -0.0886900723
v 0.041349791 0.0350358561 -0.0601925664
v 0.0373347476 0.0406124853 -0.0601925664
v 0.0373347476 0.0406124853 -0.0886900723
v 0.041349791 0.0350358561 -0.0886900723
v 0.041349791 0.0350358561 -0.0886900723
v 0.0373347476 0.0406124853 -0.0886900723
v 0.0265911855 0.032629393 -0.0886900723
v 0.0306062307 0.0270527638 -0.0886900723
v 0.0306062307 0.0270527638 -0.0886900723
v 0.0265911855 0.032629393 -0.0886900723
v 0.0265911855 0.032629393 -0.0601925664
v 0.0306062307 0.0270527638 -0.0601925664
v 0.0306062307 0.0270527638 -0.0601925664
v 0.0265911855 0.032629393 -0.0601925664
v 0.0373347476 0.0406124853 -0.0601925664
v 0.041349791 0.0350358561 -0.0601925664
v -0.0224584956 -0.00271316525 -0.0601925664
v -0.0332020558 -0.0106962584 -0.0601925664
v -0.0332020558 -0.0106962584 -0.0886900723
v -0.0224584956 -0.00271316525 -0.0886900723
v -0.0184434503 -0.00828979444 -0.0601925664
v -0.0224584956 -0.00271316525 -0.0601925664
v -0.0224584956 -0.00271316525 -0.0886900723
v -0.0184434503 -0.00828979444 -0.0886900723
v -0.0184434503 -0.00828979444 -0.0886900723
v -0.0224584956 -0.00271316525 -0.0886900723
v -0.0332020558 -0.0106962584 -0.0886900723
v -0.0291870106 -0.0162728876 -0.0886900723
v -0.0291870106 -0.0162728876 -0.0886900723
v -0.0332020558 -0.0106962584 -0.0886900723
v -0.0332020558 -0.0106962584 -0.0601925664
v -0.0291870106 -0.0162728876 -0.0601925664
v -0.0291870106 -0.0162728876 -0.0601925664
v -0.0332020558 -0.0106962584 -0.0601925664
v -0.0224584956 -0.00271316525 -0.0601925664
v -0.0184434503 -0.00828979444 -0.0601925664
v 0.00674941996 0.0178435519 -0.160946906
v -0.00399414031 0.00986045785 -0.160946906
v -0.00399414031 0.00986045785 -0.189444408
v 0.00674941996 0.0178435519 -0.189444408
v 0.0107644647 0.0122669218 -0.160946906
v 0.00674941996 0.0178435519 -0.160946906
v 0.00674941996 0.0178435519 -0.189444408
v 0.0107644647 0.0122669218 -0.189444408
v 0.0107644647 0.0122669218 -0.189444408
v 0.00674941996 0.0178435519 -0.189444408
v -0.00399414031 0.00986045785 -0.189444408
v 2.09045411E-05 0.00428382866 -0.189444408
v 2.09045411E-05 0.00428382866 -0.189444408
v -0.00399414031 0.00986045785 -0.189444408
v -0.00399414031 0.00986045785 -0.160946906
v 2.09045411E-05 0.00428382866 -0.160946906
v 2.09045411E-05 0.00428382866 -0.160946906
v -0.00399414031 0.00986045785 -0.160946906
v 0.00674941996 0.0178435519 -0.160946906
v 0.0107644647 0.0122669218 -0.160946906
v 0.00674941996 0.0178435519 -0.102524221
v -0.00399414031 0.00986045785 -0.102524221
v -0.00399414031 0.00986045785 -0.143397346
v 0.00674941996 0.0178435519 -0.143397346
v 0.0107644647 0.0122669218 -0.102524221
v 0.00674941996 0.0178435519 -0.102524221
v 0.00674941996 0.0178435519 -0.143397346
v 0.0107644647 0.0122669218 -0.143397346
v 0.0107644647 0.0122669218 -0.143397346
v 0.00674941996 0.0178435519 -0.143397346
v -0.00399414031 0.00986045785 -0.143397346
v 2.09045411E-05 0.00428382866 -0.143397346
v 2.09045411E-05 0.00428382866 -0.143397346
v -0.00399414031 0.00986045785 -0.143397346
v -0.00399414031 0.00986045785 -0.102524221
v 2.09045411E-05 0.00428382866 -0.102524221
v 2.09045411E-05 0.00428382866 -0.102524221
v -0.00399414031 0.00986045785 -0.102524221
v 0.00674941996 0.0178435519 -0.102524221
v 0.0107644647 0.0122669218 -0.102524221
v 0.00674941996 0.0178435519 -0.0601925664
v -0.00399414031 0.00986045785 -0.0601925664
v -0.00399414031 0.00986045785 -0.0886900723
v 0.00674941996 0.0178435519 -0.0886900723
v 0.0107644647 0.0122669218 -0.0601925664
v 0.00674941996 0.0178435519 -0.0601925664
v 0.00674941996 0.0178435519 -0.0886900723
v 0.0107644647 0.0122669218 -0.0886900723
v 0.0107644647 0.0122669218 -0.0886900723
v 0.00674941996 0.0178435519 -0.0886900723
v -0.00399414031 0.00986045785 -0.0886900723
v 2.09045411E-05 0.00428382866 -0.0886900723
v 2.09045411E-05 0.00428382866 -0.0886900723
v -0.00399414031 0.00986045785 -0.0886900723
v -0.00399414031 0.00986045785 -0.0601925664
v 2.09045411E-05 0.00428382866 -0.0601925664
v 2.09045411E-05 0.00428382866 -0.0601925664
v -0.00399414031 0.00986045785 -0.0601925664
v 0.00674941996 0.0178435519 -0.0601925664
v 0.0107644647 0.0122669218 -0.0601925664
v -0.0792250037 -0.0547820255 -0.21503593
v 0.0591404699 0.0522549413 -0.21503593
v 0.0591404699 0.0522549413 0.215036184
v -0.0792250037 -0.0547820255 0.215036184
v 0.0929997265 -0.056587752 -0.227035969
v 0.0929997265 0.065134123 0.227035999
v 0.0929997265 0.065134123 -0.227035969
v 0.0929997265 -0.056587752 0.227035999
v 0.0929997265 -0.065134123 0.227035999
v 0.0929997265 -0.065134123 -0.227035969
v 0.0929997265 -0.056587752 0.227035999
v 0.0643489063 0.065134123 0.227035999
v 0.0929997265 0.065134123 0.227035999
v -0.0929997265 -0.056587752 0.227035999
v -0.0929997265 -0.065134123 0.227035999
v 0.0929997265 -0.065134123 0.227035999
v 0.0929997265 0.065134123 0.227035999
v 0.0643489063 0.065134123 0.227035999
v 0.0643489063 0.065134123 -0.227035969
v 0.0929997265 0.065134123 -0.227035969
v 0.0929997265 0.065134123 -0.227035969
v 0.0643489063 0.065134123 -0.227035969
v -0.0929997265 -0.056587752 -0.227035969
v 0.0929997265 -0.056587752 -0.227035969
v 0.0929997265 -0.065134123 -0.227035969
v -0.0929997265 -0.065134123 -0.227035969
v -0.0929997265 -0.056587752 0.227035999
v -0.0929997265 -0.065134123 0.227035999
v -0.0929997265 -0.065134123 -0.227035969
v -0.0929997265 -0.056587752 -0.227035969
v -0.0929997265 -0.056587752 -0.227035969
v -0.0835081488 -0.0492452979 -0.21503593
v -0.0835081488 -0.0492452979 0.215036184
v -0.0929997265 -0.056587752 0.227035999
v -0.0929997265 -0.056587752 0.227035999
v -0.0835081488 -0.0492452979 0.215036184
v 0.054857634 0.0577916689 0.215036184
v 0.0643489063 0.065134123 0.227035999
v 0.0643489063 0.065134123 0.227035999
v 0.054857634 0.0577916689 0.215036184
v 0.054857634 0.0577916689 -0.21503593
v 0.0643489063 0.065134123 -0.227035969
v 0.0643489063 0.065134123 -0.227035969
v 0.054857634 0.0577916689 -0.21503593
v -0.0835081488 -0.0492452979 -0.21503593
v -0.0929997265 -0.056587752 -0.227035969
v -0.0835081488 -0.0492452979 -0.21503593
v -0.0792250037 -0.0547820255 -0.21503593
v -0.0792250037 -0.0547820255 0.215036184
v -0.0835081488 -0.0492452979 0.215036184
v -0.0835081488 -0.0492452979 0.215036184
v -0.0792250037 -0.0547820255 0.215036184
v 0.0591404699 0.0522549413 0.215036184
v 0.054857634 0.0577916689 0.215036184
v 0.054857634 0.0577916689 0.215036184
v 0.0591404699 0.0522549413 0.215036184
v 0.0591404699 0.0522549413 -0.21503593
v 0.054857634 0.0577916689 -0.21503593
v 0.054857634 0.0577916689 -0.21503593
v 0.0591404699 0.0522549413 -0.21503593
v -0.0792250037 -0.0547820255 -0.21503593
v -0.0835081488 -0.0492452979 -0.21503593
v 0.0280722044 0.0325617976 0.0177254491
v 0.018580474 0.0251171868 0.0177254491
v 0.0167144779 0.0236536395 0.00998979528
v 0.0299668871 0.0340480022 0.00998979528
v 0.0280722044 0.0325617976 0.00225414266
v 0.018580474 0.0251171868 0.00225414266
v 0.032273408 0.0270545948 0.0177254491
v 0.0280722044 0.0325617976 0.0177254491
v 0.0299668871 0.0340480022 0.00998979528
v 0.0341390967 0.0285179894 0.00998979528
v 0.032273408 0.0270545948 0.00225414266
v 0.0280722044 0.0325617976 0.00225414266
v 0.018580474 0.0251171868 0.00225414266
v 0.0227816775 0.0196099095 0.00225414266
v 0.0167144779 0.0236536395 0.00998979528
v 0.018580474 0.0251171868 0.0177254491
v 0.0227816775 0.0196099095 0.0177254491
v 0.020886993 0.0181237794 0.00998979528
v 0.0227816775 0.0196099095 0.0177254491
v 0.018580474 0.0251171868 0.0177254491
v 0.0280722044 0.0325617976 0.0177254491
v 0.032273408 0.0270545948 0.0177254491
v 0.0299668871 0.0340480022 0.00998979528
v 0.0280722044 0.0325617976 0.00225414266
v 0.032273408 0.0270545948 0.00225414266
v 0.0341390967 0.0285179894 0.00998979528
v 0.0227816775 0.0196099095 0.00225414266
v 0.018580474 0.0251171868 0.00225414266
v 0.0167144779 0.0236536395 0.00998979528
v 0.020886993 0.0181237794 0.00998979528
v -0.00570404017 0.00807113666 0.016658267
v -0.0138862608 0.00165351864 0.016658267
v -0.0154945366 0.000391921989 0.00998979528
v -0.00407058699 0.00935226399 0.00998979528
v -0.00570404017 0.00807113666 0.00332132331
v -0.0138862608 0.00165351864 0.00332132331
v -0.00208206172 0.00332366931 0.016658267
v -0.00570404017 0.00807113666 0.016658267
v -0.00407058699 0.00935226399 0.00998979528
v -0.000473785389 0.00458518974 0.00998979528
v -0.00208206172 0.00332366931 0.00332132331
v -0.00570404017 0.00807113666 0.00332132331
v -0.0138862608 0.00165351864 0.00332132331
v -0.0102642821 -0.00309394835 0.00332132331
v -0.0154945366 0.000391921989 0.00998979528
v -0.0138862608 0.00165351864 0.016658267
v -0.0102642821 -0.00309394835 0.016658267
v -0.0118977353 -0.00437507639 0.00998979528
v -0.0102642821 -0.00309394835 0.016658267
v -0.0138862608 0.00165351864 0.016658267
v -0.00570404017 0.00807113666 0.016658267
v -0.00208206172 0.00332366931 0.016658267
v -0.00407058699 0.00935226399 0.00998979528
v -0.00570404017 0.00807113666 0.00332132331
v -0.00208206172 0.00332366931 0.00332132331
v -0.000473785389 0.00458518974 0.00998979528
v -0.0102642821 -0.00309394835 0.00332132331
v -0.0138862608 0.00165351864 0.00332132331
v -0.0154945366 0.000391921989 0.00998979528
v -0.0118977353 -0.00437507639 0.00998979528
v -0.0422206111 -0.0272669215 0.179204568
v -0.0468858331 -0.0207868181 0.179204568
v -0.040644072 -0.0161484517 0.160575196
v -0.0359785445 -0.0226285551 0.160575196
v -0.0359785445 -0.0226285551 0.160575196
v -0.040644072 -0.0161484517 0.160575196
v -0.0531282015 -0.0254248809 0.160575196
v -0.0484626777 -0.0319049843 0.160575196
v -0.0484626777 -0.0319049843 0.160575196
v -0.0531282015 -0.0254248809 0.160575196
v -0.0468858331 -0.0207868181 0.179204568
v -0.0422206111 -0.0272669215 0.179204568
v -0.036217805 -0.0228609461 0.114077926
v -0.0408833288 -0.0163808446 0.114077926
v -0.0471250899 -0.021019211 0.0954485461
v -0.0424598679 -0.0274993125 0.0954485461
v -0.0424598679 -0.0274993125 0.0954485461
v -0.0471250899 -0.021019211 0.0954485461
v -0.053367462 -0.025657272 0.114077926
v -0.0487019345 -0.0321373753 0.114077926
v -0.0487019345 -0.0321373753 0.114077926
v -0.053367462 -0.025657272 0.114077926
v -0.0408833288 -0.0163808446 0.114077926
v -0.036217805 -0.0228609461 0.114077926
v -0.0223307796 -0.0118369292 0.136784837
v -0.0269963071 -0.00535682682 0.136784837
v -0.0394804366 -0.0146332551 0.124801122
v -0.0348149091 -0.0211133566 0.124801122
v -0.0348149091 -0.0211133566 0.124801122
v -0.0394804366 -0.0146332551 0.124801122
v -0.0394804366 -0.0146332551 0.148768485
v -0.0348149091 -0.0211133566 0.148768485
v -0.0348149091 -0.0211133566 0.148768485
v -0.0394804366 -0.0146332551 0.148768485
v -0.0269963071 -0.00535682682 0.136784837
v -0.0223307796 -0.0118369292 0.136784837
v -0.0507189929 -0.0351073444 0.148768485
v -0.0553845204 -0.0286272429 0.148768485
v -0.0553845204 -0.0286272429 0.124801122
v -0.0507189929 -0.0351073444 0.124801122
v -0.0507189929 -0.0351073444 0.124801122
v -0.0553845204 -0.0286272429 0.124801122
v -0.06786865 -0.0379036702 0.136784837
v -0.0632031262 -0.0443837717 0.136784837
v -0.0632031262 -0.0443837717 0.136784837
v -0.06786865 -0.0379036702 0.136784837
v -0.0553845204 -0.0286272429 0.148768485
v -0.0507189929 -0.0351073444 0.148768485
v -0.0499371327 -0.0238609314 -0.160946906
v -0.0606806949 -0.0318440236 -0.160946906
v -0.0606806949 -0.0318440236 -0.189444408
v -0.0499371327 -0.0238609314 -0.189444408
v -0.0459220894 -0.0294375606 -0.160946906
v -0.0499371327 -0.0238609314 -0.160946906
v -0.0499371327 -0.0238609314 -0.189444408
v -0.0459220894 -0.0294375606 -0.189444408
v -0.0459220894 -0.0294375606 -0.189444408
v -0.0499371327 -0.0238609314 -0.189444408
v -0.0606806949 -0.0318440236 -0.189444408
v -0.0566656478 -0.0374206528 -0.189444408
v -0.0566656478 -0.0374206528 -0.189444408
v -0.0606806949 -0.0318440236 -0.189444408
v -0.0606806949 -0.0318440236 -0.160946906
v -0.0566656478 -0.0374206528 -0.160946906
v -0.0566656478 -0.0374206528 -0.160946906
v -0.0606806949 -0.0318440236 -0.160946906
v -0.0499371327 -0.0238609314 -0.160946906
v -0.0459220894 -0.0294375606 -0.160946906
v -0.0499371327 -0.0238609314 -0.102524221
v -0.0606806949 -0.0318440236 -0.102524221
v -0.0606806949 -0.0318440236 -0.143397346
v -0.0499371327 -0.0238609314 -0.143397346
v -0.0459220894 -0.0294375606 -0.102524221
v -0.0499371327 -0.0238609314 -0.102524221
v -0.0499371327 -0.0238609314 -0.143397346
v -0.0459220894 -0.0294375606 -0.143397346
v -0.0459220894 -0.0294375606 -0.143397346
v -0.0499371327 -0.0238609314 -0.143397346
v -0.0606806949 -0.0318440236 -0.143397346
v -0.0566656478 -0.0374206528 -0.143397346
v -0.0566656478 -0.0374206528 -0.143397346
v -0.0606806949 -0.0318440236 -0.143397346
v -0.0606806949 -0.0318440236 -0.102524221
v -0.0566656478 -0.0374206528 -0.102524221
v -0.0566656478 -0.0374206528 -0.102524221
v -0.0606806949 -0.0318440236 -0.102524221
v -0.0499371327 -0.0238609314 -0.102524221
v -0.0459220894 -0.0294375606 -0.102524221
v -0.0499371327 -0.0238609314 -0.0601925664
v -0.0606806949 -0.0318440236 -0.0601925664
v -0.0606806949 -0.0318440236 -0.0886900723
v -0.0499371327 -0.0238609314 -0.0886900723
v -0.0459220894 -0.0294375606 -0.0601925664
v -0.0499371327 -0.0238609314 -0.0601925664
v -0.0499371327 -0.0238609314 -0.0886900723
v -0.0459220894 -0.0294375606 -0.0886900723
v -0.0459220894 -0.0294375606 -0.0886900723
v -0.0499371327 -0.0238609314 -0.0886900723
v -0.0606806949 -0.0318440236 -0.0886900723
v -0.0566656478 -0.0374206528 -0.0886900723
v -0.0566656478 -0.0374206528 -0.0886900723
v -0.0606806949 -0.0318440236 -0.0886900723
v -0.0606806949 -0.0318440236 -0.0601925664
v -0.0566656478 -0.0374206528 -0.0601925664
v -0.0566656478 -0.0374206528 -0.0601925664
v -0.0606806949 -0.0318440236 -0.0601925664
v -0.0499371327 -0.0238609314 -0.0601925664
v -0.0459220894 -0.0294375606 -0.0601925664
vt 0.0694580078 0.987792969
vt 0.0578613281 0.982910156
vt 0.0578613281 0.992675781
vt 0.0578613281 0.982910156
vt 0.0578613281 0.992675781
vt 0.0694580078 0.987792969
vt 0.0325622559 0.993652344
vt 0.0404052734 0.983398438
vt 0.0246887207 0.983398438
vt 0.0246734619 0.983398438
vt 0.0325622559 0.993652344
vt 0.040435791 0.983398438
vt 0.106079102 0.982910156
vt 0.106079102 0.990722656
vt 0.12902832 0.990722656
vt 0.12902832 0.982910156
vt 0.106079102 0.979003906
vt 0.106079102 0.982910156
vt 0.12902832 0.982910156
vt 0.12902832 0.979003906
vt 0.1328125 0.982910156
vt 0.12902832 0.982910156
vt 0.12902832 0.990722656
vt 0.1328125 0.990722656
vt 0.12902832 0.994628906
vt 0.12902832 0.990722656
vt 0.106079102 0.990722656
vt 0.106079102 0.994628906
vt 0.102233887 0.990722656
vt 0.106079102 0.990722656
vt 0.106079102 0.982910156
vt 0.102233887 0.982910156
vt 0.0797119141 0.983886719
vt 0.0797119141 0.991210938
vt 0.0952148438 0.991210938
vt 0.0952148438 0.983886719
vt 0.0797119141 0.979980469
vt 0.0797119141 0.983886719
vt 0.0952148438 0.983886719
vt 0.0952148438 0.979980469
vt 0.0989990234 0.983886719
vt 0.0952148438 0.983886719
vt 0.0952148438 0.991210938
vt 0.0989990234 0.991210938
vt 0.0952148438 0.994628906
vt 0.0952148438 0.991210938
vt 0.0797119141 0.991210938
vt 0.0797119141 0.994628906
vt 0.0759887695 0.991210938
vt 0.0797119141 0.991210938
vt 0.0797119141 0.983886719
vt 0.0759887695 0.983886719
vt 0.0797119141 0.983886719
vt 0.0797119141 0.991210938
vt 0.0952148438 0.991210938
vt 0.0952148438 0.983886719
vt 0.0797119141 0.979980469
vt 0.0797119141 0.983886719
vt 0.0952148438 0.983886719
vt 0.0952148438 0.979980469
vt 0.0989990234 0.983886719
vt 0.0952148438 0.983886719
vt 0.0952148438 0.991210938
vt 0.0989990234 0.991210938
vt 0.0952148438 0.994628906
vt 0.0952148438 0.991210938
vt 0.0797119141 0.991210938
vt 0.0797119141 0.994628906
vt 0.0759887695 0.991210938
vt 0.0797119141 0.991210938
vt 0.0797119141 0.983886719
vt 0.0759887695 0.983886719
vt 0.106079102 0.982910156
vt 0.106079102 0.990722656
vt 0.12902832 0.990722656
vt 0.12902832 0.982910156
vt 0.106079102 0.979003906
vt 0.106079102 0.982910156
vt 0.12902832 0.982910156
vt 0.12902832 0.979003906
vt 0.1328125 0.982910156
vt 0.12902832 0.982910156
vt 0.12902832 0.990722656
vt 0.1328125 0.990722656
vt 0.12902832 0.994628906
vt 0.12902832 0.990722656
vt 0.106079102 0.990722656
vt 0.106079102 0.994628906
vt 0.102233887 0.990722656
vt 0.106079102 0.990722656
vt 0.106079102 0.982910156
vt 0.102233887 0.982910156
vt 0.0797119141 0.983886719
vt 0.0797119141 0.991210938
vt 0.0952148438 0.991210938
vt 0.0952148438 0.983886719
vt 0.0797119141 0.979980469
vt 0.0797119141 0.983886719
vt 0.0952148438 0.983886719
vt 0.0952148438 0.979980469
vt 0.0989990234 0.983886719
vt 0.0952148438 0.983886719
vt 0.0952148438 0.991210938
vt 0.0989990234 0.991210938
vt 0.0952148438 0.994628906
vt 0.0952148438 0.991210938
vt 0.0797119141 0.991210938
vt 0.0797119141 0.994628906
vt 0.0759887695 0.991210938
vt 0.0797119141 0.991210938
vt 0.0797119141 0.983886719
vt 0.0759887695 0.983886719
vt 0.0797119141 0.983886719
vt 0.0797119141 0.991210938
vt 0.0952148438 0.991210938
vt 0.0952148438 0.983886719
vt 0.0797119141 0.979980469
vt 0.0797119141 0.983886719
vt 0.0952148438 0.983886719
vt 0.0952148438 0.979980469
vt 0.0989990234 0.983886719
vt 0.0952148438 0.983886719
vt 0.0952148438 0.991210938
vt 0.0989990234 0.991210938
vt 0.0952148438 0.994628906
vt 0.0952148438 0.991210938
vt 0.0797119141 0.991210938
vt 0.0797119141 0.994628906
vt 0.0759887695 0.991210938
vt 0.0797119141 0.991210938
vt 0.0797119141 0.983886719
vt 0.0759887695 0.983886719
vt 0.0797119141 0.983886719
vt 0.0797119141 0.991210938
vt 0.0952148438 0.991210938
vt 0.0952148438 0.983886719
vt 0.0797119141 0.979980469
vt 0.0797119141 0.983886719
vt 0.0952148438 0.983886719
vt 0.0952148438 0.979980469
vt 0.0989990234 0.983886719
vt 0.0952148438 0.983886719
vt 0.0952148438 0.991210938
vt 0.0989990234 0.991210938
vt 0.0952148438 0.994628906
vt 0.0952148438 0.991210938
vt 0.0797119141 0.991210938
vt 0.0797119141 0.994628906
vt 0.0759887695 0.991210938
vt 0.0797119141 0.991210938
vt 0.0797119141 0.983886719
vt 0.0759887695 0.983886719
vt 0.106079102 0.982910156
vt 0.106079102 0.990722656
vt 0.12902832 0.990722656
vt 0.12902832 0.982910156
vt 0.106079102 0.979003906
vt 0.106079102 0.982910156
vt 0.12902832 0.982910156
vt 0.12902832 0.979003906
vt 0.1328125 0.982910156
vt 0.12902832 0.982910156
vt 0.12902832 0.990722656
vt 0.1328125 0.990722656
vt 0.12902832 0.994628906
vt 0.12902832 0.990722656
vt 0.106079102 0.990722656
vt 0.106079102 0.994628906
vt 0.102233887 0.990722656
vt 0.106079102 0.990722656
vt 0.106079102 0.982910156
vt 0.102233887 0.982910156
vt 0.0797119141 0.983886719
vt 0.0797119141 0.991210938
vt 0.0952148438 0.991210938
vt 0.0952148438 0.983886719
vt 0.0797119141 0.979980469
vt 0.0797119141 0.983886719
vt 0.0952148438 0.983886719
vt 0.0952148438 0.979980469
vt 0.0989990234 0.983886719
vt 0.0952148438 0.983886719
vt 0.0952148438 0.991210938
vt 0.0989990234 0.991210938
vt 0.0952148438 0.994628906
vt 0.0952148438 0.991210938
vt 0.0797119141 0.991210938
vt 0.0797119141 0.994628906
vt 0.0759887695 0.991210938
vt 0.0797119141 0.991210938
vt 0.0797119141 0.983886719
vt 0.0759887695 0.983886719
vt 0.00880432129 0.891113281
vt 0.00880432129 0.97265625
vt 0.209228516 0.97265625
vt 0.209228516 0.891113281
vt 0.213623047 0.808105469
vt 0.00190544128 0.865234375
vt 0.213623047 0.865234375
vt 0.00190544128 0.808105469
vt 0.00190544128 0.804199219
vt 0.213623047 0.804199219
vt 0.00222206116 0.808105469
vt 0.0155792236 0.864746094
vt 0.00222206116 0.864746094
vt 0.0889282227 0.808105469
vt 0.0889282227 0.804199219
vt 0.00222206116 0.804199219
vt 0.00190544128 0.865234375
vt 0.00190544128 0.878417969
vt 0.213623047 0.878417969
vt 0.213623047 0.865234375
vt 0.00222206116 0.864746094
vt 0.0155792236 0.864746094
vt 0.0889282227 0.808105469
vt 0.00222206116 0.808105469
vt 0.00222206116 0.804199219
vt 0.0889282227 0.804199219
vt 0.213378906 0.792480469
vt 0.213378906 0.788574219
vt 0.00176334381 0.788574219
vt 0.00176334381 0.792480469
vt 0.00176334381 0.792480469
vt 0.00735855103 0.798339844
vt 0.207885742 0.798339844
vt 0.213378906 0.792480469
vt 0.104125977 0.792480469
vt 0.0985107422 0.798339844
vt 0.016998291 0.798339844
vt 0.0113983154 0.792480469
vt 0.00190544128 0.878417969
vt 0.00749969482 0.883789062
vt 0.208007812 0.883789062
vt 0.213623047 0.878417969
vt 0.106811523 0.792480469
vt 0.112426758 0.798339844
vt 0.193969727 0.798339844
vt 0.199584961 0.792480469
vt 0.00735855103 0.798339844
vt 0.00735855103 0.801757812
vt 0.207885742 0.801757812
vt 0.207885742 0.798339844
vt 0.0985107422 0.798339844
vt 0.0985107422 0.801757812
vt 0.016998291 0.801757812
vt 0.016998291 0.798339844
vt 0.00749969482 0.883789062
vt 0.00749969482 0.887207031
vt 0.208007812 0.887207031
vt 0.208007812 0.883789062
vt 0.112426758 0.798339844
vt 0.112426758 0.801757812
vt 0.193969727 0.801757812
vt 0.193969727 0.798339844
vt 0.190551758 0.985351562
vt 0.182128906 0.985351562
vt 0.180541992 0.990722656
vt 0.192260742 0.990722656
vt 0.190551758 0.99609375
vt 0.182128906 0.99609375
vt 0.190429688 0.98046875
vt 0.190551758 0.985351562
vt 0.196166992 0.985351562
vt 0.196044922 0.98046875
vt 0.162475586 0.980957031
vt 0.162475586 0.985839844
vt 0.170898438 0.985351562
vt 0.170776367 0.98046875
vt 0.176513672 0.985351562
vt 0.182128906 0.985351562
vt 0.182128906 0.98046875
vt 0.176391602 0.98046875
vt 0.182128906 0.98046875
vt 0.182128906 0.985351562
vt 0.190551758 0.985351562
vt 0.190429688 0.98046875
vt 0.196166992 0.985351562
vt 0.201782227 0.984863281
vt 0.201660156 0.979980469
vt 0.196044922 0.98046875
vt 0.170776367 0.98046875
vt 0.170898438 0.985351562
vt 0.176513672 0.985351562
vt 0.176391602 0.98046875
vt 0.151000977 0.991699219
vt 0.159423828 0.991699219
vt 0.161010742 0.986328125
vt 0.149414062 0.986328125
vt 0.151000977 0.980957031
vt 0.159423828 0.980957031
vt 0.151123047 0.99609375
vt 0.151000977 0.991699219
vt 0.145385742 0.991699219
vt 0.145507812 0.996582031
vt 0.179077148 0.99609375
vt 0.179077148 0.991210938
vt 0.170654297 0.991210938
vt 0.170776367 0.99609375
vt 0.165039062 0.991699219
vt 0.159423828 0.991699219
vt 0.159423828 0.99609375
vt 0.165161133 0.99609375
vt 0.159423828 0.99609375
vt 0.159423828 0.991699219
vt 0.151000977 0.991699219
vt 0.151123047 0.99609375
vt 0.145385742 0.991699219
vt 0.139770508 0.991699219
vt 0.139892578 0.996582031
vt 0.145507812 0.996582031
vt 0.170776367 0.99609375
vt 0.170654297 0.991210938
vt 0.165039062 0.991699219
vt 0.165161133 0.99609375
vt 0.0714111328 0.992675781
vt 0.0694580078 0.987792969
vt 0.0578613281 0.992675781
vt 0.0598144531 0.997558594
vt 0.0529174805 0.992675781
vt 0.0578613281 0.992675781
vt 0.0578613281 0.982910156
vt 0.0529174805 0.982910156
vt 0.059753418 0.978515625
vt 0.0578613281 0.982910156
vt 0.0694580078 0.987792969
vt 0.0713500977 0.983398438
vt 0.0598144531 0.978515625
vt 0.0578613281 0.982910156
vt 0.0694580078 0.987792969
vt 0.0714111328 0.983398438
vt 0.0713500977 0.992675781
vt 0.0694580078 0.987792969
vt 0.0578613281 0.992675781
vt 0.059753418 0.997558594
vt 0.0528869629 0.992675781
vt 0.0578613281 0.992675781
vt 0.0578613281 0.982910156
vt 0.0528869629 0.982910156
vt 0.0283660889 0.997070312
vt 0.0325622559 0.993652344
vt 0.0246887207 0.983398438
vt 0.0205078125 0.986816406
vt 0.0246887207 0.978515625
vt 0.0246887207 0.983398438
vt 0.0404052734 0.983398438
vt 0.0404052734 0.978515625
vt 0.0445861816 0.986816406
vt 0.0404052734 0.983398438
vt 0.0325622559 0.993652344
vt 0.0367431641 0.997070312
vt 0.0246734619 0.978515625
vt 0.0246734619 0.983398438
vt 0.040435791 0.983398438
vt 0.040435791 0.978515625
vt 0.0445556641 0.986816406
vt 0.040435791 0.983398438
vt 0.0325622559 0.993652344
vt 0.0366821289 0.997070312
vt 0.028427124 0.997070312
vt 0.0325622559 0.993652344
vt 0.0246734619 0.983398438
vt 0.0205535889 0.986816406
vt 0.0797119141 0.983886719
vt 0.0797119141 0.991210938
vt 0.0952148438 0.991210938
vt 0.0952148438 0.983886719
vt 0.0797119141 0.979980469
vt 0.0797119141 0.983886719
vt 0.0952148438 0.983886719
vt 0.0952148438 0.979980469
vt 0.0989990234 0.983886719
vt 0.0952148438 0.983886719
vt 0.0952148438 0.991210938
vt 0.0989990234 0.991210938
vt 0.0952148438 0.994628906
vt 0.0952148438 0.991210938
vt 0.0797119141 0.991210938
vt 0.0797119141 0.994628906
vt 0.0759887695 0.991210938
vt 0.0797119141 0.991210938
vt 0.0797119141 0.983886719
vt 0.0759887695 0.983886719
vt 0.106079102 0.982910156
vt 0.106079102 0.990722656
vt 0.12902832 0.990722656
vt 0.12902832 0.982910156
vt 0.106079102 0.979003906
vt 0.106079102 0.982910156
vt 0.12902832 0.982910156
vt 0.12902832 0.979003906
vt 0.1328125 0.982910156
vt 0.12902832 0.982910156
vt 0.12902832 0.990722656
vt 0.1328125 0.990722656
vt 0.12902832 0.994628906
vt 0.12902832 0.990722656
vt 0.106079102 0.990722656
vt 0.106079102 0.994628906
vt 0.102233887 0.990722656
vt 0.106079102 0.990722656
vt 0.106079102 0.982910156
vt 0.102233887 0.982910156
vt 0.0797119141 0.983886719
vt 0.0797119141 0.991210938
vt 0.0952148438 0.991210938
vt 0.0952148438 0.983886719
vt 0.0797119141 0.979980469
vt 0.0797119141 0.983886719
vt 0.0952148438 0.983886719
vt 0.0952148438 0.979980469
vt 0.0989990234 0.983886719
vt 0.0952148438 0.983886719
vt 0.0952148438 0.991210938
vt 0.0989990234 0.991210938
vt 0.0952148438 0.994628906
vt 0.0952148438 0.991210938
vt 0.0797119141 0.991210938
vt 0.0797119141 0.994628906
vt 0.0759887695 0.991210938
vt 0.0797119141 0.991210938
vt 0.0797119141 0.983886719
vt 0.0759887695 0.983886719
vn -0.596191406 0.802734375 1.63912773E-05
vn -0.596191406 0.802734375 1.63912773E-05
vn -0.596191406 0.802734375 1.63912773E-05
vn -0.596191406 0.802734375 -1.6450882E-05
vn -0.596191406 0.802734375 -1.6450882E-05
vn -0.596191406 0.802734375 -1.6450882E-05
vn -0.596191406 0.802734375 0
vn -0.596191406 0.802734375 0
vn -0.596191406 0.802734375 0
vn -0.596191406 0.802734375 0
vn -0.596191406 0.802734375 0
vn -0.596191406 0.802734375 0
vn -0.596191406 0.802734375 0
vn -0.596191406 0.802734375 0
vn -0.596191406 0.802734375 0
vn -0.596191406 0.802734375 0
vn 0.811523438 0.584472656 0
vn 0.811523438 0.584472656 0
vn 0.811523438 0.584472656 0
vn 0.811523438 0.584472656 0
vn -0 0 -1
vn -0 0 -1
vn -0 0 -1
vn -0 0 -1
vn -0.811523438 -0.584472656 0
vn -0.811523438 -0.584472656 0
vn -0.811523438 -0.584472656 0
vn -0.811523438 -0.584472656 0
vn -5.36441803E-07 0 1
vn -5.36441803E-07 0 1
vn -5.36441803E-07 0 1
vn -5.36441803E-07 0 1
vn -0.596191406 0.802734375 0
vn -0.596191406 0.802734375 0
vn -0.596191406 0.802734375 0
vn -0.596191406 0.802734375 0
vn 0.811523438 0.584472656 0
vn 0.811523438 0.584472656 0
vn 0.811523438 0.584472656 0
vn 0.811523438 0.584472656 0
vn -0 0 -1
vn -0 0 -1
vn -0 0 -1
vn -0 0 -1
vn -0.811523438 -0.584472656 0
vn -0.811523438 -0.584472656 0
vn -0.811523438 -0.584472656 0
vn -0.811523438 -0.584472656 0
vn -0 0 1
vn -0 0 1
vn -0 0 1
vn -0 0 1
vn -0.596191406 0.802734375 0
vn -0.596191406 0.802734375 0
vn -0.596191406 0.802734375 0
vn -0.596191406 0.802734375 0
vn 0.811523438 0.584472656 0
vn 0.811523438 0.584472656 0
vn 0.811523438 0.584472656 0
vn 0.811523438 0.584472656 0
vn -0 0 -1
vn -0 0 -1
vn -0 0 -1
vn -0 0 -1
vn -0.811523438 -0.584472656 0
vn -0.811523438 -0.584472656 0
vn -0.811523438 -0.584472656 0
vn -0.811523438 -0.584472656 0
vn -0 0 1
vn -0 0 1
vn -0 0 1
vn -0 0 1
vn -0.596191406 0.802734375 0
vn -0.596191406 0.802734375 0
vn -0.596191406 0.802734375 0
vn -0.596191406 0.802734375 0
vn 0.811523438 0.584472656 0
vn 0.811523438 0.584472656 0
vn 0.811523438 0.584472656 0
vn 0.811523438 0.584472656 0
vn -0 0 -1
vn -0 0 -1
vn -0 0 -1
vn -0 0 -1
vn -0.811523438 -0.584472656 0
vn -0.811523438 -0.584472656 0
vn -0.811523438 -0.584472656 0
vn -0.811523438 -0.584472656 0
vn -5.36441803E-07 0 1
vn -5.36441803E-07 0 1
vn -5.36441803E-07 0 1
vn -5.36441803E-07 0 1
vn -0.596191406 0.802734375 0
vn -0.596191406 0.802734375 0
vn -0.596191406 0.802734375 0
vn -0.596191406 0.802734375 0
vn 0.811523438 0.584472656 0
vn 0.811523438 0.584472656 0
vn 0.811523438 0.584472656 0
vn 0.811523438 0.584472656 0
vn -0 0 -1
vn -0 0 -1
vn -0 0 -1
vn -0 0 -1
vn -0.811523438 -0.584472656 0
vn -0.811523438 -0.584472656 0
vn -0.811523438 -0.584472656 0
vn -0.811523438 -0.584472656 0
vn 2.38418579E-07 0 1
vn 2.38418579E-07 0 1
vn 2.38418579E-07 0 1
vn 2.38418579E-07 0 1
vn -0.596191406 0.802734375 0
vn -0.596191406 0.802734375 0
vn -0.596191406 0.802734375 0
vn -0.596191406 0.802734375 0
vn 0.811523438 0.584472656 0
vn 0.811523438 0.584472656 0
vn 0.811523438 0.584472656 0
vn 0.811523438 0.584472656 0
vn -0 0 -1
vn -0 0 -1
vn -0 0 -1
vn -0 0 -1
vn -0.811523438 -0.584472656 0
vn -0.811523438 -0.584472656 0
vn -0.811523438 -0.584472656 0
vn -0.811523438 -0.584472656 0
vn 2.38418579E-07 0 1
vn 2.38418579E-07 0 1
vn 2.38418579E-07 0 1
vn 2.38418579E-07 0 1
vn -0.596191406 0.802734375 0
vn -0.596191406 0.802734375 0
vn -0.596191406 0.802734375 0
vn -0.596191406 0.802734375 0
vn 0.811523438 0.584472656 0
vn 0.811523438 0.584472656 0
vn 0.811523438 0.584472656 0
vn 0.811523438 0.584472656 0
vn -0 0 -1
vn -0 0 -1
vn -0 0 -1
vn -0 0 -1
vn -0.811523438 -0.584472656 0
vn -0.811523438 -0.584472656 0
vn -0.811523438 -0.584472656 0
vn -0.811523438 -0.584472656 0
vn -0 0 1
vn -0 0 1
vn -0 0 1
vn -0 0 1
vn -0.596191406 0.802734375 0
vn -0.596191406 0.802734375 0
vn -0.596191406 0.802734375 0
vn -0.596191406 0.802734375 0
vn 0.811523438 0.584472656 0
vn 0.811523438 0.584472656 0
vn 0.811523438 0.584472656 0
vn 0.811523438 0.584472656 0
vn -0 0 -1
vn -0 0 -1
vn -0 0 -1
vn -0 0 -1
vn -0.811523438 -0.584472656 0
vn -0.811523438 -0.584472656 0
vn -0.811523438 -0.584472656 0
vn -0.811523438 -0.584472656 0
vn -5.36441803E-07 0 1
vn -5.36441803E-07 0 1
vn -5.36441803E-07 0 1
vn -5.36441803E-07 0 1
vn -0.596191406 0.802734375 0
vn -0.596191406 0.802734375 0
vn -0.596191406 0.802734375 0
vn -0.596191406 0.802734375 0
vn 0.811523438 0.584472656 0
vn 0.811523438 0.584472656 0
vn 0.811523438 0.584472656 0
vn 0.811523438 0.584472656 0
vn -0 0 -1
vn -0 0 -1
vn -0 0 -1
vn -0 0 -1
vn -0.811523438 -0.584472656 0
vn -0.811523438 -0.584472656 0
vn -0.811523438 -0.584472656 0
vn -0.811523438 -0.584472656 0
vn 2.38418579E-07 0 1
vn 2.38418579E-07 0 1
vn 2.38418579E-07 0 1
vn 2.38418579E-07 0 1
vn -0.611816406 0.791015625 0
vn -0.611816406 0.791015625 0
vn -0.611816406 0.791015625 0
vn -0.611816406 0.791015625 0
vn 1 0 0
vn 1 0 0
vn 1 0 0
vn 1 0 0
vn 1 0 0
vn 1 0 0
vn -0 0 1
vn -0 0 1
vn -0 0 1
vn -0 0 1
vn -0 0 1
vn -0 0 1
vn -0 1 0
vn -0 1 0
vn -0 1 0
vn -0 1 0
vn -0 0 -1
vn -0 0 -1
vn -0 0 -1
vn -0 0 -1
vn -0 0 -1
vn -0 0 -1
vn -1 0 0
vn -1 0 0
vn -1 0 0
vn -1 0 0
vn -0.611816406 0.791015625 2.32458115E-06
vn -0.611816406 0.791015625 2.32458115E-06
vn -0.611816406 0.791015625 -2.32458115E-06
vn -0.611816406 0.791015625 -2.32458115E-06
vn -0.611816406 0.791015625 -2.32458115E-06
vn -0.611816406 0.791015625 -2.32458115E-06
vn -0.611816406 0.791015625 -2.32458115E-06
vn -0.611816406 0.791015625 -2.32458115E-06
vn -0.611816406 0.791015625 -2.32458115E-06
vn -0.611816406 0.791015625 -2.32458115E-06
vn -0.611816406 0.791015625 2.32458115E-06
vn -0.611816406 0.791015625 2.32458115E-06
vn -0.611816406 0.791015625 2.32458115E-06
vn -0.611816406 0.791015625 2.32458115E-06
vn -0.611816406 0.791015625 2.32458115E-06
vn -0.611816406 0.791015625 2.32458115E-06
vn 0.791015625 0.611816406 0
vn 0.791015625 0.611816406 0
vn 0.791015625 0.611816406 0
vn 0.791015625 0.611816406 0
vn 5.36441803E-07 0 -1
vn 5.36441803E-07 0 -1
vn 5.36441803E-07 0 -1
vn 5.36441803E-07 0 -1
vn -0.791015625 -0.611816406 0
vn -0.791015625 -0.611816406 0
vn -0.791015625 -0.611816406 0
vn -0.791015625 -0.611816406 0
vn -4.76837158E-07 0 1
vn -4.76837158E-07 0 1
vn -4.76837158E-07 0 1
vn -4.76837158E-07 0 1
vn -0.6171875 0.786621094 8.34465027E-06
vn -0.6171875 0.786621094 8.34465027E-06
vn -0.6171875 0.786621094 8.34465027E-06
vn -0.6171875 0.786621094 8.34465027E-06
vn -0.6171875 0.786621094 -8.28504562E-06
vn -0.6171875 0.786621094 -8.28504562E-06
vn 0.761230469 0.577636719 0.295166016
vn 0.761230469 0.577636719 0.295166016
vn 0.761230469 0.577636719 0.295166016
vn 0.761230469 0.577636719 0.295166016
vn -0 0 -1
vn -0 0 -1
vn -0 0 -1
vn -0 0 -1
vn -0.761230469 -0.577636719 0.295166016
vn -0.761230469 -0.577636719 0.295166016
vn -0.761230469 -0.577636719 0.295166016
vn -0.761230469 -0.577636719 0.295166016
vn -0 0 1
vn -0 0 1
vn -0 0 1
vn -0 0 1
vn 0.761230469 0.577636719 -0.295166016
vn 0.761230469 0.577636719 -0.295166016
vn 0.761230469 0.577636719 -0.295166016
vn 0.761230469 0.577636719 -0.295166016
vn -0.761230469 -0.577636719 -0.295166016
vn -0.761230469 -0.577636719 -0.295166016
vn -0.761230469 -0.577636719 -0.295166016
vn -0.761230469 -0.577636719 -0.295166016
vn -0.6171875 0.786621094 -1.2755394E-05
vn -0.6171875 0.786621094 -1.2755394E-05
vn -0.6171875 0.786621094 -1.2755394E-05
vn -0.6171875 0.786621094 -1.2755394E-05
vn -0.6171875 0.786621094 1.2755394E-05
vn -0.6171875 0.786621094 1.2755394E-05
vn 0.761230469 0.577636719 0.295166016
vn 0.761230469 0.577636719 0.295166016
vn 0.761230469 0.577636719 0.295166016
vn 0.761230469 0.577636719 0.295166016
vn -0 0 -1
vn -0 0 -1
vn -0 0 -1
vn -0 0 -1
vn -0.761230469 -0.577636719 0.295166016
vn -0.761230469 -0.577636719 0.295166016
vn -0.761230469 -0.577636719 0.295166016
vn -0.761230469 -0.577636719 0.295166016
vn -0 0 1
vn -0 0 1
vn -0 0 1
vn -0 0 1
vn 0.761230469 0.577636719 -0.295166016
vn 0.761230469 0.577636719 -0.295166016
vn 0.761230469 0.577636719 -0.295166016
vn 0.761230469 0.577636719 -0.295166016
vn -0.761230469 -0.577636719 -0.295166016
vn -0.761230469 -0.577636719 -0.295166016
vn -0.761230469 -0.577636719 -0.295166016
vn -0.761230469 -0.577636719 -0.295166016
vn 0.749023438 0.5390625 0.385253906
vn 0.749023438 0.5390625 0.385253906
vn 0.749023438 0.5390625 0.385253906
vn 0.749023438 0.5390625 0.385253906
vn -0 0 -1
vn -0 0 -1
vn -0 0 -1
vn -0 0 -1
vn -0.749023438 -0.5390625 0.385253906
vn -0.749023438 -0.5390625 0.385253906
vn -0.749023438 -0.5390625 0.385253906
vn -0.749023438 -0.5390625 0.385253906
vn 0.749023438 0.5390625 -0.385253906
vn 0.749023438 0.5390625 -0.385253906
vn 0.749023438 0.5390625 -0.385253906
vn 0.749023438 0.5390625 -0.385253906
vn -0.749023438 -0.5390625 -0.385253906
vn -0.749023438 -0.5390625 -0.385253906
vn -0.749023438 -0.5390625 -0.385253906
vn -0.749023438 -0.5390625 -0.385253906
vn 3.57627869E-07 0 1
vn 3.57627869E-07 0 1
vn 3.57627869E-07 0 1
vn 3.57627869E-07 0 1
vn 0.495361328 0.356689453 -0.791992188
vn 0.495361328 0.356689453 -0.791992188
vn 0.495361328 0.356689453 -0.791992188
vn 0.495361328 0.356689453 -0.791992188
vn -0.811523438 -0.584472656 0
vn -0.811523438 -0.584472656 0
vn -0.811523438 -0.584472656 0
vn -0.811523438 -0.584472656 0
vn 0.495361328 0.356689453 0.791992188
vn 0.495361328 0.356689453 0.791992188
vn 0.495361328 0.356689453 0.791992188
vn 0.495361328 0.356689453 0.791992188
vn 0.811523438 0.584472656 0
vn 0.811523438 0.584472656 0
vn 0.811523438 0.584472656 0
vn 0.811523438 0.584472656 0
vn -0.495361328 -0.356689453 -0.791992188
vn -0.495361328 -0.356689453 -0.791992188
vn -0.495361328 -0.356689453 -0.791992188
vn -0.495361328 -0.356689453 -0.791992188
vn -0.495361328 -0.356689453 0.791992188
vn -0.495361328 -0.356689453 0.791992188
vn -0.495361328 -0.356689453 0.791992188
vn -0.495361328 -0.356689453 0.791992188
vn -0.596191406 0.802734375 0
vn -0.596191406 0.802734375 0
vn -0.596191406 0.802734375 0
vn -0.596191406 0.802734375 0
vn 0.811523438 0.584472656 0
vn 0.811523438 0.584472656 0
vn 0.811523438 0.584472656 0
vn 0.811523438 0.584472656 0
vn -0 0 -1
vn -0 0 -1
vn -0 0 -1
vn -0 0 -1
vn -0.811523438 -0.584472656 0
vn -0.811523438 -0.584472656 0
vn -0.811523438 -0.584472656 0
vn -0.811523438 -0.584472656 0
vn -0 0 1
vn -0 0 1
vn -0 0 1
vn -0 0 1
vn -0.596191406 0.802734375 0
vn -0.596191406 0.802734375 0
vn -0.596191406 0.802734375 0
vn -0.596191406 0.802734375 0
vn 0.811523438 0.584472656 0
vn 0.811523438 0.584472656 0
vn 0.811523438 0.584472656 0
vn 0.811523438 0.584472656 0
vn -0 0 -1
vn -0 0 -1
vn -0 0 -1
vn -0 0 -1
vn -0.811523438 -0.584472656 0
vn -0.811523438 -0.584472656 0
vn -0.811523438 -0.584472656 0
vn -0.811523438 -0.584472656 0
vn -5.36441803E-07 0 1
vn -5.36441803E-07 0 1
vn -5.36441803E-07 0 1
vn -5.36441803E-07 0 1
vn -0.596191406 0.802734375 0
vn -0.596191406 0.802734375 0
vn -0.596191406 0.802734375 0
vn -0.596191406 0.802734375 0
vn 0.811523438 0.584472656 0
vn 0.811523438 0.584472656 0
vn 0.811523438 0.584472656 0
vn 0.811523438 0.584472656 0
vn -0 0 -1
vn -0 0 -1
vn -0 0 -1
vn -0 0 -1
vn -0.811523438 -0.584472656 0
vn -0.811523438 -0.584472656 0
vn -0.811523438 -0.584472656 0
vn -0.811523438 -0.584472656 0
vn 2.38418579E-07 0 1
vn 2.38418579E-07 0 1
vn 2.38418579E-07 0 1
vn 2.38418579E-07 0 1
g IS4_SalaControl_PanelControl_0
f 3/3/3 2/2/2 1/1/1
f 6/6/6 5/5/5 4/4/4
f 9/9/9 8/8/8 7/7/7
f 12/12/12 11/11/11 10/10/10
f 15/15/15 14/14/14 13/13/13
f 16/16/16 15/15/15 13/13/13
f 19/19/19 18/18/18 17/17/17
f 20/20/20 19/19/19 17/17/17
f 23/23/23 22/22/22 21/21/21
f 24/24/24 23/23/23 21/21/21
f 27/27/27 26/26/26 25/25/25
f 28/28/28 27/27/27 25/25/25
f 31/31/31 30/30/30 29/29/29
f 32/32/32 31/31/31 29/29/29
f 35/35/35 34/34/34 33/33/33
f 36/36/36 35/35/35 33/33/33
f 39/39/39 38/38/38 37/37/37
f 40/40/40 39/39/39 37/37/37
f 43/43/43 42/42/42 41/41/41
f 44/44/44 43/43/43 41/41/41
f 47/47/47 46/46/46 45/45/45
f 48/48/48 47/47/47 45/45/45
f 51/51/51 50/50/50 49/49/49
f 52/52/52 51/51/51 49/49/49
f 55/55/55 54/54/54 53/53/53
f 56/56/56 55/55/55 53/53/53
f 59/59/59 58/58/58 57/57/57
f 60/60/60 59/59/59 57/57/57
f 63/63/63 62/62/62 61/61/61
f 64/64/64 63/63/63 61/61/61
f 67/67/67 66/66/66 65/65/65
f 68/68/68 67/67/67 65/65/65
f 71/71/71 70/70/70 69/69/69
f 72/72/72 71/71/71 69/69/69
f 75/75/75 74/74/74 73/73/73
f 76/76/76 75/75/75 73/73/73
f 79/79/79 78/78/78 77/77/77
f 80/80/80 79/79/79 77/77/77
f 83/83/83 82/82/82 81/81/81
f 84/84/84 83/83/83 81/81/81
f 87/87/87 86/86/86 85/85/85
f 88/88/88 87/87/87 85/85/85
f 91/91/91 90/90/90 89/89/89
f 92/92/92 91/91/91 89/89/89
f 95/95/95 94/94/94 93/93/93
f 96/96/96 95/95/95 93/93/93
f 99/99/99 98/98/98 97/97/97
f 100/100/100 99/99/99 97/97/97
f 103/103/103 102/102/102 101/101/101
f 104/104/104 103/103/103 101/101/101
f 107/107/107 106/106/106 105/105/105
f 108/108/108 107/107/107 105/105/105
f 111/111/111 110/110/110 109/109/109
f 112/112/112 111/111/111 109/109/109
f 115/115/115 114/114/114 113/113/113
f 116/116/116 115/115/115 113/113/113
f 119/119/119 118/118/118 117/117/117
f 120/120/120 119/119/119 117/117/117
f 123/123/123 122/122/122 121/121/121
f 124/124/124 123/123/123 121/121/121
f 127/127/127 126/126/126 125/125/125
f 128/128/128 127/127/127 125/125/125
f 131/131/131 130/130/130 129/129/129
f 132/132/132 131/131/131 129/129/129
f 135/135/135 134/134/134 133/133/133
f 136/136/136 135/135/135 133/133/133
f 139/139/139 138/138/138 137/137/137
f 140/140/140 139/139/139 137/137/137
f 143/143/143 142/142/142 141/141/141
f 144/144/144 143/143/143 141/141/141
f 147/147/147 146/146/146 145/145/145
f 148/148/148 147/147/147 145/145/145
f 151/151/151 150/150/150 149/149/149
f 152/152/152 151/151/151 149/149/149
f 155/155/155 154/154/154 153/153/153
f 156/156/156 155/155/155 153/153/153
f 159/159/159 158/158/158 157/157/157
f 160/160/160 159/159/159 157/157/157
f 163/163/163 162/162/162 161/161/161
f 164/164/164 163/163/163 161/161/161
f 167/167/167 166/166/166 165/165/165
f 168/168/168 167/167/167 165/165/165
f 171/171/171 170/170/170 169/169/169
f 172/172/172 171/171/171 169/169/169
f 175/175/175 174/174/174 173/173/173
f 176/176/176 175/175/175 173/173/173
f 179/179/179 178/178/178 177/177/177
f 180/180/180 179/179/179 177/177/177
f 183/183/183 182/182/182 181/181/181
f 184/184/184 183/183/183 181/181/181
f 187/187/187 186/186/186 185/185/185
f 188/188/188 187/187/187 185/185/185
f 191/191/191 190/190/190 189/189/189
f 192/192/192 191/191/191 189/189/189
f 195/195/195 194/194/194 193/193/193
f 196/196/196 195/195/195 193/193/193
f 199/199/199 198/198/198 197/197/197
f 198/198/198 200/200/200 197/197/197
f 200/200/200 201/201/201 197/197/197
f 201/201/201 202/202/202 197/197/197
f 205/205/205 204/204/204 203/203/203
f 204/204/204 206/206/206 203/203/203
f 206/206/206 207/207/207 203/203/203
f 207/207/207 208/208/208 203/203/203
f 211/211/211 210/210/210 209/209/209
f 212/212/212 211/211/211 209/209/209
f 215/215/215 214/214/214 213/213/213
f 216/216/216 215/215/215 213/213/213
f 216/216/216 217/217/217 215/215/215
f 217/217/217 218/218/218 215/215/215
f 221/221/221 220/220/220 219/219/219
f 222/222/222 221/221/221 219/219/219
f 225/225/225 224/224/224 223/223/223
f 226/226/226 225/225/225 223/223/223
f 229/229/229 228/228/228 227/227/227
f 230/230/230 229/229/229 227/227/227
f 233/233/233 232/232/232 231/231/231
f 234/234/234 233/233/233 231/231/231
f 237/237/237 236/236/236 235/235/235
f 238/238/238 237/237/237 235/235/235
f 241/241/241 240/240/240 239/239/239
f 242/242/242 241/241/241 239/239/239
f 245/245/245 244/244/244 243/243/243
f 246/246/246 245/245/245 243/243/243
f 249/249/249 248/248/248 247/247/247
f 250/250/250 249/249/249 247/247/247
f 253/253/253 252/252/252 251/251/251
f 254/254/254 253/253/253 251/251/251
f 257/257/257 256/256/256 255/255/255
f 258/258/258 257/257/257 255/255/255
f 258/258/258 259/259/259 257/257/257
f 259/259/259 260/260/260 257/257/257
f 263/263/263 262/262/262 261/261/261
f 264/264/264 263/263/263 261/261/261
f 267/267/267 266/266/266 265/265/265
f 268/268/268 267/267/267 265/265/265
f 271/271/271 270/270/270 269/269/269
f 272/272/272 271/271/271 269/269/269
f 275/275/275 274/274/274 273/273/273
f 276/276/276 275/275/275 273/273/273
f 279/279/279 278/278/278 277/277/277
f 280/280/280 279/279/279 277/277/277
f 283/283/283 282/282/282 281/281/281
f 284/284/284 283/283/283 281/281/281
f 287/287/287 286/286/286 285/285/285
f 288/288/288 287/287/287 285/285/285
f 288/288/288 289/289/289 287/287/287
f 289/289/289 290/290/290 287/287/287
f 293/293/293 292/292/292 291/291/291
f 294/294/294 293/293/293 291/291/291
f 297/297/297 296/296/296 295/295/295
f 298/298/298 297/297/297 295/295/295
f 301/301/301 300/300/300 299/299/299
f 302/302/302 301/301/301 299/299/299
f 305/305/305 304/304/304 303/303/303
f 306/306/306 305/305/305 303/303/303
f 309/309/309 308/308/308 307/307/307
f 310/310/310 309/309/309 307/307/307
f 313/313/313 312/312/312 311/311/311
f 314/314/314 313/313/313 311/311/311
f 317/317/317 316/316/316 315/315/315
f 318/318/318 317/317/317 315/315/315
f 321/321/321 320/320/320 319/319/319
f 322/322/322 321/321/321 319/319/319
f 325/325/325 324/324/324 323/323/323
f 326/326/326 325/325/325 323/323/323
f 329/329/329 328/328/328 327/327/327
f 330/330/330 329/329/329 327/327/327
f 333/333/333 332/332/332 331/331/331
f 334/334/334 333/333/333 331/331/331
f 337/337/337 336/336/336 335/335/335
f 338/338/338 337/337/337 335/335/335
f 341/341/341 340/340/340 339/339/339
f 342/342/342 341/341/341 339/339/339
f 345/345/345 344/344/344 343/343/343
f 346/346/346 345/345/345 343/343/343
f 349/349/349 348/348/348 347/347/347
f 350/350/350 349/349/349 347/347/347
f 353/353/353 352/352/352 351/351/351
f 354/354/354 353/353/353 351/351/351
f 357/357/357 356/356/356 355/355/355
f 358/358/358 357/357/357 355/355/355
f 361/361/361 360/360/360 359/359/359
f 362/362/362 361/361/361 359/359/359
f 365/365/365 364/364/364 363/363/363
f 366/366/366 365/365/365 363/363/363
f 369/369/369 368/368/368 367/367/367
f 370/370/370 369/369/369 367/367/367
f 373/373/373 372/372/372 371/371/371
f 374/374/374 373/373/373 371/371/371
f 377/377/377 376/376/376 375/375/375
f 378/378/378 377/377/377 375/375/375
f 381/381/381 380/380/380 379/379/379
f 382/382/382 381/381/381 379/379/379
f 385/385/385 384/384/384 383/383/383
f 386/386/386 385/385/385 383/383/383
f 389/389/389 388/388/388 387/387/387
f 390/390/390 389/389/389 387/387/387
f 393/393/393 392/392/392 391/391/391
f 394/394/394 393/393/393 391/391/391
f 397/397/397 396/396/396 395/395/395
f 398/398/398 397/397/397 395/395/395
f 401/401/401 400/400/400 399/399/399
f 402/402/402 401/401/401 399/399/399
f 405/405/405 404/404/404 403/403/403
f 406/406/406 405/405/405 403/403/403
f 409/409/409 408/408/408 407/407/407
f 410/410/410 409/409/409 407/407/407
f 413/413/413 412/412/412 411/411/411
f 414/414/414 413/413/413 411/411/411
f 417/417/417 416/416/416 415/415/415
f 418/418/418 417/417/417 415/415/415
f 421/421/421 420/420/420 419/419/419
f 422/422/422 421/421/421 419/419/419
