g Arbusto70
v -0.0612539369 0.879783383 -2.15586519
v -0.483408887 1.09891725 -1.62414331
v -0.483408887 1.14081049 -2.15586519
v -0.0548088231 0.834667587 -1.61125308
v -2.53562704E-05 2.53562704E-05 -2.15586519
v 0.00641975748 0.00324791314 -1.60803052
v -0.483408887 1.12792026 -1.0795312
v 0.0128648712 0.00647047002 -1.0795312
v -0.0483637094 0.860448042 -1.0795312
v -0.0548088231 0.834667587 -0.544586755
v -0.483408887 1.07958191 -0.531696528
v 0.00641975748 0.00324791314 -0.547809312
v -0.483408887 1.14081049 2.53562704E-05
v -2.53562704E-05 2.53562704E-05 2.53562704E-05
v -0.0612539369 0.879783383 2.53562704E-05
vt 0.996259518 0.585434637
vt 0.973850888 0.622782354
vt 0.996259518 0.622782354
vt 0.970116116 0.585434637
vt 0.996259518 0.525678291
vt 0.970116116 0.525678291
vt 0.947707487 0.626517125
vt 0.947707487 0.525678291
vt 0.947707487 0.585434637
vt 0.925298857 0.585434637
vt 0.925298857 0.622782354
vt 0.925298857 0.525678291
vt 0.899155455 0.622782354
vt 0.899155455 0.525678291
vt 0.899155455 0.585434637
vn 0.967753914 0.238213698 0.0818938132
vn 0.0156742155 0.999877152 -0
vn 0.0156742155 0.999877152 -0
vn 0.967753914 0.206477708 -0.144289011
vn 0.999489903 0.0160617696 -0.0276034864
vn 0.999489903 0.0160617696 -0.0276034864
vn 0.0156742155 0.999877152 -0
vn 0.999489903 0.0160617696 -0.0276034864
vn 0.967753914 0.238213698 0.0818938132
vn 0.967753914 0.206477708 0.144289011
vn 0.0156742155 0.999877152 -0
vn 0.999489903 0.0160617696 0.0276034864
vn 0.0156742155 0.999877152 -0
vn 0.999489903 0.0160617696 0.0276034864
vn 0.967753914 0.238213698 -0.0818938132
g Arbusto70_0
f 3/3/3 2/2/2 1/1/1
f 2/2/2 4/4/4 1/1/1
f 5/5/5 1/1/1 4/4/4
f 6/6/6 5/5/5 4/4/4
f 2/2/2 7/7/7 4/4/4
f 6/6/6 4/4/4 8/8/8
f 7/7/7 9/9/9 4/4/4
f 4/4/4 9/9/9 8/8/8
f 10/10/10 9/9/9 7/7/7
f 8/8/8 9/9/9 10/10/10
f 11/11/11 10/10/10 7/7/7
f 12/12/12 8/8/8 10/10/10
f 11/11/11 13/13/13 10/10/10
f 12/12/12 10/10/10 14/14/14
f 13/13/13 15/15/15 10/10/10
f 10/10/10 15/15/15 14/14/14
