g CasaExterior_CminoPiedra04
v -0.588701761 -0.00520975009 1.06591487
v -0.588701761 0.0593911511 1.03882417
v -0.153166653 0.0593911511 1.03882417
v -0.126075952 -0.00520975009 1.06591487
v 0.211515854 0.0593911511 0.940880867
v 0.238606554 -0.00520975009 0.967971568
v 0.478255059 0.0614750511 0.676225562
v 0.503261859 -0.00312585006 0.703316263
v -0.153166653 0.0698106513 -1.03882417
v -0.588701761 0.0698106513 -1.03882417
v -0.588701761 0.00520975009 -1.06591487
v -0.126075952 0.00520975009 -1.06591487
v 0.238606554 0.00520975009 -0.967971568
v 0.211515854 0.0698106513 -0.940880867
v 0.503261859 -0.00312585006 0.703316263
v 0.478255059 0.0614750511 0.676225562
v 0.57411446 0.0635589512 0.311543056
v 0.601205161 -0.00104195002 0.338633756
v 0.601205161 0.00104195002 -0.338633756
v 0.57411446 0.0656428512 -0.311543056
v 0.478255059 0.0677267512 -0.674141662
v 0.503261859 0.00312585006 -0.703316263
v 0.211515854 0.0698106513 -0.940880867
v 0.238606554 0.00520975009 -0.967971568
v -0.153166653 0.0698106513 -1.03882417
v -0.588701761 0.0593911511 1.03882417
v -0.588701761 0.0698106513 -1.03882417
v -0.153166653 0.0593911511 1.03882417
v 0.211515854 0.0593911511 0.940880867
v 0.211515854 0.0698106513 -0.940880867
v 0.478255059 0.0614750511 0.676225562
v 0.478255059 0.0677267512 -0.674141662
v 0.57411446 0.0635589512 0.311543056
v 0.57411446 0.0656428512 -0.311543056
vt 0.337229194 0.758375541
vt 0.333660157 0.758375541
vt 0.333660157 0.779789762
vt 0.337229194 0.783358799
vt 0.326522084 0.801203983
vt 0.330091121 0.801203983
vt 0.3086769 0.811911094
vt 0.312245936 0.815480131
vt 0.198036758 0.779789762
vt 0.198036758 0.758375541
vt 0.194467721 0.758375541
vt 0.194467721 0.783358799
vt 0.201605794 0.801203983
vt 0.205174831 0.801203983
vt 0.312245936 0.815480131
vt 0.3086769 0.811911094
vt 0.287262679 0.819049168
vt 0.287262679 0.822618204
vt 0.244434236 0.822618204
vt 0.248003273 0.819049168
vt 0.223020015 0.811911094
vt 0.219450979 0.815480131
vt 0.205174831 0.801203983
vt 0.201605794 0.801203983
vt 0.198036758 0.779789762
vt 0.333660157 0.758375541
vt 0.198036758 0.758375541
vt 0.333660157 0.779789762
vt 0.326522084 0.801203983
vt 0.205174831 0.801203983
vt 0.3086769 0.811911094
vt 0.223020015 0.811911094
vt 0.287262679 0.819049168
vt 0.248003273 0.819049168
vn -0.00523414498 0.36683627 0.930270797
vn -0.00523414498 0.999639988 0.026315361
vn -0.00523414498 0.999639988 0.026315361
vn 0.115299897 0.42710329 0.89682145
vn 0.0248993654 0.999639988 0.00999580424
vn 0.446768511 0.487370311 0.750245345
vn 0.0549694578 0.998488036 -0
vn 0.717970104 0.487370311 0.496979988
vn -0.00523414498 0.999639988 -0.026315361
vn -0.00523414498 0.999639988 -0.026315361
vn -0.00523414498 0.39696978 -0.917816756
vn 0.115299897 0.42710329 -0.89682145
vn 0.446768511 0.487370311 -0.750245345
vn 0.0248993654 0.999639988 -0.00999580424
vn 0.717970104 0.487370311 0.496979988
vn 0.0549694578 0.998488036 -0
vn 0.326234469 0.939372967 0.105591191
vn 0.898771167 0.42710329 0.0989604415
vn 0.898771167 0.42710329 -0.0989604415
vn 0.326234469 0.939372967 -0.105591191
vn 0.0549694578 0.998488036 -0
vn 0.717970104 0.487370311 -0.496979988
vn 0.0248993654 0.999639988 -0.00999580424
vn 0.446768511 0.487370311 -0.750245345
vn -0.00523414498 0.999639988 -0.026315361
vn -0.00523414498 0.999639988 0.026315361
vn -0.00523414498 0.999639988 -0.026315361
vn -0.00523414498 0.999639988 0.026315361
vn 0.0248993654 0.999639988 0.00999580424
vn 0.0248993654 0.999639988 -0.00999580424
vn 0.0549694578 0.998488036 -0
vn 0.0549694578 0.998488036 -0
vn 0.326234469 0.939372967 0.105591191
vn 0.326234469 0.939372967 -0.105591191
g CasaExterior_CminoPiedra04_0
f 3/3/3 2/2/2 1/1/1
f 4/4/4 3/3/3 1/1/1
f 5/5/5 3/3/3 4/4/4
f 6/6/6 5/5/5 4/4/4
f 7/7/7 5/5/5 6/6/6
f 8/8/8 7/7/7 6/6/6
f 11/11/11 10/10/10 9/9/9
f 12/12/12 11/11/11 9/9/9
f 12/12/12 9/9/9 13/13/13
f 9/9/9 14/14/14 13/13/13
f 17/17/17 16/16/16 15/15/15
f 18/18/18 17/17/17 15/15/15
f 18/18/18 19/19/19 17/17/17
f 19/19/19 20/20/20 17/17/17
f 21/21/21 20/20/20 19/19/19
f 22/22/22 21/21/21 19/19/19
f 23/23/23 21/21/21 22/22/22
f 24/24/24 23/23/23 22/22/22
f 27/27/27 26/26/26 25/25/25
f 26/26/26 28/28/28 25/25/25
f 28/28/28 29/29/29 25/25/25
f 29/29/29 30/30/30 25/25/25
f 29/29/29 31/31/31 30/30/30
f 31/31/31 32/32/32 30/30/30
f 31/31/31 33/33/33 32/32/32
f 33/33/33 34/34/34 32/32/32
