g Facade_Lamp
v 0.0692822263 -0.340715617 -0.863371849
v 0.0692822263 -0.191331789 -0.863371849
v -0.111650385 -0.191331789 -0.863371849
v -0.111650385 -0.340715617 -0.863371849
v 0.0244433582 -0.228345335 -0.831320167
v 0.0228759758 0.164166868 -0.304479063
v -0.0683105439 0.16531311 -0.299312443
v -0.0668164045 -0.228345335 -0.831320167
v 0.0228759758 0.164166868 -0.304479063
v 0.0259423815 0.16247803 -0.200514525
v -0.0652441382 0.163624868 -0.195347592
v -0.0683105439 0.16531311 -0.299312443
v 0.0259423815 0.16247803 -0.200514525
v 0.0244433582 -0.303702086 -0.831320167
v -0.0668164045 -0.303702086 -0.831320167
v -0.0652441382 0.163624868 -0.195347592
v -0.0668164045 -0.303702086 -0.831320167
v -0.0668164045 -0.228345335 -0.831320167
v -0.0683105439 0.16531311 -0.299312443
v -0.0652441382 0.163624868 -0.195347592
v 0.0259423815 0.16247803 -0.200514525
v 0.0228759758 0.164166868 -0.304479063
v 0.0244433582 -0.228345335 -0.831320167
v 0.0244433582 -0.303702086 -0.831320167
v 0.0244433582 -0.303702086 -0.831320167
v 0.0692822263 -0.340715617 -0.83464992
v -0.111650385 -0.340715617 -0.83464992
v -0.0668164045 -0.303702086 -0.831320167
v -0.0668164045 -0.303702086 -0.831320167
v -0.111650385 -0.340715617 -0.83464992
v -0.111650385 -0.191331789 -0.83464992
v -0.0668164045 -0.228345335 -0.831320167
v -0.0668164045 -0.228345335 -0.831320167
v -0.111650385 -0.191331789 -0.83464992
v 0.0692822263 -0.191331789 -0.83464992
v 0.0244433582 -0.228345335 -0.831320167
v 0.0244433582 -0.228345335 -0.831320167
v 0.0692822263 -0.191331789 -0.83464992
v 0.0692822263 -0.340715617 -0.83464992
v 0.0244433582 -0.303702086 -0.831320167
v 0.0692822263 -0.340715617 -0.83464992
v 0.0692822263 -0.340715617 -0.863371849
v -0.111650385 -0.340715617 -0.863371849
v -0.111650385 -0.340715617 -0.83464992
v -0.111650385 -0.340715617 -0.83464992
v -0.111650385 -0.340715617 -0.863371849
v -0.111650385 -0.191331789 -0.863371849
v -0.111650385 -0.191331789 -0.83464992
v -0.111650385 -0.191331789 -0.83464992
v -0.111650385 -0.191331789 -0.863371849
v 0.0692822263 -0.191331789 -0.863371849
v 0.0692822263 -0.191331789 -0.83464992
v 0.0692822263 -0.191331789 -0.83464992
v 0.0692822263 -0.191331789 -0.863371849
v 0.0692822263 -0.340715617 -0.863371849
v 0.0692822263 -0.340715617 -0.83464992
v 0.0692822263 0.113066405 -0.863371849
v 0.0692822263 0.26244995 -0.863371849
v -0.111650385 0.26244995 -0.863371849
v -0.111650385 0.113066405 -0.863371849
v 0.0244433582 0.225436389 -0.831320167
v 0.0244433582 0.225436389 0.109649964
v -0.0668164045 0.225436389 0.109649964
v -0.0668164045 0.225436389 -0.831320167
v 0.0244433582 0.225436389 0.109649964
v 0.0244433582 0.150079951 0.109649964
v -0.0668164045 0.150079951 0.109649964
v -0.0668164045 0.225436389 0.109649964
v 0.0244433582 0.150079951 0.109649964
v 0.0244433582 0.150079951 -0.831320167
v -0.0668164045 0.150079951 -0.831320167
v -0.0668164045 0.150079951 0.109649964
v -0.0668164045 0.150079951 -0.831320167
v -0.0668164045 0.225436389 -0.831320167
v -0.0668164045 0.225436389 0.109649964
v -0.0668164045 0.150079951 0.109649964
v 0.0244433582 0.150079951 0.109649964
v 0.0244433582 0.225436389 0.109649964
v 0.0244433582 0.225436389 -0.831320167
v 0.0244433582 0.150079951 -0.831320167
v 0.0244433582 0.150079951 -0.831320167
v 0.0692822263 0.113066405 -0.83464992
v -0.111650385 0.113066405 -0.83464992
v -0.0668164045 0.150079951 -0.831320167
v -0.0668164045 0.150079951 -0.831320167
v -0.111650385 0.113066405 -0.83464992
v -0.111650385 0.26244995 -0.83464992
v -0.0668164045 0.225436389 -0.831320167
v -0.0668164045 0.225436389 -0.831320167
v -0.111650385 0.26244995 -0.83464992
v 0.0692822263 0.26244995 -0.83464992
v 0.0244433582 0.225436389 -0.831320167
v 0.0244433582 0.225436389 -0.831320167
v 0.0692822263 0.26244995 -0.83464992
v 0.0692822263 0.113066405 -0.83464992
v 0.0244433582 0.150079951 -0.831320167
v 0.0692822263 0.113066405 -0.83464992
v 0.0692822263 0.113066405 -0.863371849
v -0.111650385 0.113066405 -0.863371849
v -0.111650385 0.113066405 -0.83464992
v -0.111650385 0.113066405 -0.83464992
v -0.111650385 0.113066405 -0.863371849
v -0.111650385 0.26244995 -0.863371849
v -0.111650385 0.26244995 -0.83464992
v -0.111650385 0.26244995 -0.83464992
v -0.111650385 0.26244995 -0.863371849
v 0.0692822263 0.26244995 -0.863371849
v 0.0692822263 0.26244995 -0.83464992
v 0.0692822263 0.26244995 -0.83464992
v 0.0692822263 0.26244995 -0.863371849
v 0.0692822263 0.113066405 -0.863371849
v 0.0692822263 0.113066405 -0.83464992
v -0.183544919 0.0811431855 0.787345588
v -0.171044916 0.210928336 0.762753904
v -9.76562478E-06 0.210928336 0.828595579
v -9.76562478E-06 0.0811431855 0.863370359
v 0.171035156 0.210928336 0.762753904
v 0.183535159 0.0811431855 0.787345588
v 0.183535159 0.0811431855 0.787345588
v 0.171035156 0.210928336 0.762753904
v 0.241899416 0.210928336 0.603800654
v 0.259570301 0.0811431855 0.603800654
v 0.259570301 0.0811431855 0.603800654
v 0.241899416 0.210928336 0.603800654
v 0.170327142 0.210928336 0.0214846805
v 0.182778314 0.0811431855 0.0192175284
v 0.182778314 0.0811431855 0.0192175284
v 0.170327142 0.210928336 0.0214846805
v -9.76562478E-06 0.210928336 0.0146807861
v -9.76562478E-06 0.0811431855 0.0112805171
v -0.170317382 0.210928336 0.0214846805
v -0.182758778 0.0811431855 0.0189349353
v -0.182758778 0.0811431855 0.0189349353
v -0.170317382 0.210928336 0.0214846805
v -0.241889641 0.210928336 0.603800654
v -0.259565413 0.0811431855 0.603800654
v -0.171044916 0.210928336 0.762753904
v -0.183544919 0.0811431855 0.787345588
v -0.171044916 0.210928336 0.762753904
v -9.76562478E-06 0.305938721 0.733583689
v -9.76562478E-06 0.210928336 0.828595579
v -0.0917871073 0.305938721 0.695571601
v -9.76562478E-06 0.340714723 0.603800654
v 0.0917578116 0.305938721 0.695571601
v 0.129790038 0.305938721 0.603800654
v 0.091381833 0.305938721 0.0738183558
v -9.76562478E-06 0.305938721 0.0698501542
v -0.241889641 0.210928336 0.603800654
v -0.0913867131 0.305938721 0.0735351518
v -0.129790038 0.305938721 0.603800654
v -0.170317382 0.210928336 0.0214846805
v -9.76562478E-06 0.210928336 0.828595579
v -9.76562478E-06 0.305938721 0.733583689
v 0.0917578116 0.305938721 0.695571601
v 0.171035156 0.210928336 0.762753904
v 0.171035156 0.210928336 0.762753904
v 0.0917578116 0.305938721 0.695571601
v 0.129790038 0.305938721 0.603800654
v 0.241899416 0.210928336 0.603800654
v 0.091381833 0.305938721 0.0738183558
v 0.170327142 0.210928336 0.0214846805
v 0.170327142 0.210928336 0.0214846805
v 0.091381833 0.305938721 0.0738183558
v -9.76562478E-06 0.305938721 0.0698501542
v -9.76562478E-06 0.210928336 0.0146807861
v -0.0913867131 0.305938721 0.0735351518
v -0.170317382 0.210928336 0.0214846805
v -0.163798824 0.0745648146 0.440008223
v -0.259565413 0.0811431855 0.603800654
v -0.231635734 0.0745648146 0.603800654
v -0.182758778 0.0811431855 0.0189349353
v -0.183544919 0.0811431855 0.787345588
v -9.76562478E-06 0.0745648146 0.372165531
v -0.163798824 0.0745648146 0.76758939
v -9.76562478E-06 0.0811431855 0.0112805171
v -9.76562478E-06 0.0811431855 0.863370359
v 0.163793936 0.0745648146 0.440008223
v -9.76562478E-06 0.0745648146 0.835433662
v 0.182778314 0.0811431855 0.0192175284
v 0.183535159 0.0811431855 0.787345588
v 0.23164551 0.0745648146 0.603800654
v 0.163793936 0.0745648146 0.76758939
v 0.259570301 0.0811431855 0.603800654
v -0.0917871073 0.160129398 0.512027562
v -0.163798824 0.0745648146 0.440008223
v -0.231635734 0.0745648146 0.603800654
v -9.76562478E-06 0.160129398 0.474015504
v -0.129790038 0.160129398 0.603800654
v -9.76562478E-06 0.0745648146 0.372165531
v -0.163798824 0.0745648146 0.76758939
v 0.0917578116 0.160129398 0.512027562
v -0.0917871073 0.160129398 0.695571601
v 0.163793936 0.0745648146 0.440008223
v -9.76562478E-06 0.0745648146 0.835433662
v 0.129790038 0.160129398 0.603800654
v -9.76562478E-06 0.160129398 0.733583689
v 0.23164551 0.0745648146 0.603800654
v 0.163793936 0.0745648146 0.76758939
v 0.0917578116 0.160129398 0.695571601
vt 0 0
vt 0 0
vt 0 0
vt 0 0
vt 0.70703125 0.731445312
vt 0.70703125 0.785644531
vt 0.740234375 0.785644531
vt 0.740234375 0.731445312
vt 0 0
vt 0 0
vt 0 0
vt 0 0
vt 0.70703125 0.731445312
vt 0.70703125 0.785644531
vt 0.740234375 0.785644531
vt 0.740234375 0.731445312
vt 0.70703125 0.785644531
vt 0.740234375 0.785644531
vt 0.740234375 0.731445312
vt 0.70703125 0.731445312
vt 0.70703125 0.785644531
vt 0.740234375 0.785644531
vt 0.740234375 0.731445312
vt 0.70703125 0.731445312
vt 0.740234375 0.79296875
vt 0.70703125 0.81640625
vt 0.70703125 0.72265625
vt 0.740234375 0.745605469
vt 0.740234375 0.745605469
vt 0.70703125 0.72265625
vt 0.70703125 0.815917969
vt 0.740234375 0.79296875
vt 0.740234375 0.745605469
vt 0.70703125 0.72265625
vt 0.70703125 0.81640625
vt 0.740234375 0.79296875
vt 0.740234375 0.79296875
vt 0.70703125 0.815917969
vt 0.70703125 0.72265625
vt 0.740234375 0.745605469
vt 0.717773438 0.817871094
vt 0.708984375 0.817871094
vt 0.708984375 0.698730469
vt 0.717773438 0.698730469
vt 0.708984375 0.698730469
vt 0.717773438 0.698730469
vt 0.717773438 0.796875
vt 0.708984375 0.796875
vt 0.708984375 0.698730469
vt 0.717773438 0.698730469
vt 0.717773438 0.817871094
vt 0.708984375 0.817871094
vt 0.717773438 0.796875
vt 0.708984375 0.796875
vt 0.708984375 0.698730469
vt 0.717773438 0.698730469
vt 0 0
vt 0 0
vt 0 0
vt 0 0
vt 0.70703125 0.731445312
vt 0.70703125 0.785644531
vt 0.740234375 0.785644531
vt 0.740234375 0.731445312
vt 0 0
vt 0 0
vt 0 0
vt 0 0
vt 0.70703125 0.731445312
vt 0.70703125 0.785644531
vt 0.740234375 0.785644531
vt 0.740234375 0.731445312
vt 0.70703125 0.785644531
vt 0.740234375 0.785644531
vt 0.740234375 0.731445312
vt 0.70703125 0.731445312
vt 0.70703125 0.785644531
vt 0.740234375 0.785644531
vt 0.740234375 0.731445312
vt 0.70703125 0.731445312
vt 0.740234375 0.79296875
vt 0.70703125 0.81640625
vt 0.70703125 0.72265625
vt 0.740234375 0.745605469
vt 0.740234375 0.745605469
vt 0.70703125 0.72265625
vt 0.70703125 0.815917969
vt 0.740234375 0.79296875
vt 0.740234375 0.745605469
vt 0.70703125 0.72265625
vt 0.70703125 0.81640625
vt 0.740234375 0.79296875
vt 0.740234375 0.79296875
vt 0.70703125 0.815917969
vt 0.70703125 0.72265625
vt 0.740234375 0.745605469
vt 0.717773438 0.817871094
vt 0.708984375 0.817871094
vt 0.708984375 0.698730469
vt 0.717773438 0.698730469
vt 0.708984375 0.698730469
vt 0.717773438 0.698730469
vt 0.717773438 0.796875
vt 0.708984375 0.796875
vt 0.708984375 0.698730469
vt 0.717773438 0.698730469
vt 0.717773438 0.817871094
vt 0.708984375 0.817871094
vt 0.717773438 0.796875
vt 0.708984375 0.796875
vt 0.708984375 0.698730469
vt 0.717773438 0.698730469
vt 0.583007812 0.790039062
vt 0.561035156 0.792480469
vt 0.561035156 0.816894531
vt 0.583007812 0.81640625
vt 0.561035156 0.841796875
vt 0.583007812 0.843261719
vt 0.583007812 0.843261719
vt 0.561035156 0.841796875
vt 0.561035156 0.864257812
vt 0.583007812 0.869140625
vt 0.561035156 0.870605469
vt 0.583007812 0.870605469
vt 0.583007812 0.791503906
vt 0.561035156 0.791503906
vt 0.561035156 0.853027344
vt 0.583007812 0.853027344
vt 0.583007812 0.830078125
vt 0.561035156 0.828613281
vt 0.583007812 0.807128906
vt 0.561035156 0.804199219
vt 0.583007812 0.771972656
vt 0.561035156 0.771972656
vt 0.561035156 0.850585938
vt 0.583007812 0.851074219
vt 0.561035156 0.874023438
vt 0.583007812 0.877929688
vt 0.64453125 0.86328125
vt 0.622558594 0.844238281
vt 0.622070312 0.880371094
vt 0.631835938 0.840820312
vt 0.622558594 0.831542969
vt 0.61328125 0.840332031
vt 0.607421875 0.831542969
vt 0.614257812 0.778808594
vt 0.623046875 0.778320312
vt 0.654296875 0.831542969
vt 0.631835938 0.778808594
vt 0.637695312 0.831542969
vt 0.645507812 0.772460938
vt 0.622070312 0.880371094
vt 0.622558594 0.844238281
vt 0.61328125 0.840332031
vt 0.600097656 0.862792969
vt 0.600097656 0.862792969
vt 0.61328125 0.840332031
vt 0.607421875 0.831542969
vt 0.590820312 0.831542969
vt 0.614257812 0.778808594
vt 0.604980469 0.772460938
vt 0.604980469 0.772460938
vt 0.614257812 0.778808594
vt 0.623046875 0.778320312
vt 0.625488281 0.772460938
vt 0.631835938 0.778808594
vt 0.645507812 0.772460938
vt 0.604980469 0.8125
vt 0.591796875 0.831542969
vt 0.595214844 0.831542969
vt 0.606445312 0.772460938
vt 0.600097656 0.86328125
vt 0.622558594 0.805175781
vt 0.602539062 0.860839844
vt 0.625 0.772460938
vt 0.622558594 0.881347656
vt 0.640625 0.8125
vt 0.622558594 0.878417969
vt 0.643554688 0.772460938
vt 0.645507812 0.86328125
vt 0.650390625 0.831542969
vt 0.643066406 0.860839844
vt 0.653808594 0.831542969
vt 0.614257812 0.821289062
vt 0.604980469 0.8125
vt 0.595214844 0.831542969
vt 0.623046875 0.817871094
vt 0.609375 0.831542969
vt 0.622558594 0.805175781
vt 0.602539062 0.860839844
vt 0.631835938 0.821777344
vt 0.613769531 0.838867188
vt 0.640625 0.8125
vt 0.622558594 0.878417969
vt 0.636230469 0.831542969
vt 0.622558594 0.842773438
vt 0.650390625 0.831542969
vt 0.643066406 0.860839844
vt 0.631347656 0.839355469
vn -0 0 -1
vn -0 0 -1
vn -0 0 -1
vn -0 0 -1
vn -0.0118408203 0.802734375 -0.596191406
vn -0.0118408203 0.802734375 -0.596191406
vn -0.0118408203 0.802734375 -0.596191406
vn -0.0118408203 0.802734375 -0.596191406
vn 0.0134658813 1 0.015838623
vn 0.0134658813 1 0.015838623
vn 0.0134658813 1 0.015838623
vn 0.0134658813 1 0.015838623
vn 0.0117416382 -0.805175781 0.593261719
vn 0.0117416382 -0.805175781 0.593261719
vn 0.0117416382 -0.805175781 0.593261719
vn 0.0117416382 -0.805175781 0.593261719
vn -0.999511719 -0.0198974609 0.0147399902
vn -0.999511719 -0.0198974609 0.0147399902
vn -0.999511719 -0.0198974609 0.0147399902
vn -0.999511719 -0.0198974609 0.0147399902
vn 0.999511719 0.0199279785 -0.0147171021
vn 0.999511719 0.0199279785 -0.0147171021
vn 0.999511719 0.0199279785 -0.0147171021
vn 0.999511719 0.0199279785 -0.0147171021
vn -0 -0.0895996094 0.99609375
vn -0 -0.0895996094 0.99609375
vn -0 -0.0895996094 0.99609375
vn -0 -0.0895996094 0.99609375
vn -0.0740356445 0 0.997070312
vn -0.0740356445 0 0.997070312
vn -0.0740356445 0 0.997070312
vn -0.0740356445 0 0.997070312
vn -0 0.0895996094 0.99609375
vn -0 0.0895996094 0.99609375
vn -0 0.0895996094 0.99609375
vn -0 0.0895996094 0.99609375
vn 0.0740356445 0 0.997070312
vn 0.0740356445 0 0.997070312
vn 0.0740356445 0 0.997070312
vn 0.0740356445 0 0.997070312
vn -0 -1 0
vn -0 -1 0
vn -0 -1 0
vn -0 -1 0
vn -1 0 0
vn -1 0 0
vn -1 0 0
vn -1 0 0
vn -0 1 0
vn -0 1 0
vn -0 1 0
vn -0 1 0
vn 1 0 0
vn 1 0 0
vn 1 0 0
vn 1 0 0
vn -0 0 -1
vn -0 0 -1
vn -0 0 -1
vn -0 0 -1
vn -0 1 0
vn -0 1 0
vn -0 1 0
vn -0 1 0
vn -0 0 1
vn -0 0 1
vn -0 0 1
vn -0 0 1
vn -0 -1 0
vn -0 -1 0
vn -0 -1 0
vn -0 -1 0
vn -1 0 0
vn -1 0 0
vn -1 0 0
vn -1 0 0
vn 1 0 0
vn 1 0 0
vn 1 0 0
vn 1 0 0
vn -0 -0.0895996094 0.99609375
vn -0 -0.0895996094 0.99609375
vn -0 -0.0895996094 0.99609375
vn -0 -0.0895996094 0.99609375
vn -0.0740356445 0 0.997070312
vn -0.0740356445 0 0.997070312
vn -0.0740356445 0 0.997070312
vn -0.0740356445 0 0.997070312
vn -0 0.0895996094 0.99609375
vn -0 0.0895996094 0.99609375
vn -0 0.0895996094 0.99609375
vn -0 0.0895996094 0.99609375
vn 0.0740356445 0 0.997070312
vn 0.0740356445 0 0.997070312
vn 0.0740356445 0 0.997070312
vn 0.0740356445 0 0.997070312
vn -0 -1 0
vn -0 -1 0
vn -0 -1 0
vn -0 -1 0
vn -1 0 0
vn -1 0 0
vn -1 0 0
vn -1 0 0
vn -0 1 0
vn -0 1 0
vn -0 1 0
vn -0 1 0
vn 1 0 0
vn 1 0 0
vn 1 0 0
vn 1 0 0
vn -0.668945312 0.200805664 0.715820312
vn -0.690917969 0.197631836 0.695800781
vn -5.36441803E-07 0.240722656 0.970703125
vn 5.96046448E-07 0.240722656 0.970703125
vn 0.690917969 0.197631836 0.695800781
vn 0.668945312 0.200805664 0.715820312
vn 0.668945312 0.200805664 0.715820312
vn 0.690917969 0.197631836 0.695800781
vn 0.9921875 0.125366211 0.00137138367
vn 0.9921875 0.125 -0.00309753418
vn 0.9921875 0.125 -0.00309753418
vn 0.9921875 0.125366211 0.00137138367
vn 0.909179688 0.111938477 -0.400878906
vn 0.919921875 0.112731934 -0.375
vn 0.919921875 0.112731934 -0.375
vn 0.909179688 0.111938477 -0.400878906
vn 0.000400066376 0.0243530273 -0.999511719
vn 0.000399589539 0.0243530273 -0.999511719
vn -0.909179688 0.112426758 -0.400634766
vn -0.919921875 0.113098145 -0.375244141
vn -0.919921875 0.113098145 -0.375244141
vn -0.909179688 0.112426758 -0.400634766
vn -0.9921875 0.125488281 0.00133895874
vn -0.9921875 0.12512207 -0.00312805176
vn -0.690917969 0.197631836 0.695800781
vn -0.668945312 0.200805664 0.715820312
vn -0.478271484 0.737304688 0.477050781
vn 1.31130219E-06 0.774902344 0.632324219
vn 1.43051147E-06 0.713378906 0.700683594
vn -0.418212891 0.790527344 0.447509766
vn -5.78165054E-05 1 0.0083694458
vn 0.418212891 0.790527344 0.447509766
vn 0.581542969 0.813476562 0.0044593811
vn 0.527832031 0.825683594 -0.198608398
vn 0.00027513504 0.91015625 -0.414306641
vn -0.688476562 0.725097656 -0.00910186768
vn -0.527832031 0.825683594 -0.198852539
vn -0.581542969 0.813476562 0.00443649292
vn -0.651855469 0.736328125 -0.180908203
vn 1.43051147E-06 0.713378906 0.700683594
vn 1.31130219E-06 0.774902344 0.632324219
vn 0.418212891 0.790527344 0.447509766
vn 0.478271484 0.737304688 0.477050781
vn 0.478271484 0.737304688 0.477050781
vn 0.418212891 0.790527344 0.447509766
vn 0.581542969 0.813476562 0.0044593811
vn 0.688476562 0.725097656 -0.00908660889
vn 0.527832031 0.825683594 -0.198608398
vn 0.651855469 0.736328125 -0.181030273
vn 0.651855469 0.736328125 -0.181030273
vn 0.527832031 0.825683594 -0.198608398
vn 0.00027513504 0.91015625 -0.414306641
vn 0.000467777252 0.502929688 -0.864257812
vn -0.527832031 0.825683594 -0.198852539
vn -0.651855469 0.736328125 -0.180908203
vn -0.0469055176 -0.998535156 -0.0180664062
vn -0.120666504 -0.992675781 -0.00304985046
vn -0.123962402 -0.9921875 -8.88705254E-05
vn -0.00741577148 -1 -0.0168457031
vn -0.162109375 -0.973144531 0.162109375
vn 6.7949295E-06 -1 -0.0167388916
vn -0.162109375 -0.973144531 0.162109375
vn 5.00679016E-06 -1 -0.0167388916
vn 7.15255737E-07 -0.973144531 0.229248047
vn 0.0469055176 -0.998535156 -0.0180664062
vn -7.15255737E-07 -0.973144531 0.229248047
vn 0.00742721558 -1 -0.0168609619
vn 0.162109375 -0.973144531 0.162109375
vn 0.123962402 -0.9921875 -8.55326653E-05
vn 0.162109375 -0.973144531 0.162109375
vn 0.120666504 -0.992675781 -0.00304794312
vn 0.454833984 -0.765625 0.454833984
vn 0.454833984 -0.765625 0.454833984
vn 0.643066406 -0.765625 5.96046448E-07
vn -2.02655792E-06 -0.765625 0.643066406
vn 0.643066406 -0.765625 -4.17232513E-07
vn -2.44379044E-06 -0.765625 0.643066406
vn 0.454833984 -0.765625 -0.454833984
vn -0.454833984 -0.765625 0.454833984
vn 0.454833984 -0.765625 -0.454833984
vn -0.454833984 -0.765625 0.454833984
vn -2.44379044E-06 -0.765625 -0.643066406
vn -0.643066406 -0.765625 -4.17232513E-07
vn -1.96695328E-06 -0.765625 -0.643066406
vn -0.643066406 -0.765625 6.55651093E-07
vn -0.454833984 -0.765625 -0.454833984
vn -0.454833984 -0.765625 -0.454833984
g Facade_Lamp_0
f 3/3/3 2/2/2 1/1/1
f 4/4/4 3/3/3 1/1/1
f 7/7/7 6/6/6 5/5/5
f 8/8/8 7/7/7 5/5/5
f 11/11/11 10/10/10 9/9/9
f 12/12/12 11/11/11 9/9/9
f 15/15/15 14/14/14 13/13/13
f 16/16/16 15/15/15 13/13/13
f 19/19/19 18/18/18 17/17/17
f 20/20/20 19/19/19 17/17/17
f 23/23/23 22/22/22 21/21/21
f 24/24/24 23/23/23 21/21/21
f 27/27/27 26/26/26 25/25/25
f 28/28/28 27/27/27 25/25/25
f 31/31/31 30/30/30 29/29/29
f 32/32/32 31/31/31 29/29/29
f 35/35/35 34/34/34 33/33/33
f 36/36/36 35/35/35 33/33/33
f 39/39/39 38/38/38 37/37/37
f 40/40/40 39/39/39 37/37/37
f 43/43/43 42/42/42 41/41/41
f 44/44/44 43/43/43 41/41/41
f 47/47/47 46/46/46 45/45/45
f 48/48/48 47/47/47 45/45/45
f 51/51/51 50/50/50 49/49/49
f 52/52/52 51/51/51 49/49/49
f 55/55/55 54/54/54 53/53/53
f 56/56/56 55/55/55 53/53/53
f 59/59/59 58/58/58 57/57/57
f 60/60/60 59/59/59 57/57/57
f 63/63/63 62/62/62 61/61/61
f 64/64/64 63/63/63 61/61/61
f 67/67/67 66/66/66 65/65/65
f 68/68/68 67/67/67 65/65/65
f 71/71/71 70/70/70 69/69/69
f 72/72/72 71/71/71 69/69/69
f 75/75/75 74/74/74 73/73/73
f 76/76/76 75/75/75 73/73/73
f 79/79/79 78/78/78 77/77/77
f 80/80/80 79/79/79 77/77/77
f 83/83/83 82/82/82 81/81/81
f 84/84/84 83/83/83 81/81/81
f 87/87/87 86/86/86 85/85/85
f 88/88/88 87/87/87 85/85/85
f 91/91/91 90/90/90 89/89/89
f 92/92/92 91/91/91 89/89/89
f 95/95/95 94/94/94 93/93/93
f 96/96/96 95/95/95 93/93/93
f 99/99/99 98/98/98 97/97/97
f 100/100/100 99/99/99 97/97/97
f 103/103/103 102/102/102 101/101/101
f 104/104/104 103/103/103 101/101/101
f 107/107/107 106/106/106 105/105/105
f 108/108/108 107/107/107 105/105/105
f 111/111/111 110/110/110 109/109/109
f 112/112/112 111/111/111 109/109/109
f 115/115/115 114/114/114 113/113/113
f 116/116/116 115/115/115 113/113/113
f 117/117/117 115/115/115 116/116/116
f 118/118/118 117/117/117 116/116/116
f 121/121/121 120/120/120 119/119/119
f 122/122/122 121/121/121 119/119/119
f 125/125/125 124/124/124 123/123/123
f 126/126/126 125/125/125 123/123/123
f 129/129/129 128/128/128 127/127/127
f 130/130/130 129/129/129 127/127/127
f 131/131/131 129/129/129 130/130/130
f 132/132/132 131/131/131 130/130/130
f 135/135/135 134/134/134 133/133/133
f 136/136/136 135/135/135 133/133/133
f 137/137/137 135/135/135 136/136/136
f 138/138/138 137/137/137 136/136/136
f 141/141/141 140/140/140 139/139/139
f 140/140/140 142/142/142 139/139/139
f 140/140/140 143/143/143 142/142/142
f 144/144/144 143/143/143 140/140/140
f 145/145/145 143/143/143 144/144/144
f 146/146/146 143/143/143 145/145/145
f 147/147/147 143/143/143 146/146/146
f 139/139/139 142/142/142 148/148/148
f 149/149/149 143/143/143 147/147/147
f 142/142/142 150/150/150 148/148/148
f 142/142/142 143/143/143 150/150/150
f 150/150/150 143/143/143 149/149/149
f 148/148/148 150/150/150 151/151/151
f 150/150/150 149/149/149 151/151/151
f 154/154/154 153/153/153 152/152/152
f 155/155/155 154/154/154 152/152/152
f 158/158/158 157/157/157 156/156/156
f 159/159/159 158/158/158 156/156/156
f 160/160/160 158/158/158 159/159/159
f 161/161/161 160/160/160 159/159/159
f 164/164/164 163/163/163 162/162/162
f 165/165/165 164/164/164 162/162/162
f 166/166/166 164/164/164 165/165/165
f 167/167/167 166/166/166 165/165/165
f 170/170/170 169/169/169 168/168/168
f 169/169/169 171/171/171 168/168/168
f 172/172/172 169/169/169 170/170/170
f 168/168/168 171/171/171 173/173/173
f 174/174/174 172/172/172 170/170/170
f 171/171/171 175/175/175 173/173/173
f 176/176/176 172/172/172 174/174/174
f 173/173/173 175/175/175 177/177/177
f 178/178/178 176/176/176 174/174/174
f 175/175/175 179/179/179 177/177/177
f 180/180/180 176/176/176 178/178/178
f 177/177/177 179/179/179 181/181/181
f 182/182/182 180/180/180 178/178/178
f 179/179/179 183/183/183 181/181/181
f 183/183/183 180/180/180 182/182/182
f 181/181/181 183/183/183 182/182/182
f 186/186/186 185/185/185 184/184/184
f 184/184/184 185/185/185 187/187/187
f 188/188/188 186/186/186 184/184/184
f 185/185/185 189/189/189 187/187/187
f 190/190/190 186/186/186 188/188/188
f 187/187/187 189/189/189 191/191/191
f 192/192/192 190/190/190 188/188/188
f 189/189/189 193/193/193 191/191/191
f 194/194/194 190/190/190 192/192/192
f 191/191/191 193/193/193 195/195/195
f 196/196/196 194/194/194 192/192/192
f 193/193/193 197/197/197 195/195/195
f 198/198/198 194/194/194 196/196/196
f 195/195/195 197/197/197 199/199/199
f 199/199/199 198/198/198 196/196/196
f 197/197/197 198/198/198 199/199/199
