g MainDoor_Handle
v 0.523065388 -0.00647157663 0.000745187746
v 0.523065388 0.00712316483 0.0150908912
v 0.491522402 0.00712316483 0.0150908912
v 0.491522402 -0.00647157663 0.000745187746
v 0.523065388 0.00712316483 0.0150908912
v 0.523075104 -0.0734246597 0.0914336666
v 0.491532177 -0.0734246597 0.0914336666
v 0.491522402 0.00712316483 0.0150908912
v 0.523075104 -0.0734246597 0.0914336666
v 0.523075104 -0.0870193243 0.0770879611
v 0.491532177 -0.0870193243 0.0770879611
v 0.491532177 -0.0734246597 0.0914336666
v 0.523075104 -0.0870193243 0.0770879611
v 0.523065388 -0.00647157663 0.000745187746
v 0.491522402 -0.00647157663 0.000745187746
v 0.491532177 -0.0870193243 0.0770879611
v 0.491522402 -0.00647157663 0.000745187746
v 0.491522402 0.00712316483 0.0150908912
v 0.491532177 -0.0734246597 0.0914336666
v 0.491532177 -0.0870193243 0.0770879611
v 0.523075104 -0.0870193243 0.0770879611
v 0.523075104 -0.0734246597 0.0914336666
v 0.523065388 0.00712316483 0.0150908912
v 0.523065388 -0.00647157663 0.000745187746
v 0.485487252 -0.0776518807 0.12241511
v 0.532557547 -0.0772649944 0.122815505
v 0.532557547 -0.104263052 0.133997142
v 0.485487252 -0.104263052 0.133430734
v 0.532557547 -0.131261036 0.122815505
v 0.485487252 -0.130858362 0.12241511
v 0.485487252 -0.130858362 0.12241511
v 0.532557547 -0.131261036 0.122815505
v 0.532547772 -0.142445579 0.0958184302
v 0.485487252 -0.141875505 0.0958184302
v 0.532557547 -0.131261036 0.0688213557
v 0.485487252 -0.130858362 0.0692119822
v 0.485487252 -0.130858362 0.0692119822
v 0.532557547 -0.131261036 0.0688213557
v 0.532557547 -0.104263052 0.0576397181
v 0.485487252 -0.104263052 0.0581963584
v 0.532557547 -0.0772649944 0.0688213557
v 0.485487252 -0.0776518807 0.0692119822
v 0.485487252 -0.0776518807 0.0692119822
v 0.532557547 -0.0772649944 0.0688213557
v 0.532547772 -0.0660804957 0.0958184302
v 0.485487252 -0.066650562 0.0958184302
v 0.532557547 -0.0772649944 0.122815505
v 0.485487252 -0.0776518807 0.12241511
v -0.185837209 -0.0879322588 0.112131909
v 0.531776309 -0.0876516104 0.11242976
v 0.531776309 -0.104263052 0.119309641
v -0.185827449 -0.104263052 0.118904367
v -0.185827449 -0.104263052 0.118904367
v 0.531776309 -0.104263052 0.119309641
v 0.531776309 -0.120874457 0.11242976
v -0.185837209 -0.120584048 0.112131909
v 0.531776309 -0.127756104 0.0958184302
v -0.185827449 -0.1273451 0.0958184302
v -0.185827449 -0.1273451 0.0958184302
v 0.531776309 -0.127756104 0.0958184302
v 0.531776309 -0.120874457 0.0792071
v -0.185827449 -0.120584048 0.0795000643
v -0.185827449 -0.120584048 0.0795000643
v 0.531776309 -0.120874457 0.0792071
v 0.531776309 -0.104263052 0.0723272189
v -0.185837209 -0.104263052 0.0727276057
v -0.185837209 -0.104263052 0.0727276057
v 0.531776309 -0.104263052 0.0723272189
v 0.531776309 -0.0876516104 0.0792071
v -0.185827449 -0.0879322588 0.0795000643
v -0.185827449 -0.0879322588 0.0795000643
v 0.531776309 -0.0876516104 0.0792071
v 0.531776309 -0.0807700157 0.0958184302
v -0.185827449 -0.0811810121 0.0958184302
v 0.531776309 -0.0876516104 0.11242976
v -0.185837209 -0.0879322588 0.112131909
v -0.173083305 -0.130874157 0.12241511
v -0.220153615 -0.131261036 0.122805737
v -0.220153615 -0.104263052 0.133987382
v -0.173083305 -0.104263052 0.133430734
v -0.220153615 -0.0772649944 0.122805737
v -0.173083305 -0.0776677504 0.12241511
v -0.173083305 -0.0776677504 0.12241511
v -0.220153615 -0.0772649944 0.122805737
v -0.220143855 -0.066080451 0.0958184302
v -0.173083305 -0.0666505247 0.0958184302
v -0.220153615 -0.0772649944 0.068811588
v -0.173083305 -0.0776677504 0.0692217499
v -0.173083305 -0.0776677504 0.0692217499
v -0.220153615 -0.0772649944 0.068811588
v -0.220153615 -0.104263052 0.0576299503
v -0.173083305 -0.104263052 0.0582061224
v -0.220153615 -0.131261036 0.068811588
v -0.173083305 -0.130874157 0.0692217499
v -0.173083305 -0.130874157 0.0692217499
v -0.220153615 -0.131261036 0.068811588
v -0.220143855 -0.142445579 0.0958184302
v -0.173083305 -0.141875505 0.0958184302
v -0.220153615 -0.131261036 0.122805737
v -0.173083305 -0.130874157 0.12241511
v -0.182555959 -0.00647157663 0.000754953362
v -0.182555959 0.00712316483 0.0151006561
v -0.21409893 0.00712316483 0.0151006561
v -0.21409893 -0.00647157663 0.000754953362
v -0.182555959 0.00712316483 0.0151006561
v -0.182555959 -0.0734246597 0.0914336666
v -0.21409893 -0.0734246597 0.0914336666
v -0.21409893 0.00712316483 0.0151006561
v -0.182555959 -0.0734246597 0.0914336666
v -0.182555959 -0.0870193243 0.0770879611
v -0.21409893 -0.0870193243 0.0770879611
v -0.21409893 -0.0734246597 0.0914336666
v -0.182555959 -0.0870193243 0.0770879611
v -0.182555959 -0.00647157663 0.000754953362
v -0.21409893 -0.00647157663 0.000754953362
v -0.21409893 -0.0870193243 0.0770879611
v -0.21409893 -0.00647157663 0.000754953362
v -0.21409893 0.00712316483 0.0151006561
v -0.21409893 -0.0734246597 0.0914336666
v -0.21409893 -0.0870193243 0.0770879611
v -0.182555959 -0.0870193243 0.0770879611
v -0.182555959 -0.0734246597 0.0914336666
v -0.182555959 0.00712316483 0.0151006561
v -0.182555959 -0.00647157663 0.000754953362
v -0.220153615 -0.131261036 0.068811588
v -0.220143855 -0.104263052 0.0958184302
v -0.220143855 -0.142445579 0.0958184302
v -0.220153615 -0.104263052 0.0576299503
v -0.220153615 -0.131261036 0.122805737
v -0.220153615 -0.0772649944 0.068811588
v -0.220153615 -0.104263052 0.133987382
v -0.220143855 -0.066080451 0.0958184302
v -0.220153615 -0.0772649944 0.122805737
v -0.173083305 -0.141875505 0.0958184302
v -0.173083305 -0.104266986 0.0958184302
v -0.173083305 -0.130874157 0.0692217499
v -0.173083305 -0.130874157 0.12241511
v -0.173083305 -0.104263052 0.0582061224
v -0.173083305 -0.104263052 0.133430734
v -0.173083305 -0.0776677504 0.0692217499
v -0.173083305 -0.0776677504 0.12241511
v -0.173083305 -0.0666505247 0.0958184302
v 0.532557547 -0.0772649944 0.0688213557
v 0.532547772 -0.104263052 0.0958184302
v 0.532547772 -0.0660804957 0.0958184302
v 0.532557547 -0.104263052 0.0576397181
v 0.532557547 -0.0772649944 0.122815505
v 0.532557547 -0.131261036 0.0688213557
v 0.532557547 -0.104263052 0.133997142
v 0.532547772 -0.142445579 0.0958184302
v 0.532557547 -0.131261036 0.122815505
v 0.485487252 -0.066650562 0.0958184302
v 0.485487252 -0.104259089 0.0958184302
v 0.485487252 -0.0776518807 0.0692119822
v 0.485487252 -0.0776518807 0.12241511
v 0.485487252 -0.104263052 0.0581963584
v 0.485487252 -0.104263052 0.133430734
v 0.485487252 -0.130858362 0.0692119822
v 0.485487252 -0.130858362 0.12241511
v 0.485487252 -0.141875505 0.0958184302
vt 0 0
vt 0 0
vt 0 0
vt 0 0
vt 0.858886719 0.195068359
vt 0.745117188 0.195068359
vt 0.745117188 0.224853516
vt 0.858886719 0.224853516
vt 0 0
vt 0 0
vt 0 0
vt 0 0
vt 0.858886719 0.195068359
vt 0.745117188 0.195068359
vt 0.745117188 0.224853516
vt 0.858886719 0.224853516
vt 0.745117188 0.195068359
vt 0.745117188 0.224853516
vt 0.858886719 0.224853516
vt 0.858886719 0.195068359
vt 0.745117188 0.195068359
vt 0.745117188 0.225097656
vt 0.858886719 0.225097656
vt 0.858886719 0.195068359
vt 0.618652344 0.840332031
vt 0.579101562 0.840332031
vt 0.579101562 0.829589844
vt 0.618652344 0.829589844
vt 0.579101562 0.818359375
vt 0.618652344 0.818359375
vt 0.618652344 0.818359375
vt 0.579101562 0.818359375
vt 0.579101562 0.807128906
vt 0.618652344 0.807128906
vt 0.579101562 0.795898438
vt 0.618652344 0.795898438
vt 0.618652344 0.795410156
vt 0.579101562 0.795410156
vt 0.579101562 0.807128906
vt 0.618652344 0.807128906
vt 0.579101562 0.818847656
vt 0.618652344 0.818847656
vt 0.618652344 0.818847656
vt 0.579101562 0.818847656
vt 0.579101562 0.830078125
vt 0.618652344 0.830078125
vt 0.579101562 0.840332031
vt 0.618652344 0.840332031
vt 0.743164062 0.923828125
vt 0.338378906 0.923828125
vt 0.338378906 0.919433594
vt 0.743164062 0.919433594
vt 0.743164062 0.919433594
vt 0.338378906 0.919433594
vt 0.338378906 0.914550781
vt 0.743164062 0.914550781
vt 0.338378906 0.91015625
vt 0.743164062 0.91015625
vt 0.743164062 0.91015625
vt 0.338378906 0.91015625
vt 0.338378906 0.905273438
vt 0.743164062 0.905273438
vt 0.743164062 0.905273438
vt 0.338378906 0.905273438
vt 0.338378906 0.91015625
vt 0.743164062 0.91015625
vt 0.743164062 0.91015625
vt 0.338378906 0.91015625
vt 0.338378906 0.915039062
vt 0.743164062 0.915039062
vt 0.743164062 0.915039062
vt 0.338378906 0.915039062
vt 0.338378906 0.919433594
vt 0.743164062 0.919433594
vt 0.338378906 0.923828125
vt 0.743164062 0.923828125
vt 0.618652344 0.840332031
vt 0.579101562 0.840332031
vt 0.579101562 0.829589844
vt 0.618652344 0.829589844
vt 0.579101562 0.818359375
vt 0.618652344 0.818359375
vt 0.618652344 0.818359375
vt 0.579101562 0.818359375
vt 0.579101562 0.807128906
vt 0.618652344 0.807128906
vt 0.579101562 0.795898438
vt 0.618652344 0.795898438
vt 0.618652344 0.795410156
vt 0.579101562 0.795410156
vt 0.579101562 0.807128906
vt 0.618652344 0.807128906
vt 0.579101562 0.818847656
vt 0.618652344 0.818847656
vt 0.618652344 0.818847656
vt 0.579101562 0.818847656
vt 0.579101562 0.830078125
vt 0.618652344 0.830078125
vt 0.579101562 0.840332031
vt 0.618652344 0.840332031
vt 0 0
vt 0 0
vt 0 0
vt 0 0
vt 0.858886719 0.195068359
vt 0.745117188 0.195068359
vt 0.745117188 0.224853516
vt 0.858886719 0.224853516
vt 0 0
vt 0 0
vt 0 0
vt 0 0
vt 0.858886719 0.195068359
vt 0.745117188 0.195068359
vt 0.745117188 0.224853516
vt 0.858886719 0.224853516
vt 0.745117188 0.195068359
vt 0.745117188 0.224853516
vt 0.858886719 0.224853516
vt 0.858886719 0.195068359
vt 0.745117188 0.195068359
vt 0.745117188 0.225097656
vt 0.858886719 0.225097656
vt 0.858886719 0.195068359
vt 0.244873047 0.735351562
vt 0.255615234 0.74609375
vt 0.255615234 0.730957031
vt 0.240478516 0.74609375
vt 0.266357422 0.735351562
vt 0.244873047 0.756835938
vt 0.270996094 0.74609375
vt 0.255615234 0.761230469
vt 0.266357422 0.756835938
vt 0.270507812 0.74609375
vt 0.255371094 0.74609375
vt 0.266113281 0.756835938
vt 0.266113281 0.735839844
vt 0.255371094 0.761230469
vt 0.255371094 0.731445312
vt 0.244750977 0.756835938
vt 0.244750977 0.735839844
vt 0.240356445 0.74609375
vt 0.244873047 0.735351562
vt 0.255615234 0.74609375
vt 0.255615234 0.730957031
vt 0.240478516 0.74609375
vt 0.266357422 0.735351562
vt 0.244873047 0.756835938
vt 0.270996094 0.74609375
vt 0.255615234 0.761230469
vt 0.266357422 0.756835938
vt 0.270507812 0.74609375
vt 0.255371094 0.74609375
vt 0.266113281 0.756835938
vt 0.266113281 0.735839844
vt 0.255371094 0.761230469
vt 0.255371094 0.731445312
vt 0.244750977 0.756835938
vt 0.244750977 0.735839844
vt 0.240356445 0.74609375
vn -0 0.726074219 -0.687988281
vn -0 0.726074219 -0.687988281
vn -0 0.726074219 -0.687988281
vn -0 0.726074219 -0.687988281
vn -0 0.687988281 0.726074219
vn -0 0.687988281 0.726074219
vn -0 0.687988281 0.726074219
vn -0 0.687988281 0.726074219
vn -0 -0.726074219 0.687988281
vn -0 -0.726074219 0.687988281
vn -0 -0.726074219 0.687988281
vn -0 -0.726074219 0.687988281
vn -0 -0.687988281 -0.726074219
vn -0 -0.687988281 -0.726074219
vn -0 -0.687988281 -0.726074219
vn -0 -0.687988281 -0.726074219
vn -1 0 0
vn -1 0 0
vn -1 0 0
vn -1 0 0
vn 1 0 -2.98023224E-07
vn 1 0 -2.98023224E-07
vn 1 0 -2.98023224E-07
vn 1 0 -2.98023224E-07
vn -0.0119552612 0.70703125 0.70703125
vn -0.0119552612 0.70703125 0.70703125
vn -0.012008667 0 1
vn -0.012008667 -2.98023224E-07 1
vn -0.0120697021 -0.70703125 0.70703125
vn -0.0120697021 -0.70703125 0.70703125
vn -0.0120697021 -0.70703125 0.70703125
vn -0.0120697021 -0.70703125 0.70703125
vn -0.0121002197 -1 0
vn -0.0121002197 -1 0
vn -0.0120697021 -0.70703125 -0.70703125
vn -0.0120697021 -0.70703125 -0.70703125
vn -0.0120697021 -0.70703125 -0.70703125
vn -0.0120697021 -0.70703125 -0.70703125
vn -0.012008667 0 -1
vn -0.012008667 -2.98023224E-07 -1
vn -0.0119552612 0.70703125 -0.70703125
vn -0.0119552612 0.70703125 -0.70703125
vn -0.0119552612 0.70703125 -0.70703125
vn -0.0119552612 0.70703125 -0.70703125
vn -0.0119247437 1 0
vn -0.0119247437 1 0
vn -0.0119552612 0.70703125 0.70703125
vn -0.0119552612 0.70703125 0.70703125
vn -0.000781059265 0.70703125 0.70703125
vn -0.000781059265 0.70703125 0.70703125
vn -0.000782489777 0 1
vn -0.000782489777 0 1
vn -0.000782489777 0 1
vn -0.000782489777 0 1
vn -0.000787734985 -0.70703125 0.70703125
vn -0.000787734985 -0.70703125 0.70703125
vn -0.00079202652 -1 0
vn -0.00079202652 -1 0
vn -0.00079202652 -1 0
vn -0.00079202652 -1 0
vn -0.000793457031 -0.70703125 -0.70703125
vn -0.000793457031 -0.70703125 -0.70703125
vn -0.000793457031 -0.70703125 -0.70703125
vn -0.000793457031 -0.70703125 -0.70703125
vn -0.000791549683 0 -1
vn -0.000791549683 0 -1
vn -0.000791549683 0 -1
vn -0.000791549683 0 -1
vn -0.000786781311 0.70703125 -0.70703125
vn -0.000786781311 0.70703125 -0.70703125
vn -0.000786781311 0.70703125 -0.70703125
vn -0.000786781311 0.70703125 -0.70703125
vn -0.000782489777 1 0
vn -0.000782489777 1 0
vn -0.000781059265 0.70703125 0.70703125
vn -0.000781059265 0.70703125 0.70703125
vn 0.0119476318 -0.70703125 0.70703125
vn 0.0119476318 -0.70703125 0.70703125
vn 0.012008667 0 1
vn 0.012008667 3.57627869E-07 1
vn 0.0120697021 0.70703125 0.70703125
vn 0.0120697021 0.70703125 0.70703125
vn 0.0120697021 0.70703125 0.70703125
vn 0.0120697021 0.70703125 0.70703125
vn 0.0121002197 1 1.1920929E-07
vn 0.0121002197 1 1.1920929E-07
vn 0.0120697021 0.70703125 -0.70703125
vn 0.0120697021 0.70703125 -0.70703125
vn 0.0120697021 0.70703125 -0.70703125
vn 0.0120697021 0.70703125 -0.70703125
vn 0.012008667 0 -1
vn 0.012008667 1.78813934E-07 -1
vn 0.0119476318 -0.70703125 -0.70703125
vn 0.0119476318 -0.70703125 -0.70703125
vn 0.0119476318 -0.70703125 -0.70703125
vn 0.0119476318 -0.70703125 -0.70703125
vn 0.0119247437 -1 0
vn 0.0119247437 -1 0
vn 0.0119476318 -0.70703125 0.70703125
vn 0.0119476318 -0.70703125 0.70703125
vn -0 0.726074219 -0.687988281
vn -0 0.726074219 -0.687988281
vn -0 0.726074219 -0.687988281
vn -0 0.726074219 -0.687988281
vn -0 0.687988281 0.726074219
vn -0 0.687988281 0.726074219
vn -0 0.687988281 0.726074219
vn -0 0.687988281 0.726074219
vn -0 -0.726074219 0.687988281
vn -0 -0.726074219 0.687988281
vn -0 -0.726074219 0.687988281
vn -0 -0.726074219 0.687988281
vn -0 -0.687988281 -0.726074219
vn -0 -0.687988281 -0.726074219
vn -0 -0.687988281 -0.726074219
vn -0 -0.687988281 -0.726074219
vn -1 0 0
vn -1 0 0
vn -1 0 0
vn -1 0 0
vn 1 0 1.37090683E-06
vn 1 0 1.37090683E-06
vn 1 0 1.37090683E-06
vn 1 0 1.37090683E-06
vn -1 0 0
vn -1 0 0
vn -1 0 2.98023224E-06
vn -1 0 0
vn -1 0 0
vn -1 0 2.98023224E-06
vn -1 0 0
vn -1 0 0
vn -1 0 0
vn 1 0 0
vn 1 0 1.84774399E-06
vn 1 0 -3.03983688E-06
vn 1 0 1.84774399E-06
vn 1 0 -1.1920929E-06
vn 1 0 1.84774399E-06
vn 1 0 0
vn 1 0 0
vn 1 0 0
vn 1 0 0
vn 1 0 0
vn 1 0 -3.57627869E-07
vn 1 0 0
vn 1 0 0
vn 1 0 -7.15255737E-07
vn 1 0 0
vn 1 0 3.57627869E-07
vn 1 0 0
vn -1 0 0
vn -1 0 -3.57627869E-07
vn -1 0 0
vn -1 0 -3.57627869E-07
vn -1 0 4.17232513E-07
vn -1 0 -3.57627869E-07
vn -1 0 0
vn -1 0 -7.74860382E-07
vn -1 0 7.74860382E-07
g MainDoor_Handle_0
f 3/3/3 2/2/2 1/1/1
f 4/4/4 3/3/3 1/1/1
f 7/7/7 6/6/6 5/5/5
f 8/8/8 7/7/7 5/5/5
f 11/11/11 10/10/10 9/9/9
f 12/12/12 11/11/11 9/9/9
f 15/15/15 14/14/14 13/13/13
f 16/16/16 15/15/15 13/13/13
f 19/19/19 18/18/18 17/17/17
f 20/20/20 19/19/19 17/17/17
f 23/23/23 22/22/22 21/21/21
f 24/24/24 23/23/23 21/21/21
f 27/27/27 26/26/26 25/25/25
f 28/28/28 27/27/27 25/25/25
f 29/29/29 27/27/27 28/28/28
f 30/30/30 29/29/29 28/28/28
f 33/33/33 32/32/32 31/31/31
f 34/34/34 33/33/33 31/31/31
f 35/35/35 33/33/33 34/34/34
f 36/36/36 35/35/35 34/34/34
f 39/39/39 38/38/38 37/37/37
f 40/40/40 39/39/39 37/37/37
f 41/41/41 39/39/39 40/40/40
f 42/42/42 41/41/41 40/40/40
f 45/45/45 44/44/44 43/43/43
f 46/46/46 45/45/45 43/43/43
f 47/47/47 45/45/45 46/46/46
f 48/48/48 47/47/47 46/46/46
f 51/51/51 50/50/50 49/49/49
f 52/52/52 51/51/51 49/49/49
f 55/55/55 54/54/54 53/53/53
f 56/56/56 55/55/55 53/53/53
f 57/57/57 55/55/55 56/56/56
f 58/58/58 57/57/57 56/56/56
f 61/61/61 60/60/60 59/59/59
f 62/62/62 61/61/61 59/59/59
f 65/65/65 64/64/64 63/63/63
f 66/66/66 65/65/65 63/63/63
f 69/69/69 68/68/68 67/67/67
f 70/70/70 69/69/69 67/67/67
f 73/73/73 72/72/72 71/71/71
f 74/74/74 73/73/73 71/71/71
f 75/75/75 73/73/73 74/74/74
f 76/76/76 75/75/75 74/74/74
f 79/79/79 78/78/78 77/77/77
f 80/80/80 79/79/79 77/77/77
f 81/81/81 79/79/79 80/80/80
f 82/82/82 81/81/81 80/80/80
f 85/85/85 84/84/84 83/83/83
f 86/86/86 85/85/85 83/83/83
f 87/87/87 85/85/85 86/86/86
f 88/88/88 87/87/87 86/86/86
f 91/91/91 90/90/90 89/89/89
f 92/92/92 91/91/91 89/89/89
f 93/93/93 91/91/91 92/92/92
f 94/94/94 93/93/93 92/92/92
f 97/97/97 96/96/96 95/95/95
f 98/98/98 97/97/97 95/95/95
f 99/99/99 97/97/97 98/98/98
f 100/100/100 99/99/99 98/98/98
f 103/103/103 102/102/102 101/101/101
f 104/104/104 103/103/103 101/101/101
f 107/107/107 106/106/106 105/105/105
f 108/108/108 107/107/107 105/105/105
f 111/111/111 110/110/110 109/109/109
f 112/112/112 111/111/111 109/109/109
f 115/115/115 114/114/114 113/113/113
f 116/116/116 115/115/115 113/113/113
f 119/119/119 118/118/118 117/117/117
f 120/120/120 119/119/119 117/117/117
f 123/123/123 122/122/122 121/121/121
f 124/124/124 123/123/123 121/121/121
f 127/127/127 126/126/126 125/125/125
f 125/125/125 126/126/126 128/128/128
f 129/129/129 126/126/126 127/127/127
f 128/128/128 126/126/126 130/130/130
f 131/131/131 126/126/126 129/129/129
f 130/130/130 126/126/126 132/132/132
f 133/133/133 126/126/126 131/131/131
f 132/132/132 126/126/126 133/133/133
f 136/136/136 135/135/135 134/134/134
f 134/134/134 135/135/135 137/137/137
f 138/138/138 135/135/135 136/136/136
f 137/137/137 135/135/135 139/139/139
f 140/140/140 135/135/135 138/138/138
f 139/139/139 135/135/135 141/141/141
f 142/142/142 135/135/135 140/140/140
f 141/141/141 135/135/135 142/142/142
f 145/145/145 144/144/144 143/143/143
f 143/143/143 144/144/144 146/146/146
f 147/147/147 144/144/144 145/145/145
f 146/146/146 144/144/144 148/148/148
f 149/149/149 144/144/144 147/147/147
f 148/148/148 144/144/144 150/150/150
f 151/151/151 144/144/144 149/149/149
f 150/150/150 144/144/144 151/151/151
f 154/154/154 153/153/153 152/152/152
f 152/152/152 153/153/153 155/155/155
f 156/156/156 153/153/153 154/154/154
f 155/155/155 153/153/153 157/157/157
f 158/158/158 153/153/153 156/156/156
f 157/157/157 153/153/153 159/159/159
f 160/160/160 153/153/153 158/158/158
f 159/159/159 153/153/153 160/160/160
