g Corner_Column_Hydroelectric_Plant_2
v 0.0571620837 3.59163332 -0.535450816
v 0.0571620837 3.59163332 0.069142513
v 0.0571620837 3.98519826 0.069142513
v 0.0571620837 3.98519826 -0.535450816
v 0.0571620837 3.59163332 0.069142513
v -0.435884774 3.59163332 0.069142513
v -0.435884774 3.98519826 0.069142513
v 0.0571620837 3.98519826 0.069142513
v 3.88264198E-06 -6.4730628E-08 -0.535450637
v 3.88264198E-06 -6.4730628E-08 6.1035152E-08
v 3.88264198E-06 3.59163332 6.1035152E-08
v 3.88264198E-06 3.59163332 -0.535450637
v 3.88264198E-06 -6.4730628E-08 6.1035152E-08
v -0.435884774 -6.4730628E-08 6.1035152E-08
v -0.435884774 3.59163332 6.1035152E-08
v 3.88264198E-06 3.59163332 6.1035152E-08
v 3.88264198E-06 3.59163332 -0.535450637
v 3.88264198E-06 3.59163332 6.1035152E-08
v 0.0571620837 3.59163332 0.069142513
v 0.0571620837 3.59163332 -0.535450816
v 0.0571620837 3.98519826 -0.535450816
v 0.0571620837 3.98519826 0.069142513
v -0.153096706 3.98519826 -0.16815713
v -0.153096706 3.98519826 -0.535450637
v 3.88264198E-06 3.59163332 -0.535450637
v 0.0571620837 3.59163332 -0.535450816
v 0.0571620837 3.98519826 -0.535450816
v -0.153096706 3.98519826 -0.535450637
v -0.153096706 3.59163332 -0.535450637
v 3.88264198E-06 -6.4730628E-08 -0.535450637
v -0.153096706 -6.4730628E-08 -0.535450637
v 3.88264198E-06 3.59163332 6.1035152E-08
v -0.435884774 3.59163332 6.1035152E-08
v -0.435884774 3.59163332 0.069142513
v 0.0571620837 3.59163332 0.069142513
v -0.435884774 3.98519826 0.069142513
v -0.435884774 3.59163332 0.069142513
v -0.435884774 3.59163332 6.1035152E-08
v -0.435884774 3.98519826 -0.16815713
v -0.435884774 3.59163332 -0.16815713
v -0.435884774 -6.4730628E-08 -0.16815713
v -0.435884774 -6.4730628E-08 6.1035152E-08
v -0.435884774 3.98519826 0.069142513
v -0.435884774 3.98519826 -0.16815713
v -0.153096706 3.98519826 -0.16815713
v 0.0571620837 3.98519826 0.069142513
vt 0.453857422 0.627441406
vt 0.416503906 0.627441406
vt 0.416503906 0.655761719
vt 0.453857422 0.655761719
vt 0.453857422 0.627441406
vt 0.491210938 0.627441406
vt 0.491210938 0.655761719
vt 0.453857422 0.655761719
vt 0.453857422 0.338134766
vt 0.416503906 0.338134766
vt 0.416503906 0.623046875
vt 0.453857422 0.623046875
vt 0.453857422 0.619140625
vt 0.491210938 0.619140625
vt 0.491210938 0.331298828
vt 0.453857422 0.331298828
vt 0.453857422 0.623046875
vt 0.416503906 0.623046875
vt 0.416503906 0.627441406
vt 0.453857422 0.627441406
vt 0.440185547 0.489746094
vt 0.416503906 0.467041016
vt 0.433349609 0.466308594
vt 0.453857422 0.478759766
vt 0.435546875 0.625488281
vt 0.438964844 0.625488281
vt 0.438964844 0.655761719
vt 0.426269531 0.655761719
vt 0.426025391 0.625488281
vt 0.434814453 0.334228516
vt 0.425537109 0.334228516
vt 0.453857422 0.623046875
vt 0.491210938 0.623046875
vt 0.491210938 0.627441406
vt 0.453857422 0.627441406
vt 0.434570312 0.655761719
vt 0.434326172 0.627441406
vt 0.438720703 0.627441406
vt 0.453857422 0.655761719
vt 0.453857422 0.627441406
vt 0.453857422 0.334228516
vt 0.437744141 0.334228516
vt 0.478759766 0.465820312
vt 0.491210938 0.478027344
vt 0.471679688 0.485595703
vt 0.453857422 0.478759766
vn 1 0 0
vn 1 0 0
vn 1 0 0
vn 1 0 0
vn -0 0 1
vn -0 0 1
vn -0 0 1
vn -0 0 1
vn 1 0 0
vn 1 0 0
vn 1 0 0
vn 1 0 0
vn -0 0 1
vn -0 0 1
vn -0 0 1
vn -0 0 1
vn -0 -1 0
vn -0 -1 0
vn -0 -1 0
vn -0 -1 0
vn -0 1 0
vn -0 1 0
vn -0 1 0
vn -0 1 0
vn -1.37090683E-06 -1.78813934E-07 -1
vn -1.84774399E-06 -2.38418579E-07 -1
vn -1.84774399E-06 -2.38418579E-07 -1
vn -1.54972076E-06 -1.78813934E-07 -1
vn -0 0 -1
vn -0 0 -1
vn -0 0 -1
vn -0 -1 0
vn -0 -1 0
vn -0 -1 0
vn -0 -1 0
vn -1 -6.49690628E-06 0
vn -1 -6.49690628E-06 0
vn -1 -4.88758087E-06 0
vn -1 -5.42402267E-06 0
vn -1 0 0
vn -1 0 0
vn -1 0 0
vn -0 1 0
vn -0 1 0
vn -0 1 0
vn -0 1 0
g Corner_Column_Hydroelectric_Plant_2_0
f 3/3/3 2/2/2 1/1/1
f 4/4/4 3/3/3 1/1/1
f 7/7/7 6/6/6 5/5/5
f 8/8/8 7/7/7 5/5/5
f 11/11/11 10/10/10 9/9/9
f 12/12/12 11/11/11 9/9/9
f 15/15/15 14/14/14 13/13/13
f 16/16/16 15/15/15 13/13/13
f 19/19/19 18/18/18 17/17/17
f 20/20/20 19/19/19 17/17/17
f 23/23/23 22/22/22 21/21/21
f 24/24/24 23/23/23 21/21/21
f 27/27/27 26/26/26 25/25/25
f 28/28/28 27/27/27 25/25/25
f 29/29/29 28/28/28 25/25/25
f 29/29/29 25/25/25 30/30/30
f 31/31/31 29/29/29 30/30/30
f 34/34/34 33/33/33 32/32/32
f 35/35/35 34/34/34 32/32/32
f 38/38/38 37/37/37 36/36/36
f 39/39/39 38/38/38 36/36/36
f 40/40/40 38/38/38 39/39/39
f 40/40/40 41/41/41 38/38/38
f 41/41/41 42/42/42 38/38/38
f 45/45/45 44/44/44 43/43/43
f 46/46/46 45/45/45 43/43/43
