g Bowl_B
v 0.115605466 0.119712368 0
v 0.0861669928 0.0254826341 0
v 0.0746191368 0.0254826341 -0.0430810526
v 0.0887890607 0.0253384393 -0.0512646474
v 0.0349755846 0 -0.0605761707
v 0.0605761707 0 -0.0349804685
v 0.0512597635 0.0253384393 -0.088779293
v -0 0 -0.0699462891
v -0 0.0253384393 -0.102514647
v -0.0349658206 0 -0.0605761707
v -0 0.112131953 -0.128955081
v 0.0644775406 0.112131953 -0.111684568
v -0.0644775406 0.112131953 -0.111684568
v -0.0512548834 0.0253384393 -0.088779293
v -0.0605761707 0 -0.0349804685
v -0.088779293 0.0253384393 -0.0512646474
v -0.0699462891 0 0
v -0.102514647 0.0253387447 0
v 0.0605761707 0 -0.0349804685
v 0.0699462891 0 0
v 0.102519527 0.0253387447 0
v 0.0887890607 0.0253384393 -0.0512646474
v 0.111679688 0.112131953 -0.0644775406
v 0.128955081 0.112131953 0
v 0.0644775406 0.112131953 -0.111684568
v 0.0512597635 0.0253384393 -0.088779293
v -0.102514647 0.0253387447 0
v -0.0605761707 0 0.0349707007
v -0.0699462891 0 0
v -0.088779293 0.0253384393 0.0512548834
v -0.0349658206 0 0.0605664067
v -0.0512548834 0.0253384393 0.088779293
v -0 0 0.0699365214
v -0 0.0253384393 0.102514647
v 0.0349755846 0 0.0605664067
v 0.0512597635 0.0253384393 0.088779293
v 0.0605761707 0 0.0349707007
v 0.0887890607 0.0253384393 0.0512548834
v -0.0512548834 0.0253384393 0.088779293
v -0 0.0253384393 0.102514647
v -0 0 0.0699365214
v -0 0.112131953 0.128955081
v -0.0644775406 0.112131953 0.111674801
v -0.088779293 0.0253384393 0.0512548834
v -0.111674801 0.112131953 0.0644775406
v 0.0644775406 0.112131953 0.111674801
v 0.0512597635 0.0253384393 0.088779293
v 0.0349755846 0 0.0605664067
v 0.0887890607 0.0253384393 0.0512548834
v 0.0699462891 0 0
v 0.0605761707 0 0.0349707007
v 0.102519527 0.0253387447 0
v 0.128955081 0.112131953 0
v 0.111679688 0.112131953 0.0644775406
v 0.0512597635 0.0253384393 0.088779293
v 0.0644775406 0.112131953 0.111674801
v -0.0512548834 0.0253384393 -0.088779293
v -0.0644775406 0.112131953 -0.111684568
v -0.111674801 0.112131953 -0.0644775406
v -0.088779293 0.0253384393 -0.0512646474
v -0.128950194 0.112131953 0
v -0.102514647 0.0253387447 0
v -0.102514647 0.0253387447 0
v -0.128950194 0.112131953 0
v -0.111674801 0.112131953 0.0644775406
v -0.088779293 0.0253384393 0.0512548834
v -0.111674801 0.112131953 -0.0644775406
v -0.115600586 0.119712368 0
v -0.128950194 0.112131953 0
v -0.100112304 0.119712368 -0.057802733
v -0.0644775406 0.112131953 -0.111684568
v -0.057802733 0.119712368 -0.100122064
v -0 0.112131953 -0.128955081
v -0 0.119712368 -0.115605466
v 0.0644775406 0.112131953 -0.111684568
v 0.057802733 0.119712368 -0.100122064
v 0.111679688 0.112131953 -0.0644775406
v 0.100117184 0.119712368 -0.057802733
v 0.128955081 0.112131953 0
v 0.115605466 0.119712368 0
v -0.128950194 0.112131953 0
v -0.115600586 0.119712368 0
v -0.100112304 0.119712368 0.057802733
v -0.111674801 0.112131953 0.0644775406
v -0.057802733 0.119712368 0.100112304
v -0.0644775406 0.112131953 0.111674801
v -0 0.119712368 0.115605466
v -0 0.112131953 0.128955081
v 0.057802733 0.119712368 0.100112304
v 0.0644775406 0.112131953 0.111674801
v 0.100117184 0.119712368 0.057802733
v 0.111679688 0.112131953 0.0644775406
v 0.115605466 0.119712368 0
v 0.128955081 0.112131953 0
v 0.057802733 0.119712368 -0.100122064
v -0 0.0254826341 -0.0861621052
v -0 0.119712368 -0.115605466
v 0.0430810526 0.0254826341 -0.0746191368
v 0.100117184 0.119712368 -0.057802733
v 0.0746191368 0.0254826341 -0.0430810526
v 0.115605466 0.119712368 0
v -0 0.119712368 -0.115605466
v -0 0.0254826341 -0.0861621052
v -0.0430810526 0.0254826341 -0.0746191368
v -0.057802733 0.119712368 -0.100122064
v -0.0746191368 0.0254826341 -0.0430810526
v -0.100112304 0.119712368 -0.057802733
v -0.100112304 0.119712368 -0.057802733
v -0.0746191368 0.0254826341 -0.0430810526
v -0.0861572251 0.0254826341 0
v -0.115600586 0.119712368 0
v -0.115600586 0.119712368 0
v -0.0861572251 0.0254826341 0
v -0.0746191368 0.0254826341 0.0430810526
v -0.100112304 0.119712368 0.057802733
v -0.100112304 0.119712368 0.057802733
v -0.0746191368 0.0254826341 0.0430810526
v -0.0430810526 0.0254826341 0.0746191368
v -0.057802733 0.119712368 0.100112304
v -0 0.0254826341 0.0861621052
v -0 0.119712368 0.115605466
v -0 0.119712368 0.115605466
v -0 0.0254826341 0.0861621052
v 0.0430810526 0.0254826341 0.0746191368
v 0.057802733 0.119712368 0.100112304
v 0.0746191368 0.0254826341 0.0430810526
v 0.100117184 0.119712368 0.057802733
v 0.0861669928 0.0254826341 0
v 0.115605466 0.119712368 0
v 0.0699462891 0 0
v -0 0 0
v 0.0605761707 0 0.0349707007
v 0.0605761707 0 -0.0349804685
v 0.0349755846 0 0.0605664067
v 0.0349755846 0 -0.0605761707
v -0 0 0.0699365214
v -0 0 -0.0699462891
v -0.0349658206 0 0.0605664067
v -0.0349658206 0 -0.0605761707
v -0.0605761707 0 0.0349707007
v -0.0605761707 0 -0.0349804685
v -0.0699462891 0 0
v 0.0746191368 0.0254826341 0.0430810526
v -0 0.00882034283 0
v 0.0861669928 0.0254826341 0
v 0.0430810526 0.0254826341 0.0746191368
v 0.0746191368 0.0254826341 -0.0430810526
v -0 0.0254826341 0.0861621052
v 0.0430810526 0.0254826341 -0.0746191368
v -0.0430810526 0.0254826341 0.0746191368
v -0 0.0254826341 -0.0861621052
v -0.0746191368 0.0254826341 0.0430810526
v -0.0430810526 0.0254826341 -0.0746191368
v -0.0861572251 0.0254826341 0
v -0.0746191368 0.0254826341 -0.0430810526
vt 0.449462891 0.650878906
vt 0.433349609 0.618652344
vt 0.418212891 0.625
vt 0.419677734 0.629882812
vt 0.399902344 0.619628906
vt 0.4140625 0.616699219
vt 0.40234375 0.633300781
vt 0.384765625 0.620117188
vt 0.384765625 0.634277344
vt 0.369628906 0.619140625
vt 0.384277344 0.665039062
vt 0.405761719 0.6640625
vt 0.362792969 0.663085938
vt 0.3671875 0.6328125
vt 0.355224609 0.616210938
vt 0.349853516 0.629394531
vt 0.343017578 0.610839844
vt 0.332519531 0.622558594
vt 0.4140625 0.616699219
vt 0.426025391 0.610839844
vt 0.436035156 0.623046875
vt 0.419677734 0.629882812
vt 0.427246094 0.66015625
vt 0.449462891 0.654785156
vt 0.405761719 0.6640625
vt 0.40234375 0.633300781
vt 0.333740234 0.623046875
vt 0.355712891 0.616699219
vt 0.34375 0.610839844
vt 0.350097656 0.629882812
vt 0.370117188 0.619628906
vt 0.367431641 0.633300781
vt 0.385009766 0.620117188
vt 0.385009766 0.634277344
vt 0.400146484 0.619140625
vt 0.402587891 0.6328125
vt 0.414794922 0.616210938
vt 0.420166016 0.629394531
vt 0.367431641 0.633300781
vt 0.385009766 0.634277344
vt 0.385009766 0.620117188
vt 0.385742188 0.665039062
vt 0.364257812 0.6640625
vt 0.350097656 0.629882812
vt 0.342773438 0.66015625
vt 0.406982422 0.663085938
vt 0.402587891 0.6328125
vt 0.400146484 0.619140625
vt 0.420166016 0.629394531
vt 0.427001953 0.610839844
vt 0.414794922 0.616210938
vt 0.437255859 0.622558594
vt 0.449462891 0.654296875
vt 0.428222656 0.659179688
vt 0.402587891 0.6328125
vt 0.406982422 0.663085938
vt 0.3671875 0.6328125
vt 0.362792969 0.663085938
vt 0.341796875 0.659179688
vt 0.349853516 0.629394531
vt 0.320556641 0.654296875
vt 0.332519531 0.622558594
vt 0.333740234 0.623046875
vt 0.320556641 0.654785156
vt 0.342773438 0.66015625
vt 0.350097656 0.629882812
vt 0.341796875 0.659179688
vt 0.321044922 0.659667969
vt 0.320556641 0.654296875
vt 0.341064453 0.6640625
vt 0.362792969 0.663085938
vt 0.362304688 0.668457031
vt 0.384277344 0.665039062
vt 0.384033203 0.669921875
vt 0.405761719 0.6640625
vt 0.40625 0.668945312
vt 0.427246094 0.66015625
vt 0.427734375 0.665039062
vt 0.449462891 0.654785156
vt 0.448974609 0.66015625
vt 0.320556641 0.654785156
vt 0.321044922 0.66015625
vt 0.342041016 0.665039062
vt 0.342773438 0.66015625
vt 0.363769531 0.668945312
vt 0.364257812 0.6640625
vt 0.385742188 0.669921875
vt 0.385742188 0.665039062
vt 0.407714844 0.668457031
vt 0.406982422 0.663085938
vt 0.428955078 0.6640625
vt 0.428222656 0.659179688
vt 0.448974609 0.659667969
vt 0.449462891 0.654296875
vt 0.407958984 0.664550781
vt 0.385986328 0.629882812
vt 0.385986328 0.666015625
vt 0.40234375 0.62890625
vt 0.429199219 0.659179688
vt 0.418212891 0.625
vt 0.449462891 0.650878906
vt 0.385986328 0.666015625
vt 0.385986328 0.629882812
vt 0.369873047 0.62890625
vt 0.364257812 0.664550781
vt 0.354003906 0.625
vt 0.342773438 0.659179688
vt 0.342773438 0.659179688
vt 0.354003906 0.625
vt 0.338867188 0.618652344
vt 0.322509766 0.650878906
vt 0.449462891 0.651367188
vt 0.433349609 0.619140625
vt 0.418212891 0.625
vt 0.429199219 0.659667969
vt 0.429199219 0.659667969
vt 0.418212891 0.625
vt 0.40234375 0.62890625
vt 0.407958984 0.664550781
vt 0.385986328 0.629882812
vt 0.385986328 0.666503906
vt 0.385986328 0.666503906
vt 0.385986328 0.629882812
vt 0.369628906 0.62890625
vt 0.364013672 0.664550781
vt 0.353759766 0.625
vt 0.342773438 0.659667969
vt 0.338623047 0.619140625
vt 0.322509766 0.651367188
vt 0.396484375 0.627441406
vt 0.383544922 0.640625
vt 0.401367188 0.635742188
vt 0.388183594 0.622558594
vt 0.401367188 0.645507812
vt 0.378662109 0.622558594
vt 0.396484375 0.653808594
vt 0.370361328 0.627441406
vt 0.388183594 0.658203125
vt 0.365722656 0.635742188
vt 0.378662109 0.658203125
vt 0.365722656 0.645507812
vt 0.370361328 0.653808594
vt 0.365966797 0.623046875
vt 0.383544922 0.640625
vt 0.377197266 0.616699219
vt 0.359619141 0.634277344
vt 0.389892578 0.616699219
vt 0.359619141 0.646972656
vt 0.400878906 0.623046875
vt 0.365966797 0.657714844
vt 0.407470703 0.634277344
vt 0.377197266 0.664550781
vt 0.407470703 0.646972656
vt 0.389892578 0.664550781
vt 0.400878906 0.657714844
vn -0.954589844 0.298339844 0
vn -0.861816406 0.506835938 0
vn -0.746582031 0.507324219 0.430908203
vn 0.788574219 -0.413818359 -0.455078125
vn 0.214111328 -0.903808594 -0.370849609
vn 0.370849609 -0.903808594 -0.214111328
vn 0.455078125 -0.413818359 -0.788574219
vn -1.7285347E-06 -0.903808594 -0.428222656
vn -1.78813934E-07 -0.413818359 -0.91015625
vn -0.214111328 -0.903808594 -0.370849609
vn -0 -0.144897461 -0.989257812
vn 0.494628906 -0.144897461 -0.856933594
vn -0.494628906 -0.144897461 -0.856933594
vn -0.455078125 -0.413818359 -0.788574219
vn -0.370849609 -0.903808594 -0.214111328
vn -0.788574219 -0.413818359 -0.455078125
vn -0.428222656 -0.903808594 1.7285347E-06
vn -0.910644531 -0.413818359 3.57627869E-07
vn 0.370849609 -0.903808594 -0.214111328
vn 0.428222656 -0.903808594 1.7285347E-06
vn 0.91015625 -0.413818359 3.57627869E-07
vn 0.788574219 -0.413818359 -0.455078125
vn 0.856933594 -0.144897461 -0.494628906
vn 0.989257812 -0.144775391 0
vn 0.494628906 -0.144897461 -0.856933594
vn 0.455078125 -0.413818359 -0.788574219
vn -0.910644531 -0.413818359 3.57627869E-07
vn -0.370849609 -0.903808594 0.214111328
vn -0.428222656 -0.903808594 1.7285347E-06
vn -0.788574219 -0.413818359 0.455078125
vn -0.214111328 -0.903808594 0.370849609
vn -0.455078125 -0.413818359 0.788574219
vn -1.7285347E-06 -0.903808594 0.428222656
vn -1.78813934E-07 -0.413818359 0.91015625
vn 0.214111328 -0.903808594 0.370849609
vn 0.455078125 -0.413818359 0.788574219
vn 0.370849609 -0.903808594 0.214111328
vn 0.788574219 -0.413818359 0.455322266
vn -0.455078125 -0.413818359 0.788574219
vn -1.78813934E-07 -0.413818359 0.91015625
vn -1.7285347E-06 -0.903808594 0.428222656
vn -0 -0.144897461 0.989257812
vn -0.494628906 -0.144897461 0.856933594
vn -0.788574219 -0.413818359 0.455078125
vn -0.856933594 -0.144897461 0.494628906
vn 0.494628906 -0.144897461 0.856933594
vn 0.455078125 -0.413818359 0.788574219
vn 0.214111328 -0.903808594 0.370849609
vn 0.788574219 -0.413818359 0.455322266
vn 0.428222656 -0.903808594 1.7285347E-06
vn 0.370849609 -0.903808594 0.214111328
vn 0.91015625 -0.413818359 3.57627869E-07
vn 0.989257812 -0.144775391 0
vn 0.856933594 -0.144897461 0.494628906
vn 0.455078125 -0.413818359 0.788574219
vn 0.494628906 -0.144897461 0.856933594
vn -0.455078125 -0.413818359 -0.788574219
vn -0.494628906 -0.144897461 -0.856933594
vn -0.856933594 -0.144897461 -0.494628906
vn -0.788574219 -0.413818359 -0.455078125
vn -0.989257812 -0.144897461 0
vn -0.910644531 -0.413818359 3.57627869E-07
vn -0.910644531 -0.413818359 3.57627869E-07
vn -0.989257812 -0.144897461 0
vn -0.856933594 -0.144897461 0.494628906
vn -0.788574219 -0.413818359 0.455078125
vn -0.856933594 -0.144897461 -0.494628906
vn -0.493652344 0.869628906 0
vn -0.989257812 -0.144897461 0
vn -0.427734375 0.869628906 -0.246826172
vn -0.494628906 -0.144897461 -0.856933594
vn -0.246826172 0.869628906 -0.427490234
vn -0 -0.144897461 -0.989257812
vn -0 0.869628906 -0.493652344
vn 0.494628906 -0.144897461 -0.856933594
vn 0.246826172 0.869628906 -0.427490234
vn 0.856933594 -0.144897461 -0.494628906
vn 0.427734375 0.869628906 -0.246826172
vn 0.989257812 -0.144775391 0
vn 0.493652344 0.869628906 0
vn -0.989257812 -0.144897461 0
vn -0.493652344 0.869628906 0
vn -0.427490234 0.869628906 0.246826172
vn -0.856933594 -0.144897461 0.494628906
vn -0.246948242 0.869628906 0.427490234
vn -0.494628906 -0.144897461 0.856933594
vn -0 0.869628906 0.493652344
vn -0 -0.144897461 0.989257812
vn 0.246826172 0.869628906 0.427490234
vn 0.494628906 -0.144897461 0.856933594
vn 0.427490234 0.869628906 0.246948242
vn 0.856933594 -0.144897461 0.494628906
vn 0.493652344 0.869628906 0
vn 0.989257812 -0.144775391 0
vn -0.477294922 0.298339844 0.826660156
vn -0 0.507324219 0.861816406
vn -0 0.298339844 0.954589844
vn -0.430908203 0.507324219 0.746582031
vn -0.826660156 0.298339844 0.477294922
vn -0.746582031 0.507324219 0.430908203
vn -0.954589844 0.298339844 0
vn -0 0.298339844 0.954589844
vn -0 0.507324219 0.861816406
vn 0.430908203 0.507324219 0.746582031
vn 0.477294922 0.298339844 0.826660156
vn 0.746582031 0.506835938 0.430908203
vn 0.826660156 0.298339844 0.477294922
vn 0.826660156 0.298339844 0.477294922
vn 0.746582031 0.506835938 0.430908203
vn 0.861816406 0.506835938 0
vn 0.954589844 0.298095703 0
vn 0.954589844 0.298095703 0
vn 0.861816406 0.506835938 0
vn 0.746582031 0.506835938 -0.430908203
vn 0.826660156 0.298095703 -0.477294922
vn 0.826660156 0.298095703 -0.477294922
vn 0.746582031 0.506835938 -0.430908203
vn 0.430908203 0.506835938 -0.746582031
vn 0.477294922 0.298095703 -0.826660156
vn -0 0.506835938 -0.861816406
vn -0 0.298339844 -0.954589844
vn -0 0.298339844 -0.954589844
vn -0 0.506835938 -0.861816406
vn -0.430908203 0.506835938 -0.746582031
vn -0.477294922 0.298095703 -0.826660156
vn -0.746582031 0.507324219 -0.430908203
vn -0.826660156 0.298339844 -0.477294922
vn -0.861816406 0.506835938 0
vn -0.954589844 0.298339844 0
vn 0.428222656 -0.903808594 1.7285347E-06
vn -0 -1 0
vn 0.370849609 -0.903808594 0.214111328
vn 0.370849609 -0.903808594 -0.214111328
vn 0.214111328 -0.903808594 0.370849609
vn 0.214111328 -0.903808594 -0.370849609
vn -1.7285347E-06 -0.903808594 0.428222656
vn -1.7285347E-06 -0.903808594 -0.428222656
vn -0.214111328 -0.903808594 0.370849609
vn -0.214111328 -0.903808594 -0.370849609
vn -0.370849609 -0.903808594 0.214111328
vn -0.370849609 -0.903808594 -0.214111328
vn -0.428222656 -0.903808594 1.7285347E-06
vn -0.746582031 0.507324219 -0.430908203
vn -0 1 0
vn -0.861816406 0.506835938 0
vn -0.430908203 0.506835938 -0.746582031
vn -0.746582031 0.507324219 0.430908203
vn -0 0.506835938 -0.861816406
vn -0.430908203 0.507324219 0.746582031
vn 0.430908203 0.506835938 -0.746582031
vn -0 0.507324219 0.861816406
vn 0.746582031 0.506835938 -0.430908203
vn 0.430908203 0.507324219 0.746582031
vn 0.861816406 0.506835938 0
vn 0.746582031 0.506835938 0.430908203
g Bowl_B_0
f 3/3/3 2/2/2 1/1/1
f 6/6/6 5/5/5 4/4/4
f 5/5/5 7/7/7 4/4/4
f 5/5/5 8/8/8 7/7/7
f 8/8/8 9/9/9 7/7/7
f 8/8/8 10/10/10 9/9/9
f 9/9/9 11/11/11 7/7/7
f 11/11/11 12/12/12 7/7/7
f 13/13/13 11/11/11 9/9/9
f 14/14/14 13/13/13 9/9/9
f 10/10/10 14/14/14 9/9/9
f 10/10/10 15/15/15 14/14/14
f 15/15/15 16/16/16 14/14/14
f 15/15/15 17/17/17 16/16/16
f 17/17/17 18/18/18 16/16/16
f 21/21/21 20/20/20 19/19/19
f 22/22/22 21/21/21 19/19/19
f 22/22/22 23/23/23 21/21/21
f 23/23/23 24/24/24 21/21/21
f 25/25/25 23/23/23 22/22/22
f 26/26/26 25/25/25 22/22/22
f 29/29/29 28/28/28 27/27/27
f 28/28/28 30/30/30 27/27/27
f 28/28/28 31/31/31 30/30/30
f 31/31/31 32/32/32 30/30/30
f 31/31/31 33/33/33 32/32/32
f 33/33/33 35/35/35 34/34/34
f 35/35/35 37/37/37 36/36/36
f 37/37/37 38/38/38 36/36/36
f 41/41/41 40/40/40 39/39/39
f 40/40/40 42/42/42 39/39/39
f 42/42/42 43/43/43 39/39/39
f 39/39/39 43/43/43 44/44/44
f 43/43/43 45/45/45 44/44/44
f 46/46/46 42/42/42 40/40/40
f 47/47/47 46/46/46 40/40/40
f 48/48/48 47/47/47 40/40/40
f 51/51/51 50/50/50 49/49/49
f 50/50/50 52/52/52 49/49/49
f 52/52/52 53/53/53 49/49/49
f 53/53/53 54/54/54 49/49/49
f 49/49/49 54/54/54 55/55/55
f 54/54/54 56/56/56 55/55/55
f 59/59/59 58/58/58 57/57/57
f 60/60/60 59/59/59 57/57/57
f 61/61/61 59/59/59 60/60/60
f 62/62/62 61/61/61 60/60/60
f 65/65/65 64/64/64 63/63/63
f 66/66/66 65/65/65 63/63/63
f 69/69/69 68/68/68 67/67/67
f 68/68/68 70/70/70 67/67/67
f 67/67/67 70/70/70 71/71/71
f 70/70/70 72/72/72 71/71/71
f 71/71/71 72/72/72 73/73/73
f 72/72/72 74/74/74 73/73/73
f 73/73/73 74/74/74 75/75/75
f 74/74/74 76/76/76 75/75/75
f 75/75/75 76/76/76 77/77/77
f 76/76/76 78/78/78 77/77/77
f 77/77/77 78/78/78 79/79/79
f 78/78/78 80/80/80 79/79/79
f 83/83/83 82/82/82 81/81/81
f 84/84/84 83/83/83 81/81/81
f 85/85/85 83/83/83 84/84/84
f 86/86/86 85/85/85 84/84/84
f 87/87/87 85/85/85 86/86/86
f 88/88/88 87/87/87 86/86/86
f 89/89/89 87/87/87 88/88/88
f 90/90/90 89/89/89 88/88/88
f 91/91/91 89/89/89 90/90/90
f 92/92/92 91/91/91 90/90/90
f 93/93/93 91/91/91 92/92/92
f 94/94/94 93/93/93 92/92/92
f 97/97/97 96/96/96 95/95/95
f 96/96/96 98/98/98 95/95/95
f 95/95/95 98/98/98 99/99/99
f 98/98/98 100/100/100 99/99/99
f 99/99/99 100/100/100 101/101/101
f 104/104/104 103/103/103 102/102/102
f 105/105/105 104/104/104 102/102/102
f 106/106/106 104/104/104 105/105/105
f 107/107/107 106/106/106 105/105/105
f 110/110/110 109/109/109 108/108/108
f 111/111/111 110/110/110 108/108/108
f 114/114/114 113/113/113 112/112/112
f 115/115/115 114/114/114 112/112/112
f 118/118/118 117/117/117 116/116/116
f 119/119/119 118/118/118 116/116/116
f 120/120/120 118/118/118 119/119/119
f 121/121/121 120/120/120 119/119/119
f 124/124/124 123/123/123 122/122/122
f 125/125/125 124/124/124 122/122/122
f 126/126/126 124/124/124 125/125/125
f 127/127/127 126/126/126 125/125/125
f 128/128/128 126/126/126 127/127/127
f 129/129/129 128/128/128 127/127/127
f 132/132/132 131/131/131 130/130/130
f 130/130/130 131/131/131 133/133/133
f 134/134/134 131/131/131 132/132/132
f 133/133/133 131/131/131 135/135/135
f 136/136/136 131/131/131 134/134/134
f 135/135/135 131/131/131 137/137/137
f 138/138/138 131/131/131 136/136/136
f 137/137/137 131/131/131 139/139/139
f 140/140/140 131/131/131 138/138/138
f 139/139/139 131/131/131 141/141/141
f 142/142/142 131/131/131 140/140/140
f 141/141/141 131/131/131 142/142/142
f 145/145/145 144/144/144 143/143/143
f 143/143/143 144/144/144 146/146/146
f 147/147/147 144/144/144 145/145/145
f 146/146/146 144/144/144 148/148/148
f 149/149/149 144/144/144 147/147/147
f 148/148/148 144/144/144 150/150/150
f 151/151/151 144/144/144 149/149/149
f 150/150/150 144/144/144 152/152/152
f 153/153/153 144/144/144 151/151/151
f 152/152/152 144/144/144 154/154/154
f 155/155/155 144/144/144 153/153/153
f 154/154/154 144/144/144 155/155/155
