g Roof_Gutter_Support
v -0.114721678 -0.193802491 0.174392089
v -0.11502441 -0.193803713 0.151884764
v -0.110356443 0.0273889154 0.151777342
v -0.110048823 0.0273913573 0.174279779
v 0.110053711 -0.196699217 0.149204105
v 0.110352784 -0.196696773 0.171713859
v 0.11502441 0.0244970694 0.171601564
v 0.114721678 0.0244934075 0.149096683
v 0.110352784 -0.196696773 0.171713859
v -0.114721678 -0.193802491 0.174392089
v -0.110048823 0.0273913573 0.174279779
v 0.11502441 0.0244970694 0.171601564
v -0.110048823 0.0273913573 0.174279779
v -0.110356443 0.0273889154 0.151777342
v 0.114721678 0.0244934075 0.149096683
v 0.11502441 0.0244970694 0.171601564
v 0.110352784 -0.196696773 0.171713859
v 0.110053711 -0.196699217 0.149204105
v -0.11502441 -0.193803713 0.151884764
v -0.114721678 -0.193802491 0.174392089
v -0.11502441 -0.193803713 0.151884764
v -0.0289880373 -0.132368162 0.15112792
v -0.0273071285 -0.0187316891 0.15107666
v -0.110356443 0.0273889154 0.151777342
v 0.110053711 -0.196699217 0.149204105
v -0.0289880373 -0.132368162 0.15112792
v 0.041025389 -0.134238273 0.14990966
v 0.114721678 0.0244934075 0.149096683
v 0.041025389 -0.134238273 0.14990966
v 0.0427062996 -0.0206018053 0.1498584
v -0.110356443 0.0273889154 0.151777342
v -0.0273071285 -0.0187316891 0.15107666
v 0.0427062996 -0.0206018053 0.1498584
v 0.114721678 0.0244934075 0.149096683
v 0.0437768549 -0.140594482 0.152321771
v 0.0437768549 0.134913325 -0.174389645
v -0.0340563953 0.134913325 -0.174389645
v -0.0340563953 -0.140594482 0.152321771
v -0.0340563953 -0.140594482 0.152321771
v -0.0340563953 0.134913325 -0.174389645
v -0.0340563953 0.196699217 -0.149221182
v -0.0340563953 -0.020979004 0.152458489
v -0.0340563953 -0.020979004 0.152458489
v -0.0340563953 0.196699217 -0.149221182
v 0.0437731929 0.196699217 -0.149221182
v 0.0437731929 -0.020979004 0.152458489
v 0.0437731929 -0.020979004 0.152458489
v 0.0437731929 0.196699217 -0.149221182
v 0.0437768549 0.134913325 -0.174389645
v 0.0437768549 -0.140594482 0.152321771
vt 0.510253906 0.196899414
vt 0.50390625 0.196899414
vt 0.50390625 0.126464844
vt 0.510253906 0.126464844
vt 0.510253906 0.196899414
vt 0.50390625 0.196899414
vt 0.50390625 0.126464844
vt 0.510253906 0.126464844
vt 0.388916016 0.15637207
vt 0.438232422 0.15637207
vt 0.438232422 0.0943603516
vt 0.388916016 0.0943603516
vt 0.510253906 0.196899414
vt 0.50390625 0.196899414
vt 0.50390625 0.126464844
vt 0.510253906 0.126464844
vt 0.510253906 0.196899414
vt 0.50390625 0.196899414
vt 0.50390625 0.126464844
vt 0.510253906 0.126464844
vt 0.388916016 0.15637207
vt 0.40234375 0.139526367
vt 0.40234375 0.11126709
vt 0.388916016 0.0943603516
vt 0.438232422 0.15637207
vt 0.40234375 0.139526367
vt 0.424804688 0.139526367
vt 0.438232422 0.0943603516
vt 0.424804688 0.139526367
vt 0.424804688 0.11126709
vt 0.388916016 0.0943603516
vt 0.40234375 0.11126709
vt 0.424804688 0.11126709
vt 0.438232422 0.0943603516
vt 0.498046875 0.0204925537
vt 0.498046875 0.233520508
vt 0.520996094 0.233520508
vt 0.520996094 0.0204925537
vt 0.498046875 0.0204925537
vt 0.498046875 0.233520508
vt 0.520996094 0.233520508
vt 0.520996094 0.0204925537
vt 0.520996094 0.233520508
vt 0.520996094 0.0204925537
vt 0.498046875 0.0204925537
vt 0.498046875 0.233520508
vt 0.498046875 0.0204925537
vt 0.498046875 0.233520508
vt 0.520996094 0.233520508
vt 0.520996094 0.0204925537
vn -0.999511719 0.0189361572 0.0144958496
vn -0.999511719 0.0189361572 0.0144958496
vn -0.999511719 0.0189361572 0.0144958496
vn -0.999511719 0.0189361572 0.0144958496
vn 0.999511719 -0.0189361572 -0.0144958496
vn 0.999511719 -0.0189361572 -0.0144958496
vn 0.999511719 -0.0189361572 -0.0144958496
vn 0.999511719 -0.0189361572 -0.0144958496
vn 0.0110244751 0.000207543373 1
vn 0.0110244751 0.000207543373 1
vn 0.0110244751 0.000207543373 1
vn 0.0110244751 0.000207543373 1
vn 0.0143356323 1 -0.000396490097
vn 0.0143356323 1 -0.000396490097
vn 0.0143356323 1 -0.000396490097
vn 0.0143356323 1 -0.000396490097
vn -0.0143356323 -1 0.000321388245
vn -0.0143356323 -1 0.000321388245
vn -0.0143356323 -1 0.000321388245
vn -0.0143356323 -1 0.000321388245
vn -0.00901031494 -0.00025844574 -1
vn -0.00901031494 -0.00025844574 -1
vn -0.00901031494 -0.00025844574 -1
vn -0.00901031494 -0.00025844574 -1
vn -0.0109863281 -0.000218391418 -1
vn -0.011505127 0.00100898743 -1
vn -0.011505127 0.00100898743 -1
vn -0.0109863281 -0.000218391418 -1
vn -0.0109863281 -0.000218391418 -1
vn -0.0109863281 -0.000218391418 -1
vn -0.0115356445 -0.00103092194 -1
vn -0.0115356445 -0.00103092194 -1
vn -0.0115356445 -0.00103092194 -1
vn -0.0115356445 -0.00103092194 -1
vn -0 -0.790527344 -0.612304688
vn -0 -0.790527344 -0.612304688
vn -0 -0.790527344 -0.612304688
vn -0 -0.790527344 -0.612304688
vn -1 0 0
vn -1 0 0
vn -1 0 0
vn -1 0 0
vn -0 0.801757812 0.59765625
vn -0 0.801757812 0.59765625
vn -0 0.801757812 0.59765625
vn -0 0.801757812 0.59765625
vn 1 0 -1.06692314E-05
vn 1 0 -1.06692314E-05
vn 1 0 -1.06692314E-05
vn 1 0 -1.06692314E-05
g Roof_Gutter_Support_0
f 3/3/3 2/2/2 1/1/1
f 4/4/4 3/3/3 1/1/1
f 7/7/7 6/6/6 5/5/5
f 8/8/8 7/7/7 5/5/5
f 11/11/11 10/10/10 9/9/9
f 12/12/12 11/11/11 9/9/9
f 15/15/15 14/14/14 13/13/13
f 16/16/16 15/15/15 13/13/13
f 19/19/19 18/18/18 17/17/17
f 20/20/20 19/19/19 17/17/17
f 23/23/23 22/22/22 21/21/21
f 24/24/24 23/23/23 21/21/21
f 21/21/21 26/26/26 25/25/25
f 26/26/26 27/27/27 25/25/25
f 25/25/25 29/29/29 28/28/28
f 29/29/29 30/30/30 28/28/28
f 33/33/33 32/32/32 31/31/31
f 34/34/34 33/33/33 31/31/31
f 37/37/37 36/36/36 35/35/35
f 38/38/38 37/37/37 35/35/35
f 41/41/41 40/40/40 39/39/39
f 42/42/42 41/41/41 39/39/39
f 45/45/45 44/44/44 43/43/43
f 46/46/46 45/45/45 43/43/43
f 49/49/49 48/48/48 47/47/47
f 50/50/50 49/49/49 47/47/47
