g Step_9
v -0.600000501 -0.0311088562 -0.168324202
v -0.600000501 0.0311088562 -0.168324202
v -0.600000501 0.0311088562 0.168324962
v -0.600000501 -0.0311088562 0.168324962
v -0.600000501 0.0311088562 -0.168324202
v 0.599999487 0.0311088562 -0.168324202
v 0.599999487 0.0311088562 0.168324962
v -0.600000501 0.0311088562 0.168324962
v 0.599999487 0.0311088562 -0.168324202
v 0.599999487 -0.0311088562 -0.168324202
v 0.599999487 -0.0311088562 0.168324962
v 0.599999487 0.0311088562 0.168324962
v 0.599999487 -0.0311088562 -0.168324202
v -0.600000501 -0.0311088562 -0.168324202
v -0.600000501 -0.0311088562 0.168324962
v 0.599999487 -0.0311088562 0.168324962
v -0.600000501 -0.0311088562 0.168324962
v -0.600000501 0.0311088562 0.168324962
v 0.599999487 0.0311088562 0.168324962
v 0.599999487 -0.0311088562 0.168324962
v 0.599999487 -0.0311088562 -0.168324202
v 0.599999487 0.0311088562 -0.168324202
v -0.600000501 0.0311088562 -0.168324202
v -0.600000501 -0.0311088562 -0.168324202
vt 0.54296875 0.9140625
vt 0.54296875 0.90625
vt 0.481445312 0.90625
vt 0.481445312 0.9140625
vt 0.0845947266 0.81640625
vt 0.304443359 0.81640625
vt 0.304443359 0.754394531
vt 0.0845947266 0.754394531
vt 0.54296875 0.9140625
vt 0.54296875 0.90625
vt 0.481445312 0.90625
vt 0.481445312 0.9140625
vt 0.0845947266 0.815917969
vt 0.304443359 0.815917969
vt 0.304443359 0.754394531
vt 0.0845947266 0.754394531
vt 0.701171875 0.9140625
vt 0.701171875 0.90625
vt 0.481445312 0.90625
vt 0.481445312 0.9140625
vt 0.701171875 0.9140625
vt 0.701171875 0.90625
vt 0.481445312 0.90625
vt 0.481445312 0.9140625
vn -1 0 0
vn -1 0 0
vn -1 0 0
vn -1 0 0
vn -0 1 0
vn -0 1 0
vn -0 1 0
vn -0 1 0
vn 1 0 0
vn 1 0 0
vn 1 0 0
vn 1 0 0
vn -0 -1 0
vn -0 -1 0
vn -0 -1 0
vn -0 -1 0
vn -0 0 1
vn -0 0 1
vn -0 0 1
vn -0 0 1
vn -0 0 -1
vn -0 0 -1
vn -0 0 -1
vn -0 0 -1
g Step_9_0
f 3/3/3 2/2/2 1/1/1
f 4/4/4 3/3/3 1/1/1
f 7/7/7 6/6/6 5/5/5
f 8/8/8 7/7/7 5/5/5
f 11/11/11 10/10/10 9/9/9
f 12/12/12 11/11/11 9/9/9
f 15/15/15 14/14/14 13/13/13
f 16/16/16 15/15/15 13/13/13
f 19/19/19 18/18/18 17/17/17
f 20/20/20 19/19/19 17/17/17
f 23/23/23 22/22/22 21/21/21
f 24/24/24 23/23/23 21/21/21
